<svg xmlns="http://www.w3.org/2000/svg" xmlns:xlink="http://www.w3.org/1999/xlink" xmlns:inkscape="http://www.inkscape.org/namespaces/inkscape" version="1.1" width="612" height="792" viewBox="0 0 612 792">
<path transform="matrix(.1,0,0,-.1,0,792)" d="M3638.4 3546.6V3481.6 3908.6L3894.3 4164.5 3940.2 4118.5 3894.3 4164.5 3638.4 4420.4V4782.3H3703.4 3638.4 3276.4L3020.5 5038.2 3066.5 5084.2 3020.5 5038.2 2764.6 4782.3H2402.7V4847.3 4782.3 4420.4L2146.8 4164.5 2100.8 4210.4 2146.8 4164.5 2402.7 3908.6V3546.6H2337.7 2402.7 2764.6L3020.5 3290.7 2974.6 3244.8 3020.5 3290.7 3276.4 3546.6" fill="#5effff"/>
<path transform="matrix(.1,0,0,-.1,0,792)" stroke-width="13" stroke-linecap="butt" stroke-miterlimit="10" stroke-linejoin="miter" fill="none" stroke="#000000" d="M3638.4 3546.6V3481.6 3908.6L3894.3 4164.5 3940.2 4118.5 3894.3 4164.5 3638.4 4420.4V4782.3H3703.4 3638.4 3276.4L3020.5 5038.2 3066.5 5084.2 3020.5 5038.2 2764.6 4782.3H2402.7V4847.3 4782.3 4420.4L2146.8 4164.5 2100.8 4210.4 2146.8 4164.5 2402.7 3908.6V3546.6H2337.7 2402.7 2764.6L3020.5 3290.7 2974.6 3244.8 3020.5 3290.7 3276.4 3546.6Z"/>
<path transform="matrix(.1,0,0,-.1,0,792)" d="M3330.3 4912.3H3703.4 3638.4V5274.2L3894.3 5530.2 3940.2 5576.1 3894.3 5530.2 3638.4 5786.1V6148 6213 6148H3330.3L3112.4 5930.2 3066.5 5884.2 3112.4 5930.2 3512.4 5530.2 3112.4 5130.2 3066.5 5084.2 3112.4 5130.2" fill="#ffff9e"/>
<path transform="matrix(.1,0,0,-.1,0,792)" stroke-width="13" stroke-linecap="butt" stroke-miterlimit="10" stroke-linejoin="miter" fill="none" stroke="#000000" d="M3330.3 4912.3H3703.4 3638.4V5274.2L3894.3 5530.2 3940.2 5576.1 3894.3 5530.2 3638.4 5786.1V6148 6213 6148H3330.3L3112.4 5930.2 3066.5 5884.2 3112.4 5930.2 3512.4 5530.2 3112.4 5130.2 3066.5 5084.2 3112.4 5130.2Z"/>
<path transform="matrix(.1,0,0,-.1,0,792)" d="M2710.8 4912.3 2928.6 5130.2 2974.6 5176.1 2928.6 5130.2 2528.6 5530.2 2928.6 5930.2 2974.6 5976.1 2928.6 5930.2 2710.8 6148H2402.7 2337.7 2402.7V5786.1L2146.8 5530.2 2100.8 5484.2 2146.8 5530.2 2402.7 5274.2V4912.3 4847.3 4912.3" fill="#ffff9e"/>
<path transform="matrix(.1,0,0,-.1,0,792)" stroke-width="13" stroke-linecap="butt" stroke-miterlimit="10" stroke-linejoin="miter" fill="none" stroke="#000000" d="M2710.8 4912.3 2928.6 5130.2 2974.6 5176.1 2928.6 5130.2 2528.6 5530.2 2928.6 5930.2 2974.6 5976.1 2928.6 5930.2 2710.8 6148H2402.7 2337.7 2402.7V5786.1L2146.8 5530.2 2100.8 5484.2 2146.8 5530.2 2402.7 5274.2V4912.3 4847.3 4912.3Z"/>
<path transform="matrix(.1,0,0,-.1,0,792)" d="M2710.8 3416.6H2337.7 2402.7V3054.7L2146.8 2798.8 2100.8 2752.8 2146.8 2798.8 2402.7 2542.9V2180.9 2115.9 2180.9H2710.8L2928.6 2398.8 2974.6 2444.8 2928.6 2398.8 2528.6 2798.8 2928.6 3198.8 2974.6 3244.8 2928.6 3198.8" fill="#ffff9e"/>
<path transform="matrix(.1,0,0,-.1,0,792)" stroke-width="13" stroke-linecap="butt" stroke-miterlimit="10" stroke-linejoin="miter" fill="none" stroke="#000000" d="M2710.8 3416.6H2337.7 2402.7V3054.7L2146.8 2798.8 2100.8 2752.8 2146.8 2798.8 2402.7 2542.9V2180.9 2115.9 2180.9H2710.8L2928.6 2398.8 2974.6 2444.8 2928.6 2398.8 2528.6 2798.8 2928.6 3198.8 2974.6 3244.8 2928.6 3198.8Z"/>
<path transform="matrix(.1,0,0,-.1,0,792)" d="M3330.3 3416.6 3112.4 3198.8 3066.5 3152.8 3112.4 3198.8 3512.4 2798.8 3112.4 2398.8 3066.5 2352.8 3112.4 2398.8 3330.3 2180.9H3638.4 3703.4 3638.4V2542.9L3894.3 2798.8 3940.2 2844.8 3894.3 2798.8 3638.4 3054.7V3416.6 3481.6 3416.6" fill="#ffff9e"/>
<path transform="matrix(.1,0,0,-.1,0,792)" stroke-width="13" stroke-linecap="butt" stroke-miterlimit="10" stroke-linejoin="miter" fill="none" stroke="#000000" d="M3330.3 3416.6 3112.4 3198.8 3066.5 3152.8 3112.4 3198.8 3512.4 2798.8 3112.4 2398.8 3066.5 2352.8 3112.4 2398.8 3330.3 2180.9H3638.4 3703.4 3638.4V2542.9L3894.3 2798.8 3940.2 2844.8 3894.3 2798.8 3638.4 3054.7V3416.6 3481.6 3416.6Z"/>
<path transform="matrix(.1,0,0,-.1,0,792)" d="M2272.7 4782.3V4847.3 4782.3H1910.8L1654.8 5038.2 1608.9 5084.2 1654.8 5038.2 1398.9 4782.3H1037 972 1037V4474.2L1254.8 4256.4 1300.8 4210.4 1254.8 4256.4 1654.8 4656.4 2054.8 4256.4 2100.8 4210.4 2054.8 4256.4 2272.7 4474.2" fill="#ffff9e"/>
<path transform="matrix(.1,0,0,-.1,0,792)" stroke-width="13" stroke-linecap="butt" stroke-miterlimit="10" stroke-linejoin="miter" fill="none" stroke="#000000" d="M2272.7 4782.3V4847.3 4782.3H1910.8L1654.8 5038.2 1608.9 5084.2 1654.8 5038.2 1398.9 4782.3H1037 972 1037V4474.2L1254.8 4256.4 1300.8 4210.4 1254.8 4256.4 1654.8 4656.4 2054.8 4256.4 2100.8 4210.4 2054.8 4256.4 2272.7 4474.2Z"/>
<path transform="matrix(.1,0,0,-.1,0,792)" d="M2272.7 4912.3V4847.3 5220.4L2054.8 5438.2 2100.8 5484.2 2054.8 5438.2 1746.8 5130.2 1700.8 5176.1 1746.8 5130.2 1964.6 4912.3"/>
<path transform="matrix(.1,0,0,-.1,0,792)" stroke-width="13" stroke-linecap="butt" stroke-miterlimit="10" stroke-linejoin="miter" fill="none" stroke="#000000" d="M2272.7 4912.3V4847.3 5220.4L2054.8 5438.2 2100.8 5484.2 2054.8 5438.2 1746.8 5130.2 1700.8 5176.1 1746.8 5130.2 1964.6 4912.3Z"/>
<path transform="matrix(.1,0,0,-.1,0,792)" d="M2272.7 3854.7 2054.8 4072.6 2008.9 4118.5 2054.8 4072.6 1654.8 3672.6 1254.8 4072.6 1208.9 4118.5 1254.8 4072.6 1037 3854.7V3546.6 3481.6 3546.6H1398.9L1654.8 3290.7 1700.8 3244.8 1654.8 3290.7 1910.8 3546.6H2272.7 2337.7 2272.7" fill="#ffff9e"/>
<path transform="matrix(.1,0,0,-.1,0,792)" stroke-width="13" stroke-linecap="butt" stroke-miterlimit="10" stroke-linejoin="miter" fill="none" stroke="#000000" d="M2272.7 3854.7 2054.8 4072.6 2008.9 4118.5 2054.8 4072.6 1654.8 3672.6 1254.8 4072.6 1208.9 4118.5 1254.8 4072.6 1037 3854.7V3546.6 3481.6 3546.6H1398.9L1654.8 3290.7 1700.8 3244.8 1654.8 3290.7 1910.8 3546.6H2272.7 2337.7 2272.7Z"/>
<path transform="matrix(.1,0,0,-.1,0,792)" d="M2272.7 3416.6H2337.7 1964.6L1746.8 3198.8 1700.8 3244.8 1746.8 3198.8 2054.8 2890.7 2008.9 2844.8 2054.8 2890.7 2272.7 3108.6"/>
<path transform="matrix(.1,0,0,-.1,0,792)" stroke-width="13" stroke-linecap="butt" stroke-miterlimit="10" stroke-linejoin="miter" fill="none" stroke="#000000" d="M2272.7 3416.6H2337.7 1964.6L1746.8 3198.8 1700.8 3244.8 1746.8 3198.8 2054.8 2890.7 2008.9 2844.8 2054.8 2890.7 2272.7 3108.6Z"/>
<path transform="matrix(.1,0,0,-.1,0,792)" d="M3020.5 5222.1 2974.6 5176.1 3020.5 5222.1 3328.6 5530.2 3020.5 5838.2 3066.5 5884.2 3020.5 5838.2 2712.4 5530.2"/>
<path transform="matrix(.1,0,0,-.1,0,792)" stroke-width="13" stroke-linecap="butt" stroke-miterlimit="10" stroke-linejoin="miter" fill="none" stroke="#000000" d="M3020.5 5222.1 2974.6 5176.1 3020.5 5222.1 3328.6 5530.2 3020.5 5838.2 3066.5 5884.2 3020.5 5838.2 2712.4 5530.2Z"/>
<path transform="matrix(.1,0,0,-.1,0,792)" d="M3768.4 3854.7V3481.6 3546.6H4130.3L4386.2 3290.7 4432.2 3244.8 4386.2 3290.7 4642.1 3546.6H5004.1 5069.1 5004.1V3854.7L4786.2 4072.6 4740.2 4118.5 4786.2 4072.6 4386.2 3672.6 3986.2 4072.6 3940.2 4118.5 3986.2 4072.6" fill="#ffff9e"/>
<path transform="matrix(.1,0,0,-.1,0,792)" stroke-width="13" stroke-linecap="butt" stroke-miterlimit="10" stroke-linejoin="miter" fill="none" stroke="#000000" d="M3768.4 3854.7V3481.6 3546.6H4130.3L4386.2 3290.7 4432.2 3244.8 4386.2 3290.7 4642.1 3546.6H5004.1 5069.1 5004.1V3854.7L4786.2 4072.6 4740.2 4118.5 4786.2 4072.6 4386.2 3672.6 3986.2 4072.6 3940.2 4118.5 3986.2 4072.6Z"/>
<path transform="matrix(.1,0,0,-.1,0,792)" d="M3768.4 4474.2 3986.2 4256.4 4032.2 4210.4 3986.2 4256.4 4386.2 4656.4 4786.2 4256.4 4832.2 4210.4 4786.2 4256.4 5004.1 4474.2V4782.3 4847.3 4782.3H4642.1L4386.2 5038.2 4340.2 5084.2 4386.2 5038.2 4130.3 4782.3H3768.4 3703.4 3768.4" fill="#ffff9e"/>
<path transform="matrix(.1,0,0,-.1,0,792)" stroke-width="13" stroke-linecap="butt" stroke-miterlimit="10" stroke-linejoin="miter" fill="none" stroke="#000000" d="M3768.4 4474.2 3986.2 4256.4 4032.2 4210.4 3986.2 4256.4 4386.2 4656.4 4786.2 4256.4 4832.2 4210.4 4786.2 4256.4 5004.1 4474.2V4782.3 4847.3 4782.3H4642.1L4386.2 5038.2 4340.2 5084.2 4386.2 5038.2 4130.3 4782.3H3768.4 3703.4 3768.4Z"/>
<path transform="matrix(.1,0,0,-.1,0,792)" d="M3768.4 4912.3H3703.4 4076.4L4294.3 5130.2 4340.2 5084.2 4294.3 5130.2 3986.2 5438.2 4032.2 5484.2 3986.2 5438.2 3768.4 5220.4"/>
<path transform="matrix(.1,0,0,-.1,0,792)" stroke-width="13" stroke-linecap="butt" stroke-miterlimit="10" stroke-linejoin="miter" fill="none" stroke="#000000" d="M3768.4 4912.3H3703.4 4076.4L4294.3 5130.2 4340.2 5084.2 4294.3 5130.2 3986.2 5438.2 4032.2 5484.2 3986.2 5438.2 3768.4 5220.4Z"/>
<path transform="matrix(.1,0,0,-.1,0,792)" d="M3020.5 3106.9 3066.5 3152.8 3020.5 3106.9 2712.4 2798.8 3020.5 2490.7 2974.6 2444.8 3020.5 2490.7 3328.6 2798.8"/>
<path transform="matrix(.1,0,0,-.1,0,792)" stroke-width="13" stroke-linecap="butt" stroke-miterlimit="10" stroke-linejoin="miter" fill="none" stroke="#000000" d="M3020.5 3106.9 3066.5 3152.8 3020.5 3106.9 2712.4 2798.8 3020.5 2490.7 2974.6 2444.8 3020.5 2490.7 3328.6 2798.8Z"/>
<path transform="matrix(.1,0,0,-.1,0,792)" d="M3768.4 3416.6V3481.6 3108.6L3986.2 2890.7 3940.2 2844.8 3986.2 2890.7 4294.3 3198.8 4340.2 3152.8 4294.3 3198.8 4076.4 3416.6"/>
<path transform="matrix(.1,0,0,-.1,0,792)" stroke-width="13" stroke-linecap="butt" stroke-miterlimit="10" stroke-linejoin="miter" fill="none" stroke="#000000" d="M3768.4 3416.6V3481.6 3108.6L3986.2 2890.7 3940.2 2844.8 3986.2 2890.7 4294.3 3198.8 4340.2 3152.8 4294.3 3198.8 4076.4 3416.6Z"/>
<path transform="matrix(.1,0,0,-.1,0,792)" d="M1962.9 4164.5 2008.9 4118.5 1962.9 4164.5 1654.8 4472.6 1346.8 4164.5 1300.8 4210.4 1346.8 4164.5 1654.8 3856.4"/>
<path transform="matrix(.1,0,0,-.1,0,792)" stroke-width="13" stroke-linecap="butt" stroke-miterlimit="10" stroke-linejoin="miter" fill="none" stroke="#000000" d="M1962.9 4164.5 2008.9 4118.5 1962.9 4164.5 1654.8 4472.6 1346.8 4164.5 1300.8 4210.4 1346.8 4164.5 1654.8 3856.4Z"/>
<path transform="matrix(.1,0,0,-.1,0,792)" d="M1962.9 5530.2 2008.9 5576.1 1962.9 5530.2 1745.1 5748H1437 1372 1437V5439.9L1654.8 5222.1 1700.8 5176.1 1654.8 5222.1" fill="#5effff"/>
<path transform="matrix(.1,0,0,-.1,0,792)" stroke-width="13" stroke-linecap="butt" stroke-miterlimit="10" stroke-linejoin="miter" fill="none" stroke="#000000" d="M1962.9 5530.2 2008.9 5576.1 1962.9 5530.2 1745.1 5748H1437 1372 1437V5439.9L1654.8 5222.1 1700.8 5176.1 1654.8 5222.1Z"/>
<path transform="matrix(.1,0,0,-.1,0,792)" d="M2054.8 5622.1 2008.9 5576.1 2054.8 5622.1 2272.7 5839.9V6148H2337.7 2272.7 1910.8L1654.8 6403.9 1700.8 6449.9 1654.8 6403.9 1437 6186.1V5878H1372 1437 1798.9" fill="#29c4ff"/>
<path transform="matrix(.1,0,0,-.1,0,792)" stroke-width="13" stroke-linecap="butt" stroke-miterlimit="10" stroke-linejoin="miter" fill="none" stroke="#000000" d="M2054.8 5622.1 2008.9 5576.1 2054.8 5622.1 2272.7 5839.9V6148H2337.7 2272.7 1910.8L1654.8 6403.9 1700.8 6449.9 1654.8 6403.9 1437 6186.1V5878H1372 1437 1798.9Z"/>
<path transform="matrix(.1,0,0,-.1,0,792)" d="M4078.1 4164.5 4032.2 4210.4 4078.1 4164.5 4386.2 3856.4 4694.3 4164.5 4740.2 4118.5 4694.3 4164.5 4386.2 4472.6"/>
<path transform="matrix(.1,0,0,-.1,0,792)" stroke-width="13" stroke-linecap="butt" stroke-miterlimit="10" stroke-linejoin="miter" fill="none" stroke="#000000" d="M4078.1 4164.5 4032.2 4210.4 4078.1 4164.5 4386.2 3856.4 4694.3 4164.5 4740.2 4118.5 4694.3 4164.5 4386.2 4472.6Z"/>
<path transform="matrix(.1,0,0,-.1,0,792)" d="M3986.2 5622.1 3940.2 5576.1 3986.2 5622.1 4242.1 5878H4604.1V5813 5878 6186.1L4386.2 6403.9 4432.2 6449.9 4386.2 6403.9 4130.3 6148H3768.4V6213 6148 5839.9" fill="#29c4ff"/>
<path transform="matrix(.1,0,0,-.1,0,792)" stroke-width="13" stroke-linecap="butt" stroke-miterlimit="10" stroke-linejoin="miter" fill="none" stroke="#000000" d="M3986.2 5622.1 3940.2 5576.1 3986.2 5622.1 4242.1 5878H4604.1V5813 5878 6186.1L4386.2 6403.9 4432.2 6449.9 4386.2 6403.9 4130.3 6148H3768.4V6213 6148 5839.9Z"/>
<path transform="matrix(.1,0,0,-.1,0,792)" d="M4078.1 5530.2 4032.2 5484.2 4078.1 5530.2 4386.2 5222.1 4432.2 5176.1 4386.2 5222.1 4604.1 5439.9V5748 5813 5748H4296" fill="#5effff"/>
<path transform="matrix(.1,0,0,-.1,0,792)" stroke-width="13" stroke-linecap="butt" stroke-miterlimit="10" stroke-linejoin="miter" fill="none" stroke="#000000" d="M4078.1 5530.2 4032.2 5484.2 4078.1 5530.2 4386.2 5222.1 4432.2 5176.1 4386.2 5222.1 4604.1 5439.9V5748 5813 5748H4296Z"/>
<path transform="matrix(.1,0,0,-.1,0,792)" d="M2054.8 2706.9 2100.8 2752.8 2054.8 2706.9 1798.9 2450.9H1437V2515.9 2450.9 2142.9L1654.8 1925 1608.9 1879.1 1654.8 1925 1910.8 2180.9H2272.7V2115.9 2180.9 2489" fill="#29c4ff"/>
<path transform="matrix(.1,0,0,-.1,0,792)" stroke-width="13" stroke-linecap="butt" stroke-miterlimit="10" stroke-linejoin="miter" fill="none" stroke="#000000" d="M2054.8 2706.9 2100.8 2752.8 2054.8 2706.9 1798.9 2450.9H1437V2515.9 2450.9 2142.9L1654.8 1925 1608.9 1879.1 1654.8 1925 1910.8 2180.9H2272.7V2115.9 2180.9 2489Z"/>
<path transform="matrix(.1,0,0,-.1,0,792)" d="M1962.9 2798.8 2008.9 2844.8 1962.9 2798.8 1654.8 3106.9 1608.9 3152.8 1654.8 3106.9 1437 2889V2580.9 2515.9 2580.9H1745.1" fill="#5effff"/>
<path transform="matrix(.1,0,0,-.1,0,792)" stroke-width="13" stroke-linecap="butt" stroke-miterlimit="10" stroke-linejoin="miter" fill="none" stroke="#000000" d="M1962.9 2798.8 2008.9 2844.8 1962.9 2798.8 1654.8 3106.9 1608.9 3152.8 1654.8 3106.9 1437 2889V2580.9 2515.9 2580.9H1745.1Z"/>
<path transform="matrix(.1,0,0,-.1,0,792)" d="M4078.1 2798.8 4032.2 2752.8 4078.1 2798.8 4296 2580.9H4604.1 4669.1 4604.1V2889L4386.2 3106.9 4340.2 3152.8 4386.2 3106.9" fill="#5effff"/>
<path transform="matrix(.1,0,0,-.1,0,792)" stroke-width="13" stroke-linecap="butt" stroke-miterlimit="10" stroke-linejoin="miter" fill="none" stroke="#000000" d="M4078.1 2798.8 4032.2 2752.8 4078.1 2798.8 4296 2580.9H4604.1 4669.1 4604.1V2889L4386.2 3106.9 4340.2 3152.8 4386.2 3106.9Z"/>
<path transform="matrix(.1,0,0,-.1,0,792)" d="M3986.2 2706.9 4032.2 2752.8 3986.2 2706.9 3768.4 2489V2180.9H3703.4 3768.4 4130.3L4386.2 1925 4340.2 1879.1 4386.2 1925 4604.1 2142.9V2450.9H4669.1 4604.1 4242.1" fill="#29c4ff"/>
<path transform="matrix(.1,0,0,-.1,0,792)" stroke-width="13" stroke-linecap="butt" stroke-miterlimit="10" stroke-linejoin="miter" fill="none" stroke="#000000" d="M3986.2 2706.9 4032.2 2752.8 3986.2 2706.9 3768.4 2489V2180.9H3703.4 3768.4 4130.3L4386.2 1925 4340.2 1879.1 4386.2 1925 4604.1 2142.9V2450.9H4669.1 4604.1 4242.1Z"/>
<path transform="matrix(.1,0,0,-.1,0,792)" d="M3020.5 6022.1 2974.6 5976.1 3020.5 6022.1 3276.4 6278H3638.4V6213 6278 6713.7H3703.4 3638.4 3276.4L3020.5 6969.6 3066.5 7015.6 3020.5 6969.6 2764.6 6713.7H2402.7V6778.7 6713.7 6278H2337.7 2402.7 2764.6"/>
<path transform="matrix(.1,0,0,-.1,0,792)" stroke-width="13" stroke-linecap="butt" stroke-miterlimit="10" stroke-linejoin="miter" fill="none" stroke="#000000" d="M3020.5 6022.1 2974.6 5976.1 3020.5 6022.1 3276.4 6278H3638.4V6213 6278 6713.7H3703.4 3638.4 3276.4L3020.5 6969.6 3066.5 7015.6 3020.5 6969.6 2764.6 6713.7H2402.7V6778.7 6713.7 6278H2337.7 2402.7 2764.6Z"/>
<path transform="matrix(.1,0,0,-.1,0,792)" d="M3020.5 2306.9 3066.5 2352.8 3020.5 2306.9 2764.6 2050.9H2402.7V2115.9 2050.9 1615.3H2337.7 2402.7 2764.6L3020.5 1359.3 2974.6 1313.4 3020.5 1359.3 3276.4 1615.3H3638.4V1550.3 1615.3 2050.9H3703.4 3638.4 3276.4"/>
<path transform="matrix(.1,0,0,-.1,0,792)" stroke-width="13" stroke-linecap="butt" stroke-miterlimit="10" stroke-linejoin="miter" fill="none" stroke="#000000" d="M3020.5 2306.9 3066.5 2352.8 3020.5 2306.9 2764.6 2050.9H2402.7V2115.9 2050.9 1615.3H2337.7 2402.7 2764.6L3020.5 1359.3 2974.6 1313.4 3020.5 1359.3 3276.4 1615.3H3638.4V1550.3 1615.3 2050.9H3703.4 3638.4 3276.4Z"/>
<path transform="matrix(.1,0,0,-.1,0,792)" d="M1562.9 5130.2 1608.9 5084.2 1562.9 5130.2 1307 5386.1V5748H1372 1307 998.898L781.102 5530.2 735.102 5576.1 781.102 5530.2 1037 5274.2V4912.3H972 1037 1345.1" fill="#29c4ff"/>
<path transform="matrix(.1,0,0,-.1,0,792)" stroke-width="13" stroke-linecap="butt" stroke-miterlimit="10" stroke-linejoin="miter" fill="none" stroke="#000000" d="M1562.9 5130.2 1608.9 5084.2 1562.9 5130.2 1307 5386.1V5748H1372 1307 998.898L781.102 5530.2 735.102 5576.1 781.102 5530.2 1037 5274.2V4912.3H972 1037 1345.1Z"/>
<path transform="matrix(.1,0,0,-.1,0,792)" d="M1562.9 3198.8 1608.9 3152.8 1562.9 3198.8 1345.1 3416.6H1037V3481.6 3416.6 3054.7L781.102 2798.8 735.102 2844.8 781.102 2798.8 998.898 2580.9H1307V2515.9 2580.9 2942.9" fill="#29c4ff"/>
<path transform="matrix(.1,0,0,-.1,0,792)" stroke-width="13" stroke-linecap="butt" stroke-miterlimit="10" stroke-linejoin="miter" fill="none" stroke="#000000" d="M1562.9 3198.8 1608.9 3152.8 1562.9 3198.8 1345.1 3416.6H1037V3481.6 3416.6 3054.7L781.102 2798.8 735.102 2844.8 781.102 2798.8 998.898 2580.9H1307V2515.9 2580.9 2942.9Z"/>
<path transform="matrix(.1,0,0,-.1,0,792)" d="M4478.1 3198.8 4432.2 3244.8 4478.1 3198.8 4734.1 2942.9V2580.9H4669.1 4734.1 5042.1L5260 2798.8 5305.9 2752.8 5260 2798.8 5004.1 3054.7V3416.6H5069.1 5004.1 4696" fill="#29c4ff"/>
<path transform="matrix(.1,0,0,-.1,0,792)" stroke-width="13" stroke-linecap="butt" stroke-miterlimit="10" stroke-linejoin="miter" fill="none" stroke="#000000" d="M4478.1 3198.8 4432.2 3244.8 4478.1 3198.8 4734.1 2942.9V2580.9H4669.1 4734.1 5042.1L5260 2798.8 5305.9 2752.8 5260 2798.8 5004.1 3054.7V3416.6H5069.1 5004.1 4696Z"/>
<path transform="matrix(.1,0,0,-.1,0,792)" d="M4478.1 5130.2 4432.2 5176.1 4478.1 5130.2 4696 4912.3H5004.1V4847.3 4912.3 5274.2L5260 5530.2 5305.9 5484.2 5260 5530.2 5042.1 5748H4734.1V5813 5748 5386.1" fill="#29c4ff"/>
<path transform="matrix(.1,0,0,-.1,0,792)" stroke-width="13" stroke-linecap="butt" stroke-miterlimit="10" stroke-linejoin="miter" fill="none" stroke="#000000" d="M4478.1 5130.2 4432.2 5176.1 4478.1 5130.2 4696 4912.3H5004.1V4847.3 4912.3 5274.2L5260 5530.2 5305.9 5484.2 5260 5530.2 5042.1 5748H4734.1V5813 5748 5386.1Z"/>
<path transform="matrix(.1,0,0,-.1,0,792)" d="M4076.4 6278 4294.3 6495.8 4340.2 6541.8 4294.3 6495.8 4076.4 6713.7H3768.4 3703.4 3768.4V6278 6213 6278" fill="#5effff"/>
<path transform="matrix(.1,0,0,-.1,0,792)" stroke-width="13" stroke-linecap="butt" stroke-miterlimit="10" stroke-linejoin="miter" fill="none" stroke="#000000" d="M4076.4 6278 4294.3 6495.8 4340.2 6541.8 4294.3 6495.8 4076.4 6713.7H3768.4 3703.4 3768.4V6278 6213 6278Z"/>
<path transform="matrix(.1,0,0,-.1,0,792)" d="M2272.7 6278H2337.7 2272.7V6778.7 6713.7H1964.6L1746.8 6495.8 1700.8 6449.9 1746.8 6495.8 1964.6 6278" fill="#5effff"/>
<path transform="matrix(.1,0,0,-.1,0,792)" stroke-width="13" stroke-linecap="butt" stroke-miterlimit="10" stroke-linejoin="miter" fill="none" stroke="#000000" d="M2272.7 6278H2337.7 2272.7V6778.7 6713.7H1964.6L1746.8 6495.8 1700.8 6449.9 1746.8 6495.8 1964.6 6278Z"/>
<path transform="matrix(.1,0,0,-.1,0,792)" d="M1964.6 2050.9 1746.8 1833.1 1700.8 1787.1 1746.8 1833.1 1964.6 1615.3H2272.7 2337.7 2272.7V2050.9 2115.9 2050.9" fill="#5effff"/>
<path transform="matrix(.1,0,0,-.1,0,792)" stroke-width="13" stroke-linecap="butt" stroke-miterlimit="10" stroke-linejoin="miter" fill="none" stroke="#000000" d="M1964.6 2050.9 1746.8 1833.1 1700.8 1787.1 1746.8 1833.1 1964.6 1615.3H2272.7 2337.7 2272.7V2050.9 2115.9 2050.9Z"/>
<path transform="matrix(.1,0,0,-.1,0,792)" d="M3768.4 2050.9H3703.4 3768.4V1550.3 1615.3H4076.4L4294.3 1833.1 4340.2 1879.1 4294.3 1833.1 4076.4 2050.9" fill="#5effff"/>
<path transform="matrix(.1,0,0,-.1,0,792)" stroke-width="13" stroke-linecap="butt" stroke-miterlimit="10" stroke-linejoin="miter" fill="none" stroke="#000000" d="M3768.4 2050.9H3703.4 3768.4V1550.3 1615.3H4076.4L4294.3 1833.1 4340.2 1879.1 4294.3 1833.1 4076.4 2050.9Z"/>
<path transform="matrix(.1,0,0,-.1,0,792)" d="M1307 6239.9 1562.9 6495.8 1608.9 6541.8 1562.9 6495.8 1307 6751.8V7113.7 7178.7 7113.7H945.102L689.199 7369.6 643.199 7415.6 689.199 7369.6 433.199 7113.7H71.3008 6.30078 71.3008V6751.8L-184.602 6495.8-230.602 6449.9-184.602 6495.8 71.3008 6239.9V5878 5813 5878H433.199L689.199 5622.1 735.102 5576.1 689.199 5622.1 945.102 5878H1307 1372 1307" fill="#5effff"/>
<path transform="matrix(.1,0,0,-.1,0,792)" stroke-width="13" stroke-linecap="butt" stroke-miterlimit="10" stroke-linejoin="miter" fill="none" stroke="#000000" d="M1307 6239.9 1562.9 6495.8 1608.9 6541.8 1562.9 6495.8 1307 6751.8V7113.7 7178.7 7113.7H945.102L689.199 7369.6 643.199 7415.6 689.199 7369.6 433.199 7113.7H71.3008 6.30078 71.3008V6751.8L-184.602 6495.8-230.602 6449.9-184.602 6495.8 71.3008 6239.9V5878 5813 5878H433.199L689.199 5622.1 735.102 5576.1 689.199 5622.1 945.102 5878H1307 1372 1307Z"/>
<path transform="matrix(.1,0,0,-.1,0,792)" d="M1307 2450.9V2515.9 2450.9H945.102L689.199 2706.9 643.199 2752.8 689.199 2706.9 433.199 2450.9H71.3008 6.30078 71.3008V2089L-184.602 1833.1-230.602 1787.1-184.602 1833.1 71.3008 1577.2V1215.3 1150.3 1215.3H433.199L689.199 959.301 735.102 913.398 689.199 959.301 945.102 1215.3H1307 1372 1307V1577.2L1562.9 1833.1 1608.9 1879.1 1562.9 1833.1 1307 2089" fill="#5effff"/>
<path transform="matrix(.1,0,0,-.1,0,792)" stroke-width="13" stroke-linecap="butt" stroke-miterlimit="10" stroke-linejoin="miter" fill="none" stroke="#000000" d="M1307 2450.9V2515.9 2450.9H945.102L689.199 2706.9 643.199 2752.8 689.199 2706.9 433.199 2450.9H71.3008 6.30078 71.3008V2089L-184.602 1833.1-230.602 1787.1-184.602 1833.1 71.3008 1577.2V1215.3 1150.3 1215.3H433.199L689.199 959.301 735.102 913.398 689.199 959.301 945.102 1215.3H1307 1372 1307V1577.2L1562.9 1833.1 1608.9 1879.1 1562.9 1833.1 1307 2089Z"/>
<path transform="matrix(.1,0,0,-.1,0,792)" d="M4386.2 6587.8 4340.2 6541.8 4386.2 6587.8 4604.1 6805.6V7113.7H4669.1 4604.1 4242.1L3986.2 7369.6 4032.2 7415.6 3986.2 7369.6 3768.4 7151.8V6843.7H3703.4 3768.4 4130.3" fill="#29c4ff"/>
<path transform="matrix(.1,0,0,-.1,0,792)" stroke-width="13" stroke-linecap="butt" stroke-miterlimit="10" stroke-linejoin="miter" fill="none" stroke="#000000" d="M4386.2 6587.8 4340.2 6541.8 4386.2 6587.8 4604.1 6805.6V7113.7H4669.1 4604.1 4242.1L3986.2 7369.6 4032.2 7415.6 3986.2 7369.6 3768.4 7151.8V6843.7H3703.4 3768.4 4130.3Z"/>
<path transform="matrix(.1,0,0,-.1,0,792)" d="M4478.1 6495.8 4432.2 6449.9 4478.1 6495.8 4734.1 6239.9V5878 5813 5878H5096L5351.9 5622.1 5397.9 5576.1 5351.9 5622.1 5607.8 5878H5969.7 6034.7 5969.7V6239.9L6225.7 6495.8 6271.6 6541.8 6225.7 6495.8 5969.7 6751.8V7113.7 7178.7 7113.7H5607.8L5351.9 7369.6 5305.9 7415.6 5351.9 7369.6 5096 7113.7H4734.1 4669.1 4734.1V6751.8" fill="#5effff"/>
<path transform="matrix(.1,0,0,-.1,0,792)" stroke-width="13" stroke-linecap="butt" stroke-miterlimit="10" stroke-linejoin="miter" fill="none" stroke="#000000" d="M4478.1 6495.8 4432.2 6449.9 4478.1 6495.8 4734.1 6239.9V5878 5813 5878H5096L5351.9 5622.1 5397.9 5576.1 5351.9 5622.1 5607.8 5878H5969.7 6034.7 5969.7V6239.9L6225.7 6495.8 6271.6 6541.8 6225.7 6495.8 5969.7 6751.8V7113.7 7178.7 7113.7H5607.8L5351.9 7369.6 5305.9 7415.6 5351.9 7369.6 5096 7113.7H4734.1 4669.1 4734.1V6751.8Z"/>
<path transform="matrix(.1,0,0,-.1,0,792)" d="M1654.8 6587.8 1608.9 6541.8 1654.8 6587.8 1910.8 6843.7H2272.7V6778.7 6843.7 7151.8L2054.8 7369.6 2100.8 7415.6 2054.8 7369.6 1798.9 7113.7H1437V7178.7 7113.7 6805.6" fill="#29c4ff"/>
<path transform="matrix(.1,0,0,-.1,0,792)" stroke-width="13" stroke-linecap="butt" stroke-miterlimit="10" stroke-linejoin="miter" fill="none" stroke="#000000" d="M1654.8 6587.8 1608.9 6541.8 1654.8 6587.8 1910.8 6843.7H2272.7V6778.7 6843.7 7151.8L2054.8 7369.6 2100.8 7415.6 2054.8 7369.6 1798.9 7113.7H1437V7178.7 7113.7 6805.6Z"/>
<path transform="matrix(.1,0,0,-.1,0,792)" d="M4734.1 2089 4478.1 1833.1 4432.2 1787.1 4478.1 1833.1 4734.1 1577.2V1215.3 1150.3 1215.3H5096L5351.9 959.301 5397.9 913.398 5351.9 959.301 5607.8 1215.3H5969.7 6034.7 5969.7V1577.2L6225.7 1833.1 6271.6 1879.1 6225.7 1833.1 5969.7 2089V2450.9 2515.9 2450.9H5607.8L5351.9 2706.9 5305.9 2752.8 5351.9 2706.9 5096 2450.9H4734.1 4669.1 4734.1" fill="#5effff"/>
<path transform="matrix(.1,0,0,-.1,0,792)" stroke-width="13" stroke-linecap="butt" stroke-miterlimit="10" stroke-linejoin="miter" fill="none" stroke="#000000" d="M4734.1 2089 4478.1 1833.1 4432.2 1787.1 4478.1 1833.1 4734.1 1577.2V1215.3 1150.3 1215.3H5096L5351.9 959.301 5397.9 913.398 5351.9 959.301 5607.8 1215.3H5969.7 6034.7 5969.7V1577.2L6225.7 1833.1 6271.6 1879.1 6225.7 1833.1 5969.7 2089V2450.9 2515.9 2450.9H5607.8L5351.9 2706.9 5305.9 2752.8 5351.9 2706.9 5096 2450.9H4734.1 4669.1 4734.1Z"/>
<path transform="matrix(.1,0,0,-.1,0,792)" d="M1162.9 4164.5 1208.9 4118.5 1162.9 4164.5 907 4420.4V4782.3H972 907 471.301V4847.3 4782.3 4420.4L215.398 4164.5 169.398 4210.4 215.398 4164.5 471.301 3908.6V3546.6H406.301 471.301 907V3481.6 3546.6 3908.6"/>
<path transform="matrix(.1,0,0,-.1,0,792)" stroke-width="13" stroke-linecap="butt" stroke-miterlimit="10" stroke-linejoin="miter" fill="none" stroke="#000000" d="M1162.9 4164.5 1208.9 4118.5 1162.9 4164.5 907 4420.4V4782.3H972 907 471.301V4847.3 4782.3 4420.4L215.398 4164.5 169.398 4210.4 215.398 4164.5 471.301 3908.6V3546.6H406.301 471.301 907V3481.6 3546.6 3908.6Z"/>
<path transform="matrix(.1,0,0,-.1,0,792)" d="M1654.8 1741.2 1700.8 1787.1 1654.8 1741.2 1437 1523.3V1215.3H1372 1437 1798.9L2054.8 959.301 2008.9 913.398 2054.8 959.301 2272.7 1177.2V1485.3H2337.7 2272.7 1910.8" fill="#29c4ff"/>
<path transform="matrix(.1,0,0,-.1,0,792)" stroke-width="13" stroke-linecap="butt" stroke-miterlimit="10" stroke-linejoin="miter" fill="none" stroke="#000000" d="M1654.8 1741.2 1700.8 1787.1 1654.8 1741.2 1437 1523.3V1215.3H1372 1437 1798.9L2054.8 959.301 2008.9 913.398 2054.8 959.301 2272.7 1177.2V1485.3H2337.7 2272.7 1910.8Z"/>
<path transform="matrix(.1,0,0,-.1,0,792)" d="M4386.2 1741.2 4432.2 1787.1 4386.2 1741.2 4130.3 1485.3H3768.4V1550.3 1485.3 1177.2L3986.2 959.301 3940.2 913.398 3986.2 959.301 4242.1 1215.3H4604.1V1150.3 1215.3 1523.3" fill="#29c4ff"/>
<path transform="matrix(.1,0,0,-.1,0,792)" stroke-width="13" stroke-linecap="butt" stroke-miterlimit="10" stroke-linejoin="miter" fill="none" stroke="#000000" d="M4386.2 1741.2 4432.2 1787.1 4386.2 1741.2 4130.3 1485.3H3768.4V1550.3 1485.3 1177.2L3986.2 959.301 3940.2 913.398 3986.2 959.301 4242.1 1215.3H4604.1V1150.3 1215.3 1523.3Z"/>
<path transform="matrix(.1,0,0,-.1,0,792)" d="M4878.1 4164.5 4832.2 4210.4 4878.1 4164.5 5134.1 3908.6V3546.6H5069.1 5134.1 5569.7V3481.6 3546.6 3908.6L5825.7 4164.5 5871.6 4118.5 5825.7 4164.5 5569.7 4420.4V4782.3H5634.7 5569.7 5134.1V4847.3 4782.3 4420.4"/>
<path transform="matrix(.1,0,0,-.1,0,792)" stroke-width="13" stroke-linecap="butt" stroke-miterlimit="10" stroke-linejoin="miter" fill="none" stroke="#000000" d="M4878.1 4164.5 4832.2 4210.4 4878.1 4164.5 5134.1 3908.6V3546.6H5069.1 5134.1 5569.7V3481.6 3546.6 3908.6L5825.7 4164.5 5871.6 4118.5 5825.7 4164.5 5569.7 4420.4V4782.3H5634.7 5569.7 5134.1V4847.3 4782.3 4420.4Z"/>
<path transform="matrix(.1,0,0,-.1,0,792)" d="M3638.4 6843.7H3703.4 3638.4V7205.6L3894.3 7461.5 3940.2 7507.5 3894.3 7461.5 3638.4 7717.5V8079.4 8144.4 8079.4H3330.3L3112.4 7861.5 3066.5 7815.6 3112.4 7861.5 3512.4 7461.5 3112.4 7061.5 3066.5 7015.6 3112.4 7061.5 3330.3 6843.7" fill="#ffff9e"/>
<path transform="matrix(.1,0,0,-.1,0,792)" stroke-width="13" stroke-linecap="butt" stroke-miterlimit="10" stroke-linejoin="miter" fill="none" stroke="#000000" d="M3638.4 6843.7H3703.4 3638.4V7205.6L3894.3 7461.5 3940.2 7507.5 3894.3 7461.5 3638.4 7717.5V8079.4 8144.4 8079.4H3330.3L3112.4 7861.5 3066.5 7815.6 3112.4 7861.5 3512.4 7461.5 3112.4 7061.5 3066.5 7015.6 3112.4 7061.5 3330.3 6843.7Z"/>
<path transform="matrix(.1,0,0,-.1,0,792)" d="M2710.8 6843.7 2928.6 7061.5 2974.6 7107.5 2928.6 7061.5 2528.6 7461.5 2928.6 7861.5 2974.6 7907.5 2928.6 7861.5 2710.8 8079.4H2402.7 2337.7 2402.7V7717.5L2146.8 7461.5 2100.8 7415.6 2146.8 7461.5 2402.7 7205.6V6843.7 6778.7 6843.7" fill="#ffff9e"/>
<path transform="matrix(.1,0,0,-.1,0,792)" stroke-width="13" stroke-linecap="butt" stroke-miterlimit="10" stroke-linejoin="miter" fill="none" stroke="#000000" d="M2710.8 6843.7 2928.6 7061.5 2974.6 7107.5 2928.6 7061.5 2528.6 7461.5 2928.6 7861.5 2974.6 7907.5 2928.6 7861.5 2710.8 8079.4H2402.7 2337.7 2402.7V7717.5L2146.8 7461.5 2100.8 7415.6 2146.8 7461.5 2402.7 7205.6V6843.7 6778.7 6843.7Z"/>
<path transform="matrix(.1,0,0,-.1,0,792)" d="M2402.7 1485.3H2337.7 2402.7V1123.3L2146.8 867.398 2100.8 821.5 2146.8 867.398 2402.7 611.5V249.602 184.602 249.602H2710.8L2928.6 467.398 2974.6 513.398 2928.6 467.398 2528.6 867.398 2928.6 1267.4 2974.6 1313.4 2928.6 1267.4 2710.8 1485.3" fill="#ffff9e"/>
<path transform="matrix(.1,0,0,-.1,0,792)" stroke-width="13" stroke-linecap="butt" stroke-miterlimit="10" stroke-linejoin="miter" fill="none" stroke="#000000" d="M2402.7 1485.3H2337.7 2402.7V1123.3L2146.8 867.398 2100.8 821.5 2146.8 867.398 2402.7 611.5V249.602 184.602 249.602H2710.8L2928.6 467.398 2974.6 513.398 2928.6 467.398 2528.6 867.398 2928.6 1267.4 2974.6 1313.4 2928.6 1267.4 2710.8 1485.3Z"/>
<path transform="matrix(.1,0,0,-.1,0,792)" d="M3330.3 1485.3 3112.4 1267.4 3066.5 1221.5 3112.4 1267.4 3512.4 867.398 3112.4 467.398 3066.5 421.5 3112.4 467.398 3330.3 249.602H3638.4 3703.4 3638.4V611.5L3894.3 867.398 3940.2 913.398 3894.3 867.398 3638.4 1123.3V1485.3 1550.3 1485.3" fill="#ffff9e"/>
<path transform="matrix(.1,0,0,-.1,0,792)" stroke-width="13" stroke-linecap="butt" stroke-miterlimit="10" stroke-linejoin="miter" fill="none" stroke="#000000" d="M3330.3 1485.3 3112.4 1267.4 3066.5 1221.5 3112.4 1267.4 3512.4 867.398 3112.4 467.398 3066.5 421.5 3112.4 467.398 3330.3 249.602H3638.4 3703.4 3638.4V611.5L3894.3 867.398 3940.2 913.398 3894.3 867.398 3638.4 1123.3V1485.3 1550.3 1485.3Z"/>
<path transform="matrix(.1,0,0,-.1,0,792)" d="M907 5220.4 689.199 5438.2 643.199 5484.2 689.199 5438.2 471.301 5220.4V4912.3 4847.3 4912.3H907 972 907" fill="#5effff"/>
<path transform="matrix(.1,0,0,-.1,0,792)" stroke-width="13" stroke-linecap="butt" stroke-miterlimit="10" stroke-linejoin="miter" fill="none" stroke="#000000" d="M907 5220.4 689.199 5438.2 643.199 5484.2 689.199 5438.2 471.301 5220.4V4912.3 4847.3 4912.3H907 972 907Z"/>
<path transform="matrix(.1,0,0,-.1,0,792)" d="M907 3416.6V3481.6 3416.6H406.301 471.301V3108.6L689.199 2890.7 735.102 2844.8 689.199 2890.7 907 3108.6" fill="#5effff"/>
<path transform="matrix(.1,0,0,-.1,0,792)" stroke-width="13" stroke-linecap="butt" stroke-miterlimit="10" stroke-linejoin="miter" fill="none" stroke="#000000" d="M907 3416.6V3481.6 3416.6H406.301 471.301V3108.6L689.199 2890.7 735.102 2844.8 689.199 2890.7 907 3108.6Z"/>
<path transform="matrix(.1,0,0,-.1,0,792)" d="M3020.5 7153.5 2974.6 7107.5 3020.5 7153.5 3328.6 7461.5 3020.5 7769.6 3066.5 7815.6 3020.5 7769.6 2712.4 7461.5"/>
<path transform="matrix(.1,0,0,-.1,0,792)" stroke-width="13" stroke-linecap="butt" stroke-miterlimit="10" stroke-linejoin="miter" fill="none" stroke="#000000" d="M3020.5 7153.5 2974.6 7107.5 3020.5 7153.5 3328.6 7461.5 3020.5 7769.6 3066.5 7815.6 3020.5 7769.6 2712.4 7461.5Z"/>
<path transform="matrix(.1,0,0,-.1,0,792)" d="M5134.1 3108.6 5351.9 2890.7 5397.9 2844.8 5351.9 2890.7 5569.7 3108.6V3416.6 3481.6 3416.6H5134.1 5069.1 5134.1" fill="#5effff"/>
<path transform="matrix(.1,0,0,-.1,0,792)" stroke-width="13" stroke-linecap="butt" stroke-miterlimit="10" stroke-linejoin="miter" fill="none" stroke="#000000" d="M5134.1 3108.6 5351.9 2890.7 5397.9 2844.8 5351.9 2890.7 5569.7 3108.6V3416.6 3481.6 3416.6H5134.1 5069.1 5134.1Z"/>
<path transform="matrix(.1,0,0,-.1,0,792)" d="M5134.1 4912.3V4847.3 4912.3H5634.7 5569.7V5220.4L5351.9 5438.2 5305.9 5484.2 5351.9 5438.2 5134.1 5220.4" fill="#5effff"/>
<path transform="matrix(.1,0,0,-.1,0,792)" stroke-width="13" stroke-linecap="butt" stroke-miterlimit="10" stroke-linejoin="miter" fill="none" stroke="#000000" d="M5134.1 4912.3V4847.3 4912.3H5634.7 5569.7V5220.4L5351.9 5438.2 5305.9 5484.2 5351.9 5438.2 5134.1 5220.4Z"/>
<path transform="matrix(.1,0,0,-.1,0,792)" d="M3020.5 1175.5 3066.5 1221.5 3020.5 1175.5 2712.4 867.398 3020.5 559.301 2974.6 513.398 3020.5 559.301 3328.6 867.398"/>
<path transform="matrix(.1,0,0,-.1,0,792)" stroke-width="13" stroke-linecap="butt" stroke-miterlimit="10" stroke-linejoin="miter" fill="none" stroke="#000000" d="M3020.5 1175.5 3066.5 1221.5 3020.5 1175.5 2712.4 867.398 3020.5 559.301 2974.6 513.398 3020.5 559.301 3328.6 867.398Z"/>
<path transform="matrix(.1,0,0,-.1,0,792)" d="M5042.1 7243.7 5260 7461.5 5305.9 7415.6 5260 7461.5 5004.1 7717.5V8079.4H5069.1 5004.1 4696L4478.1 7861.5 4432.2 7907.5 4478.1 7861.5 4734.1 7605.6V7243.7H4669.1 4734.1" fill="#29c4ff"/>
<path transform="matrix(.1,0,0,-.1,0,792)" stroke-width="13" stroke-linecap="butt" stroke-miterlimit="10" stroke-linejoin="miter" fill="none" stroke="#000000" d="M5042.1 7243.7 5260 7461.5 5305.9 7415.6 5260 7461.5 5004.1 7717.5V8079.4H5069.1 5004.1 4696L4478.1 7861.5 4432.2 7907.5 4478.1 7861.5 4734.1 7605.6V7243.7H4669.1 4734.1Z"/>
<path transform="matrix(.1,0,0,-.1,0,792)" d="M4604.1 7243.7H4669.1 4604.1V7551.8L4386.2 7769.6 4340.2 7815.6 4386.2 7769.6 4078.1 7461.5 4032.2 7415.6 4078.1 7461.5 4296 7243.7" fill="#5effff"/>
<path transform="matrix(.1,0,0,-.1,0,792)" stroke-width="13" stroke-linecap="butt" stroke-miterlimit="10" stroke-linejoin="miter" fill="none" stroke="#000000" d="M4604.1 7243.7H4669.1 4604.1V7551.8L4386.2 7769.6 4340.2 7815.6 4386.2 7769.6 4078.1 7461.5 4032.2 7415.6 4078.1 7461.5 4296 7243.7Z"/>
<path transform="matrix(.1,0,0,-.1,0,792)" d="M1745.1 7243.7 1962.9 7461.5 2008.9 7507.5 1962.9 7461.5 1654.8 7769.6 1608.9 7815.6 1654.8 7769.6 1437 7551.8V7243.7 7178.7 7243.7" fill="#5effff"/>
<path transform="matrix(.1,0,0,-.1,0,792)" stroke-width="13" stroke-linecap="butt" stroke-miterlimit="10" stroke-linejoin="miter" fill="none" stroke="#000000" d="M1745.1 7243.7 1962.9 7461.5 2008.9 7507.5 1962.9 7461.5 1654.8 7769.6 1608.9 7815.6 1654.8 7769.6 1437 7551.8V7243.7 7178.7 7243.7Z"/>
<path transform="matrix(.1,0,0,-.1,0,792)" d="M1307 7243.7V7178.7 7605.6L1562.9 7861.5 1608.9 7815.6 1562.9 7861.5 1345.1 8079.4H1037V8144.4 8079.4 7717.5L781.102 7461.5 735.102 7507.5 781.102 7461.5 998.898 7243.7" fill="#29c4ff"/>
<path transform="matrix(.1,0,0,-.1,0,792)" stroke-width="13" stroke-linecap="butt" stroke-miterlimit="10" stroke-linejoin="miter" fill="none" stroke="#000000" d="M1307 7243.7V7178.7 7605.6L1562.9 7861.5 1608.9 7815.6 1562.9 7861.5 1345.1 8079.4H1037V8144.4 8079.4 7717.5L781.102 7461.5 735.102 7507.5 781.102 7461.5 998.898 7243.7Z"/>
<path transform="matrix(.1,0,0,-.1,0,792)" d="M998.898 1085.3 781.102 867.398 735.102 913.398 781.102 867.398 1037 611.5V249.602H972 1037 1345.1L1562.9 467.398 1608.9 421.5 1562.9 467.398 1307 723.301V1085.3H1372 1307" fill="#29c4ff"/>
<path transform="matrix(.1,0,0,-.1,0,792)" stroke-width="13" stroke-linecap="butt" stroke-miterlimit="10" stroke-linejoin="miter" fill="none" stroke="#000000" d="M998.898 1085.3 781.102 867.398 735.102 913.398 781.102 867.398 1037 611.5V249.602H972 1037 1345.1L1562.9 467.398 1608.9 421.5 1562.9 467.398 1307 723.301V1085.3H1372 1307Z"/>
<path transform="matrix(.1,0,0,-.1,0,792)" d="M1437 1085.3H1372 1437V777.199L1654.8 559.301 1700.8 513.398 1654.8 559.301 1962.9 867.398 2008.9 913.398 1962.9 867.398 1745.1 1085.3" fill="#5effff"/>
<path transform="matrix(.1,0,0,-.1,0,792)" stroke-width="13" stroke-linecap="butt" stroke-miterlimit="10" stroke-linejoin="miter" fill="none" stroke="#000000" d="M1437 1085.3H1372 1437V777.199L1654.8 559.301 1700.8 513.398 1654.8 559.301 1962.9 867.398 2008.9 913.398 1962.9 867.398 1745.1 1085.3Z"/>
<path transform="matrix(.1,0,0,-.1,0,792)" d="M4296 1085.3 4078.1 867.398 4032.2 821.5 4078.1 867.398 4386.2 559.301 4432.2 513.398 4386.2 559.301 4604.1 777.199V1085.3 1150.3 1085.3" fill="#5effff"/>
<path transform="matrix(.1,0,0,-.1,0,792)" stroke-width="13" stroke-linecap="butt" stroke-miterlimit="10" stroke-linejoin="miter" fill="none" stroke="#000000" d="M4296 1085.3 4078.1 867.398 4032.2 821.5 4078.1 867.398 4386.2 559.301 4432.2 513.398 4386.2 559.301 4604.1 777.199V1085.3 1150.3 1085.3Z"/>
<path transform="matrix(.1,0,0,-.1,0,792)" d="M4734.1 1085.3V1150.3 723.301L4478.1 467.398 4432.2 513.398 4478.1 467.398 4696 249.602H5004.1V184.602 249.602 611.5L5260 867.398 5305.9 821.5 5260 867.398 5042.1 1085.3" fill="#29c4ff"/>
<path transform="matrix(.1,0,0,-.1,0,792)" stroke-width="13" stroke-linecap="butt" stroke-miterlimit="10" stroke-linejoin="miter" fill="none" stroke="#000000" d="M4734.1 1085.3V1150.3 723.301L4478.1 467.398 4432.2 513.398 4478.1 467.398 4696 249.602H5004.1V184.602 249.602 611.5L5260 867.398 5305.9 821.5 5260 867.398 5042.1 1085.3Z"/>
<path transform="matrix(.1,0,0,-.1,0,792)" d="M597.199 5530.2 643.199 5484.2 597.199 5530.2 379.398 5748H71.3008V5813 5748 5386.1L-184.602 5130.2-230.602 5176.1-184.602 5130.2 33.1992 4912.3H341.301V4847.3 4912.3 5274.2" fill="#29c4ff"/>
<path transform="matrix(.1,0,0,-.1,0,792)" stroke-width="13" stroke-linecap="butt" stroke-miterlimit="10" stroke-linejoin="miter" fill="none" stroke="#000000" d="M597.199 5530.2 643.199 5484.2 597.199 5530.2 379.398 5748H71.3008V5813 5748 5386.1L-184.602 5130.2-230.602 5176.1-184.602 5130.2 33.1992 4912.3H341.301V4847.3 4912.3 5274.2Z"/>
<path transform="matrix(.1,0,0,-.1,0,792)" d="M597.199 2798.8 643.199 2752.8 597.199 2798.8 341.301 3054.7V3416.6H406.301 341.301 33.1992L-184.602 3198.8-230.602 3244.8-184.602 3198.8 71.3008 2942.9V2580.9H6.30078 71.3008 379.398" fill="#29c4ff"/>
<path transform="matrix(.1,0,0,-.1,0,792)" stroke-width="13" stroke-linecap="butt" stroke-miterlimit="10" stroke-linejoin="miter" fill="none" stroke="#000000" d="M597.199 2798.8 643.199 2752.8 597.199 2798.8 341.301 3054.7V3416.6H406.301 341.301 33.1992L-184.602 3198.8-230.602 3244.8-184.602 3198.8 71.3008 2942.9V2580.9H6.30078 71.3008 379.398Z"/>
<path transform="matrix(.1,0,0,-.1,0,792)" d="M3986.2 7553.5 3940.2 7507.5 3986.2 7553.5 4294.3 7861.5 4340.2 7815.6 4294.3 7861.5 4076.4 8079.4H3768.4V8144.4 8079.4 7771.3"/>
<path transform="matrix(.1,0,0,-.1,0,792)" stroke-width="13" stroke-linecap="butt" stroke-miterlimit="10" stroke-linejoin="miter" fill="none" stroke="#000000" d="M3986.2 7553.5 3940.2 7507.5 3986.2 7553.5 4294.3 7861.5 4340.2 7815.6 4294.3 7861.5 4076.4 8079.4H3768.4V8144.4 8079.4 7771.3Z"/>
<path transform="matrix(.1,0,0,-.1,0,792)" d="M2054.8 7553.5 2008.9 7507.5 2054.8 7553.5 2272.7 7771.3V8079.4H2337.7 2272.7 1964.6L1746.8 7861.5 1700.8 7907.5 1746.8 7861.5"/>
<path transform="matrix(.1,0,0,-.1,0,792)" stroke-width="13" stroke-linecap="butt" stroke-miterlimit="10" stroke-linejoin="miter" fill="none" stroke="#000000" d="M2054.8 7553.5 2008.9 7507.5 2054.8 7553.5 2272.7 7771.3V8079.4H2337.7 2272.7 1964.6L1746.8 7861.5 1700.8 7907.5 1746.8 7861.5Z"/>
<path transform="matrix(.1,0,0,-.1,0,792)" d="M597.199 7461.5 643.199 7415.6 597.199 7461.5 341.301 7717.5V8079.4H406.301 341.301 33.1992L-184.602 7861.5-230.602 7907.5-184.602 7861.5 71.3008 7605.6V7243.7H6.30078 71.3008 379.398" fill="#29c4ff"/>
<path transform="matrix(.1,0,0,-.1,0,792)" stroke-width="13" stroke-linecap="butt" stroke-miterlimit="10" stroke-linejoin="miter" fill="none" stroke="#000000" d="M597.199 7461.5 643.199 7415.6 597.199 7461.5 341.301 7717.5V8079.4H406.301 341.301 33.1992L-184.602 7861.5-230.602 7907.5-184.602 7861.5 71.3008 7605.6V7243.7H6.30078 71.3008 379.398Z"/>
<path transform="matrix(.1,0,0,-.1,0,792)" d="M689.199 7553.5 735.102 7507.5 689.199 7553.5 907 7771.3V8079.4 8144.4 8079.4H471.301 406.301 471.301V7771.3" fill="#5effff"/>
<path transform="matrix(.1,0,0,-.1,0,792)" stroke-width="13" stroke-linecap="butt" stroke-miterlimit="10" stroke-linejoin="miter" fill="none" stroke="#000000" d="M689.199 7553.5 735.102 7507.5 689.199 7553.5 907 7771.3V8079.4 8144.4 8079.4H471.301 406.301 471.301V7771.3Z"/>
<path transform="matrix(.1,0,0,-.1,0,792)" d="M5443.8 2798.8 5397.9 2844.8 5443.8 2798.8 5661.7 2580.9H5969.7V2515.9 2580.9 2942.9L6225.7 3198.8 6271.6 3152.8 6225.7 3198.8 6007.8 3416.6H5699.7V3481.6 3416.6 3054.7" fill="#29c4ff"/>
<path transform="matrix(.1,0,0,-.1,0,792)" stroke-width="13" stroke-linecap="butt" stroke-miterlimit="10" stroke-linejoin="miter" fill="none" stroke="#000000" d="M5443.8 2798.8 5397.9 2844.8 5443.8 2798.8 5661.7 2580.9H5969.7V2515.9 2580.9 2942.9L6225.7 3198.8 6271.6 3152.8 6225.7 3198.8 6007.8 3416.6H5699.7V3481.6 3416.6 3054.7Z"/>
<path transform="matrix(.1,0,0,-.1,0,792)" d="M5443.8 5530.2 5397.9 5576.1 5443.8 5530.2 5699.7 5274.2V4912.3H5634.7 5699.7 6007.8L6225.7 5130.2 6271.6 5084.2 6225.7 5130.2 5969.7 5386.1V5748H6034.7 5969.7 5661.7" fill="#29c4ff"/>
<path transform="matrix(.1,0,0,-.1,0,792)" stroke-width="13" stroke-linecap="butt" stroke-miterlimit="10" stroke-linejoin="miter" fill="none" stroke="#000000" d="M5443.8 5530.2 5397.9 5576.1 5443.8 5530.2 5699.7 5274.2V4912.3H5634.7 5699.7 6007.8L6225.7 5130.2 6271.6 5084.2 6225.7 5130.2 5969.7 5386.1V5748H6034.7 5969.7 5661.7Z"/>
<path transform="matrix(.1,0,0,-.1,0,792)" d="M5351.9 7553.5 5397.9 7507.5 5351.9 7553.5 5569.7 7771.3V8079.4 8144.4 8079.4H5134.1 5069.1 5134.1V7771.3" fill="#5effff"/>
<path transform="matrix(.1,0,0,-.1,0,792)" stroke-width="13" stroke-linecap="butt" stroke-miterlimit="10" stroke-linejoin="miter" fill="none" stroke="#000000" d="M5351.9 7553.5 5397.9 7507.5 5351.9 7553.5 5569.7 7771.3V8079.4 8144.4 8079.4H5134.1 5069.1 5134.1V7771.3Z"/>
<path transform="matrix(.1,0,0,-.1,0,792)" d="M5443.8 7461.5 5397.9 7507.5 5443.8 7461.5 5661.7 7243.7H5969.7V7178.7 7243.7 7605.6L6225.7 7861.5 6271.6 7815.6 6225.7 7861.5 6007.8 8079.4H5699.7V8144.4 8079.4 7717.5" fill="#29c4ff"/>
<path transform="matrix(.1,0,0,-.1,0,792)" stroke-width="13" stroke-linecap="butt" stroke-miterlimit="10" stroke-linejoin="miter" fill="none" stroke="#000000" d="M5443.8 7461.5 5397.9 7507.5 5443.8 7461.5 5661.7 7243.7H5969.7V7178.7 7243.7 7605.6L6225.7 7861.5 6271.6 7815.6 6225.7 7861.5 6007.8 8079.4H5699.7V8144.4 8079.4 7717.5Z"/>
<path transform="matrix(.1,0,0,-.1,0,792)" d="M689.199 775.5 643.199 821.5 689.199 775.5 471.301 557.699V249.602 184.602 249.602H907 972 907V557.699" fill="#5effff"/>
<path transform="matrix(.1,0,0,-.1,0,792)" stroke-width="13" stroke-linecap="butt" stroke-miterlimit="10" stroke-linejoin="miter" fill="none" stroke="#000000" d="M689.199 775.5 643.199 821.5 689.199 775.5 471.301 557.699V249.602 184.602 249.602H907 972 907V557.699Z"/>
<path transform="matrix(.1,0,0,-.1,0,792)" d="M597.199 867.398 643.199 821.5 597.199 867.398 379.398 1085.3H71.3008V1150.3 1085.3 723.301L-184.602 467.398-230.602 513.398-184.602 467.398 33.1992 249.602H341.301V184.602 249.602 611.5" fill="#29c4ff"/>
<path transform="matrix(.1,0,0,-.1,0,792)" stroke-width="13" stroke-linecap="butt" stroke-miterlimit="10" stroke-linejoin="miter" fill="none" stroke="#000000" d="M597.199 867.398 643.199 821.5 597.199 867.398 379.398 1085.3H71.3008V1150.3 1085.3 723.301L-184.602 467.398-230.602 513.398-184.602 467.398 33.1992 249.602H341.301V184.602 249.602 611.5Z"/>
<path transform="matrix(.1,0,0,-.1,0,792)" d="M2054.8 775.5 2100.8 821.5 2054.8 775.5 1746.8 467.398 1700.8 513.398 1746.8 467.398 1964.6 249.602H2272.7V184.602 249.602 557.699"/>
<path transform="matrix(.1,0,0,-.1,0,792)" stroke-width="13" stroke-linecap="butt" stroke-miterlimit="10" stroke-linejoin="miter" fill="none" stroke="#000000" d="M2054.8 775.5 2100.8 821.5 2054.8 775.5 1746.8 467.398 1700.8 513.398 1746.8 467.398 1964.6 249.602H2272.7V184.602 249.602 557.699Z"/>
<path transform="matrix(.1,0,0,-.1,0,792)" d="M3986.2 775.5 4032.2 821.5 3986.2 775.5 3768.4 557.699V249.602H3703.4 3768.4 4076.4L4294.3 467.398 4340.2 421.5 4294.3 467.398"/>
<path transform="matrix(.1,0,0,-.1,0,792)" stroke-width="13" stroke-linecap="butt" stroke-miterlimit="10" stroke-linejoin="miter" fill="none" stroke="#000000" d="M3986.2 775.5 4032.2 821.5 3986.2 775.5 3768.4 557.699V249.602H3703.4 3768.4 4076.4L4294.3 467.398 4340.2 421.5 4294.3 467.398Z"/>
<path transform="matrix(.1,0,0,-.1,0,792)" d="M5443.8 867.398 5397.9 913.398 5443.8 867.398 5699.7 611.5V249.602H5634.7 5699.7 6007.8L6225.7 467.398 6271.6 421.5 6225.7 467.398 5969.7 723.301V1085.3H6034.7 5969.7 5661.7" fill="#29c4ff"/>
<path transform="matrix(.1,0,0,-.1,0,792)" stroke-width="13" stroke-linecap="butt" stroke-miterlimit="10" stroke-linejoin="miter" fill="none" stroke="#000000" d="M5443.8 867.398 5397.9 913.398 5443.8 867.398 5699.7 611.5V249.602H5634.7 5699.7 6007.8L6225.7 467.398 6271.6 421.5 6225.7 467.398 5969.7 723.301V1085.3H6034.7 5969.7 5661.7Z"/>
<path transform="matrix(.1,0,0,-.1,0,792)" d="M5351.9 775.5 5305.9 821.5 5351.9 775.5 5134.1 557.699V249.602 184.602 249.602H5569.7 5634.7 5569.7V557.699" fill="#5effff"/>
<path transform="matrix(.1,0,0,-.1,0,792)" stroke-width="13" stroke-linecap="butt" stroke-miterlimit="10" stroke-linejoin="miter" fill="none" stroke="#000000" d="M5351.9 775.5 5305.9 821.5 5351.9 775.5 5134.1 557.699V249.602 184.602 249.602H5569.7 5634.7 5569.7V557.699Z"/>
<path transform="matrix(.1,0,0,-.1,0,792)" d="M341.301 4782.3V4847.3 4782.3H-20.6016L-276.5 5038.2-322.5 5084.2-276.5 5038.2-532.5 4782.3H-894.398-959.398-894.398V4474.2L-676.5 4256.4-630.602 4210.4-676.5 4256.4-276.5 4656.4 123.5 4256.4 169.398 4210.4 123.5 4256.4 341.301 4474.2" fill="#ffff9e"/>
<path transform="matrix(.1,0,0,-.1,0,792)" stroke-width="13" stroke-linecap="butt" stroke-miterlimit="10" stroke-linejoin="miter" fill="none" stroke="#000000" d="M341.301 4782.3V4847.3 4782.3H-20.6016L-276.5 5038.2-322.5 5084.2-276.5 5038.2-532.5 4782.3H-894.398-959.398-894.398V4474.2L-676.5 4256.4-630.602 4210.4-676.5 4256.4-276.5 4656.4 123.5 4256.4 169.398 4210.4 123.5 4256.4 341.301 4474.2Z"/>
<path transform="matrix(.1,0,0,-.1,0,792)" d="M341.301 3854.7 123.5 4072.6 77.5 4118.5 123.5 4072.6-276.5 3672.6-676.5 4072.6-722.5 4118.5-676.5 4072.6-894.398 3854.7V3546.6 3481.6 3546.6H-532.5L-276.5 3290.7-230.602 3244.8-276.5 3290.7-20.6016 3546.6H341.301 406.301 341.301" fill="#ffff9e"/>
<path transform="matrix(.1,0,0,-.1,0,792)" stroke-width="13" stroke-linecap="butt" stroke-miterlimit="10" stroke-linejoin="miter" fill="none" stroke="#000000" d="M341.301 3854.7 123.5 4072.6 77.5 4118.5 123.5 4072.6-276.5 3672.6-676.5 4072.6-722.5 4118.5-676.5 4072.6-894.398 3854.7V3546.6 3481.6 3546.6H-532.5L-276.5 3290.7-230.602 3244.8-276.5 3290.7-20.6016 3546.6H341.301 406.301 341.301Z"/>
<path transform="matrix(.1,0,0,-.1,0,792)" d="M4386.2 7953.5 4432.2 7907.5 4386.2 7953.5 4642.1 8209.4H5004.1 5069.1 5004.1V8517.5L4786.2 8735.3 4740.2 8781.3 4786.2 8735.3 4386.2 8335.3 3986.2 8735.3 3940.2 8781.3 3986.2 8735.3 3768.4 8517.5V8209.4 8144.4 8209.4H4130.3" fill="#ffff9e"/>
<path transform="matrix(.1,0,0,-.1,0,792)" stroke-width="13" stroke-linecap="butt" stroke-miterlimit="10" stroke-linejoin="miter" fill="none" stroke="#000000" d="M4386.2 7953.5 4432.2 7907.5 4386.2 7953.5 4642.1 8209.4H5004.1 5069.1 5004.1V8517.5L4786.2 8735.3 4740.2 8781.3 4786.2 8735.3 4386.2 8335.3 3986.2 8735.3 3940.2 8781.3 3986.2 8735.3 3768.4 8517.5V8209.4 8144.4 8209.4H4130.3Z"/>
<path transform="matrix(.1,0,0,-.1,0,792)" d="M3020.5 7953.5 2974.6 7907.5 3020.5 7953.5 3276.4 8209.4H3638.4V8144.4 8209.4 8571.3L3894.3 8827.2 3940.2 8781.3 3894.3 8827.2 3638.4 9083.1V9445.1H3703.4 3638.4 3276.4L3020.5 9701 3066.5 9746.9 3020.5 9701 2764.6 9445.1H2402.7V9510.1 9445.1 9083.1L2146.8 8827.2 2100.8 8873.2 2146.8 8827.2 2402.7 8571.3V8209.4H2337.7 2402.7 2764.6" fill="#5effff"/>
<path transform="matrix(.1,0,0,-.1,0,792)" stroke-width="13" stroke-linecap="butt" stroke-miterlimit="10" stroke-linejoin="miter" fill="none" stroke="#000000" d="M3020.5 7953.5 2974.6 7907.5 3020.5 7953.5 3276.4 8209.4H3638.4V8144.4 8209.4 8571.3L3894.3 8827.2 3940.2 8781.3 3894.3 8827.2 3638.4 9083.1V9445.1H3703.4 3638.4 3276.4L3020.5 9701 3066.5 9746.9 3020.5 9701 2764.6 9445.1H2402.7V9510.1 9445.1 9083.1L2146.8 8827.2 2100.8 8873.2 2146.8 8827.2 2402.7 8571.3V8209.4H2337.7 2402.7 2764.6Z"/>
<path transform="matrix(.1,0,0,-.1,0,792)" d="M1654.8 7953.5 1700.8 7907.5 1654.8 7953.5 1910.8 8209.4H2272.7 2337.7 2272.7V8517.5L2054.8 8735.3 2008.9 8781.3 2054.8 8735.3 1654.8 8335.3 1254.8 8735.3 1208.9 8781.3 1254.8 8735.3 1037 8517.5V8209.4 8144.4 8209.4H1398.9" fill="#ffff9e"/>
<path transform="matrix(.1,0,0,-.1,0,792)" stroke-width="13" stroke-linecap="butt" stroke-miterlimit="10" stroke-linejoin="miter" fill="none" stroke="#000000" d="M1654.8 7953.5 1700.8 7907.5 1654.8 7953.5 1910.8 8209.4H2272.7 2337.7 2272.7V8517.5L2054.8 8735.3 2008.9 8781.3 2054.8 8735.3 1654.8 8335.3 1254.8 8735.3 1208.9 8781.3 1254.8 8735.3 1037 8517.5V8209.4 8144.4 8209.4H1398.9Z"/>
<path transform="matrix(.1,0,0,-.1,0,792)" d="M5699.7 3546.6V3481.6 3546.6H6061.7L6317.6 3290.7 6363.5 3244.8 6317.6 3290.7 6573.5 3546.6H6935.4 7000.4 6935.4V3854.7L6717.6 4072.6 6671.6 4118.5 6717.6 4072.6 6317.6 3672.6 5917.6 4072.6 5871.6 4118.5 5917.6 4072.6 5699.7 3854.7" fill="#ffff9e"/>
<path transform="matrix(.1,0,0,-.1,0,792)" stroke-width="13" stroke-linecap="butt" stroke-miterlimit="10" stroke-linejoin="miter" fill="none" stroke="#000000" d="M5699.7 3546.6V3481.6 3546.6H6061.7L6317.6 3290.7 6363.5 3244.8 6317.6 3290.7 6573.5 3546.6H6935.4 7000.4 6935.4V3854.7L6717.6 4072.6 6671.6 4118.5 6717.6 4072.6 6317.6 3672.6 5917.6 4072.6 5871.6 4118.5 5917.6 4072.6 5699.7 3854.7Z"/>
<path transform="matrix(.1,0,0,-.1,0,792)" d="M5699.7 4474.2 5917.6 4256.4 5963.5 4210.4 5917.6 4256.4 6317.6 4656.4 6717.6 4256.4 6763.5 4210.4 6717.6 4256.4 6935.4 4474.2V4782.3 4847.3 4782.3H6573.5L6317.6 5038.2 6271.6 5084.2 6317.6 5038.2 6061.7 4782.3H5699.7 5634.7 5699.7" fill="#ffff9e"/>
<path transform="matrix(.1,0,0,-.1,0,792)" stroke-width="13" stroke-linecap="butt" stroke-miterlimit="10" stroke-linejoin="miter" fill="none" stroke="#000000" d="M5699.7 4474.2 5917.6 4256.4 5963.5 4210.4 5917.6 4256.4 6317.6 4656.4 6717.6 4256.4 6763.5 4210.4 6717.6 4256.4 6935.4 4474.2V4782.3 4847.3 4782.3H6573.5L6317.6 5038.2 6271.6 5084.2 6317.6 5038.2 6061.7 4782.3H5699.7 5634.7 5699.7Z"/>
<path transform="matrix(.1,0,0,-.1,0,792)" d="M1654.8 375.5 1608.9 421.5 1654.8 375.5 1398.9 119.602H1037 972 1037V-188.5L1254.8-406.301 1300.8-452.301 1254.8-406.301 1654.8-6.30078 2054.8-406.301 2100.8-452.301 2054.8-406.301 2272.7-188.5V119.602 184.602 119.602H1910.8" fill="#ffff9e"/>
<path transform="matrix(.1,0,0,-.1,0,792)" stroke-width="13" stroke-linecap="butt" stroke-miterlimit="10" stroke-linejoin="miter" fill="none" stroke="#000000" d="M1654.8 375.5 1608.9 421.5 1654.8 375.5 1398.9 119.602H1037 972 1037V-188.5L1254.8-406.301 1300.8-452.301 1254.8-406.301 1654.8-6.30078 2054.8-406.301 2100.8-452.301 2054.8-406.301 2272.7-188.5V119.602 184.602 119.602H1910.8Z"/>
<path transform="matrix(.1,0,0,-.1,0,792)" d="M3020.5 375.5 3066.5 421.5 3020.5 375.5 2764.6 119.602H2402.7V184.602 119.602-242.301L2146.8-498.301 2100.8-452.301 2146.8-498.301 2402.7-754.199V-1116.1H2337.7 2402.7 2764.6L3020.5-1372 2974.6-1418 3020.5-1372 3276.4-1116.1H3638.4V-1181.1-1116.1-754.199L3894.3-498.301 3940.2-544.199 3894.3-498.301 3638.4-242.301V119.602H3703.4 3638.4 3276.4" fill="#5effff"/>
<path transform="matrix(.1,0,0,-.1,0,792)" stroke-width="13" stroke-linecap="butt" stroke-miterlimit="10" stroke-linejoin="miter" fill="none" stroke="#000000" d="M3020.5 375.5 3066.5 421.5 3020.5 375.5 2764.6 119.602H2402.7V184.602 119.602-242.301L2146.8-498.301 2100.8-452.301 2146.8-498.301 2402.7-754.199V-1116.1H2337.7 2402.7 2764.6L3020.5-1372 2974.6-1418 3020.5-1372 3276.4-1116.1H3638.4V-1181.1-1116.1-754.199L3894.3-498.301 3940.2-544.199 3894.3-498.301 3638.4-242.301V119.602H3703.4 3638.4 3276.4Z"/>
<path transform="matrix(.1,0,0,-.1,0,792)" d="M4386.2 375.5 4340.2 421.5 4386.2 375.5 4130.3 119.602H3768.4 3703.4 3768.4V-188.5L3986.2-406.301 4032.2-452.301 3986.2-406.301 4386.2-6.30078 4786.2-406.301 4832.2-452.301 4786.2-406.301 5004.1-188.5V119.602 184.602 119.602H4642.1" fill="#ffff9e"/>
<path transform="matrix(.1,0,0,-.1,0,792)" stroke-width="13" stroke-linecap="butt" stroke-miterlimit="10" stroke-linejoin="miter" fill="none" stroke="#000000" d="M4386.2 375.5 4340.2 421.5 4386.2 375.5 4130.3 119.602H3768.4 3703.4 3768.4V-188.5L3986.2-406.301 4032.2-452.301 3986.2-406.301 4386.2-6.30078 4786.2-406.301 4832.2-452.301 4786.2-406.301 5004.1-188.5V119.602 184.602 119.602H4642.1Z"/>
<path transform="matrix(.1,0,0,-.1,0,792)" d="M31.5 4164.5 77.5 4118.5 31.5 4164.5-276.5 4472.6-584.602 4164.5-630.602 4210.4-584.602 4164.5-276.5 3856.4"/>
<path transform="matrix(.1,0,0,-.1,0,792)" stroke-width="13" stroke-linecap="butt" stroke-miterlimit="10" stroke-linejoin="miter" fill="none" stroke="#000000" d="M31.5 4164.5 77.5 4118.5 31.5 4164.5-276.5 4472.6-584.602 4164.5-630.602 4210.4-584.602 4164.5-276.5 3856.4Z"/>
<path transform="matrix(.1,0,0,-.1,0,792)" d="M5699.7 8209.4V8144.4 8209.4H6061.7L6317.6 7953.5 6363.5 7907.5 6317.6 7953.5 6573.5 8209.4H6935.4 7000.4 6935.4V8517.5L6717.6 8735.3 6671.6 8781.3 6717.6 8735.3 6317.6 8335.3 5917.6 8735.3 5871.6 8781.3 5917.6 8735.3 5699.7 8517.5" fill="#ffff9e"/>
<path transform="matrix(.1,0,0,-.1,0,792)" stroke-width="13" stroke-linecap="butt" stroke-miterlimit="10" stroke-linejoin="miter" fill="none" stroke="#000000" d="M5699.7 8209.4V8144.4 8209.4H6061.7L6317.6 7953.5 6363.5 7907.5 6317.6 7953.5 6573.5 8209.4H6935.4 7000.4 6935.4V8517.5L6717.6 8735.3 6671.6 8781.3 6717.6 8735.3 6317.6 8335.3 5917.6 8735.3 5871.6 8781.3 5917.6 8735.3 5699.7 8517.5Z"/>
<path transform="matrix(.1,0,0,-.1,0,792)" d="M341.301 8209.4H406.301 341.301V8517.5L123.5 8735.3 77.5 8781.3 123.5 8735.3-276.5 8335.3-676.5 8735.3-722.5 8781.3-676.5 8735.3-894.398 8517.5V8209.4 8144.4 8209.4H-532.5L-276.5 7953.5-230.602 7907.5-276.5 7953.5-20.6016 8209.4" fill="#ffff9e"/>
<path transform="matrix(.1,0,0,-.1,0,792)" stroke-width="13" stroke-linecap="butt" stroke-miterlimit="10" stroke-linejoin="miter" fill="none" stroke="#000000" d="M341.301 8209.4H406.301 341.301V8517.5L123.5 8735.3 77.5 8781.3 123.5 8735.3-276.5 8335.3-676.5 8735.3-722.5 8781.3-676.5 8735.3-894.398 8517.5V8209.4 8144.4 8209.4H-532.5L-276.5 7953.5-230.602 7907.5-276.5 7953.5-20.6016 8209.4Z"/>
<path transform="matrix(.1,0,0,-.1,0,792)" d="M471.301 119.602V184.602-242.301L215.398-498.301 169.398-452.301 215.398-498.301 471.301-754.199V-1116.1H406.301 471.301 907V-1181.1-1116.1-754.199L1162.9-498.301 1208.9-544.199 1162.9-498.301 907-242.301V119.602H972 907"/>
<path transform="matrix(.1,0,0,-.1,0,792)" stroke-width="13" stroke-linecap="butt" stroke-miterlimit="10" stroke-linejoin="miter" fill="none" stroke="#000000" d="M471.301 119.602V184.602-242.301L215.398-498.301 169.398-452.301 215.398-498.301 471.301-754.199V-1116.1H406.301 471.301 907V-1181.1-1116.1-754.199L1162.9-498.301 1208.9-544.199 1162.9-498.301 907-242.301V119.602H972 907Z"/>
<path transform="matrix(.1,0,0,-.1,0,792)" d="M341.301 119.602V184.602 119.602H-20.6016L-276.5 375.5-322.5 421.5-276.5 375.5-532.5 119.602H-894.398-959.398-894.398V-188.5L-676.5-406.301-630.602-452.301-676.5-406.301-276.5-6.30078 123.5-406.301 169.398-452.301 123.5-406.301 341.301-188.5" fill="#ffff9e"/>
<path transform="matrix(.1,0,0,-.1,0,792)" stroke-width="13" stroke-linecap="butt" stroke-miterlimit="10" stroke-linejoin="miter" fill="none" stroke="#000000" d="M341.301 119.602V184.602 119.602H-20.6016L-276.5 375.5-322.5 421.5-276.5 375.5-532.5 119.602H-894.398-959.398-894.398V-188.5L-676.5-406.301-630.602-452.301-676.5-406.301-276.5-6.30078 123.5-406.301 169.398-452.301 123.5-406.301 341.301-188.5Z"/>
<path transform="matrix(.1,0,0,-.1,0,792)" d="M5134.1 119.602V184.602-242.301L4878.1-498.301 4832.2-452.301 4878.1-498.301 5134.1-754.199V-1116.1H5069.1 5134.1 5569.7V-1181.1-1116.1-754.199L5825.7-498.301 5871.6-544.199 5825.7-498.301 5569.7-242.301V119.602H5634.7 5569.7"/>
<path transform="matrix(.1,0,0,-.1,0,792)" stroke-width="13" stroke-linecap="butt" stroke-miterlimit="10" stroke-linejoin="miter" fill="none" stroke="#000000" d="M5134.1 119.602V184.602-242.301L4878.1-498.301 4832.2-452.301 4878.1-498.301 5134.1-754.199V-1116.1H5069.1 5134.1 5569.7V-1181.1-1116.1-754.199L5825.7-498.301 5871.6-544.199 5825.7-498.301 5569.7-242.301V119.602H5634.7 5569.7Z"/>
<path transform="matrix(.1,0,0,-.1,0,792)" d="M5699.7 119.602H5634.7 5699.7V-188.5L5917.6-406.301 5963.5-452.301 5917.6-406.301 6317.6-6.30078 6717.6-406.301 6763.5-452.301 6717.6-406.301 6935.4-188.5V119.602 184.602 119.602H6573.5L6317.6 375.5 6271.6 421.5 6317.6 375.5 6061.7 119.602" fill="#ffff9e"/>
<path transform="matrix(.1,0,0,-.1,0,792)" stroke-width="13" stroke-linecap="butt" stroke-miterlimit="10" stroke-linejoin="miter" fill="none" stroke="#000000" d="M5699.7 119.602H5634.7 5699.7V-188.5L5917.6-406.301 5963.5-452.301 5917.6-406.301 6317.6-6.30078 6717.6-406.301 6763.5-452.301 6717.6-406.301 6935.4-188.5V119.602 184.602 119.602H6573.5L6317.6 375.5 6271.6 421.5 6317.6 375.5 6061.7 119.602Z"/>
<path transform="matrix(.1,0,0,-.1,0,792)" d="M6009.5 4164.5 5963.5 4210.4 6009.5 4164.5 6317.6 3856.4 6625.7 4164.5 6671.6 4118.5 6625.7 4164.5 6317.6 4472.6"/>
<path transform="matrix(.1,0,0,-.1,0,792)" stroke-width="13" stroke-linecap="butt" stroke-miterlimit="10" stroke-linejoin="miter" fill="none" stroke="#000000" d="M6009.5 4164.5 5963.5 4210.4 6009.5 4164.5 6317.6 3856.4 6625.7 4164.5 6671.6 4118.5 6625.7 4164.5 6317.6 4472.6Z"/>
<path transform="matrix(.1,0,0,-.1,0,792)" d="M-58.6992 7551.8-276.5 7769.6-322.5 7815.6-276.5 7769.6-584.602 7461.5-630.602 7415.6-584.602 7461.5-366.801 7243.7H-58.6992 6.30078-58.6992" fill="#5effff"/>
<path transform="matrix(.1,0,0,-.1,0,792)" stroke-width="13" stroke-linecap="butt" stroke-miterlimit="10" stroke-linejoin="miter" fill="none" stroke="#000000" d="M-58.6992 7551.8-276.5 7769.6-322.5 7815.6-276.5 7769.6-584.602 7461.5-630.602 7415.6-584.602 7461.5-366.801 7243.7H-58.6992 6.30078-58.6992Z"/>
<path transform="matrix(.1,0,0,-.1,0,792)" d="M-58.6992 7113.7H6.30078-420.602L-676.5 7369.6-630.602 7415.6-676.5 7369.6-894.398 7151.8V6843.7H-959.398-894.398-532.5L-276.5 6587.8-322.5 6541.8-276.5 6587.8-58.6992 6805.6" fill="#29c4ff"/>
<path transform="matrix(.1,0,0,-.1,0,792)" stroke-width="13" stroke-linecap="butt" stroke-miterlimit="10" stroke-linejoin="miter" fill="none" stroke="#000000" d="M-58.6992 7113.7H6.30078-420.602L-676.5 7369.6-630.602 7415.6-676.5 7369.6-894.398 7151.8V6843.7H-959.398-894.398-532.5L-276.5 6587.8-322.5 6541.8-276.5 6587.8-58.6992 6805.6Z"/>
<path transform="matrix(.1,0,0,-.1,0,792)" d="M-58.6992 2889-276.5 3106.9-322.5 3152.8-276.5 3106.9-584.602 2798.8-630.602 2752.8-584.602 2798.8-366.801 2580.9H-58.6992 6.30078-58.6992" fill="#5effff"/>
<path transform="matrix(.1,0,0,-.1,0,792)" stroke-width="13" stroke-linecap="butt" stroke-miterlimit="10" stroke-linejoin="miter" fill="none" stroke="#000000" d="M-58.6992 2889-276.5 3106.9-322.5 3152.8-276.5 3106.9-584.602 2798.8-630.602 2752.8-584.602 2798.8-366.801 2580.9H-58.6992 6.30078-58.6992Z"/>
<path transform="matrix(.1,0,0,-.1,0,792)" d="M-58.6992 2450.9H6.30078-420.602L-676.5 2706.9-630.602 2752.8-676.5 2706.9-894.398 2489V2180.9H-959.398-894.398-532.5L-276.5 1925-322.5 1879.1-276.5 1925-58.6992 2142.9" fill="#29c4ff"/>
<path transform="matrix(.1,0,0,-.1,0,792)" stroke-width="13" stroke-linecap="butt" stroke-miterlimit="10" stroke-linejoin="miter" fill="none" stroke="#000000" d="M-58.6992 2450.9H6.30078-420.602L-676.5 2706.9-630.602 2752.8-676.5 2706.9-894.398 2489V2180.9H-959.398-894.398-532.5L-276.5 1925-322.5 1879.1-276.5 1925-58.6992 2142.9Z"/>
<path transform="matrix(.1,0,0,-.1,0,792)" d="M6099.7 777.199 6317.6 559.301 6363.5 513.398 6317.6 559.301 6625.7 867.398 6671.6 913.398 6625.7 867.398 6407.8 1085.3H6099.7 6034.7 6099.7" fill="#5effff"/>
<path transform="matrix(.1,0,0,-.1,0,792)" stroke-width="13" stroke-linecap="butt" stroke-miterlimit="10" stroke-linejoin="miter" fill="none" stroke="#000000" d="M6099.7 777.199 6317.6 559.301 6363.5 513.398 6317.6 559.301 6625.7 867.398 6671.6 913.398 6625.7 867.398 6407.8 1085.3H6099.7 6034.7 6099.7Z"/>
<path transform="matrix(.1,0,0,-.1,0,792)" d="M6099.7 1215.3H6034.7 6461.7L6717.6 959.301 6671.6 913.398 6717.6 959.301 6935.4 1177.2V1485.3H7000.4 6935.4 6573.5L6317.6 1741.2 6363.5 1787.1 6317.6 1741.2 6099.7 1523.3" fill="#29c4ff"/>
<path transform="matrix(.1,0,0,-.1,0,792)" stroke-width="13" stroke-linecap="butt" stroke-miterlimit="10" stroke-linejoin="miter" fill="none" stroke="#000000" d="M6099.7 1215.3H6034.7 6461.7L6717.6 959.301 6671.6 913.398 6717.6 959.301 6935.4 1177.2V1485.3H7000.4 6935.4 6573.5L6317.6 1741.2 6363.5 1787.1 6317.6 1741.2 6099.7 1523.3Z"/>
<path transform="matrix(.1,0,0,-.1,0,792)" d="M6099.7 2142.9 6317.6 1925 6271.6 1879.1 6317.6 1925 6573.5 2180.9H6935.4V2115.9 2180.9 2489L6717.6 2706.9 6763.5 2752.8 6717.6 2706.9 6461.7 2450.9H6099.7V2515.9 2450.9" fill="#29c4ff"/>
<path transform="matrix(.1,0,0,-.1,0,792)" stroke-width="13" stroke-linecap="butt" stroke-miterlimit="10" stroke-linejoin="miter" fill="none" stroke="#000000" d="M6099.7 2142.9 6317.6 1925 6271.6 1879.1 6317.6 1925 6573.5 2180.9H6935.4V2115.9 2180.9 2489L6717.6 2706.9 6763.5 2752.8 6717.6 2706.9 6461.7 2450.9H6099.7V2515.9 2450.9Z"/>
<path transform="matrix(.1,0,0,-.1,0,792)" d="M6099.7 2580.9V2515.9 2580.9H6407.8L6625.7 2798.8 6671.6 2844.8 6625.7 2798.8 6317.6 3106.9 6271.6 3152.8 6317.6 3106.9 6099.7 2889" fill="#5effff"/>
<path transform="matrix(.1,0,0,-.1,0,792)" stroke-width="13" stroke-linecap="butt" stroke-miterlimit="10" stroke-linejoin="miter" fill="none" stroke="#000000" d="M6099.7 2580.9V2515.9 2580.9H6407.8L6625.7 2798.8 6671.6 2844.8 6625.7 2798.8 6317.6 3106.9 6271.6 3152.8 6317.6 3106.9 6099.7 2889Z"/>
<path transform="matrix(.1,0,0,-.1,0,792)" d="M6099.7 5439.9 6317.6 5222.1 6363.5 5176.1 6317.6 5222.1 6625.7 5530.2 6671.6 5576.1 6625.7 5530.2 6407.8 5748H6099.7 6034.7 6099.7" fill="#5effff"/>
<path transform="matrix(.1,0,0,-.1,0,792)" stroke-width="13" stroke-linecap="butt" stroke-miterlimit="10" stroke-linejoin="miter" fill="none" stroke="#000000" d="M6099.7 5439.9 6317.6 5222.1 6363.5 5176.1 6317.6 5222.1 6625.7 5530.2 6671.6 5576.1 6625.7 5530.2 6407.8 5748H6099.7 6034.7 6099.7Z"/>
<path transform="matrix(.1,0,0,-.1,0,792)" d="M6099.7 5878H6034.7 6461.7L6717.6 5622.1 6671.6 5576.1 6717.6 5622.1 6935.4 5839.9V6148H7000.4 6935.4 6573.5L6317.6 6403.9 6363.5 6449.9 6317.6 6403.9 6099.7 6186.1" fill="#29c4ff"/>
<path transform="matrix(.1,0,0,-.1,0,792)" stroke-width="13" stroke-linecap="butt" stroke-miterlimit="10" stroke-linejoin="miter" fill="none" stroke="#000000" d="M6099.7 5878H6034.7 6461.7L6717.6 5622.1 6671.6 5576.1 6717.6 5622.1 6935.4 5839.9V6148H7000.4 6935.4 6573.5L6317.6 6403.9 6363.5 6449.9 6317.6 6403.9 6099.7 6186.1Z"/>
<path transform="matrix(.1,0,0,-.1,0,792)" d="M6099.7 6805.6 6317.6 6587.8 6271.6 6541.8 6317.6 6587.8 6573.5 6843.7H6935.4V6778.7 6843.7 7151.8L6717.6 7369.6 6763.5 7415.6 6717.6 7369.6 6461.7 7113.7H6099.7V7178.7 7113.7" fill="#29c4ff"/>
<path transform="matrix(.1,0,0,-.1,0,792)" stroke-width="13" stroke-linecap="butt" stroke-miterlimit="10" stroke-linejoin="miter" fill="none" stroke="#000000" d="M6099.7 6805.6 6317.6 6587.8 6271.6 6541.8 6317.6 6587.8 6573.5 6843.7H6935.4V6778.7 6843.7 7151.8L6717.6 7369.6 6763.5 7415.6 6717.6 7369.6 6461.7 7113.7H6099.7V7178.7 7113.7Z"/>
<path transform="matrix(.1,0,0,-.1,0,792)" d="M6099.7 7243.7V7178.7 7243.7H6407.8L6625.7 7461.5 6671.6 7507.5 6625.7 7461.5 6317.6 7769.6 6271.6 7815.6 6317.6 7769.6 6099.7 7551.8" fill="#5effff"/>
<path transform="matrix(.1,0,0,-.1,0,792)" stroke-width="13" stroke-linecap="butt" stroke-miterlimit="10" stroke-linejoin="miter" fill="none" stroke="#000000" d="M6099.7 7243.7V7178.7 7243.7H6407.8L6625.7 7461.5 6671.6 7507.5 6625.7 7461.5 6317.6 7769.6 6271.6 7815.6 6317.6 7769.6 6099.7 7551.8Z"/>
</svg>
