<svg xmlns="http://www.w3.org/2000/svg" xmlns:xlink="http://www.w3.org/1999/xlink" xmlns:inkscape="http://www.inkscape.org/namespaces/inkscape" version="1.1" width="612" height="792" viewBox="0 0 612 792">
<path transform="matrix(.1,0,0,-.1,0,792)" d="M3446.4 4210 3092.9 4563.6 2739.3 4210 3092.9 3856.4Z" fill="#bf36c4"/>
<path transform="matrix(.1,0,0,-.1,0,792)" stroke-width="15" stroke-linecap="butt" stroke-miterlimit="10" stroke-linejoin="miter" fill="none" stroke="#000000" d="M3446.4 4210 3092.9 4563.6 2739.3 4210 3092.9 3856.4Z"/>
<path transform="matrix(.1,0,0,-.1,0,792)" d="M2739.3 4210 2385.7 3856.4H1678.6V4210H1325.1V3502.9L1678.6 3149.3 2032.2 3502.9H2739.3L3092.9 3856.4" fill="#c930cf"/>
<path transform="matrix(.1,0,0,-.1,0,792)" stroke-width="15" stroke-linecap="butt" stroke-miterlimit="10" stroke-linejoin="miter" fill="none" stroke="#000000" d="M2739.3 4210 2385.7 3856.4H1678.6V4210H1325.1V3502.9L1678.6 3149.3 2032.2 3502.9H2739.3L3092.9 3856.4Z"/>
<path transform="matrix(.1,0,0,-.1,0,792)" d="M2739.3 4210 2385.7 4563.6V5270.7L2032.2 5624.2 1678.6 5270.7 2032.2 4917.1V4210H1678.6V3856.4H2385.7" fill="#b2c4e3"/>
<path transform="matrix(.1,0,0,-.1,0,792)" stroke-width="15" stroke-linecap="butt" stroke-miterlimit="10" stroke-linejoin="miter" fill="none" stroke="#000000" d="M2739.3 4210 2385.7 4563.6V5270.7L2032.2 5624.2 1678.6 5270.7 2032.2 4917.1V4210H1678.6V3856.4H2385.7Z"/>
<path transform="matrix(.1,0,0,-.1,0,792)" d="M2739.3 4210 3092.9 4563.6 2739.3 4917.1V5624.2H3092.9V5977.8H2385.7L2032.2 5624.2 2385.7 5270.7V4563.6" fill="#c930cf"/>
<path transform="matrix(.1,0,0,-.1,0,792)" stroke-width="15" stroke-linecap="butt" stroke-miterlimit="10" stroke-linejoin="miter" fill="none" stroke="#000000" d="M2739.3 4210 3092.9 4563.6 2739.3 4917.1V5624.2H3092.9V5977.8H2385.7L2032.2 5624.2 2385.7 5270.7V4563.6Z"/>
<path transform="matrix(.1,0,0,-.1,0,792)" d="M3092.9 4563.6 3446.4 4917.1H4153.5L4507.1 5270.7 4153.5 5624.2 3800 5270.7H3092.9V5624.2H2739.3V4917.1" fill="#b2c4e3"/>
<path transform="matrix(.1,0,0,-.1,0,792)" stroke-width="15" stroke-linecap="butt" stroke-miterlimit="10" stroke-linejoin="miter" fill="none" stroke="#000000" d="M3092.9 4563.6 3446.4 4917.1H4153.5L4507.1 5270.7 4153.5 5624.2 3800 5270.7H3092.9V5624.2H2739.3V4917.1Z"/>
<path transform="matrix(.1,0,0,-.1,0,792)" d="M3092.9 4563.6 3446.4 4210 3800 4563.6H4507.1V4210H4860.6V4917.1L4507.1 5270.7 4153.5 4917.1H3446.4" fill="#c930cf"/>
<path transform="matrix(.1,0,0,-.1,0,792)" stroke-width="15" stroke-linecap="butt" stroke-miterlimit="10" stroke-linejoin="miter" fill="none" stroke="#000000" d="M3092.9 4563.6 3446.4 4210 3800 4563.6H4507.1V4210H4860.6V4917.1L4507.1 5270.7 4153.5 4917.1H3446.4Z"/>
<path transform="matrix(.1,0,0,-.1,0,792)" d="M3092.9 3856.4 3446.4 3502.9V2795.8H3092.9V2442.2H3800L4153.5 2795.8 3800 3149.3V3856.4L3446.4 4210" fill="#c930cf"/>
<path transform="matrix(.1,0,0,-.1,0,792)" stroke-width="15" stroke-linecap="butt" stroke-miterlimit="10" stroke-linejoin="miter" fill="none" stroke="#000000" d="M3092.9 3856.4 3446.4 3502.9V2795.8H3092.9V2442.2H3800L4153.5 2795.8 3800 3149.3V3856.4L3446.4 4210Z"/>
<path transform="matrix(.1,0,0,-.1,0,792)" d="M3092.9 3856.4 2739.3 3502.9H2032.2L1678.6 3149.3 2032.2 2795.8 2385.7 3149.3H3092.9V2795.8H3446.4V3502.9" fill="#b2c4e3"/>
<path transform="matrix(.1,0,0,-.1,0,792)" stroke-width="15" stroke-linecap="butt" stroke-miterlimit="10" stroke-linejoin="miter" fill="none" stroke="#000000" d="M3092.9 3856.4 2739.3 3502.9H2032.2L1678.6 3149.3 2032.2 2795.8 2385.7 3149.3H3092.9V2795.8H3446.4V3502.9Z"/>
<path transform="matrix(.1,0,0,-.1,0,792)" d="M3446.4 4210 3800 3856.4V3149.3L4153.5 2795.8 4507.1 3149.3 4153.5 3502.9V4210H4507.1V4563.6H3800" fill="#b2c4e3"/>
<path transform="matrix(.1,0,0,-.1,0,792)" stroke-width="15" stroke-linecap="butt" stroke-miterlimit="10" stroke-linejoin="miter" fill="none" stroke="#000000" d="M3446.4 4210 3800 3856.4V3149.3L4153.5 2795.8 4507.1 3149.3 4153.5 3502.9V4210H4507.1V4563.6H3800Z"/>
<path transform="matrix(.1,0,0,-.1,0,792)" d="M3092.9 5270.7H3800L4153.5 5624.2 3800 5977.8V6684.9L3446.4 7038.4 3092.9 6684.9 3446.4 6331.3V5624.2H3092.9" fill="#c930cf"/>
<path transform="matrix(.1,0,0,-.1,0,792)" stroke-width="15" stroke-linecap="butt" stroke-miterlimit="10" stroke-linejoin="miter" fill="none" stroke="#000000" d="M3092.9 5270.7H3800L4153.5 5624.2 3800 5977.8V6684.9L3446.4 7038.4 3092.9 6684.9 3446.4 6331.3V5624.2H3092.9Z"/>
<path transform="matrix(.1,0,0,-.1,0,792)" d="M2385.7 3149.3 2032.2 2795.8 2385.7 2442.2V1735.1L2739.3 1381.6 3092.9 1735.1 2739.3 2088.7V2795.8H3092.9V3149.3" fill="#c930cf"/>
<path transform="matrix(.1,0,0,-.1,0,792)" stroke-width="15" stroke-linecap="butt" stroke-miterlimit="10" stroke-linejoin="miter" fill="none" stroke="#000000" d="M2385.7 3149.3 2032.2 2795.8 2385.7 2442.2V1735.1L2739.3 1381.6 3092.9 1735.1 2739.3 2088.7V2795.8H3092.9V3149.3Z"/>
<path transform="matrix(.1,0,0,-.1,0,792)" d="M2032.2 4917.1 1678.6 5270.7 1325.1 4917.1H618L264.398 4563.6 618 4210 971.5 4563.6H1678.6V4210H2032.2" fill="#c930cf"/>
<path transform="matrix(.1,0,0,-.1,0,792)" stroke-width="15" stroke-linecap="butt" stroke-miterlimit="10" stroke-linejoin="miter" fill="none" stroke="#000000" d="M2032.2 4917.1 1678.6 5270.7 1325.1 4917.1H618L264.398 4563.6 618 4210 971.5 4563.6H1678.6V4210H2032.2Z"/>
<path transform="matrix(.1,0,0,-.1,0,792)" d="M2032.2 5624.2 1678.6 5977.8 1325.1 5624.2 1678.6 5270.7Z" fill="#7a008c"/>
<path transform="matrix(.1,0,0,-.1,0,792)" stroke-width="15" stroke-linecap="butt" stroke-miterlimit="10" stroke-linejoin="miter" fill="none" stroke="#000000" d="M2032.2 5624.2 1678.6 5977.8 1325.1 5624.2 1678.6 5270.7Z"/>
<path transform="matrix(.1,0,0,-.1,0,792)" d="M2032.2 5624.2 2385.7 5977.8H3092.9V5624.2H3446.4V6331.3L3092.9 6684.9 2739.3 6331.3H2032.2L1678.6 5977.8" fill="#b2c4e3"/>
<path transform="matrix(.1,0,0,-.1,0,792)" stroke-width="15" stroke-linecap="butt" stroke-miterlimit="10" stroke-linejoin="miter" fill="none" stroke="#000000" d="M2032.2 5624.2 2385.7 5977.8H3092.9V5624.2H3446.4V6331.3L3092.9 6684.9 2739.3 6331.3H2032.2L1678.6 5977.8Z"/>
<path transform="matrix(.1,0,0,-.1,0,792)" d="M2032.2 2795.8 1678.6 2442.2 2032.2 2088.7V1381.6H1678.6V1028H2385.7L2739.3 1381.6 2385.7 1735.1V2442.2" fill="#b2c4e3"/>
<path transform="matrix(.1,0,0,-.1,0,792)" stroke-width="15" stroke-linecap="butt" stroke-miterlimit="10" stroke-linejoin="miter" fill="none" stroke="#000000" d="M2032.2 2795.8 1678.6 2442.2 2032.2 2088.7V1381.6H1678.6V1028H2385.7L2739.3 1381.6 2385.7 1735.1V2442.2Z"/>
<path transform="matrix(.1,0,0,-.1,0,792)" d="M2032.2 2795.8 1678.6 3149.3 1325.1 2795.8 1678.6 2442.2Z" fill="#7a008c"/>
<path transform="matrix(.1,0,0,-.1,0,792)" stroke-width="15" stroke-linecap="butt" stroke-miterlimit="10" stroke-linejoin="miter" fill="none" stroke="#000000" d="M2032.2 2795.8 1678.6 3149.3 1325.1 2795.8 1678.6 2442.2Z"/>
<path transform="matrix(.1,0,0,-.1,0,792)" d="M2739.3 2795.8V2088.7L3092.9 1735.1 3446.4 2088.7H4153.5L4507.1 2442.2 4153.5 2795.8 3800 2442.2H3092.9V2795.8" fill="#b2c4e3"/>
<path transform="matrix(.1,0,0,-.1,0,792)" stroke-width="15" stroke-linecap="butt" stroke-miterlimit="10" stroke-linejoin="miter" fill="none" stroke="#000000" d="M2739.3 2795.8V2088.7L3092.9 1735.1 3446.4 2088.7H4153.5L4507.1 2442.2 4153.5 2795.8 3800 2442.2H3092.9V2795.8Z"/>
<path transform="matrix(.1,0,0,-.1,0,792)" d="M4153.5 2795.8 4507.1 2442.2 4860.6 2795.8 4507.1 3149.3Z" fill="#7a008c"/>
<path transform="matrix(.1,0,0,-.1,0,792)" stroke-width="15" stroke-linecap="butt" stroke-miterlimit="10" stroke-linejoin="miter" fill="none" stroke="#000000" d="M4153.5 2795.8 4507.1 2442.2 4860.6 2795.8 4507.1 3149.3Z"/>
<path transform="matrix(.1,0,0,-.1,0,792)" d="M4153.5 3502.9 4507.1 3149.3 4860.6 3502.9H5567.7L5921.3 3856.4 5567.7 4210 5214.2 3856.4H4507.1V4210H4153.5" fill="#c930cf"/>
<path transform="matrix(.1,0,0,-.1,0,792)" stroke-width="15" stroke-linecap="butt" stroke-miterlimit="10" stroke-linejoin="miter" fill="none" stroke="#000000" d="M4153.5 3502.9 4507.1 3149.3 4860.6 3502.9H5567.7L5921.3 3856.4 5567.7 4210 5214.2 3856.4H4507.1V4210H4153.5Z"/>
<path transform="matrix(.1,0,0,-.1,0,792)" d="M4153.5 5624.2 4507.1 5977.8 4153.5 6331.3V7038.4H4507.1V7392H3800L3446.4 7038.4 3800 6684.9V5977.8" fill="#b2c4e3"/>
<path transform="matrix(.1,0,0,-.1,0,792)" stroke-width="15" stroke-linecap="butt" stroke-miterlimit="10" stroke-linejoin="miter" fill="none" stroke="#000000" d="M4153.5 5624.2 4507.1 5977.8 4153.5 6331.3V7038.4H4507.1V7392H3800L3446.4 7038.4 3800 6684.9V5977.8Z"/>
<path transform="matrix(.1,0,0,-.1,0,792)" d="M4153.5 5624.2 4507.1 5270.7 4860.6 5624.2 4507.1 5977.8Z" fill="#7a008c"/>
<path transform="matrix(.1,0,0,-.1,0,792)" stroke-width="15" stroke-linecap="butt" stroke-miterlimit="10" stroke-linejoin="miter" fill="none" stroke="#000000" d="M4153.5 5624.2 4507.1 5270.7 4860.6 5624.2 4507.1 5977.8Z"/>
<path transform="matrix(.1,0,0,-.1,0,792)" d="M1678.6 5977.8 1325.1 6331.3V7038.4H1678.6V7392H971.5L618 7038.4 971.5 6684.9V5977.8L1325.1 5624.2" fill="#b2c4e3"/>
<path transform="matrix(.1,0,0,-.1,0,792)" stroke-width="15" stroke-linecap="butt" stroke-miterlimit="10" stroke-linejoin="miter" fill="none" stroke="#000000" d="M1678.6 5977.8 1325.1 6331.3V7038.4H1678.6V7392H971.5L618 7038.4 971.5 6684.9V5977.8L1325.1 5624.2Z"/>
<path transform="matrix(.1,0,0,-.1,0,792)" d="M1678.6 5977.8 2032.2 6331.3H2739.3L3092.9 6684.9 2739.3 7038.4 2385.7 6684.9H1678.6V7038.4H1325.1V6331.3" fill="#c930cf"/>
<path transform="matrix(.1,0,0,-.1,0,792)" stroke-width="15" stroke-linecap="butt" stroke-miterlimit="10" stroke-linejoin="miter" fill="none" stroke="#000000" d="M1678.6 5977.8 2032.2 6331.3H2739.3L3092.9 6684.9 2739.3 7038.4 2385.7 6684.9H1678.6V7038.4H1325.1V6331.3Z"/>
<path transform="matrix(.1,0,0,-.1,0,792)" d="M1678.6 5270.7 1325.1 5624.2 971.5 5270.7H264.398V5624.2H-89.1016V4917.1L264.398 4563.6 618 4917.1H1325.1" fill="#b2c4e3"/>
<path transform="matrix(.1,0,0,-.1,0,792)" stroke-width="15" stroke-linecap="butt" stroke-miterlimit="10" stroke-linejoin="miter" fill="none" stroke="#000000" d="M1678.6 5270.7 1325.1 5624.2 971.5 5270.7H264.398V5624.2H-89.1016V4917.1L264.398 4563.6 618 4917.1H1325.1Z"/>
<path transform="matrix(.1,0,0,-.1,0,792)" d="M1678.6 4563.6H971.5L618 4210 971.5 3856.4V3149.3L1325.1 2795.8 1678.6 3149.3 1325.1 3502.9V4210H1678.6" fill="#b2c4e3"/>
<path transform="matrix(.1,0,0,-.1,0,792)" stroke-width="15" stroke-linecap="butt" stroke-miterlimit="10" stroke-linejoin="miter" fill="none" stroke="#000000" d="M1678.6 4563.6H971.5L618 4210 971.5 3856.4V3149.3L1325.1 2795.8 1678.6 3149.3 1325.1 3502.9V4210H1678.6Z"/>
<path transform="matrix(.1,0,0,-.1,0,792)" d="M1678.6 2442.2 1325.1 2088.7H618L264.398 1735.1 618 1381.6 971.5 1735.1H1678.6V1381.6H2032.2V2088.7" fill="#c930cf"/>
<path transform="matrix(.1,0,0,-.1,0,792)" stroke-width="15" stroke-linecap="butt" stroke-miterlimit="10" stroke-linejoin="miter" fill="none" stroke="#000000" d="M1678.6 2442.2 1325.1 2088.7H618L264.398 1735.1 618 1381.6 971.5 1735.1H1678.6V1381.6H2032.2V2088.7Z"/>
<path transform="matrix(.1,0,0,-.1,0,792)" d="M1678.6 2442.2 1325.1 2795.8 971.5 2442.2H264.398V2795.8H-89.1016V2088.7L264.398 1735.1 618 2088.7H1325.1" fill="#b2c4e3"/>
<path transform="matrix(.1,0,0,-.1,0,792)" stroke-width="15" stroke-linecap="butt" stroke-miterlimit="10" stroke-linejoin="miter" fill="none" stroke="#000000" d="M1678.6 2442.2 1325.1 2795.8 971.5 2442.2H264.398V2795.8H-89.1016V2088.7L264.398 1735.1 618 2088.7H1325.1Z"/>
<path transform="matrix(.1,0,0,-.1,0,792)" d="M4507.1 2442.2 4860.6 2088.7V1381.6H4507.1V1028H5214.2L5567.7 1381.6 5214.2 1735.1V2442.2L4860.6 2795.8" fill="#b2c4e3"/>
<path transform="matrix(.1,0,0,-.1,0,792)" stroke-width="15" stroke-linecap="butt" stroke-miterlimit="10" stroke-linejoin="miter" fill="none" stroke="#000000" d="M4507.1 2442.2 4860.6 2088.7V1381.6H4507.1V1028H5214.2L5567.7 1381.6 5214.2 1735.1V2442.2L4860.6 2795.8Z"/>
<path transform="matrix(.1,0,0,-.1,0,792)" d="M4507.1 2442.2 4153.5 2088.7H3446.4L3092.9 1735.1 3446.4 1381.6 3800 1735.1H4507.1V1381.6H4860.6V2088.7" fill="#c930cf"/>
<path transform="matrix(.1,0,0,-.1,0,792)" stroke-width="15" stroke-linecap="butt" stroke-miterlimit="10" stroke-linejoin="miter" fill="none" stroke="#000000" d="M4507.1 2442.2 4153.5 2088.7H3446.4L3092.9 1735.1 3446.4 1381.6 3800 1735.1H4507.1V1381.6H4860.6V2088.7Z"/>
<path transform="matrix(.1,0,0,-.1,0,792)" d="M4507.1 3149.3 4860.6 2795.8 5214.2 3149.3H5921.3V2795.8H6274.8V3502.9L5921.3 3856.4 5567.7 3502.9H4860.6" fill="#b2c4e3"/>
<path transform="matrix(.1,0,0,-.1,0,792)" stroke-width="15" stroke-linecap="butt" stroke-miterlimit="10" stroke-linejoin="miter" fill="none" stroke="#000000" d="M4507.1 3149.3 4860.6 2795.8 5214.2 3149.3H5921.3V2795.8H6274.8V3502.9L5921.3 3856.4 5567.7 3502.9H4860.6Z"/>
<path transform="matrix(.1,0,0,-.1,0,792)" d="M4507.1 3856.4H5214.2L5567.7 4210 5214.2 4563.6V5270.7L4860.6 5624.2 4507.1 5270.7 4860.6 4917.1V4210H4507.1" fill="#b2c4e3"/>
<path transform="matrix(.1,0,0,-.1,0,792)" stroke-width="15" stroke-linecap="butt" stroke-miterlimit="10" stroke-linejoin="miter" fill="none" stroke="#000000" d="M4507.1 3856.4H5214.2L5567.7 4210 5214.2 4563.6V5270.7L4860.6 5624.2 4507.1 5270.7 4860.6 4917.1V4210H4507.1Z"/>
<path transform="matrix(.1,0,0,-.1,0,792)" d="M4507.1 5977.8 4860.6 6331.3H5567.7L5921.3 6684.9 5567.7 7038.4 5214.2 6684.9H4507.1V7038.4H4153.5V6331.3" fill="#c930cf"/>
<path transform="matrix(.1,0,0,-.1,0,792)" stroke-width="15" stroke-linecap="butt" stroke-miterlimit="10" stroke-linejoin="miter" fill="none" stroke="#000000" d="M4507.1 5977.8 4860.6 6331.3H5567.7L5921.3 6684.9 5567.7 7038.4 5214.2 6684.9H4507.1V7038.4H4153.5V6331.3Z"/>
<path transform="matrix(.1,0,0,-.1,0,792)" d="M4507.1 5977.8 4860.6 5624.2 5214.2 5977.8H5921.3V5624.2H6274.8V6331.3L5921.3 6684.9 5567.7 6331.3H4860.6" fill="#b2c4e3"/>
<path transform="matrix(.1,0,0,-.1,0,792)" stroke-width="15" stroke-linecap="butt" stroke-miterlimit="10" stroke-linejoin="miter" fill="none" stroke="#000000" d="M4507.1 5977.8 4860.6 5624.2 5214.2 5977.8H5921.3V5624.2H6274.8V6331.3L5921.3 6684.9 5567.7 6331.3H4860.6Z"/>
<path transform="matrix(.1,0,0,-.1,0,792)" d="M1325.1 5624.2 971.5 5977.8V6684.9L618 7038.4 264.398 6684.9 618 6331.3V5624.2H264.398V5270.7H971.5" fill="#c930cf"/>
<path transform="matrix(.1,0,0,-.1,0,792)" stroke-width="15" stroke-linecap="butt" stroke-miterlimit="10" stroke-linejoin="miter" fill="none" stroke="#000000" d="M1325.1 5624.2 971.5 5977.8V6684.9L618 7038.4 264.398 6684.9 618 6331.3V5624.2H264.398V5270.7H971.5Z"/>
<path transform="matrix(.1,0,0,-.1,0,792)" d="M1325.1 2795.8 971.5 3149.3V3856.4L618 4210 264.398 3856.4 618 3502.9V2795.8H264.398V2442.2H971.5" fill="#c930cf"/>
<path transform="matrix(.1,0,0,-.1,0,792)" stroke-width="15" stroke-linecap="butt" stroke-miterlimit="10" stroke-linejoin="miter" fill="none" stroke="#000000" d="M1325.1 2795.8 971.5 3149.3V3856.4L618 4210 264.398 3856.4 618 3502.9V2795.8H264.398V2442.2H971.5Z"/>
<path transform="matrix(.1,0,0,-.1,0,792)" d="M1678.6 1735.1H971.5L618 1381.6 971.5 1028V320.898L1325.1-32.6016 1678.6 320.898 1325.1 674.5V1381.6H1678.6" fill="#b2c4e3"/>
<path transform="matrix(.1,0,0,-.1,0,792)" stroke-width="15" stroke-linecap="butt" stroke-miterlimit="10" stroke-linejoin="miter" fill="none" stroke="#000000" d="M1678.6 1735.1H971.5L618 1381.6 971.5 1028V320.898L1325.1-32.6016 1678.6 320.898 1325.1 674.5V1381.6H1678.6Z"/>
<path transform="matrix(.1,0,0,-.1,0,792)" d="M3092.9 1735.1 2739.3 1381.6 3092.9 1028 3446.4 1381.6Z" fill="#bf36c4"/>
<path transform="matrix(.1,0,0,-.1,0,792)" stroke-width="15" stroke-linecap="butt" stroke-miterlimit="10" stroke-linejoin="miter" fill="none" stroke="#000000" d="M3092.9 1735.1 2739.3 1381.6 3092.9 1028 3446.4 1381.6Z"/>
<path transform="matrix(.1,0,0,-.1,0,792)" d="M3800 1735.1 3446.4 1381.6 3800 1028V320.898L4153.5-32.6016 4507.1 320.898 4153.5 674.5V1381.6H4507.1V1735.1" fill="#b2c4e3"/>
<path transform="matrix(.1,0,0,-.1,0,792)" stroke-width="15" stroke-linecap="butt" stroke-miterlimit="10" stroke-linejoin="miter" fill="none" stroke="#000000" d="M3800 1735.1 3446.4 1381.6 3800 1028V320.898L4153.5-32.6016 4507.1 320.898 4153.5 674.5V1381.6H4507.1V1735.1Z"/>
<path transform="matrix(.1,0,0,-.1,0,792)" d="M4507.1 6684.9H5214.2L5567.7 7038.4 5214.2 7392V8099.1L4860.6 8452.6 4507.1 8099.1 4860.6 7745.5V7038.4H4507.1" fill="#b2c4e3"/>
<path transform="matrix(.1,0,0,-.1,0,792)" stroke-width="15" stroke-linecap="butt" stroke-miterlimit="10" stroke-linejoin="miter" fill="none" stroke="#000000" d="M4507.1 6684.9H5214.2L5567.7 7038.4 5214.2 7392V8099.1L4860.6 8452.6 4507.1 8099.1 4860.6 7745.5V7038.4H4507.1Z"/>
<path transform="matrix(.1,0,0,-.1,0,792)" d="M3092.9 6684.9 3446.4 7038.4 3092.9 7392 2739.3 7038.4Z" fill="#bf36c4"/>
<path transform="matrix(.1,0,0,-.1,0,792)" stroke-width="15" stroke-linecap="butt" stroke-miterlimit="10" stroke-linejoin="miter" fill="none" stroke="#000000" d="M3092.9 6684.9 3446.4 7038.4 3092.9 7392 2739.3 7038.4Z"/>
<path transform="matrix(.1,0,0,-.1,0,792)" d="M2385.7 6684.9 2739.3 7038.4 2385.7 7392V8099.1L2032.2 8452.6 1678.6 8099.1 2032.2 7745.5V7038.4H1678.6V6684.9" fill="#b2c4e3"/>
<path transform="matrix(.1,0,0,-.1,0,792)" stroke-width="15" stroke-linecap="butt" stroke-miterlimit="10" stroke-linejoin="miter" fill="none" stroke="#000000" d="M2385.7 6684.9 2739.3 7038.4 2385.7 7392V8099.1L2032.2 8452.6 1678.6 8099.1 2032.2 7745.5V7038.4H1678.6V6684.9Z"/>
<path transform="matrix(.1,0,0,-.1,0,792)" d="M4860.6 2795.8 5214.2 2442.2V1735.1L5567.7 1381.6 5921.3 1735.1 5567.7 2088.7V2795.8H5921.3V3149.3H5214.2" fill="#c930cf"/>
<path transform="matrix(.1,0,0,-.1,0,792)" stroke-width="15" stroke-linecap="butt" stroke-miterlimit="10" stroke-linejoin="miter" fill="none" stroke="#000000" d="M4860.6 2795.8 5214.2 2442.2V1735.1L5567.7 1381.6 5921.3 1735.1 5567.7 2088.7V2795.8H5921.3V3149.3H5214.2Z"/>
<path transform="matrix(.1,0,0,-.1,0,792)" d="M4860.6 5624.2 5214.2 5270.7V4563.6L5567.7 4210 5921.3 4563.6 5567.7 4917.1V5624.2H5921.3V5977.8H5214.2" fill="#c930cf"/>
<path transform="matrix(.1,0,0,-.1,0,792)" stroke-width="15" stroke-linecap="butt" stroke-miterlimit="10" stroke-linejoin="miter" fill="none" stroke="#000000" d="M4860.6 5624.2 5214.2 5270.7V4563.6L5567.7 4210 5921.3 4563.6 5567.7 4917.1V5624.2H5921.3V5977.8H5214.2Z"/>
<path transform="matrix(.1,0,0,-.1,0,792)" d="M4860.6 7038.4V7745.5L4507.1 8099.1 4153.5 7745.5H3446.4L3092.9 7392 3446.4 7038.4 3800 7392H4507.1V7038.4" fill="#c930cf"/>
<path transform="matrix(.1,0,0,-.1,0,792)" stroke-width="15" stroke-linecap="butt" stroke-miterlimit="10" stroke-linejoin="miter" fill="none" stroke="#000000" d="M4860.6 7038.4V7745.5L4507.1 8099.1 4153.5 7745.5H3446.4L3092.9 7392 3446.4 7038.4 3800 7392H4507.1V7038.4Z"/>
<path transform="matrix(.1,0,0,-.1,0,792)" d="M2739.3 7038.4 3092.9 7392 2739.3 7745.5V8452.6H3092.9V8806.2H2385.7L2032.2 8452.6 2385.7 8099.1V7392" fill="#c930cf"/>
<path transform="matrix(.1,0,0,-.1,0,792)" stroke-width="15" stroke-linecap="butt" stroke-miterlimit="10" stroke-linejoin="miter" fill="none" stroke="#000000" d="M2739.3 7038.4 3092.9 7392 2739.3 7745.5V8452.6H3092.9V8806.2H2385.7L2032.2 8452.6 2385.7 8099.1V7392Z"/>
<path transform="matrix(.1,0,0,-.1,0,792)" d="M2032.2 7038.4V7745.5L1678.6 8099.1 1325.1 7745.5H618L264.398 7392 618 7038.4 971.5 7392H1678.6V7038.4" fill="#c930cf"/>
<path transform="matrix(.1,0,0,-.1,0,792)" stroke-width="15" stroke-linecap="butt" stroke-miterlimit="10" stroke-linejoin="miter" fill="none" stroke="#000000" d="M2032.2 7038.4V7745.5L1678.6 8099.1 1325.1 7745.5H618L264.398 7392 618 7038.4 971.5 7392H1678.6V7038.4Z"/>
<path transform="matrix(.1,0,0,-.1,0,792)" d="M1325.1 1381.6V674.5L1678.6 320.898 2032.2 674.5H2739.3L3092.9 1028 2739.3 1381.6 2385.7 1028H1678.6V1381.6" fill="#c930cf"/>
<path transform="matrix(.1,0,0,-.1,0,792)" stroke-width="15" stroke-linecap="butt" stroke-miterlimit="10" stroke-linejoin="miter" fill="none" stroke="#000000" d="M1325.1 1381.6V674.5L1678.6 320.898 2032.2 674.5H2739.3L3092.9 1028 2739.3 1381.6 2385.7 1028H1678.6V1381.6Z"/>
<path transform="matrix(.1,0,0,-.1,0,792)" d="M3446.4 1381.6 3092.9 1028 3446.4 674.5V-32.6016H3092.9V-386.199H3800L4153.5-32.6016 3800 320.898V1028" fill="#c930cf"/>
<path transform="matrix(.1,0,0,-.1,0,792)" stroke-width="15" stroke-linecap="butt" stroke-miterlimit="10" stroke-linejoin="miter" fill="none" stroke="#000000" d="M3446.4 1381.6 3092.9 1028 3446.4 674.5V-32.6016H3092.9V-386.199H3800L4153.5-32.6016 3800 320.898V1028Z"/>
<path transform="matrix(.1,0,0,-.1,0,792)" d="M4153.5 1381.6V674.5L4507.1 320.898 4860.6 674.5H5567.7L5921.3 1028 5567.7 1381.6 5214.2 1028H4507.1V1381.6" fill="#c930cf"/>
<path transform="matrix(.1,0,0,-.1,0,792)" stroke-width="15" stroke-linecap="butt" stroke-miterlimit="10" stroke-linejoin="miter" fill="none" stroke="#000000" d="M4153.5 1381.6V674.5L4507.1 320.898 4860.6 674.5H5567.7L5921.3 1028 5567.7 1381.6 5214.2 1028H4507.1V1381.6Z"/>
<path transform="matrix(.1,0,0,-.1,0,792)" d="M5214.2 7392 5567.7 7038.4 5921.3 7392 5567.7 7745.5V8452.6H5921.3V8806.2H5214.2L4860.6 8452.6 5214.2 8099.1" fill="#c930cf"/>
<path transform="matrix(.1,0,0,-.1,0,792)" stroke-width="15" stroke-linecap="butt" stroke-miterlimit="10" stroke-linejoin="miter" fill="none" stroke="#000000" d="M5214.2 7392 5567.7 7038.4 5921.3 7392 5567.7 7745.5V8452.6H5921.3V8806.2H5214.2L4860.6 8452.6 5214.2 8099.1Z"/>
<path transform="matrix(.1,0,0,-.1,0,792)" d="M3092.9 7392 3446.4 7745.5H4153.5L4507.1 8099.1 4153.5 8452.6 3800 8099.1H3092.9V8452.6H2739.3V7745.5" fill="#b2c4e3"/>
<path transform="matrix(.1,0,0,-.1,0,792)" stroke-width="15" stroke-linecap="butt" stroke-miterlimit="10" stroke-linejoin="miter" fill="none" stroke="#000000" d="M3092.9 7392 3446.4 7745.5H4153.5L4507.1 8099.1 4153.5 8452.6 3800 8099.1H3092.9V8452.6H2739.3V7745.5Z"/>
<path transform="matrix(.1,0,0,-.1,0,792)" d="M971.5 1028 618 1381.6 264.398 1028 618 674.5V-32.6016H264.398V-386.199H971.5L1325.1-32.6016 971.5 320.898" fill="#c930cf"/>
<path transform="matrix(.1,0,0,-.1,0,792)" stroke-width="15" stroke-linecap="butt" stroke-miterlimit="10" stroke-linejoin="miter" fill="none" stroke="#000000" d="M971.5 1028 618 1381.6 264.398 1028 618 674.5V-32.6016H264.398V-386.199H971.5L1325.1-32.6016 971.5 320.898Z"/>
<path transform="matrix(.1,0,0,-.1,0,792)" d="M3092.9 1028 2739.3 674.5H2032.2L1678.6 320.898 2032.2-32.6016 2385.7 320.898H3092.9V-32.6016H3446.4V674.5" fill="#b2c4e3"/>
<path transform="matrix(.1,0,0,-.1,0,792)" stroke-width="15" stroke-linecap="butt" stroke-miterlimit="10" stroke-linejoin="miter" fill="none" stroke="#000000" d="M3092.9 1028 2739.3 674.5H2032.2L1678.6 320.898 2032.2-32.6016 2385.7 320.898H3092.9V-32.6016H3446.4V674.5Z"/>
<path transform="matrix(.1,0,0,-.1,0,792)" d="M618 7038.4 264.398 7392-89.1016 7038.4 264.398 6684.9Z" fill="#bf36c4"/>
<path transform="matrix(.1,0,0,-.1,0,792)" stroke-width="15" stroke-linecap="butt" stroke-miterlimit="10" stroke-linejoin="miter" fill="none" stroke="#000000" d="M618 7038.4 264.398 7392-89.1016 7038.4 264.398 6684.9Z"/>
<path transform="matrix(.1,0,0,-.1,0,792)" d="M618 6331.3 264.398 6684.9-89.1016 6331.3H-796.199L-1149.8 5977.8-796.199 5624.2-442.699 5977.8H264.398V5624.2H618" fill="#b2c4e3"/>
<path transform="matrix(.1,0,0,-.1,0,792)" stroke-width="15" stroke-linecap="butt" stroke-miterlimit="10" stroke-linejoin="miter" fill="none" stroke="#000000" d="M618 6331.3 264.398 6684.9-89.1016 6331.3H-796.199L-1149.8 5977.8-796.199 5624.2-442.699 5977.8H264.398V5624.2H618Z"/>
<path transform="matrix(.1,0,0,-.1,0,792)" d="M618 4210 264.398 4563.6-89.1016 4210 264.398 3856.4Z" fill="#bf36c4"/>
<path transform="matrix(.1,0,0,-.1,0,792)" stroke-width="15" stroke-linecap="butt" stroke-miterlimit="10" stroke-linejoin="miter" fill="none" stroke="#000000" d="M618 4210 264.398 4563.6-89.1016 4210 264.398 3856.4Z"/>
<path transform="matrix(.1,0,0,-.1,0,792)" d="M618 3502.9 264.398 3856.4-89.1016 3502.9H-796.199L-1149.8 3149.3-796.199 2795.8-442.699 3149.3H264.398V2795.8H618" fill="#b2c4e3"/>
<path transform="matrix(.1,0,0,-.1,0,792)" stroke-width="15" stroke-linecap="butt" stroke-miterlimit="10" stroke-linejoin="miter" fill="none" stroke="#000000" d="M618 3502.9 264.398 3856.4-89.1016 3502.9H-796.199L-1149.8 3149.3-796.199 2795.8-442.699 3149.3H264.398V2795.8H618Z"/>
<path transform="matrix(.1,0,0,-.1,0,792)" d="M618 1381.6 264.398 1735.1-89.1016 1381.6 264.398 1028Z" fill="#bf36c4"/>
<path transform="matrix(.1,0,0,-.1,0,792)" stroke-width="15" stroke-linecap="butt" stroke-miterlimit="10" stroke-linejoin="miter" fill="none" stroke="#000000" d="M618 1381.6 264.398 1735.1-89.1016 1381.6 264.398 1028Z"/>
<path transform="matrix(.1,0,0,-.1,0,792)" d="M618 674.5 264.398 1028-89.1016 674.5H-796.199L-1149.8 320.898-796.199-32.6016-442.699 320.898H264.398V-32.6016H618" fill="#b2c4e3"/>
<path transform="matrix(.1,0,0,-.1,0,792)" stroke-width="15" stroke-linecap="butt" stroke-miterlimit="10" stroke-linejoin="miter" fill="none" stroke="#000000" d="M618 674.5 264.398 1028-89.1016 674.5H-796.199L-1149.8 320.898-796.199-32.6016-442.699 320.898H264.398V-32.6016H618Z"/>
<path transform="matrix(.1,0,0,-.1,0,792)" d="M4860.6 674.5 4507.1 320.898 4860.6-32.6016 5214.2 320.898H5921.3V-32.6016H6274.8V674.5L5921.3 1028 5567.7 674.5" fill="#b2c4e3"/>
<path transform="matrix(.1,0,0,-.1,0,792)" stroke-width="15" stroke-linecap="butt" stroke-miterlimit="10" stroke-linejoin="miter" fill="none" stroke="#000000" d="M4860.6 674.5 4507.1 320.898 4860.6-32.6016 5214.2 320.898H5921.3V-32.6016H6274.8V674.5L5921.3 1028 5567.7 674.5Z"/>
<path transform="matrix(.1,0,0,-.1,0,792)" d="M1325.1 7745.5 1678.6 8099.1 1325.1 8452.6 971.5 8099.1H264.398V8452.6H-89.1016V7745.5L264.398 7392 618 7745.5" fill="#b2c4e3"/>
<path transform="matrix(.1,0,0,-.1,0,792)" stroke-width="15" stroke-linecap="butt" stroke-miterlimit="10" stroke-linejoin="miter" fill="none" stroke="#000000" d="M1325.1 7745.5 1678.6 8099.1 1325.1 8452.6 971.5 8099.1H264.398V8452.6H-89.1016V7745.5L264.398 7392 618 7745.5Z"/>
<path transform="matrix(.1,0,0,-.1,0,792)" d="M5567.7 1381.6 5921.3 1028 6274.8 1381.6 5921.3 1735.1Z" fill="#bf36c4"/>
<path transform="matrix(.1,0,0,-.1,0,792)" stroke-width="15" stroke-linecap="butt" stroke-miterlimit="10" stroke-linejoin="miter" fill="none" stroke="#000000" d="M5567.7 1381.6 5921.3 1028 6274.8 1381.6 5921.3 1735.1Z"/>
<path transform="matrix(.1,0,0,-.1,0,792)" d="M5567.7 2088.7 5921.3 1735.1 6274.8 2088.7H6981.9L7335.5 2442.2 6981.9 2795.8 6628.4 2442.2H5921.3V2795.8H5567.7" fill="#b2c4e3"/>
<path transform="matrix(.1,0,0,-.1,0,792)" stroke-width="15" stroke-linecap="butt" stroke-miterlimit="10" stroke-linejoin="miter" fill="none" stroke="#000000" d="M5567.7 2088.7 5921.3 1735.1 6274.8 2088.7H6981.9L7335.5 2442.2 6981.9 2795.8 6628.4 2442.2H5921.3V2795.8H5567.7Z"/>
<path transform="matrix(.1,0,0,-.1,0,792)" d="M5567.7 4210 5921.3 3856.4 6274.8 4210 5921.3 4563.6Z" fill="#bf36c4"/>
<path transform="matrix(.1,0,0,-.1,0,792)" stroke-width="15" stroke-linecap="butt" stroke-miterlimit="10" stroke-linejoin="miter" fill="none" stroke="#000000" d="M5567.7 4210 5921.3 3856.4 6274.8 4210 5921.3 4563.6Z"/>
<path transform="matrix(.1,0,0,-.1,0,792)" d="M5567.7 4917.1 5921.3 4563.6 6274.8 4917.1H6981.9L7335.5 5270.7 6981.9 5624.2 6628.4 5270.7H5921.3V5624.2H5567.7" fill="#b2c4e3"/>
<path transform="matrix(.1,0,0,-.1,0,792)" stroke-width="15" stroke-linecap="butt" stroke-miterlimit="10" stroke-linejoin="miter" fill="none" stroke="#000000" d="M5567.7 4917.1 5921.3 4563.6 6274.8 4917.1H6981.9L7335.5 5270.7 6981.9 5624.2 6628.4 5270.7H5921.3V5624.2H5567.7Z"/>
<path transform="matrix(.1,0,0,-.1,0,792)" d="M5567.7 7038.4 5921.3 6684.9 6274.8 7038.4 5921.3 7392Z" fill="#bf36c4"/>
<path transform="matrix(.1,0,0,-.1,0,792)" stroke-width="15" stroke-linecap="butt" stroke-miterlimit="10" stroke-linejoin="miter" fill="none" stroke="#000000" d="M5567.7 7038.4 5921.3 6684.9 6274.8 7038.4 5921.3 7392Z"/>
<path transform="matrix(.1,0,0,-.1,0,792)" d="M5567.7 7745.5 5921.3 7392 6274.8 7745.5H6981.9L7335.5 8099.1 6981.9 8452.6 6628.4 8099.1H5921.3V8452.6H5567.7" fill="#b2c4e3"/>
<path transform="matrix(.1,0,0,-.1,0,792)" stroke-width="15" stroke-linecap="butt" stroke-miterlimit="10" stroke-linejoin="miter" fill="none" stroke="#000000" d="M5567.7 7745.5 5921.3 7392 6274.8 7745.5H6981.9L7335.5 8099.1 6981.9 8452.6 6628.4 8099.1H5921.3V8452.6H5567.7Z"/>
<path transform="matrix(.1,0,0,-.1,0,792)" d="M264.398 7392-89.1016 7745.5V8452.6H264.398V8806.2H-442.699L-796.199 8452.6-442.699 8099.1V7392L-89.1016 7038.4" fill="#c930cf"/>
<path transform="matrix(.1,0,0,-.1,0,792)" stroke-width="15" stroke-linecap="butt" stroke-miterlimit="10" stroke-linejoin="miter" fill="none" stroke="#000000" d="M264.398 7392-89.1016 7745.5V8452.6H264.398V8806.2H-442.699L-796.199 8452.6-442.699 8099.1V7392L-89.1016 7038.4Z"/>
<path transform="matrix(.1,0,0,-.1,0,792)" d="M264.398 6684.9-89.1016 7038.4-442.699 6684.9H-1149.8V7038.4H-1503.3V6331.3L-1149.8 5977.8-796.199 6331.3H-89.1016" fill="#c930cf"/>
<path transform="matrix(.1,0,0,-.1,0,792)" stroke-width="15" stroke-linecap="butt" stroke-miterlimit="10" stroke-linejoin="miter" fill="none" stroke="#000000" d="M264.398 6684.9-89.1016 7038.4-442.699 6684.9H-1149.8V7038.4H-1503.3V6331.3L-1149.8 5977.8-796.199 6331.3H-89.1016Z"/>
<path transform="matrix(.1,0,0,-.1,0,792)" d="M264.398 5977.8H-442.699L-796.199 5624.2-442.699 5270.7V4563.6L-89.1016 4210 264.398 4563.6-89.1016 4917.1V5624.2H264.398" fill="#c930cf"/>
<path transform="matrix(.1,0,0,-.1,0,792)" stroke-width="15" stroke-linecap="butt" stroke-miterlimit="10" stroke-linejoin="miter" fill="none" stroke="#000000" d="M264.398 5977.8H-442.699L-796.199 5624.2-442.699 5270.7V4563.6L-89.1016 4210 264.398 4563.6-89.1016 4917.1V5624.2H264.398Z"/>
<path transform="matrix(.1,0,0,-.1,0,792)" d="M264.398 3856.4-89.1016 4210-442.699 3856.4H-1149.8V4210H-1503.3V3502.9L-1149.8 3149.3-796.199 3502.9H-89.1016" fill="#c930cf"/>
<path transform="matrix(.1,0,0,-.1,0,792)" stroke-width="15" stroke-linecap="butt" stroke-miterlimit="10" stroke-linejoin="miter" fill="none" stroke="#000000" d="M264.398 3856.4-89.1016 4210-442.699 3856.4H-1149.8V4210H-1503.3V3502.9L-1149.8 3149.3-796.199 3502.9H-89.1016Z"/>
<path transform="matrix(.1,0,0,-.1,0,792)" d="M264.398 3149.3H-442.699L-796.199 2795.8-442.699 2442.2V1735.1L-89.1016 1381.6 264.398 1735.1-89.1016 2088.7V2795.8H264.398" fill="#c930cf"/>
<path transform="matrix(.1,0,0,-.1,0,792)" stroke-width="15" stroke-linecap="butt" stroke-miterlimit="10" stroke-linejoin="miter" fill="none" stroke="#000000" d="M264.398 3149.3H-442.699L-796.199 2795.8-442.699 2442.2V1735.1L-89.1016 1381.6 264.398 1735.1-89.1016 2088.7V2795.8H264.398Z"/>
<path transform="matrix(.1,0,0,-.1,0,792)" d="M264.398 1028-89.1016 1381.6-442.699 1028H-1149.8V1381.6H-1503.3V674.5L-1149.8 320.898-796.199 674.5H-89.1016" fill="#c930cf"/>
<path transform="matrix(.1,0,0,-.1,0,792)" stroke-width="15" stroke-linecap="butt" stroke-miterlimit="10" stroke-linejoin="miter" fill="none" stroke="#000000" d="M264.398 1028-89.1016 1381.6-442.699 1028H-1149.8V1381.6H-1503.3V674.5L-1149.8 320.898-796.199 674.5H-89.1016Z"/>
<path transform="matrix(.1,0,0,-.1,0,792)" d="M264.398 320.898H-442.699L-796.199-32.6016-442.699-386.199V-1093.3L-89.1016-1446.9 264.398-1093.3-89.1016-739.699V-32.6016H264.398" fill="#c930cf"/>
<path transform="matrix(.1,0,0,-.1,0,792)" stroke-width="15" stroke-linecap="butt" stroke-miterlimit="10" stroke-linejoin="miter" fill="none" stroke="#000000" d="M264.398 320.898H-442.699L-796.199-32.6016-442.699-386.199V-1093.3L-89.1016-1446.9 264.398-1093.3-89.1016-739.699V-32.6016H264.398Z"/>
<path transform="matrix(.1,0,0,-.1,0,792)" d="M1678.6 320.898 1325.1-32.6016 1678.6-386.199 2032.2-32.6016Z" fill="#7a008c"/>
<path transform="matrix(.1,0,0,-.1,0,792)" stroke-width="15" stroke-linecap="butt" stroke-miterlimit="10" stroke-linejoin="miter" fill="none" stroke="#000000" d="M1678.6 320.898 1325.1-32.6016 1678.6-386.199 2032.2-32.6016Z"/>
<path transform="matrix(.1,0,0,-.1,0,792)" d="M2385.7 320.898 2032.2-32.6016 2385.7-386.199V-1093.3L2739.3-1446.9 3092.9-1093.3 2739.3-739.699V-32.6016H3092.9V320.898" fill="#c930cf"/>
<path transform="matrix(.1,0,0,-.1,0,792)" stroke-width="15" stroke-linecap="butt" stroke-miterlimit="10" stroke-linejoin="miter" fill="none" stroke="#000000" d="M2385.7 320.898 2032.2-32.6016 2385.7-386.199V-1093.3L2739.3-1446.9 3092.9-1093.3 2739.3-739.699V-32.6016H3092.9V320.898Z"/>
<path transform="matrix(.1,0,0,-.1,0,792)" d="M4507.1 320.898 4153.5-32.6016 4507.1-386.199 4860.6-32.6016Z" fill="#7a008c"/>
<path transform="matrix(.1,0,0,-.1,0,792)" stroke-width="15" stroke-linecap="butt" stroke-miterlimit="10" stroke-linejoin="miter" fill="none" stroke="#000000" d="M4507.1 320.898 4153.5-32.6016 4507.1-386.199 4860.6-32.6016Z"/>
<path transform="matrix(.1,0,0,-.1,0,792)" d="M5214.2 320.898 4860.6-32.6016 5214.2-386.199V-1093.3L5567.7-1446.9 5921.3-1093.3 5567.7-739.699V-32.6016H5921.3V320.898" fill="#c930cf"/>
<path transform="matrix(.1,0,0,-.1,0,792)" stroke-width="15" stroke-linecap="butt" stroke-miterlimit="10" stroke-linejoin="miter" fill="none" stroke="#000000" d="M5214.2 320.898 4860.6-32.6016 5214.2-386.199V-1093.3L5567.7-1446.9 5921.3-1093.3 5567.7-739.699V-32.6016H5921.3V320.898Z"/>
<path transform="matrix(.1,0,0,-.1,0,792)" d="M5921.3 1028 6274.8 674.5V-32.6016H5921.3V-386.199H6628.4L6981.9-32.6016 6628.4 320.898V1028L6274.8 1381.6" fill="#c930cf"/>
<path transform="matrix(.1,0,0,-.1,0,792)" stroke-width="15" stroke-linecap="butt" stroke-miterlimit="10" stroke-linejoin="miter" fill="none" stroke="#000000" d="M5921.3 1028 6274.8 674.5V-32.6016H5921.3V-386.199H6628.4L6981.9-32.6016 6628.4 320.898V1028L6274.8 1381.6Z"/>
<path transform="matrix(.1,0,0,-.1,0,792)" d="M5921.3 1735.1 6274.8 1381.6 6628.4 1735.1H7335.5V1381.6H7689V2088.7L7335.5 2442.2 6981.9 2088.7H6274.8" fill="#c930cf"/>
<path transform="matrix(.1,0,0,-.1,0,792)" stroke-width="15" stroke-linecap="butt" stroke-miterlimit="10" stroke-linejoin="miter" fill="none" stroke="#000000" d="M5921.3 1735.1 6274.8 1381.6 6628.4 1735.1H7335.5V1381.6H7689V2088.7L7335.5 2442.2 6981.9 2088.7H6274.8Z"/>
<path transform="matrix(.1,0,0,-.1,0,792)" d="M5921.3 2442.2H6628.4L6981.9 2795.8 6628.4 3149.3V3856.4L6274.8 4210 5921.3 3856.4 6274.8 3502.9V2795.8H5921.3" fill="#c930cf"/>
<path transform="matrix(.1,0,0,-.1,0,792)" stroke-width="15" stroke-linecap="butt" stroke-miterlimit="10" stroke-linejoin="miter" fill="none" stroke="#000000" d="M5921.3 2442.2H6628.4L6981.9 2795.8 6628.4 3149.3V3856.4L6274.8 4210 5921.3 3856.4 6274.8 3502.9V2795.8H5921.3Z"/>
<path transform="matrix(.1,0,0,-.1,0,792)" d="M5921.3 4563.6 6274.8 4210 6628.4 4563.6H7335.5V4210H7689V4917.1L7335.5 5270.7 6981.9 4917.1H6274.8" fill="#c930cf"/>
<path transform="matrix(.1,0,0,-.1,0,792)" stroke-width="15" stroke-linecap="butt" stroke-miterlimit="10" stroke-linejoin="miter" fill="none" stroke="#000000" d="M5921.3 4563.6 6274.8 4210 6628.4 4563.6H7335.5V4210H7689V4917.1L7335.5 5270.7 6981.9 4917.1H6274.8Z"/>
<path transform="matrix(.1,0,0,-.1,0,792)" d="M5921.3 5270.7H6628.4L6981.9 5624.2 6628.4 5977.8V6684.9L6274.8 7038.4 5921.3 6684.9 6274.8 6331.3V5624.2H5921.3" fill="#c930cf"/>
<path transform="matrix(.1,0,0,-.1,0,792)" stroke-width="15" stroke-linecap="butt" stroke-miterlimit="10" stroke-linejoin="miter" fill="none" stroke="#000000" d="M5921.3 5270.7H6628.4L6981.9 5624.2 6628.4 5977.8V6684.9L6274.8 7038.4 5921.3 6684.9 6274.8 6331.3V5624.2H5921.3Z"/>
<path transform="matrix(.1,0,0,-.1,0,792)" d="M5921.3 7392 6274.8 7038.4 6628.4 7392H7335.5V7038.4H7689V7745.5L7335.5 8099.1 6981.9 7745.5H6274.8" fill="#c930cf"/>
<path transform="matrix(.1,0,0,-.1,0,792)" stroke-width="15" stroke-linecap="butt" stroke-miterlimit="10" stroke-linejoin="miter" fill="none" stroke="#000000" d="M5921.3 7392 6274.8 7038.4 6628.4 7392H7335.5V7038.4H7689V7745.5L7335.5 8099.1 6981.9 7745.5H6274.8Z"/>
</svg>
