<svg xmlns="http://www.w3.org/2000/svg" xmlns:xlink="http://www.w3.org/1999/xlink" xmlns:inkscape="http://www.inkscape.org/namespaces/inkscape" version="1.1" width="612" height="792" viewBox="0 0 612 792">
<path transform="matrix(.1,0,0,-.1,0,792)" d="M3729.2 4210 3163.6 4775.7 2597.9 4210 3163.6 3644.3Z" fill="#451f94"/>
<path transform="matrix(.1,0,0,-.1,0,792)" stroke-width="15" stroke-linecap="butt" stroke-miterlimit="10" stroke-linejoin="miter" fill="none" stroke="#000000" d="M3729.2 4210 3163.6 4775.7 2597.9 4210 3163.6 3644.3Z"/>
<path transform="matrix(.1,0,0,-.1,0,792)" d="M2597.9 4210H1797.9L1232.2 3644.3V2044.3L1797.9 1478.6H2597.9L3163.6 2044.3V3644.3" fill="#c49636"/>
<path transform="matrix(.1,0,0,-.1,0,792)" stroke-width="15" stroke-linecap="butt" stroke-miterlimit="10" stroke-linejoin="miter" fill="none" stroke="#000000" d="M2597.9 4210H1797.9L1232.2 3644.3V2044.3L1797.9 1478.6H2597.9L3163.6 2044.3V3644.3Z"/>
<path transform="matrix(.1,0,0,-.1,0,792)" d="M2597.9 4210 3163.6 4775.7V6375.7L2597.9 6941.4H1797.9L1232.2 6375.7V4775.7L1797.9 4210" fill="#45d159"/>
<path transform="matrix(.1,0,0,-.1,0,792)" stroke-width="15" stroke-linecap="butt" stroke-miterlimit="10" stroke-linejoin="miter" fill="none" stroke="#000000" d="M2597.9 4210 3163.6 4775.7V6375.7L2597.9 6941.4H1797.9L1232.2 6375.7V4775.7L1797.9 4210Z"/>
<path transform="matrix(.1,0,0,-.1,0,792)" d="M3163.6 4775.7 3729.2 4210H4529.2L5094.9 4775.7V6375.7L4529.2 6941.4H3729.2L3163.6 6375.7" fill="#c49636"/>
<path transform="matrix(.1,0,0,-.1,0,792)" stroke-width="15" stroke-linecap="butt" stroke-miterlimit="10" stroke-linejoin="miter" fill="none" stroke="#000000" d="M3163.6 4775.7 3729.2 4210H4529.2L5094.9 4775.7V6375.7L4529.2 6941.4H3729.2L3163.6 6375.7Z"/>
<path transform="matrix(.1,0,0,-.1,0,792)" d="M3163.6 3644.3V2044.3L3729.2 1478.6H4529.2L5094.9 2044.3V3644.3L4529.2 4210H3729.2" fill="#45d159"/>
<path transform="matrix(.1,0,0,-.1,0,792)" stroke-width="15" stroke-linecap="butt" stroke-miterlimit="10" stroke-linejoin="miter" fill="none" stroke="#000000" d="M3163.6 3644.3V2044.3L3729.2 1478.6H4529.2L5094.9 2044.3V3644.3L4529.2 4210H3729.2Z"/>
<path transform="matrix(.1,0,0,-.1,0,792)" d="M1797.9 4210 1232.2 4775.7 666.5 4210 1232.2 3644.3Z" fill="#6340c9"/>
<path transform="matrix(.1,0,0,-.1,0,792)" stroke-width="15" stroke-linecap="butt" stroke-miterlimit="10" stroke-linejoin="miter" fill="none" stroke="#000000" d="M1797.9 4210 1232.2 4775.7 666.5 4210 1232.2 3644.3Z"/>
<path transform="matrix(.1,0,0,-.1,0,792)" d="M4529.2 4210 5094.9 3644.3 5660.6 4210 5094.9 4775.7Z" fill="#6340c9"/>
<path transform="matrix(.1,0,0,-.1,0,792)" stroke-width="15" stroke-linecap="butt" stroke-miterlimit="10" stroke-linejoin="miter" fill="none" stroke="#000000" d="M4529.2 4210 5094.9 3644.3 5660.6 4210 5094.9 4775.7Z"/>
<path transform="matrix(.1,0,0,-.1,0,792)" d="M3163.6 6375.7 3729.2 6941.4 3163.6 7507.1 2597.9 6941.4Z" fill="#6340c9"/>
<path transform="matrix(.1,0,0,-.1,0,792)" stroke-width="15" stroke-linecap="butt" stroke-miterlimit="10" stroke-linejoin="miter" fill="none" stroke="#000000" d="M3163.6 6375.7 3729.2 6941.4 3163.6 7507.1 2597.9 6941.4Z"/>
<path transform="matrix(.1,0,0,-.1,0,792)" d="M3163.6 2044.3 2597.9 1478.6 3163.6 912.898 3729.2 1478.6Z" fill="#6340c9"/>
<path transform="matrix(.1,0,0,-.1,0,792)" stroke-width="15" stroke-linecap="butt" stroke-miterlimit="10" stroke-linejoin="miter" fill="none" stroke="#000000" d="M3163.6 2044.3 2597.9 1478.6 3163.6 912.898 3729.2 1478.6Z"/>
<path transform="matrix(.1,0,0,-.1,0,792)" d="M1232.2 6375.7 666.5 6941.4H-133.5L-699.199 6375.7V4775.7L-133.5 4210H666.5L1232.2 4775.7" fill="#c49636"/>
<path transform="matrix(.1,0,0,-.1,0,792)" stroke-width="15" stroke-linecap="butt" stroke-miterlimit="10" stroke-linejoin="miter" fill="none" stroke="#000000" d="M1232.2 6375.7 666.5 6941.4H-133.5L-699.199 6375.7V4775.7L-133.5 4210H666.5L1232.2 4775.7Z"/>
<path transform="matrix(.1,0,0,-.1,0,792)" d="M1232.2 6375.7 1797.9 6941.4 1232.2 7507.1 666.5 6941.4Z" fill="#451f94"/>
<path transform="matrix(.1,0,0,-.1,0,792)" stroke-width="15" stroke-linecap="butt" stroke-miterlimit="10" stroke-linejoin="miter" fill="none" stroke="#000000" d="M1232.2 6375.7 1797.9 6941.4 1232.2 7507.1 666.5 6941.4Z"/>
<path transform="matrix(.1,0,0,-.1,0,792)" d="M1232.2 3644.3 666.5 4210H-133.5L-699.199 3644.3V2044.3L-133.5 1478.6H666.5L1232.2 2044.3" fill="#45d159"/>
<path transform="matrix(.1,0,0,-.1,0,792)" stroke-width="15" stroke-linecap="butt" stroke-miterlimit="10" stroke-linejoin="miter" fill="none" stroke="#000000" d="M1232.2 3644.3 666.5 4210H-133.5L-699.199 3644.3V2044.3L-133.5 1478.6H666.5L1232.2 2044.3Z"/>
<path transform="matrix(.1,0,0,-.1,0,792)" d="M1232.2 2044.3 666.5 1478.6 1232.2 912.898 1797.9 1478.6Z" fill="#451f94"/>
<path transform="matrix(.1,0,0,-.1,0,792)" stroke-width="15" stroke-linecap="butt" stroke-miterlimit="10" stroke-linejoin="miter" fill="none" stroke="#000000" d="M1232.2 2044.3 666.5 1478.6 1232.2 912.898 1797.9 1478.6Z"/>
<path transform="matrix(.1,0,0,-.1,0,792)" d="M1797.9 1478.6 1232.2 912.898V-687.102L1797.9-1252.7H2597.9L3163.6-687.102V912.898L2597.9 1478.6" fill="#45d159"/>
<path transform="matrix(.1,0,0,-.1,0,792)" stroke-width="15" stroke-linecap="butt" stroke-miterlimit="10" stroke-linejoin="miter" fill="none" stroke="#000000" d="M1797.9 1478.6 1232.2 912.898V-687.102L1797.9-1252.7H2597.9L3163.6-687.102V912.898L2597.9 1478.6Z"/>
<path transform="matrix(.1,0,0,-.1,0,792)" d="M3729.2 1478.6 3163.6 912.898V-687.102L3729.2-1252.7H4529.2L5094.9-687.102V912.898L4529.2 1478.6" fill="#c49636"/>
<path transform="matrix(.1,0,0,-.1,0,792)" stroke-width="15" stroke-linecap="butt" stroke-miterlimit="10" stroke-linejoin="miter" fill="none" stroke="#000000" d="M3729.2 1478.6 3163.6 912.898V-687.102L3729.2-1252.7H4529.2L5094.9-687.102V912.898L4529.2 1478.6Z"/>
<path transform="matrix(.1,0,0,-.1,0,792)" d="M4529.2 1478.6 5094.9 912.898 5660.6 1478.6 5094.9 2044.3Z" fill="#451f94"/>
<path transform="matrix(.1,0,0,-.1,0,792)" stroke-width="15" stroke-linecap="butt" stroke-miterlimit="10" stroke-linejoin="miter" fill="none" stroke="#000000" d="M4529.2 1478.6 5094.9 912.898 5660.6 1478.6 5094.9 2044.3Z"/>
<path transform="matrix(.1,0,0,-.1,0,792)" d="M4529.2 6941.4 5094.9 7507.1V9107.1L4529.2 9672.7H3729.2L3163.6 9107.1V7507.1L3729.2 6941.4" fill="#45d159"/>
<path transform="matrix(.1,0,0,-.1,0,792)" stroke-width="15" stroke-linecap="butt" stroke-miterlimit="10" stroke-linejoin="miter" fill="none" stroke="#000000" d="M4529.2 6941.4 5094.9 7507.1V9107.1L4529.2 9672.7H3729.2L3163.6 9107.1V7507.1L3729.2 6941.4Z"/>
<path transform="matrix(.1,0,0,-.1,0,792)" d="M4529.2 6941.4 5094.9 6375.7 5660.6 6941.4 5094.9 7507.1Z" fill="#451f94"/>
<path transform="matrix(.1,0,0,-.1,0,792)" stroke-width="15" stroke-linecap="butt" stroke-miterlimit="10" stroke-linejoin="miter" fill="none" stroke="#000000" d="M4529.2 6941.4 5094.9 6375.7 5660.6 6941.4 5094.9 7507.1Z"/>
<path transform="matrix(.1,0,0,-.1,0,792)" d="M2597.9 6941.4 3163.6 7507.1V9107.1L2597.9 9672.7H1797.9L1232.2 9107.1V7507.1L1797.9 6941.4" fill="#c49636"/>
<path transform="matrix(.1,0,0,-.1,0,792)" stroke-width="15" stroke-linecap="butt" stroke-miterlimit="10" stroke-linejoin="miter" fill="none" stroke="#000000" d="M2597.9 6941.4 3163.6 7507.1V9107.1L2597.9 9672.7H1797.9L1232.2 9107.1V7507.1L1797.9 6941.4Z"/>
<path transform="matrix(.1,0,0,-.1,0,792)" d="M5094.9 2044.3 5660.6 1478.6H6460.6L7026.3 2044.3V3644.3L6460.6 4210H5660.6L5094.9 3644.3" fill="#c49636"/>
<path transform="matrix(.1,0,0,-.1,0,792)" stroke-width="15" stroke-linecap="butt" stroke-miterlimit="10" stroke-linejoin="miter" fill="none" stroke="#000000" d="M5094.9 2044.3 5660.6 1478.6H6460.6L7026.3 2044.3V3644.3L6460.6 4210H5660.6L5094.9 3644.3Z"/>
<path transform="matrix(.1,0,0,-.1,0,792)" d="M5094.9 4775.7 5660.6 4210H6460.6L7026.3 4775.7V6375.7L6460.6 6941.4H5660.6L5094.9 6375.7" fill="#45d159"/>
<path transform="matrix(.1,0,0,-.1,0,792)" stroke-width="15" stroke-linecap="butt" stroke-miterlimit="10" stroke-linejoin="miter" fill="none" stroke="#000000" d="M5094.9 4775.7 5660.6 4210H6460.6L7026.3 4775.7V6375.7L6460.6 6941.4H5660.6L5094.9 6375.7Z"/>
<path transform="matrix(.1,0,0,-.1,0,792)" d="M666.5 6941.4 1232.2 7507.1V9107.1L666.5 9672.7H-133.5L-699.199 9107.1V7507.1L-133.5 6941.4" fill="#45d159"/>
<path transform="matrix(.1,0,0,-.1,0,792)" stroke-width="15" stroke-linecap="butt" stroke-miterlimit="10" stroke-linejoin="miter" fill="none" stroke="#000000" d="M666.5 6941.4 1232.2 7507.1V9107.1L666.5 9672.7H-133.5L-699.199 9107.1V7507.1L-133.5 6941.4Z"/>
<path transform="matrix(.1,0,0,-.1,0,792)" d="M666.5 1478.6H-133.5L-699.199 912.898V-687.102L-133.5-1252.7H666.5L1232.2-687.102V912.898" fill="#c49636"/>
<path transform="matrix(.1,0,0,-.1,0,792)" stroke-width="15" stroke-linecap="butt" stroke-miterlimit="10" stroke-linejoin="miter" fill="none" stroke="#000000" d="M666.5 1478.6H-133.5L-699.199 912.898V-687.102L-133.5-1252.7H666.5L1232.2-687.102V912.898Z"/>
<path transform="matrix(.1,0,0,-.1,0,792)" d="M5094.9 912.898V-687.102L5660.6-1252.7H6460.6L7026.3-687.102V912.898L6460.6 1478.6H5660.6" fill="#45d159"/>
<path transform="matrix(.1,0,0,-.1,0,792)" stroke-width="15" stroke-linecap="butt" stroke-miterlimit="10" stroke-linejoin="miter" fill="none" stroke="#000000" d="M5094.9 912.898V-687.102L5660.6-1252.7H6460.6L7026.3-687.102V912.898L6460.6 1478.6H5660.6Z"/>
<path transform="matrix(.1,0,0,-.1,0,792)" d="M5094.9 7507.1 5660.6 6941.4H6460.6L7026.3 7507.1V9107.1L6460.6 9672.7H5660.6L5094.9 9107.1" fill="#c49636"/>
<path transform="matrix(.1,0,0,-.1,0,792)" stroke-width="15" stroke-linecap="butt" stroke-miterlimit="10" stroke-linejoin="miter" fill="none" stroke="#000000" d="M5094.9 7507.1 5660.6 6941.4H6460.6L7026.3 7507.1V9107.1L6460.6 9672.7H5660.6L5094.9 9107.1Z"/>
</svg>
