<svg xmlns="http://www.w3.org/2000/svg" xmlns:xlink="http://www.w3.org/1999/xlink" xmlns:inkscape="http://www.inkscape.org/namespaces/inkscape" version="1.1" width="612" height="792" viewBox="0 0 612 792">
<path transform="matrix(.1,0,0,-.1,0,792)" d="M2677.3 3070.2H3243V3470.2H3643V3870.2H4043V4435.9H3643V4835.9H3243V5235.9H2677.3V4835.9H2277.3V4435.9H1877.3V3870.2H2277.3V3470.2H2677.3" fill="#edd4bd"/>
<path transform="matrix(.1,0,0,-.1,0,792)" stroke-width="1" stroke-linecap="butt" stroke-miterlimit="10" stroke-linejoin="miter" fill="none" stroke="#000000" d="M2677.3 3070.2H3243V3470.2H3643V3870.2H4043V4435.9H3643V4835.9H3243V5235.9H2677.3V4835.9H2277.3V4435.9H1877.3V3870.2H2277.3V3470.2H2677.3Z"/>
<path transform="matrix(.1,0,0,-.1,0,792)" d="M3243 4835.9H3643V5035.9H3443V6001.5H3243V5235.9"/>
<path transform="matrix(.1,0,0,-.1,0,792)" stroke-width="1" stroke-linecap="butt" stroke-miterlimit="10" stroke-linejoin="miter" fill="none" stroke="#000000" d="M3243 4835.9H3643V5035.9H3443V6001.5H3243V5235.9Z"/>
<path transform="matrix(.1,0,0,-.1,0,792)" d="M2677.3 4835.9V5235.9H2477.3V5035.9H1677.3V4635.9H1877.3V4835.9H2277.3"/>
<path transform="matrix(.1,0,0,-.1,0,792)" stroke-width="1" stroke-linecap="butt" stroke-miterlimit="10" stroke-linejoin="miter" fill="none" stroke="#000000" d="M2677.3 4835.9V5235.9H2477.3V5035.9H1677.3V4635.9H1877.3V4835.9H2277.3Z"/>
<path transform="matrix(.1,0,0,-.1,0,792)" d="M2677.3 3470.2H2277.3V3270.2H2477.3V2304.5H2677.3V3070.2"/>
<path transform="matrix(.1,0,0,-.1,0,792)" stroke-width="1" stroke-linecap="butt" stroke-miterlimit="10" stroke-linejoin="miter" fill="none" stroke="#000000" d="M2677.3 3470.2H2277.3V3270.2H2477.3V2304.5H2677.3V3070.2Z"/>
<path transform="matrix(.1,0,0,-.1,0,792)" d="M3243 3470.2V3070.2H3443V3270.2H4243V3670.2H4043V3470.2H3643"/>
<path transform="matrix(.1,0,0,-.1,0,792)" stroke-width="1" stroke-linecap="butt" stroke-miterlimit="10" stroke-linejoin="miter" fill="none" stroke="#000000" d="M3243 3470.2V3070.2H3443V3270.2H4243V3670.2H4043V3470.2H3643Z"/>
<path transform="matrix(.1,0,0,-.1,0,792)" d="M3443 5035.9H3643V5235.9H3443Z" fill="#edd4bd"/>
<path transform="matrix(.1,0,0,-.1,0,792)" stroke-width="1" stroke-linecap="butt" stroke-miterlimit="10" stroke-linejoin="miter" fill="none" stroke="#000000" d="M3443 5035.9H3643V5235.9H3443Z"/>
<path transform="matrix(.1,0,0,-.1,0,792)" d="M2277.3 5035.9H2477.3V5235.9H2277.3Z" fill="#edd4bd"/>
<path transform="matrix(.1,0,0,-.1,0,792)" stroke-width="1" stroke-linecap="butt" stroke-miterlimit="10" stroke-linejoin="miter" fill="none" stroke="#000000" d="M2277.3 5035.9H2477.3V5235.9H2277.3Z"/>
<path transform="matrix(.1,0,0,-.1,0,792)" d="M3643 3470.2H3843V3670.2H4808.6V3870.2H3643" fill="#ba3d45"/>
<path transform="matrix(.1,0,0,-.1,0,792)" stroke-width="1" stroke-linecap="butt" stroke-miterlimit="10" stroke-linejoin="miter" fill="none" stroke="#000000" d="M3643 3470.2H3843V3670.2H4808.6V3870.2H3643Z"/>
<path transform="matrix(.1,0,0,-.1,0,792)" d="M3643 4435.9H4043V4635.9H3843V5435.9H3443V5235.9H3643V4835.9" fill="#ba3d45"/>
<path transform="matrix(.1,0,0,-.1,0,792)" stroke-width="1" stroke-linecap="butt" stroke-miterlimit="10" stroke-linejoin="miter" fill="none" stroke="#000000" d="M3643 4435.9H4043V4635.9H3843V5435.9H3443V5235.9H3643V4835.9Z"/>
<path transform="matrix(.1,0,0,-.1,0,792)" d="M2277.3 3070.2H2477.3V3270.2H2277.3Z" fill="#edd4bd"/>
<path transform="matrix(.1,0,0,-.1,0,792)" stroke-width="1" stroke-linecap="butt" stroke-miterlimit="10" stroke-linejoin="miter" fill="none" stroke="#000000" d="M2277.3 3070.2H2477.3V3270.2H2277.3Z"/>
<path transform="matrix(.1,0,0,-.1,0,792)" d="M3443 3070.2H3643V3270.2H3443Z" fill="#edd4bd"/>
<path transform="matrix(.1,0,0,-.1,0,792)" stroke-width="1" stroke-linecap="butt" stroke-miterlimit="10" stroke-linejoin="miter" fill="none" stroke="#000000" d="M3443 3070.2H3643V3270.2H3443Z"/>
<path transform="matrix(.1,0,0,-.1,0,792)" d="M3643 3270.2V3070.2H2677.3V2870.2H3843V3270.2" fill="#ba3d45"/>
<path transform="matrix(.1,0,0,-.1,0,792)" stroke-width="1" stroke-linecap="butt" stroke-miterlimit="10" stroke-linejoin="miter" fill="none" stroke="#000000" d="M3643 3270.2V3070.2H2677.3V2870.2H3843V3270.2Z"/>
<path transform="matrix(.1,0,0,-.1,0,792)" d="M2277.3 5035.9V5235.9H3243V5435.9H2077.3V5035.9" fill="#ba3d45"/>
<path transform="matrix(.1,0,0,-.1,0,792)" stroke-width="1" stroke-linecap="butt" stroke-miterlimit="10" stroke-linejoin="miter" fill="none" stroke="#000000" d="M2277.3 5035.9V5235.9H3243V5435.9H2077.3V5035.9Z"/>
<path transform="matrix(.1,0,0,-.1,0,792)" d="M2277.3 4835.9H2077.3V4635.9H1111.6V4435.9H2277.3" fill="#ba3d45"/>
<path transform="matrix(.1,0,0,-.1,0,792)" stroke-width="1" stroke-linecap="butt" stroke-miterlimit="10" stroke-linejoin="miter" fill="none" stroke="#000000" d="M2277.3 4835.9H2077.3V4635.9H1111.6V4435.9H2277.3Z"/>
<path transform="matrix(.1,0,0,-.1,0,792)" d="M2277.3 3870.2H1877.3V3670.2H2077.3V2870.2H2477.3V3070.2H2277.3V3470.2" fill="#ba3d45"/>
<path transform="matrix(.1,0,0,-.1,0,792)" stroke-width="1" stroke-linecap="butt" stroke-miterlimit="10" stroke-linejoin="miter" fill="none" stroke="#000000" d="M2277.3 3870.2H1877.3V3670.2H2077.3V2870.2H2477.3V3070.2H2277.3V3470.2Z"/>
<path transform="matrix(.1,0,0,-.1,0,792)" d="M3843 3270.2V2870.2H3443V2304.5H3843V1904.5H4243V1504.5H4808.6V1904.5H5208.6V2304.5H5608.6V2870.2H5208.6V3270.2H4808.6V3670.2H4243V3270.2" fill="#edd4bd"/>
<path transform="matrix(.1,0,0,-.1,0,792)" stroke-width="1" stroke-linecap="butt" stroke-miterlimit="10" stroke-linejoin="miter" fill="none" stroke="#000000" d="M3843 3270.2V2870.2H3443V2304.5H3843V1904.5H4243V1504.5H4808.6V1904.5H5208.6V2304.5H5608.6V2870.2H5208.6V3270.2H4808.6V3670.2H4243V3270.2Z"/>
<path transform="matrix(.1,0,0,-.1,0,792)" d="M3843 3470.2H4043V3670.2H3843Z" fill="#edd4bd"/>
<path transform="matrix(.1,0,0,-.1,0,792)" stroke-width="1" stroke-linecap="butt" stroke-miterlimit="10" stroke-linejoin="miter" fill="none" stroke="#000000" d="M3843 3470.2H4043V3670.2H3843Z"/>
<path transform="matrix(.1,0,0,-.1,0,792)" d="M3843 4635.9H4043V4835.9H3843Z" fill="#edd4bd"/>
<path transform="matrix(.1,0,0,-.1,0,792)" stroke-width="1" stroke-linecap="butt" stroke-miterlimit="10" stroke-linejoin="miter" fill="none" stroke="#000000" d="M3843 4635.9H4043V4835.9H3843Z"/>
<path transform="matrix(.1,0,0,-.1,0,792)" d="M3843 4835.9H4043V3870.2H4243V5035.9H3843"/>
<path transform="matrix(.1,0,0,-.1,0,792)" stroke-width="1" stroke-linecap="butt" stroke-miterlimit="10" stroke-linejoin="miter" fill="none" stroke="#000000" d="M3843 4835.9H4043V3870.2H4243V5035.9H3843Z"/>
<path transform="matrix(.1,0,0,-.1,0,792)" d="M3843 5035.9H4243V4635.9H4808.6V5035.9H5208.6V5435.9H5608.6V6001.5H5208.6V6401.5H4808.6V6801.5H4243V6401.5H3843V6001.5H3443V5435.9H3843" fill="#edd4bd"/>
<path transform="matrix(.1,0,0,-.1,0,792)" stroke-width="1" stroke-linecap="butt" stroke-miterlimit="10" stroke-linejoin="miter" fill="none" stroke="#000000" d="M3843 5035.9H4243V4635.9H4808.6V5035.9H5208.6V5435.9H5608.6V6001.5H5208.6V6401.5H4808.6V6801.5H4243V6401.5H3843V6001.5H3443V5435.9H3843Z"/>
<path transform="matrix(.1,0,0,-.1,0,792)" d="M2677.3 5435.9H3242.999V6001.502H2677.3Z" fill="#edd4bd"/>
<path transform="matrix(.1,0,0,-.1,0,792)" stroke-width="1" stroke-linecap="butt" stroke-miterlimit="10" stroke-linejoin="miter" fill="none" stroke="#000000" d="M2677.3 5435.9H3242.999V6001.502H2677.3Z"/>
<path transform="matrix(.1,0,0,-.1,0,792)" d="M2677.3 5435.9V6601.5H2277.3V6401.5H2477.3V5435.9"/>
<path transform="matrix(.1,0,0,-.1,0,792)" stroke-width="1" stroke-linecap="butt" stroke-miterlimit="10" stroke-linejoin="miter" fill="none" stroke="#000000" d="M2677.3 5435.9V6601.5H2277.3V6401.5H2477.3V5435.9Z"/>
<path transform="matrix(.1,0,0,-.1,0,792)" d="M2477.3 5435.9V6001.5H2077.3V6401.5H1677.3V6801.5H1111.6V6401.5H711.602V6001.5H311.602V5435.9H711.602V5035.9H1111.6V4635.9H1677.3V5035.9H2077.3V5435.9" fill="#edd4bd"/>
<path transform="matrix(.1,0,0,-.1,0,792)" stroke-width="1" stroke-linecap="butt" stroke-miterlimit="10" stroke-linejoin="miter" fill="none" stroke="#000000" d="M2477.3 5435.9V6001.5H2077.3V6401.5H1677.3V6801.5H1111.6V6401.5H711.602V6001.5H311.602V5435.9H711.602V5035.9H1111.6V4635.9H1677.3V5035.9H2077.3V5435.9Z"/>
<path transform="matrix(.1,0,0,-.1,0,792)" d="M1877.3 4635.9H2077.3V4835.9H1877.3Z" fill="#edd4bd"/>
<path transform="matrix(.1,0,0,-.1,0,792)" stroke-width="1" stroke-linecap="butt" stroke-miterlimit="10" stroke-linejoin="miter" fill="none" stroke="#000000" d="M1877.3 4635.9H2077.3V4835.9H1877.3Z"/>
<path transform="matrix(.1,0,0,-.1,0,792)" d="M1877.3 3470.2H2077.3V3670.2H1877.3Z" fill="#edd4bd"/>
<path transform="matrix(.1,0,0,-.1,0,792)" stroke-width="1" stroke-linecap="butt" stroke-miterlimit="10" stroke-linejoin="miter" fill="none" stroke="#000000" d="M1877.3 3470.2H2077.3V3670.2H1877.3Z"/>
<path transform="matrix(.1,0,0,-.1,0,792)" d="M2077.3 3470.2H1877.3V4435.9H1677.3V3270.2H2077.3"/>
<path transform="matrix(.1,0,0,-.1,0,792)" stroke-width="1" stroke-linecap="butt" stroke-miterlimit="10" stroke-linejoin="miter" fill="none" stroke="#000000" d="M2077.3 3470.2H1877.3V4435.9H1677.3V3270.2H2077.3Z"/>
<path transform="matrix(.1,0,0,-.1,0,792)" d="M2077.3 3270.2H1677.3V3670.2H1111.6V3270.2H711.602V2870.2H311.602V2304.5H711.602V1904.5H1111.6V1504.5H1677.3V1904.5H2077.3V2304.5H2477.3V2870.2H2077.3" fill="#edd4bd"/>
<path transform="matrix(.1,0,0,-.1,0,792)" stroke-width="1" stroke-linecap="butt" stroke-miterlimit="10" stroke-linejoin="miter" fill="none" stroke="#000000" d="M2077.3 3270.2H1677.3V3670.2H1111.6V3270.2H711.602V2870.2H311.602V2304.5H711.602V1904.5H1111.6V1504.5H1677.3V1904.5H2077.3V2304.5H2477.3V2870.2H2077.3Z"/>
<path transform="matrix(.1,0,0,-.1,0,792)" d="M2677.3 2304.5H3242.999V2870.199H2677.3Z" fill="#edd4bd"/>
<path transform="matrix(.1,0,0,-.1,0,792)" stroke-width="1" stroke-linecap="butt" stroke-miterlimit="10" stroke-linejoin="miter" fill="none" stroke="#000000" d="M2677.3 2304.5H3242.999V2870.199H2677.3Z"/>
<path transform="matrix(.1,0,0,-.1,0,792)" d="M3243 2870.2V1704.5H3643V1904.5H3443V2870.2"/>
<path transform="matrix(.1,0,0,-.1,0,792)" stroke-width="1" stroke-linecap="butt" stroke-miterlimit="10" stroke-linejoin="miter" fill="none" stroke="#000000" d="M3243 2870.2V1704.5H3643V1904.5H3443V2870.2Z"/>
<path transform="matrix(.1,0,0,-.1,0,792)" d="M4243 3870.2H4808.602V4435.899H4243Z" fill="#edd4bd"/>
<path transform="matrix(.1,0,0,-.1,0,792)" stroke-width="1" stroke-linecap="butt" stroke-miterlimit="10" stroke-linejoin="miter" fill="none" stroke="#000000" d="M4243 3870.2H4808.602V4435.899H4243Z"/>
<path transform="matrix(.1,0,0,-.1,0,792)" d="M4243 4435.9H5408.6V4835.9H5208.6V4635.9H4243" fill="#ba3d45"/>
<path transform="matrix(.1,0,0,-.1,0,792)" stroke-width="1" stroke-linecap="butt" stroke-miterlimit="10" stroke-linejoin="miter" fill="none" stroke="#000000" d="M4243 4435.9H5408.6V4835.9H5208.6V4635.9H4243Z"/>
<path transform="matrix(.1,0,0,-.1,0,792)" d="M1111.6 3870.2H1677.299V4435.899H1111.6Z" fill="#edd4bd"/>
<path transform="matrix(.1,0,0,-.1,0,792)" stroke-width="1" stroke-linecap="butt" stroke-miterlimit="10" stroke-linejoin="miter" fill="none" stroke="#000000" d="M1111.6 3870.2H1677.299V4435.899H1111.6Z"/>
<path transform="matrix(.1,0,0,-.1,0,792)" d="M1677.3 3870.2H511.602V3470.2H711.602V3670.2H1677.3" fill="#ba3d45"/>
<path transform="matrix(.1,0,0,-.1,0,792)" stroke-width="1" stroke-linecap="butt" stroke-miterlimit="10" stroke-linejoin="miter" fill="none" stroke="#000000" d="M1677.3 3870.2H511.602V3470.2H711.602V3670.2H1677.3Z"/>
<path transform="matrix(.1,0,0,-.1,0,792)" d="M3843 6001.5V6401.5H3643V6201.5H2677.3V6001.5H3443" fill="#ba3d45"/>
<path transform="matrix(.1,0,0,-.1,0,792)" stroke-width="1" stroke-linecap="butt" stroke-miterlimit="10" stroke-linejoin="miter" fill="none" stroke="#000000" d="M3843 6001.5V6401.5H3643V6201.5H2677.3V6001.5H3443Z"/>
<path transform="matrix(.1,0,0,-.1,0,792)" d="M2477.3 6001.5V6201.5H2277.3V7001.5H1877.3V6801.5H2077.3V6001.5" fill="#ba3d45"/>
<path transform="matrix(.1,0,0,-.1,0,792)" stroke-width="1" stroke-linecap="butt" stroke-miterlimit="10" stroke-linejoin="miter" fill="none" stroke="#000000" d="M2477.3 6001.5V6201.5H2277.3V7001.5H1877.3V6801.5H2077.3V6001.5Z"/>
<path transform="matrix(.1,0,0,-.1,0,792)" d="M2077.3 2304.5V1904.5H2277.3V2104.5H3243V2304.5H2477.3" fill="#ba3d45"/>
<path transform="matrix(.1,0,0,-.1,0,792)" stroke-width="1" stroke-linecap="butt" stroke-miterlimit="10" stroke-linejoin="miter" fill="none" stroke="#000000" d="M2077.3 2304.5V1904.5H2277.3V2104.5H3243V2304.5H2477.3Z"/>
<path transform="matrix(.1,0,0,-.1,0,792)" d="M3443 2304.5V2104.5H3643V1304.5H4043V1504.5H3843V2304.5" fill="#ba3d45"/>
<path transform="matrix(.1,0,0,-.1,0,792)" stroke-width="1" stroke-linecap="butt" stroke-miterlimit="10" stroke-linejoin="miter" fill="none" stroke="#000000" d="M3443 2304.5V2104.5H3643V1304.5H4043V1504.5H3843V2304.5Z"/>
<path transform="matrix(.1,0,0,-.1,0,792)" d="M3443 6201.5H3643V6401.5H3443Z" fill="#edd4bd"/>
<path transform="matrix(.1,0,0,-.1,0,792)" stroke-width="1" stroke-linecap="butt" stroke-miterlimit="10" stroke-linejoin="miter" fill="none" stroke="#000000" d="M3443 6201.5H3643V6401.5H3443Z"/>
<path transform="matrix(.1,0,0,-.1,0,792)" d="M3443 6201.5V6401.5H4243V6801.5H4043V6601.5H3243V6201.5"/>
<path transform="matrix(.1,0,0,-.1,0,792)" stroke-width="1" stroke-linecap="butt" stroke-miterlimit="10" stroke-linejoin="miter" fill="none" stroke="#000000" d="M3443 6201.5V6401.5H4243V6801.5H4043V6601.5H3243V6201.5Z"/>
<path transform="matrix(.1,0,0,-.1,0,792)" d="M3243 6201.5V6601.5H3643V7001.5H4043V7567.2H3643V7967.2H3243V8367.2H2677.3V7967.2H2277.3V7567.2H1877.3V7001.5H2277.3V6601.5H2677.3V6201.5" fill="#edd4bd"/>
<path transform="matrix(.1,0,0,-.1,0,792)" stroke-width="1" stroke-linecap="butt" stroke-miterlimit="10" stroke-linejoin="miter" fill="none" stroke="#000000" d="M3243 6201.5V6601.5H3643V7001.5H4043V7567.2H3643V7967.2H3243V8367.2H2677.3V7967.2H2277.3V7567.2H1877.3V7001.5H2277.3V6601.5H2677.3V6201.5Z"/>
<path transform="matrix(.1,0,0,-.1,0,792)" d="M2277.3 6201.5H2477.3V6401.5H2277.3Z" fill="#edd4bd"/>
<path transform="matrix(.1,0,0,-.1,0,792)" stroke-width="1" stroke-linecap="butt" stroke-miterlimit="10" stroke-linejoin="miter" fill="none" stroke="#000000" d="M2277.3 6201.5H2477.3V6401.5H2277.3Z"/>
<path transform="matrix(.1,0,0,-.1,0,792)" d="M2277.3 1904.5H2477.3V2104.5H2277.3Z" fill="#edd4bd"/>
<path transform="matrix(.1,0,0,-.1,0,792)" stroke-width="1" stroke-linecap="butt" stroke-miterlimit="10" stroke-linejoin="miter" fill="none" stroke="#000000" d="M2277.3 1904.5H2477.3V2104.5H2277.3Z"/>
<path transform="matrix(.1,0,0,-.1,0,792)" d="M2477.3 2104.5V1904.5H1677.3V1504.5H1877.3V1704.5H2677.3V2104.5"/>
<path transform="matrix(.1,0,0,-.1,0,792)" stroke-width="1" stroke-linecap="butt" stroke-miterlimit="10" stroke-linejoin="miter" fill="none" stroke="#000000" d="M2477.3 2104.5V1904.5H1677.3V1504.5H1877.3V1704.5H2677.3V2104.5Z"/>
<path transform="matrix(.1,0,0,-.1,0,792)" d="M2677.3 2104.5V1704.5H2277.3V1304.5H1877.3V738.801H2277.3V338.801H2677.3V-61.1992H3243V338.801H3643V738.801H4043V1304.5H3643V1704.5H3243V2104.5" fill="#edd4bd"/>
<path transform="matrix(.1,0,0,-.1,0,792)" stroke-width="1" stroke-linecap="butt" stroke-miterlimit="10" stroke-linejoin="miter" fill="none" stroke="#000000" d="M2677.3 2104.5V1704.5H2277.3V1304.5H1877.3V738.801H2277.3V338.801H2677.3V-61.1992H3243V338.801H3643V738.801H4043V1304.5H3643V1704.5H3243V2104.5Z"/>
<path transform="matrix(.1,0,0,-.1,0,792)" d="M3443 1904.5H3643V2104.5H3443Z" fill="#edd4bd"/>
<path transform="matrix(.1,0,0,-.1,0,792)" stroke-width="1" stroke-linecap="butt" stroke-miterlimit="10" stroke-linejoin="miter" fill="none" stroke="#000000" d="M3443 1904.5H3643V2104.5H3443Z"/>
<path transform="matrix(.1,0,0,-.1,0,792)" d="M2077.3 6401.5V6601.5H1877.3V7567.2H1677.3V6401.5"/>
<path transform="matrix(.1,0,0,-.1,0,792)" stroke-width="1" stroke-linecap="butt" stroke-miterlimit="10" stroke-linejoin="miter" fill="none" stroke="#000000" d="M2077.3 6401.5V6601.5H1877.3V7567.2H1677.3V6401.5Z"/>
<path transform="matrix(.1,0,0,-.1,0,792)" d="M3843 1904.5V1704.5H4043V738.801H4243V1904.5"/>
<path transform="matrix(.1,0,0,-.1,0,792)" stroke-width="1" stroke-linecap="butt" stroke-miterlimit="10" stroke-linejoin="miter" fill="none" stroke="#000000" d="M3843 1904.5V1704.5H4043V738.801H4243V1904.5Z"/>
<path transform="matrix(.1,0,0,-.1,0,792)" d="M3843 6601.5H4043V6801.5H3843Z" fill="#edd4bd"/>
<path transform="matrix(.1,0,0,-.1,0,792)" stroke-width="1" stroke-linecap="butt" stroke-miterlimit="10" stroke-linejoin="miter" fill="none" stroke="#000000" d="M3843 6601.5H4043V6801.5H3843Z"/>
<path transform="matrix(.1,0,0,-.1,0,792)" d="M3843 6601.5V6801.5H4808.6V7001.5H3643V6601.5" fill="#ba3d45"/>
<path transform="matrix(.1,0,0,-.1,0,792)" stroke-width="1" stroke-linecap="butt" stroke-miterlimit="10" stroke-linejoin="miter" fill="none" stroke="#000000" d="M3843 6601.5V6801.5H4808.6V7001.5H3643V6601.5Z"/>
<path transform="matrix(.1,0,0,-.1,0,792)" d="M1877.3 6601.5H2077.3V6801.5H1877.3Z" fill="#edd4bd"/>
<path transform="matrix(.1,0,0,-.1,0,792)" stroke-width="1" stroke-linecap="butt" stroke-miterlimit="10" stroke-linejoin="miter" fill="none" stroke="#000000" d="M1877.3 6601.5H2077.3V6801.5H1877.3Z"/>
<path transform="matrix(.1,0,0,-.1,0,792)" d="M1877.3 1504.5H2077.3V1704.5H1877.3Z" fill="#edd4bd"/>
<path transform="matrix(.1,0,0,-.1,0,792)" stroke-width="1" stroke-linecap="butt" stroke-miterlimit="10" stroke-linejoin="miter" fill="none" stroke="#000000" d="M1877.3 1504.5H2077.3V1704.5H1877.3Z"/>
<path transform="matrix(.1,0,0,-.1,0,792)" d="M2077.3 1704.5V1504.5H1111.6V1304.5H2277.3V1704.5" fill="#ba3d45"/>
<path transform="matrix(.1,0,0,-.1,0,792)" stroke-width="1" stroke-linecap="butt" stroke-miterlimit="10" stroke-linejoin="miter" fill="none" stroke="#000000" d="M2077.3 1704.5V1504.5H1111.6V1304.5H2277.3V1704.5Z"/>
<path transform="matrix(.1,0,0,-.1,0,792)" d="M3843 1504.5H4043V1704.5H3843Z" fill="#edd4bd"/>
<path transform="matrix(.1,0,0,-.1,0,792)" stroke-width="1" stroke-linecap="butt" stroke-miterlimit="10" stroke-linejoin="miter" fill="none" stroke="#000000" d="M3843 1504.5H4043V1704.5H3843Z"/>
<path transform="matrix(.1,0,0,-.1,0,792)" d="M4808.6 1904.5V1504.5H5008.6V1704.5H5808.6V2104.5H5608.6V1904.5H5208.6"/>
<path transform="matrix(.1,0,0,-.1,0,792)" stroke-width="1" stroke-linecap="butt" stroke-miterlimit="10" stroke-linejoin="miter" fill="none" stroke="#000000" d="M4808.6 1904.5V1504.5H5008.6V1704.5H5808.6V2104.5H5608.6V1904.5H5208.6Z"/>
<path transform="matrix(.1,0,0,-.1,0,792)" d="M4808.6 3270.2H5208.6V3470.2H5008.6V4435.9H4808.6V3670.2"/>
<path transform="matrix(.1,0,0,-.1,0,792)" stroke-width="1" stroke-linecap="butt" stroke-miterlimit="10" stroke-linejoin="miter" fill="none" stroke="#000000" d="M4808.6 3270.2H5208.6V3470.2H5008.6V4435.9H4808.6V3670.2Z"/>
<path transform="matrix(.1,0,0,-.1,0,792)" d="M4808.6 4635.9H5008.6V4835.9H5808.6V5235.9H5608.6V5035.9H4808.6"/>
<path transform="matrix(.1,0,0,-.1,0,792)" stroke-width="1" stroke-linecap="butt" stroke-miterlimit="10" stroke-linejoin="miter" fill="none" stroke="#000000" d="M4808.6 4635.9H5008.6V4835.9H5808.6V5235.9H5608.6V5035.9H4808.6Z"/>
<path transform="matrix(.1,0,0,-.1,0,792)" d="M4808.6 6401.5H5208.6V6601.5H5008.6V7567.2H4808.6V6801.5"/>
<path transform="matrix(.1,0,0,-.1,0,792)" stroke-width="1" stroke-linecap="butt" stroke-miterlimit="10" stroke-linejoin="miter" fill="none" stroke="#000000" d="M4808.6 6401.5H5208.6V6601.5H5008.6V7567.2H4808.6V6801.5Z"/>
<path transform="matrix(.1,0,0,-.1,0,792)" d="M1111.6 6401.5V6801.5H911.602V6601.5H111.602V6201.5H311.602V6401.5H711.602"/>
<path transform="matrix(.1,0,0,-.1,0,792)" stroke-width="1" stroke-linecap="butt" stroke-miterlimit="10" stroke-linejoin="miter" fill="none" stroke="#000000" d="M1111.6 6401.5V6801.5H911.602V6601.5H111.602V6201.5H311.602V6401.5H711.602Z"/>
<path transform="matrix(.1,0,0,-.1,0,792)" d="M1111.6 5035.9H711.602V4835.9H911.602V3870.2H1111.6V4635.9"/>
<path transform="matrix(.1,0,0,-.1,0,792)" stroke-width="1" stroke-linecap="butt" stroke-miterlimit="10" stroke-linejoin="miter" fill="none" stroke="#000000" d="M1111.6 5035.9H711.602V4835.9H911.602V3870.2H1111.6V4635.9Z"/>
<path transform="matrix(.1,0,0,-.1,0,792)" d="M1111.6 3670.2H911.602V3470.2H111.602V3070.2H311.602V3270.2H1111.6"/>
<path transform="matrix(.1,0,0,-.1,0,792)" stroke-width="1" stroke-linecap="butt" stroke-miterlimit="10" stroke-linejoin="miter" fill="none" stroke="#000000" d="M1111.6 3670.2H911.602V3470.2H111.602V3070.2H311.602V3270.2H1111.6Z"/>
<path transform="matrix(.1,0,0,-.1,0,792)" d="M1111.6 1904.5H711.602V1704.5H911.602V738.801H1111.6V1504.5"/>
<path transform="matrix(.1,0,0,-.1,0,792)" stroke-width="1" stroke-linecap="butt" stroke-miterlimit="10" stroke-linejoin="miter" fill="none" stroke="#000000" d="M1111.6 1904.5H711.602V1704.5H911.602V738.801H1111.6V1504.5Z"/>
<path transform="matrix(.1,0,0,-.1,0,792)" d="M1677.3 6801.5V7001.5H511.602V6601.5H711.602V6801.5H1111.6" fill="#ba3d45"/>
<path transform="matrix(.1,0,0,-.1,0,792)" stroke-width="1" stroke-linecap="butt" stroke-miterlimit="10" stroke-linejoin="miter" fill="none" stroke="#000000" d="M1677.3 6801.5V7001.5H511.602V6601.5H711.602V6801.5H1111.6Z"/>
<path transform="matrix(.1,0,0,-.1,0,792)" d="M4243 1504.5V1304.5H5408.6V1704.5H5208.6V1504.5H4808.6" fill="#ba3d45"/>
<path transform="matrix(.1,0,0,-.1,0,792)" stroke-width="1" stroke-linecap="butt" stroke-miterlimit="10" stroke-linejoin="miter" fill="none" stroke="#000000" d="M4243 1504.5V1304.5H5408.6V1704.5H5208.6V1504.5H4808.6Z"/>
<path transform="matrix(.1,0,0,-.1,0,792)" d="M4243 7001.5H4808.602V7567.199H4243Z" fill="#edd4bd"/>
<path transform="matrix(.1,0,0,-.1,0,792)" stroke-width="1" stroke-linecap="butt" stroke-miterlimit="10" stroke-linejoin="miter" fill="none" stroke="#000000" d="M4243 7001.5H4808.602V7567.199H4243Z"/>
<path transform="matrix(.1,0,0,-.1,0,792)" d="M4243 7001.5V8167.2H3843V7967.2H4043V7001.5"/>
<path transform="matrix(.1,0,0,-.1,0,792)" stroke-width="1" stroke-linecap="butt" stroke-miterlimit="10" stroke-linejoin="miter" fill="none" stroke="#000000" d="M4243 7001.5V8167.2H3843V7967.2H4043V7001.5Z"/>
<path transform="matrix(.1,0,0,-.1,0,792)" d="M1111.6 7001.5H1677.299V7567.199H1111.6Z" fill="#edd4bd"/>
<path transform="matrix(.1,0,0,-.1,0,792)" stroke-width="1" stroke-linecap="butt" stroke-miterlimit="10" stroke-linejoin="miter" fill="none" stroke="#000000" d="M1111.6 7001.5H1677.299V7567.199H1111.6Z"/>
<path transform="matrix(.1,0,0,-.1,0,792)" d="M1111.6 7001.5V8167.2H711.602V7967.2H911.602V7001.5"/>
<path transform="matrix(.1,0,0,-.1,0,792)" stroke-width="1" stroke-linecap="butt" stroke-miterlimit="10" stroke-linejoin="miter" fill="none" stroke="#000000" d="M1111.6 7001.5V8167.2H711.602V7967.2H911.602V7001.5Z"/>
<path transform="matrix(.1,0,0,-.1,0,792)" d="M5008.6 1504.5H5208.6V1704.5H5008.6Z" fill="#edd4bd"/>
<path transform="matrix(.1,0,0,-.1,0,792)" stroke-width="1" stroke-linecap="butt" stroke-miterlimit="10" stroke-linejoin="miter" fill="none" stroke="#000000" d="M5008.6 1504.5H5208.6V1704.5H5008.6Z"/>
<path transform="matrix(.1,0,0,-.1,0,792)" d="M5008.6 3470.2H5208.6V3670.2H5008.6Z" fill="#edd4bd"/>
<path transform="matrix(.1,0,0,-.1,0,792)" stroke-width="1" stroke-linecap="butt" stroke-miterlimit="10" stroke-linejoin="miter" fill="none" stroke="#000000" d="M5008.6 3470.2H5208.6V3670.2H5008.6Z"/>
<path transform="matrix(.1,0,0,-.1,0,792)" d="M5008.6 3670.2H5208.6V2870.2H5608.6V3070.2H5408.6V3870.2H5008.6" fill="#ba3d45"/>
<path transform="matrix(.1,0,0,-.1,0,792)" stroke-width="1" stroke-linecap="butt" stroke-miterlimit="10" stroke-linejoin="miter" fill="none" stroke="#000000" d="M5008.6 3670.2H5208.6V2870.2H5608.6V3070.2H5408.6V3870.2H5008.6Z"/>
<path transform="matrix(.1,0,0,-.1,0,792)" d="M5008.6 3870.2H5408.6V3470.2H5808.6V3070.2H6374.3V3470.2H6774.3V3870.2H7174.3V4435.9H6774.3V4835.9H6374.3V5235.9H5808.6V4835.9H5408.6V4435.9H5008.6" fill="#edd4bd"/>
<path transform="matrix(.1,0,0,-.1,0,792)" stroke-width="1" stroke-linecap="butt" stroke-miterlimit="10" stroke-linejoin="miter" fill="none" stroke="#000000" d="M5008.6 3870.2H5408.6V3470.2H5808.6V3070.2H6374.3V3470.2H6774.3V3870.2H7174.3V4435.9H6774.3V4835.9H6374.3V5235.9H5808.6V4835.9H5408.6V4435.9H5008.6Z"/>
<path transform="matrix(.1,0,0,-.1,0,792)" d="M5008.6 4635.9H5208.6V4835.9H5008.6Z" fill="#edd4bd"/>
<path transform="matrix(.1,0,0,-.1,0,792)" stroke-width="1" stroke-linecap="butt" stroke-miterlimit="10" stroke-linejoin="miter" fill="none" stroke="#000000" d="M5008.6 4635.9H5208.6V4835.9H5008.6Z"/>
<path transform="matrix(.1,0,0,-.1,0,792)" d="M5008.6 6601.5H5208.6V6801.5H5008.6Z" fill="#edd4bd"/>
<path transform="matrix(.1,0,0,-.1,0,792)" stroke-width="1" stroke-linecap="butt" stroke-miterlimit="10" stroke-linejoin="miter" fill="none" stroke="#000000" d="M5008.6 6601.5H5208.6V6801.5H5008.6Z"/>
<path transform="matrix(.1,0,0,-.1,0,792)" d="M5008.6 6801.5H5208.6V6001.5H5608.6V6201.5H5408.6V7001.5H5008.6" fill="#ba3d45"/>
<path transform="matrix(.1,0,0,-.1,0,792)" stroke-width="1" stroke-linecap="butt" stroke-miterlimit="10" stroke-linejoin="miter" fill="none" stroke="#000000" d="M5008.6 6801.5H5208.6V6001.5H5608.6V6201.5H5408.6V7001.5H5008.6Z"/>
<path transform="matrix(.1,0,0,-.1,0,792)" d="M5008.6 7001.5H5408.6V6601.5H5808.6V6201.5H6374.3V6601.5H6774.3V7001.5H7174.3V7567.2H6774.3V7967.2H6374.3V8367.2H5808.6V7967.2H5408.6V7567.2H5008.6" fill="#edd4bd"/>
<path transform="matrix(.1,0,0,-.1,0,792)" stroke-width="1" stroke-linecap="butt" stroke-miterlimit="10" stroke-linejoin="miter" fill="none" stroke="#000000" d="M5008.6 7001.5H5408.6V6601.5H5808.6V6201.5H6374.3V6601.5H6774.3V7001.5H7174.3V7567.2H6774.3V7967.2H6374.3V8367.2H5808.6V7967.2H5408.6V7567.2H5008.6Z"/>
<path transform="matrix(.1,0,0,-.1,0,792)" d="M911.602 7001.5V7567.2H511.602V7967.2H111.602V8367.2H-454.102V7967.2H-854.102V7567.2H-1254.1V7001.5H-854.102V6601.5H-454.102V6201.5H111.602V6601.5H511.602V7001.5" fill="#edd4bd"/>
<path transform="matrix(.1,0,0,-.1,0,792)" stroke-width="1" stroke-linecap="butt" stroke-miterlimit="10" stroke-linejoin="miter" fill="none" stroke="#000000" d="M911.602 7001.5V7567.2H511.602V7967.2H111.602V8367.2H-454.102V7967.2H-854.102V7567.2H-1254.1V7001.5H-854.102V6601.5H-454.102V6201.5H111.602V6601.5H511.602V7001.5Z"/>
<path transform="matrix(.1,0,0,-.1,0,792)" d="M711.602 6601.5H911.602V6801.5H711.602Z" fill="#edd4bd"/>
<path transform="matrix(.1,0,0,-.1,0,792)" stroke-width="1" stroke-linecap="butt" stroke-miterlimit="10" stroke-linejoin="miter" fill="none" stroke="#000000" d="M711.602 6601.5H911.602V6801.5H711.602Z"/>
<path transform="matrix(.1,0,0,-.1,0,792)" d="M711.602 4635.9H911.602V4835.9H711.602Z" fill="#edd4bd"/>
<path transform="matrix(.1,0,0,-.1,0,792)" stroke-width="1" stroke-linecap="butt" stroke-miterlimit="10" stroke-linejoin="miter" fill="none" stroke="#000000" d="M711.602 4635.9H911.602V4835.9H711.602Z"/>
<path transform="matrix(.1,0,0,-.1,0,792)" d="M911.602 4635.9H711.602V5435.9H311.602V5235.9H511.602V4435.9H911.602" fill="#ba3d45"/>
<path transform="matrix(.1,0,0,-.1,0,792)" stroke-width="1" stroke-linecap="butt" stroke-miterlimit="10" stroke-linejoin="miter" fill="none" stroke="#000000" d="M911.602 4635.9H711.602V5435.9H311.602V5235.9H511.602V4435.9H911.602Z"/>
<path transform="matrix(.1,0,0,-.1,0,792)" d="M911.602 4435.9H511.602V4835.9H111.602V5235.9H-454.102V4835.9H-854.102V4435.9H-1254.1V3870.2H-854.102V3470.2H-454.102V3070.2H111.602V3470.2H511.602V3870.2H911.602" fill="#edd4bd"/>
<path transform="matrix(.1,0,0,-.1,0,792)" stroke-width="1" stroke-linecap="butt" stroke-miterlimit="10" stroke-linejoin="miter" fill="none" stroke="#000000" d="M911.602 4435.9H511.602V4835.9H111.602V5235.9H-454.102V4835.9H-854.102V4435.9H-1254.1V3870.2H-854.102V3470.2H-454.102V3070.2H111.602V3470.2H511.602V3870.2H911.602Z"/>
<path transform="matrix(.1,0,0,-.1,0,792)" d="M711.602 3470.2H911.602V3670.2H711.602Z" fill="#edd4bd"/>
<path transform="matrix(.1,0,0,-.1,0,792)" stroke-width="1" stroke-linecap="butt" stroke-miterlimit="10" stroke-linejoin="miter" fill="none" stroke="#000000" d="M711.602 3470.2H911.602V3670.2H711.602Z"/>
<path transform="matrix(.1,0,0,-.1,0,792)" d="M711.602 1504.5H911.602V1704.5H711.602Z" fill="#edd4bd"/>
<path transform="matrix(.1,0,0,-.1,0,792)" stroke-width="1" stroke-linecap="butt" stroke-miterlimit="10" stroke-linejoin="miter" fill="none" stroke="#000000" d="M711.602 1504.5H911.602V1704.5H711.602Z"/>
<path transform="matrix(.1,0,0,-.1,0,792)" d="M911.602 1504.5H711.602V2304.5H311.602V2104.5H511.602V1304.5H911.602" fill="#ba3d45"/>
<path transform="matrix(.1,0,0,-.1,0,792)" stroke-width="1" stroke-linecap="butt" stroke-miterlimit="10" stroke-linejoin="miter" fill="none" stroke="#000000" d="M911.602 1504.5H711.602V2304.5H311.602V2104.5H511.602V1304.5H911.602Z"/>
<path transform="matrix(.1,0,0,-.1,0,792)" d="M911.602 1304.5H511.602V1704.5H111.602V2104.5H-454.102V1704.5H-854.102V1304.5H-1254.1V738.801H-854.102V338.801H-454.102V-61.1992H111.602V338.801H511.602V738.801H911.602" fill="#edd4bd"/>
<path transform="matrix(.1,0,0,-.1,0,792)" stroke-width="1" stroke-linecap="butt" stroke-miterlimit="10" stroke-linejoin="miter" fill="none" stroke="#000000" d="M911.602 1304.5H511.602V1704.5H111.602V2104.5H-454.102V1704.5H-854.102V1304.5H-1254.1V738.801H-854.102V338.801H-454.102V-61.1992H111.602V338.801H511.602V738.801H911.602Z"/>
<path transform="matrix(.1,0,0,-.1,0,792)" d="M1111.6 738.801H1677.299V1304.5H1111.6Z" fill="#edd4bd"/>
<path transform="matrix(.1,0,0,-.1,0,792)" stroke-width="1" stroke-linecap="butt" stroke-miterlimit="10" stroke-linejoin="miter" fill="none" stroke="#000000" d="M1111.6 738.801H1677.299V1304.5H1111.6Z"/>
<path transform="matrix(.1,0,0,-.1,0,792)" d="M1677.3 1304.5V138.801H2077.3V338.801H1877.3V1304.5"/>
<path transform="matrix(.1,0,0,-.1,0,792)" stroke-width="1" stroke-linecap="butt" stroke-miterlimit="10" stroke-linejoin="miter" fill="none" stroke="#000000" d="M1677.3 1304.5V138.801H2077.3V338.801H1877.3V1304.5Z"/>
<path transform="matrix(.1,0,0,-.1,0,792)" d="M4243 738.801H4808.602V1304.5H4243Z" fill="#edd4bd"/>
<path transform="matrix(.1,0,0,-.1,0,792)" stroke-width="1" stroke-linecap="butt" stroke-miterlimit="10" stroke-linejoin="miter" fill="none" stroke="#000000" d="M4243 738.801H4808.602V1304.5H4243Z"/>
<path transform="matrix(.1,0,0,-.1,0,792)" d="M4808.6 1304.5V138.801H5208.6V338.801H5008.6V1304.5"/>
<path transform="matrix(.1,0,0,-.1,0,792)" stroke-width="1" stroke-linecap="butt" stroke-miterlimit="10" stroke-linejoin="miter" fill="none" stroke="#000000" d="M4808.6 1304.5V138.801H5208.6V338.801H5008.6V1304.5Z"/>
<path transform="matrix(.1,0,0,-.1,0,792)" d="M5008.6 1304.5V738.801H5408.6V338.801H5808.6V-61.1992H6374.3V338.801H6774.3V738.801H7174.3V1304.5H6774.3V1704.5H6374.3V2104.5H5808.6V1704.5H5408.6V1304.5" fill="#edd4bd"/>
<path transform="matrix(.1,0,0,-.1,0,792)" stroke-width="1" stroke-linecap="butt" stroke-miterlimit="10" stroke-linejoin="miter" fill="none" stroke="#000000" d="M5008.6 1304.5V738.801H5408.6V338.801H5808.6V-61.1992H6374.3V338.801H6774.3V738.801H7174.3V1304.5H6774.3V1704.5H6374.3V2104.5H5808.6V1704.5H5408.6V1304.5Z"/>
<path transform="matrix(.1,0,0,-.1,0,792)" d="M5208.6 1904.5H5408.6V2104.5H6374.3V2304.5H5208.6" fill="#ba3d45"/>
<path transform="matrix(.1,0,0,-.1,0,792)" stroke-width="1" stroke-linecap="butt" stroke-miterlimit="10" stroke-linejoin="miter" fill="none" stroke="#000000" d="M5208.6 1904.5H5408.6V2104.5H6374.3V2304.5H5208.6Z"/>
<path transform="matrix(.1,0,0,-.1,0,792)" d="M5208.6 5035.9H5408.6V5235.9H6374.3V5435.9H5208.6" fill="#ba3d45"/>
<path transform="matrix(.1,0,0,-.1,0,792)" stroke-width="1" stroke-linecap="butt" stroke-miterlimit="10" stroke-linejoin="miter" fill="none" stroke="#000000" d="M5208.6 5035.9H5408.6V5235.9H6374.3V5435.9H5208.6Z"/>
<path transform="matrix(.1,0,0,-.1,0,792)" d="M711.602 6401.5H511.602V6201.5H-454.102V6001.5H711.602" fill="#ba3d45"/>
<path transform="matrix(.1,0,0,-.1,0,792)" stroke-width="1" stroke-linecap="butt" stroke-miterlimit="10" stroke-linejoin="miter" fill="none" stroke="#000000" d="M711.602 6401.5H511.602V6201.5H-454.102V6001.5H711.602Z"/>
<path transform="matrix(.1,0,0,-.1,0,792)" d="M711.602 3270.2H511.602V3070.2H-454.102V2870.2H711.602" fill="#ba3d45"/>
<path transform="matrix(.1,0,0,-.1,0,792)" stroke-width="1" stroke-linecap="butt" stroke-miterlimit="10" stroke-linejoin="miter" fill="none" stroke="#000000" d="M711.602 3270.2H511.602V3070.2H-454.102V2870.2H711.602Z"/>
<path transform="matrix(.1,0,0,-.1,0,792)" d="M5408.6 1904.5H5608.6V2104.5H5408.6Z" fill="#edd4bd"/>
<path transform="matrix(.1,0,0,-.1,0,792)" stroke-width="1" stroke-linecap="butt" stroke-miterlimit="10" stroke-linejoin="miter" fill="none" stroke="#000000" d="M5408.6 1904.5H5608.6V2104.5H5408.6Z"/>
<path transform="matrix(.1,0,0,-.1,0,792)" d="M5408.6 3070.2H5608.6V3270.2H5408.6Z" fill="#edd4bd"/>
<path transform="matrix(.1,0,0,-.1,0,792)" stroke-width="1" stroke-linecap="butt" stroke-miterlimit="10" stroke-linejoin="miter" fill="none" stroke="#000000" d="M5408.6 3070.2H5608.6V3270.2H5408.6Z"/>
<path transform="matrix(.1,0,0,-.1,0,792)" d="M5408.6 3270.2H5608.6V2304.5H5808.6V3470.2H5408.6"/>
<path transform="matrix(.1,0,0,-.1,0,792)" stroke-width="1" stroke-linecap="butt" stroke-miterlimit="10" stroke-linejoin="miter" fill="none" stroke="#000000" d="M5408.6 3270.2H5608.6V2304.5H5808.6V3470.2H5408.6Z"/>
<path transform="matrix(.1,0,0,-.1,0,792)" d="M5408.6 5035.9H5608.6V5235.9H5408.6Z" fill="#edd4bd"/>
<path transform="matrix(.1,0,0,-.1,0,792)" stroke-width="1" stroke-linecap="butt" stroke-miterlimit="10" stroke-linejoin="miter" fill="none" stroke="#000000" d="M5408.6 5035.9H5608.6V5235.9H5408.6Z"/>
<path transform="matrix(.1,0,0,-.1,0,792)" d="M5408.6 6201.5H5608.6V6401.5H5408.6Z" fill="#edd4bd"/>
<path transform="matrix(.1,0,0,-.1,0,792)" stroke-width="1" stroke-linecap="butt" stroke-miterlimit="10" stroke-linejoin="miter" fill="none" stroke="#000000" d="M5408.6 6201.5H5608.6V6401.5H5408.6Z"/>
<path transform="matrix(.1,0,0,-.1,0,792)" d="M5408.6 6401.5H5608.6V5435.9H5808.6V6601.5H5408.6"/>
<path transform="matrix(.1,0,0,-.1,0,792)" stroke-width="1" stroke-linecap="butt" stroke-miterlimit="10" stroke-linejoin="miter" fill="none" stroke="#000000" d="M5408.6 6401.5H5608.6V5435.9H5808.6V6601.5H5408.6Z"/>
<path transform="matrix(.1,0,0,-.1,0,792)" d="M5408.6 7567.2V7967.2H5208.6V7767.2H4243V7567.2H5008.6" fill="#ba3d45"/>
<path transform="matrix(.1,0,0,-.1,0,792)" stroke-width="1" stroke-linecap="butt" stroke-miterlimit="10" stroke-linejoin="miter" fill="none" stroke="#000000" d="M5408.6 7567.2V7967.2H5208.6V7767.2H4243V7567.2H5008.6Z"/>
<path transform="matrix(.1,0,0,-.1,0,792)" d="M4043 7567.2V7767.2H3843V8567.2H3443V8367.2H3643V7567.2" fill="#ba3d45"/>
<path transform="matrix(.1,0,0,-.1,0,792)" stroke-width="1" stroke-linecap="butt" stroke-miterlimit="10" stroke-linejoin="miter" fill="none" stroke="#000000" d="M4043 7567.2V7767.2H3843V8567.2H3443V8367.2H3643V7567.2Z"/>
<path transform="matrix(.1,0,0,-.1,0,792)" d="M2277.3 7567.2V7967.2H2077.3V7767.2H1111.6V7567.2H1877.3" fill="#ba3d45"/>
<path transform="matrix(.1,0,0,-.1,0,792)" stroke-width="1" stroke-linecap="butt" stroke-miterlimit="10" stroke-linejoin="miter" fill="none" stroke="#000000" d="M2277.3 7567.2V7967.2H2077.3V7767.2H1111.6V7567.2H1877.3Z"/>
<path transform="matrix(.1,0,0,-.1,0,792)" d="M911.602 7567.2V7767.2H711.602V8567.2H311.602V8367.2H511.602V7567.2" fill="#ba3d45"/>
<path transform="matrix(.1,0,0,-.1,0,792)" stroke-width="1" stroke-linecap="butt" stroke-miterlimit="10" stroke-linejoin="miter" fill="none" stroke="#000000" d="M911.602 7567.2V7767.2H711.602V8567.2H311.602V8367.2H511.602V7567.2Z"/>
<path transform="matrix(.1,0,0,-.1,0,792)" d="M311.602 6201.5H511.602V6401.5H311.602Z" fill="#edd4bd"/>
<path transform="matrix(.1,0,0,-.1,0,792)" stroke-width="1" stroke-linecap="butt" stroke-miterlimit="10" stroke-linejoin="miter" fill="none" stroke="#000000" d="M311.602 6201.5H511.602V6401.5H311.602Z"/>
<path transform="matrix(.1,0,0,-.1,0,792)" d="M311.602 5035.9H511.602V5235.9H311.602Z" fill="#edd4bd"/>
<path transform="matrix(.1,0,0,-.1,0,792)" stroke-width="1" stroke-linecap="butt" stroke-miterlimit="10" stroke-linejoin="miter" fill="none" stroke="#000000" d="M311.602 5035.9H511.602V5235.9H311.602Z"/>
<path transform="matrix(.1,0,0,-.1,0,792)" d="M511.602 5035.9H311.602V6001.5H111.602V4835.9H511.602"/>
<path transform="matrix(.1,0,0,-.1,0,792)" stroke-width="1" stroke-linecap="butt" stroke-miterlimit="10" stroke-linejoin="miter" fill="none" stroke="#000000" d="M511.602 5035.9H311.602V6001.5H111.602V4835.9H511.602Z"/>
<path transform="matrix(.1,0,0,-.1,0,792)" d="M311.602 3070.2H511.602V3270.2H311.602Z" fill="#edd4bd"/>
<path transform="matrix(.1,0,0,-.1,0,792)" stroke-width="1" stroke-linecap="butt" stroke-miterlimit="10" stroke-linejoin="miter" fill="none" stroke="#000000" d="M311.602 3070.2H511.602V3270.2H311.602Z"/>
<path transform="matrix(.1,0,0,-.1,0,792)" d="M311.602 1904.5H511.602V2104.5H311.602Z" fill="#edd4bd"/>
<path transform="matrix(.1,0,0,-.1,0,792)" stroke-width="1" stroke-linecap="butt" stroke-miterlimit="10" stroke-linejoin="miter" fill="none" stroke="#000000" d="M311.602 1904.5H511.602V2104.5H311.602Z"/>
<path transform="matrix(.1,0,0,-.1,0,792)" d="M511.602 1904.5H311.602V2870.2H111.602V1704.5H511.602"/>
<path transform="matrix(.1,0,0,-.1,0,792)" stroke-width="1" stroke-linecap="butt" stroke-miterlimit="10" stroke-linejoin="miter" fill="none" stroke="#000000" d="M511.602 1904.5H311.602V2870.2H111.602V1704.5H511.602Z"/>
<path transform="matrix(.1,0,0,-.1,0,792)" d="M511.602 738.801V338.801H711.602V538.801H1677.3V738.801H911.602" fill="#ba3d45"/>
<path transform="matrix(.1,0,0,-.1,0,792)" stroke-width="1" stroke-linecap="butt" stroke-miterlimit="10" stroke-linejoin="miter" fill="none" stroke="#000000" d="M511.602 738.801V338.801H711.602V538.801H1677.3V738.801H911.602Z"/>
<path transform="matrix(.1,0,0,-.1,0,792)" d="M1877.3 738.801V538.801H2077.3V-261.199H2477.3V-61.1992H2277.3V738.801" fill="#ba3d45"/>
<path transform="matrix(.1,0,0,-.1,0,792)" stroke-width="1" stroke-linecap="butt" stroke-miterlimit="10" stroke-linejoin="miter" fill="none" stroke="#000000" d="M1877.3 738.801V538.801H2077.3V-261.199H2477.3V-61.1992H2277.3V738.801Z"/>
<path transform="matrix(.1,0,0,-.1,0,792)" d="M3643 738.801V338.801H3843V538.801H4808.6V738.801H4043" fill="#ba3d45"/>
<path transform="matrix(.1,0,0,-.1,0,792)" stroke-width="1" stroke-linecap="butt" stroke-miterlimit="10" stroke-linejoin="miter" fill="none" stroke="#000000" d="M3643 738.801V338.801H3843V538.801H4808.6V738.801H4043Z"/>
<path transform="matrix(.1,0,0,-.1,0,792)" d="M5008.6 738.801V538.801H5208.6V-261.199H5608.6V-61.1992H5408.6V738.801" fill="#ba3d45"/>
<path transform="matrix(.1,0,0,-.1,0,792)" stroke-width="1" stroke-linecap="butt" stroke-miterlimit="10" stroke-linejoin="miter" fill="none" stroke="#000000" d="M5008.6 738.801V538.801H5208.6V-261.199H5608.6V-61.1992H5408.6V738.801Z"/>
<path transform="matrix(.1,0,0,-.1,0,792)" d="M5008.6 7767.2H5208.6V7920.001H5008.6Z" fill="#edd4bd"/>
<path transform="matrix(.1,0,0,-.1,0,792)" stroke-width="1" stroke-linecap="butt" stroke-miterlimit="10" stroke-linejoin="miter" fill="none" stroke="#000000" d="M5008.6 7767.2H5208.6V7921.497H5008.6Z"/>
<path transform="matrix(.1,0,0,-.1,0,792)" d="M5008.6 7767.2V7967.2H5808.6V8367.2H5608.6V8167.2H4808.6V7767.2"/>
<path transform="matrix(.1,0,0,-.1,0,792)" stroke-width="1" stroke-linecap="butt" stroke-miterlimit="10" stroke-linejoin="miter" fill="none" stroke="#000000" d="M5008.6 7767.2V7967.2H5808.6V8367.2H5608.6V8167.2H4808.6V7767.2Z"/>
<path transform="matrix(.1,0,0,-.1,0,792)" d="M4808.6 7767.2V8167.2H5208.6V8567.2H5608.6V9132.9H5208.6V9532.9H4808.6V9932.9H4243V9532.9H3843V9132.9H3443V8567.2H3843V8167.2H4243V7767.2" fill="#edd4bd"/>
<path transform="matrix(.1,0,0,-.1,0,792)" stroke-width="1" stroke-linecap="butt" stroke-miterlimit="10" stroke-linejoin="miter" fill="none" stroke="#000000" d="M4808.6 7767.2V8167.2H5208.6V8567.2H5608.6V9132.9H5208.6V9532.9H4808.6V9932.9H4243V9532.9H3843V9132.9H3443V8567.2H3843V8167.2H4243V7767.2Z"/>
<path transform="matrix(.1,0,0,-.1,0,792)" d="M3843 7767.2H4043V7920.001H3843Z" fill="#edd4bd"/>
<path transform="matrix(.1,0,0,-.1,0,792)" stroke-width="1" stroke-linecap="butt" stroke-miterlimit="10" stroke-linejoin="miter" fill="none" stroke="#000000" d="M3843 7767.2H4043V7921.497H3843Z"/>
<path transform="matrix(.1,0,0,-.1,0,792)" d="M1877.3 7767.2H2077.3V7920.001H1877.3Z" fill="#edd4bd"/>
<path transform="matrix(.1,0,0,-.1,0,792)" stroke-width="1" stroke-linecap="butt" stroke-miterlimit="10" stroke-linejoin="miter" fill="none" stroke="#000000" d="M1877.3 7767.2H2077.3V7921.497H1877.3Z"/>
<path transform="matrix(.1,0,0,-.1,0,792)" d="M1877.3 7767.2V7967.2H2677.3V8367.2H2477.3V8167.2H1677.3V7767.2"/>
<path transform="matrix(.1,0,0,-.1,0,792)" stroke-width="1" stroke-linecap="butt" stroke-miterlimit="10" stroke-linejoin="miter" fill="none" stroke="#000000" d="M1877.3 7767.2V7967.2H2677.3V8367.2H2477.3V8167.2H1677.3V7767.2Z"/>
<path transform="matrix(.1,0,0,-.1,0,792)" d="M1677.3 7767.2V8167.2H2077.3V8567.2H2477.3V9132.9H2077.3V9532.9H1677.3V9932.9H1111.6V9532.9H711.602V9132.9H311.602V8567.2H711.602V8167.2H1111.6V7767.2" fill="#edd4bd"/>
<path transform="matrix(.1,0,0,-.1,0,792)" stroke-width="1" stroke-linecap="butt" stroke-miterlimit="10" stroke-linejoin="miter" fill="none" stroke="#000000" d="M1677.3 7767.2V8167.2H2077.3V8567.2H2477.3V9132.9H2077.3V9532.9H1677.3V9932.9H1111.6V9532.9H711.602V9132.9H311.602V8567.2H711.602V8167.2H1111.6V7767.2Z"/>
<path transform="matrix(.1,0,0,-.1,0,792)" d="M711.602 7767.2H911.602V7920.001H711.602Z" fill="#edd4bd"/>
<path transform="matrix(.1,0,0,-.1,0,792)" stroke-width="1" stroke-linecap="butt" stroke-miterlimit="10" stroke-linejoin="miter" fill="none" stroke="#000000" d="M711.602 7767.2H911.602V7921.497H711.602Z"/>
<path transform="matrix(.1,0,0,-.1,0,792)" d="M711.602 338.801H911.602V538.801H711.602Z" fill="#edd4bd"/>
<path transform="matrix(.1,0,0,-.1,0,792)" stroke-width="1" stroke-linecap="butt" stroke-miterlimit="10" stroke-linejoin="miter" fill="none" stroke="#000000" d="M711.602 338.801H911.602V538.801H711.602Z"/>
<path transform="matrix(.1,0,0,-.1,0,792)" d="M911.602 538.801V338.801H111.602V-61.1992H311.602V138.801H1111.6V538.801"/>
<path transform="matrix(.1,0,0,-.1,0,792)" stroke-width="1" stroke-linecap="butt" stroke-miterlimit="10" stroke-linejoin="miter" fill="none" stroke="#000000" d="M911.602 538.801V338.801H111.602V-61.1992H311.602V138.801H1111.6V538.801Z"/>
<path transform="matrix(.1,0,0,-.1,0,792)" d="M1111.6 538.801V138.801H711.602V-261.199H311.602V-826.898H711.602V-1226.9H1111.6V-1626.9H1677.3V-1226.9H2077.3V-826.898H2477.3V-261.199H2077.3V138.801H1677.3V538.801" fill="#edd4bd"/>
<path transform="matrix(.1,0,0,-.1,0,792)" stroke-width="1" stroke-linecap="butt" stroke-miterlimit="10" stroke-linejoin="miter" fill="none" stroke="#000000" d="M1111.6 538.801V138.801H711.602V-261.199H311.602V-826.898H711.602V-1226.9H1111.6V-1626.9H1677.3V-1226.9H2077.3V-826.898H2477.3V-261.199H2077.3V138.801H1677.3V538.801Z"/>
<path transform="matrix(.1,0,0,-.1,0,792)" d="M1877.3 338.801H2077.3V538.801H1877.3Z" fill="#edd4bd"/>
<path transform="matrix(.1,0,0,-.1,0,792)" stroke-width="1" stroke-linecap="butt" stroke-miterlimit="10" stroke-linejoin="miter" fill="none" stroke="#000000" d="M1877.3 338.801H2077.3V538.801H1877.3Z"/>
<path transform="matrix(.1,0,0,-.1,0,792)" d="M3843 338.801H4043V538.801H3843Z" fill="#edd4bd"/>
<path transform="matrix(.1,0,0,-.1,0,792)" stroke-width="1" stroke-linecap="butt" stroke-miterlimit="10" stroke-linejoin="miter" fill="none" stroke="#000000" d="M3843 338.801H4043V538.801H3843Z"/>
<path transform="matrix(.1,0,0,-.1,0,792)" d="M4043 538.801V338.801H3243V-61.1992H3443V138.801H4243V538.801"/>
<path transform="matrix(.1,0,0,-.1,0,792)" stroke-width="1" stroke-linecap="butt" stroke-miterlimit="10" stroke-linejoin="miter" fill="none" stroke="#000000" d="M4043 538.801V338.801H3243V-61.1992H3443V138.801H4243V538.801Z"/>
<path transform="matrix(.1,0,0,-.1,0,792)" d="M4243 538.801V138.801H3843V-261.199H3443V-826.898H3843V-1226.9H4243V-1626.9H4808.6V-1226.9H5208.6V-826.898H5608.6V-261.199H5208.6V138.801H4808.6V538.801" fill="#edd4bd"/>
<path transform="matrix(.1,0,0,-.1,0,792)" stroke-width="1" stroke-linecap="butt" stroke-miterlimit="10" stroke-linejoin="miter" fill="none" stroke="#000000" d="M4243 538.801V138.801H3843V-261.199H3443V-826.898H3843V-1226.9H4243V-1626.9H4808.6V-1226.9H5208.6V-826.898H5608.6V-261.199H5208.6V138.801H4808.6V538.801Z"/>
<path transform="matrix(.1,0,0,-.1,0,792)" d="M5008.6 338.801H5208.6V538.801H5008.6Z" fill="#edd4bd"/>
<path transform="matrix(.1,0,0,-.1,0,792)" stroke-width="1" stroke-linecap="butt" stroke-miterlimit="10" stroke-linejoin="miter" fill="none" stroke="#000000" d="M5008.6 338.801H5208.6V538.801H5008.6Z"/>
<path transform="matrix(.1,0,0,-.1,0,792)" d="M2277.3 338.801V138.801H2477.3V-826.898H2677.3V338.801"/>
<path transform="matrix(.1,0,0,-.1,0,792)" stroke-width="1" stroke-linecap="butt" stroke-miterlimit="10" stroke-linejoin="miter" fill="none" stroke="#000000" d="M2277.3 338.801V138.801H2477.3V-826.898H2677.3V338.801Z"/>
<path transform="matrix(.1,0,0,-.1,0,792)" d="M5408.6 338.801V138.801H5608.6V-826.898H5808.6V338.801"/>
<path transform="matrix(.1,0,0,-.1,0,792)" stroke-width="1" stroke-linecap="butt" stroke-miterlimit="10" stroke-linejoin="miter" fill="none" stroke="#000000" d="M5408.6 338.801V138.801H5608.6V-826.898H5808.6V338.801Z"/>
<path transform="matrix(.1,0,0,-.1,0,792)" d="M5808.6 2304.5H6119.998V2870.199H5808.6Z" fill="#edd4bd"/>
<path transform="matrix(.1,0,0,-.1,0,792)" stroke-width="1" stroke-linecap="butt" stroke-miterlimit="10" stroke-linejoin="miter" fill="none" stroke="#000000" d="M5808.6 2304.5H6121.495V2870.199H5808.6Z"/>
<path transform="matrix(.1,0,0,-.1,0,792)" d="M5808.6 2870.2H6974.3V3270.2H6774.3V3070.2H5808.6" fill="#ba3d45"/>
<path transform="matrix(.1,0,0,-.1,0,792)" stroke-width="1" stroke-linecap="butt" stroke-miterlimit="10" stroke-linejoin="miter" fill="none" stroke="#000000" d="M5808.6 2870.2H6974.3V3270.2H6774.3V3070.2H5808.6Z"/>
<path transform="matrix(.1,0,0,-.1,0,792)" d="M5808.6 5435.9H6119.998V6001.502H5808.6Z" fill="#edd4bd"/>
<path transform="matrix(.1,0,0,-.1,0,792)" stroke-width="1" stroke-linecap="butt" stroke-miterlimit="10" stroke-linejoin="miter" fill="none" stroke="#000000" d="M5808.6 5435.9H6121.495V6001.502H5808.6Z"/>
<path transform="matrix(.1,0,0,-.1,0,792)" d="M5808.6 6001.5H6974.3V6401.5H6774.3V6201.5H5808.6" fill="#ba3d45"/>
<path transform="matrix(.1,0,0,-.1,0,792)" stroke-width="1" stroke-linecap="butt" stroke-miterlimit="10" stroke-linejoin="miter" fill="none" stroke="#000000" d="M5808.6 6001.5H6974.3V6401.5H6774.3V6201.5H5808.6Z"/>
<path transform="matrix(.1,0,0,-.1,0,792)" d="M0 5435.9H111.602V6001.502H0Z" fill="#edd4bd"/>
<path transform="matrix(.1,0,0,-.1,0,792)" stroke-width="1" stroke-linecap="butt" stroke-miterlimit="10" stroke-linejoin="miter" fill="none" stroke="#000000" d="M-1.49609 5435.9H111.601909V6001.502H-1.49609Z"/>
<path transform="matrix(.1,0,0,-.1,0,792)" d="M111.602 5435.9H-1054.1V5035.9H-854.102V5235.9H111.602" fill="#ba3d45"/>
<path transform="matrix(.1,0,0,-.1,0,792)" stroke-width="1" stroke-linecap="butt" stroke-miterlimit="10" stroke-linejoin="miter" fill="none" stroke="#000000" d="M111.602 5435.9H-1054.1V5035.9H-854.102V5235.9H111.602Z"/>
<path transform="matrix(.1,0,0,-.1,0,792)" d="M0 2304.5H111.602V2870.199H0Z" fill="#edd4bd"/>
<path transform="matrix(.1,0,0,-.1,0,792)" stroke-width="1" stroke-linecap="butt" stroke-miterlimit="10" stroke-linejoin="miter" fill="none" stroke="#000000" d="M-1.49609 2304.5H111.601909V2870.199H-1.49609Z"/>
<path transform="matrix(.1,0,0,-.1,0,792)" d="M111.602 2304.5H-1054.1V1904.5H-854.102V2104.5H111.602" fill="#ba3d45"/>
<path transform="matrix(.1,0,0,-.1,0,792)" stroke-width="1" stroke-linecap="butt" stroke-miterlimit="10" stroke-linejoin="miter" fill="none" stroke="#000000" d="M111.602 2304.5H-1054.1V1904.5H-854.102V2104.5H111.602Z"/>
<path transform="matrix(.1,0,0,-.1,0,792)" d="M311.602 0H511.602V138.801H311.602Z" fill="#edd4bd"/>
<path transform="matrix(.1,0,0,-.1,0,792)" stroke-width="1" stroke-linecap="butt" stroke-miterlimit="10" stroke-linejoin="miter" fill="none" stroke="#000000" d="M311.602-1.49609H511.602V138.8009H311.602Z"/>
<path transform="matrix(.1,0,0,-.1,0,792)" d="M511.602 138.801V-61.1992H-454.102V-261.199H711.602V138.801" fill="#ba3d45"/>
<path transform="matrix(.1,0,0,-.1,0,792)" stroke-width="1" stroke-linecap="butt" stroke-miterlimit="10" stroke-linejoin="miter" fill="none" stroke="#000000" d="M511.602 138.801V-61.1992H-454.102V-261.199H711.602V138.801Z"/>
<path transform="matrix(.1,0,0,-.1,0,792)" d="M2277.3 0H2477.3V138.801H2277.3Z" fill="#edd4bd"/>
<path transform="matrix(.1,0,0,-.1,0,792)" stroke-width="1" stroke-linecap="butt" stroke-miterlimit="10" stroke-linejoin="miter" fill="none" stroke="#000000" d="M2277.3-1.49609H2477.3V138.8009H2277.3Z"/>
<path transform="matrix(.1,0,0,-.1,0,792)" d="M3443 0H3643V138.801H3443Z" fill="#edd4bd"/>
<path transform="matrix(.1,0,0,-.1,0,792)" stroke-width="1" stroke-linecap="butt" stroke-miterlimit="10" stroke-linejoin="miter" fill="none" stroke="#000000" d="M3443-1.49609H3643V138.8009H3443Z"/>
<path transform="matrix(.1,0,0,-.1,0,792)" d="M3643 138.801V-61.1992H2677.3V-261.199H3843V138.801" fill="#ba3d45"/>
<path transform="matrix(.1,0,0,-.1,0,792)" stroke-width="1" stroke-linecap="butt" stroke-miterlimit="10" stroke-linejoin="miter" fill="none" stroke="#000000" d="M3643 138.801V-61.1992H2677.3V-261.199H3843V138.801Z"/>
<path transform="matrix(.1,0,0,-.1,0,792)" d="M5408.6 0H5608.6V138.801H5408.6Z" fill="#edd4bd"/>
<path transform="matrix(.1,0,0,-.1,0,792)" stroke-width="1" stroke-linecap="butt" stroke-miterlimit="10" stroke-linejoin="miter" fill="none" stroke="#000000" d="M5408.6-1.49609H5608.6V138.8009H5408.6Z"/>
<path transform="matrix(.1,0,0,-.1,0,792)" d="M5808.6-61.1992V-261.199H6974.3V138.801H6774.3V-61.1992H6374.3" fill="#ba3d45"/>
<path transform="matrix(.1,0,0,-.1,0,792)" stroke-width="1" stroke-linecap="butt" stroke-miterlimit="10" stroke-linejoin="miter" fill="none" stroke="#000000" d="M5808.6-61.1992V-261.199H6974.3V138.801H6774.3V-61.1992H6374.3Z"/>
</svg>
