<svg xmlns="http://www.w3.org/2000/svg" xmlns:xlink="http://www.w3.org/1999/xlink" xmlns:inkscape="http://www.inkscape.org/namespaces/inkscape" version="1.1" width="612" height="792" viewBox="0 0 612 792">
<path transform="matrix(.1,0,0,-.1,0,792)" d="M2975 3170.8 3425 3950.2 2975 4729.6 2525 3950.2Z" fill="#ffffff"/>
<path transform="matrix(.1,0,0,-.1,0,792)" stroke-width="1" stroke-linecap="butt" stroke-miterlimit="10" stroke-linejoin="miter" fill="none" stroke="#000000" d="M2975 3170.8 3425 3950.2 2975 4729.6 2525 3950.2Z"/>
<path transform="matrix(.1,0,0,-.1,0,792)" d="M2975 4729.6 2525 5509 2075 4729.6 2525 3950.2Z" fill="#b5e8ad"/>
<path transform="matrix(.1,0,0,-.1,0,792)" stroke-width="1" stroke-linecap="butt" stroke-miterlimit="10" stroke-linejoin="miter" fill="none" stroke="#000000" d="M2975 4729.6 2525 5509 2075 4729.6 2525 3950.2Z"/>
<path transform="matrix(.1,0,0,-.1,0,792)" d="M2975 4729.6 3425 5509 2975 6288.5 2525 5509Z" fill="#ffffff"/>
<path transform="matrix(.1,0,0,-.1,0,792)" stroke-width="1" stroke-linecap="butt" stroke-miterlimit="10" stroke-linejoin="miter" fill="none" stroke="#000000" d="M2975 4729.6 3425 5509 2975 6288.5 2525 5509Z"/>
<path transform="matrix(.1,0,0,-.1,0,792)" d="M2975 4729.6 3425 3950.2 3875 4729.6 3425 5509Z" fill="#b5e8ad"/>
<path transform="matrix(.1,0,0,-.1,0,792)" stroke-width="1" stroke-linecap="butt" stroke-miterlimit="10" stroke-linejoin="miter" fill="none" stroke="#000000" d="M2975 4729.6 3425 3950.2 3875 4729.6 3425 5509Z"/>
<path transform="matrix(.1,0,0,-.1,0,792)" d="M3425 3950.2 3875 3170.8 4325 3950.2 3875 4729.6Z" fill="#ffffff"/>
<path transform="matrix(.1,0,0,-.1,0,792)" stroke-width="1" stroke-linecap="butt" stroke-miterlimit="10" stroke-linejoin="miter" fill="none" stroke="#000000" d="M3425 3950.2 3875 3170.8 4325 3950.2 3875 4729.6Z"/>
<path transform="matrix(.1,0,0,-.1,0,792)" d="M3425 3950.2 2975 3170.8 3425 2391.3 3875 3170.8Z" fill="#b5e8ad"/>
<path transform="matrix(.1,0,0,-.1,0,792)" stroke-width="1" stroke-linecap="butt" stroke-miterlimit="10" stroke-linejoin="miter" fill="none" stroke="#000000" d="M3425 3950.2 2975 3170.8 3425 2391.3 3875 3170.8Z"/>
<path transform="matrix(.1,0,0,-.1,0,792)" d="M2525 3950.2 2075 3170.8 2525 2391.3 2975 3170.8Z" fill="#b5e8ad"/>
<path transform="matrix(.1,0,0,-.1,0,792)" stroke-width="1" stroke-linecap="butt" stroke-miterlimit="10" stroke-linejoin="miter" fill="none" stroke="#000000" d="M2525 3950.2 2075 3170.8 2525 2391.3 2975 3170.8Z"/>
<path transform="matrix(.1,0,0,-.1,0,792)" d="M2525 3950.2 2075 4729.6 1625 3950.2 2075 3170.8Z" fill="#ffffff"/>
<path transform="matrix(.1,0,0,-.1,0,792)" stroke-width="1" stroke-linecap="butt" stroke-miterlimit="10" stroke-linejoin="miter" fill="none" stroke="#000000" d="M2525 3950.2 2075 4729.6 1625 3950.2 2075 3170.8Z"/>
<path transform="matrix(.1,0,0,-.1,0,792)" d="M2975 3170.8 2525 2391.3 2975 1611.9 3425 2391.3Z" fill="#ffffff"/>
<path transform="matrix(.1,0,0,-.1,0,792)" stroke-width="1" stroke-linecap="butt" stroke-miterlimit="10" stroke-linejoin="miter" fill="none" stroke="#000000" d="M2975 3170.8 2525 2391.3 2975 1611.9 3425 2391.3Z"/>
<path transform="matrix(.1,0,0,-.1,0,792)" d="M2075 3170.8 1625 2391.3 2075 1611.9 2525 2391.3Z" fill="#ffffff"/>
<path transform="matrix(.1,0,0,-.1,0,792)" stroke-width="1" stroke-linecap="butt" stroke-miterlimit="10" stroke-linejoin="miter" fill="none" stroke="#000000" d="M2075 3170.8 1625 2391.3 2075 1611.9 2525 2391.3Z"/>
<path transform="matrix(.1,0,0,-.1,0,792)" d="M2075 3170.8 1625 3950.2 1175 3170.8 1625 2391.3Z" fill="#b5e8ad"/>
<path transform="matrix(.1,0,0,-.1,0,792)" stroke-width="1" stroke-linecap="butt" stroke-miterlimit="10" stroke-linejoin="miter" fill="none" stroke="#000000" d="M2075 3170.8 1625 3950.2 1175 3170.8 1625 2391.3Z"/>
<path transform="matrix(.1,0,0,-.1,0,792)" d="M2075 4729.6 1625 5509 1175 4729.6 1625 3950.2Z" fill="#b5e8ad"/>
<path transform="matrix(.1,0,0,-.1,0,792)" stroke-width="1" stroke-linecap="butt" stroke-miterlimit="10" stroke-linejoin="miter" fill="none" stroke="#000000" d="M2075 4729.6 1625 5509 1175 4729.6 1625 3950.2Z"/>
<path transform="matrix(.1,0,0,-.1,0,792)" d="M2075 4729.6 2525 5509 2075 6288.5 1625 5509Z" fill="#ffffff"/>
<path transform="matrix(.1,0,0,-.1,0,792)" stroke-width="1" stroke-linecap="butt" stroke-miterlimit="10" stroke-linejoin="miter" fill="none" stroke="#000000" d="M2075 4729.6 2525 5509 2075 6288.5 1625 5509Z"/>
<path transform="matrix(.1,0,0,-.1,0,792)" d="M3875 3170.8 4325 2391.3 4775 3170.8 4325 3950.2Z" fill="#b5e8ad"/>
<path transform="matrix(.1,0,0,-.1,0,792)" stroke-width="1" stroke-linecap="butt" stroke-miterlimit="10" stroke-linejoin="miter" fill="none" stroke="#000000" d="M3875 3170.8 4325 2391.3 4775 3170.8 4325 3950.2Z"/>
<path transform="matrix(.1,0,0,-.1,0,792)" d="M3875 3170.8 3425 2391.3 3875 1611.9 4325 2391.3Z" fill="#ffffff"/>
<path transform="matrix(.1,0,0,-.1,0,792)" stroke-width="1" stroke-linecap="butt" stroke-miterlimit="10" stroke-linejoin="miter" fill="none" stroke="#000000" d="M3875 3170.8 3425 2391.3 3875 1611.9 4325 2391.3Z"/>
<path transform="matrix(.1,0,0,-.1,0,792)" d="M3875 4729.6 4325 5509 3875 6288.5 3425 5509Z" fill="#ffffff"/>
<path transform="matrix(.1,0,0,-.1,0,792)" stroke-width="1" stroke-linecap="butt" stroke-miterlimit="10" stroke-linejoin="miter" fill="none" stroke="#000000" d="M3875 4729.6 4325 5509 3875 6288.5 3425 5509Z"/>
<path transform="matrix(.1,0,0,-.1,0,792)" d="M3875 4729.6 4325 3950.2 4775 4729.6 4325 5509Z" fill="#b5e8ad"/>
<path transform="matrix(.1,0,0,-.1,0,792)" stroke-width="1" stroke-linecap="butt" stroke-miterlimit="10" stroke-linejoin="miter" fill="none" stroke="#000000" d="M3875 4729.6 4325 3950.2 4775 4729.6 4325 5509Z"/>
<path transform="matrix(.1,0,0,-.1,0,792)" d="M3425 5509 3875 6288.5 3425 7067.9 2975 6288.5Z" fill="#b5e8ad"/>
<path transform="matrix(.1,0,0,-.1,0,792)" stroke-width="1" stroke-linecap="butt" stroke-miterlimit="10" stroke-linejoin="miter" fill="none" stroke="#000000" d="M3425 5509 3875 6288.5 3425 7067.9 2975 6288.5Z"/>
<path transform="matrix(.1,0,0,-.1,0,792)" d="M2525 5509 2975 6288.5 2525 7067.9 2075 6288.5Z" fill="#b5e8ad"/>
<path transform="matrix(.1,0,0,-.1,0,792)" stroke-width="1" stroke-linecap="butt" stroke-miterlimit="10" stroke-linejoin="miter" fill="none" stroke="#000000" d="M2525 5509 2975 6288.5 2525 7067.9 2075 6288.5Z"/>
<path transform="matrix(.1,0,0,-.1,0,792)" d="M2525 2391.3 2075 1611.9 2525 832.5 2975 1611.9Z" fill="#b5e8ad"/>
<path transform="matrix(.1,0,0,-.1,0,792)" stroke-width="1" stroke-linecap="butt" stroke-miterlimit="10" stroke-linejoin="miter" fill="none" stroke="#000000" d="M2525 2391.3 2075 1611.9 2525 832.5 2975 1611.9Z"/>
<path transform="matrix(.1,0,0,-.1,0,792)" d="M3425 2391.3 2975 1611.9 3425 832.5 3875 1611.9Z" fill="#b5e8ad"/>
<path transform="matrix(.1,0,0,-.1,0,792)" stroke-width="1" stroke-linecap="butt" stroke-miterlimit="10" stroke-linejoin="miter" fill="none" stroke="#000000" d="M3425 2391.3 2975 1611.9 3425 832.5 3875 1611.9Z"/>
<path transform="matrix(.1,0,0,-.1,0,792)" d="M4325 2391.3 4775 1611.9 5225 2391.3 4775 3170.8Z" fill="#ffffff"/>
<path transform="matrix(.1,0,0,-.1,0,792)" stroke-width="1" stroke-linecap="butt" stroke-miterlimit="10" stroke-linejoin="miter" fill="none" stroke="#000000" d="M4325 2391.3 4775 1611.9 5225 2391.3 4775 3170.8Z"/>
<path transform="matrix(.1,0,0,-.1,0,792)" d="M4325 2391.3 3875 1611.9 4325 832.5 4775 1611.9Z" fill="#b5e8ad"/>
<path transform="matrix(.1,0,0,-.1,0,792)" stroke-width="1" stroke-linecap="butt" stroke-miterlimit="10" stroke-linejoin="miter" fill="none" stroke="#000000" d="M4325 2391.3 3875 1611.9 4325 832.5 4775 1611.9Z"/>
<path transform="matrix(.1,0,0,-.1,0,792)" d="M4325 3950.2 4775 3170.8 5225 3950.2 4775 4729.6Z" fill="#ffffff"/>
<path transform="matrix(.1,0,0,-.1,0,792)" stroke-width="1" stroke-linecap="butt" stroke-miterlimit="10" stroke-linejoin="miter" fill="none" stroke="#000000" d="M4325 3950.2 4775 3170.8 5225 3950.2 4775 4729.6Z"/>
<path transform="matrix(.1,0,0,-.1,0,792)" d="M4325 5509 4775 6288.5 4325 7067.9 3875 6288.5Z" fill="#b5e8ad"/>
<path transform="matrix(.1,0,0,-.1,0,792)" stroke-width="1" stroke-linecap="butt" stroke-miterlimit="10" stroke-linejoin="miter" fill="none" stroke="#000000" d="M4325 5509 4775 6288.5 4325 7067.9 3875 6288.5Z"/>
<path transform="matrix(.1,0,0,-.1,0,792)" d="M4325 5509 4775 4729.6 5225 5509 4775 6288.5Z" fill="#ffffff"/>
<path transform="matrix(.1,0,0,-.1,0,792)" stroke-width="1" stroke-linecap="butt" stroke-miterlimit="10" stroke-linejoin="miter" fill="none" stroke="#000000" d="M4325 5509 4775 4729.6 5225 5509 4775 6288.5Z"/>
<path transform="matrix(.1,0,0,-.1,0,792)" d="M1625 5509 1175 6288.5 725 5509 1175 4729.6Z" fill="#ffffff"/>
<path transform="matrix(.1,0,0,-.1,0,792)" stroke-width="1" stroke-linecap="butt" stroke-miterlimit="10" stroke-linejoin="miter" fill="none" stroke="#000000" d="M1625 5509 1175 6288.5 725 5509 1175 4729.6Z"/>
<path transform="matrix(.1,0,0,-.1,0,792)" d="M1625 5509 2075 6288.5 1625 7067.9 1175 6288.5Z" fill="#b5e8ad"/>
<path transform="matrix(.1,0,0,-.1,0,792)" stroke-width="1" stroke-linecap="butt" stroke-miterlimit="10" stroke-linejoin="miter" fill="none" stroke="#000000" d="M1625 5509 2075 6288.5 1625 7067.9 1175 6288.5Z"/>
<path transform="matrix(.1,0,0,-.1,0,792)" d="M1625 3950.2 1175 4729.6 725 3950.2 1175 3170.8Z" fill="#ffffff"/>
<path transform="matrix(.1,0,0,-.1,0,792)" stroke-width="1" stroke-linecap="butt" stroke-miterlimit="10" stroke-linejoin="miter" fill="none" stroke="#000000" d="M1625 3950.2 1175 4729.6 725 3950.2 1175 3170.8Z"/>
<path transform="matrix(.1,0,0,-.1,0,792)" d="M1625 2391.3 1175 1611.9 1625 832.5 2075 1611.9Z" fill="#b5e8ad"/>
<path transform="matrix(.1,0,0,-.1,0,792)" stroke-width="1" stroke-linecap="butt" stroke-miterlimit="10" stroke-linejoin="miter" fill="none" stroke="#000000" d="M1625 2391.3 1175 1611.9 1625 832.5 2075 1611.9Z"/>
<path transform="matrix(.1,0,0,-.1,0,792)" d="M1625 2391.3 1175 3170.8 725 2391.3 1175 1611.9Z" fill="#ffffff"/>
<path transform="matrix(.1,0,0,-.1,0,792)" stroke-width="1" stroke-linecap="butt" stroke-miterlimit="10" stroke-linejoin="miter" fill="none" stroke="#000000" d="M1625 2391.3 1175 3170.8 725 2391.3 1175 1611.9Z"/>
<path transform="matrix(.1,0,0,-.1,0,792)" d="M3875 6288.5 4325 7067.9 3875 7847.3 3425 7067.9Z" fill="#ffffff"/>
<path transform="matrix(.1,0,0,-.1,0,792)" stroke-width="1" stroke-linecap="butt" stroke-miterlimit="10" stroke-linejoin="miter" fill="none" stroke="#000000" d="M3875 6288.5 4325 7067.9 3875 7847.3 3425 7067.9Z"/>
<path transform="matrix(.1,0,0,-.1,0,792)" d="M2975 6288.5 3425 7067.9 2975 7847.3 2525 7067.9Z" fill="#ffffff"/>
<path transform="matrix(.1,0,0,-.1,0,792)" stroke-width="1" stroke-linecap="butt" stroke-miterlimit="10" stroke-linejoin="miter" fill="none" stroke="#000000" d="M2975 6288.5 3425 7067.9 2975 7847.3 2525 7067.9Z"/>
<path transform="matrix(.1,0,0,-.1,0,792)" d="M2075 6288.5 2525 7067.9 2075 7847.3 1625 7067.9Z" fill="#ffffff"/>
<path transform="matrix(.1,0,0,-.1,0,792)" stroke-width="1" stroke-linecap="butt" stroke-miterlimit="10" stroke-linejoin="miter" fill="none" stroke="#000000" d="M2075 6288.5 2525 7067.9 2075 7847.3 1625 7067.9Z"/>
<path transform="matrix(.1,0,0,-.1,0,792)" d="M1175 6288.5 725 7067.9 275 6288.5 725 5509Z" fill="#b5e8ad"/>
<path transform="matrix(.1,0,0,-.1,0,792)" stroke-width="1" stroke-linecap="butt" stroke-miterlimit="10" stroke-linejoin="miter" fill="none" stroke="#000000" d="M1175 6288.5 725 7067.9 275 6288.5 725 5509Z"/>
<path transform="matrix(.1,0,0,-.1,0,792)" d="M1175 6288.5 1625 7067.9 1175 7847.3 725 7067.9Z" fill="#ffffff"/>
<path transform="matrix(.1,0,0,-.1,0,792)" stroke-width="1" stroke-linecap="butt" stroke-miterlimit="10" stroke-linejoin="miter" fill="none" stroke="#000000" d="M1175 6288.5 1625 7067.9 1175 7847.3 725 7067.9Z"/>
<path transform="matrix(.1,0,0,-.1,0,792)" d="M1175 4729.6 725 5509 275 4729.6 725 3950.2Z" fill="#b5e8ad"/>
<path transform="matrix(.1,0,0,-.1,0,792)" stroke-width="1" stroke-linecap="butt" stroke-miterlimit="10" stroke-linejoin="miter" fill="none" stroke="#000000" d="M1175 4729.6 725 5509 275 4729.6 725 3950.2Z"/>
<path transform="matrix(.1,0,0,-.1,0,792)" d="M1175 3170.8 725 3950.2 275 3170.8 725 2391.3Z" fill="#b5e8ad"/>
<path transform="matrix(.1,0,0,-.1,0,792)" stroke-width="1" stroke-linecap="butt" stroke-miterlimit="10" stroke-linejoin="miter" fill="none" stroke="#000000" d="M1175 3170.8 725 3950.2 275 3170.8 725 2391.3Z"/>
<path transform="matrix(.1,0,0,-.1,0,792)" d="M4775 3170.8 5225 2391.3 5675 3170.8 5225 3950.2Z" fill="#b5e8ad"/>
<path transform="matrix(.1,0,0,-.1,0,792)" stroke-width="1" stroke-linecap="butt" stroke-miterlimit="10" stroke-linejoin="miter" fill="none" stroke="#000000" d="M4775 3170.8 5225 2391.3 5675 3170.8 5225 3950.2Z"/>
<path transform="matrix(.1,0,0,-.1,0,792)" d="M4775 4729.6 5225 3950.2 5675 4729.6 5225 5509Z" fill="#b5e8ad"/>
<path transform="matrix(.1,0,0,-.1,0,792)" stroke-width="1" stroke-linecap="butt" stroke-miterlimit="10" stroke-linejoin="miter" fill="none" stroke="#000000" d="M4775 4729.6 5225 3950.2 5675 4729.6 5225 5509Z"/>
<path transform="matrix(.1,0,0,-.1,0,792)" d="M4775 6288.5 5225 7067.9 4775 7847.3 4325 7067.9Z" fill="#ffffff"/>
<path transform="matrix(.1,0,0,-.1,0,792)" stroke-width="1" stroke-linecap="butt" stroke-miterlimit="10" stroke-linejoin="miter" fill="none" stroke="#000000" d="M4775 6288.5 5225 7067.9 4775 7847.3 4325 7067.9Z"/>
<path transform="matrix(.1,0,0,-.1,0,792)" d="M4775 6288.5 5225 5509 5675 6288.5 5225 7067.9Z" fill="#b5e8ad"/>
<path transform="matrix(.1,0,0,-.1,0,792)" stroke-width="1" stroke-linecap="butt" stroke-miterlimit="10" stroke-linejoin="miter" fill="none" stroke="#000000" d="M4775 6288.5 5225 5509 5675 6288.5 5225 7067.9Z"/>
<path transform="matrix(.1,0,0,-.1,0,792)" d="M1175 1611.9 725 832.5 1175 53.1016 1625 832.5Z" fill="#ffffff"/>
<path transform="matrix(.1,0,0,-.1,0,792)" stroke-width="1" stroke-linecap="butt" stroke-miterlimit="10" stroke-linejoin="miter" fill="none" stroke="#000000" d="M1175 1611.9 725 832.5 1175 53.1016 1625 832.5Z"/>
<path transform="matrix(.1,0,0,-.1,0,792)" d="M1175 1611.9 725 2391.3 275 1611.9 725 832.5Z" fill="#b5e8ad"/>
<path transform="matrix(.1,0,0,-.1,0,792)" stroke-width="1" stroke-linecap="butt" stroke-miterlimit="10" stroke-linejoin="miter" fill="none" stroke="#000000" d="M1175 1611.9 725 2391.3 275 1611.9 725 832.5Z"/>
<path transform="matrix(.1,0,0,-.1,0,792)" d="M2075 1611.9 1625 832.5 2075 53.1016 2525 832.5Z" fill="#ffffff"/>
<path transform="matrix(.1,0,0,-.1,0,792)" stroke-width="1" stroke-linecap="butt" stroke-miterlimit="10" stroke-linejoin="miter" fill="none" stroke="#000000" d="M2075 1611.9 1625 832.5 2075 53.1016 2525 832.5Z"/>
<path transform="matrix(.1,0,0,-.1,0,792)" d="M2975 1611.9 2525 832.5 2975 53.1016 3425 832.5Z" fill="#ffffff"/>
<path transform="matrix(.1,0,0,-.1,0,792)" stroke-width="1" stroke-linecap="butt" stroke-miterlimit="10" stroke-linejoin="miter" fill="none" stroke="#000000" d="M2975 1611.9 2525 832.5 2975 53.1016 3425 832.5Z"/>
<path transform="matrix(.1,0,0,-.1,0,792)" d="M3875 1611.9 3425 832.5 3875 53.1016 4325 832.5Z" fill="#ffffff"/>
<path transform="matrix(.1,0,0,-.1,0,792)" stroke-width="1" stroke-linecap="butt" stroke-miterlimit="10" stroke-linejoin="miter" fill="none" stroke="#000000" d="M3875 1611.9 3425 832.5 3875 53.1016 4325 832.5Z"/>
<path transform="matrix(.1,0,0,-.1,0,792)" d="M4775 1611.9 5225 832.5 5675 1611.9 5225 2391.3Z" fill="#b5e8ad"/>
<path transform="matrix(.1,0,0,-.1,0,792)" stroke-width="1" stroke-linecap="butt" stroke-miterlimit="10" stroke-linejoin="miter" fill="none" stroke="#000000" d="M4775 1611.9 5225 832.5 5675 1611.9 5225 2391.3Z"/>
<path transform="matrix(.1,0,0,-.1,0,792)" d="M4775 1611.9 4325 832.5 4775 53.1016 5225 832.5Z" fill="#ffffff"/>
<path transform="matrix(.1,0,0,-.1,0,792)" stroke-width="1" stroke-linecap="butt" stroke-miterlimit="10" stroke-linejoin="miter" fill="none" stroke="#000000" d="M4775 1611.9 4325 832.5 4775 53.1016 5225 832.5Z"/>
<path transform="matrix(.1,0,0,-.1,0,792)" d="M4325 7067.9 4775 7847.3 4325 8626.7 3875 7847.3Z" fill="#b5e8ad"/>
<path transform="matrix(.1,0,0,-.1,0,792)" stroke-width="1" stroke-linecap="butt" stroke-miterlimit="10" stroke-linejoin="miter" fill="none" stroke="#000000" d="M4325 7067.9 4775 7847.3 4325 8626.7 3875 7847.3Z"/>
<path transform="matrix(.1,0,0,-.1,0,792)" d="M3425 7067.9 3875 7847.3 3425 8626.7 2975 7847.3Z" fill="#b5e8ad"/>
<path transform="matrix(.1,0,0,-.1,0,792)" stroke-width="1" stroke-linecap="butt" stroke-miterlimit="10" stroke-linejoin="miter" fill="none" stroke="#000000" d="M3425 7067.9 3875 7847.3 3425 8626.7 2975 7847.3Z"/>
<path transform="matrix(.1,0,0,-.1,0,792)" d="M2525 7067.9 2975 7847.3 2525 8626.7 2075 7847.3Z" fill="#b5e8ad"/>
<path transform="matrix(.1,0,0,-.1,0,792)" stroke-width="1" stroke-linecap="butt" stroke-miterlimit="10" stroke-linejoin="miter" fill="none" stroke="#000000" d="M2525 7067.9 2975 7847.3 2525 8626.7 2075 7847.3Z"/>
<path transform="matrix(.1,0,0,-.1,0,792)" d="M1625 7067.9 2075 7847.3 1625 8626.7 1175 7847.3Z" fill="#b5e8ad"/>
<path transform="matrix(.1,0,0,-.1,0,792)" stroke-width="1" stroke-linecap="butt" stroke-miterlimit="10" stroke-linejoin="miter" fill="none" stroke="#000000" d="M1625 7067.9 2075 7847.3 1625 8626.7 1175 7847.3Z"/>
<path transform="matrix(.1,0,0,-.1,0,792)" d="M725 7067.9 275 7847.3-175 7067.9 275 6288.5Z" fill="#ffffff"/>
<path transform="matrix(.1,0,0,-.1,0,792)" stroke-width="1" stroke-linecap="butt" stroke-miterlimit="10" stroke-linejoin="miter" fill="none" stroke="#000000" d="M725 7067.9 275 7847.3-175 7067.9 275 6288.5Z"/>
<path transform="matrix(.1,0,0,-.1,0,792)" d="M725 7067.9 1175 7847.3 725 8626.7 275 7847.3Z" fill="#b5e8ad"/>
<path transform="matrix(.1,0,0,-.1,0,792)" stroke-width="1" stroke-linecap="butt" stroke-miterlimit="10" stroke-linejoin="miter" fill="none" stroke="#000000" d="M725 7067.9 1175 7847.3 725 8626.7 275 7847.3Z"/>
<path transform="matrix(.1,0,0,-.1,0,792)" d="M725 5509 275 6288.5-175 5509 275 4729.6Z" fill="#ffffff"/>
<path transform="matrix(.1,0,0,-.1,0,792)" stroke-width="1" stroke-linecap="butt" stroke-miterlimit="10" stroke-linejoin="miter" fill="none" stroke="#000000" d="M725 5509 275 6288.5-175 5509 275 4729.6Z"/>
<path transform="matrix(.1,0,0,-.1,0,792)" d="M725 3950.2 275 4729.6-175 3950.2 275 3170.8Z" fill="#ffffff"/>
<path transform="matrix(.1,0,0,-.1,0,792)" stroke-width="1" stroke-linecap="butt" stroke-miterlimit="10" stroke-linejoin="miter" fill="none" stroke="#000000" d="M725 3950.2 275 4729.6-175 3950.2 275 3170.8Z"/>
<path transform="matrix(.1,0,0,-.1,0,792)" d="M725 2391.3 275 3170.8-175 2391.3 275 1611.9Z" fill="#ffffff"/>
<path transform="matrix(.1,0,0,-.1,0,792)" stroke-width="1" stroke-linecap="butt" stroke-miterlimit="10" stroke-linejoin="miter" fill="none" stroke="#000000" d="M725 2391.3 275 3170.8-175 2391.3 275 1611.9Z"/>
<path transform="matrix(.1,0,0,-.1,0,792)" d="M5225 2391.3 5675 1611.9 6125 2391.3 5675 3170.8Z" fill="#ffffff"/>
<path transform="matrix(.1,0,0,-.1,0,792)" stroke-width="1" stroke-linecap="butt" stroke-miterlimit="10" stroke-linejoin="miter" fill="none" stroke="#000000" d="M5225 2391.3 5675 1611.9 6125 2391.3 5675 3170.8Z"/>
<path transform="matrix(.1,0,0,-.1,0,792)" d="M5225 3950.2 5675 3170.8 6125 3950.2 5675 4729.6Z" fill="#ffffff"/>
<path transform="matrix(.1,0,0,-.1,0,792)" stroke-width="1" stroke-linecap="butt" stroke-miterlimit="10" stroke-linejoin="miter" fill="none" stroke="#000000" d="M5225 3950.2 5675 3170.8 6125 3950.2 5675 4729.6Z"/>
<path transform="matrix(.1,0,0,-.1,0,792)" d="M5225 5509 5675 4729.6 6125 5509 5675 6288.5Z" fill="#ffffff"/>
<path transform="matrix(.1,0,0,-.1,0,792)" stroke-width="1" stroke-linecap="butt" stroke-miterlimit="10" stroke-linejoin="miter" fill="none" stroke="#000000" d="M5225 5509 5675 4729.6 6125 5509 5675 6288.5Z"/>
<path transform="matrix(.1,0,0,-.1,0,792)" d="M5225 7067.9 5675 7847.3 5225 8626.7 4775 7847.3Z" fill="#b5e8ad"/>
<path transform="matrix(.1,0,0,-.1,0,792)" stroke-width="1" stroke-linecap="butt" stroke-miterlimit="10" stroke-linejoin="miter" fill="none" stroke="#000000" d="M5225 7067.9 5675 7847.3 5225 8626.7 4775 7847.3Z"/>
<path transform="matrix(.1,0,0,-.1,0,792)" d="M5225 7067.9 5675 6288.5 6125 7067.9 5675 7847.3Z" fill="#ffffff"/>
<path transform="matrix(.1,0,0,-.1,0,792)" stroke-width="1" stroke-linecap="butt" stroke-miterlimit="10" stroke-linejoin="miter" fill="none" stroke="#000000" d="M5225 7067.9 5675 6288.5 6125 7067.9 5675 7847.3Z"/>
<path transform="matrix(.1,0,0,-.1,0,792)" d="M725 832.5 275 53.1016 725-726.301 1175 53.1016Z" fill="#b5e8ad"/>
<path transform="matrix(.1,0,0,-.1,0,792)" stroke-width="1" stroke-linecap="butt" stroke-miterlimit="10" stroke-linejoin="miter" fill="none" stroke="#000000" d="M725 832.5 275 53.1016 725-726.301 1175 53.1016Z"/>
<path transform="matrix(.1,0,0,-.1,0,792)" d="M725 832.5 275 1611.9-175 832.5 275 53.1016Z" fill="#ffffff"/>
<path transform="matrix(.1,0,0,-.1,0,792)" stroke-width="1" stroke-linecap="butt" stroke-miterlimit="10" stroke-linejoin="miter" fill="none" stroke="#000000" d="M725 832.5 275 1611.9-175 832.5 275 53.1016Z"/>
<path transform="matrix(.1,0,0,-.1,0,792)" d="M1625 832.5 1175 53.1016 1625-726.301 2075 53.1016Z" fill="#b5e8ad"/>
<path transform="matrix(.1,0,0,-.1,0,792)" stroke-width="1" stroke-linecap="butt" stroke-miterlimit="10" stroke-linejoin="miter" fill="none" stroke="#000000" d="M1625 832.5 1175 53.1016 1625-726.301 2075 53.1016Z"/>
<path transform="matrix(.1,0,0,-.1,0,792)" d="M2525 832.5 2075 53.1016 2525-726.301 2975 53.1016Z" fill="#b5e8ad"/>
<path transform="matrix(.1,0,0,-.1,0,792)" stroke-width="1" stroke-linecap="butt" stroke-miterlimit="10" stroke-linejoin="miter" fill="none" stroke="#000000" d="M2525 832.5 2075 53.1016 2525-726.301 2975 53.1016Z"/>
<path transform="matrix(.1,0,0,-.1,0,792)" d="M3425 832.5 2975 53.1016 3425-726.301 3875 53.1016Z" fill="#b5e8ad"/>
<path transform="matrix(.1,0,0,-.1,0,792)" stroke-width="1" stroke-linecap="butt" stroke-miterlimit="10" stroke-linejoin="miter" fill="none" stroke="#000000" d="M3425 832.5 2975 53.1016 3425-726.301 3875 53.1016Z"/>
<path transform="matrix(.1,0,0,-.1,0,792)" d="M4325 832.5 3875 53.1016 4325-726.301 4775 53.1016Z" fill="#b5e8ad"/>
<path transform="matrix(.1,0,0,-.1,0,792)" stroke-width="1" stroke-linecap="butt" stroke-miterlimit="10" stroke-linejoin="miter" fill="none" stroke="#000000" d="M4325 832.5 3875 53.1016 4325-726.301 4775 53.1016Z"/>
<path transform="matrix(.1,0,0,-.1,0,792)" d="M5225 832.5 5675 53.1016 6125 832.5 5675 1611.9Z" fill="#ffffff"/>
<path transform="matrix(.1,0,0,-.1,0,792)" stroke-width="1" stroke-linecap="butt" stroke-miterlimit="10" stroke-linejoin="miter" fill="none" stroke="#000000" d="M5225 832.5 5675 53.1016 6125 832.5 5675 1611.9Z"/>
<path transform="matrix(.1,0,0,-.1,0,792)" d="M5225 832.5 4775 53.1016 5225-726.301 5675 53.1016Z" fill="#b5e8ad"/>
<path transform="matrix(.1,0,0,-.1,0,792)" stroke-width="1" stroke-linecap="butt" stroke-miterlimit="10" stroke-linejoin="miter" fill="none" stroke="#000000" d="M5225 832.5 4775 53.1016 5225-726.301 5675 53.1016Z"/>
<path transform="matrix(.1,0,0,-.1,0,792)" d="M4775 7847.3 5225 8626.7 4775 9406.2 4325 8626.7Z" fill="#ffffff"/>
<path transform="matrix(.1,0,0,-.1,0,792)" stroke-width="1" stroke-linecap="butt" stroke-miterlimit="10" stroke-linejoin="miter" fill="none" stroke="#000000" d="M4775 7847.3 5225 8626.7 4775 9406.2 4325 8626.7Z"/>
<path transform="matrix(.1,0,0,-.1,0,792)" d="M3875 7847.3 4325 8626.7 3875 9406.2 3425 8626.7Z" fill="#ffffff"/>
<path transform="matrix(.1,0,0,-.1,0,792)" stroke-width="1" stroke-linecap="butt" stroke-miterlimit="10" stroke-linejoin="miter" fill="none" stroke="#000000" d="M3875 7847.3 4325 8626.7 3875 9406.2 3425 8626.7Z"/>
<path transform="matrix(.1,0,0,-.1,0,792)" d="M2975 7847.3 3425 8626.7 2975 9406.2 2525 8626.7Z" fill="#ffffff"/>
<path transform="matrix(.1,0,0,-.1,0,792)" stroke-width="1" stroke-linecap="butt" stroke-miterlimit="10" stroke-linejoin="miter" fill="none" stroke="#000000" d="M2975 7847.3 3425 8626.7 2975 9406.2 2525 8626.7Z"/>
<path transform="matrix(.1,0,0,-.1,0,792)" d="M2075 7847.3 2525 8626.7 2075 9406.2 1625 8626.7Z" fill="#ffffff"/>
<path transform="matrix(.1,0,0,-.1,0,792)" stroke-width="1" stroke-linecap="butt" stroke-miterlimit="10" stroke-linejoin="miter" fill="none" stroke="#000000" d="M2075 7847.3 2525 8626.7 2075 9406.2 1625 8626.7Z"/>
<path transform="matrix(.1,0,0,-.1,0,792)" d="M1175 7847.3 1625 8626.7 1175 9406.2 725 8626.7Z" fill="#ffffff"/>
<path transform="matrix(.1,0,0,-.1,0,792)" stroke-width="1" stroke-linecap="butt" stroke-miterlimit="10" stroke-linejoin="miter" fill="none" stroke="#000000" d="M1175 7847.3 1625 8626.7 1175 9406.2 725 8626.7Z"/>
<path transform="matrix(.1,0,0,-.1,0,792)" d="M275 7847.3-175 8626.7-625 7847.3-175 7067.9Z" fill="#b5e8ad"/>
<path transform="matrix(.1,0,0,-.1,0,792)" stroke-width="1" stroke-linecap="butt" stroke-miterlimit="10" stroke-linejoin="miter" fill="none" stroke="#000000" d="M275 7847.3-175 8626.7-625 7847.3-175 7067.9Z"/>
<path transform="matrix(.1,0,0,-.1,0,792)" d="M275 7847.3 725 8626.7 275 9406.2-175 8626.7Z" fill="#ffffff"/>
<path transform="matrix(.1,0,0,-.1,0,792)" stroke-width="1" stroke-linecap="butt" stroke-miterlimit="10" stroke-linejoin="miter" fill="none" stroke="#000000" d="M275 7847.3 725 8626.7 275 9406.2-175 8626.7Z"/>
<path transform="matrix(.1,0,0,-.1,0,792)" d="M275 6288.5-175 7067.9-625 6288.5-175 5509Z" fill="#b5e8ad"/>
<path transform="matrix(.1,0,0,-.1,0,792)" stroke-width="1" stroke-linecap="butt" stroke-miterlimit="10" stroke-linejoin="miter" fill="none" stroke="#000000" d="M275 6288.5-175 7067.9-625 6288.5-175 5509Z"/>
<path transform="matrix(.1,0,0,-.1,0,792)" d="M275 4729.6-175 5509-625 4729.6-175 3950.2Z" fill="#b5e8ad"/>
<path transform="matrix(.1,0,0,-.1,0,792)" stroke-width="1" stroke-linecap="butt" stroke-miterlimit="10" stroke-linejoin="miter" fill="none" stroke="#000000" d="M275 4729.6-175 5509-625 4729.6-175 3950.2Z"/>
<path transform="matrix(.1,0,0,-.1,0,792)" d="M275 3170.8-175 3950.2-625 3170.8-175 2391.3Z" fill="#b5e8ad"/>
<path transform="matrix(.1,0,0,-.1,0,792)" stroke-width="1" stroke-linecap="butt" stroke-miterlimit="10" stroke-linejoin="miter" fill="none" stroke="#000000" d="M275 3170.8-175 3950.2-625 3170.8-175 2391.3Z"/>
<path transform="matrix(.1,0,0,-.1,0,792)" d="M275 1611.9-175 2391.3-625 1611.9-175 832.5Z" fill="#b5e8ad"/>
<path transform="matrix(.1,0,0,-.1,0,792)" stroke-width="1" stroke-linecap="butt" stroke-miterlimit="10" stroke-linejoin="miter" fill="none" stroke="#000000" d="M275 1611.9-175 2391.3-625 1611.9-175 832.5Z"/>
<path transform="matrix(.1,0,0,-.1,0,792)" d="M5675 1611.9 6125 832.5 6575 1611.9 6125 2391.3Z" fill="#b5e8ad"/>
<path transform="matrix(.1,0,0,-.1,0,792)" stroke-width="1" stroke-linecap="butt" stroke-miterlimit="10" stroke-linejoin="miter" fill="none" stroke="#000000" d="M5675 1611.9 6125 832.5 6575 1611.9 6125 2391.3Z"/>
<path transform="matrix(.1,0,0,-.1,0,792)" d="M5675 3170.8 6125 2391.3 6575 3170.8 6125 3950.2Z" fill="#b5e8ad"/>
<path transform="matrix(.1,0,0,-.1,0,792)" stroke-width="1" stroke-linecap="butt" stroke-miterlimit="10" stroke-linejoin="miter" fill="none" stroke="#000000" d="M5675 3170.8 6125 2391.3 6575 3170.8 6125 3950.2Z"/>
<path transform="matrix(.1,0,0,-.1,0,792)" d="M5675 4729.6 6125 3950.2 6575 4729.6 6125 5509Z" fill="#b5e8ad"/>
<path transform="matrix(.1,0,0,-.1,0,792)" stroke-width="1" stroke-linecap="butt" stroke-miterlimit="10" stroke-linejoin="miter" fill="none" stroke="#000000" d="M5675 4729.6 6125 3950.2 6575 4729.6 6125 5509Z"/>
<path transform="matrix(.1,0,0,-.1,0,792)" d="M5675 6288.5 6125 5509 6575 6288.5 6125 7067.9Z" fill="#b5e8ad"/>
<path transform="matrix(.1,0,0,-.1,0,792)" stroke-width="1" stroke-linecap="butt" stroke-miterlimit="10" stroke-linejoin="miter" fill="none" stroke="#000000" d="M5675 6288.5 6125 5509 6575 6288.5 6125 7067.9Z"/>
<path transform="matrix(.1,0,0,-.1,0,792)" d="M5675 7847.3 6125 8626.7 5675 9406.2 5225 8626.7Z" fill="#ffffff"/>
<path transform="matrix(.1,0,0,-.1,0,792)" stroke-width="1" stroke-linecap="butt" stroke-miterlimit="10" stroke-linejoin="miter" fill="none" stroke="#000000" d="M5675 7847.3 6125 8626.7 5675 9406.2 5225 8626.7Z"/>
<path transform="matrix(.1,0,0,-.1,0,792)" d="M5675 7847.3 6125 7067.9 6575 7847.3 6125 8626.7Z" fill="#b5e8ad"/>
<path transform="matrix(.1,0,0,-.1,0,792)" stroke-width="1" stroke-linecap="butt" stroke-miterlimit="10" stroke-linejoin="miter" fill="none" stroke="#000000" d="M5675 7847.3 6125 7067.9 6575 7847.3 6125 8626.7Z"/>
<path transform="matrix(.1,0,0,-.1,0,792)" d="M275 53.1016-175-726.301 275-1505.8 725-726.301Z" fill="#ffffff"/>
<path transform="matrix(.1,0,0,-.1,0,792)" stroke-width="1" stroke-linecap="butt" stroke-miterlimit="10" stroke-linejoin="miter" fill="none" stroke="#000000" d="M275 53.1016-175-726.301 275-1505.8 725-726.301Z"/>
<path transform="matrix(.1,0,0,-.1,0,792)" d="M275 53.1016-175 832.5-625 53.1016-175-726.301Z" fill="#b5e8ad"/>
<path transform="matrix(.1,0,0,-.1,0,792)" stroke-width="1" stroke-linecap="butt" stroke-miterlimit="10" stroke-linejoin="miter" fill="none" stroke="#000000" d="M275 53.1016-175 832.5-625 53.1016-175-726.301Z"/>
<path transform="matrix(.1,0,0,-.1,0,792)" d="M1175 53.1016 725-726.301 1175-1505.8 1625-726.301Z" fill="#ffffff"/>
<path transform="matrix(.1,0,0,-.1,0,792)" stroke-width="1" stroke-linecap="butt" stroke-miterlimit="10" stroke-linejoin="miter" fill="none" stroke="#000000" d="M1175 53.1016 725-726.301 1175-1505.8 1625-726.301Z"/>
<path transform="matrix(.1,0,0,-.1,0,792)" d="M2075 53.1016 1625-726.301 2075-1505.8 2525-726.301Z" fill="#ffffff"/>
<path transform="matrix(.1,0,0,-.1,0,792)" stroke-width="1" stroke-linecap="butt" stroke-miterlimit="10" stroke-linejoin="miter" fill="none" stroke="#000000" d="M2075 53.1016 1625-726.301 2075-1505.8 2525-726.301Z"/>
<path transform="matrix(.1,0,0,-.1,0,792)" d="M2975 53.1016 2525-726.301 2975-1505.8 3425-726.301Z" fill="#ffffff"/>
<path transform="matrix(.1,0,0,-.1,0,792)" stroke-width="1" stroke-linecap="butt" stroke-miterlimit="10" stroke-linejoin="miter" fill="none" stroke="#000000" d="M2975 53.1016 2525-726.301 2975-1505.8 3425-726.301Z"/>
<path transform="matrix(.1,0,0,-.1,0,792)" d="M3875 53.1016 3425-726.301 3875-1505.8 4325-726.301Z" fill="#ffffff"/>
<path transform="matrix(.1,0,0,-.1,0,792)" stroke-width="1" stroke-linecap="butt" stroke-miterlimit="10" stroke-linejoin="miter" fill="none" stroke="#000000" d="M3875 53.1016 3425-726.301 3875-1505.8 4325-726.301Z"/>
<path transform="matrix(.1,0,0,-.1,0,792)" d="M4775 53.1016 4325-726.301 4775-1505.8 5225-726.301Z" fill="#ffffff"/>
<path transform="matrix(.1,0,0,-.1,0,792)" stroke-width="1" stroke-linecap="butt" stroke-miterlimit="10" stroke-linejoin="miter" fill="none" stroke="#000000" d="M4775 53.1016 4325-726.301 4775-1505.8 5225-726.301Z"/>
<path transform="matrix(.1,0,0,-.1,0,792)" d="M5675 53.1016 6125-726.301 6575 53.1016 6125 832.5Z" fill="#b5e8ad"/>
<path transform="matrix(.1,0,0,-.1,0,792)" stroke-width="1" stroke-linecap="butt" stroke-miterlimit="10" stroke-linejoin="miter" fill="none" stroke="#000000" d="M5675 53.1016 6125-726.301 6575 53.1016 6125 832.5Z"/>
<path transform="matrix(.1,0,0,-.1,0,792)" d="M5675 53.1016 5225-726.301 5675-1505.8 6125-726.301Z" fill="#ffffff"/>
<path transform="matrix(.1,0,0,-.1,0,792)" stroke-width="1" stroke-linecap="butt" stroke-miterlimit="10" stroke-linejoin="miter" fill="none" stroke="#000000" d="M5675 53.1016 5225-726.301 5675-1505.8 6125-726.301Z"/>
</svg>
