<svg xmlns="http://www.w3.org/2000/svg" xmlns:xlink="http://www.w3.org/1999/xlink" xmlns:inkscape="http://www.inkscape.org/namespaces/inkscape" version="1.1" width="612" height="792" viewBox="0 0 612 792">
<path transform="matrix(.1,0,0,-.1,0,792)" d="M2975 3259.4 3210.1 3583 3605.2 3520.4 3542.6 3915.5 3866.2 4150.6 3542.6 4385.7 3605.2 4780.8 3210.1 4718.2 2975 5041.8 2739.9 4718.2 2344.8 4780.8 2407.4 4385.7 2083.8 4150.6 2407.4 3915.5 2344.8 3520.4 2739.9 3583" fill="#8080bf"/>
<path transform="matrix(.1,0,0,-.1,0,792)" stroke-width="60" stroke-linecap="butt" stroke-miterlimit="10" stroke-linejoin="miter" fill="none" stroke="#ffffff" d="M2975 3259.4 3210.1 3583 3605.2 3520.4 3542.6 3915.5 3866.2 4150.6 3542.6 4385.7 3605.2 4780.8 3210.1 4718.2 2975 5041.8 2739.9 4718.2 2344.8 4780.8 2407.4 4385.7 2083.8 4150.6 2407.4 3915.5 2344.8 3520.4 2739.9 3583Z"/>
<path transform="matrix(.1,0,0,-.1,0,792)" d="M3210.1 4718.2 3605.2 4780.8 3654.3 5090.9 3511.7 5370.7 3175.3 5317.4 2975 5041.8" fill="#bfbfe6"/>
<path transform="matrix(.1,0,0,-.1,0,792)" stroke-width="60" stroke-linecap="butt" stroke-miterlimit="10" stroke-linejoin="miter" fill="none" stroke="#ffffff" d="M3210.1 4718.2 3605.2 4780.8 3654.3 5090.9 3511.7 5370.7 3175.3 5317.4 2975 5041.8Z"/>
<path transform="matrix(.1,0,0,-.1,0,792)" d="M2739.9 4718.2 2975 5041.8 2774.7 5317.4 2438.3 5370.7 2295.7 5090.9 2344.8 4780.8" fill="#bfbfe6"/>
<path transform="matrix(.1,0,0,-.1,0,792)" stroke-width="60" stroke-linecap="butt" stroke-miterlimit="10" stroke-linejoin="miter" fill="none" stroke="#ffffff" d="M2739.9 4718.2 2975 5041.8 2774.7 5317.4 2438.3 5370.7 2295.7 5090.9 2344.8 4780.8Z"/>
<path transform="matrix(.1,0,0,-.1,0,792)" d="M2739.9 3583 2344.8 3520.4 2295.7 3210.2 2438.3 2930.4 2774.7 2983.7 2975 3259.4" fill="#bfbfe6"/>
<path transform="matrix(.1,0,0,-.1,0,792)" stroke-width="60" stroke-linecap="butt" stroke-miterlimit="10" stroke-linejoin="miter" fill="none" stroke="#ffffff" d="M2739.9 3583 2344.8 3520.4 2295.7 3210.2 2438.3 2930.4 2774.7 2983.7 2975 3259.4Z"/>
<path transform="matrix(.1,0,0,-.1,0,792)" d="M3210.1 3583 2975 3259.4 3175.3 2983.7 3511.7 2930.4 3654.3 3210.2 3605.2 3520.4" fill="#bfbfe6"/>
<path transform="matrix(.1,0,0,-.1,0,792)" stroke-width="60" stroke-linecap="butt" stroke-miterlimit="10" stroke-linejoin="miter" fill="none" stroke="#ffffff" d="M3210.1 3583 2975 3259.4 3175.3 2983.7 3511.7 2930.4 3654.3 3210.2 3605.2 3520.4Z"/>
<path transform="matrix(.1,0,0,-.1,0,792)" d="M3542.6 3915.5 3605.2 3520.4 3915.3 3471.3 4195.1 3613.8 4141.8 3950.3 3866.2 4150.6" fill="#bfbfe6"/>
<path transform="matrix(.1,0,0,-.1,0,792)" stroke-width="60" stroke-linecap="butt" stroke-miterlimit="10" stroke-linejoin="miter" fill="none" stroke="#ffffff" d="M3542.6 3915.5 3605.2 3520.4 3915.3 3471.3 4195.1 3613.8 4141.8 3950.3 3866.2 4150.6Z"/>
<path transform="matrix(.1,0,0,-.1,0,792)" d="M3542.6 4385.7 3866.2 4150.6 4141.8 4350.8 4195.1 4687.3 3915.3 4829.9 3605.2 4780.8" fill="#bfbfe6"/>
<path transform="matrix(.1,0,0,-.1,0,792)" stroke-width="60" stroke-linecap="butt" stroke-miterlimit="10" stroke-linejoin="miter" fill="none" stroke="#ffffff" d="M3542.6 4385.7 3866.2 4150.6 4141.8 4350.8 4195.1 4687.3 3915.3 4829.9 3605.2 4780.8Z"/>
<path transform="matrix(.1,0,0,-.1,0,792)" d="M2407.4 4385.7 2344.8 4780.8 2034.7 4829.9 1754.9 4687.3 1808.2 4350.8 2083.8 4150.6" fill="#bfbfe6"/>
<path transform="matrix(.1,0,0,-.1,0,792)" stroke-width="60" stroke-linecap="butt" stroke-miterlimit="10" stroke-linejoin="miter" fill="none" stroke="#ffffff" d="M2407.4 4385.7 2344.8 4780.8 2034.7 4829.9 1754.9 4687.3 1808.2 4350.8 2083.8 4150.6Z"/>
<path transform="matrix(.1,0,0,-.1,0,792)" d="M2407.4 3915.5 2083.8 4150.6 1808.2 3950.3 1754.9 3613.8 2034.7 3471.3 2344.8 3520.4" fill="#bfbfe6"/>
<path transform="matrix(.1,0,0,-.1,0,792)" stroke-width="60" stroke-linecap="butt" stroke-miterlimit="10" stroke-linejoin="miter" fill="none" stroke="#ffffff" d="M2407.4 3915.5 2083.8 4150.6 1808.2 3950.3 1754.9 3613.8 2034.7 3471.3 2344.8 3520.4Z"/>
<path transform="matrix(.1,0,0,-.1,0,792)" d="M2975 5041.8 3175.3 5317.4 3511.7 5370.7 3373.6 5641.9 3511.7 5913.1 3175.3 5966.4 2975 6242 2774.7 5966.4 2438.3 5913.1 2576.4 5641.9 2438.3 5370.7 2774.7 5317.4" fill="#8080bf"/>
<path transform="matrix(.1,0,0,-.1,0,792)" stroke-width="60" stroke-linecap="butt" stroke-miterlimit="10" stroke-linejoin="miter" fill="none" stroke="#ffffff" d="M2975 5041.8 3175.3 5317.4 3511.7 5370.7 3373.6 5641.9 3511.7 5913.1 3175.3 5966.4 2975 6242 2774.7 5966.4 2438.3 5913.1 2576.4 5641.9 2438.3 5370.7 2774.7 5317.4Z"/>
<path transform="matrix(.1,0,0,-.1,0,792)" d="M2344.8 4780.8 2295.7 5090.9 2438.3 5370.7 2128.1 5419.9 1906 5641.9 1763.5 5362.1 1483.7 5219.5 1705.7 4997.5 1754.9 4687.3 2034.7 4829.9" fill="#8080bf"/>
<path transform="matrix(.1,0,0,-.1,0,792)" stroke-width="60" stroke-linecap="butt" stroke-miterlimit="10" stroke-linejoin="miter" fill="none" stroke="#ffffff" d="M2344.8 4780.8 2295.7 5090.9 2438.3 5370.7 2128.1 5419.9 1906 5641.9 1763.5 5362.1 1483.7 5219.5 1705.7 4997.5 1754.9 4687.3 2034.7 4829.9Z"/>
<path transform="matrix(.1,0,0,-.1,0,792)" d="M2344.8 3520.4 2034.7 3471.3 1754.9 3613.8 1705.7 3303.7 1483.7 3081.6 1763.5 2939.1 1906 2659.3 2128.1 2881.3 2438.3 2930.4 2295.7 3210.2" fill="#8080bf"/>
<path transform="matrix(.1,0,0,-.1,0,792)" stroke-width="60" stroke-linecap="butt" stroke-miterlimit="10" stroke-linejoin="miter" fill="none" stroke="#ffffff" d="M2344.8 3520.4 2034.7 3471.3 1754.9 3613.8 1705.7 3303.7 1483.7 3081.6 1763.5 2939.1 1906 2659.3 2128.1 2881.3 2438.3 2930.4 2295.7 3210.2Z"/>
<path transform="matrix(.1,0,0,-.1,0,792)" d="M3605.2 3520.4 3654.3 3210.2 3511.7 2930.4 3821.9 2881.3 4044 2659.3 4186.5 2939.1 4466.3 3081.6 4244.3 3303.7 4195.1 3613.8 3915.3 3471.3" fill="#8080bf"/>
<path transform="matrix(.1,0,0,-.1,0,792)" stroke-width="60" stroke-linecap="butt" stroke-miterlimit="10" stroke-linejoin="miter" fill="none" stroke="#ffffff" d="M3605.2 3520.4 3654.3 3210.2 3511.7 2930.4 3821.9 2881.3 4044 2659.3 4186.5 2939.1 4466.3 3081.6 4244.3 3303.7 4195.1 3613.8 3915.3 3471.3Z"/>
<path transform="matrix(.1,0,0,-.1,0,792)" d="M3605.2 4780.8 3915.3 4829.9 4195.1 4687.3 4244.3 4997.5 4466.3 5219.5 4186.5 5362.1 4044 5641.9 3821.9 5419.9 3511.7 5370.7 3654.3 5090.9" fill="#8080bf"/>
<path transform="matrix(.1,0,0,-.1,0,792)" stroke-width="60" stroke-linecap="butt" stroke-miterlimit="10" stroke-linejoin="miter" fill="none" stroke="#ffffff" d="M3605.2 4780.8 3915.3 4829.9 4195.1 4687.3 4244.3 4997.5 4466.3 5219.5 4186.5 5362.1 4044 5641.9 3821.9 5419.9 3511.7 5370.7 3654.3 5090.9Z"/>
<path transform="matrix(.1,0,0,-.1,0,792)" d="M2975 3259.4 2774.7 2983.7 2438.3 2930.4 2576.4 2659.3 2438.3 2388.1 2774.7 2334.8 2975 2059.2 3175.3 2334.8 3511.7 2388.1 3373.6 2659.3 3511.7 2930.4 3175.3 2983.7" fill="#8080bf"/>
<path transform="matrix(.1,0,0,-.1,0,792)" stroke-width="60" stroke-linecap="butt" stroke-miterlimit="10" stroke-linejoin="miter" fill="none" stroke="#ffffff" d="M2975 3259.4 2774.7 2983.7 2438.3 2930.4 2576.4 2659.3 2438.3 2388.1 2774.7 2334.8 2975 2059.2 3175.3 2334.8 3511.7 2388.1 3373.6 2659.3 3511.7 2930.4 3175.3 2983.7Z"/>
<path transform="matrix(.1,0,0,-.1,0,792)" d="M3511.7 5370.7 3821.9 5419.9 4044 5641.9 3821.9 5863.9 3511.7 5913.1 3373.6 5641.9" fill="#bfbfe6"/>
<path transform="matrix(.1,0,0,-.1,0,792)" stroke-width="60" stroke-linecap="butt" stroke-miterlimit="10" stroke-linejoin="miter" fill="none" stroke="#ffffff" d="M3511.7 5370.7 3821.9 5419.9 4044 5641.9 3821.9 5863.9 3511.7 5913.1 3373.6 5641.9Z"/>
<path transform="matrix(.1,0,0,-.1,0,792)" d="M2438.3 5370.7 2576.4 5641.9 2438.3 5913.1 2128.1 5863.9 1906 5641.9 2128.1 5419.9" fill="#bfbfe6"/>
<path transform="matrix(.1,0,0,-.1,0,792)" stroke-width="60" stroke-linecap="butt" stroke-miterlimit="10" stroke-linejoin="miter" fill="none" stroke="#ffffff" d="M2438.3 5370.7 2576.4 5641.9 2438.3 5913.1 2128.1 5863.9 1906 5641.9 2128.1 5419.9Z"/>
<path transform="matrix(.1,0,0,-.1,0,792)" d="M2083.8 4150.6 1808.2 4350.8 1754.9 4687.3 1483.7 4549.2 1212.5 4687.3 1159.2 4350.8 883.602 4150.6 1159.2 3950.3 1212.5 3613.8 1483.7 3752 1754.9 3613.8 1808.2 3950.3" fill="#8080bf"/>
<path transform="matrix(.1,0,0,-.1,0,792)" stroke-width="60" stroke-linecap="butt" stroke-miterlimit="10" stroke-linejoin="miter" fill="none" stroke="#ffffff" d="M2083.8 4150.6 1808.2 4350.8 1754.9 4687.3 1483.7 4549.2 1212.5 4687.3 1159.2 4350.8 883.602 4150.6 1159.2 3950.3 1212.5 3613.8 1483.7 3752 1754.9 3613.8 1808.2 3950.3Z"/>
<path transform="matrix(.1,0,0,-.1,0,792)" d="M3866.2 4150.6 4141.8 3950.3 4195.1 3613.8 4466.3 3752 4737.5 3613.8 4790.8 3950.3 5066.4 4150.6 4790.8 4350.8 4737.5 4687.3 4466.3 4549.2 4195.1 4687.3 4141.8 4350.8" fill="#8080bf"/>
<path transform="matrix(.1,0,0,-.1,0,792)" stroke-width="60" stroke-linecap="butt" stroke-miterlimit="10" stroke-linejoin="miter" fill="none" stroke="#ffffff" d="M3866.2 4150.6 4141.8 3950.3 4195.1 3613.8 4466.3 3752 4737.5 3613.8 4790.8 3950.3 5066.4 4150.6 4790.8 4350.8 4737.5 4687.3 4466.3 4549.2 4195.1 4687.3 4141.8 4350.8Z"/>
<path transform="matrix(.1,0,0,-.1,0,792)" d="M2438.3 2930.4 2128.1 2881.3 1906 2659.3 2128.1 2437.2 2438.3 2388.1 2576.4 2659.3" fill="#bfbfe6"/>
<path transform="matrix(.1,0,0,-.1,0,792)" stroke-width="60" stroke-linecap="butt" stroke-miterlimit="10" stroke-linejoin="miter" fill="none" stroke="#ffffff" d="M2438.3 2930.4 2128.1 2881.3 1906 2659.3 2128.1 2437.2 2438.3 2388.1 2576.4 2659.3Z"/>
<path transform="matrix(.1,0,0,-.1,0,792)" d="M3511.7 2930.4 3373.6 2659.3 3511.7 2388.1 3821.9 2437.2 4044 2659.3 3821.9 2881.3" fill="#bfbfe6"/>
<path transform="matrix(.1,0,0,-.1,0,792)" stroke-width="60" stroke-linecap="butt" stroke-miterlimit="10" stroke-linejoin="miter" fill="none" stroke="#ffffff" d="M3511.7 2930.4 3373.6 2659.3 3511.7 2388.1 3821.9 2437.2 4044 2659.3 3821.9 2881.3Z"/>
<path transform="matrix(.1,0,0,-.1,0,792)" d="M4044 5641.9 4186.5 5921.7 4466.3 6064.3 4244.3 6286.3 4195.1 6596.5 3915.3 6453.9 3605.2 6503 3654.3 6192.9 3511.7 5913.1 3821.9 5863.9" fill="#8080bf"/>
<path transform="matrix(.1,0,0,-.1,0,792)" stroke-width="60" stroke-linecap="butt" stroke-miterlimit="10" stroke-linejoin="miter" fill="none" stroke="#ffffff" d="M4044 5641.9 4186.5 5921.7 4466.3 6064.3 4244.3 6286.3 4195.1 6596.5 3915.3 6453.9 3605.2 6503 3654.3 6192.9 3511.7 5913.1 3821.9 5863.9Z"/>
<path transform="matrix(.1,0,0,-.1,0,792)" d="M4044 5641.9 4186.5 5362.1 4466.3 5219.5 4746.1 5362.1 4888.7 5641.9 4746.1 5921.7 4466.3 6064.3 4186.5 5921.7" fill="#bfbfe6"/>
<path transform="matrix(.1,0,0,-.1,0,792)" stroke-width="60" stroke-linecap="butt" stroke-miterlimit="10" stroke-linejoin="miter" fill="none" stroke="#ffffff" d="M4044 5641.9 4186.5 5362.1 4466.3 5219.5 4746.1 5362.1 4888.7 5641.9 4746.1 5921.7 4466.3 6064.3 4186.5 5921.7Z"/>
<path transform="matrix(.1,0,0,-.1,0,792)" d="M1906 5641.9 1763.5 5921.7 1483.7 6064.3 1203.9 5921.7 1061.3 5641.9 1203.9 5362.1 1483.7 5219.5 1763.5 5362.1" fill="#bfbfe6"/>
<path transform="matrix(.1,0,0,-.1,0,792)" stroke-width="60" stroke-linecap="butt" stroke-miterlimit="10" stroke-linejoin="miter" fill="none" stroke="#ffffff" d="M1906 5641.9 1763.5 5921.7 1483.7 6064.3 1203.9 5921.7 1061.3 5641.9 1203.9 5362.1 1483.7 5219.5 1763.5 5362.1Z"/>
<path transform="matrix(.1,0,0,-.1,0,792)" d="M1906 5641.9 2128.1 5863.9 2438.3 5913.1 2295.7 6192.9 2344.8 6503 2034.7 6453.9 1754.9 6596.5 1705.7 6286.3 1483.7 6064.3 1763.5 5921.7" fill="#8080bf"/>
<path transform="matrix(.1,0,0,-.1,0,792)" stroke-width="60" stroke-linecap="butt" stroke-miterlimit="10" stroke-linejoin="miter" fill="none" stroke="#ffffff" d="M1906 5641.9 2128.1 5863.9 2438.3 5913.1 2295.7 6192.9 2344.8 6503 2034.7 6453.9 1754.9 6596.5 1705.7 6286.3 1483.7 6064.3 1763.5 5921.7Z"/>
<path transform="matrix(.1,0,0,-.1,0,792)" d="M1906 2659.3 1763.5 2379.5 1483.7 2236.9 1705.7 2014.9 1754.9 1704.7 2034.7 1847.3 2344.8 1798.1 2295.7 2108.3 2438.3 2388.1 2128.1 2437.2" fill="#8080bf"/>
<path transform="matrix(.1,0,0,-.1,0,792)" stroke-width="60" stroke-linecap="butt" stroke-miterlimit="10" stroke-linejoin="miter" fill="none" stroke="#ffffff" d="M1906 2659.3 1763.5 2379.5 1483.7 2236.9 1705.7 2014.9 1754.9 1704.7 2034.7 1847.3 2344.8 1798.1 2295.7 2108.3 2438.3 2388.1 2128.1 2437.2Z"/>
<path transform="matrix(.1,0,0,-.1,0,792)" d="M1906 2659.3 1763.5 2939.1 1483.7 3081.6 1203.9 2939.1 1061.3 2659.3 1203.9 2379.5 1483.7 2236.9 1763.5 2379.5" fill="#bfbfe6"/>
<path transform="matrix(.1,0,0,-.1,0,792)" stroke-width="60" stroke-linecap="butt" stroke-miterlimit="10" stroke-linejoin="miter" fill="none" stroke="#ffffff" d="M1906 2659.3 1763.5 2939.1 1483.7 3081.6 1203.9 2939.1 1061.3 2659.3 1203.9 2379.5 1483.7 2236.9 1763.5 2379.5Z"/>
<path transform="matrix(.1,0,0,-.1,0,792)" d="M4044 2659.3 4186.5 2379.5 4466.3 2236.9 4746.1 2379.5 4888.7 2659.3 4746.1 2939.1 4466.3 3081.6 4186.5 2939.1" fill="#bfbfe6"/>
<path transform="matrix(.1,0,0,-.1,0,792)" stroke-width="60" stroke-linecap="butt" stroke-miterlimit="10" stroke-linejoin="miter" fill="none" stroke="#ffffff" d="M4044 2659.3 4186.5 2379.5 4466.3 2236.9 4746.1 2379.5 4888.7 2659.3 4746.1 2939.1 4466.3 3081.6 4186.5 2939.1Z"/>
<path transform="matrix(.1,0,0,-.1,0,792)" d="M4044 2659.3 3821.9 2437.2 3511.7 2388.1 3654.3 2108.3 3605.2 1798.1 3915.3 1847.3 4195.1 1704.7 4244.3 2014.9 4466.3 2236.9 4186.5 2379.5" fill="#8080bf"/>
<path transform="matrix(.1,0,0,-.1,0,792)" stroke-width="60" stroke-linecap="butt" stroke-miterlimit="10" stroke-linejoin="miter" fill="none" stroke="#ffffff" d="M4044 2659.3 3821.9 2437.2 3511.7 2388.1 3654.3 2108.3 3605.2 1798.1 3915.3 1847.3 4195.1 1704.7 4244.3 2014.9 4466.3 2236.9 4186.5 2379.5Z"/>
<path transform="matrix(.1,0,0,-.1,0,792)" d="M4195.1 3613.8 4244.3 3303.7 4466.3 3081.6 4688.4 3303.7 4737.5 3613.8 4466.3 3752" fill="#bfbfe6"/>
<path transform="matrix(.1,0,0,-.1,0,792)" stroke-width="60" stroke-linecap="butt" stroke-miterlimit="10" stroke-linejoin="miter" fill="none" stroke="#ffffff" d="M4195.1 3613.8 4244.3 3303.7 4466.3 3081.6 4688.4 3303.7 4737.5 3613.8 4466.3 3752Z"/>
<path transform="matrix(.1,0,0,-.1,0,792)" d="M4195.1 4687.3 4466.3 4549.2 4737.5 4687.3 4688.4 4997.5 4466.3 5219.5 4244.3 4997.5" fill="#bfbfe6"/>
<path transform="matrix(.1,0,0,-.1,0,792)" stroke-width="60" stroke-linecap="butt" stroke-miterlimit="10" stroke-linejoin="miter" fill="none" stroke="#ffffff" d="M4195.1 4687.3 4466.3 4549.2 4737.5 4687.3 4688.4 4997.5 4466.3 5219.5 4244.3 4997.5Z"/>
<path transform="matrix(.1,0,0,-.1,0,792)" d="M1754.9 4687.3 1705.7 4997.5 1483.7 5219.5 1261.6 4997.5 1212.5 4687.3 1483.7 4549.2" fill="#bfbfe6"/>
<path transform="matrix(.1,0,0,-.1,0,792)" stroke-width="60" stroke-linecap="butt" stroke-miterlimit="10" stroke-linejoin="miter" fill="none" stroke="#ffffff" d="M1754.9 4687.3 1705.7 4997.5 1483.7 5219.5 1261.6 4997.5 1212.5 4687.3 1483.7 4549.2Z"/>
<path transform="matrix(.1,0,0,-.1,0,792)" d="M1754.9 3613.8 1483.7 3752 1212.5 3613.8 1261.6 3303.7 1483.7 3081.6 1705.7 3303.7" fill="#bfbfe6"/>
<path transform="matrix(.1,0,0,-.1,0,792)" stroke-width="60" stroke-linecap="butt" stroke-miterlimit="10" stroke-linejoin="miter" fill="none" stroke="#ffffff" d="M1754.9 3613.8 1483.7 3752 1212.5 3613.8 1261.6 3303.7 1483.7 3081.6 1705.7 3303.7Z"/>
<path transform="matrix(.1,0,0,-.1,0,792)" d="M3511.7 5913.1 3654.3 6192.9 3605.2 6503 3210.1 6565.6 2975 6242 3175.3 5966.4" fill="#bfbfe6"/>
<path transform="matrix(.1,0,0,-.1,0,792)" stroke-width="60" stroke-linecap="butt" stroke-miterlimit="10" stroke-linejoin="miter" fill="none" stroke="#ffffff" d="M3511.7 5913.1 3654.3 6192.9 3605.2 6503 3210.1 6565.6 2975 6242 3175.3 5966.4Z"/>
<path transform="matrix(.1,0,0,-.1,0,792)" d="M2438.3 5913.1 2774.7 5966.4 2975 6242 2739.9 6565.6 2344.8 6503 2295.7 6192.9" fill="#bfbfe6"/>
<path transform="matrix(.1,0,0,-.1,0,792)" stroke-width="60" stroke-linecap="butt" stroke-miterlimit="10" stroke-linejoin="miter" fill="none" stroke="#ffffff" d="M2438.3 5913.1 2774.7 5966.4 2975 6242 2739.9 6565.6 2344.8 6503 2295.7 6192.9Z"/>
<path transform="matrix(.1,0,0,-.1,0,792)" d="M2438.3 2388.1 2295.7 2108.3 2344.8 1798.1 2739.9 1735.6 2975 2059.2 2774.7 2334.8" fill="#bfbfe6"/>
<path transform="matrix(.1,0,0,-.1,0,792)" stroke-width="60" stroke-linecap="butt" stroke-miterlimit="10" stroke-linejoin="miter" fill="none" stroke="#ffffff" d="M2438.3 2388.1 2295.7 2108.3 2344.8 1798.1 2739.9 1735.6 2975 2059.2 2774.7 2334.8Z"/>
<path transform="matrix(.1,0,0,-.1,0,792)" d="M3511.7 2388.1 3175.3 2334.8 2975 2059.2 3210.1 1735.6 3605.2 1798.1 3654.3 2108.3" fill="#bfbfe6"/>
<path transform="matrix(.1,0,0,-.1,0,792)" stroke-width="60" stroke-linecap="butt" stroke-miterlimit="10" stroke-linejoin="miter" fill="none" stroke="#ffffff" d="M3511.7 2388.1 3175.3 2334.8 2975 2059.2 3210.1 1735.6 3605.2 1798.1 3654.3 2108.3Z"/>
<path transform="matrix(.1,0,0,-.1,0,792)" d="M2975 6242 3210.1 6565.6 3605.2 6503 3542.6 6898.1 3866.2 7133.2 3542.6 7368.3 3605.2 7763.4 3210.1 7700.8 2975 8024.4 2739.9 7700.8 2344.8 7763.4 2407.4 7368.3 2083.8 7133.2 2407.4 6898.1 2344.8 6503 2739.9 6565.6" fill="#8080bf"/>
<path transform="matrix(.1,0,0,-.1,0,792)" stroke-width="60" stroke-linecap="butt" stroke-miterlimit="10" stroke-linejoin="miter" fill="none" stroke="#ffffff" d="M2975 6242 3210.1 6565.6 3605.2 6503 3542.6 6898.1 3866.2 7133.2 3542.6 7368.3 3605.2 7763.4 3210.1 7700.8 2975 8024.4 2739.9 7700.8 2344.8 7763.4 2407.4 7368.3 2083.8 7133.2 2407.4 6898.1 2344.8 6503 2739.9 6565.6Z"/>
<path transform="matrix(.1,0,0,-.1,0,792)" d="M1483.7 6064.3 1261.6 6286.3 1212.5 6596.5 932.699 6453.9 622.602 6503 671.699 6192.9 529.102 5913.1 839.301 5863.9 1061.3 5641.9 1203.9 5921.7" fill="#8080bf"/>
<path transform="matrix(.1,0,0,-.1,0,792)" stroke-width="60" stroke-linecap="butt" stroke-miterlimit="10" stroke-linejoin="miter" fill="none" stroke="#ffffff" d="M1483.7 6064.3 1261.6 6286.3 1212.5 6596.5 932.699 6453.9 622.602 6503 671.699 6192.9 529.102 5913.1 839.301 5863.9 1061.3 5641.9 1203.9 5921.7Z"/>
<path transform="matrix(.1,0,0,-.1,0,792)" d="M1483.7 6064.3 1705.7 6286.3 1754.9 6596.5 1483.7 6734.6 1212.5 6596.5 1261.6 6286.3" fill="#bfbfe6"/>
<path transform="matrix(.1,0,0,-.1,0,792)" stroke-width="60" stroke-linecap="butt" stroke-miterlimit="10" stroke-linejoin="miter" fill="none" stroke="#ffffff" d="M1483.7 6064.3 1705.7 6286.3 1754.9 6596.5 1483.7 6734.6 1212.5 6596.5 1261.6 6286.3Z"/>
<path transform="matrix(.1,0,0,-.1,0,792)" d="M1483.7 5219.5 1203.9 5362.1 1061.3 5641.9 839.301 5419.9 529.102 5370.7 671.699 5090.9 622.602 4780.8 932.699 4829.9 1212.5 4687.3 1261.6 4997.5" fill="#8080bf"/>
<path transform="matrix(.1,0,0,-.1,0,792)" stroke-width="60" stroke-linecap="butt" stroke-miterlimit="10" stroke-linejoin="miter" fill="none" stroke="#ffffff" d="M1483.7 5219.5 1203.9 5362.1 1061.3 5641.9 839.301 5419.9 529.102 5370.7 671.699 5090.9 622.602 4780.8 932.699 4829.9 1212.5 4687.3 1261.6 4997.5Z"/>
<path transform="matrix(.1,0,0,-.1,0,792)" d="M1483.7 3081.6 1261.6 3303.7 1212.5 3613.8 932.699 3471.3 622.602 3520.4 671.699 3210.2 529.102 2930.4 839.301 2881.3 1061.3 2659.3 1203.9 2939.1" fill="#8080bf"/>
<path transform="matrix(.1,0,0,-.1,0,792)" stroke-width="60" stroke-linecap="butt" stroke-miterlimit="10" stroke-linejoin="miter" fill="none" stroke="#ffffff" d="M1483.7 3081.6 1261.6 3303.7 1212.5 3613.8 932.699 3471.3 622.602 3520.4 671.699 3210.2 529.102 2930.4 839.301 2881.3 1061.3 2659.3 1203.9 2939.1Z"/>
<path transform="matrix(.1,0,0,-.1,0,792)" d="M1483.7 2236.9 1261.6 2014.9 1212.5 1704.7 1483.7 1566.5 1754.9 1704.7 1705.7 2014.9" fill="#bfbfe6"/>
<path transform="matrix(.1,0,0,-.1,0,792)" stroke-width="60" stroke-linecap="butt" stroke-miterlimit="10" stroke-linejoin="miter" fill="none" stroke="#ffffff" d="M1483.7 2236.9 1261.6 2014.9 1212.5 1704.7 1483.7 1566.5 1754.9 1704.7 1705.7 2014.9Z"/>
<path transform="matrix(.1,0,0,-.1,0,792)" d="M1483.7 2236.9 1203.9 2379.5 1061.3 2659.3 839.301 2437.2 529.102 2388.1 671.699 2108.3 622.602 1798.1 932.699 1847.3 1212.5 1704.7 1261.6 2014.9" fill="#8080bf"/>
<path transform="matrix(.1,0,0,-.1,0,792)" stroke-width="60" stroke-linecap="butt" stroke-miterlimit="10" stroke-linejoin="miter" fill="none" stroke="#ffffff" d="M1483.7 2236.9 1203.9 2379.5 1061.3 2659.3 839.301 2437.2 529.102 2388.1 671.699 2108.3 622.602 1798.1 932.699 1847.3 1212.5 1704.7 1261.6 2014.9Z"/>
<path transform="matrix(.1,0,0,-.1,0,792)" d="M4466.3 2236.9 4688.4 2014.9 4737.5 1704.7 5017.3 1847.3 5327.4 1798.1 5278.3 2108.3 5420.9 2388.1 5110.7 2437.2 4888.7 2659.3 4746.1 2379.5" fill="#8080bf"/>
<path transform="matrix(.1,0,0,-.1,0,792)" stroke-width="60" stroke-linecap="butt" stroke-miterlimit="10" stroke-linejoin="miter" fill="none" stroke="#ffffff" d="M4466.3 2236.9 4688.4 2014.9 4737.5 1704.7 5017.3 1847.3 5327.4 1798.1 5278.3 2108.3 5420.9 2388.1 5110.7 2437.2 4888.7 2659.3 4746.1 2379.5Z"/>
<path transform="matrix(.1,0,0,-.1,0,792)" d="M4466.3 2236.9 4244.3 2014.9 4195.1 1704.7 4466.3 1566.5 4737.5 1704.7 4688.4 2014.9" fill="#bfbfe6"/>
<path transform="matrix(.1,0,0,-.1,0,792)" stroke-width="60" stroke-linecap="butt" stroke-miterlimit="10" stroke-linejoin="miter" fill="none" stroke="#ffffff" d="M4466.3 2236.9 4244.3 2014.9 4195.1 1704.7 4466.3 1566.5 4737.5 1704.7 4688.4 2014.9Z"/>
<path transform="matrix(.1,0,0,-.1,0,792)" d="M4466.3 3081.6 4746.1 2939.1 4888.7 2659.3 5110.7 2881.3 5420.9 2930.4 5278.3 3210.2 5327.4 3520.4 5017.3 3471.3 4737.5 3613.8 4688.4 3303.7" fill="#8080bf"/>
<path transform="matrix(.1,0,0,-.1,0,792)" stroke-width="60" stroke-linecap="butt" stroke-miterlimit="10" stroke-linejoin="miter" fill="none" stroke="#ffffff" d="M4466.3 3081.6 4746.1 2939.1 4888.7 2659.3 5110.7 2881.3 5420.9 2930.4 5278.3 3210.2 5327.4 3520.4 5017.3 3471.3 4737.5 3613.8 4688.4 3303.7Z"/>
<path transform="matrix(.1,0,0,-.1,0,792)" d="M4466.3 5219.5 4688.4 4997.5 4737.5 4687.3 5017.3 4829.9 5327.4 4780.8 5278.3 5090.9 5420.9 5370.7 5110.7 5419.9 4888.7 5641.9 4746.1 5362.1" fill="#8080bf"/>
<path transform="matrix(.1,0,0,-.1,0,792)" stroke-width="60" stroke-linecap="butt" stroke-miterlimit="10" stroke-linejoin="miter" fill="none" stroke="#ffffff" d="M4466.3 5219.5 4688.4 4997.5 4737.5 4687.3 5017.3 4829.9 5327.4 4780.8 5278.3 5090.9 5420.9 5370.7 5110.7 5419.9 4888.7 5641.9 4746.1 5362.1Z"/>
<path transform="matrix(.1,0,0,-.1,0,792)" d="M4466.3 6064.3 4688.4 6286.3 4737.5 6596.5 4466.3 6734.6 4195.1 6596.5 4244.3 6286.3" fill="#bfbfe6"/>
<path transform="matrix(.1,0,0,-.1,0,792)" stroke-width="60" stroke-linecap="butt" stroke-miterlimit="10" stroke-linejoin="miter" fill="none" stroke="#ffffff" d="M4466.3 6064.3 4688.4 6286.3 4737.5 6596.5 4466.3 6734.6 4195.1 6596.5 4244.3 6286.3Z"/>
<path transform="matrix(.1,0,0,-.1,0,792)" d="M4466.3 6064.3 4746.1 5921.7 4888.7 5641.9 5110.7 5863.9 5420.9 5913.1 5278.3 6192.9 5327.4 6503 5017.3 6453.9 4737.5 6596.5 4688.4 6286.3" fill="#8080bf"/>
<path transform="matrix(.1,0,0,-.1,0,792)" stroke-width="60" stroke-linecap="butt" stroke-miterlimit="10" stroke-linejoin="miter" fill="none" stroke="#ffffff" d="M4466.3 6064.3 4746.1 5921.7 4888.7 5641.9 5110.7 5863.9 5420.9 5913.1 5278.3 6192.9 5327.4 6503 5017.3 6453.9 4737.5 6596.5 4688.4 6286.3Z"/>
<path transform="matrix(.1,0,0,-.1,0,792)" d="M2975 2059.2 2739.9 1735.6 2344.8 1798.1 2407.4 1403.1 2083.8 1168 2407.4 932.801 2344.8 537.801 2739.9 600.301 2975 276.699 3210.1 600.301 3605.2 537.801 3542.6 932.801 3866.2 1168 3542.6 1403.1 3605.2 1798.1 3210.1 1735.6" fill="#8080bf"/>
<path transform="matrix(.1,0,0,-.1,0,792)" stroke-width="60" stroke-linecap="butt" stroke-miterlimit="10" stroke-linejoin="miter" fill="none" stroke="#ffffff" d="M2975 2059.2 2739.9 1735.6 2344.8 1798.1 2407.4 1403.1 2083.8 1168 2407.4 932.801 2344.8 537.801 2739.9 600.301 2975 276.699 3210.1 600.301 3605.2 537.801 3542.6 932.801 3866.2 1168 3542.6 1403.1 3605.2 1798.1 3210.1 1735.6Z"/>
<path transform="matrix(.1,0,0,-.1,0,792)" d="M3915.3 6453.9 4195.1 6596.5 4141.8 6933 3866.2 7133.2 3542.6 6898.1 3605.2 6503" fill="#bfbfe6"/>
<path transform="matrix(.1,0,0,-.1,0,792)" stroke-width="60" stroke-linecap="butt" stroke-miterlimit="10" stroke-linejoin="miter" fill="none" stroke="#ffffff" d="M3915.3 6453.9 4195.1 6596.5 4141.8 6933 3866.2 7133.2 3542.6 6898.1 3605.2 6503Z"/>
<path transform="matrix(.1,0,0,-.1,0,792)" d="M2034.7 6453.9 2344.8 6503 2407.4 6898.1 2083.8 7133.2 1808.2 6933 1754.9 6596.5" fill="#bfbfe6"/>
<path transform="matrix(.1,0,0,-.1,0,792)" stroke-width="60" stroke-linecap="butt" stroke-miterlimit="10" stroke-linejoin="miter" fill="none" stroke="#ffffff" d="M2034.7 6453.9 2344.8 6503 2407.4 6898.1 2083.8 7133.2 1808.2 6933 1754.9 6596.5Z"/>
<path transform="matrix(.1,0,0,-.1,0,792)" d="M2034.7 1847.3 1754.9 1704.7 1808.2 1368.2 2083.8 1168 2407.4 1403.1 2344.8 1798.1" fill="#bfbfe6"/>
<path transform="matrix(.1,0,0,-.1,0,792)" stroke-width="60" stroke-linecap="butt" stroke-miterlimit="10" stroke-linejoin="miter" fill="none" stroke="#ffffff" d="M2034.7 1847.3 1754.9 1704.7 1808.2 1368.2 2083.8 1168 2407.4 1403.1 2344.8 1798.1Z"/>
<path transform="matrix(.1,0,0,-.1,0,792)" d="M3915.3 1847.3 3605.2 1798.1 3542.6 1403.1 3866.2 1168 4141.8 1368.2 4195.1 1704.7" fill="#bfbfe6"/>
<path transform="matrix(.1,0,0,-.1,0,792)" stroke-width="60" stroke-linecap="butt" stroke-miterlimit="10" stroke-linejoin="miter" fill="none" stroke="#ffffff" d="M3915.3 1847.3 3605.2 1798.1 3542.6 1403.1 3866.2 1168 4141.8 1368.2 4195.1 1704.7Z"/>
<path transform="matrix(.1,0,0,-.1,0,792)" d="M4195.1 6596.5 4466.3 6734.6 4737.5 6596.5 4790.8 6933 5066.4 7133.2 4790.8 7333.5 4737.5 7670 4466.3 7531.8 4195.1 7670 4141.8 7333.5 3866.2 7133.2 4141.8 6933" fill="#8080bf"/>
<path transform="matrix(.1,0,0,-.1,0,792)" stroke-width="60" stroke-linecap="butt" stroke-miterlimit="10" stroke-linejoin="miter" fill="none" stroke="#ffffff" d="M4195.1 6596.5 4466.3 6734.6 4737.5 6596.5 4790.8 6933 5066.4 7133.2 4790.8 7333.5 4737.5 7670 4466.3 7531.8 4195.1 7670 4141.8 7333.5 3866.2 7133.2 4141.8 6933Z"/>
<path transform="matrix(.1,0,0,-.1,0,792)" d="M1754.9 6596.5 1808.2 6933 2083.8 7133.2 1808.2 7333.5 1754.9 7670 1483.7 7531.8 1212.5 7670 1159.2 7333.5 883.602 7133.2 1159.2 6933 1212.5 6596.5 1483.7 6734.6" fill="#8080bf"/>
<path transform="matrix(.1,0,0,-.1,0,792)" stroke-width="60" stroke-linecap="butt" stroke-miterlimit="10" stroke-linejoin="miter" fill="none" stroke="#ffffff" d="M1754.9 6596.5 1808.2 6933 2083.8 7133.2 1808.2 7333.5 1754.9 7670 1483.7 7531.8 1212.5 7670 1159.2 7333.5 883.602 7133.2 1159.2 6933 1212.5 6596.5 1483.7 6734.6Z"/>
<path transform="matrix(.1,0,0,-.1,0,792)" d="M1212.5 6596.5 1159.2 6933 883.602 7133.2 560 6898.1 622.602 6503 932.699 6453.9" fill="#bfbfe6"/>
<path transform="matrix(.1,0,0,-.1,0,792)" stroke-width="60" stroke-linecap="butt" stroke-miterlimit="10" stroke-linejoin="miter" fill="none" stroke="#ffffff" d="M1212.5 6596.5 1159.2 6933 883.602 7133.2 560 6898.1 622.602 6503 932.699 6453.9Z"/>
<path transform="matrix(.1,0,0,-.1,0,792)" d="M1212.5 4687.3 932.699 4829.9 622.602 4780.8 560 4385.7 883.602 4150.6 1159.2 4350.8" fill="#bfbfe6"/>
<path transform="matrix(.1,0,0,-.1,0,792)" stroke-width="60" stroke-linecap="butt" stroke-miterlimit="10" stroke-linejoin="miter" fill="none" stroke="#ffffff" d="M1212.5 4687.3 932.699 4829.9 622.602 4780.8 560 4385.7 883.602 4150.6 1159.2 4350.8Z"/>
<path transform="matrix(.1,0,0,-.1,0,792)" d="M1212.5 3613.8 1159.2 3950.3 883.602 4150.6 560 3915.5 622.602 3520.4 932.699 3471.3" fill="#bfbfe6"/>
<path transform="matrix(.1,0,0,-.1,0,792)" stroke-width="60" stroke-linecap="butt" stroke-miterlimit="10" stroke-linejoin="miter" fill="none" stroke="#ffffff" d="M1212.5 3613.8 1159.2 3950.3 883.602 4150.6 560 3915.5 622.602 3520.4 932.699 3471.3Z"/>
<path transform="matrix(.1,0,0,-.1,0,792)" d="M4737.5 3613.8 5017.3 3471.3 5327.4 3520.4 5390 3915.5 5066.4 4150.6 4790.8 3950.3" fill="#bfbfe6"/>
<path transform="matrix(.1,0,0,-.1,0,792)" stroke-width="60" stroke-linecap="butt" stroke-miterlimit="10" stroke-linejoin="miter" fill="none" stroke="#ffffff" d="M4737.5 3613.8 5017.3 3471.3 5327.4 3520.4 5390 3915.5 5066.4 4150.6 4790.8 3950.3Z"/>
<path transform="matrix(.1,0,0,-.1,0,792)" d="M4737.5 4687.3 4790.8 4350.8 5066.4 4150.6 5390 4385.7 5327.4 4780.8 5017.3 4829.9" fill="#bfbfe6"/>
<path transform="matrix(.1,0,0,-.1,0,792)" stroke-width="60" stroke-linecap="butt" stroke-miterlimit="10" stroke-linejoin="miter" fill="none" stroke="#ffffff" d="M4737.5 4687.3 4790.8 4350.8 5066.4 4150.6 5390 4385.7 5327.4 4780.8 5017.3 4829.9Z"/>
<path transform="matrix(.1,0,0,-.1,0,792)" d="M4737.5 6596.5 5017.3 6453.9 5327.4 6503 5390 6898.1 5066.4 7133.2 4790.8 6933" fill="#bfbfe6"/>
<path transform="matrix(.1,0,0,-.1,0,792)" stroke-width="60" stroke-linecap="butt" stroke-miterlimit="10" stroke-linejoin="miter" fill="none" stroke="#ffffff" d="M4737.5 6596.5 5017.3 6453.9 5327.4 6503 5390 6898.1 5066.4 7133.2 4790.8 6933Z"/>
<path transform="matrix(.1,0,0,-.1,0,792)" d="M1212.5 1704.7 1159.2 1368.2 883.602 1168 1159.2 967.699 1212.5 631.199 1483.7 769.398 1754.9 631.199 1808.2 967.699 2083.8 1168 1808.2 1368.2 1754.9 1704.7 1483.7 1566.5" fill="#8080bf"/>
<path transform="matrix(.1,0,0,-.1,0,792)" stroke-width="60" stroke-linecap="butt" stroke-miterlimit="10" stroke-linejoin="miter" fill="none" stroke="#ffffff" d="M1212.5 1704.7 1159.2 1368.2 883.602 1168 1159.2 967.699 1212.5 631.199 1483.7 769.398 1754.9 631.199 1808.2 967.699 2083.8 1168 1808.2 1368.2 1754.9 1704.7 1483.7 1566.5Z"/>
<path transform="matrix(.1,0,0,-.1,0,792)" d="M1212.5 1704.7 932.699 1847.3 622.602 1798.1 560 1403.1 883.602 1168 1159.2 1368.2" fill="#bfbfe6"/>
<path transform="matrix(.1,0,0,-.1,0,792)" stroke-width="60" stroke-linecap="butt" stroke-miterlimit="10" stroke-linejoin="miter" fill="none" stroke="#ffffff" d="M1212.5 1704.7 932.699 1847.3 622.602 1798.1 560 1403.1 883.602 1168 1159.2 1368.2Z"/>
<path transform="matrix(.1,0,0,-.1,0,792)" d="M4195.1 1704.7 4141.8 1368.2 3866.2 1168 4141.8 967.699 4195.1 631.199 4466.3 769.398 4737.5 631.199 4790.8 967.699 5066.4 1168 4790.8 1368.2 4737.5 1704.7 4466.3 1566.5" fill="#8080bf"/>
<path transform="matrix(.1,0,0,-.1,0,792)" stroke-width="60" stroke-linecap="butt" stroke-miterlimit="10" stroke-linejoin="miter" fill="none" stroke="#ffffff" d="M4195.1 1704.7 4141.8 1368.2 3866.2 1168 4141.8 967.699 4195.1 631.199 4466.3 769.398 4737.5 631.199 4790.8 967.699 5066.4 1168 4790.8 1368.2 4737.5 1704.7 4466.3 1566.5Z"/>
<path transform="matrix(.1,0,0,-.1,0,792)" d="M4737.5 1704.7 4790.8 1368.2 5066.4 1168 5390 1403.1 5327.4 1798.1 5017.3 1847.3" fill="#bfbfe6"/>
<path transform="matrix(.1,0,0,-.1,0,792)" stroke-width="60" stroke-linecap="butt" stroke-miterlimit="10" stroke-linejoin="miter" fill="none" stroke="#ffffff" d="M4737.5 1704.7 4790.8 1368.2 5066.4 1168 5390 1403.1 5327.4 1798.1 5017.3 1847.3Z"/>
<path transform="matrix(.1,0,0,-.1,0,792)" d="M4888.7 2659.3 5110.7 2437.2 5420.9 2388.1 5559 2659.3 5420.9 2930.4 5110.7 2881.3" fill="#bfbfe6"/>
<path transform="matrix(.1,0,0,-.1,0,792)" stroke-width="60" stroke-linecap="butt" stroke-miterlimit="10" stroke-linejoin="miter" fill="none" stroke="#ffffff" d="M4888.7 2659.3 5110.7 2437.2 5420.9 2388.1 5559 2659.3 5420.9 2930.4 5110.7 2881.3Z"/>
<path transform="matrix(.1,0,0,-.1,0,792)" d="M4888.7 5641.9 5110.7 5419.9 5420.9 5370.7 5559 5641.9 5420.9 5913.1 5110.7 5863.9" fill="#bfbfe6"/>
<path transform="matrix(.1,0,0,-.1,0,792)" stroke-width="60" stroke-linecap="butt" stroke-miterlimit="10" stroke-linejoin="miter" fill="none" stroke="#ffffff" d="M4888.7 5641.9 5110.7 5419.9 5420.9 5370.7 5559 5641.9 5420.9 5913.1 5110.7 5863.9Z"/>
<path transform="matrix(.1,0,0,-.1,0,792)" d="M1061.3 5641.9 839.301 5863.9 529.102 5913.1 391 5641.9 529.102 5370.7 839.301 5419.9" fill="#bfbfe6"/>
<path transform="matrix(.1,0,0,-.1,0,792)" stroke-width="60" stroke-linecap="butt" stroke-miterlimit="10" stroke-linejoin="miter" fill="none" stroke="#ffffff" d="M1061.3 5641.9 839.301 5863.9 529.102 5913.1 391 5641.9 529.102 5370.7 839.301 5419.9Z"/>
<path transform="matrix(.1,0,0,-.1,0,792)" d="M1061.3 2659.3 839.301 2881.3 529.102 2930.4 391 2659.3 529.102 2388.1 839.301 2437.2" fill="#bfbfe6"/>
<path transform="matrix(.1,0,0,-.1,0,792)" stroke-width="60" stroke-linecap="butt" stroke-miterlimit="10" stroke-linejoin="miter" fill="none" stroke="#ffffff" d="M1061.3 2659.3 839.301 2881.3 529.102 2930.4 391 2659.3 529.102 2388.1 839.301 2437.2Z"/>
<path transform="matrix(.1,0,0,-.1,0,792)" d="M5066.4 4150.6 5390 3915.5 5327.4 3520.4 5722.5 3583 5957.6 3259.4 6192.7 3583 6587.8 3520.4 6525.2 3915.5 6848.9 4150.6 6525.2 4385.7 6587.8 4780.8 6192.7 4718.2 5957.6 5041.8 5722.5 4718.2 5327.4 4780.8 5390 4385.7" fill="#8080bf"/>
<path transform="matrix(.1,0,0,-.1,0,792)" stroke-width="60" stroke-linecap="butt" stroke-miterlimit="10" stroke-linejoin="miter" fill="none" stroke="#ffffff" d="M5066.4 4150.6 5390 3915.5 5327.4 3520.4 5722.5 3583 5957.6 3259.4 6192.7 3583 6587.8 3520.4 6525.2 3915.5 6848.9 4150.6 6525.2 4385.7 6587.8 4780.8 6192.7 4718.2 5957.6 5041.8 5722.5 4718.2 5327.4 4780.8 5390 4385.7Z"/>
<path transform="matrix(.1,0,0,-.1,0,792)" d="M883.602 4150.6 560 4385.7 622.602 4780.8 227.5 4718.2-7.60156 5041.8-242.699 4718.2-637.801 4780.8-575.199 4385.7-898.898 4150.6-575.199 3915.5-637.801 3520.4-242.699 3583-7.60156 3259.4 227.5 3583 622.602 3520.4 560 3915.5" fill="#8080bf"/>
<path transform="matrix(.1,0,0,-.1,0,792)" stroke-width="60" stroke-linecap="butt" stroke-miterlimit="10" stroke-linejoin="miter" fill="none" stroke="#ffffff" d="M883.602 4150.6 560 4385.7 622.602 4780.8 227.5 4718.2-7.60156 5041.8-242.699 4718.2-637.801 4780.8-575.199 4385.7-898.898 4150.6-575.199 3915.5-637.801 3520.4-242.699 3583-7.60156 3259.4 227.5 3583 622.602 3520.4 560 3915.5Z"/>
<path transform="matrix(.1,0,0,-.1,0,792)" d="M5066.4 7133.2 5390 7368.3 5327.4 7763.4 5017.3 7812.5 4737.5 7670 4790.8 7333.5" fill="#bfbfe6"/>
<path transform="matrix(.1,0,0,-.1,0,792)" stroke-width="60" stroke-linecap="butt" stroke-miterlimit="10" stroke-linejoin="miter" fill="none" stroke="#ffffff" d="M5066.4 7133.2 5390 7368.3 5327.4 7763.4 5017.3 7812.5 4737.5 7670 4790.8 7333.5Z"/>
<path transform="matrix(.1,0,0,-.1,0,792)" d="M5066.4 7133.2 5390 6898.1 5327.4 6503 5722.5 6565.6 5957.6 6242 6192.7 6565.6 6587.8 6503 6525.2 6898.1 6848.9 7133.2 6525.2 7368.3 6587.8 7763.4 6192.7 7700.8 5957.6 8024.4 5722.5 7700.8 5327.4 7763.4 5390 7368.3" fill="#8080bf"/>
<path transform="matrix(.1,0,0,-.1,0,792)" stroke-width="60" stroke-linecap="butt" stroke-miterlimit="10" stroke-linejoin="miter" fill="none" stroke="#ffffff" d="M5066.4 7133.2 5390 6898.1 5327.4 6503 5722.5 6565.6 5957.6 6242 6192.7 6565.6 6587.8 6503 6525.2 6898.1 6848.9 7133.2 6525.2 7368.3 6587.8 7763.4 6192.7 7700.8 5957.6 8024.4 5722.5 7700.8 5327.4 7763.4 5390 7368.3Z"/>
<path transform="matrix(.1,0,0,-.1,0,792)" d="M3866.2 7133.2 4141.8 7333.5 4195.1 7670 3915.3 7812.5 3605.2 7763.4 3542.6 7368.3" fill="#bfbfe6"/>
<path transform="matrix(.1,0,0,-.1,0,792)" stroke-width="60" stroke-linecap="butt" stroke-miterlimit="10" stroke-linejoin="miter" fill="none" stroke="#ffffff" d="M3866.2 7133.2 4141.8 7333.5 4195.1 7670 3915.3 7812.5 3605.2 7763.4 3542.6 7368.3Z"/>
<path transform="matrix(.1,0,0,-.1,0,792)" d="M2083.8 7133.2 2407.4 7368.3 2344.8 7763.4 2034.7 7812.5 1754.9 7670 1808.2 7333.5" fill="#bfbfe6"/>
<path transform="matrix(.1,0,0,-.1,0,792)" stroke-width="60" stroke-linecap="butt" stroke-miterlimit="10" stroke-linejoin="miter" fill="none" stroke="#ffffff" d="M2083.8 7133.2 2407.4 7368.3 2344.8 7763.4 2034.7 7812.5 1754.9 7670 1808.2 7333.5Z"/>
<path transform="matrix(.1,0,0,-.1,0,792)" d="M883.602 7133.2 560 7368.3 622.602 7763.4 227.5 7700.8-7.60156 8024.4-242.699 7700.8-637.801 7763.4-575.199 7368.3-898.898 7133.2-575.199 6898.1-637.801 6503-242.699 6565.6-7.60156 6242 227.5 6565.6 622.602 6503 560 6898.1" fill="#8080bf"/>
<path transform="matrix(.1,0,0,-.1,0,792)" stroke-width="60" stroke-linecap="butt" stroke-miterlimit="10" stroke-linejoin="miter" fill="none" stroke="#ffffff" d="M883.602 7133.2 560 7368.3 622.602 7763.4 227.5 7700.8-7.60156 8024.4-242.699 7700.8-637.801 7763.4-575.199 7368.3-898.898 7133.2-575.199 6898.1-637.801 6503-242.699 6565.6-7.60156 6242 227.5 6565.6 622.602 6503 560 6898.1Z"/>
<path transform="matrix(.1,0,0,-.1,0,792)" d="M883.602 7133.2 1159.2 7333.5 1212.5 7670 932.699 7812.5 622.602 7763.4 560 7368.3" fill="#bfbfe6"/>
<path transform="matrix(.1,0,0,-.1,0,792)" stroke-width="60" stroke-linecap="butt" stroke-miterlimit="10" stroke-linejoin="miter" fill="none" stroke="#ffffff" d="M883.602 7133.2 1159.2 7333.5 1212.5 7670 932.699 7812.5 622.602 7763.4 560 7368.3Z"/>
<path transform="matrix(.1,0,0,-.1,0,792)" d="M883.602 1168 560 932.801 622.602 537.801 932.699 488.602 1212.5 631.199 1159.2 967.699" fill="#bfbfe6"/>
<path transform="matrix(.1,0,0,-.1,0,792)" stroke-width="60" stroke-linecap="butt" stroke-miterlimit="10" stroke-linejoin="miter" fill="none" stroke="#ffffff" d="M883.602 1168 560 932.801 622.602 537.801 932.699 488.602 1212.5 631.199 1159.2 967.699Z"/>
<path transform="matrix(.1,0,0,-.1,0,792)" d="M883.602 1168 560 1403.1 622.602 1798.1 227.5 1735.6-7.60156 2059.2-242.699 1735.6-637.801 1798.1-575.199 1403.1-898.898 1168-575.199 932.801-637.801 537.801-242.699 600.301-7.60156 276.699 227.5 600.301 622.602 537.801 560 932.801" fill="#8080bf"/>
<path transform="matrix(.1,0,0,-.1,0,792)" stroke-width="60" stroke-linecap="butt" stroke-miterlimit="10" stroke-linejoin="miter" fill="none" stroke="#ffffff" d="M883.602 1168 560 1403.1 622.602 1798.1 227.5 1735.6-7.60156 2059.2-242.699 1735.6-637.801 1798.1-575.199 1403.1-898.898 1168-575.199 932.801-637.801 537.801-242.699 600.301-7.60156 276.699 227.5 600.301 622.602 537.801 560 932.801Z"/>
<path transform="matrix(.1,0,0,-.1,0,792)" d="M2083.8 1168 1808.2 967.699 1754.9 631.199 2034.7 488.602 2344.8 537.801 2407.4 932.801" fill="#bfbfe6"/>
<path transform="matrix(.1,0,0,-.1,0,792)" stroke-width="60" stroke-linecap="butt" stroke-miterlimit="10" stroke-linejoin="miter" fill="none" stroke="#ffffff" d="M2083.8 1168 1808.2 967.699 1754.9 631.199 2034.7 488.602 2344.8 537.801 2407.4 932.801Z"/>
<path transform="matrix(.1,0,0,-.1,0,792)" d="M3866.2 1168 3542.6 932.801 3605.2 537.801 3915.3 488.602 4195.1 631.199 4141.8 967.699" fill="#bfbfe6"/>
<path transform="matrix(.1,0,0,-.1,0,792)" stroke-width="60" stroke-linecap="butt" stroke-miterlimit="10" stroke-linejoin="miter" fill="none" stroke="#ffffff" d="M3866.2 1168 3542.6 932.801 3605.2 537.801 3915.3 488.602 4195.1 631.199 4141.8 967.699Z"/>
<path transform="matrix(.1,0,0,-.1,0,792)" d="M5066.4 1168 5390 932.801 5327.4 537.801 5722.5 600.301 5957.6 276.699 6192.7 600.301 6587.8 537.801 6525.2 932.801 6848.9 1168 6525.2 1403.1 6587.8 1798.1 6192.7 1735.6 5957.6 2059.2 5722.5 1735.6 5327.4 1798.1 5390 1403.1" fill="#8080bf"/>
<path transform="matrix(.1,0,0,-.1,0,792)" stroke-width="60" stroke-linecap="butt" stroke-miterlimit="10" stroke-linejoin="miter" fill="none" stroke="#ffffff" d="M5066.4 1168 5390 932.801 5327.4 537.801 5722.5 600.301 5957.6 276.699 6192.7 600.301 6587.8 537.801 6525.2 932.801 6848.9 1168 6525.2 1403.1 6587.8 1798.1 6192.7 1735.6 5957.6 2059.2 5722.5 1735.6 5327.4 1798.1 5390 1403.1Z"/>
<path transform="matrix(.1,0,0,-.1,0,792)" d="M5066.4 1168 4790.8 967.699 4737.5 631.199 5017.3 488.602 5327.4 537.801 5390 932.801" fill="#bfbfe6"/>
<path transform="matrix(.1,0,0,-.1,0,792)" stroke-width="60" stroke-linecap="butt" stroke-miterlimit="10" stroke-linejoin="miter" fill="none" stroke="#ffffff" d="M5066.4 1168 4790.8 967.699 4737.5 631.199 5017.3 488.602 5327.4 537.801 5390 932.801Z"/>
<path transform="matrix(.1,0,0,-.1,0,792)" d="M5278.3 2108.3 5327.4 1798.1 5722.5 1735.6 5957.6 2059.2 5757.4 2334.8 5420.9 2388.1" fill="#bfbfe6"/>
<path transform="matrix(.1,0,0,-.1,0,792)" stroke-width="60" stroke-linecap="butt" stroke-miterlimit="10" stroke-linejoin="miter" fill="none" stroke="#ffffff" d="M5278.3 2108.3 5327.4 1798.1 5722.5 1735.6 5957.6 2059.2 5757.4 2334.8 5420.9 2388.1Z"/>
<path transform="matrix(.1,0,0,-.1,0,792)" d="M5278.3 3210.2 5420.9 2930.4 5757.4 2983.7 5957.6 3259.4 5722.5 3583 5327.4 3520.4" fill="#bfbfe6"/>
<path transform="matrix(.1,0,0,-.1,0,792)" stroke-width="60" stroke-linecap="butt" stroke-miterlimit="10" stroke-linejoin="miter" fill="none" stroke="#ffffff" d="M5278.3 3210.2 5420.9 2930.4 5757.4 2983.7 5957.6 3259.4 5722.5 3583 5327.4 3520.4Z"/>
<path transform="matrix(.1,0,0,-.1,0,792)" d="M5278.3 5090.9 5327.4 4780.8 5722.5 4718.2 5957.6 5041.8 5757.4 5317.4 5420.9 5370.7" fill="#bfbfe6"/>
<path transform="matrix(.1,0,0,-.1,0,792)" stroke-width="60" stroke-linecap="butt" stroke-miterlimit="10" stroke-linejoin="miter" fill="none" stroke="#ffffff" d="M5278.3 5090.9 5327.4 4780.8 5722.5 4718.2 5957.6 5041.8 5757.4 5317.4 5420.9 5370.7Z"/>
<path transform="matrix(.1,0,0,-.1,0,792)" d="M5278.3 6192.9 5420.9 5913.1 5757.4 5966.4 5957.6 6242 5722.5 6565.6 5327.4 6503" fill="#bfbfe6"/>
<path transform="matrix(.1,0,0,-.1,0,792)" stroke-width="60" stroke-linecap="butt" stroke-miterlimit="10" stroke-linejoin="miter" fill="none" stroke="#ffffff" d="M5278.3 6192.9 5420.9 5913.1 5757.4 5966.4 5957.6 6242 5722.5 6565.6 5327.4 6503Z"/>
<path transform="matrix(.1,0,0,-.1,0,792)" d="M671.699 6192.9 622.602 6503 227.5 6565.6-7.60156 6242 192.602 5966.4 529.102 5913.1" fill="#bfbfe6"/>
<path transform="matrix(.1,0,0,-.1,0,792)" stroke-width="60" stroke-linecap="butt" stroke-miterlimit="10" stroke-linejoin="miter" fill="none" stroke="#ffffff" d="M671.699 6192.9 622.602 6503 227.5 6565.6-7.60156 6242 192.602 5966.4 529.102 5913.1Z"/>
<path transform="matrix(.1,0,0,-.1,0,792)" d="M671.699 5090.9 529.102 5370.7 192.602 5317.4-7.60156 5041.8 227.5 4718.2 622.602 4780.8" fill="#bfbfe6"/>
<path transform="matrix(.1,0,0,-.1,0,792)" stroke-width="60" stroke-linecap="butt" stroke-miterlimit="10" stroke-linejoin="miter" fill="none" stroke="#ffffff" d="M671.699 5090.9 529.102 5370.7 192.602 5317.4-7.60156 5041.8 227.5 4718.2 622.602 4780.8Z"/>
<path transform="matrix(.1,0,0,-.1,0,792)" d="M671.699 3210.2 622.602 3520.4 227.5 3583-7.60156 3259.4 192.602 2983.7 529.102 2930.4" fill="#bfbfe6"/>
<path transform="matrix(.1,0,0,-.1,0,792)" stroke-width="60" stroke-linecap="butt" stroke-miterlimit="10" stroke-linejoin="miter" fill="none" stroke="#ffffff" d="M671.699 3210.2 622.602 3520.4 227.5 3583-7.60156 3259.4 192.602 2983.7 529.102 2930.4Z"/>
<path transform="matrix(.1,0,0,-.1,0,792)" d="M671.699 2108.3 529.102 2388.1 192.602 2334.8-7.60156 2059.2 227.5 1735.6 622.602 1798.1" fill="#bfbfe6"/>
<path transform="matrix(.1,0,0,-.1,0,792)" stroke-width="60" stroke-linecap="butt" stroke-miterlimit="10" stroke-linejoin="miter" fill="none" stroke="#ffffff" d="M671.699 2108.3 529.102 2388.1 192.602 2334.8-7.60156 2059.2 227.5 1735.6 622.602 1798.1Z"/>
<path transform="matrix(.1,0,0,-.1,0,792)" d="M4466.3 7531.8 4737.5 7670 4688.4 7980.1 4466.3 8202.2 4244.3 7980.1 4195.1 7670" fill="#bfbfe6"/>
<path transform="matrix(.1,0,0,-.1,0,792)" stroke-width="60" stroke-linecap="butt" stroke-miterlimit="10" stroke-linejoin="miter" fill="none" stroke="#ffffff" d="M4466.3 7531.8 4737.5 7670 4688.4 7980.1 4466.3 8202.2 4244.3 7980.1 4195.1 7670Z"/>
<path transform="matrix(.1,0,0,-.1,0,792)" d="M1483.7 7531.8 1754.9 7670 1705.7 7980.1 1483.7 8202.2 1261.6 7980.1 1212.5 7670" fill="#bfbfe6"/>
<path transform="matrix(.1,0,0,-.1,0,792)" stroke-width="60" stroke-linecap="butt" stroke-miterlimit="10" stroke-linejoin="miter" fill="none" stroke="#ffffff" d="M1483.7 7531.8 1754.9 7670 1705.7 7980.1 1483.7 8202.2 1261.6 7980.1 1212.5 7670Z"/>
<path transform="matrix(.1,0,0,-.1,0,792)" d="M529.102 5913.1 192.602 5966.4-7.60156 6242-207.898 5966.4-544.398 5913.1-406.199 5641.9-544.398 5370.7-207.898 5317.4-7.60156 5041.8 192.602 5317.4 529.102 5370.7 391 5641.9" fill="#8080bf"/>
<path transform="matrix(.1,0,0,-.1,0,792)" stroke-width="60" stroke-linecap="butt" stroke-miterlimit="10" stroke-linejoin="miter" fill="none" stroke="#ffffff" d="M529.102 5913.1 192.602 5966.4-7.60156 6242-207.898 5966.4-544.398 5913.1-406.199 5641.9-544.398 5370.7-207.898 5317.4-7.60156 5041.8 192.602 5317.4 529.102 5370.7 391 5641.9Z"/>
<path transform="matrix(.1,0,0,-.1,0,792)" d="M529.102 2930.4 192.602 2983.7-7.60156 3259.4-207.898 2983.7-544.398 2930.4-406.199 2659.3-544.398 2388.1-207.898 2334.8-7.60156 2059.2 192.602 2334.8 529.102 2388.1 391 2659.3" fill="#8080bf"/>
<path transform="matrix(.1,0,0,-.1,0,792)" stroke-width="60" stroke-linecap="butt" stroke-miterlimit="10" stroke-linejoin="miter" fill="none" stroke="#ffffff" d="M529.102 2930.4 192.602 2983.7-7.60156 3259.4-207.898 2983.7-544.398 2930.4-406.199 2659.3-544.398 2388.1-207.898 2334.8-7.60156 2059.2 192.602 2334.8 529.102 2388.1 391 2659.3Z"/>
<path transform="matrix(.1,0,0,-.1,0,792)" d="M5420.9 2388.1 5757.4 2334.8 5957.6 2059.2 6157.9 2334.8 6494.4 2388.1 6356.2 2659.3 6494.4 2930.4 6157.9 2983.7 5957.6 3259.4 5757.4 2983.7 5420.9 2930.4 5559 2659.3" fill="#8080bf"/>
<path transform="matrix(.1,0,0,-.1,0,792)" stroke-width="60" stroke-linecap="butt" stroke-miterlimit="10" stroke-linejoin="miter" fill="none" stroke="#ffffff" d="M5420.9 2388.1 5757.4 2334.8 5957.6 2059.2 6157.9 2334.8 6494.4 2388.1 6356.2 2659.3 6494.4 2930.4 6157.9 2983.7 5957.6 3259.4 5757.4 2983.7 5420.9 2930.4 5559 2659.3Z"/>
<path transform="matrix(.1,0,0,-.1,0,792)" d="M5420.9 5370.7 5757.4 5317.4 5957.6 5041.8 6157.9 5317.4 6494.4 5370.7 6356.2 5641.9 6494.4 5913.1 6157.9 5966.4 5957.6 6242 5757.4 5966.4 5420.9 5913.1 5559 5641.9" fill="#8080bf"/>
<path transform="matrix(.1,0,0,-.1,0,792)" stroke-width="60" stroke-linecap="butt" stroke-miterlimit="10" stroke-linejoin="miter" fill="none" stroke="#ffffff" d="M5420.9 5370.7 5757.4 5317.4 5957.6 5041.8 6157.9 5317.4 6494.4 5370.7 6356.2 5641.9 6494.4 5913.1 6157.9 5966.4 5957.6 6242 5757.4 5966.4 5420.9 5913.1 5559 5641.9Z"/>
<path transform="matrix(.1,0,0,-.1,0,792)" d="M1483.7 769.398 1212.5 631.199 1261.6 321 1483.7 99 1705.7 321 1754.9 631.199" fill="#bfbfe6"/>
<path transform="matrix(.1,0,0,-.1,0,792)" stroke-width="60" stroke-linecap="butt" stroke-miterlimit="10" stroke-linejoin="miter" fill="none" stroke="#ffffff" d="M1483.7 769.398 1212.5 631.199 1261.6 321 1483.7 99 1705.7 321 1754.9 631.199Z"/>
<path transform="matrix(.1,0,0,-.1,0,792)" d="M4466.3 769.398 4195.1 631.199 4244.3 321 4466.3 99 4688.4 321 4737.5 631.199" fill="#bfbfe6"/>
<path transform="matrix(.1,0,0,-.1,0,792)" stroke-width="60" stroke-linecap="butt" stroke-miterlimit="10" stroke-linejoin="miter" fill="none" stroke="#ffffff" d="M4466.3 769.398 4195.1 631.199 4244.3 321 4466.3 99 4688.4 321 4737.5 631.199Z"/>
<path transform="matrix(.1,0,0,-.1,0,792)" d="M4737.5 7670 5017.3 7812.5 5327.4 7763.4 5278.3 8073.6 5420.9 8353.4 5110.7 8402.5 4888.7 8624.5 4746.1 8344.7 4466.3 8202.2 4688.4 7980.1" fill="#8080bf"/>
<path transform="matrix(.1,0,0,-.1,0,792)" stroke-width="60" stroke-linecap="butt" stroke-miterlimit="10" stroke-linejoin="miter" fill="none" stroke="#ffffff" d="M4737.5 7670 5017.3 7812.5 5327.4 7763.4 5278.3 8073.6 5420.9 8353.4 5110.7 8402.5 4888.7 8624.5 4746.1 8344.7 4466.3 8202.2 4688.4 7980.1Z"/>
<path transform="matrix(.1,0,0,-.1,0,792)" d="M4195.1 7670 4244.3 7980.1 4466.3 8202.2 4186.5 8344.7 4044 8624.5 3821.9 8402.5 3511.7 8353.4 3654.3 8073.6 3605.2 7763.4 3915.3 7812.5" fill="#8080bf"/>
<path transform="matrix(.1,0,0,-.1,0,792)" stroke-width="60" stroke-linecap="butt" stroke-miterlimit="10" stroke-linejoin="miter" fill="none" stroke="#ffffff" d="M4195.1 7670 4244.3 7980.1 4466.3 8202.2 4186.5 8344.7 4044 8624.5 3821.9 8402.5 3511.7 8353.4 3654.3 8073.6 3605.2 7763.4 3915.3 7812.5Z"/>
<path transform="matrix(.1,0,0,-.1,0,792)" d="M1754.9 7670 2034.7 7812.5 2344.8 7763.4 2295.7 8073.6 2438.3 8353.4 2128.1 8402.5 1906 8624.5 1763.5 8344.7 1483.7 8202.2 1705.7 7980.1" fill="#8080bf"/>
<path transform="matrix(.1,0,0,-.1,0,792)" stroke-width="60" stroke-linecap="butt" stroke-miterlimit="10" stroke-linejoin="miter" fill="none" stroke="#ffffff" d="M1754.9 7670 2034.7 7812.5 2344.8 7763.4 2295.7 8073.6 2438.3 8353.4 2128.1 8402.5 1906 8624.5 1763.5 8344.7 1483.7 8202.2 1705.7 7980.1Z"/>
<path transform="matrix(.1,0,0,-.1,0,792)" d="M1212.5 7670 1261.6 7980.1 1483.7 8202.2 1203.9 8344.7 1061.3 8624.5 839.301 8402.5 529.102 8353.4 671.699 8073.6 622.602 7763.4 932.699 7812.5" fill="#8080bf"/>
<path transform="matrix(.1,0,0,-.1,0,792)" stroke-width="60" stroke-linecap="butt" stroke-miterlimit="10" stroke-linejoin="miter" fill="none" stroke="#ffffff" d="M1212.5 7670 1261.6 7980.1 1483.7 8202.2 1203.9 8344.7 1061.3 8624.5 839.301 8402.5 529.102 8353.4 671.699 8073.6 622.602 7763.4 932.699 7812.5Z"/>
<path transform="matrix(.1,0,0,-.1,0,792)" d="M3210.1 7700.8 3605.2 7763.4 3654.3 8073.6 3511.7 8353.4 3175.3 8300.1 2975 8024.4" fill="#bfbfe6"/>
<path transform="matrix(.1,0,0,-.1,0,792)" stroke-width="60" stroke-linecap="butt" stroke-miterlimit="10" stroke-linejoin="miter" fill="none" stroke="#ffffff" d="M3210.1 7700.8 3605.2 7763.4 3654.3 8073.6 3511.7 8353.4 3175.3 8300.1 2975 8024.4Z"/>
<path transform="matrix(.1,0,0,-.1,0,792)" d="M2739.9 7700.8 2975 8024.4 2774.7 8300.1 2438.3 8353.4 2295.7 8073.6 2344.8 7763.4" fill="#bfbfe6"/>
<path transform="matrix(.1,0,0,-.1,0,792)" stroke-width="60" stroke-linecap="butt" stroke-miterlimit="10" stroke-linejoin="miter" fill="none" stroke="#ffffff" d="M2739.9 7700.8 2975 8024.4 2774.7 8300.1 2438.3 8353.4 2295.7 8073.6 2344.8 7763.4Z"/>
<path transform="matrix(.1,0,0,-.1,0,792)" d="M622.602 7763.4 671.699 8073.6 529.102 8353.4 192.602 8300.1-7.60156 8024.4 227.5 7700.8" fill="#bfbfe6"/>
<path transform="matrix(.1,0,0,-.1,0,792)" stroke-width="60" stroke-linecap="butt" stroke-miterlimit="10" stroke-linejoin="miter" fill="none" stroke="#ffffff" d="M622.602 7763.4 671.699 8073.6 529.102 8353.4 192.602 8300.1-7.60156 8024.4 227.5 7700.8Z"/>
<path transform="matrix(.1,0,0,-.1,0,792)" d="M5327.4 7763.4 5722.5 7700.8 5957.6 8024.4 5757.4 8300.1 5420.9 8353.4 5278.3 8073.6" fill="#bfbfe6"/>
<path transform="matrix(.1,0,0,-.1,0,792)" stroke-width="60" stroke-linecap="butt" stroke-miterlimit="10" stroke-linejoin="miter" fill="none" stroke="#ffffff" d="M5327.4 7763.4 5722.5 7700.8 5957.6 8024.4 5757.4 8300.1 5420.9 8353.4 5278.3 8073.6Z"/>
<path transform="matrix(.1,0,0,-.1,0,792)" d="M1212.5 631.199 932.699 488.602 622.602 537.801 671.699 227.602 529.102-52.1992 839.301-101.301 1061.3-323.398 1203.9-43.6016 1483.7 99 1261.6 321" fill="#8080bf"/>
<path transform="matrix(.1,0,0,-.1,0,792)" stroke-width="60" stroke-linecap="butt" stroke-miterlimit="10" stroke-linejoin="miter" fill="none" stroke="#ffffff" d="M1212.5 631.199 932.699 488.602 622.602 537.801 671.699 227.602 529.102-52.1992 839.301-101.301 1061.3-323.398 1203.9-43.6016 1483.7 99 1261.6 321Z"/>
<path transform="matrix(.1,0,0,-.1,0,792)" d="M1754.9 631.199 1705.7 321 1483.7 99 1763.5-43.6016 1906-323.398 2128.1-101.301 2438.3-52.1992 2295.7 227.602 2344.8 537.801 2034.7 488.602" fill="#8080bf"/>
<path transform="matrix(.1,0,0,-.1,0,792)" stroke-width="60" stroke-linecap="butt" stroke-miterlimit="10" stroke-linejoin="miter" fill="none" stroke="#ffffff" d="M1754.9 631.199 1705.7 321 1483.7 99 1763.5-43.6016 1906-323.398 2128.1-101.301 2438.3-52.1992 2295.7 227.602 2344.8 537.801 2034.7 488.602Z"/>
<path transform="matrix(.1,0,0,-.1,0,792)" d="M4195.1 631.199 3915.3 488.602 3605.2 537.801 3654.3 227.602 3511.7-52.1992 3821.9-101.301 4044-323.398 4186.5-43.6016 4466.3 99 4244.3 321" fill="#8080bf"/>
<path transform="matrix(.1,0,0,-.1,0,792)" stroke-width="60" stroke-linecap="butt" stroke-miterlimit="10" stroke-linejoin="miter" fill="none" stroke="#ffffff" d="M4195.1 631.199 3915.3 488.602 3605.2 537.801 3654.3 227.602 3511.7-52.1992 3821.9-101.301 4044-323.398 4186.5-43.6016 4466.3 99 4244.3 321Z"/>
<path transform="matrix(.1,0,0,-.1,0,792)" d="M4737.5 631.199 4688.4 321 4466.3 99 4746.1-43.6016 4888.7-323.398 5110.7-101.301 5420.9-52.1992 5278.3 227.602 5327.4 537.801 5017.3 488.602" fill="#8080bf"/>
<path transform="matrix(.1,0,0,-.1,0,792)" stroke-width="60" stroke-linecap="butt" stroke-miterlimit="10" stroke-linejoin="miter" fill="none" stroke="#ffffff" d="M4737.5 631.199 4688.4 321 4466.3 99 4746.1-43.6016 4888.7-323.398 5110.7-101.301 5420.9-52.1992 5278.3 227.602 5327.4 537.801 5017.3 488.602Z"/>
<path transform="matrix(.1,0,0,-.1,0,792)" d="M2739.9 600.301 2344.8 537.801 2295.7 227.602 2438.3-52.1992 2774.7 1.10156 2975 276.699" fill="#bfbfe6"/>
<path transform="matrix(.1,0,0,-.1,0,792)" stroke-width="60" stroke-linecap="butt" stroke-miterlimit="10" stroke-linejoin="miter" fill="none" stroke="#ffffff" d="M2739.9 600.301 2344.8 537.801 2295.7 227.602 2438.3-52.1992 2774.7 1.10156 2975 276.699Z"/>
<path transform="matrix(.1,0,0,-.1,0,792)" d="M3210.1 600.301 2975 276.699 3175.3 1.10156 3511.7-52.1992 3654.3 227.602 3605.2 537.801" fill="#bfbfe6"/>
<path transform="matrix(.1,0,0,-.1,0,792)" stroke-width="60" stroke-linecap="butt" stroke-miterlimit="10" stroke-linejoin="miter" fill="none" stroke="#ffffff" d="M3210.1 600.301 2975 276.699 3175.3 1.10156 3511.7-52.1992 3654.3 227.602 3605.2 537.801Z"/>
<path transform="matrix(.1,0,0,-.1,0,792)" d="M5327.4 537.801 5278.3 227.602 5420.9-52.1992 5757.4 1.10156 5957.6 276.699 5722.5 600.301" fill="#bfbfe6"/>
<path transform="matrix(.1,0,0,-.1,0,792)" stroke-width="60" stroke-linecap="butt" stroke-miterlimit="10" stroke-linejoin="miter" fill="none" stroke="#ffffff" d="M5327.4 537.801 5278.3 227.602 5420.9-52.1992 5757.4 1.10156 5957.6 276.699 5722.5 600.301Z"/>
<path transform="matrix(.1,0,0,-.1,0,792)" d="M622.602 537.801 227.5 600.301-7.60156 276.699 192.602 1.10156 529.102-52.1992 671.699 227.602" fill="#bfbfe6"/>
<path transform="matrix(.1,0,0,-.1,0,792)" stroke-width="60" stroke-linecap="butt" stroke-miterlimit="10" stroke-linejoin="miter" fill="none" stroke="#ffffff" d="M622.602 537.801 227.5 600.301-7.60156 276.699 192.602 1.10156 529.102-52.1992 671.699 227.602Z"/>
<path transform="matrix(.1,0,0,-.1,0,792)" d="M2975 276.699 2774.7 1.10156 2438.3-52.1992 2576.4-323.398 2438.3-594.5 2774.7-647.801 2975-923.5 3175.3-647.801 3511.7-594.5 3373.6-323.398 3511.7-52.1992 3175.3 1.10156" fill="#8080bf"/>
<path transform="matrix(.1,0,0,-.1,0,792)" stroke-width="60" stroke-linecap="butt" stroke-miterlimit="10" stroke-linejoin="miter" fill="none" stroke="#ffffff" d="M2975 276.699 2774.7 1.10156 2438.3-52.1992 2576.4-323.398 2438.3-594.5 2774.7-647.801 2975-923.5 3175.3-647.801 3511.7-594.5 3373.6-323.398 3511.7-52.1992 3175.3 1.10156Z"/>
<path transform="matrix(.1,0,0,-.1,0,792)" d="M5957.6 8024.4 6192.7 7700.8 6587.8 7763.4 6636.9 8073.6 6494.4 8353.4 6157.9 8300.1" fill="#bfbfe6"/>
<path transform="matrix(.1,0,0,-.1,0,792)" stroke-width="60" stroke-linecap="butt" stroke-miterlimit="10" stroke-linejoin="miter" fill="none" stroke="#ffffff" d="M5957.6 8024.4 6192.7 7700.8 6587.8 7763.4 6636.9 8073.6 6494.4 8353.4 6157.9 8300.1Z"/>
<path transform="matrix(.1,0,0,-.1,0,792)" stroke-width="60" stroke-linecap="butt" stroke-miterlimit="10" stroke-linejoin="miter" fill="none" stroke="#ffffff" d="M-7.60156 8024.4-207.898 8300.1-544.398 8353.4-686.898 8073.6-637.801 7763.4-242.699 7700.8Z"/>
<path transform="matrix(.1,0,0,-.1,0,792)" stroke-width="60" stroke-linecap="butt" stroke-miterlimit="10" stroke-linejoin="miter" fill="none" stroke="#ffffff" d="M-7.60156 6242-242.699 6565.6-637.801 6503-686.898 6192.9-544.398 5913.1-207.898 5966.4Z"/>
<path transform="matrix(.1,0,0,-.1,0,792)" stroke-width="60" stroke-linecap="butt" stroke-miterlimit="10" stroke-linejoin="miter" fill="none" stroke="#ffffff" d="M-7.60156 5041.8-207.898 5317.4-544.398 5370.7-686.898 5090.9-637.801 4780.8-242.699 4718.2Z"/>
<path transform="matrix(.1,0,0,-.1,0,792)" stroke-width="60" stroke-linecap="butt" stroke-miterlimit="10" stroke-linejoin="miter" fill="none" stroke="#ffffff" d="M-7.60156 3259.4-242.699 3583-637.801 3520.4-686.898 3210.2-544.398 2930.4-207.898 2983.7Z"/>
<path transform="matrix(.1,0,0,-.1,0,792)" stroke-width="60" stroke-linecap="butt" stroke-miterlimit="10" stroke-linejoin="miter" fill="none" stroke="#ffffff" d="M-7.60156 2059.2-207.898 2334.8-544.398 2388.1-686.898 2108.3-637.801 1798.1-242.699 1735.6Z"/>
<path transform="matrix(.1,0,0,-.1,0,792)" d="M-7.60156 276.699-207.898 1.10156-544.398-52.1992-406.199-323.398-544.398-594.5-207.898-647.801-7.60156-923.5 192.602-647.801 529.102-594.5 391-323.398 529.102-52.1992 192.602 1.10156" fill="#8080bf"/>
<path transform="matrix(.1,0,0,-.1,0,792)" stroke-width="60" stroke-linecap="butt" stroke-miterlimit="10" stroke-linejoin="miter" fill="none" stroke="#ffffff" d="M-7.60156 276.699-207.898 1.10156-544.398-52.1992-406.199-323.398-544.398-594.5-207.898-647.801-7.60156-923.5 192.602-647.801 529.102-594.5 391-323.398 529.102-52.1992 192.602 1.10156Z"/>
<path transform="matrix(.1,0,0,-.1,0,792)" stroke-width="60" stroke-linecap="butt" stroke-miterlimit="10" stroke-linejoin="miter" fill="none" stroke="#ffffff" d="M-7.60156 276.699-242.699 600.301-637.801 537.801-686.898 227.602-544.398-52.1992-207.898 1.10156Z"/>
<path transform="matrix(.1,0,0,-.1,0,792)" d="M5957.6 276.699 6157.9 1.10156 6494.4-52.1992 6636.9 227.602 6587.8 537.801 6192.7 600.301" fill="#bfbfe6"/>
<path transform="matrix(.1,0,0,-.1,0,792)" stroke-width="60" stroke-linecap="butt" stroke-miterlimit="10" stroke-linejoin="miter" fill="none" stroke="#ffffff" d="M5957.6 276.699 6157.9 1.10156 6494.4-52.1992 6636.9 227.602 6587.8 537.801 6192.7 600.301Z"/>
<path transform="matrix(.1,0,0,-.1,0,792)" d="M5957.6 276.699 5757.4 1.10156 5420.9-52.1992 5559-323.398 5420.9-594.5 5757.4-647.801 5957.6-923.5 6157.9-647.801 6494.4-594.5 6356.2-323.398 6494.4-52.1992 6157.9 1.10156" fill="#8080bf"/>
<path transform="matrix(.1,0,0,-.1,0,792)" stroke-width="60" stroke-linecap="butt" stroke-miterlimit="10" stroke-linejoin="miter" fill="none" stroke="#ffffff" d="M5957.6 276.699 5757.4 1.10156 5420.9-52.1992 5559-323.398 5420.9-594.5 5757.4-647.801 5957.6-923.5 6157.9-647.801 6494.4-594.5 6356.2-323.398 6494.4-52.1992 6157.9 1.10156Z"/>
<path transform="matrix(.1,0,0,-.1,0,792)" d="M5957.6 2059.2 6192.7 1735.6 6587.8 1798.1 6636.9 2108.3 6494.4 2388.1 6157.9 2334.8" fill="#bfbfe6"/>
<path transform="matrix(.1,0,0,-.1,0,792)" stroke-width="60" stroke-linecap="butt" stroke-miterlimit="10" stroke-linejoin="miter" fill="none" stroke="#ffffff" d="M5957.6 2059.2 6192.7 1735.6 6587.8 1798.1 6636.9 2108.3 6494.4 2388.1 6157.9 2334.8Z"/>
<path transform="matrix(.1,0,0,-.1,0,792)" d="M5957.6 3259.4 6157.9 2983.7 6494.4 2930.4 6636.9 3210.2 6587.8 3520.4 6192.7 3583" fill="#bfbfe6"/>
<path transform="matrix(.1,0,0,-.1,0,792)" stroke-width="60" stroke-linecap="butt" stroke-miterlimit="10" stroke-linejoin="miter" fill="none" stroke="#ffffff" d="M5957.6 3259.4 6157.9 2983.7 6494.4 2930.4 6636.9 3210.2 6587.8 3520.4 6192.7 3583Z"/>
<path transform="matrix(.1,0,0,-.1,0,792)" d="M5957.6 5041.8 6192.7 4718.2 6587.8 4780.8 6636.9 5090.9 6494.4 5370.7 6157.9 5317.4" fill="#bfbfe6"/>
<path transform="matrix(.1,0,0,-.1,0,792)" stroke-width="60" stroke-linecap="butt" stroke-miterlimit="10" stroke-linejoin="miter" fill="none" stroke="#ffffff" d="M5957.6 5041.8 6192.7 4718.2 6587.8 4780.8 6636.9 5090.9 6494.4 5370.7 6157.9 5317.4Z"/>
<path transform="matrix(.1,0,0,-.1,0,792)" d="M5957.6 6242 6157.9 5966.4 6494.4 5913.1 6636.9 6192.9 6587.8 6503 6192.7 6565.6" fill="#bfbfe6"/>
<path transform="matrix(.1,0,0,-.1,0,792)" stroke-width="60" stroke-linecap="butt" stroke-miterlimit="10" stroke-linejoin="miter" fill="none" stroke="#ffffff" d="M5957.6 6242 6157.9 5966.4 6494.4 5913.1 6636.9 6192.9 6587.8 6503 6192.7 6565.6Z"/>
<path transform="matrix(.1,0,0,-.1,0,792)" d="M1483.7 99 1203.9-43.6016 1061.3-323.398 1203.9-603.199 1483.7-745.699 1763.5-603.199 1906-323.398 1763.5-43.6016" fill="#bfbfe6"/>
<path transform="matrix(.1,0,0,-.1,0,792)" stroke-width="60" stroke-linecap="butt" stroke-miterlimit="10" stroke-linejoin="miter" fill="none" stroke="#ffffff" d="M1483.7 99 1203.9-43.6016 1061.3-323.398 1203.9-603.199 1483.7-745.699 1763.5-603.199 1906-323.398 1763.5-43.6016Z"/>
<path transform="matrix(.1,0,0,-.1,0,792)" d="M4466.3 99 4186.5-43.6016 4044-323.398 4186.5-603.199 4466.3-745.699 4746.1-603.199 4888.7-323.398 4746.1-43.6016" fill="#bfbfe6"/>
<path transform="matrix(.1,0,0,-.1,0,792)" stroke-width="60" stroke-linecap="butt" stroke-miterlimit="10" stroke-linejoin="miter" fill="none" stroke="#ffffff" d="M4466.3 99 4186.5-43.6016 4044-323.398 4186.5-603.199 4466.3-745.699 4746.1-603.199 4888.7-323.398 4746.1-43.6016Z"/>
</svg>
