<svg xmlns="http://www.w3.org/2000/svg" xmlns:xlink="http://www.w3.org/1999/xlink" xmlns:inkscape="http://www.inkscape.org/namespaces/inkscape" version="1.1" width="612" height="792" viewBox="0 0 612 792">
<path transform="matrix(.1,0,0,-.1,0,792)" d="M2975 3511.7 3116.4 3653.1 3309.6 3601.3 3361.4 3794.5 3554.6 3846.3 3502.8 4039.5 3644.2 4180.9 3502.8 4322.3 3554.6 4515.5 3361.4 4567.3 3309.6 4760.5 3116.4 4708.7 2975 4850.1 2833.6 4708.7 2640.4 4760.5 2588.6 4567.3 2395.4 4515.5 2447.2 4322.3 2305.8 4180.9 2447.2 4039.5 2395.4 3846.3 2588.6 3794.5 2640.4 3601.3 2833.6 3653.1" fill="#999999"/>
<path transform="matrix(.1,0,0,-.1,0,792)" stroke-width="70" stroke-linecap="butt" stroke-miterlimit="10" stroke-linejoin="miter" fill="none" stroke="#ffffff" d="M2975 3511.7 3116.4 3653.1 3309.6 3601.3 3361.4 3794.5 3554.6 3846.3 3502.8 4039.5 3644.2 4180.9 3502.8 4322.3 3554.6 4515.5 3361.4 4567.3 3309.6 4760.5 3116.4 4708.7 2975 4850.1 2833.6 4708.7 2640.4 4760.5 2588.6 4567.3 2395.4 4515.5 2447.2 4322.3 2305.8 4180.9 2447.2 4039.5 2395.4 3846.3 2588.6 3794.5 2640.4 3601.3 2833.6 3653.1Z"/>
<path transform="matrix(.1,0,0,-.1,0,792)" d="M3116.4 4708.7 3309.6 4760.5 3219.9 5095.1 2975 4850.1Z" fill="#cc3333"/>
<path transform="matrix(.1,0,0,-.1,0,792)" stroke-width="70" stroke-linecap="butt" stroke-miterlimit="10" stroke-linejoin="miter" fill="none" stroke="#ffffff" d="M3116.4 4708.7 3309.6 4760.5 3219.9 5095.1 2975 4850.1Z"/>
<path transform="matrix(.1,0,0,-.1,0,792)" d="M2833.6 4708.7 2975 4850.1 2730.1 5095.1 2640.4 4760.5Z" fill="#cc3333"/>
<path transform="matrix(.1,0,0,-.1,0,792)" stroke-width="70" stroke-linecap="butt" stroke-miterlimit="10" stroke-linejoin="miter" fill="none" stroke="#ffffff" d="M2833.6 4708.7 2975 4850.1 2730.1 5095.1 2640.4 4760.5Z"/>
<path transform="matrix(.1,0,0,-.1,0,792)" d="M2588.6 4567.3 2640.4 4760.5 2305.8 4850.1 2395.4 4515.5Z" fill="#cc3333"/>
<path transform="matrix(.1,0,0,-.1,0,792)" stroke-width="70" stroke-linecap="butt" stroke-miterlimit="10" stroke-linejoin="miter" fill="none" stroke="#ffffff" d="M2588.6 4567.3 2640.4 4760.5 2305.8 4850.1 2395.4 4515.5Z"/>
<path transform="matrix(.1,0,0,-.1,0,792)" d="M2588.6 3794.5 2395.4 3846.3 2305.8 3511.7 2640.4 3601.3Z" fill="#cc3333"/>
<path transform="matrix(.1,0,0,-.1,0,792)" stroke-width="70" stroke-linecap="butt" stroke-miterlimit="10" stroke-linejoin="miter" fill="none" stroke="#ffffff" d="M2588.6 3794.5 2395.4 3846.3 2305.8 3511.7 2640.4 3601.3Z"/>
<path transform="matrix(.1,0,0,-.1,0,792)" d="M3361.4 3794.5 3309.6 3601.3 3644.2 3511.7 3554.6 3846.3Z" fill="#cc3333"/>
<path transform="matrix(.1,0,0,-.1,0,792)" stroke-width="70" stroke-linecap="butt" stroke-miterlimit="10" stroke-linejoin="miter" fill="none" stroke="#ffffff" d="M3361.4 3794.5 3309.6 3601.3 3644.2 3511.7 3554.6 3846.3Z"/>
<path transform="matrix(.1,0,0,-.1,0,792)" d="M3361.4 4567.3 3554.6 4515.5 3644.2 4850.1 3309.6 4760.5Z" fill="#cc3333"/>
<path transform="matrix(.1,0,0,-.1,0,792)" stroke-width="70" stroke-linecap="butt" stroke-miterlimit="10" stroke-linejoin="miter" fill="none" stroke="#ffffff" d="M3361.4 4567.3 3554.6 4515.5 3644.2 4850.1 3309.6 4760.5Z"/>
<path transform="matrix(.1,0,0,-.1,0,792)" d="M3309.6 4760.5 3644.2 4850.1 3696 5043.3 3554.6 5184.7 3361.4 5236.5 3219.9 5095.1" fill="#999999"/>
<path transform="matrix(.1,0,0,-.1,0,792)" stroke-width="70" stroke-linecap="butt" stroke-miterlimit="10" stroke-linejoin="miter" fill="none" stroke="#ffffff" d="M3309.6 4760.5 3644.2 4850.1 3696 5043.3 3554.6 5184.7 3361.4 5236.5 3219.9 5095.1Z"/>
<path transform="matrix(.1,0,0,-.1,0,792)" d="M2640.4 4760.5 2730.1 5095.1 2588.6 5236.5 2395.4 5184.7 2254 5043.3 2305.8 4850.1" fill="#999999"/>
<path transform="matrix(.1,0,0,-.1,0,792)" stroke-width="70" stroke-linecap="butt" stroke-miterlimit="10" stroke-linejoin="miter" fill="none" stroke="#ffffff" d="M2640.4 4760.5 2730.1 5095.1 2588.6 5236.5 2395.4 5184.7 2254 5043.3 2305.8 4850.1Z"/>
<path transform="matrix(.1,0,0,-.1,0,792)" d="M2833.6 3653.1 2640.4 3601.3 2730.1 3266.7 2975 3511.7Z" fill="#cc3333"/>
<path transform="matrix(.1,0,0,-.1,0,792)" stroke-width="70" stroke-linecap="butt" stroke-miterlimit="10" stroke-linejoin="miter" fill="none" stroke="#ffffff" d="M2833.6 3653.1 2640.4 3601.3 2730.1 3266.7 2975 3511.7Z"/>
<path transform="matrix(.1,0,0,-.1,0,792)" d="M3116.4 3653.1 2975 3511.7 3219.9 3266.7 3309.6 3601.3Z" fill="#cc3333"/>
<path transform="matrix(.1,0,0,-.1,0,792)" stroke-width="70" stroke-linecap="butt" stroke-miterlimit="10" stroke-linejoin="miter" fill="none" stroke="#ffffff" d="M3116.4 3653.1 2975 3511.7 3219.9 3266.7 3309.6 3601.3Z"/>
<path transform="matrix(.1,0,0,-.1,0,792)" d="M3309.6 3601.3 3219.9 3266.7 3361.4 3125.3 3554.6 3177.1 3696 3318.5 3644.2 3511.7" fill="#999999"/>
<path transform="matrix(.1,0,0,-.1,0,792)" stroke-width="70" stroke-linecap="butt" stroke-miterlimit="10" stroke-linejoin="miter" fill="none" stroke="#ffffff" d="M3309.6 3601.3 3219.9 3266.7 3361.4 3125.3 3554.6 3177.1 3696 3318.5 3644.2 3511.7Z"/>
<path transform="matrix(.1,0,0,-.1,0,792)" d="M2640.4 3601.3 2305.8 3511.7 2254 3318.5 2395.4 3177.1 2588.6 3125.3 2730.1 3266.7" fill="#999999"/>
<path transform="matrix(.1,0,0,-.1,0,792)" stroke-width="70" stroke-linecap="butt" stroke-miterlimit="10" stroke-linejoin="miter" fill="none" stroke="#ffffff" d="M2640.4 3601.3 2305.8 3511.7 2254 3318.5 2395.4 3177.1 2588.6 3125.3 2730.1 3266.7Z"/>
<path transform="matrix(.1,0,0,-.1,0,792)" d="M2975 4850.1 3219.9 5095.1 3168.2 5288.3 2975 5340 2781.8 5288.3 2730.1 5095.1" fill="#999999"/>
<path transform="matrix(.1,0,0,-.1,0,792)" stroke-width="70" stroke-linecap="butt" stroke-miterlimit="10" stroke-linejoin="miter" fill="none" stroke="#ffffff" d="M2975 4850.1 3219.9 5095.1 3168.2 5288.3 2975 5340 2781.8 5288.3 2730.1 5095.1Z"/>
<path transform="matrix(.1,0,0,-.1,0,792)" d="M2975 3511.7 2730.1 3266.7 2781.8 3073.6 2975 3021.8 3168.2 3073.6 3219.9 3266.7" fill="#999999"/>
<path transform="matrix(.1,0,0,-.1,0,792)" stroke-width="70" stroke-linecap="butt" stroke-miterlimit="10" stroke-linejoin="miter" fill="none" stroke="#ffffff" d="M2975 3511.7 2730.1 3266.7 2781.8 3073.6 2975 3021.8 3168.2 3073.6 3219.9 3266.7Z"/>
<path transform="matrix(.1,0,0,-.1,0,792)" d="M3502.8 4039.5 3554.6 3846.3 3889.2 3936 3644.2 4180.9Z" fill="#cc3333"/>
<path transform="matrix(.1,0,0,-.1,0,792)" stroke-width="70" stroke-linecap="butt" stroke-miterlimit="10" stroke-linejoin="miter" fill="none" stroke="#ffffff" d="M3502.8 4039.5 3554.6 3846.3 3889.2 3936 3644.2 4180.9Z"/>
<path transform="matrix(.1,0,0,-.1,0,792)" d="M3502.8 4322.3 3644.2 4180.9 3889.2 4425.9 3554.6 4515.5Z" fill="#cc3333"/>
<path transform="matrix(.1,0,0,-.1,0,792)" stroke-width="70" stroke-linecap="butt" stroke-miterlimit="10" stroke-linejoin="miter" fill="none" stroke="#ffffff" d="M3502.8 4322.3 3644.2 4180.9 3889.2 4425.9 3554.6 4515.5Z"/>
<path transform="matrix(.1,0,0,-.1,0,792)" d="M2447.2 4322.3 2395.4 4515.5 2060.8 4425.9 2305.8 4180.9Z" fill="#cc3333"/>
<path transform="matrix(.1,0,0,-.1,0,792)" stroke-width="70" stroke-linecap="butt" stroke-miterlimit="10" stroke-linejoin="miter" fill="none" stroke="#ffffff" d="M2447.2 4322.3 2395.4 4515.5 2060.8 4425.9 2305.8 4180.9Z"/>
<path transform="matrix(.1,0,0,-.1,0,792)" d="M2447.2 4039.5 2305.8 4180.9 2060.8 3936 2395.4 3846.3Z" fill="#cc3333"/>
<path transform="matrix(.1,0,0,-.1,0,792)" stroke-width="70" stroke-linecap="butt" stroke-miterlimit="10" stroke-linejoin="miter" fill="none" stroke="#ffffff" d="M2447.2 4039.5 2305.8 4180.9 2060.8 3936 2395.4 3846.3Z"/>
<path transform="matrix(.1,0,0,-.1,0,792)" d="M2395.4 3846.3 2060.8 3936 1919.4 3794.5 1971.2 3601.3 2112.6 3459.9 2305.8 3511.7" fill="#999999"/>
<path transform="matrix(.1,0,0,-.1,0,792)" stroke-width="70" stroke-linecap="butt" stroke-miterlimit="10" stroke-linejoin="miter" fill="none" stroke="#ffffff" d="M2395.4 3846.3 2060.8 3936 1919.4 3794.5 1971.2 3601.3 2112.6 3459.9 2305.8 3511.7Z"/>
<path transform="matrix(.1,0,0,-.1,0,792)" d="M3554.6 3846.3 3644.2 3511.7 3837.4 3459.9 3978.8 3601.3 4030.6 3794.5 3889.2 3936" fill="#999999"/>
<path transform="matrix(.1,0,0,-.1,0,792)" stroke-width="70" stroke-linecap="butt" stroke-miterlimit="10" stroke-linejoin="miter" fill="none" stroke="#ffffff" d="M3554.6 3846.3 3644.2 3511.7 3837.4 3459.9 3978.8 3601.3 4030.6 3794.5 3889.2 3936Z"/>
<path transform="matrix(.1,0,0,-.1,0,792)" d="M3554.6 4515.5 3889.2 4425.9 4030.6 4567.3 3978.8 4760.5 3837.4 4901.9 3644.2 4850.1" fill="#999999"/>
<path transform="matrix(.1,0,0,-.1,0,792)" stroke-width="70" stroke-linecap="butt" stroke-miterlimit="10" stroke-linejoin="miter" fill="none" stroke="#ffffff" d="M3554.6 4515.5 3889.2 4425.9 4030.6 4567.3 3978.8 4760.5 3837.4 4901.9 3644.2 4850.1Z"/>
<path transform="matrix(.1,0,0,-.1,0,792)" d="M2395.4 4515.5 2305.8 4850.1 2112.6 4901.9 1971.2 4760.5 1919.4 4567.3 2060.8 4425.9" fill="#999999"/>
<path transform="matrix(.1,0,0,-.1,0,792)" stroke-width="70" stroke-linecap="butt" stroke-miterlimit="10" stroke-linejoin="miter" fill="none" stroke="#ffffff" d="M2395.4 4515.5 2305.8 4850.1 2112.6 4901.9 1971.2 4760.5 1919.4 4567.3 2060.8 4425.9Z"/>
<path transform="matrix(.1,0,0,-.1,0,792)" d="M3219.9 5095.1 3361.4 5236.5 3554.6 5184.7 3309.6 5429.7 2975 5340 3168.2 5288.3" fill="#c76659"/>
<path transform="matrix(.1,0,0,-.1,0,792)" stroke-width="70" stroke-linecap="butt" stroke-miterlimit="10" stroke-linejoin="miter" fill="none" stroke="#ffffff" d="M3219.9 5095.1 3361.4 5236.5 3554.6 5184.7 3309.6 5429.7 2975 5340 3168.2 5288.3Z"/>
<path transform="matrix(.1,0,0,-.1,0,792)" d="M2730.1 5095.1 2781.8 5288.3 2975 5340 2640.4 5429.7 2395.4 5184.7 2588.6 5236.5" fill="#c76659"/>
<path transform="matrix(.1,0,0,-.1,0,792)" stroke-width="70" stroke-linecap="butt" stroke-miterlimit="10" stroke-linejoin="miter" fill="none" stroke="#ffffff" d="M2730.1 5095.1 2781.8 5288.3 2975 5340 2640.4 5429.7 2395.4 5184.7 2588.6 5236.5Z"/>
<path transform="matrix(.1,0,0,-.1,0,792)" d="M2305.8 4850.1 2254 5043.3 2395.4 5184.7 2060.8 5095.1 1971.2 4760.5 2112.6 4901.9" fill="#c76659"/>
<path transform="matrix(.1,0,0,-.1,0,792)" stroke-width="70" stroke-linecap="butt" stroke-miterlimit="10" stroke-linejoin="miter" fill="none" stroke="#ffffff" d="M2305.8 4850.1 2254 5043.3 2395.4 5184.7 2060.8 5095.1 1971.2 4760.5 2112.6 4901.9Z"/>
<path transform="matrix(.1,0,0,-.1,0,792)" d="M2305.8 4180.9 2060.8 4425.9 1867.7 4374.1 1815.9 4180.9 1867.7 3987.7 2060.8 3936" fill="#999999"/>
<path transform="matrix(.1,0,0,-.1,0,792)" stroke-width="70" stroke-linecap="butt" stroke-miterlimit="10" stroke-linejoin="miter" fill="none" stroke="#ffffff" d="M2305.8 4180.9 2060.8 4425.9 1867.7 4374.1 1815.9 4180.9 1867.7 3987.7 2060.8 3936Z"/>
<path transform="matrix(.1,0,0,-.1,0,792)" d="M2305.8 3511.7 2112.6 3459.9 1971.2 3601.3 2060.8 3266.7 2395.4 3177.1 2254 3318.5" fill="#c76659"/>
<path transform="matrix(.1,0,0,-.1,0,792)" stroke-width="70" stroke-linecap="butt" stroke-miterlimit="10" stroke-linejoin="miter" fill="none" stroke="#ffffff" d="M2305.8 3511.7 2112.6 3459.9 1971.2 3601.3 2060.8 3266.7 2395.4 3177.1 2254 3318.5Z"/>
<path transform="matrix(.1,0,0,-.1,0,792)" d="M3644.2 3511.7 3696 3318.5 3554.6 3177.1 3889.2 3266.7 3978.8 3601.3 3837.4 3459.9" fill="#c76659"/>
<path transform="matrix(.1,0,0,-.1,0,792)" stroke-width="70" stroke-linecap="butt" stroke-miterlimit="10" stroke-linejoin="miter" fill="none" stroke="#ffffff" d="M3644.2 3511.7 3696 3318.5 3554.6 3177.1 3889.2 3266.7 3978.8 3601.3 3837.4 3459.9Z"/>
<path transform="matrix(.1,0,0,-.1,0,792)" d="M3644.2 4180.9 3889.2 3936 4082.3 3987.7 4134.1 4180.9 4082.3 4374.1 3889.2 4425.9" fill="#999999"/>
<path transform="matrix(.1,0,0,-.1,0,792)" stroke-width="70" stroke-linecap="butt" stroke-miterlimit="10" stroke-linejoin="miter" fill="none" stroke="#ffffff" d="M3644.2 4180.9 3889.2 3936 4082.3 3987.7 4134.1 4180.9 4082.3 4374.1 3889.2 4425.9Z"/>
<path transform="matrix(.1,0,0,-.1,0,792)" d="M3644.2 4850.1 3837.4 4901.9 3978.8 4760.5 3889.2 5095.1 3554.6 5184.7 3696 5043.3" fill="#c76659"/>
<path transform="matrix(.1,0,0,-.1,0,792)" stroke-width="70" stroke-linecap="butt" stroke-miterlimit="10" stroke-linejoin="miter" fill="none" stroke="#ffffff" d="M3644.2 4850.1 3837.4 4901.9 3978.8 4760.5 3889.2 5095.1 3554.6 5184.7 3696 5043.3Z"/>
<path transform="matrix(.1,0,0,-.1,0,792)" d="M2730.1 3266.7 2588.6 3125.3 2395.4 3177.1 2640.4 2932.1 2975 3021.8 2781.8 3073.6" fill="#c76659"/>
<path transform="matrix(.1,0,0,-.1,0,792)" stroke-width="70" stroke-linecap="butt" stroke-miterlimit="10" stroke-linejoin="miter" fill="none" stroke="#ffffff" d="M2730.1 3266.7 2588.6 3125.3 2395.4 3177.1 2640.4 2932.1 2975 3021.8 2781.8 3073.6Z"/>
<path transform="matrix(.1,0,0,-.1,0,792)" d="M3219.9 3266.7 3168.2 3073.6 2975 3021.8 3309.6 2932.1 3554.6 3177.1 3361.4 3125.3" fill="#c76659"/>
<path transform="matrix(.1,0,0,-.1,0,792)" stroke-width="70" stroke-linecap="butt" stroke-miterlimit="10" stroke-linejoin="miter" fill="none" stroke="#ffffff" d="M3219.9 3266.7 3168.2 3073.6 2975 3021.8 3309.6 2932.1 3554.6 3177.1 3361.4 3125.3Z"/>
<path transform="matrix(.1,0,0,-.1,0,792)" d="M3554.6 5184.7 3889.2 5095.1 3818.5 5359 4275.5 5481.4 4153.1 5024.4 3889.2 5095.1 3978.8 4760.5 4223.8 4515.5 4421 5251.4 4584.3 5088.1 4807.3 5147.9 4480.7 5474.5 4558.4 5764.3 4268.6 5686.6 3942 6013.2 3882.2 5790.2 4045.5 5626.9 3309.6 5429.7" fill="#c76659"/>
<path transform="matrix(.1,0,0,-.1,0,792)" stroke-width="70" stroke-linecap="butt" stroke-miterlimit="10" stroke-linejoin="miter" fill="none" stroke="#ffffff" d="M3554.6 5184.7 3889.2 5095.1 3818.5 5359 4275.5 5481.4 4153.1 5024.4 3889.2 5095.1 3978.8 4760.5 4223.8 4515.5 4421 5251.4 4584.3 5088.1 4807.3 5147.9 4480.7 5474.5 4558.4 5764.3 4268.6 5686.6 3942 6013.2 3882.2 5790.2 4045.5 5626.9 3309.6 5429.7Z"/>
<path transform="matrix(.1,0,0,-.1,0,792)" d="M3818.5 5359 3889.2 5095.1 4153.1 5024.4 4275.5 5481.4Z" fill="#999999"/>
<path transform="matrix(.1,0,0,-.1,0,792)" stroke-width="70" stroke-linecap="butt" stroke-miterlimit="10" stroke-linejoin="miter" fill="none" stroke="#ffffff" d="M3818.5 5359 3889.2 5095.1 4153.1 5024.4 4275.5 5481.4Z"/>
<path transform="matrix(.1,0,0,-.1,0,792)" d="M2395.4 5184.7 2640.4 5429.7 2376.5 5500.4 2499 5957.5 2833.6 5622.9 2640.4 5429.7 2975 5340 3309.6 5429.7 2770.9 5968.4 2993.9 6028.2 3053.7 6251.2 2607.6 6131.7 2395.4 6343.8 2317.8 6054.1 1871.7 5934.5 2035 5771.2 2258 5831 2060.8 5095.1" fill="#c76659"/>
<path transform="matrix(.1,0,0,-.1,0,792)" stroke-width="70" stroke-linecap="butt" stroke-miterlimit="10" stroke-linejoin="miter" fill="none" stroke="#ffffff" d="M2395.4 5184.7 2640.4 5429.7 2376.5 5500.4 2499 5957.5 2833.6 5622.9 2640.4 5429.7 2975 5340 3309.6 5429.7 2770.9 5968.4 2993.9 6028.2 3053.7 6251.2 2607.6 6131.7 2395.4 6343.8 2317.8 6054.1 1871.7 5934.5 2035 5771.2 2258 5831 2060.8 5095.1Z"/>
<path transform="matrix(.1,0,0,-.1,0,792)" d="M2376.5 5500.4 2640.4 5429.7 2833.6 5622.9 2499 5957.5Z" fill="#999999"/>
<path transform="matrix(.1,0,0,-.1,0,792)" stroke-width="70" stroke-linecap="butt" stroke-miterlimit="10" stroke-linejoin="miter" fill="none" stroke="#ffffff" d="M2376.5 5500.4 2640.4 5429.7 2833.6 5622.9 2499 5957.5Z"/>
<path transform="matrix(.1,0,0,-.1,0,792)" d="M2395.4 3177.1 2060.8 3266.7 2131.5 3002.8 1674.5 2880.4 1796.9 3337.5 2060.8 3266.7 1971.2 3601.3 1726.2 3846.3 1529 3110.4 1365.7 3273.7 1142.7 3213.9 1469.3 2887.3 1391.6 2597.5 1681.4 2675.2 2008 2348.6 2067.8 2571.6 1904.5 2734.9 2640.4 2932.1" fill="#c76659"/>
<path transform="matrix(.1,0,0,-.1,0,792)" stroke-width="70" stroke-linecap="butt" stroke-miterlimit="10" stroke-linejoin="miter" fill="none" stroke="#ffffff" d="M2395.4 3177.1 2060.8 3266.7 2131.5 3002.8 1674.5 2880.4 1796.9 3337.5 2060.8 3266.7 1971.2 3601.3 1726.2 3846.3 1529 3110.4 1365.7 3273.7 1142.7 3213.9 1469.3 2887.3 1391.6 2597.5 1681.4 2675.2 2008 2348.6 2067.8 2571.6 1904.5 2734.9 2640.4 2932.1Z"/>
<path transform="matrix(.1,0,0,-.1,0,792)" d="M2131.5 3002.8 2060.8 3266.7 1796.9 3337.5 1674.5 2880.4Z" fill="#999999"/>
<path transform="matrix(.1,0,0,-.1,0,792)" stroke-width="70" stroke-linecap="butt" stroke-miterlimit="10" stroke-linejoin="miter" fill="none" stroke="#ffffff" d="M2131.5 3002.8 2060.8 3266.7 1796.9 3337.5 1674.5 2880.4Z"/>
<path transform="matrix(.1,0,0,-.1,0,792)" d="M3554.6 3177.1 3309.6 2932.1 3573.5 2861.4 3451 2404.3 3116.4 2739 3309.6 2932.1 2975 3021.8 2640.4 2932.1 3179.1 2393.4 2956.1 2333.6 2896.3 2110.6 3342.4 2230.1 3554.6 2018 3632.2 2307.8 4078.3 2427.3 3915 2590.6 3692 2530.8 3889.2 3266.7" fill="#c76659"/>
<path transform="matrix(.1,0,0,-.1,0,792)" stroke-width="70" stroke-linecap="butt" stroke-miterlimit="10" stroke-linejoin="miter" fill="none" stroke="#ffffff" d="M3554.6 3177.1 3309.6 2932.1 3573.5 2861.4 3451 2404.3 3116.4 2739 3309.6 2932.1 2975 3021.8 2640.4 2932.1 3179.1 2393.4 2956.1 2333.6 2896.3 2110.6 3342.4 2230.1 3554.6 2018 3632.2 2307.8 4078.3 2427.3 3915 2590.6 3692 2530.8 3889.2 3266.7Z"/>
<path transform="matrix(.1,0,0,-.1,0,792)" d="M3573.5 2861.4 3309.6 2932.1 3116.4 2739 3451 2404.3Z" fill="#999999"/>
<path transform="matrix(.1,0,0,-.1,0,792)" stroke-width="70" stroke-linecap="butt" stroke-miterlimit="10" stroke-linejoin="miter" fill="none" stroke="#ffffff" d="M3573.5 2861.4 3309.6 2932.1 3116.4 2739 3451 2404.3Z"/>
<path transform="matrix(.1,0,0,-.1,0,792)" d="M3309.6 5429.7 4045.5 5626.9 3882.2 5790.2 3659.2 5730.4 3778.7 6176.5 3566.6 6388.7 3276.8 6311 3157.2 5864.9 2993.9 6028.2 2770.9 5968.4" fill="#999999"/>
<path transform="matrix(.1,0,0,-.1,0,792)" stroke-width="70" stroke-linecap="butt" stroke-miterlimit="10" stroke-linejoin="miter" fill="none" stroke="#ffffff" d="M3309.6 5429.7 4045.5 5626.9 3882.2 5790.2 3659.2 5730.4 3778.7 6176.5 3566.6 6388.7 3276.8 6311 3157.2 5864.9 2993.9 6028.2 2770.9 5968.4Z"/>
<path transform="matrix(.1,0,0,-.1,0,792)" d="M2060.8 5095.1 1324.9 4897.9 1384.7 5120.9 1221.4 5284.2 1101.8 4838.1 812.102 4760.5 1024.2 4548.3 904.699 4102.2 1127.7 4162 1187.5 4385 1726.2 3846.3 1815.9 4180.9 1726.2 4515.5 1533 4322.3 1198.4 4656.9 1655.5 4779.4 1726.2 4515.5 1971.2 4760.5" fill="#c76659"/>
<path transform="matrix(.1,0,0,-.1,0,792)" stroke-width="70" stroke-linecap="butt" stroke-miterlimit="10" stroke-linejoin="miter" fill="none" stroke="#ffffff" d="M2060.8 5095.1 1324.9 4897.9 1384.7 5120.9 1221.4 5284.2 1101.8 4838.1 812.102 4760.5 1024.2 4548.3 904.699 4102.2 1127.7 4162 1187.5 4385 1726.2 3846.3 1815.9 4180.9 1726.2 4515.5 1533 4322.3 1198.4 4656.9 1655.5 4779.4 1726.2 4515.5 1971.2 4760.5Z"/>
<path transform="matrix(.1,0,0,-.1,0,792)" d="M1533 4322.3 1726.2 4515.5 1655.5 4779.4 1198.4 4656.9Z" fill="#999999"/>
<path transform="matrix(.1,0,0,-.1,0,792)" stroke-width="70" stroke-linecap="butt" stroke-miterlimit="10" stroke-linejoin="miter" fill="none" stroke="#ffffff" d="M1533 4322.3 1726.2 4515.5 1655.5 4779.4 1198.4 4656.9Z"/>
<path transform="matrix(.1,0,0,-.1,0,792)" d="M2060.8 4425.9 1919.4 4567.3 1971.2 4760.5 1726.2 4515.5 1815.9 4180.9 1867.7 4374.1" fill="#c76659"/>
<path transform="matrix(.1,0,0,-.1,0,792)" stroke-width="70" stroke-linecap="butt" stroke-miterlimit="10" stroke-linejoin="miter" fill="none" stroke="#ffffff" d="M2060.8 4425.9 1919.4 4567.3 1971.2 4760.5 1726.2 4515.5 1815.9 4180.9 1867.7 4374.1Z"/>
<path transform="matrix(.1,0,0,-.1,0,792)" d="M2060.8 3936 1867.7 3987.7 1815.9 4180.9 1726.2 3846.3 1971.2 3601.3 1919.4 3794.5" fill="#c76659"/>
<path transform="matrix(.1,0,0,-.1,0,792)" stroke-width="70" stroke-linecap="butt" stroke-miterlimit="10" stroke-linejoin="miter" fill="none" stroke="#ffffff" d="M2060.8 3936 1867.7 3987.7 1815.9 4180.9 1726.2 3846.3 1971.2 3601.3 1919.4 3794.5Z"/>
<path transform="matrix(.1,0,0,-.1,0,792)" d="M3889.2 3266.7 4625.1 3463.9 4565.3 3240.9 4728.6 3077.6 4848.2 3523.7 5137.9 3601.3 4925.8 3813.5 5045.3 4259.6 4822.3 4199.9 4762.5 3976.8 4223.8 4515.5 4134.1 4180.9 4223.8 3846.3 4417 4039.5 4751.6 3704.9 4294.5 3582.4 4223.8 3846.3 3978.8 3601.3" fill="#c76659"/>
<path transform="matrix(.1,0,0,-.1,0,792)" stroke-width="70" stroke-linecap="butt" stroke-miterlimit="10" stroke-linejoin="miter" fill="none" stroke="#ffffff" d="M3889.2 3266.7 4625.1 3463.9 4565.3 3240.9 4728.6 3077.6 4848.2 3523.7 5137.9 3601.3 4925.8 3813.5 5045.3 4259.6 4822.3 4199.9 4762.5 3976.8 4223.8 4515.5 4134.1 4180.9 4223.8 3846.3 4417 4039.5 4751.6 3704.9 4294.5 3582.4 4223.8 3846.3 3978.8 3601.3Z"/>
<path transform="matrix(.1,0,0,-.1,0,792)" d="M4417 4039.5 4223.8 3846.3 4294.5 3582.4 4751.6 3704.9Z" fill="#999999"/>
<path transform="matrix(.1,0,0,-.1,0,792)" stroke-width="70" stroke-linecap="butt" stroke-miterlimit="10" stroke-linejoin="miter" fill="none" stroke="#ffffff" d="M4417 4039.5 4223.8 3846.3 4294.5 3582.4 4751.6 3704.9Z"/>
<path transform="matrix(.1,0,0,-.1,0,792)" d="M3889.2 3936 4030.6 3794.5 3978.8 3601.3 4223.8 3846.3 4134.1 4180.9 4082.3 3987.7" fill="#c76659"/>
<path transform="matrix(.1,0,0,-.1,0,792)" stroke-width="70" stroke-linecap="butt" stroke-miterlimit="10" stroke-linejoin="miter" fill="none" stroke="#ffffff" d="M3889.2 3936 4030.6 3794.5 3978.8 3601.3 4223.8 3846.3 4134.1 4180.9 4082.3 3987.7Z"/>
<path transform="matrix(.1,0,0,-.1,0,792)" d="M3889.2 4425.9 4082.3 4374.1 4134.1 4180.9 4223.8 4515.5 3978.8 4760.5 4030.6 4567.3" fill="#c76659"/>
<path transform="matrix(.1,0,0,-.1,0,792)" stroke-width="70" stroke-linecap="butt" stroke-miterlimit="10" stroke-linejoin="miter" fill="none" stroke="#ffffff" d="M3889.2 4425.9 4082.3 4374.1 4134.1 4180.9 4223.8 4515.5 3978.8 4760.5 4030.6 4567.3Z"/>
<path transform="matrix(.1,0,0,-.1,0,792)" d="M2060.8 5095.1 2258 5831 2035 5771.2 1975.2 5548.1 1648.6 5874.7 1358.8 5797.1 1281.2 5507.3 1607.8 5180.7 1384.7 5120.9 1324.9 4897.9" fill="#999999"/>
<path transform="matrix(.1,0,0,-.1,0,792)" stroke-width="70" stroke-linecap="butt" stroke-miterlimit="10" stroke-linejoin="miter" fill="none" stroke="#ffffff" d="M2060.8 5095.1 2258 5831 2035 5771.2 1975.2 5548.1 1648.6 5874.7 1358.8 5797.1 1281.2 5507.3 1607.8 5180.7 1384.7 5120.9 1324.9 4897.9Z"/>
<path transform="matrix(.1,0,0,-.1,0,792)" d="M3889.2 3266.7 3692 2530.8 3915 2590.6 3974.8 2813.7 4301.4 2487.1 4591.2 2564.7 4668.8 2854.5 4342.2 3181.1 4565.3 3240.9 4625.1 3463.9" fill="#999999"/>
<path transform="matrix(.1,0,0,-.1,0,792)" stroke-width="70" stroke-linecap="butt" stroke-miterlimit="10" stroke-linejoin="miter" fill="none" stroke="#ffffff" d="M3889.2 3266.7 3692 2530.8 3915 2590.6 3974.8 2813.7 4301.4 2487.1 4591.2 2564.7 4668.8 2854.5 4342.2 3181.1 4565.3 3240.9 4625.1 3463.9Z"/>
<path transform="matrix(.1,0,0,-.1,0,792)" d="M2640.4 2932.1 1904.5 2734.9 2067.8 2571.6 2290.8 2631.4 2171.3 2185.3 2383.4 1973.1 2673.2 2050.8 2792.8 2496.9 2956.1 2333.6 3179.1 2393.4" fill="#999999"/>
<path transform="matrix(.1,0,0,-.1,0,792)" stroke-width="70" stroke-linecap="butt" stroke-miterlimit="10" stroke-linejoin="miter" fill="none" stroke="#ffffff" d="M2640.4 2932.1 1904.5 2734.9 2067.8 2571.6 2290.8 2631.4 2171.3 2185.3 2383.4 1973.1 2673.2 2050.8 2792.8 2496.9 2956.1 2333.6 3179.1 2393.4Z"/>
<path transform="matrix(.1,0,0,-.1,0,792)" d="M1975.2 5548.1 2035 5771.2 1871.7 5934.5 2317.8 6054.1 2395.4 6343.8 2183.3 6556 1737.2 6436.4 1796.9 6659.5 1633.6 6822.8 1514.1 6376.7 1436.5 6086.9 1648.6 5874.7" fill="#999999"/>
<path transform="matrix(.1,0,0,-.1,0,792)" stroke-width="70" stroke-linecap="butt" stroke-miterlimit="10" stroke-linejoin="miter" fill="none" stroke="#ffffff" d="M1975.2 5548.1 2035 5771.2 1871.7 5934.5 2317.8 6054.1 2395.4 6343.8 2183.3 6556 1737.2 6436.4 1796.9 6659.5 1633.6 6822.8 1514.1 6376.7 1436.5 6086.9 1648.6 5874.7Z"/>
<path transform="matrix(.1,0,0,-.1,0,792)" d="M3974.8 2813.7 3915 2590.6 4078.3 2427.3 3632.2 2307.8 3554.6 2018 3766.7 1805.8 4212.8 1925.4 4153.1 1702.3 4316.4 1539 4435.9 1985.2 4513.5 2274.9 4301.4 2487.1" fill="#999999"/>
<path transform="matrix(.1,0,0,-.1,0,792)" stroke-width="70" stroke-linecap="butt" stroke-miterlimit="10" stroke-linejoin="miter" fill="none" stroke="#ffffff" d="M3974.8 2813.7 3915 2590.6 4078.3 2427.3 3632.2 2307.8 3554.6 2018 3766.7 1805.8 4212.8 1925.4 4153.1 1702.3 4316.4 1539 4435.9 1985.2 4513.5 2274.9 4301.4 2487.1Z"/>
<path transform="matrix(.1,0,0,-.1,0,792)" d="M3659.2 5730.4 3882.2 5790.2 3942 6013.2 4268.6 5686.6 4558.4 5764.3 4636 6054.1 4309.4 6380.7 4532.5 6440.4 4592.3 6663.5 4146.1 6544 3856.3 6466.3 3778.7 6176.5" fill="#999999"/>
<path transform="matrix(.1,0,0,-.1,0,792)" stroke-width="70" stroke-linecap="butt" stroke-miterlimit="10" stroke-linejoin="miter" fill="none" stroke="#ffffff" d="M3659.2 5730.4 3882.2 5790.2 3942 6013.2 4268.6 5686.6 4558.4 5764.3 4636 6054.1 4309.4 6380.7 4532.5 6440.4 4592.3 6663.5 4146.1 6544 3856.3 6466.3 3778.7 6176.5Z"/>
<path transform="matrix(.1,0,0,-.1,0,792)" d="M2290.8 2631.4 2067.8 2571.6 2008 2348.6 1681.4 2675.2 1391.6 2597.5 1314 2307.8 1640.6 1981.2 1417.5 1921.4 1357.7 1698.3 1803.9 1817.9 2093.7 1895.5 2171.3 2185.3" fill="#999999"/>
<path transform="matrix(.1,0,0,-.1,0,792)" stroke-width="70" stroke-linecap="butt" stroke-miterlimit="10" stroke-linejoin="miter" fill="none" stroke="#ffffff" d="M2290.8 2631.4 2067.8 2571.6 2008 2348.6 1681.4 2675.2 1391.6 2597.5 1314 2307.8 1640.6 1981.2 1417.5 1921.4 1357.7 1698.3 1803.9 1817.9 2093.7 1895.5 2171.3 2185.3Z"/>
<path transform="matrix(.1,0,0,-.1,0,792)" d="M3157.2 5864.9 3276.8 6311 3354.4 6600.8 3142.3 6812.9 2815.7 7139.5 2755.9 6916.5 2919.2 6753.2 2473.1 6633.6 2395.4 6343.8 2607.6 6131.7 3053.7 6251.2 2993.9 6028.2" fill="#999999"/>
<path transform="matrix(.1,0,0,-.1,0,792)" stroke-width="70" stroke-linecap="butt" stroke-miterlimit="10" stroke-linejoin="miter" fill="none" stroke="#ffffff" d="M3157.2 5864.9 3276.8 6311 3354.4 6600.8 3142.3 6812.9 2815.7 7139.5 2755.9 6916.5 2919.2 6753.2 2473.1 6633.6 2395.4 6343.8 2607.6 6131.7 3053.7 6251.2 2993.9 6028.2Z"/>
<path transform="matrix(.1,0,0,-.1,0,792)" d="M2792.8 2496.9 2673.2 2050.8 2595.6 1761 2807.7 1548.9 3134.3 1222.3 3194.1 1445.4 3030.8 1608.7 3476.9 1728.2 3554.6 2018 3342.4 2230.1 2896.3 2110.6 2956.1 2333.6" fill="#999999"/>
<path transform="matrix(.1,0,0,-.1,0,792)" stroke-width="70" stroke-linecap="butt" stroke-miterlimit="10" stroke-linejoin="miter" fill="none" stroke="#ffffff" d="M2792.8 2496.9 2673.2 2050.8 2595.6 1761 2807.7 1548.9 3134.3 1222.3 3194.1 1445.4 3030.8 1608.7 3476.9 1728.2 3554.6 2018 3342.4 2230.1 2896.3 2110.6 2956.1 2333.6Z"/>
<path transform="matrix(.1,0,0,-.1,0,792)" d="M4223.8 4515.5 4762.5 3976.8 4822.3 4199.9 4659 4363.1 5105.1 4482.7 5182.8 4772.5 4970.6 4984.6 4524.5 4865.1 4584.3 5088.1 4421 5251.4" fill="#999999"/>
<path transform="matrix(.1,0,0,-.1,0,792)" stroke-width="70" stroke-linecap="butt" stroke-miterlimit="10" stroke-linejoin="miter" fill="none" stroke="#ffffff" d="M4223.8 4515.5 4762.5 3976.8 4822.3 4199.9 4659 4363.1 5105.1 4482.7 5182.8 4772.5 4970.6 4984.6 4524.5 4865.1 4584.3 5088.1 4421 5251.4Z"/>
<path transform="matrix(.1,0,0,-.1,0,792)" d="M1726.2 3846.3 1187.5 4385 1127.7 4162 1291 3998.7 844.898 3879.1 767.199 3589.3 979.398 3377.2 1425.5 3496.7 1365.7 3273.7 1529 3110.4" fill="#999999"/>
<path transform="matrix(.1,0,0,-.1,0,792)" stroke-width="70" stroke-linecap="butt" stroke-miterlimit="10" stroke-linejoin="miter" fill="none" stroke="#ffffff" d="M1726.2 3846.3 1187.5 4385 1127.7 4162 1291 3998.7 844.898 3879.1 767.199 3589.3 979.398 3377.2 1425.5 3496.7 1365.7 3273.7 1529 3110.4Z"/>
<path transform="matrix(.1,0,0,-.1,0,792)" d="M4301.4 2487.1 4513.5 2274.9 4435.9 1985.2 4725.7 2062.8 4937.8 1850.7 5015.5 2140.4 5305.2 2218.1 5093.1 2430.2 5170.7 2720 4881 2642.4 4668.8 2854.5 4591.2 2564.7" fill="#cc3333"/>
<path transform="matrix(.1,0,0,-.1,0,792)" stroke-width="70" stroke-linecap="butt" stroke-miterlimit="10" stroke-linejoin="miter" fill="none" stroke="#ffffff" d="M4301.4 2487.1 4513.5 2274.9 4435.9 1985.2 4725.7 2062.8 4937.8 1850.7 5015.5 2140.4 5305.2 2218.1 5093.1 2430.2 5170.7 2720 4881 2642.4 4668.8 2854.5 4591.2 2564.7Z"/>
<path transform="matrix(.1,0,0,-.1,0,792)" d="M1648.6 5874.7 1436.5 6086.9 1514.1 6376.7 1224.3 6299 1012.2 6511.1 934.5 6221.4 644.801 6143.7 856.898 5931.6 779.301 5641.8 1069 5719.5 1281.2 5507.3 1358.8 5797.1" fill="#cc3333"/>
<path transform="matrix(.1,0,0,-.1,0,792)" stroke-width="70" stroke-linecap="butt" stroke-miterlimit="10" stroke-linejoin="miter" fill="none" stroke="#ffffff" d="M1648.6 5874.7 1436.5 6086.9 1514.1 6376.7 1224.3 6299 1012.2 6511.1 934.5 6221.4 644.801 6143.7 856.898 5931.6 779.301 5641.8 1069 5719.5 1281.2 5507.3 1358.8 5797.1Z"/>
<path transform="matrix(.1,0,0,-.1,0,792)" d="M1607.8 5180.7 1281.2 5507.3 1069 5719.5 779.301 5641.8 333.102 5522.3 496.398 5359 719.5 5418.7 599.898 4972.6 812.102 4760.5 1101.8 4838.1 1221.4 5284.2 1384.7 5120.9" fill="#999999"/>
<path transform="matrix(.1,0,0,-.1,0,792)" stroke-width="70" stroke-linecap="butt" stroke-miterlimit="10" stroke-linejoin="miter" fill="none" stroke="#ffffff" d="M1607.8 5180.7 1281.2 5507.3 1069 5719.5 779.301 5641.8 333.102 5522.3 496.398 5359 719.5 5418.7 599.898 4972.6 812.102 4760.5 1101.8 4838.1 1221.4 5284.2 1384.7 5120.9Z"/>
<path transform="matrix(.1,0,0,-.1,0,792)" d="M4342.2 3181.1 4668.8 2854.5 4881 2642.4 5170.7 2720 5616.9 2839.5 5453.6 3002.8 5230.5 2943.1 5350.1 3389.2 5137.9 3601.3 4848.2 3523.7 4728.6 3077.6 4565.3 3240.9" fill="#999999"/>
<path transform="matrix(.1,0,0,-.1,0,792)" stroke-width="70" stroke-linecap="butt" stroke-miterlimit="10" stroke-linejoin="miter" fill="none" stroke="#ffffff" d="M4342.2 3181.1 4668.8 2854.5 4881 2642.4 5170.7 2720 5616.9 2839.5 5453.6 3002.8 5230.5 2943.1 5350.1 3389.2 5137.9 3601.3 4848.2 3523.7 4728.6 3077.6 4565.3 3240.9Z"/>
<path transform="matrix(.1,0,0,-.1,0,792)" d="M3778.7 6176.5 3856.3 6466.3 4146.1 6544 3934 6756.1 4011.6 7045.9 3721.9 6968.2 3509.7 7180.4 3432.1 6890.6 3142.3 6812.9 3354.4 6600.8 3276.8 6311 3566.6 6388.7" fill="#cc3333"/>
<path transform="matrix(.1,0,0,-.1,0,792)" stroke-width="70" stroke-linecap="butt" stroke-miterlimit="10" stroke-linejoin="miter" fill="none" stroke="#ffffff" d="M3778.7 6176.5 3856.3 6466.3 4146.1 6544 3934 6756.1 4011.6 7045.9 3721.9 6968.2 3509.7 7180.4 3432.1 6890.6 3142.3 6812.9 3354.4 6600.8 3276.8 6311 3566.6 6388.7Z"/>
<path transform="matrix(.1,0,0,-.1,0,792)" d="M2171.3 2185.3 2093.7 1895.5 1803.9 1817.9 2016 1605.7 1938.4 1315.9 2228.1 1393.6 2440.3 1181.5 2517.9 1471.2 2807.7 1548.9 2595.6 1761 2673.2 2050.8 2383.4 1973.1" fill="#cc3333"/>
<path transform="matrix(.1,0,0,-.1,0,792)" stroke-width="70" stroke-linecap="butt" stroke-miterlimit="10" stroke-linejoin="miter" fill="none" stroke="#ffffff" d="M2171.3 2185.3 2093.7 1895.5 1803.9 1817.9 2016 1605.7 1938.4 1315.9 2228.1 1393.6 2440.3 1181.5 2517.9 1471.2 2807.7 1548.9 2595.6 1761 2673.2 2050.8 2383.4 1973.1Z"/>
<path transform="matrix(.1,0,0,-.1,0,792)" d="M4480.7 5474.5 4807.3 5147.9 4584.3 5088.1 4524.5 4865.1 4970.6 4984.6 5260.4 5062.2 5338.1 5352 5457.6 5798.2 5234.5 5738.4 5174.8 5515.3 4848.2 5841.9 4558.4 5764.3" fill="#999999"/>
<path transform="matrix(.1,0,0,-.1,0,792)" stroke-width="70" stroke-linecap="butt" stroke-miterlimit="10" stroke-linejoin="miter" fill="none" stroke="#ffffff" d="M4480.7 5474.5 4807.3 5147.9 4584.3 5088.1 4524.5 4865.1 4970.6 4984.6 5260.4 5062.2 5338.1 5352 5457.6 5798.2 5234.5 5738.4 5174.8 5515.3 4848.2 5841.9 4558.4 5764.3Z"/>
<path transform="matrix(.1,0,0,-.1,0,792)" d="M1469.3 2887.3 1142.7 3213.9 1365.7 3273.7 1425.5 3496.7 979.398 3377.2 689.602 3299.6 611.898 3009.8 492.398 2563.6 715.5 2623.4 775.199 2846.5 1101.8 2519.9 1391.6 2597.5" fill="#999999"/>
<path transform="matrix(.1,0,0,-.1,0,792)" stroke-width="70" stroke-linecap="butt" stroke-miterlimit="10" stroke-linejoin="miter" fill="none" stroke="#ffffff" d="M1469.3 2887.3 1142.7 3213.9 1365.7 3273.7 1425.5 3496.7 979.398 3377.2 689.602 3299.6 611.898 3009.8 492.398 2563.6 715.5 2623.4 775.199 2846.5 1101.8 2519.9 1391.6 2597.5Z"/>
<path transform="matrix(.1,0,0,-.1,0,792)" d="M2395.4 6343.8 2473.1 6633.6 2919.2 6753.2 2755.9 6916.5 2532.9 6856.7 2730.1 7592.6 2395.4 7502.9 2150.5 7258 2414.4 7187.3 2291.9 6730.2 1957.3 7064.8 2150.5 7258 1815.9 7347.7 1481.3 7258 2020 6719.3 1796.9 6659.5 1737.2 6436.4 2183.3 6556" fill="#c76659"/>
<path transform="matrix(.1,0,0,-.1,0,792)" stroke-width="70" stroke-linecap="butt" stroke-miterlimit="10" stroke-linejoin="miter" fill="none" stroke="#ffffff" d="M2395.4 6343.8 2473.1 6633.6 2919.2 6753.2 2755.9 6916.5 2532.9 6856.7 2730.1 7592.6 2395.4 7502.9 2150.5 7258 2414.4 7187.3 2291.9 6730.2 1957.3 7064.8 2150.5 7258 1815.9 7347.7 1481.3 7258 2020 6719.3 1796.9 6659.5 1737.2 6436.4 2183.3 6556Z"/>
<path transform="matrix(.1,0,0,-.1,0,792)" d="M2414.4 7187.3 2150.5 7258 1957.3 7064.8 2291.9 6730.2Z" fill="#999999"/>
<path transform="matrix(.1,0,0,-.1,0,792)" stroke-width="70" stroke-linecap="butt" stroke-miterlimit="10" stroke-linejoin="miter" fill="none" stroke="#ffffff" d="M2414.4 7187.3 2150.5 7258 1957.3 7064.8 2291.9 6730.2Z"/>
<path transform="matrix(.1,0,0,-.1,0,792)" d="M1514.1 6376.7 1633.6 6822.8 1796.9 6659.5 2020 6719.3 1481.3 7258 745.398 7060.8 908.699 6897.5 1131.7 6957.3 1012.2 6511.1 1224.3 6299" fill="#999999"/>
<path transform="matrix(.1,0,0,-.1,0,792)" stroke-width="70" stroke-linecap="butt" stroke-miterlimit="10" stroke-linejoin="miter" fill="none" stroke="#ffffff" d="M1514.1 6376.7 1633.6 6822.8 1796.9 6659.5 2020 6719.3 1481.3 7258 745.398 7060.8 908.699 6897.5 1131.7 6957.3 1012.2 6511.1 1224.3 6299Z"/>
<path transform="matrix(.1,0,0,-.1,0,792)" d="M4309.4 6380.7 4636 6054.1 4558.4 5764.3 4848.2 5841.9 5174.8 5515.3 5234.5 5738.4 5071.2 5901.7 5807.1 6098.9 5562.2 6343.8 5227.6 6433.5 5298.3 6169.6 4841.2 6047.1 4963.7 6504.2 5227.6 6433.5 5137.9 6768.1 4893 7013 4695.8 6277.1 4532.5 6440.4" fill="#c76659"/>
<path transform="matrix(.1,0,0,-.1,0,792)" stroke-width="70" stroke-linecap="butt" stroke-miterlimit="10" stroke-linejoin="miter" fill="none" stroke="#ffffff" d="M4309.4 6380.7 4636 6054.1 4558.4 5764.3 4848.2 5841.9 5174.8 5515.3 5234.5 5738.4 5071.2 5901.7 5807.1 6098.9 5562.2 6343.8 5227.6 6433.5 5298.3 6169.6 4841.2 6047.1 4963.7 6504.2 5227.6 6433.5 5137.9 6768.1 4893 7013 4695.8 6277.1 4532.5 6440.4Z"/>
<path transform="matrix(.1,0,0,-.1,0,792)" d="M5298.3 6169.6 5227.6 6433.5 4963.7 6504.2 4841.2 6047.1Z" fill="#999999"/>
<path transform="matrix(.1,0,0,-.1,0,792)" stroke-width="70" stroke-linecap="butt" stroke-miterlimit="10" stroke-linejoin="miter" fill="none" stroke="#ffffff" d="M5298.3 6169.6 5227.6 6433.5 4963.7 6504.2 4841.2 6047.1Z"/>
<path transform="matrix(.1,0,0,-.1,0,792)" d="M1391.6 2597.5 1101.8 2519.9 775.199 2846.5 715.5 2623.4 878.801 2460.1 142.898 2262.9 387.801 2018 722.398 1928.3 651.699 2192.2 1108.8 2314.7 986.301 1857.6 722.398 1928.3 812.102 1593.7 1057 1348.8 1254.2 2084.7 1417.5 1921.4 1640.6 1981.2 1314 2307.8" fill="#c76659"/>
<path transform="matrix(.1,0,0,-.1,0,792)" stroke-width="70" stroke-linecap="butt" stroke-miterlimit="10" stroke-linejoin="miter" fill="none" stroke="#ffffff" d="M1391.6 2597.5 1101.8 2519.9 775.199 2846.5 715.5 2623.4 878.801 2460.1 142.898 2262.9 387.801 2018 722.398 1928.3 651.699 2192.2 1108.8 2314.7 986.301 1857.6 722.398 1928.3 812.102 1593.7 1057 1348.8 1254.2 2084.7 1417.5 1921.4 1640.6 1981.2 1314 2307.8Z"/>
<path transform="matrix(.1,0,0,-.1,0,792)" d="M651.699 2192.2 722.398 1928.3 986.301 1857.6 1108.8 2314.7Z" fill="#999999"/>
<path transform="matrix(.1,0,0,-.1,0,792)" stroke-width="70" stroke-linecap="butt" stroke-miterlimit="10" stroke-linejoin="miter" fill="none" stroke="#ffffff" d="M651.699 2192.2 722.398 1928.3 986.301 1857.6 1108.8 2314.7Z"/>
<path transform="matrix(.1,0,0,-.1,0,792)" d="M3554.6 2018 3476.9 1728.2 3030.8 1608.7 3194.1 1445.4 3417.1 1505.1 3219.9 769.199 3554.6 858.898 3799.5 1103.8 3535.6 1174.5 3658.1 1631.6 3992.7 1297 3799.5 1103.8 4134.1 1014.2 4468.7 1103.8 3930 1642.5 4153.1 1702.3 4212.8 1925.4 3766.7 1805.8" fill="#c76659"/>
<path transform="matrix(.1,0,0,-.1,0,792)" stroke-width="70" stroke-linecap="butt" stroke-miterlimit="10" stroke-linejoin="miter" fill="none" stroke="#ffffff" d="M3554.6 2018 3476.9 1728.2 3030.8 1608.7 3194.1 1445.4 3417.1 1505.1 3219.9 769.199 3554.6 858.898 3799.5 1103.8 3535.6 1174.5 3658.1 1631.6 3992.7 1297 3799.5 1103.8 4134.1 1014.2 4468.7 1103.8 3930 1642.5 4153.1 1702.3 4212.8 1925.4 3766.7 1805.8Z"/>
<path transform="matrix(.1,0,0,-.1,0,792)" d="M3535.6 1174.5 3799.5 1103.8 3992.7 1297 3658.1 1631.6Z" fill="#999999"/>
<path transform="matrix(.1,0,0,-.1,0,792)" stroke-width="70" stroke-linecap="butt" stroke-miterlimit="10" stroke-linejoin="miter" fill="none" stroke="#ffffff" d="M3535.6 1174.5 3799.5 1103.8 3992.7 1297 3658.1 1631.6Z"/>
<path transform="matrix(.1,0,0,-.1,0,792)" d="M4435.9 1985.2 4316.4 1539 4153.1 1702.3 3930 1642.5 4468.7 1103.8 5204.6 1301 5041.3 1464.3 4818.3 1404.5 4937.8 1850.7 4725.7 2062.8" fill="#999999"/>
<path transform="matrix(.1,0,0,-.1,0,792)" stroke-width="70" stroke-linecap="butt" stroke-miterlimit="10" stroke-linejoin="miter" fill="none" stroke="#ffffff" d="M4435.9 1985.2 4316.4 1539 4153.1 1702.3 3930 1642.5 4468.7 1103.8 5204.6 1301 5041.3 1464.3 4818.3 1404.5 4937.8 1850.7 4725.7 2062.8Z"/>
<path transform="matrix(.1,0,0,-.1,0,792)" d="M4532.5 6440.4 4695.8 6277.1 4893 7013 4354.3 7551.8 4294.5 7328.7 4457.8 7165.4 4011.6 7045.9 3934 6756.1 4146.1 6544 4592.3 6663.5" fill="#999999"/>
<path transform="matrix(.1,0,0,-.1,0,792)" stroke-width="70" stroke-linecap="butt" stroke-miterlimit="10" stroke-linejoin="miter" fill="none" stroke="#ffffff" d="M4532.5 6440.4 4695.8 6277.1 4893 7013 4354.3 7551.8 4294.5 7328.7 4457.8 7165.4 4011.6 7045.9 3934 6756.1 4146.1 6544 4592.3 6663.5Z"/>
<path transform="matrix(.1,0,0,-.1,0,792)" d="M1417.5 1921.4 1254.2 2084.7 1057 1348.8 1595.7 810 1655.5 1033.1 1492.2 1196.4 1938.4 1315.9 2016 1605.7 1803.9 1817.9 1357.7 1698.3" fill="#999999"/>
<path transform="matrix(.1,0,0,-.1,0,792)" stroke-width="70" stroke-linecap="butt" stroke-miterlimit="10" stroke-linejoin="miter" fill="none" stroke="#ffffff" d="M1417.5 1921.4 1254.2 2084.7 1057 1348.8 1595.7 810 1655.5 1033.1 1492.2 1196.4 1938.4 1315.9 2016 1605.7 1803.9 1817.9 1357.7 1698.3Z"/>
<path transform="matrix(.1,0,0,-.1,0,792)" d="M4659 4363.1 4822.3 4199.9 5045.3 4259.6 4925.8 3813.5 5137.9 3601.3 5427.7 3679 5547.3 4125.1 5710.6 3961.8 5933.6 4021.6 5607 4348.2 5394.9 4560.3 5105.1 4482.7" fill="#999999"/>
<path transform="matrix(.1,0,0,-.1,0,792)" stroke-width="70" stroke-linecap="butt" stroke-miterlimit="10" stroke-linejoin="miter" fill="none" stroke="#ffffff" d="M4659 4363.1 4822.3 4199.9 5045.3 4259.6 4925.8 3813.5 5137.9 3601.3 5427.7 3679 5547.3 4125.1 5710.6 3961.8 5933.6 4021.6 5607 4348.2 5394.9 4560.3 5105.1 4482.7Z"/>
<path transform="matrix(.1,0,0,-.1,0,792)" d="M1291 3998.7 1127.7 4162 904.699 4102.2 1024.2 4548.3 812.102 4760.5 522.301 4682.8 402.699 4236.7 239.398 4400 16.3984 4340.2 343 4013.6 555.102 3801.5 844.898 3879.1" fill="#999999"/>
<path transform="matrix(.1,0,0,-.1,0,792)" stroke-width="70" stroke-linecap="butt" stroke-miterlimit="10" stroke-linejoin="miter" fill="none" stroke="#ffffff" d="M1291 3998.7 1127.7 4162 904.699 4102.2 1024.2 4548.3 812.102 4760.5 522.301 4682.8 402.699 4236.7 239.398 4400 16.3984 4340.2 343 4013.6 555.102 3801.5 844.898 3879.1Z"/>
<path transform="matrix(.1,0,0,-.1,0,792)" d="M3142.3 6812.9 3432.1 6890.6 3509.7 7180.4 3183.1 7506.9 3406.2 7566.7 3466 7789.8 2730.1 7592.6 2532.9 6856.7 2755.9 6916.5 2815.7 7139.5" fill="#999999"/>
<path transform="matrix(.1,0,0,-.1,0,792)" stroke-width="70" stroke-linecap="butt" stroke-miterlimit="10" stroke-linejoin="miter" fill="none" stroke="#ffffff" d="M3142.3 6812.9 3432.1 6890.6 3509.7 7180.4 3183.1 7506.9 3406.2 7566.7 3466 7789.8 2730.1 7592.6 2532.9 6856.7 2755.9 6916.5 2815.7 7139.5Z"/>
<path transform="matrix(.1,0,0,-.1,0,792)" d="M2807.7 1548.9 2517.9 1471.2 2440.3 1181.5 2766.9 854.898 2543.8 795.102 2484 572 3219.9 769.199 3417.1 1505.1 3194.1 1445.4 3134.3 1222.3" fill="#999999"/>
<path transform="matrix(.1,0,0,-.1,0,792)" stroke-width="70" stroke-linecap="butt" stroke-miterlimit="10" stroke-linejoin="miter" fill="none" stroke="#ffffff" d="M2807.7 1548.9 2517.9 1471.2 2440.3 1181.5 2766.9 854.898 2543.8 795.102 2484 572 3219.9 769.199 3417.1 1505.1 3194.1 1445.4 3134.3 1222.3Z"/>
<path transform="matrix(.1,0,0,-.1,0,792)" d="M4937.8 1850.7 4818.3 1404.5 5041.3 1464.3 5101.1 1687.4 5427.7 1360.8 5717.5 1438.4 5795.1 1728.2 5468.5 2054.8 5691.6 2114.6 5751.4 2337.6 5305.2 2218.1 5015.5 2140.4" fill="#999999"/>
<path transform="matrix(.1,0,0,-.1,0,792)" stroke-width="70" stroke-linecap="butt" stroke-miterlimit="10" stroke-linejoin="miter" fill="none" stroke="#ffffff" d="M4937.8 1850.7 4818.3 1404.5 5041.3 1464.3 5101.1 1687.4 5427.7 1360.8 5717.5 1438.4 5795.1 1728.2 5468.5 2054.8 5691.6 2114.6 5751.4 2337.6 5305.2 2218.1 5015.5 2140.4Z"/>
<path transform="matrix(.1,0,0,-.1,0,792)" d="M1012.2 6511.1 1131.7 6957.3 908.699 6897.5 848.898 6674.4 522.301 7001 232.5 6923.4 154.898 6633.6 481.5 6307 258.398 6247.2 198.602 6024.2 644.801 6143.7 934.5 6221.4" fill="#999999"/>
<path transform="matrix(.1,0,0,-.1,0,792)" stroke-width="70" stroke-linecap="butt" stroke-miterlimit="10" stroke-linejoin="miter" fill="none" stroke="#ffffff" d="M1012.2 6511.1 1131.7 6957.3 908.699 6897.5 848.898 6674.4 522.301 7001 232.5 6923.4 154.898 6633.6 481.5 6307 258.398 6247.2 198.602 6024.2 644.801 6143.7 934.5 6221.4Z"/>
<path transform="matrix(.1,0,0,-.1,0,792)" d="M979.398 3377.2 767.199 3589.3 844.898 3879.1 555.102 3801.5 343 4013.6 265.301 3723.8-24.3984 3646.2 187.699 3434 110 3144.3 399.801 3221.9 611.898 3009.8 689.602 3299.6" fill="#cc3333"/>
<path transform="matrix(.1,0,0,-.1,0,792)" stroke-width="70" stroke-linecap="butt" stroke-miterlimit="10" stroke-linejoin="miter" fill="none" stroke="#ffffff" d="M979.398 3377.2 767.199 3589.3 844.898 3879.1 555.102 3801.5 343 4013.6 265.301 3723.8-24.3984 3646.2 187.699 3434 110 3144.3 399.801 3221.9 611.898 3009.8 689.602 3299.6Z"/>
<path transform="matrix(.1,0,0,-.1,0,792)" d="M4970.6 4984.6 5182.8 4772.5 5105.1 4482.7 5394.9 4560.3 5607 4348.2 5684.7 4638 5974.4 4715.6 5762.3 4927.8 5840 5217.5 5550.2 5139.9 5338.1 5352 5260.4 5062.2" fill="#cc3333"/>
<path transform="matrix(.1,0,0,-.1,0,792)" stroke-width="70" stroke-linecap="butt" stroke-miterlimit="10" stroke-linejoin="miter" fill="none" stroke="#ffffff" d="M4970.6 4984.6 5182.8 4772.5 5105.1 4482.7 5394.9 4560.3 5607 4348.2 5684.7 4638 5974.4 4715.6 5762.3 4927.8 5840 5217.5 5550.2 5139.9 5338.1 5352 5260.4 5062.2Z"/>
<path transform="matrix(.1,0,0,-.1,0,792)" d="M3721.9 6968.2 4011.6 7045.9 4457.8 7165.4 4294.5 7328.7 4071.4 7268.9 4191 7715.1 3978.8 7927.2 3689 7849.6 3569.5 7403.4 3406.2 7566.7 3183.1 7506.9 3509.7 7180.4" fill="#999999"/>
<path transform="matrix(.1,0,0,-.1,0,792)" stroke-width="70" stroke-linecap="butt" stroke-miterlimit="10" stroke-linejoin="miter" fill="none" stroke="#ffffff" d="M3721.9 6968.2 4011.6 7045.9 4457.8 7165.4 4294.5 7328.7 4071.4 7268.9 4191 7715.1 3978.8 7927.2 3689 7849.6 3569.5 7403.4 3406.2 7566.7 3183.1 7506.9 3509.7 7180.4Z"/>
<path transform="matrix(.1,0,0,-.1,0,792)" d="M4893 7013 4982.6 7347.7 4893 7682.3 4699.8 7489.1 4365.2 7823.7 4822.3 7946.2 4893 7682.3 5137.9 7927.2 5227.6 8261.8 4491.7 8064.6 4551.4 8287.7 4388.1 8451 4268.6 8004.9 3978.8 7927.2 4191 7715.1 4071.4 7268.9 4294.5 7328.7 4354.3 7551.8" fill="#c76659"/>
<path transform="matrix(.1,0,0,-.1,0,792)" stroke-width="70" stroke-linecap="butt" stroke-miterlimit="10" stroke-linejoin="miter" fill="none" stroke="#ffffff" d="M4893 7013 4982.6 7347.7 4893 7682.3 4699.8 7489.1 4365.2 7823.7 4822.3 7946.2 4893 7682.3 5137.9 7927.2 5227.6 8261.8 4491.7 8064.6 4551.4 8287.7 4388.1 8451 4268.6 8004.9 3978.8 7927.2 4191 7715.1 4071.4 7268.9 4294.5 7328.7 4354.3 7551.8Z"/>
<path transform="matrix(.1,0,0,-.1,0,792)" d="M4699.8 7489.1 4893 7682.3 4822.3 7946.2 4365.2 7823.7Z" fill="#999999"/>
<path transform="matrix(.1,0,0,-.1,0,792)" stroke-width="70" stroke-linecap="butt" stroke-miterlimit="10" stroke-linejoin="miter" fill="none" stroke="#ffffff" d="M4699.8 7489.1 4893 7682.3 4822.3 7946.2 4365.2 7823.7Z"/>
<path transform="matrix(.1,0,0,-.1,0,792)" d="M4893 7013 5137.9 6768.1 5086.2 6961.3 5227.6 7102.7 5034.4 7154.5 4982.6 7347.7" fill="#c76659"/>
<path transform="matrix(.1,0,0,-.1,0,792)" stroke-width="70" stroke-linecap="butt" stroke-miterlimit="10" stroke-linejoin="miter" fill="none" stroke="#ffffff" d="M4893 7013 5137.9 6768.1 5086.2 6961.3 5227.6 7102.7 5034.4 7154.5 4982.6 7347.7Z"/>
<path transform="matrix(.1,0,0,-.1,0,792)" d="M2228.1 1393.6 1938.4 1315.9 1492.2 1196.4 1655.5 1033.1 1878.6 1092.9 1759 646.699 1971.2 434.602 2261 512.199 2380.5 958.398 2543.8 795.102 2766.9 854.898 2440.3 1181.5" fill="#999999"/>
<path transform="matrix(.1,0,0,-.1,0,792)" stroke-width="70" stroke-linecap="butt" stroke-miterlimit="10" stroke-linejoin="miter" fill="none" stroke="#ffffff" d="M2228.1 1393.6 1938.4 1315.9 1492.2 1196.4 1655.5 1033.1 1878.6 1092.9 1759 646.699 1971.2 434.602 2261 512.199 2380.5 958.398 2543.8 795.102 2766.9 854.898 2440.3 1181.5Z"/>
<path transform="matrix(.1,0,0,-.1,0,792)" d="M5041.3 1464.3 5204.6 1301 4468.7 1103.8 4713.7 858.898 5048.3 769.199 4977.6 1033.1 5434.6 1155.6 5312.2 698.5 5048.3 769.199 5137.9 434.602 5382.9 189.602 5580.1 925.602 5743.4 762.301 5966.4 822 5639.8 1148.6 5717.5 1438.4 5427.7 1360.8 5101.1 1687.4" fill="#c76659"/>
<path transform="matrix(.1,0,0,-.1,0,792)" stroke-width="70" stroke-linecap="butt" stroke-miterlimit="10" stroke-linejoin="miter" fill="none" stroke="#ffffff" d="M5041.3 1464.3 5204.6 1301 4468.7 1103.8 4713.7 858.898 5048.3 769.199 4977.6 1033.1 5434.6 1155.6 5312.2 698.5 5048.3 769.199 5137.9 434.602 5382.9 189.602 5580.1 925.602 5743.4 762.301 5966.4 822 5639.8 1148.6 5717.5 1438.4 5427.7 1360.8 5101.1 1687.4Z"/>
<path transform="matrix(.1,0,0,-.1,0,792)" d="M4977.6 1033.1 5048.3 769.199 5312.2 698.5 5434.6 1155.6Z" fill="#999999"/>
<path transform="matrix(.1,0,0,-.1,0,792)" stroke-width="70" stroke-linecap="butt" stroke-miterlimit="10" stroke-linejoin="miter" fill="none" stroke="#ffffff" d="M4977.6 1033.1 5048.3 769.199 5312.2 698.5 5434.6 1155.6Z"/>
<path transform="matrix(.1,0,0,-.1,0,792)" d="M908.699 6897.5 745.398 7060.8 1481.3 7258 1236.3 7502.9 901.699 7592.6 972.398 7328.7 515.398 7206.2 637.801 7663.3 901.699 7592.6 812.102 7927.2 567.102 8172.2 369.898 7436.2 206.602 7599.5-16.3984 7539.8 310.199 7213.2 232.5 6923.4 522.301 7001 848.898 6674.4" fill="#c76659"/>
<path transform="matrix(.1,0,0,-.1,0,792)" stroke-width="70" stroke-linecap="butt" stroke-miterlimit="10" stroke-linejoin="miter" fill="none" stroke="#ffffff" d="M908.699 6897.5 745.398 7060.8 1481.3 7258 1236.3 7502.9 901.699 7592.6 972.398 7328.7 515.398 7206.2 637.801 7663.3 901.699 7592.6 812.102 7927.2 567.102 8172.2 369.898 7436.2 206.602 7599.5-16.3984 7539.8 310.199 7213.2 232.5 6923.4 522.301 7001 848.898 6674.4Z"/>
<path transform="matrix(.1,0,0,-.1,0,792)" d="M972.398 7328.7 901.699 7592.6 637.801 7663.3 515.398 7206.2Z" fill="#999999"/>
<path transform="matrix(.1,0,0,-.1,0,792)" stroke-width="70" stroke-linecap="butt" stroke-miterlimit="10" stroke-linejoin="miter" fill="none" stroke="#ffffff" d="M972.398 7328.7 901.699 7592.6 637.801 7663.3 515.398 7206.2Z"/>
<path transform="matrix(.1,0,0,-.1,0,792)" d="M1057 1348.8 967.398 1014.2 1057 679.5 1250.2 872.699 1584.8 538.102 1127.7 415.699 1057 679.5 812.102 434.602 722.398 100 1458.3 297.199 1398.6 74.1016 1561.9-89.1992 1681.4 357 1971.2 434.602 1759 646.699 1878.6 1092.9 1655.5 1033.1 1595.7 810" fill="#c76659"/>
<path transform="matrix(.1,0,0,-.1,0,792)" stroke-width="70" stroke-linecap="butt" stroke-miterlimit="10" stroke-linejoin="miter" fill="none" stroke="#ffffff" d="M1057 1348.8 967.398 1014.2 1057 679.5 1250.2 872.699 1584.8 538.102 1127.7 415.699 1057 679.5 812.102 434.602 722.398 100 1458.3 297.199 1398.6 74.1016 1561.9-89.1992 1681.4 357 1971.2 434.602 1759 646.699 1878.6 1092.9 1655.5 1033.1 1595.7 810Z"/>
<path transform="matrix(.1,0,0,-.1,0,792)" d="M1250.2 872.699 1057 679.5 1127.7 415.699 1584.8 538.102Z" fill="#999999"/>
<path transform="matrix(.1,0,0,-.1,0,792)" stroke-width="70" stroke-linecap="butt" stroke-miterlimit="10" stroke-linejoin="miter" fill="none" stroke="#ffffff" d="M1250.2 872.699 1057 679.5 1127.7 415.699 1584.8 538.102Z"/>
<path transform="matrix(.1,0,0,-.1,0,792)" d="M1057 1348.8 812.102 1593.7 863.801 1400.5 722.398 1259.1 915.602 1207.3 967.398 1014.2" fill="#c76659"/>
<path transform="matrix(.1,0,0,-.1,0,792)" stroke-width="70" stroke-linecap="butt" stroke-miterlimit="10" stroke-linejoin="miter" fill="none" stroke="#ffffff" d="M1057 1348.8 812.102 1593.7 863.801 1400.5 722.398 1259.1 915.602 1207.3 967.398 1014.2Z"/>
<path transform="matrix(.1,0,0,-.1,0,792)" d="M5071.2 5901.7 5234.5 5738.4 5457.6 5798.2 5338.1 5352 5550.2 5139.9 5840 5217.5 5959.5 5663.7 6122.8 5500.4 6345.9 5560.2 5807.1 6098.9" fill="#999999"/>
<path transform="matrix(.1,0,0,-.1,0,792)" stroke-width="70" stroke-linecap="butt" stroke-miterlimit="10" stroke-linejoin="miter" fill="none" stroke="#ffffff" d="M5071.2 5901.7 5234.5 5738.4 5457.6 5798.2 5338.1 5352 5550.2 5139.9 5840 5217.5 5959.5 5663.7 6122.8 5500.4 6345.9 5560.2 5807.1 6098.9Z"/>
<path transform="matrix(.1,0,0,-.1,0,792)" d="M878.801 2460.1 715.5 2623.4 492.398 2563.6 611.898 3009.8 399.801 3221.9 110 3144.3-9.5 2698.1-172.801 2861.4-395.898 2801.7 142.898 2262.9" fill="#999999"/>
<path transform="matrix(.1,0,0,-.1,0,792)" stroke-width="70" stroke-linecap="butt" stroke-miterlimit="10" stroke-linejoin="miter" fill="none" stroke="#ffffff" d="M878.801 2460.1 715.5 2623.4 492.398 2563.6 611.898 3009.8 399.801 3221.9 110 3144.3-9.5 2698.1-172.801 2861.4-395.898 2801.7 142.898 2262.9Z"/>
<path transform="matrix(.1,0,0,-.1,0,792)" d="M863.801 1400.5 812.102 1593.7 670.602 1735.1 477.5 1683.4 387.801 1348.8 722.398 1259.1" fill="#999999"/>
<path transform="matrix(.1,0,0,-.1,0,792)" stroke-width="70" stroke-linecap="butt" stroke-miterlimit="10" stroke-linejoin="miter" fill="none" stroke="#ffffff" d="M863.801 1400.5 812.102 1593.7 670.602 1735.1 477.5 1683.4 387.801 1348.8 722.398 1259.1Z"/>
<path transform="matrix(.1,0,0,-.1,0,792)" d="M5086.2 6961.3 5137.9 6768.1 5279.4 6626.7 5472.5 6678.4 5562.2 7013 5227.6 7102.7" fill="#999999"/>
<path transform="matrix(.1,0,0,-.1,0,792)" stroke-width="70" stroke-linecap="butt" stroke-miterlimit="10" stroke-linejoin="miter" fill="none" stroke="#ffffff" d="M5086.2 6961.3 5137.9 6768.1 5279.4 6626.7 5472.5 6678.4 5562.2 7013 5227.6 7102.7Z"/>
<path transform="matrix(.1,0,0,-.1,0,792)" d="M856.898 5931.6 644.801 6143.7 198.602 6024.2 258.398 6247.2 95.1016 6410.5-102.102 5674.6 436.602 5135.9 496.398 5359 333.102 5522.3 779.301 5641.8" fill="#999999"/>
<path transform="matrix(.1,0,0,-.1,0,792)" stroke-width="70" stroke-linecap="butt" stroke-miterlimit="10" stroke-linejoin="miter" fill="none" stroke="#ffffff" d="M856.898 5931.6 644.801 6143.7 198.602 6024.2 258.398 6247.2 95.1016 6410.5-102.102 5674.6 436.602 5135.9 496.398 5359 333.102 5522.3 779.301 5641.8Z"/>
<path transform="matrix(.1,0,0,-.1,0,792)" d="M5093.1 2430.2 5305.2 2218.1 5751.4 2337.6 5691.6 2114.6 5854.9 1951.3 6052.1 2687.2 5513.4 3225.9 5453.6 3002.8 5616.9 2839.5 5170.7 2720" fill="#999999"/>
<path transform="matrix(.1,0,0,-.1,0,792)" stroke-width="70" stroke-linecap="butt" stroke-miterlimit="10" stroke-linejoin="miter" fill="none" stroke="#ffffff" d="M5093.1 2430.2 5305.2 2218.1 5751.4 2337.6 5691.6 2114.6 5854.9 1951.3 6052.1 2687.2 5513.4 3225.9 5453.6 3002.8 5616.9 2839.5 5170.7 2720Z"/>
<path transform="matrix(.1,0,0,-.1,0,792)" d="M5034.4 7154.5 5227.6 7102.7 5472.5 7347.7 5227.6 7592.6 5034.4 7540.8 4982.6 7347.7" fill="#999999"/>
<path transform="matrix(.1,0,0,-.1,0,792)" stroke-width="70" stroke-linecap="butt" stroke-miterlimit="10" stroke-linejoin="miter" fill="none" stroke="#ffffff" d="M5034.4 7154.5 5227.6 7102.7 5472.5 7347.7 5227.6 7592.6 5034.4 7540.8 4982.6 7347.7Z"/>
<path transform="matrix(.1,0,0,-.1,0,792)" d="M812.102 4760.5 599.898 4972.6 719.5 5418.7 496.398 5359 436.602 5135.9-102.102 5674.6-191.801 5340-102.102 5005.4 91.1016 5198.6 425.699 4864-31.3984 4741.5-102.102 5005.4-347 4760.5-436.699 4425.9 299.199 4623 239.398 4400 402.699 4236.7 522.301 4682.8" fill="#c76659"/>
<path transform="matrix(.1,0,0,-.1,0,792)" stroke-width="70" stroke-linecap="butt" stroke-miterlimit="10" stroke-linejoin="miter" fill="none" stroke="#ffffff" d="M812.102 4760.5 599.898 4972.6 719.5 5418.7 496.398 5359 436.602 5135.9-102.102 5674.6-191.801 5340-102.102 5005.4 91.1016 5198.6 425.699 4864-31.3984 4741.5-102.102 5005.4-347 4760.5-436.699 4425.9 299.199 4623 239.398 4400 402.699 4236.7 522.301 4682.8Z"/>
<path transform="matrix(.1,0,0,-.1,0,792)" d="M91.1016 5198.6-102.102 5005.4-31.3984 4741.5 425.699 4864Z" fill="#999999"/>
<path transform="matrix(.1,0,0,-.1,0,792)" stroke-width="70" stroke-linecap="butt" stroke-miterlimit="10" stroke-linejoin="miter" fill="none" stroke="#ffffff" d="M91.1016 5198.6-102.102 5005.4-31.3984 4741.5 425.699 4864Z"/>
<path transform="matrix(.1,0,0,-.1,0,792)" d="M812.102 1593.7 722.398 1928.3 387.801 2018 529.199 1876.6 477.5 1683.4 670.602 1735.1" fill="#c76659"/>
<path transform="matrix(.1,0,0,-.1,0,792)" stroke-width="70" stroke-linecap="butt" stroke-miterlimit="10" stroke-linejoin="miter" fill="none" stroke="#ffffff" d="M812.102 1593.7 722.398 1928.3 387.801 2018 529.199 1876.6 477.5 1683.4 670.602 1735.1Z"/>
<path transform="matrix(.1,0,0,-.1,0,792)" d="M5137.9 3601.3 5350.1 3389.2 5230.5 2943.1 5453.6 3002.8 5513.4 3225.9 6052.1 2687.2 6141.8 3021.8 6052.1 3356.4 5858.9 3163.2 5524.3 3497.8 5981.4 3620.3 6052.1 3356.4 6297 3601.3 6386.7 3936 5650.8 3738.8 5710.6 3961.8 5547.3 4125.1 5427.7 3679" fill="#c76659"/>
<path transform="matrix(.1,0,0,-.1,0,792)" stroke-width="70" stroke-linecap="butt" stroke-miterlimit="10" stroke-linejoin="miter" fill="none" stroke="#ffffff" d="M5137.9 3601.3 5350.1 3389.2 5230.5 2943.1 5453.6 3002.8 5513.4 3225.9 6052.1 2687.2 6141.8 3021.8 6052.1 3356.4 5858.9 3163.2 5524.3 3497.8 5981.4 3620.3 6052.1 3356.4 6297 3601.3 6386.7 3936 5650.8 3738.8 5710.6 3961.8 5547.3 4125.1 5427.7 3679Z"/>
<path transform="matrix(.1,0,0,-.1,0,792)" d="M5858.9 3163.2 6052.1 3356.4 5981.4 3620.3 5524.3 3497.8Z" fill="#999999"/>
<path transform="matrix(.1,0,0,-.1,0,792)" stroke-width="70" stroke-linecap="butt" stroke-miterlimit="10" stroke-linejoin="miter" fill="none" stroke="#ffffff" d="M5858.9 3163.2 6052.1 3356.4 5981.4 3620.3 5524.3 3497.8Z"/>
<path transform="matrix(.1,0,0,-.1,0,792)" d="M5137.9 6768.1 5227.6 6433.5 5562.2 6343.8 5420.8 6485.3 5472.5 6678.4 5279.4 6626.7" fill="#c76659"/>
<path transform="matrix(.1,0,0,-.1,0,792)" stroke-width="70" stroke-linecap="butt" stroke-miterlimit="10" stroke-linejoin="miter" fill="none" stroke="#ffffff" d="M5137.9 6768.1 5227.6 6433.5 5562.2 6343.8 5420.8 6485.3 5472.5 6678.4 5279.4 6626.7Z"/>
<path transform="matrix(.1,0,0,-.1,0,792)" d="M915.602 1207.3 722.398 1259.1 477.5 1014.2 722.398 769.199 915.602 821 967.398 1014.2" fill="#999999"/>
<path transform="matrix(.1,0,0,-.1,0,792)" stroke-width="70" stroke-linecap="butt" stroke-miterlimit="10" stroke-linejoin="miter" fill="none" stroke="#ffffff" d="M915.602 1207.3 722.398 1259.1 477.5 1014.2 722.398 769.199 915.602 821 967.398 1014.2Z"/>
<path transform="matrix(.1,0,0,-.1,0,792)" d="M2150.5 7258 2395.4 7502.9 2202.3 7451.2 2060.8 7592.6 2009.1 7399.4 1815.9 7347.7" fill="#c76659"/>
<path transform="matrix(.1,0,0,-.1,0,792)" stroke-width="70" stroke-linecap="butt" stroke-miterlimit="10" stroke-linejoin="miter" fill="none" stroke="#ffffff" d="M2150.5 7258 2395.4 7502.9 2202.3 7451.2 2060.8 7592.6 2009.1 7399.4 1815.9 7347.7Z"/>
<path transform="matrix(.1,0,0,-.1,0,792)" d="M1481.3 7258 1815.9 7347.7 1622.7 7399.4 1570.9 7592.6 1429.5 7451.2 1236.3 7502.9" fill="#c76659"/>
<path transform="matrix(.1,0,0,-.1,0,792)" stroke-width="70" stroke-linecap="butt" stroke-miterlimit="10" stroke-linejoin="miter" fill="none" stroke="#ffffff" d="M1481.3 7258 1815.9 7347.7 1622.7 7399.4 1570.9 7592.6 1429.5 7451.2 1236.3 7502.9Z"/>
<path transform="matrix(.1,0,0,-.1,0,792)" d="M722.398 1259.1 387.801 1348.8 336 1155.6 477.5 1014.2Z" fill="#cc3333"/>
<path transform="matrix(.1,0,0,-.1,0,792)" stroke-width="70" stroke-linecap="butt" stroke-miterlimit="10" stroke-linejoin="miter" fill="none" stroke="#ffffff" d="M722.398 1259.1 387.801 1348.8 336 1155.6 477.5 1014.2Z"/>
<path transform="matrix(.1,0,0,-.1,0,792)" d="M5227.6 7102.7 5562.2 7013 5614 7206.2 5472.5 7347.7Z" fill="#cc3333"/>
<path transform="matrix(.1,0,0,-.1,0,792)" stroke-width="70" stroke-linecap="butt" stroke-miterlimit="10" stroke-linejoin="miter" fill="none" stroke="#ffffff" d="M5227.6 7102.7 5562.2 7013 5614 7206.2 5472.5 7347.7Z"/>
<path transform="matrix(.1,0,0,-.1,0,792)" d="M3799.5 1103.8 3554.6 858.898 3747.7 910.602 3889.2 769.199 3940.9 962.398 4134.1 1014.2" fill="#c76659"/>
<path transform="matrix(.1,0,0,-.1,0,792)" stroke-width="70" stroke-linecap="butt" stroke-miterlimit="10" stroke-linejoin="miter" fill="none" stroke="#ffffff" d="M3799.5 1103.8 3554.6 858.898 3747.7 910.602 3889.2 769.199 3940.9 962.398 4134.1 1014.2Z"/>
<path transform="matrix(.1,0,0,-.1,0,792)" d="M4468.7 1103.8 4134.1 1014.2 4327.3 962.398 4379.1 769.199 4520.5 910.602 4713.7 858.898" fill="#c76659"/>
<path transform="matrix(.1,0,0,-.1,0,792)" stroke-width="70" stroke-linecap="butt" stroke-miterlimit="10" stroke-linejoin="miter" fill="none" stroke="#ffffff" d="M4468.7 1103.8 4134.1 1014.2 4327.3 962.398 4379.1 769.199 4520.5 910.602 4713.7 858.898Z"/>
<path transform="matrix(.1,0,0,-.1,0,792)" d="M4982.6 7347.7 5034.4 7540.8 5227.6 7592.6 5086.2 7734 5137.9 7927.2 4893 7682.3" fill="#c76659"/>
<path transform="matrix(.1,0,0,-.1,0,792)" stroke-width="70" stroke-linecap="butt" stroke-miterlimit="10" stroke-linejoin="miter" fill="none" stroke="#ffffff" d="M4982.6 7347.7 5034.4 7540.8 5227.6 7592.6 5086.2 7734 5137.9 7927.2 4893 7682.3Z"/>
<path transform="matrix(.1,0,0,-.1,0,792)" d="M1815.9 7347.7 2009.1 7399.4 2060.8 7592.6 1815.9 7837.6 1570.9 7592.6 1622.7 7399.4" fill="#999999"/>
<path transform="matrix(.1,0,0,-.1,0,792)" stroke-width="70" stroke-linecap="butt" stroke-miterlimit="10" stroke-linejoin="miter" fill="none" stroke="#ffffff" d="M1815.9 7347.7 2009.1 7399.4 2060.8 7592.6 1815.9 7837.6 1570.9 7592.6 1622.7 7399.4Z"/>
<path transform="matrix(.1,0,0,-.1,0,792)" d="M3569.5 7403.4 3689 7849.6 3978.8 7927.2 3766.7 8139.3 3886.2 8585.5 3663.2 8525.7 3603.4 8302.6 3064.7 8841.4 2975 8506.8 3064.7 8172.2 3257.8 8365.3 3592.4 8030.7 3135.4 7908.3 3064.7 8172.2 2819.7 7927.2 2730.1 7592.6 3466 7789.8 3406.2 7566.7" fill="#c76659"/>
<path transform="matrix(.1,0,0,-.1,0,792)" stroke-width="70" stroke-linecap="butt" stroke-miterlimit="10" stroke-linejoin="miter" fill="none" stroke="#ffffff" d="M3569.5 7403.4 3689 7849.6 3978.8 7927.2 3766.7 8139.3 3886.2 8585.5 3663.2 8525.7 3603.4 8302.6 3064.7 8841.4 2975 8506.8 3064.7 8172.2 3257.8 8365.3 3592.4 8030.7 3135.4 7908.3 3064.7 8172.2 2819.7 7927.2 2730.1 7592.6 3466 7789.8 3406.2 7566.7Z"/>
<path transform="matrix(.1,0,0,-.1,0,792)" d="M3257.8 8365.3 3064.7 8172.2 3135.4 7908.3 3592.4 8030.7Z" fill="#999999"/>
<path transform="matrix(.1,0,0,-.1,0,792)" stroke-width="70" stroke-linecap="butt" stroke-miterlimit="10" stroke-linejoin="miter" fill="none" stroke="#ffffff" d="M3257.8 8365.3 3064.7 8172.2 3135.4 7908.3 3592.4 8030.7Z"/>
<path transform="matrix(.1,0,0,-.1,0,792)" d="M967.398 1014.2 915.602 821 722.398 769.199 863.801 627.801 812.102 434.602 1057 679.5" fill="#c76659"/>
<path transform="matrix(.1,0,0,-.1,0,792)" stroke-width="70" stroke-linecap="butt" stroke-miterlimit="10" stroke-linejoin="miter" fill="none" stroke="#ffffff" d="M967.398 1014.2 915.602 821 722.398 769.199 863.801 627.801 812.102 434.602 1057 679.5Z"/>
<path transform="matrix(.1,0,0,-.1,0,792)" d="M4134.1 1014.2 3940.9 962.398 3889.2 769.199 4134.1 524.301 4379.1 769.199 4327.3 962.398" fill="#999999"/>
<path transform="matrix(.1,0,0,-.1,0,792)" stroke-width="70" stroke-linecap="butt" stroke-miterlimit="10" stroke-linejoin="miter" fill="none" stroke="#ffffff" d="M4134.1 1014.2 3940.9 962.398 3889.2 769.199 4134.1 524.301 4379.1 769.199 4327.3 962.398Z"/>
<path transform="matrix(.1,0,0,-.1,0,792)" d="M2202.3 7451.2 2395.4 7502.9 2536.9 7644.4 2485.1 7837.6 2150.5 7927.2 2060.8 7592.6" fill="#999999"/>
<path transform="matrix(.1,0,0,-.1,0,792)" stroke-width="70" stroke-linecap="butt" stroke-miterlimit="10" stroke-linejoin="miter" fill="none" stroke="#ffffff" d="M2202.3 7451.2 2395.4 7502.9 2536.9 7644.4 2485.1 7837.6 2150.5 7927.2 2060.8 7592.6Z"/>
<path transform="matrix(.1,0,0,-.1,0,792)" d="M1429.5 7451.2 1570.9 7592.6 1481.3 7927.2 1146.7 7837.6 1094.9 7644.4 1236.3 7502.9" fill="#999999"/>
<path transform="matrix(.1,0,0,-.1,0,792)" stroke-width="70" stroke-linecap="butt" stroke-miterlimit="10" stroke-linejoin="miter" fill="none" stroke="#ffffff" d="M1429.5 7451.2 1570.9 7592.6 1481.3 7927.2 1146.7 7837.6 1094.9 7644.4 1236.3 7502.9Z"/>
<path transform="matrix(.1,0,0,-.1,0,792)" d="M2380.5 958.398 2261 512.199 1971.2 434.602 2183.3 222.5 2063.8-223.699 2286.8-163.898 2346.6 59.1992 2885.3-479.602 2975-145 2885.3 189.602 2692.2-3.5 2357.6 331.102 2814.6 453.5 2885.3 189.602 3130.3 434.602 3219.9 769.199 2484 572 2543.8 795.102" fill="#c76659"/>
<path transform="matrix(.1,0,0,-.1,0,792)" stroke-width="70" stroke-linecap="butt" stroke-miterlimit="10" stroke-linejoin="miter" fill="none" stroke="#ffffff" d="M2380.5 958.398 2261 512.199 1971.2 434.602 2183.3 222.5 2063.8-223.699 2286.8-163.898 2346.6 59.1992 2885.3-479.602 2975-145 2885.3 189.602 2692.2-3.5 2357.6 331.102 2814.6 453.5 2885.3 189.602 3130.3 434.602 3219.9 769.199 2484 572 2543.8 795.102Z"/>
<path transform="matrix(.1,0,0,-.1,0,792)" d="M2692.2-3.5 2885.3 189.602 2814.6 453.5 2357.6 331.102Z" fill="#999999"/>
<path transform="matrix(.1,0,0,-.1,0,792)" stroke-width="70" stroke-linecap="butt" stroke-miterlimit="10" stroke-linejoin="miter" fill="none" stroke="#ffffff" d="M2692.2-3.5 2885.3 189.602 2814.6 453.5 2357.6 331.102Z"/>
<path transform="matrix(.1,0,0,-.1,0,792)" d="M2395.4 7502.9 2730.1 7592.6 2819.7 7927.2 2678.3 7785.8 2485.1 7837.6 2536.9 7644.4" fill="#c76659"/>
<path transform="matrix(.1,0,0,-.1,0,792)" stroke-width="70" stroke-linecap="butt" stroke-miterlimit="10" stroke-linejoin="miter" fill="none" stroke="#ffffff" d="M2395.4 7502.9 2730.1 7592.6 2819.7 7927.2 2678.3 7785.8 2485.1 7837.6 2536.9 7644.4Z"/>
<path transform="matrix(.1,0,0,-.1,0,792)" d="M1236.3 7502.9 1094.9 7644.4 1146.7 7837.6 953.5 7785.8 812.102 7927.2 901.699 7592.6" fill="#c76659"/>
<path transform="matrix(.1,0,0,-.1,0,792)" stroke-width="70" stroke-linecap="butt" stroke-miterlimit="10" stroke-linejoin="miter" fill="none" stroke="#ffffff" d="M1236.3 7502.9 1094.9 7644.4 1146.7 7837.6 953.5 7785.8 812.102 7927.2 901.699 7592.6Z"/>
<path transform="matrix(.1,0,0,-.1,0,792)" d="M3747.7 910.602 3554.6 858.898 3413.1 717.398 3464.9 524.301 3799.5 434.602 3889.2 769.199" fill="#999999"/>
<path transform="matrix(.1,0,0,-.1,0,792)" stroke-width="70" stroke-linecap="butt" stroke-miterlimit="10" stroke-linejoin="miter" fill="none" stroke="#ffffff" d="M3747.7 910.602 3554.6 858.898 3413.1 717.398 3464.9 524.301 3799.5 434.602 3889.2 769.199Z"/>
<path transform="matrix(.1,0,0,-.1,0,792)" d="M4520.5 910.602 4379.1 769.199 4468.7 434.602 4803.3 524.301 4855.1 717.398 4713.7 858.898" fill="#999999"/>
<path transform="matrix(.1,0,0,-.1,0,792)" stroke-width="70" stroke-linecap="butt" stroke-miterlimit="10" stroke-linejoin="miter" fill="none" stroke="#ffffff" d="M4520.5 910.602 4379.1 769.199 4468.7 434.602 4803.3 524.301 4855.1 717.398 4713.7 858.898Z"/>
<path transform="matrix(.1,0,0,-.1,0,792)" d="M4713.7 858.898 4855.1 717.398 4803.3 524.301 4996.5 576 5137.9 434.602 5048.3 769.199" fill="#c76659"/>
<path transform="matrix(.1,0,0,-.1,0,792)" stroke-width="70" stroke-linecap="butt" stroke-miterlimit="10" stroke-linejoin="miter" fill="none" stroke="#ffffff" d="M4713.7 858.898 4855.1 717.398 4803.3 524.301 4996.5 576 5137.9 434.602 5048.3 769.199Z"/>
<path transform="matrix(.1,0,0,-.1,0,792)" d="M3554.6 858.898 3219.9 769.199 3130.3 434.602 3271.7 576 3464.9 524.301 3413.1 717.398" fill="#c76659"/>
<path transform="matrix(.1,0,0,-.1,0,792)" stroke-width="70" stroke-linecap="butt" stroke-miterlimit="10" stroke-linejoin="miter" fill="none" stroke="#ffffff" d="M3554.6 858.898 3219.9 769.199 3130.3 434.602 3271.7 576 3464.9 524.301 3413.1 717.398Z"/>
<path transform="matrix(.1,0,0,-.1,0,792)" d="M5420.8 6485.3 5562.2 6343.8 5755.4 6292.1 5896.8 6433.5 5807.1 6768.1 5472.5 6678.4" fill="#999999"/>
<path transform="matrix(.1,0,0,-.1,0,792)" stroke-width="70" stroke-linecap="butt" stroke-miterlimit="10" stroke-linejoin="miter" fill="none" stroke="#ffffff" d="M5420.8 6485.3 5562.2 6343.8 5755.4 6292.1 5896.8 6433.5 5807.1 6768.1 5472.5 6678.4Z"/>
<path transform="matrix(.1,0,0,-.1,0,792)" d="M529.199 1876.6 387.801 2018 194.602 2069.7 53.1992 1928.3 142.898 1593.7 477.5 1683.4" fill="#999999"/>
<path transform="matrix(.1,0,0,-.1,0,792)" stroke-width="70" stroke-linecap="butt" stroke-miterlimit="10" stroke-linejoin="miter" fill="none" stroke="#ffffff" d="M529.199 1876.6 387.801 2018 194.602 2069.7 53.1992 1928.3 142.898 1593.7 477.5 1683.4Z"/>
<path transform="matrix(.1,0,0,-.1,0,792)" d="M5227.6 7592.6 5562.2 7682.3 5472.5 8016.9 5279.4 8068.6 5137.9 7927.2 5086.2 7734" fill="#999999"/>
<path transform="matrix(.1,0,0,-.1,0,792)" stroke-width="70" stroke-linecap="butt" stroke-miterlimit="10" stroke-linejoin="miter" fill="none" stroke="#ffffff" d="M5227.6 7592.6 5562.2 7682.3 5472.5 8016.9 5279.4 8068.6 5137.9 7927.2 5086.2 7734Z"/>
<path transform="matrix(.1,0,0,-.1,0,792)" d="M5227.6 7592.6 5472.5 7347.7 5614 7489.1 5562.2 7682.3Z" fill="#cc3333"/>
<path transform="matrix(.1,0,0,-.1,0,792)" stroke-width="70" stroke-linecap="butt" stroke-miterlimit="10" stroke-linejoin="miter" fill="none" stroke="#ffffff" d="M5227.6 7592.6 5472.5 7347.7 5614 7489.1 5562.2 7682.3Z"/>
<path transform="matrix(.1,0,0,-.1,0,792)" d="M2060.8 7592.6 2150.5 7927.2 1957.3 7979 1815.9 7837.6Z" fill="#cc3333"/>
<path transform="matrix(.1,0,0,-.1,0,792)" stroke-width="70" stroke-linecap="butt" stroke-miterlimit="10" stroke-linejoin="miter" fill="none" stroke="#ffffff" d="M2060.8 7592.6 2150.5 7927.2 1957.3 7979 1815.9 7837.6Z"/>
<path transform="matrix(.1,0,0,-.1,0,792)" d="M1570.9 7592.6 1815.9 7837.6 1674.5 7979 1481.3 7927.2Z" fill="#cc3333"/>
<path transform="matrix(.1,0,0,-.1,0,792)" stroke-width="70" stroke-linecap="butt" stroke-miterlimit="10" stroke-linejoin="miter" fill="none" stroke="#ffffff" d="M1570.9 7592.6 1815.9 7837.6 1674.5 7979 1481.3 7927.2Z"/>
<path transform="matrix(.1,0,0,-.1,0,792)" d="M481.5 6307 154.898 6633.6 232.5 6923.4-57.3008 6845.7-383.898 7172.3-443.602 6949.3-280.301 6786-1016.3 6588.8-771.301 6343.8-436.699 6254.2-507.398 6518.1-50.3008 6640.5-172.801 6183.5-436.699 6254.2-347 5919.6-102.102 5674.6 95.1016 6410.5 258.398 6247.2" fill="#c76659"/>
<path transform="matrix(.1,0,0,-.1,0,792)" stroke-width="70" stroke-linecap="butt" stroke-miterlimit="10" stroke-linejoin="miter" fill="none" stroke="#ffffff" d="M481.5 6307 154.898 6633.6 232.5 6923.4-57.3008 6845.7-383.898 7172.3-443.602 6949.3-280.301 6786-1016.3 6588.8-771.301 6343.8-436.699 6254.2-507.398 6518.1-50.3008 6640.5-172.801 6183.5-436.699 6254.2-347 5919.6-102.102 5674.6 95.1016 6410.5 258.398 6247.2Z"/>
<path transform="matrix(.1,0,0,-.1,0,792)" d="M5468.5 2054.8 5795.1 1728.2 5717.5 1438.4 6007.3 1516.1 6333.9 1189.5 6393.6 1412.5 6230.3 1575.8 6966.3 1773 6721.3 2018 6386.7 2107.6 6457.4 1843.7 6000.3 1721.3 6122.8 2178.3 6386.7 2107.6 6297 2442.2 6052.1 2687.2 5854.9 1951.3 5691.6 2114.6" fill="#c76659"/>
<path transform="matrix(.1,0,0,-.1,0,792)" stroke-width="70" stroke-linecap="butt" stroke-miterlimit="10" stroke-linejoin="miter" fill="none" stroke="#ffffff" d="M5468.5 2054.8 5795.1 1728.2 5717.5 1438.4 6007.3 1516.1 6333.9 1189.5 6393.6 1412.5 6230.3 1575.8 6966.3 1773 6721.3 2018 6386.7 2107.6 6457.4 1843.7 6000.3 1721.3 6122.8 2178.3 6386.7 2107.6 6297 2442.2 6052.1 2687.2 5854.9 1951.3 5691.6 2114.6Z"/>
<path transform="matrix(.1,0,0,-.1,0,792)" d="M6457.4 1843.7 6386.7 2107.6 6122.8 2178.3 6000.3 1721.3Z" fill="#999999"/>
<path transform="matrix(.1,0,0,-.1,0,792)" stroke-width="70" stroke-linecap="butt" stroke-miterlimit="10" stroke-linejoin="miter" fill="none" stroke="#ffffff" d="M6457.4 1843.7 6386.7 2107.6 6122.8 2178.3 6000.3 1721.3Z"/>
<path transform="matrix(.1,0,0,-.1,0,792)" d="M5472.5 6678.4 5807.1 6768.1 5755.4 6961.3 5562.2 7013Z" fill="#cc3333"/>
<path transform="matrix(.1,0,0,-.1,0,792)" stroke-width="70" stroke-linecap="butt" stroke-miterlimit="10" stroke-linejoin="miter" fill="none" stroke="#ffffff" d="M5472.5 6678.4 5807.1 6768.1 5755.4 6961.3 5562.2 7013Z"/>
<path transform="matrix(.1,0,0,-.1,0,792)" d="M5472.5 7347.7 5614 7206.2 5562.2 7013 5755.4 6961.3 5807.1 6768.1 6000.3 6819.9 6141.8 6678.4 6283.2 6819.9 6476.4 6768.1 6528.1 6961.3 6721.3 7013 6669.5 7206.2 6811 7347.7 6669.5 7489.1 6721.3 7682.3 6528.1 7734 6476.4 7927.2 6283.2 7875.4 6141.8 8016.9 6000.3 7875.4 5807.1 7927.2 5755.4 7734 5562.2 7682.3 5614 7489.1" fill="#999999"/>
<path transform="matrix(.1,0,0,-.1,0,792)" stroke-width="70" stroke-linecap="butt" stroke-miterlimit="10" stroke-linejoin="miter" fill="none" stroke="#ffffff" d="M5472.5 7347.7 5614 7206.2 5562.2 7013 5755.4 6961.3 5807.1 6768.1 6000.3 6819.9 6141.8 6678.4 6283.2 6819.9 6476.4 6768.1 6528.1 6961.3 6721.3 7013 6669.5 7206.2 6811 7347.7 6669.5 7489.1 6721.3 7682.3 6528.1 7734 6476.4 7927.2 6283.2 7875.4 6141.8 8016.9 6000.3 7875.4 5807.1 7927.2 5755.4 7734 5562.2 7682.3 5614 7489.1Z"/>
<path transform="matrix(.1,0,0,-.1,0,792)" d="M477.5 1683.4 142.898 1593.7 194.602 1400.5 387.801 1348.8Z" fill="#cc3333"/>
<path transform="matrix(.1,0,0,-.1,0,792)" stroke-width="70" stroke-linecap="butt" stroke-miterlimit="10" stroke-linejoin="miter" fill="none" stroke="#ffffff" d="M477.5 1683.4 142.898 1593.7 194.602 1400.5 387.801 1348.8Z"/>
<path transform="matrix(.1,0,0,-.1,0,792)" d="M477.5 1014.2 336 872.699 387.801 679.5 722.398 769.199Z" fill="#cc3333"/>
<path transform="matrix(.1,0,0,-.1,0,792)" stroke-width="70" stroke-linecap="butt" stroke-miterlimit="10" stroke-linejoin="miter" fill="none" stroke="#ffffff" d="M477.5 1014.2 336 872.699 387.801 679.5 722.398 769.199Z"/>
<path transform="matrix(.1,0,0,-.1,0,792)" d="M477.5 1014.2 336 1155.6 387.801 1348.8 194.602 1400.5 142.898 1593.7-50.3008 1541.9-191.801 1683.4-333.199 1541.9-526.398 1593.7-578.102 1400.5-771.301 1348.8-719.5 1155.6-861 1014.2-719.5 872.699-771.301 679.5-578.102 627.801-526.398 434.602-333.199 486.398-191.801 344.898-50.3008 486.398 142.898 434.602 194.602 627.801 387.801 679.5 336 872.699" fill="#999999"/>
<path transform="matrix(.1,0,0,-.1,0,792)" stroke-width="70" stroke-linecap="butt" stroke-miterlimit="10" stroke-linejoin="miter" fill="none" stroke="#ffffff" d="M477.5 1014.2 336 1155.6 387.801 1348.8 194.602 1400.5 142.898 1593.7-50.3008 1541.9-191.801 1683.4-333.199 1541.9-526.398 1593.7-578.102 1400.5-771.301 1348.8-719.5 1155.6-861 1014.2-719.5 872.699-771.301 679.5-578.102 627.801-526.398 434.602-333.199 486.398-191.801 344.898-50.3008 486.398 142.898 434.602 194.602 627.801 387.801 679.5 336 872.699Z"/>
<path transform="matrix(.1,0,0,-.1,0,792)" d="M722.398 769.199 387.801 679.5 477.5 344.898 670.602 293.199 812.102 434.602 863.801 627.801" fill="#999999"/>
<path transform="matrix(.1,0,0,-.1,0,792)" stroke-width="70" stroke-linecap="butt" stroke-miterlimit="10" stroke-linejoin="miter" fill="none" stroke="#ffffff" d="M722.398 769.199 387.801 679.5 477.5 344.898 670.602 293.199 812.102 434.602 863.801 627.801Z"/>
<path transform="matrix(.1,0,0,-.1,0,792)" d="M3889.2 769.199 3799.5 434.602 3992.7 382.801 4134.1 524.301Z" fill="#cc3333"/>
<path transform="matrix(.1,0,0,-.1,0,792)" stroke-width="70" stroke-linecap="butt" stroke-miterlimit="10" stroke-linejoin="miter" fill="none" stroke="#ffffff" d="M3889.2 769.199 3799.5 434.602 3992.7 382.801 4134.1 524.301Z"/>
<path transform="matrix(.1,0,0,-.1,0,792)" d="M4379.1 769.199 4134.1 524.301 4275.5 382.801 4468.7 434.602Z" fill="#cc3333"/>
<path transform="matrix(.1,0,0,-.1,0,792)" stroke-width="70" stroke-linecap="butt" stroke-miterlimit="10" stroke-linejoin="miter" fill="none" stroke="#ffffff" d="M4379.1 769.199 4134.1 524.301 4275.5 382.801 4468.7 434.602Z"/>
<path transform="matrix(.1,0,0,-.1,0,792)" d="M5562.2 6343.8 5807.1 6098.9 6141.8 6188.5 5948.6 6240.3 5896.8 6433.5 5755.4 6292.1" fill="#c76659"/>
<path transform="matrix(.1,0,0,-.1,0,792)" stroke-width="70" stroke-linecap="butt" stroke-miterlimit="10" stroke-linejoin="miter" fill="none" stroke="#ffffff" d="M5562.2 6343.8 5807.1 6098.9 6141.8 6188.5 5948.6 6240.3 5896.8 6433.5 5755.4 6292.1Z"/>
<path transform="matrix(.1,0,0,-.1,0,792)" d="M5562.2 7682.3 5755.4 7734 5807.1 7927.2 5472.5 8016.9Z" fill="#cc3333"/>
<path transform="matrix(.1,0,0,-.1,0,792)" stroke-width="70" stroke-linecap="butt" stroke-miterlimit="10" stroke-linejoin="miter" fill="none" stroke="#ffffff" d="M5562.2 7682.3 5755.4 7734 5807.1 7927.2 5472.5 8016.9Z"/>
<path transform="matrix(.1,0,0,-.1,0,792)" d="M387.801 2018 142.898 2262.9-191.801 2173.3 1.39844 2121.5 53.1992 1928.3 194.602 2069.7" fill="#c76659"/>
<path transform="matrix(.1,0,0,-.1,0,792)" stroke-width="70" stroke-linecap="butt" stroke-miterlimit="10" stroke-linejoin="miter" fill="none" stroke="#ffffff" d="M387.801 2018 142.898 2262.9-191.801 2173.3 1.39844 2121.5 53.1992 1928.3 194.602 2069.7Z"/>
<path transform="matrix(.1,0,0,-.1,0,792)" d="M387.801 679.5 194.602 627.801 142.898 434.602 477.5 344.898Z" fill="#cc3333"/>
<path transform="matrix(.1,0,0,-.1,0,792)" stroke-width="70" stroke-linecap="butt" stroke-miterlimit="10" stroke-linejoin="miter" fill="none" stroke="#ffffff" d="M387.801 679.5 194.602 627.801 142.898 434.602 477.5 344.898Z"/>
<path transform="matrix(.1,0,0,-.1,0,792)" d="M2678.3 7785.8 2819.7 7927.2 2871.5 8120.4 2730.1 8261.8 2395.4 8172.2 2485.1 7837.6" fill="#999999"/>
<path transform="matrix(.1,0,0,-.1,0,792)" stroke-width="70" stroke-linecap="butt" stroke-miterlimit="10" stroke-linejoin="miter" fill="none" stroke="#ffffff" d="M2678.3 7785.8 2819.7 7927.2 2871.5 8120.4 2730.1 8261.8 2395.4 8172.2 2485.1 7837.6Z"/>
<path transform="matrix(.1,0,0,-.1,0,792)" d="M953.5 7785.8 1146.7 7837.6 1236.3 8172.2 901.699 8261.8 760.301 8120.4 812.102 7927.2" fill="#999999"/>
<path transform="matrix(.1,0,0,-.1,0,792)" stroke-width="70" stroke-linecap="butt" stroke-miterlimit="10" stroke-linejoin="miter" fill="none" stroke="#ffffff" d="M953.5 7785.8 1146.7 7837.6 1236.3 8172.2 901.699 8261.8 760.301 8120.4 812.102 7927.2Z"/>
<path transform="matrix(.1,0,0,-.1,0,792)" d="M369.898 7436.2 567.102 8172.2 28.3984 8710.9-31.3984 8487.8 131.898 8324.5-314.199 8205-391.898 7915.2-179.699 7703.1 266.398 7822.6 206.602 7599.5" fill="#999999"/>
<path transform="matrix(.1,0,0,-.1,0,792)" stroke-width="70" stroke-linecap="butt" stroke-miterlimit="10" stroke-linejoin="miter" fill="none" stroke="#ffffff" d="M369.898 7436.2 567.102 8172.2 28.3984 8710.9-31.3984 8487.8 131.898 8324.5-314.199 8205-391.898 7915.2-179.699 7703.1 266.398 7822.6 206.602 7599.5Z"/>
<path transform="matrix(.1,0,0,-.1,0,792)" d="M5580.1 925.602 5382.9 189.602 5921.6-349.102 5981.4-126 5818.1 37.3008 6264.2 156.801 6341.9 446.602 6129.7 658.699 5683.6 539.199 5743.4 762.301" fill="#999999"/>
<path transform="matrix(.1,0,0,-.1,0,792)" stroke-width="70" stroke-linecap="butt" stroke-miterlimit="10" stroke-linejoin="miter" fill="none" stroke="#ffffff" d="M5580.1 925.602 5382.9 189.602 5921.6-349.102 5981.4-126 5818.1 37.3008 6264.2 156.801 6341.9 446.602 6129.7 658.699 5683.6 539.199 5743.4 762.301Z"/>
<path transform="matrix(.1,0,0,-.1,0,792)" d="M5607 4348.2 5933.6 4021.6 5710.6 3961.8 5650.8 3738.8 6386.7 3936 6583.9 4671.9 6360.8 4612.1 6301 4389 5974.4 4715.6 5684.7 4638" fill="#999999"/>
<path transform="matrix(.1,0,0,-.1,0,792)" stroke-width="70" stroke-linecap="butt" stroke-miterlimit="10" stroke-linejoin="miter" fill="none" stroke="#ffffff" d="M5607 4348.2 5933.6 4021.6 5710.6 3961.8 5650.8 3738.8 6386.7 3936 6583.9 4671.9 6360.8 4612.1 6301 4389 5974.4 4715.6 5684.7 4638Z"/>
<path transform="matrix(.1,0,0,-.1,0,792)" d="M343 4013.6 16.3984 4340.2 239.398 4400 299.199 4623-436.699 4425.9-633.898 3689.9-410.801 3749.7-351 3972.8-24.3984 3646.2 265.301 3723.8" fill="#999999"/>
<path transform="matrix(.1,0,0,-.1,0,792)" stroke-width="70" stroke-linecap="butt" stroke-miterlimit="10" stroke-linejoin="miter" fill="none" stroke="#ffffff" d="M343 4013.6 16.3984 4340.2 239.398 4400 299.199 4623-436.699 4425.9-633.898 3689.9-410.801 3749.7-351 3972.8-24.3984 3646.2 265.301 3723.8Z"/>
<path transform="matrix(.1,0,0,-.1,0,792)" d="M2485.1 7837.6 2395.4 8172.2 2202.3 8120.4 2150.5 7927.2Z" fill="#cc3333"/>
<path transform="matrix(.1,0,0,-.1,0,792)" stroke-width="70" stroke-linecap="butt" stroke-miterlimit="10" stroke-linejoin="miter" fill="none" stroke="#ffffff" d="M2485.1 7837.6 2395.4 8172.2 2202.3 8120.4 2150.5 7927.2Z"/>
<path transform="matrix(.1,0,0,-.1,0,792)" d="M1815.9 7837.6 1957.3 7979 2150.5 7927.2 2202.3 8120.4 2395.4 8172.2 2343.7 8365.3 2485.1 8506.8 2343.7 8648.2 2395.4 8841.4 2202.3 8893.1 2150.5 9086.3 1957.3 9034.6 1815.9 9176 1674.5 9034.6 1481.3 9086.3 1429.5 8893.1 1236.3 8841.4 1288.1 8648.2 1146.7 8506.8 1288.1 8365.3 1236.3 8172.2 1429.5 8120.4 1481.3 7927.2 1674.5 7979" fill="#999999"/>
<path transform="matrix(.1,0,0,-.1,0,792)" stroke-width="70" stroke-linecap="butt" stroke-miterlimit="10" stroke-linejoin="miter" fill="none" stroke="#ffffff" d="M1815.9 7837.6 1957.3 7979 2150.5 7927.2 2202.3 8120.4 2395.4 8172.2 2343.7 8365.3 2485.1 8506.8 2343.7 8648.2 2395.4 8841.4 2202.3 8893.1 2150.5 9086.3 1957.3 9034.6 1815.9 9176 1674.5 9034.6 1481.3 9086.3 1429.5 8893.1 1236.3 8841.4 1288.1 8648.2 1146.7 8506.8 1288.1 8365.3 1236.3 8172.2 1429.5 8120.4 1481.3 7927.2 1674.5 7979Z"/>
<path transform="matrix(.1,0,0,-.1,0,792)" d="M1146.7 7837.6 1481.3 7927.2 1429.5 8120.4 1236.3 8172.2Z" fill="#cc3333"/>
<path transform="matrix(.1,0,0,-.1,0,792)" stroke-width="70" stroke-linecap="butt" stroke-miterlimit="10" stroke-linejoin="miter" fill="none" stroke="#ffffff" d="M1146.7 7837.6 1481.3 7927.2 1429.5 8120.4 1236.3 8172.2Z"/>
<path transform="matrix(.1,0,0,-.1,0,792)" d="M3271.7 576 3130.3 434.602 3078.5 241.398 3219.9 100 3554.6 189.602 3464.9 524.301" fill="#999999"/>
<path transform="matrix(.1,0,0,-.1,0,792)" stroke-width="70" stroke-linecap="butt" stroke-miterlimit="10" stroke-linejoin="miter" fill="none" stroke="#ffffff" d="M3271.7 576 3130.3 434.602 3078.5 241.398 3219.9 100 3554.6 189.602 3464.9 524.301Z"/>
<path transform="matrix(.1,0,0,-.1,0,792)" d="M4996.5 576 4803.3 524.301 4713.7 189.602 5048.3 100 5189.7 241.398 5137.9 434.602" fill="#999999"/>
<path transform="matrix(.1,0,0,-.1,0,792)" stroke-width="70" stroke-linecap="butt" stroke-miterlimit="10" stroke-linejoin="miter" fill="none" stroke="#ffffff" d="M4996.5 576 4803.3 524.301 4713.7 189.602 5048.3 100 5189.7 241.398 5137.9 434.602Z"/>
<path transform="matrix(.1,0,0,-.1,0,792)" d="M5639.8 1148.6 5966.4 822 5743.4 762.301 5683.6 539.199 6129.7 658.699 6419.5 736.398 6497.2 1026.2 6616.7 1472.3 6393.6 1412.5 6333.9 1189.5 6007.3 1516.1 5717.5 1438.4" fill="#999999"/>
<path transform="matrix(.1,0,0,-.1,0,792)" stroke-width="70" stroke-linecap="butt" stroke-miterlimit="10" stroke-linejoin="miter" fill="none" stroke="#ffffff" d="M5639.8 1148.6 5966.4 822 5743.4 762.301 5683.6 539.199 6129.7 658.699 6419.5 736.398 6497.2 1026.2 6616.7 1472.3 6393.6 1412.5 6333.9 1189.5 6007.3 1516.1 5717.5 1438.4Z"/>
<path transform="matrix(.1,0,0,-.1,0,792)" d="M310.199 7213.2-16.3984 7539.8 206.602 7599.5 266.398 7822.6-179.699 7703.1-469.5 7625.4-547.199 7335.6-666.699 6889.5-443.602 6949.3-383.898 7172.3-57.3008 6845.7 232.5 6923.4" fill="#999999"/>
<path transform="matrix(.1,0,0,-.1,0,792)" stroke-width="70" stroke-linecap="butt" stroke-miterlimit="10" stroke-linejoin="miter" fill="none" stroke="#ffffff" d="M310.199 7213.2-16.3984 7539.8 206.602 7599.5 266.398 7822.6-179.699 7703.1-469.5 7625.4-547.199 7335.6-666.699 6889.5-443.602 6949.3-383.898 7172.3-57.3008 6845.7 232.5 6923.4Z"/>
<path transform="matrix(.1,0,0,-.1,0,792)" d="M3464.9 524.301 3554.6 189.602 3747.7 241.398 3799.5 434.602Z" fill="#cc3333"/>
<path transform="matrix(.1,0,0,-.1,0,792)" stroke-width="70" stroke-linecap="butt" stroke-miterlimit="10" stroke-linejoin="miter" fill="none" stroke="#ffffff" d="M3464.9 524.301 3554.6 189.602 3747.7 241.398 3799.5 434.602Z"/>
<path transform="matrix(.1,0,0,-.1,0,792)" d="M4134.1 524.301 3992.7 382.801 3799.5 434.602 3747.7 241.398 3554.6 189.602 3606.3-3.5 3464.9-145 3606.3-286.398 3554.6-479.602 3747.7-531.301 3799.5-724.5 3992.7-672.699 4134.1-814.199 4275.5-672.699 4468.7-724.5 4520.5-531.301 4713.7-479.602 4661.9-286.398 4803.3-145 4661.9-3.5 4713.7 189.602 4520.5 241.398 4468.7 434.602 4275.5 382.801" fill="#999999"/>
<path transform="matrix(.1,0,0,-.1,0,792)" stroke-width="70" stroke-linecap="butt" stroke-miterlimit="10" stroke-linejoin="miter" fill="none" stroke="#ffffff" d="M4134.1 524.301 3992.7 382.801 3799.5 434.602 3747.7 241.398 3554.6 189.602 3606.3-3.5 3464.9-145 3606.3-286.398 3554.6-479.602 3747.7-531.301 3799.5-724.5 3992.7-672.699 4134.1-814.199 4275.5-672.699 4468.7-724.5 4520.5-531.301 4713.7-479.602 4661.9-286.398 4803.3-145 4661.9-3.5 4713.7 189.602 4520.5 241.398 4468.7 434.602 4275.5 382.801Z"/>
<path transform="matrix(.1,0,0,-.1,0,792)" d="M4803.3 524.301 4468.7 434.602 4520.5 241.398 4713.7 189.602Z" fill="#cc3333"/>
<path transform="matrix(.1,0,0,-.1,0,792)" stroke-width="70" stroke-linecap="butt" stroke-miterlimit="10" stroke-linejoin="miter" fill="none" stroke="#ffffff" d="M4803.3 524.301 4468.7 434.602 4520.5 241.398 4713.7 189.602Z"/>
<path transform="matrix(.1,0,0,-.1,0,792)" stroke-width="70" stroke-linecap="butt" stroke-miterlimit="10" stroke-linejoin="miter" fill="none" stroke="#ffffff" d="M5137.9 7927.2 5279.4 8068.6 5472.5 8016.9 5420.8 8210.1 5562.2 8351.5 5227.6 8261.8Z"/>
<path transform="matrix(.1,0,0,-.1,0,792)" stroke-width="70" stroke-linecap="butt" stroke-miterlimit="10" stroke-linejoin="miter" fill="none" stroke="#ffffff" d="M3978.8 7927.2 4268.6 8004.9 4388.1 8451 4551.4 8287.7 4774.5 8347.5 4447.9 8674.1 4235.8 8886.2 3946 8808.6 3499.9 8689 3663.2 8525.7 3886.2 8585.5 3766.7 8139.3Z"/>
<path transform="matrix(.1,0,0,-.1,0,792)" stroke-width="70" stroke-linecap="butt" stroke-miterlimit="10" stroke-linejoin="miter" fill="none" stroke="#ffffff" d="M2819.7 7927.2 3064.7 8172.2 2975 8506.8 2923.2 8313.6 2730.1 8261.8 2871.5 8120.4Z"/>
<path transform="matrix(.1,0,0,-.1,0,792)" stroke-width="70" stroke-linecap="butt" stroke-miterlimit="10" stroke-linejoin="miter" fill="none" stroke="#ffffff" d="M812.102 7927.2 760.301 8120.4 901.699 8261.8 708.5 8313.6 656.801 8506.8 567.102 8172.2Z"/>
<path transform="matrix(.1,0,0,-.1,0,792)" d="M812.102 434.602 670.602 293.199 477.5 344.898 529.199 151.801 387.801 10.3008 722.398 100" fill="#c76659"/>
<path transform="matrix(.1,0,0,-.1,0,792)" stroke-width="70" stroke-linecap="butt" stroke-miterlimit="10" stroke-linejoin="miter" fill="none" stroke="#ffffff" d="M812.102 434.602 670.602 293.199 477.5 344.898 529.199 151.801 387.801 10.3008 722.398 100Z"/>
<path transform="matrix(.1,0,0,-.1,0,792)" d="M1971.2 434.602 1681.4 357 1561.9-89.1992 1398.6 74.1016 1175.5 14.3008 1502.1-312.301 1714.2-524.398 2004-446.699 2450.1-327.199 2286.8-163.898 2063.8-223.699 2183.3 222.5" fill="#999999"/>
<path transform="matrix(.1,0,0,-.1,0,792)" stroke-width="70" stroke-linecap="butt" stroke-miterlimit="10" stroke-linejoin="miter" fill="none" stroke="#ffffff" d="M1971.2 434.602 1681.4 357 1561.9-89.1992 1398.6 74.1016 1175.5 14.3008 1502.1-312.301 1714.2-524.398 2004-446.699 2450.1-327.199 2286.8-163.898 2063.8-223.699 2183.3 222.5Z"/>
<path transform="matrix(.1,0,0,-.1,0,792)" d="M3130.3 434.602 2885.3 189.602 2975-145 3026.8 48.1992 3219.9 100 3078.5 241.398" fill="#c76659"/>
<path transform="matrix(.1,0,0,-.1,0,792)" stroke-width="70" stroke-linecap="butt" stroke-miterlimit="10" stroke-linejoin="miter" fill="none" stroke="#ffffff" d="M3130.3 434.602 2885.3 189.602 2975-145 3026.8 48.1992 3219.9 100 3078.5 241.398Z"/>
<path transform="matrix(.1,0,0,-.1,0,792)" d="M5137.9 434.602 5189.7 241.398 5048.3 100 5241.5 48.1992 5293.2-145 5382.9 189.602" fill="#c76659"/>
<path transform="matrix(.1,0,0,-.1,0,792)" stroke-width="70" stroke-linecap="butt" stroke-miterlimit="10" stroke-linejoin="miter" fill="none" stroke="#ffffff" d="M5137.9 434.602 5189.7 241.398 5048.3 100 5241.5 48.1992 5293.2-145 5382.9 189.602Z"/>
<path transform="matrix(.1,0,0,-.1,0,792)" stroke-width="70" stroke-linecap="butt" stroke-miterlimit="10" stroke-linejoin="miter" fill="none" stroke="#ffffff" d="M5472.5 8016.9 5807.1 7927.2 5896.8 8261.8 5755.4 8403.2 5562.2 8351.5 5420.8 8210.1Z"/>
<path transform="matrix(.1,0,0,-.1,0,792)" d="M187.699 3434-24.3984 3646.2-351 3972.8-410.801 3749.7-247.5 3586.4-693.699 3466.9-771.301 3177.1-559.199 2965-113 3084.5-172.801 2861.4-9.5 2698.1 110 3144.3" fill="#999999"/>
<path transform="matrix(.1,0,0,-.1,0,792)" stroke-width="70" stroke-linecap="butt" stroke-miterlimit="10" stroke-linejoin="miter" fill="none" stroke="#ffffff" d="M187.699 3434-24.3984 3646.2-351 3972.8-410.801 3749.7-247.5 3586.4-693.699 3466.9-771.301 3177.1-559.199 2965-113 3084.5-172.801 2861.4-9.5 2698.1 110 3144.3Z"/>
<path transform="matrix(.1,0,0,-.1,0,792)" d="M5762.3 4927.8 5974.4 4715.6 6301 4389 6360.8 4612.1 6197.5 4775.4 6643.7 4894.9 6721.3 5184.7 6509.2 5396.9 6063 5277.3 6122.8 5500.4 5959.5 5663.7 5840 5217.5" fill="#999999"/>
<path transform="matrix(.1,0,0,-.1,0,792)" stroke-width="70" stroke-linecap="butt" stroke-miterlimit="10" stroke-linejoin="miter" fill="none" stroke="#ffffff" d="M5762.3 4927.8 5974.4 4715.6 6301 4389 6360.8 4612.1 6197.5 4775.4 6643.7 4894.9 6721.3 5184.7 6509.2 5396.9 6063 5277.3 6122.8 5500.4 5959.5 5663.7 5840 5217.5Z"/>
<path transform="matrix(.1,0,0,-.1,0,792)" d="M477.5 344.898 142.898 434.602 53.1992 100 194.602-41.3984 387.801 10.3008 529.199 151.801" fill="#999999"/>
<path transform="matrix(.1,0,0,-.1,0,792)" stroke-width="70" stroke-linecap="butt" stroke-miterlimit="10" stroke-linejoin="miter" fill="none" stroke="#ffffff" d="M477.5 344.898 142.898 434.602 53.1992 100 194.602-41.3984 387.801 10.3008 529.199 151.801Z"/>
<path transform="matrix(.1,0,0,-.1,0,792)" d="M142.898 434.602-50.3008 486.398-191.801 344.898 53.1992 100Z" fill="#cc3333"/>
<path transform="matrix(.1,0,0,-.1,0,792)" stroke-width="70" stroke-linecap="butt" stroke-miterlimit="10" stroke-linejoin="miter" fill="none" stroke="#ffffff" d="M142.898 434.602-50.3008 486.398-191.801 344.898 53.1992 100Z"/>
<path transform="matrix(.1,0,0,-.1,0,792)" d="M5807.1 6098.9 6345.9 5560.2 6122.8 5500.4 6063 5277.3 6509.2 5396.9 6721.3 5184.7 6799 5474.5 7245.1 5594 7081.8 5757.3 6858.7 5697.6 7055.9 6433.5 6721.3 6343.8 6476.4 6098.9 6740.3 6028.2 6617.8 5571.1 6283.2 5905.7 6476.4 6098.9 6141.8 6188.5" fill="#c76659"/>
<path transform="matrix(.1,0,0,-.1,0,792)" stroke-width="70" stroke-linecap="butt" stroke-miterlimit="10" stroke-linejoin="miter" fill="none" stroke="#ffffff" d="M5807.1 6098.9 6345.9 5560.2 6122.8 5500.4 6063 5277.3 6509.2 5396.9 6721.3 5184.7 6799 5474.5 7245.1 5594 7081.8 5757.3 6858.7 5697.6 7055.9 6433.5 6721.3 6343.8 6476.4 6098.9 6740.3 6028.2 6617.8 5571.1 6283.2 5905.7 6476.4 6098.9 6141.8 6188.5Z"/>
<path transform="matrix(.1,0,0,-.1,0,792)" d="M5807.1 6768.1 5896.8 6433.5 6141.8 6678.4 6000.3 6819.9Z" fill="#cc3333"/>
<path transform="matrix(.1,0,0,-.1,0,792)" stroke-width="70" stroke-linecap="butt" stroke-miterlimit="10" stroke-linejoin="miter" fill="none" stroke="#ffffff" d="M5807.1 6768.1 5896.8 6433.5 6141.8 6678.4 6000.3 6819.9Z"/>
<path transform="matrix(.1,0,0,-.1,0,792)" d="M5807.1 7927.2 6000.3 7875.4 6141.8 8016.9 5896.8 8261.8Z" fill="#cc3333"/>
<path transform="matrix(.1,0,0,-.1,0,792)" stroke-width="70" stroke-linecap="butt" stroke-miterlimit="10" stroke-linejoin="miter" fill="none" stroke="#ffffff" d="M5807.1 7927.2 6000.3 7875.4 6141.8 8016.9 5896.8 8261.8Z"/>
<path transform="matrix(.1,0,0,-.1,0,792)" d="M142.898 2262.9-395.898 2801.7-172.801 2861.4-113 3084.5-559.199 2965-771.301 3177.1-849 2887.3-1295.1 2767.8-1131.8 2604.5-908.699 2664.2-1105.9 1928.3-771.301 2018-526.398 2262.9-790.301 2333.6-667.801 2790.7-333.199 2456.1-526.398 2262.9-191.801 2173.3" fill="#c76659"/>
<path transform="matrix(.1,0,0,-.1,0,792)" stroke-width="70" stroke-linecap="butt" stroke-miterlimit="10" stroke-linejoin="miter" fill="none" stroke="#ffffff" d="M142.898 2262.9-395.898 2801.7-172.801 2861.4-113 3084.5-559.199 2965-771.301 3177.1-849 2887.3-1295.1 2767.8-1131.8 2604.5-908.699 2664.2-1105.9 1928.3-771.301 2018-526.398 2262.9-790.301 2333.6-667.801 2790.7-333.199 2456.1-526.398 2262.9-191.801 2173.3Z"/>
<path transform="matrix(.1,0,0,-.1,0,792)" d="M142.898 1593.7 53.1992 1928.3-191.801 1683.4-50.3008 1541.9Z" fill="#cc3333"/>
<path transform="matrix(.1,0,0,-.1,0,792)" stroke-width="70" stroke-linecap="butt" stroke-miterlimit="10" stroke-linejoin="miter" fill="none" stroke="#ffffff" d="M142.898 1593.7 53.1992 1928.3-191.801 1683.4-50.3008 1541.9Z"/>
<path transform="matrix(.1,0,0,-.1,0,792)" d="M1458.3 297.199 722.398 100 525.199-635.898 748.301-576.199 808.102-353.102 1134.7-679.699 1424.4-602 1502.1-312.301 1175.5 14.3008 1398.6 74.1016" fill="#999999"/>
<path transform="matrix(.1,0,0,-.1,0,792)" stroke-width="70" stroke-linecap="butt" stroke-miterlimit="10" stroke-linejoin="miter" fill="none" stroke="#ffffff" d="M1458.3 297.199 722.398 100 525.199-635.898 748.301-576.199 808.102-353.102 1134.7-679.699 1424.4-602 1502.1-312.301 1175.5 14.3008 1398.6 74.1016Z"/>
<path transform="matrix(.1,0,0,-.1,0,792)" d="M3554.6 189.602 3219.9 100 3464.9-145 3606.3-3.5Z" fill="#cc3333"/>
<path transform="matrix(.1,0,0,-.1,0,792)" stroke-width="70" stroke-linecap="butt" stroke-miterlimit="10" stroke-linejoin="miter" fill="none" stroke="#ffffff" d="M3554.6 189.602 3219.9 100 3464.9-145 3606.3-3.5Z"/>
<path transform="matrix(.1,0,0,-.1,0,792)" d="M4713.7 189.602 4661.9-3.5 4803.3-145 5048.3 100Z" fill="#cc3333"/>
<path transform="matrix(.1,0,0,-.1,0,792)" stroke-width="70" stroke-linecap="butt" stroke-miterlimit="10" stroke-linejoin="miter" fill="none" stroke="#ffffff" d="M4713.7 189.602 4661.9-3.5 4803.3-145 5048.3 100Z"/>
<path transform="matrix(.1,0,0,-.1,0,792)" d="M5382.9 189.602 5293.2-145 5382.9-479.602 5576.1-286.398 5910.7-621 5453.6-743.5 5382.9-479.602 5137.9-724.5 5048.3-1059.1 5784.2-861.898 5724.4-1085 5887.7-1248.3 6007.3-802.199 6297-724.5 6084.9-512.398 6204.5-66.1992 5981.4-126 5921.6-349.102" fill="#c76659"/>
<path transform="matrix(.1,0,0,-.1,0,792)" stroke-width="70" stroke-linecap="butt" stroke-miterlimit="10" stroke-linejoin="miter" fill="none" stroke="#ffffff" d="M5382.9 189.602 5293.2-145 5382.9-479.602 5576.1-286.398 5910.7-621 5453.6-743.5 5382.9-479.602 5137.9-724.5 5048.3-1059.1 5784.2-861.898 5724.4-1085 5887.7-1248.3 6007.3-802.199 6297-724.5 6084.9-512.398 6204.5-66.1992 5981.4-126 5921.6-349.102Z"/>
<path transform="matrix(.1,0,0,-.1,0,792)" d="M5896.8 6433.5 5948.6 6240.3 6141.8 6188.5 6334.9 6240.3 6386.7 6433.5 6141.8 6678.4" fill="#999999"/>
<path transform="matrix(.1,0,0,-.1,0,792)" stroke-width="70" stroke-linecap="butt" stroke-miterlimit="10" stroke-linejoin="miter" fill="none" stroke="#ffffff" d="M5896.8 6433.5 5948.6 6240.3 6141.8 6188.5 6334.9 6240.3 6386.7 6433.5 6141.8 6678.4Z"/>
<path transform="matrix(.1,0,0,-.1,0,792)" d="M53.1992 1928.3 1.39844 2121.5-191.801 2173.3-384.898 2121.5-436.699 1928.3-191.801 1683.4" fill="#999999"/>
<path transform="matrix(.1,0,0,-.1,0,792)" stroke-width="70" stroke-linecap="butt" stroke-miterlimit="10" stroke-linejoin="miter" fill="none" stroke="#ffffff" d="M53.1992 1928.3 1.39844 2121.5-191.801 2173.3-384.898 2121.5-436.699 1928.3-191.801 1683.4Z"/>
<path transform="matrix(.1,0,0,-.1,0,792)" d="M53.1992 100 1.39844-93.1992-191.801-145 142.898-234.602 387.801 10.3008 194.602-41.3984" fill="#c76659"/>
<path transform="matrix(.1,0,0,-.1,0,792)" stroke-width="70" stroke-linecap="butt" stroke-miterlimit="10" stroke-linejoin="miter" fill="none" stroke="#ffffff" d="M53.1992 100 1.39844-93.1992-191.801-145 142.898-234.602 387.801 10.3008 194.602-41.3984Z"/>
<path transform="matrix(.1,0,0,-.1,0,792)" d="M53.1992 100-191.801 344.898-436.699 100-384.898-93.1992-191.801-145 1.39844-93.1992" fill="#999999"/>
<path transform="matrix(.1,0,0,-.1,0,792)" stroke-width="70" stroke-linecap="butt" stroke-miterlimit="10" stroke-linejoin="miter" fill="none" stroke="#ffffff" d="M53.1992 100-191.801 344.898-436.699 100-384.898-93.1992-191.801-145 1.39844-93.1992Z"/>
<path transform="matrix(.1,0,0,-.1,0,792)" d="M722.398 100 387.801 10.3008 142.898-234.602 406.801-305.301 284.301-762.398-50.3008-427.801 142.898-234.602-191.801-145-526.398-234.602 12.3984-773.301-210.699-833.102-270.5-1056.2 175.699-936.602 387.801-1148.8 465.5-859 911.602-739.5 748.301-576.199 525.199-635.898" fill="#c76659"/>
<path transform="matrix(.1,0,0,-.1,0,792)" stroke-width="70" stroke-linecap="butt" stroke-miterlimit="10" stroke-linejoin="miter" fill="none" stroke="#ffffff" d="M722.398 100 387.801 10.3008 142.898-234.602 406.801-305.301 284.301-762.398-50.3008-427.801 142.898-234.602-191.801-145-526.398-234.602 12.3984-773.301-210.699-833.102-270.5-1056.2 175.699-936.602 387.801-1148.8 465.5-859 911.602-739.5 748.301-576.199 525.199-635.898Z"/>
<path transform="matrix(.1,0,0,-.1,0,792)" d="M3219.9 100 3026.8 48.1992 2975-145 3026.8-338.102 3219.9-389.898 3464.9-145" fill="#999999"/>
<path transform="matrix(.1,0,0,-.1,0,792)" stroke-width="70" stroke-linecap="butt" stroke-miterlimit="10" stroke-linejoin="miter" fill="none" stroke="#ffffff" d="M3219.9 100 3026.8 48.1992 2975-145 3026.8-338.102 3219.9-389.898 3464.9-145Z"/>
<path transform="matrix(.1,0,0,-.1,0,792)" d="M5048.3 100 4803.3-145 5048.3-389.898 5241.5-338.102 5293.2-145 5241.5 48.1992" fill="#999999"/>
<path transform="matrix(.1,0,0,-.1,0,792)" stroke-width="70" stroke-linecap="butt" stroke-miterlimit="10" stroke-linejoin="miter" fill="none" stroke="#ffffff" d="M5048.3 100 4803.3-145 5048.3-389.898 5241.5-338.102 5293.2-145 5241.5 48.1992Z"/>
<path transform="matrix(.1,0,0,-.1,0,792)" d="M2346.6 59.1992 2286.8-163.898 2450.1-327.199 2004-446.699 1926.4-736.5 2138.5-948.699 2584.6-829.102 2524.9-1052.2 2688.2-1215.5 2885.3-479.602" fill="#999999"/>
<path transform="matrix(.1,0,0,-.1,0,792)" stroke-width="70" stroke-linecap="butt" stroke-miterlimit="10" stroke-linejoin="miter" fill="none" stroke="#ffffff" d="M2346.6 59.1992 2286.8-163.898 2450.1-327.199 2004-446.699 1926.4-736.5 2138.5-948.699 2584.6-829.102 2524.9-1052.2 2688.2-1215.5 2885.3-479.602Z"/>
<path transform="matrix(.1,0,0,-.1,0,792)" d="M5818.1 37.3008 5981.4-126 6204.5-66.1992 6084.9-512.398 6297-724.5 6586.8-646.898 6706.4-200.699 6869.7-364 7092.7-304.301 6766.1 22.3008 6554 234.5 6264.2 156.801" fill="#999999"/>
<path transform="matrix(.1,0,0,-.1,0,792)" stroke-width="70" stroke-linecap="butt" stroke-miterlimit="10" stroke-linejoin="miter" fill="none" stroke="#ffffff" d="M5818.1 37.3008 5981.4-126 6204.5-66.1992 6084.9-512.398 6297-724.5 6586.8-646.898 6706.4-200.699 6869.7-364 7092.7-304.301 6766.1 22.3008 6554 234.5 6264.2 156.801Z"/>
<path transform="matrix(.1,0,0,-.1,0,792)" d="M6052.1 2687.2 6297 2442.2 6245.3 2635.4 6386.7 2776.8 6193.5 2828.6 6141.8 3021.8" fill="#c76659"/>
<path transform="matrix(.1,0,0,-.1,0,792)" stroke-width="70" stroke-linecap="butt" stroke-miterlimit="10" stroke-linejoin="miter" fill="none" stroke="#ffffff" d="M6052.1 2687.2 6297 2442.2 6245.3 2635.4 6386.7 2776.8 6193.5 2828.6 6141.8 3021.8Z"/>
<path transform="matrix(.1,0,0,-.1,0,792)" d="M6052.1 3356.4 6141.8 3021.8 6193.5 3215 6386.7 3266.7 6245.3 3408.2 6297 3601.3" fill="#c76659"/>
<path transform="matrix(.1,0,0,-.1,0,792)" stroke-width="70" stroke-linecap="butt" stroke-miterlimit="10" stroke-linejoin="miter" fill="none" stroke="#ffffff" d="M6052.1 3356.4 6141.8 3021.8 6193.5 3215 6386.7 3266.7 6245.3 3408.2 6297 3601.3Z"/>
<path transform="matrix(.1,0,0,-.1,0,792)" stroke-width="70" stroke-linecap="butt" stroke-miterlimit="10" stroke-linejoin="miter" fill="none" stroke="#ffffff" d="M6129.7 658.699 6341.9 446.602 6264.2 156.801 6554 234.5 6766.1 22.3008 6843.8 312.102 7133.6 389.801 6921.4 601.898 6999.1 891.699 6709.3 814 6497.2 1026.2 6419.5 736.398Z"/>
<path transform="matrix(.1,0,0,-.1,0,792)" stroke-width="70" stroke-linecap="butt" stroke-miterlimit="10" stroke-linejoin="miter" fill="none" stroke="#ffffff" d="M6141.8 3021.8 6193.5 2828.6 6386.7 2776.8 6631.6 3021.8 6386.7 3266.7 6193.5 3215Z"/>
<path transform="matrix(.1,0,0,-.1,0,792)" stroke-width="70" stroke-linecap="butt" stroke-miterlimit="10" stroke-linejoin="miter" fill="none" stroke="#ffffff" d="M6141.8 6188.5 6476.4 6098.9 6721.3 6343.8 6528.1 6292.1 6386.7 6433.5 6334.9 6240.3Z"/>
<path transform="matrix(.1,0,0,-.1,0,792)" stroke-width="70" stroke-linecap="butt" stroke-miterlimit="10" stroke-linejoin="miter" fill="none" stroke="#ffffff" d="M6141.8 6678.4 6386.7 6433.5 6476.4 6768.1 6283.2 6819.9Z"/>
<path transform="matrix(.1,0,0,-.1,0,792)" stroke-width="70" stroke-linecap="butt" stroke-miterlimit="10" stroke-linejoin="miter" fill="none" stroke="#ffffff" d="M6141.8 8016.9 6283.2 7875.4 6476.4 7927.2 6386.7 8261.8Z"/>
</svg>
