<svg xmlns="http://www.w3.org/2000/svg" xmlns:xlink="http://www.w3.org/1999/xlink" xmlns:inkscape="http://www.inkscape.org/namespaces/inkscape" version="1.1" width="595" height="842" viewBox="0 0 595 842">
<path transform="matrix(1,0,0,-1,0,842)" d="M243.75 358.93 269.73 343.93 321.69 373.93 295.71 358.93 321.69 343.93 347.67 358.93V418.93 388.93L373.65 403.93V433.93L321.69 463.93 347.67 448.93V478.93L321.69 493.93 269.73 463.93 295.71 478.93 269.73 493.93 243.75 478.93V418.93 448.93L217.77 433.93V403.93L269.73 373.93 243.75 388.93Z" fill="#404285"/>
<path transform="matrix(1,0,0,-1,0,842)" stroke-width="10" stroke-linecap="butt" stroke-miterlimit="10" stroke-linejoin="miter" fill="none" stroke="#ffffff" d="M243.75 358.93 269.73 343.93 321.69 373.93 295.71 358.93 321.69 343.93 347.67 358.93V418.93 388.93L373.65 403.93V433.93L321.69 463.93 347.67 448.93V478.93L321.69 493.93 269.73 463.93 295.71 478.93 269.73 493.93 243.75 478.93V418.93 448.93L217.77 433.93V403.93L269.73 373.93 243.75 388.93Z"/>
<path transform="matrix(1,0,0,-1,0,842)" d="M295.71 478.93 321.69 493.93 295.71 508.93 269.73 493.93Z" fill="#823d24"/>
<path transform="matrix(1,0,0,-1,0,842)" stroke-width="10" stroke-linecap="butt" stroke-miterlimit="10" stroke-linejoin="miter" fill="none" stroke="#ffffff" d="M295.71 478.93 321.69 493.93 295.71 508.93 269.73 493.93Z"/>
<path transform="matrix(1,0,0,-1,0,842)" d="M295.71 358.93 269.73 343.93 295.71 328.93 321.69 343.93Z" fill="#823d24"/>
<path transform="matrix(1,0,0,-1,0,842)" stroke-width="10" stroke-linecap="butt" stroke-miterlimit="10" stroke-linejoin="miter" fill="none" stroke="#ffffff" d="M295.71 358.93 269.73 343.93 295.71 328.93 321.69 343.93Z"/>
<path transform="matrix(1,0,0,-1,0,842)" d="M347.67 388.93V358.93L373.65 373.93V403.93Z" fill="#823d24"/>
<path transform="matrix(1,0,0,-1,0,842)" stroke-width="10" stroke-linecap="butt" stroke-miterlimit="10" stroke-linejoin="miter" fill="none" stroke="#ffffff" d="M347.67 388.93V358.93L373.65 373.93V403.93Z"/>
<path transform="matrix(1,0,0,-1,0,842)" d="M347.67 448.93 373.65 433.93V463.93L347.67 478.93Z" fill="#823d24"/>
<path transform="matrix(1,0,0,-1,0,842)" stroke-width="10" stroke-linecap="butt" stroke-miterlimit="10" stroke-linejoin="miter" fill="none" stroke="#ffffff" d="M347.67 448.93 373.65 433.93V463.93L347.67 478.93Z"/>
<path transform="matrix(1,0,0,-1,0,842)" d="M347.67 478.93V508.93L321.69 493.93Z" fill="#009c85"/>
<path transform="matrix(1,0,0,-1,0,842)" stroke-width="10" stroke-linecap="butt" stroke-miterlimit="10" stroke-linejoin="miter" fill="none" stroke="#ffffff" d="M347.67 478.93V508.93L321.69 493.93Z"/>
<path transform="matrix(1,0,0,-1,0,842)" d="M347.67 478.93 399.63 448.93 373.65 463.93V433.93L399.63 418.93 451.59 448.93 425.61 433.93 451.59 418.93 477.57 433.93V493.93 463.93L503.55 478.93V508.93L451.59 538.93 477.57 523.93V553.93L451.59 568.93 399.63 538.93 425.61 553.93 399.63 568.93 373.65 553.93V493.93 523.93L347.67 508.93Z" fill="#404285"/>
<path transform="matrix(1,0,0,-1,0,842)" stroke-width="10" stroke-linecap="butt" stroke-miterlimit="10" stroke-linejoin="miter" fill="none" stroke="#ffffff" d="M347.67 478.93 399.63 448.93 373.65 463.93V433.93L399.63 418.93 451.59 448.93 425.61 433.93 451.59 418.93 477.57 433.93V493.93 463.93L503.55 478.93V508.93L451.59 538.93 477.57 523.93V553.93L451.59 568.93 399.63 538.93 425.61 553.93 399.63 568.93 373.65 553.93V493.93 523.93L347.67 508.93Z"/>
<path transform="matrix(1,0,0,-1,0,842)" d="M269.73 493.93 243.75 508.93V478.93Z" fill="#009c85"/>
<path transform="matrix(1,0,0,-1,0,842)" stroke-width="10" stroke-linecap="butt" stroke-miterlimit="10" stroke-linejoin="miter" fill="none" stroke="#ffffff" d="M269.73 493.93 243.75 508.93V478.93Z"/>
<path transform="matrix(1,0,0,-1,0,842)" d="M269.73 493.93 321.69 523.93 295.71 508.93 321.69 493.93 347.67 508.93V568.93 538.93L373.65 553.93V583.93L321.69 613.93 347.67 598.93V628.93L321.69 643.93 269.73 613.93 295.71 628.93 269.73 643.93 243.75 628.93V568.93 598.93L217.77 583.93V553.93L269.73 523.93 243.75 538.93V508.93Z" fill="#404285"/>
<path transform="matrix(1,0,0,-1,0,842)" stroke-width="10" stroke-linecap="butt" stroke-miterlimit="10" stroke-linejoin="miter" fill="none" stroke="#ffffff" d="M269.73 493.93 321.69 523.93 295.71 508.93 321.69 493.93 347.67 508.93V568.93 538.93L373.65 553.93V583.93L321.69 613.93 347.67 598.93V628.93L321.69 643.93 269.73 613.93 295.71 628.93 269.73 643.93 243.75 628.93V568.93 598.93L217.77 583.93V553.93L269.73 523.93 243.75 538.93V508.93Z"/>
<path transform="matrix(1,0,0,-1,0,842)" d="M243.75 448.93V478.93L217.77 463.93V433.93Z" fill="#823d24"/>
<path transform="matrix(1,0,0,-1,0,842)" stroke-width="10" stroke-linecap="butt" stroke-miterlimit="10" stroke-linejoin="miter" fill="none" stroke="#ffffff" d="M243.75 448.93V478.93L217.77 463.93V433.93Z"/>
<path transform="matrix(1,0,0,-1,0,842)" d="M243.75 388.93 217.77 403.93V373.93L243.75 358.93Z" fill="#823d24"/>
<path transform="matrix(1,0,0,-1,0,842)" stroke-width="10" stroke-linecap="butt" stroke-miterlimit="10" stroke-linejoin="miter" fill="none" stroke="#ffffff" d="M243.75 388.93 217.77 403.93V373.93L243.75 358.93Z"/>
<path transform="matrix(1,0,0,-1,0,842)" d="M243.75 358.93V328.93L269.73 343.93Z" fill="#009c85"/>
<path transform="matrix(1,0,0,-1,0,842)" stroke-width="10" stroke-linecap="butt" stroke-miterlimit="10" stroke-linejoin="miter" fill="none" stroke="#ffffff" d="M243.75 358.93V328.93L269.73 343.93Z"/>
<path transform="matrix(1,0,0,-1,0,842)" d="M243.75 358.93 191.79 388.93 217.77 373.93V403.93L191.79 418.93 165.8 403.93 139.82 388.93 165.8 403.93 139.82 418.93 113.84 403.93V343.93 373.93L87.86 358.93V328.93L139.82 298.93 113.84 313.93V283.93L139.82 268.93 165.8 283.93 191.79 298.93 165.8 283.93 191.79 268.93 217.77 283.93V343.93 313.93L243.75 328.93Z" fill="#404285"/>
<path transform="matrix(1,0,0,-1,0,842)" stroke-width="10" stroke-linecap="butt" stroke-miterlimit="10" stroke-linejoin="miter" fill="none" stroke="#ffffff" d="M243.75 358.93 191.79 388.93 217.77 373.93V403.93L191.79 418.93 165.8 403.93 139.82 388.93 165.8 403.93 139.82 418.93 113.84 403.93V343.93 373.93L87.86 358.93V328.93L139.82 298.93 113.84 313.93V283.93L139.82 268.93 165.8 283.93 191.79 298.93 165.8 283.93 191.79 268.93 217.77 283.93V343.93 313.93L243.75 328.93Z"/>
<path transform="matrix(1,0,0,-1,0,842)" d="M321.69 343.93 347.67 328.93V358.93Z" fill="#009c85"/>
<path transform="matrix(1,0,0,-1,0,842)" stroke-width="10" stroke-linecap="butt" stroke-miterlimit="10" stroke-linejoin="miter" fill="none" stroke="#ffffff" d="M321.69 343.93 347.67 328.93V358.93Z"/>
<path transform="matrix(1,0,0,-1,0,842)" d="M321.69 343.93 269.73 313.93 295.71 328.93 269.73 343.93 243.75 328.93V268.93 298.93L217.77 283.93V253.93L269.73 223.93 243.75 238.93V208.93L269.73 193.93 321.69 223.93 295.71 208.93 321.69 193.93 347.67 208.93V268.93 238.93L373.65 253.93V283.93L321.69 313.93 347.67 298.93V328.93Z" fill="#404285"/>
<path transform="matrix(1,0,0,-1,0,842)" stroke-width="10" stroke-linecap="butt" stroke-miterlimit="10" stroke-linejoin="miter" fill="none" stroke="#ffffff" d="M321.69 343.93 269.73 313.93 295.71 328.93 269.73 343.93 243.75 328.93V268.93 298.93L217.77 283.93V253.93L269.73 223.93 243.75 238.93V208.93L269.73 193.93 321.69 223.93 295.71 208.93 321.69 193.93 347.67 208.93V268.93 238.93L373.65 253.93V283.93L321.69 313.93 347.67 298.93V328.93Z"/>
<path transform="matrix(1,0,0,-1,0,842)" d="M243.75 508.93 191.79 538.93 217.77 523.93V553.93L191.79 568.93 165.8 553.93 139.82 538.93 165.8 553.93 139.82 568.93 113.84 553.93V493.93 523.93L87.86 508.93V478.93L139.82 448.93 113.84 463.93V433.93L139.82 418.93 165.8 433.93 191.79 448.93 165.8 433.93 191.79 418.93 217.77 433.93V493.93 463.93L243.75 478.93Z" fill="#404285"/>
<path transform="matrix(1,0,0,-1,0,842)" stroke-width="10" stroke-linecap="butt" stroke-miterlimit="10" stroke-linejoin="miter" fill="none" stroke="#ffffff" d="M243.75 508.93 191.79 538.93 217.77 523.93V553.93L191.79 568.93 165.8 553.93 139.82 538.93 165.8 553.93 139.82 568.93 113.84 553.93V493.93 523.93L87.86 508.93V478.93L139.82 448.93 113.84 463.93V433.93L139.82 418.93 165.8 433.93 191.79 448.93 165.8 433.93 191.79 418.93 217.77 433.93V493.93 463.93L243.75 478.93Z"/>
<path transform="matrix(1,0,0,-1,0,842)" d="M347.67 328.93 399.63 298.93 373.65 313.93V283.93L399.63 268.93 451.59 298.93 425.61 283.93 451.59 268.93 477.57 283.93V343.93 313.93L503.55 328.93V358.93L451.59 388.93 477.57 373.93V403.93L451.59 418.93 399.63 388.93 425.61 403.93 399.63 418.93 373.65 403.93V343.93 373.93L347.67 358.93Z" fill="#404285"/>
<path transform="matrix(1,0,0,-1,0,842)" stroke-width="10" stroke-linecap="butt" stroke-miterlimit="10" stroke-linejoin="miter" fill="none" stroke="#ffffff" d="M347.67 328.93 399.63 298.93 373.65 313.93V283.93L399.63 268.93 451.59 298.93 425.61 283.93 451.59 268.93 477.57 283.93V343.93 313.93L503.55 328.93V358.93L451.59 388.93 477.57 373.93V403.93L451.59 418.93 399.63 388.93 425.61 403.93 399.63 418.93 373.65 403.93V343.93 373.93L347.67 358.93Z"/>
<path transform="matrix(1,0,0,-1,0,842)" d="M373.65 403.93 399.63 418.93 373.65 433.93Z" fill="#009c85"/>
<path transform="matrix(1,0,0,-1,0,842)" stroke-width="10" stroke-linecap="butt" stroke-miterlimit="10" stroke-linejoin="miter" fill="none" stroke="#ffffff" d="M373.65 403.93 399.63 418.93 373.65 433.93Z"/>
<path transform="matrix(1,0,0,-1,0,842)" d="M373.65 523.93V553.93L347.67 538.93V508.93Z" fill="#823d24"/>
<path transform="matrix(1,0,0,-1,0,842)" stroke-width="10" stroke-linecap="butt" stroke-miterlimit="10" stroke-linejoin="miter" fill="none" stroke="#ffffff" d="M373.65 523.93V553.93L347.67 538.93V508.93Z"/>
<path transform="matrix(1,0,0,-1,0,842)" d="M373.65 313.93 347.67 328.93V298.93L373.65 283.93Z" fill="#823d24"/>
<path transform="matrix(1,0,0,-1,0,842)" stroke-width="10" stroke-linecap="butt" stroke-miterlimit="10" stroke-linejoin="miter" fill="none" stroke="#ffffff" d="M373.65 313.93 347.67 328.93V298.93L373.65 283.93Z"/>
<path transform="matrix(1,0,0,-1,0,842)" d="M217.77 523.93 243.75 508.93V538.93L217.77 553.93Z" fill="#823d24"/>
<path transform="matrix(1,0,0,-1,0,842)" stroke-width="10" stroke-linecap="butt" stroke-miterlimit="10" stroke-linejoin="miter" fill="none" stroke="#ffffff" d="M217.77 523.93 243.75 508.93V538.93L217.77 553.93Z"/>
<path transform="matrix(1,0,0,-1,0,842)" d="M217.77 433.93 191.79 418.93 217.77 403.93Z" fill="#009c85"/>
<path transform="matrix(1,0,0,-1,0,842)" stroke-width="10" stroke-linecap="butt" stroke-miterlimit="10" stroke-linejoin="miter" fill="none" stroke="#ffffff" d="M217.77 433.93 191.79 418.93 217.77 403.93Z"/>
<path transform="matrix(1,0,0,-1,0,842)" d="M217.77 313.93V283.93L243.75 298.93V328.93Z" fill="#823d24"/>
<path transform="matrix(1,0,0,-1,0,842)" stroke-width="10" stroke-linecap="butt" stroke-miterlimit="10" stroke-linejoin="miter" fill="none" stroke="#ffffff" d="M217.77 313.93V283.93L243.75 298.93V328.93Z"/>
<path transform="matrix(1,0,0,-1,0,842)" d="M373.65 553.93 399.63 568.93 373.65 583.93Z" fill="#009c85"/>
<path transform="matrix(1,0,0,-1,0,842)" stroke-width="10" stroke-linecap="butt" stroke-miterlimit="10" stroke-linejoin="miter" fill="none" stroke="#ffffff" d="M373.65 553.93 399.63 568.93 373.65 583.93Z"/>
<path transform="matrix(1,0,0,-1,0,842)" d="M217.77 553.93V583.93L191.79 568.93Z" fill="#009c85"/>
<path transform="matrix(1,0,0,-1,0,842)" stroke-width="10" stroke-linecap="butt" stroke-miterlimit="10" stroke-linejoin="miter" fill="none" stroke="#ffffff" d="M217.77 553.93V583.93L191.79 568.93Z"/>
<path transform="matrix(1,0,0,-1,0,842)" d="M217.77 283.93 191.79 268.93 217.77 253.93Z" fill="#009c85"/>
<path transform="matrix(1,0,0,-1,0,842)" stroke-width="10" stroke-linecap="butt" stroke-miterlimit="10" stroke-linejoin="miter" fill="none" stroke="#ffffff" d="M217.77 283.93 191.79 268.93 217.77 253.93Z"/>
<path transform="matrix(1,0,0,-1,0,842)" d="M373.65 283.93V253.93L399.63 268.93Z" fill="#009c85"/>
<path transform="matrix(1,0,0,-1,0,842)" stroke-width="10" stroke-linecap="butt" stroke-miterlimit="10" stroke-linejoin="miter" fill="none" stroke="#ffffff" d="M373.65 283.93V253.93L399.63 268.93Z"/>
<path transform="matrix(1,0,0,-1,0,842)" d="M399.63 568.93 451.59 598.93 425.61 583.93 451.59 568.93 477.57 583.93V643.93 613.93L503.55 628.93V658.93L451.59 688.93 477.57 673.93V703.93L451.59 718.93 399.63 688.93 425.61 703.93 399.63 718.93 373.65 703.93V643.93 673.93L347.67 658.93V628.93L399.63 598.93 373.65 613.93V583.93Z" fill="#404285"/>
<path transform="matrix(1,0,0,-1,0,842)" stroke-width="10" stroke-linecap="butt" stroke-miterlimit="10" stroke-linejoin="miter" fill="none" stroke="#ffffff" d="M399.63 568.93 451.59 598.93 425.61 583.93 451.59 568.93 477.57 583.93V643.93 613.93L503.55 628.93V658.93L451.59 688.93 477.57 673.93V703.93L451.59 718.93 399.63 688.93 425.61 703.93 399.63 718.93 373.65 703.93V643.93 673.93L347.67 658.93V628.93L399.63 598.93 373.65 613.93V583.93Z"/>
<path transform="matrix(1,0,0,-1,0,842)" d="M191.79 268.93 165.8 253.93 139.82 238.93 165.8 253.93 139.82 268.93 113.84 253.93V193.93 223.93L87.86 208.93V178.93L139.82 148.93 113.84 163.93V133.93L139.82 118.93 165.8 133.93 191.79 148.93 165.8 133.93 191.79 118.93 217.77 133.93V193.93 163.93L243.75 178.93V208.93L191.79 238.93 217.77 223.93V253.93Z" fill="#404285"/>
<path transform="matrix(1,0,0,-1,0,842)" stroke-width="10" stroke-linecap="butt" stroke-miterlimit="10" stroke-linejoin="miter" fill="none" stroke="#ffffff" d="M191.79 268.93 165.8 253.93 139.82 238.93 165.8 253.93 139.82 268.93 113.84 253.93V193.93 223.93L87.86 208.93V178.93L139.82 148.93 113.84 163.93V133.93L139.82 118.93 165.8 133.93 191.79 148.93 165.8 133.93 191.79 118.93 217.77 133.93V193.93 163.93L243.75 178.93V208.93L191.79 238.93 217.77 223.93V253.93Z"/>
<path transform="matrix(1,0,0,-1,0,842)" d="M217.77 583.93V643.93 613.93L243.75 628.93V658.93L191.79 688.93 217.77 673.93V703.93L191.79 718.93 165.8 703.93 139.82 688.93 165.8 703.93 139.82 718.93 113.84 703.93V643.93 673.93L87.86 658.93V628.93L139.82 598.93 113.84 613.93V583.93L139.82 568.93 165.8 583.93 191.79 598.93 165.8 583.93 191.79 568.93Z" fill="#404285"/>
<path transform="matrix(1,0,0,-1,0,842)" stroke-width="10" stroke-linecap="butt" stroke-miterlimit="10" stroke-linejoin="miter" fill="none" stroke="#ffffff" d="M217.77 583.93V643.93 613.93L243.75 628.93V658.93L191.79 688.93 217.77 673.93V703.93L191.79 718.93 165.8 703.93 139.82 688.93 165.8 703.93 139.82 718.93 113.84 703.93V643.93 673.93L87.86 658.93V628.93L139.82 598.93 113.84 613.93V583.93L139.82 568.93 165.8 583.93 191.79 598.93 165.8 583.93 191.79 568.93Z"/>
<path transform="matrix(1,0,0,-1,0,842)" d="M373.65 253.93V193.93 223.93L347.67 208.93V178.93L399.63 148.93 373.65 163.93V133.93L399.63 118.93 451.59 148.93 425.61 133.93 451.59 118.93 477.57 133.93V193.93 163.93L503.55 178.93V208.93L451.59 238.93 477.57 223.93V253.93L451.59 268.93 399.63 238.93 425.61 253.93 399.63 268.93Z" fill="#404285"/>
<path transform="matrix(1,0,0,-1,0,842)" stroke-width="10" stroke-linecap="butt" stroke-miterlimit="10" stroke-linejoin="miter" fill="none" stroke="#ffffff" d="M373.65 253.93V193.93 223.93L347.67 208.93V178.93L399.63 148.93 373.65 163.93V133.93L399.63 118.93 451.59 148.93 425.61 133.93 451.59 118.93 477.57 133.93V193.93 163.93L503.55 178.93V208.93L451.59 238.93 477.57 223.93V253.93L451.59 268.93 399.63 238.93 425.61 253.93 399.63 268.93Z"/>
<path transform="matrix(1,0,0,-1,0,842)" d="M425.61 253.93 451.59 268.93 425.61 283.93 399.63 268.93Z" fill="#823d24"/>
<path transform="matrix(1,0,0,-1,0,842)" stroke-width="10" stroke-linecap="butt" stroke-miterlimit="10" stroke-linejoin="miter" fill="none" stroke="#ffffff" d="M425.61 253.93 451.59 268.93 425.61 283.93 399.63 268.93Z"/>
<path transform="matrix(1,0,0,-1,0,842)" d="M425.61 403.93 451.59 418.93 425.61 433.93 399.63 418.93Z" fill="#823d24"/>
<path transform="matrix(1,0,0,-1,0,842)" stroke-width="10" stroke-linecap="butt" stroke-miterlimit="10" stroke-linejoin="miter" fill="none" stroke="#ffffff" d="M425.61 403.93 451.59 418.93 425.61 433.93 399.63 418.93Z"/>
<path transform="matrix(1,0,0,-1,0,842)" d="M425.61 553.93 451.59 568.93 425.61 583.93 399.63 568.93Z" fill="#823d24"/>
<path transform="matrix(1,0,0,-1,0,842)" stroke-width="10" stroke-linecap="butt" stroke-miterlimit="10" stroke-linejoin="miter" fill="none" stroke="#ffffff" d="M425.61 553.93 451.59 568.93 425.61 583.93 399.63 568.93Z"/>
<path transform="matrix(1,0,0,-1,0,842)" d="M347.67 598.93 373.65 583.93V613.93L347.67 628.93Z" fill="#823d24"/>
<path transform="matrix(1,0,0,-1,0,842)" stroke-width="10" stroke-linecap="butt" stroke-miterlimit="10" stroke-linejoin="miter" fill="none" stroke="#ffffff" d="M347.67 598.93 373.65 583.93V613.93L347.67 628.93Z"/>
<path transform="matrix(1,0,0,-1,0,842)" d="M243.75 598.93V628.93L217.77 613.93V583.93Z" fill="#823d24"/>
<path transform="matrix(1,0,0,-1,0,842)" stroke-width="10" stroke-linecap="butt" stroke-miterlimit="10" stroke-linejoin="miter" fill="none" stroke="#ffffff" d="M243.75 598.93V628.93L217.77 613.93V583.93Z"/>
<path transform="matrix(1,0,0,-1,0,842)" d="M165.8 583.93 139.82 568.93 165.8 553.93 191.79 568.93Z" fill="#823d24"/>
<path transform="matrix(1,0,0,-1,0,842)" stroke-width="10" stroke-linecap="butt" stroke-miterlimit="10" stroke-linejoin="miter" fill="none" stroke="#ffffff" d="M165.8 583.93 139.82 568.93 165.8 553.93 191.79 568.93Z"/>
<path transform="matrix(1,0,0,-1,0,842)" d="M165.8 433.93 139.82 418.93 165.8 403.93 191.79 418.93Z" fill="#823d24"/>
<path transform="matrix(1,0,0,-1,0,842)" stroke-width="10" stroke-linecap="butt" stroke-miterlimit="10" stroke-linejoin="miter" fill="none" stroke="#ffffff" d="M165.8 433.93 139.82 418.93 165.8 403.93 191.79 418.93Z"/>
<path transform="matrix(1,0,0,-1,0,842)" d="M165.8 283.93 139.82 268.93 165.8 253.93 191.79 268.93Z" fill="#823d24"/>
<path transform="matrix(1,0,0,-1,0,842)" stroke-width="10" stroke-linecap="butt" stroke-miterlimit="10" stroke-linejoin="miter" fill="none" stroke="#ffffff" d="M165.8 283.93 139.82 268.93 165.8 253.93 191.79 268.93Z"/>
<path transform="matrix(1,0,0,-1,0,842)" d="M243.75 238.93 217.77 253.93V223.93L243.75 208.93Z" fill="#823d24"/>
<path transform="matrix(1,0,0,-1,0,842)" stroke-width="10" stroke-linecap="butt" stroke-miterlimit="10" stroke-linejoin="miter" fill="none" stroke="#ffffff" d="M243.75 238.93 217.77 253.93V223.93L243.75 208.93Z"/>
<path transform="matrix(1,0,0,-1,0,842)" d="M347.67 238.93V208.93L373.65 223.93V253.93Z" fill="#823d24"/>
<path transform="matrix(1,0,0,-1,0,842)" stroke-width="10" stroke-linecap="butt" stroke-miterlimit="10" stroke-linejoin="miter" fill="none" stroke="#ffffff" d="M347.67 238.93V208.93L373.65 223.93V253.93Z"/>
<path transform="matrix(1,0,0,-1,0,842)" d="M347.67 628.93V658.93L321.69 643.93Z" fill="#009c85"/>
<path transform="matrix(1,0,0,-1,0,842)" stroke-width="10" stroke-linecap="butt" stroke-miterlimit="10" stroke-linejoin="miter" fill="none" stroke="#ffffff" d="M347.67 628.93V658.93L321.69 643.93Z"/>
<path transform="matrix(1,0,0,-1,0,842)" d="M295.71 628.93 321.69 643.93 295.71 658.93 269.73 643.93Z" fill="#823d24"/>
<path transform="matrix(1,0,0,-1,0,842)" stroke-width="10" stroke-linecap="butt" stroke-miterlimit="10" stroke-linejoin="miter" fill="none" stroke="#ffffff" d="M295.71 628.93 321.69 643.93 295.71 658.93 269.73 643.93Z"/>
<path transform="matrix(1,0,0,-1,0,842)" d="M243.75 628.93 269.73 643.93 243.75 658.93Z" fill="#009c85"/>
<path transform="matrix(1,0,0,-1,0,842)" stroke-width="10" stroke-linecap="butt" stroke-miterlimit="10" stroke-linejoin="miter" fill="none" stroke="#ffffff" d="M243.75 628.93 269.73 643.93 243.75 658.93Z"/>
<path transform="matrix(1,0,0,-1,0,842)" d="M243.75 208.93V178.93L269.73 193.93Z" fill="#009c85"/>
<path transform="matrix(1,0,0,-1,0,842)" stroke-width="10" stroke-linecap="butt" stroke-miterlimit="10" stroke-linejoin="miter" fill="none" stroke="#ffffff" d="M243.75 208.93V178.93L269.73 193.93Z"/>
<path transform="matrix(1,0,0,-1,0,842)" d="M295.71 208.93 269.73 193.93 295.71 178.93 321.69 193.93Z" fill="#823d24"/>
<path transform="matrix(1,0,0,-1,0,842)" stroke-width="10" stroke-linecap="butt" stroke-miterlimit="10" stroke-linejoin="miter" fill="none" stroke="#ffffff" d="M295.71 208.93 269.73 193.93 295.71 178.93 321.69 193.93Z"/>
<path transform="matrix(1,0,0,-1,0,842)" d="M347.67 208.93 321.69 193.93 347.67 178.93Z" fill="#009c85"/>
<path transform="matrix(1,0,0,-1,0,842)" stroke-width="10" stroke-linecap="butt" stroke-miterlimit="10" stroke-linejoin="miter" fill="none" stroke="#ffffff" d="M347.67 208.93 321.69 193.93 347.67 178.93Z"/>
<path transform="matrix(1,0,0,-1,0,842)" d="M451.59 268.93 477.57 253.93V283.93Z" fill="#009c85"/>
<path transform="matrix(1,0,0,-1,0,842)" stroke-width="10" stroke-linecap="butt" stroke-miterlimit="10" stroke-linejoin="miter" fill="none" stroke="#ffffff" d="M451.59 268.93 477.57 253.93V283.93Z"/>
<path transform="matrix(1,0,0,-1,0,842)" d="M451.59 418.93 477.57 403.93V433.93Z" fill="#009c85"/>
<path transform="matrix(1,0,0,-1,0,842)" stroke-width="10" stroke-linecap="butt" stroke-miterlimit="10" stroke-linejoin="miter" fill="none" stroke="#ffffff" d="M451.59 418.93 477.57 403.93V433.93Z"/>
<path transform="matrix(1,0,0,-1,0,842)" d="M451.59 568.93 477.57 553.93V583.93Z" fill="#009c85"/>
<path transform="matrix(1,0,0,-1,0,842)" stroke-width="10" stroke-linecap="butt" stroke-miterlimit="10" stroke-linejoin="miter" fill="none" stroke="#ffffff" d="M451.59 568.93 477.57 553.93V583.93Z"/>
<path transform="matrix(1,0,0,-1,0,842)" d="M139.82 568.93 113.84 583.93V553.93Z" fill="#009c85"/>
<path transform="matrix(1,0,0,-1,0,842)" stroke-width="10" stroke-linecap="butt" stroke-miterlimit="10" stroke-linejoin="miter" fill="none" stroke="#ffffff" d="M139.82 568.93 113.84 583.93V553.93Z"/>
<path transform="matrix(1,0,0,-1,0,842)" d="M139.82 418.93 113.84 433.93V403.93Z" fill="#009c85"/>
<path transform="matrix(1,0,0,-1,0,842)" stroke-width="10" stroke-linecap="butt" stroke-miterlimit="10" stroke-linejoin="miter" fill="none" stroke="#ffffff" d="M139.82 418.93 113.84 433.93V403.93Z"/>
<path transform="matrix(1,0,0,-1,0,842)" d="M139.82 268.93 113.84 283.93V253.93Z" fill="#009c85"/>
<path transform="matrix(1,0,0,-1,0,842)" stroke-width="10" stroke-linecap="butt" stroke-miterlimit="10" stroke-linejoin="miter" fill="none" stroke="#ffffff" d="M139.82 268.93 113.84 283.93V253.93Z"/>
<path transform="matrix(1,0,0,-1,0,842)" d="M269.73 643.93 321.69 673.93 295.71 658.93 321.69 643.93 347.67 658.93V718.93 688.93L373.65 703.93V733.93L321.69 763.93 347.67 748.93V778.93L321.69 793.93 269.73 763.93 295.71 778.93 269.73 793.93 243.75 778.93V718.93 748.93L217.77 733.93V703.93L269.73 673.93 243.75 688.93V658.93Z" fill="#404285"/>
<path transform="matrix(1,0,0,-1,0,842)" stroke-width="10" stroke-linecap="butt" stroke-miterlimit="10" stroke-linejoin="miter" fill="none" stroke="#ffffff" d="M269.73 643.93 321.69 673.93 295.71 658.93 321.69 643.93 347.67 658.93V718.93 688.93L373.65 703.93V733.93L321.69 763.93 347.67 748.93V778.93L321.69 793.93 269.73 763.93 295.71 778.93 269.73 793.93 243.75 778.93V718.93 748.93L217.77 733.93V703.93L269.73 673.93 243.75 688.93V658.93Z"/>
<path transform="matrix(1,0,0,-1,0,842)" d="M321.69 193.93 269.73 163.93 295.71 178.93 269.73 193.93 243.75 178.93V118.93 148.93L217.77 133.93V103.93L269.73 73.93 243.75 88.93V58.93L269.73 43.93 321.69 73.93 295.71 58.93 321.69 43.93 347.67 58.93V118.93 88.93L373.65 103.93V133.93L321.69 163.93 347.67 148.93V178.93Z" fill="#404285"/>
<path transform="matrix(1,0,0,-1,0,842)" stroke-width="10" stroke-linecap="butt" stroke-miterlimit="10" stroke-linejoin="miter" fill="none" stroke="#ffffff" d="M321.69 193.93 269.73 163.93 295.71 178.93 269.73 193.93 243.75 178.93V118.93 148.93L217.77 133.93V103.93L269.73 73.93 243.75 88.93V58.93L269.73 43.93 321.69 73.93 295.71 58.93 321.69 43.93 347.67 58.93V118.93 88.93L373.65 103.93V133.93L321.69 163.93 347.67 148.93V178.93Z"/>
<path transform="matrix(1,0,0,-1,0,842)" d="M477.57 223.93 503.55 208.93V238.93L477.57 253.93Z" fill="#823d24"/>
<path transform="matrix(1,0,0,-1,0,842)" stroke-width="10" stroke-linecap="butt" stroke-miterlimit="10" stroke-linejoin="miter" fill="none" stroke="#ffffff" d="M477.57 223.93 503.55 208.93V238.93L477.57 253.93Z"/>
<path transform="matrix(1,0,0,-1,0,842)" d="M477.57 253.93 503.55 238.93 529.54 223.93 503.55 238.93V208.93L529.54 193.93 581.5 223.93 555.52 208.93 581.5 193.93 607.48 208.93V268.93 238.93L633.46 253.93V283.93L581.5 313.93 607.48 298.93V328.93L581.5 343.93 529.54 313.93 555.52 328.93 529.54 343.93 503.55 328.93V268.93 298.93L477.57 283.93Z" fill="#404285"/>
<path transform="matrix(1,0,0,-1,0,842)" stroke-width="10" stroke-linecap="butt" stroke-miterlimit="10" stroke-linejoin="miter" fill="none" stroke="#ffffff" d="M477.57 253.93 503.55 238.93 529.54 223.93 503.55 238.93V208.93L529.54 193.93 581.5 223.93 555.52 208.93 581.5 193.93 607.48 208.93V268.93 238.93L633.46 253.93V283.93L581.5 313.93 607.48 298.93V328.93L581.5 343.93 529.54 313.93 555.52 328.93 529.54 343.93 503.55 328.93V268.93 298.93L477.57 283.93Z"/>
<path transform="matrix(1,0,0,-1,0,842)" d="M477.57 313.93V283.93L503.55 298.93V328.93Z" fill="#823d24"/>
<path transform="matrix(1,0,0,-1,0,842)" stroke-width="10" stroke-linecap="butt" stroke-miterlimit="10" stroke-linejoin="miter" fill="none" stroke="#ffffff" d="M477.57 313.93V283.93L503.55 298.93V328.93Z"/>
<path transform="matrix(1,0,0,-1,0,842)" d="M477.57 373.93 503.55 358.93V388.93L477.57 403.93Z" fill="#823d24"/>
<path transform="matrix(1,0,0,-1,0,842)" stroke-width="10" stroke-linecap="butt" stroke-miterlimit="10" stroke-linejoin="miter" fill="none" stroke="#ffffff" d="M477.57 373.93 503.55 358.93V388.93L477.57 403.93Z"/>
<path transform="matrix(1,0,0,-1,0,842)" d="M477.57 403.93 503.55 388.93 529.54 373.93 503.55 388.93V358.93L529.54 343.93 581.5 373.93 555.52 358.93 581.5 343.93 607.48 358.93V418.93 388.93L633.46 403.93V433.93L581.5 463.93 607.48 448.93V478.93L581.5 493.93 529.54 463.93 555.52 478.93 529.54 493.93 503.55 478.93V418.93 448.93L477.57 433.93Z" fill="#404285"/>
<path transform="matrix(1,0,0,-1,0,842)" stroke-width="10" stroke-linecap="butt" stroke-miterlimit="10" stroke-linejoin="miter" fill="none" stroke="#ffffff" d="M477.57 403.93 503.55 388.93 529.54 373.93 503.55 388.93V358.93L529.54 343.93 581.5 373.93 555.52 358.93 581.5 343.93 607.48 358.93V418.93 388.93L633.46 403.93V433.93L581.5 463.93 607.48 448.93V478.93L581.5 493.93 529.54 463.93 555.52 478.93 529.54 493.93 503.55 478.93V418.93 448.93L477.57 433.93Z"/>
<path transform="matrix(1,0,0,-1,0,842)" d="M477.57 463.93V433.93L503.55 448.93V478.93Z" fill="#823d24"/>
<path transform="matrix(1,0,0,-1,0,842)" stroke-width="10" stroke-linecap="butt" stroke-miterlimit="10" stroke-linejoin="miter" fill="none" stroke="#ffffff" d="M477.57 463.93V433.93L503.55 448.93V478.93Z"/>
<path transform="matrix(1,0,0,-1,0,842)" d="M477.57 523.93 503.55 508.93V538.93L477.57 553.93Z" fill="#823d24"/>
<path transform="matrix(1,0,0,-1,0,842)" stroke-width="10" stroke-linecap="butt" stroke-miterlimit="10" stroke-linejoin="miter" fill="none" stroke="#ffffff" d="M477.57 523.93 503.55 508.93V538.93L477.57 553.93Z"/>
<path transform="matrix(1,0,0,-1,0,842)" d="M477.57 553.93 503.55 538.93 529.54 523.93 503.55 538.93V508.93L529.54 493.93 581.5 523.93 555.52 508.93 581.5 493.93 607.48 508.93V568.93 538.93L633.46 553.93V583.93L581.5 613.93 607.48 598.93V628.93L581.5 643.93 529.54 613.93 555.52 628.93 529.54 643.93 503.55 628.93V568.93 598.93L477.57 583.93Z" fill="#404285"/>
<path transform="matrix(1,0,0,-1,0,842)" stroke-width="10" stroke-linecap="butt" stroke-miterlimit="10" stroke-linejoin="miter" fill="none" stroke="#ffffff" d="M477.57 553.93 503.55 538.93 529.54 523.93 503.55 538.93V508.93L529.54 493.93 581.5 523.93 555.52 508.93 581.5 493.93 607.48 508.93V568.93 538.93L633.46 553.93V583.93L581.5 613.93 607.48 598.93V628.93L581.5 643.93 529.54 613.93 555.52 628.93 529.54 643.93 503.55 628.93V568.93 598.93L477.57 583.93Z"/>
<path transform="matrix(1,0,0,-1,0,842)" d="M477.57 613.93V583.93L503.55 598.93V628.93Z" fill="#823d24"/>
<path transform="matrix(1,0,0,-1,0,842)" stroke-width="10" stroke-linecap="butt" stroke-miterlimit="10" stroke-linejoin="miter" fill="none" stroke="#ffffff" d="M477.57 613.93V583.93L503.55 598.93V628.93Z"/>
<path transform="matrix(1,0,0,-1,0,842)" d="M113.84 613.93 87.86 628.93V598.93L113.84 583.93Z" fill="#823d24"/>
<path transform="matrix(1,0,0,-1,0,842)" stroke-width="10" stroke-linecap="butt" stroke-miterlimit="10" stroke-linejoin="miter" fill="none" stroke="#ffffff" d="M113.84 613.93 87.86 628.93V598.93L113.84 583.93Z"/>
<path transform="matrix(1,0,0,-1,0,842)" d="M113.84 583.93 61.88 613.93 87.86 598.93V628.93L61.88 643.93 9.92 613.93 35.9 628.93 9.92 643.93-16.06 628.93V568.93 598.93L-42.04 583.93V553.93L9.92 523.93-16.06 538.93V508.93L9.92 493.93 61.88 523.93 35.9 508.93 61.88 493.93 87.86 508.93V568.93 538.93L113.84 553.93Z" fill="#404285"/>
<path transform="matrix(1,0,0,-1,0,842)" stroke-width="10" stroke-linecap="butt" stroke-miterlimit="10" stroke-linejoin="miter" fill="none" stroke="#ffffff" d="M113.84 583.93 61.88 613.93 87.86 598.93V628.93L61.88 643.93 9.92 613.93 35.9 628.93 9.92 643.93-16.06 628.93V568.93 598.93L-42.04 583.93V553.93L9.92 523.93-16.06 538.93V508.93L9.92 493.93 61.88 523.93 35.9 508.93 61.88 493.93 87.86 508.93V568.93 538.93L113.84 553.93Z"/>
<path transform="matrix(1,0,0,-1,0,842)" d="M113.84 523.93V553.93L87.86 538.93V508.93Z" fill="#823d24"/>
<path transform="matrix(1,0,0,-1,0,842)" stroke-width="10" stroke-linecap="butt" stroke-miterlimit="10" stroke-linejoin="miter" fill="none" stroke="#ffffff" d="M113.84 523.93V553.93L87.86 538.93V508.93Z"/>
<path transform="matrix(1,0,0,-1,0,842)" d="M113.84 463.93 87.86 478.93V448.93L113.84 433.93Z" fill="#823d24"/>
<path transform="matrix(1,0,0,-1,0,842)" stroke-width="10" stroke-linecap="butt" stroke-miterlimit="10" stroke-linejoin="miter" fill="none" stroke="#ffffff" d="M113.84 463.93 87.86 478.93V448.93L113.84 433.93Z"/>
<path transform="matrix(1,0,0,-1,0,842)" d="M113.84 433.93 61.88 463.93 87.86 448.93V478.93L61.88 493.93 9.92 463.93 35.9 478.93 9.92 493.93-16.06 478.93V418.93 448.93L-42.04 433.93V403.93L9.92 373.93-16.06 388.93V358.93L9.92 343.93 61.88 373.93 35.9 358.93 61.88 343.93 87.86 358.93V418.93 388.93L113.84 403.93Z" fill="#404285"/>
<path transform="matrix(1,0,0,-1,0,842)" stroke-width="10" stroke-linecap="butt" stroke-miterlimit="10" stroke-linejoin="miter" fill="none" stroke="#ffffff" d="M113.84 433.93 61.88 463.93 87.86 448.93V478.93L61.88 493.93 9.92 463.93 35.9 478.93 9.92 493.93-16.06 478.93V418.93 448.93L-42.04 433.93V403.93L9.92 373.93-16.06 388.93V358.93L9.92 343.93 61.88 373.93 35.9 358.93 61.88 343.93 87.86 358.93V418.93 388.93L113.84 403.93Z"/>
<path transform="matrix(1,0,0,-1,0,842)" d="M113.84 373.93V403.93L87.86 388.93V358.93Z" fill="#823d24"/>
<path transform="matrix(1,0,0,-1,0,842)" stroke-width="10" stroke-linecap="butt" stroke-miterlimit="10" stroke-linejoin="miter" fill="none" stroke="#ffffff" d="M113.84 373.93V403.93L87.86 388.93V358.93Z"/>
<path transform="matrix(1,0,0,-1,0,842)" d="M113.84 313.93 87.86 328.93V298.93L113.84 283.93Z" fill="#823d24"/>
<path transform="matrix(1,0,0,-1,0,842)" stroke-width="10" stroke-linecap="butt" stroke-miterlimit="10" stroke-linejoin="miter" fill="none" stroke="#ffffff" d="M113.84 313.93 87.86 328.93V298.93L113.84 283.93Z"/>
<path transform="matrix(1,0,0,-1,0,842)" d="M113.84 283.93 61.88 313.93 87.86 298.93V328.93L61.88 343.93 9.92 313.93 35.9 328.93 9.92 343.93-16.06 328.93V268.93 298.93L-42.04 283.93V253.93L9.92 223.93-16.06 238.93V208.93L9.92 193.93 61.88 223.93 35.9 208.93 61.88 193.93 87.86 208.93V268.93 238.93L113.84 253.93Z" fill="#404285"/>
<path transform="matrix(1,0,0,-1,0,842)" stroke-width="10" stroke-linecap="butt" stroke-miterlimit="10" stroke-linejoin="miter" fill="none" stroke="#ffffff" d="M113.84 283.93 61.88 313.93 87.86 298.93V328.93L61.88 343.93 9.92 313.93 35.9 328.93 9.92 343.93-16.06 328.93V268.93 298.93L-42.04 283.93V253.93L9.92 223.93-16.06 238.93V208.93L9.92 193.93 61.88 223.93 35.9 208.93 61.88 193.93 87.86 208.93V268.93 238.93L113.84 253.93Z"/>
<path transform="matrix(1,0,0,-1,0,842)" d="M113.84 223.93V253.93L87.86 238.93V208.93Z" fill="#823d24"/>
<path transform="matrix(1,0,0,-1,0,842)" stroke-width="10" stroke-linecap="butt" stroke-miterlimit="10" stroke-linejoin="miter" fill="none" stroke="#ffffff" d="M113.84 223.93V253.93L87.86 238.93V208.93Z"/>
<path transform="matrix(1,0,0,-1,0,842)" d="M477.57 673.93 503.55 658.93V688.93L477.57 703.93Z" fill="#823d24"/>
<path transform="matrix(1,0,0,-1,0,842)" stroke-width="10" stroke-linecap="butt" stroke-miterlimit="10" stroke-linejoin="miter" fill="none" stroke="#ffffff" d="M477.57 673.93 503.55 658.93V688.93L477.57 703.93Z"/>
<path transform="matrix(1,0,0,-1,0,842)" d="M373.65 673.93V703.93L347.67 688.93V658.93Z" fill="#823d24"/>
<path transform="matrix(1,0,0,-1,0,842)" stroke-width="10" stroke-linecap="butt" stroke-miterlimit="10" stroke-linejoin="miter" fill="none" stroke="#ffffff" d="M373.65 673.93V703.93L347.67 688.93V658.93Z"/>
<path transform="matrix(1,0,0,-1,0,842)" d="M217.77 673.93 243.75 658.93V688.93L217.77 703.93Z" fill="#823d24"/>
<path transform="matrix(1,0,0,-1,0,842)" stroke-width="10" stroke-linecap="butt" stroke-miterlimit="10" stroke-linejoin="miter" fill="none" stroke="#ffffff" d="M217.77 673.93 243.75 658.93V688.93L217.77 703.93Z"/>
<path transform="matrix(1,0,0,-1,0,842)" d="M113.84 673.93V703.93L87.86 688.93V658.93Z" fill="#823d24"/>
<path transform="matrix(1,0,0,-1,0,842)" stroke-width="10" stroke-linecap="butt" stroke-miterlimit="10" stroke-linejoin="miter" fill="none" stroke="#ffffff" d="M113.84 673.93V703.93L87.86 688.93V658.93Z"/>
<path transform="matrix(1,0,0,-1,0,842)" d="M113.84 163.93 87.86 178.93V148.93L113.84 133.93Z" fill="#823d24"/>
<path transform="matrix(1,0,0,-1,0,842)" stroke-width="10" stroke-linecap="butt" stroke-miterlimit="10" stroke-linejoin="miter" fill="none" stroke="#ffffff" d="M113.84 163.93 87.86 178.93V148.93L113.84 133.93Z"/>
<path transform="matrix(1,0,0,-1,0,842)" d="M217.77 163.93V133.93L243.75 148.93V178.93Z" fill="#823d24"/>
<path transform="matrix(1,0,0,-1,0,842)" stroke-width="10" stroke-linecap="butt" stroke-miterlimit="10" stroke-linejoin="miter" fill="none" stroke="#ffffff" d="M217.77 163.93V133.93L243.75 148.93V178.93Z"/>
<path transform="matrix(1,0,0,-1,0,842)" d="M373.65 163.93 347.67 178.93V148.93L373.65 133.93Z" fill="#823d24"/>
<path transform="matrix(1,0,0,-1,0,842)" stroke-width="10" stroke-linecap="butt" stroke-miterlimit="10" stroke-linejoin="miter" fill="none" stroke="#ffffff" d="M373.65 163.93 347.67 178.93V148.93L373.65 133.93Z"/>
<path transform="matrix(1,0,0,-1,0,842)" d="M477.57 163.93V133.93L503.55 148.93V178.93Z" fill="#823d24"/>
<path transform="matrix(1,0,0,-1,0,842)" stroke-width="10" stroke-linecap="butt" stroke-miterlimit="10" stroke-linejoin="miter" fill="none" stroke="#ffffff" d="M477.57 163.93V133.93L503.55 148.93V178.93Z"/>
<path transform="matrix(1,0,0,-1,0,842)" d="M477.57 703.93V733.93L451.59 718.93Z" fill="#009c85"/>
<path transform="matrix(1,0,0,-1,0,842)" stroke-width="10" stroke-linecap="butt" stroke-miterlimit="10" stroke-linejoin="miter" fill="none" stroke="#ffffff" d="M477.57 703.93V733.93L451.59 718.93Z"/>
<path transform="matrix(1,0,0,-1,0,842)" d="M477.57 703.93 503.55 688.93 529.54 673.93 503.55 688.93V658.93L529.54 643.93 581.5 673.93 555.52 658.93 581.5 643.93 607.48 658.93V718.93 688.93L633.46 703.93V733.93L581.5 763.93 607.48 748.93V778.93L581.5 793.93 529.54 763.93 555.52 778.93 529.54 793.93 503.55 778.93V718.93 748.93L477.57 733.93Z" fill="#404285"/>
<path transform="matrix(1,0,0,-1,0,842)" stroke-width="10" stroke-linecap="butt" stroke-miterlimit="10" stroke-linejoin="miter" fill="none" stroke="#ffffff" d="M477.57 703.93 503.55 688.93 529.54 673.93 503.55 688.93V658.93L529.54 643.93 581.5 673.93 555.52 658.93 581.5 643.93 607.48 658.93V718.93 688.93L633.46 703.93V733.93L581.5 763.93 607.48 748.93V778.93L581.5 793.93 529.54 763.93 555.52 778.93 529.54 793.93 503.55 778.93V718.93 748.93L477.57 733.93Z"/>
<path transform="matrix(1,0,0,-1,0,842)" d="M425.61 703.93 451.59 718.93 425.61 733.93 399.63 718.93Z" fill="#823d24"/>
<path transform="matrix(1,0,0,-1,0,842)" stroke-width="10" stroke-linecap="butt" stroke-miterlimit="10" stroke-linejoin="miter" fill="none" stroke="#ffffff" d="M425.61 703.93 451.59 718.93 425.61 733.93 399.63 718.93Z"/>
<path transform="matrix(1,0,0,-1,0,842)" d="M373.65 703.93 399.63 718.93 373.65 733.93Z" fill="#009c85"/>
<path transform="matrix(1,0,0,-1,0,842)" stroke-width="10" stroke-linecap="butt" stroke-miterlimit="10" stroke-linejoin="miter" fill="none" stroke="#ffffff" d="M373.65 703.93 399.63 718.93 373.65 733.93Z"/>
<path transform="matrix(1,0,0,-1,0,842)" d="M217.77 703.93V733.93L191.79 718.93Z" fill="#009c85"/>
<path transform="matrix(1,0,0,-1,0,842)" stroke-width="10" stroke-linecap="butt" stroke-miterlimit="10" stroke-linejoin="miter" fill="none" stroke="#ffffff" d="M217.77 703.93V733.93L191.79 718.93Z"/>
<path transform="matrix(1,0,0,-1,0,842)" d="M165.8 703.93 191.79 718.93 165.8 733.93 139.82 718.93Z" fill="#823d24"/>
<path transform="matrix(1,0,0,-1,0,842)" stroke-width="10" stroke-linecap="butt" stroke-miterlimit="10" stroke-linejoin="miter" fill="none" stroke="#ffffff" d="M165.8 703.93 191.79 718.93 165.8 733.93 139.82 718.93Z"/>
<path transform="matrix(1,0,0,-1,0,842)" d="M503.55 178.93 529.54 193.93 503.55 208.93Z" fill="#009c85"/>
<path transform="matrix(1,0,0,-1,0,842)" stroke-width="10" stroke-linecap="butt" stroke-miterlimit="10" stroke-linejoin="miter" fill="none" stroke="#ffffff" d="M503.55 178.93 529.54 193.93 503.55 208.93Z"/>
<path transform="matrix(1,0,0,-1,0,842)" d="M503.55 178.93V118.93 148.93L477.57 133.93V103.93L503.55 88.93 529.54 73.93 503.55 88.93V58.93L529.54 43.93 581.5 73.93 555.52 58.93 581.5 43.93 607.48 58.93V118.93 88.93L633.46 103.93V133.93L581.5 163.93 607.48 148.93V178.93L581.5 193.93 529.54 163.93 555.52 178.93 529.54 193.93Z" fill="#404285"/>
<path transform="matrix(1,0,0,-1,0,842)" stroke-width="10" stroke-linecap="butt" stroke-miterlimit="10" stroke-linejoin="miter" fill="none" stroke="#ffffff" d="M503.55 178.93V118.93 148.93L477.57 133.93V103.93L503.55 88.93 529.54 73.93 503.55 88.93V58.93L529.54 43.93 581.5 73.93 555.52 58.93 581.5 43.93 607.48 58.93V118.93 88.93L633.46 103.93V133.93L581.5 163.93 607.48 148.93V178.93L581.5 193.93 529.54 163.93 555.52 178.93 529.54 193.93Z"/>
<path transform="matrix(1,0,0,-1,0,842)" d="M503.55 328.93 529.54 343.93 503.55 358.93Z" fill="#009c85"/>
<path transform="matrix(1,0,0,-1,0,842)" stroke-width="10" stroke-linecap="butt" stroke-miterlimit="10" stroke-linejoin="miter" fill="none" stroke="#ffffff" d="M503.55 328.93 529.54 343.93 503.55 358.93Z"/>
<path transform="matrix(1,0,0,-1,0,842)" d="M503.55 478.93 529.54 493.93 503.55 508.93Z" fill="#009c85"/>
<path transform="matrix(1,0,0,-1,0,842)" stroke-width="10" stroke-linecap="butt" stroke-miterlimit="10" stroke-linejoin="miter" fill="none" stroke="#ffffff" d="M503.55 478.93 529.54 493.93 503.55 508.93Z"/>
<path transform="matrix(1,0,0,-1,0,842)" d="M503.55 628.93 529.54 643.93 503.55 658.93Z" fill="#009c85"/>
<path transform="matrix(1,0,0,-1,0,842)" stroke-width="10" stroke-linecap="butt" stroke-miterlimit="10" stroke-linejoin="miter" fill="none" stroke="#ffffff" d="M503.55 628.93 529.54 643.93 503.55 658.93Z"/>
<path transform="matrix(1,0,0,-1,0,842)" d="M113.84 133.93V103.93L139.82 118.93Z" fill="#009c85"/>
<path transform="matrix(1,0,0,-1,0,842)" stroke-width="10" stroke-linecap="butt" stroke-miterlimit="10" stroke-linejoin="miter" fill="none" stroke="#ffffff" d="M113.84 133.93V103.93L139.82 118.93Z"/>
<path transform="matrix(1,0,0,-1,0,842)" d="M113.84 133.93 61.88 163.93 87.86 148.93V178.93L61.88 193.93 9.92 163.93 35.9 178.93 9.92 193.93-16.06 178.93V118.93 148.93L-42.04 133.93V103.93L9.92 73.93-16.06 88.93V58.93L9.92 43.93 61.88 73.93 35.9 58.93 61.88 43.93 87.86 58.93V118.93 88.93L113.84 103.93Z" fill="#404285"/>
<path transform="matrix(1,0,0,-1,0,842)" stroke-width="10" stroke-linecap="butt" stroke-miterlimit="10" stroke-linejoin="miter" fill="none" stroke="#ffffff" d="M113.84 133.93 61.88 163.93 87.86 148.93V178.93L61.88 193.93 9.92 163.93 35.9 178.93 9.92 193.93-16.06 178.93V118.93 148.93L-42.04 133.93V103.93L9.92 73.93-16.06 88.93V58.93L9.92 43.93 61.88 73.93 35.9 58.93 61.88 43.93 87.86 58.93V118.93 88.93L113.84 103.93Z"/>
<path transform="matrix(1,0,0,-1,0,842)" d="M165.8 133.93 139.82 118.93 165.8 103.93 191.79 118.93Z" fill="#823d24"/>
<path transform="matrix(1,0,0,-1,0,842)" stroke-width="10" stroke-linecap="butt" stroke-miterlimit="10" stroke-linejoin="miter" fill="none" stroke="#ffffff" d="M165.8 133.93 139.82 118.93 165.8 103.93 191.79 118.93Z"/>
<path transform="matrix(1,0,0,-1,0,842)" d="M217.77 133.93 191.79 118.93 217.77 103.93Z" fill="#009c85"/>
<path transform="matrix(1,0,0,-1,0,842)" stroke-width="10" stroke-linecap="butt" stroke-miterlimit="10" stroke-linejoin="miter" fill="none" stroke="#ffffff" d="M217.77 133.93 191.79 118.93 217.77 103.93Z"/>
<path transform="matrix(1,0,0,-1,0,842)" d="M373.65 133.93V103.93L399.63 118.93Z" fill="#009c85"/>
<path transform="matrix(1,0,0,-1,0,842)" stroke-width="10" stroke-linecap="butt" stroke-miterlimit="10" stroke-linejoin="miter" fill="none" stroke="#ffffff" d="M373.65 133.93V103.93L399.63 118.93Z"/>
<path transform="matrix(1,0,0,-1,0,842)" d="M425.61 133.93 399.63 118.93 425.61 103.93 451.59 118.93Z" fill="#823d24"/>
<path transform="matrix(1,0,0,-1,0,842)" stroke-width="10" stroke-linecap="butt" stroke-miterlimit="10" stroke-linejoin="miter" fill="none" stroke="#ffffff" d="M425.61 133.93 399.63 118.93 425.61 103.93 451.59 118.93Z"/>
<path transform="matrix(1,0,0,-1,0,842)" d="M477.57 133.93 451.59 118.93 477.57 103.93Z" fill="#009c85"/>
<path transform="matrix(1,0,0,-1,0,842)" stroke-width="10" stroke-linecap="butt" stroke-miterlimit="10" stroke-linejoin="miter" fill="none" stroke="#ffffff" d="M477.57 133.93 451.59 118.93 477.57 103.93Z"/>
<path transform="matrix(1,0,0,-1,0,842)" d="M87.86 658.93 61.88 643.93 87.86 628.93Z" fill="#009c85"/>
<path transform="matrix(1,0,0,-1,0,842)" stroke-width="10" stroke-linecap="butt" stroke-miterlimit="10" stroke-linejoin="miter" fill="none" stroke="#ffffff" d="M87.86 658.93 61.88 643.93 87.86 628.93Z"/>
<path transform="matrix(1,0,0,-1,0,842)" d="M87.86 658.93V718.93 688.93L113.84 703.93V733.93L61.88 763.93 87.86 748.93V778.93L61.88 793.93 9.92 763.93 35.9 778.93 9.92 793.93-16.06 778.93V718.93 748.93L-42.04 733.93V703.93L9.92 673.93-16.06 688.93V658.93L9.92 643.93 61.88 673.93 35.9 658.93 61.88 643.93Z" fill="#404285"/>
<path transform="matrix(1,0,0,-1,0,842)" stroke-width="10" stroke-linecap="butt" stroke-miterlimit="10" stroke-linejoin="miter" fill="none" stroke="#ffffff" d="M87.86 658.93V718.93 688.93L113.84 703.93V733.93L61.88 763.93 87.86 748.93V778.93L61.88 793.93 9.92 763.93 35.9 778.93 9.92 793.93-16.06 778.93V718.93 748.93L-42.04 733.93V703.93L9.92 673.93-16.06 688.93V658.93L9.92 643.93 61.88 673.93 35.9 658.93 61.88 643.93Z"/>
<path transform="matrix(1,0,0,-1,0,842)" d="M113.84 703.93 139.82 718.93 113.84 733.93Z" fill="#009c85"/>
<path transform="matrix(1,0,0,-1,0,842)" stroke-width="10" stroke-linecap="butt" stroke-miterlimit="10" stroke-linejoin="miter" fill="none" stroke="#ffffff" d="M113.84 703.93 139.82 718.93 113.84 733.93Z"/>
<path transform="matrix(1,0,0,-1,0,842)" d="M87.86 508.93 61.88 493.93 87.86 478.93Z" fill="#009c85"/>
<path transform="matrix(1,0,0,-1,0,842)" stroke-width="10" stroke-linecap="butt" stroke-miterlimit="10" stroke-linejoin="miter" fill="none" stroke="#ffffff" d="M87.86 508.93 61.88 493.93 87.86 478.93Z"/>
<path transform="matrix(1,0,0,-1,0,842)" d="M87.86 358.93 61.88 343.93 87.86 328.93Z" fill="#009c85"/>
<path transform="matrix(1,0,0,-1,0,842)" stroke-width="10" stroke-linecap="butt" stroke-miterlimit="10" stroke-linejoin="miter" fill="none" stroke="#ffffff" d="M87.86 358.93 61.88 343.93 87.86 328.93Z"/>
<path transform="matrix(1,0,0,-1,0,842)" d="M87.86 208.93 61.88 193.93 87.86 178.93Z" fill="#009c85"/>
<path transform="matrix(1,0,0,-1,0,842)" stroke-width="10" stroke-linecap="butt" stroke-miterlimit="10" stroke-linejoin="miter" fill="none" stroke="#ffffff" d="M87.86 208.93 61.88 193.93 87.86 178.93Z"/>
<path transform="matrix(1,0,0,-1,0,842)" d="M399.63 718.93 451.59 748.93 425.61 733.93 451.59 718.93 477.57 733.93V793.93 763.93L503.55 778.93V808.93L451.59 838.93 477.57 823.93V853.93L451.59 868.93 399.63 838.93 425.61 853.93 399.63 868.93 373.65 853.93V793.93 823.93L347.67 808.93V778.93L399.63 748.93 373.65 763.93V733.93Z" fill="#404285"/>
<path transform="matrix(1,0,0,-1,0,842)" stroke-width="10" stroke-linecap="butt" stroke-miterlimit="10" stroke-linejoin="miter" fill="none" stroke="#ffffff" d="M399.63 718.93 451.59 748.93 425.61 733.93 451.59 718.93 477.57 733.93V793.93 763.93L503.55 778.93V808.93L451.59 838.93 477.57 823.93V853.93L451.59 868.93 399.63 838.93 425.61 853.93 399.63 868.93 373.65 853.93V793.93 823.93L347.67 808.93V778.93L399.63 748.93 373.65 763.93V733.93Z"/>
<path transform="matrix(1,0,0,-1,0,842)" d="M139.82 718.93 165.8 733.93 191.79 748.93 165.8 733.93 191.79 718.93 217.77 733.93V793.93 763.93L243.75 778.93V808.93L191.79 838.93 217.77 823.93V853.93L191.79 868.93 165.8 853.93 139.82 838.93 165.8 853.93 139.82 868.93 113.84 853.93V793.93 823.93L87.86 808.93V778.93L139.82 748.93 113.84 763.93V733.93Z" fill="#404285"/>
<path transform="matrix(1,0,0,-1,0,842)" stroke-width="10" stroke-linecap="butt" stroke-miterlimit="10" stroke-linejoin="miter" fill="none" stroke="#ffffff" d="M139.82 718.93 165.8 733.93 191.79 748.93 165.8 733.93 191.79 718.93 217.77 733.93V793.93 763.93L243.75 778.93V808.93L191.79 838.93 217.77 823.93V853.93L191.79 868.93 165.8 853.93 139.82 838.93 165.8 853.93 139.82 868.93 113.84 853.93V793.93 823.93L87.86 808.93V778.93L139.82 748.93 113.84 763.93V733.93Z"/>
<path transform="matrix(1,0,0,-1,0,842)" d="M191.79 118.93 165.8 103.93 139.82 88.93 165.8 103.93 139.82 118.93 113.84 103.93V43.93 73.93L87.86 58.93V28.93L139.82-1.07 113.84 13.93V-16.07L139.82-31.07 165.8-16.07 191.79-1.07 165.8-16.07 191.79-31.07 217.77-16.07V43.93 13.93L243.75 28.93V58.93L191.79 88.93 217.77 73.93V103.93Z" fill="#404285"/>
<path transform="matrix(1,0,0,-1,0,842)" stroke-width="10" stroke-linecap="butt" stroke-miterlimit="10" stroke-linejoin="miter" fill="none" stroke="#ffffff" d="M191.79 118.93 165.8 103.93 139.82 88.93 165.8 103.93 139.82 118.93 113.84 103.93V43.93 73.93L87.86 58.93V28.93L139.82-1.07 113.84 13.93V-16.07L139.82-31.07 165.8-16.07 191.79-1.07 165.8-16.07 191.79-31.07 217.77-16.07V43.93 13.93L243.75 28.93V58.93L191.79 88.93 217.77 73.93V103.93Z"/>
<path transform="matrix(1,0,0,-1,0,842)" d="M451.59 118.93 399.63 88.93 425.61 103.93 399.63 118.93 373.65 103.93V43.93 73.93L347.67 58.93V28.93L399.63-1.07 373.65 13.93V-16.07L399.63-31.07 451.59-1.07 425.61-16.07 451.59-31.07 477.57-16.07V43.93 13.93L503.55 28.93V58.93L451.59 88.93 477.57 73.93V103.93Z" fill="#404285"/>
<path transform="matrix(1,0,0,-1,0,842)" stroke-width="10" stroke-linecap="butt" stroke-miterlimit="10" stroke-linejoin="miter" fill="none" stroke="#ffffff" d="M451.59 118.93 399.63 88.93 425.61 103.93 399.63 118.93 373.65 103.93V43.93 73.93L347.67 58.93V28.93L399.63-1.07 373.65 13.93V-16.07L399.63-31.07 451.59-1.07 425.61-16.07 451.59-31.07 477.57-16.07V43.93 13.93L503.55 28.93V58.93L451.59 88.93 477.57 73.93V103.93Z"/>
<path transform="matrix(1,0,0,-1,0,842)" d="M503.55 748.93V778.93L477.57 763.93V733.93Z" fill="#823d24"/>
<path transform="matrix(1,0,0,-1,0,842)" stroke-width="10" stroke-linecap="butt" stroke-miterlimit="10" stroke-linejoin="miter" fill="none" stroke="#ffffff" d="M503.55 748.93V778.93L477.57 763.93V733.93Z"/>
<path transform="matrix(1,0,0,-1,0,842)" d="M347.67 748.93 373.65 733.93V763.93L347.67 778.93Z" fill="#823d24"/>
<path transform="matrix(1,0,0,-1,0,842)" stroke-width="10" stroke-linecap="butt" stroke-miterlimit="10" stroke-linejoin="miter" fill="none" stroke="#ffffff" d="M347.67 748.93 373.65 733.93V763.93L347.67 778.93Z"/>
<path transform="matrix(1,0,0,-1,0,842)" d="M243.75 748.93V778.93L217.77 763.93V733.93Z" fill="#823d24"/>
<path transform="matrix(1,0,0,-1,0,842)" stroke-width="10" stroke-linecap="butt" stroke-miterlimit="10" stroke-linejoin="miter" fill="none" stroke="#ffffff" d="M243.75 748.93V778.93L217.77 763.93V733.93Z"/>
<path transform="matrix(1,0,0,-1,0,842)" d="M87.86 748.93 113.84 733.93V763.93L87.86 778.93Z" fill="#823d24"/>
<path transform="matrix(1,0,0,-1,0,842)" stroke-width="10" stroke-linecap="butt" stroke-miterlimit="10" stroke-linejoin="miter" fill="none" stroke="#ffffff" d="M87.86 748.93 113.84 733.93V763.93L87.86 778.93Z"/>
<path transform="matrix(1,0,0,-1,0,842)" d="M87.86 88.93V58.93L113.84 73.93V103.93Z" fill="#823d24"/>
<path transform="matrix(1,0,0,-1,0,842)" stroke-width="10" stroke-linecap="butt" stroke-miterlimit="10" stroke-linejoin="miter" fill="none" stroke="#ffffff" d="M87.86 88.93V58.93L113.84 73.93V103.93Z"/>
<path transform="matrix(1,0,0,-1,0,842)" d="M243.75 88.93 217.77 103.93V73.93L243.75 58.93Z" fill="#823d24"/>
<path transform="matrix(1,0,0,-1,0,842)" stroke-width="10" stroke-linecap="butt" stroke-miterlimit="10" stroke-linejoin="miter" fill="none" stroke="#ffffff" d="M243.75 88.93 217.77 103.93V73.93L243.75 58.93Z"/>
<path transform="matrix(1,0,0,-1,0,842)" d="M347.67 88.93V58.93L373.65 73.93V103.93Z" fill="#823d24"/>
<path transform="matrix(1,0,0,-1,0,842)" stroke-width="10" stroke-linecap="butt" stroke-miterlimit="10" stroke-linejoin="miter" fill="none" stroke="#ffffff" d="M347.67 88.93V58.93L373.65 73.93V103.93Z"/>
<path transform="matrix(1,0,0,-1,0,842)" d="M503.55 88.93 477.57 103.93V73.93L503.55 58.93Z" fill="#823d24"/>
<path transform="matrix(1,0,0,-1,0,842)" stroke-width="10" stroke-linecap="butt" stroke-miterlimit="10" stroke-linejoin="miter" fill="none" stroke="#ffffff" d="M503.55 88.93 477.57 103.93V73.93L503.55 58.93Z"/>
<path transform="matrix(1,0,0,-1,0,842)" d="M555.52 178.93 581.5 193.93 555.52 208.93 529.54 193.93Z" fill="#823d24"/>
<path transform="matrix(1,0,0,-1,0,842)" stroke-width="10" stroke-linecap="butt" stroke-miterlimit="10" stroke-linejoin="miter" fill="none" stroke="#ffffff" d="M555.52 178.93 581.5 193.93 555.52 208.93 529.54 193.93Z"/>
<path transform="matrix(1,0,0,-1,0,842)" d="M555.52 328.93 581.5 343.93 555.52 358.93 529.54 343.93Z" fill="#823d24"/>
<path transform="matrix(1,0,0,-1,0,842)" stroke-width="10" stroke-linecap="butt" stroke-miterlimit="10" stroke-linejoin="miter" fill="none" stroke="#ffffff" d="M555.52 328.93 581.5 343.93 555.52 358.93 529.54 343.93Z"/>
<path transform="matrix(1,0,0,-1,0,842)" d="M555.52 478.93 581.5 493.93 555.52 508.93 529.54 493.93Z" fill="#823d24"/>
<path transform="matrix(1,0,0,-1,0,842)" stroke-width="10" stroke-linecap="butt" stroke-miterlimit="10" stroke-linejoin="miter" fill="none" stroke="#ffffff" d="M555.52 478.93 581.5 493.93 555.52 508.93 529.54 493.93Z"/>
<path transform="matrix(1,0,0,-1,0,842)" d="M555.52 628.93 581.5 643.93 555.52 658.93 529.54 643.93Z" fill="#823d24"/>
<path transform="matrix(1,0,0,-1,0,842)" stroke-width="10" stroke-linecap="butt" stroke-miterlimit="10" stroke-linejoin="miter" fill="none" stroke="#ffffff" d="M555.52 628.93 581.5 643.93 555.52 658.93 529.54 643.93Z"/>
<path transform="matrix(1,0,0,-1,0,842)" d="M555.52 778.93 581.5 793.93 555.52 808.93 529.54 793.93Z" fill="#823d24"/>
<path transform="matrix(1,0,0,-1,0,842)" stroke-width="10" stroke-linecap="butt" stroke-miterlimit="10" stroke-linejoin="miter" fill="none" stroke="#ffffff" d="M555.52 778.93 581.5 793.93 555.52 808.93 529.54 793.93Z"/>
<path transform="matrix(1,0,0,-1,0,842)" d="M503.55 778.93 529.54 793.93 503.55 808.93Z" fill="#009c85"/>
<path transform="matrix(1,0,0,-1,0,842)" stroke-width="10" stroke-linecap="butt" stroke-miterlimit="10" stroke-linejoin="miter" fill="none" stroke="#ffffff" d="M503.55 778.93 529.54 793.93 503.55 808.93Z"/>
<path transform="matrix(1,0,0,-1,0,842)" d="M347.67 778.93V808.93L321.69 793.93Z" fill="#009c85"/>
<path transform="matrix(1,0,0,-1,0,842)" stroke-width="10" stroke-linecap="butt" stroke-miterlimit="10" stroke-linejoin="miter" fill="none" stroke="#ffffff" d="M347.67 778.93V808.93L321.69 793.93Z"/>
<path transform="matrix(1,0,0,-1,0,842)" d="M295.71 778.93 321.69 793.93 295.71 808.93 269.73 793.93Z" fill="#823d24"/>
<path transform="matrix(1,0,0,-1,0,842)" stroke-width="10" stroke-linecap="butt" stroke-miterlimit="10" stroke-linejoin="miter" fill="none" stroke="#ffffff" d="M295.71 778.93 321.69 793.93 295.71 808.93 269.73 793.93Z"/>
<path transform="matrix(1,0,0,-1,0,842)" d="M243.75 778.93 269.73 793.93 243.75 808.93Z" fill="#009c85"/>
<path transform="matrix(1,0,0,-1,0,842)" stroke-width="10" stroke-linecap="butt" stroke-miterlimit="10" stroke-linejoin="miter" fill="none" stroke="#ffffff" d="M243.75 778.93 269.73 793.93 243.75 808.93Z"/>
<path transform="matrix(1,0,0,-1,0,842)" d="M87.86 778.93V808.93L61.88 793.93Z" fill="#009c85"/>
<path transform="matrix(1,0,0,-1,0,842)" stroke-width="10" stroke-linecap="butt" stroke-miterlimit="10" stroke-linejoin="miter" fill="none" stroke="#ffffff" d="M87.86 778.93V808.93L61.88 793.93Z"/>
<path transform="matrix(1,0,0,-1,0,842)" d="M35.9 778.93 61.88 793.93 35.9 808.93 9.92 793.93Z" fill="#823d24"/>
<path transform="matrix(1,0,0,-1,0,842)" stroke-width="10" stroke-linecap="butt" stroke-miterlimit="10" stroke-linejoin="miter" fill="none" stroke="#ffffff" d="M35.9 778.93 61.88 793.93 35.9 808.93 9.92 793.93Z"/>
<path transform="matrix(1,0,0,-1,0,842)" d="M35.9 658.93 9.92 643.93 35.9 628.93 61.88 643.93Z" fill="#823d24"/>
<path transform="matrix(1,0,0,-1,0,842)" stroke-width="10" stroke-linecap="butt" stroke-miterlimit="10" stroke-linejoin="miter" fill="none" stroke="#ffffff" d="M35.9 658.93 9.92 643.93 35.9 628.93 61.88 643.93Z"/>
<path transform="matrix(1,0,0,-1,0,842)" d="M35.9 508.93 9.92 493.93 35.9 478.93 61.88 493.93Z" fill="#823d24"/>
<path transform="matrix(1,0,0,-1,0,842)" stroke-width="10" stroke-linecap="butt" stroke-miterlimit="10" stroke-linejoin="miter" fill="none" stroke="#ffffff" d="M35.9 508.93 9.92 493.93 35.9 478.93 61.88 493.93Z"/>
<path transform="matrix(1,0,0,-1,0,842)" d="M35.9 358.93 9.92 343.93 35.9 328.93 61.88 343.93Z" fill="#823d24"/>
<path transform="matrix(1,0,0,-1,0,842)" stroke-width="10" stroke-linecap="butt" stroke-miterlimit="10" stroke-linejoin="miter" fill="none" stroke="#ffffff" d="M35.9 358.93 9.92 343.93 35.9 328.93 61.88 343.93Z"/>
<path transform="matrix(1,0,0,-1,0,842)" d="M35.9 208.93 9.92 193.93 35.9 178.93 61.88 193.93Z" fill="#823d24"/>
<path transform="matrix(1,0,0,-1,0,842)" stroke-width="10" stroke-linecap="butt" stroke-miterlimit="10" stroke-linejoin="miter" fill="none" stroke="#ffffff" d="M35.9 208.93 9.92 193.93 35.9 178.93 61.88 193.93Z"/>
<path transform="matrix(1,0,0,-1,0,842)" d="M35.9 58.93 9.92 43.93 35.9 28.93 61.88 43.93Z" fill="#823d24"/>
<path transform="matrix(1,0,0,-1,0,842)" stroke-width="10" stroke-linecap="butt" stroke-miterlimit="10" stroke-linejoin="miter" fill="none" stroke="#ffffff" d="M35.9 58.93 9.92 43.93 35.9 28.93 61.88 43.93Z"/>
<path transform="matrix(1,0,0,-1,0,842)" d="M87.86 58.93 61.88 43.93 87.86 28.93Z" fill="#009c85"/>
<path transform="matrix(1,0,0,-1,0,842)" stroke-width="10" stroke-linecap="butt" stroke-miterlimit="10" stroke-linejoin="miter" fill="none" stroke="#ffffff" d="M87.86 58.93 61.88 43.93 87.86 28.93Z"/>
<path transform="matrix(1,0,0,-1,0,842)" d="M243.75 58.93V28.93L269.73 43.93Z" fill="#009c85"/>
<path transform="matrix(1,0,0,-1,0,842)" stroke-width="10" stroke-linecap="butt" stroke-miterlimit="10" stroke-linejoin="miter" fill="none" stroke="#ffffff" d="M243.75 58.93V28.93L269.73 43.93Z"/>
<path transform="matrix(1,0,0,-1,0,842)" d="M295.71 58.93 269.73 43.93 295.71 28.93 321.69 43.93Z" fill="#823d24"/>
<path transform="matrix(1,0,0,-1,0,842)" stroke-width="10" stroke-linecap="butt" stroke-miterlimit="10" stroke-linejoin="miter" fill="none" stroke="#ffffff" d="M295.71 58.93 269.73 43.93 295.71 28.93 321.69 43.93Z"/>
<path transform="matrix(1,0,0,-1,0,842)" d="M347.67 58.93 321.69 43.93 347.67 28.93Z" fill="#009c85"/>
<path transform="matrix(1,0,0,-1,0,842)" stroke-width="10" stroke-linecap="butt" stroke-miterlimit="10" stroke-linejoin="miter" fill="none" stroke="#ffffff" d="M347.67 58.93 321.69 43.93 347.67 28.93Z"/>
<path transform="matrix(1,0,0,-1,0,842)" d="M503.55 58.93V28.93L529.54 43.93Z" fill="#009c85"/>
<path transform="matrix(1,0,0,-1,0,842)" stroke-width="10" stroke-linecap="butt" stroke-miterlimit="10" stroke-linejoin="miter" fill="none" stroke="#ffffff" d="M503.55 58.93V28.93L529.54 43.93Z"/>
<path transform="matrix(1,0,0,-1,0,842)" d="M555.52 58.93 529.54 43.93 555.52 28.93 581.5 43.93Z" fill="#823d24"/>
<path transform="matrix(1,0,0,-1,0,842)" stroke-width="10" stroke-linecap="butt" stroke-miterlimit="10" stroke-linejoin="miter" fill="none" stroke="#ffffff" d="M555.52 58.93 529.54 43.93 555.52 28.93 581.5 43.93Z"/>
<path transform="matrix(1,0,0,-1,0,842)" d="M529.54 793.93 581.5 823.93 555.52 808.93 581.5 793.93 607.48 808.93V868.93 838.93L633.46 853.93V883.93L581.5 913.93 607.48 898.93V928.93L581.5 943.93 529.54 913.93 555.52 928.93 529.54 943.93 503.55 928.93V868.93 898.93L477.57 883.93V853.93L503.55 838.93 529.54 823.93 503.55 838.93V808.93Z" fill="#404285"/>
<path transform="matrix(1,0,0,-1,0,842)" stroke-width="10" stroke-linecap="butt" stroke-miterlimit="10" stroke-linejoin="miter" fill="none" stroke="#ffffff" d="M529.54 793.93 581.5 823.93 555.52 808.93 581.5 793.93 607.48 808.93V868.93 838.93L633.46 853.93V883.93L581.5 913.93 607.48 898.93V928.93L581.5 943.93 529.54 913.93 555.52 928.93 529.54 943.93 503.55 928.93V868.93 898.93L477.57 883.93V853.93L503.55 838.93 529.54 823.93 503.55 838.93V808.93Z"/>
<path transform="matrix(1,0,0,-1,0,842)" d="M269.73 793.93 321.69 823.93 295.71 808.93 321.69 793.93 347.67 808.93V868.93 838.93L373.65 853.93V883.93L321.69 913.93 347.67 898.93V928.93L321.69 943.93 269.73 913.93 295.71 928.93 269.73 943.93 243.75 928.93V868.93 898.93L217.77 883.93V853.93L269.73 823.93 243.75 838.93V808.93Z" fill="#404285"/>
<path transform="matrix(1,0,0,-1,0,842)" stroke-width="10" stroke-linecap="butt" stroke-miterlimit="10" stroke-linejoin="miter" fill="none" stroke="#ffffff" d="M269.73 793.93 321.69 823.93 295.71 808.93 321.69 793.93 347.67 808.93V868.93 838.93L373.65 853.93V883.93L321.69 913.93 347.67 898.93V928.93L321.69 943.93 269.73 913.93 295.71 928.93 269.73 943.93 243.75 928.93V868.93 898.93L217.77 883.93V853.93L269.73 823.93 243.75 838.93V808.93Z"/>
<path transform="matrix(1,0,0,-1,0,842)" d="M61.88 43.93 9.92 13.93 35.9 28.93 9.92 43.93-16.06 28.93V-31.07-1.07L-42.04-16.07V-46.07L9.92-76.07-16.06-61.07V-91.07L9.92-106.07 61.88-76.07 35.9-91.07 61.88-106.07 87.86-91.07V-31.07-61.07L113.84-46.07V-16.07L61.88 13.93 87.86-1.07V28.93Z" fill="#404285"/>
<path transform="matrix(1,0,0,-1,0,842)" stroke-width="10" stroke-linecap="butt" stroke-miterlimit="10" stroke-linejoin="miter" fill="none" stroke="#ffffff" d="M61.88 43.93 9.92 13.93 35.9 28.93 9.92 43.93-16.06 28.93V-31.07-1.07L-42.04-16.07V-46.07L9.92-76.07-16.06-61.07V-91.07L9.92-106.07 61.88-76.07 35.9-91.07 61.88-106.07 87.86-91.07V-31.07-61.07L113.84-46.07V-16.07L61.88 13.93 87.86-1.07V28.93Z"/>
<path transform="matrix(1,0,0,-1,0,842)" d="M321.69 43.93 269.73 13.93 295.71 28.93 269.73 43.93 243.75 28.93V-31.07-1.07L217.77-16.07V-46.07L269.73-76.07 243.75-61.07V-91.07L269.73-106.07 321.69-76.07 295.71-91.07 321.69-106.07 347.67-91.07V-31.07-61.07L373.65-46.07V-16.07L321.69 13.93 347.67-1.07V28.93Z" fill="#404285"/>
<path transform="matrix(1,0,0,-1,0,842)" stroke-width="10" stroke-linecap="butt" stroke-miterlimit="10" stroke-linejoin="miter" fill="none" stroke="#ffffff" d="M321.69 43.93 269.73 13.93 295.71 28.93 269.73 43.93 243.75 28.93V-31.07-1.07L217.77-16.07V-46.07L269.73-76.07 243.75-61.07V-91.07L269.73-106.07 321.69-76.07 295.71-91.07 321.69-106.07 347.67-91.07V-31.07-61.07L373.65-46.07V-16.07L321.69 13.93 347.67-1.07V28.93Z"/>
<path transform="matrix(1,0,0,-1,0,842)" d="M87.86 808.93V868.93 838.93L113.84 853.93V883.93L61.88 913.93 87.86 898.93V928.93L61.88 943.93 9.92 913.93 35.9 928.93 9.92 943.93-16.06 928.93V868.93 898.93L-42.04 883.93V853.93L9.92 823.93-16.06 838.93V808.93L9.92 793.93 61.88 823.93 35.9 808.93 61.88 793.93Z" fill="#404285"/>
<path transform="matrix(1,0,0,-1,0,842)" stroke-width="10" stroke-linecap="butt" stroke-miterlimit="10" stroke-linejoin="miter" fill="none" stroke="#ffffff" d="M87.86 808.93V868.93 838.93L113.84 853.93V883.93L61.88 913.93 87.86 898.93V928.93L61.88 943.93 9.92 913.93 35.9 928.93 9.92 943.93-16.06 928.93V868.93 898.93L-42.04 883.93V853.93L9.92 823.93-16.06 838.93V808.93L9.92 793.93 61.88 823.93 35.9 808.93 61.88 793.93Z"/>
<path transform="matrix(1,0,0,-1,0,842)" d="M581.5 43.93 607.48 28.93V58.93Z" fill="#009c85"/>
<path transform="matrix(1,0,0,-1,0,842)" stroke-width="10" stroke-linecap="butt" stroke-miterlimit="10" stroke-linejoin="miter" fill="none" stroke="#ffffff" d="M581.5 43.93 607.48 28.93V58.93Z"/>
<path transform="matrix(1,0,0,-1,0,842)" d="M581.5 43.93 529.54 13.93 555.52 28.93 529.54 43.93 503.55 28.93V-31.07-1.07L477.57-16.07V-46.07L503.55-61.07 529.54-76.07 503.55-61.07V-91.07L529.54-106.07 581.5-76.07 555.52-91.07 581.5-106.07 607.48-91.07V-31.07-61.07L633.46-46.07V-16.07L581.5 13.93 607.48-1.07V28.93Z" fill="#404285"/>
<path transform="matrix(1,0,0,-1,0,842)" stroke-width="10" stroke-linecap="butt" stroke-miterlimit="10" stroke-linejoin="miter" fill="none" stroke="#ffffff" d="M581.5 43.93 529.54 13.93 555.52 28.93 529.54 43.93 503.55 28.93V-31.07-1.07L477.57-16.07V-46.07L503.55-61.07 529.54-76.07 503.55-61.07V-91.07L529.54-106.07 581.5-76.07 555.52-91.07 581.5-106.07 607.48-91.07V-31.07-61.07L633.46-46.07V-16.07L581.5 13.93 607.48-1.07V28.93Z"/>
<path transform="matrix(1,0,0,-1,0,842)" d="M581.5 193.93 607.48 178.93V208.93Z" fill="#009c85"/>
<path transform="matrix(1,0,0,-1,0,842)" stroke-width="10" stroke-linecap="butt" stroke-miterlimit="10" stroke-linejoin="miter" fill="none" stroke="#ffffff" d="M581.5 193.93 607.48 178.93V208.93Z"/>
<path transform="matrix(1,0,0,-1,0,842)" d="M581.5 343.93 607.48 328.93V358.93Z" fill="#009c85"/>
<path transform="matrix(1,0,0,-1,0,842)" stroke-width="10" stroke-linecap="butt" stroke-miterlimit="10" stroke-linejoin="miter" fill="none" stroke="#ffffff" d="M581.5 343.93 607.48 328.93V358.93Z"/>
<path transform="matrix(1,0,0,-1,0,842)" d="M581.5 493.93 607.48 478.93V508.93Z" fill="#009c85"/>
<path transform="matrix(1,0,0,-1,0,842)" stroke-width="10" stroke-linecap="butt" stroke-miterlimit="10" stroke-linejoin="miter" fill="none" stroke="#ffffff" d="M581.5 493.93 607.48 478.93V508.93Z"/>
<path transform="matrix(1,0,0,-1,0,842)" d="M581.5 643.93 607.48 628.93V658.93Z" fill="#009c85"/>
<path transform="matrix(1,0,0,-1,0,842)" stroke-width="10" stroke-linecap="butt" stroke-miterlimit="10" stroke-linejoin="miter" fill="none" stroke="#ffffff" d="M581.5 643.93 607.48 628.93V658.93Z"/>
<path transform="matrix(1,0,0,-1,0,842)" d="M581.5 793.93 607.48 778.93V808.93Z" fill="#009c85"/>
<path transform="matrix(1,0,0,-1,0,842)" stroke-width="10" stroke-linecap="butt" stroke-miterlimit="10" stroke-linejoin="miter" fill="none" stroke="#ffffff" d="M581.5 793.93 607.48 778.93V808.93Z"/>
<path transform="matrix(1,0,0,-1,0,842)" d="M9.92 793.93-16.06 808.93V778.93Z" fill="#009c85"/>
<path transform="matrix(1,0,0,-1,0,842)" stroke-width="10" stroke-linecap="butt" stroke-miterlimit="10" stroke-linejoin="miter" fill="none" stroke="#ffffff" d="M9.92 793.93-16.06 808.93V778.93Z"/>
<path transform="matrix(1,0,0,-1,0,842)" d="M9.92 643.93-16.06 658.93V628.93Z" fill="#009c85"/>
<path transform="matrix(1,0,0,-1,0,842)" stroke-width="10" stroke-linecap="butt" stroke-miterlimit="10" stroke-linejoin="miter" fill="none" stroke="#ffffff" d="M9.92 643.93-16.06 658.93V628.93Z"/>
<path transform="matrix(1,0,0,-1,0,842)" d="M9.92 493.93-16.06 508.93V478.93Z" fill="#009c85"/>
<path transform="matrix(1,0,0,-1,0,842)" stroke-width="10" stroke-linecap="butt" stroke-miterlimit="10" stroke-linejoin="miter" fill="none" stroke="#ffffff" d="M9.92 493.93-16.06 508.93V478.93Z"/>
<path transform="matrix(1,0,0,-1,0,842)" d="M9.92 343.93-16.06 358.93V328.93Z" fill="#009c85"/>
<path transform="matrix(1,0,0,-1,0,842)" stroke-width="10" stroke-linecap="butt" stroke-miterlimit="10" stroke-linejoin="miter" fill="none" stroke="#ffffff" d="M9.92 343.93-16.06 358.93V328.93Z"/>
<path transform="matrix(1,0,0,-1,0,842)" d="M9.92 193.93-16.06 208.93V178.93Z" fill="#009c85"/>
<path transform="matrix(1,0,0,-1,0,842)" stroke-width="10" stroke-linecap="butt" stroke-miterlimit="10" stroke-linejoin="miter" fill="none" stroke="#ffffff" d="M9.92 193.93-16.06 208.93V178.93Z"/>
<path transform="matrix(1,0,0,-1,0,842)" d="M9.92 43.93-16.06 58.93V28.93Z" fill="#009c85"/>
<path transform="matrix(1,0,0,-1,0,842)" stroke-width="10" stroke-linecap="butt" stroke-miterlimit="10" stroke-linejoin="miter" fill="none" stroke="#ffffff" d="M9.92 43.93-16.06 58.93V28.93Z"/>
<path transform="matrix(1,0,0,-1,0,842)" d="M477.57 823.93 503.55 808.93V838.93L477.57 853.93Z" fill="#823d24"/>
<path transform="matrix(1,0,0,-1,0,842)" stroke-width="10" stroke-linecap="butt" stroke-miterlimit="10" stroke-linejoin="miter" fill="none" stroke="#ffffff" d="M477.57 823.93 503.55 808.93V838.93L477.57 853.93Z"/>
<path transform="matrix(1,0,0,-1,0,842)" d="M373.65 823.93V853.93L347.67 838.93V808.93Z" fill="#823d24"/>
<path transform="matrix(1,0,0,-1,0,842)" stroke-width="10" stroke-linecap="butt" stroke-miterlimit="10" stroke-linejoin="miter" fill="none" stroke="#ffffff" d="M373.65 823.93V853.93L347.67 838.93V808.93Z"/>
<path transform="matrix(1,0,0,-1,0,842)" d="M217.77 823.93 243.75 808.93V838.93L217.77 853.93Z" fill="#823d24"/>
<path transform="matrix(1,0,0,-1,0,842)" stroke-width="10" stroke-linecap="butt" stroke-miterlimit="10" stroke-linejoin="miter" fill="none" stroke="#ffffff" d="M217.77 823.93 243.75 808.93V838.93L217.77 853.93Z"/>
<path transform="matrix(1,0,0,-1,0,842)" d="M113.84 823.93V853.93L87.86 838.93V808.93Z" fill="#823d24"/>
<path transform="matrix(1,0,0,-1,0,842)" stroke-width="10" stroke-linecap="butt" stroke-miterlimit="10" stroke-linejoin="miter" fill="none" stroke="#ffffff" d="M113.84 823.93V853.93L87.86 838.93V808.93Z"/>
<path transform="matrix(1,0,0,-1,0,842)" d="M113.84 13.93 87.86 28.93V-1.07L113.84-16.07Z" fill="#823d24"/>
<path transform="matrix(1,0,0,-1,0,842)" stroke-width="10" stroke-linecap="butt" stroke-miterlimit="10" stroke-linejoin="miter" fill="none" stroke="#ffffff" d="M113.84 13.93 87.86 28.93V-1.07L113.84-16.07Z"/>
<path transform="matrix(1,0,0,-1,0,842)" d="M217.77 13.93V-16.07L243.75-1.07V28.93Z" fill="#823d24"/>
<path transform="matrix(1,0,0,-1,0,842)" stroke-width="10" stroke-linecap="butt" stroke-miterlimit="10" stroke-linejoin="miter" fill="none" stroke="#ffffff" d="M217.77 13.93V-16.07L243.75-1.07V28.93Z"/>
<path transform="matrix(1,0,0,-1,0,842)" d="M373.65 13.93 347.67 28.93V-1.07L373.65-16.07Z" fill="#823d24"/>
<path transform="matrix(1,0,0,-1,0,842)" stroke-width="10" stroke-linecap="butt" stroke-miterlimit="10" stroke-linejoin="miter" fill="none" stroke="#ffffff" d="M373.65 13.93 347.67 28.93V-1.07L373.65-16.07Z"/>
<path transform="matrix(1,0,0,-1,0,842)" d="M477.57 13.93V-16.07L503.55-1.07V28.93Z" fill="#823d24"/>
<path transform="matrix(1,0,0,-1,0,842)" stroke-width="10" stroke-linecap="butt" stroke-miterlimit="10" stroke-linejoin="miter" fill="none" stroke="#ffffff" d="M477.57 13.93V-16.07L503.55-1.07V28.93Z"/>
<path transform="matrix(1,0,0,-1,0,842)" stroke-width="10" stroke-linecap="butt" stroke-miterlimit="10" stroke-linejoin="miter" fill="none" stroke="#ffffff" d="M607.48-1.07 633.46-16.07V13.93L607.48 28.93ZM607.48 28.93 659.44-1.07 633.46 13.93V-16.07L659.44-31.07 711.4-1.07 685.42-16.07 711.4-31.07 737.38-16.07V43.93 13.93L763.36 28.93V58.93L711.4 88.93 737.38 73.93V103.93L711.4 118.93 659.44 88.93 685.42 103.93 659.44 118.93 633.46 103.93V43.93 73.93L607.48 58.93ZM607.48 88.93V58.93L633.46 73.93V103.93ZM607.48 148.93 633.46 133.93V163.93L607.48 178.93ZM607.48 178.93 659.44 148.93 633.46 163.93V133.93L659.44 118.93 711.4 148.93 685.42 133.93 711.4 118.93 737.38 133.93V193.93 163.93L763.36 178.93V208.93L711.4 238.93 737.38 223.93V253.93L711.4 268.93 659.44 238.93 685.42 253.93 659.44 268.93 633.46 253.93V193.93 223.93L607.48 208.93ZM607.48 238.93V208.93L633.46 223.93V253.93ZM607.48 298.93 633.46 283.93V313.93L607.48 328.93ZM607.48 328.93 659.44 298.93 633.46 313.93V283.93L659.44 268.93 711.4 298.93 685.42 283.93 711.4 268.93 737.38 283.93V343.93 313.93L763.36 328.93V358.93L711.4 388.93 737.38 373.93V403.93L711.4 418.93 659.44 388.93 685.42 403.93 659.44 418.93 633.46 403.93V343.93 373.93L607.48 358.93ZM607.48 388.93V358.93L633.46 373.93V403.93ZM607.48 448.93 633.46 433.93V463.93L607.48 478.93ZM607.48 478.93 659.44 448.93 633.46 463.93V433.93L659.44 418.93 711.4 448.93 685.42 433.93 711.4 418.93 737.38 433.93V493.93 463.93L763.36 478.93V508.93L711.4 538.93 737.38 523.93V553.93L711.4 568.93 659.44 538.93 685.42 553.93 659.44 568.93 633.46 553.93V493.93 523.93L607.48 508.93Z"/>
<path transform="matrix(1,0,0,-1,0,842)" stroke-width="10" stroke-linecap="butt" stroke-miterlimit="10" stroke-linejoin="miter" fill="none" stroke="#ffffff" d="M607.48 538.93V508.93L633.46 523.93V553.93ZM607.48 598.93 633.46 583.93V613.93L607.48 628.93ZM607.48 628.93 659.44 598.93 633.46 613.93V583.93L659.44 568.93 711.4 598.93 685.42 583.93 711.4 568.93 737.38 583.93V643.93 613.93L763.36 628.93V658.93L711.4 688.93 737.38 673.93V703.93L711.4 718.93 659.44 688.93 685.42 703.93 659.44 718.93 633.46 703.93V643.93 673.93L607.48 658.93ZM607.48 688.93V658.93L633.46 673.93V703.93ZM607.48 748.93 633.46 733.93V763.93L607.48 778.93ZM607.48 778.93 659.44 748.93 633.46 763.93V733.93L659.44 718.93 711.4 748.93 685.42 733.93 711.4 718.93 737.38 733.93V793.93 763.93L763.36 778.93V808.93L711.4 838.93 737.38 823.93V853.93L711.4 868.93 659.44 838.93 685.42 853.93 659.44 868.93 633.46 853.93V793.93 823.93L607.48 808.93ZM607.48 838.93V808.93L633.46 823.93V853.93ZM-16.06 838.93-42.04 853.93V823.93L-16.06 808.93ZM-16.06 808.93-68.02 838.93-42.04 823.93V853.93L-68.02 868.93-119.98 838.93-94 853.93-119.98 868.93-145.96 853.93V793.93 823.93L-171.95 808.93V778.93L-145.96 763.93-119.98 748.93-145.96 763.93V733.93L-119.98 718.93-68.02 748.93-94 733.93-68.02 718.93-42.04 733.93V793.93 763.93L-16.06 778.93ZM-16.06 748.93V778.93L-42.04 763.93V733.93ZM-16.06 688.93-42.04 703.93V673.93L-16.06 658.93ZM-16.06 658.93-68.02 688.93-42.04 673.93V703.93L-68.02 718.93-119.98 688.93-94 703.93-119.98 718.93-145.96 703.93V643.93 673.93L-171.95 658.93V628.93L-145.96 613.93-119.98 598.93-145.96 613.93V583.93L-119.98 568.93-68.02 598.93-94 583.93-68.02 568.93-42.04 583.93V643.93 613.93L-16.06 628.93Z"/>
<path transform="matrix(1,0,0,-1,0,842)" stroke-width="10" stroke-linecap="butt" stroke-miterlimit="10" stroke-linejoin="miter" fill="none" stroke="#ffffff" d="M-16.06 598.93V628.93L-42.04 613.93V583.93ZM-16.06 538.93-42.04 553.93V523.93L-16.06 508.93ZM-16.06 508.93-68.02 538.93-42.04 523.93V553.93L-68.02 568.93-119.98 538.93-94 553.93-119.98 568.93-145.96 553.93V493.93 523.93L-171.95 508.93V478.93L-145.96 463.93-119.98 448.93-145.96 463.93V433.93L-119.98 418.93-68.02 448.93-94 433.93-68.02 418.93-42.04 433.93V493.93 463.93L-16.06 478.93ZM-16.06 448.93V478.93L-42.04 463.93V433.93ZM-16.06 388.93-42.04 403.93V373.93L-16.06 358.93ZM-16.06 358.93-68.02 388.93-42.04 373.93V403.93L-68.02 418.93-119.98 388.93-94 403.93-119.98 418.93-145.96 403.93V343.93 373.93L-171.95 358.93V328.93L-145.96 313.93-119.98 298.93-145.96 313.93V283.93L-119.98 268.93-68.02 298.93-94 283.93-68.02 268.93-42.04 283.93V343.93 313.93L-16.06 328.93ZM-16.06 298.93V328.93L-42.04 313.93V283.93ZM-16.06 238.93-42.04 253.93V223.93L-16.06 208.93ZM-16.06 208.93-68.02 238.93-42.04 223.93V253.93L-68.02 268.93-119.98 238.93-94 253.93-119.98 268.93-145.96 253.93V193.93 223.93L-171.95 208.93V178.93L-145.96 163.93-119.98 148.93-145.96 163.93V133.93L-119.98 118.93-68.02 148.93-94 133.93-68.02 118.93-42.04 133.93V193.93 163.93L-16.06 178.93ZM-16.06 148.93V178.93L-42.04 163.93V133.93ZM-16.06 88.93-42.04 103.93V73.93L-16.06 58.93ZM-16.06 58.93-68.02 88.93-42.04 73.93V103.93L-68.02 118.93-119.98 88.93-94 103.93-119.98 118.93-145.96 103.93V43.93 73.93L-171.95 58.93V28.93L-145.96 13.93-119.98-1.07-145.96 13.93V-16.07L-119.98-31.07-68.02-1.07-94-16.07-68.02-31.07-42.04-16.07V43.93 13.93L-16.06 28.93Z"/>
<path transform="matrix(1,0,0,-1,0,842)" stroke-width="10" stroke-linecap="butt" stroke-miterlimit="10" stroke-linejoin="miter" fill="none" stroke="#ffffff" d="M-16.06-1.07V28.93L-42.04 13.93V-16.07ZM477.57 853.93V883.93L451.59 868.93ZM425.61 853.93 451.59 868.93 425.61 883.93 399.63 868.93ZM373.65 853.93 399.63 868.93 373.65 883.93ZM217.77 853.93V883.93L191.79 868.93ZM165.8 853.93 191.79 868.93 165.8 883.93 139.82 868.93ZM113.84 853.93 139.82 868.93 113.84 883.93ZM113.84-16.07V-46.07L139.82-31.07ZM165.8-16.07 139.82-31.07 165.8-46.07 191.79-31.07ZM217.77-16.07 191.79-31.07 217.77-46.07ZM373.65-16.07V-46.07L399.63-31.07ZM425.61-16.07 399.63-31.07 425.61-46.07 451.59-31.07ZM477.57-16.07 451.59-31.07 477.57-46.07ZM399.63 868.93 451.59 898.93 425.61 883.93 451.59 868.93 477.57 883.93V943.93 913.93L503.55 928.93V958.93L451.59 988.93 477.57 973.93V1003.93L451.59 1018.93 399.63 988.93 425.61 1003.93 399.63 1018.93 373.65 1003.93V943.93 973.93L347.67 958.93V928.93L399.63 898.93 373.65 913.93V883.93ZM139.82 868.93 165.8 883.93 191.79 898.93 165.8 883.93 191.79 868.93 217.77 883.93V943.93 913.93L243.75 928.93V958.93L191.79 988.93 217.77 973.93V1003.93L191.79 1018.93 165.8 1003.93 139.82 988.93 165.8 1003.93 139.82 1018.93 113.84 1003.93V943.93 973.93L87.86 958.93V928.93L139.82 898.93 113.84 913.93V883.93ZM191.79-31.07 165.8-46.07 139.82-61.07 165.8-46.07 139.82-31.07 113.84-46.07V-106.07-76.07L87.86-91.07V-121.07L139.82-151.07 113.84-136.07V-166.07L139.82-181.07 165.8-166.07 191.79-151.07 165.8-166.07 191.79-181.07 217.77-166.07V-106.07-136.07L243.75-121.07V-91.07L191.79-61.07 217.77-76.07V-46.07Z"/>
<path transform="matrix(1,0,0,-1,0,842)" stroke-width="10" stroke-linecap="butt" stroke-miterlimit="10" stroke-linejoin="miter" fill="none" stroke="#ffffff" d="M451.59-31.07 399.63-61.07 425.61-46.07 399.63-31.07 373.65-46.07V-106.07-76.07L347.67-91.07V-121.07L399.63-151.07 373.65-136.07V-166.07L399.63-181.07 451.59-151.07 425.61-166.07 451.59-181.07 477.57-166.07V-106.07-136.07L503.55-121.07V-91.07L451.59-61.07 477.57-76.07V-46.07ZM633.46-16.07V-46.07L659.44-31.07ZM633.46 103.93 659.44 118.93 633.46 133.93ZM633.46 253.93 659.44 268.93 633.46 283.93ZM633.46 403.93 659.44 418.93 633.46 433.93ZM633.46 553.93 659.44 568.93 633.46 583.93ZM633.46 703.93 659.44 718.93 633.46 733.93ZM633.46 853.93 659.44 868.93 633.46 883.93ZM633.46-46.07V-106.07-76.07L607.48-91.07V-121.07L659.44-151.07 633.46-136.07V-166.07L659.44-181.07 711.4-151.07 685.42-166.07 711.4-181.07 737.38-166.07V-106.07-136.07L763.36-121.07V-91.07L711.4-61.07 737.38-76.07V-46.07L711.4-31.07 659.44-61.07 685.42-46.07 659.44-31.07ZM-42.04 883.93-68.02 868.93-42.04 853.93ZM-42.04 883.93V943.93 913.93L-16.06 928.93V958.93L-68.02 988.93-42.04 973.93V1003.93L-68.02 1018.93-119.98 988.93-94 1003.93-119.98 1018.93-145.96 1003.93V943.93 973.93L-171.95 958.93V928.93L-145.96 913.93-119.98 898.93-145.96 913.93V883.93L-119.98 868.93-68.02 898.93-94 883.93-68.02 868.93ZM-42.04 733.93-68.02 718.93-42.04 703.93ZM-42.04 583.93-68.02 568.93-42.04 553.93ZM-42.04 433.93-68.02 418.93-42.04 403.93ZM-42.04 283.93-68.02 268.93-42.04 253.93ZM-42.04 133.93-68.02 118.93-42.04 103.93Z"/>
<path transform="matrix(1,0,0,-1,0,842)" stroke-width="10" stroke-linecap="butt" stroke-miterlimit="10" stroke-linejoin="miter" fill="none" stroke="#ffffff" d="M-42.04-16.07-68.02-31.07-42.04-46.07ZM607.48 898.93 633.46 883.93V913.93L607.48 928.93ZM503.55 898.93V928.93L477.57 913.93V883.93ZM347.67 898.93 373.65 883.93V913.93L347.67 928.93ZM243.75 898.93V928.93L217.77 913.93V883.93ZM87.86 898.93 113.84 883.93V913.93L87.86 928.93ZM-16.06 898.93V928.93L-42.04 913.93V883.93ZM-16.06-61.07-42.04-46.07V-76.07L-16.06-91.07ZM87.86-61.07V-91.07L113.84-76.07V-46.07ZM243.75-61.07 217.77-46.07V-76.07L243.75-91.07ZM347.67-61.07V-91.07L373.65-76.07V-46.07ZM503.55-61.07 477.57-46.07V-76.07L503.55-91.07ZM607.48-61.07V-91.07L633.46-76.07V-46.07Z"/>
</svg>
