<svg xmlns="http://www.w3.org/2000/svg" xmlns:xlink="http://www.w3.org/1999/xlink" xmlns:inkscape="http://www.inkscape.org/namespaces/inkscape" version="1.1" width="612" height="792" viewBox="0 0 612 792">
<path transform="matrix(.1,0,0,-.1,0,792)" d="M2975 3695 3116.4 3836.4H3316.4V4036.4L3457.8 4177.8 3316.4 4319.2V4519.2H3116.4L2975 4660.7 2833.6 4519.2H2633.6V4319.2L2492.2 4177.8 2633.6 4036.4V3836.4H2833.6" fill="#521f1f"/>
<path transform="matrix(.1,0,0,-.1,0,792)" stroke-width="1" stroke-linecap="butt" stroke-miterlimit="10" stroke-linejoin="miter" fill="none" stroke="#000000" d="M2975 3695 3116.4 3836.4H3316.4V4036.4L3457.8 4177.8 3316.4 4319.2V4519.2H3116.4L2975 4660.7 2833.6 4519.2H2633.6V4319.2L2492.2 4177.8 2633.6 4036.4V3836.4H2833.6Z"/>
<path transform="matrix(.1,0,0,-.1,0,792)" d="M3116.4 4519.2H3316.4V5002.1L2975 4660.7Z" fill="#f8c499"/>
<path transform="matrix(.1,0,0,-.1,0,792)" stroke-width="1" stroke-linecap="butt" stroke-miterlimit="10" stroke-linejoin="miter" fill="none" stroke="#000000" d="M3116.4 4519.2H3316.4V5002.1L2975 4660.7Z"/>
<path transform="matrix(.1,0,0,-.1,0,792)" d="M2833.6 4519.2 2975 4660.7 2633.6 5002.1V4519.2Z" fill="#f8c499"/>
<path transform="matrix(.1,0,0,-.1,0,792)" stroke-width="1" stroke-linecap="butt" stroke-miterlimit="10" stroke-linejoin="miter" fill="none" stroke="#000000" d="M2833.6 4519.2 2975 4660.7 2633.6 5002.1V4519.2Z"/>
<path transform="matrix(.1,0,0,-.1,0,792)" d="M2833.6 3836.4H2633.6V3353.5L2975 3695Z" fill="#f8c499"/>
<path transform="matrix(.1,0,0,-.1,0,792)" stroke-width="1" stroke-linecap="butt" stroke-miterlimit="10" stroke-linejoin="miter" fill="none" stroke="#000000" d="M2833.6 3836.4H2633.6V3353.5L2975 3695Z"/>
<path transform="matrix(.1,0,0,-.1,0,792)" d="M3116.4 3836.4 2975 3695 3316.4 3353.5V3836.4Z" fill="#f8c499"/>
<path transform="matrix(.1,0,0,-.1,0,792)" stroke-width="1" stroke-linecap="butt" stroke-miterlimit="10" stroke-linejoin="miter" fill="none" stroke="#000000" d="M3116.4 3836.4 2975 3695 3316.4 3353.5V3836.4Z"/>
<path transform="matrix(.1,0,0,-.1,0,792)" d="M2975 4660.7 3316.4 5002.1V5371.6L2975 5513 2633.6 5371.6V5002.1" fill="#404284"/>
<path transform="matrix(.1,0,0,-.1,0,792)" stroke-width="1" stroke-linecap="butt" stroke-miterlimit="10" stroke-linejoin="miter" fill="none" stroke="#000000" d="M2975 4660.7 3316.4 5002.1V5371.6L2975 5513 2633.6 5371.6V5002.1Z"/>
<path transform="matrix(.1,0,0,-.1,0,792)" d="M3316.4 4519.2H3799.3L4060.6 4780.5 3919.2 5122 3577.7 5263.4 3316.4 5002.1" fill="#404284"/>
<path transform="matrix(.1,0,0,-.1,0,792)" stroke-width="1" stroke-linecap="butt" stroke-miterlimit="10" stroke-linejoin="miter" fill="none" stroke="#000000" d="M3316.4 4519.2H3799.3L4060.6 4780.5 3919.2 5122 3577.7 5263.4 3316.4 5002.1Z"/>
<path transform="matrix(.1,0,0,-.1,0,792)" d="M3316.4 4319.2 3457.8 4177.8 3799.3 4519.2H3316.4Z" fill="#f8c499"/>
<path transform="matrix(.1,0,0,-.1,0,792)" stroke-width="1" stroke-linecap="butt" stroke-miterlimit="10" stroke-linejoin="miter" fill="none" stroke="#000000" d="M3316.4 4319.2 3457.8 4177.8 3799.3 4519.2H3316.4Z"/>
<path transform="matrix(.1,0,0,-.1,0,792)" d="M3316.4 4036.4V3836.4H3799.3L3457.8 4177.8Z" fill="#f8c499"/>
<path transform="matrix(.1,0,0,-.1,0,792)" stroke-width="1" stroke-linecap="butt" stroke-miterlimit="10" stroke-linejoin="miter" fill="none" stroke="#000000" d="M3316.4 4036.4V3836.4H3799.3L3457.8 4177.8Z"/>
<path transform="matrix(.1,0,0,-.1,0,792)" d="M3316.4 3836.4V3353.5L3577.7 3092.2 3919.2 3233.7 4060.6 3575.1 3799.3 3836.4" fill="#404284"/>
<path transform="matrix(.1,0,0,-.1,0,792)" stroke-width="1" stroke-linecap="butt" stroke-miterlimit="10" stroke-linejoin="miter" fill="none" stroke="#000000" d="M3316.4 3836.4V3353.5L3577.7 3092.2 3919.2 3233.7 4060.6 3575.1 3799.3 3836.4Z"/>
<path transform="matrix(.1,0,0,-.1,0,792)" d="M2633.6 4519.2H2150.7L2492.2 4177.8 2633.6 4319.2Z" fill="#f8c499"/>
<path transform="matrix(.1,0,0,-.1,0,792)" stroke-width="1" stroke-linecap="butt" stroke-miterlimit="10" stroke-linejoin="miter" fill="none" stroke="#000000" d="M2633.6 4519.2H2150.7L2492.2 4177.8 2633.6 4319.2Z"/>
<path transform="matrix(.1,0,0,-.1,0,792)" d="M2633.6 4519.2V5002.1L2372.3 5263.4 2030.8 5122 1889.4 4780.5 2150.7 4519.2" fill="#404284"/>
<path transform="matrix(.1,0,0,-.1,0,792)" stroke-width="1" stroke-linecap="butt" stroke-miterlimit="10" stroke-linejoin="miter" fill="none" stroke="#000000" d="M2633.6 4519.2V5002.1L2372.3 5263.4 2030.8 5122 1889.4 4780.5 2150.7 4519.2Z"/>
<path transform="matrix(.1,0,0,-.1,0,792)" d="M2633.6 4036.4 2492.2 4177.8 2150.7 3836.4H2633.6Z" fill="#f8c499"/>
<path transform="matrix(.1,0,0,-.1,0,792)" stroke-width="1" stroke-linecap="butt" stroke-miterlimit="10" stroke-linejoin="miter" fill="none" stroke="#000000" d="M2633.6 4036.4 2492.2 4177.8 2150.7 3836.4H2633.6Z"/>
<path transform="matrix(.1,0,0,-.1,0,792)" d="M2633.6 3836.4H2150.7L1889.4 3575.1 2030.8 3233.7 2372.3 3092.2 2633.6 3353.5" fill="#404284"/>
<path transform="matrix(.1,0,0,-.1,0,792)" stroke-width="1" stroke-linecap="butt" stroke-miterlimit="10" stroke-linejoin="miter" fill="none" stroke="#000000" d="M2633.6 3836.4H2150.7L1889.4 3575.1 2030.8 3233.7 2372.3 3092.2 2633.6 3353.5Z"/>
<path transform="matrix(.1,0,0,-.1,0,792)" d="M2975 3695 2633.6 3353.5V2984L2975 2842.6 3316.4 2984V3353.5" fill="#404284"/>
<path transform="matrix(.1,0,0,-.1,0,792)" stroke-width="1" stroke-linecap="butt" stroke-miterlimit="10" stroke-linejoin="miter" fill="none" stroke="#000000" d="M2975 3695 2633.6 3353.5V2984L2975 2842.6 3316.4 2984V3353.5Z"/>
<path transform="matrix(.1,0,0,-.1,0,792)" d="M3457.8 4177.8 3799.3 3836.4H4168.8L4310.2 4177.8 4168.8 4519.2H3799.3" fill="#404284"/>
<path transform="matrix(.1,0,0,-.1,0,792)" stroke-width="1" stroke-linecap="butt" stroke-miterlimit="10" stroke-linejoin="miter" fill="none" stroke="#000000" d="M3457.8 4177.8 3799.3 3836.4H4168.8L4310.2 4177.8 4168.8 4519.2H3799.3Z"/>
<path transform="matrix(.1,0,0,-.1,0,792)" d="M2492.2 4177.8 2150.7 4519.2H1781.2L1639.8 4177.8 1781.2 3836.4H2150.7" fill="#404284"/>
<path transform="matrix(.1,0,0,-.1,0,792)" stroke-width="1" stroke-linecap="butt" stroke-miterlimit="10" stroke-linejoin="miter" fill="none" stroke="#000000" d="M2492.2 4177.8 2150.7 4519.2H1781.2L1639.8 4177.8 1781.2 3836.4H2150.7Z"/>
<path transform="matrix(.1,0,0,-.1,0,792)" d="M3316.4 5002.1 3577.7 5263.4 3919.2 5122 3757.2 5513 3480.6 5398.5 3366.1 5675 2975 5513 3316.4 5371.6" fill="#ffffff"/>
<path transform="matrix(.1,0,0,-.1,0,792)" stroke-width="1" stroke-linecap="butt" stroke-miterlimit="10" stroke-linejoin="miter" fill="none" stroke="#000000" d="M3316.4 5002.1 3577.7 5263.4 3919.2 5122 3757.2 5513 3480.6 5398.5 3366.1 5675 2975 5513 3316.4 5371.6Z"/>
<path transform="matrix(.1,0,0,-.1,0,792)" d="M2633.6 5002.1V5371.6L2975 5513 2583.9 5675 2469.4 5398.5 2192.8 5513 2030.8 5122 2372.3 5263.4" fill="#ffffff"/>
<path transform="matrix(.1,0,0,-.1,0,792)" stroke-width="1" stroke-linecap="butt" stroke-miterlimit="10" stroke-linejoin="miter" fill="none" stroke="#000000" d="M2633.6 5002.1V5371.6L2975 5513 2583.9 5675 2469.4 5398.5 2192.8 5513 2030.8 5122 2372.3 5263.4Z"/>
<path transform="matrix(.1,0,0,-.1,0,792)" d="M2633.6 3353.5 2372.3 3092.2 2030.8 3233.7 2192.8 2842.6 2469.4 2957.1 2583.9 2680.6 2975 2842.6 2633.6 2984" fill="#ffffff"/>
<path transform="matrix(.1,0,0,-.1,0,792)" stroke-width="1" stroke-linecap="butt" stroke-miterlimit="10" stroke-linejoin="miter" fill="none" stroke="#000000" d="M2633.6 3353.5 2372.3 3092.2 2030.8 3233.7 2192.8 2842.6 2469.4 2957.1 2583.9 2680.6 2975 2842.6 2633.6 2984Z"/>
<path transform="matrix(.1,0,0,-.1,0,792)" d="M3316.4 3353.5V2984L2975 2842.6 3366.1 2680.6 3480.6 2957.1 3757.2 2842.6 3919.2 3233.7 3577.7 3092.2" fill="#ffffff"/>
<path transform="matrix(.1,0,0,-.1,0,792)" stroke-width="1" stroke-linecap="butt" stroke-miterlimit="10" stroke-linejoin="miter" fill="none" stroke="#000000" d="M3316.4 3353.5V2984L2975 2842.6 3366.1 2680.6 3480.6 2957.1 3757.2 2842.6 3919.2 3233.7 3577.7 3092.2Z"/>
<path transform="matrix(.1,0,0,-.1,0,792)" d="M3799.3 3836.4 4060.6 3575.1 3919.2 3233.7 4310.2 3395.6 4195.7 3672.2 4472.2 3786.7 4310.2 4177.8 4168.8 3836.4" fill="#ffffff"/>
<path transform="matrix(.1,0,0,-.1,0,792)" stroke-width="1" stroke-linecap="butt" stroke-miterlimit="10" stroke-linejoin="miter" fill="none" stroke="#000000" d="M3799.3 3836.4 4060.6 3575.1 3919.2 3233.7 4310.2 3395.6 4195.7 3672.2 4472.2 3786.7 4310.2 4177.8 4168.8 3836.4Z"/>
<path transform="matrix(.1,0,0,-.1,0,792)" d="M3799.3 4519.2H4168.8L4310.2 4177.8 4472.2 4568.9 4195.7 4683.4 4310.2 4960 3919.2 5122 4060.6 4780.5" fill="#ffffff"/>
<path transform="matrix(.1,0,0,-.1,0,792)" stroke-width="1" stroke-linecap="butt" stroke-miterlimit="10" stroke-linejoin="miter" fill="none" stroke="#000000" d="M3799.3 4519.2H4168.8L4310.2 4177.8 4472.2 4568.9 4195.7 4683.4 4310.2 4960 3919.2 5122 4060.6 4780.5Z"/>
<path transform="matrix(.1,0,0,-.1,0,792)" d="M2150.7 4519.2 1889.4 4780.5 2030.8 5122 1639.8 4960 1754.3 4683.4 1477.8 4568.9 1639.8 4177.8 1781.2 4519.2" fill="#ffffff"/>
<path transform="matrix(.1,0,0,-.1,0,792)" stroke-width="1" stroke-linecap="butt" stroke-miterlimit="10" stroke-linejoin="miter" fill="none" stroke="#000000" d="M2150.7 4519.2 1889.4 4780.5 2030.8 5122 1639.8 4960 1754.3 4683.4 1477.8 4568.9 1639.8 4177.8 1781.2 4519.2Z"/>
<path transform="matrix(.1,0,0,-.1,0,792)" d="M2150.7 3836.4H1781.2L1639.8 4177.8 1477.8 3786.7 1754.3 3672.2 1639.8 3395.6 2030.8 3233.7 1889.4 3575.1" fill="#ffffff"/>
<path transform="matrix(.1,0,0,-.1,0,792)" stroke-width="1" stroke-linecap="butt" stroke-miterlimit="10" stroke-linejoin="miter" fill="none" stroke="#000000" d="M2150.7 3836.4H1781.2L1639.8 4177.8 1477.8 3786.7 1754.3 3672.2 1639.8 3395.6 2030.8 3233.7 1889.4 3575.1Z"/>
<path transform="matrix(.1,0,0,-.1,0,792)" d="M3480.6 5398.5 3757.2 5513 3642.6 5789.6 3366.1 5675Z"/>
<path transform="matrix(.1,0,0,-.1,0,792)" stroke-width="1" stroke-linecap="butt" stroke-miterlimit="10" stroke-linejoin="miter" fill="none" stroke="#000000" d="M3480.6 5398.5 3757.2 5513 3642.6 5789.6 3366.1 5675Z"/>
<path transform="matrix(.1,0,0,-.1,0,792)" d="M2469.4 5398.5 2583.9 5675 2307.4 5789.6 2192.8 5513Z"/>
<path transform="matrix(.1,0,0,-.1,0,792)" stroke-width="1" stroke-linecap="butt" stroke-miterlimit="10" stroke-linejoin="miter" fill="none" stroke="#000000" d="M2469.4 5398.5 2583.9 5675 2307.4 5789.6 2192.8 5513Z"/>
<path transform="matrix(.1,0,0,-.1,0,792)" d="M2469.4 2957.1 2192.8 2842.6 2307.4 2566 2583.9 2680.6Z"/>
<path transform="matrix(.1,0,0,-.1,0,792)" stroke-width="1" stroke-linecap="butt" stroke-miterlimit="10" stroke-linejoin="miter" fill="none" stroke="#000000" d="M2469.4 2957.1 2192.8 2842.6 2307.4 2566 2583.9 2680.6Z"/>
<path transform="matrix(.1,0,0,-.1,0,792)" d="M3480.6 2957.1 3366.1 2680.6 3642.6 2566 3757.2 2842.6Z"/>
<path transform="matrix(.1,0,0,-.1,0,792)" stroke-width="1" stroke-linecap="butt" stroke-miterlimit="10" stroke-linejoin="miter" fill="none" stroke="#000000" d="M3480.6 2957.1 3366.1 2680.6 3642.6 2566 3757.2 2842.6Z"/>
<path transform="matrix(.1,0,0,-.1,0,792)" d="M3919.2 3233.7 3757.2 2842.6 4148.2 2680.6 4310.2 2289.5 4472.2 2680.6 4863.3 2842.6 4472.2 3004.6 4310.2 3395.6" fill="#385c33"/>
<path transform="matrix(.1,0,0,-.1,0,792)" stroke-width="1" stroke-linecap="butt" stroke-miterlimit="10" stroke-linejoin="miter" fill="none" stroke="#000000" d="M3919.2 3233.7 3757.2 2842.6 4148.2 2680.6 4310.2 2289.5 4472.2 2680.6 4863.3 2842.6 4472.2 3004.6 4310.2 3395.6Z"/>
<path transform="matrix(.1,0,0,-.1,0,792)" d="M3919.2 5122 4310.2 4960 4472.2 5351.1 4863.3 5513 4472.2 5675 4310.2 6066.1 4148.2 5675 3757.2 5513" fill="#385c33"/>
<path transform="matrix(.1,0,0,-.1,0,792)" stroke-width="1" stroke-linecap="butt" stroke-miterlimit="10" stroke-linejoin="miter" fill="none" stroke="#000000" d="M3919.2 5122 4310.2 4960 4472.2 5351.1 4863.3 5513 4472.2 5675 4310.2 6066.1 4148.2 5675 3757.2 5513Z"/>
<path transform="matrix(.1,0,0,-.1,0,792)" d="M2030.8 5122 2192.8 5513 1801.8 5675 1639.8 6066.1 1477.8 5675 1086.7 5513 1477.8 5351.1 1639.8 4960" fill="#385c33"/>
<path transform="matrix(.1,0,0,-.1,0,792)" stroke-width="1" stroke-linecap="butt" stroke-miterlimit="10" stroke-linejoin="miter" fill="none" stroke="#000000" d="M2030.8 5122 2192.8 5513 1801.8 5675 1639.8 6066.1 1477.8 5675 1086.7 5513 1477.8 5351.1 1639.8 4960Z"/>
<path transform="matrix(.1,0,0,-.1,0,792)" d="M2030.8 3233.7 1639.8 3395.6 1477.8 3004.6 1086.7 2842.6 1477.8 2680.6 1639.8 2289.5 1801.8 2680.6 2192.8 2842.6" fill="#385c33"/>
<path transform="matrix(.1,0,0,-.1,0,792)" stroke-width="1" stroke-linecap="butt" stroke-miterlimit="10" stroke-linejoin="miter" fill="none" stroke="#000000" d="M2030.8 3233.7 1639.8 3395.6 1477.8 3004.6 1086.7 2842.6 1477.8 2680.6 1639.8 2289.5 1801.8 2680.6 2192.8 2842.6Z"/>
<path transform="matrix(.1,0,0,-.1,0,792)" d="M3757.2 5513 4148.2 5675 4310.2 6066.1 4148.2 6457.2 3757.2 6619.2 3642.6 6342.7 3366.1 6457.2 3204.1 6066.1 3366.1 5675 3642.6 5789.6" fill="#ffffff"/>
<path transform="matrix(.1,0,0,-.1,0,792)" stroke-width="1" stroke-linecap="butt" stroke-miterlimit="10" stroke-linejoin="miter" fill="none" stroke="#000000" d="M3757.2 5513 4148.2 5675 4310.2 6066.1 4148.2 6457.2 3757.2 6619.2 3642.6 6342.7 3366.1 6457.2 3204.1 6066.1 3366.1 5675 3642.6 5789.6Z"/>
<path transform="matrix(.1,0,0,-.1,0,792)" d="M2975 5513 3366.1 5675 3204.1 6066.1 3366.1 6457.2 2975 6619.2 2583.9 6457.2 2745.9 6066.1 2583.9 5675" fill="#385c33"/>
<path transform="matrix(.1,0,0,-.1,0,792)" stroke-width="1" stroke-linecap="butt" stroke-miterlimit="10" stroke-linejoin="miter" fill="none" stroke="#000000" d="M2975 5513 3366.1 5675 3204.1 6066.1 3366.1 6457.2 2975 6619.2 2583.9 6457.2 2745.9 6066.1 2583.9 5675Z"/>
<path transform="matrix(.1,0,0,-.1,0,792)" d="M2192.8 5513 2307.4 5789.6 2583.9 5675 2745.9 6066.1 2583.9 6457.2 2307.4 6342.7 2192.8 6619.2 1801.8 6457.2 1639.8 6066.1 1801.8 5675" fill="#ffffff"/>
<path transform="matrix(.1,0,0,-.1,0,792)" stroke-width="1" stroke-linecap="butt" stroke-miterlimit="10" stroke-linejoin="miter" fill="none" stroke="#000000" d="M2192.8 5513 2307.4 5789.6 2583.9 5675 2745.9 6066.1 2583.9 6457.2 2307.4 6342.7 2192.8 6619.2 1801.8 6457.2 1639.8 6066.1 1801.8 5675Z"/>
<path transform="matrix(.1,0,0,-.1,0,792)" d="M2192.8 2842.6 1801.8 2680.6 1639.8 2289.5 1801.8 1898.4 2192.8 1736.4 2307.4 2013 2583.9 1898.4 2745.9 2289.5 2583.9 2680.6 2307.4 2566" fill="#ffffff"/>
<path transform="matrix(.1,0,0,-.1,0,792)" stroke-width="1" stroke-linecap="butt" stroke-miterlimit="10" stroke-linejoin="miter" fill="none" stroke="#000000" d="M2192.8 2842.6 1801.8 2680.6 1639.8 2289.5 1801.8 1898.4 2192.8 1736.4 2307.4 2013 2583.9 1898.4 2745.9 2289.5 2583.9 2680.6 2307.4 2566Z"/>
<path transform="matrix(.1,0,0,-.1,0,792)" d="M2975 2842.6 2583.9 2680.6 2745.9 2289.5 2583.9 1898.4 2975 1736.4 3366.1 1898.4 3204.1 2289.5 3366.1 2680.6" fill="#385c33"/>
<path transform="matrix(.1,0,0,-.1,0,792)" stroke-width="1" stroke-linecap="butt" stroke-miterlimit="10" stroke-linejoin="miter" fill="none" stroke="#000000" d="M2975 2842.6 2583.9 2680.6 2745.9 2289.5 2583.9 1898.4 2975 1736.4 3366.1 1898.4 3204.1 2289.5 3366.1 2680.6Z"/>
<path transform="matrix(.1,0,0,-.1,0,792)" d="M3757.2 2842.6 3642.6 2566 3366.1 2680.6 3204.1 2289.5 3366.1 1898.4 3642.6 2013 3757.2 1736.4 4148.2 1898.4 4310.2 2289.5 4148.2 2680.6" fill="#ffffff"/>
<path transform="matrix(.1,0,0,-.1,0,792)" stroke-width="1" stroke-linecap="butt" stroke-miterlimit="10" stroke-linejoin="miter" fill="none" stroke="#000000" d="M3757.2 2842.6 3642.6 2566 3366.1 2680.6 3204.1 2289.5 3366.1 1898.4 3642.6 2013 3757.2 1736.4 4148.2 1898.4 4310.2 2289.5 4148.2 2680.6Z"/>
<path transform="matrix(.1,0,0,-.1,0,792)" d="M4195.7 3672.2 4310.2 3395.6 4586.8 3510.2 4472.2 3786.7Z"/>
<path transform="matrix(.1,0,0,-.1,0,792)" stroke-width="1" stroke-linecap="butt" stroke-miterlimit="10" stroke-linejoin="miter" fill="none" stroke="#000000" d="M4195.7 3672.2 4310.2 3395.6 4586.8 3510.2 4472.2 3786.7Z"/>
<path transform="matrix(.1,0,0,-.1,0,792)" d="M4195.7 4683.4 4472.2 4568.9 4586.8 4845.4 4310.2 4960Z"/>
<path transform="matrix(.1,0,0,-.1,0,792)" stroke-width="1" stroke-linecap="butt" stroke-miterlimit="10" stroke-linejoin="miter" fill="none" stroke="#000000" d="M4195.7 4683.4 4472.2 4568.9 4586.8 4845.4 4310.2 4960Z"/>
<path transform="matrix(.1,0,0,-.1,0,792)" d="M1754.3 4683.4 1639.8 4960 1363.2 4845.4 1477.8 4568.9Z"/>
<path transform="matrix(.1,0,0,-.1,0,792)" stroke-width="1" stroke-linecap="butt" stroke-miterlimit="10" stroke-linejoin="miter" fill="none" stroke="#000000" d="M1754.3 4683.4 1639.8 4960 1363.2 4845.4 1477.8 4568.9Z"/>
<path transform="matrix(.1,0,0,-.1,0,792)" d="M1754.3 3672.2 1477.8 3786.7 1363.2 3510.2 1639.8 3395.6Z"/>
<path transform="matrix(.1,0,0,-.1,0,792)" stroke-width="1" stroke-linecap="butt" stroke-miterlimit="10" stroke-linejoin="miter" fill="none" stroke="#000000" d="M1754.3 3672.2 1477.8 3786.7 1363.2 3510.2 1639.8 3395.6Z"/>
<path transform="matrix(.1,0,0,-.1,0,792)" d="M1639.8 4177.8 1477.8 4568.9 1086.7 4406.9 695.602 4568.9 533.602 4177.8 695.602 3786.7 1086.7 3948.7 1477.8 3786.7" fill="#385c33"/>
<path transform="matrix(.1,0,0,-.1,0,792)" stroke-width="1" stroke-linecap="butt" stroke-miterlimit="10" stroke-linejoin="miter" fill="none" stroke="#000000" d="M1639.8 4177.8 1477.8 4568.9 1086.7 4406.9 695.602 4568.9 533.602 4177.8 695.602 3786.7 1086.7 3948.7 1477.8 3786.7Z"/>
<path transform="matrix(.1,0,0,-.1,0,792)" d="M1639.8 3395.6 1363.2 3510.2 1477.8 3786.7 1086.7 3948.7 695.602 3786.7 810.199 3510.2 533.602 3395.6 695.602 3004.6 1086.7 2842.6 1477.8 3004.6" fill="#ffffff"/>
<path transform="matrix(.1,0,0,-.1,0,792)" stroke-width="1" stroke-linecap="butt" stroke-miterlimit="10" stroke-linejoin="miter" fill="none" stroke="#000000" d="M1639.8 3395.6 1363.2 3510.2 1477.8 3786.7 1086.7 3948.7 695.602 3786.7 810.199 3510.2 533.602 3395.6 695.602 3004.6 1086.7 2842.6 1477.8 3004.6Z"/>
<path transform="matrix(.1,0,0,-.1,0,792)" d="M4310.2 3395.6 4472.2 3004.6 4863.3 2842.6 5254.4 3004.6 5416.4 3395.6 5139.8 3510.2 5254.4 3786.7 4863.3 3948.7 4472.2 3786.7 4586.8 3510.2" fill="#ffffff"/>
<path transform="matrix(.1,0,0,-.1,0,792)" stroke-width="1" stroke-linecap="butt" stroke-miterlimit="10" stroke-linejoin="miter" fill="none" stroke="#000000" d="M4310.2 3395.6 4472.2 3004.6 4863.3 2842.6 5254.4 3004.6 5416.4 3395.6 5139.8 3510.2 5254.4 3786.7 4863.3 3948.7 4472.2 3786.7 4586.8 3510.2Z"/>
<path transform="matrix(.1,0,0,-.1,0,792)" d="M4310.2 4177.8 4472.2 3786.7 4863.3 3948.7 5254.4 3786.7 5416.4 4177.8 5254.4 4568.9 4863.3 4406.9 4472.2 4568.9" fill="#385c33"/>
<path transform="matrix(.1,0,0,-.1,0,792)" stroke-width="1" stroke-linecap="butt" stroke-miterlimit="10" stroke-linejoin="miter" fill="none" stroke="#000000" d="M4310.2 4177.8 4472.2 3786.7 4863.3 3948.7 5254.4 3786.7 5416.4 4177.8 5254.4 4568.9 4863.3 4406.9 4472.2 4568.9Z"/>
<path transform="matrix(.1,0,0,-.1,0,792)" d="M4310.2 4960 4586.8 4845.4 4472.2 4568.9 4863.3 4406.9 5254.4 4568.9 5139.8 4845.4 5416.4 4960 5254.4 5351.1 4863.3 5513 4472.2 5351.1" fill="#ffffff"/>
<path transform="matrix(.1,0,0,-.1,0,792)" stroke-width="1" stroke-linecap="butt" stroke-miterlimit="10" stroke-linejoin="miter" fill="none" stroke="#000000" d="M4310.2 4960 4586.8 4845.4 4472.2 4568.9 4863.3 4406.9 5254.4 4568.9 5139.8 4845.4 5416.4 4960 5254.4 5351.1 4863.3 5513 4472.2 5351.1Z"/>
<path transform="matrix(.1,0,0,-.1,0,792)" d="M1639.8 4960 1477.8 5351.1 1086.7 5513 695.602 5351.1 533.602 4960 810.199 4845.4 695.602 4568.9 1086.7 4406.9 1477.8 4568.9 1363.2 4845.4" fill="#ffffff"/>
<path transform="matrix(.1,0,0,-.1,0,792)" stroke-width="1" stroke-linecap="butt" stroke-miterlimit="10" stroke-linejoin="miter" fill="none" stroke="#000000" d="M1639.8 4960 1477.8 5351.1 1086.7 5513 695.602 5351.1 533.602 4960 810.199 4845.4 695.602 4568.9 1086.7 4406.9 1477.8 4568.9 1363.2 4845.4Z"/>
<path transform="matrix(.1,0,0,-.1,0,792)" d="M4310.2 6066.1 4472.2 6457.2 4863.3 6619.2 4472.2 6781.2 4310.2 7172.3 3919.2 7010.3 3757.2 6619.2 4148.2 6457.2" fill="#385c33"/>
<path transform="matrix(.1,0,0,-.1,0,792)" stroke-width="1" stroke-linecap="butt" stroke-miterlimit="10" stroke-linejoin="miter" fill="none" stroke="#000000" d="M4310.2 6066.1 4472.2 6457.2 4863.3 6619.2 4472.2 6781.2 4310.2 7172.3 3919.2 7010.3 3757.2 6619.2 4148.2 6457.2Z"/>
<path transform="matrix(.1,0,0,-.1,0,792)" d="M4310.2 6066.1 4472.2 5675 4863.3 5513 5254.4 5675 5416.4 6066.1 5254.4 6457.2 4863.3 6619.2 4472.2 6457.2" fill="#f8c499"/>
<path transform="matrix(.1,0,0,-.1,0,792)" stroke-width="1" stroke-linecap="butt" stroke-miterlimit="10" stroke-linejoin="miter" fill="none" stroke="#000000" d="M4310.2 6066.1 4472.2 5675 4863.3 5513 5254.4 5675 5416.4 6066.1 5254.4 6457.2 4863.3 6619.2 4472.2 6457.2Z"/>
<path transform="matrix(.1,0,0,-.1,0,792)" d="M1639.8 6066.1 1477.8 6457.2 1086.7 6619.2 695.602 6457.2 533.602 6066.1 695.602 5675 1086.7 5513 1477.8 5675" fill="#f8c499"/>
<path transform="matrix(.1,0,0,-.1,0,792)" stroke-width="1" stroke-linecap="butt" stroke-miterlimit="10" stroke-linejoin="miter" fill="none" stroke="#000000" d="M1639.8 6066.1 1477.8 6457.2 1086.7 6619.2 695.602 6457.2 533.602 6066.1 695.602 5675 1086.7 5513 1477.8 5675Z"/>
<path transform="matrix(.1,0,0,-.1,0,792)" d="M1639.8 6066.1 1801.8 6457.2 2192.8 6619.2 2030.8 7010.3 1639.8 7172.3 1477.8 6781.2 1086.7 6619.2 1477.8 6457.2" fill="#385c33"/>
<path transform="matrix(.1,0,0,-.1,0,792)" stroke-width="1" stroke-linecap="butt" stroke-miterlimit="10" stroke-linejoin="miter" fill="none" stroke="#000000" d="M1639.8 6066.1 1801.8 6457.2 2192.8 6619.2 2030.8 7010.3 1639.8 7172.3 1477.8 6781.2 1086.7 6619.2 1477.8 6457.2Z"/>
<path transform="matrix(.1,0,0,-.1,0,792)" d="M1639.8 2289.5 1477.8 1898.4 1086.7 1736.4 1477.8 1574.4 1639.8 1183.4 2030.8 1345.3 2192.8 1736.4 1801.8 1898.4" fill="#385c33"/>
<path transform="matrix(.1,0,0,-.1,0,792)" stroke-width="1" stroke-linecap="butt" stroke-miterlimit="10" stroke-linejoin="miter" fill="none" stroke="#000000" d="M1639.8 2289.5 1477.8 1898.4 1086.7 1736.4 1477.8 1574.4 1639.8 1183.4 2030.8 1345.3 2192.8 1736.4 1801.8 1898.4Z"/>
<path transform="matrix(.1,0,0,-.1,0,792)" d="M1639.8 2289.5 1477.8 2680.6 1086.7 2842.6 695.602 2680.6 533.602 2289.5 695.602 1898.4 1086.7 1736.4 1477.8 1898.4" fill="#f8c499"/>
<path transform="matrix(.1,0,0,-.1,0,792)" stroke-width="1" stroke-linecap="butt" stroke-miterlimit="10" stroke-linejoin="miter" fill="none" stroke="#000000" d="M1639.8 2289.5 1477.8 2680.6 1086.7 2842.6 695.602 2680.6 533.602 2289.5 695.602 1898.4 1086.7 1736.4 1477.8 1898.4Z"/>
<path transform="matrix(.1,0,0,-.1,0,792)" d="M4310.2 2289.5 4472.2 1898.4 4863.3 1736.4 5254.4 1898.4 5416.4 2289.5 5254.4 2680.6 4863.3 2842.6 4472.2 2680.6" fill="#f8c499"/>
<path transform="matrix(.1,0,0,-.1,0,792)" stroke-width="1" stroke-linecap="butt" stroke-miterlimit="10" stroke-linejoin="miter" fill="none" stroke="#000000" d="M4310.2 2289.5 4472.2 1898.4 4863.3 1736.4 5254.4 1898.4 5416.4 2289.5 5254.4 2680.6 4863.3 2842.6 4472.2 2680.6Z"/>
<path transform="matrix(.1,0,0,-.1,0,792)" d="M4310.2 2289.5 4148.2 1898.4 3757.2 1736.4 3919.2 1345.3 4310.2 1183.4 4472.2 1574.4 4863.3 1736.4 4472.2 1898.4" fill="#385c33"/>
<path transform="matrix(.1,0,0,-.1,0,792)" stroke-width="1" stroke-linecap="butt" stroke-miterlimit="10" stroke-linejoin="miter" fill="none" stroke="#000000" d="M4310.2 2289.5 4148.2 1898.4 3757.2 1736.4 3919.2 1345.3 4310.2 1183.4 4472.2 1574.4 4863.3 1736.4 4472.2 1898.4Z"/>
<path transform="matrix(.1,0,0,-.1,0,792)" d="M3642.6 6342.7 3757.2 6619.2 3480.6 6733.7 3366.1 6457.2Z"/>
<path transform="matrix(.1,0,0,-.1,0,792)" stroke-width="1" stroke-linecap="butt" stroke-miterlimit="10" stroke-linejoin="miter" fill="none" stroke="#000000" d="M3642.6 6342.7 3757.2 6619.2 3480.6 6733.7 3366.1 6457.2Z"/>
<path transform="matrix(.1,0,0,-.1,0,792)" d="M2307.4 6342.7 2583.9 6457.2 2469.4 6733.7 2192.8 6619.2Z"/>
<path transform="matrix(.1,0,0,-.1,0,792)" stroke-width="1" stroke-linecap="butt" stroke-miterlimit="10" stroke-linejoin="miter" fill="none" stroke="#000000" d="M2307.4 6342.7 2583.9 6457.2 2469.4 6733.7 2192.8 6619.2Z"/>
<path transform="matrix(.1,0,0,-.1,0,792)" d="M2307.4 2013 2192.8 1736.4 2469.4 1621.9 2583.9 1898.4Z"/>
<path transform="matrix(.1,0,0,-.1,0,792)" stroke-width="1" stroke-linecap="butt" stroke-miterlimit="10" stroke-linejoin="miter" fill="none" stroke="#000000" d="M2307.4 2013 2192.8 1736.4 2469.4 1621.9 2583.9 1898.4Z"/>
<path transform="matrix(.1,0,0,-.1,0,792)" d="M3642.6 2013 3366.1 1898.4 3480.6 1621.9 3757.2 1736.4Z"/>
<path transform="matrix(.1,0,0,-.1,0,792)" stroke-width="1" stroke-linecap="butt" stroke-miterlimit="10" stroke-linejoin="miter" fill="none" stroke="#000000" d="M3642.6 2013 3366.1 1898.4 3480.6 1621.9 3757.2 1736.4Z"/>
<path transform="matrix(.1,0,0,-.1,0,792)" d="M3366.1 6457.2 3480.6 6733.7 3757.2 6619.2 3919.2 7010.3 3577.7 6868.9 3316.4 7130.2V6760.6L2975 6619.2" fill="#ffffff"/>
<path transform="matrix(.1,0,0,-.1,0,792)" stroke-width="1" stroke-linecap="butt" stroke-miterlimit="10" stroke-linejoin="miter" fill="none" stroke="#000000" d="M3366.1 6457.2 3480.6 6733.7 3757.2 6619.2 3919.2 7010.3 3577.7 6868.9 3316.4 7130.2V6760.6L2975 6619.2Z"/>
<path transform="matrix(.1,0,0,-.1,0,792)" d="M2583.9 6457.2 2975 6619.2 2633.6 6760.6V7130.2L2372.3 6868.9 2030.8 7010.3 2192.8 6619.2 2469.4 6733.7" fill="#ffffff"/>
<path transform="matrix(.1,0,0,-.1,0,792)" stroke-width="1" stroke-linecap="butt" stroke-miterlimit="10" stroke-linejoin="miter" fill="none" stroke="#000000" d="M2583.9 6457.2 2975 6619.2 2633.6 6760.6V7130.2L2372.3 6868.9 2030.8 7010.3 2192.8 6619.2 2469.4 6733.7Z"/>
<path transform="matrix(.1,0,0,-.1,0,792)" d="M2583.9 1898.4 2469.4 1621.9 2192.8 1736.4 2030.8 1345.3 2372.3 1486.8 2633.6 1225.5V1595L2975 1736.4" fill="#ffffff"/>
<path transform="matrix(.1,0,0,-.1,0,792)" stroke-width="1" stroke-linecap="butt" stroke-miterlimit="10" stroke-linejoin="miter" fill="none" stroke="#000000" d="M2583.9 1898.4 2469.4 1621.9 2192.8 1736.4 2030.8 1345.3 2372.3 1486.8 2633.6 1225.5V1595L2975 1736.4Z"/>
<path transform="matrix(.1,0,0,-.1,0,792)" d="M3366.1 1898.4 2975 1736.4 3316.4 1595V1225.5L3577.7 1486.8 3919.2 1345.3 3757.2 1736.4 3480.6 1621.9" fill="#ffffff"/>
<path transform="matrix(.1,0,0,-.1,0,792)" stroke-width="1" stroke-linecap="butt" stroke-miterlimit="10" stroke-linejoin="miter" fill="none" stroke="#000000" d="M3366.1 1898.4 2975 1736.4 3316.4 1595V1225.5L3577.7 1486.8 3919.2 1345.3 3757.2 1736.4 3480.6 1621.9Z"/>
<path transform="matrix(.1,0,0,-.1,0,792)" d="M2975 6619.2 3316.4 6760.6V7130.2L2975 7471.6 2633.6 7130.2V6760.6" fill="#404284"/>
<path transform="matrix(.1,0,0,-.1,0,792)" stroke-width="1" stroke-linecap="butt" stroke-miterlimit="10" stroke-linejoin="miter" fill="none" stroke="#000000" d="M2975 6619.2 3316.4 6760.6V7130.2L2975 7471.6 2633.6 7130.2V6760.6Z"/>
<path transform="matrix(.1,0,0,-.1,0,792)" d="M2975 1736.4 2633.6 1595V1225.5L2975 884 3316.4 1225.5V1595" fill="#404284"/>
<path transform="matrix(.1,0,0,-.1,0,792)" stroke-width="1" stroke-linecap="butt" stroke-miterlimit="10" stroke-linejoin="miter" fill="none" stroke="#000000" d="M2975 1736.4 2633.6 1595V1225.5L2975 884 3316.4 1225.5V1595Z"/>
<path transform="matrix(.1,0,0,-.1,0,792)" d="M4472.2 6781.2 4863.3 6619.2 5254.4 6781.2 5416.4 7172.3 5139.8 7286.8 5254.4 7563.3 4863.3 7725.3 4472.2 7563.3 4586.8 7286.8 4310.2 7172.3" fill="#ffffff"/>
<path transform="matrix(.1,0,0,-.1,0,792)" stroke-width="1" stroke-linecap="butt" stroke-miterlimit="10" stroke-linejoin="miter" fill="none" stroke="#000000" d="M4472.2 6781.2 4863.3 6619.2 5254.4 6781.2 5416.4 7172.3 5139.8 7286.8 5254.4 7563.3 4863.3 7725.3 4472.2 7563.3 4586.8 7286.8 4310.2 7172.3Z"/>
<path transform="matrix(.1,0,0,-.1,0,792)" d="M1477.8 6781.2 1639.8 7172.3 1363.2 7286.8 1477.8 7563.3 1086.7 7725.3 695.602 7563.3 810.199 7286.8 533.602 7172.3 695.602 6781.2 1086.7 6619.2" fill="#ffffff"/>
<path transform="matrix(.1,0,0,-.1,0,792)" stroke-width="1" stroke-linecap="butt" stroke-miterlimit="10" stroke-linejoin="miter" fill="none" stroke="#000000" d="M1477.8 6781.2 1639.8 7172.3 1363.2 7286.8 1477.8 7563.3 1086.7 7725.3 695.602 7563.3 810.199 7286.8 533.602 7172.3 695.602 6781.2 1086.7 6619.2Z"/>
<path transform="matrix(.1,0,0,-.1,0,792)" d="M1086.7 6619.2 695.602 6781.2 533.602 7172.3 142.5 7010.3-19.5 6619.2 371.602 6457.2 533.602 6066.1 695.602 6457.2" fill="#385c33"/>
<path transform="matrix(.1,0,0,-.1,0,792)" stroke-width="1" stroke-linecap="butt" stroke-miterlimit="10" stroke-linejoin="miter" fill="none" stroke="#000000" d="M1086.7 6619.2 695.602 6781.2 533.602 7172.3 142.5 7010.3-19.5 6619.2 371.602 6457.2 533.602 6066.1 695.602 6457.2Z"/>
<path transform="matrix(.1,0,0,-.1,0,792)" d="M1086.7 5513 695.602 5675 533.602 6066.1 371.602 5675-19.5 5513 142.5 5122 533.602 4960 695.602 5351.1" fill="#385c33"/>
<path transform="matrix(.1,0,0,-.1,0,792)" stroke-width="1" stroke-linecap="butt" stroke-miterlimit="10" stroke-linejoin="miter" fill="none" stroke="#000000" d="M1086.7 5513 695.602 5675 533.602 6066.1 371.602 5675-19.5 5513 142.5 5122 533.602 4960 695.602 5351.1Z"/>
<path transform="matrix(.1,0,0,-.1,0,792)" d="M1086.7 2842.6 695.602 3004.6 533.602 3395.6 142.5 3233.7-19.5 2842.6 371.602 2680.6 533.602 2289.5 695.602 2680.6" fill="#385c33"/>
<path transform="matrix(.1,0,0,-.1,0,792)" stroke-width="1" stroke-linecap="butt" stroke-miterlimit="10" stroke-linejoin="miter" fill="none" stroke="#000000" d="M1086.7 2842.6 695.602 3004.6 533.602 3395.6 142.5 3233.7-19.5 2842.6 371.602 2680.6 533.602 2289.5 695.602 2680.6Z"/>
<path transform="matrix(.1,0,0,-.1,0,792)" d="M1086.7 1736.4 695.602 1574.4 533.602 1183.4 810.199 1068.8 695.602 792.301 1086.7 630.301 1477.8 792.301 1363.2 1068.8 1639.8 1183.4 1477.8 1574.4" fill="#ffffff"/>
<path transform="matrix(.1,0,0,-.1,0,792)" stroke-width="1" stroke-linecap="butt" stroke-miterlimit="10" stroke-linejoin="miter" fill="none" stroke="#000000" d="M1086.7 1736.4 695.602 1574.4 533.602 1183.4 810.199 1068.8 695.602 792.301 1086.7 630.301 1477.8 792.301 1363.2 1068.8 1639.8 1183.4 1477.8 1574.4Z"/>
<path transform="matrix(.1,0,0,-.1,0,792)" d="M1086.7 1736.4 695.602 1898.4 533.602 2289.5 371.602 1898.4-19.5 1736.4 142.5 1345.3 533.602 1183.4 695.602 1574.4" fill="#385c33"/>
<path transform="matrix(.1,0,0,-.1,0,792)" stroke-width="1" stroke-linecap="butt" stroke-miterlimit="10" stroke-linejoin="miter" fill="none" stroke="#000000" d="M1086.7 1736.4 695.602 1898.4 533.602 2289.5 371.602 1898.4-19.5 1736.4 142.5 1345.3 533.602 1183.4 695.602 1574.4Z"/>
<path transform="matrix(.1,0,0,-.1,0,792)" d="M4863.3 1736.4 5254.4 1574.4 5416.4 1183.4 5807.5 1345.3 5969.5 1736.4 5578.4 1898.4 5416.4 2289.5 5254.4 1898.4" fill="#385c33"/>
<path transform="matrix(.1,0,0,-.1,0,792)" stroke-width="1" stroke-linecap="butt" stroke-miterlimit="10" stroke-linejoin="miter" fill="none" stroke="#000000" d="M4863.3 1736.4 5254.4 1574.4 5416.4 1183.4 5807.5 1345.3 5969.5 1736.4 5578.4 1898.4 5416.4 2289.5 5254.4 1898.4Z"/>
<path transform="matrix(.1,0,0,-.1,0,792)" d="M4863.3 1736.4 4472.2 1574.4 4310.2 1183.4 4586.8 1068.8 4472.2 792.301 4863.3 630.301 5254.4 792.301 5139.8 1068.8 5416.4 1183.4 5254.4 1574.4" fill="#ffffff"/>
<path transform="matrix(.1,0,0,-.1,0,792)" stroke-width="1" stroke-linecap="butt" stroke-miterlimit="10" stroke-linejoin="miter" fill="none" stroke="#000000" d="M4863.3 1736.4 4472.2 1574.4 4310.2 1183.4 4586.8 1068.8 4472.2 792.301 4863.3 630.301 5254.4 792.301 5139.8 1068.8 5416.4 1183.4 5254.4 1574.4Z"/>
<path transform="matrix(.1,0,0,-.1,0,792)" d="M4863.3 2842.6 5254.4 2680.6 5416.4 2289.5 5578.4 2680.6 5969.5 2842.6 5807.5 3233.7 5416.4 3395.6 5254.4 3004.6" fill="#385c33"/>
<path transform="matrix(.1,0,0,-.1,0,792)" stroke-width="1" stroke-linecap="butt" stroke-miterlimit="10" stroke-linejoin="miter" fill="none" stroke="#000000" d="M4863.3 2842.6 5254.4 2680.6 5416.4 2289.5 5578.4 2680.6 5969.5 2842.6 5807.5 3233.7 5416.4 3395.6 5254.4 3004.6Z"/>
<path transform="matrix(.1,0,0,-.1,0,792)" d="M4863.3 5513 5254.4 5351.1 5416.4 4960 5807.5 5122 5969.5 5513 5578.4 5675 5416.4 6066.1 5254.4 5675" fill="#385c33"/>
<path transform="matrix(.1,0,0,-.1,0,792)" stroke-width="1" stroke-linecap="butt" stroke-miterlimit="10" stroke-linejoin="miter" fill="none" stroke="#000000" d="M4863.3 5513 5254.4 5351.1 5416.4 4960 5807.5 5122 5969.5 5513 5578.4 5675 5416.4 6066.1 5254.4 5675Z"/>
<path transform="matrix(.1,0,0,-.1,0,792)" d="M4863.3 6619.2 5254.4 6457.2 5416.4 6066.1 5578.4 6457.2 5969.5 6619.2 5807.5 7010.3 5416.4 7172.3 5254.4 6781.2" fill="#385c33"/>
<path transform="matrix(.1,0,0,-.1,0,792)" stroke-width="1" stroke-linecap="butt" stroke-miterlimit="10" stroke-linejoin="miter" fill="none" stroke="#000000" d="M4863.3 6619.2 5254.4 6457.2 5416.4 6066.1 5578.4 6457.2 5969.5 6619.2 5807.5 7010.3 5416.4 7172.3 5254.4 6781.2Z"/>
<path transform="matrix(.1,0,0,-.1,0,792)" d="M3577.7 6868.9 3919.2 7010.3 4060.6 7351.7 3799.3 7613H3316.4V7130.2" fill="#404284"/>
<path transform="matrix(.1,0,0,-.1,0,792)" stroke-width="1" stroke-linecap="butt" stroke-miterlimit="10" stroke-linejoin="miter" fill="none" stroke="#000000" d="M3577.7 6868.9 3919.2 7010.3 4060.6 7351.7 3799.3 7613H3316.4V7130.2Z"/>
<path transform="matrix(.1,0,0,-.1,0,792)" d="M2372.3 6868.9 2633.6 7130.2V7613H2150.7L1889.4 7351.7 2030.8 7010.3" fill="#404284"/>
<path transform="matrix(.1,0,0,-.1,0,792)" stroke-width="1" stroke-linecap="butt" stroke-miterlimit="10" stroke-linejoin="miter" fill="none" stroke="#000000" d="M2372.3 6868.9 2633.6 7130.2V7613H2150.7L1889.4 7351.7 2030.8 7010.3Z"/>
<path transform="matrix(.1,0,0,-.1,0,792)" d="M2372.3 1486.8 2030.8 1345.3 1889.4 1003.9 2150.7 742.602H2633.6V1225.5" fill="#404284"/>
<path transform="matrix(.1,0,0,-.1,0,792)" stroke-width="1" stroke-linecap="butt" stroke-miterlimit="10" stroke-linejoin="miter" fill="none" stroke="#000000" d="M2372.3 1486.8 2030.8 1345.3 1889.4 1003.9 2150.7 742.602H2633.6V1225.5Z"/>
<path transform="matrix(.1,0,0,-.1,0,792)" d="M3577.7 1486.8 3316.4 1225.5V742.602H3799.3L4060.6 1003.9 3919.2 1345.3" fill="#404284"/>
<path transform="matrix(.1,0,0,-.1,0,792)" stroke-width="1" stroke-linecap="butt" stroke-miterlimit="10" stroke-linejoin="miter" fill="none" stroke="#000000" d="M3577.7 1486.8 3316.4 1225.5V742.602H3799.3L4060.6 1003.9 3919.2 1345.3Z"/>
<path transform="matrix(.1,0,0,-.1,0,792)" d="M3919.2 7010.3 4310.2 7172.3 4195.7 7448.8 4472.2 7563.3 4310.2 7954.4 4168.8 7613H3799.3L4060.6 7351.7" fill="#ffffff"/>
<path transform="matrix(.1,0,0,-.1,0,792)" stroke-width="1" stroke-linecap="butt" stroke-miterlimit="10" stroke-linejoin="miter" fill="none" stroke="#000000" d="M3919.2 7010.3 4310.2 7172.3 4195.7 7448.8 4472.2 7563.3 4310.2 7954.4 4168.8 7613H3799.3L4060.6 7351.7Z"/>
<path transform="matrix(.1,0,0,-.1,0,792)" d="M2030.8 7010.3 1889.4 7351.7 2150.7 7613H1781.2L1639.8 7954.4 1477.8 7563.3 1754.3 7448.8 1639.8 7172.3" fill="#ffffff"/>
<path transform="matrix(.1,0,0,-.1,0,792)" stroke-width="1" stroke-linecap="butt" stroke-miterlimit="10" stroke-linejoin="miter" fill="none" stroke="#000000" d="M2030.8 7010.3 1889.4 7351.7 2150.7 7613H1781.2L1639.8 7954.4 1477.8 7563.3 1754.3 7448.8 1639.8 7172.3Z"/>
<path transform="matrix(.1,0,0,-.1,0,792)" d="M2030.8 1345.3 1639.8 1183.4 1754.3 906.801 1477.8 792.301 1639.8 401.199 1781.2 742.602H2150.7L1889.4 1003.9" fill="#ffffff"/>
<path transform="matrix(.1,0,0,-.1,0,792)" stroke-width="1" stroke-linecap="butt" stroke-miterlimit="10" stroke-linejoin="miter" fill="none" stroke="#000000" d="M2030.8 1345.3 1639.8 1183.4 1754.3 906.801 1477.8 792.301 1639.8 401.199 1781.2 742.602H2150.7L1889.4 1003.9Z"/>
<path transform="matrix(.1,0,0,-.1,0,792)" d="M3919.2 1345.3 4060.6 1003.9 3799.3 742.602H4168.8L4310.2 401.199 4472.2 792.301 4195.7 906.801 4310.2 1183.4" fill="#ffffff"/>
<path transform="matrix(.1,0,0,-.1,0,792)" stroke-width="1" stroke-linecap="butt" stroke-miterlimit="10" stroke-linejoin="miter" fill="none" stroke="#000000" d="M3919.2 1345.3 4060.6 1003.9 3799.3 742.602H4168.8L4310.2 401.199 4472.2 792.301 4195.7 906.801 4310.2 1183.4Z"/>
<path transform="matrix(.1,0,0,-.1,0,792)" d="M3316.4 7130.2V7613H3116.4L2975 7471.6Z" fill="#f8c499"/>
<path transform="matrix(.1,0,0,-.1,0,792)" stroke-width="1" stroke-linecap="butt" stroke-miterlimit="10" stroke-linejoin="miter" fill="none" stroke="#000000" d="M3316.4 7130.2V7613H3116.4L2975 7471.6Z"/>
<path transform="matrix(.1,0,0,-.1,0,792)" d="M2633.6 7130.2 2975 7471.6 2833.6 7613H2633.6Z" fill="#f8c499"/>
<path transform="matrix(.1,0,0,-.1,0,792)" stroke-width="1" stroke-linecap="butt" stroke-miterlimit="10" stroke-linejoin="miter" fill="none" stroke="#000000" d="M2633.6 7130.2 2975 7471.6 2833.6 7613H2633.6Z"/>
<path transform="matrix(.1,0,0,-.1,0,792)" d="M1639.8 7172.3 1754.3 7448.8 1477.8 7563.3 1363.2 7286.8Z"/>
<path transform="matrix(.1,0,0,-.1,0,792)" stroke-width="1" stroke-linecap="butt" stroke-miterlimit="10" stroke-linejoin="miter" fill="none" stroke="#000000" d="M1639.8 7172.3 1754.3 7448.8 1477.8 7563.3 1363.2 7286.8Z"/>
<path transform="matrix(.1,0,0,-.1,0,792)" d="M4310.2 7172.3 4586.8 7286.8 4472.2 7563.3 4195.7 7448.8Z"/>
<path transform="matrix(.1,0,0,-.1,0,792)" stroke-width="1" stroke-linecap="butt" stroke-miterlimit="10" stroke-linejoin="miter" fill="none" stroke="#000000" d="M4310.2 7172.3 4586.8 7286.8 4472.2 7563.3 4195.7 7448.8Z"/>
<path transform="matrix(.1,0,0,-.1,0,792)" d="M810.199 4845.4 533.602 4960 419.102 4683.4 695.602 4568.9Z"/>
<path transform="matrix(.1,0,0,-.1,0,792)" stroke-width="1" stroke-linecap="butt" stroke-miterlimit="10" stroke-linejoin="miter" fill="none" stroke="#000000" d="M810.199 4845.4 533.602 4960 419.102 4683.4 695.602 4568.9Z"/>
<path transform="matrix(.1,0,0,-.1,0,792)" d="M810.199 3510.2 695.602 3786.7 419.102 3672.2 533.602 3395.6Z"/>
<path transform="matrix(.1,0,0,-.1,0,792)" stroke-width="1" stroke-linecap="butt" stroke-miterlimit="10" stroke-linejoin="miter" fill="none" stroke="#000000" d="M810.199 3510.2 695.602 3786.7 419.102 3672.2 533.602 3395.6Z"/>
<path transform="matrix(.1,0,0,-.1,0,792)" d="M5139.8 3510.2 5416.4 3395.6 5530.9 3672.2 5254.4 3786.7Z"/>
<path transform="matrix(.1,0,0,-.1,0,792)" stroke-width="1" stroke-linecap="butt" stroke-miterlimit="10" stroke-linejoin="miter" fill="none" stroke="#000000" d="M5139.8 3510.2 5416.4 3395.6 5530.9 3672.2 5254.4 3786.7Z"/>
<path transform="matrix(.1,0,0,-.1,0,792)" d="M5139.8 4845.4 5254.4 4568.9 5530.9 4683.4 5416.4 4960Z"/>
<path transform="matrix(.1,0,0,-.1,0,792)" stroke-width="1" stroke-linecap="butt" stroke-miterlimit="10" stroke-linejoin="miter" fill="none" stroke="#000000" d="M5139.8 4845.4 5254.4 4568.9 5530.9 4683.4 5416.4 4960Z"/>
<path transform="matrix(.1,0,0,-.1,0,792)" d="M2633.6 1225.5V742.602H2833.6L2975 884Z" fill="#f8c499"/>
<path transform="matrix(.1,0,0,-.1,0,792)" stroke-width="1" stroke-linecap="butt" stroke-miterlimit="10" stroke-linejoin="miter" fill="none" stroke="#000000" d="M2633.6 1225.5V742.602H2833.6L2975 884Z"/>
<path transform="matrix(.1,0,0,-.1,0,792)" d="M3316.4 1225.5 2975 884 3116.4 742.602H3316.4Z" fill="#f8c499"/>
<path transform="matrix(.1,0,0,-.1,0,792)" stroke-width="1" stroke-linecap="butt" stroke-miterlimit="10" stroke-linejoin="miter" fill="none" stroke="#000000" d="M3316.4 1225.5 2975 884 3116.4 742.602H3316.4Z"/>
<path transform="matrix(.1,0,0,-.1,0,792)" d="M4310.2 1183.4 4195.7 906.801 4472.2 792.301 4586.8 1068.8Z"/>
<path transform="matrix(.1,0,0,-.1,0,792)" stroke-width="1" stroke-linecap="butt" stroke-miterlimit="10" stroke-linejoin="miter" fill="none" stroke="#000000" d="M4310.2 1183.4 4195.7 906.801 4472.2 792.301 4586.8 1068.8Z"/>
<path transform="matrix(.1,0,0,-.1,0,792)" d="M1639.8 1183.4 1363.2 1068.8 1477.8 792.301 1754.3 906.801Z"/>
<path transform="matrix(.1,0,0,-.1,0,792)" stroke-width="1" stroke-linecap="butt" stroke-miterlimit="10" stroke-linejoin="miter" fill="none" stroke="#000000" d="M1639.8 1183.4 1363.2 1068.8 1477.8 792.301 1754.3 906.801Z"/>
<path transform="matrix(.1,0,0,-.1,0,792)" d="M5139.8 7286.8 5416.4 7172.3 5530.9 7448.8 5254.4 7563.3Z"/>
<path transform="matrix(.1,0,0,-.1,0,792)" stroke-width="1" stroke-linecap="butt" stroke-miterlimit="10" stroke-linejoin="miter" fill="none" stroke="#000000" d="M5139.8 7286.8 5416.4 7172.3 5530.9 7448.8 5254.4 7563.3Z"/>
<path transform="matrix(.1,0,0,-.1,0,792)" d="M810.199 7286.8 695.602 7563.3 419.102 7448.8 533.602 7172.3Z"/>
<path transform="matrix(.1,0,0,-.1,0,792)" stroke-width="1" stroke-linecap="butt" stroke-miterlimit="10" stroke-linejoin="miter" fill="none" stroke="#000000" d="M810.199 7286.8 695.602 7563.3 419.102 7448.8 533.602 7172.3Z"/>
<path transform="matrix(.1,0,0,-.1,0,792)" d="M695.602 4568.9 419.102 4683.4 533.602 4960 142.5 5122 284 4780.5 22.6016 4519.2H392.199L533.602 4177.8" fill="#ffffff"/>
<path transform="matrix(.1,0,0,-.1,0,792)" stroke-width="1" stroke-linecap="butt" stroke-miterlimit="10" stroke-linejoin="miter" fill="none" stroke="#000000" d="M695.602 4568.9 419.102 4683.4 533.602 4960 142.5 5122 284 4780.5 22.6016 4519.2H392.199L533.602 4177.8Z"/>
<path transform="matrix(.1,0,0,-.1,0,792)" d="M695.602 3786.7 533.602 4177.8 392.199 3836.4H22.6016L284 3575.1 142.5 3233.7 533.602 3395.6 419.102 3672.2" fill="#ffffff"/>
<path transform="matrix(.1,0,0,-.1,0,792)" stroke-width="1" stroke-linecap="butt" stroke-miterlimit="10" stroke-linejoin="miter" fill="none" stroke="#000000" d="M695.602 3786.7 533.602 4177.8 392.199 3836.4H22.6016L284 3575.1 142.5 3233.7 533.602 3395.6 419.102 3672.2Z"/>
<path transform="matrix(.1,0,0,-.1,0,792)" d="M5254.4 3786.7 5530.9 3672.2 5416.4 3395.6 5807.5 3233.7 5666 3575.1 5927.4 3836.4H5557.8L5416.4 4177.8" fill="#ffffff"/>
<path transform="matrix(.1,0,0,-.1,0,792)" stroke-width="1" stroke-linecap="butt" stroke-miterlimit="10" stroke-linejoin="miter" fill="none" stroke="#000000" d="M5254.4 3786.7 5530.9 3672.2 5416.4 3395.6 5807.5 3233.7 5666 3575.1 5927.4 3836.4H5557.8L5416.4 4177.8Z"/>
<path transform="matrix(.1,0,0,-.1,0,792)" d="M5254.4 4568.9 5416.4 4177.8 5557.8 4519.2H5927.4L5666 4780.5 5807.5 5122 5416.4 4960 5530.9 4683.4" fill="#ffffff"/>
<path transform="matrix(.1,0,0,-.1,0,792)" stroke-width="1" stroke-linecap="butt" stroke-miterlimit="10" stroke-linejoin="miter" fill="none" stroke="#000000" d="M5254.4 4568.9 5416.4 4177.8 5557.8 4519.2H5927.4L5666 4780.5 5807.5 5122 5416.4 4960 5530.9 4683.4Z"/>
<path transform="matrix(.1,0,0,-.1,0,792)" d="M810.199 1068.8 533.602 1183.4 419.102 906.801 695.602 792.301Z"/>
<path transform="matrix(.1,0,0,-.1,0,792)" stroke-width="1" stroke-linecap="butt" stroke-miterlimit="10" stroke-linejoin="miter" fill="none" stroke="#000000" d="M810.199 1068.8 533.602 1183.4 419.102 906.801 695.602 792.301Z"/>
<path transform="matrix(.1,0,0,-.1,0,792)" d="M5139.8 1068.8 5254.4 792.301 5530.9 906.801 5416.4 1183.4Z"/>
<path transform="matrix(.1,0,0,-.1,0,792)" stroke-width="1" stroke-linecap="butt" stroke-miterlimit="10" stroke-linejoin="miter" fill="none" stroke="#000000" d="M5139.8 1068.8 5254.4 792.301 5530.9 906.801 5416.4 1183.4Z"/>
<path transform="matrix(.1,0,0,-.1,0,792)" d="M2975 7471.6 3116.4 7613H3316.4V7813L3457.8 7954.4 3316.4 8095.9V8295.9H3116.4L2975 8437.3 2833.6 8295.9H2633.6V8095.9L2492.2 7954.4 2633.6 7813V7613H2833.6" fill="#521f1f"/>
<path transform="matrix(.1,0,0,-.1,0,792)" stroke-width="1" stroke-linecap="butt" stroke-miterlimit="10" stroke-linejoin="miter" fill="none" stroke="#000000" d="M2975 7471.6 3116.4 7613H3316.4V7813L3457.8 7954.4 3316.4 8095.9V8295.9H3116.4L2975 8437.3 2833.6 8295.9H2633.6V8095.9L2492.2 7954.4 2633.6 7813V7613H2833.6Z"/>
<path transform="matrix(.1,0,0,-.1,0,792)" d="M2975 884 2833.6 742.602H2633.6V542.602L2492.2 401.199 2633.6 259.801V59.8008H2833.6L2975-81.6992 3116.4 59.8008H3316.4V259.801L3457.8 401.199 3316.4 542.602V742.602H3116.4" fill="#521f1f"/>
<path transform="matrix(.1,0,0,-.1,0,792)" stroke-width="1" stroke-linecap="butt" stroke-miterlimit="10" stroke-linejoin="miter" fill="none" stroke="#000000" d="M2975 884 2833.6 742.602H2633.6V542.602L2492.2 401.199 2633.6 259.801V59.8008H2833.6L2975-81.6992 3116.4 59.8008H3316.4V259.801L3457.8 401.199 3316.4 542.602V742.602H3116.4Z"/>
<path transform="matrix(.1,0,0,-.1,0,792)" d="M5254.4 7563.3 5416.4 7954.4 5254.4 8345.5 4863.3 8183.5 4472.2 8345.5 4310.2 7954.4 4472.2 7563.3 4863.3 7725.3" fill="#385c33"/>
<path transform="matrix(.1,0,0,-.1,0,792)" stroke-width="1" stroke-linecap="butt" stroke-miterlimit="10" stroke-linejoin="miter" fill="none" stroke="#000000" d="M5254.4 7563.3 5416.4 7954.4 5254.4 8345.5 4863.3 8183.5 4472.2 8345.5 4310.2 7954.4 4472.2 7563.3 4863.3 7725.3Z"/>
<path transform="matrix(.1,0,0,-.1,0,792)" d="M5254.4 7563.3 5530.9 7448.8 5416.4 7172.3 5807.5 7010.3 5666 7351.7 5927.4 7613H5557.8L5416.4 7954.4" fill="#ffffff"/>
<path transform="matrix(.1,0,0,-.1,0,792)" stroke-width="1" stroke-linecap="butt" stroke-miterlimit="10" stroke-linejoin="miter" fill="none" stroke="#000000" d="M5254.4 7563.3 5530.9 7448.8 5416.4 7172.3 5807.5 7010.3 5666 7351.7 5927.4 7613H5557.8L5416.4 7954.4Z"/>
<path transform="matrix(.1,0,0,-.1,0,792)" d="M1477.8 7563.3 1639.8 7954.4 1477.8 8345.5 1086.7 8183.5 695.602 8345.5 533.602 7954.4 695.602 7563.3 1086.7 7725.3" fill="#385c33"/>
<path transform="matrix(.1,0,0,-.1,0,792)" stroke-width="1" stroke-linecap="butt" stroke-miterlimit="10" stroke-linejoin="miter" fill="none" stroke="#000000" d="M1477.8 7563.3 1639.8 7954.4 1477.8 8345.5 1086.7 8183.5 695.602 8345.5 533.602 7954.4 695.602 7563.3 1086.7 7725.3Z"/>
<path transform="matrix(.1,0,0,-.1,0,792)" d="M695.602 7563.3 533.602 7954.4 392.199 7613H22.6016L284 7351.7 142.5 7010.3 533.602 7172.3 419.102 7448.8" fill="#ffffff"/>
<path transform="matrix(.1,0,0,-.1,0,792)" stroke-width="1" stroke-linecap="butt" stroke-miterlimit="10" stroke-linejoin="miter" fill="none" stroke="#000000" d="M695.602 7563.3 533.602 7954.4 392.199 7613H22.6016L284 7351.7 142.5 7010.3 533.602 7172.3 419.102 7448.8Z"/>
<path transform="matrix(.1,0,0,-.1,0,792)" d="M533.602 6066.1 371.602 6457.2-19.5 6619.2-134 6342.7-410.5 6457.2-572.5 6066.1-410.5 5675-134 5789.6-19.5 5513 371.602 5675" fill="#ffffff"/>
<path transform="matrix(.1,0,0,-.1,0,792)" stroke-width="1" stroke-linecap="butt" stroke-miterlimit="10" stroke-linejoin="miter" fill="none" stroke="#000000" d="M533.602 6066.1 371.602 6457.2-19.5 6619.2-134 6342.7-410.5 6457.2-572.5 6066.1-410.5 5675-134 5789.6-19.5 5513 371.602 5675Z"/>
<path transform="matrix(.1,0,0,-.1,0,792)" d="M533.602 4177.8 392.199 4519.2H22.6016L-318.801 4177.8 22.6016 3836.4H392.199" fill="#404284"/>
<path transform="matrix(.1,0,0,-.1,0,792)" stroke-width="1" stroke-linecap="butt" stroke-miterlimit="10" stroke-linejoin="miter" fill="none" stroke="#000000" d="M533.602 4177.8 392.199 4519.2H22.6016L-318.801 4177.8 22.6016 3836.4H392.199Z"/>
<path transform="matrix(.1,0,0,-.1,0,792)" d="M533.602 2289.5 371.602 2680.6-19.5 2842.6-134 2566-410.5 2680.6-572.5 2289.5-410.5 1898.4-134 2013-19.5 1736.4 371.602 1898.4" fill="#ffffff"/>
<path transform="matrix(.1,0,0,-.1,0,792)" stroke-width="1" stroke-linecap="butt" stroke-miterlimit="10" stroke-linejoin="miter" fill="none" stroke="#000000" d="M533.602 2289.5 371.602 2680.6-19.5 2842.6-134 2566-410.5 2680.6-572.5 2289.5-410.5 1898.4-134 2013-19.5 1736.4 371.602 1898.4Z"/>
<path transform="matrix(.1,0,0,-.1,0,792)" d="M533.602 1183.4 142.5 1345.3 284 1003.9 22.6016 742.602H392.199L533.602 401.199 695.602 792.301 419.102 906.801" fill="#ffffff"/>
<path transform="matrix(.1,0,0,-.1,0,792)" stroke-width="1" stroke-linecap="butt" stroke-miterlimit="10" stroke-linejoin="miter" fill="none" stroke="#000000" d="M533.602 1183.4 142.5 1345.3 284 1003.9 22.6016 742.602H392.199L533.602 401.199 695.602 792.301 419.102 906.801Z"/>
<path transform="matrix(.1,0,0,-.1,0,792)" d="M5416.4 1183.4 5530.9 906.801 5254.4 792.301 5416.4 401.199 5557.8 742.602H5927.4L5666 1003.9 5807.5 1345.3" fill="#ffffff"/>
<path transform="matrix(.1,0,0,-.1,0,792)" stroke-width="1" stroke-linecap="butt" stroke-miterlimit="10" stroke-linejoin="miter" fill="none" stroke="#000000" d="M5416.4 1183.4 5530.9 906.801 5254.4 792.301 5416.4 401.199 5557.8 742.602H5927.4L5666 1003.9 5807.5 1345.3Z"/>
<path transform="matrix(.1,0,0,-.1,0,792)" d="M5416.4 2289.5 5578.4 1898.4 5969.5 1736.4 6084 2013 6360.5 1898.4 6522.5 2289.5 6360.5 2680.6 6084 2566 5969.5 2842.6 5578.4 2680.6" fill="#ffffff"/>
<path transform="matrix(.1,0,0,-.1,0,792)" stroke-width="1" stroke-linecap="butt" stroke-miterlimit="10" stroke-linejoin="miter" fill="none" stroke="#000000" d="M5416.4 2289.5 5578.4 1898.4 5969.5 1736.4 6084 2013 6360.5 1898.4 6522.5 2289.5 6360.5 2680.6 6084 2566 5969.5 2842.6 5578.4 2680.6Z"/>
<path transform="matrix(.1,0,0,-.1,0,792)" d="M5416.4 4177.8 5557.8 3836.4H5927.4L6268.8 4177.8 5927.4 4519.2H5557.8" fill="#404284"/>
<path transform="matrix(.1,0,0,-.1,0,792)" stroke-width="1" stroke-linecap="butt" stroke-miterlimit="10" stroke-linejoin="miter" fill="none" stroke="#000000" d="M5416.4 4177.8 5557.8 3836.4H5927.4L6268.8 4177.8 5927.4 4519.2H5557.8Z"/>
<path transform="matrix(.1,0,0,-.1,0,792)" d="M5416.4 6066.1 5578.4 5675 5969.5 5513 6084 5789.6 6360.5 5675 6522.5 6066.1 6360.5 6457.2 6084 6342.7 5969.5 6619.2 5578.4 6457.2" fill="#ffffff"/>
<path transform="matrix(.1,0,0,-.1,0,792)" stroke-width="1" stroke-linecap="butt" stroke-miterlimit="10" stroke-linejoin="miter" fill="none" stroke="#000000" d="M5416.4 6066.1 5578.4 5675 5969.5 5513 6084 5789.6 6360.5 5675 6522.5 6066.1 6360.5 6457.2 6084 6342.7 5969.5 6619.2 5578.4 6457.2Z"/>
<path transform="matrix(.1,0,0,-.1,0,792)" d="M4168.8 7613 4310.2 7954.4 4168.8 8295.9H3799.3L3457.8 7954.4 3799.3 7613" fill="#404284"/>
<path transform="matrix(.1,0,0,-.1,0,792)" stroke-width="1" stroke-linecap="butt" stroke-miterlimit="10" stroke-linejoin="miter" fill="none" stroke="#000000" d="M4168.8 7613 4310.2 7954.4 4168.8 8295.9H3799.3L3457.8 7954.4 3799.3 7613Z"/>
<path transform="matrix(.1,0,0,-.1,0,792)" d="M3799.3 7613 3457.8 7954.4 3316.4 7813V7613Z" fill="#f8c499"/>
<path transform="matrix(.1,0,0,-.1,0,792)" stroke-width="1" stroke-linecap="butt" stroke-miterlimit="10" stroke-linejoin="miter" fill="none" stroke="#000000" d="M3799.3 7613 3457.8 7954.4 3316.4 7813V7613Z"/>
<path transform="matrix(.1,0,0,-.1,0,792)" d="M2633.6 7613V7813L2492.2 7954.4 2150.7 7613Z" fill="#f8c499"/>
<path transform="matrix(.1,0,0,-.1,0,792)" stroke-width="1" stroke-linecap="butt" stroke-miterlimit="10" stroke-linejoin="miter" fill="none" stroke="#000000" d="M2633.6 7613V7813L2492.2 7954.4 2150.7 7613Z"/>
<path transform="matrix(.1,0,0,-.1,0,792)" d="M2150.7 7613 2492.2 7954.4 2150.7 8295.9H1781.2L1639.8 7954.4 1781.2 7613" fill="#404284"/>
<path transform="matrix(.1,0,0,-.1,0,792)" stroke-width="1" stroke-linecap="butt" stroke-miterlimit="10" stroke-linejoin="miter" fill="none" stroke="#000000" d="M2150.7 7613 2492.2 7954.4 2150.7 8295.9H1781.2L1639.8 7954.4 1781.2 7613Z"/>
<path transform="matrix(.1,0,0,-.1,0,792)" d="M695.602 792.301 533.602 401.199 695.602 10.1016 1086.7 172.102 1477.8 10.1016 1639.8 401.199 1477.8 792.301 1086.7 630.301" fill="#385c33"/>
<path transform="matrix(.1,0,0,-.1,0,792)" stroke-width="1" stroke-linecap="butt" stroke-miterlimit="10" stroke-linejoin="miter" fill="none" stroke="#000000" d="M695.602 792.301 533.602 401.199 695.602 10.1016 1086.7 172.102 1477.8 10.1016 1639.8 401.199 1477.8 792.301 1086.7 630.301Z"/>
<path transform="matrix(.1,0,0,-.1,0,792)" d="M4472.2 792.301 4310.2 401.199 4472.2 10.1016 4863.3 172.102 5254.4 10.1016 5416.4 401.199 5254.4 792.301 4863.3 630.301" fill="#385c33"/>
<path transform="matrix(.1,0,0,-.1,0,792)" stroke-width="1" stroke-linecap="butt" stroke-miterlimit="10" stroke-linejoin="miter" fill="none" stroke="#000000" d="M4472.2 792.301 4310.2 401.199 4472.2 10.1016 4863.3 172.102 5254.4 10.1016 5416.4 401.199 5254.4 792.301 4863.3 630.301Z"/>
<path transform="matrix(.1,0,0,-.1,0,792)" d="M4168.8 742.602H3799.3L3457.8 401.199 3799.3 59.8008H4168.8L4310.2 401.199" fill="#404284"/>
<path transform="matrix(.1,0,0,-.1,0,792)" stroke-width="1" stroke-linecap="butt" stroke-miterlimit="10" stroke-linejoin="miter" fill="none" stroke="#000000" d="M4168.8 742.602H3799.3L3457.8 401.199 3799.3 59.8008H4168.8L4310.2 401.199Z"/>
<path transform="matrix(.1,0,0,-.1,0,792)" d="M3316.4 742.602V542.602L3457.8 401.199 3799.3 742.602Z" fill="#f8c499"/>
<path transform="matrix(.1,0,0,-.1,0,792)" stroke-width="1" stroke-linecap="butt" stroke-miterlimit="10" stroke-linejoin="miter" fill="none" stroke="#000000" d="M3316.4 742.602V542.602L3457.8 401.199 3799.3 742.602Z"/>
<path transform="matrix(.1,0,0,-.1,0,792)" d="M1781.2 742.602 1639.8 401.199 1781.2 59.8008H2150.7L2492.2 401.199 2150.7 742.602" fill="#404284"/>
<path transform="matrix(.1,0,0,-.1,0,792)" stroke-width="1" stroke-linecap="butt" stroke-miterlimit="10" stroke-linejoin="miter" fill="none" stroke="#000000" d="M1781.2 742.602 1639.8 401.199 1781.2 59.8008H2150.7L2492.2 401.199 2150.7 742.602Z"/>
<path transform="matrix(.1,0,0,-.1,0,792)" d="M2150.7 742.602 2492.2 401.199 2633.6 542.602V742.602Z" fill="#f8c499"/>
<path transform="matrix(.1,0,0,-.1,0,792)" stroke-width="1" stroke-linecap="butt" stroke-miterlimit="10" stroke-linejoin="miter" fill="none" stroke="#000000" d="M2150.7 742.602 2492.2 401.199 2633.6 542.602V742.602Z"/>
<path transform="matrix(.1,0,0,-.1,0,792)" d="M5557.8 742.602 5416.4 401.199 5557.8 59.8008H5927.4L6268.8 401.199 5927.4 742.602" fill="#404284"/>
<path transform="matrix(.1,0,0,-.1,0,792)" stroke-width="1" stroke-linecap="butt" stroke-miterlimit="10" stroke-linejoin="miter" fill="none" stroke="#000000" d="M5557.8 742.602 5416.4 401.199 5557.8 59.8008H5927.4L6268.8 401.199 5927.4 742.602Z"/>
<path transform="matrix(.1,0,0,-.1,0,792)" d="M5557.8 7613H5927.4L6268.8 7954.4 5927.4 8295.9H5557.8L5416.4 7954.4" fill="#404284"/>
<path transform="matrix(.1,0,0,-.1,0,792)" stroke-width="1" stroke-linecap="butt" stroke-miterlimit="10" stroke-linejoin="miter" fill="none" stroke="#000000" d="M5557.8 7613H5927.4L6268.8 7954.4 5927.4 8295.9H5557.8L5416.4 7954.4Z"/>
<path transform="matrix(.1,0,0,-.1,0,792)" d="M392.199 7613 533.602 7954.4 392.199 8295.9H22.6016L-318.801 7954.4 22.6016 7613" fill="#404284"/>
<path transform="matrix(.1,0,0,-.1,0,792)" stroke-width="1" stroke-linecap="butt" stroke-miterlimit="10" stroke-linejoin="miter" fill="none" stroke="#000000" d="M392.199 7613 533.602 7954.4 392.199 8295.9H22.6016L-318.801 7954.4 22.6016 7613Z"/>
<path transform="matrix(.1,0,0,-.1,0,792)" d="M392.199 742.602H22.6016L-318.801 401.199 22.6016 59.8008H392.199L533.602 401.199" fill="#404284"/>
<path transform="matrix(.1,0,0,-.1,0,792)" stroke-width="1" stroke-linecap="butt" stroke-miterlimit="10" stroke-linejoin="miter" fill="none" stroke="#000000" d="M392.199 742.602H22.6016L-318.801 401.199 22.6016 59.8008H392.199L533.602 401.199Z"/>
<path transform="matrix(.1,0,0,-.1,0,792)" d="M284 1003.9 142.5 1345.3-198.898 1486.8-460.199 1225.5V742.602H22.6016" fill="#404284"/>
<path transform="matrix(.1,0,0,-.1,0,792)" stroke-width="1" stroke-linecap="butt" stroke-miterlimit="10" stroke-linejoin="miter" fill="none" stroke="#000000" d="M284 1003.9 142.5 1345.3-198.898 1486.8-460.199 1225.5V742.602H22.6016Z"/>
<path transform="matrix(.1,0,0,-.1,0,792)" d="M5666 1003.9 5927.4 742.602H6410.2V1225.5L6148.9 1486.8 5807.5 1345.3" fill="#404284"/>
<path transform="matrix(.1,0,0,-.1,0,792)" stroke-width="1" stroke-linecap="butt" stroke-miterlimit="10" stroke-linejoin="miter" fill="none" stroke="#000000" d="M5666 1003.9 5927.4 742.602H6410.2V1225.5L6148.9 1486.8 5807.5 1345.3Z"/>
<path transform="matrix(.1,0,0,-.1,0,792)" d="M5666 3575.1 5807.5 3233.7 6148.9 3092.2 6410.2 3353.5V3836.4H5927.4" fill="#404284"/>
<path transform="matrix(.1,0,0,-.1,0,792)" stroke-width="1" stroke-linecap="butt" stroke-miterlimit="10" stroke-linejoin="miter" fill="none" stroke="#000000" d="M5666 3575.1 5807.5 3233.7 6148.9 3092.2 6410.2 3353.5V3836.4H5927.4Z"/>
<path transform="matrix(.1,0,0,-.1,0,792)" d="M5666 4780.5 5927.4 4519.2H6410.2V5002.1L6148.9 5263.4 5807.5 5122" fill="#404284"/>
<path transform="matrix(.1,0,0,-.1,0,792)" stroke-width="1" stroke-linecap="butt" stroke-miterlimit="10" stroke-linejoin="miter" fill="none" stroke="#000000" d="M5666 4780.5 5927.4 4519.2H6410.2V5002.1L6148.9 5263.4 5807.5 5122Z"/>
<path transform="matrix(.1,0,0,-.1,0,792)" d="M5666 7351.7 5807.5 7010.3 6148.9 6868.9 6410.2 7130.2V7613H5927.4" fill="#404284"/>
<path transform="matrix(.1,0,0,-.1,0,792)" stroke-width="1" stroke-linecap="butt" stroke-miterlimit="10" stroke-linejoin="miter" fill="none" stroke="#000000" d="M5666 7351.7 5807.5 7010.3 6148.9 6868.9 6410.2 7130.2V7613H5927.4Z"/>
<path transform="matrix(.1,0,0,-.1,0,792)" d="M284 7351.7 22.6016 7613H-460.199V7130.2L-198.898 6868.9 142.5 7010.3" fill="#404284"/>
<path transform="matrix(.1,0,0,-.1,0,792)" stroke-width="1" stroke-linecap="butt" stroke-miterlimit="10" stroke-linejoin="miter" fill="none" stroke="#000000" d="M284 7351.7 22.6016 7613H-460.199V7130.2L-198.898 6868.9 142.5 7010.3Z"/>
<path transform="matrix(.1,0,0,-.1,0,792)" d="M284 4780.5 142.5 5122-198.898 5263.4-460.199 5002.1V4519.2H22.6016" fill="#404284"/>
<path transform="matrix(.1,0,0,-.1,0,792)" stroke-width="1" stroke-linecap="butt" stroke-miterlimit="10" stroke-linejoin="miter" fill="none" stroke="#000000" d="M284 4780.5 142.5 5122-198.898 5263.4-460.199 5002.1V4519.2H22.6016Z"/>
<path transform="matrix(.1,0,0,-.1,0,792)" d="M284 3575.1 22.6016 3836.4H-460.199V3353.5L-198.898 3092.2 142.5 3233.7" fill="#404284"/>
<path transform="matrix(.1,0,0,-.1,0,792)" stroke-width="1" stroke-linecap="butt" stroke-miterlimit="10" stroke-linejoin="miter" fill="none" stroke="#000000" d="M284 3575.1 22.6016 3836.4H-460.199V3353.5L-198.898 3092.2 142.5 3233.7Z"/>
<path transform="matrix(.1,0,0,-.1,0,792)" d="M533.602 401.199 392.199 59.8008H22.6016L284-201.5 142.5-543 533.602-381 419.102-104.398 695.602 10.1016" fill="#ffffff"/>
<path transform="matrix(.1,0,0,-.1,0,792)" stroke-width="1" stroke-linecap="butt" stroke-miterlimit="10" stroke-linejoin="miter" fill="none" stroke="#000000" d="M533.602 401.199 392.199 59.8008H22.6016L284-201.5 142.5-543 533.602-381 419.102-104.398 695.602 10.1016Z"/>
<path transform="matrix(.1,0,0,-.1,0,792)" d="M1639.8 401.199 1477.8 10.1016 1754.3-104.398 1639.8-381 2030.8-543 1889.4-201.5 2150.7 59.8008H1781.2" fill="#ffffff"/>
<path transform="matrix(.1,0,0,-.1,0,792)" stroke-width="1" stroke-linecap="butt" stroke-miterlimit="10" stroke-linejoin="miter" fill="none" stroke="#000000" d="M1639.8 401.199 1477.8 10.1016 1754.3-104.398 1639.8-381 2030.8-543 1889.4-201.5 2150.7 59.8008H1781.2Z"/>
<path transform="matrix(.1,0,0,-.1,0,792)" d="M2492.2 401.199 2150.7 59.8008H2633.6V259.801Z" fill="#f8c499"/>
<path transform="matrix(.1,0,0,-.1,0,792)" stroke-width="1" stroke-linecap="butt" stroke-miterlimit="10" stroke-linejoin="miter" fill="none" stroke="#000000" d="M2492.2 401.199 2150.7 59.8008H2633.6V259.801Z"/>
<path transform="matrix(.1,0,0,-.1,0,792)" d="M3457.8 401.199 3316.4 259.801V59.8008H3799.3Z" fill="#f8c499"/>
<path transform="matrix(.1,0,0,-.1,0,792)" stroke-width="1" stroke-linecap="butt" stroke-miterlimit="10" stroke-linejoin="miter" fill="none" stroke="#000000" d="M3457.8 401.199 3316.4 259.801V59.8008H3799.3Z"/>
<path transform="matrix(.1,0,0,-.1,0,792)" d="M4310.2 401.199 4168.8 59.8008H3799.3L4060.6-201.5 3919.2-543 4310.2-381 4195.7-104.398 4472.2 10.1016" fill="#ffffff"/>
<path transform="matrix(.1,0,0,-.1,0,792)" stroke-width="1" stroke-linecap="butt" stroke-miterlimit="10" stroke-linejoin="miter" fill="none" stroke="#000000" d="M4310.2 401.199 4168.8 59.8008H3799.3L4060.6-201.5 3919.2-543 4310.2-381 4195.7-104.398 4472.2 10.1016Z"/>
<path transform="matrix(.1,0,0,-.1,0,792)" d="M5416.4 401.199 5254.4 10.1016 5530.9-104.398 5416.4-381 5807.5-543 5666-201.5 5927.4 59.8008H5557.8" fill="#ffffff"/>
<path transform="matrix(.1,0,0,-.1,0,792)" stroke-width="1" stroke-linecap="butt" stroke-miterlimit="10" stroke-linejoin="miter" fill="none" stroke="#000000" d="M5416.4 401.199 5254.4 10.1016 5530.9-104.398 5416.4-381 5807.5-543 5666-201.5 5927.4 59.8008H5557.8Z"/>
<path transform="matrix(.1,0,0,-.1,0,792)" d="M5807.5 1345.3 6148.9 1486.8 6410.2 1225.5V1595L6751.6 1736.4 6360.5 1898.4 6246 1621.9 5969.5 1736.4" fill="#ffffff"/>
<path transform="matrix(.1,0,0,-.1,0,792)" stroke-width="1" stroke-linecap="butt" stroke-miterlimit="10" stroke-linejoin="miter" fill="none" stroke="#000000" d="M5807.5 1345.3 6148.9 1486.8 6410.2 1225.5V1595L6751.6 1736.4 6360.5 1898.4 6246 1621.9 5969.5 1736.4Z"/>
<path transform="matrix(.1,0,0,-.1,0,792)" d="M5807.5 3233.7 5969.5 2842.6 6246 2957.1 6360.5 2680.6 6751.6 2842.6 6410.2 2984V3353.5L6148.9 3092.2" fill="#ffffff"/>
<path transform="matrix(.1,0,0,-.1,0,792)" stroke-width="1" stroke-linecap="butt" stroke-miterlimit="10" stroke-linejoin="miter" fill="none" stroke="#000000" d="M5807.5 3233.7 5969.5 2842.6 6246 2957.1 6360.5 2680.6 6751.6 2842.6 6410.2 2984V3353.5L6148.9 3092.2Z"/>
<path transform="matrix(.1,0,0,-.1,0,792)" d="M5807.5 5122 6148.9 5263.4 6410.2 5002.1V5371.6L6751.6 5513 6360.5 5675 6246 5398.5 5969.5 5513" fill="#ffffff"/>
<path transform="matrix(.1,0,0,-.1,0,792)" stroke-width="1" stroke-linecap="butt" stroke-miterlimit="10" stroke-linejoin="miter" fill="none" stroke="#000000" d="M5807.5 5122 6148.9 5263.4 6410.2 5002.1V5371.6L6751.6 5513 6360.5 5675 6246 5398.5 5969.5 5513Z"/>
<path transform="matrix(.1,0,0,-.1,0,792)" d="M5807.5 7010.3 5969.5 6619.2 6246 6733.7 6360.5 6457.2 6751.6 6619.2 6410.2 6760.6V7130.2L6148.9 6868.9" fill="#ffffff"/>
<path transform="matrix(.1,0,0,-.1,0,792)" stroke-width="1" stroke-linecap="butt" stroke-miterlimit="10" stroke-linejoin="miter" fill="none" stroke="#000000" d="M5807.5 7010.3 5969.5 6619.2 6246 6733.7 6360.5 6457.2 6751.6 6619.2 6410.2 6760.6V7130.2L6148.9 6868.9Z"/>
<path transform="matrix(.1,0,0,-.1,0,792)" d="M142.5 7010.3-198.898 6868.9-460.199 7130.2V6760.6L-801.602 6619.2-410.5 6457.2-296 6733.7-19.5 6619.2" fill="#ffffff"/>
<path transform="matrix(.1,0,0,-.1,0,792)" stroke-width="1" stroke-linecap="butt" stroke-miterlimit="10" stroke-linejoin="miter" fill="none" stroke="#000000" d="M142.5 7010.3-198.898 6868.9-460.199 7130.2V6760.6L-801.602 6619.2-410.5 6457.2-296 6733.7-19.5 6619.2Z"/>
<path transform="matrix(.1,0,0,-.1,0,792)" d="M142.5 5122-19.5 5513-296 5398.5-410.5 5675-801.602 5513-460.199 5371.6V5002.1L-198.898 5263.4" fill="#ffffff"/>
<path transform="matrix(.1,0,0,-.1,0,792)" stroke-width="1" stroke-linecap="butt" stroke-miterlimit="10" stroke-linejoin="miter" fill="none" stroke="#000000" d="M142.5 5122-19.5 5513-296 5398.5-410.5 5675-801.602 5513-460.199 5371.6V5002.1L-198.898 5263.4Z"/>
<path transform="matrix(.1,0,0,-.1,0,792)" d="M142.5 3233.7-198.898 3092.2-460.199 3353.5V2984L-801.602 2842.6-410.5 2680.6-296 2957.1-19.5 2842.6" fill="#ffffff"/>
<path transform="matrix(.1,0,0,-.1,0,792)" stroke-width="1" stroke-linecap="butt" stroke-miterlimit="10" stroke-linejoin="miter" fill="none" stroke="#000000" d="M142.5 3233.7-198.898 3092.2-460.199 3353.5V2984L-801.602 2842.6-410.5 2680.6-296 2957.1-19.5 2842.6Z"/>
<path transform="matrix(.1,0,0,-.1,0,792)" d="M142.5 1345.3-19.5 1736.4-296 1621.9-410.5 1898.4-801.602 1736.4-460.199 1595V1225.5L-198.898 1486.8" fill="#ffffff"/>
<path transform="matrix(.1,0,0,-.1,0,792)" stroke-width="1" stroke-linecap="butt" stroke-miterlimit="10" stroke-linejoin="miter" fill="none" stroke="#000000" d="M142.5 1345.3-19.5 1736.4-296 1621.9-410.5 1898.4-801.602 1736.4-460.199 1595V1225.5L-198.898 1486.8Z"/>
<path transform="matrix(.1,0,0,-.1,0,792)" d="M1086.7 172.102 695.602 10.1016 810.199-266.398 533.602-381 695.602-772.102 1086.7-934 1477.8-772.102 1639.8-381 1363.2-266.398 1477.8 10.1016" fill="#ffffff"/>
<path transform="matrix(.1,0,0,-.1,0,792)" stroke-width="1" stroke-linecap="butt" stroke-miterlimit="10" stroke-linejoin="miter" fill="none" stroke="#000000" d="M1086.7 172.102 695.602 10.1016 810.199-266.398 533.602-381 695.602-772.102 1086.7-934 1477.8-772.102 1639.8-381 1363.2-266.398 1477.8 10.1016Z"/>
<path transform="matrix(.1,0,0,-.1,0,792)" d="M4863.3 172.102 4472.2 10.1016 4586.8-266.398 4310.2-381 4472.2-772.102 4863.3-934 5254.4-772.102 5416.4-381 5139.8-266.398 5254.4 10.1016" fill="#ffffff"/>
<path transform="matrix(.1,0,0,-.1,0,792)" stroke-width="1" stroke-linecap="butt" stroke-miterlimit="10" stroke-linejoin="miter" fill="none" stroke="#000000" d="M4863.3 172.102 4472.2 10.1016 4586.8-266.398 4310.2-381 4472.2-772.102 4863.3-934 5254.4-772.102 5416.4-381 5139.8-266.398 5254.4 10.1016Z"/>
<path transform="matrix(.1,0,0,-.1,0,792)" d="M5927.4 742.602 6268.8 401.199 6410.2 542.602V742.602Z" fill="#f8c499"/>
<path transform="matrix(.1,0,0,-.1,0,792)" stroke-width="1" stroke-linecap="butt" stroke-miterlimit="10" stroke-linejoin="miter" fill="none" stroke="#000000" d="M5927.4 742.602 6268.8 401.199 6410.2 542.602V742.602Z"/>
<path transform="matrix(.1,0,0,-.1,0,792)" d="M5927.4 3836.4H6410.2V4036.4L6268.8 4177.8Z" fill="#f8c499"/>
<path transform="matrix(.1,0,0,-.1,0,792)" stroke-width="1" stroke-linecap="butt" stroke-miterlimit="10" stroke-linejoin="miter" fill="none" stroke="#000000" d="M5927.4 3836.4H6410.2V4036.4L6268.8 4177.8Z"/>
<path transform="matrix(.1,0,0,-.1,0,792)" d="M5927.4 4519.2 6268.8 4177.8 6410.2 4319.2V4519.2Z" fill="#f8c499"/>
<path transform="matrix(.1,0,0,-.1,0,792)" stroke-width="1" stroke-linecap="butt" stroke-miterlimit="10" stroke-linejoin="miter" fill="none" stroke="#000000" d="M5927.4 4519.2 6268.8 4177.8 6410.2 4319.2V4519.2Z"/>
<path transform="matrix(.1,0,0,-.1,0,792)" d="M5927.4 7613H6410.2V7813L6268.8 7954.4Z" fill="#f8c499"/>
<path transform="matrix(.1,0,0,-.1,0,792)" stroke-width="1" stroke-linecap="butt" stroke-miterlimit="10" stroke-linejoin="miter" fill="none" stroke="#000000" d="M5927.4 7613H6410.2V7813L6268.8 7954.4Z"/>
<path transform="matrix(.1,0,0,-.1,0,792)" d="M22.6016 7613-318.801 7954.4-460.199 7813V7613Z" fill="#f8c499"/>
<path transform="matrix(.1,0,0,-.1,0,792)" stroke-width="1" stroke-linecap="butt" stroke-miterlimit="10" stroke-linejoin="miter" fill="none" stroke="#000000" d="M22.6016 7613-318.801 7954.4-460.199 7813V7613Z"/>
<path transform="matrix(.1,0,0,-.1,0,792)" d="M22.6016 4519.2H-460.199V4319.2L-318.801 4177.8Z" fill="#f8c499"/>
<path transform="matrix(.1,0,0,-.1,0,792)" stroke-width="1" stroke-linecap="butt" stroke-miterlimit="10" stroke-linejoin="miter" fill="none" stroke="#000000" d="M22.6016 4519.2H-460.199V4319.2L-318.801 4177.8Z"/>
<path transform="matrix(.1,0,0,-.1,0,792)" d="M22.6016 3836.4-318.801 4177.8-460.199 4036.4V3836.4Z" fill="#f8c499"/>
<path transform="matrix(.1,0,0,-.1,0,792)" stroke-width="1" stroke-linecap="butt" stroke-miterlimit="10" stroke-linejoin="miter" fill="none" stroke="#000000" d="M22.6016 3836.4-318.801 4177.8-460.199 4036.4V3836.4Z"/>
<path transform="matrix(.1,0,0,-.1,0,792)" d="M22.6016 742.602H-460.199V542.602L-318.801 401.199Z" fill="#f8c499"/>
<path transform="matrix(.1,0,0,-.1,0,792)" stroke-width="1" stroke-linecap="butt" stroke-miterlimit="10" stroke-linejoin="miter" fill="none" stroke="#000000" d="M22.6016 742.602H-460.199V542.602L-318.801 401.199Z"/>
<path transform="matrix(.1,0,0,-.1,0,792)" d="M5969.5 1736.4 6246 1621.9 6360.5 1898.4 6084 2013Z"/>
<path transform="matrix(.1,0,0,-.1,0,792)" stroke-width="1" stroke-linecap="butt" stroke-miterlimit="10" stroke-linejoin="miter" fill="none" stroke="#000000" d="M5969.5 1736.4 6246 1621.9 6360.5 1898.4 6084 2013Z"/>
<path transform="matrix(.1,0,0,-.1,0,792)" d="M5969.5 2842.6 6084 2566 6360.5 2680.6 6246 2957.1Z"/>
<path transform="matrix(.1,0,0,-.1,0,792)" stroke-width="1" stroke-linecap="butt" stroke-miterlimit="10" stroke-linejoin="miter" fill="none" stroke="#000000" d="M5969.5 2842.6 6084 2566 6360.5 2680.6 6246 2957.1Z"/>
<path transform="matrix(.1,0,0,-.1,0,792)" d="M5969.5 5513 6246 5398.5 6360.5 5675 6084 5789.6Z"/>
<path transform="matrix(.1,0,0,-.1,0,792)" stroke-width="1" stroke-linecap="butt" stroke-miterlimit="10" stroke-linejoin="miter" fill="none" stroke="#000000" d="M5969.5 5513 6246 5398.5 6360.5 5675 6084 5789.6Z"/>
<path transform="matrix(.1,0,0,-.1,0,792)" d="M5969.5 6619.2 6084 6342.7 6360.5 6457.2 6246 6733.7Z"/>
<path transform="matrix(.1,0,0,-.1,0,792)" stroke-width="1" stroke-linecap="butt" stroke-miterlimit="10" stroke-linejoin="miter" fill="none" stroke="#000000" d="M5969.5 6619.2 6084 6342.7 6360.5 6457.2 6246 6733.7Z"/>
<path transform="matrix(.1,0,0,-.1,0,792)" d="M22.6016 59.8008H-460.199V-423.102L-198.898-684.398 142.5-543 284-201.5" fill="#404284"/>
<path transform="matrix(.1,0,0,-.1,0,792)" stroke-width="1" stroke-linecap="butt" stroke-miterlimit="10" stroke-linejoin="miter" fill="none" stroke="#000000" d="M22.6016 59.8008H-460.199V-423.102L-198.898-684.398 142.5-543 284-201.5Z"/>
<path transform="matrix(.1,0,0,-.1,0,792)" d="M22.6016 59.8008-318.801 401.199-460.199 259.801V59.8008Z" fill="#f8c499"/>
<path transform="matrix(.1,0,0,-.1,0,792)" stroke-width="1" stroke-linecap="butt" stroke-miterlimit="10" stroke-linejoin="miter" fill="none" stroke="#000000" d="M22.6016 59.8008-318.801 401.199-460.199 259.801V59.8008Z"/>
<path transform="matrix(.1,0,0,-.1,0,792)" d="M2150.7 59.8008 1889.4-201.5 2030.8-543 2372.3-684.398 2633.6-423.102V59.8008" fill="#404284"/>
<path transform="matrix(.1,0,0,-.1,0,792)" stroke-width="1" stroke-linecap="butt" stroke-miterlimit="10" stroke-linejoin="miter" fill="none" stroke="#000000" d="M2150.7 59.8008 1889.4-201.5 2030.8-543 2372.3-684.398 2633.6-423.102V59.8008Z"/>
<path transform="matrix(.1,0,0,-.1,0,792)" d="M2633.6 59.8008V-423.102L2975-81.6992 2833.6 59.8008Z" fill="#f8c499"/>
<path transform="matrix(.1,0,0,-.1,0,792)" stroke-width="1" stroke-linecap="butt" stroke-miterlimit="10" stroke-linejoin="miter" fill="none" stroke="#000000" d="M2633.6 59.8008V-423.102L2975-81.6992 2833.6 59.8008Z"/>
<path transform="matrix(.1,0,0,-.1,0,792)" d="M3116.4 59.8008 2975-81.6992 3316.4-423.102V59.8008Z" fill="#f8c499"/>
<path transform="matrix(.1,0,0,-.1,0,792)" stroke-width="1" stroke-linecap="butt" stroke-miterlimit="10" stroke-linejoin="miter" fill="none" stroke="#000000" d="M3116.4 59.8008 2975-81.6992 3316.4-423.102V59.8008Z"/>
<path transform="matrix(.1,0,0,-.1,0,792)" d="M3316.4 59.8008V-423.102L3577.7-684.398 3919.2-543 4060.6-201.5 3799.3 59.8008" fill="#404284"/>
<path transform="matrix(.1,0,0,-.1,0,792)" stroke-width="1" stroke-linecap="butt" stroke-miterlimit="10" stroke-linejoin="miter" fill="none" stroke="#000000" d="M3316.4 59.8008V-423.102L3577.7-684.398 3919.2-543 4060.6-201.5 3799.3 59.8008Z"/>
<path transform="matrix(.1,0,0,-.1,0,792)" d="M5927.4 59.8008H6410.2V259.801L6268.8 401.199Z" fill="#f8c499"/>
<path transform="matrix(.1,0,0,-.1,0,792)" stroke-width="1" stroke-linecap="butt" stroke-miterlimit="10" stroke-linejoin="miter" fill="none" stroke="#000000" d="M5927.4 59.8008H6410.2V259.801L6268.8 401.199Z"/>
<path transform="matrix(.1,0,0,-.1,0,792)" d="M5927.4 59.8008 5666-201.5 5807.5-543 6148.9-684.398 6410.2-423.102V59.8008" fill="#404284"/>
<path transform="matrix(.1,0,0,-.1,0,792)" stroke-width="1" stroke-linecap="butt" stroke-miterlimit="10" stroke-linejoin="miter" fill="none" stroke="#000000" d="M5927.4 59.8008 5666-201.5 5807.5-543 6148.9-684.398 6410.2-423.102V59.8008Z"/>
<path transform="matrix(.1,0,0,-.1,0,792)" d="M695.602 10.1016 419.102-104.398 533.602-381 810.199-266.398Z"/>
<path transform="matrix(.1,0,0,-.1,0,792)" stroke-width="1" stroke-linecap="butt" stroke-miterlimit="10" stroke-linejoin="miter" fill="none" stroke="#000000" d="M695.602 10.1016 419.102-104.398 533.602-381 810.199-266.398Z"/>
<path transform="matrix(.1,0,0,-.1,0,792)" d="M1477.8 10.1016 1363.2-266.398 1639.8-381 1754.3-104.398Z"/>
<path transform="matrix(.1,0,0,-.1,0,792)" stroke-width="1" stroke-linecap="butt" stroke-miterlimit="10" stroke-linejoin="miter" fill="none" stroke="#000000" d="M1477.8 10.1016 1363.2-266.398 1639.8-381 1754.3-104.398Z"/>
<path transform="matrix(.1,0,0,-.1,0,792)" d="M4472.2 10.1016 4195.7-104.398 4310.2-381 4586.8-266.398Z"/>
<path transform="matrix(.1,0,0,-.1,0,792)" stroke-width="1" stroke-linecap="butt" stroke-miterlimit="10" stroke-linejoin="miter" fill="none" stroke="#000000" d="M4472.2 10.1016 4195.7-104.398 4310.2-381 4586.8-266.398Z"/>
<path transform="matrix(.1,0,0,-.1,0,792)" d="M5254.4 10.1016 5139.8-266.398 5416.4-381 5530.9-104.398Z"/>
<path transform="matrix(.1,0,0,-.1,0,792)" stroke-width="1" stroke-linecap="butt" stroke-miterlimit="10" stroke-linejoin="miter" fill="none" stroke="#000000" d="M5254.4 10.1016 5139.8-266.398 5416.4-381 5530.9-104.398Z"/>
</svg>
