<svg xmlns="http://www.w3.org/2000/svg" xmlns:xlink="http://www.w3.org/1999/xlink" xmlns:inkscape="http://www.inkscape.org/namespaces/inkscape" version="1.1" width="612" height="792" viewBox="0 0 612 792">
<path transform="matrix(.1,0,0,-.1,0,792)" d="M4038.3 4210 3450.5 5019 2499.5 4710V3710L3450.5 3401" fill="#824d05"/>
<path transform="matrix(.1,0,0,-.1,0,792)" stroke-width="20" stroke-linecap="butt" stroke-miterlimit="10" stroke-linejoin="miter" fill="none" stroke="#000000" d="M4038.3 4210 3450.5 5019 2499.5 4710V3710L3450.5 3401Z"/>
<path transform="matrix(.1,0,0,-.1,0,792)" d="M2499.5 3710 3087.3 2901 4038.3 2592 3450.5 3401Z" fill="#91217d"/>
<path transform="matrix(.1,0,0,-.1,0,792)" stroke-width="20" stroke-linecap="butt" stroke-miterlimit="10" stroke-linejoin="miter" fill="none" stroke="#000000" d="M2499.5 3710 3087.3 2901 4038.3 2592 3450.5 3401Z"/>
<path transform="matrix(.1,0,0,-.1,0,792)" d="M2499.5 4710 1548.4 5019 960.602 4210 1548.4 3401 2499.5 3710" fill="#824d05"/>
<path transform="matrix(.1,0,0,-.1,0,792)" stroke-width="20" stroke-linecap="butt" stroke-miterlimit="10" stroke-linejoin="miter" fill="none" stroke="#000000" d="M2499.5 4710 1548.4 5019 960.602 4210 1548.4 3401 2499.5 3710Z"/>
<path transform="matrix(.1,0,0,-.1,0,792)" d="M2499.5 4710 1911.7 5519 960.602 5828 1548.4 5019Z" fill="#91217d"/>
<path transform="matrix(.1,0,0,-.1,0,792)" stroke-width="20" stroke-linecap="butt" stroke-miterlimit="10" stroke-linejoin="miter" fill="none" stroke="#000000" d="M2499.5 4710 1911.7 5519 960.602 5828 1548.4 5019Z"/>
<path transform="matrix(.1,0,0,-.1,0,792)" d="M2499.5 4710 3450.5 5019V6019L2499.5 6328 1911.7 5519" fill="#824d05"/>
<path transform="matrix(.1,0,0,-.1,0,792)" stroke-width="20" stroke-linecap="butt" stroke-miterlimit="10" stroke-linejoin="miter" fill="none" stroke="#000000" d="M2499.5 4710 3450.5 5019V6019L2499.5 6328 1911.7 5519Z"/>
<path transform="matrix(.1,0,0,-.1,0,792)" d="M2499.5 3710 1548.4 3401V2401L2499.5 2092 3087.3 2901" fill="#824d05"/>
<path transform="matrix(.1,0,0,-.1,0,792)" stroke-width="20" stroke-linecap="butt" stroke-miterlimit="10" stroke-linejoin="miter" fill="none" stroke="#000000" d="M2499.5 3710 1548.4 3401V2401L2499.5 2092 3087.3 2901Z"/>
<path transform="matrix(.1,0,0,-.1,0,792)" d="M3450.5 3401 4038.3 2592 4989.4 2901V3901L4038.3 4210" fill="#824d05"/>
<path transform="matrix(.1,0,0,-.1,0,792)" stroke-width="20" stroke-linecap="butt" stroke-miterlimit="10" stroke-linejoin="miter" fill="none" stroke="#000000" d="M3450.5 3401 4038.3 2592 4989.4 2901V3901L4038.3 4210Z"/>
<path transform="matrix(.1,0,0,-.1,0,792)" d="M3450.5 5019 4401.6 4710 4989.4 5519 4401.6 6328 3450.5 6019" fill="#824d05"/>
<path transform="matrix(.1,0,0,-.1,0,792)" stroke-width="20" stroke-linecap="butt" stroke-miterlimit="10" stroke-linejoin="miter" fill="none" stroke="#000000" d="M3450.5 5019 4401.6 4710 4989.4 5519 4401.6 6328 3450.5 6019Z"/>
<path transform="matrix(.1,0,0,-.1,0,792)" d="M3450.5 5019 4038.3 4210 4989.4 3901 4401.6 4710Z" fill="#91217d"/>
<path transform="matrix(.1,0,0,-.1,0,792)" stroke-width="20" stroke-linecap="butt" stroke-miterlimit="10" stroke-linejoin="miter" fill="none" stroke="#000000" d="M3450.5 5019 4038.3 4210 4989.4 3901 4401.6 4710Z"/>
<path transform="matrix(.1,0,0,-.1,0,792)" d="M3087.3 2901 2499.5 2092 3087.3 1282.9 4038.3 1592V2592" fill="#824d05"/>
<path transform="matrix(.1,0,0,-.1,0,792)" stroke-width="20" stroke-linecap="butt" stroke-miterlimit="10" stroke-linejoin="miter" fill="none" stroke="#000000" d="M3087.3 2901 2499.5 2092 3087.3 1282.9 4038.3 1592V2592Z"/>
<path transform="matrix(.1,0,0,-.1,0,792)" d="M1911.7 5519 2499.5 6328 1911.7 7137.1 960.602 6828V5828" fill="#824d05"/>
<path transform="matrix(.1,0,0,-.1,0,792)" stroke-width="20" stroke-linecap="butt" stroke-miterlimit="10" stroke-linejoin="miter" fill="none" stroke="#000000" d="M1911.7 5519 2499.5 6328 1911.7 7137.1 960.602 6828V5828Z"/>
<path transform="matrix(.1,0,0,-.1,0,792)" d="M4038.3 2592V1592L4989.4 1282.9 5577.2 2092 4989.4 2901" fill="#824d05"/>
<path transform="matrix(.1,0,0,-.1,0,792)" stroke-width="20" stroke-linecap="butt" stroke-miterlimit="10" stroke-linejoin="miter" fill="none" stroke="#000000" d="M4038.3 2592V1592L4989.4 1282.9 5577.2 2092 4989.4 2901Z"/>
<path transform="matrix(.1,0,0,-.1,0,792)" d="M3450.5 6019 2862.7 6828 1911.7 7137.1 2499.5 6328Z" fill="#91217d"/>
<path transform="matrix(.1,0,0,-.1,0,792)" stroke-width="20" stroke-linecap="butt" stroke-miterlimit="10" stroke-linejoin="miter" fill="none" stroke="#000000" d="M3450.5 6019 2862.7 6828 1911.7 7137.1 2499.5 6328Z"/>
<path transform="matrix(.1,0,0,-.1,0,792)" d="M3450.5 6019 4401.6 6328V7328L3450.5 7637.1 2862.7 6828" fill="#824d05"/>
<path transform="matrix(.1,0,0,-.1,0,792)" stroke-width="20" stroke-linecap="butt" stroke-miterlimit="10" stroke-linejoin="miter" fill="none" stroke="#000000" d="M3450.5 6019 4401.6 6328V7328L3450.5 7637.1 2862.7 6828Z"/>
<path transform="matrix(.1,0,0,-.1,0,792)" d="M1548.4 5019 960.602 5828 9.60156 5519V4519L960.602 4210" fill="#824d05"/>
<path transform="matrix(.1,0,0,-.1,0,792)" stroke-width="20" stroke-linecap="butt" stroke-miterlimit="10" stroke-linejoin="miter" fill="none" stroke="#000000" d="M1548.4 5019 960.602 5828 9.60156 5519V4519L960.602 4210Z"/>
<path transform="matrix(.1,0,0,-.1,0,792)" d="M1548.4 3401 597.398 3710 9.60156 2901 597.398 2092 1548.4 2401" fill="#824d05"/>
<path transform="matrix(.1,0,0,-.1,0,792)" stroke-width="20" stroke-linecap="butt" stroke-miterlimit="10" stroke-linejoin="miter" fill="none" stroke="#000000" d="M1548.4 3401 597.398 3710 9.60156 2901 597.398 2092 1548.4 2401Z"/>
<path transform="matrix(.1,0,0,-.1,0,792)" d="M1548.4 3401 960.602 4210 9.60156 4519 597.398 3710Z" fill="#91217d"/>
<path transform="matrix(.1,0,0,-.1,0,792)" stroke-width="20" stroke-linecap="butt" stroke-miterlimit="10" stroke-linejoin="miter" fill="none" stroke="#000000" d="M1548.4 3401 960.602 4210 9.60156 4519 597.398 3710Z"/>
<path transform="matrix(.1,0,0,-.1,0,792)" d="M1548.4 2401 2136.2 1592 3087.3 1282.9 2499.5 2092Z" fill="#91217d"/>
<path transform="matrix(.1,0,0,-.1,0,792)" stroke-width="20" stroke-linecap="butt" stroke-miterlimit="10" stroke-linejoin="miter" fill="none" stroke="#000000" d="M1548.4 2401 2136.2 1592 3087.3 1282.9 2499.5 2092Z"/>
<path transform="matrix(.1,0,0,-.1,0,792)" d="M1548.4 2401 597.398 2092V1092L1548.4 782.898 2136.2 1592" fill="#824d05"/>
<path transform="matrix(.1,0,0,-.1,0,792)" stroke-width="20" stroke-linecap="butt" stroke-miterlimit="10" stroke-linejoin="miter" fill="none" stroke="#000000" d="M1548.4 2401 597.398 2092V1092L1548.4 782.898 2136.2 1592Z"/>
<path transform="matrix(.1,0,0,-.1,0,792)" d="M4401.6 4710 4989.4 3901 5940.4 4210V5210L4989.4 5519" fill="#824d05"/>
<path transform="matrix(.1,0,0,-.1,0,792)" stroke-width="20" stroke-linecap="butt" stroke-miterlimit="10" stroke-linejoin="miter" fill="none" stroke="#000000" d="M4401.6 4710 4989.4 3901 5940.4 4210V5210L4989.4 5519Z"/>
<path transform="matrix(.1,0,0,-.1,0,792)" d="M4401.6 6328 5352.6 6019 5940.4 6828 5352.6 7637.1 4401.6 7328" fill="#824d05"/>
<path transform="matrix(.1,0,0,-.1,0,792)" stroke-width="20" stroke-linecap="butt" stroke-miterlimit="10" stroke-linejoin="miter" fill="none" stroke="#000000" d="M4401.6 6328 5352.6 6019 5940.4 6828 5352.6 7637.1 4401.6 7328Z"/>
<path transform="matrix(.1,0,0,-.1,0,792)" d="M4401.6 6328 4989.4 5519 5940.4 5210 5352.6 6019Z" fill="#91217d"/>
<path transform="matrix(.1,0,0,-.1,0,792)" stroke-width="20" stroke-linecap="butt" stroke-miterlimit="10" stroke-linejoin="miter" fill="none" stroke="#000000" d="M4401.6 6328 4989.4 5519 5940.4 5210 5352.6 6019Z"/>
<path transform="matrix(.1,0,0,-.1,0,792)" d="M2862.7 6828 3450.5 7637.1 2862.7 8446.1 1911.7 8137.1V7137.1" fill="#824d05"/>
<path transform="matrix(.1,0,0,-.1,0,792)" stroke-width="20" stroke-linecap="butt" stroke-miterlimit="10" stroke-linejoin="miter" fill="none" stroke="#000000" d="M2862.7 6828 3450.5 7637.1 2862.7 8446.1 1911.7 8137.1V7137.1Z"/>
<path transform="matrix(.1,0,0,-.1,0,792)" d="M2136.2 1592 1548.4 782.898 2136.2-26.1016 3087.3 282.898V1282.9" fill="#824d05"/>
<path transform="matrix(.1,0,0,-.1,0,792)" stroke-width="20" stroke-linecap="butt" stroke-miterlimit="10" stroke-linejoin="miter" fill="none" stroke="#000000" d="M2136.2 1592 1548.4 782.898 2136.2-26.1016 3087.3 282.898V1282.9Z"/>
<path transform="matrix(.1,0,0,-.1,0,792)" d="M4038.3 1592 4626.1 782.898 5577.2 473.898 4989.4 1282.9Z" fill="#91217d"/>
<path transform="matrix(.1,0,0,-.1,0,792)" stroke-width="20" stroke-linecap="butt" stroke-miterlimit="10" stroke-linejoin="miter" fill="none" stroke="#000000" d="M4038.3 1592 4626.1 782.898 5577.2 473.898 4989.4 1282.9Z"/>
<path transform="matrix(.1,0,0,-.1,0,792)" d="M4038.3 1592 3087.3 1282.9V282.898L4038.3-26.1016 4626.1 782.898" fill="#824d05"/>
<path transform="matrix(.1,0,0,-.1,0,792)" stroke-width="20" stroke-linecap="butt" stroke-miterlimit="10" stroke-linejoin="miter" fill="none" stroke="#000000" d="M4038.3 1592 3087.3 1282.9V282.898L4038.3-26.1016 4626.1 782.898Z"/>
<path transform="matrix(.1,0,0,-.1,0,792)" d="M4989.4 2901 5940.4 2592 6528.2 3401 5940.4 4210 4989.4 3901" fill="#824d05"/>
<path transform="matrix(.1,0,0,-.1,0,792)" stroke-width="20" stroke-linecap="butt" stroke-miterlimit="10" stroke-linejoin="miter" fill="none" stroke="#000000" d="M4989.4 2901 5940.4 2592 6528.2 3401 5940.4 4210 4989.4 3901Z"/>
<path transform="matrix(.1,0,0,-.1,0,792)" d="M4989.4 2901 5577.2 2092 6528.2 1782.9 5940.4 2592Z" fill="#91217d"/>
<path transform="matrix(.1,0,0,-.1,0,792)" stroke-width="20" stroke-linecap="butt" stroke-miterlimit="10" stroke-linejoin="miter" fill="none" stroke="#000000" d="M4989.4 2901 5577.2 2092 6528.2 1782.9 5940.4 2592Z"/>
<path transform="matrix(.1,0,0,-.1,0,792)" d="M960.602 6828 9.60156 7137.1-578.199 6328 9.60156 5519 960.602 5828" fill="#824d05"/>
<path transform="matrix(.1,0,0,-.1,0,792)" stroke-width="20" stroke-linecap="butt" stroke-miterlimit="10" stroke-linejoin="miter" fill="none" stroke="#000000" d="M960.602 6828 9.60156 7137.1-578.199 6328 9.60156 5519 960.602 5828Z"/>
<path transform="matrix(.1,0,0,-.1,0,792)" d="M960.602 6828 372.801 7637.1-578.199 7946.1 9.60156 7137.1Z" fill="#91217d"/>
<path transform="matrix(.1,0,0,-.1,0,792)" stroke-width="20" stroke-linecap="butt" stroke-miterlimit="10" stroke-linejoin="miter" fill="none" stroke="#000000" d="M960.602 6828 372.801 7637.1-578.199 7946.1 9.60156 7137.1Z"/>
<path transform="matrix(.1,0,0,-.1,0,792)" d="M960.602 6828 1911.7 7137.1V8137.1L960.602 8446.1 372.801 7637.1" fill="#824d05"/>
<path transform="matrix(.1,0,0,-.1,0,792)" stroke-width="20" stroke-linecap="butt" stroke-miterlimit="10" stroke-linejoin="miter" fill="none" stroke="#000000" d="M960.602 6828 1911.7 7137.1V8137.1L960.602 8446.1 372.801 7637.1Z"/>
<path transform="matrix(.1,0,0,-.1,0,792)" d="M4989.4 1282.9 5577.2 473.898 6528.2 782.898V1782.9L5577.2 2092" fill="#824d05"/>
<path transform="matrix(.1,0,0,-.1,0,792)" stroke-width="20" stroke-linecap="butt" stroke-miterlimit="10" stroke-linejoin="miter" fill="none" stroke="#000000" d="M4989.4 1282.9 5577.2 473.898 6528.2 782.898V1782.9L5577.2 2092Z"/>
<path transform="matrix(.1,0,0,-.1,0,792)" d="M4401.6 7328 3813.8 8137.1 2862.7 8446.1 3450.5 7637.1Z" fill="#91217d"/>
<path transform="matrix(.1,0,0,-.1,0,792)" stroke-width="20" stroke-linecap="butt" stroke-miterlimit="10" stroke-linejoin="miter" fill="none" stroke="#000000" d="M4401.6 7328 3813.8 8137.1 2862.7 8446.1 3450.5 7637.1Z"/>
<path transform="matrix(.1,0,0,-.1,0,792)" d="M4401.6 7328 5352.6 7637.1V8637.1L4401.6 8946.1 3813.8 8137.1" fill="#824d05"/>
<path transform="matrix(.1,0,0,-.1,0,792)" stroke-width="20" stroke-linecap="butt" stroke-miterlimit="10" stroke-linejoin="miter" fill="none" stroke="#000000" d="M4401.6 7328 5352.6 7637.1V8637.1L4401.6 8946.1 3813.8 8137.1Z"/>
<path transform="matrix(.1,0,0,-.1,0,792)" d="M597.398 3710 9.60156 4519-941.5 4210V3210L9.60156 2901" fill="#824d05"/>
<path transform="matrix(.1,0,0,-.1,0,792)" stroke-width="20" stroke-linecap="butt" stroke-miterlimit="10" stroke-linejoin="miter" fill="none" stroke="#000000" d="M597.398 3710 9.60156 4519-941.5 4210V3210L9.60156 2901Z"/>
<path transform="matrix(.1,0,0,-.1,0,792)" d="M597.398 2092-353.699 2401-941.5 1592-353.699 782.898 597.398 1092" fill="#824d05"/>
<path transform="matrix(.1,0,0,-.1,0,792)" stroke-width="20" stroke-linecap="butt" stroke-miterlimit="10" stroke-linejoin="miter" fill="none" stroke="#000000" d="M597.398 2092-353.699 2401-941.5 1592-353.699 782.898 597.398 1092Z"/>
<path transform="matrix(.1,0,0,-.1,0,792)" d="M597.398 2092 9.60156 2901-941.5 3210-353.699 2401Z" fill="#91217d"/>
<path transform="matrix(.1,0,0,-.1,0,792)" stroke-width="20" stroke-linecap="butt" stroke-miterlimit="10" stroke-linejoin="miter" fill="none" stroke="#000000" d="M597.398 2092 9.60156 2901-941.5 3210-353.699 2401Z"/>
<path transform="matrix(.1,0,0,-.1,0,792)" d="M597.398 1092 1185.1 282.898 2136.2-26.1016 1548.4 782.898Z" fill="#91217d"/>
<path transform="matrix(.1,0,0,-.1,0,792)" stroke-width="20" stroke-linecap="butt" stroke-miterlimit="10" stroke-linejoin="miter" fill="none" stroke="#000000" d="M597.398 1092 1185.1 282.898 2136.2-26.1016 1548.4 782.898Z"/>
<path transform="matrix(.1,0,0,-.1,0,792)" d="M597.398 1092-353.699 782.898V-217.102L597.398-526.102 1185.1 282.898" fill="#824d05"/>
<path transform="matrix(.1,0,0,-.1,0,792)" stroke-width="20" stroke-linecap="butt" stroke-miterlimit="10" stroke-linejoin="miter" fill="none" stroke="#000000" d="M597.398 1092-353.699 782.898V-217.102L597.398-526.102 1185.1 282.898Z"/>
<path transform="matrix(.1,0,0,-.1,0,792)" d="M5352.6 6019 5940.4 5210 6891.5 5519V6519L5940.4 6828" fill="#824d05"/>
<path transform="matrix(.1,0,0,-.1,0,792)" stroke-width="20" stroke-linecap="butt" stroke-miterlimit="10" stroke-linejoin="miter" fill="none" stroke="#000000" d="M5352.6 6019 5940.4 5210 6891.5 5519V6519L5940.4 6828Z"/>
<path transform="matrix(.1,0,0,-.1,0,792)" d="M5352.6 7637.1 6303.7 7328 6891.5 8137.1 6303.7 8946.1 5352.6 8637.1" fill="#824d05"/>
<path transform="matrix(.1,0,0,-.1,0,792)" stroke-width="20" stroke-linecap="butt" stroke-miterlimit="10" stroke-linejoin="miter" fill="none" stroke="#000000" d="M5352.6 7637.1 6303.7 7328 6891.5 8137.1 6303.7 8946.1 5352.6 8637.1Z"/>
<path transform="matrix(.1,0,0,-.1,0,792)" d="M5352.6 7637.1 5940.4 6828 6891.5 6519 6303.7 7328Z" fill="#91217d"/>
<path transform="matrix(.1,0,0,-.1,0,792)" stroke-width="20" stroke-linecap="butt" stroke-miterlimit="10" stroke-linejoin="miter" fill="none" stroke="#000000" d="M5352.6 7637.1 5940.4 6828 6891.5 6519 6303.7 7328Z"/>
<path transform="matrix(.1,0,0,-.1,0,792)" d="M4626.1 782.898 4038.3-26.1016 4626.1-835.102 5577.2-526.102V473.898" fill="#824d05"/>
<path transform="matrix(.1,0,0,-.1,0,792)" stroke-width="20" stroke-linecap="butt" stroke-miterlimit="10" stroke-linejoin="miter" fill="none" stroke="#000000" d="M4626.1 782.898 4038.3-26.1016 4626.1-835.102 5577.2-526.102V473.898Z"/>
<path transform="matrix(.1,0,0,-.1,0,792)" d="M372.801 7637.1 960.602 8446.1 372.801 9255.1-578.199 8946.1V7946.1" fill="#824d05"/>
<path transform="matrix(.1,0,0,-.1,0,792)" stroke-width="20" stroke-linecap="butt" stroke-miterlimit="10" stroke-linejoin="miter" fill="none" stroke="#000000" d="M372.801 7637.1 960.602 8446.1 372.801 9255.1-578.199 8946.1V7946.1Z"/>
<path transform="matrix(.1,0,0,-.1,0,792)" d="M5577.2 473.898V-526.102L6528.2-835.102 7116-26.1016 6528.2 782.898" fill="#824d05"/>
<path transform="matrix(.1,0,0,-.1,0,792)" stroke-width="20" stroke-linecap="butt" stroke-miterlimit="10" stroke-linejoin="miter" fill="none" stroke="#000000" d="M5577.2 473.898V-526.102L6528.2-835.102 7116-26.1016 6528.2 782.898Z"/>
<path transform="matrix(.1,0,0,-.1,0,792)" d="M1185.1 282.898 597.398-526.102 1185.1-1335.1 2136.2-1026.1V-26.1016" fill="#824d05"/>
<path transform="matrix(.1,0,0,-.1,0,792)" stroke-width="20" stroke-linecap="butt" stroke-miterlimit="10" stroke-linejoin="miter" fill="none" stroke="#000000" d="M1185.1 282.898 597.398-526.102 1185.1-1335.1 2136.2-1026.1V-26.1016Z"/>
<path transform="matrix(.1,0,0,-.1,0,792)" d="M3087.3 282.898 3675-526.102 4626.1-835.102 4038.3-26.1016Z" fill="#91217d"/>
<path transform="matrix(.1,0,0,-.1,0,792)" stroke-width="20" stroke-linecap="butt" stroke-miterlimit="10" stroke-linejoin="miter" fill="none" stroke="#000000" d="M3087.3 282.898 3675-526.102 4626.1-835.102 4038.3-26.1016Z"/>
<path transform="matrix(.1,0,0,-.1,0,792)" d="M3087.3 282.898 2136.2-26.1016V-1026.1L3087.3-1335.1 3675-526.102" fill="#824d05"/>
<path transform="matrix(.1,0,0,-.1,0,792)" stroke-width="20" stroke-linecap="butt" stroke-miterlimit="10" stroke-linejoin="miter" fill="none" stroke="#000000" d="M3087.3 282.898 2136.2-26.1016V-1026.1L3087.3-1335.1 3675-526.102Z"/>
<path transform="matrix(.1,0,0,-.1,0,792)" d="M5940.4 2592 6528.2 1782.9 7479.3 2092V3092L6528.2 3401" fill="#824d05"/>
<path transform="matrix(.1,0,0,-.1,0,792)" stroke-width="20" stroke-linecap="butt" stroke-miterlimit="10" stroke-linejoin="miter" fill="none" stroke="#000000" d="M5940.4 2592 6528.2 1782.9 7479.3 2092V3092L6528.2 3401Z"/>
<path transform="matrix(.1,0,0,-.1,0,792)" d="M5940.4 4210 6891.5 3901 7479.3 4710 6891.5 5519 5940.4 5210" fill="#824d05"/>
<path transform="matrix(.1,0,0,-.1,0,792)" stroke-width="20" stroke-linecap="butt" stroke-miterlimit="10" stroke-linejoin="miter" fill="none" stroke="#000000" d="M5940.4 4210 6891.5 3901 7479.3 4710 6891.5 5519 5940.4 5210Z"/>
<path transform="matrix(.1,0,0,-.1,0,792)" d="M5940.4 4210 6528.2 3401 7479.3 3092 6891.5 3901Z" fill="#91217d"/>
<path transform="matrix(.1,0,0,-.1,0,792)" stroke-width="20" stroke-linecap="butt" stroke-miterlimit="10" stroke-linejoin="miter" fill="none" stroke="#000000" d="M5940.4 4210 6528.2 3401 7479.3 3092 6891.5 3901Z"/>
<path transform="matrix(.1,0,0,-.1,0,792)" d="M9.60156 7137.1-578.199 7946.1-1529.3 7637.1V6637.1L-578.199 6328" fill="#824d05"/>
<path transform="matrix(.1,0,0,-.1,0,792)" stroke-width="20" stroke-linecap="butt" stroke-miterlimit="10" stroke-linejoin="miter" fill="none" stroke="#000000" d="M9.60156 7137.1-578.199 7946.1-1529.3 7637.1V6637.1L-578.199 6328Z"/>
<path transform="matrix(.1,0,0,-.1,0,792)" d="M9.60156 5519-941.5 5828-1529.3 5019-941.5 4210 9.60156 4519" fill="#824d05"/>
<path transform="matrix(.1,0,0,-.1,0,792)" stroke-width="20" stroke-linecap="butt" stroke-miterlimit="10" stroke-linejoin="miter" fill="none" stroke="#000000" d="M9.60156 5519-941.5 5828-1529.3 5019-941.5 4210 9.60156 4519Z"/>
<path transform="matrix(.1,0,0,-.1,0,792)" d="M9.60156 5519-578.199 6328-1529.3 6637.1-941.5 5828Z" fill="#91217d"/>
<path transform="matrix(.1,0,0,-.1,0,792)" stroke-width="20" stroke-linecap="butt" stroke-miterlimit="10" stroke-linejoin="miter" fill="none" stroke="#000000" d="M9.60156 5519-578.199 6328-1529.3 6637.1-941.5 5828Z"/>
</svg>
