<svg xmlns="http://www.w3.org/2000/svg" xmlns:xlink="http://www.w3.org/1999/xlink" xmlns:inkscape="http://www.inkscape.org/namespaces/inkscape" version="1.1" width="612" height="792" viewBox="0 0 612 792">
<path transform="matrix(.1,0,0,-.1,0,792)" d="M3352.1 4210 3069.3 4492.8 2786.4 4210 3069.3 3927.2Z" fill="#b57de3"/>
<path transform="matrix(.1,0,0,-.1,0,792)" stroke-width="70" stroke-linecap="butt" stroke-miterlimit="10" stroke-linejoin="miter" fill="none" stroke="#ffffff" d="M3352.1 4210 3069.3 4492.8 2786.4 4210 3069.3 3927.2Z"/>
<path transform="matrix(.1,0,0,-.1,0,792)" d="M2786.4 4210 2503.6 3927.2 2117.2 4030.7 2013.7 3644.3 2400.1 3540.8 2503.6 3154.4 2890 3257.9 2786.4 3644.3 3069.3 3927.2" fill="#38ebe8"/>
<path transform="matrix(.1,0,0,-.1,0,792)" stroke-width="70" stroke-linecap="butt" stroke-miterlimit="10" stroke-linejoin="miter" fill="none" stroke="#ffffff" d="M2786.4 4210 2503.6 3927.2 2117.2 4030.7 2013.7 3644.3 2400.1 3540.8 2503.6 3154.4 2890 3257.9 2786.4 3644.3 3069.3 3927.2Z"/>
<path transform="matrix(.1,0,0,-.1,0,792)" d="M2786.4 4210 2296.5 4699.9 2117.2 4030.7 2503.6 3927.2Z" fill="#086e40"/>
<path transform="matrix(.1,0,0,-.1,0,792)" stroke-width="70" stroke-linecap="butt" stroke-miterlimit="10" stroke-linejoin="miter" fill="none" stroke="#ffffff" d="M2786.4 4210 2296.5 4699.9 2117.2 4030.7 2503.6 3927.2Z"/>
<path transform="matrix(.1,0,0,-.1,0,792)" d="M2786.4 4210 3069.3 4492.8 2579.4 4982.7 3248.6 5162.1 3145.1 5548.4 2475.9 5369.1 2655.2 6038.3 2268.8 6141.9 2089.5 5472.6 1599.6 5962.5 1316.7 5679.7 1806.6 5189.8 1137.4 5010.5 1241 4624.1 1910.2 4803.4 1730.9 4134.2 2117.2 4030.7 2296.5 4699.9" fill="#61a308"/>
<path transform="matrix(.1,0,0,-.1,0,792)" stroke-width="70" stroke-linecap="butt" stroke-miterlimit="10" stroke-linejoin="miter" fill="none" stroke="#ffffff" d="M2786.4 4210 3069.3 4492.8 2579.4 4982.7 3248.6 5162.1 3145.1 5548.4 2475.9 5369.1 2655.2 6038.3 2268.8 6141.9 2089.5 5472.6 1599.6 5962.5 1316.7 5679.7 1806.6 5189.8 1137.4 5010.5 1241 4624.1 1910.2 4803.4 1730.9 4134.2 2117.2 4030.7 2296.5 4699.9Z"/>
<path transform="matrix(.1,0,0,-.1,0,792)" d="M3069.3 4492.8 3352.1 4775.7 3248.6 5162.1 2579.4 4982.7Z" fill="#086e40"/>
<path transform="matrix(.1,0,0,-.1,0,792)" stroke-width="70" stroke-linecap="butt" stroke-miterlimit="10" stroke-linejoin="miter" fill="none" stroke="#ffffff" d="M3069.3 4492.8 3352.1 4775.7 3248.6 5162.1 2579.4 4982.7Z"/>
<path transform="matrix(.1,0,0,-.1,0,792)" d="M3069.3 4492.8 3352.1 4210 3635 4492.8 4021.3 4389.3 4124.9 4775.7 3738.5 4879.2 3635 5265.6 3248.6 5162.1 3352.1 4775.7" fill="#38ebe8"/>
<path transform="matrix(.1,0,0,-.1,0,792)" stroke-width="70" stroke-linecap="butt" stroke-miterlimit="10" stroke-linejoin="miter" fill="none" stroke="#ffffff" d="M3069.3 4492.8 3352.1 4210 3635 4492.8 4021.3 4389.3 4124.9 4775.7 3738.5 4879.2 3635 5265.6 3248.6 5162.1 3352.1 4775.7Z"/>
<path transform="matrix(.1,0,0,-.1,0,792)" d="M3069.3 3927.2 3559.2 3437.3 2890 3257.9 2993.5 2871.6 3662.7 3050.9 3483.4 2381.7 3869.8 2278.1 4049.1 2947.4 4539 2457.5 4821.8 2740.3 4331.9 3230.2 5001.1 3409.5 4897.6 3795.9 4228.4 3616.6 4407.7 4285.8 4021.3 4389.3 3842 3720.1 3352.1 4210" fill="#61a308"/>
<path transform="matrix(.1,0,0,-.1,0,792)" stroke-width="70" stroke-linecap="butt" stroke-miterlimit="10" stroke-linejoin="miter" fill="none" stroke="#ffffff" d="M3069.3 3927.2 3559.2 3437.3 2890 3257.9 2993.5 2871.6 3662.7 3050.9 3483.4 2381.7 3869.8 2278.1 4049.1 2947.4 4539 2457.5 4821.8 2740.3 4331.9 3230.2 5001.1 3409.5 4897.6 3795.9 4228.4 3616.6 4407.7 4285.8 4021.3 4389.3 3842 3720.1 3352.1 4210Z"/>
<path transform="matrix(.1,0,0,-.1,0,792)" d="M3069.3 3927.2 2786.4 3644.3 2890 3257.9 3559.2 3437.3Z" fill="#086e40"/>
<path transform="matrix(.1,0,0,-.1,0,792)" stroke-width="70" stroke-linecap="butt" stroke-miterlimit="10" stroke-linejoin="miter" fill="none" stroke="#ffffff" d="M3069.3 3927.2 2786.4 3644.3 2890 3257.9 3559.2 3437.3Z"/>
<path transform="matrix(.1,0,0,-.1,0,792)" d="M3352.1 4210 3842 3720.1 4021.3 4389.3 3635 4492.8Z" fill="#086e40"/>
<path transform="matrix(.1,0,0,-.1,0,792)" stroke-width="70" stroke-linecap="butt" stroke-miterlimit="10" stroke-linejoin="miter" fill="none" stroke="#ffffff" d="M3352.1 4210 3842 3720.1 4021.3 4389.3 3635 4492.8Z"/>
<path transform="matrix(.1,0,0,-.1,0,792)" d="M2400.1 3540.8 2013.7 3644.3 1834.4 2975.1 2503.6 3154.4Z" fill="#086e40"/>
<path transform="matrix(.1,0,0,-.1,0,792)" stroke-width="70" stroke-linecap="butt" stroke-miterlimit="10" stroke-linejoin="miter" fill="none" stroke="#ffffff" d="M2400.1 3540.8 2013.7 3644.3 1834.4 2975.1 2503.6 3154.4Z"/>
<path transform="matrix(.1,0,0,-.1,0,792)" d="M2890 3257.9 2503.6 3154.4 2607.1 2768 2993.5 2871.6Z" fill="#b57de3"/>
<path transform="matrix(.1,0,0,-.1,0,792)" stroke-width="70" stroke-linecap="butt" stroke-miterlimit="10" stroke-linejoin="miter" fill="none" stroke="#ffffff" d="M2890 3257.9 2503.6 3154.4 2607.1 2768 2993.5 2871.6Z"/>
<path transform="matrix(.1,0,0,-.1,0,792)" d="M3248.6 5162.1 3635 5265.6 3531.4 5652 3145.1 5548.4Z" fill="#b57de3"/>
<path transform="matrix(.1,0,0,-.1,0,792)" stroke-width="70" stroke-linecap="butt" stroke-miterlimit="10" stroke-linejoin="miter" fill="none" stroke="#ffffff" d="M3248.6 5162.1 3635 5265.6 3531.4 5652 3145.1 5548.4Z"/>
<path transform="matrix(.1,0,0,-.1,0,792)" d="M3738.5 4879.2 4124.9 4775.7 4304.2 5444.9 3635 5265.6Z" fill="#086e40"/>
<path transform="matrix(.1,0,0,-.1,0,792)" stroke-width="70" stroke-linecap="butt" stroke-miterlimit="10" stroke-linejoin="miter" fill="none" stroke="#ffffff" d="M3738.5 4879.2 4124.9 4775.7 4304.2 5444.9 3635 5265.6Z"/>
<path transform="matrix(.1,0,0,-.1,0,792)" d="M3635 5265.6 4304.2 5444.9 4124.9 4775.7 4511.2 4672.2 4690.5 5341.4 5180.4 4851.5 5463.3 5134.3 4973.4 5624.2 5642.6 5803.5 5539.1 6189.9 4869.9 6010.6 5049.2 6679.8 4662.8 6783.3 4483.5 6114.1 3993.6 6604 3710.8 6321.2 4200.7 5831.3 3531.4 5652" fill="#61a308"/>
<path transform="matrix(.1,0,0,-.1,0,792)" stroke-width="70" stroke-linecap="butt" stroke-miterlimit="10" stroke-linejoin="miter" fill="none" stroke="#ffffff" d="M3635 5265.6 4304.2 5444.9 4124.9 4775.7 4511.2 4672.2 4690.5 5341.4 5180.4 4851.5 5463.3 5134.3 4973.4 5624.2 5642.6 5803.5 5539.1 6189.9 4869.9 6010.6 5049.2 6679.8 4662.8 6783.3 4483.5 6114.1 3993.6 6604 3710.8 6321.2 4200.7 5831.3 3531.4 5652Z"/>
<path transform="matrix(.1,0,0,-.1,0,792)" d="M2503.6 3154.4 1834.4 2975.1 2013.7 3644.3 1627.3 3747.8 1448 3078.6 958.102 3568.5 675.301 3285.7 1165.2 2795.8 496 2616.5 599.5 2230.1 1268.7 2409.4 1089.4 1740.2 1475.8 1636.7 1655.1 2305.9 2145 1816 2427.8 2098.8 1937.9 2588.7 2607.1 2768" fill="#61a308"/>
<path transform="matrix(.1,0,0,-.1,0,792)" stroke-width="70" stroke-linecap="butt" stroke-miterlimit="10" stroke-linejoin="miter" fill="none" stroke="#ffffff" d="M2503.6 3154.4 1834.4 2975.1 2013.7 3644.3 1627.3 3747.8 1448 3078.6 958.102 3568.5 675.301 3285.7 1165.2 2795.8 496 2616.5 599.5 2230.1 1268.7 2409.4 1089.4 1740.2 1475.8 1636.7 1655.1 2305.9 2145 1816 2427.8 2098.8 1937.9 2588.7 2607.1 2768Z"/>
<path transform="matrix(.1,0,0,-.1,0,792)" d="M3662.7 3050.9 2993.5 2871.6 3097 2485.2 3483.4 2381.7Z" fill="#086e40"/>
<path transform="matrix(.1,0,0,-.1,0,792)" stroke-width="70" stroke-linecap="butt" stroke-miterlimit="10" stroke-linejoin="miter" fill="none" stroke="#ffffff" d="M3662.7 3050.9 2993.5 2871.6 3097 2485.2 3483.4 2381.7Z"/>
<path transform="matrix(.1,0,0,-.1,0,792)" d="M2475.9 5369.1 3145.1 5548.4 3041.5 5934.8 2655.2 6038.3Z" fill="#086e40"/>
<path transform="matrix(.1,0,0,-.1,0,792)" stroke-width="70" stroke-linecap="butt" stroke-miterlimit="10" stroke-linejoin="miter" fill="none" stroke="#ffffff" d="M2475.9 5369.1 3145.1 5548.4 3041.5 5934.8 2655.2 6038.3Z"/>
<path transform="matrix(.1,0,0,-.1,0,792)" d="M2117.2 4030.7 1730.9 4134.2 1627.3 3747.8 2013.7 3644.3Z" fill="#b57de3"/>
<path transform="matrix(.1,0,0,-.1,0,792)" stroke-width="70" stroke-linecap="butt" stroke-miterlimit="10" stroke-linejoin="miter" fill="none" stroke="#ffffff" d="M2117.2 4030.7 1730.9 4134.2 1627.3 3747.8 2013.7 3644.3Z"/>
<path transform="matrix(.1,0,0,-.1,0,792)" d="M2089.5 5472.6 2268.8 6141.9 1882.4 6245.4 1599.6 5962.5Z" fill="#086e40"/>
<path transform="matrix(.1,0,0,-.1,0,792)" stroke-width="70" stroke-linecap="butt" stroke-miterlimit="10" stroke-linejoin="miter" fill="none" stroke="#ffffff" d="M2089.5 5472.6 2268.8 6141.9 1882.4 6245.4 1599.6 5962.5Z"/>
<path transform="matrix(.1,0,0,-.1,0,792)" d="M2993.5 2871.6 2607.1 2768 2710.7 2381.7 2427.8 2098.8 2710.7 1816 2993.5 2098.8 3379.9 1995.3 3483.4 2381.7 3097 2485.2" fill="#38ebe8"/>
<path transform="matrix(.1,0,0,-.1,0,792)" stroke-width="70" stroke-linecap="butt" stroke-miterlimit="10" stroke-linejoin="miter" fill="none" stroke="#ffffff" d="M2993.5 2871.6 2607.1 2768 2710.7 2381.7 2427.8 2098.8 2710.7 1816 2993.5 2098.8 3379.9 1995.3 3483.4 2381.7 3097 2485.2Z"/>
<path transform="matrix(.1,0,0,-.1,0,792)" d="M3145.1 5548.4 3531.4 5652 3427.9 6038.3 3710.8 6321.2 3427.9 6604 3145.1 6321.2 2758.7 6424.7 2655.2 6038.3 3041.5 5934.8" fill="#38ebe8"/>
<path transform="matrix(.1,0,0,-.1,0,792)" stroke-width="70" stroke-linecap="butt" stroke-miterlimit="10" stroke-linejoin="miter" fill="none" stroke="#ffffff" d="M3145.1 5548.4 3531.4 5652 3427.9 6038.3 3710.8 6321.2 3427.9 6604 3145.1 6321.2 2758.7 6424.7 2655.2 6038.3 3041.5 5934.8Z"/>
<path transform="matrix(.1,0,0,-.1,0,792)" d="M4021.3 4389.3 4407.7 4285.8 4511.2 4672.2 4124.9 4775.7Z" fill="#b57de3"/>
<path transform="matrix(.1,0,0,-.1,0,792)" stroke-width="70" stroke-linecap="butt" stroke-miterlimit="10" stroke-linejoin="miter" fill="none" stroke="#ffffff" d="M4021.3 4389.3 4407.7 4285.8 4511.2 4672.2 4124.9 4775.7Z"/>
<path transform="matrix(.1,0,0,-.1,0,792)" d="M3531.4 5652 4200.7 5831.3 3710.8 6321.2 3427.9 6038.3Z" fill="#086e40"/>
<path transform="matrix(.1,0,0,-.1,0,792)" stroke-width="70" stroke-linecap="butt" stroke-miterlimit="10" stroke-linejoin="miter" fill="none" stroke="#ffffff" d="M3531.4 5652 4200.7 5831.3 3710.8 6321.2 3427.9 6038.3Z"/>
<path transform="matrix(.1,0,0,-.1,0,792)" d="M2607.1 2768 1937.9 2588.7 2427.8 2098.8 2710.7 2381.7Z" fill="#086e40"/>
<path transform="matrix(.1,0,0,-.1,0,792)" stroke-width="70" stroke-linecap="butt" stroke-miterlimit="10" stroke-linejoin="miter" fill="none" stroke="#ffffff" d="M2607.1 2768 1937.9 2588.7 2427.8 2098.8 2710.7 2381.7Z"/>
<path transform="matrix(.1,0,0,-.1,0,792)" d="M1910.2 4803.4 1241 4624.1 1344.5 4237.7 1730.9 4134.2Z" fill="#086e40"/>
<path transform="matrix(.1,0,0,-.1,0,792)" stroke-width="70" stroke-linecap="butt" stroke-miterlimit="10" stroke-linejoin="miter" fill="none" stroke="#ffffff" d="M1910.2 4803.4 1241 4624.1 1344.5 4237.7 1730.9 4134.2Z"/>
<path transform="matrix(.1,0,0,-.1,0,792)" d="M4049.1 2947.4 3869.8 2278.1 4256.1 2174.6 4539 2457.5Z" fill="#086e40"/>
<path transform="matrix(.1,0,0,-.1,0,792)" stroke-width="70" stroke-linecap="butt" stroke-miterlimit="10" stroke-linejoin="miter" fill="none" stroke="#ffffff" d="M4049.1 2947.4 3869.8 2278.1 4256.1 2174.6 4539 2457.5Z"/>
<path transform="matrix(.1,0,0,-.1,0,792)" d="M1806.6 5189.8 1316.7 5679.7 1033.9 5396.9 1137.4 5010.5Z" fill="#086e40"/>
<path transform="matrix(.1,0,0,-.1,0,792)" stroke-width="70" stroke-linecap="butt" stroke-miterlimit="10" stroke-linejoin="miter" fill="none" stroke="#ffffff" d="M1806.6 5189.8 1316.7 5679.7 1033.9 5396.9 1137.4 5010.5Z"/>
<path transform="matrix(.1,0,0,-.1,0,792)" d="M1730.9 4134.2 1344.5 4237.7 1241 4624.1 854.602 4520.6 958.102 4134.2 675.301 3851.4 958.102 3568.5 1241 3851.4 1627.3 3747.8" fill="#38ebe8"/>
<path transform="matrix(.1,0,0,-.1,0,792)" stroke-width="70" stroke-linecap="butt" stroke-miterlimit="10" stroke-linejoin="miter" fill="none" stroke="#ffffff" d="M1730.9 4134.2 1344.5 4237.7 1241 4624.1 854.602 4520.6 958.102 4134.2 675.301 3851.4 958.102 3568.5 1241 3851.4 1627.3 3747.8Z"/>
<path transform="matrix(.1,0,0,-.1,0,792)" d="M4228.4 3616.6 4897.6 3795.9 4794.1 4182.3 4407.7 4285.8Z" fill="#086e40"/>
<path transform="matrix(.1,0,0,-.1,0,792)" stroke-width="70" stroke-linecap="butt" stroke-miterlimit="10" stroke-linejoin="miter" fill="none" stroke="#ffffff" d="M4228.4 3616.6 4897.6 3795.9 4794.1 4182.3 4407.7 4285.8Z"/>
<path transform="matrix(.1,0,0,-.1,0,792)" d="M2655.2 6038.3 2758.7 6424.7 2372.3 6528.2 2268.8 6141.9Z" fill="#b57de3"/>
<path transform="matrix(.1,0,0,-.1,0,792)" stroke-width="70" stroke-linecap="butt" stroke-miterlimit="10" stroke-linejoin="miter" fill="none" stroke="#ffffff" d="M2655.2 6038.3 2758.7 6424.7 2372.3 6528.2 2268.8 6141.9Z"/>
<path transform="matrix(.1,0,0,-.1,0,792)" d="M3483.4 2381.7 3379.9 1995.3 3766.2 1891.8 3869.8 2278.1Z" fill="#b57de3"/>
<path transform="matrix(.1,0,0,-.1,0,792)" stroke-width="70" stroke-linecap="butt" stroke-miterlimit="10" stroke-linejoin="miter" fill="none" stroke="#ffffff" d="M3483.4 2381.7 3379.9 1995.3 3766.2 1891.8 3869.8 2278.1Z"/>
<path transform="matrix(.1,0,0,-.1,0,792)" d="M1627.3 3747.8 1241 3851.4 958.102 3568.5 1448 3078.6Z" fill="#086e40"/>
<path transform="matrix(.1,0,0,-.1,0,792)" stroke-width="70" stroke-linecap="butt" stroke-miterlimit="10" stroke-linejoin="miter" fill="none" stroke="#ffffff" d="M1627.3 3747.8 1241 3851.4 958.102 3568.5 1448 3078.6Z"/>
<path transform="matrix(.1,0,0,-.1,0,792)" d="M4331.9 3230.2 4821.8 2740.3 5104.7 3023.1 5001.1 3409.5Z" fill="#086e40"/>
<path transform="matrix(.1,0,0,-.1,0,792)" stroke-width="70" stroke-linecap="butt" stroke-miterlimit="10" stroke-linejoin="miter" fill="none" stroke="#ffffff" d="M4331.9 3230.2 4821.8 2740.3 5104.7 3023.1 5001.1 3409.5Z"/>
<path transform="matrix(.1,0,0,-.1,0,792)" d="M1599.6 5962.5 1316.7 6245.4 1033.9 5962.5 1316.7 5679.7Z" fill="#b57de3"/>
<path transform="matrix(.1,0,0,-.1,0,792)" stroke-width="70" stroke-linecap="butt" stroke-miterlimit="10" stroke-linejoin="miter" fill="none" stroke="#ffffff" d="M1599.6 5962.5 1316.7 6245.4 1033.9 5962.5 1316.7 5679.7Z"/>
<path transform="matrix(.1,0,0,-.1,0,792)" d="M1599.6 5962.5 1882.4 6245.4 2268.8 6141.9 2372.3 6528.2 1986 6631.7 1882.4 7018.1 1496.1 6914.6 1599.6 6528.2 1316.7 6245.4" fill="#38ebe8"/>
<path transform="matrix(.1,0,0,-.1,0,792)" stroke-width="70" stroke-linecap="butt" stroke-miterlimit="10" stroke-linejoin="miter" fill="none" stroke="#ffffff" d="M1599.6 5962.5 1882.4 6245.4 2268.8 6141.9 2372.3 6528.2 1986 6631.7 1882.4 7018.1 1496.1 6914.6 1599.6 6528.2 1316.7 6245.4Z"/>
<path transform="matrix(.1,0,0,-.1,0,792)" d="M1655.1 2305.9 1475.8 1636.7 1862.1 1533.1 2145 1816Z" fill="#086e40"/>
<path transform="matrix(.1,0,0,-.1,0,792)" stroke-width="70" stroke-linecap="butt" stroke-miterlimit="10" stroke-linejoin="miter" fill="none" stroke="#ffffff" d="M1655.1 2305.9 1475.8 1636.7 1862.1 1533.1 2145 1816Z"/>
<path transform="matrix(.1,0,0,-.1,0,792)" d="M3869.8 2278.1 3766.2 1891.8 4152.6 1788.3 4256.1 1401.9 4642.5 1505.4 4539 1891.8 4821.8 2174.6 4539 2457.5 4256.1 2174.6" fill="#38ebe8"/>
<path transform="matrix(.1,0,0,-.1,0,792)" stroke-width="70" stroke-linecap="butt" stroke-miterlimit="10" stroke-linejoin="miter" fill="none" stroke="#ffffff" d="M3869.8 2278.1 3766.2 1891.8 4152.6 1788.3 4256.1 1401.9 4642.5 1505.4 4539 1891.8 4821.8 2174.6 4539 2457.5 4256.1 2174.6Z"/>
<path transform="matrix(.1,0,0,-.1,0,792)" d="M4407.7 4285.8 4794.1 4182.3 4897.6 3795.9 5284 3899.4 5180.4 4285.8 5463.3 4568.6 5180.4 4851.5 4897.6 4568.6 4511.2 4672.2" fill="#38ebe8"/>
<path transform="matrix(.1,0,0,-.1,0,792)" stroke-width="70" stroke-linecap="butt" stroke-miterlimit="10" stroke-linejoin="miter" fill="none" stroke="#ffffff" d="M4407.7 4285.8 4794.1 4182.3 4897.6 3795.9 5284 3899.4 5180.4 4285.8 5463.3 4568.6 5180.4 4851.5 4897.6 4568.6 4511.2 4672.2Z"/>
<path transform="matrix(.1,0,0,-.1,0,792)" d="M4483.5 6114.1 4662.8 6783.3 4276.4 6886.9 3993.6 6604Z" fill="#086e40"/>
<path transform="matrix(.1,0,0,-.1,0,792)" stroke-width="70" stroke-linecap="butt" stroke-miterlimit="10" stroke-linejoin="miter" fill="none" stroke="#ffffff" d="M4483.5 6114.1 4662.8 6783.3 4276.4 6886.9 3993.6 6604Z"/>
<path transform="matrix(.1,0,0,-.1,0,792)" d="M3710.8 6321.2 3993.6 6604 3710.8 6886.9 3427.9 6604Z" fill="#b57de3"/>
<path transform="matrix(.1,0,0,-.1,0,792)" stroke-width="70" stroke-linecap="butt" stroke-miterlimit="10" stroke-linejoin="miter" fill="none" stroke="#ffffff" d="M3710.8 6321.2 3993.6 6604 3710.8 6886.9 3427.9 6604Z"/>
<path transform="matrix(.1,0,0,-.1,0,792)" d="M3145.1 6321.2 3427.9 6604 2938 7093.9 2758.7 6424.7Z" fill="#086e40"/>
<path transform="matrix(.1,0,0,-.1,0,792)" stroke-width="70" stroke-linecap="butt" stroke-miterlimit="10" stroke-linejoin="miter" fill="none" stroke="#ffffff" d="M3145.1 6321.2 3427.9 6604 2938 7093.9 2758.7 6424.7Z"/>
<path transform="matrix(.1,0,0,-.1,0,792)" d="M2427.8 2098.8 2145 1816 2427.8 1533.1 2710.7 1816Z" fill="#b57de3"/>
<path transform="matrix(.1,0,0,-.1,0,792)" stroke-width="70" stroke-linecap="butt" stroke-miterlimit="10" stroke-linejoin="miter" fill="none" stroke="#ffffff" d="M2427.8 2098.8 2145 1816 2427.8 1533.1 2710.7 1816Z"/>
<path transform="matrix(.1,0,0,-.1,0,792)" d="M2993.5 2098.8 2710.7 1816 3200.5 1326.1 3379.9 1995.3Z" fill="#086e40"/>
<path transform="matrix(.1,0,0,-.1,0,792)" stroke-width="70" stroke-linecap="butt" stroke-miterlimit="10" stroke-linejoin="miter" fill="none" stroke="#ffffff" d="M2993.5 2098.8 2710.7 1816 3200.5 1326.1 3379.9 1995.3Z"/>
<path transform="matrix(.1,0,0,-.1,0,792)" d="M4511.2 4672.2 4897.6 4568.6 5180.4 4851.5 4690.5 5341.4Z" fill="#086e40"/>
<path transform="matrix(.1,0,0,-.1,0,792)" stroke-width="70" stroke-linecap="butt" stroke-miterlimit="10" stroke-linejoin="miter" fill="none" stroke="#ffffff" d="M4511.2 4672.2 4897.6 4568.6 5180.4 4851.5 4690.5 5341.4Z"/>
<path transform="matrix(.1,0,0,-.1,0,792)" d="M4539 2457.5 4821.8 2174.6 5104.7 2457.5 4821.8 2740.3Z" fill="#b57de3"/>
<path transform="matrix(.1,0,0,-.1,0,792)" stroke-width="70" stroke-linecap="butt" stroke-miterlimit="10" stroke-linejoin="miter" fill="none" stroke="#ffffff" d="M4539 2457.5 4821.8 2174.6 5104.7 2457.5 4821.8 2740.3Z"/>
<path transform="matrix(.1,0,0,-.1,0,792)" d="M2758.7 6424.7 2938 7093.9 3427.9 6604 3710.8 6886.9 3220.9 7376.8 3890.1 7556.1 3786.5 7942.4 3117.3 7763.1 3296.6 8432.3 2910.3 8535.9 2731 7866.6 2241.1 8356.5 1958.2 8073.7 2448.1 7583.8 1778.9 7404.5 1882.4 7018.1 2551.6 7197.4 2372.3 6528.2" fill="#61a308"/>
<path transform="matrix(.1,0,0,-.1,0,792)" stroke-width="70" stroke-linecap="butt" stroke-miterlimit="10" stroke-linejoin="miter" fill="none" stroke="#ffffff" d="M2758.7 6424.7 2938 7093.9 3427.9 6604 3710.8 6886.9 3220.9 7376.8 3890.1 7556.1 3786.5 7942.4 3117.3 7763.1 3296.6 8432.3 2910.3 8535.9 2731 7866.6 2241.1 8356.5 1958.2 8073.7 2448.1 7583.8 1778.9 7404.5 1882.4 7018.1 2551.6 7197.4 2372.3 6528.2Z"/>
<path transform="matrix(.1,0,0,-.1,0,792)" d="M3379.9 1995.3 3200.5 1326.1 2710.7 1816 2427.8 1533.1 2917.7 1043.2 2248.5 863.898 2352 477.602 3021.2 656.898 2841.9-12.3008 3228.3-115.898 3407.6 553.398 3897.5 63.5 4180.3 346.301 3690.4 836.199 4359.7 1015.5 4256.1 1401.9 3586.9 1222.6 3766.2 1891.8" fill="#61a308"/>
<path transform="matrix(.1,0,0,-.1,0,792)" stroke-width="70" stroke-linecap="butt" stroke-miterlimit="10" stroke-linejoin="miter" fill="none" stroke="#ffffff" d="M3379.9 1995.3 3200.5 1326.1 2710.7 1816 2427.8 1533.1 2917.7 1043.2 2248.5 863.898 2352 477.602 3021.2 656.898 2841.9-12.3008 3228.3-115.898 3407.6 553.398 3897.5 63.5 4180.3 346.301 3690.4 836.199 4359.7 1015.5 4256.1 1401.9 3586.9 1222.6 3766.2 1891.8Z"/>
<path transform="matrix(.1,0,0,-.1,0,792)" d="M1316.7 6245.4 826.801 6735.3 1496.1 6914.6 1392.5 7301 723.301 7121.6 902.602 7790.9 516.301 7894.4 336.898 7225.2-152.898 7715.1-435.801 7432.2 54.1016 6942.3-615.102 6763-511.602 6376.6 157.602 6556-21.6992 5886.7 364.699 5783.2 544 6452.4 1033.9 5962.5" fill="#61a308"/>
<path transform="matrix(.1,0,0,-.1,0,792)" stroke-width="70" stroke-linecap="butt" stroke-miterlimit="10" stroke-linejoin="miter" fill="none" stroke="#ffffff" d="M1316.7 6245.4 826.801 6735.3 1496.1 6914.6 1392.5 7301 723.301 7121.6 902.602 7790.9 516.301 7894.4 336.898 7225.2-152.898 7715.1-435.801 7432.2 54.1016 6942.3-615.102 6763-511.602 6376.6 157.602 6556-21.6992 5886.7 364.699 5783.2 544 6452.4 1033.9 5962.5Z"/>
<path transform="matrix(.1,0,0,-.1,0,792)" d="M1316.7 6245.4 1599.6 6528.2 1496.1 6914.6 826.801 6735.3Z" fill="#086e40"/>
<path transform="matrix(.1,0,0,-.1,0,792)" stroke-width="70" stroke-linecap="butt" stroke-miterlimit="10" stroke-linejoin="miter" fill="none" stroke="#ffffff" d="M1316.7 6245.4 1599.6 6528.2 1496.1 6914.6 826.801 6735.3Z"/>
<path transform="matrix(.1,0,0,-.1,0,792)" d="M1316.7 5679.7 1033.9 5962.5 751.102 5679.7 364.699 5783.2 261.199 5396.9 647.5 5293.3 751.102 4907 1137.4 5010.5 1033.9 5396.9" fill="#38ebe8"/>
<path transform="matrix(.1,0,0,-.1,0,792)" stroke-width="70" stroke-linecap="butt" stroke-miterlimit="10" stroke-linejoin="miter" fill="none" stroke="#ffffff" d="M1316.7 5679.7 1033.9 5962.5 751.102 5679.7 364.699 5783.2 261.199 5396.9 647.5 5293.3 751.102 4907 1137.4 5010.5 1033.9 5396.9Z"/>
<path transform="matrix(.1,0,0,-.1,0,792)" d="M3766.2 1891.8 3586.9 1222.6 4256.1 1401.9 4152.6 1788.3Z" fill="#086e40"/>
<path transform="matrix(.1,0,0,-.1,0,792)" stroke-width="70" stroke-linecap="butt" stroke-miterlimit="10" stroke-linejoin="miter" fill="none" stroke="#ffffff" d="M3766.2 1891.8 3586.9 1222.6 4256.1 1401.9 4152.6 1788.3Z"/>
<path transform="matrix(.1,0,0,-.1,0,792)" d="M4539 1891.8 4642.5 1505.4 5311.7 1684.7 4821.8 2174.6Z" fill="#086e40"/>
<path transform="matrix(.1,0,0,-.1,0,792)" stroke-width="70" stroke-linecap="butt" stroke-miterlimit="10" stroke-linejoin="miter" fill="none" stroke="#ffffff" d="M4539 1891.8 4642.5 1505.4 5311.7 1684.7 4821.8 2174.6Z"/>
<path transform="matrix(.1,0,0,-.1,0,792)" d="M2372.3 6528.2 2551.6 7197.4 1882.4 7018.1 1986 6631.7Z" fill="#086e40"/>
<path transform="matrix(.1,0,0,-.1,0,792)" stroke-width="70" stroke-linecap="butt" stroke-miterlimit="10" stroke-linejoin="miter" fill="none" stroke="#ffffff" d="M2372.3 6528.2 2551.6 7197.4 1882.4 7018.1 1986 6631.7Z"/>
<path transform="matrix(.1,0,0,-.1,0,792)" d="M1268.7 2409.4 599.5 2230.1 703 1843.7 1089.4 1740.2Z" fill="#086e40"/>
<path transform="matrix(.1,0,0,-.1,0,792)" stroke-width="70" stroke-linecap="butt" stroke-miterlimit="10" stroke-linejoin="miter" fill="none" stroke="#ffffff" d="M1268.7 2409.4 599.5 2230.1 703 1843.7 1089.4 1740.2Z"/>
<path transform="matrix(.1,0,0,-.1,0,792)" d="M1241 4624.1 1137.4 5010.5 751.102 4907 854.602 4520.6Z" fill="#b57de3"/>
<path transform="matrix(.1,0,0,-.1,0,792)" stroke-width="70" stroke-linecap="butt" stroke-miterlimit="10" stroke-linejoin="miter" fill="none" stroke="#ffffff" d="M1241 4624.1 1137.4 5010.5 751.102 4907 854.602 4520.6Z"/>
<path transform="matrix(.1,0,0,-.1,0,792)" d="M2145 1816 1862.1 1533.1 1475.8 1636.7 1372.2 1250.3 1758.6 1146.8 1862.1 760.398 2248.5 863.898 2145 1250.3 2427.8 1533.1" fill="#38ebe8"/>
<path transform="matrix(.1,0,0,-.1,0,792)" stroke-width="70" stroke-linecap="butt" stroke-miterlimit="10" stroke-linejoin="miter" fill="none" stroke="#ffffff" d="M2145 1816 1862.1 1533.1 1475.8 1636.7 1372.2 1250.3 1758.6 1146.8 1862.1 760.398 2248.5 863.898 2145 1250.3 2427.8 1533.1Z"/>
<path transform="matrix(.1,0,0,-.1,0,792)" d="M3993.6 6604 4276.4 6886.9 4662.8 6783.3 4766.3 7169.7 4380 7273.2 4276.4 7659.6 3890.1 7556.1 3993.6 7169.7 3710.8 6886.9" fill="#38ebe8"/>
<path transform="matrix(.1,0,0,-.1,0,792)" stroke-width="70" stroke-linecap="butt" stroke-miterlimit="10" stroke-linejoin="miter" fill="none" stroke="#ffffff" d="M3993.6 6604 4276.4 6886.9 4662.8 6783.3 4766.3 7169.7 4380 7273.2 4276.4 7659.6 3890.1 7556.1 3993.6 7169.7 3710.8 6886.9Z"/>
<path transform="matrix(.1,0,0,-.1,0,792)" d="M1165.2 2795.8 675.301 3285.7 392.398 3002.8 496 2616.5Z" fill="#086e40"/>
<path transform="matrix(.1,0,0,-.1,0,792)" stroke-width="70" stroke-linecap="butt" stroke-miterlimit="10" stroke-linejoin="miter" fill="none" stroke="#ffffff" d="M1165.2 2795.8 675.301 3285.7 392.398 3002.8 496 2616.5Z"/>
<path transform="matrix(.1,0,0,-.1,0,792)" d="M4821.8 2174.6 5311.7 1684.7 4642.5 1505.4 4746 1119 5415.2 1298.4 5235.9 629.102 5622.3 525.602 5801.6 1194.8 6291.5 704.898 6574.4 987.801 6084.5 1477.7 6753.7 1657 6650.1 2043.4 5980.9 1864 6160.2 2533.3 5773.9 2636.8 5594.6 1967.6 5104.7 2457.5" fill="#61a308"/>
<path transform="matrix(.1,0,0,-.1,0,792)" stroke-width="70" stroke-linecap="butt" stroke-miterlimit="10" stroke-linejoin="miter" fill="none" stroke="#ffffff" d="M4821.8 2174.6 5311.7 1684.7 4642.5 1505.4 4746 1119 5415.2 1298.4 5235.9 629.102 5622.3 525.602 5801.6 1194.8 6291.5 704.898 6574.4 987.801 6084.5 1477.7 6753.7 1657 6650.1 2043.4 5980.9 1864 6160.2 2533.3 5773.9 2636.8 5594.6 1967.6 5104.7 2457.5Z"/>
<path transform="matrix(.1,0,0,-.1,0,792)" d="M4821.8 2740.3 5104.7 2457.5 5387.5 2740.3 5773.9 2636.8 5877.4 3023.1 5491 3126.7 5387.5 3513 5001.1 3409.5 5104.7 3023.1" fill="#38ebe8"/>
<path transform="matrix(.1,0,0,-.1,0,792)" stroke-width="70" stroke-linecap="butt" stroke-miterlimit="10" stroke-linejoin="miter" fill="none" stroke="#ffffff" d="M4821.8 2740.3 5104.7 2457.5 5387.5 2740.3 5773.9 2636.8 5877.4 3023.1 5491 3126.7 5387.5 3513 5001.1 3409.5 5104.7 3023.1Z"/>
<path transform="matrix(.1,0,0,-.1,0,792)" d="M4662.8 6783.3 5049.2 6679.8 5152.7 7066.2 4766.3 7169.7Z" fill="#b57de3"/>
<path transform="matrix(.1,0,0,-.1,0,792)" stroke-width="70" stroke-linecap="butt" stroke-miterlimit="10" stroke-linejoin="miter" fill="none" stroke="#ffffff" d="M4662.8 6783.3 5049.2 6679.8 5152.7 7066.2 4766.3 7169.7Z"/>
<path transform="matrix(.1,0,0,-.1,0,792)" d="M1475.8 1636.7 1089.4 1740.2 985.898 1353.8 1372.2 1250.3Z" fill="#b57de3"/>
<path transform="matrix(.1,0,0,-.1,0,792)" stroke-width="70" stroke-linecap="butt" stroke-miterlimit="10" stroke-linejoin="miter" fill="none" stroke="#ffffff" d="M1475.8 1636.7 1089.4 1740.2 985.898 1353.8 1372.2 1250.3Z"/>
<path transform="matrix(.1,0,0,-.1,0,792)" d="M1089.4 1740.2 703 1843.7 599.5 2230.1 213.102 2126.6 316.602 1740.2 33.8008 1457.4 316.602 1174.5 599.5 1457.4 985.898 1353.8" fill="#38ebe8"/>
<path transform="matrix(.1,0,0,-.1,0,792)" stroke-width="70" stroke-linecap="butt" stroke-miterlimit="10" stroke-linejoin="miter" fill="none" stroke="#ffffff" d="M1089.4 1740.2 703 1843.7 599.5 2230.1 213.102 2126.6 316.602 1740.2 33.8008 1457.4 316.602 1174.5 599.5 1457.4 985.898 1353.8Z"/>
<path transform="matrix(.1,0,0,-.1,0,792)" d="M4869.9 6010.6 5539.1 6189.9 5435.6 6576.3 5049.2 6679.8Z" fill="#086e40"/>
<path transform="matrix(.1,0,0,-.1,0,792)" stroke-width="70" stroke-linecap="butt" stroke-miterlimit="10" stroke-linejoin="miter" fill="none" stroke="#ffffff" d="M4869.9 6010.6 5539.1 6189.9 5435.6 6576.3 5049.2 6679.8Z"/>
<path transform="matrix(.1,0,0,-.1,0,792)" d="M4897.6 3795.9 5001.1 3409.5 5387.5 3513 5284 3899.4Z" fill="#b57de3"/>
<path transform="matrix(.1,0,0,-.1,0,792)" stroke-width="70" stroke-linecap="butt" stroke-miterlimit="10" stroke-linejoin="miter" fill="none" stroke="#ffffff" d="M4897.6 3795.9 5001.1 3409.5 5387.5 3513 5284 3899.4Z"/>
<path transform="matrix(.1,0,0,-.1,0,792)" d="M1033.9 5962.5 544 6452.4 364.699 5783.2 751.102 5679.7Z" fill="#086e40"/>
<path transform="matrix(.1,0,0,-.1,0,792)" stroke-width="70" stroke-linecap="butt" stroke-miterlimit="10" stroke-linejoin="miter" fill="none" stroke="#ffffff" d="M1033.9 5962.5 544 6452.4 364.699 5783.2 751.102 5679.7Z"/>
<path transform="matrix(.1,0,0,-.1,0,792)" d="M2427.8 1533.1 2145 1250.3 2248.5 863.898 2917.7 1043.2Z" fill="#086e40"/>
<path transform="matrix(.1,0,0,-.1,0,792)" stroke-width="70" stroke-linecap="butt" stroke-miterlimit="10" stroke-linejoin="miter" fill="none" stroke="#ffffff" d="M2427.8 1533.1 2145 1250.3 2248.5 863.898 2917.7 1043.2Z"/>
<path transform="matrix(.1,0,0,-.1,0,792)" d="M3710.8 6886.9 3993.6 7169.7 3890.1 7556.1 3220.9 7376.8Z" fill="#086e40"/>
<path transform="matrix(.1,0,0,-.1,0,792)" stroke-width="70" stroke-linecap="butt" stroke-miterlimit="10" stroke-linejoin="miter" fill="none" stroke="#ffffff" d="M3710.8 6886.9 3993.6 7169.7 3890.1 7556.1 3220.9 7376.8Z"/>
<path transform="matrix(.1,0,0,-.1,0,792)" d="M1496.1 6914.6 1882.4 7018.1 1778.9 7404.5 1392.5 7301Z" fill="#b57de3"/>
<path transform="matrix(.1,0,0,-.1,0,792)" stroke-width="70" stroke-linecap="butt" stroke-miterlimit="10" stroke-linejoin="miter" fill="none" stroke="#ffffff" d="M1496.1 6914.6 1882.4 7018.1 1778.9 7404.5 1392.5 7301Z"/>
<path transform="matrix(.1,0,0,-.1,0,792)" d="M4642.5 1505.4 4256.1 1401.9 4359.7 1015.5 4746 1119Z" fill="#b57de3"/>
<path transform="matrix(.1,0,0,-.1,0,792)" stroke-width="70" stroke-linecap="butt" stroke-miterlimit="10" stroke-linejoin="miter" fill="none" stroke="#ffffff" d="M4642.5 1505.4 4256.1 1401.9 4359.7 1015.5 4746 1119Z"/>
<path transform="matrix(.1,0,0,-.1,0,792)" d="M4973.4 5624.2 5463.3 5134.3 5746.1 5417.2 5642.6 5803.5Z" fill="#086e40"/>
<path transform="matrix(.1,0,0,-.1,0,792)" stroke-width="70" stroke-linecap="butt" stroke-miterlimit="10" stroke-linejoin="miter" fill="none" stroke="#ffffff" d="M4973.4 5624.2 5463.3 5134.3 5746.1 5417.2 5642.6 5803.5Z"/>
<path transform="matrix(.1,0,0,-.1,0,792)" d="M958.102 4134.2 854.602 4520.6 185.398 4341.3 675.301 3851.4Z" fill="#086e40"/>
<path transform="matrix(.1,0,0,-.1,0,792)" stroke-width="70" stroke-linecap="butt" stroke-miterlimit="10" stroke-linejoin="miter" fill="none" stroke="#ffffff" d="M958.102 4134.2 854.602 4520.6 185.398 4341.3 675.301 3851.4Z"/>
<path transform="matrix(.1,0,0,-.1,0,792)" d="M958.102 3568.5 675.301 3851.4 392.398 3568.5 675.301 3285.7Z" fill="#b57de3"/>
<path transform="matrix(.1,0,0,-.1,0,792)" stroke-width="70" stroke-linecap="butt" stroke-miterlimit="10" stroke-linejoin="miter" fill="none" stroke="#ffffff" d="M958.102 3568.5 675.301 3851.4 392.398 3568.5 675.301 3285.7Z"/>
<path transform="matrix(.1,0,0,-.1,0,792)" d="M985.898 1353.8 806.5 684.602 316.602 1174.5 33.8008 891.699 523.699 401.801-145.5 222.5-42-163.898 627.199 15.3984 447.898-653.801 834.301-757.301 1013.6-88.1016 1503.5-578 1786.3-295.199 1296.4 194.699 1965.7 374 1862.1 760.398 1192.9 581.102 1372.2 1250.3" fill="#61a308"/>
<path transform="matrix(.1,0,0,-.1,0,792)" stroke-width="70" stroke-linecap="butt" stroke-miterlimit="10" stroke-linejoin="miter" fill="none" stroke="#ffffff" d="M985.898 1353.8 806.5 684.602 316.602 1174.5 33.8008 891.699 523.699 401.801-145.5 222.5-42-163.898 627.199 15.3984 447.898-653.801 834.301-757.301 1013.6-88.1016 1503.5-578 1786.3-295.199 1296.4 194.699 1965.7 374 1862.1 760.398 1192.9 581.102 1372.2 1250.3Z"/>
<path transform="matrix(.1,0,0,-.1,0,792)" d="M985.898 1353.8 599.5 1457.4 316.602 1174.5 806.5 684.602Z" fill="#086e40"/>
<path transform="matrix(.1,0,0,-.1,0,792)" stroke-width="70" stroke-linecap="butt" stroke-miterlimit="10" stroke-linejoin="miter" fill="none" stroke="#ffffff" d="M985.898 1353.8 599.5 1457.4 316.602 1174.5 806.5 684.602Z"/>
<path transform="matrix(.1,0,0,-.1,0,792)" d="M5049.2 6679.8 5435.6 6576.3 5539.1 6189.9 5925.4 6293.4 5821.9 6679.8 6104.8 6962.6 5821.9 7245.5 5539.1 6962.6 5152.7 7066.2" fill="#38ebe8"/>
<path transform="matrix(.1,0,0,-.1,0,792)" stroke-width="70" stroke-linecap="butt" stroke-miterlimit="10" stroke-linejoin="miter" fill="none" stroke="#ffffff" d="M5049.2 6679.8 5435.6 6576.3 5539.1 6189.9 5925.4 6293.4 5821.9 6679.8 6104.8 6962.6 5821.9 7245.5 5539.1 6962.6 5152.7 7066.2Z"/>
<path transform="matrix(.1,0,0,-.1,0,792)" d="M854.602 4520.6 751.102 4907 81.8008 4727.6 261.199 5396.9-125.199 5500.4-304.5 4831.2-794.398 5321.1-1077.3 5038.2-587.398 4548.3-1256.6 4369-1153.1 3982.6-483.801 4162-663.199 3492.7-276.801 3389.2-97.5 4058.4 392.398 3568.5 675.301 3851.4 185.398 4341.3" fill="#61a308"/>
<path transform="matrix(.1,0,0,-.1,0,792)" stroke-width="70" stroke-linecap="butt" stroke-miterlimit="10" stroke-linejoin="miter" fill="none" stroke="#ffffff" d="M854.602 4520.6 751.102 4907 81.8008 4727.6 261.199 5396.9-125.199 5500.4-304.5 4831.2-794.398 5321.1-1077.3 5038.2-587.398 4548.3-1256.6 4369-1153.1 3982.6-483.801 4162-663.199 3492.7-276.801 3389.2-97.5 4058.4 392.398 3568.5 675.301 3851.4 185.398 4341.3Z"/>
<path transform="matrix(.1,0,0,-.1,0,792)" d="M5104.7 2457.5 5594.6 1967.6 5773.9 2636.8 5387.5 2740.3Z" fill="#086e40"/>
<path transform="matrix(.1,0,0,-.1,0,792)" stroke-width="70" stroke-linecap="butt" stroke-miterlimit="10" stroke-linejoin="miter" fill="none" stroke="#ffffff" d="M5104.7 2457.5 5594.6 1967.6 5773.9 2636.8 5387.5 2740.3Z"/>
<path transform="matrix(.1,0,0,-.1,0,792)" d="M4766.3 7169.7 4945.7 7838.9 4276.4 7659.6 4380 7273.2Z" fill="#086e40"/>
<path transform="matrix(.1,0,0,-.1,0,792)" stroke-width="70" stroke-linecap="butt" stroke-miterlimit="10" stroke-linejoin="miter" fill="none" stroke="#ffffff" d="M4766.3 7169.7 4945.7 7838.9 4276.4 7659.6 4380 7273.2Z"/>
<path transform="matrix(.1,0,0,-.1,0,792)" d="M4766.3 7169.7 5152.7 7066.2 5332 7735.4 5821.9 7245.5 6104.8 7528.3 5614.9 8018.2 6284.1 8197.5 6180.6 8583.9 5511.3 8404.6 5690.7 9073.8 5304.3 9177.3 5125 8508.1 4635.1 8998 4352.2 8715.2 4842.1 8225.3 4172.9 8046 4276.4 7659.6 4945.7 7838.9" fill="#61a308"/>
<path transform="matrix(.1,0,0,-.1,0,792)" stroke-width="70" stroke-linecap="butt" stroke-miterlimit="10" stroke-linejoin="miter" fill="none" stroke="#ffffff" d="M4766.3 7169.7 5152.7 7066.2 5332 7735.4 5821.9 7245.5 6104.8 7528.3 5614.9 8018.2 6284.1 8197.5 6180.6 8583.9 5511.3 8404.6 5690.7 9073.8 5304.3 9177.3 5125 8508.1 4635.1 8998 4352.2 8715.2 4842.1 8225.3 4172.9 8046 4276.4 7659.6 4945.7 7838.9Z"/>
<path transform="matrix(.1,0,0,-.1,0,792)" d="M1372.2 1250.3 1192.9 581.102 1862.1 760.398 1758.6 1146.8Z" fill="#086e40"/>
<path transform="matrix(.1,0,0,-.1,0,792)" stroke-width="70" stroke-linecap="butt" stroke-miterlimit="10" stroke-linejoin="miter" fill="none" stroke="#ffffff" d="M1372.2 1250.3 1192.9 581.102 1862.1 760.398 1758.6 1146.8Z"/>
<path transform="matrix(.1,0,0,-.1,0,792)" d="M5152.7 7066.2 5539.1 6962.6 5821.9 7245.5 5332 7735.4Z" fill="#086e40"/>
<path transform="matrix(.1,0,0,-.1,0,792)" stroke-width="70" stroke-linecap="butt" stroke-miterlimit="10" stroke-linejoin="miter" fill="none" stroke="#ffffff" d="M5152.7 7066.2 5539.1 6962.6 5821.9 7245.5 5332 7735.4Z"/>
<path transform="matrix(.1,0,0,-.1,0,792)" d="M5180.4 4285.8 5284 3899.4 5953.2 4078.7 5463.3 4568.6Z" fill="#086e40"/>
<path transform="matrix(.1,0,0,-.1,0,792)" stroke-width="70" stroke-linecap="butt" stroke-miterlimit="10" stroke-linejoin="miter" fill="none" stroke="#ffffff" d="M5180.4 4285.8 5284 3899.4 5953.2 4078.7 5463.3 4568.6Z"/>
<path transform="matrix(.1,0,0,-.1,0,792)" d="M5180.4 4851.5 5463.3 4568.6 5746.1 4851.5 5463.3 5134.3Z" fill="#b57de3"/>
<path transform="matrix(.1,0,0,-.1,0,792)" stroke-width="70" stroke-linecap="butt" stroke-miterlimit="10" stroke-linejoin="miter" fill="none" stroke="#ffffff" d="M5180.4 4851.5 5463.3 4568.6 5746.1 4851.5 5463.3 5134.3Z"/>
<path transform="matrix(.1,0,0,-.1,0,792)" d="M751.102 4907 647.5 5293.3 261.199 5396.9 81.8008 4727.6Z" fill="#086e40"/>
<path transform="matrix(.1,0,0,-.1,0,792)" stroke-width="70" stroke-linecap="butt" stroke-miterlimit="10" stroke-linejoin="miter" fill="none" stroke="#ffffff" d="M751.102 4907 647.5 5293.3 261.199 5396.9 81.8008 4727.6Z"/>
<path transform="matrix(.1,0,0,-.1,0,792)" d="M4746 1119 4849.6 732.699 5235.9 629.102 5415.2 1298.4Z" fill="#086e40"/>
<path transform="matrix(.1,0,0,-.1,0,792)" stroke-width="70" stroke-linecap="butt" stroke-miterlimit="10" stroke-linejoin="miter" fill="none" stroke="#ffffff" d="M4746 1119 4849.6 732.699 5235.9 629.102 5415.2 1298.4Z"/>
<path transform="matrix(.1,0,0,-.1,0,792)" d="M4746 1119 4359.7 1015.5 4463.2 629.102 4180.3 346.301 4463.2 63.5 4746 346.301 5132.4 242.801 5235.9 629.102 4849.6 732.699" fill="#38ebe8"/>
<path transform="matrix(.1,0,0,-.1,0,792)" stroke-width="70" stroke-linecap="butt" stroke-miterlimit="10" stroke-linejoin="miter" fill="none" stroke="#ffffff" d="M4746 1119 4359.7 1015.5 4463.2 629.102 4180.3 346.301 4463.2 63.5 4746 346.301 5132.4 242.801 5235.9 629.102 4849.6 732.699Z"/>
<path transform="matrix(.1,0,0,-.1,0,792)" d="M1392.5 7301 1289 7687.3 902.602 7790.9 723.301 7121.6Z" fill="#086e40"/>
<path transform="matrix(.1,0,0,-.1,0,792)" stroke-width="70" stroke-linecap="butt" stroke-miterlimit="10" stroke-linejoin="miter" fill="none" stroke="#ffffff" d="M1392.5 7301 1289 7687.3 902.602 7790.9 723.301 7121.6Z"/>
<path transform="matrix(.1,0,0,-.1,0,792)" d="M1392.5 7301 1778.9 7404.5 1675.4 7790.9 1958.2 8073.7 1675.4 8356.5 1392.5 8073.7 1006.2 8177.2 902.602 7790.9 1289 7687.3" fill="#38ebe8"/>
<path transform="matrix(.1,0,0,-.1,0,792)" stroke-width="70" stroke-linecap="butt" stroke-miterlimit="10" stroke-linejoin="miter" fill="none" stroke="#ffffff" d="M1392.5 7301 1778.9 7404.5 1675.4 7790.9 1958.2 8073.7 1675.4 8356.5 1392.5 8073.7 1006.2 8177.2 902.602 7790.9 1289 7687.3Z"/>
<path transform="matrix(.1,0,0,-.1,0,792)" d="M675.301 3285.7 392.398 3568.5 109.602 3285.7-276.801 3389.2-380.301 3002.8 6.10156 2899.3 109.602 2512.9 496 2616.5 392.398 3002.8" fill="#38ebe8"/>
<path transform="matrix(.1,0,0,-.1,0,792)" stroke-width="70" stroke-linecap="butt" stroke-miterlimit="10" stroke-linejoin="miter" fill="none" stroke="#ffffff" d="M675.301 3285.7 392.398 3568.5 109.602 3285.7-276.801 3389.2-380.301 3002.8 6.10156 2899.3 109.602 2512.9 496 2616.5 392.398 3002.8Z"/>
<path transform="matrix(.1,0,0,-.1,0,792)" d="M5284 3899.4 5387.5 3513 6056.7 3692.4 5877.4 3023.1 6263.8 2919.6 6443.1 3588.8 6933 3098.9 7215.8 3381.8 6725.9 3871.7 7395.1 4051 7291.6 4437.4 6622.4 4258 6801.7 4927.3 6415.3 5030.8 6236 4361.6 5746.1 4851.5 5463.3 4568.6 5953.2 4078.7" fill="#61a308"/>
<path transform="matrix(.1,0,0,-.1,0,792)" stroke-width="70" stroke-linecap="butt" stroke-miterlimit="10" stroke-linejoin="miter" fill="none" stroke="#ffffff" d="M5284 3899.4 5387.5 3513 6056.7 3692.4 5877.4 3023.1 6263.8 2919.6 6443.1 3588.8 6933 3098.9 7215.8 3381.8 6725.9 3871.7 7395.1 4051 7291.6 4437.4 6622.4 4258 6801.7 4927.3 6415.3 5030.8 6236 4361.6 5746.1 4851.5 5463.3 4568.6 5953.2 4078.7Z"/>
<path transform="matrix(.1,0,0,-.1,0,792)" d="M1778.9 7404.5 2448.1 7583.8 1958.2 8073.7 1675.4 7790.9Z" fill="#086e40"/>
<path transform="matrix(.1,0,0,-.1,0,792)" stroke-width="70" stroke-linecap="butt" stroke-miterlimit="10" stroke-linejoin="miter" fill="none" stroke="#ffffff" d="M1778.9 7404.5 2448.1 7583.8 1958.2 8073.7 1675.4 7790.9Z"/>
<path transform="matrix(.1,0,0,-.1,0,792)" d="M4359.7 1015.5 3690.4 836.199 4180.3 346.301 4463.2 629.102Z" fill="#086e40"/>
<path transform="matrix(.1,0,0,-.1,0,792)" stroke-width="70" stroke-linecap="butt" stroke-miterlimit="10" stroke-linejoin="miter" fill="none" stroke="#ffffff" d="M4359.7 1015.5 3690.4 836.199 4180.3 346.301 4463.2 629.102Z"/>
<path transform="matrix(.1,0,0,-.1,0,792)" d="M599.5 2230.1 496 2616.5 109.602 2512.9 213.102 2126.6Z" fill="#b57de3"/>
<path transform="matrix(.1,0,0,-.1,0,792)" stroke-width="70" stroke-linecap="butt" stroke-miterlimit="10" stroke-linejoin="miter" fill="none" stroke="#ffffff" d="M599.5 2230.1 496 2616.5 109.602 2512.9 213.102 2126.6Z"/>
<path transform="matrix(.1,0,0,-.1,0,792)" d="M5387.5 3513 5491 3126.7 5877.4 3023.1 6056.7 3692.4Z" fill="#086e40"/>
<path transform="matrix(.1,0,0,-.1,0,792)" stroke-width="70" stroke-linecap="butt" stroke-miterlimit="10" stroke-linejoin="miter" fill="none" stroke="#ffffff" d="M5387.5 3513 5491 3126.7 5877.4 3023.1 6056.7 3692.4Z"/>
<path transform="matrix(.1,0,0,-.1,0,792)" d="M3890.1 7556.1 4276.4 7659.6 4172.9 8046 3786.5 7942.4Z" fill="#b57de3"/>
<path transform="matrix(.1,0,0,-.1,0,792)" stroke-width="70" stroke-linecap="butt" stroke-miterlimit="10" stroke-linejoin="miter" fill="none" stroke="#ffffff" d="M3890.1 7556.1 4276.4 7659.6 4172.9 8046 3786.5 7942.4Z"/>
<path transform="matrix(.1,0,0,-.1,0,792)" d="M2248.5 863.898 1862.1 760.398 1965.7 374 2352 477.602Z" fill="#b57de3"/>
<path transform="matrix(.1,0,0,-.1,0,792)" stroke-width="70" stroke-linecap="butt" stroke-miterlimit="10" stroke-linejoin="miter" fill="none" stroke="#ffffff" d="M2248.5 863.898 1862.1 760.398 1965.7 374 2352 477.602Z"/>
<path transform="matrix(.1,0,0,-.1,0,792)" d="M5463.3 5134.3 5746.1 4851.5 6029 5134.3 6415.3 5030.8 6518.9 5417.2 6132.5 5520.7 6029 5907.1 5642.6 5803.5 5746.1 5417.2" fill="#38ebe8"/>
<path transform="matrix(.1,0,0,-.1,0,792)" stroke-width="70" stroke-linecap="butt" stroke-miterlimit="10" stroke-linejoin="miter" fill="none" stroke="#ffffff" d="M5463.3 5134.3 5746.1 4851.5 6029 5134.3 6415.3 5030.8 6518.9 5417.2 6132.5 5520.7 6029 5907.1 5642.6 5803.5 5746.1 5417.2Z"/>
<path transform="matrix(.1,0,0,-.1,0,792)" d="M5539.1 6189.9 5642.6 5803.5 6029 5907.1 5925.4 6293.4Z" fill="#b57de3"/>
<path transform="matrix(.1,0,0,-.1,0,792)" stroke-width="70" stroke-linecap="butt" stroke-miterlimit="10" stroke-linejoin="miter" fill="none" stroke="#ffffff" d="M5539.1 6189.9 5642.6 5803.5 6029 5907.1 5925.4 6293.4Z"/>
<path transform="matrix(.1,0,0,-.1,0,792)" d="M3117.3 7763.1 3786.5 7942.4 3683 8328.8 3296.6 8432.3Z" fill="#086e40"/>
<path transform="matrix(.1,0,0,-.1,0,792)" stroke-width="70" stroke-linecap="butt" stroke-miterlimit="10" stroke-linejoin="miter" fill="none" stroke="#ffffff" d="M3117.3 7763.1 3786.5 7942.4 3683 8328.8 3296.6 8432.3Z"/>
<path transform="matrix(.1,0,0,-.1,0,792)" d="M3021.2 656.898 2352 477.602 2455.5 91.1992 2841.9-12.3008Z" fill="#086e40"/>
<path transform="matrix(.1,0,0,-.1,0,792)" stroke-width="70" stroke-linecap="butt" stroke-miterlimit="10" stroke-linejoin="miter" fill="none" stroke="#ffffff" d="M3021.2 656.898 2352 477.602 2455.5 91.1992 2841.9-12.3008Z"/>
<path transform="matrix(.1,0,0,-.1,0,792)" d="M392.398 3568.5-97.5 4058.4-276.801 3389.2 109.602 3285.7Z" fill="#086e40"/>
<path transform="matrix(.1,0,0,-.1,0,792)" stroke-width="70" stroke-linecap="butt" stroke-miterlimit="10" stroke-linejoin="miter" fill="none" stroke="#ffffff" d="M392.398 3568.5-97.5 4058.4-276.801 3389.2 109.602 3285.7Z"/>
<path transform="matrix(.1,0,0,-.1,0,792)" d="M5235.9 629.102 5132.4 242.801 5518.8 139.199 5622.3 525.602Z" fill="#b57de3"/>
<path transform="matrix(.1,0,0,-.1,0,792)" stroke-width="70" stroke-linecap="butt" stroke-miterlimit="10" stroke-linejoin="miter" fill="none" stroke="#ffffff" d="M5235.9 629.102 5132.4 242.801 5518.8 139.199 5622.3 525.602Z"/>
<path transform="matrix(.1,0,0,-.1,0,792)" d="M902.602 7790.9 1006.2 8177.2 619.801 8280.8 516.301 7894.4Z" fill="#b57de3"/>
<path transform="matrix(.1,0,0,-.1,0,792)" stroke-width="70" stroke-linecap="butt" stroke-miterlimit="10" stroke-linejoin="miter" fill="none" stroke="#ffffff" d="M902.602 7790.9 1006.2 8177.2 619.801 8280.8 516.301 7894.4Z"/>
<path transform="matrix(.1,0,0,-.1,0,792)" d="M364.699 5783.2-21.6992 5886.7-125.199 5500.4 261.199 5396.9Z" fill="#b57de3"/>
<path transform="matrix(.1,0,0,-.1,0,792)" stroke-width="70" stroke-linecap="butt" stroke-miterlimit="10" stroke-linejoin="miter" fill="none" stroke="#ffffff" d="M364.699 5783.2-21.6992 5886.7-125.199 5500.4 261.199 5396.9Z"/>
<path transform="matrix(.1,0,0,-.1,0,792)" d="M336.898 7225.2 516.301 7894.4 129.898 7997.9-152.898 7715.1Z" fill="#086e40"/>
<path transform="matrix(.1,0,0,-.1,0,792)" stroke-width="70" stroke-linecap="butt" stroke-miterlimit="10" stroke-linejoin="miter" fill="none" stroke="#ffffff" d="M336.898 7225.2 516.301 7894.4 129.898 7997.9-152.898 7715.1Z"/>
<path transform="matrix(.1,0,0,-.1,0,792)" d="M3407.6 553.398 3228.3-115.898 3614.7-219.398 3897.5 63.5Z" fill="#086e40"/>
<path transform="matrix(.1,0,0,-.1,0,792)" stroke-width="70" stroke-linecap="butt" stroke-miterlimit="10" stroke-linejoin="miter" fill="none" stroke="#ffffff" d="M3407.6 553.398 3228.3-115.898 3614.7-219.398 3897.5 63.5Z"/>
<path transform="matrix(.1,0,0,-.1,0,792)" d="M2731 7866.6 2910.3 8535.9 2523.9 8639.4 2241.1 8356.5Z" fill="#086e40"/>
<path transform="matrix(.1,0,0,-.1,0,792)" stroke-width="70" stroke-linecap="butt" stroke-miterlimit="10" stroke-linejoin="miter" fill="none" stroke="#ffffff" d="M2731 7866.6 2910.3 8535.9 2523.9 8639.4 2241.1 8356.5Z"/>
<path transform="matrix(.1,0,0,-.1,0,792)" d="M316.602 1740.2 213.102 2126.6-456.102 1947.3 33.8008 1457.4Z" fill="#086e40"/>
<path transform="matrix(.1,0,0,-.1,0,792)" stroke-width="70" stroke-linecap="butt" stroke-miterlimit="10" stroke-linejoin="miter" fill="none" stroke="#ffffff" d="M316.602 1740.2 213.102 2126.6-456.102 1947.3 33.8008 1457.4Z"/>
<path transform="matrix(.1,0,0,-.1,0,792)" d="M316.602 1174.5 33.8008 1457.4-249 1174.5 33.8008 891.699Z" fill="#b57de3"/>
<path transform="matrix(.1,0,0,-.1,0,792)" stroke-width="70" stroke-linecap="butt" stroke-miterlimit="10" stroke-linejoin="miter" fill="none" stroke="#ffffff" d="M316.602 1174.5 33.8008 1457.4-249 1174.5 33.8008 891.699Z"/>
<path transform="matrix(.1,0,0,-.1,0,792)" d="M5622.3 525.602 6008.7 422.102 6291.5 704.898 5801.6 1194.8Z" fill="#086e40"/>
<path transform="matrix(.1,0,0,-.1,0,792)" stroke-width="70" stroke-linecap="butt" stroke-miterlimit="10" stroke-linejoin="miter" fill="none" stroke="#ffffff" d="M5622.3 525.602 6008.7 422.102 6291.5 704.898 5801.6 1194.8Z"/>
<path transform="matrix(.1,0,0,-.1,0,792)" d="M5622.3 525.602 5518.8 139.199 5905.1 35.6992 6008.7-350.699 6395-247.102 6291.5 139.199 6574.4 422.102 6291.5 704.898 6008.7 422.102" fill="#38ebe8"/>
<path transform="matrix(.1,0,0,-.1,0,792)" stroke-width="70" stroke-linecap="butt" stroke-miterlimit="10" stroke-linejoin="miter" fill="none" stroke="#ffffff" d="M5622.3 525.602 5518.8 139.199 5905.1 35.6992 6008.7-350.699 6395-247.102 6291.5 139.199 6574.4 422.102 6291.5 704.898 6008.7 422.102Z"/>
<path transform="matrix(.1,0,0,-.1,0,792)" d="M516.301 7894.4 619.801 8280.8 233.398 8384.3 129.898 8770.7-256.5 8667.1-152.898 8280.8-435.801 7997.9-152.898 7715.1 129.898 7997.9" fill="#38ebe8"/>
<path transform="matrix(.1,0,0,-.1,0,792)" stroke-width="70" stroke-linecap="butt" stroke-miterlimit="10" stroke-linejoin="miter" fill="none" stroke="#ffffff" d="M516.301 7894.4 619.801 8280.8 233.398 8384.3 129.898 8770.7-256.5 8667.1-152.898 8280.8-435.801 7997.9-152.898 7715.1 129.898 7997.9Z"/>
<path transform="matrix(.1,0,0,-.1,0,792)" d="M2352 477.602 1965.7 374 2069.2-12.3008 1786.3-295.199 2069.2-578 2352-295.199 2738.4-398.699 2841.9-12.3008 2455.5 91.1992" fill="#38ebe8"/>
<path transform="matrix(.1,0,0,-.1,0,792)" stroke-width="70" stroke-linecap="butt" stroke-miterlimit="10" stroke-linejoin="miter" fill="none" stroke="#ffffff" d="M2352 477.602 1965.7 374 2069.2-12.3008 1786.3-295.199 2069.2-578 2352-295.199 2738.4-398.699 2841.9-12.3008 2455.5 91.1992Z"/>
<path transform="matrix(.1,0,0,-.1,0,792)" stroke-width="70" stroke-linecap="butt" stroke-miterlimit="10" stroke-linejoin="miter" fill="none" stroke="#ffffff" d="M3786.5 7942.4 4172.9 8046 4069.4 8432.3 4352.2 8715.2 4069.4 8998 3786.5 8715.2 3400.2 8818.7 3296.6 8432.3 3683 8328.8Z"/>
<path transform="matrix(.1,0,0,-.1,0,792)" d="M213.102 2126.6 109.602 2512.9-559.602 2333.6-380.301 3002.8-766.699 3106.4-946 2437.2-1435.9 2927.1-1718.7 2644.2-1228.8 2154.3-1898.1 1975-1794.5 1588.6-1125.3 1767.9-1304.6 1098.7-918.301 995.199-738.898 1664.4-249 1174.5 33.8008 1457.4-456.102 1947.3" fill="#61a308"/>
<path transform="matrix(.1,0,0,-.1,0,792)" stroke-width="70" stroke-linecap="butt" stroke-miterlimit="10" stroke-linejoin="miter" fill="none" stroke="#ffffff" d="M213.102 2126.6 109.602 2512.9-559.602 2333.6-380.301 3002.8-766.699 3106.4-946 2437.2-1435.9 2927.1-1718.7 2644.2-1228.8 2154.3-1898.1 1975-1794.5 1588.6-1125.3 1767.9-1304.6 1098.7-918.301 995.199-738.898 1664.4-249 1174.5 33.8008 1457.4-456.102 1947.3Z"/>
<path transform="matrix(.1,0,0,-.1,0,792)" d="M523.699 401.801 33.8008 891.699-249 608.801-145.5 222.5Z" fill="#086e40"/>
<path transform="matrix(.1,0,0,-.1,0,792)" stroke-width="70" stroke-linecap="butt" stroke-miterlimit="10" stroke-linejoin="miter" fill="none" stroke="#ffffff" d="M523.699 401.801 33.8008 891.699-249 608.801-145.5 222.5Z"/>
<path transform="matrix(.1,0,0,-.1,0,792)" d="M5614.9 8018.2 6104.8 7528.3 6387.6 7811.2 6284.1 8197.5Z" fill="#086e40"/>
<path transform="matrix(.1,0,0,-.1,0,792)" stroke-width="70" stroke-linecap="butt" stroke-miterlimit="10" stroke-linejoin="miter" fill="none" stroke="#ffffff" d="M5614.9 8018.2 6104.8 7528.3 6387.6 7811.2 6284.1 8197.5Z"/>
<path transform="matrix(.1,0,0,-.1,0,792)" d="M5746.1 4851.5 6236 4361.6 6415.3 5030.8 6029 5134.3Z" fill="#086e40"/>
<path transform="matrix(.1,0,0,-.1,0,792)" stroke-width="70" stroke-linecap="butt" stroke-miterlimit="10" stroke-linejoin="miter" fill="none" stroke="#ffffff" d="M5746.1 4851.5 6236 4361.6 6415.3 5030.8 6029 5134.3Z"/>
<path transform="matrix(.1,0,0,-.1,0,792)" d="M1965.7 374 1296.4 194.699 1786.3-295.199 2069.2-12.3008Z" fill="#086e40"/>
<path transform="matrix(.1,0,0,-.1,0,792)" stroke-width="70" stroke-linecap="butt" stroke-miterlimit="10" stroke-linejoin="miter" fill="none" stroke="#ffffff" d="M1965.7 374 1296.4 194.699 1786.3-295.199 2069.2-12.3008Z"/>
<path transform="matrix(.1,0,0,-.1,0,792)" d="M5773.9 2636.8 6160.2 2533.3 6263.8 2919.6 5877.4 3023.1Z" fill="#b57de3"/>
<path transform="matrix(.1,0,0,-.1,0,792)" stroke-width="70" stroke-linecap="butt" stroke-miterlimit="10" stroke-linejoin="miter" fill="none" stroke="#ffffff" d="M5773.9 2636.8 6160.2 2533.3 6263.8 2919.6 5877.4 3023.1Z"/>
<path transform="matrix(.1,0,0,-.1,0,792)" d="M4180.3 346.301 3897.5 63.5 4180.3-219.398 4463.2 63.5Z" fill="#b57de3"/>
<path transform="matrix(.1,0,0,-.1,0,792)" stroke-width="70" stroke-linecap="butt" stroke-miterlimit="10" stroke-linejoin="miter" fill="none" stroke="#ffffff" d="M4180.3 346.301 3897.5 63.5 4180.3-219.398 4463.2 63.5Z"/>
<path transform="matrix(.1,0,0,-.1,0,792)" d="M4746 346.301 4463.2 63.5 4953.1-426.398 5132.4 242.801Z" fill="#086e40"/>
<path transform="matrix(.1,0,0,-.1,0,792)" stroke-width="70" stroke-linecap="butt" stroke-miterlimit="10" stroke-linejoin="miter" fill="none" stroke="#ffffff" d="M4746 346.301 4463.2 63.5 4953.1-426.398 5132.4 242.801Z"/>
<path transform="matrix(.1,0,0,-.1,0,792)" d="M157.602 6556-511.602 6376.6-408.102 5990.3-21.6992 5886.7Z" fill="#086e40"/>
<path transform="matrix(.1,0,0,-.1,0,792)" stroke-width="70" stroke-linecap="butt" stroke-miterlimit="10" stroke-linejoin="miter" fill="none" stroke="#ffffff" d="M157.602 6556-511.602 6376.6-408.102 5990.3-21.6992 5886.7Z"/>
<path transform="matrix(.1,0,0,-.1,0,792)" d="M5821.9 6679.8 5925.4 6293.4 6594.7 6472.7 6104.8 6962.6Z" fill="#086e40"/>
<path transform="matrix(.1,0,0,-.1,0,792)" stroke-width="70" stroke-linecap="butt" stroke-miterlimit="10" stroke-linejoin="miter" fill="none" stroke="#ffffff" d="M5821.9 6679.8 5925.4 6293.4 6594.7 6472.7 6104.8 6962.6Z"/>
<path transform="matrix(.1,0,0,-.1,0,792)" d="M5821.9 7245.5 6104.8 6962.6 6387.6 7245.5 6104.8 7528.3Z" fill="#b57de3"/>
<path transform="matrix(.1,0,0,-.1,0,792)" stroke-width="70" stroke-linecap="butt" stroke-miterlimit="10" stroke-linejoin="miter" fill="none" stroke="#ffffff" d="M5821.9 7245.5 6104.8 6962.6 6387.6 7245.5 6104.8 7528.3Z"/>
<path transform="matrix(.1,0,0,-.1,0,792)" d="M109.602 2512.9 6.10156 2899.3-380.301 3002.8-559.602 2333.6Z" fill="#086e40"/>
<path transform="matrix(.1,0,0,-.1,0,792)" stroke-width="70" stroke-linecap="butt" stroke-miterlimit="10" stroke-linejoin="miter" fill="none" stroke="#ffffff" d="M109.602 2512.9 6.10156 2899.3-380.301 3002.8-559.602 2333.6Z"/>
<path transform="matrix(.1,0,0,-.1,0,792)" d="M5132.4 242.801 4953.1-426.398 4463.2 63.5 4180.3-219.398 4670.2-709.301 4001-888.602 4104.6-1275 4773.8-1095.7 4594.5-1764.9 4980.8-1868.4 5160.1-1199.2 5650-1689.1 5932.9-1406.2 5443-916.301 6112.2-737 6008.7-350.699 5339.5-530 5518.8 139.199" fill="#61a308"/>
<path transform="matrix(.1,0,0,-.1,0,792)" stroke-width="70" stroke-linecap="butt" stroke-miterlimit="10" stroke-linejoin="miter" fill="none" stroke="#ffffff" d="M5132.4 242.801 4953.1-426.398 4463.2 63.5 4180.3-219.398 4670.2-709.301 4001-888.602 4104.6-1275 4773.8-1095.7 4594.5-1764.9 4980.8-1868.4 5160.1-1199.2 5650-1689.1 5932.9-1406.2 5443-916.301 6112.2-737 6008.7-350.699 5339.5-530 5518.8 139.199Z"/>
<path transform="matrix(.1,0,0,-.1,0,792)" d="M54.1016 6942.3-435.801 7432.2-718.602 7149.4-615.102 6763Z" fill="#086e40"/>
<path transform="matrix(.1,0,0,-.1,0,792)" stroke-width="70" stroke-linecap="butt" stroke-miterlimit="10" stroke-linejoin="miter" fill="none" stroke="#ffffff" d="M54.1016 6942.3-435.801 7432.2-718.602 7149.4-615.102 6763Z"/>
<path transform="matrix(.1,0,0,-.1,0,792)" d="M33.8008 891.699-249 1174.5-531.898 891.699-918.301 995.199-1021.8 608.801-635.398 505.301-531.898 118.898-145.5 222.5-249 608.801" fill="#38ebe8"/>
<path transform="matrix(.1,0,0,-.1,0,792)" stroke-width="70" stroke-linecap="butt" stroke-miterlimit="10" stroke-linejoin="miter" fill="none" stroke="#ffffff" d="M33.8008 891.699-249 1174.5-531.898 891.699-918.301 995.199-1021.8 608.801-635.398 505.301-531.898 118.898-145.5 222.5-249 608.801Z"/>
<path transform="matrix(.1,0,0,-.1,0,792)" d="M5925.4 6293.4 6029 5907.1 6698.2 6086.4 6518.9 5417.2 6905.2 5313.6 7084.6 5982.8 7574.5 5492.9 7857.3 5775.8 7367.4 6265.7 8036.6 6445 7933.1 6831.4 7263.9 6652.1 7443.2 7321.3 7056.8 7424.8 6877.5 6755.6 6387.6 7245.5 6104.8 6962.6 6594.7 6472.7" fill="#61a308"/>
<path transform="matrix(.1,0,0,-.1,0,792)" stroke-width="70" stroke-linecap="butt" stroke-miterlimit="10" stroke-linejoin="miter" fill="none" stroke="#ffffff" d="M5925.4 6293.4 6029 5907.1 6698.2 6086.4 6518.9 5417.2 6905.2 5313.6 7084.6 5982.8 7574.5 5492.9 7857.3 5775.8 7367.4 6265.7 8036.6 6445 7933.1 6831.4 7263.9 6652.1 7443.2 7321.3 7056.8 7424.8 6877.5 6755.6 6387.6 7245.5 6104.8 6962.6 6594.7 6472.7Z"/>
<path transform="matrix(.1,0,0,-.1,0,792)" d="M5518.8 139.199 5339.5-530 6008.7-350.699 5905.1 35.6992Z" fill="#086e40"/>
<path transform="matrix(.1,0,0,-.1,0,792)" stroke-width="70" stroke-linecap="butt" stroke-miterlimit="10" stroke-linejoin="miter" fill="none" stroke="#ffffff" d="M5518.8 139.199 5339.5-530 6008.7-350.699 5905.1 35.6992Z"/>
<path transform="matrix(.1,0,0,-.1,0,792)" stroke-width="70" stroke-linecap="butt" stroke-miterlimit="10" stroke-linejoin="miter" fill="none" stroke="#ffffff" d="M-21.6992 5886.7-408.102 5990.3-511.602 6376.6-898 6273.1-794.398 5886.7-1077.3 5603.9-794.398 5321.1-511.602 5603.9-125.199 5500.4Z"/>
<path transform="matrix(.1,0,0,-.1,0,792)" d="M5980.9 1864 6650.1 2043.4 6546.6 2429.7 6160.2 2533.3Z" fill="#086e40"/>
<path transform="matrix(.1,0,0,-.1,0,792)" stroke-width="70" stroke-linecap="butt" stroke-miterlimit="10" stroke-linejoin="miter" fill="none" stroke="#ffffff" d="M5980.9 1864 6650.1 2043.4 6546.6 2429.7 6160.2 2533.3Z"/>
<path transform="matrix(.1,0,0,-.1,0,792)" d="M3897.5 63.5 3614.7-219.398 3228.3-115.898 3124.8-502.199 3511.1-605.801 3614.7-992.102 4001-888.602 3897.5-502.199 4180.3-219.398" fill="#38ebe8"/>
<path transform="matrix(.1,0,0,-.1,0,792)" stroke-width="70" stroke-linecap="butt" stroke-miterlimit="10" stroke-linejoin="miter" fill="none" stroke="#ffffff" d="M3897.5 63.5 3614.7-219.398 3228.3-115.898 3124.8-502.199 3511.1-605.801 3614.7-992.102 4001-888.602 3897.5-502.199 4180.3-219.398Z"/>
<path transform="matrix(.1,0,0,-.1,0,792)" d="M627.199 15.3984-42-163.898 61.5-550.301 447.898-653.801Z" fill="#086e40"/>
<path transform="matrix(.1,0,0,-.1,0,792)" stroke-width="70" stroke-linecap="butt" stroke-miterlimit="10" stroke-linejoin="miter" fill="none" stroke="#ffffff" d="M627.199 15.3984-42-163.898 61.5-550.301 447.898-653.801Z"/>
<path transform="matrix(.1,0,0,-.1,0,792)" d="M6029 5907.1 6132.5 5520.7 6518.9 5417.2 6698.2 6086.4Z" fill="#086e40"/>
<path transform="matrix(.1,0,0,-.1,0,792)" stroke-width="70" stroke-linecap="butt" stroke-miterlimit="10" stroke-linejoin="miter" fill="none" stroke="#ffffff" d="M6029 5907.1 6132.5 5520.7 6518.9 5417.2 6698.2 6086.4Z"/>
<path transform="matrix(.1,0,0,-.1,0,792)" stroke-width="70" stroke-linecap="butt" stroke-miterlimit="10" stroke-linejoin="miter" fill="none" stroke="#ffffff" d="M2841.9-12.3008 2738.4-398.699 3124.8-502.199 3228.3-115.898Z"/>
<path transform="matrix(.1,0,0,-.1,0,792)" d="M6084.5 1477.7 6574.4 987.801 6857.2 1270.6 6753.7 1657Z" fill="#086e40"/>
<path transform="matrix(.1,0,0,-.1,0,792)" stroke-width="70" stroke-linecap="butt" stroke-miterlimit="10" stroke-linejoin="miter" fill="none" stroke="#ffffff" d="M6084.5 1477.7 6574.4 987.801 6857.2 1270.6 6753.7 1657Z"/>
<path transform="matrix(.1,0,0,-.1,0,792)" d="M6104.8 7528.3 6387.6 7245.5 6670.4 7528.3 7056.8 7424.8 7160.3 7811.2 6774 7914.7 6670.4 8301.1 6284.1 8197.5 6387.6 7811.2" fill="#38ebe8"/>
<path transform="matrix(.1,0,0,-.1,0,792)" stroke-width="70" stroke-linecap="butt" stroke-miterlimit="10" stroke-linejoin="miter" fill="none" stroke="#ffffff" d="M6104.8 7528.3 6387.6 7245.5 6670.4 7528.3 7056.8 7424.8 7160.3 7811.2 6774 7914.7 6670.4 8301.1 6284.1 8197.5 6387.6 7811.2Z"/>
</svg>
