<svg xmlns="http://www.w3.org/2000/svg" xmlns:xlink="http://www.w3.org/1999/xlink" xmlns:inkscape="http://www.inkscape.org/namespaces/inkscape" version="1.1" width="612" height="792" viewBox="0 0 612 792">
<path transform="matrix(.1,0,0,-.1,0,792)" d="M2975 3779.8 2932.6 3737.4 2975 3779.8 3091.6 3896.4H3256.4V3836.4 3896.4 4061.2L3373 4177.8 3415.4 4135.4 3373 4177.8 3256.4 4294.4V4459.2H3316.4 3256.4 3091.6L2975 4575.8 3017.4 4618.2 2975 4575.8 2858.4 4459.2H2693.6V4519.2 4459.2 4294.4L2577 4177.8 2534.6 4220.2 2577 4177.8 2693.6 4061.2V3896.4H2633.6 2693.6 2858.4" fill="#004080"/>
<path transform="matrix(.1,0,0,-.1,0,792)" stroke-width="12" stroke-linecap="butt" stroke-miterlimit="10" stroke-linejoin="miter" fill="none" stroke="#000000" d="M2975 3779.8 2932.6 3737.4 2975 3779.8 3091.6 3896.4H3256.4V3836.4 3896.4 4061.2L3373 4177.8 3415.4 4135.4 3373 4177.8 3256.4 4294.4V4459.2H3316.4 3256.4 3091.6L2975 4575.8 3017.4 4618.2 2975 4575.8 2858.4 4459.2H2693.6V4519.2 4459.2 4294.4L2577 4177.8 2534.6 4220.2 2577 4177.8 2693.6 4061.2V3896.4H2633.6 2693.6 2858.4Z"/>
<path transform="matrix(.1,0,0,-.1,0,792)" d="M3141.3 4579.2H3316.4 3256.4V4942.1 4857.2L3059.9 4660.7 3017.4 4618.2 3059.9 4660.7" fill="#e64040"/>
<path transform="matrix(.1,0,0,-.1,0,792)" stroke-width="12" stroke-linecap="butt" stroke-miterlimit="10" stroke-linejoin="miter" fill="none" stroke="#000000" d="M3141.3 4579.2H3316.4 3256.4V4942.1 4857.2L3059.9 4660.7 3017.4 4618.2 3059.9 4660.7Z"/>
<path transform="matrix(.1,0,0,-.1,0,792)" d="M2808.7 4579.2 2890.1 4660.7 2932.6 4703.1 2890.1 4660.7 2693.6 4857.2 2633.6 4917.2 2693.6 4857.2V4579.2 4519.2 4579.2" fill="#e64040"/>
<path transform="matrix(.1,0,0,-.1,0,792)" stroke-width="12" stroke-linecap="butt" stroke-miterlimit="10" stroke-linejoin="miter" fill="none" stroke="#000000" d="M2808.7 4579.2 2890.1 4660.7 2932.6 4703.1 2890.1 4660.7 2693.6 4857.2 2633.6 4917.2 2693.6 4857.2V4579.2 4519.2 4579.2Z"/>
<path transform="matrix(.1,0,0,-.1,0,792)" d="M2808.7 3776.4H2633.6 2693.6V3413.5 3498.4L2890.1 3695 2932.6 3737.4 2890.1 3695" fill="#e64040"/>
<path transform="matrix(.1,0,0,-.1,0,792)" stroke-width="12" stroke-linecap="butt" stroke-miterlimit="10" stroke-linejoin="miter" fill="none" stroke="#000000" d="M2808.7 3776.4H2633.6 2693.6V3413.5 3498.4L2890.1 3695 2932.6 3737.4 2890.1 3695Z"/>
<path transform="matrix(.1,0,0,-.1,0,792)" d="M3141.3 3776.4 3059.9 3695 3017.4 3652.5 3059.9 3695 3256.4 3498.4 3316.4 3438.4 3256.4 3498.4V3776.4 3836.4 3776.4" fill="#e64040"/>
<path transform="matrix(.1,0,0,-.1,0,792)" stroke-width="12" stroke-linecap="butt" stroke-miterlimit="10" stroke-linejoin="miter" fill="none" stroke="#000000" d="M3141.3 3776.4 3059.9 3695 3017.4 3652.5 3059.9 3695 3256.4 3498.4 3316.4 3438.4 3256.4 3498.4V3776.4 3836.4 3776.4Z"/>
<path transform="matrix(.1,0,0,-.1,0,792)" d="M2975 4745.5 2932.6 4703.1 2975 4745.5 3256.4 5026.9V4942.1 5026.9 5424.9H3076.3L2975 5669.6 3007.5 5747.9 2975 5669.6 2873.7 5424.9H2693.6V5026.9L2633.6 5086.9 2693.6 5026.9"/>
<path transform="matrix(.1,0,0,-.1,0,792)" stroke-width="12" stroke-linecap="butt" stroke-miterlimit="10" stroke-linejoin="miter" fill="none" stroke="#000000" d="M2975 4745.5 2932.6 4703.1 2975 4745.5 3256.4 5026.9V4942.1 5026.9 5424.9H3076.3L2975 5669.6 3007.5 5747.9 2975 5669.6 2873.7 5424.9H2693.6V5026.9L2633.6 5086.9 2693.6 5026.9Z"/>
<path transform="matrix(.1,0,0,-.1,0,792)" d="M3376.4 4579.2H3316.4 3774.4L3714.4 4519.2 3774.4 4579.2 4055.8 4860.7 3928.5 4988 4029.8 5232.6 4108.2 5265.1 4029.8 5232.6 3785.2 5131.3 3657.8 5258.6 3376.4 4977.2V5062.1 4977.2"/>
<path transform="matrix(.1,0,0,-.1,0,792)" stroke-width="12" stroke-linecap="butt" stroke-miterlimit="10" stroke-linejoin="miter" fill="none" stroke="#000000" d="M3376.4 4579.2H3316.4 3774.4L3714.4 4519.2 3774.4 4579.2 4055.8 4860.7 3928.5 4988 4029.8 5232.6 4108.2 5265.1 4029.8 5232.6 3785.2 5131.3 3657.8 5258.6 3376.4 4977.2V5062.1 4977.2Z"/>
<path transform="matrix(.1,0,0,-.1,0,792)" d="M3376.4 4344.1 3457.8 4262.7 3500.3 4220.2 3457.8 4262.7 3654.4 4459.2 3714.4 4519.2 3654.4 4459.2H3376.4 3316.4 3376.4" fill="#e64040"/>
<path transform="matrix(.1,0,0,-.1,0,792)" stroke-width="12" stroke-linecap="butt" stroke-miterlimit="10" stroke-linejoin="miter" fill="none" stroke="#000000" d="M3376.4 4344.1 3457.8 4262.7 3500.3 4220.2 3457.8 4262.7 3654.4 4459.2 3714.4 4519.2 3654.4 4459.2H3376.4 3316.4 3376.4Z"/>
<path transform="matrix(.1,0,0,-.1,0,792)" d="M3376.4 4011.5V3836.4 3896.4H3739.3 3654.4L3457.8 4093 3415.4 4135.4 3457.8 4093" fill="#e64040"/>
<path transform="matrix(.1,0,0,-.1,0,792)" stroke-width="12" stroke-linecap="butt" stroke-miterlimit="10" stroke-linejoin="miter" fill="none" stroke="#000000" d="M3376.4 4011.5V3836.4 3896.4H3739.3 3654.4L3457.8 4093 3415.4 4135.4 3457.8 4093Z"/>
<path transform="matrix(.1,0,0,-.1,0,792)" d="M3376.4 3776.4V3836.4 3378.4L3316.4 3438.4 3376.4 3378.4 3657.8 3097 3785.2 3224.3 4029.8 3123 4062.3 3044.6 4029.8 3123 3928.5 3367.6 4055.8 3495 3774.4 3776.4H3859.3 3774.4"/>
<path transform="matrix(.1,0,0,-.1,0,792)" stroke-width="12" stroke-linecap="butt" stroke-miterlimit="10" stroke-linejoin="miter" fill="none" stroke="#000000" d="M3376.4 3776.4V3836.4 3378.4L3316.4 3438.4 3376.4 3378.4 3657.8 3097 3785.2 3224.3 4029.8 3123 4062.3 3044.6 4029.8 3123 3928.5 3367.6 4055.8 3495 3774.4 3776.4H3859.3 3774.4Z"/>
<path transform="matrix(.1,0,0,-.1,0,792)" d="M2573.6 4459.2V4519.2 4459.2H2210.7 2295.6L2492.2 4262.7 2534.6 4220.2 2492.2 4262.7 2573.6 4344.1" fill="#e64040"/>
<path transform="matrix(.1,0,0,-.1,0,792)" stroke-width="12" stroke-linecap="butt" stroke-miterlimit="10" stroke-linejoin="miter" fill="none" stroke="#000000" d="M2573.6 4459.2V4519.2 4459.2H2210.7 2295.6L2492.2 4262.7 2534.6 4220.2 2492.2 4262.7 2573.6 4344.1Z"/>
<path transform="matrix(.1,0,0,-.1,0,792)" d="M2573.6 4579.2V4519.2 4977.2L2633.6 4917.2 2573.6 4977.2 2292.2 5258.6 2164.8 5131.3 1920.2 5232.6 1887.7 5311 1920.2 5232.6 2021.5 4988 1894.2 4860.7 2175.6 4579.2H2090.7 2175.6"/>
<path transform="matrix(.1,0,0,-.1,0,792)" stroke-width="12" stroke-linecap="butt" stroke-miterlimit="10" stroke-linejoin="miter" fill="none" stroke="#000000" d="M2573.6 4579.2V4519.2 4977.2L2633.6 4917.2 2573.6 4977.2 2292.2 5258.6 2164.8 5131.3 1920.2 5232.6 1887.7 5311 1920.2 5232.6 2021.5 4988 1894.2 4860.7 2175.6 4579.2H2090.7 2175.6Z"/>
<path transform="matrix(.1,0,0,-.1,0,792)" d="M2573.6 4011.5 2492.2 4093 2449.7 4135.4 2492.2 4093 2295.6 3896.4 2235.6 3836.4 2295.6 3896.4H2573.6 2633.6 2573.6" fill="#e64040"/>
<path transform="matrix(.1,0,0,-.1,0,792)" stroke-width="12" stroke-linecap="butt" stroke-miterlimit="10" stroke-linejoin="miter" fill="none" stroke="#000000" d="M2573.6 4011.5 2492.2 4093 2449.7 4135.4 2492.2 4093 2295.6 3896.4 2235.6 3836.4 2295.6 3896.4H2573.6 2633.6 2573.6Z"/>
<path transform="matrix(.1,0,0,-.1,0,792)" d="M2573.6 3776.4H2633.6 2175.6L2235.6 3836.4 2175.6 3776.4 1894.2 3495 2021.5 3367.6 1920.2 3123 1841.8 3090.5 1920.2 3123 2164.8 3224.3 2292.2 3097 2573.6 3378.4V3293.5 3378.4"/>
<path transform="matrix(.1,0,0,-.1,0,792)" stroke-width="12" stroke-linecap="butt" stroke-miterlimit="10" stroke-linejoin="miter" fill="none" stroke="#000000" d="M2573.6 3776.4H2633.6 2175.6L2235.6 3836.4 2175.6 3776.4 1894.2 3495 2021.5 3367.6 1920.2 3123 1841.8 3090.5 1920.2 3123 2164.8 3224.3 2292.2 3097 2573.6 3378.4V3293.5 3378.4Z"/>
<path transform="matrix(.1,0,0,-.1,0,792)" d="M2975 3610.1 3017.4 3652.5 2975 3610.1 2693.6 3328.7V3413.5 3328.7 2930.7H2873.7L2975 2686.1 2942.5 2607.7 2975 2686.1 3076.3 2930.7H3256.4V3328.7L3316.4 3268.7 3256.4 3328.7"/>
<path transform="matrix(.1,0,0,-.1,0,792)" stroke-width="12" stroke-linecap="butt" stroke-miterlimit="10" stroke-linejoin="miter" fill="none" stroke="#000000" d="M2975 3610.1 3017.4 3652.5 2975 3610.1 2693.6 3328.7V3413.5 3328.7 2930.7H2873.7L2975 2686.1 2942.5 2607.7 2975 2686.1 3076.3 2930.7H3256.4V3328.7L3316.4 3268.7 3256.4 3328.7Z"/>
<path transform="matrix(.1,0,0,-.1,0,792)" d="M3542.7 4177.8 3500.3 4220.2 3542.7 4177.8 3824.1 3896.4H3739.3 3824.1 4222.1V4076.5L4466.7 4177.8 4545.1 4145.3 4466.7 4177.8 4222.1 4279.1V4459.2H3824.1L3884.1 4519.2 3824.1 4459.2"/>
<path transform="matrix(.1,0,0,-.1,0,792)" stroke-width="12" stroke-linecap="butt" stroke-miterlimit="10" stroke-linejoin="miter" fill="none" stroke="#000000" d="M3542.7 4177.8 3500.3 4220.2 3542.7 4177.8 3824.1 3896.4H3739.3 3824.1 4222.1V4076.5L4466.7 4177.8 4545.1 4145.3 4466.7 4177.8 4222.1 4279.1V4459.2H3824.1L3884.1 4519.2 3824.1 4459.2Z"/>
<path transform="matrix(.1,0,0,-.1,0,792)" d="M2407.3 4177.8 2449.7 4135.4 2407.3 4177.8 2125.9 4459.2H2210.7 2125.9 1727.9V4279.1L1483.3 4177.8 1404.9 4210.3 1483.3 4177.8 1727.9 4076.5V3896.4H2125.9L2065.9 3836.4 2125.9 3896.4"/>
<path transform="matrix(.1,0,0,-.1,0,792)" stroke-width="12" stroke-linecap="butt" stroke-miterlimit="10" stroke-linejoin="miter" fill="none" stroke="#000000" d="M2407.3 4177.8 2449.7 4135.4 2407.3 4177.8 2125.9 4459.2H2210.7 2125.9 1727.9V4279.1L1483.3 4177.8 1404.9 4210.3 1483.3 4177.8 1727.9 4076.5V3896.4H2125.9L2065.9 3836.4 2125.9 3896.4Z"/>
<path transform="matrix(.1,0,0,-.1,0,792)" d="M3376.4 5146.9V5062.1 5146.9L3657.8 5428.3 3813.3 5272.8 4094.8 5389.4 4173.2 5421.9 4094.8 5389.4 4211.3 5670.8 3774.4 6107.8 3714.4 6167.8 3774.4 6107.8H3156.5L3039.9 5826.3 3007.5 5747.9 3039.9 5826.3 3156.5 5544.9H3376.4" fill="#e64040"/>
<path transform="matrix(.1,0,0,-.1,0,792)" stroke-width="12" stroke-linecap="butt" stroke-miterlimit="10" stroke-linejoin="miter" fill="none" stroke="#000000" d="M3376.4 5146.9V5062.1 5146.9L3657.8 5428.3 3813.3 5272.8 4094.8 5389.4 4173.2 5421.9 4094.8 5389.4 4211.3 5670.8 3774.4 6107.8 3714.4 6167.8 3774.4 6107.8H3156.5L3039.9 5826.3 3007.5 5747.9 3039.9 5826.3 3156.5 5544.9H3376.4Z"/>
<path transform="matrix(.1,0,0,-.1,0,792)" d="M2573.6 5146.9 2633.6 5086.9 2573.6 5146.9V5544.9H2793.5L2910.1 5826.3 2942.5 5904.7 2910.1 5826.3 2793.5 6107.8H2175.6 2090.7 2175.6L1738.7 5670.8 1855.2 5389.4 1887.7 5311 1855.2 5389.4 2136.7 5272.8 2292.2 5428.3" fill="#e64040"/>
<path transform="matrix(.1,0,0,-.1,0,792)" stroke-width="12" stroke-linecap="butt" stroke-miterlimit="10" stroke-linejoin="miter" fill="none" stroke="#000000" d="M2573.6 5146.9 2633.6 5086.9 2573.6 5146.9V5544.9H2793.5L2910.1 5826.3 2942.5 5904.7 2910.1 5826.3 2793.5 6107.8H2175.6 2090.7 2175.6L1738.7 5670.8 1855.2 5389.4 1887.7 5311 1855.2 5389.4 2136.7 5272.8 2292.2 5428.3Z"/>
<path transform="matrix(.1,0,0,-.1,0,792)" d="M2573.6 3208.7V3293.5 3208.7L2292.2 2927.3 2136.7 3082.8 1855.2 2966.2 1776.8 2933.7 1855.2 2966.2 1738.7 2684.8 2175.6 2247.9 2235.6 2187.9 2175.6 2247.9H2793.5L2910.1 2529.3 2942.5 2607.7 2910.1 2529.3 2793.5 2810.7H2573.6" fill="#e64040"/>
<path transform="matrix(.1,0,0,-.1,0,792)" stroke-width="12" stroke-linecap="butt" stroke-miterlimit="10" stroke-linejoin="miter" fill="none" stroke="#000000" d="M2573.6 3208.7V3293.5 3208.7L2292.2 2927.3 2136.7 3082.8 1855.2 2966.2 1776.8 2933.7 1855.2 2966.2 1738.7 2684.8 2175.6 2247.9 2235.6 2187.9 2175.6 2247.9H2793.5L2910.1 2529.3 2942.5 2607.7 2910.1 2529.3 2793.5 2810.7H2573.6Z"/>
<path transform="matrix(.1,0,0,-.1,0,792)" d="M3376.4 3208.7 3316.4 3268.7 3376.4 3208.7V2810.7H3156.5L3039.9 2529.3 3007.5 2450.9 3039.9 2529.3 3156.5 2247.9H3774.4 3859.3 3774.4L4211.3 2684.8 4094.8 2966.2 4062.3 3044.6 4094.8 2966.2 3813.3 3082.8 3657.8 2927.3" fill="#e64040"/>
<path transform="matrix(.1,0,0,-.1,0,792)" stroke-width="12" stroke-linecap="butt" stroke-miterlimit="10" stroke-linejoin="miter" fill="none" stroke="#000000" d="M3376.4 3208.7 3316.4 3268.7 3376.4 3208.7V2810.7H3156.5L3039.9 2529.3 3007.5 2450.9 3039.9 2529.3 3156.5 2247.9H3774.4 3859.3 3774.4L4211.3 2684.8 4094.8 2966.2 4062.3 3044.6 4094.8 2966.2 3813.3 3082.8 3657.8 2927.3Z"/>
<path transform="matrix(.1,0,0,-.1,0,792)" d="M3944.1 3776.4H3859.3 3944.1L4225.5 3495 4070 3339.5 4186.6 3058 4219.1 2979.7 4186.6 3058 4468 2941.5 4904.9 3378.4 4964.9 3438.4 4904.9 3378.4V3996.3L4623.5 4112.9 4545.1 4145.3 4623.5 4112.9 4342.1 3996.3V3776.4" fill="#e64040"/>
<path transform="matrix(.1,0,0,-.1,0,792)" stroke-width="12" stroke-linecap="butt" stroke-miterlimit="10" stroke-linejoin="miter" fill="none" stroke="#000000" d="M3944.1 3776.4H3859.3 3944.1L4225.5 3495 4070 3339.5 4186.6 3058 4219.1 2979.7 4186.6 3058 4468 2941.5 4904.9 3378.4 4964.9 3438.4 4904.9 3378.4V3996.3L4623.5 4112.9 4545.1 4145.3 4623.5 4112.9 4342.1 3996.3V3776.4Z"/>
<path transform="matrix(.1,0,0,-.1,0,792)" d="M3944.1 4579.2 3884.1 4519.2 3944.1 4579.2H4342.1V4359.3L4623.5 4242.8 4701.9 4210.3 4623.5 4242.8 4904.9 4359.3V4977.2 5062.1 4977.2L4468 5414.1 4186.6 5297.6 4108.2 5265.1 4186.6 5297.6 4070 5016.2 4225.5 4860.7" fill="#e64040"/>
<path transform="matrix(.1,0,0,-.1,0,792)" stroke-width="12" stroke-linecap="butt" stroke-miterlimit="10" stroke-linejoin="miter" fill="none" stroke="#000000" d="M3944.1 4579.2 3884.1 4519.2 3944.1 4579.2H4342.1V4359.3L4623.5 4242.8 4701.9 4210.3 4623.5 4242.8 4904.9 4359.3V4977.2 5062.1 4977.2L4468 5414.1 4186.6 5297.6 4108.2 5265.1 4186.6 5297.6 4070 5016.2 4225.5 4860.7Z"/>
<path transform="matrix(.1,0,0,-.1,0,792)" d="M2005.9 4579.2H2090.7 2005.9L1724.5 4860.7 1880 5016.2 1763.4 5297.6 1730.9 5376 1763.4 5297.6 1482 5414.1 1045.1 4977.2 985.102 4917.2 1045.1 4977.2V4359.3L1326.5 4242.8 1404.9 4210.3 1326.5 4242.8 1607.9 4359.3V4579.2" fill="#e64040"/>
<path transform="matrix(.1,0,0,-.1,0,792)" stroke-width="12" stroke-linecap="butt" stroke-miterlimit="10" stroke-linejoin="miter" fill="none" stroke="#000000" d="M2005.9 4579.2H2090.7 2005.9L1724.5 4860.7 1880 5016.2 1763.4 5297.6 1730.9 5376 1763.4 5297.6 1482 5414.1 1045.1 4977.2 985.102 4917.2 1045.1 4977.2V4359.3L1326.5 4242.8 1404.9 4210.3 1326.5 4242.8 1607.9 4359.3V4579.2Z"/>
<path transform="matrix(.1,0,0,-.1,0,792)" d="M2005.9 3776.4 2065.9 3836.4 2005.9 3776.4H1607.9V3996.3L1326.5 4112.9 1248.1 4145.3 1326.5 4112.9 1045.1 3996.3V3378.4 3293.5 3378.4L1482 2941.5 1763.4 3058 1841.8 3090.5 1763.4 3058 1880 3339.5 1724.5 3495" fill="#e64040"/>
<path transform="matrix(.1,0,0,-.1,0,792)" stroke-width="12" stroke-linecap="butt" stroke-miterlimit="10" stroke-linejoin="miter" fill="none" stroke="#000000" d="M2005.9 3776.4 2065.9 3836.4 2005.9 3776.4H1607.9V3996.3L1326.5 4112.9 1248.1 4145.3 1326.5 4112.9 1045.1 3996.3V3378.4 3293.5 3378.4L1482 2941.5 1763.4 3058 1841.8 3090.5 1763.4 3058 1880 3339.5 1724.5 3495Z"/>
<path transform="matrix(.1,0,0,-.1,0,792)" d="M1698.4 2901.3 1776.8 2933.7 1698.4 2901.3 1453.8 2799.9 1045.1 3208.7V3293.5 3208.7 2645.9L728.5 2329.3 686.102 2371.7 728.5 2329.3 809.898 2247.9H1045.1V2012.7L1126.5 1931.3 1084 1888.9 1126.5 1931.3 1443 2247.9H2005.9L2065.9 2187.9 2005.9 2247.9 1597.1 2656.6"/>
<path transform="matrix(.1,0,0,-.1,0,792)" stroke-width="12" stroke-linecap="butt" stroke-miterlimit="10" stroke-linejoin="miter" fill="none" stroke="#000000" d="M1698.4 2901.3 1776.8 2933.7 1698.4 2901.3 1453.8 2799.9 1045.1 3208.7V3293.5 3208.7 2645.9L728.5 2329.3 686.102 2371.7 728.5 2329.3 809.898 2247.9H1045.1V2012.7L1126.5 1931.3 1084 1888.9 1126.5 1931.3 1443 2247.9H2005.9L2065.9 2187.9 2005.9 2247.9 1597.1 2656.6Z"/>
<path transform="matrix(.1,0,0,-.1,0,792)" d="M4251.6 2901.3 4219.1 2979.7 4251.6 2901.3 4352.9 2656.6 3944.1 2247.9H3859.3 3944.1 4507L4823.5 1931.3 4781.1 1888.9 4823.5 1931.3 4904.9 2012.7V2247.9H5140.1L5221.5 2329.3 5263.9 2286.9 5221.5 2329.3 4904.9 2645.9V3208.7L4964.9 3268.7 4904.9 3208.7 4496.2 2799.9"/>
<path transform="matrix(.1,0,0,-.1,0,792)" stroke-width="12" stroke-linecap="butt" stroke-miterlimit="10" stroke-linejoin="miter" fill="none" stroke="#000000" d="M4251.6 2901.3 4219.1 2979.7 4251.6 2901.3 4352.9 2656.6 3944.1 2247.9H3859.3 3944.1 4507L4823.5 1931.3 4781.1 1888.9 4823.5 1931.3 4904.9 2012.7V2247.9H5140.1L5221.5 2329.3 5263.9 2286.9 5221.5 2329.3 4904.9 2645.9V3208.7L4964.9 3268.7 4904.9 3208.7 4496.2 2799.9Z"/>
<path transform="matrix(.1,0,0,-.1,0,792)" d="M4251.6 5454.4 4173.2 5421.9 4251.6 5454.4 4496.2 5555.7 4904.9 5146.9V5062.1 5146.9 5709.8L5221.5 6026.3 5263.9 5983.9 5221.5 6026.3 5140.1 6107.8H4904.9V6342.9L4823.5 6424.3 4866 6466.8 4823.5 6424.3 4507 6107.8H3944.1L3884.1 6167.8 3944.1 6107.8 4352.9 5699"/>
<path transform="matrix(.1,0,0,-.1,0,792)" stroke-width="12" stroke-linecap="butt" stroke-miterlimit="10" stroke-linejoin="miter" fill="none" stroke="#000000" d="M4251.6 5454.4 4173.2 5421.9 4251.6 5454.4 4496.2 5555.7 4904.9 5146.9V5062.1 5146.9 5709.8L5221.5 6026.3 5263.9 5983.9 5221.5 6026.3 5140.1 6107.8H4904.9V6342.9L4823.5 6424.3 4866 6466.8 4823.5 6424.3 4507 6107.8H3944.1L3884.1 6167.8 3944.1 6107.8 4352.9 5699Z"/>
<path transform="matrix(.1,0,0,-.1,0,792)" d="M1698.4 5454.4 1730.9 5376 1698.4 5454.4 1597.1 5699 2005.9 6107.8H2090.7 2005.9 1443L1126.5 6424.3 1168.9 6466.8 1126.5 6424.3 1045.1 6342.9V6107.8H809.898L728.5 6026.3 686.102 6068.8 728.5 6026.3 1045.1 5709.8V5146.9L985.102 5086.9 1045.1 5146.9 1453.8 5555.7"/>
<path transform="matrix(.1,0,0,-.1,0,792)" stroke-width="12" stroke-linecap="butt" stroke-miterlimit="10" stroke-linejoin="miter" fill="none" stroke="#000000" d="M1698.4 5454.4 1730.9 5376 1698.4 5454.4 1597.1 5699 2005.9 6107.8H2090.7 2005.9 1443L1126.5 6424.3 1168.9 6466.8 1126.5 6424.3 1045.1 6342.9V6107.8H809.898L728.5 6026.3 686.102 6068.8 728.5 6026.3 1045.1 5709.8V5146.9L985.102 5086.9 1045.1 5146.9 1453.8 5555.7Z"/>
<path transform="matrix(.1,0,0,-.1,0,792)" d="M2975 5983.1 2942.5 5904.7 2975 5983.1 3076.3 6227.8H3654.4L3714.4 6167.8 3654.4 6227.8 3373 6509.2 3654.4 6790.6H3739.3 3654.4 3076.3L2975 7035.2 3007.5 7113.6 2975 7035.2 2873.7 6790.6H2295.6L2235.6 6850.6 2295.6 6790.6 2577 6509.2 2295.6 6227.8H2210.7 2295.6 2873.7" fill="#004080"/>
<path transform="matrix(.1,0,0,-.1,0,792)" stroke-width="12" stroke-linecap="butt" stroke-miterlimit="10" stroke-linejoin="miter" fill="none" stroke="#000000" d="M2975 5983.1 2942.5 5904.7 2975 5983.1 3076.3 6227.8H3654.4L3714.4 6167.8 3654.4 6227.8 3373 6509.2 3654.4 6790.6H3739.3 3654.4 3076.3L2975 7035.2 3007.5 7113.6 2975 7035.2 2873.7 6790.6H2295.6L2235.6 6850.6 2295.6 6790.6 2577 6509.2 2295.6 6227.8H2210.7 2295.6 2873.7Z"/>
<path transform="matrix(.1,0,0,-.1,0,792)" d="M2975 2372.5 3007.5 2450.9 2975 2372.5 2873.7 2127.9H2295.6L2235.6 2187.9 2295.6 2127.9 2577 1846.4 2295.6 1565H2210.7 2295.6 2873.7L2975 1320.4 2942.5 1242 2975 1320.4 3076.3 1565H3654.4L3714.4 1505 3654.4 1565 3373 1846.4 3654.4 2127.9H3739.3 3654.4 3076.3" fill="#004080"/>
<path transform="matrix(.1,0,0,-.1,0,792)" stroke-width="12" stroke-linecap="butt" stroke-miterlimit="10" stroke-linejoin="miter" fill="none" stroke="#000000" d="M2975 2372.5 3007.5 2450.9 2975 2372.5 2873.7 2127.9H2295.6L2235.6 2187.9 2295.6 2127.9 2577 1846.4 2295.6 1565H2210.7 2295.6 2873.7L2975 1320.4 2942.5 1242 2975 1320.4 3076.3 1565H3654.4L3714.4 1505 3654.4 1565 3373 1846.4 3654.4 2127.9H3739.3 3654.4 3076.3Z"/>
<path transform="matrix(.1,0,0,-.1,0,792)" d="M3824.1 6227.8 3884.1 6167.8 3824.1 6227.8H4457.3L4738.7 6509.2 4781.1 6551.6 4738.7 6509.2 4457.3 6790.6H3824.1 3739.3 3824.1L3542.7 6509.2"/>
<path transform="matrix(.1,0,0,-.1,0,792)" stroke-width="12" stroke-linecap="butt" stroke-miterlimit="10" stroke-linejoin="miter" fill="none" stroke="#000000" d="M3824.1 6227.8 3884.1 6167.8 3824.1 6227.8H4457.3L4738.7 6509.2 4781.1 6551.6 4738.7 6509.2 4457.3 6790.6H3824.1 3739.3 3824.1L3542.7 6509.2Z"/>
<path transform="matrix(.1,0,0,-.1,0,792)" d="M2125.9 6227.8H2210.7 2125.9L2407.3 6509.2 2125.9 6790.6 2065.9 6850.6 2125.9 6790.6H1492.7L1211.3 6509.2 1168.9 6466.8 1211.3 6509.2 1492.7 6227.8"/>
<path transform="matrix(.1,0,0,-.1,0,792)" stroke-width="12" stroke-linecap="butt" stroke-miterlimit="10" stroke-linejoin="miter" fill="none" stroke="#000000" d="M2125.9 6227.8H2210.7 2125.9L2407.3 6509.2 2125.9 6790.6 2065.9 6850.6 2125.9 6790.6H1492.7L1211.3 6509.2 1168.9 6466.8 1211.3 6509.2 1492.7 6227.8Z"/>
<path transform="matrix(.1,0,0,-.1,0,792)" d="M2125.9 2127.9 2065.9 2187.9 2125.9 2127.9H1492.7L1211.3 1846.4 1168.9 1804 1211.3 1846.4 1492.7 1565H2125.9 2210.7 2125.9L2407.3 1846.4"/>
<path transform="matrix(.1,0,0,-.1,0,792)" stroke-width="12" stroke-linecap="butt" stroke-miterlimit="10" stroke-linejoin="miter" fill="none" stroke="#000000" d="M2125.9 2127.9 2065.9 2187.9 2125.9 2127.9H1492.7L1211.3 1846.4 1168.9 1804 1211.3 1846.4 1492.7 1565H2125.9 2210.7 2125.9L2407.3 1846.4Z"/>
<path transform="matrix(.1,0,0,-.1,0,792)" d="M3824.1 2127.9H3739.3 3824.1L3542.7 1846.4 3824.1 1565 3884.1 1505 3824.1 1565H4457.3L4738.7 1846.4 4781.1 1888.9 4738.7 1846.4 4457.3 2127.9"/>
<path transform="matrix(.1,0,0,-.1,0,792)" stroke-width="12" stroke-linecap="butt" stroke-miterlimit="10" stroke-linejoin="miter" fill="none" stroke="#000000" d="M3824.1 2127.9H3739.3 3824.1L3542.7 1846.4 3824.1 1565 3884.1 1505 3824.1 1565H4457.3L4738.7 1846.4 4781.1 1888.9 4738.7 1846.4 4457.3 2127.9Z"/>
<path transform="matrix(.1,0,0,-.1,0,792)" d="M4780.3 4177.8 4701.9 4210.3 4780.3 4177.8 5024.9 4076.5V3498.4L4964.9 3438.4 5024.9 3498.4 5306.4 3779.8 5587.8 3498.4V3413.5 3498.4 4076.5L5832.4 4177.8 5910.8 4145.3 5832.4 4177.8 5587.8 4279.1V4857.2L5647.8 4917.2 5587.8 4857.2 5306.4 4575.8 5024.9 4857.2V4942.1 4857.2 4279.1" fill="#004080"/>
<path transform="matrix(.1,0,0,-.1,0,792)" stroke-width="12" stroke-linecap="butt" stroke-miterlimit="10" stroke-linejoin="miter" fill="none" stroke="#000000" d="M4780.3 4177.8 4701.9 4210.3 4780.3 4177.8 5024.9 4076.5V3498.4L4964.9 3438.4 5024.9 3498.4 5306.4 3779.8 5587.8 3498.4V3413.5 3498.4 4076.5L5832.4 4177.8 5910.8 4145.3 5832.4 4177.8 5587.8 4279.1V4857.2L5647.8 4917.2 5587.8 4857.2 5306.4 4575.8 5024.9 4857.2V4942.1 4857.2 4279.1Z"/>
<path transform="matrix(.1,0,0,-.1,0,792)" d="M1169.7 4177.8 1248.1 4145.3 1169.7 4177.8 925.102 4279.1V4857.2L985.102 4917.2 925.102 4857.2 643.602 4575.8 362.199 4857.2V4942.1 4857.2 4279.1L117.602 4177.8 39.1992 4210.3 117.602 4177.8 362.199 4076.5V3498.4L302.199 3438.4 362.199 3498.4 643.602 3779.8 925.102 3498.4V3413.5 3498.4 4076.5" fill="#004080"/>
<path transform="matrix(.1,0,0,-.1,0,792)" stroke-width="12" stroke-linecap="butt" stroke-miterlimit="10" stroke-linejoin="miter" fill="none" stroke="#000000" d="M1169.7 4177.8 1248.1 4145.3 1169.7 4177.8 925.102 4279.1V4857.2L985.102 4917.2 925.102 4857.2 643.602 4575.8 362.199 4857.2V4942.1 4857.2 4279.1L117.602 4177.8 39.1992 4210.3 117.602 4177.8 362.199 4076.5V3498.4L302.199 3438.4 362.199 3498.4 643.602 3779.8 925.102 3498.4V3413.5 3498.4 4076.5Z"/>
<path transform="matrix(.1,0,0,-.1,0,792)" d="M1126.5 1761.6 1168.9 1804 1126.5 1761.6 1045.1 1680.2V1445H809.898L728.5 1363.6 686.102 1406 728.5 1363.6 1045.1 1047V484.199L985.102 424.199 1045.1 484.199 1453.8 893 1698.4 791.602 1730.9 713.199 1698.4 791.602 1597.1 1036.3 2005.9 1445H2090.7 2005.9 1443"/>
<path transform="matrix(.1,0,0,-.1,0,792)" stroke-width="12" stroke-linecap="butt" stroke-miterlimit="10" stroke-linejoin="miter" fill="none" stroke="#000000" d="M1126.5 1761.6 1168.9 1804 1126.5 1761.6 1045.1 1680.2V1445H809.898L728.5 1363.6 686.102 1406 728.5 1363.6 1045.1 1047V484.199L985.102 424.199 1045.1 484.199 1453.8 893 1698.4 791.602 1730.9 713.199 1698.4 791.602 1597.1 1036.3 2005.9 1445H2090.7 2005.9 1443Z"/>
<path transform="matrix(.1,0,0,-.1,0,792)" d="M1041.6 1846.4 1084 1888.9 1041.6 1846.4 925.102 1963V2127.9H760.199L643.602 2244.4 601.199 2286.9 643.602 2244.4 527.102 2127.9H362.199V1963L245.602 1846.4 203.199 1804 245.602 1846.4 362.199 1729.9V1565H527.102L643.602 1448.4 686.102 1406 643.602 1448.4 760.199 1565H925.102V1729.9" fill="#004080"/>
<path transform="matrix(.1,0,0,-.1,0,792)" stroke-width="12" stroke-linecap="butt" stroke-miterlimit="10" stroke-linejoin="miter" fill="none" stroke="#000000" d="M1041.6 1846.4 1084 1888.9 1041.6 1846.4 925.102 1963V2127.9H760.199L643.602 2244.4 601.199 2286.9 643.602 2244.4 527.102 2127.9H362.199V1963L245.602 1846.4 203.199 1804 245.602 1846.4 362.199 1729.9V1565H527.102L643.602 1448.4 686.102 1406 643.602 1448.4 760.199 1565H925.102V1729.9Z"/>
<path transform="matrix(.1,0,0,-.1,0,792)" d="M4908.4 1846.4 4866 1804 4908.4 1846.4 5024.9 1729.9V1565H5189.8L5306.4 1448.4 5348.8 1406 5306.4 1448.4 5422.9 1565H5587.8V1729.9L5704.4 1846.4 5746.8 1888.9 5704.4 1846.4 5587.8 1963V2127.9H5422.9L5306.4 2244.4 5263.9 2286.9 5306.4 2244.4 5189.8 2127.9H5024.9V1963" fill="#004080"/>
<path transform="matrix(.1,0,0,-.1,0,792)" stroke-width="12" stroke-linecap="butt" stroke-miterlimit="10" stroke-linejoin="miter" fill="none" stroke="#000000" d="M4908.4 1846.4 4866 1804 4908.4 1846.4 5024.9 1729.9V1565H5189.8L5306.4 1448.4 5348.8 1406 5306.4 1448.4 5422.9 1565H5587.8V1729.9L5704.4 1846.4 5746.8 1888.9 5704.4 1846.4 5587.8 1963V2127.9H5422.9L5306.4 2244.4 5263.9 2286.9 5306.4 2244.4 5189.8 2127.9H5024.9V1963Z"/>
<path transform="matrix(.1,0,0,-.1,0,792)" d="M4823.5 1761.6 4866 1804 4823.5 1761.6 4507 1445H3944.1L3884.1 1505 3944.1 1445 4352.9 1036.3 4251.6 791.602 4173.2 759.102 4251.6 791.602 4496.2 893 4904.9 484.199V399.301 484.199 1047L5221.5 1363.6 5263.9 1321.2 5221.5 1363.6 5140.1 1445H4904.9V1680.2"/>
<path transform="matrix(.1,0,0,-.1,0,792)" stroke-width="12" stroke-linecap="butt" stroke-miterlimit="10" stroke-linejoin="miter" fill="none" stroke="#000000" d="M4823.5 1761.6 4866 1804 4823.5 1761.6 4507 1445H3944.1L3884.1 1505 3944.1 1445 4352.9 1036.3 4251.6 791.602 4173.2 759.102 4251.6 791.602 4496.2 893 4904.9 484.199V399.301 484.199 1047L5221.5 1363.6 5263.9 1321.2 5221.5 1363.6 5140.1 1445H4904.9V1680.2Z"/>
<path transform="matrix(.1,0,0,-.1,0,792)" d="M4823.5 6594 4781.1 6551.6 4823.5 6594 4904.9 6675.5V6910.6H5140.1L5221.5 6992 5263.9 6949.6 5221.5 6992 4904.9 7308.6V7871.4L4964.9 7931.4 4904.9 7871.4 4496.2 7462.7 4251.6 7564 4219.1 7642.4 4251.6 7564 4352.9 7319.4 3944.1 6910.6H3859.3 3944.1 4507"/>
<path transform="matrix(.1,0,0,-.1,0,792)" stroke-width="12" stroke-linecap="butt" stroke-miterlimit="10" stroke-linejoin="miter" fill="none" stroke="#000000" d="M4823.5 6594 4781.1 6551.6 4823.5 6594 4904.9 6675.5V6910.6H5140.1L5221.5 6992 5263.9 6949.6 5221.5 6992 4904.9 7308.6V7871.4L4964.9 7931.4 4904.9 7871.4 4496.2 7462.7 4251.6 7564 4219.1 7642.4 4251.6 7564 4352.9 7319.4 3944.1 6910.6H3859.3 3944.1 4507Z"/>
<path transform="matrix(.1,0,0,-.1,0,792)" d="M4908.4 6509.2 4866 6466.8 4908.4 6509.2 5024.9 6392.6V6227.8H5189.8L5306.4 6111.2 5348.8 6068.8 5306.4 6111.2 5422.9 6227.8H5587.8V6392.6L5704.4 6509.2 5746.8 6551.6 5704.4 6509.2 5587.8 6625.7V6790.6H5422.9L5306.4 6907.2 5263.9 6949.6 5306.4 6907.2 5189.8 6790.6H5024.9V6625.7" fill="#004080"/>
<path transform="matrix(.1,0,0,-.1,0,792)" stroke-width="12" stroke-linecap="butt" stroke-miterlimit="10" stroke-linejoin="miter" fill="none" stroke="#000000" d="M4908.4 6509.2 4866 6466.8 4908.4 6509.2 5024.9 6392.6V6227.8H5189.8L5306.4 6111.2 5348.8 6068.8 5306.4 6111.2 5422.9 6227.8H5587.8V6392.6L5704.4 6509.2 5746.8 6551.6 5704.4 6509.2 5587.8 6625.7V6790.6H5422.9L5306.4 6907.2 5263.9 6949.6 5306.4 6907.2 5189.8 6790.6H5024.9V6625.7Z"/>
<path transform="matrix(.1,0,0,-.1,0,792)" d="M1041.6 6509.2 1084 6551.6 1041.6 6509.2 925.102 6625.7V6790.6H760.199L643.602 6907.2 601.199 6949.6 643.602 6907.2 527.102 6790.6H362.199V6625.7L245.602 6509.2 203.199 6466.8 245.602 6509.2 362.199 6392.6V6227.8H527.102L643.602 6111.2 686.102 6068.8 643.602 6111.2 760.199 6227.8H925.102V6392.6" fill="#004080"/>
<path transform="matrix(.1,0,0,-.1,0,792)" stroke-width="12" stroke-linecap="butt" stroke-miterlimit="10" stroke-linejoin="miter" fill="none" stroke="#000000" d="M1041.6 6509.2 1084 6551.6 1041.6 6509.2 925.102 6625.7V6790.6H760.199L643.602 6907.2 601.199 6949.6 643.602 6907.2 527.102 6790.6H362.199V6625.7L245.602 6509.2 203.199 6466.8 245.602 6509.2 362.199 6392.6V6227.8H527.102L643.602 6111.2 686.102 6068.8 643.602 6111.2 760.199 6227.8H925.102V6392.6Z"/>
<path transform="matrix(.1,0,0,-.1,0,792)" d="M1126.5 6594 1084 6551.6 1126.5 6594 1443 6910.6H2005.9L2065.9 6850.6 2005.9 6910.6 1597.1 7319.4 1698.4 7564 1776.8 7596.5 1698.4 7564 1453.8 7462.7 1045.1 7871.4V7956.3 7871.4 7308.6L728.5 6992 686.102 7034.5 728.5 6992 809.898 6910.6H1045.1V6675.5"/>
<path transform="matrix(.1,0,0,-.1,0,792)" stroke-width="12" stroke-linecap="butt" stroke-miterlimit="10" stroke-linejoin="miter" fill="none" stroke="#000000" d="M1126.5 6594 1084 6551.6 1126.5 6594 1443 6910.6H2005.9L2065.9 6850.6 2005.9 6910.6 1597.1 7319.4 1698.4 7564 1776.8 7596.5 1698.4 7564 1453.8 7462.7 1045.1 7871.4V7956.3 7871.4 7308.6L728.5 6992 686.102 7034.5 728.5 6992 809.898 6910.6H1045.1V6675.5Z"/>
<path transform="matrix(.1,0,0,-.1,0,792)" d="M2793.5 6910.6 2910.1 7192 2942.5 7270.4 2910.1 7192 2793.5 7473.4H2573.6V7871.4 7956.3 7871.4L2292.2 7590 2136.7 7745.5 1855.2 7628.9 1776.8 7596.5 1855.2 7628.9 1738.7 7347.5 2175.6 6910.6 2235.6 6850.6 2175.6 6910.6" fill="#e64040"/>
<path transform="matrix(.1,0,0,-.1,0,792)" stroke-width="12" stroke-linecap="butt" stroke-miterlimit="10" stroke-linejoin="miter" fill="none" stroke="#000000" d="M2793.5 6910.6 2910.1 7192 2942.5 7270.4 2910.1 7192 2793.5 7473.4H2573.6V7871.4 7956.3 7871.4L2292.2 7590 2136.7 7745.5 1855.2 7628.9 1776.8 7596.5 1855.2 7628.9 1738.7 7347.5 2175.6 6910.6 2235.6 6850.6 2175.6 6910.6Z"/>
<path transform="matrix(.1,0,0,-.1,0,792)" d="M3156.5 6910.6H3859.3 3774.4L4211.3 7347.5 4094.8 7628.9 4062.3 7707.3 4094.8 7628.9 3813.3 7745.5 3657.8 7590 3376.4 7871.4 3316.4 7931.4 3376.4 7871.4V7473.4H3156.5L3039.9 7192 3007.5 7113.6 3039.9 7192" fill="#e64040"/>
<path transform="matrix(.1,0,0,-.1,0,792)" stroke-width="12" stroke-linecap="butt" stroke-miterlimit="10" stroke-linejoin="miter" fill="none" stroke="#000000" d="M3156.5 6910.6H3859.3 3774.4L4211.3 7347.5 4094.8 7628.9 4062.3 7707.3 4094.8 7628.9 3813.3 7745.5 3657.8 7590 3376.4 7871.4 3316.4 7931.4 3376.4 7871.4V7473.4H3156.5L3039.9 7192 3007.5 7113.6 3039.9 7192Z"/>
<path transform="matrix(.1,0,0,-.1,0,792)" d="M2175.6 1445H2090.7 2175.6L1738.7 1008.1 1855.2 726.699 1887.7 648.301 1855.2 726.699 2136.7 610.102 2292.2 765.602 2573.6 484.199 2633.6 424.199 2573.6 484.199V882.199H2793.5L2910.1 1163.6 2942.5 1242 2910.1 1163.6 2793.5 1445" fill="#e64040"/>
<path transform="matrix(.1,0,0,-.1,0,792)" stroke-width="12" stroke-linecap="butt" stroke-miterlimit="10" stroke-linejoin="miter" fill="none" stroke="#000000" d="M2175.6 1445H2090.7 2175.6L1738.7 1008.1 1855.2 726.699 1887.7 648.301 1855.2 726.699 2136.7 610.102 2292.2 765.602 2573.6 484.199 2633.6 424.199 2573.6 484.199V882.199H2793.5L2910.1 1163.6 2942.5 1242 2910.1 1163.6 2793.5 1445Z"/>
<path transform="matrix(.1,0,0,-.1,0,792)" d="M3156.5 1445 3039.9 1163.6 3007.5 1085.2 3039.9 1163.6 3156.5 882.199H3376.4V484.199 399.301 484.199L3657.8 765.602 3813.3 610.102 4094.8 726.699 4173.2 759.102 4094.8 726.699 4211.3 1008.1 3774.4 1445 3714.4 1505 3774.4 1445" fill="#e64040"/>
<path transform="matrix(.1,0,0,-.1,0,792)" stroke-width="12" stroke-linecap="butt" stroke-miterlimit="10" stroke-linejoin="miter" fill="none" stroke="#000000" d="M3156.5 1445 3039.9 1163.6 3007.5 1085.2 3039.9 1163.6 3156.5 882.199H3376.4V484.199 399.301 484.199L3657.8 765.602 3813.3 610.102 4094.8 726.699 4173.2 759.102 4094.8 726.699 4211.3 1008.1 3774.4 1445 3714.4 1505 3774.4 1445Z"/>
<path transform="matrix(.1,0,0,-.1,0,792)" d="M5024.9 2695.6 5306.4 2414.1 5348.8 2371.7 5306.4 2414.1 5587.8 2695.6V3328.7 3413.5 3328.7L5306.4 3610.1 5024.9 3328.7 4964.9 3268.7 5024.9 3328.7"/>
<path transform="matrix(.1,0,0,-.1,0,792)" stroke-width="12" stroke-linecap="butt" stroke-miterlimit="10" stroke-linejoin="miter" fill="none" stroke="#000000" d="M5024.9 2695.6 5306.4 2414.1 5348.8 2371.7 5306.4 2414.1 5587.8 2695.6V3328.7 3413.5 3328.7L5306.4 3610.1 5024.9 3328.7 4964.9 3268.7 5024.9 3328.7Z"/>
<path transform="matrix(.1,0,0,-.1,0,792)" d="M5024.9 5026.9V4942.1 5026.9L5306.4 4745.5 5587.8 5026.9 5647.8 5086.9 5587.8 5026.9V5660.1L5306.4 5941.5 5263.9 5983.9 5306.4 5941.5 5024.9 5660.1"/>
<path transform="matrix(.1,0,0,-.1,0,792)" stroke-width="12" stroke-linecap="butt" stroke-miterlimit="10" stroke-linejoin="miter" fill="none" stroke="#000000" d="M5024.9 5026.9V4942.1 5026.9L5306.4 4745.5 5587.8 5026.9 5647.8 5086.9 5587.8 5026.9V5660.1L5306.4 5941.5 5263.9 5983.9 5306.4 5941.5 5024.9 5660.1Z"/>
<path transform="matrix(.1,0,0,-.1,0,792)" d="M925.102 5660.1 643.602 5941.5 601.199 5983.9 643.602 5941.5 362.199 5660.1V5026.9 4942.1 5026.9L643.602 4745.5 925.102 5026.9 985.102 5086.9 925.102 5026.9"/>
<path transform="matrix(.1,0,0,-.1,0,792)" stroke-width="12" stroke-linecap="butt" stroke-miterlimit="10" stroke-linejoin="miter" fill="none" stroke="#000000" d="M925.102 5660.1 643.602 5941.5 601.199 5983.9 643.602 5941.5 362.199 5660.1V5026.9 4942.1 5026.9L643.602 4745.5 925.102 5026.9 985.102 5086.9 925.102 5026.9Z"/>
<path transform="matrix(.1,0,0,-.1,0,792)" d="M925.102 3328.7V3413.5 3328.7L643.602 3610.1 362.199 3328.7 302.199 3268.7 362.199 3328.7V2695.6L643.602 2414.1 686.102 2371.7 643.602 2414.1 925.102 2695.6"/>
<path transform="matrix(.1,0,0,-.1,0,792)" stroke-width="12" stroke-linecap="butt" stroke-miterlimit="10" stroke-linejoin="miter" fill="none" stroke="#000000" d="M925.102 3328.7V3413.5 3328.7L643.602 3610.1 362.199 3328.7 302.199 3268.7 362.199 3328.7V2695.6L643.602 2414.1 686.102 2371.7 643.602 2414.1 925.102 2695.6Z"/>
<path transform="matrix(.1,0,0,-.1,0,792)" d="M2975 7348.8 2942.5 7270.4 2975 7348.8 3076.3 7593.4H3256.4V7991.4L3316.4 7931.4 3256.4 7991.4 2975 8272.9 3017.4 8315.3 2975 8272.9 2693.6 7991.4V8076.3 7991.4 7593.4H2873.7"/>
<path transform="matrix(.1,0,0,-.1,0,792)" stroke-width="12" stroke-linecap="butt" stroke-miterlimit="10" stroke-linejoin="miter" fill="none" stroke="#000000" d="M2975 7348.8 2942.5 7270.4 2975 7348.8 3076.3 7593.4H3256.4V7991.4L3316.4 7931.4 3256.4 7991.4 2975 8272.9 3017.4 8315.3 2975 8272.9 2693.6 7991.4V8076.3 7991.4 7593.4H2873.7Z"/>
<path transform="matrix(.1,0,0,-.1,0,792)" d="M2975 1006.8 3007.5 1085.2 2975 1006.8 2873.7 762.199H2693.6V364.199L2633.6 424.199 2693.6 364.199 2975 82.8008 2932.6 40.3008 2975 82.8008 3256.4 364.199V279.301 364.199 762.199H3076.3"/>
<path transform="matrix(.1,0,0,-.1,0,792)" stroke-width="12" stroke-linecap="butt" stroke-miterlimit="10" stroke-linejoin="miter" fill="none" stroke="#000000" d="M2975 1006.8 3007.5 1085.2 2975 1006.8 2873.7 762.199H2693.6V364.199L2633.6 424.199 2693.6 364.199 2975 82.8008 2932.6 40.3008 2975 82.8008 3256.4 364.199V279.301 364.199 762.199H3076.3Z"/>
<path transform="matrix(.1,0,0,-.1,0,792)" d="M5024.9 7358.3 5306.4 7076.9 5348.8 7034.5 5306.4 7076.9 5587.8 7358.3V7991.4 8076.3 7991.4L5306.4 8272.9 5024.9 7991.4 4964.9 7931.4 5024.9 7991.4"/>
<path transform="matrix(.1,0,0,-.1,0,792)" stroke-width="12" stroke-linecap="butt" stroke-miterlimit="10" stroke-linejoin="miter" fill="none" stroke="#000000" d="M5024.9 7358.3 5306.4 7076.9 5348.8 7034.5 5306.4 7076.9 5587.8 7358.3V7991.4 8076.3 7991.4L5306.4 8272.9 5024.9 7991.4 4964.9 7931.4 5024.9 7991.4Z"/>
<path transform="matrix(.1,0,0,-.1,0,792)" d="M925.102 7358.3V8076.3 7991.4L643.602 8272.9 362.199 7991.4 302.199 7931.4 362.199 7991.4V7358.3L643.602 7076.9 686.102 7034.5 643.602 7076.9"/>
<path transform="matrix(.1,0,0,-.1,0,792)" stroke-width="12" stroke-linecap="butt" stroke-miterlimit="10" stroke-linejoin="miter" fill="none" stroke="#000000" d="M925.102 7358.3V8076.3 7991.4L643.602 8272.9 362.199 7991.4 302.199 7931.4 362.199 7991.4V7358.3L643.602 7076.9 686.102 7034.5 643.602 7076.9Z"/>
<path transform="matrix(.1,0,0,-.1,0,792)" d="M925.102 997.301 643.602 1278.7 601.199 1321.2 643.602 1278.7 362.199 997.301V364.199 279.301 364.199L643.602 82.8008 925.102 364.199 985.102 424.199 925.102 364.199"/>
<path transform="matrix(.1,0,0,-.1,0,792)" stroke-width="12" stroke-linecap="butt" stroke-miterlimit="10" stroke-linejoin="miter" fill="none" stroke="#000000" d="M925.102 997.301 643.602 1278.7 601.199 1321.2 643.602 1278.7 362.199 997.301V364.199 279.301 364.199L643.602 82.8008 925.102 364.199 985.102 424.199 925.102 364.199Z"/>
<path transform="matrix(.1,0,0,-.1,0,792)" d="M5024.9 997.301V279.301 364.199L5306.4 82.8008 5587.8 364.199 5647.8 424.199 5587.8 364.199V997.301L5306.4 1278.7 5263.9 1321.2 5306.4 1278.7"/>
<path transform="matrix(.1,0,0,-.1,0,792)" stroke-width="12" stroke-linecap="butt" stroke-miterlimit="10" stroke-linejoin="miter" fill="none" stroke="#000000" d="M5024.9 997.301V279.301 364.199L5306.4 82.8008 5587.8 364.199 5647.8 424.199 5587.8 364.199V997.301L5306.4 1278.7 5263.9 1321.2 5306.4 1278.7Z"/>
<path transform="matrix(.1,0,0,-.1,0,792)" d="M5391.2 1363.6 5348.8 1406 5391.2 1363.6 5707.8 1047V484.199L5647.8 424.199 5707.8 484.199 6116.6 893 6361.2 791.602 6393.7 713.199 6361.2 791.602 6259.9 1036.3 6668.6 1445H6753.5 6668.6 6105.8L5789.2 1761.6 5831.6 1804 5789.2 1761.6 5707.8 1680.2V1445H5472.6"/>
<path transform="matrix(.1,0,0,-.1,0,792)" stroke-width="12" stroke-linecap="butt" stroke-miterlimit="10" stroke-linejoin="miter" fill="none" stroke="#000000" d="M5391.2 1363.6 5348.8 1406 5391.2 1363.6 5707.8 1047V484.199L5647.8 424.199 5707.8 484.199 6116.6 893 6361.2 791.602 6393.7 713.199 6361.2 791.602 6259.9 1036.3 6668.6 1445H6753.5 6668.6 6105.8L5789.2 1761.6 5831.6 1804 5789.2 1761.6 5707.8 1680.2V1445H5472.6Z"/>
<path transform="matrix(.1,0,0,-.1,0,792)" d="M5391.2 2329.3 5348.8 2371.7 5391.2 2329.3 5472.6 2247.9H5707.8V2012.7L5789.2 1931.3 5746.8 1888.9 5789.2 1931.3 6105.8 2247.9H6668.6L6728.6 2187.9 6668.6 2247.9 6259.9 2656.6 6361.2 2901.3 6439.6 2933.7 6361.2 2901.3 6116.6 2799.9 5707.8 3208.7V3293.5 3208.7 2645.9"/>
<path transform="matrix(.1,0,0,-.1,0,792)" stroke-width="12" stroke-linecap="butt" stroke-miterlimit="10" stroke-linejoin="miter" fill="none" stroke="#000000" d="M5391.2 2329.3 5348.8 2371.7 5391.2 2329.3 5472.6 2247.9H5707.8V2012.7L5789.2 1931.3 5746.8 1888.9 5789.2 1931.3 6105.8 2247.9H6668.6L6728.6 2187.9 6668.6 2247.9 6259.9 2656.6 6361.2 2901.3 6439.6 2933.7 6361.2 2901.3 6116.6 2799.9 5707.8 3208.7V3293.5 3208.7 2645.9Z"/>
<path transform="matrix(.1,0,0,-.1,0,792)" d="M5391.2 6026.3 5348.8 6068.8 5391.2 6026.3 5707.8 5709.8V5146.9L5647.8 5086.9 5707.8 5146.9 6116.6 5555.7 6361.2 5454.4 6393.7 5376 6361.2 5454.4 6259.9 5699 6668.6 6107.8H6753.5 6668.6 6105.8L5789.2 6424.3 5831.6 6466.8 5789.2 6424.3 5707.8 6342.9V6107.8H5472.6"/>
<path transform="matrix(.1,0,0,-.1,0,792)" stroke-width="12" stroke-linecap="butt" stroke-miterlimit="10" stroke-linejoin="miter" fill="none" stroke="#000000" d="M5391.2 6026.3 5348.8 6068.8 5391.2 6026.3 5707.8 5709.8V5146.9L5647.8 5086.9 5707.8 5146.9 6116.6 5555.7 6361.2 5454.4 6393.7 5376 6361.2 5454.4 6259.9 5699 6668.6 6107.8H6753.5 6668.6 6105.8L5789.2 6424.3 5831.6 6466.8 5789.2 6424.3 5707.8 6342.9V6107.8H5472.6Z"/>
<path transform="matrix(.1,0,0,-.1,0,792)" d="M5391.2 6992 5348.8 7034.5 5391.2 6992 5472.6 6910.6H5707.8V6675.5L5789.2 6594 5746.8 6551.6 5789.2 6594 6105.8 6910.6H6668.6L6728.6 6850.6 6668.6 6910.6 6259.9 7319.4 6361.2 7564 6439.6 7596.5 6361.2 7564 6116.6 7462.7 5707.8 7871.4V7956.3 7871.4 7308.6"/>
<path transform="matrix(.1,0,0,-.1,0,792)" stroke-width="12" stroke-linecap="butt" stroke-miterlimit="10" stroke-linejoin="miter" fill="none" stroke="#000000" d="M5391.2 6992 5348.8 7034.5 5391.2 6992 5472.6 6910.6H5707.8V6675.5L5789.2 6594 5746.8 6551.6 5789.2 6594 6105.8 6910.6H6668.6L6728.6 6850.6 6668.6 6910.6 6259.9 7319.4 6361.2 7564 6439.6 7596.5 6361.2 7564 6116.6 7462.7 5707.8 7871.4V7956.3 7871.4 7308.6Z"/>
<path transform="matrix(.1,0,0,-.1,0,792)" d="M558.801 6992 601.199 6949.6 558.801 6992 242.199 7308.6V7871.4L302.199 7931.4 242.199 7871.4-166.602 7462.7-411.199 7564-443.699 7642.4-411.199 7564-309.898 7319.4-718.602 6910.6H-803.5-718.602-155.801L160.801 6594 118.398 6551.6 160.801 6594 242.199 6675.5V6910.6H477.398"/>
<path transform="matrix(.1,0,0,-.1,0,792)" stroke-width="12" stroke-linecap="butt" stroke-miterlimit="10" stroke-linejoin="miter" fill="none" stroke="#000000" d="M558.801 6992 601.199 6949.6 558.801 6992 242.199 7308.6V7871.4L302.199 7931.4 242.199 7871.4-166.602 7462.7-411.199 7564-443.699 7642.4-411.199 7564-309.898 7319.4-718.602 6910.6H-803.5-718.602-155.801L160.801 6594 118.398 6551.6 160.801 6594 242.199 6675.5V6910.6H477.398Z"/>
<path transform="matrix(.1,0,0,-.1,0,792)" d="M558.801 6026.3 601.199 5983.9 558.801 6026.3 477.398 6107.8H242.199V6342.9L160.801 6424.3 203.199 6466.8 160.801 6424.3-155.801 6107.8H-718.602L-778.602 6167.8-718.602 6107.8-309.898 5699-411.199 5454.4-489.602 5421.9-411.199 5454.4-166.602 5555.7 242.199 5146.9V5062.1 5146.9 5709.8"/>
<path transform="matrix(.1,0,0,-.1,0,792)" stroke-width="12" stroke-linecap="butt" stroke-miterlimit="10" stroke-linejoin="miter" fill="none" stroke="#000000" d="M558.801 6026.3 601.199 5983.9 558.801 6026.3 477.398 6107.8H242.199V6342.9L160.801 6424.3 203.199 6466.8 160.801 6424.3-155.801 6107.8H-718.602L-778.602 6167.8-718.602 6107.8-309.898 5699-411.199 5454.4-489.602 5421.9-411.199 5454.4-166.602 5555.7 242.199 5146.9V5062.1 5146.9 5709.8Z"/>
<path transform="matrix(.1,0,0,-.1,0,792)" d="M558.801 2329.3 601.199 2286.9 558.801 2329.3 242.199 2645.9V3208.7L302.199 3268.7 242.199 3208.7-166.602 2799.9-411.199 2901.3-443.699 2979.7-411.199 2901.3-309.898 2656.6-718.602 2247.9H-803.5-718.602-155.801L160.801 1931.3 118.398 1888.9 160.801 1931.3 242.199 2012.7V2247.9H477.398"/>
<path transform="matrix(.1,0,0,-.1,0,792)" stroke-width="12" stroke-linecap="butt" stroke-miterlimit="10" stroke-linejoin="miter" fill="none" stroke="#000000" d="M558.801 2329.3 601.199 2286.9 558.801 2329.3 242.199 2645.9V3208.7L302.199 3268.7 242.199 3208.7-166.602 2799.9-411.199 2901.3-443.699 2979.7-411.199 2901.3-309.898 2656.6-718.602 2247.9H-803.5-718.602-155.801L160.801 1931.3 118.398 1888.9 160.801 1931.3 242.199 2012.7V2247.9H477.398Z"/>
<path transform="matrix(.1,0,0,-.1,0,792)" d="M558.801 1363.6 601.199 1321.2 558.801 1363.6 477.398 1445H242.199V1680.2L160.801 1761.6 203.199 1804 160.801 1761.6-155.801 1445H-718.602L-778.602 1505-718.602 1445-309.898 1036.3-411.199 791.602-489.602 759.102-411.199 791.602-166.602 893 242.199 484.199V399.301 484.199 1047"/>
<path transform="matrix(.1,0,0,-.1,0,792)" stroke-width="12" stroke-linecap="butt" stroke-miterlimit="10" stroke-linejoin="miter" fill="none" stroke="#000000" d="M558.801 1363.6 601.199 1321.2 558.801 1363.6 477.398 1445H242.199V1680.2L160.801 1761.6 203.199 1804 160.801 1761.6-155.801 1445H-718.602L-778.602 1505-718.602 1445-309.898 1036.3-411.199 791.602-489.602 759.102-411.199 791.602-166.602 893 242.199 484.199V399.301 484.199 1047Z"/>
<path transform="matrix(.1,0,0,-.1,0,792)" d="M4468 7604.2 4904.9 8041.1 4964.9 8101.1 4904.9 8041.1V8659L4623.5 8775.6 4545.1 8808.1 4623.5 8775.6 4342.1 8659V8439.1H3944.1 3859.3 3944.1L4225.5 8157.7 4070 8002.2 4186.6 7720.8 4219.1 7642.4 4186.6 7720.8" fill="#e64040"/>
<path transform="matrix(.1,0,0,-.1,0,792)" stroke-width="12" stroke-linecap="butt" stroke-miterlimit="10" stroke-linejoin="miter" fill="none" stroke="#000000" d="M4468 7604.2 4904.9 8041.1 4964.9 8101.1 4904.9 8041.1V8659L4623.5 8775.6 4545.1 8808.1 4623.5 8775.6 4342.1 8659V8439.1H3944.1 3859.3 3944.1L4225.5 8157.7 4070 8002.2 4186.6 7720.8 4219.1 7642.4 4186.6 7720.8Z"/>
<path transform="matrix(.1,0,0,-.1,0,792)" d="M1482 7604.2 1763.4 7720.8 1841.8 7753.3 1763.4 7720.8 1880 8002.2 1724.5 8157.7 2005.9 8439.1 2065.9 8499.1 2005.9 8439.1H1607.9V8659L1326.5 8775.6 1248.1 8808.1 1326.5 8775.6 1045.1 8659V8041.1 7956.3 8041.1" fill="#e64040"/>
<path transform="matrix(.1,0,0,-.1,0,792)" stroke-width="12" stroke-linecap="butt" stroke-miterlimit="10" stroke-linejoin="miter" fill="none" stroke="#000000" d="M1482 7604.2 1763.4 7720.8 1841.8 7753.3 1763.4 7720.8 1880 8002.2 1724.5 8157.7 2005.9 8439.1 2065.9 8499.1 2005.9 8439.1H1607.9V8659L1326.5 8775.6 1248.1 8808.1 1326.5 8775.6 1045.1 8659V8041.1 7956.3 8041.1Z"/>
<path transform="matrix(.1,0,0,-.1,0,792)" d="M1482 751.398 1045.1 314.5 985.102 254.5 1045.1 314.5V-303.398L1326.5-420 1404.9-452.5 1326.5-420 1607.9-303.398V-83.5H2005.9 2090.7 2005.9L1724.5 197.898 1880 353.398 1763.4 634.801 1730.9 713.199 1763.4 634.801" fill="#e64040"/>
<path transform="matrix(.1,0,0,-.1,0,792)" stroke-width="12" stroke-linecap="butt" stroke-miterlimit="10" stroke-linejoin="miter" fill="none" stroke="#000000" d="M1482 751.398 1045.1 314.5 985.102 254.5 1045.1 314.5V-303.398L1326.5-420 1404.9-452.5 1326.5-420 1607.9-303.398V-83.5H2005.9 2090.7 2005.9L1724.5 197.898 1880 353.398 1763.4 634.801 1730.9 713.199 1763.4 634.801Z"/>
<path transform="matrix(.1,0,0,-.1,0,792)" d="M4468 751.398 4186.6 634.801 4108.2 602.398 4186.6 634.801 4070 353.398 4225.5 197.898 3944.1-83.5 3884.1-143.5 3944.1-83.5H4342.1V-303.398L4623.5-420 4701.9-452.5 4623.5-420 4904.9-303.398V314.5 399.301 314.5" fill="#e64040"/>
<path transform="matrix(.1,0,0,-.1,0,792)" stroke-width="12" stroke-linecap="butt" stroke-miterlimit="10" stroke-linejoin="miter" fill="none" stroke="#000000" d="M4468 751.398 4186.6 634.801 4108.2 602.398 4186.6 634.801 4070 353.398 4225.5 197.898 3944.1-83.5 3884.1-143.5 3944.1-83.5H4342.1V-303.398L4623.5-420 4701.9-452.5 4623.5-420 4904.9-303.398V314.5 399.301 314.5Z"/>
<path transform="matrix(.1,0,0,-.1,0,792)" d="M4029.8 7785.7 4062.3 7707.3 4029.8 7785.7 3928.5 8030.4 4055.8 8157.7 3774.4 8439.1H3859.3 3774.4 3376.4V8499.1 8439.1 8041.1L3316.4 8101.1 3376.4 8041.1 3657.8 7759.7 3785.2 7887.1"/>
<path transform="matrix(.1,0,0,-.1,0,792)" stroke-width="12" stroke-linecap="butt" stroke-miterlimit="10" stroke-linejoin="miter" fill="none" stroke="#000000" d="M4029.8 7785.7 4062.3 7707.3 4029.8 7785.7 3928.5 8030.4 4055.8 8157.7 3774.4 8439.1H3859.3 3774.4 3376.4V8499.1 8439.1 8041.1L3316.4 8101.1 3376.4 8041.1 3657.8 7759.7 3785.2 7887.1Z"/>
<path transform="matrix(.1,0,0,-.1,0,792)" d="M2292.2 7759.7 2573.6 8041.1V7956.3 8439.1H2633.6 2573.6 2175.6L2235.6 8499.1 2175.6 8439.1 1894.2 8157.7 2021.5 8030.4 1920.2 7785.7 1841.8 7753.3 1920.2 7785.7 2164.8 7887.1"/>
<path transform="matrix(.1,0,0,-.1,0,792)" stroke-width="12" stroke-linecap="butt" stroke-miterlimit="10" stroke-linejoin="miter" fill="none" stroke="#000000" d="M2292.2 7759.7 2573.6 8041.1V7956.3 8439.1H2633.6 2573.6 2175.6L2235.6 8499.1 2175.6 8439.1 1894.2 8157.7 2021.5 8030.4 1920.2 7785.7 1841.8 7753.3 1920.2 7785.7 2164.8 7887.1Z"/>
<path transform="matrix(.1,0,0,-.1,0,792)" d="M1920.2 569.898 1887.7 648.301 1920.2 569.898 2021.5 325.301 1894.2 197.898 2175.6-83.5H2090.7 2175.6 2573.6V-143.5-83.5 314.5L2633.6 254.5 2573.6 314.5 2292.2 595.898 2164.8 468.602"/>
<path transform="matrix(.1,0,0,-.1,0,792)" stroke-width="12" stroke-linecap="butt" stroke-miterlimit="10" stroke-linejoin="miter" fill="none" stroke="#000000" d="M1920.2 569.898 1887.7 648.301 1920.2 569.898 2021.5 325.301 1894.2 197.898 2175.6-83.5H2090.7 2175.6 2573.6V-143.5-83.5 314.5L2633.6 254.5 2573.6 314.5 2292.2 595.898 2164.8 468.602Z"/>
<path transform="matrix(.1,0,0,-.1,0,792)" d="M3657.8 595.898 3376.4 314.5V399.301-83.5H3316.4 3376.4 3774.4L3714.4-143.5 3774.4-83.5 4055.8 197.898 3928.5 325.301 4029.8 569.898 4108.2 602.398 4029.8 569.898 3785.2 468.602"/>
<path transform="matrix(.1,0,0,-.1,0,792)" stroke-width="12" stroke-linecap="butt" stroke-miterlimit="10" stroke-linejoin="miter" fill="none" stroke="#000000" d="M3657.8 595.898 3376.4 314.5V399.301-83.5H3316.4 3376.4 3774.4L3714.4-143.5 3774.4-83.5 4055.8 197.898 3928.5 325.301 4029.8 569.898 4108.2 602.398 4029.8 569.898 3785.2 468.602Z"/>
<path transform="matrix(.1,0,0,-.1,0,792)" d="M5707.8 3378.4V3293.5 3378.4L6144.7 2941.5 6426.1 3058 6504.5 3090.5 6426.1 3058 6542.7 3339.5 6387.2 3495 6668.6 3776.4 6728.6 3836.4 6668.6 3776.4H6270.6V3996.3L5989.2 4112.9 5910.8 4145.3 5989.2 4112.9 5707.8 3996.3" fill="#e64040"/>
<path transform="matrix(.1,0,0,-.1,0,792)" stroke-width="12" stroke-linecap="butt" stroke-miterlimit="10" stroke-linejoin="miter" fill="none" stroke="#000000" d="M5707.8 3378.4V3293.5 3378.4L6144.7 2941.5 6426.1 3058 6504.5 3090.5 6426.1 3058 6542.7 3339.5 6387.2 3495 6668.6 3776.4 6728.6 3836.4 6668.6 3776.4H6270.6V3996.3L5989.2 4112.9 5910.8 4145.3 5989.2 4112.9 5707.8 3996.3Z"/>
<path transform="matrix(.1,0,0,-.1,0,792)" d="M5707.8 4359.3 5989.2 4242.8 6067.6 4210.3 5989.2 4242.8 6270.6 4359.3V4579.2H6668.6 6753.5 6668.6L6387.2 4860.7 6542.7 5016.2 6426.1 5297.6 6393.7 5376 6426.1 5297.6 6144.7 5414.1 5707.8 4977.2 5647.8 4917.2 5707.8 4977.2" fill="#e64040"/>
<path transform="matrix(.1,0,0,-.1,0,792)" stroke-width="12" stroke-linecap="butt" stroke-miterlimit="10" stroke-linejoin="miter" fill="none" stroke="#000000" d="M5707.8 4359.3 5989.2 4242.8 6067.6 4210.3 5989.2 4242.8 6270.6 4359.3V4579.2H6668.6 6753.5 6668.6L6387.2 4860.7 6542.7 5016.2 6426.1 5297.6 6393.7 5376 6426.1 5297.6 6144.7 5414.1 5707.8 4977.2 5647.8 4917.2 5707.8 4977.2Z"/>
<path transform="matrix(.1,0,0,-.1,0,792)" d="M242.199 4977.2V5062.1 4977.2L-194.699 5414.1-476.102 5297.6-554.5 5265.1-476.102 5297.6-592.699 5016.2-437.199 4860.7-718.602 4579.2-778.602 4519.2-718.602 4579.2H-320.602V4359.3L-39.1992 4242.8 39.1992 4210.3-39.1992 4242.8 242.199 4359.3" fill="#e64040"/>
<path transform="matrix(.1,0,0,-.1,0,792)" stroke-width="12" stroke-linecap="butt" stroke-miterlimit="10" stroke-linejoin="miter" fill="none" stroke="#000000" d="M242.199 4977.2V5062.1 4977.2L-194.699 5414.1-476.102 5297.6-554.5 5265.1-476.102 5297.6-592.699 5016.2-437.199 4860.7-718.602 4579.2-778.602 4519.2-718.602 4579.2H-320.602V4359.3L-39.1992 4242.8 39.1992 4210.3-39.1992 4242.8 242.199 4359.3Z"/>
<path transform="matrix(.1,0,0,-.1,0,792)" d="M242.199 3996.3-39.1992 4112.9-117.602 4145.3-39.1992 4112.9-320.602 3996.3V3776.4H-718.602-803.5-718.602L-437.199 3495-592.699 3339.5-476.102 3058-443.699 2979.7-476.102 3058-194.699 2941.5 242.199 3378.4 302.199 3438.4 242.199 3378.4" fill="#e64040"/>
<path transform="matrix(.1,0,0,-.1,0,792)" stroke-width="12" stroke-linecap="butt" stroke-miterlimit="10" stroke-linejoin="miter" fill="none" stroke="#000000" d="M242.199 3996.3-39.1992 4112.9-117.602 4145.3-39.1992 4112.9-320.602 3996.3V3776.4H-718.602-803.5-718.602L-437.199 3495-592.699 3339.5-476.102 3058-443.699 2979.7-476.102 3058-194.699 2941.5 242.199 3378.4 302.199 3438.4 242.199 3378.4Z"/>
<path transform="matrix(.1,0,0,-.1,0,792)" d="M5707.8 8041.1V7956.3 8041.1L6144.7 7604.2 6426.1 7720.8 6504.5 7753.3 6426.1 7720.8 6542.7 8002.2 6387.2 8157.7 6668.6 8439.1 6728.6 8499.1 6668.6 8439.1H6270.6V8659L5989.2 8775.6 5910.8 8808.1 5989.2 8775.6 5707.8 8659" fill="#e64040"/>
<path transform="matrix(.1,0,0,-.1,0,792)" stroke-width="12" stroke-linecap="butt" stroke-miterlimit="10" stroke-linejoin="miter" fill="none" stroke="#000000" d="M5707.8 8041.1V7956.3 8041.1L6144.7 7604.2 6426.1 7720.8 6504.5 7753.3 6426.1 7720.8 6542.7 8002.2 6387.2 8157.7 6668.6 8439.1 6728.6 8499.1 6668.6 8439.1H6270.6V8659L5989.2 8775.6 5910.8 8808.1 5989.2 8775.6 5707.8 8659Z"/>
<path transform="matrix(.1,0,0,-.1,0,792)" d="M242.199 8041.1 302.199 8101.1 242.199 8041.1V8659L-39.1992 8775.6-117.602 8808.1-39.1992 8775.6-320.602 8659V8439.1H-718.602-803.5-718.602L-437.199 8157.7-592.699 8002.2-476.102 7720.8-443.699 7642.4-476.102 7720.8-194.699 7604.2" fill="#e64040"/>
<path transform="matrix(.1,0,0,-.1,0,792)" stroke-width="12" stroke-linecap="butt" stroke-miterlimit="10" stroke-linejoin="miter" fill="none" stroke="#000000" d="M242.199 8041.1 302.199 8101.1 242.199 8041.1V8659L-39.1992 8775.6-117.602 8808.1-39.1992 8775.6-320.602 8659V8439.1H-718.602-803.5-718.602L-437.199 8157.7-592.699 8002.2-476.102 7720.8-443.699 7642.4-476.102 7720.8-194.699 7604.2Z"/>
<path transform="matrix(.1,0,0,-.1,0,792)" d="M362.199 194.5V279.301-383.602L117.602-484.898 39.1992-452.5 117.602-484.898 362.199-586.301V-1164.3L302.199-1224.3 362.199-1164.3 643.602-882.898 925.102-1164.3V-1249.2-1164.3-586.301L1169.7-484.898 1248.1-517.398 1169.7-484.898 925.102-383.602V194.5L985.102 254.5 925.102 194.5 643.602-86.8984" fill="#004080"/>
<path transform="matrix(.1,0,0,-.1,0,792)" stroke-width="12" stroke-linecap="butt" stroke-miterlimit="10" stroke-linejoin="miter" fill="none" stroke="#000000" d="M362.199 194.5V279.301-383.602L117.602-484.898 39.1992-452.5 117.602-484.898 362.199-586.301V-1164.3L302.199-1224.3 362.199-1164.3 643.602-882.898 925.102-1164.3V-1249.2-1164.3-586.301L1169.7-484.898 1248.1-517.398 1169.7-484.898 925.102-383.602V194.5L985.102 254.5 925.102 194.5 643.602-86.8984Z"/>
<path transform="matrix(.1,0,0,-.1,0,792)" d="M242.199 314.5V399.301 314.5L-194.699 751.398-476.102 634.801-554.5 602.398-476.102 634.801-592.699 353.398-437.199 197.898-718.602-83.5-778.602-143.5-718.602-83.5H-320.602V-303.398L-39.1992-420 39.1992-452.5-39.1992-420 242.199-303.398" fill="#e64040"/>
<path transform="matrix(.1,0,0,-.1,0,792)" stroke-width="12" stroke-linecap="butt" stroke-miterlimit="10" stroke-linejoin="miter" fill="none" stroke="#000000" d="M242.199 314.5V399.301 314.5L-194.699 751.398-476.102 634.801-554.5 602.398-476.102 634.801-592.699 353.398-437.199 197.898-718.602-83.5-778.602-143.5-718.602-83.5H-320.602V-303.398L-39.1992-420 39.1992-452.5-39.1992-420 242.199-303.398Z"/>
<path transform="matrix(.1,0,0,-.1,0,792)" d="M2693.6 194.5 2633.6 254.5 2693.6 194.5V-143.5-83.5H2808.7L2890.1-2.10156 2932.6 40.3008 2890.1-2.10156" fill="#e64040"/>
<path transform="matrix(.1,0,0,-.1,0,792)" stroke-width="12" stroke-linecap="butt" stroke-miterlimit="10" stroke-linejoin="miter" fill="none" stroke="#000000" d="M2693.6 194.5 2633.6 254.5 2693.6 194.5V-143.5-83.5H2808.7L2890.1-2.10156 2932.6 40.3008 2890.1-2.10156Z"/>
<path transform="matrix(.1,0,0,-.1,0,792)" d="M3256.4 194.5V279.301 194.5L3059.9-2.10156 3017.4-44.5 3059.9-2.10156 3141.3-83.5H3256.4 3316.4 3256.4" fill="#e64040"/>
<path transform="matrix(.1,0,0,-.1,0,792)" stroke-width="12" stroke-linecap="butt" stroke-miterlimit="10" stroke-linejoin="miter" fill="none" stroke="#000000" d="M3256.4 194.5V279.301 194.5L3059.9-2.10156 3017.4-44.5 3059.9-2.10156 3141.3-83.5H3256.4 3316.4 3256.4Z"/>
<path transform="matrix(.1,0,0,-.1,0,792)" d="M5024.9 194.5V279.301-383.602L4780.3-484.898 4701.9-452.5 4780.3-484.898 5024.9-586.301V-1164.3L4964.9-1224.3 5024.9-1164.3 5306.4-882.898 5587.8-1164.3V-1249.2-1164.3-586.301L5832.4-484.898 5910.8-517.398 5832.4-484.898 5587.8-383.602V194.5L5647.8 254.5 5587.8 194.5 5306.4-86.8984" fill="#004080"/>
<path transform="matrix(.1,0,0,-.1,0,792)" stroke-width="12" stroke-linecap="butt" stroke-miterlimit="10" stroke-linejoin="miter" fill="none" stroke="#000000" d="M5024.9 194.5V279.301-383.602L4780.3-484.898 4701.9-452.5 4780.3-484.898 5024.9-586.301V-1164.3L4964.9-1224.3 5024.9-1164.3 5306.4-882.898 5587.8-1164.3V-1249.2-1164.3-586.301L5832.4-484.898 5910.8-517.398 5832.4-484.898 5587.8-383.602V194.5L5647.8 254.5 5587.8 194.5 5306.4-86.8984Z"/>
<path transform="matrix(.1,0,0,-.1,0,792)" d="M5707.8 314.5 5647.8 254.5 5707.8 314.5V-303.398L5989.2-420 6067.6-452.5 5989.2-420 6270.6-303.398V-83.5H6668.6 6753.5 6668.6L6387.2 197.898 6542.7 353.398 6426.1 634.801 6393.7 713.199 6426.1 634.801 6144.7 751.398" fill="#e64040"/>
<path transform="matrix(.1,0,0,-.1,0,792)" stroke-width="12" stroke-linecap="butt" stroke-miterlimit="10" stroke-linejoin="miter" fill="none" stroke="#000000" d="M5707.8 314.5 5647.8 254.5 5707.8 314.5V-303.398L5989.2-420 6067.6-452.5 5989.2-420 6270.6-303.398V-83.5H6668.6 6753.5 6668.6L6387.2 197.898 6542.7 353.398 6426.1 634.801 6393.7 713.199 6426.1 634.801 6144.7 751.398Z"/>
<path transform="matrix(.1,0,0,-.1,0,792)" d="M5874.1 1846.4 5831.6 1804 5874.1 1846.4 6155.5 1565H6788.6 6873.5 6788.6L7070 1846.4 6788.6 2127.9 6728.6 2187.9 6788.6 2127.9H6155.5"/>
<path transform="matrix(.1,0,0,-.1,0,792)" stroke-width="12" stroke-linecap="butt" stroke-miterlimit="10" stroke-linejoin="miter" fill="none" stroke="#000000" d="M5874.1 1846.4 5831.6 1804 5874.1 1846.4 6155.5 1565H6788.6 6873.5 6788.6L7070 1846.4 6788.6 2127.9 6728.6 2187.9 6788.6 2127.9H6155.5Z"/>
<path transform="matrix(.1,0,0,-.1,0,792)" d="M5874.1 6509.2 5831.6 6466.8 5874.1 6509.2 6155.5 6227.8H6788.6 6873.5 6788.6L7070 6509.2 6788.6 6790.6 6728.6 6850.6 6788.6 6790.6H6155.5"/>
<path transform="matrix(.1,0,0,-.1,0,792)" stroke-width="12" stroke-linecap="butt" stroke-miterlimit="10" stroke-linejoin="miter" fill="none" stroke="#000000" d="M5874.1 6509.2 5831.6 6466.8 5874.1 6509.2 6155.5 6227.8H6788.6 6873.5 6788.6L7070 6509.2 6788.6 6790.6 6728.6 6850.6 6788.6 6790.6H6155.5Z"/>
<path transform="matrix(.1,0,0,-.1,0,792)" d="M75.8984 6509.2 118.398 6551.6 75.8984 6509.2-205.5 6790.6H-838.602-923.5-838.602L-1120 6509.2-838.602 6227.8-778.602 6167.8-838.602 6227.8H-205.5"/>
<path transform="matrix(.1,0,0,-.1,0,792)" stroke-width="12" stroke-linecap="butt" stroke-miterlimit="10" stroke-linejoin="miter" fill="none" stroke="#000000" d="M75.8984 6509.2 118.398 6551.6 75.8984 6509.2-205.5 6790.6H-838.602-923.5-838.602L-1120 6509.2-838.602 6227.8-778.602 6167.8-838.602 6227.8H-205.5Z"/>
<path transform="matrix(.1,0,0,-.1,0,792)" d="M75.8984 1846.4 118.398 1888.9 75.8984 1846.4-205.5 2127.9H-838.602-923.5-838.602L-1120 1846.4-838.602 1565-778.602 1505-838.602 1565H-205.5"/>
<path transform="matrix(.1,0,0,-.1,0,792)" stroke-width="12" stroke-linecap="butt" stroke-miterlimit="10" stroke-linejoin="miter" fill="none" stroke="#000000" d="M75.8984 1846.4 118.398 1888.9 75.8984 1846.4-205.5 2127.9H-838.602-923.5-838.602L-1120 1846.4-838.602 1565-778.602 1505-838.602 1565H-205.5Z"/>
<path transform="matrix(.1,0,0,-.1,0,792)" d="M6146 4177.8 6067.6 4210.3 6146 4177.8 6390.6 4076.5V3896.4H6788.6L6728.6 3836.4 6788.6 3896.4 7070 4177.8 7112.5 4135.4 7070 4177.8 6788.6 4459.2H6873.5 6788.6 6390.6V4279.1"/>
<path transform="matrix(.1,0,0,-.1,0,792)" stroke-width="12" stroke-linecap="butt" stroke-miterlimit="10" stroke-linejoin="miter" fill="none" stroke="#000000" d="M6146 4177.8 6067.6 4210.3 6146 4177.8 6390.6 4076.5V3896.4H6788.6L6728.6 3836.4 6788.6 3896.4 7070 4177.8 7112.5 4135.4 7070 4177.8 6788.6 4459.2H6873.5 6788.6 6390.6V4279.1Z"/>
</svg>
