<svg xmlns="http://www.w3.org/2000/svg" xmlns:xlink="http://www.w3.org/1999/xlink" xmlns:inkscape="http://www.inkscape.org/namespaces/inkscape" version="1.1" width="612" height="792" viewBox="0 0 612 792">
<path transform="matrix(.1,0,0,-.1,0,792)" d="M2975 3695 3116.4 3836.4H3316.4V4036.4L3457.8 4177.8 3316.4 4319.2V4519.2H3116.4L2975 4660.7 2833.6 4519.2H2633.6V4319.2L2492.2 4177.8 2633.6 4036.4V3836.4H2833.6" fill="#ffffff"/>
<path transform="matrix(.1,0,0,-.1,0,792)" stroke-width="1" stroke-linecap="butt" stroke-miterlimit="10" stroke-linejoin="miter" fill="none" stroke="#000000" d="M2975 3695 3116.4 3836.4H3316.4V4036.4L3457.8 4177.8 3316.4 4319.2V4519.2H3116.4L2975 4660.7 2833.6 4519.2H2633.6V4319.2L2492.2 4177.8 2633.6 4036.4V3836.4H2833.6Z"/>
<path transform="matrix(.1,0,0,-.1,0,792)" d="M3116.4 4519.2H3316.4V5002.1L2975 4660.7Z"/>
<path transform="matrix(.1,0,0,-.1,0,792)" stroke-width="1" stroke-linecap="butt" stroke-miterlimit="10" stroke-linejoin="miter" fill="none" stroke="#000000" d="M3116.4 4519.2H3316.4V5002.1L2975 4660.7Z"/>
<path transform="matrix(.1,0,0,-.1,0,792)" d="M2833.6 4519.2 2975 4660.7 2633.6 5002.1V4519.2Z"/>
<path transform="matrix(.1,0,0,-.1,0,792)" stroke-width="1" stroke-linecap="butt" stroke-miterlimit="10" stroke-linejoin="miter" fill="none" stroke="#000000" d="M2833.6 4519.2 2975 4660.7 2633.6 5002.1V4519.2Z"/>
<path transform="matrix(.1,0,0,-.1,0,792)" d="M2833.6 3836.4H2633.6V3353.5L2975 3695Z"/>
<path transform="matrix(.1,0,0,-.1,0,792)" stroke-width="1" stroke-linecap="butt" stroke-miterlimit="10" stroke-linejoin="miter" fill="none" stroke="#000000" d="M2833.6 3836.4H2633.6V3353.5L2975 3695Z"/>
<path transform="matrix(.1,0,0,-.1,0,792)" d="M3116.4 3836.4 2975 3695 3316.4 3353.5V3836.4Z"/>
<path transform="matrix(.1,0,0,-.1,0,792)" stroke-width="1" stroke-linecap="butt" stroke-miterlimit="10" stroke-linejoin="miter" fill="none" stroke="#000000" d="M3116.4 3836.4 2975 3695 3316.4 3353.5V3836.4Z"/>
<path transform="matrix(.1,0,0,-.1,0,792)" d="M2975 4660.7 3316.4 5002.1V5684.9L2975 6026.3 2633.6 5684.9V5002.1" fill="#ffffff"/>
<path transform="matrix(.1,0,0,-.1,0,792)" stroke-width="1" stroke-linecap="butt" stroke-miterlimit="10" stroke-linejoin="miter" fill="none" stroke="#000000" d="M2975 4660.7 3316.4 5002.1V5684.9L2975 6026.3 2633.6 5684.9V5002.1Z"/>
<path transform="matrix(.1,0,0,-.1,0,792)" d="M3316.4 4519.2H3799.3L4282.1 5002.1V5484.9H3799.3L3316.4 5002.1" fill="#ffffff"/>
<path transform="matrix(.1,0,0,-.1,0,792)" stroke-width="1" stroke-linecap="butt" stroke-miterlimit="10" stroke-linejoin="miter" fill="none" stroke="#000000" d="M3316.4 4519.2H3799.3L4282.1 5002.1V5484.9H3799.3L3316.4 5002.1Z"/>
<path transform="matrix(.1,0,0,-.1,0,792)" d="M3316.4 4319.2 3457.8 4177.8 3799.3 4519.2H3316.4Z"/>
<path transform="matrix(.1,0,0,-.1,0,792)" stroke-width="1" stroke-linecap="butt" stroke-miterlimit="10" stroke-linejoin="miter" fill="none" stroke="#000000" d="M3316.4 4319.2 3457.8 4177.8 3799.3 4519.2H3316.4Z"/>
<path transform="matrix(.1,0,0,-.1,0,792)" d="M3316.4 4036.4V3836.4H3799.3L3457.8 4177.8Z"/>
<path transform="matrix(.1,0,0,-.1,0,792)" stroke-width="1" stroke-linecap="butt" stroke-miterlimit="10" stroke-linejoin="miter" fill="none" stroke="#000000" d="M3316.4 4036.4V3836.4H3799.3L3457.8 4177.8Z"/>
<path transform="matrix(.1,0,0,-.1,0,792)" d="M3316.4 3836.4V3353.5L3799.3 2870.7H4282.1V3353.5L3799.3 3836.4" fill="#ffffff"/>
<path transform="matrix(.1,0,0,-.1,0,792)" stroke-width="1" stroke-linecap="butt" stroke-miterlimit="10" stroke-linejoin="miter" fill="none" stroke="#000000" d="M3316.4 3836.4V3353.5L3799.3 2870.7H4282.1V3353.5L3799.3 3836.4Z"/>
<path transform="matrix(.1,0,0,-.1,0,792)" d="M2633.6 4519.2H2150.7L2492.2 4177.8 2633.6 4319.2Z"/>
<path transform="matrix(.1,0,0,-.1,0,792)" stroke-width="1" stroke-linecap="butt" stroke-miterlimit="10" stroke-linejoin="miter" fill="none" stroke="#000000" d="M2633.6 4519.2H2150.7L2492.2 4177.8 2633.6 4319.2Z"/>
<path transform="matrix(.1,0,0,-.1,0,792)" d="M2633.6 4519.2V5002.1L2150.7 5484.9H1667.9V5002.1L2150.7 4519.2" fill="#ffffff"/>
<path transform="matrix(.1,0,0,-.1,0,792)" stroke-width="1" stroke-linecap="butt" stroke-miterlimit="10" stroke-linejoin="miter" fill="none" stroke="#000000" d="M2633.6 4519.2V5002.1L2150.7 5484.9H1667.9V5002.1L2150.7 4519.2Z"/>
<path transform="matrix(.1,0,0,-.1,0,792)" d="M2633.6 4036.4 2492.2 4177.8 2150.7 3836.4H2633.6Z"/>
<path transform="matrix(.1,0,0,-.1,0,792)" stroke-width="1" stroke-linecap="butt" stroke-miterlimit="10" stroke-linejoin="miter" fill="none" stroke="#000000" d="M2633.6 4036.4 2492.2 4177.8 2150.7 3836.4H2633.6Z"/>
<path transform="matrix(.1,0,0,-.1,0,792)" d="M2633.6 3836.4H2150.7L1667.9 3353.5V2870.7H2150.7L2633.6 3353.5" fill="#ffffff"/>
<path transform="matrix(.1,0,0,-.1,0,792)" stroke-width="1" stroke-linecap="butt" stroke-miterlimit="10" stroke-linejoin="miter" fill="none" stroke="#000000" d="M2633.6 3836.4H2150.7L1667.9 3353.5V2870.7H2150.7L2633.6 3353.5Z"/>
<path transform="matrix(.1,0,0,-.1,0,792)" d="M2975 3695 2633.6 3353.5V2670.7L2975 2329.3 3316.4 2670.7V3353.5" fill="#ffffff"/>
<path transform="matrix(.1,0,0,-.1,0,792)" stroke-width="1" stroke-linecap="butt" stroke-miterlimit="10" stroke-linejoin="miter" fill="none" stroke="#000000" d="M2975 3695 2633.6 3353.5V2670.7L2975 2329.3 3316.4 2670.7V3353.5Z"/>
<path transform="matrix(.1,0,0,-.1,0,792)" d="M3457.8 4177.8 3799.3 3836.4H4482.1L4823.5 4177.8 4482.1 4519.2H3799.3" fill="#ffffff"/>
<path transform="matrix(.1,0,0,-.1,0,792)" stroke-width="1" stroke-linecap="butt" stroke-miterlimit="10" stroke-linejoin="miter" fill="none" stroke="#000000" d="M3457.8 4177.8 3799.3 3836.4H4482.1L4823.5 4177.8 4482.1 4519.2H3799.3Z"/>
<path transform="matrix(.1,0,0,-.1,0,792)" d="M2492.2 4177.8 2150.7 4519.2H1467.9L1126.5 4177.8 1467.9 3836.4H2150.7" fill="#ffffff"/>
<path transform="matrix(.1,0,0,-.1,0,792)" stroke-width="1" stroke-linecap="butt" stroke-miterlimit="10" stroke-linejoin="miter" fill="none" stroke="#000000" d="M2492.2 4177.8 2150.7 4519.2H1467.9L1126.5 4177.8 1467.9 3836.4H2150.7Z"/>
<path transform="matrix(.1,0,0,-.1,0,792)" d="M3316.4 5002.1 3799.3 5484.9H4282.1V5684.9L3799.3 6167.8H3116.4L2975 6026.3 3316.4 5684.9"/>
<path transform="matrix(.1,0,0,-.1,0,792)" stroke-width="1" stroke-linecap="butt" stroke-miterlimit="10" stroke-linejoin="miter" fill="none" stroke="#000000" d="M3316.4 5002.1 3799.3 5484.9H4282.1V5684.9L3799.3 6167.8H3116.4L2975 6026.3 3316.4 5684.9Z"/>
<path transform="matrix(.1,0,0,-.1,0,792)" d="M2633.6 5002.1V5684.9L2975 6026.3 2833.6 6167.8H2150.7L1667.9 5684.9V5484.9H2150.7"/>
<path transform="matrix(.1,0,0,-.1,0,792)" stroke-width="1" stroke-linecap="butt" stroke-miterlimit="10" stroke-linejoin="miter" fill="none" stroke="#000000" d="M2633.6 5002.1V5684.9L2975 6026.3 2833.6 6167.8H2150.7L1667.9 5684.9V5484.9H2150.7Z"/>
<path transform="matrix(.1,0,0,-.1,0,792)" d="M2633.6 3353.5 2150.7 2870.7H1667.9V2670.7L2150.7 2187.9H2833.6L2975 2329.3 2633.6 2670.7"/>
<path transform="matrix(.1,0,0,-.1,0,792)" stroke-width="1" stroke-linecap="butt" stroke-miterlimit="10" stroke-linejoin="miter" fill="none" stroke="#000000" d="M2633.6 3353.5 2150.7 2870.7H1667.9V2670.7L2150.7 2187.9H2833.6L2975 2329.3 2633.6 2670.7Z"/>
<path transform="matrix(.1,0,0,-.1,0,792)" d="M3316.4 3353.5V2670.7L2975 2329.3 3116.4 2187.9H3799.3L4282.1 2670.7V2870.7H3799.3"/>
<path transform="matrix(.1,0,0,-.1,0,792)" stroke-width="1" stroke-linecap="butt" stroke-miterlimit="10" stroke-linejoin="miter" fill="none" stroke="#000000" d="M3316.4 3353.5V2670.7L2975 2329.3 3116.4 2187.9H3799.3L4282.1 2670.7V2870.7H3799.3Z"/>
<path transform="matrix(.1,0,0,-.1,0,792)" d="M3799.3 3836.4 4282.1 3353.5V2870.7H4482.1L4964.9 3353.5V4036.4L4823.5 4177.8 4482.1 3836.4"/>
<path transform="matrix(.1,0,0,-.1,0,792)" stroke-width="1" stroke-linecap="butt" stroke-miterlimit="10" stroke-linejoin="miter" fill="none" stroke="#000000" d="M3799.3 3836.4 4282.1 3353.5V2870.7H4482.1L4964.9 3353.5V4036.4L4823.5 4177.8 4482.1 3836.4Z"/>
<path transform="matrix(.1,0,0,-.1,0,792)" d="M3799.3 4519.2H4482.1L4823.5 4177.8 4964.9 4319.2V5002.1L4482.1 5484.9H4282.1V5002.1"/>
<path transform="matrix(.1,0,0,-.1,0,792)" stroke-width="1" stroke-linecap="butt" stroke-miterlimit="10" stroke-linejoin="miter" fill="none" stroke="#000000" d="M3799.3 4519.2H4482.1L4823.5 4177.8 4964.9 4319.2V5002.1L4482.1 5484.9H4282.1V5002.1Z"/>
<path transform="matrix(.1,0,0,-.1,0,792)" d="M2150.7 4519.2 1667.9 5002.1V5484.9H1467.9L985.102 5002.1V4319.2L1126.5 4177.8 1467.9 4519.2"/>
<path transform="matrix(.1,0,0,-.1,0,792)" stroke-width="1" stroke-linecap="butt" stroke-miterlimit="10" stroke-linejoin="miter" fill="none" stroke="#000000" d="M2150.7 4519.2 1667.9 5002.1V5484.9H1467.9L985.102 5002.1V4319.2L1126.5 4177.8 1467.9 4519.2Z"/>
<path transform="matrix(.1,0,0,-.1,0,792)" d="M2150.7 3836.4H1467.9L1126.5 4177.8 985.102 4036.4V3353.5L1467.9 2870.7H1667.9V3353.5"/>
<path transform="matrix(.1,0,0,-.1,0,792)" stroke-width="1" stroke-linecap="butt" stroke-miterlimit="10" stroke-linejoin="miter" fill="none" stroke="#000000" d="M2150.7 3836.4H1467.9L1126.5 4177.8 985.102 4036.4V3353.5L1467.9 2870.7H1667.9V3353.5Z"/>
<path transform="matrix(.1,0,0,-.1,0,792)" d="M1667.9 2870.7H1467.9L985.102 3353.5V2670.7L643.602 2329.3 785.102 2187.9H985.102V1987.9L1126.5 1846.4 1467.9 2187.9H2150.7L1667.9 2670.7" fill="#ffffff"/>
<path transform="matrix(.1,0,0,-.1,0,792)" stroke-width="1" stroke-linecap="butt" stroke-miterlimit="10" stroke-linejoin="miter" fill="none" stroke="#000000" d="M1667.9 2870.7H1467.9L985.102 3353.5V2670.7L643.602 2329.3 785.102 2187.9H985.102V1987.9L1126.5 1846.4 1467.9 2187.9H2150.7L1667.9 2670.7Z"/>
<path transform="matrix(.1,0,0,-.1,0,792)" d="M4282.1 2670.7 3799.3 2187.9H4482.1L4823.5 1846.4 4964.9 1987.9V2187.9H5164.9L5306.4 2329.3 4964.9 2670.7V3353.5L4482.1 2870.7H4282.1" fill="#ffffff"/>
<path transform="matrix(.1,0,0,-.1,0,792)" stroke-width="1" stroke-linecap="butt" stroke-miterlimit="10" stroke-linejoin="miter" fill="none" stroke="#000000" d="M4282.1 2670.7 3799.3 2187.9H4482.1L4823.5 1846.4 4964.9 1987.9V2187.9H5164.9L5306.4 2329.3 4964.9 2670.7V3353.5L4482.1 2870.7H4282.1Z"/>
<path transform="matrix(.1,0,0,-.1,0,792)" d="M4282.1 5484.9H4482.1L4964.9 5002.1V5684.9L5306.4 6026.3 5164.9 6167.8H4964.9V6367.8L4823.5 6509.2 4482.1 6167.8H3799.3L4282.1 5684.9" fill="#ffffff"/>
<path transform="matrix(.1,0,0,-.1,0,792)" stroke-width="1" stroke-linecap="butt" stroke-miterlimit="10" stroke-linejoin="miter" fill="none" stroke="#000000" d="M4282.1 5484.9H4482.1L4964.9 5002.1V5684.9L5306.4 6026.3 5164.9 6167.8H4964.9V6367.8L4823.5 6509.2 4482.1 6167.8H3799.3L4282.1 5684.9Z"/>
<path transform="matrix(.1,0,0,-.1,0,792)" d="M1667.9 5684.9 2150.7 6167.8H1467.9L1126.5 6509.2 985.102 6367.8V6167.8H785.102L643.602 6026.3 985.102 5684.9V5002.1L1467.9 5484.9H1667.9" fill="#ffffff"/>
<path transform="matrix(.1,0,0,-.1,0,792)" stroke-width="1" stroke-linecap="butt" stroke-miterlimit="10" stroke-linejoin="miter" fill="none" stroke="#000000" d="M1667.9 5684.9 2150.7 6167.8H1467.9L1126.5 6509.2 985.102 6367.8V6167.8H785.102L643.602 6026.3 985.102 5684.9V5002.1L1467.9 5484.9H1667.9Z"/>
<path transform="matrix(.1,0,0,-.1,0,792)" d="M2975 6026.3 3116.4 6167.8H3799.3L3457.8 6509.2 3799.3 6850.6H3116.4L2975 6992 2833.6 6850.6H2150.7L2492.2 6509.2 2150.7 6167.8H2833.6" fill="#ffffff"/>
<path transform="matrix(.1,0,0,-.1,0,792)" stroke-width="1" stroke-linecap="butt" stroke-miterlimit="10" stroke-linejoin="miter" fill="none" stroke="#000000" d="M2975 6026.3 3116.4 6167.8H3799.3L3457.8 6509.2 3799.3 6850.6H3116.4L2975 6992 2833.6 6850.6H2150.7L2492.2 6509.2 2150.7 6167.8H2833.6Z"/>
<path transform="matrix(.1,0,0,-.1,0,792)" d="M2975 2329.3 2833.6 2187.9H2150.7L2492.2 1846.4 2150.7 1505H2833.6L2975 1363.6 3116.4 1505H3799.3L3457.8 1846.4 3799.3 2187.9H3116.4" fill="#ffffff"/>
<path transform="matrix(.1,0,0,-.1,0,792)" stroke-width="1" stroke-linecap="butt" stroke-miterlimit="10" stroke-linejoin="miter" fill="none" stroke="#000000" d="M2975 2329.3 2833.6 2187.9H2150.7L2492.2 1846.4 2150.7 1505H2833.6L2975 1363.6 3116.4 1505H3799.3L3457.8 1846.4 3799.3 2187.9H3116.4Z"/>
<path transform="matrix(.1,0,0,-.1,0,792)" d="M3799.3 6167.8H4482.1L4823.5 6509.2 4482.1 6850.6H3799.3L3457.8 6509.2"/>
<path transform="matrix(.1,0,0,-.1,0,792)" stroke-width="1" stroke-linecap="butt" stroke-miterlimit="10" stroke-linejoin="miter" fill="none" stroke="#000000" d="M3799.3 6167.8H4482.1L4823.5 6509.2 4482.1 6850.6H3799.3L3457.8 6509.2Z"/>
<path transform="matrix(.1,0,0,-.1,0,792)" d="M2150.7 6167.8 2492.2 6509.2 2150.7 6850.6H1467.9L1126.5 6509.2 1467.9 6167.8"/>
<path transform="matrix(.1,0,0,-.1,0,792)" stroke-width="1" stroke-linecap="butt" stroke-miterlimit="10" stroke-linejoin="miter" fill="none" stroke="#000000" d="M2150.7 6167.8 2492.2 6509.2 2150.7 6850.6H1467.9L1126.5 6509.2 1467.9 6167.8Z"/>
<path transform="matrix(.1,0,0,-.1,0,792)" d="M2150.7 2187.9H1467.9L1126.5 1846.4 1467.9 1505H2150.7L2492.2 1846.4"/>
<path transform="matrix(.1,0,0,-.1,0,792)" stroke-width="1" stroke-linecap="butt" stroke-miterlimit="10" stroke-linejoin="miter" fill="none" stroke="#000000" d="M2150.7 2187.9H1467.9L1126.5 1846.4 1467.9 1505H2150.7L2492.2 1846.4Z"/>
<path transform="matrix(.1,0,0,-.1,0,792)" d="M3799.3 2187.9 3457.8 1846.4 3799.3 1505H4482.1L4823.5 1846.4 4482.1 2187.9"/>
<path transform="matrix(.1,0,0,-.1,0,792)" stroke-width="1" stroke-linecap="butt" stroke-miterlimit="10" stroke-linejoin="miter" fill="none" stroke="#000000" d="M3799.3 2187.9 3457.8 1846.4 3799.3 1505H4482.1L4823.5 1846.4 4482.1 2187.9Z"/>
<path transform="matrix(.1,0,0,-.1,0,792)" d="M4823.5 1846.4 4964.9 1705V1505H5164.9L5306.4 1363.6 5447.8 1505H5647.8V1705L5789.2 1846.4 5647.8 1987.9V2187.9H5447.8L5306.4 2329.3 5164.9 2187.9H4964.9V1987.9"/>
<path transform="matrix(.1,0,0,-.1,0,792)" stroke-width="1" stroke-linecap="butt" stroke-miterlimit="10" stroke-linejoin="miter" fill="none" stroke="#000000" d="M4823.5 1846.4 4964.9 1705V1505H5164.9L5306.4 1363.6 5447.8 1505H5647.8V1705L5789.2 1846.4 5647.8 1987.9V2187.9H5447.8L5306.4 2329.3 5164.9 2187.9H4964.9V1987.9Z"/>
<path transform="matrix(.1,0,0,-.1,0,792)" d="M4823.5 1846.4 4482.1 1505H3799.3L4282.1 1022.2V822.199H4482.1L4964.9 339.301V1022.2L5306.4 1363.6 5164.9 1505H4964.9V1705" fill="#ffffff"/>
<path transform="matrix(.1,0,0,-.1,0,792)" stroke-width="1" stroke-linecap="butt" stroke-miterlimit="10" stroke-linejoin="miter" fill="none" stroke="#000000" d="M4823.5 1846.4 4482.1 1505H3799.3L4282.1 1022.2V822.199H4482.1L4964.9 339.301V1022.2L5306.4 1363.6 5164.9 1505H4964.9V1705Z"/>
<path transform="matrix(.1,0,0,-.1,0,792)" d="M4823.5 4177.8 4964.9 4036.4V3353.5L5306.4 3695 5647.8 3353.5V4036.4L5789.2 4177.8 5647.8 4319.2V5002.1L5306.4 4660.7 4964.9 5002.1V4319.2" fill="#ffffff"/>
<path transform="matrix(.1,0,0,-.1,0,792)" stroke-width="1" stroke-linecap="butt" stroke-miterlimit="10" stroke-linejoin="miter" fill="none" stroke="#000000" d="M4823.5 4177.8 4964.9 4036.4V3353.5L5306.4 3695 5647.8 3353.5V4036.4L5789.2 4177.8 5647.8 4319.2V5002.1L5306.4 4660.7 4964.9 5002.1V4319.2Z"/>
<path transform="matrix(.1,0,0,-.1,0,792)" d="M4823.5 6509.2 4964.9 6650.6V6850.6H5164.9L5306.4 6992 4964.9 7333.4V8016.3L4482.1 7533.4H4282.1V7333.4L3799.3 6850.6H4482.1" fill="#ffffff"/>
<path transform="matrix(.1,0,0,-.1,0,792)" stroke-width="1" stroke-linecap="butt" stroke-miterlimit="10" stroke-linejoin="miter" fill="none" stroke="#000000" d="M4823.5 6509.2 4964.9 6650.6V6850.6H5164.9L5306.4 6992 4964.9 7333.4V8016.3L4482.1 7533.4H4282.1V7333.4L3799.3 6850.6H4482.1Z"/>
<path transform="matrix(.1,0,0,-.1,0,792)" d="M4823.5 6509.2 4964.9 6367.8V6167.8H5164.9L5306.4 6026.3 5447.8 6167.8H5647.8V6367.8L5789.2 6509.2 5647.8 6650.6V6850.6H5447.8L5306.4 6992 5164.9 6850.6H4964.9V6650.6"/>
<path transform="matrix(.1,0,0,-.1,0,792)" stroke-width="1" stroke-linecap="butt" stroke-miterlimit="10" stroke-linejoin="miter" fill="none" stroke="#000000" d="M4823.5 6509.2 4964.9 6367.8V6167.8H5164.9L5306.4 6026.3 5447.8 6167.8H5647.8V6367.8L5789.2 6509.2 5647.8 6650.6V6850.6H5447.8L5306.4 6992 5164.9 6850.6H4964.9V6650.6Z"/>
<path transform="matrix(.1,0,0,-.1,0,792)" d="M1126.5 6509.2 985.102 6650.6V6850.6H785.102L643.602 6992 502.199 6850.6H302.199V6650.6L160.801 6509.2 302.199 6367.8V6167.8H502.199L643.602 6026.3 785.102 6167.8H985.102V6367.8"/>
<path transform="matrix(.1,0,0,-.1,0,792)" stroke-width="1" stroke-linecap="butt" stroke-miterlimit="10" stroke-linejoin="miter" fill="none" stroke="#000000" d="M1126.5 6509.2 985.102 6650.6V6850.6H785.102L643.602 6992 502.199 6850.6H302.199V6650.6L160.801 6509.2 302.199 6367.8V6167.8H502.199L643.602 6026.3 785.102 6167.8H985.102V6367.8Z"/>
<path transform="matrix(.1,0,0,-.1,0,792)" d="M1126.5 6509.2 1467.9 6850.6H2150.7L1667.9 7333.4V7533.4H1467.9L985.102 8016.3V7333.4L643.602 6992 785.102 6850.6H985.102V6650.6" fill="#ffffff"/>
<path transform="matrix(.1,0,0,-.1,0,792)" stroke-width="1" stroke-linecap="butt" stroke-miterlimit="10" stroke-linejoin="miter" fill="none" stroke="#000000" d="M1126.5 6509.2 1467.9 6850.6H2150.7L1667.9 7333.4V7533.4H1467.9L985.102 8016.3V7333.4L643.602 6992 785.102 6850.6H985.102V6650.6Z"/>
<path transform="matrix(.1,0,0,-.1,0,792)" d="M1126.5 4177.8 985.102 4319.2V5002.1L643.602 4660.7 302.199 5002.1V4319.2L160.801 4177.8 302.199 4036.4V3353.5L643.602 3695 985.102 3353.5V4036.4" fill="#ffffff"/>
<path transform="matrix(.1,0,0,-.1,0,792)" stroke-width="1" stroke-linecap="butt" stroke-miterlimit="10" stroke-linejoin="miter" fill="none" stroke="#000000" d="M1126.5 4177.8 985.102 4319.2V5002.1L643.602 4660.7 302.199 5002.1V4319.2L160.801 4177.8 302.199 4036.4V3353.5L643.602 3695 985.102 3353.5V4036.4Z"/>
<path transform="matrix(.1,0,0,-.1,0,792)" d="M1126.5 1846.4 985.102 1705V1505H785.102L643.602 1363.6 985.102 1022.2V339.301L1467.9 822.199H1667.9V1022.2L2150.7 1505H1467.9" fill="#ffffff"/>
<path transform="matrix(.1,0,0,-.1,0,792)" stroke-width="1" stroke-linecap="butt" stroke-miterlimit="10" stroke-linejoin="miter" fill="none" stroke="#000000" d="M1126.5 1846.4 985.102 1705V1505H785.102L643.602 1363.6 985.102 1022.2V339.301L1467.9 822.199H1667.9V1022.2L2150.7 1505H1467.9Z"/>
<path transform="matrix(.1,0,0,-.1,0,792)" d="M1126.5 1846.4 985.102 1987.9V2187.9H785.102L643.602 2329.3 502.199 2187.9H302.199V1987.9L160.801 1846.4 302.199 1705V1505H502.199L643.602 1363.6 785.102 1505H985.102V1705"/>
<path transform="matrix(.1,0,0,-.1,0,792)" stroke-width="1" stroke-linecap="butt" stroke-miterlimit="10" stroke-linejoin="miter" fill="none" stroke="#000000" d="M1126.5 1846.4 985.102 1987.9V2187.9H785.102L643.602 2329.3 502.199 2187.9H302.199V1987.9L160.801 1846.4 302.199 1705V1505H502.199L643.602 1363.6 785.102 1505H985.102V1705Z"/>
<path transform="matrix(.1,0,0,-.1,0,792)" d="M3799.3 6850.6 4282.1 7333.4V7533.4H3799.3L3316.4 8016.3V7333.4L2975 6992 3116.4 6850.6"/>
<path transform="matrix(.1,0,0,-.1,0,792)" stroke-width="1" stroke-linecap="butt" stroke-miterlimit="10" stroke-linejoin="miter" fill="none" stroke="#000000" d="M3799.3 6850.6 4282.1 7333.4V7533.4H3799.3L3316.4 8016.3V7333.4L2975 6992 3116.4 6850.6Z"/>
<path transform="matrix(.1,0,0,-.1,0,792)" d="M2833.6 6850.6 2975 6992 2633.6 7333.4V8016.3L2150.7 7533.4H1667.9V7333.4L2150.7 6850.6"/>
<path transform="matrix(.1,0,0,-.1,0,792)" stroke-width="1" stroke-linecap="butt" stroke-miterlimit="10" stroke-linejoin="miter" fill="none" stroke="#000000" d="M2833.6 6850.6 2975 6992 2633.6 7333.4V8016.3L2150.7 7533.4H1667.9V7333.4L2150.7 6850.6Z"/>
<path transform="matrix(.1,0,0,-.1,0,792)" d="M2150.7 1505 1667.9 1022.2V822.199H2150.7L2633.6 339.301V1022.2L2975 1363.6 2833.6 1505"/>
<path transform="matrix(.1,0,0,-.1,0,792)" stroke-width="1" stroke-linecap="butt" stroke-miterlimit="10" stroke-linejoin="miter" fill="none" stroke="#000000" d="M2150.7 1505 1667.9 1022.2V822.199H2150.7L2633.6 339.301V1022.2L2975 1363.6 2833.6 1505Z"/>
<path transform="matrix(.1,0,0,-.1,0,792)" d="M3116.4 1505 2975 1363.6 3316.4 1022.2V339.301L3799.3 822.199H4282.1V1022.2L3799.3 1505"/>
<path transform="matrix(.1,0,0,-.1,0,792)" stroke-width="1" stroke-linecap="butt" stroke-miterlimit="10" stroke-linejoin="miter" fill="none" stroke="#000000" d="M3116.4 1505 2975 1363.6 3316.4 1022.2V339.301L3799.3 822.199H4282.1V1022.2L3799.3 1505Z"/>
<path transform="matrix(.1,0,0,-.1,0,792)" d="M4964.9 2670.7 5306.4 2329.3 5647.8 2670.7V3353.5L5306.4 3695 4964.9 3353.5"/>
<path transform="matrix(.1,0,0,-.1,0,792)" stroke-width="1" stroke-linecap="butt" stroke-miterlimit="10" stroke-linejoin="miter" fill="none" stroke="#000000" d="M4964.9 2670.7 5306.4 2329.3 5647.8 2670.7V3353.5L5306.4 3695 4964.9 3353.5Z"/>
<path transform="matrix(.1,0,0,-.1,0,792)" d="M4964.9 5002.1 5306.4 4660.7 5647.8 5002.1V5684.9L5306.4 6026.3 4964.9 5684.9"/>
<path transform="matrix(.1,0,0,-.1,0,792)" stroke-width="1" stroke-linecap="butt" stroke-miterlimit="10" stroke-linejoin="miter" fill="none" stroke="#000000" d="M4964.9 5002.1 5306.4 4660.7 5647.8 5002.1V5684.9L5306.4 6026.3 4964.9 5684.9Z"/>
<path transform="matrix(.1,0,0,-.1,0,792)" d="M985.102 5684.9 643.602 6026.3 302.199 5684.9V5002.1L643.602 4660.7 985.102 5002.1"/>
<path transform="matrix(.1,0,0,-.1,0,792)" stroke-width="1" stroke-linecap="butt" stroke-miterlimit="10" stroke-linejoin="miter" fill="none" stroke="#000000" d="M985.102 5684.9 643.602 6026.3 302.199 5684.9V5002.1L643.602 4660.7 985.102 5002.1Z"/>
<path transform="matrix(.1,0,0,-.1,0,792)" d="M985.102 3353.5 643.602 3695 302.199 3353.5V2670.7L643.602 2329.3 985.102 2670.7"/>
<path transform="matrix(.1,0,0,-.1,0,792)" stroke-width="1" stroke-linecap="butt" stroke-miterlimit="10" stroke-linejoin="miter" fill="none" stroke="#000000" d="M985.102 3353.5 643.602 3695 302.199 3353.5V2670.7L643.602 2329.3 985.102 2670.7Z"/>
<path transform="matrix(.1,0,0,-.1,0,792)" d="M2975 6992 3316.4 7333.4V8016.3L2975 8357.7 2633.6 8016.3V7333.4" fill="#ffffff"/>
<path transform="matrix(.1,0,0,-.1,0,792)" stroke-width="1" stroke-linecap="butt" stroke-miterlimit="10" stroke-linejoin="miter" fill="none" stroke="#000000" d="M2975 6992 3316.4 7333.4V8016.3L2975 8357.7 2633.6 8016.3V7333.4Z"/>
<path transform="matrix(.1,0,0,-.1,0,792)" d="M2975 1363.6 2633.6 1022.2V339.301L2975-2.10156 3316.4 339.301V1022.2" fill="#ffffff"/>
<path transform="matrix(.1,0,0,-.1,0,792)" stroke-width="1" stroke-linecap="butt" stroke-miterlimit="10" stroke-linejoin="miter" fill="none" stroke="#000000" d="M2975 1363.6 2633.6 1022.2V339.301L2975-2.10156 3316.4 339.301V1022.2Z"/>
<path transform="matrix(.1,0,0,-.1,0,792)" d="M4964.9 7333.4 5306.4 6992 5647.8 7333.4V8016.3L5306.4 8357.7 4964.9 8016.3"/>
<path transform="matrix(.1,0,0,-.1,0,792)" stroke-width="1" stroke-linecap="butt" stroke-miterlimit="10" stroke-linejoin="miter" fill="none" stroke="#000000" d="M4964.9 7333.4 5306.4 6992 5647.8 7333.4V8016.3L5306.4 8357.7 4964.9 8016.3Z"/>
<path transform="matrix(.1,0,0,-.1,0,792)" d="M985.102 7333.4V8016.3L643.602 8357.7 302.199 8016.3V7333.4L643.602 6992"/>
<path transform="matrix(.1,0,0,-.1,0,792)" stroke-width="1" stroke-linecap="butt" stroke-miterlimit="10" stroke-linejoin="miter" fill="none" stroke="#000000" d="M985.102 7333.4V8016.3L643.602 8357.7 302.199 8016.3V7333.4L643.602 6992Z"/>
<path transform="matrix(.1,0,0,-.1,0,792)" d="M985.102 1022.2 643.602 1363.6 302.199 1022.2V339.301L643.602-2.10156 985.102 339.301"/>
<path transform="matrix(.1,0,0,-.1,0,792)" stroke-width="1" stroke-linecap="butt" stroke-miterlimit="10" stroke-linejoin="miter" fill="none" stroke="#000000" d="M985.102 1022.2 643.602 1363.6 302.199 1022.2V339.301L643.602-2.10156 985.102 339.301Z"/>
<path transform="matrix(.1,0,0,-.1,0,792)" d="M4964.9 1022.2V339.301L5306.4-2.10156 5647.8 339.301V1022.2L5306.4 1363.6"/>
<path transform="matrix(.1,0,0,-.1,0,792)" stroke-width="1" stroke-linecap="butt" stroke-miterlimit="10" stroke-linejoin="miter" fill="none" stroke="#000000" d="M4964.9 1022.2V339.301L5306.4-2.10156 5647.8 339.301V1022.2L5306.4 1363.6Z"/>
<path transform="matrix(.1,0,0,-.1,0,792)" d="M5306.4 1363.6 5647.8 1022.2V339.301L6130.6 822.199H6330.6V1022.2L6813.5 1505H6130.6L5789.2 1846.4 5647.8 1705V1505H5447.8" fill="#ffffff"/>
<path transform="matrix(.1,0,0,-.1,0,792)" stroke-width="1" stroke-linecap="butt" stroke-miterlimit="10" stroke-linejoin="miter" fill="none" stroke="#000000" d="M5306.4 1363.6 5647.8 1022.2V339.301L6130.6 822.199H6330.6V1022.2L6813.5 1505H6130.6L5789.2 1846.4 5647.8 1705V1505H5447.8Z"/>
<path transform="matrix(.1,0,0,-.1,0,792)" d="M5306.4 2329.3 5447.8 2187.9H5647.8V1987.9L5789.2 1846.4 6130.6 2187.9H6813.5L6330.6 2670.7V2870.7H6130.6L5647.8 3353.5V2670.7" fill="#ffffff"/>
<path transform="matrix(.1,0,0,-.1,0,792)" stroke-width="1" stroke-linecap="butt" stroke-miterlimit="10" stroke-linejoin="miter" fill="none" stroke="#000000" d="M5306.4 2329.3 5447.8 2187.9H5647.8V1987.9L5789.2 1846.4 6130.6 2187.9H6813.5L6330.6 2670.7V2870.7H6130.6L5647.8 3353.5V2670.7Z"/>
<path transform="matrix(.1,0,0,-.1,0,792)" d="M5306.4 6026.3 5647.8 5684.9V5002.1L6130.6 5484.9H6330.6V5684.9L6813.5 6167.8H6130.6L5789.2 6509.2 5647.8 6367.8V6167.8H5447.8" fill="#ffffff"/>
<path transform="matrix(.1,0,0,-.1,0,792)" stroke-width="1" stroke-linecap="butt" stroke-miterlimit="10" stroke-linejoin="miter" fill="none" stroke="#000000" d="M5306.4 6026.3 5647.8 5684.9V5002.1L6130.6 5484.9H6330.6V5684.9L6813.5 6167.8H6130.6L5789.2 6509.2 5647.8 6367.8V6167.8H5447.8Z"/>
<path transform="matrix(.1,0,0,-.1,0,792)" d="M5306.4 6992 5447.8 6850.6H5647.8V6650.6L5789.2 6509.2 6130.6 6850.6H6813.5L6330.6 7333.4V7533.4H6130.6L5647.8 8016.3V7333.4" fill="#ffffff"/>
<path transform="matrix(.1,0,0,-.1,0,792)" stroke-width="1" stroke-linecap="butt" stroke-miterlimit="10" stroke-linejoin="miter" fill="none" stroke="#000000" d="M5306.4 6992 5447.8 6850.6H5647.8V6650.6L5789.2 6509.2 6130.6 6850.6H6813.5L6330.6 7333.4V7533.4H6130.6L5647.8 8016.3V7333.4Z"/>
<path transform="matrix(.1,0,0,-.1,0,792)" d="M643.602 6992 302.199 7333.4V8016.3L-180.602 7533.4H-380.602V7333.4L-863.5 6850.6H-180.602L160.801 6509.2 302.199 6650.6V6850.6H502.199" fill="#ffffff"/>
<path transform="matrix(.1,0,0,-.1,0,792)" stroke-width="1" stroke-linecap="butt" stroke-miterlimit="10" stroke-linejoin="miter" fill="none" stroke="#000000" d="M643.602 6992 302.199 7333.4V8016.3L-180.602 7533.4H-380.602V7333.4L-863.5 6850.6H-180.602L160.801 6509.2 302.199 6650.6V6850.6H502.199Z"/>
<path transform="matrix(.1,0,0,-.1,0,792)" d="M643.602 6026.3 502.199 6167.8H302.199V6367.8L160.801 6509.2-180.602 6167.8H-863.5L-380.602 5684.9V5484.9H-180.602L302.199 5002.1V5684.9" fill="#ffffff"/>
<path transform="matrix(.1,0,0,-.1,0,792)" stroke-width="1" stroke-linecap="butt" stroke-miterlimit="10" stroke-linejoin="miter" fill="none" stroke="#000000" d="M643.602 6026.3 502.199 6167.8H302.199V6367.8L160.801 6509.2-180.602 6167.8H-863.5L-380.602 5684.9V5484.9H-180.602L302.199 5002.1V5684.9Z"/>
<path transform="matrix(.1,0,0,-.1,0,792)" d="M643.602 2329.3 302.199 2670.7V3353.5L-180.602 2870.7H-380.602V2670.7L-863.5 2187.9H-180.602L160.801 1846.4 302.199 1987.9V2187.9H502.199" fill="#ffffff"/>
<path transform="matrix(.1,0,0,-.1,0,792)" stroke-width="1" stroke-linecap="butt" stroke-miterlimit="10" stroke-linejoin="miter" fill="none" stroke="#000000" d="M643.602 2329.3 302.199 2670.7V3353.5L-180.602 2870.7H-380.602V2670.7L-863.5 2187.9H-180.602L160.801 1846.4 302.199 1987.9V2187.9H502.199Z"/>
<path transform="matrix(.1,0,0,-.1,0,792)" d="M643.602 1363.6 502.199 1505H302.199V1705L160.801 1846.4-180.602 1505H-863.5L-380.602 1022.2V822.199H-180.602L302.199 339.301V1022.2" fill="#ffffff"/>
<path transform="matrix(.1,0,0,-.1,0,792)" stroke-width="1" stroke-linecap="butt" stroke-miterlimit="10" stroke-linejoin="miter" fill="none" stroke="#000000" d="M643.602 1363.6 502.199 1505H302.199V1705L160.801 1846.4-180.602 1505H-863.5L-380.602 1022.2V822.199H-180.602L302.199 339.301V1022.2Z"/>
<path transform="matrix(.1,0,0,-.1,0,792)" d="M4482.1 7533.4 4964.9 8016.3V8699.1L4823.5 8840.6 4482.1 8499.1H3799.3L4282.1 8016.3V7533.4"/>
<path transform="matrix(.1,0,0,-.1,0,792)" stroke-width="1" stroke-linecap="butt" stroke-miterlimit="10" stroke-linejoin="miter" fill="none" stroke="#000000" d="M4482.1 7533.4 4964.9 8016.3V8699.1L4823.5 8840.6 4482.1 8499.1H3799.3L4282.1 8016.3V7533.4Z"/>
<path transform="matrix(.1,0,0,-.1,0,792)" d="M4282.1 7533.4V8016.3L3799.3 8499.1H3316.4V8016.3L3799.3 7533.4" fill="#ffffff"/>
<path transform="matrix(.1,0,0,-.1,0,792)" stroke-width="1" stroke-linecap="butt" stroke-miterlimit="10" stroke-linejoin="miter" fill="none" stroke="#000000" d="M4282.1 7533.4V8016.3L3799.3 8499.1H3316.4V8016.3L3799.3 7533.4Z"/>
<path transform="matrix(.1,0,0,-.1,0,792)" d="M2150.7 7533.4 2633.6 8016.3V8499.1H2150.7L1667.9 8016.3V7533.4" fill="#ffffff"/>
<path transform="matrix(.1,0,0,-.1,0,792)" stroke-width="1" stroke-linecap="butt" stroke-miterlimit="10" stroke-linejoin="miter" fill="none" stroke="#000000" d="M2150.7 7533.4 2633.6 8016.3V8499.1H2150.7L1667.9 8016.3V7533.4Z"/>
<path transform="matrix(.1,0,0,-.1,0,792)" d="M1667.9 7533.4V8016.3L2150.7 8499.1H1467.9L1126.5 8840.6 985.102 8699.1V8016.3L1467.9 7533.4"/>
<path transform="matrix(.1,0,0,-.1,0,792)" stroke-width="1" stroke-linecap="butt" stroke-miterlimit="10" stroke-linejoin="miter" fill="none" stroke="#000000" d="M1667.9 7533.4V8016.3L2150.7 8499.1H1467.9L1126.5 8840.6 985.102 8699.1V8016.3L1467.9 7533.4Z"/>
<path transform="matrix(.1,0,0,-.1,0,792)" d="M1467.9 822.199 985.102 339.301V-343.5L1126.5-484.898 1467.9-143.5H2150.7L1667.9 339.301V822.199"/>
<path transform="matrix(.1,0,0,-.1,0,792)" stroke-width="1" stroke-linecap="butt" stroke-miterlimit="10" stroke-linejoin="miter" fill="none" stroke="#000000" d="M1467.9 822.199 985.102 339.301V-343.5L1126.5-484.898 1467.9-143.5H2150.7L1667.9 339.301V822.199Z"/>
<path transform="matrix(.1,0,0,-.1,0,792)" d="M1667.9 822.199V339.301L2150.7-143.5H2633.6V339.301L2150.7 822.199" fill="#ffffff"/>
<path transform="matrix(.1,0,0,-.1,0,792)" stroke-width="1" stroke-linecap="butt" stroke-miterlimit="10" stroke-linejoin="miter" fill="none" stroke="#000000" d="M1667.9 822.199V339.301L2150.7-143.5H2633.6V339.301L2150.7 822.199Z"/>
<path transform="matrix(.1,0,0,-.1,0,792)" d="M3799.3 822.199 3316.4 339.301V-143.5H3799.3L4282.1 339.301V822.199" fill="#ffffff"/>
<path transform="matrix(.1,0,0,-.1,0,792)" stroke-width="1" stroke-linecap="butt" stroke-miterlimit="10" stroke-linejoin="miter" fill="none" stroke="#000000" d="M3799.3 822.199 3316.4 339.301V-143.5H3799.3L4282.1 339.301V822.199Z"/>
<path transform="matrix(.1,0,0,-.1,0,792)" d="M4282.1 822.199V339.301L3799.3-143.5H4482.1L4823.5-484.898 4964.9-343.5V339.301L4482.1 822.199"/>
<path transform="matrix(.1,0,0,-.1,0,792)" stroke-width="1" stroke-linecap="butt" stroke-miterlimit="10" stroke-linejoin="miter" fill="none" stroke="#000000" d="M4282.1 822.199V339.301L3799.3-143.5H4482.1L4823.5-484.898 4964.9-343.5V339.301L4482.1 822.199Z"/>
<path transform="matrix(.1,0,0,-.1,0,792)" d="M5647.8 3353.5 6130.6 2870.7H6330.6V3353.5L6813.5 3836.4H6130.6L5789.2 4177.8 5647.8 4036.4"/>
<path transform="matrix(.1,0,0,-.1,0,792)" stroke-width="1" stroke-linecap="butt" stroke-miterlimit="10" stroke-linejoin="miter" fill="none" stroke="#000000" d="M5647.8 3353.5 6130.6 2870.7H6330.6V3353.5L6813.5 3836.4H6130.6L5789.2 4177.8 5647.8 4036.4Z"/>
<path transform="matrix(.1,0,0,-.1,0,792)" d="M5647.8 4319.2 5789.2 4177.8 6130.6 4519.2H6813.5L6330.6 5002.1V5484.9H6130.6L5647.8 5002.1"/>
<path transform="matrix(.1,0,0,-.1,0,792)" stroke-width="1" stroke-linecap="butt" stroke-miterlimit="10" stroke-linejoin="miter" fill="none" stroke="#000000" d="M5647.8 4319.2 5789.2 4177.8 6130.6 4519.2H6813.5L6330.6 5002.1V5484.9H6130.6L5647.8 5002.1Z"/>
<path transform="matrix(.1,0,0,-.1,0,792)" d="M302.199 5002.1-180.602 5484.9H-380.602V5002.1L-863.5 4519.2H-180.602L160.801 4177.8 302.199 4319.2"/>
<path transform="matrix(.1,0,0,-.1,0,792)" stroke-width="1" stroke-linecap="butt" stroke-miterlimit="10" stroke-linejoin="miter" fill="none" stroke="#000000" d="M302.199 5002.1-180.602 5484.9H-380.602V5002.1L-863.5 4519.2H-180.602L160.801 4177.8 302.199 4319.2Z"/>
<path transform="matrix(.1,0,0,-.1,0,792)" d="M302.199 4036.4 160.801 4177.8-180.602 3836.4H-863.5L-380.602 3353.5V2870.7H-180.602L302.199 3353.5"/>
<path transform="matrix(.1,0,0,-.1,0,792)" stroke-width="1" stroke-linecap="butt" stroke-miterlimit="10" stroke-linejoin="miter" fill="none" stroke="#000000" d="M302.199 4036.4 160.801 4177.8-180.602 3836.4H-863.5L-380.602 3353.5V2870.7H-180.602L302.199 3353.5Z"/>
<path transform="matrix(.1,0,0,-.1,0,792)" d="M5647.8 8016.3 6130.6 7533.4H6330.6V8016.3L6813.5 8499.1H6130.6L5789.2 8840.6 5647.8 8699.1"/>
<path transform="matrix(.1,0,0,-.1,0,792)" stroke-width="1" stroke-linecap="butt" stroke-miterlimit="10" stroke-linejoin="miter" fill="none" stroke="#000000" d="M5647.8 8016.3 6130.6 7533.4H6330.6V8016.3L6813.5 8499.1H6130.6L5789.2 8840.6 5647.8 8699.1Z"/>
<path transform="matrix(.1,0,0,-.1,0,792)" d="M302.199 8016.3V8699.1L160.801 8840.6-180.602 8499.1H-863.5L-380.602 8016.3V7533.4H-180.602"/>
<path transform="matrix(.1,0,0,-.1,0,792)" stroke-width="1" stroke-linecap="butt" stroke-miterlimit="10" stroke-linejoin="miter" fill="none" stroke="#000000" d="M302.199 8016.3V8699.1L160.801 8840.6-180.602 8499.1H-863.5L-380.602 8016.3V7533.4H-180.602Z"/>
<path transform="matrix(.1,0,0,-.1,0,792)" d="M302.199 339.301V-343.5L160.801-484.898 302.199-626.398V-1309.2L643.602-967.801 985.102-1309.2V-626.398L1126.5-484.898 985.102-343.5V339.301L643.602-2.10156" fill="#ffffff"/>
<path transform="matrix(.1,0,0,-.1,0,792)" stroke-width="1" stroke-linecap="butt" stroke-miterlimit="10" stroke-linejoin="miter" fill="none" stroke="#000000" d="M302.199 339.301V-343.5L160.801-484.898 302.199-626.398V-1309.2L643.602-967.801 985.102-1309.2V-626.398L1126.5-484.898 985.102-343.5V339.301L643.602-2.10156Z"/>
<path transform="matrix(.1,0,0,-.1,0,792)" d="M302.199 339.301-180.602 822.199H-380.602V339.301L-863.5-143.5H-180.602L160.801-484.898 302.199-343.5"/>
<path transform="matrix(.1,0,0,-.1,0,792)" stroke-width="1" stroke-linecap="butt" stroke-miterlimit="10" stroke-linejoin="miter" fill="none" stroke="#000000" d="M302.199 339.301-180.602 822.199H-380.602V339.301L-863.5-143.5H-180.602L160.801-484.898 302.199-343.5Z"/>
<path transform="matrix(.1,0,0,-.1,0,792)" d="M2633.6 339.301V-143.5H2833.6L2975-2.10156Z"/>
<path transform="matrix(.1,0,0,-.1,0,792)" stroke-width="1" stroke-linecap="butt" stroke-miterlimit="10" stroke-linejoin="miter" fill="none" stroke="#000000" d="M2633.6 339.301V-143.5H2833.6L2975-2.10156Z"/>
<path transform="matrix(.1,0,0,-.1,0,792)" d="M3316.4 339.301 2975-2.10156 3116.4-143.5H3316.4Z"/>
<path transform="matrix(.1,0,0,-.1,0,792)" stroke-width="1" stroke-linecap="butt" stroke-miterlimit="10" stroke-linejoin="miter" fill="none" stroke="#000000" d="M3316.4 339.301 2975-2.10156 3116.4-143.5H3316.4Z"/>
<path transform="matrix(.1,0,0,-.1,0,792)" d="M4964.9 339.301V-343.5L4823.5-484.898 4964.9-626.398V-1309.2L5306.4-967.801 5647.8-1309.2V-626.398L5789.2-484.898 5647.8-343.5V339.301L5306.4-2.10156" fill="#ffffff"/>
<path transform="matrix(.1,0,0,-.1,0,792)" stroke-width="1" stroke-linecap="butt" stroke-miterlimit="10" stroke-linejoin="miter" fill="none" stroke="#000000" d="M4964.9 339.301V-343.5L4823.5-484.898 4964.9-626.398V-1309.2L5306.4-967.801 5647.8-1309.2V-626.398L5789.2-484.898 5647.8-343.5V339.301L5306.4-2.10156Z"/>
<path transform="matrix(.1,0,0,-.1,0,792)" d="M5647.8 339.301V-343.5L5789.2-484.898 6130.6-143.5H6813.5L6330.6 339.301V822.199H6130.6"/>
<path transform="matrix(.1,0,0,-.1,0,792)" stroke-width="1" stroke-linecap="butt" stroke-miterlimit="10" stroke-linejoin="miter" fill="none" stroke="#000000" d="M5647.8 339.301V-343.5L5789.2-484.898 6130.6-143.5H6813.5L6330.6 339.301V822.199H6130.6Z"/>
<path transform="matrix(.1,0,0,-.1,0,792)" d="M5789.2 1846.4 6130.6 1505H6813.5L7154.9 1846.4 6813.5 2187.9H6130.6"/>
<path transform="matrix(.1,0,0,-.1,0,792)" stroke-width="1" stroke-linecap="butt" stroke-miterlimit="10" stroke-linejoin="miter" fill="none" stroke="#000000" d="M5789.2 1846.4 6130.6 1505H6813.5L7154.9 1846.4 6813.5 2187.9H6130.6Z"/>
<path transform="matrix(.1,0,0,-.1,0,792)" d="M5789.2 4177.8 6130.6 3836.4H6813.5L7154.9 4177.8 6813.5 4519.2H6130.6" fill="#ffffff"/>
<path transform="matrix(.1,0,0,-.1,0,792)" stroke-width="1" stroke-linecap="butt" stroke-miterlimit="10" stroke-linejoin="miter" fill="none" stroke="#000000" d="M5789.2 4177.8 6130.6 3836.4H6813.5L7154.9 4177.8 6813.5 4519.2H6130.6Z"/>
<path transform="matrix(.1,0,0,-.1,0,792)" d="M5789.2 6509.2 6130.6 6167.8H6813.5L7154.9 6509.2 6813.5 6850.6H6130.6"/>
<path transform="matrix(.1,0,0,-.1,0,792)" stroke-width="1" stroke-linecap="butt" stroke-miterlimit="10" stroke-linejoin="miter" fill="none" stroke="#000000" d="M5789.2 6509.2 6130.6 6167.8H6813.5L7154.9 6509.2 6813.5 6850.6H6130.6Z"/>
<path transform="matrix(.1,0,0,-.1,0,792)" d="M160.801 6509.2-180.602 6850.6H-863.5L-1204.9 6509.2-863.5 6167.8H-180.602"/>
<path transform="matrix(.1,0,0,-.1,0,792)" stroke-width="1" stroke-linecap="butt" stroke-miterlimit="10" stroke-linejoin="miter" fill="none" stroke="#000000" d="M160.801 6509.2-180.602 6850.6H-863.5L-1204.9 6509.2-863.5 6167.8H-180.602Z"/>
<path transform="matrix(.1,0,0,-.1,0,792)" d="M160.801 4177.8-180.602 4519.2H-863.5L-1204.9 4177.8-863.5 3836.4H-180.602" fill="#ffffff"/>
<path transform="matrix(.1,0,0,-.1,0,792)" stroke-width="1" stroke-linecap="butt" stroke-miterlimit="10" stroke-linejoin="miter" fill="none" stroke="#000000" d="M160.801 4177.8-180.602 4519.2H-863.5L-1204.9 4177.8-863.5 3836.4H-180.602Z"/>
<path transform="matrix(.1,0,0,-.1,0,792)" d="M160.801 1846.4-180.602 2187.9H-863.5L-1204.9 1846.4-863.5 1505H-180.602"/>
<path transform="matrix(.1,0,0,-.1,0,792)" stroke-width="1" stroke-linecap="butt" stroke-miterlimit="10" stroke-linejoin="miter" fill="none" stroke="#000000" d="M160.801 1846.4-180.602 2187.9H-863.5L-1204.9 1846.4-863.5 1505H-180.602Z"/>
<path transform="matrix(.1,0,0,-.1,0,792)" stroke-width="1" stroke-linecap="butt" stroke-miterlimit="10" stroke-linejoin="miter" fill="none" stroke="#000000" d="M2975-2.10156 2833.6-143.5H2633.6V-343.5L2492.2-484.898 2633.6-626.398V-826.398H2833.6L2975-967.801 3116.4-826.398H3316.4V-626.398L3457.8-484.898 3316.4-343.5V-143.5H3116.4Z"/>
</svg>
