<svg xmlns="http://www.w3.org/2000/svg" xmlns:xlink="http://www.w3.org/1999/xlink" xmlns:inkscape="http://www.inkscape.org/namespaces/inkscape" version="1.1" width="612" height="792" viewBox="0 0 612 792">
<path transform="matrix(.1,0,0,-.1,0,792)" d="M2975 2395.7 3207.9 3265.1 3844.3 2628.7 3611.4 3498 4480.7 3265.1 3844.3 3901.5 4713.7 4134.4 3844.3 4367.3 4480.7 5003.7 3611.4 4770.8 3844.3 5640.1 3207.9 5003.7 2975 5873.1 2742.1 5003.7 2105.7 5640.1 2338.6 4770.8 1469.3 5003.7 2105.7 4367.3 1236.3 4134.4 2105.7 3901.5 1469.3 3265.1 2338.6 3498 2105.7 2628.7 2742.1 3265.1" fill="#3b14fd"/>
<path transform="matrix(.1,0,0,-.1,0,792)" stroke-width="20" stroke-linecap="butt" stroke-miterlimit="10" stroke-linejoin="miter" fill="none" stroke="#000000" d="M2975 2395.7 3207.9 3265.1 3844.3 2628.7 3611.4 3498 4480.7 3265.1 3844.3 3901.5 4713.7 4134.4 3844.3 4367.3 4480.7 5003.7 3611.4 4770.8 3844.3 5640.1 3207.9 5003.7 2975 5873.1 2742.1 5003.7 2105.7 5640.1 2338.6 4770.8 1469.3 5003.7 2105.7 4367.3 1236.3 4134.4 2105.7 3901.5 1469.3 3265.1 2338.6 3498 2105.7 2628.7 2742.1 3265.1Z"/>
<path transform="matrix(.1,0,0,-.1,0,792)" d="M3207.9 5003.7 3844.3 5640.1 2975 5873.1" fill="#abc252"/>
<path transform="matrix(.1,0,0,-.1,0,792)" stroke-width="20" stroke-linecap="butt" stroke-miterlimit="10" stroke-linejoin="miter" fill="none" stroke="#000000" d="M3207.9 5003.7 3844.3 5640.1 2975 5873.1Z"/>
<path transform="matrix(.1,0,0,-.1,0,792)" d="M2742.1 5003.7 2975 5873.1 2105.7 5640.1" fill="#ba6e96"/>
<path transform="matrix(.1,0,0,-.1,0,792)" stroke-width="20" stroke-linecap="butt" stroke-miterlimit="10" stroke-linejoin="miter" fill="none" stroke="#000000" d="M2742.1 5003.7 2975 5873.1 2105.7 5640.1Z"/>
<path transform="matrix(.1,0,0,-.1,0,792)" d="M2338.6 4770.8 2105.7 5640.1 1469.3 5003.7" fill="#abc252"/>
<path transform="matrix(.1,0,0,-.1,0,792)" stroke-width="20" stroke-linecap="butt" stroke-miterlimit="10" stroke-linejoin="miter" fill="none" stroke="#000000" d="M2338.6 4770.8 2105.7 5640.1 1469.3 5003.7Z"/>
<path transform="matrix(.1,0,0,-.1,0,792)" d="M2338.6 3498 1469.3 3265.1 2105.7 2628.7" fill="#ba6e96"/>
<path transform="matrix(.1,0,0,-.1,0,792)" stroke-width="20" stroke-linecap="butt" stroke-miterlimit="10" stroke-linejoin="miter" fill="none" stroke="#000000" d="M2338.6 3498 1469.3 3265.1 2105.7 2628.7Z"/>
<path transform="matrix(.1,0,0,-.1,0,792)" d="M3611.4 3498 3844.3 2628.7 4480.7 3265.1" fill="#abc252"/>
<path transform="matrix(.1,0,0,-.1,0,792)" stroke-width="20" stroke-linecap="butt" stroke-miterlimit="10" stroke-linejoin="miter" fill="none" stroke="#000000" d="M3611.4 3498 3844.3 2628.7 4480.7 3265.1Z"/>
<path transform="matrix(.1,0,0,-.1,0,792)" d="M3611.4 4770.8 4480.7 5003.7 3844.3 5640.1" fill="#477ab8"/>
<path transform="matrix(.1,0,0,-.1,0,792)" stroke-width="20" stroke-linecap="butt" stroke-miterlimit="10" stroke-linejoin="miter" fill="none" stroke="#000000" d="M3611.4 4770.8 4480.7 5003.7 3844.3 5640.1Z"/>
<path transform="matrix(.1,0,0,-.1,0,792)" d="M2742.1 3265.1 2105.7 2628.7 2975 2395.7" fill="#abc252"/>
<path transform="matrix(.1,0,0,-.1,0,792)" stroke-width="20" stroke-linecap="butt" stroke-miterlimit="10" stroke-linejoin="miter" fill="none" stroke="#000000" d="M2742.1 3265.1 2105.7 2628.7 2975 2395.7Z"/>
<path transform="matrix(.1,0,0,-.1,0,792)" d="M3207.9 3265.1 2975 2395.7 3844.3 2628.7" fill="#477ab8"/>
<path transform="matrix(.1,0,0,-.1,0,792)" stroke-width="20" stroke-linecap="butt" stroke-miterlimit="10" stroke-linejoin="miter" fill="none" stroke="#000000" d="M3207.9 3265.1 2975 2395.7 3844.3 2628.7Z"/>
<path transform="matrix(.1,0,0,-.1,0,792)" d="M3844.3 3901.5 4480.7 3265.1 4713.7 4134.4" fill="#ba6e96"/>
<path transform="matrix(.1,0,0,-.1,0,792)" stroke-width="20" stroke-linecap="butt" stroke-miterlimit="10" stroke-linejoin="miter" fill="none" stroke="#000000" d="M3844.3 3901.5 4480.7 3265.1 4713.7 4134.4Z"/>
<path transform="matrix(.1,0,0,-.1,0,792)" d="M3844.3 4367.3 4713.7 4134.4 4480.7 5003.7" fill="#abc252"/>
<path transform="matrix(.1,0,0,-.1,0,792)" stroke-width="20" stroke-linecap="butt" stroke-miterlimit="10" stroke-linejoin="miter" fill="none" stroke="#000000" d="M3844.3 4367.3 4713.7 4134.4 4480.7 5003.7Z"/>
<path transform="matrix(.1,0,0,-.1,0,792)" d="M2105.7 4367.3 1469.3 5003.7 1236.3 4134.4" fill="#477ab8"/>
<path transform="matrix(.1,0,0,-.1,0,792)" stroke-width="20" stroke-linecap="butt" stroke-miterlimit="10" stroke-linejoin="miter" fill="none" stroke="#000000" d="M2105.7 4367.3 1469.3 5003.7 1236.3 4134.4Z"/>
<path transform="matrix(.1,0,0,-.1,0,792)" d="M2105.7 3901.5 1236.3 4134.4 1469.3 3265.1" fill="#abc252"/>
<path transform="matrix(.1,0,0,-.1,0,792)" stroke-width="20" stroke-linecap="butt" stroke-miterlimit="10" stroke-linejoin="miter" fill="none" stroke="#000000" d="M2105.7 3901.5 1236.3 4134.4 1469.3 3265.1Z"/>
<path transform="matrix(.1,0,0,-.1,0,792)" d="M3844.3 5640.1 3611.4 6509.5 2975 5873.1" fill="#058f57"/>
<path transform="matrix(.1,0,0,-.1,0,792)" stroke-width="20" stroke-linecap="butt" stroke-miterlimit="10" stroke-linejoin="miter" fill="none" stroke="#000000" d="M3844.3 5640.1 3611.4 6509.5 2975 5873.1Z"/>
<path transform="matrix(.1,0,0,-.1,0,792)" d="M3844.3 5640.1 4480.7 6276.5 3611.4 6509.5" fill="#abc252"/>
<path transform="matrix(.1,0,0,-.1,0,792)" stroke-width="20" stroke-linecap="butt" stroke-miterlimit="10" stroke-linejoin="miter" fill="none" stroke="#000000" d="M3844.3 5640.1 4480.7 6276.5 3611.4 6509.5Z"/>
<path transform="matrix(.1,0,0,-.1,0,792)" d="M3844.3 5640.1 4713.7 5873.1 4480.7 5003.7 5117.1 5640.1 5350.1 4770.8 5583 5640.1 6219.4 5003.7 5986.5 5873.1 6855.8 5640.1 6219.4 6276.5 7088.7 6509.5 6219.4 6742.4 6855.8 7378.8 5986.5 7145.9 6219.4 8015.2 5583 7378.8 5350.1 8248.1 5117.1 7378.8 4480.7 8015.2 4713.7 7145.9 3844.3 7378.8 4480.7 6742.4 3611.4 6509.5 4480.7 6276.5" fill="#3b14fd"/>
<path transform="matrix(.1,0,0,-.1,0,792)" stroke-width="20" stroke-linecap="butt" stroke-miterlimit="10" stroke-linejoin="miter" fill="none" stroke="#000000" d="M3844.3 5640.1 4713.7 5873.1 4480.7 5003.7 5117.1 5640.1 5350.1 4770.8 5583 5640.1 6219.4 5003.7 5986.5 5873.1 6855.8 5640.1 6219.4 6276.5 7088.7 6509.5 6219.4 6742.4 6855.8 7378.8 5986.5 7145.9 6219.4 8015.2 5583 7378.8 5350.1 8248.1 5117.1 7378.8 4480.7 8015.2 4713.7 7145.9 3844.3 7378.8 4480.7 6742.4 3611.4 6509.5 4480.7 6276.5Z"/>
<path transform="matrix(.1,0,0,-.1,0,792)" d="M3844.3 5640.1 4480.7 5003.7 4713.7 5873.1" fill="#ba6e96"/>
<path transform="matrix(.1,0,0,-.1,0,792)" stroke-width="20" stroke-linecap="butt" stroke-miterlimit="10" stroke-linejoin="miter" fill="none" stroke="#000000" d="M3844.3 5640.1 4480.7 5003.7 4713.7 5873.1Z"/>
<path transform="matrix(.1,0,0,-.1,0,792)" d="M2105.7 5640.1 1236.3 5873.1 1469.3 5003.7" fill="#058f57"/>
<path transform="matrix(.1,0,0,-.1,0,792)" stroke-width="20" stroke-linecap="butt" stroke-miterlimit="10" stroke-linejoin="miter" fill="none" stroke="#000000" d="M2105.7 5640.1 1236.3 5873.1 1469.3 5003.7Z"/>
<path transform="matrix(.1,0,0,-.1,0,792)" d="M2105.7 5640.1 1872.7 6509.5 1236.3 5873.1" fill="#abc252"/>
<path transform="matrix(.1,0,0,-.1,0,792)" stroke-width="20" stroke-linecap="butt" stroke-miterlimit="10" stroke-linejoin="miter" fill="none" stroke="#000000" d="M2105.7 5640.1 1872.7 6509.5 1236.3 5873.1Z"/>
<path transform="matrix(.1,0,0,-.1,0,792)" d="M2105.7 5640.1 2338.6 6509.5 2975 5873.1 2742.1 6742.4 3611.4 6509.5 2975 7145.9 3844.3 7378.8 2975 7611.7 3611.4 8248.1 2742.1 8015.2 2975 8884.5 2338.6 8248.1 2105.7 9117.5 1872.7 8248.1 1236.3 8884.5 1469.3 8015.2 599.898 8248.1 1236.3 7611.7 367 7378.8 1236.3 7145.9 599.898 6509.5 1469.3 6742.4 1236.3 5873.1 1872.7 6509.5" fill="#3b14fd"/>
<path transform="matrix(.1,0,0,-.1,0,792)" stroke-width="20" stroke-linecap="butt" stroke-miterlimit="10" stroke-linejoin="miter" fill="none" stroke="#000000" d="M2105.7 5640.1 2338.6 6509.5 2975 5873.1 2742.1 6742.4 3611.4 6509.5 2975 7145.9 3844.3 7378.8 2975 7611.7 3611.4 8248.1 2742.1 8015.2 2975 8884.5 2338.6 8248.1 2105.7 9117.5 1872.7 8248.1 1236.3 8884.5 1469.3 8015.2 599.898 8248.1 1236.3 7611.7 367 7378.8 1236.3 7145.9 599.898 6509.5 1469.3 6742.4 1236.3 5873.1 1872.7 6509.5Z"/>
<path transform="matrix(.1,0,0,-.1,0,792)" d="M2105.7 5640.1 2975 5873.1 2338.6 6509.5" fill="#ba6e96"/>
<path transform="matrix(.1,0,0,-.1,0,792)" stroke-width="20" stroke-linecap="butt" stroke-miterlimit="10" stroke-linejoin="miter" fill="none" stroke="#000000" d="M2105.7 5640.1 2975 5873.1 2338.6 6509.5Z"/>
<path transform="matrix(.1,0,0,-.1,0,792)" d="M2105.7 2628.7 2338.6 1759.3 2975 2395.7" fill="#058f57"/>
<path transform="matrix(.1,0,0,-.1,0,792)" stroke-width="20" stroke-linecap="butt" stroke-miterlimit="10" stroke-linejoin="miter" fill="none" stroke="#000000" d="M2105.7 2628.7 2338.6 1759.3 2975 2395.7Z"/>
<path transform="matrix(.1,0,0,-.1,0,792)" d="M2105.7 2628.7 1469.3 1992.3 2338.6 1759.3" fill="#abc252"/>
<path transform="matrix(.1,0,0,-.1,0,792)" stroke-width="20" stroke-linecap="butt" stroke-miterlimit="10" stroke-linejoin="miter" fill="none" stroke="#000000" d="M2105.7 2628.7 1469.3 1992.3 2338.6 1759.3Z"/>
<path transform="matrix(.1,0,0,-.1,0,792)" d="M2105.7 2628.7 1236.3 2395.7 1469.3 3265.1 832.898 2628.7 599.898 3498 367 2628.7-269.398 3265.1-36.5 2395.7-905.801 2628.7-269.398 1992.3-1138.7 1759.3-269.398 1526.4-905.801 890-36.5 1122.9-269.398 253.602 367 890 599.898 20.6992 832.898 890 1469.3 253.602 1236.3 1122.9 2105.7 890 1469.3 1526.4 2338.6 1759.3 1469.3 1992.3" fill="#3b14fd"/>
<path transform="matrix(.1,0,0,-.1,0,792)" stroke-width="20" stroke-linecap="butt" stroke-miterlimit="10" stroke-linejoin="miter" fill="none" stroke="#000000" d="M2105.7 2628.7 1236.3 2395.7 1469.3 3265.1 832.898 2628.7 599.898 3498 367 2628.7-269.398 3265.1-36.5 2395.7-905.801 2628.7-269.398 1992.3-1138.7 1759.3-269.398 1526.4-905.801 890-36.5 1122.9-269.398 253.602 367 890 599.898 20.6992 832.898 890 1469.3 253.602 1236.3 1122.9 2105.7 890 1469.3 1526.4 2338.6 1759.3 1469.3 1992.3Z"/>
<path transform="matrix(.1,0,0,-.1,0,792)" d="M2105.7 2628.7 1469.3 3265.1 1236.3 2395.7" fill="#ba6e96"/>
<path transform="matrix(.1,0,0,-.1,0,792)" stroke-width="20" stroke-linecap="butt" stroke-miterlimit="10" stroke-linejoin="miter" fill="none" stroke="#000000" d="M2105.7 2628.7 1469.3 3265.1 1236.3 2395.7Z"/>
<path transform="matrix(.1,0,0,-.1,0,792)" d="M3844.3 2628.7 4713.7 2395.7 4480.7 3265.1" fill="#058f57"/>
<path transform="matrix(.1,0,0,-.1,0,792)" stroke-width="20" stroke-linecap="butt" stroke-miterlimit="10" stroke-linejoin="miter" fill="none" stroke="#000000" d="M3844.3 2628.7 4713.7 2395.7 4480.7 3265.1Z"/>
<path transform="matrix(.1,0,0,-.1,0,792)" d="M3844.3 2628.7 4077.3 1759.3 4713.7 2395.7" fill="#abc252"/>
<path transform="matrix(.1,0,0,-.1,0,792)" stroke-width="20" stroke-linecap="butt" stroke-miterlimit="10" stroke-linejoin="miter" fill="none" stroke="#000000" d="M3844.3 2628.7 4077.3 1759.3 4713.7 2395.7Z"/>
<path transform="matrix(.1,0,0,-.1,0,792)" d="M3844.3 2628.7 3611.4 1759.3 2975 2395.7 3207.9 1526.4 2338.6 1759.3 2975 1122.9 2105.7 890 2975 657.102 2338.6 20.6992 3207.9 253.602 2975-615.699 3611.4 20.6992 3844.3-848.699 4077.3 20.6992 4713.7-615.699 4480.7 253.602 5350.1 20.6992 4713.7 657.102 5583 890 4713.7 1122.9 5350.1 1759.3 4480.7 1526.4 4713.7 2395.7 4077.3 1759.3" fill="#3b14fd"/>
<path transform="matrix(.1,0,0,-.1,0,792)" stroke-width="20" stroke-linecap="butt" stroke-miterlimit="10" stroke-linejoin="miter" fill="none" stroke="#000000" d="M3844.3 2628.7 3611.4 1759.3 2975 2395.7 3207.9 1526.4 2338.6 1759.3 2975 1122.9 2105.7 890 2975 657.102 2338.6 20.6992 3207.9 253.602 2975-615.699 3611.4 20.6992 3844.3-848.699 4077.3 20.6992 4713.7-615.699 4480.7 253.602 5350.1 20.6992 4713.7 657.102 5583 890 4713.7 1122.9 5350.1 1759.3 4480.7 1526.4 4713.7 2395.7 4077.3 1759.3Z"/>
<path transform="matrix(.1,0,0,-.1,0,792)" d="M3844.3 2628.7 2975 2395.7 3611.4 1759.3" fill="#ba6e96"/>
<path transform="matrix(.1,0,0,-.1,0,792)" stroke-width="20" stroke-linecap="butt" stroke-miterlimit="10" stroke-linejoin="miter" fill="none" stroke="#000000" d="M3844.3 2628.7 2975 2395.7 3611.4 1759.3Z"/>
<path transform="matrix(.1,0,0,-.1,0,792)" d="M2975 5873.1 3611.4 6509.5 2742.1 6742.4" fill="#abc252"/>
<path transform="matrix(.1,0,0,-.1,0,792)" stroke-width="20" stroke-linecap="butt" stroke-miterlimit="10" stroke-linejoin="miter" fill="none" stroke="#000000" d="M2975 5873.1 3611.4 6509.5 2742.1 6742.4Z"/>
<path transform="matrix(.1,0,0,-.1,0,792)" d="M2975 2395.7 2338.6 1759.3 3207.9 1526.4" fill="#abc252"/>
<path transform="matrix(.1,0,0,-.1,0,792)" stroke-width="20" stroke-linecap="butt" stroke-miterlimit="10" stroke-linejoin="miter" fill="none" stroke="#000000" d="M2975 2395.7 2338.6 1759.3 3207.9 1526.4Z"/>
<path transform="matrix(.1,0,0,-.1,0,792)" d="M4480.7 3265.1 5350.1 3498 4713.7 4134.4" fill="#477ab8"/>
<path transform="matrix(.1,0,0,-.1,0,792)" stroke-width="20" stroke-linecap="butt" stroke-miterlimit="10" stroke-linejoin="miter" fill="none" stroke="#000000" d="M4480.7 3265.1 5350.1 3498 4713.7 4134.4Z"/>
<path transform="matrix(.1,0,0,-.1,0,792)" d="M4480.7 3265.1 5350.1 3032.1 4713.7 2395.7 5583 2628.7 5350.1 1759.3 5986.5 2395.7 6219.4 1526.4 6452.3 2395.7 7088.7 1759.3 6855.8 2628.7 7725.1 2395.7 7088.7 3032.1 7958.1 3265.1 7088.7 3498 7725.1 4134.4 6855.8 3901.5 7088.7 4770.8 6452.3 4134.4 6219.4 5003.7 5986.5 4134.4 5350.1 4770.8 5583 3901.5 4713.7 4134.4 5350.1 3498" fill="#3b14fd"/>
<path transform="matrix(.1,0,0,-.1,0,792)" stroke-width="20" stroke-linecap="butt" stroke-miterlimit="10" stroke-linejoin="miter" fill="none" stroke="#000000" d="M4480.7 3265.1 5350.1 3032.1 4713.7 2395.7 5583 2628.7 5350.1 1759.3 5986.5 2395.7 6219.4 1526.4 6452.3 2395.7 7088.7 1759.3 6855.8 2628.7 7725.1 2395.7 7088.7 3032.1 7958.1 3265.1 7088.7 3498 7725.1 4134.4 6855.8 3901.5 7088.7 4770.8 6452.3 4134.4 6219.4 5003.7 5986.5 4134.4 5350.1 4770.8 5583 3901.5 4713.7 4134.4 5350.1 3498Z"/>
<path transform="matrix(.1,0,0,-.1,0,792)" d="M4480.7 3265.1 4713.7 2395.7 5350.1 3032.1" fill="#abc252"/>
<path transform="matrix(.1,0,0,-.1,0,792)" stroke-width="20" stroke-linecap="butt" stroke-miterlimit="10" stroke-linejoin="miter" fill="none" stroke="#000000" d="M4480.7 3265.1 4713.7 2395.7 5350.1 3032.1Z"/>
<path transform="matrix(.1,0,0,-.1,0,792)" d="M4480.7 5003.7 5350.1 4770.8 5117.1 5640.1" fill="#abc252"/>
<path transform="matrix(.1,0,0,-.1,0,792)" stroke-width="20" stroke-linecap="butt" stroke-miterlimit="10" stroke-linejoin="miter" fill="none" stroke="#000000" d="M4480.7 5003.7 5350.1 4770.8 5117.1 5640.1Z"/>
<path transform="matrix(.1,0,0,-.1,0,792)" d="M4480.7 5003.7 4713.7 4134.4 5350.1 4770.8" fill="#058f57"/>
<path transform="matrix(.1,0,0,-.1,0,792)" stroke-width="20" stroke-linecap="butt" stroke-miterlimit="10" stroke-linejoin="miter" fill="none" stroke="#000000" d="M4480.7 5003.7 4713.7 4134.4 5350.1 4770.8Z"/>
<path transform="matrix(.1,0,0,-.1,0,792)" d="M1469.3 5003.7 599.898 4770.8 1236.3 4134.4" fill="#ba6e96"/>
<path transform="matrix(.1,0,0,-.1,0,792)" stroke-width="20" stroke-linecap="butt" stroke-miterlimit="10" stroke-linejoin="miter" fill="none" stroke="#000000" d="M1469.3 5003.7 599.898 4770.8 1236.3 4134.4Z"/>
<path transform="matrix(.1,0,0,-.1,0,792)" d="M1469.3 5003.7 599.898 5236.7 1236.3 5873.1 367 5640.1 599.898 6509.5-36.5 5873.1-269.398 6742.4-502.301 5873.1-1138.7 6509.5-905.801 5640.1-1775.1 5873.1-1138.7 5236.7-2008.1 5003.7-1138.7 4770.8-1775.1 4134.4-905.801 4367.3-1138.7 3498-502.301 4134.4-269.398 3265.1-36.5 4134.4 599.898 3498 367 4367.3 1236.3 4134.4 599.898 4770.8" fill="#3b14fd"/>
<path transform="matrix(.1,0,0,-.1,0,792)" stroke-width="20" stroke-linecap="butt" stroke-miterlimit="10" stroke-linejoin="miter" fill="none" stroke="#000000" d="M1469.3 5003.7 599.898 5236.7 1236.3 5873.1 367 5640.1 599.898 6509.5-36.5 5873.1-269.398 6742.4-502.301 5873.1-1138.7 6509.5-905.801 5640.1-1775.1 5873.1-1138.7 5236.7-2008.1 5003.7-1138.7 4770.8-1775.1 4134.4-905.801 4367.3-1138.7 3498-502.301 4134.4-269.398 3265.1-36.5 4134.4 599.898 3498 367 4367.3 1236.3 4134.4 599.898 4770.8Z"/>
<path transform="matrix(.1,0,0,-.1,0,792)" d="M1469.3 5003.7 1236.3 5873.1 599.898 5236.7" fill="#abc252"/>
<path transform="matrix(.1,0,0,-.1,0,792)" stroke-width="20" stroke-linecap="butt" stroke-miterlimit="10" stroke-linejoin="miter" fill="none" stroke="#000000" d="M1469.3 5003.7 1236.3 5873.1 599.898 5236.7Z"/>
<path transform="matrix(.1,0,0,-.1,0,792)" d="M1469.3 3265.1 599.898 3498 832.898 2628.7" fill="#abc252"/>
<path transform="matrix(.1,0,0,-.1,0,792)" stroke-width="20" stroke-linecap="butt" stroke-miterlimit="10" stroke-linejoin="miter" fill="none" stroke="#000000" d="M1469.3 3265.1 599.898 3498 832.898 2628.7Z"/>
<path transform="matrix(.1,0,0,-.1,0,792)" d="M1469.3 3265.1 1236.3 4134.4 599.898 3498" fill="#058f57"/>
<path transform="matrix(.1,0,0,-.1,0,792)" stroke-width="20" stroke-linecap="butt" stroke-miterlimit="10" stroke-linejoin="miter" fill="none" stroke="#000000" d="M1469.3 3265.1 1236.3 4134.4 599.898 3498Z"/>
<path transform="matrix(.1,0,0,-.1,0,792)" d="M3611.4 6509.5 3844.3 7378.8 2975 7145.9" fill="#477ab8"/>
<path transform="matrix(.1,0,0,-.1,0,792)" stroke-width="20" stroke-linecap="butt" stroke-miterlimit="10" stroke-linejoin="miter" fill="none" stroke="#000000" d="M3611.4 6509.5 3844.3 7378.8 2975 7145.9Z"/>
<path transform="matrix(.1,0,0,-.1,0,792)" d="M3611.4 6509.5 4480.7 6742.4 3844.3 7378.8" fill="#ba6e96"/>
<path transform="matrix(.1,0,0,-.1,0,792)" stroke-width="20" stroke-linecap="butt" stroke-miterlimit="10" stroke-linejoin="miter" fill="none" stroke="#000000" d="M3611.4 6509.5 4480.7 6742.4 3844.3 7378.8Z"/>
<path transform="matrix(.1,0,0,-.1,0,792)" d="M1236.3 5873.1 599.898 6509.5 367 5640.1" fill="#477ab8"/>
<path transform="matrix(.1,0,0,-.1,0,792)" stroke-width="20" stroke-linecap="butt" stroke-miterlimit="10" stroke-linejoin="miter" fill="none" stroke="#000000" d="M1236.3 5873.1 599.898 6509.5 367 5640.1Z"/>
<path transform="matrix(.1,0,0,-.1,0,792)" d="M1236.3 5873.1 1469.3 6742.4 599.898 6509.5" fill="#ba6e96"/>
<path transform="matrix(.1,0,0,-.1,0,792)" stroke-width="20" stroke-linecap="butt" stroke-miterlimit="10" stroke-linejoin="miter" fill="none" stroke="#000000" d="M1236.3 5873.1 1469.3 6742.4 599.898 6509.5Z"/>
<path transform="matrix(.1,0,0,-.1,0,792)" d="M1236.3 4134.4 367 4367.3 599.898 3498" fill="#abc252"/>
<path transform="matrix(.1,0,0,-.1,0,792)" stroke-width="20" stroke-linecap="butt" stroke-miterlimit="10" stroke-linejoin="miter" fill="none" stroke="#000000" d="M1236.3 4134.4 367 4367.3 599.898 3498Z"/>
<path transform="matrix(.1,0,0,-.1,0,792)" d="M4713.7 2395.7 5350.1 1759.3 5583 2628.7" fill="#ba6e96"/>
<path transform="matrix(.1,0,0,-.1,0,792)" stroke-width="20" stroke-linecap="butt" stroke-miterlimit="10" stroke-linejoin="miter" fill="none" stroke="#000000" d="M4713.7 2395.7 5350.1 1759.3 5583 2628.7Z"/>
<path transform="matrix(.1,0,0,-.1,0,792)" d="M4713.7 2395.7 4480.7 1526.4 5350.1 1759.3" fill="#477ab8"/>
<path transform="matrix(.1,0,0,-.1,0,792)" stroke-width="20" stroke-linecap="butt" stroke-miterlimit="10" stroke-linejoin="miter" fill="none" stroke="#000000" d="M4713.7 2395.7 4480.7 1526.4 5350.1 1759.3Z"/>
<path transform="matrix(.1,0,0,-.1,0,792)" d="M4713.7 4134.4 5583 3901.5 5350.1 4770.8" fill="#abc252"/>
<path transform="matrix(.1,0,0,-.1,0,792)" stroke-width="20" stroke-linecap="butt" stroke-miterlimit="10" stroke-linejoin="miter" fill="none" stroke="#000000" d="M4713.7 4134.4 5583 3901.5 5350.1 4770.8Z"/>
<path transform="matrix(.1,0,0,-.1,0,792)" d="M2338.6 1759.3 2105.7 890 2975 1122.9" fill="#477ab8"/>
<path transform="matrix(.1,0,0,-.1,0,792)" stroke-width="20" stroke-linecap="butt" stroke-miterlimit="10" stroke-linejoin="miter" fill="none" stroke="#000000" d="M2338.6 1759.3 2105.7 890 2975 1122.9Z"/>
<path transform="matrix(.1,0,0,-.1,0,792)" d="M2338.6 1759.3 1469.3 1526.4 2105.7 890" fill="#ba6e96"/>
<path transform="matrix(.1,0,0,-.1,0,792)" stroke-width="20" stroke-linecap="butt" stroke-miterlimit="10" stroke-linejoin="miter" fill="none" stroke="#000000" d="M2338.6 1759.3 1469.3 1526.4 2105.7 890Z"/>
<path transform="matrix(.1,0,0,-.1,0,792)" d="M4713.7 7145.9 4480.7 8015.2 3844.3 7378.8" fill="#abc252"/>
<path transform="matrix(.1,0,0,-.1,0,792)" stroke-width="20" stroke-linecap="butt" stroke-miterlimit="10" stroke-linejoin="miter" fill="none" stroke="#000000" d="M4713.7 7145.9 4480.7 8015.2 3844.3 7378.8Z"/>
<path transform="matrix(.1,0,0,-.1,0,792)" d="M1236.3 7145.9 367 7378.8 599.898 6509.5" fill="#abc252"/>
<path transform="matrix(.1,0,0,-.1,0,792)" stroke-width="20" stroke-linecap="butt" stroke-miterlimit="10" stroke-linejoin="miter" fill="none" stroke="#000000" d="M1236.3 7145.9 367 7378.8 599.898 6509.5Z"/>
<path transform="matrix(.1,0,0,-.1,0,792)" d="M1236.3 1122.9 1469.3 253.602 2105.7 890" fill="#abc252"/>
<path transform="matrix(.1,0,0,-.1,0,792)" stroke-width="20" stroke-linecap="butt" stroke-miterlimit="10" stroke-linejoin="miter" fill="none" stroke="#000000" d="M1236.3 1122.9 1469.3 253.602 2105.7 890Z"/>
<path transform="matrix(.1,0,0,-.1,0,792)" d="M4713.7 1122.9 5583 890 5350.1 1759.3" fill="#abc252"/>
<path transform="matrix(.1,0,0,-.1,0,792)" stroke-width="20" stroke-linecap="butt" stroke-miterlimit="10" stroke-linejoin="miter" fill="none" stroke="#000000" d="M4713.7 1122.9 5583 890 5350.1 1759.3Z"/>
<path transform="matrix(.1,0,0,-.1,0,792)" d="M5117.1 7378.8 5350.1 8248.1 4480.7 8015.2" fill="#ba6e96"/>
<path transform="matrix(.1,0,0,-.1,0,792)" stroke-width="20" stroke-linecap="butt" stroke-miterlimit="10" stroke-linejoin="miter" fill="none" stroke="#000000" d="M5117.1 7378.8 5350.1 8248.1 4480.7 8015.2Z"/>
<path transform="matrix(.1,0,0,-.1,0,792)" d="M3844.3 7378.8 3611.4 8248.1 2975 7611.7" fill="#abc252"/>
<path transform="matrix(.1,0,0,-.1,0,792)" stroke-width="20" stroke-linecap="butt" stroke-miterlimit="10" stroke-linejoin="miter" fill="none" stroke="#000000" d="M3844.3 7378.8 3611.4 8248.1 2975 7611.7Z"/>
<path transform="matrix(.1,0,0,-.1,0,792)" d="M3844.3 7378.8 4480.7 8015.2 3611.4 8248.1" fill="#058f57"/>
<path transform="matrix(.1,0,0,-.1,0,792)" stroke-width="20" stroke-linecap="butt" stroke-miterlimit="10" stroke-linejoin="miter" fill="none" stroke="#000000" d="M3844.3 7378.8 4480.7 8015.2 3611.4 8248.1Z"/>
<path transform="matrix(.1,0,0,-.1,0,792)" d="M599.898 6509.5-269.398 6742.4-36.5 5873.1" fill="#abc252"/>
<path transform="matrix(.1,0,0,-.1,0,792)" stroke-width="20" stroke-linecap="butt" stroke-miterlimit="10" stroke-linejoin="miter" fill="none" stroke="#000000" d="M599.898 6509.5-269.398 6742.4-36.5 5873.1Z"/>
<path transform="matrix(.1,0,0,-.1,0,792)" d="M599.898 6509.5 367 7378.8-269.398 6742.4" fill="#058f57"/>
<path transform="matrix(.1,0,0,-.1,0,792)" stroke-width="20" stroke-linecap="butt" stroke-miterlimit="10" stroke-linejoin="miter" fill="none" stroke="#000000" d="M599.898 6509.5 367 7378.8-269.398 6742.4Z"/>
<path transform="matrix(.1,0,0,-.1,0,792)" d="M599.898 3498-269.398 3265.1 367 2628.7" fill="#477ab8"/>
<path transform="matrix(.1,0,0,-.1,0,792)" stroke-width="20" stroke-linecap="butt" stroke-miterlimit="10" stroke-linejoin="miter" fill="none" stroke="#000000" d="M599.898 3498-269.398 3265.1 367 2628.7Z"/>
<path transform="matrix(.1,0,0,-.1,0,792)" d="M599.898 3498-36.5 4134.4-269.398 3265.1" fill="#ba6e96"/>
<path transform="matrix(.1,0,0,-.1,0,792)" stroke-width="20" stroke-linecap="butt" stroke-miterlimit="10" stroke-linejoin="miter" fill="none" stroke="#000000" d="M599.898 3498-36.5 4134.4-269.398 3265.1Z"/>
<path transform="matrix(.1,0,0,-.1,0,792)" d="M5350.1 1759.3 6219.4 1526.4 5986.5 2395.7" fill="#abc252"/>
<path transform="matrix(.1,0,0,-.1,0,792)" stroke-width="20" stroke-linecap="butt" stroke-miterlimit="10" stroke-linejoin="miter" fill="none" stroke="#000000" d="M5350.1 1759.3 6219.4 1526.4 5986.5 2395.7Z"/>
<path transform="matrix(.1,0,0,-.1,0,792)" d="M5350.1 1759.3 5583 890 6219.4 1526.4" fill="#058f57"/>
<path transform="matrix(.1,0,0,-.1,0,792)" stroke-width="20" stroke-linecap="butt" stroke-miterlimit="10" stroke-linejoin="miter" fill="none" stroke="#000000" d="M5350.1 1759.3 5583 890 6219.4 1526.4Z"/>
<path transform="matrix(.1,0,0,-.1,0,792)" d="M5350.1 4770.8 6219.4 5003.7 5583 5640.1" fill="#477ab8"/>
<path transform="matrix(.1,0,0,-.1,0,792)" stroke-width="20" stroke-linecap="butt" stroke-miterlimit="10" stroke-linejoin="miter" fill="none" stroke="#000000" d="M5350.1 4770.8 6219.4 5003.7 5583 5640.1Z"/>
<path transform="matrix(.1,0,0,-.1,0,792)" d="M5350.1 4770.8 5986.5 4134.4 6219.4 5003.7" fill="#ba6e96"/>
<path transform="matrix(.1,0,0,-.1,0,792)" stroke-width="20" stroke-linecap="butt" stroke-miterlimit="10" stroke-linejoin="miter" fill="none" stroke="#000000" d="M5350.1 4770.8 5986.5 4134.4 6219.4 5003.7Z"/>
<path transform="matrix(.1,0,0,-.1,0,792)" d="M832.898 890 599.898 20.6992 1469.3 253.602" fill="#ba6e96"/>
<path transform="matrix(.1,0,0,-.1,0,792)" stroke-width="20" stroke-linecap="butt" stroke-miterlimit="10" stroke-linejoin="miter" fill="none" stroke="#000000" d="M832.898 890 599.898 20.6992 1469.3 253.602Z"/>
<path transform="matrix(.1,0,0,-.1,0,792)" d="M2105.7 890 2338.6 20.6992 2975 657.102" fill="#abc252"/>
<path transform="matrix(.1,0,0,-.1,0,792)" stroke-width="20" stroke-linecap="butt" stroke-miterlimit="10" stroke-linejoin="miter" fill="none" stroke="#000000" d="M2105.7 890 2338.6 20.6992 2975 657.102Z"/>
<path transform="matrix(.1,0,0,-.1,0,792)" d="M2105.7 890 1469.3 253.602 2338.6 20.6992" fill="#058f57"/>
<path transform="matrix(.1,0,0,-.1,0,792)" stroke-width="20" stroke-linecap="butt" stroke-miterlimit="10" stroke-linejoin="miter" fill="none" stroke="#000000" d="M2105.7 890 1469.3 253.602 2338.6 20.6992Z"/>
<path transform="matrix(.1,0,0,-.1,0,792)" d="M1236.3 7611.7 599.898 8248.1 367 7378.8" fill="#ba6e96"/>
<path transform="matrix(.1,0,0,-.1,0,792)" stroke-width="20" stroke-linecap="butt" stroke-miterlimit="10" stroke-linejoin="miter" fill="none" stroke="#000000" d="M1236.3 7611.7 599.898 8248.1 367 7378.8Z"/>
<path transform="matrix(.1,0,0,-.1,0,792)" d="M4713.7 657.102 5350.1 20.6992 5583 890" fill="#ba6e96"/>
<path transform="matrix(.1,0,0,-.1,0,792)" stroke-width="20" stroke-linecap="butt" stroke-miterlimit="10" stroke-linejoin="miter" fill="none" stroke="#000000" d="M4713.7 657.102 5350.1 20.6992 5583 890Z"/>
<path transform="matrix(.1,0,0,-.1,0,792)" d="M5583 890 6452.3 657.102 6219.4 1526.4" fill="#abc252"/>
<path transform="matrix(.1,0,0,-.1,0,792)" stroke-width="20" stroke-linecap="butt" stroke-miterlimit="10" stroke-linejoin="miter" fill="none" stroke="#000000" d="M5583 890 6452.3 657.102 6219.4 1526.4Z"/>
<path transform="matrix(.1,0,0,-.1,0,792)" d="M5583 890 6219.4 253.602 5350.1 20.6992 6219.4-212.301 5583-848.699 6452.3-615.699 6219.4-1485.1 6855.8-848.699 7088.7-1718 7321.7-848.699 7958.1-1485.1 7725.1-615.699 8594.5-848.699 7958.1-212.301 8827.4 20.6992 7958.1 253.602 8594.5 890 7725.1 657.102 7958.1 1526.4 7321.7 890 7088.7 1759.3 6855.8 890 6219.4 1526.4 6452.3 657.102" fill="#3b14fd"/>
<path transform="matrix(.1,0,0,-.1,0,792)" stroke-width="20" stroke-linecap="butt" stroke-miterlimit="10" stroke-linejoin="miter" fill="none" stroke="#000000" d="M5583 890 6219.4 253.602 5350.1 20.6992 6219.4-212.301 5583-848.699 6452.3-615.699 6219.4-1485.1 6855.8-848.699 7088.7-1718 7321.7-848.699 7958.1-1485.1 7725.1-615.699 8594.5-848.699 7958.1-212.301 8827.4 20.6992 7958.1 253.602 8594.5 890 7725.1 657.102 7958.1 1526.4 7321.7 890 7088.7 1759.3 6855.8 890 6219.4 1526.4 6452.3 657.102Z"/>
<path transform="matrix(.1,0,0,-.1,0,792)" d="M5583 890 5350.1 20.6992 6219.4 253.602" fill="#ba6e96"/>
<path transform="matrix(.1,0,0,-.1,0,792)" stroke-width="20" stroke-linecap="butt" stroke-miterlimit="10" stroke-linejoin="miter" fill="none" stroke="#000000" d="M5583 890 5350.1 20.6992 6219.4 253.602Z"/>
<path transform="matrix(.1,0,0,-.1,0,792)" d="M5583 7378.8 6219.4 8015.2 5350.1 8248.1" fill="#abc252"/>
<path transform="matrix(.1,0,0,-.1,0,792)" stroke-width="20" stroke-linecap="butt" stroke-miterlimit="10" stroke-linejoin="miter" fill="none" stroke="#000000" d="M5583 7378.8 6219.4 8015.2 5350.1 8248.1Z"/>
<path transform="matrix(.1,0,0,-.1,0,792)" d="M367 7378.8-502.301 7611.7-269.398 6742.4" fill="#abc252"/>
<path transform="matrix(.1,0,0,-.1,0,792)" stroke-width="20" stroke-linecap="butt" stroke-miterlimit="10" stroke-linejoin="miter" fill="none" stroke="#000000" d="M367 7378.8-502.301 7611.7-269.398 6742.4Z"/>
<path transform="matrix(.1,0,0,-.1,0,792)" d="M367 7378.8-269.398 8015.2 599.898 8248.1-269.398 8481.1 367 9117.5-502.301 8884.5-269.398 9753.9-905.801 9117.5-1138.7 9986.8-1371.7 9117.5-2008.1 9753.9-1775.1 8884.5-2644.5 9117.5-2008.1 8481.1-2877.4 8248.1-2008.1 8015.2-2644.5 7378.8-1775.1 7611.7-2008.1 6742.4-1371.7 7378.8-1138.7 6509.5-905.801 7378.8-269.398 6742.4-502.301 7611.7" fill="#3b14fd"/>
<path transform="matrix(.1,0,0,-.1,0,792)" stroke-width="20" stroke-linecap="butt" stroke-miterlimit="10" stroke-linejoin="miter" fill="none" stroke="#000000" d="M367 7378.8-269.398 8015.2 599.898 8248.1-269.398 8481.1 367 9117.5-502.301 8884.5-269.398 9753.9-905.801 9117.5-1138.7 9986.8-1371.7 9117.5-2008.1 9753.9-1775.1 8884.5-2644.5 9117.5-2008.1 8481.1-2877.4 8248.1-2008.1 8015.2-2644.5 7378.8-1775.1 7611.7-2008.1 6742.4-1371.7 7378.8-1138.7 6509.5-905.801 7378.8-269.398 6742.4-502.301 7611.7Z"/>
<path transform="matrix(.1,0,0,-.1,0,792)" d="M367 7378.8 599.898 8248.1-269.398 8015.2" fill="#ba6e96"/>
<path transform="matrix(.1,0,0,-.1,0,792)" stroke-width="20" stroke-linecap="butt" stroke-miterlimit="10" stroke-linejoin="miter" fill="none" stroke="#000000" d="M367 7378.8 599.898 8248.1-269.398 8015.2Z"/>
<path transform="matrix(.1,0,0,-.1,0,792)" d="M367 890-269.398 253.602 599.898 20.6992" fill="#abc252"/>
<path transform="matrix(.1,0,0,-.1,0,792)" stroke-width="20" stroke-linecap="butt" stroke-miterlimit="10" stroke-linejoin="miter" fill="none" stroke="#000000" d="M367 890-269.398 253.602 599.898 20.6992Z"/>
<path transform="matrix(.1,0,0,-.1,0,792)" d="M1469.3 253.602 1702.2-615.699 2338.6 20.6992" fill="#abc252"/>
<path transform="matrix(.1,0,0,-.1,0,792)" stroke-width="20" stroke-linecap="butt" stroke-miterlimit="10" stroke-linejoin="miter" fill="none" stroke="#000000" d="M1469.3 253.602 1702.2-615.699 2338.6 20.6992Z"/>
<path transform="matrix(.1,0,0,-.1,0,792)" d="M1469.3 253.602 1236.3-615.699 599.898 20.6992 832.898-848.699-36.5-615.699 599.898-1252.1-269.398-1485.1 599.898-1718-36.5-2354.4 832.898-2121.4 599.898-2990.8 1236.3-2354.4 1469.3-3223.7 1702.2-2354.4 2338.6-2990.8 2105.7-2121.4 2975-2354.4 2338.6-1718 3207.9-1485.1 2338.6-1252.1 2975-615.699 2105.7-848.699 2338.6 20.6992 1702.2-615.699" fill="#3b14fd"/>
<path transform="matrix(.1,0,0,-.1,0,792)" stroke-width="20" stroke-linecap="butt" stroke-miterlimit="10" stroke-linejoin="miter" fill="none" stroke="#000000" d="M1469.3 253.602 1236.3-615.699 599.898 20.6992 832.898-848.699-36.5-615.699 599.898-1252.1-269.398-1485.1 599.898-1718-36.5-2354.4 832.898-2121.4 599.898-2990.8 1236.3-2354.4 1469.3-3223.7 1702.2-2354.4 2338.6-2990.8 2105.7-2121.4 2975-2354.4 2338.6-1718 3207.9-1485.1 2338.6-1252.1 2975-615.699 2105.7-848.699 2338.6 20.6992 1702.2-615.699Z"/>
<path transform="matrix(.1,0,0,-.1,0,792)" d="M1469.3 253.602 599.898 20.6992 1236.3-615.699" fill="#ba6e96"/>
<path transform="matrix(.1,0,0,-.1,0,792)" stroke-width="20" stroke-linecap="butt" stroke-miterlimit="10" stroke-linejoin="miter" fill="none" stroke="#000000" d="M1469.3 253.602 599.898 20.6992 1236.3-615.699Z"/>
<path transform="matrix(.1,0,0,-.1,0,792)" d="M3207.9 253.602 2338.6 20.6992 2975-615.699" fill="#ba6e96"/>
<path transform="matrix(.1,0,0,-.1,0,792)" stroke-width="20" stroke-linecap="butt" stroke-miterlimit="10" stroke-linejoin="miter" fill="none" stroke="#000000" d="M3207.9 253.602 2338.6 20.6992 2975-615.699Z"/>
<path transform="matrix(.1,0,0,-.1,0,792)" d="M4480.7 253.602 4713.7-615.699 5350.1 20.6992" fill="#abc252"/>
<path transform="matrix(.1,0,0,-.1,0,792)" stroke-width="20" stroke-linecap="butt" stroke-miterlimit="10" stroke-linejoin="miter" fill="none" stroke="#000000" d="M4480.7 253.602 4713.7-615.699 5350.1 20.6992Z"/>
<path transform="matrix(.1,0,0,-.1,0,792)" d="M5986.5 5873.1 6219.4 5003.7 6855.8 5640.1" fill="#abc252"/>
<path transform="matrix(.1,0,0,-.1,0,792)" stroke-width="20" stroke-linecap="butt" stroke-miterlimit="10" stroke-linejoin="miter" fill="none" stroke="#000000" d="M5986.5 5873.1 6219.4 5003.7 6855.8 5640.1Z"/>
<path transform="matrix(.1,0,0,-.1,0,792)" d="M5986.5 7145.9 6855.8 7378.8 6219.4 8015.2" fill="#477ab8"/>
<path transform="matrix(.1,0,0,-.1,0,792)" stroke-width="20" stroke-linecap="butt" stroke-miterlimit="10" stroke-linejoin="miter" fill="none" stroke="#000000" d="M5986.5 7145.9 6855.8 7378.8 6219.4 8015.2Z"/>
<path transform="matrix(.1,0,0,-.1,0,792)" d="M599.898 20.6992-36.5-615.699 832.898-848.699" fill="#abc252"/>
<path transform="matrix(.1,0,0,-.1,0,792)" stroke-width="20" stroke-linecap="butt" stroke-miterlimit="10" stroke-linejoin="miter" fill="none" stroke="#000000" d="M599.898 20.6992-36.5-615.699 832.898-848.699Z"/>
<path transform="matrix(.1,0,0,-.1,0,792)" d="M599.898 20.6992-269.398 253.602-36.5-615.699" fill="#058f57"/>
<path transform="matrix(.1,0,0,-.1,0,792)" stroke-width="20" stroke-linecap="butt" stroke-miterlimit="10" stroke-linejoin="miter" fill="none" stroke="#000000" d="M599.898 20.6992-269.398 253.602-36.5-615.699Z"/>
<path transform="matrix(.1,0,0,-.1,0,792)" d="M2338.6 20.6992 2105.7-848.699 2975-615.699" fill="#477ab8"/>
<path transform="matrix(.1,0,0,-.1,0,792)" stroke-width="20" stroke-linecap="butt" stroke-miterlimit="10" stroke-linejoin="miter" fill="none" stroke="#000000" d="M2338.6 20.6992 2105.7-848.699 2975-615.699Z"/>
<path transform="matrix(.1,0,0,-.1,0,792)" d="M3611.4 20.6992 2975-615.699 3844.3-848.699" fill="#abc252"/>
<path transform="matrix(.1,0,0,-.1,0,792)" stroke-width="20" stroke-linecap="butt" stroke-miterlimit="10" stroke-linejoin="miter" fill="none" stroke="#000000" d="M3611.4 20.6992 2975-615.699 3844.3-848.699Z"/>
<path transform="matrix(.1,0,0,-.1,0,792)" d="M4077.3 20.6992 3844.3-848.699 4713.7-615.699" fill="#477ab8"/>
<path transform="matrix(.1,0,0,-.1,0,792)" stroke-width="20" stroke-linecap="butt" stroke-miterlimit="10" stroke-linejoin="miter" fill="none" stroke="#000000" d="M4077.3 20.6992 3844.3-848.699 4713.7-615.699Z"/>
<path transform="matrix(.1,0,0,-.1,0,792)" d="M5350.1 20.6992 5583-848.699 6219.4-212.301" fill="#abc252"/>
<path transform="matrix(.1,0,0,-.1,0,792)" stroke-width="20" stroke-linecap="butt" stroke-miterlimit="10" stroke-linejoin="miter" fill="none" stroke="#000000" d="M5350.1 20.6992 5583-848.699 6219.4-212.301Z"/>
<path transform="matrix(.1,0,0,-.1,0,792)" d="M5350.1 20.6992 4713.7-615.699 5583-848.699" fill="#058f57"/>
<path transform="matrix(.1,0,0,-.1,0,792)" stroke-width="20" stroke-linecap="butt" stroke-miterlimit="10" stroke-linejoin="miter" fill="none" stroke="#000000" d="M5350.1 20.6992 4713.7-615.699 5583-848.699Z"/>
<path transform="matrix(.1,0,0,-.1,0,792)" d="M6219.4 8015.2 7088.7 8248.1 6855.8 7378.8 7492.2 8015.2 7725.1 7145.9 7958.1 8015.2 8594.5 7378.8 8361.5 8248.1 9230.9 8015.2 8594.5 8651.6 9463.8 8884.5 8594.5 9117.5 9230.9 9753.9 8361.5 9520.9 8594.5 10390.3 7958.1 9753.9 7725.1 10623.2 7492.2 9753.9 6855.8 10390.3 7088.7 9520.9 6219.4 9753.9 6855.8 9117.5 5986.5 8884.5 6855.8 8651.6" fill="#3b14fd"/>
<path transform="matrix(.1,0,0,-.1,0,792)" stroke-width="20" stroke-linecap="butt" stroke-miterlimit="10" stroke-linejoin="miter" fill="none" stroke="#000000" d="M6219.4 8015.2 7088.7 8248.1 6855.8 7378.8 7492.2 8015.2 7725.1 7145.9 7958.1 8015.2 8594.5 7378.8 8361.5 8248.1 9230.9 8015.2 8594.5 8651.6 9463.8 8884.5 8594.5 9117.5 9230.9 9753.9 8361.5 9520.9 8594.5 10390.3 7958.1 9753.9 7725.1 10623.2 7492.2 9753.9 6855.8 10390.3 7088.7 9520.9 6219.4 9753.9 6855.8 9117.5 5986.5 8884.5 6855.8 8651.6Z"/>
</svg>
