<svg xmlns="http://www.w3.org/2000/svg" xmlns:xlink="http://www.w3.org/1999/xlink" xmlns:inkscape="http://www.inkscape.org/namespaces/inkscape" version="1.1" width="612" height="792" viewBox="0 0 612 792">
<path transform="matrix(.1,0,0,-.1,0,792)" d="M3575 4210 3325 4643H2825L2575 4210 2825 3777H3325" fill="#009b84"/>
<path transform="matrix(.1,0,0,-.1,0,792)" stroke-width="20" stroke-linecap="butt" stroke-miterlimit="10" stroke-linejoin="miter" fill="none" stroke="#ffffff" d="M3575 4210 3325 4643H2825L2575 4210 2825 3777H3325Z"/>
<path transform="matrix(.1,0,0,-.1,0,792)" d="M2825 3777H2325L2075 3344H3075L3325 3777" fill="#404284"/>
<path transform="matrix(.1,0,0,-.1,0,792)" stroke-width="20" stroke-linecap="butt" stroke-miterlimit="10" stroke-linejoin="miter" fill="none" stroke="#ffffff" d="M2825 3777H2325L2075 3344H3075L3325 3777Z"/>
<path transform="matrix(.1,0,0,-.1,0,792)" d="M2825 3777 2575 4210 2325 4643H1825L2075 4210 2325 3777" fill="#404284"/>
<path transform="matrix(.1,0,0,-.1,0,792)" stroke-width="20" stroke-linecap="butt" stroke-miterlimit="10" stroke-linejoin="miter" fill="none" stroke="#ffffff" d="M2825 3777 2575 4210 2325 4643H1825L2075 4210 2325 3777Z"/>
<path transform="matrix(.1,0,0,-.1,0,792)" d="M2825 4643 3075 5076 2825 5509 2575 5076 2325 4643 2575 4210" fill="#404284"/>
<path transform="matrix(.1,0,0,-.1,0,792)" stroke-width="20" stroke-linecap="butt" stroke-miterlimit="10" stroke-linejoin="miter" fill="none" stroke="#ffffff" d="M2825 4643 3075 5076 2825 5509 2575 5076 2325 4643 2575 4210Z"/>
<path transform="matrix(.1,0,0,-.1,0,792)" d="M2825 4643H3825L4075 5076H3075Z" fill="#404284"/>
<path transform="matrix(.1,0,0,-.1,0,792)" stroke-width="20" stroke-linecap="butt" stroke-miterlimit="10" stroke-linejoin="miter" fill="none" stroke="#ffffff" d="M2825 4643H3825L4075 5076H3075Z"/>
<path transform="matrix(.1,0,0,-.1,0,792)" d="M3325 4643 3575 4210 3825 3777H4325L4075 4210 3825 4643" fill="#404284"/>
<path transform="matrix(.1,0,0,-.1,0,792)" stroke-width="20" stroke-linecap="butt" stroke-miterlimit="10" stroke-linejoin="miter" fill="none" stroke="#ffffff" d="M3325 4643 3575 4210 3825 3777H4325L4075 4210 3825 4643Z"/>
<path transform="matrix(.1,0,0,-.1,0,792)" d="M3325 3777 3075 3344 3325 2911 3575 3344 3825 3777 3575 4210" fill="#404284"/>
<path transform="matrix(.1,0,0,-.1,0,792)" stroke-width="20" stroke-linecap="butt" stroke-miterlimit="10" stroke-linejoin="miter" fill="none" stroke="#ffffff" d="M3325 3777 3075 3344 3325 2911 3575 3344 3825 3777 3575 4210Z"/>
<path transform="matrix(.1,0,0,-.1,0,792)" d="M2575 3344 2825 2911 3075 2477.9H3575L3325 2911 3075 3344" fill="#404284"/>
<path transform="matrix(.1,0,0,-.1,0,792)" stroke-width="20" stroke-linecap="butt" stroke-miterlimit="10" stroke-linejoin="miter" fill="none" stroke="#ffffff" d="M2575 3344 2825 2911 3075 2477.9H3575L3325 2911 3075 3344Z"/>
<path transform="matrix(.1,0,0,-.1,0,792)" d="M2575 3344H2075L1825 2911 2075 2477.9H2575L2825 2911" fill="#009b84"/>
<path transform="matrix(.1,0,0,-.1,0,792)" stroke-width="20" stroke-linecap="butt" stroke-miterlimit="10" stroke-linejoin="miter" fill="none" stroke="#ffffff" d="M2575 3344H2075L1825 2911 2075 2477.9H2575L2825 2911Z"/>
<path transform="matrix(.1,0,0,-.1,0,792)" d="M3575 3344H4575L4825 3777H3825Z" fill="#404284"/>
<path transform="matrix(.1,0,0,-.1,0,792)" stroke-width="20" stroke-linecap="butt" stroke-miterlimit="10" stroke-linejoin="miter" fill="none" stroke="#ffffff" d="M3575 3344H4575L4825 3777H3825Z"/>
<path transform="matrix(.1,0,0,-.1,0,792)" d="M3575 3344 3325 2911 3575 2477.9H4075L4325 2911 4075 3344" fill="#009b84"/>
<path transform="matrix(.1,0,0,-.1,0,792)" stroke-width="20" stroke-linecap="butt" stroke-miterlimit="10" stroke-linejoin="miter" fill="none" stroke="#ffffff" d="M3575 3344 3325 2911 3575 2477.9H4075L4325 2911 4075 3344Z"/>
<path transform="matrix(.1,0,0,-.1,0,792)" d="M3575 5076 3325 5509 3075 5942.1H2575L2825 5509 3075 5076" fill="#404284"/>
<path transform="matrix(.1,0,0,-.1,0,792)" stroke-width="20" stroke-linecap="butt" stroke-miterlimit="10" stroke-linejoin="miter" fill="none" stroke="#ffffff" d="M3575 5076 3325 5509 3075 5942.1H2575L2825 5509 3075 5076Z"/>
<path transform="matrix(.1,0,0,-.1,0,792)" d="M3575 5076H4075L4325 5509 4075 5942.1H3575L3325 5509" fill="#009b84"/>
<path transform="matrix(.1,0,0,-.1,0,792)" stroke-width="20" stroke-linecap="butt" stroke-miterlimit="10" stroke-linejoin="miter" fill="none" stroke="#ffffff" d="M3575 5076H4075L4325 5509 4075 5942.1H3575L3325 5509Z"/>
<path transform="matrix(.1,0,0,-.1,0,792)" d="M2575 5076H1575L1325 4643H2325Z" fill="#404284"/>
<path transform="matrix(.1,0,0,-.1,0,792)" stroke-width="20" stroke-linecap="butt" stroke-miterlimit="10" stroke-linejoin="miter" fill="none" stroke="#ffffff" d="M2575 5076H1575L1325 4643H2325Z"/>
<path transform="matrix(.1,0,0,-.1,0,792)" d="M2575 5076 2825 5509 2575 5942.1H2075L1825 5509 2075 5076" fill="#009b84"/>
<path transform="matrix(.1,0,0,-.1,0,792)" stroke-width="20" stroke-linecap="butt" stroke-miterlimit="10" stroke-linejoin="miter" fill="none" stroke="#ffffff" d="M2575 5076 2825 5509 2575 5942.1H2075L1825 5509 2075 5076Z"/>
<path transform="matrix(.1,0,0,-.1,0,792)" d="M2325 3777 2075 4210 1825 3777 1575 3344 1825 2911 2075 3344" fill="#404284"/>
<path transform="matrix(.1,0,0,-.1,0,792)" stroke-width="20" stroke-linecap="butt" stroke-miterlimit="10" stroke-linejoin="miter" fill="none" stroke="#ffffff" d="M2325 3777 2075 4210 1825 3777 1575 3344 1825 2911 2075 3344Z"/>
<path transform="matrix(.1,0,0,-.1,0,792)" d="M3825 4643 4075 4210 4325 4643 4575 5076 4325 5509 4075 5076" fill="#404284"/>
<path transform="matrix(.1,0,0,-.1,0,792)" stroke-width="20" stroke-linecap="butt" stroke-miterlimit="10" stroke-linejoin="miter" fill="none" stroke="#ffffff" d="M3825 4643 4075 4210 4325 4643 4575 5076 4325 5509 4075 5076Z"/>
<path transform="matrix(.1,0,0,-.1,0,792)" d="M2075 5076 1825 5509 1575 5942.1H1075L1325 5509 1575 5076" fill="#404284"/>
<path transform="matrix(.1,0,0,-.1,0,792)" stroke-width="20" stroke-linecap="butt" stroke-miterlimit="10" stroke-linejoin="miter" fill="none" stroke="#ffffff" d="M2075 5076 1825 5509 1575 5942.1H1075L1325 5509 1575 5076Z"/>
<path transform="matrix(.1,0,0,-.1,0,792)" d="M2075 4210 1825 4643H1325L1075 4210 1325 3777H1825" fill="#009b84"/>
<path transform="matrix(.1,0,0,-.1,0,792)" stroke-width="20" stroke-linecap="butt" stroke-miterlimit="10" stroke-linejoin="miter" fill="none" stroke="#ffffff" d="M2075 4210 1825 4643H1325L1075 4210 1325 3777H1825Z"/>
<path transform="matrix(.1,0,0,-.1,0,792)" d="M2825 2911 2575 2477.9 2325 2044.9 2575 1611.9 2825 2044.9 3075 2477.9" fill="#404284"/>
<path transform="matrix(.1,0,0,-.1,0,792)" stroke-width="20" stroke-linecap="butt" stroke-miterlimit="10" stroke-linejoin="miter" fill="none" stroke="#ffffff" d="M2825 2911 2575 2477.9 2325 2044.9 2575 1611.9 2825 2044.9 3075 2477.9Z"/>
<path transform="matrix(.1,0,0,-.1,0,792)" d="M3325 5509 3575 5942.1 3825 6375.1 3575 6808.1 3325 6375.1 3075 5942.1" fill="#404284"/>
<path transform="matrix(.1,0,0,-.1,0,792)" stroke-width="20" stroke-linecap="butt" stroke-miterlimit="10" stroke-linejoin="miter" fill="none" stroke="#ffffff" d="M3325 5509 3575 5942.1 3825 6375.1 3575 6808.1 3325 6375.1 3075 5942.1Z"/>
<path transform="matrix(.1,0,0,-.1,0,792)" d="M4075 3344 4325 2911 4575 2477.9H5075L4825 2911 4575 3344" fill="#404284"/>
<path transform="matrix(.1,0,0,-.1,0,792)" stroke-width="20" stroke-linecap="butt" stroke-miterlimit="10" stroke-linejoin="miter" fill="none" stroke="#ffffff" d="M4075 3344 4325 2911 4575 2477.9H5075L4825 2911 4575 3344Z"/>
<path transform="matrix(.1,0,0,-.1,0,792)" d="M4075 4210 4325 3777H4825L5075 4210 4825 4643H4325" fill="#009b84"/>
<path transform="matrix(.1,0,0,-.1,0,792)" stroke-width="20" stroke-linecap="butt" stroke-miterlimit="10" stroke-linejoin="miter" fill="none" stroke="#ffffff" d="M4075 4210 4325 3777H4825L5075 4210 4825 4643H4325Z"/>
<path transform="matrix(.1,0,0,-.1,0,792)" d="M1825 5509 2075 5942.1 2325 6375.1 2075 6808.1 1825 6375.1 1575 5942.1" fill="#404284"/>
<path transform="matrix(.1,0,0,-.1,0,792)" stroke-width="20" stroke-linecap="butt" stroke-miterlimit="10" stroke-linejoin="miter" fill="none" stroke="#ffffff" d="M1825 5509 2075 5942.1 2325 6375.1 2075 6808.1 1825 6375.1 1575 5942.1Z"/>
<path transform="matrix(.1,0,0,-.1,0,792)" d="M1825 3777H825L575 3344H1575Z" fill="#404284"/>
<path transform="matrix(.1,0,0,-.1,0,792)" stroke-width="20" stroke-linecap="butt" stroke-miterlimit="10" stroke-linejoin="miter" fill="none" stroke="#ffffff" d="M1825 3777H825L575 3344H1575Z"/>
<path transform="matrix(.1,0,0,-.1,0,792)" d="M1825 2911 1575 3344H1075L1325 2911 1575 2477.9H2075" fill="#404284"/>
<path transform="matrix(.1,0,0,-.1,0,792)" stroke-width="20" stroke-linecap="butt" stroke-miterlimit="10" stroke-linejoin="miter" fill="none" stroke="#ffffff" d="M1825 2911 1575 3344H1075L1325 2911 1575 2477.9H2075Z"/>
<path transform="matrix(.1,0,0,-.1,0,792)" d="M2075 2477.9H1575L1325 2044.9H2325L2575 2477.9" fill="#404284"/>
<path transform="matrix(.1,0,0,-.1,0,792)" stroke-width="20" stroke-linecap="butt" stroke-miterlimit="10" stroke-linejoin="miter" fill="none" stroke="#ffffff" d="M2075 2477.9H1575L1325 2044.9H2325L2575 2477.9Z"/>
<path transform="matrix(.1,0,0,-.1,0,792)" d="M3075 2477.9 2825 2044.9H3825L4075 2477.9H3575" fill="#404284"/>
<path transform="matrix(.1,0,0,-.1,0,792)" stroke-width="20" stroke-linecap="butt" stroke-miterlimit="10" stroke-linejoin="miter" fill="none" stroke="#ffffff" d="M3075 2477.9 2825 2044.9H3825L4075 2477.9H3575Z"/>
<path transform="matrix(.1,0,0,-.1,0,792)" d="M4075 2477.9 3825 2044.9 4075 1611.9 4325 2044.9 4575 2477.9 4325 2911" fill="#404284"/>
<path transform="matrix(.1,0,0,-.1,0,792)" stroke-width="20" stroke-linecap="butt" stroke-miterlimit="10" stroke-linejoin="miter" fill="none" stroke="#ffffff" d="M4075 2477.9 3825 2044.9 4075 1611.9 4325 2044.9 4575 2477.9 4325 2911Z"/>
<path transform="matrix(.1,0,0,-.1,0,792)" d="M4075 5942.1H4575L4825 6375.1H3825L3575 5942.1" fill="#404284"/>
<path transform="matrix(.1,0,0,-.1,0,792)" stroke-width="20" stroke-linecap="butt" stroke-miterlimit="10" stroke-linejoin="miter" fill="none" stroke="#ffffff" d="M4075 5942.1H4575L4825 6375.1H3825L3575 5942.1Z"/>
<path transform="matrix(.1,0,0,-.1,0,792)" d="M4075 5942.1 4325 5509 4575 5076H5075L4825 5509 4575 5942.1" fill="#404284"/>
<path transform="matrix(.1,0,0,-.1,0,792)" stroke-width="20" stroke-linecap="butt" stroke-miterlimit="10" stroke-linejoin="miter" fill="none" stroke="#ffffff" d="M4075 5942.1 4325 5509 4575 5076H5075L4825 5509 4575 5942.1Z"/>
<path transform="matrix(.1,0,0,-.1,0,792)" d="M3075 5942.1 3325 6375.1H2325L2075 5942.1H2575" fill="#404284"/>
<path transform="matrix(.1,0,0,-.1,0,792)" stroke-width="20" stroke-linecap="butt" stroke-miterlimit="10" stroke-linejoin="miter" fill="none" stroke="#ffffff" d="M3075 5942.1 3325 6375.1H2325L2075 5942.1H2575Z"/>
<path transform="matrix(.1,0,0,-.1,0,792)" d="M4325 4643H5325L5575 5076H4575Z" fill="#404284"/>
<path transform="matrix(.1,0,0,-.1,0,792)" stroke-width="20" stroke-linecap="butt" stroke-miterlimit="10" stroke-linejoin="miter" fill="none" stroke="#ffffff" d="M4325 4643H5325L5575 5076H4575Z"/>
<path transform="matrix(.1,0,0,-.1,0,792)" d="M1575 5942.1 1825 6375.1H825L575 5942.1H1075" fill="#404284"/>
<path transform="matrix(.1,0,0,-.1,0,792)" stroke-width="20" stroke-linecap="butt" stroke-miterlimit="10" stroke-linejoin="miter" fill="none" stroke="#ffffff" d="M1575 5942.1 1825 6375.1H825L575 5942.1H1075Z"/>
<path transform="matrix(.1,0,0,-.1,0,792)" d="M1575 5076 1325 5509 1075 5076 825 4643 1075 4210 1325 4643" fill="#404284"/>
<path transform="matrix(.1,0,0,-.1,0,792)" stroke-width="20" stroke-linecap="butt" stroke-miterlimit="10" stroke-linejoin="miter" fill="none" stroke="#ffffff" d="M1575 5076 1325 5509 1075 5076 825 4643 1075 4210 1325 4643Z"/>
<path transform="matrix(.1,0,0,-.1,0,792)" d="M1575 2477.9 1325 2911 1075 2477.9 825 2044.9 1075 1611.9 1325 2044.9" fill="#404284"/>
<path transform="matrix(.1,0,0,-.1,0,792)" stroke-width="20" stroke-linecap="butt" stroke-miterlimit="10" stroke-linejoin="miter" fill="none" stroke="#ffffff" d="M1575 2477.9 1325 2911 1075 2477.9 825 2044.9 1075 1611.9 1325 2044.9Z"/>
<path transform="matrix(.1,0,0,-.1,0,792)" d="M1825 2044.9 2075 1611.9 2325 1178.9H2825L2575 1611.9 2325 2044.9" fill="#404284"/>
<path transform="matrix(.1,0,0,-.1,0,792)" stroke-width="20" stroke-linecap="butt" stroke-miterlimit="10" stroke-linejoin="miter" fill="none" stroke="#ffffff" d="M1825 2044.9 2075 1611.9 2325 1178.9H2825L2575 1611.9 2325 2044.9Z"/>
<path transform="matrix(.1,0,0,-.1,0,792)" d="M1825 2044.9H1325L1075 1611.9 1325 1178.9H1825L2075 1611.9" fill="#009b84"/>
<path transform="matrix(.1,0,0,-.1,0,792)" stroke-width="20" stroke-linecap="butt" stroke-miterlimit="10" stroke-linejoin="miter" fill="none" stroke="#ffffff" d="M1825 2044.9H1325L1075 1611.9 1325 1178.9H1825L2075 1611.9Z"/>
<path transform="matrix(.1,0,0,-.1,0,792)" d="M2825 2044.9 2575 1611.9 2825 1178.9H3325L3575 1611.9 3325 2044.9" fill="#009b84"/>
<path transform="matrix(.1,0,0,-.1,0,792)" stroke-width="20" stroke-linecap="butt" stroke-miterlimit="10" stroke-linejoin="miter" fill="none" stroke="#ffffff" d="M2825 2044.9 2575 1611.9 2825 1178.9H3325L3575 1611.9 3325 2044.9Z"/>
<path transform="matrix(.1,0,0,-.1,0,792)" d="M3325 2044.9 3575 1611.9 3825 1178.9H4325L4075 1611.9 3825 2044.9" fill="#404284"/>
<path transform="matrix(.1,0,0,-.1,0,792)" stroke-width="20" stroke-linecap="butt" stroke-miterlimit="10" stroke-linejoin="miter" fill="none" stroke="#ffffff" d="M3325 2044.9 3575 1611.9 3825 1178.9H4325L4075 1611.9 3825 2044.9Z"/>
<path transform="matrix(.1,0,0,-.1,0,792)" d="M4325 2044.9H5325L5575 2477.9H4575Z" fill="#404284"/>
<path transform="matrix(.1,0,0,-.1,0,792)" stroke-width="20" stroke-linecap="butt" stroke-miterlimit="10" stroke-linejoin="miter" fill="none" stroke="#ffffff" d="M4325 2044.9H5325L5575 2477.9H4575Z"/>
<path transform="matrix(.1,0,0,-.1,0,792)" d="M4325 2044.9 4075 1611.9 4325 1178.9H4825L5075 1611.9 4825 2044.9" fill="#009b84"/>
<path transform="matrix(.1,0,0,-.1,0,792)" stroke-width="20" stroke-linecap="butt" stroke-miterlimit="10" stroke-linejoin="miter" fill="none" stroke="#ffffff" d="M4325 2044.9 4075 1611.9 4325 1178.9H4825L5075 1611.9 4825 2044.9Z"/>
<path transform="matrix(.1,0,0,-.1,0,792)" d="M4325 6375.1 4075 6808.1 3825 7241.1H3325L3575 6808.1 3825 6375.1" fill="#404284"/>
<path transform="matrix(.1,0,0,-.1,0,792)" stroke-width="20" stroke-linecap="butt" stroke-miterlimit="10" stroke-linejoin="miter" fill="none" stroke="#ffffff" d="M4325 6375.1 4075 6808.1 3825 7241.1H3325L3575 6808.1 3825 6375.1Z"/>
<path transform="matrix(.1,0,0,-.1,0,792)" d="M4325 6375.1H4825L5075 6808.1 4825 7241.1H4325L4075 6808.1" fill="#009b84"/>
<path transform="matrix(.1,0,0,-.1,0,792)" stroke-width="20" stroke-linecap="butt" stroke-miterlimit="10" stroke-linejoin="miter" fill="none" stroke="#ffffff" d="M4325 6375.1H4825L5075 6808.1 4825 7241.1H4325L4075 6808.1Z"/>
<path transform="matrix(.1,0,0,-.1,0,792)" d="M3325 6375.1 3575 6808.1 3325 7241.1H2825L2575 6808.1 2825 6375.1" fill="#009b84"/>
<path transform="matrix(.1,0,0,-.1,0,792)" stroke-width="20" stroke-linecap="butt" stroke-miterlimit="10" stroke-linejoin="miter" fill="none" stroke="#ffffff" d="M3325 6375.1 3575 6808.1 3325 7241.1H2825L2575 6808.1 2825 6375.1Z"/>
<path transform="matrix(.1,0,0,-.1,0,792)" d="M2825 6375.1 2575 6808.1 2325 7241.1H1825L2075 6808.1 2325 6375.1" fill="#404284"/>
<path transform="matrix(.1,0,0,-.1,0,792)" stroke-width="20" stroke-linecap="butt" stroke-miterlimit="10" stroke-linejoin="miter" fill="none" stroke="#ffffff" d="M2825 6375.1 2575 6808.1 2325 7241.1H1825L2075 6808.1 2325 6375.1Z"/>
<path transform="matrix(.1,0,0,-.1,0,792)" d="M1825 6375.1 2075 6808.1 1825 7241.1H1325L1075 6808.1 1325 6375.1" fill="#009b84"/>
<path transform="matrix(.1,0,0,-.1,0,792)" stroke-width="20" stroke-linecap="butt" stroke-miterlimit="10" stroke-linejoin="miter" fill="none" stroke="#ffffff" d="M1825 6375.1 2075 6808.1 1825 7241.1H1325L1075 6808.1 1325 6375.1Z"/>
<path transform="matrix(.1,0,0,-.1,0,792)" d="M4575 3344 4825 2911 5075 3344 5325 3777 5075 4210 4825 3777" fill="#404284"/>
<path transform="matrix(.1,0,0,-.1,0,792)" stroke-width="20" stroke-linecap="butt" stroke-miterlimit="10" stroke-linejoin="miter" fill="none" stroke="#ffffff" d="M4575 3344 4825 2911 5075 3344 5325 3777 5075 4210 4825 3777Z"/>
<path transform="matrix(.1,0,0,-.1,0,792)" d="M4575 5942.1 4825 5509 5075 5942.1 5325 6375.1 5075 6808.1 4825 6375.1" fill="#404284"/>
<path transform="matrix(.1,0,0,-.1,0,792)" stroke-width="20" stroke-linecap="butt" stroke-miterlimit="10" stroke-linejoin="miter" fill="none" stroke="#ffffff" d="M4575 5942.1 4825 5509 5075 5942.1 5325 6375.1 5075 6808.1 4825 6375.1Z"/>
<path transform="matrix(.1,0,0,-.1,0,792)" d="M1325 6375.1 1075 6808.1 825 7241.1H325L575 6808.1 825 6375.1" fill="#404284"/>
<path transform="matrix(.1,0,0,-.1,0,792)" stroke-width="20" stroke-linecap="butt" stroke-miterlimit="10" stroke-linejoin="miter" fill="none" stroke="#ffffff" d="M1325 6375.1 1075 6808.1 825 7241.1H325L575 6808.1 825 6375.1Z"/>
<path transform="matrix(.1,0,0,-.1,0,792)" d="M1325 5509 1075 5942.1H575L325 5509 575 5076H1075" fill="#009b84"/>
<path transform="matrix(.1,0,0,-.1,0,792)" stroke-width="20" stroke-linecap="butt" stroke-miterlimit="10" stroke-linejoin="miter" fill="none" stroke="#ffffff" d="M1325 5509 1075 5942.1H575L325 5509 575 5076H1075Z"/>
<path transform="matrix(.1,0,0,-.1,0,792)" d="M1325 3777 1075 4210 825 4643H325L575 4210 825 3777" fill="#404284"/>
<path transform="matrix(.1,0,0,-.1,0,792)" stroke-width="20" stroke-linecap="butt" stroke-miterlimit="10" stroke-linejoin="miter" fill="none" stroke="#ffffff" d="M1325 3777 1075 4210 825 4643H325L575 4210 825 3777Z"/>
<path transform="matrix(.1,0,0,-.1,0,792)" d="M1325 2911 1075 3344H575L325 2911 575 2477.9H1075" fill="#009b84"/>
<path transform="matrix(.1,0,0,-.1,0,792)" stroke-width="20" stroke-linecap="butt" stroke-miterlimit="10" stroke-linejoin="miter" fill="none" stroke="#ffffff" d="M1325 2911 1075 3344H575L325 2911 575 2477.9H1075Z"/>
<path transform="matrix(.1,0,0,-.1,0,792)" d="M4825 2044.9 5075 1611.9 5325 1178.9H5825L5575 1611.9 5325 2044.9" fill="#404284"/>
<path transform="matrix(.1,0,0,-.1,0,792)" stroke-width="20" stroke-linecap="butt" stroke-miterlimit="10" stroke-linejoin="miter" fill="none" stroke="#ffffff" d="M4825 2044.9 5075 1611.9 5325 1178.9H5825L5575 1611.9 5325 2044.9Z"/>
<path transform="matrix(.1,0,0,-.1,0,792)" d="M4825 2911 5075 2477.9H5575L5825 2911 5575 3344H5075" fill="#009b84"/>
<path transform="matrix(.1,0,0,-.1,0,792)" stroke-width="20" stroke-linecap="butt" stroke-miterlimit="10" stroke-linejoin="miter" fill="none" stroke="#ffffff" d="M4825 2911 5075 2477.9H5575L5825 2911 5575 3344H5075Z"/>
<path transform="matrix(.1,0,0,-.1,0,792)" d="M4825 4643 5075 4210 5325 3777H5825L5575 4210 5325 4643" fill="#404284"/>
<path transform="matrix(.1,0,0,-.1,0,792)" stroke-width="20" stroke-linecap="butt" stroke-miterlimit="10" stroke-linejoin="miter" fill="none" stroke="#ffffff" d="M4825 4643 5075 4210 5325 3777H5825L5575 4210 5325 4643Z"/>
<path transform="matrix(.1,0,0,-.1,0,792)" d="M4825 5509 5075 5076H5575L5825 5509 5575 5942.1H5075" fill="#009b84"/>
<path transform="matrix(.1,0,0,-.1,0,792)" stroke-width="20" stroke-linecap="butt" stroke-miterlimit="10" stroke-linejoin="miter" fill="none" stroke="#ffffff" d="M4825 5509 5075 5076H5575L5825 5509 5575 5942.1H5075Z"/>
<path transform="matrix(.1,0,0,-.1,0,792)" d="M4075 6808.1 4325 7241.1 4575 7674.1 4325 8107.1 4075 7674.1 3825 7241.1" fill="#404284"/>
<path transform="matrix(.1,0,0,-.1,0,792)" stroke-width="20" stroke-linecap="butt" stroke-miterlimit="10" stroke-linejoin="miter" fill="none" stroke="#ffffff" d="M4075 6808.1 4325 7241.1 4575 7674.1 4325 8107.1 4075 7674.1 3825 7241.1Z"/>
<path transform="matrix(.1,0,0,-.1,0,792)" d="M2575 6808.1 2825 7241.1 3075 7674.1 2825 8107.1 2575 7674.1 2325 7241.1" fill="#404284"/>
<path transform="matrix(.1,0,0,-.1,0,792)" stroke-width="20" stroke-linecap="butt" stroke-miterlimit="10" stroke-linejoin="miter" fill="none" stroke="#ffffff" d="M2575 6808.1 2825 7241.1 3075 7674.1 2825 8107.1 2575 7674.1 2325 7241.1Z"/>
<path transform="matrix(.1,0,0,-.1,0,792)" d="M2075 1611.9 1825 1178.9 1575 745.898 1825 312.898 2075 745.898 2325 1178.9" fill="#404284"/>
<path transform="matrix(.1,0,0,-.1,0,792)" stroke-width="20" stroke-linecap="butt" stroke-miterlimit="10" stroke-linejoin="miter" fill="none" stroke="#ffffff" d="M2075 1611.9 1825 1178.9 1575 745.898 1825 312.898 2075 745.898 2325 1178.9Z"/>
<path transform="matrix(.1,0,0,-.1,0,792)" d="M3575 1611.9 3325 1178.9 3075 745.898 3325 312.898 3575 745.898 3825 1178.9" fill="#404284"/>
<path transform="matrix(.1,0,0,-.1,0,792)" stroke-width="20" stroke-linecap="butt" stroke-miterlimit="10" stroke-linejoin="miter" fill="none" stroke="#ffffff" d="M3575 1611.9 3325 1178.9 3075 745.898 3325 312.898 3575 745.898 3825 1178.9Z"/>
<path transform="matrix(.1,0,0,-.1,0,792)" d="M1075 6808.1 1325 7241.1 1575 7674.1 1325 8107.1 1075 7674.1 825 7241.1" fill="#404284"/>
<path transform="matrix(.1,0,0,-.1,0,792)" stroke-width="20" stroke-linecap="butt" stroke-miterlimit="10" stroke-linejoin="miter" fill="none" stroke="#ffffff" d="M1075 6808.1 1325 7241.1 1575 7674.1 1325 8107.1 1075 7674.1 825 7241.1Z"/>
<path transform="matrix(.1,0,0,-.1,0,792)" d="M1075 5076H75L-175 4643H825Z" fill="#404284"/>
<path transform="matrix(.1,0,0,-.1,0,792)" stroke-width="20" stroke-linecap="butt" stroke-miterlimit="10" stroke-linejoin="miter" fill="none" stroke="#ffffff" d="M1075 5076H75L-175 4643H825Z"/>
<path transform="matrix(.1,0,0,-.1,0,792)" d="M1075 2477.9H75L-175 2044.9H825Z" fill="#404284"/>
<path transform="matrix(.1,0,0,-.1,0,792)" stroke-width="20" stroke-linecap="butt" stroke-miterlimit="10" stroke-linejoin="miter" fill="none" stroke="#ffffff" d="M1075 2477.9H75L-175 2044.9H825Z"/>
<path transform="matrix(.1,0,0,-.1,0,792)" d="M1075 1611.9 825 2044.9H325L575 1611.9 825 1178.9H1325" fill="#404284"/>
<path transform="matrix(.1,0,0,-.1,0,792)" stroke-width="20" stroke-linecap="butt" stroke-miterlimit="10" stroke-linejoin="miter" fill="none" stroke="#ffffff" d="M1075 1611.9 825 2044.9H325L575 1611.9 825 1178.9H1325Z"/>
<path transform="matrix(.1,0,0,-.1,0,792)" d="M5075 1611.9 4825 1178.9 4575 745.898 4825 312.898 5075 745.898 5325 1178.9" fill="#404284"/>
<path transform="matrix(.1,0,0,-.1,0,792)" stroke-width="20" stroke-linecap="butt" stroke-miterlimit="10" stroke-linejoin="miter" fill="none" stroke="#ffffff" d="M5075 1611.9 4825 1178.9 4575 745.898 4825 312.898 5075 745.898 5325 1178.9Z"/>
<path transform="matrix(.1,0,0,-.1,0,792)" d="M5075 3344H6075L6325 3777H5325Z" fill="#404284"/>
<path transform="matrix(.1,0,0,-.1,0,792)" stroke-width="20" stroke-linecap="butt" stroke-miterlimit="10" stroke-linejoin="miter" fill="none" stroke="#ffffff" d="M5075 3344H6075L6325 3777H5325Z"/>
<path transform="matrix(.1,0,0,-.1,0,792)" d="M5075 5942.1H6075L6325 6375.1H5325Z" fill="#404284"/>
<path transform="matrix(.1,0,0,-.1,0,792)" stroke-width="20" stroke-linecap="butt" stroke-miterlimit="10" stroke-linejoin="miter" fill="none" stroke="#ffffff" d="M5075 5942.1H6075L6325 6375.1H5325Z"/>
<path transform="matrix(.1,0,0,-.1,0,792)" d="M5075 6808.1 5325 6375.1H5825L5575 6808.1 5325 7241.1H4825" fill="#404284"/>
<path transform="matrix(.1,0,0,-.1,0,792)" stroke-width="20" stroke-linecap="butt" stroke-miterlimit="10" stroke-linejoin="miter" fill="none" stroke="#ffffff" d="M5075 6808.1 5325 6375.1H5825L5575 6808.1 5325 7241.1H4825Z"/>
<path transform="matrix(.1,0,0,-.1,0,792)" d="M825 6375.1 575 6808.1 325 6375.1 75 5942.1 325 5509 575 5942.1" fill="#404284"/>
<path transform="matrix(.1,0,0,-.1,0,792)" stroke-width="20" stroke-linecap="butt" stroke-miterlimit="10" stroke-linejoin="miter" fill="none" stroke="#ffffff" d="M825 6375.1 575 6808.1 325 6375.1 75 5942.1 325 5509 575 5942.1Z"/>
<path transform="matrix(.1,0,0,-.1,0,792)" d="M825 3777 575 4210 325 3777 75 3344 325 2911 575 3344" fill="#404284"/>
<path transform="matrix(.1,0,0,-.1,0,792)" stroke-width="20" stroke-linecap="butt" stroke-miterlimit="10" stroke-linejoin="miter" fill="none" stroke="#ffffff" d="M825 3777 575 4210 325 3777 75 3344 325 2911 575 3344Z"/>
<path transform="matrix(.1,0,0,-.1,0,792)" d="M825 1178.9 575 745.898H1575L1825 1178.9H1325" fill="#404284"/>
<path transform="matrix(.1,0,0,-.1,0,792)" stroke-width="20" stroke-linecap="butt" stroke-miterlimit="10" stroke-linejoin="miter" fill="none" stroke="#ffffff" d="M825 1178.9 575 745.898H1575L1825 1178.9H1325Z"/>
<path transform="matrix(.1,0,0,-.1,0,792)" d="M825 1178.9 575 1611.9 325 1178.9 75 745.898 325 312.898 575 745.898" fill="#404284"/>
<path transform="matrix(.1,0,0,-.1,0,792)" stroke-width="20" stroke-linecap="butt" stroke-miterlimit="10" stroke-linejoin="miter" fill="none" stroke="#ffffff" d="M825 1178.9 575 1611.9 325 1178.9 75 745.898 325 312.898 575 745.898Z"/>
<path transform="matrix(.1,0,0,-.1,0,792)" d="M2325 1178.9 2075 745.898H3075L3325 1178.9H2825" fill="#404284"/>
<path transform="matrix(.1,0,0,-.1,0,792)" stroke-width="20" stroke-linecap="butt" stroke-miterlimit="10" stroke-linejoin="miter" fill="none" stroke="#ffffff" d="M2325 1178.9 2075 745.898H3075L3325 1178.9H2825Z"/>
<path transform="matrix(.1,0,0,-.1,0,792)" d="M3825 1178.9 3575 745.898H4575L4825 1178.9H4325" fill="#404284"/>
<path transform="matrix(.1,0,0,-.1,0,792)" stroke-width="20" stroke-linecap="butt" stroke-miterlimit="10" stroke-linejoin="miter" fill="none" stroke="#ffffff" d="M3825 1178.9 3575 745.898H4575L4825 1178.9H4325Z"/>
<path transform="matrix(.1,0,0,-.1,0,792)" d="M4825 7241.1H5325L5575 7674.1H4575L4325 7241.1" fill="#404284"/>
<path transform="matrix(.1,0,0,-.1,0,792)" stroke-width="20" stroke-linecap="butt" stroke-miterlimit="10" stroke-linejoin="miter" fill="none" stroke="#ffffff" d="M4825 7241.1H5325L5575 7674.1H4575L4325 7241.1Z"/>
<path transform="matrix(.1,0,0,-.1,0,792)" d="M3825 7241.1 4075 7674.1H3075L2825 7241.1H3325" fill="#404284"/>
<path transform="matrix(.1,0,0,-.1,0,792)" stroke-width="20" stroke-linecap="butt" stroke-miterlimit="10" stroke-linejoin="miter" fill="none" stroke="#ffffff" d="M3825 7241.1 4075 7674.1H3075L2825 7241.1H3325Z"/>
<path transform="matrix(.1,0,0,-.1,0,792)" d="M2325 7241.1 2575 7674.1H1575L1325 7241.1H1825" fill="#404284"/>
<path transform="matrix(.1,0,0,-.1,0,792)" stroke-width="20" stroke-linecap="butt" stroke-miterlimit="10" stroke-linejoin="miter" fill="none" stroke="#ffffff" d="M2325 7241.1 2575 7674.1H1575L1325 7241.1H1825Z"/>
<path transform="matrix(.1,0,0,-.1,0,792)" d="M825 7241.1 1075 7674.1H75L-175 7241.1H325" fill="#404284"/>
<path transform="matrix(.1,0,0,-.1,0,792)" stroke-width="20" stroke-linecap="butt" stroke-miterlimit="10" stroke-linejoin="miter" fill="none" stroke="#ffffff" d="M825 7241.1 1075 7674.1H75L-175 7241.1H325Z"/>
<path transform="matrix(.1,0,0,-.1,0,792)" d="M5325 1178.9 5075 745.898H6075L6325 1178.9H5825" fill="#404284"/>
<path transform="matrix(.1,0,0,-.1,0,792)" stroke-width="20" stroke-linecap="butt" stroke-miterlimit="10" stroke-linejoin="miter" fill="none" stroke="#ffffff" d="M5325 1178.9 5075 745.898H6075L6325 1178.9H5825Z"/>
<path transform="matrix(.1,0,0,-.1,0,792)" d="M5325 2044.9 5575 1611.9 5825 2044.9 6075 2477.9 5825 2911 5575 2477.9" fill="#404284"/>
<path transform="matrix(.1,0,0,-.1,0,792)" stroke-width="20" stroke-linecap="butt" stroke-miterlimit="10" stroke-linejoin="miter" fill="none" stroke="#ffffff" d="M5325 2044.9 5575 1611.9 5825 2044.9 6075 2477.9 5825 2911 5575 2477.9Z"/>
<path transform="matrix(.1,0,0,-.1,0,792)" d="M5325 4643 5575 4210 5825 4643 6075 5076 5825 5509 5575 5076" fill="#404284"/>
<path transform="matrix(.1,0,0,-.1,0,792)" stroke-width="20" stroke-linecap="butt" stroke-miterlimit="10" stroke-linejoin="miter" fill="none" stroke="#ffffff" d="M5325 4643 5575 4210 5825 4643 6075 5076 5825 5509 5575 5076Z"/>
<path transform="matrix(.1,0,0,-.1,0,792)" d="M5325 7241.1 5575 6808.1 5825 7241.1 6075 7674.1 5825 8107.1 5575 7674.1" fill="#404284"/>
<path transform="matrix(.1,0,0,-.1,0,792)" stroke-width="20" stroke-linecap="butt" stroke-miterlimit="10" stroke-linejoin="miter" fill="none" stroke="#ffffff" d="M5325 7241.1 5575 6808.1 5825 7241.1 6075 7674.1 5825 8107.1 5575 7674.1Z"/>
<path transform="matrix(.1,0,0,-.1,0,792)" d="M575 6808.1 325 7241.1H-175L-425 6808.1-175 6375.1H325" fill="#009b84"/>
<path transform="matrix(.1,0,0,-.1,0,792)" stroke-width="20" stroke-linecap="butt" stroke-miterlimit="10" stroke-linejoin="miter" fill="none" stroke="#ffffff" d="M575 6808.1 325 7241.1H-175L-425 6808.1-175 6375.1H325Z"/>
<path transform="matrix(.1,0,0,-.1,0,792)" d="M575 5076 325 5509 75 5942.1H-425L-175 5509 75 5076" fill="#404284"/>
<path transform="matrix(.1,0,0,-.1,0,792)" stroke-width="20" stroke-linecap="butt" stroke-miterlimit="10" stroke-linejoin="miter" fill="none" stroke="#ffffff" d="M575 5076 325 5509 75 5942.1H-425L-175 5509 75 5076Z"/>
<path transform="matrix(.1,0,0,-.1,0,792)" d="M575 4210 325 4643H-175L-425 4210-175 3777H325" fill="#009b84"/>
<path transform="matrix(.1,0,0,-.1,0,792)" stroke-width="20" stroke-linecap="butt" stroke-miterlimit="10" stroke-linejoin="miter" fill="none" stroke="#ffffff" d="M575 4210 325 4643H-175L-425 4210-175 3777H325Z"/>
<path transform="matrix(.1,0,0,-.1,0,792)" d="M575 2477.9 325 2911 75 3344H-425L-175 2911 75 2477.9" fill="#404284"/>
<path transform="matrix(.1,0,0,-.1,0,792)" stroke-width="20" stroke-linecap="butt" stroke-miterlimit="10" stroke-linejoin="miter" fill="none" stroke="#ffffff" d="M575 2477.9 325 2911 75 3344H-425L-175 2911 75 2477.9Z"/>
<path transform="matrix(.1,0,0,-.1,0,792)" d="M575 1611.9 325 2044.9H-175L-425 1611.9-175 1178.9H325" fill="#009b84"/>
<path transform="matrix(.1,0,0,-.1,0,792)" stroke-width="20" stroke-linecap="butt" stroke-miterlimit="10" stroke-linejoin="miter" fill="none" stroke="#ffffff" d="M575 1611.9 325 2044.9H-175L-425 1611.9-175 1178.9H325Z"/>
<path transform="matrix(.1,0,0,-.1,0,792)" d="M575 745.898 325 312.898 575-120.102H1075L1325 312.898 1075 745.898" fill="#009b84"/>
<path transform="matrix(.1,0,0,-.1,0,792)" stroke-width="20" stroke-linecap="butt" stroke-miterlimit="10" stroke-linejoin="miter" fill="none" stroke="#ffffff" d="M575 745.898 325 312.898 575-120.102H1075L1325 312.898 1075 745.898Z"/>
<path transform="matrix(.1,0,0,-.1,0,792)" d="M1075 745.898 1325 312.898 1575-120.102H2075L1825 312.898 1575 745.898" fill="#404284"/>
<path transform="matrix(.1,0,0,-.1,0,792)" stroke-width="20" stroke-linecap="butt" stroke-miterlimit="10" stroke-linejoin="miter" fill="none" stroke="#ffffff" d="M1075 745.898 1325 312.898 1575-120.102H2075L1825 312.898 1575 745.898Z"/>
<path transform="matrix(.1,0,0,-.1,0,792)" d="M2075 745.898 1825 312.898 2075-120.102H2575L2825 312.898 2575 745.898" fill="#009b84"/>
<path transform="matrix(.1,0,0,-.1,0,792)" stroke-width="20" stroke-linecap="butt" stroke-miterlimit="10" stroke-linejoin="miter" fill="none" stroke="#ffffff" d="M2075 745.898 1825 312.898 2075-120.102H2575L2825 312.898 2575 745.898Z"/>
<path transform="matrix(.1,0,0,-.1,0,792)" d="M2575 745.898 2825 312.898 3075-120.102H3575L3325 312.898 3075 745.898" fill="#404284"/>
<path transform="matrix(.1,0,0,-.1,0,792)" stroke-width="20" stroke-linecap="butt" stroke-miterlimit="10" stroke-linejoin="miter" fill="none" stroke="#ffffff" d="M2575 745.898 2825 312.898 3075-120.102H3575L3325 312.898 3075 745.898Z"/>
<path transform="matrix(.1,0,0,-.1,0,792)" d="M3575 745.898 3325 312.898 3575-120.102H4075L4325 312.898 4075 745.898" fill="#009b84"/>
<path transform="matrix(.1,0,0,-.1,0,792)" stroke-width="20" stroke-linecap="butt" stroke-miterlimit="10" stroke-linejoin="miter" fill="none" stroke="#ffffff" d="M3575 745.898 3325 312.898 3575-120.102H4075L4325 312.898 4075 745.898Z"/>
<path transform="matrix(.1,0,0,-.1,0,792)" d="M4075 745.898 4325 312.898 4575-120.102H5075L4825 312.898 4575 745.898" fill="#404284"/>
<path transform="matrix(.1,0,0,-.1,0,792)" stroke-width="20" stroke-linecap="butt" stroke-miterlimit="10" stroke-linejoin="miter" fill="none" stroke="#ffffff" d="M4075 745.898 4325 312.898 4575-120.102H5075L4825 312.898 4575 745.898Z"/>
<path transform="matrix(.1,0,0,-.1,0,792)" d="M5075 745.898 4825 312.898 5075-120.102H5575L5825 312.898 5575 745.898" fill="#009b84"/>
<path transform="matrix(.1,0,0,-.1,0,792)" stroke-width="20" stroke-linecap="butt" stroke-miterlimit="10" stroke-linejoin="miter" fill="none" stroke="#ffffff" d="M5075 745.898 4825 312.898 5075-120.102H5575L5825 312.898 5575 745.898Z"/>
<path transform="matrix(.1,0,0,-.1,0,792)" d="M5075 7674.1 4825 8107.1 4575 8540.1H4075L4325 8107.1 4575 7674.1" fill="#404284"/>
<path transform="matrix(.1,0,0,-.1,0,792)" stroke-width="20" stroke-linecap="butt" stroke-miterlimit="10" stroke-linejoin="miter" fill="none" stroke="#ffffff" d="M5075 7674.1 4825 8107.1 4575 8540.1H4075L4325 8107.1 4575 7674.1Z"/>
<path transform="matrix(.1,0,0,-.1,0,792)" d="M5075 7674.1H5575L5825 8107.1 5575 8540.1H5075L4825 8107.1" fill="#009b84"/>
<path transform="matrix(.1,0,0,-.1,0,792)" stroke-width="20" stroke-linecap="butt" stroke-miterlimit="10" stroke-linejoin="miter" fill="none" stroke="#ffffff" d="M5075 7674.1H5575L5825 8107.1 5575 8540.1H5075L4825 8107.1Z"/>
<path transform="matrix(.1,0,0,-.1,0,792)" d="M4075 7674.1 4325 8107.1 4075 8540.1H3575L3325 8107.1 3575 7674.1" fill="#009b84"/>
<path transform="matrix(.1,0,0,-.1,0,792)" stroke-width="20" stroke-linecap="butt" stroke-miterlimit="10" stroke-linejoin="miter" fill="none" stroke="#ffffff" d="M4075 7674.1 4325 8107.1 4075 8540.1H3575L3325 8107.1 3575 7674.1Z"/>
<path transform="matrix(.1,0,0,-.1,0,792)" d="M3575 7674.1 3325 8107.1 3075 8540.1H2575L2825 8107.1 3075 7674.1" fill="#404284"/>
<path transform="matrix(.1,0,0,-.1,0,792)" stroke-width="20" stroke-linecap="butt" stroke-miterlimit="10" stroke-linejoin="miter" fill="none" stroke="#ffffff" d="M3575 7674.1 3325 8107.1 3075 8540.1H2575L2825 8107.1 3075 7674.1Z"/>
<path transform="matrix(.1,0,0,-.1,0,792)" d="M2575 7674.1 2825 8107.1 2575 8540.1H2075L1825 8107.1 2075 7674.1" fill="#009b84"/>
<path transform="matrix(.1,0,0,-.1,0,792)" stroke-width="20" stroke-linecap="butt" stroke-miterlimit="10" stroke-linejoin="miter" fill="none" stroke="#ffffff" d="M2575 7674.1 2825 8107.1 2575 8540.1H2075L1825 8107.1 2075 7674.1Z"/>
<path transform="matrix(.1,0,0,-.1,0,792)" d="M2075 7674.1 1825 8107.1 1575 8540.1H1075L1325 8107.1 1575 7674.1" fill="#404284"/>
<path transform="matrix(.1,0,0,-.1,0,792)" stroke-width="20" stroke-linecap="butt" stroke-miterlimit="10" stroke-linejoin="miter" fill="none" stroke="#ffffff" d="M2075 7674.1 1825 8107.1 1575 8540.1H1075L1325 8107.1 1575 7674.1Z"/>
<path transform="matrix(.1,0,0,-.1,0,792)" d="M1075 7674.1 1325 8107.1 1075 8540.1H575L325 8107.1 575 7674.1" fill="#009b84"/>
<path transform="matrix(.1,0,0,-.1,0,792)" stroke-width="20" stroke-linecap="butt" stroke-miterlimit="10" stroke-linejoin="miter" fill="none" stroke="#ffffff" d="M1075 7674.1 1325 8107.1 1075 8540.1H575L325 8107.1 575 7674.1Z"/>
<path transform="matrix(.1,0,0,-.1,0,792)" d="M575 7674.1 325 8107.1 75 8540.1H-425L-175 8107.1 75 7674.1" fill="#404284"/>
<path transform="matrix(.1,0,0,-.1,0,792)" stroke-width="20" stroke-linecap="butt" stroke-miterlimit="10" stroke-linejoin="miter" fill="none" stroke="#ffffff" d="M575 7674.1 325 8107.1 75 8540.1H-425L-175 8107.1 75 7674.1Z"/>
<path transform="matrix(.1,0,0,-.1,0,792)" d="M5575 745.898 5825 312.898 6075-120.102H6575L6325 312.898 6075 745.898" fill="#404284"/>
<path transform="matrix(.1,0,0,-.1,0,792)" stroke-width="20" stroke-linecap="butt" stroke-miterlimit="10" stroke-linejoin="miter" fill="none" stroke="#ffffff" d="M5575 745.898 5825 312.898 6075-120.102H6575L6325 312.898 6075 745.898Z"/>
<path transform="matrix(.1,0,0,-.1,0,792)" d="M5575 1611.9 5825 1178.9H6325L6575 1611.9 6325 2044.9H5825" fill="#009b84"/>
<path transform="matrix(.1,0,0,-.1,0,792)" stroke-width="20" stroke-linecap="butt" stroke-miterlimit="10" stroke-linejoin="miter" fill="none" stroke="#ffffff" d="M5575 1611.9 5825 1178.9H6325L6575 1611.9 6325 2044.9H5825Z"/>
<path transform="matrix(.1,0,0,-.1,0,792)" d="M5575 3344 5825 2911 6075 2477.9H6575L6325 2911 6075 3344" fill="#404284"/>
<path transform="matrix(.1,0,0,-.1,0,792)" stroke-width="20" stroke-linecap="butt" stroke-miterlimit="10" stroke-linejoin="miter" fill="none" stroke="#ffffff" d="M5575 3344 5825 2911 6075 2477.9H6575L6325 2911 6075 3344Z"/>
<path transform="matrix(.1,0,0,-.1,0,792)" d="M5575 4210 5825 3777H6325L6575 4210 6325 4643H5825" fill="#009b84"/>
<path transform="matrix(.1,0,0,-.1,0,792)" stroke-width="20" stroke-linecap="butt" stroke-miterlimit="10" stroke-linejoin="miter" fill="none" stroke="#ffffff" d="M5575 4210 5825 3777H6325L6575 4210 6325 4643H5825Z"/>
<path transform="matrix(.1,0,0,-.1,0,792)" d="M5575 5942.1 5825 5509 6075 5076H6575L6325 5509 6075 5942.1" fill="#404284"/>
<path transform="matrix(.1,0,0,-.1,0,792)" stroke-width="20" stroke-linecap="butt" stroke-miterlimit="10" stroke-linejoin="miter" fill="none" stroke="#ffffff" d="M5575 5942.1 5825 5509 6075 5076H6575L6325 5509 6075 5942.1Z"/>
<path transform="matrix(.1,0,0,-.1,0,792)" d="M5575 6808.1 5825 6375.1H6325L6575 6808.1 6325 7241.1H5825" fill="#009b84"/>
<path transform="matrix(.1,0,0,-.1,0,792)" stroke-width="20" stroke-linecap="butt" stroke-miterlimit="10" stroke-linejoin="miter" fill="none" stroke="#ffffff" d="M5575 6808.1 5825 6375.1H6325L6575 6808.1 6325 7241.1H5825Z"/>
<path transform="matrix(.1,0,0,-.1,0,792)" d="M325 6375.1H-675L-925 5942.1H75Z" fill="#404284"/>
<path transform="matrix(.1,0,0,-.1,0,792)" stroke-width="20" stroke-linecap="butt" stroke-miterlimit="10" stroke-linejoin="miter" fill="none" stroke="#ffffff" d="M325 6375.1H-675L-925 5942.1H75Z"/>
<path transform="matrix(.1,0,0,-.1,0,792)" d="M325 3777H-675L-925 3344H75Z" fill="#404284"/>
<path transform="matrix(.1,0,0,-.1,0,792)" stroke-width="20" stroke-linecap="butt" stroke-miterlimit="10" stroke-linejoin="miter" fill="none" stroke="#ffffff" d="M325 3777H-675L-925 3344H75Z"/>
<path transform="matrix(.1,0,0,-.1,0,792)" d="M325 1178.9H-675L-925 745.898H75Z" fill="#404284"/>
<path transform="matrix(.1,0,0,-.1,0,792)" stroke-width="20" stroke-linecap="butt" stroke-miterlimit="10" stroke-linejoin="miter" fill="none" stroke="#ffffff" d="M325 1178.9H-675L-925 745.898H75Z"/>
<path transform="matrix(.1,0,0,-.1,0,792)" d="M325 312.898 75 745.898H-425L-175 312.898 75-120.102H575" fill="#404284"/>
<path transform="matrix(.1,0,0,-.1,0,792)" stroke-width="20" stroke-linecap="butt" stroke-miterlimit="10" stroke-linejoin="miter" fill="none" stroke="#ffffff" d="M325 312.898 75 745.898H-425L-175 312.898 75-120.102H575Z"/>
<path transform="matrix(.1,0,0,-.1,0,792)" d="M1325 312.898 1075-120.102 825-553.102 1075-986.199 1325-553.102 1575-120.102" fill="#404284"/>
<path transform="matrix(.1,0,0,-.1,0,792)" stroke-width="20" stroke-linecap="butt" stroke-miterlimit="10" stroke-linejoin="miter" fill="none" stroke="#ffffff" d="M1325 312.898 1075-120.102 825-553.102 1075-986.199 1325-553.102 1575-120.102Z"/>
<path transform="matrix(.1,0,0,-.1,0,792)" d="M2825 312.898 2575-120.102 2325-553.102 2575-986.199 2825-553.102 3075-120.102" fill="#404284"/>
<path transform="matrix(.1,0,0,-.1,0,792)" stroke-width="20" stroke-linecap="butt" stroke-miterlimit="10" stroke-linejoin="miter" fill="none" stroke="#ffffff" d="M2825 312.898 2575-120.102 2325-553.102 2575-986.199 2825-553.102 3075-120.102Z"/>
<path transform="matrix(.1,0,0,-.1,0,792)" d="M4325 312.898 4075-120.102 3825-553.102 4075-986.199 4325-553.102 4575-120.102" fill="#404284"/>
<path transform="matrix(.1,0,0,-.1,0,792)" stroke-width="20" stroke-linecap="butt" stroke-miterlimit="10" stroke-linejoin="miter" fill="none" stroke="#ffffff" d="M4325 312.898 4075-120.102 3825-553.102 4075-986.199 4325-553.102 4575-120.102Z"/>
<path transform="matrix(.1,0,0,-.1,0,792)" d="M5825 312.898 5575-120.102 5325-553.102 5575-986.199 5825-553.102 6075-120.102" fill="#404284"/>
<path transform="matrix(.1,0,0,-.1,0,792)" stroke-width="20" stroke-linecap="butt" stroke-miterlimit="10" stroke-linejoin="miter" fill="none" stroke="#ffffff" d="M5825 312.898 5575-120.102 5325-553.102 5575-986.199 5825-553.102 6075-120.102Z"/>
<path transform="matrix(.1,0,0,-.1,0,792)" d="M5825 2044.9H6825L7075 2477.9H6075Z" fill="#404284"/>
<path transform="matrix(.1,0,0,-.1,0,792)" stroke-width="20" stroke-linecap="butt" stroke-miterlimit="10" stroke-linejoin="miter" fill="none" stroke="#ffffff" d="M5825 2044.9H6825L7075 2477.9H6075Z"/>
<path transform="matrix(.1,0,0,-.1,0,792)" d="M5825 4643H6825L7075 5076H6075Z" fill="#404284"/>
<path transform="matrix(.1,0,0,-.1,0,792)" stroke-width="20" stroke-linecap="butt" stroke-miterlimit="10" stroke-linejoin="miter" fill="none" stroke="#ffffff" d="M5825 4643H6825L7075 5076H6075Z"/>
<path transform="matrix(.1,0,0,-.1,0,792)" d="M5825 7241.1H6825L7075 7674.1H6075Z" fill="#404284"/>
<path transform="matrix(.1,0,0,-.1,0,792)" stroke-width="20" stroke-linecap="butt" stroke-miterlimit="10" stroke-linejoin="miter" fill="none" stroke="#ffffff" d="M5825 7241.1H6825L7075 7674.1H6075Z"/>
<path transform="matrix(.1,0,0,-.1,0,792)" d="M5825 8107.1 6075 7674.1H6575L6325 8107.1 6075 8540.1H5575" fill="#404284"/>
<path transform="matrix(.1,0,0,-.1,0,792)" stroke-width="20" stroke-linecap="butt" stroke-miterlimit="10" stroke-linejoin="miter" fill="none" stroke="#ffffff" d="M5825 8107.1 6075 7674.1H6575L6325 8107.1 6075 8540.1H5575Z"/>
<path transform="matrix(.1,0,0,-.1,0,792)" d="M75 7674.1-175 8107.1-425 7674.1-675 7241.1-425 6808.1-175 7241.1" fill="#404284"/>
<path transform="matrix(.1,0,0,-.1,0,792)" stroke-width="20" stroke-linecap="butt" stroke-miterlimit="10" stroke-linejoin="miter" fill="none" stroke="#ffffff" d="M75 7674.1-175 8107.1-425 7674.1-675 7241.1-425 6808.1-175 7241.1Z"/>
<path transform="matrix(.1,0,0,-.1,0,792)" d="M75 5076-175 5509-425 5076-675 4643-425 4210-175 4643" fill="#404284"/>
<path transform="matrix(.1,0,0,-.1,0,792)" stroke-width="20" stroke-linecap="butt" stroke-miterlimit="10" stroke-linejoin="miter" fill="none" stroke="#ffffff" d="M75 5076-175 5509-425 5076-675 4643-425 4210-175 4643Z"/>
<path transform="matrix(.1,0,0,-.1,0,792)" d="M75 2477.9-175 2911-425 2477.9-675 2044.9-425 1611.9-175 2044.9" fill="#404284"/>
<path transform="matrix(.1,0,0,-.1,0,792)" stroke-width="20" stroke-linecap="butt" stroke-miterlimit="10" stroke-linejoin="miter" fill="none" stroke="#ffffff" d="M75 2477.9-175 2911-425 2477.9-675 2044.9-425 1611.9-175 2044.9Z"/>
<path transform="matrix(.1,0,0,-.1,0,792)" d="M6075 745.898 6325 312.898 6575 745.898 6825 1178.9 6575 1611.9 6325 1178.9" fill="#404284"/>
<path transform="matrix(.1,0,0,-.1,0,792)" stroke-width="20" stroke-linecap="butt" stroke-miterlimit="10" stroke-linejoin="miter" fill="none" stroke="#ffffff" d="M6075 745.898 6325 312.898 6575 745.898 6825 1178.9 6575 1611.9 6325 1178.9Z"/>
<path transform="matrix(.1,0,0,-.1,0,792)" d="M6075 3344 6325 2911 6575 3344 6825 3777 6575 4210 6325 3777" fill="#404284"/>
<path transform="matrix(.1,0,0,-.1,0,792)" stroke-width="20" stroke-linecap="butt" stroke-miterlimit="10" stroke-linejoin="miter" fill="none" stroke="#ffffff" d="M6075 3344 6325 2911 6575 3344 6825 3777 6575 4210 6325 3777Z"/>
<path transform="matrix(.1,0,0,-.1,0,792)" d="M6075 5942.1 6325 5509 6575 5942.1 6825 6375.1 6575 6808.1 6325 6375.1" fill="#404284"/>
<path transform="matrix(.1,0,0,-.1,0,792)" stroke-width="20" stroke-linecap="butt" stroke-miterlimit="10" stroke-linejoin="miter" fill="none" stroke="#ffffff" d="M6075 5942.1 6325 5509 6575 5942.1 6825 6375.1 6575 6808.1 6325 6375.1Z"/>
<path transform="matrix(.1,0,0,-.1,0,792)" d="M75-120.102-175 312.898-425-120.102-675-553.102-425-986.199-175-553.102" fill="#404284"/>
<path transform="matrix(.1,0,0,-.1,0,792)" stroke-width="20" stroke-linecap="butt" stroke-miterlimit="10" stroke-linejoin="miter" fill="none" stroke="#ffffff" d="M75-120.102-175 312.898-425-120.102-675-553.102-425-986.199-175-553.102Z"/>
</svg>
