<svg xmlns="http://www.w3.org/2000/svg" xmlns:xlink="http://www.w3.org/1999/xlink" xmlns:inkscape="http://www.inkscape.org/namespaces/inkscape" version="1.1" width="612" height="792" viewBox="0 0 612 792">
<path transform="matrix(.1,0,0,-.1,0,792)" d="M2975 2698.4 3375 3391.2H4175L3775 4084 4175 4776.9H3375L2975 5469.7 2575 4776.9H1775L2175 4084 1775 3391.2H2575" fill="#b21414"/>
<path transform="matrix(.1,0,0,-.1,0,792)" stroke-width="1" stroke-linecap="butt" stroke-miterlimit="10" stroke-linejoin="miter" fill="none" stroke="#000000" d="M2975 2698.4 3375 3391.2H4175L3775 4084 4175 4776.9H3375L2975 5469.7 2575 4776.9H1775L2175 4084 1775 3391.2H2575Z"/>
<path transform="matrix(.1,0,0,-.1,0,792)" d="M3375 4776.9H4175L4575 5469.7 4175 6162.5H3375L2975 5469.7" fill="#f8ccc7"/>
<path transform="matrix(.1,0,0,-.1,0,792)" stroke-width="1" stroke-linecap="butt" stroke-miterlimit="10" stroke-linejoin="miter" fill="none" stroke="#000000" d="M3375 4776.9H4175L4575 5469.7 4175 6162.5H3375L2975 5469.7Z"/>
<path transform="matrix(.1,0,0,-.1,0,792)" d="M2575 4776.9 2975 5469.7 2575 6162.5H1775L1375 5469.7 1775 4776.9" fill="#f8ccc7"/>
<path transform="matrix(.1,0,0,-.1,0,792)" stroke-width="1" stroke-linecap="butt" stroke-miterlimit="10" stroke-linejoin="miter" fill="none" stroke="#000000" d="M2575 4776.9 2975 5469.7 2575 6162.5H1775L1375 5469.7 1775 4776.9Z"/>
<path transform="matrix(.1,0,0,-.1,0,792)" d="M2575 3391.2H1775L1375 2698.4 1775 2005.6H2575L2975 2698.4" fill="#f8ccc7"/>
<path transform="matrix(.1,0,0,-.1,0,792)" stroke-width="1" stroke-linecap="butt" stroke-miterlimit="10" stroke-linejoin="miter" fill="none" stroke="#000000" d="M2575 3391.2H1775L1375 2698.4 1775 2005.6H2575L2975 2698.4Z"/>
<path transform="matrix(.1,0,0,-.1,0,792)" d="M3375 3391.2 2975 2698.4 3375 2005.6H4175L4575 2698.4 4175 3391.2" fill="#f8ccc7"/>
<path transform="matrix(.1,0,0,-.1,0,792)" stroke-width="1" stroke-linecap="butt" stroke-miterlimit="10" stroke-linejoin="miter" fill="none" stroke="#000000" d="M3375 3391.2 2975 2698.4 3375 2005.6H4175L4575 2698.4 4175 3391.2Z"/>
<path transform="matrix(.1,0,0,-.1,0,792)" d="M3775 4084 4175 3391.2H4975L5375 4084 4975 4776.9H4175" fill="#f8ccc7"/>
<path transform="matrix(.1,0,0,-.1,0,792)" stroke-width="1" stroke-linecap="butt" stroke-miterlimit="10" stroke-linejoin="miter" fill="none" stroke="#000000" d="M3775 4084 4175 3391.2H4975L5375 4084 4975 4776.9H4175Z"/>
<path transform="matrix(.1,0,0,-.1,0,792)" d="M2175 4084 1775 4776.9H975L575 4084 975 3391.2H1775" fill="#f8ccc7"/>
<path transform="matrix(.1,0,0,-.1,0,792)" stroke-width="1" stroke-linecap="butt" stroke-miterlimit="10" stroke-linejoin="miter" fill="none" stroke="#000000" d="M2175 4084 1775 4776.9H975L575 4084 975 3391.2H1775Z"/>
<path transform="matrix(.1,0,0,-.1,0,792)" d="M2975 5469.7 3375 6162.5H2575" fill="#9b5436"/>
<path transform="matrix(.1,0,0,-.1,0,792)" stroke-width="1" stroke-linecap="butt" stroke-miterlimit="10" stroke-linejoin="miter" fill="none" stroke="#000000" d="M2975 5469.7 3375 6162.5H2575Z"/>
<path transform="matrix(.1,0,0,-.1,0,792)" d="M2975 2698.4 2575 2005.6H3375" fill="#9b5436"/>
<path transform="matrix(.1,0,0,-.1,0,792)" stroke-width="1" stroke-linecap="butt" stroke-miterlimit="10" stroke-linejoin="miter" fill="none" stroke="#000000" d="M2975 2698.4 2575 2005.6H3375Z"/>
<path transform="matrix(.1,0,0,-.1,0,792)" d="M4175 3391.2 4575 2698.4 4975 3391.2" fill="#9b5436"/>
<path transform="matrix(.1,0,0,-.1,0,792)" stroke-width="1" stroke-linecap="butt" stroke-miterlimit="10" stroke-linejoin="miter" fill="none" stroke="#000000" d="M4175 3391.2 4575 2698.4 4975 3391.2Z"/>
<path transform="matrix(.1,0,0,-.1,0,792)" d="M4175 4776.9H4975L4575 5469.7" fill="#9b5436"/>
<path transform="matrix(.1,0,0,-.1,0,792)" stroke-width="1" stroke-linecap="butt" stroke-miterlimit="10" stroke-linejoin="miter" fill="none" stroke="#000000" d="M4175 4776.9H4975L4575 5469.7Z"/>
<path transform="matrix(.1,0,0,-.1,0,792)" d="M1775 4776.9 1375 5469.7 975 4776.9" fill="#9b5436"/>
<path transform="matrix(.1,0,0,-.1,0,792)" stroke-width="1" stroke-linecap="butt" stroke-miterlimit="10" stroke-linejoin="miter" fill="none" stroke="#000000" d="M1775 4776.9 1375 5469.7 975 4776.9Z"/>
<path transform="matrix(.1,0,0,-.1,0,792)" d="M1775 3391.2H975L1375 2698.4" fill="#9b5436"/>
<path transform="matrix(.1,0,0,-.1,0,792)" stroke-width="1" stroke-linecap="butt" stroke-miterlimit="10" stroke-linejoin="miter" fill="none" stroke="#000000" d="M1775 3391.2H975L1375 2698.4Z"/>
<path transform="matrix(.1,0,0,-.1,0,792)" d="M4175 6162.5 4575 5469.7 4975 6162.5H5775L5375 6855.3 5775 7548.1H4975L4575 8241 4175 7548.1H3375L3775 6855.3 3375 6162.5" fill="#b21414"/>
<path transform="matrix(.1,0,0,-.1,0,792)" stroke-width="1" stroke-linecap="butt" stroke-miterlimit="10" stroke-linejoin="miter" fill="none" stroke="#000000" d="M4175 6162.5 4575 5469.7 4975 6162.5H5775L5375 6855.3 5775 7548.1H4975L4575 8241 4175 7548.1H3375L3775 6855.3 3375 6162.5Z"/>
<path transform="matrix(.1,0,0,-.1,0,792)" d="M3375 6162.5 3775 6855.3 3375 7548.1H2575L2175 6855.3 2575 6162.5" fill="#f8ccc7"/>
<path transform="matrix(.1,0,0,-.1,0,792)" stroke-width="1" stroke-linecap="butt" stroke-miterlimit="10" stroke-linejoin="miter" fill="none" stroke="#000000" d="M3375 6162.5 3775 6855.3 3375 7548.1H2575L2175 6855.3 2575 6162.5Z"/>
<path transform="matrix(.1,0,0,-.1,0,792)" d="M2575 6162.5 2175 6855.3 2575 7548.1H1775L1375 8241 975 7548.1H175L575 6855.3 175 6162.5H975L1375 5469.7 1775 6162.5" fill="#b21414"/>
<path transform="matrix(.1,0,0,-.1,0,792)" stroke-width="1" stroke-linecap="butt" stroke-miterlimit="10" stroke-linejoin="miter" fill="none" stroke="#000000" d="M2575 6162.5 2175 6855.3 2575 7548.1H1775L1375 8241 975 7548.1H175L575 6855.3 175 6162.5H975L1375 5469.7 1775 6162.5Z"/>
<path transform="matrix(.1,0,0,-.1,0,792)" d="M1375 5469.7 975 6162.5H175L-225 5469.7 175 4776.9H975" fill="#f8ccc7"/>
<path transform="matrix(.1,0,0,-.1,0,792)" stroke-width="1" stroke-linecap="butt" stroke-miterlimit="10" stroke-linejoin="miter" fill="none" stroke="#000000" d="M1375 5469.7 975 6162.5H175L-225 5469.7 175 4776.9H975Z"/>
<path transform="matrix(.1,0,0,-.1,0,792)" d="M1375 2698.4 975 2005.6H175L575 1312.8 175 619.898H975L1375-72.8984 1775 619.898H2575L2175 1312.8 2575 2005.6H1775" fill="#b21414"/>
<path transform="matrix(.1,0,0,-.1,0,792)" stroke-width="1" stroke-linecap="butt" stroke-miterlimit="10" stroke-linejoin="miter" fill="none" stroke="#000000" d="M1375 2698.4 975 2005.6H175L575 1312.8 175 619.898H975L1375-72.8984 1775 619.898H2575L2175 1312.8 2575 2005.6H1775Z"/>
<path transform="matrix(.1,0,0,-.1,0,792)" d="M1375 2698.4 975 3391.2H175L-225 2698.4 175 2005.6H975" fill="#f8ccc7"/>
<path transform="matrix(.1,0,0,-.1,0,792)" stroke-width="1" stroke-linecap="butt" stroke-miterlimit="10" stroke-linejoin="miter" fill="none" stroke="#000000" d="M1375 2698.4 975 3391.2H175L-225 2698.4 175 2005.6H975Z"/>
<path transform="matrix(.1,0,0,-.1,0,792)" d="M4575 2698.4 4975 2005.6H5775L6175 2698.4 5775 3391.2H4975" fill="#f8ccc7"/>
<path transform="matrix(.1,0,0,-.1,0,792)" stroke-width="1" stroke-linecap="butt" stroke-miterlimit="10" stroke-linejoin="miter" fill="none" stroke="#000000" d="M4575 2698.4 4975 2005.6H5775L6175 2698.4 5775 3391.2H4975Z"/>
<path transform="matrix(.1,0,0,-.1,0,792)" d="M4575 2698.4 4175 2005.6H3375L3775 1312.8 3375 619.898H4175L4575-72.8984 4975 619.898H5775L5375 1312.8 5775 2005.6H4975" fill="#b21414"/>
<path transform="matrix(.1,0,0,-.1,0,792)" stroke-width="1" stroke-linecap="butt" stroke-miterlimit="10" stroke-linejoin="miter" fill="none" stroke="#000000" d="M4575 2698.4 4175 2005.6H3375L3775 1312.8 3375 619.898H4175L4575-72.8984 4975 619.898H5775L5375 1312.8 5775 2005.6H4975Z"/>
<path transform="matrix(.1,0,0,-.1,0,792)" d="M4575 5469.7 4975 4776.9H5775L6175 5469.7 5775 6162.5H4975" fill="#f8ccc7"/>
<path transform="matrix(.1,0,0,-.1,0,792)" stroke-width="1" stroke-linecap="butt" stroke-miterlimit="10" stroke-linejoin="miter" fill="none" stroke="#000000" d="M4575 5469.7 4975 4776.9H5775L6175 5469.7 5775 6162.5H4975Z"/>
<path transform="matrix(.1,0,0,-.1,0,792)" d="M2575 2005.6 2175 1312.8 2575 619.898H3375L3775 1312.8 3375 2005.6" fill="#f8ccc7"/>
<path transform="matrix(.1,0,0,-.1,0,792)" stroke-width="1" stroke-linecap="butt" stroke-miterlimit="10" stroke-linejoin="miter" fill="none" stroke="#000000" d="M2575 2005.6 2175 1312.8 2575 619.898H3375L3775 1312.8 3375 2005.6Z"/>
<path transform="matrix(.1,0,0,-.1,0,792)" d="M4975 3391.2H5775L6175 2698.4 6575 3391.2H7375L6975 4084 7375 4776.9H6575L6175 5469.7 5775 4776.9H4975L5375 4084" fill="#b21414"/>
<path transform="matrix(.1,0,0,-.1,0,792)" stroke-width="1" stroke-linecap="butt" stroke-miterlimit="10" stroke-linejoin="miter" fill="none" stroke="#000000" d="M4975 3391.2H5775L6175 2698.4 6575 3391.2H7375L6975 4084 7375 4776.9H6575L6175 5469.7 5775 4776.9H4975L5375 4084Z"/>
<path transform="matrix(.1,0,0,-.1,0,792)" d="M975 4776.9H175L-225 5469.7-625 4776.9H-1425L-1025 4084-1425 3391.2H-625L-225 2698.4 175 3391.2H975L575 4084" fill="#b21414"/>
<path transform="matrix(.1,0,0,-.1,0,792)" stroke-width="1" stroke-linecap="butt" stroke-miterlimit="10" stroke-linejoin="miter" fill="none" stroke="#000000" d="M975 4776.9H175L-225 5469.7-625 4776.9H-1425L-1025 4084-1425 3391.2H-625L-225 2698.4 175 3391.2H975L575 4084Z"/>
<path transform="matrix(.1,0,0,-.1,0,792)" d="M575 1312.8 175 2005.6H-625L-1025 1312.8-625 619.898H175" fill="#f8ccc7"/>
<path transform="matrix(.1,0,0,-.1,0,792)" stroke-width="1" stroke-linecap="butt" stroke-miterlimit="10" stroke-linejoin="miter" fill="none" stroke="#000000" d="M575 1312.8 175 2005.6H-625L-1025 1312.8-625 619.898H175Z"/>
<path transform="matrix(.1,0,0,-.1,0,792)" d="M5375 1312.8 5775 619.898H6575L6975 1312.8 6575 2005.6H5775" fill="#f8ccc7"/>
<path transform="matrix(.1,0,0,-.1,0,792)" stroke-width="1" stroke-linecap="butt" stroke-miterlimit="10" stroke-linejoin="miter" fill="none" stroke="#000000" d="M5375 1312.8 5775 619.898H6575L6975 1312.8 6575 2005.6H5775Z"/>
<path transform="matrix(.1,0,0,-.1,0,792)" d="M5375 6855.3 5775 6162.5H6575L6975 6855.3 6575 7548.1H5775" fill="#f8ccc7"/>
<path transform="matrix(.1,0,0,-.1,0,792)" stroke-width="1" stroke-linecap="butt" stroke-miterlimit="10" stroke-linejoin="miter" fill="none" stroke="#000000" d="M5375 6855.3 5775 6162.5H6575L6975 6855.3 6575 7548.1H5775Z"/>
<path transform="matrix(.1,0,0,-.1,0,792)" d="M575 6855.3 175 7548.1H-625L-1025 6855.3-625 6162.5H175" fill="#f8ccc7"/>
<path transform="matrix(.1,0,0,-.1,0,792)" stroke-width="1" stroke-linecap="butt" stroke-miterlimit="10" stroke-linejoin="miter" fill="none" stroke="#000000" d="M575 6855.3 175 7548.1H-625L-1025 6855.3-625 6162.5H175Z"/>
<path transform="matrix(.1,0,0,-.1,0,792)" d="M975 7548.1 1375 8241 975 8933.8H175L-225 8241 175 7548.1" fill="#f8ccc7"/>
<path transform="matrix(.1,0,0,-.1,0,792)" stroke-width="1" stroke-linecap="butt" stroke-miterlimit="10" stroke-linejoin="miter" fill="none" stroke="#000000" d="M975 7548.1 1375 8241 975 8933.8H175L-225 8241 175 7548.1Z"/>
<path transform="matrix(.1,0,0,-.1,0,792)" d="M1775 7548.1H2575L2975 8241 2575 8933.8H1775L1375 8241" fill="#f8ccc7"/>
<path transform="matrix(.1,0,0,-.1,0,792)" stroke-width="1" stroke-linecap="butt" stroke-miterlimit="10" stroke-linejoin="miter" fill="none" stroke="#000000" d="M1775 7548.1H2575L2975 8241 2575 8933.8H1775L1375 8241Z"/>
<path transform="matrix(.1,0,0,-.1,0,792)" d="M3375 7548.1 2975 8241 2575 7548.1" fill="#9b5436"/>
<path transform="matrix(.1,0,0,-.1,0,792)" stroke-width="1" stroke-linecap="butt" stroke-miterlimit="10" stroke-linejoin="miter" fill="none" stroke="#000000" d="M3375 7548.1 2975 8241 2575 7548.1Z"/>
<path transform="matrix(.1,0,0,-.1,0,792)" d="M4175 7548.1 4575 8241 4175 8933.8H3375L2975 8241 3375 7548.1" fill="#f8ccc7"/>
<path transform="matrix(.1,0,0,-.1,0,792)" stroke-width="1" stroke-linecap="butt" stroke-miterlimit="10" stroke-linejoin="miter" fill="none" stroke="#000000" d="M4175 7548.1 4575 8241 4175 8933.8H3375L2975 8241 3375 7548.1Z"/>
<path transform="matrix(.1,0,0,-.1,0,792)" d="M4975 7548.1H5775L6175 8241 5775 8933.8H4975L4575 8241" fill="#f8ccc7"/>
<path transform="matrix(.1,0,0,-.1,0,792)" stroke-width="1" stroke-linecap="butt" stroke-miterlimit="10" stroke-linejoin="miter" fill="none" stroke="#000000" d="M4975 7548.1H5775L6175 8241 5775 8933.8H4975L4575 8241Z"/>
<path transform="matrix(.1,0,0,-.1,0,792)" d="M975 619.898H175L-225-72.8984 175-765.699H975L1375-72.8984" fill="#f8ccc7"/>
<path transform="matrix(.1,0,0,-.1,0,792)" stroke-width="1" stroke-linecap="butt" stroke-miterlimit="10" stroke-linejoin="miter" fill="none" stroke="#000000" d="M975 619.898H175L-225-72.8984 175-765.699H975L1375-72.8984Z"/>
<path transform="matrix(.1,0,0,-.1,0,792)" d="M1775 619.898 1375-72.8984 1775-765.699H2575L2975-72.8984 2575 619.898" fill="#f8ccc7"/>
<path transform="matrix(.1,0,0,-.1,0,792)" stroke-width="1" stroke-linecap="butt" stroke-miterlimit="10" stroke-linejoin="miter" fill="none" stroke="#000000" d="M1775 619.898 1375-72.8984 1775-765.699H2575L2975-72.8984 2575 619.898Z"/>
<path transform="matrix(.1,0,0,-.1,0,792)" d="M2575 619.898 2975-72.8984 3375 619.898" fill="#9b5436"/>
<path transform="matrix(.1,0,0,-.1,0,792)" stroke-width="1" stroke-linecap="butt" stroke-miterlimit="10" stroke-linejoin="miter" fill="none" stroke="#000000" d="M2575 619.898 2975-72.8984 3375 619.898Z"/>
<path transform="matrix(.1,0,0,-.1,0,792)" d="M3375 619.898 2975-72.8984 3375-765.699H4175L4575-72.8984 4175 619.898" fill="#f8ccc7"/>
<path transform="matrix(.1,0,0,-.1,0,792)" stroke-width="1" stroke-linecap="butt" stroke-miterlimit="10" stroke-linejoin="miter" fill="none" stroke="#000000" d="M3375 619.898 2975-72.8984 3375-765.699H4175L4575-72.8984 4175 619.898Z"/>
<path transform="matrix(.1,0,0,-.1,0,792)" d="M4975 619.898 4575-72.8984 4975-765.699H5775L6175-72.8984 5775 619.898" fill="#f8ccc7"/>
<path transform="matrix(.1,0,0,-.1,0,792)" stroke-width="1" stroke-linecap="butt" stroke-miterlimit="10" stroke-linejoin="miter" fill="none" stroke="#000000" d="M4975 619.898 4575-72.8984 4975-765.699H5775L6175-72.8984 5775 619.898Z"/>
<path transform="matrix(.1,0,0,-.1,0,792)" d="M5775 619.898 6175-72.8984 6575 619.898" fill="#9b5436"/>
<path transform="matrix(.1,0,0,-.1,0,792)" stroke-width="1" stroke-linecap="butt" stroke-miterlimit="10" stroke-linejoin="miter" fill="none" stroke="#000000" d="M5775 619.898 6175-72.8984 6575 619.898Z"/>
<path transform="matrix(.1,0,0,-.1,0,792)" d="M5775 2005.6H6575L6175 2698.4" fill="#9b5436"/>
<path transform="matrix(.1,0,0,-.1,0,792)" stroke-width="1" stroke-linecap="butt" stroke-miterlimit="10" stroke-linejoin="miter" fill="none" stroke="#000000" d="M5775 2005.6H6575L6175 2698.4Z"/>
<path transform="matrix(.1,0,0,-.1,0,792)" d="M5775 6162.5 6175 5469.7 6575 6162.5" fill="#9b5436"/>
<path transform="matrix(.1,0,0,-.1,0,792)" stroke-width="1" stroke-linecap="butt" stroke-miterlimit="10" stroke-linejoin="miter" fill="none" stroke="#000000" d="M5775 6162.5 6175 5469.7 6575 6162.5Z"/>
<path transform="matrix(.1,0,0,-.1,0,792)" d="M5775 7548.1H6575L6175 8241" fill="#9b5436"/>
<path transform="matrix(.1,0,0,-.1,0,792)" stroke-width="1" stroke-linecap="butt" stroke-miterlimit="10" stroke-linejoin="miter" fill="none" stroke="#000000" d="M5775 7548.1H6575L6175 8241Z"/>
<path transform="matrix(.1,0,0,-.1,0,792)" d="M175 7548.1-225 8241-625 7548.1" fill="#9b5436"/>
<path transform="matrix(.1,0,0,-.1,0,792)" stroke-width="1" stroke-linecap="butt" stroke-miterlimit="10" stroke-linejoin="miter" fill="none" stroke="#000000" d="M175 7548.1-225 8241-625 7548.1Z"/>
<path transform="matrix(.1,0,0,-.1,0,792)" d="M175 6162.5H-625L-225 5469.7" fill="#9b5436"/>
<path transform="matrix(.1,0,0,-.1,0,792)" stroke-width="1" stroke-linecap="butt" stroke-miterlimit="10" stroke-linejoin="miter" fill="none" stroke="#000000" d="M175 6162.5H-625L-225 5469.7Z"/>
<path transform="matrix(.1,0,0,-.1,0,792)" d="M175 2005.6-225 2698.4-625 2005.6" fill="#9b5436"/>
<path transform="matrix(.1,0,0,-.1,0,792)" stroke-width="1" stroke-linecap="butt" stroke-miterlimit="10" stroke-linejoin="miter" fill="none" stroke="#000000" d="M175 2005.6-225 2698.4-625 2005.6Z"/>
<path transform="matrix(.1,0,0,-.1,0,792)" d="M175 619.898H-625L-225-72.8984" fill="#9b5436"/>
<path transform="matrix(.1,0,0,-.1,0,792)" stroke-width="1" stroke-linecap="butt" stroke-miterlimit="10" stroke-linejoin="miter" fill="none" stroke="#000000" d="M175 619.898H-625L-225-72.8984Z"/>
</svg>
