<svg xmlns="http://www.w3.org/2000/svg" xmlns:xlink="http://www.w3.org/1999/xlink" xmlns:inkscape="http://www.inkscape.org/namespaces/inkscape" version="1.1" width="612" height="792" viewBox="0 0 612 792">
<path transform="matrix(.1,0,0,-.1,0,792)" d="M1931.9 3848.8H3681.9L3244.4 4606.6 2941.3 4431.6V4081.6H2066.3" fill="#660000"/>
<path transform="matrix(.1,0,0,-.1,0,792)" stroke-width="20" stroke-linecap="butt" stroke-miterlimit="10" stroke-linejoin="miter" fill="none" stroke="#ffffff" d="M1931.9 3848.8H3681.9L3244.4 4606.6 2941.3 4431.6V4081.6H2066.3Z"/>
<path transform="matrix(.1,0,0,-.1,0,792)" d="M2941.3 4081.6V4431.6L2638.1 4606.6 3075.6 5364.3 2941.3 5597.1 2066.3 4081.6" fill="#000066"/>
<path transform="matrix(.1,0,0,-.1,0,792)" stroke-width="20" stroke-linecap="butt" stroke-miterlimit="10" stroke-linejoin="miter" fill="none" stroke="#ffffff" d="M2941.3 4081.6V4431.6L2638.1 4606.6 3075.6 5364.3 2941.3 5597.1 2066.3 4081.6Z"/>
<path transform="matrix(.1,0,0,-.1,0,792)" d="M2941.3 4431.6 3244.4 4606.6 3681.9 3848.8H3950.6L3075.6 5364.3 2638.1 4606.6" fill="#006600"/>
<path transform="matrix(.1,0,0,-.1,0,792)" stroke-width="20" stroke-linecap="butt" stroke-miterlimit="10" stroke-linejoin="miter" fill="none" stroke="#ffffff" d="M2941.3 4431.6 3244.4 4606.6 3681.9 3848.8H3950.6L3075.6 5364.3 2638.1 4606.6Z"/>
<path transform="matrix(.1,0,0,-.1,0,792)" d="M3681.9 3848.8 3244.4 3091 2941.3 3266 2638.1 3091 3075.6 2333.2 3950.6 3848.8" fill="#00661a"/>
<path transform="matrix(.1,0,0,-.1,0,792)" stroke-width="20" stroke-linecap="butt" stroke-miterlimit="10" stroke-linejoin="miter" fill="none" stroke="#ffffff" d="M3681.9 3848.8 3244.4 3091 2941.3 3266 2638.1 3091 3075.6 2333.2 3950.6 3848.8Z"/>
<path transform="matrix(.1,0,0,-.1,0,792)" d="M2941.3 3266V3616H2066.3L2941.3 2100.5 3075.6 2333.2 2638.1 3091" fill="#1a0066"/>
<path transform="matrix(.1,0,0,-.1,0,792)" stroke-width="20" stroke-linecap="butt" stroke-miterlimit="10" stroke-linejoin="miter" fill="none" stroke="#ffffff" d="M2941.3 3266V3616H2066.3L2941.3 2100.5 3075.6 2333.2 2638.1 3091Z"/>
<path transform="matrix(.1,0,0,-.1,0,792)" d="M2941.3 3616V3266L3244.4 3091 3681.9 3848.8H1931.9L2066.3 3616" fill="#661a00"/>
<path transform="matrix(.1,0,0,-.1,0,792)" stroke-width="20" stroke-linecap="butt" stroke-miterlimit="10" stroke-linejoin="miter" fill="none" stroke="#ffffff" d="M2941.3 3616V3266L3244.4 3091 3681.9 3848.8H1931.9L2066.3 3616Z"/>
<path transform="matrix(.1,0,0,-.1,0,792)" d="M3075.6 5364.3H3950.6V5014.3L4253.8 4839.3 4691.3 5597.1H2941.3" fill="#1a0066"/>
<path transform="matrix(.1,0,0,-.1,0,792)" stroke-width="20" stroke-linecap="butt" stroke-miterlimit="10" stroke-linejoin="miter" fill="none" stroke="#ffffff" d="M3075.6 5364.3H3950.6V5014.3L4253.8 4839.3 4691.3 5597.1H2941.3Z"/>
<path transform="matrix(.1,0,0,-.1,0,792)" d="M3075.6 5364.3 3950.6 3848.8 4085 4081.6 3647.5 4839.3 3950.6 5014.3V5364.3" fill="#00661a"/>
<path transform="matrix(.1,0,0,-.1,0,792)" stroke-width="20" stroke-linecap="butt" stroke-miterlimit="10" stroke-linejoin="miter" fill="none" stroke="#ffffff" d="M3075.6 5364.3 3950.6 3848.8 4085 4081.6 3647.5 4839.3 3950.6 5014.3V5364.3Z"/>
<path transform="matrix(.1,0,0,-.1,0,792)" d="M3647.5 4839.3 4085 4081.6 4960 5597.1H4691.3L4253.8 4839.3 3950.6 5014.3" fill="#661a00"/>
<path transform="matrix(.1,0,0,-.1,0,792)" stroke-width="20" stroke-linecap="butt" stroke-miterlimit="10" stroke-linejoin="miter" fill="none" stroke="#ffffff" d="M3647.5 4839.3 4085 4081.6 4960 5597.1H4691.3L4253.8 4839.3 3950.6 5014.3Z"/>
<path transform="matrix(.1,0,0,-.1,0,792)" d="M2066.3 4081.6 1628.8 4839.3 1931.9 5014.3V5364.3H1056.9L1931.9 3848.8" fill="#661a00"/>
<path transform="matrix(.1,0,0,-.1,0,792)" stroke-width="20" stroke-linecap="butt" stroke-miterlimit="10" stroke-linejoin="miter" fill="none" stroke="#ffffff" d="M2066.3 4081.6 1628.8 4839.3 1931.9 5014.3V5364.3H1056.9L1931.9 3848.8Z"/>
<path transform="matrix(.1,0,0,-.1,0,792)" d="M2066.3 4081.6 2941.3 5597.1H2672.5L2235 4839.3 1931.9 5014.3 1628.8 4839.3" fill="#1a0066"/>
<path transform="matrix(.1,0,0,-.1,0,792)" stroke-width="20" stroke-linecap="butt" stroke-miterlimit="10" stroke-linejoin="miter" fill="none" stroke="#ffffff" d="M2066.3 4081.6 2941.3 5597.1H2672.5L2235 4839.3 1931.9 5014.3 1628.8 4839.3Z"/>
<path transform="matrix(.1,0,0,-.1,0,792)" d="M2235 4839.3 2672.5 5597.1H922.5L1056.9 5364.3H1931.9V5014.3" fill="#00661a"/>
<path transform="matrix(.1,0,0,-.1,0,792)" stroke-width="20" stroke-linecap="butt" stroke-miterlimit="10" stroke-linejoin="miter" fill="none" stroke="#ffffff" d="M2235 4839.3 2672.5 5597.1H922.5L1056.9 5364.3H1931.9V5014.3Z"/>
<path transform="matrix(.1,0,0,-.1,0,792)" d="M2066.3 3616 1628.8 2858.2 1931.9 2683.2 2235 2858.2 2672.5 2100.5H2941.3" fill="#000066"/>
<path transform="matrix(.1,0,0,-.1,0,792)" stroke-width="20" stroke-linecap="butt" stroke-miterlimit="10" stroke-linejoin="miter" fill="none" stroke="#ffffff" d="M2066.3 3616 1628.8 2858.2 1931.9 2683.2 2235 2858.2 2672.5 2100.5H2941.3Z"/>
<path transform="matrix(.1,0,0,-.1,0,792)" d="M2066.3 3616 1931.9 3848.8 1056.9 2333.2H1931.9V2683.2L1628.8 2858.2" fill="#660000"/>
<path transform="matrix(.1,0,0,-.1,0,792)" stroke-width="20" stroke-linecap="butt" stroke-miterlimit="10" stroke-linejoin="miter" fill="none" stroke="#ffffff" d="M2066.3 3616 1931.9 3848.8 1056.9 2333.2H1931.9V2683.2L1628.8 2858.2Z"/>
<path transform="matrix(.1,0,0,-.1,0,792)" d="M3950.6 3848.8H5700.6L5263.1 4606.6 4960 4431.6V4081.6H4085" fill="#006600"/>
<path transform="matrix(.1,0,0,-.1,0,792)" stroke-width="20" stroke-linecap="butt" stroke-miterlimit="10" stroke-linejoin="miter" fill="none" stroke="#ffffff" d="M3950.6 3848.8H5700.6L5263.1 4606.6 4960 4431.6V4081.6H4085Z"/>
<path transform="matrix(.1,0,0,-.1,0,792)" d="M3950.6 3848.8 4085 3616H4960V3266L5263.1 3091 5700.6 3848.8" fill="#00661a"/>
<path transform="matrix(.1,0,0,-.1,0,792)" stroke-width="20" stroke-linecap="butt" stroke-miterlimit="10" stroke-linejoin="miter" fill="none" stroke="#ffffff" d="M3950.6 3848.8 4085 3616H4960V3266L5263.1 3091 5700.6 3848.8Z"/>
<path transform="matrix(.1,0,0,-.1,0,792)" d="M3950.6 3848.8 3075.6 2333.2H3950.6V2683.2L3647.5 2858.2 4085 3616" fill="#006600"/>
<path transform="matrix(.1,0,0,-.1,0,792)" stroke-width="20" stroke-linecap="butt" stroke-miterlimit="10" stroke-linejoin="miter" fill="none" stroke="#ffffff" d="M3950.6 3848.8 3075.6 2333.2H3950.6V2683.2L3647.5 2858.2 4085 3616Z"/>
<path transform="matrix(.1,0,0,-.1,0,792)" d="M3647.5 2858.2 3950.6 2683.2 4253.8 2858.2 4691.3 2100.5H4960L4085 3616" fill="#660000"/>
<path transform="matrix(.1,0,0,-.1,0,792)" stroke-width="20" stroke-linecap="butt" stroke-miterlimit="10" stroke-linejoin="miter" fill="none" stroke="#ffffff" d="M3647.5 2858.2 3950.6 2683.2 4253.8 2858.2 4691.3 2100.5H4960L4085 3616Z"/>
<path transform="matrix(.1,0,0,-.1,0,792)" d="M2235 2858.2 1931.9 2683.2V2333.2H1056.9L922.5 2100.5H2672.5" fill="#006600"/>
<path transform="matrix(.1,0,0,-.1,0,792)" stroke-width="20" stroke-linecap="butt" stroke-miterlimit="10" stroke-linejoin="miter" fill="none" stroke="#ffffff" d="M2235 2858.2 1931.9 2683.2V2333.2H1056.9L922.5 2100.5H2672.5Z"/>
<path transform="matrix(.1,0,0,-.1,0,792)" d="M2941.3 5597.1 2066.3 7112.6 1628.8 6354.9 1931.9 6179.9 2235 6354.9 2672.5 5597.1" fill="#000066"/>
<path transform="matrix(.1,0,0,-.1,0,792)" stroke-width="20" stroke-linecap="butt" stroke-miterlimit="10" stroke-linejoin="miter" fill="none" stroke="#ffffff" d="M2941.3 5597.1 2066.3 7112.6 1628.8 6354.9 1931.9 6179.9 2235 6354.9 2672.5 5597.1Z"/>
<path transform="matrix(.1,0,0,-.1,0,792)" d="M2941.3 5597.1 3075.6 5829.9 2638.1 6587.6 2941.3 6762.6V7112.6H2066.3" fill="#1a0066"/>
<path transform="matrix(.1,0,0,-.1,0,792)" stroke-width="20" stroke-linecap="butt" stroke-miterlimit="10" stroke-linejoin="miter" fill="none" stroke="#ffffff" d="M2941.3 5597.1 3075.6 5829.9 2638.1 6587.6 2941.3 6762.6V7112.6H2066.3Z"/>
<path transform="matrix(.1,0,0,-.1,0,792)" d="M2941.3 5597.1H4691.3L4253.8 6354.9 3950.6 6179.9V5829.9H3075.6" fill="#000066"/>
<path transform="matrix(.1,0,0,-.1,0,792)" stroke-width="20" stroke-linecap="butt" stroke-miterlimit="10" stroke-linejoin="miter" fill="none" stroke="#ffffff" d="M2941.3 5597.1H4691.3L4253.8 6354.9 3950.6 6179.9V5829.9H3075.6Z"/>
<path transform="matrix(.1,0,0,-.1,0,792)" d="M2672.5 5597.1 2235 6354.9 1931.9 6179.9V5829.9H1056.9L922.5 5597.1" fill="#006600"/>
<path transform="matrix(.1,0,0,-.1,0,792)" stroke-width="20" stroke-linecap="butt" stroke-miterlimit="10" stroke-linejoin="miter" fill="none" stroke="#ffffff" d="M2672.5 5597.1 2235 6354.9 1931.9 6179.9V5829.9H1056.9L922.5 5597.1Z"/>
<path transform="matrix(.1,0,0,-.1,0,792)" d="M1931.9 3848.8H1663.1L1225.6 3091 922.5 3266 619.398 3091 1056.9 2333.2" fill="#661a00"/>
<path transform="matrix(.1,0,0,-.1,0,792)" stroke-width="20" stroke-linecap="butt" stroke-miterlimit="10" stroke-linejoin="miter" fill="none" stroke="#ffffff" d="M1931.9 3848.8H1663.1L1225.6 3091 922.5 3266 619.398 3091 1056.9 2333.2Z"/>
<path transform="matrix(.1,0,0,-.1,0,792)" d="M1931.9 3848.8 1056.9 5364.3 619.398 4606.6 922.5 4431.6 1225.6 4606.6 1663.1 3848.8" fill="#660000"/>
<path transform="matrix(.1,0,0,-.1,0,792)" stroke-width="20" stroke-linecap="butt" stroke-miterlimit="10" stroke-linejoin="miter" fill="none" stroke="#ffffff" d="M1931.9 3848.8 1056.9 5364.3 619.398 4606.6 922.5 4431.6 1225.6 4606.6 1663.1 3848.8Z"/>
<path transform="matrix(.1,0,0,-.1,0,792)" d="M3950.6 2683.2V2333.2H3075.6L2941.3 2100.5H4691.3L4253.8 2858.2" fill="#000066"/>
<path transform="matrix(.1,0,0,-.1,0,792)" stroke-width="20" stroke-linecap="butt" stroke-miterlimit="10" stroke-linejoin="miter" fill="none" stroke="#ffffff" d="M3950.6 2683.2V2333.2H3075.6L2941.3 2100.5H4691.3L4253.8 2858.2Z"/>
<path transform="matrix(.1,0,0,-.1,0,792)" d="M4085 3616 4960 2100.5 5094.4 2333.2 4656.9 3091 4960 3266V3616" fill="#661a00"/>
<path transform="matrix(.1,0,0,-.1,0,792)" stroke-width="20" stroke-linecap="butt" stroke-miterlimit="10" stroke-linejoin="miter" fill="none" stroke="#ffffff" d="M4085 3616 4960 2100.5 5094.4 2333.2 4656.9 3091 4960 3266V3616Z"/>
<path transform="matrix(.1,0,0,-.1,0,792)" d="M4085 4081.6H4960V4431.6L4656.9 4606.6 5094.4 5364.3 4960 5597.1" fill="#660000"/>
<path transform="matrix(.1,0,0,-.1,0,792)" stroke-width="20" stroke-linecap="butt" stroke-miterlimit="10" stroke-linejoin="miter" fill="none" stroke="#ffffff" d="M4085 4081.6H4960V4431.6L4656.9 4606.6 5094.4 5364.3 4960 5597.1Z"/>
<path transform="matrix(.1,0,0,-.1,0,792)" d="M3950.6 5829.9V6179.9L3647.5 6354.9 4085 7112.6 3950.6 7345.4 3075.6 5829.9" fill="#006600"/>
<path transform="matrix(.1,0,0,-.1,0,792)" stroke-width="20" stroke-linecap="butt" stroke-miterlimit="10" stroke-linejoin="miter" fill="none" stroke="#ffffff" d="M3950.6 5829.9V6179.9L3647.5 6354.9 4085 7112.6 3950.6 7345.4 3075.6 5829.9Z"/>
<path transform="matrix(.1,0,0,-.1,0,792)" d="M3075.6 5829.9 3950.6 7345.4H3681.9L3244.4 6587.6 2941.3 6762.6 2638.1 6587.6" fill="#00661a"/>
<path transform="matrix(.1,0,0,-.1,0,792)" stroke-width="20" stroke-linecap="butt" stroke-miterlimit="10" stroke-linejoin="miter" fill="none" stroke="#ffffff" d="M3075.6 5829.9 3950.6 7345.4H3681.9L3244.4 6587.6 2941.3 6762.6 2638.1 6587.6Z"/>
<path transform="matrix(.1,0,0,-.1,0,792)" d="M1931.9 5829.9V6179.9L1628.8 6354.9 2066.3 7112.6 1931.9 7345.4 1056.9 5829.9" fill="#660000"/>
<path transform="matrix(.1,0,0,-.1,0,792)" stroke-width="20" stroke-linecap="butt" stroke-miterlimit="10" stroke-linejoin="miter" fill="none" stroke="#ffffff" d="M1931.9 5829.9V6179.9L1628.8 6354.9 2066.3 7112.6 1931.9 7345.4 1056.9 5829.9Z"/>
<path transform="matrix(.1,0,0,-.1,0,792)" d="M1663.1 3848.8H-86.8984L47.5 3616H922.5V3266L1225.6 3091" fill="#1a0066"/>
<path transform="matrix(.1,0,0,-.1,0,792)" stroke-width="20" stroke-linecap="butt" stroke-miterlimit="10" stroke-linejoin="miter" fill="none" stroke="#ffffff" d="M1663.1 3848.8H-86.8984L47.5 3616H922.5V3266L1225.6 3091Z"/>
<path transform="matrix(.1,0,0,-.1,0,792)" d="M1663.1 3848.8 1225.6 4606.6 922.5 4431.6V4081.6H47.5L-86.8984 3848.8" fill="#000066"/>
<path transform="matrix(.1,0,0,-.1,0,792)" stroke-width="20" stroke-linecap="butt" stroke-miterlimit="10" stroke-linejoin="miter" fill="none" stroke="#ffffff" d="M1663.1 3848.8 1225.6 4606.6 922.5 4431.6V4081.6H47.5L-86.8984 3848.8Z"/>
<path transform="matrix(.1,0,0,-.1,0,792)" d="M3950.6 6179.9 4253.8 6354.9 4691.3 5597.1H4960L4085 7112.6 3647.5 6354.9" fill="#660000"/>
<path transform="matrix(.1,0,0,-.1,0,792)" stroke-width="20" stroke-linecap="butt" stroke-miterlimit="10" stroke-linejoin="miter" fill="none" stroke="#ffffff" d="M3950.6 6179.9 4253.8 6354.9 4691.3 5597.1H4960L4085 7112.6 3647.5 6354.9Z"/>
<path transform="matrix(.1,0,0,-.1,0,792)" d="M2672.5 2100.5 2235 1342.7 1931.9 1517.7 1628.8 1342.7 2066.3 584.898 2941.3 2100.5" fill="#1a0066"/>
<path transform="matrix(.1,0,0,-.1,0,792)" stroke-width="20" stroke-linecap="butt" stroke-miterlimit="10" stroke-linejoin="miter" fill="none" stroke="#ffffff" d="M2672.5 2100.5 2235 1342.7 1931.9 1517.7 1628.8 1342.7 2066.3 584.898 2941.3 2100.5Z"/>
<path transform="matrix(.1,0,0,-.1,0,792)" d="M2672.5 2100.5H922.5L1056.9 1867.7H1931.9V1517.7L2235 1342.7" fill="#00661a"/>
<path transform="matrix(.1,0,0,-.1,0,792)" stroke-width="20" stroke-linecap="butt" stroke-miterlimit="10" stroke-linejoin="miter" fill="none" stroke="#ffffff" d="M2672.5 2100.5H922.5L1056.9 1867.7H1931.9V1517.7L2235 1342.7Z"/>
<path transform="matrix(.1,0,0,-.1,0,792)" d="M2941.3 2100.5 3075.6 1867.7H3950.6V1517.7L4253.8 1342.7 4691.3 2100.5" fill="#1a0066"/>
<path transform="matrix(.1,0,0,-.1,0,792)" stroke-width="20" stroke-linecap="butt" stroke-miterlimit="10" stroke-linejoin="miter" fill="none" stroke="#ffffff" d="M2941.3 2100.5 3075.6 1867.7H3950.6V1517.7L4253.8 1342.7 4691.3 2100.5Z"/>
<path transform="matrix(.1,0,0,-.1,0,792)" d="M2941.3 2100.5 2066.3 584.898H2941.3V934.898L2638.1 1109.9 3075.6 1867.7" fill="#000066"/>
<path transform="matrix(.1,0,0,-.1,0,792)" stroke-width="20" stroke-linecap="butt" stroke-miterlimit="10" stroke-linejoin="miter" fill="none" stroke="#ffffff" d="M2941.3 2100.5 2066.3 584.898H2941.3V934.898L2638.1 1109.9 3075.6 1867.7Z"/>
<path transform="matrix(.1,0,0,-.1,0,792)" d="M4656.9 3091 5094.4 2333.2 5969.4 3848.8H5700.6L5263.1 3091 4960 3266" fill="#1a0066"/>
<path transform="matrix(.1,0,0,-.1,0,792)" stroke-width="20" stroke-linecap="butt" stroke-miterlimit="10" stroke-linejoin="miter" fill="none" stroke="#ffffff" d="M4656.9 3091 5094.4 2333.2 5969.4 3848.8H5700.6L5263.1 3091 4960 3266Z"/>
<path transform="matrix(.1,0,0,-.1,0,792)" d="M4656.9 4606.6 4960 4431.6 5263.1 4606.6 5700.6 3848.8H5969.4L5094.4 5364.3" fill="#000066"/>
<path transform="matrix(.1,0,0,-.1,0,792)" stroke-width="20" stroke-linecap="butt" stroke-miterlimit="10" stroke-linejoin="miter" fill="none" stroke="#ffffff" d="M4656.9 4606.6 4960 4431.6 5263.1 4606.6 5700.6 3848.8H5969.4L5094.4 5364.3Z"/>
<path transform="matrix(.1,0,0,-.1,0,792)" d="M1931.9 1867.7H1056.9L1931.9 352.102 2066.3 584.898 1628.8 1342.7 1931.9 1517.7" fill="#661a00"/>
<path transform="matrix(.1,0,0,-.1,0,792)" stroke-width="20" stroke-linecap="butt" stroke-miterlimit="10" stroke-linejoin="miter" fill="none" stroke="#ffffff" d="M1931.9 1867.7H1056.9L1931.9 352.102 2066.3 584.898 1628.8 1342.7 1931.9 1517.7Z"/>
<path transform="matrix(.1,0,0,-.1,0,792)" d="M3075.6 1867.7 3950.6 352.102 4085 584.898 3647.5 1342.7 3950.6 1517.7V1867.7" fill="#00661a"/>
<path transform="matrix(.1,0,0,-.1,0,792)" stroke-width="20" stroke-linecap="butt" stroke-miterlimit="10" stroke-linejoin="miter" fill="none" stroke="#ffffff" d="M3075.6 1867.7 3950.6 352.102 4085 584.898 3647.5 1342.7 3950.6 1517.7V1867.7Z"/>
<path transform="matrix(.1,0,0,-.1,0,792)" d="M3075.6 1867.7 2638.1 1109.9 2941.3 934.898 3244.4 1109.9 3681.9 352.102H3950.6" fill="#006600"/>
<path transform="matrix(.1,0,0,-.1,0,792)" stroke-width="20" stroke-linecap="butt" stroke-miterlimit="10" stroke-linejoin="miter" fill="none" stroke="#ffffff" d="M3075.6 1867.7 2638.1 1109.9 2941.3 934.898 3244.4 1109.9 3681.9 352.102H3950.6Z"/>
<path transform="matrix(.1,0,0,-.1,0,792)" d="M4691.3 2100.5 4253.8 1342.7 3950.6 1517.7 3647.5 1342.7 4085 584.898 4960 2100.5" fill="#661a00"/>
<path transform="matrix(.1,0,0,-.1,0,792)" stroke-width="20" stroke-linecap="butt" stroke-miterlimit="10" stroke-linejoin="miter" fill="none" stroke="#ffffff" d="M4691.3 2100.5 4253.8 1342.7 3950.6 1517.7 3647.5 1342.7 4085 584.898 4960 2100.5Z"/>
<path transform="matrix(.1,0,0,-.1,0,792)" d="M3244.4 6587.6 3681.9 7345.4H1931.9L2066.3 7112.6H2941.3V6762.6" fill="#661a00"/>
<path transform="matrix(.1,0,0,-.1,0,792)" stroke-width="20" stroke-linecap="butt" stroke-miterlimit="10" stroke-linejoin="miter" fill="none" stroke="#ffffff" d="M3244.4 6587.6 3681.9 7345.4H1931.9L2066.3 7112.6H2941.3V6762.6Z"/>
<path transform="matrix(.1,0,0,-.1,0,792)" d="M1056.9 5829.9 619.398 6587.6 922.5 6762.6V7112.6H47.5L922.5 5597.1" fill="#00661a"/>
<path transform="matrix(.1,0,0,-.1,0,792)" stroke-width="20" stroke-linecap="butt" stroke-miterlimit="10" stroke-linejoin="miter" fill="none" stroke="#ffffff" d="M1056.9 5829.9 619.398 6587.6 922.5 6762.6V7112.6H47.5L922.5 5597.1Z"/>
<path transform="matrix(.1,0,0,-.1,0,792)" d="M1056.9 5829.9 1931.9 7345.4H1663.1L1225.6 6587.6 922.5 6762.6 619.398 6587.6" fill="#661a00"/>
<path transform="matrix(.1,0,0,-.1,0,792)" stroke-width="20" stroke-linecap="butt" stroke-miterlimit="10" stroke-linejoin="miter" fill="none" stroke="#ffffff" d="M1056.9 5829.9 1931.9 7345.4H1663.1L1225.6 6587.6 922.5 6762.6 619.398 6587.6Z"/>
<path transform="matrix(.1,0,0,-.1,0,792)" d="M1225.6 6587.6 1663.1 7345.4H-86.8984L47.5 7112.6H922.5V6762.6" fill="#1a0066"/>
<path transform="matrix(.1,0,0,-.1,0,792)" stroke-width="20" stroke-linecap="butt" stroke-miterlimit="10" stroke-linejoin="miter" fill="none" stroke="#ffffff" d="M1225.6 6587.6 1663.1 7345.4H-86.8984L47.5 7112.6H922.5V6762.6Z"/>
<path transform="matrix(.1,0,0,-.1,0,792)" d="M1056.9 5364.3 922.5 5597.1 47.5 4081.6H922.5V4431.6L619.398 4606.6" fill="#006600"/>
<path transform="matrix(.1,0,0,-.1,0,792)" stroke-width="20" stroke-linecap="butt" stroke-miterlimit="10" stroke-linejoin="miter" fill="none" stroke="#ffffff" d="M1056.9 5364.3 922.5 5597.1 47.5 4081.6H922.5V4431.6L619.398 4606.6Z"/>
<path transform="matrix(.1,0,0,-.1,0,792)" d="M1056.9 2333.2 619.398 3091 922.5 3266V3616H47.5L922.5 2100.5" fill="#00661a"/>
<path transform="matrix(.1,0,0,-.1,0,792)" stroke-width="20" stroke-linecap="butt" stroke-miterlimit="10" stroke-linejoin="miter" fill="none" stroke="#ffffff" d="M1056.9 2333.2 619.398 3091 922.5 3266V3616H47.5L922.5 2100.5Z"/>
<path transform="matrix(.1,0,0,-.1,0,792)" d="M1056.9 1867.7 619.398 1109.9 922.5 934.898 1225.6 1109.9 1663.1 352.102H1931.9" fill="#660000"/>
<path transform="matrix(.1,0,0,-.1,0,792)" stroke-width="20" stroke-linecap="butt" stroke-miterlimit="10" stroke-linejoin="miter" fill="none" stroke="#ffffff" d="M1056.9 1867.7 619.398 1109.9 922.5 934.898 1225.6 1109.9 1663.1 352.102H1931.9Z"/>
<path transform="matrix(.1,0,0,-.1,0,792)" d="M1056.9 1867.7 922.5 2100.5 47.5 584.898H922.5V934.898L619.398 1109.9" fill="#006600"/>
<path transform="matrix(.1,0,0,-.1,0,792)" stroke-width="20" stroke-linecap="butt" stroke-miterlimit="10" stroke-linejoin="miter" fill="none" stroke="#ffffff" d="M1056.9 1867.7 922.5 2100.5 47.5 584.898H922.5V934.898L619.398 1109.9Z"/>
<path transform="matrix(.1,0,0,-.1,0,792)" d="M4960 2100.5H6710L6272.5 2858.2 5969.4 2683.2V2333.2H5094.4" fill="#660000"/>
<path transform="matrix(.1,0,0,-.1,0,792)" stroke-width="20" stroke-linecap="butt" stroke-miterlimit="10" stroke-linejoin="miter" fill="none" stroke="#ffffff" d="M4960 2100.5H6710L6272.5 2858.2 5969.4 2683.2V2333.2H5094.4Z"/>
<path transform="matrix(.1,0,0,-.1,0,792)" d="M4960 2100.5 5094.4 1867.7H5969.4V1517.7L6272.5 1342.7 6710 2100.5" fill="#661a00"/>
<path transform="matrix(.1,0,0,-.1,0,792)" stroke-width="20" stroke-linecap="butt" stroke-miterlimit="10" stroke-linejoin="miter" fill="none" stroke="#ffffff" d="M4960 2100.5 5094.4 1867.7H5969.4V1517.7L6272.5 1342.7 6710 2100.5Z"/>
<path transform="matrix(.1,0,0,-.1,0,792)" d="M4960 2100.5 4085 584.898H4960V934.898L4656.9 1109.9 5094.4 1867.7" fill="#660000"/>
<path transform="matrix(.1,0,0,-.1,0,792)" stroke-width="20" stroke-linecap="butt" stroke-miterlimit="10" stroke-linejoin="miter" fill="none" stroke="#ffffff" d="M4960 2100.5 4085 584.898H4960V934.898L4656.9 1109.9 5094.4 1867.7Z"/>
<path transform="matrix(.1,0,0,-.1,0,792)" d="M4960 5597.1 5094.4 5829.9 4656.9 6587.6 4960 6762.6V7112.6H4085" fill="#661a00"/>
<path transform="matrix(.1,0,0,-.1,0,792)" stroke-width="20" stroke-linecap="butt" stroke-miterlimit="10" stroke-linejoin="miter" fill="none" stroke="#ffffff" d="M4960 5597.1 5094.4 5829.9 4656.9 6587.6 4960 6762.6V7112.6H4085Z"/>
<path transform="matrix(.1,0,0,-.1,0,792)" d="M4656.9 6587.6 5094.4 5829.9 5969.4 7345.4H5700.6L5263.1 6587.6 4960 6762.6" fill="#1a0066"/>
<path transform="matrix(.1,0,0,-.1,0,792)" stroke-width="20" stroke-linecap="butt" stroke-miterlimit="10" stroke-linejoin="miter" fill="none" stroke="#ffffff" d="M4656.9 6587.6 5094.4 5829.9 5969.4 7345.4H5700.6L5263.1 6587.6 4960 6762.6Z"/>
<path transform="matrix(.1,0,0,-.1,0,792)" d="M4960 5597.1H6710L6272.5 6354.9 5969.4 6179.9V5829.9H5094.4" fill="#660000"/>
<path transform="matrix(.1,0,0,-.1,0,792)" stroke-width="20" stroke-linecap="butt" stroke-miterlimit="10" stroke-linejoin="miter" fill="none" stroke="#ffffff" d="M4960 5597.1H6710L6272.5 6354.9 5969.4 6179.9V5829.9H5094.4Z"/>
<path transform="matrix(.1,0,0,-.1,0,792)" d="M4960 5597.1 5094.4 5364.3H5969.4V5014.3L6272.5 4839.3 6710 5597.1" fill="#661a00"/>
<path transform="matrix(.1,0,0,-.1,0,792)" stroke-width="20" stroke-linecap="butt" stroke-miterlimit="10" stroke-linejoin="miter" fill="none" stroke="#ffffff" d="M4960 5597.1 5094.4 5364.3H5969.4V5014.3L6272.5 4839.3 6710 5597.1Z"/>
<path transform="matrix(.1,0,0,-.1,0,792)" d="M4960 6762.6 5263.1 6587.6 5700.6 7345.4H3950.6L4085 7112.6H4960" fill="#00661a"/>
<path transform="matrix(.1,0,0,-.1,0,792)" stroke-width="20" stroke-linecap="butt" stroke-miterlimit="10" stroke-linejoin="miter" fill="none" stroke="#ffffff" d="M4960 6762.6 5263.1 6587.6 5700.6 7345.4H3950.6L4085 7112.6H4960Z"/>
<path transform="matrix(.1,0,0,-.1,0,792)" d="M922.5 5597.1H653.699L216.199 4839.3-86.8984 5014.3-390 4839.3 47.5 4081.6" fill="#00661a"/>
<path transform="matrix(.1,0,0,-.1,0,792)" stroke-width="20" stroke-linecap="butt" stroke-miterlimit="10" stroke-linejoin="miter" fill="none" stroke="#ffffff" d="M922.5 5597.1H653.699L216.199 4839.3-86.8984 5014.3-390 4839.3 47.5 4081.6Z"/>
<path transform="matrix(.1,0,0,-.1,0,792)" d="M922.5 5597.1 47.5 7112.6-390 6354.9-86.8984 6179.9 216.199 6354.9 653.699 5597.1" fill="#006600"/>
<path transform="matrix(.1,0,0,-.1,0,792)" stroke-width="20" stroke-linecap="butt" stroke-miterlimit="10" stroke-linejoin="miter" fill="none" stroke="#ffffff" d="M922.5 5597.1 47.5 7112.6-390 6354.9-86.8984 6179.9 216.199 6354.9 653.699 5597.1Z"/>
<path transform="matrix(.1,0,0,-.1,0,792)" d="M922.5 2100.5H653.699L216.199 1342.7-86.8984 1517.7-390 1342.7 47.5 584.898" fill="#00661a"/>
<path transform="matrix(.1,0,0,-.1,0,792)" stroke-width="20" stroke-linecap="butt" stroke-miterlimit="10" stroke-linejoin="miter" fill="none" stroke="#ffffff" d="M922.5 2100.5H653.699L216.199 1342.7-86.8984 1517.7-390 1342.7 47.5 584.898Z"/>
<path transform="matrix(.1,0,0,-.1,0,792)" d="M922.5 2100.5 47.5 3616-390 2858.2-86.8984 2683.2 216.199 2858.2 653.699 2100.5" fill="#006600"/>
<path transform="matrix(.1,0,0,-.1,0,792)" stroke-width="20" stroke-linecap="butt" stroke-miterlimit="10" stroke-linejoin="miter" fill="none" stroke="#ffffff" d="M922.5 2100.5 47.5 3616-390 2858.2-86.8984 2683.2 216.199 2858.2 653.699 2100.5Z"/>
<path transform="matrix(.1,0,0,-.1,0,792)" d="M5094.4 1867.7 5969.4 352.102 6103.8 584.898 5666.3 1342.7 5969.4 1517.7V1867.7" fill="#1a0066"/>
<path transform="matrix(.1,0,0,-.1,0,792)" stroke-width="20" stroke-linecap="butt" stroke-miterlimit="10" stroke-linejoin="miter" fill="none" stroke="#ffffff" d="M5094.4 1867.7 5969.4 352.102 6103.8 584.898 5666.3 1342.7 5969.4 1517.7V1867.7Z"/>
<path transform="matrix(.1,0,0,-.1,0,792)" d="M5094.4 1867.7 4656.9 1109.9 4960 934.898 5263.1 1109.9 5700.6 352.102H5969.4" fill="#000066"/>
<path transform="matrix(.1,0,0,-.1,0,792)" stroke-width="20" stroke-linecap="butt" stroke-miterlimit="10" stroke-linejoin="miter" fill="none" stroke="#ffffff" d="M5094.4 1867.7 4656.9 1109.9 4960 934.898 5263.1 1109.9 5700.6 352.102H5969.4Z"/>
<path transform="matrix(.1,0,0,-.1,0,792)" d="M5094.4 2333.2H5969.4V2683.2L5666.3 2858.2 6103.8 3616 5969.4 3848.8" fill="#000066"/>
<path transform="matrix(.1,0,0,-.1,0,792)" stroke-width="20" stroke-linecap="butt" stroke-miterlimit="10" stroke-linejoin="miter" fill="none" stroke="#ffffff" d="M5094.4 2333.2H5969.4V2683.2L5666.3 2858.2 6103.8 3616 5969.4 3848.8Z"/>
<path transform="matrix(.1,0,0,-.1,0,792)" d="M5094.4 5364.3 5969.4 3848.8 6103.8 4081.6 5666.3 4839.3 5969.4 5014.3V5364.3" fill="#1a0066"/>
<path transform="matrix(.1,0,0,-.1,0,792)" stroke-width="20" stroke-linecap="butt" stroke-miterlimit="10" stroke-linejoin="miter" fill="none" stroke="#ffffff" d="M5094.4 5364.3 5969.4 3848.8 6103.8 4081.6 5666.3 4839.3 5969.4 5014.3V5364.3Z"/>
<path transform="matrix(.1,0,0,-.1,0,792)" d="M5094.4 5829.9H5969.4V6179.9L5666.3 6354.9 6103.8 7112.6 5969.4 7345.4" fill="#000066"/>
<path transform="matrix(.1,0,0,-.1,0,792)" stroke-width="20" stroke-linecap="butt" stroke-miterlimit="10" stroke-linejoin="miter" fill="none" stroke="#ffffff" d="M5094.4 5829.9H5969.4V6179.9L5666.3 6354.9 6103.8 7112.6 5969.4 7345.4Z"/>
<path transform="matrix(.1,0,0,-.1,0,792)" d="M1225.6 1109.9 922.5 934.898V584.898H47.5L-86.8984 352.102H1663.1" fill="#000066"/>
<path transform="matrix(.1,0,0,-.1,0,792)" stroke-width="20" stroke-linecap="butt" stroke-miterlimit="10" stroke-linejoin="miter" fill="none" stroke="#ffffff" d="M1225.6 1109.9 922.5 934.898V584.898H47.5L-86.8984 352.102H1663.1Z"/>
<path transform="matrix(.1,0,0,-.1,0,792)" d="M3244.4 1109.9 2941.3 934.898V584.898H2066.3L1931.9 352.102H3681.9" fill="#660000"/>
<path transform="matrix(.1,0,0,-.1,0,792)" stroke-width="20" stroke-linecap="butt" stroke-miterlimit="10" stroke-linejoin="miter" fill="none" stroke="#ffffff" d="M3244.4 1109.9 2941.3 934.898V584.898H2066.3L1931.9 352.102H3681.9Z"/>
<path transform="matrix(.1,0,0,-.1,0,792)" d="M3950.6 7345.4 3075.6 8861 2638.1 8103.2 2941.3 7928.2 3244.4 8103.2 3681.9 7345.4" fill="#006600"/>
<path transform="matrix(.1,0,0,-.1,0,792)" stroke-width="20" stroke-linecap="butt" stroke-miterlimit="10" stroke-linejoin="miter" fill="none" stroke="#ffffff" d="M3950.6 7345.4 3075.6 8861 2638.1 8103.2 2941.3 7928.2 3244.4 8103.2 3681.9 7345.4Z"/>
<path transform="matrix(.1,0,0,-.1,0,792)" d="M3950.6 7345.4 4085 7578.2 3647.5 8336 3950.6 8511V8861H3075.6" fill="#00661a"/>
<path transform="matrix(.1,0,0,-.1,0,792)" stroke-width="20" stroke-linecap="butt" stroke-miterlimit="10" stroke-linejoin="miter" fill="none" stroke="#ffffff" d="M3950.6 7345.4 4085 7578.2 3647.5 8336 3950.6 8511V8861H3075.6Z"/>
<path transform="matrix(.1,0,0,-.1,0,792)" d="M3950.6 7345.4H5700.6L5263.1 8103.2 4960 7928.2V7578.2H4085" fill="#006600"/>
<path transform="matrix(.1,0,0,-.1,0,792)" stroke-width="20" stroke-linecap="butt" stroke-miterlimit="10" stroke-linejoin="miter" fill="none" stroke="#ffffff" d="M3950.6 7345.4H5700.6L5263.1 8103.2 4960 7928.2V7578.2H4085Z"/>
<path transform="matrix(.1,0,0,-.1,0,792)" d="M3681.9 7345.4 3244.4 8103.2 2941.3 7928.2V7578.2H2066.3L1931.9 7345.4" fill="#660000"/>
<path transform="matrix(.1,0,0,-.1,0,792)" stroke-width="20" stroke-linecap="butt" stroke-miterlimit="10" stroke-linejoin="miter" fill="none" stroke="#ffffff" d="M3681.9 7345.4 3244.4 8103.2 2941.3 7928.2V7578.2H2066.3L1931.9 7345.4Z"/>
<path transform="matrix(.1,0,0,-.1,0,792)" d="M1931.9 7345.4 1056.9 8861 619.398 8103.2 922.5 7928.2 1225.6 8103.2 1663.1 7345.4" fill="#660000"/>
<path transform="matrix(.1,0,0,-.1,0,792)" stroke-width="20" stroke-linecap="butt" stroke-miterlimit="10" stroke-linejoin="miter" fill="none" stroke="#ffffff" d="M1931.9 7345.4 1056.9 8861 619.398 8103.2 922.5 7928.2 1225.6 8103.2 1663.1 7345.4Z"/>
<path transform="matrix(.1,0,0,-.1,0,792)" d="M1931.9 7345.4 2066.3 7578.2 1628.8 8336 1931.9 8511V8861H1056.9" fill="#661a00"/>
<path transform="matrix(.1,0,0,-.1,0,792)" stroke-width="20" stroke-linecap="butt" stroke-miterlimit="10" stroke-linejoin="miter" fill="none" stroke="#ffffff" d="M1931.9 7345.4 2066.3 7578.2 1628.8 8336 1931.9 8511V8861H1056.9Z"/>
<path transform="matrix(.1,0,0,-.1,0,792)" d="M1663.1 7345.4 1225.6 8103.2 922.5 7928.2V7578.2H47.5L-86.8984 7345.4" fill="#000066"/>
<path transform="matrix(.1,0,0,-.1,0,792)" stroke-width="20" stroke-linecap="butt" stroke-miterlimit="10" stroke-linejoin="miter" fill="none" stroke="#ffffff" d="M1663.1 7345.4 1225.6 8103.2 922.5 7928.2V7578.2H47.5L-86.8984 7345.4Z"/>
<path transform="matrix(.1,0,0,-.1,0,792)" d="M5263.1 1109.9 4960 934.898V584.898H4085L3950.6 352.102H5700.6" fill="#006600"/>
<path transform="matrix(.1,0,0,-.1,0,792)" stroke-width="20" stroke-linecap="butt" stroke-miterlimit="10" stroke-linejoin="miter" fill="none" stroke="#ffffff" d="M5263.1 1109.9 4960 934.898V584.898H4085L3950.6 352.102H5700.6Z"/>
<path transform="matrix(.1,0,0,-.1,0,792)" d="M653.699 5597.1H-1096.3L-961.898 5364.3H-86.8984V5014.3L216.199 4839.3" fill="#661a00"/>
<path transform="matrix(.1,0,0,-.1,0,792)" stroke-width="20" stroke-linecap="butt" stroke-miterlimit="10" stroke-linejoin="miter" fill="none" stroke="#ffffff" d="M653.699 5597.1H-1096.3L-961.898 5364.3H-86.8984V5014.3L216.199 4839.3Z"/>
<path transform="matrix(.1,0,0,-.1,0,792)" d="M653.699 5597.1 216.199 6354.9-86.8984 6179.9V5829.9H-961.898L-1096.3 5597.1" fill="#660000"/>
<path transform="matrix(.1,0,0,-.1,0,792)" stroke-width="20" stroke-linecap="butt" stroke-miterlimit="10" stroke-linejoin="miter" fill="none" stroke="#ffffff" d="M653.699 5597.1 216.199 6354.9-86.8984 6179.9V5829.9H-961.898L-1096.3 5597.1Z"/>
<path transform="matrix(.1,0,0,-.1,0,792)" d="M653.699 2100.5H-1096.3L-961.898 1867.7H-86.8984V1517.7L216.199 1342.7" fill="#661a00"/>
<path transform="matrix(.1,0,0,-.1,0,792)" stroke-width="20" stroke-linecap="butt" stroke-miterlimit="10" stroke-linejoin="miter" fill="none" stroke="#ffffff" d="M653.699 2100.5H-1096.3L-961.898 1867.7H-86.8984V1517.7L216.199 1342.7Z"/>
<path transform="matrix(.1,0,0,-.1,0,792)" d="M653.699 2100.5 216.199 2858.2-86.8984 2683.2V2333.2H-961.898L-1096.3 2100.5" fill="#660000"/>
<path transform="matrix(.1,0,0,-.1,0,792)" stroke-width="20" stroke-linecap="butt" stroke-miterlimit="10" stroke-linejoin="miter" fill="none" stroke="#ffffff" d="M653.699 2100.5 216.199 2858.2-86.8984 2683.2V2333.2H-961.898L-1096.3 2100.5Z"/>
<path transform="matrix(.1,0,0,-.1,0,792)" d="M4960 7578.2V7928.2L4656.9 8103.2 5094.4 8861 4960 9093.7 4085 7578.2" fill="#660000"/>
<path transform="matrix(.1,0,0,-.1,0,792)" stroke-width="20" stroke-linecap="butt" stroke-miterlimit="10" stroke-linejoin="miter" fill="none" stroke="#ffffff" d="M4960 7578.2V7928.2L4656.9 8103.2 5094.4 8861 4960 9093.7 4085 7578.2Z"/>
<path transform="matrix(.1,0,0,-.1,0,792)" d="M4085 7578.2 4960 9093.7H4691.3L4253.8 8336 3950.6 8511 3647.5 8336" fill="#661a00"/>
<path transform="matrix(.1,0,0,-.1,0,792)" stroke-width="20" stroke-linecap="butt" stroke-miterlimit="10" stroke-linejoin="miter" fill="none" stroke="#ffffff" d="M4085 7578.2 4960 9093.7H4691.3L4253.8 8336 3950.6 8511 3647.5 8336Z"/>
<path transform="matrix(.1,0,0,-.1,0,792)" d="M2941.3 7578.2V7928.2L2638.1 8103.2 3075.6 8861 2941.3 9093.7 2066.3 7578.2" fill="#000066"/>
<path transform="matrix(.1,0,0,-.1,0,792)" stroke-width="20" stroke-linecap="butt" stroke-miterlimit="10" stroke-linejoin="miter" fill="none" stroke="#ffffff" d="M2941.3 7578.2V7928.2L2638.1 8103.2 3075.6 8861 2941.3 9093.7 2066.3 7578.2Z"/>
<path transform="matrix(.1,0,0,-.1,0,792)" d="M2066.3 7578.2 2941.3 9093.7H2672.5L2235 8336 1931.9 8511 1628.8 8336" fill="#1a0066"/>
<path transform="matrix(.1,0,0,-.1,0,792)" stroke-width="20" stroke-linecap="butt" stroke-miterlimit="10" stroke-linejoin="miter" fill="none" stroke="#ffffff" d="M2066.3 7578.2 2941.3 9093.7H2672.5L2235 8336 1931.9 8511 1628.8 8336Z"/>
<path transform="matrix(.1,0,0,-.1,0,792)" d="M922.5 7578.2V7928.2L619.398 8103.2 1056.9 8861 922.5 9093.7 47.5 7578.2" fill="#006600"/>
<path transform="matrix(.1,0,0,-.1,0,792)" stroke-width="20" stroke-linecap="butt" stroke-miterlimit="10" stroke-linejoin="miter" fill="none" stroke="#ffffff" d="M922.5 7578.2V7928.2L619.398 8103.2 1056.9 8861 922.5 9093.7 47.5 7578.2Z"/>
<path transform="matrix(.1,0,0,-.1,0,792)" d="M5666.3 1342.7 6103.8 584.898 6978.8 2100.5H6710L6272.5 1342.7 5969.4 1517.7" fill="#00661a"/>
<path transform="matrix(.1,0,0,-.1,0,792)" stroke-width="20" stroke-linecap="butt" stroke-miterlimit="10" stroke-linejoin="miter" fill="none" stroke="#ffffff" d="M5666.3 1342.7 6103.8 584.898 6978.8 2100.5H6710L6272.5 1342.7 5969.4 1517.7Z"/>
<path transform="matrix(.1,0,0,-.1,0,792)" d="M5666.3 2858.2 5969.4 2683.2 6272.5 2858.2 6710 2100.5H6978.8L6103.8 3616" fill="#006600"/>
<path transform="matrix(.1,0,0,-.1,0,792)" stroke-width="20" stroke-linecap="butt" stroke-miterlimit="10" stroke-linejoin="miter" fill="none" stroke="#ffffff" d="M5666.3 2858.2 5969.4 2683.2 6272.5 2858.2 6710 2100.5H6978.8L6103.8 3616Z"/>
<path transform="matrix(.1,0,0,-.1,0,792)" d="M5666.3 4839.3 6103.8 4081.6 6978.8 5597.1H6710L6272.5 4839.3 5969.4 5014.3" fill="#00661a"/>
<path transform="matrix(.1,0,0,-.1,0,792)" stroke-width="20" stroke-linecap="butt" stroke-miterlimit="10" stroke-linejoin="miter" fill="none" stroke="#ffffff" d="M5666.3 4839.3 6103.8 4081.6 6978.8 5597.1H6710L6272.5 4839.3 5969.4 5014.3Z"/>
<path transform="matrix(.1,0,0,-.1,0,792)" d="M5666.3 6354.9 5969.4 6179.9 6272.5 6354.9 6710 5597.1H6978.8L6103.8 7112.6" fill="#006600"/>
<path transform="matrix(.1,0,0,-.1,0,792)" stroke-width="20" stroke-linecap="butt" stroke-miterlimit="10" stroke-linejoin="miter" fill="none" stroke="#ffffff" d="M5666.3 6354.9 5969.4 6179.9 6272.5 6354.9 6710 5597.1H6978.8L6103.8 7112.6Z"/>
<path transform="matrix(.1,0,0,-.1,0,792)" d="M4960 7928.2 5263.1 8103.2 5700.6 7345.4H5969.4L5094.4 8861 4656.9 8103.2" fill="#000066"/>
<path transform="matrix(.1,0,0,-.1,0,792)" stroke-width="20" stroke-linecap="butt" stroke-miterlimit="10" stroke-linejoin="miter" fill="none" stroke="#ffffff" d="M4960 7928.2 5263.1 8103.2 5700.6 7345.4H5969.4L5094.4 8861 4656.9 8103.2Z"/>
<path transform="matrix(.1,0,0,-.1,0,792)" d="M1663.1 352.102 1225.6-405.602 922.5-230.602 619.398-405.602 1056.9-1163.4 1931.9 352.102" fill="#661a00"/>
<path transform="matrix(.1,0,0,-.1,0,792)" stroke-width="20" stroke-linecap="butt" stroke-miterlimit="10" stroke-linejoin="miter" fill="none" stroke="#ffffff" d="M1663.1 352.102 1225.6-405.602 922.5-230.602 619.398-405.602 1056.9-1163.4 1931.9 352.102Z"/>
<path transform="matrix(.1,0,0,-.1,0,792)" d="M1663.1 352.102H-86.8984L47.5 119.398H922.5V-230.602L1225.6-405.602" fill="#1a0066"/>
<path transform="matrix(.1,0,0,-.1,0,792)" stroke-width="20" stroke-linecap="butt" stroke-miterlimit="10" stroke-linejoin="miter" fill="none" stroke="#ffffff" d="M1663.1 352.102H-86.8984L47.5 119.398H922.5V-230.602L1225.6-405.602Z"/>
<path transform="matrix(.1,0,0,-.1,0,792)" d="M1931.9 352.102 2066.3 119.398H2941.3V-230.602L3244.4-405.602 3681.9 352.102" fill="#661a00"/>
<path transform="matrix(.1,0,0,-.1,0,792)" stroke-width="20" stroke-linecap="butt" stroke-miterlimit="10" stroke-linejoin="miter" fill="none" stroke="#ffffff" d="M1931.9 352.102 2066.3 119.398H2941.3V-230.602L3244.4-405.602 3681.9 352.102Z"/>
<path transform="matrix(.1,0,0,-.1,0,792)" d="M1931.9 352.102 1056.9-1163.4H1931.9V-813.398L1628.8-638.398 2066.3 119.398" fill="#660000"/>
<path transform="matrix(.1,0,0,-.1,0,792)" stroke-width="20" stroke-linecap="butt" stroke-miterlimit="10" stroke-linejoin="miter" fill="none" stroke="#ffffff" d="M1931.9 352.102 1056.9-1163.4H1931.9V-813.398L1628.8-638.398 2066.3 119.398Z"/>
<path transform="matrix(.1,0,0,-.1,0,792)" d="M3681.9 352.102 3244.4-405.602 2941.3-230.602 2638.1-405.602 3075.6-1163.4 3950.6 352.102" fill="#00661a"/>
<path transform="matrix(.1,0,0,-.1,0,792)" stroke-width="20" stroke-linecap="butt" stroke-miterlimit="10" stroke-linejoin="miter" fill="none" stroke="#ffffff" d="M3681.9 352.102 3244.4-405.602 2941.3-230.602 2638.1-405.602 3075.6-1163.4 3950.6 352.102Z"/>
<path transform="matrix(.1,0,0,-.1,0,792)" d="M3950.6 352.102 4085 119.398H4960V-230.602L5263.1-405.602 5700.6 352.102" fill="#00661a"/>
<path transform="matrix(.1,0,0,-.1,0,792)" stroke-width="20" stroke-linecap="butt" stroke-miterlimit="10" stroke-linejoin="miter" fill="none" stroke="#ffffff" d="M3950.6 352.102 4085 119.398H4960V-230.602L5263.1-405.602 5700.6 352.102Z"/>
<path transform="matrix(.1,0,0,-.1,0,792)" d="M3950.6 352.102 3075.6-1163.4H3950.6V-813.398L3647.5-638.398 4085 119.398" fill="#006600"/>
<path transform="matrix(.1,0,0,-.1,0,792)" stroke-width="20" stroke-linecap="butt" stroke-miterlimit="10" stroke-linejoin="miter" fill="none" stroke="#ffffff" d="M3950.6 352.102 3075.6-1163.4H3950.6V-813.398L3647.5-638.398 4085 119.398Z"/>
<path transform="matrix(.1,0,0,-.1,0,792)" d="M5700.6 352.102 5263.1-405.602 4960-230.602 4656.9-405.602 5094.4-1163.4 5969.4 352.102" fill="#1a0066"/>
<path transform="matrix(.1,0,0,-.1,0,792)" stroke-width="20" stroke-linecap="butt" stroke-miterlimit="10" stroke-linejoin="miter" fill="none" stroke="#ffffff" d="M5700.6 352.102 5263.1-405.602 4960-230.602 4656.9-405.602 5094.4-1163.4 5969.4 352.102Z"/>
<path transform="matrix(.1,0,0,-.1,0,792)" d="M47.5 7578.2-390 8336-86.8984 8511V8861H-961.898L-86.8984 7345.4" fill="#1a0066"/>
<path transform="matrix(.1,0,0,-.1,0,792)" stroke-width="20" stroke-linecap="butt" stroke-miterlimit="10" stroke-linejoin="miter" fill="none" stroke="#ffffff" d="M47.5 7578.2-390 8336-86.8984 8511V8861H-961.898L-86.8984 7345.4Z"/>
<path transform="matrix(.1,0,0,-.1,0,792)" d="M47.5 7578.2 922.5 9093.7H653.699L216.199 8336-86.8984 8511-390 8336" fill="#00661a"/>
<path transform="matrix(.1,0,0,-.1,0,792)" stroke-width="20" stroke-linecap="butt" stroke-miterlimit="10" stroke-linejoin="miter" fill="none" stroke="#ffffff" d="M47.5 7578.2 922.5 9093.7H653.699L216.199 8336-86.8984 8511-390 8336Z"/>
<path transform="matrix(.1,0,0,-.1,0,792)" d="M47.5 7112.6-86.8984 7345.4-961.898 5829.9H-86.8984V6179.9L-390 6354.9" fill="#000066"/>
<path transform="matrix(.1,0,0,-.1,0,792)" stroke-width="20" stroke-linecap="butt" stroke-miterlimit="10" stroke-linejoin="miter" fill="none" stroke="#ffffff" d="M47.5 7112.6-86.8984 7345.4-961.898 5829.9H-86.8984V6179.9L-390 6354.9Z"/>
<path transform="matrix(.1,0,0,-.1,0,792)" d="M47.5 4081.6-390 4839.3-86.8984 5014.3V5364.3H-961.898L-86.8984 3848.8" fill="#1a0066"/>
<path transform="matrix(.1,0,0,-.1,0,792)" stroke-width="20" stroke-linecap="butt" stroke-miterlimit="10" stroke-linejoin="miter" fill="none" stroke="#ffffff" d="M47.5 4081.6-390 4839.3-86.8984 5014.3V5364.3H-961.898L-86.8984 3848.8Z"/>
<path transform="matrix(.1,0,0,-.1,0,792)" d="M47.5 3616-86.8984 3848.8-961.898 2333.2H-86.8984V2683.2L-390 2858.2" fill="#000066"/>
<path transform="matrix(.1,0,0,-.1,0,792)" stroke-width="20" stroke-linecap="butt" stroke-miterlimit="10" stroke-linejoin="miter" fill="none" stroke="#ffffff" d="M47.5 3616-86.8984 3848.8-961.898 2333.2H-86.8984V2683.2L-390 2858.2Z"/>
<path transform="matrix(.1,0,0,-.1,0,792)" d="M47.5 584.898-390 1342.7-86.8984 1517.7V1867.7H-961.898L-86.8984 352.102" fill="#1a0066"/>
<path transform="matrix(.1,0,0,-.1,0,792)" stroke-width="20" stroke-linecap="butt" stroke-miterlimit="10" stroke-linejoin="miter" fill="none" stroke="#ffffff" d="M47.5 584.898-390 1342.7-86.8984 1517.7V1867.7H-961.898L-86.8984 352.102Z"/>
<path transform="matrix(.1,0,0,-.1,0,792)" d="M47.5 119.398 922.5-1396.2 1056.9-1163.4 619.398-405.602 922.5-230.602V119.398" fill="#00661a"/>
<path transform="matrix(.1,0,0,-.1,0,792)" stroke-width="20" stroke-linecap="butt" stroke-miterlimit="10" stroke-linejoin="miter" fill="none" stroke="#ffffff" d="M47.5 119.398 922.5-1396.2 1056.9-1163.4 619.398-405.602 922.5-230.602V119.398Z"/>
<path transform="matrix(.1,0,0,-.1,0,792)" d="M47.5 119.398-390-638.398-86.8984-813.398 216.199-638.398 653.699-1396.2H922.5" fill="#006600"/>
<path transform="matrix(.1,0,0,-.1,0,792)" stroke-width="20" stroke-linecap="butt" stroke-miterlimit="10" stroke-linejoin="miter" fill="none" stroke="#ffffff" d="M47.5 119.398-390-638.398-86.8984-813.398 216.199-638.398 653.699-1396.2H922.5Z"/>
<path transform="matrix(.1,0,0,-.1,0,792)" d="M47.5 119.398-86.8984 352.102-961.898-1163.4H-86.8984V-813.398L-390-638.398" fill="#000066"/>
<path transform="matrix(.1,0,0,-.1,0,792)" stroke-width="20" stroke-linecap="butt" stroke-miterlimit="10" stroke-linejoin="miter" fill="none" stroke="#ffffff" d="M47.5 119.398-86.8984 352.102-961.898-1163.4H-86.8984V-813.398L-390-638.398Z"/>
<path transform="matrix(.1,0,0,-.1,0,792)" d="M2066.3 119.398 2941.3-1396.2 3075.6-1163.4 2638.1-405.602 2941.3-230.602V119.398" fill="#1a0066"/>
<path transform="matrix(.1,0,0,-.1,0,792)" stroke-width="20" stroke-linecap="butt" stroke-miterlimit="10" stroke-linejoin="miter" fill="none" stroke="#ffffff" d="M2066.3 119.398 2941.3-1396.2 3075.6-1163.4 2638.1-405.602 2941.3-230.602V119.398Z"/>
<path transform="matrix(.1,0,0,-.1,0,792)" d="M2066.3 119.398 1628.8-638.398 1931.9-813.398 2235-638.398 2672.5-1396.2H2941.3" fill="#000066"/>
<path transform="matrix(.1,0,0,-.1,0,792)" stroke-width="20" stroke-linecap="butt" stroke-miterlimit="10" stroke-linejoin="miter" fill="none" stroke="#ffffff" d="M2066.3 119.398 1628.8-638.398 1931.9-813.398 2235-638.398 2672.5-1396.2H2941.3Z"/>
<path transform="matrix(.1,0,0,-.1,0,792)" d="M4085 119.398 4960-1396.2 5094.4-1163.4 4656.9-405.602 4960-230.602V119.398" fill="#661a00"/>
<path transform="matrix(.1,0,0,-.1,0,792)" stroke-width="20" stroke-linecap="butt" stroke-miterlimit="10" stroke-linejoin="miter" fill="none" stroke="#ffffff" d="M4085 119.398 4960-1396.2 5094.4-1163.4 4656.9-405.602 4960-230.602V119.398Z"/>
<path transform="matrix(.1,0,0,-.1,0,792)" d="M4085 119.398 3647.5-638.398 3950.6-813.398 4253.8-638.398 4691.3-1396.2H4960" fill="#660000"/>
<path transform="matrix(.1,0,0,-.1,0,792)" stroke-width="20" stroke-linecap="butt" stroke-miterlimit="10" stroke-linejoin="miter" fill="none" stroke="#ffffff" d="M4085 119.398 3647.5-638.398 3950.6-813.398 4253.8-638.398 4691.3-1396.2H4960Z"/>
<path transform="matrix(.1,0,0,-.1,0,792)" d="M5969.4 352.102H7719.4L7281.9 1109.9 6978.8 934.898V584.898H6103.8" fill="#000066"/>
<path transform="matrix(.1,0,0,-.1,0,792)" stroke-width="20" stroke-linecap="butt" stroke-miterlimit="10" stroke-linejoin="miter" fill="none" stroke="#ffffff" d="M5969.4 352.102H7719.4L7281.9 1109.9 6978.8 934.898V584.898H6103.8Z"/>
<path transform="matrix(.1,0,0,-.1,0,792)" d="M5969.4 352.102 6103.8 119.398H6978.8V-230.602L7281.9-405.602 7719.4 352.102" fill="#1a0066"/>
<path transform="matrix(.1,0,0,-.1,0,792)" stroke-width="20" stroke-linecap="butt" stroke-miterlimit="10" stroke-linejoin="miter" fill="none" stroke="#ffffff" d="M5969.4 352.102 6103.8 119.398H6978.8V-230.602L7281.9-405.602 7719.4 352.102Z"/>
<path transform="matrix(.1,0,0,-.1,0,792)" d="M5969.4 352.102 5094.4-1163.4H5969.4V-813.398L5666.3-638.398 6103.8 119.398" fill="#000066"/>
<path transform="matrix(.1,0,0,-.1,0,792)" stroke-width="20" stroke-linecap="butt" stroke-miterlimit="10" stroke-linejoin="miter" fill="none" stroke="#ffffff" d="M5969.4 352.102 5094.4-1163.4H5969.4V-813.398L5666.3-638.398 6103.8 119.398Z"/>
<path transform="matrix(.1,0,0,-.1,0,792)" d="M5969.4 3848.8H7719.4L7281.9 4606.6 6978.8 4431.6V4081.6H6103.8" fill="#000066"/>
<path transform="matrix(.1,0,0,-.1,0,792)" stroke-width="20" stroke-linecap="butt" stroke-miterlimit="10" stroke-linejoin="miter" fill="none" stroke="#ffffff" d="M5969.4 3848.8H7719.4L7281.9 4606.6 6978.8 4431.6V4081.6H6103.8Z"/>
<path transform="matrix(.1,0,0,-.1,0,792)" d="M5969.4 3848.8 6103.8 3616H6978.8V3266L7281.9 3091 7719.4 3848.8" fill="#1a0066"/>
<path transform="matrix(.1,0,0,-.1,0,792)" stroke-width="20" stroke-linecap="butt" stroke-miterlimit="10" stroke-linejoin="miter" fill="none" stroke="#ffffff" d="M5969.4 3848.8 6103.8 3616H6978.8V3266L7281.9 3091 7719.4 3848.8Z"/>
<path transform="matrix(.1,0,0,-.1,0,792)" d="M5969.4 7345.4 6103.8 7578.2 5666.3 8336 5969.4 8511V8861H5094.4" fill="#1a0066"/>
<path transform="matrix(.1,0,0,-.1,0,792)" stroke-width="20" stroke-linecap="butt" stroke-miterlimit="10" stroke-linejoin="miter" fill="none" stroke="#ffffff" d="M5969.4 7345.4 6103.8 7578.2 5666.3 8336 5969.4 8511V8861H5094.4Z"/>
<path transform="matrix(.1,0,0,-.1,0,792)" d="M5969.4 7345.4H7719.4L7281.9 8103.2 6978.8 7928.2V7578.2H6103.8" fill="#000066"/>
<path transform="matrix(.1,0,0,-.1,0,792)" stroke-width="20" stroke-linecap="butt" stroke-miterlimit="10" stroke-linejoin="miter" fill="none" stroke="#ffffff" d="M5969.4 7345.4H7719.4L7281.9 8103.2 6978.8 7928.2V7578.2H6103.8Z"/>
<path transform="matrix(.1,0,0,-.1,0,792)" d="M5969.4 7345.4 6103.8 7112.6H6978.8V6762.6L7281.9 6587.6 7719.4 7345.4" fill="#1a0066"/>
<path transform="matrix(.1,0,0,-.1,0,792)" stroke-width="20" stroke-linecap="butt" stroke-miterlimit="10" stroke-linejoin="miter" fill="none" stroke="#ffffff" d="M5969.4 7345.4 6103.8 7112.6H6978.8V6762.6L7281.9 6587.6 7719.4 7345.4Z"/>
<path transform="matrix(.1,0,0,-.1,0,792)" d="M5666.3 8336 6103.8 7578.2 6978.8 9093.7H6710L6272.5 8336 5969.4 8511" fill="#00661a"/>
<path transform="matrix(.1,0,0,-.1,0,792)" stroke-width="20" stroke-linecap="butt" stroke-miterlimit="10" stroke-linejoin="miter" fill="none" stroke="#ffffff" d="M5666.3 8336 6103.8 7578.2 6978.8 9093.7H6710L6272.5 8336 5969.4 8511Z"/>
<path transform="matrix(.1,0,0,-.1,0,792)" d="M6103.8 119.398 6978.8-1396.2 7113.2-1163.4 6675.7-405.602 6978.8-230.602V119.398" fill="#00661a"/>
<path transform="matrix(.1,0,0,-.1,0,792)" stroke-width="20" stroke-linecap="butt" stroke-miterlimit="10" stroke-linejoin="miter" fill="none" stroke="#ffffff" d="M6103.8 119.398 6978.8-1396.2 7113.2-1163.4 6675.7-405.602 6978.8-230.602V119.398Z"/>
<path transform="matrix(.1,0,0,-.1,0,792)" d="M6103.8 119.398 5666.3-638.398 5969.4-813.398 6272.5-638.398 6710-1396.2H6978.8" fill="#006600"/>
<path transform="matrix(.1,0,0,-.1,0,792)" stroke-width="20" stroke-linecap="butt" stroke-miterlimit="10" stroke-linejoin="miter" fill="none" stroke="#ffffff" d="M6103.8 119.398 5666.3-638.398 5969.4-813.398 6272.5-638.398 6710-1396.2H6978.8Z"/>
<path transform="matrix(.1,0,0,-.1,0,792)" d="M6103.8 584.898H6978.8V934.898L6675.7 1109.9 7113.2 1867.7 6978.8 2100.5" fill="#006600"/>
<path transform="matrix(.1,0,0,-.1,0,792)" stroke-width="20" stroke-linecap="butt" stroke-miterlimit="10" stroke-linejoin="miter" fill="none" stroke="#ffffff" d="M6103.8 584.898H6978.8V934.898L6675.7 1109.9 7113.2 1867.7 6978.8 2100.5Z"/>
<path transform="matrix(.1,0,0,-.1,0,792)" d="M6103.8 3616 6978.8 2100.5 7113.2 2333.2 6675.7 3091 6978.8 3266V3616" fill="#00661a"/>
<path transform="matrix(.1,0,0,-.1,0,792)" stroke-width="20" stroke-linecap="butt" stroke-miterlimit="10" stroke-linejoin="miter" fill="none" stroke="#ffffff" d="M6103.8 3616 6978.8 2100.5 7113.2 2333.2 6675.7 3091 6978.8 3266V3616Z"/>
<path transform="matrix(.1,0,0,-.1,0,792)" d="M6103.8 4081.6H6978.8V4431.6L6675.7 4606.6 7113.2 5364.3 6978.8 5597.1" fill="#006600"/>
<path transform="matrix(.1,0,0,-.1,0,792)" stroke-width="20" stroke-linecap="butt" stroke-miterlimit="10" stroke-linejoin="miter" fill="none" stroke="#ffffff" d="M6103.8 4081.6H6978.8V4431.6L6675.7 4606.6 7113.2 5364.3 6978.8 5597.1Z"/>
<path transform="matrix(.1,0,0,-.1,0,792)" d="M6103.8 7112.6 6978.8 5597.1 7113.2 5829.9 6675.7 6587.6 6978.8 6762.6V7112.6" fill="#00661a"/>
<path transform="matrix(.1,0,0,-.1,0,792)" stroke-width="20" stroke-linecap="butt" stroke-miterlimit="10" stroke-linejoin="miter" fill="none" stroke="#ffffff" d="M6103.8 7112.6 6978.8 5597.1 7113.2 5829.9 6675.7 6587.6 6978.8 6762.6V7112.6Z"/>
<path transform="matrix(.1,0,0,-.1,0,792)" d="M6103.8 7578.2H6978.8V7928.2L6675.7 8103.2 7113.2 8861 6978.8 9093.7" fill="#006600"/>
<path transform="matrix(.1,0,0,-.1,0,792)" stroke-width="20" stroke-linecap="butt" stroke-miterlimit="10" stroke-linejoin="miter" fill="none" stroke="#ffffff" d="M6103.8 7578.2H6978.8V7928.2L6675.7 8103.2 7113.2 8861 6978.8 9093.7Z"/>
</svg>
