<svg xmlns="http://www.w3.org/2000/svg" xmlns:xlink="http://www.w3.org/1999/xlink" xmlns:inkscape="http://www.inkscape.org/namespaces/inkscape" version="1.1" width="612" height="792" viewBox="0 0 612 792">
<path transform="matrix(.1,0,0,-.1,0,792)" d="M2538.6 4646.4H1738.6V3846.4H2538.6V3046.4H3338.6V3846.4H4138.6V4646.4H3338.6V5446.4H2538.6" fill="#030361"/>
<path transform="matrix(.1,0,0,-.1,0,792)" stroke-width="15" stroke-linecap="butt" stroke-miterlimit="10" stroke-linejoin="miter" fill="none" stroke="#000000" d="M2538.6 4646.4H1738.6V3846.4H2538.6V3046.4H3338.6V3846.4H4138.6V4646.4H3338.6V5446.4H2538.6Z"/>
<path transform="matrix(.1,0,0,-.1,0,792)" d="M3338.6 3046.4H4138.6V3846.4H3338.6Z" fill="#594f54"/>
<path transform="matrix(.1,0,0,-.1,0,792)" stroke-width="15" stroke-linecap="butt" stroke-miterlimit="10" stroke-linejoin="miter" fill="none" stroke="#000000" d="M3338.6 3046.4H4138.6V3846.4H3338.6Z"/>
<path transform="matrix(.1,0,0,-.1,0,792)" d="M3338.6 4646.4H4138.6V5446.4H3338.6Z" fill="#0d846e"/>
<path transform="matrix(.1,0,0,-.1,0,792)" stroke-width="15" stroke-linecap="butt" stroke-miterlimit="10" stroke-linejoin="miter" fill="none" stroke="#000000" d="M3338.6 4646.4H4138.6V5446.4H3338.6Z"/>
<path transform="matrix(.1,0,0,-.1,0,792)" d="M1738.6 4646.4H2538.6V5446.4H1738.6Z" fill="#594f54"/>
<path transform="matrix(.1,0,0,-.1,0,792)" stroke-width="15" stroke-linecap="butt" stroke-miterlimit="10" stroke-linejoin="miter" fill="none" stroke="#000000" d="M1738.6 4646.4H2538.6V5446.4H1738.6Z"/>
<path transform="matrix(.1,0,0,-.1,0,792)" d="M1738.6 3046.4H2538.6V3846.4H1738.6Z" fill="#0d846e"/>
<path transform="matrix(.1,0,0,-.1,0,792)" stroke-width="15" stroke-linecap="butt" stroke-miterlimit="10" stroke-linejoin="miter" fill="none" stroke="#000000" d="M1738.6 3046.4H2538.6V3846.4H1738.6Z"/>
<path transform="matrix(.1,0,0,-.1,0,792)" d="M2538.6 0H3338.6V3046.4H2538.6Z" fill="#702978"/>
<path transform="matrix(.1,0,0,-.1,0,792)" stroke-width="15" stroke-linecap="butt" stroke-miterlimit="10" stroke-linejoin="miter" fill="none" stroke="#000000" d="M2538.6-8.49609H3338.6V3046.3939H2538.6Z"/>
<path transform="matrix(.1,0,0,-.1,0,792)" d="M1738.6 0H2538.6V3046.4H1738.6Z" fill="#a35cbd"/>
<path transform="matrix(.1,0,0,-.1,0,792)" stroke-width="15" stroke-linecap="butt" stroke-miterlimit="10" stroke-linejoin="miter" fill="none" stroke="#000000" d="M1738.6-8.49609H2538.6V3046.3939H1738.6Z"/>
<path transform="matrix(.1,0,0,-.1,0,792)" d="M3338.6 0H4138.6V3046.4H3338.6Z" fill="#73b2de"/>
<path transform="matrix(.1,0,0,-.1,0,792)" stroke-width="15" stroke-linecap="butt" stroke-miterlimit="10" stroke-linejoin="miter" fill="none" stroke="#000000" d="M3338.6-8.49609H4138.6V3046.3939H3338.6Z"/>
<path transform="matrix(.1,0,0,-.1,0,792)" d="M2538.6 5446.4H3338.6V8646.4H2538.6Z" fill="#702978"/>
<path transform="matrix(.1,0,0,-.1,0,792)" stroke-width="15" stroke-linecap="butt" stroke-miterlimit="10" stroke-linejoin="miter" fill="none" stroke="#000000" d="M2538.6 5446.4H3338.6V8646.4H2538.6Z"/>
<path transform="matrix(.1,0,0,-.1,0,792)" d="M3338.6 5446.4H4138.6V8646.4H3338.6Z" fill="#a35cbd"/>
<path transform="matrix(.1,0,0,-.1,0,792)" stroke-width="15" stroke-linecap="butt" stroke-miterlimit="10" stroke-linejoin="miter" fill="none" stroke="#000000" d="M3338.6 5446.4H4138.6V8646.4H3338.6Z"/>
<path transform="matrix(.1,0,0,-.1,0,792)" d="M1738.6 5446.4H2538.6V8646.4H1738.6Z" fill="#73b2de"/>
<path transform="matrix(.1,0,0,-.1,0,792)" stroke-width="15" stroke-linecap="butt" stroke-miterlimit="10" stroke-linejoin="miter" fill="none" stroke="#000000" d="M1738.6 5446.4H2538.6V8646.4H1738.6Z"/>
<path transform="matrix(.1,0,0,-.1,0,792)" d="M4138.6 3046.4H4938.6V3846.4H4138.6Z" fill="#e1a66b"/>
<path transform="matrix(.1,0,0,-.1,0,792)" stroke-width="15" stroke-linecap="butt" stroke-miterlimit="10" stroke-linejoin="miter" fill="none" stroke="#000000" d="M4138.6 3046.4H4938.6V3846.4H4138.6Z"/>
<path transform="matrix(.1,0,0,-.1,0,792)" d="M4138.6 0H4938.6V3046.4H4138.6Z" fill="#702978"/>
<path transform="matrix(.1,0,0,-.1,0,792)" stroke-width="15" stroke-linecap="butt" stroke-miterlimit="10" stroke-linejoin="miter" fill="none" stroke="#000000" d="M4138.6-8.49609H4938.6V3046.3939H4138.6Z"/>
<path transform="matrix(.1,0,0,-.1,0,792)" d="M4138.6 3846.4H4938.6V4646.4H4138.6Z" fill="#3dfa73"/>
<path transform="matrix(.1,0,0,-.1,0,792)" stroke-width="15" stroke-linecap="butt" stroke-miterlimit="10" stroke-linejoin="miter" fill="none" stroke="#000000" d="M4138.6 3846.4H4938.6V4646.4H4138.6Z"/>
<path transform="matrix(.1,0,0,-.1,0,792)" d="M4138.6 4646.4H4938.6V5446.4H4138.6Z" fill="#e1a66b"/>
<path transform="matrix(.1,0,0,-.1,0,792)" stroke-width="15" stroke-linecap="butt" stroke-miterlimit="10" stroke-linejoin="miter" fill="none" stroke="#000000" d="M4138.6 4646.4H4938.6V5446.4H4138.6Z"/>
<path transform="matrix(.1,0,0,-.1,0,792)" d="M4138.6 5446.4H4938.6V8646.4H4138.6Z" fill="#702978"/>
<path transform="matrix(.1,0,0,-.1,0,792)" stroke-width="15" stroke-linecap="butt" stroke-miterlimit="10" stroke-linejoin="miter" fill="none" stroke="#000000" d="M4138.6 5446.4H4938.6V8646.4H4138.6Z"/>
<path transform="matrix(.1,0,0,-.1,0,792)" d="M938.602 4646.4H1738.602V5446.4H938.602Z" fill="#e1a66b"/>
<path transform="matrix(.1,0,0,-.1,0,792)" stroke-width="15" stroke-linecap="butt" stroke-miterlimit="10" stroke-linejoin="miter" fill="none" stroke="#000000" d="M938.602 4646.4H1738.602V5446.4H938.602Z"/>
<path transform="matrix(.1,0,0,-.1,0,792)" d="M938.602 5446.4H1738.602V8646.4H938.602Z" fill="#702978"/>
<path transform="matrix(.1,0,0,-.1,0,792)" stroke-width="15" stroke-linecap="butt" stroke-miterlimit="10" stroke-linejoin="miter" fill="none" stroke="#000000" d="M938.602 5446.4H1738.602V8646.4H938.602Z"/>
<path transform="matrix(.1,0,0,-.1,0,792)" d="M938.602 3846.4H1738.602V4646.4H938.602Z" fill="#3dfa73"/>
<path transform="matrix(.1,0,0,-.1,0,792)" stroke-width="15" stroke-linecap="butt" stroke-miterlimit="10" stroke-linejoin="miter" fill="none" stroke="#000000" d="M938.602 3846.4H1738.602V4646.4H938.602Z"/>
<path transform="matrix(.1,0,0,-.1,0,792)" d="M938.602 3046.4H1738.602V3846.4H938.602Z" fill="#e1a66b"/>
<path transform="matrix(.1,0,0,-.1,0,792)" stroke-width="15" stroke-linecap="butt" stroke-miterlimit="10" stroke-linejoin="miter" fill="none" stroke="#000000" d="M938.602 3046.4H1738.602V3846.4H938.602Z"/>
<path transform="matrix(.1,0,0,-.1,0,792)" d="M938.602 0H1738.602V3046.4H938.602Z" fill="#702978"/>
<path transform="matrix(.1,0,0,-.1,0,792)" stroke-width="15" stroke-linecap="butt" stroke-miterlimit="10" stroke-linejoin="miter" fill="none" stroke="#000000" d="M938.602-8.49609H1738.602V3046.3939H938.602Z"/>
<path transform="matrix(.1,0,0,-.1,0,792)" d="M4938.6 3046.4H5738.6V3846.4H4938.6Z" fill="#0d846e"/>
<path transform="matrix(.1,0,0,-.1,0,792)" stroke-width="15" stroke-linecap="butt" stroke-miterlimit="10" stroke-linejoin="miter" fill="none" stroke="#000000" d="M4938.6 3046.4H5738.6V3846.4H4938.6Z"/>
<path transform="matrix(.1,0,0,-.1,0,792)" d="M4938.6 0H5738.6V3046.4H4938.6Z" fill="#a35cbd"/>
<path transform="matrix(.1,0,0,-.1,0,792)" stroke-width="15" stroke-linecap="butt" stroke-miterlimit="10" stroke-linejoin="miter" fill="none" stroke="#000000" d="M4938.6-8.49609H5738.6V3046.3939H4938.6Z"/>
<path transform="matrix(.1,0,0,-.1,0,792)" d="M4938.6 3846.4H5738.6V3046.4H6538.6V3846.4H7338.6V4646.4H6538.6V5446.4H5738.6V4646.4H4938.6" fill="#030361"/>
<path transform="matrix(.1,0,0,-.1,0,792)" stroke-width="15" stroke-linecap="butt" stroke-miterlimit="10" stroke-linejoin="miter" fill="none" stroke="#000000" d="M4938.6 3846.4H5738.6V3046.4H6538.6V3846.4H7338.6V4646.4H6538.6V5446.4H5738.6V4646.4H4938.6Z"/>
<path transform="matrix(.1,0,0,-.1,0,792)" d="M4938.6 4646.4H5738.6V5446.4H4938.6Z" fill="#594f54"/>
<path transform="matrix(.1,0,0,-.1,0,792)" stroke-width="15" stroke-linecap="butt" stroke-miterlimit="10" stroke-linejoin="miter" fill="none" stroke="#000000" d="M4938.6 4646.4H5738.6V5446.4H4938.6Z"/>
<path transform="matrix(.1,0,0,-.1,0,792)" d="M4938.6 5446.4H5738.6V8646.4H4938.6Z" fill="#73b2de"/>
<path transform="matrix(.1,0,0,-.1,0,792)" stroke-width="15" stroke-linecap="butt" stroke-miterlimit="10" stroke-linejoin="miter" fill="none" stroke="#000000" d="M4938.6 5446.4H5738.6V8646.4H4938.6Z"/>
<path transform="matrix(.1,0,0,-.1,0,792)" d="M138.602 4646.4H938.602V5446.4H138.602Z" fill="#0d846e"/>
<path transform="matrix(.1,0,0,-.1,0,792)" stroke-width="15" stroke-linecap="butt" stroke-miterlimit="10" stroke-linejoin="miter" fill="none" stroke="#000000" d="M138.602 4646.4H938.602V5446.4H138.602Z"/>
<path transform="matrix(.1,0,0,-.1,0,792)" d="M138.602 5446.4H938.602V8646.4H138.602Z" fill="#a35cbd"/>
<path transform="matrix(.1,0,0,-.1,0,792)" stroke-width="15" stroke-linecap="butt" stroke-miterlimit="10" stroke-linejoin="miter" fill="none" stroke="#000000" d="M138.602 5446.4H938.602V8646.4H138.602Z"/>
<path transform="matrix(.1,0,0,-.1,0,792)" d="M938.602 4646.4H138.602V5446.4H-661.398V4646.4H-1461.4V3846.4H-661.398V3046.4H138.602V3846.4H938.602" fill="#030361"/>
<path transform="matrix(.1,0,0,-.1,0,792)" stroke-width="15" stroke-linecap="butt" stroke-miterlimit="10" stroke-linejoin="miter" fill="none" stroke="#000000" d="M938.602 4646.4H138.602V5446.4H-661.398V4646.4H-1461.4V3846.4H-661.398V3046.4H138.602V3846.4H938.602Z"/>
<path transform="matrix(.1,0,0,-.1,0,792)" d="M138.602 3046.4H938.602V3846.4H138.602Z" fill="#594f54"/>
<path transform="matrix(.1,0,0,-.1,0,792)" stroke-width="15" stroke-linecap="butt" stroke-miterlimit="10" stroke-linejoin="miter" fill="none" stroke="#000000" d="M138.602 3046.4H938.602V3846.4H138.602Z"/>
<path transform="matrix(.1,0,0,-.1,0,792)" d="M138.602 0H938.602V3046.4H138.602Z" fill="#73b2de"/>
<path transform="matrix(.1,0,0,-.1,0,792)" stroke-width="15" stroke-linecap="butt" stroke-miterlimit="10" stroke-linejoin="miter" fill="none" stroke="#000000" d="M138.602-8.49609H938.602V3046.3939H138.602Z"/>
<path transform="matrix(.1,0,0,-.1,0,792)" d="M5738.6 0H6538.6V3046.4H5738.6Z" fill="#702978"/>
<path transform="matrix(.1,0,0,-.1,0,792)" stroke-width="15" stroke-linecap="butt" stroke-miterlimit="10" stroke-linejoin="miter" fill="none" stroke="#000000" d="M5738.6-8.49609H6538.6V3046.3939H5738.6Z"/>
<path transform="matrix(.1,0,0,-.1,0,792)" d="M5738.6 5446.4H6538.6V8646.4H5738.6Z" fill="#702978"/>
<path transform="matrix(.1,0,0,-.1,0,792)" stroke-width="15" stroke-linecap="butt" stroke-miterlimit="10" stroke-linejoin="miter" fill="none" stroke="#000000" d="M5738.6 5446.4H6538.6V8646.4H5738.6Z"/>
<path transform="matrix(.1,0,0,-.1,0,792)" d="M0 5446.4H138.602V8646.4H0Z" fill="#702978"/>
<path transform="matrix(.1,0,0,-.1,0,792)" stroke-width="15" stroke-linecap="butt" stroke-miterlimit="10" stroke-linejoin="miter" fill="none" stroke="#000000" d="M-8.49609 5446.4H138.60192V8646.4H-8.49609Z"/>
<path transform="matrix(.1,0,0,-.1,0,792)" d="M0 0H138.602V3046.4H0Z" fill="#702978"/>
<path transform="matrix(.1,0,0,-.1,0,792)" stroke-width="15" stroke-linecap="butt" stroke-miterlimit="10" stroke-linejoin="miter" fill="none" stroke="#000000" d="M-8.49609-8.49609H138.60192V3046.3939H-8.49609Z"/>
</svg>
