<svg xmlns="http://www.w3.org/2000/svg" xmlns:xlink="http://www.w3.org/1999/xlink" xmlns:inkscape="http://www.inkscape.org/namespaces/inkscape" version="1.1" width="612" height="792" viewBox="0 0 612 792">
<path transform="matrix(.1,0,0,-.1,0,792)" d="M2975 2871.6 3233.8 3837.5 3940.9 4544.6 2975 4285.8 2009.1 4544.6 2716.2 3837.5" fill="#6300d9"/>
<path transform="matrix(.1,0,0,-.1,0,792)" stroke-width="15" stroke-linecap="butt" stroke-miterlimit="10" stroke-linejoin="miter" fill="none" stroke="#000000" d="M2975 2871.6 3233.8 3837.5 3940.9 4544.6 2975 4285.8 2009.1 4544.6 2716.2 3837.5Z"/>
<path transform="matrix(.1,0,0,-.1,0,792)" d="M2975 4285.8 3940.9 4544.6 4807 5044.6H1143L2009.1 4544.6" fill="#63d6c4"/>
<path transform="matrix(.1,0,0,-.1,0,792)" stroke-width="15" stroke-linecap="butt" stroke-miterlimit="10" stroke-linejoin="miter" fill="none" stroke="#000000" d="M2975 4285.8 3940.9 4544.6 4807 5044.6H1143L2009.1 4544.6Z"/>
<path transform="matrix(.1,0,0,-.1,0,792)" d="M3233.8 3837.5 2975 2871.6V1871.6L4807 5044.6 3940.9 4544.6" fill="#63d6c4"/>
<path transform="matrix(.1,0,0,-.1,0,792)" stroke-width="15" stroke-linecap="butt" stroke-miterlimit="10" stroke-linejoin="miter" fill="none" stroke="#000000" d="M3233.8 3837.5 2975 2871.6V1871.6L4807 5044.6 3940.9 4544.6Z"/>
<path transform="matrix(.1,0,0,-.1,0,792)" d="M2716.2 3837.5 2009.1 4544.6 1143 5044.6 2975 1871.6V2871.6" fill="#63d6c4"/>
<path transform="matrix(.1,0,0,-.1,0,792)" stroke-width="15" stroke-linecap="butt" stroke-miterlimit="10" stroke-linejoin="miter" fill="none" stroke="#000000" d="M2716.2 3837.5 2009.1 4544.6 1143 5044.6 2975 1871.6V2871.6Z"/>
<path transform="matrix(.1,0,0,-.1,0,792)" d="M2975 1871.6 3841 2371.6 4548.1 3078.7 4807 4044.6V5044.6" fill="#63d6c4"/>
<path transform="matrix(.1,0,0,-.1,0,792)" stroke-width="15" stroke-linecap="butt" stroke-miterlimit="10" stroke-linejoin="miter" fill="none" stroke="#000000" d="M2975 1871.6 3841 2371.6 4548.1 3078.7 4807 4044.6V5044.6Z"/>
<path transform="matrix(.1,0,0,-.1,0,792)" d="M3841 2371.6 4807 2630.4 5772.9 2371.6 5065.8 3078.7 4807 4044.6 4548.1 3078.7" fill="#6300d9"/>
<path transform="matrix(.1,0,0,-.1,0,792)" stroke-width="15" stroke-linecap="butt" stroke-miterlimit="10" stroke-linejoin="miter" fill="none" stroke="#000000" d="M3841 2371.6 4807 2630.4 5772.9 2371.6 5065.8 3078.7 4807 4044.6 4548.1 3078.7Z"/>
<path transform="matrix(.1,0,0,-.1,0,792)" d="M3841 2371.6 2975 1871.6H6638.9L5772.9 2371.6 4807 2630.4" fill="#63d6c4"/>
<path transform="matrix(.1,0,0,-.1,0,792)" stroke-width="15" stroke-linecap="butt" stroke-miterlimit="10" stroke-linejoin="miter" fill="none" stroke="#000000" d="M3841 2371.6 2975 1871.6H6638.9L5772.9 2371.6 4807 2630.4Z"/>
<path transform="matrix(.1,0,0,-.1,0,792)" d="M2975 1871.6 3841 1371.6 4807 1112.8 5772.9 1371.6 6638.9 1871.6" fill="#63d6c4"/>
<path transform="matrix(.1,0,0,-.1,0,792)" stroke-width="15" stroke-linecap="butt" stroke-miterlimit="10" stroke-linejoin="miter" fill="none" stroke="#000000" d="M2975 1871.6 3841 1371.6 4807 1112.8 5772.9 1371.6 6638.9 1871.6Z"/>
<path transform="matrix(.1,0,0,-.1,0,792)" d="M2975 1871.6 4807-1301.5V-301.5L4548.1 664.5 3841 1371.6" fill="#63d6c4"/>
<path transform="matrix(.1,0,0,-.1,0,792)" stroke-width="15" stroke-linecap="butt" stroke-miterlimit="10" stroke-linejoin="miter" fill="none" stroke="#000000" d="M2975 1871.6 4807-1301.5V-301.5L4548.1 664.5 3841 1371.6Z"/>
<path transform="matrix(.1,0,0,-.1,0,792)" d="M2975 1871.6V871.602L3233.8-94.3984 3940.9-801.5 4807-1301.5" fill="#63d6c4"/>
<path transform="matrix(.1,0,0,-.1,0,792)" stroke-width="15" stroke-linecap="butt" stroke-miterlimit="10" stroke-linejoin="miter" fill="none" stroke="#000000" d="M2975 1871.6V871.602L3233.8-94.3984 3940.9-801.5 4807-1301.5Z"/>
<path transform="matrix(.1,0,0,-.1,0,792)" d="M2975 1871.6 1143-1301.5 2009.1-801.5 2716.2-94.3984 2975 871.602" fill="#63d6c4"/>
<path transform="matrix(.1,0,0,-.1,0,792)" stroke-width="15" stroke-linecap="butt" stroke-miterlimit="10" stroke-linejoin="miter" fill="none" stroke="#000000" d="M2975 1871.6 1143-1301.5 2009.1-801.5 2716.2-94.3984 2975 871.602Z"/>
<path transform="matrix(.1,0,0,-.1,0,792)" d="M2975 1871.6 2109 1371.6 1401.9 664.5 1143-301.5V-1301.5" fill="#63d6c4"/>
<path transform="matrix(.1,0,0,-.1,0,792)" stroke-width="15" stroke-linecap="butt" stroke-miterlimit="10" stroke-linejoin="miter" fill="none" stroke="#000000" d="M2975 1871.6 2109 1371.6 1401.9 664.5 1143-301.5V-1301.5Z"/>
<path transform="matrix(.1,0,0,-.1,0,792)" d="M2975 1871.6H-688.898L177.102 1371.6 1143 1112.8 2109 1371.6" fill="#63d6c4"/>
<path transform="matrix(.1,0,0,-.1,0,792)" stroke-width="15" stroke-linecap="butt" stroke-miterlimit="10" stroke-linejoin="miter" fill="none" stroke="#000000" d="M2975 1871.6H-688.898L177.102 1371.6 1143 1112.8 2109 1371.6Z"/>
<path transform="matrix(.1,0,0,-.1,0,792)" d="M2975 1871.6 2109 2371.6 1143 2630.4 177.102 2371.6-688.898 1871.6" fill="#63d6c4"/>
<path transform="matrix(.1,0,0,-.1,0,792)" stroke-width="15" stroke-linecap="butt" stroke-miterlimit="10" stroke-linejoin="miter" fill="none" stroke="#000000" d="M2975 1871.6 2109 2371.6 1143 2630.4 177.102 2371.6-688.898 1871.6Z"/>
<path transform="matrix(.1,0,0,-.1,0,792)" d="M2109 2371.6 1401.9 3078.7 1143 4044.6 884.199 3078.7 177.102 2371.6 1143 2630.4" fill="#6300d9"/>
<path transform="matrix(.1,0,0,-.1,0,792)" stroke-width="15" stroke-linecap="butt" stroke-miterlimit="10" stroke-linejoin="miter" fill="none" stroke="#000000" d="M2109 2371.6 1401.9 3078.7 1143 4044.6 884.199 3078.7 177.102 2371.6 1143 2630.4Z"/>
<path transform="matrix(.1,0,0,-.1,0,792)" d="M2109 2371.6 2975 1871.6 1143 5044.6V4044.6L1401.9 3078.7" fill="#63d6c4"/>
<path transform="matrix(.1,0,0,-.1,0,792)" stroke-width="15" stroke-linecap="butt" stroke-miterlimit="10" stroke-linejoin="miter" fill="none" stroke="#000000" d="M2109 2371.6 2975 1871.6 1143 5044.6V4044.6L1401.9 3078.7Z"/>
<path transform="matrix(.1,0,0,-.1,0,792)" d="M4807 5044.6 3940.9 5544.6 2975 5803.4 2009.1 5544.6 1143 5044.6" fill="#63d6c4"/>
<path transform="matrix(.1,0,0,-.1,0,792)" stroke-width="15" stroke-linecap="butt" stroke-miterlimit="10" stroke-linejoin="miter" fill="none" stroke="#000000" d="M4807 5044.6 3940.9 5544.6 2975 5803.4 2009.1 5544.6 1143 5044.6Z"/>
<path transform="matrix(.1,0,0,-.1,0,792)" d="M3940.9 5544.6 3233.8 6251.7 2975 7217.6 2716.2 6251.7 2009.1 5544.6 2975 5803.4" fill="#6300d9"/>
<path transform="matrix(.1,0,0,-.1,0,792)" stroke-width="15" stroke-linecap="butt" stroke-miterlimit="10" stroke-linejoin="miter" fill="none" stroke="#000000" d="M3940.9 5544.6 3233.8 6251.7 2975 7217.6 2716.2 6251.7 2009.1 5544.6 2975 5803.4Z"/>
<path transform="matrix(.1,0,0,-.1,0,792)" d="M3940.9 5544.6 4807 5044.6 2975 8217.6V7217.6L3233.8 6251.7" fill="#63d6c4"/>
<path transform="matrix(.1,0,0,-.1,0,792)" stroke-width="15" stroke-linecap="butt" stroke-miterlimit="10" stroke-linejoin="miter" fill="none" stroke="#000000" d="M3940.9 5544.6 4807 5044.6 2975 8217.6V7217.6L3233.8 6251.7Z"/>
<path transform="matrix(.1,0,0,-.1,0,792)" d="M2009.1 5544.6 2716.2 6251.7 2975 7217.6V8217.6L1143 5044.6" fill="#63d6c4"/>
<path transform="matrix(.1,0,0,-.1,0,792)" stroke-width="15" stroke-linecap="butt" stroke-miterlimit="10" stroke-linejoin="miter" fill="none" stroke="#000000" d="M2009.1 5544.6 2716.2 6251.7 2975 7217.6V8217.6L1143 5044.6Z"/>
<path transform="matrix(.1,0,0,-.1,0,792)" d="M4807 5044.6V6044.6L4548.1 7010.5 3841 7717.6 2975 8217.6" fill="#63d6c4"/>
<path transform="matrix(.1,0,0,-.1,0,792)" stroke-width="15" stroke-linecap="butt" stroke-miterlimit="10" stroke-linejoin="miter" fill="none" stroke="#000000" d="M4807 5044.6V6044.6L4548.1 7010.5 3841 7717.6 2975 8217.6Z"/>
<path transform="matrix(.1,0,0,-.1,0,792)" d="M4807 4044.6 5065.8 3078.7 5772.9 2371.6 6638.9 1871.6 4807 5044.6" fill="#63d6c4"/>
<path transform="matrix(.1,0,0,-.1,0,792)" stroke-width="15" stroke-linecap="butt" stroke-miterlimit="10" stroke-linejoin="miter" fill="none" stroke="#000000" d="M4807 4044.6 5065.8 3078.7 5772.9 2371.6 6638.9 1871.6 4807 5044.6Z"/>
<path transform="matrix(.1,0,0,-.1,0,792)" d="M4807 5044.6 6638.9 8217.6 5772.9 7717.6 5065.8 7010.5 4807 6044.6" fill="#63d6c4"/>
<path transform="matrix(.1,0,0,-.1,0,792)" stroke-width="15" stroke-linecap="butt" stroke-miterlimit="10" stroke-linejoin="miter" fill="none" stroke="#000000" d="M4807 5044.6 6638.9 8217.6 5772.9 7717.6 5065.8 7010.5 4807 6044.6Z"/>
<path transform="matrix(.1,0,0,-.1,0,792)" d="M4807 5044.6 5673 5544.6 6380.1 6251.7 6638.9 7217.6V8217.6" fill="#63d6c4"/>
<path transform="matrix(.1,0,0,-.1,0,792)" stroke-width="15" stroke-linecap="butt" stroke-miterlimit="10" stroke-linejoin="miter" fill="none" stroke="#000000" d="M4807 5044.6 5673 5544.6 6380.1 6251.7 6638.9 7217.6V8217.6Z"/>
<path transform="matrix(.1,0,0,-.1,0,792)" d="M4807 5044.6H8470.9L7604.8 5544.6 6638.9 5803.4 5673 5544.6" fill="#63d6c4"/>
<path transform="matrix(.1,0,0,-.1,0,792)" stroke-width="15" stroke-linecap="butt" stroke-miterlimit="10" stroke-linejoin="miter" fill="none" stroke="#000000" d="M4807 5044.6H8470.9L7604.8 5544.6 6638.9 5803.4 5673 5544.6Z"/>
<path transform="matrix(.1,0,0,-.1,0,792)" d="M4807 5044.6 5673 4544.6 6638.9 4285.8 7604.8 4544.6 8470.9 5044.6" fill="#63d6c4"/>
<path transform="matrix(.1,0,0,-.1,0,792)" stroke-width="15" stroke-linecap="butt" stroke-miterlimit="10" stroke-linejoin="miter" fill="none" stroke="#000000" d="M4807 5044.6 5673 4544.6 6638.9 4285.8 7604.8 4544.6 8470.9 5044.6Z"/>
<path transform="matrix(.1,0,0,-.1,0,792)" d="M4807 5044.6 6638.9 1871.6V2871.6L6380.1 3837.5 5673 4544.6" fill="#63d6c4"/>
<path transform="matrix(.1,0,0,-.1,0,792)" stroke-width="15" stroke-linecap="butt" stroke-miterlimit="10" stroke-linejoin="miter" fill="none" stroke="#000000" d="M4807 5044.6 6638.9 1871.6V2871.6L6380.1 3837.5 5673 4544.6Z"/>
<path transform="matrix(.1,0,0,-.1,0,792)" d="M4807 6044.6 5065.8 7010.5 5772.9 7717.6 4807 7458.8 3841 7717.6 4548.1 7010.5" fill="#6300d9"/>
<path transform="matrix(.1,0,0,-.1,0,792)" stroke-width="15" stroke-linecap="butt" stroke-miterlimit="10" stroke-linejoin="miter" fill="none" stroke="#000000" d="M4807 6044.6 5065.8 7010.5 5772.9 7717.6 4807 7458.8 3841 7717.6 4548.1 7010.5Z"/>
<path transform="matrix(.1,0,0,-.1,0,792)" d="M1143 5044.6-688.898 1871.6 177.102 2371.6 884.199 3078.7 1143 4044.6" fill="#63d6c4"/>
<path transform="matrix(.1,0,0,-.1,0,792)" stroke-width="15" stroke-linecap="butt" stroke-miterlimit="10" stroke-linejoin="miter" fill="none" stroke="#000000" d="M1143 5044.6-688.898 1871.6 177.102 2371.6 884.199 3078.7 1143 4044.6Z"/>
<path transform="matrix(.1,0,0,-.1,0,792)" d="M1143 5044.6 277 4544.6-430.102 3837.5-688.898 2871.6V1871.6" fill="#63d6c4"/>
<path transform="matrix(.1,0,0,-.1,0,792)" stroke-width="15" stroke-linecap="butt" stroke-miterlimit="10" stroke-linejoin="miter" fill="none" stroke="#000000" d="M1143 5044.6 277 4544.6-430.102 3837.5-688.898 2871.6V1871.6Z"/>
<path transform="matrix(.1,0,0,-.1,0,792)" d="M1143 5044.6H-2520.9L-1654.8 4544.6-688.898 4285.8 277 4544.6" fill="#63d6c4"/>
<path transform="matrix(.1,0,0,-.1,0,792)" stroke-width="15" stroke-linecap="butt" stroke-miterlimit="10" stroke-linejoin="miter" fill="none" stroke="#000000" d="M1143 5044.6H-2520.9L-1654.8 4544.6-688.898 4285.8 277 4544.6Z"/>
<path transform="matrix(.1,0,0,-.1,0,792)" d="M1143 5044.6 277 5544.6-688.898 5803.4-1654.8 5544.6-2520.9 5044.6" fill="#63d6c4"/>
<path transform="matrix(.1,0,0,-.1,0,792)" stroke-width="15" stroke-linecap="butt" stroke-miterlimit="10" stroke-linejoin="miter" fill="none" stroke="#000000" d="M1143 5044.6 277 5544.6-688.898 5803.4-1654.8 5544.6-2520.9 5044.6Z"/>
<path transform="matrix(.1,0,0,-.1,0,792)" d="M1143 5044.6-688.898 8217.6V7217.6L-430.102 6251.7 277 5544.6" fill="#63d6c4"/>
<path transform="matrix(.1,0,0,-.1,0,792)" stroke-width="15" stroke-linecap="butt" stroke-miterlimit="10" stroke-linejoin="miter" fill="none" stroke="#000000" d="M1143 5044.6-688.898 8217.6V7217.6L-430.102 6251.7 277 5544.6Z"/>
<path transform="matrix(.1,0,0,-.1,0,792)" d="M1143 5044.6V6044.6L884.199 7010.5 177.102 7717.6-688.898 8217.6" fill="#63d6c4"/>
<path transform="matrix(.1,0,0,-.1,0,792)" stroke-width="15" stroke-linecap="butt" stroke-miterlimit="10" stroke-linejoin="miter" fill="none" stroke="#000000" d="M1143 5044.6V6044.6L884.199 7010.5 177.102 7717.6-688.898 8217.6Z"/>
<path transform="matrix(.1,0,0,-.1,0,792)" d="M1143 5044.6 2975 8217.6 2109 7717.6 1401.9 7010.5 1143 6044.6" fill="#63d6c4"/>
<path transform="matrix(.1,0,0,-.1,0,792)" stroke-width="15" stroke-linecap="butt" stroke-miterlimit="10" stroke-linejoin="miter" fill="none" stroke="#000000" d="M1143 5044.6 2975 8217.6 2109 7717.6 1401.9 7010.5 1143 6044.6Z"/>
<path transform="matrix(.1,0,0,-.1,0,792)" d="M1143 6044.6 1401.9 7010.5 2109 7717.6 1143 7458.8 177.102 7717.6 884.199 7010.5" fill="#6300d9"/>
<path transform="matrix(.1,0,0,-.1,0,792)" stroke-width="15" stroke-linecap="butt" stroke-miterlimit="10" stroke-linejoin="miter" fill="none" stroke="#000000" d="M1143 6044.6 1401.9 7010.5 2109 7717.6 1143 7458.8 177.102 7717.6 884.199 7010.5Z"/>
<path transform="matrix(.1,0,0,-.1,0,792)" d="M2109 1371.6 1143 1112.8 177.102 1371.6 884.199 664.5 1143-301.5 1401.9 664.5" fill="#6300d9"/>
<path transform="matrix(.1,0,0,-.1,0,792)" stroke-width="15" stroke-linecap="butt" stroke-miterlimit="10" stroke-linejoin="miter" fill="none" stroke="#000000" d="M2109 1371.6 1143 1112.8 177.102 1371.6 884.199 664.5 1143-301.5 1401.9 664.5Z"/>
<path transform="matrix(.1,0,0,-.1,0,792)" d="M3841 1371.6 4548.1 664.5 4807-301.5 5065.8 664.5 5772.9 1371.6 4807 1112.8" fill="#6300d9"/>
<path transform="matrix(.1,0,0,-.1,0,792)" stroke-width="15" stroke-linecap="butt" stroke-miterlimit="10" stroke-linejoin="miter" fill="none" stroke="#000000" d="M3841 1371.6 4548.1 664.5 4807-301.5 5065.8 664.5 5772.9 1371.6 4807 1112.8Z"/>
<path transform="matrix(.1,0,0,-.1,0,792)" d="M4807 7458.8 5772.9 7717.6 6638.9 8217.6H2975L3841 7717.6" fill="#63d6c4"/>
<path transform="matrix(.1,0,0,-.1,0,792)" stroke-width="15" stroke-linecap="butt" stroke-miterlimit="10" stroke-linejoin="miter" fill="none" stroke="#000000" d="M4807 7458.8 5772.9 7717.6 6638.9 8217.6H2975L3841 7717.6Z"/>
<path transform="matrix(.1,0,0,-.1,0,792)" d="M1143 7458.8 2109 7717.6 2975 8217.6H-688.898L177.102 7717.6" fill="#63d6c4"/>
<path transform="matrix(.1,0,0,-.1,0,792)" stroke-width="15" stroke-linecap="butt" stroke-miterlimit="10" stroke-linejoin="miter" fill="none" stroke="#000000" d="M1143 7458.8 2109 7717.6 2975 8217.6H-688.898L177.102 7717.6Z"/>
<path transform="matrix(.1,0,0,-.1,0,792)" d="M2975 871.602 2716.2-94.3984 2009.1-801.5 2975-542.602 3940.9-801.5 3233.8-94.3984" fill="#6300d9"/>
<path transform="matrix(.1,0,0,-.1,0,792)" stroke-width="15" stroke-linecap="butt" stroke-miterlimit="10" stroke-linejoin="miter" fill="none" stroke="#000000" d="M2975 871.602 2716.2-94.3984 2009.1-801.5 2975-542.602 3940.9-801.5 3233.8-94.3984Z"/>
<path transform="matrix(.1,0,0,-.1,0,792)" d="M5065.8 664.5 4807-301.5V-1301.5L6638.9 1871.6 5772.9 1371.6" fill="#63d6c4"/>
<path transform="matrix(.1,0,0,-.1,0,792)" stroke-width="15" stroke-linecap="butt" stroke-miterlimit="10" stroke-linejoin="miter" fill="none" stroke="#000000" d="M5065.8 664.5 4807-301.5V-1301.5L6638.9 1871.6 5772.9 1371.6Z"/>
<path transform="matrix(.1,0,0,-.1,0,792)" d="M884.199 664.5 177.102 1371.6-688.898 1871.6 1143-1301.5V-301.5" fill="#63d6c4"/>
<path transform="matrix(.1,0,0,-.1,0,792)" stroke-width="15" stroke-linecap="butt" stroke-miterlimit="10" stroke-linejoin="miter" fill="none" stroke="#000000" d="M884.199 664.5 177.102 1371.6-688.898 1871.6 1143-1301.5V-301.5Z"/>
<path transform="matrix(.1,0,0,-.1,0,792)" d="M5673 4544.6 6380.1 3837.5 6638.9 2871.6 6897.7 3837.5 7604.8 4544.6 6638.9 4285.8" fill="#6300d9"/>
<path transform="matrix(.1,0,0,-.1,0,792)" stroke-width="15" stroke-linecap="butt" stroke-miterlimit="10" stroke-linejoin="miter" fill="none" stroke="#000000" d="M5673 4544.6 6380.1 3837.5 6638.9 2871.6 6897.7 3837.5 7604.8 4544.6 6638.9 4285.8Z"/>
<path transform="matrix(.1,0,0,-.1,0,792)" d="M5673 5544.6 6638.9 5803.4 7604.8 5544.6 6897.7 6251.7 6638.9 7217.6 6380.1 6251.7" fill="#6300d9"/>
<path transform="matrix(.1,0,0,-.1,0,792)" stroke-width="15" stroke-linecap="butt" stroke-miterlimit="10" stroke-linejoin="miter" fill="none" stroke="#000000" d="M5673 5544.6 6638.9 5803.4 7604.8 5544.6 6897.7 6251.7 6638.9 7217.6 6380.1 6251.7Z"/>
<path transform="matrix(.1,0,0,-.1,0,792)" d="M277 5544.6-430.102 6251.7-688.898 7217.6-947.699 6251.7-1654.8 5544.6-688.898 5803.4" fill="#6300d9"/>
<path transform="matrix(.1,0,0,-.1,0,792)" stroke-width="15" stroke-linecap="butt" stroke-miterlimit="10" stroke-linejoin="miter" fill="none" stroke="#000000" d="M277 5544.6-430.102 6251.7-688.898 7217.6-947.699 6251.7-1654.8 5544.6-688.898 5803.4Z"/>
<path transform="matrix(.1,0,0,-.1,0,792)" d="M277 4544.6-688.898 4285.8-1654.8 4544.6-947.699 3837.5-688.898 2871.6-430.102 3837.5" fill="#6300d9"/>
<path transform="matrix(.1,0,0,-.1,0,792)" stroke-width="15" stroke-linecap="butt" stroke-miterlimit="10" stroke-linejoin="miter" fill="none" stroke="#000000" d="M277 4544.6-688.898 4285.8-1654.8 4544.6-947.699 3837.5-688.898 2871.6-430.102 3837.5Z"/>
</svg>
