<svg xmlns="http://www.w3.org/2000/svg" xmlns:xlink="http://www.w3.org/1999/xlink" xmlns:inkscape="http://www.inkscape.org/namespaces/inkscape" version="1.1" width="612" height="792" viewBox="0 0 612 792">
<path transform="matrix(.1,0,0,-.1,0,792)" d="M2975 997.801 3596.2 3316 5293.2 5013.1 2975 4391.9 656.801 5013.1 2353.8 3316" fill="#e86614"/>
<path transform="matrix(.1,0,0,-.1,0,792)" stroke-width="15" stroke-linecap="butt" stroke-miterlimit="10" stroke-linejoin="miter" fill="none" stroke="#000000" d="M2975 997.801 3596.2 3316 5293.2 5013.1 2975 4391.9 656.801 5013.1 2353.8 3316Z"/>
<path transform="matrix(.1,0,0,-.1,0,792)" d="M2975 4391.9V5634.2L656.801 5013.1" fill="#b00aba"/>
<path transform="matrix(.1,0,0,-.1,0,792)" stroke-width="15" stroke-linecap="butt" stroke-miterlimit="10" stroke-linejoin="miter" fill="none" stroke="#000000" d="M2975 4391.9V5634.2L656.801 5013.1Z"/>
<path transform="matrix(.1,0,0,-.1,0,792)" d="M2975 4391.9 5293.2 5013.1 2975 5634.2" fill="#8cf2f0"/>
<path transform="matrix(.1,0,0,-.1,0,792)" stroke-width="15" stroke-linecap="butt" stroke-miterlimit="10" stroke-linejoin="miter" fill="none" stroke="#000000" d="M2975 4391.9 5293.2 5013.1 2975 5634.2Z"/>
<path transform="matrix(.1,0,0,-.1,0,792)" d="M3596.2 3316 4672.1 2694.8 5293.2 5013.1" fill="#b00aba"/>
<path transform="matrix(.1,0,0,-.1,0,792)" stroke-width="15" stroke-linecap="butt" stroke-miterlimit="10" stroke-linejoin="miter" fill="none" stroke="#000000" d="M3596.2 3316 4672.1 2694.8 5293.2 5013.1Z"/>
<path transform="matrix(.1,0,0,-.1,0,792)" d="M3596.2 3316 2975 997.801 4672.1 2694.8" fill="#8cf2f0"/>
<path transform="matrix(.1,0,0,-.1,0,792)" stroke-width="15" stroke-linecap="butt" stroke-miterlimit="10" stroke-linejoin="miter" fill="none" stroke="#000000" d="M3596.2 3316 2975 997.801 4672.1 2694.8Z"/>
<path transform="matrix(.1,0,0,-.1,0,792)" d="M2353.8 3316 1277.9 2694.8 2975 997.801" fill="#b00aba"/>
<path transform="matrix(.1,0,0,-.1,0,792)" stroke-width="15" stroke-linecap="butt" stroke-miterlimit="10" stroke-linejoin="miter" fill="none" stroke="#000000" d="M2353.8 3316 1277.9 2694.8 2975 997.801Z"/>
<path transform="matrix(.1,0,0,-.1,0,792)" d="M2353.8 3316 656.801 5013.1 1277.9 2694.8" fill="#8cf2f0"/>
<path transform="matrix(.1,0,0,-.1,0,792)" stroke-width="15" stroke-linecap="butt" stroke-miterlimit="10" stroke-linejoin="miter" fill="none" stroke="#000000" d="M2353.8 3316 656.801 5013.1 1277.9 2694.8Z"/>
<path transform="matrix(.1,0,0,-.1,0,792)" d="M2975 5634.2 5293.2 5013.1 3596.2 6710.1 2975 9028.3 2353.8 6710.1 656.801 5013.1" fill="#1f424d"/>
<path transform="matrix(.1,0,0,-.1,0,792)" stroke-width="15" stroke-linecap="butt" stroke-miterlimit="10" stroke-linejoin="miter" fill="none" stroke="#000000" d="M2975 5634.2 5293.2 5013.1 3596.2 6710.1 2975 9028.3 2353.8 6710.1 656.801 5013.1Z"/>
<path transform="matrix(.1,0,0,-.1,0,792)" d="M4672.1 2694.8 2975 997.801 5293.2 1618.9 7611.4 997.801 5914.4 2694.8 5293.2 5013.1" fill="#1f424d"/>
<path transform="matrix(.1,0,0,-.1,0,792)" stroke-width="15" stroke-linecap="butt" stroke-miterlimit="10" stroke-linejoin="miter" fill="none" stroke="#000000" d="M4672.1 2694.8 2975 997.801 5293.2 1618.9 7611.4 997.801 5914.4 2694.8 5293.2 5013.1Z"/>
<path transform="matrix(.1,0,0,-.1,0,792)" d="M1277.9 2694.8 656.801 5013.1 35.6016 2694.8-1661.4 997.801 656.801 1618.9 2975 997.801" fill="#1f424d"/>
<path transform="matrix(.1,0,0,-.1,0,792)" stroke-width="15" stroke-linecap="butt" stroke-miterlimit="10" stroke-linejoin="miter" fill="none" stroke="#000000" d="M1277.9 2694.8 656.801 5013.1 35.6016 2694.8-1661.4 997.801 656.801 1618.9 2975 997.801Z"/>
<path transform="matrix(.1,0,0,-.1,0,792)" d="M2353.8 6710.1 1277.9 7331.3 656.801 5013.1" fill="#8cf2f0"/>
<path transform="matrix(.1,0,0,-.1,0,792)" stroke-width="15" stroke-linecap="butt" stroke-miterlimit="10" stroke-linejoin="miter" fill="none" stroke="#000000" d="M2353.8 6710.1 1277.9 7331.3 656.801 5013.1Z"/>
<path transform="matrix(.1,0,0,-.1,0,792)" d="M2353.8 6710.1 2975 9028.3 1277.9 7331.3" fill="#b00aba"/>
<path transform="matrix(.1,0,0,-.1,0,792)" stroke-width="15" stroke-linecap="butt" stroke-miterlimit="10" stroke-linejoin="miter" fill="none" stroke="#000000" d="M2353.8 6710.1 2975 9028.3 1277.9 7331.3Z"/>
<path transform="matrix(.1,0,0,-.1,0,792)" d="M3596.2 6710.1 4672.1 7331.3 2975 9028.3" fill="#8cf2f0"/>
<path transform="matrix(.1,0,0,-.1,0,792)" stroke-width="15" stroke-linecap="butt" stroke-miterlimit="10" stroke-linejoin="miter" fill="none" stroke="#000000" d="M3596.2 6710.1 4672.1 7331.3 2975 9028.3Z"/>
<path transform="matrix(.1,0,0,-.1,0,792)" d="M3596.2 6710.1 5293.2 5013.1 4672.1 7331.3" fill="#b00aba"/>
<path transform="matrix(.1,0,0,-.1,0,792)" stroke-width="15" stroke-linecap="butt" stroke-miterlimit="10" stroke-linejoin="miter" fill="none" stroke="#000000" d="M3596.2 6710.1 5293.2 5013.1 4672.1 7331.3Z"/>
<path transform="matrix(.1,0,0,-.1,0,792)" d="M4672.1 7331.3 5293.2 5013.1 5914.4 7331.3 7611.4 9028.3 5293.2 8407.2 2975 9028.3" fill="#e86614"/>
<path transform="matrix(.1,0,0,-.1,0,792)" stroke-width="15" stroke-linecap="butt" stroke-miterlimit="10" stroke-linejoin="miter" fill="none" stroke="#000000" d="M4672.1 7331.3 5293.2 5013.1 5914.4 7331.3 7611.4 9028.3 5293.2 8407.2 2975 9028.3Z"/>
<path transform="matrix(.1,0,0,-.1,0,792)" d="M1277.9 7331.3 2975 9028.3 656.801 8407.2-1661.4 9028.3 35.6016 7331.3 656.801 5013.1" fill="#e86614"/>
<path transform="matrix(.1,0,0,-.1,0,792)" stroke-width="15" stroke-linecap="butt" stroke-miterlimit="10" stroke-linejoin="miter" fill="none" stroke="#000000" d="M1277.9 7331.3 2975 9028.3 656.801 8407.2-1661.4 9028.3 35.6016 7331.3 656.801 5013.1Z"/>
<path transform="matrix(.1,0,0,-.1,0,792)" d="M656.801 5013.1-1040.3 3316 35.6016 2694.8" fill="#b00aba"/>
<path transform="matrix(.1,0,0,-.1,0,792)" stroke-width="15" stroke-linecap="butt" stroke-miterlimit="10" stroke-linejoin="miter" fill="none" stroke="#000000" d="M656.801 5013.1-1040.3 3316 35.6016 2694.8Z"/>
<path transform="matrix(.1,0,0,-.1,0,792)" d="M656.801 5013.1-1661.4 4391.9-3979.7 5013.1-2282.6 3316-1661.4 997.801-1040.3 3316" fill="#e86614"/>
<path transform="matrix(.1,0,0,-.1,0,792)" stroke-width="15" stroke-linecap="butt" stroke-miterlimit="10" stroke-linejoin="miter" fill="none" stroke="#000000" d="M656.801 5013.1-1661.4 4391.9-3979.7 5013.1-2282.6 3316-1661.4 997.801-1040.3 3316Z"/>
<path transform="matrix(.1,0,0,-.1,0,792)" d="M656.801 5013.1-1661.4 5634.2V4391.9" fill="#8cf2f0"/>
<path transform="matrix(.1,0,0,-.1,0,792)" stroke-width="15" stroke-linecap="butt" stroke-miterlimit="10" stroke-linejoin="miter" fill="none" stroke="#000000" d="M656.801 5013.1-1661.4 5634.2V4391.9Z"/>
<path transform="matrix(.1,0,0,-.1,0,792)" d="M656.801 5013.1-1040.3 6710.1-1661.4 9028.3-2282.6 6710.1-3979.7 5013.1-1661.4 5634.2" fill="#1f424d"/>
<path transform="matrix(.1,0,0,-.1,0,792)" stroke-width="15" stroke-linecap="butt" stroke-miterlimit="10" stroke-linejoin="miter" fill="none" stroke="#000000" d="M656.801 5013.1-1040.3 6710.1-1661.4 9028.3-2282.6 6710.1-3979.7 5013.1-1661.4 5634.2Z"/>
<path transform="matrix(.1,0,0,-.1,0,792)" d="M656.801 5013.1 35.6016 7331.3-1040.3 6710.1" fill="#b00aba"/>
<path transform="matrix(.1,0,0,-.1,0,792)" stroke-width="15" stroke-linecap="butt" stroke-miterlimit="10" stroke-linejoin="miter" fill="none" stroke="#000000" d="M656.801 5013.1 35.6016 7331.3-1040.3 6710.1Z"/>
<path transform="matrix(.1,0,0,-.1,0,792)" d="M656.801 1618.9V376.602L2975 997.801" fill="#8cf2f0"/>
<path transform="matrix(.1,0,0,-.1,0,792)" stroke-width="15" stroke-linecap="butt" stroke-miterlimit="10" stroke-linejoin="miter" fill="none" stroke="#000000" d="M656.801 1618.9V376.602L2975 997.801Z"/>
<path transform="matrix(.1,0,0,-.1,0,792)" d="M656.801 1618.9-1661.4 997.801 656.801 376.602" fill="#b00aba"/>
<path transform="matrix(.1,0,0,-.1,0,792)" stroke-width="15" stroke-linecap="butt" stroke-miterlimit="10" stroke-linejoin="miter" fill="none" stroke="#000000" d="M656.801 1618.9-1661.4 997.801 656.801 376.602Z"/>
<path transform="matrix(.1,0,0,-.1,0,792)" d="M5293.2 1618.9V376.602L7611.4 997.801" fill="#8cf2f0"/>
<path transform="matrix(.1,0,0,-.1,0,792)" stroke-width="15" stroke-linecap="butt" stroke-miterlimit="10" stroke-linejoin="miter" fill="none" stroke="#000000" d="M5293.2 1618.9V376.602L7611.4 997.801Z"/>
<path transform="matrix(.1,0,0,-.1,0,792)" d="M5293.2 1618.9 2975 997.801 5293.2 376.602" fill="#b00aba"/>
<path transform="matrix(.1,0,0,-.1,0,792)" stroke-width="15" stroke-linecap="butt" stroke-miterlimit="10" stroke-linejoin="miter" fill="none" stroke="#000000" d="M5293.2 1618.9 2975 997.801 5293.2 376.602Z"/>
<path transform="matrix(.1,0,0,-.1,0,792)" d="M5293.2 5013.1 6990.3 6710.1 5914.4 7331.3" fill="#8cf2f0"/>
<path transform="matrix(.1,0,0,-.1,0,792)" stroke-width="15" stroke-linecap="butt" stroke-miterlimit="10" stroke-linejoin="miter" fill="none" stroke="#000000" d="M5293.2 5013.1 6990.3 6710.1 5914.4 7331.3Z"/>
<path transform="matrix(.1,0,0,-.1,0,792)" d="M5293.2 5013.1 7611.4 5634.2 9929.7 5013.1 8232.6 6710.1 7611.4 9028.3 6990.3 6710.1" fill="#1f424d"/>
<path transform="matrix(.1,0,0,-.1,0,792)" stroke-width="15" stroke-linecap="butt" stroke-miterlimit="10" stroke-linejoin="miter" fill="none" stroke="#000000" d="M5293.2 5013.1 7611.4 5634.2 9929.7 5013.1 8232.6 6710.1 7611.4 9028.3 6990.3 6710.1Z"/>
<path transform="matrix(.1,0,0,-.1,0,792)" d="M5293.2 5013.1 7611.4 4391.9V5634.2" fill="#b00aba"/>
<path transform="matrix(.1,0,0,-.1,0,792)" stroke-width="15" stroke-linecap="butt" stroke-miterlimit="10" stroke-linejoin="miter" fill="none" stroke="#000000" d="M5293.2 5013.1 7611.4 4391.9V5634.2Z"/>
<path transform="matrix(.1,0,0,-.1,0,792)" d="M5293.2 5013.1 6990.3 3316 7611.4 997.801 8232.6 3316 9929.7 5013.1 7611.4 4391.9" fill="#e86614"/>
<path transform="matrix(.1,0,0,-.1,0,792)" stroke-width="15" stroke-linecap="butt" stroke-miterlimit="10" stroke-linejoin="miter" fill="none" stroke="#000000" d="M5293.2 5013.1 6990.3 3316 7611.4 997.801 8232.6 3316 9929.7 5013.1 7611.4 4391.9Z"/>
<path transform="matrix(.1,0,0,-.1,0,792)" d="M5293.2 5013.1 5914.4 2694.8 6990.3 3316" fill="#8cf2f0"/>
<path transform="matrix(.1,0,0,-.1,0,792)" stroke-width="15" stroke-linecap="butt" stroke-miterlimit="10" stroke-linejoin="miter" fill="none" stroke="#000000" d="M5293.2 5013.1 5914.4 2694.8 6990.3 3316Z"/>
<path transform="matrix(.1,0,0,-.1,0,792)" d="M2975 997.801 4672.1-699.301 5293.2-3017.5 5914.4-699.301 7611.4 997.801 5293.2 376.602" fill="#e86614"/>
<path transform="matrix(.1,0,0,-.1,0,792)" stroke-width="15" stroke-linecap="butt" stroke-miterlimit="10" stroke-linejoin="miter" fill="none" stroke="#000000" d="M2975 997.801 4672.1-699.301 5293.2-3017.5 5914.4-699.301 7611.4 997.801 5293.2 376.602Z"/>
<path transform="matrix(.1,0,0,-.1,0,792)" d="M2975 997.801 3596.2-1320.4 4672.1-699.301" fill="#8cf2f0"/>
<path transform="matrix(.1,0,0,-.1,0,792)" stroke-width="15" stroke-linecap="butt" stroke-miterlimit="10" stroke-linejoin="miter" fill="none" stroke="#000000" d="M2975 997.801 3596.2-1320.4 4672.1-699.301Z"/>
<path transform="matrix(.1,0,0,-.1,0,792)" d="M2975 997.801 2353.8-1320.4 656.801-3017.5 2975-2396.3 5293.2-3017.5 3596.2-1320.4" fill="#1f424d"/>
<path transform="matrix(.1,0,0,-.1,0,792)" stroke-width="15" stroke-linecap="butt" stroke-miterlimit="10" stroke-linejoin="miter" fill="none" stroke="#000000" d="M2975 997.801 2353.8-1320.4 656.801-3017.5 2975-2396.3 5293.2-3017.5 3596.2-1320.4Z"/>
<path transform="matrix(.1,0,0,-.1,0,792)" d="M2975 997.801 1277.9-699.301 2353.8-1320.4" fill="#b00aba"/>
<path transform="matrix(.1,0,0,-.1,0,792)" stroke-width="15" stroke-linecap="butt" stroke-miterlimit="10" stroke-linejoin="miter" fill="none" stroke="#000000" d="M2975 997.801 1277.9-699.301 2353.8-1320.4Z"/>
<path transform="matrix(.1,0,0,-.1,0,792)" d="M2975 997.801 656.801 376.602-1661.4 997.801 35.6016-699.301 656.801-3017.5 1277.9-699.301" fill="#e86614"/>
<path transform="matrix(.1,0,0,-.1,0,792)" stroke-width="15" stroke-linecap="butt" stroke-miterlimit="10" stroke-linejoin="miter" fill="none" stroke="#000000" d="M2975 997.801 656.801 376.602-1661.4 997.801 35.6016-699.301 656.801-3017.5 1277.9-699.301Z"/>
<path transform="matrix(.1,0,0,-.1,0,792)" d="M35.6016 2694.8-1040.3 3316-1661.4 997.801" fill="#8cf2f0"/>
<path transform="matrix(.1,0,0,-.1,0,792)" stroke-width="15" stroke-linecap="butt" stroke-miterlimit="10" stroke-linejoin="miter" fill="none" stroke="#000000" d="M35.6016 2694.8-1040.3 3316-1661.4 997.801Z"/>
<path transform="matrix(.1,0,0,-.1,0,792)" d="M5914.4 2694.8 7611.4 997.801 6990.3 3316" fill="#b00aba"/>
<path transform="matrix(.1,0,0,-.1,0,792)" stroke-width="15" stroke-linecap="butt" stroke-miterlimit="10" stroke-linejoin="miter" fill="none" stroke="#000000" d="M5914.4 2694.8 7611.4 997.801 6990.3 3316Z"/>
<path transform="matrix(.1,0,0,-.1,0,792)" d="M5914.4 7331.3 6990.3 6710.1 7611.4 9028.3" fill="#b00aba"/>
<path transform="matrix(.1,0,0,-.1,0,792)" stroke-width="15" stroke-linecap="butt" stroke-miterlimit="10" stroke-linejoin="miter" fill="none" stroke="#000000" d="M5914.4 7331.3 6990.3 6710.1 7611.4 9028.3Z"/>
<path transform="matrix(.1,0,0,-.1,0,792)" d="M35.6016 7331.3-1661.4 9028.3-1040.3 6710.1" fill="#8cf2f0"/>
<path transform="matrix(.1,0,0,-.1,0,792)" stroke-width="15" stroke-linecap="butt" stroke-miterlimit="10" stroke-linejoin="miter" fill="none" stroke="#000000" d="M35.6016 7331.3-1661.4 9028.3-1040.3 6710.1Z"/>
<path transform="matrix(.1,0,0,-.1,0,792)" d="M35.6016-699.301-1661.4 997.801-1040.3-1320.4" fill="#8cf2f0"/>
<path transform="matrix(.1,0,0,-.1,0,792)" stroke-width="15" stroke-linecap="butt" stroke-miterlimit="10" stroke-linejoin="miter" fill="none" stroke="#000000" d="M35.6016-699.301-1661.4 997.801-1040.3-1320.4Z"/>
<path transform="matrix(.1,0,0,-.1,0,792)" d="M5914.4-699.301 6990.3-1320.4 7611.4 997.801" fill="#b00aba"/>
<path transform="matrix(.1,0,0,-.1,0,792)" stroke-width="15" stroke-linecap="butt" stroke-miterlimit="10" stroke-linejoin="miter" fill="none" stroke="#000000" d="M5914.4-699.301 6990.3-1320.4 7611.4 997.801Z"/>
</svg>
