<svg xmlns="http://www.w3.org/2000/svg" xmlns:xlink="http://www.w3.org/1999/xlink" xmlns:inkscape="http://www.inkscape.org/namespaces/inkscape" version="1.1" width="612" height="792" viewBox="0 0 612 792">
<path transform="matrix(.1,0,0,-.1,0,792)" d="M3546.3 3423.7 3639 3709 3881.7 3885.4 3789 4170.7 3881.7 4456 3639 4632.3 3546.3 4917.7H3246.3L3003.6 5094 2760.9 4917.7H2460.9L2368.2 4632.3 2125.4 4456 2218.2 4170.7 2125.4 3885.4 2368.2 3709 2460.9 3423.7H2760.9L3003.6 3247.4 3246.3 3423.7"/>
<path transform="matrix(.1,0,0,-.1,0,792)" stroke-width="70" stroke-linecap="butt" stroke-miterlimit="10" stroke-linejoin="miter" fill="none" stroke="#ffffff" d="M3546.3 3423.7 3639 3709 3881.7 3885.4 3789 4170.7 3881.7 4456 3639 4632.3 3546.3 4917.7H3246.3L3003.6 5094 2760.9 4917.7H2460.9L2368.2 4632.3 2125.4 4456 2218.2 4170.7 2125.4 3885.4 2368.2 3709 2460.9 3423.7H2760.9L3003.6 3247.4 3246.3 3423.7Z"/>
<path transform="matrix(.1,0,0,-.1,0,792)" d="M3246.3 4917.7H3546.3L3396.3 5379.3 3003.6 5094Z" fill="#edbd61"/>
<path transform="matrix(.1,0,0,-.1,0,792)" stroke-width="70" stroke-linecap="butt" stroke-miterlimit="10" stroke-linejoin="miter" fill="none" stroke="#ffffff" d="M3246.3 4917.7H3546.3L3396.3 5379.3 3003.6 5094Z"/>
<path transform="matrix(.1,0,0,-.1,0,792)" d="M2760.9 4917.7 3003.6 5094 2610.9 5379.3 2460.9 4917.7Z" fill="#edbd61"/>
<path transform="matrix(.1,0,0,-.1,0,792)" stroke-width="70" stroke-linecap="butt" stroke-miterlimit="10" stroke-linejoin="miter" fill="none" stroke="#ffffff" d="M2760.9 4917.7 3003.6 5094 2610.9 5379.3 2460.9 4917.7Z"/>
<path transform="matrix(.1,0,0,-.1,0,792)" d="M2460.9 4917.7H1975.4L2125.4 4456 2368.2 4632.3Z" fill="#edbd61"/>
<path transform="matrix(.1,0,0,-.1,0,792)" stroke-width="70" stroke-linecap="butt" stroke-miterlimit="10" stroke-linejoin="miter" fill="none" stroke="#ffffff" d="M2460.9 4917.7H1975.4L2125.4 4456 2368.2 4632.3Z"/>
<path transform="matrix(.1,0,0,-.1,0,792)" d="M2460.9 4917.7 2610.9 5379.3 2218.2 5664.6 1825.4 5379.3 1975.4 4917.7" fill="#006140"/>
<path transform="matrix(.1,0,0,-.1,0,792)" stroke-width="70" stroke-linecap="butt" stroke-miterlimit="10" stroke-linejoin="miter" fill="none" stroke="#ffffff" d="M2460.9 4917.7 2610.9 5379.3 2218.2 5664.6 1825.4 5379.3 1975.4 4917.7Z"/>
<path transform="matrix(.1,0,0,-.1,0,792)" d="M2460.9 3423.7 2610.9 2962.1 3003.6 3247.4 2760.9 3423.7Z" fill="#edbd61"/>
<path transform="matrix(.1,0,0,-.1,0,792)" stroke-width="70" stroke-linecap="butt" stroke-miterlimit="10" stroke-linejoin="miter" fill="none" stroke="#ffffff" d="M2460.9 3423.7 2610.9 2962.1 3003.6 3247.4 2760.9 3423.7Z"/>
<path transform="matrix(.1,0,0,-.1,0,792)" d="M2460.9 3423.7H1975.4L1825.4 2962.1 2218.2 2676.7 2610.9 2962.1" fill="#006140"/>
<path transform="matrix(.1,0,0,-.1,0,792)" stroke-width="70" stroke-linecap="butt" stroke-miterlimit="10" stroke-linejoin="miter" fill="none" stroke="#ffffff" d="M2460.9 3423.7H1975.4L1825.4 2962.1 2218.2 2676.7 2610.9 2962.1Z"/>
<path transform="matrix(.1,0,0,-.1,0,792)" d="M2460.9 3423.7 2368.2 3709 2125.4 3885.4 1975.4 3423.7Z" fill="#edbd61"/>
<path transform="matrix(.1,0,0,-.1,0,792)" stroke-width="70" stroke-linecap="butt" stroke-miterlimit="10" stroke-linejoin="miter" fill="none" stroke="#ffffff" d="M2460.9 3423.7 2368.2 3709 2125.4 3885.4 1975.4 3423.7Z"/>
<path transform="matrix(.1,0,0,-.1,0,792)" d="M3246.3 3423.7 3003.6 3247.4 3396.3 2962.1 3546.3 3423.7Z" fill="#edbd61"/>
<path transform="matrix(.1,0,0,-.1,0,792)" stroke-width="70" stroke-linecap="butt" stroke-miterlimit="10" stroke-linejoin="miter" fill="none" stroke="#ffffff" d="M3246.3 3423.7 3003.6 3247.4 3396.3 2962.1 3546.3 3423.7Z"/>
<path transform="matrix(.1,0,0,-.1,0,792)" d="M3546.3 4917.7H4031.7L4181.7 5379.3 3789 5664.6 3396.3 5379.3" fill="#006140"/>
<path transform="matrix(.1,0,0,-.1,0,792)" stroke-width="70" stroke-linecap="butt" stroke-miterlimit="10" stroke-linejoin="miter" fill="none" stroke="#ffffff" d="M3546.3 4917.7H4031.7L4181.7 5379.3 3789 5664.6 3396.3 5379.3Z"/>
<path transform="matrix(.1,0,0,-.1,0,792)" d="M3546.3 4917.7 3639 4632.3 3881.7 4456 4031.7 4917.7Z" fill="#edbd61"/>
<path transform="matrix(.1,0,0,-.1,0,792)" stroke-width="70" stroke-linecap="butt" stroke-miterlimit="10" stroke-linejoin="miter" fill="none" stroke="#ffffff" d="M3546.3 4917.7 3639 4632.3 3881.7 4456 4031.7 4917.7Z"/>
<path transform="matrix(.1,0,0,-.1,0,792)" d="M3003.6 5094 3396.3 5379.3 3303.6 5664.6 3396.3 5949.9 3003.6 6235.3 2610.9 5949.9 2703.6 5664.6 2610.9 5379.3"/>
<path transform="matrix(.1,0,0,-.1,0,792)" stroke-width="70" stroke-linecap="butt" stroke-miterlimit="10" stroke-linejoin="miter" fill="none" stroke="#ffffff" d="M3003.6 5094 3396.3 5379.3 3303.6 5664.6 3396.3 5949.9 3003.6 6235.3 2610.9 5949.9 2703.6 5664.6 2610.9 5379.3Z"/>
<path transform="matrix(.1,0,0,-.1,0,792)" d="M3639 3709 3546.3 3423.7H4031.7L3881.7 3885.4Z" fill="#edbd61"/>
<path transform="matrix(.1,0,0,-.1,0,792)" stroke-width="70" stroke-linecap="butt" stroke-miterlimit="10" stroke-linejoin="miter" fill="none" stroke="#ffffff" d="M3639 3709 3546.3 3423.7H4031.7L3881.7 3885.4Z"/>
<path transform="matrix(.1,0,0,-.1,0,792)" d="M3003.6 3247.4 2610.9 2962.1 2703.6 2676.7 2610.9 2391.4 3003.6 2106.1 3396.3 2391.4 3303.6 2676.7 3396.3 2962.1"/>
<path transform="matrix(.1,0,0,-.1,0,792)" stroke-width="70" stroke-linecap="butt" stroke-miterlimit="10" stroke-linejoin="miter" fill="none" stroke="#ffffff" d="M3003.6 3247.4 2610.9 2962.1 2703.6 2676.7 2610.9 2391.4 3003.6 2106.1 3396.3 2391.4 3303.6 2676.7 3396.3 2962.1Z"/>
<path transform="matrix(.1,0,0,-.1,0,792)" d="M3546.3 3423.7 3396.3 2962.1 3789 2676.7 4181.7 2962.1 4031.7 3423.7" fill="#006140"/>
<path transform="matrix(.1,0,0,-.1,0,792)" stroke-width="70" stroke-linecap="butt" stroke-miterlimit="10" stroke-linejoin="miter" fill="none" stroke="#ffffff" d="M3546.3 3423.7 3396.3 2962.1 3789 2676.7 4181.7 2962.1 4031.7 3423.7Z"/>
<path transform="matrix(.1,0,0,-.1,0,792)" d="M2218.2 4170.7 2125.4 4456 1732.7 4170.7 2125.4 3885.4Z" fill="#edbd61"/>
<path transform="matrix(.1,0,0,-.1,0,792)" stroke-width="70" stroke-linecap="butt" stroke-miterlimit="10" stroke-linejoin="miter" fill="none" stroke="#ffffff" d="M2218.2 4170.7 2125.4 4456 1732.7 4170.7 2125.4 3885.4Z"/>
<path transform="matrix(.1,0,0,-.1,0,792)" d="M3789 4170.7 3881.7 3885.4 4274.4 4170.7 3881.7 4456Z" fill="#edbd61"/>
<path transform="matrix(.1,0,0,-.1,0,792)" stroke-width="70" stroke-linecap="butt" stroke-miterlimit="10" stroke-linejoin="miter" fill="none" stroke="#ffffff" d="M3789 4170.7 3881.7 3885.4 4274.4 4170.7 3881.7 4456Z"/>
<path transform="matrix(.1,0,0,-.1,0,792)" d="M3396.3 5379.3 3789 5664.6 3396.3 5949.9 3303.6 5664.6Z" fill="#edbd61"/>
<path transform="matrix(.1,0,0,-.1,0,792)" stroke-width="70" stroke-linecap="butt" stroke-miterlimit="10" stroke-linejoin="miter" fill="none" stroke="#ffffff" d="M3396.3 5379.3 3789 5664.6 3396.3 5949.9 3303.6 5664.6Z"/>
<path transform="matrix(.1,0,0,-.1,0,792)" d="M2610.9 5379.3 2703.6 5664.6 2610.9 5949.9 2218.2 5664.6Z" fill="#edbd61"/>
<path transform="matrix(.1,0,0,-.1,0,792)" stroke-width="70" stroke-linecap="butt" stroke-miterlimit="10" stroke-linejoin="miter" fill="none" stroke="#ffffff" d="M2610.9 5379.3 2703.6 5664.6 2610.9 5949.9 2218.2 5664.6Z"/>
<path transform="matrix(.1,0,0,-.1,0,792)" d="M2125.4 4456 1975.4 4917.7H1490L1340 4456 1732.7 4170.7" fill="#006140"/>
<path transform="matrix(.1,0,0,-.1,0,792)" stroke-width="70" stroke-linecap="butt" stroke-miterlimit="10" stroke-linejoin="miter" fill="none" stroke="#ffffff" d="M2125.4 4456 1975.4 4917.7H1490L1340 4456 1732.7 4170.7Z"/>
<path transform="matrix(.1,0,0,-.1,0,792)" d="M2125.4 3885.4 1732.7 4170.7 1340 3885.4 1490 3423.7H1975.4" fill="#006140"/>
<path transform="matrix(.1,0,0,-.1,0,792)" stroke-width="70" stroke-linecap="butt" stroke-miterlimit="10" stroke-linejoin="miter" fill="none" stroke="#ffffff" d="M2125.4 3885.4 1732.7 4170.7 1340 3885.4 1490 3423.7H1975.4Z"/>
<path transform="matrix(.1,0,0,-.1,0,792)" d="M2610.9 2962.1 2218.2 2676.7 2610.9 2391.4 2703.6 2676.7Z" fill="#edbd61"/>
<path transform="matrix(.1,0,0,-.1,0,792)" stroke-width="70" stroke-linecap="butt" stroke-miterlimit="10" stroke-linejoin="miter" fill="none" stroke="#ffffff" d="M2610.9 2962.1 2218.2 2676.7 2610.9 2391.4 2703.6 2676.7Z"/>
<path transform="matrix(.1,0,0,-.1,0,792)" d="M3396.3 2962.1 3303.6 2676.7 3396.3 2391.4 3789 2676.7Z" fill="#edbd61"/>
<path transform="matrix(.1,0,0,-.1,0,792)" stroke-width="70" stroke-linecap="butt" stroke-miterlimit="10" stroke-linejoin="miter" fill="none" stroke="#ffffff" d="M3396.3 2962.1 3303.6 2676.7 3396.3 2391.4 3789 2676.7Z"/>
<path transform="matrix(.1,0,0,-.1,0,792)" d="M3881.7 3885.4 4031.7 3423.7H4517.1L4667.1 3885.4 4274.4 4170.7" fill="#006140"/>
<path transform="matrix(.1,0,0,-.1,0,792)" stroke-width="70" stroke-linecap="butt" stroke-miterlimit="10" stroke-linejoin="miter" fill="none" stroke="#ffffff" d="M3881.7 3885.4 4031.7 3423.7H4517.1L4667.1 3885.4 4274.4 4170.7Z"/>
<path transform="matrix(.1,0,0,-.1,0,792)" d="M3881.7 4456 4274.4 4170.7 4667.1 4456 4517.1 4917.7H4031.7" fill="#006140"/>
<path transform="matrix(.1,0,0,-.1,0,792)" stroke-width="70" stroke-linecap="butt" stroke-miterlimit="10" stroke-linejoin="miter" fill="none" stroke="#ffffff" d="M3881.7 4456 4274.4 4170.7 4667.1 4456 4517.1 4917.7H4031.7Z"/>
<path transform="matrix(.1,0,0,-.1,0,792)" d="M1975.4 4917.7 1825.4 5379.3 1582.7 5203 1490 4917.7Z" fill="#edbd61"/>
<path transform="matrix(.1,0,0,-.1,0,792)" stroke-width="70" stroke-linecap="butt" stroke-miterlimit="10" stroke-linejoin="miter" fill="none" stroke="#ffffff" d="M1975.4 4917.7 1825.4 5379.3 1582.7 5203 1490 4917.7Z"/>
<path transform="matrix(.1,0,0,-.1,0,792)" d="M1975.4 3423.7H1490L1582.7 3138.4 1825.4 2962.1Z" fill="#edbd61"/>
<path transform="matrix(.1,0,0,-.1,0,792)" stroke-width="70" stroke-linecap="butt" stroke-miterlimit="10" stroke-linejoin="miter" fill="none" stroke="#ffffff" d="M1975.4 3423.7H1490L1582.7 3138.4 1825.4 2962.1Z"/>
<path transform="matrix(.1,0,0,-.1,0,792)" d="M3789 5664.6 4181.7 5949.9 4031.7 6411.6H3546.3L3396.3 5949.9" fill="#006140"/>
<path transform="matrix(.1,0,0,-.1,0,792)" stroke-width="70" stroke-linecap="butt" stroke-miterlimit="10" stroke-linejoin="miter" fill="none" stroke="#ffffff" d="M3789 5664.6 4181.7 5949.9 4031.7 6411.6H3546.3L3396.3 5949.9Z"/>
<path transform="matrix(.1,0,0,-.1,0,792)" d="M3789 5664.6 4181.7 5379.3 4274.4 5664.6 4181.7 5949.9Z" fill="#edbd61"/>
<path transform="matrix(.1,0,0,-.1,0,792)" stroke-width="70" stroke-linecap="butt" stroke-miterlimit="10" stroke-linejoin="miter" fill="none" stroke="#ffffff" d="M3789 5664.6 4181.7 5379.3 4274.4 5664.6 4181.7 5949.9Z"/>
<path transform="matrix(.1,0,0,-.1,0,792)" d="M2218.2 5664.6 1825.4 5949.9 1732.7 5664.6 1825.4 5379.3Z" fill="#edbd61"/>
<path transform="matrix(.1,0,0,-.1,0,792)" stroke-width="70" stroke-linecap="butt" stroke-miterlimit="10" stroke-linejoin="miter" fill="none" stroke="#ffffff" d="M2218.2 5664.6 1825.4 5949.9 1732.7 5664.6 1825.4 5379.3Z"/>
<path transform="matrix(.1,0,0,-.1,0,792)" d="M2218.2 5664.6 2610.9 5949.9 2460.9 6411.6H1975.4L1825.4 5949.9" fill="#006140"/>
<path transform="matrix(.1,0,0,-.1,0,792)" stroke-width="70" stroke-linecap="butt" stroke-miterlimit="10" stroke-linejoin="miter" fill="none" stroke="#ffffff" d="M2218.2 5664.6 2610.9 5949.9 2460.9 6411.6H1975.4L1825.4 5949.9Z"/>
<path transform="matrix(.1,0,0,-.1,0,792)" d="M4031.7 3423.7 4181.7 2962.1 4424.4 3138.4 4517.1 3423.7Z" fill="#edbd61"/>
<path transform="matrix(.1,0,0,-.1,0,792)" stroke-width="70" stroke-linecap="butt" stroke-miterlimit="10" stroke-linejoin="miter" fill="none" stroke="#ffffff" d="M4031.7 3423.7 4181.7 2962.1 4424.4 3138.4 4517.1 3423.7Z"/>
<path transform="matrix(.1,0,0,-.1,0,792)" d="M4031.7 4917.7H4517.1L4424.4 5203 4181.7 5379.3Z" fill="#edbd61"/>
<path transform="matrix(.1,0,0,-.1,0,792)" stroke-width="70" stroke-linecap="butt" stroke-miterlimit="10" stroke-linejoin="miter" fill="none" stroke="#ffffff" d="M4031.7 4917.7H4517.1L4424.4 5203 4181.7 5379.3Z"/>
<path transform="matrix(.1,0,0,-.1,0,792)" d="M2218.2 2676.7 1825.4 2391.4 1975.4 1929.8H2460.9L2610.9 2391.4" fill="#006140"/>
<path transform="matrix(.1,0,0,-.1,0,792)" stroke-width="70" stroke-linecap="butt" stroke-miterlimit="10" stroke-linejoin="miter" fill="none" stroke="#ffffff" d="M2218.2 2676.7 1825.4 2391.4 1975.4 1929.8H2460.9L2610.9 2391.4Z"/>
<path transform="matrix(.1,0,0,-.1,0,792)" d="M2218.2 2676.7 1825.4 2962.1 1732.7 2676.7 1825.4 2391.4Z" fill="#edbd61"/>
<path transform="matrix(.1,0,0,-.1,0,792)" stroke-width="70" stroke-linecap="butt" stroke-miterlimit="10" stroke-linejoin="miter" fill="none" stroke="#ffffff" d="M2218.2 2676.7 1825.4 2962.1 1732.7 2676.7 1825.4 2391.4Z"/>
<path transform="matrix(.1,0,0,-.1,0,792)" d="M3789 2676.7 4181.7 2391.4 4274.4 2676.7 4181.7 2962.1Z" fill="#edbd61"/>
<path transform="matrix(.1,0,0,-.1,0,792)" stroke-width="70" stroke-linecap="butt" stroke-miterlimit="10" stroke-linejoin="miter" fill="none" stroke="#ffffff" d="M3789 2676.7 4181.7 2391.4 4274.4 2676.7 4181.7 2962.1Z"/>
<path transform="matrix(.1,0,0,-.1,0,792)" d="M3789 2676.7 3396.3 2391.4 3546.3 1929.8H4031.7L4181.7 2391.4" fill="#006140"/>
<path transform="matrix(.1,0,0,-.1,0,792)" stroke-width="70" stroke-linecap="butt" stroke-miterlimit="10" stroke-linejoin="miter" fill="none" stroke="#ffffff" d="M3789 2676.7 3396.3 2391.4 3546.3 1929.8H4031.7L4181.7 2391.4Z"/>
<path transform="matrix(.1,0,0,-.1,0,792)" d="M1825.4 5379.3 1732.7 5664.6 1825.4 5949.9 1582.7 6126.3 1490 6411.6H1190L947.301 6587.9 704.602 6411.6H404.602L311.898 6126.3 69.1992 5949.9 161.898 5664.6 69.1992 5379.3 311.898 5203 404.602 4917.7H704.602L947.301 4741.3 1190 4917.7H1490L1582.7 5203"/>
<path transform="matrix(.1,0,0,-.1,0,792)" stroke-width="70" stroke-linecap="butt" stroke-miterlimit="10" stroke-linejoin="miter" fill="none" stroke="#ffffff" d="M1825.4 5379.3 1732.7 5664.6 1825.4 5949.9 1582.7 6126.3 1490 6411.6H1190L947.301 6587.9 704.602 6411.6H404.602L311.898 6126.3 69.1992 5949.9 161.898 5664.6 69.1992 5379.3 311.898 5203 404.602 4917.7H704.602L947.301 4741.3 1190 4917.7H1490L1582.7 5203Z"/>
<path transform="matrix(.1,0,0,-.1,0,792)" d="M1825.4 2962.1 1582.7 3138.4 1490 3423.7H1190L947.301 3600.1 704.602 3423.7H404.602L311.898 3138.4 69.1992 2962.1 161.898 2676.7 69.1992 2391.4 311.898 2215.1 404.602 1929.8H704.602L947.301 1753.4 1190 1929.8H1490L1582.7 2215.1 1825.4 2391.4 1732.7 2676.7"/>
<path transform="matrix(.1,0,0,-.1,0,792)" stroke-width="70" stroke-linecap="butt" stroke-miterlimit="10" stroke-linejoin="miter" fill="none" stroke="#ffffff" d="M1825.4 2962.1 1582.7 3138.4 1490 3423.7H1190L947.301 3600.1 704.602 3423.7H404.602L311.898 3138.4 69.1992 2962.1 161.898 2676.7 69.1992 2391.4 311.898 2215.1 404.602 1929.8H704.602L947.301 1753.4 1190 1929.8H1490L1582.7 2215.1 1825.4 2391.4 1732.7 2676.7Z"/>
<path transform="matrix(.1,0,0,-.1,0,792)" d="M4181.7 2962.1 4274.4 2676.7 4181.7 2391.4 4424.4 2215.1 4517.1 1929.8H4817.1L5059.8 1753.4 5302.5 1929.8H5602.5L5695.2 2215.1 5937.9 2391.4 5845.2 2676.7 5937.9 2962.1 5695.2 3138.4 5602.5 3423.7H5302.5L5059.8 3600.1 4817.1 3423.7H4517.1L4424.4 3138.4"/>
<path transform="matrix(.1,0,0,-.1,0,792)" stroke-width="70" stroke-linecap="butt" stroke-miterlimit="10" stroke-linejoin="miter" fill="none" stroke="#ffffff" d="M4181.7 2962.1 4274.4 2676.7 4181.7 2391.4 4424.4 2215.1 4517.1 1929.8H4817.1L5059.8 1753.4 5302.5 1929.8H5602.5L5695.2 2215.1 5937.9 2391.4 5845.2 2676.7 5937.9 2962.1 5695.2 3138.4 5602.5 3423.7H5302.5L5059.8 3600.1 4817.1 3423.7H4517.1L4424.4 3138.4Z"/>
<path transform="matrix(.1,0,0,-.1,0,792)" d="M4181.7 5379.3 4424.4 5203 4517.1 4917.7H4817.1L5059.8 4741.3 5302.5 4917.7H5602.5L5695.2 5203 5937.9 5379.3 5845.2 5664.6 5937.9 5949.9 5695.2 6126.3 5602.5 6411.6H5302.5L5059.8 6587.9 4817.1 6411.6H4517.1L4424.4 6126.3 4181.7 5949.9 4274.4 5664.6"/>
<path transform="matrix(.1,0,0,-.1,0,792)" stroke-width="70" stroke-linecap="butt" stroke-miterlimit="10" stroke-linejoin="miter" fill="none" stroke="#ffffff" d="M4181.7 5379.3 4424.4 5203 4517.1 4917.7H4817.1L5059.8 4741.3 5302.5 4917.7H5602.5L5695.2 5203 5937.9 5379.3 5845.2 5664.6 5937.9 5949.9 5695.2 6126.3 5602.5 6411.6H5302.5L5059.8 6587.9 4817.1 6411.6H4517.1L4424.4 6126.3 4181.7 5949.9 4274.4 5664.6Z"/>
<path transform="matrix(.1,0,0,-.1,0,792)" d="M1732.7 4170.7 1340 4456 1247.3 4170.7 1340 3885.4Z" fill="#edbd61"/>
<path transform="matrix(.1,0,0,-.1,0,792)" stroke-width="70" stroke-linecap="butt" stroke-miterlimit="10" stroke-linejoin="miter" fill="none" stroke="#ffffff" d="M1732.7 4170.7 1340 4456 1247.3 4170.7 1340 3885.4Z"/>
<path transform="matrix(.1,0,0,-.1,0,792)" d="M4181.7 5949.9 4424.4 6126.3 4517.1 6411.6H4031.7Z" fill="#edbd61"/>
<path transform="matrix(.1,0,0,-.1,0,792)" stroke-width="70" stroke-linecap="butt" stroke-miterlimit="10" stroke-linejoin="miter" fill="none" stroke="#ffffff" d="M4181.7 5949.9 4424.4 6126.3 4517.1 6411.6H4031.7Z"/>
<path transform="matrix(.1,0,0,-.1,0,792)" d="M3396.3 5949.9 3546.3 6411.6H3246.3L3003.6 6235.3Z" fill="#edbd61"/>
<path transform="matrix(.1,0,0,-.1,0,792)" stroke-width="70" stroke-linecap="butt" stroke-miterlimit="10" stroke-linejoin="miter" fill="none" stroke="#ffffff" d="M3396.3 5949.9 3546.3 6411.6H3246.3L3003.6 6235.3Z"/>
<path transform="matrix(.1,0,0,-.1,0,792)" d="M2610.9 5949.9 3003.6 6235.3 2760.9 6411.6H2460.9Z" fill="#edbd61"/>
<path transform="matrix(.1,0,0,-.1,0,792)" stroke-width="70" stroke-linecap="butt" stroke-miterlimit="10" stroke-linejoin="miter" fill="none" stroke="#ffffff" d="M2610.9 5949.9 3003.6 6235.3 2760.9 6411.6H2460.9Z"/>
<path transform="matrix(.1,0,0,-.1,0,792)" d="M1825.4 5949.9 1975.4 6411.6H1490L1582.7 6126.3Z" fill="#edbd61"/>
<path transform="matrix(.1,0,0,-.1,0,792)" stroke-width="70" stroke-linecap="butt" stroke-miterlimit="10" stroke-linejoin="miter" fill="none" stroke="#ffffff" d="M1825.4 5949.9 1975.4 6411.6H1490L1582.7 6126.3Z"/>
<path transform="matrix(.1,0,0,-.1,0,792)" d="M4274.4 4170.7 4667.1 3885.4 4759.8 4170.7 4667.1 4456Z" fill="#edbd61"/>
<path transform="matrix(.1,0,0,-.1,0,792)" stroke-width="70" stroke-linecap="butt" stroke-miterlimit="10" stroke-linejoin="miter" fill="none" stroke="#ffffff" d="M4274.4 4170.7 4667.1 3885.4 4759.8 4170.7 4667.1 4456Z"/>
<path transform="matrix(.1,0,0,-.1,0,792)" d="M1825.4 2391.4 1582.7 2215.1 1490 1929.8H1975.4Z" fill="#edbd61"/>
<path transform="matrix(.1,0,0,-.1,0,792)" stroke-width="70" stroke-linecap="butt" stroke-miterlimit="10" stroke-linejoin="miter" fill="none" stroke="#ffffff" d="M1825.4 2391.4 1582.7 2215.1 1490 1929.8H1975.4Z"/>
<path transform="matrix(.1,0,0,-.1,0,792)" d="M2610.9 2391.4 2460.9 1929.8H2760.9L3003.6 2106.1Z" fill="#edbd61"/>
<path transform="matrix(.1,0,0,-.1,0,792)" stroke-width="70" stroke-linecap="butt" stroke-miterlimit="10" stroke-linejoin="miter" fill="none" stroke="#ffffff" d="M2610.9 2391.4 2460.9 1929.8H2760.9L3003.6 2106.1Z"/>
<path transform="matrix(.1,0,0,-.1,0,792)" d="M3396.3 2391.4 3003.6 2106.1 3246.3 1929.8H3546.3Z" fill="#edbd61"/>
<path transform="matrix(.1,0,0,-.1,0,792)" stroke-width="70" stroke-linecap="butt" stroke-miterlimit="10" stroke-linejoin="miter" fill="none" stroke="#ffffff" d="M3396.3 2391.4 3003.6 2106.1 3246.3 1929.8H3546.3Z"/>
<path transform="matrix(.1,0,0,-.1,0,792)" d="M4181.7 2391.4 4031.7 1929.8H4517.1L4424.4 2215.1Z" fill="#edbd61"/>
<path transform="matrix(.1,0,0,-.1,0,792)" stroke-width="70" stroke-linecap="butt" stroke-miterlimit="10" stroke-linejoin="miter" fill="none" stroke="#ffffff" d="M4181.7 2391.4 4031.7 1929.8H4517.1L4424.4 2215.1Z"/>
<path transform="matrix(.1,0,0,-.1,0,792)" d="M3003.6 6235.3 3246.3 6411.6H3546.3L3639 6696.9 3881.7 6873.2 3789 7158.6 3881.7 7443.9 3639 7620.2 3546.3 7905.5H3246.3L3003.6 8081.9 2760.9 7905.5H2460.9L2368.2 7620.2 2125.4 7443.9 2218.2 7158.6 2125.4 6873.2 2368.2 6696.9 2460.9 6411.6H2760.9"/>
<path transform="matrix(.1,0,0,-.1,0,792)" stroke-width="70" stroke-linecap="butt" stroke-miterlimit="10" stroke-linejoin="miter" fill="none" stroke="#ffffff" d="M3003.6 6235.3 3246.3 6411.6H3546.3L3639 6696.9 3881.7 6873.2 3789 7158.6 3881.7 7443.9 3639 7620.2 3546.3 7905.5H3246.3L3003.6 8081.9 2760.9 7905.5H2460.9L2368.2 7620.2 2125.4 7443.9 2218.2 7158.6 2125.4 6873.2 2368.2 6696.9 2460.9 6411.6H2760.9Z"/>
<path transform="matrix(.1,0,0,-.1,0,792)" d="M1490 4917.7H1190L947.301 4741.3 1340 4456Z" fill="#edbd61"/>
<path transform="matrix(.1,0,0,-.1,0,792)" stroke-width="70" stroke-linecap="butt" stroke-miterlimit="10" stroke-linejoin="miter" fill="none" stroke="#ffffff" d="M1490 4917.7H1190L947.301 4741.3 1340 4456Z"/>
<path transform="matrix(.1,0,0,-.1,0,792)" d="M1490 3423.7 1340 3885.4 947.301 3600.1 1190 3423.7Z" fill="#edbd61"/>
<path transform="matrix(.1,0,0,-.1,0,792)" stroke-width="70" stroke-linecap="butt" stroke-miterlimit="10" stroke-linejoin="miter" fill="none" stroke="#ffffff" d="M1490 3423.7 1340 3885.4 947.301 3600.1 1190 3423.7Z"/>
<path transform="matrix(.1,0,0,-.1,0,792)" d="M3003.6 2106.1 2760.9 1929.8H2460.9L2368.2 1644.5 2125.4 1468.1 2218.2 1182.8 2125.4 897.5 2368.2 721.199 2460.9 435.801H2760.9L3003.6 259.5 3246.3 435.801H3546.3L3639 721.199 3881.7 897.5 3789 1182.8 3881.7 1468.1 3639 1644.5 3546.3 1929.8H3246.3"/>
<path transform="matrix(.1,0,0,-.1,0,792)" stroke-width="70" stroke-linecap="butt" stroke-miterlimit="10" stroke-linejoin="miter" fill="none" stroke="#ffffff" d="M3003.6 2106.1 2760.9 1929.8H2460.9L2368.2 1644.5 2125.4 1468.1 2218.2 1182.8 2125.4 897.5 2368.2 721.199 2460.9 435.801H2760.9L3003.6 259.5 3246.3 435.801H3546.3L3639 721.199 3881.7 897.5 3789 1182.8 3881.7 1468.1 3639 1644.5 3546.3 1929.8H3246.3Z"/>
<path transform="matrix(.1,0,0,-.1,0,792)" d="M4517.1 3423.7H4817.1L5059.8 3600.1 4667.1 3885.4Z" fill="#edbd61"/>
<path transform="matrix(.1,0,0,-.1,0,792)" stroke-width="70" stroke-linecap="butt" stroke-miterlimit="10" stroke-linejoin="miter" fill="none" stroke="#ffffff" d="M4517.1 3423.7H4817.1L5059.8 3600.1 4667.1 3885.4Z"/>
<path transform="matrix(.1,0,0,-.1,0,792)" d="M4517.1 4917.7 4667.1 4456 5059.8 4741.3 4817.1 4917.7Z" fill="#edbd61"/>
<path transform="matrix(.1,0,0,-.1,0,792)" stroke-width="70" stroke-linecap="butt" stroke-miterlimit="10" stroke-linejoin="miter" fill="none" stroke="#ffffff" d="M4517.1 4917.7 4667.1 4456 5059.8 4741.3 4817.1 4917.7Z"/>
<path transform="matrix(.1,0,0,-.1,0,792)" d="M4517.1 6411.6 4667.1 6873.2 4274.4 7158.6 3881.7 6873.2 4031.7 6411.6" fill="#006140"/>
<path transform="matrix(.1,0,0,-.1,0,792)" stroke-width="70" stroke-linecap="butt" stroke-miterlimit="10" stroke-linejoin="miter" fill="none" stroke="#ffffff" d="M4517.1 6411.6 4667.1 6873.2 4274.4 7158.6 3881.7 6873.2 4031.7 6411.6Z"/>
<path transform="matrix(.1,0,0,-.1,0,792)" d="M4517.1 6411.6H4817.1L5059.8 6587.9 4667.1 6873.2Z" fill="#edbd61"/>
<path transform="matrix(.1,0,0,-.1,0,792)" stroke-width="70" stroke-linecap="butt" stroke-miterlimit="10" stroke-linejoin="miter" fill="none" stroke="#ffffff" d="M4517.1 6411.6H4817.1L5059.8 6587.9 4667.1 6873.2Z"/>
<path transform="matrix(.1,0,0,-.1,0,792)" d="M4031.7 6411.6 3881.7 6873.2 3639 6696.9 3546.3 6411.6Z" fill="#edbd61"/>
<path transform="matrix(.1,0,0,-.1,0,792)" stroke-width="70" stroke-linecap="butt" stroke-miterlimit="10" stroke-linejoin="miter" fill="none" stroke="#ffffff" d="M4031.7 6411.6 3881.7 6873.2 3639 6696.9 3546.3 6411.6Z"/>
<path transform="matrix(.1,0,0,-.1,0,792)" d="M2460.9 6411.6 2368.2 6696.9 2125.4 6873.2 1975.4 6411.6Z" fill="#edbd61"/>
<path transform="matrix(.1,0,0,-.1,0,792)" stroke-width="70" stroke-linecap="butt" stroke-miterlimit="10" stroke-linejoin="miter" fill="none" stroke="#ffffff" d="M2460.9 6411.6 2368.2 6696.9 2125.4 6873.2 1975.4 6411.6Z"/>
<path transform="matrix(.1,0,0,-.1,0,792)" d="M1975.4 6411.6 2125.4 6873.2 1732.7 7158.6 1340 6873.2 1490 6411.6" fill="#006140"/>
<path transform="matrix(.1,0,0,-.1,0,792)" stroke-width="70" stroke-linecap="butt" stroke-miterlimit="10" stroke-linejoin="miter" fill="none" stroke="#ffffff" d="M1975.4 6411.6 2125.4 6873.2 1732.7 7158.6 1340 6873.2 1490 6411.6Z"/>
<path transform="matrix(.1,0,0,-.1,0,792)" d="M1490 6411.6 1340 6873.2 947.301 6587.9 1190 6411.6Z" fill="#edbd61"/>
<path transform="matrix(.1,0,0,-.1,0,792)" stroke-width="70" stroke-linecap="butt" stroke-miterlimit="10" stroke-linejoin="miter" fill="none" stroke="#ffffff" d="M1490 6411.6 1340 6873.2 947.301 6587.9 1190 6411.6Z"/>
<path transform="matrix(.1,0,0,-.1,0,792)" d="M1340 4456 947.301 4741.3 554.602 4456 647.301 4170.7 554.602 3885.4 947.301 3600.1 1340 3885.4 1247.3 4170.7"/>
<path transform="matrix(.1,0,0,-.1,0,792)" stroke-width="70" stroke-linecap="butt" stroke-miterlimit="10" stroke-linejoin="miter" fill="none" stroke="#ffffff" d="M1340 4456 947.301 4741.3 554.602 4456 647.301 4170.7 554.602 3885.4 947.301 3600.1 1340 3885.4 1247.3 4170.7Z"/>
<path transform="matrix(.1,0,0,-.1,0,792)" d="M1490 1929.8 1340 1468.1 1732.7 1182.8 2125.4 1468.1 1975.4 1929.8" fill="#006140"/>
<path transform="matrix(.1,0,0,-.1,0,792)" stroke-width="70" stroke-linecap="butt" stroke-miterlimit="10" stroke-linejoin="miter" fill="none" stroke="#ffffff" d="M1490 1929.8 1340 1468.1 1732.7 1182.8 2125.4 1468.1 1975.4 1929.8Z"/>
<path transform="matrix(.1,0,0,-.1,0,792)" d="M1490 1929.8H1190L947.301 1753.4 1340 1468.1Z" fill="#edbd61"/>
<path transform="matrix(.1,0,0,-.1,0,792)" stroke-width="70" stroke-linecap="butt" stroke-miterlimit="10" stroke-linejoin="miter" fill="none" stroke="#ffffff" d="M1490 1929.8H1190L947.301 1753.4 1340 1468.1Z"/>
<path transform="matrix(.1,0,0,-.1,0,792)" d="M1975.4 1929.8 2125.4 1468.1 2368.2 1644.5 2460.9 1929.8Z" fill="#edbd61"/>
<path transform="matrix(.1,0,0,-.1,0,792)" stroke-width="70" stroke-linecap="butt" stroke-miterlimit="10" stroke-linejoin="miter" fill="none" stroke="#ffffff" d="M1975.4 1929.8 2125.4 1468.1 2368.2 1644.5 2460.9 1929.8Z"/>
<path transform="matrix(.1,0,0,-.1,0,792)" d="M3546.3 1929.8 3639 1644.5 3881.7 1468.1 4031.7 1929.8Z" fill="#edbd61"/>
<path transform="matrix(.1,0,0,-.1,0,792)" stroke-width="70" stroke-linecap="butt" stroke-miterlimit="10" stroke-linejoin="miter" fill="none" stroke="#ffffff" d="M3546.3 1929.8 3639 1644.5 3881.7 1468.1 4031.7 1929.8Z"/>
<path transform="matrix(.1,0,0,-.1,0,792)" d="M4031.7 1929.8 3881.7 1468.1 4274.4 1182.8 4667.1 1468.1 4517.1 1929.8" fill="#006140"/>
<path transform="matrix(.1,0,0,-.1,0,792)" stroke-width="70" stroke-linecap="butt" stroke-miterlimit="10" stroke-linejoin="miter" fill="none" stroke="#ffffff" d="M4031.7 1929.8 3881.7 1468.1 4274.4 1182.8 4667.1 1468.1 4517.1 1929.8Z"/>
<path transform="matrix(.1,0,0,-.1,0,792)" d="M4517.1 1929.8 4667.1 1468.1 5059.8 1753.4 4817.1 1929.8Z" fill="#edbd61"/>
<path transform="matrix(.1,0,0,-.1,0,792)" stroke-width="70" stroke-linecap="butt" stroke-miterlimit="10" stroke-linejoin="miter" fill="none" stroke="#ffffff" d="M4517.1 1929.8 4667.1 1468.1 5059.8 1753.4 4817.1 1929.8Z"/>
<path transform="matrix(.1,0,0,-.1,0,792)" d="M4667.1 3885.4 5059.8 3600.1 5452.5 3885.4 5359.8 4170.7 5452.5 4456 5059.8 4741.3 4667.1 4456 4759.8 4170.7"/>
<path transform="matrix(.1,0,0,-.1,0,792)" stroke-width="70" stroke-linecap="butt" stroke-miterlimit="10" stroke-linejoin="miter" fill="none" stroke="#ffffff" d="M4667.1 3885.4 5059.8 3600.1 5452.5 3885.4 5359.8 4170.7 5452.5 4456 5059.8 4741.3 4667.1 4456 4759.8 4170.7Z"/>
<path transform="matrix(.1,0,0,-.1,0,792)" d="M4667.1 6873.2 4759.8 7158.6 4667.1 7443.9 4274.4 7158.6Z" fill="#edbd61"/>
<path transform="matrix(.1,0,0,-.1,0,792)" stroke-width="70" stroke-linecap="butt" stroke-miterlimit="10" stroke-linejoin="miter" fill="none" stroke="#ffffff" d="M4667.1 6873.2 4759.8 7158.6 4667.1 7443.9 4274.4 7158.6Z"/>
<path transform="matrix(.1,0,0,-.1,0,792)" d="M4667.1 6873.2 5059.8 6587.9 5452.5 6873.2 5359.8 7158.6 5452.5 7443.9 5059.8 7729.2 4667.1 7443.9 4759.8 7158.6"/>
<path transform="matrix(.1,0,0,-.1,0,792)" stroke-width="70" stroke-linecap="butt" stroke-miterlimit="10" stroke-linejoin="miter" fill="none" stroke="#ffffff" d="M4667.1 6873.2 5059.8 6587.9 5452.5 6873.2 5359.8 7158.6 5452.5 7443.9 5059.8 7729.2 4667.1 7443.9 4759.8 7158.6Z"/>
<path transform="matrix(.1,0,0,-.1,0,792)" d="M3881.7 6873.2 4274.4 7158.6 3881.7 7443.9 3789 7158.6Z" fill="#edbd61"/>
<path transform="matrix(.1,0,0,-.1,0,792)" stroke-width="70" stroke-linecap="butt" stroke-miterlimit="10" stroke-linejoin="miter" fill="none" stroke="#ffffff" d="M3881.7 6873.2 4274.4 7158.6 3881.7 7443.9 3789 7158.6Z"/>
<path transform="matrix(.1,0,0,-.1,0,792)" d="M2125.4 6873.2 2218.2 7158.6 2125.4 7443.9 1732.7 7158.6Z" fill="#edbd61"/>
<path transform="matrix(.1,0,0,-.1,0,792)" stroke-width="70" stroke-linecap="butt" stroke-miterlimit="10" stroke-linejoin="miter" fill="none" stroke="#ffffff" d="M2125.4 6873.2 2218.2 7158.6 2125.4 7443.9 1732.7 7158.6Z"/>
<path transform="matrix(.1,0,0,-.1,0,792)" d="M1340 6873.2 1247.3 7158.6 1340 7443.9 947.301 7729.2 554.602 7443.9 647.301 7158.6 554.602 6873.2 947.301 6587.9"/>
<path transform="matrix(.1,0,0,-.1,0,792)" stroke-width="70" stroke-linecap="butt" stroke-miterlimit="10" stroke-linejoin="miter" fill="none" stroke="#ffffff" d="M1340 6873.2 1247.3 7158.6 1340 7443.9 947.301 7729.2 554.602 7443.9 647.301 7158.6 554.602 6873.2 947.301 6587.9Z"/>
<path transform="matrix(.1,0,0,-.1,0,792)" d="M1340 6873.2 1732.7 7158.6 1340 7443.9 1247.3 7158.6Z" fill="#edbd61"/>
<path transform="matrix(.1,0,0,-.1,0,792)" stroke-width="70" stroke-linecap="butt" stroke-miterlimit="10" stroke-linejoin="miter" fill="none" stroke="#ffffff" d="M1340 6873.2 1732.7 7158.6 1340 7443.9 1247.3 7158.6Z"/>
<path transform="matrix(.1,0,0,-.1,0,792)" d="M1340 1468.1 1247.3 1182.8 1340 897.5 1732.7 1182.8Z" fill="#edbd61"/>
<path transform="matrix(.1,0,0,-.1,0,792)" stroke-width="70" stroke-linecap="butt" stroke-miterlimit="10" stroke-linejoin="miter" fill="none" stroke="#ffffff" d="M1340 1468.1 1247.3 1182.8 1340 897.5 1732.7 1182.8Z"/>
<path transform="matrix(.1,0,0,-.1,0,792)" d="M1340 1468.1 947.301 1753.4 554.602 1468.1 647.301 1182.8 554.602 897.5 947.301 612.199 1340 897.5 1247.3 1182.8"/>
<path transform="matrix(.1,0,0,-.1,0,792)" stroke-width="70" stroke-linecap="butt" stroke-miterlimit="10" stroke-linejoin="miter" fill="none" stroke="#ffffff" d="M1340 1468.1 947.301 1753.4 554.602 1468.1 647.301 1182.8 554.602 897.5 947.301 612.199 1340 897.5 1247.3 1182.8Z"/>
<path transform="matrix(.1,0,0,-.1,0,792)" d="M2125.4 1468.1 1732.7 1182.8 2125.4 897.5 2218.2 1182.8Z" fill="#edbd61"/>
<path transform="matrix(.1,0,0,-.1,0,792)" stroke-width="70" stroke-linecap="butt" stroke-miterlimit="10" stroke-linejoin="miter" fill="none" stroke="#ffffff" d="M2125.4 1468.1 1732.7 1182.8 2125.4 897.5 2218.2 1182.8Z"/>
<path transform="matrix(.1,0,0,-.1,0,792)" d="M3881.7 1468.1 3789 1182.8 3881.7 897.5 4274.4 1182.8Z" fill="#edbd61"/>
<path transform="matrix(.1,0,0,-.1,0,792)" stroke-width="70" stroke-linecap="butt" stroke-miterlimit="10" stroke-linejoin="miter" fill="none" stroke="#ffffff" d="M3881.7 1468.1 3789 1182.8 3881.7 897.5 4274.4 1182.8Z"/>
<path transform="matrix(.1,0,0,-.1,0,792)" d="M4667.1 1468.1 4759.8 1182.8 4667.1 897.5 5059.8 612.199 5452.5 897.5 5359.8 1182.8 5452.5 1468.1 5059.8 1753.4"/>
<path transform="matrix(.1,0,0,-.1,0,792)" stroke-width="70" stroke-linecap="butt" stroke-miterlimit="10" stroke-linejoin="miter" fill="none" stroke="#ffffff" d="M4667.1 1468.1 4759.8 1182.8 4667.1 897.5 5059.8 612.199 5452.5 897.5 5359.8 1182.8 5452.5 1468.1 5059.8 1753.4Z"/>
<path transform="matrix(.1,0,0,-.1,0,792)" d="M4667.1 1468.1 4274.4 1182.8 4667.1 897.5 4759.8 1182.8Z" fill="#edbd61"/>
<path transform="matrix(.1,0,0,-.1,0,792)" stroke-width="70" stroke-linecap="butt" stroke-miterlimit="10" stroke-linejoin="miter" fill="none" stroke="#ffffff" d="M4667.1 1468.1 4274.4 1182.8 4667.1 897.5 4759.8 1182.8Z"/>
<path transform="matrix(.1,0,0,-.1,0,792)" d="M947.301 6587.9 554.602 6873.2 404.602 6411.6H704.602Z" fill="#edbd61"/>
<path transform="matrix(.1,0,0,-.1,0,792)" stroke-width="70" stroke-linecap="butt" stroke-miterlimit="10" stroke-linejoin="miter" fill="none" stroke="#ffffff" d="M947.301 6587.9 554.602 6873.2 404.602 6411.6H704.602Z"/>
<path transform="matrix(.1,0,0,-.1,0,792)" d="M947.301 4741.3 704.602 4917.7H404.602L554.602 4456Z" fill="#edbd61"/>
<path transform="matrix(.1,0,0,-.1,0,792)" stroke-width="70" stroke-linecap="butt" stroke-miterlimit="10" stroke-linejoin="miter" fill="none" stroke="#ffffff" d="M947.301 4741.3 704.602 4917.7H404.602L554.602 4456Z"/>
<path transform="matrix(.1,0,0,-.1,0,792)" d="M947.301 3600.1 554.602 3885.4 404.602 3423.7H704.602Z" fill="#edbd61"/>
<path transform="matrix(.1,0,0,-.1,0,792)" stroke-width="70" stroke-linecap="butt" stroke-miterlimit="10" stroke-linejoin="miter" fill="none" stroke="#ffffff" d="M947.301 3600.1 554.602 3885.4 404.602 3423.7H704.602Z"/>
<path transform="matrix(.1,0,0,-.1,0,792)" d="M947.301 1753.4 704.602 1929.8H404.602L554.602 1468.1Z" fill="#edbd61"/>
<path transform="matrix(.1,0,0,-.1,0,792)" stroke-width="70" stroke-linecap="butt" stroke-miterlimit="10" stroke-linejoin="miter" fill="none" stroke="#ffffff" d="M947.301 1753.4 704.602 1929.8H404.602L554.602 1468.1Z"/>
<path transform="matrix(.1,0,0,-.1,0,792)" d="M5059.8 1753.4 5452.5 1468.1 5602.5 1929.8H5302.5Z" fill="#edbd61"/>
<path transform="matrix(.1,0,0,-.1,0,792)" stroke-width="70" stroke-linecap="butt" stroke-miterlimit="10" stroke-linejoin="miter" fill="none" stroke="#ffffff" d="M5059.8 1753.4 5452.5 1468.1 5602.5 1929.8H5302.5Z"/>
<path transform="matrix(.1,0,0,-.1,0,792)" d="M5059.8 3600.1 5302.5 3423.7H5602.5L5452.5 3885.4Z" fill="#edbd61"/>
<path transform="matrix(.1,0,0,-.1,0,792)" stroke-width="70" stroke-linecap="butt" stroke-miterlimit="10" stroke-linejoin="miter" fill="none" stroke="#ffffff" d="M5059.8 3600.1 5302.5 3423.7H5602.5L5452.5 3885.4Z"/>
<path transform="matrix(.1,0,0,-.1,0,792)" d="M5059.8 4741.3 5452.5 4456 5602.5 4917.7H5302.5Z" fill="#edbd61"/>
<path transform="matrix(.1,0,0,-.1,0,792)" stroke-width="70" stroke-linecap="butt" stroke-miterlimit="10" stroke-linejoin="miter" fill="none" stroke="#ffffff" d="M5059.8 4741.3 5452.5 4456 5602.5 4917.7H5302.5Z"/>
<path transform="matrix(.1,0,0,-.1,0,792)" d="M5059.8 6587.9 5302.5 6411.6H5602.5L5452.5 6873.2Z" fill="#edbd61"/>
<path transform="matrix(.1,0,0,-.1,0,792)" stroke-width="70" stroke-linecap="butt" stroke-miterlimit="10" stroke-linejoin="miter" fill="none" stroke="#ffffff" d="M5059.8 6587.9 5302.5 6411.6H5602.5L5452.5 6873.2Z"/>
<path transform="matrix(.1,0,0,-.1,0,792)" d="M4274.4 7158.6 4667.1 7443.9 4517.1 7905.5H4031.7L3881.7 7443.9" fill="#006140"/>
<path transform="matrix(.1,0,0,-.1,0,792)" stroke-width="70" stroke-linecap="butt" stroke-miterlimit="10" stroke-linejoin="miter" fill="none" stroke="#ffffff" d="M4274.4 7158.6 4667.1 7443.9 4517.1 7905.5H4031.7L3881.7 7443.9Z"/>
<path transform="matrix(.1,0,0,-.1,0,792)" d="M1732.7 7158.6 2125.4 7443.9 1975.4 7905.5H1490L1340 7443.9" fill="#006140"/>
<path transform="matrix(.1,0,0,-.1,0,792)" stroke-width="70" stroke-linecap="butt" stroke-miterlimit="10" stroke-linejoin="miter" fill="none" stroke="#ffffff" d="M1732.7 7158.6 2125.4 7443.9 1975.4 7905.5H1490L1340 7443.9Z"/>
<path transform="matrix(.1,0,0,-.1,0,792)" d="M1732.7 1182.8 1340 897.5 1490 435.801H1975.4L2125.4 897.5" fill="#006140"/>
<path transform="matrix(.1,0,0,-.1,0,792)" stroke-width="70" stroke-linecap="butt" stroke-miterlimit="10" stroke-linejoin="miter" fill="none" stroke="#ffffff" d="M1732.7 1182.8 1340 897.5 1490 435.801H1975.4L2125.4 897.5Z"/>
<path transform="matrix(.1,0,0,-.1,0,792)" d="M4274.4 1182.8 3881.7 897.5 4031.7 435.801H4517.1L4667.1 897.5" fill="#006140"/>
<path transform="matrix(.1,0,0,-.1,0,792)" stroke-width="70" stroke-linecap="butt" stroke-miterlimit="10" stroke-linejoin="miter" fill="none" stroke="#ffffff" d="M4274.4 1182.8 3881.7 897.5 4031.7 435.801H4517.1L4667.1 897.5Z"/>
<path transform="matrix(.1,0,0,-.1,0,792)" d="M647.301 7158.6 554.602 7443.9 161.898 7158.6 554.602 6873.2Z" fill="#edbd61"/>
<path transform="matrix(.1,0,0,-.1,0,792)" stroke-width="70" stroke-linecap="butt" stroke-miterlimit="10" stroke-linejoin="miter" fill="none" stroke="#ffffff" d="M647.301 7158.6 554.602 7443.9 161.898 7158.6 554.602 6873.2Z"/>
<path transform="matrix(.1,0,0,-.1,0,792)" d="M647.301 4170.7 554.602 4456 161.898 4170.7 554.602 3885.4Z" fill="#edbd61"/>
<path transform="matrix(.1,0,0,-.1,0,792)" stroke-width="70" stroke-linecap="butt" stroke-miterlimit="10" stroke-linejoin="miter" fill="none" stroke="#ffffff" d="M647.301 4170.7 554.602 4456 161.898 4170.7 554.602 3885.4Z"/>
<path transform="matrix(.1,0,0,-.1,0,792)" d="M647.301 1182.8 554.602 1468.1 161.898 1182.8 554.602 897.5Z" fill="#edbd61"/>
<path transform="matrix(.1,0,0,-.1,0,792)" stroke-width="70" stroke-linecap="butt" stroke-miterlimit="10" stroke-linejoin="miter" fill="none" stroke="#ffffff" d="M647.301 1182.8 554.602 1468.1 161.898 1182.8 554.602 897.5Z"/>
<path transform="matrix(.1,0,0,-.1,0,792)" d="M4667.1 7443.9 5059.8 7729.2 4817.1 7905.5H4517.1Z" fill="#edbd61"/>
<path transform="matrix(.1,0,0,-.1,0,792)" stroke-width="70" stroke-linecap="butt" stroke-miterlimit="10" stroke-linejoin="miter" fill="none" stroke="#ffffff" d="M4667.1 7443.9 5059.8 7729.2 4817.1 7905.5H4517.1Z"/>
<path transform="matrix(.1,0,0,-.1,0,792)" d="M3881.7 7443.9 4031.7 7905.5H3546.3L3639 7620.2Z" fill="#edbd61"/>
<path transform="matrix(.1,0,0,-.1,0,792)" stroke-width="70" stroke-linecap="butt" stroke-miterlimit="10" stroke-linejoin="miter" fill="none" stroke="#ffffff" d="M3881.7 7443.9 4031.7 7905.5H3546.3L3639 7620.2Z"/>
<path transform="matrix(.1,0,0,-.1,0,792)" d="M2125.4 7443.9 2368.2 7620.2 2460.9 7905.5H1975.4Z" fill="#edbd61"/>
<path transform="matrix(.1,0,0,-.1,0,792)" stroke-width="70" stroke-linecap="butt" stroke-miterlimit="10" stroke-linejoin="miter" fill="none" stroke="#ffffff" d="M2125.4 7443.9 2368.2 7620.2 2460.9 7905.5H1975.4Z"/>
<path transform="matrix(.1,0,0,-.1,0,792)" d="M1340 7443.9 1490 7905.5H1190L947.301 7729.2Z" fill="#edbd61"/>
<path transform="matrix(.1,0,0,-.1,0,792)" stroke-width="70" stroke-linecap="butt" stroke-miterlimit="10" stroke-linejoin="miter" fill="none" stroke="#ffffff" d="M1340 7443.9 1490 7905.5H1190L947.301 7729.2Z"/>
<path transform="matrix(.1,0,0,-.1,0,792)" d="M5359.8 1182.8 5452.5 897.5 5845.2 1182.8 5452.5 1468.1Z" fill="#edbd61"/>
<path transform="matrix(.1,0,0,-.1,0,792)" stroke-width="70" stroke-linecap="butt" stroke-miterlimit="10" stroke-linejoin="miter" fill="none" stroke="#ffffff" d="M5359.8 1182.8 5452.5 897.5 5845.2 1182.8 5452.5 1468.1Z"/>
<path transform="matrix(.1,0,0,-.1,0,792)" d="M5359.8 4170.7 5452.5 3885.4 5845.2 4170.7 5452.5 4456Z" fill="#edbd61"/>
<path transform="matrix(.1,0,0,-.1,0,792)" stroke-width="70" stroke-linecap="butt" stroke-miterlimit="10" stroke-linejoin="miter" fill="none" stroke="#ffffff" d="M5359.8 4170.7 5452.5 3885.4 5845.2 4170.7 5452.5 4456Z"/>
<path transform="matrix(.1,0,0,-.1,0,792)" d="M5359.8 7158.6 5452.5 6873.2 5845.2 7158.6 5452.5 7443.9Z" fill="#edbd61"/>
<path transform="matrix(.1,0,0,-.1,0,792)" stroke-width="70" stroke-linecap="butt" stroke-miterlimit="10" stroke-linejoin="miter" fill="none" stroke="#ffffff" d="M5359.8 7158.6 5452.5 6873.2 5845.2 7158.6 5452.5 7443.9Z"/>
<path transform="matrix(.1,0,0,-.1,0,792)" d="M1340 897.5 947.301 612.199 1190 435.801H1490Z" fill="#edbd61"/>
<path transform="matrix(.1,0,0,-.1,0,792)" stroke-width="70" stroke-linecap="butt" stroke-miterlimit="10" stroke-linejoin="miter" fill="none" stroke="#ffffff" d="M1340 897.5 947.301 612.199 1190 435.801H1490Z"/>
<path transform="matrix(.1,0,0,-.1,0,792)" d="M2125.4 897.5 1975.4 435.801H2460.9L2368.2 721.199Z" fill="#edbd61"/>
<path transform="matrix(.1,0,0,-.1,0,792)" stroke-width="70" stroke-linecap="butt" stroke-miterlimit="10" stroke-linejoin="miter" fill="none" stroke="#ffffff" d="M2125.4 897.5 1975.4 435.801H2460.9L2368.2 721.199Z"/>
<path transform="matrix(.1,0,0,-.1,0,792)" d="M3881.7 897.5 3639 721.199 3546.3 435.801H4031.7Z" fill="#edbd61"/>
<path transform="matrix(.1,0,0,-.1,0,792)" stroke-width="70" stroke-linecap="butt" stroke-miterlimit="10" stroke-linejoin="miter" fill="none" stroke="#ffffff" d="M3881.7 897.5 3639 721.199 3546.3 435.801H4031.7Z"/>
<path transform="matrix(.1,0,0,-.1,0,792)" d="M4667.1 897.5 4517.1 435.801H4817.1L5059.8 612.199Z" fill="#edbd61"/>
<path transform="matrix(.1,0,0,-.1,0,792)" stroke-width="70" stroke-linecap="butt" stroke-miterlimit="10" stroke-linejoin="miter" fill="none" stroke="#ffffff" d="M4667.1 897.5 4517.1 435.801H4817.1L5059.8 612.199Z"/>
<path transform="matrix(.1,0,0,-.1,0,792)" d="M554.602 7443.9 404.602 7905.5H-80.8008L-230.801 7443.9 161.898 7158.6" fill="#006140"/>
<path transform="matrix(.1,0,0,-.1,0,792)" stroke-width="70" stroke-linecap="butt" stroke-miterlimit="10" stroke-linejoin="miter" fill="none" stroke="#ffffff" d="M554.602 7443.9 404.602 7905.5H-80.8008L-230.801 7443.9 161.898 7158.6Z"/>
<path transform="matrix(.1,0,0,-.1,0,792)" d="M554.602 7443.9 947.301 7729.2 704.602 7905.5H404.602Z" fill="#edbd61"/>
<path transform="matrix(.1,0,0,-.1,0,792)" stroke-width="70" stroke-linecap="butt" stroke-miterlimit="10" stroke-linejoin="miter" fill="none" stroke="#ffffff" d="M554.602 7443.9 947.301 7729.2 704.602 7905.5H404.602Z"/>
<path transform="matrix(.1,0,0,-.1,0,792)" d="M554.602 6873.2 161.898 7158.6-230.801 6873.2-80.8008 6411.6H404.602" fill="#006140"/>
<path transform="matrix(.1,0,0,-.1,0,792)" stroke-width="70" stroke-linecap="butt" stroke-miterlimit="10" stroke-linejoin="miter" fill="none" stroke="#ffffff" d="M554.602 6873.2 161.898 7158.6-230.801 6873.2-80.8008 6411.6H404.602Z"/>
<path transform="matrix(.1,0,0,-.1,0,792)" d="M554.602 4456 404.602 4917.7H-80.8008L-230.801 4456 161.898 4170.7" fill="#006140"/>
<path transform="matrix(.1,0,0,-.1,0,792)" stroke-width="70" stroke-linecap="butt" stroke-miterlimit="10" stroke-linejoin="miter" fill="none" stroke="#ffffff" d="M554.602 4456 404.602 4917.7H-80.8008L-230.801 4456 161.898 4170.7Z"/>
<path transform="matrix(.1,0,0,-.1,0,792)" d="M554.602 3885.4 161.898 4170.7-230.801 3885.4-80.8008 3423.7H404.602" fill="#006140"/>
<path transform="matrix(.1,0,0,-.1,0,792)" stroke-width="70" stroke-linecap="butt" stroke-miterlimit="10" stroke-linejoin="miter" fill="none" stroke="#ffffff" d="M554.602 3885.4 161.898 4170.7-230.801 3885.4-80.8008 3423.7H404.602Z"/>
<path transform="matrix(.1,0,0,-.1,0,792)" d="M554.602 1468.1 404.602 1929.8H-80.8008L-230.801 1468.1 161.898 1182.8" fill="#006140"/>
<path transform="matrix(.1,0,0,-.1,0,792)" stroke-width="70" stroke-linecap="butt" stroke-miterlimit="10" stroke-linejoin="miter" fill="none" stroke="#ffffff" d="M554.602 1468.1 404.602 1929.8H-80.8008L-230.801 1468.1 161.898 1182.8Z"/>
<path transform="matrix(.1,0,0,-.1,0,792)" d="M554.602 897.5 404.602 435.801H704.602L947.301 612.199Z" fill="#edbd61"/>
<path transform="matrix(.1,0,0,-.1,0,792)" stroke-width="70" stroke-linecap="butt" stroke-miterlimit="10" stroke-linejoin="miter" fill="none" stroke="#ffffff" d="M554.602 897.5 404.602 435.801H704.602L947.301 612.199Z"/>
<path transform="matrix(.1,0,0,-.1,0,792)" d="M554.602 897.5 161.898 1182.8-230.801 897.5-80.8008 435.801H404.602" fill="#006140"/>
<path transform="matrix(.1,0,0,-.1,0,792)" stroke-width="70" stroke-linecap="butt" stroke-miterlimit="10" stroke-linejoin="miter" fill="none" stroke="#ffffff" d="M554.602 897.5 161.898 1182.8-230.801 897.5-80.8008 435.801H404.602Z"/>
<path transform="matrix(.1,0,0,-.1,0,792)" d="M5452.5 897.5 5602.5 435.801H6087.9L6237.9 897.5 5845.2 1182.8" fill="#006140"/>
<path transform="matrix(.1,0,0,-.1,0,792)" stroke-width="70" stroke-linecap="butt" stroke-miterlimit="10" stroke-linejoin="miter" fill="none" stroke="#ffffff" d="M5452.5 897.5 5602.5 435.801H6087.9L6237.9 897.5 5845.2 1182.8Z"/>
<path transform="matrix(.1,0,0,-.1,0,792)" d="M5452.5 897.5 5059.8 612.199 5302.5 435.801H5602.5Z" fill="#edbd61"/>
<path transform="matrix(.1,0,0,-.1,0,792)" stroke-width="70" stroke-linecap="butt" stroke-miterlimit="10" stroke-linejoin="miter" fill="none" stroke="#ffffff" d="M5452.5 897.5 5059.8 612.199 5302.5 435.801H5602.5Z"/>
<path transform="matrix(.1,0,0,-.1,0,792)" d="M5452.5 1468.1 5845.2 1182.8 6237.9 1468.1 6087.9 1929.8H5602.5" fill="#006140"/>
<path transform="matrix(.1,0,0,-.1,0,792)" stroke-width="70" stroke-linecap="butt" stroke-miterlimit="10" stroke-linejoin="miter" fill="none" stroke="#ffffff" d="M5452.5 1468.1 5845.2 1182.8 6237.9 1468.1 6087.9 1929.8H5602.5Z"/>
<path transform="matrix(.1,0,0,-.1,0,792)" d="M5452.5 3885.4 5602.5 3423.7H6087.9L6237.9 3885.4 5845.2 4170.7" fill="#006140"/>
<path transform="matrix(.1,0,0,-.1,0,792)" stroke-width="70" stroke-linecap="butt" stroke-miterlimit="10" stroke-linejoin="miter" fill="none" stroke="#ffffff" d="M5452.5 3885.4 5602.5 3423.7H6087.9L6237.9 3885.4 5845.2 4170.7Z"/>
<path transform="matrix(.1,0,0,-.1,0,792)" d="M5452.5 4456 5845.2 4170.7 6237.9 4456 6087.9 4917.7H5602.5" fill="#006140"/>
<path transform="matrix(.1,0,0,-.1,0,792)" stroke-width="70" stroke-linecap="butt" stroke-miterlimit="10" stroke-linejoin="miter" fill="none" stroke="#ffffff" d="M5452.5 4456 5845.2 4170.7 6237.9 4456 6087.9 4917.7H5602.5Z"/>
<path transform="matrix(.1,0,0,-.1,0,792)" d="M5452.5 6873.2 5602.5 6411.6H6087.9L6237.9 6873.2 5845.2 7158.6" fill="#006140"/>
<path transform="matrix(.1,0,0,-.1,0,792)" stroke-width="70" stroke-linecap="butt" stroke-miterlimit="10" stroke-linejoin="miter" fill="none" stroke="#ffffff" d="M5452.5 6873.2 5602.5 6411.6H6087.9L6237.9 6873.2 5845.2 7158.6Z"/>
<path transform="matrix(.1,0,0,-.1,0,792)" d="M5452.5 7443.9 5602.5 7905.5H5302.5L5059.8 7729.2Z" fill="#edbd61"/>
<path transform="matrix(.1,0,0,-.1,0,792)" stroke-width="70" stroke-linecap="butt" stroke-miterlimit="10" stroke-linejoin="miter" fill="none" stroke="#ffffff" d="M5452.5 7443.9 5602.5 7905.5H5302.5L5059.8 7729.2Z"/>
<path transform="matrix(.1,0,0,-.1,0,792)" d="M5452.5 7443.9 5845.2 7158.6 6237.9 7443.9 6087.9 7905.5H5602.5" fill="#006140"/>
<path transform="matrix(.1,0,0,-.1,0,792)" stroke-width="70" stroke-linecap="butt" stroke-miterlimit="10" stroke-linejoin="miter" fill="none" stroke="#ffffff" d="M5452.5 7443.9 5845.2 7158.6 6237.9 7443.9 6087.9 7905.5H5602.5Z"/>
<path transform="matrix(.1,0,0,-.1,0,792)" d="M5059.8 7729.2 5302.5 7905.5H5602.5L5695.2 8190.9 5937.9 8367.2 5845.2 8652.5 5937.9 8937.8 5695.2 9114.2 5602.5 9399.5H5302.5L5059.8 9575.8 4817.1 9399.5H4517.1L4424.4 9114.2 4181.7 8937.8 4274.4 8652.5 4181.7 8367.2 4424.4 8190.9 4517.1 7905.5H4817.1"/>
<path transform="matrix(.1,0,0,-.1,0,792)" stroke-width="70" stroke-linecap="butt" stroke-miterlimit="10" stroke-linejoin="miter" fill="none" stroke="#ffffff" d="M5059.8 7729.2 5302.5 7905.5H5602.5L5695.2 8190.9 5937.9 8367.2 5845.2 8652.5 5937.9 8937.8 5695.2 9114.2 5602.5 9399.5H5302.5L5059.8 9575.8 4817.1 9399.5H4517.1L4424.4 9114.2 4181.7 8937.8 4274.4 8652.5 4181.7 8367.2 4424.4 8190.9 4517.1 7905.5H4817.1Z"/>
<path transform="matrix(.1,0,0,-.1,0,792)" d="M947.301 7729.2 1190 7905.5H1490L1582.7 8190.9 1825.4 8367.2 1732.7 8652.5 1825.4 8937.8 1582.7 9114.2 1490 9399.5H1190L947.301 9575.8 704.602 9399.5H404.602L311.898 9114.2 69.1992 8937.8 161.898 8652.5 69.1992 8367.2 311.898 8190.9 404.602 7905.5H704.602"/>
<path transform="matrix(.1,0,0,-.1,0,792)" stroke-width="70" stroke-linecap="butt" stroke-miterlimit="10" stroke-linejoin="miter" fill="none" stroke="#ffffff" d="M947.301 7729.2 1190 7905.5H1490L1582.7 8190.9 1825.4 8367.2 1732.7 8652.5 1825.4 8937.8 1582.7 9114.2 1490 9399.5H1190L947.301 9575.8 704.602 9399.5H404.602L311.898 9114.2 69.1992 8937.8 161.898 8652.5 69.1992 8367.2 311.898 8190.9 404.602 7905.5H704.602Z"/>
<path transform="matrix(.1,0,0,-.1,0,792)" d="M404.602 6411.6H-80.8008L69.1992 5949.9 311.898 6126.3Z" fill="#edbd61"/>
<path transform="matrix(.1,0,0,-.1,0,792)" stroke-width="70" stroke-linecap="butt" stroke-miterlimit="10" stroke-linejoin="miter" fill="none" stroke="#ffffff" d="M404.602 6411.6H-80.8008L69.1992 5949.9 311.898 6126.3Z"/>
<path transform="matrix(.1,0,0,-.1,0,792)" d="M404.602 4917.7 311.898 5203 69.1992 5379.3-80.8008 4917.7Z" fill="#edbd61"/>
<path transform="matrix(.1,0,0,-.1,0,792)" stroke-width="70" stroke-linecap="butt" stroke-miterlimit="10" stroke-linejoin="miter" fill="none" stroke="#ffffff" d="M404.602 4917.7 311.898 5203 69.1992 5379.3-80.8008 4917.7Z"/>
<path transform="matrix(.1,0,0,-.1,0,792)" d="M404.602 3423.7H-80.8008L69.1992 2962.1 311.898 3138.4Z" fill="#edbd61"/>
<path transform="matrix(.1,0,0,-.1,0,792)" stroke-width="70" stroke-linecap="butt" stroke-miterlimit="10" stroke-linejoin="miter" fill="none" stroke="#ffffff" d="M404.602 3423.7H-80.8008L69.1992 2962.1 311.898 3138.4Z"/>
<path transform="matrix(.1,0,0,-.1,0,792)" d="M404.602 1929.8 311.898 2215.1 69.1992 2391.4-80.8008 1929.8Z" fill="#edbd61"/>
<path transform="matrix(.1,0,0,-.1,0,792)" stroke-width="70" stroke-linecap="butt" stroke-miterlimit="10" stroke-linejoin="miter" fill="none" stroke="#ffffff" d="M404.602 1929.8 311.898 2215.1 69.1992 2391.4-80.8008 1929.8Z"/>
<path transform="matrix(.1,0,0,-.1,0,792)" d="M947.301 612.199 704.602 435.801H404.602L311.898 150.5 69.1992-25.8008 161.898-311.102 69.1992-596.398 311.898-772.801 404.602-1058.1H704.602L947.301-1234.4 1190-1058.1H1490L1582.7-772.801 1825.4-596.398 1732.7-311.102 1825.4-25.8008 1582.7 150.5 1490 435.801H1190"/>
<path transform="matrix(.1,0,0,-.1,0,792)" stroke-width="70" stroke-linecap="butt" stroke-miterlimit="10" stroke-linejoin="miter" fill="none" stroke="#ffffff" d="M947.301 612.199 704.602 435.801H404.602L311.898 150.5 69.1992-25.8008 161.898-311.102 69.1992-596.398 311.898-772.801 404.602-1058.1H704.602L947.301-1234.4 1190-1058.1H1490L1582.7-772.801 1825.4-596.398 1732.7-311.102 1825.4-25.8008 1582.7 150.5 1490 435.801H1190Z"/>
<path transform="matrix(.1,0,0,-.1,0,792)" d="M5059.8 612.199 4817.1 435.801H4517.1L4424.4 150.5 4181.7-25.8008 4274.4-311.102 4181.7-596.398 4424.4-772.801 4517.1-1058.1H4817.1L5059.8-1234.4 5302.5-1058.1H5602.5L5695.2-772.801 5937.9-596.398 5845.2-311.102 5937.9-25.8008 5695.2 150.5 5602.5 435.801H5302.5"/>
<path transform="matrix(.1,0,0,-.1,0,792)" stroke-width="70" stroke-linecap="butt" stroke-miterlimit="10" stroke-linejoin="miter" fill="none" stroke="#ffffff" d="M5059.8 612.199 4817.1 435.801H4517.1L4424.4 150.5 4181.7-25.8008 4274.4-311.102 4181.7-596.398 4424.4-772.801 4517.1-1058.1H4817.1L5059.8-1234.4 5302.5-1058.1H5602.5L5695.2-772.801 5937.9-596.398 5845.2-311.102 5937.9-25.8008 5695.2 150.5 5602.5 435.801H5302.5Z"/>
<path transform="matrix(.1,0,0,-.1,0,792)" d="M5602.5 1929.8H6087.9L5937.9 2391.4 5695.2 2215.1Z" fill="#edbd61"/>
<path transform="matrix(.1,0,0,-.1,0,792)" stroke-width="70" stroke-linecap="butt" stroke-miterlimit="10" stroke-linejoin="miter" fill="none" stroke="#ffffff" d="M5602.5 1929.8H6087.9L5937.9 2391.4 5695.2 2215.1Z"/>
<path transform="matrix(.1,0,0,-.1,0,792)" d="M5602.5 3423.7 5695.2 3138.4 5937.9 2962.1 6087.9 3423.7Z" fill="#edbd61"/>
<path transform="matrix(.1,0,0,-.1,0,792)" stroke-width="70" stroke-linecap="butt" stroke-miterlimit="10" stroke-linejoin="miter" fill="none" stroke="#ffffff" d="M5602.5 3423.7 5695.2 3138.4 5937.9 2962.1 6087.9 3423.7Z"/>
<path transform="matrix(.1,0,0,-.1,0,792)" d="M5602.5 4917.7H6087.9L5937.9 5379.3 5695.2 5203Z" fill="#edbd61"/>
<path transform="matrix(.1,0,0,-.1,0,792)" stroke-width="70" stroke-linecap="butt" stroke-miterlimit="10" stroke-linejoin="miter" fill="none" stroke="#ffffff" d="M5602.5 4917.7H6087.9L5937.9 5379.3 5695.2 5203Z"/>
<path transform="matrix(.1,0,0,-.1,0,792)" d="M5602.5 6411.6 5695.2 6126.3 5937.9 5949.9 6087.9 6411.6Z" fill="#edbd61"/>
<path transform="matrix(.1,0,0,-.1,0,792)" stroke-width="70" stroke-linecap="butt" stroke-miterlimit="10" stroke-linejoin="miter" fill="none" stroke="#ffffff" d="M5602.5 6411.6 5695.2 6126.3 5937.9 5949.9 6087.9 6411.6Z"/>
<path transform="matrix(.1,0,0,-.1,0,792)" d="M5602.5 7905.5H6087.9L5937.9 8367.2 5695.2 8190.9Z" fill="#edbd61"/>
<path transform="matrix(.1,0,0,-.1,0,792)" stroke-width="70" stroke-linecap="butt" stroke-miterlimit="10" stroke-linejoin="miter" fill="none" stroke="#ffffff" d="M5602.5 7905.5H6087.9L5937.9 8367.2 5695.2 8190.9Z"/>
<path transform="matrix(.1,0,0,-.1,0,792)" d="M4517.1 7905.5 4424.4 8190.9 4181.7 8367.2 4031.7 7905.5Z" fill="#edbd61"/>
<path transform="matrix(.1,0,0,-.1,0,792)" stroke-width="70" stroke-linecap="butt" stroke-miterlimit="10" stroke-linejoin="miter" fill="none" stroke="#ffffff" d="M4517.1 7905.5 4424.4 8190.9 4181.7 8367.2 4031.7 7905.5Z"/>
<path transform="matrix(.1,0,0,-.1,0,792)" d="M4031.7 7905.5 4181.7 8367.2 3789 8652.5 3396.3 8367.2 3546.3 7905.5" fill="#006140"/>
<path transform="matrix(.1,0,0,-.1,0,792)" stroke-width="70" stroke-linecap="butt" stroke-miterlimit="10" stroke-linejoin="miter" fill="none" stroke="#ffffff" d="M4031.7 7905.5 4181.7 8367.2 3789 8652.5 3396.3 8367.2 3546.3 7905.5Z"/>
<path transform="matrix(.1,0,0,-.1,0,792)" d="M3546.3 7905.5 3396.3 8367.2 3003.6 8081.9 3246.3 7905.5Z" fill="#edbd61"/>
<path transform="matrix(.1,0,0,-.1,0,792)" stroke-width="70" stroke-linecap="butt" stroke-miterlimit="10" stroke-linejoin="miter" fill="none" stroke="#ffffff" d="M3546.3 7905.5 3396.3 8367.2 3003.6 8081.9 3246.3 7905.5Z"/>
<path transform="matrix(.1,0,0,-.1,0,792)" d="M2760.9 7905.5 3003.6 8081.9 2610.9 8367.2 2460.9 7905.5Z" fill="#edbd61"/>
<path transform="matrix(.1,0,0,-.1,0,792)" stroke-width="70" stroke-linecap="butt" stroke-miterlimit="10" stroke-linejoin="miter" fill="none" stroke="#ffffff" d="M2760.9 7905.5 3003.6 8081.9 2610.9 8367.2 2460.9 7905.5Z"/>
<path transform="matrix(.1,0,0,-.1,0,792)" d="M2460.9 7905.5 2610.9 8367.2 2218.2 8652.5 1825.4 8367.2 1975.4 7905.5" fill="#006140"/>
<path transform="matrix(.1,0,0,-.1,0,792)" stroke-width="70" stroke-linecap="butt" stroke-miterlimit="10" stroke-linejoin="miter" fill="none" stroke="#ffffff" d="M2460.9 7905.5 2610.9 8367.2 2218.2 8652.5 1825.4 8367.2 1975.4 7905.5Z"/>
<path transform="matrix(.1,0,0,-.1,0,792)" d="M1975.4 7905.5 1825.4 8367.2 1582.7 8190.9 1490 7905.5Z" fill="#edbd61"/>
<path transform="matrix(.1,0,0,-.1,0,792)" stroke-width="70" stroke-linecap="butt" stroke-miterlimit="10" stroke-linejoin="miter" fill="none" stroke="#ffffff" d="M1975.4 7905.5 1825.4 8367.2 1582.7 8190.9 1490 7905.5Z"/>
<path transform="matrix(.1,0,0,-.1,0,792)" d="M404.602 7905.5 311.898 8190.9 69.1992 8367.2-80.8008 7905.5Z" fill="#edbd61"/>
<path transform="matrix(.1,0,0,-.1,0,792)" stroke-width="70" stroke-linecap="butt" stroke-miterlimit="10" stroke-linejoin="miter" fill="none" stroke="#ffffff" d="M404.602 7905.5 311.898 8190.9 69.1992 8367.2-80.8008 7905.5Z"/>
<path transform="matrix(.1,0,0,-.1,0,792)" d="M404.602 435.801H-80.8008L69.1992-25.8008 311.898 150.5Z" fill="#edbd61"/>
<path transform="matrix(.1,0,0,-.1,0,792)" stroke-width="70" stroke-linecap="butt" stroke-miterlimit="10" stroke-linejoin="miter" fill="none" stroke="#ffffff" d="M404.602 435.801H-80.8008L69.1992-25.8008 311.898 150.5Z"/>
<path transform="matrix(.1,0,0,-.1,0,792)" d="M1490 435.801 1582.7 150.5 1825.4-25.8008 1975.4 435.801Z" fill="#edbd61"/>
<path transform="matrix(.1,0,0,-.1,0,792)" stroke-width="70" stroke-linecap="butt" stroke-miterlimit="10" stroke-linejoin="miter" fill="none" stroke="#ffffff" d="M1490 435.801 1582.7 150.5 1825.4-25.8008 1975.4 435.801Z"/>
<path transform="matrix(.1,0,0,-.1,0,792)" d="M1975.4 435.801 1825.4-25.8008 2218.2-311.102 2610.9-25.8008 2460.9 435.801" fill="#006140"/>
<path transform="matrix(.1,0,0,-.1,0,792)" stroke-width="70" stroke-linecap="butt" stroke-miterlimit="10" stroke-linejoin="miter" fill="none" stroke="#ffffff" d="M1975.4 435.801 1825.4-25.8008 2218.2-311.102 2610.9-25.8008 2460.9 435.801Z"/>
<path transform="matrix(.1,0,0,-.1,0,792)" d="M2460.9 435.801 2610.9-25.8008 3003.6 259.5 2760.9 435.801Z" fill="#edbd61"/>
<path transform="matrix(.1,0,0,-.1,0,792)" stroke-width="70" stroke-linecap="butt" stroke-miterlimit="10" stroke-linejoin="miter" fill="none" stroke="#ffffff" d="M2460.9 435.801 2610.9-25.8008 3003.6 259.5 2760.9 435.801Z"/>
<path transform="matrix(.1,0,0,-.1,0,792)" d="M3246.3 435.801 3003.6 259.5 3396.3-25.8008 3546.3 435.801Z" fill="#edbd61"/>
<path transform="matrix(.1,0,0,-.1,0,792)" stroke-width="70" stroke-linecap="butt" stroke-miterlimit="10" stroke-linejoin="miter" fill="none" stroke="#ffffff" d="M3246.3 435.801 3003.6 259.5 3396.3-25.8008 3546.3 435.801Z"/>
<path transform="matrix(.1,0,0,-.1,0,792)" d="M3546.3 435.801 3396.3-25.8008 3789-311.102 4181.7-25.8008 4031.7 435.801" fill="#006140"/>
<path transform="matrix(.1,0,0,-.1,0,792)" stroke-width="70" stroke-linecap="butt" stroke-miterlimit="10" stroke-linejoin="miter" fill="none" stroke="#ffffff" d="M3546.3 435.801 3396.3-25.8008 3789-311.102 4181.7-25.8008 4031.7 435.801Z"/>
<path transform="matrix(.1,0,0,-.1,0,792)" d="M4031.7 435.801 4181.7-25.8008 4424.4 150.5 4517.1 435.801Z" fill="#edbd61"/>
<path transform="matrix(.1,0,0,-.1,0,792)" stroke-width="70" stroke-linecap="butt" stroke-miterlimit="10" stroke-linejoin="miter" fill="none" stroke="#ffffff" d="M4031.7 435.801 4181.7-25.8008 4424.4 150.5 4517.1 435.801Z"/>
<path transform="matrix(.1,0,0,-.1,0,792)" d="M5602.5 435.801 5695.2 150.5 5937.9-25.8008 6087.9 435.801Z" fill="#edbd61"/>
<path transform="matrix(.1,0,0,-.1,0,792)" stroke-width="70" stroke-linecap="butt" stroke-miterlimit="10" stroke-linejoin="miter" fill="none" stroke="#ffffff" d="M5602.5 435.801 5695.2 150.5 5937.9-25.8008 6087.9 435.801Z"/>
<path transform="matrix(.1,0,0,-.1,0,792)" d="M161.898 7158.6-230.801 7443.9-323.5 7158.6-230.801 6873.2Z" fill="#edbd61"/>
<path transform="matrix(.1,0,0,-.1,0,792)" stroke-width="70" stroke-linecap="butt" stroke-miterlimit="10" stroke-linejoin="miter" fill="none" stroke="#ffffff" d="M161.898 7158.6-230.801 7443.9-323.5 7158.6-230.801 6873.2Z"/>
<path transform="matrix(.1,0,0,-.1,0,792)" d="M161.898 5664.6 69.1992 5949.9-323.5 5664.6 69.1992 5379.3Z" fill="#edbd61"/>
<path transform="matrix(.1,0,0,-.1,0,792)" stroke-width="70" stroke-linecap="butt" stroke-miterlimit="10" stroke-linejoin="miter" fill="none" stroke="#ffffff" d="M161.898 5664.6 69.1992 5949.9-323.5 5664.6 69.1992 5379.3Z"/>
<path transform="matrix(.1,0,0,-.1,0,792)" d="M161.898 4170.7-230.801 4456-323.5 4170.7-230.801 3885.4Z" fill="#edbd61"/>
<path transform="matrix(.1,0,0,-.1,0,792)" stroke-width="70" stroke-linecap="butt" stroke-miterlimit="10" stroke-linejoin="miter" fill="none" stroke="#ffffff" d="M161.898 4170.7-230.801 4456-323.5 4170.7-230.801 3885.4Z"/>
<path transform="matrix(.1,0,0,-.1,0,792)" d="M161.898 2676.7 69.1992 2962.1-323.5 2676.7 69.1992 2391.4Z" fill="#edbd61"/>
<path transform="matrix(.1,0,0,-.1,0,792)" stroke-width="70" stroke-linecap="butt" stroke-miterlimit="10" stroke-linejoin="miter" fill="none" stroke="#ffffff" d="M161.898 2676.7 69.1992 2962.1-323.5 2676.7 69.1992 2391.4Z"/>
<path transform="matrix(.1,0,0,-.1,0,792)" d="M161.898 1182.8-230.801 1468.1-323.5 1182.8-230.801 897.5Z" fill="#edbd61"/>
<path transform="matrix(.1,0,0,-.1,0,792)" stroke-width="70" stroke-linecap="butt" stroke-miterlimit="10" stroke-linejoin="miter" fill="none" stroke="#ffffff" d="M161.898 1182.8-230.801 1468.1-323.5 1182.8-230.801 897.5Z"/>
<path transform="matrix(.1,0,0,-.1,0,792)" d="M3003.6 259.5 2610.9-25.8008 2703.6-311.102 2610.9-596.398 3003.6-881.801 3396.3-596.398 3303.6-311.102 3396.3-25.8008"/>
<path transform="matrix(.1,0,0,-.1,0,792)" stroke-width="70" stroke-linecap="butt" stroke-miterlimit="10" stroke-linejoin="miter" fill="none" stroke="#ffffff" d="M3003.6 259.5 2610.9-25.8008 2703.6-311.102 2610.9-596.398 3003.6-881.801 3396.3-596.398 3303.6-311.102 3396.3-25.8008Z"/>
<path transform="matrix(.1,0,0,-.1,0,792)" d="M5845.2 1182.8 6237.9 897.5 6330.6 1182.8 6237.9 1468.1Z" fill="#edbd61"/>
<path transform="matrix(.1,0,0,-.1,0,792)" stroke-width="70" stroke-linecap="butt" stroke-miterlimit="10" stroke-linejoin="miter" fill="none" stroke="#ffffff" d="M5845.2 1182.8 6237.9 897.5 6330.6 1182.8 6237.9 1468.1Z"/>
<path transform="matrix(.1,0,0,-.1,0,792)" d="M5845.2 2676.7 5937.9 2391.4 6330.6 2676.7 5937.9 2962.1Z" fill="#edbd61"/>
<path transform="matrix(.1,0,0,-.1,0,792)" stroke-width="70" stroke-linecap="butt" stroke-miterlimit="10" stroke-linejoin="miter" fill="none" stroke="#ffffff" d="M5845.2 2676.7 5937.9 2391.4 6330.6 2676.7 5937.9 2962.1Z"/>
<path transform="matrix(.1,0,0,-.1,0,792)" d="M5845.2 4170.7 6237.9 3885.4 6330.6 4170.7 6237.9 4456Z" fill="#edbd61"/>
<path transform="matrix(.1,0,0,-.1,0,792)" stroke-width="70" stroke-linecap="butt" stroke-miterlimit="10" stroke-linejoin="miter" fill="none" stroke="#ffffff" d="M5845.2 4170.7 6237.9 3885.4 6330.6 4170.7 6237.9 4456Z"/>
<path transform="matrix(.1,0,0,-.1,0,792)" d="M5845.2 5664.6 5937.9 5379.3 6330.6 5664.6 5937.9 5949.9Z" fill="#edbd61"/>
<path transform="matrix(.1,0,0,-.1,0,792)" stroke-width="70" stroke-linecap="butt" stroke-miterlimit="10" stroke-linejoin="miter" fill="none" stroke="#ffffff" d="M5845.2 5664.6 5937.9 5379.3 6330.6 5664.6 5937.9 5949.9Z"/>
<path transform="matrix(.1,0,0,-.1,0,792)" d="M5845.2 7158.6 6237.9 6873.2 6330.6 7158.6 6237.9 7443.9Z" fill="#edbd61"/>
<path transform="matrix(.1,0,0,-.1,0,792)" stroke-width="70" stroke-linecap="butt" stroke-miterlimit="10" stroke-linejoin="miter" fill="none" stroke="#ffffff" d="M5845.2 7158.6 6237.9 6873.2 6330.6 7158.6 6237.9 7443.9Z"/>
<path transform="matrix(.1,0,0,-.1,0,792)" d="M69.1992 5949.9-80.8008 6411.6H-566.199L-716.199 5949.9-323.5 5664.6" fill="#006140"/>
<path transform="matrix(.1,0,0,-.1,0,792)" stroke-width="70" stroke-linecap="butt" stroke-miterlimit="10" stroke-linejoin="miter" fill="none" stroke="#ffffff" d="M69.1992 5949.9-80.8008 6411.6H-566.199L-716.199 5949.9-323.5 5664.6Z"/>
<path transform="matrix(.1,0,0,-.1,0,792)" d="M69.1992 5379.3-323.5 5664.6-716.199 5379.3-566.199 4917.7H-80.8008" fill="#006140"/>
<path transform="matrix(.1,0,0,-.1,0,792)" stroke-width="70" stroke-linecap="butt" stroke-miterlimit="10" stroke-linejoin="miter" fill="none" stroke="#ffffff" d="M69.1992 5379.3-323.5 5664.6-716.199 5379.3-566.199 4917.7H-80.8008Z"/>
<path transform="matrix(.1,0,0,-.1,0,792)" d="M69.1992 2962.1-80.8008 3423.7H-566.199L-716.199 2962.1-323.5 2676.7" fill="#006140"/>
<path transform="matrix(.1,0,0,-.1,0,792)" stroke-width="70" stroke-linecap="butt" stroke-miterlimit="10" stroke-linejoin="miter" fill="none" stroke="#ffffff" d="M69.1992 2962.1-80.8008 3423.7H-566.199L-716.199 2962.1-323.5 2676.7Z"/>
<path transform="matrix(.1,0,0,-.1,0,792)" d="M69.1992 2391.4-323.5 2676.7-716.199 2391.4-566.199 1929.8H-80.8008" fill="#006140"/>
<path transform="matrix(.1,0,0,-.1,0,792)" stroke-width="70" stroke-linecap="butt" stroke-miterlimit="10" stroke-linejoin="miter" fill="none" stroke="#ffffff" d="M69.1992 2391.4-323.5 2676.7-716.199 2391.4-566.199 1929.8H-80.8008Z"/>
<path transform="matrix(.1,0,0,-.1,0,792)" d="M5937.9 2391.4 6087.9 1929.8H6573.3L6723.3 2391.4 6330.6 2676.7" fill="#006140"/>
<path transform="matrix(.1,0,0,-.1,0,792)" stroke-width="70" stroke-linecap="butt" stroke-miterlimit="10" stroke-linejoin="miter" fill="none" stroke="#ffffff" d="M5937.9 2391.4 6087.9 1929.8H6573.3L6723.3 2391.4 6330.6 2676.7Z"/>
<path transform="matrix(.1,0,0,-.1,0,792)" d="M5937.9 2962.1 6330.6 2676.7 6723.3 2962.1 6573.3 3423.7H6087.9" fill="#006140"/>
<path transform="matrix(.1,0,0,-.1,0,792)" stroke-width="70" stroke-linecap="butt" stroke-miterlimit="10" stroke-linejoin="miter" fill="none" stroke="#ffffff" d="M5937.9 2962.1 6330.6 2676.7 6723.3 2962.1 6573.3 3423.7H6087.9Z"/>
<path transform="matrix(.1,0,0,-.1,0,792)" d="M5937.9 5379.3 6087.9 4917.7H6573.3L6723.3 5379.3 6330.6 5664.6" fill="#006140"/>
<path transform="matrix(.1,0,0,-.1,0,792)" stroke-width="70" stroke-linecap="butt" stroke-miterlimit="10" stroke-linejoin="miter" fill="none" stroke="#ffffff" d="M5937.9 5379.3 6087.9 4917.7H6573.3L6723.3 5379.3 6330.6 5664.6Z"/>
<path transform="matrix(.1,0,0,-.1,0,792)" d="M5937.9 5949.9 6330.6 5664.6 6723.3 5949.9 6573.3 6411.6H6087.9" fill="#006140"/>
<path transform="matrix(.1,0,0,-.1,0,792)" stroke-width="70" stroke-linecap="butt" stroke-miterlimit="10" stroke-linejoin="miter" fill="none" stroke="#ffffff" d="M5937.9 5949.9 6330.6 5664.6 6723.3 5949.9 6573.3 6411.6H6087.9Z"/>
<path transform="matrix(.1,0,0,-.1,0,792)" d="M5937.9 8367.2 6087.9 7905.5H6573.3L6723.3 8367.2 6330.6 8652.5" fill="#006140"/>
<path transform="matrix(.1,0,0,-.1,0,792)" stroke-width="70" stroke-linecap="butt" stroke-miterlimit="10" stroke-linejoin="miter" fill="none" stroke="#ffffff" d="M5937.9 8367.2 6087.9 7905.5H6573.3L6723.3 8367.2 6330.6 8652.5Z"/>
<path transform="matrix(.1,0,0,-.1,0,792)" d="M69.1992 8367.2-323.5 8652.5-716.199 8367.2-566.199 7905.5H-80.8008" fill="#006140"/>
<path transform="matrix(.1,0,0,-.1,0,792)" stroke-width="70" stroke-linecap="butt" stroke-miterlimit="10" stroke-linejoin="miter" fill="none" stroke="#ffffff" d="M69.1992 8367.2-323.5 8652.5-716.199 8367.2-566.199 7905.5H-80.8008Z"/>
<path transform="matrix(.1,0,0,-.1,0,792)" d="M-80.8008 435.801H-566.199L-716.199-25.8008-323.5-311.102 69.1992-25.8008" fill="#006140"/>
<path transform="matrix(.1,0,0,-.1,0,792)" stroke-width="70" stroke-linecap="butt" stroke-miterlimit="10" stroke-linejoin="miter" fill="none" stroke="#ffffff" d="M-80.8008 435.801H-566.199L-716.199-25.8008-323.5-311.102 69.1992-25.8008Z"/>
<path transform="matrix(.1,0,0,-.1,0,792)" stroke-width="70" stroke-linecap="butt" stroke-miterlimit="10" stroke-linejoin="miter" fill="none" stroke="#ffffff" d="M69.1992-25.8008-323.5-311.102 69.1992-596.398 161.898-311.102Z"/>
<path transform="matrix(.1,0,0,-.1,0,792)" stroke-width="70" stroke-linecap="butt" stroke-miterlimit="10" stroke-linejoin="miter" fill="none" stroke="#ffffff" d="M1825.4-25.8008 1732.7-311.102 1825.4-596.398 2218.2-311.102Z"/>
<path transform="matrix(.1,0,0,-.1,0,792)" stroke-width="70" stroke-linecap="butt" stroke-miterlimit="10" stroke-linejoin="miter" fill="none" stroke="#ffffff" d="M2610.9-25.8008 2218.2-311.102 2610.9-596.398 2703.6-311.102Z"/>
<path transform="matrix(.1,0,0,-.1,0,792)" stroke-width="70" stroke-linecap="butt" stroke-miterlimit="10" stroke-linejoin="miter" fill="none" stroke="#ffffff" d="M3396.3-25.8008 3303.6-311.102 3396.3-596.398 3789-311.102Z"/>
<path transform="matrix(.1,0,0,-.1,0,792)" stroke-width="70" stroke-linecap="butt" stroke-miterlimit="10" stroke-linejoin="miter" fill="none" stroke="#ffffff" d="M4181.7-25.8008 3789-311.102 4181.7-596.398 4274.4-311.102Z"/>
<path transform="matrix(.1,0,0,-.1,0,792)" d="M5937.9-25.8008 6330.6-311.102 6723.3-25.8008 6573.3 435.801H6087.9" fill="#006140"/>
<path transform="matrix(.1,0,0,-.1,0,792)" stroke-width="70" stroke-linecap="butt" stroke-miterlimit="10" stroke-linejoin="miter" fill="none" stroke="#ffffff" d="M5937.9-25.8008 6330.6-311.102 6723.3-25.8008 6573.3 435.801H6087.9Z"/>
<path transform="matrix(.1,0,0,-.1,0,792)" stroke-width="70" stroke-linecap="butt" stroke-miterlimit="10" stroke-linejoin="miter" fill="none" stroke="#ffffff" d="M5937.9-25.8008 5845.2-311.102 5937.9-596.398 6330.6-311.102Z"/>
<path transform="matrix(.1,0,0,-.1,0,792)" d="M6087.9 435.801H6573.3L6480.6 721.199 6237.9 897.5Z" fill="#edbd61"/>
<path transform="matrix(.1,0,0,-.1,0,792)" stroke-width="70" stroke-linecap="butt" stroke-miterlimit="10" stroke-linejoin="miter" fill="none" stroke="#ffffff" d="M6087.9 435.801H6573.3L6480.6 721.199 6237.9 897.5Z"/>
<path transform="matrix(.1,0,0,-.1,0,792)" d="M6087.9 1929.8 6237.9 1468.1 6480.6 1644.5 6573.3 1929.8Z" fill="#edbd61"/>
<path transform="matrix(.1,0,0,-.1,0,792)" stroke-width="70" stroke-linecap="butt" stroke-miterlimit="10" stroke-linejoin="miter" fill="none" stroke="#ffffff" d="M6087.9 1929.8 6237.9 1468.1 6480.6 1644.5 6573.3 1929.8Z"/>
<path transform="matrix(.1,0,0,-.1,0,792)" d="M6087.9 3423.7H6573.3L6480.6 3709 6237.9 3885.4Z" fill="#edbd61"/>
<path transform="matrix(.1,0,0,-.1,0,792)" stroke-width="70" stroke-linecap="butt" stroke-miterlimit="10" stroke-linejoin="miter" fill="none" stroke="#ffffff" d="M6087.9 3423.7H6573.3L6480.6 3709 6237.9 3885.4Z"/>
<path transform="matrix(.1,0,0,-.1,0,792)" d="M6087.9 4917.7 6237.9 4456 6480.6 4632.3 6573.3 4917.7Z" fill="#edbd61"/>
<path transform="matrix(.1,0,0,-.1,0,792)" stroke-width="70" stroke-linecap="butt" stroke-miterlimit="10" stroke-linejoin="miter" fill="none" stroke="#ffffff" d="M6087.9 4917.7 6237.9 4456 6480.6 4632.3 6573.3 4917.7Z"/>
<path transform="matrix(.1,0,0,-.1,0,792)" d="M6087.9 6411.6H6573.3L6480.6 6696.9 6237.9 6873.2Z" fill="#edbd61"/>
<path transform="matrix(.1,0,0,-.1,0,792)" stroke-width="70" stroke-linecap="butt" stroke-miterlimit="10" stroke-linejoin="miter" fill="none" stroke="#ffffff" d="M6087.9 6411.6H6573.3L6480.6 6696.9 6237.9 6873.2Z"/>
<path transform="matrix(.1,0,0,-.1,0,792)" d="M6087.9 7905.5 6237.9 7443.9 6480.6 7620.2 6573.3 7905.5Z" fill="#edbd61"/>
<path transform="matrix(.1,0,0,-.1,0,792)" stroke-width="70" stroke-linecap="butt" stroke-miterlimit="10" stroke-linejoin="miter" fill="none" stroke="#ffffff" d="M6087.9 7905.5 6237.9 7443.9 6480.6 7620.2 6573.3 7905.5Z"/>
</svg>
