<svg xmlns="http://www.w3.org/2000/svg" xmlns:xlink="http://www.w3.org/1999/xlink" xmlns:inkscape="http://www.inkscape.org/namespaces/inkscape" version="1.1" width="612" height="792" viewBox="0 0 612 792">
<path transform="matrix(.1,0,0,-.1,0,792)" d="M2975 2904.4 3333.5 3262.9H3840.5V3769.9L4199 4128.4 3840.5 4486.9V4993.9H3333.5L2975 5352.4 2616.5 4993.9H2109.5V4486.9L1751 4128.4 2109.5 3769.9V3262.9H2616.5" fill="#ff3333"/>
<path transform="matrix(.1,0,0,-.1,0,792)" stroke-width="1" stroke-linecap="butt" stroke-miterlimit="10" stroke-linejoin="miter" fill="none" stroke="#000000" d="M2975 2904.4 3333.5 3262.9H3840.5V3769.9L4199 4128.4 3840.5 4486.9V4993.9H3333.5L2975 5352.4 2616.5 4993.9H2109.5V4486.9L1751 4128.4 2109.5 3769.9V3262.9H2616.5Z"/>
<path transform="matrix(.1,0,0,-.1,0,792)" d="M3333.5 4993.9H3840.5V5203.9L3989 5352.4 3840.5 5500.9V5710.9H3333.5L2975 5352.4" fill="#b2b2b2"/>
<path transform="matrix(.1,0,0,-.1,0,792)" stroke-width="1" stroke-linecap="butt" stroke-miterlimit="10" stroke-linejoin="miter" fill="none" stroke="#000000" d="M3333.5 4993.9H3840.5V5203.9L3989 5352.4 3840.5 5500.9V5710.9H3333.5L2975 5352.4Z"/>
<path transform="matrix(.1,0,0,-.1,0,792)" d="M2616.5 4993.9 2975 5352.4 2616.5 5710.9H2109.5V5500.9L1961 5352.4 2109.5 5203.9V4993.9" fill="#b2b2b2"/>
<path transform="matrix(.1,0,0,-.1,0,792)" stroke-width="1" stroke-linecap="butt" stroke-miterlimit="10" stroke-linejoin="miter" fill="none" stroke="#000000" d="M2616.5 4993.9 2975 5352.4 2616.5 5710.9H2109.5V5500.9L1961 5352.4 2109.5 5203.9V4993.9Z"/>
<path transform="matrix(.1,0,0,-.1,0,792)" d="M2616.5 3262.9H2109.5V3052.9L1961 2904.4 2109.5 2755.9V2545.9H2616.5L2975 2904.4" fill="#b2b2b2"/>
<path transform="matrix(.1,0,0,-.1,0,792)" stroke-width="1" stroke-linecap="butt" stroke-miterlimit="10" stroke-linejoin="miter" fill="none" stroke="#000000" d="M2616.5 3262.9H2109.5V3052.9L1961 2904.4 2109.5 2755.9V2545.9H2616.5L2975 2904.4Z"/>
<path transform="matrix(.1,0,0,-.1,0,792)" d="M3333.5 3262.9 2975 2904.4 3333.5 2545.9H3840.5V2755.9L3989 2904.4 3840.5 3052.9V3262.9" fill="#b2b2b2"/>
<path transform="matrix(.1,0,0,-.1,0,792)" stroke-width="1" stroke-linecap="butt" stroke-miterlimit="10" stroke-linejoin="miter" fill="none" stroke="#000000" d="M3333.5 3262.9 2975 2904.4 3333.5 2545.9H3840.5V2755.9L3989 2904.4 3840.5 3052.9V3262.9Z"/>
<path transform="matrix(.1,0,0,-.1,0,792)" d="M2975 5352.4 3333.5 5710.9H3840.5V6217.8L4199 6576.3 3840.5 6934.8V7441.8H3333.5L2975 7800.3 2616.5 7441.8H2109.5V6934.8L1751 6576.3 2109.5 6217.8V5710.9H2616.5" fill="#ff3333"/>
<path transform="matrix(.1,0,0,-.1,0,792)" stroke-width="1" stroke-linecap="butt" stroke-miterlimit="10" stroke-linejoin="miter" fill="none" stroke="#000000" d="M2975 5352.4 3333.5 5710.9H3840.5V6217.8L4199 6576.3 3840.5 6934.8V7441.8H3333.5L2975 7800.3 2616.5 7441.8H2109.5V6934.8L1751 6576.3 2109.5 6217.8V5710.9H2616.5Z"/>
<path transform="matrix(.1,0,0,-.1,0,792)" d="M2109.5 5203.9 1961 5352.4 2109.5 5500.9V5710.9H1899.5L1751 5562.4 1602.5 5710.9H1392.5V5500.9L1541 5352.4 1392.5 5203.9V4993.9H1602.5L1751 5142.4 1899.5 4993.9H2109.5" fill="#800080"/>
<path transform="matrix(.1,0,0,-.1,0,792)" stroke-width="1" stroke-linecap="butt" stroke-miterlimit="10" stroke-linejoin="miter" fill="none" stroke="#000000" d="M2109.5 5203.9 1961 5352.4 2109.5 5500.9V5710.9H1899.5L1751 5562.4 1602.5 5710.9H1392.5V5500.9L1541 5352.4 1392.5 5203.9V4993.9H1602.5L1751 5142.4 1899.5 4993.9H2109.5Z"/>
<path transform="matrix(.1,0,0,-.1,0,792)" d="M2109.5 4993.9H1899.5L1751 5142.4 1602.5 4993.9H1392.5V4486.9L1751 4128.4 2109.5 4486.9" fill="#b2b2b2"/>
<path transform="matrix(.1,0,0,-.1,0,792)" stroke-width="1" stroke-linecap="butt" stroke-miterlimit="10" stroke-linejoin="miter" fill="none" stroke="#000000" d="M2109.5 4993.9H1899.5L1751 5142.4 1602.5 4993.9H1392.5V4486.9L1751 4128.4 2109.5 4486.9Z"/>
<path transform="matrix(.1,0,0,-.1,0,792)" d="M2109.5 3769.9 1751 4128.4 1392.5 3769.9V3262.9H1602.5L1751 3114.4 1899.5 3262.9H2109.5" fill="#b2b2b2"/>
<path transform="matrix(.1,0,0,-.1,0,792)" stroke-width="1" stroke-linecap="butt" stroke-miterlimit="10" stroke-linejoin="miter" fill="none" stroke="#000000" d="M2109.5 3769.9 1751 4128.4 1392.5 3769.9V3262.9H1602.5L1751 3114.4 1899.5 3262.9H2109.5Z"/>
<path transform="matrix(.1,0,0,-.1,0,792)" d="M2109.5 3262.9H1899.5L1751 3114.4 1602.5 3262.9H1392.5V3052.9L1541 2904.4 1392.5 2755.9V2545.9H1602.5L1751 2694.4 1899.5 2545.9H2109.5V2755.9L1961 2904.4 2109.5 3052.9" fill="#800080"/>
<path transform="matrix(.1,0,0,-.1,0,792)" stroke-width="1" stroke-linecap="butt" stroke-miterlimit="10" stroke-linejoin="miter" fill="none" stroke="#000000" d="M2109.5 3262.9H1899.5L1751 3114.4 1602.5 3262.9H1392.5V3052.9L1541 2904.4 1392.5 2755.9V2545.9H1602.5L1751 2694.4 1899.5 2545.9H2109.5V2755.9L1961 2904.4 2109.5 3052.9Z"/>
<path transform="matrix(.1,0,0,-.1,0,792)" d="M3840.5 3052.9 3989 2904.4 3840.5 2755.9V2545.9H4050.5L4199 2694.4 4347.5 2545.9H4557.5V2755.9L4409 2904.4 4557.5 3052.9V3262.9H4347.5L4199 3114.4 4050.5 3262.9H3840.5" fill="#800080"/>
<path transform="matrix(.1,0,0,-.1,0,792)" stroke-width="1" stroke-linecap="butt" stroke-miterlimit="10" stroke-linejoin="miter" fill="none" stroke="#000000" d="M3840.5 3052.9 3989 2904.4 3840.5 2755.9V2545.9H4050.5L4199 2694.4 4347.5 2545.9H4557.5V2755.9L4409 2904.4 4557.5 3052.9V3262.9H4347.5L4199 3114.4 4050.5 3262.9H3840.5Z"/>
<path transform="matrix(.1,0,0,-.1,0,792)" d="M3840.5 3262.9H4050.5L4199 3114.4 4347.5 3262.9H4557.5V3769.9L4199 4128.4 3840.5 3769.9" fill="#b2b2b2"/>
<path transform="matrix(.1,0,0,-.1,0,792)" stroke-width="1" stroke-linecap="butt" stroke-miterlimit="10" stroke-linejoin="miter" fill="none" stroke="#000000" d="M3840.5 3262.9H4050.5L4199 3114.4 4347.5 3262.9H4557.5V3769.9L4199 4128.4 3840.5 3769.9Z"/>
<path transform="matrix(.1,0,0,-.1,0,792)" d="M3840.5 4486.9 4199 4128.4 4557.5 4486.9V4993.9H4347.5L4199 5142.4 4050.5 4993.9H3840.5" fill="#b2b2b2"/>
<path transform="matrix(.1,0,0,-.1,0,792)" stroke-width="1" stroke-linecap="butt" stroke-miterlimit="10" stroke-linejoin="miter" fill="none" stroke="#000000" d="M3840.5 4486.9 4199 4128.4 4557.5 4486.9V4993.9H4347.5L4199 5142.4 4050.5 4993.9H3840.5Z"/>
<path transform="matrix(.1,0,0,-.1,0,792)" d="M3840.5 4993.9H4050.5L4199 5142.4 4347.5 4993.9H4557.5V5203.9L4409 5352.4 4557.5 5500.9V5710.9H4347.5L4199 5562.4 4050.5 5710.9H3840.5V5500.9L3989 5352.4 3840.5 5203.9" fill="#800080"/>
<path transform="matrix(.1,0,0,-.1,0,792)" stroke-width="1" stroke-linecap="butt" stroke-miterlimit="10" stroke-linejoin="miter" fill="none" stroke="#000000" d="M3840.5 4993.9H4050.5L4199 5142.4 4347.5 4993.9H4557.5V5203.9L4409 5352.4 4557.5 5500.9V5710.9H4347.5L4199 5562.4 4050.5 5710.9H3840.5V5500.9L3989 5352.4 3840.5 5203.9Z"/>
<path transform="matrix(.1,0,0,-.1,0,792)" d="M2975 2904.4 2616.5 2545.9H2109.5V2039L1751 1680.5 2109.5 1322V815H2616.5L2975 456.5 3333.5 815H3840.5V1322L4199 1680.5 3840.5 2039V2545.9H3333.5" fill="#ff3333"/>
<path transform="matrix(.1,0,0,-.1,0,792)" stroke-width="1" stroke-linecap="butt" stroke-miterlimit="10" stroke-linejoin="miter" fill="none" stroke="#000000" d="M2975 2904.4 2616.5 2545.9H2109.5V2039L1751 1680.5 2109.5 1322V815H2616.5L2975 456.5 3333.5 815H3840.5V1322L4199 1680.5 3840.5 2039V2545.9H3333.5Z"/>
<path transform="matrix(.1,0,0,-.1,0,792)" d="M4050.5 5710.9 4199 5562.4 4347.5 5710.9H4557.5V6217.8L4199 6576.3 3840.5 6217.8V5710.9" fill="#b2b2b2"/>
<path transform="matrix(.1,0,0,-.1,0,792)" stroke-width="1" stroke-linecap="butt" stroke-miterlimit="10" stroke-linejoin="miter" fill="none" stroke="#000000" d="M4050.5 5710.9 4199 5562.4 4347.5 5710.9H4557.5V6217.8L4199 6576.3 3840.5 6217.8V5710.9Z"/>
<path transform="matrix(.1,0,0,-.1,0,792)" d="M2109.5 5710.9V6217.8L1751 6576.3 1392.5 6217.8V5710.9H1602.5L1751 5562.4 1899.5 5710.9" fill="#b2b2b2"/>
<path transform="matrix(.1,0,0,-.1,0,792)" stroke-width="1" stroke-linecap="butt" stroke-miterlimit="10" stroke-linejoin="miter" fill="none" stroke="#000000" d="M2109.5 5710.9V6217.8L1751 6576.3 1392.5 6217.8V5710.9H1602.5L1751 5562.4 1899.5 5710.9Z"/>
<path transform="matrix(.1,0,0,-.1,0,792)" d="M1899.5 2545.9 1751 2694.4 1602.5 2545.9H1392.5V2039L1751 1680.5 2109.5 2039V2545.9" fill="#b2b2b2"/>
<path transform="matrix(.1,0,0,-.1,0,792)" stroke-width="1" stroke-linecap="butt" stroke-miterlimit="10" stroke-linejoin="miter" fill="none" stroke="#000000" d="M1899.5 2545.9 1751 2694.4 1602.5 2545.9H1392.5V2039L1751 1680.5 2109.5 2039V2545.9Z"/>
<path transform="matrix(.1,0,0,-.1,0,792)" d="M3840.5 2545.9V2039L4199 1680.5 4557.5 2039V2545.9H4347.5L4199 2694.4 4050.5 2545.9" fill="#b2b2b2"/>
<path transform="matrix(.1,0,0,-.1,0,792)" stroke-width="1" stroke-linecap="butt" stroke-miterlimit="10" stroke-linejoin="miter" fill="none" stroke="#000000" d="M3840.5 2545.9V2039L4199 1680.5 4557.5 2039V2545.9H4347.5L4199 2694.4 4050.5 2545.9Z"/>
<path transform="matrix(.1,0,0,-.1,0,792)" d="M4199 4128.4 4557.5 3769.9V3262.9H5064.4L5422.9 2904.4 5781.4 3262.9H6288.4V3769.9L6646.9 4128.4 6288.4 4486.9V4993.9H5781.4L5422.9 5352.4 5064.4 4993.9H4557.5V4486.9" fill="#ff3333"/>
<path transform="matrix(.1,0,0,-.1,0,792)" stroke-width="1" stroke-linecap="butt" stroke-miterlimit="10" stroke-linejoin="miter" fill="none" stroke="#000000" d="M4199 4128.4 4557.5 3769.9V3262.9H5064.4L5422.9 2904.4 5781.4 3262.9H6288.4V3769.9L6646.9 4128.4 6288.4 4486.9V4993.9H5781.4L5422.9 5352.4 5064.4 4993.9H4557.5V4486.9Z"/>
<path transform="matrix(.1,0,0,-.1,0,792)" d="M1751 4128.4 1392.5 4486.9V4993.9H885.602L527.102 5352.4 168.602 4993.9H-338.398V4486.9L-696.898 4128.4-338.398 3769.9V3262.9H168.602L527.102 2904.4 885.602 3262.9H1392.5V3769.9" fill="#ff3333"/>
<path transform="matrix(.1,0,0,-.1,0,792)" stroke-width="1" stroke-linecap="butt" stroke-miterlimit="10" stroke-linejoin="miter" fill="none" stroke="#000000" d="M1751 4128.4 1392.5 4486.9V4993.9H885.602L527.102 5352.4 168.602 4993.9H-338.398V4486.9L-696.898 4128.4-338.398 3769.9V3262.9H168.602L527.102 2904.4 885.602 3262.9H1392.5V3769.9Z"/>
<path transform="matrix(.1,0,0,-.1,0,792)" d="M1541 2904.4 1392.5 3052.9V3262.9H885.602L527.102 2904.4 885.602 2545.9H1392.5V2755.9" fill="#b2b2b2"/>
<path transform="matrix(.1,0,0,-.1,0,792)" stroke-width="1" stroke-linecap="butt" stroke-miterlimit="10" stroke-linejoin="miter" fill="none" stroke="#000000" d="M1541 2904.4 1392.5 3052.9V3262.9H885.602L527.102 2904.4 885.602 2545.9H1392.5V2755.9Z"/>
<path transform="matrix(.1,0,0,-.1,0,792)" d="M4409 2904.4 4557.5 2755.9V2545.9H5064.4L5422.9 2904.4 5064.4 3262.9H4557.5V3052.9" fill="#b2b2b2"/>
<path transform="matrix(.1,0,0,-.1,0,792)" stroke-width="1" stroke-linecap="butt" stroke-miterlimit="10" stroke-linejoin="miter" fill="none" stroke="#000000" d="M4409 2904.4 4557.5 2755.9V2545.9H5064.4L5422.9 2904.4 5064.4 3262.9H4557.5V3052.9Z"/>
<path transform="matrix(.1,0,0,-.1,0,792)" d="M4409 5352.4 4557.5 5203.9V4993.9H5064.4L5422.9 5352.4 5064.4 5710.9H4557.5V5500.9" fill="#b2b2b2"/>
<path transform="matrix(.1,0,0,-.1,0,792)" stroke-width="1" stroke-linecap="butt" stroke-miterlimit="10" stroke-linejoin="miter" fill="none" stroke="#000000" d="M4409 5352.4 4557.5 5203.9V4993.9H5064.4L5422.9 5352.4 5064.4 5710.9H4557.5V5500.9Z"/>
<path transform="matrix(.1,0,0,-.1,0,792)" d="M1541 5352.4 1392.5 5500.9V5710.9H885.602L527.102 5352.4 885.602 4993.9H1392.5V5203.9" fill="#b2b2b2"/>
<path transform="matrix(.1,0,0,-.1,0,792)" stroke-width="1" stroke-linecap="butt" stroke-miterlimit="10" stroke-linejoin="miter" fill="none" stroke="#000000" d="M1541 5352.4 1392.5 5500.9V5710.9H885.602L527.102 5352.4 885.602 4993.9H1392.5V5203.9Z"/>
<path transform="matrix(.1,0,0,-.1,0,792)" d="M1392.5 6217.8 1751 6576.3 1392.5 6934.8V7441.8H885.602L527.102 7800.3 168.602 7441.8H-338.398V6934.8L-696.898 6576.3-338.398 6217.8V5710.9H168.602L527.102 5352.4 885.602 5710.9H1392.5" fill="#ff3333"/>
<path transform="matrix(.1,0,0,-.1,0,792)" stroke-width="1" stroke-linecap="butt" stroke-miterlimit="10" stroke-linejoin="miter" fill="none" stroke="#000000" d="M1392.5 6217.8 1751 6576.3 1392.5 6934.8V7441.8H885.602L527.102 7800.3 168.602 7441.8H-338.398V6934.8L-696.898 6576.3-338.398 6217.8V5710.9H168.602L527.102 5352.4 885.602 5710.9H1392.5Z"/>
<path transform="matrix(.1,0,0,-.1,0,792)" d="M1392.5 2545.9H885.602L527.102 2904.4 168.602 2545.9H-338.398V2039L-696.898 1680.5-338.398 1322V815H168.602L527.102 456.5 885.602 815H1392.5V1322L1751 1680.5 1392.5 2039" fill="#ff3333"/>
<path transform="matrix(.1,0,0,-.1,0,792)" stroke-width="1" stroke-linecap="butt" stroke-miterlimit="10" stroke-linejoin="miter" fill="none" stroke="#000000" d="M1392.5 2545.9H885.602L527.102 2904.4 168.602 2545.9H-338.398V2039L-696.898 1680.5-338.398 1322V815H168.602L527.102 456.5 885.602 815H1392.5V1322L1751 1680.5 1392.5 2039Z"/>
<path transform="matrix(.1,0,0,-.1,0,792)" d="M4557.5 2039 4199 1680.5 4557.5 1322V815H5064.4L5422.9 456.5 5781.4 815H6288.4V1322L6646.9 1680.5 6288.4 2039V2545.9H5781.4L5422.9 2904.4 5064.4 2545.9H4557.5" fill="#ff3333"/>
<path transform="matrix(.1,0,0,-.1,0,792)" stroke-width="1" stroke-linecap="butt" stroke-miterlimit="10" stroke-linejoin="miter" fill="none" stroke="#000000" d="M4557.5 2039 4199 1680.5 4557.5 1322V815H5064.4L5422.9 456.5 5781.4 815H6288.4V1322L6646.9 1680.5 6288.4 2039V2545.9H5781.4L5422.9 2904.4 5064.4 2545.9H4557.5Z"/>
<path transform="matrix(.1,0,0,-.1,0,792)" d="M4557.5 5710.9H5064.4L5422.9 5352.4 5781.4 5710.9H6288.4V6217.8L6646.9 6576.3 6288.4 6934.8V7441.8H5781.4L5422.9 7800.3 5064.4 7441.8H4557.5V6934.8L4199 6576.3 4557.5 6217.8" fill="#ff3333"/>
<path transform="matrix(.1,0,0,-.1,0,792)" stroke-width="1" stroke-linecap="butt" stroke-miterlimit="10" stroke-linejoin="miter" fill="none" stroke="#000000" d="M4557.5 5710.9H5064.4L5422.9 5352.4 5781.4 5710.9H6288.4V6217.8L6646.9 6576.3 6288.4 6934.8V7441.8H5781.4L5422.9 7800.3 5064.4 7441.8H4557.5V6934.8L4199 6576.3 4557.5 6217.8Z"/>
<path transform="matrix(.1,0,0,-.1,0,792)" d="M4199 6576.3 4557.5 6934.8V7441.8H4347.5L4199 7590.3 4050.5 7441.8H3840.5V6934.8" fill="#b2b2b2"/>
<path transform="matrix(.1,0,0,-.1,0,792)" stroke-width="1" stroke-linecap="butt" stroke-miterlimit="10" stroke-linejoin="miter" fill="none" stroke="#000000" d="M4199 6576.3 4557.5 6934.8V7441.8H4347.5L4199 7590.3 4050.5 7441.8H3840.5V6934.8Z"/>
<path transform="matrix(.1,0,0,-.1,0,792)" d="M1751 6576.3 2109.5 6934.8V7441.8H1899.5L1751 7590.3 1602.5 7441.8H1392.5V6934.8" fill="#b2b2b2"/>
<path transform="matrix(.1,0,0,-.1,0,792)" stroke-width="1" stroke-linecap="butt" stroke-miterlimit="10" stroke-linejoin="miter" fill="none" stroke="#000000" d="M1751 6576.3 2109.5 6934.8V7441.8H1899.5L1751 7590.3 1602.5 7441.8H1392.5V6934.8Z"/>
<path transform="matrix(.1,0,0,-.1,0,792)" d="M1751 1680.5 1392.5 1322V815H1602.5L1751 666.5 1899.5 815H2109.5V1322" fill="#b2b2b2"/>
<path transform="matrix(.1,0,0,-.1,0,792)" stroke-width="1" stroke-linecap="butt" stroke-miterlimit="10" stroke-linejoin="miter" fill="none" stroke="#000000" d="M1751 1680.5 1392.5 1322V815H1602.5L1751 666.5 1899.5 815H2109.5V1322Z"/>
<path transform="matrix(.1,0,0,-.1,0,792)" d="M4199 1680.5 3840.5 1322V815H4050.5L4199 666.5 4347.5 815H4557.5V1322" fill="#b2b2b2"/>
<path transform="matrix(.1,0,0,-.1,0,792)" stroke-width="1" stroke-linecap="butt" stroke-miterlimit="10" stroke-linejoin="miter" fill="none" stroke="#000000" d="M4199 1680.5 3840.5 1322V815H4050.5L4199 666.5 4347.5 815H4557.5V1322Z"/>
<path transform="matrix(.1,0,0,-.1,0,792)" d="M5064.4 7441.8 5422.9 7800.3 5064.4 8158.8H4557.5V7948.8L4409 7800.3 4557.5 7651.8V7441.8" fill="#b2b2b2"/>
<path transform="matrix(.1,0,0,-.1,0,792)" stroke-width="1" stroke-linecap="butt" stroke-miterlimit="10" stroke-linejoin="miter" fill="none" stroke="#000000" d="M5064.4 7441.8 5422.9 7800.3 5064.4 8158.8H4557.5V7948.8L4409 7800.3 4557.5 7651.8V7441.8Z"/>
<path transform="matrix(.1,0,0,-.1,0,792)" d="M4557.5 7441.8V7651.8L4409 7800.3 4557.5 7948.8V8158.8H4347.5L4199 8010.3 4050.5 8158.8H3840.5V7948.8L3989 7800.3 3840.5 7651.8V7441.8H4050.5L4199 7590.3 4347.5 7441.8" fill="#800080"/>
<path transform="matrix(.1,0,0,-.1,0,792)" stroke-width="1" stroke-linecap="butt" stroke-miterlimit="10" stroke-linejoin="miter" fill="none" stroke="#000000" d="M4557.5 7441.8V7651.8L4409 7800.3 4557.5 7948.8V8158.8H4347.5L4199 8010.3 4050.5 8158.8H3840.5V7948.8L3989 7800.3 3840.5 7651.8V7441.8H4050.5L4199 7590.3 4347.5 7441.8Z"/>
<path transform="matrix(.1,0,0,-.1,0,792)" d="M3840.5 7441.8V7651.8L3989 7800.3 3840.5 7948.8V8158.8H3333.5L2975 7800.3 3333.5 7441.8" fill="#b2b2b2"/>
<path transform="matrix(.1,0,0,-.1,0,792)" stroke-width="1" stroke-linecap="butt" stroke-miterlimit="10" stroke-linejoin="miter" fill="none" stroke="#000000" d="M3840.5 7441.8V7651.8L3989 7800.3 3840.5 7948.8V8158.8H3333.5L2975 7800.3 3333.5 7441.8Z"/>
<path transform="matrix(.1,0,0,-.1,0,792)" d="M2616.5 7441.8 2975 7800.3 2616.5 8158.8H2109.5V7948.8L1961 7800.3 2109.5 7651.8V7441.8" fill="#b2b2b2"/>
<path transform="matrix(.1,0,0,-.1,0,792)" stroke-width="1" stroke-linecap="butt" stroke-miterlimit="10" stroke-linejoin="miter" fill="none" stroke="#000000" d="M2616.5 7441.8 2975 7800.3 2616.5 8158.8H2109.5V7948.8L1961 7800.3 2109.5 7651.8V7441.8Z"/>
<path transform="matrix(.1,0,0,-.1,0,792)" d="M2109.5 7441.8V7651.8L1961 7800.3 2109.5 7948.8V8158.8H1899.5L1751 8010.3 1602.5 8158.8H1392.5V7948.8L1541 7800.3 1392.5 7651.8V7441.8H1602.5L1751 7590.3 1899.5 7441.8" fill="#800080"/>
<path transform="matrix(.1,0,0,-.1,0,792)" stroke-width="1" stroke-linecap="butt" stroke-miterlimit="10" stroke-linejoin="miter" fill="none" stroke="#000000" d="M2109.5 7441.8V7651.8L1961 7800.3 2109.5 7948.8V8158.8H1899.5L1751 8010.3 1602.5 8158.8H1392.5V7948.8L1541 7800.3 1392.5 7651.8V7441.8H1602.5L1751 7590.3 1899.5 7441.8Z"/>
<path transform="matrix(.1,0,0,-.1,0,792)" d="M1392.5 7441.8V7651.8L1541 7800.3 1392.5 7948.8V8158.8H885.602L527.102 7800.3 885.602 7441.8" fill="#b2b2b2"/>
<path transform="matrix(.1,0,0,-.1,0,792)" stroke-width="1" stroke-linecap="butt" stroke-miterlimit="10" stroke-linejoin="miter" fill="none" stroke="#000000" d="M1392.5 7441.8V7651.8L1541 7800.3 1392.5 7948.8V8158.8H885.602L527.102 7800.3 885.602 7441.8Z"/>
<path transform="matrix(.1,0,0,-.1,0,792)" d="M527.102 5352.4 168.602 5710.9H-338.398V5500.9L-486.898 5352.4-338.398 5203.9V4993.9H168.602" fill="#b2b2b2"/>
<path transform="matrix(.1,0,0,-.1,0,792)" stroke-width="1" stroke-linecap="butt" stroke-miterlimit="10" stroke-linejoin="miter" fill="none" stroke="#000000" d="M527.102 5352.4 168.602 5710.9H-338.398V5500.9L-486.898 5352.4-338.398 5203.9V4993.9H168.602Z"/>
<path transform="matrix(.1,0,0,-.1,0,792)" d="M527.102 2904.4 168.602 3262.9H-338.398V3052.9L-486.898 2904.4-338.398 2755.9V2545.9H168.602" fill="#b2b2b2"/>
<path transform="matrix(.1,0,0,-.1,0,792)" stroke-width="1" stroke-linecap="butt" stroke-miterlimit="10" stroke-linejoin="miter" fill="none" stroke="#000000" d="M527.102 2904.4 168.602 3262.9H-338.398V3052.9L-486.898 2904.4-338.398 2755.9V2545.9H168.602Z"/>
<path transform="matrix(.1,0,0,-.1,0,792)" d="M5422.9 2904.4 5781.4 2545.9H6288.4V2755.9L6436.9 2904.4 6288.4 3052.9V3262.9H5781.4" fill="#b2b2b2"/>
<path transform="matrix(.1,0,0,-.1,0,792)" stroke-width="1" stroke-linecap="butt" stroke-miterlimit="10" stroke-linejoin="miter" fill="none" stroke="#000000" d="M5422.9 2904.4 5781.4 2545.9H6288.4V2755.9L6436.9 2904.4 6288.4 3052.9V3262.9H5781.4Z"/>
<path transform="matrix(.1,0,0,-.1,0,792)" d="M5422.9 5352.4 5781.4 4993.9H6288.4V5203.9L6436.9 5352.4 6288.4 5500.9V5710.9H5781.4" fill="#b2b2b2"/>
<path transform="matrix(.1,0,0,-.1,0,792)" stroke-width="1" stroke-linecap="butt" stroke-miterlimit="10" stroke-linejoin="miter" fill="none" stroke="#000000" d="M5422.9 5352.4 5781.4 4993.9H6288.4V5203.9L6436.9 5352.4 6288.4 5500.9V5710.9H5781.4Z"/>
<path transform="matrix(.1,0,0,-.1,0,792)" d="M885.602 815 527.102 456.5 885.602 98H1392.5V308L1541 456.5 1392.5 605V815" fill="#b2b2b2"/>
<path transform="matrix(.1,0,0,-.1,0,792)" stroke-width="1" stroke-linecap="butt" stroke-miterlimit="10" stroke-linejoin="miter" fill="none" stroke="#000000" d="M885.602 815 527.102 456.5 885.602 98H1392.5V308L1541 456.5 1392.5 605V815Z"/>
<path transform="matrix(.1,0,0,-.1,0,792)" d="M1392.5 815V605L1541 456.5 1392.5 308V98H1602.5L1751 246.5 1899.5 98H2109.5V308L1961 456.5 2109.5 605V815H1899.5L1751 666.5 1602.5 815" fill="#800080"/>
<path transform="matrix(.1,0,0,-.1,0,792)" stroke-width="1" stroke-linecap="butt" stroke-miterlimit="10" stroke-linejoin="miter" fill="none" stroke="#000000" d="M1392.5 815V605L1541 456.5 1392.5 308V98H1602.5L1751 246.5 1899.5 98H2109.5V308L1961 456.5 2109.5 605V815H1899.5L1751 666.5 1602.5 815Z"/>
<path transform="matrix(.1,0,0,-.1,0,792)" d="M2109.5 815V605L1961 456.5 2109.5 308V98H2616.5L2975 456.5 2616.5 815" fill="#b2b2b2"/>
<path transform="matrix(.1,0,0,-.1,0,792)" stroke-width="1" stroke-linecap="butt" stroke-miterlimit="10" stroke-linejoin="miter" fill="none" stroke="#000000" d="M2109.5 815V605L1961 456.5 2109.5 308V98H2616.5L2975 456.5 2616.5 815Z"/>
<path transform="matrix(.1,0,0,-.1,0,792)" d="M3333.5 815 2975 456.5 3333.5 98H3840.5V308L3989 456.5 3840.5 605V815" fill="#b2b2b2"/>
<path transform="matrix(.1,0,0,-.1,0,792)" stroke-width="1" stroke-linecap="butt" stroke-miterlimit="10" stroke-linejoin="miter" fill="none" stroke="#000000" d="M3333.5 815 2975 456.5 3333.5 98H3840.5V308L3989 456.5 3840.5 605V815Z"/>
<path transform="matrix(.1,0,0,-.1,0,792)" d="M3840.5 815V605L3989 456.5 3840.5 308V98H4050.5L4199 246.5 4347.5 98H4557.5V308L4409 456.5 4557.5 605V815H4347.5L4199 666.5 4050.5 815" fill="#800080"/>
<path transform="matrix(.1,0,0,-.1,0,792)" stroke-width="1" stroke-linecap="butt" stroke-miterlimit="10" stroke-linejoin="miter" fill="none" stroke="#000000" d="M3840.5 815V605L3989 456.5 3840.5 308V98H4050.5L4199 246.5 4347.5 98H4557.5V308L4409 456.5 4557.5 605V815H4347.5L4199 666.5 4050.5 815Z"/>
<path transform="matrix(.1,0,0,-.1,0,792)" d="M4557.5 815V605L4409 456.5 4557.5 308V98H5064.4L5422.9 456.5 5064.4 815" fill="#b2b2b2"/>
<path transform="matrix(.1,0,0,-.1,0,792)" stroke-width="1" stroke-linecap="butt" stroke-miterlimit="10" stroke-linejoin="miter" fill="none" stroke="#000000" d="M4557.5 815V605L4409 456.5 4557.5 308V98H5064.4L5422.9 456.5 5064.4 815Z"/>
<path transform="matrix(.1,0,0,-.1,0,792)" d="M5422.9 7800.3 5781.4 8158.8H6288.4V8665.8L6646.9 9024.3 6288.4 9382.8V9889.8H5781.4L5422.9 10248.3 5064.4 9889.8H4557.5V9382.8L4199 9024.3 4557.5 8665.8V8158.8H5064.4" fill="#ff3333"/>
<path transform="matrix(.1,0,0,-.1,0,792)" stroke-width="1" stroke-linecap="butt" stroke-miterlimit="10" stroke-linejoin="miter" fill="none" stroke="#000000" d="M5422.9 7800.3 5781.4 8158.8H6288.4V8665.8L6646.9 9024.3 6288.4 9382.8V9889.8H5781.4L5422.9 10248.3 5064.4 9889.8H4557.5V9382.8L4199 9024.3 4557.5 8665.8V8158.8H5064.4Z"/>
<path transform="matrix(.1,0,0,-.1,0,792)" d="M5422.9 7800.3 5781.4 7441.8H6288.4V7651.8L6436.9 7800.3 6288.4 7948.8V8158.8H5781.4" fill="#b2b2b2"/>
<path transform="matrix(.1,0,0,-.1,0,792)" stroke-width="1" stroke-linecap="butt" stroke-miterlimit="10" stroke-linejoin="miter" fill="none" stroke="#000000" d="M5422.9 7800.3 5781.4 7441.8H6288.4V7651.8L6436.9 7800.3 6288.4 7948.8V8158.8H5781.4Z"/>
<path transform="matrix(.1,0,0,-.1,0,792)" d="M2975 7800.3 3333.5 8158.8H3840.5V8665.8L4199 9024.3 3840.5 9382.8V9889.8H3333.5L2975 10248.3 2616.5 9889.8H2109.5V9382.8L1751 9024.3 2109.5 8665.8V8158.8H2616.5" fill="#ff3333"/>
<path transform="matrix(.1,0,0,-.1,0,792)" stroke-width="1" stroke-linecap="butt" stroke-miterlimit="10" stroke-linejoin="miter" fill="none" stroke="#000000" d="M2975 7800.3 3333.5 8158.8H3840.5V8665.8L4199 9024.3 3840.5 9382.8V9889.8H3333.5L2975 10248.3 2616.5 9889.8H2109.5V9382.8L1751 9024.3 2109.5 8665.8V8158.8H2616.5Z"/>
<path transform="matrix(.1,0,0,-.1,0,792)" d="M527.102 7800.3 168.602 8158.8H-338.398V7948.8L-486.898 7800.3-338.398 7651.8V7441.8H168.602" fill="#b2b2b2"/>
<path transform="matrix(.1,0,0,-.1,0,792)" stroke-width="1" stroke-linecap="butt" stroke-miterlimit="10" stroke-linejoin="miter" fill="none" stroke="#000000" d="M527.102 7800.3 168.602 8158.8H-338.398V7948.8L-486.898 7800.3-338.398 7651.8V7441.8H168.602Z"/>
<path transform="matrix(.1,0,0,-.1,0,792)" d="M527.102 7800.3 885.602 8158.8H1392.5V8665.8L1751 9024.3 1392.5 9382.8V9889.8H885.602L527.102 10248.3 168.602 9889.8H-338.398V9382.8L-696.898 9024.3-338.398 8665.8V8158.8H168.602" fill="#ff3333"/>
<path transform="matrix(.1,0,0,-.1,0,792)" stroke-width="1" stroke-linecap="butt" stroke-miterlimit="10" stroke-linejoin="miter" fill="none" stroke="#000000" d="M527.102 7800.3 885.602 8158.8H1392.5V8665.8L1751 9024.3 1392.5 9382.8V9889.8H885.602L527.102 10248.3 168.602 9889.8H-338.398V9382.8L-696.898 9024.3-338.398 8665.8V8158.8H168.602Z"/>
<path transform="matrix(.1,0,0,-.1,0,792)" d="M527.102 456.5 168.602 98H-338.398V-409L-696.898-767.5-338.398-1126V-1633H168.602L527.102-1991.4 885.602-1633H1392.5V-1126L1751-767.5 1392.5-409V98H885.602" fill="#ff3333"/>
<path transform="matrix(.1,0,0,-.1,0,792)" stroke-width="1" stroke-linecap="butt" stroke-miterlimit="10" stroke-linejoin="miter" fill="none" stroke="#000000" d="M527.102 456.5 168.602 98H-338.398V-409L-696.898-767.5-338.398-1126V-1633H168.602L527.102-1991.4 885.602-1633H1392.5V-1126L1751-767.5 1392.5-409V98H885.602Z"/>
<path transform="matrix(.1,0,0,-.1,0,792)" d="M527.102 456.5 168.602 815H-338.398V605L-486.898 456.5-338.398 308V98H168.602" fill="#b2b2b2"/>
<path transform="matrix(.1,0,0,-.1,0,792)" stroke-width="1" stroke-linecap="butt" stroke-miterlimit="10" stroke-linejoin="miter" fill="none" stroke="#000000" d="M527.102 456.5 168.602 815H-338.398V605L-486.898 456.5-338.398 308V98H168.602Z"/>
<path transform="matrix(.1,0,0,-.1,0,792)" d="M2975 456.5 2616.5 98H2109.5V-409L1751-767.5 2109.5-1126V-1633H2616.5L2975-1991.4 3333.5-1633H3840.5V-1126L4199-767.5 3840.5-409V98H3333.5" fill="#ff3333"/>
<path transform="matrix(.1,0,0,-.1,0,792)" stroke-width="1" stroke-linecap="butt" stroke-miterlimit="10" stroke-linejoin="miter" fill="none" stroke="#000000" d="M2975 456.5 2616.5 98H2109.5V-409L1751-767.5 2109.5-1126V-1633H2616.5L2975-1991.4 3333.5-1633H3840.5V-1126L4199-767.5 3840.5-409V98H3333.5Z"/>
<path transform="matrix(.1,0,0,-.1,0,792)" d="M5422.9 456.5 5781.4 98H6288.4V308L6436.9 456.5 6288.4 605V815H5781.4" fill="#b2b2b2"/>
<path transform="matrix(.1,0,0,-.1,0,792)" stroke-width="1" stroke-linecap="butt" stroke-miterlimit="10" stroke-linejoin="miter" fill="none" stroke="#000000" d="M5422.9 456.5 5781.4 98H6288.4V308L6436.9 456.5 6288.4 605V815H5781.4Z"/>
<path transform="matrix(.1,0,0,-.1,0,792)" d="M5422.9 456.5 5064.4 98H4557.5V-409L4199-767.5 4557.5-1126V-1633H5064.4L5422.9-1991.4 5781.4-1633H6288.4V-1126L6646.9-767.5 6288.4-409V98H5781.4" fill="#ff3333"/>
<path transform="matrix(.1,0,0,-.1,0,792)" stroke-width="1" stroke-linecap="butt" stroke-miterlimit="10" stroke-linejoin="miter" fill="none" stroke="#000000" d="M5422.9 456.5 5064.4 98H4557.5V-409L4199-767.5 4557.5-1126V-1633H5064.4L5422.9-1991.4 5781.4-1633H6288.4V-1126L6646.9-767.5 6288.4-409V98H5781.4Z"/>
<path transform="matrix(.1,0,0,-.1,0,792)" d="M1751 246.5 1602.5 98H1392.5V-409L1751-767.5 2109.5-409V98H1899.5" fill="#b2b2b2"/>
<path transform="matrix(.1,0,0,-.1,0,792)" stroke-width="1" stroke-linecap="butt" stroke-miterlimit="10" stroke-linejoin="miter" fill="none" stroke="#000000" d="M1751 246.5 1602.5 98H1392.5V-409L1751-767.5 2109.5-409V98H1899.5Z"/>
<path transform="matrix(.1,0,0,-.1,0,792)" d="M4199 246.5 4050.5 98H3840.5V-409L4199-767.5 4557.5-409V98H4347.5" fill="#b2b2b2"/>
<path transform="matrix(.1,0,0,-.1,0,792)" stroke-width="1" stroke-linecap="butt" stroke-miterlimit="10" stroke-linejoin="miter" fill="none" stroke="#000000" d="M4199 246.5 4050.5 98H3840.5V-409L4199-767.5 4557.5-409V98H4347.5Z"/>
</svg>
