<svg xmlns="http://www.w3.org/2000/svg" xmlns:xlink="http://www.w3.org/1999/xlink" xmlns:inkscape="http://www.inkscape.org/namespaces/inkscape" version="1.1" width="612" height="792" viewBox="0 0 612 792">
<path transform="matrix(.1,0,0,-.1,0,792)" d="M2188.7 4781.3V4481.3L2012.4 4238.6 2188.7 3995.9V3695.9L2474 3603.2 2650.4 3360.4 2935.7 3453.2 3221 3360.4 3397.3 3603.2 3682.7 3695.9V3995.9L3859 4238.6 3682.7 4481.3V4781.3L3397.3 4874 3221 5116.7 2935.7 5024 2650.4 5116.7 2474 4874" fill="#ffff66"/>
<path transform="matrix(.1,0,0,-.1,0,792)" stroke-width="1" stroke-linecap="butt" stroke-miterlimit="10" stroke-linejoin="miter" fill="none" stroke="#000000" d="M2188.7 4781.3V4481.3L2012.4 4238.6 2188.7 3995.9V3695.9L2474 3603.2 2650.4 3360.4 2935.7 3453.2 3221 3360.4 3397.3 3603.2 3682.7 3695.9V3995.9L3859 4238.6 3682.7 4481.3V4781.3L3397.3 4874 3221 5116.7 2935.7 5024 2650.4 5116.7 2474 4874Z"/>
<path transform="matrix(.1,0,0,-.1,0,792)" d="M3397.3 3603.2 3221 3360.4 3682.7 3210.4V3695.9Z"/>
<path transform="matrix(.1,0,0,-.1,0,792)" stroke-width="1" stroke-linecap="butt" stroke-miterlimit="10" stroke-linejoin="miter" fill="none" stroke="#000000" d="M3397.3 3603.2 3221 3360.4 3682.7 3210.4V3695.9Z"/>
<path transform="matrix(.1,0,0,-.1,0,792)" d="M3397.3 4874 3682.7 4781.3V5266.7L3221 5116.7Z"/>
<path transform="matrix(.1,0,0,-.1,0,792)" stroke-width="1" stroke-linecap="butt" stroke-miterlimit="10" stroke-linejoin="miter" fill="none" stroke="#000000" d="M3397.3 4874 3682.7 4781.3V5266.7L3221 5116.7Z"/>
<path transform="matrix(.1,0,0,-.1,0,792)" d="M2474 4874 2650.4 5116.7 2188.7 5266.7V4781.3Z"/>
<path transform="matrix(.1,0,0,-.1,0,792)" stroke-width="1" stroke-linecap="butt" stroke-miterlimit="10" stroke-linejoin="miter" fill="none" stroke="#000000" d="M2474 4874 2650.4 5116.7 2188.7 5266.7V4781.3Z"/>
<path transform="matrix(.1,0,0,-.1,0,792)" d="M2474 3603.2 2188.7 3695.9V3210.4L2650.4 3360.4Z"/>
<path transform="matrix(.1,0,0,-.1,0,792)" stroke-width="1" stroke-linecap="butt" stroke-miterlimit="10" stroke-linejoin="miter" fill="none" stroke="#000000" d="M2474 3603.2 2188.7 3695.9V3210.4L2650.4 3360.4Z"/>
<path transform="matrix(.1,0,0,-.1,0,792)" d="M2935.7 3453.2 2650.4 3360.4 2935.7 2967.7 3221 3360.4Z"/>
<path transform="matrix(.1,0,0,-.1,0,792)" stroke-width="1" stroke-linecap="butt" stroke-miterlimit="10" stroke-linejoin="miter" fill="none" stroke="#000000" d="M2935.7 3453.2 2650.4 3360.4 2935.7 2967.7 3221 3360.4Z"/>
<path transform="matrix(.1,0,0,-.1,0,792)" d="M2935.7 5024 3221 5116.7 2935.7 5509.4 2650.4 5116.7Z"/>
<path transform="matrix(.1,0,0,-.1,0,792)" stroke-width="1" stroke-linecap="butt" stroke-miterlimit="10" stroke-linejoin="miter" fill="none" stroke="#000000" d="M2935.7 5024 3221 5116.7 2935.7 5509.4 2650.4 5116.7Z"/>
<path transform="matrix(.1,0,0,-.1,0,792)" d="M2650.4 3360.4 2188.7 3210.4V2725L2650.4 2575 2935.7 2967.7" fill="#ffffff"/>
<path transform="matrix(.1,0,0,-.1,0,792)" stroke-width="1" stroke-linecap="butt" stroke-miterlimit="10" stroke-linejoin="miter" fill="none" stroke="#000000" d="M2650.4 3360.4 2188.7 3210.4V2725L2650.4 2575 2935.7 2967.7Z"/>
<path transform="matrix(.1,0,0,-.1,0,792)" d="M3221 3360.4 2935.7 2967.7 3221 2575 3682.7 2725V3210.4" fill="#ffffff"/>
<path transform="matrix(.1,0,0,-.1,0,792)" stroke-width="1" stroke-linecap="butt" stroke-miterlimit="10" stroke-linejoin="miter" fill="none" stroke="#000000" d="M3221 3360.4 2935.7 2967.7 3221 2575 3682.7 2725V3210.4Z"/>
<path transform="matrix(.1,0,0,-.1,0,792)" d="M3221 5116.7 3682.7 5266.7V5752.1L3221 5902.1 2935.7 5509.4" fill="#ffffff"/>
<path transform="matrix(.1,0,0,-.1,0,792)" stroke-width="1" stroke-linecap="butt" stroke-miterlimit="10" stroke-linejoin="miter" fill="none" stroke="#000000" d="M3221 5116.7 3682.7 5266.7V5752.1L3221 5902.1 2935.7 5509.4Z"/>
<path transform="matrix(.1,0,0,-.1,0,792)" d="M2650.4 5116.7 2935.7 5509.4 2650.4 5902.1 2188.7 5752.1V5266.7" fill="#ffffff"/>
<path transform="matrix(.1,0,0,-.1,0,792)" stroke-width="1" stroke-linecap="butt" stroke-miterlimit="10" stroke-linejoin="miter" fill="none" stroke="#000000" d="M2650.4 5116.7 2935.7 5509.4 2650.4 5902.1 2188.7 5752.1V5266.7Z"/>
<path transform="matrix(.1,0,0,-.1,0,792)" d="M2188.7 4781.3 1727.1 4631.3 2012.4 4238.6 2188.7 4481.3Z"/>
<path transform="matrix(.1,0,0,-.1,0,792)" stroke-width="1" stroke-linecap="butt" stroke-miterlimit="10" stroke-linejoin="miter" fill="none" stroke="#000000" d="M2188.7 4781.3 1727.1 4631.3 2012.4 4238.6 2188.7 4481.3Z"/>
<path transform="matrix(.1,0,0,-.1,0,792)" d="M2188.7 4781.3V5266.7L1854.7 5375.2 1520.6 5266.7V4915.4L1727.1 4631.3" fill="#ffffff"/>
<path transform="matrix(.1,0,0,-.1,0,792)" stroke-width="1" stroke-linecap="butt" stroke-miterlimit="10" stroke-linejoin="miter" fill="none" stroke="#000000" d="M2188.7 4781.3V5266.7L1854.7 5375.2 1520.6 5266.7V4915.4L1727.1 4631.3Z"/>
<path transform="matrix(.1,0,0,-.1,0,792)" d="M3682.7 3695.9 4144.3 3845.9 3859 4238.6 3682.7 3995.9Z"/>
<path transform="matrix(.1,0,0,-.1,0,792)" stroke-width="1" stroke-linecap="butt" stroke-miterlimit="10" stroke-linejoin="miter" fill="none" stroke="#000000" d="M3682.7 3695.9 4144.3 3845.9 3859 4238.6 3682.7 3995.9Z"/>
<path transform="matrix(.1,0,0,-.1,0,792)" d="M3682.7 3695.9V3210.4L4016.7 3101.9 4350.8 3210.4V3561.7L4144.3 3845.9" fill="#ffffff"/>
<path transform="matrix(.1,0,0,-.1,0,792)" stroke-width="1" stroke-linecap="butt" stroke-miterlimit="10" stroke-linejoin="miter" fill="none" stroke="#000000" d="M3682.7 3695.9V3210.4L4016.7 3101.9 4350.8 3210.4V3561.7L4144.3 3845.9Z"/>
<path transform="matrix(.1,0,0,-.1,0,792)" d="M3682.7 4481.3 3859 4238.6 4144.3 4631.3 3682.7 4781.3Z"/>
<path transform="matrix(.1,0,0,-.1,0,792)" stroke-width="1" stroke-linecap="butt" stroke-miterlimit="10" stroke-linejoin="miter" fill="none" stroke="#000000" d="M3682.7 4481.3 3859 4238.6 4144.3 4631.3 3682.7 4781.3Z"/>
<path transform="matrix(.1,0,0,-.1,0,792)" d="M3682.7 4781.3 4144.3 4631.3 4350.8 4915.4V5266.7L4016.7 5375.2 3682.7 5266.7" fill="#ffffff"/>
<path transform="matrix(.1,0,0,-.1,0,792)" stroke-width="1" stroke-linecap="butt" stroke-miterlimit="10" stroke-linejoin="miter" fill="none" stroke="#000000" d="M3682.7 4781.3 4144.3 4631.3 4350.8 4915.4V5266.7L4016.7 5375.2 3682.7 5266.7Z"/>
<path transform="matrix(.1,0,0,-.1,0,792)" d="M3682.7 3210.4V2725L4016.7 2833.6 4350.8 2725V3210.4L4016.7 3101.9"/>
<path transform="matrix(.1,0,0,-.1,0,792)" stroke-width="1" stroke-linecap="butt" stroke-miterlimit="10" stroke-linejoin="miter" fill="none" stroke="#000000" d="M3682.7 3210.4V2725L4016.7 2833.6 4350.8 2725V3210.4L4016.7 3101.9Z"/>
<path transform="matrix(.1,0,0,-.1,0,792)" d="M3682.7 5266.7 4016.7 5375.2 4350.8 5266.7V5752.1L4016.7 5643.5 3682.7 5752.1"/>
<path transform="matrix(.1,0,0,-.1,0,792)" stroke-width="1" stroke-linecap="butt" stroke-miterlimit="10" stroke-linejoin="miter" fill="none" stroke="#000000" d="M3682.7 5266.7 4016.7 5375.2 4350.8 5266.7V5752.1L4016.7 5643.5 3682.7 5752.1Z"/>
<path transform="matrix(.1,0,0,-.1,0,792)" d="M2188.7 5266.7V5752.1L1854.7 5643.5 1520.6 5752.1V5266.7L1854.7 5375.2"/>
<path transform="matrix(.1,0,0,-.1,0,792)" stroke-width="1" stroke-linecap="butt" stroke-miterlimit="10" stroke-linejoin="miter" fill="none" stroke="#000000" d="M2188.7 5266.7V5752.1L1854.7 5643.5 1520.6 5752.1V5266.7L1854.7 5375.2Z"/>
<path transform="matrix(.1,0,0,-.1,0,792)" d="M2188.7 3995.9 2012.4 4238.6 1727.1 3845.9 2188.7 3695.9Z"/>
<path transform="matrix(.1,0,0,-.1,0,792)" stroke-width="1" stroke-linecap="butt" stroke-miterlimit="10" stroke-linejoin="miter" fill="none" stroke="#000000" d="M2188.7 3995.9 2012.4 4238.6 1727.1 3845.9 2188.7 3695.9Z"/>
<path transform="matrix(.1,0,0,-.1,0,792)" d="M2188.7 3695.9 1727.1 3845.9 1520.6 3561.7V3210.4L1854.7 3101.9 2188.7 3210.4" fill="#ffffff"/>
<path transform="matrix(.1,0,0,-.1,0,792)" stroke-width="1" stroke-linecap="butt" stroke-miterlimit="10" stroke-linejoin="miter" fill="none" stroke="#000000" d="M2188.7 3695.9 1727.1 3845.9 1520.6 3561.7V3210.4L1854.7 3101.9 2188.7 3210.4Z"/>
<path transform="matrix(.1,0,0,-.1,0,792)" d="M2188.7 3210.4 1854.7 3101.9 1520.6 3210.4V2725L1854.7 2833.6 2188.7 2725"/>
<path transform="matrix(.1,0,0,-.1,0,792)" stroke-width="1" stroke-linecap="butt" stroke-miterlimit="10" stroke-linejoin="miter" fill="none" stroke="#000000" d="M2188.7 3210.4 1854.7 3101.9 1520.6 3210.4V2725L1854.7 2833.6 2188.7 2725Z"/>
<path transform="matrix(.1,0,0,-.1,0,792)" d="M3859 4238.6 4144.3 3845.9 4478.4 3954.4 4684.8 4238.6 4478.4 4522.7 4144.3 4631.3" fill="#ffffff"/>
<path transform="matrix(.1,0,0,-.1,0,792)" stroke-width="1" stroke-linecap="butt" stroke-miterlimit="10" stroke-linejoin="miter" fill="none" stroke="#000000" d="M3859 4238.6 4144.3 3845.9 4478.4 3954.4 4684.8 4238.6 4478.4 4522.7 4144.3 4631.3Z"/>
<path transform="matrix(.1,0,0,-.1,0,792)" d="M2935.7 2967.7 2650.4 2575 2935.7 2482.3 3221 2575Z"/>
<path transform="matrix(.1,0,0,-.1,0,792)" stroke-width="1" stroke-linecap="butt" stroke-miterlimit="10" stroke-linejoin="miter" fill="none" stroke="#000000" d="M2935.7 2967.7 2650.4 2575 2935.7 2482.3 3221 2575Z"/>
<path transform="matrix(.1,0,0,-.1,0,792)" d="M2935.7 5509.4 3221 5902.1 2935.7 5994.8 2650.4 5902.1Z"/>
<path transform="matrix(.1,0,0,-.1,0,792)" stroke-width="1" stroke-linecap="butt" stroke-miterlimit="10" stroke-linejoin="miter" fill="none" stroke="#000000" d="M2935.7 5509.4 3221 5902.1 2935.7 5994.8 2650.4 5902.1Z"/>
<path transform="matrix(.1,0,0,-.1,0,792)" d="M2012.4 4238.6 1727.1 4631.3 1393 4522.7 1186.6 4238.6 1393 3954.4 1727.1 3845.9" fill="#ffffff"/>
<path transform="matrix(.1,0,0,-.1,0,792)" stroke-width="1" stroke-linecap="butt" stroke-miterlimit="10" stroke-linejoin="miter" fill="none" stroke="#000000" d="M2012.4 4238.6 1727.1 4631.3 1393 4522.7 1186.6 4238.6 1393 3954.4 1727.1 3845.9Z"/>
<path transform="matrix(.1,0,0,-.1,0,792)" d="M4016.7 2833.6 3682.7 2725V2239.6L4144.3 2089.6 4350.8 2373.8V2725" fill="#ffffff"/>
<path transform="matrix(.1,0,0,-.1,0,792)" stroke-width="1" stroke-linecap="butt" stroke-miterlimit="10" stroke-linejoin="miter" fill="none" stroke="#000000" d="M4016.7 2833.6 3682.7 2725V2239.6L4144.3 2089.6 4350.8 2373.8V2725Z"/>
<path transform="matrix(.1,0,0,-.1,0,792)" d="M4016.7 5643.5 4350.8 5752.1V6103.3L4144.3 6387.5 3682.7 6237.5V5752.1" fill="#ffffff"/>
<path transform="matrix(.1,0,0,-.1,0,792)" stroke-width="1" stroke-linecap="butt" stroke-miterlimit="10" stroke-linejoin="miter" fill="none" stroke="#000000" d="M4016.7 5643.5 4350.8 5752.1V6103.3L4144.3 6387.5 3682.7 6237.5V5752.1Z"/>
<path transform="matrix(.1,0,0,-.1,0,792)" d="M2188.7 2725V2239.6L2474 2332.3 2650.4 2575Z"/>
<path transform="matrix(.1,0,0,-.1,0,792)" stroke-width="1" stroke-linecap="butt" stroke-miterlimit="10" stroke-linejoin="miter" fill="none" stroke="#000000" d="M2188.7 2725V2239.6L2474 2332.3 2650.4 2575Z"/>
<path transform="matrix(.1,0,0,-.1,0,792)" d="M2188.7 2725 1854.7 2833.6 1520.6 2725V2373.8L1727.1 2089.6 2188.7 2239.6" fill="#ffffff"/>
<path transform="matrix(.1,0,0,-.1,0,792)" stroke-width="1" stroke-linecap="butt" stroke-miterlimit="10" stroke-linejoin="miter" fill="none" stroke="#000000" d="M2188.7 2725 1854.7 2833.6 1520.6 2725V2373.8L1727.1 2089.6 2188.7 2239.6Z"/>
<path transform="matrix(.1,0,0,-.1,0,792)" d="M3682.7 2725 3221 2575 3397.3 2332.3 3682.7 2239.6Z"/>
<path transform="matrix(.1,0,0,-.1,0,792)" stroke-width="1" stroke-linecap="butt" stroke-miterlimit="10" stroke-linejoin="miter" fill="none" stroke="#000000" d="M3682.7 2725 3221 2575 3397.3 2332.3 3682.7 2239.6Z"/>
<path transform="matrix(.1,0,0,-.1,0,792)" d="M3682.7 5752.1V6237.5L3397.3 6144.8 3221 5902.1Z"/>
<path transform="matrix(.1,0,0,-.1,0,792)" stroke-width="1" stroke-linecap="butt" stroke-miterlimit="10" stroke-linejoin="miter" fill="none" stroke="#000000" d="M3682.7 5752.1V6237.5L3397.3 6144.8 3221 5902.1Z"/>
<path transform="matrix(.1,0,0,-.1,0,792)" d="M2188.7 5752.1V6237.5L1727.1 6387.5 1520.6 6103.3V5752.1L1854.7 5643.5" fill="#ffffff"/>
<path transform="matrix(.1,0,0,-.1,0,792)" stroke-width="1" stroke-linecap="butt" stroke-miterlimit="10" stroke-linejoin="miter" fill="none" stroke="#000000" d="M2188.7 5752.1V6237.5L1727.1 6387.5 1520.6 6103.3V5752.1L1854.7 5643.5Z"/>
<path transform="matrix(.1,0,0,-.1,0,792)" d="M2188.7 5752.1 2650.4 5902.1 2474 6144.8 2188.7 6237.5Z"/>
<path transform="matrix(.1,0,0,-.1,0,792)" stroke-width="1" stroke-linecap="butt" stroke-miterlimit="10" stroke-linejoin="miter" fill="none" stroke="#000000" d="M2188.7 5752.1 2650.4 5902.1 2474 6144.8 2188.7 6237.5Z"/>
<path transform="matrix(.1,0,0,-.1,0,792)" d="M4144.3 3845.9 4350.8 3561.7V3210.4L4684.8 3319 5018.9 3210.4V3561.7L5225.3 3845.9 4891.3 3954.4 4684.8 4238.6 4478.4 3954.4"/>
<path transform="matrix(.1,0,0,-.1,0,792)" stroke-width="1" stroke-linecap="butt" stroke-miterlimit="10" stroke-linejoin="miter" fill="none" stroke="#000000" d="M4144.3 3845.9 4350.8 3561.7V3210.4L4684.8 3319 5018.9 3210.4V3561.7L5225.3 3845.9 4891.3 3954.4 4684.8 4238.6 4478.4 3954.4Z"/>
<path transform="matrix(.1,0,0,-.1,0,792)" d="M4144.3 4631.3 4478.4 4522.7 4684.8 4238.6 4891.3 4522.7 5225.3 4631.3 5018.9 4915.4V5266.7L4684.8 5158.1 4350.8 5266.7V4915.4"/>
<path transform="matrix(.1,0,0,-.1,0,792)" stroke-width="1" stroke-linecap="butt" stroke-miterlimit="10" stroke-linejoin="miter" fill="none" stroke="#000000" d="M4144.3 4631.3 4478.4 4522.7 4684.8 4238.6 4891.3 4522.7 5225.3 4631.3 5018.9 4915.4V5266.7L4684.8 5158.1 4350.8 5266.7V4915.4Z"/>
<path transform="matrix(.1,0,0,-.1,0,792)" d="M2650.4 2575 2474 2332.3 2188.7 2239.6V1939.6L2012.4 1696.9 2188.7 1454.2V1154.2L2474 1061.5 2650.4 818.801 2935.7 911.5 3221 818.801 3397.3 1061.5 3682.7 1154.2V1454.2L3859 1696.9 3682.7 1939.6V2239.6L3397.3 2332.3 3221 2575 2935.7 2482.3" fill="#ffff66"/>
<path transform="matrix(.1,0,0,-.1,0,792)" stroke-width="1" stroke-linecap="butt" stroke-miterlimit="10" stroke-linejoin="miter" fill="none" stroke="#000000" d="M2650.4 2575 2474 2332.3 2188.7 2239.6V1939.6L2012.4 1696.9 2188.7 1454.2V1154.2L2474 1061.5 2650.4 818.801 2935.7 911.5 3221 818.801 3397.3 1061.5 3682.7 1154.2V1454.2L3859 1696.9 3682.7 1939.6V2239.6L3397.3 2332.3 3221 2575 2935.7 2482.3Z"/>
<path transform="matrix(.1,0,0,-.1,0,792)" d="M3221 5902.1 3397.3 6144.8 3682.7 6237.5V6537.5L3859 6780.2 3682.7 7022.9V7322.9L3397.3 7415.6 3221 7658.3 2935.7 7565.6 2650.4 7658.3 2474 7415.6 2188.7 7322.9V7022.9L2012.4 6780.2 2188.7 6537.5V6237.5L2474 6144.8 2650.4 5902.1 2935.7 5994.8" fill="#ffff66"/>
<path transform="matrix(.1,0,0,-.1,0,792)" stroke-width="1" stroke-linecap="butt" stroke-miterlimit="10" stroke-linejoin="miter" fill="none" stroke="#000000" d="M3221 5902.1 3397.3 6144.8 3682.7 6237.5V6537.5L3859 6780.2 3682.7 7022.9V7322.9L3397.3 7415.6 3221 7658.3 2935.7 7565.6 2650.4 7658.3 2474 7415.6 2188.7 7322.9V7022.9L2012.4 6780.2 2188.7 6537.5V6237.5L2474 6144.8 2650.4 5902.1 2935.7 5994.8Z"/>
<path transform="matrix(.1,0,0,-.1,0,792)" d="M1727.1 4631.3 1520.6 4915.4V5266.7L1186.6 5158.1 852.5 5266.7V4915.4L646 4631.3 980.102 4522.7 1186.6 4238.6 1393 4522.7"/>
<path transform="matrix(.1,0,0,-.1,0,792)" stroke-width="1" stroke-linecap="butt" stroke-miterlimit="10" stroke-linejoin="miter" fill="none" stroke="#000000" d="M1727.1 4631.3 1520.6 4915.4V5266.7L1186.6 5158.1 852.5 5266.7V4915.4L646 4631.3 980.102 4522.7 1186.6 4238.6 1393 4522.7Z"/>
<path transform="matrix(.1,0,0,-.1,0,792)" d="M1727.1 3845.9 1393 3954.4 1186.6 4238.6 980.102 3954.4 646 3845.9 852.5 3561.7V3210.4L1186.6 3319 1520.6 3210.4V3561.7"/>
<path transform="matrix(.1,0,0,-.1,0,792)" stroke-width="1" stroke-linecap="butt" stroke-miterlimit="10" stroke-linejoin="miter" fill="none" stroke="#000000" d="M1727.1 3845.9 1393 3954.4 1186.6 4238.6 980.102 3954.4 646 3845.9 852.5 3561.7V3210.4L1186.6 3319 1520.6 3210.4V3561.7Z"/>
<path transform="matrix(.1,0,0,-.1,0,792)" d="M4350.8 2373.8 4144.3 2089.6 4478.4 1981.1 4684.8 1696.9 4891.3 1981.1 5225.3 2089.6 5018.9 2373.8V2725L4684.8 2616.5 4350.8 2725"/>
<path transform="matrix(.1,0,0,-.1,0,792)" stroke-width="1" stroke-linecap="butt" stroke-miterlimit="10" stroke-linejoin="miter" fill="none" stroke="#000000" d="M4350.8 2373.8 4144.3 2089.6 4478.4 1981.1 4684.8 1696.9 4891.3 1981.1 5225.3 2089.6 5018.9 2373.8V2725L4684.8 2616.5 4350.8 2725Z"/>
<path transform="matrix(.1,0,0,-.1,0,792)" d="M4350.8 2725 4684.8 2616.5 5018.9 2725V3210.4L4684.8 3319 4350.8 3210.4" fill="#ffffff"/>
<path transform="matrix(.1,0,0,-.1,0,792)" stroke-width="1" stroke-linecap="butt" stroke-miterlimit="10" stroke-linejoin="miter" fill="none" stroke="#000000" d="M4350.8 2725 4684.8 2616.5 5018.9 2725V3210.4L4684.8 3319 4350.8 3210.4Z"/>
<path transform="matrix(.1,0,0,-.1,0,792)" d="M4350.8 5266.7 4684.8 5158.1 5018.9 5266.7V5752.1L4684.8 5860.6 4350.8 5752.1" fill="#ffffff"/>
<path transform="matrix(.1,0,0,-.1,0,792)" stroke-width="1" stroke-linecap="butt" stroke-miterlimit="10" stroke-linejoin="miter" fill="none" stroke="#000000" d="M4350.8 5266.7 4684.8 5158.1 5018.9 5266.7V5752.1L4684.8 5860.6 4350.8 5752.1Z"/>
<path transform="matrix(.1,0,0,-.1,0,792)" d="M4350.8 5752.1 4684.8 5860.6 5018.9 5752.1V6103.3L5225.3 6387.5 4891.3 6496 4684.8 6780.2 4478.4 6496 4144.3 6387.5 4350.8 6103.3"/>
<path transform="matrix(.1,0,0,-.1,0,792)" stroke-width="1" stroke-linecap="butt" stroke-miterlimit="10" stroke-linejoin="miter" fill="none" stroke="#000000" d="M4350.8 5752.1 4684.8 5860.6 5018.9 5752.1V6103.3L5225.3 6387.5 4891.3 6496 4684.8 6780.2 4478.4 6496 4144.3 6387.5 4350.8 6103.3Z"/>
<path transform="matrix(.1,0,0,-.1,0,792)" d="M2188.7 2239.6 1727.1 2089.6 2012.4 1696.9 2188.7 1939.6Z"/>
<path transform="matrix(.1,0,0,-.1,0,792)" stroke-width="1" stroke-linecap="butt" stroke-miterlimit="10" stroke-linejoin="miter" fill="none" stroke="#000000" d="M2188.7 2239.6 1727.1 2089.6 2012.4 1696.9 2188.7 1939.6Z"/>
<path transform="matrix(.1,0,0,-.1,0,792)" d="M3682.7 2239.6V1939.6L3859 1696.9 4144.3 2089.6Z"/>
<path transform="matrix(.1,0,0,-.1,0,792)" stroke-width="1" stroke-linecap="butt" stroke-miterlimit="10" stroke-linejoin="miter" fill="none" stroke="#000000" d="M3682.7 2239.6V1939.6L3859 1696.9 4144.3 2089.6Z"/>
<path transform="matrix(.1,0,0,-.1,0,792)" d="M1520.6 6103.3 1727.1 6387.5 1393 6496 1186.6 6780.2 980.102 6496 646 6387.5 852.5 6103.3V5752.1L1186.6 5860.6 1520.6 5752.1"/>
<path transform="matrix(.1,0,0,-.1,0,792)" stroke-width="1" stroke-linecap="butt" stroke-miterlimit="10" stroke-linejoin="miter" fill="none" stroke="#000000" d="M1520.6 6103.3 1727.1 6387.5 1393 6496 1186.6 6780.2 980.102 6496 646 6387.5 852.5 6103.3V5752.1L1186.6 5860.6 1520.6 5752.1Z"/>
<path transform="matrix(.1,0,0,-.1,0,792)" d="M1520.6 5752.1 1186.6 5860.6 852.5 5752.1V5266.7L1186.6 5158.1 1520.6 5266.7" fill="#ffffff"/>
<path transform="matrix(.1,0,0,-.1,0,792)" stroke-width="1" stroke-linecap="butt" stroke-miterlimit="10" stroke-linejoin="miter" fill="none" stroke="#000000" d="M1520.6 5752.1 1186.6 5860.6 852.5 5752.1V5266.7L1186.6 5158.1 1520.6 5266.7Z"/>
<path transform="matrix(.1,0,0,-.1,0,792)" d="M1520.6 3210.4 1186.6 3319 852.5 3210.4V2725L1186.6 2616.5 1520.6 2725" fill="#ffffff"/>
<path transform="matrix(.1,0,0,-.1,0,792)" stroke-width="1" stroke-linecap="butt" stroke-miterlimit="10" stroke-linejoin="miter" fill="none" stroke="#000000" d="M1520.6 3210.4 1186.6 3319 852.5 3210.4V2725L1186.6 2616.5 1520.6 2725Z"/>
<path transform="matrix(.1,0,0,-.1,0,792)" d="M1520.6 2725 1186.6 2616.5 852.5 2725V2373.8L646 2089.6 980.102 1981.1 1186.6 1696.9 1393 1981.1 1727.1 2089.6 1520.6 2373.8"/>
<path transform="matrix(.1,0,0,-.1,0,792)" stroke-width="1" stroke-linecap="butt" stroke-miterlimit="10" stroke-linejoin="miter" fill="none" stroke="#000000" d="M1520.6 2725 1186.6 2616.5 852.5 2725V2373.8L646 2089.6 980.102 1981.1 1186.6 1696.9 1393 1981.1 1727.1 2089.6 1520.6 2373.8Z"/>
<path transform="matrix(.1,0,0,-.1,0,792)" d="M3682.7 6237.5 4144.3 6387.5 3859 6780.2 3682.7 6537.5Z"/>
<path transform="matrix(.1,0,0,-.1,0,792)" stroke-width="1" stroke-linecap="butt" stroke-miterlimit="10" stroke-linejoin="miter" fill="none" stroke="#000000" d="M3682.7 6237.5 4144.3 6387.5 3859 6780.2 3682.7 6537.5Z"/>
<path transform="matrix(.1,0,0,-.1,0,792)" d="M2188.7 6237.5V6537.5L2012.4 6780.2 1727.1 6387.5Z"/>
<path transform="matrix(.1,0,0,-.1,0,792)" stroke-width="1" stroke-linecap="butt" stroke-miterlimit="10" stroke-linejoin="miter" fill="none" stroke="#000000" d="M2188.7 6237.5V6537.5L2012.4 6780.2 1727.1 6387.5Z"/>
<path transform="matrix(.1,0,0,-.1,0,792)" d="M1727.1 2089.6 1393 1981.1 1186.6 1696.9 1393 1412.8 1727.1 1304.2 2012.4 1696.9" fill="#ffffff"/>
<path transform="matrix(.1,0,0,-.1,0,792)" stroke-width="1" stroke-linecap="butt" stroke-miterlimit="10" stroke-linejoin="miter" fill="none" stroke="#000000" d="M1727.1 2089.6 1393 1981.1 1186.6 1696.9 1393 1412.8 1727.1 1304.2 2012.4 1696.9Z"/>
<path transform="matrix(.1,0,0,-.1,0,792)" d="M4144.3 2089.6 3859 1696.9 4144.3 1304.2 4478.4 1412.8 4684.8 1696.9 4478.4 1981.1" fill="#ffffff"/>
<path transform="matrix(.1,0,0,-.1,0,792)" stroke-width="1" stroke-linecap="butt" stroke-miterlimit="10" stroke-linejoin="miter" fill="none" stroke="#000000" d="M4144.3 2089.6 3859 1696.9 4144.3 1304.2 4478.4 1412.8 4684.8 1696.9 4478.4 1981.1Z"/>
<path transform="matrix(.1,0,0,-.1,0,792)" d="M4144.3 6387.5 4478.4 6496 4684.8 6780.2 4478.4 7064.4 4144.3 7172.9 3859 6780.2" fill="#ffffff"/>
<path transform="matrix(.1,0,0,-.1,0,792)" stroke-width="1" stroke-linecap="butt" stroke-miterlimit="10" stroke-linejoin="miter" fill="none" stroke="#000000" d="M4144.3 6387.5 4478.4 6496 4684.8 6780.2 4478.4 7064.4 4144.3 7172.9 3859 6780.2Z"/>
<path transform="matrix(.1,0,0,-.1,0,792)" d="M1727.1 6387.5 2012.4 6780.2 1727.1 7172.9 1393 7064.4 1186.6 6780.2 1393 6496" fill="#ffffff"/>
<path transform="matrix(.1,0,0,-.1,0,792)" stroke-width="1" stroke-linecap="butt" stroke-miterlimit="10" stroke-linejoin="miter" fill="none" stroke="#000000" d="M1727.1 6387.5 2012.4 6780.2 1727.1 7172.9 1393 7064.4 1186.6 6780.2 1393 6496Z"/>
<path transform="matrix(.1,0,0,-.1,0,792)" d="M4684.8 4238.6 4891.3 3954.4 5225.3 3845.9 5510.6 4238.6 5225.3 4631.3 4891.3 4522.7" fill="#ffffff"/>
<path transform="matrix(.1,0,0,-.1,0,792)" stroke-width="1" stroke-linecap="butt" stroke-miterlimit="10" stroke-linejoin="miter" fill="none" stroke="#000000" d="M4684.8 4238.6 4891.3 3954.4 5225.3 3845.9 5510.6 4238.6 5225.3 4631.3 4891.3 4522.7Z"/>
<path transform="matrix(.1,0,0,-.1,0,792)" d="M1186.6 4238.6 980.102 4522.7 646 4631.3 360.699 4238.6 646 3845.9 980.102 3954.4" fill="#ffffff"/>
<path transform="matrix(.1,0,0,-.1,0,792)" stroke-width="1" stroke-linecap="butt" stroke-miterlimit="10" stroke-linejoin="miter" fill="none" stroke="#000000" d="M1186.6 4238.6 980.102 4522.7 646 4631.3 360.699 4238.6 646 3845.9 980.102 3954.4Z"/>
<path transform="matrix(.1,0,0,-.1,0,792)" d="M1186.6 1696.9 980.102 1412.8 646 1304.2 852.5 1020.1V668.801L1186.6 777.301 1520.6 668.801V1020.1L1727.1 1304.2 1393 1412.8"/>
<path transform="matrix(.1,0,0,-.1,0,792)" stroke-width="1" stroke-linecap="butt" stroke-miterlimit="10" stroke-linejoin="miter" fill="none" stroke="#000000" d="M1186.6 1696.9 980.102 1412.8 646 1304.2 852.5 1020.1V668.801L1186.6 777.301 1520.6 668.801V1020.1L1727.1 1304.2 1393 1412.8Z"/>
<path transform="matrix(.1,0,0,-.1,0,792)" d="M1186.6 1696.9 980.102 1981.1 646 2089.6 360.699 1696.9 646 1304.2 980.102 1412.8" fill="#ffffff"/>
<path transform="matrix(.1,0,0,-.1,0,792)" stroke-width="1" stroke-linecap="butt" stroke-miterlimit="10" stroke-linejoin="miter" fill="none" stroke="#000000" d="M1186.6 1696.9 980.102 1981.1 646 2089.6 360.699 1696.9 646 1304.2 980.102 1412.8Z"/>
<path transform="matrix(.1,0,0,-.1,0,792)" d="M2012.4 1696.9 1727.1 1304.2 2188.7 1154.2V1454.2Z"/>
<path transform="matrix(.1,0,0,-.1,0,792)" stroke-width="1" stroke-linecap="butt" stroke-miterlimit="10" stroke-linejoin="miter" fill="none" stroke="#000000" d="M2012.4 1696.9 1727.1 1304.2 2188.7 1154.2V1454.2Z"/>
<path transform="matrix(.1,0,0,-.1,0,792)" d="M3859 1696.9 3682.7 1454.2V1154.2L4144.3 1304.2Z"/>
<path transform="matrix(.1,0,0,-.1,0,792)" stroke-width="1" stroke-linecap="butt" stroke-miterlimit="10" stroke-linejoin="miter" fill="none" stroke="#000000" d="M3859 1696.9 3682.7 1454.2V1154.2L4144.3 1304.2Z"/>
<path transform="matrix(.1,0,0,-.1,0,792)" d="M4684.8 1696.9 4891.3 1412.8 5225.3 1304.2 5510.6 1696.9 5225.3 2089.6 4891.3 1981.1" fill="#ffffff"/>
<path transform="matrix(.1,0,0,-.1,0,792)" stroke-width="1" stroke-linecap="butt" stroke-miterlimit="10" stroke-linejoin="miter" fill="none" stroke="#000000" d="M4684.8 1696.9 4891.3 1412.8 5225.3 1304.2 5510.6 1696.9 5225.3 2089.6 4891.3 1981.1Z"/>
<path transform="matrix(.1,0,0,-.1,0,792)" d="M4684.8 1696.9 4478.4 1412.8 4144.3 1304.2 4350.8 1020.1V668.801L4684.8 777.301 5018.9 668.801V1020.1L5225.3 1304.2 4891.3 1412.8"/>
<path transform="matrix(.1,0,0,-.1,0,792)" stroke-width="1" stroke-linecap="butt" stroke-miterlimit="10" stroke-linejoin="miter" fill="none" stroke="#000000" d="M4684.8 1696.9 4478.4 1412.8 4144.3 1304.2 4350.8 1020.1V668.801L4684.8 777.301 5018.9 668.801V1020.1L5225.3 1304.2 4891.3 1412.8Z"/>
<path transform="matrix(.1,0,0,-.1,0,792)" d="M4684.8 6780.2 4891.3 7064.4 5225.3 7172.9 5018.9 7457.1V7808.3L4684.8 7699.8 4350.8 7808.3V7457.1L4144.3 7172.9 4478.4 7064.4"/>
<path transform="matrix(.1,0,0,-.1,0,792)" stroke-width="1" stroke-linecap="butt" stroke-miterlimit="10" stroke-linejoin="miter" fill="none" stroke="#000000" d="M4684.8 6780.2 4891.3 7064.4 5225.3 7172.9 5018.9 7457.1V7808.3L4684.8 7699.8 4350.8 7808.3V7457.1L4144.3 7172.9 4478.4 7064.4Z"/>
<path transform="matrix(.1,0,0,-.1,0,792)" d="M4684.8 6780.2 4891.3 6496 5225.3 6387.5 5510.6 6780.2 5225.3 7172.9 4891.3 7064.4" fill="#ffffff"/>
<path transform="matrix(.1,0,0,-.1,0,792)" stroke-width="1" stroke-linecap="butt" stroke-miterlimit="10" stroke-linejoin="miter" fill="none" stroke="#000000" d="M4684.8 6780.2 4891.3 6496 5225.3 6387.5 5510.6 6780.2 5225.3 7172.9 4891.3 7064.4Z"/>
<path transform="matrix(.1,0,0,-.1,0,792)" d="M3859 6780.2 4144.3 7172.9 3682.7 7322.9V7022.9Z"/>
<path transform="matrix(.1,0,0,-.1,0,792)" stroke-width="1" stroke-linecap="butt" stroke-miterlimit="10" stroke-linejoin="miter" fill="none" stroke="#000000" d="M3859 6780.2 4144.3 7172.9 3682.7 7322.9V7022.9Z"/>
<path transform="matrix(.1,0,0,-.1,0,792)" d="M2012.4 6780.2 2188.7 7022.9V7322.9L1727.1 7172.9Z"/>
<path transform="matrix(.1,0,0,-.1,0,792)" stroke-width="1" stroke-linecap="butt" stroke-miterlimit="10" stroke-linejoin="miter" fill="none" stroke="#000000" d="M2012.4 6780.2 2188.7 7022.9V7322.9L1727.1 7172.9Z"/>
<path transform="matrix(.1,0,0,-.1,0,792)" d="M1186.6 6780.2 980.102 7064.4 646 7172.9 360.699 6780.2 646 6387.5 980.102 6496" fill="#ffffff"/>
<path transform="matrix(.1,0,0,-.1,0,792)" stroke-width="1" stroke-linecap="butt" stroke-miterlimit="10" stroke-linejoin="miter" fill="none" stroke="#000000" d="M1186.6 6780.2 980.102 7064.4 646 7172.9 360.699 6780.2 646 6387.5 980.102 6496Z"/>
<path transform="matrix(.1,0,0,-.1,0,792)" d="M1186.6 6780.2 1393 7064.4 1727.1 7172.9 1520.6 7457.1V7808.3L1186.6 7699.8 852.5 7808.3V7457.1L646 7172.9 980.102 7064.4"/>
<path transform="matrix(.1,0,0,-.1,0,792)" stroke-width="1" stroke-linecap="butt" stroke-miterlimit="10" stroke-linejoin="miter" fill="none" stroke="#000000" d="M1186.6 6780.2 1393 7064.4 1727.1 7172.9 1520.6 7457.1V7808.3L1186.6 7699.8 852.5 7808.3V7457.1L646 7172.9 980.102 7064.4Z"/>
<path transform="matrix(.1,0,0,-.1,0,792)" d="M5018.9 2373.8 5225.3 2089.6 5687 2239.6V2725L5352.9 2833.6 5018.9 2725" fill="#ffffff"/>
<path transform="matrix(.1,0,0,-.1,0,792)" stroke-width="1" stroke-linecap="butt" stroke-miterlimit="10" stroke-linejoin="miter" fill="none" stroke="#000000" d="M5018.9 2373.8 5225.3 2089.6 5687 2239.6V2725L5352.9 2833.6 5018.9 2725Z"/>
<path transform="matrix(.1,0,0,-.1,0,792)" d="M5018.9 2725 5352.9 2833.6 5687 2725V3210.4L5352.9 3101.9 5018.9 3210.4"/>
<path transform="matrix(.1,0,0,-.1,0,792)" stroke-width="1" stroke-linecap="butt" stroke-miterlimit="10" stroke-linejoin="miter" fill="none" stroke="#000000" d="M5018.9 2725 5352.9 2833.6 5687 2725V3210.4L5352.9 3101.9 5018.9 3210.4Z"/>
<path transform="matrix(.1,0,0,-.1,0,792)" d="M5018.9 3210.4 5352.9 3101.9 5687 3210.4V3695.9L5225.3 3845.9 5018.9 3561.7" fill="#ffffff"/>
<path transform="matrix(.1,0,0,-.1,0,792)" stroke-width="1" stroke-linecap="butt" stroke-miterlimit="10" stroke-linejoin="miter" fill="none" stroke="#000000" d="M5018.9 3210.4 5352.9 3101.9 5687 3210.4V3695.9L5225.3 3845.9 5018.9 3561.7Z"/>
<path transform="matrix(.1,0,0,-.1,0,792)" d="M5018.9 4915.4 5225.3 4631.3 5687 4781.3V5266.7L5352.9 5375.2 5018.9 5266.7" fill="#ffffff"/>
<path transform="matrix(.1,0,0,-.1,0,792)" stroke-width="1" stroke-linecap="butt" stroke-miterlimit="10" stroke-linejoin="miter" fill="none" stroke="#000000" d="M5018.9 4915.4 5225.3 4631.3 5687 4781.3V5266.7L5352.9 5375.2 5018.9 5266.7Z"/>
<path transform="matrix(.1,0,0,-.1,0,792)" d="M5018.9 5266.7 5352.9 5375.2 5687 5266.7V5752.1L5352.9 5643.5 5018.9 5752.1"/>
<path transform="matrix(.1,0,0,-.1,0,792)" stroke-width="1" stroke-linecap="butt" stroke-miterlimit="10" stroke-linejoin="miter" fill="none" stroke="#000000" d="M5018.9 5266.7 5352.9 5375.2 5687 5266.7V5752.1L5352.9 5643.5 5018.9 5752.1Z"/>
<path transform="matrix(.1,0,0,-.1,0,792)" d="M5018.9 5752.1 5352.9 5643.5 5687 5752.1V6237.5L5225.3 6387.5 5018.9 6103.3" fill="#ffffff"/>
<path transform="matrix(.1,0,0,-.1,0,792)" stroke-width="1" stroke-linecap="butt" stroke-miterlimit="10" stroke-linejoin="miter" fill="none" stroke="#000000" d="M5018.9 5752.1 5352.9 5643.5 5687 5752.1V6237.5L5225.3 6387.5 5018.9 6103.3Z"/>
<path transform="matrix(.1,0,0,-.1,0,792)" d="M1727.1 1304.2 1520.6 1020.1V668.801L1854.7 560.301 2188.7 668.801V1154.2" fill="#ffffff"/>
<path transform="matrix(.1,0,0,-.1,0,792)" stroke-width="1" stroke-linecap="butt" stroke-miterlimit="10" stroke-linejoin="miter" fill="none" stroke="#000000" d="M1727.1 1304.2 1520.6 1020.1V668.801L1854.7 560.301 2188.7 668.801V1154.2Z"/>
<path transform="matrix(.1,0,0,-.1,0,792)" d="M4144.3 1304.2 3682.7 1154.2V668.801L4016.7 560.301 4350.8 668.801V1020.1" fill="#ffffff"/>
<path transform="matrix(.1,0,0,-.1,0,792)" stroke-width="1" stroke-linecap="butt" stroke-miterlimit="10" stroke-linejoin="miter" fill="none" stroke="#000000" d="M4144.3 1304.2 3682.7 1154.2V668.801L4016.7 560.301 4350.8 668.801V1020.1Z"/>
<path transform="matrix(.1,0,0,-.1,0,792)" d="M852.5 6103.3 646 6387.5 184.398 6237.5V5752.1L518.398 5643.5 852.5 5752.1" fill="#ffffff"/>
<path transform="matrix(.1,0,0,-.1,0,792)" stroke-width="1" stroke-linecap="butt" stroke-miterlimit="10" stroke-linejoin="miter" fill="none" stroke="#000000" d="M852.5 6103.3 646 6387.5 184.398 6237.5V5752.1L518.398 5643.5 852.5 5752.1Z"/>
<path transform="matrix(.1,0,0,-.1,0,792)" d="M852.5 5752.1 518.398 5643.5 184.398 5752.1V5266.7L518.398 5375.2 852.5 5266.7"/>
<path transform="matrix(.1,0,0,-.1,0,792)" stroke-width="1" stroke-linecap="butt" stroke-miterlimit="10" stroke-linejoin="miter" fill="none" stroke="#000000" d="M852.5 5752.1 518.398 5643.5 184.398 5752.1V5266.7L518.398 5375.2 852.5 5266.7Z"/>
<path transform="matrix(.1,0,0,-.1,0,792)" d="M852.5 5266.7 518.398 5375.2 184.398 5266.7V4781.3L646 4631.3 852.5 4915.4" fill="#ffffff"/>
<path transform="matrix(.1,0,0,-.1,0,792)" stroke-width="1" stroke-linecap="butt" stroke-miterlimit="10" stroke-linejoin="miter" fill="none" stroke="#000000" d="M852.5 5266.7 518.398 5375.2 184.398 5266.7V4781.3L646 4631.3 852.5 4915.4Z"/>
<path transform="matrix(.1,0,0,-.1,0,792)" d="M852.5 3561.7 646 3845.9 184.398 3695.9V3210.4L518.398 3101.9 852.5 3210.4" fill="#ffffff"/>
<path transform="matrix(.1,0,0,-.1,0,792)" stroke-width="1" stroke-linecap="butt" stroke-miterlimit="10" stroke-linejoin="miter" fill="none" stroke="#000000" d="M852.5 3561.7 646 3845.9 184.398 3695.9V3210.4L518.398 3101.9 852.5 3210.4Z"/>
<path transform="matrix(.1,0,0,-.1,0,792)" d="M852.5 3210.4 518.398 3101.9 184.398 3210.4V2725L518.398 2833.6 852.5 2725"/>
<path transform="matrix(.1,0,0,-.1,0,792)" stroke-width="1" stroke-linecap="butt" stroke-miterlimit="10" stroke-linejoin="miter" fill="none" stroke="#000000" d="M852.5 3210.4 518.398 3101.9 184.398 3210.4V2725L518.398 2833.6 852.5 2725Z"/>
<path transform="matrix(.1,0,0,-.1,0,792)" d="M852.5 2725 518.398 2833.6 184.398 2725V2239.6L646 2089.6 852.5 2373.8" fill="#ffffff"/>
<path transform="matrix(.1,0,0,-.1,0,792)" stroke-width="1" stroke-linecap="butt" stroke-miterlimit="10" stroke-linejoin="miter" fill="none" stroke="#000000" d="M852.5 2725 518.398 2833.6 184.398 2725V2239.6L646 2089.6 852.5 2373.8Z"/>
<path transform="matrix(.1,0,0,-.1,0,792)" d="M4144.3 7172.9 4350.8 7457.1V7808.3L4016.7 7916.9 3682.7 7808.3V7322.9" fill="#ffffff"/>
<path transform="matrix(.1,0,0,-.1,0,792)" stroke-width="1" stroke-linecap="butt" stroke-miterlimit="10" stroke-linejoin="miter" fill="none" stroke="#000000" d="M4144.3 7172.9 4350.8 7457.1V7808.3L4016.7 7916.9 3682.7 7808.3V7322.9Z"/>
<path transform="matrix(.1,0,0,-.1,0,792)" d="M1727.1 7172.9 2188.7 7322.9V7808.3L1854.7 7916.9 1520.6 7808.3V7457.1" fill="#ffffff"/>
<path transform="matrix(.1,0,0,-.1,0,792)" stroke-width="1" stroke-linecap="butt" stroke-miterlimit="10" stroke-linejoin="miter" fill="none" stroke="#000000" d="M1727.1 7172.9 2188.7 7322.9V7808.3L1854.7 7916.9 1520.6 7808.3V7457.1Z"/>
<path transform="matrix(.1,0,0,-.1,0,792)" d="M2188.7 1154.2V668.801L2650.4 818.801 2474 1061.5Z"/>
<path transform="matrix(.1,0,0,-.1,0,792)" stroke-width="1" stroke-linecap="butt" stroke-miterlimit="10" stroke-linejoin="miter" fill="none" stroke="#000000" d="M2188.7 1154.2V668.801L2650.4 818.801 2474 1061.5Z"/>
<path transform="matrix(.1,0,0,-.1,0,792)" d="M3682.7 1154.2 3397.3 1061.5 3221 818.801 3682.7 668.801Z"/>
<path transform="matrix(.1,0,0,-.1,0,792)" stroke-width="1" stroke-linecap="butt" stroke-miterlimit="10" stroke-linejoin="miter" fill="none" stroke="#000000" d="M3682.7 1154.2 3397.3 1061.5 3221 818.801 3682.7 668.801Z"/>
<path transform="matrix(.1,0,0,-.1,0,792)" d="M5225.3 1304.2 5687 1154.2V1454.2L5510.6 1696.9Z"/>
<path transform="matrix(.1,0,0,-.1,0,792)" stroke-width="1" stroke-linecap="butt" stroke-miterlimit="10" stroke-linejoin="miter" fill="none" stroke="#000000" d="M5225.3 1304.2 5687 1154.2V1454.2L5510.6 1696.9Z"/>
<path transform="matrix(.1,0,0,-.1,0,792)" d="M5225.3 1304.2 5018.9 1020.1V668.801L5352.9 560.301 5687 668.801V1154.2" fill="#ffffff"/>
<path transform="matrix(.1,0,0,-.1,0,792)" stroke-width="1" stroke-linecap="butt" stroke-miterlimit="10" stroke-linejoin="miter" fill="none" stroke="#000000" d="M5225.3 1304.2 5018.9 1020.1V668.801L5352.9 560.301 5687 668.801V1154.2Z"/>
<path transform="matrix(.1,0,0,-.1,0,792)" d="M5225.3 2089.6 5510.6 1696.9 5687 1939.6V2239.6Z"/>
<path transform="matrix(.1,0,0,-.1,0,792)" stroke-width="1" stroke-linecap="butt" stroke-miterlimit="10" stroke-linejoin="miter" fill="none" stroke="#000000" d="M5225.3 2089.6 5510.6 1696.9 5687 1939.6V2239.6Z"/>
<path transform="matrix(.1,0,0,-.1,0,792)" d="M5225.3 3845.9 5687 3695.9V3995.9L5510.6 4238.6Z"/>
<path transform="matrix(.1,0,0,-.1,0,792)" stroke-width="1" stroke-linecap="butt" stroke-miterlimit="10" stroke-linejoin="miter" fill="none" stroke="#000000" d="M5225.3 3845.9 5687 3695.9V3995.9L5510.6 4238.6Z"/>
<path transform="matrix(.1,0,0,-.1,0,792)" d="M5225.3 4631.3 5510.6 4238.6 5687 4481.3V4781.3Z"/>
<path transform="matrix(.1,0,0,-.1,0,792)" stroke-width="1" stroke-linecap="butt" stroke-miterlimit="10" stroke-linejoin="miter" fill="none" stroke="#000000" d="M5225.3 4631.3 5510.6 4238.6 5687 4481.3V4781.3Z"/>
<path transform="matrix(.1,0,0,-.1,0,792)" d="M5225.3 6387.5 5687 6237.5V6537.5L5510.6 6780.2Z"/>
<path transform="matrix(.1,0,0,-.1,0,792)" stroke-width="1" stroke-linecap="butt" stroke-miterlimit="10" stroke-linejoin="miter" fill="none" stroke="#000000" d="M5225.3 6387.5 5687 6237.5V6537.5L5510.6 6780.2Z"/>
<path transform="matrix(.1,0,0,-.1,0,792)" d="M5225.3 7172.9 5687 7322.9V7808.3L5352.9 7916.9 5018.9 7808.3V7457.1" fill="#ffffff"/>
<path transform="matrix(.1,0,0,-.1,0,792)" stroke-width="1" stroke-linecap="butt" stroke-miterlimit="10" stroke-linejoin="miter" fill="none" stroke="#000000" d="M5225.3 7172.9 5687 7322.9V7808.3L5352.9 7916.9 5018.9 7808.3V7457.1Z"/>
<path transform="matrix(.1,0,0,-.1,0,792)" d="M5225.3 7172.9 5510.6 6780.2 5687 7022.9V7322.9Z"/>
<path transform="matrix(.1,0,0,-.1,0,792)" stroke-width="1" stroke-linecap="butt" stroke-miterlimit="10" stroke-linejoin="miter" fill="none" stroke="#000000" d="M5225.3 7172.9 5510.6 6780.2 5687 7022.9V7322.9Z"/>
<path transform="matrix(.1,0,0,-.1,0,792)" d="M3682.7 7322.9V7808.3L3221 7658.3 3397.3 7415.6Z"/>
<path transform="matrix(.1,0,0,-.1,0,792)" stroke-width="1" stroke-linecap="butt" stroke-miterlimit="10" stroke-linejoin="miter" fill="none" stroke="#000000" d="M3682.7 7322.9V7808.3L3221 7658.3 3397.3 7415.6Z"/>
<path transform="matrix(.1,0,0,-.1,0,792)" d="M2188.7 7322.9 2474 7415.6 2650.4 7658.3 2188.7 7808.3Z"/>
<path transform="matrix(.1,0,0,-.1,0,792)" stroke-width="1" stroke-linecap="butt" stroke-miterlimit="10" stroke-linejoin="miter" fill="none" stroke="#000000" d="M2188.7 7322.9 2474 7415.6 2650.4 7658.3 2188.7 7808.3Z"/>
<path transform="matrix(.1,0,0,-.1,0,792)" d="M852.5 1020.1 646 1304.2 184.398 1154.2V668.801L518.398 560.301 852.5 668.801" fill="#ffffff"/>
<path transform="matrix(.1,0,0,-.1,0,792)" stroke-width="1" stroke-linecap="butt" stroke-miterlimit="10" stroke-linejoin="miter" fill="none" stroke="#000000" d="M852.5 1020.1 646 1304.2 184.398 1154.2V668.801L518.398 560.301 852.5 668.801Z"/>
<path transform="matrix(.1,0,0,-.1,0,792)" d="M646 1304.2 360.699 1696.9 184.398 1454.2V1154.2Z"/>
<path transform="matrix(.1,0,0,-.1,0,792)" stroke-width="1" stroke-linecap="butt" stroke-miterlimit="10" stroke-linejoin="miter" fill="none" stroke="#000000" d="M646 1304.2 360.699 1696.9 184.398 1454.2V1154.2Z"/>
<path transform="matrix(.1,0,0,-.1,0,792)" d="M646 2089.6 184.398 2239.6V1939.6L360.699 1696.9Z"/>
<path transform="matrix(.1,0,0,-.1,0,792)" stroke-width="1" stroke-linecap="butt" stroke-miterlimit="10" stroke-linejoin="miter" fill="none" stroke="#000000" d="M646 2089.6 184.398 2239.6V1939.6L360.699 1696.9Z"/>
<path transform="matrix(.1,0,0,-.1,0,792)" d="M646 7172.9 184.398 7322.9V7022.9L360.699 6780.2Z"/>
<path transform="matrix(.1,0,0,-.1,0,792)" stroke-width="1" stroke-linecap="butt" stroke-miterlimit="10" stroke-linejoin="miter" fill="none" stroke="#000000" d="M646 7172.9 184.398 7322.9V7022.9L360.699 6780.2Z"/>
<path transform="matrix(.1,0,0,-.1,0,792)" d="M646 7172.9 852.5 7457.1V7808.3L518.398 7916.9 184.398 7808.3V7322.9" fill="#ffffff"/>
<path transform="matrix(.1,0,0,-.1,0,792)" stroke-width="1" stroke-linecap="butt" stroke-miterlimit="10" stroke-linejoin="miter" fill="none" stroke="#000000" d="M646 7172.9 852.5 7457.1V7808.3L518.398 7916.9 184.398 7808.3V7322.9Z"/>
<path transform="matrix(.1,0,0,-.1,0,792)" d="M646 6387.5 360.699 6780.2 184.398 6537.5V6237.5Z"/>
<path transform="matrix(.1,0,0,-.1,0,792)" stroke-width="1" stroke-linecap="butt" stroke-miterlimit="10" stroke-linejoin="miter" fill="none" stroke="#000000" d="M646 6387.5 360.699 6780.2 184.398 6537.5V6237.5Z"/>
<path transform="matrix(.1,0,0,-.1,0,792)" d="M646 4631.3 184.398 4781.3V4481.3L360.699 4238.6Z"/>
<path transform="matrix(.1,0,0,-.1,0,792)" stroke-width="1" stroke-linecap="butt" stroke-miterlimit="10" stroke-linejoin="miter" fill="none" stroke="#000000" d="M646 4631.3 184.398 4781.3V4481.3L360.699 4238.6Z"/>
<path transform="matrix(.1,0,0,-.1,0,792)" d="M646 3845.9 360.699 4238.6 184.398 3995.9V3695.9Z"/>
<path transform="matrix(.1,0,0,-.1,0,792)" stroke-width="1" stroke-linecap="butt" stroke-miterlimit="10" stroke-linejoin="miter" fill="none" stroke="#000000" d="M646 3845.9 360.699 4238.6 184.398 3995.9V3695.9Z"/>
<path transform="matrix(.1,0,0,-.1,0,792)" d="M2935.7 911.5 2650.4 818.801 2935.7 426.102 3221 818.801Z"/>
<path transform="matrix(.1,0,0,-.1,0,792)" stroke-width="1" stroke-linecap="butt" stroke-miterlimit="10" stroke-linejoin="miter" fill="none" stroke="#000000" d="M2935.7 911.5 2650.4 818.801 2935.7 426.102 3221 818.801Z"/>
<path transform="matrix(.1,0,0,-.1,0,792)" d="M2935.7 7565.6 3221 7658.3 2935.7 8051 2650.4 7658.3Z"/>
<path transform="matrix(.1,0,0,-.1,0,792)" stroke-width="1" stroke-linecap="butt" stroke-miterlimit="10" stroke-linejoin="miter" fill="none" stroke="#000000" d="M2935.7 7565.6 3221 7658.3 2935.7 8051 2650.4 7658.3Z"/>
<path transform="matrix(.1,0,0,-.1,0,792)" d="M2650.4 818.801 2188.7 668.801V183.398L2650.4 33.3984 2935.7 426.102" fill="#ffffff"/>
<path transform="matrix(.1,0,0,-.1,0,792)" stroke-width="1" stroke-linecap="butt" stroke-miterlimit="10" stroke-linejoin="miter" fill="none" stroke="#000000" d="M2650.4 818.801 2188.7 668.801V183.398L2650.4 33.3984 2935.7 426.102Z"/>
<path transform="matrix(.1,0,0,-.1,0,792)" d="M3221 818.801 2935.7 426.102 3221 33.3984 3682.7 183.398V668.801" fill="#ffffff"/>
<path transform="matrix(.1,0,0,-.1,0,792)" stroke-width="1" stroke-linecap="butt" stroke-miterlimit="10" stroke-linejoin="miter" fill="none" stroke="#000000" d="M3221 818.801 2935.7 426.102 3221 33.3984 3682.7 183.398V668.801Z"/>
<path transform="matrix(.1,0,0,-.1,0,792)" d="M4684.8 777.301 4350.8 668.801V183.398L4684.8 74.8984 5018.9 183.398V668.801" fill="#ffffff"/>
<path transform="matrix(.1,0,0,-.1,0,792)" stroke-width="1" stroke-linecap="butt" stroke-miterlimit="10" stroke-linejoin="miter" fill="none" stroke="#000000" d="M4684.8 777.301 4350.8 668.801V183.398L4684.8 74.8984 5018.9 183.398V668.801Z"/>
<path transform="matrix(.1,0,0,-.1,0,792)" d="M1186.6 777.301 852.5 668.801V183.398L1186.6 74.8984 1520.6 183.398V668.801" fill="#ffffff"/>
<path transform="matrix(.1,0,0,-.1,0,792)" stroke-width="1" stroke-linecap="butt" stroke-miterlimit="10" stroke-linejoin="miter" fill="none" stroke="#000000" d="M1186.6 777.301 852.5 668.801V183.398L1186.6 74.8984 1520.6 183.398V668.801Z"/>
<path transform="matrix(.1,0,0,-.1,0,792)" d="M3221 7658.3 3682.7 7808.3V8293.7L3221 8443.7 2935.7 8051" fill="#ffffff"/>
<path transform="matrix(.1,0,0,-.1,0,792)" stroke-width="1" stroke-linecap="butt" stroke-miterlimit="10" stroke-linejoin="miter" fill="none" stroke="#000000" d="M3221 7658.3 3682.7 7808.3V8293.7L3221 8443.7 2935.7 8051Z"/>
<path transform="matrix(.1,0,0,-.1,0,792)" d="M2650.4 7658.3 2935.7 8051 2650.4 8443.7 2188.7 8293.7V7808.3" fill="#ffffff"/>
<path transform="matrix(.1,0,0,-.1,0,792)" stroke-width="1" stroke-linecap="butt" stroke-miterlimit="10" stroke-linejoin="miter" fill="none" stroke="#000000" d="M2650.4 7658.3 2935.7 8051 2650.4 8443.7 2188.7 8293.7V7808.3Z"/>
<path transform="matrix(.1,0,0,-.1,0,792)" d="M1186.6 7699.8 1520.6 7808.3V8293.7L1186.6 8402.3 852.5 8293.7V7808.3" fill="#ffffff"/>
<path transform="matrix(.1,0,0,-.1,0,792)" stroke-width="1" stroke-linecap="butt" stroke-miterlimit="10" stroke-linejoin="miter" fill="none" stroke="#000000" d="M1186.6 7699.8 1520.6 7808.3V8293.7L1186.6 8402.3 852.5 8293.7V7808.3Z"/>
<path transform="matrix(.1,0,0,-.1,0,792)" d="M4684.8 7699.8 5018.9 7808.3V8293.7L4684.8 8402.3 4350.8 8293.7V7808.3" fill="#ffffff"/>
<path transform="matrix(.1,0,0,-.1,0,792)" stroke-width="1" stroke-linecap="butt" stroke-miterlimit="10" stroke-linejoin="miter" fill="none" stroke="#000000" d="M4684.8 7699.8 5018.9 7808.3V8293.7L4684.8 8402.3 4350.8 8293.7V7808.3Z"/>
<path transform="matrix(.1,0,0,-.1,0,792)" d="M5510.6 1696.9 5687 1454.2V1154.2L5972.3 1061.5 6148.6 818.801 6434 911.5 6719.3 818.801 6895.6 1061.5 7180.9 1154.2V1454.2L7357.3 1696.9 7180.9 1939.6V2239.6L6895.6 2332.3 6719.3 2575 6434 2482.3 6148.6 2575 5972.3 2332.3 5687 2239.6V1939.6" fill="#ffff66"/>
<path transform="matrix(.1,0,0,-.1,0,792)" stroke-width="1" stroke-linecap="butt" stroke-miterlimit="10" stroke-linejoin="miter" fill="none" stroke="#000000" d="M5510.6 1696.9 5687 1454.2V1154.2L5972.3 1061.5 6148.6 818.801 6434 911.5 6719.3 818.801 6895.6 1061.5 7180.9 1154.2V1454.2L7357.3 1696.9 7180.9 1939.6V2239.6L6895.6 2332.3 6719.3 2575 6434 2482.3 6148.6 2575 5972.3 2332.3 5687 2239.6V1939.6Z"/>
<path transform="matrix(.1,0,0,-.1,0,792)" d="M5510.6 4238.6 5687 3995.9V3695.9L5972.3 3603.2 6148.6 3360.4 6434 3453.2 6719.3 3360.4 6895.6 3603.2 7180.9 3695.9V3995.9L7357.3 4238.6 7180.9 4481.3V4781.3L6895.6 4874 6719.3 5116.7 6434 5024 6148.6 5116.7 5972.3 4874 5687 4781.3V4481.3" fill="#ffff66"/>
<path transform="matrix(.1,0,0,-.1,0,792)" stroke-width="1" stroke-linecap="butt" stroke-miterlimit="10" stroke-linejoin="miter" fill="none" stroke="#000000" d="M5510.6 4238.6 5687 3995.9V3695.9L5972.3 3603.2 6148.6 3360.4 6434 3453.2 6719.3 3360.4 6895.6 3603.2 7180.9 3695.9V3995.9L7357.3 4238.6 7180.9 4481.3V4781.3L6895.6 4874 6719.3 5116.7 6434 5024 6148.6 5116.7 5972.3 4874 5687 4781.3V4481.3Z"/>
<path transform="matrix(.1,0,0,-.1,0,792)" d="M5510.6 6780.2 5687 6537.5V6237.5L5972.3 6144.8 6148.6 5902.1 6434 5994.8 6719.3 5902.1 6895.6 6144.8 7180.9 6237.5V6537.5L7357.3 6780.2 7180.9 7022.9V7322.9L6895.6 7415.6 6719.3 7658.3 6434 7565.6 6148.6 7658.3 5972.3 7415.6 5687 7322.9V7022.9" fill="#ffff66"/>
<path transform="matrix(.1,0,0,-.1,0,792)" stroke-width="1" stroke-linecap="butt" stroke-miterlimit="10" stroke-linejoin="miter" fill="none" stroke="#000000" d="M5510.6 6780.2 5687 6537.5V6237.5L5972.3 6144.8 6148.6 5902.1 6434 5994.8 6719.3 5902.1 6895.6 6144.8 7180.9 6237.5V6537.5L7357.3 6780.2 7180.9 7022.9V7322.9L6895.6 7415.6 6719.3 7658.3 6434 7565.6 6148.6 7658.3 5972.3 7415.6 5687 7322.9V7022.9Z"/>
<path transform="matrix(.1,0,0,-.1,0,792)" d="M852.5 668.801 518.398 560.301 184.398 668.801V183.398L518.398 291.898 852.5 183.398"/>
<path transform="matrix(.1,0,0,-.1,0,792)" stroke-width="1" stroke-linecap="butt" stroke-miterlimit="10" stroke-linejoin="miter" fill="none" stroke="#000000" d="M852.5 668.801 518.398 560.301 184.398 668.801V183.398L518.398 291.898 852.5 183.398Z"/>
<path transform="matrix(.1,0,0,-.1,0,792)" d="M1520.6 668.801V183.398L1854.7 291.898 2188.7 183.398V668.801L1854.7 560.301"/>
<path transform="matrix(.1,0,0,-.1,0,792)" stroke-width="1" stroke-linecap="butt" stroke-miterlimit="10" stroke-linejoin="miter" fill="none" stroke="#000000" d="M1520.6 668.801V183.398L1854.7 291.898 2188.7 183.398V668.801L1854.7 560.301Z"/>
<path transform="matrix(.1,0,0,-.1,0,792)" d="M3682.7 668.801V183.398L4016.7 291.898 4350.8 183.398V668.801L4016.7 560.301"/>
<path transform="matrix(.1,0,0,-.1,0,792)" stroke-width="1" stroke-linecap="butt" stroke-miterlimit="10" stroke-linejoin="miter" fill="none" stroke="#000000" d="M3682.7 668.801V183.398L4016.7 291.898 4350.8 183.398V668.801L4016.7 560.301Z"/>
<path transform="matrix(.1,0,0,-.1,0,792)" d="M5018.9 668.801V183.398L5352.9 291.898 5687 183.398V668.801L5352.9 560.301"/>
<path transform="matrix(.1,0,0,-.1,0,792)" stroke-width="1" stroke-linecap="butt" stroke-miterlimit="10" stroke-linejoin="miter" fill="none" stroke="#000000" d="M5018.9 668.801V183.398L5352.9 291.898 5687 183.398V668.801L5352.9 560.301Z"/>
<path transform="matrix(.1,0,0,-.1,0,792)" d="M5018.9 7808.3 5352.9 7916.9 5687 7808.3V8293.7L5352.9 8185.2 5018.9 8293.7"/>
<path transform="matrix(.1,0,0,-.1,0,792)" stroke-width="1" stroke-linecap="butt" stroke-miterlimit="10" stroke-linejoin="miter" fill="none" stroke="#000000" d="M5018.9 7808.3 5352.9 7916.9 5687 7808.3V8293.7L5352.9 8185.2 5018.9 8293.7Z"/>
<path transform="matrix(.1,0,0,-.1,0,792)" d="M4350.8 7808.3V8293.7L4016.7 8185.2 3682.7 8293.7V7808.3L4016.7 7916.9"/>
<path transform="matrix(.1,0,0,-.1,0,792)" stroke-width="1" stroke-linecap="butt" stroke-miterlimit="10" stroke-linejoin="miter" fill="none" stroke="#000000" d="M4350.8 7808.3V8293.7L4016.7 8185.2 3682.7 8293.7V7808.3L4016.7 7916.9Z"/>
<path transform="matrix(.1,0,0,-.1,0,792)" d="M2188.7 7808.3V8293.7L1854.7 8185.2 1520.6 8293.7V7808.3L1854.7 7916.9"/>
<path transform="matrix(.1,0,0,-.1,0,792)" stroke-width="1" stroke-linecap="butt" stroke-miterlimit="10" stroke-linejoin="miter" fill="none" stroke="#000000" d="M2188.7 7808.3V8293.7L1854.7 8185.2 1520.6 8293.7V7808.3L1854.7 7916.9Z"/>
<path transform="matrix(.1,0,0,-.1,0,792)" d="M852.5 7808.3V8293.7L518.398 8185.2 184.398 8293.7V7808.3L518.398 7916.9"/>
<path transform="matrix(.1,0,0,-.1,0,792)" stroke-width="1" stroke-linecap="butt" stroke-miterlimit="10" stroke-linejoin="miter" fill="none" stroke="#000000" d="M852.5 7808.3V8293.7L518.398 8185.2 184.398 8293.7V7808.3L518.398 7916.9Z"/>
<path transform="matrix(.1,0,0,-.1,0,792)" d="M360.699 6780.2 184.398 7022.9V7322.9L-100.898 7415.6-277.301 7658.3-562.602 7565.6-847.898 7658.3-1024.2 7415.6-1309.6 7322.9V7022.9L-1485.9 6780.2-1309.6 6537.5V6237.5L-1024.2 6144.8-847.898 5902.1-562.602 5994.8-277.301 5902.1-100.898 6144.8 184.398 6237.5V6537.5" fill="#ffff66"/>
<path transform="matrix(.1,0,0,-.1,0,792)" stroke-width="1" stroke-linecap="butt" stroke-miterlimit="10" stroke-linejoin="miter" fill="none" stroke="#000000" d="M360.699 6780.2 184.398 7022.9V7322.9L-100.898 7415.6-277.301 7658.3-562.602 7565.6-847.898 7658.3-1024.2 7415.6-1309.6 7322.9V7022.9L-1485.9 6780.2-1309.6 6537.5V6237.5L-1024.2 6144.8-847.898 5902.1-562.602 5994.8-277.301 5902.1-100.898 6144.8 184.398 6237.5V6537.5Z"/>
<path transform="matrix(.1,0,0,-.1,0,792)" d="M360.699 4238.6 184.398 4481.3V4781.3L-100.898 4874-277.301 5116.7-562.602 5024-847.898 5116.7-1024.2 4874-1309.6 4781.3V4481.3L-1485.9 4238.6-1309.6 3995.9V3695.9L-1024.2 3603.2-847.898 3360.4-562.602 3453.2-277.301 3360.4-100.898 3603.2 184.398 3695.9V3995.9" fill="#ffff66"/>
<path transform="matrix(.1,0,0,-.1,0,792)" stroke-width="1" stroke-linecap="butt" stroke-miterlimit="10" stroke-linejoin="miter" fill="none" stroke="#000000" d="M360.699 4238.6 184.398 4481.3V4781.3L-100.898 4874-277.301 5116.7-562.602 5024-847.898 5116.7-1024.2 4874-1309.6 4781.3V4481.3L-1485.9 4238.6-1309.6 3995.9V3695.9L-1024.2 3603.2-847.898 3360.4-562.602 3453.2-277.301 3360.4-100.898 3603.2 184.398 3695.9V3995.9Z"/>
<path transform="matrix(.1,0,0,-.1,0,792)" d="M360.699 1696.9 184.398 1939.6V2239.6L-100.898 2332.3-277.301 2575-562.602 2482.3-847.898 2575-1024.2 2332.3-1309.6 2239.6V1939.6L-1485.9 1696.9-1309.6 1454.2V1154.2L-1024.2 1061.5-847.898 818.801-562.602 911.5-277.301 818.801-100.898 1061.5 184.398 1154.2V1454.2" fill="#ffff66"/>
<path transform="matrix(.1,0,0,-.1,0,792)" stroke-width="1" stroke-linecap="butt" stroke-miterlimit="10" stroke-linejoin="miter" fill="none" stroke="#000000" d="M360.699 1696.9 184.398 1939.6V2239.6L-100.898 2332.3-277.301 2575-562.602 2482.3-847.898 2575-1024.2 2332.3-1309.6 2239.6V1939.6L-1485.9 1696.9-1309.6 1454.2V1154.2L-1024.2 1061.5-847.898 818.801-562.602 911.5-277.301 818.801-100.898 1061.5 184.398 1154.2V1454.2Z"/>
<path transform="matrix(.1,0,0,-.1,0,792)" d="M5687 668.801 6148.6 818.801 5972.3 1061.5 5687 1154.2Z"/>
<path transform="matrix(.1,0,0,-.1,0,792)" stroke-width="1" stroke-linecap="butt" stroke-miterlimit="10" stroke-linejoin="miter" fill="none" stroke="#000000" d="M5687 668.801 6148.6 818.801 5972.3 1061.5 5687 1154.2Z"/>
<path transform="matrix(.1,0,0,-.1,0,792)" d="M5687 668.801V183.398L6148.6 33.3984 6434 426.102 6148.6 818.801" fill="#ffffff"/>
<path transform="matrix(.1,0,0,-.1,0,792)" stroke-width="1" stroke-linecap="butt" stroke-miterlimit="10" stroke-linejoin="miter" fill="none" stroke="#000000" d="M5687 668.801V183.398L6148.6 33.3984 6434 426.102 6148.6 818.801Z"/>
<path transform="matrix(.1,0,0,-.1,0,792)" d="M5687 2239.6 5972.3 2332.3 6148.6 2575 5687 2725Z"/>
<path transform="matrix(.1,0,0,-.1,0,792)" stroke-width="1" stroke-linecap="butt" stroke-miterlimit="10" stroke-linejoin="miter" fill="none" stroke="#000000" d="M5687 2239.6 5972.3 2332.3 6148.6 2575 5687 2725Z"/>
<path transform="matrix(.1,0,0,-.1,0,792)" d="M5687 2725 6148.6 2575 6434 2967.7 6148.6 3360.4 5687 3210.4" fill="#ffffff"/>
<path transform="matrix(.1,0,0,-.1,0,792)" stroke-width="1" stroke-linecap="butt" stroke-miterlimit="10" stroke-linejoin="miter" fill="none" stroke="#000000" d="M5687 2725 6148.6 2575 6434 2967.7 6148.6 3360.4 5687 3210.4Z"/>
<path transform="matrix(.1,0,0,-.1,0,792)" d="M5687 3210.4 6148.6 3360.4 5972.3 3603.2 5687 3695.9Z"/>
<path transform="matrix(.1,0,0,-.1,0,792)" stroke-width="1" stroke-linecap="butt" stroke-miterlimit="10" stroke-linejoin="miter" fill="none" stroke="#000000" d="M5687 3210.4 6148.6 3360.4 5972.3 3603.2 5687 3695.9Z"/>
<path transform="matrix(.1,0,0,-.1,0,792)" d="M5687 4781.3 5972.3 4874 6148.6 5116.7 5687 5266.7Z"/>
<path transform="matrix(.1,0,0,-.1,0,792)" stroke-width="1" stroke-linecap="butt" stroke-miterlimit="10" stroke-linejoin="miter" fill="none" stroke="#000000" d="M5687 4781.3 5972.3 4874 6148.6 5116.7 5687 5266.7Z"/>
<path transform="matrix(.1,0,0,-.1,0,792)" d="M5687 5266.7 6148.6 5116.7 6434 5509.4 6148.6 5902.1 5687 5752.1" fill="#ffffff"/>
<path transform="matrix(.1,0,0,-.1,0,792)" stroke-width="1" stroke-linecap="butt" stroke-miterlimit="10" stroke-linejoin="miter" fill="none" stroke="#000000" d="M5687 5266.7 6148.6 5116.7 6434 5509.4 6148.6 5902.1 5687 5752.1Z"/>
<path transform="matrix(.1,0,0,-.1,0,792)" d="M5687 5752.1 6148.6 5902.1 5972.3 6144.8 5687 6237.5Z"/>
<path transform="matrix(.1,0,0,-.1,0,792)" stroke-width="1" stroke-linecap="butt" stroke-miterlimit="10" stroke-linejoin="miter" fill="none" stroke="#000000" d="M5687 5752.1 6148.6 5902.1 5972.3 6144.8 5687 6237.5Z"/>
<path transform="matrix(.1,0,0,-.1,0,792)" d="M5687 7322.9 5972.3 7415.6 6148.6 7658.3 5687 7808.3Z"/>
<path transform="matrix(.1,0,0,-.1,0,792)" stroke-width="1" stroke-linecap="butt" stroke-miterlimit="10" stroke-linejoin="miter" fill="none" stroke="#000000" d="M5687 7322.9 5972.3 7415.6 6148.6 7658.3 5687 7808.3Z"/>
<path transform="matrix(.1,0,0,-.1,0,792)" d="M5687 7808.3 6148.6 7658.3 6434 8051 6148.6 8443.7 5687 8293.7" fill="#ffffff"/>
<path transform="matrix(.1,0,0,-.1,0,792)" stroke-width="1" stroke-linecap="butt" stroke-miterlimit="10" stroke-linejoin="miter" fill="none" stroke="#000000" d="M5687 7808.3 6148.6 7658.3 6434 8051 6148.6 8443.7 5687 8293.7Z"/>
<path transform="matrix(.1,0,0,-.1,0,792)" d="M2935.7 426.102 2650.4 33.3984 2935.7-59.3008 3221 33.3984Z"/>
<path transform="matrix(.1,0,0,-.1,0,792)" stroke-width="1" stroke-linecap="butt" stroke-miterlimit="10" stroke-linejoin="miter" fill="none" stroke="#000000" d="M2935.7 426.102 2650.4 33.3984 2935.7-59.3008 3221 33.3984Z"/>
<path transform="matrix(.1,0,0,-.1,0,792)" d="M184.398 7808.3-277.301 7658.3-100.898 7415.6 184.398 7322.9Z"/>
<path transform="matrix(.1,0,0,-.1,0,792)" stroke-width="1" stroke-linecap="butt" stroke-miterlimit="10" stroke-linejoin="miter" fill="none" stroke="#000000" d="M184.398 7808.3-277.301 7658.3-100.898 7415.6 184.398 7322.9Z"/>
<path transform="matrix(.1,0,0,-.1,0,792)" d="M184.398 7808.3V8293.7L-277.301 8443.7-562.602 8051-277.301 7658.3" fill="#ffffff"/>
<path transform="matrix(.1,0,0,-.1,0,792)" stroke-width="1" stroke-linecap="butt" stroke-miterlimit="10" stroke-linejoin="miter" fill="none" stroke="#000000" d="M184.398 7808.3V8293.7L-277.301 8443.7-562.602 8051-277.301 7658.3Z"/>
<path transform="matrix(.1,0,0,-.1,0,792)" d="M184.398 6237.5-100.898 6144.8-277.301 5902.1 184.398 5752.1Z"/>
<path transform="matrix(.1,0,0,-.1,0,792)" stroke-width="1" stroke-linecap="butt" stroke-miterlimit="10" stroke-linejoin="miter" fill="none" stroke="#000000" d="M184.398 6237.5-100.898 6144.8-277.301 5902.1 184.398 5752.1Z"/>
<path transform="matrix(.1,0,0,-.1,0,792)" d="M184.398 5752.1-277.301 5902.1-562.602 5509.4-277.301 5116.7 184.398 5266.7" fill="#ffffff"/>
<path transform="matrix(.1,0,0,-.1,0,792)" stroke-width="1" stroke-linecap="butt" stroke-miterlimit="10" stroke-linejoin="miter" fill="none" stroke="#000000" d="M184.398 5752.1-277.301 5902.1-562.602 5509.4-277.301 5116.7 184.398 5266.7Z"/>
<path transform="matrix(.1,0,0,-.1,0,792)" d="M184.398 5266.7-277.301 5116.7-100.898 4874 184.398 4781.3Z"/>
<path transform="matrix(.1,0,0,-.1,0,792)" stroke-width="1" stroke-linecap="butt" stroke-miterlimit="10" stroke-linejoin="miter" fill="none" stroke="#000000" d="M184.398 5266.7-277.301 5116.7-100.898 4874 184.398 4781.3Z"/>
<path transform="matrix(.1,0,0,-.1,0,792)" d="M184.398 3695.9-100.898 3603.2-277.301 3360.4 184.398 3210.4Z"/>
<path transform="matrix(.1,0,0,-.1,0,792)" stroke-width="1" stroke-linecap="butt" stroke-miterlimit="10" stroke-linejoin="miter" fill="none" stroke="#000000" d="M184.398 3695.9-100.898 3603.2-277.301 3360.4 184.398 3210.4Z"/>
<path transform="matrix(.1,0,0,-.1,0,792)" d="M184.398 3210.4-277.301 3360.4-562.602 2967.7-277.301 2575 184.398 2725" fill="#ffffff"/>
<path transform="matrix(.1,0,0,-.1,0,792)" stroke-width="1" stroke-linecap="butt" stroke-miterlimit="10" stroke-linejoin="miter" fill="none" stroke="#000000" d="M184.398 3210.4-277.301 3360.4-562.602 2967.7-277.301 2575 184.398 2725Z"/>
<path transform="matrix(.1,0,0,-.1,0,792)" d="M184.398 2725-277.301 2575-100.898 2332.3 184.398 2239.6Z"/>
<path transform="matrix(.1,0,0,-.1,0,792)" stroke-width="1" stroke-linecap="butt" stroke-miterlimit="10" stroke-linejoin="miter" fill="none" stroke="#000000" d="M184.398 2725-277.301 2575-100.898 2332.3 184.398 2239.6Z"/>
<path transform="matrix(.1,0,0,-.1,0,792)" d="M184.398 1154.2-100.898 1061.5-277.301 818.801 184.398 668.801Z"/>
<path transform="matrix(.1,0,0,-.1,0,792)" stroke-width="1" stroke-linecap="butt" stroke-miterlimit="10" stroke-linejoin="miter" fill="none" stroke="#000000" d="M184.398 1154.2-100.898 1061.5-277.301 818.801 184.398 668.801Z"/>
<path transform="matrix(.1,0,0,-.1,0,792)" d="M184.398 668.801-277.301 818.801-562.602 426.102-277.301 33.3984 184.398 183.398" fill="#ffffff"/>
<path transform="matrix(.1,0,0,-.1,0,792)" stroke-width="1" stroke-linecap="butt" stroke-miterlimit="10" stroke-linejoin="miter" fill="none" stroke="#000000" d="M184.398 668.801-277.301 818.801-562.602 426.102-277.301 33.3984 184.398 183.398Z"/>
<path transform="matrix(.1,0,0,-.1,0,792)" d="M518.398 291.898 184.398 183.398V-302L646-452 852.5-167.801V183.398" fill="#ffffff"/>
<path transform="matrix(.1,0,0,-.1,0,792)" stroke-width="1" stroke-linecap="butt" stroke-miterlimit="10" stroke-linejoin="miter" fill="none" stroke="#000000" d="M518.398 291.898 184.398 183.398V-302L646-452 852.5-167.801V183.398Z"/>
<path transform="matrix(.1,0,0,-.1,0,792)" d="M1854.7 291.898 1520.6 183.398V-167.801L1727.1-452 2188.7-302V183.398" fill="#ffffff"/>
<path transform="matrix(.1,0,0,-.1,0,792)" stroke-width="1" stroke-linecap="butt" stroke-miterlimit="10" stroke-linejoin="miter" fill="none" stroke="#000000" d="M1854.7 291.898 1520.6 183.398V-167.801L1727.1-452 2188.7-302V183.398Z"/>
<path transform="matrix(.1,0,0,-.1,0,792)" d="M4016.7 291.898 3682.7 183.398V-302L4144.3-452 4350.8-167.801V183.398" fill="#ffffff"/>
<path transform="matrix(.1,0,0,-.1,0,792)" stroke-width="1" stroke-linecap="butt" stroke-miterlimit="10" stroke-linejoin="miter" fill="none" stroke="#000000" d="M4016.7 291.898 3682.7 183.398V-302L4144.3-452 4350.8-167.801V183.398Z"/>
<path transform="matrix(.1,0,0,-.1,0,792)" d="M5352.9 291.898 5018.9 183.398V-167.801L5225.3-452 5687-302V183.398" fill="#ffffff"/>
<path transform="matrix(.1,0,0,-.1,0,792)" stroke-width="1" stroke-linecap="butt" stroke-miterlimit="10" stroke-linejoin="miter" fill="none" stroke="#000000" d="M5352.9 291.898 5018.9 183.398V-167.801L5225.3-452 5687-302V183.398Z"/>
<path transform="matrix(.1,0,0,-.1,0,792)" d="M184.398 183.398-277.301 33.3984-100.898-209.301 184.398-302Z"/>
<path transform="matrix(.1,0,0,-.1,0,792)" stroke-width="1" stroke-linecap="butt" stroke-miterlimit="10" stroke-linejoin="miter" fill="none" stroke="#000000" d="M184.398 183.398-277.301 33.3984-100.898-209.301 184.398-302Z"/>
<path transform="matrix(.1,0,0,-.1,0,792)" d="M852.5 183.398V-167.801L646-452 980.102-560.602 1186.6-844.699 1393-560.602 1727.1-452 1520.6-167.801V183.398L1186.6 74.8984"/>
<path transform="matrix(.1,0,0,-.1,0,792)" stroke-width="1" stroke-linecap="butt" stroke-miterlimit="10" stroke-linejoin="miter" fill="none" stroke="#000000" d="M852.5 183.398V-167.801L646-452 980.102-560.602 1186.6-844.699 1393-560.602 1727.1-452 1520.6-167.801V183.398L1186.6 74.8984Z"/>
<path transform="matrix(.1,0,0,-.1,0,792)" d="M2188.7 183.398V-302L2474-209.301 2650.4 33.3984Z"/>
<path transform="matrix(.1,0,0,-.1,0,792)" stroke-width="1" stroke-linecap="butt" stroke-miterlimit="10" stroke-linejoin="miter" fill="none" stroke="#000000" d="M2188.7 183.398V-302L2474-209.301 2650.4 33.3984Z"/>
<path transform="matrix(.1,0,0,-.1,0,792)" d="M3682.7 183.398 3221 33.3984 3397.3-209.301 3682.7-302Z"/>
<path transform="matrix(.1,0,0,-.1,0,792)" stroke-width="1" stroke-linecap="butt" stroke-miterlimit="10" stroke-linejoin="miter" fill="none" stroke="#000000" d="M3682.7 183.398 3221 33.3984 3397.3-209.301 3682.7-302Z"/>
<path transform="matrix(.1,0,0,-.1,0,792)" d="M4350.8 183.398V-167.801L4144.3-452 4478.4-560.602 4684.8-844.699 4891.3-560.602 5225.3-452 5018.9-167.801V183.398L4684.8 74.8984"/>
<path transform="matrix(.1,0,0,-.1,0,792)" stroke-width="1" stroke-linecap="butt" stroke-miterlimit="10" stroke-linejoin="miter" fill="none" stroke="#000000" d="M4350.8 183.398V-167.801L4144.3-452 4478.4-560.602 4684.8-844.699 4891.3-560.602 5225.3-452 5018.9-167.801V183.398L4684.8 74.8984Z"/>
<path transform="matrix(.1,0,0,-.1,0,792)" d="M5687 183.398V-302L5972.3-209.301 6148.6 33.3984Z"/>
<path transform="matrix(.1,0,0,-.1,0,792)" stroke-width="1" stroke-linecap="butt" stroke-miterlimit="10" stroke-linejoin="miter" fill="none" stroke="#000000" d="M5687 183.398V-302L5972.3-209.301 6148.6 33.3984Z"/>
<path transform="matrix(.1,0,0,-.1,0,792)" d="M2650.4 33.3984 2474-209.301 2188.7-302V-602L2012.4-844.699 2188.7-1087.4V-1387.4L2474-1480.1 2650.4-1722.8 2935.7-1630.1 3221-1722.8 3397.3-1480.1 3682.7-1387.4V-1087.4L3859-844.699 3682.7-602V-302L3397.3-209.301 3221 33.3984 2935.7-59.3008" fill="#ffff66"/>
<path transform="matrix(.1,0,0,-.1,0,792)" stroke-width="1" stroke-linecap="butt" stroke-miterlimit="10" stroke-linejoin="miter" fill="none" stroke="#000000" d="M2650.4 33.3984 2474-209.301 2188.7-302V-602L2012.4-844.699 2188.7-1087.4V-1387.4L2474-1480.1 2650.4-1722.8 2935.7-1630.1 3221-1722.8 3397.3-1480.1 3682.7-1387.4V-1087.4L3859-844.699 3682.7-602V-302L3397.3-209.301 3221 33.3984 2935.7-59.3008Z"/>
<path transform="matrix(.1,0,0,-.1,0,792)" d="M6148.6 33.3984 5972.3-209.301 5687-302V-602L5510.6-844.699 5687-1087.4V-1387.4L5972.3-1480.1 6148.6-1722.8 6434-1630.1 6719.3-1722.8 6895.6-1480.1 7180.9-1387.4V-1087.4L7357.3-844.699 7180.9-602V-302L6895.6-209.301 6719.3 33.3984 6434-59.3008" fill="#ffff66"/>
<path transform="matrix(.1,0,0,-.1,0,792)" stroke-width="1" stroke-linecap="butt" stroke-miterlimit="10" stroke-linejoin="miter" fill="none" stroke="#000000" d="M6148.6 33.3984 5972.3-209.301 5687-302V-602L5510.6-844.699 5687-1087.4V-1387.4L5972.3-1480.1 6148.6-1722.8 6434-1630.1 6719.3-1722.8 6895.6-1480.1 7180.9-1387.4V-1087.4L7357.3-844.699 7180.9-602V-302L6895.6-209.301 6719.3 33.3984 6434-59.3008Z"/>
<path transform="matrix(.1,0,0,-.1,0,792)" d="M-100.898-209.301-277.301 33.3984-562.602-59.3008-847.898 33.3984-1024.2-209.301-1309.6-302V-602L-1485.9-844.699-1309.6-1087.4V-1387.4L-1024.2-1480.1-847.898-1722.8-562.602-1630.1-277.301-1722.8-100.898-1480.1 184.398-1387.4V-1087.4L360.699-844.699 184.398-602V-302" fill="#ffff66"/>
<path transform="matrix(.1,0,0,-.1,0,792)" stroke-width="1" stroke-linecap="butt" stroke-miterlimit="10" stroke-linejoin="miter" fill="none" stroke="#000000" d="M-100.898-209.301-277.301 33.3984-562.602-59.3008-847.898 33.3984-1024.2-209.301-1309.6-302V-602L-1485.9-844.699-1309.6-1087.4V-1387.4L-1024.2-1480.1-847.898-1722.8-562.602-1630.1-277.301-1722.8-100.898-1480.1 184.398-1387.4V-1087.4L360.699-844.699 184.398-602V-302Z"/>
</svg>
