<svg xmlns="http://www.w3.org/2000/svg" xmlns:xlink="http://www.w3.org/1999/xlink" xmlns:inkscape="http://www.inkscape.org/namespaces/inkscape" version="1.1" width="612" height="792" viewBox="0 0 612 792">
<path transform="matrix(.1,0,0,-.1,0,792)" d="M2975 3658.8 3092.6 3820.6 3282.8 3758.8V3958.8L3473 4020.6 3355.4 4182.4 3473 4344.2 3282.8 4406V4606L3092.6 4544.2 2975 4706 2857.4 4544.2 2667.2 4606V4406L2477 4344.2 2594.6 4182.4 2477 4020.6 2667.2 3958.8V3758.8L2857.4 3820.6" fill="#ffbfbf"/>
<path transform="matrix(.1,0,0,-.1,0,792)" stroke-width="1" stroke-linecap="butt" stroke-miterlimit="10" stroke-linejoin="miter" fill="none" stroke="#000000" d="M2975 3658.8 3092.6 3820.6 3282.8 3758.8V3958.8L3473 4020.6 3355.4 4182.4 3473 4344.2 3282.8 4406V4606L3092.6 4544.2 2975 4706 2857.4 4544.2 2667.2 4606V4406L2477 4344.2 2594.6 4182.4 2477 4020.6 2667.2 3958.8V3758.8L2857.4 3820.6Z"/>
<path transform="matrix(.1,0,0,-.1,0,792)" d="M3092.6 4544.2 3282.8 4606V5129.7L2975 4706Z" fill="#804000"/>
<path transform="matrix(.1,0,0,-.1,0,792)" stroke-width="1" stroke-linecap="butt" stroke-miterlimit="10" stroke-linejoin="miter" fill="none" stroke="#000000" d="M3092.6 4544.2 3282.8 4606V5129.7L2975 4706Z"/>
<path transform="matrix(.1,0,0,-.1,0,792)" d="M2857.4 4544.2 2975 4706 2667.2 5129.7V4606Z" fill="#804000"/>
<path transform="matrix(.1,0,0,-.1,0,792)" stroke-width="1" stroke-linecap="butt" stroke-miterlimit="10" stroke-linejoin="miter" fill="none" stroke="#000000" d="M2857.4 4544.2 2975 4706 2667.2 5129.7V4606Z"/>
<path transform="matrix(.1,0,0,-.1,0,792)" d="M2857.4 3820.6 2667.2 3758.8V3235.2L2975 3658.8Z" fill="#804000"/>
<path transform="matrix(.1,0,0,-.1,0,792)" stroke-width="1" stroke-linecap="butt" stroke-miterlimit="10" stroke-linejoin="miter" fill="none" stroke="#000000" d="M2857.4 3820.6 2667.2 3758.8V3235.2L2975 3658.8Z"/>
<path transform="matrix(.1,0,0,-.1,0,792)" d="M3092.6 3820.6 2975 3658.8 3282.8 3235.2V3758.8Z" fill="#804000"/>
<path transform="matrix(.1,0,0,-.1,0,792)" stroke-width="1" stroke-linecap="butt" stroke-miterlimit="10" stroke-linejoin="miter" fill="none" stroke="#000000" d="M3092.6 3820.6 2975 3658.8 3282.8 3235.2V3758.8Z"/>
<path transform="matrix(.1,0,0,-.1,0,792)" d="M3282.8 3958.8V3758.8L3780.7 3597 3473 4020.6Z" fill="#804000"/>
<path transform="matrix(.1,0,0,-.1,0,792)" stroke-width="1" stroke-linecap="butt" stroke-miterlimit="10" stroke-linejoin="miter" fill="none" stroke="#000000" d="M3282.8 3958.8V3758.8L3780.7 3597 3473 4020.6Z"/>
<path transform="matrix(.1,0,0,-.1,0,792)" d="M3282.8 4406 3473 4344.2 3780.7 4767.9 3282.8 4606Z" fill="#804000"/>
<path transform="matrix(.1,0,0,-.1,0,792)" stroke-width="1" stroke-linecap="butt" stroke-miterlimit="10" stroke-linejoin="miter" fill="none" stroke="#000000" d="M3282.8 4406 3473 4344.2 3780.7 4767.9 3282.8 4606Z"/>
<path transform="matrix(.1,0,0,-.1,0,792)" d="M3282.8 4606 3780.7 4767.9 3971 5029.7 3780.7 5291.5 3473 5391.5 3282.8 5129.7" fill="#80bf00"/>
<path transform="matrix(.1,0,0,-.1,0,792)" stroke-width="1" stroke-linecap="butt" stroke-miterlimit="10" stroke-linejoin="miter" fill="none" stroke="#000000" d="M3282.8 4606 3780.7 4767.9 3971 5029.7 3780.7 5291.5 3473 5391.5 3282.8 5129.7Z"/>
<path transform="matrix(.1,0,0,-.1,0,792)" d="M2667.2 4606 2169.3 4767.9 2477 4344.2 2667.2 4406Z" fill="#804000"/>
<path transform="matrix(.1,0,0,-.1,0,792)" stroke-width="1" stroke-linecap="butt" stroke-miterlimit="10" stroke-linejoin="miter" fill="none" stroke="#000000" d="M2667.2 4606 2169.3 4767.9 2477 4344.2 2667.2 4406Z"/>
<path transform="matrix(.1,0,0,-.1,0,792)" d="M2667.2 4606V5129.7L2477 5391.5 2169.3 5291.5 1979 5029.7 2169.3 4767.9" fill="#80bf00"/>
<path transform="matrix(.1,0,0,-.1,0,792)" stroke-width="1" stroke-linecap="butt" stroke-miterlimit="10" stroke-linejoin="miter" fill="none" stroke="#000000" d="M2667.2 4606V5129.7L2477 5391.5 2169.3 5291.5 1979 5029.7 2169.3 4767.9Z"/>
<path transform="matrix(.1,0,0,-.1,0,792)" d="M2667.2 3958.8 2477 4020.6 2169.3 3597 2667.2 3758.8Z" fill="#804000"/>
<path transform="matrix(.1,0,0,-.1,0,792)" stroke-width="1" stroke-linecap="butt" stroke-miterlimit="10" stroke-linejoin="miter" fill="none" stroke="#000000" d="M2667.2 3958.8 2477 4020.6 2169.3 3597 2667.2 3758.8Z"/>
<path transform="matrix(.1,0,0,-.1,0,792)" d="M2667.2 3758.8 2169.3 3597 1979 3335.2 2169.3 3073.4 2477 2973.4 2667.2 3235.2" fill="#80bf00"/>
<path transform="matrix(.1,0,0,-.1,0,792)" stroke-width="1" stroke-linecap="butt" stroke-miterlimit="10" stroke-linejoin="miter" fill="none" stroke="#000000" d="M2667.2 3758.8 2169.3 3597 1979 3335.2 2169.3 3073.4 2477 2973.4 2667.2 3235.2Z"/>
<path transform="matrix(.1,0,0,-.1,0,792)" d="M3282.8 3758.8V3235.2L3473 2973.4 3780.7 3073.4 3971 3335.2 3780.7 3597" fill="#80bf00"/>
<path transform="matrix(.1,0,0,-.1,0,792)" stroke-width="1" stroke-linecap="butt" stroke-miterlimit="10" stroke-linejoin="miter" fill="none" stroke="#000000" d="M3282.8 3758.8V3235.2L3473 2973.4 3780.7 3073.4 3971 3335.2 3780.7 3597Z"/>
<path transform="matrix(.1,0,0,-.1,0,792)" d="M2975 4706 3282.8 5129.7V5453.3L2975 5553.3 2667.2 5453.3V5129.7" fill="#80bf00"/>
<path transform="matrix(.1,0,0,-.1,0,792)" stroke-width="1" stroke-linecap="butt" stroke-miterlimit="10" stroke-linejoin="miter" fill="none" stroke="#000000" d="M2975 4706 3282.8 5129.7V5453.3L2975 5553.3 2667.2 5453.3V5129.7Z"/>
<path transform="matrix(.1,0,0,-.1,0,792)" d="M2594.6 4182.4 2477 4344.2 1979 4182.4 2477 4020.6Z" fill="#804000"/>
<path transform="matrix(.1,0,0,-.1,0,792)" stroke-width="1" stroke-linecap="butt" stroke-miterlimit="10" stroke-linejoin="miter" fill="none" stroke="#000000" d="M2594.6 4182.4 2477 4344.2 1979 4182.4 2477 4020.6Z"/>
<path transform="matrix(.1,0,0,-.1,0,792)" d="M3355.4 4182.4 3473 4020.6 3971 4182.4 3473 4344.2Z" fill="#804000"/>
<path transform="matrix(.1,0,0,-.1,0,792)" stroke-width="1" stroke-linecap="butt" stroke-miterlimit="10" stroke-linejoin="miter" fill="none" stroke="#000000" d="M3355.4 4182.4 3473 4020.6 3971 4182.4 3473 4344.2Z"/>
<path transform="matrix(.1,0,0,-.1,0,792)" d="M2975 3658.8 2667.2 3235.2V2911.6L2975 2811.6 3282.8 2911.6V3235.2" fill="#80bf00"/>
<path transform="matrix(.1,0,0,-.1,0,792)" stroke-width="1" stroke-linecap="butt" stroke-miterlimit="10" stroke-linejoin="miter" fill="none" stroke="#000000" d="M2975 3658.8 2667.2 3235.2V2911.6L2975 2811.6 3282.8 2911.6V3235.2Z"/>
<path transform="matrix(.1,0,0,-.1,0,792)" d="M3473 4020.6 3780.7 3597 4088.5 3497 4278.7 3758.8V4082.4L3971 4182.4" fill="#80bf00"/>
<path transform="matrix(.1,0,0,-.1,0,792)" stroke-width="1" stroke-linecap="butt" stroke-miterlimit="10" stroke-linejoin="miter" fill="none" stroke="#000000" d="M3473 4020.6 3780.7 3597 4088.5 3497 4278.7 3758.8V4082.4L3971 4182.4Z"/>
<path transform="matrix(.1,0,0,-.1,0,792)" d="M3473 4344.2 3971 4182.4 4278.7 4282.4V4606L4088.5 4867.9 3780.7 4767.9" fill="#80bf00"/>
<path transform="matrix(.1,0,0,-.1,0,792)" stroke-width="1" stroke-linecap="butt" stroke-miterlimit="10" stroke-linejoin="miter" fill="none" stroke="#000000" d="M3473 4344.2 3971 4182.4 4278.7 4282.4V4606L4088.5 4867.9 3780.7 4767.9Z"/>
<path transform="matrix(.1,0,0,-.1,0,792)" d="M2477 4344.2 2169.3 4767.9 1861.5 4867.9 1671.3 4606V4282.4L1979 4182.4" fill="#80bf00"/>
<path transform="matrix(.1,0,0,-.1,0,792)" stroke-width="1" stroke-linecap="butt" stroke-miterlimit="10" stroke-linejoin="miter" fill="none" stroke="#000000" d="M2477 4344.2 2169.3 4767.9 1861.5 4867.9 1671.3 4606V4282.4L1979 4182.4Z"/>
<path transform="matrix(.1,0,0,-.1,0,792)" d="M2477 4020.6 1979 4182.4 1671.3 4082.4V3758.8L1861.5 3497 2169.3 3597" fill="#80bf00"/>
<path transform="matrix(.1,0,0,-.1,0,792)" stroke-width="1" stroke-linecap="butt" stroke-miterlimit="10" stroke-linejoin="miter" fill="none" stroke="#000000" d="M2477 4020.6 1979 4182.4 1671.3 4082.4V3758.8L1861.5 3497 2169.3 3597Z"/>
<path transform="matrix(.1,0,0,-.1,0,792)" d="M3282.8 5129.7 3473 5391.5 3780.7 5291.5 3473 5715.1 2975 5553.3 3282.8 5453.3" fill="#b20000"/>
<path transform="matrix(.1,0,0,-.1,0,792)" stroke-width="1" stroke-linecap="butt" stroke-miterlimit="10" stroke-linejoin="miter" fill="none" stroke="#000000" d="M3282.8 5129.7 3473 5391.5 3780.7 5291.5 3473 5715.1 2975 5553.3 3282.8 5453.3Z"/>
<path transform="matrix(.1,0,0,-.1,0,792)" d="M2667.2 5129.7V5453.3L2975 5553.3 2667.2 5653.3V5976.9L2477 5715.1 2169.3 5815.1 2359.5 5553.3 2169.3 5291.5 2477 5391.5" fill="#b20000"/>
<path transform="matrix(.1,0,0,-.1,0,792)" stroke-width="1" stroke-linecap="butt" stroke-miterlimit="10" stroke-linejoin="miter" fill="none" stroke="#000000" d="M2667.2 5129.7V5453.3L2975 5553.3 2667.2 5653.3V5976.9L2477 5715.1 2169.3 5815.1 2359.5 5553.3 2169.3 5291.5 2477 5391.5Z"/>
<path transform="matrix(.1,0,0,-.1,0,792)" d="M2667.2 3235.2 2477 2973.4 2169.3 3073.4 2477 2649.8 2975 2811.6 2667.2 2911.6" fill="#b20000"/>
<path transform="matrix(.1,0,0,-.1,0,792)" stroke-width="1" stroke-linecap="butt" stroke-miterlimit="10" stroke-linejoin="miter" fill="none" stroke="#000000" d="M2667.2 3235.2 2477 2973.4 2169.3 3073.4 2477 2649.8 2975 2811.6 2667.2 2911.6Z"/>
<path transform="matrix(.1,0,0,-.1,0,792)" d="M3282.8 3235.2V2911.6L2975 2811.6 3282.8 2711.6V2388L3473 2649.8 3780.7 2549.8 3590.5 2811.6 3780.7 3073.4 3473 2973.4" fill="#b20000"/>
<path transform="matrix(.1,0,0,-.1,0,792)" stroke-width="1" stroke-linecap="butt" stroke-miterlimit="10" stroke-linejoin="miter" fill="none" stroke="#000000" d="M3282.8 3235.2V2911.6L2975 2811.6 3282.8 2711.6V2388L3473 2649.8 3780.7 2549.8 3590.5 2811.6 3780.7 3073.4 3473 2973.4Z"/>
<path transform="matrix(.1,0,0,-.1,0,792)" d="M3780.7 3597 3971 3335.2 3780.7 3073.4 4278.7 3235.2V3758.8L4088.5 3497" fill="#b20000"/>
<path transform="matrix(.1,0,0,-.1,0,792)" stroke-width="1" stroke-linecap="butt" stroke-miterlimit="10" stroke-linejoin="miter" fill="none" stroke="#000000" d="M3780.7 3597 3971 3335.2 3780.7 3073.4 4278.7 3235.2V3758.8L4088.5 3497Z"/>
<path transform="matrix(.1,0,0,-.1,0,792)" d="M3780.7 4767.9 4088.5 4867.9 4278.7 4606V4929.7L4586.5 5029.7 4278.7 5129.7V5453.3L4088.5 5191.5 3780.7 5291.5 3971 5029.7" fill="#b20000"/>
<path transform="matrix(.1,0,0,-.1,0,792)" stroke-width="1" stroke-linecap="butt" stroke-miterlimit="10" stroke-linejoin="miter" fill="none" stroke="#000000" d="M3780.7 4767.9 4088.5 4867.9 4278.7 4606V4929.7L4586.5 5029.7 4278.7 5129.7V5453.3L4088.5 5191.5 3780.7 5291.5 3971 5029.7Z"/>
<path transform="matrix(.1,0,0,-.1,0,792)" d="M3780.7 5291.5 4088.5 5191.5 4278.7 5453.3V5776.9L3971 5876.9 3473 5715.1" fill="#808000"/>
<path transform="matrix(.1,0,0,-.1,0,792)" stroke-width="1" stroke-linecap="butt" stroke-miterlimit="10" stroke-linejoin="miter" fill="none" stroke="#000000" d="M3780.7 5291.5 4088.5 5191.5 4278.7 5453.3V5776.9L3971 5876.9 3473 5715.1Z"/>
<path transform="matrix(.1,0,0,-.1,0,792)" d="M2169.3 5291.5 1671.3 5129.7V4606L1861.5 4867.9 2169.3 4767.9 1979 5029.7" fill="#b20000"/>
<path transform="matrix(.1,0,0,-.1,0,792)" stroke-width="1" stroke-linecap="butt" stroke-miterlimit="10" stroke-linejoin="miter" fill="none" stroke="#000000" d="M2169.3 5291.5 1671.3 5129.7V4606L1861.5 4867.9 2169.3 4767.9 1979 5029.7Z"/>
<path transform="matrix(.1,0,0,-.1,0,792)" d="M2169.3 5291.5 2359.5 5553.3 2169.3 5815.1 1861.5 5915.1 1671.3 5653.3V5129.7" fill="#808000"/>
<path transform="matrix(.1,0,0,-.1,0,792)" stroke-width="1" stroke-linecap="butt" stroke-miterlimit="10" stroke-linejoin="miter" fill="none" stroke="#000000" d="M2169.3 5291.5 2359.5 5553.3 2169.3 5815.1 1861.5 5915.1 1671.3 5653.3V5129.7Z"/>
<path transform="matrix(.1,0,0,-.1,0,792)" d="M2169.3 3597 1861.5 3497 1671.3 3758.8V3435.2L1363.5 3335.2 1671.3 3235.2V2911.6L1861.5 3173.4 2169.3 3073.4 1979 3335.2" fill="#b20000"/>
<path transform="matrix(.1,0,0,-.1,0,792)" stroke-width="1" stroke-linecap="butt" stroke-miterlimit="10" stroke-linejoin="miter" fill="none" stroke="#000000" d="M2169.3 3597 1861.5 3497 1671.3 3758.8V3435.2L1363.5 3335.2 1671.3 3235.2V2911.6L1861.5 3173.4 2169.3 3073.4 1979 3335.2Z"/>
<path transform="matrix(.1,0,0,-.1,0,792)" d="M2169.3 3073.4 1861.5 3173.4 1671.3 2911.6V2588L1979 2488 2477 2649.8" fill="#808000"/>
<path transform="matrix(.1,0,0,-.1,0,792)" stroke-width="1" stroke-linecap="butt" stroke-miterlimit="10" stroke-linejoin="miter" fill="none" stroke="#000000" d="M2169.3 3073.4 1861.5 3173.4 1671.3 2911.6V2588L1979 2488 2477 2649.8Z"/>
<path transform="matrix(.1,0,0,-.1,0,792)" d="M3780.7 3073.4 3590.5 2811.6 3780.7 2549.8 4088.5 2449.8 4278.7 2711.6V3235.2" fill="#808000"/>
<path transform="matrix(.1,0,0,-.1,0,792)" stroke-width="1" stroke-linecap="butt" stroke-miterlimit="10" stroke-linejoin="miter" fill="none" stroke="#000000" d="M3780.7 3073.4 3590.5 2811.6 3780.7 2549.8 4088.5 2449.8 4278.7 2711.6V3235.2Z"/>
<path transform="matrix(.1,0,0,-.1,0,792)" d="M2975 5553.3 3473 5715.1 3165.2 6138.7 2857.4 6238.7 2667.2 5976.9V5653.3" fill="#808000"/>
<path transform="matrix(.1,0,0,-.1,0,792)" stroke-width="1" stroke-linecap="butt" stroke-miterlimit="10" stroke-linejoin="miter" fill="none" stroke="#000000" d="M2975 5553.3 3473 5715.1 3165.2 6138.7 2857.4 6238.7 2667.2 5976.9V5653.3Z"/>
<path transform="matrix(.1,0,0,-.1,0,792)" d="M1979 4182.4 1671.3 4282.4V4606L1363.5 4182.4 1671.3 3758.8V4082.4" fill="#b20000"/>
<path transform="matrix(.1,0,0,-.1,0,792)" stroke-width="1" stroke-linecap="butt" stroke-miterlimit="10" stroke-linejoin="miter" fill="none" stroke="#000000" d="M1979 4182.4 1671.3 4282.4V4606L1363.5 4182.4 1671.3 3758.8V4082.4Z"/>
<path transform="matrix(.1,0,0,-.1,0,792)" d="M3971 4182.4 4278.7 4082.4V3758.8L4586.5 4182.4 4278.7 4606V4282.4" fill="#b20000"/>
<path transform="matrix(.1,0,0,-.1,0,792)" stroke-width="1" stroke-linecap="butt" stroke-miterlimit="10" stroke-linejoin="miter" fill="none" stroke="#000000" d="M3971 4182.4 4278.7 4082.4V3758.8L4586.5 4182.4 4278.7 4606V4282.4Z"/>
<path transform="matrix(.1,0,0,-.1,0,792)" d="M2975 2811.6 2477 2649.8 2784.8 2226.2 3092.6 2126.2 3282.8 2388V2711.6" fill="#808000"/>
<path transform="matrix(.1,0,0,-.1,0,792)" stroke-width="1" stroke-linecap="butt" stroke-miterlimit="10" stroke-linejoin="miter" fill="none" stroke="#000000" d="M2975 2811.6 2477 2649.8 2784.8 2226.2 3092.6 2126.2 3282.8 2388V2711.6Z"/>
<path transform="matrix(.1,0,0,-.1,0,792)" d="M3473 5715.1 3971 5876.9 3663.2 5976.9V6300.5L3473 6038.7 3165.2 6138.7" fill="#b20000"/>
<path transform="matrix(.1,0,0,-.1,0,792)" stroke-width="1" stroke-linecap="butt" stroke-miterlimit="10" stroke-linejoin="miter" fill="none" stroke="#000000" d="M3473 5715.1 3971 5876.9 3663.2 5976.9V6300.5L3473 6038.7 3165.2 6138.7Z"/>
<path transform="matrix(.1,0,0,-.1,0,792)" d="M2477 5715.1 2667.2 5976.9V6300.5L2359.5 6400.5 1861.5 6238.7 2169.3 5815.1" fill="#808000"/>
<path transform="matrix(.1,0,0,-.1,0,792)" stroke-width="1" stroke-linecap="butt" stroke-miterlimit="10" stroke-linejoin="miter" fill="none" stroke="#000000" d="M2477 5715.1 2667.2 5976.9V6300.5L2359.5 6400.5 1861.5 6238.7 2169.3 5815.1Z"/>
<path transform="matrix(.1,0,0,-.1,0,792)" d="M2477 2649.8 1979 2488 2286.8 2388V2064.4L2477 2326.2 2784.8 2226.2" fill="#b20000"/>
<path transform="matrix(.1,0,0,-.1,0,792)" stroke-width="1" stroke-linecap="butt" stroke-miterlimit="10" stroke-linejoin="miter" fill="none" stroke="#000000" d="M2477 2649.8 1979 2488 2286.8 2388V2064.4L2477 2326.2 2784.8 2226.2Z"/>
<path transform="matrix(.1,0,0,-.1,0,792)" d="M3473 2649.8 3282.8 2388V2064.4L3590.5 1964.4 4088.5 2126.2 3780.7 2549.8" fill="#808000"/>
<path transform="matrix(.1,0,0,-.1,0,792)" stroke-width="1" stroke-linecap="butt" stroke-miterlimit="10" stroke-linejoin="miter" fill="none" stroke="#000000" d="M3473 2649.8 3282.8 2388V2064.4L3590.5 1964.4 4088.5 2126.2 3780.7 2549.8Z"/>
<path transform="matrix(.1,0,0,-.1,0,792)" d="M2169.3 5815.1 1861.5 6238.7 1363.5 6076.9 1671.3 5976.9V5653.3L1861.5 5915.1" fill="#b20000"/>
<path transform="matrix(.1,0,0,-.1,0,792)" stroke-width="1" stroke-linecap="butt" stroke-miterlimit="10" stroke-linejoin="miter" fill="none" stroke="#000000" d="M2169.3 5815.1 1861.5 6238.7 1363.5 6076.9 1671.3 5976.9V5653.3L1861.5 5915.1Z"/>
<path transform="matrix(.1,0,0,-.1,0,792)" d="M3780.7 2549.8 4088.5 2126.2 4586.5 2288 4278.7 2388V2711.6L4088.5 2449.8" fill="#b20000"/>
<path transform="matrix(.1,0,0,-.1,0,792)" stroke-width="1" stroke-linecap="butt" stroke-miterlimit="10" stroke-linejoin="miter" fill="none" stroke="#000000" d="M3780.7 2549.8 4088.5 2126.2 4586.5 2288 4278.7 2388V2711.6L4088.5 2449.8Z"/>
<path transform="matrix(.1,0,0,-.1,0,792)" d="M3971 5876.9 4278.7 5976.9V6300.5L3971 6724.1 3663.2 6300.5V5976.9" fill="#80bf00"/>
<path transform="matrix(.1,0,0,-.1,0,792)" stroke-width="1" stroke-linecap="butt" stroke-miterlimit="10" stroke-linejoin="miter" fill="none" stroke="#000000" d="M3971 5876.9 4278.7 5976.9V6300.5L3971 6724.1 3663.2 6300.5V5976.9Z"/>
<path transform="matrix(.1,0,0,-.1,0,792)" d="M3971 5876.9 4278.7 5776.9V5453.3L4468.9 5715.1 4776.7 5615.1 4586.5 5876.9 4776.7 6138.7 4468.9 6038.7 4278.7 6300.5V5976.9" fill="#b20000"/>
<path transform="matrix(.1,0,0,-.1,0,792)" stroke-width="1" stroke-linecap="butt" stroke-miterlimit="10" stroke-linejoin="miter" fill="none" stroke="#000000" d="M3971 5876.9 4278.7 5776.9V5453.3L4468.9 5715.1 4776.7 5615.1 4586.5 5876.9 4776.7 6138.7 4468.9 6038.7 4278.7 6300.5V5976.9Z"/>
<path transform="matrix(.1,0,0,-.1,0,792)" d="M1979 2488 1671.3 2388V2064.4L1979 1640.8 2286.8 2064.4V2388" fill="#80bf00"/>
<path transform="matrix(.1,0,0,-.1,0,792)" stroke-width="1" stroke-linecap="butt" stroke-miterlimit="10" stroke-linejoin="miter" fill="none" stroke="#000000" d="M1979 2488 1671.3 2388V2064.4L1979 1640.8 2286.8 2064.4V2388Z"/>
<path transform="matrix(.1,0,0,-.1,0,792)" d="M1979 2488 1671.3 2588V2911.6L1481.1 2649.8 1173.3 2749.8 1363.5 2488 1173.3 2226.2 1481.1 2326.2 1671.3 2064.4V2388" fill="#b20000"/>
<path transform="matrix(.1,0,0,-.1,0,792)" stroke-width="1" stroke-linecap="butt" stroke-miterlimit="10" stroke-linejoin="miter" fill="none" stroke="#000000" d="M1979 2488 1671.3 2588V2911.6L1481.1 2649.8 1173.3 2749.8 1363.5 2488 1173.3 2226.2 1481.1 2326.2 1671.3 2064.4V2388Z"/>
<path transform="matrix(.1,0,0,-.1,0,792)" d="M2667.2 5976.9 2857.4 6238.7 3165.2 6138.7 2975 6400.5 3165.2 6662.3 2857.4 6562.3 2667.2 6824.1V6500.5L2359.5 6400.5 2667.2 6300.5" fill="#b20000"/>
<path transform="matrix(.1,0,0,-.1,0,792)" stroke-width="1" stroke-linecap="butt" stroke-miterlimit="10" stroke-linejoin="miter" fill="none" stroke="#000000" d="M2667.2 5976.9 2857.4 6238.7 3165.2 6138.7 2975 6400.5 3165.2 6662.3 2857.4 6562.3 2667.2 6824.1V6500.5L2359.5 6400.5 2667.2 6300.5Z"/>
<path transform="matrix(.1,0,0,-.1,0,792)" d="M1671.3 5976.9 1363.5 6076.9 1055.7 5976.9V5653.3L1363.5 5229.7 1671.3 5653.3" fill="#808000"/>
<path transform="matrix(.1,0,0,-.1,0,792)" stroke-width="1" stroke-linecap="butt" stroke-miterlimit="10" stroke-linejoin="miter" fill="none" stroke="#000000" d="M1671.3 5976.9 1363.5 6076.9 1055.7 5976.9V5653.3L1363.5 5229.7 1671.3 5653.3Z"/>
<path transform="matrix(.1,0,0,-.1,0,792)" d="M1671.3 5653.3 1363.5 5229.7 1481.1 5067.9 1671.3 5129.7Z" fill="#804000"/>
<path transform="matrix(.1,0,0,-.1,0,792)" stroke-width="1" stroke-linecap="butt" stroke-miterlimit="10" stroke-linejoin="miter" fill="none" stroke="#000000" d="M1671.3 5653.3 1363.5 5229.7 1481.1 5067.9 1671.3 5129.7Z"/>
<path transform="matrix(.1,0,0,-.1,0,792)" d="M1671.3 5129.7 1481.1 5067.9 1363.5 5229.7 1245.9 5067.9 1055.7 5129.7V4806L865.5 4544.2 1055.7 4482.4V4282.4L1245.9 4344.2 1363.5 4182.4 1671.3 4606" fill="#ffbfbf"/>
<path transform="matrix(.1,0,0,-.1,0,792)" stroke-width="1" stroke-linecap="butt" stroke-miterlimit="10" stroke-linejoin="miter" fill="none" stroke="#000000" d="M1671.3 5129.7 1481.1 5067.9 1363.5 5229.7 1245.9 5067.9 1055.7 5129.7V4806L865.5 4544.2 1055.7 4482.4V4282.4L1245.9 4344.2 1363.5 4182.4 1671.3 4606Z"/>
<path transform="matrix(.1,0,0,-.1,0,792)" d="M1671.3 3758.8 1363.5 4182.4 1055.7 3758.8V3435.2L1363.5 3335.2 1671.3 3435.2" fill="#808000"/>
<path transform="matrix(.1,0,0,-.1,0,792)" stroke-width="1" stroke-linecap="butt" stroke-miterlimit="10" stroke-linejoin="miter" fill="none" stroke="#000000" d="M1671.3 3758.8 1363.5 4182.4 1055.7 3758.8V3435.2L1363.5 3335.2 1671.3 3435.2Z"/>
<path transform="matrix(.1,0,0,-.1,0,792)" d="M1671.3 3235.2 1363.5 3335.2 865.5 3173.4 1173.3 2749.8 1481.1 2649.8 1671.3 2911.6" fill="#808000"/>
<path transform="matrix(.1,0,0,-.1,0,792)" stroke-width="1" stroke-linecap="butt" stroke-miterlimit="10" stroke-linejoin="miter" fill="none" stroke="#000000" d="M1671.3 3235.2 1363.5 3335.2 865.5 3173.4 1173.3 2749.8 1481.1 2649.8 1671.3 2911.6Z"/>
<path transform="matrix(.1,0,0,-.1,0,792)" d="M4278.7 2711.6 4586.5 3135.2 4468.9 3297 4278.7 3235.2Z" fill="#804000"/>
<path transform="matrix(.1,0,0,-.1,0,792)" stroke-width="1" stroke-linecap="butt" stroke-miterlimit="10" stroke-linejoin="miter" fill="none" stroke="#000000" d="M4278.7 2711.6 4586.5 3135.2 4468.9 3297 4278.7 3235.2Z"/>
<path transform="matrix(.1,0,0,-.1,0,792)" d="M4278.7 2711.6V2388L4586.5 2288 4894.3 2388V2711.6L4586.5 3135.2" fill="#808000"/>
<path transform="matrix(.1,0,0,-.1,0,792)" stroke-width="1" stroke-linecap="butt" stroke-miterlimit="10" stroke-linejoin="miter" fill="none" stroke="#000000" d="M4278.7 2711.6V2388L4586.5 2288 4894.3 2388V2711.6L4586.5 3135.2Z"/>
<path transform="matrix(.1,0,0,-.1,0,792)" d="M4278.7 3235.2 4468.9 3297 4586.5 3135.2 4704.1 3297 4894.3 3235.2V3558.8L5084.5 3820.6 4894.3 3882.4V4082.4L4704.1 4020.6 4586.5 4182.4 4278.7 3758.8" fill="#ffbfbf"/>
<path transform="matrix(.1,0,0,-.1,0,792)" stroke-width="1" stroke-linecap="butt" stroke-miterlimit="10" stroke-linejoin="miter" fill="none" stroke="#000000" d="M4278.7 3235.2 4468.9 3297 4586.5 3135.2 4704.1 3297 4894.3 3235.2V3558.8L5084.5 3820.6 4894.3 3882.4V4082.4L4704.1 4020.6 4586.5 4182.4 4278.7 3758.8Z"/>
<path transform="matrix(.1,0,0,-.1,0,792)" d="M4278.7 4606 4586.5 4182.4 4894.3 4606V4929.7L4586.5 5029.7 4278.7 4929.7" fill="#808000"/>
<path transform="matrix(.1,0,0,-.1,0,792)" stroke-width="1" stroke-linecap="butt" stroke-miterlimit="10" stroke-linejoin="miter" fill="none" stroke="#000000" d="M4278.7 4606 4586.5 4182.4 4894.3 4606V4929.7L4586.5 5029.7 4278.7 4929.7Z"/>
<path transform="matrix(.1,0,0,-.1,0,792)" d="M4278.7 5129.7 4586.5 5029.7 5084.5 5191.5 4776.7 5615.1 4468.9 5715.1 4278.7 5453.3" fill="#808000"/>
<path transform="matrix(.1,0,0,-.1,0,792)" stroke-width="1" stroke-linecap="butt" stroke-miterlimit="10" stroke-linejoin="miter" fill="none" stroke="#000000" d="M4278.7 5129.7 4586.5 5029.7 5084.5 5191.5 4776.7 5615.1 4468.9 5715.1 4278.7 5453.3Z"/>
<path transform="matrix(.1,0,0,-.1,0,792)" d="M3282.8 2388 3092.6 2126.2 2784.8 2226.2 2975 1964.4 2784.8 1702.6 3092.6 1802.6 3282.8 1540.8V1864.4L3590.5 1964.4 3282.8 2064.4" fill="#b20000"/>
<path transform="matrix(.1,0,0,-.1,0,792)" stroke-width="1" stroke-linecap="butt" stroke-miterlimit="10" stroke-linejoin="miter" fill="none" stroke="#000000" d="M3282.8 2388 3092.6 2126.2 2784.8 2226.2 2975 1964.4 2784.8 1702.6 3092.6 1802.6 3282.8 1540.8V1864.4L3590.5 1964.4 3282.8 2064.4Z"/>
<path transform="matrix(.1,0,0,-.1,0,792)" d="M3473 6038.7 3663.2 6300.5V6824.1L3165.2 6662.3 2975 6400.5 3165.2 6138.7" fill="#80bf00"/>
<path transform="matrix(.1,0,0,-.1,0,792)" stroke-width="1" stroke-linecap="butt" stroke-miterlimit="10" stroke-linejoin="miter" fill="none" stroke="#000000" d="M3473 6038.7 3663.2 6300.5V6824.1L3165.2 6662.3 2975 6400.5 3165.2 6138.7Z"/>
<path transform="matrix(.1,0,0,-.1,0,792)" d="M2477 2326.2 2286.8 2064.4V1540.8L2784.8 1702.6 2975 1964.4 2784.8 2226.2" fill="#80bf00"/>
<path transform="matrix(.1,0,0,-.1,0,792)" stroke-width="1" stroke-linecap="butt" stroke-miterlimit="10" stroke-linejoin="miter" fill="none" stroke="#000000" d="M2477 2326.2 2286.8 2064.4V1540.8L2784.8 1702.6 2975 1964.4 2784.8 2226.2Z"/>
<path transform="matrix(.1,0,0,-.1,0,792)" d="M1861.5 6238.7 1553.7 6662.3 1245.9 6762.3 1055.7 6500.5V6176.9L1363.5 6076.9" fill="#808000"/>
<path transform="matrix(.1,0,0,-.1,0,792)" stroke-width="1" stroke-linecap="butt" stroke-miterlimit="10" stroke-linejoin="miter" fill="none" stroke="#000000" d="M1861.5 6238.7 1553.7 6662.3 1245.9 6762.3 1055.7 6500.5V6176.9L1363.5 6076.9Z"/>
<path transform="matrix(.1,0,0,-.1,0,792)" d="M1861.5 6238.7 2359.5 6400.5 2051.7 6500.5V6824.1L1861.5 6562.3 1553.7 6662.3" fill="#b20000"/>
<path transform="matrix(.1,0,0,-.1,0,792)" stroke-width="1" stroke-linecap="butt" stroke-miterlimit="10" stroke-linejoin="miter" fill="none" stroke="#000000" d="M1861.5 6238.7 2359.5 6400.5 2051.7 6500.5V6824.1L1861.5 6562.3 1553.7 6662.3Z"/>
<path transform="matrix(.1,0,0,-.1,0,792)" d="M1481.1 2326.2 1173.3 2226.2 983.102 1964.4 1173.3 1702.6 1671.3 1540.8V2064.4" fill="#80bf00"/>
<path transform="matrix(.1,0,0,-.1,0,792)" stroke-width="1" stroke-linecap="butt" stroke-miterlimit="10" stroke-linejoin="miter" fill="none" stroke="#000000" d="M1481.1 2326.2 1173.3 2226.2 983.102 1964.4 1173.3 1702.6 1671.3 1540.8V2064.4Z"/>
<path transform="matrix(.1,0,0,-.1,0,792)" d="M4468.9 6038.7 4776.7 6138.7 4966.9 6400.5 4776.7 6662.3 4278.7 6824.1V6300.5" fill="#80bf00"/>
<path transform="matrix(.1,0,0,-.1,0,792)" stroke-width="1" stroke-linecap="butt" stroke-miterlimit="10" stroke-linejoin="miter" fill="none" stroke="#000000" d="M4468.9 6038.7 4776.7 6138.7 4966.9 6400.5 4776.7 6662.3 4278.7 6824.1V6300.5Z"/>
<path transform="matrix(.1,0,0,-.1,0,792)" d="M4088.5 2126.2 4396.3 1702.6 4704.1 1602.6 4894.3 1864.4V2188L4586.5 2288" fill="#808000"/>
<path transform="matrix(.1,0,0,-.1,0,792)" stroke-width="1" stroke-linecap="butt" stroke-miterlimit="10" stroke-linejoin="miter" fill="none" stroke="#000000" d="M4088.5 2126.2 4396.3 1702.6 4704.1 1602.6 4894.3 1864.4V2188L4586.5 2288Z"/>
<path transform="matrix(.1,0,0,-.1,0,792)" d="M4088.5 2126.2 3590.5 1964.4 3898.3 1864.4V1540.8L4088.5 1802.6 4396.3 1702.6" fill="#b20000"/>
<path transform="matrix(.1,0,0,-.1,0,792)" stroke-width="1" stroke-linecap="butt" stroke-miterlimit="10" stroke-linejoin="miter" fill="none" stroke="#000000" d="M4088.5 2126.2 3590.5 1964.4 3898.3 1864.4V1540.8L4088.5 1802.6 4396.3 1702.6Z"/>
<path transform="matrix(.1,0,0,-.1,0,792)" d="M4278.7 6300.5V6824.1L4088.5 6885.9 3971 6724.1Z" fill="#804000"/>
<path transform="matrix(.1,0,0,-.1,0,792)" stroke-width="1" stroke-linecap="butt" stroke-miterlimit="10" stroke-linejoin="miter" fill="none" stroke="#000000" d="M4278.7 6300.5V6824.1L4088.5 6885.9 3971 6724.1Z"/>
<path transform="matrix(.1,0,0,-.1,0,792)" d="M3663.2 6300.5 3971 6724.1 3853.4 6885.9 3663.2 6824.1Z" fill="#804000"/>
<path transform="matrix(.1,0,0,-.1,0,792)" stroke-width="1" stroke-linecap="butt" stroke-miterlimit="10" stroke-linejoin="miter" fill="none" stroke="#000000" d="M3663.2 6300.5 3971 6724.1 3853.4 6885.9 3663.2 6824.1Z"/>
<path transform="matrix(.1,0,0,-.1,0,792)" d="M1671.3 2064.4V1540.8L1861.5 1479 1979 1640.8Z" fill="#804000"/>
<path transform="matrix(.1,0,0,-.1,0,792)" stroke-width="1" stroke-linecap="butt" stroke-miterlimit="10" stroke-linejoin="miter" fill="none" stroke="#000000" d="M1671.3 2064.4V1540.8L1861.5 1479 1979 1640.8Z"/>
<path transform="matrix(.1,0,0,-.1,0,792)" d="M2286.8 2064.4 1979 1640.8 2096.6 1479 2286.8 1540.8Z" fill="#804000"/>
<path transform="matrix(.1,0,0,-.1,0,792)" stroke-width="1" stroke-linecap="butt" stroke-miterlimit="10" stroke-linejoin="miter" fill="none" stroke="#000000" d="M2286.8 2064.4 1979 1640.8 2096.6 1479 2286.8 1540.8Z"/>
<path transform="matrix(.1,0,0,-.1,0,792)" d="M2359.5 6400.5 2667.2 6500.5V6824.1L2359.5 7247.7 2051.7 6824.1V6500.5" fill="#808000"/>
<path transform="matrix(.1,0,0,-.1,0,792)" stroke-width="1" stroke-linecap="butt" stroke-miterlimit="10" stroke-linejoin="miter" fill="none" stroke="#000000" d="M2359.5 6400.5 2667.2 6500.5V6824.1L2359.5 7247.7 2051.7 6824.1V6500.5Z"/>
<path transform="matrix(.1,0,0,-.1,0,792)" d="M1363.5 6076.9 1055.7 6176.9V6500.5L865.5 6238.7 557.801 6338.7 748 6076.9 557.801 5815.1 865.5 5915.1 1055.7 5653.3V5976.9" fill="#b20000"/>
<path transform="matrix(.1,0,0,-.1,0,792)" stroke-width="1" stroke-linecap="butt" stroke-miterlimit="10" stroke-linejoin="miter" fill="none" stroke="#000000" d="M1363.5 6076.9 1055.7 6176.9V6500.5L865.5 6238.7 557.801 6338.7 748 6076.9 557.801 5815.1 865.5 5915.1 1055.7 5653.3V5976.9Z"/>
<path transform="matrix(.1,0,0,-.1,0,792)" d="M1363.5 5229.7 1055.7 5653.3V5129.7L1245.9 5067.9Z" fill="#804000"/>
<path transform="matrix(.1,0,0,-.1,0,792)" stroke-width="1" stroke-linecap="butt" stroke-miterlimit="10" stroke-linejoin="miter" fill="none" stroke="#000000" d="M1363.5 5229.7 1055.7 5653.3V5129.7L1245.9 5067.9Z"/>
<path transform="matrix(.1,0,0,-.1,0,792)" d="M1363.5 4182.4 1245.9 4344.2 1055.7 4282.4V3758.8Z" fill="#804000"/>
<path transform="matrix(.1,0,0,-.1,0,792)" stroke-width="1" stroke-linecap="butt" stroke-miterlimit="10" stroke-linejoin="miter" fill="none" stroke="#000000" d="M1363.5 4182.4 1245.9 4344.2 1055.7 4282.4V3758.8Z"/>
<path transform="matrix(.1,0,0,-.1,0,792)" d="M1363.5 3335.2 1055.7 3435.2V3758.8L865.5 3497 557.801 3597 865.5 3173.4" fill="#b20000"/>
<path transform="matrix(.1,0,0,-.1,0,792)" stroke-width="1" stroke-linecap="butt" stroke-miterlimit="10" stroke-linejoin="miter" fill="none" stroke="#000000" d="M1363.5 3335.2 1055.7 3435.2V3758.8L865.5 3497 557.801 3597 865.5 3173.4Z"/>
<path transform="matrix(.1,0,0,-.1,0,792)" d="M1363.5 2488 1173.3 2749.8 865.5 2849.8 675.301 2588V2064.4L1173.3 2226.2" fill="#808000"/>
<path transform="matrix(.1,0,0,-.1,0,792)" stroke-width="1" stroke-linecap="butt" stroke-miterlimit="10" stroke-linejoin="miter" fill="none" stroke="#000000" d="M1363.5 2488 1173.3 2749.8 865.5 2849.8 675.301 2588V2064.4L1173.3 2226.2Z"/>
<path transform="matrix(.1,0,0,-.1,0,792)" d="M4586.5 2288 4894.3 2188V1864.4L5084.5 2126.2 5392.2 2026.2 5202 2288 5392.2 2549.8 5084.5 2449.8 4894.3 2711.6V2388" fill="#b20000"/>
<path transform="matrix(.1,0,0,-.1,0,792)" stroke-width="1" stroke-linecap="butt" stroke-miterlimit="10" stroke-linejoin="miter" fill="none" stroke="#000000" d="M4586.5 2288 4894.3 2188V1864.4L5084.5 2126.2 5392.2 2026.2 5202 2288 5392.2 2549.8 5084.5 2449.8 4894.3 2711.6V2388Z"/>
<path transform="matrix(.1,0,0,-.1,0,792)" d="M4586.5 3135.2 4894.3 2711.6V3235.2L4704.1 3297Z" fill="#804000"/>
<path transform="matrix(.1,0,0,-.1,0,792)" stroke-width="1" stroke-linecap="butt" stroke-miterlimit="10" stroke-linejoin="miter" fill="none" stroke="#000000" d="M4586.5 3135.2 4894.3 2711.6V3235.2L4704.1 3297Z"/>
<path transform="matrix(.1,0,0,-.1,0,792)" d="M4586.5 4182.4 4704.1 4020.6 4894.3 4082.4V4606Z" fill="#804000"/>
<path transform="matrix(.1,0,0,-.1,0,792)" stroke-width="1" stroke-linecap="butt" stroke-miterlimit="10" stroke-linejoin="miter" fill="none" stroke="#000000" d="M4586.5 4182.4 4704.1 4020.6 4894.3 4082.4V4606Z"/>
<path transform="matrix(.1,0,0,-.1,0,792)" d="M4586.5 5029.7 4894.3 4929.7V4606L5084.5 4867.9 5392.2 4767.9 5084.5 5191.5" fill="#b20000"/>
<path transform="matrix(.1,0,0,-.1,0,792)" stroke-width="1" stroke-linecap="butt" stroke-miterlimit="10" stroke-linejoin="miter" fill="none" stroke="#000000" d="M4586.5 5029.7 4894.3 4929.7V4606L5084.5 4867.9 5392.2 4767.9 5084.5 5191.5Z"/>
<path transform="matrix(.1,0,0,-.1,0,792)" d="M4586.5 5876.9 4776.7 5615.1 5084.5 5515.1 5274.7 5776.9V6300.5L4776.7 6138.7" fill="#808000"/>
<path transform="matrix(.1,0,0,-.1,0,792)" stroke-width="1" stroke-linecap="butt" stroke-miterlimit="10" stroke-linejoin="miter" fill="none" stroke="#000000" d="M4586.5 5876.9 4776.7 5615.1 5084.5 5515.1 5274.7 5776.9V6300.5L4776.7 6138.7Z"/>
<path transform="matrix(.1,0,0,-.1,0,792)" d="M3590.5 1964.4 3282.8 1864.4V1540.8L3590.5 1117.2 3898.3 1540.8V1864.4" fill="#808000"/>
<path transform="matrix(.1,0,0,-.1,0,792)" stroke-width="1" stroke-linecap="butt" stroke-miterlimit="10" stroke-linejoin="miter" fill="none" stroke="#000000" d="M3590.5 1964.4 3282.8 1864.4V1540.8L3590.5 1117.2 3898.3 1540.8V1864.4Z"/>
<path transform="matrix(.1,0,0,-.1,0,792)" d="M2857.4 6562.3 3165.2 6662.3 3473 7085.9 2975 7247.7 2667.2 7147.7V6824.1" fill="#80bf00"/>
<path transform="matrix(.1,0,0,-.1,0,792)" stroke-width="1" stroke-linecap="butt" stroke-miterlimit="10" stroke-linejoin="miter" fill="none" stroke="#000000" d="M2857.4 6562.3 3165.2 6662.3 3473 7085.9 2975 7247.7 2667.2 7147.7V6824.1Z"/>
<path transform="matrix(.1,0,0,-.1,0,792)" d="M1861.5 6562.3 2051.7 6824.1V7347.7L1553.7 7185.9 1363.5 6924.1 1553.7 6662.3" fill="#808000"/>
<path transform="matrix(.1,0,0,-.1,0,792)" stroke-width="1" stroke-linecap="butt" stroke-miterlimit="10" stroke-linejoin="miter" fill="none" stroke="#000000" d="M1861.5 6562.3 2051.7 6824.1V7347.7L1553.7 7185.9 1363.5 6924.1 1553.7 6662.3Z"/>
<path transform="matrix(.1,0,0,-.1,0,792)" d="M3092.6 1802.6 2784.8 1702.6 2477 1279 2975 1117.2 3282.8 1217.2V1540.8" fill="#80bf00"/>
<path transform="matrix(.1,0,0,-.1,0,792)" stroke-width="1" stroke-linecap="butt" stroke-miterlimit="10" stroke-linejoin="miter" fill="none" stroke="#000000" d="M3092.6 1802.6 2784.8 1702.6 2477 1279 2975 1117.2 3282.8 1217.2V1540.8Z"/>
<path transform="matrix(.1,0,0,-.1,0,792)" d="M4088.5 1802.6 3898.3 1540.8V1017.2L4396.3 1179 4586.5 1440.8 4396.3 1702.6" fill="#808000"/>
<path transform="matrix(.1,0,0,-.1,0,792)" stroke-width="1" stroke-linecap="butt" stroke-miterlimit="10" stroke-linejoin="miter" fill="none" stroke="#000000" d="M4088.5 1802.6 3898.3 1540.8V1017.2L4396.3 1179 4586.5 1440.8 4396.3 1702.6Z"/>
<path transform="matrix(.1,0,0,-.1,0,792)" d="M3165.2 6662.3 3663.2 6824.1V7024.1L3473 7085.9Z" fill="#804000"/>
<path transform="matrix(.1,0,0,-.1,0,792)" stroke-width="1" stroke-linecap="butt" stroke-miterlimit="10" stroke-linejoin="miter" fill="none" stroke="#000000" d="M3165.2 6662.3 3663.2 6824.1V7024.1L3473 7085.9Z"/>
<path transform="matrix(.1,0,0,-.1,0,792)" d="M1553.7 6662.3 1363.5 6924.1 1553.7 7185.9 1245.9 7085.9 1055.7 7347.7V7024.1L748 6924.1 1055.7 6824.1V6500.5L1245.9 6762.3" fill="#b20000"/>
<path transform="matrix(.1,0,0,-.1,0,792)" stroke-width="1" stroke-linecap="butt" stroke-miterlimit="10" stroke-linejoin="miter" fill="none" stroke="#000000" d="M1553.7 6662.3 1363.5 6924.1 1553.7 7185.9 1245.9 7085.9 1055.7 7347.7V7024.1L748 6924.1 1055.7 6824.1V6500.5L1245.9 6762.3Z"/>
<path transform="matrix(.1,0,0,-.1,0,792)" d="M1173.3 2749.8 865.5 3173.4 367.5 3011.6 675.301 2911.6V2588L865.5 2849.8" fill="#b20000"/>
<path transform="matrix(.1,0,0,-.1,0,792)" stroke-width="1" stroke-linecap="butt" stroke-miterlimit="10" stroke-linejoin="miter" fill="none" stroke="#000000" d="M1173.3 2749.8 865.5 3173.4 367.5 3011.6 675.301 2911.6V2588L865.5 2849.8Z"/>
<path transform="matrix(.1,0,0,-.1,0,792)" d="M1173.3 2226.2 675.301 2064.4V1540.8L865.5 1802.6 1173.3 1702.6 983.102 1964.4" fill="#b20000"/>
<path transform="matrix(.1,0,0,-.1,0,792)" stroke-width="1" stroke-linecap="butt" stroke-miterlimit="10" stroke-linejoin="miter" fill="none" stroke="#000000" d="M1173.3 2226.2 675.301 2064.4V1540.8L865.5 1802.6 1173.3 1702.6 983.102 1964.4Z"/>
<path transform="matrix(.1,0,0,-.1,0,792)" d="M4776.7 5615.1 5084.5 5191.5 5582.5 5353.3 5274.7 5453.3V5776.9L5084.5 5515.1" fill="#b20000"/>
<path transform="matrix(.1,0,0,-.1,0,792)" stroke-width="1" stroke-linecap="butt" stroke-miterlimit="10" stroke-linejoin="miter" fill="none" stroke="#000000" d="M4776.7 5615.1 5084.5 5191.5 5582.5 5353.3 5274.7 5453.3V5776.9L5084.5 5515.1Z"/>
<path transform="matrix(.1,0,0,-.1,0,792)" d="M4776.7 6138.7 5274.7 6300.5V6824.1L5084.5 6562.3 4776.7 6662.3 4966.9 6400.5" fill="#b20000"/>
<path transform="matrix(.1,0,0,-.1,0,792)" stroke-width="1" stroke-linecap="butt" stroke-miterlimit="10" stroke-linejoin="miter" fill="none" stroke="#000000" d="M4776.7 6138.7 5274.7 6300.5V6824.1L5084.5 6562.3 4776.7 6662.3 4966.9 6400.5Z"/>
<path transform="matrix(.1,0,0,-.1,0,792)" d="M4776.7 6662.3 4468.9 7085.9 4278.7 7024.1V6824.1Z" fill="#804000"/>
<path transform="matrix(.1,0,0,-.1,0,792)" stroke-width="1" stroke-linecap="butt" stroke-miterlimit="10" stroke-linejoin="miter" fill="none" stroke="#000000" d="M4776.7 6662.3 4468.9 7085.9 4278.7 7024.1V6824.1Z"/>
<path transform="matrix(.1,0,0,-.1,0,792)" d="M4776.7 6662.3 5084.5 6562.3 5274.7 6824.1V7147.7L4966.9 7247.7 4468.9 7085.9" fill="#80bf00"/>
<path transform="matrix(.1,0,0,-.1,0,792)" stroke-width="1" stroke-linecap="butt" stroke-miterlimit="10" stroke-linejoin="miter" fill="none" stroke="#000000" d="M4776.7 6662.3 5084.5 6562.3 5274.7 6824.1V7147.7L4966.9 7247.7 4468.9 7085.9Z"/>
<path transform="matrix(.1,0,0,-.1,0,792)" d="M1173.3 1702.6 1481.1 1279 1671.3 1340.8V1540.8Z" fill="#804000"/>
<path transform="matrix(.1,0,0,-.1,0,792)" stroke-width="1" stroke-linecap="butt" stroke-miterlimit="10" stroke-linejoin="miter" fill="none" stroke="#000000" d="M1173.3 1702.6 1481.1 1279 1671.3 1340.8V1540.8Z"/>
<path transform="matrix(.1,0,0,-.1,0,792)" d="M1173.3 1702.6 865.5 1802.6 675.301 1540.8V1217.2L983.102 1117.2 1481.1 1279" fill="#80bf00"/>
<path transform="matrix(.1,0,0,-.1,0,792)" stroke-width="1" stroke-linecap="butt" stroke-miterlimit="10" stroke-linejoin="miter" fill="none" stroke="#000000" d="M1173.3 1702.6 865.5 1802.6 675.301 1540.8V1217.2L983.102 1117.2 1481.1 1279Z"/>
<path transform="matrix(.1,0,0,-.1,0,792)" d="M2784.8 1702.6 2286.8 1540.8V1340.8L2477 1279Z" fill="#804000"/>
<path transform="matrix(.1,0,0,-.1,0,792)" stroke-width="1" stroke-linecap="butt" stroke-miterlimit="10" stroke-linejoin="miter" fill="none" stroke="#000000" d="M2784.8 1702.6 2286.8 1540.8V1340.8L2477 1279Z"/>
<path transform="matrix(.1,0,0,-.1,0,792)" d="M4396.3 1702.6 4586.5 1440.8 4396.3 1179 4704.1 1279 4894.3 1017.2V1340.8L5202 1440.8 4894.3 1540.8V1864.4L4704.1 1602.6" fill="#b20000"/>
<path transform="matrix(.1,0,0,-.1,0,792)" stroke-width="1" stroke-linecap="butt" stroke-miterlimit="10" stroke-linejoin="miter" fill="none" stroke="#000000" d="M4396.3 1702.6 4586.5 1440.8 4396.3 1179 4704.1 1279 4894.3 1017.2V1340.8L5202 1440.8 4894.3 1540.8V1864.4L4704.1 1602.6Z"/>
<path transform="matrix(.1,0,0,-.1,0,792)" d="M3971 6724.1 4088.5 6885.9 4278.7 6824.1V7024.1L4468.9 7085.9 4351.4 7247.7 4468.9 7409.5 4278.7 7471.3V7671.3L4088.5 7609.5 3971 7771.3 3853.4 7609.5 3663.2 7671.3V7471.3L3473 7409.5 3590.5 7247.7 3473 7085.9 3663.2 7024.1V6824.1L3853.4 6885.9" fill="#ffbfbf"/>
<path transform="matrix(.1,0,0,-.1,0,792)" stroke-width="1" stroke-linecap="butt" stroke-miterlimit="10" stroke-linejoin="miter" fill="none" stroke="#000000" d="M3971 6724.1 4088.5 6885.9 4278.7 6824.1V7024.1L4468.9 7085.9 4351.4 7247.7 4468.9 7409.5 4278.7 7471.3V7671.3L4088.5 7609.5 3971 7771.3 3853.4 7609.5 3663.2 7671.3V7471.3L3473 7409.5 3590.5 7247.7 3473 7085.9 3663.2 7024.1V6824.1L3853.4 6885.9Z"/>
<path transform="matrix(.1,0,0,-.1,0,792)" d="M1979 1640.8 1861.5 1479 1671.3 1540.8V1340.8L1481.1 1279 1598.6 1117.2 1481.1 955.398 1671.3 893.602V693.602L1861.5 755.398 1979 593.602 2096.6 755.398 2286.8 693.602V893.602L2477 955.398 2359.5 1117.2 2477 1279 2286.8 1340.8V1540.8L2096.6 1479" fill="#ffbfbf"/>
<path transform="matrix(.1,0,0,-.1,0,792)" stroke-width="1" stroke-linecap="butt" stroke-miterlimit="10" stroke-linejoin="miter" fill="none" stroke="#000000" d="M1979 1640.8 1861.5 1479 1671.3 1540.8V1340.8L1481.1 1279 1598.6 1117.2 1481.1 955.398 1671.3 893.602V693.602L1861.5 755.398 1979 593.602 2096.6 755.398 2286.8 693.602V893.602L2477 955.398 2359.5 1117.2 2477 1279 2286.8 1340.8V1540.8L2096.6 1479Z"/>
<path transform="matrix(.1,0,0,-.1,0,792)" d="M2667.2 6824.1V7147.7L2975 7247.7 2667.2 7347.7V7671.3L2359.5 7247.7" fill="#b20000"/>
<path transform="matrix(.1,0,0,-.1,0,792)" stroke-width="1" stroke-linecap="butt" stroke-miterlimit="10" stroke-linejoin="miter" fill="none" stroke="#000000" d="M2667.2 6824.1V7147.7L2975 7247.7 2667.2 7347.7V7671.3L2359.5 7247.7Z"/>
<path transform="matrix(.1,0,0,-.1,0,792)" d="M2051.7 6824.1 2359.5 7247.7 2241.9 7409.5 2051.7 7347.7Z" fill="#804000"/>
<path transform="matrix(.1,0,0,-.1,0,792)" stroke-width="1" stroke-linecap="butt" stroke-miterlimit="10" stroke-linejoin="miter" fill="none" stroke="#000000" d="M2051.7 6824.1 2359.5 7247.7 2241.9 7409.5 2051.7 7347.7Z"/>
<path transform="matrix(.1,0,0,-.1,0,792)" d="M1055.7 6824.1 748 6924.1 250 6762.3 557.801 6338.7 865.5 6238.7 1055.7 6500.5" fill="#808000"/>
<path transform="matrix(.1,0,0,-.1,0,792)" stroke-width="1" stroke-linecap="butt" stroke-miterlimit="10" stroke-linejoin="miter" fill="none" stroke="#000000" d="M1055.7 6824.1 748 6924.1 250 6762.3 557.801 6338.7 865.5 6238.7 1055.7 6500.5Z"/>
<path transform="matrix(.1,0,0,-.1,0,792)" d="M1055.7 5653.3 865.5 5915.1 557.801 5815.1 250 5391.5 1055.7 5129.7" fill="#808000"/>
<path transform="matrix(.1,0,0,-.1,0,792)" stroke-width="1" stroke-linecap="butt" stroke-miterlimit="10" stroke-linejoin="miter" fill="none" stroke="#000000" d="M1055.7 5653.3 865.5 5915.1 557.801 5815.1 250 5391.5 1055.7 5129.7Z"/>
<path transform="matrix(.1,0,0,-.1,0,792)" d="M1055.7 5129.7 250 5391.5 59.8008 5129.7V4806L865.5 4544.2 1055.7 4806" fill="#80bf00"/>
<path transform="matrix(.1,0,0,-.1,0,792)" stroke-width="1" stroke-linecap="butt" stroke-miterlimit="10" stroke-linejoin="miter" fill="none" stroke="#000000" d="M1055.7 5129.7 250 5391.5 59.8008 5129.7V4806L865.5 4544.2 1055.7 4806Z"/>
<path transform="matrix(.1,0,0,-.1,0,792)" d="M1055.7 4482.4 865.5 4544.2 557.801 4120.6 1055.7 4282.4Z" fill="#804000"/>
<path transform="matrix(.1,0,0,-.1,0,792)" stroke-width="1" stroke-linecap="butt" stroke-miterlimit="10" stroke-linejoin="miter" fill="none" stroke="#000000" d="M1055.7 4482.4 865.5 4544.2 557.801 4120.6 1055.7 4282.4Z"/>
<path transform="matrix(.1,0,0,-.1,0,792)" d="M1055.7 4282.4 557.801 4120.6 367.5 3858.8 557.801 3597 865.5 3497 1055.7 3758.8" fill="#808000"/>
<path transform="matrix(.1,0,0,-.1,0,792)" stroke-width="1" stroke-linecap="butt" stroke-miterlimit="10" stroke-linejoin="miter" fill="none" stroke="#000000" d="M1055.7 4282.4 557.801 4120.6 367.5 3858.8 557.801 3597 865.5 3497 1055.7 3758.8Z"/>
<path transform="matrix(.1,0,0,-.1,0,792)" d="M4894.3 1864.4V1540.8L5202 1440.8 5700 1602.6 5392.2 2026.2 5084.5 2126.2" fill="#808000"/>
<path transform="matrix(.1,0,0,-.1,0,792)" stroke-width="1" stroke-linecap="butt" stroke-miterlimit="10" stroke-linejoin="miter" fill="none" stroke="#000000" d="M4894.3 1864.4V1540.8L5202 1440.8 5700 1602.6 5392.2 2026.2 5084.5 2126.2Z"/>
<path transform="matrix(.1,0,0,-.1,0,792)" d="M4894.3 2711.6 5084.5 2449.8 5392.2 2549.8 5700 2973.4 4894.3 3235.2" fill="#808000"/>
<path transform="matrix(.1,0,0,-.1,0,792)" stroke-width="1" stroke-linecap="butt" stroke-miterlimit="10" stroke-linejoin="miter" fill="none" stroke="#000000" d="M4894.3 2711.6 5084.5 2449.8 5392.2 2549.8 5700 2973.4 4894.3 3235.2Z"/>
<path transform="matrix(.1,0,0,-.1,0,792)" d="M4894.3 3235.2 5700 2973.4 5890.2 3235.2V3558.8L5084.5 3820.6 4894.3 3558.8" fill="#80bf00"/>
<path transform="matrix(.1,0,0,-.1,0,792)" stroke-width="1" stroke-linecap="butt" stroke-miterlimit="10" stroke-linejoin="miter" fill="none" stroke="#000000" d="M4894.3 3235.2 5700 2973.4 5890.2 3235.2V3558.8L5084.5 3820.6 4894.3 3558.8Z"/>
<path transform="matrix(.1,0,0,-.1,0,792)" d="M4894.3 3882.4 5084.5 3820.6 5392.2 4244.2 4894.3 4082.4Z" fill="#804000"/>
<path transform="matrix(.1,0,0,-.1,0,792)" stroke-width="1" stroke-linecap="butt" stroke-miterlimit="10" stroke-linejoin="miter" fill="none" stroke="#000000" d="M4894.3 3882.4 5084.5 3820.6 5392.2 4244.2 4894.3 4082.4Z"/>
<path transform="matrix(.1,0,0,-.1,0,792)" d="M4894.3 4082.4 5392.2 4244.2 5582.5 4506 5392.2 4767.9 5084.5 4867.9 4894.3 4606" fill="#808000"/>
<path transform="matrix(.1,0,0,-.1,0,792)" stroke-width="1" stroke-linecap="butt" stroke-miterlimit="10" stroke-linejoin="miter" fill="none" stroke="#000000" d="M4894.3 4082.4 5392.2 4244.2 5582.5 4506 5392.2 4767.9 5084.5 4867.9 4894.3 4606Z"/>
<path transform="matrix(.1,0,0,-.1,0,792)" d="M3282.8 1540.8V1217.2L2975 1117.2 3282.8 1017.2V693.602L3590.5 1117.2" fill="#b20000"/>
<path transform="matrix(.1,0,0,-.1,0,792)" stroke-width="1" stroke-linecap="butt" stroke-miterlimit="10" stroke-linejoin="miter" fill="none" stroke="#000000" d="M3282.8 1540.8V1217.2L2975 1117.2 3282.8 1017.2V693.602L3590.5 1117.2Z"/>
<path transform="matrix(.1,0,0,-.1,0,792)" d="M3898.3 1540.8 3590.5 1117.2 3708.1 955.398 3898.3 1017.2Z" fill="#804000"/>
<path transform="matrix(.1,0,0,-.1,0,792)" stroke-width="1" stroke-linecap="butt" stroke-miterlimit="10" stroke-linejoin="miter" fill="none" stroke="#000000" d="M3898.3 1540.8 3590.5 1117.2 3708.1 955.398 3898.3 1017.2Z"/>
<path transform="matrix(.1,0,0,-.1,0,792)" d="M1055.7 7024.1V7347.7L748 7771.3 440.199 7347.7V7024.1L748 6924.1" fill="#808000"/>
<path transform="matrix(.1,0,0,-.1,0,792)" stroke-width="1" stroke-linecap="butt" stroke-miterlimit="10" stroke-linejoin="miter" fill="none" stroke="#000000" d="M1055.7 7024.1V7347.7L748 7771.3 440.199 7347.7V7024.1L748 6924.1Z"/>
<path transform="matrix(.1,0,0,-.1,0,792)" d="M4894.3 1340.8V1017.2L5202 593.602 5509.8 1017.2V1340.8L5202 1440.8" fill="#808000"/>
<path transform="matrix(.1,0,0,-.1,0,792)" stroke-width="1" stroke-linecap="butt" stroke-miterlimit="10" stroke-linejoin="miter" fill="none" stroke="#000000" d="M4894.3 1340.8V1017.2L5202 593.602 5509.8 1017.2V1340.8L5202 1440.8Z"/>
<path transform="matrix(.1,0,0,-.1,0,792)" d="M4468.9 7085.9 4966.9 7247.7 4468.9 7409.5 4351.4 7247.7Z" fill="#804000"/>
<path transform="matrix(.1,0,0,-.1,0,792)" stroke-width="1" stroke-linecap="butt" stroke-miterlimit="10" stroke-linejoin="miter" fill="none" stroke="#000000" d="M4468.9 7085.9 4966.9 7247.7 4468.9 7409.5 4351.4 7247.7Z"/>
<path transform="matrix(.1,0,0,-.1,0,792)" d="M3473 7085.9 3590.5 7247.7 3473 7409.5 2975 7247.7Z" fill="#804000"/>
<path transform="matrix(.1,0,0,-.1,0,792)" stroke-width="1" stroke-linecap="butt" stroke-miterlimit="10" stroke-linejoin="miter" fill="none" stroke="#000000" d="M3473 7085.9 3590.5 7247.7 3473 7409.5 2975 7247.7Z"/>
<path transform="matrix(.1,0,0,-.1,0,792)" d="M1245.9 7085.9 1553.7 7185.9 1861.5 7609.5 1055.7 7871.3V7347.7" fill="#808000"/>
<path transform="matrix(.1,0,0,-.1,0,792)" stroke-width="1" stroke-linecap="butt" stroke-miterlimit="10" stroke-linejoin="miter" fill="none" stroke="#000000" d="M1245.9 7085.9 1553.7 7185.9 1861.5 7609.5 1055.7 7871.3V7347.7Z"/>
<path transform="matrix(.1,0,0,-.1,0,792)" d="M865.5 4544.2 59.8008 4806V4282.4L250 4020.6 557.801 4120.6" fill="#808000"/>
<path transform="matrix(.1,0,0,-.1,0,792)" stroke-width="1" stroke-linecap="butt" stroke-miterlimit="10" stroke-linejoin="miter" fill="none" stroke="#000000" d="M865.5 4544.2 59.8008 4806V4282.4L250 4020.6 557.801 4120.6Z"/>
<path transform="matrix(.1,0,0,-.1,0,792)" d="M865.5 3173.4 557.801 3597 250 3697 59.8008 3435.2V3111.6L367.5 3011.6" fill="#808000"/>
<path transform="matrix(.1,0,0,-.1,0,792)" stroke-width="1" stroke-linecap="butt" stroke-miterlimit="10" stroke-linejoin="miter" fill="none" stroke="#000000" d="M865.5 3173.4 557.801 3597 250 3697 59.8008 3435.2V3111.6L367.5 3011.6Z"/>
<path transform="matrix(.1,0,0,-.1,0,792)" d="M5084.5 3820.6 5890.2 3558.8V4082.4L5700 4344.2 5392.2 4244.2" fill="#808000"/>
<path transform="matrix(.1,0,0,-.1,0,792)" stroke-width="1" stroke-linecap="butt" stroke-miterlimit="10" stroke-linejoin="miter" fill="none" stroke="#000000" d="M5084.5 3820.6 5890.2 3558.8V4082.4L5700 4344.2 5392.2 4244.2Z"/>
<path transform="matrix(.1,0,0,-.1,0,792)" d="M5084.5 5191.5 5392.2 4767.9 5700 4667.9 5890.2 4929.7V5253.3L5582.5 5353.3" fill="#808000"/>
<path transform="matrix(.1,0,0,-.1,0,792)" stroke-width="1" stroke-linecap="butt" stroke-miterlimit="10" stroke-linejoin="miter" fill="none" stroke="#000000" d="M5084.5 5191.5 5392.2 4767.9 5700 4667.9 5890.2 4929.7V5253.3L5582.5 5353.3Z"/>
<path transform="matrix(.1,0,0,-.1,0,792)" d="M1481.1 1279 983.102 1117.2 1481.1 955.398 1598.6 1117.2Z" fill="#804000"/>
<path transform="matrix(.1,0,0,-.1,0,792)" stroke-width="1" stroke-linecap="butt" stroke-miterlimit="10" stroke-linejoin="miter" fill="none" stroke="#000000" d="M1481.1 1279 983.102 1117.2 1481.1 955.398 1598.6 1117.2Z"/>
<path transform="matrix(.1,0,0,-.1,0,792)" d="M2477 1279 2359.5 1117.2 2477 955.398 2975 1117.2Z" fill="#804000"/>
<path transform="matrix(.1,0,0,-.1,0,792)" stroke-width="1" stroke-linecap="butt" stroke-miterlimit="10" stroke-linejoin="miter" fill="none" stroke="#000000" d="M2477 1279 2359.5 1117.2 2477 955.398 2975 1117.2Z"/>
<path transform="matrix(.1,0,0,-.1,0,792)" d="M4704.1 1279 4396.3 1179 4088.5 755.398 4894.3 493.602V1017.2" fill="#808000"/>
<path transform="matrix(.1,0,0,-.1,0,792)" stroke-width="1" stroke-linecap="butt" stroke-miterlimit="10" stroke-linejoin="miter" fill="none" stroke="#000000" d="M4704.1 1279 4396.3 1179 4088.5 755.398 4894.3 493.602V1017.2Z"/>
<path transform="matrix(.1,0,0,-.1,0,792)" d="M1553.7 7185.9 2051.7 7347.7V7547.7L1861.5 7609.5Z" fill="#804000"/>
<path transform="matrix(.1,0,0,-.1,0,792)" stroke-width="1" stroke-linecap="butt" stroke-miterlimit="10" stroke-linejoin="miter" fill="none" stroke="#000000" d="M1553.7 7185.9 2051.7 7347.7V7547.7L1861.5 7609.5Z"/>
<path transform="matrix(.1,0,0,-.1,0,792)" d="M4396.3 1179 3898.3 1017.2V817.199L4088.5 755.398Z" fill="#804000"/>
<path transform="matrix(.1,0,0,-.1,0,792)" stroke-width="1" stroke-linecap="butt" stroke-miterlimit="10" stroke-linejoin="miter" fill="none" stroke="#000000" d="M4396.3 1179 3898.3 1017.2V817.199L4088.5 755.398Z"/>
<path transform="matrix(.1,0,0,-.1,0,792)" d="M4966.9 7247.7 5274.7 7347.7V7671.3L5084.5 7933.1 4776.7 7833.1 4468.9 7409.5" fill="#80bf00"/>
<path transform="matrix(.1,0,0,-.1,0,792)" stroke-width="1" stroke-linecap="butt" stroke-miterlimit="10" stroke-linejoin="miter" fill="none" stroke="#000000" d="M4966.9 7247.7 5274.7 7347.7V7671.3L5084.5 7933.1 4776.7 7833.1 4468.9 7409.5Z"/>
<path transform="matrix(.1,0,0,-.1,0,792)" d="M4966.9 7247.7 5274.7 7147.7V6824.1L5582.5 7247.7 5274.7 7671.3V7347.7" fill="#b20000"/>
<path transform="matrix(.1,0,0,-.1,0,792)" stroke-width="1" stroke-linecap="butt" stroke-miterlimit="10" stroke-linejoin="miter" fill="none" stroke="#000000" d="M4966.9 7247.7 5274.7 7147.7V6824.1L5582.5 7247.7 5274.7 7671.3V7347.7Z"/>
<path transform="matrix(.1,0,0,-.1,0,792)" d="M2975 7247.7 3473 7409.5 3165.2 7833.1 2857.4 7933.1 2667.2 7671.3V7347.7" fill="#80bf00"/>
<path transform="matrix(.1,0,0,-.1,0,792)" stroke-width="1" stroke-linecap="butt" stroke-miterlimit="10" stroke-linejoin="miter" fill="none" stroke="#000000" d="M2975 7247.7 3473 7409.5 3165.2 7833.1 2857.4 7933.1 2667.2 7671.3V7347.7Z"/>
<path transform="matrix(.1,0,0,-.1,0,792)" d="M2359.5 7247.7 2667.2 7671.3V8194.9L2477 8133.1 2359.5 8294.9 2241.9 8133.1 2051.7 8194.9V7871.3L1861.5 7609.5 2051.7 7547.7V7347.7L2241.9 7409.5" fill="#ffbfbf"/>
<path transform="matrix(.1,0,0,-.1,0,792)" stroke-width="1" stroke-linecap="butt" stroke-miterlimit="10" stroke-linejoin="miter" fill="none" stroke="#000000" d="M2359.5 7247.7 2667.2 7671.3V8194.9L2477 8133.1 2359.5 8294.9 2241.9 8133.1 2051.7 8194.9V7871.3L1861.5 7609.5 2051.7 7547.7V7347.7L2241.9 7409.5Z"/>
<path transform="matrix(.1,0,0,-.1,0,792)" d="M748 6924.1 440.199 7024.1V7347.7L250 7085.9-57.8008 7185.9 250 6762.3" fill="#b20000"/>
<path transform="matrix(.1,0,0,-.1,0,792)" stroke-width="1" stroke-linecap="butt" stroke-miterlimit="10" stroke-linejoin="miter" fill="none" stroke="#000000" d="M748 6924.1 440.199 7024.1V7347.7L250 7085.9-57.8008 7185.9 250 6762.3Z"/>
<path transform="matrix(.1,0,0,-.1,0,792)" d="M748 6076.9 557.801 6338.7 250 6438.7 59.8008 6176.9V5653.3L557.801 5815.1" fill="#808000"/>
<path transform="matrix(.1,0,0,-.1,0,792)" stroke-width="1" stroke-linecap="butt" stroke-miterlimit="10" stroke-linejoin="miter" fill="none" stroke="#000000" d="M748 6076.9 557.801 6338.7 250 6438.7 59.8008 6176.9V5653.3L557.801 5815.1Z"/>
<path transform="matrix(.1,0,0,-.1,0,792)" d="M5202 1440.8 5509.8 1340.8V1017.2L5700 1279 6007.8 1179 5700 1602.6" fill="#b20000"/>
<path transform="matrix(.1,0,0,-.1,0,792)" stroke-width="1" stroke-linecap="butt" stroke-miterlimit="10" stroke-linejoin="miter" fill="none" stroke="#000000" d="M5202 1440.8 5509.8 1340.8V1017.2L5700 1279 6007.8 1179 5700 1602.6Z"/>
<path transform="matrix(.1,0,0,-.1,0,792)" d="M5202 2288 5392.2 2026.2 5700 1926.2 5890.2 2188V2711.6L5392.2 2549.8" fill="#808000"/>
<path transform="matrix(.1,0,0,-.1,0,792)" stroke-width="1" stroke-linecap="butt" stroke-miterlimit="10" stroke-linejoin="miter" fill="none" stroke="#000000" d="M5202 2288 5392.2 2026.2 5700 1926.2 5890.2 2188V2711.6L5392.2 2549.8Z"/>
<path transform="matrix(.1,0,0,-.1,0,792)" d="M983.102 1117.2 675.301 1017.2V693.602L865.5 431.801 1173.3 531.801 1481.1 955.398" fill="#80bf00"/>
<path transform="matrix(.1,0,0,-.1,0,792)" stroke-width="1" stroke-linecap="butt" stroke-miterlimit="10" stroke-linejoin="miter" fill="none" stroke="#000000" d="M983.102 1117.2 675.301 1017.2V693.602L865.5 431.801 1173.3 531.801 1481.1 955.398Z"/>
<path transform="matrix(.1,0,0,-.1,0,792)" d="M983.102 1117.2 675.301 1217.2V1540.8L367.5 1117.2 675.301 693.602V1017.2" fill="#b20000"/>
<path transform="matrix(.1,0,0,-.1,0,792)" stroke-width="1" stroke-linecap="butt" stroke-miterlimit="10" stroke-linejoin="miter" fill="none" stroke="#000000" d="M983.102 1117.2 675.301 1217.2V1540.8L367.5 1117.2 675.301 693.602V1017.2Z"/>
<path transform="matrix(.1,0,0,-.1,0,792)" d="M2975 1117.2 2477 955.398 2784.8 531.801 3092.6 431.801 3282.8 693.602V1017.2" fill="#80bf00"/>
<path transform="matrix(.1,0,0,-.1,0,792)" stroke-width="1" stroke-linecap="butt" stroke-miterlimit="10" stroke-linejoin="miter" fill="none" stroke="#000000" d="M2975 1117.2 2477 955.398 2784.8 531.801 3092.6 431.801 3282.8 693.602V1017.2Z"/>
<path transform="matrix(.1,0,0,-.1,0,792)" d="M3590.5 1117.2 3282.8 693.602V170L3473 231.801 3590.5 70 3708.1 231.801 3898.3 170V493.602L4088.5 755.398 3898.3 817.199V1017.2L3708.1 955.398" fill="#ffbfbf"/>
<path transform="matrix(.1,0,0,-.1,0,792)" stroke-width="1" stroke-linecap="butt" stroke-miterlimit="10" stroke-linejoin="miter" fill="none" stroke="#000000" d="M3590.5 1117.2 3282.8 693.602V170L3473 231.801 3590.5 70 3708.1 231.801 3898.3 170V493.602L4088.5 755.398 3898.3 817.199V1017.2L3708.1 955.398Z"/>
<path transform="matrix(.1,0,0,-.1,0,792)" d="M1055.7 7347.7V7871.3L865.5 7933.1 748 7771.3Z" fill="#804000"/>
<path transform="matrix(.1,0,0,-.1,0,792)" stroke-width="1" stroke-linecap="butt" stroke-miterlimit="10" stroke-linejoin="miter" fill="none" stroke="#000000" d="M1055.7 7347.7V7871.3L865.5 7933.1 748 7771.3Z"/>
<path transform="matrix(.1,0,0,-.1,0,792)" d="M675.301 2911.6 367.5 3011.6 59.8008 2911.6V2588L367.5 2164.4 675.301 2588" fill="#808000"/>
<path transform="matrix(.1,0,0,-.1,0,792)" stroke-width="1" stroke-linecap="butt" stroke-miterlimit="10" stroke-linejoin="miter" fill="none" stroke="#000000" d="M675.301 2911.6 367.5 3011.6 59.8008 2911.6V2588L367.5 2164.4 675.301 2588Z"/>
<path transform="matrix(.1,0,0,-.1,0,792)" d="M675.301 2588 367.5 2164.4 485.102 2002.6 675.301 2064.4Z" fill="#804000"/>
<path transform="matrix(.1,0,0,-.1,0,792)" stroke-width="1" stroke-linecap="butt" stroke-miterlimit="10" stroke-linejoin="miter" fill="none" stroke="#000000" d="M675.301 2588 367.5 2164.4 485.102 2002.6 675.301 2064.4Z"/>
<path transform="matrix(.1,0,0,-.1,0,792)" d="M675.301 2064.4 485.102 2002.6 367.5 2164.4 250 2002.6 59.8008 2064.4V1740.8L-130.398 1479 59.8008 1417.2V1217.2L250 1279 367.5 1117.2 675.301 1540.8" fill="#ffbfbf"/>
<path transform="matrix(.1,0,0,-.1,0,792)" stroke-width="1" stroke-linecap="butt" stroke-miterlimit="10" stroke-linejoin="miter" fill="none" stroke="#000000" d="M675.301 2064.4 485.102 2002.6 367.5 2164.4 250 2002.6 59.8008 2064.4V1740.8L-130.398 1479 59.8008 1417.2V1217.2L250 1279 367.5 1117.2 675.301 1540.8Z"/>
<path transform="matrix(.1,0,0,-.1,0,792)" d="M5274.7 5453.3 5582.5 5353.3 5890.2 5453.3V5776.9L5582.5 6200.5 5274.7 5776.9" fill="#808000"/>
<path transform="matrix(.1,0,0,-.1,0,792)" stroke-width="1" stroke-linecap="butt" stroke-miterlimit="10" stroke-linejoin="miter" fill="none" stroke="#000000" d="M5274.7 5453.3 5582.5 5353.3 5890.2 5453.3V5776.9L5582.5 6200.5 5274.7 5776.9Z"/>
<path transform="matrix(.1,0,0,-.1,0,792)" d="M5274.7 5776.9 5582.5 6200.5 5464.9 6362.3 5274.7 6300.5Z" fill="#804000"/>
<path transform="matrix(.1,0,0,-.1,0,792)" stroke-width="1" stroke-linecap="butt" stroke-miterlimit="10" stroke-linejoin="miter" fill="none" stroke="#000000" d="M5274.7 5776.9 5582.5 6200.5 5464.9 6362.3 5274.7 6300.5Z"/>
<path transform="matrix(.1,0,0,-.1,0,792)" d="M5274.7 6300.5 5464.9 6362.3 5582.5 6200.5 5700 6362.3 5890.2 6300.5V6624.1L6080.4 6885.9 5890.2 6947.7V7147.7L5700 7085.9 5582.5 7247.7 5274.7 6824.1" fill="#ffbfbf"/>
<path transform="matrix(.1,0,0,-.1,0,792)" stroke-width="1" stroke-linecap="butt" stroke-miterlimit="10" stroke-linejoin="miter" fill="none" stroke="#000000" d="M5274.7 6300.5 5464.9 6362.3 5582.5 6200.5 5700 6362.3 5890.2 6300.5V6624.1L6080.4 6885.9 5890.2 6947.7V7147.7L5700 7085.9 5582.5 7247.7 5274.7 6824.1Z"/>
<path transform="matrix(.1,0,0,-.1,0,792)" d="M4894.3 1017.2V493.602L5084.5 431.801 5202 593.602Z" fill="#804000"/>
<path transform="matrix(.1,0,0,-.1,0,792)" stroke-width="1" stroke-linecap="butt" stroke-miterlimit="10" stroke-linejoin="miter" fill="none" stroke="#000000" d="M4894.3 1017.2V493.602L5084.5 431.801 5202 593.602Z"/>
<path transform="matrix(.1,0,0,-.1,0,792)" d="M4468.9 7409.5 4776.7 7833.1 4278.7 7671.3V7471.3Z" fill="#804000"/>
<path transform="matrix(.1,0,0,-.1,0,792)" stroke-width="1" stroke-linecap="butt" stroke-miterlimit="10" stroke-linejoin="miter" fill="none" stroke="#000000" d="M4468.9 7409.5 4776.7 7833.1 4278.7 7671.3V7471.3Z"/>
<path transform="matrix(.1,0,0,-.1,0,792)" d="M3473 7409.5 3663.2 7471.3V7671.3L3165.2 7833.1Z" fill="#804000"/>
<path transform="matrix(.1,0,0,-.1,0,792)" stroke-width="1" stroke-linecap="butt" stroke-miterlimit="10" stroke-linejoin="miter" fill="none" stroke="#000000" d="M3473 7409.5 3663.2 7471.3V7671.3L3165.2 7833.1Z"/>
<path transform="matrix(.1,0,0,-.1,0,792)" d="M1481.1 955.398 1173.3 531.801 1671.3 693.602V893.602Z" fill="#804000"/>
<path transform="matrix(.1,0,0,-.1,0,792)" stroke-width="1" stroke-linecap="butt" stroke-miterlimit="10" stroke-linejoin="miter" fill="none" stroke="#000000" d="M1481.1 955.398 1173.3 531.801 1671.3 693.602V893.602Z"/>
<path transform="matrix(.1,0,0,-.1,0,792)" d="M2477 955.398 2286.8 893.602V693.602L2784.8 531.801Z" fill="#804000"/>
<path transform="matrix(.1,0,0,-.1,0,792)" stroke-width="1" stroke-linecap="butt" stroke-miterlimit="10" stroke-linejoin="miter" fill="none" stroke="#000000" d="M2477 955.398 2286.8 893.602V693.602L2784.8 531.801Z"/>
<path transform="matrix(.1,0,0,-.1,0,792)" d="M5392.2 2026.2 5700 1602.6 6198 1764.4 5890.2 1864.4V2188L5700 1926.2" fill="#b20000"/>
<path transform="matrix(.1,0,0,-.1,0,792)" stroke-width="1" stroke-linecap="butt" stroke-miterlimit="10" stroke-linejoin="miter" fill="none" stroke="#000000" d="M5392.2 2026.2 5700 1602.6 6198 1764.4 5890.2 1864.4V2188L5700 1926.2Z"/>
<path transform="matrix(.1,0,0,-.1,0,792)" d="M5392.2 2549.8 5890.2 2711.6V2911.6L5700 2973.4Z" fill="#804000"/>
<path transform="matrix(.1,0,0,-.1,0,792)" stroke-width="1" stroke-linecap="butt" stroke-miterlimit="10" stroke-linejoin="miter" fill="none" stroke="#000000" d="M5392.2 2549.8 5890.2 2711.6V2911.6L5700 2973.4Z"/>
<path transform="matrix(.1,0,0,-.1,0,792)" d="M5392.2 4244.2 5700 4344.2 5890.2 4082.4V4406L6198 4506 5890.2 4606V4929.7L5700 4667.9 5392.2 4767.9 5582.5 4506" fill="#b20000"/>
<path transform="matrix(.1,0,0,-.1,0,792)" stroke-width="1" stroke-linecap="butt" stroke-miterlimit="10" stroke-linejoin="miter" fill="none" stroke="#000000" d="M5392.2 4244.2 5700 4344.2 5890.2 4082.4V4406L6198 4506 5890.2 4606V4929.7L5700 4667.9 5392.2 4767.9 5582.5 4506Z"/>
<path transform="matrix(.1,0,0,-.1,0,792)" d="M557.801 6338.7 250 6762.3-248 6600.5 59.8008 6500.5V6176.9L250 6438.7" fill="#b20000"/>
<path transform="matrix(.1,0,0,-.1,0,792)" stroke-width="1" stroke-linecap="butt" stroke-miterlimit="10" stroke-linejoin="miter" fill="none" stroke="#000000" d="M557.801 6338.7 250 6762.3-248 6600.5 59.8008 6500.5V6176.9L250 6438.7Z"/>
<path transform="matrix(.1,0,0,-.1,0,792)" d="M557.801 5815.1 59.8008 5653.3V5453.3L250 5391.5Z" fill="#804000"/>
<path transform="matrix(.1,0,0,-.1,0,792)" stroke-width="1" stroke-linecap="butt" stroke-miterlimit="10" stroke-linejoin="miter" fill="none" stroke="#000000" d="M557.801 5815.1 59.8008 5653.3V5453.3L250 5391.5Z"/>
<path transform="matrix(.1,0,0,-.1,0,792)" d="M557.801 4120.6 250 4020.6 59.8008 4282.4V3958.8L-248 3858.8 59.8008 3758.8V3435.2L250 3697 557.801 3597 367.5 3858.8" fill="#b20000"/>
<path transform="matrix(.1,0,0,-.1,0,792)" stroke-width="1" stroke-linecap="butt" stroke-miterlimit="10" stroke-linejoin="miter" fill="none" stroke="#000000" d="M557.801 4120.6 250 4020.6 59.8008 4282.4V3958.8L-248 3858.8 59.8008 3758.8V3435.2L250 3697 557.801 3597 367.5 3858.8Z"/>
<path transform="matrix(.1,0,0,-.1,0,792)" d="M4088.5 7609.5 4278.7 7671.3V8194.9L3971 7771.3Z" fill="#804000"/>
<path transform="matrix(.1,0,0,-.1,0,792)" stroke-width="1" stroke-linecap="butt" stroke-miterlimit="10" stroke-linejoin="miter" fill="none" stroke="#000000" d="M4088.5 7609.5 4278.7 7671.3V8194.9L3971 7771.3Z"/>
<path transform="matrix(.1,0,0,-.1,0,792)" d="M3853.4 7609.5 3971 7771.3 3663.2 8194.9V7671.3Z" fill="#804000"/>
<path transform="matrix(.1,0,0,-.1,0,792)" stroke-width="1" stroke-linecap="butt" stroke-miterlimit="10" stroke-linejoin="miter" fill="none" stroke="#000000" d="M3853.4 7609.5 3971 7771.3 3663.2 8194.9V7671.3Z"/>
<path transform="matrix(.1,0,0,-.1,0,792)" d="M1861.5 7609.5 2051.7 7871.3V8194.9L1245.9 8456.7 1055.7 8194.9V7871.3" fill="#80bf00"/>
<path transform="matrix(.1,0,0,-.1,0,792)" stroke-width="1" stroke-linecap="butt" stroke-miterlimit="10" stroke-linejoin="miter" fill="none" stroke="#000000" d="M1861.5 7609.5 2051.7 7871.3V8194.9L1245.9 8456.7 1055.7 8194.9V7871.3Z"/>
<path transform="matrix(.1,0,0,-.1,0,792)" d="M1861.5 755.398 1671.3 693.602V170L1979 593.602Z" fill="#804000"/>
<path transform="matrix(.1,0,0,-.1,0,792)" stroke-width="1" stroke-linecap="butt" stroke-miterlimit="10" stroke-linejoin="miter" fill="none" stroke="#000000" d="M1861.5 755.398 1671.3 693.602V170L1979 593.602Z"/>
<path transform="matrix(.1,0,0,-.1,0,792)" d="M2096.6 755.398 1979 593.602 2286.8 170V693.602Z" fill="#804000"/>
<path transform="matrix(.1,0,0,-.1,0,792)" stroke-width="1" stroke-linecap="butt" stroke-miterlimit="10" stroke-linejoin="miter" fill="none" stroke="#000000" d="M2096.6 755.398 1979 593.602 2286.8 170V693.602Z"/>
<path transform="matrix(.1,0,0,-.1,0,792)" d="M4088.5 755.398 3898.3 493.602V170L4704.1-91.8008 4894.3 170V493.602" fill="#80bf00"/>
<path transform="matrix(.1,0,0,-.1,0,792)" stroke-width="1" stroke-linecap="butt" stroke-miterlimit="10" stroke-linejoin="miter" fill="none" stroke="#000000" d="M4088.5 755.398 3898.3 493.602V170L4704.1-91.8008 4894.3 170V493.602Z"/>
<path transform="matrix(.1,0,0,-.1,0,792)" d="M5274.7 7671.3V7994.9L5582.5 8094.9 5274.7 8194.9V8518.5L5084.5 8256.7 4776.7 8356.7 4966.9 8094.9 4776.7 7833.1 5084.5 7933.1" fill="#b20000"/>
<path transform="matrix(.1,0,0,-.1,0,792)" stroke-width="1" stroke-linecap="butt" stroke-miterlimit="10" stroke-linejoin="miter" fill="none" stroke="#000000" d="M5274.7 7671.3V7994.9L5582.5 8094.9 5274.7 8194.9V8518.5L5084.5 8256.7 4776.7 8356.7 4966.9 8094.9 4776.7 7833.1 5084.5 7933.1Z"/>
<path transform="matrix(.1,0,0,-.1,0,792)" d="M5274.7 7671.3 5582.5 7247.7 5890.2 7671.3V7994.9L5582.5 8094.9 5274.7 7994.9" fill="#808000"/>
<path transform="matrix(.1,0,0,-.1,0,792)" stroke-width="1" stroke-linecap="butt" stroke-miterlimit="10" stroke-linejoin="miter" fill="none" stroke="#000000" d="M5274.7 7671.3 5582.5 7247.7 5890.2 7671.3V7994.9L5582.5 8094.9 5274.7 7994.9Z"/>
<path transform="matrix(.1,0,0,-.1,0,792)" d="M4278.7 7671.3 4776.7 7833.1 4966.9 8094.9 4776.7 8356.7 4468.9 8456.7 4278.7 8194.9" fill="#80bf00"/>
<path transform="matrix(.1,0,0,-.1,0,792)" stroke-width="1" stroke-linecap="butt" stroke-miterlimit="10" stroke-linejoin="miter" fill="none" stroke="#000000" d="M4278.7 7671.3 4776.7 7833.1 4966.9 8094.9 4776.7 8356.7 4468.9 8456.7 4278.7 8194.9Z"/>
<path transform="matrix(.1,0,0,-.1,0,792)" d="M3663.2 7671.3V8194.9L3473 8456.7 3165.2 8356.7 2975 8094.9 3165.2 7833.1" fill="#80bf00"/>
<path transform="matrix(.1,0,0,-.1,0,792)" stroke-width="1" stroke-linecap="butt" stroke-miterlimit="10" stroke-linejoin="miter" fill="none" stroke="#000000" d="M3663.2 7671.3V8194.9L3473 8456.7 3165.2 8356.7 2975 8094.9 3165.2 7833.1Z"/>
<path transform="matrix(.1,0,0,-.1,0,792)" d="M2667.2 7671.3 2857.4 7933.1 3165.2 7833.1 2975 8094.9 3165.2 8356.7 2667.2 8194.9" fill="#b20000"/>
<path transform="matrix(.1,0,0,-.1,0,792)" stroke-width="1" stroke-linecap="butt" stroke-miterlimit="10" stroke-linejoin="miter" fill="none" stroke="#000000" d="M2667.2 7671.3 2857.4 7933.1 3165.2 7833.1 2975 8094.9 3165.2 8356.7 2667.2 8194.9Z"/>
<path transform="matrix(.1,0,0,-.1,0,792)" d="M440.199 7347.7V7871.3L-57.8008 7709.5-248 7447.7-57.8008 7185.9 250 7085.9" fill="#808000"/>
<path transform="matrix(.1,0,0,-.1,0,792)" stroke-width="1" stroke-linecap="butt" stroke-miterlimit="10" stroke-linejoin="miter" fill="none" stroke="#000000" d="M440.199 7347.7V7871.3L-57.8008 7709.5-248 7447.7-57.8008 7185.9 250 7085.9Z"/>
<path transform="matrix(.1,0,0,-.1,0,792)" d="M440.199 7347.7 748 7771.3 630.398 7933.1 440.199 7871.3Z" fill="#804000"/>
<path transform="matrix(.1,0,0,-.1,0,792)" stroke-width="1" stroke-linecap="butt" stroke-miterlimit="10" stroke-linejoin="miter" fill="none" stroke="#000000" d="M440.199 7347.7 748 7771.3 630.398 7933.1 440.199 7871.3Z"/>
<path transform="matrix(.1,0,0,-.1,0,792)" d="M5509.8 1017.2V493.602L6007.8 655.398 6198 917.199 6007.8 1179 5700 1279" fill="#808000"/>
<path transform="matrix(.1,0,0,-.1,0,792)" stroke-width="1" stroke-linecap="butt" stroke-miterlimit="10" stroke-linejoin="miter" fill="none" stroke="#000000" d="M5509.8 1017.2V493.602L6007.8 655.398 6198 917.199 6007.8 1179 5700 1279Z"/>
<path transform="matrix(.1,0,0,-.1,0,792)" d="M5509.8 1017.2 5202 593.602 5319.6 431.801 5509.8 493.602Z" fill="#804000"/>
<path transform="matrix(.1,0,0,-.1,0,792)" stroke-width="1" stroke-linecap="butt" stroke-miterlimit="10" stroke-linejoin="miter" fill="none" stroke="#000000" d="M5509.8 1017.2 5202 593.602 5319.6 431.801 5509.8 493.602Z"/>
<path transform="matrix(.1,0,0,-.1,0,792)" d="M675.301 693.602V370L367.5 270 675.301 170V-153.602L865.5 108.199 1173.3 8.19922 983.102 270 1173.3 531.801 865.5 431.801" fill="#b20000"/>
<path transform="matrix(.1,0,0,-.1,0,792)" stroke-width="1" stroke-linecap="butt" stroke-miterlimit="10" stroke-linejoin="miter" fill="none" stroke="#000000" d="M675.301 693.602V370L367.5 270 675.301 170V-153.602L865.5 108.199 1173.3 8.19922 983.102 270 1173.3 531.801 865.5 431.801Z"/>
<path transform="matrix(.1,0,0,-.1,0,792)" d="M675.301 693.602 367.5 1117.2 59.8008 693.602V370L367.5 270 675.301 370" fill="#808000"/>
<path transform="matrix(.1,0,0,-.1,0,792)" stroke-width="1" stroke-linecap="butt" stroke-miterlimit="10" stroke-linejoin="miter" fill="none" stroke="#000000" d="M675.301 693.602 367.5 1117.2 59.8008 693.602V370L367.5 270 675.301 370Z"/>
<path transform="matrix(.1,0,0,-.1,0,792)" d="M1671.3 693.602 1173.3 531.801 983.102 270 1173.3 8.19922 1481.1-91.8008 1671.3 170" fill="#80bf00"/>
<path transform="matrix(.1,0,0,-.1,0,792)" stroke-width="1" stroke-linecap="butt" stroke-miterlimit="10" stroke-linejoin="miter" fill="none" stroke="#000000" d="M1671.3 693.602 1173.3 531.801 983.102 270 1173.3 8.19922 1481.1-91.8008 1671.3 170Z"/>
<path transform="matrix(.1,0,0,-.1,0,792)" d="M2286.8 693.602V170L2477-91.8008 2784.8 8.19922 2975 270 2784.8 531.801" fill="#80bf00"/>
<path transform="matrix(.1,0,0,-.1,0,792)" stroke-width="1" stroke-linecap="butt" stroke-miterlimit="10" stroke-linejoin="miter" fill="none" stroke="#000000" d="M2286.8 693.602V170L2477-91.8008 2784.8 8.19922 2975 270 2784.8 531.801Z"/>
<path transform="matrix(.1,0,0,-.1,0,792)" d="M3282.8 693.602 3092.6 431.801 2784.8 531.801 2975 270 2784.8 8.19922 3282.8 170" fill="#b20000"/>
<path transform="matrix(.1,0,0,-.1,0,792)" stroke-width="1" stroke-linecap="butt" stroke-miterlimit="10" stroke-linejoin="miter" fill="none" stroke="#000000" d="M3282.8 693.602 3092.6 431.801 2784.8 531.801 2975 270 2784.8 8.19922 3282.8 170Z"/>
<path transform="matrix(.1,0,0,-.1,0,792)" d="M3971 7771.3 4278.7 8194.9V8518.5L3971 8618.5 3663.2 8518.5V8194.9" fill="#80bf00"/>
<path transform="matrix(.1,0,0,-.1,0,792)" stroke-width="1" stroke-linecap="butt" stroke-miterlimit="10" stroke-linejoin="miter" fill="none" stroke="#000000" d="M3971 7771.3 4278.7 8194.9V8518.5L3971 8618.5 3663.2 8518.5V8194.9Z"/>
<path transform="matrix(.1,0,0,-.1,0,792)" d="M748 7771.3 865.5 7933.1 1055.7 7871.3V8194.9L1245.9 8456.7 1055.7 8518.5V8718.5L865.5 8656.7 748 8818.5 440.199 8394.9V7871.3L630.398 7933.1" fill="#ffbfbf"/>
<path transform="matrix(.1,0,0,-.1,0,792)" stroke-width="1" stroke-linecap="butt" stroke-miterlimit="10" stroke-linejoin="miter" fill="none" stroke="#000000" d="M748 7771.3 865.5 7933.1 1055.7 7871.3V8194.9L1245.9 8456.7 1055.7 8518.5V8718.5L865.5 8656.7 748 8818.5 440.199 8394.9V7871.3L630.398 7933.1Z"/>
<path transform="matrix(.1,0,0,-.1,0,792)" d="M367.5 3011.6 59.8008 3111.6V3435.2L-130.398 3173.4-438.199 3273.4-248 3011.6-438.199 2749.8-130.398 2849.8 59.8008 2588V2911.6" fill="#b20000"/>
<path transform="matrix(.1,0,0,-.1,0,792)" stroke-width="1" stroke-linecap="butt" stroke-miterlimit="10" stroke-linejoin="miter" fill="none" stroke="#000000" d="M367.5 3011.6 59.8008 3111.6V3435.2L-130.398 3173.4-438.199 3273.4-248 3011.6-438.199 2749.8-130.398 2849.8 59.8008 2588V2911.6Z"/>
<path transform="matrix(.1,0,0,-.1,0,792)" d="M367.5 2164.4 59.8008 2588V2064.4L250 2002.6Z" fill="#804000"/>
<path transform="matrix(.1,0,0,-.1,0,792)" stroke-width="1" stroke-linecap="butt" stroke-miterlimit="10" stroke-linejoin="miter" fill="none" stroke="#000000" d="M367.5 2164.4 59.8008 2588V2064.4L250 2002.6Z"/>
<path transform="matrix(.1,0,0,-.1,0,792)" d="M367.5 1117.2 250 1279 59.8008 1217.2V693.602Z" fill="#804000"/>
<path transform="matrix(.1,0,0,-.1,0,792)" stroke-width="1" stroke-linecap="butt" stroke-miterlimit="10" stroke-linejoin="miter" fill="none" stroke="#000000" d="M367.5 1117.2 250 1279 59.8008 1217.2V693.602Z"/>
<path transform="matrix(.1,0,0,-.1,0,792)" d="M5582.5 5353.3 5890.2 5253.3V4929.7L6080.4 5191.5 6388.2 5091.5 6198 5353.3 6388.2 5615.1 6080.4 5515.1 5890.2 5776.9V5453.3" fill="#b20000"/>
<path transform="matrix(.1,0,0,-.1,0,792)" stroke-width="1" stroke-linecap="butt" stroke-miterlimit="10" stroke-linejoin="miter" fill="none" stroke="#000000" d="M5582.5 5353.3 5890.2 5253.3V4929.7L6080.4 5191.5 6388.2 5091.5 6198 5353.3 6388.2 5615.1 6080.4 5515.1 5890.2 5776.9V5453.3Z"/>
<path transform="matrix(.1,0,0,-.1,0,792)" d="M5582.5 6200.5 5890.2 5776.9V6300.5L5700 6362.3Z" fill="#804000"/>
<path transform="matrix(.1,0,0,-.1,0,792)" stroke-width="1" stroke-linecap="butt" stroke-miterlimit="10" stroke-linejoin="miter" fill="none" stroke="#000000" d="M5582.5 6200.5 5890.2 5776.9V6300.5L5700 6362.3Z"/>
<path transform="matrix(.1,0,0,-.1,0,792)" d="M5582.5 7247.7 5700 7085.9 5890.2 7147.7V7671.3Z" fill="#804000"/>
<path transform="matrix(.1,0,0,-.1,0,792)" stroke-width="1" stroke-linecap="butt" stroke-miterlimit="10" stroke-linejoin="miter" fill="none" stroke="#000000" d="M5582.5 7247.7 5700 7085.9 5890.2 7147.7V7671.3Z"/>
<path transform="matrix(.1,0,0,-.1,0,792)" d="M1979 593.602 1671.3 170V-153.602L1979-253.602 2286.8-153.602V170" fill="#80bf00"/>
<path transform="matrix(.1,0,0,-.1,0,792)" stroke-width="1" stroke-linecap="butt" stroke-miterlimit="10" stroke-linejoin="miter" fill="none" stroke="#000000" d="M1979 593.602 1671.3 170V-153.602L1979-253.602 2286.8-153.602V170Z"/>
<path transform="matrix(.1,0,0,-.1,0,792)" d="M5202 593.602 5084.5 431.801 4894.3 493.602V170L4704.1-91.8008 4894.3-153.602V-353.602L5084.5-291.801 5202-453.602 5509.8-30V493.602L5319.6 431.801" fill="#ffbfbf"/>
<path transform="matrix(.1,0,0,-.1,0,792)" stroke-width="1" stroke-linecap="butt" stroke-miterlimit="10" stroke-linejoin="miter" fill="none" stroke="#000000" d="M5202 593.602 5084.5 431.801 4894.3 493.602V170L4704.1-91.8008 4894.3-153.602V-353.602L5084.5-291.801 5202-453.602 5509.8-30V493.602L5319.6 431.801Z"/>
<path transform="matrix(.1,0,0,-.1,0,792)" d="M440.199 7871.3V8394.9L250 8133.1-57.8008 8233.1 132.398 7971.3-57.8008 7709.5" fill="#b20000"/>
<path transform="matrix(.1,0,0,-.1,0,792)" stroke-width="1" stroke-linecap="butt" stroke-miterlimit="10" stroke-linejoin="miter" fill="none" stroke="#000000" d="M440.199 7871.3V8394.9L250 8133.1-57.8008 8233.1 132.398 7971.3-57.8008 7709.5Z"/>
<path transform="matrix(.1,0,0,-.1,0,792)" d="M5509.8 493.602V-30L5700 231.801 6007.8 131.801 5817.6 393.602 6007.8 655.398" fill="#b20000"/>
<path transform="matrix(.1,0,0,-.1,0,792)" stroke-width="1" stroke-linecap="butt" stroke-miterlimit="10" stroke-linejoin="miter" fill="none" stroke="#000000" d="M5509.8 493.602V-30L5700 231.801 6007.8 131.801 5817.6 393.602 6007.8 655.398Z"/>
<path transform="matrix(.1,0,0,-.1,0,792)" d="M5700 1602.6 6007.8 1179 6315.5 1079 6505.8 1340.8V1664.4L6198 1764.4" fill="#808000"/>
<path transform="matrix(.1,0,0,-.1,0,792)" stroke-width="1" stroke-linecap="butt" stroke-miterlimit="10" stroke-linejoin="miter" fill="none" stroke="#000000" d="M5700 1602.6 6007.8 1179 6315.5 1079 6505.8 1340.8V1664.4L6198 1764.4Z"/>
<path transform="matrix(.1,0,0,-.1,0,792)" d="M5700 2973.4 5890.2 2911.6V2711.6L6080.4 2773.4 6198 2611.6 6505.8 3035.2V3558.8L6315.5 3497 6198 3658.8 6080.4 3497 5890.2 3558.8V3235.2" fill="#ffbfbf"/>
<path transform="matrix(.1,0,0,-.1,0,792)" stroke-width="1" stroke-linecap="butt" stroke-miterlimit="10" stroke-linejoin="miter" fill="none" stroke="#000000" d="M5700 2973.4 5890.2 2911.6V2711.6L6080.4 2773.4 6198 2611.6 6505.8 3035.2V3558.8L6315.5 3497 6198 3658.8 6080.4 3497 5890.2 3558.8V3235.2Z"/>
<path transform="matrix(.1,0,0,-.1,0,792)" d="M250 6762.3-57.8008 7185.9-365.5 7285.9-555.801 7024.1V6700.5L-248 6600.5" fill="#808000"/>
<path transform="matrix(.1,0,0,-.1,0,792)" stroke-width="1" stroke-linecap="butt" stroke-miterlimit="10" stroke-linejoin="miter" fill="none" stroke="#000000" d="M250 6762.3-57.8008 7185.9-365.5 7285.9-555.801 7024.1V6700.5L-248 6600.5Z"/>
<path transform="matrix(.1,0,0,-.1,0,792)" d="M250 5391.5 59.8008 5453.3V5653.3L-130.398 5591.5-248 5753.3-555.801 5329.7V4806L-365.5 4867.9-248 4706-130.398 4867.9 59.8008 4806V5129.7" fill="#ffbfbf"/>
<path transform="matrix(.1,0,0,-.1,0,792)" stroke-width="1" stroke-linecap="butt" stroke-miterlimit="10" stroke-linejoin="miter" fill="none" stroke="#000000" d="M250 5391.5 59.8008 5453.3V5653.3L-130.398 5591.5-248 5753.3-555.801 5329.7V4806L-365.5 4867.9-248 4706-130.398 4867.9 59.8008 4806V5129.7Z"/>
<path transform="matrix(.1,0,0,-.1,0,792)" d="M5582.5 8094.9 5890.2 7994.9V7671.3L6080.4 7933.1 6388.2 7833.1 6080.4 8256.7" fill="#b20000"/>
<path transform="matrix(.1,0,0,-.1,0,792)" stroke-width="1" stroke-linecap="butt" stroke-miterlimit="10" stroke-linejoin="miter" fill="none" stroke="#000000" d="M5582.5 8094.9 5890.2 7994.9V7671.3L6080.4 7933.1 6388.2 7833.1 6080.4 8256.7Z"/>
<path transform="matrix(.1,0,0,-.1,0,792)" d="M132.398 7971.3-57.8008 8233.1-555.801 8394.9V7871.3L-365.5 7609.5-57.8008 7709.5" fill="#80bf00"/>
<path transform="matrix(.1,0,0,-.1,0,792)" stroke-width="1" stroke-linecap="butt" stroke-miterlimit="10" stroke-linejoin="miter" fill="none" stroke="#000000" d="M132.398 7971.3-57.8008 8233.1-555.801 8394.9V7871.3L-365.5 7609.5-57.8008 7709.5Z"/>
<path transform="matrix(.1,0,0,-.1,0,792)" d="M5817.6 393.602 6007.8 131.801 6505.8-30V493.602L6315.5 755.398 6007.8 655.398" fill="#80bf00"/>
<path transform="matrix(.1,0,0,-.1,0,792)" stroke-width="1" stroke-linecap="butt" stroke-miterlimit="10" stroke-linejoin="miter" fill="none" stroke="#000000" d="M5817.6 393.602 6007.8 131.801 6505.8-30V493.602L6315.5 755.398 6007.8 655.398Z"/>
<path transform="matrix(.1,0,0,-.1,0,792)" d="M367.5 270-130.398 108.199 177.301-315.398 485.102-415.398 675.301-153.602V170" fill="#808000"/>
<path transform="matrix(.1,0,0,-.1,0,792)" stroke-width="1" stroke-linecap="butt" stroke-miterlimit="10" stroke-linejoin="miter" fill="none" stroke="#000000" d="M367.5 270-130.398 108.199 177.301-315.398 485.102-415.398 675.301-153.602V170Z"/>
<path transform="matrix(.1,0,0,-.1,0,792)" d="M367.5 270 59.8008 370V693.602L-130.398 431.801-438.199 531.801-130.398 108.199" fill="#b20000"/>
<path transform="matrix(.1,0,0,-.1,0,792)" stroke-width="1" stroke-linecap="butt" stroke-miterlimit="10" stroke-linejoin="miter" fill="none" stroke="#000000" d="M367.5 270 59.8008 370V693.602L-130.398 431.801-438.199 531.801-130.398 108.199Z"/>
<path transform="matrix(.1,0,0,-.1,0,792)" d="M3473 231.801 3282.8 170V-353.602L3590.5 70Z" fill="#804000"/>
<path transform="matrix(.1,0,0,-.1,0,792)" stroke-width="1" stroke-linecap="butt" stroke-miterlimit="10" stroke-linejoin="miter" fill="none" stroke="#000000" d="M3473 231.801 3282.8 170V-353.602L3590.5 70Z"/>
<path transform="matrix(.1,0,0,-.1,0,792)" d="M3708.1 231.801 3590.5 70 3898.3-353.602V170Z" fill="#804000"/>
<path transform="matrix(.1,0,0,-.1,0,792)" stroke-width="1" stroke-linecap="butt" stroke-miterlimit="10" stroke-linejoin="miter" fill="none" stroke="#000000" d="M3708.1 231.801 3590.5 70 3898.3-353.602V170Z"/>
<path transform="matrix(.1,0,0,-.1,0,792)" d="M5700 231.801 5509.8-30V-353.602L5817.6-453.602 6315.5-291.801 6007.8 131.801" fill="#80bf00"/>
<path transform="matrix(.1,0,0,-.1,0,792)" stroke-width="1" stroke-linecap="butt" stroke-miterlimit="10" stroke-linejoin="miter" fill="none" stroke="#000000" d="M5700 231.801 5509.8-30V-353.602L5817.6-453.602 6315.5-291.801 6007.8 131.801Z"/>
<path transform="matrix(.1,0,0,-.1,0,792)" d="M59.8008 6500.5-248 6600.5-555.801 6500.5V6176.9L-248 5753.3 59.8008 6176.9" fill="#808000"/>
<path transform="matrix(.1,0,0,-.1,0,792)" stroke-width="1" stroke-linecap="butt" stroke-miterlimit="10" stroke-linejoin="miter" fill="none" stroke="#000000" d="M59.8008 6500.5-248 6600.5-555.801 6500.5V6176.9L-248 5753.3 59.8008 6176.9Z"/>
<path transform="matrix(.1,0,0,-.1,0,792)" d="M59.8008 6176.9-248 5753.3-130.398 5591.5 59.8008 5653.3Z" fill="#804000"/>
<path transform="matrix(.1,0,0,-.1,0,792)" stroke-width="1" stroke-linecap="butt" stroke-miterlimit="10" stroke-linejoin="miter" fill="none" stroke="#000000" d="M59.8008 6176.9-248 5753.3-130.398 5591.5 59.8008 5653.3Z"/>
<path transform="matrix(.1,0,0,-.1,0,792)" d="M59.8008 4806-130.398 4867.9-248 4706 59.8008 4282.4Z" fill="#804000"/>
<path transform="matrix(.1,0,0,-.1,0,792)" stroke-width="1" stroke-linecap="butt" stroke-miterlimit="10" stroke-linejoin="miter" fill="none" stroke="#000000" d="M59.8008 4806-130.398 4867.9-248 4706 59.8008 4282.4Z"/>
<path transform="matrix(.1,0,0,-.1,0,792)" d="M59.8008 4282.4-248 4706-555.801 4282.4V3958.8L-248 3858.8 59.8008 3958.8" fill="#808000"/>
<path transform="matrix(.1,0,0,-.1,0,792)" stroke-width="1" stroke-linecap="butt" stroke-miterlimit="10" stroke-linejoin="miter" fill="none" stroke="#000000" d="M59.8008 4282.4-248 4706-555.801 4282.4V3958.8L-248 3858.8 59.8008 3958.8Z"/>
<path transform="matrix(.1,0,0,-.1,0,792)" d="M59.8008 3758.8-248 3858.8-746 3697-438.199 3273.4-130.398 3173.4 59.8008 3435.2" fill="#808000"/>
<path transform="matrix(.1,0,0,-.1,0,792)" stroke-width="1" stroke-linecap="butt" stroke-miterlimit="10" stroke-linejoin="miter" fill="none" stroke="#000000" d="M59.8008 3758.8-248 3858.8-746 3697-438.199 3273.4-130.398 3173.4 59.8008 3435.2Z"/>
<path transform="matrix(.1,0,0,-.1,0,792)" d="M59.8008 2588-130.398 2849.8-438.199 2749.8-746 2326.2 59.8008 2064.4" fill="#808000"/>
<path transform="matrix(.1,0,0,-.1,0,792)" stroke-width="1" stroke-linecap="butt" stroke-miterlimit="10" stroke-linejoin="miter" fill="none" stroke="#000000" d="M59.8008 2588-130.398 2849.8-438.199 2749.8-746 2326.2 59.8008 2064.4Z"/>
<path transform="matrix(.1,0,0,-.1,0,792)" d="M59.8008 2064.4-746 2326.2-936.199 2064.4V1740.8L-130.398 1479 59.8008 1740.8" fill="#80bf00"/>
<path transform="matrix(.1,0,0,-.1,0,792)" stroke-width="1" stroke-linecap="butt" stroke-miterlimit="10" stroke-linejoin="miter" fill="none" stroke="#000000" d="M59.8008 2064.4-746 2326.2-936.199 2064.4V1740.8L-130.398 1479 59.8008 1740.8Z"/>
<path transform="matrix(.1,0,0,-.1,0,792)" d="M59.8008 1417.2-130.398 1479-438.199 1055.4 59.8008 1217.2Z" fill="#804000"/>
<path transform="matrix(.1,0,0,-.1,0,792)" stroke-width="1" stroke-linecap="butt" stroke-miterlimit="10" stroke-linejoin="miter" fill="none" stroke="#000000" d="M59.8008 1417.2-130.398 1479-438.199 1055.4 59.8008 1217.2Z"/>
<path transform="matrix(.1,0,0,-.1,0,792)" d="M59.8008 1217.2-438.199 1055.4-628.398 793.602-438.199 531.801-130.398 431.801 59.8008 693.602" fill="#808000"/>
<path transform="matrix(.1,0,0,-.1,0,792)" stroke-width="1" stroke-linecap="butt" stroke-miterlimit="10" stroke-linejoin="miter" fill="none" stroke="#000000" d="M59.8008 1217.2-438.199 1055.4-628.398 793.602-438.199 531.801-130.398 431.801 59.8008 693.602Z"/>
<path transform="matrix(.1,0,0,-.1,0,792)" d="M5890.2 1864.4 6198 1764.4 6505.8 1864.4V2188L6198 2611.6 5890.2 2188" fill="#808000"/>
<path transform="matrix(.1,0,0,-.1,0,792)" stroke-width="1" stroke-linecap="butt" stroke-miterlimit="10" stroke-linejoin="miter" fill="none" stroke="#000000" d="M5890.2 1864.4 6198 1764.4 6505.8 1864.4V2188L6198 2611.6 5890.2 2188Z"/>
<path transform="matrix(.1,0,0,-.1,0,792)" d="M5890.2 2188 6198 2611.6 6080.4 2773.4 5890.2 2711.6Z" fill="#804000"/>
<path transform="matrix(.1,0,0,-.1,0,792)" stroke-width="1" stroke-linecap="butt" stroke-miterlimit="10" stroke-linejoin="miter" fill="none" stroke="#000000" d="M5890.2 2188 6198 2611.6 6080.4 2773.4 5890.2 2711.6Z"/>
<path transform="matrix(.1,0,0,-.1,0,792)" d="M5890.2 3558.8 6080.4 3497 6198 3658.8 5890.2 4082.4Z" fill="#804000"/>
<path transform="matrix(.1,0,0,-.1,0,792)" stroke-width="1" stroke-linecap="butt" stroke-miterlimit="10" stroke-linejoin="miter" fill="none" stroke="#000000" d="M5890.2 3558.8 6080.4 3497 6198 3658.8 5890.2 4082.4Z"/>
<path transform="matrix(.1,0,0,-.1,0,792)" d="M5890.2 4082.4 6198 3658.8 6505.8 4082.4V4406L6198 4506 5890.2 4406" fill="#808000"/>
<path transform="matrix(.1,0,0,-.1,0,792)" stroke-width="1" stroke-linecap="butt" stroke-miterlimit="10" stroke-linejoin="miter" fill="none" stroke="#000000" d="M5890.2 4082.4 6198 3658.8 6505.8 4082.4V4406L6198 4506 5890.2 4406Z"/>
<path transform="matrix(.1,0,0,-.1,0,792)" d="M5890.2 4606 6198 4506 6696 4667.9 6388.2 5091.5 6080.4 5191.5 5890.2 4929.7" fill="#808000"/>
<path transform="matrix(.1,0,0,-.1,0,792)" stroke-width="1" stroke-linecap="butt" stroke-miterlimit="10" stroke-linejoin="miter" fill="none" stroke="#000000" d="M5890.2 4606 6198 4506 6696 4667.9 6388.2 5091.5 6080.4 5191.5 5890.2 4929.7Z"/>
<path transform="matrix(.1,0,0,-.1,0,792)" d="M5890.2 5776.9 6080.4 5515.1 6388.2 5615.1 6696 6038.7 5890.2 6300.5" fill="#808000"/>
<path transform="matrix(.1,0,0,-.1,0,792)" stroke-width="1" stroke-linecap="butt" stroke-miterlimit="10" stroke-linejoin="miter" fill="none" stroke="#000000" d="M5890.2 5776.9 6080.4 5515.1 6388.2 5615.1 6696 6038.7 5890.2 6300.5Z"/>
<path transform="matrix(.1,0,0,-.1,0,792)" d="M5890.2 6300.5 6696 6038.7 6886.2 6300.5V6624.1L6080.4 6885.9 5890.2 6624.1" fill="#80bf00"/>
<path transform="matrix(.1,0,0,-.1,0,792)" stroke-width="1" stroke-linecap="butt" stroke-miterlimit="10" stroke-linejoin="miter" fill="none" stroke="#000000" d="M5890.2 6300.5 6696 6038.7 6886.2 6300.5V6624.1L6080.4 6885.9 5890.2 6624.1Z"/>
<path transform="matrix(.1,0,0,-.1,0,792)" d="M5890.2 6947.7 6080.4 6885.9 6388.2 7309.5 5890.2 7147.7Z" fill="#804000"/>
<path transform="matrix(.1,0,0,-.1,0,792)" stroke-width="1" stroke-linecap="butt" stroke-miterlimit="10" stroke-linejoin="miter" fill="none" stroke="#000000" d="M5890.2 6947.7 6080.4 6885.9 6388.2 7309.5 5890.2 7147.7Z"/>
<path transform="matrix(.1,0,0,-.1,0,792)" d="M5890.2 7147.7 6388.2 7309.5 6578.4 7571.3 6388.2 7833.1 6080.4 7933.1 5890.2 7671.3" fill="#808000"/>
<path transform="matrix(.1,0,0,-.1,0,792)" stroke-width="1" stroke-linecap="butt" stroke-miterlimit="10" stroke-linejoin="miter" fill="none" stroke="#000000" d="M5890.2 7147.7 6388.2 7309.5 6578.4 7571.3 6388.2 7833.1 6080.4 7933.1 5890.2 7671.3Z"/>
<path transform="matrix(.1,0,0,-.1,0,792)" d="M1671.3 170 1481.1-91.8008 1173.3 8.19922 1481.1-415.398 1979-253.602 1671.3-153.602" fill="#b20000"/>
<path transform="matrix(.1,0,0,-.1,0,792)" stroke-width="1" stroke-linecap="butt" stroke-miterlimit="10" stroke-linejoin="miter" fill="none" stroke="#000000" d="M1671.3 170 1481.1-91.8008 1173.3 8.19922 1481.1-415.398 1979-253.602 1671.3-153.602Z"/>
<path transform="matrix(.1,0,0,-.1,0,792)" d="M2286.8 170V-153.602L1979-253.602 2286.8-353.602V-677.199L2477-415.398 2784.8-515.398 2594.6-253.602 2784.8 8.19922 2477-91.8008" fill="#b20000"/>
<path transform="matrix(.1,0,0,-.1,0,792)" stroke-width="1" stroke-linecap="butt" stroke-miterlimit="10" stroke-linejoin="miter" fill="none" stroke="#000000" d="M2286.8 170V-153.602L1979-253.602 2286.8-353.602V-677.199L2477-415.398 2784.8-515.398 2594.6-253.602 2784.8 8.19922 2477-91.8008Z"/>
<path transform="matrix(.1,0,0,-.1,0,792)" d="M3282.8 170 2784.8 8.19922 2594.6-253.602 2784.8-515.398 3092.6-615.398 3282.8-353.602" fill="#808000"/>
<path transform="matrix(.1,0,0,-.1,0,792)" stroke-width="1" stroke-linecap="butt" stroke-miterlimit="10" stroke-linejoin="miter" fill="none" stroke="#000000" d="M3282.8 170 2784.8 8.19922 2594.6-253.602 2784.8-515.398 3092.6-615.398 3282.8-353.602Z"/>
<path transform="matrix(.1,0,0,-.1,0,792)" d="M3898.3 170V-353.602L4088.5-615.398 4396.3-515.398 4704.1-91.8008" fill="#808000"/>
<path transform="matrix(.1,0,0,-.1,0,792)" stroke-width="1" stroke-linecap="butt" stroke-miterlimit="10" stroke-linejoin="miter" fill="none" stroke="#000000" d="M3898.3 170V-353.602L4088.5-615.398 4396.3-515.398 4704.1-91.8008Z"/>
<path transform="matrix(.1,0,0,-.1,0,792)" d="M865.5 108.199 675.301-153.602V-477.199L983.102-577.199 1481.1-415.398 1173.3 8.19922" fill="#808000"/>
<path transform="matrix(.1,0,0,-.1,0,792)" stroke-width="1" stroke-linecap="butt" stroke-miterlimit="10" stroke-linejoin="miter" fill="none" stroke="#000000" d="M865.5 108.199 675.301-153.602V-477.199L983.102-577.199 1481.1-415.398 1173.3 8.19922Z"/>
<path transform="matrix(.1,0,0,-.1,0,792)" d="M3590.5 70 3282.8-353.602V-677.199L3590.5-777.199 3898.3-677.199V-353.602" fill="#808000"/>
<path transform="matrix(.1,0,0,-.1,0,792)" stroke-width="1" stroke-linecap="butt" stroke-miterlimit="10" stroke-linejoin="miter" fill="none" stroke="#000000" d="M3590.5 70 3282.8-353.602V-677.199L3590.5-777.199 3898.3-677.199V-353.602Z"/>
<path transform="matrix(.1,0,0,-.1,0,792)" d="M6007.8 131.801 6315.5-291.801 6505.8-230V-30Z" fill="#804000"/>
<path transform="matrix(.1,0,0,-.1,0,792)" stroke-width="1" stroke-linecap="butt" stroke-miterlimit="10" stroke-linejoin="miter" fill="none" stroke="#000000" d="M6007.8 131.801 6315.5-291.801 6505.8-230V-30Z"/>
<path transform="matrix(.1,0,0,-.1,0,792)" d="M6007.8 655.398 6315.5 755.398 6505.8 493.602V817.199L6813.5 917.199 6505.8 1017.2V1340.8L6315.5 1079 6007.8 1179 6198 917.199" fill="#b20000"/>
<path transform="matrix(.1,0,0,-.1,0,792)" stroke-width="1" stroke-linecap="butt" stroke-miterlimit="10" stroke-linejoin="miter" fill="none" stroke="#000000" d="M6007.8 655.398 6315.5 755.398 6505.8 493.602V817.199L6813.5 917.199 6505.8 1017.2V1340.8L6315.5 1079 6007.8 1179 6198 917.199Z"/>
<path transform="matrix(.1,0,0,-.1,0,792)" d="M-130.398 108.199-628.398-53.6016-320.602-153.602V-477.199L-130.398-215.398 177.301-315.398" fill="#b20000"/>
<path transform="matrix(.1,0,0,-.1,0,792)" stroke-width="1" stroke-linecap="butt" stroke-miterlimit="10" stroke-linejoin="miter" fill="none" stroke="#000000" d="M-130.398 108.199-628.398-53.6016-320.602-153.602V-477.199L-130.398-215.398 177.301-315.398Z"/>
<path transform="matrix(.1,0,0,-.1,0,792)" d="M6080.4 6885.9 6886.2 6624.1V7147.7L6696 7409.5 6388.2 7309.5" fill="#808000"/>
<path transform="matrix(.1,0,0,-.1,0,792)" stroke-width="1" stroke-linecap="butt" stroke-miterlimit="10" stroke-linejoin="miter" fill="none" stroke="#000000" d="M6080.4 6885.9 6886.2 6624.1V7147.7L6696 7409.5 6388.2 7309.5Z"/>
<path transform="matrix(.1,0,0,-.1,0,792)" d="M6080.4 8256.7 6388.2 7833.1 6696 7733.1 6886.2 7994.9V8318.5L6578.4 8418.5" fill="#808000"/>
<path transform="matrix(.1,0,0,-.1,0,792)" stroke-width="1" stroke-linecap="butt" stroke-miterlimit="10" stroke-linejoin="miter" fill="none" stroke="#000000" d="M6080.4 8256.7 6388.2 7833.1 6696 7733.1 6886.2 7994.9V8318.5L6578.4 8418.5Z"/>
</svg>
