<svg xmlns="http://www.w3.org/2000/svg" xmlns:xlink="http://www.w3.org/1999/xlink" xmlns:inkscape="http://www.inkscape.org/namespaces/inkscape" version="1.1" width="612" height="792" viewBox="0 0 612 792">
<path transform="matrix(.1,0,0,-.1,0,792)" d="M2619.4 2610H3419.4V4210H4219.4V5010H2619.4 1819.4V4210H2619.4V3410" fill="#7ad157"/>
<path transform="matrix(.1,0,0,-.1,0,792)" stroke-width="15" stroke-linecap="butt" stroke-miterlimit="10" stroke-linejoin="miter" fill="none" stroke="#000000" d="M2619.4 2610H3419.4V4210H4219.4V5010H2619.4 1819.4V4210H2619.4V3410Z"/>
<path transform="matrix(.1,0,0,-.1,0,792)" d="M1819.4 3410H2619.4V4210H1819.4Z" fill="#2e2105"/>
<path transform="matrix(.1,0,0,-.1,0,792)" stroke-width="15" stroke-linecap="butt" stroke-miterlimit="10" stroke-linejoin="miter" fill="none" stroke="#000000" d="M1819.4 3410H2619.4V4210H1819.4Z"/>
<path transform="matrix(.1,0,0,-.1,0,792)" d="M3419.4 4210V1810H4219.4V2610H5019.4 5819.4V3410H4219.4V4210" fill="#7ad157"/>
<path transform="matrix(.1,0,0,-.1,0,792)" stroke-width="15" stroke-linecap="butt" stroke-miterlimit="10" stroke-linejoin="miter" fill="none" stroke="#000000" d="M3419.4 4210V1810H4219.4V2610H5019.4 5819.4V3410H4219.4V4210Z"/>
<path transform="matrix(.1,0,0,-.1,0,792)" d="M1819.4 5010H2619.4V5810H1819.4Z" fill="#78fd59"/>
<path transform="matrix(.1,0,0,-.1,0,792)" stroke-width="15" stroke-linecap="butt" stroke-miterlimit="10" stroke-linejoin="miter" fill="none" stroke="#000000" d="M1819.4 5010H2619.4V5810H1819.4Z"/>
<path transform="matrix(.1,0,0,-.1,0,792)" d="M2619.4 5010H4219.4V4210H5019.4V5810 6610H4219.4V5810H3419.4 2619.4" fill="#7ad157"/>
<path transform="matrix(.1,0,0,-.1,0,792)" stroke-width="15" stroke-linecap="butt" stroke-miterlimit="10" stroke-linejoin="miter" fill="none" stroke="#000000" d="M2619.4 5010H4219.4V4210H5019.4V5810 6610H4219.4V5810H3419.4 2619.4Z"/>
<path transform="matrix(.1,0,0,-.1,0,792)" d="M1819.4 2610H2619.4V3410H1819.4Z" fill="#f2b0a1"/>
<path transform="matrix(.1,0,0,-.1,0,792)" stroke-width="15" stroke-linecap="butt" stroke-miterlimit="10" stroke-linejoin="miter" fill="none" stroke="#000000" d="M1819.4 2610H2619.4V3410H1819.4Z"/>
<path transform="matrix(.1,0,0,-.1,0,792)" d="M1819.4 4210H1019.4V5810H219.398V4210H-580.602V3410H1019.4 1819.4" fill="#7ad157"/>
<path transform="matrix(.1,0,0,-.1,0,792)" stroke-width="15" stroke-linecap="butt" stroke-miterlimit="10" stroke-linejoin="miter" fill="none" stroke="#000000" d="M1819.4 4210H1019.4V5810H219.398V4210H-580.602V3410H1019.4 1819.4Z"/>
<path transform="matrix(.1,0,0,-.1,0,792)" d="M1019.4 4210H1819.4V5010H1019.4Z" fill="#2e2105"/>
<path transform="matrix(.1,0,0,-.1,0,792)" stroke-width="15" stroke-linecap="butt" stroke-miterlimit="10" stroke-linejoin="miter" fill="none" stroke="#000000" d="M1019.4 4210H1819.4V5010H1019.4Z"/>
<path transform="matrix(.1,0,0,-.1,0,792)" d="M1019.4 5010H1819.4V5810H1019.4Z" fill="#f2b0a1"/>
<path transform="matrix(.1,0,0,-.1,0,792)" stroke-width="15" stroke-linecap="butt" stroke-miterlimit="10" stroke-linejoin="miter" fill="none" stroke="#000000" d="M1019.4 5010H1819.4V5810H1019.4Z"/>
<path transform="matrix(.1,0,0,-.1,0,792)" d="M1019.4 2610H1819.4V3410H1019.4Z" fill="#78fd59"/>
<path transform="matrix(.1,0,0,-.1,0,792)" stroke-width="15" stroke-linecap="butt" stroke-miterlimit="10" stroke-linejoin="miter" fill="none" stroke="#000000" d="M1019.4 2610H1819.4V3410H1019.4Z"/>
<path transform="matrix(.1,0,0,-.1,0,792)" d="M1819.4 1810H2619.4V2610H1819.4Z" fill="#7da14a"/>
<path transform="matrix(.1,0,0,-.1,0,792)" stroke-width="15" stroke-linecap="butt" stroke-miterlimit="10" stroke-linejoin="miter" fill="none" stroke="#000000" d="M1819.4 1810H2619.4V2610H1819.4Z"/>
<path transform="matrix(.1,0,0,-.1,0,792)" d="M1019.4 1810H1819.4V2610H1019.4Z" fill="#7da14a"/>
<path transform="matrix(.1,0,0,-.1,0,792)" stroke-width="15" stroke-linecap="butt" stroke-miterlimit="10" stroke-linejoin="miter" fill="none" stroke="#000000" d="M1019.4 1810H1819.4V2610H1019.4Z"/>
<path transform="matrix(.1,0,0,-.1,0,792)" d="M2619.4 1810H3419.4V2610H2619.4Z" fill="#78fd59"/>
<path transform="matrix(.1,0,0,-.1,0,792)" stroke-width="15" stroke-linecap="butt" stroke-miterlimit="10" stroke-linejoin="miter" fill="none" stroke="#000000" d="M2619.4 1810H3419.4V2610H2619.4Z"/>
<path transform="matrix(.1,0,0,-.1,0,792)" d="M2619.4 5810H3419.4V6610H2619.4Z" fill="#f2b0a1"/>
<path transform="matrix(.1,0,0,-.1,0,792)" stroke-width="15" stroke-linecap="butt" stroke-miterlimit="10" stroke-linejoin="miter" fill="none" stroke="#000000" d="M2619.4 5810H3419.4V6610H2619.4Z"/>
<path transform="matrix(.1,0,0,-.1,0,792)" d="M3419.4 5810H4219.4V6610H3419.4Z" fill="#2e2105"/>
<path transform="matrix(.1,0,0,-.1,0,792)" stroke-width="15" stroke-linecap="butt" stroke-miterlimit="10" stroke-linejoin="miter" fill="none" stroke="#000000" d="M3419.4 5810H4219.4V6610H3419.4Z"/>
<path transform="matrix(.1,0,0,-.1,0,792)" d="M1819.4 5810H2619.4V6610H1819.4Z" fill="#7da14a"/>
<path transform="matrix(.1,0,0,-.1,0,792)" stroke-width="15" stroke-linecap="butt" stroke-miterlimit="10" stroke-linejoin="miter" fill="none" stroke="#000000" d="M1819.4 5810H2619.4V6610H1819.4Z"/>
<path transform="matrix(.1,0,0,-.1,0,792)" d="M1019.4 5810H1819.4V6610H1019.4Z" fill="#7da14a"/>
<path transform="matrix(.1,0,0,-.1,0,792)" stroke-width="15" stroke-linecap="butt" stroke-miterlimit="10" stroke-linejoin="miter" fill="none" stroke="#000000" d="M1019.4 5810H1819.4V6610H1019.4Z"/>
<path transform="matrix(.1,0,0,-.1,0,792)" d="M4219.4 1810H5019.4V2610H4219.4Z" fill="#2e2105"/>
<path transform="matrix(.1,0,0,-.1,0,792)" stroke-width="15" stroke-linecap="butt" stroke-miterlimit="10" stroke-linejoin="miter" fill="none" stroke="#000000" d="M4219.4 1810H5019.4V2610H4219.4Z"/>
<path transform="matrix(.1,0,0,-.1,0,792)" d="M4219.4 3410H6619.4V4210H5819.4V5010 5810H5019.4V4210H4219.4" fill="#7ad157"/>
<path transform="matrix(.1,0,0,-.1,0,792)" stroke-width="15" stroke-linecap="butt" stroke-miterlimit="10" stroke-linejoin="miter" fill="none" stroke="#000000" d="M4219.4 3410H6619.4V4210H5819.4V5010 5810H5019.4V4210H4219.4Z"/>
<path transform="matrix(.1,0,0,-.1,0,792)" d="M4219.4 6610V7410H5819.4V8210H4219.4V9010H3419.4V7410 6610" fill="#7ad157"/>
<path transform="matrix(.1,0,0,-.1,0,792)" stroke-width="15" stroke-linecap="butt" stroke-miterlimit="10" stroke-linejoin="miter" fill="none" stroke="#000000" d="M4219.4 6610V7410H5819.4V8210H4219.4V9010H3419.4V7410 6610Z"/>
<path transform="matrix(.1,0,0,-.1,0,792)" d="M4219.4 6610H5019.4V7410H4219.4Z" fill="#2e2105"/>
<path transform="matrix(.1,0,0,-.1,0,792)" stroke-width="15" stroke-linecap="butt" stroke-miterlimit="10" stroke-linejoin="miter" fill="none" stroke="#000000" d="M4219.4 6610H5019.4V7410H4219.4Z"/>
<path transform="matrix(.1,0,0,-.1,0,792)" d="M2619.4 6610H3419.4V7410H2619.4Z" fill="#78fd59"/>
<path transform="matrix(.1,0,0,-.1,0,792)" stroke-width="15" stroke-linecap="butt" stroke-miterlimit="10" stroke-linejoin="miter" fill="none" stroke="#000000" d="M2619.4 6610H3419.4V7410H2619.4Z"/>
<path transform="matrix(.1,0,0,-.1,0,792)" d="M1819.4 6610H2619.4V7410H1819.4Z" fill="#7da14a"/>
<path transform="matrix(.1,0,0,-.1,0,792)" stroke-width="15" stroke-linecap="butt" stroke-miterlimit="10" stroke-linejoin="miter" fill="none" stroke="#000000" d="M1819.4 6610H2619.4V7410H1819.4Z"/>
<path transform="matrix(.1,0,0,-.1,0,792)" d="M1019.4 6610H1819.4V7410H1019.4Z" fill="#7da14a"/>
<path transform="matrix(.1,0,0,-.1,0,792)" stroke-width="15" stroke-linecap="butt" stroke-miterlimit="10" stroke-linejoin="miter" fill="none" stroke="#000000" d="M1019.4 6610H1819.4V7410H1019.4Z"/>
<path transform="matrix(.1,0,0,-.1,0,792)" d="M1819.4 1010H2619.4V1810H1819.4Z" fill="#7da14a"/>
<path transform="matrix(.1,0,0,-.1,0,792)" stroke-width="15" stroke-linecap="butt" stroke-miterlimit="10" stroke-linejoin="miter" fill="none" stroke="#000000" d="M1819.4 1010H2619.4V1810H1819.4Z"/>
<path transform="matrix(.1,0,0,-.1,0,792)" d="M1019.4 1010H1819.4V1810H1019.4Z" fill="#7da14a"/>
<path transform="matrix(.1,0,0,-.1,0,792)" stroke-width="15" stroke-linecap="butt" stroke-miterlimit="10" stroke-linejoin="miter" fill="none" stroke="#000000" d="M1019.4 1010H1819.4V1810H1019.4Z"/>
<path transform="matrix(.1,0,0,-.1,0,792)" d="M2619.4 1010H3419.4V1810H2619.4Z" fill="#f2b0a1"/>
<path transform="matrix(.1,0,0,-.1,0,792)" stroke-width="15" stroke-linecap="butt" stroke-miterlimit="10" stroke-linejoin="miter" fill="none" stroke="#000000" d="M2619.4 1010H3419.4V1810H2619.4Z"/>
<path transform="matrix(.1,0,0,-.1,0,792)" d="M3419.4 1010H4219.4V1810H3419.4Z" fill="#2e2105"/>
<path transform="matrix(.1,0,0,-.1,0,792)" stroke-width="15" stroke-linecap="butt" stroke-miterlimit="10" stroke-linejoin="miter" fill="none" stroke="#000000" d="M3419.4 1010H4219.4V1810H3419.4Z"/>
<path transform="matrix(.1,0,0,-.1,0,792)" d="M4219.4 1810V1010H2619.4V210H4219.4V-590H5019.4V1010 1810" fill="#7ad157"/>
<path transform="matrix(.1,0,0,-.1,0,792)" stroke-width="15" stroke-linecap="butt" stroke-miterlimit="10" stroke-linejoin="miter" fill="none" stroke="#000000" d="M4219.4 1810V1010H2619.4V210H4219.4V-590H5019.4V1010 1810Z"/>
<path transform="matrix(.1,0,0,-.1,0,792)" d="M219.398 5810H1019.398V6610H219.398Z" fill="#78fd59"/>
<path transform="matrix(.1,0,0,-.1,0,792)" stroke-width="15" stroke-linecap="butt" stroke-miterlimit="10" stroke-linejoin="miter" fill="none" stroke="#000000" d="M219.398 5810H1019.398V6610H219.398Z"/>
<path transform="matrix(.1,0,0,-.1,0,792)" d="M219.398 6610H1019.398V7410H219.398Z" fill="#f2b0a1"/>
<path transform="matrix(.1,0,0,-.1,0,792)" stroke-width="15" stroke-linecap="butt" stroke-miterlimit="10" stroke-linejoin="miter" fill="none" stroke="#000000" d="M219.398 6610H1019.398V7410H219.398Z"/>
<path transform="matrix(.1,0,0,-.1,0,792)" d="M1019.4 3410H-580.602V4210H-1380.6V2610 1810H-580.602V2610H219.398 1019.4" fill="#7ad157"/>
<path transform="matrix(.1,0,0,-.1,0,792)" stroke-width="15" stroke-linecap="butt" stroke-miterlimit="10" stroke-linejoin="miter" fill="none" stroke="#000000" d="M1019.4 3410H-580.602V4210H-1380.6V2610 1810H-580.602V2610H219.398 1019.4Z"/>
<path transform="matrix(.1,0,0,-.1,0,792)" d="M219.398 1810H1019.398V2610H219.398Z" fill="#f2b0a1"/>
<path transform="matrix(.1,0,0,-.1,0,792)" stroke-width="15" stroke-linecap="butt" stroke-miterlimit="10" stroke-linejoin="miter" fill="none" stroke="#000000" d="M219.398 1810H1019.398V2610H219.398Z"/>
<path transform="matrix(.1,0,0,-.1,0,792)" d="M219.398 1010H1019.398V1810H219.398Z" fill="#78fd59"/>
<path transform="matrix(.1,0,0,-.1,0,792)" stroke-width="15" stroke-linecap="butt" stroke-miterlimit="10" stroke-linejoin="miter" fill="none" stroke="#000000" d="M219.398 1010H1019.398V1810H219.398Z"/>
<path transform="matrix(.1,0,0,-.1,0,792)" d="M5019.4 1810H5819.4V2610H5019.4Z" fill="#f2b0a1"/>
<path transform="matrix(.1,0,0,-.1,0,792)" stroke-width="15" stroke-linecap="butt" stroke-miterlimit="10" stroke-linejoin="miter" fill="none" stroke="#000000" d="M5019.4 1810H5819.4V2610H5019.4Z"/>
<path transform="matrix(.1,0,0,-.1,0,792)" d="M5019.4 1010H5819.4V1810H5019.4Z" fill="#78fd59"/>
<path transform="matrix(.1,0,0,-.1,0,792)" stroke-width="15" stroke-linecap="butt" stroke-miterlimit="10" stroke-linejoin="miter" fill="none" stroke="#000000" d="M5019.4 1010H5819.4V1810H5019.4Z"/>
<path transform="matrix(.1,0,0,-.1,0,792)" d="M5019.4 5810H5819.4V6610H5019.4Z" fill="#78fd59"/>
<path transform="matrix(.1,0,0,-.1,0,792)" stroke-width="15" stroke-linecap="butt" stroke-miterlimit="10" stroke-linejoin="miter" fill="none" stroke="#000000" d="M5019.4 5810H5819.4V6610H5019.4Z"/>
<path transform="matrix(.1,0,0,-.1,0,792)" d="M5019.4 6610H5819.4V7410H5019.4Z" fill="#f2b0a1"/>
<path transform="matrix(.1,0,0,-.1,0,792)" stroke-width="15" stroke-linecap="butt" stroke-miterlimit="10" stroke-linejoin="miter" fill="none" stroke="#000000" d="M5019.4 6610H5819.4V7410H5019.4Z"/>
<path transform="matrix(.1,0,0,-.1,0,792)" d="M3419.4 7410V9010H4219.4V9810H2619.4 1819.4V9010H2619.4V8210 7410" fill="#7ad157"/>
<path transform="matrix(.1,0,0,-.1,0,792)" stroke-width="15" stroke-linecap="butt" stroke-miterlimit="10" stroke-linejoin="miter" fill="none" stroke="#000000" d="M3419.4 7410V9010H4219.4V9810H2619.4 1819.4V9010H2619.4V8210 7410Z"/>
<path transform="matrix(.1,0,0,-.1,0,792)" d="M1819.4 7410H2619.4V8210H1819.4Z" fill="#f2b0a1"/>
<path transform="matrix(.1,0,0,-.1,0,792)" stroke-width="15" stroke-linecap="butt" stroke-miterlimit="10" stroke-linejoin="miter" fill="none" stroke="#000000" d="M1819.4 7410H2619.4V8210H1819.4Z"/>
<path transform="matrix(.1,0,0,-.1,0,792)" d="M1019.4 7410H1819.4V8210H1019.4Z" fill="#78fd59"/>
<path transform="matrix(.1,0,0,-.1,0,792)" stroke-width="15" stroke-linecap="butt" stroke-miterlimit="10" stroke-linejoin="miter" fill="none" stroke="#000000" d="M1019.4 7410H1819.4V8210H1019.4Z"/>
<path transform="matrix(.1,0,0,-.1,0,792)" d="M1019.4 7410V8210H-580.602V9010H-1380.6V7410 6610H-580.602V7410H219.398" fill="#7ad157"/>
<path transform="matrix(.1,0,0,-.1,0,792)" stroke-width="15" stroke-linecap="butt" stroke-miterlimit="10" stroke-linejoin="miter" fill="none" stroke="#000000" d="M1019.4 7410V8210H-580.602V9010H-1380.6V7410 6610H-580.602V7410H219.398Z"/>
<path transform="matrix(.1,0,0,-.1,0,792)" d="M1019.4 210H1819.4V1010H1019.4Z" fill="#f2b0a1"/>
<path transform="matrix(.1,0,0,-.1,0,792)" stroke-width="15" stroke-linecap="butt" stroke-miterlimit="10" stroke-linejoin="miter" fill="none" stroke="#000000" d="M1019.4 210H1819.4V1010H1019.4Z"/>
<path transform="matrix(.1,0,0,-.1,0,792)" d="M1019.4 1010H219.398V-590H-580.602V-1390H1019.4 1819.4V-590H1019.4V210" fill="#7ad157"/>
<path transform="matrix(.1,0,0,-.1,0,792)" stroke-width="15" stroke-linecap="butt" stroke-miterlimit="10" stroke-linejoin="miter" fill="none" stroke="#000000" d="M1019.4 1010H219.398V-590H-580.602V-1390H1019.4 1819.4V-590H1019.4V210Z"/>
<path transform="matrix(.1,0,0,-.1,0,792)" d="M1819.4 210H2619.4V1010H1819.4Z" fill="#78fd59"/>
<path transform="matrix(.1,0,0,-.1,0,792)" stroke-width="15" stroke-linecap="butt" stroke-miterlimit="10" stroke-linejoin="miter" fill="none" stroke="#000000" d="M1819.4 210H2619.4V1010H1819.4Z"/>
<path transform="matrix(.1,0,0,-.1,0,792)" d="M5019.4 1010V-590H4219.4V-1390H5819.4 6619.4V-590H5819.4V210 1010" fill="#7ad157"/>
<path transform="matrix(.1,0,0,-.1,0,792)" stroke-width="15" stroke-linecap="butt" stroke-miterlimit="10" stroke-linejoin="miter" fill="none" stroke="#000000" d="M5019.4 1010V-590H4219.4V-1390H5819.4 6619.4V-590H5819.4V210 1010Z"/>
<path transform="matrix(.1,0,0,-.1,0,792)" d="M0 6610H219.398V7410H0Z" fill="#2e2105"/>
<path transform="matrix(.1,0,0,-.1,0,792)" stroke-width="15" stroke-linecap="butt" stroke-miterlimit="10" stroke-linejoin="miter" fill="none" stroke="#000000" d="M-8.49609 6610H219.39891V7410H-8.49609Z"/>
<path transform="matrix(.1,0,0,-.1,0,792)" d="M219.398 6610H-580.602V5810H-2180.6V5010H-580.602V4210H219.398V5810" fill="#7ad157"/>
<path transform="matrix(.1,0,0,-.1,0,792)" stroke-width="15" stroke-linecap="butt" stroke-miterlimit="10" stroke-linejoin="miter" fill="none" stroke="#000000" d="M219.398 6610H-580.602V5810H-2180.6V5010H-580.602V4210H219.398V5810Z"/>
<path transform="matrix(.1,0,0,-.1,0,792)" d="M0 1810H219.398V2610H0Z" fill="#2e2105"/>
<path transform="matrix(.1,0,0,-.1,0,792)" stroke-width="15" stroke-linecap="butt" stroke-miterlimit="10" stroke-linejoin="miter" fill="none" stroke="#000000" d="M-8.49609 1810H219.39891V2610H-8.49609Z"/>
<path transform="matrix(.1,0,0,-.1,0,792)" d="M219.398 1810H-580.602V1010H-2180.6V210H-580.602V-590H219.398V1010" fill="#7ad157"/>
<path transform="matrix(.1,0,0,-.1,0,792)" stroke-width="15" stroke-linecap="butt" stroke-miterlimit="10" stroke-linejoin="miter" fill="none" stroke="#000000" d="M219.398 1810H-580.602V1010H-2180.6V210H-580.602V-590H219.398V1010Z"/>
<path transform="matrix(.1,0,0,-.1,0,792)" d="M5819.4 1010H6619.4V1810H5819.4Z" fill="#7da14a"/>
<path transform="matrix(.1,0,0,-.1,0,792)" stroke-width="15" stroke-linecap="butt" stroke-miterlimit="10" stroke-linejoin="miter" fill="none" stroke="#000000" d="M5819.4 1010H6619.4V1810H5819.4Z"/>
<path transform="matrix(.1,0,0,-.1,0,792)" d="M5819.4 210H6619.4V1010H5819.4Z" fill="#f2b0a1"/>
<path transform="matrix(.1,0,0,-.1,0,792)" stroke-width="15" stroke-linecap="butt" stroke-miterlimit="10" stroke-linejoin="miter" fill="none" stroke="#000000" d="M5819.4 210H6619.4V1010H5819.4Z"/>
<path transform="matrix(.1,0,0,-.1,0,792)" d="M5819.4 1810H6619.4V2610H5819.4Z" fill="#7da14a"/>
<path transform="matrix(.1,0,0,-.1,0,792)" stroke-width="15" stroke-linecap="butt" stroke-miterlimit="10" stroke-linejoin="miter" fill="none" stroke="#000000" d="M5819.4 1810H6619.4V2610H5819.4Z"/>
<path transform="matrix(.1,0,0,-.1,0,792)" d="M5819.4 2610H6619.4V3410H5819.4Z" fill="#78fd59"/>
<path transform="matrix(.1,0,0,-.1,0,792)" stroke-width="15" stroke-linecap="butt" stroke-miterlimit="10" stroke-linejoin="miter" fill="none" stroke="#000000" d="M5819.4 2610H6619.4V3410H5819.4Z"/>
<path transform="matrix(.1,0,0,-.1,0,792)" d="M5819.4 4210H6619.4V5010H5819.4Z" fill="#2e2105"/>
<path transform="matrix(.1,0,0,-.1,0,792)" stroke-width="15" stroke-linecap="butt" stroke-miterlimit="10" stroke-linejoin="miter" fill="none" stroke="#000000" d="M5819.4 4210H6619.4V5010H5819.4Z"/>
<path transform="matrix(.1,0,0,-.1,0,792)" d="M5819.4 5010H6619.4V5810H5819.4Z" fill="#f2b0a1"/>
<path transform="matrix(.1,0,0,-.1,0,792)" stroke-width="15" stroke-linecap="butt" stroke-miterlimit="10" stroke-linejoin="miter" fill="none" stroke="#000000" d="M5819.4 5010H6619.4V5810H5819.4Z"/>
<path transform="matrix(.1,0,0,-.1,0,792)" d="M5819.4 5810H6619.4V6610H5819.4Z" fill="#7da14a"/>
<path transform="matrix(.1,0,0,-.1,0,792)" stroke-width="15" stroke-linecap="butt" stroke-miterlimit="10" stroke-linejoin="miter" fill="none" stroke="#000000" d="M5819.4 5810H6619.4V6610H5819.4Z"/>
<path transform="matrix(.1,0,0,-.1,0,792)" d="M5819.4 6610H6619.4V7410H5819.4Z" fill="#7da14a"/>
<path transform="matrix(.1,0,0,-.1,0,792)" stroke-width="15" stroke-linecap="butt" stroke-miterlimit="10" stroke-linejoin="miter" fill="none" stroke="#000000" d="M5819.4 6610H6619.4V7410H5819.4Z"/>
<path transform="matrix(.1,0,0,-.1,0,792)" d="M5819.4 7410H6619.4V8210H5819.4Z" fill="#78fd59"/>
<path transform="matrix(.1,0,0,-.1,0,792)" stroke-width="15" stroke-linecap="butt" stroke-miterlimit="10" stroke-linejoin="miter" fill="none" stroke="#000000" d="M5819.4 7410H6619.4V8210H5819.4Z"/>
<path transform="matrix(.1,0,0,-.1,0,792)" d="M1019.4 0H1819.4V210H1019.4Z" fill="#2e2105"/>
<path transform="matrix(.1,0,0,-.1,0,792)" stroke-width="15" stroke-linecap="butt" stroke-miterlimit="10" stroke-linejoin="miter" fill="none" stroke="#000000" d="M1019.4-8.49609H1819.4V209.99991H1019.4Z"/>
<path transform="matrix(.1,0,0,-.1,0,792)" d="M1819.4 210V-590H2619.4V-2190H3419.4V-590H4219.4V210H2619.4" fill="#7ad157"/>
<path transform="matrix(.1,0,0,-.1,0,792)" stroke-width="15" stroke-linecap="butt" stroke-miterlimit="10" stroke-linejoin="miter" fill="none" stroke="#000000" d="M1819.4 210V-590H2619.4V-2190H3419.4V-590H4219.4V210H2619.4Z"/>
<path transform="matrix(.1,0,0,-.1,0,792)" d="M5819.4 0H6619.4V210H5819.4Z" fill="#2e2105"/>
<path transform="matrix(.1,0,0,-.1,0,792)" stroke-width="15" stroke-linecap="butt" stroke-miterlimit="10" stroke-linejoin="miter" fill="none" stroke="#000000" d="M5819.4-8.49609H6619.4V209.99991H5819.4Z"/>
</svg>
