<svg xmlns="http://www.w3.org/2000/svg" xmlns:xlink="http://www.w3.org/1999/xlink" xmlns:inkscape="http://www.inkscape.org/namespaces/inkscape" version="1.1" width="612" height="792" viewBox="0 0 612 792">
<path transform="matrix(.1,0,0,-.1,0,792)" d="M3796.3 4210 3585.8 4718.1 3077.7 4928.6 2569.5 4718.1 2359 4210 2569.5 3701.9 3077.7 3491.4 3585.8 3701.9" fill="#edd6bf"/>
<path transform="matrix(.1,0,0,-.1,0,792)" stroke-width="1" stroke-linecap="butt" stroke-miterlimit="10" stroke-linejoin="miter" fill="none" stroke="#000000" d="M3796.3 4210 3585.8 4718.1 3077.7 4928.6 2569.5 4718.1 2359 4210 2569.5 3701.9 3077.7 3491.4 3585.8 3701.9Z"/>
<path transform="matrix(.1,0,0,-.1,0,792)" d="M2569.5 4718.1H2148.6L2359 4210" fill="#521f1f"/>
<path transform="matrix(.1,0,0,-.1,0,792)" stroke-width="1" stroke-linecap="butt" stroke-miterlimit="10" stroke-linejoin="miter" fill="none" stroke="#000000" d="M2569.5 4718.1H2148.6L2359 4210Z"/>
<path transform="matrix(.1,0,0,-.1,0,792)" d="M2148.6 4718.1H2569.498V5139.1H2148.6Z" fill="#54ab9b"/>
<path transform="matrix(.1,0,0,-.1,0,792)" stroke-width="1" stroke-linecap="butt" stroke-miterlimit="10" stroke-linejoin="miter" fill="none" stroke="#000000" d="M2148.6 4718.1H2569.498V5139.1H2148.6Z"/>
<path transform="matrix(.1,0,0,-.1,0,792)" d="M2569.5 4718.1 3077.7 4928.6 2569.5 5139.1" fill="#521f1f"/>
<path transform="matrix(.1,0,0,-.1,0,792)" stroke-width="1" stroke-linecap="butt" stroke-miterlimit="10" stroke-linejoin="miter" fill="none" stroke="#000000" d="M2569.5 4718.1 3077.7 4928.6 2569.5 5139.1Z"/>
<path transform="matrix(.1,0,0,-.1,0,792)" d="M2569.5 3701.9V3280.9L3077.7 3491.4" fill="#521f1f"/>
<path transform="matrix(.1,0,0,-.1,0,792)" stroke-width="1" stroke-linecap="butt" stroke-miterlimit="10" stroke-linejoin="miter" fill="none" stroke="#000000" d="M2569.5 3701.9V3280.9L3077.7 3491.4Z"/>
<path transform="matrix(.1,0,0,-.1,0,792)" d="M2148.6 3280.9H2569.498V3701.9H2148.6Z" fill="#54ab9b"/>
<path transform="matrix(.1,0,0,-.1,0,792)" stroke-width="1" stroke-linecap="butt" stroke-miterlimit="10" stroke-linejoin="miter" fill="none" stroke="#000000" d="M2148.6 3280.9H2569.498V3701.9H2148.6Z"/>
<path transform="matrix(.1,0,0,-.1,0,792)" d="M2569.5 3701.9 2359 4210 2148.6 3701.9" fill="#521f1f"/>
<path transform="matrix(.1,0,0,-.1,0,792)" stroke-width="1" stroke-linecap="butt" stroke-miterlimit="10" stroke-linejoin="miter" fill="none" stroke="#000000" d="M2569.5 3701.9 2359 4210 2148.6 3701.9Z"/>
<path transform="matrix(.1,0,0,-.1,0,792)" d="M3077.7 3491.4 3585.8 3280.9V3701.9" fill="#521f1f"/>
<path transform="matrix(.1,0,0,-.1,0,792)" stroke-width="1" stroke-linecap="butt" stroke-miterlimit="10" stroke-linejoin="miter" fill="none" stroke="#000000" d="M3077.7 3491.4 3585.8 3280.9V3701.9Z"/>
<path transform="matrix(.1,0,0,-.1,0,792)" d="M3077.7 3491.4 2569.5 3280.9 2359 2772.8 2569.5 2264.6 3077.7 2054.2 3585.8 2264.6 3796.3 2772.8 3585.8 3280.9" fill="#edd6bf"/>
<path transform="matrix(.1,0,0,-.1,0,792)" stroke-width="1" stroke-linecap="butt" stroke-miterlimit="10" stroke-linejoin="miter" fill="none" stroke="#000000" d="M3077.7 3491.4 2569.5 3280.9 2359 2772.8 2569.5 2264.6 3077.7 2054.2 3585.8 2264.6 3796.3 2772.8 3585.8 3280.9Z"/>
<path transform="matrix(.1,0,0,-.1,0,792)" d="M3077.7 4928.6 3585.8 5139.1 3796.3 5647.2 3585.8 6155.4 3077.7 6365.8 2569.5 6155.4 2359 5647.2 2569.5 5139.1" fill="#edd6bf"/>
<path transform="matrix(.1,0,0,-.1,0,792)" stroke-width="1" stroke-linecap="butt" stroke-miterlimit="10" stroke-linejoin="miter" fill="none" stroke="#000000" d="M3077.7 4928.6 3585.8 5139.1 3796.3 5647.2 3585.8 6155.4 3077.7 6365.8 2569.5 6155.4 2359 5647.2 2569.5 5139.1Z"/>
<path transform="matrix(.1,0,0,-.1,0,792)" d="M3077.7 4928.6 3585.8 4718.1V5139.1" fill="#521f1f"/>
<path transform="matrix(.1,0,0,-.1,0,792)" stroke-width="1" stroke-linecap="butt" stroke-miterlimit="10" stroke-linejoin="miter" fill="none" stroke="#000000" d="M3077.7 4928.6 3585.8 4718.1V5139.1Z"/>
<path transform="matrix(.1,0,0,-.1,0,792)" d="M3585.8 4718.1H4006.698V5139.1H3585.8Z" fill="#54ab9b"/>
<path transform="matrix(.1,0,0,-.1,0,792)" stroke-width="1" stroke-linecap="butt" stroke-miterlimit="10" stroke-linejoin="miter" fill="none" stroke="#000000" d="M3585.8 4718.1H4006.698V5139.1H3585.8Z"/>
<path transform="matrix(.1,0,0,-.1,0,792)" d="M3585.8 4718.1 3796.3 4210 4006.7 4718.1" fill="#521f1f"/>
<path transform="matrix(.1,0,0,-.1,0,792)" stroke-width="1" stroke-linecap="butt" stroke-miterlimit="10" stroke-linejoin="miter" fill="none" stroke="#000000" d="M3585.8 4718.1 3796.3 4210 4006.7 4718.1Z"/>
<path transform="matrix(.1,0,0,-.1,0,792)" d="M3585.8 3701.9H4006.7L3796.3 4210" fill="#521f1f"/>
<path transform="matrix(.1,0,0,-.1,0,792)" stroke-width="1" stroke-linecap="butt" stroke-miterlimit="10" stroke-linejoin="miter" fill="none" stroke="#000000" d="M3585.8 3701.9H4006.7L3796.3 4210Z"/>
<path transform="matrix(.1,0,0,-.1,0,792)" d="M3585.8 3280.9H4006.698V3701.9H3585.8Z" fill="#54ab9b"/>
<path transform="matrix(.1,0,0,-.1,0,792)" stroke-width="1" stroke-linecap="butt" stroke-miterlimit="10" stroke-linejoin="miter" fill="none" stroke="#000000" d="M3585.8 3280.9H4006.698V3701.9H3585.8Z"/>
<path transform="matrix(.1,0,0,-.1,0,792)" d="M2359 4210 2148.6 4718.1 1640.4 4928.6 1132.3 4718.1 921.801 4210 1132.3 3701.9 1640.4 3491.4 2148.6 3701.9" fill="#edd6bf"/>
<path transform="matrix(.1,0,0,-.1,0,792)" stroke-width="1" stroke-linecap="butt" stroke-miterlimit="10" stroke-linejoin="miter" fill="none" stroke="#000000" d="M2359 4210 2148.6 4718.1 1640.4 4928.6 1132.3 4718.1 921.801 4210 1132.3 3701.9 1640.4 3491.4 2148.6 3701.9Z"/>
<path transform="matrix(.1,0,0,-.1,0,792)" d="M2569.5 3280.9H2148.6L2359 2772.8" fill="#521f1f"/>
<path transform="matrix(.1,0,0,-.1,0,792)" stroke-width="1" stroke-linecap="butt" stroke-miterlimit="10" stroke-linejoin="miter" fill="none" stroke="#000000" d="M2569.5 3280.9H2148.6L2359 2772.8Z"/>
<path transform="matrix(.1,0,0,-.1,0,792)" d="M3585.8 3280.9 3796.3 2772.8 4006.7 3280.9" fill="#521f1f"/>
<path transform="matrix(.1,0,0,-.1,0,792)" stroke-width="1" stroke-linecap="butt" stroke-miterlimit="10" stroke-linejoin="miter" fill="none" stroke="#000000" d="M3585.8 3280.9 3796.3 2772.8 4006.7 3280.9Z"/>
<path transform="matrix(.1,0,0,-.1,0,792)" d="M3585.8 5139.1H4006.7L3796.3 5647.2" fill="#521f1f"/>
<path transform="matrix(.1,0,0,-.1,0,792)" stroke-width="1" stroke-linecap="butt" stroke-miterlimit="10" stroke-linejoin="miter" fill="none" stroke="#000000" d="M3585.8 5139.1H4006.7L3796.3 5647.2Z"/>
<path transform="matrix(.1,0,0,-.1,0,792)" d="M2569.5 5139.1 2359 5647.2 2148.6 5139.1" fill="#521f1f"/>
<path transform="matrix(.1,0,0,-.1,0,792)" stroke-width="1" stroke-linecap="butt" stroke-miterlimit="10" stroke-linejoin="miter" fill="none" stroke="#000000" d="M2569.5 5139.1 2359 5647.2 2148.6 5139.1Z"/>
<path transform="matrix(.1,0,0,-.1,0,792)" d="M3796.3 4210 4006.7 3701.9 4514.9 3491.4 5023 3701.9 5233.5 4210 5023 4718.1 4514.9 4928.6 4006.7 4718.1" fill="#edd6bf"/>
<path transform="matrix(.1,0,0,-.1,0,792)" stroke-width="1" stroke-linecap="butt" stroke-miterlimit="10" stroke-linejoin="miter" fill="none" stroke="#000000" d="M3796.3 4210 4006.7 3701.9 4514.9 3491.4 5023 3701.9 5233.5 4210 5023 4718.1 4514.9 4928.6 4006.7 4718.1Z"/>
<path transform="matrix(.1,0,0,-.1,0,792)" d="M2148.6 5139.1 1640.4 4928.6 2148.6 4718.1" fill="#521f1f"/>
<path transform="matrix(.1,0,0,-.1,0,792)" stroke-width="1" stroke-linecap="butt" stroke-miterlimit="10" stroke-linejoin="miter" fill="none" stroke="#000000" d="M2148.6 5139.1 1640.4 4928.6 2148.6 4718.1Z"/>
<path transform="matrix(.1,0,0,-.1,0,792)" d="M2148.6 5139.1 2359 5647.2 2148.6 6155.4 1640.4 6365.8 1132.3 6155.4 921.801 5647.2 1132.3 5139.1 1640.4 4928.6" fill="#edd6bf"/>
<path transform="matrix(.1,0,0,-.1,0,792)" stroke-width="1" stroke-linecap="butt" stroke-miterlimit="10" stroke-linejoin="miter" fill="none" stroke="#000000" d="M2148.6 5139.1 2359 5647.2 2148.6 6155.4 1640.4 6365.8 1132.3 6155.4 921.801 5647.2 1132.3 5139.1 1640.4 4928.6Z"/>
<path transform="matrix(.1,0,0,-.1,0,792)" d="M2148.6 3701.9 1640.4 3491.4 2148.6 3280.9" fill="#521f1f"/>
<path transform="matrix(.1,0,0,-.1,0,792)" stroke-width="1" stroke-linecap="butt" stroke-miterlimit="10" stroke-linejoin="miter" fill="none" stroke="#000000" d="M2148.6 3701.9 1640.4 3491.4 2148.6 3280.9Z"/>
<path transform="matrix(.1,0,0,-.1,0,792)" d="M2148.6 3280.9 1640.4 3491.4 1132.3 3280.9 921.801 2772.8 1132.3 2264.6 1640.4 2054.2 2148.6 2264.6 2359 2772.8" fill="#edd6bf"/>
<path transform="matrix(.1,0,0,-.1,0,792)" stroke-width="1" stroke-linecap="butt" stroke-miterlimit="10" stroke-linejoin="miter" fill="none" stroke="#000000" d="M2148.6 3280.9 1640.4 3491.4 1132.3 3280.9 921.801 2772.8 1132.3 2264.6 1640.4 2054.2 2148.6 2264.6 2359 2772.8Z"/>
<path transform="matrix(.1,0,0,-.1,0,792)" d="M4006.7 3280.9 4514.9 3491.4 4006.7 3701.9" fill="#521f1f"/>
<path transform="matrix(.1,0,0,-.1,0,792)" stroke-width="1" stroke-linecap="butt" stroke-miterlimit="10" stroke-linejoin="miter" fill="none" stroke="#000000" d="M4006.7 3280.9 4514.9 3491.4 4006.7 3701.9Z"/>
<path transform="matrix(.1,0,0,-.1,0,792)" d="M4006.7 3280.9 3796.3 2772.8 4006.7 2264.6 4514.9 2054.2 5023 2264.6 5233.5 2772.8 5023 3280.9 4514.9 3491.4" fill="#edd6bf"/>
<path transform="matrix(.1,0,0,-.1,0,792)" stroke-width="1" stroke-linecap="butt" stroke-miterlimit="10" stroke-linejoin="miter" fill="none" stroke="#000000" d="M4006.7 3280.9 3796.3 2772.8 4006.7 2264.6 4514.9 2054.2 5023 2264.6 5233.5 2772.8 5023 3280.9 4514.9 3491.4Z"/>
<path transform="matrix(.1,0,0,-.1,0,792)" d="M4006.7 4718.1 4514.9 4928.6 4006.7 5139.1" fill="#521f1f"/>
<path transform="matrix(.1,0,0,-.1,0,792)" stroke-width="1" stroke-linecap="butt" stroke-miterlimit="10" stroke-linejoin="miter" fill="none" stroke="#000000" d="M4006.7 4718.1 4514.9 4928.6 4006.7 5139.1Z"/>
<path transform="matrix(.1,0,0,-.1,0,792)" d="M4006.7 5139.1 4514.9 4928.6 5023 5139.1 5233.5 5647.2 5023 6155.4 4514.9 6365.8 4006.7 6155.4 3796.3 5647.2" fill="#edd6bf"/>
<path transform="matrix(.1,0,0,-.1,0,792)" stroke-width="1" stroke-linecap="butt" stroke-miterlimit="10" stroke-linejoin="miter" fill="none" stroke="#000000" d="M4006.7 5139.1 4514.9 4928.6 5023 5139.1 5233.5 5647.2 5023 6155.4 4514.9 6365.8 4006.7 6155.4 3796.3 5647.2Z"/>
<path transform="matrix(.1,0,0,-.1,0,792)" d="M3796.3 5647.2 4006.7 6155.4H3585.8" fill="#521f1f"/>
<path transform="matrix(.1,0,0,-.1,0,792)" stroke-width="1" stroke-linecap="butt" stroke-miterlimit="10" stroke-linejoin="miter" fill="none" stroke="#000000" d="M3796.3 5647.2 4006.7 6155.4H3585.8Z"/>
<path transform="matrix(.1,0,0,-.1,0,792)" d="M2359 5647.2 2569.5 6155.4H2148.6" fill="#521f1f"/>
<path transform="matrix(.1,0,0,-.1,0,792)" stroke-width="1" stroke-linecap="butt" stroke-miterlimit="10" stroke-linejoin="miter" fill="none" stroke="#000000" d="M2359 5647.2 2569.5 6155.4H2148.6Z"/>
<path transform="matrix(.1,0,0,-.1,0,792)" d="M2359 2772.8 2148.6 2264.6H2569.5" fill="#521f1f"/>
<path transform="matrix(.1,0,0,-.1,0,792)" stroke-width="1" stroke-linecap="butt" stroke-miterlimit="10" stroke-linejoin="miter" fill="none" stroke="#000000" d="M2359 2772.8 2148.6 2264.6H2569.5Z"/>
<path transform="matrix(.1,0,0,-.1,0,792)" d="M3796.3 2772.8 3585.8 2264.6H4006.7" fill="#521f1f"/>
<path transform="matrix(.1,0,0,-.1,0,792)" stroke-width="1" stroke-linecap="butt" stroke-miterlimit="10" stroke-linejoin="miter" fill="none" stroke="#000000" d="M3796.3 2772.8 3585.8 2264.6H4006.7Z"/>
<path transform="matrix(.1,0,0,-.1,0,792)" d="M1640.4 4928.6 1132.3 5139.1V4718.1" fill="#521f1f"/>
<path transform="matrix(.1,0,0,-.1,0,792)" stroke-width="1" stroke-linecap="butt" stroke-miterlimit="10" stroke-linejoin="miter" fill="none" stroke="#000000" d="M1640.4 4928.6 1132.3 5139.1V4718.1Z"/>
<path transform="matrix(.1,0,0,-.1,0,792)" d="M1640.4 3491.4 1132.3 3701.9V3280.9" fill="#521f1f"/>
<path transform="matrix(.1,0,0,-.1,0,792)" stroke-width="1" stroke-linecap="butt" stroke-miterlimit="10" stroke-linejoin="miter" fill="none" stroke="#000000" d="M1640.4 3491.4 1132.3 3701.9V3280.9Z"/>
<path transform="matrix(.1,0,0,-.1,0,792)" d="M2148.6 1843.7H2569.498V2264.602H2148.6Z" fill="#54ab9b"/>
<path transform="matrix(.1,0,0,-.1,0,792)" stroke-width="1" stroke-linecap="butt" stroke-miterlimit="10" stroke-linejoin="miter" fill="none" stroke="#000000" d="M2148.6 1843.7H2569.498V2264.602H2148.6Z"/>
<path transform="matrix(.1,0,0,-.1,0,792)" d="M2148.6 2264.6 1640.4 2054.2 2148.6 1843.7" fill="#521f1f"/>
<path transform="matrix(.1,0,0,-.1,0,792)" stroke-width="1" stroke-linecap="butt" stroke-miterlimit="10" stroke-linejoin="miter" fill="none" stroke="#000000" d="M2148.6 2264.6 1640.4 2054.2 2148.6 1843.7Z"/>
<path transform="matrix(.1,0,0,-.1,0,792)" d="M2569.5 2264.6V1843.7L3077.7 2054.2" fill="#521f1f"/>
<path transform="matrix(.1,0,0,-.1,0,792)" stroke-width="1" stroke-linecap="butt" stroke-miterlimit="10" stroke-linejoin="miter" fill="none" stroke="#000000" d="M2569.5 2264.6V1843.7L3077.7 2054.2Z"/>
<path transform="matrix(.1,0,0,-.1,0,792)" d="M3585.8 1843.7H4006.698V2264.602H3585.8Z" fill="#54ab9b"/>
<path transform="matrix(.1,0,0,-.1,0,792)" stroke-width="1" stroke-linecap="butt" stroke-miterlimit="10" stroke-linejoin="miter" fill="none" stroke="#000000" d="M3585.8 1843.7H4006.698V2264.602H3585.8Z"/>
<path transform="matrix(.1,0,0,-.1,0,792)" d="M3585.8 2264.6 3077.7 2054.2 3585.8 1843.7" fill="#521f1f"/>
<path transform="matrix(.1,0,0,-.1,0,792)" stroke-width="1" stroke-linecap="butt" stroke-miterlimit="10" stroke-linejoin="miter" fill="none" stroke="#000000" d="M3585.8 2264.6 3077.7 2054.2 3585.8 1843.7Z"/>
<path transform="matrix(.1,0,0,-.1,0,792)" d="M4006.7 2264.6V1843.7L4514.9 2054.2" fill="#521f1f"/>
<path transform="matrix(.1,0,0,-.1,0,792)" stroke-width="1" stroke-linecap="butt" stroke-miterlimit="10" stroke-linejoin="miter" fill="none" stroke="#000000" d="M4006.7 2264.6V1843.7L4514.9 2054.2Z"/>
<path transform="matrix(.1,0,0,-.1,0,792)" d="M3585.8 6155.4H4006.698V6576.302H3585.8Z" fill="#54ab9b"/>
<path transform="matrix(.1,0,0,-.1,0,792)" stroke-width="1" stroke-linecap="butt" stroke-miterlimit="10" stroke-linejoin="miter" fill="none" stroke="#000000" d="M3585.8 6155.4H4006.698V6576.302H3585.8Z"/>
<path transform="matrix(.1,0,0,-.1,0,792)" d="M4006.7 6155.4 4514.9 6365.8 4006.7 6576.3" fill="#521f1f"/>
<path transform="matrix(.1,0,0,-.1,0,792)" stroke-width="1" stroke-linecap="butt" stroke-miterlimit="10" stroke-linejoin="miter" fill="none" stroke="#000000" d="M4006.7 6155.4 4514.9 6365.8 4006.7 6576.3Z"/>
<path transform="matrix(.1,0,0,-.1,0,792)" d="M3585.8 6155.4V6576.3L3077.7 6365.8" fill="#521f1f"/>
<path transform="matrix(.1,0,0,-.1,0,792)" stroke-width="1" stroke-linecap="butt" stroke-miterlimit="10" stroke-linejoin="miter" fill="none" stroke="#000000" d="M3585.8 6155.4V6576.3L3077.7 6365.8Z"/>
<path transform="matrix(.1,0,0,-.1,0,792)" d="M2148.6 6155.4H2569.498V6576.302H2148.6Z" fill="#54ab9b"/>
<path transform="matrix(.1,0,0,-.1,0,792)" stroke-width="1" stroke-linecap="butt" stroke-miterlimit="10" stroke-linejoin="miter" fill="none" stroke="#000000" d="M2148.6 6155.4H2569.498V6576.302H2148.6Z"/>
<path transform="matrix(.1,0,0,-.1,0,792)" d="M2569.5 6155.4 3077.7 6365.8 2569.5 6576.3" fill="#521f1f"/>
<path transform="matrix(.1,0,0,-.1,0,792)" stroke-width="1" stroke-linecap="butt" stroke-miterlimit="10" stroke-linejoin="miter" fill="none" stroke="#000000" d="M2569.5 6155.4 3077.7 6365.8 2569.5 6576.3Z"/>
<path transform="matrix(.1,0,0,-.1,0,792)" d="M2148.6 6155.4V6576.3L1640.4 6365.8" fill="#521f1f"/>
<path transform="matrix(.1,0,0,-.1,0,792)" stroke-width="1" stroke-linecap="butt" stroke-miterlimit="10" stroke-linejoin="miter" fill="none" stroke="#000000" d="M2148.6 6155.4V6576.3L1640.4 6365.8Z"/>
<path transform="matrix(.1,0,0,-.1,0,792)" d="M4514.9 3491.4 5023 3280.9V3701.9" fill="#521f1f"/>
<path transform="matrix(.1,0,0,-.1,0,792)" stroke-width="1" stroke-linecap="butt" stroke-miterlimit="10" stroke-linejoin="miter" fill="none" stroke="#000000" d="M4514.9 3491.4 5023 3280.9V3701.9Z"/>
<path transform="matrix(.1,0,0,-.1,0,792)" d="M4514.9 4928.6 5023 4718.1V5139.1" fill="#521f1f"/>
<path transform="matrix(.1,0,0,-.1,0,792)" stroke-width="1" stroke-linecap="butt" stroke-miterlimit="10" stroke-linejoin="miter" fill="none" stroke="#000000" d="M4514.9 4928.6 5023 4718.1V5139.1Z"/>
<path transform="matrix(.1,0,0,-.1,0,792)" d="M4514.9 6365.8 5023 6576.3 5233.5 7084.4 5023 7592.6 4514.9 7803 4006.7 7592.6 3796.3 7084.4 4006.7 6576.3" fill="#edd6bf"/>
<path transform="matrix(.1,0,0,-.1,0,792)" stroke-width="1" stroke-linecap="butt" stroke-miterlimit="10" stroke-linejoin="miter" fill="none" stroke="#000000" d="M4514.9 6365.8 5023 6576.3 5233.5 7084.4 5023 7592.6 4514.9 7803 4006.7 7592.6 3796.3 7084.4 4006.7 6576.3Z"/>
<path transform="matrix(.1,0,0,-.1,0,792)" d="M4514.9 6365.8 5023 6155.4V6576.3" fill="#521f1f"/>
<path transform="matrix(.1,0,0,-.1,0,792)" stroke-width="1" stroke-linecap="butt" stroke-miterlimit="10" stroke-linejoin="miter" fill="none" stroke="#000000" d="M4514.9 6365.8 5023 6155.4V6576.3Z"/>
<path transform="matrix(.1,0,0,-.1,0,792)" d="M3077.7 6365.8 3585.8 6576.3 3796.3 7084.4 3585.8 7592.6 3077.7 7803 2569.5 7592.6 2359 7084.4 2569.5 6576.3" fill="#edd6bf"/>
<path transform="matrix(.1,0,0,-.1,0,792)" stroke-width="1" stroke-linecap="butt" stroke-miterlimit="10" stroke-linejoin="miter" fill="none" stroke="#000000" d="M3077.7 6365.8 3585.8 6576.3 3796.3 7084.4 3585.8 7592.6 3077.7 7803 2569.5 7592.6 2359 7084.4 2569.5 6576.3Z"/>
<path transform="matrix(.1,0,0,-.1,0,792)" d="M1640.4 6365.8 1132.3 6576.3V6155.4" fill="#521f1f"/>
<path transform="matrix(.1,0,0,-.1,0,792)" stroke-width="1" stroke-linecap="butt" stroke-miterlimit="10" stroke-linejoin="miter" fill="none" stroke="#000000" d="M1640.4 6365.8 1132.3 6576.3V6155.4Z"/>
<path transform="matrix(.1,0,0,-.1,0,792)" d="M1640.4 6365.8 2148.6 6576.3 2359 7084.4 2148.6 7592.6 1640.4 7803 1132.3 7592.6 921.801 7084.4 1132.3 6576.3" fill="#edd6bf"/>
<path transform="matrix(.1,0,0,-.1,0,792)" stroke-width="1" stroke-linecap="butt" stroke-miterlimit="10" stroke-linejoin="miter" fill="none" stroke="#000000" d="M1640.4 6365.8 2148.6 6576.3 2359 7084.4 2148.6 7592.6 1640.4 7803 1132.3 7592.6 921.801 7084.4 1132.3 6576.3Z"/>
<path transform="matrix(.1,0,0,-.1,0,792)" d="M1640.4 2054.2 1132.3 1843.7 921.801 1335.6 1132.3 827.398 1640.4 617 2148.6 827.398 2359 1335.6 2148.6 1843.7" fill="#edd6bf"/>
<path transform="matrix(.1,0,0,-.1,0,792)" stroke-width="1" stroke-linecap="butt" stroke-miterlimit="10" stroke-linejoin="miter" fill="none" stroke="#000000" d="M1640.4 2054.2 1132.3 1843.7 921.801 1335.6 1132.3 827.398 1640.4 617 2148.6 827.398 2359 1335.6 2148.6 1843.7Z"/>
<path transform="matrix(.1,0,0,-.1,0,792)" d="M1640.4 2054.2 1132.3 2264.6V1843.7" fill="#521f1f"/>
<path transform="matrix(.1,0,0,-.1,0,792)" stroke-width="1" stroke-linecap="butt" stroke-miterlimit="10" stroke-linejoin="miter" fill="none" stroke="#000000" d="M1640.4 2054.2 1132.3 2264.6V1843.7Z"/>
<path transform="matrix(.1,0,0,-.1,0,792)" d="M3077.7 2054.2 2569.5 1843.7 2359 1335.6 2569.5 827.398 3077.7 617 3585.8 827.398 3796.3 1335.6 3585.8 1843.7" fill="#edd6bf"/>
<path transform="matrix(.1,0,0,-.1,0,792)" stroke-width="1" stroke-linecap="butt" stroke-miterlimit="10" stroke-linejoin="miter" fill="none" stroke="#000000" d="M3077.7 2054.2 2569.5 1843.7 2359 1335.6 2569.5 827.398 3077.7 617 3585.8 827.398 3796.3 1335.6 3585.8 1843.7Z"/>
<path transform="matrix(.1,0,0,-.1,0,792)" d="M4514.9 2054.2 5023 1843.7V2264.6" fill="#521f1f"/>
<path transform="matrix(.1,0,0,-.1,0,792)" stroke-width="1" stroke-linecap="butt" stroke-miterlimit="10" stroke-linejoin="miter" fill="none" stroke="#000000" d="M4514.9 2054.2 5023 1843.7V2264.6Z"/>
<path transform="matrix(.1,0,0,-.1,0,792)" d="M4514.9 2054.2 4006.7 1843.7 3796.3 1335.6 4006.7 827.398 4514.9 617 5023 827.398 5233.5 1335.6 5023 1843.7" fill="#edd6bf"/>
<path transform="matrix(.1,0,0,-.1,0,792)" stroke-width="1" stroke-linecap="butt" stroke-miterlimit="10" stroke-linejoin="miter" fill="none" stroke="#000000" d="M4514.9 2054.2 4006.7 1843.7 3796.3 1335.6 4006.7 827.398 4514.9 617 5023 827.398 5233.5 1335.6 5023 1843.7Z"/>
<path transform="matrix(.1,0,0,-.1,0,792)" d="M3585.8 1843.7 3796.3 1335.6 4006.7 1843.7" fill="#521f1f"/>
<path transform="matrix(.1,0,0,-.1,0,792)" stroke-width="1" stroke-linecap="butt" stroke-miterlimit="10" stroke-linejoin="miter" fill="none" stroke="#000000" d="M3585.8 1843.7 3796.3 1335.6 4006.7 1843.7Z"/>
<path transform="matrix(.1,0,0,-.1,0,792)" d="M4006.7 6576.3 3796.3 7084.4 3585.8 6576.3" fill="#521f1f"/>
<path transform="matrix(.1,0,0,-.1,0,792)" stroke-width="1" stroke-linecap="butt" stroke-miterlimit="10" stroke-linejoin="miter" fill="none" stroke="#000000" d="M4006.7 6576.3 3796.3 7084.4 3585.8 6576.3Z"/>
<path transform="matrix(.1,0,0,-.1,0,792)" d="M2569.5 6576.3 2359 7084.4 2148.6 6576.3" fill="#521f1f"/>
<path transform="matrix(.1,0,0,-.1,0,792)" stroke-width="1" stroke-linecap="butt" stroke-miterlimit="10" stroke-linejoin="miter" fill="none" stroke="#000000" d="M2569.5 6576.3 2359 7084.4 2148.6 6576.3Z"/>
<path transform="matrix(.1,0,0,-.1,0,792)" d="M2148.6 1843.7 2359 1335.6 2569.5 1843.7" fill="#521f1f"/>
<path transform="matrix(.1,0,0,-.1,0,792)" stroke-width="1" stroke-linecap="butt" stroke-miterlimit="10" stroke-linejoin="miter" fill="none" stroke="#000000" d="M2148.6 1843.7 2359 1335.6 2569.5 1843.7Z"/>
<path transform="matrix(.1,0,0,-.1,0,792)" d="M711.398 6155.4H1132.3V6576.302H711.398Z" fill="#54ab9b"/>
<path transform="matrix(.1,0,0,-.1,0,792)" stroke-width="1" stroke-linecap="butt" stroke-miterlimit="10" stroke-linejoin="miter" fill="none" stroke="#000000" d="M711.398 6155.4H1132.3V6576.302H711.398Z"/>
<path transform="matrix(.1,0,0,-.1,0,792)" d="M1132.3 6576.3 921.801 7084.4 711.398 6576.3" fill="#521f1f"/>
<path transform="matrix(.1,0,0,-.1,0,792)" stroke-width="1" stroke-linecap="butt" stroke-miterlimit="10" stroke-linejoin="miter" fill="none" stroke="#000000" d="M1132.3 6576.3 921.801 7084.4 711.398 6576.3Z"/>
<path transform="matrix(.1,0,0,-.1,0,792)" d="M1132.3 6155.4H711.398L921.801 5647.2" fill="#521f1f"/>
<path transform="matrix(.1,0,0,-.1,0,792)" stroke-width="1" stroke-linecap="butt" stroke-miterlimit="10" stroke-linejoin="miter" fill="none" stroke="#000000" d="M1132.3 6155.4H711.398L921.801 5647.2Z"/>
<path transform="matrix(.1,0,0,-.1,0,792)" d="M711.398 4718.1H1132.3V5139.1H711.398Z" fill="#54ab9b"/>
<path transform="matrix(.1,0,0,-.1,0,792)" stroke-width="1" stroke-linecap="butt" stroke-miterlimit="10" stroke-linejoin="miter" fill="none" stroke="#000000" d="M711.398 4718.1H1132.3V5139.1H711.398Z"/>
<path transform="matrix(.1,0,0,-.1,0,792)" d="M1132.3 5139.1 921.801 5647.2 711.398 5139.1" fill="#521f1f"/>
<path transform="matrix(.1,0,0,-.1,0,792)" stroke-width="1" stroke-linecap="butt" stroke-miterlimit="10" stroke-linejoin="miter" fill="none" stroke="#000000" d="M1132.3 5139.1 921.801 5647.2 711.398 5139.1Z"/>
<path transform="matrix(.1,0,0,-.1,0,792)" d="M1132.3 4718.1H711.398L921.801 4210" fill="#521f1f"/>
<path transform="matrix(.1,0,0,-.1,0,792)" stroke-width="1" stroke-linecap="butt" stroke-miterlimit="10" stroke-linejoin="miter" fill="none" stroke="#000000" d="M1132.3 4718.1H711.398L921.801 4210Z"/>
<path transform="matrix(.1,0,0,-.1,0,792)" d="M711.398 3280.9H1132.3V3701.9H711.398Z" fill="#54ab9b"/>
<path transform="matrix(.1,0,0,-.1,0,792)" stroke-width="1" stroke-linecap="butt" stroke-miterlimit="10" stroke-linejoin="miter" fill="none" stroke="#000000" d="M711.398 3280.9H1132.3V3701.9H711.398Z"/>
<path transform="matrix(.1,0,0,-.1,0,792)" d="M1132.3 3701.9 921.801 4210 711.398 3701.9" fill="#521f1f"/>
<path transform="matrix(.1,0,0,-.1,0,792)" stroke-width="1" stroke-linecap="butt" stroke-miterlimit="10" stroke-linejoin="miter" fill="none" stroke="#000000" d="M1132.3 3701.9 921.801 4210 711.398 3701.9Z"/>
<path transform="matrix(.1,0,0,-.1,0,792)" d="M1132.3 3280.9H711.398L921.801 2772.8" fill="#521f1f"/>
<path transform="matrix(.1,0,0,-.1,0,792)" stroke-width="1" stroke-linecap="butt" stroke-miterlimit="10" stroke-linejoin="miter" fill="none" stroke="#000000" d="M1132.3 3280.9H711.398L921.801 2772.8Z"/>
<path transform="matrix(.1,0,0,-.1,0,792)" d="M711.398 1843.7H1132.3V2264.602H711.398Z" fill="#54ab9b"/>
<path transform="matrix(.1,0,0,-.1,0,792)" stroke-width="1" stroke-linecap="butt" stroke-miterlimit="10" stroke-linejoin="miter" fill="none" stroke="#000000" d="M711.398 1843.7H1132.3V2264.602H711.398Z"/>
<path transform="matrix(.1,0,0,-.1,0,792)" d="M1132.3 2264.6 921.801 2772.8 711.398 2264.6" fill="#521f1f"/>
<path transform="matrix(.1,0,0,-.1,0,792)" stroke-width="1" stroke-linecap="butt" stroke-miterlimit="10" stroke-linejoin="miter" fill="none" stroke="#000000" d="M1132.3 2264.6 921.801 2772.8 711.398 2264.6Z"/>
<path transform="matrix(.1,0,0,-.1,0,792)" d="M1132.3 1843.7H711.398L921.801 1335.6" fill="#521f1f"/>
<path transform="matrix(.1,0,0,-.1,0,792)" stroke-width="1" stroke-linecap="butt" stroke-miterlimit="10" stroke-linejoin="miter" fill="none" stroke="#000000" d="M1132.3 1843.7H711.398L921.801 1335.6Z"/>
<path transform="matrix(.1,0,0,-.1,0,792)" d="M5023 1843.7H5444V2264.602H5023Z" fill="#54ab9b"/>
<path transform="matrix(.1,0,0,-.1,0,792)" stroke-width="1" stroke-linecap="butt" stroke-miterlimit="10" stroke-linejoin="miter" fill="none" stroke="#000000" d="M5023 1843.7H5444V2264.602H5023Z"/>
<path transform="matrix(.1,0,0,-.1,0,792)" d="M5023 1843.7 5233.5 1335.6 5444 1843.7" fill="#521f1f"/>
<path transform="matrix(.1,0,0,-.1,0,792)" stroke-width="1" stroke-linecap="butt" stroke-miterlimit="10" stroke-linejoin="miter" fill="none" stroke="#000000" d="M5023 1843.7 5233.5 1335.6 5444 1843.7Z"/>
<path transform="matrix(.1,0,0,-.1,0,792)" d="M5023 2264.6H5444L5233.5 2772.8" fill="#521f1f"/>
<path transform="matrix(.1,0,0,-.1,0,792)" stroke-width="1" stroke-linecap="butt" stroke-miterlimit="10" stroke-linejoin="miter" fill="none" stroke="#000000" d="M5023 2264.6H5444L5233.5 2772.8Z"/>
<path transform="matrix(.1,0,0,-.1,0,792)" d="M5023 3280.9H5444V3701.9H5023Z" fill="#54ab9b"/>
<path transform="matrix(.1,0,0,-.1,0,792)" stroke-width="1" stroke-linecap="butt" stroke-miterlimit="10" stroke-linejoin="miter" fill="none" stroke="#000000" d="M5023 3280.9H5444V3701.9H5023Z"/>
<path transform="matrix(.1,0,0,-.1,0,792)" d="M5023 3280.9 5233.5 2772.8 5444 3280.9" fill="#521f1f"/>
<path transform="matrix(.1,0,0,-.1,0,792)" stroke-width="1" stroke-linecap="butt" stroke-miterlimit="10" stroke-linejoin="miter" fill="none" stroke="#000000" d="M5023 3280.9 5233.5 2772.8 5444 3280.9Z"/>
<path transform="matrix(.1,0,0,-.1,0,792)" d="M5023 3701.9H5444L5233.5 4210" fill="#521f1f"/>
<path transform="matrix(.1,0,0,-.1,0,792)" stroke-width="1" stroke-linecap="butt" stroke-miterlimit="10" stroke-linejoin="miter" fill="none" stroke="#000000" d="M5023 3701.9H5444L5233.5 4210Z"/>
<path transform="matrix(.1,0,0,-.1,0,792)" d="M5023 4718.1H5444V5139.1H5023Z" fill="#54ab9b"/>
<path transform="matrix(.1,0,0,-.1,0,792)" stroke-width="1" stroke-linecap="butt" stroke-miterlimit="10" stroke-linejoin="miter" fill="none" stroke="#000000" d="M5023 4718.1H5444V5139.1H5023Z"/>
<path transform="matrix(.1,0,0,-.1,0,792)" d="M5023 4718.1 5233.5 4210 5444 4718.1" fill="#521f1f"/>
<path transform="matrix(.1,0,0,-.1,0,792)" stroke-width="1" stroke-linecap="butt" stroke-miterlimit="10" stroke-linejoin="miter" fill="none" stroke="#000000" d="M5023 4718.1 5233.5 4210 5444 4718.1Z"/>
<path transform="matrix(.1,0,0,-.1,0,792)" d="M5023 5139.1H5444L5233.5 5647.2" fill="#521f1f"/>
<path transform="matrix(.1,0,0,-.1,0,792)" stroke-width="1" stroke-linecap="butt" stroke-miterlimit="10" stroke-linejoin="miter" fill="none" stroke="#000000" d="M5023 5139.1H5444L5233.5 5647.2Z"/>
<path transform="matrix(.1,0,0,-.1,0,792)" d="M5023 6155.4H5444V6576.302H5023Z" fill="#54ab9b"/>
<path transform="matrix(.1,0,0,-.1,0,792)" stroke-width="1" stroke-linecap="butt" stroke-miterlimit="10" stroke-linejoin="miter" fill="none" stroke="#000000" d="M5023 6155.4H5444V6576.302H5023Z"/>
<path transform="matrix(.1,0,0,-.1,0,792)" d="M5023 6155.4 5233.5 5647.2 5444 6155.4" fill="#521f1f"/>
<path transform="matrix(.1,0,0,-.1,0,792)" stroke-width="1" stroke-linecap="butt" stroke-miterlimit="10" stroke-linejoin="miter" fill="none" stroke="#000000" d="M5023 6155.4 5233.5 5647.2 5444 6155.4Z"/>
<path transform="matrix(.1,0,0,-.1,0,792)" d="M5023 6576.3H5444L5233.5 7084.4" fill="#521f1f"/>
<path transform="matrix(.1,0,0,-.1,0,792)" stroke-width="1" stroke-linecap="butt" stroke-miterlimit="10" stroke-linejoin="miter" fill="none" stroke="#000000" d="M5023 6576.3H5444L5233.5 7084.4Z"/>
<path transform="matrix(.1,0,0,-.1,0,792)" d="M921.801 5647.2 711.398 6155.4 203.199 6365.8-304.898 6155.4-515.398 5647.2-304.898 5139.1 203.199 4928.6 711.398 5139.1" fill="#edd6bf"/>
<path transform="matrix(.1,0,0,-.1,0,792)" stroke-width="1" stroke-linecap="butt" stroke-miterlimit="10" stroke-linejoin="miter" fill="none" stroke="#000000" d="M921.801 5647.2 711.398 6155.4 203.199 6365.8-304.898 6155.4-515.398 5647.2-304.898 5139.1 203.199 4928.6 711.398 5139.1Z"/>
<path transform="matrix(.1,0,0,-.1,0,792)" d="M921.801 4210 711.398 4718.1 203.199 4928.6-304.898 4718.1-515.398 4210-304.898 3701.9 203.199 3491.4 711.398 3701.9" fill="#edd6bf"/>
<path transform="matrix(.1,0,0,-.1,0,792)" stroke-width="1" stroke-linecap="butt" stroke-miterlimit="10" stroke-linejoin="miter" fill="none" stroke="#000000" d="M921.801 4210 711.398 4718.1 203.199 4928.6-304.898 4718.1-515.398 4210-304.898 3701.9 203.199 3491.4 711.398 3701.9Z"/>
<path transform="matrix(.1,0,0,-.1,0,792)" d="M921.801 2772.8 711.398 3280.9 203.199 3491.4-304.898 3280.9-515.398 2772.8-304.898 2264.6 203.199 2054.2 711.398 2264.6" fill="#edd6bf"/>
<path transform="matrix(.1,0,0,-.1,0,792)" stroke-width="1" stroke-linecap="butt" stroke-miterlimit="10" stroke-linejoin="miter" fill="none" stroke="#000000" d="M921.801 2772.8 711.398 3280.9 203.199 3491.4-304.898 3280.9-515.398 2772.8-304.898 2264.6 203.199 2054.2 711.398 2264.6Z"/>
<path transform="matrix(.1,0,0,-.1,0,792)" d="M921.801 1335.6 711.398 827.398H1132.3" fill="#521f1f"/>
<path transform="matrix(.1,0,0,-.1,0,792)" stroke-width="1" stroke-linecap="butt" stroke-miterlimit="10" stroke-linejoin="miter" fill="none" stroke="#000000" d="M921.801 1335.6 711.398 827.398H1132.3Z"/>
<path transform="matrix(.1,0,0,-.1,0,792)" d="M921.801 1335.6 711.398 1843.7 203.199 2054.2-304.898 1843.7-515.398 1335.6-304.898 827.398 203.199 617 711.398 827.398" fill="#edd6bf"/>
<path transform="matrix(.1,0,0,-.1,0,792)" stroke-width="1" stroke-linecap="butt" stroke-miterlimit="10" stroke-linejoin="miter" fill="none" stroke="#000000" d="M921.801 1335.6 711.398 1843.7 203.199 2054.2-304.898 1843.7-515.398 1335.6-304.898 827.398 203.199 617 711.398 827.398Z"/>
<path transform="matrix(.1,0,0,-.1,0,792)" d="M2359 1335.6 2148.6 827.398H2569.5" fill="#521f1f"/>
<path transform="matrix(.1,0,0,-.1,0,792)" stroke-width="1" stroke-linecap="butt" stroke-miterlimit="10" stroke-linejoin="miter" fill="none" stroke="#000000" d="M2359 1335.6 2148.6 827.398H2569.5Z"/>
<path transform="matrix(.1,0,0,-.1,0,792)" d="M3796.3 1335.6 3585.8 827.398H4006.7" fill="#521f1f"/>
<path transform="matrix(.1,0,0,-.1,0,792)" stroke-width="1" stroke-linecap="butt" stroke-miterlimit="10" stroke-linejoin="miter" fill="none" stroke="#000000" d="M3796.3 1335.6 3585.8 827.398H4006.7Z"/>
<path transform="matrix(.1,0,0,-.1,0,792)" d="M3796.3 7084.4 4006.7 7592.6H3585.8" fill="#521f1f"/>
<path transform="matrix(.1,0,0,-.1,0,792)" stroke-width="1" stroke-linecap="butt" stroke-miterlimit="10" stroke-linejoin="miter" fill="none" stroke="#000000" d="M3796.3 7084.4 4006.7 7592.6H3585.8Z"/>
<path transform="matrix(.1,0,0,-.1,0,792)" d="M2359 7084.4 2569.5 7592.6H2148.6" fill="#521f1f"/>
<path transform="matrix(.1,0,0,-.1,0,792)" stroke-width="1" stroke-linecap="butt" stroke-miterlimit="10" stroke-linejoin="miter" fill="none" stroke="#000000" d="M2359 7084.4 2569.5 7592.6H2148.6Z"/>
<path transform="matrix(.1,0,0,-.1,0,792)" d="M921.801 7084.4 711.398 7592.6 203.199 7803-304.898 7592.6-515.398 7084.4-304.898 6576.3 203.199 6365.8 711.398 6576.3" fill="#edd6bf"/>
<path transform="matrix(.1,0,0,-.1,0,792)" stroke-width="1" stroke-linecap="butt" stroke-miterlimit="10" stroke-linejoin="miter" fill="none" stroke="#000000" d="M921.801 7084.4 711.398 7592.6 203.199 7803-304.898 7592.6-515.398 7084.4-304.898 6576.3 203.199 6365.8 711.398 6576.3Z"/>
<path transform="matrix(.1,0,0,-.1,0,792)" d="M921.801 7084.4 1132.3 7592.6H711.398" fill="#521f1f"/>
<path transform="matrix(.1,0,0,-.1,0,792)" stroke-width="1" stroke-linecap="butt" stroke-miterlimit="10" stroke-linejoin="miter" fill="none" stroke="#000000" d="M921.801 7084.4 1132.3 7592.6H711.398Z"/>
<path transform="matrix(.1,0,0,-.1,0,792)" d="M5233.5 1335.6 5444 827.398 5952.1 617 6460.2 827.398 6670.7 1335.6 6460.2 1843.7 5952.1 2054.2 5444 1843.7" fill="#edd6bf"/>
<path transform="matrix(.1,0,0,-.1,0,792)" stroke-width="1" stroke-linecap="butt" stroke-miterlimit="10" stroke-linejoin="miter" fill="none" stroke="#000000" d="M5233.5 1335.6 5444 827.398 5952.1 617 6460.2 827.398 6670.7 1335.6 6460.2 1843.7 5952.1 2054.2 5444 1843.7Z"/>
<path transform="matrix(.1,0,0,-.1,0,792)" d="M5233.5 1335.6 5023 827.398H5444" fill="#521f1f"/>
<path transform="matrix(.1,0,0,-.1,0,792)" stroke-width="1" stroke-linecap="butt" stroke-miterlimit="10" stroke-linejoin="miter" fill="none" stroke="#000000" d="M5233.5 1335.6 5023 827.398H5444Z"/>
<path transform="matrix(.1,0,0,-.1,0,792)" d="M5233.5 2772.8 5444 2264.6 5952.1 2054.2 6460.2 2264.6 6670.7 2772.8 6460.2 3280.9 5952.1 3491.4 5444 3280.9" fill="#edd6bf"/>
<path transform="matrix(.1,0,0,-.1,0,792)" stroke-width="1" stroke-linecap="butt" stroke-miterlimit="10" stroke-linejoin="miter" fill="none" stroke="#000000" d="M5233.5 2772.8 5444 2264.6 5952.1 2054.2 6460.2 2264.6 6670.7 2772.8 6460.2 3280.9 5952.1 3491.4 5444 3280.9Z"/>
<path transform="matrix(.1,0,0,-.1,0,792)" d="M5233.5 4210 5444 3701.9 5952.1 3491.4 6460.2 3701.9 6670.7 4210 6460.2 4718.1 5952.1 4928.6 5444 4718.1" fill="#edd6bf"/>
<path transform="matrix(.1,0,0,-.1,0,792)" stroke-width="1" stroke-linecap="butt" stroke-miterlimit="10" stroke-linejoin="miter" fill="none" stroke="#000000" d="M5233.5 4210 5444 3701.9 5952.1 3491.4 6460.2 3701.9 6670.7 4210 6460.2 4718.1 5952.1 4928.6 5444 4718.1Z"/>
<path transform="matrix(.1,0,0,-.1,0,792)" d="M5233.5 5647.2 5444 5139.1 5952.1 4928.6 6460.2 5139.1 6670.7 5647.2 6460.2 6155.4 5952.1 6365.8 5444 6155.4" fill="#edd6bf"/>
<path transform="matrix(.1,0,0,-.1,0,792)" stroke-width="1" stroke-linecap="butt" stroke-miterlimit="10" stroke-linejoin="miter" fill="none" stroke="#000000" d="M5233.5 5647.2 5444 5139.1 5952.1 4928.6 6460.2 5139.1 6670.7 5647.2 6460.2 6155.4 5952.1 6365.8 5444 6155.4Z"/>
<path transform="matrix(.1,0,0,-.1,0,792)" d="M5233.5 7084.4 5444 7592.6H5023" fill="#521f1f"/>
<path transform="matrix(.1,0,0,-.1,0,792)" stroke-width="1" stroke-linecap="butt" stroke-miterlimit="10" stroke-linejoin="miter" fill="none" stroke="#000000" d="M5233.5 7084.4 5444 7592.6H5023Z"/>
<path transform="matrix(.1,0,0,-.1,0,792)" d="M5233.5 7084.4 5444 6576.3 5952.1 6365.8 6460.2 6576.3 6670.7 7084.4 6460.2 7592.6 5952.1 7803 5444 7592.6" fill="#edd6bf"/>
<path transform="matrix(.1,0,0,-.1,0,792)" stroke-width="1" stroke-linecap="butt" stroke-miterlimit="10" stroke-linejoin="miter" fill="none" stroke="#000000" d="M5233.5 7084.4 5444 6576.3 5952.1 6365.8 6460.2 6576.3 6670.7 7084.4 6460.2 7592.6 5952.1 7803 5444 7592.6Z"/>
<path transform="matrix(.1,0,0,-.1,0,792)" d="M711.398 6576.3 203.199 6365.8 711.398 6155.4" fill="#521f1f"/>
<path transform="matrix(.1,0,0,-.1,0,792)" stroke-width="1" stroke-linecap="butt" stroke-miterlimit="10" stroke-linejoin="miter" fill="none" stroke="#000000" d="M711.398 6576.3 203.199 6365.8 711.398 6155.4Z"/>
<path transform="matrix(.1,0,0,-.1,0,792)" d="M711.398 5139.1 203.199 4928.6 711.398 4718.1" fill="#521f1f"/>
<path transform="matrix(.1,0,0,-.1,0,792)" stroke-width="1" stroke-linecap="butt" stroke-miterlimit="10" stroke-linejoin="miter" fill="none" stroke="#000000" d="M711.398 5139.1 203.199 4928.6 711.398 4718.1Z"/>
<path transform="matrix(.1,0,0,-.1,0,792)" d="M711.398 3701.9 203.199 3491.4 711.398 3280.9" fill="#521f1f"/>
<path transform="matrix(.1,0,0,-.1,0,792)" stroke-width="1" stroke-linecap="butt" stroke-miterlimit="10" stroke-linejoin="miter" fill="none" stroke="#000000" d="M711.398 3701.9 203.199 3491.4 711.398 3280.9Z"/>
<path transform="matrix(.1,0,0,-.1,0,792)" d="M711.398 2264.6 203.199 2054.2 711.398 1843.7" fill="#521f1f"/>
<path transform="matrix(.1,0,0,-.1,0,792)" stroke-width="1" stroke-linecap="butt" stroke-miterlimit="10" stroke-linejoin="miter" fill="none" stroke="#000000" d="M711.398 2264.6 203.199 2054.2 711.398 1843.7Z"/>
<path transform="matrix(.1,0,0,-.1,0,792)" d="M711.398 406.5H1132.3V827.398H711.398Z" fill="#54ab9b"/>
<path transform="matrix(.1,0,0,-.1,0,792)" stroke-width="1" stroke-linecap="butt" stroke-miterlimit="10" stroke-linejoin="miter" fill="none" stroke="#000000" d="M711.398 406.5H1132.3V827.398H711.398Z"/>
<path transform="matrix(.1,0,0,-.1,0,792)" d="M711.398 827.398 203.199 617 711.398 406.5" fill="#521f1f"/>
<path transform="matrix(.1,0,0,-.1,0,792)" stroke-width="1" stroke-linecap="butt" stroke-miterlimit="10" stroke-linejoin="miter" fill="none" stroke="#000000" d="M711.398 827.398 203.199 617 711.398 406.5Z"/>
<path transform="matrix(.1,0,0,-.1,0,792)" d="M1132.3 827.398V406.5L1640.4 617" fill="#521f1f"/>
<path transform="matrix(.1,0,0,-.1,0,792)" stroke-width="1" stroke-linecap="butt" stroke-miterlimit="10" stroke-linejoin="miter" fill="none" stroke="#000000" d="M1132.3 827.398V406.5L1640.4 617Z"/>
<path transform="matrix(.1,0,0,-.1,0,792)" d="M2148.6 406.5H2569.498V827.398H2148.6Z" fill="#54ab9b"/>
<path transform="matrix(.1,0,0,-.1,0,792)" stroke-width="1" stroke-linecap="butt" stroke-miterlimit="10" stroke-linejoin="miter" fill="none" stroke="#000000" d="M2148.6 406.5H2569.498V827.398H2148.6Z"/>
<path transform="matrix(.1,0,0,-.1,0,792)" d="M2148.6 827.398 1640.4 617 2148.6 406.5" fill="#521f1f"/>
<path transform="matrix(.1,0,0,-.1,0,792)" stroke-width="1" stroke-linecap="butt" stroke-miterlimit="10" stroke-linejoin="miter" fill="none" stroke="#000000" d="M2148.6 827.398 1640.4 617 2148.6 406.5Z"/>
<path transform="matrix(.1,0,0,-.1,0,792)" d="M2569.5 827.398V406.5L3077.7 617" fill="#521f1f"/>
<path transform="matrix(.1,0,0,-.1,0,792)" stroke-width="1" stroke-linecap="butt" stroke-miterlimit="10" stroke-linejoin="miter" fill="none" stroke="#000000" d="M2569.5 827.398V406.5L3077.7 617Z"/>
<path transform="matrix(.1,0,0,-.1,0,792)" d="M3585.8 406.5H4006.698V827.398H3585.8Z" fill="#54ab9b"/>
<path transform="matrix(.1,0,0,-.1,0,792)" stroke-width="1" stroke-linecap="butt" stroke-miterlimit="10" stroke-linejoin="miter" fill="none" stroke="#000000" d="M3585.8 406.5H4006.698V827.398H3585.8Z"/>
<path transform="matrix(.1,0,0,-.1,0,792)" d="M3585.8 827.398 3077.7 617 3585.8 406.5" fill="#521f1f"/>
<path transform="matrix(.1,0,0,-.1,0,792)" stroke-width="1" stroke-linecap="butt" stroke-miterlimit="10" stroke-linejoin="miter" fill="none" stroke="#000000" d="M3585.8 827.398 3077.7 617 3585.8 406.5Z"/>
<path transform="matrix(.1,0,0,-.1,0,792)" d="M4006.7 827.398V406.5L4514.9 617" fill="#521f1f"/>
<path transform="matrix(.1,0,0,-.1,0,792)" stroke-width="1" stroke-linecap="butt" stroke-miterlimit="10" stroke-linejoin="miter" fill="none" stroke="#000000" d="M4006.7 827.398V406.5L4514.9 617Z"/>
<path transform="matrix(.1,0,0,-.1,0,792)" d="M5023 406.5H5444V827.398H5023Z" fill="#54ab9b"/>
<path transform="matrix(.1,0,0,-.1,0,792)" stroke-width="1" stroke-linecap="butt" stroke-miterlimit="10" stroke-linejoin="miter" fill="none" stroke="#000000" d="M5023 406.5H5444V827.398H5023Z"/>
<path transform="matrix(.1,0,0,-.1,0,792)" d="M5023 827.398 4514.9 617 5023 406.5" fill="#521f1f"/>
<path transform="matrix(.1,0,0,-.1,0,792)" stroke-width="1" stroke-linecap="butt" stroke-miterlimit="10" stroke-linejoin="miter" fill="none" stroke="#000000" d="M5023 827.398 4514.9 617 5023 406.5Z"/>
<path transform="matrix(.1,0,0,-.1,0,792)" d="M5023 7592.6V8013.5L4514.9 7803" fill="#521f1f"/>
<path transform="matrix(.1,0,0,-.1,0,792)" stroke-width="1" stroke-linecap="butt" stroke-miterlimit="10" stroke-linejoin="miter" fill="none" stroke="#000000" d="M5023 7592.6V8013.5L4514.9 7803Z"/>
<path transform="matrix(.1,0,0,-.1,0,792)" d="M5023 7592.6H5444V8013.498H5023Z" fill="#54ab9b"/>
<path transform="matrix(.1,0,0,-.1,0,792)" stroke-width="1" stroke-linecap="butt" stroke-miterlimit="10" stroke-linejoin="miter" fill="none" stroke="#000000" d="M5023 7592.6H5444V8013.498H5023Z"/>
<path transform="matrix(.1,0,0,-.1,0,792)" d="M3585.8 7592.6H4006.698V8013.498H3585.8Z" fill="#54ab9b"/>
<path transform="matrix(.1,0,0,-.1,0,792)" stroke-width="1" stroke-linecap="butt" stroke-miterlimit="10" stroke-linejoin="miter" fill="none" stroke="#000000" d="M3585.8 7592.6H4006.698V8013.498H3585.8Z"/>
<path transform="matrix(.1,0,0,-.1,0,792)" d="M4006.7 7592.6 4514.9 7803 4006.7 8013.5" fill="#521f1f"/>
<path transform="matrix(.1,0,0,-.1,0,792)" stroke-width="1" stroke-linecap="butt" stroke-miterlimit="10" stroke-linejoin="miter" fill="none" stroke="#000000" d="M4006.7 7592.6 4514.9 7803 4006.7 8013.5Z"/>
<path transform="matrix(.1,0,0,-.1,0,792)" d="M3585.8 7592.6V8013.5L3077.7 7803" fill="#521f1f"/>
<path transform="matrix(.1,0,0,-.1,0,792)" stroke-width="1" stroke-linecap="butt" stroke-miterlimit="10" stroke-linejoin="miter" fill="none" stroke="#000000" d="M3585.8 7592.6V8013.5L3077.7 7803Z"/>
<path transform="matrix(.1,0,0,-.1,0,792)" d="M2148.6 7592.6H2569.498V8013.498H2148.6Z" fill="#54ab9b"/>
<path transform="matrix(.1,0,0,-.1,0,792)" stroke-width="1" stroke-linecap="butt" stroke-miterlimit="10" stroke-linejoin="miter" fill="none" stroke="#000000" d="M2148.6 7592.6H2569.498V8013.498H2148.6Z"/>
<path transform="matrix(.1,0,0,-.1,0,792)" d="M2569.5 7592.6 3077.7 7803 2569.5 8013.5" fill="#521f1f"/>
<path transform="matrix(.1,0,0,-.1,0,792)" stroke-width="1" stroke-linecap="butt" stroke-miterlimit="10" stroke-linejoin="miter" fill="none" stroke="#000000" d="M2569.5 7592.6 3077.7 7803 2569.5 8013.5Z"/>
<path transform="matrix(.1,0,0,-.1,0,792)" d="M2148.6 7592.6V8013.5L1640.4 7803" fill="#521f1f"/>
<path transform="matrix(.1,0,0,-.1,0,792)" stroke-width="1" stroke-linecap="butt" stroke-miterlimit="10" stroke-linejoin="miter" fill="none" stroke="#000000" d="M2148.6 7592.6V8013.5L1640.4 7803Z"/>
<path transform="matrix(.1,0,0,-.1,0,792)" d="M711.398 7592.6H1132.3V8013.498H711.398Z" fill="#54ab9b"/>
<path transform="matrix(.1,0,0,-.1,0,792)" stroke-width="1" stroke-linecap="butt" stroke-miterlimit="10" stroke-linejoin="miter" fill="none" stroke="#000000" d="M711.398 7592.6H1132.3V8013.498H711.398Z"/>
<path transform="matrix(.1,0,0,-.1,0,792)" d="M1132.3 7592.6 1640.4 7803 1132.3 8013.5" fill="#521f1f"/>
<path transform="matrix(.1,0,0,-.1,0,792)" stroke-width="1" stroke-linecap="butt" stroke-miterlimit="10" stroke-linejoin="miter" fill="none" stroke="#000000" d="M1132.3 7592.6 1640.4 7803 1132.3 8013.5Z"/>
<path transform="matrix(.1,0,0,-.1,0,792)" d="M711.398 7592.6V8013.5L203.199 7803" fill="#521f1f"/>
<path transform="matrix(.1,0,0,-.1,0,792)" stroke-width="1" stroke-linecap="butt" stroke-miterlimit="10" stroke-linejoin="miter" fill="none" stroke="#000000" d="M711.398 7592.6V8013.5L203.199 7803Z"/>
<path transform="matrix(.1,0,0,-.1,0,792)" d="M5444 827.398V406.5L5952.1 617" fill="#521f1f"/>
<path transform="matrix(.1,0,0,-.1,0,792)" stroke-width="1" stroke-linecap="butt" stroke-miterlimit="10" stroke-linejoin="miter" fill="none" stroke="#000000" d="M5444 827.398V406.5L5952.1 617Z"/>
<path transform="matrix(.1,0,0,-.1,0,792)" d="M5444 1843.7 5952.1 2054.2 5444 2264.6" fill="#521f1f"/>
<path transform="matrix(.1,0,0,-.1,0,792)" stroke-width="1" stroke-linecap="butt" stroke-miterlimit="10" stroke-linejoin="miter" fill="none" stroke="#000000" d="M5444 1843.7 5952.1 2054.2 5444 2264.6Z"/>
<path transform="matrix(.1,0,0,-.1,0,792)" d="M5444 3280.9 5952.1 3491.4 5444 3701.9" fill="#521f1f"/>
<path transform="matrix(.1,0,0,-.1,0,792)" stroke-width="1" stroke-linecap="butt" stroke-miterlimit="10" stroke-linejoin="miter" fill="none" stroke="#000000" d="M5444 3280.9 5952.1 3491.4 5444 3701.9Z"/>
<path transform="matrix(.1,0,0,-.1,0,792)" d="M5444 4718.1 5952.1 4928.6 5444 5139.1" fill="#521f1f"/>
<path transform="matrix(.1,0,0,-.1,0,792)" stroke-width="1" stroke-linecap="butt" stroke-miterlimit="10" stroke-linejoin="miter" fill="none" stroke="#000000" d="M5444 4718.1 5952.1 4928.6 5444 5139.1Z"/>
<path transform="matrix(.1,0,0,-.1,0,792)" d="M5444 6155.4 5952.1 6365.8 5444 6576.3" fill="#521f1f"/>
<path transform="matrix(.1,0,0,-.1,0,792)" stroke-width="1" stroke-linecap="butt" stroke-miterlimit="10" stroke-linejoin="miter" fill="none" stroke="#000000" d="M5444 6155.4 5952.1 6365.8 5444 6576.3Z"/>
<path transform="matrix(.1,0,0,-.1,0,792)" d="M5444 7592.6 5952.1 7803 5444 8013.5" fill="#521f1f"/>
<path transform="matrix(.1,0,0,-.1,0,792)" stroke-width="1" stroke-linecap="butt" stroke-miterlimit="10" stroke-linejoin="miter" fill="none" stroke="#000000" d="M5444 7592.6 5952.1 7803 5444 8013.5Z"/>
<path transform="matrix(.1,0,0,-.1,0,792)" d="M4514.9 7803 5023 8013.5 5233.5 8521.7 5023 9029.8 4514.9 9240.3 4006.7 9029.8 3796.3 8521.7 4006.7 8013.5" fill="#edd6bf"/>
<path transform="matrix(.1,0,0,-.1,0,792)" stroke-width="1" stroke-linecap="butt" stroke-miterlimit="10" stroke-linejoin="miter" fill="none" stroke="#000000" d="M4514.9 7803 5023 8013.5 5233.5 8521.7 5023 9029.8 4514.9 9240.3 4006.7 9029.8 3796.3 8521.7 4006.7 8013.5Z"/>
<path transform="matrix(.1,0,0,-.1,0,792)" d="M3077.7 7803 3585.8 8013.5 3796.3 8521.7 3585.8 9029.8 3077.7 9240.3 2569.5 9029.8 2359 8521.7 2569.5 8013.5" fill="#edd6bf"/>
<path transform="matrix(.1,0,0,-.1,0,792)" stroke-width="1" stroke-linecap="butt" stroke-miterlimit="10" stroke-linejoin="miter" fill="none" stroke="#000000" d="M3077.7 7803 3585.8 8013.5 3796.3 8521.7 3585.8 9029.8 3077.7 9240.3 2569.5 9029.8 2359 8521.7 2569.5 8013.5Z"/>
<path transform="matrix(.1,0,0,-.1,0,792)" d="M1640.4 7803 2148.6 8013.5 2359 8521.7 2148.6 9029.8 1640.4 9240.3 1132.3 9029.8 921.801 8521.7 1132.3 8013.5" fill="#edd6bf"/>
<path transform="matrix(.1,0,0,-.1,0,792)" stroke-width="1" stroke-linecap="butt" stroke-miterlimit="10" stroke-linejoin="miter" fill="none" stroke="#000000" d="M1640.4 7803 2148.6 8013.5 2359 8521.7 2148.6 9029.8 1640.4 9240.3 1132.3 9029.8 921.801 8521.7 1132.3 8013.5Z"/>
<path transform="matrix(.1,0,0,-.1,0,792)" d="M1640.4 617 1132.3 406.5 921.801-101.699 1132.3-609.801 1640.4-820.301 2148.6-609.801 2359-101.699 2148.6 406.5" fill="#edd6bf"/>
<path transform="matrix(.1,0,0,-.1,0,792)" stroke-width="1" stroke-linecap="butt" stroke-miterlimit="10" stroke-linejoin="miter" fill="none" stroke="#000000" d="M1640.4 617 1132.3 406.5 921.801-101.699 1132.3-609.801 1640.4-820.301 2148.6-609.801 2359-101.699 2148.6 406.5Z"/>
<path transform="matrix(.1,0,0,-.1,0,792)" d="M3077.7 617 2569.5 406.5 2359-101.699 2569.5-609.801 3077.7-820.301 3585.8-609.801 3796.3-101.699 3585.8 406.5" fill="#edd6bf"/>
<path transform="matrix(.1,0,0,-.1,0,792)" stroke-width="1" stroke-linecap="butt" stroke-miterlimit="10" stroke-linejoin="miter" fill="none" stroke="#000000" d="M3077.7 617 2569.5 406.5 2359-101.699 2569.5-609.801 3077.7-820.301 3585.8-609.801 3796.3-101.699 3585.8 406.5Z"/>
<path transform="matrix(.1,0,0,-.1,0,792)" d="M4514.9 617 4006.7 406.5 3796.3-101.699 4006.7-609.801 4514.9-820.301 5023-609.801 5233.5-101.699 5023 406.5" fill="#edd6bf"/>
<path transform="matrix(.1,0,0,-.1,0,792)" stroke-width="1" stroke-linecap="butt" stroke-miterlimit="10" stroke-linejoin="miter" fill="none" stroke="#000000" d="M4514.9 617 4006.7 406.5 3796.3-101.699 4006.7-609.801 4514.9-820.301 5023-609.801 5233.5-101.699 5023 406.5Z"/>
<path transform="matrix(.1,0,0,-.1,0,792)" d="M3585.8 406.5 3796.3-101.699 4006.7 406.5" fill="#521f1f"/>
<path transform="matrix(.1,0,0,-.1,0,792)" stroke-width="1" stroke-linecap="butt" stroke-miterlimit="10" stroke-linejoin="miter" fill="none" stroke="#000000" d="M3585.8 406.5 3796.3-101.699 4006.7 406.5Z"/>
<path transform="matrix(.1,0,0,-.1,0,792)" d="M5023 406.5 5233.5-101.699 5444 406.5" fill="#521f1f"/>
<path transform="matrix(.1,0,0,-.1,0,792)" stroke-width="1" stroke-linecap="butt" stroke-miterlimit="10" stroke-linejoin="miter" fill="none" stroke="#000000" d="M5023 406.5 5233.5-101.699 5444 406.5Z"/>
<path transform="matrix(.1,0,0,-.1,0,792)" d="M5444 406.5 5233.5-101.699 5444-609.801 5952.1-820.301 6460.2-609.801 6670.7-101.699 6460.2 406.5 5952.1 617" fill="#edd6bf"/>
<path transform="matrix(.1,0,0,-.1,0,792)" stroke-width="1" stroke-linecap="butt" stroke-miterlimit="10" stroke-linejoin="miter" fill="none" stroke="#000000" d="M5444 406.5 5233.5-101.699 5444-609.801 5952.1-820.301 6460.2-609.801 6670.7-101.699 6460.2 406.5 5952.1 617Z"/>
<path transform="matrix(.1,0,0,-.1,0,792)" d="M5444 8013.5 5952.1 7803 6460.2 8013.5 6670.7 8521.7 6460.2 9029.8 5952.1 9240.3 5444 9029.8 5233.5 8521.7" fill="#edd6bf"/>
<path transform="matrix(.1,0,0,-.1,0,792)" stroke-width="1" stroke-linecap="butt" stroke-miterlimit="10" stroke-linejoin="miter" fill="none" stroke="#000000" d="M5444 8013.5 5952.1 7803 6460.2 8013.5 6670.7 8521.7 6460.2 9029.8 5952.1 9240.3 5444 9029.8 5233.5 8521.7Z"/>
<path transform="matrix(.1,0,0,-.1,0,792)" d="M711.398 8013.5 921.801 8521.7 711.398 9029.8 203.199 9240.3-304.898 9029.8-515.398 8521.7-304.898 8013.5 203.199 7803" fill="#edd6bf"/>
<path transform="matrix(.1,0,0,-.1,0,792)" stroke-width="1" stroke-linecap="butt" stroke-miterlimit="10" stroke-linejoin="miter" fill="none" stroke="#000000" d="M711.398 8013.5 921.801 8521.7 711.398 9029.8 203.199 9240.3-304.898 9029.8-515.398 8521.7-304.898 8013.5 203.199 7803Z"/>
<path transform="matrix(.1,0,0,-.1,0,792)" d="M711.398 406.5 921.801-101.699 1132.3 406.5" fill="#521f1f"/>
<path transform="matrix(.1,0,0,-.1,0,792)" stroke-width="1" stroke-linecap="butt" stroke-miterlimit="10" stroke-linejoin="miter" fill="none" stroke="#000000" d="M711.398 406.5 921.801-101.699 1132.3 406.5Z"/>
<path transform="matrix(.1,0,0,-.1,0,792)" d="M711.398 406.5 203.199 617-304.898 406.5-515.398-101.699-304.898-609.801 203.199-820.301 711.398-609.801 921.801-101.699" fill="#edd6bf"/>
<path transform="matrix(.1,0,0,-.1,0,792)" stroke-width="1" stroke-linecap="butt" stroke-miterlimit="10" stroke-linejoin="miter" fill="none" stroke="#000000" d="M711.398 406.5 203.199 617-304.898 406.5-515.398-101.699-304.898-609.801 203.199-820.301 711.398-609.801 921.801-101.699Z"/>
<path transform="matrix(.1,0,0,-.1,0,792)" d="M2148.6 406.5 2359-101.699 2569.5 406.5" fill="#521f1f"/>
<path transform="matrix(.1,0,0,-.1,0,792)" stroke-width="1" stroke-linecap="butt" stroke-miterlimit="10" stroke-linejoin="miter" fill="none" stroke="#000000" d="M2148.6 406.5 2359-101.699 2569.5 406.5Z"/>
<path transform="matrix(.1,0,0,-.1,0,792)" d="M203.199 7803-304.898 8013.5V7592.6" fill="#521f1f"/>
<path transform="matrix(.1,0,0,-.1,0,792)" stroke-width="1" stroke-linecap="butt" stroke-miterlimit="10" stroke-linejoin="miter" fill="none" stroke="#000000" d="M203.199 7803-304.898 8013.5V7592.6Z"/>
<path transform="matrix(.1,0,0,-.1,0,792)" d="M203.199 6365.8-304.898 6576.3V6155.4" fill="#521f1f"/>
<path transform="matrix(.1,0,0,-.1,0,792)" stroke-width="1" stroke-linecap="butt" stroke-miterlimit="10" stroke-linejoin="miter" fill="none" stroke="#000000" d="M203.199 6365.8-304.898 6576.3V6155.4Z"/>
<path transform="matrix(.1,0,0,-.1,0,792)" d="M203.199 4928.6-304.898 5139.1V4718.1" fill="#521f1f"/>
<path transform="matrix(.1,0,0,-.1,0,792)" stroke-width="1" stroke-linecap="butt" stroke-miterlimit="10" stroke-linejoin="miter" fill="none" stroke="#000000" d="M203.199 4928.6-304.898 5139.1V4718.1Z"/>
<path transform="matrix(.1,0,0,-.1,0,792)" d="M203.199 3491.4-304.898 3701.9V3280.9" fill="#521f1f"/>
<path transform="matrix(.1,0,0,-.1,0,792)" stroke-width="1" stroke-linecap="butt" stroke-miterlimit="10" stroke-linejoin="miter" fill="none" stroke="#000000" d="M203.199 3491.4-304.898 3701.9V3280.9Z"/>
<path transform="matrix(.1,0,0,-.1,0,792)" d="M203.199 2054.2-304.898 2264.6V1843.7" fill="#521f1f"/>
<path transform="matrix(.1,0,0,-.1,0,792)" stroke-width="1" stroke-linecap="butt" stroke-miterlimit="10" stroke-linejoin="miter" fill="none" stroke="#000000" d="M203.199 2054.2-304.898 2264.6V1843.7Z"/>
<path transform="matrix(.1,0,0,-.1,0,792)" d="M203.199 617-304.898 827.398V406.5" fill="#521f1f"/>
<path transform="matrix(.1,0,0,-.1,0,792)" stroke-width="1" stroke-linecap="butt" stroke-miterlimit="10" stroke-linejoin="miter" fill="none" stroke="#000000" d="M203.199 617-304.898 827.398V406.5Z"/>
<path transform="matrix(.1,0,0,-.1,0,792)" d="M5952.1 617 6460.2 406.5V827.398" fill="#521f1f"/>
<path transform="matrix(.1,0,0,-.1,0,792)" stroke-width="1" stroke-linecap="butt" stroke-miterlimit="10" stroke-linejoin="miter" fill="none" stroke="#000000" d="M5952.1 617 6460.2 406.5V827.398Z"/>
<path transform="matrix(.1,0,0,-.1,0,792)" d="M5952.1 2054.2 6460.2 1843.7V2264.6" fill="#521f1f"/>
<path transform="matrix(.1,0,0,-.1,0,792)" stroke-width="1" stroke-linecap="butt" stroke-miterlimit="10" stroke-linejoin="miter" fill="none" stroke="#000000" d="M5952.1 2054.2 6460.2 1843.7V2264.6Z"/>
<path transform="matrix(.1,0,0,-.1,0,792)" d="M5952.1 3491.4 6460.2 3280.9V3701.9" fill="#521f1f"/>
<path transform="matrix(.1,0,0,-.1,0,792)" stroke-width="1" stroke-linecap="butt" stroke-miterlimit="10" stroke-linejoin="miter" fill="none" stroke="#000000" d="M5952.1 3491.4 6460.2 3280.9V3701.9Z"/>
<path transform="matrix(.1,0,0,-.1,0,792)" d="M5952.1 4928.6 6460.2 4718.1V5139.1" fill="#521f1f"/>
<path transform="matrix(.1,0,0,-.1,0,792)" stroke-width="1" stroke-linecap="butt" stroke-miterlimit="10" stroke-linejoin="miter" fill="none" stroke="#000000" d="M5952.1 4928.6 6460.2 4718.1V5139.1Z"/>
<path transform="matrix(.1,0,0,-.1,0,792)" d="M5952.1 6365.8 6460.2 6155.4V6576.3" fill="#521f1f"/>
<path transform="matrix(.1,0,0,-.1,0,792)" stroke-width="1" stroke-linecap="butt" stroke-miterlimit="10" stroke-linejoin="miter" fill="none" stroke="#000000" d="M5952.1 6365.8 6460.2 6155.4V6576.3Z"/>
<path transform="matrix(.1,0,0,-.1,0,792)" d="M5952.1 7803 6460.2 7592.6V8013.5" fill="#521f1f"/>
<path transform="matrix(.1,0,0,-.1,0,792)" stroke-width="1" stroke-linecap="butt" stroke-miterlimit="10" stroke-linejoin="miter" fill="none" stroke="#000000" d="M5952.1 7803 6460.2 7592.6V8013.5Z"/>
</svg>
