<svg xmlns="http://www.w3.org/2000/svg" xmlns:xlink="http://www.w3.org/1999/xlink" xmlns:inkscape="http://www.inkscape.org/namespaces/inkscape" version="1.1" width="612" height="792" viewBox="0 0 612 792">
<path transform="matrix(.1,0,0,-.1,0,792)" d="M2975 3243.6 3239.2 3507.8H3612.8V3462.8 3507.8 3881.4L3877 4145.6 3612.8 4409.8V4783.5H3657.8 3612.8 3239.2L2975 5047.7 2710.8 4783.5H2337.2V4828.5 4783.5 4409.8L2073 4145.6 2337.2 3881.4V3507.8H2292.2 2337.2 2710.8" fill="#f8c499"/>
<path transform="matrix(.1,0,0,-.1,0,792)" stroke-width="9" stroke-linecap="butt" stroke-miterlimit="10" stroke-linejoin="miter" fill="none" stroke="#000000" d="M2975 3243.6 3239.2 3507.8H3612.8V3462.8 3507.8 3881.4L3877 4145.6 3612.8 4409.8V4783.5H3657.8 3612.8 3239.2L2975 5047.7 2710.8 4783.5H2337.2V4828.5 4783.5 4409.8L2073 4145.6 2337.2 3881.4V3507.8H2292.2 2337.2 2710.8Z"/>
<path transform="matrix(.1,0,0,-.1,0,792)" d="M3276.5 4873.5H3657.8 3612.8V5028.6L3439.5 5201.9 3768 5530.4 3813 5575.4 3768 5530.4H3303.5V5775.5L3193.8 5885.2 3161.9 5917 3193.8 5885.2 2975 5666.4 2756.2 5885.2 2724.4 5917 2756.2 5885.2 2646.5 5775.5V5530.4H2182 2118.4 2182L2510.5 5201.9 2337.2 5028.6V4873.5 4828.5 4873.5H2673.5L2975 5174.9" fill="#788fbd"/>
<path transform="matrix(.1,0,0,-.1,0,792)" stroke-width="9" stroke-linecap="butt" stroke-miterlimit="10" stroke-linejoin="miter" fill="none" stroke="#000000" d="M3276.5 4873.5H3657.8 3612.8V5028.6L3439.5 5201.9 3768 5530.4 3813 5575.4 3768 5530.4H3303.5V5775.5L3193.8 5885.2 3161.9 5917 3193.8 5885.2 2975 5666.4 2756.2 5885.2 2724.4 5917 2756.2 5885.2 2646.5 5775.5V5530.4H2182 2118.4 2182L2510.5 5201.9 2337.2 5028.6V4873.5 4828.5 4873.5H2673.5L2975 5174.9Z"/>
<path transform="matrix(.1,0,0,-.1,0,792)" d="M2673.5 3417.8H2292.2 2337.2V3262.7L2510.5 3089.3 2182 2760.9 2137 2715.9 2182 2760.9H2646.5V2515.7L2756.2 2406 2788.1 2374.2 2756.2 2406 2975 2624.8 3193.8 2406 3225.6 2374.2 3193.8 2406 3303.5 2515.7V2760.9H3768 3831.6 3768L3439.5 3089.3 3612.8 3262.7V3417.8 3462.8 3417.8H3276.5L2975 3116.3" fill="#788fbd"/>
<path transform="matrix(.1,0,0,-.1,0,792)" stroke-width="9" stroke-linecap="butt" stroke-miterlimit="10" stroke-linejoin="miter" fill="none" stroke="#000000" d="M2673.5 3417.8H2292.2 2337.2V3262.7L2510.5 3089.3 2182 2760.9 2137 2715.9 2182 2760.9H2646.5V2515.7L2756.2 2406 2788.1 2374.2 2756.2 2406 2975 2624.8 3193.8 2406 3225.6 2374.2 3193.8 2406 3303.5 2515.7V2760.9H3768 3831.6 3768L3439.5 3089.3 3612.8 3262.7V3417.8 3462.8 3417.8H3276.5L2975 3116.3Z"/>
<path transform="matrix(.1,0,0,-.1,0,792)" d="M2247.2 3844.1 1945.7 4145.6 2247.2 4447.1V4828.5 4783.5H2092L1918.7 4610.1 1590.2 4938.6 1545.2 4983.6 1590.2 4938.6V4474.1H1345.1L1235.4 4364.4 1203.6 4332.6 1235.4 4364.4 1454.2 4145.6 1235.4 3926.9 1203.6 3895 1235.4 3926.9 1345.1 3817.2H1590.2V3352.7 3289 3352.7L1918.7 3681.1 2092 3507.8H2247.2 2292.2 2247.2" fill="#788fbd"/>
<path transform="matrix(.1,0,0,-.1,0,792)" stroke-width="9" stroke-linecap="butt" stroke-miterlimit="10" stroke-linejoin="miter" fill="none" stroke="#000000" d="M2247.2 3844.1 1945.7 4145.6 2247.2 4447.1V4828.5 4783.5H2092L1918.7 4610.1 1590.2 4938.6 1545.2 4983.6 1590.2 4938.6V4474.1H1345.1L1235.4 4364.4 1203.6 4332.6 1235.4 4364.4 1454.2 4145.6 1235.4 3926.9 1203.6 3895 1235.4 3926.9 1345.1 3817.2H1590.2V3352.7 3289 3352.7L1918.7 3681.1 2092 3507.8H2247.2 2292.2 2247.2Z"/>
<path transform="matrix(.1,0,0,-.1,0,792)" d="M2247.2 5065.9 2383.2 5201.9 2054.8 5530.4H2118.4 2054.8 1590.2V5575.4 5530.4 5065.9L1545.2 5110.9 1590.2 5065.9 1918.7 4737.4 2054.8 4873.5H2247.2V4828.5 4873.5" fill="#f8c499"/>
<path transform="matrix(.1,0,0,-.1,0,792)" stroke-width="9" stroke-linecap="butt" stroke-miterlimit="10" stroke-linejoin="miter" fill="none" stroke="#000000" d="M2247.2 5065.9 2383.2 5201.9 2054.8 5530.4H2118.4 2054.8 1590.2V5575.4 5530.4 5065.9L1545.2 5110.9 1590.2 5065.9 1918.7 4737.4 2054.8 4873.5H2247.2V4828.5 4873.5Z"/>
<path transform="matrix(.1,0,0,-.1,0,792)" d="M2247.2 3417.8H2292.2 2054.8L1918.7 3553.8 1590.2 3225.4V3289 3225.4 2760.9H1545.2 1590.2 2054.8L2009.8 2715.9 2054.8 2760.9 2383.2 3089.3 2247.2 3225.4" fill="#f8c499"/>
<path transform="matrix(.1,0,0,-.1,0,792)" stroke-width="9" stroke-linecap="butt" stroke-miterlimit="10" stroke-linejoin="miter" fill="none" stroke="#000000" d="M2247.2 3417.8H2292.2 2054.8L1918.7 3553.8 1590.2 3225.4V3289 3225.4 2760.9H1545.2 1590.2 2054.8L2009.8 2715.9 2054.8 2760.9 2383.2 3089.3 2247.2 3225.4Z"/>
<path transform="matrix(.1,0,0,-.1,0,792)" d="M3702.8 3507.8V3462.8 3507.8H3858L4031.3 3681.1 4359.8 3352.7 4404.8 3307.7 4359.8 3352.7V3817.2H4604.9L4714.6 3926.9 4746.4 3958.7 4714.6 3926.9 4495.8 4145.6 4714.6 4364.4 4746.4 4396.2 4714.6 4364.4 4604.9 4474.1H4359.8V4938.6 5002.2 4938.6L4031.3 4610.1 3858 4783.5H3702.8 3657.8 3702.8V4447.1L4004.3 4145.6 3702.8 3844.1" fill="#788fbd"/>
<path transform="matrix(.1,0,0,-.1,0,792)" stroke-width="9" stroke-linecap="butt" stroke-miterlimit="10" stroke-linejoin="miter" fill="none" stroke="#000000" d="M3702.8 3507.8V3462.8 3507.8H3858L4031.3 3681.1 4359.8 3352.7 4404.8 3307.7 4359.8 3352.7V3817.2H4604.9L4714.6 3926.9 4746.4 3958.7 4714.6 3926.9 4495.8 4145.6 4714.6 4364.4 4746.4 4396.2 4714.6 4364.4 4604.9 4474.1H4359.8V4938.6 5002.2 4938.6L4031.3 4610.1 3858 4783.5H3702.8 3657.8 3702.8V4447.1L4004.3 4145.6 3702.8 3844.1Z"/>
<path transform="matrix(.1,0,0,-.1,0,792)" d="M3702.8 3417.8V3462.8 3225.4L3566.8 3089.3 3895.2 2760.9H3831.6 3895.2 4359.8V2715.9 2760.9 3225.4L4404.8 3180.4 4359.8 3225.4 4031.3 3553.8 3895.2 3417.8" fill="#f8c499"/>
<path transform="matrix(.1,0,0,-.1,0,792)" stroke-width="9" stroke-linecap="butt" stroke-miterlimit="10" stroke-linejoin="miter" fill="none" stroke="#000000" d="M3702.8 3417.8V3462.8 3225.4L3566.8 3089.3 3895.2 2760.9H3831.6 3895.2 4359.8V2715.9 2760.9 3225.4L4404.8 3180.4 4359.8 3225.4 4031.3 3553.8 3895.2 3417.8Z"/>
<path transform="matrix(.1,0,0,-.1,0,792)" d="M3702.8 4873.5H3657.8 3895.2L4031.3 4737.4 4359.8 5065.9V5002.2 5065.9 5530.4H4404.8 4359.8 3895.2L3940.2 5575.4 3895.2 5530.4 3566.8 5201.9 3702.8 5065.9" fill="#f8c499"/>
<path transform="matrix(.1,0,0,-.1,0,792)" stroke-width="9" stroke-linecap="butt" stroke-miterlimit="10" stroke-linejoin="miter" fill="none" stroke="#000000" d="M3702.8 4873.5H3657.8 3895.2L4031.3 4737.4 4359.8 5065.9V5002.2 5065.9 5530.4H4404.8 4359.8 3895.2L3940.2 5575.4 3895.2 5530.4 3566.8 5201.9 3702.8 5065.9Z"/>
<path transform="matrix(.1,0,0,-.1,0,792)" d="M3858 5620.4 3813 5575.4 3858 5620.4 4186.4 5948.8 4218.2 5917 4186.4 5948.8 3858 6277.3H3921.6 3858 3393.5V6084.9L3257.4 5948.8 3225.6 5980.7 3257.4 5948.8 3393.5 5812.8V5620.4" fill="#f8c499"/>
<path transform="matrix(.1,0,0,-.1,0,792)" stroke-width="9" stroke-linecap="butt" stroke-miterlimit="10" stroke-linejoin="miter" fill="none" stroke="#000000" d="M3858 5620.4 3813 5575.4 3858 5620.4 4186.4 5948.8 4218.2 5917 4186.4 5948.8 3858 6277.3H3921.6 3858 3393.5V6084.9L3257.4 5948.8 3225.6 5980.7 3257.4 5948.8 3393.5 5812.8V5620.4Z"/>
<path transform="matrix(.1,0,0,-.1,0,792)" d="M3985.2 5620.4 3940.2 5575.4 3985.2 5620.4H4404.8 4359.8V5775.5L4250.1 5885.2 4218.2 5917 4250.1 5885.2" fill="#788fbd"/>
<path transform="matrix(.1,0,0,-.1,0,792)" stroke-width="9" stroke-linecap="butt" stroke-miterlimit="10" stroke-linejoin="miter" fill="none" stroke="#000000" d="M3985.2 5620.4 3940.2 5575.4 3985.2 5620.4H4404.8 4359.8V5775.5L4250.1 5885.2 4218.2 5917 4250.1 5885.2Z"/>
<path transform="matrix(.1,0,0,-.1,0,792)" d="M2556.5 5620.4V5812.8L2692.6 5948.8 2724.4 5917 2692.6 5948.8 2556.5 6084.9V6277.3H2092L2137 6322.3 2092 6277.3 1763.6 5948.8 1731.8 5980.7 1763.6 5948.8 2092 5620.4H2028.4 2092" fill="#f8c499"/>
<path transform="matrix(.1,0,0,-.1,0,792)" stroke-width="9" stroke-linecap="butt" stroke-miterlimit="10" stroke-linejoin="miter" fill="none" stroke="#000000" d="M2556.5 5620.4V5812.8L2692.6 5948.8 2724.4 5917 2692.6 5948.8 2556.5 6084.9V6277.3H2092L2137 6322.3 2092 6277.3 1763.6 5948.8 1731.8 5980.7 1763.6 5948.8 2092 5620.4H2028.4 2092Z"/>
<path transform="matrix(.1,0,0,-.1,0,792)" d="M1964.8 5620.4H2028.4 1964.8L1699.9 5885.2 1668.1 5917 1699.9 5885.2 1590.2 5775.5V5620.4 5575.4 5620.4" fill="#788fbd"/>
<path transform="matrix(.1,0,0,-.1,0,792)" stroke-width="9" stroke-linecap="butt" stroke-miterlimit="10" stroke-linejoin="miter" fill="none" stroke="#000000" d="M1964.8 5620.4H2028.4 1964.8L1699.9 5885.2 1668.1 5917 1699.9 5885.2 1590.2 5775.5V5620.4 5575.4 5620.4Z"/>
<path transform="matrix(.1,0,0,-.1,0,792)" d="M2092 2670.9 2137 2715.9 2092 2670.9 1763.6 2342.4 1731.8 2374.2 1763.6 2342.4 2092 2013.9H2028.4 2092 2556.5V2206.3L2692.6 2342.4 2724.4 2310.6 2692.6 2342.4 2556.5 2478.5V2670.9" fill="#f8c499"/>
<path transform="matrix(.1,0,0,-.1,0,792)" stroke-width="9" stroke-linecap="butt" stroke-miterlimit="10" stroke-linejoin="miter" fill="none" stroke="#000000" d="M2092 2670.9 2137 2715.9 2092 2670.9 1763.6 2342.4 1731.8 2374.2 1763.6 2342.4 2092 2013.9H2028.4 2092 2556.5V2206.3L2692.6 2342.4 2724.4 2310.6 2692.6 2342.4 2556.5 2478.5V2670.9Z"/>
<path transform="matrix(.1,0,0,-.1,0,792)" d="M1964.8 2670.9 2009.8 2715.9 1964.8 2670.9H1545.2 1590.2V2515.7L1699.9 2406 1731.8 2374.2 1699.9 2406" fill="#788fbd"/>
<path transform="matrix(.1,0,0,-.1,0,792)" stroke-width="9" stroke-linecap="butt" stroke-miterlimit="10" stroke-linejoin="miter" fill="none" stroke="#000000" d="M1964.8 2670.9 2009.8 2715.9 1964.8 2670.9H1545.2 1590.2V2515.7L1699.9 2406 1731.8 2374.2 1699.9 2406Z"/>
<path transform="matrix(.1,0,0,-.1,0,792)" d="M3393.5 2670.9V2478.5L3257.4 2342.4 3225.6 2374.2 3257.4 2342.4 3393.5 2206.3V2013.9H3858L3813 1968.9 3858 2013.9 4186.4 2342.4 4218.2 2310.6 4186.4 2342.4 3858 2670.9H3921.6 3858" fill="#f8c499"/>
<path transform="matrix(.1,0,0,-.1,0,792)" stroke-width="9" stroke-linecap="butt" stroke-miterlimit="10" stroke-linejoin="miter" fill="none" stroke="#000000" d="M3393.5 2670.9V2478.5L3257.4 2342.4 3225.6 2374.2 3257.4 2342.4 3393.5 2206.3V2013.9H3858L3813 1968.9 3858 2013.9 4186.4 2342.4 4218.2 2310.6 4186.4 2342.4 3858 2670.9H3921.6 3858Z"/>
<path transform="matrix(.1,0,0,-.1,0,792)" d="M3985.2 2670.9H3921.6 3985.2L4250.1 2406 4281.9 2374.2 4250.1 2406 4359.8 2515.7V2670.9 2715.9 2670.9" fill="#788fbd"/>
<path transform="matrix(.1,0,0,-.1,0,792)" stroke-width="9" stroke-linecap="butt" stroke-miterlimit="10" stroke-linejoin="miter" fill="none" stroke="#000000" d="M3985.2 2670.9H3921.6 3985.2L4250.1 2406 4281.9 2374.2 4250.1 2406 4359.8 2515.7V2670.9 2715.9 2670.9Z"/>
<path transform="matrix(.1,0,0,-.1,0,792)" d="M2975 5793.7 3130.1 5948.8 3161.9 5917 3130.1 5948.8 2975 6104 2819.9 5948.8 2788.1 5980.7 2819.9 5948.8" fill="#f8c499"/>
<path transform="matrix(.1,0,0,-.1,0,792)" stroke-width="9" stroke-linecap="butt" stroke-miterlimit="10" stroke-linejoin="miter" fill="none" stroke="#000000" d="M2975 5793.7 3130.1 5948.8 3161.9 5917 3130.1 5948.8 2975 6104 2819.9 5948.8 2788.1 5980.7 2819.9 5948.8Z"/>
<path transform="matrix(.1,0,0,-.1,0,792)" d="M2975 2497.5 2819.9 2342.4 2788.1 2374.2 2819.9 2342.4 2975 2187.3 3130.1 2342.4 3161.9 2310.6 3130.1 2342.4" fill="#f8c499"/>
<path transform="matrix(.1,0,0,-.1,0,792)" stroke-width="9" stroke-linecap="butt" stroke-miterlimit="10" stroke-linejoin="miter" fill="none" stroke="#000000" d="M2975 2497.5 2819.9 2342.4 2788.1 2374.2 2819.9 2342.4 2975 2187.3 3130.1 2342.4 3161.9 2310.6 3130.1 2342.4Z"/>
<path transform="matrix(.1,0,0,-.1,0,792)" d="M3193.8 6012.5 3225.6 5980.7 3193.8 6012.5 3303.5 6122.2V6367.3H3768 3831.6 3768L3439.5 6695.8 3612.8 6869.1V7024.2 7069.2 7024.2H3276.5L2975 6722.7 2673.5 7024.2H2337.2 2292.2 2337.2V6869.1L2510.5 6695.8 2182 6367.3 2137 6322.3 2182 6367.3H2646.5V6122.2L2756.2 6012.5 2788.1 5980.7 2756.2 6012.5 2975 6231.2" fill="#788fbd"/>
<path transform="matrix(.1,0,0,-.1,0,792)" stroke-width="9" stroke-linecap="butt" stroke-miterlimit="10" stroke-linejoin="miter" fill="none" stroke="#000000" d="M3193.8 6012.5 3225.6 5980.7 3193.8 6012.5 3303.5 6122.2V6367.3H3768 3831.6 3768L3439.5 6695.8 3612.8 6869.1V7024.2 7069.2 7024.2H3276.5L2975 6722.7 2673.5 7024.2H2337.2 2292.2 2337.2V6869.1L2510.5 6695.8 2182 6367.3 2137 6322.3 2182 6367.3H2646.5V6122.2L2756.2 6012.5 2788.1 5980.7 2756.2 6012.5 2975 6231.2Z"/>
<path transform="matrix(.1,0,0,-.1,0,792)" d="M4250.1 6012.5 4281.9 5980.7 4250.1 6012.5 4359.8 6122.2V6277.3 6322.3 6277.3H3985.2 3921.6 3985.2" fill="#788fbd"/>
<path transform="matrix(.1,0,0,-.1,0,792)" stroke-width="9" stroke-linecap="butt" stroke-miterlimit="10" stroke-linejoin="miter" fill="none" stroke="#000000" d="M4250.1 6012.5 4281.9 5980.7 4250.1 6012.5 4359.8 6122.2V6277.3 6322.3 6277.3H3985.2 3921.6 3985.2Z"/>
<path transform="matrix(.1,0,0,-.1,0,792)" d="M4313.7 5948.8 4281.9 5980.7 4313.7 5948.8 4449.8 5812.8V5620.4H4404.8 4449.8 4642.2L4778.2 5484.3 4746.4 5452.5 4778.2 5484.3 4914.3 5620.4H5106.7V5575.4 5620.4 5812.8L5242.7 5948.8 5274.6 5917 5242.7 5948.8 5106.7 6084.9V6277.3H5151.7 5106.7 4914.3L4778.2 6413.4 4810 6445.2 4778.2 6413.4 4642.2 6277.3H4449.8V6322.3 6277.3 6084.9" fill="#f8c499"/>
<path transform="matrix(.1,0,0,-.1,0,792)" stroke-width="9" stroke-linecap="butt" stroke-miterlimit="10" stroke-linejoin="miter" fill="none" stroke="#000000" d="M4313.7 5948.8 4281.9 5980.7 4313.7 5948.8 4449.8 5812.8V5620.4H4404.8 4449.8 4642.2L4778.2 5484.3 4746.4 5452.5 4778.2 5484.3 4914.3 5620.4H5106.7V5575.4 5620.4 5812.8L5242.7 5948.8 5274.6 5917 5242.7 5948.8 5106.7 6084.9V6277.3H5151.7 5106.7 4914.3L4778.2 6413.4 4810 6445.2 4778.2 6413.4 4642.2 6277.3H4449.8V6322.3 6277.3 6084.9Z"/>
<path transform="matrix(.1,0,0,-.1,0,792)" d="M1636.3 5948.8 1668.1 5917 1636.3 5948.8 1500.2 6084.9V6277.3H1545.2 1500.2 1307.8L1171.8 6413.4 1203.6 6445.2 1171.8 6413.4 1035.7 6277.3H843.301V6322.3 6277.3 6084.9L707.301 5948.8 675.398 5980.7 707.301 5948.8 843.301 5812.8V5620.4H798.301 843.301 1035.7L1171.8 5484.3 1140 5452.5 1171.8 5484.3 1307.8 5620.4H1500.2V5575.4 5620.4 5812.8" fill="#f8c499"/>
<path transform="matrix(.1,0,0,-.1,0,792)" stroke-width="9" stroke-linecap="butt" stroke-miterlimit="10" stroke-linejoin="miter" fill="none" stroke="#000000" d="M1636.3 5948.8 1668.1 5917 1636.3 5948.8 1500.2 6084.9V6277.3H1545.2 1500.2 1307.8L1171.8 6413.4 1203.6 6445.2 1171.8 6413.4 1035.7 6277.3H843.301V6322.3 6277.3 6084.9L707.301 5948.8 675.398 5980.7 707.301 5948.8 843.301 5812.8V5620.4H798.301 843.301 1035.7L1171.8 5484.3 1140 5452.5 1171.8 5484.3 1307.8 5620.4H1500.2V5575.4 5620.4 5812.8Z"/>
<path transform="matrix(.1,0,0,-.1,0,792)" d="M1699.9 6012.5 1731.8 5980.7 1699.9 6012.5 1964.8 6277.3 2009.8 6322.3 1964.8 6277.3H1590.2 1545.2 1590.2V6122.2" fill="#788fbd"/>
<path transform="matrix(.1,0,0,-.1,0,792)" stroke-width="9" stroke-linecap="butt" stroke-miterlimit="10" stroke-linejoin="miter" fill="none" stroke="#000000" d="M1699.9 6012.5 1731.8 5980.7 1699.9 6012.5 1964.8 6277.3 2009.8 6322.3 1964.8 6277.3H1590.2 1545.2 1590.2V6122.2Z"/>
<path transform="matrix(.1,0,0,-.1,0,792)" d="M1699.9 2278.8 1668.1 2310.6 1699.9 2278.8 1590.2 2169.1V2013.9 1968.9 2013.9H1964.8 2028.4 1964.8" fill="#788fbd"/>
<path transform="matrix(.1,0,0,-.1,0,792)" stroke-width="9" stroke-linecap="butt" stroke-miterlimit="10" stroke-linejoin="miter" fill="none" stroke="#000000" d="M1699.9 2278.8 1668.1 2310.6 1699.9 2278.8 1590.2 2169.1V2013.9 1968.9 2013.9H1964.8 2028.4 1964.8Z"/>
<path transform="matrix(.1,0,0,-.1,0,792)" d="M1636.3 2342.4 1668.1 2310.6 1636.3 2342.4 1500.2 2478.5V2670.9H1545.2 1500.2 1307.8L1171.8 2806.9 1203.6 2838.7 1171.8 2806.9 1035.7 2670.9H843.301V2715.9 2670.9 2478.5L707.301 2342.4 675.398 2374.2 707.301 2342.4 843.301 2206.3V2013.9H798.301 843.301 1035.7L1171.8 1877.9 1140 1846.1 1171.8 1877.9 1307.8 2013.9H1500.2V1968.9 2013.9 2206.3" fill="#f8c499"/>
<path transform="matrix(.1,0,0,-.1,0,792)" stroke-width="9" stroke-linecap="butt" stroke-miterlimit="10" stroke-linejoin="miter" fill="none" stroke="#000000" d="M1636.3 2342.4 1668.1 2310.6 1636.3 2342.4 1500.2 2478.5V2670.9H1545.2 1500.2 1307.8L1171.8 2806.9 1203.6 2838.7 1171.8 2806.9 1035.7 2670.9H843.301V2715.9 2670.9 2478.5L707.301 2342.4 675.398 2374.2 707.301 2342.4 843.301 2206.3V2013.9H798.301 843.301 1035.7L1171.8 1877.9 1140 1846.1 1171.8 1877.9 1307.8 2013.9H1500.2V1968.9 2013.9 2206.3Z"/>
<path transform="matrix(.1,0,0,-.1,0,792)" d="M2756.2 2278.8 2724.4 2310.6 2756.2 2278.8 2646.5 2169.1V1923.9H2182 2118.4 2182L2510.5 1595.5 2337.2 1422.2V1267 1222 1267H2673.5L2975 1568.5 3276.5 1267H3612.8 3657.8 3612.8V1422.2L3439.5 1595.5 3768 1923.9 3813 1968.9 3768 1923.9H3303.5V2169.1L3193.8 2278.8 3161.9 2310.6 3193.8 2278.8 2975 2060" fill="#788fbd"/>
<path transform="matrix(.1,0,0,-.1,0,792)" stroke-width="9" stroke-linecap="butt" stroke-miterlimit="10" stroke-linejoin="miter" fill="none" stroke="#000000" d="M2756.2 2278.8 2724.4 2310.6 2756.2 2278.8 2646.5 2169.1V1923.9H2182 2118.4 2182L2510.5 1595.5 2337.2 1422.2V1267 1222 1267H2673.5L2975 1568.5 3276.5 1267H3612.8 3657.8 3612.8V1422.2L3439.5 1595.5 3768 1923.9 3813 1968.9 3768 1923.9H3303.5V2169.1L3193.8 2278.8 3161.9 2310.6 3193.8 2278.8 2975 2060Z"/>
<path transform="matrix(.1,0,0,-.1,0,792)" d="M4313.7 2342.4 4281.9 2374.2 4313.7 2342.4 4449.8 2206.3V2013.9H4404.8 4449.8 4642.2L4778.2 1877.9 4746.4 1846.1 4778.2 1877.9 4914.3 2013.9H5106.7V1968.9 2013.9 2206.3L5242.7 2342.4 5274.6 2310.6 5242.7 2342.4 5106.7 2478.5V2670.9H5151.7 5106.7 4914.3L4778.2 2806.9 4810 2838.7 4778.2 2806.9 4642.2 2670.9H4449.8V2715.9 2670.9 2478.5" fill="#f8c499"/>
<path transform="matrix(.1,0,0,-.1,0,792)" stroke-width="9" stroke-linecap="butt" stroke-miterlimit="10" stroke-linejoin="miter" fill="none" stroke="#000000" d="M4313.7 2342.4 4281.9 2374.2 4313.7 2342.4 4449.8 2206.3V2013.9H4404.8 4449.8 4642.2L4778.2 1877.9 4746.4 1846.1 4778.2 1877.9 4914.3 2013.9H5106.7V1968.9 2013.9 2206.3L5242.7 2342.4 5274.6 2310.6 5242.7 2342.4 5106.7 2478.5V2670.9H5151.7 5106.7 4914.3L4778.2 2806.9 4810 2838.7 4778.2 2806.9 4642.2 2670.9H4449.8V2715.9 2670.9 2478.5Z"/>
<path transform="matrix(.1,0,0,-.1,0,792)" d="M4250.1 2278.8 4218.2 2310.6 4250.1 2278.8 3985.2 2013.9 3940.2 1968.9 3985.2 2013.9H4359.8 4404.8 4359.8V2169.1" fill="#788fbd"/>
<path transform="matrix(.1,0,0,-.1,0,792)" stroke-width="9" stroke-linecap="butt" stroke-miterlimit="10" stroke-linejoin="miter" fill="none" stroke="#000000" d="M4250.1 2278.8 4218.2 2310.6 4250.1 2278.8 3985.2 2013.9 3940.2 1968.9 3985.2 2013.9H4359.8 4404.8 4359.8V2169.1Z"/>
<path transform="matrix(.1,0,0,-.1,0,792)" d="M4449.8 2760.9V2715.9 2760.9H4604.9L4714.6 2870.6 4746.4 2902.4 4714.6 2870.6 4449.8 3135.4 4404.8 3180.4 4449.8 3135.4" fill="#788fbd"/>
<path transform="matrix(.1,0,0,-.1,0,792)" stroke-width="9" stroke-linecap="butt" stroke-miterlimit="10" stroke-linejoin="miter" fill="none" stroke="#000000" d="M4449.8 2760.9V2715.9 2760.9H4604.9L4714.6 2870.6 4746.4 2902.4 4714.6 2870.6 4449.8 3135.4 4404.8 3180.4 4449.8 3135.4Z"/>
<path transform="matrix(.1,0,0,-.1,0,792)" d="M4449.8 3262.7 4404.8 3307.7 4449.8 3262.7 4778.2 2934.2 4746.4 2902.4 4778.2 2934.2 5106.7 3262.7V3199 3262.7 3727.2H4914.3L4778.2 3863.2 4810 3895 4778.2 3863.2 4642.2 3727.2H4449.8" fill="#f8c499"/>
<path transform="matrix(.1,0,0,-.1,0,792)" stroke-width="9" stroke-linecap="butt" stroke-miterlimit="10" stroke-linejoin="miter" fill="none" stroke="#000000" d="M4449.8 3262.7 4404.8 3307.7 4449.8 3262.7 4778.2 2934.2 4746.4 2902.4 4778.2 2934.2 5106.7 3262.7V3199 3262.7 3727.2H4914.3L4778.2 3863.2 4810 3895 4778.2 3863.2 4642.2 3727.2H4449.8Z"/>
<path transform="matrix(.1,0,0,-.1,0,792)" d="M4449.8 4564.1H4642.2L4778.2 4428 4746.4 4396.2 4778.2 4428 4914.3 4564.1H5106.7V5028.6L5151.7 4983.6 5106.7 5028.6 4778.2 5357.1 4810 5388.9 4778.2 5357.1 4449.8 5028.6V5092.2 5028.6" fill="#f8c499"/>
<path transform="matrix(.1,0,0,-.1,0,792)" stroke-width="9" stroke-linecap="butt" stroke-miterlimit="10" stroke-linejoin="miter" fill="none" stroke="#000000" d="M4449.8 4564.1H4642.2L4778.2 4428 4746.4 4396.2 4778.2 4428 4914.3 4564.1H5106.7V5028.6L5151.7 4983.6 5106.7 5028.6 4778.2 5357.1 4810 5388.9 4778.2 5357.1 4449.8 5028.6V5092.2 5028.6Z"/>
<path transform="matrix(.1,0,0,-.1,0,792)" d="M4449.8 5155.9V5092.2 5155.9L4714.6 5420.7 4746.4 5452.5 4714.6 5420.7 4604.9 5530.4H4449.8 4404.8 4449.8" fill="#788fbd"/>
<path transform="matrix(.1,0,0,-.1,0,792)" stroke-width="9" stroke-linecap="butt" stroke-miterlimit="10" stroke-linejoin="miter" fill="none" stroke="#000000" d="M4449.8 5155.9V5092.2 5155.9L4714.6 5420.7 4746.4 5452.5 4714.6 5420.7 4604.9 5530.4H4449.8 4404.8 4449.8Z"/>
<path transform="matrix(.1,0,0,-.1,0,792)" d="M1500.2 5530.4V5575.4 5530.4H1345.1L1235.4 5420.7 1203.6 5388.9 1235.4 5420.7 1500.2 5155.9 1545.2 5110.9 1500.2 5155.9" fill="#788fbd"/>
<path transform="matrix(.1,0,0,-.1,0,792)" stroke-width="9" stroke-linecap="butt" stroke-miterlimit="10" stroke-linejoin="miter" fill="none" stroke="#000000" d="M1500.2 5530.4V5575.4 5530.4H1345.1L1235.4 5420.7 1203.6 5388.9 1235.4 5420.7 1500.2 5155.9 1545.2 5110.9 1500.2 5155.9Z"/>
<path transform="matrix(.1,0,0,-.1,0,792)" d="M1500.2 5028.6 1545.2 4983.6 1500.2 5028.6 1171.8 5357.1 1203.6 5388.9 1171.8 5357.1 843.301 5028.6V5092.2 5028.6 4564.1H1035.7L1171.8 4428 1140 4396.2 1171.8 4428 1307.8 4564.1H1500.2" fill="#f8c499"/>
<path transform="matrix(.1,0,0,-.1,0,792)" stroke-width="9" stroke-linecap="butt" stroke-miterlimit="10" stroke-linejoin="miter" fill="none" stroke="#000000" d="M1500.2 5028.6 1545.2 4983.6 1500.2 5028.6 1171.8 5357.1 1203.6 5388.9 1171.8 5357.1 843.301 5028.6V5092.2 5028.6 4564.1H1035.7L1171.8 4428 1140 4396.2 1171.8 4428 1307.8 4564.1H1500.2Z"/>
<path transform="matrix(.1,0,0,-.1,0,792)" d="M1500.2 3727.2H1307.8L1171.8 3863.2 1203.6 3895 1171.8 3863.2 1035.7 3727.2H843.301V3262.7L798.301 3307.7 843.301 3262.7 1171.8 2934.2 1140 2902.4 1171.8 2934.2 1500.2 3262.7V3199 3262.7" fill="#f8c499"/>
<path transform="matrix(.1,0,0,-.1,0,792)" stroke-width="9" stroke-linecap="butt" stroke-miterlimit="10" stroke-linejoin="miter" fill="none" stroke="#000000" d="M1500.2 3727.2H1307.8L1171.8 3863.2 1203.6 3895 1171.8 3863.2 1035.7 3727.2H843.301V3262.7L798.301 3307.7 843.301 3262.7 1171.8 2934.2 1140 2902.4 1171.8 2934.2 1500.2 3262.7V3199 3262.7Z"/>
<path transform="matrix(.1,0,0,-.1,0,792)" d="M1500.2 3135.4V3199 3135.4L1235.4 2870.6 1203.6 2838.7 1235.4 2870.6 1345.1 2760.9H1500.2 1545.2 1500.2" fill="#788fbd"/>
<path transform="matrix(.1,0,0,-.1,0,792)" stroke-width="9" stroke-linecap="butt" stroke-miterlimit="10" stroke-linejoin="miter" fill="none" stroke="#000000" d="M1500.2 3135.4V3199 3135.4L1235.4 2870.6 1203.6 2838.7 1235.4 2870.6 1345.1 2760.9H1500.2 1545.2 1500.2Z"/>
<path transform="matrix(.1,0,0,-.1,0,792)" d="M4359.8 6367.3V6322.3 6831.8L4404.8 6786.8 4359.8 6831.8 4031.3 7160.3 3895.2 7024.2H3702.8V7069.2 7024.2 6831.8L3566.8 6695.8 3895.2 6367.3H3831.6 3895.2" fill="#f8c499"/>
<path transform="matrix(.1,0,0,-.1,0,792)" stroke-width="9" stroke-linecap="butt" stroke-miterlimit="10" stroke-linejoin="miter" fill="none" stroke="#000000" d="M4359.8 6367.3V6322.3 6831.8L4404.8 6786.8 4359.8 6831.8 4031.3 7160.3 3895.2 7024.2H3702.8V7069.2 7024.2 6831.8L3566.8 6695.8 3895.2 6367.3H3831.6 3895.2Z"/>
<path transform="matrix(.1,0,0,-.1,0,792)" d="M4449.8 6367.3V6322.3 6367.3H4604.9L4714.6 6477 4746.4 6508.8 4714.6 6477 4449.8 6741.8 4404.8 6786.8 4449.8 6741.8" fill="#788fbd"/>
<path transform="matrix(.1,0,0,-.1,0,792)" stroke-width="9" stroke-linecap="butt" stroke-miterlimit="10" stroke-linejoin="miter" fill="none" stroke="#000000" d="M4449.8 6367.3V6322.3 6367.3H4604.9L4714.6 6477 4746.4 6508.8 4714.6 6477 4449.8 6741.8 4404.8 6786.8 4449.8 6741.8Z"/>
<path transform="matrix(.1,0,0,-.1,0,792)" d="M2054.8 6367.3 2009.8 6322.3 2054.8 6367.3 2383.2 6695.8 2247.2 6831.8V7024.2H2292.2 2247.2 2054.8L1918.7 7160.3 1590.2 6831.8V6895.5 6831.8 6367.3H1545.2 1590.2" fill="#f8c499"/>
<path transform="matrix(.1,0,0,-.1,0,792)" stroke-width="9" stroke-linecap="butt" stroke-miterlimit="10" stroke-linejoin="miter" fill="none" stroke="#000000" d="M2054.8 6367.3 2009.8 6322.3 2054.8 6367.3 2383.2 6695.8 2247.2 6831.8V7024.2H2292.2 2247.2 2054.8L1918.7 7160.3 1590.2 6831.8V6895.5 6831.8 6367.3H1545.2 1590.2Z"/>
<path transform="matrix(.1,0,0,-.1,0,792)" d="M1500.2 6367.3H1545.2 1500.2V6805.5 6741.8L1235.4 6477 1203.6 6445.2 1235.4 6477 1345.1 6367.3" fill="#788fbd"/>
<path transform="matrix(.1,0,0,-.1,0,792)" stroke-width="9" stroke-linecap="butt" stroke-miterlimit="10" stroke-linejoin="miter" fill="none" stroke="#000000" d="M1500.2 6367.3H1545.2 1500.2V6805.5 6741.8L1235.4 6477 1203.6 6445.2 1235.4 6477 1345.1 6367.3Z"/>
<path transform="matrix(.1,0,0,-.1,0,792)" d="M1326.9 4145.6 1171.8 4300.7 1203.6 4332.6 1171.8 4300.7 1016.7 4145.6 1171.8 3990.5 1140 3958.7 1171.8 3990.5" fill="#f8c499"/>
<path transform="matrix(.1,0,0,-.1,0,792)" stroke-width="9" stroke-linecap="butt" stroke-miterlimit="10" stroke-linejoin="miter" fill="none" stroke="#000000" d="M1326.9 4145.6 1171.8 4300.7 1203.6 4332.6 1171.8 4300.7 1016.7 4145.6 1171.8 3990.5 1140 3958.7 1171.8 3990.5Z"/>
<path transform="matrix(.1,0,0,-.1,0,792)" d="M4623.1 4145.6 4778.2 3990.5 4746.4 3958.7 4778.2 3990.5 4933.3 4145.6 4778.2 4300.7 4810 4332.6 4778.2 4300.7" fill="#f8c499"/>
<path transform="matrix(.1,0,0,-.1,0,792)" stroke-width="9" stroke-linecap="butt" stroke-miterlimit="10" stroke-linejoin="miter" fill="none" stroke="#000000" d="M4623.1 4145.6 4778.2 3990.5 4746.4 3958.7 4778.2 3990.5 4933.3 4145.6 4778.2 4300.7 4810 4332.6 4778.2 4300.7Z"/>
<path transform="matrix(.1,0,0,-.1,0,792)" d="M1590.2 1923.9V1968.9 1459.4L1545.2 1504.4 1590.2 1459.4 1918.7 1131 2054.8 1267H2247.2V1222 1267 1459.4L2383.2 1595.5 2054.8 1923.9H2118.4 2054.8" fill="#f8c499"/>
<path transform="matrix(.1,0,0,-.1,0,792)" stroke-width="9" stroke-linecap="butt" stroke-miterlimit="10" stroke-linejoin="miter" fill="none" stroke="#000000" d="M1590.2 1923.9V1968.9 1459.4L1545.2 1504.4 1590.2 1459.4 1918.7 1131 2054.8 1267H2247.2V1222 1267 1459.4L2383.2 1595.5 2054.8 1923.9H2118.4 2054.8Z"/>
<path transform="matrix(.1,0,0,-.1,0,792)" d="M1500.2 1923.9V1968.9 1923.9H1345.1L1235.4 1814.3 1203.6 1782.4 1235.4 1814.3 1500.2 1549.4 1545.2 1504.4 1500.2 1549.4" fill="#788fbd"/>
<path transform="matrix(.1,0,0,-.1,0,792)" stroke-width="9" stroke-linecap="butt" stroke-miterlimit="10" stroke-linejoin="miter" fill="none" stroke="#000000" d="M1500.2 1923.9V1968.9 1923.9H1345.1L1235.4 1814.3 1203.6 1782.4 1235.4 1814.3 1500.2 1549.4 1545.2 1504.4 1500.2 1549.4Z"/>
<path transform="matrix(.1,0,0,-.1,0,792)" d="M3895.2 1923.9 3940.2 1968.9 3895.2 1923.9 3566.8 1595.5 3702.8 1459.4V1267H3657.8 3702.8 3895.2L4031.3 1131 4359.8 1459.4V1395.8 1459.4 1923.9H4404.8 4359.8" fill="#f8c499"/>
<path transform="matrix(.1,0,0,-.1,0,792)" stroke-width="9" stroke-linecap="butt" stroke-miterlimit="10" stroke-linejoin="miter" fill="none" stroke="#000000" d="M3895.2 1923.9 3940.2 1968.9 3895.2 1923.9 3566.8 1595.5 3702.8 1459.4V1267H3657.8 3702.8 3895.2L4031.3 1131 4359.8 1459.4V1395.8 1459.4 1923.9H4404.8 4359.8Z"/>
<path transform="matrix(.1,0,0,-.1,0,792)" d="M4449.8 1923.9H4404.8 4449.8V1485.8 1549.4L4714.6 1814.3 4746.4 1846.1 4714.6 1814.3 4604.9 1923.9" fill="#788fbd"/>
<path transform="matrix(.1,0,0,-.1,0,792)" stroke-width="9" stroke-linecap="butt" stroke-miterlimit="10" stroke-linejoin="miter" fill="none" stroke="#000000" d="M4449.8 1923.9H4404.8 4449.8V1485.8 1549.4L4714.6 1814.3 4746.4 1846.1 4714.6 1814.3 4604.9 1923.9Z"/>
<path transform="matrix(.1,0,0,-.1,0,792)" d="M4841.9 1814.3 4810 1782.4 4841.9 1814.3 5106.7 1549.4 5151.7 1504.4 5106.7 1549.4V1923.9 1968.9 1923.9H4951.6" fill="#788fbd"/>
<path transform="matrix(.1,0,0,-.1,0,792)" stroke-width="9" stroke-linecap="butt" stroke-miterlimit="10" stroke-linejoin="miter" fill="none" stroke="#000000" d="M4841.9 1814.3 4810 1782.4 4841.9 1814.3 5106.7 1549.4 5151.7 1504.4 5106.7 1549.4V1923.9 1968.9 1923.9H4951.6Z"/>
<path transform="matrix(.1,0,0,-.1,0,792)" d="M4778.2 1750.6 4810 1782.4 4778.2 1750.6 4449.8 1422.2V1485.8 1422.2 957.602H4642.2L4778.2 821.602 4746.4 789.801 4778.2 821.602 4914.3 957.602H5106.7V1422.2L5151.7 1377.2 5106.7 1422.2" fill="#f8c499"/>
<path transform="matrix(.1,0,0,-.1,0,792)" stroke-width="9" stroke-linecap="butt" stroke-miterlimit="10" stroke-linejoin="miter" fill="none" stroke="#000000" d="M4778.2 1750.6 4810 1782.4 4778.2 1750.6 4449.8 1422.2V1485.8 1422.2 957.602H4642.2L4778.2 821.602 4746.4 789.801 4778.2 821.602 4914.3 957.602H5106.7V1422.2L5151.7 1377.2 5106.7 1422.2Z"/>
<path transform="matrix(.1,0,0,-.1,0,792)" d="M4841.9 2870.6 4810 2838.7 4841.9 2870.6 4951.6 2760.9H5106.7 5151.7 5106.7V3135.4 3199 3135.4" fill="#788fbd"/>
<path transform="matrix(.1,0,0,-.1,0,792)" stroke-width="9" stroke-linecap="butt" stroke-miterlimit="10" stroke-linejoin="miter" fill="none" stroke="#000000" d="M4841.9 2870.6 4810 2838.7 4841.9 2870.6 4951.6 2760.9H5106.7 5151.7 5106.7V3135.4 3199 3135.4Z"/>
<path transform="matrix(.1,0,0,-.1,0,792)" d="M4841.9 3926.9 4810 3895 4841.9 3926.9 4951.6 3817.2H5196.7V3352.7 3289 3352.7L5525.1 3681.1 5698.5 3507.8H5853.6 5898.6 5853.6V3844.1L5552.1 4145.6 5853.6 4447.1V4783.5 4828.5 4783.5H5698.5L5525.1 4610.1 5196.7 4938.6 5151.7 4983.6 5196.7 4938.6V4474.1H4951.6L4841.9 4364.4 4810 4332.6 4841.9 4364.4 5060.6 4145.6" fill="#788fbd"/>
<path transform="matrix(.1,0,0,-.1,0,792)" stroke-width="9" stroke-linecap="butt" stroke-miterlimit="10" stroke-linejoin="miter" fill="none" stroke="#000000" d="M4841.9 3926.9 4810 3895 4841.9 3926.9 4951.6 3817.2H5196.7V3352.7 3289 3352.7L5525.1 3681.1 5698.5 3507.8H5853.6 5898.6 5853.6V3844.1L5552.1 4145.6 5853.6 4447.1V4783.5 4828.5 4783.5H5698.5L5525.1 4610.1 5196.7 4938.6 5151.7 4983.6 5196.7 4938.6V4474.1H4951.6L4841.9 4364.4 4810 4332.6 4841.9 4364.4 5060.6 4145.6Z"/>
<path transform="matrix(.1,0,0,-.1,0,792)" d="M4841.9 5420.7 4810 5388.9 4841.9 5420.7 5106.7 5155.9 5151.7 5110.9 5106.7 5155.9V5530.4 5575.4 5530.4H4951.6" fill="#788fbd"/>
<path transform="matrix(.1,0,0,-.1,0,792)" stroke-width="9" stroke-linecap="butt" stroke-miterlimit="10" stroke-linejoin="miter" fill="none" stroke="#000000" d="M4841.9 5420.7 4810 5388.9 4841.9 5420.7 5106.7 5155.9 5151.7 5110.9 5106.7 5155.9V5530.4 5575.4 5530.4H4951.6Z"/>
<path transform="matrix(.1,0,0,-.1,0,792)" d="M4778.2 6540.6 4746.4 6508.8 4778.2 6540.6 5106.7 6869.1V6805.5 6869.1 7333.6H4914.3L4778.2 7469.7 4810 7501.5 4778.2 7469.7 4642.2 7333.6H4449.8V6869.1L4404.8 6914.1 4449.8 6869.1" fill="#f8c499"/>
<path transform="matrix(.1,0,0,-.1,0,792)" stroke-width="9" stroke-linecap="butt" stroke-miterlimit="10" stroke-linejoin="miter" fill="none" stroke="#000000" d="M4778.2 6540.6 4746.4 6508.8 4778.2 6540.6 5106.7 6869.1V6805.5 6869.1 7333.6H4914.3L4778.2 7469.7 4810 7501.5 4778.2 7469.7 4642.2 7333.6H4449.8V6869.1L4404.8 6914.1 4449.8 6869.1Z"/>
<path transform="matrix(.1,0,0,-.1,0,792)" d="M4841.9 6477 4810 6445.2 4841.9 6477 4951.6 6367.3H5106.7 5151.7 5106.7V6741.8 6805.5 6741.8" fill="#788fbd"/>
<path transform="matrix(.1,0,0,-.1,0,792)" stroke-width="9" stroke-linecap="butt" stroke-miterlimit="10" stroke-linejoin="miter" fill="none" stroke="#000000" d="M4841.9 6477 4810 6445.2 4841.9 6477 4951.6 6367.3H5106.7 5151.7 5106.7V6741.8 6805.5 6741.8Z"/>
<path transform="matrix(.1,0,0,-.1,0,792)" d="M1108.1 6477 1140 6508.8 1108.1 6477 843.301 6741.8 798.301 6786.8 843.301 6741.8V6367.3 6322.3 6367.3H998.398" fill="#788fbd"/>
<path transform="matrix(.1,0,0,-.1,0,792)" stroke-width="9" stroke-linecap="butt" stroke-miterlimit="10" stroke-linejoin="miter" fill="none" stroke="#000000" d="M1108.1 6477 1140 6508.8 1108.1 6477 843.301 6741.8 798.301 6786.8 843.301 6741.8V6367.3 6322.3 6367.3H998.398Z"/>
<path transform="matrix(.1,0,0,-.1,0,792)" d="M1171.8 6540.6 1140 6508.8 1171.8 6540.6 1500.2 6869.1V6805.5 6869.1 7333.6H1307.8L1171.8 7469.7 1203.6 7501.5 1171.8 7469.7 1035.7 7333.6H843.301V6869.1L798.301 6914.1 843.301 6869.1" fill="#f8c499"/>
<path transform="matrix(.1,0,0,-.1,0,792)" stroke-width="9" stroke-linecap="butt" stroke-miterlimit="10" stroke-linejoin="miter" fill="none" stroke="#000000" d="M1171.8 6540.6 1140 6508.8 1171.8 6540.6 1500.2 6869.1V6805.5 6869.1 7333.6H1307.8L1171.8 7469.7 1203.6 7501.5 1171.8 7469.7 1035.7 7333.6H843.301V6869.1L798.301 6914.1 843.301 6869.1Z"/>
<path transform="matrix(.1,0,0,-.1,0,792)" d="M1108.1 5420.7 1140 5452.5 1108.1 5420.7 998.398 5530.4H843.301 798.301 843.301V5155.9 5092.2 5155.9" fill="#788fbd"/>
<path transform="matrix(.1,0,0,-.1,0,792)" stroke-width="9" stroke-linecap="butt" stroke-miterlimit="10" stroke-linejoin="miter" fill="none" stroke="#000000" d="M1108.1 5420.7 1140 5452.5 1108.1 5420.7 998.398 5530.4H843.301 798.301 843.301V5155.9 5092.2 5155.9Z"/>
<path transform="matrix(.1,0,0,-.1,0,792)" d="M1108.1 4364.4 1140 4396.2 1108.1 4364.4 998.398 4474.1H753.301V4938.6 5002.2 4938.6L424.898 4610.1 251.5 4783.5H96.3984 51.3984 96.3984V4447.1L397.898 4145.6 96.3984 3844.1V3507.8 3462.8 3507.8H251.5L424.898 3681.1 753.301 3352.7 798.301 3307.7 753.301 3352.7V3817.2H998.398L1108.1 3926.9 1140 3958.7 1108.1 3926.9 889.398 4145.6" fill="#788fbd"/>
<path transform="matrix(.1,0,0,-.1,0,792)" stroke-width="9" stroke-linecap="butt" stroke-miterlimit="10" stroke-linejoin="miter" fill="none" stroke="#000000" d="M1108.1 4364.4 1140 4396.2 1108.1 4364.4 998.398 4474.1H753.301V4938.6 5002.2 4938.6L424.898 4610.1 251.5 4783.5H96.3984 51.3984 96.3984V4447.1L397.898 4145.6 96.3984 3844.1V3507.8 3462.8 3507.8H251.5L424.898 3681.1 753.301 3352.7 798.301 3307.7 753.301 3352.7V3817.2H998.398L1108.1 3926.9 1140 3958.7 1108.1 3926.9 889.398 4145.6Z"/>
<path transform="matrix(.1,0,0,-.1,0,792)" d="M1108.1 2870.6 1140 2902.4 1108.1 2870.6 843.301 3135.4 798.301 3180.4 843.301 3135.4V2760.9 2715.9 2760.9H998.398" fill="#788fbd"/>
<path transform="matrix(.1,0,0,-.1,0,792)" stroke-width="9" stroke-linecap="butt" stroke-miterlimit="10" stroke-linejoin="miter" fill="none" stroke="#000000" d="M1108.1 2870.6 1140 2902.4 1108.1 2870.6 843.301 3135.4 798.301 3180.4 843.301 3135.4V2760.9 2715.9 2760.9H998.398Z"/>
<path transform="matrix(.1,0,0,-.1,0,792)" d="M1171.8 1750.6 1203.6 1782.4 1171.8 1750.6 843.301 1422.2V1485.8 1422.2 957.602H1035.7L1171.8 821.602 1140 789.801 1171.8 821.602 1307.8 957.602H1500.2V1422.2L1545.2 1377.2 1500.2 1422.2" fill="#f8c499"/>
<path transform="matrix(.1,0,0,-.1,0,792)" stroke-width="9" stroke-linecap="butt" stroke-miterlimit="10" stroke-linejoin="miter" fill="none" stroke="#000000" d="M1171.8 1750.6 1203.6 1782.4 1171.8 1750.6 843.301 1422.2V1485.8 1422.2 957.602H1035.7L1171.8 821.602 1140 789.801 1171.8 821.602 1307.8 957.602H1500.2V1422.2L1545.2 1377.2 1500.2 1422.2Z"/>
<path transform="matrix(.1,0,0,-.1,0,792)" d="M1108.1 1814.3 1140 1846.1 1108.1 1814.3 998.398 1923.9H843.301 798.301 843.301V1549.4 1485.8 1549.4" fill="#788fbd"/>
<path transform="matrix(.1,0,0,-.1,0,792)" stroke-width="9" stroke-linecap="butt" stroke-miterlimit="10" stroke-linejoin="miter" fill="none" stroke="#000000" d="M1108.1 1814.3 1140 1846.1 1108.1 1814.3 998.398 1923.9H843.301 798.301 843.301V1549.4 1485.8 1549.4Z"/>
<path transform="matrix(.1,0,0,-.1,0,792)" d="M2975 6850 3239.2 7114.2H3612.8V7069.2 7114.2 7487.9L3877 7752.1 3612.8 8016.3V8389.9H3657.8 3612.8 3239.2L2975 8654.1 2710.8 8389.9H2337.2V8434.9 8389.9 8016.3L2073 7752.1 2337.2 7487.9V7114.2H2292.2 2337.2 2710.8" fill="#f8c499"/>
<path transform="matrix(.1,0,0,-.1,0,792)" stroke-width="9" stroke-linecap="butt" stroke-miterlimit="10" stroke-linejoin="miter" fill="none" stroke="#000000" d="M2975 6850 3239.2 7114.2H3612.8V7069.2 7114.2 7487.9L3877 7752.1 3612.8 8016.3V8389.9H3657.8 3612.8 3239.2L2975 8654.1 2710.8 8389.9H2337.2V8434.9 8389.9 8016.3L2073 7752.1 2337.2 7487.9V7114.2H2292.2 2337.2 2710.8Z"/>
<path transform="matrix(.1,0,0,-.1,0,792)" d="M1590.2 6959.1V6895.5 6959.1L1918.7 7287.5 2092 7114.2H2247.2 2292.2 2247.2V7450.6L1945.7 7752.1 2247.2 8053.5V8389.9 8434.9 8389.9H2092L1918.7 8216.6 1590.2 8545 1545.2 8590 1590.2 8545V8080.5H1345.1L1235.4 7970.8 1203.6 7939 1235.4 7970.8 1454.2 7752.1 1235.4 7533.3 1203.6 7501.5 1235.4 7533.3 1345.1 7423.6H1590.2" fill="#788fbd"/>
<path transform="matrix(.1,0,0,-.1,0,792)" stroke-width="9" stroke-linecap="butt" stroke-miterlimit="10" stroke-linejoin="miter" fill="none" stroke="#000000" d="M1590.2 6959.1V6895.5 6959.1L1918.7 7287.5 2092 7114.2H2247.2 2292.2 2247.2V7450.6L1945.7 7752.1 2247.2 8053.5V8389.9 8434.9 8389.9H2092L1918.7 8216.6 1590.2 8545 1545.2 8590 1590.2 8545V8080.5H1345.1L1235.4 7970.8 1203.6 7939 1235.4 7970.8 1454.2 7752.1 1235.4 7533.3 1203.6 7501.5 1235.4 7533.3 1345.1 7423.6H1590.2Z"/>
<path transform="matrix(.1,0,0,-.1,0,792)" d="M4359.8 6959.1 4404.8 6914.1 4359.8 6959.1V7423.6H4604.9L4714.6 7533.3 4746.4 7565.1 4714.6 7533.3 4495.8 7752.1 4714.6 7970.8 4746.4 8002.6 4714.6 7970.8 4604.9 8080.5H4359.8V8545 8608.7 8545L4031.3 8216.6 3858 8389.9H3702.8 3657.8 3702.8V8053.5L4004.3 7752.1 3702.8 7450.6V7114.2 7069.2 7114.2H3858L4031.3 7287.5" fill="#788fbd"/>
<path transform="matrix(.1,0,0,-.1,0,792)" stroke-width="9" stroke-linecap="butt" stroke-miterlimit="10" stroke-linejoin="miter" fill="none" stroke="#000000" d="M4359.8 6959.1 4404.8 6914.1 4359.8 6959.1V7423.6H4604.9L4714.6 7533.3 4746.4 7565.1 4714.6 7533.3 4495.8 7752.1 4714.6 7970.8 4746.4 8002.6 4714.6 7970.8 4604.9 8080.5H4359.8V8545 8608.7 8545L4031.3 8216.6 3858 8389.9H3702.8 3657.8 3702.8V8053.5L4004.3 7752.1 3702.8 7450.6V7114.2 7069.2 7114.2H3858L4031.3 7287.5Z"/>
<path transform="matrix(.1,0,0,-.1,0,792)" d="M2975 1441.2 2710.8 1177H2337.2V1222 1177 803.398L2073 539.199 2337.2 275V-98.6992H2292.2 2337.2 2710.8L2975-362.898 3239.2-98.6992H3612.8V-143.699-98.6992 275L3877 539.199 3612.8 803.398V1177H3657.8 3612.8 3239.2" fill="#f8c499"/>
<path transform="matrix(.1,0,0,-.1,0,792)" stroke-width="9" stroke-linecap="butt" stroke-miterlimit="10" stroke-linejoin="miter" fill="none" stroke="#000000" d="M2975 1441.2 2710.8 1177H2337.2V1222 1177 803.398L2073 539.199 2337.2 275V-98.6992H2292.2 2337.2 2710.8L2975-362.898 3239.2-98.6992H3612.8V-143.699-98.6992 275L3877 539.199 3612.8 803.398V1177H3657.8 3612.8 3239.2Z"/>
<path transform="matrix(.1,0,0,-.1,0,792)" d="M4359.8 1332.2V1395.8 1332.2L4031.3 1003.7 3858 1177H3702.8 3657.8 3702.8V840.699L4004.3 539.199 3702.8 237.699V-98.6992-143.699-98.6992H3858L4031.3 74.6992 4359.8-253.801 4404.8-298.801 4359.8-253.801V210.699H4604.9L4714.6 320.398 4746.4 352.199 4714.6 320.398 4495.8 539.199 4714.6 757.898 4746.4 789.801 4714.6 757.898 4604.9 867.602H4359.8" fill="#788fbd"/>
<path transform="matrix(.1,0,0,-.1,0,792)" stroke-width="9" stroke-linecap="butt" stroke-miterlimit="10" stroke-linejoin="miter" fill="none" stroke="#000000" d="M4359.8 1332.2V1395.8 1332.2L4031.3 1003.7 3858 1177H3702.8 3657.8 3702.8V840.699L4004.3 539.199 3702.8 237.699V-98.6992-143.699-98.6992H3858L4031.3 74.6992 4359.8-253.801 4404.8-298.801 4359.8-253.801V210.699H4604.9L4714.6 320.398 4746.4 352.199 4714.6 320.398 4495.8 539.199 4714.6 757.898 4746.4 789.801 4714.6 757.898 4604.9 867.602H4359.8Z"/>
<path transform="matrix(.1,0,0,-.1,0,792)" d="M1590.2 1332.2 1545.2 1377.2 1590.2 1332.2V867.602H1345.1L1235.4 757.898 1203.6 726.102 1235.4 757.898 1454.2 539.199 1235.4 320.398 1203.6 288.602 1235.4 320.398 1345.1 210.699H1590.2V-253.801-317.398-253.801L1918.7 74.6992 2092-98.6992H2247.2 2292.2 2247.2V237.699L1945.7 539.199 2247.2 840.699V1177 1222 1177H2092L1918.7 1003.7" fill="#788fbd"/>
<path transform="matrix(.1,0,0,-.1,0,792)" stroke-width="9" stroke-linecap="butt" stroke-miterlimit="10" stroke-linejoin="miter" fill="none" stroke="#000000" d="M1590.2 1332.2 1545.2 1377.2 1590.2 1332.2V867.602H1345.1L1235.4 757.898 1203.6 726.102 1235.4 757.898 1454.2 539.199 1235.4 320.398 1203.6 288.602 1235.4 320.398 1345.1 210.699H1590.2V-253.801-317.398-253.801L1918.7 74.6992 2092-98.6992H2247.2 2292.2 2247.2V237.699L1945.7 539.199 2247.2 840.699V1177 1222 1177H2092L1918.7 1003.7Z"/>
<path transform="matrix(.1,0,0,-.1,0,792)" d="M5196.7 1459.4 5151.7 1504.4 5196.7 1459.4 5525.1 1131 5661.2 1267H5853.6V1222 1267 1459.4L5989.6 1595.5 5661.2 1923.9H5724.8 5661.2 5196.7V1968.9 1923.9" fill="#f8c499"/>
<path transform="matrix(.1,0,0,-.1,0,792)" stroke-width="9" stroke-linecap="butt" stroke-miterlimit="10" stroke-linejoin="miter" fill="none" stroke="#000000" d="M5196.7 1459.4 5151.7 1504.4 5196.7 1459.4 5525.1 1131 5661.2 1267H5853.6V1222 1267 1459.4L5989.6 1595.5 5661.2 1923.9H5724.8 5661.2 5196.7V1968.9 1923.9Z"/>
<path transform="matrix(.1,0,0,-.1,0,792)" d="M5196.7 1332.2 5151.7 1377.2 5196.7 1332.2V867.602H4951.6L4841.9 757.898 4810 726.102 4841.9 757.898 5060.6 539.199 4841.9 320.398 4810 288.602 4841.9 320.398 4951.6 210.699H5196.7V-253.801-317.398-253.801L5525.1 74.6992 5698.5-98.6992H5853.6 5898.6 5853.6V237.699L5552.1 539.199 5853.6 840.699V1177 1222 1177H5698.5L5525.1 1003.7" fill="#788fbd"/>
<path transform="matrix(.1,0,0,-.1,0,792)" stroke-width="9" stroke-linecap="butt" stroke-miterlimit="10" stroke-linejoin="miter" fill="none" stroke="#000000" d="M5196.7 1332.2 5151.7 1377.2 5196.7 1332.2V867.602H4951.6L4841.9 757.898 4810 726.102 4841.9 757.898 5060.6 539.199 4841.9 320.398 4810 288.602 4841.9 320.398 4951.6 210.699H5196.7V-253.801-317.398-253.801L5525.1 74.6992 5698.5-98.6992H5853.6 5898.6 5853.6V237.699L5552.1 539.199 5853.6 840.699V1177 1222 1177H5698.5L5525.1 1003.7Z"/>
<path transform="matrix(.1,0,0,-.1,0,792)" d="M5196.7 2013.9V1968.9 2013.9H5634.8 5571.2L5306.4 2278.8 5274.6 2310.6 5306.4 2278.8 5196.7 2169.1" fill="#788fbd"/>
<path transform="matrix(.1,0,0,-.1,0,792)" stroke-width="9" stroke-linecap="butt" stroke-miterlimit="10" stroke-linejoin="miter" fill="none" stroke="#000000" d="M5196.7 2013.9V1968.9 2013.9H5634.8 5571.2L5306.4 2278.8 5274.6 2310.6 5306.4 2278.8 5196.7 2169.1Z"/>
<path transform="matrix(.1,0,0,-.1,0,792)" d="M5196.7 2515.7 5306.4 2406 5338.2 2374.2 5306.4 2406 5571.2 2670.9 5616.2 2715.9 5571.2 2670.9H5196.7 5151.7 5196.7" fill="#788fbd"/>
<path transform="matrix(.1,0,0,-.1,0,792)" stroke-width="9" stroke-linecap="butt" stroke-miterlimit="10" stroke-linejoin="miter" fill="none" stroke="#000000" d="M5196.7 2515.7 5306.4 2406 5338.2 2374.2 5306.4 2406 5571.2 2670.9 5616.2 2715.9 5571.2 2670.9H5196.7 5151.7 5196.7Z"/>
<path transform="matrix(.1,0,0,-.1,0,792)" d="M5196.7 2760.9H5151.7 5661.2L5616.2 2715.9 5661.2 2760.9 5989.6 3089.3 5853.6 3225.4V3417.8H5898.6 5853.6 5661.2L5525.1 3553.8 5196.7 3225.4V3289 3225.4" fill="#f8c499"/>
<path transform="matrix(.1,0,0,-.1,0,792)" stroke-width="9" stroke-linecap="butt" stroke-miterlimit="10" stroke-linejoin="miter" fill="none" stroke="#000000" d="M5196.7 2760.9H5151.7 5661.2L5616.2 2715.9 5661.2 2760.9 5989.6 3089.3 5853.6 3225.4V3417.8H5898.6 5853.6 5661.2L5525.1 3553.8 5196.7 3225.4V3289 3225.4Z"/>
<path transform="matrix(.1,0,0,-.1,0,792)" d="M5196.7 5065.9 5151.7 5110.9 5196.7 5065.9 5525.1 4737.4 5661.2 4873.5H5853.6V4828.5 4873.5 5065.9L5989.6 5201.9 5661.2 5530.4H5724.8 5661.2 5196.7V5575.4 5530.4" fill="#f8c499"/>
<path transform="matrix(.1,0,0,-.1,0,792)" stroke-width="9" stroke-linecap="butt" stroke-miterlimit="10" stroke-linejoin="miter" fill="none" stroke="#000000" d="M5196.7 5065.9 5151.7 5110.9 5196.7 5065.9 5525.1 4737.4 5661.2 4873.5H5853.6V4828.5 4873.5 5065.9L5989.6 5201.9 5661.2 5530.4H5724.8 5661.2 5196.7V5575.4 5530.4Z"/>
<path transform="matrix(.1,0,0,-.1,0,792)" d="M5196.7 5620.4V5575.4 5620.4H5634.8 5571.2L5306.4 5885.2 5274.6 5917 5306.4 5885.2 5196.7 5775.5" fill="#788fbd"/>
<path transform="matrix(.1,0,0,-.1,0,792)" stroke-width="9" stroke-linecap="butt" stroke-miterlimit="10" stroke-linejoin="miter" fill="none" stroke="#000000" d="M5196.7 5620.4V5575.4 5620.4H5634.8 5571.2L5306.4 5885.2 5274.6 5917 5306.4 5885.2 5196.7 5775.5Z"/>
<path transform="matrix(.1,0,0,-.1,0,792)" d="M5196.7 6122.2 5306.4 6012.5 5338.2 5980.7 5306.4 6012.5 5571.2 6277.3 5616.2 6322.3 5571.2 6277.3H5196.7 5151.7 5196.7" fill="#788fbd"/>
<path transform="matrix(.1,0,0,-.1,0,792)" stroke-width="9" stroke-linecap="butt" stroke-miterlimit="10" stroke-linejoin="miter" fill="none" stroke="#000000" d="M5196.7 6122.2 5306.4 6012.5 5338.2 5980.7 5306.4 6012.5 5571.2 6277.3 5616.2 6322.3 5571.2 6277.3H5196.7 5151.7 5196.7Z"/>
<path transform="matrix(.1,0,0,-.1,0,792)" d="M5196.7 6367.3H5151.7 5661.2L5616.2 6322.3 5661.2 6367.3 5989.6 6695.8 5853.6 6831.8V7024.2H5898.6 5853.6 5661.2L5525.1 7160.3 5196.7 6831.8V6895.5 6831.8" fill="#f8c499"/>
<path transform="matrix(.1,0,0,-.1,0,792)" stroke-width="9" stroke-linecap="butt" stroke-miterlimit="10" stroke-linejoin="miter" fill="none" stroke="#000000" d="M5196.7 6367.3H5151.7 5661.2L5616.2 6322.3 5661.2 6367.3 5989.6 6695.8 5853.6 6831.8V7024.2H5898.6 5853.6 5661.2L5525.1 7160.3 5196.7 6831.8V6895.5 6831.8Z"/>
<path transform="matrix(.1,0,0,-.1,0,792)" d="M5196.7 6959.1V6895.5 6959.1L5525.1 7287.5 5698.5 7114.2H5853.6 5898.6 5853.6V7450.6L5552.1 7752.1 5853.6 8053.5V8389.9 8434.9 8389.9H5698.5L5525.1 8216.6 5196.7 8545 5151.7 8590 5196.7 8545V8080.5H4951.6L4841.9 7970.8 4810 7939 4841.9 7970.8 5060.6 7752.1 4841.9 7533.3 4810 7501.5 4841.9 7533.3 4951.6 7423.6H5196.7" fill="#788fbd"/>
<path transform="matrix(.1,0,0,-.1,0,792)" stroke-width="9" stroke-linecap="butt" stroke-miterlimit="10" stroke-linejoin="miter" fill="none" stroke="#000000" d="M5196.7 6959.1V6895.5 6959.1L5525.1 7287.5 5698.5 7114.2H5853.6 5898.6 5853.6V7450.6L5552.1 7752.1 5853.6 8053.5V8389.9 8434.9 8389.9H5698.5L5525.1 8216.6 5196.7 8545 5151.7 8590 5196.7 8545V8080.5H4951.6L4841.9 7970.8 4810 7939 4841.9 7970.8 5060.6 7752.1 4841.9 7533.3 4810 7501.5 4841.9 7533.3 4951.6 7423.6H5196.7Z"/>
<path transform="matrix(.1,0,0,-.1,0,792)" d="M753.301 6831.8 798.301 6786.8 753.301 6831.8 424.898 7160.3 288.801 7024.2H96.3984V7069.2 7024.2 6831.8L-39.6016 6695.8 288.801 6367.3H225.199 288.801 753.301V6322.3 6367.3" fill="#f8c499"/>
<path transform="matrix(.1,0,0,-.1,0,792)" stroke-width="9" stroke-linecap="butt" stroke-miterlimit="10" stroke-linejoin="miter" fill="none" stroke="#000000" d="M753.301 6831.8 798.301 6786.8 753.301 6831.8 424.898 7160.3 288.801 7024.2H96.3984V7069.2 7024.2 6831.8L-39.6016 6695.8 288.801 6367.3H225.199 288.801 753.301V6322.3 6367.3Z"/>
<path transform="matrix(.1,0,0,-.1,0,792)" d="M753.301 6959.1 798.301 6914.1 753.301 6959.1V7423.6H998.398L1108.1 7533.3 1140 7565.1 1108.1 7533.3 889.398 7752.1 1108.1 7970.8 1140 8002.6 1108.1 7970.8 998.398 8080.5H753.301V8545 8608.7 8545L424.898 8216.6 251.5 8389.9H96.3984 51.3984 96.3984V8053.5L397.898 7752.1 96.3984 7450.6V7114.2 7069.2 7114.2H251.5L424.898 7287.5" fill="#788fbd"/>
<path transform="matrix(.1,0,0,-.1,0,792)" stroke-width="9" stroke-linecap="butt" stroke-miterlimit="10" stroke-linejoin="miter" fill="none" stroke="#000000" d="M753.301 6959.1 798.301 6914.1 753.301 6959.1V7423.6H998.398L1108.1 7533.3 1140 7565.1 1108.1 7533.3 889.398 7752.1 1108.1 7970.8 1140 8002.6 1108.1 7970.8 998.398 8080.5H753.301V8545 8608.7 8545L424.898 8216.6 251.5 8389.9H96.3984 51.3984 96.3984V8053.5L397.898 7752.1 96.3984 7450.6V7114.2 7069.2 7114.2H251.5L424.898 7287.5Z"/>
<path transform="matrix(.1,0,0,-.1,0,792)" d="M753.301 6277.3V6322.3 6277.3H315.199 378.801L643.602 6012.5 675.398 5980.7 643.602 6012.5 753.301 6122.2" fill="#788fbd"/>
<path transform="matrix(.1,0,0,-.1,0,792)" stroke-width="9" stroke-linecap="butt" stroke-miterlimit="10" stroke-linejoin="miter" fill="none" stroke="#000000" d="M753.301 6277.3V6322.3 6277.3H315.199 378.801L643.602 6012.5 675.398 5980.7 643.602 6012.5 753.301 6122.2Z"/>
<path transform="matrix(.1,0,0,-.1,0,792)" d="M753.301 5775.5 643.602 5885.2 611.801 5917 643.602 5885.2 378.801 5620.4 333.801 5575.4 378.801 5620.4H753.301 798.301 753.301" fill="#788fbd"/>
<path transform="matrix(.1,0,0,-.1,0,792)" stroke-width="9" stroke-linecap="butt" stroke-miterlimit="10" stroke-linejoin="miter" fill="none" stroke="#000000" d="M753.301 5775.5 643.602 5885.2 611.801 5917 643.602 5885.2 378.801 5620.4 333.801 5575.4 378.801 5620.4H753.301 798.301 753.301Z"/>
<path transform="matrix(.1,0,0,-.1,0,792)" d="M753.301 5530.4H798.301 288.801L333.801 5575.4 288.801 5530.4-39.6016 5201.9 96.3984 5065.9V4873.5H51.3984 96.3984 288.801L424.898 4737.4 753.301 5065.9V5002.2 5065.9" fill="#f8c499"/>
<path transform="matrix(.1,0,0,-.1,0,792)" stroke-width="9" stroke-linecap="butt" stroke-miterlimit="10" stroke-linejoin="miter" fill="none" stroke="#000000" d="M753.301 5530.4H798.301 288.801L333.801 5575.4 288.801 5530.4-39.6016 5201.9 96.3984 5065.9V4873.5H51.3984 96.3984 288.801L424.898 4737.4 753.301 5065.9V5002.2 5065.9Z"/>
<path transform="matrix(.1,0,0,-.1,0,792)" d="M753.301 3225.4 798.301 3180.4 753.301 3225.4 424.898 3553.8 288.801 3417.8H96.3984V3462.8 3417.8 3225.4L-39.6016 3089.3 288.801 2760.9H225.199 288.801 753.301V2715.9 2760.9" fill="#f8c499"/>
<path transform="matrix(.1,0,0,-.1,0,792)" stroke-width="9" stroke-linecap="butt" stroke-miterlimit="10" stroke-linejoin="miter" fill="none" stroke="#000000" d="M753.301 3225.4 798.301 3180.4 753.301 3225.4 424.898 3553.8 288.801 3417.8H96.3984V3462.8 3417.8 3225.4L-39.6016 3089.3 288.801 2760.9H225.199 288.801 753.301V2715.9 2760.9Z"/>
<path transform="matrix(.1,0,0,-.1,0,792)" d="M753.301 2670.9V2715.9 2670.9H315.199 378.801L643.602 2406 675.398 2374.2 643.602 2406 753.301 2515.7" fill="#788fbd"/>
<path transform="matrix(.1,0,0,-.1,0,792)" stroke-width="9" stroke-linecap="butt" stroke-miterlimit="10" stroke-linejoin="miter" fill="none" stroke="#000000" d="M753.301 2670.9V2715.9 2670.9H315.199 378.801L643.602 2406 675.398 2374.2 643.602 2406 753.301 2515.7Z"/>
<path transform="matrix(.1,0,0,-.1,0,792)" d="M753.301 2169.1 643.602 2278.8 611.801 2310.6 643.602 2278.8 378.801 2013.9 333.801 1968.9 378.801 2013.9H753.301 798.301 753.301" fill="#788fbd"/>
<path transform="matrix(.1,0,0,-.1,0,792)" stroke-width="9" stroke-linecap="butt" stroke-miterlimit="10" stroke-linejoin="miter" fill="none" stroke="#000000" d="M753.301 2169.1 643.602 2278.8 611.801 2310.6 643.602 2278.8 378.801 2013.9 333.801 1968.9 378.801 2013.9H753.301 798.301 753.301Z"/>
<path transform="matrix(.1,0,0,-.1,0,792)" d="M753.301 1923.9H798.301 288.801L333.801 1968.9 288.801 1923.9-39.6016 1595.5 96.3984 1459.4V1267H51.3984 96.3984 288.801L424.898 1131 753.301 1459.4V1395.8 1459.4" fill="#f8c499"/>
<path transform="matrix(.1,0,0,-.1,0,792)" stroke-width="9" stroke-linecap="butt" stroke-miterlimit="10" stroke-linejoin="miter" fill="none" stroke="#000000" d="M753.301 1923.9H798.301 288.801L333.801 1968.9 288.801 1923.9-39.6016 1595.5 96.3984 1459.4V1267H51.3984 96.3984 288.801L424.898 1131 753.301 1459.4V1395.8 1459.4Z"/>
<path transform="matrix(.1,0,0,-.1,0,792)" d="M753.301 1332.2V1395.8 1332.2L424.898 1003.7 251.5 1177H96.3984 51.3984 96.3984V840.699L397.898 539.199 96.3984 237.699V-98.6992-143.699-98.6992H251.5L424.898 74.6992 753.301-253.801 798.301-298.801 753.301-253.801V210.699H998.398L1108.1 320.398 1140 352.199 1108.1 320.398 889.398 539.199 1108.1 757.898 1140 789.801 1108.1 757.898 998.398 867.602H753.301" fill="#788fbd"/>
<path transform="matrix(.1,0,0,-.1,0,792)" stroke-width="9" stroke-linecap="butt" stroke-miterlimit="10" stroke-linejoin="miter" fill="none" stroke="#000000" d="M753.301 1332.2V1395.8 1332.2L424.898 1003.7 251.5 1177H96.3984 51.3984 96.3984V840.699L397.898 539.199 96.3984 237.699V-98.6992-143.699-98.6992H251.5L424.898 74.6992 753.301-253.801 798.301-298.801 753.301-253.801V210.699H998.398L1108.1 320.398 1140 352.199 1108.1 320.398 889.398 539.199 1108.1 757.898 1140 789.801 1108.1 757.898 998.398 867.602H753.301Z"/>
<path transform="matrix(.1,0,0,-.1,0,792)" d="M5370 2342.4 5338.2 2374.2 5370 2342.4 5698.5 2013.9H5634.8 5698.5 6163V2206.3L6299 2342.4 6330.9 2310.6 6299 2342.4 6163 2478.5V2670.9H5698.5L5743.5 2715.9 5698.5 2670.9" fill="#f8c499"/>
<path transform="matrix(.1,0,0,-.1,0,792)" stroke-width="9" stroke-linecap="butt" stroke-miterlimit="10" stroke-linejoin="miter" fill="none" stroke="#000000" d="M5370 2342.4 5338.2 2374.2 5370 2342.4 5698.5 2013.9H5634.8 5698.5 6163V2206.3L6299 2342.4 6330.9 2310.6 6299 2342.4 6163 2478.5V2670.9H5698.5L5743.5 2715.9 5698.5 2670.9Z"/>
<path transform="matrix(.1,0,0,-.1,0,792)" d="M5370 5948.8 5338.2 5980.7 5370 5948.8 5698.5 5620.4H5634.8 5698.5 6163V5812.8L6299 5948.8 6330.9 5917 6299 5948.8 6163 6084.9V6277.3H5698.5L5743.5 6322.3 5698.5 6277.3" fill="#f8c499"/>
<path transform="matrix(.1,0,0,-.1,0,792)" stroke-width="9" stroke-linecap="butt" stroke-miterlimit="10" stroke-linejoin="miter" fill="none" stroke="#000000" d="M5370 5948.8 5338.2 5980.7 5370 5948.8 5698.5 5620.4H5634.8 5698.5 6163V5812.8L6299 5948.8 6330.9 5917 6299 5948.8 6163 6084.9V6277.3H5698.5L5743.5 6322.3 5698.5 6277.3Z"/>
<path transform="matrix(.1,0,0,-.1,0,792)" d="M580 5948.8 611.801 5917 580 5948.8 251.5 6277.3H315.199 251.5-213V6084.9L-349 5948.8-380.898 5980.7-349 5948.8-213 5812.8V5620.4H251.5L206.5 5575.4 251.5 5620.4" fill="#f8c499"/>
<path transform="matrix(.1,0,0,-.1,0,792)" stroke-width="9" stroke-linecap="butt" stroke-miterlimit="10" stroke-linejoin="miter" fill="none" stroke="#000000" d="M580 5948.8 611.801 5917 580 5948.8 251.5 6277.3H315.199 251.5-213V6084.9L-349 5948.8-380.898 5980.7-349 5948.8-213 5812.8V5620.4H251.5L206.5 5575.4 251.5 5620.4Z"/>
<path transform="matrix(.1,0,0,-.1,0,792)" d="M580 2342.4 611.801 2310.6 580 2342.4 251.5 2670.9H315.199 251.5-213V2478.5L-349 2342.4-380.898 2374.2-349 2342.4-213 2206.3V2013.9H251.5L206.5 1968.9 251.5 2013.9" fill="#f8c499"/>
<path transform="matrix(.1,0,0,-.1,0,792)" stroke-width="9" stroke-linecap="butt" stroke-miterlimit="10" stroke-linejoin="miter" fill="none" stroke="#000000" d="M580 2342.4 611.801 2310.6 580 2342.4 251.5 2670.9H315.199 251.5-213V2478.5L-349 2342.4-380.898 2374.2-349 2342.4-213 2206.3V2013.9H251.5L206.5 1968.9 251.5 2013.9Z"/>
<path transform="matrix(.1,0,0,-.1,0,792)" d="M4778.2 7596.9 4746.4 7565.1 4778.2 7596.9 4933.3 7752.1 4778.2 7907.2 4810 7939 4778.2 7907.2 4623.1 7752.1" fill="#f8c499"/>
<path transform="matrix(.1,0,0,-.1,0,792)" stroke-width="9" stroke-linecap="butt" stroke-miterlimit="10" stroke-linejoin="miter" fill="none" stroke="#000000" d="M4778.2 7596.9 4746.4 7565.1 4778.2 7596.9 4933.3 7752.1 4778.2 7907.2 4810 7939 4778.2 7907.2 4623.1 7752.1Z"/>
<path transform="matrix(.1,0,0,-.1,0,792)" d="M1171.8 7596.9 1140 7565.1 1171.8 7596.9 1326.9 7752.1 1171.8 7907.2 1203.6 7939 1171.8 7907.2 1016.7 7752.1" fill="#f8c499"/>
<path transform="matrix(.1,0,0,-.1,0,792)" stroke-width="9" stroke-linecap="butt" stroke-miterlimit="10" stroke-linejoin="miter" fill="none" stroke="#000000" d="M1171.8 7596.9 1140 7565.1 1171.8 7596.9 1326.9 7752.1 1171.8 7907.2 1203.6 7939 1171.8 7907.2 1016.7 7752.1Z"/>
<path transform="matrix(.1,0,0,-.1,0,792)" d="M1171.8 694.301 1203.6 726.102 1171.8 694.301 1016.7 539.199 1171.8 384.102 1140 352.199 1171.8 384.102 1326.9 539.199" fill="#f8c499"/>
<path transform="matrix(.1,0,0,-.1,0,792)" stroke-width="9" stroke-linecap="butt" stroke-miterlimit="10" stroke-linejoin="miter" fill="none" stroke="#000000" d="M1171.8 694.301 1203.6 726.102 1171.8 694.301 1016.7 539.199 1171.8 384.102 1140 352.199 1171.8 384.102 1326.9 539.199Z"/>
<path transform="matrix(.1,0,0,-.1,0,792)" d="M4778.2 694.301 4810 726.102 4778.2 694.301 4623.1 539.199 4778.2 384.102 4746.4 352.199 4778.2 384.102 4933.3 539.199" fill="#f8c499"/>
<path transform="matrix(.1,0,0,-.1,0,792)" stroke-width="9" stroke-linecap="butt" stroke-miterlimit="10" stroke-linejoin="miter" fill="none" stroke="#000000" d="M4778.2 694.301 4810 726.102 4778.2 694.301 4623.1 539.199 4778.2 384.102 4746.4 352.199 4778.2 384.102 4933.3 539.199Z"/>
<path transform="matrix(.1,0,0,-.1,0,792)" d="M5679.4 4145.6 5943.6 3881.4V3507.8H5898.6 5943.6 6317.2L6581.4 3243.6 6845.6 3507.8H7219.3V3462.8 3507.8 3881.4L7483.5 4145.6 7219.3 4409.8V4783.5H7264.3 7219.3 6845.6L6581.4 5047.7 6317.2 4783.5H5943.6V4828.5 4783.5 4409.8" fill="#f8c499"/>
<path transform="matrix(.1,0,0,-.1,0,792)" stroke-width="9" stroke-linecap="butt" stroke-miterlimit="10" stroke-linejoin="miter" fill="none" stroke="#000000" d="M5679.4 4145.6 5943.6 3881.4V3507.8H5898.6 5943.6 6317.2L6581.4 3243.6 6845.6 3507.8H7219.3V3462.8 3507.8 3881.4L7483.5 4145.6 7219.3 4409.8V4783.5H7264.3 7219.3 6845.6L6581.4 5047.7 6317.2 4783.5H5943.6V4828.5 4783.5 4409.8Z"/>
<path transform="matrix(.1,0,0,-.1,0,792)" d="M5679.4 7752.1 5943.6 7487.9V7114.2H5898.6 5943.6 6317.2L6581.4 6850 6845.6 7114.2H7219.3V7069.2 7114.2 7487.9L7483.5 7752.1 7219.3 8016.3V8389.9H7264.3 7219.3 6845.6L6581.4 8654.1 6317.2 8389.9H5943.6V8434.9 8389.9 8016.3" fill="#f8c499"/>
<path transform="matrix(.1,0,0,-.1,0,792)" stroke-width="9" stroke-linecap="butt" stroke-miterlimit="10" stroke-linejoin="miter" fill="none" stroke="#000000" d="M5679.4 7752.1 5943.6 7487.9V7114.2H5898.6 5943.6 6317.2L6581.4 6850 6845.6 7114.2H7219.3V7069.2 7114.2 7487.9L7483.5 7752.1 7219.3 8016.3V8389.9H7264.3 7219.3 6845.6L6581.4 8654.1 6317.2 8389.9H5943.6V8434.9 8389.9 8016.3Z"/>
<path transform="matrix(.1,0,0,-.1,0,792)" d="M270.602 7752.1 6.39844 8016.3V8389.9H51.3984 6.39844-367.199L-631.398 8654.1-895.602 8389.9H-1269.3V8434.9 8389.9 8016.3L-1533.5 7752.1-1269.3 7487.9V7114.2H-1314.3-1269.3-895.602L-631.398 6850-367.199 7114.2H6.39844V7069.2 7114.2 7487.9" fill="#f8c499"/>
<path transform="matrix(.1,0,0,-.1,0,792)" stroke-width="9" stroke-linecap="butt" stroke-miterlimit="10" stroke-linejoin="miter" fill="none" stroke="#000000" d="M270.602 7752.1 6.39844 8016.3V8389.9H51.3984 6.39844-367.199L-631.398 8654.1-895.602 8389.9H-1269.3V8434.9 8389.9 8016.3L-1533.5 7752.1-1269.3 7487.9V7114.2H-1314.3-1269.3-895.602L-631.398 6850-367.199 7114.2H6.39844V7069.2 7114.2 7487.9Z"/>
<path transform="matrix(.1,0,0,-.1,0,792)" d="M270.602 4145.6 6.39844 4409.8V4783.5H51.3984 6.39844-367.199L-631.398 5047.7-895.602 4783.5H-1269.3V4828.5 4783.5 4409.8L-1533.5 4145.6-1269.3 3881.4V3507.8H-1314.3-1269.3-895.602L-631.398 3243.6-367.199 3507.8H6.39844V3462.8 3507.8 3881.4" fill="#f8c499"/>
<path transform="matrix(.1,0,0,-.1,0,792)" stroke-width="9" stroke-linecap="butt" stroke-miterlimit="10" stroke-linejoin="miter" fill="none" stroke="#000000" d="M270.602 4145.6 6.39844 4409.8V4783.5H51.3984 6.39844-367.199L-631.398 5047.7-895.602 4783.5H-1269.3V4828.5 4783.5 4409.8L-1533.5 4145.6-1269.3 3881.4V3507.8H-1314.3-1269.3-895.602L-631.398 3243.6-367.199 3507.8H6.39844V3462.8 3507.8 3881.4Z"/>
<path transform="matrix(.1,0,0,-.1,0,792)" d="M270.602 539.199 6.39844 803.398V1177H51.3984 6.39844-367.199L-631.398 1441.2-895.602 1177H-1269.3V1222 1177 803.398L-1533.5 539.199-1269.3 275V-98.6992H-1314.3-1269.3-895.602L-631.398-362.898-367.199-98.6992H6.39844V-143.699-98.6992 275" fill="#f8c499"/>
<path transform="matrix(.1,0,0,-.1,0,792)" stroke-width="9" stroke-linecap="butt" stroke-miterlimit="10" stroke-linejoin="miter" fill="none" stroke="#000000" d="M270.602 539.199 6.39844 803.398V1177H51.3984 6.39844-367.199L-631.398 1441.2-895.602 1177H-1269.3V1222 1177 803.398L-1533.5 539.199-1269.3 275V-98.6992H-1314.3-1269.3-895.602L-631.398-362.898-367.199-98.6992H6.39844V-143.699-98.6992 275Z"/>
<path transform="matrix(.1,0,0,-.1,0,792)" d="M5679.4 539.199 5943.6 275V-98.6992H5898.6 5943.6 6317.2L6581.4-362.898 6845.6-98.6992H7219.3V-143.699-98.6992 275L7483.5 539.199 7219.3 803.398V1177H7264.3 7219.3 6845.6L6581.4 1441.2 6317.2 1177H5943.6V1222 1177 803.398" fill="#f8c499"/>
<path transform="matrix(.1,0,0,-.1,0,792)" stroke-width="9" stroke-linecap="butt" stroke-miterlimit="10" stroke-linejoin="miter" fill="none" stroke="#000000" d="M5679.4 539.199 5943.6 275V-98.6992H5898.6 5943.6 6317.2L6581.4-362.898 6845.6-98.6992H7219.3V-143.699-98.6992 275L7483.5 539.199 7219.3 803.398V1177H7264.3 7219.3 6845.6L6581.4 1441.2 6317.2 1177H5943.6V1222 1177 803.398Z"/>
<path transform="matrix(.1,0,0,-.1,0,792)" d="M5788.5 1923.9H5724.8 5788.5L6116.9 1595.5 5943.6 1422.2V1267 1222 1267H6280L6581.4 1568.5 6882.9 1267H7219.3 7264.3 7219.3V1422.2L7046 1595.5 7374.4 1923.9 7419.4 1968.9 7374.4 1923.9H6909.9V2169.1L6800.2 2278.8 6768.4 2310.6 6800.2 2278.8 6581.4 2060 6362.7 2278.8 6330.9 2310.6 6362.7 2278.8 6253 2169.1V1923.9" fill="#788fbd"/>
<path transform="matrix(.1,0,0,-.1,0,792)" stroke-width="9" stroke-linecap="butt" stroke-miterlimit="10" stroke-linejoin="miter" fill="none" stroke="#000000" d="M5788.5 1923.9H5724.8 5788.5L6116.9 1595.5 5943.6 1422.2V1267 1222 1267H6280L6581.4 1568.5 6882.9 1267H7219.3 7264.3 7219.3V1422.2L7046 1595.5 7374.4 1923.9 7419.4 1968.9 7374.4 1923.9H6909.9V2169.1L6800.2 2278.8 6768.4 2310.6 6800.2 2278.8 6581.4 2060 6362.7 2278.8 6330.9 2310.6 6362.7 2278.8 6253 2169.1V1923.9Z"/>
<path transform="matrix(.1,0,0,-.1,0,792)" d="M5788.5 2760.9 5743.5 2715.9 5788.5 2760.9H6253V2515.7L6362.7 2406 6394.5 2374.2 6362.7 2406 6581.4 2624.8 6800.2 2406 6832 2374.2 6800.2 2406 6909.9 2515.7V2760.9H7374.4 7438 7374.4L7046 3089.3 7219.3 3262.7V3417.8 3462.8 3417.8H6882.9L6581.4 3116.3 6280 3417.8H5943.6 5898.6 5943.6V3262.7L6116.9 3089.3" fill="#788fbd"/>
<path transform="matrix(.1,0,0,-.1,0,792)" stroke-width="9" stroke-linecap="butt" stroke-miterlimit="10" stroke-linejoin="miter" fill="none" stroke="#000000" d="M5788.5 2760.9 5743.5 2715.9 5788.5 2760.9H6253V2515.7L6362.7 2406 6394.5 2374.2 6362.7 2406 6581.4 2624.8 6800.2 2406 6832 2374.2 6800.2 2406 6909.9 2515.7V2760.9H7374.4 7438 7374.4L7046 3089.3 7219.3 3262.7V3417.8 3462.8 3417.8H6882.9L6581.4 3116.3 6280 3417.8H5943.6 5898.6 5943.6V3262.7L6116.9 3089.3Z"/>
<path transform="matrix(.1,0,0,-.1,0,792)" d="M5788.5 5530.4H5724.8 5788.5L6116.9 5201.9 5943.6 5028.6V4873.5 4828.5 4873.5H6280L6581.4 5174.9 6882.9 4873.5H7219.3 7264.3 7219.3V5028.6L7046 5201.9 7374.4 5530.4 7419.4 5575.4 7374.4 5530.4H6909.9V5775.5L6800.2 5885.2 6768.4 5917 6800.2 5885.2 6581.4 5666.4 6362.7 5885.2 6330.9 5917 6362.7 5885.2 6253 5775.5V5530.4" fill="#788fbd"/>
<path transform="matrix(.1,0,0,-.1,0,792)" stroke-width="9" stroke-linecap="butt" stroke-miterlimit="10" stroke-linejoin="miter" fill="none" stroke="#000000" d="M5788.5 5530.4H5724.8 5788.5L6116.9 5201.9 5943.6 5028.6V4873.5 4828.5 4873.5H6280L6581.4 5174.9 6882.9 4873.5H7219.3 7264.3 7219.3V5028.6L7046 5201.9 7374.4 5530.4 7419.4 5575.4 7374.4 5530.4H6909.9V5775.5L6800.2 5885.2 6768.4 5917 6800.2 5885.2 6581.4 5666.4 6362.7 5885.2 6330.9 5917 6362.7 5885.2 6253 5775.5V5530.4Z"/>
<path transform="matrix(.1,0,0,-.1,0,792)" d="M5788.5 6367.3 5743.5 6322.3 5788.5 6367.3H6253V6122.2L6362.7 6012.5 6394.5 5980.7 6362.7 6012.5 6581.4 6231.2 6800.2 6012.5 6832 5980.7 6800.2 6012.5 6909.9 6122.2V6367.3H7374.4 7438 7374.4L7046 6695.8 7219.3 6869.1V7024.2 7069.2 7024.2H6882.9L6581.4 6722.7 6280 7024.2H5943.6 5898.6 5943.6V6869.1L6116.9 6695.8" fill="#788fbd"/>
<path transform="matrix(.1,0,0,-.1,0,792)" stroke-width="9" stroke-linecap="butt" stroke-miterlimit="10" stroke-linejoin="miter" fill="none" stroke="#000000" d="M5788.5 6367.3 5743.5 6322.3 5788.5 6367.3H6253V6122.2L6362.7 6012.5 6394.5 5980.7 6362.7 6012.5 6581.4 6231.2 6800.2 6012.5 6832 5980.7 6800.2 6012.5 6909.9 6122.2V6367.3H7374.4 7438 7374.4L7046 6695.8 7219.3 6869.1V7024.2 7069.2 7024.2H6882.9L6581.4 6722.7 6280 7024.2H5943.6 5898.6 5943.6V6869.1L6116.9 6695.8Z"/>
<path transform="matrix(.1,0,0,-.1,0,792)" d="M161.5 6367.3H225.199 161.5L-166.898 6695.8 6.39844 6869.1V7024.2 7069.2 7024.2H-330L-631.398 6722.7-932.898 7024.2H-1269.3-1314.3-1269.3V6869.1L-1096 6695.8-1424.4 6367.3-1469.4 6322.3-1424.4 6367.3H-959.898V6122.2L-850.199 6012.5-818.398 5980.7-850.199 6012.5-631.398 6231.2-412.699 6012.5-380.898 5980.7-412.699 6012.5-303 6122.2V6367.3" fill="#788fbd"/>
<path transform="matrix(.1,0,0,-.1,0,792)" stroke-width="9" stroke-linecap="butt" stroke-miterlimit="10" stroke-linejoin="miter" fill="none" stroke="#000000" d="M161.5 6367.3H225.199 161.5L-166.898 6695.8 6.39844 6869.1V7024.2 7069.2 7024.2H-330L-631.398 6722.7-932.898 7024.2H-1269.3-1314.3-1269.3V6869.1L-1096 6695.8-1424.4 6367.3-1469.4 6322.3-1424.4 6367.3H-959.898V6122.2L-850.199 6012.5-818.398 5980.7-850.199 6012.5-631.398 6231.2-412.699 6012.5-380.898 5980.7-412.699 6012.5-303 6122.2V6367.3Z"/>
<path transform="matrix(.1,0,0,-.1,0,792)" d="M161.5 5530.4 206.5 5575.4 161.5 5530.4H-303V5775.5L-412.699 5885.2-444.5 5917-412.699 5885.2-631.398 5666.4-850.199 5885.2-882 5917-850.199 5885.2-959.898 5775.5V5530.4H-1424.4-1488-1424.4L-1096 5201.9-1269.3 5028.6V4873.5 4828.5 4873.5H-932.898L-631.398 5174.9-330 4873.5H6.39844 51.3984 6.39844V5028.6L-166.898 5201.9" fill="#788fbd"/>
<path transform="matrix(.1,0,0,-.1,0,792)" stroke-width="9" stroke-linecap="butt" stroke-miterlimit="10" stroke-linejoin="miter" fill="none" stroke="#000000" d="M161.5 5530.4 206.5 5575.4 161.5 5530.4H-303V5775.5L-412.699 5885.2-444.5 5917-412.699 5885.2-631.398 5666.4-850.199 5885.2-882 5917-850.199 5885.2-959.898 5775.5V5530.4H-1424.4-1488-1424.4L-1096 5201.9-1269.3 5028.6V4873.5 4828.5 4873.5H-932.898L-631.398 5174.9-330 4873.5H6.39844 51.3984 6.39844V5028.6L-166.898 5201.9Z"/>
<path transform="matrix(.1,0,0,-.1,0,792)" d="M161.5 2760.9H225.199 161.5L-166.898 3089.3 6.39844 3262.7V3417.8 3462.8 3417.8H-330L-631.398 3116.3-932.898 3417.8H-1269.3-1314.3-1269.3V3262.7L-1096 3089.3-1424.4 2760.9-1469.4 2715.9-1424.4 2760.9H-959.898V2515.7L-850.199 2406-818.398 2374.2-850.199 2406-631.398 2624.8-412.699 2406-380.898 2374.2-412.699 2406-303 2515.7V2760.9" fill="#788fbd"/>
<path transform="matrix(.1,0,0,-.1,0,792)" stroke-width="9" stroke-linecap="butt" stroke-miterlimit="10" stroke-linejoin="miter" fill="none" stroke="#000000" d="M161.5 2760.9H225.199 161.5L-166.898 3089.3 6.39844 3262.7V3417.8 3462.8 3417.8H-330L-631.398 3116.3-932.898 3417.8H-1269.3-1314.3-1269.3V3262.7L-1096 3089.3-1424.4 2760.9-1469.4 2715.9-1424.4 2760.9H-959.898V2515.7L-850.199 2406-818.398 2374.2-850.199 2406-631.398 2624.8-412.699 2406-380.898 2374.2-412.699 2406-303 2515.7V2760.9Z"/>
<path transform="matrix(.1,0,0,-.1,0,792)" d="M161.5 1923.9 206.5 1968.9 161.5 1923.9H-303V2169.1L-412.699 2278.8-444.5 2310.6-412.699 2278.8-631.398 2060-850.199 2278.8-882 2310.6-850.199 2278.8-959.898 2169.1V1923.9H-1424.4-1488-1424.4L-1096 1595.5-1269.3 1422.2V1267 1222 1267H-932.898L-631.398 1568.5-330 1267H6.39844 51.3984 6.39844V1422.2L-166.898 1595.5" fill="#788fbd"/>
<path transform="matrix(.1,0,0,-.1,0,792)" stroke-width="9" stroke-linecap="butt" stroke-miterlimit="10" stroke-linejoin="miter" fill="none" stroke="#000000" d="M161.5 1923.9 206.5 1968.9 161.5 1923.9H-303V2169.1L-412.699 2278.8-444.5 2310.6-412.699 2278.8-631.398 2060-850.199 2278.8-882 2310.6-850.199 2278.8-959.898 2169.1V1923.9H-1424.4-1488-1424.4L-1096 1595.5-1269.3 1422.2V1267 1222 1267H-932.898L-631.398 1568.5-330 1267H6.39844 51.3984 6.39844V1422.2L-166.898 1595.5Z"/>
<path transform="matrix(.1,0,0,-.1,0,792)" d="M1171.8 256.801 1203.6 288.602 1171.8 256.801 1035.7 120.699H843.301V-343.801L798.301-298.801 843.301-343.801 1171.8-672.199 1140-704.102 1171.8-672.199 1500.2-343.801V-407.398-343.801 120.699H1307.8" fill="#f8c499"/>
<path transform="matrix(.1,0,0,-.1,0,792)" stroke-width="9" stroke-linecap="butt" stroke-miterlimit="10" stroke-linejoin="miter" fill="none" stroke="#000000" d="M1171.8 256.801 1203.6 288.602 1171.8 256.801 1035.7 120.699H843.301V-343.801L798.301-298.801 843.301-343.801 1171.8-672.199 1140-704.102 1171.8-672.199 1500.2-343.801V-407.398-343.801 120.699H1307.8Z"/>
<path transform="matrix(.1,0,0,-.1,0,792)" d="M4778.2 256.801 4810 288.602 4778.2 256.801 4642.2 120.699H4449.8V-343.801L4404.8-298.801 4449.8-343.801 4778.2-672.199 4746.4-704.102 4778.2-672.199 5106.7-343.801V-407.398-343.801 120.699H4914.3" fill="#f8c499"/>
<path transform="matrix(.1,0,0,-.1,0,792)" stroke-width="9" stroke-linecap="butt" stroke-miterlimit="10" stroke-linejoin="miter" fill="none" stroke="#000000" d="M4778.2 256.801 4810 288.602 4778.2 256.801 4642.2 120.699H4449.8V-343.801L4404.8-298.801 4449.8-343.801 4778.2-672.199 4746.4-704.102 4778.2-672.199 5106.7-343.801V-407.398-343.801 120.699H4914.3Z"/>
</svg>
