<svg xmlns="http://www.w3.org/2000/svg" xmlns:xlink="http://www.w3.org/1999/xlink" xmlns:inkscape="http://www.inkscape.org/namespaces/inkscape" version="1.1" width="612" height="792" viewBox="0 0 612 792">
<path transform="matrix(.1,0,0,-.1,0,792)" d="M2807.1 3693.1 3191.8 3818.1V4068.1L3338.7 4270.4 3101 4597.6 2716.2 4472.6V4222.6L2569.3 4020.4" fill="#ffffff"/>
<path transform="matrix(.1,0,0,-.1,0,792)" stroke-width="1" stroke-linecap="butt" stroke-miterlimit="10" stroke-linejoin="miter" fill="none" stroke="#000000" d="M2807.1 3693.1 3191.8 3818.1V4068.1L3338.7 4270.4 3101 4597.6 2716.2 4472.6V4222.6L2569.3 4020.4Z"/>
<path transform="matrix(.1,0,0,-.1,0,792)" d="M3191.8 4068.1V3818.1L3576.5 3943.1 3338.7 4270.4Z" fill="#5c6600"/>
<path transform="matrix(.1,0,0,-.1,0,792)" stroke-width="1" stroke-linecap="butt" stroke-miterlimit="10" stroke-linejoin="miter" fill="none" stroke="#000000" d="M3191.8 4068.1V3818.1L3576.5 3943.1 3338.7 4270.4Z"/>
<path transform="matrix(.1,0,0,-.1,0,792)" d="M2716.2 4472.6 2331.5 4347.6 2569.3 4020.4 2716.2 4222.6Z" fill="#5c6600"/>
<path transform="matrix(.1,0,0,-.1,0,792)" stroke-width="1" stroke-linecap="butt" stroke-miterlimit="10" stroke-linejoin="miter" fill="none" stroke="#000000" d="M2716.2 4472.6 2331.5 4347.6 2569.3 4020.4 2716.2 4222.6Z"/>
<path transform="matrix(.1,0,0,-.1,0,792)" d="M2716.2 4472.6V4877.2L2331.5 5002.2 2093.8 4674.9 2331.5 4347.6" fill="#ffde66"/>
<path transform="matrix(.1,0,0,-.1,0,792)" stroke-width="1" stroke-linecap="butt" stroke-miterlimit="10" stroke-linejoin="miter" fill="none" stroke="#000000" d="M2716.2 4472.6V4877.2L2331.5 5002.2 2093.8 4674.9 2331.5 4347.6Z"/>
<path transform="matrix(.1,0,0,-.1,0,792)" d="M2716.2 4472.6 3101 4597.6 3338.7 4270.4 3576.5 4597.6 3191.8 4722.6V5127.2L2807.1 5002.2 2569.3 5329.4 2331.5 5002.2 2716.2 4877.2" fill="#805900"/>
<path transform="matrix(.1,0,0,-.1,0,792)" stroke-width="1" stroke-linecap="butt" stroke-miterlimit="10" stroke-linejoin="miter" fill="none" stroke="#000000" d="M2716.2 4472.6 3101 4597.6 3338.7 4270.4 3576.5 4597.6 3191.8 4722.6V5127.2L2807.1 5002.2 2569.3 5329.4 2331.5 5002.2 2716.2 4877.2Z"/>
<path transform="matrix(.1,0,0,-.1,0,792)" d="M3191.8 3818.1V3413.6L3576.5 3288.6 3814.2 3615.9 3576.5 3943.1" fill="#ffde66"/>
<path transform="matrix(.1,0,0,-.1,0,792)" stroke-width="1" stroke-linecap="butt" stroke-miterlimit="10" stroke-linejoin="miter" fill="none" stroke="#000000" d="M3191.8 3818.1V3413.6L3576.5 3288.6 3814.2 3615.9 3576.5 3943.1Z"/>
<path transform="matrix(.1,0,0,-.1,0,792)" d="M3191.8 3818.1 2807.1 3693.1 2569.3 4020.4 2331.5 3693.1 2716.2 3568.1V3163.6L3101 3288.6 3338.7 2961.4 3576.5 3288.6 3191.8 3413.6" fill="#805900"/>
<path transform="matrix(.1,0,0,-.1,0,792)" stroke-width="1" stroke-linecap="butt" stroke-miterlimit="10" stroke-linejoin="miter" fill="none" stroke="#000000" d="M3191.8 3818.1 2807.1 3693.1 2569.3 4020.4 2331.5 3693.1 2716.2 3568.1V3163.6L3101 3288.6 3338.7 2961.4 3576.5 3288.6 3191.8 3413.6Z"/>
<path transform="matrix(.1,0,0,-.1,0,792)" d="M3338.7 4270.4 3576.5 3943.1 3961.2 4068.1V4472.6L3576.5 4597.6" fill="#ffde66"/>
<path transform="matrix(.1,0,0,-.1,0,792)" stroke-width="1" stroke-linecap="butt" stroke-miterlimit="10" stroke-linejoin="miter" fill="none" stroke="#000000" d="M3338.7 4270.4 3576.5 3943.1 3961.2 4068.1V4472.6L3576.5 4597.6Z"/>
<path transform="matrix(.1,0,0,-.1,0,792)" d="M3191.8 4722.6 3576.5 4597.6 3814.2 4924.9 3576.5 5252.2 3191.8 5127.2" fill="#ffde66"/>
<path transform="matrix(.1,0,0,-.1,0,792)" stroke-width="1" stroke-linecap="butt" stroke-miterlimit="10" stroke-linejoin="miter" fill="none" stroke="#000000" d="M3191.8 4722.6 3576.5 4597.6 3814.2 4924.9 3576.5 5252.2 3191.8 5127.2Z"/>
<path transform="matrix(.1,0,0,-.1,0,792)" d="M2569.3 4020.4 2331.5 4347.6 2093.8 4270.4 1856 4347.6 1618.2 4020.4 1856 3693.1 2093.8 3770.4 2331.5 3693.1" fill="#ffffff"/>
<path transform="matrix(.1,0,0,-.1,0,792)" stroke-width="1" stroke-linecap="butt" stroke-miterlimit="10" stroke-linejoin="miter" fill="none" stroke="#000000" d="M2569.3 4020.4 2331.5 4347.6 2093.8 4270.4 1856 4347.6 1618.2 4020.4 1856 3693.1 2093.8 3770.4 2331.5 3693.1Z"/>
<path transform="matrix(.1,0,0,-.1,0,792)" d="M2716.2 3568.1 2331.5 3693.1 2093.8 3365.9 2331.5 3038.6 2716.2 3163.6" fill="#ffde66"/>
<path transform="matrix(.1,0,0,-.1,0,792)" stroke-width="1" stroke-linecap="butt" stroke-miterlimit="10" stroke-linejoin="miter" fill="none" stroke="#000000" d="M2716.2 3568.1 2331.5 3693.1 2093.8 3365.9 2331.5 3038.6 2716.2 3163.6Z"/>
<path transform="matrix(.1,0,0,-.1,0,792)" d="M2807.1 5002.2 3191.8 5127.2V5377.2L3338.7 5579.4 3101 5906.7 2716.2 5781.7V5531.7L2569.3 5329.4" fill="#ffffff"/>
<path transform="matrix(.1,0,0,-.1,0,792)" stroke-width="1" stroke-linecap="butt" stroke-miterlimit="10" stroke-linejoin="miter" fill="none" stroke="#000000" d="M2807.1 5002.2 3191.8 5127.2V5377.2L3338.7 5579.4 3101 5906.7 2716.2 5781.7V5531.7L2569.3 5329.4Z"/>
<path transform="matrix(.1,0,0,-.1,0,792)" d="M3576.5 3943.1 3814.2 3615.9 3576.5 3288.6 3961.2 3163.6V3568.1L4345.9 3693.1 4108.1 4020.4 4345.9 4347.6 3961.2 4472.6V4068.1" fill="#805900"/>
<path transform="matrix(.1,0,0,-.1,0,792)" stroke-width="1" stroke-linecap="butt" stroke-miterlimit="10" stroke-linejoin="miter" fill="none" stroke="#000000" d="M3576.5 3943.1 3814.2 3615.9 3576.5 3288.6 3961.2 3163.6V3568.1L4345.9 3693.1 4108.1 4020.4 4345.9 4347.6 3961.2 4472.6V4068.1Z"/>
<path transform="matrix(.1,0,0,-.1,0,792)" d="M3576.5 4597.6 3961.2 4472.6V4877.2L4345.9 5002.2 4108.1 5329.4 4345.9 5656.7 3961.2 5781.7V5377.2L3576.5 5252.2 3814.2 4924.9" fill="#805900"/>
<path transform="matrix(.1,0,0,-.1,0,792)" stroke-width="1" stroke-linecap="butt" stroke-miterlimit="10" stroke-linejoin="miter" fill="none" stroke="#000000" d="M3576.5 4597.6 3961.2 4472.6V4877.2L4345.9 5002.2 4108.1 5329.4 4345.9 5656.7 3961.2 5781.7V5377.2L3576.5 5252.2 3814.2 4924.9Z"/>
<path transform="matrix(.1,0,0,-.1,0,792)" d="M2331.5 5002.2 2093.8 5079.4 1856 5002.2 2093.8 4674.9Z" fill="#5c6600"/>
<path transform="matrix(.1,0,0,-.1,0,792)" stroke-width="1" stroke-linecap="butt" stroke-miterlimit="10" stroke-linejoin="miter" fill="none" stroke="#000000" d="M2331.5 5002.2 2093.8 5079.4 1856 5002.2 2093.8 4674.9Z"/>
<path transform="matrix(.1,0,0,-.1,0,792)" d="M2331.5 5002.2 2569.3 5329.4 2331.5 5656.7 2093.8 5579.4 1856 5656.7 1618.2 5329.4 1856 5002.2 2093.8 5079.4" fill="#ffffff"/>
<path transform="matrix(.1,0,0,-.1,0,792)" stroke-width="1" stroke-linecap="butt" stroke-miterlimit="10" stroke-linejoin="miter" fill="none" stroke="#000000" d="M2331.5 5002.2 2569.3 5329.4 2331.5 5656.7 2093.8 5579.4 1856 5656.7 1618.2 5329.4 1856 5002.2 2093.8 5079.4Z"/>
<path transform="matrix(.1,0,0,-.1,0,792)" d="M2331.5 4347.6 2093.8 4674.9 1856 4347.6 2093.8 4270.4Z" fill="#5c6600"/>
<path transform="matrix(.1,0,0,-.1,0,792)" stroke-width="1" stroke-linecap="butt" stroke-miterlimit="10" stroke-linejoin="miter" fill="none" stroke="#000000" d="M2331.5 4347.6 2093.8 4674.9 1856 4347.6 2093.8 4270.4Z"/>
<path transform="matrix(.1,0,0,-.1,0,792)" d="M2331.5 3693.1 2093.8 3770.4 1856 3693.1 2093.8 3365.9Z" fill="#5c6600"/>
<path transform="matrix(.1,0,0,-.1,0,792)" stroke-width="1" stroke-linecap="butt" stroke-miterlimit="10" stroke-linejoin="miter" fill="none" stroke="#000000" d="M2331.5 3693.1 2093.8 3770.4 1856 3693.1 2093.8 3365.9Z"/>
<path transform="matrix(.1,0,0,-.1,0,792)" d="M3191.8 5127.2 3576.5 5252.2 3338.7 5579.4 3191.8 5377.2Z" fill="#5c6600"/>
<path transform="matrix(.1,0,0,-.1,0,792)" stroke-width="1" stroke-linecap="butt" stroke-miterlimit="10" stroke-linejoin="miter" fill="none" stroke="#000000" d="M3191.8 5127.2 3576.5 5252.2 3338.7 5579.4 3191.8 5377.2Z"/>
<path transform="matrix(.1,0,0,-.1,0,792)" d="M3101 3288.6 2716.2 3163.6V2913.6L2569.3 2711.4 2807.1 2384.1 3191.8 2509.1V2759.1L3338.7 2961.4" fill="#ffffff"/>
<path transform="matrix(.1,0,0,-.1,0,792)" stroke-width="1" stroke-linecap="butt" stroke-miterlimit="10" stroke-linejoin="miter" fill="none" stroke="#000000" d="M3101 3288.6 2716.2 3163.6V2913.6L2569.3 2711.4 2807.1 2384.1 3191.8 2509.1V2759.1L3338.7 2961.4Z"/>
<path transform="matrix(.1,0,0,-.1,0,792)" d="M3576.5 3288.6 3338.7 2961.4 3576.5 2634.1 3961.2 2759.1V3163.6" fill="#ffde66"/>
<path transform="matrix(.1,0,0,-.1,0,792)" stroke-width="1" stroke-linecap="butt" stroke-miterlimit="10" stroke-linejoin="miter" fill="none" stroke="#000000" d="M3576.5 3288.6 3338.7 2961.4 3576.5 2634.1 3961.2 2759.1V3163.6Z"/>
<path transform="matrix(.1,0,0,-.1,0,792)" d="M3576.5 5252.2 3961.2 5377.2V5781.7L3576.5 5906.7 3338.7 5579.4" fill="#ffde66"/>
<path transform="matrix(.1,0,0,-.1,0,792)" stroke-width="1" stroke-linecap="butt" stroke-miterlimit="10" stroke-linejoin="miter" fill="none" stroke="#000000" d="M3576.5 5252.2 3961.2 5377.2V5781.7L3576.5 5906.7 3338.7 5579.4Z"/>
<path transform="matrix(.1,0,0,-.1,0,792)" d="M2716.2 3163.6 2331.5 3038.6 2569.3 2711.4 2716.2 2913.6Z" fill="#5c6600"/>
<path transform="matrix(.1,0,0,-.1,0,792)" stroke-width="1" stroke-linecap="butt" stroke-miterlimit="10" stroke-linejoin="miter" fill="none" stroke="#000000" d="M2716.2 3163.6 2331.5 3038.6 2569.3 2711.4 2716.2 2913.6Z"/>
<path transform="matrix(.1,0,0,-.1,0,792)" d="M2569.3 5329.4 2716.2 5531.7V5781.7L2331.5 5656.7Z" fill="#5c6600"/>
<path transform="matrix(.1,0,0,-.1,0,792)" stroke-width="1" stroke-linecap="butt" stroke-miterlimit="10" stroke-linejoin="miter" fill="none" stroke="#000000" d="M2569.3 5329.4 2716.2 5531.7V5781.7L2331.5 5656.7Z"/>
<path transform="matrix(.1,0,0,-.1,0,792)" d="M2331.5 3038.6 2093.8 2961.4 1856 3038.6 1618.2 2711.4 1856 2384.1 2093.8 2461.4 2331.5 2384.1 2569.3 2711.4" fill="#ffffff"/>
<path transform="matrix(.1,0,0,-.1,0,792)" stroke-width="1" stroke-linecap="butt" stroke-miterlimit="10" stroke-linejoin="miter" fill="none" stroke="#000000" d="M2331.5 3038.6 2093.8 2961.4 1856 3038.6 1618.2 2711.4 1856 2384.1 2093.8 2461.4 2331.5 2384.1 2569.3 2711.4Z"/>
<path transform="matrix(.1,0,0,-.1,0,792)" d="M2331.5 3038.6 2093.8 3365.9 1856 3038.6 2093.8 2961.4Z" fill="#5c6600"/>
<path transform="matrix(.1,0,0,-.1,0,792)" stroke-width="1" stroke-linecap="butt" stroke-miterlimit="10" stroke-linejoin="miter" fill="none" stroke="#000000" d="M2331.5 3038.6 2093.8 3365.9 1856 3038.6 2093.8 2961.4Z"/>
<path transform="matrix(.1,0,0,-.1,0,792)" d="M2093.8 3365.9 1856 3693.1 1471.3 3568.1V3163.6L1856 3038.6" fill="#ffde66"/>
<path transform="matrix(.1,0,0,-.1,0,792)" stroke-width="1" stroke-linecap="butt" stroke-miterlimit="10" stroke-linejoin="miter" fill="none" stroke="#000000" d="M2093.8 3365.9 1856 3693.1 1471.3 3568.1V3163.6L1856 3038.6Z"/>
<path transform="matrix(.1,0,0,-.1,0,792)" d="M2093.8 4674.9 1856 5002.2 1471.3 4877.2V4472.6L1856 4347.6" fill="#ffde66"/>
<path transform="matrix(.1,0,0,-.1,0,792)" stroke-width="1" stroke-linecap="butt" stroke-miterlimit="10" stroke-linejoin="miter" fill="none" stroke="#000000" d="M2093.8 4674.9 1856 5002.2 1471.3 4877.2V4472.6L1856 4347.6Z"/>
<path transform="matrix(.1,0,0,-.1,0,792)" d="M3338.7 2961.4 3191.8 2759.1V2509.1L3576.5 2634.1Z" fill="#5c6600"/>
<path transform="matrix(.1,0,0,-.1,0,792)" stroke-width="1" stroke-linecap="butt" stroke-miterlimit="10" stroke-linejoin="miter" fill="none" stroke="#000000" d="M3338.7 2961.4 3191.8 2759.1V2509.1L3576.5 2634.1Z"/>
<path transform="matrix(.1,0,0,-.1,0,792)" d="M3961.2 3163.6 4345.9 3038.6 4583.7 3365.9 4345.9 3693.1 3961.2 3568.1" fill="#ffde66"/>
<path transform="matrix(.1,0,0,-.1,0,792)" stroke-width="1" stroke-linecap="butt" stroke-miterlimit="10" stroke-linejoin="miter" fill="none" stroke="#000000" d="M3961.2 3163.6 4345.9 3038.6 4583.7 3365.9 4345.9 3693.1 3961.2 3568.1Z"/>
<path transform="matrix(.1,0,0,-.1,0,792)" d="M3961.2 3163.6V2759.1L3576.5 2634.1 3814.2 2306.9 3576.5 1979.6 3961.2 1854.6V2259.1L4345.9 2384.1 4108.1 2711.4 4345.9 3038.6" fill="#805900"/>
<path transform="matrix(.1,0,0,-.1,0,792)" stroke-width="1" stroke-linecap="butt" stroke-miterlimit="10" stroke-linejoin="miter" fill="none" stroke="#000000" d="M3961.2 3163.6V2759.1L3576.5 2634.1 3814.2 2306.9 3576.5 1979.6 3961.2 1854.6V2259.1L4345.9 2384.1 4108.1 2711.4 4345.9 3038.6Z"/>
<path transform="matrix(.1,0,0,-.1,0,792)" d="M3961.2 4472.6 4345.9 4347.6 4583.7 4674.9 4345.9 5002.2 3961.2 4877.2" fill="#ffde66"/>
<path transform="matrix(.1,0,0,-.1,0,792)" stroke-width="1" stroke-linecap="butt" stroke-miterlimit="10" stroke-linejoin="miter" fill="none" stroke="#000000" d="M3961.2 4472.6 4345.9 4347.6 4583.7 4674.9 4345.9 5002.2 3961.2 4877.2Z"/>
<path transform="matrix(.1,0,0,-.1,0,792)" d="M3338.7 5579.4 3576.5 5906.7 3191.8 6031.7V6436.2L2807.1 6311.2 2569.3 6638.4 2331.5 6311.2 2716.2 6186.2V5781.7L3101 5906.7" fill="#805900"/>
<path transform="matrix(.1,0,0,-.1,0,792)" stroke-width="1" stroke-linecap="butt" stroke-miterlimit="10" stroke-linejoin="miter" fill="none" stroke="#000000" d="M3338.7 5579.4 3576.5 5906.7 3191.8 6031.7V6436.2L2807.1 6311.2 2569.3 6638.4 2331.5 6311.2 2716.2 6186.2V5781.7L3101 5906.7Z"/>
<path transform="matrix(.1,0,0,-.1,0,792)" d="M2093.8 5579.4 2331.5 5656.7 2093.8 5983.9 1856 5656.7Z" fill="#5c6600"/>
<path transform="matrix(.1,0,0,-.1,0,792)" stroke-width="1" stroke-linecap="butt" stroke-miterlimit="10" stroke-linejoin="miter" fill="none" stroke="#000000" d="M2093.8 5579.4 2331.5 5656.7 2093.8 5983.9 1856 5656.7Z"/>
<path transform="matrix(.1,0,0,-.1,0,792)" d="M2331.5 5656.7 2716.2 5781.7V6186.2L2331.5 6311.2 2093.8 5983.9" fill="#ffde66"/>
<path transform="matrix(.1,0,0,-.1,0,792)" stroke-width="1" stroke-linecap="butt" stroke-miterlimit="10" stroke-linejoin="miter" fill="none" stroke="#000000" d="M2331.5 5656.7 2716.2 5781.7V6186.2L2331.5 6311.2 2093.8 5983.9Z"/>
<path transform="matrix(.1,0,0,-.1,0,792)" d="M2569.3 2711.4 2331.5 2384.1 2716.2 2259.1V1854.6L3101 1979.6 3338.7 1652.4 3576.5 1979.6 3191.8 2104.6V2509.1L2807.1 2384.1" fill="#805900"/>
<path transform="matrix(.1,0,0,-.1,0,792)" stroke-width="1" stroke-linecap="butt" stroke-miterlimit="10" stroke-linejoin="miter" fill="none" stroke="#000000" d="M2569.3 2711.4 2331.5 2384.1 2716.2 2259.1V1854.6L3101 1979.6 3338.7 1652.4 3576.5 1979.6 3191.8 2104.6V2509.1L2807.1 2384.1Z"/>
<path transform="matrix(.1,0,0,-.1,0,792)" d="M1856 5656.7 1471.3 5781.7V5377.2L1086.6 5252.2 1324.3 4924.9 1086.6 4597.6 1471.3 4472.6V4877.2L1856 5002.2 1618.2 5329.4" fill="#805900"/>
<path transform="matrix(.1,0,0,-.1,0,792)" stroke-width="1" stroke-linecap="butt" stroke-miterlimit="10" stroke-linejoin="miter" fill="none" stroke="#000000" d="M1856 5656.7 1471.3 5781.7V5377.2L1086.6 5252.2 1324.3 4924.9 1086.6 4597.6 1471.3 4472.6V4877.2L1856 5002.2 1618.2 5329.4Z"/>
<path transform="matrix(.1,0,0,-.1,0,792)" d="M1856 5656.7 2093.8 5983.9 1856 6311.2 1471.3 6186.2V5781.7" fill="#ffde66"/>
<path transform="matrix(.1,0,0,-.1,0,792)" stroke-width="1" stroke-linecap="butt" stroke-miterlimit="10" stroke-linejoin="miter" fill="none" stroke="#000000" d="M1856 5656.7 2093.8 5983.9 1856 6311.2 1471.3 6186.2V5781.7Z"/>
<path transform="matrix(.1,0,0,-.1,0,792)" d="M1856 4347.6 1471.3 4472.6V4068.1L1086.6 3943.1 1324.3 3615.9 1086.6 3288.6 1471.3 3163.6V3568.1L1856 3693.1 1618.2 4020.4" fill="#805900"/>
<path transform="matrix(.1,0,0,-.1,0,792)" stroke-width="1" stroke-linecap="butt" stroke-miterlimit="10" stroke-linejoin="miter" fill="none" stroke="#000000" d="M1856 4347.6 1471.3 4472.6V4068.1L1086.6 3943.1 1324.3 3615.9 1086.6 3288.6 1471.3 3163.6V3568.1L1856 3693.1 1618.2 4020.4Z"/>
<path transform="matrix(.1,0,0,-.1,0,792)" d="M1856 3038.6 1471.3 3163.6V2759.1L1086.6 2634.1 1324.3 2306.9 1086.6 1979.6 1471.3 1854.6V2259.1L1856 2384.1 1618.2 2711.4" fill="#805900"/>
<path transform="matrix(.1,0,0,-.1,0,792)" stroke-width="1" stroke-linecap="butt" stroke-miterlimit="10" stroke-linejoin="miter" fill="none" stroke="#000000" d="M1856 3038.6 1471.3 3163.6V2759.1L1086.6 2634.1 1324.3 2306.9 1086.6 1979.6 1471.3 1854.6V2259.1L1856 2384.1 1618.2 2711.4Z"/>
<path transform="matrix(.1,0,0,-.1,0,792)" d="M4108.1 2711.4 4345.9 2384.1 4583.7 2461.4 4821.4 2384.1 5059.2 2711.4 4821.4 3038.6 4583.7 2961.4 4345.9 3038.6" fill="#ffffff"/>
<path transform="matrix(.1,0,0,-.1,0,792)" stroke-width="1" stroke-linecap="butt" stroke-miterlimit="10" stroke-linejoin="miter" fill="none" stroke="#000000" d="M4108.1 2711.4 4345.9 2384.1 4583.7 2461.4 4821.4 2384.1 5059.2 2711.4 4821.4 3038.6 4583.7 2961.4 4345.9 3038.6Z"/>
<path transform="matrix(.1,0,0,-.1,0,792)" d="M4108.1 4020.4 4345.9 3693.1 4583.7 3770.4 4821.4 3693.1 5059.2 4020.4 4821.4 4347.6 4583.7 4270.4 4345.9 4347.6" fill="#ffffff"/>
<path transform="matrix(.1,0,0,-.1,0,792)" stroke-width="1" stroke-linecap="butt" stroke-miterlimit="10" stroke-linejoin="miter" fill="none" stroke="#000000" d="M4108.1 4020.4 4345.9 3693.1 4583.7 3770.4 4821.4 3693.1 5059.2 4020.4 4821.4 4347.6 4583.7 4270.4 4345.9 4347.6Z"/>
<path transform="matrix(.1,0,0,-.1,0,792)" d="M4108.1 5329.4 4345.9 5002.2 4583.7 5079.4 4821.4 5002.2 5059.2 5329.4 4821.4 5656.7 4583.7 5579.4 4345.9 5656.7" fill="#ffffff"/>
<path transform="matrix(.1,0,0,-.1,0,792)" stroke-width="1" stroke-linecap="butt" stroke-miterlimit="10" stroke-linejoin="miter" fill="none" stroke="#000000" d="M4108.1 5329.4 4345.9 5002.2 4583.7 5079.4 4821.4 5002.2 5059.2 5329.4 4821.4 5656.7 4583.7 5579.4 4345.9 5656.7Z"/>
<path transform="matrix(.1,0,0,-.1,0,792)" d="M3961.2 5781.7V6186.2L4345.9 6311.2 4108.1 6638.4 4345.9 6965.7 3961.2 7090.7V6686.2L3576.5 6561.2 3814.2 6233.9 3576.5 5906.7" fill="#805900"/>
<path transform="matrix(.1,0,0,-.1,0,792)" stroke-width="1" stroke-linecap="butt" stroke-miterlimit="10" stroke-linejoin="miter" fill="none" stroke="#000000" d="M3961.2 5781.7V6186.2L4345.9 6311.2 4108.1 6638.4 4345.9 6965.7 3961.2 7090.7V6686.2L3576.5 6561.2 3814.2 6233.9 3576.5 5906.7Z"/>
<path transform="matrix(.1,0,0,-.1,0,792)" d="M3961.2 5781.7 4345.9 5656.7 4583.7 5983.9 4345.9 6311.2 3961.2 6186.2" fill="#ffde66"/>
<path transform="matrix(.1,0,0,-.1,0,792)" stroke-width="1" stroke-linecap="butt" stroke-miterlimit="10" stroke-linejoin="miter" fill="none" stroke="#000000" d="M3961.2 5781.7 4345.9 5656.7 4583.7 5983.9 4345.9 6311.2 3961.2 6186.2Z"/>
<path transform="matrix(.1,0,0,-.1,0,792)" d="M3576.5 2634.1 3191.8 2509.1V2104.6L3576.5 1979.6 3814.2 2306.9" fill="#ffde66"/>
<path transform="matrix(.1,0,0,-.1,0,792)" stroke-width="1" stroke-linecap="butt" stroke-miterlimit="10" stroke-linejoin="miter" fill="none" stroke="#000000" d="M3576.5 2634.1 3191.8 2509.1V2104.6L3576.5 1979.6 3814.2 2306.9Z"/>
<path transform="matrix(.1,0,0,-.1,0,792)" d="M3576.5 5906.7 3814.2 6233.9 3576.5 6561.2 3191.8 6436.2V6031.7" fill="#ffde66"/>
<path transform="matrix(.1,0,0,-.1,0,792)" stroke-width="1" stroke-linecap="butt" stroke-miterlimit="10" stroke-linejoin="miter" fill="none" stroke="#000000" d="M3576.5 5906.7 3814.2 6233.9 3576.5 6561.2 3191.8 6436.2V6031.7Z"/>
<path transform="matrix(.1,0,0,-.1,0,792)" d="M2093.8 2461.4 1856 2384.1 2093.8 2056.9 2331.5 2384.1Z" fill="#5c6600"/>
<path transform="matrix(.1,0,0,-.1,0,792)" stroke-width="1" stroke-linecap="butt" stroke-miterlimit="10" stroke-linejoin="miter" fill="none" stroke="#000000" d="M2093.8 2461.4 1856 2384.1 2093.8 2056.9 2331.5 2384.1Z"/>
<path transform="matrix(.1,0,0,-.1,0,792)" d="M2093.8 5983.9 2331.5 6311.2 2093.8 6388.4 1856 6311.2Z" fill="#5c6600"/>
<path transform="matrix(.1,0,0,-.1,0,792)" stroke-width="1" stroke-linecap="butt" stroke-miterlimit="10" stroke-linejoin="miter" fill="none" stroke="#000000" d="M2093.8 5983.9 2331.5 6311.2 2093.8 6388.4 1856 6311.2Z"/>
<path transform="matrix(.1,0,0,-.1,0,792)" d="M1856 2384.1 1471.3 2259.1V1854.6L1856 1729.6 2093.8 2056.9" fill="#ffde66"/>
<path transform="matrix(.1,0,0,-.1,0,792)" stroke-width="1" stroke-linecap="butt" stroke-miterlimit="10" stroke-linejoin="miter" fill="none" stroke="#000000" d="M1856 2384.1 1471.3 2259.1V1854.6L1856 1729.6 2093.8 2056.9Z"/>
<path transform="matrix(.1,0,0,-.1,0,792)" d="M2331.5 2384.1 2093.8 2056.9 2331.5 1729.6 2716.2 1854.6V2259.1" fill="#ffde66"/>
<path transform="matrix(.1,0,0,-.1,0,792)" stroke-width="1" stroke-linecap="butt" stroke-miterlimit="10" stroke-linejoin="miter" fill="none" stroke="#000000" d="M2331.5 2384.1 2093.8 2056.9 2331.5 1729.6 2716.2 1854.6V2259.1Z"/>
<path transform="matrix(.1,0,0,-.1,0,792)" d="M4345.9 2384.1 4583.7 2056.9 4821.4 2384.1 4583.7 2461.4Z" fill="#5c6600"/>
<path transform="matrix(.1,0,0,-.1,0,792)" stroke-width="1" stroke-linecap="butt" stroke-miterlimit="10" stroke-linejoin="miter" fill="none" stroke="#000000" d="M4345.9 2384.1 4583.7 2056.9 4821.4 2384.1 4583.7 2461.4Z"/>
<path transform="matrix(.1,0,0,-.1,0,792)" d="M4345.9 2384.1 3961.2 2259.1V1854.6L4345.9 1729.6 4583.7 2056.9" fill="#ffde66"/>
<path transform="matrix(.1,0,0,-.1,0,792)" stroke-width="1" stroke-linecap="butt" stroke-miterlimit="10" stroke-linejoin="miter" fill="none" stroke="#000000" d="M4345.9 2384.1 3961.2 2259.1V1854.6L4345.9 1729.6 4583.7 2056.9Z"/>
<path transform="matrix(.1,0,0,-.1,0,792)" d="M4345.9 3038.6 4583.7 2961.4 4821.4 3038.6 4583.7 3365.9Z" fill="#5c6600"/>
<path transform="matrix(.1,0,0,-.1,0,792)" stroke-width="1" stroke-linecap="butt" stroke-miterlimit="10" stroke-linejoin="miter" fill="none" stroke="#000000" d="M4345.9 3038.6 4583.7 2961.4 4821.4 3038.6 4583.7 3365.9Z"/>
<path transform="matrix(.1,0,0,-.1,0,792)" d="M4345.9 3693.1 4583.7 3365.9 4821.4 3693.1 4583.7 3770.4Z" fill="#5c6600"/>
<path transform="matrix(.1,0,0,-.1,0,792)" stroke-width="1" stroke-linecap="butt" stroke-miterlimit="10" stroke-linejoin="miter" fill="none" stroke="#000000" d="M4345.9 3693.1 4583.7 3365.9 4821.4 3693.1 4583.7 3770.4Z"/>
<path transform="matrix(.1,0,0,-.1,0,792)" d="M4345.9 4347.6 4583.7 4270.4 4821.4 4347.6 4583.7 4674.9Z" fill="#5c6600"/>
<path transform="matrix(.1,0,0,-.1,0,792)" stroke-width="1" stroke-linecap="butt" stroke-miterlimit="10" stroke-linejoin="miter" fill="none" stroke="#000000" d="M4345.9 4347.6 4583.7 4270.4 4821.4 4347.6 4583.7 4674.9Z"/>
<path transform="matrix(.1,0,0,-.1,0,792)" d="M4345.9 5002.2 4583.7 4674.9 4821.4 5002.2 4583.7 5079.4Z" fill="#5c6600"/>
<path transform="matrix(.1,0,0,-.1,0,792)" stroke-width="1" stroke-linecap="butt" stroke-miterlimit="10" stroke-linejoin="miter" fill="none" stroke="#000000" d="M4345.9 5002.2 4583.7 4674.9 4821.4 5002.2 4583.7 5079.4Z"/>
<path transform="matrix(.1,0,0,-.1,0,792)" d="M4345.9 5656.7 4583.7 5579.4 4821.4 5656.7 4583.7 5983.9Z" fill="#5c6600"/>
<path transform="matrix(.1,0,0,-.1,0,792)" stroke-width="1" stroke-linecap="butt" stroke-miterlimit="10" stroke-linejoin="miter" fill="none" stroke="#000000" d="M4345.9 5656.7 4583.7 5579.4 4821.4 5656.7 4583.7 5983.9Z"/>
<path transform="matrix(.1,0,0,-.1,0,792)" d="M1471.3 6186.2 1856 6311.2 1618.2 6638.4 1856 6965.7 1471.3 7090.7V6686.2L1086.6 6561.2 1324.3 6233.9 1086.6 5906.7 1471.3 5781.7" fill="#805900"/>
<path transform="matrix(.1,0,0,-.1,0,792)" stroke-width="1" stroke-linecap="butt" stroke-miterlimit="10" stroke-linejoin="miter" fill="none" stroke="#000000" d="M1471.3 6186.2 1856 6311.2 1618.2 6638.4 1856 6965.7 1471.3 7090.7V6686.2L1086.6 6561.2 1324.3 6233.9 1086.6 5906.7 1471.3 5781.7Z"/>
<path transform="matrix(.1,0,0,-.1,0,792)" d="M1471.3 5781.7 1086.6 5906.7 848.801 5579.4 1086.6 5252.2 1471.3 5377.2" fill="#ffde66"/>
<path transform="matrix(.1,0,0,-.1,0,792)" stroke-width="1" stroke-linecap="butt" stroke-miterlimit="10" stroke-linejoin="miter" fill="none" stroke="#000000" d="M1471.3 5781.7 1086.6 5906.7 848.801 5579.4 1086.6 5252.2 1471.3 5377.2Z"/>
<path transform="matrix(.1,0,0,-.1,0,792)" d="M1471.3 4472.6 1086.6 4597.6 848.801 4270.4 1086.6 3943.1 1471.3 4068.1" fill="#ffde66"/>
<path transform="matrix(.1,0,0,-.1,0,792)" stroke-width="1" stroke-linecap="butt" stroke-miterlimit="10" stroke-linejoin="miter" fill="none" stroke="#000000" d="M1471.3 4472.6 1086.6 4597.6 848.801 4270.4 1086.6 3943.1 1471.3 4068.1Z"/>
<path transform="matrix(.1,0,0,-.1,0,792)" d="M1471.3 3163.6 1086.6 3288.6 848.801 2961.4 1086.6 2634.1 1471.3 2759.1" fill="#ffde66"/>
<path transform="matrix(.1,0,0,-.1,0,792)" stroke-width="1" stroke-linecap="butt" stroke-miterlimit="10" stroke-linejoin="miter" fill="none" stroke="#000000" d="M1471.3 3163.6 1086.6 3288.6 848.801 2961.4 1086.6 2634.1 1471.3 2759.1Z"/>
<path transform="matrix(.1,0,0,-.1,0,792)" d="M4345.9 6311.2 4583.7 6388.4 4821.4 6311.2 5059.2 6638.4 4821.4 6965.7 4583.7 6888.4 4345.9 6965.7 4108.1 6638.4" fill="#ffffff"/>
<path transform="matrix(.1,0,0,-.1,0,792)" stroke-width="1" stroke-linecap="butt" stroke-miterlimit="10" stroke-linejoin="miter" fill="none" stroke="#000000" d="M4345.9 6311.2 4583.7 6388.4 4821.4 6311.2 5059.2 6638.4 4821.4 6965.7 4583.7 6888.4 4345.9 6965.7 4108.1 6638.4Z"/>
<path transform="matrix(.1,0,0,-.1,0,792)" d="M4345.9 6311.2 4583.7 5983.9 4821.4 6311.2 4583.7 6388.4Z" fill="#5c6600"/>
<path transform="matrix(.1,0,0,-.1,0,792)" stroke-width="1" stroke-linecap="butt" stroke-miterlimit="10" stroke-linejoin="miter" fill="none" stroke="#000000" d="M4345.9 6311.2 4583.7 5983.9 4821.4 6311.2 4583.7 6388.4Z"/>
<path transform="matrix(.1,0,0,-.1,0,792)" d="M2807.1 6311.2 3191.8 6436.2V6686.2L3338.7 6888.4 3101 7215.7 2716.2 7090.7V6840.7L2569.3 6638.4" fill="#ffffff"/>
<path transform="matrix(.1,0,0,-.1,0,792)" stroke-width="1" stroke-linecap="butt" stroke-miterlimit="10" stroke-linejoin="miter" fill="none" stroke="#000000" d="M2807.1 6311.2 3191.8 6436.2V6686.2L3338.7 6888.4 3101 7215.7 2716.2 7090.7V6840.7L2569.3 6638.4Z"/>
<path transform="matrix(.1,0,0,-.1,0,792)" d="M2331.5 6311.2 2569.3 6638.4 2331.5 6965.7 2093.8 6888.4 1856 6965.7 1618.2 6638.4 1856 6311.2 2093.8 6388.4" fill="#ffffff"/>
<path transform="matrix(.1,0,0,-.1,0,792)" stroke-width="1" stroke-linecap="butt" stroke-miterlimit="10" stroke-linejoin="miter" fill="none" stroke="#000000" d="M2331.5 6311.2 2569.3 6638.4 2331.5 6965.7 2093.8 6888.4 1856 6965.7 1618.2 6638.4 1856 6311.2 2093.8 6388.4Z"/>
<path transform="matrix(.1,0,0,-.1,0,792)" d="M2093.8 2056.9 1856 1729.6 2093.8 1652.4 2331.5 1729.6Z" fill="#5c6600"/>
<path transform="matrix(.1,0,0,-.1,0,792)" stroke-width="1" stroke-linecap="butt" stroke-miterlimit="10" stroke-linejoin="miter" fill="none" stroke="#000000" d="M2093.8 2056.9 1856 1729.6 2093.8 1652.4 2331.5 1729.6Z"/>
<path transform="matrix(.1,0,0,-.1,0,792)" d="M4583.7 2056.9 4821.4 1729.6 5206.1 1854.6V2259.1L4821.4 2384.1" fill="#ffde66"/>
<path transform="matrix(.1,0,0,-.1,0,792)" stroke-width="1" stroke-linecap="butt" stroke-miterlimit="10" stroke-linejoin="miter" fill="none" stroke="#000000" d="M4583.7 2056.9 4821.4 1729.6 5206.1 1854.6V2259.1L4821.4 2384.1Z"/>
<path transform="matrix(.1,0,0,-.1,0,792)" d="M4583.7 2056.9 4345.9 1729.6 4583.7 1652.4 4821.4 1729.6Z" fill="#5c6600"/>
<path transform="matrix(.1,0,0,-.1,0,792)" stroke-width="1" stroke-linecap="butt" stroke-miterlimit="10" stroke-linejoin="miter" fill="none" stroke="#000000" d="M4583.7 2056.9 4345.9 1729.6 4583.7 1652.4 4821.4 1729.6Z"/>
<path transform="matrix(.1,0,0,-.1,0,792)" d="M4583.7 3365.9 4821.4 3038.6 5206.1 3163.6V3568.1L4821.4 3693.1" fill="#ffde66"/>
<path transform="matrix(.1,0,0,-.1,0,792)" stroke-width="1" stroke-linecap="butt" stroke-miterlimit="10" stroke-linejoin="miter" fill="none" stroke="#000000" d="M4583.7 3365.9 4821.4 3038.6 5206.1 3163.6V3568.1L4821.4 3693.1Z"/>
<path transform="matrix(.1,0,0,-.1,0,792)" d="M4583.7 4674.9 4821.4 4347.6 5206.1 4472.6V4877.2L4821.4 5002.2" fill="#ffde66"/>
<path transform="matrix(.1,0,0,-.1,0,792)" stroke-width="1" stroke-linecap="butt" stroke-miterlimit="10" stroke-linejoin="miter" fill="none" stroke="#000000" d="M4583.7 4674.9 4821.4 4347.6 5206.1 4472.6V4877.2L4821.4 5002.2Z"/>
<path transform="matrix(.1,0,0,-.1,0,792)" d="M4583.7 5983.9 4821.4 5656.7 5206.1 5781.7V6186.2L4821.4 6311.2" fill="#ffde66"/>
<path transform="matrix(.1,0,0,-.1,0,792)" stroke-width="1" stroke-linecap="butt" stroke-miterlimit="10" stroke-linejoin="miter" fill="none" stroke="#000000" d="M4583.7 5983.9 4821.4 5656.7 5206.1 5781.7V6186.2L4821.4 6311.2Z"/>
<path transform="matrix(.1,0,0,-.1,0,792)" d="M3191.8 6436.2 3576.5 6561.2 3338.7 6888.4 3191.8 6686.2Z" fill="#5c6600"/>
<path transform="matrix(.1,0,0,-.1,0,792)" stroke-width="1" stroke-linecap="butt" stroke-miterlimit="10" stroke-linejoin="miter" fill="none" stroke="#000000" d="M3191.8 6436.2 3576.5 6561.2 3338.7 6888.4 3191.8 6686.2Z"/>
<path transform="matrix(.1,0,0,-.1,0,792)" d="M3101 1979.6 2716.2 1854.6V1604.6L2569.3 1402.4 2807.1 1075.1 3191.8 1200.1V1450.1L3338.7 1652.4" fill="#ffffff"/>
<path transform="matrix(.1,0,0,-.1,0,792)" stroke-width="1" stroke-linecap="butt" stroke-miterlimit="10" stroke-linejoin="miter" fill="none" stroke="#000000" d="M3101 1979.6 2716.2 1854.6V1604.6L2569.3 1402.4 2807.1 1075.1 3191.8 1200.1V1450.1L3338.7 1652.4Z"/>
<path transform="matrix(.1,0,0,-.1,0,792)" d="M3576.5 1979.6 3338.7 1652.4 3576.5 1325.1 3961.2 1450.1V1854.6" fill="#ffde66"/>
<path transform="matrix(.1,0,0,-.1,0,792)" stroke-width="1" stroke-linecap="butt" stroke-miterlimit="10" stroke-linejoin="miter" fill="none" stroke="#000000" d="M3576.5 1979.6 3338.7 1652.4 3576.5 1325.1 3961.2 1450.1V1854.6Z"/>
<path transform="matrix(.1,0,0,-.1,0,792)" d="M1324.3 6233.9 1086.6 6561.2 701.898 6436.2V6031.7L1086.6 5906.7" fill="#ffde66"/>
<path transform="matrix(.1,0,0,-.1,0,792)" stroke-width="1" stroke-linecap="butt" stroke-miterlimit="10" stroke-linejoin="miter" fill="none" stroke="#000000" d="M1324.3 6233.9 1086.6 6561.2 701.898 6436.2V6031.7L1086.6 5906.7Z"/>
<path transform="matrix(.1,0,0,-.1,0,792)" d="M1324.3 4924.9 1086.6 5252.2 701.898 5127.2V4722.6L1086.6 4597.6" fill="#ffde66"/>
<path transform="matrix(.1,0,0,-.1,0,792)" stroke-width="1" stroke-linecap="butt" stroke-miterlimit="10" stroke-linejoin="miter" fill="none" stroke="#000000" d="M1324.3 4924.9 1086.6 5252.2 701.898 5127.2V4722.6L1086.6 4597.6Z"/>
<path transform="matrix(.1,0,0,-.1,0,792)" d="M1324.3 3615.9 1086.6 3943.1 701.898 3818.1V3413.6L1086.6 3288.6" fill="#ffde66"/>
<path transform="matrix(.1,0,0,-.1,0,792)" stroke-width="1" stroke-linecap="butt" stroke-miterlimit="10" stroke-linejoin="miter" fill="none" stroke="#000000" d="M1324.3 3615.9 1086.6 3943.1 701.898 3818.1V3413.6L1086.6 3288.6Z"/>
<path transform="matrix(.1,0,0,-.1,0,792)" d="M1324.3 2306.9 1086.6 2634.1 701.898 2509.1V2104.6L1086.6 1979.6" fill="#ffde66"/>
<path transform="matrix(.1,0,0,-.1,0,792)" stroke-width="1" stroke-linecap="butt" stroke-miterlimit="10" stroke-linejoin="miter" fill="none" stroke="#000000" d="M1324.3 2306.9 1086.6 2634.1 701.898 2509.1V2104.6L1086.6 1979.6Z"/>
<path transform="matrix(.1,0,0,-.1,0,792)" d="M3576.5 6561.2 3961.2 6686.2V7090.7L3576.5 7215.7 3338.7 6888.4" fill="#ffde66"/>
<path transform="matrix(.1,0,0,-.1,0,792)" stroke-width="1" stroke-linecap="butt" stroke-miterlimit="10" stroke-linejoin="miter" fill="none" stroke="#000000" d="M3576.5 6561.2 3961.2 6686.2V7090.7L3576.5 7215.7 3338.7 6888.4Z"/>
<path transform="matrix(.1,0,0,-.1,0,792)" d="M1471.3 1854.6V1450.1L1086.6 1325.1 1324.3 997.801 1086.6 670.602 1471.3 545.602V950.102L1856 1075.1 1618.2 1402.4 1856 1729.6" fill="#805900"/>
<path transform="matrix(.1,0,0,-.1,0,792)" stroke-width="1" stroke-linecap="butt" stroke-miterlimit="10" stroke-linejoin="miter" fill="none" stroke="#000000" d="M1471.3 1854.6V1450.1L1086.6 1325.1 1324.3 997.801 1086.6 670.602 1471.3 545.602V950.102L1856 1075.1 1618.2 1402.4 1856 1729.6Z"/>
<path transform="matrix(.1,0,0,-.1,0,792)" d="M1471.3 1854.6 1086.6 1979.6 848.801 1652.4 1086.6 1325.1 1471.3 1450.1" fill="#ffde66"/>
<path transform="matrix(.1,0,0,-.1,0,792)" stroke-width="1" stroke-linecap="butt" stroke-miterlimit="10" stroke-linejoin="miter" fill="none" stroke="#000000" d="M1471.3 1854.6 1086.6 1979.6 848.801 1652.4 1086.6 1325.1 1471.3 1450.1Z"/>
<path transform="matrix(.1,0,0,-.1,0,792)" d="M2716.2 1854.6 2331.5 1729.6 2569.3 1402.4 2716.2 1604.6Z" fill="#5c6600"/>
<path transform="matrix(.1,0,0,-.1,0,792)" stroke-width="1" stroke-linecap="butt" stroke-miterlimit="10" stroke-linejoin="miter" fill="none" stroke="#000000" d="M2716.2 1854.6 2331.5 1729.6 2569.3 1402.4 2716.2 1604.6Z"/>
<path transform="matrix(.1,0,0,-.1,0,792)" d="M3961.2 1854.6V1450.1L3576.5 1325.1 3814.2 997.801 3576.5 670.602 3961.2 545.602V950.102L4345.9 1075.1 4108.1 1402.4 4345.9 1729.6" fill="#805900"/>
<path transform="matrix(.1,0,0,-.1,0,792)" stroke-width="1" stroke-linecap="butt" stroke-miterlimit="10" stroke-linejoin="miter" fill="none" stroke="#000000" d="M3961.2 1854.6V1450.1L3576.5 1325.1 3814.2 997.801 3576.5 670.602 3961.2 545.602V950.102L4345.9 1075.1 4108.1 1402.4 4345.9 1729.6Z"/>
<path transform="matrix(.1,0,0,-.1,0,792)" d="M2569.3 6638.4 2716.2 6840.7V7090.7L2331.5 6965.7Z" fill="#5c6600"/>
<path transform="matrix(.1,0,0,-.1,0,792)" stroke-width="1" stroke-linecap="butt" stroke-miterlimit="10" stroke-linejoin="miter" fill="none" stroke="#000000" d="M2569.3 6638.4 2716.2 6840.7V7090.7L2331.5 6965.7Z"/>
<path transform="matrix(.1,0,0,-.1,0,792)" d="M1471.3 6686.2V7090.7L1086.6 7215.7 848.801 6888.4 1086.6 6561.2" fill="#ffde66"/>
<path transform="matrix(.1,0,0,-.1,0,792)" stroke-width="1" stroke-linecap="butt" stroke-miterlimit="10" stroke-linejoin="miter" fill="none" stroke="#000000" d="M1471.3 6686.2V7090.7L1086.6 7215.7 848.801 6888.4 1086.6 6561.2Z"/>
<path transform="matrix(.1,0,0,-.1,0,792)" d="M1856 1729.6 1618.2 1402.4 1856 1075.1 2093.8 1152.4 2331.5 1075.1 2569.3 1402.4 2331.5 1729.6 2093.8 1652.4" fill="#ffffff"/>
<path transform="matrix(.1,0,0,-.1,0,792)" stroke-width="1" stroke-linecap="butt" stroke-miterlimit="10" stroke-linejoin="miter" fill="none" stroke="#000000" d="M1856 1729.6 1618.2 1402.4 1856 1075.1 2093.8 1152.4 2331.5 1075.1 2569.3 1402.4 2331.5 1729.6 2093.8 1652.4Z"/>
<path transform="matrix(.1,0,0,-.1,0,792)" d="M4345.9 1729.6 4108.1 1402.4 4345.9 1075.1 4583.7 1152.4 4821.4 1075.1 5059.2 1402.4 4821.4 1729.6 4583.7 1652.4" fill="#ffffff"/>
<path transform="matrix(.1,0,0,-.1,0,792)" stroke-width="1" stroke-linecap="butt" stroke-miterlimit="10" stroke-linejoin="miter" fill="none" stroke="#000000" d="M4345.9 1729.6 4108.1 1402.4 4345.9 1075.1 4583.7 1152.4 4821.4 1075.1 5059.2 1402.4 4821.4 1729.6 4583.7 1652.4Z"/>
<path transform="matrix(.1,0,0,-.1,0,792)" d="M4821.4 1729.6 5059.2 1402.4 5206.1 1604.6V1854.6Z" fill="#5c6600"/>
<path transform="matrix(.1,0,0,-.1,0,792)" stroke-width="1" stroke-linecap="butt" stroke-miterlimit="10" stroke-linejoin="miter" fill="none" stroke="#000000" d="M4821.4 1729.6 5059.2 1402.4 5206.1 1604.6V1854.6Z"/>
<path transform="matrix(.1,0,0,-.1,0,792)" d="M4821.4 2384.1 5206.1 2259.1V1854.6L5590.9 1979.6 5828.6 1652.4 6066.4 1979.6 5681.7 2104.6V2509.1L5297 2384.1 5059.2 2711.4" fill="#805900"/>
<path transform="matrix(.1,0,0,-.1,0,792)" stroke-width="1" stroke-linecap="butt" stroke-miterlimit="10" stroke-linejoin="miter" fill="none" stroke="#000000" d="M4821.4 2384.1 5206.1 2259.1V1854.6L5590.9 1979.6 5828.6 1652.4 6066.4 1979.6 5681.7 2104.6V2509.1L5297 2384.1 5059.2 2711.4Z"/>
<path transform="matrix(.1,0,0,-.1,0,792)" d="M4821.4 3038.6 5059.2 2711.4 5206.1 2913.6V3163.6Z" fill="#5c6600"/>
<path transform="matrix(.1,0,0,-.1,0,792)" stroke-width="1" stroke-linecap="butt" stroke-miterlimit="10" stroke-linejoin="miter" fill="none" stroke="#000000" d="M4821.4 3038.6 5059.2 2711.4 5206.1 2913.6V3163.6Z"/>
<path transform="matrix(.1,0,0,-.1,0,792)" d="M4821.4 3693.1 5206.1 3568.1V3163.6L5590.9 3288.6 5828.6 2961.4 6066.4 3288.6 5681.7 3413.6V3818.1L5297 3693.1 5059.2 4020.4" fill="#805900"/>
<path transform="matrix(.1,0,0,-.1,0,792)" stroke-width="1" stroke-linecap="butt" stroke-miterlimit="10" stroke-linejoin="miter" fill="none" stroke="#000000" d="M4821.4 3693.1 5206.1 3568.1V3163.6L5590.9 3288.6 5828.6 2961.4 6066.4 3288.6 5681.7 3413.6V3818.1L5297 3693.1 5059.2 4020.4Z"/>
<path transform="matrix(.1,0,0,-.1,0,792)" d="M4821.4 4347.6 5059.2 4020.4 5206.1 4222.6V4472.6Z" fill="#5c6600"/>
<path transform="matrix(.1,0,0,-.1,0,792)" stroke-width="1" stroke-linecap="butt" stroke-miterlimit="10" stroke-linejoin="miter" fill="none" stroke="#000000" d="M4821.4 4347.6 5059.2 4020.4 5206.1 4222.6V4472.6Z"/>
<path transform="matrix(.1,0,0,-.1,0,792)" d="M4821.4 5002.2 5206.1 4877.2V4472.6L5590.9 4597.6 5828.6 4270.4 6066.4 4597.6 5681.7 4722.6V5127.2L5297 5002.2 5059.2 5329.4" fill="#805900"/>
<path transform="matrix(.1,0,0,-.1,0,792)" stroke-width="1" stroke-linecap="butt" stroke-miterlimit="10" stroke-linejoin="miter" fill="none" stroke="#000000" d="M4821.4 5002.2 5206.1 4877.2V4472.6L5590.9 4597.6 5828.6 4270.4 6066.4 4597.6 5681.7 4722.6V5127.2L5297 5002.2 5059.2 5329.4Z"/>
<path transform="matrix(.1,0,0,-.1,0,792)" d="M4821.4 5656.7 5059.2 5329.4 5206.1 5531.7V5781.7Z" fill="#5c6600"/>
<path transform="matrix(.1,0,0,-.1,0,792)" stroke-width="1" stroke-linecap="butt" stroke-miterlimit="10" stroke-linejoin="miter" fill="none" stroke="#000000" d="M4821.4 5656.7 5059.2 5329.4 5206.1 5531.7V5781.7Z"/>
<path transform="matrix(.1,0,0,-.1,0,792)" d="M4821.4 6311.2 5206.1 6186.2V5781.7L5590.9 5906.7 5828.6 5579.4 6066.4 5906.7 5681.7 6031.7V6436.2L5297 6311.2 5059.2 6638.4" fill="#805900"/>
<path transform="matrix(.1,0,0,-.1,0,792)" stroke-width="1" stroke-linecap="butt" stroke-miterlimit="10" stroke-linejoin="miter" fill="none" stroke="#000000" d="M4821.4 6311.2 5206.1 6186.2V5781.7L5590.9 5906.7 5828.6 5579.4 6066.4 5906.7 5681.7 6031.7V6436.2L5297 6311.2 5059.2 6638.4Z"/>
<path transform="matrix(.1,0,0,-.1,0,792)" d="M3338.7 1652.4 3191.8 1450.1V1200.1L3576.5 1325.1Z" fill="#5c6600"/>
<path transform="matrix(.1,0,0,-.1,0,792)" stroke-width="1" stroke-linecap="butt" stroke-miterlimit="10" stroke-linejoin="miter" fill="none" stroke="#000000" d="M3338.7 1652.4 3191.8 1450.1V1200.1L3576.5 1325.1Z"/>
<path transform="matrix(.1,0,0,-.1,0,792)" d="M1086.6 6561.2 848.801 6888.4 701.898 6686.2V6436.2Z" fill="#5c6600"/>
<path transform="matrix(.1,0,0,-.1,0,792)" stroke-width="1" stroke-linecap="butt" stroke-miterlimit="10" stroke-linejoin="miter" fill="none" stroke="#000000" d="M1086.6 6561.2 848.801 6888.4 701.898 6686.2V6436.2Z"/>
<path transform="matrix(.1,0,0,-.1,0,792)" d="M1086.6 5906.7 701.898 6031.7V6436.2L317.199 6311.2 79.3984 6638.4-158.398 6311.2 226.301 6186.2V5781.7L611.102 5906.7 848.801 5579.4" fill="#805900"/>
<path transform="matrix(.1,0,0,-.1,0,792)" stroke-width="1" stroke-linecap="butt" stroke-miterlimit="10" stroke-linejoin="miter" fill="none" stroke="#000000" d="M1086.6 5906.7 701.898 6031.7V6436.2L317.199 6311.2 79.3984 6638.4-158.398 6311.2 226.301 6186.2V5781.7L611.102 5906.7 848.801 5579.4Z"/>
<path transform="matrix(.1,0,0,-.1,0,792)" d="M1086.6 5252.2 848.801 5579.4 701.898 5377.2V5127.2Z" fill="#5c6600"/>
<path transform="matrix(.1,0,0,-.1,0,792)" stroke-width="1" stroke-linecap="butt" stroke-miterlimit="10" stroke-linejoin="miter" fill="none" stroke="#000000" d="M1086.6 5252.2 848.801 5579.4 701.898 5377.2V5127.2Z"/>
<path transform="matrix(.1,0,0,-.1,0,792)" d="M1086.6 4597.6 701.898 4722.6V5127.2L317.199 5002.2 79.3984 5329.4-158.398 5002.2 226.301 4877.2V4472.6L611.102 4597.6 848.801 4270.4" fill="#805900"/>
<path transform="matrix(.1,0,0,-.1,0,792)" stroke-width="1" stroke-linecap="butt" stroke-miterlimit="10" stroke-linejoin="miter" fill="none" stroke="#000000" d="M1086.6 4597.6 701.898 4722.6V5127.2L317.199 5002.2 79.3984 5329.4-158.398 5002.2 226.301 4877.2V4472.6L611.102 4597.6 848.801 4270.4Z"/>
<path transform="matrix(.1,0,0,-.1,0,792)" d="M1086.6 3943.1 848.801 4270.4 701.898 4068.1V3818.1Z" fill="#5c6600"/>
<path transform="matrix(.1,0,0,-.1,0,792)" stroke-width="1" stroke-linecap="butt" stroke-miterlimit="10" stroke-linejoin="miter" fill="none" stroke="#000000" d="M1086.6 3943.1 848.801 4270.4 701.898 4068.1V3818.1Z"/>
<path transform="matrix(.1,0,0,-.1,0,792)" d="M1086.6 3288.6 701.898 3413.6V3818.1L317.199 3693.1 79.3984 4020.4-158.398 3693.1 226.301 3568.1V3163.6L611.102 3288.6 848.801 2961.4" fill="#805900"/>
<path transform="matrix(.1,0,0,-.1,0,792)" stroke-width="1" stroke-linecap="butt" stroke-miterlimit="10" stroke-linejoin="miter" fill="none" stroke="#000000" d="M1086.6 3288.6 701.898 3413.6V3818.1L317.199 3693.1 79.3984 4020.4-158.398 3693.1 226.301 3568.1V3163.6L611.102 3288.6 848.801 2961.4Z"/>
<path transform="matrix(.1,0,0,-.1,0,792)" d="M1086.6 2634.1 848.801 2961.4 701.898 2759.1V2509.1Z" fill="#5c6600"/>
<path transform="matrix(.1,0,0,-.1,0,792)" stroke-width="1" stroke-linecap="butt" stroke-miterlimit="10" stroke-linejoin="miter" fill="none" stroke="#000000" d="M1086.6 2634.1 848.801 2961.4 701.898 2759.1V2509.1Z"/>
<path transform="matrix(.1,0,0,-.1,0,792)" d="M1086.6 1979.6 701.898 2104.6V2509.1L317.199 2384.1 79.3984 2711.4-158.398 2384.1 226.301 2259.1V1854.6L611.102 1979.6 848.801 1652.4" fill="#805900"/>
<path transform="matrix(.1,0,0,-.1,0,792)" stroke-width="1" stroke-linecap="butt" stroke-miterlimit="10" stroke-linejoin="miter" fill="none" stroke="#000000" d="M1086.6 1979.6 701.898 2104.6V2509.1L317.199 2384.1 79.3984 2711.4-158.398 2384.1 226.301 2259.1V1854.6L611.102 1979.6 848.801 1652.4Z"/>
<path transform="matrix(.1,0,0,-.1,0,792)" d="M4583.7 6888.4 4821.4 6965.7 4583.7 7292.9 4345.9 6965.7Z" fill="#5c6600"/>
<path transform="matrix(.1,0,0,-.1,0,792)" stroke-width="1" stroke-linecap="butt" stroke-miterlimit="10" stroke-linejoin="miter" fill="none" stroke="#000000" d="M4583.7 6888.4 4821.4 6965.7 4583.7 7292.9 4345.9 6965.7Z"/>
<path transform="matrix(.1,0,0,-.1,0,792)" d="M3338.7 6888.4 3576.5 7215.7 3191.8 7340.7V7745.2L2807.1 7620.2 2569.3 7947.4 2331.5 7620.2 2716.2 7495.2V7090.7L3101 7215.7" fill="#805900"/>
<path transform="matrix(.1,0,0,-.1,0,792)" stroke-width="1" stroke-linecap="butt" stroke-miterlimit="10" stroke-linejoin="miter" fill="none" stroke="#000000" d="M3338.7 6888.4 3576.5 7215.7 3191.8 7340.7V7745.2L2807.1 7620.2 2569.3 7947.4 2331.5 7620.2 2716.2 7495.2V7090.7L3101 7215.7Z"/>
<path transform="matrix(.1,0,0,-.1,0,792)" d="M2093.8 6888.4 2331.5 6965.7 2093.8 7292.9 1856 6965.7Z" fill="#5c6600"/>
<path transform="matrix(.1,0,0,-.1,0,792)" stroke-width="1" stroke-linecap="butt" stroke-miterlimit="10" stroke-linejoin="miter" fill="none" stroke="#000000" d="M2093.8 6888.4 2331.5 6965.7 2093.8 7292.9 1856 6965.7Z"/>
<path transform="matrix(.1,0,0,-.1,0,792)" d="M2331.5 6965.7 2716.2 7090.7V7495.2L2331.5 7620.2 2093.8 7292.9" fill="#ffde66"/>
<path transform="matrix(.1,0,0,-.1,0,792)" stroke-width="1" stroke-linecap="butt" stroke-miterlimit="10" stroke-linejoin="miter" fill="none" stroke="#000000" d="M2331.5 6965.7 2716.2 7090.7V7495.2L2331.5 7620.2 2093.8 7292.9Z"/>
<path transform="matrix(.1,0,0,-.1,0,792)" d="M1856 6965.7 2093.8 7292.9 1856 7620.2 1471.3 7495.2V7090.7" fill="#ffde66"/>
<path transform="matrix(.1,0,0,-.1,0,792)" stroke-width="1" stroke-linecap="butt" stroke-miterlimit="10" stroke-linejoin="miter" fill="none" stroke="#000000" d="M1856 6965.7 2093.8 7292.9 1856 7620.2 1471.3 7495.2V7090.7Z"/>
<path transform="matrix(.1,0,0,-.1,0,792)" d="M4821.4 6965.7 5206.1 7090.7V7495.2L4821.4 7620.2 4583.7 7292.9" fill="#ffde66"/>
<path transform="matrix(.1,0,0,-.1,0,792)" stroke-width="1" stroke-linecap="butt" stroke-miterlimit="10" stroke-linejoin="miter" fill="none" stroke="#000000" d="M4821.4 6965.7 5206.1 7090.7V7495.2L4821.4 7620.2 4583.7 7292.9Z"/>
<path transform="matrix(.1,0,0,-.1,0,792)" d="M4821.4 6965.7 5059.2 6638.4 5206.1 6840.7V7090.7Z" fill="#5c6600"/>
<path transform="matrix(.1,0,0,-.1,0,792)" stroke-width="1" stroke-linecap="butt" stroke-miterlimit="10" stroke-linejoin="miter" fill="none" stroke="#000000" d="M4821.4 6965.7 5059.2 6638.4 5206.1 6840.7V7090.7Z"/>
<path transform="matrix(.1,0,0,-.1,0,792)" d="M4345.9 6965.7 4583.7 7292.9 4345.9 7620.2 3961.2 7495.2V7090.7" fill="#ffde66"/>
<path transform="matrix(.1,0,0,-.1,0,792)" stroke-width="1" stroke-linecap="butt" stroke-miterlimit="10" stroke-linejoin="miter" fill="none" stroke="#000000" d="M4345.9 6965.7 4583.7 7292.9 4345.9 7620.2 3961.2 7495.2V7090.7Z"/>
<path transform="matrix(.1,0,0,-.1,0,792)" d="M2569.3 1402.4 2331.5 1075.1 2716.2 950.102V545.602L3101 670.602 3338.7 343.301 3576.5 670.602 3191.8 795.602V1200.1L2807.1 1075.1" fill="#805900"/>
<path transform="matrix(.1,0,0,-.1,0,792)" stroke-width="1" stroke-linecap="butt" stroke-miterlimit="10" stroke-linejoin="miter" fill="none" stroke="#000000" d="M2569.3 1402.4 2331.5 1075.1 2716.2 950.102V545.602L3101 670.602 3338.7 343.301 3576.5 670.602 3191.8 795.602V1200.1L2807.1 1075.1Z"/>
<path transform="matrix(.1,0,0,-.1,0,792)" d="M5059.2 1402.4 5297 1075.1 5681.7 1200.1V1450.1L5828.6 1652.4 5590.9 1979.6 5206.1 1854.6V1604.6" fill="#ffffff"/>
<path transform="matrix(.1,0,0,-.1,0,792)" stroke-width="1" stroke-linecap="butt" stroke-miterlimit="10" stroke-linejoin="miter" fill="none" stroke="#000000" d="M5059.2 1402.4 5297 1075.1 5681.7 1200.1V1450.1L5828.6 1652.4 5590.9 1979.6 5206.1 1854.6V1604.6Z"/>
<path transform="matrix(.1,0,0,-.1,0,792)" d="M5059.2 1402.4 4821.4 1075.1 5206.1 950.102V545.602L5590.9 670.602 5828.6 343.301 6066.4 670.602 5681.7 795.602V1200.1L5297 1075.1" fill="#805900"/>
<path transform="matrix(.1,0,0,-.1,0,792)" stroke-width="1" stroke-linecap="butt" stroke-miterlimit="10" stroke-linejoin="miter" fill="none" stroke="#000000" d="M5059.2 1402.4 4821.4 1075.1 5206.1 950.102V545.602L5590.9 670.602 5828.6 343.301 6066.4 670.602 5681.7 795.602V1200.1L5297 1075.1Z"/>
<path transform="matrix(.1,0,0,-.1,0,792)" d="M5059.2 2711.4 5297 2384.1 5681.7 2509.1V2759.1L5828.6 2961.4 5590.9 3288.6 5206.1 3163.6V2913.6" fill="#ffffff"/>
<path transform="matrix(.1,0,0,-.1,0,792)" stroke-width="1" stroke-linecap="butt" stroke-miterlimit="10" stroke-linejoin="miter" fill="none" stroke="#000000" d="M5059.2 2711.4 5297 2384.1 5681.7 2509.1V2759.1L5828.6 2961.4 5590.9 3288.6 5206.1 3163.6V2913.6Z"/>
<path transform="matrix(.1,0,0,-.1,0,792)" d="M5059.2 4020.4 5297 3693.1 5681.7 3818.1V4068.1L5828.6 4270.4 5590.9 4597.6 5206.1 4472.6V4222.6" fill="#ffffff"/>
<path transform="matrix(.1,0,0,-.1,0,792)" stroke-width="1" stroke-linecap="butt" stroke-miterlimit="10" stroke-linejoin="miter" fill="none" stroke="#000000" d="M5059.2 4020.4 5297 3693.1 5681.7 3818.1V4068.1L5828.6 4270.4 5590.9 4597.6 5206.1 4472.6V4222.6Z"/>
<path transform="matrix(.1,0,0,-.1,0,792)" d="M5059.2 5329.4 5297 5002.2 5681.7 5127.2V5377.2L5828.6 5579.4 5590.9 5906.7 5206.1 5781.7V5531.7" fill="#ffffff"/>
<path transform="matrix(.1,0,0,-.1,0,792)" stroke-width="1" stroke-linecap="butt" stroke-miterlimit="10" stroke-linejoin="miter" fill="none" stroke="#000000" d="M5059.2 5329.4 5297 5002.2 5681.7 5127.2V5377.2L5828.6 5579.4 5590.9 5906.7 5206.1 5781.7V5531.7Z"/>
<path transform="matrix(.1,0,0,-.1,0,792)" d="M5059.2 6638.4 5297 6311.2 5681.7 6436.2V6686.2L5828.6 6888.4 5590.9 7215.7 5206.1 7090.7V6840.7" fill="#ffffff"/>
<path transform="matrix(.1,0,0,-.1,0,792)" stroke-width="1" stroke-linecap="butt" stroke-miterlimit="10" stroke-linejoin="miter" fill="none" stroke="#000000" d="M5059.2 6638.4 5297 6311.2 5681.7 6436.2V6686.2L5828.6 6888.4 5590.9 7215.7 5206.1 7090.7V6840.7Z"/>
<path transform="matrix(.1,0,0,-.1,0,792)" d="M3961.2 7090.7V7495.2L4345.9 7620.2 4108.1 7947.4 4345.9 8274.7 3961.2 8399.7V7995.2L3576.5 7870.2 3814.2 7542.9 3576.5 7215.7" fill="#805900"/>
<path transform="matrix(.1,0,0,-.1,0,792)" stroke-width="1" stroke-linecap="butt" stroke-miterlimit="10" stroke-linejoin="miter" fill="none" stroke="#000000" d="M3961.2 7090.7V7495.2L4345.9 7620.2 4108.1 7947.4 4345.9 8274.7 3961.2 8399.7V7995.2L3576.5 7870.2 3814.2 7542.9 3576.5 7215.7Z"/>
<path transform="matrix(.1,0,0,-.1,0,792)" d="M1471.3 7090.7V7495.2L1856 7620.2 1618.2 7947.4 1856 8274.7 1471.3 8399.7V7995.2L1086.6 7870.2 1324.3 7542.9 1086.6 7215.7" fill="#805900"/>
<path transform="matrix(.1,0,0,-.1,0,792)" stroke-width="1" stroke-linecap="butt" stroke-miterlimit="10" stroke-linejoin="miter" fill="none" stroke="#000000" d="M1471.3 7090.7V7495.2L1856 7620.2 1618.2 7947.4 1856 8274.7 1471.3 8399.7V7995.2L1086.6 7870.2 1324.3 7542.9 1086.6 7215.7Z"/>
<path transform="matrix(.1,0,0,-.1,0,792)" d="M1086.6 1325.1 701.898 1200.1V795.602L1086.6 670.602 1324.3 997.801" fill="#ffde66"/>
<path transform="matrix(.1,0,0,-.1,0,792)" stroke-width="1" stroke-linecap="butt" stroke-miterlimit="10" stroke-linejoin="miter" fill="none" stroke="#000000" d="M1086.6 1325.1 701.898 1200.1V795.602L1086.6 670.602 1324.3 997.801Z"/>
<path transform="matrix(.1,0,0,-.1,0,792)" d="M1086.6 1325.1 848.801 1652.4 701.898 1450.1V1200.1Z" fill="#5c6600"/>
<path transform="matrix(.1,0,0,-.1,0,792)" stroke-width="1" stroke-linecap="butt" stroke-miterlimit="10" stroke-linejoin="miter" fill="none" stroke="#000000" d="M1086.6 1325.1 848.801 1652.4 701.898 1450.1V1200.1Z"/>
<path transform="matrix(.1,0,0,-.1,0,792)" d="M3576.5 1325.1 3191.8 1200.1V795.602L3576.5 670.602 3814.2 997.801" fill="#ffde66"/>
<path transform="matrix(.1,0,0,-.1,0,792)" stroke-width="1" stroke-linecap="butt" stroke-miterlimit="10" stroke-linejoin="miter" fill="none" stroke="#000000" d="M3576.5 1325.1 3191.8 1200.1V795.602L3576.5 670.602 3814.2 997.801Z"/>
<path transform="matrix(.1,0,0,-.1,0,792)" d="M848.801 6888.4 611.102 7215.7 226.301 7090.7V6840.7L79.3984 6638.4 317.199 6311.2 701.898 6436.2V6686.2" fill="#ffffff"/>
<path transform="matrix(.1,0,0,-.1,0,792)" stroke-width="1" stroke-linecap="butt" stroke-miterlimit="10" stroke-linejoin="miter" fill="none" stroke="#000000" d="M848.801 6888.4 611.102 7215.7 226.301 7090.7V6840.7L79.3984 6638.4 317.199 6311.2 701.898 6436.2V6686.2Z"/>
<path transform="matrix(.1,0,0,-.1,0,792)" d="M848.801 6888.4 1086.6 7215.7 701.898 7340.7V7745.2L317.199 7620.2 79.3984 7947.4-158.398 7620.2 226.301 7495.2V7090.7L611.102 7215.7" fill="#805900"/>
<path transform="matrix(.1,0,0,-.1,0,792)" stroke-width="1" stroke-linecap="butt" stroke-miterlimit="10" stroke-linejoin="miter" fill="none" stroke="#000000" d="M848.801 6888.4 1086.6 7215.7 701.898 7340.7V7745.2L317.199 7620.2 79.3984 7947.4-158.398 7620.2 226.301 7495.2V7090.7L611.102 7215.7Z"/>
<path transform="matrix(.1,0,0,-.1,0,792)" d="M848.801 5579.4 611.102 5906.7 226.301 5781.7V5531.7L79.3984 5329.4 317.199 5002.2 701.898 5127.2V5377.2" fill="#ffffff"/>
<path transform="matrix(.1,0,0,-.1,0,792)" stroke-width="1" stroke-linecap="butt" stroke-miterlimit="10" stroke-linejoin="miter" fill="none" stroke="#000000" d="M848.801 5579.4 611.102 5906.7 226.301 5781.7V5531.7L79.3984 5329.4 317.199 5002.2 701.898 5127.2V5377.2Z"/>
<path transform="matrix(.1,0,0,-.1,0,792)" d="M848.801 4270.4 611.102 4597.6 226.301 4472.6V4222.6L79.3984 4020.4 317.199 3693.1 701.898 3818.1V4068.1" fill="#ffffff"/>
<path transform="matrix(.1,0,0,-.1,0,792)" stroke-width="1" stroke-linecap="butt" stroke-miterlimit="10" stroke-linejoin="miter" fill="none" stroke="#000000" d="M848.801 4270.4 611.102 4597.6 226.301 4472.6V4222.6L79.3984 4020.4 317.199 3693.1 701.898 3818.1V4068.1Z"/>
<path transform="matrix(.1,0,0,-.1,0,792)" d="M848.801 2961.4 611.102 3288.6 226.301 3163.6V2913.6L79.3984 2711.4 317.199 2384.1 701.898 2509.1V2759.1" fill="#ffffff"/>
<path transform="matrix(.1,0,0,-.1,0,792)" stroke-width="1" stroke-linecap="butt" stroke-miterlimit="10" stroke-linejoin="miter" fill="none" stroke="#000000" d="M848.801 2961.4 611.102 3288.6 226.301 3163.6V2913.6L79.3984 2711.4 317.199 2384.1 701.898 2509.1V2759.1Z"/>
<path transform="matrix(.1,0,0,-.1,0,792)" d="M848.801 1652.4 611.102 1979.6 226.301 1854.6V1604.6L79.3984 1402.4 317.199 1075.1 701.898 1200.1V1450.1" fill="#ffffff"/>
<path transform="matrix(.1,0,0,-.1,0,792)" stroke-width="1" stroke-linecap="butt" stroke-miterlimit="10" stroke-linejoin="miter" fill="none" stroke="#000000" d="M848.801 1652.4 611.102 1979.6 226.301 1854.6V1604.6L79.3984 1402.4 317.199 1075.1 701.898 1200.1V1450.1Z"/>
<path transform="matrix(.1,0,0,-.1,0,792)" d="M3576.5 7215.7 3814.2 7542.9 3576.5 7870.2 3191.8 7745.2V7340.7" fill="#ffde66"/>
<path transform="matrix(.1,0,0,-.1,0,792)" stroke-width="1" stroke-linecap="butt" stroke-miterlimit="10" stroke-linejoin="miter" fill="none" stroke="#000000" d="M3576.5 7215.7 3814.2 7542.9 3576.5 7870.2 3191.8 7745.2V7340.7Z"/>
<path transform="matrix(.1,0,0,-.1,0,792)" d="M1086.6 7215.7 1324.3 7542.9 1086.6 7870.2 701.898 7745.2V7340.7" fill="#ffde66"/>
<path transform="matrix(.1,0,0,-.1,0,792)" stroke-width="1" stroke-linecap="butt" stroke-miterlimit="10" stroke-linejoin="miter" fill="none" stroke="#000000" d="M1086.6 7215.7 1324.3 7542.9 1086.6 7870.2 701.898 7745.2V7340.7Z"/>
<path transform="matrix(.1,0,0,-.1,0,792)" d="M2093.8 1152.4 1856 1075.1 2093.8 747.801 2331.5 1075.1Z" fill="#5c6600"/>
<path transform="matrix(.1,0,0,-.1,0,792)" stroke-width="1" stroke-linecap="butt" stroke-miterlimit="10" stroke-linejoin="miter" fill="none" stroke="#000000" d="M2093.8 1152.4 1856 1075.1 2093.8 747.801 2331.5 1075.1Z"/>
<path transform="matrix(.1,0,0,-.1,0,792)" d="M4583.7 1152.4 4345.9 1075.1 4583.7 747.801 4821.4 1075.1Z" fill="#5c6600"/>
<path transform="matrix(.1,0,0,-.1,0,792)" stroke-width="1" stroke-linecap="butt" stroke-miterlimit="10" stroke-linejoin="miter" fill="none" stroke="#000000" d="M4583.7 1152.4 4345.9 1075.1 4583.7 747.801 4821.4 1075.1Z"/>
<path transform="matrix(.1,0,0,-.1,0,792)" d="M5206.1 7090.7 5590.9 7215.7 5828.6 6888.4 6066.4 7215.7 5681.7 7340.7V7745.2L5297 7620.2 5059.2 7947.4 4821.4 7620.2 5206.1 7495.2" fill="#805900"/>
<path transform="matrix(.1,0,0,-.1,0,792)" stroke-width="1" stroke-linecap="butt" stroke-miterlimit="10" stroke-linejoin="miter" fill="none" stroke="#000000" d="M5206.1 7090.7 5590.9 7215.7 5828.6 6888.4 6066.4 7215.7 5681.7 7340.7V7745.2L5297 7620.2 5059.2 7947.4 4821.4 7620.2 5206.1 7495.2Z"/>
<path transform="matrix(.1,0,0,-.1,0,792)" d="M4583.7 7292.9 4821.4 7620.2 4583.7 7697.4 4345.9 7620.2Z" fill="#5c6600"/>
<path transform="matrix(.1,0,0,-.1,0,792)" stroke-width="1" stroke-linecap="butt" stroke-miterlimit="10" stroke-linejoin="miter" fill="none" stroke="#000000" d="M4583.7 7292.9 4821.4 7620.2 4583.7 7697.4 4345.9 7620.2Z"/>
<path transform="matrix(.1,0,0,-.1,0,792)" d="M2093.8 7292.9 2331.5 7620.2 2093.8 7697.4 1856 7620.2Z" fill="#5c6600"/>
<path transform="matrix(.1,0,0,-.1,0,792)" stroke-width="1" stroke-linecap="butt" stroke-miterlimit="10" stroke-linejoin="miter" fill="none" stroke="#000000" d="M2093.8 7292.9 2331.5 7620.2 2093.8 7697.4 1856 7620.2Z"/>
<path transform="matrix(.1,0,0,-.1,0,792)" d="M701.898 1200.1 317.199 1075.1 79.3984 1402.4-158.398 1075.1 226.301 950.102V545.602L611.102 670.602 848.801 343.301 1086.6 670.602 701.898 795.602" fill="#805900"/>
<path transform="matrix(.1,0,0,-.1,0,792)" stroke-width="1" stroke-linecap="butt" stroke-miterlimit="10" stroke-linejoin="miter" fill="none" stroke="#000000" d="M701.898 1200.1 317.199 1075.1 79.3984 1402.4-158.398 1075.1 226.301 950.102V545.602L611.102 670.602 848.801 343.301 1086.6 670.602 701.898 795.602Z"/>
<path transform="matrix(.1,0,0,-.1,0,792)" d="M1856 1075.1 1471.3 950.102V545.602L1856 420.602 2093.8 747.801" fill="#ffde66"/>
<path transform="matrix(.1,0,0,-.1,0,792)" stroke-width="1" stroke-linecap="butt" stroke-miterlimit="10" stroke-linejoin="miter" fill="none" stroke="#000000" d="M1856 1075.1 1471.3 950.102V545.602L1856 420.602 2093.8 747.801Z"/>
<path transform="matrix(.1,0,0,-.1,0,792)" d="M2331.5 1075.1 2093.8 747.801 2331.5 420.602 2716.2 545.602V950.102" fill="#ffde66"/>
<path transform="matrix(.1,0,0,-.1,0,792)" stroke-width="1" stroke-linecap="butt" stroke-miterlimit="10" stroke-linejoin="miter" fill="none" stroke="#000000" d="M2331.5 1075.1 2093.8 747.801 2331.5 420.602 2716.2 545.602V950.102Z"/>
<path transform="matrix(.1,0,0,-.1,0,792)" d="M4345.9 1075.1 3961.2 950.102V545.602L4345.9 420.602 4583.7 747.801" fill="#ffde66"/>
<path transform="matrix(.1,0,0,-.1,0,792)" stroke-width="1" stroke-linecap="butt" stroke-miterlimit="10" stroke-linejoin="miter" fill="none" stroke="#000000" d="M4345.9 1075.1 3961.2 950.102V545.602L4345.9 420.602 4583.7 747.801Z"/>
<path transform="matrix(.1,0,0,-.1,0,792)" d="M4821.4 1075.1 4583.7 747.801 4821.4 420.602 5206.1 545.602V950.102" fill="#ffde66"/>
<path transform="matrix(.1,0,0,-.1,0,792)" stroke-width="1" stroke-linecap="butt" stroke-miterlimit="10" stroke-linejoin="miter" fill="none" stroke="#000000" d="M4821.4 1075.1 4583.7 747.801 4821.4 420.602 5206.1 545.602V950.102Z"/>
<path transform="matrix(.1,0,0,-.1,0,792)" d="M5297 7620.2 5681.7 7745.2V7995.2L5828.6 8197.4 5590.9 8524.7 5206.1 8399.7V8149.7L5059.2 7947.4" fill="#ffffff"/>
<path transform="matrix(.1,0,0,-.1,0,792)" stroke-width="1" stroke-linecap="butt" stroke-miterlimit="10" stroke-linejoin="miter" fill="none" stroke="#000000" d="M5297 7620.2 5681.7 7745.2V7995.2L5828.6 8197.4 5590.9 8524.7 5206.1 8399.7V8149.7L5059.2 7947.4Z"/>
<path transform="matrix(.1,0,0,-.1,0,792)" d="M4821.4 7620.2 5059.2 7947.4 4821.4 8274.7 4583.7 8197.4 4345.9 8274.7 4108.1 7947.4 4345.9 7620.2 4583.7 7697.4" fill="#ffffff"/>
<path transform="matrix(.1,0,0,-.1,0,792)" stroke-width="1" stroke-linecap="butt" stroke-miterlimit="10" stroke-linejoin="miter" fill="none" stroke="#000000" d="M4821.4 7620.2 5059.2 7947.4 4821.4 8274.7 4583.7 8197.4 4345.9 8274.7 4108.1 7947.4 4345.9 7620.2 4583.7 7697.4Z"/>
<path transform="matrix(.1,0,0,-.1,0,792)" d="M2807.1 7620.2 3191.8 7745.2V7995.2L3338.7 8197.4 3101 8524.7 2716.2 8399.7V8149.7L2569.3 7947.4" fill="#ffffff"/>
<path transform="matrix(.1,0,0,-.1,0,792)" stroke-width="1" stroke-linecap="butt" stroke-miterlimit="10" stroke-linejoin="miter" fill="none" stroke="#000000" d="M2807.1 7620.2 3191.8 7745.2V7995.2L3338.7 8197.4 3101 8524.7 2716.2 8399.7V8149.7L2569.3 7947.4Z"/>
<path transform="matrix(.1,0,0,-.1,0,792)" d="M2331.5 7620.2 2569.3 7947.4 2331.5 8274.7 2093.8 8197.4 1856 8274.7 1618.2 7947.4 1856 7620.2 2093.8 7697.4" fill="#ffffff"/>
<path transform="matrix(.1,0,0,-.1,0,792)" stroke-width="1" stroke-linecap="butt" stroke-miterlimit="10" stroke-linejoin="miter" fill="none" stroke="#000000" d="M2331.5 7620.2 2569.3 7947.4 2331.5 8274.7 2093.8 8197.4 1856 8274.7 1618.2 7947.4 1856 7620.2 2093.8 7697.4Z"/>
<path transform="matrix(.1,0,0,-.1,0,792)" d="M2093.8 747.801 1856 420.602 2093.8 343.301 2331.5 420.602Z" fill="#5c6600"/>
<path transform="matrix(.1,0,0,-.1,0,792)" stroke-width="1" stroke-linecap="butt" stroke-miterlimit="10" stroke-linejoin="miter" fill="none" stroke="#000000" d="M2093.8 747.801 1856 420.602 2093.8 343.301 2331.5 420.602Z"/>
<path transform="matrix(.1,0,0,-.1,0,792)" d="M4583.7 747.801 4345.9 420.602 4583.7 343.301 4821.4 420.602Z" fill="#5c6600"/>
<path transform="matrix(.1,0,0,-.1,0,792)" stroke-width="1" stroke-linecap="butt" stroke-miterlimit="10" stroke-linejoin="miter" fill="none" stroke="#000000" d="M4583.7 747.801 4345.9 420.602 4583.7 343.301 4821.4 420.602Z"/>
<path transform="matrix(.1,0,0,-.1,0,792)" d="M3191.8 7745.2 3576.5 7870.2 3338.7 8197.4 3191.8 7995.2Z" fill="#5c6600"/>
<path transform="matrix(.1,0,0,-.1,0,792)" stroke-width="1" stroke-linecap="butt" stroke-miterlimit="10" stroke-linejoin="miter" fill="none" stroke="#000000" d="M3191.8 7745.2 3576.5 7870.2 3338.7 8197.4 3191.8 7995.2Z"/>
<path transform="matrix(.1,0,0,-.1,0,792)" d="M701.898 7745.2V7995.2L848.801 8197.4 611.102 8524.7 226.301 8399.7V8149.7L79.3984 7947.4 317.199 7620.2" fill="#ffffff"/>
<path transform="matrix(.1,0,0,-.1,0,792)" stroke-width="1" stroke-linecap="butt" stroke-miterlimit="10" stroke-linejoin="miter" fill="none" stroke="#000000" d="M701.898 7745.2V7995.2L848.801 8197.4 611.102 8524.7 226.301 8399.7V8149.7L79.3984 7947.4 317.199 7620.2Z"/>
<path transform="matrix(.1,0,0,-.1,0,792)" d="M701.898 7745.2 1086.6 7870.2 848.801 8197.4 701.898 7995.2Z" fill="#5c6600"/>
<path transform="matrix(.1,0,0,-.1,0,792)" stroke-width="1" stroke-linecap="butt" stroke-miterlimit="10" stroke-linejoin="miter" fill="none" stroke="#000000" d="M701.898 7745.2 1086.6 7870.2 848.801 8197.4 701.898 7995.2Z"/>
<path transform="matrix(.1,0,0,-.1,0,792)" d="M611.102 670.602 226.301 545.602V295.602L79.3984 93.3008 317.199-233.898 701.898-108.898V141.102L848.801 343.301" fill="#ffffff"/>
<path transform="matrix(.1,0,0,-.1,0,792)" stroke-width="1" stroke-linecap="butt" stroke-miterlimit="10" stroke-linejoin="miter" fill="none" stroke="#000000" d="M611.102 670.602 226.301 545.602V295.602L79.3984 93.3008 317.199-233.898 701.898-108.898V141.102L848.801 343.301Z"/>
<path transform="matrix(.1,0,0,-.1,0,792)" d="M1086.6 670.602 848.801 343.301 1086.6 16.1016 1471.3 141.102V545.602" fill="#ffde66"/>
<path transform="matrix(.1,0,0,-.1,0,792)" stroke-width="1" stroke-linecap="butt" stroke-miterlimit="10" stroke-linejoin="miter" fill="none" stroke="#000000" d="M1086.6 670.602 848.801 343.301 1086.6 16.1016 1471.3 141.102V545.602Z"/>
<path transform="matrix(.1,0,0,-.1,0,792)" d="M3101 670.602 2716.2 545.602V295.602L2569.3 93.3008 2807.1-233.898 3191.8-108.898V141.102L3338.7 343.301" fill="#ffffff"/>
<path transform="matrix(.1,0,0,-.1,0,792)" stroke-width="1" stroke-linecap="butt" stroke-miterlimit="10" stroke-linejoin="miter" fill="none" stroke="#000000" d="M3101 670.602 2716.2 545.602V295.602L2569.3 93.3008 2807.1-233.898 3191.8-108.898V141.102L3338.7 343.301Z"/>
<path transform="matrix(.1,0,0,-.1,0,792)" d="M3576.5 670.602 3338.7 343.301 3576.5 16.1016 3961.2 141.102V545.602" fill="#ffde66"/>
<path transform="matrix(.1,0,0,-.1,0,792)" stroke-width="1" stroke-linecap="butt" stroke-miterlimit="10" stroke-linejoin="miter" fill="none" stroke="#000000" d="M3576.5 670.602 3338.7 343.301 3576.5 16.1016 3961.2 141.102V545.602Z"/>
<path transform="matrix(.1,0,0,-.1,0,792)" d="M5590.9 670.602 5206.1 545.602V295.602L5059.2 93.3008 5297-233.898 5681.7-108.898V141.102L5828.6 343.301" fill="#ffffff"/>
<path transform="matrix(.1,0,0,-.1,0,792)" stroke-width="1" stroke-linecap="butt" stroke-miterlimit="10" stroke-linejoin="miter" fill="none" stroke="#000000" d="M5590.9 670.602 5206.1 545.602V295.602L5059.2 93.3008 5297-233.898 5681.7-108.898V141.102L5828.6 343.301Z"/>
<path transform="matrix(.1,0,0,-.1,0,792)" d="M3576.5 7870.2 3961.2 7995.2V8399.7L3576.5 8524.7 3338.7 8197.4" fill="#ffde66"/>
<path transform="matrix(.1,0,0,-.1,0,792)" stroke-width="1" stroke-linecap="butt" stroke-miterlimit="10" stroke-linejoin="miter" fill="none" stroke="#000000" d="M3576.5 7870.2 3961.2 7995.2V8399.7L3576.5 8524.7 3338.7 8197.4Z"/>
<path transform="matrix(.1,0,0,-.1,0,792)" d="M1086.6 7870.2 1471.3 7995.2V8399.7L1086.6 8524.7 848.801 8197.4" fill="#ffde66"/>
<path transform="matrix(.1,0,0,-.1,0,792)" stroke-width="1" stroke-linecap="butt" stroke-miterlimit="10" stroke-linejoin="miter" fill="none" stroke="#000000" d="M1086.6 7870.2 1471.3 7995.2V8399.7L1086.6 8524.7 848.801 8197.4Z"/>
<path transform="matrix(.1,0,0,-.1,0,792)" d="M1471.3 545.602V141.102L1086.6 16.1016 1324.3-311.199 1086.6-638.398 1471.3-763.398V-358.898L1856-233.898 1618.2 93.3008 1856 420.602" fill="#805900"/>
<path transform="matrix(.1,0,0,-.1,0,792)" stroke-width="1" stroke-linecap="butt" stroke-miterlimit="10" stroke-linejoin="miter" fill="none" stroke="#000000" d="M1471.3 545.602V141.102L1086.6 16.1016 1324.3-311.199 1086.6-638.398 1471.3-763.398V-358.898L1856-233.898 1618.2 93.3008 1856 420.602Z"/>
<path transform="matrix(.1,0,0,-.1,0,792)" d="M2716.2 545.602 2331.5 420.602 2569.3 93.3008 2716.2 295.602Z" fill="#5c6600"/>
<path transform="matrix(.1,0,0,-.1,0,792)" stroke-width="1" stroke-linecap="butt" stroke-miterlimit="10" stroke-linejoin="miter" fill="none" stroke="#000000" d="M2716.2 545.602 2331.5 420.602 2569.3 93.3008 2716.2 295.602Z"/>
<path transform="matrix(.1,0,0,-.1,0,792)" d="M3961.2 545.602V141.102L3576.5 16.1016 3814.2-311.199 3576.5-638.398 3961.2-763.398V-358.898L4345.9-233.898 4108.1 93.3008 4345.9 420.602" fill="#805900"/>
<path transform="matrix(.1,0,0,-.1,0,792)" stroke-width="1" stroke-linecap="butt" stroke-miterlimit="10" stroke-linejoin="miter" fill="none" stroke="#000000" d="M3961.2 545.602V141.102L3576.5 16.1016 3814.2-311.199 3576.5-638.398 3961.2-763.398V-358.898L4345.9-233.898 4108.1 93.3008 4345.9 420.602Z"/>
<path transform="matrix(.1,0,0,-.1,0,792)" d="M5206.1 545.602 4821.4 420.602 5059.2 93.3008 5206.1 295.602Z" fill="#5c6600"/>
<path transform="matrix(.1,0,0,-.1,0,792)" stroke-width="1" stroke-linecap="butt" stroke-miterlimit="10" stroke-linejoin="miter" fill="none" stroke="#000000" d="M5206.1 545.602 4821.4 420.602 5059.2 93.3008 5206.1 295.602Z"/>
<path transform="matrix(.1,0,0,-.1,0,792)" d="M5681.7 795.602 6066.4 670.602 6304.1 997.801 6066.4 1325.1 5681.7 1200.1" fill="#ffde66"/>
<path transform="matrix(.1,0,0,-.1,0,792)" stroke-width="1" stroke-linecap="butt" stroke-miterlimit="10" stroke-linejoin="miter" fill="none" stroke="#000000" d="M5681.7 795.602 6066.4 670.602 6304.1 997.801 6066.4 1325.1 5681.7 1200.1Z"/>
<path transform="matrix(.1,0,0,-.1,0,792)" d="M5681.7 1200.1 6066.4 1325.1 5828.6 1652.4 5681.7 1450.1Z" fill="#5c6600"/>
<path transform="matrix(.1,0,0,-.1,0,792)" stroke-width="1" stroke-linecap="butt" stroke-miterlimit="10" stroke-linejoin="miter" fill="none" stroke="#000000" d="M5681.7 1200.1 6066.4 1325.1 5828.6 1652.4 5681.7 1450.1Z"/>
<path transform="matrix(.1,0,0,-.1,0,792)" d="M5681.7 2104.6 6066.4 1979.6 6304.1 2306.9 6066.4 2634.1 5681.7 2509.1" fill="#ffde66"/>
<path transform="matrix(.1,0,0,-.1,0,792)" stroke-width="1" stroke-linecap="butt" stroke-miterlimit="10" stroke-linejoin="miter" fill="none" stroke="#000000" d="M5681.7 2104.6 6066.4 1979.6 6304.1 2306.9 6066.4 2634.1 5681.7 2509.1Z"/>
<path transform="matrix(.1,0,0,-.1,0,792)" d="M5681.7 2509.1 6066.4 2634.1 5828.6 2961.4 5681.7 2759.1Z" fill="#5c6600"/>
<path transform="matrix(.1,0,0,-.1,0,792)" stroke-width="1" stroke-linecap="butt" stroke-miterlimit="10" stroke-linejoin="miter" fill="none" stroke="#000000" d="M5681.7 2509.1 6066.4 2634.1 5828.6 2961.4 5681.7 2759.1Z"/>
<path transform="matrix(.1,0,0,-.1,0,792)" d="M5681.7 3413.6 6066.4 3288.6 6304.1 3615.9 6066.4 3943.1 5681.7 3818.1" fill="#ffde66"/>
<path transform="matrix(.1,0,0,-.1,0,792)" stroke-width="1" stroke-linecap="butt" stroke-miterlimit="10" stroke-linejoin="miter" fill="none" stroke="#000000" d="M5681.7 3413.6 6066.4 3288.6 6304.1 3615.9 6066.4 3943.1 5681.7 3818.1Z"/>
<path transform="matrix(.1,0,0,-.1,0,792)" d="M5681.7 3818.1 6066.4 3943.1 5828.6 4270.4 5681.7 4068.1Z" fill="#5c6600"/>
<path transform="matrix(.1,0,0,-.1,0,792)" stroke-width="1" stroke-linecap="butt" stroke-miterlimit="10" stroke-linejoin="miter" fill="none" stroke="#000000" d="M5681.7 3818.1 6066.4 3943.1 5828.6 4270.4 5681.7 4068.1Z"/>
<path transform="matrix(.1,0,0,-.1,0,792)" d="M5681.7 4722.6 6066.4 4597.6 6304.1 4924.9 6066.4 5252.2 5681.7 5127.2" fill="#ffde66"/>
<path transform="matrix(.1,0,0,-.1,0,792)" stroke-width="1" stroke-linecap="butt" stroke-miterlimit="10" stroke-linejoin="miter" fill="none" stroke="#000000" d="M5681.7 4722.6 6066.4 4597.6 6304.1 4924.9 6066.4 5252.2 5681.7 5127.2Z"/>
<path transform="matrix(.1,0,0,-.1,0,792)" d="M5681.7 5127.2 6066.4 5252.2 5828.6 5579.4 5681.7 5377.2Z" fill="#5c6600"/>
<path transform="matrix(.1,0,0,-.1,0,792)" stroke-width="1" stroke-linecap="butt" stroke-miterlimit="10" stroke-linejoin="miter" fill="none" stroke="#000000" d="M5681.7 5127.2 6066.4 5252.2 5828.6 5579.4 5681.7 5377.2Z"/>
<path transform="matrix(.1,0,0,-.1,0,792)" d="M5681.7 6031.7 6066.4 5906.7 6304.1 6233.9 6066.4 6561.2 5681.7 6436.2" fill="#ffde66"/>
<path transform="matrix(.1,0,0,-.1,0,792)" stroke-width="1" stroke-linecap="butt" stroke-miterlimit="10" stroke-linejoin="miter" fill="none" stroke="#000000" d="M5681.7 6031.7 6066.4 5906.7 6304.1 6233.9 6066.4 6561.2 5681.7 6436.2Z"/>
<path transform="matrix(.1,0,0,-.1,0,792)" d="M5681.7 6436.2 6066.4 6561.2 5828.6 6888.4 5681.7 6686.2Z" fill="#5c6600"/>
<path transform="matrix(.1,0,0,-.1,0,792)" stroke-width="1" stroke-linecap="butt" stroke-miterlimit="10" stroke-linejoin="miter" fill="none" stroke="#000000" d="M5681.7 6436.2 6066.4 6561.2 5828.6 6888.4 5681.7 6686.2Z"/>
<path transform="matrix(.1,0,0,-.1,0,792)" d="M5681.7 7340.7 6066.4 7215.7 6304.1 7542.9 6066.4 7870.2 5681.7 7745.2" fill="#ffde66"/>
<path transform="matrix(.1,0,0,-.1,0,792)" stroke-width="1" stroke-linecap="butt" stroke-miterlimit="10" stroke-linejoin="miter" fill="none" stroke="#000000" d="M5681.7 7340.7 6066.4 7215.7 6304.1 7542.9 6066.4 7870.2 5681.7 7745.2Z"/>
<path transform="matrix(.1,0,0,-.1,0,792)" d="M5681.7 7745.2 6066.4 7870.2 5828.6 8197.4 5681.7 7995.2Z" fill="#5c6600"/>
<path transform="matrix(.1,0,0,-.1,0,792)" stroke-width="1" stroke-linecap="butt" stroke-miterlimit="10" stroke-linejoin="miter" fill="none" stroke="#000000" d="M5681.7 7745.2 6066.4 7870.2 5828.6 8197.4 5681.7 7995.2Z"/>
<path transform="matrix(.1,0,0,-.1,0,792)" d="M226.301 7495.2-158.398 7620.2-396.102 7292.9-158.398 6965.7 226.301 7090.7" fill="#ffde66"/>
<path transform="matrix(.1,0,0,-.1,0,792)" stroke-width="1" stroke-linecap="butt" stroke-miterlimit="10" stroke-linejoin="miter" fill="none" stroke="#000000" d="M226.301 7495.2-158.398 7620.2-396.102 7292.9-158.398 6965.7 226.301 7090.7Z"/>
<path transform="matrix(.1,0,0,-.1,0,792)" d="M226.301 7090.7-158.398 6965.7 79.3984 6638.4 226.301 6840.7Z" fill="#5c6600"/>
<path transform="matrix(.1,0,0,-.1,0,792)" stroke-width="1" stroke-linecap="butt" stroke-miterlimit="10" stroke-linejoin="miter" fill="none" stroke="#000000" d="M226.301 7090.7-158.398 6965.7 79.3984 6638.4 226.301 6840.7Z"/>
<path transform="matrix(.1,0,0,-.1,0,792)" d="M226.301 6186.2-158.398 6311.2-396.102 5983.9-158.398 5656.7 226.301 5781.7" fill="#ffde66"/>
<path transform="matrix(.1,0,0,-.1,0,792)" stroke-width="1" stroke-linecap="butt" stroke-miterlimit="10" stroke-linejoin="miter" fill="none" stroke="#000000" d="M226.301 6186.2-158.398 6311.2-396.102 5983.9-158.398 5656.7 226.301 5781.7Z"/>
<path transform="matrix(.1,0,0,-.1,0,792)" d="M226.301 5781.7-158.398 5656.7 79.3984 5329.4 226.301 5531.7Z" fill="#5c6600"/>
<path transform="matrix(.1,0,0,-.1,0,792)" stroke-width="1" stroke-linecap="butt" stroke-miterlimit="10" stroke-linejoin="miter" fill="none" stroke="#000000" d="M226.301 5781.7-158.398 5656.7 79.3984 5329.4 226.301 5531.7Z"/>
<path transform="matrix(.1,0,0,-.1,0,792)" d="M226.301 4877.2-158.398 5002.2-396.102 4674.9-158.398 4347.6 226.301 4472.6" fill="#ffde66"/>
<path transform="matrix(.1,0,0,-.1,0,792)" stroke-width="1" stroke-linecap="butt" stroke-miterlimit="10" stroke-linejoin="miter" fill="none" stroke="#000000" d="M226.301 4877.2-158.398 5002.2-396.102 4674.9-158.398 4347.6 226.301 4472.6Z"/>
<path transform="matrix(.1,0,0,-.1,0,792)" d="M226.301 4472.6-158.398 4347.6 79.3984 4020.4 226.301 4222.6Z" fill="#5c6600"/>
<path transform="matrix(.1,0,0,-.1,0,792)" stroke-width="1" stroke-linecap="butt" stroke-miterlimit="10" stroke-linejoin="miter" fill="none" stroke="#000000" d="M226.301 4472.6-158.398 4347.6 79.3984 4020.4 226.301 4222.6Z"/>
<path transform="matrix(.1,0,0,-.1,0,792)" d="M226.301 3568.1-158.398 3693.1-396.102 3365.9-158.398 3038.6 226.301 3163.6" fill="#ffde66"/>
<path transform="matrix(.1,0,0,-.1,0,792)" stroke-width="1" stroke-linecap="butt" stroke-miterlimit="10" stroke-linejoin="miter" fill="none" stroke="#000000" d="M226.301 3568.1-158.398 3693.1-396.102 3365.9-158.398 3038.6 226.301 3163.6Z"/>
<path transform="matrix(.1,0,0,-.1,0,792)" d="M226.301 3163.6-158.398 3038.6 79.3984 2711.4 226.301 2913.6Z" fill="#5c6600"/>
<path transform="matrix(.1,0,0,-.1,0,792)" stroke-width="1" stroke-linecap="butt" stroke-miterlimit="10" stroke-linejoin="miter" fill="none" stroke="#000000" d="M226.301 3163.6-158.398 3038.6 79.3984 2711.4 226.301 2913.6Z"/>
<path transform="matrix(.1,0,0,-.1,0,792)" d="M226.301 2259.1-158.398 2384.1-396.102 2056.9-158.398 1729.6 226.301 1854.6" fill="#ffde66"/>
<path transform="matrix(.1,0,0,-.1,0,792)" stroke-width="1" stroke-linecap="butt" stroke-miterlimit="10" stroke-linejoin="miter" fill="none" stroke="#000000" d="M226.301 2259.1-158.398 2384.1-396.102 2056.9-158.398 1729.6 226.301 1854.6Z"/>
<path transform="matrix(.1,0,0,-.1,0,792)" d="M226.301 1854.6-158.398 1729.6 79.3984 1402.4 226.301 1604.6Z" fill="#5c6600"/>
<path transform="matrix(.1,0,0,-.1,0,792)" stroke-width="1" stroke-linecap="butt" stroke-miterlimit="10" stroke-linejoin="miter" fill="none" stroke="#000000" d="M226.301 1854.6-158.398 1729.6 79.3984 1402.4 226.301 1604.6Z"/>
<path transform="matrix(.1,0,0,-.1,0,792)" d="M226.301 950.102-158.398 1075.1-396.102 747.801-158.398 420.602 226.301 545.602" fill="#ffde66"/>
<path transform="matrix(.1,0,0,-.1,0,792)" stroke-width="1" stroke-linecap="butt" stroke-miterlimit="10" stroke-linejoin="miter" fill="none" stroke="#000000" d="M226.301 950.102-158.398 1075.1-396.102 747.801-158.398 420.602 226.301 545.602Z"/>
<path transform="matrix(.1,0,0,-.1,0,792)" d="M226.301 545.602-158.398 420.602 79.3984 93.3008 226.301 295.602Z" fill="#5c6600"/>
<path transform="matrix(.1,0,0,-.1,0,792)" stroke-width="1" stroke-linecap="butt" stroke-miterlimit="10" stroke-linejoin="miter" fill="none" stroke="#000000" d="M226.301 545.602-158.398 420.602 79.3984 93.3008 226.301 295.602Z"/>
<path transform="matrix(.1,0,0,-.1,0,792)" d="M1856 420.602 1618.2 93.3008 1856-233.898 2093.8-156.699 2331.5-233.898 2569.3 93.3008 2331.5 420.602 2093.8 343.301" fill="#ffffff"/>
<path transform="matrix(.1,0,0,-.1,0,792)" stroke-width="1" stroke-linecap="butt" stroke-miterlimit="10" stroke-linejoin="miter" fill="none" stroke="#000000" d="M1856 420.602 1618.2 93.3008 1856-233.898 2093.8-156.699 2331.5-233.898 2569.3 93.3008 2331.5 420.602 2093.8 343.301Z"/>
<path transform="matrix(.1,0,0,-.1,0,792)" d="M4345.9 420.602 4108.1 93.3008 4345.9-233.898 4583.7-156.699 4821.4-233.898 5059.2 93.3008 4821.4 420.602 4583.7 343.301" fill="#ffffff"/>
<path transform="matrix(.1,0,0,-.1,0,792)" stroke-width="1" stroke-linecap="butt" stroke-miterlimit="10" stroke-linejoin="miter" fill="none" stroke="#000000" d="M4345.9 420.602 4108.1 93.3008 4345.9-233.898 4583.7-156.699 4821.4-233.898 5059.2 93.3008 4821.4 420.602 4583.7 343.301Z"/>
<path transform="matrix(.1,0,0,-.1,0,792)" d="M848.801 343.301 701.898 141.102V-108.898L1086.6 16.1016Z" fill="#5c6600"/>
<path transform="matrix(.1,0,0,-.1,0,792)" stroke-width="1" stroke-linecap="butt" stroke-miterlimit="10" stroke-linejoin="miter" fill="none" stroke="#000000" d="M848.801 343.301 701.898 141.102V-108.898L1086.6 16.1016Z"/>
<path transform="matrix(.1,0,0,-.1,0,792)" d="M3338.7 343.301 3191.8 141.102V-108.898L3576.5 16.1016Z" fill="#5c6600"/>
<path transform="matrix(.1,0,0,-.1,0,792)" stroke-width="1" stroke-linecap="butt" stroke-miterlimit="10" stroke-linejoin="miter" fill="none" stroke="#000000" d="M3338.7 343.301 3191.8 141.102V-108.898L3576.5 16.1016Z"/>
<path transform="matrix(.1,0,0,-.1,0,792)" d="M5828.6 343.301 6066.4 16.1016 6451.1 141.102V545.602L6066.4 670.602" fill="#ffde66"/>
<path transform="matrix(.1,0,0,-.1,0,792)" stroke-width="1" stroke-linecap="butt" stroke-miterlimit="10" stroke-linejoin="miter" fill="none" stroke="#000000" d="M5828.6 343.301 6066.4 16.1016 6451.1 141.102V545.602L6066.4 670.602Z"/>
<path transform="matrix(.1,0,0,-.1,0,792)" d="M5828.6 343.301 5681.7 141.102V-108.898L6066.4 16.1016Z" fill="#5c6600"/>
<path transform="matrix(.1,0,0,-.1,0,792)" stroke-width="1" stroke-linecap="butt" stroke-miterlimit="10" stroke-linejoin="miter" fill="none" stroke="#000000" d="M5828.6 343.301 5681.7 141.102V-108.898L6066.4 16.1016Z"/>
<path transform="matrix(.1,0,0,-.1,0,792)" d="M5828.6 1652.4 6066.4 1325.1 6451.1 1450.1V1854.6L6066.4 1979.6" fill="#ffde66"/>
<path transform="matrix(.1,0,0,-.1,0,792)" stroke-width="1" stroke-linecap="butt" stroke-miterlimit="10" stroke-linejoin="miter" fill="none" stroke="#000000" d="M5828.6 1652.4 6066.4 1325.1 6451.1 1450.1V1854.6L6066.4 1979.6Z"/>
<path transform="matrix(.1,0,0,-.1,0,792)" d="M5828.6 2961.4 6066.4 2634.1 6451.1 2759.1V3163.6L6066.4 3288.6" fill="#ffde66"/>
<path transform="matrix(.1,0,0,-.1,0,792)" stroke-width="1" stroke-linecap="butt" stroke-miterlimit="10" stroke-linejoin="miter" fill="none" stroke="#000000" d="M5828.6 2961.4 6066.4 2634.1 6451.1 2759.1V3163.6L6066.4 3288.6Z"/>
<path transform="matrix(.1,0,0,-.1,0,792)" d="M5828.6 4270.4 6066.4 3943.1 6451.1 4068.1V4472.6L6066.4 4597.6" fill="#ffde66"/>
<path transform="matrix(.1,0,0,-.1,0,792)" stroke-width="1" stroke-linecap="butt" stroke-miterlimit="10" stroke-linejoin="miter" fill="none" stroke="#000000" d="M5828.6 4270.4 6066.4 3943.1 6451.1 4068.1V4472.6L6066.4 4597.6Z"/>
<path transform="matrix(.1,0,0,-.1,0,792)" d="M5828.6 5579.4 6066.4 5252.2 6451.1 5377.2V5781.7L6066.4 5906.7" fill="#ffde66"/>
<path transform="matrix(.1,0,0,-.1,0,792)" stroke-width="1" stroke-linecap="butt" stroke-miterlimit="10" stroke-linejoin="miter" fill="none" stroke="#000000" d="M5828.6 5579.4 6066.4 5252.2 6451.1 5377.2V5781.7L6066.4 5906.7Z"/>
<path transform="matrix(.1,0,0,-.1,0,792)" d="M5828.6 6888.4 6066.4 6561.2 6451.1 6686.2V7090.7L6066.4 7215.7" fill="#ffde66"/>
<path transform="matrix(.1,0,0,-.1,0,792)" stroke-width="1" stroke-linecap="butt" stroke-miterlimit="10" stroke-linejoin="miter" fill="none" stroke="#000000" d="M5828.6 6888.4 6066.4 6561.2 6451.1 6686.2V7090.7L6066.4 7215.7Z"/>
<path transform="matrix(.1,0,0,-.1,0,792)" d="M79.3984 7947.4-158.398 8274.7-396.102 8197.4-633.898 8274.7-871.699 7947.4-633.898 7620.2-396.102 7697.4-158.398 7620.2" fill="#ffffff"/>
<path transform="matrix(.1,0,0,-.1,0,792)" stroke-width="1" stroke-linecap="butt" stroke-miterlimit="10" stroke-linejoin="miter" fill="none" stroke="#000000" d="M79.3984 7947.4-158.398 8274.7-396.102 8197.4-633.898 8274.7-871.699 7947.4-633.898 7620.2-396.102 7697.4-158.398 7620.2Z"/>
<path transform="matrix(.1,0,0,-.1,0,792)" d="M79.3984 6638.4-158.398 6965.7-396.102 6888.4-633.898 6965.7-871.699 6638.4-633.898 6311.2-396.102 6388.4-158.398 6311.2" fill="#ffffff"/>
<path transform="matrix(.1,0,0,-.1,0,792)" stroke-width="1" stroke-linecap="butt" stroke-miterlimit="10" stroke-linejoin="miter" fill="none" stroke="#000000" d="M79.3984 6638.4-158.398 6965.7-396.102 6888.4-633.898 6965.7-871.699 6638.4-633.898 6311.2-396.102 6388.4-158.398 6311.2Z"/>
<path transform="matrix(.1,0,0,-.1,0,792)" d="M79.3984 5329.4-158.398 5656.7-396.102 5579.4-633.898 5656.7-871.699 5329.4-633.898 5002.2-396.102 5079.4-158.398 5002.2" fill="#ffffff"/>
<path transform="matrix(.1,0,0,-.1,0,792)" stroke-width="1" stroke-linecap="butt" stroke-miterlimit="10" stroke-linejoin="miter" fill="none" stroke="#000000" d="M79.3984 5329.4-158.398 5656.7-396.102 5579.4-633.898 5656.7-871.699 5329.4-633.898 5002.2-396.102 5079.4-158.398 5002.2Z"/>
<path transform="matrix(.1,0,0,-.1,0,792)" d="M79.3984 4020.4-158.398 4347.6-396.102 4270.4-633.898 4347.6-871.699 4020.4-633.898 3693.1-396.102 3770.4-158.398 3693.1" fill="#ffffff"/>
<path transform="matrix(.1,0,0,-.1,0,792)" stroke-width="1" stroke-linecap="butt" stroke-miterlimit="10" stroke-linejoin="miter" fill="none" stroke="#000000" d="M79.3984 4020.4-158.398 4347.6-396.102 4270.4-633.898 4347.6-871.699 4020.4-633.898 3693.1-396.102 3770.4-158.398 3693.1Z"/>
<path transform="matrix(.1,0,0,-.1,0,792)" d="M79.3984 2711.4-158.398 3038.6-396.102 2961.4-633.898 3038.6-871.699 2711.4-633.898 2384.1-396.102 2461.4-158.398 2384.1" fill="#ffffff"/>
<path transform="matrix(.1,0,0,-.1,0,792)" stroke-width="1" stroke-linecap="butt" stroke-miterlimit="10" stroke-linejoin="miter" fill="none" stroke="#000000" d="M79.3984 2711.4-158.398 3038.6-396.102 2961.4-633.898 3038.6-871.699 2711.4-633.898 2384.1-396.102 2461.4-158.398 2384.1Z"/>
<path transform="matrix(.1,0,0,-.1,0,792)" d="M79.3984 1402.4-158.398 1729.6-396.102 1652.4-633.898 1729.6-871.699 1402.4-633.898 1075.1-396.102 1152.4-158.398 1075.1" fill="#ffffff"/>
<path transform="matrix(.1,0,0,-.1,0,792)" stroke-width="1" stroke-linecap="butt" stroke-miterlimit="10" stroke-linejoin="miter" fill="none" stroke="#000000" d="M79.3984 1402.4-158.398 1729.6-396.102 1652.4-633.898 1729.6-871.699 1402.4-633.898 1075.1-396.102 1152.4-158.398 1075.1Z"/>
<path transform="matrix(.1,0,0,-.1,0,792)" d="M5828.6 8197.4 6066.4 7870.2 6451.1 7995.2V8399.7L6066.4 8524.7" fill="#ffde66"/>
<path transform="matrix(.1,0,0,-.1,0,792)" stroke-width="1" stroke-linecap="butt" stroke-miterlimit="10" stroke-linejoin="miter" fill="none" stroke="#000000" d="M5828.6 8197.4 6066.4 7870.2 6451.1 7995.2V8399.7L6066.4 8524.7Z"/>
<path transform="matrix(.1,0,0,-.1,0,792)" d="M79.3984 93.3008-158.398-233.898 226.301-358.898V-763.398L611.102-638.398 848.801-965.699 1086.6-638.398 701.898-513.398V-108.898L317.199-233.898" fill="#805900"/>
<path transform="matrix(.1,0,0,-.1,0,792)" stroke-width="1" stroke-linecap="butt" stroke-miterlimit="10" stroke-linejoin="miter" fill="none" stroke="#000000" d="M79.3984 93.3008-158.398-233.898 226.301-358.898V-763.398L611.102-638.398 848.801-965.699 1086.6-638.398 701.898-513.398V-108.898L317.199-233.898Z"/>
<path transform="matrix(.1,0,0,-.1,0,792)" d="M79.3984 93.3008-158.398 420.602-396.102 343.301-633.898 420.602-871.699 93.3008-633.898-233.898-396.102-156.699-158.398-233.898" fill="#ffffff"/>
<path transform="matrix(.1,0,0,-.1,0,792)" stroke-width="1" stroke-linecap="butt" stroke-miterlimit="10" stroke-linejoin="miter" fill="none" stroke="#000000" d="M79.3984 93.3008-158.398 420.602-396.102 343.301-633.898 420.602-871.699 93.3008-633.898-233.898-396.102-156.699-158.398-233.898Z"/>
<path transform="matrix(.1,0,0,-.1,0,792)" d="M2569.3 93.3008 2331.5-233.898 2716.2-358.898V-763.398L3101-638.398 3338.7-965.699 3576.5-638.398 3191.8-513.398V-108.898L2807.1-233.898" fill="#805900"/>
<path transform="matrix(.1,0,0,-.1,0,792)" stroke-width="1" stroke-linecap="butt" stroke-miterlimit="10" stroke-linejoin="miter" fill="none" stroke="#000000" d="M2569.3 93.3008 2331.5-233.898 2716.2-358.898V-763.398L3101-638.398 3338.7-965.699 3576.5-638.398 3191.8-513.398V-108.898L2807.1-233.898Z"/>
<path transform="matrix(.1,0,0,-.1,0,792)" d="M5059.2 93.3008 4821.4-233.898 5206.1-358.898V-763.398L5590.9-638.398 5828.6-965.699 6066.4-638.398 5681.7-513.398V-108.898L5297-233.898" fill="#805900"/>
<path transform="matrix(.1,0,0,-.1,0,792)" stroke-width="1" stroke-linecap="butt" stroke-miterlimit="10" stroke-linejoin="miter" fill="none" stroke="#000000" d="M5059.2 93.3008 4821.4-233.898 5206.1-358.898V-763.398L5590.9-638.398 5828.6-965.699 6066.4-638.398 5681.7-513.398V-108.898L5297-233.898Z"/>
<path transform="matrix(.1,0,0,-.1,0,792)" d="M1086.6 16.1016 701.898-108.898V-513.398L1086.6-638.398 1324.3-311.199" fill="#ffde66"/>
<path transform="matrix(.1,0,0,-.1,0,792)" stroke-width="1" stroke-linecap="butt" stroke-miterlimit="10" stroke-linejoin="miter" fill="none" stroke="#000000" d="M1086.6 16.1016 701.898-108.898V-513.398L1086.6-638.398 1324.3-311.199Z"/>
<path transform="matrix(.1,0,0,-.1,0,792)" d="M3576.5 16.1016 3191.8-108.898V-513.398L3576.5-638.398 3814.2-311.199" fill="#ffde66"/>
<path transform="matrix(.1,0,0,-.1,0,792)" stroke-width="1" stroke-linecap="butt" stroke-miterlimit="10" stroke-linejoin="miter" fill="none" stroke="#000000" d="M3576.5 16.1016 3191.8-108.898V-513.398L3576.5-638.398 3814.2-311.199Z"/>
<path transform="matrix(.1,0,0,-.1,0,792)" d="M6066.4 16.1016 6304.1-311.199 6066.4-638.398 6451.1-763.398V-358.898L6835.8-233.898 6598 93.3008 6835.8 420.602 6451.1 545.602V141.102" fill="#805900"/>
<path transform="matrix(.1,0,0,-.1,0,792)" stroke-width="1" stroke-linecap="butt" stroke-miterlimit="10" stroke-linejoin="miter" fill="none" stroke="#000000" d="M6066.4 16.1016 6304.1-311.199 6066.4-638.398 6451.1-763.398V-358.898L6835.8-233.898 6598 93.3008 6835.8 420.602 6451.1 545.602V141.102Z"/>
<path transform="matrix(.1,0,0,-.1,0,792)" d="M6066.4 16.1016 5681.7-108.898V-513.398L6066.4-638.398 6304.1-311.199" fill="#ffde66"/>
<path transform="matrix(.1,0,0,-.1,0,792)" stroke-width="1" stroke-linecap="butt" stroke-miterlimit="10" stroke-linejoin="miter" fill="none" stroke="#000000" d="M6066.4 16.1016 5681.7-108.898V-513.398L6066.4-638.398 6304.1-311.199Z"/>
<path transform="matrix(.1,0,0,-.1,0,792)" d="M6066.4 670.602 6451.1 545.602V950.102L6835.8 1075.1 6598 1402.4 6835.8 1729.6 6451.1 1854.6V1450.1L6066.4 1325.1 6304.1 997.801" fill="#805900"/>
<path transform="matrix(.1,0,0,-.1,0,792)" stroke-width="1" stroke-linecap="butt" stroke-miterlimit="10" stroke-linejoin="miter" fill="none" stroke="#000000" d="M6066.4 670.602 6451.1 545.602V950.102L6835.8 1075.1 6598 1402.4 6835.8 1729.6 6451.1 1854.6V1450.1L6066.4 1325.1 6304.1 997.801Z"/>
<path transform="matrix(.1,0,0,-.1,0,792)" d="M6066.4 1979.6 6451.1 1854.6V2259.1L6835.8 2384.1 6598 2711.4 6835.8 3038.6 6451.1 3163.6V2759.1L6066.4 2634.1 6304.1 2306.9" fill="#805900"/>
<path transform="matrix(.1,0,0,-.1,0,792)" stroke-width="1" stroke-linecap="butt" stroke-miterlimit="10" stroke-linejoin="miter" fill="none" stroke="#000000" d="M6066.4 1979.6 6451.1 1854.6V2259.1L6835.8 2384.1 6598 2711.4 6835.8 3038.6 6451.1 3163.6V2759.1L6066.4 2634.1 6304.1 2306.9Z"/>
<path transform="matrix(.1,0,0,-.1,0,792)" d="M6066.4 3288.6 6451.1 3163.6V3568.1L6835.8 3693.1 6598 4020.4 6835.8 4347.6 6451.1 4472.6V4068.1L6066.4 3943.1 6304.1 3615.9" fill="#805900"/>
<path transform="matrix(.1,0,0,-.1,0,792)" stroke-width="1" stroke-linecap="butt" stroke-miterlimit="10" stroke-linejoin="miter" fill="none" stroke="#000000" d="M6066.4 3288.6 6451.1 3163.6V3568.1L6835.8 3693.1 6598 4020.4 6835.8 4347.6 6451.1 4472.6V4068.1L6066.4 3943.1 6304.1 3615.9Z"/>
<path transform="matrix(.1,0,0,-.1,0,792)" d="M6066.4 4597.6 6451.1 4472.6V4877.2L6835.8 5002.2 6598 5329.4 6835.8 5656.7 6451.1 5781.7V5377.2L6066.4 5252.2 6304.1 4924.9" fill="#805900"/>
<path transform="matrix(.1,0,0,-.1,0,792)" stroke-width="1" stroke-linecap="butt" stroke-miterlimit="10" stroke-linejoin="miter" fill="none" stroke="#000000" d="M6066.4 4597.6 6451.1 4472.6V4877.2L6835.8 5002.2 6598 5329.4 6835.8 5656.7 6451.1 5781.7V5377.2L6066.4 5252.2 6304.1 4924.9Z"/>
<path transform="matrix(.1,0,0,-.1,0,792)" d="M6066.4 5906.7 6451.1 5781.7V6186.2L6835.8 6311.2 6598 6638.4 6835.8 6965.7 6451.1 7090.7V6686.2L6066.4 6561.2 6304.1 6233.9" fill="#805900"/>
<path transform="matrix(.1,0,0,-.1,0,792)" stroke-width="1" stroke-linecap="butt" stroke-miterlimit="10" stroke-linejoin="miter" fill="none" stroke="#000000" d="M6066.4 5906.7 6451.1 5781.7V6186.2L6835.8 6311.2 6598 6638.4 6835.8 6965.7 6451.1 7090.7V6686.2L6066.4 6561.2 6304.1 6233.9Z"/>
<path transform="matrix(.1,0,0,-.1,0,792)" d="M6066.4 7215.7 6451.1 7090.7V7495.2L6835.8 7620.2 6598 7947.4 6835.8 8274.7 6451.1 8399.7V7995.2L6066.4 7870.2 6304.1 7542.9" fill="#805900"/>
<path transform="matrix(.1,0,0,-.1,0,792)" stroke-width="1" stroke-linecap="butt" stroke-miterlimit="10" stroke-linejoin="miter" fill="none" stroke="#000000" d="M6066.4 7215.7 6451.1 7090.7V7495.2L6835.8 7620.2 6598 7947.4 6835.8 8274.7 6451.1 8399.7V7995.2L6066.4 7870.2 6304.1 7542.9Z"/>
</svg>
