<svg xmlns="http://www.w3.org/2000/svg" xmlns:xlink="http://www.w3.org/1999/xlink" xmlns:inkscape="http://www.inkscape.org/namespaces/inkscape" version="1.1" width="612" height="792" viewBox="0 0 612 792">
<path transform="matrix(.1,0,0,-.1,0,792)" d="M3446.2 4210 3471.9 4147.9 3446.2 4210 3327.3 4497 3040.3 4615.9 3102.4 4641.6 3040.3 4615.9 2753.3 4497 2634.4 4210 2608.7 4272.1 2634.4 4210 2753.3 3923 3040.3 3804.1 2978.3 3778.4 3040.3 3804.1 3327.3 3923" fill="#c28c24"/>
<path transform="matrix(.1,0,0,-.1,0,792)" stroke-width="9.5" stroke-linecap="butt" stroke-miterlimit="10" stroke-linejoin="miter" fill="none" stroke="#000000" d="M3446.2 4210 3471.9 4147.9 3446.2 4210 3327.3 4497 3040.3 4615.9 3102.4 4641.6 3040.3 4615.9 2753.3 4497 2634.4 4210 2608.7 4272.1 2634.4 4210 2753.3 3923 3040.3 3804.1 2978.3 3778.4 3040.3 3804.1 3327.3 3923Z"/>
<path transform="matrix(.1,0,0,-.1,0,792)" d="M2680.6 4569.7 2916.2 4667.3 2978.3 4693 2916.2 4667.3 2346.3 4903.4 2284.3 4929.1 2346.3 4903.4 1867.3 4704.9 2084.9 4530.8 2122 4501.1 2084.9 4530.8 2359.4 4873.9 2583 4334.1 2608.7 4272.1 2583 4334.1" fill="#b0c4d9"/>
<path transform="matrix(.1,0,0,-.1,0,792)" stroke-width="9.5" stroke-linecap="butt" stroke-miterlimit="10" stroke-linejoin="miter" fill="none" stroke="#000000" d="M2680.6 4569.7 2916.2 4667.3 2978.3 4693 2916.2 4667.3 2346.3 4903.4 2284.3 4929.1 2346.3 4903.4 1867.3 4704.9 2084.9 4530.8 2122 4501.1 2084.9 4530.8 2359.4 4873.9 2583 4334.1 2608.7 4272.1 2583 4334.1Z"/>
<path transform="matrix(.1,0,0,-.1,0,792)" d="M2680.6 3850.3 2583 4085.9 2557.3 4147.9 2583 4085.9 2347 3516 2321.3 3453.9 2347 3516 2583 2946.1 2608.7 2884 2583 2946.1 2680.6 3181.7 2916.2 3279.3 2978.3 3305 2916.2 3279.3 2344.7 3516 2916.2 3752.7 2978.3 3778.4 2916.2 3752.7" fill="#f8c499"/>
<path transform="matrix(.1,0,0,-.1,0,792)" stroke-width="9.5" stroke-linecap="butt" stroke-miterlimit="10" stroke-linejoin="miter" fill="none" stroke="#000000" d="M2680.6 3850.3 2583 4085.9 2557.3 4147.9 2583 4085.9 2347 3516 2321.3 3453.9 2347 3516 2583 2946.1 2608.7 2884 2583 2946.1 2680.6 3181.7 2916.2 3279.3 2978.3 3305 2916.2 3279.3 2344.7 3516 2916.2 3752.7 2978.3 3778.4 2916.2 3752.7Z"/>
<path transform="matrix(.1,0,0,-.1,0,792)" d="M3164.5 3752.7 3102.4 3727 3164.5 3752.7 3735.9 3516 3164.5 3279.3 3102.4 3253.6 3164.5 3279.3 3400 3181.7 3497.6 2946.1 3523.3 2884 3497.6 2946.1 3733.7 3516 3759.4 3578.1 3733.7 3516 3497.6 4085.9 3471.9 4147.9 3497.6 4085.9 3400 3850.3" fill="#f8c499"/>
<path transform="matrix(.1,0,0,-.1,0,792)" stroke-width="9.5" stroke-linecap="butt" stroke-miterlimit="10" stroke-linejoin="miter" fill="none" stroke="#000000" d="M3164.5 3752.7 3102.4 3727 3164.5 3752.7 3735.9 3516 3164.5 3279.3 3102.4 3253.6 3164.5 3279.3 3400 3181.7 3497.6 2946.1 3523.3 2884 3497.6 2946.1 3733.7 3516 3759.4 3578.1 3733.7 3516 3497.6 4085.9 3471.9 4147.9 3497.6 4085.9 3400 3850.3Z"/>
<path transform="matrix(.1,0,0,-.1,0,792)" d="M3040.3 3701.3 3102.4 3727 3040.3 3701.3 2593 3516 3040.3 3330.7 2978.3 3305 3040.3 3330.7 3487.7 3516" fill="#c28c24"/>
<path transform="matrix(.1,0,0,-.1,0,792)" stroke-width="9.5" stroke-linecap="butt" stroke-miterlimit="10" stroke-linejoin="miter" fill="none" stroke="#000000" d="M3040.3 3701.3 3102.4 3727 3040.3 3701.3 2593 3516 3040.3 3330.7 2978.3 3305 3040.3 3330.7 3487.7 3516Z"/>
<path transform="matrix(.1,0,0,-.1,0,792)" d="M3040.3 4718.7 2978.3 4693 3040.3 4718.7 3610.2 4954.8 3672.3 4929.1 3610.2 4954.8 3374.6 5052.4 3277 5287.9 3302.7 5350 3277 5287.9 3040.3 4716.5 2803.6 5287.9 2829.3 5350 2803.6 5287.9 2706 5052.4 2470.4 4954.8 2408.4 4980.5 2470.4 4954.8" fill="#f8c499"/>
<path transform="matrix(.1,0,0,-.1,0,792)" stroke-width="9.5" stroke-linecap="butt" stroke-miterlimit="10" stroke-linejoin="miter" fill="none" stroke="#000000" d="M3040.3 4718.7 2978.3 4693 3040.3 4718.7 3610.2 4954.8 3672.3 4929.1 3610.2 4954.8 3374.6 5052.4 3277 5287.9 3302.7 5350 3277 5287.9 3040.3 4716.5 2803.6 5287.9 2829.3 5350 2803.6 5287.9 2706 5052.4 2470.4 4954.8 2408.4 4980.5 2470.4 4954.8Z"/>
<path transform="matrix(.1,0,0,-.1,0,792)" d="M3164.5 4667.3 3102.4 4641.6 3164.5 4667.3 3400 4569.7 3497.6 4334.1 3523.3 4272.1 3497.6 4334.1 3721.2 4873.9 3995.8 4530.8 4025.5 4493.7 3995.8 4530.8 4213.4 4704.9 3734.3 4903.4 3672.3 4929.1 3734.3 4903.4" fill="#9bc9b0"/>
<path transform="matrix(.1,0,0,-.1,0,792)" stroke-width="9.5" stroke-linecap="butt" stroke-miterlimit="10" stroke-linejoin="miter" fill="none" stroke="#000000" d="M3164.5 4667.3 3102.4 4641.6 3164.5 4667.3 3400 4569.7 3497.6 4334.1 3523.3 4272.1 3497.6 4334.1 3721.2 4873.9 3995.8 4530.8 4025.5 4493.7 3995.8 4530.8 4213.4 4704.9 3734.3 4903.4 3672.3 4929.1 3734.3 4903.4Z"/>
<path transform="matrix(.1,0,0,-.1,0,792)" d="M2531.6 4210 2557.3 4147.9 2531.6 4210 2333.2 4689 2159.1 4471.4 2122 4501.1 2159.1 4471.4 2502.2 4196.9 1962.4 3973.3 1900.3 3999 1962.4 3973.3 2198 3875.7 2295.6 3640.1 2269.9 3578.1 2295.6 3640.1" fill="#b0c4d9"/>
<path transform="matrix(.1,0,0,-.1,0,792)" stroke-width="9.5" stroke-linecap="butt" stroke-miterlimit="10" stroke-linejoin="miter" fill="none" stroke="#000000" d="M2531.6 4210 2557.3 4147.9 2531.6 4210 2333.2 4689 2159.1 4471.4 2122 4501.1 2159.1 4471.4 2502.2 4196.9 1962.4 3973.3 1900.3 3999 1962.4 3973.3 2198 3875.7 2295.6 3640.1 2269.9 3578.1 2295.6 3640.1Z"/>
<path transform="matrix(.1,0,0,-.1,0,792)" d="M3040.3 4964.7 3225.6 5412.1 3251.3 5474.1 3225.6 5412.1 3040.3 5859.4 2855 5412.1 2829.3 5350 2855 5412.1" fill="#c28c24"/>
<path transform="matrix(.1,0,0,-.1,0,792)" stroke-width="9.5" stroke-linecap="butt" stroke-miterlimit="10" stroke-linejoin="miter" fill="none" stroke="#000000" d="M3040.3 4964.7 3225.6 5412.1 3251.3 5474.1 3225.6 5412.1 3040.3 5859.4 2855 5412.1 2829.3 5350 2855 5412.1Z"/>
<path transform="matrix(.1,0,0,-.1,0,792)" d="M3549 4210 3523.3 4272.1 3549 4210 3785.1 3640.1 3759.4 3578.1 3785.1 3640.1 3882.7 3875.7 4118.3 3973.3 4180.3 3947.6 4118.3 3973.3 3578.5 4196.9 3921.6 4471.4 3951.3 4434.3 3921.6 4471.4 3747.5 4689" fill="#9bc9b0"/>
<path transform="matrix(.1,0,0,-.1,0,792)" stroke-width="9.5" stroke-linecap="butt" stroke-miterlimit="10" stroke-linejoin="miter" fill="none" stroke="#000000" d="M3549 4210 3523.3 4272.1 3549 4210 3785.1 3640.1 3759.4 3578.1 3785.1 3640.1 3882.7 3875.7 4118.3 3973.3 4180.3 3947.6 4118.3 3973.3 3578.5 4196.9 3921.6 4471.4 3951.3 4434.3 3921.6 4471.4 3747.5 4689Z"/>
<path transform="matrix(.1,0,0,-.1,0,792)" d="M2317.3 4223.1 2099.7 4397.3 2062.6 4426.9 2099.7 4397.3 1825.1 4054.1 1601.6 4593.9 1575.8 4656 1601.6 4593.9 1504 4358.3 1268.4 4260.8 1206.3 4235 1268.4 4260.8 1838.3 4024.7 1900.3 3999 1838.3 4024.7" fill="#b0c4d9"/>
<path transform="matrix(.1,0,0,-.1,0,792)" stroke-width="9.5" stroke-linecap="butt" stroke-miterlimit="10" stroke-linejoin="miter" fill="none" stroke="#000000" d="M2317.3 4223.1 2099.7 4397.3 2062.6 4426.9 2099.7 4397.3 1825.1 4054.1 1601.6 4593.9 1575.8 4656 1601.6 4593.9 1504 4358.3 1268.4 4260.8 1206.3 4235 1268.4 4260.8 1838.3 4024.7 1900.3 3999 1838.3 4024.7Z"/>
<path transform="matrix(.1,0,0,-.1,0,792)" d="M2222.2 4954.8 2284.3 4929.1 2222.2 4954.8 1986.6 5052.4 1889 5287.9 1914.7 5350 1889 5287.9 1653 4718.1 1627.3 4780.1 1653 4718.1 1851.4 4239 2025.5 4456.6 2062.6 4426.9 2025.5 4456.6 1682.4 4731.2" fill="#b0c4d9"/>
<path transform="matrix(.1,0,0,-.1,0,792)" stroke-width="9.5" stroke-linecap="butt" stroke-miterlimit="10" stroke-linejoin="miter" fill="none" stroke="#000000" d="M2222.2 4954.8 2284.3 4929.1 2222.2 4954.8 1986.6 5052.4 1889 5287.9 1914.7 5350 1889 5287.9 1653 4718.1 1627.3 4780.1 1653 4718.1 1851.4 4239 2025.5 4456.6 2062.6 4426.9 2025.5 4456.6 1682.4 4731.2Z"/>
<path transform="matrix(.1,0,0,-.1,0,792)" d="M2346.3 5006.2 2408.4 4980.5 2346.3 5006.2 2633.3 5125.1 2752.2 5412.1 2777.9 5474.1 2752.2 5412.1 2633.3 5699.1 2346.3 5817.9 2284.3 5843.7 2346.3 5817.9 2059.3 5699.1 1940.4 5412.1 1914.7 5350 1940.4 5412.1 2059.3 5125.1" fill="#c28c24"/>
<path transform="matrix(.1,0,0,-.1,0,792)" stroke-width="9.5" stroke-linecap="butt" stroke-miterlimit="10" stroke-linejoin="miter" fill="none" stroke="#000000" d="M2346.3 5006.2 2408.4 4980.5 2346.3 5006.2 2633.3 5125.1 2752.2 5412.1 2777.9 5474.1 2752.2 5412.1 2633.3 5699.1 2346.3 5817.9 2284.3 5843.7 2346.3 5817.9 2059.3 5699.1 1940.4 5412.1 1914.7 5350 1940.4 5412.1 2059.3 5125.1Z"/>
<path transform="matrix(.1,0,0,-.1,0,792)" d="M3447.3 5125.1 3734.3 5006.2 3796.4 4980.5 3734.3 5006.2 4021.3 5125.1 4140.2 5412.1 4165.9 5474.1 4140.2 5412.1 4021.3 5699.1 3734.3 5817.9 3672.3 5843.7 3734.3 5817.9 3447.3 5699.1 3328.5 5412.1 3302.7 5350 3328.5 5412.1" fill="#c28c24"/>
<path transform="matrix(.1,0,0,-.1,0,792)" stroke-width="9.5" stroke-linecap="butt" stroke-miterlimit="10" stroke-linejoin="miter" fill="none" stroke="#000000" d="M3447.3 5125.1 3734.3 5006.2 3796.4 4980.5 3734.3 5006.2 4021.3 5125.1 4140.2 5412.1 4165.9 5474.1 4140.2 5412.1 4021.3 5699.1 3734.3 5817.9 3672.3 5843.7 3734.3 5817.9 3447.3 5699.1 3328.5 5412.1 3302.7 5350 3328.5 5412.1Z"/>
<path transform="matrix(.1,0,0,-.1,0,792)" d="M3040.3 3227.9 3102.4 3253.6 3040.3 3227.9 2753.3 3109 2634.4 2822 2608.7 2884 2634.4 2822 2753.3 2535 3040.3 2416.1 2978.3 2390.4 3040.3 2416.1 3327.3 2535 3446.2 2822 3471.9 2759.9 3446.2 2822 3327.3 3109" fill="#c28c24"/>
<path transform="matrix(.1,0,0,-.1,0,792)" stroke-width="9.5" stroke-linecap="butt" stroke-miterlimit="10" stroke-linejoin="miter" fill="none" stroke="#000000" d="M3040.3 3227.9 3102.4 3253.6 3040.3 3227.9 2753.3 3109 2634.4 2822 2608.7 2884 2634.4 2822 2753.3 2535 3040.3 2416.1 2978.3 2390.4 3040.3 2416.1 3327.3 2535 3446.2 2822 3471.9 2759.9 3446.2 2822 3327.3 3109Z"/>
<path transform="matrix(.1,0,0,-.1,0,792)" d="M2295.6 3391.9 2321.3 3453.9 2295.6 3391.9 2198 3156.3 1962.4 3058.7 1900.3 3084.4 1962.4 3058.7 2502.2 2835.1 2159.1 2560.5 2129.4 2597.6 2159.1 2560.5 2333.2 2342.9 2531.6 2822 2557.3 2759.9 2531.6 2822" fill="#9bc9b0"/>
<path transform="matrix(.1,0,0,-.1,0,792)" stroke-width="9.5" stroke-linecap="butt" stroke-miterlimit="10" stroke-linejoin="miter" fill="none" stroke="#000000" d="M2295.6 3391.9 2321.3 3453.9 2295.6 3391.9 2198 3156.3 1962.4 3058.7 1900.3 3084.4 1962.4 3058.7 2502.2 2835.1 2159.1 2560.5 2129.4 2597.6 2159.1 2560.5 2333.2 2342.9 2531.6 2822 2557.3 2759.9 2531.6 2822Z"/>
<path transform="matrix(.1,0,0,-.1,0,792)" d="M2244.1 3516 2269.9 3578.1 2244.1 3516 2125.3 3803 1838.3 3921.9 1776.2 3947.6 1838.3 3921.9 1551.3 3803 1432.4 3516 1406.7 3453.9 1432.4 3516 1551.3 3229 1838.3 3110.1 1900.3 3084.4 1838.3 3110.1 2125.3 3229" fill="#c28c24"/>
<path transform="matrix(.1,0,0,-.1,0,792)" stroke-width="9.5" stroke-linecap="butt" stroke-miterlimit="10" stroke-linejoin="miter" fill="none" stroke="#000000" d="M2244.1 3516 2269.9 3578.1 2244.1 3516 2125.3 3803 1838.3 3921.9 1776.2 3947.6 1838.3 3921.9 1551.3 3803 1432.4 3516 1406.7 3453.9 1432.4 3516 1551.3 3229 1838.3 3110.1 1900.3 3084.4 1838.3 3110.1 2125.3 3229Z"/>
<path transform="matrix(.1,0,0,-.1,0,792)" d="M3763.3 4223.1 4242.4 4024.7 4304.5 3999 4242.4 4024.7 4812.3 4260.8 4874.3 4286.5 4812.3 4260.8 4576.7 4358.3 4479.1 4593.9 4453.4 4656 4479.1 4593.9 4255.5 4054.1 3981 4397.3 3951.3 4434.3 3981 4397.3" fill="#9bc9b0"/>
<path transform="matrix(.1,0,0,-.1,0,792)" stroke-width="9.5" stroke-linecap="butt" stroke-miterlimit="10" stroke-linejoin="miter" fill="none" stroke="#000000" d="M3763.3 4223.1 4242.4 4024.7 4304.5 3999 4242.4 4024.7 4812.3 4260.8 4874.3 4286.5 4812.3 4260.8 4576.7 4358.3 4479.1 4593.9 4453.4 4656 4479.1 4593.9 4255.5 4054.1 3981 4397.3 3951.3 4434.3 3981 4397.3Z"/>
<path transform="matrix(.1,0,0,-.1,0,792)" d="M3858.5 4954.8 3796.4 4980.5 3858.5 4954.8 4398.2 4731.2 4055.1 4456.6 4025.5 4493.7 4055.1 4456.6 4229.3 4239 4427.7 4718.1 4453.4 4656 4427.7 4718.1 4191.6 5287.9 4217.3 5350 4191.6 5287.9 4094.1 5052.4" fill="#9bc9b0"/>
<path transform="matrix(.1,0,0,-.1,0,792)" stroke-width="9.5" stroke-linecap="butt" stroke-miterlimit="10" stroke-linejoin="miter" fill="none" stroke="#000000" d="M3858.5 4954.8 3796.4 4980.5 3858.5 4954.8 4398.2 4731.2 4055.1 4456.6 4025.5 4493.7 4055.1 4456.6 4229.3 4239 4427.7 4718.1 4453.4 4656 4427.7 4718.1 4191.6 5287.9 4217.3 5350 4191.6 5287.9 4094.1 5052.4Z"/>
<path transform="matrix(.1,0,0,-.1,0,792)" d="M3836.5 3516 3810.8 3453.9 3836.5 3516 3955.4 3229 4242.4 3110.1 4304.5 3084.4 4242.4 3110.1 4529.4 3229 4648.3 3516 4674 3578.1 4648.3 3516 4529.4 3803 4242.4 3921.9 4180.3 3947.6 4242.4 3921.9 3955.4 3803" fill="#c28c24"/>
<path transform="matrix(.1,0,0,-.1,0,792)" stroke-width="9.5" stroke-linecap="butt" stroke-miterlimit="10" stroke-linejoin="miter" fill="none" stroke="#000000" d="M3836.5 3516 3810.8 3453.9 3836.5 3516 3955.4 3229 4242.4 3110.1 4304.5 3084.4 4242.4 3110.1 4529.4 3229 4648.3 3516 4674 3578.1 4648.3 3516 4529.4 3803 4242.4 3921.9 4180.3 3947.6 4242.4 3921.9 3955.4 3803Z"/>
<path transform="matrix(.1,0,0,-.1,0,792)" d="M3785.1 3391.9 3810.8 3453.9 3785.1 3391.9 3549 2822 3523.3 2884 3549 2822 3747.5 2342.9 3921.6 2560.5 3958.7 2530.9 3921.6 2560.5 3578.5 2835.1 4118.3 3058.7 4180.3 3033 4118.3 3058.7 3882.7 3156.3" fill="#b0c4d9"/>
<path transform="matrix(.1,0,0,-.1,0,792)" stroke-width="9.5" stroke-linecap="butt" stroke-miterlimit="10" stroke-linejoin="miter" fill="none" stroke="#000000" d="M3785.1 3391.9 3810.8 3453.9 3785.1 3391.9 3549 2822 3523.3 2884 3549 2822 3747.5 2342.9 3921.6 2560.5 3958.7 2530.9 3921.6 2560.5 3578.5 2835.1 4118.3 3058.7 4180.3 3033 4118.3 3058.7 3882.7 3156.3Z"/>
<path transform="matrix(.1,0,0,-.1,0,792)" d="M3277 5536.2 3251.3 5474.1 3277 5536.2 3374.6 5771.8 3610.2 5869.4 3672.3 5843.7 3610.2 5869.4 3040.3 6105.4 3102.4 6131.1 3040.3 6105.4 2470.4 5869.4 2408.4 5895.1 2470.4 5869.4 2706 5771.8 2803.6 5536.2 2777.9 5474.1 2803.6 5536.2 3040.3 6107.7" fill="#f8c499"/>
<path transform="matrix(.1,0,0,-.1,0,792)" stroke-width="9.5" stroke-linecap="butt" stroke-miterlimit="10" stroke-linejoin="miter" fill="none" stroke="#000000" d="M3277 5536.2 3251.3 5474.1 3277 5536.2 3374.6 5771.8 3610.2 5869.4 3672.3 5843.7 3610.2 5869.4 3040.3 6105.4 3102.4 6131.1 3040.3 6105.4 2470.4 5869.4 2408.4 5895.1 2470.4 5869.4 2706 5771.8 2803.6 5536.2 2777.9 5474.1 2803.6 5536.2 3040.3 6107.7Z"/>
<path transform="matrix(.1,0,0,-.1,0,792)" d="M2317.3 2808.8 1838.3 3007.3 1776.2 3033 1838.3 3007.3 1268.4 2771.2 1206.3 2745.5 1268.4 2771.2 1504 2673.6 1601.6 2438 1627.3 2376 1601.6 2438 1825.1 2977.8 2099.7 2634.7 2129.4 2597.6 2099.7 2634.7" fill="#9bc9b0"/>
<path transform="matrix(.1,0,0,-.1,0,792)" stroke-width="9.5" stroke-linecap="butt" stroke-miterlimit="10" stroke-linejoin="miter" fill="none" stroke="#000000" d="M2317.3 2808.8 1838.3 3007.3 1776.2 3033 1838.3 3007.3 1268.4 2771.2 1206.3 2745.5 1268.4 2771.2 1504 2673.6 1601.6 2438 1627.3 2376 1601.6 2438 1825.1 2977.8 2099.7 2634.7 2129.4 2597.6 2099.7 2634.7Z"/>
<path transform="matrix(.1,0,0,-.1,0,792)" d="M2583 2697.9 2557.3 2759.9 2583 2697.9 2359.4 2158.1 2084.9 2501.2 2055.2 2538.3 2084.9 2501.2 1867.3 2327.1 2346.3 2128.6 2408.4 2102.9 2346.3 2128.6 2916.2 2364.7 2978.3 2390.4 2916.2 2364.7 2680.6 2462.3" fill="#9bc9b0"/>
<path transform="matrix(.1,0,0,-.1,0,792)" stroke-width="9.5" stroke-linecap="butt" stroke-miterlimit="10" stroke-linejoin="miter" fill="none" stroke="#000000" d="M2583 2697.9 2557.3 2759.9 2583 2697.9 2359.4 2158.1 2084.9 2501.2 2055.2 2538.3 2084.9 2501.2 1867.3 2327.1 2346.3 2128.6 2408.4 2102.9 2346.3 2128.6 2916.2 2364.7 2978.3 2390.4 2916.2 2364.7 2680.6 2462.3Z"/>
<path transform="matrix(.1,0,0,-.1,0,792)" d="M3497.6 2697.9 3471.9 2759.9 3497.6 2697.9 3400 2462.3 3164.5 2364.7 3102.4 2339 3164.5 2364.7 3734.3 2128.6 3796.4 2102.9 3734.3 2128.6 4213.4 2327.1 3995.8 2501.2 3958.7 2530.9 3995.8 2501.2 3721.2 2158.1" fill="#b0c4d9"/>
<path transform="matrix(.1,0,0,-.1,0,792)" stroke-width="9.5" stroke-linecap="butt" stroke-miterlimit="10" stroke-linejoin="miter" fill="none" stroke="#000000" d="M3497.6 2697.9 3471.9 2759.9 3497.6 2697.9 3400 2462.3 3164.5 2364.7 3102.4 2339 3164.5 2364.7 3734.3 2128.6 3796.4 2102.9 3734.3 2128.6 4213.4 2327.1 3995.8 2501.2 3958.7 2530.9 3995.8 2501.2 3721.2 2158.1Z"/>
<path transform="matrix(.1,0,0,-.1,0,792)" d="M3763.3 2808.8 3981 2634.7 4018 2605 3981 2634.7 4255.5 2977.8 4479.1 2438 4504.8 2376 4479.1 2438 4576.7 2673.6 4812.3 2771.2 4874.3 2796.9 4812.3 2771.2 4242.4 3007.3 4180.3 3033 4242.4 3007.3" fill="#b0c4d9"/>
<path transform="matrix(.1,0,0,-.1,0,792)" stroke-width="9.5" stroke-linecap="butt" stroke-miterlimit="10" stroke-linejoin="miter" fill="none" stroke="#000000" d="M3763.3 2808.8 3981 2634.7 4018 2605 3981 2634.7 4255.5 2977.8 4479.1 2438 4504.8 2376 4479.1 2438 4576.7 2673.6 4812.3 2771.2 4874.3 2796.9 4812.3 2771.2 4242.4 3007.3 4180.3 3033 4242.4 3007.3Z"/>
<path transform="matrix(.1,0,0,-.1,0,792)" d="M1837.6 5412.1 1863.3 5474.1 1837.6 5412.1 1601.6 5982 1575.8 6044 1601.6 5982 1504 5746.4 1268.4 5648.8 1206.3 5623.1 1268.4 5648.8 1839.9 5412.1 1268.4 5175.3 1206.3 5149.6 1268.4 5175.3 1504 5077.8 1601.6 4842.2 1627.3 4780.1 1601.6 4842.2" fill="#f8c499"/>
<path transform="matrix(.1,0,0,-.1,0,792)" stroke-width="9.5" stroke-linecap="butt" stroke-miterlimit="10" stroke-linejoin="miter" fill="none" stroke="#000000" d="M1837.6 5412.1 1863.3 5474.1 1837.6 5412.1 1601.6 5982 1575.8 6044 1601.6 5982 1504 5746.4 1268.4 5648.8 1206.3 5623.1 1268.4 5648.8 1839.9 5412.1 1268.4 5175.3 1206.3 5149.6 1268.4 5175.3 1504 5077.8 1601.6 4842.2 1627.3 4780.1 1601.6 4842.2Z"/>
<path transform="matrix(.1,0,0,-.1,0,792)" d="M1889 5536.2 1863.3 5474.1 1889 5536.2 1986.6 5771.8 2222.2 5869.4 2284.3 5843.7 2222.2 5869.4 1682.4 6092.9 2025.5 6367.5 2055.2 6330.4 2025.5 6367.5 1851.4 6585.1 1653 6106.1 1627.3 6168.1 1653 6106.1" fill="#9bc9b0"/>
<path transform="matrix(.1,0,0,-.1,0,792)" stroke-width="9.5" stroke-linecap="butt" stroke-miterlimit="10" stroke-linejoin="miter" fill="none" stroke="#000000" d="M1889 5536.2 1863.3 5474.1 1889 5536.2 1986.6 5771.8 2222.2 5869.4 2284.3 5843.7 2222.2 5869.4 1682.4 6092.9 2025.5 6367.5 2055.2 6330.4 2025.5 6367.5 1851.4 6585.1 1653 6106.1 1627.3 6168.1 1653 6106.1Z"/>
<path transform="matrix(.1,0,0,-.1,0,792)" d="M4094.1 5771.8 4191.6 5536.2 4165.9 5474.1 4191.6 5536.2 4427.7 6106.1 4453.4 6044 4427.7 6106.1 4229.3 6585.1 4055.1 6367.5 4018 6397.2 4055.1 6367.5 4398.2 6092.9 3858.5 5869.4 3796.4 5895.1 3858.5 5869.4" fill="#b0c4d9"/>
<path transform="matrix(.1,0,0,-.1,0,792)" stroke-width="9.5" stroke-linecap="butt" stroke-miterlimit="10" stroke-linejoin="miter" fill="none" stroke="#000000" d="M4094.1 5771.8 4191.6 5536.2 4165.9 5474.1 4191.6 5536.2 4427.7 6106.1 4453.4 6044 4427.7 6106.1 4229.3 6585.1 4055.1 6367.5 4018 6397.2 4055.1 6367.5 4398.2 6092.9 3858.5 5869.4 3796.4 5895.1 3858.5 5869.4Z"/>
<path transform="matrix(.1,0,0,-.1,0,792)" d="M1714.1 3973.3 1776.2 3947.6 1714.1 3973.3 1144.3 4209.3 1206.3 4235 1144.3 4209.3 574.398 3973.3 512.301 3999 574.398 3973.3 810 3875.7 907.5 3640.1 881.801 3578.1 907.5 3640.1 1144.3 4211.6 1381 3640.1 1355.3 3578.1 1381 3640.1 1478.6 3875.7" fill="#f8c499"/>
<path transform="matrix(.1,0,0,-.1,0,792)" stroke-width="9.5" stroke-linecap="butt" stroke-miterlimit="10" stroke-linejoin="miter" fill="none" stroke="#000000" d="M1714.1 3973.3 1776.2 3947.6 1714.1 3973.3 1144.3 4209.3 1206.3 4235 1144.3 4209.3 574.398 3973.3 512.301 3999 574.398 3973.3 810 3875.7 907.5 3640.1 881.801 3578.1 907.5 3640.1 1144.3 4211.6 1381 3640.1 1355.3 3578.1 1381 3640.1 1478.6 3875.7Z"/>
<path transform="matrix(.1,0,0,-.1,0,792)" d="M1714.1 3058.7 1776.2 3033 1714.1 3058.7 1478.6 3156.3 1381 3391.9 1406.7 3453.9 1381 3391.9 1144.3 2820.4 907.5 3391.9 933.199 3453.9 907.5 3391.9 810 3156.3 574.398 3058.7 512.301 3084.4 574.398 3058.7 1144.3 2822.6 1082.2 2796.9 1144.3 2822.6" fill="#f8c499"/>
<path transform="matrix(.1,0,0,-.1,0,792)" stroke-width="9.5" stroke-linecap="butt" stroke-miterlimit="10" stroke-linejoin="miter" fill="none" stroke="#000000" d="M1714.1 3058.7 1776.2 3033 1714.1 3058.7 1478.6 3156.3 1381 3391.9 1406.7 3453.9 1381 3391.9 1144.3 2820.4 907.5 3391.9 933.199 3453.9 907.5 3391.9 810 3156.3 574.398 3058.7 512.301 3084.4 574.398 3058.7 1144.3 2822.6 1082.2 2796.9 1144.3 2822.6Z"/>
<path transform="matrix(.1,0,0,-.1,0,792)" d="M1851.4 2793 1653 2313.9 1627.3 2376 1653 2313.9 1889 1744 1863.3 1682 1889 1744 1986.6 1979.6 2222.2 2077.2 2284.3 2051.5 2222.2 2077.2 1682.4 2300.8 2025.5 2575.4 2055.2 2538.3 2025.5 2575.4" fill="#9bc9b0"/>
<path transform="matrix(.1,0,0,-.1,0,792)" stroke-width="9.5" stroke-linecap="butt" stroke-miterlimit="10" stroke-linejoin="miter" fill="none" stroke="#000000" d="M1851.4 2793 1653 2313.9 1627.3 2376 1653 2313.9 1889 1744 1863.3 1682 1889 1744 1986.6 1979.6 2222.2 2077.2 2284.3 2051.5 2222.2 2077.2 1682.4 2300.8 2025.5 2575.4 2055.2 2538.3 2025.5 2575.4Z"/>
<path transform="matrix(.1,0,0,-.1,0,792)" d="M4055.1 2575.4 4018 2605 4055.1 2575.4 4398.2 2300.8 3858.5 2077.2 3796.4 2102.9 3858.5 2077.2 4094.1 1979.6 4191.6 1744 4165.9 1682 4191.6 1744 4427.7 2313.9 4453.4 2251.9 4427.7 2313.9 4229.3 2793" fill="#b0c4d9"/>
<path transform="matrix(.1,0,0,-.1,0,792)" stroke-width="9.5" stroke-linecap="butt" stroke-miterlimit="10" stroke-linejoin="miter" fill="none" stroke="#000000" d="M4055.1 2575.4 4018 2605 4055.1 2575.4 4398.2 2300.8 3858.5 2077.2 3796.4 2102.9 3858.5 2077.2 4094.1 1979.6 4191.6 1744 4165.9 1682 4191.6 1744 4427.7 2313.9 4453.4 2251.9 4427.7 2313.9 4229.3 2793Z"/>
<path transform="matrix(.1,0,0,-.1,0,792)" d="M3734.3 5920.8 3796.4 5895.1 3734.3 5920.8 4213.4 6119.2 3995.8 6293.3 3958.7 6323 3995.8 6293.3 3721.2 5950.2 3497.6 6490 3471.9 6552.1 3497.6 6490 3400 6254.4 3164.5 6156.8 3102.4 6131.1 3164.5 6156.8" fill="#b0c4d9"/>
<path transform="matrix(.1,0,0,-.1,0,792)" stroke-width="9.5" stroke-linecap="butt" stroke-miterlimit="10" stroke-linejoin="miter" fill="none" stroke="#000000" d="M3734.3 5920.8 3796.4 5895.1 3734.3 5920.8 4213.4 6119.2 3995.8 6293.3 3958.7 6323 3995.8 6293.3 3721.2 5950.2 3497.6 6490 3471.9 6552.1 3497.6 6490 3400 6254.4 3164.5 6156.8 3102.4 6131.1 3164.5 6156.8Z"/>
<path transform="matrix(.1,0,0,-.1,0,792)" d="M2346.3 5920.8 2408.4 5895.1 2346.3 5920.8 2916.2 6156.8 2978.3 6182.5 2916.2 6156.8 2680.6 6254.4 2583 6490 2557.3 6552.1 2583 6490 2359.4 5950.2 2084.9 6293.3 2055.2 6330.4 2084.9 6293.3 1867.3 6119.2" fill="#9bc9b0"/>
<path transform="matrix(.1,0,0,-.1,0,792)" stroke-width="9.5" stroke-linecap="butt" stroke-miterlimit="10" stroke-linejoin="miter" fill="none" stroke="#000000" d="M2346.3 5920.8 2408.4 5895.1 2346.3 5920.8 2916.2 6156.8 2978.3 6182.5 2916.2 6156.8 2680.6 6254.4 2583 6490 2557.3 6552.1 2583 6490 2359.4 5950.2 2084.9 6293.3 2055.2 6330.4 2084.9 6293.3 1867.3 6119.2Z"/>
<path transform="matrix(.1,0,0,-.1,0,792)" d="M4243.1 5412.1 4217.3 5350 4243.1 5412.1 4479.1 4842.2 4504.8 4780.1 4479.1 4842.2 4576.7 5077.8 4812.3 5175.3 4874.3 5201.1 4812.3 5175.3 4240.8 5412.1 4812.3 5648.8 4874.3 5674.5 4812.3 5648.8 4576.7 5746.4 4479.1 5982 4453.4 6044 4479.1 5982" fill="#f8c499"/>
<path transform="matrix(.1,0,0,-.1,0,792)" stroke-width="9.5" stroke-linecap="butt" stroke-miterlimit="10" stroke-linejoin="miter" fill="none" stroke="#000000" d="M4243.1 5412.1 4217.3 5350 4243.1 5412.1 4479.1 4842.2 4504.8 4780.1 4479.1 4842.2 4576.7 5077.8 4812.3 5175.3 4874.3 5201.1 4812.3 5175.3 4240.8 5412.1 4812.3 5648.8 4874.3 5674.5 4812.3 5648.8 4576.7 5746.4 4479.1 5982 4453.4 6044 4479.1 5982Z"/>
<path transform="matrix(.1,0,0,-.1,0,792)" d="M1591.6 5412.1 1144.3 5597.4 1206.3 5623.1 1144.3 5597.4 696.898 5412.1 1144.3 5226.8 1082.2 5201.1 1144.3 5226.8" fill="#c28c24"/>
<path transform="matrix(.1,0,0,-.1,0,792)" stroke-width="9.5" stroke-linecap="butt" stroke-miterlimit="10" stroke-linejoin="miter" fill="none" stroke="#000000" d="M1591.6 5412.1 1144.3 5597.4 1206.3 5623.1 1144.3 5597.4 696.898 5412.1 1144.3 5226.8 1082.2 5201.1 1144.3 5226.8Z"/>
<path transform="matrix(.1,0,0,-.1,0,792)" d="M4366.5 3058.7 4304.5 3084.4 4366.5 3058.7 4936.4 2822.6 4874.3 2796.9 4936.4 2822.6 5506.3 3058.7 5568.4 3033 5506.3 3058.7 5270.7 3156.3 5173.1 3391.9 5198.8 3453.9 5173.1 3391.9 4936.4 2820.4 4699.7 3391.9 4725.4 3453.9 4699.7 3391.9 4602.1 3156.3" fill="#f8c499"/>
<path transform="matrix(.1,0,0,-.1,0,792)" stroke-width="9.5" stroke-linecap="butt" stroke-miterlimit="10" stroke-linejoin="miter" fill="none" stroke="#000000" d="M4366.5 3058.7 4304.5 3084.4 4366.5 3058.7 4936.4 2822.6 4874.3 2796.9 4936.4 2822.6 5506.3 3058.7 5568.4 3033 5506.3 3058.7 5270.7 3156.3 5173.1 3391.9 5198.8 3453.9 5173.1 3391.9 4936.4 2820.4 4699.7 3391.9 4725.4 3453.9 4699.7 3391.9 4602.1 3156.3Z"/>
<path transform="matrix(.1,0,0,-.1,0,792)" d="M4366.5 3973.3 4304.5 3999 4366.5 3973.3 4602.1 3875.7 4699.7 3640.1 4674 3578.1 4699.7 3640.1 4936.4 4211.6 5173.1 3640.1 5147.4 3578.1 5173.1 3640.1 5270.7 3875.7 5506.3 3973.3 5568.4 3947.6 5506.3 3973.3 4936.4 4209.3 4998.5 4235 4936.4 4209.3" fill="#f8c499"/>
<path transform="matrix(.1,0,0,-.1,0,792)" stroke-width="9.5" stroke-linecap="butt" stroke-miterlimit="10" stroke-linejoin="miter" fill="none" stroke="#000000" d="M4366.5 3973.3 4304.5 3999 4366.5 3973.3 4602.1 3875.7 4699.7 3640.1 4674 3578.1 4699.7 3640.1 4936.4 4211.6 5173.1 3640.1 5147.4 3578.1 5173.1 3640.1 5270.7 3875.7 5506.3 3973.3 5568.4 3947.6 5506.3 3973.3 4936.4 4209.3 4998.5 4235 4936.4 4209.3Z"/>
<path transform="matrix(.1,0,0,-.1,0,792)" d="M3747.5 6135.1 3921.6 6352.7 3958.7 6323 3921.6 6352.7 3578.5 6627.3 4118.3 6850.8 4180.3 6825.1 4118.3 6850.8 3882.7 6948.4 3785.1 7184 3810.8 7246.1 3785.1 7184 3549 6614.1 3523.3 6676.2 3549 6614.1" fill="#b0c4d9"/>
<path transform="matrix(.1,0,0,-.1,0,792)" stroke-width="9.5" stroke-linecap="butt" stroke-miterlimit="10" stroke-linejoin="miter" fill="none" stroke="#000000" d="M3747.5 6135.1 3921.6 6352.7 3958.7 6323 3921.6 6352.7 3578.5 6627.3 4118.3 6850.8 4180.3 6825.1 4118.3 6850.8 3882.7 6948.4 3785.1 7184 3810.8 7246.1 3785.1 7184 3549 6614.1 3523.3 6676.2 3549 6614.1Z"/>
<path transform="matrix(.1,0,0,-.1,0,792)" d="M2333.2 6135.1 2531.6 6614.1 2557.3 6552.1 2531.6 6614.1 2295.6 7184 2321.3 7246.1 2295.6 7184 2198 6948.4 1962.4 6850.8 1900.3 6876.5 1962.4 6850.8 2502.2 6627.3 2159.1 6352.7 2129.4 6389.8 2159.1 6352.7" fill="#9bc9b0"/>
<path transform="matrix(.1,0,0,-.1,0,792)" stroke-width="9.5" stroke-linecap="butt" stroke-miterlimit="10" stroke-linejoin="miter" fill="none" stroke="#000000" d="M2333.2 6135.1 2531.6 6614.1 2557.3 6552.1 2531.6 6614.1 2295.6 7184 2321.3 7246.1 2295.6 7184 2198 6948.4 1962.4 6850.8 1900.3 6876.5 1962.4 6850.8 2502.2 6627.3 2159.1 6352.7 2129.4 6389.8 2159.1 6352.7Z"/>
<path transform="matrix(.1,0,0,-.1,0,792)" d="M3040.3 2313.3 3102.4 2339 3040.3 2313.3 2470.4 2077.2 2408.4 2102.9 2470.4 2077.2 2706 1979.6 2803.6 1744 2777.9 1682 2803.6 1744 3040.3 2315.5 3277 1744 3251.3 1682 3277 1744 3374.6 1979.6 3610.2 2077.2 3672.3 2051.5 3610.2 2077.2" fill="#f8c499"/>
<path transform="matrix(.1,0,0,-.1,0,792)" stroke-width="9.5" stroke-linecap="butt" stroke-miterlimit="10" stroke-linejoin="miter" fill="none" stroke="#000000" d="M3040.3 2313.3 3102.4 2339 3040.3 2313.3 2470.4 2077.2 2408.4 2102.9 2470.4 2077.2 2706 1979.6 2803.6 1744 2777.9 1682 2803.6 1744 3040.3 2315.5 3277 1744 3251.3 1682 3277 1744 3374.6 1979.6 3610.2 2077.2 3672.3 2051.5 3610.2 2077.2Z"/>
<path transform="matrix(.1,0,0,-.1,0,792)" d="M1550.1 4718.1 1575.8 4656 1550.1 4718.1 1431.3 5005.1 1144.3 5123.9 1206.3 5149.6 1144.3 5123.9 857.301 5005.1 738.398 4718.1 712.699 4780.1 738.398 4718.1 857.301 4431 1144.3 4312.2 1082.2 4286.5 1144.3 4312.2 1431.3 4431" fill="#c28c24"/>
<path transform="matrix(.1,0,0,-.1,0,792)" stroke-width="9.5" stroke-linecap="butt" stroke-miterlimit="10" stroke-linejoin="miter" fill="none" stroke="#000000" d="M1550.1 4718.1 1575.8 4656 1550.1 4718.1 1431.3 5005.1 1144.3 5123.9 1206.3 5149.6 1144.3 5123.9 857.301 5005.1 738.398 4718.1 712.699 4780.1 738.398 4718.1 857.301 4431 1144.3 4312.2 1082.2 4286.5 1144.3 4312.2 1431.3 4431Z"/>
<path transform="matrix(.1,0,0,-.1,0,792)" d="M1601.6 2189.8 1575.8 2251.9 1601.6 2189.8 1504 1954.2 1268.4 1856.6 1206.3 1830.9 1268.4 1856.6 1839.9 1619.9 1268.4 1383.2 1206.3 1357.5 1268.4 1383.2 1504 1285.6 1601.6 1050 1627.3 988 1601.6 1050 1837.6 1619.9 1863.3 1682 1837.6 1619.9" fill="#f8c499"/>
<path transform="matrix(.1,0,0,-.1,0,792)" stroke-width="9.5" stroke-linecap="butt" stroke-miterlimit="10" stroke-linejoin="miter" fill="none" stroke="#000000" d="M1601.6 2189.8 1575.8 2251.9 1601.6 2189.8 1504 1954.2 1268.4 1856.6 1206.3 1830.9 1268.4 1856.6 1839.9 1619.9 1268.4 1383.2 1206.3 1357.5 1268.4 1383.2 1504 1285.6 1601.6 1050 1627.3 988 1601.6 1050 1837.6 1619.9 1863.3 1682 1837.6 1619.9Z"/>
<path transform="matrix(.1,0,0,-.1,0,792)" d="M1550.1 2313.9 1575.8 2251.9 1550.1 2313.9 1431.3 2600.9 1144.3 2719.8 1206.3 2745.5 1144.3 2719.8 857.301 2600.9 738.398 2313.9 712.699 2376 738.398 2313.9 857.301 2026.9 1144.3 1908 1082.2 1882.3 1144.3 1908 1431.3 2026.9" fill="#c28c24"/>
<path transform="matrix(.1,0,0,-.1,0,792)" stroke-width="9.5" stroke-linecap="butt" stroke-miterlimit="10" stroke-linejoin="miter" fill="none" stroke="#000000" d="M1550.1 2313.9 1575.8 2251.9 1550.1 2313.9 1431.3 2600.9 1144.3 2719.8 1206.3 2745.5 1144.3 2719.8 857.301 2600.9 738.398 2313.9 712.699 2376 738.398 2313.9 857.301 2026.9 1144.3 1908 1082.2 1882.3 1144.3 1908 1431.3 2026.9Z"/>
<path transform="matrix(.1,0,0,-.1,0,792)" d="M1550.1 6106.1 1575.8 6044 1550.1 6106.1 1431.3 6393.1 1144.3 6512 1206.3 6537.7 1144.3 6512 857.301 6393.1 738.398 6106.1 712.699 6168.1 738.398 6106.1 857.301 5819.1 1144.3 5700.2 1082.2 5674.5 1144.3 5700.2 1431.3 5819.1" fill="#c28c24"/>
<path transform="matrix(.1,0,0,-.1,0,792)" stroke-width="9.5" stroke-linecap="butt" stroke-miterlimit="10" stroke-linejoin="miter" fill="none" stroke="#000000" d="M1550.1 6106.1 1575.8 6044 1550.1 6106.1 1431.3 6393.1 1144.3 6512 1206.3 6537.7 1144.3 6512 857.301 6393.1 738.398 6106.1 712.699 6168.1 738.398 6106.1 857.301 5819.1 1144.3 5700.2 1082.2 5674.5 1144.3 5700.2 1431.3 5819.1Z"/>
<path transform="matrix(.1,0,0,-.1,0,792)" d="M1601.6 6230.2 1627.3 6168.1 1601.6 6230.2 1825.1 6770 2099.7 6426.9 2129.4 6389.8 2099.7 6426.9 2317.3 6601 1838.3 6799.4 1776.2 6825.1 1838.3 6799.4 1268.4 6563.4 1206.3 6537.7 1268.4 6563.4 1504 6465.8" fill="#9bc9b0"/>
<path transform="matrix(.1,0,0,-.1,0,792)" stroke-width="9.5" stroke-linecap="butt" stroke-miterlimit="10" stroke-linejoin="miter" fill="none" stroke="#000000" d="M1601.6 6230.2 1627.3 6168.1 1601.6 6230.2 1825.1 6770 2099.7 6426.9 2129.4 6389.8 2099.7 6426.9 2317.3 6601 1838.3 6799.4 1776.2 6825.1 1838.3 6799.4 1268.4 6563.4 1206.3 6537.7 1268.4 6563.4 1504 6465.8Z"/>
<path transform="matrix(.1,0,0,-.1,0,792)" d="M4489 5412.1 4936.4 5226.8 4874.3 5201.1 4936.4 5226.8 5383.8 5412.1 4936.4 5597.4 4998.5 5623.1 4936.4 5597.4" fill="#c28c24"/>
<path transform="matrix(.1,0,0,-.1,0,792)" stroke-width="9.5" stroke-linecap="butt" stroke-miterlimit="10" stroke-linejoin="miter" fill="none" stroke="#000000" d="M4489 5412.1 4936.4 5226.8 4874.3 5201.1 4936.4 5226.8 5383.8 5412.1 4936.4 5597.4 4998.5 5623.1 4936.4 5597.4Z"/>
<path transform="matrix(.1,0,0,-.1,0,792)" d="M3040.3 6208.2 2978.3 6182.5 3040.3 6208.2 3327.3 6327.1 3446.2 6614.1 3471.9 6552.1 3446.2 6614.1 3327.3 6901.1 3040.3 7020 3102.4 7045.7 3040.3 7020 2753.3 6901.1 2634.4 6614.1 2608.7 6676.2 2634.4 6614.1 2753.3 6327.1" fill="#c28c24"/>
<path transform="matrix(.1,0,0,-.1,0,792)" stroke-width="9.5" stroke-linecap="butt" stroke-miterlimit="10" stroke-linejoin="miter" fill="none" stroke="#000000" d="M3040.3 6208.2 2978.3 6182.5 3040.3 6208.2 3327.3 6327.1 3446.2 6614.1 3471.9 6552.1 3446.2 6614.1 3327.3 6901.1 3040.3 7020 3102.4 7045.7 3040.3 7020 2753.3 6901.1 2634.4 6614.1 2608.7 6676.2 2634.4 6614.1 2753.3 6327.1Z"/>
<path transform="matrix(.1,0,0,-.1,0,792)" d="M3040.3 2067.3 2855 1619.9 2829.3 1557.9 2855 1619.9 3040.3 1172.6 3225.6 1619.9 3251.3 1682 3225.6 1619.9" fill="#c28c24"/>
<path transform="matrix(.1,0,0,-.1,0,792)" stroke-width="9.5" stroke-linecap="butt" stroke-miterlimit="10" stroke-linejoin="miter" fill="none" stroke="#000000" d="M3040.3 2067.3 2855 1619.9 2829.3 1557.9 2855 1619.9 3040.3 1172.6 3225.6 1619.9 3251.3 1682 3225.6 1619.9Z"/>
<path transform="matrix(.1,0,0,-.1,0,792)" d="M4530.5 2313.9 4504.8 2376 4530.5 2313.9 4649.4 2026.9 4936.4 1908 4874.3 1882.3 4936.4 1908 5223.4 2026.9 5342.3 2313.9 5368 2251.9 5342.3 2313.9 5223.4 2600.9 4936.4 2719.8 4998.5 2745.5 4936.4 2719.8 4649.4 2600.9" fill="#c28c24"/>
<path transform="matrix(.1,0,0,-.1,0,792)" stroke-width="9.5" stroke-linecap="butt" stroke-miterlimit="10" stroke-linejoin="miter" fill="none" stroke="#000000" d="M4530.5 2313.9 4504.8 2376 4530.5 2313.9 4649.4 2026.9 4936.4 1908 4874.3 1882.3 4936.4 1908 5223.4 2026.9 5342.3 2313.9 5368 2251.9 5342.3 2313.9 5223.4 2600.9 4936.4 2719.8 4998.5 2745.5 4936.4 2719.8 4649.4 2600.9Z"/>
<path transform="matrix(.1,0,0,-.1,0,792)" d="M4479.1 2189.8 4453.4 2251.9 4479.1 2189.8 4243.1 1619.9 4217.3 1557.9 4243.1 1619.9 4479.1 1050 4504.8 988 4479.1 1050 4576.7 1285.6 4812.3 1383.2 4874.3 1408.9 4812.3 1383.2 4240.8 1619.9 4812.3 1856.6 4874.3 1882.3 4812.3 1856.6 4576.7 1954.2" fill="#f8c499"/>
<path transform="matrix(.1,0,0,-.1,0,792)" stroke-width="9.5" stroke-linecap="butt" stroke-miterlimit="10" stroke-linejoin="miter" fill="none" stroke="#000000" d="M4479.1 2189.8 4453.4 2251.9 4479.1 2189.8 4243.1 1619.9 4217.3 1557.9 4243.1 1619.9 4479.1 1050 4504.8 988 4479.1 1050 4576.7 1285.6 4812.3 1383.2 4874.3 1408.9 4812.3 1383.2 4240.8 1619.9 4812.3 1856.6 4874.3 1882.3 4812.3 1856.6 4576.7 1954.2Z"/>
<path transform="matrix(.1,0,0,-.1,0,792)" d="M4530.5 4718.1 4504.8 4780.1 4530.5 4718.1 4649.4 4431 4936.4 4312.2 4874.3 4286.5 4936.4 4312.2 5223.4 4431 5342.3 4718.1 5368 4656 5342.3 4718.1 5223.4 5005.1 4936.4 5123.9 4998.5 5149.6 4936.4 5123.9 4649.4 5005.1" fill="#c28c24"/>
<path transform="matrix(.1,0,0,-.1,0,792)" stroke-width="9.5" stroke-linecap="butt" stroke-miterlimit="10" stroke-linejoin="miter" fill="none" stroke="#000000" d="M4530.5 4718.1 4504.8 4780.1 4530.5 4718.1 4649.4 4431 4936.4 4312.2 4874.3 4286.5 4936.4 4312.2 5223.4 4431 5342.3 4718.1 5368 4656 5342.3 4718.1 5223.4 5005.1 4936.4 5123.9 4998.5 5149.6 4936.4 5123.9 4649.4 5005.1Z"/>
<path transform="matrix(.1,0,0,-.1,0,792)" d="M4479.1 6230.2 4504.8 6168.1 4479.1 6230.2 4576.7 6465.8 4812.3 6563.4 4874.3 6589.1 4812.3 6563.4 4242.4 6799.4 4180.3 6825.1 4242.4 6799.4 3763.3 6601 3981 6426.9 4018 6397.2 3981 6426.9 4255.5 6770" fill="#b0c4d9"/>
<path transform="matrix(.1,0,0,-.1,0,792)" stroke-width="9.5" stroke-linecap="butt" stroke-miterlimit="10" stroke-linejoin="miter" fill="none" stroke="#000000" d="M4479.1 6230.2 4504.8 6168.1 4479.1 6230.2 4576.7 6465.8 4812.3 6563.4 4874.3 6589.1 4812.3 6563.4 4242.4 6799.4 4180.3 6825.1 4242.4 6799.4 3763.3 6601 3981 6426.9 4018 6397.2 3981 6426.9 4255.5 6770Z"/>
<path transform="matrix(.1,0,0,-.1,0,792)" d="M4530.5 6106.1 4504.8 6168.1 4530.5 6106.1 4649.4 5819.1 4936.4 5700.2 4874.3 5674.5 4936.4 5700.2 5223.4 5819.1 5342.3 6106.1 5368 6044 5342.3 6106.1 5223.4 6393.1 4936.4 6512 4998.5 6537.7 4936.4 6512 4649.4 6393.1" fill="#c28c24"/>
<path transform="matrix(.1,0,0,-.1,0,792)" stroke-width="9.5" stroke-linecap="butt" stroke-miterlimit="10" stroke-linejoin="miter" fill="none" stroke="#000000" d="M4530.5 6106.1 4504.8 6168.1 4530.5 6106.1 4649.4 5819.1 4936.4 5700.2 4874.3 5674.5 4936.4 5700.2 5223.4 5819.1 5342.3 6106.1 5368 6044 5342.3 6106.1 5223.4 6393.1 4936.4 6512 4998.5 6537.7 4936.4 6512 4649.4 6393.1Z"/>
<path transform="matrix(.1,0,0,-.1,0,792)" d="M2346.3 2025.8 2284.3 2051.5 2346.3 2025.8 2059.3 1906.9 1940.4 1619.9 1914.7 1557.9 1940.4 1619.9 2059.3 1332.9 2346.3 1214 2408.4 1188.3 2346.3 1214 2633.3 1332.9 2752.2 1619.9 2777.9 1682 2752.2 1619.9 2633.3 1906.9" fill="#c28c24"/>
<path transform="matrix(.1,0,0,-.1,0,792)" stroke-width="9.5" stroke-linecap="butt" stroke-miterlimit="10" stroke-linejoin="miter" fill="none" stroke="#000000" d="M2346.3 2025.8 2284.3 2051.5 2346.3 2025.8 2059.3 1906.9 1940.4 1619.9 1914.7 1557.9 1940.4 1619.9 2059.3 1332.9 2346.3 1214 2408.4 1188.3 2346.3 1214 2633.3 1332.9 2752.2 1619.9 2777.9 1682 2752.2 1619.9 2633.3 1906.9Z"/>
<path transform="matrix(.1,0,0,-.1,0,792)" d="M3734.3 2025.8 3672.3 2051.5 3734.3 2025.8 3447.3 1906.9 3328.5 1619.9 3302.7 1557.9 3328.5 1619.9 3447.3 1332.9 3734.3 1214 3796.4 1188.3 3734.3 1214 4021.3 1332.9 4140.2 1619.9 4165.9 1682 4140.2 1619.9 4021.3 1906.9" fill="#c28c24"/>
<path transform="matrix(.1,0,0,-.1,0,792)" stroke-width="9.5" stroke-linecap="butt" stroke-miterlimit="10" stroke-linejoin="miter" fill="none" stroke="#000000" d="M3734.3 2025.8 3672.3 2051.5 3734.3 2025.8 3447.3 1906.9 3328.5 1619.9 3302.7 1557.9 3328.5 1619.9 3447.3 1332.9 3734.3 1214 3796.4 1188.3 3734.3 1214 4021.3 1332.9 4140.2 1619.9 4165.9 1682 4140.2 1619.9 4021.3 1906.9Z"/>
<path transform="matrix(.1,0,0,-.1,0,792)" d="M1329.6 3516 1355.3 3578.1 1329.6 3516 1144.3 3963.3 959 3516 933.199 3453.9 959 3516 1144.3 3068.6" fill="#c28c24"/>
<path transform="matrix(.1,0,0,-.1,0,792)" stroke-width="9.5" stroke-linecap="butt" stroke-miterlimit="10" stroke-linejoin="miter" fill="none" stroke="#000000" d="M1329.6 3516 1355.3 3578.1 1329.6 3516 1144.3 3963.3 959 3516 933.199 3453.9 959 3516 1144.3 3068.6Z"/>
<path transform="matrix(.1,0,0,-.1,0,792)" d="M4751.1 3516 4725.4 3453.9 4751.1 3516 4936.4 3068.6 5121.7 3516 5147.4 3578.1 5121.7 3516 4936.4 3963.3" fill="#c28c24"/>
<path transform="matrix(.1,0,0,-.1,0,792)" stroke-width="9.5" stroke-linecap="butt" stroke-miterlimit="10" stroke-linejoin="miter" fill="none" stroke="#000000" d="M4751.1 3516 4725.4 3453.9 4751.1 3516 4936.4 3068.6 5121.7 3516 5147.4 3578.1 5121.7 3516 4936.4 3963.3Z"/>
<path transform="matrix(.1,0,0,-.1,0,792)" d="M3497.6 6738.2 3523.3 6676.2 3497.6 6738.2 3733.7 7308.1 3759.4 7370.2 3733.7 7308.1 3497.6 7878 3471.9 7940.1 3497.6 7878 3400 7642.4 3164.5 7544.9 3102.4 7519.1 3164.5 7544.9 3735.9 7308.1 3164.5 7071.4 3102.4 7045.7 3164.5 7071.4 3400 6973.8" fill="#f8c499"/>
<path transform="matrix(.1,0,0,-.1,0,792)" stroke-width="9.5" stroke-linecap="butt" stroke-miterlimit="10" stroke-linejoin="miter" fill="none" stroke="#000000" d="M3497.6 6738.2 3523.3 6676.2 3497.6 6738.2 3733.7 7308.1 3759.4 7370.2 3733.7 7308.1 3497.6 7878 3471.9 7940.1 3497.6 7878 3400 7642.4 3164.5 7544.9 3102.4 7519.1 3164.5 7544.9 3735.9 7308.1 3164.5 7071.4 3102.4 7045.7 3164.5 7071.4 3400 6973.8Z"/>
<path transform="matrix(.1,0,0,-.1,0,792)" d="M2583 6738.2 2608.7 6676.2 2583 6738.2 2680.6 6973.8 2916.2 7071.4 2978.3 7097.1 2916.2 7071.4 2344.7 7308.1 2916.2 7544.9 2978.3 7570.6 2916.2 7544.9 2680.6 7642.4 2583 7878 2557.3 7940.1 2583 7878 2347 7308.1 2321.3 7246.1 2347 7308.1" fill="#f8c499"/>
<path transform="matrix(.1,0,0,-.1,0,792)" stroke-width="9.5" stroke-linecap="butt" stroke-miterlimit="10" stroke-linejoin="miter" fill="none" stroke="#000000" d="M2583 6738.2 2608.7 6676.2 2583 6738.2 2680.6 6973.8 2916.2 7071.4 2978.3 7097.1 2916.2 7071.4 2344.7 7308.1 2916.2 7544.9 2978.3 7570.6 2916.2 7544.9 2680.6 7642.4 2583 7878 2557.3 7940.1 2583 7878 2347 7308.1 2321.3 7246.1 2347 7308.1Z"/>
<path transform="matrix(.1,0,0,-.1,0,792)" d="M1020.1 6563.4 1082.2 6589.1 1020.1 6563.4 450.199 6799.4 388.199 6825.1 450.199 6799.4-28.8008 6601 188.801 6426.9 225.898 6397.2 188.801 6426.9 463.398 6770 687 6230.2 712.699 6168.1 687 6230.2 784.5 6465.8" fill="#b0c4d9"/>
<path transform="matrix(.1,0,0,-.1,0,792)" stroke-width="9.5" stroke-linecap="butt" stroke-miterlimit="10" stroke-linejoin="miter" fill="none" stroke="#000000" d="M1020.1 6563.4 1082.2 6589.1 1020.1 6563.4 450.199 6799.4 388.199 6825.1 450.199 6799.4-28.8008 6601 188.801 6426.9 225.898 6397.2 188.801 6426.9 463.398 6770 687 6230.2 712.699 6168.1 687 6230.2 784.5 6465.8Z"/>
<path transform="matrix(.1,0,0,-.1,0,792)" d="M1144.3 6614.8 1082.2 6589.1 1144.3 6614.8 1714.1 6850.8 1776.2 6825.1 1714.1 6850.8 1478.6 6948.4 1381 7184 1406.7 7246.1 1381 7184 1144.3 6612.5 907.5 7184 933.199 7246.1 907.5 7184 810 6948.4 574.398 6850.8 512.301 6876.5 574.398 6850.8" fill="#f8c499"/>
<path transform="matrix(.1,0,0,-.1,0,792)" stroke-width="9.5" stroke-linecap="butt" stroke-miterlimit="10" stroke-linejoin="miter" fill="none" stroke="#000000" d="M1144.3 6614.8 1082.2 6589.1 1144.3 6614.8 1714.1 6850.8 1776.2 6825.1 1714.1 6850.8 1478.6 6948.4 1381 7184 1406.7 7246.1 1381 7184 1144.3 6612.5 907.5 7184 933.199 7246.1 907.5 7184 810 6948.4 574.398 6850.8 512.301 6876.5 574.398 6850.8Z"/>
<path transform="matrix(.1,0,0,-.1,0,792)" d="M1020.1 5648.8 1082.2 5674.5 1020.1 5648.8 784.5 5746.4 687 5982 661.199 6044 687 5982 450.898 5412.1 425.199 5350 450.898 5412.1 687 4842.2 712.699 4780.1 687 4842.2 784.5 5077.8 1020.1 5175.3 1082.2 5201.1 1020.1 5175.3 448.699 5412.1" fill="#f8c499"/>
<path transform="matrix(.1,0,0,-.1,0,792)" stroke-width="9.5" stroke-linecap="butt" stroke-miterlimit="10" stroke-linejoin="miter" fill="none" stroke="#000000" d="M1020.1 5648.8 1082.2 5674.5 1020.1 5648.8 784.5 5746.4 687 5982 661.199 6044 687 5982 450.898 5412.1 425.199 5350 450.898 5412.1 687 4842.2 712.699 4780.1 687 4842.2 784.5 5077.8 1020.1 5175.3 1082.2 5201.1 1020.1 5175.3 448.699 5412.1Z"/>
<path transform="matrix(.1,0,0,-.1,0,792)" d="M1020.1 4260.8 1082.2 4286.5 1020.1 4260.8 784.5 4358.3 687 4593.9 661.199 4656 687 4593.9 463.398 4054.1 188.801 4397.3 159.102 4434.3 188.801 4397.3-28.8008 4223.1 450.199 4024.7 512.301 3999 450.199 4024.7" fill="#9bc9b0"/>
<path transform="matrix(.1,0,0,-.1,0,792)" stroke-width="9.5" stroke-linecap="butt" stroke-miterlimit="10" stroke-linejoin="miter" fill="none" stroke="#000000" d="M1020.1 4260.8 1082.2 4286.5 1020.1 4260.8 784.5 4358.3 687 4593.9 661.199 4656 687 4593.9 463.398 4054.1 188.801 4397.3 159.102 4434.3 188.801 4397.3-28.8008 4223.1 450.199 4024.7 512.301 3999 450.199 4024.7Z"/>
<path transform="matrix(.1,0,0,-.1,0,792)" d="M1020.1 2771.2 1082.2 2796.9 1020.1 2771.2 450.199 3007.3 388.199 3033 450.199 3007.3-28.8008 2808.8 188.801 2634.7 225.898 2605 188.801 2634.7 463.398 2977.8 687 2438 712.699 2376 687 2438 784.5 2673.6" fill="#b0c4d9"/>
<path transform="matrix(.1,0,0,-.1,0,792)" stroke-width="9.5" stroke-linecap="butt" stroke-miterlimit="10" stroke-linejoin="miter" fill="none" stroke="#000000" d="M1020.1 2771.2 1082.2 2796.9 1020.1 2771.2 450.199 3007.3 388.199 3033 450.199 3007.3-28.8008 2808.8 188.801 2634.7 225.898 2605 188.801 2634.7 463.398 2977.8 687 2438 712.699 2376 687 2438 784.5 2673.6Z"/>
<path transform="matrix(.1,0,0,-.1,0,792)" d="M1144.3 1805.2 1206.3 1830.9 1144.3 1805.2 696.898 1619.9 1144.3 1434.6 1082.2 1408.9 1144.3 1434.6 1591.6 1619.9" fill="#c28c24"/>
<path transform="matrix(.1,0,0,-.1,0,792)" stroke-width="9.5" stroke-linecap="butt" stroke-miterlimit="10" stroke-linejoin="miter" fill="none" stroke="#000000" d="M1144.3 1805.2 1206.3 1830.9 1144.3 1805.2 696.898 1619.9 1144.3 1434.6 1082.2 1408.9 1144.3 1434.6 1591.6 1619.9Z"/>
<path transform="matrix(.1,0,0,-.1,0,792)" d="M1020.1 1856.6 1082.2 1882.3 1020.1 1856.6 784.5 1954.2 687 2189.8 661.199 2251.9 687 2189.8 450.898 1619.9 425.199 1557.9 450.898 1619.9 687 1050 712.699 988 687 1050 784.5 1285.6 1020.1 1383.2 1082.2 1408.9 1020.1 1383.2 448.699 1619.9" fill="#f8c499"/>
<path transform="matrix(.1,0,0,-.1,0,792)" stroke-width="9.5" stroke-linecap="butt" stroke-miterlimit="10" stroke-linejoin="miter" fill="none" stroke="#000000" d="M1020.1 1856.6 1082.2 1882.3 1020.1 1856.6 784.5 1954.2 687 2189.8 661.199 2251.9 687 2189.8 450.898 1619.9 425.199 1557.9 450.898 1619.9 687 1050 712.699 988 687 1050 784.5 1285.6 1020.1 1383.2 1082.2 1408.9 1020.1 1383.2 448.699 1619.9Z"/>
<path transform="matrix(.1,0,0,-.1,0,792)" d="M1144.3 6860.8 1329.6 7308.1 1355.3 7370.2 1329.6 7308.1 1144.3 7755.5 959 7308.1 933.199 7246.1 959 7308.1" fill="#c28c24"/>
<path transform="matrix(.1,0,0,-.1,0,792)" stroke-width="9.5" stroke-linecap="butt" stroke-miterlimit="10" stroke-linejoin="miter" fill="none" stroke="#000000" d="M1144.3 6860.8 1329.6 7308.1 1355.3 7370.2 1329.6 7308.1 1144.3 7755.5 959 7308.1 933.199 7246.1 959 7308.1Z"/>
<path transform="matrix(.1,0,0,-.1,0,792)" d="M1889 1495.8 1914.7 1557.9 1889 1495.8 1653 925.898 1627.3 988 1653 925.898 1851.4 446.898 2025.5 664.5 2062.6 634.801 2025.5 664.5 1682.4 939 2222.2 1162.6 2284.3 1136.9 2222.2 1162.6 1986.6 1260.2" fill="#b0c4d9"/>
<path transform="matrix(.1,0,0,-.1,0,792)" stroke-width="9.5" stroke-linecap="butt" stroke-miterlimit="10" stroke-linejoin="miter" fill="none" stroke="#000000" d="M1889 1495.8 1914.7 1557.9 1889 1495.8 1653 925.898 1627.3 988 1653 925.898 1851.4 446.898 2025.5 664.5 2062.6 634.801 2025.5 664.5 1682.4 939 2222.2 1162.6 2284.3 1136.9 2222.2 1162.6 1986.6 1260.2Z"/>
<path transform="matrix(.1,0,0,-.1,0,792)" d="M2803.6 1495.8 2829.3 1557.9 2803.6 1495.8 2706 1260.2 2470.4 1162.6 2408.4 1188.3 2470.4 1162.6 3040.3 926.602 2978.3 900.898 3040.3 926.602 3610.2 1162.6 3672.3 1136.9 3610.2 1162.6 3374.6 1260.2 3277 1495.8 3302.7 1557.9 3277 1495.8 3040.3 924.301" fill="#f8c499"/>
<path transform="matrix(.1,0,0,-.1,0,792)" stroke-width="9.5" stroke-linecap="butt" stroke-miterlimit="10" stroke-linejoin="miter" fill="none" stroke="#000000" d="M2803.6 1495.8 2829.3 1557.9 2803.6 1495.8 2706 1260.2 2470.4 1162.6 2408.4 1188.3 2470.4 1162.6 3040.3 926.602 2978.3 900.898 3040.3 926.602 3610.2 1162.6 3672.3 1136.9 3610.2 1162.6 3374.6 1260.2 3277 1495.8 3302.7 1557.9 3277 1495.8 3040.3 924.301Z"/>
<path transform="matrix(.1,0,0,-.1,0,792)" d="M4191.6 1495.8 4217.3 1557.9 4191.6 1495.8 4094.1 1260.2 3858.5 1162.6 3796.4 1188.3 3858.5 1162.6 4398.2 939 4055.1 664.5 4025.5 701.602 4055.1 664.5 4229.3 446.898 4427.7 925.898 4453.4 863.801 4427.7 925.898" fill="#9bc9b0"/>
<path transform="matrix(.1,0,0,-.1,0,792)" stroke-width="9.5" stroke-linecap="butt" stroke-miterlimit="10" stroke-linejoin="miter" fill="none" stroke="#000000" d="M4191.6 1495.8 4217.3 1557.9 4191.6 1495.8 4094.1 1260.2 3858.5 1162.6 3796.4 1188.3 3858.5 1162.6 4398.2 939 4055.1 664.5 4025.5 701.602 4055.1 664.5 4229.3 446.898 4427.7 925.898 4453.4 863.801 4427.7 925.898Z"/>
<path transform="matrix(.1,0,0,-.1,0,792)" d="M4489 1619.9 4936.4 1434.6 4874.3 1408.9 4936.4 1434.6 5383.8 1619.9 4936.4 1805.2 4998.5 1830.9 4936.4 1805.2" fill="#c28c24"/>
<path transform="matrix(.1,0,0,-.1,0,792)" stroke-width="9.5" stroke-linecap="butt" stroke-miterlimit="10" stroke-linejoin="miter" fill="none" stroke="#000000" d="M4489 1619.9 4936.4 1434.6 4874.3 1408.9 4936.4 1434.6 5383.8 1619.9 4936.4 1805.2 4998.5 1830.9 4936.4 1805.2Z"/>
<path transform="matrix(.1,0,0,-.1,0,792)" d="M4242.4 6902.3 4304.5 6876.5 4242.4 6902.3 4529.4 7021.1 4648.3 7308.1 4674 7370.2 4648.3 7308.1 4529.4 7595.1 4242.4 7714 4180.3 7739.7 4242.4 7714 3955.4 7595.1 3836.5 7308.1 3810.8 7246.1 3836.5 7308.1 3955.4 7021.1" fill="#c28c24"/>
<path transform="matrix(.1,0,0,-.1,0,792)" stroke-width="9.5" stroke-linecap="butt" stroke-miterlimit="10" stroke-linejoin="miter" fill="none" stroke="#000000" d="M4242.4 6902.3 4304.5 6876.5 4242.4 6902.3 4529.4 7021.1 4648.3 7308.1 4674 7370.2 4648.3 7308.1 4529.4 7595.1 4242.4 7714 4180.3 7739.7 4242.4 7714 3955.4 7595.1 3836.5 7308.1 3810.8 7246.1 3836.5 7308.1 3955.4 7021.1Z"/>
<path transform="matrix(.1,0,0,-.1,0,792)" d="M4366.5 6850.8 4304.5 6876.5 4366.5 6850.8 4936.4 6614.8 4874.3 6589.1 4936.4 6614.8 5506.3 6850.8 5568.4 6825.1 5506.3 6850.8 5270.7 6948.4 5173.1 7184 5198.8 7246.1 5173.1 7184 4936.4 6612.5 4699.7 7184 4725.4 7246.1 4699.7 7184 4602.1 6948.4" fill="#f8c499"/>
<path transform="matrix(.1,0,0,-.1,0,792)" stroke-width="9.5" stroke-linecap="butt" stroke-miterlimit="10" stroke-linejoin="miter" fill="none" stroke="#000000" d="M4366.5 6850.8 4304.5 6876.5 4366.5 6850.8 4936.4 6614.8 4874.3 6589.1 4936.4 6614.8 5506.3 6850.8 5568.4 6825.1 5506.3 6850.8 5270.7 6948.4 5173.1 7184 5198.8 7246.1 5173.1 7184 4936.4 6612.5 4699.7 7184 4725.4 7246.1 4699.7 7184 4602.1 6948.4Z"/>
<path transform="matrix(.1,0,0,-.1,0,792)" d="M1838.3 6902.3 1900.3 6876.5 1838.3 6902.3 2125.3 7021.1 2244.1 7308.1 2269.9 7370.2 2244.1 7308.1 2125.3 7595.1 1838.3 7714 1776.2 7739.7 1838.3 7714 1551.3 7595.1 1432.4 7308.1 1406.7 7246.1 1432.4 7308.1 1551.3 7021.1" fill="#c28c24"/>
<path transform="matrix(.1,0,0,-.1,0,792)" stroke-width="9.5" stroke-linecap="butt" stroke-miterlimit="10" stroke-linejoin="miter" fill="none" stroke="#000000" d="M1838.3 6902.3 1900.3 6876.5 1838.3 6902.3 2125.3 7021.1 2244.1 7308.1 2269.9 7370.2 2244.1 7308.1 2125.3 7595.1 1838.3 7714 1776.2 7739.7 1838.3 7714 1551.3 7595.1 1432.4 7308.1 1406.7 7246.1 1432.4 7308.1 1551.3 7021.1Z"/>
<path transform="matrix(.1,0,0,-.1,0,792)" d="M5060.5 1856.6 4998.5 1830.9 5060.5 1856.6 5632 1619.9 5060.5 1383.2 4998.5 1357.5 5060.5 1383.2 5296.1 1285.6 5393.7 1050 5419.4 988 5393.7 1050 5629.8 1619.9 5655.5 1682 5629.8 1619.9 5393.7 2189.8 5368 2251.9 5393.7 2189.8 5296.1 1954.2" fill="#f8c499"/>
<path transform="matrix(.1,0,0,-.1,0,792)" stroke-width="9.5" stroke-linecap="butt" stroke-miterlimit="10" stroke-linejoin="miter" fill="none" stroke="#000000" d="M5060.5 1856.6 4998.5 1830.9 5060.5 1856.6 5632 1619.9 5060.5 1383.2 4998.5 1357.5 5060.5 1383.2 5296.1 1285.6 5393.7 1050 5419.4 988 5393.7 1050 5629.8 1619.9 5655.5 1682 5629.8 1619.9 5393.7 2189.8 5368 2251.9 5393.7 2189.8 5296.1 1954.2Z"/>
<path transform="matrix(.1,0,0,-.1,0,792)" d="M5060.5 2771.2 4998.5 2745.5 5060.5 2771.2 5296.1 2673.6 5393.7 2438 5419.4 2376 5393.7 2438 5617.3 2977.8 5891.8 2634.7 5921.5 2597.6 5891.8 2634.7 6109.5 2808.8 5630.4 3007.3 5568.4 3033 5630.4 3007.3" fill="#9bc9b0"/>
<path transform="matrix(.1,0,0,-.1,0,792)" stroke-width="9.5" stroke-linecap="butt" stroke-miterlimit="10" stroke-linejoin="miter" fill="none" stroke="#000000" d="M5060.5 2771.2 4998.5 2745.5 5060.5 2771.2 5296.1 2673.6 5393.7 2438 5419.4 2376 5393.7 2438 5617.3 2977.8 5891.8 2634.7 5921.5 2597.6 5891.8 2634.7 6109.5 2808.8 5630.4 3007.3 5568.4 3033 5630.4 3007.3Z"/>
<path transform="matrix(.1,0,0,-.1,0,792)" d="M5060.5 4260.8 4998.5 4235 5060.5 4260.8 5630.4 4024.7 5692.5 3999 5630.4 4024.7 6109.5 4223.1 5891.8 4397.3 5854.8 4426.9 5891.8 4397.3 5617.3 4054.1 5393.7 4593.9 5368 4656 5393.7 4593.9 5296.1 4358.3" fill="#b0c4d9"/>
<path transform="matrix(.1,0,0,-.1,0,792)" stroke-width="9.5" stroke-linecap="butt" stroke-miterlimit="10" stroke-linejoin="miter" fill="none" stroke="#000000" d="M5060.5 4260.8 4998.5 4235 5060.5 4260.8 5630.4 4024.7 5692.5 3999 5630.4 4024.7 6109.5 4223.1 5891.8 4397.3 5854.8 4426.9 5891.8 4397.3 5617.3 4054.1 5393.7 4593.9 5368 4656 5393.7 4593.9 5296.1 4358.3Z"/>
<path transform="matrix(.1,0,0,-.1,0,792)" d="M5060.5 5175.3 4998.5 5149.6 5060.5 5175.3 5296.1 5077.8 5393.7 4842.2 5419.4 4780.1 5393.7 4842.2 5629.8 5412.1 5655.5 5474.1 5629.8 5412.1 5393.7 5982 5368 6044 5393.7 5982 5296.1 5746.4 5060.5 5648.8 4998.5 5623.1 5060.5 5648.8 5632 5412.1" fill="#f8c499"/>
<path transform="matrix(.1,0,0,-.1,0,792)" stroke-width="9.5" stroke-linecap="butt" stroke-miterlimit="10" stroke-linejoin="miter" fill="none" stroke="#000000" d="M5060.5 5175.3 4998.5 5149.6 5060.5 5175.3 5296.1 5077.8 5393.7 4842.2 5419.4 4780.1 5393.7 4842.2 5629.8 5412.1 5655.5 5474.1 5629.8 5412.1 5393.7 5982 5368 6044 5393.7 5982 5296.1 5746.4 5060.5 5648.8 4998.5 5623.1 5060.5 5648.8 5632 5412.1Z"/>
<path transform="matrix(.1,0,0,-.1,0,792)" d="M5060.5 6563.4 4998.5 6537.7 5060.5 6563.4 5296.1 6465.8 5393.7 6230.2 5419.4 6168.1 5393.7 6230.2 5617.3 6770 5891.8 6426.9 5921.5 6389.8 5891.8 6426.9 6109.5 6601 5630.4 6799.4 5568.4 6825.1 5630.4 6799.4" fill="#9bc9b0"/>
<path transform="matrix(.1,0,0,-.1,0,792)" stroke-width="9.5" stroke-linecap="butt" stroke-miterlimit="10" stroke-linejoin="miter" fill="none" stroke="#000000" d="M5060.5 6563.4 4998.5 6537.7 5060.5 6563.4 5296.1 6465.8 5393.7 6230.2 5419.4 6168.1 5393.7 6230.2 5617.3 6770 5891.8 6426.9 5921.5 6389.8 5891.8 6426.9 6109.5 6601 5630.4 6799.4 5568.4 6825.1 5630.4 6799.4Z"/>
<path transform="matrix(.1,0,0,-.1,0,792)" d="M4936.4 6860.8 5121.7 7308.1 5147.4 7370.2 5121.7 7308.1 4936.4 7755.5 4751.1 7308.1 4725.4 7246.1 4751.1 7308.1" fill="#c28c24"/>
<path transform="matrix(.1,0,0,-.1,0,792)" stroke-width="9.5" stroke-linecap="butt" stroke-miterlimit="10" stroke-linejoin="miter" fill="none" stroke="#000000" d="M4936.4 6860.8 5121.7 7308.1 5147.4 7370.2 5121.7 7308.1 4936.4 7755.5 4751.1 7308.1 4725.4 7246.1 4751.1 7308.1Z"/>
<path transform="matrix(.1,0,0,-.1,0,792)" d="M1144.3 1331.8 1206.3 1357.5 1144.3 1331.8 857.301 1212.9 738.398 925.898 712.699 988 738.398 925.898 857.301 638.898 1144.3 520 1082.2 494.301 1144.3 520 1431.3 638.898 1550.1 925.898 1575.8 863.801 1550.1 925.898 1431.3 1212.9" fill="#c28c24"/>
<path transform="matrix(.1,0,0,-.1,0,792)" stroke-width="9.5" stroke-linecap="butt" stroke-miterlimit="10" stroke-linejoin="miter" fill="none" stroke="#000000" d="M1144.3 1331.8 1206.3 1357.5 1144.3 1331.8 857.301 1212.9 738.398 925.898 712.699 988 738.398 925.898 857.301 638.898 1144.3 520 1082.2 494.301 1144.3 520 1431.3 638.898 1550.1 925.898 1575.8 863.801 1550.1 925.898 1431.3 1212.9Z"/>
<path transform="matrix(.1,0,0,-.1,0,792)" d="M4936.4 1331.8 4998.5 1357.5 4936.4 1331.8 4649.4 1212.9 4530.5 925.898 4504.8 988 4530.5 925.898 4649.4 638.898 4936.4 520 4874.3 494.301 4936.4 520 5223.4 638.898 5342.3 925.898 5368 863.801 5342.3 925.898 5223.4 1212.9" fill="#c28c24"/>
<path transform="matrix(.1,0,0,-.1,0,792)" stroke-width="9.5" stroke-linecap="butt" stroke-miterlimit="10" stroke-linejoin="miter" fill="none" stroke="#000000" d="M4936.4 1331.8 4998.5 1357.5 4936.4 1331.8 4649.4 1212.9 4530.5 925.898 4504.8 988 4530.5 925.898 4649.4 638.898 4936.4 520 4874.3 494.301 4936.4 520 5223.4 638.898 5342.3 925.898 5368 863.801 5342.3 925.898 5223.4 1212.9Z"/>
<path transform="matrix(.1,0,0,-.1,0,792)" d="M856.102 3516 881.801 3578.1 856.102 3516 737.199 3803 450.199 3921.9 388.199 3947.6 450.199 3921.9 163.199 3803 44.3984 3516 18.6992 3453.9 44.3984 3516 163.199 3229 450.199 3110.1 512.301 3084.4 450.199 3110.1 737.199 3229" fill="#c28c24"/>
<path transform="matrix(.1,0,0,-.1,0,792)" stroke-width="9.5" stroke-linecap="butt" stroke-miterlimit="10" stroke-linejoin="miter" fill="none" stroke="#000000" d="M856.102 3516 881.801 3578.1 856.102 3516 737.199 3803 450.199 3921.9 388.199 3947.6 450.199 3921.9 163.199 3803 44.3984 3516 18.6992 3453.9 44.3984 3516 163.199 3229 450.199 3110.1 512.301 3084.4 450.199 3110.1 737.199 3229Z"/>
<path transform="matrix(.1,0,0,-.1,0,792)" d="M3040.3 7122.8 2978.3 7097.1 3040.3 7122.8 3487.7 7308.1 3040.3 7493.4 3102.4 7519.1 3040.3 7493.4 2593 7308.1" fill="#c28c24"/>
<path transform="matrix(.1,0,0,-.1,0,792)" stroke-width="9.5" stroke-linecap="butt" stroke-miterlimit="10" stroke-linejoin="miter" fill="none" stroke="#000000" d="M3040.3 7122.8 2978.3 7097.1 3040.3 7122.8 3487.7 7308.1 3040.3 7493.4 3102.4 7519.1 3040.3 7493.4 2593 7308.1Z"/>
<path transform="matrix(.1,0,0,-.1,0,792)" d="M5224.5 3516 5198.8 3453.9 5224.5 3516 5343.4 3229 5630.4 3110.1 5692.5 3084.4 5630.4 3110.1 5917.4 3229 6036.3 3516 6062 3578.1 6036.3 3516 5917.4 3803 5630.4 3921.9 5568.4 3947.6 5630.4 3921.9 5343.4 3803" fill="#c28c24"/>
<path transform="matrix(.1,0,0,-.1,0,792)" stroke-width="9.5" stroke-linecap="butt" stroke-miterlimit="10" stroke-linejoin="miter" fill="none" stroke="#000000" d="M5224.5 3516 5198.8 3453.9 5224.5 3516 5343.4 3229 5630.4 3110.1 5692.5 3084.4 5630.4 3110.1 5917.4 3229 6036.3 3516 6062 3578.1 6036.3 3516 5917.4 3803 5630.4 3921.9 5568.4 3947.6 5630.4 3921.9 5343.4 3803Z"/>
<path transform="matrix(.1,0,0,-.1,0,792)" d="M737.199 7021.1 856.102 7308.1 881.801 7370.2 856.102 7308.1 737.199 7595.1 450.199 7714 388.199 7739.7 450.199 7714 163.199 7595.1 44.3984 7308.1 18.6992 7246.1 44.3984 7308.1 163.199 7021.1 450.199 6902.3 512.301 6876.5 450.199 6902.3" fill="#c28c24"/>
<path transform="matrix(.1,0,0,-.1,0,792)" stroke-width="9.5" stroke-linecap="butt" stroke-miterlimit="10" stroke-linejoin="miter" fill="none" stroke="#000000" d="M737.199 7021.1 856.102 7308.1 881.801 7370.2 856.102 7308.1 737.199 7595.1 450.199 7714 388.199 7739.7 450.199 7714 163.199 7595.1 44.3984 7308.1 18.6992 7246.1 44.3984 7308.1 163.199 7021.1 450.199 6902.3 512.301 6876.5 450.199 6902.3Z"/>
<path transform="matrix(.1,0,0,-.1,0,792)" d="M2346.3 1111.2 2284.3 1136.9 2346.3 1111.2 1867.3 912.801 2084.9 738.602 2122 709 2084.9 738.602 2359.4 1081.8 2583 542 2608.7 479.898 2583 542 2680.6 777.602 2916.2 875.102 2978.3 900.898 2916.2 875.102" fill="#b0c4d9"/>
<path transform="matrix(.1,0,0,-.1,0,792)" stroke-width="9.5" stroke-linecap="butt" stroke-miterlimit="10" stroke-linejoin="miter" fill="none" stroke="#000000" d="M2346.3 1111.2 2284.3 1136.9 2346.3 1111.2 1867.3 912.801 2084.9 738.602 2122 709 2084.9 738.602 2359.4 1081.8 2583 542 2608.7 479.898 2583 542 2680.6 777.602 2916.2 875.102 2978.3 900.898 2916.2 875.102Z"/>
<path transform="matrix(.1,0,0,-.1,0,792)" d="M3734.3 1111.2 3672.3 1136.9 3734.3 1111.2 3164.5 875.102 3102.4 849.398 3164.5 875.102 3400 777.602 3497.6 542 3523.3 479.898 3497.6 542 3721.2 1081.8 3995.8 738.602 4025.5 701.602 3995.8 738.602 4213.4 912.801" fill="#9bc9b0"/>
<path transform="matrix(.1,0,0,-.1,0,792)" stroke-width="9.5" stroke-linecap="butt" stroke-miterlimit="10" stroke-linejoin="miter" fill="none" stroke="#000000" d="M3734.3 1111.2 3672.3 1136.9 3734.3 1111.2 3164.5 875.102 3102.4 849.398 3164.5 875.102 3400 777.602 3497.6 542 3523.3 479.898 3497.6 542 3721.2 1081.8 3995.8 738.602 4025.5 701.602 3995.8 738.602 4213.4 912.801Z"/>
<path transform="matrix(.1,0,0,-.1,0,792)" d="M5173.1 7432.3 5147.4 7370.2 5173.1 7432.3 5270.7 7667.9 5506.3 7765.4 5568.4 7739.7 5506.3 7765.4 4936.4 8001.5 4998.5 8027.2 4936.4 8001.5 4366.5 7765.4 4304.5 7791.1 4366.5 7765.4 4602.1 7667.9 4699.7 7432.3 4674 7370.2 4699.7 7432.3 4936.4 8003.7" fill="#f8c499"/>
<path transform="matrix(.1,0,0,-.1,0,792)" stroke-width="9.5" stroke-linecap="butt" stroke-miterlimit="10" stroke-linejoin="miter" fill="none" stroke="#000000" d="M5173.1 7432.3 5147.4 7370.2 5173.1 7432.3 5270.7 7667.9 5506.3 7765.4 5568.4 7739.7 5506.3 7765.4 4936.4 8001.5 4998.5 8027.2 4936.4 8001.5 4366.5 7765.4 4304.5 7791.1 4366.5 7765.4 4602.1 7667.9 4699.7 7432.3 4674 7370.2 4699.7 7432.3 4936.4 8003.7Z"/>
<path transform="matrix(.1,0,0,-.1,0,792)" d="M5224.5 7308.1 5198.8 7246.1 5224.5 7308.1 5343.4 7021.1 5630.4 6902.3 5692.5 6876.5 5630.4 6902.3 5917.4 7021.1 6036.3 7308.1 6062 7370.2 6036.3 7308.1 5917.4 7595.1 5630.4 7714 5568.4 7739.7 5630.4 7714 5343.4 7595.1" fill="#c28c24"/>
<path transform="matrix(.1,0,0,-.1,0,792)" stroke-width="9.5" stroke-linecap="butt" stroke-miterlimit="10" stroke-linejoin="miter" fill="none" stroke="#000000" d="M5224.5 7308.1 5198.8 7246.1 5224.5 7308.1 5343.4 7021.1 5630.4 6902.3 5692.5 6876.5 5630.4 6902.3 5917.4 7021.1 6036.3 7308.1 6062 7370.2 6036.3 7308.1 5917.4 7595.1 5630.4 7714 5568.4 7739.7 5630.4 7714 5343.4 7595.1Z"/>
<path transform="matrix(.1,0,0,-.1,0,792)" d="M3785.1 7432.3 3759.4 7370.2 3785.1 7432.3 3882.7 7667.9 4118.3 7765.4 4180.3 7739.7 4118.3 7765.4 3578.5 7989 3921.6 8263.6 3951.3 8226.5 3921.6 8263.6 3747.5 8481.2 3549 8002.1 3523.3 8064.2 3549 8002.1" fill="#9bc9b0"/>
<path transform="matrix(.1,0,0,-.1,0,792)" stroke-width="9.5" stroke-linecap="butt" stroke-miterlimit="10" stroke-linejoin="miter" fill="none" stroke="#000000" d="M3785.1 7432.3 3759.4 7370.2 3785.1 7432.3 3882.7 7667.9 4118.3 7765.4 4180.3 7739.7 4118.3 7765.4 3578.5 7989 3921.6 8263.6 3951.3 8226.5 3921.6 8263.6 3747.5 8481.2 3549 8002.1 3523.3 8064.2 3549 8002.1Z"/>
<path transform="matrix(.1,0,0,-.1,0,792)" d="M2295.6 7432.3 2269.9 7370.2 2295.6 7432.3 2531.6 8002.1 2557.3 7940.1 2531.6 8002.1 2333.2 8481.2 2159.1 8263.6 2122 8293.3 2159.1 8263.6 2502.2 7989 1962.4 7765.4 1900.3 7791.1 1962.4 7765.4 2198 7667.9" fill="#b0c4d9"/>
<path transform="matrix(.1,0,0,-.1,0,792)" stroke-width="9.5" stroke-linecap="butt" stroke-miterlimit="10" stroke-linejoin="miter" fill="none" stroke="#000000" d="M2295.6 7432.3 2269.9 7370.2 2295.6 7432.3 2531.6 8002.1 2557.3 7940.1 2531.6 8002.1 2333.2 8481.2 2159.1 8263.6 2122 8293.3 2159.1 8263.6 2502.2 7989 1962.4 7765.4 1900.3 7791.1 1962.4 7765.4 2198 7667.9Z"/>
<path transform="matrix(.1,0,0,-.1,0,792)" d="M1381 7432.3 1355.3 7370.2 1381 7432.3 1478.6 7667.9 1714.1 7765.4 1776.2 7739.7 1714.1 7765.4 1144.3 8001.5 1206.3 8027.2 1144.3 8001.5 574.398 7765.4 512.301 7791.1 574.398 7765.4 810 7667.9 907.5 7432.3 881.801 7370.2 907.5 7432.3 1144.3 8003.7" fill="#f8c499"/>
<path transform="matrix(.1,0,0,-.1,0,792)" stroke-width="9.5" stroke-linecap="butt" stroke-miterlimit="10" stroke-linejoin="miter" fill="none" stroke="#000000" d="M1381 7432.3 1355.3 7370.2 1381 7432.3 1478.6 7667.9 1714.1 7765.4 1776.2 7739.7 1714.1 7765.4 1144.3 8001.5 1206.3 8027.2 1144.3 8001.5 574.398 7765.4 512.301 7791.1 574.398 7765.4 810 7667.9 907.5 7432.3 881.801 7370.2 907.5 7432.3 1144.3 8003.7Z"/>
<path transform="matrix(.1,0,0,-.1,0,792)" d="M635.5 6106.1 661.199 6044 635.5 6106.1 437.102 6585.1 263 6367.5 225.898 6397.2 263 6367.5 606.102 6092.9 66.3008 5869.4 4.30078 5895.1 66.3008 5869.4 301.898 5771.8 399.5 5536.2 373.801 5474.1 399.5 5536.2" fill="#b0c4d9"/>
<path transform="matrix(.1,0,0,-.1,0,792)" stroke-width="9.5" stroke-linecap="butt" stroke-miterlimit="10" stroke-linejoin="miter" fill="none" stroke="#000000" d="M635.5 6106.1 661.199 6044 635.5 6106.1 437.102 6585.1 263 6367.5 225.898 6397.2 263 6367.5 606.102 6092.9 66.3008 5869.4 4.30078 5895.1 66.3008 5869.4 301.898 5771.8 399.5 5536.2 373.801 5474.1 399.5 5536.2Z"/>
<path transform="matrix(.1,0,0,-.1,0,792)" d="M635.5 4718.1 661.199 4656 635.5 4718.1 399.5 5287.9 425.199 5350 399.5 5287.9 301.898 5052.4 66.3008 4954.8 4.30078 4980.5 66.3008 4954.8 606.102 4731.2 263 4456.6 233.301 4493.7 263 4456.6 437.102 4239" fill="#9bc9b0"/>
<path transform="matrix(.1,0,0,-.1,0,792)" stroke-width="9.5" stroke-linecap="butt" stroke-miterlimit="10" stroke-linejoin="miter" fill="none" stroke="#000000" d="M635.5 4718.1 661.199 4656 635.5 4718.1 399.5 5287.9 425.199 5350 399.5 5287.9 301.898 5052.4 66.3008 4954.8 4.30078 4980.5 66.3008 4954.8 606.102 4731.2 263 4456.6 233.301 4493.7 263 4456.6 437.102 4239Z"/>
<path transform="matrix(.1,0,0,-.1,0,792)" d="M635.5 2313.9 661.199 2251.9 635.5 2313.9 437.102 2793 263 2575.4 225.898 2605 263 2575.4 606.102 2300.8 66.3008 2077.2 4.30078 2102.9 66.3008 2077.2 301.898 1979.6 399.5 1744 373.801 1682 399.5 1744" fill="#b0c4d9"/>
<path transform="matrix(.1,0,0,-.1,0,792)" stroke-width="9.5" stroke-linecap="butt" stroke-miterlimit="10" stroke-linejoin="miter" fill="none" stroke="#000000" d="M635.5 2313.9 661.199 2251.9 635.5 2313.9 437.102 2793 263 2575.4 225.898 2605 263 2575.4 606.102 2300.8 66.3008 2077.2 4.30078 2102.9 66.3008 2077.2 301.898 1979.6 399.5 1744 373.801 1682 399.5 1744Z"/>
<path transform="matrix(.1,0,0,-.1,0,792)" d="M2333.2 896.898 2159.1 679.301 2122 709 2159.1 679.301 2502.2 404.699 1962.4 181.102 1900.3 206.801 1962.4 181.102 2198 83.6016 2295.6-152 2269.9-214.102 2295.6-152 2531.6 417.898 2557.3 355.801 2531.6 417.898" fill="#b0c4d9"/>
<path transform="matrix(.1,0,0,-.1,0,792)" stroke-width="9.5" stroke-linecap="butt" stroke-miterlimit="10" stroke-linejoin="miter" fill="none" stroke="#000000" d="M2333.2 896.898 2159.1 679.301 2122 709 2159.1 679.301 2502.2 404.699 1962.4 181.102 1900.3 206.801 1962.4 181.102 2198 83.6016 2295.6-152 2269.9-214.102 2295.6-152 2531.6 417.898 2557.3 355.801 2531.6 417.898Z"/>
<path transform="matrix(.1,0,0,-.1,0,792)" d="M3747.5 896.898 3549 417.898 3523.3 479.898 3549 417.898 3785.1-152 3759.4-214.102 3785.1-152 3882.7 83.6016 4118.3 181.102 4180.3 155.398 4118.3 181.102 3578.5 404.699 3921.6 679.301 3951.3 642.199 3921.6 679.301" fill="#9bc9b0"/>
<path transform="matrix(.1,0,0,-.1,0,792)" stroke-width="9.5" stroke-linecap="butt" stroke-miterlimit="10" stroke-linejoin="miter" fill="none" stroke="#000000" d="M3747.5 896.898 3549 417.898 3523.3 479.898 3549 417.898 3785.1-152 3759.4-214.102 3785.1-152 3882.7 83.6016 4118.3 181.102 4180.3 155.398 4118.3 181.102 3578.5 404.699 3921.6 679.301 3951.3 642.199 3921.6 679.301Z"/>
<path transform="matrix(.1,0,0,-.1,0,792)" d="M4479.1 801.801 4453.4 863.801 4479.1 801.801 4255.5 262 3981 605.102 3951.3 642.199 3981 605.102 3763.3 431 4242.4 232.602 4304.5 206.801 4242.4 232.602 4812.3 468.602 4874.3 494.301 4812.3 468.602 4576.7 566.199" fill="#9bc9b0"/>
<path transform="matrix(.1,0,0,-.1,0,792)" stroke-width="9.5" stroke-linecap="butt" stroke-miterlimit="10" stroke-linejoin="miter" fill="none" stroke="#000000" d="M4479.1 801.801 4453.4 863.801 4479.1 801.801 4255.5 262 3981 605.102 3951.3 642.199 3981 605.102 3763.3 431 4242.4 232.602 4304.5 206.801 4242.4 232.602 4812.3 468.602 4874.3 494.301 4812.3 468.602 4576.7 566.199Z"/>
<path transform="matrix(.1,0,0,-.1,0,792)" d="M687 801.801 661.199 863.801 687 801.801 463.398 262 188.801 605.102 159.102 642.199 188.801 605.102-28.8008 431 450.199 232.602 512.301 206.801 450.199 232.602 1020.1 468.602 1082.2 494.301 1020.1 468.602 784.5 566.199" fill="#9bc9b0"/>
<path transform="matrix(.1,0,0,-.1,0,792)" stroke-width="9.5" stroke-linecap="butt" stroke-miterlimit="10" stroke-linejoin="miter" fill="none" stroke="#000000" d="M687 801.801 661.199 863.801 687 801.801 463.398 262 188.801 605.102 159.102 642.199 188.801 605.102-28.8008 431 450.199 232.602 512.301 206.801 450.199 232.602 1020.1 468.602 1082.2 494.301 1020.1 468.602 784.5 566.199Z"/>
<path transform="matrix(.1,0,0,-.1,0,792)" d="M635.5 925.898 661.199 863.801 635.5 925.898 399.5 1495.8 425.199 1557.9 399.5 1495.8 301.898 1260.2 66.3008 1162.6 4.30078 1188.3 66.3008 1162.6 606.102 939 263 664.5 233.301 701.602 263 664.5 437.102 446.898" fill="#9bc9b0"/>
<path transform="matrix(.1,0,0,-.1,0,792)" stroke-width="9.5" stroke-linecap="butt" stroke-miterlimit="10" stroke-linejoin="miter" fill="none" stroke="#000000" d="M635.5 925.898 661.199 863.801 635.5 925.898 399.5 1495.8 425.199 1557.9 399.5 1495.8 301.898 1260.2 66.3008 1162.6 4.30078 1188.3 66.3008 1162.6 606.102 939 263 664.5 233.301 701.602 263 664.5 437.102 446.898Z"/>
<path transform="matrix(.1,0,0,-.1,0,792)" d="M1601.6 801.801 1575.8 863.801 1601.6 801.801 1504 566.199 1268.4 468.602 1206.3 442.898 1268.4 468.602 1838.3 232.602 1900.3 206.801 1838.3 232.602 2317.3 431 2099.7 605.102 2062.6 634.801 2099.7 605.102 1825.1 262" fill="#b0c4d9"/>
<path transform="matrix(.1,0,0,-.1,0,792)" stroke-width="9.5" stroke-linecap="butt" stroke-miterlimit="10" stroke-linejoin="miter" fill="none" stroke="#000000" d="M1601.6 801.801 1575.8 863.801 1601.6 801.801 1504 566.199 1268.4 468.602 1206.3 442.898 1268.4 468.602 1838.3 232.602 1900.3 206.801 1838.3 232.602 2317.3 431 2099.7 605.102 2062.6 634.801 2099.7 605.102 1825.1 262Z"/>
<path transform="matrix(.1,0,0,-.1,0,792)" d="M5445.1 925.898 5419.4 988 5445.1 925.898 5643.5 446.898 5817.7 664.5 5854.8 634.801 5817.7 664.5 5474.6 939 6014.3 1162.6 6076.4 1136.9 6014.3 1162.6 5778.8 1260.2 5681.2 1495.8 5706.9 1557.9 5681.2 1495.8" fill="#b0c4d9"/>
<path transform="matrix(.1,0,0,-.1,0,792)" stroke-width="9.5" stroke-linecap="butt" stroke-miterlimit="10" stroke-linejoin="miter" fill="none" stroke="#000000" d="M5445.1 925.898 5419.4 988 5445.1 925.898 5643.5 446.898 5817.7 664.5 5854.8 634.801 5817.7 664.5 5474.6 939 6014.3 1162.6 6076.4 1136.9 6014.3 1162.6 5778.8 1260.2 5681.2 1495.8 5706.9 1557.9 5681.2 1495.8Z"/>
<path transform="matrix(.1,0,0,-.1,0,792)" d="M5393.7 801.801 5368 863.801 5393.7 801.801 5296.1 566.199 5060.5 468.602 4998.5 442.898 5060.5 468.602 5630.4 232.602 5692.5 206.801 5630.4 232.602 6109.5 431 5891.8 605.102 5854.8 634.801 5891.8 605.102 5617.3 262" fill="#b0c4d9"/>
<path transform="matrix(.1,0,0,-.1,0,792)" stroke-width="9.5" stroke-linecap="butt" stroke-miterlimit="10" stroke-linejoin="miter" fill="none" stroke="#000000" d="M5393.7 801.801 5368 863.801 5393.7 801.801 5296.1 566.199 5060.5 468.602 4998.5 442.898 5060.5 468.602 5630.4 232.602 5692.5 206.801 5630.4 232.602 6109.5 431 5891.8 605.102 5854.8 634.801 5891.8 605.102 5617.3 262Z"/>
<path transform="matrix(.1,0,0,-.1,0,792)" d="M5445.1 2313.9 5419.4 2376 5445.1 2313.9 5681.2 1744 5655.5 1682 5681.2 1744 5778.8 1979.6 6014.3 2077.2 6076.4 2051.5 6014.3 2077.2 5474.6 2300.8 5817.7 2575.4 5847.4 2538.3 5817.7 2575.4 5643.5 2793" fill="#9bc9b0"/>
<path transform="matrix(.1,0,0,-.1,0,792)" stroke-width="9.5" stroke-linecap="butt" stroke-miterlimit="10" stroke-linejoin="miter" fill="none" stroke="#000000" d="M5445.1 2313.9 5419.4 2376 5445.1 2313.9 5681.2 1744 5655.5 1682 5681.2 1744 5778.8 1979.6 6014.3 2077.2 6076.4 2051.5 6014.3 2077.2 5474.6 2300.8 5817.7 2575.4 5847.4 2538.3 5817.7 2575.4 5643.5 2793Z"/>
<path transform="matrix(.1,0,0,-.1,0,792)" d="M5445.1 4718.1 5419.4 4780.1 5445.1 4718.1 5643.5 4239 5817.7 4456.6 5854.8 4426.9 5817.7 4456.6 5474.6 4731.2 6014.3 4954.8 6076.4 4929.1 6014.3 4954.8 5778.8 5052.4 5681.2 5287.9 5706.9 5350 5681.2 5287.9" fill="#b0c4d9"/>
<path transform="matrix(.1,0,0,-.1,0,792)" stroke-width="9.5" stroke-linecap="butt" stroke-miterlimit="10" stroke-linejoin="miter" fill="none" stroke="#000000" d="M5445.1 4718.1 5419.4 4780.1 5445.1 4718.1 5643.5 4239 5817.7 4456.6 5854.8 4426.9 5817.7 4456.6 5474.6 4731.2 6014.3 4954.8 6076.4 4929.1 6014.3 4954.8 5778.8 5052.4 5681.2 5287.9 5706.9 5350 5681.2 5287.9Z"/>
<path transform="matrix(.1,0,0,-.1,0,792)" d="M5445.1 6106.1 5419.4 6168.1 5445.1 6106.1 5681.2 5536.2 5655.5 5474.1 5681.2 5536.2 5778.8 5771.8 6014.3 5869.4 6076.4 5843.7 6014.3 5869.4 5474.6 6092.9 5817.7 6367.5 5847.4 6330.4 5817.7 6367.5 5643.5 6585.1" fill="#9bc9b0"/>
<path transform="matrix(.1,0,0,-.1,0,792)" stroke-width="9.5" stroke-linecap="butt" stroke-miterlimit="10" stroke-linejoin="miter" fill="none" stroke="#000000" d="M5445.1 6106.1 5419.4 6168.1 5445.1 6106.1 5681.2 5536.2 5655.5 5474.1 5681.2 5536.2 5778.8 5771.8 6014.3 5869.4 6076.4 5843.7 6014.3 5869.4 5474.6 6092.9 5817.7 6367.5 5847.4 6330.4 5817.7 6367.5 5643.5 6585.1Z"/>
<path transform="matrix(.1,0,0,-.1,0,792)" d="M3040.3 7596.3 2978.3 7570.6 3040.3 7596.3 3327.3 7715.1 3446.2 8002.1 3471.9 7940.1 3446.2 8002.1 3327.3 8289.2 3040.3 8408 3102.4 8433.7 3040.3 8408 2753.3 8289.2 2634.4 8002.1 2608.7 8064.2 2634.4 8002.1 2753.3 7715.1" fill="#c28c24"/>
<path transform="matrix(.1,0,0,-.1,0,792)" stroke-width="9.5" stroke-linecap="butt" stroke-miterlimit="10" stroke-linejoin="miter" fill="none" stroke="#000000" d="M3040.3 7596.3 2978.3 7570.6 3040.3 7596.3 3327.3 7715.1 3446.2 8002.1 3471.9 7940.1 3446.2 8002.1 3327.3 8289.2 3040.3 8408 3102.4 8433.7 3040.3 8408 2753.3 8289.2 2634.4 8002.1 2608.7 8064.2 2634.4 8002.1 2753.3 7715.1Z"/>
<path transform="matrix(.1,0,0,-.1,0,792)" d="M3040.3 823.699 3102.4 849.398 3040.3 823.699 2753.3 704.898 2634.4 417.898 2608.7 479.898 2634.4 417.898 2753.3 130.801 3040.3 12 2978.3-13.6992 3040.3 12 3327.3 130.801 3446.2 417.898 3471.9 355.801 3446.2 417.898 3327.3 704.898" fill="#c28c24"/>
<path transform="matrix(.1,0,0,-.1,0,792)" stroke-width="9.5" stroke-linecap="butt" stroke-miterlimit="10" stroke-linejoin="miter" fill="none" stroke="#000000" d="M3040.3 823.699 3102.4 849.398 3040.3 823.699 2753.3 704.898 2634.4 417.898 2608.7 479.898 2634.4 417.898 2753.3 130.801 3040.3 12 2978.3-13.6992 3040.3 12 3327.3 130.801 3446.2 417.898 3471.9 355.801 3446.2 417.898 3327.3 704.898Z"/>
<path transform="matrix(.1,0,0,-.1,0,792)" d="M421.199 6119.2 203.602 6293.3 166.5 6323 203.602 6293.3-70.8984 5950.2-294.5 6490-320.199 6552.1-294.5 6490-392.102 6254.4-627.699 6156.8-689.801 6131.1-627.699 6156.8-57.8008 5920.8 4.30078 5895.1-57.8008 5920.8" fill="#b0c4d9"/>
<path transform="matrix(.1,0,0,-.1,0,792)" stroke-width="9.5" stroke-linecap="butt" stroke-miterlimit="10" stroke-linejoin="miter" fill="none" stroke="#000000" d="M421.199 6119.2 203.602 6293.3 166.5 6323 203.602 6293.3-70.8984 5950.2-294.5 6490-320.199 6552.1-294.5 6490-392.102 6254.4-627.699 6156.8-689.801 6131.1-627.699 6156.8-57.8008 5920.8 4.30078 5895.1-57.8008 5920.8Z"/>
<path transform="matrix(.1,0,0,-.1,0,792)" d="M421.199 4704.9-57.8008 4903.4-119.898 4929.1-57.8008 4903.4-627.699 4667.3-689.801 4641.6-627.699 4667.3-392.102 4569.7-294.5 4334.1-268.801 4272.1-294.5 4334.1-70.8984 4873.9 203.602 4530.8 233.301 4493.7 203.602 4530.8" fill="#9bc9b0"/>
<path transform="matrix(.1,0,0,-.1,0,792)" stroke-width="9.5" stroke-linecap="butt" stroke-miterlimit="10" stroke-linejoin="miter" fill="none" stroke="#000000" d="M421.199 4704.9-57.8008 4903.4-119.898 4929.1-57.8008 4903.4-627.699 4667.3-689.801 4641.6-627.699 4667.3-392.102 4569.7-294.5 4334.1-268.801 4272.1-294.5 4334.1-70.8984 4873.9 203.602 4530.8 233.301 4493.7 203.602 4530.8Z"/>
<path transform="matrix(.1,0,0,-.1,0,792)" d="M421.199 2327.1 203.602 2501.2 166.5 2530.9 203.602 2501.2-70.8984 2158.1-294.5 2697.9-320.199 2759.9-294.5 2697.9-392.102 2462.3-627.699 2364.7-689.801 2339-627.699 2364.7-57.8008 2128.6 4.30078 2102.9-57.8008 2128.6" fill="#b0c4d9"/>
<path transform="matrix(.1,0,0,-.1,0,792)" stroke-width="9.5" stroke-linecap="butt" stroke-miterlimit="10" stroke-linejoin="miter" fill="none" stroke="#000000" d="M421.199 2327.1 203.602 2501.2 166.5 2530.9 203.602 2501.2-70.8984 2158.1-294.5 2697.9-320.199 2759.9-294.5 2697.9-392.102 2462.3-627.699 2364.7-689.801 2339-627.699 2364.7-57.8008 2128.6 4.30078 2102.9-57.8008 2128.6Z"/>
<path transform="matrix(.1,0,0,-.1,0,792)" d="M421.199 912.801-57.8008 1111.2-119.898 1136.9-57.8008 1111.2-627.699 875.102-689.801 849.398-627.699 875.102-392.102 777.602-294.5 542-268.801 479.898-294.5 542-70.8984 1081.8 203.602 738.602 233.301 701.602 203.602 738.602" fill="#9bc9b0"/>
<path transform="matrix(.1,0,0,-.1,0,792)" stroke-width="9.5" stroke-linecap="butt" stroke-miterlimit="10" stroke-linejoin="miter" fill="none" stroke="#000000" d="M421.199 912.801-57.8008 1111.2-119.898 1136.9-57.8008 1111.2-627.699 875.102-689.801 849.398-627.699 875.102-392.102 777.602-294.5 542-268.801 479.898-294.5 542-70.8984 1081.8 203.602 738.602 233.301 701.602 203.602 738.602Z"/>
<path transform="matrix(.1,0,0,-.1,0,792)" d="M326.102 6850.8 388.199 6825.1 326.102 6850.8 90.5 6948.4-7.10156 7184 18.6992 7246.1-7.10156 7184-243.102 6614.1-268.801 6676.2-243.102 6614.1-44.6992 6135.1 129.5 6352.7 166.5 6323 129.5 6352.7-213.699 6627.3" fill="#b0c4d9"/>
<path transform="matrix(.1,0,0,-.1,0,792)" stroke-width="9.5" stroke-linecap="butt" stroke-miterlimit="10" stroke-linejoin="miter" fill="none" stroke="#000000" d="M326.102 6850.8 388.199 6825.1 326.102 6850.8 90.5 6948.4-7.10156 7184 18.6992 7246.1-7.10156 7184-243.102 6614.1-268.801 6676.2-243.102 6614.1-44.6992 6135.1 129.5 6352.7 166.5 6323 129.5 6352.7-213.699 6627.3Z"/>
<path transform="matrix(.1,0,0,-.1,0,792)" d="M326.102 3973.3 388.199 3947.6 326.102 3973.3-213.699 4196.9 129.5 4471.4 159.102 4434.3 129.5 4471.4-44.6992 4689-243.102 4210-268.801 4272.1-243.102 4210-7.10156 3640.1-32.8008 3578.1-7.10156 3640.1 90.5 3875.7" fill="#9bc9b0"/>
<path transform="matrix(.1,0,0,-.1,0,792)" stroke-width="9.5" stroke-linecap="butt" stroke-miterlimit="10" stroke-linejoin="miter" fill="none" stroke="#000000" d="M326.102 3973.3 388.199 3947.6 326.102 3973.3-213.699 4196.9 129.5 4471.4 159.102 4434.3 129.5 4471.4-44.6992 4689-243.102 4210-268.801 4272.1-243.102 4210-7.10156 3640.1-32.8008 3578.1-7.10156 3640.1 90.5 3875.7Z"/>
<path transform="matrix(.1,0,0,-.1,0,792)" d="M326.102 3058.7 388.199 3033 326.102 3058.7 90.5 3156.3-7.10156 3391.9 18.6992 3453.9-7.10156 3391.9-243.102 2822-268.801 2884-243.102 2822-44.6992 2342.9 129.5 2560.5 166.5 2530.9 129.5 2560.5-213.699 2835.1" fill="#b0c4d9"/>
<path transform="matrix(.1,0,0,-.1,0,792)" stroke-width="9.5" stroke-linecap="butt" stroke-miterlimit="10" stroke-linejoin="miter" fill="none" stroke="#000000" d="M326.102 3058.7 388.199 3033 326.102 3058.7 90.5 3156.3-7.10156 3391.9 18.6992 3453.9-7.10156 3391.9-243.102 2822-268.801 2884-243.102 2822-44.6992 2342.9 129.5 2560.5 166.5 2530.9 129.5 2560.5-213.699 2835.1Z"/>
<path transform="matrix(.1,0,0,-.1,0,792)" d="M348.102 1619.9 373.801 1682 348.102 1619.9 229.199 1906.9-57.8008 2025.8-119.898 2051.5-57.8008 2025.8-344.801 1906.9-463.699 1619.9-489.398 1557.9-463.699 1619.9-344.801 1332.9-57.8008 1214 4.30078 1188.3-57.8008 1214 229.199 1332.9" fill="#c28c24"/>
<path transform="matrix(.1,0,0,-.1,0,792)" stroke-width="9.5" stroke-linecap="butt" stroke-miterlimit="10" stroke-linejoin="miter" fill="none" stroke="#000000" d="M348.102 1619.9 373.801 1682 348.102 1619.9 229.199 1906.9-57.8008 2025.8-119.898 2051.5-57.8008 2025.8-344.801 1906.9-463.699 1619.9-489.398 1557.9-463.699 1619.9-344.801 1332.9-57.8008 1214 4.30078 1188.3-57.8008 1214 229.199 1332.9Z"/>
<path transform="matrix(.1,0,0,-.1,0,792)" d="M348.102 5412.1 373.801 5474.1 348.102 5412.1 229.199 5699.1-57.8008 5817.9-119.898 5843.7-57.8008 5817.9-344.801 5699.1-463.699 5412.1-489.398 5350-463.699 5412.1-344.801 5125.1-57.8008 5006.2 4.30078 4980.5-57.8008 5006.2 229.199 5125.1" fill="#c28c24"/>
<path transform="matrix(.1,0,0,-.1,0,792)" stroke-width="9.5" stroke-linecap="butt" stroke-miterlimit="10" stroke-linejoin="miter" fill="none" stroke="#000000" d="M348.102 5412.1 373.801 5474.1 348.102 5412.1 229.199 5699.1-57.8008 5817.9-119.898 5843.7-57.8008 5817.9-344.801 5699.1-463.699 5412.1-489.398 5350-463.699 5412.1-344.801 5125.1-57.8008 5006.2 4.30078 4980.5-57.8008 5006.2 229.199 5125.1Z"/>
<path transform="matrix(.1,0,0,-.1,0,792)" d="M4242.4 7816.8 4304.5 7791.1 4242.4 7816.8 4812.3 8052.9 4874.3 8078.6 4812.3 8052.9 4576.7 8150.5 4479.1 8386.1 4453.4 8448.1 4479.1 8386.1 4255.5 7846.3 3981 8189.4 3951.3 8226.5 3981 8189.4 3763.3 8015.3" fill="#9bc9b0"/>
<path transform="matrix(.1,0,0,-.1,0,792)" stroke-width="9.5" stroke-linecap="butt" stroke-miterlimit="10" stroke-linejoin="miter" fill="none" stroke="#000000" d="M4242.4 7816.8 4304.5 7791.1 4242.4 7816.8 4812.3 8052.9 4874.3 8078.6 4812.3 8052.9 4576.7 8150.5 4479.1 8386.1 4453.4 8448.1 4479.1 8386.1 4255.5 7846.3 3981 8189.4 3951.3 8226.5 3981 8189.4 3763.3 8015.3Z"/>
<path transform="matrix(.1,0,0,-.1,0,792)" d="M1838.3 7816.8 1900.3 7791.1 1838.3 7816.8 2317.3 8015.3 2099.7 8189.4 2062.6 8219.1 2099.7 8189.4 1825.1 7846.3 1601.6 8386.1 1575.8 8448.1 1601.6 8386.1 1504 8150.5 1268.4 8052.9 1206.3 8027.2 1268.4 8052.9" fill="#b0c4d9"/>
<path transform="matrix(.1,0,0,-.1,0,792)" stroke-width="9.5" stroke-linecap="butt" stroke-miterlimit="10" stroke-linejoin="miter" fill="none" stroke="#000000" d="M1838.3 7816.8 1900.3 7791.1 1838.3 7816.8 2317.3 8015.3 2099.7 8189.4 2062.6 8219.1 2099.7 8189.4 1825.1 7846.3 1601.6 8386.1 1575.8 8448.1 1601.6 8386.1 1504 8150.5 1268.4 8052.9 1206.3 8027.2 1268.4 8052.9Z"/>
<path transform="matrix(.1,0,0,-.1,0,792)" d="M326.102 7765.4 388.199 7739.7 326.102 7765.4-213.699 7989 129.5 8263.6 159.102 8226.5 129.5 8263.6-44.6992 8481.2-243.102 8002.1-268.801 8064.2-243.102 8002.1-7.10156 7432.3-32.8008 7370.2-7.10156 7432.3 90.5 7667.9" fill="#9bc9b0"/>
<path transform="matrix(.1,0,0,-.1,0,792)" stroke-width="9.5" stroke-linecap="butt" stroke-miterlimit="10" stroke-linejoin="miter" fill="none" stroke="#000000" d="M326.102 7765.4 388.199 7739.7 326.102 7765.4-213.699 7989 129.5 8263.6 159.102 8226.5 129.5 8263.6-44.6992 8481.2-243.102 8002.1-268.801 8064.2-243.102 8002.1-7.10156 7432.3-32.8008 7370.2-7.10156 7432.3 90.5 7667.9Z"/>
<path transform="matrix(.1,0,0,-.1,0,792)" d="M450.199 7816.8 512.301 7791.1 450.199 7816.8 1020.1 8052.9 1082.2 8078.6 1020.1 8052.9 784.5 8150.5 687 8386.1 661.199 8448.1 687 8386.1 463.398 7846.3 188.801 8189.4 159.102 8226.5 188.801 8189.4-28.8008 8015.3" fill="#9bc9b0"/>
<path transform="matrix(.1,0,0,-.1,0,792)" stroke-width="9.5" stroke-linecap="butt" stroke-miterlimit="10" stroke-linejoin="miter" fill="none" stroke="#000000" d="M450.199 7816.8 512.301 7791.1 450.199 7816.8 1020.1 8052.9 1082.2 8078.6 1020.1 8052.9 784.5 8150.5 687 8386.1 661.199 8448.1 687 8386.1 463.398 7846.3 188.801 8189.4 159.102 8226.5 188.801 8189.4-28.8008 8015.3Z"/>
<path transform="matrix(.1,0,0,-.1,0,792)" d="M5659.4 912.801 5877 738.602 5914.1 709 5877 738.602 6151.6 1081.8 6375.2 542 6400.9 479.898 6375.2 542 6472.8 777.602 6708.4 875.102 6770.4 900.898 6708.4 875.102 6138.5 1111.2 6076.4 1136.9 6138.5 1111.2" fill="#b0c4d9"/>
<path transform="matrix(.1,0,0,-.1,0,792)" stroke-width="9.5" stroke-linecap="butt" stroke-miterlimit="10" stroke-linejoin="miter" fill="none" stroke="#000000" d="M5659.4 912.801 5877 738.602 5914.1 709 5877 738.602 6151.6 1081.8 6375.2 542 6400.9 479.898 6375.2 542 6472.8 777.602 6708.4 875.102 6770.4 900.898 6708.4 875.102 6138.5 1111.2 6076.4 1136.9 6138.5 1111.2Z"/>
<path transform="matrix(.1,0,0,-.1,0,792)" d="M5659.4 2327.1 6138.5 2128.6 6200.5 2102.9 6138.5 2128.6 6708.4 2364.7 6770.4 2390.4 6708.4 2364.7 6472.8 2462.3 6375.2 2697.9 6349.5 2759.9 6375.2 2697.9 6151.6 2158.1 5877 2501.2 5847.4 2538.3 5877 2501.2" fill="#9bc9b0"/>
<path transform="matrix(.1,0,0,-.1,0,792)" stroke-width="9.5" stroke-linecap="butt" stroke-miterlimit="10" stroke-linejoin="miter" fill="none" stroke="#000000" d="M5659.4 2327.1 6138.5 2128.6 6200.5 2102.9 6138.5 2128.6 6708.4 2364.7 6770.4 2390.4 6708.4 2364.7 6472.8 2462.3 6375.2 2697.9 6349.5 2759.9 6375.2 2697.9 6151.6 2158.1 5877 2501.2 5847.4 2538.3 5877 2501.2Z"/>
<path transform="matrix(.1,0,0,-.1,0,792)" d="M5659.4 4704.9 5877 4530.8 5914.1 4501.1 5877 4530.8 6151.6 4873.9 6375.2 4334.1 6400.9 4272.1 6375.2 4334.1 6472.8 4569.7 6708.4 4667.3 6770.4 4693 6708.4 4667.3 6138.5 4903.4 6076.4 4929.1 6138.5 4903.4" fill="#b0c4d9"/>
<path transform="matrix(.1,0,0,-.1,0,792)" stroke-width="9.5" stroke-linecap="butt" stroke-miterlimit="10" stroke-linejoin="miter" fill="none" stroke="#000000" d="M5659.4 4704.9 5877 4530.8 5914.1 4501.1 5877 4530.8 6151.6 4873.9 6375.2 4334.1 6400.9 4272.1 6375.2 4334.1 6472.8 4569.7 6708.4 4667.3 6770.4 4693 6708.4 4667.3 6138.5 4903.4 6076.4 4929.1 6138.5 4903.4Z"/>
<path transform="matrix(.1,0,0,-.1,0,792)" d="M5659.4 6119.2 6138.5 5920.8 6200.5 5895.1 6138.5 5920.8 6708.4 6156.8 6770.4 6182.5 6708.4 6156.8 6472.8 6254.4 6375.2 6490 6349.5 6552.1 6375.2 6490 6151.6 5950.2 5877 6293.3 5847.4 6330.4 5877 6293.3" fill="#9bc9b0"/>
<path transform="matrix(.1,0,0,-.1,0,792)" stroke-width="9.5" stroke-linecap="butt" stroke-miterlimit="10" stroke-linejoin="miter" fill="none" stroke="#000000" d="M5659.4 6119.2 6138.5 5920.8 6200.5 5895.1 6138.5 5920.8 6708.4 6156.8 6770.4 6182.5 6708.4 6156.8 6472.8 6254.4 6375.2 6490 6349.5 6552.1 6375.2 6490 6151.6 5950.2 5877 6293.3 5847.4 6330.4 5877 6293.3Z"/>
<path transform="matrix(.1,0,0,-.1,0,792)" d="M5754.5 6850.8 5692.5 6876.5 5754.5 6850.8 6294.3 6627.3 5951.2 6352.7 5921.5 6389.8 5951.2 6352.7 6125.3 6135.1 6323.8 6614.1 6349.5 6552.1 6323.8 6614.1 6087.7 7184 6113.4 7246.1 6087.7 7184 5990.1 6948.4" fill="#9bc9b0"/>
<path transform="matrix(.1,0,0,-.1,0,792)" stroke-width="9.5" stroke-linecap="butt" stroke-miterlimit="10" stroke-linejoin="miter" fill="none" stroke="#000000" d="M5754.5 6850.8 5692.5 6876.5 5754.5 6850.8 6294.3 6627.3 5951.2 6352.7 5921.5 6389.8 5951.2 6352.7 6125.3 6135.1 6323.8 6614.1 6349.5 6552.1 6323.8 6614.1 6087.7 7184 6113.4 7246.1 6087.7 7184 5990.1 6948.4Z"/>
<path transform="matrix(.1,0,0,-.1,0,792)" d="M5630.4 7816.8 5692.5 7791.1 5630.4 7816.8 6109.5 8015.3 5891.8 8189.4 5854.8 8219.1 5891.8 8189.4 5617.3 7846.3 5393.7 8386.1 5368 8448.1 5393.7 8386.1 5296.1 8150.5 5060.5 8052.9 4998.5 8027.2 5060.5 8052.9" fill="#b0c4d9"/>
<path transform="matrix(.1,0,0,-.1,0,792)" stroke-width="9.5" stroke-linecap="butt" stroke-miterlimit="10" stroke-linejoin="miter" fill="none" stroke="#000000" d="M5630.4 7816.8 5692.5 7791.1 5630.4 7816.8 6109.5 8015.3 5891.8 8189.4 5854.8 8219.1 5891.8 8189.4 5617.3 7846.3 5393.7 8386.1 5368 8448.1 5393.7 8386.1 5296.1 8150.5 5060.5 8052.9 4998.5 8027.2 5060.5 8052.9Z"/>
<path transform="matrix(.1,0,0,-.1,0,792)" d="M5754.5 7765.4 5692.5 7791.1 5754.5 7765.4 5990.1 7667.9 6087.7 7432.3 6062 7370.2 6087.7 7432.3 6323.8 8002.1 6349.5 7940.1 6323.8 8002.1 6125.3 8481.2 5951.2 8263.6 5914.1 8293.3 5951.2 8263.6 6294.3 7989" fill="#b0c4d9"/>
<path transform="matrix(.1,0,0,-.1,0,792)" stroke-width="9.5" stroke-linecap="butt" stroke-miterlimit="10" stroke-linejoin="miter" fill="none" stroke="#000000" d="M5754.5 7765.4 5692.5 7791.1 5754.5 7765.4 5990.1 7667.9 6087.7 7432.3 6062 7370.2 6087.7 7432.3 6323.8 8002.1 6349.5 7940.1 6323.8 8002.1 6125.3 8481.2 5951.2 8263.6 5914.1 8293.3 5951.2 8263.6 6294.3 7989Z"/>
<path transform="matrix(.1,0,0,-.1,0,792)" d="M5754.5 3058.7 5692.5 3084.4 5754.5 3058.7 6294.3 2835.1 5951.2 2560.5 5921.5 2597.6 5951.2 2560.5 6125.3 2342.9 6323.8 2822 6349.5 2759.9 6323.8 2822 6087.7 3391.9 6113.4 3453.9 6087.7 3391.9 5990.1 3156.3" fill="#9bc9b0"/>
<path transform="matrix(.1,0,0,-.1,0,792)" stroke-width="9.5" stroke-linecap="butt" stroke-miterlimit="10" stroke-linejoin="miter" fill="none" stroke="#000000" d="M5754.5 3058.7 5692.5 3084.4 5754.5 3058.7 6294.3 2835.1 5951.2 2560.5 5921.5 2597.6 5951.2 2560.5 6125.3 2342.9 6323.8 2822 6349.5 2759.9 6323.8 2822 6087.7 3391.9 6113.4 3453.9 6087.7 3391.9 5990.1 3156.3Z"/>
<path transform="matrix(.1,0,0,-.1,0,792)" d="M5754.5 3973.3 5692.5 3999 5754.5 3973.3 5990.1 3875.7 6087.7 3640.1 6062 3578.1 6087.7 3640.1 6323.8 4210 6349.5 4147.9 6323.8 4210 6125.3 4689 5951.2 4471.4 5914.1 4501.1 5951.2 4471.4 6294.3 4196.9" fill="#b0c4d9"/>
<path transform="matrix(.1,0,0,-.1,0,792)" stroke-width="9.5" stroke-linecap="butt" stroke-miterlimit="10" stroke-linejoin="miter" fill="none" stroke="#000000" d="M5754.5 3973.3 5692.5 3999 5754.5 3973.3 5990.1 3875.7 6087.7 3640.1 6062 3578.1 6087.7 3640.1 6323.8 4210 6349.5 4147.9 6323.8 4210 6125.3 4689 5951.2 4471.4 5914.1 4501.1 5951.2 4471.4 6294.3 4196.9Z"/>
<path transform="matrix(.1,0,0,-.1,0,792)" d="M5732.6 5412.1 5706.9 5350 5732.6 5412.1 5851.5 5125.1 6138.5 5006.2 6200.5 4980.5 6138.5 5006.2 6425.5 5125.1 6544.3 5412.1 6570.1 5474.1 6544.3 5412.1 6425.5 5699.1 6138.5 5817.9 6076.4 5843.7 6138.5 5817.9 5851.5 5699.1" fill="#c28c24"/>
<path transform="matrix(.1,0,0,-.1,0,792)" stroke-width="9.5" stroke-linecap="butt" stroke-miterlimit="10" stroke-linejoin="miter" fill="none" stroke="#000000" d="M5732.6 5412.1 5706.9 5350 5732.6 5412.1 5851.5 5125.1 6138.5 5006.2 6200.5 4980.5 6138.5 5006.2 6425.5 5125.1 6544.3 5412.1 6570.1 5474.1 6544.3 5412.1 6425.5 5699.1 6138.5 5817.9 6076.4 5843.7 6138.5 5817.9 5851.5 5699.1Z"/>
<path transform="matrix(.1,0,0,-.1,0,792)" d="M5732.6 1619.9 5706.9 1557.9 5732.6 1619.9 5851.5 1332.9 6138.5 1214 6200.5 1188.3 6138.5 1214 6425.5 1332.9 6544.3 1619.9 6570.1 1682 6544.3 1619.9 6425.5 1906.9 6138.5 2025.8 6076.4 2051.5 6138.5 2025.8 5851.5 1906.9" fill="#c28c24"/>
<path transform="matrix(.1,0,0,-.1,0,792)" stroke-width="9.5" stroke-linecap="butt" stroke-miterlimit="10" stroke-linejoin="miter" fill="none" stroke="#000000" d="M5732.6 1619.9 5706.9 1557.9 5732.6 1619.9 5851.5 1332.9 6138.5 1214 6200.5 1188.3 6138.5 1214 6425.5 1332.9 6544.3 1619.9 6570.1 1682 6544.3 1619.9 6425.5 1906.9 6138.5 2025.8 6076.4 2051.5 6138.5 2025.8 5851.5 1906.9Z"/>
<path transform="matrix(.1,0,0,-.1,0,792)" d="M1144.3 417.199 1206.3 442.898 1144.3 417.199 574.398 181.102 512.301 206.801 574.398 181.102 810 83.6016 907.5-152 881.801-214.102 907.5-152 1144.3 419.398 1381-152 1355.3-214.102 1381-152 1478.6 83.6016 1714.1 181.102 1776.2 155.398 1714.1 181.102" fill="#f8c499"/>
<path transform="matrix(.1,0,0,-.1,0,792)" stroke-width="9.5" stroke-linecap="butt" stroke-miterlimit="10" stroke-linejoin="miter" fill="none" stroke="#000000" d="M1144.3 417.199 1206.3 442.898 1144.3 417.199 574.398 181.102 512.301 206.801 574.398 181.102 810 83.6016 907.5-152 881.801-214.102 907.5-152 1144.3 419.398 1381-152 1355.3-214.102 1381-152 1478.6 83.6016 1714.1 181.102 1776.2 155.398 1714.1 181.102Z"/>
<path transform="matrix(.1,0,0,-.1,0,792)" d="M4936.4 417.199 4998.5 442.898 4936.4 417.199 4366.5 181.102 4304.5 206.801 4366.5 181.102 4602.1 83.6016 4699.7-152 4674-214.102 4699.7-152 4936.4 419.398 5173.1-152 5147.4-214.102 5173.1-152 5270.7 83.6016 5506.3 181.102 5568.4 155.398 5506.3 181.102" fill="#f8c499"/>
<path transform="matrix(.1,0,0,-.1,0,792)" stroke-width="9.5" stroke-linecap="butt" stroke-miterlimit="10" stroke-linejoin="miter" fill="none" stroke="#000000" d="M4936.4 417.199 4998.5 442.898 4936.4 417.199 4366.5 181.102 4304.5 206.801 4366.5 181.102 4602.1 83.6016 4699.7-152 4674-214.102 4699.7-152 4936.4 419.398 5173.1-152 5147.4-214.102 5173.1-152 5270.7 83.6016 5506.3 181.102 5568.4 155.398 5506.3 181.102Z"/>
<path transform="matrix(.1,0,0,-.1,0,792)" d="M2583 293.699 2557.3 355.801 2583 293.699 2347-276.199 2321.3-338.199 2347-276.199 2583-846 2608.7-908.102 2583-846 2680.6-610.5 2916.2-512.898 2978.3-487.199 2916.2-512.898 2344.7-276.199 2916.2-39.3984 2978.3-13.6992 2916.2-39.3984 2680.6 58.1016" fill="#f8c499"/>
<path transform="matrix(.1,0,0,-.1,0,792)" stroke-width="9.5" stroke-linecap="butt" stroke-miterlimit="10" stroke-linejoin="miter" fill="none" stroke="#000000" d="M2583 293.699 2557.3 355.801 2583 293.699 2347-276.199 2321.3-338.199 2347-276.199 2583-846 2608.7-908.102 2583-846 2680.6-610.5 2916.2-512.898 2978.3-487.199 2916.2-512.898 2344.7-276.199 2916.2-39.3984 2978.3-13.6992 2916.2-39.3984 2680.6 58.1016Z"/>
<path transform="matrix(.1,0,0,-.1,0,792)" d="M3497.6 293.699 3471.9 355.801 3497.6 293.699 3400 58.1016 3164.5-39.3984 3102.4-65.1992 3164.5-39.3984 3735.9-276.199 3164.5-512.898 3102.4-538.602 3164.5-512.898 3400-610.5 3497.6-846 3523.3-908.102 3497.6-846 3733.7-276.199 3759.4-214.102 3733.7-276.199" fill="#f8c499"/>
<path transform="matrix(.1,0,0,-.1,0,792)" stroke-width="9.5" stroke-linecap="butt" stroke-miterlimit="10" stroke-linejoin="miter" fill="none" stroke="#000000" d="M3497.6 293.699 3471.9 355.801 3497.6 293.699 3400 58.1016 3164.5-39.3984 3102.4-65.1992 3164.5-39.3984 3735.9-276.199 3164.5-512.898 3102.4-538.602 3164.5-512.898 3400-610.5 3497.6-846 3523.3-908.102 3497.6-846 3733.7-276.199 3759.4-214.102 3733.7-276.199Z"/>
<path transform="matrix(.1,0,0,-.1,0,792)" d="M129.5 679.301 159.102 642.199 129.5 679.301-44.6992 896.898-243.102 417.898-268.801 479.898-243.102 417.898-7.10156-152-32.8008-214.102-7.10156-152 90.5 83.6016 326.102 181.102 388.199 155.398 326.102 181.102-213.699 404.699" fill="#9bc9b0"/>
<path transform="matrix(.1,0,0,-.1,0,792)" stroke-width="9.5" stroke-linecap="butt" stroke-miterlimit="10" stroke-linejoin="miter" fill="none" stroke="#000000" d="M129.5 679.301 159.102 642.199 129.5 679.301-44.6992 896.898-243.102 417.898-268.801 479.898-243.102 417.898-7.10156-152-32.8008-214.102-7.10156-152 90.5 83.6016 326.102 181.102 388.199 155.398 326.102 181.102-213.699 404.699Z"/>
<path transform="matrix(.1,0,0,-.1,0,792)" d="M1144.3 171.199 959-276.199 933.199-338.199 959-276.199 1144.3-723.5 1329.6-276.199 1355.3-214.102 1329.6-276.199" fill="#c28c24"/>
<path transform="matrix(.1,0,0,-.1,0,792)" stroke-width="9.5" stroke-linecap="butt" stroke-miterlimit="10" stroke-linejoin="miter" fill="none" stroke="#000000" d="M1144.3 171.199 959-276.199 933.199-338.199 959-276.199 1144.3-723.5 1329.6-276.199 1355.3-214.102 1329.6-276.199Z"/>
<path transform="matrix(.1,0,0,-.1,0,792)" d="M4936.4 171.199 4751.1-276.199 4725.4-338.199 4751.1-276.199 4936.4-723.5 5121.7-276.199 5147.4-214.102 5121.7-276.199" fill="#c28c24"/>
<path transform="matrix(.1,0,0,-.1,0,792)" stroke-width="9.5" stroke-linecap="butt" stroke-miterlimit="10" stroke-linejoin="miter" fill="none" stroke="#000000" d="M4936.4 171.199 4751.1-276.199 4725.4-338.199 4751.1-276.199 4936.4-723.5 5121.7-276.199 5147.4-214.102 5121.7-276.199Z"/>
<path transform="matrix(.1,0,0,-.1,0,792)" d="M5951.2 679.301 5914.1 709 5951.2 679.301 6294.3 404.699 5754.5 181.102 5692.5 206.801 5754.5 181.102 5990.1 83.6016 6087.7-152 6062-214.102 6087.7-152 6323.8 417.898 6349.5 355.801 6323.8 417.898 6125.3 896.898" fill="#b0c4d9"/>
<path transform="matrix(.1,0,0,-.1,0,792)" stroke-width="9.5" stroke-linecap="butt" stroke-miterlimit="10" stroke-linejoin="miter" fill="none" stroke="#000000" d="M5951.2 679.301 5914.1 709 5951.2 679.301 6294.3 404.699 5754.5 181.102 5692.5 206.801 5754.5 181.102 5990.1 83.6016 6087.7-152 6062-214.102 6087.7-152 6323.8 417.898 6349.5 355.801 6323.8 417.898 6125.3 896.898Z"/>
<path transform="matrix(.1,0,0,-.1,0,792)" d="M5630.4 129.699 5568.4 155.398 5630.4 129.699 5343.4 10.8008 5224.5-276.199 5198.8-338.199 5224.5-276.199 5343.4-563.199 5630.4-682 5692.5-707.801 5630.4-682 5917.4-563.199 6036.3-276.199 6062-214.102 6036.3-276.199 5917.4 10.8008" fill="#c28c24"/>
<path transform="matrix(.1,0,0,-.1,0,792)" stroke-width="9.5" stroke-linecap="butt" stroke-miterlimit="10" stroke-linejoin="miter" fill="none" stroke="#000000" d="M5630.4 129.699 5568.4 155.398 5630.4 129.699 5343.4 10.8008 5224.5-276.199 5198.8-338.199 5224.5-276.199 5343.4-563.199 5630.4-682 5692.5-707.801 5630.4-682 5917.4-563.199 6036.3-276.199 6062-214.102 6036.3-276.199 5917.4 10.8008Z"/>
<path transform="matrix(.1,0,0,-.1,0,792)" d="M450.199 129.699 388.199 155.398 450.199 129.699 163.199 10.8008 44.3984-276.199 18.6992-338.199 44.3984-276.199 163.199-563.199 450.199-682 512.301-707.801 450.199-682 737.199-563.199 856.102-276.199 881.801-214.102 856.102-276.199 737.199 10.8008" fill="#c28c24"/>
<path transform="matrix(.1,0,0,-.1,0,792)" stroke-width="9.5" stroke-linecap="butt" stroke-miterlimit="10" stroke-linejoin="miter" fill="none" stroke="#000000" d="M450.199 129.699 388.199 155.398 450.199 129.699 163.199 10.8008 44.3984-276.199 18.6992-338.199 44.3984-276.199 163.199-563.199 450.199-682 512.301-707.801 450.199-682 737.199-563.199 856.102-276.199 881.801-214.102 856.102-276.199 737.199 10.8008Z"/>
<path transform="matrix(.1,0,0,-.1,0,792)" d="M1838.3 129.699 1776.2 155.398 1838.3 129.699 1551.3 10.8008 1432.4-276.199 1406.7-338.199 1432.4-276.199 1551.3-563.199 1838.3-682 1900.3-707.801 1838.3-682 2125.3-563.199 2244.1-276.199 2269.9-214.102 2244.1-276.199 2125.3 10.8008" fill="#c28c24"/>
<path transform="matrix(.1,0,0,-.1,0,792)" stroke-width="9.5" stroke-linecap="butt" stroke-miterlimit="10" stroke-linejoin="miter" fill="none" stroke="#000000" d="M1838.3 129.699 1776.2 155.398 1838.3 129.699 1551.3 10.8008 1432.4-276.199 1406.7-338.199 1432.4-276.199 1551.3-563.199 1838.3-682 1900.3-707.801 1838.3-682 2125.3-563.199 2244.1-276.199 2269.9-214.102 2244.1-276.199 2125.3 10.8008Z"/>
<path transform="matrix(.1,0,0,-.1,0,792)" d="M4242.4 129.699 4180.3 155.398 4242.4 129.699 3955.4 10.8008 3836.5-276.199 3810.8-338.199 3836.5-276.199 3955.4-563.199 4242.4-682 4304.5-707.801 4242.4-682 4529.4-563.199 4648.3-276.199 4674-214.102 4648.3-276.199 4529.4 10.8008" fill="#c28c24"/>
<path transform="matrix(.1,0,0,-.1,0,792)" stroke-width="9.5" stroke-linecap="butt" stroke-miterlimit="10" stroke-linejoin="miter" fill="none" stroke="#000000" d="M4242.4 129.699 4180.3 155.398 4242.4 129.699 3955.4 10.8008 3836.5-276.199 3810.8-338.199 3836.5-276.199 3955.4-563.199 4242.4-682 4304.5-707.801 4242.4-682 4529.4-563.199 4648.3-276.199 4674-214.102 4648.3-276.199 4529.4 10.8008Z"/>
<path transform="matrix(.1,0,0,-.1,0,792)" d="M6139.1 3516 6113.4 3453.9 6139.1 3516 6375.2 2946.1 6400.9 2884 6375.2 2946.1 6472.8 3181.7 6708.4 3279.3 6770.4 3305 6708.4 3279.3 6136.9 3516 6708.4 3752.7 6770.4 3778.4 6708.4 3752.7 6472.8 3850.3 6375.2 4085.9 6349.5 4147.9 6375.2 4085.9" fill="#f8c499"/>
<path transform="matrix(.1,0,0,-.1,0,792)" stroke-width="9.5" stroke-linecap="butt" stroke-miterlimit="10" stroke-linejoin="miter" fill="none" stroke="#000000" d="M6139.1 3516 6113.4 3453.9 6139.1 3516 6375.2 2946.1 6400.9 2884 6375.2 2946.1 6472.8 3181.7 6708.4 3279.3 6770.4 3305 6708.4 3279.3 6136.9 3516 6708.4 3752.7 6770.4 3778.4 6708.4 3752.7 6472.8 3850.3 6375.2 4085.9 6349.5 4147.9 6375.2 4085.9Z"/>
<path transform="matrix(.1,0,0,-.1,0,792)" d="M6139.1 7308.1 6113.4 7246.1 6139.1 7308.1 6375.2 6738.2 6400.9 6676.2 6375.2 6738.2 6472.8 6973.8 6708.4 7071.4 6770.4 7097.1 6708.4 7071.4 6136.9 7308.1 6708.4 7544.9 6770.4 7570.6 6708.4 7544.9 6472.8 7642.4 6375.2 7878 6349.5 7940.1 6375.2 7878" fill="#f8c499"/>
<path transform="matrix(.1,0,0,-.1,0,792)" stroke-width="9.5" stroke-linecap="butt" stroke-miterlimit="10" stroke-linejoin="miter" fill="none" stroke="#000000" d="M6139.1 7308.1 6113.4 7246.1 6139.1 7308.1 6375.2 6738.2 6400.9 6676.2 6375.2 6738.2 6472.8 6973.8 6708.4 7071.4 6770.4 7097.1 6708.4 7071.4 6136.9 7308.1 6708.4 7544.9 6770.4 7570.6 6708.4 7544.9 6472.8 7642.4 6375.2 7878 6349.5 7940.1 6375.2 7878Z"/>
<path transform="matrix(.1,0,0,-.1,0,792)" d="M6139.1-276.199 6113.4-338.199 6139.1-276.199 6375.2-846 6400.9-908.102 6375.2-846 6472.8-610.5 6708.4-512.898 6770.4-487.199 6708.4-512.898 6136.9-276.199 6708.4-39.3984 6770.4-13.6992 6708.4-39.3984 6472.8 58.1016 6375.2 293.699 6349.5 355.801 6375.2 293.699" fill="#f8c499"/>
<path transform="matrix(.1,0,0,-.1,0,792)" stroke-width="9.5" stroke-linecap="butt" stroke-miterlimit="10" stroke-linejoin="miter" fill="none" stroke="#000000" d="M6139.1-276.199 6113.4-338.199 6139.1-276.199 6375.2-846 6400.9-908.102 6375.2-846 6472.8-610.5 6708.4-512.898 6770.4-487.199 6708.4-512.898 6136.9-276.199 6708.4-39.3984 6770.4-13.6992 6708.4-39.3984 6472.8 58.1016 6375.2 293.699 6349.5 355.801 6375.2 293.699Z"/>
</svg>
