<svg xmlns="http://www.w3.org/2000/svg" xmlns:xlink="http://www.w3.org/1999/xlink" xmlns:inkscape="http://www.inkscape.org/namespaces/inkscape" version="1.1" width="612" height="792" viewBox="0 0 612 792">
<path transform="matrix(.1,0,0,-.1,0,792)" d="M3145.3 3685.8 3207.1 3876H3407.1L3345.3 4066.2 3507.1 4183.8 3345.3 4301.3 3407.1 4491.6H3207.1L3145.3 4681.8 2983.5 4564.2 2821.7 4681.8 2759.9 4491.6H2559.9L2621.7 4301.3 2459.9 4183.8 2621.7 4066.2 2559.9 3876H2759.9L2821.7 3685.8 2983.5 3803.4" fill="#5796fa"/>
<path transform="matrix(.1,0,0,-.1,0,792)" stroke-width="1" stroke-linecap="butt" stroke-miterlimit="10" stroke-linejoin="miter" fill="none" stroke="#000000" d="M3145.3 3685.8 3207.1 3876H3407.1L3345.3 4066.2 3507.1 4183.8 3345.3 4301.3 3407.1 4491.6H3207.1L3145.3 4681.8 2983.5 4564.2 2821.7 4681.8 2759.9 4491.6H2559.9L2621.7 4301.3 2459.9 4183.8 2621.7 4066.2 2559.9 3876H2759.9L2821.7 3685.8 2983.5 3803.4Z"/>
<path transform="matrix(.1,0,0,-.1,0,792)" d="M2759.9 4491.6 2821.7 4681.8 2398.1 4989.5 2559.9 4491.6Z" fill="#f5d99e"/>
<path transform="matrix(.1,0,0,-.1,0,792)" stroke-width="1" stroke-linecap="butt" stroke-miterlimit="10" stroke-linejoin="miter" fill="none" stroke="#000000" d="M2759.9 4491.6 2821.7 4681.8 2398.1 4989.5 2559.9 4491.6Z"/>
<path transform="matrix(.1,0,0,-.1,0,792)" d="M3207.1 4491.6H3407.1L3568.9 4989.5 3145.3 4681.8Z" fill="#f5d99e"/>
<path transform="matrix(.1,0,0,-.1,0,792)" stroke-width="1" stroke-linecap="butt" stroke-miterlimit="10" stroke-linejoin="miter" fill="none" stroke="#000000" d="M3207.1 4491.6H3407.1L3568.9 4989.5 3145.3 4681.8Z"/>
<path transform="matrix(.1,0,0,-.1,0,792)" d="M2759.9 3876H2559.9L2398.1 3378 2821.7 3685.8Z" fill="#f5d99e"/>
<path transform="matrix(.1,0,0,-.1,0,792)" stroke-width="1" stroke-linecap="butt" stroke-miterlimit="10" stroke-linejoin="miter" fill="none" stroke="#000000" d="M2759.9 3876H2559.9L2398.1 3378 2821.7 3685.8Z"/>
<path transform="matrix(.1,0,0,-.1,0,792)" d="M3207.1 3876 3145.3 3685.8 3568.9 3378 3407.1 3876Z" fill="#f5d99e"/>
<path transform="matrix(.1,0,0,-.1,0,792)" stroke-width="1" stroke-linecap="butt" stroke-miterlimit="10" stroke-linejoin="miter" fill="none" stroke="#000000" d="M3207.1 3876 3145.3 3685.8 3568.9 3378 3407.1 3876Z"/>
<path transform="matrix(.1,0,0,-.1,0,792)" d="M2983.5 4564.2 3145.3 4681.8 2983.5 5179.7 2821.7 4681.8Z" fill="#f5d99e"/>
<path transform="matrix(.1,0,0,-.1,0,792)" stroke-width="1" stroke-linecap="butt" stroke-miterlimit="10" stroke-linejoin="miter" fill="none" stroke="#000000" d="M2983.5 4564.2 3145.3 4681.8 2983.5 5179.7 2821.7 4681.8Z"/>
<path transform="matrix(.1,0,0,-.1,0,792)" d="M2983.5 3803.4 2821.7 3685.8 2983.5 3187.8 3145.3 3685.8Z" fill="#f5d99e"/>
<path transform="matrix(.1,0,0,-.1,0,792)" stroke-width="1" stroke-linecap="butt" stroke-miterlimit="10" stroke-linejoin="miter" fill="none" stroke="#000000" d="M2983.5 3803.4 2821.7 3685.8 2983.5 3187.8 3145.3 3685.8Z"/>
<path transform="matrix(.1,0,0,-.1,0,792)" d="M3145.3 4681.8 3568.9 4989.5 3792.5 5677.7 3530.7 5867.9H3207.1L2983.5 5179.7" fill="#335c12"/>
<path transform="matrix(.1,0,0,-.1,0,792)" stroke-width="1" stroke-linecap="butt" stroke-miterlimit="10" stroke-linejoin="miter" fill="none" stroke="#000000" d="M3145.3 4681.8 3568.9 4989.5 3792.5 5677.7 3530.7 5867.9H3207.1L2983.5 5179.7Z"/>
<path transform="matrix(.1,0,0,-.1,0,792)" d="M2821.7 4681.8 2983.5 5179.7 2759.9 5867.9H2436.3L2174.5 5677.7 2398.1 4989.5" fill="#335c12"/>
<path transform="matrix(.1,0,0,-.1,0,792)" stroke-width="1" stroke-linecap="butt" stroke-miterlimit="10" stroke-linejoin="miter" fill="none" stroke="#000000" d="M2821.7 4681.8 2983.5 5179.7 2759.9 5867.9H2436.3L2174.5 5677.7 2398.1 4989.5Z"/>
<path transform="matrix(.1,0,0,-.1,0,792)" d="M2621.7 4301.3 2559.9 4491.6H2036.3L2459.9 4183.8Z" fill="#f5d99e"/>
<path transform="matrix(.1,0,0,-.1,0,792)" stroke-width="1" stroke-linecap="butt" stroke-miterlimit="10" stroke-linejoin="miter" fill="none" stroke="#000000" d="M2621.7 4301.3 2559.9 4491.6H2036.3L2459.9 4183.8Z"/>
<path transform="matrix(.1,0,0,-.1,0,792)" d="M2621.7 4066.2 2459.9 4183.8 2036.3 3876H2559.9Z" fill="#f5d99e"/>
<path transform="matrix(.1,0,0,-.1,0,792)" stroke-width="1" stroke-linecap="butt" stroke-miterlimit="10" stroke-linejoin="miter" fill="none" stroke="#000000" d="M2621.7 4066.2 2459.9 4183.8 2036.3 3876H2559.9Z"/>
<path transform="matrix(.1,0,0,-.1,0,792)" d="M3345.3 4066.2 3407.1 3876H3930.7L3507.1 4183.8Z" fill="#f5d99e"/>
<path transform="matrix(.1,0,0,-.1,0,792)" stroke-width="1" stroke-linecap="butt" stroke-miterlimit="10" stroke-linejoin="miter" fill="none" stroke="#000000" d="M3345.3 4066.2 3407.1 3876H3930.7L3507.1 4183.8Z"/>
<path transform="matrix(.1,0,0,-.1,0,792)" d="M3345.3 4301.3 3507.1 4183.8 3930.7 4491.6H3407.1Z" fill="#f5d99e"/>
<path transform="matrix(.1,0,0,-.1,0,792)" stroke-width="1" stroke-linecap="butt" stroke-miterlimit="10" stroke-linejoin="miter" fill="none" stroke="#000000" d="M3345.3 4301.3 3507.1 4183.8 3930.7 4491.6H3407.1Z"/>
<path transform="matrix(.1,0,0,-.1,0,792)" d="M2821.7 3685.8 2398.1 3378 2174.5 2689.9 2436.3 2499.6H2759.9L2983.5 3187.8" fill="#335c12"/>
<path transform="matrix(.1,0,0,-.1,0,792)" stroke-width="1" stroke-linecap="butt" stroke-miterlimit="10" stroke-linejoin="miter" fill="none" stroke="#000000" d="M2821.7 3685.8 2398.1 3378 2174.5 2689.9 2436.3 2499.6H2759.9L2983.5 3187.8Z"/>
<path transform="matrix(.1,0,0,-.1,0,792)" d="M3145.3 3685.8 2983.5 3187.8 3207.1 2499.6H3530.7L3792.5 2689.9 3568.9 3378" fill="#335c12"/>
<path transform="matrix(.1,0,0,-.1,0,792)" stroke-width="1" stroke-linecap="butt" stroke-miterlimit="10" stroke-linejoin="miter" fill="none" stroke="#000000" d="M3145.3 3685.8 2983.5 3187.8 3207.1 2499.6H3530.7L3792.5 2689.9 3568.9 3378Z"/>
<path transform="matrix(.1,0,0,-.1,0,792)" d="M2559.9 4491.6 2398.1 4989.5 1812.7 5414.9 1550.9 5224.7 1450.9 4916.9 2036.3 4491.6" fill="#335c12"/>
<path transform="matrix(.1,0,0,-.1,0,792)" stroke-width="1" stroke-linecap="butt" stroke-miterlimit="10" stroke-linejoin="miter" fill="none" stroke="#000000" d="M2559.9 4491.6 2398.1 4989.5 1812.7 5414.9 1550.9 5224.7 1450.9 4916.9 2036.3 4491.6Z"/>
<path transform="matrix(.1,0,0,-.1,0,792)" d="M2559.9 3876H2036.3L1450.9 3450.7 1550.9 3142.9 1812.7 2952.7 2398.1 3378" fill="#335c12"/>
<path transform="matrix(.1,0,0,-.1,0,792)" stroke-width="1" stroke-linecap="butt" stroke-miterlimit="10" stroke-linejoin="miter" fill="none" stroke="#000000" d="M2559.9 3876H2036.3L1450.9 3450.7 1550.9 3142.9 1812.7 2952.7 2398.1 3378Z"/>
<path transform="matrix(.1,0,0,-.1,0,792)" d="M3407.1 3876 3568.9 3378 4154.3 2952.7 4416.1 3142.9 4516.1 3450.7 3930.7 3876" fill="#335c12"/>
<path transform="matrix(.1,0,0,-.1,0,792)" stroke-width="1" stroke-linecap="butt" stroke-miterlimit="10" stroke-linejoin="miter" fill="none" stroke="#000000" d="M3407.1 3876 3568.9 3378 4154.3 2952.7 4416.1 3142.9 4516.1 3450.7 3930.7 3876Z"/>
<path transform="matrix(.1,0,0,-.1,0,792)" d="M3407.1 4491.6H3930.7L4516.1 4916.9 4416.1 5224.7 4154.3 5414.9 3568.9 4989.5" fill="#335c12"/>
<path transform="matrix(.1,0,0,-.1,0,792)" stroke-width="1" stroke-linecap="butt" stroke-miterlimit="10" stroke-linejoin="miter" fill="none" stroke="#000000" d="M3407.1 4491.6H3930.7L4516.1 4916.9 4416.1 5224.7 4154.3 5414.9 3568.9 4989.5Z"/>
<path transform="matrix(.1,0,0,-.1,0,792)" d="M2459.9 4183.8 2036.3 4491.6H1312.7L1212.7 4183.8 1312.7 3876H2036.3" fill="#335c12"/>
<path transform="matrix(.1,0,0,-.1,0,792)" stroke-width="1" stroke-linecap="butt" stroke-miterlimit="10" stroke-linejoin="miter" fill="none" stroke="#000000" d="M2459.9 4183.8 2036.3 4491.6H1312.7L1212.7 4183.8 1312.7 3876H2036.3Z"/>
<path transform="matrix(.1,0,0,-.1,0,792)" d="M3507.1 4183.8 3930.7 3876H4654.3L4754.3 4183.8 4654.3 4491.6H3930.7" fill="#335c12"/>
<path transform="matrix(.1,0,0,-.1,0,792)" stroke-width="1" stroke-linecap="butt" stroke-miterlimit="10" stroke-linejoin="miter" fill="none" stroke="#000000" d="M3507.1 4183.8 3930.7 3876H4654.3L4754.3 4183.8 4654.3 4491.6H3930.7Z"/>
<path transform="matrix(.1,0,0,-.1,0,792)" d="M2398.1 4989.5 2174.5 5677.7 1812.7 5414.9" fill="#f5d99e"/>
<path transform="matrix(.1,0,0,-.1,0,792)" stroke-width="1" stroke-linecap="butt" stroke-miterlimit="10" stroke-linejoin="miter" fill="none" stroke="#000000" d="M2398.1 4989.5 2174.5 5677.7 1812.7 5414.9Z"/>
<path transform="matrix(.1,0,0,-.1,0,792)" d="M3568.9 4989.5 4154.3 5414.9 3792.5 5677.7" fill="#f5d99e"/>
<path transform="matrix(.1,0,0,-.1,0,792)" stroke-width="1" stroke-linecap="butt" stroke-miterlimit="10" stroke-linejoin="miter" fill="none" stroke="#000000" d="M3568.9 4989.5 4154.3 5414.9 3792.5 5677.7Z"/>
<path transform="matrix(.1,0,0,-.1,0,792)" d="M2398.1 3378 1812.7 2952.7 2174.5 2689.9" fill="#f5d99e"/>
<path transform="matrix(.1,0,0,-.1,0,792)" stroke-width="1" stroke-linecap="butt" stroke-miterlimit="10" stroke-linejoin="miter" fill="none" stroke="#000000" d="M2398.1 3378 1812.7 2952.7 2174.5 2689.9Z"/>
<path transform="matrix(.1,0,0,-.1,0,792)" d="M3568.9 3378 3792.5 2689.9 4154.3 2952.7" fill="#f5d99e"/>
<path transform="matrix(.1,0,0,-.1,0,792)" stroke-width="1" stroke-linecap="butt" stroke-miterlimit="10" stroke-linejoin="miter" fill="none" stroke="#000000" d="M3568.9 3378 3792.5 2689.9 4154.3 2952.7Z"/>
<path transform="matrix(.1,0,0,-.1,0,792)" d="M2983.5 5179.7 3207.1 5867.9H2759.9" fill="#f5d99e"/>
<path transform="matrix(.1,0,0,-.1,0,792)" stroke-width="1" stroke-linecap="butt" stroke-miterlimit="10" stroke-linejoin="miter" fill="none" stroke="#000000" d="M2983.5 5179.7 3207.1 5867.9H2759.9Z"/>
<path transform="matrix(.1,0,0,-.1,0,792)" d="M2983.5 3187.8 2759.9 2499.6H3207.1" fill="#f5d99e"/>
<path transform="matrix(.1,0,0,-.1,0,792)" stroke-width="1" stroke-linecap="butt" stroke-miterlimit="10" stroke-linejoin="miter" fill="none" stroke="#000000" d="M2983.5 3187.8 2759.9 2499.6H3207.1Z"/>
<path transform="matrix(.1,0,0,-.1,0,792)" d="M2036.3 4491.6 1450.9 4916.9 1312.7 4491.6" fill="#f5d99e"/>
<path transform="matrix(.1,0,0,-.1,0,792)" stroke-width="1" stroke-linecap="butt" stroke-miterlimit="10" stroke-linejoin="miter" fill="none" stroke="#000000" d="M2036.3 4491.6 1450.9 4916.9 1312.7 4491.6Z"/>
<path transform="matrix(.1,0,0,-.1,0,792)" d="M2036.3 3876H1312.7L1450.9 3450.7" fill="#f5d99e"/>
<path transform="matrix(.1,0,0,-.1,0,792)" stroke-width="1" stroke-linecap="butt" stroke-miterlimit="10" stroke-linejoin="miter" fill="none" stroke="#000000" d="M2036.3 3876H1312.7L1450.9 3450.7Z"/>
<path transform="matrix(.1,0,0,-.1,0,792)" d="M3930.7 3876 4516.1 3450.7 4654.3 3876" fill="#f5d99e"/>
<path transform="matrix(.1,0,0,-.1,0,792)" stroke-width="1" stroke-linecap="butt" stroke-miterlimit="10" stroke-linejoin="miter" fill="none" stroke="#000000" d="M3930.7 3876 4516.1 3450.7 4654.3 3876Z"/>
<path transform="matrix(.1,0,0,-.1,0,792)" d="M3930.7 4491.6H4654.3L4516.1 4916.9" fill="#f5d99e"/>
<path transform="matrix(.1,0,0,-.1,0,792)" stroke-width="1" stroke-linecap="butt" stroke-miterlimit="10" stroke-linejoin="miter" fill="none" stroke="#000000" d="M3930.7 4491.6H4654.3L4516.1 4916.9Z"/>
<path transform="matrix(.1,0,0,-.1,0,792)" d="M3792.5 5677.7 3892.5 5985.5 4154.3 6175.7 3892.5 6365.9 3792.5 6673.7 3530.7 6483.5H3207.1L3307.1 6175.7 3207.1 5867.9H3530.7" fill="#f5d99e"/>
<path transform="matrix(.1,0,0,-.1,0,792)" stroke-width="1" stroke-linecap="butt" stroke-miterlimit="10" stroke-linejoin="miter" fill="none" stroke="#000000" d="M3792.5 5677.7 3892.5 5985.5 4154.3 6175.7 3892.5 6365.9 3792.5 6673.7 3530.7 6483.5H3207.1L3307.1 6175.7 3207.1 5867.9H3530.7Z"/>
<path transform="matrix(.1,0,0,-.1,0,792)" d="M3792.5 5677.7 4154.3 5414.9 4416.1 5605.1 4516.1 5912.8 4154.3 6175.7 3892.5 5985.5" fill="#3d69c4"/>
<path transform="matrix(.1,0,0,-.1,0,792)" stroke-width="1" stroke-linecap="butt" stroke-miterlimit="10" stroke-linejoin="miter" fill="none" stroke="#000000" d="M3792.5 5677.7 4154.3 5414.9 4416.1 5605.1 4516.1 5912.8 4154.3 6175.7 3892.5 5985.5Z"/>
<path transform="matrix(.1,0,0,-.1,0,792)" d="M2174.5 5677.7 2074.5 5985.5 1812.7 6175.7 1450.9 5912.8 1550.9 5605.1 1812.7 5414.9" fill="#3d69c4"/>
<path transform="matrix(.1,0,0,-.1,0,792)" stroke-width="1" stroke-linecap="butt" stroke-miterlimit="10" stroke-linejoin="miter" fill="none" stroke="#000000" d="M2174.5 5677.7 2074.5 5985.5 1812.7 6175.7 1450.9 5912.8 1550.9 5605.1 1812.7 5414.9Z"/>
<path transform="matrix(.1,0,0,-.1,0,792)" d="M2174.5 5677.7 2436.3 5867.9H2759.9L2659.9 6175.7 2759.9 6483.5H2436.3L2174.5 6673.7 2074.5 6365.9 1812.7 6175.7 2074.5 5985.5" fill="#f5d99e"/>
<path transform="matrix(.1,0,0,-.1,0,792)" stroke-width="1" stroke-linecap="butt" stroke-miterlimit="10" stroke-linejoin="miter" fill="none" stroke="#000000" d="M2174.5 5677.7 2436.3 5867.9H2759.9L2659.9 6175.7 2759.9 6483.5H2436.3L2174.5 6673.7 2074.5 6365.9 1812.7 6175.7 2074.5 5985.5Z"/>
<path transform="matrix(.1,0,0,-.1,0,792)" d="M2174.5 2689.9 2074.5 2382.1 1812.7 2191.9 2074.5 2001.7 2174.5 1693.9 2436.3 1884.1H2759.9L2659.9 2191.9 2759.9 2499.6H2436.3" fill="#f5d99e"/>
<path transform="matrix(.1,0,0,-.1,0,792)" stroke-width="1" stroke-linecap="butt" stroke-miterlimit="10" stroke-linejoin="miter" fill="none" stroke="#000000" d="M2174.5 2689.9 2074.5 2382.1 1812.7 2191.9 2074.5 2001.7 2174.5 1693.9 2436.3 1884.1H2759.9L2659.9 2191.9 2759.9 2499.6H2436.3Z"/>
<path transform="matrix(.1,0,0,-.1,0,792)" d="M2174.5 2689.9 1812.7 2952.7 1550.9 2762.5 1450.9 2454.7 1812.7 2191.9 2074.5 2382.1" fill="#3d69c4"/>
<path transform="matrix(.1,0,0,-.1,0,792)" stroke-width="1" stroke-linecap="butt" stroke-miterlimit="10" stroke-linejoin="miter" fill="none" stroke="#000000" d="M2174.5 2689.9 1812.7 2952.7 1550.9 2762.5 1450.9 2454.7 1812.7 2191.9 2074.5 2382.1Z"/>
<path transform="matrix(.1,0,0,-.1,0,792)" d="M3792.5 2689.9 3892.5 2382.1 4154.3 2191.9 4516.1 2454.7 4416.1 2762.5 4154.3 2952.7" fill="#3d69c4"/>
<path transform="matrix(.1,0,0,-.1,0,792)" stroke-width="1" stroke-linecap="butt" stroke-miterlimit="10" stroke-linejoin="miter" fill="none" stroke="#000000" d="M3792.5 2689.9 3892.5 2382.1 4154.3 2191.9 4516.1 2454.7 4416.1 2762.5 4154.3 2952.7Z"/>
<path transform="matrix(.1,0,0,-.1,0,792)" d="M3792.5 2689.9 3530.7 2499.6H3207.1L3307.1 2191.9 3207.1 1884.1H3530.7L3792.5 1693.9 3892.5 2001.7 4154.3 2191.9 3892.5 2382.1" fill="#f5d99e"/>
<path transform="matrix(.1,0,0,-.1,0,792)" stroke-width="1" stroke-linecap="butt" stroke-miterlimit="10" stroke-linejoin="miter" fill="none" stroke="#000000" d="M3792.5 2689.9 3530.7 2499.6H3207.1L3307.1 2191.9 3207.1 1884.1H3530.7L3792.5 1693.9 3892.5 2001.7 4154.3 2191.9 3892.5 2382.1Z"/>
<path transform="matrix(.1,0,0,-.1,0,792)" d="M1812.7 5414.9 1550.9 5605.1 1450.9 5912.8 1189.1 5722.6H865.5L965.5 5414.9 865.5 5107.1H1189.1L1450.9 4916.9 1550.9 5224.7" fill="#f5d99e"/>
<path transform="matrix(.1,0,0,-.1,0,792)" stroke-width="1" stroke-linecap="butt" stroke-miterlimit="10" stroke-linejoin="miter" fill="none" stroke="#000000" d="M1812.7 5414.9 1550.9 5605.1 1450.9 5912.8 1189.1 5722.6H865.5L965.5 5414.9 865.5 5107.1H1189.1L1450.9 4916.9 1550.9 5224.7Z"/>
<path transform="matrix(.1,0,0,-.1,0,792)" d="M1812.7 2952.7 1550.9 3142.9 1450.9 3450.7 1189.1 3260.5H865.5L965.5 2952.7 865.5 2644.9H1189.1L1450.9 2454.7 1550.9 2762.5" fill="#f5d99e"/>
<path transform="matrix(.1,0,0,-.1,0,792)" stroke-width="1" stroke-linecap="butt" stroke-miterlimit="10" stroke-linejoin="miter" fill="none" stroke="#000000" d="M1812.7 2952.7 1550.9 3142.9 1450.9 3450.7 1189.1 3260.5H865.5L965.5 2952.7 865.5 2644.9H1189.1L1450.9 2454.7 1550.9 2762.5Z"/>
<path transform="matrix(.1,0,0,-.1,0,792)" d="M4154.3 2952.7 4416.1 2762.5 4516.1 2454.7 4777.9 2644.9H5101.5L5001.5 2952.7 5101.5 3260.5H4777.9L4516.1 3450.7 4416.1 3142.9" fill="#f5d99e"/>
<path transform="matrix(.1,0,0,-.1,0,792)" stroke-width="1" stroke-linecap="butt" stroke-miterlimit="10" stroke-linejoin="miter" fill="none" stroke="#000000" d="M4154.3 2952.7 4416.1 2762.5 4516.1 2454.7 4777.9 2644.9H5101.5L5001.5 2952.7 5101.5 3260.5H4777.9L4516.1 3450.7 4416.1 3142.9Z"/>
<path transform="matrix(.1,0,0,-.1,0,792)" d="M4154.3 5414.9 4416.1 5224.7 4516.1 4916.9 4777.9 5107.1H5101.5L5001.5 5414.9 5101.5 5722.6H4777.9L4516.1 5912.8 4416.1 5605.1" fill="#f5d99e"/>
<path transform="matrix(.1,0,0,-.1,0,792)" stroke-width="1" stroke-linecap="butt" stroke-miterlimit="10" stroke-linejoin="miter" fill="none" stroke="#000000" d="M4154.3 5414.9 4416.1 5224.7 4516.1 4916.9 4777.9 5107.1H5101.5L5001.5 5414.9 5101.5 5722.6H4777.9L4516.1 5912.8 4416.1 5605.1Z"/>
<path transform="matrix(.1,0,0,-.1,0,792)" d="M3207.1 5867.9 3307.1 6175.7 3207.1 6483.5H2759.9L2659.9 6175.7 2759.9 5867.9" fill="#3d69c4"/>
<path transform="matrix(.1,0,0,-.1,0,792)" stroke-width="1" stroke-linecap="butt" stroke-miterlimit="10" stroke-linejoin="miter" fill="none" stroke="#000000" d="M3207.1 5867.9 3307.1 6175.7 3207.1 6483.5H2759.9L2659.9 6175.7 2759.9 5867.9Z"/>
<path transform="matrix(.1,0,0,-.1,0,792)" d="M2759.9 2499.6 2659.9 2191.9 2759.9 1884.1H3207.1L3307.1 2191.9 3207.1 2499.6" fill="#3d69c4"/>
<path transform="matrix(.1,0,0,-.1,0,792)" stroke-width="1" stroke-linecap="butt" stroke-miterlimit="10" stroke-linejoin="miter" fill="none" stroke="#000000" d="M2759.9 2499.6 2659.9 2191.9 2759.9 1884.1H3207.1L3307.1 2191.9 3207.1 2499.6Z"/>
<path transform="matrix(.1,0,0,-.1,0,792)" d="M4154.3 6175.7 4739.7 6601 4901.5 7099H4377.9L3792.5 6673.7 3892.5 6365.9" fill="#335c12"/>
<path transform="matrix(.1,0,0,-.1,0,792)" stroke-width="1" stroke-linecap="butt" stroke-miterlimit="10" stroke-linejoin="miter" fill="none" stroke="#000000" d="M4154.3 6175.7 4739.7 6601 4901.5 7099H4377.9L3792.5 6673.7 3892.5 6365.9Z"/>
<path transform="matrix(.1,0,0,-.1,0,792)" d="M4154.3 6175.7 4516.1 5912.8 4739.7 6601" fill="#f5d99e"/>
<path transform="matrix(.1,0,0,-.1,0,792)" stroke-width="1" stroke-linecap="butt" stroke-miterlimit="10" stroke-linejoin="miter" fill="none" stroke="#000000" d="M4154.3 6175.7 4516.1 5912.8 4739.7 6601Z"/>
<path transform="matrix(.1,0,0,-.1,0,792)" d="M1812.7 6175.7 1227.3 6601 1450.9 5912.8" fill="#f5d99e"/>
<path transform="matrix(.1,0,0,-.1,0,792)" stroke-width="1" stroke-linecap="butt" stroke-miterlimit="10" stroke-linejoin="miter" fill="none" stroke="#000000" d="M1812.7 6175.7 1227.3 6601 1450.9 5912.8Z"/>
<path transform="matrix(.1,0,0,-.1,0,792)" d="M1812.7 6175.7 2074.5 6365.9 2174.5 6673.7 1589.1 7099H1065.5L1227.3 6601" fill="#335c12"/>
<path transform="matrix(.1,0,0,-.1,0,792)" stroke-width="1" stroke-linecap="butt" stroke-miterlimit="10" stroke-linejoin="miter" fill="none" stroke="#000000" d="M1812.7 6175.7 2074.5 6365.9 2174.5 6673.7 1589.1 7099H1065.5L1227.3 6601Z"/>
<path transform="matrix(.1,0,0,-.1,0,792)" d="M1812.7 2191.9 1227.3 1766.5 1065.5 1268.6H1589.1L2174.5 1693.9 2074.5 2001.7" fill="#335c12"/>
<path transform="matrix(.1,0,0,-.1,0,792)" stroke-width="1" stroke-linecap="butt" stroke-miterlimit="10" stroke-linejoin="miter" fill="none" stroke="#000000" d="M1812.7 2191.9 1227.3 1766.5 1065.5 1268.6H1589.1L2174.5 1693.9 2074.5 2001.7Z"/>
<path transform="matrix(.1,0,0,-.1,0,792)" d="M1812.7 2191.9 1450.9 2454.7 1227.3 1766.5" fill="#f5d99e"/>
<path transform="matrix(.1,0,0,-.1,0,792)" stroke-width="1" stroke-linecap="butt" stroke-miterlimit="10" stroke-linejoin="miter" fill="none" stroke="#000000" d="M1812.7 2191.9 1450.9 2454.7 1227.3 1766.5Z"/>
<path transform="matrix(.1,0,0,-.1,0,792)" d="M4154.3 2191.9 4739.7 1766.5 4516.1 2454.7" fill="#f5d99e"/>
<path transform="matrix(.1,0,0,-.1,0,792)" stroke-width="1" stroke-linecap="butt" stroke-miterlimit="10" stroke-linejoin="miter" fill="none" stroke="#000000" d="M4154.3 2191.9 4739.7 1766.5 4516.1 2454.7Z"/>
<path transform="matrix(.1,0,0,-.1,0,792)" d="M4154.3 2191.9 3892.5 2001.7 3792.5 1693.9 4377.9 1268.6H4901.5L4739.7 1766.5" fill="#335c12"/>
<path transform="matrix(.1,0,0,-.1,0,792)" stroke-width="1" stroke-linecap="butt" stroke-miterlimit="10" stroke-linejoin="miter" fill="none" stroke="#000000" d="M4154.3 2191.9 3892.5 2001.7 3792.5 1693.9 4377.9 1268.6H4901.5L4739.7 1766.5Z"/>
<path transform="matrix(.1,0,0,-.1,0,792)" d="M1450.9 5912.8 1227.3 6601 803.699 6908.8 641.898 6410.8 865.5 5722.6H1189.1" fill="#335c12"/>
<path transform="matrix(.1,0,0,-.1,0,792)" stroke-width="1" stroke-linecap="butt" stroke-miterlimit="10" stroke-linejoin="miter" fill="none" stroke="#000000" d="M1450.9 5912.8 1227.3 6601 803.699 6908.8 641.898 6410.8 865.5 5722.6H1189.1Z"/>
<path transform="matrix(.1,0,0,-.1,0,792)" d="M1450.9 4916.9 1189.1 5107.1H865.5L765.5 4799.3 865.5 4491.6H1312.7" fill="#579924"/>
<path transform="matrix(.1,0,0,-.1,0,792)" stroke-width="1" stroke-linecap="butt" stroke-miterlimit="10" stroke-linejoin="miter" fill="none" stroke="#000000" d="M1450.9 4916.9 1189.1 5107.1H865.5L765.5 4799.3 865.5 4491.6H1312.7Z"/>
<path transform="matrix(.1,0,0,-.1,0,792)" d="M1450.9 3450.7 1312.7 3876H865.5L765.5 3568.3 865.5 3260.5H1189.1" fill="#579924"/>
<path transform="matrix(.1,0,0,-.1,0,792)" stroke-width="1" stroke-linecap="butt" stroke-miterlimit="10" stroke-linejoin="miter" fill="none" stroke="#000000" d="M1450.9 3450.7 1312.7 3876H865.5L765.5 3568.3 865.5 3260.5H1189.1Z"/>
<path transform="matrix(.1,0,0,-.1,0,792)" d="M1450.9 2454.7 1189.1 2644.9H865.5L641.898 1956.8 803.699 1458.8 1227.3 1766.5" fill="#335c12"/>
<path transform="matrix(.1,0,0,-.1,0,792)" stroke-width="1" stroke-linecap="butt" stroke-miterlimit="10" stroke-linejoin="miter" fill="none" stroke="#000000" d="M1450.9 2454.7 1189.1 2644.9H865.5L641.898 1956.8 803.699 1458.8 1227.3 1766.5Z"/>
<path transform="matrix(.1,0,0,-.1,0,792)" d="M4516.1 2454.7 4739.7 1766.5 5163.4 1458.8 5325.2 1956.8 5101.5 2644.9H4777.9" fill="#335c12"/>
<path transform="matrix(.1,0,0,-.1,0,792)" stroke-width="1" stroke-linecap="butt" stroke-miterlimit="10" stroke-linejoin="miter" fill="none" stroke="#000000" d="M4516.1 2454.7 4739.7 1766.5 5163.4 1458.8 5325.2 1956.8 5101.5 2644.9H4777.9Z"/>
<path transform="matrix(.1,0,0,-.1,0,792)" d="M4516.1 3450.7 4777.9 3260.5H5101.5L5201.5 3568.3 5101.5 3876H4654.3" fill="#579924"/>
<path transform="matrix(.1,0,0,-.1,0,792)" stroke-width="1" stroke-linecap="butt" stroke-miterlimit="10" stroke-linejoin="miter" fill="none" stroke="#000000" d="M4516.1 3450.7 4777.9 3260.5H5101.5L5201.5 3568.3 5101.5 3876H4654.3Z"/>
<path transform="matrix(.1,0,0,-.1,0,792)" d="M4516.1 4916.9 4654.3 4491.6H5101.5L5201.5 4799.3 5101.5 5107.1H4777.9" fill="#579924"/>
<path transform="matrix(.1,0,0,-.1,0,792)" stroke-width="1" stroke-linecap="butt" stroke-miterlimit="10" stroke-linejoin="miter" fill="none" stroke="#000000" d="M4516.1 4916.9 4654.3 4491.6H5101.5L5201.5 4799.3 5101.5 5107.1H4777.9Z"/>
<path transform="matrix(.1,0,0,-.1,0,792)" d="M4516.1 5912.8 4777.9 5722.6H5101.5L5325.2 6410.8 5163.4 6908.8 4739.7 6601" fill="#335c12"/>
<path transform="matrix(.1,0,0,-.1,0,792)" stroke-width="1" stroke-linecap="butt" stroke-miterlimit="10" stroke-linejoin="miter" fill="none" stroke="#000000" d="M4516.1 5912.8 4777.9 5722.6H5101.5L5325.2 6410.8 5163.4 6908.8 4739.7 6601Z"/>
<path transform="matrix(.1,0,0,-.1,0,792)" d="M3530.7 6483.5 3792.5 6673.7 3654.3 7099H3207.1L3107.1 6791.2 3207.1 6483.5" fill="#579924"/>
<path transform="matrix(.1,0,0,-.1,0,792)" stroke-width="1" stroke-linecap="butt" stroke-miterlimit="10" stroke-linejoin="miter" fill="none" stroke="#000000" d="M3530.7 6483.5 3792.5 6673.7 3654.3 7099H3207.1L3107.1 6791.2 3207.1 6483.5Z"/>
<path transform="matrix(.1,0,0,-.1,0,792)" d="M3207.1 6483.5 3107.1 6791.2 3207.1 7099H2759.9L2859.9 6791.2 2759.9 6483.5" fill="#f5d99e"/>
<path transform="matrix(.1,0,0,-.1,0,792)" stroke-width="1" stroke-linecap="butt" stroke-miterlimit="10" stroke-linejoin="miter" fill="none" stroke="#000000" d="M3207.1 6483.5 3107.1 6791.2 3207.1 7099H2759.9L2859.9 6791.2 2759.9 6483.5Z"/>
<path transform="matrix(.1,0,0,-.1,0,792)" d="M2759.9 6483.5 2859.9 6791.2 2759.9 7099H2312.7L2174.5 6673.7 2436.3 6483.5" fill="#579924"/>
<path transform="matrix(.1,0,0,-.1,0,792)" stroke-width="1" stroke-linecap="butt" stroke-miterlimit="10" stroke-linejoin="miter" fill="none" stroke="#000000" d="M2759.9 6483.5 2859.9 6791.2 2759.9 7099H2312.7L2174.5 6673.7 2436.3 6483.5Z"/>
<path transform="matrix(.1,0,0,-.1,0,792)" d="M1312.7 4491.6H865.5L965.5 4183.8 865.5 3876H1312.7L1212.7 4183.8" fill="#f5d99e"/>
<path transform="matrix(.1,0,0,-.1,0,792)" stroke-width="1" stroke-linecap="butt" stroke-miterlimit="10" stroke-linejoin="miter" fill="none" stroke="#000000" d="M1312.7 4491.6H865.5L965.5 4183.8 865.5 3876H1312.7L1212.7 4183.8Z"/>
<path transform="matrix(.1,0,0,-.1,0,792)" d="M4654.3 3876H5101.5L5001.5 4183.8 5101.5 4491.6H4654.3L4754.3 4183.8" fill="#f5d99e"/>
<path transform="matrix(.1,0,0,-.1,0,792)" stroke-width="1" stroke-linecap="butt" stroke-miterlimit="10" stroke-linejoin="miter" fill="none" stroke="#000000" d="M4654.3 3876H5101.5L5001.5 4183.8 5101.5 4491.6H4654.3L4754.3 4183.8Z"/>
<path transform="matrix(.1,0,0,-.1,0,792)" d="M2436.3 1884.1 2174.5 1693.9 2312.7 1268.6H2759.9L2859.9 1576.3 2759.9 1884.1" fill="#579924"/>
<path transform="matrix(.1,0,0,-.1,0,792)" stroke-width="1" stroke-linecap="butt" stroke-miterlimit="10" stroke-linejoin="miter" fill="none" stroke="#000000" d="M2436.3 1884.1 2174.5 1693.9 2312.7 1268.6H2759.9L2859.9 1576.3 2759.9 1884.1Z"/>
<path transform="matrix(.1,0,0,-.1,0,792)" d="M2759.9 1884.1 2859.9 1576.3 2759.9 1268.6H3207.1L3107.1 1576.3 3207.1 1884.1" fill="#f5d99e"/>
<path transform="matrix(.1,0,0,-.1,0,792)" stroke-width="1" stroke-linecap="butt" stroke-miterlimit="10" stroke-linejoin="miter" fill="none" stroke="#000000" d="M2759.9 1884.1 2859.9 1576.3 2759.9 1268.6H3207.1L3107.1 1576.3 3207.1 1884.1Z"/>
<path transform="matrix(.1,0,0,-.1,0,792)" d="M3207.1 1884.1 3107.1 1576.3 3207.1 1268.6H3654.3L3792.5 1693.9 3530.7 1884.1" fill="#579924"/>
<path transform="matrix(.1,0,0,-.1,0,792)" stroke-width="1" stroke-linecap="butt" stroke-miterlimit="10" stroke-linejoin="miter" fill="none" stroke="#000000" d="M3207.1 1884.1 3107.1 1576.3 3207.1 1268.6H3654.3L3792.5 1693.9 3530.7 1884.1Z"/>
<path transform="matrix(.1,0,0,-.1,0,792)" d="M1227.3 6601 1065.5 7099H865.5L803.699 6908.8Z" fill="#f5d99e"/>
<path transform="matrix(.1,0,0,-.1,0,792)" stroke-width="1" stroke-linecap="butt" stroke-miterlimit="10" stroke-linejoin="miter" fill="none" stroke="#000000" d="M1227.3 6601 1065.5 7099H865.5L803.699 6908.8Z"/>
<path transform="matrix(.1,0,0,-.1,0,792)" d="M4739.7 6601 5163.4 6908.8 5101.5 7099H4901.5Z" fill="#f5d99e"/>
<path transform="matrix(.1,0,0,-.1,0,792)" stroke-width="1" stroke-linecap="butt" stroke-miterlimit="10" stroke-linejoin="miter" fill="none" stroke="#000000" d="M4739.7 6601 5163.4 6908.8 5101.5 7099H4901.5Z"/>
<path transform="matrix(.1,0,0,-.1,0,792)" d="M1227.3 1766.5 803.699 1458.8 865.5 1268.6H1065.5Z" fill="#f5d99e"/>
<path transform="matrix(.1,0,0,-.1,0,792)" stroke-width="1" stroke-linecap="butt" stroke-miterlimit="10" stroke-linejoin="miter" fill="none" stroke="#000000" d="M1227.3 1766.5 803.699 1458.8 865.5 1268.6H1065.5Z"/>
<path transform="matrix(.1,0,0,-.1,0,792)" d="M4739.7 1766.5 4901.5 1268.6H5101.5L5163.4 1458.8Z" fill="#f5d99e"/>
<path transform="matrix(.1,0,0,-.1,0,792)" stroke-width="1" stroke-linecap="butt" stroke-miterlimit="10" stroke-linejoin="miter" fill="none" stroke="#000000" d="M4739.7 1766.5 4901.5 1268.6H5101.5L5163.4 1458.8Z"/>
<path transform="matrix(.1,0,0,-.1,0,792)" d="M3792.5 6673.7 4377.9 7099H3654.3" fill="#f5d99e"/>
<path transform="matrix(.1,0,0,-.1,0,792)" stroke-width="1" stroke-linecap="butt" stroke-miterlimit="10" stroke-linejoin="miter" fill="none" stroke="#000000" d="M3792.5 6673.7 4377.9 7099H3654.3Z"/>
<path transform="matrix(.1,0,0,-.1,0,792)" d="M2174.5 6673.7 2312.7 7099H1589.1" fill="#f5d99e"/>
<path transform="matrix(.1,0,0,-.1,0,792)" stroke-width="1" stroke-linecap="butt" stroke-miterlimit="10" stroke-linejoin="miter" fill="none" stroke="#000000" d="M2174.5 6673.7 2312.7 7099H1589.1Z"/>
<path transform="matrix(.1,0,0,-.1,0,792)" d="M2174.5 1693.9 1589.1 1268.6H2312.7" fill="#f5d99e"/>
<path transform="matrix(.1,0,0,-.1,0,792)" stroke-width="1" stroke-linecap="butt" stroke-miterlimit="10" stroke-linejoin="miter" fill="none" stroke="#000000" d="M2174.5 1693.9 1589.1 1268.6H2312.7Z"/>
<path transform="matrix(.1,0,0,-.1,0,792)" d="M3792.5 1693.9 3654.3 1268.6H4377.9" fill="#f5d99e"/>
<path transform="matrix(.1,0,0,-.1,0,792)" stroke-width="1" stroke-linecap="butt" stroke-miterlimit="10" stroke-linejoin="miter" fill="none" stroke="#000000" d="M3792.5 1693.9 3654.3 1268.6H4377.9Z"/>
<path transform="matrix(.1,0,0,-.1,0,792)" d="M965.5 5414.9 865.5 5722.6H418.301L318.301 5414.9 418.301 5107.1H865.5" fill="#3d69c4"/>
<path transform="matrix(.1,0,0,-.1,0,792)" stroke-width="1" stroke-linecap="butt" stroke-miterlimit="10" stroke-linejoin="miter" fill="none" stroke="#000000" d="M965.5 5414.9 865.5 5722.6H418.301L318.301 5414.9 418.301 5107.1H865.5Z"/>
<path transform="matrix(.1,0,0,-.1,0,792)" d="M965.5 4183.8 865.5 4491.6H418.301L318.301 4183.8 418.301 3876H865.5" fill="#3d69c4"/>
<path transform="matrix(.1,0,0,-.1,0,792)" stroke-width="1" stroke-linecap="butt" stroke-miterlimit="10" stroke-linejoin="miter" fill="none" stroke="#000000" d="M965.5 4183.8 865.5 4491.6H418.301L318.301 4183.8 418.301 3876H865.5Z"/>
<path transform="matrix(.1,0,0,-.1,0,792)" d="M965.5 2952.7 865.5 3260.5H418.301L318.301 2952.7 418.301 2644.9H865.5" fill="#3d69c4"/>
<path transform="matrix(.1,0,0,-.1,0,792)" stroke-width="1" stroke-linecap="butt" stroke-miterlimit="10" stroke-linejoin="miter" fill="none" stroke="#000000" d="M965.5 2952.7 865.5 3260.5H418.301L318.301 2952.7 418.301 2644.9H865.5Z"/>
<path transform="matrix(.1,0,0,-.1,0,792)" d="M5001.5 2952.7 5101.5 2644.9H5548.8L5648.8 2952.7 5548.8 3260.5H5101.5" fill="#3d69c4"/>
<path transform="matrix(.1,0,0,-.1,0,792)" stroke-width="1" stroke-linecap="butt" stroke-miterlimit="10" stroke-linejoin="miter" fill="none" stroke="#000000" d="M5001.5 2952.7 5101.5 2644.9H5548.8L5648.8 2952.7 5548.8 3260.5H5101.5Z"/>
<path transform="matrix(.1,0,0,-.1,0,792)" d="M5001.5 4183.8 5101.5 3876H5548.8L5648.8 4183.8 5548.8 4491.6H5101.5" fill="#3d69c4"/>
<path transform="matrix(.1,0,0,-.1,0,792)" stroke-width="1" stroke-linecap="butt" stroke-miterlimit="10" stroke-linejoin="miter" fill="none" stroke="#000000" d="M5001.5 4183.8 5101.5 3876H5548.8L5648.8 4183.8 5548.8 4491.6H5101.5Z"/>
<path transform="matrix(.1,0,0,-.1,0,792)" d="M5001.5 5414.9 5101.5 5107.1H5548.8L5648.8 5414.9 5548.8 5722.6H5101.5" fill="#3d69c4"/>
<path transform="matrix(.1,0,0,-.1,0,792)" stroke-width="1" stroke-linecap="butt" stroke-miterlimit="10" stroke-linejoin="miter" fill="none" stroke="#000000" d="M5001.5 5414.9 5101.5 5107.1H5548.8L5648.8 5414.9 5548.8 5722.6H5101.5Z"/>
<path transform="matrix(.1,0,0,-.1,0,792)" d="M4901.5 7099 4963.4 7289.2 4801.5 7406.8 4377.9 7099Z" fill="#f5d99e"/>
<path transform="matrix(.1,0,0,-.1,0,792)" stroke-width="1" stroke-linecap="butt" stroke-miterlimit="10" stroke-linejoin="miter" fill="none" stroke="#000000" d="M4901.5 7099 4963.4 7289.2 4801.5 7406.8 4377.9 7099Z"/>
<path transform="matrix(.1,0,0,-.1,0,792)" d="M4901.5 7099H5101.5L5163.4 6908.8 5325.2 7026.4 5487 6908.8 5548.8 7099H5748.8L5687 7289.2 5848.8 7406.8 5687 7524.3 5748.8 7714.6H5548.8L5487 7904.8 5325.2 7787.2 5163.4 7904.8 5101.5 7714.6H4901.5L4963.4 7524.3 4801.5 7406.8 4963.4 7289.2" fill="#5796fa"/>
<path transform="matrix(.1,0,0,-.1,0,792)" stroke-width="1" stroke-linecap="butt" stroke-miterlimit="10" stroke-linejoin="miter" fill="none" stroke="#000000" d="M4901.5 7099H5101.5L5163.4 6908.8 5325.2 7026.4 5487 6908.8 5548.8 7099H5748.8L5687 7289.2 5848.8 7406.8 5687 7524.3 5748.8 7714.6H5548.8L5487 7904.8 5325.2 7787.2 5163.4 7904.8 5101.5 7714.6H4901.5L4963.4 7524.3 4801.5 7406.8 4963.4 7289.2Z"/>
<path transform="matrix(.1,0,0,-.1,0,792)" d="M4377.9 7099 4801.5 7406.8 4377.9 7714.6H3654.3L3554.3 7406.8 3654.3 7099" fill="#335c12"/>
<path transform="matrix(.1,0,0,-.1,0,792)" stroke-width="1" stroke-linecap="butt" stroke-miterlimit="10" stroke-linejoin="miter" fill="none" stroke="#000000" d="M4377.9 7099 4801.5 7406.8 4377.9 7714.6H3654.3L3554.3 7406.8 3654.3 7099Z"/>
<path transform="matrix(.1,0,0,-.1,0,792)" d="M3654.3 7099 3554.3 7406.8 3654.3 7714.6H3207.1L3307.1 7406.8 3207.1 7099" fill="#f5d99e"/>
<path transform="matrix(.1,0,0,-.1,0,792)" stroke-width="1" stroke-linecap="butt" stroke-miterlimit="10" stroke-linejoin="miter" fill="none" stroke="#000000" d="M3654.3 7099 3554.3 7406.8 3654.3 7714.6H3207.1L3307.1 7406.8 3207.1 7099Z"/>
<path transform="matrix(.1,0,0,-.1,0,792)" d="M3207.1 7099 3307.1 7406.8 3207.1 7714.6H2759.9L2659.9 7406.8 2759.9 7099" fill="#3d69c4"/>
<path transform="matrix(.1,0,0,-.1,0,792)" stroke-width="1" stroke-linecap="butt" stroke-miterlimit="10" stroke-linejoin="miter" fill="none" stroke="#000000" d="M3207.1 7099 3307.1 7406.8 3207.1 7714.6H2759.9L2659.9 7406.8 2759.9 7099Z"/>
<path transform="matrix(.1,0,0,-.1,0,792)" d="M2759.9 7099 2659.9 7406.8 2759.9 7714.6H2312.7L2412.7 7406.8 2312.7 7099" fill="#f5d99e"/>
<path transform="matrix(.1,0,0,-.1,0,792)" stroke-width="1" stroke-linecap="butt" stroke-miterlimit="10" stroke-linejoin="miter" fill="none" stroke="#000000" d="M2759.9 7099 2659.9 7406.8 2759.9 7714.6H2312.7L2412.7 7406.8 2312.7 7099Z"/>
<path transform="matrix(.1,0,0,-.1,0,792)" d="M2312.7 7099 2412.7 7406.8 2312.7 7714.6H1589.1L1165.5 7406.8 1589.1 7099" fill="#335c12"/>
<path transform="matrix(.1,0,0,-.1,0,792)" stroke-width="1" stroke-linecap="butt" stroke-miterlimit="10" stroke-linejoin="miter" fill="none" stroke="#000000" d="M2312.7 7099 2412.7 7406.8 2312.7 7714.6H1589.1L1165.5 7406.8 1589.1 7099Z"/>
<path transform="matrix(.1,0,0,-.1,0,792)" d="M1589.1 7099 1165.5 7406.8 1003.7 7289.2 1065.5 7099Z" fill="#f5d99e"/>
<path transform="matrix(.1,0,0,-.1,0,792)" stroke-width="1" stroke-linecap="butt" stroke-miterlimit="10" stroke-linejoin="miter" fill="none" stroke="#000000" d="M1589.1 7099 1165.5 7406.8 1003.7 7289.2 1065.5 7099Z"/>
<path transform="matrix(.1,0,0,-.1,0,792)" d="M1065.5 7099 1003.7 7289.2 1165.5 7406.8 1003.7 7524.3 1065.5 7714.6H865.5L803.699 7904.8 641.898 7787.2 480.102 7904.8 418.301 7714.6H218.301L280.102 7524.3 118.301 7406.8 280.102 7289.2 218.301 7099H418.301L480.102 6908.8 641.898 7026.4 803.699 6908.8 865.5 7099" fill="#5796fa"/>
<path transform="matrix(.1,0,0,-.1,0,792)" stroke-width="1" stroke-linecap="butt" stroke-miterlimit="10" stroke-linejoin="miter" fill="none" stroke="#000000" d="M1065.5 7099 1003.7 7289.2 1165.5 7406.8 1003.7 7524.3 1065.5 7714.6H865.5L803.699 7904.8 641.898 7787.2 480.102 7904.8 418.301 7714.6H218.301L280.102 7524.3 118.301 7406.8 280.102 7289.2 218.301 7099H418.301L480.102 6908.8 641.898 7026.4 803.699 6908.8 865.5 7099Z"/>
<path transform="matrix(.1,0,0,-.1,0,792)" d="M865.5 5722.6 641.898 6410.8 418.301 5722.6" fill="#f5d99e"/>
<path transform="matrix(.1,0,0,-.1,0,792)" stroke-width="1" stroke-linecap="butt" stroke-miterlimit="10" stroke-linejoin="miter" fill="none" stroke="#000000" d="M865.5 5722.6 641.898 6410.8 418.301 5722.6Z"/>
<path transform="matrix(.1,0,0,-.1,0,792)" d="M865.5 5107.1H418.301L518.301 4799.3 418.301 4491.6H865.5L765.5 4799.3" fill="#f5d99e"/>
<path transform="matrix(.1,0,0,-.1,0,792)" stroke-width="1" stroke-linecap="butt" stroke-miterlimit="10" stroke-linejoin="miter" fill="none" stroke="#000000" d="M865.5 5107.1H418.301L518.301 4799.3 418.301 4491.6H865.5L765.5 4799.3Z"/>
<path transform="matrix(.1,0,0,-.1,0,792)" d="M865.5 3876H418.301L518.301 3568.3 418.301 3260.5H865.5L765.5 3568.3" fill="#f5d99e"/>
<path transform="matrix(.1,0,0,-.1,0,792)" stroke-width="1" stroke-linecap="butt" stroke-miterlimit="10" stroke-linejoin="miter" fill="none" stroke="#000000" d="M865.5 3876H418.301L518.301 3568.3 418.301 3260.5H865.5L765.5 3568.3Z"/>
<path transform="matrix(.1,0,0,-.1,0,792)" d="M865.5 2644.9H418.301L641.898 1956.8" fill="#f5d99e"/>
<path transform="matrix(.1,0,0,-.1,0,792)" stroke-width="1" stroke-linecap="butt" stroke-miterlimit="10" stroke-linejoin="miter" fill="none" stroke="#000000" d="M865.5 2644.9H418.301L641.898 1956.8Z"/>
<path transform="matrix(.1,0,0,-.1,0,792)" d="M5101.5 2644.9 5325.2 1956.8 5548.8 2644.9" fill="#f5d99e"/>
<path transform="matrix(.1,0,0,-.1,0,792)" stroke-width="1" stroke-linecap="butt" stroke-miterlimit="10" stroke-linejoin="miter" fill="none" stroke="#000000" d="M5101.5 2644.9 5325.2 1956.8 5548.8 2644.9Z"/>
<path transform="matrix(.1,0,0,-.1,0,792)" d="M5101.5 3260.5H5548.8L5448.8 3568.3 5548.8 3876H5101.5L5201.5 3568.3" fill="#f5d99e"/>
<path transform="matrix(.1,0,0,-.1,0,792)" stroke-width="1" stroke-linecap="butt" stroke-miterlimit="10" stroke-linejoin="miter" fill="none" stroke="#000000" d="M5101.5 3260.5H5548.8L5448.8 3568.3 5548.8 3876H5101.5L5201.5 3568.3Z"/>
<path transform="matrix(.1,0,0,-.1,0,792)" d="M5101.5 4491.6H5548.8L5448.8 4799.3 5548.8 5107.1H5101.5L5201.5 4799.3" fill="#f5d99e"/>
<path transform="matrix(.1,0,0,-.1,0,792)" stroke-width="1" stroke-linecap="butt" stroke-miterlimit="10" stroke-linejoin="miter" fill="none" stroke="#000000" d="M5101.5 4491.6H5548.8L5448.8 4799.3 5548.8 5107.1H5101.5L5201.5 4799.3Z"/>
<path transform="matrix(.1,0,0,-.1,0,792)" d="M5101.5 5722.6H5548.8L5325.2 6410.8" fill="#f5d99e"/>
<path transform="matrix(.1,0,0,-.1,0,792)" stroke-width="1" stroke-linecap="butt" stroke-miterlimit="10" stroke-linejoin="miter" fill="none" stroke="#000000" d="M5101.5 5722.6H5548.8L5325.2 6410.8Z"/>
<path transform="matrix(.1,0,0,-.1,0,792)" d="M865.5 1268.6 803.699 1458.8 641.898 1341.2 480.102 1458.8 418.301 1268.6H218.301L280.102 1078.4 118.301 960.801 280.102 843.199 218.301 653H418.301L480.102 462.801 641.898 580.398 803.699 462.801 865.5 653H1065.5L1003.7 843.199 1165.5 960.801 1003.7 1078.4 1065.5 1268.6" fill="#5796fa"/>
<path transform="matrix(.1,0,0,-.1,0,792)" stroke-width="1" stroke-linecap="butt" stroke-miterlimit="10" stroke-linejoin="miter" fill="none" stroke="#000000" d="M865.5 1268.6 803.699 1458.8 641.898 1341.2 480.102 1458.8 418.301 1268.6H218.301L280.102 1078.4 118.301 960.801 280.102 843.199 218.301 653H418.301L480.102 462.801 641.898 580.398 803.699 462.801 865.5 653H1065.5L1003.7 843.199 1165.5 960.801 1003.7 1078.4 1065.5 1268.6Z"/>
<path transform="matrix(.1,0,0,-.1,0,792)" d="M1065.5 1268.6 1003.7 1078.4 1165.5 960.801 1589.1 1268.6Z" fill="#f5d99e"/>
<path transform="matrix(.1,0,0,-.1,0,792)" stroke-width="1" stroke-linecap="butt" stroke-miterlimit="10" stroke-linejoin="miter" fill="none" stroke="#000000" d="M1065.5 1268.6 1003.7 1078.4 1165.5 960.801 1589.1 1268.6Z"/>
<path transform="matrix(.1,0,0,-.1,0,792)" d="M1589.1 1268.6 1165.5 960.801 1589.1 653H2312.7L2412.7 960.801 2312.7 1268.6" fill="#335c12"/>
<path transform="matrix(.1,0,0,-.1,0,792)" stroke-width="1" stroke-linecap="butt" stroke-miterlimit="10" stroke-linejoin="miter" fill="none" stroke="#000000" d="M1589.1 1268.6 1165.5 960.801 1589.1 653H2312.7L2412.7 960.801 2312.7 1268.6Z"/>
<path transform="matrix(.1,0,0,-.1,0,792)" d="M2312.7 1268.6 2412.7 960.801 2312.7 653H2759.9L2659.9 960.801 2759.9 1268.6" fill="#f5d99e"/>
<path transform="matrix(.1,0,0,-.1,0,792)" stroke-width="1" stroke-linecap="butt" stroke-miterlimit="10" stroke-linejoin="miter" fill="none" stroke="#000000" d="M2312.7 1268.6 2412.7 960.801 2312.7 653H2759.9L2659.9 960.801 2759.9 1268.6Z"/>
<path transform="matrix(.1,0,0,-.1,0,792)" d="M2759.9 1268.6 2659.9 960.801 2759.9 653H3207.1L3307.1 960.801 3207.1 1268.6" fill="#3d69c4"/>
<path transform="matrix(.1,0,0,-.1,0,792)" stroke-width="1" stroke-linecap="butt" stroke-miterlimit="10" stroke-linejoin="miter" fill="none" stroke="#000000" d="M2759.9 1268.6 2659.9 960.801 2759.9 653H3207.1L3307.1 960.801 3207.1 1268.6Z"/>
<path transform="matrix(.1,0,0,-.1,0,792)" d="M3207.1 1268.6 3307.1 960.801 3207.1 653H3654.3L3554.3 960.801 3654.3 1268.6" fill="#f5d99e"/>
<path transform="matrix(.1,0,0,-.1,0,792)" stroke-width="1" stroke-linecap="butt" stroke-miterlimit="10" stroke-linejoin="miter" fill="none" stroke="#000000" d="M3207.1 1268.6 3307.1 960.801 3207.1 653H3654.3L3554.3 960.801 3654.3 1268.6Z"/>
<path transform="matrix(.1,0,0,-.1,0,792)" d="M3654.3 1268.6 3554.3 960.801 3654.3 653H4377.9L4801.5 960.801 4377.9 1268.6" fill="#335c12"/>
<path transform="matrix(.1,0,0,-.1,0,792)" stroke-width="1" stroke-linecap="butt" stroke-miterlimit="10" stroke-linejoin="miter" fill="none" stroke="#000000" d="M3654.3 1268.6 3554.3 960.801 3654.3 653H4377.9L4801.5 960.801 4377.9 1268.6Z"/>
<path transform="matrix(.1,0,0,-.1,0,792)" d="M4377.9 1268.6 4801.5 960.801 4963.4 1078.4 4901.5 1268.6Z" fill="#f5d99e"/>
<path transform="matrix(.1,0,0,-.1,0,792)" stroke-width="1" stroke-linecap="butt" stroke-miterlimit="10" stroke-linejoin="miter" fill="none" stroke="#000000" d="M4377.9 1268.6 4801.5 960.801 4963.4 1078.4 4901.5 1268.6Z"/>
<path transform="matrix(.1,0,0,-.1,0,792)" d="M4901.5 1268.6 4963.4 1078.4 4801.5 960.801 4963.4 843.199 4901.5 653H5101.5L5163.4 462.801 5325.2 580.398 5487 462.801 5548.8 653H5748.8L5687 843.199 5848.8 960.801 5687 1078.4 5748.8 1268.6H5548.8L5487 1458.8 5325.2 1341.2 5163.4 1458.8 5101.5 1268.6" fill="#5796fa"/>
<path transform="matrix(.1,0,0,-.1,0,792)" stroke-width="1" stroke-linecap="butt" stroke-miterlimit="10" stroke-linejoin="miter" fill="none" stroke="#000000" d="M4901.5 1268.6 4963.4 1078.4 4801.5 960.801 4963.4 843.199 4901.5 653H5101.5L5163.4 462.801 5325.2 580.398 5487 462.801 5548.8 653H5748.8L5687 843.199 5848.8 960.801 5687 1078.4 5748.8 1268.6H5548.8L5487 1458.8 5325.2 1341.2 5163.4 1458.8 5101.5 1268.6Z"/>
<path transform="matrix(.1,0,0,-.1,0,792)" d="M803.699 6908.8 641.898 7026.4 480.102 6908.8 641.898 6410.8Z" fill="#f5d99e"/>
<path transform="matrix(.1,0,0,-.1,0,792)" stroke-width="1" stroke-linecap="butt" stroke-miterlimit="10" stroke-linejoin="miter" fill="none" stroke="#000000" d="M803.699 6908.8 641.898 7026.4 480.102 6908.8 641.898 6410.8Z"/>
<path transform="matrix(.1,0,0,-.1,0,792)" d="M803.699 1458.8 641.898 1956.8 480.102 1458.8 641.898 1341.2Z" fill="#f5d99e"/>
<path transform="matrix(.1,0,0,-.1,0,792)" stroke-width="1" stroke-linecap="butt" stroke-miterlimit="10" stroke-linejoin="miter" fill="none" stroke="#000000" d="M803.699 1458.8 641.898 1956.8 480.102 1458.8 641.898 1341.2Z"/>
<path transform="matrix(.1,0,0,-.1,0,792)" d="M5163.4 1458.8 5325.2 1341.2 5487 1458.8 5325.2 1956.8Z" fill="#f5d99e"/>
<path transform="matrix(.1,0,0,-.1,0,792)" stroke-width="1" stroke-linecap="butt" stroke-miterlimit="10" stroke-linejoin="miter" fill="none" stroke="#000000" d="M5163.4 1458.8 5325.2 1341.2 5487 1458.8 5325.2 1956.8Z"/>
<path transform="matrix(.1,0,0,-.1,0,792)" d="M5163.4 6908.8 5325.2 6410.8 5487 6908.8 5325.2 7026.4Z" fill="#f5d99e"/>
<path transform="matrix(.1,0,0,-.1,0,792)" stroke-width="1" stroke-linecap="butt" stroke-miterlimit="10" stroke-linejoin="miter" fill="none" stroke="#000000" d="M5163.4 6908.8 5325.2 6410.8 5487 6908.8 5325.2 7026.4Z"/>
<path transform="matrix(.1,0,0,-.1,0,792)" d="M4801.5 7406.8 4963.4 7524.3 4901.5 7714.6H4377.9Z" fill="#f5d99e"/>
<path transform="matrix(.1,0,0,-.1,0,792)" stroke-width="1" stroke-linecap="butt" stroke-miterlimit="10" stroke-linejoin="miter" fill="none" stroke="#000000" d="M4801.5 7406.8 4963.4 7524.3 4901.5 7714.6H4377.9Z"/>
<path transform="matrix(.1,0,0,-.1,0,792)" d="M1165.5 7406.8 1589.1 7714.6H1065.5L1003.7 7524.3Z" fill="#f5d99e"/>
<path transform="matrix(.1,0,0,-.1,0,792)" stroke-width="1" stroke-linecap="butt" stroke-miterlimit="10" stroke-linejoin="miter" fill="none" stroke="#000000" d="M1165.5 7406.8 1589.1 7714.6H1065.5L1003.7 7524.3Z"/>
<path transform="matrix(.1,0,0,-.1,0,792)" d="M641.898 6410.8 480.102 6908.8 56.5 6601-167.102 5912.8 94.6992 5722.6H418.301" fill="#335c12"/>
<path transform="matrix(.1,0,0,-.1,0,792)" stroke-width="1" stroke-linecap="butt" stroke-miterlimit="10" stroke-linejoin="miter" fill="none" stroke="#000000" d="M641.898 6410.8 480.102 6908.8 56.5 6601-167.102 5912.8 94.6992 5722.6H418.301Z"/>
<path transform="matrix(.1,0,0,-.1,0,792)" d="M641.898 1956.8 418.301 2644.9H94.6992L-167.102 2454.7 56.5 1766.5 480.102 1458.8" fill="#335c12"/>
<path transform="matrix(.1,0,0,-.1,0,792)" stroke-width="1" stroke-linecap="butt" stroke-miterlimit="10" stroke-linejoin="miter" fill="none" stroke="#000000" d="M641.898 1956.8 418.301 2644.9H94.6992L-167.102 2454.7 56.5 1766.5 480.102 1458.8Z"/>
<path transform="matrix(.1,0,0,-.1,0,792)" d="M5325.2 1956.8 5487 1458.8 5910.6 1766.5 6134.2 2454.7 5872.4 2644.9H5548.8" fill="#335c12"/>
<path transform="matrix(.1,0,0,-.1,0,792)" stroke-width="1" stroke-linecap="butt" stroke-miterlimit="10" stroke-linejoin="miter" fill="none" stroke="#000000" d="M5325.2 1956.8 5487 1458.8 5910.6 1766.5 6134.2 2454.7 5872.4 2644.9H5548.8Z"/>
<path transform="matrix(.1,0,0,-.1,0,792)" d="M5325.2 6410.8 5548.8 5722.6H5872.4L6134.2 5912.8 5910.6 6601 5487 6908.8" fill="#335c12"/>
<path transform="matrix(.1,0,0,-.1,0,792)" stroke-width="1" stroke-linecap="butt" stroke-miterlimit="10" stroke-linejoin="miter" fill="none" stroke="#000000" d="M5325.2 6410.8 5548.8 5722.6H5872.4L6134.2 5912.8 5910.6 6601 5487 6908.8Z"/>
<path transform="matrix(.1,0,0,-.1,0,792)" d="M1165.5 960.801 1003.7 843.199 1065.5 653H1589.1Z" fill="#f5d99e"/>
<path transform="matrix(.1,0,0,-.1,0,792)" stroke-width="1" stroke-linecap="butt" stroke-miterlimit="10" stroke-linejoin="miter" fill="none" stroke="#000000" d="M1165.5 960.801 1003.7 843.199 1065.5 653H1589.1Z"/>
<path transform="matrix(.1,0,0,-.1,0,792)" d="M4801.5 960.801 4377.9 653H4901.5L4963.4 843.199Z" fill="#f5d99e"/>
<path transform="matrix(.1,0,0,-.1,0,792)" stroke-width="1" stroke-linecap="butt" stroke-miterlimit="10" stroke-linejoin="miter" fill="none" stroke="#000000" d="M4801.5 960.801 4377.9 653H4901.5L4963.4 843.199Z"/>
<path transform="matrix(.1,0,0,-.1,0,792)" d="M518.301 4799.3 418.301 5107.1H94.6992L-167.102 4916.9-28.8984 4491.6H418.301" fill="#579924"/>
<path transform="matrix(.1,0,0,-.1,0,792)" stroke-width="1" stroke-linecap="butt" stroke-miterlimit="10" stroke-linejoin="miter" fill="none" stroke="#000000" d="M518.301 4799.3 418.301 5107.1H94.6992L-167.102 4916.9-28.8984 4491.6H418.301Z"/>
<path transform="matrix(.1,0,0,-.1,0,792)" d="M518.301 3568.3 418.301 3876H-28.8984L-167.102 3450.7 94.6992 3260.5H418.301" fill="#579924"/>
<path transform="matrix(.1,0,0,-.1,0,792)" stroke-width="1" stroke-linecap="butt" stroke-miterlimit="10" stroke-linejoin="miter" fill="none" stroke="#000000" d="M518.301 3568.3 418.301 3876H-28.8984L-167.102 3450.7 94.6992 3260.5H418.301Z"/>
<path transform="matrix(.1,0,0,-.1,0,792)" d="M5448.8 3568.3 5548.8 3260.5H5872.4L6134.2 3450.7 5996 3876H5548.8" fill="#579924"/>
<path transform="matrix(.1,0,0,-.1,0,792)" stroke-width="1" stroke-linecap="butt" stroke-miterlimit="10" stroke-linejoin="miter" fill="none" stroke="#000000" d="M5448.8 3568.3 5548.8 3260.5H5872.4L6134.2 3450.7 5996 3876H5548.8Z"/>
<path transform="matrix(.1,0,0,-.1,0,792)" d="M5448.8 4799.3 5548.8 4491.6H5996L6134.2 4916.9 5872.4 5107.1H5548.8" fill="#579924"/>
<path transform="matrix(.1,0,0,-.1,0,792)" stroke-width="1" stroke-linecap="butt" stroke-miterlimit="10" stroke-linejoin="miter" fill="none" stroke="#000000" d="M5448.8 4799.3 5548.8 4491.6H5996L6134.2 4916.9 5872.4 5107.1H5548.8Z"/>
<path transform="matrix(.1,0,0,-.1,0,792)" d="M480.102 6908.8 418.301 7099H218.301L56.5 6601Z" fill="#f5d99e"/>
<path transform="matrix(.1,0,0,-.1,0,792)" stroke-width="1" stroke-linecap="butt" stroke-miterlimit="10" stroke-linejoin="miter" fill="none" stroke="#000000" d="M480.102 6908.8 418.301 7099H218.301L56.5 6601Z"/>
<path transform="matrix(.1,0,0,-.1,0,792)" d="M480.102 1458.8 56.5 1766.5 218.301 1268.6H418.301Z" fill="#f5d99e"/>
<path transform="matrix(.1,0,0,-.1,0,792)" stroke-width="1" stroke-linecap="butt" stroke-miterlimit="10" stroke-linejoin="miter" fill="none" stroke="#000000" d="M480.102 1458.8 56.5 1766.5 218.301 1268.6H418.301Z"/>
<path transform="matrix(.1,0,0,-.1,0,792)" d="M5487 1458.8 5548.8 1268.6H5748.8L5910.6 1766.5Z" fill="#f5d99e"/>
<path transform="matrix(.1,0,0,-.1,0,792)" stroke-width="1" stroke-linecap="butt" stroke-miterlimit="10" stroke-linejoin="miter" fill="none" stroke="#000000" d="M5487 1458.8 5548.8 1268.6H5748.8L5910.6 1766.5Z"/>
<path transform="matrix(.1,0,0,-.1,0,792)" d="M5487 6908.8 5910.6 6601 5748.8 7099H5548.8Z" fill="#f5d99e"/>
<path transform="matrix(.1,0,0,-.1,0,792)" stroke-width="1" stroke-linecap="butt" stroke-miterlimit="10" stroke-linejoin="miter" fill="none" stroke="#000000" d="M5487 6908.8 5910.6 6601 5748.8 7099H5548.8Z"/>
<path transform="matrix(.1,0,0,-.1,0,792)" d="M5101.5 7714.6 5163.4 7904.8 4739.7 8212.5 4901.5 7714.6Z" fill="#f5d99e"/>
<path transform="matrix(.1,0,0,-.1,0,792)" stroke-width="1" stroke-linecap="butt" stroke-miterlimit="10" stroke-linejoin="miter" fill="none" stroke="#000000" d="M5101.5 7714.6 5163.4 7904.8 4739.7 8212.5 4901.5 7714.6Z"/>
<path transform="matrix(.1,0,0,-.1,0,792)" d="M4901.5 7714.6 4739.7 8212.5 4154.3 8637.9 3892.5 8447.6 3792.5 8139.9 4377.9 7714.6" fill="#335c12"/>
<path transform="matrix(.1,0,0,-.1,0,792)" stroke-width="1" stroke-linecap="butt" stroke-miterlimit="10" stroke-linejoin="miter" fill="none" stroke="#000000" d="M4901.5 7714.6 4739.7 8212.5 4154.3 8637.9 3892.5 8447.6 3792.5 8139.9 4377.9 7714.6Z"/>
<path transform="matrix(.1,0,0,-.1,0,792)" d="M4377.9 7714.6 3792.5 8139.9 3654.3 7714.6" fill="#f5d99e"/>
<path transform="matrix(.1,0,0,-.1,0,792)" stroke-width="1" stroke-linecap="butt" stroke-miterlimit="10" stroke-linejoin="miter" fill="none" stroke="#000000" d="M4377.9 7714.6 3792.5 8139.9 3654.3 7714.6Z"/>
<path transform="matrix(.1,0,0,-.1,0,792)" d="M3654.3 7714.6 3792.5 8139.9 3530.7 8330.1H3207.1L3107.1 8022.3 3207.1 7714.6" fill="#579924"/>
<path transform="matrix(.1,0,0,-.1,0,792)" stroke-width="1" stroke-linecap="butt" stroke-miterlimit="10" stroke-linejoin="miter" fill="none" stroke="#000000" d="M3654.3 7714.6 3792.5 8139.9 3530.7 8330.1H3207.1L3107.1 8022.3 3207.1 7714.6Z"/>
<path transform="matrix(.1,0,0,-.1,0,792)" d="M3207.1 7714.6 3107.1 8022.3 3207.1 8330.1H2759.9L2859.9 8022.3 2759.9 7714.6" fill="#f5d99e"/>
<path transform="matrix(.1,0,0,-.1,0,792)" stroke-width="1" stroke-linecap="butt" stroke-miterlimit="10" stroke-linejoin="miter" fill="none" stroke="#000000" d="M3207.1 7714.6 3107.1 8022.3 3207.1 8330.1H2759.9L2859.9 8022.3 2759.9 7714.6Z"/>
<path transform="matrix(.1,0,0,-.1,0,792)" d="M2759.9 7714.6 2859.9 8022.3 2759.9 8330.1H2436.3L2174.5 8139.9 2312.7 7714.6" fill="#579924"/>
<path transform="matrix(.1,0,0,-.1,0,792)" stroke-width="1" stroke-linecap="butt" stroke-miterlimit="10" stroke-linejoin="miter" fill="none" stroke="#000000" d="M2759.9 7714.6 2859.9 8022.3 2759.9 8330.1H2436.3L2174.5 8139.9 2312.7 7714.6Z"/>
<path transform="matrix(.1,0,0,-.1,0,792)" d="M2312.7 7714.6 2174.5 8139.9 1589.1 7714.6" fill="#f5d99e"/>
<path transform="matrix(.1,0,0,-.1,0,792)" stroke-width="1" stroke-linecap="butt" stroke-miterlimit="10" stroke-linejoin="miter" fill="none" stroke="#000000" d="M2312.7 7714.6 2174.5 8139.9 1589.1 7714.6Z"/>
<path transform="matrix(.1,0,0,-.1,0,792)" d="M1589.1 7714.6 2174.5 8139.9 2074.5 8447.6 1812.7 8637.9 1227.3 8212.5 1065.5 7714.6" fill="#335c12"/>
<path transform="matrix(.1,0,0,-.1,0,792)" stroke-width="1" stroke-linecap="butt" stroke-miterlimit="10" stroke-linejoin="miter" fill="none" stroke="#000000" d="M1589.1 7714.6 2174.5 8139.9 2074.5 8447.6 1812.7 8637.9 1227.3 8212.5 1065.5 7714.6Z"/>
<path transform="matrix(.1,0,0,-.1,0,792)" d="M1065.5 7714.6 1227.3 8212.5 803.699 7904.8 865.5 7714.6Z" fill="#f5d99e"/>
<path transform="matrix(.1,0,0,-.1,0,792)" stroke-width="1" stroke-linecap="butt" stroke-miterlimit="10" stroke-linejoin="miter" fill="none" stroke="#000000" d="M1065.5 7714.6 1227.3 8212.5 803.699 7904.8 865.5 7714.6Z"/>
<path transform="matrix(.1,0,0,-.1,0,792)" d="M418.301 7714.6 480.102 7904.8 56.5 8212.5 218.301 7714.6Z" fill="#f5d99e"/>
<path transform="matrix(.1,0,0,-.1,0,792)" stroke-width="1" stroke-linecap="butt" stroke-miterlimit="10" stroke-linejoin="miter" fill="none" stroke="#000000" d="M418.301 7714.6 480.102 7904.8 56.5 8212.5 218.301 7714.6Z"/>
<path transform="matrix(.1,0,0,-.1,0,792)" d="M418.301 5722.6H94.6992L-167.102 5912.8-267.102 5605.1-528.898 5414.9-267.102 5224.7-167.102 4916.9 94.6992 5107.1H418.301L318.301 5414.9" fill="#f5d99e"/>
<path transform="matrix(.1,0,0,-.1,0,792)" stroke-width="1" stroke-linecap="butt" stroke-miterlimit="10" stroke-linejoin="miter" fill="none" stroke="#000000" d="M418.301 5722.6H94.6992L-167.102 5912.8-267.102 5605.1-528.898 5414.9-267.102 5224.7-167.102 4916.9 94.6992 5107.1H418.301L318.301 5414.9Z"/>
<path transform="matrix(.1,0,0,-.1,0,792)" d="M418.301 4491.6H-28.8984L71.1016 4183.8-28.8984 3876H418.301L318.301 4183.8" fill="#f5d99e"/>
<path transform="matrix(.1,0,0,-.1,0,792)" stroke-width="1" stroke-linecap="butt" stroke-miterlimit="10" stroke-linejoin="miter" fill="none" stroke="#000000" d="M418.301 4491.6H-28.8984L71.1016 4183.8-28.8984 3876H418.301L318.301 4183.8Z"/>
<path transform="matrix(.1,0,0,-.1,0,792)" d="M418.301 3260.5H94.6992L-167.102 3450.7-267.102 3142.9-528.898 2952.7-267.102 2762.5-167.102 2454.7 94.6992 2644.9H418.301L318.301 2952.7" fill="#f5d99e"/>
<path transform="matrix(.1,0,0,-.1,0,792)" stroke-width="1" stroke-linecap="butt" stroke-miterlimit="10" stroke-linejoin="miter" fill="none" stroke="#000000" d="M418.301 3260.5H94.6992L-167.102 3450.7-267.102 3142.9-528.898 2952.7-267.102 2762.5-167.102 2454.7 94.6992 2644.9H418.301L318.301 2952.7Z"/>
<path transform="matrix(.1,0,0,-.1,0,792)" d="M5548.8 2644.9H5872.4L6134.2 2454.7 6234.2 2762.5 6496 2952.7 6234.2 3142.9 6134.2 3450.7 5872.4 3260.5H5548.8L5648.8 2952.7" fill="#f5d99e"/>
<path transform="matrix(.1,0,0,-.1,0,792)" stroke-width="1" stroke-linecap="butt" stroke-miterlimit="10" stroke-linejoin="miter" fill="none" stroke="#000000" d="M5548.8 2644.9H5872.4L6134.2 2454.7 6234.2 2762.5 6496 2952.7 6234.2 3142.9 6134.2 3450.7 5872.4 3260.5H5548.8L5648.8 2952.7Z"/>
<path transform="matrix(.1,0,0,-.1,0,792)" d="M5548.8 3876H5996L5896 4183.8 5996 4491.6H5548.8L5648.8 4183.8" fill="#f5d99e"/>
<path transform="matrix(.1,0,0,-.1,0,792)" stroke-width="1" stroke-linecap="butt" stroke-miterlimit="10" stroke-linejoin="miter" fill="none" stroke="#000000" d="M5548.8 3876H5996L5896 4183.8 5996 4491.6H5548.8L5648.8 4183.8Z"/>
<path transform="matrix(.1,0,0,-.1,0,792)" d="M5548.8 5107.1H5872.4L6134.2 4916.9 6234.2 5224.7 6496 5414.9 6234.2 5605.1 6134.2 5912.8 5872.4 5722.6H5548.8L5648.8 5414.9" fill="#f5d99e"/>
<path transform="matrix(.1,0,0,-.1,0,792)" stroke-width="1" stroke-linecap="butt" stroke-miterlimit="10" stroke-linejoin="miter" fill="none" stroke="#000000" d="M5548.8 5107.1H5872.4L6134.2 4916.9 6234.2 5224.7 6496 5414.9 6234.2 5605.1 6134.2 5912.8 5872.4 5722.6H5548.8L5648.8 5414.9Z"/>
<path transform="matrix(.1,0,0,-.1,0,792)" d="M5548.8 7714.6H5748.8L5910.6 8212.5 5487 7904.8Z" fill="#f5d99e"/>
<path transform="matrix(.1,0,0,-.1,0,792)" stroke-width="1" stroke-linecap="butt" stroke-miterlimit="10" stroke-linejoin="miter" fill="none" stroke="#000000" d="M5548.8 7714.6H5748.8L5910.6 8212.5 5487 7904.8Z"/>
<path transform="matrix(.1,0,0,-.1,0,792)" d="M418.301 653H218.301L56.5 155.102 480.102 462.801Z" fill="#f5d99e"/>
<path transform="matrix(.1,0,0,-.1,0,792)" stroke-width="1" stroke-linecap="butt" stroke-miterlimit="10" stroke-linejoin="miter" fill="none" stroke="#000000" d="M418.301 653H218.301L56.5 155.102 480.102 462.801Z"/>
<path transform="matrix(.1,0,0,-.1,0,792)" d="M865.5 653 803.699 462.801 1227.3 155.102 1065.5 653Z" fill="#f5d99e"/>
<path transform="matrix(.1,0,0,-.1,0,792)" stroke-width="1" stroke-linecap="butt" stroke-miterlimit="10" stroke-linejoin="miter" fill="none" stroke="#000000" d="M865.5 653 803.699 462.801 1227.3 155.102 1065.5 653Z"/>
<path transform="matrix(.1,0,0,-.1,0,792)" d="M1065.5 653 1227.3 155.102 1812.7-270.301 2074.5-80.1016 2174.5 227.699 1589.1 653" fill="#335c12"/>
<path transform="matrix(.1,0,0,-.1,0,792)" stroke-width="1" stroke-linecap="butt" stroke-miterlimit="10" stroke-linejoin="miter" fill="none" stroke="#000000" d="M1065.5 653 1227.3 155.102 1812.7-270.301 2074.5-80.1016 2174.5 227.699 1589.1 653Z"/>
<path transform="matrix(.1,0,0,-.1,0,792)" d="M1589.1 653 2174.5 227.699 2312.7 653" fill="#f5d99e"/>
<path transform="matrix(.1,0,0,-.1,0,792)" stroke-width="1" stroke-linecap="butt" stroke-miterlimit="10" stroke-linejoin="miter" fill="none" stroke="#000000" d="M1589.1 653 2174.5 227.699 2312.7 653Z"/>
<path transform="matrix(.1,0,0,-.1,0,792)" d="M2312.7 653 2174.5 227.699 2436.3 37.5H2759.9L2859.9 345.301 2759.9 653" fill="#579924"/>
<path transform="matrix(.1,0,0,-.1,0,792)" stroke-width="1" stroke-linecap="butt" stroke-miterlimit="10" stroke-linejoin="miter" fill="none" stroke="#000000" d="M2312.7 653 2174.5 227.699 2436.3 37.5H2759.9L2859.9 345.301 2759.9 653Z"/>
<path transform="matrix(.1,0,0,-.1,0,792)" d="M2759.9 653 2859.9 345.301 2759.9 37.5H3207.1L3107.1 345.301 3207.1 653" fill="#f5d99e"/>
<path transform="matrix(.1,0,0,-.1,0,792)" stroke-width="1" stroke-linecap="butt" stroke-miterlimit="10" stroke-linejoin="miter" fill="none" stroke="#000000" d="M2759.9 653 2859.9 345.301 2759.9 37.5H3207.1L3107.1 345.301 3207.1 653Z"/>
<path transform="matrix(.1,0,0,-.1,0,792)" d="M3207.1 653 3107.1 345.301 3207.1 37.5H3530.7L3792.5 227.699 3654.3 653" fill="#579924"/>
<path transform="matrix(.1,0,0,-.1,0,792)" stroke-width="1" stroke-linecap="butt" stroke-miterlimit="10" stroke-linejoin="miter" fill="none" stroke="#000000" d="M3207.1 653 3107.1 345.301 3207.1 37.5H3530.7L3792.5 227.699 3654.3 653Z"/>
<path transform="matrix(.1,0,0,-.1,0,792)" d="M3654.3 653 3792.5 227.699 4377.9 653" fill="#f5d99e"/>
<path transform="matrix(.1,0,0,-.1,0,792)" stroke-width="1" stroke-linecap="butt" stroke-miterlimit="10" stroke-linejoin="miter" fill="none" stroke="#000000" d="M3654.3 653 3792.5 227.699 4377.9 653Z"/>
<path transform="matrix(.1,0,0,-.1,0,792)" d="M4377.9 653 3792.5 227.699 3892.5-80.1016 4154.3-270.301 4739.7 155.102 4901.5 653" fill="#335c12"/>
<path transform="matrix(.1,0,0,-.1,0,792)" stroke-width="1" stroke-linecap="butt" stroke-miterlimit="10" stroke-linejoin="miter" fill="none" stroke="#000000" d="M4377.9 653 3792.5 227.699 3892.5-80.1016 4154.3-270.301 4739.7 155.102 4901.5 653Z"/>
<path transform="matrix(.1,0,0,-.1,0,792)" d="M4901.5 653 4739.7 155.102 5163.4 462.801 5101.5 653Z" fill="#f5d99e"/>
<path transform="matrix(.1,0,0,-.1,0,792)" stroke-width="1" stroke-linecap="butt" stroke-miterlimit="10" stroke-linejoin="miter" fill="none" stroke="#000000" d="M4901.5 653 4739.7 155.102 5163.4 462.801 5101.5 653Z"/>
<path transform="matrix(.1,0,0,-.1,0,792)" d="M5548.8 653 5487 462.801 5910.6 155.102 5748.8 653Z" fill="#f5d99e"/>
<path transform="matrix(.1,0,0,-.1,0,792)" stroke-width="1" stroke-linecap="butt" stroke-miterlimit="10" stroke-linejoin="miter" fill="none" stroke="#000000" d="M5548.8 653 5487 462.801 5910.6 155.102 5748.8 653Z"/>
<path transform="matrix(.1,0,0,-.1,0,792)" d="M5325.2 7787.2 5487 7904.8 5325.2 8402.7 5163.4 7904.8Z" fill="#f5d99e"/>
<path transform="matrix(.1,0,0,-.1,0,792)" stroke-width="1" stroke-linecap="butt" stroke-miterlimit="10" stroke-linejoin="miter" fill="none" stroke="#000000" d="M5325.2 7787.2 5487 7904.8 5325.2 8402.7 5163.4 7904.8Z"/>
<path transform="matrix(.1,0,0,-.1,0,792)" d="M641.898 7787.2 803.699 7904.8 641.898 8402.7 480.102 7904.8Z" fill="#f5d99e"/>
<path transform="matrix(.1,0,0,-.1,0,792)" stroke-width="1" stroke-linecap="butt" stroke-miterlimit="10" stroke-linejoin="miter" fill="none" stroke="#000000" d="M641.898 7787.2 803.699 7904.8 641.898 8402.7 480.102 7904.8Z"/>
<path transform="matrix(.1,0,0,-.1,0,792)" d="M641.898 580.398 480.102 462.801 641.898-35.1992 803.699 462.801Z" fill="#f5d99e"/>
<path transform="matrix(.1,0,0,-.1,0,792)" stroke-width="1" stroke-linecap="butt" stroke-miterlimit="10" stroke-linejoin="miter" fill="none" stroke="#000000" d="M641.898 580.398 480.102 462.801 641.898-35.1992 803.699 462.801Z"/>
<path transform="matrix(.1,0,0,-.1,0,792)" d="M5325.2 580.398 5163.4 462.801 5325.2-35.1992 5487 462.801Z" fill="#f5d99e"/>
<path transform="matrix(.1,0,0,-.1,0,792)" stroke-width="1" stroke-linecap="butt" stroke-miterlimit="10" stroke-linejoin="miter" fill="none" stroke="#000000" d="M5325.2 580.398 5163.4 462.801 5325.2-35.1992 5487 462.801Z"/>
<path transform="matrix(.1,0,0,-.1,0,792)" d="M5487 7904.8 5910.6 8212.5 6134.2 8900.7 5872.4 9090.9H5548.8L5325.2 8402.7" fill="#335c12"/>
<path transform="matrix(.1,0,0,-.1,0,792)" stroke-width="1" stroke-linecap="butt" stroke-miterlimit="10" stroke-linejoin="miter" fill="none" stroke="#000000" d="M5487 7904.8 5910.6 8212.5 6134.2 8900.7 5872.4 9090.9H5548.8L5325.2 8402.7Z"/>
<path transform="matrix(.1,0,0,-.1,0,792)" d="M5163.4 7904.8 5325.2 8402.7 5101.5 9090.9H4777.9L4516.1 8900.7 4739.7 8212.5" fill="#335c12"/>
<path transform="matrix(.1,0,0,-.1,0,792)" stroke-width="1" stroke-linecap="butt" stroke-miterlimit="10" stroke-linejoin="miter" fill="none" stroke="#000000" d="M5163.4 7904.8 5325.2 8402.7 5101.5 9090.9H4777.9L4516.1 8900.7 4739.7 8212.5Z"/>
<path transform="matrix(.1,0,0,-.1,0,792)" d="M803.699 7904.8 1227.3 8212.5 1450.9 8900.7 1189.1 9090.9H865.5L641.898 8402.7" fill="#335c12"/>
<path transform="matrix(.1,0,0,-.1,0,792)" stroke-width="1" stroke-linecap="butt" stroke-miterlimit="10" stroke-linejoin="miter" fill="none" stroke="#000000" d="M803.699 7904.8 1227.3 8212.5 1450.9 8900.7 1189.1 9090.9H865.5L641.898 8402.7Z"/>
<path transform="matrix(.1,0,0,-.1,0,792)" d="M480.102 7904.8 641.898 8402.7 418.301 9090.9H94.6992L-167.102 8900.7 56.5 8212.5" fill="#335c12"/>
<path transform="matrix(.1,0,0,-.1,0,792)" stroke-width="1" stroke-linecap="butt" stroke-miterlimit="10" stroke-linejoin="miter" fill="none" stroke="#000000" d="M480.102 7904.8 641.898 8402.7 418.301 9090.9H94.6992L-167.102 8900.7 56.5 8212.5Z"/>
<path transform="matrix(.1,0,0,-.1,0,792)" d="M280.102 7524.3 218.301 7714.6H-305.301L118.301 7406.8Z" fill="#f5d99e"/>
<path transform="matrix(.1,0,0,-.1,0,792)" stroke-width="1" stroke-linecap="butt" stroke-miterlimit="10" stroke-linejoin="miter" fill="none" stroke="#000000" d="M280.102 7524.3 218.301 7714.6H-305.301L118.301 7406.8Z"/>
<path transform="matrix(.1,0,0,-.1,0,792)" d="M280.102 7289.2 118.301 7406.8-305.301 7099H218.301Z" fill="#f5d99e"/>
<path transform="matrix(.1,0,0,-.1,0,792)" stroke-width="1" stroke-linecap="butt" stroke-miterlimit="10" stroke-linejoin="miter" fill="none" stroke="#000000" d="M280.102 7289.2 118.301 7406.8-305.301 7099H218.301Z"/>
<path transform="matrix(.1,0,0,-.1,0,792)" d="M280.102 1078.4 218.301 1268.6H-305.301L118.301 960.801Z" fill="#f5d99e"/>
<path transform="matrix(.1,0,0,-.1,0,792)" stroke-width="1" stroke-linecap="butt" stroke-miterlimit="10" stroke-linejoin="miter" fill="none" stroke="#000000" d="M280.102 1078.4 218.301 1268.6H-305.301L118.301 960.801Z"/>
<path transform="matrix(.1,0,0,-.1,0,792)" d="M280.102 843.199 118.301 960.801-305.301 653H218.301Z" fill="#f5d99e"/>
<path transform="matrix(.1,0,0,-.1,0,792)" stroke-width="1" stroke-linecap="butt" stroke-miterlimit="10" stroke-linejoin="miter" fill="none" stroke="#000000" d="M280.102 843.199 118.301 960.801-305.301 653H218.301Z"/>
<path transform="matrix(.1,0,0,-.1,0,792)" d="M5687 843.199 5748.8 653H6272.4L5848.8 960.801Z" fill="#f5d99e"/>
<path transform="matrix(.1,0,0,-.1,0,792)" stroke-width="1" stroke-linecap="butt" stroke-miterlimit="10" stroke-linejoin="miter" fill="none" stroke="#000000" d="M5687 843.199 5748.8 653H6272.4L5848.8 960.801Z"/>
<path transform="matrix(.1,0,0,-.1,0,792)" d="M5687 1078.4 5848.8 960.801 6272.4 1268.6H5748.8Z" fill="#f5d99e"/>
<path transform="matrix(.1,0,0,-.1,0,792)" stroke-width="1" stroke-linecap="butt" stroke-miterlimit="10" stroke-linejoin="miter" fill="none" stroke="#000000" d="M5687 1078.4 5848.8 960.801 6272.4 1268.6H5748.8Z"/>
<path transform="matrix(.1,0,0,-.1,0,792)" d="M5687 7289.2 5748.8 7099H6272.4L5848.8 7406.8Z" fill="#f5d99e"/>
<path transform="matrix(.1,0,0,-.1,0,792)" stroke-width="1" stroke-linecap="butt" stroke-miterlimit="10" stroke-linejoin="miter" fill="none" stroke="#000000" d="M5687 7289.2 5748.8 7099H6272.4L5848.8 7406.8Z"/>
<path transform="matrix(.1,0,0,-.1,0,792)" d="M5687 7524.3 5848.8 7406.8 6272.4 7714.6H5748.8Z" fill="#f5d99e"/>
<path transform="matrix(.1,0,0,-.1,0,792)" stroke-width="1" stroke-linecap="butt" stroke-miterlimit="10" stroke-linejoin="miter" fill="none" stroke="#000000" d="M5687 7524.3 5848.8 7406.8 6272.4 7714.6H5748.8Z"/>
<path transform="matrix(.1,0,0,-.1,0,792)" d="M480.102 462.801 56.5 155.102-167.102-533.102 94.6992-723.398H418.301L641.898-35.1992" fill="#335c12"/>
<path transform="matrix(.1,0,0,-.1,0,792)" stroke-width="1" stroke-linecap="butt" stroke-miterlimit="10" stroke-linejoin="miter" fill="none" stroke="#000000" d="M480.102 462.801 56.5 155.102-167.102-533.102 94.6992-723.398H418.301L641.898-35.1992Z"/>
<path transform="matrix(.1,0,0,-.1,0,792)" d="M803.699 462.801 641.898-35.1992 865.5-723.398H1189.1L1450.9-533.102 1227.3 155.102" fill="#335c12"/>
<path transform="matrix(.1,0,0,-.1,0,792)" stroke-width="1" stroke-linecap="butt" stroke-miterlimit="10" stroke-linejoin="miter" fill="none" stroke="#000000" d="M803.699 462.801 641.898-35.1992 865.5-723.398H1189.1L1450.9-533.102 1227.3 155.102Z"/>
<path transform="matrix(.1,0,0,-.1,0,792)" d="M5163.4 462.801 4739.7 155.102 4516.1-533.102 4777.9-723.398H5101.5L5325.2-35.1992" fill="#335c12"/>
<path transform="matrix(.1,0,0,-.1,0,792)" stroke-width="1" stroke-linecap="butt" stroke-miterlimit="10" stroke-linejoin="miter" fill="none" stroke="#000000" d="M5163.4 462.801 4739.7 155.102 4516.1-533.102 4777.9-723.398H5101.5L5325.2-35.1992Z"/>
<path transform="matrix(.1,0,0,-.1,0,792)" d="M5487 462.801 5325.2-35.1992 5548.8-723.398H5872.4L6134.2-533.102 5910.6 155.102" fill="#335c12"/>
<path transform="matrix(.1,0,0,-.1,0,792)" stroke-width="1" stroke-linecap="butt" stroke-miterlimit="10" stroke-linejoin="miter" fill="none" stroke="#000000" d="M5487 462.801 5325.2-35.1992 5548.8-723.398H5872.4L6134.2-533.102 5910.6 155.102Z"/>
<path transform="matrix(.1,0,0,-.1,0,792)" d="M218.301 7714.6 56.5 8212.5-528.898 8637.9-790.699 8447.6-890.699 8139.9-305.301 7714.6" fill="#335c12"/>
<path transform="matrix(.1,0,0,-.1,0,792)" stroke-width="1" stroke-linecap="butt" stroke-miterlimit="10" stroke-linejoin="miter" fill="none" stroke="#000000" d="M218.301 7714.6 56.5 8212.5-528.898 8637.9-790.699 8447.6-890.699 8139.9-305.301 7714.6Z"/>
<path transform="matrix(.1,0,0,-.1,0,792)" d="M218.301 7099H-305.301L-890.699 6673.7-790.699 6365.9-528.898 6175.7 56.5 6601" fill="#335c12"/>
<path transform="matrix(.1,0,0,-.1,0,792)" stroke-width="1" stroke-linecap="butt" stroke-miterlimit="10" stroke-linejoin="miter" fill="none" stroke="#000000" d="M218.301 7099H-305.301L-890.699 6673.7-790.699 6365.9-528.898 6175.7 56.5 6601Z"/>
<path transform="matrix(.1,0,0,-.1,0,792)" d="M218.301 1268.6 56.5 1766.5-528.898 2191.9-790.699 2001.7-890.699 1693.9-305.301 1268.6" fill="#335c12"/>
<path transform="matrix(.1,0,0,-.1,0,792)" stroke-width="1" stroke-linecap="butt" stroke-miterlimit="10" stroke-linejoin="miter" fill="none" stroke="#000000" d="M218.301 1268.6 56.5 1766.5-528.898 2191.9-790.699 2001.7-890.699 1693.9-305.301 1268.6Z"/>
<path transform="matrix(.1,0,0,-.1,0,792)" d="M218.301 653H-305.301L-890.699 227.699-790.699-80.1016-528.898-270.301 56.5 155.102" fill="#335c12"/>
<path transform="matrix(.1,0,0,-.1,0,792)" stroke-width="1" stroke-linecap="butt" stroke-miterlimit="10" stroke-linejoin="miter" fill="none" stroke="#000000" d="M218.301 653H-305.301L-890.699 227.699-790.699-80.1016-528.898-270.301 56.5 155.102Z"/>
<path transform="matrix(.1,0,0,-.1,0,792)" d="M5748.8 653 5910.6 155.102 6496-270.301 6757.8-80.1016 6857.8 227.699 6272.4 653" fill="#335c12"/>
<path transform="matrix(.1,0,0,-.1,0,792)" stroke-width="1" stroke-linecap="butt" stroke-miterlimit="10" stroke-linejoin="miter" fill="none" stroke="#000000" d="M5748.8 653 5910.6 155.102 6496-270.301 6757.8-80.1016 6857.8 227.699 6272.4 653Z"/>
<path transform="matrix(.1,0,0,-.1,0,792)" d="M5748.8 1268.6H6272.4L6857.8 1693.9 6757.8 2001.7 6496 2191.9 5910.6 1766.5" fill="#335c12"/>
<path transform="matrix(.1,0,0,-.1,0,792)" stroke-width="1" stroke-linecap="butt" stroke-miterlimit="10" stroke-linejoin="miter" fill="none" stroke="#000000" d="M5748.8 1268.6H6272.4L6857.8 1693.9 6757.8 2001.7 6496 2191.9 5910.6 1766.5Z"/>
<path transform="matrix(.1,0,0,-.1,0,792)" d="M5748.8 7099 5910.6 6601 6496 6175.7 6757.8 6365.9 6857.8 6673.7 6272.4 7099" fill="#335c12"/>
<path transform="matrix(.1,0,0,-.1,0,792)" stroke-width="1" stroke-linecap="butt" stroke-miterlimit="10" stroke-linejoin="miter" fill="none" stroke="#000000" d="M5748.8 7099 5910.6 6601 6496 6175.7 6757.8 6365.9 6857.8 6673.7 6272.4 7099Z"/>
<path transform="matrix(.1,0,0,-.1,0,792)" d="M5748.8 7714.6H6272.4L6857.8 8139.9 6757.8 8447.6 6496 8637.9 5910.6 8212.5" fill="#335c12"/>
<path transform="matrix(.1,0,0,-.1,0,792)" stroke-width="1" stroke-linecap="butt" stroke-miterlimit="10" stroke-linejoin="miter" fill="none" stroke="#000000" d="M5748.8 7714.6H6272.4L6857.8 8139.9 6757.8 8447.6 6496 8637.9 5910.6 8212.5Z"/>
<path transform="matrix(.1,0,0,-.1,0,792)" d="M118.301 7406.8-305.301 7714.6H-1028.9L-1128.9 7406.8-1028.9 7099H-305.301" fill="#335c12"/>
<path transform="matrix(.1,0,0,-.1,0,792)" stroke-width="1" stroke-linecap="butt" stroke-miterlimit="10" stroke-linejoin="miter" fill="none" stroke="#000000" d="M118.301 7406.8-305.301 7714.6H-1028.9L-1128.9 7406.8-1028.9 7099H-305.301Z"/>
<path transform="matrix(.1,0,0,-.1,0,792)" d="M118.301 960.801-305.301 1268.6H-1028.9L-1128.9 960.801-1028.9 653H-305.301" fill="#335c12"/>
<path transform="matrix(.1,0,0,-.1,0,792)" stroke-width="1" stroke-linecap="butt" stroke-miterlimit="10" stroke-linejoin="miter" fill="none" stroke="#000000" d="M118.301 960.801-305.301 1268.6H-1028.9L-1128.9 960.801-1028.9 653H-305.301Z"/>
<path transform="matrix(.1,0,0,-.1,0,792)" d="M5848.8 960.801 6272.4 653H6996L7096 960.801 6996 1268.6H6272.4" fill="#335c12"/>
<path transform="matrix(.1,0,0,-.1,0,792)" stroke-width="1" stroke-linecap="butt" stroke-miterlimit="10" stroke-linejoin="miter" fill="none" stroke="#000000" d="M5848.8 960.801 6272.4 653H6996L7096 960.801 6996 1268.6H6272.4Z"/>
<path transform="matrix(.1,0,0,-.1,0,792)" d="M5848.8 7406.8 6272.4 7099H6996L7096 7406.8 6996 7714.6H6272.4" fill="#335c12"/>
<path transform="matrix(.1,0,0,-.1,0,792)" stroke-width="1" stroke-linecap="butt" stroke-miterlimit="10" stroke-linejoin="miter" fill="none" stroke="#000000" d="M5848.8 7406.8 6272.4 7099H6996L7096 7406.8 6996 7714.6H6272.4Z"/>
<path transform="matrix(.1,0,0,-.1,0,792)" d="M2174.5 227.699 2074.5-80.1016 1812.7-270.301 2074.5-460.5 2174.5-768.301 2436.3-578H2759.9L2659.9-270.301 2759.9 37.5H2436.3" fill="#f5d99e"/>
<path transform="matrix(.1,0,0,-.1,0,792)" stroke-width="1" stroke-linecap="butt" stroke-miterlimit="10" stroke-linejoin="miter" fill="none" stroke="#000000" d="M2174.5 227.699 2074.5-80.1016 1812.7-270.301 2074.5-460.5 2174.5-768.301 2436.3-578H2759.9L2659.9-270.301 2759.9 37.5H2436.3Z"/>
<path transform="matrix(.1,0,0,-.1,0,792)" d="M3792.5 227.699 3530.7 37.5H3207.1L3307.1-270.301 3207.1-578H3530.7L3792.5-768.301 3892.5-460.5 4154.3-270.301 3892.5-80.1016" fill="#f5d99e"/>
<path transform="matrix(.1,0,0,-.1,0,792)" stroke-width="1" stroke-linecap="butt" stroke-miterlimit="10" stroke-linejoin="miter" fill="none" stroke="#000000" d="M3792.5 227.699 3530.7 37.5H3207.1L3307.1-270.301 3207.1-578H3530.7L3792.5-768.301 3892.5-460.5 4154.3-270.301 3892.5-80.1016Z"/>
<path transform="matrix(.1,0,0,-.1,0,792)" d="M71.1016 4183.8-28.8984 4491.6H-752.602L-1176.2 4183.8-752.602 3876H-28.8984" fill="#335c12"/>
<path transform="matrix(.1,0,0,-.1,0,792)" stroke-width="1" stroke-linecap="butt" stroke-miterlimit="10" stroke-linejoin="miter" fill="none" stroke="#000000" d="M71.1016 4183.8-28.8984 4491.6H-752.602L-1176.2 4183.8-752.602 3876H-28.8984Z"/>
<path transform="matrix(.1,0,0,-.1,0,792)" d="M56.5 6601-528.898 6175.7-167.102 5912.8" fill="#f5d99e"/>
<path transform="matrix(.1,0,0,-.1,0,792)" stroke-width="1" stroke-linecap="butt" stroke-miterlimit="10" stroke-linejoin="miter" fill="none" stroke="#000000" d="M56.5 6601-528.898 6175.7-167.102 5912.8Z"/>
<path transform="matrix(.1,0,0,-.1,0,792)" d="M56.5 1766.5-167.102 2454.7-528.898 2191.9" fill="#f5d99e"/>
<path transform="matrix(.1,0,0,-.1,0,792)" stroke-width="1" stroke-linecap="butt" stroke-miterlimit="10" stroke-linejoin="miter" fill="none" stroke="#000000" d="M56.5 1766.5-167.102 2454.7-528.898 2191.9Z"/>
<path transform="matrix(.1,0,0,-.1,0,792)" d="M5896 4183.8 5996 3876H6719.6L7143.2 4183.8 6719.6 4491.6H5996" fill="#335c12"/>
<path transform="matrix(.1,0,0,-.1,0,792)" stroke-width="1" stroke-linecap="butt" stroke-miterlimit="10" stroke-linejoin="miter" fill="none" stroke="#000000" d="M5896 4183.8 5996 3876H6719.6L7143.2 4183.8 6719.6 4491.6H5996Z"/>
<path transform="matrix(.1,0,0,-.1,0,792)" d="M5910.6 6601 6134.2 5912.8 6496 6175.7" fill="#f5d99e"/>
<path transform="matrix(.1,0,0,-.1,0,792)" stroke-width="1" stroke-linecap="butt" stroke-miterlimit="10" stroke-linejoin="miter" fill="none" stroke="#000000" d="M5910.6 6601 6134.2 5912.8 6496 6175.7Z"/>
<path transform="matrix(.1,0,0,-.1,0,792)" d="M5910.6 1766.5 6496 2191.9 6134.2 2454.7" fill="#f5d99e"/>
<path transform="matrix(.1,0,0,-.1,0,792)" stroke-width="1" stroke-linecap="butt" stroke-miterlimit="10" stroke-linejoin="miter" fill="none" stroke="#000000" d="M5910.6 1766.5 6496 2191.9 6134.2 2454.7Z"/>
<path transform="matrix(.1,0,0,-.1,0,792)" d="M56.5 155.102-528.898-270.301-167.102-533.102" fill="#f5d99e"/>
<path transform="matrix(.1,0,0,-.1,0,792)" stroke-width="1" stroke-linecap="butt" stroke-miterlimit="10" stroke-linejoin="miter" fill="none" stroke="#000000" d="M56.5 155.102-528.898-270.301-167.102-533.102Z"/>
<path transform="matrix(.1,0,0,-.1,0,792)" d="M1227.3 155.102 1450.9-533.102 1812.7-270.301" fill="#f5d99e"/>
<path transform="matrix(.1,0,0,-.1,0,792)" stroke-width="1" stroke-linecap="butt" stroke-miterlimit="10" stroke-linejoin="miter" fill="none" stroke="#000000" d="M1227.3 155.102 1450.9-533.102 1812.7-270.301Z"/>
<path transform="matrix(.1,0,0,-.1,0,792)" d="M4739.7 155.102 4154.3-270.301 4516.1-533.102" fill="#f5d99e"/>
<path transform="matrix(.1,0,0,-.1,0,792)" stroke-width="1" stroke-linecap="butt" stroke-miterlimit="10" stroke-linejoin="miter" fill="none" stroke="#000000" d="M4739.7 155.102 4154.3-270.301 4516.1-533.102Z"/>
<path transform="matrix(.1,0,0,-.1,0,792)" d="M5910.6 155.102 6134.2-533.102 6496-270.301" fill="#f5d99e"/>
<path transform="matrix(.1,0,0,-.1,0,792)" stroke-width="1" stroke-linecap="butt" stroke-miterlimit="10" stroke-linejoin="miter" fill="none" stroke="#000000" d="M5910.6 155.102 6134.2-533.102 6496-270.301Z"/>
<path transform="matrix(.1,0,0,-.1,0,792)" d="M5996 3876 6134.2 3450.7 6719.6 3876" fill="#f5d99e"/>
<path transform="matrix(.1,0,0,-.1,0,792)" stroke-width="1" stroke-linecap="butt" stroke-miterlimit="10" stroke-linejoin="miter" fill="none" stroke="#000000" d="M5996 3876 6134.2 3450.7 6719.6 3876Z"/>
<path transform="matrix(.1,0,0,-.1,0,792)" d="M5996 4491.6H6719.6L6134.2 4916.9" fill="#f5d99e"/>
<path transform="matrix(.1,0,0,-.1,0,792)" stroke-width="1" stroke-linecap="butt" stroke-miterlimit="10" stroke-linejoin="miter" fill="none" stroke="#000000" d="M5996 4491.6H6719.6L6134.2 4916.9Z"/>
<path transform="matrix(.1,0,0,-.1,0,792)" d="M2759.9 37.5 2659.9-270.301 2759.9-578H3207.1L3307.1-270.301 3207.1 37.5" fill="#3d69c4"/>
<path transform="matrix(.1,0,0,-.1,0,792)" stroke-width="1" stroke-linecap="butt" stroke-miterlimit="10" stroke-linejoin="miter" fill="none" stroke="#000000" d="M2759.9 37.5 2659.9-270.301 2759.9-578H3207.1L3307.1-270.301 3207.1 37.5Z"/>
</svg>
