<svg xmlns="http://www.w3.org/2000/svg" xmlns:xlink="http://www.w3.org/1999/xlink" xmlns:inkscape="http://www.inkscape.org/namespaces/inkscape" version="1.1" width="612" height="792" viewBox="0 0 612 792">
<path transform="matrix(.1,0,0,-.1,0,792)" d="M3745.3 3959.7 3668 4197.5 3745.3 4435.3 3543 4582.2 3465.8 4820H3215.8L3013.5 4966.9 2811.3 4820H2561.3L2484 4582.2 2281.8 4435.3 2359 4197.5 2281.8 3959.7 2484 3812.8 2561.3 3575H2811.3L3013.5 3428.1 3215.8 3575H3465.8L3543 3812.8" fill="#b0914d"/>
<path transform="matrix(.1,0,0,-.1,0,792)" stroke-width="1" stroke-linecap="butt" stroke-miterlimit="10" stroke-linejoin="miter" fill="none" stroke="#000000" d="M3745.3 3959.7 3668 4197.5 3745.3 4435.3 3543 4582.2 3465.8 4820H3215.8L3013.5 4966.9 2811.3 4820H2561.3L2484 4582.2 2281.8 4435.3 2359 4197.5 2281.8 3959.7 2484 3812.8 2561.3 3575H2811.3L3013.5 3428.1 3215.8 3575H3465.8L3543 3812.8Z"/>
<path transform="matrix(.1,0,0,-.1,0,792)" d="M3215.8 4820H3465.8L3340.8 5204.7 3013.5 4966.9Z"/>
<path transform="matrix(.1,0,0,-.1,0,792)" stroke-width="1" stroke-linecap="butt" stroke-miterlimit="10" stroke-linejoin="miter" fill="none" stroke="#000000" d="M3215.8 4820H3465.8L3340.8 5204.7 3013.5 4966.9Z"/>
<path transform="matrix(.1,0,0,-.1,0,792)" d="M2811.3 4820 3013.5 4966.9 2686.3 5204.7 2561.3 4820Z"/>
<path transform="matrix(.1,0,0,-.1,0,792)" stroke-width="1" stroke-linecap="butt" stroke-miterlimit="10" stroke-linejoin="miter" fill="none" stroke="#000000" d="M2811.3 4820 3013.5 4966.9 2686.3 5204.7 2561.3 4820Z"/>
<path transform="matrix(.1,0,0,-.1,0,792)" d="M2561.3 4820H2156.8L2281.8 4435.3 2484 4582.2Z"/>
<path transform="matrix(.1,0,0,-.1,0,792)" stroke-width="1" stroke-linecap="butt" stroke-miterlimit="10" stroke-linejoin="miter" fill="none" stroke="#000000" d="M2561.3 4820H2156.8L2281.8 4435.3 2484 4582.2Z"/>
<path transform="matrix(.1,0,0,-.1,0,792)" d="M2561.3 4820 2686.3 5204.7 2449.5 5376.7H2156.8L2066.3 5098.3 2156.8 4820" fill="#b0914d"/>
<path transform="matrix(.1,0,0,-.1,0,792)" stroke-width="1" stroke-linecap="butt" stroke-miterlimit="10" stroke-linejoin="miter" fill="none" stroke="#000000" d="M2561.3 4820 2686.3 5204.7 2449.5 5376.7H2156.8L2066.3 5098.3 2156.8 4820Z"/>
<path transform="matrix(.1,0,0,-.1,0,792)" d="M2561.3 3575 2686.3 3190.3 3013.5 3428.1 2811.3 3575Z"/>
<path transform="matrix(.1,0,0,-.1,0,792)" stroke-width="1" stroke-linecap="butt" stroke-miterlimit="10" stroke-linejoin="miter" fill="none" stroke="#000000" d="M2561.3 3575 2686.3 3190.3 3013.5 3428.1 2811.3 3575Z"/>
<path transform="matrix(.1,0,0,-.1,0,792)" d="M2561.3 3575H2156.8L2066.3 3296.6 2156.8 3018.3H2449.5L2686.3 3190.3" fill="#b0914d"/>
<path transform="matrix(.1,0,0,-.1,0,792)" stroke-width="1" stroke-linecap="butt" stroke-miterlimit="10" stroke-linejoin="miter" fill="none" stroke="#000000" d="M2561.3 3575H2156.8L2066.3 3296.6 2156.8 3018.3H2449.5L2686.3 3190.3Z"/>
<path transform="matrix(.1,0,0,-.1,0,792)" d="M2561.3 3575 2484 3812.8 2281.8 3959.7 2156.8 3575Z"/>
<path transform="matrix(.1,0,0,-.1,0,792)" stroke-width="1" stroke-linecap="butt" stroke-miterlimit="10" stroke-linejoin="miter" fill="none" stroke="#000000" d="M2561.3 3575 2484 3812.8 2281.8 3959.7 2156.8 3575Z"/>
<path transform="matrix(.1,0,0,-.1,0,792)" d="M3215.8 3575 3013.5 3428.1 3340.8 3190.3 3465.8 3575Z"/>
<path transform="matrix(.1,0,0,-.1,0,792)" stroke-width="1" stroke-linecap="butt" stroke-miterlimit="10" stroke-linejoin="miter" fill="none" stroke="#000000" d="M3215.8 3575 3013.5 3428.1 3340.8 3190.3 3465.8 3575Z"/>
<path transform="matrix(.1,0,0,-.1,0,792)" d="M3465.8 3575H3870.3L3745.3 3959.7 3543 3812.8Z"/>
<path transform="matrix(.1,0,0,-.1,0,792)" stroke-width="1" stroke-linecap="butt" stroke-miterlimit="10" stroke-linejoin="miter" fill="none" stroke="#000000" d="M3465.8 3575H3870.3L3745.3 3959.7 3543 3812.8Z"/>
<path transform="matrix(.1,0,0,-.1,0,792)" d="M3465.8 3575 3340.8 3190.3 3577.6 3018.3H3870.3L3960.7 3296.6 3870.3 3575" fill="#b0914d"/>
<path transform="matrix(.1,0,0,-.1,0,792)" stroke-width="1" stroke-linecap="butt" stroke-miterlimit="10" stroke-linejoin="miter" fill="none" stroke="#000000" d="M3465.8 3575 3340.8 3190.3 3577.6 3018.3H3870.3L3960.7 3296.6 3870.3 3575Z"/>
<path transform="matrix(.1,0,0,-.1,0,792)" d="M3465.8 4820H3870.3L3960.7 5098.3 3870.3 5376.7H3577.6L3340.8 5204.7" fill="#b0914d"/>
<path transform="matrix(.1,0,0,-.1,0,792)" stroke-width="1" stroke-linecap="butt" stroke-miterlimit="10" stroke-linejoin="miter" fill="none" stroke="#000000" d="M3465.8 4820H3870.3L3960.7 5098.3 3870.3 5376.7H3577.6L3340.8 5204.7Z"/>
<path transform="matrix(.1,0,0,-.1,0,792)" d="M3465.8 4820 3543 4582.2 3745.3 4435.3 3870.3 4820Z"/>
<path transform="matrix(.1,0,0,-.1,0,792)" stroke-width="1" stroke-linecap="butt" stroke-miterlimit="10" stroke-linejoin="miter" fill="none" stroke="#000000" d="M3465.8 4820 3543 4582.2 3745.3 4435.3 3870.3 4820Z"/>
<path transform="matrix(.1,0,0,-.1,0,792)" d="M3013.5 4966.9 3340.8 5204.7 3250.3 5483.1 3013.5 5655.1 2776.7 5483.1 2686.3 5204.7" fill="#b0914d"/>
<path transform="matrix(.1,0,0,-.1,0,792)" stroke-width="1" stroke-linecap="butt" stroke-miterlimit="10" stroke-linejoin="miter" fill="none" stroke="#000000" d="M3013.5 4966.9 3340.8 5204.7 3250.3 5483.1 3013.5 5655.1 2776.7 5483.1 2686.3 5204.7Z"/>
<path transform="matrix(.1,0,0,-.1,0,792)" d="M3013.5 3428.1 2686.3 3190.3 2776.7 2911.9 3013.5 2739.9 3250.3 2911.9 3340.8 3190.3" fill="#b0914d"/>
<path transform="matrix(.1,0,0,-.1,0,792)" stroke-width="1" stroke-linecap="butt" stroke-miterlimit="10" stroke-linejoin="miter" fill="none" stroke="#000000" d="M3013.5 3428.1 2686.3 3190.3 2776.7 2911.9 3013.5 2739.9 3250.3 2911.9 3340.8 3190.3Z"/>
<path transform="matrix(.1,0,0,-.1,0,792)" d="M3745.3 3959.7 4072.5 4197.5 3745.3 4435.3 3668 4197.5Z"/>
<path transform="matrix(.1,0,0,-.1,0,792)" stroke-width="1" stroke-linecap="butt" stroke-miterlimit="10" stroke-linejoin="miter" fill="none" stroke="#000000" d="M3745.3 3959.7 4072.5 4197.5 3745.3 4435.3 3668 4197.5Z"/>
<path transform="matrix(.1,0,0,-.1,0,792)" d="M3745.3 3959.7 3870.3 3575H4274.8L4399.8 3959.7 4072.5 4197.5" fill="#b0914d"/>
<path transform="matrix(.1,0,0,-.1,0,792)" stroke-width="1" stroke-linecap="butt" stroke-miterlimit="10" stroke-linejoin="miter" fill="none" stroke="#000000" d="M3745.3 3959.7 3870.3 3575H4274.8L4399.8 3959.7 4072.5 4197.5Z"/>
<path transform="matrix(.1,0,0,-.1,0,792)" d="M2359 4197.5 2281.8 4435.3 1954.5 4197.5 2281.8 3959.7Z"/>
<path transform="matrix(.1,0,0,-.1,0,792)" stroke-width="1" stroke-linecap="butt" stroke-miterlimit="10" stroke-linejoin="miter" fill="none" stroke="#000000" d="M2359 4197.5 2281.8 4435.3 1954.5 4197.5 2281.8 3959.7Z"/>
<path transform="matrix(.1,0,0,-.1,0,792)" d="M2281.8 4435.3 2156.8 4820H1752.2L1627.2 4435.3 1954.5 4197.5" fill="#b0914d"/>
<path transform="matrix(.1,0,0,-.1,0,792)" stroke-width="1" stroke-linecap="butt" stroke-miterlimit="10" stroke-linejoin="miter" fill="none" stroke="#000000" d="M2281.8 4435.3 2156.8 4820H1752.2L1627.2 4435.3 1954.5 4197.5Z"/>
<path transform="matrix(.1,0,0,-.1,0,792)" d="M2281.8 3959.7 1954.5 4197.5 1627.2 3959.7 1752.2 3575H2156.8" fill="#b0914d"/>
<path transform="matrix(.1,0,0,-.1,0,792)" stroke-width="1" stroke-linecap="butt" stroke-miterlimit="10" stroke-linejoin="miter" fill="none" stroke="#000000" d="M2281.8 3959.7 1954.5 4197.5 1627.2 3959.7 1752.2 3575H2156.8Z"/>
<path transform="matrix(.1,0,0,-.1,0,792)" d="M3340.8 5204.7 3577.6 5376.7H3870.3L3745.3 5761.4 3452.6 5548.8 3340.8 5892.9 3013.5 5655.1 3250.3 5483.1"/>
<path transform="matrix(.1,0,0,-.1,0,792)" stroke-width="1" stroke-linecap="butt" stroke-miterlimit="10" stroke-linejoin="miter" fill="none" stroke="#000000" d="M3340.8 5204.7 3577.6 5376.7H3870.3L3745.3 5761.4 3452.6 5548.8 3340.8 5892.9 3013.5 5655.1 3250.3 5483.1Z"/>
<path transform="matrix(.1,0,0,-.1,0,792)" d="M2686.3 5204.7 2776.7 5483.1 3013.5 5655.1 2686.3 5892.9 2574.5 5548.8 2281.8 5761.4 2156.8 5376.7H2449.5"/>
<path transform="matrix(.1,0,0,-.1,0,792)" stroke-width="1" stroke-linecap="butt" stroke-miterlimit="10" stroke-linejoin="miter" fill="none" stroke="#000000" d="M2686.3 5204.7 2776.7 5483.1 3013.5 5655.1 2686.3 5892.9 2574.5 5548.8 2281.8 5761.4 2156.8 5376.7H2449.5Z"/>
<path transform="matrix(.1,0,0,-.1,0,792)" d="M2686.3 3190.3 2449.5 3018.3H2156.8L2281.8 2633.5 2574.5 2846.2 2686.3 2502.1 3013.5 2739.9 2776.7 2911.9"/>
<path transform="matrix(.1,0,0,-.1,0,792)" stroke-width="1" stroke-linecap="butt" stroke-miterlimit="10" stroke-linejoin="miter" fill="none" stroke="#000000" d="M2686.3 3190.3 2449.5 3018.3H2156.8L2281.8 2633.5 2574.5 2846.2 2686.3 2502.1 3013.5 2739.9 2776.7 2911.9Z"/>
<path transform="matrix(.1,0,0,-.1,0,792)" d="M3340.8 3190.3 3250.3 2911.9 3013.5 2739.9 3340.8 2502.1 3452.6 2846.2 3745.3 2633.5 3870.3 3018.3H3577.6"/>
<path transform="matrix(.1,0,0,-.1,0,792)" stroke-width="1" stroke-linecap="butt" stroke-miterlimit="10" stroke-linejoin="miter" fill="none" stroke="#000000" d="M3340.8 3190.3 3250.3 2911.9 3013.5 2739.9 3340.8 2502.1 3452.6 2846.2 3745.3 2633.5 3870.3 3018.3H3577.6Z"/>
<path transform="matrix(.1,0,0,-.1,0,792)" d="M3745.3 4435.3 4072.5 4197.5 4399.8 4435.3 4274.8 4820H3870.3" fill="#b0914d"/>
<path transform="matrix(.1,0,0,-.1,0,792)" stroke-width="1" stroke-linecap="butt" stroke-miterlimit="10" stroke-linejoin="miter" fill="none" stroke="#000000" d="M3745.3 4435.3 4072.5 4197.5 4399.8 4435.3 4274.8 4820H3870.3Z"/>
<path transform="matrix(.1,0,0,-.1,0,792)" d="M2156.8 4820 2066.3 5098.3 2156.8 5376.7H1752.2L1842.7 5098.3 1752.2 4820"/>
<path transform="matrix(.1,0,0,-.1,0,792)" stroke-width="1" stroke-linecap="butt" stroke-miterlimit="10" stroke-linejoin="miter" fill="none" stroke="#000000" d="M2156.8 4820 2066.3 5098.3 2156.8 5376.7H1752.2L1842.7 5098.3 1752.2 4820Z"/>
<path transform="matrix(.1,0,0,-.1,0,792)" d="M2156.8 3575H1752.2L1842.7 3296.6 1752.2 3018.3H2156.8L2066.3 3296.6"/>
<path transform="matrix(.1,0,0,-.1,0,792)" stroke-width="1" stroke-linecap="butt" stroke-miterlimit="10" stroke-linejoin="miter" fill="none" stroke="#000000" d="M2156.8 3575H1752.2L1842.7 3296.6 1752.2 3018.3H2156.8L2066.3 3296.6Z"/>
<path transform="matrix(.1,0,0,-.1,0,792)" d="M2156.8 5376.7 2281.8 5761.4 1954.5 5999.2 1627.2 5761.4 1752.2 5376.7" fill="#b0914d"/>
<path transform="matrix(.1,0,0,-.1,0,792)" stroke-width="1" stroke-linecap="butt" stroke-miterlimit="10" stroke-linejoin="miter" fill="none" stroke="#000000" d="M2156.8 5376.7 2281.8 5761.4 1954.5 5999.2 1627.2 5761.4 1752.2 5376.7Z"/>
<path transform="matrix(.1,0,0,-.1,0,792)" d="M2156.8 3018.3H1752.2L1627.2 2633.5 1954.5 2395.8 2281.8 2633.5" fill="#b0914d"/>
<path transform="matrix(.1,0,0,-.1,0,792)" stroke-width="1" stroke-linecap="butt" stroke-miterlimit="10" stroke-linejoin="miter" fill="none" stroke="#000000" d="M2156.8 3018.3H1752.2L1627.2 2633.5 1954.5 2395.8 2281.8 2633.5Z"/>
<path transform="matrix(.1,0,0,-.1,0,792)" d="M3870.3 3018.3H4274.8L4184.3 3296.6 4274.8 3575H3870.3L3960.7 3296.6"/>
<path transform="matrix(.1,0,0,-.1,0,792)" stroke-width="1" stroke-linecap="butt" stroke-miterlimit="10" stroke-linejoin="miter" fill="none" stroke="#000000" d="M3870.3 3018.3H4274.8L4184.3 3296.6 4274.8 3575H3870.3L3960.7 3296.6Z"/>
<path transform="matrix(.1,0,0,-.1,0,792)" d="M3870.3 3018.3 3745.3 2633.5 4072.5 2395.8 4399.8 2633.5 4274.8 3018.3" fill="#b0914d"/>
<path transform="matrix(.1,0,0,-.1,0,792)" stroke-width="1" stroke-linecap="butt" stroke-miterlimit="10" stroke-linejoin="miter" fill="none" stroke="#000000" d="M3870.3 3018.3 3745.3 2633.5 4072.5 2395.8 4399.8 2633.5 4274.8 3018.3Z"/>
<path transform="matrix(.1,0,0,-.1,0,792)" d="M3870.3 4820H4274.8L4184.3 5098.3 4274.8 5376.7H3870.3L3960.7 5098.3"/>
<path transform="matrix(.1,0,0,-.1,0,792)" stroke-width="1" stroke-linecap="butt" stroke-miterlimit="10" stroke-linejoin="miter" fill="none" stroke="#000000" d="M3870.3 4820H4274.8L4184.3 5098.3 4274.8 5376.7H3870.3L3960.7 5098.3Z"/>
<path transform="matrix(.1,0,0,-.1,0,792)" d="M3870.3 5376.7H4274.8L4399.8 5761.4 4072.5 5999.2 3745.3 5761.4" fill="#b0914d"/>
<path transform="matrix(.1,0,0,-.1,0,792)" stroke-width="1" stroke-linecap="butt" stroke-miterlimit="10" stroke-linejoin="miter" fill="none" stroke="#000000" d="M3870.3 5376.7H4274.8L4399.8 5761.4 4072.5 5999.2 3745.3 5761.4Z"/>
<path transform="matrix(.1,0,0,-.1,0,792)" d="M3452.6 5548.8 3745.3 5761.4 3633.5 6105.5 3340.8 5892.9Z" fill="#b0914d"/>
<path transform="matrix(.1,0,0,-.1,0,792)" stroke-width="1" stroke-linecap="butt" stroke-miterlimit="10" stroke-linejoin="miter" fill="none" stroke="#000000" d="M3452.6 5548.8 3745.3 5761.4 3633.5 6105.5 3340.8 5892.9Z"/>
<path transform="matrix(.1,0,0,-.1,0,792)" d="M2574.5 5548.8 2686.3 5892.9 2393.6 6105.5 2281.8 5761.4Z" fill="#b0914d"/>
<path transform="matrix(.1,0,0,-.1,0,792)" stroke-width="1" stroke-linecap="butt" stroke-miterlimit="10" stroke-linejoin="miter" fill="none" stroke="#000000" d="M2574.5 5548.8 2686.3 5892.9 2393.6 6105.5 2281.8 5761.4Z"/>
<path transform="matrix(.1,0,0,-.1,0,792)" d="M2574.5 2846.2 2281.8 2633.5 2393.6 2289.4 2686.3 2502.1Z" fill="#b0914d"/>
<path transform="matrix(.1,0,0,-.1,0,792)" stroke-width="1" stroke-linecap="butt" stroke-miterlimit="10" stroke-linejoin="miter" fill="none" stroke="#000000" d="M2574.5 2846.2 2281.8 2633.5 2393.6 2289.4 2686.3 2502.1Z"/>
<path transform="matrix(.1,0,0,-.1,0,792)" d="M3452.6 2846.2 3340.8 2502.1 3633.5 2289.4 3745.3 2633.5Z" fill="#b0914d"/>
<path transform="matrix(.1,0,0,-.1,0,792)" stroke-width="1" stroke-linecap="butt" stroke-miterlimit="10" stroke-linejoin="miter" fill="none" stroke="#000000" d="M3452.6 2846.2 3340.8 2502.1 3633.5 2289.4 3745.3 2633.5Z"/>
<path transform="matrix(.1,0,0,-.1,0,792)" d="M1954.5 4197.5 1627.2 4435.3 1550 4197.5 1627.2 3959.7Z"/>
<path transform="matrix(.1,0,0,-.1,0,792)" stroke-width="1" stroke-linecap="butt" stroke-miterlimit="10" stroke-linejoin="miter" fill="none" stroke="#000000" d="M1954.5 4197.5 1627.2 4435.3 1550 4197.5 1627.2 3959.7Z"/>
<path transform="matrix(.1,0,0,-.1,0,792)" d="M3013.5 5655.1 3340.8 5892.9 3215.8 6277.6H2811.3L2686.3 5892.9" fill="#b0914d"/>
<path transform="matrix(.1,0,0,-.1,0,792)" stroke-width="1" stroke-linecap="butt" stroke-miterlimit="10" stroke-linejoin="miter" fill="none" stroke="#000000" d="M3013.5 5655.1 3340.8 5892.9 3215.8 6277.6H2811.3L2686.3 5892.9Z"/>
<path transform="matrix(.1,0,0,-.1,0,792)" d="M3013.5 2739.9 2686.3 2502.1 2811.3 2117.4H3215.8L3340.8 2502.1" fill="#b0914d"/>
<path transform="matrix(.1,0,0,-.1,0,792)" stroke-width="1" stroke-linecap="butt" stroke-miterlimit="10" stroke-linejoin="miter" fill="none" stroke="#000000" d="M3013.5 2739.9 2686.3 2502.1 2811.3 2117.4H3215.8L3340.8 2502.1Z"/>
<path transform="matrix(.1,0,0,-.1,0,792)" d="M4072.5 4197.5 4399.8 3959.7 4477 4197.5 4399.8 4435.3Z"/>
<path transform="matrix(.1,0,0,-.1,0,792)" stroke-width="1" stroke-linecap="butt" stroke-miterlimit="10" stroke-linejoin="miter" fill="none" stroke="#000000" d="M4072.5 4197.5 4399.8 3959.7 4477 4197.5 4399.8 4435.3Z"/>
<path transform="matrix(.1,0,0,-.1,0,792)" d="M3745.3 5761.4 4072.5 5999.2 3835.7 6171.2 3745.3 6449.6 3508.5 6277.6H3215.8L3340.8 5892.9 3633.5 6105.5"/>
<path transform="matrix(.1,0,0,-.1,0,792)" stroke-width="1" stroke-linecap="butt" stroke-miterlimit="10" stroke-linejoin="miter" fill="none" stroke="#000000" d="M3745.3 5761.4 4072.5 5999.2 3835.7 6171.2 3745.3 6449.6 3508.5 6277.6H3215.8L3340.8 5892.9 3633.5 6105.5Z"/>
<path transform="matrix(.1,0,0,-.1,0,792)" d="M2281.8 5761.4 2393.6 6105.5 2686.3 5892.9 2811.3 6277.6H2518.6L2281.8 6449.6 2191.3 6171.2 1954.5 5999.2"/>
<path transform="matrix(.1,0,0,-.1,0,792)" stroke-width="1" stroke-linecap="butt" stroke-miterlimit="10" stroke-linejoin="miter" fill="none" stroke="#000000" d="M2281.8 5761.4 2393.6 6105.5 2686.3 5892.9 2811.3 6277.6H2518.6L2281.8 6449.6 2191.3 6171.2 1954.5 5999.2Z"/>
<path transform="matrix(.1,0,0,-.1,0,792)" d="M1842.7 5098.3 1752.2 5376.7H1459.5L1222.7 5204.7 1347.7 4820H1752.2" fill="#b0914d"/>
<path transform="matrix(.1,0,0,-.1,0,792)" stroke-width="1" stroke-linecap="butt" stroke-miterlimit="10" stroke-linejoin="miter" fill="none" stroke="#000000" d="M1842.7 5098.3 1752.2 5376.7H1459.5L1222.7 5204.7 1347.7 4820H1752.2Z"/>
<path transform="matrix(.1,0,0,-.1,0,792)" d="M1842.7 3296.6 1752.2 3575H1347.7L1222.7 3190.3 1459.5 3018.3H1752.2" fill="#b0914d"/>
<path transform="matrix(.1,0,0,-.1,0,792)" stroke-width="1" stroke-linecap="butt" stroke-miterlimit="10" stroke-linejoin="miter" fill="none" stroke="#000000" d="M1842.7 3296.6 1752.2 3575H1347.7L1222.7 3190.3 1459.5 3018.3H1752.2Z"/>
<path transform="matrix(.1,0,0,-.1,0,792)" d="M2281.8 2633.5 1954.5 2395.8 2191.3 2223.7 2281.8 1945.4 2518.6 2117.4H2811.3L2686.3 2502.1 2393.6 2289.4"/>
<path transform="matrix(.1,0,0,-.1,0,792)" stroke-width="1" stroke-linecap="butt" stroke-miterlimit="10" stroke-linejoin="miter" fill="none" stroke="#000000" d="M2281.8 2633.5 1954.5 2395.8 2191.3 2223.7 2281.8 1945.4 2518.6 2117.4H2811.3L2686.3 2502.1 2393.6 2289.4Z"/>
<path transform="matrix(.1,0,0,-.1,0,792)" d="M3745.3 2633.5 3633.5 2289.4 3340.8 2502.1 3215.8 2117.4H3508.5L3745.3 1945.4 3835.7 2223.7 4072.5 2395.8"/>
<path transform="matrix(.1,0,0,-.1,0,792)" stroke-width="1" stroke-linecap="butt" stroke-miterlimit="10" stroke-linejoin="miter" fill="none" stroke="#000000" d="M3745.3 2633.5 3633.5 2289.4 3340.8 2502.1 3215.8 2117.4H3508.5L3745.3 1945.4 3835.7 2223.7 4072.5 2395.8Z"/>
<path transform="matrix(.1,0,0,-.1,0,792)" d="M4184.3 3296.6 4274.8 3018.3H4567.5L4804.3 3190.3 4679.3 3575H4274.8" fill="#b0914d"/>
<path transform="matrix(.1,0,0,-.1,0,792)" stroke-width="1" stroke-linecap="butt" stroke-miterlimit="10" stroke-linejoin="miter" fill="none" stroke="#000000" d="M4184.3 3296.6 4274.8 3018.3H4567.5L4804.3 3190.3 4679.3 3575H4274.8Z"/>
<path transform="matrix(.1,0,0,-.1,0,792)" d="M4184.3 5098.3 4274.8 4820H4679.3L4804.3 5204.7 4567.5 5376.7H4274.8" fill="#b0914d"/>
<path transform="matrix(.1,0,0,-.1,0,792)" stroke-width="1" stroke-linecap="butt" stroke-miterlimit="10" stroke-linejoin="miter" fill="none" stroke="#000000" d="M4184.3 5098.3 4274.8 4820H4679.3L4804.3 5204.7 4567.5 5376.7H4274.8Z"/>
<path transform="matrix(.1,0,0,-.1,0,792)" d="M1752.2 5376.7 1627.2 5761.4 1334.5 5548.8 1222.7 5892.9 895.5 5655.1 1132.3 5483.1 1222.7 5204.7 1459.5 5376.7"/>
<path transform="matrix(.1,0,0,-.1,0,792)" stroke-width="1" stroke-linecap="butt" stroke-miterlimit="10" stroke-linejoin="miter" fill="none" stroke="#000000" d="M1752.2 5376.7 1627.2 5761.4 1334.5 5548.8 1222.7 5892.9 895.5 5655.1 1132.3 5483.1 1222.7 5204.7 1459.5 5376.7Z"/>
<path transform="matrix(.1,0,0,-.1,0,792)" d="M1752.2 4820H1347.7L1425 4582.2 1627.2 4435.3Z"/>
<path transform="matrix(.1,0,0,-.1,0,792)" stroke-width="1" stroke-linecap="butt" stroke-miterlimit="10" stroke-linejoin="miter" fill="none" stroke="#000000" d="M1752.2 4820H1347.7L1425 4582.2 1627.2 4435.3Z"/>
<path transform="matrix(.1,0,0,-.1,0,792)" d="M1752.2 3575 1627.2 3959.7 1425 3812.8 1347.7 3575Z"/>
<path transform="matrix(.1,0,0,-.1,0,792)" stroke-width="1" stroke-linecap="butt" stroke-miterlimit="10" stroke-linejoin="miter" fill="none" stroke="#000000" d="M1752.2 3575 1627.2 3959.7 1425 3812.8 1347.7 3575Z"/>
<path transform="matrix(.1,0,0,-.1,0,792)" d="M1752.2 3018.3H1459.5L1222.7 3190.3 1132.3 2911.9 895.5 2739.9 1222.7 2502.1 1334.5 2846.2 1627.2 2633.5"/>
<path transform="matrix(.1,0,0,-.1,0,792)" stroke-width="1" stroke-linecap="butt" stroke-miterlimit="10" stroke-linejoin="miter" fill="none" stroke="#000000" d="M1752.2 3018.3H1459.5L1222.7 3190.3 1132.3 2911.9 895.5 2739.9 1222.7 2502.1 1334.5 2846.2 1627.2 2633.5Z"/>
<path transform="matrix(.1,0,0,-.1,0,792)" d="M4072.5 5999.2 4309.3 6171.2 4399.8 6449.6 4072.5 6687.4 3745.3 6449.6 3835.7 6171.2" fill="#b0914d"/>
<path transform="matrix(.1,0,0,-.1,0,792)" stroke-width="1" stroke-linecap="butt" stroke-miterlimit="10" stroke-linejoin="miter" fill="none" stroke="#000000" d="M4072.5 5999.2 4309.3 6171.2 4399.8 6449.6 4072.5 6687.4 3745.3 6449.6 3835.7 6171.2Z"/>
<path transform="matrix(.1,0,0,-.1,0,792)" d="M4072.5 5999.2 4399.8 5761.4 4511.6 6105.5 4804.3 5892.9 4929.3 6277.6H4636.6L4399.8 6449.6 4309.3 6171.2"/>
<path transform="matrix(.1,0,0,-.1,0,792)" stroke-width="1" stroke-linecap="butt" stroke-miterlimit="10" stroke-linejoin="miter" fill="none" stroke="#000000" d="M4072.5 5999.2 4399.8 5761.4 4511.6 6105.5 4804.3 5892.9 4929.3 6277.6H4636.6L4399.8 6449.6 4309.3 6171.2Z"/>
<path transform="matrix(.1,0,0,-.1,0,792)" d="M1954.5 5999.2 1717.7 6171.2 1627.2 6449.6 1390.4 6277.6H1097.7L1222.7 5892.9 1515.4 6105.5 1627.2 5761.4"/>
<path transform="matrix(.1,0,0,-.1,0,792)" stroke-width="1" stroke-linecap="butt" stroke-miterlimit="10" stroke-linejoin="miter" fill="none" stroke="#000000" d="M1954.5 5999.2 1717.7 6171.2 1627.2 6449.6 1390.4 6277.6H1097.7L1222.7 5892.9 1515.4 6105.5 1627.2 5761.4Z"/>
<path transform="matrix(.1,0,0,-.1,0,792)" d="M1954.5 5999.2 2191.3 6171.2 2281.8 6449.6 1954.5 6687.4 1627.2 6449.6 1717.7 6171.2" fill="#b0914d"/>
<path transform="matrix(.1,0,0,-.1,0,792)" stroke-width="1" stroke-linecap="butt" stroke-miterlimit="10" stroke-linejoin="miter" fill="none" stroke="#000000" d="M1954.5 5999.2 2191.3 6171.2 2281.8 6449.6 1954.5 6687.4 1627.2 6449.6 1717.7 6171.2Z"/>
<path transform="matrix(.1,0,0,-.1,0,792)" d="M4274.8 3018.3 4399.8 2633.5 4692.5 2846.2 4804.3 2502.1 5131.5 2739.9 4894.7 2911.9 4804.3 3190.3 4567.5 3018.3"/>
<path transform="matrix(.1,0,0,-.1,0,792)" stroke-width="1" stroke-linecap="butt" stroke-miterlimit="10" stroke-linejoin="miter" fill="none" stroke="#000000" d="M4274.8 3018.3 4399.8 2633.5 4692.5 2846.2 4804.3 2502.1 5131.5 2739.9 4894.7 2911.9 4804.3 3190.3 4567.5 3018.3Z"/>
<path transform="matrix(.1,0,0,-.1,0,792)" d="M4274.8 3575H4679.3L4602 3812.8 4399.8 3959.7Z"/>
<path transform="matrix(.1,0,0,-.1,0,792)" stroke-width="1" stroke-linecap="butt" stroke-miterlimit="10" stroke-linejoin="miter" fill="none" stroke="#000000" d="M4274.8 3575H4679.3L4602 3812.8 4399.8 3959.7Z"/>
<path transform="matrix(.1,0,0,-.1,0,792)" d="M4274.8 4820 4399.8 4435.3 4602 4582.2 4679.3 4820Z"/>
<path transform="matrix(.1,0,0,-.1,0,792)" stroke-width="1" stroke-linecap="butt" stroke-miterlimit="10" stroke-linejoin="miter" fill="none" stroke="#000000" d="M4274.8 4820 4399.8 4435.3 4602 4582.2 4679.3 4820Z"/>
<path transform="matrix(.1,0,0,-.1,0,792)" d="M4274.8 5376.7H4567.5L4804.3 5204.7 4894.7 5483.1 5131.5 5655.1 4804.3 5892.9 4692.5 5548.8 4399.8 5761.4"/>
<path transform="matrix(.1,0,0,-.1,0,792)" stroke-width="1" stroke-linecap="butt" stroke-miterlimit="10" stroke-linejoin="miter" fill="none" stroke="#000000" d="M4274.8 5376.7H4567.5L4804.3 5204.7 4894.7 5483.1 5131.5 5655.1 4804.3 5892.9 4692.5 5548.8 4399.8 5761.4Z"/>
<path transform="matrix(.1,0,0,-.1,0,792)" d="M1954.5 2395.8 1717.7 2223.7 1627.2 1945.4 1954.5 1707.6 2281.8 1945.4 2191.3 2223.7" fill="#b0914d"/>
<path transform="matrix(.1,0,0,-.1,0,792)" stroke-width="1" stroke-linecap="butt" stroke-miterlimit="10" stroke-linejoin="miter" fill="none" stroke="#000000" d="M1954.5 2395.8 1717.7 2223.7 1627.2 1945.4 1954.5 1707.6 2281.8 1945.4 2191.3 2223.7Z"/>
<path transform="matrix(.1,0,0,-.1,0,792)" d="M1954.5 2395.8 1627.2 2633.5 1515.4 2289.4 1222.7 2502.1 1097.7 2117.4H1390.4L1627.2 1945.4 1717.7 2223.7"/>
<path transform="matrix(.1,0,0,-.1,0,792)" stroke-width="1" stroke-linecap="butt" stroke-miterlimit="10" stroke-linejoin="miter" fill="none" stroke="#000000" d="M1954.5 2395.8 1627.2 2633.5 1515.4 2289.4 1222.7 2502.1 1097.7 2117.4H1390.4L1627.2 1945.4 1717.7 2223.7Z"/>
<path transform="matrix(.1,0,0,-.1,0,792)" d="M4072.5 2395.8 4309.3 2223.7 4399.8 1945.4 4636.6 2117.4H4929.3L4804.3 2502.1 4511.6 2289.4 4399.8 2633.5"/>
<path transform="matrix(.1,0,0,-.1,0,792)" stroke-width="1" stroke-linecap="butt" stroke-miterlimit="10" stroke-linejoin="miter" fill="none" stroke="#000000" d="M4072.5 2395.8 4309.3 2223.7 4399.8 1945.4 4636.6 2117.4H4929.3L4804.3 2502.1 4511.6 2289.4 4399.8 2633.5Z"/>
<path transform="matrix(.1,0,0,-.1,0,792)" d="M4072.5 2395.8 3835.7 2223.7 3745.3 1945.4 4072.5 1707.6 4399.8 1945.4 4309.3 2223.7" fill="#b0914d"/>
<path transform="matrix(.1,0,0,-.1,0,792)" stroke-width="1" stroke-linecap="butt" stroke-miterlimit="10" stroke-linejoin="miter" fill="none" stroke="#000000" d="M4072.5 2395.8 3835.7 2223.7 3745.3 1945.4 4072.5 1707.6 4399.8 1945.4 4309.3 2223.7Z"/>
<path transform="matrix(.1,0,0,-.1,0,792)" d="M1627.2 5761.4 1515.4 6105.5 1222.7 5892.9 1334.5 5548.8Z" fill="#b0914d"/>
<path transform="matrix(.1,0,0,-.1,0,792)" stroke-width="1" stroke-linecap="butt" stroke-miterlimit="10" stroke-linejoin="miter" fill="none" stroke="#000000" d="M1627.2 5761.4 1515.4 6105.5 1222.7 5892.9 1334.5 5548.8Z"/>
<path transform="matrix(.1,0,0,-.1,0,792)" d="M1627.2 4435.3 1425 4582.2 1347.7 4820H1097.7L895.5 4966.9 693.199 4820H443.199L366 4582.2 163.699 4435.3 241 4197.5 163.699 3959.7 366 3812.8 443.199 3575H693.199L895.5 3428.1 1097.7 3575H1347.7L1425 3812.8 1627.2 3959.7 1550 4197.5" fill="#b0914d"/>
<path transform="matrix(.1,0,0,-.1,0,792)" stroke-width="1" stroke-linecap="butt" stroke-miterlimit="10" stroke-linejoin="miter" fill="none" stroke="#000000" d="M1627.2 4435.3 1425 4582.2 1347.7 4820H1097.7L895.5 4966.9 693.199 4820H443.199L366 4582.2 163.699 4435.3 241 4197.5 163.699 3959.7 366 3812.8 443.199 3575H693.199L895.5 3428.1 1097.7 3575H1347.7L1425 3812.8 1627.2 3959.7 1550 4197.5Z"/>
<path transform="matrix(.1,0,0,-.1,0,792)" d="M1627.2 2633.5 1334.5 2846.2 1222.7 2502.1 1515.4 2289.4Z" fill="#b0914d"/>
<path transform="matrix(.1,0,0,-.1,0,792)" stroke-width="1" stroke-linecap="butt" stroke-miterlimit="10" stroke-linejoin="miter" fill="none" stroke="#000000" d="M1627.2 2633.5 1334.5 2846.2 1222.7 2502.1 1515.4 2289.4Z"/>
<path transform="matrix(.1,0,0,-.1,0,792)" d="M4399.8 2633.5 4511.6 2289.4 4804.3 2502.1 4692.5 2846.2Z" fill="#b0914d"/>
<path transform="matrix(.1,0,0,-.1,0,792)" stroke-width="1" stroke-linecap="butt" stroke-miterlimit="10" stroke-linejoin="miter" fill="none" stroke="#000000" d="M4399.8 2633.5 4511.6 2289.4 4804.3 2502.1 4692.5 2846.2Z"/>
<path transform="matrix(.1,0,0,-.1,0,792)" d="M4399.8 3959.7 4602 3812.8 4679.3 3575H4929.3L5131.5 3428.1 5333.8 3575H5583.8L5661.1 3812.8 5863.3 3959.7 5786.1 4197.5 5863.3 4435.3 5661.1 4582.2 5583.8 4820H5333.8L5131.5 4966.9 4929.3 4820H4679.3L4602 4582.2 4399.8 4435.3 4477 4197.5" fill="#b0914d"/>
<path transform="matrix(.1,0,0,-.1,0,792)" stroke-width="1" stroke-linecap="butt" stroke-miterlimit="10" stroke-linejoin="miter" fill="none" stroke="#000000" d="M4399.8 3959.7 4602 3812.8 4679.3 3575H4929.3L5131.5 3428.1 5333.8 3575H5583.8L5661.1 3812.8 5863.3 3959.7 5786.1 4197.5 5863.3 4435.3 5661.1 4582.2 5583.8 4820H5333.8L5131.5 4966.9 4929.3 4820H4679.3L4602 4582.2 4399.8 4435.3 4477 4197.5Z"/>
<path transform="matrix(.1,0,0,-.1,0,792)" d="M4399.8 5761.4 4692.5 5548.8 4804.3 5892.9 4511.6 6105.5Z" fill="#b0914d"/>
<path transform="matrix(.1,0,0,-.1,0,792)" stroke-width="1" stroke-linecap="butt" stroke-miterlimit="10" stroke-linejoin="miter" fill="none" stroke="#000000" d="M4399.8 5761.4 4692.5 5548.8 4804.3 5892.9 4511.6 6105.5Z"/>
<path transform="matrix(.1,0,0,-.1,0,792)" d="M3508.5 6277.6 3745.3 6449.6 3620.3 6834.3H3215.8L3125.3 6556 3215.8 6277.6" fill="#b0914d"/>
<path transform="matrix(.1,0,0,-.1,0,792)" stroke-width="1" stroke-linecap="butt" stroke-miterlimit="10" stroke-linejoin="miter" fill="none" stroke="#000000" d="M3508.5 6277.6 3745.3 6449.6 3620.3 6834.3H3215.8L3125.3 6556 3215.8 6277.6Z"/>
<path transform="matrix(.1,0,0,-.1,0,792)" d="M3215.8 6277.6 3125.3 6556 3215.8 6834.3H2811.3L2901.7 6556 2811.3 6277.6"/>
<path transform="matrix(.1,0,0,-.1,0,792)" stroke-width="1" stroke-linecap="butt" stroke-miterlimit="10" stroke-linejoin="miter" fill="none" stroke="#000000" d="M3215.8 6277.6 3125.3 6556 3215.8 6834.3H2811.3L2901.7 6556 2811.3 6277.6Z"/>
<path transform="matrix(.1,0,0,-.1,0,792)" d="M2811.3 6277.6 2901.7 6556 2811.3 6834.3H2406.8L2281.8 6449.6 2518.6 6277.6" fill="#b0914d"/>
<path transform="matrix(.1,0,0,-.1,0,792)" stroke-width="1" stroke-linecap="butt" stroke-miterlimit="10" stroke-linejoin="miter" fill="none" stroke="#000000" d="M2811.3 6277.6 2901.7 6556 2811.3 6834.3H2406.8L2281.8 6449.6 2518.6 6277.6Z"/>
<path transform="matrix(.1,0,0,-.1,0,792)" d="M2518.6 2117.4 2281.8 1945.4 2406.8 1560.6H2811.3L2901.7 1839 2811.3 2117.4" fill="#b0914d"/>
<path transform="matrix(.1,0,0,-.1,0,792)" stroke-width="1" stroke-linecap="butt" stroke-miterlimit="10" stroke-linejoin="miter" fill="none" stroke="#000000" d="M2518.6 2117.4 2281.8 1945.4 2406.8 1560.6H2811.3L2901.7 1839 2811.3 2117.4Z"/>
<path transform="matrix(.1,0,0,-.1,0,792)" d="M2811.3 2117.4 2901.7 1839 2811.3 1560.6H3215.8L3125.3 1839 3215.8 2117.4"/>
<path transform="matrix(.1,0,0,-.1,0,792)" stroke-width="1" stroke-linecap="butt" stroke-miterlimit="10" stroke-linejoin="miter" fill="none" stroke="#000000" d="M2811.3 2117.4 2901.7 1839 2811.3 1560.6H3215.8L3125.3 1839 3215.8 2117.4Z"/>
<path transform="matrix(.1,0,0,-.1,0,792)" d="M3215.8 2117.4 3125.3 1839 3215.8 1560.6H3620.3L3745.3 1945.4 3508.5 2117.4" fill="#b0914d"/>
<path transform="matrix(.1,0,0,-.1,0,792)" stroke-width="1" stroke-linecap="butt" stroke-miterlimit="10" stroke-linejoin="miter" fill="none" stroke="#000000" d="M3215.8 2117.4 3125.3 1839 3215.8 1560.6H3620.3L3745.3 1945.4 3508.5 2117.4Z"/>
<path transform="matrix(.1,0,0,-.1,0,792)" d="M1390.4 6277.6 1627.2 6449.6 1502.2 6834.3H1097.7L1007.3 6556 1097.7 6277.6" fill="#b0914d"/>
<path transform="matrix(.1,0,0,-.1,0,792)" stroke-width="1" stroke-linecap="butt" stroke-miterlimit="10" stroke-linejoin="miter" fill="none" stroke="#000000" d="M1390.4 6277.6 1627.2 6449.6 1502.2 6834.3H1097.7L1007.3 6556 1097.7 6277.6Z"/>
<path transform="matrix(.1,0,0,-.1,0,792)" d="M1390.4 2117.4H1097.7L1007.3 1839 1097.7 1560.6H1502.2L1627.2 1945.4" fill="#b0914d"/>
<path transform="matrix(.1,0,0,-.1,0,792)" stroke-width="1" stroke-linecap="butt" stroke-miterlimit="10" stroke-linejoin="miter" fill="none" stroke="#000000" d="M1390.4 2117.4H1097.7L1007.3 1839 1097.7 1560.6H1502.2L1627.2 1945.4Z"/>
<path transform="matrix(.1,0,0,-.1,0,792)" d="M4399.8 6449.6 4524.8 6834.3H4274.8L4072.5 6687.4Z"/>
<path transform="matrix(.1,0,0,-.1,0,792)" stroke-width="1" stroke-linecap="butt" stroke-miterlimit="10" stroke-linejoin="miter" fill="none" stroke="#000000" d="M4399.8 6449.6 4524.8 6834.3H4274.8L4072.5 6687.4Z"/>
<path transform="matrix(.1,0,0,-.1,0,792)" d="M4399.8 6449.6 4636.6 6277.6H4929.3L5019.7 6556 4929.3 6834.3H4524.8" fill="#b0914d"/>
<path transform="matrix(.1,0,0,-.1,0,792)" stroke-width="1" stroke-linecap="butt" stroke-miterlimit="10" stroke-linejoin="miter" fill="none" stroke="#000000" d="M4399.8 6449.6 4636.6 6277.6H4929.3L5019.7 6556 4929.3 6834.3H4524.8Z"/>
<path transform="matrix(.1,0,0,-.1,0,792)" d="M3745.3 6449.6 4072.5 6687.4 3870.3 6834.3H3620.3Z"/>
<path transform="matrix(.1,0,0,-.1,0,792)" stroke-width="1" stroke-linecap="butt" stroke-miterlimit="10" stroke-linejoin="miter" fill="none" stroke="#000000" d="M3745.3 6449.6 4072.5 6687.4 3870.3 6834.3H3620.3Z"/>
<path transform="matrix(.1,0,0,-.1,0,792)" d="M2281.8 6449.6 2406.8 6834.3H2156.8L1954.5 6687.4Z"/>
<path transform="matrix(.1,0,0,-.1,0,792)" stroke-width="1" stroke-linecap="butt" stroke-miterlimit="10" stroke-linejoin="miter" fill="none" stroke="#000000" d="M2281.8 6449.6 2406.8 6834.3H2156.8L1954.5 6687.4Z"/>
<path transform="matrix(.1,0,0,-.1,0,792)" d="M1627.2 6449.6 1954.5 6687.4 1752.2 6834.3H1502.2Z"/>
<path transform="matrix(.1,0,0,-.1,0,792)" stroke-width="1" stroke-linecap="butt" stroke-miterlimit="10" stroke-linejoin="miter" fill="none" stroke="#000000" d="M1627.2 6449.6 1954.5 6687.4 1752.2 6834.3H1502.2Z"/>
<path transform="matrix(.1,0,0,-.1,0,792)" d="M1347.7 4820 1222.7 5204.7 895.5 4966.9 1097.7 4820Z"/>
<path transform="matrix(.1,0,0,-.1,0,792)" stroke-width="1" stroke-linecap="butt" stroke-miterlimit="10" stroke-linejoin="miter" fill="none" stroke="#000000" d="M1347.7 4820 1222.7 5204.7 895.5 4966.9 1097.7 4820Z"/>
<path transform="matrix(.1,0,0,-.1,0,792)" d="M1347.7 3575H1097.7L895.5 3428.1 1222.7 3190.3Z"/>
<path transform="matrix(.1,0,0,-.1,0,792)" stroke-width="1" stroke-linecap="butt" stroke-miterlimit="10" stroke-linejoin="miter" fill="none" stroke="#000000" d="M1347.7 3575H1097.7L895.5 3428.1 1222.7 3190.3Z"/>
<path transform="matrix(.1,0,0,-.1,0,792)" d="M1627.2 1945.4 1502.2 1560.6H1752.2L1954.5 1707.6Z"/>
<path transform="matrix(.1,0,0,-.1,0,792)" stroke-width="1" stroke-linecap="butt" stroke-miterlimit="10" stroke-linejoin="miter" fill="none" stroke="#000000" d="M1627.2 1945.4 1502.2 1560.6H1752.2L1954.5 1707.6Z"/>
<path transform="matrix(.1,0,0,-.1,0,792)" d="M2281.8 1945.4 1954.5 1707.6 2156.8 1560.6H2406.8Z"/>
<path transform="matrix(.1,0,0,-.1,0,792)" stroke-width="1" stroke-linecap="butt" stroke-miterlimit="10" stroke-linejoin="miter" fill="none" stroke="#000000" d="M2281.8 1945.4 1954.5 1707.6 2156.8 1560.6H2406.8Z"/>
<path transform="matrix(.1,0,0,-.1,0,792)" d="M3745.3 1945.4 3620.3 1560.6H3870.3L4072.5 1707.6Z"/>
<path transform="matrix(.1,0,0,-.1,0,792)" stroke-width="1" stroke-linecap="butt" stroke-miterlimit="10" stroke-linejoin="miter" fill="none" stroke="#000000" d="M3745.3 1945.4 3620.3 1560.6H3870.3L4072.5 1707.6Z"/>
<path transform="matrix(.1,0,0,-.1,0,792)" d="M4399.8 1945.4 4524.8 1560.6H4929.3L5019.7 1839 4929.3 2117.4H4636.6" fill="#b0914d"/>
<path transform="matrix(.1,0,0,-.1,0,792)" stroke-width="1" stroke-linecap="butt" stroke-miterlimit="10" stroke-linejoin="miter" fill="none" stroke="#000000" d="M4399.8 1945.4 4524.8 1560.6H4929.3L5019.7 1839 4929.3 2117.4H4636.6Z"/>
<path transform="matrix(.1,0,0,-.1,0,792)" d="M4399.8 1945.4 4072.5 1707.6 4274.8 1560.6H4524.8Z"/>
<path transform="matrix(.1,0,0,-.1,0,792)" stroke-width="1" stroke-linecap="butt" stroke-miterlimit="10" stroke-linejoin="miter" fill="none" stroke="#000000" d="M4399.8 1945.4 4072.5 1707.6 4274.8 1560.6H4524.8Z"/>
<path transform="matrix(.1,0,0,-.1,0,792)" d="M4679.3 3575 4804.3 3190.3 5131.5 3428.1 4929.3 3575Z"/>
<path transform="matrix(.1,0,0,-.1,0,792)" stroke-width="1" stroke-linecap="butt" stroke-miterlimit="10" stroke-linejoin="miter" fill="none" stroke="#000000" d="M4679.3 3575 4804.3 3190.3 5131.5 3428.1 4929.3 3575Z"/>
<path transform="matrix(.1,0,0,-.1,0,792)" d="M4679.3 4820H4929.3L5131.5 4966.9 4804.3 5204.7Z"/>
<path transform="matrix(.1,0,0,-.1,0,792)" stroke-width="1" stroke-linecap="butt" stroke-miterlimit="10" stroke-linejoin="miter" fill="none" stroke="#000000" d="M4679.3 4820H4929.3L5131.5 4966.9 4804.3 5204.7Z"/>
<path transform="matrix(.1,0,0,-.1,0,792)" d="M1222.7 5892.9 1097.7 6277.6H693.199L568.199 5892.9 895.5 5655.1" fill="#b0914d"/>
<path transform="matrix(.1,0,0,-.1,0,792)" stroke-width="1" stroke-linecap="butt" stroke-miterlimit="10" stroke-linejoin="miter" fill="none" stroke="#000000" d="M1222.7 5892.9 1097.7 6277.6H693.199L568.199 5892.9 895.5 5655.1Z"/>
<path transform="matrix(.1,0,0,-.1,0,792)" d="M1222.7 5204.7 1132.3 5483.1 895.5 5655.1 658.699 5483.1 568.199 5204.7 895.5 4966.9" fill="#b0914d"/>
<path transform="matrix(.1,0,0,-.1,0,792)" stroke-width="1" stroke-linecap="butt" stroke-miterlimit="10" stroke-linejoin="miter" fill="none" stroke="#000000" d="M1222.7 5204.7 1132.3 5483.1 895.5 5655.1 658.699 5483.1 568.199 5204.7 895.5 4966.9Z"/>
<path transform="matrix(.1,0,0,-.1,0,792)" d="M1222.7 3190.3 895.5 3428.1 568.199 3190.3 658.699 2911.9 895.5 2739.9 1132.3 2911.9" fill="#b0914d"/>
<path transform="matrix(.1,0,0,-.1,0,792)" stroke-width="1" stroke-linecap="butt" stroke-miterlimit="10" stroke-linejoin="miter" fill="none" stroke="#000000" d="M1222.7 3190.3 895.5 3428.1 568.199 3190.3 658.699 2911.9 895.5 2739.9 1132.3 2911.9Z"/>
<path transform="matrix(.1,0,0,-.1,0,792)" d="M1222.7 2502.1 895.5 2739.9 568.199 2502.1 693.199 2117.4H1097.7" fill="#b0914d"/>
<path transform="matrix(.1,0,0,-.1,0,792)" stroke-width="1" stroke-linecap="butt" stroke-miterlimit="10" stroke-linejoin="miter" fill="none" stroke="#000000" d="M1222.7 2502.1 895.5 2739.9 568.199 2502.1 693.199 2117.4H1097.7Z"/>
<path transform="matrix(.1,0,0,-.1,0,792)" d="M4072.5 6687.4 4274.8 6834.3H4524.8L4602 7072.1 4804.3 7219 4727 7456.8 4804.3 7694.6 4602 7841.5 4524.8 8079.3H4274.8L4072.5 8226.2 3870.3 8079.3H3620.3L3543 7841.5 3340.8 7694.6 3418 7456.8 3340.8 7219 3543 7072.1 3620.3 6834.3H3870.3" fill="#b0914d"/>
<path transform="matrix(.1,0,0,-.1,0,792)" stroke-width="1" stroke-linecap="butt" stroke-miterlimit="10" stroke-linejoin="miter" fill="none" stroke="#000000" d="M4072.5 6687.4 4274.8 6834.3H4524.8L4602 7072.1 4804.3 7219 4727 7456.8 4804.3 7694.6 4602 7841.5 4524.8 8079.3H4274.8L4072.5 8226.2 3870.3 8079.3H3620.3L3543 7841.5 3340.8 7694.6 3418 7456.8 3340.8 7219 3543 7072.1 3620.3 6834.3H3870.3Z"/>
<path transform="matrix(.1,0,0,-.1,0,792)" d="M1954.5 6687.4 2156.8 6834.3H2406.8L2484 7072.1 2686.3 7219 2609 7456.8 2686.3 7694.6 2484 7841.5 2406.8 8079.3H2156.8L1954.5 8226.2 1752.2 8079.3H1502.2L1425 7841.5 1222.7 7694.6 1300 7456.8 1222.7 7219 1425 7072.1 1502.2 6834.3H1752.2" fill="#b0914d"/>
<path transform="matrix(.1,0,0,-.1,0,792)" stroke-width="1" stroke-linecap="butt" stroke-miterlimit="10" stroke-linejoin="miter" fill="none" stroke="#000000" d="M1954.5 6687.4 2156.8 6834.3H2406.8L2484 7072.1 2686.3 7219 2609 7456.8 2686.3 7694.6 2484 7841.5 2406.8 8079.3H2156.8L1954.5 8226.2 1752.2 8079.3H1502.2L1425 7841.5 1222.7 7694.6 1300 7456.8 1222.7 7219 1425 7072.1 1502.2 6834.3H1752.2Z"/>
<path transform="matrix(.1,0,0,-.1,0,792)" d="M1954.5 1707.6 1752.2 1560.6H1502.2L1425 1322.9 1222.7 1175.9 1300 938.199 1222.7 700.398 1425 553.5 1502.2 315.699H1752.2L1954.5 168.699 2156.8 315.699H2406.8L2484 553.5 2686.3 700.398 2609 938.199 2686.3 1175.9 2484 1322.9 2406.8 1560.6H2156.8" fill="#b0914d"/>
<path transform="matrix(.1,0,0,-.1,0,792)" stroke-width="1" stroke-linecap="butt" stroke-miterlimit="10" stroke-linejoin="miter" fill="none" stroke="#000000" d="M1954.5 1707.6 1752.2 1560.6H1502.2L1425 1322.9 1222.7 1175.9 1300 938.199 1222.7 700.398 1425 553.5 1502.2 315.699H1752.2L1954.5 168.699 2156.8 315.699H2406.8L2484 553.5 2686.3 700.398 2609 938.199 2686.3 1175.9 2484 1322.9 2406.8 1560.6H2156.8Z"/>
<path transform="matrix(.1,0,0,-.1,0,792)" d="M4072.5 1707.6 3870.3 1560.6H3620.3L3543 1322.9 3340.8 1175.9 3418 938.199 3340.8 700.398 3543 553.5 3620.3 315.699H3870.3L4072.5 168.699 4274.8 315.699H4524.8L4602 553.5 4804.3 700.398 4727 938.199 4804.3 1175.9 4602 1322.9 4524.8 1560.6H4274.8" fill="#b0914d"/>
<path transform="matrix(.1,0,0,-.1,0,792)" stroke-width="1" stroke-linecap="butt" stroke-miterlimit="10" stroke-linejoin="miter" fill="none" stroke="#000000" d="M4072.5 1707.6 3870.3 1560.6H3620.3L3543 1322.9 3340.8 1175.9 3418 938.199 3340.8 700.398 3543 553.5 3620.3 315.699H3870.3L4072.5 168.699 4274.8 315.699H4524.8L4602 553.5 4804.3 700.398 4727 938.199 4804.3 1175.9 4602 1322.9 4524.8 1560.6H4274.8Z"/>
<path transform="matrix(.1,0,0,-.1,0,792)" d="M4804.3 2502.1 4929.3 2117.4H5333.8L5458.8 2502.1 5131.5 2739.9" fill="#b0914d"/>
<path transform="matrix(.1,0,0,-.1,0,792)" stroke-width="1" stroke-linecap="butt" stroke-miterlimit="10" stroke-linejoin="miter" fill="none" stroke="#000000" d="M4804.3 2502.1 4929.3 2117.4H5333.8L5458.8 2502.1 5131.5 2739.9Z"/>
<path transform="matrix(.1,0,0,-.1,0,792)" d="M4804.3 3190.3 4894.7 2911.9 5131.5 2739.9 5368.4 2911.9 5458.8 3190.3 5131.5 3428.1" fill="#b0914d"/>
<path transform="matrix(.1,0,0,-.1,0,792)" stroke-width="1" stroke-linecap="butt" stroke-miterlimit="10" stroke-linejoin="miter" fill="none" stroke="#000000" d="M4804.3 3190.3 4894.7 2911.9 5131.5 2739.9 5368.4 2911.9 5458.8 3190.3 5131.5 3428.1Z"/>
<path transform="matrix(.1,0,0,-.1,0,792)" d="M4804.3 5204.7 5131.5 4966.9 5458.8 5204.7 5368.4 5483.1 5131.5 5655.1 4894.7 5483.1" fill="#b0914d"/>
<path transform="matrix(.1,0,0,-.1,0,792)" stroke-width="1" stroke-linecap="butt" stroke-miterlimit="10" stroke-linejoin="miter" fill="none" stroke="#000000" d="M4804.3 5204.7 5131.5 4966.9 5458.8 5204.7 5368.4 5483.1 5131.5 5655.1 4894.7 5483.1Z"/>
<path transform="matrix(.1,0,0,-.1,0,792)" d="M4804.3 5892.9 5131.5 5655.1 5458.8 5892.9 5333.8 6277.6H4929.3" fill="#b0914d"/>
<path transform="matrix(.1,0,0,-.1,0,792)" stroke-width="1" stroke-linecap="butt" stroke-miterlimit="10" stroke-linejoin="miter" fill="none" stroke="#000000" d="M4804.3 5892.9 5131.5 5655.1 5458.8 5892.9 5333.8 6277.6H4929.3Z"/>
<path transform="matrix(.1,0,0,-.1,0,792)" d="M1097.7 6277.6 1007.3 6556 1097.7 6834.3H693.199L783.699 6556 693.199 6277.6"/>
<path transform="matrix(.1,0,0,-.1,0,792)" stroke-width="1" stroke-linecap="butt" stroke-miterlimit="10" stroke-linejoin="miter" fill="none" stroke="#000000" d="M1097.7 6277.6 1007.3 6556 1097.7 6834.3H693.199L783.699 6556 693.199 6277.6Z"/>
<path transform="matrix(.1,0,0,-.1,0,792)" d="M1097.7 2117.4H693.199L783.699 1839 693.199 1560.6H1097.7L1007.3 1839"/>
<path transform="matrix(.1,0,0,-.1,0,792)" stroke-width="1" stroke-linecap="butt" stroke-miterlimit="10" stroke-linejoin="miter" fill="none" stroke="#000000" d="M1097.7 2117.4H693.199L783.699 1839 693.199 1560.6H1097.7L1007.3 1839Z"/>
<path transform="matrix(.1,0,0,-.1,0,792)" d="M4524.8 6834.3H4929.3L4804.3 7219 4602 7072.1Z"/>
<path transform="matrix(.1,0,0,-.1,0,792)" stroke-width="1" stroke-linecap="butt" stroke-miterlimit="10" stroke-linejoin="miter" fill="none" stroke="#000000" d="M4524.8 6834.3H4929.3L4804.3 7219 4602 7072.1Z"/>
<path transform="matrix(.1,0,0,-.1,0,792)" d="M3620.3 6834.3 3543 7072.1 3340.8 7219 3215.8 6834.3Z"/>
<path transform="matrix(.1,0,0,-.1,0,792)" stroke-width="1" stroke-linecap="butt" stroke-miterlimit="10" stroke-linejoin="miter" fill="none" stroke="#000000" d="M3620.3 6834.3 3543 7072.1 3340.8 7219 3215.8 6834.3Z"/>
<path transform="matrix(.1,0,0,-.1,0,792)" d="M3215.8 6834.3 3340.8 7219 3013.5 7456.8 2686.3 7219 2811.3 6834.3" fill="#b0914d"/>
<path transform="matrix(.1,0,0,-.1,0,792)" stroke-width="1" stroke-linecap="butt" stroke-miterlimit="10" stroke-linejoin="miter" fill="none" stroke="#000000" d="M3215.8 6834.3 3340.8 7219 3013.5 7456.8 2686.3 7219 2811.3 6834.3Z"/>
<path transform="matrix(.1,0,0,-.1,0,792)" d="M2811.3 6834.3 2686.3 7219 2484 7072.1 2406.8 6834.3Z"/>
<path transform="matrix(.1,0,0,-.1,0,792)" stroke-width="1" stroke-linecap="butt" stroke-miterlimit="10" stroke-linejoin="miter" fill="none" stroke="#000000" d="M2811.3 6834.3 2686.3 7219 2484 7072.1 2406.8 6834.3Z"/>
<path transform="matrix(.1,0,0,-.1,0,792)" d="M1502.2 6834.3 1425 7072.1 1222.7 7219 1097.7 6834.3Z"/>
<path transform="matrix(.1,0,0,-.1,0,792)" stroke-width="1" stroke-linecap="butt" stroke-miterlimit="10" stroke-linejoin="miter" fill="none" stroke="#000000" d="M1502.2 6834.3 1425 7072.1 1222.7 7219 1097.7 6834.3Z"/>
<path transform="matrix(.1,0,0,-.1,0,792)" d="M1097.7 6834.3 1222.7 7219 895.5 7456.8 568.199 7219 693.199 6834.3" fill="#b0914d"/>
<path transform="matrix(.1,0,0,-.1,0,792)" stroke-width="1" stroke-linecap="butt" stroke-miterlimit="10" stroke-linejoin="miter" fill="none" stroke="#000000" d="M1097.7 6834.3 1222.7 7219 895.5 7456.8 568.199 7219 693.199 6834.3Z"/>
<path transform="matrix(.1,0,0,-.1,0,792)" d="M1097.7 1560.6 1222.7 1175.9 1425 1322.9 1502.2 1560.6Z"/>
<path transform="matrix(.1,0,0,-.1,0,792)" stroke-width="1" stroke-linecap="butt" stroke-miterlimit="10" stroke-linejoin="miter" fill="none" stroke="#000000" d="M1097.7 1560.6 1222.7 1175.9 1425 1322.9 1502.2 1560.6Z"/>
<path transform="matrix(.1,0,0,-.1,0,792)" d="M1097.7 1560.6H693.199L568.199 1175.9 895.5 938.199 1222.7 1175.9" fill="#b0914d"/>
<path transform="matrix(.1,0,0,-.1,0,792)" stroke-width="1" stroke-linecap="butt" stroke-miterlimit="10" stroke-linejoin="miter" fill="none" stroke="#000000" d="M1097.7 1560.6H693.199L568.199 1175.9 895.5 938.199 1222.7 1175.9Z"/>
<path transform="matrix(.1,0,0,-.1,0,792)" d="M2406.8 1560.6 2484 1322.9 2686.3 1175.9 2811.3 1560.6Z"/>
<path transform="matrix(.1,0,0,-.1,0,792)" stroke-width="1" stroke-linecap="butt" stroke-miterlimit="10" stroke-linejoin="miter" fill="none" stroke="#000000" d="M2406.8 1560.6 2484 1322.9 2686.3 1175.9 2811.3 1560.6Z"/>
<path transform="matrix(.1,0,0,-.1,0,792)" d="M2811.3 1560.6 2686.3 1175.9 3013.5 938.199 3340.8 1175.9 3215.8 1560.6" fill="#b0914d"/>
<path transform="matrix(.1,0,0,-.1,0,792)" stroke-width="1" stroke-linecap="butt" stroke-miterlimit="10" stroke-linejoin="miter" fill="none" stroke="#000000" d="M2811.3 1560.6 2686.3 1175.9 3013.5 938.199 3340.8 1175.9 3215.8 1560.6Z"/>
<path transform="matrix(.1,0,0,-.1,0,792)" d="M3215.8 1560.6 3340.8 1175.9 3543 1322.9 3620.3 1560.6Z"/>
<path transform="matrix(.1,0,0,-.1,0,792)" stroke-width="1" stroke-linecap="butt" stroke-miterlimit="10" stroke-linejoin="miter" fill="none" stroke="#000000" d="M3215.8 1560.6 3340.8 1175.9 3543 1322.9 3620.3 1560.6Z"/>
<path transform="matrix(.1,0,0,-.1,0,792)" d="M4524.8 1560.6 4602 1322.9 4804.3 1175.9 4929.3 1560.6Z"/>
<path transform="matrix(.1,0,0,-.1,0,792)" stroke-width="1" stroke-linecap="butt" stroke-miterlimit="10" stroke-linejoin="miter" fill="none" stroke="#000000" d="M4524.8 1560.6 4602 1322.9 4804.3 1175.9 4929.3 1560.6Z"/>
<path transform="matrix(.1,0,0,-.1,0,792)" d="M4929.3 1560.6H5333.8L5243.4 1839 5333.8 2117.4H4929.3L5019.7 1839"/>
<path transform="matrix(.1,0,0,-.1,0,792)" stroke-width="1" stroke-linecap="butt" stroke-miterlimit="10" stroke-linejoin="miter" fill="none" stroke="#000000" d="M4929.3 1560.6H5333.8L5243.4 1839 5333.8 2117.4H4929.3L5019.7 1839Z"/>
<path transform="matrix(.1,0,0,-.1,0,792)" d="M4929.3 1560.6 4804.3 1175.9 5131.5 938.199 5458.8 1175.9 5333.8 1560.6" fill="#b0914d"/>
<path transform="matrix(.1,0,0,-.1,0,792)" stroke-width="1" stroke-linecap="butt" stroke-miterlimit="10" stroke-linejoin="miter" fill="none" stroke="#000000" d="M4929.3 1560.6 4804.3 1175.9 5131.5 938.199 5458.8 1175.9 5333.8 1560.6Z"/>
<path transform="matrix(.1,0,0,-.1,0,792)" d="M4929.3 6277.6H5333.8L5243.4 6556 5333.8 6834.3H4929.3L5019.7 6556"/>
<path transform="matrix(.1,0,0,-.1,0,792)" stroke-width="1" stroke-linecap="butt" stroke-miterlimit="10" stroke-linejoin="miter" fill="none" stroke="#000000" d="M4929.3 6277.6H5333.8L5243.4 6556 5333.8 6834.3H4929.3L5019.7 6556Z"/>
<path transform="matrix(.1,0,0,-.1,0,792)" d="M4929.3 6834.3H5333.8L5458.8 7219 5131.5 7456.8 4804.3 7219" fill="#b0914d"/>
<path transform="matrix(.1,0,0,-.1,0,792)" stroke-width="1" stroke-linecap="butt" stroke-miterlimit="10" stroke-linejoin="miter" fill="none" stroke="#000000" d="M4929.3 6834.3H5333.8L5458.8 7219 5131.5 7456.8 4804.3 7219Z"/>
<path transform="matrix(.1,0,0,-.1,0,792)" d="M895.5 5655.1 568.199 5892.9 456.398 5548.8 163.699 5761.4 38.6992 5376.7H331.398L568.199 5204.7 658.699 5483.1"/>
<path transform="matrix(.1,0,0,-.1,0,792)" stroke-width="1" stroke-linecap="butt" stroke-miterlimit="10" stroke-linejoin="miter" fill="none" stroke="#000000" d="M895.5 5655.1 568.199 5892.9 456.398 5548.8 163.699 5761.4 38.6992 5376.7H331.398L568.199 5204.7 658.699 5483.1Z"/>
<path transform="matrix(.1,0,0,-.1,0,792)" d="M895.5 4966.9 568.199 5204.7 443.199 4820H693.199Z"/>
<path transform="matrix(.1,0,0,-.1,0,792)" stroke-width="1" stroke-linecap="butt" stroke-miterlimit="10" stroke-linejoin="miter" fill="none" stroke="#000000" d="M895.5 4966.9 568.199 5204.7 443.199 4820H693.199Z"/>
<path transform="matrix(.1,0,0,-.1,0,792)" d="M895.5 3428.1 693.199 3575H443.199L568.199 3190.3Z"/>
<path transform="matrix(.1,0,0,-.1,0,792)" stroke-width="1" stroke-linecap="butt" stroke-miterlimit="10" stroke-linejoin="miter" fill="none" stroke="#000000" d="M895.5 3428.1 693.199 3575H443.199L568.199 3190.3Z"/>
<path transform="matrix(.1,0,0,-.1,0,792)" d="M895.5 2739.9 658.699 2911.9 568.199 3190.3 331.398 3018.3H38.6992L163.699 2633.5 456.398 2846.2 568.199 2502.1"/>
<path transform="matrix(.1,0,0,-.1,0,792)" stroke-width="1" stroke-linecap="butt" stroke-miterlimit="10" stroke-linejoin="miter" fill="none" stroke="#000000" d="M895.5 2739.9 658.699 2911.9 568.199 3190.3 331.398 3018.3H38.6992L163.699 2633.5 456.398 2846.2 568.199 2502.1Z"/>
<path transform="matrix(.1,0,0,-.1,0,792)" d="M5131.5 2739.9 5458.8 2502.1 5570.6 2846.2 5863.3 2633.5 5988.3 3018.3H5695.6L5458.8 3190.3 5368.4 2911.9"/>
<path transform="matrix(.1,0,0,-.1,0,792)" stroke-width="1" stroke-linecap="butt" stroke-miterlimit="10" stroke-linejoin="miter" fill="none" stroke="#000000" d="M5131.5 2739.9 5458.8 2502.1 5570.6 2846.2 5863.3 2633.5 5988.3 3018.3H5695.6L5458.8 3190.3 5368.4 2911.9Z"/>
<path transform="matrix(.1,0,0,-.1,0,792)" d="M5131.5 3428.1 5458.8 3190.3 5583.8 3575H5333.8Z"/>
<path transform="matrix(.1,0,0,-.1,0,792)" stroke-width="1" stroke-linecap="butt" stroke-miterlimit="10" stroke-linejoin="miter" fill="none" stroke="#000000" d="M5131.5 3428.1 5458.8 3190.3 5583.8 3575H5333.8Z"/>
<path transform="matrix(.1,0,0,-.1,0,792)" d="M5131.5 4966.9 5333.8 4820H5583.8L5458.8 5204.7Z"/>
<path transform="matrix(.1,0,0,-.1,0,792)" stroke-width="1" stroke-linecap="butt" stroke-miterlimit="10" stroke-linejoin="miter" fill="none" stroke="#000000" d="M5131.5 4966.9 5333.8 4820H5583.8L5458.8 5204.7Z"/>
<path transform="matrix(.1,0,0,-.1,0,792)" d="M5131.5 5655.1 5368.4 5483.1 5458.8 5204.7 5695.6 5376.7H5988.3L5863.3 5761.4 5570.6 5548.8 5458.8 5892.9"/>
<path transform="matrix(.1,0,0,-.1,0,792)" stroke-width="1" stroke-linecap="butt" stroke-miterlimit="10" stroke-linejoin="miter" fill="none" stroke="#000000" d="M5131.5 5655.1 5368.4 5483.1 5458.8 5204.7 5695.6 5376.7H5988.3L5863.3 5761.4 5570.6 5548.8 5458.8 5892.9Z"/>
<path transform="matrix(.1,0,0,-.1,0,792)" d="M4804.3 7219 5131.5 7456.8 4804.3 7694.6 4727 7456.8Z"/>
<path transform="matrix(.1,0,0,-.1,0,792)" stroke-width="1" stroke-linecap="butt" stroke-miterlimit="10" stroke-linejoin="miter" fill="none" stroke="#000000" d="M4804.3 7219 5131.5 7456.8 4804.3 7694.6 4727 7456.8Z"/>
<path transform="matrix(.1,0,0,-.1,0,792)" d="M3340.8 7219 3418 7456.8 3340.8 7694.6 3013.5 7456.8Z"/>
<path transform="matrix(.1,0,0,-.1,0,792)" stroke-width="1" stroke-linecap="butt" stroke-miterlimit="10" stroke-linejoin="miter" fill="none" stroke="#000000" d="M3340.8 7219 3418 7456.8 3340.8 7694.6 3013.5 7456.8Z"/>
<path transform="matrix(.1,0,0,-.1,0,792)" d="M2686.3 7219 3013.5 7456.8 2686.3 7694.6 2609 7456.8Z"/>
<path transform="matrix(.1,0,0,-.1,0,792)" stroke-width="1" stroke-linecap="butt" stroke-miterlimit="10" stroke-linejoin="miter" fill="none" stroke="#000000" d="M2686.3 7219 3013.5 7456.8 2686.3 7694.6 2609 7456.8Z"/>
<path transform="matrix(.1,0,0,-.1,0,792)" d="M1222.7 7219 1300 7456.8 1222.7 7694.6 895.5 7456.8Z"/>
<path transform="matrix(.1,0,0,-.1,0,792)" stroke-width="1" stroke-linecap="butt" stroke-miterlimit="10" stroke-linejoin="miter" fill="none" stroke="#000000" d="M1222.7 7219 1300 7456.8 1222.7 7694.6 895.5 7456.8Z"/>
<path transform="matrix(.1,0,0,-.1,0,792)" d="M783.699 6556 693.199 6834.3H288.699L163.699 6449.6 400.5 6277.6H693.199" fill="#b0914d"/>
<path transform="matrix(.1,0,0,-.1,0,792)" stroke-width="1" stroke-linecap="butt" stroke-miterlimit="10" stroke-linejoin="miter" fill="none" stroke="#000000" d="M783.699 6556 693.199 6834.3H288.699L163.699 6449.6 400.5 6277.6H693.199Z"/>
<path transform="matrix(.1,0,0,-.1,0,792)" d="M783.699 1839 693.199 2117.4H400.5L163.699 1945.4 288.699 1560.6H693.199" fill="#b0914d"/>
<path transform="matrix(.1,0,0,-.1,0,792)" stroke-width="1" stroke-linecap="butt" stroke-miterlimit="10" stroke-linejoin="miter" fill="none" stroke="#000000" d="M783.699 1839 693.199 2117.4H400.5L163.699 1945.4 288.699 1560.6H693.199Z"/>
<path transform="matrix(.1,0,0,-.1,0,792)" d="M1222.7 1175.9 895.5 938.199 1222.7 700.398 1300 938.199Z"/>
<path transform="matrix(.1,0,0,-.1,0,792)" stroke-width="1" stroke-linecap="butt" stroke-miterlimit="10" stroke-linejoin="miter" fill="none" stroke="#000000" d="M1222.7 1175.9 895.5 938.199 1222.7 700.398 1300 938.199Z"/>
<path transform="matrix(.1,0,0,-.1,0,792)" d="M2686.3 1175.9 2609 938.199 2686.3 700.398 3013.5 938.199Z"/>
<path transform="matrix(.1,0,0,-.1,0,792)" stroke-width="1" stroke-linecap="butt" stroke-miterlimit="10" stroke-linejoin="miter" fill="none" stroke="#000000" d="M2686.3 1175.9 2609 938.199 2686.3 700.398 3013.5 938.199Z"/>
<path transform="matrix(.1,0,0,-.1,0,792)" d="M3340.8 1175.9 3013.5 938.199 3340.8 700.398 3418 938.199Z"/>
<path transform="matrix(.1,0,0,-.1,0,792)" stroke-width="1" stroke-linecap="butt" stroke-miterlimit="10" stroke-linejoin="miter" fill="none" stroke="#000000" d="M3340.8 1175.9 3013.5 938.199 3340.8 700.398 3418 938.199Z"/>
<path transform="matrix(.1,0,0,-.1,0,792)" d="M4804.3 1175.9 4727 938.199 4804.3 700.398 5131.5 938.199Z"/>
<path transform="matrix(.1,0,0,-.1,0,792)" stroke-width="1" stroke-linecap="butt" stroke-miterlimit="10" stroke-linejoin="miter" fill="none" stroke="#000000" d="M4804.3 1175.9 4727 938.199 4804.3 700.398 5131.5 938.199Z"/>
<path transform="matrix(.1,0,0,-.1,0,792)" d="M5243.4 1839 5333.8 1560.6H5738.3L5863.3 1945.4 5626.5 2117.4H5333.8" fill="#b0914d"/>
<path transform="matrix(.1,0,0,-.1,0,792)" stroke-width="1" stroke-linecap="butt" stroke-miterlimit="10" stroke-linejoin="miter" fill="none" stroke="#000000" d="M5243.4 1839 5333.8 1560.6H5738.3L5863.3 1945.4 5626.5 2117.4H5333.8Z"/>
<path transform="matrix(.1,0,0,-.1,0,792)" d="M5243.4 6556 5333.8 6277.6H5626.5L5863.3 6449.6 5738.3 6834.3H5333.8" fill="#b0914d"/>
<path transform="matrix(.1,0,0,-.1,0,792)" stroke-width="1" stroke-linecap="butt" stroke-miterlimit="10" stroke-linejoin="miter" fill="none" stroke="#000000" d="M5243.4 6556 5333.8 6277.6H5626.5L5863.3 6449.6 5738.3 6834.3H5333.8Z"/>
<path transform="matrix(.1,0,0,-.1,0,792)" d="M693.199 6834.3 568.199 7219 366 7072.1 288.699 6834.3Z"/>
<path transform="matrix(.1,0,0,-.1,0,792)" stroke-width="1" stroke-linecap="butt" stroke-miterlimit="10" stroke-linejoin="miter" fill="none" stroke="#000000" d="M693.199 6834.3 568.199 7219 366 7072.1 288.699 6834.3Z"/>
<path transform="matrix(.1,0,0,-.1,0,792)" d="M693.199 6277.6H400.5L163.699 6449.6 73.3008 6171.2-163.5 5999.2 163.699 5761.4 275.5 6105.5 568.199 5892.9"/>
<path transform="matrix(.1,0,0,-.1,0,792)" stroke-width="1" stroke-linecap="butt" stroke-miterlimit="10" stroke-linejoin="miter" fill="none" stroke="#000000" d="M693.199 6277.6H400.5L163.699 6449.6 73.3008 6171.2-163.5 5999.2 163.699 5761.4 275.5 6105.5 568.199 5892.9Z"/>
<path transform="matrix(.1,0,0,-.1,0,792)" d="M693.199 2117.4 568.199 2502.1 275.5 2289.4 163.699 2633.5-163.5 2395.8 73.3008 2223.7 163.699 1945.4 400.5 2117.4"/>
<path transform="matrix(.1,0,0,-.1,0,792)" stroke-width="1" stroke-linecap="butt" stroke-miterlimit="10" stroke-linejoin="miter" fill="none" stroke="#000000" d="M693.199 2117.4 568.199 2502.1 275.5 2289.4 163.699 2633.5-163.5 2395.8 73.3008 2223.7 163.699 1945.4 400.5 2117.4Z"/>
<path transform="matrix(.1,0,0,-.1,0,792)" d="M693.199 1560.6H288.699L366 1322.9 568.199 1175.9Z"/>
<path transform="matrix(.1,0,0,-.1,0,792)" stroke-width="1" stroke-linecap="butt" stroke-miterlimit="10" stroke-linejoin="miter" fill="none" stroke="#000000" d="M693.199 1560.6H288.699L366 1322.9 568.199 1175.9Z"/>
<path transform="matrix(.1,0,0,-.1,0,792)" d="M5131.5 7456.8 5458.8 7694.6 5333.8 8079.3H4929.3L4804.3 7694.6" fill="#b0914d"/>
<path transform="matrix(.1,0,0,-.1,0,792)" stroke-width="1" stroke-linecap="butt" stroke-miterlimit="10" stroke-linejoin="miter" fill="none" stroke="#000000" d="M5131.5 7456.8 5458.8 7694.6 5333.8 8079.3H4929.3L4804.3 7694.6Z"/>
<path transform="matrix(.1,0,0,-.1,0,792)" d="M5131.5 7456.8 5458.8 7219 5536.1 7456.8 5458.8 7694.6Z"/>
<path transform="matrix(.1,0,0,-.1,0,792)" stroke-width="1" stroke-linecap="butt" stroke-miterlimit="10" stroke-linejoin="miter" fill="none" stroke="#000000" d="M5131.5 7456.8 5458.8 7219 5536.1 7456.8 5458.8 7694.6Z"/>
<path transform="matrix(.1,0,0,-.1,0,792)" d="M3013.5 7456.8 3340.8 7694.6 3215.8 8079.3H2811.3L2686.3 7694.6" fill="#b0914d"/>
<path transform="matrix(.1,0,0,-.1,0,792)" stroke-width="1" stroke-linecap="butt" stroke-miterlimit="10" stroke-linejoin="miter" fill="none" stroke="#000000" d="M3013.5 7456.8 3340.8 7694.6 3215.8 8079.3H2811.3L2686.3 7694.6Z"/>
<path transform="matrix(.1,0,0,-.1,0,792)" d="M895.5 7456.8 568.199 7694.6 491 7456.8 568.199 7219Z"/>
<path transform="matrix(.1,0,0,-.1,0,792)" stroke-width="1" stroke-linecap="butt" stroke-miterlimit="10" stroke-linejoin="miter" fill="none" stroke="#000000" d="M895.5 7456.8 568.199 7694.6 491 7456.8 568.199 7219Z"/>
<path transform="matrix(.1,0,0,-.1,0,792)" d="M895.5 7456.8 1222.7 7694.6 1097.7 8079.3H693.199L568.199 7694.6" fill="#b0914d"/>
<path transform="matrix(.1,0,0,-.1,0,792)" stroke-width="1" stroke-linecap="butt" stroke-miterlimit="10" stroke-linejoin="miter" fill="none" stroke="#000000" d="M895.5 7456.8 1222.7 7694.6 1097.7 8079.3H693.199L568.199 7694.6Z"/>
<path transform="matrix(.1,0,0,-.1,0,792)" d="M5333.8 1560.6 5458.8 1175.9 5661.1 1322.9 5738.3 1560.6Z"/>
<path transform="matrix(.1,0,0,-.1,0,792)" stroke-width="1" stroke-linecap="butt" stroke-miterlimit="10" stroke-linejoin="miter" fill="none" stroke="#000000" d="M5333.8 1560.6 5458.8 1175.9 5661.1 1322.9 5738.3 1560.6Z"/>
<path transform="matrix(.1,0,0,-.1,0,792)" d="M5333.8 2117.4H5626.5L5863.3 1945.4 5953.8 2223.7 6190.6 2395.8 5863.3 2633.5 5751.5 2289.4 5458.8 2502.1"/>
<path transform="matrix(.1,0,0,-.1,0,792)" stroke-width="1" stroke-linecap="butt" stroke-miterlimit="10" stroke-linejoin="miter" fill="none" stroke="#000000" d="M5333.8 2117.4H5626.5L5863.3 1945.4 5953.8 2223.7 6190.6 2395.8 5863.3 2633.5 5751.5 2289.4 5458.8 2502.1Z"/>
<path transform="matrix(.1,0,0,-.1,0,792)" d="M5333.8 6277.6 5458.8 5892.9 5751.5 6105.5 5863.3 5761.4 6190.6 5999.2 5953.8 6171.2 5863.3 6449.6 5626.5 6277.6"/>
<path transform="matrix(.1,0,0,-.1,0,792)" stroke-width="1" stroke-linecap="butt" stroke-miterlimit="10" stroke-linejoin="miter" fill="none" stroke="#000000" d="M5333.8 6277.6 5458.8 5892.9 5751.5 6105.5 5863.3 5761.4 6190.6 5999.2 5953.8 6171.2 5863.3 6449.6 5626.5 6277.6Z"/>
<path transform="matrix(.1,0,0,-.1,0,792)" d="M5333.8 6834.3H5738.3L5661.1 7072.1 5458.8 7219Z"/>
<path transform="matrix(.1,0,0,-.1,0,792)" stroke-width="1" stroke-linecap="butt" stroke-miterlimit="10" stroke-linejoin="miter" fill="none" stroke="#000000" d="M5333.8 6834.3H5738.3L5661.1 7072.1 5458.8 7219Z"/>
<path transform="matrix(.1,0,0,-.1,0,792)" d="M895.5 938.199 568.199 700.398 693.199 315.699H1097.7L1222.7 700.398" fill="#b0914d"/>
<path transform="matrix(.1,0,0,-.1,0,792)" stroke-width="1" stroke-linecap="butt" stroke-miterlimit="10" stroke-linejoin="miter" fill="none" stroke="#000000" d="M895.5 938.199 568.199 700.398 693.199 315.699H1097.7L1222.7 700.398Z"/>
<path transform="matrix(.1,0,0,-.1,0,792)" d="M895.5 938.199 568.199 1175.9 491 938.199 568.199 700.398Z"/>
<path transform="matrix(.1,0,0,-.1,0,792)" stroke-width="1" stroke-linecap="butt" stroke-miterlimit="10" stroke-linejoin="miter" fill="none" stroke="#000000" d="M895.5 938.199 568.199 1175.9 491 938.199 568.199 700.398Z"/>
<path transform="matrix(.1,0,0,-.1,0,792)" d="M3013.5 938.199 2686.3 700.398 2811.3 315.699H3215.8L3340.8 700.398" fill="#b0914d"/>
<path transform="matrix(.1,0,0,-.1,0,792)" stroke-width="1" stroke-linecap="butt" stroke-miterlimit="10" stroke-linejoin="miter" fill="none" stroke="#000000" d="M3013.5 938.199 2686.3 700.398 2811.3 315.699H3215.8L3340.8 700.398Z"/>
<path transform="matrix(.1,0,0,-.1,0,792)" d="M5131.5 938.199 5458.8 700.398 5536.1 938.199 5458.8 1175.9Z"/>
<path transform="matrix(.1,0,0,-.1,0,792)" stroke-width="1" stroke-linecap="butt" stroke-miterlimit="10" stroke-linejoin="miter" fill="none" stroke="#000000" d="M5131.5 938.199 5458.8 700.398 5536.1 938.199 5458.8 1175.9Z"/>
<path transform="matrix(.1,0,0,-.1,0,792)" d="M5131.5 938.199 4804.3 700.398 4929.3 315.699H5333.8L5458.8 700.398" fill="#b0914d"/>
<path transform="matrix(.1,0,0,-.1,0,792)" stroke-width="1" stroke-linecap="butt" stroke-miterlimit="10" stroke-linejoin="miter" fill="none" stroke="#000000" d="M5131.5 938.199 4804.3 700.398 4929.3 315.699H5333.8L5458.8 700.398Z"/>
<path transform="matrix(.1,0,0,-.1,0,792)" d="M568.199 7219 491 7456.8 568.199 7694.6 366 7841.5 288.699 8079.3H38.6992L-163.5 8226.2-365.801 8079.3H-615.801L-693 7841.5-895.301 7694.6-818 7456.8-895.301 7219-693 7072.1-615.801 6834.3H-365.801L-163.5 6687.4 38.6992 6834.3H288.699L366 7072.1" fill="#b0914d"/>
<path transform="matrix(.1,0,0,-.1,0,792)" stroke-width="1" stroke-linecap="butt" stroke-miterlimit="10" stroke-linejoin="miter" fill="none" stroke="#000000" d="M568.199 7219 491 7456.8 568.199 7694.6 366 7841.5 288.699 8079.3H38.6992L-163.5 8226.2-365.801 8079.3H-615.801L-693 7841.5-895.301 7694.6-818 7456.8-895.301 7219-693 7072.1-615.801 6834.3H-365.801L-163.5 6687.4 38.6992 6834.3H288.699L366 7072.1Z"/>
<path transform="matrix(.1,0,0,-.1,0,792)" d="M568.199 5892.9 275.5 6105.5 163.699 5761.4 456.398 5548.8Z" fill="#b0914d"/>
<path transform="matrix(.1,0,0,-.1,0,792)" stroke-width="1" stroke-linecap="butt" stroke-miterlimit="10" stroke-linejoin="miter" fill="none" stroke="#000000" d="M568.199 5892.9 275.5 6105.5 163.699 5761.4 456.398 5548.8Z"/>
<path transform="matrix(.1,0,0,-.1,0,792)" d="M568.199 5204.7 331.398 5376.7H38.6992L-51.6992 5098.3 38.6992 4820H443.199" fill="#b0914d"/>
<path transform="matrix(.1,0,0,-.1,0,792)" stroke-width="1" stroke-linecap="butt" stroke-miterlimit="10" stroke-linejoin="miter" fill="none" stroke="#000000" d="M568.199 5204.7 331.398 5376.7H38.6992L-51.6992 5098.3 38.6992 4820H443.199Z"/>
<path transform="matrix(.1,0,0,-.1,0,792)" d="M568.199 3190.3 443.199 3575H38.6992L-51.6992 3296.6 38.6992 3018.3H331.398" fill="#b0914d"/>
<path transform="matrix(.1,0,0,-.1,0,792)" stroke-width="1" stroke-linecap="butt" stroke-miterlimit="10" stroke-linejoin="miter" fill="none" stroke="#000000" d="M568.199 3190.3 443.199 3575H38.6992L-51.6992 3296.6 38.6992 3018.3H331.398Z"/>
<path transform="matrix(.1,0,0,-.1,0,792)" d="M568.199 2502.1 456.398 2846.2 163.699 2633.5 275.5 2289.4Z" fill="#b0914d"/>
<path transform="matrix(.1,0,0,-.1,0,792)" stroke-width="1" stroke-linecap="butt" stroke-miterlimit="10" stroke-linejoin="miter" fill="none" stroke="#000000" d="M568.199 2502.1 456.398 2846.2 163.699 2633.5 275.5 2289.4Z"/>
<path transform="matrix(.1,0,0,-.1,0,792)" d="M568.199 1175.9 366 1322.9 288.699 1560.6H38.6992L-163.5 1707.6-365.801 1560.6H-615.801L-693 1322.9-895.301 1175.9-818 938.199-895.301 700.398-693 553.5-615.801 315.699H-365.801L-163.5 168.699 38.6992 315.699H288.699L366 553.5 568.199 700.398 491 938.199" fill="#b0914d"/>
<path transform="matrix(.1,0,0,-.1,0,792)" stroke-width="1" stroke-linecap="butt" stroke-miterlimit="10" stroke-linejoin="miter" fill="none" stroke="#000000" d="M568.199 1175.9 366 1322.9 288.699 1560.6H38.6992L-163.5 1707.6-365.801 1560.6H-615.801L-693 1322.9-895.301 1175.9-818 938.199-895.301 700.398-693 553.5-615.801 315.699H-365.801L-163.5 168.699 38.6992 315.699H288.699L366 553.5 568.199 700.398 491 938.199Z"/>
<path transform="matrix(.1,0,0,-.1,0,792)" d="M5458.8 1175.9 5536.1 938.199 5458.8 700.398 5661.1 553.5 5738.3 315.699H5988.3L6190.6 168.699 6392.8 315.699H6642.8L6720.1 553.5 6922.3 700.398 6845.1 938.199 6922.3 1175.9 6720.1 1322.9 6642.8 1560.6H6392.8L6190.6 1707.6 5988.3 1560.6H5738.3L5661.1 1322.9" fill="#b0914d"/>
<path transform="matrix(.1,0,0,-.1,0,792)" stroke-width="1" stroke-linecap="butt" stroke-miterlimit="10" stroke-linejoin="miter" fill="none" stroke="#000000" d="M5458.8 1175.9 5536.1 938.199 5458.8 700.398 5661.1 553.5 5738.3 315.699H5988.3L6190.6 168.699 6392.8 315.699H6642.8L6720.1 553.5 6922.3 700.398 6845.1 938.199 6922.3 1175.9 6720.1 1322.9 6642.8 1560.6H6392.8L6190.6 1707.6 5988.3 1560.6H5738.3L5661.1 1322.9Z"/>
<path transform="matrix(.1,0,0,-.1,0,792)" d="M5458.8 2502.1 5751.5 2289.4 5863.3 2633.5 5570.6 2846.2Z" fill="#b0914d"/>
<path transform="matrix(.1,0,0,-.1,0,792)" stroke-width="1" stroke-linecap="butt" stroke-miterlimit="10" stroke-linejoin="miter" fill="none" stroke="#000000" d="M5458.8 2502.1 5751.5 2289.4 5863.3 2633.5 5570.6 2846.2Z"/>
<path transform="matrix(.1,0,0,-.1,0,792)" d="M5458.8 3190.3 5695.6 3018.3H5988.3L6078.8 3296.6 5988.3 3575H5583.8" fill="#b0914d"/>
<path transform="matrix(.1,0,0,-.1,0,792)" stroke-width="1" stroke-linecap="butt" stroke-miterlimit="10" stroke-linejoin="miter" fill="none" stroke="#000000" d="M5458.8 3190.3 5695.6 3018.3H5988.3L6078.8 3296.6 5988.3 3575H5583.8Z"/>
<path transform="matrix(.1,0,0,-.1,0,792)" d="M5458.8 5204.7 5583.8 4820H5988.3L6078.8 5098.3 5988.3 5376.7H5695.6" fill="#b0914d"/>
<path transform="matrix(.1,0,0,-.1,0,792)" stroke-width="1" stroke-linecap="butt" stroke-miterlimit="10" stroke-linejoin="miter" fill="none" stroke="#000000" d="M5458.8 5204.7 5583.8 4820H5988.3L6078.8 5098.3 5988.3 5376.7H5695.6Z"/>
<path transform="matrix(.1,0,0,-.1,0,792)" d="M5458.8 5892.9 5570.6 5548.8 5863.3 5761.4 5751.5 6105.5Z" fill="#b0914d"/>
<path transform="matrix(.1,0,0,-.1,0,792)" stroke-width="1" stroke-linecap="butt" stroke-miterlimit="10" stroke-linejoin="miter" fill="none" stroke="#000000" d="M5458.8 5892.9 5570.6 5548.8 5863.3 5761.4 5751.5 6105.5Z"/>
<path transform="matrix(.1,0,0,-.1,0,792)" d="M5458.8 7219 5661.1 7072.1 5738.3 6834.3H5988.3L6190.6 6687.4 6392.8 6834.3H6642.8L6720.1 7072.1 6922.3 7219 6845.1 7456.8 6922.3 7694.6 6720.1 7841.5 6642.8 8079.3H6392.8L6190.6 8226.2 5988.3 8079.3H5738.3L5661.1 7841.5 5458.8 7694.6 5536.1 7456.8" fill="#b0914d"/>
<path transform="matrix(.1,0,0,-.1,0,792)" stroke-width="1" stroke-linecap="butt" stroke-miterlimit="10" stroke-linejoin="miter" fill="none" stroke="#000000" d="M5458.8 7219 5661.1 7072.1 5738.3 6834.3H5988.3L6190.6 6687.4 6392.8 6834.3H6642.8L6720.1 7072.1 6922.3 7219 6845.1 7456.8 6922.3 7694.6 6720.1 7841.5 6642.8 8079.3H6392.8L6190.6 8226.2 5988.3 8079.3H5738.3L5661.1 7841.5 5458.8 7694.6 5536.1 7456.8Z"/>
<path transform="matrix(.1,0,0,-.1,0,792)" d="M5458.8 7694.6 5661.1 7841.5 5738.3 8079.3H5333.8Z"/>
<path transform="matrix(.1,0,0,-.1,0,792)" stroke-width="1" stroke-linecap="butt" stroke-miterlimit="10" stroke-linejoin="miter" fill="none" stroke="#000000" d="M5458.8 7694.6 5661.1 7841.5 5738.3 8079.3H5333.8Z"/>
<path transform="matrix(.1,0,0,-.1,0,792)" d="M4804.3 7694.6 4929.3 8079.3H4524.8L4602 7841.5Z"/>
<path transform="matrix(.1,0,0,-.1,0,792)" stroke-width="1" stroke-linecap="butt" stroke-miterlimit="10" stroke-linejoin="miter" fill="none" stroke="#000000" d="M4804.3 7694.6 4929.3 8079.3H4524.8L4602 7841.5Z"/>
<path transform="matrix(.1,0,0,-.1,0,792)" d="M3340.8 7694.6 3543 7841.5 3620.3 8079.3H3215.8Z"/>
<path transform="matrix(.1,0,0,-.1,0,792)" stroke-width="1" stroke-linecap="butt" stroke-miterlimit="10" stroke-linejoin="miter" fill="none" stroke="#000000" d="M3340.8 7694.6 3543 7841.5 3620.3 8079.3H3215.8Z"/>
<path transform="matrix(.1,0,0,-.1,0,792)" d="M2686.3 7694.6 2811.3 8079.3H2406.8L2484 7841.5Z"/>
<path transform="matrix(.1,0,0,-.1,0,792)" stroke-width="1" stroke-linecap="butt" stroke-miterlimit="10" stroke-linejoin="miter" fill="none" stroke="#000000" d="M2686.3 7694.6 2811.3 8079.3H2406.8L2484 7841.5Z"/>
<path transform="matrix(.1,0,0,-.1,0,792)" d="M1222.7 7694.6 1425 7841.5 1502.2 8079.3H1097.7Z"/>
<path transform="matrix(.1,0,0,-.1,0,792)" stroke-width="1" stroke-linecap="butt" stroke-miterlimit="10" stroke-linejoin="miter" fill="none" stroke="#000000" d="M1222.7 7694.6 1425 7841.5 1502.2 8079.3H1097.7Z"/>
<path transform="matrix(.1,0,0,-.1,0,792)" d="M568.199 7694.6 693.199 8079.3H288.699L366 7841.5Z"/>
<path transform="matrix(.1,0,0,-.1,0,792)" stroke-width="1" stroke-linecap="butt" stroke-miterlimit="10" stroke-linejoin="miter" fill="none" stroke="#000000" d="M568.199 7694.6 693.199 8079.3H288.699L366 7841.5Z"/>
<path transform="matrix(.1,0,0,-.1,0,792)" d="M443.199 4820H38.6992L163.699 4435.3 366 4582.2Z"/>
<path transform="matrix(.1,0,0,-.1,0,792)" stroke-width="1" stroke-linecap="butt" stroke-miterlimit="10" stroke-linejoin="miter" fill="none" stroke="#000000" d="M443.199 4820H38.6992L163.699 4435.3 366 4582.2Z"/>
<path transform="matrix(.1,0,0,-.1,0,792)" d="M443.199 3575 366 3812.8 163.699 3959.7 38.6992 3575Z"/>
<path transform="matrix(.1,0,0,-.1,0,792)" stroke-width="1" stroke-linecap="butt" stroke-miterlimit="10" stroke-linejoin="miter" fill="none" stroke="#000000" d="M443.199 3575 366 3812.8 163.699 3959.7 38.6992 3575Z"/>
<path transform="matrix(.1,0,0,-.1,0,792)" d="M568.199 700.398 366 553.5 288.699 315.699H693.199Z"/>
<path transform="matrix(.1,0,0,-.1,0,792)" stroke-width="1" stroke-linecap="butt" stroke-miterlimit="10" stroke-linejoin="miter" fill="none" stroke="#000000" d="M568.199 700.398 366 553.5 288.699 315.699H693.199Z"/>
<path transform="matrix(.1,0,0,-.1,0,792)" d="M1222.7 700.398 1097.7 315.699H1502.2L1425 553.5Z"/>
<path transform="matrix(.1,0,0,-.1,0,792)" stroke-width="1" stroke-linecap="butt" stroke-miterlimit="10" stroke-linejoin="miter" fill="none" stroke="#000000" d="M1222.7 700.398 1097.7 315.699H1502.2L1425 553.5Z"/>
<path transform="matrix(.1,0,0,-.1,0,792)" d="M2686.3 700.398 2484 553.5 2406.8 315.699H2811.3Z"/>
<path transform="matrix(.1,0,0,-.1,0,792)" stroke-width="1" stroke-linecap="butt" stroke-miterlimit="10" stroke-linejoin="miter" fill="none" stroke="#000000" d="M2686.3 700.398 2484 553.5 2406.8 315.699H2811.3Z"/>
<path transform="matrix(.1,0,0,-.1,0,792)" d="M3340.8 700.398 3215.8 315.699H3620.3L3543 553.5Z"/>
<path transform="matrix(.1,0,0,-.1,0,792)" stroke-width="1" stroke-linecap="butt" stroke-miterlimit="10" stroke-linejoin="miter" fill="none" stroke="#000000" d="M3340.8 700.398 3215.8 315.699H3620.3L3543 553.5Z"/>
<path transform="matrix(.1,0,0,-.1,0,792)" d="M4804.3 700.398 4602 553.5 4524.8 315.699H4929.3Z"/>
<path transform="matrix(.1,0,0,-.1,0,792)" stroke-width="1" stroke-linecap="butt" stroke-miterlimit="10" stroke-linejoin="miter" fill="none" stroke="#000000" d="M4804.3 700.398 4602 553.5 4524.8 315.699H4929.3Z"/>
<path transform="matrix(.1,0,0,-.1,0,792)" d="M5458.8 700.398 5333.8 315.699H5738.3L5661.1 553.5Z"/>
<path transform="matrix(.1,0,0,-.1,0,792)" stroke-width="1" stroke-linecap="butt" stroke-miterlimit="10" stroke-linejoin="miter" fill="none" stroke="#000000" d="M5458.8 700.398 5333.8 315.699H5738.3L5661.1 553.5Z"/>
<path transform="matrix(.1,0,0,-.1,0,792)" d="M5583.8 3575H5988.3L5863.3 3959.7 5661.1 3812.8Z"/>
<path transform="matrix(.1,0,0,-.1,0,792)" stroke-width="1" stroke-linecap="butt" stroke-miterlimit="10" stroke-linejoin="miter" fill="none" stroke="#000000" d="M5583.8 3575H5988.3L5863.3 3959.7 5661.1 3812.8Z"/>
<path transform="matrix(.1,0,0,-.1,0,792)" d="M5583.8 4820 5661.1 4582.2 5863.3 4435.3 5988.3 4820Z"/>
<path transform="matrix(.1,0,0,-.1,0,792)" stroke-width="1" stroke-linecap="butt" stroke-miterlimit="10" stroke-linejoin="miter" fill="none" stroke="#000000" d="M5583.8 4820 5661.1 4582.2 5863.3 4435.3 5988.3 4820Z"/>
<path transform="matrix(.1,0,0,-.1,0,792)" d="M288.699 6834.3H38.6992L-163.5 6687.4 163.699 6449.6Z"/>
<path transform="matrix(.1,0,0,-.1,0,792)" stroke-width="1" stroke-linecap="butt" stroke-miterlimit="10" stroke-linejoin="miter" fill="none" stroke="#000000" d="M288.699 6834.3H38.6992L-163.5 6687.4 163.699 6449.6Z"/>
<path transform="matrix(.1,0,0,-.1,0,792)" d="M288.699 1560.6 163.699 1945.4-163.5 1707.6 38.6992 1560.6Z"/>
<path transform="matrix(.1,0,0,-.1,0,792)" stroke-width="1" stroke-linecap="butt" stroke-miterlimit="10" stroke-linejoin="miter" fill="none" stroke="#000000" d="M288.699 1560.6 163.699 1945.4-163.5 1707.6 38.6992 1560.6Z"/>
<path transform="matrix(.1,0,0,-.1,0,792)" d="M241 4197.5 163.699 4435.3-163.5 4197.5 163.699 3959.7Z"/>
<path transform="matrix(.1,0,0,-.1,0,792)" stroke-width="1" stroke-linecap="butt" stroke-miterlimit="10" stroke-linejoin="miter" fill="none" stroke="#000000" d="M241 4197.5 163.699 4435.3-163.5 4197.5 163.699 3959.7Z"/>
<path transform="matrix(.1,0,0,-.1,0,792)" d="M5738.3 1560.6H5988.3L6190.6 1707.6 5863.3 1945.4Z"/>
<path transform="matrix(.1,0,0,-.1,0,792)" stroke-width="1" stroke-linecap="butt" stroke-miterlimit="10" stroke-linejoin="miter" fill="none" stroke="#000000" d="M5738.3 1560.6H5988.3L6190.6 1707.6 5863.3 1945.4Z"/>
<path transform="matrix(.1,0,0,-.1,0,792)" d="M5738.3 6834.3 5863.3 6449.6 6190.6 6687.4 5988.3 6834.3Z"/>
<path transform="matrix(.1,0,0,-.1,0,792)" stroke-width="1" stroke-linecap="butt" stroke-miterlimit="10" stroke-linejoin="miter" fill="none" stroke="#000000" d="M5738.3 6834.3 5863.3 6449.6 6190.6 6687.4 5988.3 6834.3Z"/>
<path transform="matrix(.1,0,0,-.1,0,792)" d="M5786.1 4197.5 5863.3 3959.7 6190.6 4197.5 5863.3 4435.3Z"/>
<path transform="matrix(.1,0,0,-.1,0,792)" stroke-width="1" stroke-linecap="butt" stroke-miterlimit="10" stroke-linejoin="miter" fill="none" stroke="#000000" d="M5786.1 4197.5 5863.3 3959.7 6190.6 4197.5 5863.3 4435.3Z"/>
<path transform="matrix(.1,0,0,-.1,0,792)" d="M163.699 6449.6-163.5 6687.4-490.801 6449.6-400.301 6171.2-163.5 5999.2 73.3008 6171.2" fill="#b0914d"/>
<path transform="matrix(.1,0,0,-.1,0,792)" stroke-width="1" stroke-linecap="butt" stroke-miterlimit="10" stroke-linejoin="miter" fill="none" stroke="#000000" d="M163.699 6449.6-163.5 6687.4-490.801 6449.6-400.301 6171.2-163.5 5999.2 73.3008 6171.2Z"/>
<path transform="matrix(.1,0,0,-.1,0,792)" d="M163.699 5761.4-163.5 5999.2-490.801 5761.4-365.801 5376.7H38.6992" fill="#b0914d"/>
<path transform="matrix(.1,0,0,-.1,0,792)" stroke-width="1" stroke-linecap="butt" stroke-miterlimit="10" stroke-linejoin="miter" fill="none" stroke="#000000" d="M163.699 5761.4-163.5 5999.2-490.801 5761.4-365.801 5376.7H38.6992Z"/>
<path transform="matrix(.1,0,0,-.1,0,792)" d="M163.699 4435.3 38.6992 4820H-365.801L-490.801 4435.3-163.5 4197.5" fill="#b0914d"/>
<path transform="matrix(.1,0,0,-.1,0,792)" stroke-width="1" stroke-linecap="butt" stroke-miterlimit="10" stroke-linejoin="miter" fill="none" stroke="#000000" d="M163.699 4435.3 38.6992 4820H-365.801L-490.801 4435.3-163.5 4197.5Z"/>
<path transform="matrix(.1,0,0,-.1,0,792)" d="M163.699 3959.7-163.5 4197.5-490.801 3959.7-365.801 3575H38.6992" fill="#b0914d"/>
<path transform="matrix(.1,0,0,-.1,0,792)" stroke-width="1" stroke-linecap="butt" stroke-miterlimit="10" stroke-linejoin="miter" fill="none" stroke="#000000" d="M163.699 3959.7-163.5 4197.5-490.801 3959.7-365.801 3575H38.6992Z"/>
<path transform="matrix(.1,0,0,-.1,0,792)" d="M163.699 2633.5 38.6992 3018.3H-365.801L-490.801 2633.5-163.5 2395.8" fill="#b0914d"/>
<path transform="matrix(.1,0,0,-.1,0,792)" stroke-width="1" stroke-linecap="butt" stroke-miterlimit="10" stroke-linejoin="miter" fill="none" stroke="#000000" d="M163.699 2633.5 38.6992 3018.3H-365.801L-490.801 2633.5-163.5 2395.8Z"/>
<path transform="matrix(.1,0,0,-.1,0,792)" d="M163.699 1945.4 73.3008 2223.7-163.5 2395.8-400.301 2223.7-490.801 1945.4-163.5 1707.6" fill="#b0914d"/>
<path transform="matrix(.1,0,0,-.1,0,792)" stroke-width="1" stroke-linecap="butt" stroke-miterlimit="10" stroke-linejoin="miter" fill="none" stroke="#000000" d="M163.699 1945.4 73.3008 2223.7-163.5 2395.8-400.301 2223.7-490.801 1945.4-163.5 1707.6Z"/>
<path transform="matrix(.1,0,0,-.1,0,792)" d="M288.699 315.699 163.699-69 400.5-241.102H693.199L783.699 37.3008 693.199 315.699" fill="#b0914d"/>
<path transform="matrix(.1,0,0,-.1,0,792)" stroke-width="1" stroke-linecap="butt" stroke-miterlimit="10" stroke-linejoin="miter" fill="none" stroke="#000000" d="M288.699 315.699 163.699-69 400.5-241.102H693.199L783.699 37.3008 693.199 315.699Z"/>
<path transform="matrix(.1,0,0,-.1,0,792)" d="M288.699 315.699H38.6992L-163.5 168.699 163.699-69Z"/>
<path transform="matrix(.1,0,0,-.1,0,792)" stroke-width="1" stroke-linecap="butt" stroke-miterlimit="10" stroke-linejoin="miter" fill="none" stroke="#000000" d="M288.699 315.699H38.6992L-163.5 168.699 163.699-69Z"/>
<path transform="matrix(.1,0,0,-.1,0,792)" d="M693.199 315.699 783.699 37.3008 693.199-241.102H1097.7L1007.3 37.3008 1097.7 315.699"/>
<path transform="matrix(.1,0,0,-.1,0,792)" stroke-width="1" stroke-linecap="butt" stroke-miterlimit="10" stroke-linejoin="miter" fill="none" stroke="#000000" d="M693.199 315.699 783.699 37.3008 693.199-241.102H1097.7L1007.3 37.3008 1097.7 315.699Z"/>
<path transform="matrix(.1,0,0,-.1,0,792)" d="M1097.7 315.699 1007.3 37.3008 1097.7-241.102H1390.4L1627.2-69 1502.2 315.699" fill="#b0914d"/>
<path transform="matrix(.1,0,0,-.1,0,792)" stroke-width="1" stroke-linecap="butt" stroke-miterlimit="10" stroke-linejoin="miter" fill="none" stroke="#000000" d="M1097.7 315.699 1007.3 37.3008 1097.7-241.102H1390.4L1627.2-69 1502.2 315.699Z"/>
<path transform="matrix(.1,0,0,-.1,0,792)" d="M1502.2 315.699 1627.2-69 1954.5 168.699 1752.2 315.699Z"/>
<path transform="matrix(.1,0,0,-.1,0,792)" stroke-width="1" stroke-linecap="butt" stroke-miterlimit="10" stroke-linejoin="miter" fill="none" stroke="#000000" d="M1502.2 315.699 1627.2-69 1954.5 168.699 1752.2 315.699Z"/>
<path transform="matrix(.1,0,0,-.1,0,792)" d="M2156.8 315.699 1954.5 168.699 2281.8-69 2406.8 315.699Z"/>
<path transform="matrix(.1,0,0,-.1,0,792)" stroke-width="1" stroke-linecap="butt" stroke-miterlimit="10" stroke-linejoin="miter" fill="none" stroke="#000000" d="M2156.8 315.699 1954.5 168.699 2281.8-69 2406.8 315.699Z"/>
<path transform="matrix(.1,0,0,-.1,0,792)" d="M2406.8 315.699 2281.8-69 2518.6-241.102H2811.3L2901.7 37.3008 2811.3 315.699" fill="#b0914d"/>
<path transform="matrix(.1,0,0,-.1,0,792)" stroke-width="1" stroke-linecap="butt" stroke-miterlimit="10" stroke-linejoin="miter" fill="none" stroke="#000000" d="M2406.8 315.699 2281.8-69 2518.6-241.102H2811.3L2901.7 37.3008 2811.3 315.699Z"/>
<path transform="matrix(.1,0,0,-.1,0,792)" d="M2811.3 315.699 2901.7 37.3008 2811.3-241.102H3215.8L3125.3 37.3008 3215.8 315.699"/>
<path transform="matrix(.1,0,0,-.1,0,792)" stroke-width="1" stroke-linecap="butt" stroke-miterlimit="10" stroke-linejoin="miter" fill="none" stroke="#000000" d="M2811.3 315.699 2901.7 37.3008 2811.3-241.102H3215.8L3125.3 37.3008 3215.8 315.699Z"/>
<path transform="matrix(.1,0,0,-.1,0,792)" d="M3215.8 315.699 3125.3 37.3008 3215.8-241.102H3508.5L3745.3-69 3620.3 315.699" fill="#b0914d"/>
<path transform="matrix(.1,0,0,-.1,0,792)" stroke-width="1" stroke-linecap="butt" stroke-miterlimit="10" stroke-linejoin="miter" fill="none" stroke="#000000" d="M3215.8 315.699 3125.3 37.3008 3215.8-241.102H3508.5L3745.3-69 3620.3 315.699Z"/>
<path transform="matrix(.1,0,0,-.1,0,792)" d="M3620.3 315.699 3745.3-69 4072.5 168.699 3870.3 315.699Z"/>
<path transform="matrix(.1,0,0,-.1,0,792)" stroke-width="1" stroke-linecap="butt" stroke-miterlimit="10" stroke-linejoin="miter" fill="none" stroke="#000000" d="M3620.3 315.699 3745.3-69 4072.5 168.699 3870.3 315.699Z"/>
<path transform="matrix(.1,0,0,-.1,0,792)" d="M4274.8 315.699 4072.5 168.699 4399.8-69 4524.8 315.699Z"/>
<path transform="matrix(.1,0,0,-.1,0,792)" stroke-width="1" stroke-linecap="butt" stroke-miterlimit="10" stroke-linejoin="miter" fill="none" stroke="#000000" d="M4274.8 315.699 4072.5 168.699 4399.8-69 4524.8 315.699Z"/>
<path transform="matrix(.1,0,0,-.1,0,792)" d="M4524.8 315.699 4399.8-69 4636.6-241.102H4929.3L5019.7 37.3008 4929.3 315.699" fill="#b0914d"/>
<path transform="matrix(.1,0,0,-.1,0,792)" stroke-width="1" stroke-linecap="butt" stroke-miterlimit="10" stroke-linejoin="miter" fill="none" stroke="#000000" d="M4524.8 315.699 4399.8-69 4636.6-241.102H4929.3L5019.7 37.3008 4929.3 315.699Z"/>
<path transform="matrix(.1,0,0,-.1,0,792)" d="M4929.3 315.699 5019.7 37.3008 4929.3-241.102H5333.8L5243.4 37.3008 5333.8 315.699"/>
<path transform="matrix(.1,0,0,-.1,0,792)" stroke-width="1" stroke-linecap="butt" stroke-miterlimit="10" stroke-linejoin="miter" fill="none" stroke="#000000" d="M4929.3 315.699 5019.7 37.3008 4929.3-241.102H5333.8L5243.4 37.3008 5333.8 315.699Z"/>
<path transform="matrix(.1,0,0,-.1,0,792)" d="M5333.8 315.699 5243.4 37.3008 5333.8-241.102H5626.5L5863.3-69 5738.3 315.699" fill="#b0914d"/>
<path transform="matrix(.1,0,0,-.1,0,792)" stroke-width="1" stroke-linecap="butt" stroke-miterlimit="10" stroke-linejoin="miter" fill="none" stroke="#000000" d="M5333.8 315.699 5243.4 37.3008 5333.8-241.102H5626.5L5863.3-69 5738.3 315.699Z"/>
<path transform="matrix(.1,0,0,-.1,0,792)" d="M5738.3 315.699 5863.3-69 6190.6 168.699 5988.3 315.699Z"/>
<path transform="matrix(.1,0,0,-.1,0,792)" stroke-width="1" stroke-linecap="butt" stroke-miterlimit="10" stroke-linejoin="miter" fill="none" stroke="#000000" d="M5738.3 315.699 5863.3-69 6190.6 168.699 5988.3 315.699Z"/>
<path transform="matrix(.1,0,0,-.1,0,792)" d="M5863.3 1945.4 6190.6 1707.6 6517.8 1945.4 6427.4 2223.7 6190.6 2395.8 5953.8 2223.7" fill="#b0914d"/>
<path transform="matrix(.1,0,0,-.1,0,792)" stroke-width="1" stroke-linecap="butt" stroke-miterlimit="10" stroke-linejoin="miter" fill="none" stroke="#000000" d="M5863.3 1945.4 6190.6 1707.6 6517.8 1945.4 6427.4 2223.7 6190.6 2395.8 5953.8 2223.7Z"/>
<path transform="matrix(.1,0,0,-.1,0,792)" d="M5863.3 2633.5 6190.6 2395.8 6517.8 2633.5 6392.8 3018.3H5988.3" fill="#b0914d"/>
<path transform="matrix(.1,0,0,-.1,0,792)" stroke-width="1" stroke-linecap="butt" stroke-miterlimit="10" stroke-linejoin="miter" fill="none" stroke="#000000" d="M5863.3 2633.5 6190.6 2395.8 6517.8 2633.5 6392.8 3018.3H5988.3Z"/>
<path transform="matrix(.1,0,0,-.1,0,792)" d="M5863.3 3959.7 5988.3 3575H6392.8L6517.8 3959.7 6190.6 4197.5" fill="#b0914d"/>
<path transform="matrix(.1,0,0,-.1,0,792)" stroke-width="1" stroke-linecap="butt" stroke-miterlimit="10" stroke-linejoin="miter" fill="none" stroke="#000000" d="M5863.3 3959.7 5988.3 3575H6392.8L6517.8 3959.7 6190.6 4197.5Z"/>
<path transform="matrix(.1,0,0,-.1,0,792)" d="M5863.3 4435.3 6190.6 4197.5 6517.8 4435.3 6392.8 4820H5988.3" fill="#b0914d"/>
<path transform="matrix(.1,0,0,-.1,0,792)" stroke-width="1" stroke-linecap="butt" stroke-miterlimit="10" stroke-linejoin="miter" fill="none" stroke="#000000" d="M5863.3 4435.3 6190.6 4197.5 6517.8 4435.3 6392.8 4820H5988.3Z"/>
<path transform="matrix(.1,0,0,-.1,0,792)" d="M5863.3 5761.4 5988.3 5376.7H6392.8L6517.8 5761.4 6190.6 5999.2" fill="#b0914d"/>
<path transform="matrix(.1,0,0,-.1,0,792)" stroke-width="1" stroke-linecap="butt" stroke-miterlimit="10" stroke-linejoin="miter" fill="none" stroke="#000000" d="M5863.3 5761.4 5988.3 5376.7H6392.8L6517.8 5761.4 6190.6 5999.2Z"/>
<path transform="matrix(.1,0,0,-.1,0,792)" d="M5863.3 6449.6 5953.8 6171.2 6190.6 5999.2 6427.4 6171.2 6517.8 6449.6 6190.6 6687.4" fill="#b0914d"/>
<path transform="matrix(.1,0,0,-.1,0,792)" stroke-width="1" stroke-linecap="butt" stroke-miterlimit="10" stroke-linejoin="miter" fill="none" stroke="#000000" d="M5863.3 6449.6 5953.8 6171.2 6190.6 5999.2 6427.4 6171.2 6517.8 6449.6 6190.6 6687.4Z"/>
<path transform="matrix(.1,0,0,-.1,0,792)" d="M1954.5 168.699 1627.2-69 1717.7-347.398 1954.5-519.398 2191.3-347.398 2281.8-69" fill="#b0914d"/>
<path transform="matrix(.1,0,0,-.1,0,792)" stroke-width="1" stroke-linecap="butt" stroke-miterlimit="10" stroke-linejoin="miter" fill="none" stroke="#000000" d="M1954.5 168.699 1627.2-69 1717.7-347.398 1954.5-519.398 2191.3-347.398 2281.8-69Z"/>
<path transform="matrix(.1,0,0,-.1,0,792)" d="M4072.5 168.699 3745.3-69 3835.7-347.398 4072.5-519.398 4309.3-347.398 4399.8-69" fill="#b0914d"/>
<path transform="matrix(.1,0,0,-.1,0,792)" stroke-width="1" stroke-linecap="butt" stroke-miterlimit="10" stroke-linejoin="miter" fill="none" stroke="#000000" d="M4072.5 168.699 3745.3-69 3835.7-347.398 4072.5-519.398 4309.3-347.398 4399.8-69Z"/>
<path transform="matrix(.1,0,0,-.1,0,792)" d="M38.6992 5376.7H-365.801L-275.301 5098.3-365.801 4820H38.6992L-51.6992 5098.3"/>
<path transform="matrix(.1,0,0,-.1,0,792)" stroke-width="1" stroke-linecap="butt" stroke-miterlimit="10" stroke-linejoin="miter" fill="none" stroke="#000000" d="M38.6992 5376.7H-365.801L-275.301 5098.3-365.801 4820H38.6992L-51.6992 5098.3Z"/>
<path transform="matrix(.1,0,0,-.1,0,792)" d="M38.6992 3575H-365.801L-275.301 3296.6-365.801 3018.3H38.6992L-51.6992 3296.6"/>
<path transform="matrix(.1,0,0,-.1,0,792)" stroke-width="1" stroke-linecap="butt" stroke-miterlimit="10" stroke-linejoin="miter" fill="none" stroke="#000000" d="M38.6992 3575H-365.801L-275.301 3296.6-365.801 3018.3H38.6992L-51.6992 3296.6Z"/>
<path transform="matrix(.1,0,0,-.1,0,792)" d="M5988.3 3018.3H6392.8L6302.4 3296.6 6392.8 3575H5988.3L6078.8 3296.6"/>
<path transform="matrix(.1,0,0,-.1,0,792)" stroke-width="1" stroke-linecap="butt" stroke-miterlimit="10" stroke-linejoin="miter" fill="none" stroke="#000000" d="M5988.3 3018.3H6392.8L6302.4 3296.6 6392.8 3575H5988.3L6078.8 3296.6Z"/>
<path transform="matrix(.1,0,0,-.1,0,792)" d="M5988.3 4820H6392.8L6302.4 5098.3 6392.8 5376.7H5988.3L6078.8 5098.3"/>
<path transform="matrix(.1,0,0,-.1,0,792)" stroke-width="1" stroke-linecap="butt" stroke-miterlimit="10" stroke-linejoin="miter" fill="none" stroke="#000000" d="M5988.3 4820H6392.8L6302.4 5098.3 6392.8 5376.7H5988.3L6078.8 5098.3Z"/>
<path transform="matrix(.1,0,0,-.1,0,792)" d="M163.699-69-163.5 168.699-490.801-69-400.301-347.398-163.5-519.398 73.3008-347.398" fill="#b0914d"/>
<path transform="matrix(.1,0,0,-.1,0,792)" stroke-width="1" stroke-linecap="butt" stroke-miterlimit="10" stroke-linejoin="miter" fill="none" stroke="#000000" d="M163.699-69-163.5 168.699-490.801-69-400.301-347.398-163.5-519.398 73.3008-347.398Z"/>
<path transform="matrix(.1,0,0,-.1,0,792)" d="M5863.3-69 5953.8-347.398 6190.6-519.398 6427.4-347.398 6517.8-69 6190.6 168.699" fill="#b0914d"/>
<path transform="matrix(.1,0,0,-.1,0,792)" stroke-width="1" stroke-linecap="butt" stroke-miterlimit="10" stroke-linejoin="miter" fill="none" stroke="#000000" d="M5863.3-69 5953.8-347.398 6190.6-519.398 6427.4-347.398 6517.8-69 6190.6 168.699Z"/>
</svg>
