<svg xmlns="http://www.w3.org/2000/svg" xmlns:xlink="http://www.w3.org/1999/xlink" xmlns:inkscape="http://www.inkscape.org/namespaces/inkscape" version="1.1" width="612" height="792" viewBox="0 0 612 792">
<path transform="matrix(.1,0,0,-.1,0,792)" d="M2975 3454.2 3175 3800.6H3575L3375 4147 3575 4493.4H3175L2975 4839.8 2775 4493.4H2375L2575 4147 2375 3800.6H2775" fill="#80664d"/>
<path transform="matrix(.1,0,0,-.1,0,792)" stroke-width="70" stroke-linecap="butt" stroke-linejoin="bevel" fill="none" stroke="#ffe6b2" d="M2975 3454.2 3175 3800.6H3575L3375 4147 3575 4493.4H3175L2975 4839.8 2775 4493.4H2375L2575 4147 2375 3800.6H2775Z"/>
<path transform="matrix(.1,0,0,-.1,0,792)" d="M3175 4493.4 3375 4839.8 3175 5186.2 3375 5532.7 3175 5879.1 2975 5532.7 2775 5879.1 2575 5532.7 2775 5186.2 2575 4839.8 2775 4493.4 2975 4839.8" fill="#80664d"/>
<path transform="matrix(.1,0,0,-.1,0,792)" stroke-width="70" stroke-linecap="butt" stroke-linejoin="bevel" fill="none" stroke="#ffe6b2" d="M3175 4493.4 3375 4839.8 3175 5186.2 3375 5532.7 3175 5879.1 2975 5532.7 2775 5879.1 2575 5532.7 2775 5186.2 2575 4839.8 2775 4493.4 2975 4839.8Z"/>
<path transform="matrix(.1,0,0,-.1,0,792)" d="M3175 4493.4H3575L3375 4147H3775L3975 4493.4H4375L4575 4839.8H4175L4375 5186.2H3975L3775 4839.8H3375" fill="#80664d"/>
<path transform="matrix(.1,0,0,-.1,0,792)" stroke-width="70" stroke-linecap="butt" stroke-linejoin="bevel" fill="none" stroke="#ffe6b2" d="M3175 4493.4H3575L3375 4147H3775L3975 4493.4H4375L4575 4839.8H4175L4375 5186.2H3975L3775 4839.8H3375Z"/>
<path transform="matrix(.1,0,0,-.1,0,792)" d="M2775 4493.4 2575 4839.8H2175L1975 5186.2H1575L1775 4839.8H1375L1575 4493.4H1975L2175 4147H2575L2375 4493.4" fill="#80664d"/>
<path transform="matrix(.1,0,0,-.1,0,792)" stroke-width="70" stroke-linecap="butt" stroke-linejoin="bevel" fill="none" stroke="#ffe6b2" d="M2775 4493.4 2575 4839.8H2175L1975 5186.2H1575L1775 4839.8H1375L1575 4493.4H1975L2175 4147H2575L2375 4493.4Z"/>
<path transform="matrix(.1,0,0,-.1,0,792)" d="M2775 3800.6 2575 3454.2 2775 3107.8 2575 2761.4 2775 2415 2975 2761.4 3175 2415 3375 2761.4 3175 3107.8 3375 3454.2 3175 3800.6 2975 3454.2" fill="#80664d"/>
<path transform="matrix(.1,0,0,-.1,0,792)" stroke-width="70" stroke-linecap="butt" stroke-linejoin="bevel" fill="none" stroke="#ffe6b2" d="M2775 3800.6 2575 3454.2 2775 3107.8 2575 2761.4 2775 2415 2975 2761.4 3175 2415 3375 2761.4 3175 3107.8 3375 3454.2 3175 3800.6 2975 3454.2Z"/>
<path transform="matrix(.1,0,0,-.1,0,792)" d="M2775 3800.6H2375L2575 4147H2175L1975 3800.6H1575L1375 3454.2H1775L1575 3107.8H1975L2175 3454.2H2575" fill="#80664d"/>
<path transform="matrix(.1,0,0,-.1,0,792)" stroke-width="70" stroke-linecap="butt" stroke-linejoin="bevel" fill="none" stroke="#ffe6b2" d="M2775 3800.6H2375L2575 4147H2175L1975 3800.6H1575L1375 3454.2H1775L1575 3107.8H1975L2175 3454.2H2575Z"/>
<path transform="matrix(.1,0,0,-.1,0,792)" d="M3175 3800.6 3375 3454.2H3775L3975 3107.8H4375L4175 3454.2H4575L4375 3800.6H3975L3775 4147H3375L3575 3800.6" fill="#80664d"/>
<path transform="matrix(.1,0,0,-.1,0,792)" stroke-width="70" stroke-linecap="butt" stroke-linejoin="bevel" fill="none" stroke="#ffe6b2" d="M3175 3800.6 3375 3454.2H3775L3975 3107.8H4375L4175 3454.2H4575L4375 3800.6H3975L3775 4147H3375L3575 3800.6Z"/>
<path transform="matrix(.1,0,0,-.1,0,792)" d="M3375 4839.8H3775L3975 5186.2 3775 5532.7H3375L3175 5186.2" fill="#80664d"/>
<path transform="matrix(.1,0,0,-.1,0,792)" stroke-width="70" stroke-linecap="butt" stroke-linejoin="bevel" fill="none" stroke="#ffe6b2" d="M3375 4839.8H3775L3975 5186.2 3775 5532.7H3375L3175 5186.2Z"/>
<path transform="matrix(.1,0,0,-.1,0,792)" d="M2575 4839.8 2775 5186.2 2575 5532.7H2175L1975 5186.2 2175 4839.8" fill="#80664d"/>
<path transform="matrix(.1,0,0,-.1,0,792)" stroke-width="70" stroke-linecap="butt" stroke-linejoin="bevel" fill="none" stroke="#ffe6b2" d="M2575 4839.8 2775 5186.2 2575 5532.7H2175L1975 5186.2 2175 4839.8Z"/>
<path transform="matrix(.1,0,0,-.1,0,792)" d="M2575 3454.2H2175L1975 3107.8 2175 2761.4H2575L2775 3107.8" fill="#80664d"/>
<path transform="matrix(.1,0,0,-.1,0,792)" stroke-width="70" stroke-linecap="butt" stroke-linejoin="bevel" fill="none" stroke="#ffe6b2" d="M2575 3454.2H2175L1975 3107.8 2175 2761.4H2575L2775 3107.8Z"/>
<path transform="matrix(.1,0,0,-.1,0,792)" d="M3375 3454.2 3175 3107.8 3375 2761.4H3775L3975 3107.8 3775 3454.2" fill="#80664d"/>
<path transform="matrix(.1,0,0,-.1,0,792)" stroke-width="70" stroke-linecap="butt" stroke-linejoin="bevel" fill="none" stroke="#ffe6b2" d="M3375 3454.2 3175 3107.8 3375 2761.4H3775L3975 3107.8 3775 3454.2Z"/>
<path transform="matrix(.1,0,0,-.1,0,792)" d="M3775 4147 3975 3800.6H4375L4575 4147 4375 4493.4H3975" fill="#80664d"/>
<path transform="matrix(.1,0,0,-.1,0,792)" stroke-width="70" stroke-linecap="butt" stroke-linejoin="bevel" fill="none" stroke="#ffe6b2" d="M3775 4147 3975 3800.6H4375L4575 4147 4375 4493.4H3975Z"/>
<path transform="matrix(.1,0,0,-.1,0,792)" d="M2175 4147 1975 4493.4H1575L1375 4147 1575 3800.6H1975" fill="#80664d"/>
<path transform="matrix(.1,0,0,-.1,0,792)" stroke-width="70" stroke-linecap="butt" stroke-linejoin="bevel" fill="none" stroke="#ffe6b2" d="M2175 4147 1975 4493.4H1575L1375 4147 1575 3800.6H1975Z"/>
<path transform="matrix(.1,0,0,-.1,0,792)" d="M3775 5532.7 3975 5186.2H4375L4175 5532.7H4575L4375 5879.1H3975L3775 6225.5H3375L3575 5879.1H3175L3375 5532.7" fill="#80664d"/>
<path transform="matrix(.1,0,0,-.1,0,792)" stroke-width="70" stroke-linecap="butt" stroke-linejoin="bevel" fill="none" stroke="#ffe6b2" d="M3775 5532.7 3975 5186.2H4375L4175 5532.7H4575L4375 5879.1H3975L3775 6225.5H3375L3575 5879.1H3175L3375 5532.7Z"/>
<path transform="matrix(.1,0,0,-.1,0,792)" d="M2975 5532.7 3175 5879.1H3575L3375 6225.5 3575 6571.9H3175L2975 6918.3 2775 6571.9H2375L2575 6225.5 2375 5879.1H2775" fill="#80664d"/>
<path transform="matrix(.1,0,0,-.1,0,792)" stroke-width="70" stroke-linecap="butt" stroke-linejoin="bevel" fill="none" stroke="#ffe6b2" d="M2975 5532.7 3175 5879.1H3575L3375 6225.5 3575 6571.9H3175L2975 6918.3 2775 6571.9H2375L2575 6225.5 2375 5879.1H2775Z"/>
<path transform="matrix(.1,0,0,-.1,0,792)" d="M2575 5532.7 2775 5879.1H2375L2575 6225.5H2175L1975 5879.1H1575L1375 5532.7H1775L1575 5186.2H1975L2175 5532.7" fill="#80664d"/>
<path transform="matrix(.1,0,0,-.1,0,792)" stroke-width="70" stroke-linecap="butt" stroke-linejoin="bevel" fill="none" stroke="#ffe6b2" d="M2575 5532.7 2775 5879.1H2375L2575 6225.5H2175L1975 5879.1H1575L1375 5532.7H1775L1575 5186.2H1975L2175 5532.7Z"/>
<path transform="matrix(.1,0,0,-.1,0,792)" d="M1975 3107.8H1575L1775 2761.4H1375L1575 2415H1975L2175 2068.6H2575L2375 2415H2775L2575 2761.4H2175" fill="#80664d"/>
<path transform="matrix(.1,0,0,-.1,0,792)" stroke-width="70" stroke-linecap="butt" stroke-linejoin="bevel" fill="none" stroke="#ffe6b2" d="M1975 3107.8H1575L1775 2761.4H1375L1575 2415H1975L2175 2068.6H2575L2375 2415H2775L2575 2761.4H2175Z"/>
<path transform="matrix(.1,0,0,-.1,0,792)" d="M3975 3107.8 3775 2761.4H3375L3175 2415H3575L3375 2068.6H3775L3975 2415H4375L4575 2761.4H4175L4375 3107.8" fill="#80664d"/>
<path transform="matrix(.1,0,0,-.1,0,792)" stroke-width="70" stroke-linecap="butt" stroke-linejoin="bevel" fill="none" stroke="#ffe6b2" d="M3975 3107.8 3775 2761.4H3375L3175 2415H3575L3375 2068.6H3775L3975 2415H4375L4575 2761.4H4175L4375 3107.8Z"/>
<path transform="matrix(.1,0,0,-.1,0,792)" d="M2975 2761.4 2775 2415H2375L2575 2068.6 2375 1722.1H2775L2975 1375.7 3175 1722.1H3575L3375 2068.6 3575 2415H3175" fill="#80664d"/>
<path transform="matrix(.1,0,0,-.1,0,792)" stroke-width="70" stroke-linecap="butt" stroke-linejoin="bevel" fill="none" stroke="#ffe6b2" d="M2975 2761.4 2775 2415H2375L2575 2068.6 2375 1722.1H2775L2975 1375.7 3175 1722.1H3575L3375 2068.6 3575 2415H3175Z"/>
<path transform="matrix(.1,0,0,-.1,0,792)" d="M4175 2761.4H4575L4775 2415 4975 2761.4H5375L5175 3107.8 5375 3454.2H4975L4775 3800.6 4575 3454.2H4175L4375 3107.8" fill="#80664d"/>
<path transform="matrix(.1,0,0,-.1,0,792)" stroke-width="70" stroke-linecap="butt" stroke-linejoin="bevel" fill="none" stroke="#ffe6b2" d="M4175 2761.4H4575L4775 2415 4975 2761.4H5375L5175 3107.8 5375 3454.2H4975L4775 3800.6 4575 3454.2H4175L4375 3107.8Z"/>
<path transform="matrix(.1,0,0,-.1,0,792)" d="M4175 4839.8H4575L4775 4493.4 4975 4839.8H5375L5175 5186.2 5375 5532.7H4975L4775 5879.1 4575 5532.7H4175L4375 5186.2" fill="#80664d"/>
<path transform="matrix(.1,0,0,-.1,0,792)" stroke-width="70" stroke-linecap="butt" stroke-linejoin="bevel" fill="none" stroke="#ffe6b2" d="M4175 4839.8H4575L4775 4493.4 4975 4839.8H5375L5175 5186.2 5375 5532.7H4975L4775 5879.1 4575 5532.7H4175L4375 5186.2Z"/>
<path transform="matrix(.1,0,0,-.1,0,792)" d="M1775 5532.7H1375L1175 5879.1 975 5532.7H575L775 5186.2 575 4839.8H975L1175 4493.4 1375 4839.8H1775L1575 5186.2" fill="#80664d"/>
<path transform="matrix(.1,0,0,-.1,0,792)" stroke-width="70" stroke-linecap="butt" stroke-linejoin="bevel" fill="none" stroke="#ffe6b2" d="M1775 5532.7H1375L1175 5879.1 975 5532.7H575L775 5186.2 575 4839.8H975L1175 4493.4 1375 4839.8H1775L1575 5186.2Z"/>
<path transform="matrix(.1,0,0,-.1,0,792)" d="M1775 3454.2H1375L1175 3800.6 975 3454.2H575L775 3107.8 575 2761.4H975L1175 2415 1375 2761.4H1775L1575 3107.8" fill="#80664d"/>
<path transform="matrix(.1,0,0,-.1,0,792)" stroke-width="70" stroke-linecap="butt" stroke-linejoin="bevel" fill="none" stroke="#ffe6b2" d="M1775 3454.2H1375L1175 3800.6 975 3454.2H575L775 3107.8 575 2761.4H975L1175 2415 1375 2761.4H1775L1575 3107.8Z"/>
<path transform="matrix(.1,0,0,-.1,0,792)" d="M3975 5879.1H4375L4575 6225.5 4375 6571.9H3975L3775 6225.5" fill="#80664d"/>
<path transform="matrix(.1,0,0,-.1,0,792)" stroke-width="70" stroke-linecap="butt" stroke-linejoin="bevel" fill="none" stroke="#ffe6b2" d="M3975 5879.1H4375L4575 6225.5 4375 6571.9H3975L3775 6225.5Z"/>
<path transform="matrix(.1,0,0,-.1,0,792)" d="M1975 5879.1 2175 6225.5 1975 6571.9H1575L1375 6225.5 1575 5879.1" fill="#80664d"/>
<path transform="matrix(.1,0,0,-.1,0,792)" stroke-width="70" stroke-linecap="butt" stroke-linejoin="bevel" fill="none" stroke="#ffe6b2" d="M1975 5879.1 2175 6225.5 1975 6571.9H1575L1375 6225.5 1575 5879.1Z"/>
<path transform="matrix(.1,0,0,-.1,0,792)" d="M1975 2415H1575L1375 2068.6 1575 1722.1H1975L2175 2068.6" fill="#80664d"/>
<path transform="matrix(.1,0,0,-.1,0,792)" stroke-width="70" stroke-linecap="butt" stroke-linejoin="bevel" fill="none" stroke="#ffe6b2" d="M1975 2415H1575L1375 2068.6 1575 1722.1H1975L2175 2068.6Z"/>
<path transform="matrix(.1,0,0,-.1,0,792)" d="M3975 2415 3775 2068.6 3975 1722.1H4375L4575 2068.6 4375 2415" fill="#80664d"/>
<path transform="matrix(.1,0,0,-.1,0,792)" stroke-width="70" stroke-linecap="butt" stroke-linejoin="bevel" fill="none" stroke="#ffe6b2" d="M3975 2415 3775 2068.6 3975 1722.1H4375L4575 2068.6 4375 2415Z"/>
<path transform="matrix(.1,0,0,-.1,0,792)" d="M4375 2415 4575 2068.6 4375 1722.1 4575 1375.7 4775 1722.1 4975 1375.7 5175 1722.1 4975 2068.6 5175 2415 4975 2761.4 4775 2415 4575 2761.4" fill="#80664d"/>
<path transform="matrix(.1,0,0,-.1,0,792)" stroke-width="70" stroke-linecap="butt" stroke-linejoin="bevel" fill="none" stroke="#ffe6b2" d="M4375 2415 4575 2068.6 4375 1722.1 4575 1375.7 4775 1722.1 4975 1375.7 5175 1722.1 4975 2068.6 5175 2415 4975 2761.4 4775 2415 4575 2761.4Z"/>
<path transform="matrix(.1,0,0,-.1,0,792)" d="M4375 3800.6 4575 3454.2 4775 3800.6 4975 3454.2 5175 3800.6 4975 4147 5175 4493.4 4975 4839.8 4775 4493.4 4575 4839.8 4375 4493.4 4575 4147" fill="#80664d"/>
<path transform="matrix(.1,0,0,-.1,0,792)" stroke-width="70" stroke-linecap="butt" stroke-linejoin="bevel" fill="none" stroke="#ffe6b2" d="M4375 3800.6 4575 3454.2 4775 3800.6 4975 3454.2 5175 3800.6 4975 4147 5175 4493.4 4975 4839.8 4775 4493.4 4575 4839.8 4375 4493.4 4575 4147Z"/>
<path transform="matrix(.1,0,0,-.1,0,792)" d="M4375 5879.1 4575 5532.7 4775 5879.1 4975 5532.7 5175 5879.1 4975 6225.5 5175 6571.9 4975 6918.3 4775 6571.9 4575 6918.3 4375 6571.9 4575 6225.5" fill="#80664d"/>
<path transform="matrix(.1,0,0,-.1,0,792)" stroke-width="70" stroke-linecap="butt" stroke-linejoin="bevel" fill="none" stroke="#ffe6b2" d="M4375 5879.1 4575 5532.7 4775 5879.1 4975 5532.7 5175 5879.1 4975 6225.5 5175 6571.9 4975 6918.3 4775 6571.9 4575 6918.3 4375 6571.9 4575 6225.5Z"/>
<path transform="matrix(.1,0,0,-.1,0,792)" d="M1575 5879.1 1375 6225.5 1575 6571.9 1375 6918.3 1175 6571.9 975 6918.3 775 6571.9 975 6225.5 775 5879.1 975 5532.7 1175 5879.1 1375 5532.7" fill="#80664d"/>
<path transform="matrix(.1,0,0,-.1,0,792)" stroke-width="70" stroke-linecap="butt" stroke-linejoin="bevel" fill="none" stroke="#ffe6b2" d="M1575 5879.1 1375 6225.5 1575 6571.9 1375 6918.3 1175 6571.9 975 6918.3 775 6571.9 975 6225.5 775 5879.1 975 5532.7 1175 5879.1 1375 5532.7Z"/>
<path transform="matrix(.1,0,0,-.1,0,792)" d="M1575 4493.4 1375 4839.8 1175 4493.4 975 4839.8 775 4493.4 975 4147 775 3800.6 975 3454.2 1175 3800.6 1375 3454.2 1575 3800.6 1375 4147" fill="#80664d"/>
<path transform="matrix(.1,0,0,-.1,0,792)" stroke-width="70" stroke-linecap="butt" stroke-linejoin="bevel" fill="none" stroke="#ffe6b2" d="M1575 4493.4 1375 4839.8 1175 4493.4 975 4839.8 775 4493.4 975 4147 775 3800.6 975 3454.2 1175 3800.6 1375 3454.2 1575 3800.6 1375 4147Z"/>
<path transform="matrix(.1,0,0,-.1,0,792)" d="M1575 2415 1375 2761.4 1175 2415 975 2761.4 775 2415 975 2068.6 775 1722.1 975 1375.7 1175 1722.1 1375 1375.7 1575 1722.1 1375 2068.6" fill="#80664d"/>
<path transform="matrix(.1,0,0,-.1,0,792)" stroke-width="70" stroke-linecap="butt" stroke-linejoin="bevel" fill="none" stroke="#ffe6b2" d="M1575 2415 1375 2761.4 1175 2415 975 2761.4 775 2415 975 2068.6 775 1722.1 975 1375.7 1175 1722.1 1375 1375.7 1575 1722.1 1375 2068.6Z"/>
<path transform="matrix(.1,0,0,-.1,0,792)" d="M3775 6225.5 3975 6571.9H4375L4575 6918.3H4175L4375 7264.7H3975L3775 6918.3H3375L3175 6571.9H3575L3375 6225.5" fill="#80664d"/>
<path transform="matrix(.1,0,0,-.1,0,792)" stroke-width="70" stroke-linecap="butt" stroke-linejoin="bevel" fill="none" stroke="#ffe6b2" d="M3775 6225.5 3975 6571.9H4375L4575 6918.3H4175L4375 7264.7H3975L3775 6918.3H3375L3175 6571.9H3575L3375 6225.5Z"/>
<path transform="matrix(.1,0,0,-.1,0,792)" d="M2575 6225.5 2375 6571.9H2775L2575 6918.3H2175L1975 7264.7H1575L1775 6918.3H1375L1575 6571.9H1975L2175 6225.5" fill="#80664d"/>
<path transform="matrix(.1,0,0,-.1,0,792)" stroke-width="70" stroke-linecap="butt" stroke-linejoin="bevel" fill="none" stroke="#ffe6b2" d="M2575 6225.5 2375 6571.9H2775L2575 6918.3H2175L1975 7264.7H1575L1775 6918.3H1375L1575 6571.9H1975L2175 6225.5Z"/>
<path transform="matrix(.1,0,0,-.1,0,792)" d="M2175 2068.6 1975 1722.1H1575L1375 1375.7H1775L1575 1029.3H1975L2175 1375.7H2575L2775 1722.1H2375L2575 2068.6" fill="#80664d"/>
<path transform="matrix(.1,0,0,-.1,0,792)" stroke-width="70" stroke-linecap="butt" stroke-linejoin="bevel" fill="none" stroke="#ffe6b2" d="M2175 2068.6 1975 1722.1H1575L1375 1375.7H1775L1575 1029.3H1975L2175 1375.7H2575L2775 1722.1H2375L2575 2068.6Z"/>
<path transform="matrix(.1,0,0,-.1,0,792)" d="M3375 2068.6 3575 1722.1H3175L3375 1375.7H3775L3975 1029.3H4375L4175 1375.7H4575L4375 1722.1H3975L3775 2068.6" fill="#80664d"/>
<path transform="matrix(.1,0,0,-.1,0,792)" stroke-width="70" stroke-linecap="butt" stroke-linejoin="bevel" fill="none" stroke="#ffe6b2" d="M3375 2068.6 3575 1722.1H3175L3375 1375.7H3775L3975 1029.3H4375L4175 1375.7H4575L4375 1722.1H3975L3775 2068.6Z"/>
<path transform="matrix(.1,0,0,-.1,0,792)" d="M3175 6571.9 3375 6918.3 3175 7264.7 3375 7611.1 3175 7957.5 2975 7611.1 2775 7957.5 2575 7611.1 2775 7264.7 2575 6918.3 2775 6571.9 2975 6918.3" fill="#80664d"/>
<path transform="matrix(.1,0,0,-.1,0,792)" stroke-width="70" stroke-linecap="butt" stroke-linejoin="bevel" fill="none" stroke="#ffe6b2" d="M3175 6571.9 3375 6918.3 3175 7264.7 3375 7611.1 3175 7957.5 2975 7611.1 2775 7957.5 2575 7611.1 2775 7264.7 2575 6918.3 2775 6571.9 2975 6918.3Z"/>
<path transform="matrix(.1,0,0,-.1,0,792)" d="M1175 6571.9 1375 6918.3H1775L1575 7264.7 1775 7611.1H1375L1175 7957.5 975 7611.1H575L775 7264.7 575 6918.3H975" fill="#80664d"/>
<path transform="matrix(.1,0,0,-.1,0,792)" stroke-width="70" stroke-linecap="butt" stroke-linejoin="bevel" fill="none" stroke="#ffe6b2" d="M1175 6571.9 1375 6918.3H1775L1575 7264.7 1775 7611.1H1375L1175 7957.5 975 7611.1H575L775 7264.7 575 6918.3H975Z"/>
<path transform="matrix(.1,0,0,-.1,0,792)" d="M4775 6571.9 4975 6918.3H5375L5175 7264.7 5375 7611.1H4975L4775 7957.5 4575 7611.1H4175L4375 7264.7 4175 6918.3H4575" fill="#80664d"/>
<path transform="matrix(.1,0,0,-.1,0,792)" stroke-width="70" stroke-linecap="butt" stroke-linejoin="bevel" fill="none" stroke="#ffe6b2" d="M4775 6571.9 4975 6918.3H5375L5175 7264.7 5375 7611.1H4975L4775 7957.5 4575 7611.1H4175L4375 7264.7 4175 6918.3H4575Z"/>
<path transform="matrix(.1,0,0,-.1,0,792)" d="M1175 1722.1 975 1375.7H575L775 1029.3 575 682.898H975L1175 336.5 1375 682.898H1775L1575 1029.3 1775 1375.7H1375" fill="#80664d"/>
<path transform="matrix(.1,0,0,-.1,0,792)" stroke-width="70" stroke-linecap="butt" stroke-linejoin="bevel" fill="none" stroke="#ffe6b2" d="M1175 1722.1 975 1375.7H575L775 1029.3 575 682.898H975L1175 336.5 1375 682.898H1775L1575 1029.3 1775 1375.7H1375Z"/>
<path transform="matrix(.1,0,0,-.1,0,792)" d="M2775 1722.1 2575 1375.7 2775 1029.3 2575 682.898 2775 336.5 2975 682.898 3175 336.5 3375 682.898 3175 1029.3 3375 1375.7 3175 1722.1 2975 1375.7" fill="#80664d"/>
<path transform="matrix(.1,0,0,-.1,0,792)" stroke-width="70" stroke-linecap="butt" stroke-linejoin="bevel" fill="none" stroke="#ffe6b2" d="M2775 1722.1 2575 1375.7 2775 1029.3 2575 682.898 2775 336.5 2975 682.898 3175 336.5 3375 682.898 3175 1029.3 3375 1375.7 3175 1722.1 2975 1375.7Z"/>
<path transform="matrix(.1,0,0,-.1,0,792)" d="M4775 1722.1 4575 1375.7H4175L4375 1029.3 4175 682.898H4575L4775 336.5 4975 682.898H5375L5175 1029.3 5375 1375.7H4975" fill="#80664d"/>
<path transform="matrix(.1,0,0,-.1,0,792)" stroke-width="70" stroke-linecap="butt" stroke-linejoin="bevel" fill="none" stroke="#ffe6b2" d="M4775 1722.1 4575 1375.7H4175L4375 1029.3 4175 682.898H4575L4775 336.5 4975 682.898H5375L5175 1029.3 5375 1375.7H4975Z"/>
<path transform="matrix(.1,0,0,-.1,0,792)" d="M3775 6918.3 3975 7264.7 3775 7611.1H3375L3175 7264.7 3375 6918.3" fill="#80664d"/>
<path transform="matrix(.1,0,0,-.1,0,792)" stroke-width="70" stroke-linecap="butt" stroke-linejoin="bevel" fill="none" stroke="#ffe6b2" d="M3775 6918.3 3975 7264.7 3775 7611.1H3375L3175 7264.7 3375 6918.3Z"/>
<path transform="matrix(.1,0,0,-.1,0,792)" d="M2575 6918.3 2775 7264.7 2575 7611.1H2175L1975 7264.7 2175 6918.3" fill="#80664d"/>
<path transform="matrix(.1,0,0,-.1,0,792)" stroke-width="70" stroke-linecap="butt" stroke-linejoin="bevel" fill="none" stroke="#ffe6b2" d="M2575 6918.3 2775 7264.7 2575 7611.1H2175L1975 7264.7 2175 6918.3Z"/>
<path transform="matrix(.1,0,0,-.1,0,792)" d="M975 6918.3H575L775 7264.7H375L175 6918.3H-225L-425 6571.9H-25L-225 6225.5H175L375 6571.9H775" fill="#80664d"/>
<path transform="matrix(.1,0,0,-.1,0,792)" stroke-width="70" stroke-linecap="butt" stroke-linejoin="bevel" fill="none" stroke="#ffe6b2" d="M975 6918.3H575L775 7264.7H375L175 6918.3H-225L-425 6571.9H-25L-225 6225.5H175L375 6571.9H775Z"/>
<path transform="matrix(.1,0,0,-.1,0,792)" d="M975 6225.5 775 6571.9H375L175 6225.5 375 5879.1H775" fill="#80664d"/>
<path transform="matrix(.1,0,0,-.1,0,792)" stroke-width="70" stroke-linecap="butt" stroke-linejoin="bevel" fill="none" stroke="#ffe6b2" d="M975 6225.5 775 6571.9H375L175 6225.5 375 5879.1H775Z"/>
<path transform="matrix(.1,0,0,-.1,0,792)" d="M975 5532.7 775 5879.1H375L175 6225.5H-225L-25 5879.1H-425L-225 5532.7H175L375 5186.2H775L575 5532.7" fill="#80664d"/>
<path transform="matrix(.1,0,0,-.1,0,792)" stroke-width="70" stroke-linecap="butt" stroke-linejoin="bevel" fill="none" stroke="#ffe6b2" d="M975 5532.7 775 5879.1H375L175 6225.5H-225L-25 5879.1H-425L-225 5532.7H175L375 5186.2H775L575 5532.7Z"/>
<path transform="matrix(.1,0,0,-.1,0,792)" d="M975 4839.8H575L775 5186.2H375L175 4839.8H-225L-425 4493.4H-25L-225 4147H175L375 4493.4H775" fill="#80664d"/>
<path transform="matrix(.1,0,0,-.1,0,792)" stroke-width="70" stroke-linecap="butt" stroke-linejoin="bevel" fill="none" stroke="#ffe6b2" d="M975 4839.8H575L775 5186.2H375L175 4839.8H-225L-425 4493.4H-25L-225 4147H175L375 4493.4H775Z"/>
<path transform="matrix(.1,0,0,-.1,0,792)" d="M975 4147 775 4493.4H375L175 4147 375 3800.6H775" fill="#80664d"/>
<path transform="matrix(.1,0,0,-.1,0,792)" stroke-width="70" stroke-linecap="butt" stroke-linejoin="bevel" fill="none" stroke="#ffe6b2" d="M975 4147 775 4493.4H375L175 4147 375 3800.6H775Z"/>
<path transform="matrix(.1,0,0,-.1,0,792)" d="M975 3454.2 775 3800.6H375L175 4147H-225L-25 3800.6H-425L-225 3454.2H175L375 3107.8H775L575 3454.2" fill="#80664d"/>
<path transform="matrix(.1,0,0,-.1,0,792)" stroke-width="70" stroke-linecap="butt" stroke-linejoin="bevel" fill="none" stroke="#ffe6b2" d="M975 3454.2 775 3800.6H375L175 4147H-225L-25 3800.6H-425L-225 3454.2H175L375 3107.8H775L575 3454.2Z"/>
<path transform="matrix(.1,0,0,-.1,0,792)" d="M975 2761.4H575L775 3107.8H375L175 2761.4H-225L-425 2415H-25L-225 2068.6H175L375 2415H775" fill="#80664d"/>
<path transform="matrix(.1,0,0,-.1,0,792)" stroke-width="70" stroke-linecap="butt" stroke-linejoin="bevel" fill="none" stroke="#ffe6b2" d="M975 2761.4H575L775 3107.8H375L175 2761.4H-225L-425 2415H-25L-225 2068.6H175L375 2415H775Z"/>
<path transform="matrix(.1,0,0,-.1,0,792)" d="M975 2068.6 775 2415H375L175 2068.6 375 1722.1H775" fill="#80664d"/>
<path transform="matrix(.1,0,0,-.1,0,792)" stroke-width="70" stroke-linecap="butt" stroke-linejoin="bevel" fill="none" stroke="#ffe6b2" d="M975 2068.6 775 2415H375L175 2068.6 375 1722.1H775Z"/>
<path transform="matrix(.1,0,0,-.1,0,792)" d="M4975 2068.6 5175 1722.1H5575L5775 2068.6 5575 2415H5175" fill="#80664d"/>
<path transform="matrix(.1,0,0,-.1,0,792)" stroke-width="70" stroke-linecap="butt" stroke-linejoin="bevel" fill="none" stroke="#ffe6b2" d="M4975 2068.6 5175 1722.1H5575L5775 2068.6 5575 2415H5175Z"/>
<path transform="matrix(.1,0,0,-.1,0,792)" d="M4975 2761.4 5175 2415H5575L5775 2068.6H6175L5975 2415H6375L6175 2761.4H5775L5575 3107.8H5175L5375 2761.4" fill="#80664d"/>
<path transform="matrix(.1,0,0,-.1,0,792)" stroke-width="70" stroke-linecap="butt" stroke-linejoin="bevel" fill="none" stroke="#ffe6b2" d="M4975 2761.4 5175 2415H5575L5775 2068.6H6175L5975 2415H6375L6175 2761.4H5775L5575 3107.8H5175L5375 2761.4Z"/>
<path transform="matrix(.1,0,0,-.1,0,792)" d="M4975 3454.2H5375L5175 3107.8H5575L5775 3454.2H6175L6375 3800.6H5975L6175 4147H5775L5575 3800.6H5175" fill="#80664d"/>
<path transform="matrix(.1,0,0,-.1,0,792)" stroke-width="70" stroke-linecap="butt" stroke-linejoin="bevel" fill="none" stroke="#ffe6b2" d="M4975 3454.2H5375L5175 3107.8H5575L5775 3454.2H6175L6375 3800.6H5975L6175 4147H5775L5575 3800.6H5175Z"/>
<path transform="matrix(.1,0,0,-.1,0,792)" d="M4975 4147 5175 3800.6H5575L5775 4147 5575 4493.4H5175" fill="#80664d"/>
<path transform="matrix(.1,0,0,-.1,0,792)" stroke-width="70" stroke-linecap="butt" stroke-linejoin="bevel" fill="none" stroke="#ffe6b2" d="M4975 4147 5175 3800.6H5575L5775 4147 5575 4493.4H5175Z"/>
<path transform="matrix(.1,0,0,-.1,0,792)" d="M4975 4839.8 5175 4493.4H5575L5775 4147H6175L5975 4493.4H6375L6175 4839.8H5775L5575 5186.2H5175L5375 4839.8" fill="#80664d"/>
<path transform="matrix(.1,0,0,-.1,0,792)" stroke-width="70" stroke-linecap="butt" stroke-linejoin="bevel" fill="none" stroke="#ffe6b2" d="M4975 4839.8 5175 4493.4H5575L5775 4147H6175L5975 4493.4H6375L6175 4839.8H5775L5575 5186.2H5175L5375 4839.8Z"/>
<path transform="matrix(.1,0,0,-.1,0,792)" d="M4975 5532.7H5375L5175 5186.2H5575L5775 5532.7H6175L6375 5879.1H5975L6175 6225.5H5775L5575 5879.1H5175" fill="#80664d"/>
<path transform="matrix(.1,0,0,-.1,0,792)" stroke-width="70" stroke-linecap="butt" stroke-linejoin="bevel" fill="none" stroke="#ffe6b2" d="M4975 5532.7H5375L5175 5186.2H5575L5775 5532.7H6175L6375 5879.1H5975L6175 6225.5H5775L5575 5879.1H5175Z"/>
<path transform="matrix(.1,0,0,-.1,0,792)" d="M4975 6225.5 5175 5879.1H5575L5775 6225.5 5575 6571.9H5175" fill="#80664d"/>
<path transform="matrix(.1,0,0,-.1,0,792)" stroke-width="70" stroke-linecap="butt" stroke-linejoin="bevel" fill="none" stroke="#ffe6b2" d="M4975 6225.5 5175 5879.1H5575L5775 6225.5 5575 6571.9H5175Z"/>
<path transform="matrix(.1,0,0,-.1,0,792)" d="M4975 6918.3 5175 6571.9H5575L5775 6225.5H6175L5975 6571.9H6375L6175 6918.3H5775L5575 7264.7H5175L5375 6918.3" fill="#80664d"/>
<path transform="matrix(.1,0,0,-.1,0,792)" stroke-width="70" stroke-linecap="butt" stroke-linejoin="bevel" fill="none" stroke="#ffe6b2" d="M4975 6918.3 5175 6571.9H5575L5775 6225.5H6175L5975 6571.9H6375L6175 6918.3H5775L5575 7264.7H5175L5375 6918.3Z"/>
<path transform="matrix(.1,0,0,-.1,0,792)" d="M975 1375.7 775 1722.1H375L175 2068.6H-225L-25 1722.1H-425L-225 1375.7H175L375 1029.3H775L575 1375.7" fill="#80664d"/>
<path transform="matrix(.1,0,0,-.1,0,792)" stroke-width="70" stroke-linecap="butt" stroke-linejoin="bevel" fill="none" stroke="#ffe6b2" d="M975 1375.7 775 1722.1H375L175 2068.6H-225L-25 1722.1H-425L-225 1375.7H175L375 1029.3H775L575 1375.7Z"/>
<path transform="matrix(.1,0,0,-.1,0,792)" d="M2175 1375.7 1975 1029.3 2175 682.898H2575L2775 1029.3 2575 1375.7" fill="#80664d"/>
<path transform="matrix(.1,0,0,-.1,0,792)" stroke-width="70" stroke-linecap="butt" stroke-linejoin="bevel" fill="none" stroke="#ffe6b2" d="M2175 1375.7 1975 1029.3 2175 682.898H2575L2775 1029.3 2575 1375.7Z"/>
<path transform="matrix(.1,0,0,-.1,0,792)" d="M3375 1375.7 3175 1029.3 3375 682.898H3775L3975 1029.3 3775 1375.7" fill="#80664d"/>
<path transform="matrix(.1,0,0,-.1,0,792)" stroke-width="70" stroke-linecap="butt" stroke-linejoin="bevel" fill="none" stroke="#ffe6b2" d="M3375 1375.7 3175 1029.3 3375 682.898H3775L3975 1029.3 3775 1375.7Z"/>
<path transform="matrix(.1,0,0,-.1,0,792)" d="M4975 1375.7H5375L5175 1029.3H5575L5775 1375.7H6175L6375 1722.1H5975L6175 2068.6H5775L5575 1722.1H5175" fill="#80664d"/>
<path transform="matrix(.1,0,0,-.1,0,792)" stroke-width="70" stroke-linecap="butt" stroke-linejoin="bevel" fill="none" stroke="#ffe6b2" d="M4975 1375.7H5375L5175 1029.3H5575L5775 1375.7H6175L6375 1722.1H5975L6175 2068.6H5775L5575 1722.1H5175Z"/>
<path transform="matrix(.1,0,0,-.1,0,792)" d="M5175 7264.7H5575L5775 7611.1H6175L6375 7957.5H5975L6175 8303.9H5775L5575 7957.5H5175L4975 7611.1H5375" fill="#80664d"/>
<path transform="matrix(.1,0,0,-.1,0,792)" stroke-width="70" stroke-linecap="butt" stroke-linejoin="bevel" fill="none" stroke="#ffe6b2" d="M5175 7264.7H5575L5775 7611.1H6175L6375 7957.5H5975L6175 8303.9H5775L5575 7957.5H5175L4975 7611.1H5375Z"/>
<path transform="matrix(.1,0,0,-.1,0,792)" d="M4375 7264.7 4175 7611.1H4575L4375 7957.5H3975L3775 8303.9H3375L3575 7957.5H3175L3375 7611.1H3775L3975 7264.7" fill="#80664d"/>
<path transform="matrix(.1,0,0,-.1,0,792)" stroke-width="70" stroke-linecap="butt" stroke-linejoin="bevel" fill="none" stroke="#ffe6b2" d="M4375 7264.7 4175 7611.1H4575L4375 7957.5H3975L3775 8303.9H3375L3575 7957.5H3175L3375 7611.1H3775L3975 7264.7Z"/>
<path transform="matrix(.1,0,0,-.1,0,792)" d="M1975 7264.7 2175 7611.1H2575L2775 7957.5H2375L2575 8303.9H2175L1975 7957.5H1575L1375 7611.1H1775L1575 7264.7" fill="#80664d"/>
<path transform="matrix(.1,0,0,-.1,0,792)" stroke-width="70" stroke-linecap="butt" stroke-linejoin="bevel" fill="none" stroke="#ffe6b2" d="M1975 7264.7 2175 7611.1H2575L2775 7957.5H2375L2575 8303.9H2175L1975 7957.5H1575L1375 7611.1H1775L1575 7264.7Z"/>
<path transform="matrix(.1,0,0,-.1,0,792)" d="M775 7264.7 575 7611.1H975L775 7957.5H375L175 8303.9H-225L-25 7957.5H-425L-225 7611.1H175L375 7264.7" fill="#80664d"/>
<path transform="matrix(.1,0,0,-.1,0,792)" stroke-width="70" stroke-linecap="butt" stroke-linejoin="bevel" fill="none" stroke="#ffe6b2" d="M775 7264.7 575 7611.1H975L775 7957.5H375L175 8303.9H-225L-25 7957.5H-425L-225 7611.1H175L375 7264.7Z"/>
<path transform="matrix(.1,0,0,-.1,0,792)" d="M775 1029.3H375L175 682.898H-225L-425 336.5H-25L-225-9.89844H175L375 336.5H775L975 682.898H575" fill="#80664d"/>
<path transform="matrix(.1,0,0,-.1,0,792)" stroke-width="70" stroke-linecap="butt" stroke-linejoin="bevel" fill="none" stroke="#ffe6b2" d="M775 1029.3H375L175 682.898H-225L-425 336.5H-25L-225-9.89844H175L375 336.5H775L975 682.898H575Z"/>
<path transform="matrix(.1,0,0,-.1,0,792)" d="M1575 1029.3 1775 682.898H1375L1575 336.5H1975L2175-9.89844H2575L2375 336.5H2775L2575 682.898H2175L1975 1029.3" fill="#80664d"/>
<path transform="matrix(.1,0,0,-.1,0,792)" stroke-width="70" stroke-linecap="butt" stroke-linejoin="bevel" fill="none" stroke="#ffe6b2" d="M1575 1029.3 1775 682.898H1375L1575 336.5H1975L2175-9.89844H2575L2375 336.5H2775L2575 682.898H2175L1975 1029.3Z"/>
<path transform="matrix(.1,0,0,-.1,0,792)" d="M3975 1029.3 3775 682.898H3375L3175 336.5H3575L3375-9.89844H3775L3975 336.5H4375L4575 682.898H4175L4375 1029.3" fill="#80664d"/>
<path transform="matrix(.1,0,0,-.1,0,792)" stroke-width="70" stroke-linecap="butt" stroke-linejoin="bevel" fill="none" stroke="#ffe6b2" d="M3975 1029.3 3775 682.898H3375L3175 336.5H3575L3375-9.89844H3775L3975 336.5H4375L4575 682.898H4175L4375 1029.3Z"/>
<path transform="matrix(.1,0,0,-.1,0,792)" d="M5175 1029.3 5375 682.898H4975L5175 336.5H5575L5775-9.89844H6175L5975 336.5H6375L6175 682.898H5775L5575 1029.3" fill="#80664d"/>
<path transform="matrix(.1,0,0,-.1,0,792)" stroke-width="70" stroke-linecap="butt" stroke-linejoin="bevel" fill="none" stroke="#ffe6b2" d="M5175 1029.3 5375 682.898H4975L5175 336.5H5575L5775-9.89844H6175L5975 336.5H6375L6175 682.898H5775L5575 1029.3Z"/>
<path transform="matrix(.1,0,0,-.1,0,792)" d="M4975 7611.1 5175 7957.5 4975 8303.9 5175 8650.3 4975 8996.8 4775 8650.3 4575 8996.8 4375 8650.3 4575 8303.9 4375 7957.5 4575 7611.1 4775 7957.5" fill="#80664d"/>
<path transform="matrix(.1,0,0,-.1,0,792)" stroke-width="70" stroke-linecap="butt" stroke-linejoin="bevel" fill="none" stroke="#ffe6b2" d="M4975 7611.1 5175 7957.5 4975 8303.9 5175 8650.3 4975 8996.8 4775 8650.3 4575 8996.8 4375 8650.3 4575 8303.9 4375 7957.5 4575 7611.1 4775 7957.5Z"/>
<path transform="matrix(.1,0,0,-.1,0,792)" d="M2975 7611.1 3175 7957.5H3575L3375 8303.9 3575 8650.3H3175L2975 8996.8 2775 8650.3H2375L2575 8303.9 2375 7957.5H2775" fill="#80664d"/>
<path transform="matrix(.1,0,0,-.1,0,792)" stroke-width="70" stroke-linecap="butt" stroke-linejoin="bevel" fill="none" stroke="#ffe6b2" d="M2975 7611.1 3175 7957.5H3575L3375 8303.9 3575 8650.3H3175L2975 8996.8 2775 8650.3H2375L2575 8303.9 2375 7957.5H2775Z"/>
<path transform="matrix(.1,0,0,-.1,0,792)" d="M1375 7611.1 1575 7957.5 1375 8303.9 1575 8650.3 1375 8996.8 1175 8650.3 975 8996.8 775 8650.3 975 8303.9 775 7957.5 975 7611.1 1175 7957.5" fill="#80664d"/>
<path transform="matrix(.1,0,0,-.1,0,792)" stroke-width="70" stroke-linecap="butt" stroke-linejoin="bevel" fill="none" stroke="#ffe6b2" d="M1375 7611.1 1575 7957.5 1375 8303.9 1575 8650.3 1375 8996.8 1175 8650.3 975 8996.8 775 8650.3 975 8303.9 775 7957.5 975 7611.1 1175 7957.5Z"/>
<path transform="matrix(.1,0,0,-.1,0,792)" d="M975 682.898 775 336.5 975-9.89844 775-356.301 975-702.699 1175-356.301 1375-702.699 1575-356.301 1375-9.89844 1575 336.5 1375 682.898 1175 336.5" fill="#80664d"/>
<path transform="matrix(.1,0,0,-.1,0,792)" stroke-width="70" stroke-linecap="butt" stroke-linejoin="bevel" fill="none" stroke="#ffe6b2" d="M975 682.898 775 336.5 975-9.89844 775-356.301 975-702.699 1175-356.301 1375-702.699 1575-356.301 1375-9.89844 1575 336.5 1375 682.898 1175 336.5Z"/>
<path transform="matrix(.1,0,0,-.1,0,792)" d="M2975 682.898 2775 336.5H2375L2575-9.89844 2375-356.301H2775L2975-702.699 3175-356.301H3575L3375-9.89844 3575 336.5H3175" fill="#80664d"/>
<path transform="matrix(.1,0,0,-.1,0,792)" stroke-width="70" stroke-linecap="butt" stroke-linejoin="bevel" fill="none" stroke="#ffe6b2" d="M2975 682.898 2775 336.5H2375L2575-9.89844 2375-356.301H2775L2975-702.699 3175-356.301H3575L3375-9.89844 3575 336.5H3175Z"/>
<path transform="matrix(.1,0,0,-.1,0,792)" d="M4575 682.898 4375 336.5 4575-9.89844 4375-356.301 4575-702.699 4775-356.301 4975-702.699 5175-356.301 4975-9.89844 5175 336.5 4975 682.898 4775 336.5" fill="#80664d"/>
<path transform="matrix(.1,0,0,-.1,0,792)" stroke-width="70" stroke-linecap="butt" stroke-linejoin="bevel" fill="none" stroke="#ffe6b2" d="M4575 682.898 4375 336.5 4575-9.89844 4375-356.301 4575-702.699 4775-356.301 4975-702.699 5175-356.301 4975-9.89844 5175 336.5 4975 682.898 4775 336.5Z"/>
<path transform="matrix(.1,0,0,-.1,0,792)" d="M5575 1029.3 5775 682.898H6175L6375 1029.3 6175 1375.7H5775" fill="#80664d"/>
<path transform="matrix(.1,0,0,-.1,0,792)" stroke-width="70" stroke-linecap="butt" stroke-linejoin="bevel" fill="none" stroke="#ffe6b2" d="M5575 1029.3 5775 682.898H6175L6375 1029.3 6175 1375.7H5775Z"/>
<path transform="matrix(.1,0,0,-.1,0,792)" d="M5575 3107.8 5775 2761.4H6175L6375 3107.8 6175 3454.2H5775" fill="#80664d"/>
<path transform="matrix(.1,0,0,-.1,0,792)" stroke-width="70" stroke-linecap="butt" stroke-linejoin="bevel" fill="none" stroke="#ffe6b2" d="M5575 3107.8 5775 2761.4H6175L6375 3107.8 6175 3454.2H5775Z"/>
<path transform="matrix(.1,0,0,-.1,0,792)" d="M5575 5186.2 5775 4839.8H6175L6375 5186.2 6175 5532.7H5775" fill="#80664d"/>
<path transform="matrix(.1,0,0,-.1,0,792)" stroke-width="70" stroke-linecap="butt" stroke-linejoin="bevel" fill="none" stroke="#ffe6b2" d="M5575 5186.2 5775 4839.8H6175L6375 5186.2 6175 5532.7H5775Z"/>
<path transform="matrix(.1,0,0,-.1,0,792)" d="M5575 7264.7 5775 6918.3H6175L6375 7264.7 6175 7611.1H5775" fill="#80664d"/>
<path transform="matrix(.1,0,0,-.1,0,792)" stroke-width="70" stroke-linecap="butt" stroke-linejoin="bevel" fill="none" stroke="#ffe6b2" d="M5575 7264.7 5775 6918.3H6175L6375 7264.7 6175 7611.1H5775Z"/>
<path transform="matrix(.1,0,0,-.1,0,792)" d="M375 7264.7 175 7611.1H-225L-425 7264.7-225 6918.3H175" fill="#80664d"/>
<path transform="matrix(.1,0,0,-.1,0,792)" stroke-width="70" stroke-linecap="butt" stroke-linejoin="bevel" fill="none" stroke="#ffe6b2" d="M375 7264.7 175 7611.1H-225L-425 7264.7-225 6918.3H175Z"/>
<path transform="matrix(.1,0,0,-.1,0,792)" d="M375 5186.2 175 5532.7H-225L-425 5186.2-225 4839.8H175" fill="#80664d"/>
<path transform="matrix(.1,0,0,-.1,0,792)" stroke-width="70" stroke-linecap="butt" stroke-linejoin="bevel" fill="none" stroke="#ffe6b2" d="M375 5186.2 175 5532.7H-225L-425 5186.2-225 4839.8H175Z"/>
<path transform="matrix(.1,0,0,-.1,0,792)" d="M375 3107.8 175 3454.2H-225L-425 3107.8-225 2761.4H175" fill="#80664d"/>
<path transform="matrix(.1,0,0,-.1,0,792)" stroke-width="70" stroke-linecap="butt" stroke-linejoin="bevel" fill="none" stroke="#ffe6b2" d="M375 3107.8 175 3454.2H-225L-425 3107.8-225 2761.4H175Z"/>
<path transform="matrix(.1,0,0,-.1,0,792)" d="M375 1029.3 175 1375.7H-225L-425 1029.3-225 682.898H175" fill="#80664d"/>
<path transform="matrix(.1,0,0,-.1,0,792)" stroke-width="70" stroke-linecap="butt" stroke-linejoin="bevel" fill="none" stroke="#ffe6b2" d="M375 1029.3 175 1375.7H-225L-425 1029.3-225 682.898H175Z"/>
<path transform="matrix(.1,0,0,-.1,0,792)" d="M375 336.5 175-9.89844 375-356.301H775L975-9.89844 775 336.5" fill="#80664d"/>
<path transform="matrix(.1,0,0,-.1,0,792)" stroke-width="70" stroke-linecap="butt" stroke-linejoin="bevel" fill="none" stroke="#ffe6b2" d="M375 336.5 175-9.89844 375-356.301H775L975-9.89844 775 336.5Z"/>
<path transform="matrix(.1,0,0,-.1,0,792)" d="M1575 336.5 1375-9.89844 1575-356.301H1975L2175-9.89844 1975 336.5" fill="#80664d"/>
<path transform="matrix(.1,0,0,-.1,0,792)" stroke-width="70" stroke-linecap="butt" stroke-linejoin="bevel" fill="none" stroke="#ffe6b2" d="M1575 336.5 1375-9.89844 1575-356.301H1975L2175-9.89844 1975 336.5Z"/>
<path transform="matrix(.1,0,0,-.1,0,792)" d="M3975 336.5 3775-9.89844 3975-356.301H4375L4575-9.89844 4375 336.5" fill="#80664d"/>
<path transform="matrix(.1,0,0,-.1,0,792)" stroke-width="70" stroke-linecap="butt" stroke-linejoin="bevel" fill="none" stroke="#ffe6b2" d="M3975 336.5 3775-9.89844 3975-356.301H4375L4575-9.89844 4375 336.5Z"/>
<path transform="matrix(.1,0,0,-.1,0,792)" d="M5175 336.5 4975-9.89844 5175-356.301H5575L5775-9.89844 5575 336.5" fill="#80664d"/>
<path transform="matrix(.1,0,0,-.1,0,792)" stroke-width="70" stroke-linecap="butt" stroke-linejoin="bevel" fill="none" stroke="#ffe6b2" d="M5175 336.5 4975-9.89844 5175-356.301H5575L5775-9.89844 5575 336.5Z"/>
<path transform="matrix(.1,0,0,-.1,0,792)" stroke-width="70" stroke-linecap="butt" stroke-linejoin="bevel" fill="none" stroke="#ffe6b2" d="M-25 7957.5-225 8303.9-25 8650.3H-425L-625 8996.8-825 8650.3H-1225L-1025 8303.9-1225 7957.5H-825L-625 7611.1-425 7957.5Z"/>
<path transform="matrix(.1,0,0,-.1,0,792)" stroke-width="70" stroke-linecap="butt" stroke-linejoin="bevel" fill="none" stroke="#ffe6b2" d="M-25 6571.9H-425L-625 6918.3-825 6571.9H-1225L-1025 6225.5-1225 5879.1H-825L-625 5532.7-425 5879.1H-25L-225 6225.5Z"/>
<path transform="matrix(.1,0,0,-.1,0,792)" stroke-width="70" stroke-linecap="butt" stroke-linejoin="bevel" fill="none" stroke="#ffe6b2" d="M-25 4493.4H-425L-625 4839.8-825 4493.4H-1225L-1025 4147-1225 3800.6H-825L-625 3454.2-425 3800.6H-25L-225 4147Z"/>
<path transform="matrix(.1,0,0,-.1,0,792)" stroke-width="70" stroke-linecap="butt" stroke-linejoin="bevel" fill="none" stroke="#ffe6b2" d="M-25 2415H-425L-625 2761.4-825 2415H-1225L-1025 2068.6-1225 1722.1H-825L-625 1375.7-425 1722.1H-25L-225 2068.6Z"/>
<path transform="matrix(.1,0,0,-.1,0,792)" stroke-width="70" stroke-linecap="butt" stroke-linejoin="bevel" fill="none" stroke="#ffe6b2" d="M-25 336.5H-425L-625 682.898-825 336.5H-1225L-1025-9.89844-1225-356.301H-825L-625-702.699-425-356.301H-25L-225-9.89844Z"/>
<path transform="matrix(.1,0,0,-.1,0,792)" d="M5975 336.5 6175-9.89844 5975-356.301H6375L6575-702.699 6775-356.301H7175L6975-9.89844 7175 336.5H6775L6575 682.898 6375 336.5" fill="#80664d"/>
<path transform="matrix(.1,0,0,-.1,0,792)" stroke-width="70" stroke-linecap="butt" stroke-linejoin="bevel" fill="none" stroke="#ffe6b2" d="M5975 336.5 6175-9.89844 5975-356.301H6375L6575-702.699 6775-356.301H7175L6975-9.89844 7175 336.5H6775L6575 682.898 6375 336.5Z"/>
<path transform="matrix(.1,0,0,-.1,0,792)" d="M5975 1722.1H6375L6575 1375.7 6775 1722.1H7175L6975 2068.6 7175 2415H6775L6575 2761.4 6375 2415H5975L6175 2068.6" fill="#80664d"/>
<path transform="matrix(.1,0,0,-.1,0,792)" stroke-width="70" stroke-linecap="butt" stroke-linejoin="bevel" fill="none" stroke="#ffe6b2" d="M5975 1722.1H6375L6575 1375.7 6775 1722.1H7175L6975 2068.6 7175 2415H6775L6575 2761.4 6375 2415H5975L6175 2068.6Z"/>
<path transform="matrix(.1,0,0,-.1,0,792)" d="M5975 3800.6H6375L6575 3454.2 6775 3800.6H7175L6975 4147 7175 4493.4H6775L6575 4839.8 6375 4493.4H5975L6175 4147" fill="#80664d"/>
<path transform="matrix(.1,0,0,-.1,0,792)" stroke-width="70" stroke-linecap="butt" stroke-linejoin="bevel" fill="none" stroke="#ffe6b2" d="M5975 3800.6H6375L6575 3454.2 6775 3800.6H7175L6975 4147 7175 4493.4H6775L6575 4839.8 6375 4493.4H5975L6175 4147Z"/>
<path transform="matrix(.1,0,0,-.1,0,792)" d="M5975 5879.1H6375L6575 5532.7 6775 5879.1H7175L6975 6225.5 7175 6571.9H6775L6575 6918.3 6375 6571.9H5975L6175 6225.5" fill="#80664d"/>
<path transform="matrix(.1,0,0,-.1,0,792)" stroke-width="70" stroke-linecap="butt" stroke-linejoin="bevel" fill="none" stroke="#ffe6b2" d="M5975 5879.1H6375L6575 5532.7 6775 5879.1H7175L6975 6225.5 7175 6571.9H6775L6575 6918.3 6375 6571.9H5975L6175 6225.5Z"/>
<path transform="matrix(.1,0,0,-.1,0,792)" d="M5975 7957.5H6375L6575 7611.1 6775 7957.5H7175L6975 8303.9 7175 8650.3H6775L6575 8996.8 6375 8650.3H5975L6175 8303.9" fill="#80664d"/>
<path transform="matrix(.1,0,0,-.1,0,792)" stroke-width="70" stroke-linecap="butt" stroke-linejoin="bevel" fill="none" stroke="#ffe6b2" d="M5975 7957.5H6375L6575 7611.1 6775 7957.5H7175L6975 8303.9 7175 8650.3H6775L6575 8996.8 6375 8650.3H5975L6175 8303.9Z"/>
<path transform="matrix(.1,0,0,-.1,0,792)" stroke-width="70" stroke-linecap="butt" stroke-linejoin="bevel" fill="none" stroke="#ffe6b2" d="M175-9.89844H-225L-25-356.301H-425L-225-702.699H175L375-1049.1H775L575-702.699H975L775-356.301H375Z"/>
<path transform="matrix(.1,0,0,-.1,0,792)" stroke-width="70" stroke-linecap="butt" stroke-linejoin="bevel" fill="none" stroke="#ffe6b2" d="M2175-9.89844 1975-356.301H1575L1375-702.699H1775L1575-1049.1H1975L2175-702.699H2575L2775-356.301H2375L2575-9.89844Z"/>
<path transform="matrix(.1,0,0,-.1,0,792)" stroke-width="70" stroke-linecap="butt" stroke-linejoin="bevel" fill="none" stroke="#ffe6b2" d="M3375-9.89844 3575-356.301H3175L3375-702.699H3775L3975-1049.1H4375L4175-702.699H4575L4375-356.301H3975L3775-9.89844Z"/>
<path transform="matrix(.1,0,0,-.1,0,792)" stroke-width="70" stroke-linecap="butt" stroke-linejoin="bevel" fill="none" stroke="#ffe6b2" d="M5775-9.89844 5575-356.301H5175L4975-702.699H5375L5175-1049.1H5575L5775-702.699H6175L6375-356.301H5975L6175-9.89844Z"/>
</svg>
