<svg xmlns="http://www.w3.org/2000/svg" xmlns:xlink="http://www.w3.org/1999/xlink" xmlns:inkscape="http://www.inkscape.org/namespaces/inkscape" version="1.1" width="612" height="792" viewBox="0 0 612 792">
<path transform="matrix(.1,0,0,-.1,0,792)" d="M1277.9 1664.4 1985.1 2371.5 4813.5 5199.9 4106.4 5907.1 3399.3 5199.9 570.801 2371.5" fill="#0df5f2"/>
<path transform="matrix(.1,0,0,-.1,0,792)" stroke-width="15" stroke-linecap="butt" stroke-miterlimit="10" stroke-linejoin="miter" fill="none" stroke="#000000" d="M1277.9 1664.4 1985.1 2371.5 4813.5 5199.9 4106.4 5907.1 3399.3 5199.9 570.801 2371.5Z"/>
<path transform="matrix(.1,0,0,-.1,0,792)" d="M3399.3 5199.9 2692.2 5907.1 1985.1 5199.9-843.398 2371.5-136.301 1664.4 570.801 2371.5" fill="#0df5f2"/>
<path transform="matrix(.1,0,0,-.1,0,792)" stroke-width="15" stroke-linecap="butt" stroke-miterlimit="10" stroke-linejoin="miter" fill="none" stroke="#000000" d="M3399.3 5199.9 2692.2 5907.1 1985.1 5199.9-843.398 2371.5-136.301 1664.4 570.801 2371.5Z"/>
<path transform="matrix(.1,0,0,-.1,0,792)" d="M3399.3 5199.9 4106.4 5907.1 1277.9 8735.5 570.801 9442.6-136.301 8735.5 2692.2 5907.1" fill="#c4b23d"/>
<path transform="matrix(.1,0,0,-.1,0,792)" stroke-width="15" stroke-linecap="butt" stroke-miterlimit="10" stroke-linejoin="miter" fill="none" stroke="#000000" d="M3399.3 5199.9 4106.4 5907.1 1277.9 8735.5 570.801 9442.6-136.301 8735.5 2692.2 5907.1Z"/>
<path transform="matrix(.1,0,0,-.1,0,792)" d="M1985.1 5199.9 1277.9 5907.1 570.801 5199.9-2257.6 2371.5-1550.5 1664.4-843.398 2371.5" fill="#0df5f2"/>
<path transform="matrix(.1,0,0,-.1,0,792)" stroke-width="15" stroke-linecap="butt" stroke-miterlimit="10" stroke-linejoin="miter" fill="none" stroke="#000000" d="M1985.1 5199.9 1277.9 5907.1 570.801 5199.9-2257.6 2371.5-1550.5 1664.4-843.398 2371.5Z"/>
<path transform="matrix(.1,0,0,-.1,0,792)" d="M1985.1 5199.9 2692.2 5907.1-136.301 8735.5-843.398 9442.6-1550.5 8735.5 1277.9 5907.1" fill="#c4b23d"/>
<path transform="matrix(.1,0,0,-.1,0,792)" stroke-width="15" stroke-linecap="butt" stroke-miterlimit="10" stroke-linejoin="miter" fill="none" stroke="#000000" d="M1985.1 5199.9 2692.2 5907.1-136.301 8735.5-843.398 9442.6-1550.5 8735.5 1277.9 5907.1Z"/>
<path transform="matrix(.1,0,0,-.1,0,792)" d="M4106.4 5907.1 4813.5 5199.9 5520.6 5907.1 2692.2 8735.5 1985.1 9442.6 1277.9 8735.5" fill="#c4b23d"/>
<path transform="matrix(.1,0,0,-.1,0,792)" stroke-width="15" stroke-linecap="butt" stroke-miterlimit="10" stroke-linejoin="miter" fill="none" stroke="#000000" d="M4106.4 5907.1 4813.5 5199.9 5520.6 5907.1 2692.2 8735.5 1985.1 9442.6 1277.9 8735.5Z"/>
<path transform="matrix(.1,0,0,-.1,0,792)" d="M1985.1 2371.5 2692.2 1664.4 3399.3 2371.5 6227.7 5199.9 5520.6 5907.1 4813.5 5199.9" fill="#0df5f2"/>
<path transform="matrix(.1,0,0,-.1,0,792)" stroke-width="15" stroke-linecap="butt" stroke-miterlimit="10" stroke-linejoin="miter" fill="none" stroke="#000000" d="M1985.1 2371.5 2692.2 1664.4 3399.3 2371.5 6227.7 5199.9 5520.6 5907.1 4813.5 5199.9Z"/>
<path transform="matrix(.1,0,0,-.1,0,792)" d="M1985.1 2371.5 1277.9 1664.4 4106.4-1164 4813.5-1871.1 5520.6-1164 2692.2 1664.4" fill="#c4b23d"/>
<path transform="matrix(.1,0,0,-.1,0,792)" stroke-width="15" stroke-linecap="butt" stroke-miterlimit="10" stroke-linejoin="miter" fill="none" stroke="#000000" d="M1985.1 2371.5 1277.9 1664.4 4106.4-1164 4813.5-1871.1 5520.6-1164 2692.2 1664.4Z"/>
<path transform="matrix(.1,0,0,-.1,0,792)" d="M3399.3 2371.5 4106.4 1664.4 4813.5 2371.5 7641.9 5199.9 6934.8 5907.1 6227.7 5199.9" fill="#0df5f2"/>
<path transform="matrix(.1,0,0,-.1,0,792)" stroke-width="15" stroke-linecap="butt" stroke-miterlimit="10" stroke-linejoin="miter" fill="none" stroke="#000000" d="M3399.3 2371.5 4106.4 1664.4 4813.5 2371.5 7641.9 5199.9 6934.8 5907.1 6227.7 5199.9Z"/>
<path transform="matrix(.1,0,0,-.1,0,792)" d="M3399.3 2371.5 2692.2 1664.4 5520.6-1164 6227.7-1871.1 6934.8-1164 4106.4 1664.4" fill="#c4b23d"/>
<path transform="matrix(.1,0,0,-.1,0,792)" stroke-width="15" stroke-linecap="butt" stroke-miterlimit="10" stroke-linejoin="miter" fill="none" stroke="#000000" d="M3399.3 2371.5 2692.2 1664.4 5520.6-1164 6227.7-1871.1 6934.8-1164 4106.4 1664.4Z"/>
<path transform="matrix(.1,0,0,-.1,0,792)" d="M1277.9 5907.1-1550.5 8735.5-2257.6 9442.6-2964.7 8735.5-136.301 5907.1 570.801 5199.9" fill="#c4b23d"/>
<path transform="matrix(.1,0,0,-.1,0,792)" stroke-width="15" stroke-linecap="butt" stroke-miterlimit="10" stroke-linejoin="miter" fill="none" stroke="#000000" d="M1277.9 5907.1-1550.5 8735.5-2257.6 9442.6-2964.7 8735.5-136.301 5907.1 570.801 5199.9Z"/>
<path transform="matrix(.1,0,0,-.1,0,792)" d="M4813.5 2371.5 5520.6 1664.4 6227.7 2371.5 9056.1 5199.9 8349 5907.1 7641.9 5199.9" fill="#0df5f2"/>
<path transform="matrix(.1,0,0,-.1,0,792)" stroke-width="15" stroke-linecap="butt" stroke-miterlimit="10" stroke-linejoin="miter" fill="none" stroke="#000000" d="M4813.5 2371.5 5520.6 1664.4 6227.7 2371.5 9056.1 5199.9 8349 5907.1 7641.9 5199.9Z"/>
<path transform="matrix(.1,0,0,-.1,0,792)" d="M4813.5 2371.5 4106.4 1664.4 6934.8-1164 7641.9-1871.1 8349-1164 5520.6 1664.4" fill="#c4b23d"/>
<path transform="matrix(.1,0,0,-.1,0,792)" stroke-width="15" stroke-linecap="butt" stroke-miterlimit="10" stroke-linejoin="miter" fill="none" stroke="#000000" d="M4813.5 2371.5 4106.4 1664.4 6934.8-1164 7641.9-1871.1 8349-1164 5520.6 1664.4Z"/>
<path transform="matrix(.1,0,0,-.1,0,792)" d="M570.801 5199.9-136.301 5907.1-843.398 5199.9-3671.8 2371.5-2964.7 1664.4-2257.6 2371.5" fill="#0df5f2"/>
<path transform="matrix(.1,0,0,-.1,0,792)" stroke-width="15" stroke-linecap="butt" stroke-miterlimit="10" stroke-linejoin="miter" fill="none" stroke="#000000" d="M570.801 5199.9-136.301 5907.1-843.398 5199.9-3671.8 2371.5-2964.7 1664.4-2257.6 2371.5Z"/>
<path transform="matrix(.1,0,0,-.1,0,792)" d="M570.801 2371.5-136.301 1664.4 2692.2-1164 3399.3-1871.1 4106.4-1164 1277.9 1664.4" fill="#c4b23d"/>
<path transform="matrix(.1,0,0,-.1,0,792)" stroke-width="15" stroke-linecap="butt" stroke-miterlimit="10" stroke-linejoin="miter" fill="none" stroke="#000000" d="M570.801 2371.5-136.301 1664.4 2692.2-1164 3399.3-1871.1 4106.4-1164 1277.9 1664.4Z"/>
<path transform="matrix(.1,0,0,-.1,0,792)" d="M5520.6 1664.4 8349-1164 9056.1-1871.1 9763.2-1164 6934.8 1664.4 6227.7 2371.5" fill="#c4b23d"/>
<path transform="matrix(.1,0,0,-.1,0,792)" stroke-width="15" stroke-linecap="butt" stroke-miterlimit="10" stroke-linejoin="miter" fill="none" stroke="#000000" d="M5520.6 1664.4 8349-1164 9056.1-1871.1 9763.2-1164 6934.8 1664.4 6227.7 2371.5Z"/>
<path transform="matrix(.1,0,0,-.1,0,792)" d="M5520.6 5907.1 6227.7 5199.9 6934.8 5907.1 4106.4 8735.5 3399.3 9442.6 2692.2 8735.5" fill="#c4b23d"/>
<path transform="matrix(.1,0,0,-.1,0,792)" stroke-width="15" stroke-linecap="butt" stroke-miterlimit="10" stroke-linejoin="miter" fill="none" stroke="#000000" d="M5520.6 5907.1 6227.7 5199.9 6934.8 5907.1 4106.4 8735.5 3399.3 9442.6 2692.2 8735.5Z"/>
<path transform="matrix(.1,0,0,-.1,0,792)" d="M-136.301 1664.4-843.398 2371.5-1550.5 1664.4 1277.9-1164 1985.1-1871.1 2692.2-1164" fill="#c4b23d"/>
<path transform="matrix(.1,0,0,-.1,0,792)" stroke-width="15" stroke-linecap="butt" stroke-miterlimit="10" stroke-linejoin="miter" fill="none" stroke="#000000" d="M-136.301 1664.4-843.398 2371.5-1550.5 1664.4 1277.9-1164 1985.1-1871.1 2692.2-1164Z"/>
<path transform="matrix(.1,0,0,-.1,0,792)" d="M4106.4 8735.5 6934.8 5907.1 7641.9 5199.9 8349 5907.1 5520.6 8735.5 4813.5 9442.6" fill="#c4b23d"/>
<path transform="matrix(.1,0,0,-.1,0,792)" stroke-width="15" stroke-linecap="butt" stroke-miterlimit="10" stroke-linejoin="miter" fill="none" stroke="#000000" d="M4106.4 8735.5 6934.8 5907.1 7641.9 5199.9 8349 5907.1 5520.6 8735.5 4813.5 9442.6Z"/>
<path transform="matrix(.1,0,0,-.1,0,792)" d="M5520.6 8735.5 8349 5907.1 9056.1 5199.9 9763.2 5907.1 6934.8 8735.5 6227.7 9442.6" fill="#c4b23d"/>
<path transform="matrix(.1,0,0,-.1,0,792)" stroke-width="15" stroke-linecap="butt" stroke-miterlimit="10" stroke-linejoin="miter" fill="none" stroke="#000000" d="M5520.6 8735.5 8349 5907.1 9056.1 5199.9 9763.2 5907.1 6934.8 8735.5 6227.7 9442.6Z"/>
</svg>
