<svg xmlns="http://www.w3.org/2000/svg" xmlns:xlink="http://www.w3.org/1999/xlink" xmlns:inkscape="http://www.inkscape.org/namespaces/inkscape" version="1.1" width="612" height="792" viewBox="0 0 612 792">
<path transform="matrix(.1,0,0,-.1,0,792)" d="M2975 3055.3 3475 3921.3 2975 4787.4 2475 3921.3Z" fill="#6eb04a"/>
<path transform="matrix(.1,0,0,-.1,0,792)" stroke-width="15" stroke-linecap="butt" stroke-miterlimit="10" stroke-linejoin="miter" fill="none" stroke="#000000" d="M2975 3055.3 3475 3921.3 2975 4787.4 2475 3921.3Z"/>
<path transform="matrix(.1,0,0,-.1,0,792)" d="M2975 4787.4 1475 5121.3V3921.3H2475Z" fill="#b026b0"/>
<path transform="matrix(.1,0,0,-.1,0,792)" stroke-width="15" stroke-linecap="butt" stroke-miterlimit="10" stroke-linejoin="miter" fill="none" stroke="#000000" d="M2975 4787.4 1475 5121.3V3921.3H2475Z"/>
<path transform="matrix(.1,0,0,-.1,0,792)" d="M2975 4787.4V5987.4H1975L1475 5121.3Z" fill="#b026b0"/>
<path transform="matrix(.1,0,0,-.1,0,792)" stroke-width="15" stroke-linecap="butt" stroke-miterlimit="10" stroke-linejoin="miter" fill="none" stroke="#000000" d="M2975 4787.4V5987.4H1975L1475 5121.3Z"/>
<path transform="matrix(.1,0,0,-.1,0,792)" d="M2975 4787.4 4475 5121.3 3975 5987.4H2975Z" fill="#59d9f8"/>
<path transform="matrix(.1,0,0,-.1,0,792)" stroke-width="15" stroke-linecap="butt" stroke-miterlimit="10" stroke-linejoin="miter" fill="none" stroke="#000000" d="M2975 4787.4 4475 5121.3 3975 5987.4H2975Z"/>
<path transform="matrix(.1,0,0,-.1,0,792)" d="M2975 4787.4 3475 3921.3H4475V5121.3Z" fill="#59d9f8"/>
<path transform="matrix(.1,0,0,-.1,0,792)" stroke-width="15" stroke-linecap="butt" stroke-miterlimit="10" stroke-linejoin="miter" fill="none" stroke="#000000" d="M2975 4787.4 3475 3921.3H4475V5121.3Z"/>
<path transform="matrix(.1,0,0,-.1,0,792)" d="M3475 3921.3 2975 3055.3 4475 2721.3V3921.3Z" fill="#b026b0"/>
<path transform="matrix(.1,0,0,-.1,0,792)" stroke-width="15" stroke-linecap="butt" stroke-miterlimit="10" stroke-linejoin="miter" fill="none" stroke="#000000" d="M3475 3921.3 2975 3055.3 4475 2721.3V3921.3Z"/>
<path transform="matrix(.1,0,0,-.1,0,792)" d="M2475 3921.3H1475V2721.3L2975 3055.3Z" fill="#59d9f8"/>
<path transform="matrix(.1,0,0,-.1,0,792)" stroke-width="15" stroke-linecap="butt" stroke-miterlimit="10" stroke-linejoin="miter" fill="none" stroke="#000000" d="M2475 3921.3H1475V2721.3L2975 3055.3Z"/>
<path transform="matrix(.1,0,0,-.1,0,792)" d="M2975 3055.3V1855.3H3975L4475 2721.3Z" fill="#b026b0"/>
<path transform="matrix(.1,0,0,-.1,0,792)" stroke-width="15" stroke-linecap="butt" stroke-miterlimit="10" stroke-linejoin="miter" fill="none" stroke="#000000" d="M2975 3055.3V1855.3H3975L4475 2721.3Z"/>
<path transform="matrix(.1,0,0,-.1,0,792)" d="M2975 3055.3 1475 2721.3 1975 1855.3H2975Z" fill="#59d9f8"/>
<path transform="matrix(.1,0,0,-.1,0,792)" stroke-width="15" stroke-linecap="butt" stroke-miterlimit="10" stroke-linejoin="miter" fill="none" stroke="#000000" d="M2975 3055.3 1475 2721.3 1975 1855.3H2975Z"/>
<path transform="matrix(.1,0,0,-.1,0,792)" d="M3975 5987.4 4475 6853.4 2975 7187.4V5987.4Z" fill="#b026b0"/>
<path transform="matrix(.1,0,0,-.1,0,792)" stroke-width="15" stroke-linecap="butt" stroke-miterlimit="10" stroke-linejoin="miter" fill="none" stroke="#000000" d="M3975 5987.4 4475 6853.4 2975 7187.4V5987.4Z"/>
<path transform="matrix(.1,0,0,-.1,0,792)" d="M3975 5987.4 4475 5121.3 4975 5987.4 4475 6853.4Z" fill="#6eb04a"/>
<path transform="matrix(.1,0,0,-.1,0,792)" stroke-width="15" stroke-linecap="butt" stroke-miterlimit="10" stroke-linejoin="miter" fill="none" stroke="#000000" d="M3975 5987.4 4475 5121.3 4975 5987.4 4475 6853.4Z"/>
<path transform="matrix(.1,0,0,-.1,0,792)" d="M2975 5987.4V7187.4L1475 6853.4 1975 5987.4Z" fill="#59d9f8"/>
<path transform="matrix(.1,0,0,-.1,0,792)" stroke-width="15" stroke-linecap="butt" stroke-miterlimit="10" stroke-linejoin="miter" fill="none" stroke="#000000" d="M2975 5987.4V7187.4L1475 6853.4 1975 5987.4Z"/>
<path transform="matrix(.1,0,0,-.1,0,792)" d="M1975 5987.4 1475 6853.4 975 5987.4 1475 5121.3Z" fill="#6eb04a"/>
<path transform="matrix(.1,0,0,-.1,0,792)" stroke-width="15" stroke-linecap="butt" stroke-miterlimit="10" stroke-linejoin="miter" fill="none" stroke="#000000" d="M1975 5987.4 1475 6853.4 975 5987.4 1475 5121.3Z"/>
<path transform="matrix(.1,0,0,-.1,0,792)" d="M1475 5121.3-25 4787.4 475 3921.3H1475Z" fill="#59d9f8"/>
<path transform="matrix(.1,0,0,-.1,0,792)" stroke-width="15" stroke-linecap="butt" stroke-miterlimit="10" stroke-linejoin="miter" fill="none" stroke="#000000" d="M1475 5121.3-25 4787.4 475 3921.3H1475Z"/>
<path transform="matrix(.1,0,0,-.1,0,792)" d="M1475 5121.3 975 5987.4H-25V4787.4Z" fill="#59d9f8"/>
<path transform="matrix(.1,0,0,-.1,0,792)" stroke-width="15" stroke-linecap="butt" stroke-miterlimit="10" stroke-linejoin="miter" fill="none" stroke="#000000" d="M1475 5121.3 975 5987.4H-25V4787.4Z"/>
<path transform="matrix(.1,0,0,-.1,0,792)" d="M1475 3921.3H475L-25 3055.3 1475 2721.3Z" fill="#b026b0"/>
<path transform="matrix(.1,0,0,-.1,0,792)" stroke-width="15" stroke-linecap="butt" stroke-miterlimit="10" stroke-linejoin="miter" fill="none" stroke="#000000" d="M1475 3921.3H475L-25 3055.3 1475 2721.3Z"/>
<path transform="matrix(.1,0,0,-.1,0,792)" d="M1475 2721.3 975 1855.3 1475 989.301 1975 1855.3Z" fill="#6eb04a"/>
<path transform="matrix(.1,0,0,-.1,0,792)" stroke-width="15" stroke-linecap="butt" stroke-miterlimit="10" stroke-linejoin="miter" fill="none" stroke="#000000" d="M1475 2721.3 975 1855.3 1475 989.301 1975 1855.3Z"/>
<path transform="matrix(.1,0,0,-.1,0,792)" d="M1475 2721.3-25 3055.3V1855.3H975Z" fill="#b026b0"/>
<path transform="matrix(.1,0,0,-.1,0,792)" stroke-width="15" stroke-linecap="butt" stroke-miterlimit="10" stroke-linejoin="miter" fill="none" stroke="#000000" d="M1475 2721.3-25 3055.3V1855.3H975Z"/>
<path transform="matrix(.1,0,0,-.1,0,792)" d="M4475 2721.3 5975 3055.3 5475 3921.3H4475Z" fill="#59d9f8"/>
<path transform="matrix(.1,0,0,-.1,0,792)" stroke-width="15" stroke-linecap="butt" stroke-miterlimit="10" stroke-linejoin="miter" fill="none" stroke="#000000" d="M4475 2721.3 5975 3055.3 5475 3921.3H4475Z"/>
<path transform="matrix(.1,0,0,-.1,0,792)" d="M4475 2721.3 4975 1855.3H5975V3055.3Z" fill="#59d9f8"/>
<path transform="matrix(.1,0,0,-.1,0,792)" stroke-width="15" stroke-linecap="butt" stroke-miterlimit="10" stroke-linejoin="miter" fill="none" stroke="#000000" d="M4475 2721.3 4975 1855.3H5975V3055.3Z"/>
<path transform="matrix(.1,0,0,-.1,0,792)" d="M4475 2721.3 3975 1855.3 4475 989.301 4975 1855.3Z" fill="#6eb04a"/>
<path transform="matrix(.1,0,0,-.1,0,792)" stroke-width="15" stroke-linecap="butt" stroke-miterlimit="10" stroke-linejoin="miter" fill="none" stroke="#000000" d="M4475 2721.3 3975 1855.3 4475 989.301 4975 1855.3Z"/>
<path transform="matrix(.1,0,0,-.1,0,792)" d="M4475 3921.3H5475L5975 4787.4 4475 5121.3Z" fill="#b026b0"/>
<path transform="matrix(.1,0,0,-.1,0,792)" stroke-width="15" stroke-linecap="butt" stroke-miterlimit="10" stroke-linejoin="miter" fill="none" stroke="#000000" d="M4475 3921.3H5475L5975 4787.4 4475 5121.3Z"/>
<path transform="matrix(.1,0,0,-.1,0,792)" d="M4475 5121.3 5975 4787.4V5987.4H4975Z" fill="#b026b0"/>
<path transform="matrix(.1,0,0,-.1,0,792)" stroke-width="15" stroke-linecap="butt" stroke-miterlimit="10" stroke-linejoin="miter" fill="none" stroke="#000000" d="M4475 5121.3 5975 4787.4V5987.4H4975Z"/>
<path transform="matrix(.1,0,0,-.1,0,792)" d="M1975 1855.3 1475 989.301 2975 655.301V1855.3Z" fill="#b026b0"/>
<path transform="matrix(.1,0,0,-.1,0,792)" stroke-width="15" stroke-linecap="butt" stroke-miterlimit="10" stroke-linejoin="miter" fill="none" stroke="#000000" d="M1975 1855.3 1475 989.301 2975 655.301V1855.3Z"/>
<path transform="matrix(.1,0,0,-.1,0,792)" d="M2975 1855.3V655.301L4475 989.301 3975 1855.3Z" fill="#59d9f8"/>
<path transform="matrix(.1,0,0,-.1,0,792)" stroke-width="15" stroke-linecap="butt" stroke-miterlimit="10" stroke-linejoin="miter" fill="none" stroke="#000000" d="M2975 1855.3V655.301L4475 989.301 3975 1855.3Z"/>
<path transform="matrix(.1,0,0,-.1,0,792)" d="M4475 6853.4V8053.4H3475L2975 7187.4Z" fill="#b026b0"/>
<path transform="matrix(.1,0,0,-.1,0,792)" stroke-width="15" stroke-linecap="butt" stroke-miterlimit="10" stroke-linejoin="miter" fill="none" stroke="#000000" d="M4475 6853.4V8053.4H3475L2975 7187.4Z"/>
<path transform="matrix(.1,0,0,-.1,0,792)" d="M4475 6853.4 5975 7187.4 5475 8053.4H4475Z" fill="#59d9f8"/>
<path transform="matrix(.1,0,0,-.1,0,792)" stroke-width="15" stroke-linecap="butt" stroke-miterlimit="10" stroke-linejoin="miter" fill="none" stroke="#000000" d="M4475 6853.4 5975 7187.4 5475 8053.4H4475Z"/>
<path transform="matrix(.1,0,0,-.1,0,792)" d="M4475 6853.4 4975 5987.4H5975V7187.4Z" fill="#59d9f8"/>
<path transform="matrix(.1,0,0,-.1,0,792)" stroke-width="15" stroke-linecap="butt" stroke-miterlimit="10" stroke-linejoin="miter" fill="none" stroke="#000000" d="M4475 6853.4 4975 5987.4H5975V7187.4Z"/>
<path transform="matrix(.1,0,0,-.1,0,792)" d="M1475 6853.4-25 7187.4V5987.4H975Z" fill="#b026b0"/>
<path transform="matrix(.1,0,0,-.1,0,792)" stroke-width="15" stroke-linecap="butt" stroke-miterlimit="10" stroke-linejoin="miter" fill="none" stroke="#000000" d="M1475 6853.4-25 7187.4V5987.4H975Z"/>
<path transform="matrix(.1,0,0,-.1,0,792)" d="M1475 6853.4V8053.4H475L-25 7187.4Z" fill="#b026b0"/>
<path transform="matrix(.1,0,0,-.1,0,792)" stroke-width="15" stroke-linecap="butt" stroke-miterlimit="10" stroke-linejoin="miter" fill="none" stroke="#000000" d="M1475 6853.4V8053.4H475L-25 7187.4Z"/>
<path transform="matrix(.1,0,0,-.1,0,792)" d="M1475 6853.4 2975 7187.4 2475 8053.4H1475Z" fill="#59d9f8"/>
<path transform="matrix(.1,0,0,-.1,0,792)" stroke-width="15" stroke-linecap="butt" stroke-miterlimit="10" stroke-linejoin="miter" fill="none" stroke="#000000" d="M1475 6853.4 2975 7187.4 2475 8053.4H1475Z"/>
<path transform="matrix(.1,0,0,-.1,0,792)" d="M975 1855.3H-25V655.301L1475 989.301Z" fill="#59d9f8"/>
<path transform="matrix(.1,0,0,-.1,0,792)" stroke-width="15" stroke-linecap="butt" stroke-miterlimit="10" stroke-linejoin="miter" fill="none" stroke="#000000" d="M975 1855.3H-25V655.301L1475 989.301Z"/>
<path transform="matrix(.1,0,0,-.1,0,792)" d="M4975 1855.3 4475 989.301 5975 655.301V1855.3Z" fill="#b026b0"/>
<path transform="matrix(.1,0,0,-.1,0,792)" stroke-width="15" stroke-linecap="butt" stroke-miterlimit="10" stroke-linejoin="miter" fill="none" stroke="#000000" d="M4975 1855.3 4475 989.301 5975 655.301V1855.3Z"/>
<path transform="matrix(.1,0,0,-.1,0,792)" d="M2975 7187.4 3475 8053.4 2975 8919.4 2475 8053.4Z" fill="#6eb04a"/>
<path transform="matrix(.1,0,0,-.1,0,792)" stroke-width="15" stroke-linecap="butt" stroke-miterlimit="10" stroke-linejoin="miter" fill="none" stroke="#000000" d="M2975 7187.4 3475 8053.4 2975 8919.4 2475 8053.4Z"/>
<path transform="matrix(.1,0,0,-.1,0,792)" d="M1475 989.301V-210.699H2475L2975 655.301Z" fill="#b026b0"/>
<path transform="matrix(.1,0,0,-.1,0,792)" stroke-width="15" stroke-linecap="butt" stroke-miterlimit="10" stroke-linejoin="miter" fill="none" stroke="#000000" d="M1475 989.301V-210.699H2475L2975 655.301Z"/>
<path transform="matrix(.1,0,0,-.1,0,792)" d="M1475 989.301-25 655.301 475-210.699H1475Z" fill="#59d9f8"/>
<path transform="matrix(.1,0,0,-.1,0,792)" stroke-width="15" stroke-linecap="butt" stroke-miterlimit="10" stroke-linejoin="miter" fill="none" stroke="#000000" d="M1475 989.301-25 655.301 475-210.699H1475Z"/>
<path transform="matrix(.1,0,0,-.1,0,792)" d="M4475 989.301V-210.699H5475L5975 655.301Z" fill="#b026b0"/>
<path transform="matrix(.1,0,0,-.1,0,792)" stroke-width="15" stroke-linecap="butt" stroke-miterlimit="10" stroke-linejoin="miter" fill="none" stroke="#000000" d="M4475 989.301V-210.699H5475L5975 655.301Z"/>
<path transform="matrix(.1,0,0,-.1,0,792)" d="M4475 989.301 2975 655.301 3475-210.699H4475Z" fill="#59d9f8"/>
<path transform="matrix(.1,0,0,-.1,0,792)" stroke-width="15" stroke-linecap="butt" stroke-miterlimit="10" stroke-linejoin="miter" fill="none" stroke="#000000" d="M4475 989.301 2975 655.301 3475-210.699H4475Z"/>
<path transform="matrix(.1,0,0,-.1,0,792)" d="M5475 3921.3 5975 3055.3 6475 3921.3 5975 4787.4Z" fill="#6eb04a"/>
<path transform="matrix(.1,0,0,-.1,0,792)" stroke-width="15" stroke-linecap="butt" stroke-miterlimit="10" stroke-linejoin="miter" fill="none" stroke="#000000" d="M5475 3921.3 5975 3055.3 6475 3921.3 5975 4787.4Z"/>
<path transform="matrix(.1,0,0,-.1,0,792)" d="M475 3921.3-25 4787.4-525 3921.3-25 3055.3Z" fill="#6eb04a"/>
<path transform="matrix(.1,0,0,-.1,0,792)" stroke-width="15" stroke-linecap="butt" stroke-miterlimit="10" stroke-linejoin="miter" fill="none" stroke="#000000" d="M475 3921.3-25 4787.4-525 3921.3-25 3055.3Z"/>
<path transform="matrix(.1,0,0,-.1,0,792)" d="M2975 655.301 2475-210.699 2975-1076.8 3475-210.699Z" fill="#6eb04a"/>
<path transform="matrix(.1,0,0,-.1,0,792)" stroke-width="15" stroke-linecap="butt" stroke-miterlimit="10" stroke-linejoin="miter" fill="none" stroke="#000000" d="M2975 655.301 2475-210.699 2975-1076.8 3475-210.699Z"/>
<path transform="matrix(.1,0,0,-.1,0,792)" d="M5475 8053.4 5975 7187.4 6475 8053.4 5975 8919.4Z" fill="#6eb04a"/>
<path transform="matrix(.1,0,0,-.1,0,792)" stroke-width="15" stroke-linecap="butt" stroke-miterlimit="10" stroke-linejoin="miter" fill="none" stroke="#000000" d="M5475 8053.4 5975 7187.4 6475 8053.4 5975 8919.4Z"/>
<path transform="matrix(.1,0,0,-.1,0,792)" d="M475 8053.4-25 8919.4-525 8053.4-25 7187.4Z" fill="#6eb04a"/>
<path transform="matrix(.1,0,0,-.1,0,792)" stroke-width="15" stroke-linecap="butt" stroke-miterlimit="10" stroke-linejoin="miter" fill="none" stroke="#000000" d="M475 8053.4-25 8919.4-525 8053.4-25 7187.4Z"/>
<path transform="matrix(.1,0,0,-.1,0,792)" d="M-25 655.301-525-210.699-25-1076.8 475-210.699Z" fill="#6eb04a"/>
<path transform="matrix(.1,0,0,-.1,0,792)" stroke-width="15" stroke-linecap="butt" stroke-miterlimit="10" stroke-linejoin="miter" fill="none" stroke="#000000" d="M-25 655.301-525-210.699-25-1076.8 475-210.699Z"/>
<path transform="matrix(.1,0,0,-.1,0,792)" d="M5975 655.301 7475 989.301 6975 1855.3H5975Z" fill="#59d9f8"/>
<path transform="matrix(.1,0,0,-.1,0,792)" stroke-width="15" stroke-linecap="butt" stroke-miterlimit="10" stroke-linejoin="miter" fill="none" stroke="#000000" d="M5975 655.301 7475 989.301 6975 1855.3H5975Z"/>
<path transform="matrix(.1,0,0,-.1,0,792)" d="M5975 655.301 6475-210.699H7475V989.301Z" fill="#59d9f8"/>
<path transform="matrix(.1,0,0,-.1,0,792)" stroke-width="15" stroke-linecap="butt" stroke-miterlimit="10" stroke-linejoin="miter" fill="none" stroke="#000000" d="M5975 655.301 6475-210.699H7475V989.301Z"/>
<path transform="matrix(.1,0,0,-.1,0,792)" d="M5975 655.301 5475-210.699 5975-1076.8 6475-210.699Z" fill="#6eb04a"/>
<path transform="matrix(.1,0,0,-.1,0,792)" stroke-width="15" stroke-linecap="butt" stroke-miterlimit="10" stroke-linejoin="miter" fill="none" stroke="#000000" d="M5975 655.301 5475-210.699 5975-1076.8 6475-210.699Z"/>
<path transform="matrix(.1,0,0,-.1,0,792)" d="M5975 1855.3H6975L7475 2721.3 5975 3055.3Z" fill="#b026b0"/>
<path transform="matrix(.1,0,0,-.1,0,792)" stroke-width="15" stroke-linecap="butt" stroke-miterlimit="10" stroke-linejoin="miter" fill="none" stroke="#000000" d="M5975 1855.3H6975L7475 2721.3 5975 3055.3Z"/>
<path transform="matrix(.1,0,0,-.1,0,792)" d="M5975 3055.3 7475 2721.3V3921.3H6475Z" fill="#b026b0"/>
<path transform="matrix(.1,0,0,-.1,0,792)" stroke-width="15" stroke-linecap="butt" stroke-miterlimit="10" stroke-linejoin="miter" fill="none" stroke="#000000" d="M5975 3055.3 7475 2721.3V3921.3H6475Z"/>
<path transform="matrix(.1,0,0,-.1,0,792)" d="M5975 4787.4 7475 5121.3 6975 5987.4H5975Z" fill="#59d9f8"/>
<path transform="matrix(.1,0,0,-.1,0,792)" stroke-width="15" stroke-linecap="butt" stroke-miterlimit="10" stroke-linejoin="miter" fill="none" stroke="#000000" d="M5975 4787.4 7475 5121.3 6975 5987.4H5975Z"/>
<path transform="matrix(.1,0,0,-.1,0,792)" d="M5975 4787.4 6475 3921.3H7475V5121.3Z" fill="#59d9f8"/>
<path transform="matrix(.1,0,0,-.1,0,792)" stroke-width="15" stroke-linecap="butt" stroke-miterlimit="10" stroke-linejoin="miter" fill="none" stroke="#000000" d="M5975 4787.4 6475 3921.3H7475V5121.3Z"/>
<path transform="matrix(.1,0,0,-.1,0,792)" d="M5975 5987.4H6975L7475 6853.4 5975 7187.4Z" fill="#b026b0"/>
<path transform="matrix(.1,0,0,-.1,0,792)" stroke-width="15" stroke-linecap="butt" stroke-miterlimit="10" stroke-linejoin="miter" fill="none" stroke="#000000" d="M5975 5987.4H6975L7475 6853.4 5975 7187.4Z"/>
<path transform="matrix(.1,0,0,-.1,0,792)" d="M5975 7187.4 7475 6853.4V8053.4H6475Z" fill="#b026b0"/>
<path transform="matrix(.1,0,0,-.1,0,792)" stroke-width="15" stroke-linecap="butt" stroke-miterlimit="10" stroke-linejoin="miter" fill="none" stroke="#000000" d="M5975 7187.4 7475 6853.4V8053.4H6475Z"/>
</svg>
