<svg xmlns="http://www.w3.org/2000/svg" xmlns:xlink="http://www.w3.org/1999/xlink" xmlns:inkscape="http://www.inkscape.org/namespaces/inkscape" version="1.1" width="612" height="792" viewBox="0 0 612 792">
<path transform="matrix(.1,0,0,-.1,0,792)" d="M4106.4 4210 3257.8 5058.5 2409.3 4210 3257.8 3361.5Z" fill="#ffffff"/>
<path transform="matrix(.1,0,0,-.1,0,792)" stroke-width=".1" stroke-linecap="butt" stroke-miterlimit="10" stroke-linejoin="miter" fill="none" stroke="#000000" d="M4106.4 4210 3257.8 5058.5 2409.3 4210 3257.8 3361.5Z"/>
<path transform="matrix(.1,0,0,-.1,0,792)" d="M2409.3 4210V3361.5H3257.8" fill="#cc1a1a"/>
<path transform="matrix(.1,0,0,-.1,0,792)" stroke-width=".1" stroke-linecap="butt" stroke-miterlimit="10" stroke-linejoin="miter" fill="none" stroke="#000000" d="M2409.3 4210V3361.5H3257.8Z"/>
<path transform="matrix(.1,0,0,-.1,0,792)" d="M2409.3 4210V5058.5L1809.3 5658.5 1209.3 6258.5V5410 4561.5L1809.3 3961.5 2409.3 3361.5" fill="#ffffff"/>
<path transform="matrix(.1,0,0,-.1,0,792)" stroke-width=".1" stroke-linecap="butt" stroke-miterlimit="10" stroke-linejoin="miter" fill="none" stroke="#000000" d="M2409.3 4210V5058.5L1809.3 5658.5 1209.3 6258.5V5410 4561.5L1809.3 3961.5 2409.3 3361.5Z"/>
<path transform="matrix(.1,0,0,-.1,0,792)" d="M2409.3 4210 3257.8 5058.5H2409.3"/>
<path transform="matrix(.1,0,0,-.1,0,792)" stroke-width=".1" stroke-linecap="butt" stroke-miterlimit="10" stroke-linejoin="miter" fill="none" stroke="#000000" d="M2409.3 4210 3257.8 5058.5H2409.3Z"/>
<path transform="matrix(.1,0,0,-.1,0,792)" d="M3257.8 5058.5H4106.4L4706.4 5658.5 5306.4 6258.5H4457.8 3609.3L3009.3 5658.5 2409.3 5058.5" fill="#ffffff"/>
<path transform="matrix(.1,0,0,-.1,0,792)" stroke-width=".1" stroke-linecap="butt" stroke-miterlimit="10" stroke-linejoin="miter" fill="none" stroke="#000000" d="M3257.8 5058.5H4106.4L4706.4 5658.5 5306.4 6258.5H4457.8 3609.3L3009.3 5658.5 2409.3 5058.5Z"/>
<path transform="matrix(.1,0,0,-.1,0,792)" d="M3257.8 5058.5 4106.4 4210V5058.5" fill="#cc1a1a"/>
<path transform="matrix(.1,0,0,-.1,0,792)" stroke-width=".1" stroke-linecap="butt" stroke-miterlimit="10" stroke-linejoin="miter" fill="none" stroke="#000000" d="M3257.8 5058.5 4106.4 4210V5058.5Z"/>
<path transform="matrix(.1,0,0,-.1,0,792)" d="M3257.8 3361.5H4106.4V4210"/>
<path transform="matrix(.1,0,0,-.1,0,792)" stroke-width=".1" stroke-linecap="butt" stroke-miterlimit="10" stroke-linejoin="miter" fill="none" stroke="#000000" d="M3257.8 3361.5H4106.4V4210Z"/>
<path transform="matrix(.1,0,0,-.1,0,792)" d="M2409.3 3361.5 1809.3 2761.5 1209.3 2161.5H2906.4L3506.4 2761.5 4106.4 3361.5H3257.8" fill="#ffffff"/>
<path transform="matrix(.1,0,0,-.1,0,792)" stroke-width=".1" stroke-linecap="butt" stroke-miterlimit="10" stroke-linejoin="miter" fill="none" stroke="#000000" d="M2409.3 3361.5 1809.3 2761.5 1209.3 2161.5H2906.4L3506.4 2761.5 4106.4 3361.5H3257.8Z"/>
<path transform="matrix(.1,0,0,-.1,0,792)" d="M2409.3 3361.5 1809.3 3961.5V2761.5"/>
<path transform="matrix(.1,0,0,-.1,0,792)" stroke-width=".1" stroke-linecap="butt" stroke-miterlimit="10" stroke-linejoin="miter" fill="none" stroke="#000000" d="M2409.3 3361.5 1809.3 3961.5V2761.5Z"/>
<path transform="matrix(.1,0,0,-.1,0,792)" d="M2409.3 5058.5 3009.3 5658.5H1809.3" fill="#cc1a1a"/>
<path transform="matrix(.1,0,0,-.1,0,792)" stroke-width=".1" stroke-linecap="butt" stroke-miterlimit="10" stroke-linejoin="miter" fill="none" stroke="#000000" d="M2409.3 5058.5 3009.3 5658.5H1809.3Z"/>
<path transform="matrix(.1,0,0,-.1,0,792)" d="M1809.3 5658.5H3009.3V6858.5H1809.3Z" fill="#ffffff"/>
<path transform="matrix(.1,0,0,-.1,0,792)" stroke-width=".1" stroke-linecap="butt" stroke-miterlimit="10" stroke-linejoin="miter" fill="none" stroke="#000000" d="M1809.3 5658.5H3009.3V6858.5H1809.3Z"/>
<path transform="matrix(.1,0,0,-.1,0,792)" d="M3009.3 5658.5 3609.3 6258.5 3009.3 6858.5"/>
<path transform="matrix(.1,0,0,-.1,0,792)" stroke-width=".1" stroke-linecap="butt" stroke-miterlimit="10" stroke-linejoin="miter" fill="none" stroke="#000000" d="M3009.3 5658.5 3609.3 6258.5 3009.3 6858.5Z"/>
<path transform="matrix(.1,0,0,-.1,0,792)" d="M3506.4 2761.5H4706.4L4106.4 3361.5" fill="#cc1a1a"/>
<path transform="matrix(.1,0,0,-.1,0,792)" stroke-width=".1" stroke-linecap="butt" stroke-miterlimit="10" stroke-linejoin="miter" fill="none" stroke="#000000" d="M3506.4 2761.5H4706.4L4106.4 3361.5Z"/>
<path transform="matrix(.1,0,0,-.1,0,792)" d="M3506.4 1561.5H4706.4V2761.5H3506.4Z" fill="#ffffff"/>
<path transform="matrix(.1,0,0,-.1,0,792)" stroke-width=".1" stroke-linecap="butt" stroke-miterlimit="10" stroke-linejoin="miter" fill="none" stroke="#000000" d="M3506.4 1561.5H4706.4V2761.5H3506.4Z"/>
<path transform="matrix(.1,0,0,-.1,0,792)" d="M3506.4 2761.5 2906.4 2161.5 3506.4 1561.5"/>
<path transform="matrix(.1,0,0,-.1,0,792)" stroke-width=".1" stroke-linecap="butt" stroke-miterlimit="10" stroke-linejoin="miter" fill="none" stroke="#000000" d="M3506.4 2761.5 2906.4 2161.5 3506.4 1561.5Z"/>
<path transform="matrix(.1,0,0,-.1,0,792)" d="M4106.4 3361.5 4706.4 2761.5 5306.4 2161.5V3858.5L4706.4 4458.5 4106.4 5058.5V4210" fill="#ffffff"/>
<path transform="matrix(.1,0,0,-.1,0,792)" stroke-width=".1" stroke-linecap="butt" stroke-miterlimit="10" stroke-linejoin="miter" fill="none" stroke="#000000" d="M4106.4 3361.5 4706.4 2761.5 5306.4 2161.5V3858.5L4706.4 4458.5 4106.4 5058.5V4210Z"/>
<path transform="matrix(.1,0,0,-.1,0,792)" d="M4106.4 5058.5 4706.4 4458.5V5658.5"/>
<path transform="matrix(.1,0,0,-.1,0,792)" stroke-width=".1" stroke-linecap="butt" stroke-miterlimit="10" stroke-linejoin="miter" fill="none" stroke="#000000" d="M4106.4 5058.5 4706.4 4458.5V5658.5Z"/>
<path transform="matrix(.1,0,0,-.1,0,792)" d="M1809.3 5658.5V6858.5L1209.3 6258.5"/>
<path transform="matrix(.1,0,0,-.1,0,792)" stroke-width=".1" stroke-linecap="butt" stroke-miterlimit="10" stroke-linejoin="miter" fill="none" stroke="#000000" d="M1809.3 5658.5V6858.5L1209.3 6258.5Z"/>
<path transform="matrix(.1,0,0,-.1,0,792)" d="M609.301 2761.5H1809.301V3961.5H609.301Z" fill="#ffffff"/>
<path transform="matrix(.1,0,0,-.1,0,792)" stroke-width=".1" stroke-linecap="butt" stroke-miterlimit="10" stroke-linejoin="miter" fill="none" stroke="#000000" d="M609.301 2761.5H1809.301V3961.5H609.301Z"/>
<path transform="matrix(.1,0,0,-.1,0,792)" d="M1809.3 3961.5 1209.3 4561.5 609.301 3961.5" fill="#cc1a1a"/>
<path transform="matrix(.1,0,0,-.1,0,792)" stroke-width=".1" stroke-linecap="butt" stroke-miterlimit="10" stroke-linejoin="miter" fill="none" stroke="#000000" d="M1809.3 3961.5 1209.3 4561.5 609.301 3961.5Z"/>
<path transform="matrix(.1,0,0,-.1,0,792)" d="M1809.3 2761.5H609.301L1209.3 2161.5" fill="#cc1a1a"/>
<path transform="matrix(.1,0,0,-.1,0,792)" stroke-width=".1" stroke-linecap="butt" stroke-miterlimit="10" stroke-linejoin="miter" fill="none" stroke="#000000" d="M1809.3 2761.5H609.301L1209.3 2161.5Z"/>
<path transform="matrix(.1,0,0,-.1,0,792)" d="M2057.8 2161.5 2906.4 1312.9V2161.5" fill="#cc1a1a"/>
<path transform="matrix(.1,0,0,-.1,0,792)" stroke-width=".1" stroke-linecap="butt" stroke-miterlimit="10" stroke-linejoin="miter" fill="none" stroke="#000000" d="M2057.8 2161.5 2906.4 1312.9V2161.5Z"/>
<path transform="matrix(.1,0,0,-.1,0,792)" d="M2057.8 2161.5 1209.3 1312.9 2057.8 464.398 2906.4 1312.9Z" fill="#ffffff"/>
<path transform="matrix(.1,0,0,-.1,0,792)" stroke-width=".1" stroke-linecap="butt" stroke-miterlimit="10" stroke-linejoin="miter" fill="none" stroke="#000000" d="M2057.8 2161.5 1209.3 1312.9 2057.8 464.398 2906.4 1312.9Z"/>
<path transform="matrix(.1,0,0,-.1,0,792)" d="M2057.8 2161.5H1209.3V1312.9"/>
<path transform="matrix(.1,0,0,-.1,0,792)" stroke-width=".1" stroke-linecap="butt" stroke-miterlimit="10" stroke-linejoin="miter" fill="none" stroke="#000000" d="M2057.8 2161.5H1209.3V1312.9Z"/>
<path transform="matrix(.1,0,0,-.1,0,792)" d="M2906.4 2161.5V464.398L3506.4-135.602 4106.4-735.602V112.898 961.5L3506.4 1561.5" fill="#ffffff"/>
<path transform="matrix(.1,0,0,-.1,0,792)" stroke-width=".1" stroke-linecap="butt" stroke-miterlimit="10" stroke-linejoin="miter" fill="none" stroke="#000000" d="M2906.4 2161.5V464.398L3506.4-135.602 4106.4-735.602V112.898 961.5L3506.4 1561.5Z"/>
<path transform="matrix(.1,0,0,-.1,0,792)" d="M4457.8 6258.5 3609.3 7107.1V6258.5" fill="#cc1a1a"/>
<path transform="matrix(.1,0,0,-.1,0,792)" stroke-width=".1" stroke-linecap="butt" stroke-miterlimit="10" stroke-linejoin="miter" fill="none" stroke="#000000" d="M4457.8 6258.5 3609.3 7107.1V6258.5Z"/>
<path transform="matrix(.1,0,0,-.1,0,792)" d="M4457.8 6258.5 5306.4 7107.1 4457.8 7955.6 3609.3 7107.1Z" fill="#ffffff"/>
<path transform="matrix(.1,0,0,-.1,0,792)" stroke-width=".1" stroke-linecap="butt" stroke-miterlimit="10" stroke-linejoin="miter" fill="none" stroke="#000000" d="M4457.8 6258.5 5306.4 7107.1 4457.8 7955.6 3609.3 7107.1Z"/>
<path transform="matrix(.1,0,0,-.1,0,792)" d="M4457.8 6258.5H5306.4V7107.1"/>
<path transform="matrix(.1,0,0,-.1,0,792)" stroke-width=".1" stroke-linecap="butt" stroke-miterlimit="10" stroke-linejoin="miter" fill="none" stroke="#000000" d="M4457.8 6258.5H5306.4V7107.1Z"/>
<path transform="matrix(.1,0,0,-.1,0,792)" d="M3609.3 6258.5V7955.6L3009.3 8555.6 2409.3 9155.6V8307.1 7458.5L3009.3 6858.5" fill="#ffffff"/>
<path transform="matrix(.1,0,0,-.1,0,792)" stroke-width=".1" stroke-linecap="butt" stroke-miterlimit="10" stroke-linejoin="miter" fill="none" stroke="#000000" d="M3609.3 6258.5V7955.6L3009.3 8555.6 2409.3 9155.6V8307.1 7458.5L3009.3 6858.5Z"/>
<path transform="matrix(.1,0,0,-.1,0,792)" d="M4706.4 2761.5V1561.5L5306.4 2161.5"/>
<path transform="matrix(.1,0,0,-.1,0,792)" stroke-width=".1" stroke-linecap="butt" stroke-miterlimit="10" stroke-linejoin="miter" fill="none" stroke="#000000" d="M4706.4 2761.5V1561.5L5306.4 2161.5Z"/>
<path transform="matrix(.1,0,0,-.1,0,792)" d="M4706.4 4458.5H5906.4V5658.5H4706.4Z" fill="#ffffff"/>
<path transform="matrix(.1,0,0,-.1,0,792)" stroke-width=".1" stroke-linecap="butt" stroke-miterlimit="10" stroke-linejoin="miter" fill="none" stroke="#000000" d="M4706.4 4458.5H5906.4V5658.5H4706.4Z"/>
<path transform="matrix(.1,0,0,-.1,0,792)" d="M4706.4 4458.5 5306.4 3858.5 5906.4 4458.5" fill="#cc1a1a"/>
<path transform="matrix(.1,0,0,-.1,0,792)" stroke-width=".1" stroke-linecap="butt" stroke-miterlimit="10" stroke-linejoin="miter" fill="none" stroke="#000000" d="M4706.4 4458.5 5306.4 3858.5 5906.4 4458.5Z"/>
<path transform="matrix(.1,0,0,-.1,0,792)" d="M4706.4 5658.5H5906.4L5306.4 6258.5" fill="#cc1a1a"/>
<path transform="matrix(.1,0,0,-.1,0,792)" stroke-width=".1" stroke-linecap="butt" stroke-miterlimit="10" stroke-linejoin="miter" fill="none" stroke="#000000" d="M4706.4 5658.5H5906.4L5306.4 6258.5Z"/>
<path transform="matrix(.1,0,0,-.1,0,792)" d="M1209.3 6258.5H360.801L1209.3 5410" fill="#cc1a1a"/>
<path transform="matrix(.1,0,0,-.1,0,792)" stroke-width=".1" stroke-linecap="butt" stroke-miterlimit="10" stroke-linejoin="miter" fill="none" stroke="#000000" d="M1209.3 6258.5H360.801L1209.3 5410Z"/>
<path transform="matrix(.1,0,0,-.1,0,792)" d="M1209.3 6258.5 1809.3 6858.5 2409.3 7458.5H712.301L112.301 6858.5-487.699 6258.5H360.801" fill="#ffffff"/>
<path transform="matrix(.1,0,0,-.1,0,792)" stroke-width=".1" stroke-linecap="butt" stroke-miterlimit="10" stroke-linejoin="miter" fill="none" stroke="#000000" d="M1209.3 6258.5 1809.3 6858.5 2409.3 7458.5H712.301L112.301 6858.5-487.699 6258.5H360.801Z"/>
<path transform="matrix(.1,0,0,-.1,0,792)" d="M1209.3 5410 360.801 4561.5H1209.3"/>
<path transform="matrix(.1,0,0,-.1,0,792)" stroke-width=".1" stroke-linecap="butt" stroke-miterlimit="10" stroke-linejoin="miter" fill="none" stroke="#000000" d="M1209.3 5410 360.801 4561.5H1209.3Z"/>
<path transform="matrix(.1,0,0,-.1,0,792)" d="M1209.3 5410 360.801 6258.5-487.699 5410 360.801 4561.5Z" fill="#ffffff"/>
<path transform="matrix(.1,0,0,-.1,0,792)" stroke-width=".1" stroke-linecap="butt" stroke-miterlimit="10" stroke-linejoin="miter" fill="none" stroke="#000000" d="M1209.3 5410 360.801 6258.5-487.699 5410 360.801 4561.5Z"/>
<path transform="matrix(.1,0,0,-.1,0,792)" d="M1209.3 4561.5H-487.699L-1087.7 3961.5-1687.7 3361.5H-839.199 9.30078L609.301 3961.5" fill="#ffffff"/>
<path transform="matrix(.1,0,0,-.1,0,792)" stroke-width=".1" stroke-linecap="butt" stroke-miterlimit="10" stroke-linejoin="miter" fill="none" stroke="#000000" d="M1209.3 4561.5H-487.699L-1087.7 3961.5-1687.7 3361.5H-839.199 9.30078L609.301 3961.5Z"/>
<path transform="matrix(.1,0,0,-.1,0,792)" d="M1209.3 2161.5 609.301 2761.5 9.30078 3361.5V1664.4L609.301 1064.4 1209.3 464.398V1312.9" fill="#ffffff"/>
<path transform="matrix(.1,0,0,-.1,0,792)" stroke-width=".1" stroke-linecap="butt" stroke-miterlimit="10" stroke-linejoin="miter" fill="none" stroke="#000000" d="M1209.3 2161.5 609.301 2761.5 9.30078 3361.5V1664.4L609.301 1064.4 1209.3 464.398V1312.9Z"/>
<path transform="matrix(.1,0,0,-.1,0,792)" d="M3506.4 1561.5 4106.4 961.5 4706.4 1561.5" fill="#cc1a1a"/>
<path transform="matrix(.1,0,0,-.1,0,792)" stroke-width=".1" stroke-linecap="butt" stroke-miterlimit="10" stroke-linejoin="miter" fill="none" stroke="#000000" d="M3506.4 1561.5 4106.4 961.5 4706.4 1561.5Z"/>
<path transform="matrix(.1,0,0,-.1,0,792)" d="M4706.4 1561.5 4106.4 961.5H5803.4L6403.4 1561.5 7003.4 2161.5H6154.9 5306.4" fill="#ffffff"/>
<path transform="matrix(.1,0,0,-.1,0,792)" stroke-width=".1" stroke-linecap="butt" stroke-miterlimit="10" stroke-linejoin="miter" fill="none" stroke="#000000" d="M4706.4 1561.5 4106.4 961.5H5803.4L6403.4 1561.5 7003.4 2161.5H6154.9 5306.4Z"/>
<path transform="matrix(.1,0,0,-.1,0,792)" d="M3009.3 6858.5 2409.3 7458.5 1809.3 6858.5" fill="#cc1a1a"/>
<path transform="matrix(.1,0,0,-.1,0,792)" stroke-width=".1" stroke-linecap="butt" stroke-miterlimit="10" stroke-linejoin="miter" fill="none" stroke="#000000" d="M3009.3 6858.5 2409.3 7458.5 1809.3 6858.5Z"/>
<path transform="matrix(.1,0,0,-.1,0,792)" d="M1209.3 1312.9V464.398H2057.8" fill="#cc1a1a"/>
<path transform="matrix(.1,0,0,-.1,0,792)" stroke-width=".1" stroke-linecap="butt" stroke-miterlimit="10" stroke-linejoin="miter" fill="none" stroke="#000000" d="M1209.3 1312.9V464.398H2057.8Z"/>
<path transform="matrix(.1,0,0,-.1,0,792)" d="M2906.4 1312.9 2057.8 464.398H2906.4"/>
<path transform="matrix(.1,0,0,-.1,0,792)" stroke-width=".1" stroke-linecap="butt" stroke-miterlimit="10" stroke-linejoin="miter" fill="none" stroke="#000000" d="M2906.4 1312.9 2057.8 464.398H2906.4Z"/>
<path transform="matrix(.1,0,0,-.1,0,792)" d="M3609.3 7107.1 4457.8 7955.6H3609.3"/>
<path transform="matrix(.1,0,0,-.1,0,792)" stroke-width=".1" stroke-linecap="butt" stroke-miterlimit="10" stroke-linejoin="miter" fill="none" stroke="#000000" d="M3609.3 7107.1 4457.8 7955.6H3609.3Z"/>
<path transform="matrix(.1,0,0,-.1,0,792)" d="M5306.4 7107.1V7955.6H4457.8" fill="#cc1a1a"/>
<path transform="matrix(.1,0,0,-.1,0,792)" stroke-width=".1" stroke-linecap="butt" stroke-miterlimit="10" stroke-linejoin="miter" fill="none" stroke="#000000" d="M5306.4 7107.1V7955.6H4457.8Z"/>
<path transform="matrix(.1,0,0,-.1,0,792)" d="M5306.4 6258.5 5906.4 5658.5 6506.4 5058.5V6755.6L5906.4 7355.6 5306.4 7955.6V7107.1" fill="#ffffff"/>
<path transform="matrix(.1,0,0,-.1,0,792)" stroke-width=".1" stroke-linecap="butt" stroke-miterlimit="10" stroke-linejoin="miter" fill="none" stroke="#000000" d="M5306.4 6258.5 5906.4 5658.5 6506.4 5058.5V6755.6L5906.4 7355.6 5306.4 7955.6V7107.1Z"/>
<path transform="matrix(.1,0,0,-.1,0,792)" d="M5306.4 2161.5H6154.9L5306.4 3010" fill="#cc1a1a"/>
<path transform="matrix(.1,0,0,-.1,0,792)" stroke-width=".1" stroke-linecap="butt" stroke-miterlimit="10" stroke-linejoin="miter" fill="none" stroke="#000000" d="M5306.4 2161.5H6154.9L5306.4 3010Z"/>
<path transform="matrix(.1,0,0,-.1,0,792)" d="M5306.4 3010 6154.9 3858.5H5306.4"/>
<path transform="matrix(.1,0,0,-.1,0,792)" stroke-width=".1" stroke-linecap="butt" stroke-miterlimit="10" stroke-linejoin="miter" fill="none" stroke="#000000" d="M5306.4 3010 6154.9 3858.5H5306.4Z"/>
<path transform="matrix(.1,0,0,-.1,0,792)" d="M5306.4 3010 6154.9 2161.5 7003.4 3010 6154.9 3858.5Z" fill="#ffffff"/>
<path transform="matrix(.1,0,0,-.1,0,792)" stroke-width=".1" stroke-linecap="butt" stroke-miterlimit="10" stroke-linejoin="miter" fill="none" stroke="#000000" d="M5306.4 3010 6154.9 2161.5 7003.4 3010 6154.9 3858.5Z"/>
<path transform="matrix(.1,0,0,-.1,0,792)" d="M5306.4 3858.5H7003.4L7603.4 4458.5 8203.4 5058.5H7354.9 6506.4L5906.4 4458.5" fill="#ffffff"/>
<path transform="matrix(.1,0,0,-.1,0,792)" stroke-width=".1" stroke-linecap="butt" stroke-miterlimit="10" stroke-linejoin="miter" fill="none" stroke="#000000" d="M5306.4 3858.5H7003.4L7603.4 4458.5 8203.4 5058.5H7354.9 6506.4L5906.4 4458.5Z"/>
<path transform="matrix(.1,0,0,-.1,0,792)" d="M2409.3 7458.5V8307.1L1560.8 7458.5"/>
<path transform="matrix(.1,0,0,-.1,0,792)" stroke-width=".1" stroke-linecap="butt" stroke-miterlimit="10" stroke-linejoin="miter" fill="none" stroke="#000000" d="M2409.3 7458.5V8307.1L1560.8 7458.5Z"/>
<path transform="matrix(.1,0,0,-.1,0,792)" d="M1560.8 7458.5 712.301 8307.1V7458.5" fill="#cc1a1a"/>
<path transform="matrix(.1,0,0,-.1,0,792)" stroke-width=".1" stroke-linecap="butt" stroke-miterlimit="10" stroke-linejoin="miter" fill="none" stroke="#000000" d="M1560.8 7458.5 712.301 8307.1V7458.5Z"/>
<path transform="matrix(.1,0,0,-.1,0,792)" d="M1560.8 7458.5 2409.3 8307.1 1560.8 9155.6 712.301 8307.1Z" fill="#ffffff"/>
<path transform="matrix(.1,0,0,-.1,0,792)" stroke-width=".1" stroke-linecap="butt" stroke-miterlimit="10" stroke-linejoin="miter" fill="none" stroke="#000000" d="M1560.8 7458.5 2409.3 8307.1 1560.8 9155.6 712.301 8307.1Z"/>
<path transform="matrix(.1,0,0,-.1,0,792)" d="M712.301 7458.5 112.301 8058.5V6858.5"/>
<path transform="matrix(.1,0,0,-.1,0,792)" stroke-width=".1" stroke-linecap="butt" stroke-miterlimit="10" stroke-linejoin="miter" fill="none" stroke="#000000" d="M712.301 7458.5 112.301 8058.5V6858.5Z"/>
<path transform="matrix(.1,0,0,-.1,0,792)" d="M712.301 7458.5V9155.6L112.301 9755.6-487.699 10355.6V9507.1 8658.5L112.301 8058.5" fill="#ffffff"/>
<path transform="matrix(.1,0,0,-.1,0,792)" stroke-width=".1" stroke-linecap="butt" stroke-miterlimit="10" stroke-linejoin="miter" fill="none" stroke="#000000" d="M712.301 7458.5V9155.6L112.301 9755.6-487.699 10355.6V9507.1 8658.5L112.301 8058.5Z"/>
<path transform="matrix(.1,0,0,-.1,0,792)" d="M4106.4 961.5V112.898L4954.9 961.5"/>
<path transform="matrix(.1,0,0,-.1,0,792)" stroke-width=".1" stroke-linecap="butt" stroke-miterlimit="10" stroke-linejoin="miter" fill="none" stroke="#000000" d="M4106.4 961.5V112.898L4954.9 961.5Z"/>
<path transform="matrix(.1,0,0,-.1,0,792)" d="M4954.9 961.5 5803.4 112.898V961.5" fill="#cc1a1a"/>
<path transform="matrix(.1,0,0,-.1,0,792)" stroke-width=".1" stroke-linecap="butt" stroke-miterlimit="10" stroke-linejoin="miter" fill="none" stroke="#000000" d="M4954.9 961.5 5803.4 112.898V961.5Z"/>
<path transform="matrix(.1,0,0,-.1,0,792)" d="M4954.9 961.5 4106.4 112.898 4954.9-735.602 5803.4 112.898Z" fill="#ffffff"/>
<path transform="matrix(.1,0,0,-.1,0,792)" stroke-width=".1" stroke-linecap="butt" stroke-miterlimit="10" stroke-linejoin="miter" fill="none" stroke="#000000" d="M4954.9 961.5 4106.4 112.898 4954.9-735.602 5803.4 112.898Z"/>
<path transform="matrix(.1,0,0,-.1,0,792)" d="M609.301 3961.5 9.30078 3361.5 609.301 2761.5"/>
<path transform="matrix(.1,0,0,-.1,0,792)" stroke-width=".1" stroke-linecap="butt" stroke-miterlimit="10" stroke-linejoin="miter" fill="none" stroke="#000000" d="M609.301 3961.5 9.30078 3361.5 609.301 2761.5Z"/>
<path transform="matrix(.1,0,0,-.1,0,792)" d="M609.301 1064.4V-135.602L1209.3 464.398"/>
<path transform="matrix(.1,0,0,-.1,0,792)" stroke-width=".1" stroke-linecap="butt" stroke-miterlimit="10" stroke-linejoin="miter" fill="none" stroke="#000000" d="M609.301 1064.4V-135.602L1209.3 464.398Z"/>
<path transform="matrix(.1,0,0,-.1,0,792)" d="M0 0H609.301V1064.4H0Z" fill="#ffffff"/>
<path transform="matrix(.1,0,0,-.1,0,792)" stroke-width=".1" stroke-linecap="butt" stroke-miterlimit="10" stroke-linejoin="miter" fill="none" stroke="#000000" d="M-1.04688-1.04688H609.30117V1064.4031H-1.04688Z"/>
<path transform="matrix(.1,0,0,-.1,0,792)" d="M609.301 1064.4 9.30078 1664.4-590.699 1064.4" fill="#cc1a1a"/>
<path transform="matrix(.1,0,0,-.1,0,792)" stroke-width=".1" stroke-linecap="butt" stroke-miterlimit="10" stroke-linejoin="miter" fill="none" stroke="#000000" d="M609.301 1064.4 9.30078 1664.4-590.699 1064.4Z"/>
<path transform="matrix(.1,0,0,-.1,0,792)" d="M360.801 6258.5H-487.699V5410"/>
<path transform="matrix(.1,0,0,-.1,0,792)" stroke-width=".1" stroke-linecap="butt" stroke-miterlimit="10" stroke-linejoin="miter" fill="none" stroke="#000000" d="M360.801 6258.5H-487.699V5410Z"/>
<path transform="matrix(.1,0,0,-.1,0,792)" d="M360.801 4561.5-487.699 5410V4561.5" fill="#cc1a1a"/>
<path transform="matrix(.1,0,0,-.1,0,792)" stroke-width=".1" stroke-linecap="butt" stroke-miterlimit="10" stroke-linejoin="miter" fill="none" stroke="#000000" d="M360.801 4561.5-487.699 5410V4561.5Z"/>
<path transform="matrix(.1,0,0,-.1,0,792)" d="M1209.3 464.398 609.301-135.602 9.30078-735.602H1706.4L2306.4-135.602 2906.4 464.398H2057.8" fill="#ffffff"/>
<path transform="matrix(.1,0,0,-.1,0,792)" stroke-width=".1" stroke-linecap="butt" stroke-miterlimit="10" stroke-linejoin="miter" fill="none" stroke="#000000" d="M1209.3 464.398 609.301-135.602 9.30078-735.602H1706.4L2306.4-135.602 2906.4 464.398H2057.8Z"/>
<path transform="matrix(.1,0,0,-.1,0,792)" d="M2906.4 464.398 2306.4-135.602H3506.4" fill="#cc1a1a"/>
<path transform="matrix(.1,0,0,-.1,0,792)" stroke-width=".1" stroke-linecap="butt" stroke-miterlimit="10" stroke-linejoin="miter" fill="none" stroke="#000000" d="M2906.4 464.398 2306.4-135.602H3506.4Z"/>
<path transform="matrix(.1,0,0,-.1,0,792)" d="M5306.4 7955.6 5906.4 7355.6V8555.6"/>
<path transform="matrix(.1,0,0,-.1,0,792)" stroke-width=".1" stroke-linecap="butt" stroke-miterlimit="10" stroke-linejoin="miter" fill="none" stroke="#000000" d="M5306.4 7955.6 5906.4 7355.6V8555.6Z"/>
<path transform="matrix(.1,0,0,-.1,0,792)" d="M5803.4 961.5 6403.4 361.5V1561.5"/>
<path transform="matrix(.1,0,0,-.1,0,792)" stroke-width=".1" stroke-linecap="butt" stroke-miterlimit="10" stroke-linejoin="miter" fill="none" stroke="#000000" d="M5803.4 961.5 6403.4 361.5V1561.5Z"/>
<path transform="matrix(.1,0,0,-.1,0,792)" d="M5803.4 961.5V-735.602L6403.4-1335.6 7003.4-1935.6V-1087.1-238.5L6403.4 361.5" fill="#ffffff"/>
<path transform="matrix(.1,0,0,-.1,0,792)" stroke-width=".1" stroke-linecap="butt" stroke-miterlimit="10" stroke-linejoin="miter" fill="none" stroke="#000000" d="M5803.4 961.5V-735.602L6403.4-1335.6 7003.4-1935.6V-1087.1-238.5L6403.4 361.5Z"/>
<path transform="matrix(.1,0,0,-.1,0,792)" d="M0 6858.5H112.301V8058.5H0Z" fill="#ffffff"/>
<path transform="matrix(.1,0,0,-.1,0,792)" stroke-width=".1" stroke-linecap="butt" stroke-miterlimit="10" stroke-linejoin="miter" fill="none" stroke="#000000" d="M-1.04688 6858.5H112.30112V8058.5H-1.04688Z"/>
<path transform="matrix(.1,0,0,-.1,0,792)" d="M112.301 6858.5H-1087.7L-487.699 6258.5" fill="#cc1a1a"/>
<path transform="matrix(.1,0,0,-.1,0,792)" stroke-width=".1" stroke-linecap="butt" stroke-miterlimit="10" stroke-linejoin="miter" fill="none" stroke="#000000" d="M112.301 6858.5H-1087.7L-487.699 6258.5Z"/>
<path transform="matrix(.1,0,0,-.1,0,792)" d="M5906.4 4458.5 6506.4 5058.5 5906.4 5658.5"/>
<path transform="matrix(.1,0,0,-.1,0,792)" stroke-width=".1" stroke-linecap="butt" stroke-miterlimit="10" stroke-linejoin="miter" fill="none" stroke="#000000" d="M5906.4 4458.5 6506.4 5058.5 5906.4 5658.5Z"/>
<path transform="matrix(.1,0,0,-.1,0,792)" d="M5906.4 7355.6H7106.4V8555.6H5906.4Z" fill="#ffffff"/>
<path transform="matrix(.1,0,0,-.1,0,792)" stroke-width=".1" stroke-linecap="butt" stroke-miterlimit="10" stroke-linejoin="miter" fill="none" stroke="#000000" d="M5906.4 7355.6H7106.4V8555.6H5906.4Z"/>
<path transform="matrix(.1,0,0,-.1,0,792)" d="M5906.4 7355.6 6506.4 6755.6 7106.4 7355.6" fill="#cc1a1a"/>
<path transform="matrix(.1,0,0,-.1,0,792)" stroke-width=".1" stroke-linecap="butt" stroke-miterlimit="10" stroke-linejoin="miter" fill="none" stroke="#000000" d="M5906.4 7355.6 6506.4 6755.6 7106.4 7355.6Z"/>
<path transform="matrix(.1,0,0,-.1,0,792)" d="M9.30078 3361.5H-839.199L9.30078 2512.9" fill="#cc1a1a"/>
<path transform="matrix(.1,0,0,-.1,0,792)" stroke-width=".1" stroke-linecap="butt" stroke-miterlimit="10" stroke-linejoin="miter" fill="none" stroke="#000000" d="M9.30078 3361.5H-839.199L9.30078 2512.9Z"/>
<path transform="matrix(.1,0,0,-.1,0,792)" d="M9.30078 2512.9-839.199 1664.4H9.30078"/>
<path transform="matrix(.1,0,0,-.1,0,792)" stroke-width=".1" stroke-linecap="butt" stroke-miterlimit="10" stroke-linejoin="miter" fill="none" stroke="#000000" d="M9.30078 2512.9-839.199 1664.4H9.30078Z"/>
<path transform="matrix(.1,0,0,-.1,0,792)" d="M9.30078 2512.9-839.199 3361.5-1687.7 2512.9-839.199 1664.4Z" fill="#ffffff"/>
<path transform="matrix(.1,0,0,-.1,0,792)" stroke-width=".1" stroke-linecap="butt" stroke-miterlimit="10" stroke-linejoin="miter" fill="none" stroke="#000000" d="M9.30078 2512.9-839.199 3361.5-1687.7 2512.9-839.199 1664.4Z"/>
<path transform="matrix(.1,0,0,-.1,0,792)" d="M9.30078 1664.4H-1687.7L-2287.7 1064.4-2887.7 464.398H-2039.2-1190.7L-590.699 1064.4" fill="#ffffff"/>
<path transform="matrix(.1,0,0,-.1,0,792)" stroke-width=".1" stroke-linecap="butt" stroke-miterlimit="10" stroke-linejoin="miter" fill="none" stroke="#000000" d="M9.30078 1664.4H-1687.7L-2287.7 1064.4-2887.7 464.398H-2039.2-1190.7L-590.699 1064.4Z"/>
<path transform="matrix(.1,0,0,-.1,0,792)" d="M4106.4 112.898V-735.602H4954.9" fill="#cc1a1a"/>
<path transform="matrix(.1,0,0,-.1,0,792)" stroke-width=".1" stroke-linecap="butt" stroke-miterlimit="10" stroke-linejoin="miter" fill="none" stroke="#000000" d="M4106.4 112.898V-735.602H4954.9Z"/>
<path transform="matrix(.1,0,0,-.1,0,792)" d="M5803.4 112.898 4954.9-735.602H5803.4"/>
<path transform="matrix(.1,0,0,-.1,0,792)" stroke-width=".1" stroke-linecap="butt" stroke-miterlimit="10" stroke-linejoin="miter" fill="none" stroke="#000000" d="M5803.4 112.898 4954.9-735.602H5803.4Z"/>
<path transform="matrix(.1,0,0,-.1,0,792)" d="M-590.699-135.602-1190.7 464.398V-1232.6L-590.699-1832.6 9.30078-2432.6V-1584.1-735.602" fill="#ffffff"/>
<path transform="matrix(.1,0,0,-.1,0,792)" stroke-width=".1" stroke-linecap="butt" stroke-miterlimit="10" stroke-linejoin="miter" fill="none" stroke="#000000" d="M-590.699-135.602-1190.7 464.398V-1232.6L-590.699-1832.6 9.30078-2432.6V-1584.1-735.602Z"/>
</svg>
