<svg xmlns="http://www.w3.org/2000/svg" xmlns:xlink="http://www.w3.org/1999/xlink" xmlns:inkscape="http://www.inkscape.org/namespaces/inkscape" version="1.1" width="612" height="792" viewBox="0 0 612 792">
<path transform="matrix(.1,0,0,-.1,0,792)" d="M2975 3695 3116.4 3836.4H3316.4V4036.4L3457.8 4177.8 3316.4 4319.2V4519.2H3116.4L2975 4660.7 2833.6 4519.2H2633.6V4319.2L2492.2 4177.8 2633.6 4036.4V3836.4H2833.6"/>
<path transform="matrix(.1,0,0,-.1,0,792)" stroke-width="15" stroke-linecap="butt" stroke-miterlimit="10" stroke-linejoin="miter" fill="none" stroke="#ffffff" d="M2975 3695 3116.4 3836.4H3316.4V4036.4L3457.8 4177.8 3316.4 4319.2V4519.2H3116.4L2975 4660.7 2833.6 4519.2H2633.6V4319.2L2492.2 4177.8 2633.6 4036.4V3836.4H2833.6Z"/>
<path transform="matrix(.1,0,0,-.1,0,792)" d="M3116.4 4519.2H3316.4V5002.1L2975 4660.7Z" fill="#ffffff"/>
<path transform="matrix(.1,0,0,-.1,0,792)" stroke-width="15" stroke-linecap="butt" stroke-miterlimit="10" stroke-linejoin="miter" fill="none" stroke="#ffffff" d="M3116.4 4519.2H3316.4V5002.1L2975 4660.7Z"/>
<path transform="matrix(.1,0,0,-.1,0,792)" d="M2833.6 4519.2 2975 4660.7 2633.6 5002.1V4519.2Z" fill="#ffffff"/>
<path transform="matrix(.1,0,0,-.1,0,792)" stroke-width="15" stroke-linecap="butt" stroke-miterlimit="10" stroke-linejoin="miter" fill="none" stroke="#ffffff" d="M2833.6 4519.2 2975 4660.7 2633.6 5002.1V4519.2Z"/>
<path transform="matrix(.1,0,0,-.1,0,792)" d="M2833.6 3836.4H2633.6V3353.5L2975 3695Z" fill="#ffffff"/>
<path transform="matrix(.1,0,0,-.1,0,792)" stroke-width="15" stroke-linecap="butt" stroke-miterlimit="10" stroke-linejoin="miter" fill="none" stroke="#ffffff" d="M2833.6 3836.4H2633.6V3353.5L2975 3695Z"/>
<path transform="matrix(.1,0,0,-.1,0,792)" d="M3116.4 3836.4 2975 3695 3316.4 3353.5V3836.4Z" fill="#ffffff"/>
<path transform="matrix(.1,0,0,-.1,0,792)" stroke-width="15" stroke-linecap="butt" stroke-miterlimit="10" stroke-linejoin="miter" fill="none" stroke="#ffffff" d="M3116.4 3836.4 2975 3695 3316.4 3353.5V3836.4Z"/>
<path transform="matrix(.1,0,0,-.1,0,792)" d="M2975 4660.7 3316.4 5002.1V5202.1L2975 5343.5 2633.6 5202.1V5002.1" fill="#0000bf"/>
<path transform="matrix(.1,0,0,-.1,0,792)" stroke-width="15" stroke-linecap="butt" stroke-miterlimit="10" stroke-linejoin="miter" fill="none" stroke="#ffffff" d="M2975 4660.7 3316.4 5002.1V5202.1L2975 5343.5 2633.6 5202.1V5002.1Z"/>
<path transform="matrix(.1,0,0,-.1,0,792)" d="M3316.4 4519.2H3799.3L3940.7 4660.7 3799.3 5002.1 3457.8 5143.5 3316.4 5002.1" fill="#0000bf"/>
<path transform="matrix(.1,0,0,-.1,0,792)" stroke-width="15" stroke-linecap="butt" stroke-miterlimit="10" stroke-linejoin="miter" fill="none" stroke="#ffffff" d="M3316.4 4519.2H3799.3L3940.7 4660.7 3799.3 5002.1 3457.8 5143.5 3316.4 5002.1Z"/>
<path transform="matrix(.1,0,0,-.1,0,792)" d="M3316.4 4319.2 3457.8 4177.8 3799.3 4519.2H3316.4Z" fill="#ffffff"/>
<path transform="matrix(.1,0,0,-.1,0,792)" stroke-width="15" stroke-linecap="butt" stroke-miterlimit="10" stroke-linejoin="miter" fill="none" stroke="#ffffff" d="M3316.4 4319.2 3457.8 4177.8 3799.3 4519.2H3316.4Z"/>
<path transform="matrix(.1,0,0,-.1,0,792)" d="M3316.4 4036.4V3836.4H3799.3L3457.8 4177.8Z" fill="#ffffff"/>
<path transform="matrix(.1,0,0,-.1,0,792)" stroke-width="15" stroke-linecap="butt" stroke-miterlimit="10" stroke-linejoin="miter" fill="none" stroke="#ffffff" d="M3316.4 4036.4V3836.4H3799.3L3457.8 4177.8Z"/>
<path transform="matrix(.1,0,0,-.1,0,792)" d="M3316.4 3836.4V3353.5L3457.8 3212.1 3799.3 3353.5 3940.7 3695 3799.3 3836.4" fill="#0000bf"/>
<path transform="matrix(.1,0,0,-.1,0,792)" stroke-width="15" stroke-linecap="butt" stroke-miterlimit="10" stroke-linejoin="miter" fill="none" stroke="#ffffff" d="M3316.4 3836.4V3353.5L3457.8 3212.1 3799.3 3353.5 3940.7 3695 3799.3 3836.4Z"/>
<path transform="matrix(.1,0,0,-.1,0,792)" d="M2633.6 4519.2H2150.7L2492.2 4177.8 2633.6 4319.2Z" fill="#ffffff"/>
<path transform="matrix(.1,0,0,-.1,0,792)" stroke-width="15" stroke-linecap="butt" stroke-miterlimit="10" stroke-linejoin="miter" fill="none" stroke="#ffffff" d="M2633.6 4519.2H2150.7L2492.2 4177.8 2633.6 4319.2Z"/>
<path transform="matrix(.1,0,0,-.1,0,792)" d="M2633.6 4519.2V5002.1L2492.2 5143.5 2150.7 5002.1 2009.3 4660.7 2150.7 4519.2" fill="#0000bf"/>
<path transform="matrix(.1,0,0,-.1,0,792)" stroke-width="15" stroke-linecap="butt" stroke-miterlimit="10" stroke-linejoin="miter" fill="none" stroke="#ffffff" d="M2633.6 4519.2V5002.1L2492.2 5143.5 2150.7 5002.1 2009.3 4660.7 2150.7 4519.2Z"/>
<path transform="matrix(.1,0,0,-.1,0,792)" d="M2633.6 4036.4 2492.2 4177.8 2150.7 3836.4H2633.6Z" fill="#ffffff"/>
<path transform="matrix(.1,0,0,-.1,0,792)" stroke-width="15" stroke-linecap="butt" stroke-miterlimit="10" stroke-linejoin="miter" fill="none" stroke="#ffffff" d="M2633.6 4036.4 2492.2 4177.8 2150.7 3836.4H2633.6Z"/>
<path transform="matrix(.1,0,0,-.1,0,792)" d="M2633.6 3836.4H2150.7L2009.3 3695 2150.7 3353.5 2492.2 3212.1 2633.6 3353.5" fill="#0000bf"/>
<path transform="matrix(.1,0,0,-.1,0,792)" stroke-width="15" stroke-linecap="butt" stroke-miterlimit="10" stroke-linejoin="miter" fill="none" stroke="#ffffff" d="M2633.6 3836.4H2150.7L2009.3 3695 2150.7 3353.5 2492.2 3212.1 2633.6 3353.5Z"/>
<path transform="matrix(.1,0,0,-.1,0,792)" d="M2975 3695 2633.6 3353.5V3153.5L2975 3012.1 3316.4 3153.5V3353.5" fill="#0000bf"/>
<path transform="matrix(.1,0,0,-.1,0,792)" stroke-width="15" stroke-linecap="butt" stroke-miterlimit="10" stroke-linejoin="miter" fill="none" stroke="#ffffff" d="M2975 3695 2633.6 3353.5V3153.5L2975 3012.1 3316.4 3153.5V3353.5Z"/>
<path transform="matrix(.1,0,0,-.1,0,792)" d="M3457.8 4177.8 3799.3 3836.4H3999.3L4140.7 4177.8 3999.3 4519.2H3799.3" fill="#0000bf"/>
<path transform="matrix(.1,0,0,-.1,0,792)" stroke-width="15" stroke-linecap="butt" stroke-miterlimit="10" stroke-linejoin="miter" fill="none" stroke="#ffffff" d="M3457.8 4177.8 3799.3 3836.4H3999.3L4140.7 4177.8 3999.3 4519.2H3799.3Z"/>
<path transform="matrix(.1,0,0,-.1,0,792)" d="M2492.2 4177.8 2150.7 4519.2H1950.7L1809.3 4177.8 1950.7 3836.4H2150.7" fill="#0000bf"/>
<path transform="matrix(.1,0,0,-.1,0,792)" stroke-width="15" stroke-linecap="butt" stroke-miterlimit="10" stroke-linejoin="miter" fill="none" stroke="#ffffff" d="M2492.2 4177.8 2150.7 4519.2H1950.7L1809.3 4177.8 1950.7 3836.4H2150.7Z"/>
<path transform="matrix(.1,0,0,-.1,0,792)" d="M3316.4 5002.1 3457.8 5143.5 3799.3 5002.1 3557.8 5584.9 2975 5343.5 3316.4 5202.1" fill="#ffffff"/>
<path transform="matrix(.1,0,0,-.1,0,792)" stroke-width="15" stroke-linecap="butt" stroke-miterlimit="10" stroke-linejoin="miter" fill="none" stroke="#ffffff" d="M3316.4 5002.1 3457.8 5143.5 3799.3 5002.1 3557.8 5584.9 2975 5343.5 3316.4 5202.1Z"/>
<path transform="matrix(.1,0,0,-.1,0,792)" d="M2633.6 5002.1V5202.1L2975 5343.5 2392.2 5584.9 2150.7 5002.1 2492.2 5143.5" fill="#ffffff"/>
<path transform="matrix(.1,0,0,-.1,0,792)" stroke-width="15" stroke-linecap="butt" stroke-miterlimit="10" stroke-linejoin="miter" fill="none" stroke="#ffffff" d="M2633.6 5002.1V5202.1L2975 5343.5 2392.2 5584.9 2150.7 5002.1 2492.2 5143.5Z"/>
<path transform="matrix(.1,0,0,-.1,0,792)" d="M2633.6 3353.5 2492.2 3212.1 2150.7 3353.5 2392.2 2770.7 2975 3012.1 2633.6 3153.5" fill="#ffffff"/>
<path transform="matrix(.1,0,0,-.1,0,792)" stroke-width="15" stroke-linecap="butt" stroke-miterlimit="10" stroke-linejoin="miter" fill="none" stroke="#ffffff" d="M2633.6 3353.5 2492.2 3212.1 2150.7 3353.5 2392.2 2770.7 2975 3012.1 2633.6 3153.5Z"/>
<path transform="matrix(.1,0,0,-.1,0,792)" d="M3316.4 3353.5V3153.5L2975 3012.1 3557.8 2770.7 3799.3 3353.5 3457.8 3212.1" fill="#ffffff"/>
<path transform="matrix(.1,0,0,-.1,0,792)" stroke-width="15" stroke-linecap="butt" stroke-miterlimit="10" stroke-linejoin="miter" fill="none" stroke="#ffffff" d="M3316.4 3353.5V3153.5L2975 3012.1 3557.8 2770.7 3799.3 3353.5 3457.8 3212.1Z"/>
<path transform="matrix(.1,0,0,-.1,0,792)" d="M2975 5343.5 3557.8 5584.9 3387.1 5997 2975 5826.3 2562.9 5997 2392.2 5584.9"/>
<path transform="matrix(.1,0,0,-.1,0,792)" stroke-width="15" stroke-linecap="butt" stroke-miterlimit="10" stroke-linejoin="miter" fill="none" stroke="#ffffff" d="M2975 5343.5 3557.8 5584.9 3387.1 5997 2975 5826.3 2562.9 5997 2392.2 5584.9Z"/>
<path transform="matrix(.1,0,0,-.1,0,792)" d="M3799.3 5002.1 4382.1 4760.7 4552.8 5172.8 4140.7 5343.5 3970 5755.6 3557.8 5584.9"/>
<path transform="matrix(.1,0,0,-.1,0,792)" stroke-width="15" stroke-linecap="butt" stroke-miterlimit="10" stroke-linejoin="miter" fill="none" stroke="#ffffff" d="M3799.3 5002.1 4382.1 4760.7 4552.8 5172.8 4140.7 5343.5 3970 5755.6 3557.8 5584.9Z"/>
<path transform="matrix(.1,0,0,-.1,0,792)" d="M3799.3 5002.1 3940.7 4660.7 3799.3 4519.2H3999.3L4140.7 4177.8 4382.1 4760.7" fill="#ffffff"/>
<path transform="matrix(.1,0,0,-.1,0,792)" stroke-width="15" stroke-linecap="butt" stroke-miterlimit="10" stroke-linejoin="miter" fill="none" stroke="#ffffff" d="M3799.3 5002.1 3940.7 4660.7 3799.3 4519.2H3999.3L4140.7 4177.8 4382.1 4760.7Z"/>
<path transform="matrix(.1,0,0,-.1,0,792)" d="M2150.7 5002.1 1567.9 4760.7 1809.3 4177.8 1950.7 4519.2H2150.7L2009.3 4660.7" fill="#ffffff"/>
<path transform="matrix(.1,0,0,-.1,0,792)" stroke-width="15" stroke-linecap="butt" stroke-miterlimit="10" stroke-linejoin="miter" fill="none" stroke="#ffffff" d="M2150.7 5002.1 1567.9 4760.7 1809.3 4177.8 1950.7 4519.2H2150.7L2009.3 4660.7Z"/>
<path transform="matrix(.1,0,0,-.1,0,792)" d="M2150.7 5002.1 2392.2 5584.9 1980 5755.6 1809.3 5343.5 1397.2 5172.8 1567.9 4760.7"/>
<path transform="matrix(.1,0,0,-.1,0,792)" stroke-width="15" stroke-linecap="butt" stroke-miterlimit="10" stroke-linejoin="miter" fill="none" stroke="#ffffff" d="M2150.7 5002.1 2392.2 5584.9 1980 5755.6 1809.3 5343.5 1397.2 5172.8 1567.9 4760.7Z"/>
<path transform="matrix(.1,0,0,-.1,0,792)" d="M2150.7 3836.4H1950.7L1809.3 4177.8 1567.9 3595 2150.7 3353.5 2009.3 3695" fill="#ffffff"/>
<path transform="matrix(.1,0,0,-.1,0,792)" stroke-width="15" stroke-linecap="butt" stroke-miterlimit="10" stroke-linejoin="miter" fill="none" stroke="#ffffff" d="M2150.7 3836.4H1950.7L1809.3 4177.8 1567.9 3595 2150.7 3353.5 2009.3 3695Z"/>
<path transform="matrix(.1,0,0,-.1,0,792)" d="M2150.7 3353.5 1567.9 3595 1397.2 3182.8 1809.3 3012.1 1980 2600 2392.2 2770.7"/>
<path transform="matrix(.1,0,0,-.1,0,792)" stroke-width="15" stroke-linecap="butt" stroke-miterlimit="10" stroke-linejoin="miter" fill="none" stroke="#ffffff" d="M2150.7 3353.5 1567.9 3595 1397.2 3182.8 1809.3 3012.1 1980 2600 2392.2 2770.7Z"/>
<path transform="matrix(.1,0,0,-.1,0,792)" d="M3799.3 3353.5 4382.1 3595 4140.7 4177.8 3999.3 3836.4H3799.3L3940.7 3695" fill="#ffffff"/>
<path transform="matrix(.1,0,0,-.1,0,792)" stroke-width="15" stroke-linecap="butt" stroke-miterlimit="10" stroke-linejoin="miter" fill="none" stroke="#ffffff" d="M3799.3 3353.5 4382.1 3595 4140.7 4177.8 3999.3 3836.4H3799.3L3940.7 3695Z"/>
<path transform="matrix(.1,0,0,-.1,0,792)" d="M3799.3 3353.5 3557.8 2770.7 3970 2600 4140.7 3012.1 4552.8 3182.8 4382.1 3595"/>
<path transform="matrix(.1,0,0,-.1,0,792)" stroke-width="15" stroke-linecap="butt" stroke-miterlimit="10" stroke-linejoin="miter" fill="none" stroke="#ffffff" d="M3799.3 3353.5 3557.8 2770.7 3970 2600 4140.7 3012.1 4552.8 3182.8 4382.1 3595Z"/>
<path transform="matrix(.1,0,0,-.1,0,792)" d="M2975 3012.1 2392.2 2770.7 2562.9 2358.6 2975 2529.3 3387.1 2358.6 3557.8 2770.7"/>
<path transform="matrix(.1,0,0,-.1,0,792)" stroke-width="15" stroke-linecap="butt" stroke-miterlimit="10" stroke-linejoin="miter" fill="none" stroke="#ffffff" d="M2975 3012.1 2392.2 2770.7 2562.9 2358.6 2975 2529.3 3387.1 2358.6 3557.8 2770.7Z"/>
<path transform="matrix(.1,0,0,-.1,0,792)" d="M3557.8 5584.9 3970 5755.6 3799.3 6167.8 3387.1 5997Z" fill="#ffffff"/>
<path transform="matrix(.1,0,0,-.1,0,792)" stroke-width="15" stroke-linecap="butt" stroke-miterlimit="10" stroke-linejoin="miter" fill="none" stroke="#ffffff" d="M3557.8 5584.9 3970 5755.6 3799.3 6167.8 3387.1 5997Z"/>
<path transform="matrix(.1,0,0,-.1,0,792)" d="M2392.2 5584.9 2562.9 5997 2150.7 6167.8 1980 5755.6Z" fill="#e6e600"/>
<path transform="matrix(.1,0,0,-.1,0,792)" stroke-width="15" stroke-linecap="butt" stroke-miterlimit="10" stroke-linejoin="miter" fill="none" stroke="#ffffff" d="M2392.2 5584.9 2562.9 5997 2150.7 6167.8 1980 5755.6Z"/>
<path transform="matrix(.1,0,0,-.1,0,792)" d="M2392.2 2770.7 1980 2600 2150.7 2187.9 2562.9 2358.6Z" fill="#ffffff"/>
<path transform="matrix(.1,0,0,-.1,0,792)" stroke-width="15" stroke-linecap="butt" stroke-miterlimit="10" stroke-linejoin="miter" fill="none" stroke="#ffffff" d="M2392.2 2770.7 1980 2600 2150.7 2187.9 2562.9 2358.6Z"/>
<path transform="matrix(.1,0,0,-.1,0,792)" d="M3557.8 2770.7 3387.1 2358.6 3799.3 2187.9 3970 2600Z" fill="#e6e600"/>
<path transform="matrix(.1,0,0,-.1,0,792)" stroke-width="15" stroke-linecap="butt" stroke-miterlimit="10" stroke-linejoin="miter" fill="none" stroke="#ffffff" d="M3557.8 2770.7 3387.1 2358.6 3799.3 2187.9 3970 2600Z"/>
<path transform="matrix(.1,0,0,-.1,0,792)" d="M3970 5755.6 4140.7 5826.3 4311.4 5755.6 4382.1 5926.3 4552.8 5997 4382.1 6409.2 4211.4 6338.5 4140.7 6167.8 3970 6238.5 3799.3 6167.8" fill="#009940"/>
<path transform="matrix(.1,0,0,-.1,0,792)" stroke-width="15" stroke-linecap="butt" stroke-miterlimit="10" stroke-linejoin="miter" fill="none" stroke="#ffffff" d="M3970 5755.6 4140.7 5826.3 4311.4 5755.6 4382.1 5926.3 4552.8 5997 4382.1 6409.2 4211.4 6338.5 4140.7 6167.8 3970 6238.5 3799.3 6167.8Z"/>
<path transform="matrix(.1,0,0,-.1,0,792)" d="M3970 5755.6 4140.7 5343.5 4552.8 5172.8 4723.5 5584.9 4552.8 5997 4382.1 5926.3 4311.4 5755.6 4140.7 5826.3" fill="#ffffff"/>
<path transform="matrix(.1,0,0,-.1,0,792)" stroke-width="15" stroke-linecap="butt" stroke-miterlimit="10" stroke-linejoin="miter" fill="none" stroke="#ffffff" d="M3970 5755.6 4140.7 5343.5 4552.8 5172.8 4723.5 5584.9 4552.8 5997 4382.1 5926.3 4311.4 5755.6 4140.7 5826.3Z"/>
<path transform="matrix(.1,0,0,-.1,0,792)" d="M1980 5755.6 1567.9 5926.3 1155.8 5755.6 1226.5 5584.9 1397.2 5514.2 1326.5 5343.5 1397.2 5172.8 1809.3 5343.5" fill="#ffffff"/>
<path transform="matrix(.1,0,0,-.1,0,792)" stroke-width="15" stroke-linecap="butt" stroke-miterlimit="10" stroke-linejoin="miter" fill="none" stroke="#ffffff" d="M1980 5755.6 1567.9 5926.3 1155.8 5755.6 1226.5 5584.9 1397.2 5514.2 1326.5 5343.5 1397.2 5172.8 1809.3 5343.5Z"/>
<path transform="matrix(.1,0,0,-.1,0,792)" d="M1980 5755.6 2150.7 6167.8 1567.9 6409.2 985.102 6167.8 1155.8 5755.6 1567.9 5926.3"/>
<path transform="matrix(.1,0,0,-.1,0,792)" stroke-width="15" stroke-linecap="butt" stroke-miterlimit="10" stroke-linejoin="miter" fill="none" stroke="#ffffff" d="M1980 5755.6 2150.7 6167.8 1567.9 6409.2 985.102 6167.8 1155.8 5755.6 1567.9 5926.3Z"/>
<path transform="matrix(.1,0,0,-.1,0,792)" d="M1809.3 4177.8 1567.9 4760.7 1155.8 4589.9 1326.5 4177.8 1155.8 3765.7 1567.9 3595"/>
<path transform="matrix(.1,0,0,-.1,0,792)" stroke-width="15" stroke-linecap="butt" stroke-miterlimit="10" stroke-linejoin="miter" fill="none" stroke="#ffffff" d="M1809.3 4177.8 1567.9 4760.7 1155.8 4589.9 1326.5 4177.8 1155.8 3765.7 1567.9 3595Z"/>
<path transform="matrix(.1,0,0,-.1,0,792)" d="M1809.3 3012.1 1397.2 3182.8 1226.5 2770.7 1397.2 2358.6 1567.9 2429.3 1638.6 2600 1809.3 2529.3 1980 2600" fill="#ffffff"/>
<path transform="matrix(.1,0,0,-.1,0,792)" stroke-width="15" stroke-linecap="butt" stroke-miterlimit="10" stroke-linejoin="miter" fill="none" stroke="#ffffff" d="M1809.3 3012.1 1397.2 3182.8 1226.5 2770.7 1397.2 2358.6 1567.9 2429.3 1638.6 2600 1809.3 2529.3 1980 2600Z"/>
<path transform="matrix(.1,0,0,-.1,0,792)" d="M4140.7 3012.1 3970 2600 4382.1 2429.3 4794.2 2600 4723.5 2770.7 4552.8 2841.4 4623.5 3012.1 4552.8 3182.8" fill="#ffffff"/>
<path transform="matrix(.1,0,0,-.1,0,792)" stroke-width="15" stroke-linecap="butt" stroke-miterlimit="10" stroke-linejoin="miter" fill="none" stroke="#ffffff" d="M4140.7 3012.1 3970 2600 4382.1 2429.3 4794.2 2600 4723.5 2770.7 4552.8 2841.4 4623.5 3012.1 4552.8 3182.8Z"/>
<path transform="matrix(.1,0,0,-.1,0,792)" d="M4140.7 4177.8 4382.1 3595 4794.2 3765.7 4623.5 4177.8 4794.2 4589.9 4382.1 4760.7"/>
<path transform="matrix(.1,0,0,-.1,0,792)" stroke-width="15" stroke-linecap="butt" stroke-miterlimit="10" stroke-linejoin="miter" fill="none" stroke="#ffffff" d="M4140.7 4177.8 4382.1 3595 4794.2 3765.7 4623.5 4177.8 4794.2 4589.9 4382.1 4760.7Z"/>
<path transform="matrix(.1,0,0,-.1,0,792)" d="M1980 2600 1809.3 2529.3 1638.6 2600 1567.9 2429.3 1397.2 2358.6 1567.9 1946.4 1738.6 2017.2 1809.3 2187.9 1980 2117.2 2150.7 2187.9" fill="#009940"/>
<path transform="matrix(.1,0,0,-.1,0,792)" stroke-width="15" stroke-linecap="butt" stroke-miterlimit="10" stroke-linejoin="miter" fill="none" stroke="#ffffff" d="M1980 2600 1809.3 2529.3 1638.6 2600 1567.9 2429.3 1397.2 2358.6 1567.9 1946.4 1738.6 2017.2 1809.3 2187.9 1980 2117.2 2150.7 2187.9Z"/>
<path transform="matrix(.1,0,0,-.1,0,792)" d="M3970 2600 3799.3 2187.9 4382.1 1946.4 4964.9 2187.9 4794.2 2600 4382.1 2429.3"/>
<path transform="matrix(.1,0,0,-.1,0,792)" stroke-width="15" stroke-linecap="butt" stroke-miterlimit="10" stroke-linejoin="miter" fill="none" stroke="#ffffff" d="M3970 2600 3799.3 2187.9 4382.1 1946.4 4964.9 2187.9 4794.2 2600 4382.1 2429.3Z"/>
<path transform="matrix(.1,0,0,-.1,0,792)" d="M2975 5826.3 3387.1 5997 3316.4 6167.8 3145.7 6238.5 3216.4 6409.2 3145.7 6579.9 2733.6 6409.2 2562.9 5997" fill="#ffffff"/>
<path transform="matrix(.1,0,0,-.1,0,792)" stroke-width="15" stroke-linecap="butt" stroke-miterlimit="10" stroke-linejoin="miter" fill="none" stroke="#ffffff" d="M2975 5826.3 3387.1 5997 3316.4 6167.8 3145.7 6238.5 3216.4 6409.2 3145.7 6579.9 2733.6 6409.2 2562.9 5997Z"/>
<path transform="matrix(.1,0,0,-.1,0,792)" d="M2975 2529.3 2562.9 2358.6 2633.6 2187.9 2804.3 2117.2 2733.6 1946.4 2804.3 1775.7 3216.4 1946.4 3387.1 2358.6" fill="#ffffff"/>
<path transform="matrix(.1,0,0,-.1,0,792)" stroke-width="15" stroke-linecap="butt" stroke-miterlimit="10" stroke-linejoin="miter" fill="none" stroke="#ffffff" d="M2975 2529.3 2562.9 2358.6 2633.6 2187.9 2804.3 2117.2 2733.6 1946.4 2804.3 1775.7 3216.4 1946.4 3387.1 2358.6Z"/>
<path transform="matrix(.1,0,0,-.1,0,792)" d="M3387.1 5997 3799.3 6167.8 3728.6 6338.5 3557.8 6409.2 3628.6 6579.9 3557.8 6750.6 3145.7 6579.9 3216.4 6409.2 3145.7 6238.5 3316.4 6167.8" fill="#009940"/>
<path transform="matrix(.1,0,0,-.1,0,792)" stroke-width="15" stroke-linecap="butt" stroke-miterlimit="10" stroke-linejoin="miter" fill="none" stroke="#ffffff" d="M3387.1 5997 3799.3 6167.8 3728.6 6338.5 3557.8 6409.2 3628.6 6579.9 3557.8 6750.6 3145.7 6579.9 3216.4 6409.2 3145.7 6238.5 3316.4 6167.8Z"/>
<path transform="matrix(.1,0,0,-.1,0,792)" d="M2562.9 5997 2733.6 6409.2 3145.7 6579.9 2975 6992 2392.2 6750.6 2150.7 6167.8"/>
<path transform="matrix(.1,0,0,-.1,0,792)" stroke-width="15" stroke-linecap="butt" stroke-miterlimit="10" stroke-linejoin="miter" fill="none" stroke="#ffffff" d="M2562.9 5997 2733.6 6409.2 3145.7 6579.9 2975 6992 2392.2 6750.6 2150.7 6167.8Z"/>
<path transform="matrix(.1,0,0,-.1,0,792)" d="M2562.9 2358.6 2150.7 2187.9 2221.4 2017.2 2392.2 1946.4 2321.4 1775.7 2392.2 1605 2804.3 1775.7 2733.6 1946.4 2804.3 2117.2 2633.6 2187.9" fill="#009940"/>
<path transform="matrix(.1,0,0,-.1,0,792)" stroke-width="15" stroke-linecap="butt" stroke-miterlimit="10" stroke-linejoin="miter" fill="none" stroke="#ffffff" d="M2562.9 2358.6 2150.7 2187.9 2221.4 2017.2 2392.2 1946.4 2321.4 1775.7 2392.2 1605 2804.3 1775.7 2733.6 1946.4 2804.3 2117.2 2633.6 2187.9Z"/>
<path transform="matrix(.1,0,0,-.1,0,792)" d="M3387.1 2358.6 3216.4 1946.4 2804.3 1775.7 2975 1363.6 3557.8 1605 3799.3 2187.9"/>
<path transform="matrix(.1,0,0,-.1,0,792)" stroke-width="15" stroke-linecap="butt" stroke-miterlimit="10" stroke-linejoin="miter" fill="none" stroke="#ffffff" d="M3387.1 2358.6 3216.4 1946.4 2804.3 1775.7 2975 1363.6 3557.8 1605 3799.3 2187.9Z"/>
<path transform="matrix(.1,0,0,-.1,0,792)" d="M4382.1 3595 4552.8 3182.8 4964.9 3353.5 4794.2 3765.7Z" fill="#ffffff"/>
<path transform="matrix(.1,0,0,-.1,0,792)" stroke-width="15" stroke-linecap="butt" stroke-miterlimit="10" stroke-linejoin="miter" fill="none" stroke="#ffffff" d="M4382.1 3595 4552.8 3182.8 4964.9 3353.5 4794.2 3765.7Z"/>
<path transform="matrix(.1,0,0,-.1,0,792)" d="M4382.1 4760.7 4794.2 4589.9 4964.9 5002.1 4552.8 5172.8Z" fill="#e6e600"/>
<path transform="matrix(.1,0,0,-.1,0,792)" stroke-width="15" stroke-linecap="butt" stroke-miterlimit="10" stroke-linejoin="miter" fill="none" stroke="#ffffff" d="M4382.1 4760.7 4794.2 4589.9 4964.9 5002.1 4552.8 5172.8Z"/>
<path transform="matrix(.1,0,0,-.1,0,792)" d="M1567.9 4760.7 1397.2 5172.8 985.102 5002.1 1155.8 4589.9Z" fill="#ffffff"/>
<path transform="matrix(.1,0,0,-.1,0,792)" stroke-width="15" stroke-linecap="butt" stroke-miterlimit="10" stroke-linejoin="miter" fill="none" stroke="#ffffff" d="M1567.9 4760.7 1397.2 5172.8 985.102 5002.1 1155.8 4589.9Z"/>
<path transform="matrix(.1,0,0,-.1,0,792)" d="M1567.9 3595 1155.8 3765.7 985.102 3353.5 1397.2 3182.8Z" fill="#e6e600"/>
<path transform="matrix(.1,0,0,-.1,0,792)" stroke-width="15" stroke-linecap="butt" stroke-miterlimit="10" stroke-linejoin="miter" fill="none" stroke="#ffffff" d="M1567.9 3595 1155.8 3765.7 985.102 3353.5 1397.2 3182.8Z"/>
<path transform="matrix(.1,0,0,-.1,0,792)" d="M4140.7 6167.8 4211.4 6338.5 4382.1 6409.2 4311.4 6579.9 4382.1 6750.6 4211.4 6821.3 4140.7 6992 3970 6921.3 3799.3 6992 3728.6 6821.3 3557.8 6750.6 3628.6 6579.9 3557.8 6409.2 3728.6 6338.5 3799.3 6167.8 3970 6238.5" fill="#ffffff"/>
<path transform="matrix(.1,0,0,-.1,0,792)" stroke-width="15" stroke-linecap="butt" stroke-miterlimit="10" stroke-linejoin="miter" fill="none" stroke="#ffffff" d="M4140.7 6167.8 4211.4 6338.5 4382.1 6409.2 4311.4 6579.9 4382.1 6750.6 4211.4 6821.3 4140.7 6992 3970 6921.3 3799.3 6992 3728.6 6821.3 3557.8 6750.6 3628.6 6579.9 3557.8 6409.2 3728.6 6338.5 3799.3 6167.8 3970 6238.5Z"/>
<path transform="matrix(.1,0,0,-.1,0,792)" d="M2150.7 6167.8 2392.2 6750.6 2050.7 6609.2 1909.3 6750.6V6550.6L1567.9 6409.2" fill="#ffffff"/>
<path transform="matrix(.1,0,0,-.1,0,792)" stroke-width="15" stroke-linecap="butt" stroke-miterlimit="10" stroke-linejoin="miter" fill="none" stroke="#ffffff" d="M2150.7 6167.8 2392.2 6750.6 2050.7 6609.2 1909.3 6750.6V6550.6L1567.9 6409.2Z"/>
<path transform="matrix(.1,0,0,-.1,0,792)" d="M1809.3 2187.9 1738.6 2017.2 1567.9 1946.4 1638.6 1775.7 1567.9 1605 1738.6 1534.3 1809.3 1363.6 1980 1434.3 2150.7 1363.6 2221.4 1534.3 2392.2 1605 2321.4 1775.7 2392.2 1946.4 2221.4 2017.2 2150.7 2187.9 1980 2117.2" fill="#ffffff"/>
<path transform="matrix(.1,0,0,-.1,0,792)" stroke-width="15" stroke-linecap="butt" stroke-miterlimit="10" stroke-linejoin="miter" fill="none" stroke="#ffffff" d="M1809.3 2187.9 1738.6 2017.2 1567.9 1946.4 1638.6 1775.7 1567.9 1605 1738.6 1534.3 1809.3 1363.6 1980 1434.3 2150.7 1363.6 2221.4 1534.3 2392.2 1605 2321.4 1775.7 2392.2 1946.4 2221.4 2017.2 2150.7 2187.9 1980 2117.2Z"/>
<path transform="matrix(.1,0,0,-.1,0,792)" d="M3799.3 2187.9 3557.8 1605 3899.3 1746.4 4040.7 1605V1805L4382.1 1946.4" fill="#ffffff"/>
<path transform="matrix(.1,0,0,-.1,0,792)" stroke-width="15" stroke-linecap="butt" stroke-miterlimit="10" stroke-linejoin="miter" fill="none" stroke="#ffffff" d="M3799.3 2187.9 3557.8 1605 3899.3 1746.4 4040.7 1605V1805L4382.1 1946.4Z"/>
<path transform="matrix(.1,0,0,-.1,0,792)" d="M4552.8 2841.4 4723.5 2770.7 4794.2 2600 5206.4 2770.7 5135.7 2941.4 4964.9 3012.1 5035.7 3182.8 4964.9 3353.5 4552.8 3182.8 4623.5 3012.1" fill="#009940"/>
<path transform="matrix(.1,0,0,-.1,0,792)" stroke-width="15" stroke-linecap="butt" stroke-miterlimit="10" stroke-linejoin="miter" fill="none" stroke="#ffffff" d="M4552.8 2841.4 4723.5 2770.7 4794.2 2600 5206.4 2770.7 5135.7 2941.4 4964.9 3012.1 5035.7 3182.8 4964.9 3353.5 4552.8 3182.8 4623.5 3012.1Z"/>
<path transform="matrix(.1,0,0,-.1,0,792)" d="M4552.8 5172.8 4964.9 5002.1 5206.4 5584.9 4964.9 6167.8 4552.8 5997 4723.5 5584.9"/>
<path transform="matrix(.1,0,0,-.1,0,792)" stroke-width="15" stroke-linecap="butt" stroke-miterlimit="10" stroke-linejoin="miter" fill="none" stroke="#ffffff" d="M4552.8 5172.8 4964.9 5002.1 5206.4 5584.9 4964.9 6167.8 4552.8 5997 4723.5 5584.9Z"/>
<path transform="matrix(.1,0,0,-.1,0,792)" d="M4552.8 5997 4964.9 6167.8 4794.2 6579.9 4382.1 6409.2Z" fill="#ffffff"/>
<path transform="matrix(.1,0,0,-.1,0,792)" stroke-width="15" stroke-linecap="butt" stroke-miterlimit="10" stroke-linejoin="miter" fill="none" stroke="#ffffff" d="M4552.8 5997 4964.9 6167.8 4794.2 6579.9 4382.1 6409.2Z"/>
<path transform="matrix(.1,0,0,-.1,0,792)" d="M1397.2 5514.2 1226.5 5584.9 1155.8 5755.6 743.602 5584.9 814.301 5414.2 985.102 5343.5 914.301 5172.8 985.102 5002.1 1397.2 5172.8 1326.5 5343.5" fill="#009940"/>
<path transform="matrix(.1,0,0,-.1,0,792)" stroke-width="15" stroke-linecap="butt" stroke-miterlimit="10" stroke-linejoin="miter" fill="none" stroke="#ffffff" d="M1397.2 5514.2 1226.5 5584.9 1155.8 5755.6 743.602 5584.9 814.301 5414.2 985.102 5343.5 914.301 5172.8 985.102 5002.1 1397.2 5172.8 1326.5 5343.5Z"/>
<path transform="matrix(.1,0,0,-.1,0,792)" d="M1397.2 3182.8 985.102 3353.5 743.602 2770.7 985.102 2187.9 1397.2 2358.6 1226.5 2770.7"/>
<path transform="matrix(.1,0,0,-.1,0,792)" stroke-width="15" stroke-linecap="butt" stroke-miterlimit="10" stroke-linejoin="miter" fill="none" stroke="#ffffff" d="M1397.2 3182.8 985.102 3353.5 743.602 2770.7 985.102 2187.9 1397.2 2358.6 1226.5 2770.7Z"/>
<path transform="matrix(.1,0,0,-.1,0,792)" d="M1397.2 2358.6 985.102 2187.9 1155.8 1775.7 1567.9 1946.4Z" fill="#ffffff"/>
<path transform="matrix(.1,0,0,-.1,0,792)" stroke-width="15" stroke-linecap="butt" stroke-miterlimit="10" stroke-linejoin="miter" fill="none" stroke="#ffffff" d="M1397.2 2358.6 985.102 2187.9 1155.8 1775.7 1567.9 1946.4Z"/>
<path transform="matrix(.1,0,0,-.1,0,792)" d="M4382.1 6409.2 4794.2 6579.9 4723.5 6750.6 4794.2 6921.3 4623.5 6992 4552.8 7162.7 4140.7 6992 4211.4 6821.3 4382.1 6750.6 4311.4 6579.9" fill="#009940"/>
<path transform="matrix(.1,0,0,-.1,0,792)" stroke-width="15" stroke-linecap="butt" stroke-miterlimit="10" stroke-linejoin="miter" fill="none" stroke="#ffffff" d="M4382.1 6409.2 4794.2 6579.9 4723.5 6750.6 4794.2 6921.3 4623.5 6992 4552.8 7162.7 4140.7 6992 4211.4 6821.3 4382.1 6750.6 4311.4 6579.9Z"/>
<path transform="matrix(.1,0,0,-.1,0,792)" d="M1567.9 6409.2 1226.5 6550.6V6750.6L1085.1 6609.2 743.602 6750.6 985.102 6167.8" fill="#ffffff"/>
<path transform="matrix(.1,0,0,-.1,0,792)" stroke-width="15" stroke-linecap="butt" stroke-miterlimit="10" stroke-linejoin="miter" fill="none" stroke="#ffffff" d="M1567.9 6409.2 1226.5 6550.6V6750.6L1085.1 6609.2 743.602 6750.6 985.102 6167.8Z"/>
<path transform="matrix(.1,0,0,-.1,0,792)" d="M1567.9 6409.2 1909.3 6550.6V6750.6L1567.9 7092 1226.5 6750.6V6550.6" fill="#0000bf"/>
<path transform="matrix(.1,0,0,-.1,0,792)" stroke-width="15" stroke-linecap="butt" stroke-miterlimit="10" stroke-linejoin="miter" fill="none" stroke="#ffffff" d="M1567.9 6409.2 1909.3 6550.6V6750.6L1567.9 7092 1226.5 6750.6V6550.6Z"/>
<path transform="matrix(.1,0,0,-.1,0,792)" d="M1567.9 1946.4 1155.8 1775.7 1226.5 1605 1155.8 1434.3 1326.5 1363.6 1397.2 1192.9 1809.3 1363.6 1738.6 1534.3 1567.9 1605 1638.6 1775.7" fill="#009940"/>
<path transform="matrix(.1,0,0,-.1,0,792)" stroke-width="15" stroke-linecap="butt" stroke-miterlimit="10" stroke-linejoin="miter" fill="none" stroke="#ffffff" d="M1567.9 1946.4 1155.8 1775.7 1226.5 1605 1155.8 1434.3 1326.5 1363.6 1397.2 1192.9 1809.3 1363.6 1738.6 1534.3 1567.9 1605 1638.6 1775.7Z"/>
<path transform="matrix(.1,0,0,-.1,0,792)" d="M4382.1 1946.4 4723.5 1805V1605L4864.9 1746.4 5206.4 1605 4964.9 2187.9" fill="#ffffff"/>
<path transform="matrix(.1,0,0,-.1,0,792)" stroke-width="15" stroke-linecap="butt" stroke-miterlimit="10" stroke-linejoin="miter" fill="none" stroke="#ffffff" d="M4382.1 1946.4 4723.5 1805V1605L4864.9 1746.4 5206.4 1605 4964.9 2187.9Z"/>
<path transform="matrix(.1,0,0,-.1,0,792)" d="M4382.1 1946.4 4040.7 1805V1605L4382.1 1263.6 4723.5 1605V1805" fill="#0000bf"/>
<path transform="matrix(.1,0,0,-.1,0,792)" stroke-width="15" stroke-linecap="butt" stroke-miterlimit="10" stroke-linejoin="miter" fill="none" stroke="#ffffff" d="M4382.1 1946.4 4040.7 1805V1605L4382.1 1263.6 4723.5 1605V1805Z"/>
<path transform="matrix(.1,0,0,-.1,0,792)" d="M4623.5 4177.8 4794.2 3765.7 4964.9 3836.4 5035.7 4007.1 5206.4 3936.4 5377.1 4007.1 5206.4 4419.2 4794.2 4589.9" fill="#ffffff"/>
<path transform="matrix(.1,0,0,-.1,0,792)" stroke-width="15" stroke-linecap="butt" stroke-miterlimit="10" stroke-linejoin="miter" fill="none" stroke="#ffffff" d="M4623.5 4177.8 4794.2 3765.7 4964.9 3836.4 5035.7 4007.1 5206.4 3936.4 5377.1 4007.1 5206.4 4419.2 4794.2 4589.9Z"/>
<path transform="matrix(.1,0,0,-.1,0,792)" d="M1326.5 4177.8 1155.8 4589.9 985.102 4519.2 914.301 4348.5 743.602 4419.2 572.898 4348.5 743.602 3936.4 1155.8 3765.7" fill="#ffffff"/>
<path transform="matrix(.1,0,0,-.1,0,792)" stroke-width="15" stroke-linecap="butt" stroke-miterlimit="10" stroke-linejoin="miter" fill="none" stroke="#ffffff" d="M1326.5 4177.8 1155.8 4589.9 985.102 4519.2 914.301 4348.5 743.602 4419.2 572.898 4348.5 743.602 3936.4 1155.8 3765.7Z"/>
<path transform="matrix(.1,0,0,-.1,0,792)" d="M3145.7 6579.9 3557.8 6750.6 3387.1 7162.7 2975 6992Z" fill="#ffffff"/>
<path transform="matrix(.1,0,0,-.1,0,792)" stroke-width="15" stroke-linecap="butt" stroke-miterlimit="10" stroke-linejoin="miter" fill="none" stroke="#ffffff" d="M3145.7 6579.9 3557.8 6750.6 3387.1 7162.7 2975 6992Z"/>
<path transform="matrix(.1,0,0,-.1,0,792)" d="M2050.7 6609.2 2392.2 6750.6 2533.6 7092 2392.2 7233.4H1909.3V6750.6" fill="#0000bf"/>
<path transform="matrix(.1,0,0,-.1,0,792)" stroke-width="15" stroke-linecap="butt" stroke-miterlimit="10" stroke-linejoin="miter" fill="none" stroke="#ffffff" d="M2050.7 6609.2 2392.2 6750.6 2533.6 7092 2392.2 7233.4H1909.3V6750.6Z"/>
<path transform="matrix(.1,0,0,-.1,0,792)" d="M2804.3 1775.7 2392.2 1605 2562.9 1192.9 2975 1363.6Z" fill="#ffffff"/>
<path transform="matrix(.1,0,0,-.1,0,792)" stroke-width="15" stroke-linecap="butt" stroke-miterlimit="10" stroke-linejoin="miter" fill="none" stroke="#ffffff" d="M2804.3 1775.7 2392.2 1605 2562.9 1192.9 2975 1363.6Z"/>
<path transform="matrix(.1,0,0,-.1,0,792)" d="M3899.3 1746.4 3557.8 1605 3416.4 1263.6 3557.8 1122.2H4040.7V1605" fill="#0000bf"/>
<path transform="matrix(.1,0,0,-.1,0,792)" stroke-width="15" stroke-linecap="butt" stroke-miterlimit="10" stroke-linejoin="miter" fill="none" stroke="#ffffff" d="M3899.3 1746.4 3557.8 1605 3416.4 1263.6 3557.8 1122.2H4040.7V1605Z"/>
<path transform="matrix(.1,0,0,-.1,0,792)" d="M4794.2 2600 4964.9 2187.9 5377.1 2358.6 5206.4 2770.7Z" fill="#ffffff"/>
<path transform="matrix(.1,0,0,-.1,0,792)" stroke-width="15" stroke-linecap="butt" stroke-miterlimit="10" stroke-linejoin="miter" fill="none" stroke="#ffffff" d="M4794.2 2600 4964.9 2187.9 5377.1 2358.6 5206.4 2770.7Z"/>
<path transform="matrix(.1,0,0,-.1,0,792)" d="M4794.2 3765.7 4964.9 3353.5 5135.7 3424.3 5206.4 3595 5377.1 3524.3 5547.8 3595 5377.1 4007.1 5206.4 3936.4 5035.7 4007.1 4964.9 3836.4" fill="#009940"/>
<path transform="matrix(.1,0,0,-.1,0,792)" stroke-width="15" stroke-linecap="butt" stroke-miterlimit="10" stroke-linejoin="miter" fill="none" stroke="#ffffff" d="M4794.2 3765.7 4964.9 3353.5 5135.7 3424.3 5206.4 3595 5377.1 3524.3 5547.8 3595 5377.1 4007.1 5206.4 3936.4 5035.7 4007.1 4964.9 3836.4Z"/>
<path transform="matrix(.1,0,0,-.1,0,792)" d="M4794.2 4589.9 5206.4 4419.2 5377.1 4007.1 5789.2 4177.8 5547.8 4760.7 4964.9 5002.1"/>
<path transform="matrix(.1,0,0,-.1,0,792)" stroke-width="15" stroke-linecap="butt" stroke-miterlimit="10" stroke-linejoin="miter" fill="none" stroke="#ffffff" d="M4794.2 4589.9 5206.4 4419.2 5377.1 4007.1 5789.2 4177.8 5547.8 4760.7 4964.9 5002.1Z"/>
<path transform="matrix(.1,0,0,-.1,0,792)" d="M4794.2 6579.9 5206.4 6750.6 5377.1 7162.7 4964.9 7333.4 4552.8 7162.7 4623.5 6992 4794.2 6921.3 4723.5 6750.6" fill="#ffffff"/>
<path transform="matrix(.1,0,0,-.1,0,792)" stroke-width="15" stroke-linecap="butt" stroke-miterlimit="10" stroke-linejoin="miter" fill="none" stroke="#ffffff" d="M4794.2 6579.9 5206.4 6750.6 5377.1 7162.7 4964.9 7333.4 4552.8 7162.7 4623.5 6992 4794.2 6921.3 4723.5 6750.6Z"/>
<path transform="matrix(.1,0,0,-.1,0,792)" d="M4794.2 6579.9 4964.9 6167.8 5547.8 6409.2 5789.2 6992 5377.1 7162.7 5206.4 6750.6"/>
<path transform="matrix(.1,0,0,-.1,0,792)" stroke-width="15" stroke-linecap="butt" stroke-miterlimit="10" stroke-linejoin="miter" fill="none" stroke="#ffffff" d="M4794.2 6579.9 4964.9 6167.8 5547.8 6409.2 5789.2 6992 5377.1 7162.7 5206.4 6750.6Z"/>
<path transform="matrix(.1,0,0,-.1,0,792)" d="M1155.8 5755.6 985.102 6167.8 572.898 5997 743.602 5584.9Z" fill="#ffffff"/>
<path transform="matrix(.1,0,0,-.1,0,792)" stroke-width="15" stroke-linecap="butt" stroke-miterlimit="10" stroke-linejoin="miter" fill="none" stroke="#ffffff" d="M1155.8 5755.6 985.102 6167.8 572.898 5997 743.602 5584.9Z"/>
<path transform="matrix(.1,0,0,-.1,0,792)" d="M1155.8 4589.9 985.102 5002.1 814.301 4931.4 743.602 4760.7 572.898 4831.4 402.199 4760.7 572.898 4348.5 743.602 4419.2 914.301 4348.5 985.102 4519.2" fill="#009940"/>
<path transform="matrix(.1,0,0,-.1,0,792)" stroke-width="15" stroke-linecap="butt" stroke-miterlimit="10" stroke-linejoin="miter" fill="none" stroke="#ffffff" d="M1155.8 4589.9 985.102 5002.1 814.301 4931.4 743.602 4760.7 572.898 4831.4 402.199 4760.7 572.898 4348.5 743.602 4419.2 914.301 4348.5 985.102 4519.2Z"/>
<path transform="matrix(.1,0,0,-.1,0,792)" d="M1155.8 3765.7 743.602 3936.4 572.898 4348.5 160.801 4177.8 402.199 3595 985.102 3353.5"/>
<path transform="matrix(.1,0,0,-.1,0,792)" stroke-width="15" stroke-linecap="butt" stroke-miterlimit="10" stroke-linejoin="miter" fill="none" stroke="#ffffff" d="M1155.8 3765.7 743.602 3936.4 572.898 4348.5 160.801 4177.8 402.199 3595 985.102 3353.5Z"/>
<path transform="matrix(.1,0,0,-.1,0,792)" d="M1155.8 1775.7 743.602 1605 572.898 1192.9 985.102 1022.2 1397.2 1192.9 1326.5 1363.6 1155.8 1434.3 1226.5 1605" fill="#ffffff"/>
<path transform="matrix(.1,0,0,-.1,0,792)" stroke-width="15" stroke-linecap="butt" stroke-miterlimit="10" stroke-linejoin="miter" fill="none" stroke="#ffffff" d="M1155.8 1775.7 743.602 1605 572.898 1192.9 985.102 1022.2 1397.2 1192.9 1326.5 1363.6 1155.8 1434.3 1226.5 1605Z"/>
<path transform="matrix(.1,0,0,-.1,0,792)" d="M1155.8 1775.7 985.102 2187.9 402.199 1946.4 160.801 1363.6 572.898 1192.9 743.602 1605"/>
<path transform="matrix(.1,0,0,-.1,0,792)" stroke-width="15" stroke-linecap="butt" stroke-miterlimit="10" stroke-linejoin="miter" fill="none" stroke="#ffffff" d="M1155.8 1775.7 985.102 2187.9 402.199 1946.4 160.801 1363.6 572.898 1192.9 743.602 1605Z"/>
<path transform="matrix(.1,0,0,-.1,0,792)" d="M3557.8 6750.6 3728.6 6821.3 3799.3 6992 3970 6921.3 4140.7 6992 3970 7404.2 3799.3 7333.4 3628.6 7404.2 3557.8 7233.4 3387.1 7162.7" fill="#009940"/>
<path transform="matrix(.1,0,0,-.1,0,792)" stroke-width="15" stroke-linecap="butt" stroke-miterlimit="10" stroke-linejoin="miter" fill="none" stroke="#ffffff" d="M3557.8 6750.6 3728.6 6821.3 3799.3 6992 3970 6921.3 4140.7 6992 3970 7404.2 3799.3 7333.4 3628.6 7404.2 3557.8 7233.4 3387.1 7162.7Z"/>
<path transform="matrix(.1,0,0,-.1,0,792)" d="M2392.2 6750.6 2975 6992 2733.6 7574.9 2592.2 7233.4H2392.2L2533.6 7092" fill="#ffffff"/>
<path transform="matrix(.1,0,0,-.1,0,792)" stroke-width="15" stroke-linecap="butt" stroke-miterlimit="10" stroke-linejoin="miter" fill="none" stroke="#ffffff" d="M2392.2 6750.6 2975 6992 2733.6 7574.9 2592.2 7233.4H2392.2L2533.6 7092Z"/>
<path transform="matrix(.1,0,0,-.1,0,792)" d="M1909.3 6750.6V7233.4H1709.3L1567.9 7092Z" fill="#ffffff"/>
<path transform="matrix(.1,0,0,-.1,0,792)" stroke-width="15" stroke-linecap="butt" stroke-miterlimit="10" stroke-linejoin="miter" fill="none" stroke="#ffffff" d="M1909.3 6750.6V7233.4H1709.3L1567.9 7092Z"/>
<path transform="matrix(.1,0,0,-.1,0,792)" d="M1226.5 6750.6V7233.4H743.602L602.199 7092 743.602 6750.6 1085.1 6609.2" fill="#0000bf"/>
<path transform="matrix(.1,0,0,-.1,0,792)" stroke-width="15" stroke-linecap="butt" stroke-miterlimit="10" stroke-linejoin="miter" fill="none" stroke="#ffffff" d="M1226.5 6750.6V7233.4H743.602L602.199 7092 743.602 6750.6 1085.1 6609.2Z"/>
<path transform="matrix(.1,0,0,-.1,0,792)" d="M1226.5 6750.6 1567.9 7092 1426.5 7233.4H1226.5Z" fill="#ffffff"/>
<path transform="matrix(.1,0,0,-.1,0,792)" stroke-width="15" stroke-linecap="butt" stroke-miterlimit="10" stroke-linejoin="miter" fill="none" stroke="#ffffff" d="M1226.5 6750.6 1567.9 7092 1426.5 7233.4H1226.5Z"/>
<path transform="matrix(.1,0,0,-.1,0,792)" d="M4864.9 1746.4 4723.5 1605V1122.2H5206.4L5347.8 1263.6 5206.4 1605" fill="#0000bf"/>
<path transform="matrix(.1,0,0,-.1,0,792)" stroke-width="15" stroke-linecap="butt" stroke-miterlimit="10" stroke-linejoin="miter" fill="none" stroke="#ffffff" d="M4864.9 1746.4 4723.5 1605V1122.2H5206.4L5347.8 1263.6 5206.4 1605Z"/>
<path transform="matrix(.1,0,0,-.1,0,792)" d="M4723.5 1605 4382.1 1263.6 4523.5 1122.2H4723.5Z" fill="#ffffff"/>
<path transform="matrix(.1,0,0,-.1,0,792)" stroke-width="15" stroke-linecap="butt" stroke-miterlimit="10" stroke-linejoin="miter" fill="none" stroke="#ffffff" d="M4723.5 1605 4382.1 1263.6 4523.5 1122.2H4723.5Z"/>
<path transform="matrix(.1,0,0,-.1,0,792)" d="M4040.7 1605V1122.2H4240.7L4382.1 1263.6Z" fill="#ffffff"/>
<path transform="matrix(.1,0,0,-.1,0,792)" stroke-width="15" stroke-linecap="butt" stroke-miterlimit="10" stroke-linejoin="miter" fill="none" stroke="#ffffff" d="M4040.7 1605V1122.2H4240.7L4382.1 1263.6Z"/>
<path transform="matrix(.1,0,0,-.1,0,792)" d="M2392.2 1605 2221.4 1534.3 2150.7 1363.6 1980 1434.3 1809.3 1363.6 1980 951.5 2150.7 1022.2 2321.4 951.5 2392.2 1122.2 2562.9 1192.9" fill="#009940"/>
<path transform="matrix(.1,0,0,-.1,0,792)" stroke-width="15" stroke-linecap="butt" stroke-miterlimit="10" stroke-linejoin="miter" fill="none" stroke="#ffffff" d="M2392.2 1605 2221.4 1534.3 2150.7 1363.6 1980 1434.3 1809.3 1363.6 1980 951.5 2150.7 1022.2 2321.4 951.5 2392.2 1122.2 2562.9 1192.9Z"/>
<path transform="matrix(.1,0,0,-.1,0,792)" d="M3557.8 1605 2975 1363.6 3216.4 780.801 3357.8 1122.2H3557.8L3416.4 1263.6" fill="#ffffff"/>
<path transform="matrix(.1,0,0,-.1,0,792)" stroke-width="15" stroke-linecap="butt" stroke-miterlimit="10" stroke-linejoin="miter" fill="none" stroke="#ffffff" d="M3557.8 1605 2975 1363.6 3216.4 780.801 3357.8 1122.2H3557.8L3416.4 1263.6Z"/>
<path transform="matrix(.1,0,0,-.1,0,792)" d="M4964.9 2187.9 5206.4 1605 5789.2 1363.6 5959.9 1775.7 5547.8 1946.4 5377.1 2358.6"/>
<path transform="matrix(.1,0,0,-.1,0,792)" stroke-width="15" stroke-linecap="butt" stroke-miterlimit="10" stroke-linejoin="miter" fill="none" stroke="#ffffff" d="M4964.9 2187.9 5206.4 1605 5789.2 1363.6 5959.9 1775.7 5547.8 1946.4 5377.1 2358.6Z"/>
<path transform="matrix(.1,0,0,-.1,0,792)" d="M4964.9 3012.1 5135.7 2941.4 5206.4 2770.7 5377.1 2841.4 5547.8 2770.7 5618.5 2941.4 5789.2 3012.1 5718.5 3182.8 5789.2 3353.5 5618.5 3424.3 5547.8 3595 5377.1 3524.3 5206.4 3595 5135.7 3424.3 4964.9 3353.5 5035.7 3182.8" fill="#ffffff"/>
<path transform="matrix(.1,0,0,-.1,0,792)" stroke-width="15" stroke-linecap="butt" stroke-miterlimit="10" stroke-linejoin="miter" fill="none" stroke="#ffffff" d="M4964.9 3012.1 5135.7 2941.4 5206.4 2770.7 5377.1 2841.4 5547.8 2770.7 5618.5 2941.4 5789.2 3012.1 5718.5 3182.8 5789.2 3353.5 5618.5 3424.3 5547.8 3595 5377.1 3524.3 5206.4 3595 5135.7 3424.3 4964.9 3353.5 5035.7 3182.8Z"/>
<path transform="matrix(.1,0,0,-.1,0,792)" d="M4964.9 5002.1 5547.8 4760.7 5406.4 5102.1 5547.8 5243.5H5347.8L5206.4 5584.9" fill="#ffffff"/>
<path transform="matrix(.1,0,0,-.1,0,792)" stroke-width="15" stroke-linecap="butt" stroke-miterlimit="10" stroke-linejoin="miter" fill="none" stroke="#ffffff" d="M4964.9 5002.1 5547.8 4760.7 5406.4 5102.1 5547.8 5243.5H5347.8L5206.4 5584.9Z"/>
<path transform="matrix(.1,0,0,-.1,0,792)" d="M4964.9 6167.8 5206.4 5584.9 5347.8 5926.3H5547.8L5406.4 6067.8 5547.8 6409.2" fill="#ffffff"/>
<path transform="matrix(.1,0,0,-.1,0,792)" stroke-width="15" stroke-linecap="butt" stroke-miterlimit="10" stroke-linejoin="miter" fill="none" stroke="#ffffff" d="M4964.9 6167.8 5206.4 5584.9 5347.8 5926.3H5547.8L5406.4 6067.8 5547.8 6409.2Z"/>
<path transform="matrix(.1,0,0,-.1,0,792)" d="M985.102 6167.8 743.602 6750.6 160.801 6992-9.89844 6579.9 402.199 6409.2 572.898 5997"/>
<path transform="matrix(.1,0,0,-.1,0,792)" stroke-width="15" stroke-linecap="butt" stroke-miterlimit="10" stroke-linejoin="miter" fill="none" stroke="#ffffff" d="M985.102 6167.8 743.602 6750.6 160.801 6992-9.89844 6579.9 402.199 6409.2 572.898 5997Z"/>
<path transform="matrix(.1,0,0,-.1,0,792)" d="M985.102 5343.5 814.301 5414.2 743.602 5584.9 572.898 5514.2 402.199 5584.9 331.5 5414.2 160.801 5343.5 231.5 5172.8 160.801 5002.1 331.5 4931.4 402.199 4760.7 572.898 4831.4 743.602 4760.7 814.301 4931.4 985.102 5002.1 914.301 5172.8" fill="#ffffff"/>
<path transform="matrix(.1,0,0,-.1,0,792)" stroke-width="15" stroke-linecap="butt" stroke-miterlimit="10" stroke-linejoin="miter" fill="none" stroke="#ffffff" d="M985.102 5343.5 814.301 5414.2 743.602 5584.9 572.898 5514.2 402.199 5584.9 331.5 5414.2 160.801 5343.5 231.5 5172.8 160.801 5002.1 331.5 4931.4 402.199 4760.7 572.898 4831.4 743.602 4760.7 814.301 4931.4 985.102 5002.1 914.301 5172.8Z"/>
<path transform="matrix(.1,0,0,-.1,0,792)" d="M985.102 3353.5 402.199 3595 543.602 3253.5 402.199 3112.1H602.199L743.602 2770.7" fill="#ffffff"/>
<path transform="matrix(.1,0,0,-.1,0,792)" stroke-width="15" stroke-linecap="butt" stroke-miterlimit="10" stroke-linejoin="miter" fill="none" stroke="#ffffff" d="M985.102 3353.5 402.199 3595 543.602 3253.5 402.199 3112.1H602.199L743.602 2770.7Z"/>
<path transform="matrix(.1,0,0,-.1,0,792)" d="M985.102 2187.9 743.602 2770.7 602.199 2429.3H402.199L543.602 2287.9 402.199 1946.4" fill="#ffffff"/>
<path transform="matrix(.1,0,0,-.1,0,792)" stroke-width="15" stroke-linecap="butt" stroke-miterlimit="10" stroke-linejoin="miter" fill="none" stroke="#ffffff" d="M985.102 2187.9 743.602 2770.7 602.199 2429.3H402.199L543.602 2287.9 402.199 1946.4Z"/>
<path transform="matrix(.1,0,0,-.1,0,792)" d="M4140.7 6992 4552.8 7162.7 4382.1 7574.9 3970 7404.2Z" fill="#ffffff"/>
<path transform="matrix(.1,0,0,-.1,0,792)" stroke-width="15" stroke-linecap="butt" stroke-miterlimit="10" stroke-linejoin="miter" fill="none" stroke="#ffffff" d="M4140.7 6992 4552.8 7162.7 4382.1 7574.9 3970 7404.2Z"/>
<path transform="matrix(.1,0,0,-.1,0,792)" d="M2975 6992 3387.1 7162.7 3216.4 7574.9 3387.1 7987 2975 8157.7 2733.6 7574.9"/>
<path transform="matrix(.1,0,0,-.1,0,792)" stroke-width="15" stroke-linecap="butt" stroke-miterlimit="10" stroke-linejoin="miter" fill="none" stroke="#ffffff" d="M2975 6992 3387.1 7162.7 3216.4 7574.9 3387.1 7987 2975 8157.7 2733.6 7574.9Z"/>
<path transform="matrix(.1,0,0,-.1,0,792)" d="M1809.3 1363.6 1397.2 1192.9 1567.9 780.801 1980 951.5Z" fill="#ffffff"/>
<path transform="matrix(.1,0,0,-.1,0,792)" stroke-width="15" stroke-linecap="butt" stroke-miterlimit="10" stroke-linejoin="miter" fill="none" stroke="#ffffff" d="M1809.3 1363.6 1397.2 1192.9 1567.9 780.801 1980 951.5Z"/>
<path transform="matrix(.1,0,0,-.1,0,792)" d="M2975 1363.6 2562.9 1192.9 2733.6 780.801 2562.9 368.602 2975 197.898 3216.4 780.801"/>
<path transform="matrix(.1,0,0,-.1,0,792)" stroke-width="15" stroke-linecap="butt" stroke-miterlimit="10" stroke-linejoin="miter" fill="none" stroke="#ffffff" d="M2975 1363.6 2562.9 1192.9 2733.6 780.801 2562.9 368.602 2975 197.898 3216.4 780.801Z"/>
<path transform="matrix(.1,0,0,-.1,0,792)" d="M1567.9 7092 1709.3 7233.4H1909.3V7433.4L2050.7 7574.9 1909.3 7716.3V7916.3H1709.3L1567.9 8057.7 1426.5 7916.3H1226.5V7716.3L1085.1 7574.9 1226.5 7433.4V7233.4H1426.5"/>
<path transform="matrix(.1,0,0,-.1,0,792)" stroke-width="15" stroke-linecap="butt" stroke-miterlimit="10" stroke-linejoin="miter" fill="none" stroke="#ffffff" d="M1567.9 7092 1709.3 7233.4H1909.3V7433.4L2050.7 7574.9 1909.3 7716.3V7916.3H1709.3L1567.9 8057.7 1426.5 7916.3H1226.5V7716.3L1085.1 7574.9 1226.5 7433.4V7233.4H1426.5Z"/>
<path transform="matrix(.1,0,0,-.1,0,792)" d="M4382.1 1263.6 4240.7 1122.2H4040.7V922.199L3899.3 780.801 4040.7 639.301V439.301H4240.7L4382.1 297.898 4523.5 439.301H4723.5V639.301L4864.9 780.801 4723.5 922.199V1122.2H4523.5"/>
<path transform="matrix(.1,0,0,-.1,0,792)" stroke-width="15" stroke-linecap="butt" stroke-miterlimit="10" stroke-linejoin="miter" fill="none" stroke="#ffffff" d="M4382.1 1263.6 4240.7 1122.2H4040.7V922.199L3899.3 780.801 4040.7 639.301V439.301H4240.7L4382.1 297.898 4523.5 439.301H4723.5V639.301L4864.9 780.801 4723.5 922.199V1122.2H4523.5Z"/>
<path transform="matrix(.1,0,0,-.1,0,792)" d="M4552.8 7162.7 4964.9 7333.4 5377.1 7162.7 5547.8 7574.9 4964.9 7816.3 4382.1 7574.9"/>
<path transform="matrix(.1,0,0,-.1,0,792)" stroke-width="15" stroke-linecap="butt" stroke-miterlimit="10" stroke-linejoin="miter" fill="none" stroke="#ffffff" d="M4552.8 7162.7 4964.9 7333.4 5377.1 7162.7 5547.8 7574.9 4964.9 7816.3 4382.1 7574.9Z"/>
<path transform="matrix(.1,0,0,-.1,0,792)" d="M3387.1 7162.7 3557.8 7233.4 3628.6 7404.2 3799.3 7333.4 3970 7404.2 3799.3 7816.3 3387.1 7987 3216.4 7574.9" fill="#ffffff"/>
<path transform="matrix(.1,0,0,-.1,0,792)" stroke-width="15" stroke-linecap="butt" stroke-miterlimit="10" stroke-linejoin="miter" fill="none" stroke="#ffffff" d="M3387.1 7162.7 3557.8 7233.4 3628.6 7404.2 3799.3 7333.4 3970 7404.2 3799.3 7816.3 3387.1 7987 3216.4 7574.9Z"/>
<path transform="matrix(.1,0,0,-.1,0,792)" d="M1397.2 1192.9 985.102 1022.2 572.898 1192.9 402.199 780.801 985.102 539.301 1567.9 780.801"/>
<path transform="matrix(.1,0,0,-.1,0,792)" stroke-width="15" stroke-linecap="butt" stroke-miterlimit="10" stroke-linejoin="miter" fill="none" stroke="#ffffff" d="M1397.2 1192.9 985.102 1022.2 572.898 1192.9 402.199 780.801 985.102 539.301 1567.9 780.801Z"/>
<path transform="matrix(.1,0,0,-.1,0,792)" d="M2562.9 1192.9 2392.2 1122.2 2321.4 951.5 2150.7 1022.2 1980 951.5 2150.7 539.301 2562.9 368.602 2733.6 780.801" fill="#ffffff"/>
<path transform="matrix(.1,0,0,-.1,0,792)" stroke-width="15" stroke-linecap="butt" stroke-miterlimit="10" stroke-linejoin="miter" fill="none" stroke="#ffffff" d="M2562.9 1192.9 2392.2 1122.2 2321.4 951.5 2150.7 1022.2 1980 951.5 2150.7 539.301 2562.9 368.602 2733.6 780.801Z"/>
<path transform="matrix(.1,0,0,-.1,0,792)" d="M2592.2 7233.4 2733.6 7574.9 2592.2 7916.3H2392.2L2050.7 7574.9 2392.2 7233.4" fill="#0000bf"/>
<path transform="matrix(.1,0,0,-.1,0,792)" stroke-width="15" stroke-linecap="butt" stroke-miterlimit="10" stroke-linejoin="miter" fill="none" stroke="#ffffff" d="M2592.2 7233.4 2733.6 7574.9 2592.2 7916.3H2392.2L2050.7 7574.9 2392.2 7233.4Z"/>
<path transform="matrix(.1,0,0,-.1,0,792)" d="M2392.2 7233.4 2050.7 7574.9 1909.3 7433.4V7233.4Z" fill="#ffffff"/>
<path transform="matrix(.1,0,0,-.1,0,792)" stroke-width="15" stroke-linecap="butt" stroke-miterlimit="10" stroke-linejoin="miter" fill="none" stroke="#ffffff" d="M2392.2 7233.4 2050.7 7574.9 1909.3 7433.4V7233.4Z"/>
<path transform="matrix(.1,0,0,-.1,0,792)" d="M1226.5 7233.4V7433.4L1085.1 7574.9 743.602 7233.4Z" fill="#ffffff"/>
<path transform="matrix(.1,0,0,-.1,0,792)" stroke-width="15" stroke-linecap="butt" stroke-miterlimit="10" stroke-linejoin="miter" fill="none" stroke="#ffffff" d="M1226.5 7233.4V7433.4L1085.1 7574.9 743.602 7233.4Z"/>
<path transform="matrix(.1,0,0,-.1,0,792)" d="M743.602 7233.4H543.602L402.199 7574.9 160.801 6992 743.602 6750.6 602.199 7092" fill="#ffffff"/>
<path transform="matrix(.1,0,0,-.1,0,792)" stroke-width="15" stroke-linecap="butt" stroke-miterlimit="10" stroke-linejoin="miter" fill="none" stroke="#ffffff" d="M743.602 7233.4H543.602L402.199 7574.9 160.801 6992 743.602 6750.6 602.199 7092Z"/>
<path transform="matrix(.1,0,0,-.1,0,792)" d="M743.602 7233.4 1085.1 7574.9 743.602 7916.3H543.602L402.199 7574.9 543.602 7233.4" fill="#0000bf"/>
<path transform="matrix(.1,0,0,-.1,0,792)" stroke-width="15" stroke-linecap="butt" stroke-miterlimit="10" stroke-linejoin="miter" fill="none" stroke="#ffffff" d="M743.602 7233.4 1085.1 7574.9 743.602 7916.3H543.602L402.199 7574.9 543.602 7233.4Z"/>
<path transform="matrix(.1,0,0,-.1,0,792)" d="M743.602 5584.9 572.898 5997 402.199 5926.3 231.5 5997 160.801 5826.3-9.89844 5755.6 160.801 5343.5 331.5 5414.2 402.199 5584.9 572.898 5514.2" fill="#009940"/>
<path transform="matrix(.1,0,0,-.1,0,792)" stroke-width="15" stroke-linecap="butt" stroke-miterlimit="10" stroke-linejoin="miter" fill="none" stroke="#ffffff" d="M743.602 5584.9 572.898 5997 402.199 5926.3 231.5 5997 160.801 5826.3-9.89844 5755.6 160.801 5343.5 331.5 5414.2 402.199 5584.9 572.898 5514.2Z"/>
<path transform="matrix(.1,0,0,-.1,0,792)" d="M743.602 2770.7 602.199 3112.1H402.199L60.8008 2770.7 402.199 2429.3H602.199" fill="#0000bf"/>
<path transform="matrix(.1,0,0,-.1,0,792)" stroke-width="15" stroke-linecap="butt" stroke-miterlimit="10" stroke-linejoin="miter" fill="none" stroke="#ffffff" d="M743.602 2770.7 602.199 3112.1H402.199L60.8008 2770.7 402.199 2429.3H602.199Z"/>
<path transform="matrix(.1,0,0,-.1,0,792)" d="M5206.4 1605 5347.8 1263.6 5206.4 1122.2H5406.4L5547.8 780.801 5789.2 1363.6" fill="#ffffff"/>
<path transform="matrix(.1,0,0,-.1,0,792)" stroke-width="15" stroke-linecap="butt" stroke-miterlimit="10" stroke-linejoin="miter" fill="none" stroke="#ffffff" d="M5206.4 1605 5347.8 1263.6 5206.4 1122.2H5406.4L5547.8 780.801 5789.2 1363.6Z"/>
<path transform="matrix(.1,0,0,-.1,0,792)" d="M5206.4 2770.7 5377.1 2358.6 5547.8 2429.3 5718.5 2358.6 5789.2 2529.3 5959.9 2600 5789.2 3012.1 5618.5 2941.4 5547.8 2770.7 5377.1 2841.4" fill="#009940"/>
<path transform="matrix(.1,0,0,-.1,0,792)" stroke-width="15" stroke-linecap="butt" stroke-miterlimit="10" stroke-linejoin="miter" fill="none" stroke="#ffffff" d="M5206.4 2770.7 5377.1 2358.6 5547.8 2429.3 5718.5 2358.6 5789.2 2529.3 5959.9 2600 5789.2 3012.1 5618.5 2941.4 5547.8 2770.7 5377.1 2841.4Z"/>
<path transform="matrix(.1,0,0,-.1,0,792)" d="M5206.4 5584.9 5347.8 5243.5H5547.8L5889.2 5584.9 5547.8 5926.3H5347.8" fill="#0000bf"/>
<path transform="matrix(.1,0,0,-.1,0,792)" stroke-width="15" stroke-linecap="butt" stroke-miterlimit="10" stroke-linejoin="miter" fill="none" stroke="#ffffff" d="M5206.4 5584.9 5347.8 5243.5H5547.8L5889.2 5584.9 5547.8 5926.3H5347.8Z"/>
<path transform="matrix(.1,0,0,-.1,0,792)" d="M3357.8 1122.2 3216.4 780.801 3357.8 439.301H3557.8L3899.3 780.801 3557.8 1122.2" fill="#0000bf"/>
<path transform="matrix(.1,0,0,-.1,0,792)" stroke-width="15" stroke-linecap="butt" stroke-miterlimit="10" stroke-linejoin="miter" fill="none" stroke="#ffffff" d="M3357.8 1122.2 3216.4 780.801 3357.8 439.301H3557.8L3899.3 780.801 3557.8 1122.2Z"/>
<path transform="matrix(.1,0,0,-.1,0,792)" d="M3557.8 1122.2 3899.3 780.801 4040.7 922.199V1122.2Z" fill="#ffffff"/>
<path transform="matrix(.1,0,0,-.1,0,792)" stroke-width="15" stroke-linecap="butt" stroke-miterlimit="10" stroke-linejoin="miter" fill="none" stroke="#ffffff" d="M3557.8 1122.2 3899.3 780.801 4040.7 922.199V1122.2Z"/>
<path transform="matrix(.1,0,0,-.1,0,792)" d="M4723.5 1122.2V922.199L4864.9 780.801 5206.4 1122.2Z" fill="#ffffff"/>
<path transform="matrix(.1,0,0,-.1,0,792)" stroke-width="15" stroke-linecap="butt" stroke-miterlimit="10" stroke-linejoin="miter" fill="none" stroke="#ffffff" d="M4723.5 1122.2V922.199L4864.9 780.801 5206.4 1122.2Z"/>
<path transform="matrix(.1,0,0,-.1,0,792)" d="M5206.4 1122.2 4864.9 780.801 5206.4 439.301H5406.4L5547.8 780.801 5406.4 1122.2" fill="#0000bf"/>
<path transform="matrix(.1,0,0,-.1,0,792)" stroke-width="15" stroke-linecap="butt" stroke-miterlimit="10" stroke-linejoin="miter" fill="none" stroke="#ffffff" d="M5206.4 1122.2 4864.9 780.801 5206.4 439.301H5406.4L5547.8 780.801 5406.4 1122.2Z"/>
<path transform="matrix(.1,0,0,-.1,0,792)" d="M3970 7404.2 4382.1 7574.9 4140.7 8157.7 3557.8 8399.1 3387.1 7987 3799.3 7816.3"/>
<path transform="matrix(.1,0,0,-.1,0,792)" stroke-width="15" stroke-linecap="butt" stroke-miterlimit="10" stroke-linejoin="miter" fill="none" stroke="#ffffff" d="M3970 7404.2 4382.1 7574.9 4140.7 8157.7 3557.8 8399.1 3387.1 7987 3799.3 7816.3Z"/>
<path transform="matrix(.1,0,0,-.1,0,792)" d="M1980 951.5 1567.9 780.801 1809.3 197.898 2392.2-43.5 2562.9 368.602 2150.7 539.301"/>
<path transform="matrix(.1,0,0,-.1,0,792)" stroke-width="15" stroke-linecap="butt" stroke-miterlimit="10" stroke-linejoin="miter" fill="none" stroke="#ffffff" d="M1980 951.5 1567.9 780.801 1809.3 197.898 2392.2-43.5 2562.9 368.602 2150.7 539.301Z"/>
<path transform="matrix(.1,0,0,-.1,0,792)" d="M5377.1 2358.6 5547.8 1946.4 5959.9 1775.7 6130.6 2187.9 5959.9 2600 5789.2 2529.3 5718.5 2358.6 5547.8 2429.3" fill="#ffffff"/>
<path transform="matrix(.1,0,0,-.1,0,792)" stroke-width="15" stroke-linecap="butt" stroke-miterlimit="10" stroke-linejoin="miter" fill="none" stroke="#ffffff" d="M5377.1 2358.6 5547.8 1946.4 5959.9 1775.7 6130.6 2187.9 5959.9 2600 5789.2 2529.3 5718.5 2358.6 5547.8 2429.3Z"/>
<path transform="matrix(.1,0,0,-.1,0,792)" d="M5377.1 4007.1 5547.8 3595 5959.9 3765.7 5789.2 4177.8Z" fill="#ffffff"/>
<path transform="matrix(.1,0,0,-.1,0,792)" stroke-width="15" stroke-linecap="butt" stroke-miterlimit="10" stroke-linejoin="miter" fill="none" stroke="#ffffff" d="M5377.1 4007.1 5547.8 3595 5959.9 3765.7 5789.2 4177.8Z"/>
<path transform="matrix(.1,0,0,-.1,0,792)" d="M5377.1 7162.7 5789.2 6992 5959.9 7404.2 5547.8 7574.9Z" fill="#e6e600"/>
<path transform="matrix(.1,0,0,-.1,0,792)" stroke-width="15" stroke-linecap="butt" stroke-miterlimit="10" stroke-linejoin="miter" fill="none" stroke="#ffffff" d="M5377.1 7162.7 5789.2 6992 5959.9 7404.2 5547.8 7574.9Z"/>
<path transform="matrix(.1,0,0,-.1,0,792)" d="M572.898 5997 402.199 6409.2-9.89844 6579.9-180.602 6167.8-9.89844 5755.6 160.801 5826.3 231.5 5997 402.199 5926.3" fill="#ffffff"/>
<path transform="matrix(.1,0,0,-.1,0,792)" stroke-width="15" stroke-linecap="butt" stroke-miterlimit="10" stroke-linejoin="miter" fill="none" stroke="#ffffff" d="M572.898 5997 402.199 6409.2-9.89844 6579.9-180.602 6167.8-9.89844 5755.6 160.801 5826.3 231.5 5997 402.199 5926.3Z"/>
<path transform="matrix(.1,0,0,-.1,0,792)" d="M572.898 4348.5 402.199 4760.7-9.89844 4589.9 160.801 4177.8Z" fill="#ffffff"/>
<path transform="matrix(.1,0,0,-.1,0,792)" stroke-width="15" stroke-linecap="butt" stroke-miterlimit="10" stroke-linejoin="miter" fill="none" stroke="#ffffff" d="M572.898 4348.5 402.199 4760.7-9.89844 4589.9 160.801 4177.8Z"/>
<path transform="matrix(.1,0,0,-.1,0,792)" d="M572.898 1192.9 160.801 1363.6-9.89844 951.5 402.199 780.801Z" fill="#e6e600"/>
<path transform="matrix(.1,0,0,-.1,0,792)" stroke-width="15" stroke-linecap="butt" stroke-miterlimit="10" stroke-linejoin="miter" fill="none" stroke="#ffffff" d="M572.898 1192.9 160.801 1363.6-9.89844 951.5 402.199 780.801Z"/>
<path transform="matrix(.1,0,0,-.1,0,792)" d="M5406.4 5102.1 5547.8 4760.7 5889.2 4619.2 6030.6 4760.7V5243.5H5547.8" fill="#0000bf"/>
<path transform="matrix(.1,0,0,-.1,0,792)" stroke-width="15" stroke-linecap="butt" stroke-miterlimit="10" stroke-linejoin="miter" fill="none" stroke="#ffffff" d="M5406.4 5102.1 5547.8 4760.7 5889.2 4619.2 6030.6 4760.7V5243.5H5547.8Z"/>
<path transform="matrix(.1,0,0,-.1,0,792)" d="M5406.4 6067.8 5547.8 5926.3H6030.6V6409.2L5889.2 6550.6 5547.8 6409.2" fill="#0000bf"/>
<path transform="matrix(.1,0,0,-.1,0,792)" stroke-width="15" stroke-linecap="butt" stroke-miterlimit="10" stroke-linejoin="miter" fill="none" stroke="#ffffff" d="M5406.4 6067.8 5547.8 5926.3H6030.6V6409.2L5889.2 6550.6 5547.8 6409.2Z"/>
<path transform="matrix(.1,0,0,-.1,0,792)" d="M543.602 3253.5 402.199 3595 60.8008 3736.4-80.6016 3595V3112.1H402.199" fill="#0000bf"/>
<path transform="matrix(.1,0,0,-.1,0,792)" stroke-width="15" stroke-linecap="butt" stroke-miterlimit="10" stroke-linejoin="miter" fill="none" stroke="#ffffff" d="M543.602 3253.5 402.199 3595 60.8008 3736.4-80.6016 3595V3112.1H402.199Z"/>
<path transform="matrix(.1,0,0,-.1,0,792)" d="M543.602 2287.9 402.199 2429.3H-80.6016V1946.4L60.8008 1805 402.199 1946.4" fill="#0000bf"/>
<path transform="matrix(.1,0,0,-.1,0,792)" stroke-width="15" stroke-linecap="butt" stroke-miterlimit="10" stroke-linejoin="miter" fill="none" stroke="#ffffff" d="M543.602 2287.9 402.199 2429.3H-80.6016V1946.4L60.8008 1805 402.199 1946.4Z"/>
<path transform="matrix(.1,0,0,-.1,0,792)" d="M4382.1 7574.9 4964.9 7816.3 4623.5 7957.7V8157.7L4482.1 8016.3 4140.7 8157.7" fill="#ffffff"/>
<path transform="matrix(.1,0,0,-.1,0,792)" stroke-width="15" stroke-linecap="butt" stroke-miterlimit="10" stroke-linejoin="miter" fill="none" stroke="#ffffff" d="M4382.1 7574.9 4964.9 7816.3 4623.5 7957.7V8157.7L4482.1 8016.3 4140.7 8157.7Z"/>
<path transform="matrix(.1,0,0,-.1,0,792)" d="M2733.6 7574.9 2975 8157.7 2392.2 8399.1 2533.6 8057.7 2392.2 7916.3H2592.2" fill="#ffffff"/>
<path transform="matrix(.1,0,0,-.1,0,792)" stroke-width="15" stroke-linecap="butt" stroke-miterlimit="10" stroke-linejoin="miter" fill="none" stroke="#ffffff" d="M2733.6 7574.9 2975 8157.7 2392.2 8399.1 2533.6 8057.7 2392.2 7916.3H2592.2Z"/>
<path transform="matrix(.1,0,0,-.1,0,792)" d="M2050.7 7574.9 2392.2 7916.3H1909.3V7716.3Z" fill="#ffffff"/>
<path transform="matrix(.1,0,0,-.1,0,792)" stroke-width="15" stroke-linecap="butt" stroke-miterlimit="10" stroke-linejoin="miter" fill="none" stroke="#ffffff" d="M2050.7 7574.9 2392.2 7916.3H1909.3V7716.3Z"/>
<path transform="matrix(.1,0,0,-.1,0,792)" d="M1085.1 7574.9 1226.5 7716.3V7916.3H743.602Z" fill="#ffffff"/>
<path transform="matrix(.1,0,0,-.1,0,792)" stroke-width="15" stroke-linecap="butt" stroke-miterlimit="10" stroke-linejoin="miter" fill="none" stroke="#ffffff" d="M1085.1 7574.9 1226.5 7716.3V7916.3H743.602Z"/>
<path transform="matrix(.1,0,0,-.1,0,792)" d="M1567.9 780.801 985.102 539.301 1326.5 397.898V197.898L1467.9 339.301 1809.3 197.898" fill="#ffffff"/>
<path transform="matrix(.1,0,0,-.1,0,792)" stroke-width="15" stroke-linecap="butt" stroke-miterlimit="10" stroke-linejoin="miter" fill="none" stroke="#ffffff" d="M1567.9 780.801 985.102 539.301 1326.5 397.898V197.898L1467.9 339.301 1809.3 197.898Z"/>
<path transform="matrix(.1,0,0,-.1,0,792)" d="M3216.4 780.801 2975 197.898 3557.8-43.5 3416.4 297.898 3557.8 439.301H3357.8" fill="#ffffff"/>
<path transform="matrix(.1,0,0,-.1,0,792)" stroke-width="15" stroke-linecap="butt" stroke-miterlimit="10" stroke-linejoin="miter" fill="none" stroke="#ffffff" d="M3216.4 780.801 2975 197.898 3557.8-43.5 3416.4 297.898 3557.8 439.301H3357.8Z"/>
<path transform="matrix(.1,0,0,-.1,0,792)" d="M3899.3 780.801 3557.8 439.301H4040.7V639.301Z" fill="#ffffff"/>
<path transform="matrix(.1,0,0,-.1,0,792)" stroke-width="15" stroke-linecap="butt" stroke-miterlimit="10" stroke-linejoin="miter" fill="none" stroke="#ffffff" d="M3899.3 780.801 3557.8 439.301H4040.7V639.301Z"/>
<path transform="matrix(.1,0,0,-.1,0,792)" d="M4864.9 780.801 4723.5 639.301V439.301H5206.4Z" fill="#ffffff"/>
<path transform="matrix(.1,0,0,-.1,0,792)" stroke-width="15" stroke-linecap="butt" stroke-miterlimit="10" stroke-linejoin="miter" fill="none" stroke="#ffffff" d="M4864.9 780.801 4723.5 639.301V439.301H5206.4Z"/>
<path transform="matrix(.1,0,0,-.1,0,792)" d="M5547.8 780.801 5789.2 197.898 6201.3 368.602 6030.6 780.801 6201.3 1192.9 5789.2 1363.6"/>
<path transform="matrix(.1,0,0,-.1,0,792)" stroke-width="15" stroke-linecap="butt" stroke-miterlimit="10" stroke-linejoin="miter" fill="none" stroke="#ffffff" d="M5547.8 780.801 5789.2 197.898 6201.3 368.602 6030.6 780.801 6201.3 1192.9 5789.2 1363.6Z"/>
<path transform="matrix(.1,0,0,-.1,0,792)" d="M5547.8 780.801 5406.4 439.301H5206.4L5347.8 297.898 5206.4-43.5 5789.2 197.898" fill="#ffffff"/>
<path transform="matrix(.1,0,0,-.1,0,792)" stroke-width="15" stroke-linecap="butt" stroke-miterlimit="10" stroke-linejoin="miter" fill="none" stroke="#ffffff" d="M5547.8 780.801 5406.4 439.301H5206.4L5347.8 297.898 5206.4-43.5 5789.2 197.898Z"/>
<path transform="matrix(.1,0,0,-.1,0,792)" d="M5547.8 3595 5618.5 3424.3 5789.2 3353.5 5718.5 3182.8 5789.2 3012.1 6201.3 3182.8 6130.6 3353.5 6201.3 3524.3 6030.6 3595 5959.9 3765.7" fill="#009940"/>
<path transform="matrix(.1,0,0,-.1,0,792)" stroke-width="15" stroke-linecap="butt" stroke-miterlimit="10" stroke-linejoin="miter" fill="none" stroke="#ffffff" d="M5547.8 3595 5618.5 3424.3 5789.2 3353.5 5718.5 3182.8 5789.2 3012.1 6201.3 3182.8 6130.6 3353.5 6201.3 3524.3 6030.6 3595 5959.9 3765.7Z"/>
<path transform="matrix(.1,0,0,-.1,0,792)" d="M5547.8 4760.7 5789.2 4177.8 6372.1 4419.2 6030.6 4560.7V4760.7L5889.2 4619.2" fill="#ffffff"/>
<path transform="matrix(.1,0,0,-.1,0,792)" stroke-width="15" stroke-linecap="butt" stroke-miterlimit="10" stroke-linejoin="miter" fill="none" stroke="#ffffff" d="M5547.8 4760.7 5789.2 4177.8 6372.1 4419.2 6030.6 4560.7V4760.7L5889.2 4619.2Z"/>
<path transform="matrix(.1,0,0,-.1,0,792)" d="M5547.8 5243.5H6030.6V5443.5L5889.2 5584.9Z" fill="#ffffff"/>
<path transform="matrix(.1,0,0,-.1,0,792)" stroke-width="15" stroke-linecap="butt" stroke-miterlimit="10" stroke-linejoin="miter" fill="none" stroke="#ffffff" d="M5547.8 5243.5H6030.6V5443.5L5889.2 5584.9Z"/>
<path transform="matrix(.1,0,0,-.1,0,792)" d="M5547.8 5926.3 5889.2 5584.9 6030.6 5726.3V5926.3Z" fill="#ffffff"/>
<path transform="matrix(.1,0,0,-.1,0,792)" stroke-width="15" stroke-linecap="butt" stroke-miterlimit="10" stroke-linejoin="miter" fill="none" stroke="#ffffff" d="M5547.8 5926.3 5889.2 5584.9 6030.6 5726.3V5926.3Z"/>
<path transform="matrix(.1,0,0,-.1,0,792)" d="M5547.8 6409.2 5889.2 6550.6 6030.6 6409.2V6609.2L6372.1 6750.6 5789.2 6992" fill="#ffffff"/>
<path transform="matrix(.1,0,0,-.1,0,792)" stroke-width="15" stroke-linecap="butt" stroke-miterlimit="10" stroke-linejoin="miter" fill="none" stroke="#ffffff" d="M5547.8 6409.2 5889.2 6550.6 6030.6 6409.2V6609.2L6372.1 6750.6 5789.2 6992Z"/>
<path transform="matrix(.1,0,0,-.1,0,792)" d="M5547.8 7574.9 5789.2 8157.7 5447.8 8016.3 5306.4 8157.7V7957.7L4964.9 7816.3" fill="#ffffff"/>
<path transform="matrix(.1,0,0,-.1,0,792)" stroke-width="15" stroke-linecap="butt" stroke-miterlimit="10" stroke-linejoin="miter" fill="none" stroke="#ffffff" d="M5547.8 7574.9 5789.2 8157.7 5447.8 8016.3 5306.4 8157.7V7957.7L4964.9 7816.3Z"/>
<path transform="matrix(.1,0,0,-.1,0,792)" d="M5547.8 7574.9 5959.9 7404.2 6130.6 7816.3 6542.8 7987 6372.1 8399.1 5789.2 8157.7"/>
<path transform="matrix(.1,0,0,-.1,0,792)" stroke-width="15" stroke-linecap="butt" stroke-miterlimit="10" stroke-linejoin="miter" fill="none" stroke="#ffffff" d="M5547.8 7574.9 5959.9 7404.2 6130.6 7816.3 6542.8 7987 6372.1 8399.1 5789.2 8157.7Z"/>
<path transform="matrix(.1,0,0,-.1,0,792)" d="M402.199 7574.9 160.801 8157.7-251.301 7987-80.6016 7574.9-251.301 7162.7 160.801 6992"/>
<path transform="matrix(.1,0,0,-.1,0,792)" stroke-width="15" stroke-linecap="butt" stroke-miterlimit="10" stroke-linejoin="miter" fill="none" stroke="#ffffff" d="M402.199 7574.9 160.801 8157.7-251.301 7987-80.6016 7574.9-251.301 7162.7 160.801 6992Z"/>
<path transform="matrix(.1,0,0,-.1,0,792)" d="M402.199 7574.9 543.602 7916.3H743.602L602.199 8057.7 743.602 8399.1 160.801 8157.7" fill="#ffffff"/>
<path transform="matrix(.1,0,0,-.1,0,792)" stroke-width="15" stroke-linecap="butt" stroke-miterlimit="10" stroke-linejoin="miter" fill="none" stroke="#ffffff" d="M402.199 7574.9 543.602 7916.3H743.602L602.199 8057.7 743.602 8399.1 160.801 8157.7Z"/>
<path transform="matrix(.1,0,0,-.1,0,792)" d="M402.199 4760.7 331.5 4931.4 160.801 5002.1 231.5 5172.8 160.801 5343.5-251.301 5172.8-180.602 5002.1-251.301 4831.4-80.6016 4760.7-9.89844 4589.9" fill="#009940"/>
<path transform="matrix(.1,0,0,-.1,0,792)" stroke-width="15" stroke-linecap="butt" stroke-miterlimit="10" stroke-linejoin="miter" fill="none" stroke="#ffffff" d="M402.199 4760.7 331.5 4931.4 160.801 5002.1 231.5 5172.8 160.801 5343.5-251.301 5172.8-180.602 5002.1-251.301 4831.4-80.6016 4760.7-9.89844 4589.9Z"/>
<path transform="matrix(.1,0,0,-.1,0,792)" d="M402.199 3595 160.801 4177.8-422.102 3936.4-80.6016 3795V3595L60.8008 3736.4" fill="#ffffff"/>
<path transform="matrix(.1,0,0,-.1,0,792)" stroke-width="15" stroke-linecap="butt" stroke-miterlimit="10" stroke-linejoin="miter" fill="none" stroke="#ffffff" d="M402.199 3595 160.801 4177.8-422.102 3936.4-80.6016 3795V3595L60.8008 3736.4Z"/>
<path transform="matrix(.1,0,0,-.1,0,792)" d="M402.199 3112.1H-80.6016V2912.1L60.8008 2770.7Z" fill="#ffffff"/>
<path transform="matrix(.1,0,0,-.1,0,792)" stroke-width="15" stroke-linecap="butt" stroke-miterlimit="10" stroke-linejoin="miter" fill="none" stroke="#ffffff" d="M402.199 3112.1H-80.6016V2912.1L60.8008 2770.7Z"/>
<path transform="matrix(.1,0,0,-.1,0,792)" d="M402.199 2429.3 60.8008 2770.7-80.6016 2629.3V2429.3Z" fill="#ffffff"/>
<path transform="matrix(.1,0,0,-.1,0,792)" stroke-width="15" stroke-linecap="butt" stroke-miterlimit="10" stroke-linejoin="miter" fill="none" stroke="#ffffff" d="M402.199 2429.3 60.8008 2770.7-80.6016 2629.3V2429.3Z"/>
<path transform="matrix(.1,0,0,-.1,0,792)" d="M402.199 1946.4 60.8008 1805-80.6016 1946.4V1746.4L-422.102 1605 160.801 1363.6" fill="#ffffff"/>
<path transform="matrix(.1,0,0,-.1,0,792)" stroke-width="15" stroke-linecap="butt" stroke-miterlimit="10" stroke-linejoin="miter" fill="none" stroke="#ffffff" d="M402.199 1946.4 60.8008 1805-80.6016 1946.4V1746.4L-422.102 1605 160.801 1363.6Z"/>
<path transform="matrix(.1,0,0,-.1,0,792)" d="M402.199 780.801 160.801 197.898 502.199 339.301 643.602 197.898V397.898L985.102 539.301" fill="#ffffff"/>
<path transform="matrix(.1,0,0,-.1,0,792)" stroke-width="15" stroke-linecap="butt" stroke-miterlimit="10" stroke-linejoin="miter" fill="none" stroke="#ffffff" d="M402.199 780.801 160.801 197.898 502.199 339.301 643.602 197.898V397.898L985.102 539.301Z"/>
<path transform="matrix(.1,0,0,-.1,0,792)" d="M402.199 780.801-9.89844 951.5-180.602 539.301-592.801 368.602-422.102-43.5 160.801 197.898"/>
<path transform="matrix(.1,0,0,-.1,0,792)" stroke-width="15" stroke-linecap="butt" stroke-miterlimit="10" stroke-linejoin="miter" fill="none" stroke="#ffffff" d="M402.199 780.801-9.89844 951.5-180.602 539.301-592.801 368.602-422.102-43.5 160.801 197.898Z"/>
<path transform="matrix(.1,0,0,-.1,0,792)" d="M4964.9 7816.3 5306.4 7957.7V8157.7L4964.9 8499.1 4623.5 8157.7V7957.7" fill="#0000bf"/>
<path transform="matrix(.1,0,0,-.1,0,792)" stroke-width="15" stroke-linecap="butt" stroke-miterlimit="10" stroke-linejoin="miter" fill="none" stroke="#ffffff" d="M4964.9 7816.3 5306.4 7957.7V8157.7L4964.9 8499.1 4623.5 8157.7V7957.7Z"/>
<path transform="matrix(.1,0,0,-.1,0,792)" d="M985.102 539.301 643.602 397.898V197.898L985.102-143.5 1326.5 197.898V397.898" fill="#0000bf"/>
<path transform="matrix(.1,0,0,-.1,0,792)" stroke-width="15" stroke-linecap="butt" stroke-miterlimit="10" stroke-linejoin="miter" fill="none" stroke="#ffffff" d="M985.102 539.301 643.602 397.898V197.898L985.102-143.5 1326.5 197.898V397.898Z"/>
<path transform="matrix(.1,0,0,-.1,0,792)" d="M2392.2 7916.3 2533.6 8057.7 2392.2 8399.1 2050.7 8540.6 1909.3 8399.1V7916.3" fill="#0000bf"/>
<path transform="matrix(.1,0,0,-.1,0,792)" stroke-width="15" stroke-linecap="butt" stroke-miterlimit="10" stroke-linejoin="miter" fill="none" stroke="#ffffff" d="M2392.2 7916.3 2533.6 8057.7 2392.2 8399.1 2050.7 8540.6 1909.3 8399.1V7916.3Z"/>
<path transform="matrix(.1,0,0,-.1,0,792)" d="M1909.3 7916.3V8399.1L1567.9 8057.7 1709.3 7916.3Z" fill="#ffffff"/>
<path transform="matrix(.1,0,0,-.1,0,792)" stroke-width="15" stroke-linecap="butt" stroke-miterlimit="10" stroke-linejoin="miter" fill="none" stroke="#ffffff" d="M1909.3 7916.3V8399.1L1567.9 8057.7 1709.3 7916.3Z"/>
<path transform="matrix(.1,0,0,-.1,0,792)" d="M1426.5 7916.3 1567.9 8057.7 1226.5 8399.1V7916.3Z" fill="#ffffff"/>
<path transform="matrix(.1,0,0,-.1,0,792)" stroke-width="15" stroke-linecap="butt" stroke-miterlimit="10" stroke-linejoin="miter" fill="none" stroke="#ffffff" d="M1426.5 7916.3 1567.9 8057.7 1226.5 8399.1V7916.3Z"/>
<path transform="matrix(.1,0,0,-.1,0,792)" d="M1226.5 7916.3V8399.1L1085.1 8540.6 743.602 8399.1 602.199 8057.7 743.602 7916.3" fill="#0000bf"/>
<path transform="matrix(.1,0,0,-.1,0,792)" stroke-width="15" stroke-linecap="butt" stroke-miterlimit="10" stroke-linejoin="miter" fill="none" stroke="#ffffff" d="M1226.5 7916.3V8399.1L1085.1 8540.6 743.602 8399.1 602.199 8057.7 743.602 7916.3Z"/>
<path transform="matrix(.1,0,0,-.1,0,792)" d="M3557.8 439.301 3416.4 297.898 3557.8-43.5 3899.3-184.898 4040.7-43.5V439.301" fill="#0000bf"/>
<path transform="matrix(.1,0,0,-.1,0,792)" stroke-width="15" stroke-linecap="butt" stroke-miterlimit="10" stroke-linejoin="miter" fill="none" stroke="#ffffff" d="M3557.8 439.301 3416.4 297.898 3557.8-43.5 3899.3-184.898 4040.7-43.5V439.301Z"/>
<path transform="matrix(.1,0,0,-.1,0,792)" d="M4040.7 439.301V-43.5L4382.1 297.898 4240.7 439.301Z" fill="#ffffff"/>
<path transform="matrix(.1,0,0,-.1,0,792)" stroke-width="15" stroke-linecap="butt" stroke-miterlimit="10" stroke-linejoin="miter" fill="none" stroke="#ffffff" d="M4040.7 439.301V-43.5L4382.1 297.898 4240.7 439.301Z"/>
<path transform="matrix(.1,0,0,-.1,0,792)" d="M4523.5 439.301 4382.1 297.898 4723.5-43.5V439.301Z" fill="#ffffff"/>
<path transform="matrix(.1,0,0,-.1,0,792)" stroke-width="15" stroke-linecap="butt" stroke-miterlimit="10" stroke-linejoin="miter" fill="none" stroke="#ffffff" d="M4523.5 439.301 4382.1 297.898 4723.5-43.5V439.301Z"/>
<path transform="matrix(.1,0,0,-.1,0,792)" d="M4723.5 439.301V-43.5L4864.9-184.898 5206.4-43.5 5347.8 297.898 5206.4 439.301" fill="#0000bf"/>
<path transform="matrix(.1,0,0,-.1,0,792)" stroke-width="15" stroke-linecap="butt" stroke-miterlimit="10" stroke-linejoin="miter" fill="none" stroke="#ffffff" d="M4723.5 439.301V-43.5L4864.9-184.898 5206.4-43.5 5347.8 297.898 5206.4 439.301Z"/>
<path transform="matrix(.1,0,0,-.1,0,792)" d="M2562.9 368.602 2392.2-43.5 2804.3-214.199 2975 197.898Z" fill="#e6e600"/>
<path transform="matrix(.1,0,0,-.1,0,792)" stroke-width="15" stroke-linecap="butt" stroke-miterlimit="10" stroke-linejoin="miter" fill="none" stroke="#ffffff" d="M2562.9 368.602 2392.2-43.5 2804.3-214.199 2975 197.898Z"/>
<path transform="matrix(.1,0,0,-.1,0,792)" d="M502.199 339.301 160.801 197.898 19.3984-143.5 160.801-284.898H643.602V197.898" fill="#0000bf"/>
<path transform="matrix(.1,0,0,-.1,0,792)" stroke-width="15" stroke-linecap="butt" stroke-miterlimit="10" stroke-linejoin="miter" fill="none" stroke="#ffffff" d="M502.199 339.301 160.801 197.898 19.3984-143.5 160.801-284.898H643.602V197.898Z"/>
<path transform="matrix(.1,0,0,-.1,0,792)" d="M1467.9 339.301 1326.5 197.898V-284.898H1809.3L1950.7-143.5 1809.3 197.898" fill="#0000bf"/>
<path transform="matrix(.1,0,0,-.1,0,792)" stroke-width="15" stroke-linecap="butt" stroke-miterlimit="10" stroke-linejoin="miter" fill="none" stroke="#ffffff" d="M1467.9 339.301 1326.5 197.898V-284.898H1809.3L1950.7-143.5 1809.3 197.898Z"/>
<path transform="matrix(.1,0,0,-.1,0,792)" d="M5789.2 1363.6 6201.3 1192.9 6372.1 1605 5959.9 1775.7Z" fill="#e6e600"/>
<path transform="matrix(.1,0,0,-.1,0,792)" stroke-width="15" stroke-linecap="butt" stroke-miterlimit="10" stroke-linejoin="miter" fill="none" stroke="#ffffff" d="M5789.2 1363.6 6201.3 1192.9 6372.1 1605 5959.9 1775.7Z"/>
<path transform="matrix(.1,0,0,-.1,0,792)" d="M5789.2 3012.1 5959.9 2600 6372.1 2770.7 6201.3 3182.8Z" fill="#ffffff"/>
<path transform="matrix(.1,0,0,-.1,0,792)" stroke-width="15" stroke-linecap="butt" stroke-miterlimit="10" stroke-linejoin="miter" fill="none" stroke="#ffffff" d="M5789.2 3012.1 5959.9 2600 6372.1 2770.7 6201.3 3182.8Z"/>
<path transform="matrix(.1,0,0,-.1,0,792)" d="M5789.2 4177.8 5959.9 3765.7 6372.1 3936.4 6784.2 3765.7 6954.9 4177.8 6372.1 4419.2"/>
<path transform="matrix(.1,0,0,-.1,0,792)" stroke-width="15" stroke-linecap="butt" stroke-miterlimit="10" stroke-linejoin="miter" fill="none" stroke="#ffffff" d="M5789.2 4177.8 5959.9 3765.7 6372.1 3936.4 6784.2 3765.7 6954.9 4177.8 6372.1 4419.2Z"/>
<path transform="matrix(.1,0,0,-.1,0,792)" d="M5789.2 6992 6372.1 6750.6 6954.9 6992 6784.2 7404.2 6372.1 7233.4 5959.9 7404.2"/>
<path transform="matrix(.1,0,0,-.1,0,792)" stroke-width="15" stroke-linecap="butt" stroke-miterlimit="10" stroke-linejoin="miter" fill="none" stroke="#ffffff" d="M5789.2 6992 6372.1 6750.6 6954.9 6992 6784.2 7404.2 6372.1 7233.4 5959.9 7404.2Z"/>
<path transform="matrix(.1,0,0,-.1,0,792)" d="M160.801 6992-251.301 7162.7-422.102 6750.6-9.89844 6579.9Z" fill="#e6e600"/>
<path transform="matrix(.1,0,0,-.1,0,792)" stroke-width="15" stroke-linecap="butt" stroke-miterlimit="10" stroke-linejoin="miter" fill="none" stroke="#ffffff" d="M160.801 6992-251.301 7162.7-422.102 6750.6-9.89844 6579.9Z"/>
<path transform="matrix(.1,0,0,-.1,0,792)" d="M160.801 5343.5-9.89844 5755.6-422.102 5584.9-251.301 5172.8Z" fill="#ffffff"/>
<path transform="matrix(.1,0,0,-.1,0,792)" stroke-width="15" stroke-linecap="butt" stroke-miterlimit="10" stroke-linejoin="miter" fill="none" stroke="#ffffff" d="M160.801 5343.5-9.89844 5755.6-422.102 5584.9-251.301 5172.8Z"/>
<path transform="matrix(.1,0,0,-.1,0,792)" d="M160.801 4177.8-9.89844 4589.9-422.102 4419.2-834.199 4589.9-1004.9 4177.8-422.102 3936.4"/>
<path transform="matrix(.1,0,0,-.1,0,792)" stroke-width="15" stroke-linecap="butt" stroke-miterlimit="10" stroke-linejoin="miter" fill="none" stroke="#ffffff" d="M160.801 4177.8-9.89844 4589.9-422.102 4419.2-834.199 4589.9-1004.9 4177.8-422.102 3936.4Z"/>
<path transform="matrix(.1,0,0,-.1,0,792)" d="M160.801 1363.6-422.102 1605-1004.9 1363.6-834.199 951.5-422.102 1122.2-9.89844 951.5"/>
<path transform="matrix(.1,0,0,-.1,0,792)" stroke-width="15" stroke-linecap="butt" stroke-miterlimit="10" stroke-linejoin="miter" fill="none" stroke="#ffffff" d="M160.801 1363.6-422.102 1605-1004.9 1363.6-834.199 951.5-422.102 1122.2-9.89844 951.5Z"/>
<path transform="matrix(.1,0,0,-.1,0,792)" d="M4382.1 297.898 4040.7-43.5V-243.5L4382.1-384.898 4723.5-243.5V-43.5" fill="#0000bf"/>
<path transform="matrix(.1,0,0,-.1,0,792)" stroke-width="15" stroke-linecap="butt" stroke-miterlimit="10" stroke-linejoin="miter" fill="none" stroke="#ffffff" d="M4382.1 297.898 4040.7-43.5V-243.5L4382.1-384.898 4723.5-243.5V-43.5Z"/>
<path transform="matrix(.1,0,0,-.1,0,792)" d="M160.801 197.898-422.102-43.5-180.602-626.398-39.1992-284.898H160.801L19.3984-143.5" fill="#ffffff"/>
<path transform="matrix(.1,0,0,-.1,0,792)" stroke-width="15" stroke-linecap="butt" stroke-miterlimit="10" stroke-linejoin="miter" fill="none" stroke="#ffffff" d="M160.801 197.898-422.102-43.5-180.602-626.398-39.1992-284.898H160.801L19.3984-143.5Z"/>
<path transform="matrix(.1,0,0,-.1,0,792)" d="M643.602 197.898V-284.898H843.602L985.102-143.5Z" fill="#ffffff"/>
<path transform="matrix(.1,0,0,-.1,0,792)" stroke-width="15" stroke-linecap="butt" stroke-miterlimit="10" stroke-linejoin="miter" fill="none" stroke="#ffffff" d="M643.602 197.898V-284.898H843.602L985.102-143.5Z"/>
<path transform="matrix(.1,0,0,-.1,0,792)" d="M1326.5 197.898 985.102-143.5 1126.5-284.898H1326.5Z" fill="#ffffff"/>
<path transform="matrix(.1,0,0,-.1,0,792)" stroke-width="15" stroke-linecap="butt" stroke-miterlimit="10" stroke-linejoin="miter" fill="none" stroke="#ffffff" d="M1326.5 197.898 985.102-143.5 1126.5-284.898H1326.5Z"/>
<path transform="matrix(.1,0,0,-.1,0,792)" d="M1809.3 197.898 1950.7-143.5 1809.3-284.898H2009.3L2150.7-626.398 2392.2-43.5" fill="#ffffff"/>
<path transform="matrix(.1,0,0,-.1,0,792)" stroke-width="15" stroke-linecap="butt" stroke-miterlimit="10" stroke-linejoin="miter" fill="none" stroke="#ffffff" d="M1809.3 197.898 1950.7-143.5 1809.3-284.898H2009.3L2150.7-626.398 2392.2-43.5Z"/>
<path transform="matrix(.1,0,0,-.1,0,792)" d="M2975 197.898 2804.3-214.199 3216.4-384.898 3387.1-797.102 3799.3-626.398 3557.8-43.5"/>
<path transform="matrix(.1,0,0,-.1,0,792)" stroke-width="15" stroke-linecap="butt" stroke-miterlimit="10" stroke-linejoin="miter" fill="none" stroke="#ffffff" d="M2975 197.898 2804.3-214.199 3216.4-384.898 3387.1-797.102 3799.3-626.398 3557.8-43.5Z"/>
<path transform="matrix(.1,0,0,-.1,0,792)" d="M5789.2 197.898 5959.9-214.199 6372.1-43.5 6201.3 368.602Z" fill="#ffffff"/>
<path transform="matrix(.1,0,0,-.1,0,792)" stroke-width="15" stroke-linecap="butt" stroke-miterlimit="10" stroke-linejoin="miter" fill="none" stroke="#ffffff" d="M5789.2 197.898 5959.9-214.199 6372.1-43.5 6201.3 368.602Z"/>
<path transform="matrix(.1,0,0,-.1,0,792)" d="M5789.2 197.898 5206.4-43.5 4964.9-626.398 5377.1-797.102 5547.8-384.898 5959.9-214.199"/>
<path transform="matrix(.1,0,0,-.1,0,792)" stroke-width="15" stroke-linecap="butt" stroke-miterlimit="10" stroke-linejoin="miter" fill="none" stroke="#ffffff" d="M5789.2 197.898 5206.4-43.5 4964.9-626.398 5377.1-797.102 5547.8-384.898 5959.9-214.199Z"/>
<path transform="matrix(.1,0,0,-.1,0,792)" d="M5889.2 5584.9 6030.6 5443.5V5243.5H6230.6L6372.1 5102.1 6513.5 5243.5H6713.5V5443.5L6854.9 5584.9 6713.5 5726.3V5926.3H6513.5L6372.1 6067.8 6230.6 5926.3H6030.6V5726.3"/>
<path transform="matrix(.1,0,0,-.1,0,792)" stroke-width="15" stroke-linecap="butt" stroke-miterlimit="10" stroke-linejoin="miter" fill="none" stroke="#ffffff" d="M5889.2 5584.9 6030.6 5443.5V5243.5H6230.6L6372.1 5102.1 6513.5 5243.5H6713.5V5443.5L6854.9 5584.9 6713.5 5726.3V5926.3H6513.5L6372.1 6067.8 6230.6 5926.3H6030.6V5726.3Z"/>
<path transform="matrix(.1,0,0,-.1,0,792)" d="M60.8008 2770.7-80.6016 2912.1V3112.1H-280.602L-422.102 3253.5-563.5 3112.1H-763.5V2912.1L-904.898 2770.7-763.5 2629.3V2429.3H-563.5L-422.102 2287.9-280.602 2429.3H-80.6016V2629.3"/>
<path transform="matrix(.1,0,0,-.1,0,792)" stroke-width="15" stroke-linecap="butt" stroke-miterlimit="10" stroke-linejoin="miter" fill="none" stroke="#ffffff" d="M60.8008 2770.7-80.6016 2912.1V3112.1H-280.602L-422.102 3253.5-563.5 3112.1H-763.5V2912.1L-904.898 2770.7-763.5 2629.3V2429.3H-563.5L-422.102 2287.9-280.602 2429.3H-80.6016V2629.3Z"/>
<path transform="matrix(.1,0,0,-.1,0,792)" d="M5959.9 1775.7 6372.1 1605 6613.5 2187.9 6372.1 2770.7 5959.9 2600 6130.6 2187.9"/>
<path transform="matrix(.1,0,0,-.1,0,792)" stroke-width="15" stroke-linecap="butt" stroke-miterlimit="10" stroke-linejoin="miter" fill="none" stroke="#ffffff" d="M5959.9 1775.7 6372.1 1605 6613.5 2187.9 6372.1 2770.7 5959.9 2600 6130.6 2187.9Z"/>
<path transform="matrix(.1,0,0,-.1,0,792)" d="M5959.9 3765.7 6030.6 3595 6201.3 3524.3 6130.6 3353.5 6201.3 3182.8 6613.5 3353.5 6784.2 3765.7 6372.1 3936.4" fill="#ffffff"/>
<path transform="matrix(.1,0,0,-.1,0,792)" stroke-width="15" stroke-linecap="butt" stroke-miterlimit="10" stroke-linejoin="miter" fill="none" stroke="#ffffff" d="M5959.9 3765.7 6030.6 3595 6201.3 3524.3 6130.6 3353.5 6201.3 3182.8 6613.5 3353.5 6784.2 3765.7 6372.1 3936.4Z"/>
<path transform="matrix(.1,0,0,-.1,0,792)" d="M5959.9 7404.2 6372.1 7233.4 6784.2 7404.2 6713.5 7574.9 6542.8 7645.6 6613.5 7816.3 6542.8 7987 6130.6 7816.3" fill="#ffffff"/>
<path transform="matrix(.1,0,0,-.1,0,792)" stroke-width="15" stroke-linecap="butt" stroke-miterlimit="10" stroke-linejoin="miter" fill="none" stroke="#ffffff" d="M5959.9 7404.2 6372.1 7233.4 6784.2 7404.2 6713.5 7574.9 6542.8 7645.6 6613.5 7816.3 6542.8 7987 6130.6 7816.3Z"/>
<path transform="matrix(.1,0,0,-.1,0,792)" d="M6030.6 780.801 6201.3 368.602 6372.1 439.301 6442.8 610 6613.5 539.301 6784.2 610 6613.5 1022.2 6201.3 1192.9" fill="#ffffff"/>
<path transform="matrix(.1,0,0,-.1,0,792)" stroke-width="15" stroke-linecap="butt" stroke-miterlimit="10" stroke-linejoin="miter" fill="none" stroke="#ffffff" d="M6030.6 780.801 6201.3 368.602 6372.1 439.301 6442.8 610 6613.5 539.301 6784.2 610 6613.5 1022.2 6201.3 1192.9Z"/>
<path transform="matrix(.1,0,0,-.1,0,792)" d="M6030.6 4560.7 6372.1 4419.2 6713.5 4560.7V4760.7L6372.1 5102.1 6030.6 4760.7" fill="#0000bf"/>
<path transform="matrix(.1,0,0,-.1,0,792)" stroke-width="15" stroke-linecap="butt" stroke-miterlimit="10" stroke-linejoin="miter" fill="none" stroke="#ffffff" d="M6030.6 4560.7 6372.1 4419.2 6713.5 4560.7V4760.7L6372.1 5102.1 6030.6 4760.7Z"/>
<path transform="matrix(.1,0,0,-.1,0,792)" d="M6030.6 4760.7 6372.1 5102.1 6230.6 5243.5H6030.6Z" fill="#ffffff"/>
<path transform="matrix(.1,0,0,-.1,0,792)" stroke-width="15" stroke-linecap="butt" stroke-miterlimit="10" stroke-linejoin="miter" fill="none" stroke="#ffffff" d="M6030.6 4760.7 6372.1 5102.1 6230.6 5243.5H6030.6Z"/>
<path transform="matrix(.1,0,0,-.1,0,792)" d="M6030.6 5926.3H6230.6L6372.1 6067.8 6030.6 6409.2Z" fill="#ffffff"/>
<path transform="matrix(.1,0,0,-.1,0,792)" stroke-width="15" stroke-linecap="butt" stroke-miterlimit="10" stroke-linejoin="miter" fill="none" stroke="#ffffff" d="M6030.6 5926.3H6230.6L6372.1 6067.8 6030.6 6409.2Z"/>
<path transform="matrix(.1,0,0,-.1,0,792)" d="M6030.6 6409.2 6372.1 6067.8 6713.5 6409.2V6609.2L6372.1 6750.6 6030.6 6609.2" fill="#0000bf"/>
<path transform="matrix(.1,0,0,-.1,0,792)" stroke-width="15" stroke-linecap="butt" stroke-miterlimit="10" stroke-linejoin="miter" fill="none" stroke="#ffffff" d="M6030.6 6409.2 6372.1 6067.8 6713.5 6409.2V6609.2L6372.1 6750.6 6030.6 6609.2Z"/>
</svg>
