<svg xmlns="http://www.w3.org/2000/svg" xmlns:xlink="http://www.w3.org/1999/xlink" xmlns:inkscape="http://www.inkscape.org/namespaces/inkscape" version="1.1" width="612" height="792" viewBox="0 0 612 792">
<path transform="matrix(.1,0,0,-.1,0,792)" d="M2441.7 4210 2841.7 3810 3241.7 4210 2841.7 4610Z" fill="#ffffff"/>
<path transform="matrix(.1,0,0,-.1,0,792)" stroke-width="1" stroke-linecap="butt" stroke-miterlimit="10" stroke-linejoin="miter" fill="none" stroke="#000000" d="M2441.7 4210 2841.7 3810 3241.7 4210 2841.7 4610Z"/>
<path transform="matrix(.1,0,0,-.1,0,792)" d="M3241.7 4210 3441.7 4410 3041.7 4810 2841.7 4610Z" fill="#212947"/>
<path transform="matrix(.1,0,0,-.1,0,792)" stroke-width="1" stroke-linecap="butt" stroke-miterlimit="10" stroke-linejoin="miter" fill="none" stroke="#000000" d="M3241.7 4210 3441.7 4410 3041.7 4810 2841.7 4610Z"/>
<path transform="matrix(.1,0,0,-.1,0,792)" d="M3241.7 4210 3441.7 4010H3841.7V4410H3441.7" fill="#ffffff"/>
<path transform="matrix(.1,0,0,-.1,0,792)" stroke-width="1" stroke-linecap="butt" stroke-miterlimit="10" stroke-linejoin="miter" fill="none" stroke="#000000" d="M3241.7 4210 3441.7 4010H3841.7V4410H3441.7Z"/>
<path transform="matrix(.1,0,0,-.1,0,792)" d="M3241.7 4210 2841.7 3810 3041.7 3610 3441.7 4010Z" fill="#212947"/>
<path transform="matrix(.1,0,0,-.1,0,792)" stroke-width="1" stroke-linecap="butt" stroke-miterlimit="10" stroke-linejoin="miter" fill="none" stroke="#000000" d="M3241.7 4210 2841.7 3810 3041.7 3610 3441.7 4010Z"/>
<path transform="matrix(.1,0,0,-.1,0,792)" d="M2841.7 3810 2641.7 3610V3210H3041.7V3610" fill="#ffffff"/>
<path transform="matrix(.1,0,0,-.1,0,792)" stroke-width="1" stroke-linecap="butt" stroke-miterlimit="10" stroke-linejoin="miter" fill="none" stroke="#000000" d="M2841.7 3810 2641.7 3610V3210H3041.7V3610Z"/>
<path transform="matrix(.1,0,0,-.1,0,792)" d="M2841.7 3810 2441.7 4210 2241.7 4010 2641.7 3610Z" fill="#212947"/>
<path transform="matrix(.1,0,0,-.1,0,792)" stroke-width="1" stroke-linecap="butt" stroke-miterlimit="10" stroke-linejoin="miter" fill="none" stroke="#000000" d="M2841.7 3810 2441.7 4210 2241.7 4010 2641.7 3610Z"/>
<path transform="matrix(.1,0,0,-.1,0,792)" d="M2841.7 4610 2641.7 4810 2241.7 4410 2441.7 4210Z" fill="#212947"/>
<path transform="matrix(.1,0,0,-.1,0,792)" stroke-width="1" stroke-linecap="butt" stroke-miterlimit="10" stroke-linejoin="miter" fill="none" stroke="#000000" d="M2841.7 4610 2641.7 4810 2241.7 4410 2441.7 4210Z"/>
<path transform="matrix(.1,0,0,-.1,0,792)" d="M2841.7 4610 3041.7 4810V5210H2641.7V4810" fill="#ffffff"/>
<path transform="matrix(.1,0,0,-.1,0,792)" stroke-width="1" stroke-linecap="butt" stroke-miterlimit="10" stroke-linejoin="miter" fill="none" stroke="#000000" d="M2841.7 4610 3041.7 4810V5210H2641.7V4810Z"/>
<path transform="matrix(.1,0,0,-.1,0,792)" d="M3041.7 4810H3441.7V4410H3841.7V5210H3041.7" fill="#212947"/>
<path transform="matrix(.1,0,0,-.1,0,792)" stroke-width="1" stroke-linecap="butt" stroke-miterlimit="10" stroke-linejoin="miter" fill="none" stroke="#000000" d="M3041.7 4810H3441.7V4410H3841.7V5210H3041.7Z"/>
<path transform="matrix(.1,0,0,-.1,0,792)" d="M3041.7 4810 3441.7 4410V4810" fill="#ffffff"/>
<path transform="matrix(.1,0,0,-.1,0,792)" stroke-width="1" stroke-linecap="butt" stroke-miterlimit="10" stroke-linejoin="miter" fill="none" stroke="#000000" d="M3041.7 4810 3441.7 4410V4810Z"/>
<path transform="matrix(.1,0,0,-.1,0,792)" d="M2641.7 4810H2241.7V4410" fill="#ffffff"/>
<path transform="matrix(.1,0,0,-.1,0,792)" stroke-width="1" stroke-linecap="butt" stroke-miterlimit="10" stroke-linejoin="miter" fill="none" stroke="#000000" d="M2641.7 4810H2241.7V4410Z"/>
<path transform="matrix(.1,0,0,-.1,0,792)" d="M2641.7 4810V5210H1841.7V4410H2241.7V4810" fill="#212947"/>
<path transform="matrix(.1,0,0,-.1,0,792)" stroke-width="1" stroke-linecap="butt" stroke-miterlimit="10" stroke-linejoin="miter" fill="none" stroke="#000000" d="M2641.7 4810V5210H1841.7V4410H2241.7V4810Z"/>
<path transform="matrix(.1,0,0,-.1,0,792)" d="M2641.7 3610H2241.7V4010H1841.7V3210H2641.7" fill="#212947"/>
<path transform="matrix(.1,0,0,-.1,0,792)" stroke-width="1" stroke-linecap="butt" stroke-miterlimit="10" stroke-linejoin="miter" fill="none" stroke="#000000" d="M2641.7 3610H2241.7V4010H1841.7V3210H2641.7Z"/>
<path transform="matrix(.1,0,0,-.1,0,792)" d="M2641.7 3610 2241.7 4010V3610" fill="#ffffff"/>
<path transform="matrix(.1,0,0,-.1,0,792)" stroke-width="1" stroke-linecap="butt" stroke-miterlimit="10" stroke-linejoin="miter" fill="none" stroke="#000000" d="M2641.7 3610 2241.7 4010V3610Z"/>
<path transform="matrix(.1,0,0,-.1,0,792)" d="M3041.7 3610H3441.7V4010" fill="#ffffff"/>
<path transform="matrix(.1,0,0,-.1,0,792)" stroke-width="1" stroke-linecap="butt" stroke-miterlimit="10" stroke-linejoin="miter" fill="none" stroke="#000000" d="M3041.7 3610H3441.7V4010Z"/>
<path transform="matrix(.1,0,0,-.1,0,792)" d="M3041.7 3610V3210H3841.7V4010H3441.7V3610" fill="#212947"/>
<path transform="matrix(.1,0,0,-.1,0,792)" stroke-width="1" stroke-linecap="butt" stroke-miterlimit="10" stroke-linejoin="miter" fill="none" stroke="#000000" d="M3041.7 3610V3210H3841.7V4010H3441.7V3610Z"/>
<path transform="matrix(.1,0,0,-.1,0,792)" d="M2441.7 4210 2241.7 4410H1841.7V4010H2241.7" fill="#ffffff"/>
<path transform="matrix(.1,0,0,-.1,0,792)" stroke-width="1" stroke-linecap="butt" stroke-miterlimit="10" stroke-linejoin="miter" fill="none" stroke="#000000" d="M2441.7 4210 2241.7 4410H1841.7V4010H2241.7Z"/>
<path transform="matrix(.1,0,0,-.1,0,792)" d="M2641.7 3210V2810L2841.7 2610 3041.7 2810V3210" fill="#212947"/>
<path transform="matrix(.1,0,0,-.1,0,792)" stroke-width="1" stroke-linecap="butt" stroke-miterlimit="10" stroke-linejoin="miter" fill="none" stroke="#000000" d="M2641.7 3210V2810L2841.7 2610 3041.7 2810V3210Z"/>
<path transform="matrix(.1,0,0,-.1,0,792)" d="M2641.7 3210H1841.7V2410H2241.7V2810H2641.7" fill="#ffffff"/>
<path transform="matrix(.1,0,0,-.1,0,792)" stroke-width="1" stroke-linecap="butt" stroke-miterlimit="10" stroke-linejoin="miter" fill="none" stroke="#000000" d="M2641.7 3210H1841.7V2410H2241.7V2810H2641.7Z"/>
<path transform="matrix(.1,0,0,-.1,0,792)" d="M3041.7 3210V2810H3441.7V2410H3841.7V3210" fill="#ffffff"/>
<path transform="matrix(.1,0,0,-.1,0,792)" stroke-width="1" stroke-linecap="butt" stroke-miterlimit="10" stroke-linejoin="miter" fill="none" stroke="#000000" d="M3041.7 3210V2810H3441.7V2410H3841.7V3210Z"/>
<path transform="matrix(.1,0,0,-.1,0,792)" d="M3041.7 5210V5610L2841.7 5810 2641.7 5610V5210" fill="#212947"/>
<path transform="matrix(.1,0,0,-.1,0,792)" stroke-width="1" stroke-linecap="butt" stroke-miterlimit="10" stroke-linejoin="miter" fill="none" stroke="#000000" d="M3041.7 5210V5610L2841.7 5810 2641.7 5610V5210Z"/>
<path transform="matrix(.1,0,0,-.1,0,792)" d="M3041.7 5210H3841.7V6010H3441.7V5610H3041.7" fill="#ffffff"/>
<path transform="matrix(.1,0,0,-.1,0,792)" stroke-width="1" stroke-linecap="butt" stroke-miterlimit="10" stroke-linejoin="miter" fill="none" stroke="#000000" d="M3041.7 5210H3841.7V6010H3441.7V5610H3041.7Z"/>
<path transform="matrix(.1,0,0,-.1,0,792)" d="M2641.7 5210V5610H2241.7V6010H1841.7V5210" fill="#ffffff"/>
<path transform="matrix(.1,0,0,-.1,0,792)" stroke-width="1" stroke-linecap="butt" stroke-miterlimit="10" stroke-linejoin="miter" fill="none" stroke="#000000" d="M2641.7 5210V5610H2241.7V6010H1841.7V5210Z"/>
<path transform="matrix(.1,0,0,-.1,0,792)" d="M3841.7 3210H4641.7V3610H4241.7V4010H3841.7" fill="#ffffff"/>
<path transform="matrix(.1,0,0,-.1,0,792)" stroke-width="1" stroke-linecap="butt" stroke-miterlimit="10" stroke-linejoin="miter" fill="none" stroke="#000000" d="M3841.7 3210H4641.7V3610H4241.7V4010H3841.7Z"/>
<path transform="matrix(.1,0,0,-.1,0,792)" d="M3841.7 3210V2410H4241.7V2810H4641.7V3210" fill="#212947"/>
<path transform="matrix(.1,0,0,-.1,0,792)" stroke-width="1" stroke-linecap="butt" stroke-miterlimit="10" stroke-linejoin="miter" fill="none" stroke="#000000" d="M3841.7 3210V2410H4241.7V2810H4641.7V3210Z"/>
<path transform="matrix(.1,0,0,-.1,0,792)" d="M3841.7 4010H4241.7L4441.7 4210 4241.7 4410H3841.7" fill="#212947"/>
<path transform="matrix(.1,0,0,-.1,0,792)" stroke-width="1" stroke-linecap="butt" stroke-miterlimit="10" stroke-linejoin="miter" fill="none" stroke="#000000" d="M3841.7 4010H4241.7L4441.7 4210 4241.7 4410H3841.7Z"/>
<path transform="matrix(.1,0,0,-.1,0,792)" d="M3841.7 4410H4241.7V4810H4641.7V5210H3841.7" fill="#ffffff"/>
<path transform="matrix(.1,0,0,-.1,0,792)" stroke-width="1" stroke-linecap="butt" stroke-miterlimit="10" stroke-linejoin="miter" fill="none" stroke="#000000" d="M3841.7 4410H4241.7V4810H4641.7V5210H3841.7Z"/>
<path transform="matrix(.1,0,0,-.1,0,792)" d="M3841.7 5210H4641.7V5610H4241.7V6010H3841.7" fill="#212947"/>
<path transform="matrix(.1,0,0,-.1,0,792)" stroke-width="1" stroke-linecap="butt" stroke-miterlimit="10" stroke-linejoin="miter" fill="none" stroke="#000000" d="M3841.7 5210H4641.7V5610H4241.7V6010H3841.7Z"/>
<path transform="matrix(.1,0,0,-.1,0,792)" d="M3441.7 5610V6010L3041.7 5610" fill="#212947"/>
<path transform="matrix(.1,0,0,-.1,0,792)" stroke-width="1" stroke-linecap="butt" stroke-miterlimit="10" stroke-linejoin="miter" fill="none" stroke="#000000" d="M3441.7 5610V6010L3041.7 5610Z"/>
<path transform="matrix(.1,0,0,-.1,0,792)" d="M3041.7 5610 3441.7 6010 3241.7 6210 2841.7 5810Z" fill="#ffffff"/>
<path transform="matrix(.1,0,0,-.1,0,792)" stroke-width="1" stroke-linecap="butt" stroke-miterlimit="10" stroke-linejoin="miter" fill="none" stroke="#000000" d="M3041.7 5610 3441.7 6010 3241.7 6210 2841.7 5810Z"/>
<path transform="matrix(.1,0,0,-.1,0,792)" d="M2641.7 5610 2241.7 6010V5610" fill="#212947"/>
<path transform="matrix(.1,0,0,-.1,0,792)" stroke-width="1" stroke-linecap="butt" stroke-miterlimit="10" stroke-linejoin="miter" fill="none" stroke="#000000" d="M2641.7 5610 2241.7 6010V5610Z"/>
<path transform="matrix(.1,0,0,-.1,0,792)" d="M2641.7 5610 2841.7 5810 2441.7 6210 2241.7 6010Z" fill="#ffffff"/>
<path transform="matrix(.1,0,0,-.1,0,792)" stroke-width="1" stroke-linecap="butt" stroke-miterlimit="10" stroke-linejoin="miter" fill="none" stroke="#000000" d="M2641.7 5610 2841.7 5810 2441.7 6210 2241.7 6010Z"/>
<path transform="matrix(.1,0,0,-.1,0,792)" d="M2241.7 2810V2410L2641.7 2810" fill="#212947"/>
<path transform="matrix(.1,0,0,-.1,0,792)" stroke-width="1" stroke-linecap="butt" stroke-miterlimit="10" stroke-linejoin="miter" fill="none" stroke="#000000" d="M2241.7 2810V2410L2641.7 2810Z"/>
<path transform="matrix(.1,0,0,-.1,0,792)" d="M2641.7 2810 2241.7 2410 2441.7 2210 2841.7 2610Z" fill="#ffffff"/>
<path transform="matrix(.1,0,0,-.1,0,792)" stroke-width="1" stroke-linecap="butt" stroke-miterlimit="10" stroke-linejoin="miter" fill="none" stroke="#000000" d="M2641.7 2810 2241.7 2410 2441.7 2210 2841.7 2610Z"/>
<path transform="matrix(.1,0,0,-.1,0,792)" d="M3041.7 2810 3441.7 2410V2810" fill="#212947"/>
<path transform="matrix(.1,0,0,-.1,0,792)" stroke-width="1" stroke-linecap="butt" stroke-miterlimit="10" stroke-linejoin="miter" fill="none" stroke="#000000" d="M3041.7 2810 3441.7 2410V2810Z"/>
<path transform="matrix(.1,0,0,-.1,0,792)" d="M3041.7 2810 2841.7 2610 3241.7 2210 3441.7 2410Z" fill="#ffffff"/>
<path transform="matrix(.1,0,0,-.1,0,792)" stroke-width="1" stroke-linecap="butt" stroke-miterlimit="10" stroke-linejoin="miter" fill="none" stroke="#000000" d="M3041.7 2810 2841.7 2610 3241.7 2210 3441.7 2410Z"/>
<path transform="matrix(.1,0,0,-.1,0,792)" d="M1841.7 5210H1041.7V4810H1441.7V4410H1841.7" fill="#ffffff"/>
<path transform="matrix(.1,0,0,-.1,0,792)" stroke-width="1" stroke-linecap="butt" stroke-miterlimit="10" stroke-linejoin="miter" fill="none" stroke="#000000" d="M1841.7 5210H1041.7V4810H1441.7V4410H1841.7Z"/>
<path transform="matrix(.1,0,0,-.1,0,792)" d="M1841.7 5210V6010H1441.7V5610H1041.7V5210" fill="#212947"/>
<path transform="matrix(.1,0,0,-.1,0,792)" stroke-width="1" stroke-linecap="butt" stroke-miterlimit="10" stroke-linejoin="miter" fill="none" stroke="#000000" d="M1841.7 5210V6010H1441.7V5610H1041.7V5210Z"/>
<path transform="matrix(.1,0,0,-.1,0,792)" d="M1841.7 4410H1441.7L1241.7 4210 1441.7 4010H1841.7" fill="#212947"/>
<path transform="matrix(.1,0,0,-.1,0,792)" stroke-width="1" stroke-linecap="butt" stroke-miterlimit="10" stroke-linejoin="miter" fill="none" stroke="#000000" d="M1841.7 4410H1441.7L1241.7 4210 1441.7 4010H1841.7Z"/>
<path transform="matrix(.1,0,0,-.1,0,792)" d="M1841.7 4010H1441.7V3610H1041.7V3210H1841.7" fill="#ffffff"/>
<path transform="matrix(.1,0,0,-.1,0,792)" stroke-width="1" stroke-linecap="butt" stroke-miterlimit="10" stroke-linejoin="miter" fill="none" stroke="#000000" d="M1841.7 4010H1441.7V3610H1041.7V3210H1841.7Z"/>
<path transform="matrix(.1,0,0,-.1,0,792)" d="M1841.7 3210H1041.7V2810H1441.7V2410H1841.7" fill="#212947"/>
<path transform="matrix(.1,0,0,-.1,0,792)" stroke-width="1" stroke-linecap="butt" stroke-miterlimit="10" stroke-linejoin="miter" fill="none" stroke="#000000" d="M1841.7 3210H1041.7V2810H1441.7V2410H1841.7Z"/>
<path transform="matrix(.1,0,0,-.1,0,792)" d="M2841.7 2610 2441.7 2210 2841.7 1810 3241.7 2210Z" fill="#212947"/>
<path transform="matrix(.1,0,0,-.1,0,792)" stroke-width="1" stroke-linecap="butt" stroke-miterlimit="10" stroke-linejoin="miter" fill="none" stroke="#000000" d="M2841.7 2610 2441.7 2210 2841.7 1810 3241.7 2210Z"/>
<path transform="matrix(.1,0,0,-.1,0,792)" d="M2841.7 5810 3241.7 6210 2841.7 6610 2441.7 6210Z" fill="#212947"/>
<path transform="matrix(.1,0,0,-.1,0,792)" stroke-width="1" stroke-linecap="butt" stroke-miterlimit="10" stroke-linejoin="miter" fill="none" stroke="#000000" d="M2841.7 5810 3241.7 6210 2841.7 6610 2441.7 6210Z"/>
<path transform="matrix(.1,0,0,-.1,0,792)" d="M4241.7 2810V2410L4641.7 2810" fill="#ffffff"/>
<path transform="matrix(.1,0,0,-.1,0,792)" stroke-width="1" stroke-linecap="butt" stroke-miterlimit="10" stroke-linejoin="miter" fill="none" stroke="#000000" d="M4241.7 2810V2410L4641.7 2810Z"/>
<path transform="matrix(.1,0,0,-.1,0,792)" d="M4241.7 3610H4641.7L4241.7 4010" fill="#212947"/>
<path transform="matrix(.1,0,0,-.1,0,792)" stroke-width="1" stroke-linecap="butt" stroke-miterlimit="10" stroke-linejoin="miter" fill="none" stroke="#000000" d="M4241.7 3610H4641.7L4241.7 4010Z"/>
<path transform="matrix(.1,0,0,-.1,0,792)" d="M4241.7 4010 4641.7 3610 4841.7 3810 4441.7 4210Z" fill="#ffffff"/>
<path transform="matrix(.1,0,0,-.1,0,792)" stroke-width="1" stroke-linecap="butt" stroke-miterlimit="10" stroke-linejoin="miter" fill="none" stroke="#000000" d="M4241.7 4010 4641.7 3610 4841.7 3810 4441.7 4210Z"/>
<path transform="matrix(.1,0,0,-.1,0,792)" d="M4241.7 4410 4641.7 4810H4241.7" fill="#212947"/>
<path transform="matrix(.1,0,0,-.1,0,792)" stroke-width="1" stroke-linecap="butt" stroke-miterlimit="10" stroke-linejoin="miter" fill="none" stroke="#000000" d="M4241.7 4410 4641.7 4810H4241.7Z"/>
<path transform="matrix(.1,0,0,-.1,0,792)" d="M4241.7 4410 4441.7 4210 4841.7 4610 4641.7 4810Z" fill="#ffffff"/>
<path transform="matrix(.1,0,0,-.1,0,792)" stroke-width="1" stroke-linecap="butt" stroke-miterlimit="10" stroke-linejoin="miter" fill="none" stroke="#000000" d="M4241.7 4410 4441.7 4210 4841.7 4610 4641.7 4810Z"/>
<path transform="matrix(.1,0,0,-.1,0,792)" d="M4241.7 5610H4641.7L4241.7 6010" fill="#ffffff"/>
<path transform="matrix(.1,0,0,-.1,0,792)" stroke-width="1" stroke-linecap="butt" stroke-miterlimit="10" stroke-linejoin="miter" fill="none" stroke="#000000" d="M4241.7 5610H4641.7L4241.7 6010Z"/>
<path transform="matrix(.1,0,0,-.1,0,792)" d="M4241.7 6010 4441.7 6210 4241.7 6410H3841.7V6010" fill="#ffffff"/>
<path transform="matrix(.1,0,0,-.1,0,792)" stroke-width="1" stroke-linecap="butt" stroke-miterlimit="10" stroke-linejoin="miter" fill="none" stroke="#000000" d="M4241.7 6010 4441.7 6210 4241.7 6410H3841.7V6010Z"/>
<path transform="matrix(.1,0,0,-.1,0,792)" d="M4241.7 6010 4641.7 5610 4841.7 5810 4441.7 6210Z" fill="#212947"/>
<path transform="matrix(.1,0,0,-.1,0,792)" stroke-width="1" stroke-linecap="butt" stroke-miterlimit="10" stroke-linejoin="miter" fill="none" stroke="#000000" d="M4241.7 6010 4641.7 5610 4841.7 5810 4441.7 6210Z"/>
<path transform="matrix(.1,0,0,-.1,0,792)" d="M3841.7 6010V6410H3441.7L3241.7 6210 3441.7 6010" fill="#212947"/>
<path transform="matrix(.1,0,0,-.1,0,792)" stroke-width="1" stroke-linecap="butt" stroke-miterlimit="10" stroke-linejoin="miter" fill="none" stroke="#000000" d="M3841.7 6010V6410H3441.7L3241.7 6210 3441.7 6010Z"/>
<path transform="matrix(.1,0,0,-.1,0,792)" d="M2241.7 6010 2441.7 6210 2241.7 6410H1841.7V6010" fill="#212947"/>
<path transform="matrix(.1,0,0,-.1,0,792)" stroke-width="1" stroke-linecap="butt" stroke-miterlimit="10" stroke-linejoin="miter" fill="none" stroke="#000000" d="M2241.7 6010 2441.7 6210 2241.7 6410H1841.7V6010Z"/>
<path transform="matrix(.1,0,0,-.1,0,792)" d="M1841.7 6010V6410H1441.7L1241.7 6210 1441.7 6010" fill="#ffffff"/>
<path transform="matrix(.1,0,0,-.1,0,792)" stroke-width="1" stroke-linecap="butt" stroke-miterlimit="10" stroke-linejoin="miter" fill="none" stroke="#000000" d="M1841.7 6010V6410H1441.7L1241.7 6210 1441.7 6010Z"/>
<path transform="matrix(.1,0,0,-.1,0,792)" d="M1841.7 2410V2010H2241.7L2441.7 2210 2241.7 2410" fill="#212947"/>
<path transform="matrix(.1,0,0,-.1,0,792)" stroke-width="1" stroke-linecap="butt" stroke-miterlimit="10" stroke-linejoin="miter" fill="none" stroke="#000000" d="M1841.7 2410V2010H2241.7L2441.7 2210 2241.7 2410Z"/>
<path transform="matrix(.1,0,0,-.1,0,792)" d="M1841.7 2410H1441.7L1241.7 2210 1441.7 2010H1841.7" fill="#ffffff"/>
<path transform="matrix(.1,0,0,-.1,0,792)" stroke-width="1" stroke-linecap="butt" stroke-miterlimit="10" stroke-linejoin="miter" fill="none" stroke="#000000" d="M1841.7 2410H1441.7L1241.7 2210 1441.7 2010H1841.7Z"/>
<path transform="matrix(.1,0,0,-.1,0,792)" d="M3441.7 2410 3241.7 2210 3441.7 2010H3841.7V2410" fill="#212947"/>
<path transform="matrix(.1,0,0,-.1,0,792)" stroke-width="1" stroke-linecap="butt" stroke-miterlimit="10" stroke-linejoin="miter" fill="none" stroke="#000000" d="M3441.7 2410 3241.7 2210 3441.7 2010H3841.7V2410Z"/>
<path transform="matrix(.1,0,0,-.1,0,792)" d="M3841.7 2410V2010H4241.7L4441.7 2210 4241.7 2410" fill="#ffffff"/>
<path transform="matrix(.1,0,0,-.1,0,792)" stroke-width="1" stroke-linecap="butt" stroke-miterlimit="10" stroke-linejoin="miter" fill="none" stroke="#000000" d="M3841.7 2410V2010H4241.7L4441.7 2210 4241.7 2410Z"/>
<path transform="matrix(.1,0,0,-.1,0,792)" d="M4241.7 2410 4441.7 2210 4841.7 2610 4641.7 2810Z" fill="#212947"/>
<path transform="matrix(.1,0,0,-.1,0,792)" stroke-width="1" stroke-linecap="butt" stroke-miterlimit="10" stroke-linejoin="miter" fill="none" stroke="#000000" d="M4241.7 2410 4441.7 2210 4841.7 2610 4641.7 2810Z"/>
<path transform="matrix(.1,0,0,-.1,0,792)" d="M3241.7 6210 3441.7 6410 3041.7 6810 2841.7 6610Z" fill="#ffffff"/>
<path transform="matrix(.1,0,0,-.1,0,792)" stroke-width="1" stroke-linecap="butt" stroke-miterlimit="10" stroke-linejoin="miter" fill="none" stroke="#000000" d="M3241.7 6210 3441.7 6410 3041.7 6810 2841.7 6610Z"/>
<path transform="matrix(.1,0,0,-.1,0,792)" d="M2441.7 6210 2841.7 6610 2641.7 6810 2241.7 6410Z" fill="#ffffff"/>
<path transform="matrix(.1,0,0,-.1,0,792)" stroke-width="1" stroke-linecap="butt" stroke-miterlimit="10" stroke-linejoin="miter" fill="none" stroke="#000000" d="M2441.7 6210 2841.7 6610 2641.7 6810 2241.7 6410Z"/>
<path transform="matrix(.1,0,0,-.1,0,792)" d="M2441.7 2210 2241.7 2010 2641.7 1610 2841.7 1810Z" fill="#ffffff"/>
<path transform="matrix(.1,0,0,-.1,0,792)" stroke-width="1" stroke-linecap="butt" stroke-miterlimit="10" stroke-linejoin="miter" fill="none" stroke="#000000" d="M2441.7 2210 2241.7 2010 2641.7 1610 2841.7 1810Z"/>
<path transform="matrix(.1,0,0,-.1,0,792)" d="M3241.7 2210 2841.7 1810 3041.7 1610 3441.7 2010Z" fill="#ffffff"/>
<path transform="matrix(.1,0,0,-.1,0,792)" stroke-width="1" stroke-linecap="butt" stroke-miterlimit="10" stroke-linejoin="miter" fill="none" stroke="#000000" d="M3241.7 2210 2841.7 1810 3041.7 1610 3441.7 2010Z"/>
<path transform="matrix(.1,0,0,-.1,0,792)" d="M4441.7 2210 4841.7 1810 5241.7 2210 4841.7 2610Z" fill="#ffffff"/>
<path transform="matrix(.1,0,0,-.1,0,792)" stroke-width="1" stroke-linecap="butt" stroke-miterlimit="10" stroke-linejoin="miter" fill="none" stroke="#000000" d="M4441.7 2210 4841.7 1810 5241.7 2210 4841.7 2610Z"/>
<path transform="matrix(.1,0,0,-.1,0,792)" d="M4441.7 2210 4241.7 2010 4641.7 1610 4841.7 1810Z" fill="#212947"/>
<path transform="matrix(.1,0,0,-.1,0,792)" stroke-width="1" stroke-linecap="butt" stroke-miterlimit="10" stroke-linejoin="miter" fill="none" stroke="#000000" d="M4441.7 2210 4241.7 2010 4641.7 1610 4841.7 1810Z"/>
<path transform="matrix(.1,0,0,-.1,0,792)" d="M4441.7 4210 4841.7 3810 5241.7 4210 4841.7 4610Z" fill="#212947"/>
<path transform="matrix(.1,0,0,-.1,0,792)" stroke-width="1" stroke-linecap="butt" stroke-miterlimit="10" stroke-linejoin="miter" fill="none" stroke="#000000" d="M4441.7 4210 4841.7 3810 5241.7 4210 4841.7 4610Z"/>
<path transform="matrix(.1,0,0,-.1,0,792)" d="M4441.7 6210 4841.7 6610 4641.7 6810 4241.7 6410Z" fill="#212947"/>
<path transform="matrix(.1,0,0,-.1,0,792)" stroke-width="1" stroke-linecap="butt" stroke-miterlimit="10" stroke-linejoin="miter" fill="none" stroke="#000000" d="M4441.7 6210 4841.7 6610 4641.7 6810 4241.7 6410Z"/>
<path transform="matrix(.1,0,0,-.1,0,792)" d="M4441.7 6210 4841.7 5810 5241.7 6210 4841.7 6610Z" fill="#ffffff"/>
<path transform="matrix(.1,0,0,-.1,0,792)" stroke-width="1" stroke-linecap="butt" stroke-miterlimit="10" stroke-linejoin="miter" fill="none" stroke="#000000" d="M4441.7 6210 4841.7 5810 5241.7 6210 4841.7 6610Z"/>
<path transform="matrix(.1,0,0,-.1,0,792)" d="M1441.7 6010 1041.7 5610H1441.7" fill="#ffffff"/>
<path transform="matrix(.1,0,0,-.1,0,792)" stroke-width="1" stroke-linecap="butt" stroke-miterlimit="10" stroke-linejoin="miter" fill="none" stroke="#000000" d="M1441.7 6010 1041.7 5610H1441.7Z"/>
<path transform="matrix(.1,0,0,-.1,0,792)" d="M1441.7 6010 1241.7 6210 841.699 5810 1041.7 5610Z" fill="#212947"/>
<path transform="matrix(.1,0,0,-.1,0,792)" stroke-width="1" stroke-linecap="butt" stroke-miterlimit="10" stroke-linejoin="miter" fill="none" stroke="#000000" d="M1441.7 6010 1241.7 6210 841.699 5810 1041.7 5610Z"/>
<path transform="matrix(.1,0,0,-.1,0,792)" d="M1441.7 4810H1041.7L1441.7 4410" fill="#212947"/>
<path transform="matrix(.1,0,0,-.1,0,792)" stroke-width="1" stroke-linecap="butt" stroke-miterlimit="10" stroke-linejoin="miter" fill="none" stroke="#000000" d="M1441.7 4810H1041.7L1441.7 4410Z"/>
<path transform="matrix(.1,0,0,-.1,0,792)" d="M1441.7 4410 1041.7 4810 841.699 4610 1241.7 4210Z" fill="#ffffff"/>
<path transform="matrix(.1,0,0,-.1,0,792)" stroke-width="1" stroke-linecap="butt" stroke-miterlimit="10" stroke-linejoin="miter" fill="none" stroke="#000000" d="M1441.7 4410 1041.7 4810 841.699 4610 1241.7 4210Z"/>
<path transform="matrix(.1,0,0,-.1,0,792)" d="M1441.7 4010 1041.7 3610H1441.7" fill="#212947"/>
<path transform="matrix(.1,0,0,-.1,0,792)" stroke-width="1" stroke-linecap="butt" stroke-miterlimit="10" stroke-linejoin="miter" fill="none" stroke="#000000" d="M1441.7 4010 1041.7 3610H1441.7Z"/>
<path transform="matrix(.1,0,0,-.1,0,792)" d="M1441.7 4010 1241.7 4210 841.699 3810 1041.7 3610Z" fill="#ffffff"/>
<path transform="matrix(.1,0,0,-.1,0,792)" stroke-width="1" stroke-linecap="butt" stroke-miterlimit="10" stroke-linejoin="miter" fill="none" stroke="#000000" d="M1441.7 4010 1241.7 4210 841.699 3810 1041.7 3610Z"/>
<path transform="matrix(.1,0,0,-.1,0,792)" d="M1441.7 2810H1041.7L1441.7 2410" fill="#ffffff"/>
<path transform="matrix(.1,0,0,-.1,0,792)" stroke-width="1" stroke-linecap="butt" stroke-miterlimit="10" stroke-linejoin="miter" fill="none" stroke="#000000" d="M1441.7 2810H1041.7L1441.7 2410Z"/>
<path transform="matrix(.1,0,0,-.1,0,792)" d="M1441.7 2410 1041.7 2810 841.699 2610 1241.7 2210Z" fill="#212947"/>
<path transform="matrix(.1,0,0,-.1,0,792)" stroke-width="1" stroke-linecap="butt" stroke-miterlimit="10" stroke-linejoin="miter" fill="none" stroke="#000000" d="M1441.7 2410 1041.7 2810 841.699 2610 1241.7 2210Z"/>
<path transform="matrix(.1,0,0,-.1,0,792)" d="M1441.7 2010V1610H1041.7V1210H1841.7V2010" fill="#212947"/>
<path transform="matrix(.1,0,0,-.1,0,792)" stroke-width="1" stroke-linecap="butt" stroke-miterlimit="10" stroke-linejoin="miter" fill="none" stroke="#000000" d="M1441.7 2010V1610H1041.7V1210H1841.7V2010Z"/>
<path transform="matrix(.1,0,0,-.1,0,792)" d="M1441.7 2010 1041.7 1610H1441.7" fill="#ffffff"/>
<path transform="matrix(.1,0,0,-.1,0,792)" stroke-width="1" stroke-linecap="butt" stroke-miterlimit="10" stroke-linejoin="miter" fill="none" stroke="#000000" d="M1441.7 2010 1041.7 1610H1441.7Z"/>
<path transform="matrix(.1,0,0,-.1,0,792)" d="M1441.7 2010 1241.7 2210 841.699 1810 1041.7 1610Z" fill="#212947"/>
<path transform="matrix(.1,0,0,-.1,0,792)" stroke-width="1" stroke-linecap="butt" stroke-miterlimit="10" stroke-linejoin="miter" fill="none" stroke="#000000" d="M1441.7 2010 1241.7 2210 841.699 1810 1041.7 1610Z"/>
<path transform="matrix(.1,0,0,-.1,0,792)" d="M1841.7 2010V1210H2641.7V1610H2241.7V2010" fill="#ffffff"/>
<path transform="matrix(.1,0,0,-.1,0,792)" stroke-width="1" stroke-linecap="butt" stroke-miterlimit="10" stroke-linejoin="miter" fill="none" stroke="#000000" d="M1841.7 2010V1210H2641.7V1610H2241.7V2010Z"/>
<path transform="matrix(.1,0,0,-.1,0,792)" d="M2241.7 2010V1610H2641.7" fill="#212947"/>
<path transform="matrix(.1,0,0,-.1,0,792)" stroke-width="1" stroke-linecap="butt" stroke-miterlimit="10" stroke-linejoin="miter" fill="none" stroke="#000000" d="M2241.7 2010V1610H2641.7Z"/>
<path transform="matrix(.1,0,0,-.1,0,792)" d="M3441.7 2010V1610H3041.7V1210H3841.7V2010" fill="#ffffff"/>
<path transform="matrix(.1,0,0,-.1,0,792)" stroke-width="1" stroke-linecap="butt" stroke-miterlimit="10" stroke-linejoin="miter" fill="none" stroke="#000000" d="M3441.7 2010V1610H3041.7V1210H3841.7V2010Z"/>
<path transform="matrix(.1,0,0,-.1,0,792)" d="M3441.7 2010 3041.7 1610H3441.7" fill="#212947"/>
<path transform="matrix(.1,0,0,-.1,0,792)" stroke-width="1" stroke-linecap="butt" stroke-miterlimit="10" stroke-linejoin="miter" fill="none" stroke="#000000" d="M3441.7 2010 3041.7 1610H3441.7Z"/>
<path transform="matrix(.1,0,0,-.1,0,792)" d="M3841.7 2010V1210H4641.7V1610H4241.7V2010" fill="#212947"/>
<path transform="matrix(.1,0,0,-.1,0,792)" stroke-width="1" stroke-linecap="butt" stroke-miterlimit="10" stroke-linejoin="miter" fill="none" stroke="#000000" d="M3841.7 2010V1210H4641.7V1610H4241.7V2010Z"/>
<path transform="matrix(.1,0,0,-.1,0,792)" d="M4241.7 2010V1610H4641.7" fill="#ffffff"/>
<path transform="matrix(.1,0,0,-.1,0,792)" stroke-width="1" stroke-linecap="butt" stroke-miterlimit="10" stroke-linejoin="miter" fill="none" stroke="#000000" d="M4241.7 2010V1610H4641.7Z"/>
<path transform="matrix(.1,0,0,-.1,0,792)" d="M4241.7 6410V6810H4641.7V7210H3841.7V6410" fill="#212947"/>
<path transform="matrix(.1,0,0,-.1,0,792)" stroke-width="1" stroke-linecap="butt" stroke-miterlimit="10" stroke-linejoin="miter" fill="none" stroke="#000000" d="M4241.7 6410V6810H4641.7V7210H3841.7V6410Z"/>
<path transform="matrix(.1,0,0,-.1,0,792)" d="M4241.7 6410 4641.7 6810H4241.7" fill="#ffffff"/>
<path transform="matrix(.1,0,0,-.1,0,792)" stroke-width="1" stroke-linecap="butt" stroke-miterlimit="10" stroke-linejoin="miter" fill="none" stroke="#000000" d="M4241.7 6410 4641.7 6810H4241.7Z"/>
<path transform="matrix(.1,0,0,-.1,0,792)" d="M3841.7 6410V7210H3041.7V6810H3441.7V6410" fill="#ffffff"/>
<path transform="matrix(.1,0,0,-.1,0,792)" stroke-width="1" stroke-linecap="butt" stroke-miterlimit="10" stroke-linejoin="miter" fill="none" stroke="#000000" d="M3841.7 6410V7210H3041.7V6810H3441.7V6410Z"/>
<path transform="matrix(.1,0,0,-.1,0,792)" d="M3441.7 6410V6810H3041.7" fill="#212947"/>
<path transform="matrix(.1,0,0,-.1,0,792)" stroke-width="1" stroke-linecap="butt" stroke-miterlimit="10" stroke-linejoin="miter" fill="none" stroke="#000000" d="M3441.7 6410V6810H3041.7Z"/>
<path transform="matrix(.1,0,0,-.1,0,792)" d="M2241.7 6410V6810H2641.7V7210H1841.7V6410" fill="#ffffff"/>
<path transform="matrix(.1,0,0,-.1,0,792)" stroke-width="1" stroke-linecap="butt" stroke-miterlimit="10" stroke-linejoin="miter" fill="none" stroke="#000000" d="M2241.7 6410V6810H2641.7V7210H1841.7V6410Z"/>
<path transform="matrix(.1,0,0,-.1,0,792)" d="M2241.7 6410 2641.7 6810H2241.7" fill="#212947"/>
<path transform="matrix(.1,0,0,-.1,0,792)" stroke-width="1" stroke-linecap="butt" stroke-miterlimit="10" stroke-linejoin="miter" fill="none" stroke="#000000" d="M2241.7 6410 2641.7 6810H2241.7Z"/>
<path transform="matrix(.1,0,0,-.1,0,792)" d="M1841.7 6410V7210H1041.7V6810H1441.7V6410" fill="#212947"/>
<path transform="matrix(.1,0,0,-.1,0,792)" stroke-width="1" stroke-linecap="butt" stroke-miterlimit="10" stroke-linejoin="miter" fill="none" stroke="#000000" d="M1841.7 6410V7210H1041.7V6810H1441.7V6410Z"/>
<path transform="matrix(.1,0,0,-.1,0,792)" d="M1441.7 6410 1041.7 6810 841.699 6610 1241.7 6210Z" fill="#212947"/>
<path transform="matrix(.1,0,0,-.1,0,792)" stroke-width="1" stroke-linecap="butt" stroke-miterlimit="10" stroke-linejoin="miter" fill="none" stroke="#000000" d="M1441.7 6410 1041.7 6810 841.699 6610 1241.7 6210Z"/>
<path transform="matrix(.1,0,0,-.1,0,792)" d="M1441.7 6410V6810H1041.7" fill="#ffffff"/>
<path transform="matrix(.1,0,0,-.1,0,792)" stroke-width="1" stroke-linecap="butt" stroke-miterlimit="10" stroke-linejoin="miter" fill="none" stroke="#000000" d="M1441.7 6410V6810H1041.7Z"/>
<path transform="matrix(.1,0,0,-.1,0,792)" d="M4641.7 2810 4841.7 2610 5041.7 2810V3210H4641.7" fill="#ffffff"/>
<path transform="matrix(.1,0,0,-.1,0,792)" stroke-width="1" stroke-linecap="butt" stroke-miterlimit="10" stroke-linejoin="miter" fill="none" stroke="#000000" d="M4641.7 2810 4841.7 2610 5041.7 2810V3210H4641.7Z"/>
<path transform="matrix(.1,0,0,-.1,0,792)" d="M4641.7 3210H5041.7V3610L4841.7 3810 4641.7 3610" fill="#212947"/>
<path transform="matrix(.1,0,0,-.1,0,792)" stroke-width="1" stroke-linecap="butt" stroke-miterlimit="10" stroke-linejoin="miter" fill="none" stroke="#000000" d="M4641.7 3210H5041.7V3610L4841.7 3810 4641.7 3610Z"/>
<path transform="matrix(.1,0,0,-.1,0,792)" d="M4641.7 4810 4841.7 4610 5041.7 4810V5210H4641.7" fill="#212947"/>
<path transform="matrix(.1,0,0,-.1,0,792)" stroke-width="1" stroke-linecap="butt" stroke-miterlimit="10" stroke-linejoin="miter" fill="none" stroke="#000000" d="M4641.7 4810 4841.7 4610 5041.7 4810V5210H4641.7Z"/>
<path transform="matrix(.1,0,0,-.1,0,792)" d="M4641.7 5210H5041.7V5610L4841.7 5810 4641.7 5610" fill="#ffffff"/>
<path transform="matrix(.1,0,0,-.1,0,792)" stroke-width="1" stroke-linecap="butt" stroke-miterlimit="10" stroke-linejoin="miter" fill="none" stroke="#000000" d="M4641.7 5210H5041.7V5610L4841.7 5810 4641.7 5610Z"/>
<path transform="matrix(.1,0,0,-.1,0,792)" d="M1241.7 6210 841.699 6610 441.699 6210 841.699 5810Z" fill="#ffffff"/>
<path transform="matrix(.1,0,0,-.1,0,792)" stroke-width="1" stroke-linecap="butt" stroke-miterlimit="10" stroke-linejoin="miter" fill="none" stroke="#000000" d="M1241.7 6210 841.699 6610 441.699 6210 841.699 5810Z"/>
<path transform="matrix(.1,0,0,-.1,0,792)" d="M1241.7 4210 841.699 4610 441.699 4210 841.699 3810Z" fill="#212947"/>
<path transform="matrix(.1,0,0,-.1,0,792)" stroke-width="1" stroke-linecap="butt" stroke-miterlimit="10" stroke-linejoin="miter" fill="none" stroke="#000000" d="M1241.7 4210 841.699 4610 441.699 4210 841.699 3810Z"/>
<path transform="matrix(.1,0,0,-.1,0,792)" d="M1241.7 2210 841.699 2610 441.699 2210 841.699 1810Z" fill="#ffffff"/>
<path transform="matrix(.1,0,0,-.1,0,792)" stroke-width="1" stroke-linecap="butt" stroke-miterlimit="10" stroke-linejoin="miter" fill="none" stroke="#000000" d="M1241.7 2210 841.699 2610 441.699 2210 841.699 1810Z"/>
<path transform="matrix(.1,0,0,-.1,0,792)" d="M2841.7 1810 2641.7 1610V1210H3041.7V1610" fill="#212947"/>
<path transform="matrix(.1,0,0,-.1,0,792)" stroke-width="1" stroke-linecap="butt" stroke-miterlimit="10" stroke-linejoin="miter" fill="none" stroke="#000000" d="M2841.7 1810 2641.7 1610V1210H3041.7V1610Z"/>
<path transform="matrix(.1,0,0,-.1,0,792)" d="M2841.7 6610 3041.7 6810V7210H2641.7V6810" fill="#212947"/>
<path transform="matrix(.1,0,0,-.1,0,792)" stroke-width="1" stroke-linecap="butt" stroke-miterlimit="10" stroke-linejoin="miter" fill="none" stroke="#000000" d="M2841.7 6610 3041.7 6810V7210H2641.7V6810Z"/>
<path transform="matrix(.1,0,0,-.1,0,792)" d="M4841.7 1810 5041.7 1610 5441.7 2010 5241.7 2210Z" fill="#212947"/>
<path transform="matrix(.1,0,0,-.1,0,792)" stroke-width="1" stroke-linecap="butt" stroke-miterlimit="10" stroke-linejoin="miter" fill="none" stroke="#000000" d="M4841.7 1810 5041.7 1610 5441.7 2010 5241.7 2210Z"/>
<path transform="matrix(.1,0,0,-.1,0,792)" d="M4841.7 1810 4641.7 1610V1210H5041.7V1610" fill="#ffffff"/>
<path transform="matrix(.1,0,0,-.1,0,792)" stroke-width="1" stroke-linecap="butt" stroke-miterlimit="10" stroke-linejoin="miter" fill="none" stroke="#000000" d="M4841.7 1810 4641.7 1610V1210H5041.7V1610Z"/>
<path transform="matrix(.1,0,0,-.1,0,792)" d="M4841.7 2610 5241.7 2210 5441.7 2410 5041.7 2810Z" fill="#212947"/>
<path transform="matrix(.1,0,0,-.1,0,792)" stroke-width="1" stroke-linecap="butt" stroke-miterlimit="10" stroke-linejoin="miter" fill="none" stroke="#000000" d="M4841.7 2610 5241.7 2210 5441.7 2410 5041.7 2810Z"/>
<path transform="matrix(.1,0,0,-.1,0,792)" d="M4841.7 3810 5041.7 3610 5441.7 4010 5241.7 4210Z" fill="#ffffff"/>
<path transform="matrix(.1,0,0,-.1,0,792)" stroke-width="1" stroke-linecap="butt" stroke-miterlimit="10" stroke-linejoin="miter" fill="none" stroke="#000000" d="M4841.7 3810 5041.7 3610 5441.7 4010 5241.7 4210Z"/>
<path transform="matrix(.1,0,0,-.1,0,792)" d="M4841.7 4610 5241.7 4210 5441.7 4410 5041.7 4810Z" fill="#ffffff"/>
<path transform="matrix(.1,0,0,-.1,0,792)" stroke-width="1" stroke-linecap="butt" stroke-miterlimit="10" stroke-linejoin="miter" fill="none" stroke="#000000" d="M4841.7 4610 5241.7 4210 5441.7 4410 5041.7 4810Z"/>
<path transform="matrix(.1,0,0,-.1,0,792)" d="M4841.7 5810 5041.7 5610 5441.7 6010 5241.7 6210Z" fill="#212947"/>
<path transform="matrix(.1,0,0,-.1,0,792)" stroke-width="1" stroke-linecap="butt" stroke-miterlimit="10" stroke-linejoin="miter" fill="none" stroke="#000000" d="M4841.7 5810 5041.7 5610 5441.7 6010 5241.7 6210Z"/>
<path transform="matrix(.1,0,0,-.1,0,792)" d="M4841.7 6610 5041.7 6810V7210H4641.7V6810" fill="#ffffff"/>
<path transform="matrix(.1,0,0,-.1,0,792)" stroke-width="1" stroke-linecap="butt" stroke-miterlimit="10" stroke-linejoin="miter" fill="none" stroke="#000000" d="M4841.7 6610 5041.7 6810V7210H4641.7V6810Z"/>
<path transform="matrix(.1,0,0,-.1,0,792)" d="M4841.7 6610 5241.7 6210 5441.7 6410 5041.7 6810Z" fill="#212947"/>
<path transform="matrix(.1,0,0,-.1,0,792)" stroke-width="1" stroke-linecap="butt" stroke-miterlimit="10" stroke-linejoin="miter" fill="none" stroke="#000000" d="M4841.7 6610 5241.7 6210 5441.7 6410 5041.7 6810Z"/>
<path transform="matrix(.1,0,0,-.1,0,792)" d="M1041.7 6810V7210H641.699V6810L841.699 6610" fill="#ffffff"/>
<path transform="matrix(.1,0,0,-.1,0,792)" stroke-width="1" stroke-linecap="butt" stroke-miterlimit="10" stroke-linejoin="miter" fill="none" stroke="#000000" d="M1041.7 6810V7210H641.699V6810L841.699 6610Z"/>
<path transform="matrix(.1,0,0,-.1,0,792)" d="M1041.7 5610 841.699 5810 641.699 5610V5210H1041.7" fill="#ffffff"/>
<path transform="matrix(.1,0,0,-.1,0,792)" stroke-width="1" stroke-linecap="butt" stroke-miterlimit="10" stroke-linejoin="miter" fill="none" stroke="#000000" d="M1041.7 5610 841.699 5810 641.699 5610V5210H1041.7Z"/>
<path transform="matrix(.1,0,0,-.1,0,792)" d="M1041.7 5210H641.699V4810L841.699 4610 1041.7 4810" fill="#212947"/>
<path transform="matrix(.1,0,0,-.1,0,792)" stroke-width="1" stroke-linecap="butt" stroke-miterlimit="10" stroke-linejoin="miter" fill="none" stroke="#000000" d="M1041.7 5210H641.699V4810L841.699 4610 1041.7 4810Z"/>
<path transform="matrix(.1,0,0,-.1,0,792)" d="M1041.7 3610 841.699 3810 641.699 3610V3210H1041.7" fill="#212947"/>
<path transform="matrix(.1,0,0,-.1,0,792)" stroke-width="1" stroke-linecap="butt" stroke-miterlimit="10" stroke-linejoin="miter" fill="none" stroke="#000000" d="M1041.7 3610 841.699 3810 641.699 3610V3210H1041.7Z"/>
<path transform="matrix(.1,0,0,-.1,0,792)" d="M1041.7 3210H641.699V2810L841.699 2610 1041.7 2810" fill="#ffffff"/>
<path transform="matrix(.1,0,0,-.1,0,792)" stroke-width="1" stroke-linecap="butt" stroke-miterlimit="10" stroke-linejoin="miter" fill="none" stroke="#000000" d="M1041.7 3210H641.699V2810L841.699 2610 1041.7 2810Z"/>
<path transform="matrix(.1,0,0,-.1,0,792)" d="M1041.7 1610 841.699 1810 641.699 1610V1210H1041.7" fill="#ffffff"/>
<path transform="matrix(.1,0,0,-.1,0,792)" stroke-width="1" stroke-linecap="butt" stroke-miterlimit="10" stroke-linejoin="miter" fill="none" stroke="#000000" d="M1041.7 1610 841.699 1810 641.699 1610V1210H1041.7Z"/>
<path transform="matrix(.1,0,0,-.1,0,792)" d="M5041.7 1610H5441.7V2010" fill="#ffffff"/>
<path transform="matrix(.1,0,0,-.1,0,792)" stroke-width="1" stroke-linecap="butt" stroke-miterlimit="10" stroke-linejoin="miter" fill="none" stroke="#000000" d="M5041.7 1610H5441.7V2010Z"/>
<path transform="matrix(.1,0,0,-.1,0,792)" d="M5041.7 1610V1210H5841.7V2010H5441.7V1610" fill="#212947"/>
<path transform="matrix(.1,0,0,-.1,0,792)" stroke-width="1" stroke-linecap="butt" stroke-miterlimit="10" stroke-linejoin="miter" fill="none" stroke="#000000" d="M5041.7 1610V1210H5841.7V2010H5441.7V1610Z"/>
<path transform="matrix(.1,0,0,-.1,0,792)" d="M5041.7 2810H5441.7V2410H5841.7V3210H5041.7" fill="#212947"/>
<path transform="matrix(.1,0,0,-.1,0,792)" stroke-width="1" stroke-linecap="butt" stroke-miterlimit="10" stroke-linejoin="miter" fill="none" stroke="#000000" d="M5041.7 2810H5441.7V2410H5841.7V3210H5041.7Z"/>
<path transform="matrix(.1,0,0,-.1,0,792)" d="M5041.7 2810 5441.7 2410V2810" fill="#ffffff"/>
<path transform="matrix(.1,0,0,-.1,0,792)" stroke-width="1" stroke-linecap="butt" stroke-miterlimit="10" stroke-linejoin="miter" fill="none" stroke="#000000" d="M5041.7 2810 5441.7 2410V2810Z"/>
<path transform="matrix(.1,0,0,-.1,0,792)" d="M5041.7 3210H5841.7V4010H5441.7V3610H5041.7" fill="#ffffff"/>
<path transform="matrix(.1,0,0,-.1,0,792)" stroke-width="1" stroke-linecap="butt" stroke-miterlimit="10" stroke-linejoin="miter" fill="none" stroke="#000000" d="M5041.7 3210H5841.7V4010H5441.7V3610H5041.7Z"/>
<path transform="matrix(.1,0,0,-.1,0,792)" d="M5041.7 3610H5441.7V4010" fill="#212947"/>
<path transform="matrix(.1,0,0,-.1,0,792)" stroke-width="1" stroke-linecap="butt" stroke-miterlimit="10" stroke-linejoin="miter" fill="none" stroke="#000000" d="M5041.7 3610H5441.7V4010Z"/>
<path transform="matrix(.1,0,0,-.1,0,792)" d="M5041.7 4810H5441.7V4410H5841.7V5210H5041.7" fill="#ffffff"/>
<path transform="matrix(.1,0,0,-.1,0,792)" stroke-width="1" stroke-linecap="butt" stroke-miterlimit="10" stroke-linejoin="miter" fill="none" stroke="#000000" d="M5041.7 4810H5441.7V4410H5841.7V5210H5041.7Z"/>
<path transform="matrix(.1,0,0,-.1,0,792)" d="M5041.7 4810 5441.7 4410V4810" fill="#212947"/>
<path transform="matrix(.1,0,0,-.1,0,792)" stroke-width="1" stroke-linecap="butt" stroke-miterlimit="10" stroke-linejoin="miter" fill="none" stroke="#000000" d="M5041.7 4810 5441.7 4410V4810Z"/>
<path transform="matrix(.1,0,0,-.1,0,792)" d="M5041.7 5210H5841.7V6010H5441.7V5610H5041.7" fill="#212947"/>
<path transform="matrix(.1,0,0,-.1,0,792)" stroke-width="1" stroke-linecap="butt" stroke-miterlimit="10" stroke-linejoin="miter" fill="none" stroke="#000000" d="M5041.7 5210H5841.7V6010H5441.7V5610H5041.7Z"/>
<path transform="matrix(.1,0,0,-.1,0,792)" d="M5041.7 5610H5441.7V6010" fill="#ffffff"/>
<path transform="matrix(.1,0,0,-.1,0,792)" stroke-width="1" stroke-linecap="butt" stroke-miterlimit="10" stroke-linejoin="miter" fill="none" stroke="#000000" d="M5041.7 5610H5441.7V6010Z"/>
<path transform="matrix(.1,0,0,-.1,0,792)" d="M5041.7 6810H5441.7V6410H5841.7V7210H5041.7" fill="#212947"/>
<path transform="matrix(.1,0,0,-.1,0,792)" stroke-width="1" stroke-linecap="butt" stroke-miterlimit="10" stroke-linejoin="miter" fill="none" stroke="#000000" d="M5041.7 6810H5441.7V6410H5841.7V7210H5041.7Z"/>
<path transform="matrix(.1,0,0,-.1,0,792)" d="M5041.7 6810 5441.7 6410V6810" fill="#ffffff"/>
<path transform="matrix(.1,0,0,-.1,0,792)" stroke-width="1" stroke-linecap="butt" stroke-miterlimit="10" stroke-linejoin="miter" fill="none" stroke="#000000" d="M5041.7 6810 5441.7 6410V6810Z"/>
<path transform="matrix(.1,0,0,-.1,0,792)" d="M841.699 6610 641.699 6810 241.699 6410 441.699 6210Z" fill="#212947"/>
<path transform="matrix(.1,0,0,-.1,0,792)" stroke-width="1" stroke-linecap="butt" stroke-miterlimit="10" stroke-linejoin="miter" fill="none" stroke="#000000" d="M841.699 6610 641.699 6810 241.699 6410 441.699 6210Z"/>
<path transform="matrix(.1,0,0,-.1,0,792)" d="M841.699 5810 441.699 6210 241.699 6010 641.699 5610Z" fill="#212947"/>
<path transform="matrix(.1,0,0,-.1,0,792)" stroke-width="1" stroke-linecap="butt" stroke-miterlimit="10" stroke-linejoin="miter" fill="none" stroke="#000000" d="M841.699 5810 441.699 6210 241.699 6010 641.699 5610Z"/>
<path transform="matrix(.1,0,0,-.1,0,792)" d="M841.699 4610 641.699 4810 241.699 4410 441.699 4210Z" fill="#ffffff"/>
<path transform="matrix(.1,0,0,-.1,0,792)" stroke-width="1" stroke-linecap="butt" stroke-miterlimit="10" stroke-linejoin="miter" fill="none" stroke="#000000" d="M841.699 4610 641.699 4810 241.699 4410 441.699 4210Z"/>
<path transform="matrix(.1,0,0,-.1,0,792)" d="M841.699 3810 441.699 4210 241.699 4010 641.699 3610Z" fill="#ffffff"/>
<path transform="matrix(.1,0,0,-.1,0,792)" stroke-width="1" stroke-linecap="butt" stroke-miterlimit="10" stroke-linejoin="miter" fill="none" stroke="#000000" d="M841.699 3810 441.699 4210 241.699 4010 641.699 3610Z"/>
<path transform="matrix(.1,0,0,-.1,0,792)" d="M841.699 2610 641.699 2810 241.699 2410 441.699 2210Z" fill="#212947"/>
<path transform="matrix(.1,0,0,-.1,0,792)" stroke-width="1" stroke-linecap="butt" stroke-miterlimit="10" stroke-linejoin="miter" fill="none" stroke="#000000" d="M841.699 2610 641.699 2810 241.699 2410 441.699 2210Z"/>
<path transform="matrix(.1,0,0,-.1,0,792)" d="M841.699 1810 441.699 2210 241.699 2010 641.699 1610Z" fill="#212947"/>
<path transform="matrix(.1,0,0,-.1,0,792)" stroke-width="1" stroke-linecap="butt" stroke-miterlimit="10" stroke-linejoin="miter" fill="none" stroke="#000000" d="M841.699 1810 441.699 2210 241.699 2010 641.699 1610Z"/>
<path transform="matrix(.1,0,0,-.1,0,792)" d="M1041.7 1210V810H1441.7V410H1841.7V1210" fill="#ffffff"/>
<path transform="matrix(.1,0,0,-.1,0,792)" stroke-width="1" stroke-linecap="butt" stroke-miterlimit="10" stroke-linejoin="miter" fill="none" stroke="#000000" d="M1041.7 1210V810H1441.7V410H1841.7V1210Z"/>
<path transform="matrix(.1,0,0,-.1,0,792)" d="M1041.7 1210H641.699V810L841.699 610 1041.7 810" fill="#212947"/>
<path transform="matrix(.1,0,0,-.1,0,792)" stroke-width="1" stroke-linecap="butt" stroke-miterlimit="10" stroke-linejoin="miter" fill="none" stroke="#000000" d="M1041.7 1210H641.699V810L841.699 610 1041.7 810Z"/>
<path transform="matrix(.1,0,0,-.1,0,792)" d="M1841.7 1210V410H2241.7V810H2641.7V1210" fill="#212947"/>
<path transform="matrix(.1,0,0,-.1,0,792)" stroke-width="1" stroke-linecap="butt" stroke-miterlimit="10" stroke-linejoin="miter" fill="none" stroke="#000000" d="M1841.7 1210V410H2241.7V810H2641.7V1210Z"/>
<path transform="matrix(.1,0,0,-.1,0,792)" d="M2641.7 1210V810L2841.7 610 3041.7 810V1210" fill="#ffffff"/>
<path transform="matrix(.1,0,0,-.1,0,792)" stroke-width="1" stroke-linecap="butt" stroke-miterlimit="10" stroke-linejoin="miter" fill="none" stroke="#000000" d="M2641.7 1210V810L2841.7 610 3041.7 810V1210Z"/>
<path transform="matrix(.1,0,0,-.1,0,792)" d="M3041.7 1210V810H3441.7V410H3841.7V1210" fill="#212947"/>
<path transform="matrix(.1,0,0,-.1,0,792)" stroke-width="1" stroke-linecap="butt" stroke-miterlimit="10" stroke-linejoin="miter" fill="none" stroke="#000000" d="M3041.7 1210V810H3441.7V410H3841.7V1210Z"/>
<path transform="matrix(.1,0,0,-.1,0,792)" d="M3841.7 1210V410H4241.7V810H4641.7V1210" fill="#ffffff"/>
<path transform="matrix(.1,0,0,-.1,0,792)" stroke-width="1" stroke-linecap="butt" stroke-miterlimit="10" stroke-linejoin="miter" fill="none" stroke="#000000" d="M3841.7 1210V410H4241.7V810H4641.7V1210Z"/>
<path transform="matrix(.1,0,0,-.1,0,792)" d="M4641.7 1210V810L4841.7 610 5041.7 810V1210" fill="#212947"/>
<path transform="matrix(.1,0,0,-.1,0,792)" stroke-width="1" stroke-linecap="butt" stroke-miterlimit="10" stroke-linejoin="miter" fill="none" stroke="#000000" d="M4641.7 1210V810L4841.7 610 5041.7 810V1210Z"/>
<path transform="matrix(.1,0,0,-.1,0,792)" d="M5041.7 1210V810H5441.7V410H5841.7V1210" fill="#ffffff"/>
<path transform="matrix(.1,0,0,-.1,0,792)" stroke-width="1" stroke-linecap="butt" stroke-miterlimit="10" stroke-linejoin="miter" fill="none" stroke="#000000" d="M5041.7 1210V810H5441.7V410H5841.7V1210Z"/>
<path transform="matrix(.1,0,0,-.1,0,792)" d="M5041.7 7210V7610L4841.7 7810 4641.7 7610V7210" fill="#212947"/>
<path transform="matrix(.1,0,0,-.1,0,792)" stroke-width="1" stroke-linecap="butt" stroke-miterlimit="10" stroke-linejoin="miter" fill="none" stroke="#000000" d="M5041.7 7210V7610L4841.7 7810 4641.7 7610V7210Z"/>
<path transform="matrix(.1,0,0,-.1,0,792)" d="M5041.7 7210H5841.7V8010H5441.7V7610H5041.7" fill="#ffffff"/>
<path transform="matrix(.1,0,0,-.1,0,792)" stroke-width="1" stroke-linecap="butt" stroke-miterlimit="10" stroke-linejoin="miter" fill="none" stroke="#000000" d="M5041.7 7210H5841.7V8010H5441.7V7610H5041.7Z"/>
<path transform="matrix(.1,0,0,-.1,0,792)" d="M4641.7 7210V7610H4241.7V8010H3841.7V7210" fill="#ffffff"/>
<path transform="matrix(.1,0,0,-.1,0,792)" stroke-width="1" stroke-linecap="butt" stroke-miterlimit="10" stroke-linejoin="miter" fill="none" stroke="#000000" d="M4641.7 7210V7610H4241.7V8010H3841.7V7210Z"/>
<path transform="matrix(.1,0,0,-.1,0,792)" d="M3841.7 7210V8010H3441.7V7610H3041.7V7210" fill="#212947"/>
<path transform="matrix(.1,0,0,-.1,0,792)" stroke-width="1" stroke-linecap="butt" stroke-miterlimit="10" stroke-linejoin="miter" fill="none" stroke="#000000" d="M3841.7 7210V8010H3441.7V7610H3041.7V7210Z"/>
<path transform="matrix(.1,0,0,-.1,0,792)" d="M3041.7 7210V7610L2841.7 7810 2641.7 7610V7210" fill="#ffffff"/>
<path transform="matrix(.1,0,0,-.1,0,792)" stroke-width="1" stroke-linecap="butt" stroke-miterlimit="10" stroke-linejoin="miter" fill="none" stroke="#000000" d="M3041.7 7210V7610L2841.7 7810 2641.7 7610V7210Z"/>
<path transform="matrix(.1,0,0,-.1,0,792)" d="M2641.7 7210V7610H2241.7V8010H1841.7V7210" fill="#212947"/>
<path transform="matrix(.1,0,0,-.1,0,792)" stroke-width="1" stroke-linecap="butt" stroke-miterlimit="10" stroke-linejoin="miter" fill="none" stroke="#000000" d="M2641.7 7210V7610H2241.7V8010H1841.7V7210Z"/>
<path transform="matrix(.1,0,0,-.1,0,792)" d="M1841.7 7210V8010H1441.7V7610H1041.7V7210" fill="#ffffff"/>
<path transform="matrix(.1,0,0,-.1,0,792)" stroke-width="1" stroke-linecap="butt" stroke-miterlimit="10" stroke-linejoin="miter" fill="none" stroke="#000000" d="M1841.7 7210V8010H1441.7V7610H1041.7V7210Z"/>
<path transform="matrix(.1,0,0,-.1,0,792)" d="M1041.7 7210V7610L841.699 7810 641.699 7610V7210" fill="#212947"/>
<path transform="matrix(.1,0,0,-.1,0,792)" stroke-width="1" stroke-linecap="butt" stroke-miterlimit="10" stroke-linejoin="miter" fill="none" stroke="#000000" d="M1041.7 7210V7610L841.699 7810 641.699 7610V7210Z"/>
<path transform="matrix(.1,0,0,-.1,0,792)" d="M5241.7 2210 5441.7 2010H5841.7V2410H5441.7" fill="#ffffff"/>
<path transform="matrix(.1,0,0,-.1,0,792)" stroke-width="1" stroke-linecap="butt" stroke-miterlimit="10" stroke-linejoin="miter" fill="none" stroke="#000000" d="M5241.7 2210 5441.7 2010H5841.7V2410H5441.7Z"/>
<path transform="matrix(.1,0,0,-.1,0,792)" d="M5241.7 4210 5441.7 4010H5841.7V4410H5441.7" fill="#212947"/>
<path transform="matrix(.1,0,0,-.1,0,792)" stroke-width="1" stroke-linecap="butt" stroke-miterlimit="10" stroke-linejoin="miter" fill="none" stroke="#000000" d="M5241.7 4210 5441.7 4010H5841.7V4410H5441.7Z"/>
<path transform="matrix(.1,0,0,-.1,0,792)" d="M5241.7 6210 5441.7 6010H5841.7V6410H5441.7" fill="#ffffff"/>
<path transform="matrix(.1,0,0,-.1,0,792)" stroke-width="1" stroke-linecap="butt" stroke-miterlimit="10" stroke-linejoin="miter" fill="none" stroke="#000000" d="M5241.7 6210 5441.7 6010H5841.7V6410H5441.7Z"/>
<path transform="matrix(.1,0,0,-.1,0,792)" d="M641.699 7210H-158.301V6410H241.699V6810H641.699" fill="#212947"/>
<path transform="matrix(.1,0,0,-.1,0,792)" stroke-width="1" stroke-linecap="butt" stroke-miterlimit="10" stroke-linejoin="miter" fill="none" stroke="#000000" d="M641.699 7210H-158.301V6410H241.699V6810H641.699Z"/>
<path transform="matrix(.1,0,0,-.1,0,792)" d="M641.699 7210V7610H241.699V8010H-158.301V7210" fill="#ffffff"/>
<path transform="matrix(.1,0,0,-.1,0,792)" stroke-width="1" stroke-linecap="butt" stroke-miterlimit="10" stroke-linejoin="miter" fill="none" stroke="#000000" d="M641.699 7210V7610H241.699V8010H-158.301V7210Z"/>
<path transform="matrix(.1,0,0,-.1,0,792)" d="M641.699 6810H241.699V6410" fill="#ffffff"/>
<path transform="matrix(.1,0,0,-.1,0,792)" stroke-width="1" stroke-linecap="butt" stroke-miterlimit="10" stroke-linejoin="miter" fill="none" stroke="#000000" d="M641.699 6810H241.699V6410Z"/>
<path transform="matrix(.1,0,0,-.1,0,792)" d="M641.699 5610H241.699V6010H-158.301V5210H641.699" fill="#212947"/>
<path transform="matrix(.1,0,0,-.1,0,792)" stroke-width="1" stroke-linecap="butt" stroke-miterlimit="10" stroke-linejoin="miter" fill="none" stroke="#000000" d="M641.699 5610H241.699V6010H-158.301V5210H641.699Z"/>
<path transform="matrix(.1,0,0,-.1,0,792)" d="M641.699 5610 241.699 6010V5610" fill="#ffffff"/>
<path transform="matrix(.1,0,0,-.1,0,792)" stroke-width="1" stroke-linecap="butt" stroke-miterlimit="10" stroke-linejoin="miter" fill="none" stroke="#000000" d="M641.699 5610 241.699 6010V5610Z"/>
<path transform="matrix(.1,0,0,-.1,0,792)" d="M641.699 5210H-158.301V4410H241.699V4810H641.699" fill="#ffffff"/>
<path transform="matrix(.1,0,0,-.1,0,792)" stroke-width="1" stroke-linecap="butt" stroke-miterlimit="10" stroke-linejoin="miter" fill="none" stroke="#000000" d="M641.699 5210H-158.301V4410H241.699V4810H641.699Z"/>
<path transform="matrix(.1,0,0,-.1,0,792)" d="M641.699 4810H241.699V4410" fill="#212947"/>
<path transform="matrix(.1,0,0,-.1,0,792)" stroke-width="1" stroke-linecap="butt" stroke-miterlimit="10" stroke-linejoin="miter" fill="none" stroke="#000000" d="M641.699 4810H241.699V4410Z"/>
<path transform="matrix(.1,0,0,-.1,0,792)" d="M641.699 3610H241.699V4010H-158.301V3210H641.699" fill="#ffffff"/>
<path transform="matrix(.1,0,0,-.1,0,792)" stroke-width="1" stroke-linecap="butt" stroke-miterlimit="10" stroke-linejoin="miter" fill="none" stroke="#000000" d="M641.699 3610H241.699V4010H-158.301V3210H641.699Z"/>
<path transform="matrix(.1,0,0,-.1,0,792)" d="M641.699 3610 241.699 4010V3610" fill="#212947"/>
<path transform="matrix(.1,0,0,-.1,0,792)" stroke-width="1" stroke-linecap="butt" stroke-miterlimit="10" stroke-linejoin="miter" fill="none" stroke="#000000" d="M641.699 3610 241.699 4010V3610Z"/>
<path transform="matrix(.1,0,0,-.1,0,792)" d="M641.699 3210H-158.301V2410H241.699V2810H641.699" fill="#212947"/>
<path transform="matrix(.1,0,0,-.1,0,792)" stroke-width="1" stroke-linecap="butt" stroke-miterlimit="10" stroke-linejoin="miter" fill="none" stroke="#000000" d="M641.699 3210H-158.301V2410H241.699V2810H641.699Z"/>
<path transform="matrix(.1,0,0,-.1,0,792)" d="M641.699 2810H241.699V2410" fill="#ffffff"/>
<path transform="matrix(.1,0,0,-.1,0,792)" stroke-width="1" stroke-linecap="butt" stroke-miterlimit="10" stroke-linejoin="miter" fill="none" stroke="#000000" d="M641.699 2810H241.699V2410Z"/>
<path transform="matrix(.1,0,0,-.1,0,792)" d="M641.699 1610H241.699V2010H-158.301V1210H641.699" fill="#212947"/>
<path transform="matrix(.1,0,0,-.1,0,792)" stroke-width="1" stroke-linecap="butt" stroke-miterlimit="10" stroke-linejoin="miter" fill="none" stroke="#000000" d="M641.699 1610H241.699V2010H-158.301V1210H641.699Z"/>
<path transform="matrix(.1,0,0,-.1,0,792)" d="M641.699 1610 241.699 2010V1610" fill="#ffffff"/>
<path transform="matrix(.1,0,0,-.1,0,792)" stroke-width="1" stroke-linecap="butt" stroke-miterlimit="10" stroke-linejoin="miter" fill="none" stroke="#000000" d="M641.699 1610 241.699 2010V1610Z"/>
<path transform="matrix(.1,0,0,-.1,0,792)" d="M641.699 1210H-158.301V410H241.699V810H641.699" fill="#ffffff"/>
<path transform="matrix(.1,0,0,-.1,0,792)" stroke-width="1" stroke-linecap="butt" stroke-miterlimit="10" stroke-linejoin="miter" fill="none" stroke="#000000" d="M641.699 1210H-158.301V410H241.699V810H641.699Z"/>
<path transform="matrix(.1,0,0,-.1,0,792)" d="M641.699 810 241.699 410 441.699 210 841.699 610Z" fill="#ffffff"/>
<path transform="matrix(.1,0,0,-.1,0,792)" stroke-width="1" stroke-linecap="butt" stroke-miterlimit="10" stroke-linejoin="miter" fill="none" stroke="#000000" d="M641.699 810 241.699 410 441.699 210 841.699 610Z"/>
<path transform="matrix(.1,0,0,-.1,0,792)" d="M641.699 810H241.699V410" fill="#212947"/>
<path transform="matrix(.1,0,0,-.1,0,792)" stroke-width="1" stroke-linecap="butt" stroke-miterlimit="10" stroke-linejoin="miter" fill="none" stroke="#000000" d="M641.699 810H241.699V410Z"/>
<path transform="matrix(.1,0,0,-.1,0,792)" d="M1041.7 810 1441.7 410V810" fill="#212947"/>
<path transform="matrix(.1,0,0,-.1,0,792)" stroke-width="1" stroke-linecap="butt" stroke-miterlimit="10" stroke-linejoin="miter" fill="none" stroke="#000000" d="M1041.7 810 1441.7 410V810Z"/>
<path transform="matrix(.1,0,0,-.1,0,792)" d="M1041.7 810 841.699 610 1241.7 210 1441.7 410Z" fill="#ffffff"/>
<path transform="matrix(.1,0,0,-.1,0,792)" stroke-width="1" stroke-linecap="butt" stroke-miterlimit="10" stroke-linejoin="miter" fill="none" stroke="#000000" d="M1041.7 810 841.699 610 1241.7 210 1441.7 410Z"/>
<path transform="matrix(.1,0,0,-.1,0,792)" d="M2241.7 810V410L2641.7 810" fill="#ffffff"/>
<path transform="matrix(.1,0,0,-.1,0,792)" stroke-width="1" stroke-linecap="butt" stroke-miterlimit="10" stroke-linejoin="miter" fill="none" stroke="#000000" d="M2241.7 810V410L2641.7 810Z"/>
<path transform="matrix(.1,0,0,-.1,0,792)" d="M2641.7 810 2241.7 410 2441.7 210 2841.7 610Z" fill="#212947"/>
<path transform="matrix(.1,0,0,-.1,0,792)" stroke-width="1" stroke-linecap="butt" stroke-miterlimit="10" stroke-linejoin="miter" fill="none" stroke="#000000" d="M2641.7 810 2241.7 410 2441.7 210 2841.7 610Z"/>
<path transform="matrix(.1,0,0,-.1,0,792)" d="M3041.7 810 3441.7 410V810" fill="#ffffff"/>
<path transform="matrix(.1,0,0,-.1,0,792)" stroke-width="1" stroke-linecap="butt" stroke-miterlimit="10" stroke-linejoin="miter" fill="none" stroke="#000000" d="M3041.7 810 3441.7 410V810Z"/>
<path transform="matrix(.1,0,0,-.1,0,792)" d="M3041.7 810 2841.7 610 3241.7 210 3441.7 410Z" fill="#212947"/>
<path transform="matrix(.1,0,0,-.1,0,792)" stroke-width="1" stroke-linecap="butt" stroke-miterlimit="10" stroke-linejoin="miter" fill="none" stroke="#000000" d="M3041.7 810 2841.7 610 3241.7 210 3441.7 410Z"/>
<path transform="matrix(.1,0,0,-.1,0,792)" d="M4241.7 810V410L4641.7 810" fill="#212947"/>
<path transform="matrix(.1,0,0,-.1,0,792)" stroke-width="1" stroke-linecap="butt" stroke-miterlimit="10" stroke-linejoin="miter" fill="none" stroke="#000000" d="M4241.7 810V410L4641.7 810Z"/>
<path transform="matrix(.1,0,0,-.1,0,792)" d="M4641.7 810 4241.7 410 4441.7 210 4841.7 610Z" fill="#ffffff"/>
<path transform="matrix(.1,0,0,-.1,0,792)" stroke-width="1" stroke-linecap="butt" stroke-miterlimit="10" stroke-linejoin="miter" fill="none" stroke="#000000" d="M4641.7 810 4241.7 410 4441.7 210 4841.7 610Z"/>
<path transform="matrix(.1,0,0,-.1,0,792)" d="M5041.7 810 5441.7 410V810" fill="#212947"/>
<path transform="matrix(.1,0,0,-.1,0,792)" stroke-width="1" stroke-linecap="butt" stroke-miterlimit="10" stroke-linejoin="miter" fill="none" stroke="#000000" d="M5041.7 810 5441.7 410V810Z"/>
<path transform="matrix(.1,0,0,-.1,0,792)" d="M5041.7 810 4841.7 610 5241.7 210 5441.7 410Z" fill="#ffffff"/>
<path transform="matrix(.1,0,0,-.1,0,792)" stroke-width="1" stroke-linecap="butt" stroke-miterlimit="10" stroke-linejoin="miter" fill="none" stroke="#000000" d="M5041.7 810 4841.7 610 5241.7 210 5441.7 410Z"/>
<path transform="matrix(.1,0,0,-.1,0,792)" d="M5441.7 7610V8010L5041.7 7610" fill="#212947"/>
<path transform="matrix(.1,0,0,-.1,0,792)" stroke-width="1" stroke-linecap="butt" stroke-miterlimit="10" stroke-linejoin="miter" fill="none" stroke="#000000" d="M5441.7 7610V8010L5041.7 7610Z"/>
<path transform="matrix(.1,0,0,-.1,0,792)" d="M5041.7 7610 5441.7 8010 5241.7 8210 4841.7 7810Z" fill="#ffffff"/>
<path transform="matrix(.1,0,0,-.1,0,792)" stroke-width="1" stroke-linecap="butt" stroke-miterlimit="10" stroke-linejoin="miter" fill="none" stroke="#000000" d="M5041.7 7610 5441.7 8010 5241.7 8210 4841.7 7810Z"/>
<path transform="matrix(.1,0,0,-.1,0,792)" d="M4641.7 7610 4241.7 8010V7610" fill="#212947"/>
<path transform="matrix(.1,0,0,-.1,0,792)" stroke-width="1" stroke-linecap="butt" stroke-miterlimit="10" stroke-linejoin="miter" fill="none" stroke="#000000" d="M4641.7 7610 4241.7 8010V7610Z"/>
<path transform="matrix(.1,0,0,-.1,0,792)" d="M4641.7 7610 4841.7 7810 4441.7 8210 4241.7 8010Z" fill="#ffffff"/>
<path transform="matrix(.1,0,0,-.1,0,792)" stroke-width="1" stroke-linecap="butt" stroke-miterlimit="10" stroke-linejoin="miter" fill="none" stroke="#000000" d="M4641.7 7610 4841.7 7810 4441.7 8210 4241.7 8010Z"/>
<path transform="matrix(.1,0,0,-.1,0,792)" d="M3441.7 7610V8010L3041.7 7610" fill="#ffffff"/>
<path transform="matrix(.1,0,0,-.1,0,792)" stroke-width="1" stroke-linecap="butt" stroke-miterlimit="10" stroke-linejoin="miter" fill="none" stroke="#000000" d="M3441.7 7610V8010L3041.7 7610Z"/>
<path transform="matrix(.1,0,0,-.1,0,792)" d="M3041.7 7610 3441.7 8010 3241.7 8210 2841.7 7810Z" fill="#212947"/>
<path transform="matrix(.1,0,0,-.1,0,792)" stroke-width="1" stroke-linecap="butt" stroke-miterlimit="10" stroke-linejoin="miter" fill="none" stroke="#000000" d="M3041.7 7610 3441.7 8010 3241.7 8210 2841.7 7810Z"/>
<path transform="matrix(.1,0,0,-.1,0,792)" d="M2641.7 7610 2241.7 8010V7610" fill="#ffffff"/>
<path transform="matrix(.1,0,0,-.1,0,792)" stroke-width="1" stroke-linecap="butt" stroke-miterlimit="10" stroke-linejoin="miter" fill="none" stroke="#000000" d="M2641.7 7610 2241.7 8010V7610Z"/>
<path transform="matrix(.1,0,0,-.1,0,792)" d="M2641.7 7610 2841.7 7810 2441.7 8210 2241.7 8010Z" fill="#212947"/>
<path transform="matrix(.1,0,0,-.1,0,792)" stroke-width="1" stroke-linecap="butt" stroke-miterlimit="10" stroke-linejoin="miter" fill="none" stroke="#000000" d="M2641.7 7610 2841.7 7810 2441.7 8210 2241.7 8010Z"/>
<path transform="matrix(.1,0,0,-.1,0,792)" d="M1441.7 7610V8010L1041.7 7610" fill="#212947"/>
<path transform="matrix(.1,0,0,-.1,0,792)" stroke-width="1" stroke-linecap="butt" stroke-miterlimit="10" stroke-linejoin="miter" fill="none" stroke="#000000" d="M1441.7 7610V8010L1041.7 7610Z"/>
<path transform="matrix(.1,0,0,-.1,0,792)" d="M1041.7 7610 1441.7 8010 1241.7 8210 841.699 7810Z" fill="#ffffff"/>
<path transform="matrix(.1,0,0,-.1,0,792)" stroke-width="1" stroke-linecap="butt" stroke-miterlimit="10" stroke-linejoin="miter" fill="none" stroke="#000000" d="M1041.7 7610 1441.7 8010 1241.7 8210 841.699 7810Z"/>
<path transform="matrix(.1,0,0,-.1,0,792)" d="M641.699 7610 241.699 8010V7610" fill="#212947"/>
<path transform="matrix(.1,0,0,-.1,0,792)" stroke-width="1" stroke-linecap="butt" stroke-miterlimit="10" stroke-linejoin="miter" fill="none" stroke="#000000" d="M641.699 7610 241.699 8010V7610Z"/>
<path transform="matrix(.1,0,0,-.1,0,792)" d="M641.699 7610 841.699 7810 441.699 8210 241.699 8010Z" fill="#ffffff"/>
<path transform="matrix(.1,0,0,-.1,0,792)" stroke-width="1" stroke-linecap="butt" stroke-miterlimit="10" stroke-linejoin="miter" fill="none" stroke="#000000" d="M641.699 7610 841.699 7810 441.699 8210 241.699 8010Z"/>
<path transform="matrix(.1,0,0,-.1,0,792)" d="M441.699 6210 241.699 6410H-158.301V6010H241.699" fill="#ffffff"/>
<path transform="matrix(.1,0,0,-.1,0,792)" stroke-width="1" stroke-linecap="butt" stroke-miterlimit="10" stroke-linejoin="miter" fill="none" stroke="#000000" d="M441.699 6210 241.699 6410H-158.301V6010H241.699Z"/>
<path transform="matrix(.1,0,0,-.1,0,792)" d="M441.699 4210 241.699 4410H-158.301V4010H241.699" fill="#212947"/>
<path transform="matrix(.1,0,0,-.1,0,792)" stroke-width="1" stroke-linecap="butt" stroke-miterlimit="10" stroke-linejoin="miter" fill="none" stroke="#000000" d="M441.699 4210 241.699 4410H-158.301V4010H241.699Z"/>
<path transform="matrix(.1,0,0,-.1,0,792)" d="M441.699 2210 241.699 2410H-158.301V2010H241.699" fill="#ffffff"/>
<path transform="matrix(.1,0,0,-.1,0,792)" stroke-width="1" stroke-linecap="butt" stroke-miterlimit="10" stroke-linejoin="miter" fill="none" stroke="#000000" d="M441.699 2210 241.699 2410H-158.301V2010H241.699Z"/>
<path transform="matrix(.1,0,0,-.1,0,792)" d="M841.699 610 441.699 210 841.699-190 1241.7 210Z" fill="#212947"/>
<path transform="matrix(.1,0,0,-.1,0,792)" stroke-width="1" stroke-linecap="butt" stroke-miterlimit="10" stroke-linejoin="miter" fill="none" stroke="#000000" d="M841.699 610 441.699 210 841.699-190 1241.7 210Z"/>
<path transform="matrix(.1,0,0,-.1,0,792)" d="M2841.7 610 2441.7 210 2841.7-190 3241.7 210Z" fill="#ffffff"/>
<path transform="matrix(.1,0,0,-.1,0,792)" stroke-width="1" stroke-linecap="butt" stroke-miterlimit="10" stroke-linejoin="miter" fill="none" stroke="#000000" d="M2841.7 610 2441.7 210 2841.7-190 3241.7 210Z"/>
<path transform="matrix(.1,0,0,-.1,0,792)" d="M4841.7 610 4441.7 210 4841.7-190 5241.7 210Z" fill="#212947"/>
<path transform="matrix(.1,0,0,-.1,0,792)" stroke-width="1" stroke-linecap="butt" stroke-miterlimit="10" stroke-linejoin="miter" fill="none" stroke="#000000" d="M4841.7 610 4441.7 210 4841.7-190 5241.7 210Z"/>
<path transform="matrix(.1,0,0,-.1,0,792)" d="M4841.7 7810 5241.7 8210 4841.7 8610 4441.7 8210Z" fill="#212947"/>
<path transform="matrix(.1,0,0,-.1,0,792)" stroke-width="1" stroke-linecap="butt" stroke-miterlimit="10" stroke-linejoin="miter" fill="none" stroke="#000000" d="M4841.7 7810 5241.7 8210 4841.7 8610 4441.7 8210Z"/>
<path transform="matrix(.1,0,0,-.1,0,792)" d="M2841.7 7810 3241.7 8210 2841.7 8610 2441.7 8210Z" fill="#ffffff"/>
<path transform="matrix(.1,0,0,-.1,0,792)" stroke-width="1" stroke-linecap="butt" stroke-miterlimit="10" stroke-linejoin="miter" fill="none" stroke="#000000" d="M2841.7 7810 3241.7 8210 2841.7 8610 2441.7 8210Z"/>
<path transform="matrix(.1,0,0,-.1,0,792)" d="M841.699 7810 1241.7 8210 841.699 8610 441.699 8210Z" fill="#212947"/>
<path transform="matrix(.1,0,0,-.1,0,792)" stroke-width="1" stroke-linecap="butt" stroke-miterlimit="10" stroke-linejoin="miter" fill="none" stroke="#000000" d="M841.699 7810 1241.7 8210 841.699 8610 441.699 8210Z"/>
<path transform="matrix(.1,0,0,-.1,0,792)" d="M241.699 410H-158.301V10H241.699L441.699 210" fill="#212947"/>
<path transform="matrix(.1,0,0,-.1,0,792)" stroke-width="1" stroke-linecap="butt" stroke-miterlimit="10" stroke-linejoin="miter" fill="none" stroke="#000000" d="M241.699 410H-158.301V10H241.699L441.699 210Z"/>
<path transform="matrix(.1,0,0,-.1,0,792)" d="M1441.7 410 1241.7 210 1441.7 10H1841.7V410" fill="#212947"/>
<path transform="matrix(.1,0,0,-.1,0,792)" stroke-width="1" stroke-linecap="butt" stroke-miterlimit="10" stroke-linejoin="miter" fill="none" stroke="#000000" d="M1441.7 410 1241.7 210 1441.7 10H1841.7V410Z"/>
<path transform="matrix(.1,0,0,-.1,0,792)" d="M1841.7 410V10H2241.7L2441.7 210 2241.7 410" fill="#ffffff"/>
<path transform="matrix(.1,0,0,-.1,0,792)" stroke-width="1" stroke-linecap="butt" stroke-miterlimit="10" stroke-linejoin="miter" fill="none" stroke="#000000" d="M1841.7 410V10H2241.7L2441.7 210 2241.7 410Z"/>
<path transform="matrix(.1,0,0,-.1,0,792)" d="M3441.7 410 3241.7 210 3441.7 10H3841.7V410" fill="#ffffff"/>
<path transform="matrix(.1,0,0,-.1,0,792)" stroke-width="1" stroke-linecap="butt" stroke-miterlimit="10" stroke-linejoin="miter" fill="none" stroke="#000000" d="M3441.7 410 3241.7 210 3441.7 10H3841.7V410Z"/>
<path transform="matrix(.1,0,0,-.1,0,792)" d="M3841.7 410V10H4241.7L4441.7 210 4241.7 410" fill="#212947"/>
<path transform="matrix(.1,0,0,-.1,0,792)" stroke-width="1" stroke-linecap="butt" stroke-miterlimit="10" stroke-linejoin="miter" fill="none" stroke="#000000" d="M3841.7 410V10H4241.7L4441.7 210 4241.7 410Z"/>
<path transform="matrix(.1,0,0,-.1,0,792)" d="M5441.7 410 5241.7 210 5441.7 10H5841.7V410" fill="#212947"/>
<path transform="matrix(.1,0,0,-.1,0,792)" stroke-width="1" stroke-linecap="butt" stroke-miterlimit="10" stroke-linejoin="miter" fill="none" stroke="#000000" d="M5441.7 410 5241.7 210 5441.7 10H5841.7V410Z"/>
<path transform="matrix(.1,0,0,-.1,0,792)" d="M5841.7 410H6241.7V810H6641.7V1210H5841.7" fill="#212947"/>
<path transform="matrix(.1,0,0,-.1,0,792)" stroke-width="1" stroke-linecap="butt" stroke-miterlimit="10" stroke-linejoin="miter" fill="none" stroke="#000000" d="M5841.7 410H6241.7V810H6641.7V1210H5841.7Z"/>
<path transform="matrix(.1,0,0,-.1,0,792)" d="M5841.7 410V10H6241.7L6441.7 210 6241.7 410" fill="#ffffff"/>
<path transform="matrix(.1,0,0,-.1,0,792)" stroke-width="1" stroke-linecap="butt" stroke-miterlimit="10" stroke-linejoin="miter" fill="none" stroke="#000000" d="M5841.7 410V10H6241.7L6441.7 210 6241.7 410Z"/>
<path transform="matrix(.1,0,0,-.1,0,792)" d="M5841.7 1210H6641.7V1610H6241.7V2010H5841.7" fill="#ffffff"/>
<path transform="matrix(.1,0,0,-.1,0,792)" stroke-width="1" stroke-linecap="butt" stroke-miterlimit="10" stroke-linejoin="miter" fill="none" stroke="#000000" d="M5841.7 1210H6641.7V1610H6241.7V2010H5841.7Z"/>
<path transform="matrix(.1,0,0,-.1,0,792)" d="M5841.7 2010H6241.7L6441.7 2210 6241.7 2410H5841.7" fill="#212947"/>
<path transform="matrix(.1,0,0,-.1,0,792)" stroke-width="1" stroke-linecap="butt" stroke-miterlimit="10" stroke-linejoin="miter" fill="none" stroke="#000000" d="M5841.7 2010H6241.7L6441.7 2210 6241.7 2410H5841.7Z"/>
<path transform="matrix(.1,0,0,-.1,0,792)" d="M5841.7 2410H6241.7V2810H6641.7V3210H5841.7" fill="#ffffff"/>
<path transform="matrix(.1,0,0,-.1,0,792)" stroke-width="1" stroke-linecap="butt" stroke-miterlimit="10" stroke-linejoin="miter" fill="none" stroke="#000000" d="M5841.7 2410H6241.7V2810H6641.7V3210H5841.7Z"/>
<path transform="matrix(.1,0,0,-.1,0,792)" d="M5841.7 3210H6641.7V3610H6241.7V4010H5841.7" fill="#212947"/>
<path transform="matrix(.1,0,0,-.1,0,792)" stroke-width="1" stroke-linecap="butt" stroke-miterlimit="10" stroke-linejoin="miter" fill="none" stroke="#000000" d="M5841.7 3210H6641.7V3610H6241.7V4010H5841.7Z"/>
<path transform="matrix(.1,0,0,-.1,0,792)" d="M5841.7 4010H6241.7L6441.7 4210 6241.7 4410H5841.7" fill="#ffffff"/>
<path transform="matrix(.1,0,0,-.1,0,792)" stroke-width="1" stroke-linecap="butt" stroke-miterlimit="10" stroke-linejoin="miter" fill="none" stroke="#000000" d="M5841.7 4010H6241.7L6441.7 4210 6241.7 4410H5841.7Z"/>
<path transform="matrix(.1,0,0,-.1,0,792)" d="M5841.7 4410H6241.7V4810H6641.7V5210H5841.7" fill="#212947"/>
<path transform="matrix(.1,0,0,-.1,0,792)" stroke-width="1" stroke-linecap="butt" stroke-miterlimit="10" stroke-linejoin="miter" fill="none" stroke="#000000" d="M5841.7 4410H6241.7V4810H6641.7V5210H5841.7Z"/>
<path transform="matrix(.1,0,0,-.1,0,792)" d="M5841.7 5210H6641.7V5610H6241.7V6010H5841.7" fill="#ffffff"/>
<path transform="matrix(.1,0,0,-.1,0,792)" stroke-width="1" stroke-linecap="butt" stroke-miterlimit="10" stroke-linejoin="miter" fill="none" stroke="#000000" d="M5841.7 5210H6641.7V5610H6241.7V6010H5841.7Z"/>
<path transform="matrix(.1,0,0,-.1,0,792)" d="M5841.7 6010H6241.7L6441.7 6210 6241.7 6410H5841.7" fill="#212947"/>
<path transform="matrix(.1,0,0,-.1,0,792)" stroke-width="1" stroke-linecap="butt" stroke-miterlimit="10" stroke-linejoin="miter" fill="none" stroke="#000000" d="M5841.7 6010H6241.7L6441.7 6210 6241.7 6410H5841.7Z"/>
<path transform="matrix(.1,0,0,-.1,0,792)" d="M5841.7 6410H6241.7V6810H6641.7V7210H5841.7" fill="#ffffff"/>
<path transform="matrix(.1,0,0,-.1,0,792)" stroke-width="1" stroke-linecap="butt" stroke-miterlimit="10" stroke-linejoin="miter" fill="none" stroke="#000000" d="M5841.7 6410H6241.7V6810H6641.7V7210H5841.7Z"/>
<path transform="matrix(.1,0,0,-.1,0,792)" d="M5841.7 7210H6641.7V7610H6241.7V8010H5841.7" fill="#212947"/>
<path transform="matrix(.1,0,0,-.1,0,792)" stroke-width="1" stroke-linecap="butt" stroke-miterlimit="10" stroke-linejoin="miter" fill="none" stroke="#000000" d="M5841.7 7210H6641.7V7610H6241.7V8010H5841.7Z"/>
<path transform="matrix(.1,0,0,-.1,0,792)" d="M441.699 210 241.699 10 641.699-390 841.699-190Z" fill="#ffffff"/>
<path transform="matrix(.1,0,0,-.1,0,792)" stroke-width="1" stroke-linecap="butt" stroke-miterlimit="10" stroke-linejoin="miter" fill="none" stroke="#000000" d="M441.699 210 241.699 10 641.699-390 841.699-190Z"/>
<path transform="matrix(.1,0,0,-.1,0,792)" d="M1241.7 210 841.699-190 1041.7-390 1441.7 10Z" fill="#ffffff"/>
<path transform="matrix(.1,0,0,-.1,0,792)" stroke-width="1" stroke-linecap="butt" stroke-miterlimit="10" stroke-linejoin="miter" fill="none" stroke="#000000" d="M1241.7 210 841.699-190 1041.7-390 1441.7 10Z"/>
<path transform="matrix(.1,0,0,-.1,0,792)" d="M2441.7 210 2241.7 10 2641.7-390 2841.7-190Z" fill="#212947"/>
<path transform="matrix(.1,0,0,-.1,0,792)" stroke-width="1" stroke-linecap="butt" stroke-miterlimit="10" stroke-linejoin="miter" fill="none" stroke="#000000" d="M2441.7 210 2241.7 10 2641.7-390 2841.7-190Z"/>
<path transform="matrix(.1,0,0,-.1,0,792)" d="M3241.7 210 2841.7-190 3041.7-390 3441.7 10Z" fill="#212947"/>
<path transform="matrix(.1,0,0,-.1,0,792)" stroke-width="1" stroke-linecap="butt" stroke-miterlimit="10" stroke-linejoin="miter" fill="none" stroke="#000000" d="M3241.7 210 2841.7-190 3041.7-390 3441.7 10Z"/>
<path transform="matrix(.1,0,0,-.1,0,792)" d="M4441.7 210 4241.7 10 4641.7-390 4841.7-190Z" fill="#ffffff"/>
<path transform="matrix(.1,0,0,-.1,0,792)" stroke-width="1" stroke-linecap="butt" stroke-miterlimit="10" stroke-linejoin="miter" fill="none" stroke="#000000" d="M4441.7 210 4241.7 10 4641.7-390 4841.7-190Z"/>
<path transform="matrix(.1,0,0,-.1,0,792)" d="M5241.7 210 4841.7-190 5041.7-390 5441.7 10Z" fill="#ffffff"/>
<path transform="matrix(.1,0,0,-.1,0,792)" stroke-width="1" stroke-linecap="butt" stroke-miterlimit="10" stroke-linejoin="miter" fill="none" stroke="#000000" d="M5241.7 210 4841.7-190 5041.7-390 5441.7 10Z"/>
<path transform="matrix(.1,0,0,-.1,0,792)" d="M5441.7 10V-390H5041.7V-790H5841.7V10" fill="#ffffff"/>
<path transform="matrix(.1,0,0,-.1,0,792)" stroke-width="1" stroke-linecap="butt" stroke-miterlimit="10" stroke-linejoin="miter" fill="none" stroke="#000000" d="M5441.7 10V-390H5041.7V-790H5841.7V10Z"/>
<path transform="matrix(.1,0,0,-.1,0,792)" d="M5441.7 10 5041.7-390H5441.7" fill="#212947"/>
<path transform="matrix(.1,0,0,-.1,0,792)" stroke-width="1" stroke-linecap="butt" stroke-miterlimit="10" stroke-linejoin="miter" fill="none" stroke="#000000" d="M5441.7 10 5041.7-390H5441.7Z"/>
<path transform="matrix(.1,0,0,-.1,0,792)" d="M5841.7 10V-790H6641.7V-390H6241.7V10" fill="#212947"/>
<path transform="matrix(.1,0,0,-.1,0,792)" stroke-width="1" stroke-linecap="butt" stroke-miterlimit="10" stroke-linejoin="miter" fill="none" stroke="#000000" d="M5841.7 10V-790H6641.7V-390H6241.7V10Z"/>
<path transform="matrix(.1,0,0,-.1,0,792)" d="M241.699 10V-390H641.699" fill="#212947"/>
<path transform="matrix(.1,0,0,-.1,0,792)" stroke-width="1" stroke-linecap="butt" stroke-miterlimit="10" stroke-linejoin="miter" fill="none" stroke="#000000" d="M241.699 10V-390H641.699Z"/>
<path transform="matrix(.1,0,0,-.1,0,792)" d="M241.699 10H-158.301V-790H641.699V-390H241.699" fill="#ffffff"/>
<path transform="matrix(.1,0,0,-.1,0,792)" stroke-width="1" stroke-linecap="butt" stroke-miterlimit="10" stroke-linejoin="miter" fill="none" stroke="#000000" d="M241.699 10H-158.301V-790H641.699V-390H241.699Z"/>
<path transform="matrix(.1,0,0,-.1,0,792)" d="M1441.7 10V-390H1041.7V-790H1841.7V10" fill="#ffffff"/>
<path transform="matrix(.1,0,0,-.1,0,792)" stroke-width="1" stroke-linecap="butt" stroke-miterlimit="10" stroke-linejoin="miter" fill="none" stroke="#000000" d="M1441.7 10V-390H1041.7V-790H1841.7V10Z"/>
<path transform="matrix(.1,0,0,-.1,0,792)" d="M1441.7 10 1041.7-390H1441.7" fill="#212947"/>
<path transform="matrix(.1,0,0,-.1,0,792)" stroke-width="1" stroke-linecap="butt" stroke-miterlimit="10" stroke-linejoin="miter" fill="none" stroke="#000000" d="M1441.7 10 1041.7-390H1441.7Z"/>
<path transform="matrix(.1,0,0,-.1,0,792)" d="M1841.7 10V-790H2641.7V-390H2241.7V10" fill="#212947"/>
<path transform="matrix(.1,0,0,-.1,0,792)" stroke-width="1" stroke-linecap="butt" stroke-miterlimit="10" stroke-linejoin="miter" fill="none" stroke="#000000" d="M1841.7 10V-790H2641.7V-390H2241.7V10Z"/>
<path transform="matrix(.1,0,0,-.1,0,792)" d="M2241.7 10V-390H2641.7" fill="#ffffff"/>
<path transform="matrix(.1,0,0,-.1,0,792)" stroke-width="1" stroke-linecap="butt" stroke-miterlimit="10" stroke-linejoin="miter" fill="none" stroke="#000000" d="M2241.7 10V-390H2641.7Z"/>
<path transform="matrix(.1,0,0,-.1,0,792)" d="M3441.7 10V-390H3041.7V-790H3841.7V10" fill="#212947"/>
<path transform="matrix(.1,0,0,-.1,0,792)" stroke-width="1" stroke-linecap="butt" stroke-miterlimit="10" stroke-linejoin="miter" fill="none" stroke="#000000" d="M3441.7 10V-390H3041.7V-790H3841.7V10Z"/>
<path transform="matrix(.1,0,0,-.1,0,792)" d="M3441.7 10 3041.7-390H3441.7" fill="#ffffff"/>
<path transform="matrix(.1,0,0,-.1,0,792)" stroke-width="1" stroke-linecap="butt" stroke-miterlimit="10" stroke-linejoin="miter" fill="none" stroke="#000000" d="M3441.7 10 3041.7-390H3441.7Z"/>
<path transform="matrix(.1,0,0,-.1,0,792)" d="M3841.7 10V-790H4641.7V-390H4241.7V10" fill="#ffffff"/>
<path transform="matrix(.1,0,0,-.1,0,792)" stroke-width="1" stroke-linecap="butt" stroke-miterlimit="10" stroke-linejoin="miter" fill="none" stroke="#000000" d="M3841.7 10V-790H4641.7V-390H4241.7V10Z"/>
<path transform="matrix(.1,0,0,-.1,0,792)" d="M4241.7 10V-390H4641.7" fill="#212947"/>
<path transform="matrix(.1,0,0,-.1,0,792)" stroke-width="1" stroke-linecap="butt" stroke-miterlimit="10" stroke-linejoin="miter" fill="none" stroke="#000000" d="M4241.7 10V-390H4641.7Z"/>
</svg>
