<svg xmlns="http://www.w3.org/2000/svg" xmlns:xlink="http://www.w3.org/1999/xlink" xmlns:inkscape="http://www.inkscape.org/namespaces/inkscape" version="1.1" width="612" height="792" viewBox="0 0 612 792">
<path transform="matrix(.1,0,0,-.1,0,792)" d="M2975 3076.3 3275 3595.9H3875L3575 4115.5 3875 4635.1H3275L2975 5154.8 2675 4635.1H2075L2375 4115.5 2075 3595.9H2675" fill="#96c742"/>
<path transform="matrix(.1,0,0,-.1,0,792)" stroke-width="20" stroke-linecap="butt" stroke-miterlimit="10" stroke-linejoin="miter" fill="none" stroke="#000000" d="M2975 3076.3 3275 3595.9H3875L3575 4115.5 3875 4635.1H3275L2975 5154.8 2675 4635.1H2075L2375 4115.5 2075 3595.9H2675Z"/>
<path transform="matrix(.1,0,0,-.1,0,792)" d="M3275 4635.1H3875L4175 5154.8 3875 5674.4H3275L2975 5154.8" fill="#54d9c7"/>
<path transform="matrix(.1,0,0,-.1,0,792)" stroke-width="20" stroke-linecap="butt" stroke-miterlimit="10" stroke-linejoin="miter" fill="none" stroke="#000000" d="M3275 4635.1H3875L4175 5154.8 3875 5674.4H3275L2975 5154.8Z"/>
<path transform="matrix(.1,0,0,-.1,0,792)" d="M2675 4635.1 2975 5154.8 2675 5674.4H2075L1775 5154.8 2075 4635.1" fill="#54d9c7"/>
<path transform="matrix(.1,0,0,-.1,0,792)" stroke-width="20" stroke-linecap="butt" stroke-miterlimit="10" stroke-linejoin="miter" fill="none" stroke="#000000" d="M2675 4635.1 2975 5154.8 2675 5674.4H2075L1775 5154.8 2075 4635.1Z"/>
<path transform="matrix(.1,0,0,-.1,0,792)" d="M2675 3595.9H2075L1775 3076.3 2075 2556.7H2675L2975 3076.3" fill="#54d9c7"/>
<path transform="matrix(.1,0,0,-.1,0,792)" stroke-width="20" stroke-linecap="butt" stroke-miterlimit="10" stroke-linejoin="miter" fill="none" stroke="#000000" d="M2675 3595.9H2075L1775 3076.3 2075 2556.7H2675L2975 3076.3Z"/>
<path transform="matrix(.1,0,0,-.1,0,792)" d="M3275 3595.9 2975 3076.3 3275 2556.7H3875L4175 3076.3 3875 3595.9" fill="#54d9c7"/>
<path transform="matrix(.1,0,0,-.1,0,792)" stroke-width="20" stroke-linecap="butt" stroke-miterlimit="10" stroke-linejoin="miter" fill="none" stroke="#000000" d="M3275 3595.9 2975 3076.3 3275 2556.7H3875L4175 3076.3 3875 3595.9Z"/>
<path transform="matrix(.1,0,0,-.1,0,792)" d="M3575 4115.5 3875 3595.9H4475L4775 4115.5 4475 4635.1H3875" fill="#54d9c7"/>
<path transform="matrix(.1,0,0,-.1,0,792)" stroke-width="20" stroke-linecap="butt" stroke-miterlimit="10" stroke-linejoin="miter" fill="none" stroke="#000000" d="M3575 4115.5 3875 3595.9H4475L4775 4115.5 4475 4635.1H3875Z"/>
<path transform="matrix(.1,0,0,-.1,0,792)" d="M2375 4115.5 2075 4635.1H1475L1175 4115.5 1475 3595.9H2075" fill="#54d9c7"/>
<path transform="matrix(.1,0,0,-.1,0,792)" stroke-width="20" stroke-linecap="butt" stroke-miterlimit="10" stroke-linejoin="miter" fill="none" stroke="#000000" d="M2375 4115.5 2075 4635.1H1475L1175 4115.5 1475 3595.9H2075Z"/>
<path transform="matrix(.1,0,0,-.1,0,792)" d="M2975 5154.8 3275 5674.4H3875L2975 6194 2075 5674.4H2675" fill="#b5edb2"/>
<path transform="matrix(.1,0,0,-.1,0,792)" stroke-width="20" stroke-linecap="butt" stroke-miterlimit="10" stroke-linejoin="miter" fill="none" stroke="#000000" d="M2975 5154.8 3275 5674.4H3875L2975 6194 2075 5674.4H2675Z"/>
<path transform="matrix(.1,0,0,-.1,0,792)" d="M2975 3076.3 2675 2556.7H2075L2975 2037.1 3875 2556.7H3275" fill="#b5edb2"/>
<path transform="matrix(.1,0,0,-.1,0,792)" stroke-width="20" stroke-linecap="butt" stroke-miterlimit="10" stroke-linejoin="miter" fill="none" stroke="#000000" d="M2975 3076.3 2675 2556.7H2075L2975 2037.1 3875 2556.7H3275Z"/>
<path transform="matrix(.1,0,0,-.1,0,792)" d="M3875 3595.9 4175 3076.3 3875 2556.7 4775 3076.3V4115.5L4475 3595.9" fill="#b5edb2"/>
<path transform="matrix(.1,0,0,-.1,0,792)" stroke-width="20" stroke-linecap="butt" stroke-miterlimit="10" stroke-linejoin="miter" fill="none" stroke="#000000" d="M3875 3595.9 4175 3076.3 3875 2556.7 4775 3076.3V4115.5L4475 3595.9Z"/>
<path transform="matrix(.1,0,0,-.1,0,792)" d="M3875 4635.1H4475L4775 4115.5V5154.8L3875 5674.4 4175 5154.8" fill="#b5edb2"/>
<path transform="matrix(.1,0,0,-.1,0,792)" stroke-width="20" stroke-linecap="butt" stroke-miterlimit="10" stroke-linejoin="miter" fill="none" stroke="#000000" d="M3875 4635.1H4475L4775 4115.5V5154.8L3875 5674.4 4175 5154.8Z"/>
<path transform="matrix(.1,0,0,-.1,0,792)" d="M2075 4635.1 1775 5154.8 2075 5674.4 1175 5154.8V4115.5L1475 4635.1" fill="#b5edb2"/>
<path transform="matrix(.1,0,0,-.1,0,792)" stroke-width="20" stroke-linecap="butt" stroke-miterlimit="10" stroke-linejoin="miter" fill="none" stroke="#000000" d="M2075 4635.1 1775 5154.8 2075 5674.4 1175 5154.8V4115.5L1475 4635.1Z"/>
<path transform="matrix(.1,0,0,-.1,0,792)" d="M2075 3595.9H1475L1175 4115.5V3076.3L2075 2556.7 1775 3076.3" fill="#b5edb2"/>
<path transform="matrix(.1,0,0,-.1,0,792)" stroke-width="20" stroke-linecap="butt" stroke-miterlimit="10" stroke-linejoin="miter" fill="none" stroke="#000000" d="M2075 3595.9H1475L1175 4115.5V3076.3L2075 2556.7 1775 3076.3Z"/>
<path transform="matrix(.1,0,0,-.1,0,792)" d="M3875 5674.4 3575 6194 3875 6713.6H3275L2975 7233.2V6194" fill="#b5edb2"/>
<path transform="matrix(.1,0,0,-.1,0,792)" stroke-width="20" stroke-linecap="butt" stroke-miterlimit="10" stroke-linejoin="miter" fill="none" stroke="#000000" d="M3875 5674.4 3575 6194 3875 6713.6H3275L2975 7233.2V6194Z"/>
<path transform="matrix(.1,0,0,-.1,0,792)" d="M3875 5674.4H4475L4775 6194 4475 6713.6H3875L3575 6194" fill="#54d9c7"/>
<path transform="matrix(.1,0,0,-.1,0,792)" stroke-width="20" stroke-linecap="butt" stroke-miterlimit="10" stroke-linejoin="miter" fill="none" stroke="#000000" d="M3875 5674.4H4475L4775 6194 4475 6713.6H3875L3575 6194Z"/>
<path transform="matrix(.1,0,0,-.1,0,792)" d="M3875 5674.4 4775 5154.8 5675 5674.4H5075L4775 6194 4475 5674.4" fill="#b5edb2"/>
<path transform="matrix(.1,0,0,-.1,0,792)" stroke-width="20" stroke-linecap="butt" stroke-miterlimit="10" stroke-linejoin="miter" fill="none" stroke="#000000" d="M3875 5674.4 4775 5154.8 5675 5674.4H5075L4775 6194 4475 5674.4Z"/>
<path transform="matrix(.1,0,0,-.1,0,792)" d="M2075 5674.4H1475L1175 6194 875 5674.4H275L1175 5154.8" fill="#b5edb2"/>
<path transform="matrix(.1,0,0,-.1,0,792)" stroke-width="20" stroke-linecap="butt" stroke-miterlimit="10" stroke-linejoin="miter" fill="none" stroke="#000000" d="M2075 5674.4H1475L1175 6194 875 5674.4H275L1175 5154.8Z"/>
<path transform="matrix(.1,0,0,-.1,0,792)" d="M2075 5674.4 2375 6194 2075 6713.6H1475L1175 6194 1475 5674.4" fill="#54d9c7"/>
<path transform="matrix(.1,0,0,-.1,0,792)" stroke-width="20" stroke-linecap="butt" stroke-miterlimit="10" stroke-linejoin="miter" fill="none" stroke="#000000" d="M2075 5674.4 2375 6194 2075 6713.6H1475L1175 6194 1475 5674.4Z"/>
<path transform="matrix(.1,0,0,-.1,0,792)" d="M2075 5674.4 2975 6194V7233.2L2675 6713.6H2075L2375 6194" fill="#b5edb2"/>
<path transform="matrix(.1,0,0,-.1,0,792)" stroke-width="20" stroke-linecap="butt" stroke-miterlimit="10" stroke-linejoin="miter" fill="none" stroke="#000000" d="M2075 5674.4 2975 6194V7233.2L2675 6713.6H2075L2375 6194Z"/>
<path transform="matrix(.1,0,0,-.1,0,792)" d="M2075 2556.7 2375 2037.1 2075 1517.4H2675L2975 997.801V2037.1" fill="#b5edb2"/>
<path transform="matrix(.1,0,0,-.1,0,792)" stroke-width="20" stroke-linecap="butt" stroke-miterlimit="10" stroke-linejoin="miter" fill="none" stroke="#000000" d="M2075 2556.7 2375 2037.1 2075 1517.4H2675L2975 997.801V2037.1Z"/>
<path transform="matrix(.1,0,0,-.1,0,792)" d="M2075 2556.7H1475L1175 2037.1 1475 1517.4H2075L2375 2037.1" fill="#54d9c7"/>
<path transform="matrix(.1,0,0,-.1,0,792)" stroke-width="20" stroke-linecap="butt" stroke-miterlimit="10" stroke-linejoin="miter" fill="none" stroke="#000000" d="M2075 2556.7H1475L1175 2037.1 1475 1517.4H2075L2375 2037.1Z"/>
<path transform="matrix(.1,0,0,-.1,0,792)" d="M2075 2556.7 1175 3076.3 275 2556.7H875L1175 2037.1 1475 2556.7" fill="#b5edb2"/>
<path transform="matrix(.1,0,0,-.1,0,792)" stroke-width="20" stroke-linecap="butt" stroke-miterlimit="10" stroke-linejoin="miter" fill="none" stroke="#000000" d="M2075 2556.7 1175 3076.3 275 2556.7H875L1175 2037.1 1475 2556.7Z"/>
<path transform="matrix(.1,0,0,-.1,0,792)" d="M3875 2556.7H4475L4775 2037.1 5075 2556.7H5675L4775 3076.3" fill="#b5edb2"/>
<path transform="matrix(.1,0,0,-.1,0,792)" stroke-width="20" stroke-linecap="butt" stroke-miterlimit="10" stroke-linejoin="miter" fill="none" stroke="#000000" d="M3875 2556.7H4475L4775 2037.1 5075 2556.7H5675L4775 3076.3Z"/>
<path transform="matrix(.1,0,0,-.1,0,792)" d="M3875 2556.7 3575 2037.1 3875 1517.4H4475L4775 2037.1 4475 2556.7" fill="#54d9c7"/>
<path transform="matrix(.1,0,0,-.1,0,792)" stroke-width="20" stroke-linecap="butt" stroke-miterlimit="10" stroke-linejoin="miter" fill="none" stroke="#000000" d="M3875 2556.7 3575 2037.1 3875 1517.4H4475L4775 2037.1 4475 2556.7Z"/>
<path transform="matrix(.1,0,0,-.1,0,792)" d="M3875 2556.7 2975 2037.1V997.801L3275 1517.4H3875L3575 2037.1" fill="#b5edb2"/>
<path transform="matrix(.1,0,0,-.1,0,792)" stroke-width="20" stroke-linecap="butt" stroke-miterlimit="10" stroke-linejoin="miter" fill="none" stroke="#000000" d="M3875 2556.7 2975 2037.1V997.801L3275 1517.4H3875L3575 2037.1Z"/>
<path transform="matrix(.1,0,0,-.1,0,792)" d="M4775 2037.1 5075 1517.4H5675L5975 2037.1 5675 2556.7H5075" fill="#54d9c7"/>
<path transform="matrix(.1,0,0,-.1,0,792)" stroke-width="20" stroke-linecap="butt" stroke-miterlimit="10" stroke-linejoin="miter" fill="none" stroke="#000000" d="M4775 2037.1 5075 1517.4H5675L5975 2037.1 5675 2556.7H5075Z"/>
<path transform="matrix(.1,0,0,-.1,0,792)" d="M4775 2037.1 4475 1517.4H3875L4175 997.801 3875 478.199H4475L4775-41.3984 5075 478.199H5675L5375 997.801 5675 1517.4H5075" fill="#96c742"/>
<path transform="matrix(.1,0,0,-.1,0,792)" stroke-width="20" stroke-linecap="butt" stroke-miterlimit="10" stroke-linejoin="miter" fill="none" stroke="#000000" d="M4775 2037.1 4475 1517.4H3875L4175 997.801 3875 478.199H4475L4775-41.3984 5075 478.199H5675L5375 997.801 5675 1517.4H5075Z"/>
<path transform="matrix(.1,0,0,-.1,0,792)" d="M4775 3076.3 5675 2556.7 5375 3076.3 5675 3595.9H5075L4775 4115.5" fill="#b5edb2"/>
<path transform="matrix(.1,0,0,-.1,0,792)" stroke-width="20" stroke-linecap="butt" stroke-miterlimit="10" stroke-linejoin="miter" fill="none" stroke="#000000" d="M4775 3076.3 5675 2556.7 5375 3076.3 5675 3595.9H5075L4775 4115.5Z"/>
<path transform="matrix(.1,0,0,-.1,0,792)" d="M4775 4115.5 5075 4635.1H5675L5375 5154.8 5675 5674.4 4775 5154.8" fill="#b5edb2"/>
<path transform="matrix(.1,0,0,-.1,0,792)" stroke-width="20" stroke-linecap="butt" stroke-miterlimit="10" stroke-linejoin="miter" fill="none" stroke="#000000" d="M4775 4115.5 5075 4635.1H5675L5375 5154.8 5675 5674.4 4775 5154.8Z"/>
<path transform="matrix(.1,0,0,-.1,0,792)" d="M4775 4115.5 5075 3595.9H5675L5975 4115.5 5675 4635.1H5075" fill="#54d9c7"/>
<path transform="matrix(.1,0,0,-.1,0,792)" stroke-width="20" stroke-linecap="butt" stroke-miterlimit="10" stroke-linejoin="miter" fill="none" stroke="#000000" d="M4775 4115.5 5075 3595.9H5675L5975 4115.5 5675 4635.1H5075Z"/>
<path transform="matrix(.1,0,0,-.1,0,792)" d="M4775 6194 5075 6713.6H5675L5375 7233.2 5675 7752.8H5075L4775 8272.4 4475 7752.8H3875L4175 7233.2 3875 6713.6H4475" fill="#96c742"/>
<path transform="matrix(.1,0,0,-.1,0,792)" stroke-width="20" stroke-linecap="butt" stroke-miterlimit="10" stroke-linejoin="miter" fill="none" stroke="#000000" d="M4775 6194 5075 6713.6H5675L5375 7233.2 5675 7752.8H5075L4775 8272.4 4475 7752.8H3875L4175 7233.2 3875 6713.6H4475Z"/>
<path transform="matrix(.1,0,0,-.1,0,792)" d="M4775 6194 5075 5674.4H5675L5975 6194 5675 6713.6H5075" fill="#54d9c7"/>
<path transform="matrix(.1,0,0,-.1,0,792)" stroke-width="20" stroke-linecap="butt" stroke-miterlimit="10" stroke-linejoin="miter" fill="none" stroke="#000000" d="M4775 6194 5075 5674.4H5675L5975 6194 5675 6713.6H5075Z"/>
<path transform="matrix(.1,0,0,-.1,0,792)" d="M1175 6194 875 6713.6H275L-25 6194 275 5674.4H875" fill="#54d9c7"/>
<path transform="matrix(.1,0,0,-.1,0,792)" stroke-width="20" stroke-linecap="butt" stroke-miterlimit="10" stroke-linejoin="miter" fill="none" stroke="#000000" d="M1175 6194 875 6713.6H275L-25 6194 275 5674.4H875Z"/>
<path transform="matrix(.1,0,0,-.1,0,792)" d="M1175 6194 1475 6713.6H2075L1775 7233.2 2075 7752.8H1475L1175 8272.4 875 7752.8H275L575 7233.2 275 6713.6H875" fill="#96c742"/>
<path transform="matrix(.1,0,0,-.1,0,792)" stroke-width="20" stroke-linecap="butt" stroke-miterlimit="10" stroke-linejoin="miter" fill="none" stroke="#000000" d="M1175 6194 1475 6713.6H2075L1775 7233.2 2075 7752.8H1475L1175 8272.4 875 7752.8H275L575 7233.2 275 6713.6H875Z"/>
<path transform="matrix(.1,0,0,-.1,0,792)" d="M1175 5154.8 275 5674.4 575 5154.8 275 4635.1H875L1175 4115.5" fill="#b5edb2"/>
<path transform="matrix(.1,0,0,-.1,0,792)" stroke-width="20" stroke-linecap="butt" stroke-miterlimit="10" stroke-linejoin="miter" fill="none" stroke="#000000" d="M1175 5154.8 275 5674.4 575 5154.8 275 4635.1H875L1175 4115.5Z"/>
<path transform="matrix(.1,0,0,-.1,0,792)" d="M1175 4115.5 875 3595.9H275L575 3076.3 275 2556.7 1175 3076.3" fill="#b5edb2"/>
<path transform="matrix(.1,0,0,-.1,0,792)" stroke-width="20" stroke-linecap="butt" stroke-miterlimit="10" stroke-linejoin="miter" fill="none" stroke="#000000" d="M1175 4115.5 875 3595.9H275L575 3076.3 275 2556.7 1175 3076.3Z"/>
<path transform="matrix(.1,0,0,-.1,0,792)" d="M1175 4115.5 875 4635.1H275L-25 4115.5 275 3595.9H875" fill="#54d9c7"/>
<path transform="matrix(.1,0,0,-.1,0,792)" stroke-width="20" stroke-linecap="butt" stroke-miterlimit="10" stroke-linejoin="miter" fill="none" stroke="#000000" d="M1175 4115.5 875 4635.1H275L-25 4115.5 275 3595.9H875Z"/>
<path transform="matrix(.1,0,0,-.1,0,792)" d="M1175 2037.1 875 1517.4H275L575 997.801 275 478.199H875L1175-41.3984 1475 478.199H2075L1775 997.801 2075 1517.4H1475" fill="#96c742"/>
<path transform="matrix(.1,0,0,-.1,0,792)" stroke-width="20" stroke-linecap="butt" stroke-miterlimit="10" stroke-linejoin="miter" fill="none" stroke="#000000" d="M1175 2037.1 875 1517.4H275L575 997.801 275 478.199H875L1175-41.3984 1475 478.199H2075L1775 997.801 2075 1517.4H1475Z"/>
<path transform="matrix(.1,0,0,-.1,0,792)" d="M1175 2037.1 875 2556.7H275L-25 2037.1 275 1517.4H875" fill="#54d9c7"/>
<path transform="matrix(.1,0,0,-.1,0,792)" stroke-width="20" stroke-linecap="butt" stroke-miterlimit="10" stroke-linejoin="miter" fill="none" stroke="#000000" d="M1175 2037.1 875 2556.7H275L-25 2037.1 275 1517.4H875Z"/>
<path transform="matrix(.1,0,0,-.1,0,792)" d="M3875 6713.6 4175 7233.2 3875 7752.8H3275L2975 7233.2 3275 6713.6" fill="#54d9c7"/>
<path transform="matrix(.1,0,0,-.1,0,792)" stroke-width="20" stroke-linecap="butt" stroke-miterlimit="10" stroke-linejoin="miter" fill="none" stroke="#000000" d="M3875 6713.6 4175 7233.2 3875 7752.8H3275L2975 7233.2 3275 6713.6Z"/>
<path transform="matrix(.1,0,0,-.1,0,792)" d="M2675 6713.6 2975 7233.2 2675 7752.8H2075L1775 7233.2 2075 6713.6" fill="#54d9c7"/>
<path transform="matrix(.1,0,0,-.1,0,792)" stroke-width="20" stroke-linecap="butt" stroke-miterlimit="10" stroke-linejoin="miter" fill="none" stroke="#000000" d="M2675 6713.6 2975 7233.2 2675 7752.8H2075L1775 7233.2 2075 6713.6Z"/>
<path transform="matrix(.1,0,0,-.1,0,792)" d="M2075 1517.4 1775 997.801 2075 478.199H2675L2975 997.801 2675 1517.4" fill="#54d9c7"/>
<path transform="matrix(.1,0,0,-.1,0,792)" stroke-width="20" stroke-linecap="butt" stroke-miterlimit="10" stroke-linejoin="miter" fill="none" stroke="#000000" d="M2075 1517.4 1775 997.801 2075 478.199H2675L2975 997.801 2675 1517.4Z"/>
<path transform="matrix(.1,0,0,-.1,0,792)" d="M3275 1517.4 2975 997.801 3275 478.199H3875L4175 997.801 3875 1517.4" fill="#54d9c7"/>
<path transform="matrix(.1,0,0,-.1,0,792)" stroke-width="20" stroke-linecap="butt" stroke-miterlimit="10" stroke-linejoin="miter" fill="none" stroke="#000000" d="M3275 1517.4 2975 997.801 3275 478.199H3875L4175 997.801 3875 1517.4Z"/>
<path transform="matrix(.1,0,0,-.1,0,792)" d="M2975 7233.2V8272.4L2075 8792.1 2375 8272.4 2075 7752.8H2675" fill="#b5edb2"/>
<path transform="matrix(.1,0,0,-.1,0,792)" stroke-width="20" stroke-linecap="butt" stroke-miterlimit="10" stroke-linejoin="miter" fill="none" stroke="#000000" d="M2975 7233.2V8272.4L2075 8792.1 2375 8272.4 2075 7752.8H2675Z"/>
<path transform="matrix(.1,0,0,-.1,0,792)" d="M2975 7233.2 3275 7752.8H3875L3575 8272.4 3875 8792.1 2975 8272.4" fill="#b5edb2"/>
<path transform="matrix(.1,0,0,-.1,0,792)" stroke-width="20" stroke-linecap="butt" stroke-miterlimit="10" stroke-linejoin="miter" fill="none" stroke="#000000" d="M2975 7233.2 3275 7752.8H3875L3575 8272.4 3875 8792.1 2975 8272.4Z"/>
<path transform="matrix(.1,0,0,-.1,0,792)" d="M2975 997.801V-41.3984L3875-561 3575-41.3984 3875 478.199H3275" fill="#b5edb2"/>
<path transform="matrix(.1,0,0,-.1,0,792)" stroke-width="20" stroke-linecap="butt" stroke-miterlimit="10" stroke-linejoin="miter" fill="none" stroke="#000000" d="M2975 997.801V-41.3984L3875-561 3575-41.3984 3875 478.199H3275Z"/>
<path transform="matrix(.1,0,0,-.1,0,792)" d="M2975 997.801 2675 478.199H2075L2375-41.3984 2075-561 2975-41.3984" fill="#b5edb2"/>
<path transform="matrix(.1,0,0,-.1,0,792)" stroke-width="20" stroke-linecap="butt" stroke-miterlimit="10" stroke-linejoin="miter" fill="none" stroke="#000000" d="M2975 997.801 2675 478.199H2075L2375-41.3984 2075-561 2975-41.3984Z"/>
<path transform="matrix(.1,0,0,-.1,0,792)" d="M5375 997.801 5675 478.199H6275L6575 997.801 6275 1517.4H5675" fill="#54d9c7"/>
<path transform="matrix(.1,0,0,-.1,0,792)" stroke-width="20" stroke-linecap="butt" stroke-miterlimit="10" stroke-linejoin="miter" fill="none" stroke="#000000" d="M5375 997.801 5675 478.199H6275L6575 997.801 6275 1517.4H5675Z"/>
<path transform="matrix(.1,0,0,-.1,0,792)" d="M5375 3076.3 5675 2556.7H6275L6575 3076.3 6275 3595.9H5675" fill="#54d9c7"/>
<path transform="matrix(.1,0,0,-.1,0,792)" stroke-width="20" stroke-linecap="butt" stroke-miterlimit="10" stroke-linejoin="miter" fill="none" stroke="#000000" d="M5375 3076.3 5675 2556.7H6275L6575 3076.3 6275 3595.9H5675Z"/>
<path transform="matrix(.1,0,0,-.1,0,792)" d="M5375 5154.8 5675 4635.1H6275L6575 5154.8 6275 5674.4H5675" fill="#54d9c7"/>
<path transform="matrix(.1,0,0,-.1,0,792)" stroke-width="20" stroke-linecap="butt" stroke-miterlimit="10" stroke-linejoin="miter" fill="none" stroke="#000000" d="M5375 5154.8 5675 4635.1H6275L6575 5154.8 6275 5674.4H5675Z"/>
<path transform="matrix(.1,0,0,-.1,0,792)" d="M5375 7233.2 5675 6713.6H6275L6575 7233.2 6275 7752.8H5675" fill="#54d9c7"/>
<path transform="matrix(.1,0,0,-.1,0,792)" stroke-width="20" stroke-linecap="butt" stroke-miterlimit="10" stroke-linejoin="miter" fill="none" stroke="#000000" d="M5375 7233.2 5675 6713.6H6275L6575 7233.2 6275 7752.8H5675Z"/>
<path transform="matrix(.1,0,0,-.1,0,792)" d="M575 7233.2 275 7752.8H-325L-625 7233.2-325 6713.6H275" fill="#54d9c7"/>
<path transform="matrix(.1,0,0,-.1,0,792)" stroke-width="20" stroke-linecap="butt" stroke-miterlimit="10" stroke-linejoin="miter" fill="none" stroke="#000000" d="M575 7233.2 275 7752.8H-325L-625 7233.2-325 6713.6H275Z"/>
<path transform="matrix(.1,0,0,-.1,0,792)" d="M575 5154.8 275 5674.4H-325L-625 5154.8-325 4635.1H275" fill="#54d9c7"/>
<path transform="matrix(.1,0,0,-.1,0,792)" stroke-width="20" stroke-linecap="butt" stroke-miterlimit="10" stroke-linejoin="miter" fill="none" stroke="#000000" d="M575 5154.8 275 5674.4H-325L-625 5154.8-325 4635.1H275Z"/>
<path transform="matrix(.1,0,0,-.1,0,792)" d="M575 3076.3 275 3595.9H-325L-625 3076.3-325 2556.7H275" fill="#54d9c7"/>
<path transform="matrix(.1,0,0,-.1,0,792)" stroke-width="20" stroke-linecap="butt" stroke-miterlimit="10" stroke-linejoin="miter" fill="none" stroke="#000000" d="M575 3076.3 275 3595.9H-325L-625 3076.3-325 2556.7H275Z"/>
<path transform="matrix(.1,0,0,-.1,0,792)" d="M575 997.801 275 1517.4H-325L-625 997.801-325 478.199H275" fill="#54d9c7"/>
<path transform="matrix(.1,0,0,-.1,0,792)" stroke-width="20" stroke-linecap="butt" stroke-miterlimit="10" stroke-linejoin="miter" fill="none" stroke="#000000" d="M575 997.801 275 1517.4H-325L-625 997.801-325 478.199H275Z"/>
<path transform="matrix(.1,0,0,-.1,0,792)" d="M5075 7752.8H5675L5975 8272.4 5675 8792.1H5075L4775 8272.4" fill="#54d9c7"/>
<path transform="matrix(.1,0,0,-.1,0,792)" stroke-width="20" stroke-linecap="butt" stroke-miterlimit="10" stroke-linejoin="miter" fill="none" stroke="#000000" d="M5075 7752.8H5675L5975 8272.4 5675 8792.1H5075L4775 8272.4Z"/>
<path transform="matrix(.1,0,0,-.1,0,792)" d="M4475 7752.8 4775 8272.4 4475 8792.1H3875L3575 8272.4 3875 7752.8" fill="#54d9c7"/>
<path transform="matrix(.1,0,0,-.1,0,792)" stroke-width="20" stroke-linecap="butt" stroke-miterlimit="10" stroke-linejoin="miter" fill="none" stroke="#000000" d="M4475 7752.8 4775 8272.4 4475 8792.1H3875L3575 8272.4 3875 7752.8Z"/>
<path transform="matrix(.1,0,0,-.1,0,792)" d="M2075 7752.8 2375 8272.4 2075 8792.1H1475L1175 8272.4 1475 7752.8" fill="#54d9c7"/>
<path transform="matrix(.1,0,0,-.1,0,792)" stroke-width="20" stroke-linecap="butt" stroke-miterlimit="10" stroke-linejoin="miter" fill="none" stroke="#000000" d="M2075 7752.8 2375 8272.4 2075 8792.1H1475L1175 8272.4 1475 7752.8Z"/>
<path transform="matrix(.1,0,0,-.1,0,792)" d="M875 7752.8 1175 8272.4 875 8792.1H275L-25 8272.4 275 7752.8" fill="#54d9c7"/>
<path transform="matrix(.1,0,0,-.1,0,792)" stroke-width="20" stroke-linecap="butt" stroke-miterlimit="10" stroke-linejoin="miter" fill="none" stroke="#000000" d="M875 7752.8 1175 8272.4 875 8792.1H275L-25 8272.4 275 7752.8Z"/>
<path transform="matrix(.1,0,0,-.1,0,792)" d="M275 7752.8-25 8272.4 275 8792.1-625 8272.4V7233.2L-325 7752.8" fill="#b5edb2"/>
<path transform="matrix(.1,0,0,-.1,0,792)" stroke-width="20" stroke-linecap="butt" stroke-miterlimit="10" stroke-linejoin="miter" fill="none" stroke="#000000" d="M275 7752.8-25 8272.4 275 8792.1-625 8272.4V7233.2L-325 7752.8Z"/>
<path transform="matrix(.1,0,0,-.1,0,792)" d="M275 6713.6H-325L-625 7233.2V6194L275 5674.4-25 6194" fill="#b5edb2"/>
<path transform="matrix(.1,0,0,-.1,0,792)" stroke-width="20" stroke-linecap="butt" stroke-miterlimit="10" stroke-linejoin="miter" fill="none" stroke="#000000" d="M275 6713.6H-325L-625 7233.2V6194L275 5674.4-25 6194Z"/>
<path transform="matrix(.1,0,0,-.1,0,792)" d="M275 5674.4-625 6194-1525 5674.4H-925L-625 5154.8-325 5674.4" fill="#b5edb2"/>
<path transform="matrix(.1,0,0,-.1,0,792)" stroke-width="20" stroke-linecap="butt" stroke-miterlimit="10" stroke-linejoin="miter" fill="none" stroke="#000000" d="M275 5674.4-625 6194-1525 5674.4H-925L-625 5154.8-325 5674.4Z"/>
<path transform="matrix(.1,0,0,-.1,0,792)" d="M275 4635.1H-325L-625 5154.8-925 4635.1H-1525L-1225 4115.5-1525 3595.9H-925L-625 3076.3-325 3595.9H275L-25 4115.5" fill="#96c742"/>
<path transform="matrix(.1,0,0,-.1,0,792)" stroke-width="20" stroke-linecap="butt" stroke-miterlimit="10" stroke-linejoin="miter" fill="none" stroke="#000000" d="M275 4635.1H-325L-625 5154.8-925 4635.1H-1525L-1225 4115.5-1525 3595.9H-925L-625 3076.3-325 3595.9H275L-25 4115.5Z"/>
<path transform="matrix(.1,0,0,-.1,0,792)" d="M275 2556.7-625 2037.1V997.801L-325 1517.4H275L-25 2037.1" fill="#b5edb2"/>
<path transform="matrix(.1,0,0,-.1,0,792)" stroke-width="20" stroke-linecap="butt" stroke-miterlimit="10" stroke-linejoin="miter" fill="none" stroke="#000000" d="M275 2556.7-625 2037.1V997.801L-325 1517.4H275L-25 2037.1Z"/>
<path transform="matrix(.1,0,0,-.1,0,792)" d="M275 2556.7H-325L-625 3076.3-925 2556.7H-1525L-625 2037.1" fill="#b5edb2"/>
<path transform="matrix(.1,0,0,-.1,0,792)" stroke-width="20" stroke-linecap="butt" stroke-miterlimit="10" stroke-linejoin="miter" fill="none" stroke="#000000" d="M275 2556.7H-325L-625 3076.3-925 2556.7H-1525L-625 2037.1Z"/>
<path transform="matrix(.1,0,0,-.1,0,792)" d="M5675 1517.4H6275L6575 997.801V2037.1L5675 2556.7 5975 2037.1" fill="#b5edb2"/>
<path transform="matrix(.1,0,0,-.1,0,792)" stroke-width="20" stroke-linecap="butt" stroke-miterlimit="10" stroke-linejoin="miter" fill="none" stroke="#000000" d="M5675 1517.4H6275L6575 997.801V2037.1L5675 2556.7 5975 2037.1Z"/>
<path transform="matrix(.1,0,0,-.1,0,792)" d="M5675 2556.7 6575 2037.1 7475 2556.7H6875L6575 3076.3 6275 2556.7" fill="#b5edb2"/>
<path transform="matrix(.1,0,0,-.1,0,792)" stroke-width="20" stroke-linecap="butt" stroke-miterlimit="10" stroke-linejoin="miter" fill="none" stroke="#000000" d="M5675 2556.7 6575 2037.1 7475 2556.7H6875L6575 3076.3 6275 2556.7Z"/>
<path transform="matrix(.1,0,0,-.1,0,792)" d="M5675 3595.9H6275L6575 3076.3 6875 3595.9H7475L7175 4115.5 7475 4635.1H6875L6575 5154.8 6275 4635.1H5675L5975 4115.5" fill="#96c742"/>
<path transform="matrix(.1,0,0,-.1,0,792)" stroke-width="20" stroke-linecap="butt" stroke-miterlimit="10" stroke-linejoin="miter" fill="none" stroke="#000000" d="M5675 3595.9H6275L6575 3076.3 6875 3595.9H7475L7175 4115.5 7475 4635.1H6875L6575 5154.8 6275 4635.1H5675L5975 4115.5Z"/>
<path transform="matrix(.1,0,0,-.1,0,792)" d="M5675 5674.4 6575 6194V7233.2L6275 6713.6H5675L5975 6194" fill="#b5edb2"/>
<path transform="matrix(.1,0,0,-.1,0,792)" stroke-width="20" stroke-linecap="butt" stroke-miterlimit="10" stroke-linejoin="miter" fill="none" stroke="#000000" d="M5675 5674.4 6575 6194V7233.2L6275 6713.6H5675L5975 6194Z"/>
<path transform="matrix(.1,0,0,-.1,0,792)" d="M5675 5674.4H6275L6575 5154.8 6875 5674.4H7475L6575 6194" fill="#b5edb2"/>
<path transform="matrix(.1,0,0,-.1,0,792)" stroke-width="20" stroke-linecap="butt" stroke-miterlimit="10" stroke-linejoin="miter" fill="none" stroke="#000000" d="M5675 5674.4H6275L6575 5154.8 6875 5674.4H7475L6575 6194Z"/>
<path transform="matrix(.1,0,0,-.1,0,792)" d="M5675 7752.8H6275L6575 7233.2V8272.4L5675 8792.1 5975 8272.4" fill="#b5edb2"/>
<path transform="matrix(.1,0,0,-.1,0,792)" stroke-width="20" stroke-linecap="butt" stroke-miterlimit="10" stroke-linejoin="miter" fill="none" stroke="#000000" d="M5675 7752.8H6275L6575 7233.2V8272.4L5675 8792.1 5975 8272.4Z"/>
<path transform="matrix(.1,0,0,-.1,0,792)" d="M275 478.199-25-41.3984 275-561H875L1175-41.3984 875 478.199" fill="#54d9c7"/>
<path transform="matrix(.1,0,0,-.1,0,792)" stroke-width="20" stroke-linecap="butt" stroke-miterlimit="10" stroke-linejoin="miter" fill="none" stroke="#000000" d="M275 478.199-25-41.3984 275-561H875L1175-41.3984 875 478.199Z"/>
<path transform="matrix(.1,0,0,-.1,0,792)" d="M275 478.199H-325L-625 997.801V-41.3984L275-561-25-41.3984" fill="#b5edb2"/>
<path transform="matrix(.1,0,0,-.1,0,792)" stroke-width="20" stroke-linecap="butt" stroke-miterlimit="10" stroke-linejoin="miter" fill="none" stroke="#000000" d="M275 478.199H-325L-625 997.801V-41.3984L275-561-25-41.3984Z"/>
<path transform="matrix(.1,0,0,-.1,0,792)" d="M1475 478.199 1175-41.3984 1475-561H2075L2375-41.3984 2075 478.199" fill="#54d9c7"/>
<path transform="matrix(.1,0,0,-.1,0,792)" stroke-width="20" stroke-linecap="butt" stroke-miterlimit="10" stroke-linejoin="miter" fill="none" stroke="#000000" d="M1475 478.199 1175-41.3984 1475-561H2075L2375-41.3984 2075 478.199Z"/>
<path transform="matrix(.1,0,0,-.1,0,792)" d="M3875 478.199 3575-41.3984 3875-561H4475L4775-41.3984 4475 478.199" fill="#54d9c7"/>
<path transform="matrix(.1,0,0,-.1,0,792)" stroke-width="20" stroke-linecap="butt" stroke-miterlimit="10" stroke-linejoin="miter" fill="none" stroke="#000000" d="M3875 478.199 3575-41.3984 3875-561H4475L4775-41.3984 4475 478.199Z"/>
<path transform="matrix(.1,0,0,-.1,0,792)" d="M5075 478.199 4775-41.3984 5075-561H5675L5975-41.3984 5675 478.199" fill="#54d9c7"/>
<path transform="matrix(.1,0,0,-.1,0,792)" stroke-width="20" stroke-linecap="butt" stroke-miterlimit="10" stroke-linejoin="miter" fill="none" stroke="#000000" d="M5075 478.199 4775-41.3984 5075-561H5675L5975-41.3984 5675 478.199Z"/>
<path transform="matrix(.1,0,0,-.1,0,792)" d="M5675 478.199 5975-41.3984 5675-561 6575-41.3984V997.801L6275 478.199" fill="#b5edb2"/>
<path transform="matrix(.1,0,0,-.1,0,792)" stroke-width="20" stroke-linecap="butt" stroke-miterlimit="10" stroke-linejoin="miter" fill="none" stroke="#000000" d="M5675 478.199 5975-41.3984 5675-561 6575-41.3984V997.801L6275 478.199Z"/>
</svg>
