<svg xmlns="http://www.w3.org/2000/svg" xmlns:xlink="http://www.w3.org/1999/xlink" xmlns:inkscape="http://www.inkscape.org/namespaces/inkscape" version="1.1" width="612" height="792" viewBox="0 0 612 792">
<path transform="matrix(.1,0,0,-.1,0,792)" d="M2975 3554.2 2946.1 3504.2 2975 3554.2 3146.1 3850.6H3488.4L3517.3 3800.6 3488.4 3850.6 3317.3 4147 3488.4 4443.4H3546.1 3488.4 3146.1L2975 4739.8 3003.9 4789.8 2975 4739.8 2803.9 4443.4H2461.6L2432.7 4493.4 2461.6 4443.4 2632.7 4147 2461.6 3850.6H2403.9 2461.6 2803.9" fill="#bf40bf"/>
<path transform="matrix(.1,0,0,-.1,0,792)" stroke-width="10" stroke-linecap="butt" stroke-miterlimit="10" stroke-linejoin="miter" fill="none" stroke="#000000" d="M2975 3554.2 2946.1 3504.2 2975 3554.2 3146.1 3850.6H3488.4L3517.3 3800.6 3488.4 3850.6 3317.3 4147 3488.4 4443.4H3546.1 3488.4 3146.1L2975 4739.8 3003.9 4789.8 2975 4739.8 2803.9 4443.4H2461.6L2432.7 4493.4 2461.6 4443.4 2632.7 4147 2461.6 3850.6H2403.9 2461.6 2803.9Z"/>
<path transform="matrix(.1,0,0,-.1,0,792)" d="M3203.9 4543.4H3603.9 3546.1L3717.3 4839.8 3546.1 5136.2 3517.3 5186.2 3546.1 5136.2H3203.9L3032.7 4839.8 3003.9 4789.8 3032.7 4839.8" fill="#804080"/>
<path transform="matrix(.1,0,0,-.1,0,792)" stroke-width="10" stroke-linecap="butt" stroke-miterlimit="10" stroke-linejoin="miter" fill="none" stroke="#000000" d="M3203.9 4543.4H3603.9 3546.1L3717.3 4839.8 3546.1 5136.2 3517.3 5186.2 3546.1 5136.2H3203.9L3032.7 4839.8 3003.9 4789.8 3032.7 4839.8Z"/>
<path transform="matrix(.1,0,0,-.1,0,792)" d="M2746.1 4543.4 2917.3 4839.8 2946.1 4889.8 2917.3 4839.8 2746.1 5136.2H2403.9 2346.1 2403.9L2232.7 4839.8 2403.9 4543.4 2432.7 4493.4 2403.9 4543.4" fill="#804080"/>
<path transform="matrix(.1,0,0,-.1,0,792)" stroke-width="10" stroke-linecap="butt" stroke-miterlimit="10" stroke-linejoin="miter" fill="none" stroke="#000000" d="M2746.1 4543.4 2917.3 4839.8 2946.1 4889.8 2917.3 4839.8 2746.1 5136.2H2403.9 2346.1 2403.9L2232.7 4839.8 2403.9 4543.4 2432.7 4493.4 2403.9 4543.4Z"/>
<path transform="matrix(.1,0,0,-.1,0,792)" d="M2746.1 3750.6H2346.1 2403.9L2232.7 3454.2 2403.9 3157.8 2432.7 3107.8 2403.9 3157.8H2746.1L2917.3 3454.2 2946.1 3504.2 2917.3 3454.2" fill="#804080"/>
<path transform="matrix(.1,0,0,-.1,0,792)" stroke-width="10" stroke-linecap="butt" stroke-miterlimit="10" stroke-linejoin="miter" fill="none" stroke="#000000" d="M2746.1 3750.6H2346.1 2403.9L2232.7 3454.2 2403.9 3157.8 2432.7 3107.8 2403.9 3157.8H2746.1L2917.3 3454.2 2946.1 3504.2 2917.3 3454.2Z"/>
<path transform="matrix(.1,0,0,-.1,0,792)" d="M3203.9 3750.6 3032.7 3454.2 3003.9 3404.2 3032.7 3454.2 3203.9 3157.8H3546.1 3603.9 3546.1L3717.3 3454.2 3546.1 3750.6 3517.3 3800.6 3546.1 3750.6" fill="#804080"/>
<path transform="matrix(.1,0,0,-.1,0,792)" stroke-width="10" stroke-linecap="butt" stroke-miterlimit="10" stroke-linejoin="miter" fill="none" stroke="#000000" d="M3203.9 3750.6 3032.7 3454.2 3003.9 3404.2 3032.7 3454.2 3203.9 3157.8H3546.1 3603.9 3546.1L3717.3 3454.2 3546.1 3750.6 3517.3 3800.6 3546.1 3750.6Z"/>
<path transform="matrix(.1,0,0,-.1,0,792)" d="M3432.7 4147 3603.9 3850.6 3632.7 3800.6 3603.9 3850.6H3946.1L4117.3 4147 4146.1 4197 4117.3 4147 3946.1 4443.4H3603.9 3546.1 3603.9" fill="#804080"/>
<path transform="matrix(.1,0,0,-.1,0,792)" stroke-width="10" stroke-linecap="butt" stroke-miterlimit="10" stroke-linejoin="miter" fill="none" stroke="#000000" d="M3432.7 4147 3603.9 3850.6 3632.7 3800.6 3603.9 3850.6H3946.1L4117.3 4147 4146.1 4197 4117.3 4147 3946.1 4443.4H3603.9 3546.1 3603.9Z"/>
<path transform="matrix(.1,0,0,-.1,0,792)" d="M2517.3 4147 2346.1 4443.4 2317.3 4493.4 2346.1 4443.4H2003.9L1832.7 4147 1803.9 4097 1832.7 4147 2003.9 3850.6H2346.1 2403.9 2346.1" fill="#804080"/>
<path transform="matrix(.1,0,0,-.1,0,792)" stroke-width="10" stroke-linecap="butt" stroke-miterlimit="10" stroke-linejoin="miter" fill="none" stroke="#000000" d="M2517.3 4147 2346.1 4443.4 2317.3 4493.4 2346.1 4443.4H2003.9L1832.7 4147 1803.9 4097 1832.7 4147 2003.9 3850.6H2346.1 2403.9 2346.1Z"/>
<path transform="matrix(.1,0,0,-.1,0,792)" d="M2975 4939.8 2946.1 4889.8 2975 4939.8 3146.1 5236.2H3488.4L3517.3 5186.2 3488.4 5236.2 3317.3 5532.7 3488.4 5829.1H3546.1 3488.4 2461.6L2432.7 5879.1 2461.6 5829.1 2632.7 5532.7 2461.6 5236.2H2403.9 2461.6 2803.9" fill="#bf00ff"/>
<path transform="matrix(.1,0,0,-.1,0,792)" stroke-width="10" stroke-linecap="butt" stroke-miterlimit="10" stroke-linejoin="miter" fill="none" stroke="#000000" d="M2975 4939.8 2946.1 4889.8 2975 4939.8 3146.1 5236.2H3488.4L3517.3 5186.2 3488.4 5236.2 3317.3 5532.7 3488.4 5829.1H3546.1 3488.4 2461.6L2432.7 5879.1 2461.6 5829.1 2632.7 5532.7 2461.6 5236.2H2403.9 2461.6 2803.9Z"/>
<path transform="matrix(.1,0,0,-.1,0,792)" d="M2975 3354.2 3003.9 3404.2 2975 3354.2 2803.9 3057.8H2461.6L2432.7 3107.8 2461.6 3057.8 2632.7 2761.4 2461.6 2465H2403.9 2461.6 3488.4L3517.3 2415 3488.4 2465 3317.3 2761.4 3488.4 3057.8H3546.1 3488.4 3146.1" fill="#bf00ff"/>
<path transform="matrix(.1,0,0,-.1,0,792)" stroke-width="10" stroke-linecap="butt" stroke-miterlimit="10" stroke-linejoin="miter" fill="none" stroke="#000000" d="M2975 3354.2 3003.9 3404.2 2975 3354.2 2803.9 3057.8H2461.6L2432.7 3107.8 2461.6 3057.8 2632.7 2761.4 2461.6 2465H2403.9 2461.6 3488.4L3517.3 2415 3488.4 2465 3317.3 2761.4 3488.4 3057.8H3546.1 3488.4 3146.1Z"/>
<path transform="matrix(.1,0,0,-.1,0,792)" d="M3661.6 3750.6 3632.7 3800.6 3661.6 3750.6 3832.7 3454.2 3661.6 3157.8H3603.9 3661.6 4003.9L4175 2861.4 4146.1 2811.4 4175 2861.4 4688.4 3750.6H4746.1 4688.4 4346.1L4175 4047 4203.9 4097 4175 4047 4003.9 3750.6" fill="#bf00ff"/>
<path transform="matrix(.1,0,0,-.1,0,792)" stroke-width="10" stroke-linecap="butt" stroke-miterlimit="10" stroke-linejoin="miter" fill="none" stroke="#000000" d="M3661.6 3750.6 3632.7 3800.6 3661.6 3750.6 3832.7 3454.2 3661.6 3157.8H3603.9 3661.6 4003.9L4175 2861.4 4146.1 2811.4 4175 2861.4 4688.4 3750.6H4746.1 4688.4 4346.1L4175 4047 4203.9 4097 4175 4047 4003.9 3750.6Z"/>
<path transform="matrix(.1,0,0,-.1,0,792)" d="M3661.6 4543.4H3603.9 4003.9L4175 4247 4146.1 4197 4175 4247 4346.1 4543.4H4688.4L4717.3 4493.4 4688.4 4543.4 4175 5432.7 4203.9 5482.7 4175 5432.7 4003.9 5136.2H3661.6L3632.7 5186.2 3661.6 5136.2 3832.7 4839.8" fill="#bf00ff"/>
<path transform="matrix(.1,0,0,-.1,0,792)" stroke-width="10" stroke-linecap="butt" stroke-miterlimit="10" stroke-linejoin="miter" fill="none" stroke="#000000" d="M3661.6 4543.4H3603.9 4003.9L4175 4247 4146.1 4197 4175 4247 4346.1 4543.4H4688.4L4717.3 4493.4 4688.4 4543.4 4175 5432.7 4203.9 5482.7 4175 5432.7 4003.9 5136.2H3661.6L3632.7 5186.2 3661.6 5136.2 3832.7 4839.8Z"/>
<path transform="matrix(.1,0,0,-.1,0,792)" d="M2288.4 4543.4 2317.3 4493.4 2288.4 4543.4 2117.3 4839.8 2288.4 5136.2H2346.1 2288.4 1946.1L1775 5432.7 1803.9 5482.7 1775 5432.7 1261.6 4543.4H1203.9 1261.6 1603.9L1775 4247 1746.1 4197 1775 4247 1946.1 4543.4" fill="#bf00ff"/>
<path transform="matrix(.1,0,0,-.1,0,792)" stroke-width="10" stroke-linecap="butt" stroke-miterlimit="10" stroke-linejoin="miter" fill="none" stroke="#000000" d="M2288.4 4543.4 2317.3 4493.4 2288.4 4543.4 2117.3 4839.8 2288.4 5136.2H2346.1 2288.4 1946.1L1775 5432.7 1803.9 5482.7 1775 5432.7 1261.6 4543.4H1203.9 1261.6 1603.9L1775 4247 1746.1 4197 1775 4247 1946.1 4543.4Z"/>
<path transform="matrix(.1,0,0,-.1,0,792)" d="M2288.4 3750.6H2346.1 1946.1L1775 4047 1803.9 4097 1775 4047 1603.9 3750.6H1261.6L1232.7 3800.6 1261.6 3750.6 1775 2861.4 1746.1 2811.4 1775 2861.4 1946.1 3157.8H2288.4L2317.3 3107.8 2288.4 3157.8 2117.3 3454.2" fill="#bf00ff"/>
<path transform="matrix(.1,0,0,-.1,0,792)" stroke-width="10" stroke-linecap="butt" stroke-miterlimit="10" stroke-linejoin="miter" fill="none" stroke="#000000" d="M2288.4 3750.6H2346.1 1946.1L1775 4047 1803.9 4097 1775 4047 1603.9 3750.6H1261.6L1232.7 3800.6 1261.6 3750.6 1775 2861.4 1746.1 2811.4 1775 2861.4 1946.1 3157.8H2288.4L2317.3 3107.8 2288.4 3157.8 2117.3 3454.2Z"/>
<path transform="matrix(.1,0,0,-.1,0,792)" d="M3603.9 5236.2 3632.7 5186.2 3603.9 5236.2H3946.1L4117.3 5532.7 4146.1 5582.7 4117.3 5532.7 3946.1 5829.1H3603.9 3546.1 3603.9L3432.7 5532.7" fill="#d47db5"/>
<path transform="matrix(.1,0,0,-.1,0,792)" stroke-width="10" stroke-linecap="butt" stroke-miterlimit="10" stroke-linejoin="miter" fill="none" stroke="#000000" d="M3603.9 5236.2 3632.7 5186.2 3603.9 5236.2H3946.1L4117.3 5532.7 4146.1 5582.7 4117.3 5532.7 3946.1 5829.1H3603.9 3546.1 3603.9L3432.7 5532.7Z"/>
<path transform="matrix(.1,0,0,-.1,0,792)" d="M2346.1 5236.2H2403.9 2346.1L2517.3 5532.7 2346.1 5829.1 2317.3 5879.1 2346.1 5829.1H2003.9L1832.7 5532.7 1803.9 5482.7 1832.7 5532.7 2003.9 5236.2" fill="#d47db5"/>
<path transform="matrix(.1,0,0,-.1,0,792)" stroke-width="10" stroke-linecap="butt" stroke-miterlimit="10" stroke-linejoin="miter" fill="none" stroke="#000000" d="M2346.1 5236.2H2403.9 2346.1L2517.3 5532.7 2346.1 5829.1 2317.3 5879.1 2346.1 5829.1H2003.9L1832.7 5532.7 1803.9 5482.7 1832.7 5532.7 2003.9 5236.2Z"/>
<path transform="matrix(.1,0,0,-.1,0,792)" d="M2346.1 3057.8 2317.3 3107.8 2346.1 3057.8H2003.9L1832.7 2761.4 1803.9 2711.4 1832.7 2761.4 2003.9 2465H2346.1 2403.9 2346.1L2517.3 2761.4" fill="#d47db5"/>
<path transform="matrix(.1,0,0,-.1,0,792)" stroke-width="10" stroke-linecap="butt" stroke-miterlimit="10" stroke-linejoin="miter" fill="none" stroke="#000000" d="M2346.1 3057.8 2317.3 3107.8 2346.1 3057.8H2003.9L1832.7 2761.4 1803.9 2711.4 1832.7 2761.4 2003.9 2465H2346.1 2403.9 2346.1L2517.3 2761.4Z"/>
<path transform="matrix(.1,0,0,-.1,0,792)" d="M3603.9 3057.8H3546.1 3603.9L3432.7 2761.4 3603.9 2465 3632.7 2415 3603.9 2465H3946.1L4117.3 2761.4 4146.1 2811.4 4117.3 2761.4 3946.1 3057.8" fill="#d47db5"/>
<path transform="matrix(.1,0,0,-.1,0,792)" stroke-width="10" stroke-linecap="butt" stroke-miterlimit="10" stroke-linejoin="miter" fill="none" stroke="#000000" d="M3603.9 3057.8H3546.1 3603.9L3432.7 2761.4 3603.9 2465 3632.7 2415 3603.9 2465H3946.1L4117.3 2761.4 4146.1 2811.4 4117.3 2761.4 3946.1 3057.8Z"/>
<path transform="matrix(.1,0,0,-.1,0,792)" d="M4232.7 2761.4 4203.9 2711.4 4232.7 2761.4 4403.9 2465H4746.1 4803.9 4746.1L5317.3 3454.2 5346.1 3504.2 5317.3 3454.2 5146.1 3750.6H4803.9 4746.1 4803.9" fill="#b0eb1a"/>
<path transform="matrix(.1,0,0,-.1,0,792)" stroke-width="10" stroke-linecap="butt" stroke-miterlimit="10" stroke-linejoin="miter" fill="none" stroke="#000000" d="M4232.7 2761.4 4203.9 2711.4 4232.7 2761.4 4403.9 2465H4746.1 4803.9 4746.1L5317.3 3454.2 5346.1 3504.2 5317.3 3454.2 5146.1 3750.6H4803.9 4746.1 4803.9Z"/>
<path transform="matrix(.1,0,0,-.1,0,792)" d="M4175 2661.4 4203.9 2711.4 4175 2661.4 4003.9 2365H3661.6L3632.7 2415 3661.6 2365 3832.7 2068.6 3661.6 1772.1H3603.9 3661.6 4003.9L4175 1475.7 4146.1 1425.7 4175 1475.7 4346.1 1772.1H4688.4L4717.3 1722.1 4688.4 1772.1 4517.3 2068.6 4688.4 2365H4746.1 4688.4 4346.1" fill="#2ee836"/>
<path transform="matrix(.1,0,0,-.1,0,792)" stroke-width="10" stroke-linecap="butt" stroke-miterlimit="10" stroke-linejoin="miter" fill="none" stroke="#000000" d="M4175 2661.4 4203.9 2711.4 4175 2661.4 4003.9 2365H3661.6L3632.7 2415 3661.6 2365 3832.7 2068.6 3661.6 1772.1H3603.9 3661.6 4003.9L4175 1475.7 4146.1 1425.7 4175 1475.7 4346.1 1772.1H4688.4L4717.3 1722.1 4688.4 1772.1 4517.3 2068.6 4688.4 2365H4746.1 4688.4 4346.1Z"/>
<path transform="matrix(.1,0,0,-.1,0,792)" d="M4232.7 4147 4203.9 4097 4232.7 4147 4403.9 3850.6H4746.1 4803.9 4746.1L4917.3 4147 4746.1 4443.4 4717.3 4493.4 4746.1 4443.4H4403.9" fill="#d47db5"/>
<path transform="matrix(.1,0,0,-.1,0,792)" stroke-width="10" stroke-linecap="butt" stroke-miterlimit="10" stroke-linejoin="miter" fill="none" stroke="#000000" d="M4232.7 4147 4203.9 4097 4232.7 4147 4403.9 3850.6H4746.1 4803.9 4746.1L4917.3 4147 4746.1 4443.4 4717.3 4493.4 4746.1 4443.4H4403.9Z"/>
<path transform="matrix(.1,0,0,-.1,0,792)" d="M4175 5632.7 4146.1 5582.7 4175 5632.7 4346.1 5929.1H4688.4L4717.3 5879.1 4688.4 5929.1 4517.3 6225.5 4688.4 6521.9H4746.1 4688.4 4346.1L4175 6818.3 4203.9 6868.3 4175 6818.3 4003.9 6521.9H3661.6L3632.7 6571.9 3661.6 6521.9 3832.7 6225.5 3661.6 5929.1H3603.9 3661.6 4003.9" fill="#2ee836"/>
<path transform="matrix(.1,0,0,-.1,0,792)" stroke-width="10" stroke-linecap="butt" stroke-miterlimit="10" stroke-linejoin="miter" fill="none" stroke="#000000" d="M4175 5632.7 4146.1 5582.7 4175 5632.7 4346.1 5929.1H4688.4L4717.3 5879.1 4688.4 5929.1 4517.3 6225.5 4688.4 6521.9H4746.1 4688.4 4346.1L4175 6818.3 4203.9 6868.3 4175 6818.3 4003.9 6521.9H3661.6L3632.7 6571.9 3661.6 6521.9 3832.7 6225.5 3661.6 5929.1H3603.9 3661.6 4003.9Z"/>
<path transform="matrix(.1,0,0,-.1,0,792)" d="M4232.7 5532.7 4203.9 5482.7 4232.7 5532.7 4803.9 4543.4 4832.7 4493.4 4803.9 4543.4H5146.1L5317.3 4839.8 5346.1 4889.8 5317.3 4839.8 4746.1 5829.1 4717.3 5879.1 4746.1 5829.1H4403.9" fill="#b0eb1a"/>
<path transform="matrix(.1,0,0,-.1,0,792)" stroke-width="10" stroke-linecap="butt" stroke-miterlimit="10" stroke-linejoin="miter" fill="none" stroke="#000000" d="M4232.7 5532.7 4203.9 5482.7 4232.7 5532.7 4803.9 4543.4 4832.7 4493.4 4803.9 4543.4H5146.1L5317.3 4839.8 5346.1 4889.8 5317.3 4839.8 4746.1 5829.1 4717.3 5879.1 4746.1 5829.1H4403.9Z"/>
<path transform="matrix(.1,0,0,-.1,0,792)" d="M1717.3 5532.7 1746.1 5582.7 1717.3 5532.7 1546.1 5829.1H1203.9 1146.1 1203.9L632.699 4839.8 603.898 4789.8 632.699 4839.8 803.898 4543.4H1146.1 1203.9 1146.1" fill="#b0eb1a"/>
<path transform="matrix(.1,0,0,-.1,0,792)" stroke-width="10" stroke-linecap="butt" stroke-miterlimit="10" stroke-linejoin="miter" fill="none" stroke="#000000" d="M1717.3 5532.7 1746.1 5582.7 1717.3 5532.7 1546.1 5829.1H1203.9 1146.1 1203.9L632.699 4839.8 603.898 4789.8 632.699 4839.8 803.898 4543.4H1146.1 1203.9 1146.1Z"/>
<path transform="matrix(.1,0,0,-.1,0,792)" d="M1775 5632.7 1746.1 5582.7 1775 5632.7 1946.1 5929.1H2288.4L2317.3 5879.1 2288.4 5929.1 2117.3 6225.5 2288.4 6521.9H2346.1 2288.4 1946.1L1775 6818.3 1803.9 6868.3 1775 6818.3 1603.9 6521.9H1261.6L1232.7 6571.9 1261.6 6521.9 1432.7 6225.5 1261.6 5929.1H1203.9 1261.6 1603.9" fill="#2ee836"/>
<path transform="matrix(.1,0,0,-.1,0,792)" stroke-width="10" stroke-linecap="butt" stroke-miterlimit="10" stroke-linejoin="miter" fill="none" stroke="#000000" d="M1775 5632.7 1746.1 5582.7 1775 5632.7 1946.1 5929.1H2288.4L2317.3 5879.1 2288.4 5929.1 2117.3 6225.5 2288.4 6521.9H2346.1 2288.4 1946.1L1775 6818.3 1803.9 6868.3 1775 6818.3 1603.9 6521.9H1261.6L1232.7 6571.9 1261.6 6521.9 1432.7 6225.5 1261.6 5929.1H1203.9 1261.6 1603.9Z"/>
<path transform="matrix(.1,0,0,-.1,0,792)" d="M1717.3 4147 1746.1 4197 1717.3 4147 1546.1 4443.4H1203.9 1146.1 1203.9L1032.7 4147 1203.9 3850.6 1232.7 3800.6 1203.9 3850.6H1546.1" fill="#d47db5"/>
<path transform="matrix(.1,0,0,-.1,0,792)" stroke-width="10" stroke-linecap="butt" stroke-miterlimit="10" stroke-linejoin="miter" fill="none" stroke="#000000" d="M1717.3 4147 1746.1 4197 1717.3 4147 1546.1 4443.4H1203.9 1146.1 1203.9L1032.7 4147 1203.9 3850.6 1232.7 3800.6 1203.9 3850.6H1546.1Z"/>
<path transform="matrix(.1,0,0,-.1,0,792)" d="M1775 2661.4 1803.9 2711.4 1775 2661.4 1603.9 2365H1261.6L1232.7 2415 1261.6 2365 1432.7 2068.6 1261.6 1772.1H1203.9 1261.6 1603.9L1775 1475.7 1746.1 1425.7 1775 1475.7 1946.1 1772.1H2288.4L2317.3 1722.1 2288.4 1772.1 2117.3 2068.6 2288.4 2365H2346.1 2288.4 1946.1" fill="#2ee836"/>
<path transform="matrix(.1,0,0,-.1,0,792)" stroke-width="10" stroke-linecap="butt" stroke-miterlimit="10" stroke-linejoin="miter" fill="none" stroke="#000000" d="M1775 2661.4 1803.9 2711.4 1775 2661.4 1603.9 2365H1261.6L1232.7 2415 1261.6 2365 1432.7 2068.6 1261.6 1772.1H1203.9 1261.6 1603.9L1775 1475.7 1746.1 1425.7 1775 1475.7 1946.1 1772.1H2288.4L2317.3 1722.1 2288.4 1772.1 2117.3 2068.6 2288.4 2365H2346.1 2288.4 1946.1Z"/>
<path transform="matrix(.1,0,0,-.1,0,792)" d="M1717.3 2761.4 1746.1 2811.4 1717.3 2761.4 1146.1 3750.6 1117.3 3800.6 1146.1 3750.6H803.898L632.699 3454.2 603.898 3404.2 632.699 3454.2 1203.9 2465 1232.7 2415 1203.9 2465H1546.1" fill="#b0eb1a"/>
<path transform="matrix(.1,0,0,-.1,0,792)" stroke-width="10" stroke-linecap="butt" stroke-miterlimit="10" stroke-linejoin="miter" fill="none" stroke="#000000" d="M1717.3 2761.4 1746.1 2811.4 1717.3 2761.4 1146.1 3750.6 1117.3 3800.6 1146.1 3750.6H803.898L632.699 3454.2 603.898 3404.2 632.699 3454.2 1203.9 2465 1232.7 2415 1203.9 2465H1546.1Z"/>
<path transform="matrix(.1,0,0,-.1,0,792)" d="M3546.1 5929.1H3603.9 3546.1L3717.3 6225.5 3546.1 6521.9 3517.3 6571.9 3546.1 6521.9H2403.9 2346.1 2403.9L2232.7 6225.5 2403.9 5929.1 2432.7 5879.1 2403.9 5929.1" fill="#b0eb1a"/>
<path transform="matrix(.1,0,0,-.1,0,792)" stroke-width="10" stroke-linecap="butt" stroke-miterlimit="10" stroke-linejoin="miter" fill="none" stroke="#000000" d="M3546.1 5929.1H3603.9 3546.1L3717.3 6225.5 3546.1 6521.9 3517.3 6571.9 3546.1 6521.9H2403.9 2346.1 2403.9L2232.7 6225.5 2403.9 5929.1 2432.7 5879.1 2403.9 5929.1Z"/>
<path transform="matrix(.1,0,0,-.1,0,792)" d="M2403.9 2365H2346.1 2403.9L2232.7 2068.6 2403.9 1772.1 2432.7 1722.1 2403.9 1772.1H3546.1 3603.9 3546.1L3717.3 2068.6 3546.1 2365 3517.3 2415 3546.1 2365" fill="#b0eb1a"/>
<path transform="matrix(.1,0,0,-.1,0,792)" stroke-width="10" stroke-linecap="butt" stroke-miterlimit="10" stroke-linejoin="miter" fill="none" stroke="#000000" d="M2403.9 2365H2346.1 2403.9L2232.7 2068.6 2403.9 1772.1 2432.7 1722.1 2403.9 1772.1H3546.1 3603.9 3546.1L3717.3 2068.6 3546.1 2365 3517.3 2415 3546.1 2365Z"/>
<path transform="matrix(.1,0,0,-.1,0,792)" d="M4632.7 2068.6 4803.9 1772.1 4832.7 1722.1 4803.9 1772.1H5146.1L5317.3 2068.6 5346.1 2118.6 5317.3 2068.6 5146.1 2365H4803.9 4746.1 4803.9" fill="#d47db5"/>
<path transform="matrix(.1,0,0,-.1,0,792)" stroke-width="10" stroke-linecap="butt" stroke-miterlimit="10" stroke-linejoin="miter" fill="none" stroke="#000000" d="M4632.7 2068.6 4803.9 1772.1 4832.7 1722.1 4803.9 1772.1H5146.1L5317.3 2068.6 5346.1 2118.6 5317.3 2068.6 5146.1 2365H4803.9 4746.1 4803.9Z"/>
<path transform="matrix(.1,0,0,-.1,0,792)" d="M4632.7 6225.5 4803.9 5929.1 4832.7 5879.1 4803.9 5929.1H5146.1L5317.3 6225.5 5346.1 6275.5 5317.3 6225.5 5146.1 6521.9H4803.9 4746.1 4803.9" fill="#d47db5"/>
<path transform="matrix(.1,0,0,-.1,0,792)" stroke-width="10" stroke-linecap="butt" stroke-miterlimit="10" stroke-linejoin="miter" fill="none" stroke="#000000" d="M4632.7 6225.5 4803.9 5929.1 4832.7 5879.1 4803.9 5929.1H5146.1L5317.3 6225.5 5346.1 6275.5 5317.3 6225.5 5146.1 6521.9H4803.9 4746.1 4803.9Z"/>
<path transform="matrix(.1,0,0,-.1,0,792)" d="M1317.3 6225.5 1146.1 6521.9 1117.3 6571.9 1146.1 6521.9H803.898L632.699 6225.5 603.898 6175.5 632.699 6225.5 803.898 5929.1H1146.1 1203.9 1146.1" fill="#d47db5"/>
<path transform="matrix(.1,0,0,-.1,0,792)" stroke-width="10" stroke-linecap="butt" stroke-miterlimit="10" stroke-linejoin="miter" fill="none" stroke="#000000" d="M1317.3 6225.5 1146.1 6521.9 1117.3 6571.9 1146.1 6521.9H803.898L632.699 6225.5 603.898 6175.5 632.699 6225.5 803.898 5929.1H1146.1 1203.9 1146.1Z"/>
<path transform="matrix(.1,0,0,-.1,0,792)" d="M1317.3 2068.6 1146.1 2365 1117.3 2415 1146.1 2365H803.898L632.699 2068.6 603.898 2018.6 632.699 2068.6 803.898 1772.1H1146.1 1203.9 1146.1" fill="#d47db5"/>
<path transform="matrix(.1,0,0,-.1,0,792)" stroke-width="10" stroke-linecap="butt" stroke-miterlimit="10" stroke-linejoin="miter" fill="none" stroke="#000000" d="M1317.3 2068.6 1146.1 2365 1117.3 2415 1146.1 2365H803.898L632.699 2068.6 603.898 2018.6 632.699 2068.6 803.898 1772.1H1146.1 1203.9 1146.1Z"/>
<path transform="matrix(.1,0,0,-.1,0,792)" d="M4403.9 6621.9H4803.9 4746.1L5317.3 7611.1 5346.1 7661.1 5317.3 7611.1 5146.1 7907.5H4803.9 4746.1 4803.9L4232.7 6918.3 4203.9 6868.3 4232.7 6918.3" fill="#b0eb1a"/>
<path transform="matrix(.1,0,0,-.1,0,792)" stroke-width="10" stroke-linecap="butt" stroke-miterlimit="10" stroke-linejoin="miter" fill="none" stroke="#000000" d="M4403.9 6621.9H4803.9 4746.1L5317.3 7611.1 5346.1 7661.1 5317.3 7611.1 5146.1 7907.5H4803.9 4746.1 4803.9L4232.7 6918.3 4203.9 6868.3 4232.7 6918.3Z"/>
<path transform="matrix(.1,0,0,-.1,0,792)" d="M3946.1 6621.9 4117.3 6918.3 4146.1 6968.3 4117.3 6918.3 3946.1 7214.7H3603.9 3546.1 3603.9L3432.7 6918.3 3603.9 6621.9 3632.7 6571.9 3603.9 6621.9" fill="#d47db5"/>
<path transform="matrix(.1,0,0,-.1,0,792)" stroke-width="10" stroke-linecap="butt" stroke-miterlimit="10" stroke-linejoin="miter" fill="none" stroke="#000000" d="M3946.1 6621.9 4117.3 6918.3 4146.1 6968.3 4117.3 6918.3 3946.1 7214.7H3603.9 3546.1 3603.9L3432.7 6918.3 3603.9 6621.9 3632.7 6571.9 3603.9 6621.9Z"/>
<path transform="matrix(.1,0,0,-.1,0,792)" d="M3488.4 6621.9 3517.3 6571.9 3488.4 6621.9 3317.3 6918.3 3488.4 7214.7H3546.1 3488.4 3146.1L2975 7511.1 3003.9 7561.1 2975 7511.1 2803.9 7214.7H2461.6L2432.7 7264.7 2461.6 7214.7 2632.7 6918.3 2461.6 6621.9H2403.9 2461.6" fill="#bf00ff"/>
<path transform="matrix(.1,0,0,-.1,0,792)" stroke-width="10" stroke-linecap="butt" stroke-miterlimit="10" stroke-linejoin="miter" fill="none" stroke="#000000" d="M3488.4 6621.9 3517.3 6571.9 3488.4 6621.9 3317.3 6918.3 3488.4 7214.7H3546.1 3488.4 3146.1L2975 7511.1 3003.9 7561.1 2975 7511.1 2803.9 7214.7H2461.6L2432.7 7264.7 2461.6 7214.7 2632.7 6918.3 2461.6 6621.9H2403.9 2461.6Z"/>
<path transform="matrix(.1,0,0,-.1,0,792)" d="M2346.1 6621.9H2403.9 2346.1L2517.3 6918.3 2346.1 7214.7 2317.3 7264.7 2346.1 7214.7H2003.9L1832.7 6918.3 1803.9 6868.3 1832.7 6918.3 2003.9 6621.9" fill="#d47db5"/>
<path transform="matrix(.1,0,0,-.1,0,792)" stroke-width="10" stroke-linecap="butt" stroke-miterlimit="10" stroke-linejoin="miter" fill="none" stroke="#000000" d="M2346.1 6621.9H2403.9 2346.1L2517.3 6918.3 2346.1 7214.7 2317.3 7264.7 2346.1 7214.7H2003.9L1832.7 6918.3 1803.9 6868.3 1832.7 6918.3 2003.9 6621.9Z"/>
<path transform="matrix(.1,0,0,-.1,0,792)" d="M1546.1 6621.9 1717.3 6918.3 1746.1 6968.3 1717.3 6918.3 1146.1 7907.5 1117.3 7957.5 1146.1 7907.5H803.898L632.699 7611.1 603.898 7561.1 632.699 7611.1 1203.9 6621.9 1232.7 6571.9 1203.9 6621.9" fill="#b0eb1a"/>
<path transform="matrix(.1,0,0,-.1,0,792)" stroke-width="10" stroke-linecap="butt" stroke-miterlimit="10" stroke-linejoin="miter" fill="none" stroke="#000000" d="M1546.1 6621.9 1717.3 6918.3 1746.1 6968.3 1717.3 6918.3 1146.1 7907.5 1117.3 7957.5 1146.1 7907.5H803.898L632.699 7611.1 603.898 7561.1 632.699 7611.1 1203.9 6621.9 1232.7 6571.9 1203.9 6621.9Z"/>
<path transform="matrix(.1,0,0,-.1,0,792)" d="M1088.4 6621.9 1117.3 6571.9 1088.4 6621.9 575 7511.1 603.898 7561.1 575 7511.1 403.898 7214.7H61.6016L32.6992 7264.7 61.6016 7214.7 232.699 6918.3 61.6016 6621.9H3.89844 61.6016 403.898L575 6325.5 546.102 6275.5 575 6325.5 746.102 6621.9" fill="#bf00ff"/>
<path transform="matrix(.1,0,0,-.1,0,792)" stroke-width="10" stroke-linecap="butt" stroke-miterlimit="10" stroke-linejoin="miter" fill="none" stroke="#000000" d="M1088.4 6621.9 1117.3 6571.9 1088.4 6621.9 575 7511.1 603.898 7561.1 575 7511.1 403.898 7214.7H61.6016L32.6992 7264.7 61.6016 7214.7 232.699 6918.3 61.6016 6621.9H3.89844 61.6016 403.898L575 6325.5 546.102 6275.5 575 6325.5 746.102 6621.9Z"/>
<path transform="matrix(.1,0,0,-.1,0,792)" d="M1088.4 5829.1H1146.1 746.102L575 6125.5 603.898 6175.5 575 6125.5 403.898 5829.1H61.6016L32.6992 5879.1 61.6016 5829.1 232.699 5532.7 61.6016 5236.2H3.89844 61.6016 403.898L575 4939.8 546.102 4889.8 575 4939.8" fill="#bf00ff"/>
<path transform="matrix(.1,0,0,-.1,0,792)" stroke-width="10" stroke-linecap="butt" stroke-miterlimit="10" stroke-linejoin="miter" fill="none" stroke="#000000" d="M1088.4 5829.1H1146.1 746.102L575 6125.5 603.898 6175.5 575 6125.5 403.898 5829.1H61.6016L32.6992 5879.1 61.6016 5829.1 232.699 5532.7 61.6016 5236.2H3.89844 61.6016 403.898L575 4939.8 546.102 4889.8 575 4939.8Z"/>
<path transform="matrix(.1,0,0,-.1,0,792)" d="M1088.4 4443.4H1146.1 746.102L575 4739.8 603.898 4789.8 575 4739.8 403.898 4443.4H61.6016L32.6992 4493.4 61.6016 4443.4 232.699 4147 61.6016 3850.6H3.89844 61.6016 403.898L575 3554.2 546.102 3504.2 575 3554.2 746.102 3850.6H1088.4L1117.3 3800.6 1088.4 3850.6 917.301 4147" fill="#2ee836"/>
<path transform="matrix(.1,0,0,-.1,0,792)" stroke-width="10" stroke-linecap="butt" stroke-miterlimit="10" stroke-linejoin="miter" fill="none" stroke="#000000" d="M1088.4 4443.4H1146.1 746.102L575 4739.8 603.898 4789.8 575 4739.8 403.898 4443.4H61.6016L32.6992 4493.4 61.6016 4443.4 232.699 4147 61.6016 3850.6H3.89844 61.6016 403.898L575 3554.2 546.102 3504.2 575 3554.2 746.102 3850.6H1088.4L1117.3 3800.6 1088.4 3850.6 917.301 4147Z"/>
<path transform="matrix(.1,0,0,-.1,0,792)" d="M1088.4 2465 1117.3 2415 1088.4 2465 575 3354.2 603.898 3404.2 575 3354.2 403.898 3057.8H61.6016L32.6992 3107.8 61.6016 3057.8 232.699 2761.4 61.6016 2465H3.89844 61.6016 403.898L575 2168.6 546.102 2118.6 575 2168.6 746.102 2465" fill="#bf00ff"/>
<path transform="matrix(.1,0,0,-.1,0,792)" stroke-width="10" stroke-linecap="butt" stroke-miterlimit="10" stroke-linejoin="miter" fill="none" stroke="#000000" d="M1088.4 2465 1117.3 2415 1088.4 2465 575 3354.2 603.898 3404.2 575 3354.2 403.898 3057.8H61.6016L32.6992 3107.8 61.6016 3057.8 232.699 2761.4 61.6016 2465H3.89844 61.6016 403.898L575 2168.6 546.102 2118.6 575 2168.6 746.102 2465Z"/>
<path transform="matrix(.1,0,0,-.1,0,792)" d="M4861.6 2465H4803.9 5203.9L5375 2168.6 5346.1 2118.6 5375 2168.6 5546.1 2465H5888.4L5917.3 2415 5888.4 2465 5717.3 2761.4 5888.4 3057.8H5946.1 5888.4 5546.1L5375 3354.2 5403.9 3404.2 5375 3354.2" fill="#bf00ff"/>
<path transform="matrix(.1,0,0,-.1,0,792)" stroke-width="10" stroke-linecap="butt" stroke-miterlimit="10" stroke-linejoin="miter" fill="none" stroke="#000000" d="M4861.6 2465H4803.9 5203.9L5375 2168.6 5346.1 2118.6 5375 2168.6 5546.1 2465H5888.4L5917.3 2415 5888.4 2465 5717.3 2761.4 5888.4 3057.8H5946.1 5888.4 5546.1L5375 3354.2 5403.9 3404.2 5375 3354.2Z"/>
<path transform="matrix(.1,0,0,-.1,0,792)" d="M4861.6 3850.6H4803.9 5203.9L5375 3554.2 5346.1 3504.2 5375 3554.2 5546.1 3850.6H5888.4L5917.3 3800.6 5888.4 3850.6 5717.3 4147 5888.4 4443.4H5946.1 5888.4 5546.1L5375 4739.8 5403.9 4789.8 5375 4739.8 5203.9 4443.4H4861.6L4832.7 4493.4 4861.6 4443.4 5032.7 4147" fill="#2ee836"/>
<path transform="matrix(.1,0,0,-.1,0,792)" stroke-width="10" stroke-linecap="butt" stroke-miterlimit="10" stroke-linejoin="miter" fill="none" stroke="#000000" d="M4861.6 3850.6H4803.9 5203.9L5375 3554.2 5346.1 3504.2 5375 3554.2 5546.1 3850.6H5888.4L5917.3 3800.6 5888.4 3850.6 5717.3 4147 5888.4 4443.4H5946.1 5888.4 5546.1L5375 4739.8 5403.9 4789.8 5375 4739.8 5203.9 4443.4H4861.6L4832.7 4493.4 4861.6 4443.4 5032.7 4147Z"/>
<path transform="matrix(.1,0,0,-.1,0,792)" d="M4861.6 5829.1 4832.7 5879.1 4861.6 5829.1 5375 4939.8 5346.1 4889.8 5375 4939.8 5546.1 5236.2H5888.4L5917.3 5186.2 5888.4 5236.2 5717.3 5532.7 5888.4 5829.1H5946.1 5888.4 5546.1L5375 6125.5 5403.9 6175.5 5375 6125.5 5203.9 5829.1" fill="#bf00ff"/>
<path transform="matrix(.1,0,0,-.1,0,792)" stroke-width="10" stroke-linecap="butt" stroke-miterlimit="10" stroke-linejoin="miter" fill="none" stroke="#000000" d="M4861.6 5829.1 4832.7 5879.1 4861.6 5829.1 5375 4939.8 5346.1 4889.8 5375 4939.8 5546.1 5236.2H5888.4L5917.3 5186.2 5888.4 5236.2 5717.3 5532.7 5888.4 5829.1H5946.1 5888.4 5546.1L5375 6125.5 5403.9 6175.5 5375 6125.5 5203.9 5829.1Z"/>
<path transform="matrix(.1,0,0,-.1,0,792)" d="M4861.6 6621.9H4803.9 5203.9L5375 6325.5 5346.1 6275.5 5375 6325.5 5546.1 6621.9H5888.4L5917.3 6571.9 5888.4 6621.9 5717.3 6918.3 5888.4 7214.7H5946.1 5888.4 5546.1L5375 7511.1 5403.9 7561.1 5375 7511.1" fill="#bf00ff"/>
<path transform="matrix(.1,0,0,-.1,0,792)" stroke-width="10" stroke-linecap="butt" stroke-miterlimit="10" stroke-linejoin="miter" fill="none" stroke="#000000" d="M4861.6 6621.9H4803.9 5203.9L5375 6325.5 5346.1 6275.5 5375 6325.5 5546.1 6621.9H5888.4L5917.3 6571.9 5888.4 6621.9 5717.3 6918.3 5888.4 7214.7H5946.1 5888.4 5546.1L5375 7511.1 5403.9 7561.1 5375 7511.1Z"/>
<path transform="matrix(.1,0,0,-.1,0,792)" d="M1203.9 1672.1H1146.1 1203.9L632.699 682.898 603.898 632.898 632.699 682.898 803.898 386.5H1146.1 1203.9 1146.1L1717.3 1375.7 1746.1 1425.7 1717.3 1375.7 1546.1 1672.1" fill="#b0eb1a"/>
<path transform="matrix(.1,0,0,-.1,0,792)" stroke-width="10" stroke-linecap="butt" stroke-miterlimit="10" stroke-linejoin="miter" fill="none" stroke="#000000" d="M1203.9 1672.1H1146.1 1203.9L632.699 682.898 603.898 632.898 632.699 682.898 803.898 386.5H1146.1 1203.9 1146.1L1717.3 1375.7 1746.1 1425.7 1717.3 1375.7 1546.1 1672.1Z"/>
<path transform="matrix(.1,0,0,-.1,0,792)" d="M1088.4 1672.1H1146.1 746.102L575 1968.6 603.898 2018.6 575 1968.6 403.898 1672.1H61.6016L32.6992 1722.1 61.6016 1672.1 232.699 1375.7 61.6016 1079.3H3.89844 61.6016 403.898L575 782.898 546.102 732.898 575 782.898" fill="#bf00ff"/>
<path transform="matrix(.1,0,0,-.1,0,792)" stroke-width="10" stroke-linecap="butt" stroke-miterlimit="10" stroke-linejoin="miter" fill="none" stroke="#000000" d="M1088.4 1672.1H1146.1 746.102L575 1968.6 603.898 2018.6 575 1968.6 403.898 1672.1H61.6016L32.6992 1722.1 61.6016 1672.1 232.699 1375.7 61.6016 1079.3H3.89844 61.6016 403.898L575 782.898 546.102 732.898 575 782.898Z"/>
<path transform="matrix(.1,0,0,-.1,0,792)" d="M2003.9 1672.1 1832.7 1375.7 1803.9 1325.7 1832.7 1375.7 2003.9 1079.3H2346.1 2403.9 2346.1L2517.3 1375.7 2346.1 1672.1 2317.3 1722.1 2346.1 1672.1" fill="#d47db5"/>
<path transform="matrix(.1,0,0,-.1,0,792)" stroke-width="10" stroke-linecap="butt" stroke-miterlimit="10" stroke-linejoin="miter" fill="none" stroke="#000000" d="M2003.9 1672.1 1832.7 1375.7 1803.9 1325.7 1832.7 1375.7 2003.9 1079.3H2346.1 2403.9 2346.1L2517.3 1375.7 2346.1 1672.1 2317.3 1722.1 2346.1 1672.1Z"/>
<path transform="matrix(.1,0,0,-.1,0,792)" d="M2461.6 1672.1 2432.7 1722.1 2461.6 1672.1 2632.7 1375.7 2461.6 1079.3H2403.9 2461.6 2803.9L2975 782.898 2946.1 732.898 2975 782.898 3146.1 1079.3H3488.4L3517.3 1029.3 3488.4 1079.3 3317.3 1375.7 3488.4 1672.1H3546.1 3488.4" fill="#bf00ff"/>
<path transform="matrix(.1,0,0,-.1,0,792)" stroke-width="10" stroke-linecap="butt" stroke-miterlimit="10" stroke-linejoin="miter" fill="none" stroke="#000000" d="M2461.6 1672.1 2432.7 1722.1 2461.6 1672.1 2632.7 1375.7 2461.6 1079.3H2403.9 2461.6 2803.9L2975 782.898 2946.1 732.898 2975 782.898 3146.1 1079.3H3488.4L3517.3 1029.3 3488.4 1079.3 3317.3 1375.7 3488.4 1672.1H3546.1 3488.4Z"/>
<path transform="matrix(.1,0,0,-.1,0,792)" d="M3603.9 1672.1H3546.1 3603.9L3432.7 1375.7 3603.9 1079.3 3632.7 1029.3 3603.9 1079.3H3946.1L4117.3 1375.7 4146.1 1425.7 4117.3 1375.7 3946.1 1672.1" fill="#d47db5"/>
<path transform="matrix(.1,0,0,-.1,0,792)" stroke-width="10" stroke-linecap="butt" stroke-miterlimit="10" stroke-linejoin="miter" fill="none" stroke="#000000" d="M3603.9 1672.1H3546.1 3603.9L3432.7 1375.7 3603.9 1079.3 3632.7 1029.3 3603.9 1079.3H3946.1L4117.3 1375.7 4146.1 1425.7 4117.3 1375.7 3946.1 1672.1Z"/>
<path transform="matrix(.1,0,0,-.1,0,792)" d="M4403.9 1672.1 4232.7 1375.7 4203.9 1325.7 4232.7 1375.7 4803.9 386.5 4832.7 336.5 4803.9 386.5H5146.1L5317.3 682.898 5346.1 732.898 5317.3 682.898 4746.1 1672.1 4717.3 1722.1 4746.1 1672.1" fill="#b0eb1a"/>
<path transform="matrix(.1,0,0,-.1,0,792)" stroke-width="10" stroke-linecap="butt" stroke-miterlimit="10" stroke-linejoin="miter" fill="none" stroke="#000000" d="M4403.9 1672.1 4232.7 1375.7 4203.9 1325.7 4232.7 1375.7 4803.9 386.5 4832.7 336.5 4803.9 386.5H5146.1L5317.3 682.898 5346.1 732.898 5317.3 682.898 4746.1 1672.1 4717.3 1722.1 4746.1 1672.1Z"/>
<path transform="matrix(.1,0,0,-.1,0,792)" d="M4861.6 1672.1 4832.7 1722.1 4861.6 1672.1 5375 782.898 5346.1 732.898 5375 782.898 5546.1 1079.3H5888.4L5917.3 1029.3 5888.4 1079.3 5717.3 1375.7 5888.4 1672.1H5946.1 5888.4 5546.1L5375 1968.6 5403.9 2018.6 5375 1968.6 5203.9 1672.1" fill="#bf00ff"/>
<path transform="matrix(.1,0,0,-.1,0,792)" stroke-width="10" stroke-linecap="butt" stroke-miterlimit="10" stroke-linejoin="miter" fill="none" stroke="#000000" d="M4861.6 1672.1 4832.7 1722.1 4861.6 1672.1 5375 782.898 5346.1 732.898 5375 782.898 5546.1 1079.3H5888.4L5917.3 1029.3 5888.4 1079.3 5717.3 1375.7 5888.4 1672.1H5946.1 5888.4 5546.1L5375 1968.6 5403.9 2018.6 5375 1968.6 5203.9 1672.1Z"/>
<path transform="matrix(.1,0,0,-.1,0,792)" d="M4175 7018.3 4146.1 6968.3 4175 7018.3 4688.4 7907.5H4746.1 4688.4 4346.1L4175 8203.9 4203.9 8253.9 4175 8203.9 4003.9 7907.5H3661.6L3632.7 7957.5 3661.6 7907.5 3832.7 7611.1 3661.6 7314.7H3603.9 3661.6 4003.9" fill="#bf00ff"/>
<path transform="matrix(.1,0,0,-.1,0,792)" stroke-width="10" stroke-linecap="butt" stroke-miterlimit="10" stroke-linejoin="miter" fill="none" stroke="#000000" d="M4175 7018.3 4146.1 6968.3 4175 7018.3 4688.4 7907.5H4746.1 4688.4 4346.1L4175 8203.9 4203.9 8253.9 4175 8203.9 4003.9 7907.5H3661.6L3632.7 7957.5 3661.6 7907.5 3832.7 7611.1 3661.6 7314.7H3603.9 3661.6 4003.9Z"/>
<path transform="matrix(.1,0,0,-.1,0,792)" d="M1775 7018.3 1746.1 6968.3 1775 7018.3 1946.1 7314.7H2288.4L2317.3 7264.7 2288.4 7314.7 2117.3 7611.1 2288.4 7907.5H2346.1 2288.4 1946.1L1775 8203.9 1803.9 8253.9 1775 8203.9 1603.9 7907.5H1261.6L1232.7 7957.5 1261.6 7907.5" fill="#bf00ff"/>
<path transform="matrix(.1,0,0,-.1,0,792)" stroke-width="10" stroke-linecap="butt" stroke-miterlimit="10" stroke-linejoin="miter" fill="none" stroke="#000000" d="M1775 7018.3 1746.1 6968.3 1775 7018.3 1946.1 7314.7H2288.4L2317.3 7264.7 2288.4 7314.7 2117.3 7611.1 2288.4 7907.5H2346.1 2288.4 1946.1L1775 8203.9 1803.9 8253.9 1775 8203.9 1603.9 7907.5H1261.6L1232.7 7957.5 1261.6 7907.5Z"/>
<path transform="matrix(.1,0,0,-.1,0,792)" d="M1775 1275.7 1803.9 1325.7 1775 1275.7 1261.6 386.5H1203.9 1261.6 1603.9L1775 90.1016 1746.1 40.1016 1775 90.1016 1946.1 386.5H2288.4L2317.3 336.5 2288.4 386.5 2117.3 682.898 2288.4 979.301H2346.1 2288.4 1946.1" fill="#bf00ff"/>
<path transform="matrix(.1,0,0,-.1,0,792)" stroke-width="10" stroke-linecap="butt" stroke-miterlimit="10" stroke-linejoin="miter" fill="none" stroke="#000000" d="M1775 1275.7 1803.9 1325.7 1775 1275.7 1261.6 386.5H1203.9 1261.6 1603.9L1775 90.1016 1746.1 40.1016 1775 90.1016 1946.1 386.5H2288.4L2317.3 336.5 2288.4 386.5 2117.3 682.898 2288.4 979.301H2346.1 2288.4 1946.1Z"/>
<path transform="matrix(.1,0,0,-.1,0,792)" d="M4175 1275.7 4203.9 1325.7 4175 1275.7 4003.9 979.301H3661.6L3632.7 1029.3 3661.6 979.301 3832.7 682.898 3661.6 386.5H3603.9 3661.6 4003.9L4175 90.1016 4146.1 40.1016 4175 90.1016 4346.1 386.5H4688.4L4717.3 336.5 4688.4 386.5" fill="#bf00ff"/>
<path transform="matrix(.1,0,0,-.1,0,792)" stroke-width="10" stroke-linecap="butt" stroke-miterlimit="10" stroke-linejoin="miter" fill="none" stroke="#000000" d="M4175 1275.7 4203.9 1325.7 4175 1275.7 4003.9 979.301H3661.6L3632.7 1029.3 3661.6 979.301 3832.7 682.898 3661.6 386.5H3603.9 3661.6 4003.9L4175 90.1016 4146.1 40.1016 4175 90.1016 4346.1 386.5H4688.4L4717.3 336.5 4688.4 386.5Z"/>
<path transform="matrix(.1,0,0,-.1,0,792)" d="M3546.1 7314.7H3603.9 3546.1L3717.3 7611.1 3546.1 7907.5 3517.3 7957.5 3546.1 7907.5H3203.9L3032.7 7611.1 3003.9 7561.1 3032.7 7611.1 3203.9 7314.7" fill="#804080"/>
<path transform="matrix(.1,0,0,-.1,0,792)" stroke-width="10" stroke-linecap="butt" stroke-miterlimit="10" stroke-linejoin="miter" fill="none" stroke="#000000" d="M3546.1 7314.7H3603.9 3546.1L3717.3 7611.1 3546.1 7907.5 3517.3 7957.5 3546.1 7907.5H3203.9L3032.7 7611.1 3003.9 7561.1 3032.7 7611.1 3203.9 7314.7Z"/>
<path transform="matrix(.1,0,0,-.1,0,792)" d="M2746.1 7314.7 2917.3 7611.1 2946.1 7661.1 2917.3 7611.1 2746.1 7907.5H2403.9 2346.1 2403.9L2232.7 7611.1 2403.9 7314.7 2432.7 7264.7 2403.9 7314.7" fill="#804080"/>
<path transform="matrix(.1,0,0,-.1,0,792)" stroke-width="10" stroke-linecap="butt" stroke-miterlimit="10" stroke-linejoin="miter" fill="none" stroke="#000000" d="M2746.1 7314.7 2917.3 7611.1 2946.1 7661.1 2917.3 7611.1 2746.1 7907.5H2403.9 2346.1 2403.9L2232.7 7611.1 2403.9 7314.7 2432.7 7264.7 2403.9 7314.7Z"/>
<path transform="matrix(.1,0,0,-.1,0,792)" d="M2403.9 979.301H2346.1 2403.9L2232.7 682.898 2403.9 386.5 2432.7 336.5 2403.9 386.5H2746.1L2917.3 682.898 2946.1 732.898 2917.3 682.898 2746.1 979.301" fill="#804080"/>
<path transform="matrix(.1,0,0,-.1,0,792)" stroke-width="10" stroke-linecap="butt" stroke-miterlimit="10" stroke-linejoin="miter" fill="none" stroke="#000000" d="M2403.9 979.301H2346.1 2403.9L2232.7 682.898 2403.9 386.5 2432.7 336.5 2403.9 386.5H2746.1L2917.3 682.898 2946.1 732.898 2917.3 682.898 2746.1 979.301Z"/>
<path transform="matrix(.1,0,0,-.1,0,792)" d="M3203.9 979.301 3032.7 682.898 3003.9 632.898 3032.7 682.898 3203.9 386.5H3546.1 3603.9 3546.1L3717.3 682.898 3546.1 979.301 3517.3 1029.3 3546.1 979.301" fill="#804080"/>
<path transform="matrix(.1,0,0,-.1,0,792)" stroke-width="10" stroke-linecap="butt" stroke-miterlimit="10" stroke-linejoin="miter" fill="none" stroke="#000000" d="M3203.9 979.301 3032.7 682.898 3003.9 632.898 3032.7 682.898 3203.9 386.5H3546.1 3603.9 3546.1L3717.3 682.898 3546.1 979.301 3517.3 1029.3 3546.1 979.301Z"/>
<path transform="matrix(.1,0,0,-.1,0,792)" d="M5432.7 2068.6 5403.9 2018.6 5432.7 2068.6 5603.9 1772.1H5946.1 6003.9 5946.1L6117.3 2068.6 5946.1 2365 5917.3 2415 5946.1 2365H5603.9" fill="#804080"/>
<path transform="matrix(.1,0,0,-.1,0,792)" stroke-width="10" stroke-linecap="butt" stroke-miterlimit="10" stroke-linejoin="miter" fill="none" stroke="#000000" d="M5432.7 2068.6 5403.9 2018.6 5432.7 2068.6 5603.9 1772.1H5946.1 6003.9 5946.1L6117.3 2068.6 5946.1 2365 5917.3 2415 5946.1 2365H5603.9Z"/>
<path transform="matrix(.1,0,0,-.1,0,792)" d="M5432.7 3454.2 5403.9 3404.2 5432.7 3454.2 5603.9 3157.8H5946.1 6003.9 5946.1L6117.3 3454.2 5946.1 3750.6 5917.3 3800.6 5946.1 3750.6H5603.9" fill="#d47db5"/>
<path transform="matrix(.1,0,0,-.1,0,792)" stroke-width="10" stroke-linecap="butt" stroke-miterlimit="10" stroke-linejoin="miter" fill="none" stroke="#000000" d="M5432.7 3454.2 5403.9 3404.2 5432.7 3454.2 5603.9 3157.8H5946.1 6003.9 5946.1L6117.3 3454.2 5946.1 3750.6 5917.3 3800.6 5946.1 3750.6H5603.9Z"/>
<path transform="matrix(.1,0,0,-.1,0,792)" d="M5432.7 4839.8 5403.9 4789.8 5432.7 4839.8 5603.9 4543.4H5946.1 6003.9 5946.1L6117.3 4839.8 5946.1 5136.2 5917.3 5186.2 5946.1 5136.2H5603.9" fill="#d47db5"/>
<path transform="matrix(.1,0,0,-.1,0,792)" stroke-width="10" stroke-linecap="butt" stroke-miterlimit="10" stroke-linejoin="miter" fill="none" stroke="#000000" d="M5432.7 4839.8 5403.9 4789.8 5432.7 4839.8 5603.9 4543.4H5946.1 6003.9 5946.1L6117.3 4839.8 5946.1 5136.2 5917.3 5186.2 5946.1 5136.2H5603.9Z"/>
<path transform="matrix(.1,0,0,-.1,0,792)" d="M5432.7 6225.5 5403.9 6175.5 5432.7 6225.5 5603.9 5929.1H5946.1 6003.9 5946.1L6117.3 6225.5 5946.1 6521.9 5917.3 6571.9 5946.1 6521.9H5603.9" fill="#804080"/>
<path transform="matrix(.1,0,0,-.1,0,792)" stroke-width="10" stroke-linecap="butt" stroke-miterlimit="10" stroke-linejoin="miter" fill="none" stroke="#000000" d="M5432.7 6225.5 5403.9 6175.5 5432.7 6225.5 5603.9 5929.1H5946.1 6003.9 5946.1L6117.3 6225.5 5946.1 6521.9 5917.3 6571.9 5946.1 6521.9H5603.9Z"/>
<path transform="matrix(.1,0,0,-.1,0,792)" d="M517.301 6225.5 546.102 6275.5 517.301 6225.5 346.102 6521.9H3.89844-53.8984 3.89844L-167.301 6225.5 3.89844 5929.1 32.6992 5879.1 3.89844 5929.1H346.102" fill="#804080"/>
<path transform="matrix(.1,0,0,-.1,0,792)" stroke-width="10" stroke-linecap="butt" stroke-miterlimit="10" stroke-linejoin="miter" fill="none" stroke="#000000" d="M517.301 6225.5 546.102 6275.5 517.301 6225.5 346.102 6521.9H3.89844-53.8984 3.89844L-167.301 6225.5 3.89844 5929.1 32.6992 5879.1 3.89844 5929.1H346.102Z"/>
<path transform="matrix(.1,0,0,-.1,0,792)" d="M517.301 4839.8 546.102 4889.8 517.301 4839.8 346.102 5136.2H3.89844-53.8984 3.89844L-167.301 4839.8 3.89844 4543.4 32.6992 4493.4 3.89844 4543.4H346.102" fill="#d47db5"/>
<path transform="matrix(.1,0,0,-.1,0,792)" stroke-width="10" stroke-linecap="butt" stroke-miterlimit="10" stroke-linejoin="miter" fill="none" stroke="#000000" d="M517.301 4839.8 546.102 4889.8 517.301 4839.8 346.102 5136.2H3.89844-53.8984 3.89844L-167.301 4839.8 3.89844 4543.4 32.6992 4493.4 3.89844 4543.4H346.102Z"/>
<path transform="matrix(.1,0,0,-.1,0,792)" d="M517.301 3454.2 546.102 3504.2 517.301 3454.2 346.102 3750.6H3.89844-53.8984 3.89844L-167.301 3454.2 3.89844 3157.8 32.6992 3107.8 3.89844 3157.8H346.102" fill="#d47db5"/>
<path transform="matrix(.1,0,0,-.1,0,792)" stroke-width="10" stroke-linecap="butt" stroke-miterlimit="10" stroke-linejoin="miter" fill="none" stroke="#000000" d="M517.301 3454.2 546.102 3504.2 517.301 3454.2 346.102 3750.6H3.89844-53.8984 3.89844L-167.301 3454.2 3.89844 3157.8 32.6992 3107.8 3.89844 3157.8H346.102Z"/>
<path transform="matrix(.1,0,0,-.1,0,792)" d="M517.301 2068.6 546.102 2118.6 517.301 2068.6 346.102 2365H3.89844-53.8984 3.89844L-167.301 2068.6 3.89844 1772.1 32.6992 1722.1 3.89844 1772.1H346.102" fill="#804080"/>
<path transform="matrix(.1,0,0,-.1,0,792)" stroke-width="10" stroke-linecap="butt" stroke-miterlimit="10" stroke-linejoin="miter" fill="none" stroke="#000000" d="M517.301 2068.6 546.102 2118.6 517.301 2068.6 346.102 2365H3.89844-53.8984 3.89844L-167.301 2068.6 3.89844 1772.1 32.6992 1722.1 3.89844 1772.1H346.102Z"/>
<path transform="matrix(.1,0,0,-.1,0,792)" d="M5375 7711.1 5346.1 7661.1 5375 7711.1 5546.1 8007.5H5888.4L5917.3 7957.5 5888.4 8007.5 5717.3 8303.9 5888.4 8600.3H5946.1 5888.4 5546.1L5375 8896.8 5403.9 8946.8 5375 8896.8 5203.9 8600.3H4861.6L4832.7 8650.3 4861.6 8600.3 5032.7 8303.9 4861.6 8007.5H4803.9 4861.6 5203.9" fill="#2ee836"/>
<path transform="matrix(.1,0,0,-.1,0,792)" stroke-width="10" stroke-linecap="butt" stroke-miterlimit="10" stroke-linejoin="miter" fill="none" stroke="#000000" d="M5375 7711.1 5346.1 7661.1 5375 7711.1 5546.1 8007.5H5888.4L5917.3 7957.5 5888.4 8007.5 5717.3 8303.9 5888.4 8600.3H5946.1 5888.4 5546.1L5375 8896.8 5403.9 8946.8 5375 8896.8 5203.9 8600.3H4861.6L4832.7 8650.3 4861.6 8600.3 5032.7 8303.9 4861.6 8007.5H4803.9 4861.6 5203.9Z"/>
<path transform="matrix(.1,0,0,-.1,0,792)" d="M5432.7 7611.1 5403.9 7561.1 5432.7 7611.1 5603.9 7314.7H5946.1 6003.9 5946.1L6117.3 7611.1 5946.1 7907.5 5917.3 7957.5 5946.1 7907.5H5603.9" fill="#d47db5"/>
<path transform="matrix(.1,0,0,-.1,0,792)" stroke-width="10" stroke-linecap="butt" stroke-miterlimit="10" stroke-linejoin="miter" fill="none" stroke="#000000" d="M5432.7 7611.1 5403.9 7561.1 5432.7 7611.1 5603.9 7314.7H5946.1 6003.9 5946.1L6117.3 7611.1 5946.1 7907.5 5917.3 7957.5 5946.1 7907.5H5603.9Z"/>
<path transform="matrix(.1,0,0,-.1,0,792)" d="M2975 7711.1 2946.1 7661.1 2975 7711.1 3146.1 8007.5H3488.4L3517.3 7957.5 3488.4 8007.5 3317.3 8303.9 3488.4 8600.3H3546.1 3488.4 3146.1L2975 8896.8 3003.9 8946.8 2975 8896.8 2803.9 8600.3H2461.6L2432.7 8650.3 2461.6 8600.3 2632.7 8303.9 2461.6 8007.5H2403.9 2461.6 2803.9" fill="#bf40bf"/>
<path transform="matrix(.1,0,0,-.1,0,792)" stroke-width="10" stroke-linecap="butt" stroke-miterlimit="10" stroke-linejoin="miter" fill="none" stroke="#000000" d="M2975 7711.1 2946.1 7661.1 2975 7711.1 3146.1 8007.5H3488.4L3517.3 7957.5 3488.4 8007.5 3317.3 8303.9 3488.4 8600.3H3546.1 3488.4 3146.1L2975 8896.8 3003.9 8946.8 2975 8896.8 2803.9 8600.3H2461.6L2432.7 8650.3 2461.6 8600.3 2632.7 8303.9 2461.6 8007.5H2403.9 2461.6 2803.9Z"/>
<path transform="matrix(.1,0,0,-.1,0,792)" d="M517.301 7611.1 546.102 7661.1 517.301 7611.1 346.102 7907.5H3.89844-53.8984 3.89844L-167.301 7611.1 3.89844 7314.7 32.6992 7264.7 3.89844 7314.7H346.102" fill="#d47db5"/>
<path transform="matrix(.1,0,0,-.1,0,792)" stroke-width="10" stroke-linecap="butt" stroke-miterlimit="10" stroke-linejoin="miter" fill="none" stroke="#000000" d="M517.301 7611.1 546.102 7661.1 517.301 7611.1 346.102 7907.5H3.89844-53.8984 3.89844L-167.301 7611.1 3.89844 7314.7 32.6992 7264.7 3.89844 7314.7H346.102Z"/>
<path transform="matrix(.1,0,0,-.1,0,792)" d="M575 7711.1 546.102 7661.1 575 7711.1 746.102 8007.5H1088.4L1117.3 7957.5 1088.4 8007.5 917.301 8303.9 1088.4 8600.3H1146.1 1088.4 746.102L575 8896.8 603.898 8946.8 575 8896.8 403.898 8600.3H61.6016L32.6992 8650.3 61.6016 8600.3 232.699 8303.9 61.6016 8007.5H3.89844 61.6016 403.898" fill="#2ee836"/>
<path transform="matrix(.1,0,0,-.1,0,792)" stroke-width="10" stroke-linecap="butt" stroke-miterlimit="10" stroke-linejoin="miter" fill="none" stroke="#000000" d="M575 7711.1 546.102 7661.1 575 7711.1 746.102 8007.5H1088.4L1117.3 7957.5 1088.4 8007.5 917.301 8303.9 1088.4 8600.3H1146.1 1088.4 746.102L575 8896.8 603.898 8946.8 575 8896.8 403.898 8600.3H61.6016L32.6992 8650.3 61.6016 8600.3 232.699 8303.9 61.6016 8007.5H3.89844 61.6016 403.898Z"/>
<path transform="matrix(.1,0,0,-.1,0,792)" d="M575 582.898 603.898 632.898 575 582.898 403.898 286.5H61.6016L32.6992 336.5 61.6016 286.5 232.699-9.89844 61.6016-306.301H3.89844 61.6016 403.898L575-602.699 546.102-652.699 575-602.699 746.102-306.301H1088.4L1117.3-356.301 1088.4-306.301 917.301-9.89844 1088.4 286.5H1146.1 1088.4 746.102" fill="#2ee836"/>
<path transform="matrix(.1,0,0,-.1,0,792)" stroke-width="10" stroke-linecap="butt" stroke-miterlimit="10" stroke-linejoin="miter" fill="none" stroke="#000000" d="M575 582.898 603.898 632.898 575 582.898 403.898 286.5H61.6016L32.6992 336.5 61.6016 286.5 232.699-9.89844 61.6016-306.301H3.89844 61.6016 403.898L575-602.699 546.102-652.699 575-602.699 746.102-306.301H1088.4L1117.3-356.301 1088.4-306.301 917.301-9.89844 1088.4 286.5H1146.1 1088.4 746.102Z"/>
<path transform="matrix(.1,0,0,-.1,0,792)" d="M517.301 682.898 546.102 732.898 517.301 682.898 346.102 979.301H3.89844-53.8984 3.89844L-167.301 682.898 3.89844 386.5 32.6992 336.5 3.89844 386.5H346.102" fill="#d47db5"/>
<path transform="matrix(.1,0,0,-.1,0,792)" stroke-width="10" stroke-linecap="butt" stroke-miterlimit="10" stroke-linejoin="miter" fill="none" stroke="#000000" d="M517.301 682.898 546.102 732.898 517.301 682.898 346.102 979.301H3.89844-53.8984 3.89844L-167.301 682.898 3.89844 386.5 32.6992 336.5 3.89844 386.5H346.102Z"/>
<path transform="matrix(.1,0,0,-.1,0,792)" d="M2975 582.898 3003.9 632.898 2975 582.898 2803.9 286.5H2461.6L2432.7 336.5 2461.6 286.5 2632.7-9.89844 2461.6-306.301H2403.9 2461.6 2803.9L2975-602.699 2946.1-652.699 2975-602.699 3146.1-306.301H3488.4L3517.3-356.301 3488.4-306.301 3317.3-9.89844 3488.4 286.5H3546.1 3488.4 3146.1" fill="#bf40bf"/>
<path transform="matrix(.1,0,0,-.1,0,792)" stroke-width="10" stroke-linecap="butt" stroke-miterlimit="10" stroke-linejoin="miter" fill="none" stroke="#000000" d="M2975 582.898 3003.9 632.898 2975 582.898 2803.9 286.5H2461.6L2432.7 336.5 2461.6 286.5 2632.7-9.89844 2461.6-306.301H2403.9 2461.6 2803.9L2975-602.699 2946.1-652.699 2975-602.699 3146.1-306.301H3488.4L3517.3-356.301 3488.4-306.301 3317.3-9.89844 3488.4 286.5H3546.1 3488.4 3146.1Z"/>
<path transform="matrix(.1,0,0,-.1,0,792)" d="M5432.7 682.898 5403.9 632.898 5432.7 682.898 5603.9 386.5H5946.1 6003.9 5946.1L6117.3 682.898 5946.1 979.301 5917.3 1029.3 5946.1 979.301H5603.9" fill="#d47db5"/>
<path transform="matrix(.1,0,0,-.1,0,792)" stroke-width="10" stroke-linecap="butt" stroke-miterlimit="10" stroke-linejoin="miter" fill="none" stroke="#000000" d="M5432.7 682.898 5403.9 632.898 5432.7 682.898 5603.9 386.5H5946.1 6003.9 5946.1L6117.3 682.898 5946.1 979.301 5917.3 1029.3 5946.1 979.301H5603.9Z"/>
<path transform="matrix(.1,0,0,-.1,0,792)" d="M5375 582.898 5403.9 632.898 5375 582.898 5203.9 286.5H4861.6L4832.7 336.5 4861.6 286.5 5032.7-9.89844 4861.6-306.301H4803.9 4861.6 5203.9L5375-602.699 5346.1-652.699 5375-602.699 5546.1-306.301H5888.4L5917.3-356.301 5888.4-306.301 5717.3-9.89844 5888.4 286.5H5946.1 5888.4 5546.1" fill="#2ee836"/>
<path transform="matrix(.1,0,0,-.1,0,792)" stroke-width="10" stroke-linecap="butt" stroke-miterlimit="10" stroke-linejoin="miter" fill="none" stroke="#000000" d="M5375 582.898 5403.9 632.898 5375 582.898 5203.9 286.5H4861.6L4832.7 336.5 4861.6 286.5 5032.7-9.89844 4861.6-306.301H4803.9 4861.6 5203.9L5375-602.699 5346.1-652.699 5375-602.699 5546.1-306.301H5888.4L5917.3-356.301 5888.4-306.301 5717.3-9.89844 5888.4 286.5H5946.1 5888.4 5546.1Z"/>
<path transform="matrix(.1,0,0,-.1,0,792)" d="M117.301 6918.3-53.8984 7214.7-82.6992 7264.7-53.8984 7214.7H-396.102L-567.301 6918.3-596.102 6868.3-567.301 6918.3-396.102 6621.9H-53.8984 3.89844-53.8984" fill="#804080"/>
<path transform="matrix(.1,0,0,-.1,0,792)" stroke-width="10" stroke-linecap="butt" stroke-miterlimit="10" stroke-linejoin="miter" fill="none" stroke="#000000" d="M117.301 6918.3-53.8984 7214.7-82.6992 7264.7-53.8984 7214.7H-396.102L-567.301 6918.3-596.102 6868.3-567.301 6918.3-396.102 6621.9H-53.8984 3.89844-53.8984Z"/>
<path transform="matrix(.1,0,0,-.1,0,792)" d="M117.301 5532.7-53.8984 5829.1-82.6992 5879.1-53.8984 5829.1H-396.102L-567.301 5532.7-596.102 5482.7-567.301 5532.7-396.102 5236.2H-53.8984 3.89844-53.8984" fill="#804080"/>
<path transform="matrix(.1,0,0,-.1,0,792)" stroke-width="10" stroke-linecap="butt" stroke-miterlimit="10" stroke-linejoin="miter" fill="none" stroke="#000000" d="M117.301 5532.7-53.8984 5829.1-82.6992 5879.1-53.8984 5829.1H-396.102L-567.301 5532.7-596.102 5482.7-567.301 5532.7-396.102 5236.2H-53.8984 3.89844-53.8984Z"/>
<path transform="matrix(.1,0,0,-.1,0,792)" d="M117.301 4147-53.8984 4443.4-82.6992 4493.4-53.8984 4443.4H-1196.1-1253.9-1196.1L-1367.3 4147-1196.1 3850.6-1167.3 3800.6-1196.1 3850.6H-53.8984 3.89844-53.8984" fill="#b0eb1a"/>
<path transform="matrix(.1,0,0,-.1,0,792)" stroke-width="10" stroke-linecap="butt" stroke-miterlimit="10" stroke-linejoin="miter" fill="none" stroke="#000000" d="M117.301 4147-53.8984 4443.4-82.6992 4493.4-53.8984 4443.4H-1196.1-1253.9-1196.1L-1367.3 4147-1196.1 3850.6-1167.3 3800.6-1196.1 3850.6H-53.8984 3.89844-53.8984Z"/>
<path transform="matrix(.1,0,0,-.1,0,792)" d="M117.301 2761.4-53.8984 3057.8-82.6992 3107.8-53.8984 3057.8H-396.102L-567.301 2761.4-596.102 2711.4-567.301 2761.4-396.102 2465H-53.8984 3.89844-53.8984" fill="#804080"/>
<path transform="matrix(.1,0,0,-.1,0,792)" stroke-width="10" stroke-linecap="butt" stroke-miterlimit="10" stroke-linejoin="miter" fill="none" stroke="#000000" d="M117.301 2761.4-53.8984 3057.8-82.6992 3107.8-53.8984 3057.8H-396.102L-567.301 2761.4-596.102 2711.4-567.301 2761.4-396.102 2465H-53.8984 3.89844-53.8984Z"/>
<path transform="matrix(.1,0,0,-.1,0,792)" d="M117.301 1375.7-53.8984 1672.1-82.6992 1722.1-53.8984 1672.1H-396.102L-567.301 1375.7-596.102 1325.7-567.301 1375.7-396.102 1079.3H-53.8984 3.89844-53.8984" fill="#804080"/>
<path transform="matrix(.1,0,0,-.1,0,792)" stroke-width="10" stroke-linecap="butt" stroke-miterlimit="10" stroke-linejoin="miter" fill="none" stroke="#000000" d="M117.301 1375.7-53.8984 1672.1-82.6992 1722.1-53.8984 1672.1H-396.102L-567.301 1375.7-596.102 1325.7-567.301 1375.7-396.102 1079.3H-53.8984 3.89844-53.8984Z"/>
<path transform="matrix(.1,0,0,-.1,0,792)" d="M5832.7 1375.7 6003.9 1079.3 6032.7 1029.3 6003.9 1079.3H6346.1L6517.3 1375.7 6546.1 1425.7 6517.3 1375.7 6346.1 1672.1H6003.9 5946.1 6003.9" fill="#804080"/>
<path transform="matrix(.1,0,0,-.1,0,792)" stroke-width="10" stroke-linecap="butt" stroke-miterlimit="10" stroke-linejoin="miter" fill="none" stroke="#000000" d="M5832.7 1375.7 6003.9 1079.3 6032.7 1029.3 6003.9 1079.3H6346.1L6517.3 1375.7 6546.1 1425.7 6517.3 1375.7 6346.1 1672.1H6003.9 5946.1 6003.9Z"/>
<path transform="matrix(.1,0,0,-.1,0,792)" d="M5832.7 2761.4 6003.9 2465 6032.7 2415 6003.9 2465H6346.1L6517.3 2761.4 6546.1 2811.4 6517.3 2761.4 6346.1 3057.8H6003.9 5946.1 6003.9" fill="#804080"/>
<path transform="matrix(.1,0,0,-.1,0,792)" stroke-width="10" stroke-linecap="butt" stroke-miterlimit="10" stroke-linejoin="miter" fill="none" stroke="#000000" d="M5832.7 2761.4 6003.9 2465 6032.7 2415 6003.9 2465H6346.1L6517.3 2761.4 6546.1 2811.4 6517.3 2761.4 6346.1 3057.8H6003.9 5946.1 6003.9Z"/>
<path transform="matrix(.1,0,0,-.1,0,792)" d="M5832.7 4147 6003.9 3850.6 6032.7 3800.6 6003.9 3850.6H7146.1 7203.9 7146.1L7317.3 4147 7146.1 4443.4 7117.3 4493.4 7146.1 4443.4H6003.9 5946.1 6003.9" fill="#b0eb1a"/>
<path transform="matrix(.1,0,0,-.1,0,792)" stroke-width="10" stroke-linecap="butt" stroke-miterlimit="10" stroke-linejoin="miter" fill="none" stroke="#000000" d="M5832.7 4147 6003.9 3850.6 6032.7 3800.6 6003.9 3850.6H7146.1 7203.9 7146.1L7317.3 4147 7146.1 4443.4 7117.3 4493.4 7146.1 4443.4H6003.9 5946.1 6003.9Z"/>
<path transform="matrix(.1,0,0,-.1,0,792)" d="M5832.7 5532.7 6003.9 5236.2 6032.7 5186.2 6003.9 5236.2H6346.1L6517.3 5532.7 6546.1 5582.7 6517.3 5532.7 6346.1 5829.1H6003.9 5946.1 6003.9" fill="#804080"/>
<path transform="matrix(.1,0,0,-.1,0,792)" stroke-width="10" stroke-linecap="butt" stroke-miterlimit="10" stroke-linejoin="miter" fill="none" stroke="#000000" d="M5832.7 5532.7 6003.9 5236.2 6032.7 5186.2 6003.9 5236.2H6346.1L6517.3 5532.7 6546.1 5582.7 6517.3 5532.7 6346.1 5829.1H6003.9 5946.1 6003.9Z"/>
<path transform="matrix(.1,0,0,-.1,0,792)" d="M5832.7 6918.3 6003.9 6621.9 6032.7 6571.9 6003.9 6621.9H6346.1L6517.3 6918.3 6546.1 6968.3 6517.3 6918.3 6346.1 7214.7H6003.9 5946.1 6003.9" fill="#804080"/>
<path transform="matrix(.1,0,0,-.1,0,792)" stroke-width="10" stroke-linecap="butt" stroke-miterlimit="10" stroke-linejoin="miter" fill="none" stroke="#000000" d="M5832.7 6918.3 6003.9 6621.9 6032.7 6571.9 6003.9 6621.9H6346.1L6517.3 6918.3 6546.1 6968.3 6517.3 6918.3 6346.1 7214.7H6003.9 5946.1 6003.9Z"/>
<path transform="matrix(.1,0,0,-.1,0,792)" d="M1203.9 286.5H1146.1 1203.9L1032.7-9.89844 1203.9-306.301 1232.7-356.301 1203.9-306.301H1546.1L1717.3-9.89844 1746.1 40.1016 1717.3-9.89844 1546.1 286.5" fill="#d47db5"/>
<path transform="matrix(.1,0,0,-.1,0,792)" stroke-width="10" stroke-linecap="butt" stroke-miterlimit="10" stroke-linejoin="miter" fill="none" stroke="#000000" d="M1203.9 286.5H1146.1 1203.9L1032.7-9.89844 1203.9-306.301 1232.7-356.301 1203.9-306.301H1546.1L1717.3-9.89844 1746.1 40.1016 1717.3-9.89844 1546.1 286.5Z"/>
<path transform="matrix(.1,0,0,-.1,0,792)" d="M2003.9 286.5 1832.7-9.89844 1803.9-59.8984 1832.7-9.89844 2003.9-306.301H2346.1 2403.9 2346.1L2517.3-9.89844 2346.1 286.5 2317.3 336.5 2346.1 286.5" fill="#804080"/>
<path transform="matrix(.1,0,0,-.1,0,792)" stroke-width="10" stroke-linecap="butt" stroke-miterlimit="10" stroke-linejoin="miter" fill="none" stroke="#000000" d="M2003.9 286.5 1832.7-9.89844 1803.9-59.8984 1832.7-9.89844 2003.9-306.301H2346.1 2403.9 2346.1L2517.3-9.89844 2346.1 286.5 2317.3 336.5 2346.1 286.5Z"/>
<path transform="matrix(.1,0,0,-.1,0,792)" d="M3603.9 286.5H3546.1 3603.9L3432.7-9.89844 3603.9-306.301 3632.7-356.301 3603.9-306.301H3946.1L4117.3-9.89844 4146.1 40.1016 4117.3-9.89844 3946.1 286.5" fill="#804080"/>
<path transform="matrix(.1,0,0,-.1,0,792)" stroke-width="10" stroke-linecap="butt" stroke-miterlimit="10" stroke-linejoin="miter" fill="none" stroke="#000000" d="M3603.9 286.5H3546.1 3603.9L3432.7-9.89844 3603.9-306.301 3632.7-356.301 3603.9-306.301H3946.1L4117.3-9.89844 4146.1 40.1016 4117.3-9.89844 3946.1 286.5Z"/>
<path transform="matrix(.1,0,0,-.1,0,792)" d="M4403.9 286.5 4232.7-9.89844 4203.9-59.8984 4232.7-9.89844 4403.9-306.301H4746.1 4803.9 4746.1L4917.3-9.89844 4746.1 286.5 4717.3 336.5 4746.1 286.5" fill="#d47db5"/>
<path transform="matrix(.1,0,0,-.1,0,792)" stroke-width="10" stroke-linecap="butt" stroke-miterlimit="10" stroke-linejoin="miter" fill="none" stroke="#000000" d="M4403.9 286.5 4232.7-9.89844 4203.9-59.8984 4232.7-9.89844 4403.9-306.301H4746.1 4803.9 4746.1L4917.3-9.89844 4746.1 286.5 4717.3 336.5 4746.1 286.5Z"/>
<path transform="matrix(.1,0,0,-.1,0,792)" d="M-53.8984 286.5-82.6992 336.5-53.8984 286.5H-1253.9-1196.1L-1367.3-9.89844-1196.1-306.301-1167.3-356.301-1196.1-306.301H-53.8984 3.89844-53.8984L117.301-9.89844" fill="#b0eb1a"/>
<path transform="matrix(.1,0,0,-.1,0,792)" stroke-width="10" stroke-linecap="butt" stroke-miterlimit="10" stroke-linejoin="miter" fill="none" stroke="#000000" d="M-53.8984 286.5-82.6992 336.5-53.8984 286.5H-1253.9-1196.1L-1367.3-9.89844-1196.1-306.301-1167.3-356.301-1196.1-306.301H-53.8984 3.89844-53.8984L117.301-9.89844Z"/>
<path transform="matrix(.1,0,0,-.1,0,792)" d="M6061.6 386.5H6003.9 7088.4L7117.3 336.5 7088.4 386.5 6917.3 682.898 7088.4 979.301H7146.1 7088.4 6746.1L6575 1275.7 6603.9 1325.7 6575 1275.7 6403.9 979.301H6061.6L6032.7 1029.3 6061.6 979.301 6232.7 682.898" fill="#bf00ff"/>
<path transform="matrix(.1,0,0,-.1,0,792)" stroke-width="10" stroke-linecap="butt" stroke-miterlimit="10" stroke-linejoin="miter" fill="none" stroke="#000000" d="M6061.6 386.5H6003.9 7088.4L7117.3 336.5 7088.4 386.5 6917.3 682.898 7088.4 979.301H7146.1 7088.4 6746.1L6575 1275.7 6603.9 1325.7 6575 1275.7 6403.9 979.301H6061.6L6032.7 1029.3 6061.6 979.301 6232.7 682.898Z"/>
<path transform="matrix(.1,0,0,-.1,0,792)" d="M6003.9 286.5H5946.1 6003.9L5832.7-9.89844 6003.9-306.301 6032.7-356.301 6003.9-306.301H7146.1 7203.9 7146.1L7317.3-9.89844 7146.1 286.5 7117.3 336.5 7146.1 286.5" fill="#b0eb1a"/>
<path transform="matrix(.1,0,0,-.1,0,792)" stroke-width="10" stroke-linecap="butt" stroke-miterlimit="10" stroke-linejoin="miter" fill="none" stroke="#000000" d="M6003.9 286.5H5946.1 6003.9L5832.7-9.89844 6003.9-306.301 6032.7-356.301 6003.9-306.301H7146.1 7203.9 7146.1L7317.3-9.89844 7146.1 286.5 7117.3 336.5 7146.1 286.5Z"/>
<path transform="matrix(.1,0,0,-.1,0,792)" d="M6061.6 1772.1H6003.9 6403.9L6575 1475.7 6546.1 1425.7 6575 1475.7 6746.1 1772.1H7088.4L7117.3 1722.1 7088.4 1772.1 6917.3 2068.6 7088.4 2365H7146.1 7088.4 6746.1L6575 2661.4 6603.9 2711.4 6575 2661.4 6403.9 2365H6061.6L6032.7 2415 6061.6 2365 6232.7 2068.6" fill="#bf40bf"/>
<path transform="matrix(.1,0,0,-.1,0,792)" stroke-width="10" stroke-linecap="butt" stroke-miterlimit="10" stroke-linejoin="miter" fill="none" stroke="#000000" d="M6061.6 1772.1H6003.9 6403.9L6575 1475.7 6546.1 1425.7 6575 1475.7 6746.1 1772.1H7088.4L7117.3 1722.1 7088.4 1772.1 6917.3 2068.6 7088.4 2365H7146.1 7088.4 6746.1L6575 2661.4 6603.9 2711.4 6575 2661.4 6403.9 2365H6061.6L6032.7 2415 6061.6 2365 6232.7 2068.6Z"/>
<path transform="matrix(.1,0,0,-.1,0,792)" d="M6061.6 3157.8H6003.9 6403.9L6575 2861.4 6546.1 2811.4 6575 2861.4 6746.1 3157.8H7088.4L7117.3 3107.8 7088.4 3157.8 6917.3 3454.2 7088.4 3750.6H7146.1 7088.4 6061.6L6032.7 3800.6 6061.6 3750.6 6232.7 3454.2" fill="#bf00ff"/>
<path transform="matrix(.1,0,0,-.1,0,792)" stroke-width="10" stroke-linecap="butt" stroke-miterlimit="10" stroke-linejoin="miter" fill="none" stroke="#000000" d="M6061.6 3157.8H6003.9 6403.9L6575 2861.4 6546.1 2811.4 6575 2861.4 6746.1 3157.8H7088.4L7117.3 3107.8 7088.4 3157.8 6917.3 3454.2 7088.4 3750.6H7146.1 7088.4 6061.6L6032.7 3800.6 6061.6 3750.6 6232.7 3454.2Z"/>
<path transform="matrix(.1,0,0,-.1,0,792)" d="M6061.6 4543.4H6003.9 7088.4L7117.3 4493.4 7088.4 4543.4 6917.3 4839.8 7088.4 5136.2H7146.1 7088.4 6746.1L6575 5432.7 6603.9 5482.7 6575 5432.7 6403.9 5136.2H6061.6L6032.7 5186.2 6061.6 5136.2 6232.7 4839.8" fill="#bf00ff"/>
<path transform="matrix(.1,0,0,-.1,0,792)" stroke-width="10" stroke-linecap="butt" stroke-miterlimit="10" stroke-linejoin="miter" fill="none" stroke="#000000" d="M6061.6 4543.4H6003.9 7088.4L7117.3 4493.4 7088.4 4543.4 6917.3 4839.8 7088.4 5136.2H7146.1 7088.4 6746.1L6575 5432.7 6603.9 5482.7 6575 5432.7 6403.9 5136.2H6061.6L6032.7 5186.2 6061.6 5136.2 6232.7 4839.8Z"/>
<path transform="matrix(.1,0,0,-.1,0,792)" d="M6061.6 5929.1H6003.9 6403.9L6575 5632.7 6546.1 5582.7 6575 5632.7 6746.1 5929.1H7088.4L7117.3 5879.1 7088.4 5929.1 6917.3 6225.5 7088.4 6521.9H7146.1 7088.4 6746.1L6575 6818.3 6603.9 6868.3 6575 6818.3 6403.9 6521.9H6061.6L6032.7 6571.9 6061.6 6521.9 6232.7 6225.5" fill="#bf40bf"/>
<path transform="matrix(.1,0,0,-.1,0,792)" stroke-width="10" stroke-linecap="butt" stroke-miterlimit="10" stroke-linejoin="miter" fill="none" stroke="#000000" d="M6061.6 5929.1H6003.9 6403.9L6575 5632.7 6546.1 5582.7 6575 5632.7 6746.1 5929.1H7088.4L7117.3 5879.1 7088.4 5929.1 6917.3 6225.5 7088.4 6521.9H7146.1 7088.4 6746.1L6575 6818.3 6603.9 6868.3 6575 6818.3 6403.9 6521.9H6061.6L6032.7 6571.9 6061.6 6521.9 6232.7 6225.5Z"/>
<path transform="matrix(.1,0,0,-.1,0,792)" d="M6061.6 7314.7H6003.9 6403.9L6575 7018.3 6546.1 6968.3 6575 7018.3 6746.1 7314.7H7088.4L7117.3 7264.7 7088.4 7314.7 6917.3 7611.1 7088.4 7907.5H7146.1 7088.4 6061.6L6032.7 7957.5 6061.6 7907.5 6232.7 7611.1" fill="#bf00ff"/>
<path transform="matrix(.1,0,0,-.1,0,792)" stroke-width="10" stroke-linecap="butt" stroke-miterlimit="10" stroke-linejoin="miter" fill="none" stroke="#000000" d="M6061.6 7314.7H6003.9 6403.9L6575 7018.3 6546.1 6968.3 6575 7018.3 6746.1 7314.7H7088.4L7117.3 7264.7 7088.4 7314.7 6917.3 7611.1 7088.4 7907.5H7146.1 7088.4 6061.6L6032.7 7957.5 6061.6 7907.5 6232.7 7611.1Z"/>
</svg>
