<svg xmlns="http://www.w3.org/2000/svg" xmlns:xlink="http://www.w3.org/1999/xlink" xmlns:inkscape="http://www.inkscape.org/namespaces/inkscape" version="1.1" width="612" height="792" viewBox="0 0 612 792">
<path transform="matrix(.1,0,0,-.1,0,792)" d="M3518.5 4210 3280.7 4537.3 3042.9 4460 2805.2 4537.3 2567.4 4210 2805.2 3882.7 3042.9 3960 3280.7 3882.7" fill="#ffffff"/>
<path transform="matrix(.1,0,0,-.1,0,792)" stroke-width="1" stroke-linecap="butt" stroke-miterlimit="10" stroke-linejoin="miter" fill="none" stroke="#000000" d="M3518.5 4210 3280.7 4537.3 3042.9 4460 2805.2 4537.3 2567.4 4210 2805.2 3882.7 3042.9 3960 3280.7 3882.7Z"/>
<path transform="matrix(.1,0,0,-.1,0,792)" d="M3042.9 3960 2805.2 3882.7 3042.9 3555.5 3280.7 3882.7Z" fill="#5c6600"/>
<path transform="matrix(.1,0,0,-.1,0,792)" stroke-width="1" stroke-linecap="butt" stroke-miterlimit="10" stroke-linejoin="miter" fill="none" stroke="#000000" d="M3042.9 3960 2805.2 3882.7 3042.9 3555.5 3280.7 3882.7Z"/>
<path transform="matrix(.1,0,0,-.1,0,792)" d="M3042.9 4460 3280.7 4537.3 3042.9 4864.5 2805.2 4537.3Z" fill="#5c6600"/>
<path transform="matrix(.1,0,0,-.1,0,792)" stroke-width="1" stroke-linecap="butt" stroke-miterlimit="10" stroke-linejoin="miter" fill="none" stroke="#000000" d="M3042.9 4460 3280.7 4537.3 3042.9 4864.5 2805.2 4537.3Z"/>
<path transform="matrix(.1,0,0,-.1,0,792)" d="M2805.2 4537.3 2420.5 4662.3V4412.3L2567.4 4210Z" fill="#5c6600"/>
<path transform="matrix(.1,0,0,-.1,0,792)" stroke-width="1" stroke-linecap="butt" stroke-miterlimit="10" stroke-linejoin="miter" fill="none" stroke="#000000" d="M2805.2 4537.3 2420.5 4662.3V4412.3L2567.4 4210Z"/>
<path transform="matrix(.1,0,0,-.1,0,792)" d="M2805.2 4537.3 3042.9 4864.5 2805.2 5191.8 2420.5 5066.8V4662.3" fill="#ffde66"/>
<path transform="matrix(.1,0,0,-.1,0,792)" stroke-width="1" stroke-linecap="butt" stroke-miterlimit="10" stroke-linejoin="miter" fill="none" stroke="#000000" d="M2805.2 4537.3 3042.9 4864.5 2805.2 5191.8 2420.5 5066.8V4662.3Z"/>
<path transform="matrix(.1,0,0,-.1,0,792)" d="M2805.2 3882.7 2420.5 3757.7V3353.2L2805.2 3228.2 3042.9 3555.5" fill="#ffde66"/>
<path transform="matrix(.1,0,0,-.1,0,792)" stroke-width="1" stroke-linecap="butt" stroke-miterlimit="10" stroke-linejoin="miter" fill="none" stroke="#000000" d="M2805.2 3882.7 2420.5 3757.7V3353.2L2805.2 3228.2 3042.9 3555.5Z"/>
<path transform="matrix(.1,0,0,-.1,0,792)" d="M2805.2 3882.7 2567.4 4210 2329.6 3882.7 1944.9 4007.7V3603.2L1560.2 3478.2 1798 3151 2035.7 3478.2 2420.5 3353.2V3757.7" fill="#805900"/>
<path transform="matrix(.1,0,0,-.1,0,792)" stroke-width="1" stroke-linecap="butt" stroke-miterlimit="10" stroke-linejoin="miter" fill="none" stroke="#000000" d="M2805.2 3882.7 2567.4 4210 2329.6 3882.7 1944.9 4007.7V3603.2L1560.2 3478.2 1798 3151 2035.7 3478.2 2420.5 3353.2V3757.7Z"/>
<path transform="matrix(.1,0,0,-.1,0,792)" d="M3280.7 3882.7 3665.4 3757.7V3353.2L4050.1 3478.2 4287.9 3151 4525.6 3478.2 4140.9 3603.2V4007.7L3756.2 3882.7 3518.5 4210" fill="#805900"/>
<path transform="matrix(.1,0,0,-.1,0,792)" stroke-width="1" stroke-linecap="butt" stroke-miterlimit="10" stroke-linejoin="miter" fill="none" stroke="#000000" d="M3280.7 3882.7 3665.4 3757.7V3353.2L4050.1 3478.2 4287.9 3151 4525.6 3478.2 4140.9 3603.2V4007.7L3756.2 3882.7 3518.5 4210Z"/>
<path transform="matrix(.1,0,0,-.1,0,792)" d="M3280.7 3882.7 3042.9 3555.5 3280.7 3228.2 3665.4 3353.2V3757.7" fill="#ffde66"/>
<path transform="matrix(.1,0,0,-.1,0,792)" stroke-width="1" stroke-linecap="butt" stroke-miterlimit="10" stroke-linejoin="miter" fill="none" stroke="#000000" d="M3280.7 3882.7 3042.9 3555.5 3280.7 3228.2 3665.4 3353.2V3757.7Z"/>
<path transform="matrix(.1,0,0,-.1,0,792)" d="M3280.7 4537.3 3665.4 4662.3V5066.8L3280.7 5191.8 3042.9 4864.5" fill="#ffde66"/>
<path transform="matrix(.1,0,0,-.1,0,792)" stroke-width="1" stroke-linecap="butt" stroke-miterlimit="10" stroke-linejoin="miter" fill="none" stroke="#000000" d="M3280.7 4537.3 3665.4 4662.3V5066.8L3280.7 5191.8 3042.9 4864.5Z"/>
<path transform="matrix(.1,0,0,-.1,0,792)" d="M3280.7 4537.3 3518.5 4210 3665.4 4412.3V4662.3Z" fill="#5c6600"/>
<path transform="matrix(.1,0,0,-.1,0,792)" stroke-width="1" stroke-linecap="butt" stroke-miterlimit="10" stroke-linejoin="miter" fill="none" stroke="#000000" d="M3280.7 4537.3 3518.5 4210 3665.4 4412.3V4662.3Z"/>
<path transform="matrix(.1,0,0,-.1,0,792)" d="M2567.4 4210 2420.5 4412.3V4662.3L2035.7 4787.3 1798 4460 1944.9 4257.7V4007.7L2329.6 3882.7" fill="#ffffff"/>
<path transform="matrix(.1,0,0,-.1,0,792)" stroke-width="1" stroke-linecap="butt" stroke-miterlimit="10" stroke-linejoin="miter" fill="none" stroke="#000000" d="M2567.4 4210 2420.5 4412.3V4662.3L2035.7 4787.3 1798 4460 1944.9 4257.7V4007.7L2329.6 3882.7Z"/>
<path transform="matrix(.1,0,0,-.1,0,792)" d="M3042.9 3555.5 2805.2 3228.2 3042.9 3151 3280.7 3228.2Z" fill="#5c6600"/>
<path transform="matrix(.1,0,0,-.1,0,792)" stroke-width="1" stroke-linecap="butt" stroke-miterlimit="10" stroke-linejoin="miter" fill="none" stroke="#000000" d="M3042.9 3555.5 2805.2 3228.2 3042.9 3151 3280.7 3228.2Z"/>
<path transform="matrix(.1,0,0,-.1,0,792)" d="M3042.9 4864.5 3280.7 5191.8 3042.9 5269 2805.2 5191.8Z" fill="#5c6600"/>
<path transform="matrix(.1,0,0,-.1,0,792)" stroke-width="1" stroke-linecap="butt" stroke-miterlimit="10" stroke-linejoin="miter" fill="none" stroke="#000000" d="M3042.9 4864.5 3280.7 5191.8 3042.9 5269 2805.2 5191.8Z"/>
<path transform="matrix(.1,0,0,-.1,0,792)" d="M3518.5 4210 3756.2 3882.7 4140.9 4007.7V4257.7L4287.9 4460 4050.1 4787.3 3665.4 4662.3V4412.3" fill="#ffffff"/>
<path transform="matrix(.1,0,0,-.1,0,792)" stroke-width="1" stroke-linecap="butt" stroke-miterlimit="10" stroke-linejoin="miter" fill="none" stroke="#000000" d="M3518.5 4210 3756.2 3882.7 4140.9 4007.7V4257.7L4287.9 4460 4050.1 4787.3 3665.4 4662.3V4412.3Z"/>
<path transform="matrix(.1,0,0,-.1,0,792)" d="M2420.5 4662.3V5066.8L2805.2 5191.8 2567.4 5519 2329.6 5191.8 1944.9 5316.8V4912.3L1560.2 4787.3 1798 4460 2035.7 4787.3" fill="#805900"/>
<path transform="matrix(.1,0,0,-.1,0,792)" stroke-width="1" stroke-linecap="butt" stroke-miterlimit="10" stroke-linejoin="miter" fill="none" stroke="#000000" d="M2420.5 4662.3V5066.8L2805.2 5191.8 2567.4 5519 2329.6 5191.8 1944.9 5316.8V4912.3L1560.2 4787.3 1798 4460 2035.7 4787.3Z"/>
<path transform="matrix(.1,0,0,-.1,0,792)" d="M2420.5 3353.2V3103.2L2567.4 2901 2805.2 3228.2Z" fill="#5c6600"/>
<path transform="matrix(.1,0,0,-.1,0,792)" stroke-width="1" stroke-linecap="butt" stroke-miterlimit="10" stroke-linejoin="miter" fill="none" stroke="#000000" d="M2420.5 3353.2V3103.2L2567.4 2901 2805.2 3228.2Z"/>
<path transform="matrix(.1,0,0,-.1,0,792)" d="M2420.5 3353.2 2035.7 3478.2 1798 3151 1944.9 2948.7V2698.7L2329.6 2573.7 2567.4 2901 2420.5 3103.2" fill="#ffffff"/>
<path transform="matrix(.1,0,0,-.1,0,792)" stroke-width="1" stroke-linecap="butt" stroke-miterlimit="10" stroke-linejoin="miter" fill="none" stroke="#000000" d="M2420.5 3353.2 2035.7 3478.2 1798 3151 1944.9 2948.7V2698.7L2329.6 2573.7 2567.4 2901 2420.5 3103.2Z"/>
<path transform="matrix(.1,0,0,-.1,0,792)" d="M3665.4 3353.2V3103.2L3518.5 2901 3756.2 2573.7 4140.9 2698.7V2948.7L4287.9 3151 4050.1 3478.2" fill="#ffffff"/>
<path transform="matrix(.1,0,0,-.1,0,792)" stroke-width="1" stroke-linecap="butt" stroke-miterlimit="10" stroke-linejoin="miter" fill="none" stroke="#000000" d="M3665.4 3353.2V3103.2L3518.5 2901 3756.2 2573.7 4140.9 2698.7V2948.7L4287.9 3151 4050.1 3478.2Z"/>
<path transform="matrix(.1,0,0,-.1,0,792)" d="M3665.4 3353.2 3280.7 3228.2 3518.5 2901 3665.4 3103.2Z" fill="#5c6600"/>
<path transform="matrix(.1,0,0,-.1,0,792)" stroke-width="1" stroke-linecap="butt" stroke-miterlimit="10" stroke-linejoin="miter" fill="none" stroke="#000000" d="M3665.4 3353.2 3280.7 3228.2 3518.5 2901 3665.4 3103.2Z"/>
<path transform="matrix(.1,0,0,-.1,0,792)" d="M3665.4 4662.3 4050.1 4787.3 4287.9 4460 4525.6 4787.3 4140.9 4912.3V5316.8L3756.2 5191.8 3518.5 5519 3280.7 5191.8 3665.4 5066.8" fill="#805900"/>
<path transform="matrix(.1,0,0,-.1,0,792)" stroke-width="1" stroke-linecap="butt" stroke-miterlimit="10" stroke-linejoin="miter" fill="none" stroke="#000000" d="M3665.4 4662.3 4050.1 4787.3 4287.9 4460 4525.6 4787.3 4140.9 4912.3V5316.8L3756.2 5191.8 3518.5 5519 3280.7 5191.8 3665.4 5066.8Z"/>
<path transform="matrix(.1,0,0,-.1,0,792)" d="M3280.7 5191.8 3518.5 5519 3280.7 5846.3 3042.9 5769 2805.2 5846.3 2567.4 5519 2805.2 5191.8 3042.9 5269" fill="#ffffff"/>
<path transform="matrix(.1,0,0,-.1,0,792)" stroke-width="1" stroke-linecap="butt" stroke-miterlimit="10" stroke-linejoin="miter" fill="none" stroke="#000000" d="M3280.7 5191.8 3518.5 5519 3280.7 5846.3 3042.9 5769 2805.2 5846.3 2567.4 5519 2805.2 5191.8 3042.9 5269Z"/>
<path transform="matrix(.1,0,0,-.1,0,792)" d="M2329.6 5191.8 2567.4 5519 2420.5 5721.3V5971.3L2035.7 6096.3 1798 5769 1944.9 5566.8V5316.8" fill="#ffffff"/>
<path transform="matrix(.1,0,0,-.1,0,792)" stroke-width="1" stroke-linecap="butt" stroke-miterlimit="10" stroke-linejoin="miter" fill="none" stroke="#000000" d="M2329.6 5191.8 2567.4 5519 2420.5 5721.3V5971.3L2035.7 6096.3 1798 5769 1944.9 5566.8V5316.8Z"/>
<path transform="matrix(.1,0,0,-.1,0,792)" d="M2805.2 3228.2 2567.4 2901 2805.2 2573.7 3042.9 2651 3280.7 2573.7 3518.5 2901 3280.7 3228.2 3042.9 3151" fill="#ffffff"/>
<path transform="matrix(.1,0,0,-.1,0,792)" stroke-width="1" stroke-linecap="butt" stroke-miterlimit="10" stroke-linejoin="miter" fill="none" stroke="#000000" d="M2805.2 3228.2 2567.4 2901 2805.2 2573.7 3042.9 2651 3280.7 2573.7 3518.5 2901 3280.7 3228.2 3042.9 3151Z"/>
<path transform="matrix(.1,0,0,-.1,0,792)" d="M3756.2 5191.8 4140.9 5316.8V5566.8L4287.9 5769 4050.1 6096.3 3665.4 5971.3V5721.3L3518.5 5519" fill="#ffffff"/>
<path transform="matrix(.1,0,0,-.1,0,792)" stroke-width="1" stroke-linecap="butt" stroke-miterlimit="10" stroke-linejoin="miter" fill="none" stroke="#000000" d="M3756.2 5191.8 4140.9 5316.8V5566.8L4287.9 5769 4050.1 6096.3 3665.4 5971.3V5721.3L3518.5 5519Z"/>
<path transform="matrix(.1,0,0,-.1,0,792)" d="M3518.5 5519 3665.4 5721.3V5971.3L3280.7 5846.3Z" fill="#5c6600"/>
<path transform="matrix(.1,0,0,-.1,0,792)" stroke-width="1" stroke-linecap="butt" stroke-miterlimit="10" stroke-linejoin="miter" fill="none" stroke="#000000" d="M3518.5 5519 3665.4 5721.3V5971.3L3280.7 5846.3Z"/>
<path transform="matrix(.1,0,0,-.1,0,792)" d="M2567.4 5519 2805.2 5846.3 2420.5 5971.3V5721.3Z" fill="#5c6600"/>
<path transform="matrix(.1,0,0,-.1,0,792)" stroke-width="1" stroke-linecap="butt" stroke-miterlimit="10" stroke-linejoin="miter" fill="none" stroke="#000000" d="M2567.4 5519 2805.2 5846.3 2420.5 5971.3V5721.3Z"/>
<path transform="matrix(.1,0,0,-.1,0,792)" d="M2567.4 2901 2329.6 2573.7 1944.9 2698.7V2294.2L1560.2 2169.2 1798 1842 2035.7 2169.2 2420.5 2044.2V2448.7L2805.2 2573.7" fill="#805900"/>
<path transform="matrix(.1,0,0,-.1,0,792)" stroke-width="1" stroke-linecap="butt" stroke-miterlimit="10" stroke-linejoin="miter" fill="none" stroke="#000000" d="M2567.4 2901 2329.6 2573.7 1944.9 2698.7V2294.2L1560.2 2169.2 1798 1842 2035.7 2169.2 2420.5 2044.2V2448.7L2805.2 2573.7Z"/>
<path transform="matrix(.1,0,0,-.1,0,792)" d="M3518.5 2901 3280.7 2573.7 3665.4 2448.7V2044.2L4050.1 2169.2 4287.9 1842 4525.6 2169.2 4140.9 2294.2V2698.7L3756.2 2573.7" fill="#805900"/>
<path transform="matrix(.1,0,0,-.1,0,792)" stroke-width="1" stroke-linecap="butt" stroke-miterlimit="10" stroke-linejoin="miter" fill="none" stroke="#000000" d="M3518.5 2901 3280.7 2573.7 3665.4 2448.7V2044.2L4050.1 2169.2 4287.9 1842 4525.6 2169.2 4140.9 2294.2V2698.7L3756.2 2573.7Z"/>
<path transform="matrix(.1,0,0,-.1,0,792)" d="M1944.9 5566.8 1798 5769 1560.2 5441.8 1944.9 5316.8Z" fill="#5c6600"/>
<path transform="matrix(.1,0,0,-.1,0,792)" stroke-width="1" stroke-linecap="butt" stroke-miterlimit="10" stroke-linejoin="miter" fill="none" stroke="#000000" d="M1944.9 5566.8 1798 5769 1560.2 5441.8 1944.9 5316.8Z"/>
<path transform="matrix(.1,0,0,-.1,0,792)" d="M1944.9 5316.8 1560.2 5441.8 1322.5 5114.5 1560.2 4787.3 1944.9 4912.3" fill="#ffde66"/>
<path transform="matrix(.1,0,0,-.1,0,792)" stroke-width="1" stroke-linecap="butt" stroke-miterlimit="10" stroke-linejoin="miter" fill="none" stroke="#000000" d="M1944.9 5316.8 1560.2 5441.8 1322.5 5114.5 1560.2 4787.3 1944.9 4912.3Z"/>
<path transform="matrix(.1,0,0,-.1,0,792)" d="M1944.9 4257.7 1798 4460 1560.2 4132.7 1944.9 4007.7Z" fill="#5c6600"/>
<path transform="matrix(.1,0,0,-.1,0,792)" stroke-width="1" stroke-linecap="butt" stroke-miterlimit="10" stroke-linejoin="miter" fill="none" stroke="#000000" d="M1944.9 4257.7 1798 4460 1560.2 4132.7 1944.9 4007.7Z"/>
<path transform="matrix(.1,0,0,-.1,0,792)" d="M1944.9 4007.7 1560.2 4132.7 1322.5 3805.5 1560.2 3478.2 1944.9 3603.2" fill="#ffde66"/>
<path transform="matrix(.1,0,0,-.1,0,792)" stroke-width="1" stroke-linecap="butt" stroke-miterlimit="10" stroke-linejoin="miter" fill="none" stroke="#000000" d="M1944.9 4007.7 1560.2 4132.7 1322.5 3805.5 1560.2 3478.2 1944.9 3603.2Z"/>
<path transform="matrix(.1,0,0,-.1,0,792)" d="M1944.9 2948.7 1798 3151 1560.2 2823.7 1944.9 2698.7Z" fill="#5c6600"/>
<path transform="matrix(.1,0,0,-.1,0,792)" stroke-width="1" stroke-linecap="butt" stroke-miterlimit="10" stroke-linejoin="miter" fill="none" stroke="#000000" d="M1944.9 2948.7 1798 3151 1560.2 2823.7 1944.9 2698.7Z"/>
<path transform="matrix(.1,0,0,-.1,0,792)" d="M1944.9 2698.7 1560.2 2823.7 1322.5 2496.5 1560.2 2169.2 1944.9 2294.2" fill="#ffde66"/>
<path transform="matrix(.1,0,0,-.1,0,792)" stroke-width="1" stroke-linecap="butt" stroke-miterlimit="10" stroke-linejoin="miter" fill="none" stroke="#000000" d="M1944.9 2698.7 1560.2 2823.7 1322.5 2496.5 1560.2 2169.2 1944.9 2294.2Z"/>
<path transform="matrix(.1,0,0,-.1,0,792)" d="M3042.9 2651 2805.2 2573.7 3042.9 2246.5 3280.7 2573.7Z" fill="#5c6600"/>
<path transform="matrix(.1,0,0,-.1,0,792)" stroke-width="1" stroke-linecap="butt" stroke-miterlimit="10" stroke-linejoin="miter" fill="none" stroke="#000000" d="M3042.9 2651 2805.2 2573.7 3042.9 2246.5 3280.7 2573.7Z"/>
<path transform="matrix(.1,0,0,-.1,0,792)" d="M3042.9 5769 3280.7 5846.3 3042.9 6173.5 2805.2 5846.3Z" fill="#5c6600"/>
<path transform="matrix(.1,0,0,-.1,0,792)" stroke-width="1" stroke-linecap="butt" stroke-miterlimit="10" stroke-linejoin="miter" fill="none" stroke="#000000" d="M3042.9 5769 3280.7 5846.3 3042.9 6173.5 2805.2 5846.3Z"/>
<path transform="matrix(.1,0,0,-.1,0,792)" d="M4140.9 2698.7 4525.6 2823.7 4287.9 3151 4140.9 2948.7Z" fill="#5c6600"/>
<path transform="matrix(.1,0,0,-.1,0,792)" stroke-width="1" stroke-linecap="butt" stroke-miterlimit="10" stroke-linejoin="miter" fill="none" stroke="#000000" d="M4140.9 2698.7 4525.6 2823.7 4287.9 3151 4140.9 2948.7Z"/>
<path transform="matrix(.1,0,0,-.1,0,792)" d="M4140.9 2698.7V2294.2L4525.6 2169.2 4763.4 2496.5 4525.6 2823.7" fill="#ffde66"/>
<path transform="matrix(.1,0,0,-.1,0,792)" stroke-width="1" stroke-linecap="butt" stroke-miterlimit="10" stroke-linejoin="miter" fill="none" stroke="#000000" d="M4140.9 2698.7V2294.2L4525.6 2169.2 4763.4 2496.5 4525.6 2823.7Z"/>
<path transform="matrix(.1,0,0,-.1,0,792)" d="M4140.9 3603.2 4525.6 3478.2 4763.4 3805.5 4525.6 4132.7 4140.9 4007.7" fill="#ffde66"/>
<path transform="matrix(.1,0,0,-.1,0,792)" stroke-width="1" stroke-linecap="butt" stroke-miterlimit="10" stroke-linejoin="miter" fill="none" stroke="#000000" d="M4140.9 3603.2 4525.6 3478.2 4763.4 3805.5 4525.6 4132.7 4140.9 4007.7Z"/>
<path transform="matrix(.1,0,0,-.1,0,792)" d="M4140.9 4007.7 4525.6 4132.7 4287.9 4460 4140.9 4257.7Z" fill="#5c6600"/>
<path transform="matrix(.1,0,0,-.1,0,792)" stroke-width="1" stroke-linecap="butt" stroke-miterlimit="10" stroke-linejoin="miter" fill="none" stroke="#000000" d="M4140.9 4007.7 4525.6 4132.7 4287.9 4460 4140.9 4257.7Z"/>
<path transform="matrix(.1,0,0,-.1,0,792)" d="M4140.9 4912.3 4525.6 4787.3 4763.4 5114.5 4525.6 5441.8 4140.9 5316.8" fill="#ffde66"/>
<path transform="matrix(.1,0,0,-.1,0,792)" stroke-width="1" stroke-linecap="butt" stroke-miterlimit="10" stroke-linejoin="miter" fill="none" stroke="#000000" d="M4140.9 4912.3 4525.6 4787.3 4763.4 5114.5 4525.6 5441.8 4140.9 5316.8Z"/>
<path transform="matrix(.1,0,0,-.1,0,792)" d="M4140.9 5316.8 4525.6 5441.8 4287.9 5769 4140.9 5566.8Z" fill="#5c6600"/>
<path transform="matrix(.1,0,0,-.1,0,792)" stroke-width="1" stroke-linecap="butt" stroke-miterlimit="10" stroke-linejoin="miter" fill="none" stroke="#000000" d="M4140.9 5316.8 4525.6 5441.8 4287.9 5769 4140.9 5566.8Z"/>
<path transform="matrix(.1,0,0,-.1,0,792)" d="M1798 5769 1560.2 6096.3 1175.5 5971.3V5566.8L1560.2 5441.8" fill="#ffde66"/>
<path transform="matrix(.1,0,0,-.1,0,792)" stroke-width="1" stroke-linecap="butt" stroke-miterlimit="10" stroke-linejoin="miter" fill="none" stroke="#000000" d="M1798 5769 1560.2 6096.3 1175.5 5971.3V5566.8L1560.2 5441.8Z"/>
<path transform="matrix(.1,0,0,-.1,0,792)" d="M1798 5769 2035.7 6096.3 2420.5 5971.3V6375.8L2805.2 6500.8 2567.4 6828 2329.6 6500.8 1944.9 6625.8V6221.3L1560.2 6096.3" fill="#805900"/>
<path transform="matrix(.1,0,0,-.1,0,792)" stroke-width="1" stroke-linecap="butt" stroke-miterlimit="10" stroke-linejoin="miter" fill="none" stroke="#000000" d="M1798 5769 2035.7 6096.3 2420.5 5971.3V6375.8L2805.2 6500.8 2567.4 6828 2329.6 6500.8 1944.9 6625.8V6221.3L1560.2 6096.3Z"/>
<path transform="matrix(.1,0,0,-.1,0,792)" d="M1798 4460 1560.2 4787.3 1175.5 4662.3V4257.7L1560.2 4132.7" fill="#ffde66"/>
<path transform="matrix(.1,0,0,-.1,0,792)" stroke-width="1" stroke-linecap="butt" stroke-miterlimit="10" stroke-linejoin="miter" fill="none" stroke="#000000" d="M1798 4460 1560.2 4787.3 1175.5 4662.3V4257.7L1560.2 4132.7Z"/>
<path transform="matrix(.1,0,0,-.1,0,792)" d="M1798 3151 1560.2 3478.2 1175.5 3353.2V2948.7L1560.2 2823.7" fill="#ffde66"/>
<path transform="matrix(.1,0,0,-.1,0,792)" stroke-width="1" stroke-linecap="butt" stroke-miterlimit="10" stroke-linejoin="miter" fill="none" stroke="#000000" d="M1798 3151 1560.2 3478.2 1175.5 3353.2V2948.7L1560.2 2823.7Z"/>
<path transform="matrix(.1,0,0,-.1,0,792)" d="M2805.2 2573.7 2420.5 2448.7V2044.2L2805.2 1919.2 3042.9 2246.5" fill="#ffde66"/>
<path transform="matrix(.1,0,0,-.1,0,792)" stroke-width="1" stroke-linecap="butt" stroke-miterlimit="10" stroke-linejoin="miter" fill="none" stroke="#000000" d="M2805.2 2573.7 2420.5 2448.7V2044.2L2805.2 1919.2 3042.9 2246.5Z"/>
<path transform="matrix(.1,0,0,-.1,0,792)" d="M3280.7 2573.7 3042.9 2246.5 3280.7 1919.2 3665.4 2044.2V2448.7" fill="#ffde66"/>
<path transform="matrix(.1,0,0,-.1,0,792)" stroke-width="1" stroke-linecap="butt" stroke-miterlimit="10" stroke-linejoin="miter" fill="none" stroke="#000000" d="M3280.7 2573.7 3042.9 2246.5 3280.7 1919.2 3665.4 2044.2V2448.7Z"/>
<path transform="matrix(.1,0,0,-.1,0,792)" d="M3280.7 5846.3 3665.4 5971.3V6375.8L3280.7 6500.8 3042.9 6173.5" fill="#ffde66"/>
<path transform="matrix(.1,0,0,-.1,0,792)" stroke-width="1" stroke-linecap="butt" stroke-miterlimit="10" stroke-linejoin="miter" fill="none" stroke="#000000" d="M3280.7 5846.3 3665.4 5971.3V6375.8L3280.7 6500.8 3042.9 6173.5Z"/>
<path transform="matrix(.1,0,0,-.1,0,792)" d="M2805.2 5846.3 3042.9 6173.5 2805.2 6500.8 2420.5 6375.8V5971.3" fill="#ffde66"/>
<path transform="matrix(.1,0,0,-.1,0,792)" stroke-width="1" stroke-linecap="butt" stroke-miterlimit="10" stroke-linejoin="miter" fill="none" stroke="#000000" d="M2805.2 5846.3 3042.9 6173.5 2805.2 6500.8 2420.5 6375.8V5971.3Z"/>
<path transform="matrix(.1,0,0,-.1,0,792)" d="M3665.4 5971.3 4050.1 6096.3 4287.9 5769 4525.6 6096.3 4140.9 6221.3V6625.8L3756.2 6500.8 3518.5 6828 3280.7 6500.8 3665.4 6375.8" fill="#805900"/>
<path transform="matrix(.1,0,0,-.1,0,792)" stroke-width="1" stroke-linecap="butt" stroke-miterlimit="10" stroke-linejoin="miter" fill="none" stroke="#000000" d="M3665.4 5971.3 4050.1 6096.3 4287.9 5769 4525.6 6096.3 4140.9 6221.3V6625.8L3756.2 6500.8 3518.5 6828 3280.7 6500.8 3665.4 6375.8Z"/>
<path transform="matrix(.1,0,0,-.1,0,792)" d="M4287.9 5769 4525.6 5441.8 4910.4 5566.8V5971.3L4525.6 6096.3" fill="#ffde66"/>
<path transform="matrix(.1,0,0,-.1,0,792)" stroke-width="1" stroke-linecap="butt" stroke-miterlimit="10" stroke-linejoin="miter" fill="none" stroke="#000000" d="M4287.9 5769 4525.6 5441.8 4910.4 5566.8V5971.3L4525.6 6096.3Z"/>
<path transform="matrix(.1,0,0,-.1,0,792)" d="M4287.9 3151 4525.6 2823.7 4910.4 2948.7V3353.2L4525.6 3478.2" fill="#ffde66"/>
<path transform="matrix(.1,0,0,-.1,0,792)" stroke-width="1" stroke-linecap="butt" stroke-miterlimit="10" stroke-linejoin="miter" fill="none" stroke="#000000" d="M4287.9 3151 4525.6 2823.7 4910.4 2948.7V3353.2L4525.6 3478.2Z"/>
<path transform="matrix(.1,0,0,-.1,0,792)" d="M4287.9 4460 4525.6 4132.7 4910.4 4257.7V4662.3L4525.6 4787.3" fill="#ffde66"/>
<path transform="matrix(.1,0,0,-.1,0,792)" stroke-width="1" stroke-linecap="butt" stroke-miterlimit="10" stroke-linejoin="miter" fill="none" stroke="#000000" d="M4287.9 4460 4525.6 4132.7 4910.4 4257.7V4662.3L4525.6 4787.3Z"/>
<path transform="matrix(.1,0,0,-.1,0,792)" d="M1560.2 6096.3 1322.5 6423.5 1175.5 6221.3V5971.3Z" fill="#5c6600"/>
<path transform="matrix(.1,0,0,-.1,0,792)" stroke-width="1" stroke-linecap="butt" stroke-miterlimit="10" stroke-linejoin="miter" fill="none" stroke="#000000" d="M1560.2 6096.3 1322.5 6423.5 1175.5 6221.3V5971.3Z"/>
<path transform="matrix(.1,0,0,-.1,0,792)" d="M1560.2 6096.3 1944.9 6221.3V6625.8L1560.2 6750.8 1322.5 6423.5" fill="#ffde66"/>
<path transform="matrix(.1,0,0,-.1,0,792)" stroke-width="1" stroke-linecap="butt" stroke-miterlimit="10" stroke-linejoin="miter" fill="none" stroke="#000000" d="M1560.2 6096.3 1944.9 6221.3V6625.8L1560.2 6750.8 1322.5 6423.5Z"/>
<path transform="matrix(.1,0,0,-.1,0,792)" d="M1560.2 5441.8 1175.5 5566.8V5971.3L790.801 5846.3 553 6173.5 315.301 5846.3 700 5721.3V5316.8L1084.7 5441.8 1322.5 5114.5" fill="#805900"/>
<path transform="matrix(.1,0,0,-.1,0,792)" stroke-width="1" stroke-linecap="butt" stroke-miterlimit="10" stroke-linejoin="miter" fill="none" stroke="#000000" d="M1560.2 5441.8 1175.5 5566.8V5971.3L790.801 5846.3 553 6173.5 315.301 5846.3 700 5721.3V5316.8L1084.7 5441.8 1322.5 5114.5Z"/>
<path transform="matrix(.1,0,0,-.1,0,792)" d="M1560.2 4787.3 1322.5 5114.5 1175.5 4912.3V4662.3Z" fill="#5c6600"/>
<path transform="matrix(.1,0,0,-.1,0,792)" stroke-width="1" stroke-linecap="butt" stroke-miterlimit="10" stroke-linejoin="miter" fill="none" stroke="#000000" d="M1560.2 4787.3 1322.5 5114.5 1175.5 4912.3V4662.3Z"/>
<path transform="matrix(.1,0,0,-.1,0,792)" d="M1560.2 4132.7 1175.5 4257.7V4662.3L790.801 4537.3 553 4864.5 315.301 4537.3 700 4412.3V4007.7L1084.7 4132.7 1322.5 3805.5" fill="#805900"/>
<path transform="matrix(.1,0,0,-.1,0,792)" stroke-width="1" stroke-linecap="butt" stroke-miterlimit="10" stroke-linejoin="miter" fill="none" stroke="#000000" d="M1560.2 4132.7 1175.5 4257.7V4662.3L790.801 4537.3 553 4864.5 315.301 4537.3 700 4412.3V4007.7L1084.7 4132.7 1322.5 3805.5Z"/>
<path transform="matrix(.1,0,0,-.1,0,792)" d="M1560.2 3478.2 1322.5 3805.5 1175.5 3603.2V3353.2Z" fill="#5c6600"/>
<path transform="matrix(.1,0,0,-.1,0,792)" stroke-width="1" stroke-linecap="butt" stroke-miterlimit="10" stroke-linejoin="miter" fill="none" stroke="#000000" d="M1560.2 3478.2 1322.5 3805.5 1175.5 3603.2V3353.2Z"/>
<path transform="matrix(.1,0,0,-.1,0,792)" d="M1560.2 2823.7 1175.5 2948.7V3353.2L790.801 3228.2 553 3555.5 315.301 3228.2 700 3103.2V2698.7L1084.7 2823.7 1322.5 2496.5" fill="#805900"/>
<path transform="matrix(.1,0,0,-.1,0,792)" stroke-width="1" stroke-linecap="butt" stroke-miterlimit="10" stroke-linejoin="miter" fill="none" stroke="#000000" d="M1560.2 2823.7 1175.5 2948.7V3353.2L790.801 3228.2 553 3555.5 315.301 3228.2 700 3103.2V2698.7L1084.7 2823.7 1322.5 2496.5Z"/>
<path transform="matrix(.1,0,0,-.1,0,792)" d="M3042.9 2246.5 2805.2 1919.2 3042.9 1842 3280.7 1919.2Z" fill="#5c6600"/>
<path transform="matrix(.1,0,0,-.1,0,792)" stroke-width="1" stroke-linecap="butt" stroke-miterlimit="10" stroke-linejoin="miter" fill="none" stroke="#000000" d="M3042.9 2246.5 2805.2 1919.2 3042.9 1842 3280.7 1919.2Z"/>
<path transform="matrix(.1,0,0,-.1,0,792)" d="M3042.9 6173.5 3280.7 6500.8 3042.9 6578 2805.2 6500.8Z" fill="#5c6600"/>
<path transform="matrix(.1,0,0,-.1,0,792)" stroke-width="1" stroke-linecap="butt" stroke-miterlimit="10" stroke-linejoin="miter" fill="none" stroke="#000000" d="M3042.9 6173.5 3280.7 6500.8 3042.9 6578 2805.2 6500.8Z"/>
<path transform="matrix(.1,0,0,-.1,0,792)" d="M4140.9 6221.3 4525.6 6096.3 4763.4 6423.5 4525.6 6750.8 4140.9 6625.8" fill="#ffde66"/>
<path transform="matrix(.1,0,0,-.1,0,792)" stroke-width="1" stroke-linecap="butt" stroke-miterlimit="10" stroke-linejoin="miter" fill="none" stroke="#000000" d="M4140.9 6221.3 4525.6 6096.3 4763.4 6423.5 4525.6 6750.8 4140.9 6625.8Z"/>
<path transform="matrix(.1,0,0,-.1,0,792)" d="M1560.2 2169.2 1175.5 2044.2V1639.7L1560.2 1514.7 1798 1842" fill="#ffde66"/>
<path transform="matrix(.1,0,0,-.1,0,792)" stroke-width="1" stroke-linecap="butt" stroke-miterlimit="10" stroke-linejoin="miter" fill="none" stroke="#000000" d="M1560.2 2169.2 1175.5 2044.2V1639.7L1560.2 1514.7 1798 1842Z"/>
<path transform="matrix(.1,0,0,-.1,0,792)" d="M1560.2 2169.2 1322.5 2496.5 1175.5 2294.2V2044.2Z" fill="#5c6600"/>
<path transform="matrix(.1,0,0,-.1,0,792)" stroke-width="1" stroke-linecap="butt" stroke-miterlimit="10" stroke-linejoin="miter" fill="none" stroke="#000000" d="M1560.2 2169.2 1322.5 2496.5 1175.5 2294.2V2044.2Z"/>
<path transform="matrix(.1,0,0,-.1,0,792)" d="M2035.7 2169.2 1798 1842 1944.9 1639.7V1389.7L2329.6 1264.7 2567.4 1592 2420.5 1794.2V2044.2" fill="#ffffff"/>
<path transform="matrix(.1,0,0,-.1,0,792)" stroke-width="1" stroke-linecap="butt" stroke-miterlimit="10" stroke-linejoin="miter" fill="none" stroke="#000000" d="M2035.7 2169.2 1798 1842 1944.9 1639.7V1389.7L2329.6 1264.7 2567.4 1592 2420.5 1794.2V2044.2Z"/>
<path transform="matrix(.1,0,0,-.1,0,792)" d="M4050.1 2169.2 3665.4 2044.2V1794.2L3518.5 1592 3756.2 1264.7 4140.9 1389.7V1639.7L4287.9 1842" fill="#ffffff"/>
<path transform="matrix(.1,0,0,-.1,0,792)" stroke-width="1" stroke-linecap="butt" stroke-miterlimit="10" stroke-linejoin="miter" fill="none" stroke="#000000" d="M4050.1 2169.2 3665.4 2044.2V1794.2L3518.5 1592 3756.2 1264.7 4140.9 1389.7V1639.7L4287.9 1842Z"/>
<path transform="matrix(.1,0,0,-.1,0,792)" d="M4525.6 2169.2 4910.4 2044.2V2294.2L4763.4 2496.5Z" fill="#5c6600"/>
<path transform="matrix(.1,0,0,-.1,0,792)" stroke-width="1" stroke-linecap="butt" stroke-miterlimit="10" stroke-linejoin="miter" fill="none" stroke="#000000" d="M4525.6 2169.2 4910.4 2044.2V2294.2L4763.4 2496.5Z"/>
<path transform="matrix(.1,0,0,-.1,0,792)" d="M4525.6 2169.2 4287.9 1842 4525.6 1514.7 4910.4 1639.7V2044.2" fill="#ffde66"/>
<path transform="matrix(.1,0,0,-.1,0,792)" stroke-width="1" stroke-linecap="butt" stroke-miterlimit="10" stroke-linejoin="miter" fill="none" stroke="#000000" d="M4525.6 2169.2 4287.9 1842 4525.6 1514.7 4910.4 1639.7V2044.2Z"/>
<path transform="matrix(.1,0,0,-.1,0,792)" d="M4525.6 2823.7 4763.4 2496.5 5001.2 2823.7 5385.9 2698.7V3103.2L5770.6 3228.2 5532.8 3555.5 5295.1 3228.2 4910.4 3353.2V2948.7" fill="#805900"/>
<path transform="matrix(.1,0,0,-.1,0,792)" stroke-width="1" stroke-linecap="butt" stroke-miterlimit="10" stroke-linejoin="miter" fill="none" stroke="#000000" d="M4525.6 2823.7 4763.4 2496.5 5001.2 2823.7 5385.9 2698.7V3103.2L5770.6 3228.2 5532.8 3555.5 5295.1 3228.2 4910.4 3353.2V2948.7Z"/>
<path transform="matrix(.1,0,0,-.1,0,792)" d="M4525.6 3478.2 4910.4 3353.2V3603.2L4763.4 3805.5Z" fill="#5c6600"/>
<path transform="matrix(.1,0,0,-.1,0,792)" stroke-width="1" stroke-linecap="butt" stroke-miterlimit="10" stroke-linejoin="miter" fill="none" stroke="#000000" d="M4525.6 3478.2 4910.4 3353.2V3603.2L4763.4 3805.5Z"/>
<path transform="matrix(.1,0,0,-.1,0,792)" d="M4525.6 4132.7 4763.4 3805.5 5001.2 4132.7 5385.9 4007.7V4412.3L5770.6 4537.3 5532.8 4864.5 5295.1 4537.3 4910.4 4662.3V4257.7" fill="#805900"/>
<path transform="matrix(.1,0,0,-.1,0,792)" stroke-width="1" stroke-linecap="butt" stroke-miterlimit="10" stroke-linejoin="miter" fill="none" stroke="#000000" d="M4525.6 4132.7 4763.4 3805.5 5001.2 4132.7 5385.9 4007.7V4412.3L5770.6 4537.3 5532.8 4864.5 5295.1 4537.3 4910.4 4662.3V4257.7Z"/>
<path transform="matrix(.1,0,0,-.1,0,792)" d="M4525.6 4787.3 4910.4 4662.3V4912.3L4763.4 5114.5Z" fill="#5c6600"/>
<path transform="matrix(.1,0,0,-.1,0,792)" stroke-width="1" stroke-linecap="butt" stroke-miterlimit="10" stroke-linejoin="miter" fill="none" stroke="#000000" d="M4525.6 4787.3 4910.4 4662.3V4912.3L4763.4 5114.5Z"/>
<path transform="matrix(.1,0,0,-.1,0,792)" d="M4525.6 5441.8 4763.4 5114.5 5001.2 5441.8 5385.9 5316.8V5721.3L5770.6 5846.3 5532.8 6173.5 5295.1 5846.3 4910.4 5971.3V5566.8" fill="#805900"/>
<path transform="matrix(.1,0,0,-.1,0,792)" stroke-width="1" stroke-linecap="butt" stroke-miterlimit="10" stroke-linejoin="miter" fill="none" stroke="#000000" d="M4525.6 5441.8 4763.4 5114.5 5001.2 5441.8 5385.9 5316.8V5721.3L5770.6 5846.3 5532.8 6173.5 5295.1 5846.3 4910.4 5971.3V5566.8Z"/>
<path transform="matrix(.1,0,0,-.1,0,792)" d="M4525.6 6096.3 4910.4 5971.3V6221.3L4763.4 6423.5Z" fill="#5c6600"/>
<path transform="matrix(.1,0,0,-.1,0,792)" stroke-width="1" stroke-linecap="butt" stroke-miterlimit="10" stroke-linejoin="miter" fill="none" stroke="#000000" d="M4525.6 6096.3 4910.4 5971.3V6221.3L4763.4 6423.5Z"/>
<path transform="matrix(.1,0,0,-.1,0,792)" d="M2420.5 2044.2V1794.2L2567.4 1592 2805.2 1919.2Z" fill="#5c6600"/>
<path transform="matrix(.1,0,0,-.1,0,792)" stroke-width="1" stroke-linecap="butt" stroke-miterlimit="10" stroke-linejoin="miter" fill="none" stroke="#000000" d="M2420.5 2044.2V1794.2L2567.4 1592 2805.2 1919.2Z"/>
<path transform="matrix(.1,0,0,-.1,0,792)" d="M3665.4 2044.2 3280.7 1919.2 3518.5 1592 3665.4 1794.2Z" fill="#5c6600"/>
<path transform="matrix(.1,0,0,-.1,0,792)" stroke-width="1" stroke-linecap="butt" stroke-miterlimit="10" stroke-linejoin="miter" fill="none" stroke="#000000" d="M3665.4 2044.2 3280.7 1919.2 3518.5 1592 3665.4 1794.2Z"/>
<path transform="matrix(.1,0,0,-.1,0,792)" d="M1322.5 6423.5 1084.7 6750.8 700 6625.8V6375.8L553 6173.5 790.801 5846.3 1175.5 5971.3V6221.3" fill="#ffffff"/>
<path transform="matrix(.1,0,0,-.1,0,792)" stroke-width="1" stroke-linecap="butt" stroke-miterlimit="10" stroke-linejoin="miter" fill="none" stroke="#000000" d="M1322.5 6423.5 1084.7 6750.8 700 6625.8V6375.8L553 6173.5 790.801 5846.3 1175.5 5971.3V6221.3Z"/>
<path transform="matrix(.1,0,0,-.1,0,792)" d="M1322.5 6423.5 1560.2 6750.8 1175.5 6875.8V7280.3L790.801 7155.3 553 7482.5 315.301 7155.3 700 7030.3V6625.8L1084.7 6750.8" fill="#805900"/>
<path transform="matrix(.1,0,0,-.1,0,792)" stroke-width="1" stroke-linecap="butt" stroke-miterlimit="10" stroke-linejoin="miter" fill="none" stroke="#000000" d="M1322.5 6423.5 1560.2 6750.8 1175.5 6875.8V7280.3L790.801 7155.3 553 7482.5 315.301 7155.3 700 7030.3V6625.8L1084.7 6750.8Z"/>
<path transform="matrix(.1,0,0,-.1,0,792)" d="M1322.5 5114.5 1084.7 5441.8 700 5316.8V5066.8L553 4864.5 790.801 4537.3 1175.5 4662.3V4912.3" fill="#ffffff"/>
<path transform="matrix(.1,0,0,-.1,0,792)" stroke-width="1" stroke-linecap="butt" stroke-miterlimit="10" stroke-linejoin="miter" fill="none" stroke="#000000" d="M1322.5 5114.5 1084.7 5441.8 700 5316.8V5066.8L553 4864.5 790.801 4537.3 1175.5 4662.3V4912.3Z"/>
<path transform="matrix(.1,0,0,-.1,0,792)" d="M1322.5 3805.5 1084.7 4132.7 700 4007.7V3757.7L553 3555.5 790.801 3228.2 1175.5 3353.2V3603.2" fill="#ffffff"/>
<path transform="matrix(.1,0,0,-.1,0,792)" stroke-width="1" stroke-linecap="butt" stroke-miterlimit="10" stroke-linejoin="miter" fill="none" stroke="#000000" d="M1322.5 3805.5 1084.7 4132.7 700 4007.7V3757.7L553 3555.5 790.801 3228.2 1175.5 3353.2V3603.2Z"/>
<path transform="matrix(.1,0,0,-.1,0,792)" d="M1322.5 2496.5 1084.7 2823.7 700 2698.7V2448.7L553 2246.5 790.801 1919.2 1175.5 2044.2V2294.2" fill="#ffffff"/>
<path transform="matrix(.1,0,0,-.1,0,792)" stroke-width="1" stroke-linecap="butt" stroke-miterlimit="10" stroke-linejoin="miter" fill="none" stroke="#000000" d="M1322.5 2496.5 1084.7 2823.7 700 2698.7V2448.7L553 2246.5 790.801 1919.2 1175.5 2044.2V2294.2Z"/>
<path transform="matrix(.1,0,0,-.1,0,792)" d="M2805.2 1919.2 2567.4 1592 2805.2 1264.7 3042.9 1342 3280.7 1264.7 3518.5 1592 3280.7 1919.2 3042.9 1842" fill="#ffffff"/>
<path transform="matrix(.1,0,0,-.1,0,792)" stroke-width="1" stroke-linecap="butt" stroke-miterlimit="10" stroke-linejoin="miter" fill="none" stroke="#000000" d="M2805.2 1919.2 2567.4 1592 2805.2 1264.7 3042.9 1342 3280.7 1264.7 3518.5 1592 3280.7 1919.2 3042.9 1842Z"/>
<path transform="matrix(.1,0,0,-.1,0,792)" d="M3756.2 6500.8 4140.9 6625.8V6875.8L4287.9 7078 4050.1 7405.3 3665.4 7280.3V7030.3L3518.5 6828" fill="#ffffff"/>
<path transform="matrix(.1,0,0,-.1,0,792)" stroke-width="1" stroke-linecap="butt" stroke-miterlimit="10" stroke-linejoin="miter" fill="none" stroke="#000000" d="M3756.2 6500.8 4140.9 6625.8V6875.8L4287.9 7078 4050.1 7405.3 3665.4 7280.3V7030.3L3518.5 6828Z"/>
<path transform="matrix(.1,0,0,-.1,0,792)" d="M3280.7 6500.8 3518.5 6828 3280.7 7155.3 3042.9 7078 2805.2 7155.3 2567.4 6828 2805.2 6500.8 3042.9 6578" fill="#ffffff"/>
<path transform="matrix(.1,0,0,-.1,0,792)" stroke-width="1" stroke-linecap="butt" stroke-miterlimit="10" stroke-linejoin="miter" fill="none" stroke="#000000" d="M3280.7 6500.8 3518.5 6828 3280.7 7155.3 3042.9 7078 2805.2 7155.3 2567.4 6828 2805.2 6500.8 3042.9 6578Z"/>
<path transform="matrix(.1,0,0,-.1,0,792)" d="M2329.6 6500.8 2567.4 6828 2420.5 7030.3V7280.3L2035.7 7405.3 1798 7078 1944.9 6875.8V6625.8" fill="#ffffff"/>
<path transform="matrix(.1,0,0,-.1,0,792)" stroke-width="1" stroke-linecap="butt" stroke-miterlimit="10" stroke-linejoin="miter" fill="none" stroke="#000000" d="M2329.6 6500.8 2567.4 6828 2420.5 7030.3V7280.3L2035.7 7405.3 1798 7078 1944.9 6875.8V6625.8Z"/>
<path transform="matrix(.1,0,0,-.1,0,792)" d="M1798 1842 1560.2 1514.7 1944.9 1389.7V1639.7Z" fill="#5c6600"/>
<path transform="matrix(.1,0,0,-.1,0,792)" stroke-width="1" stroke-linecap="butt" stroke-miterlimit="10" stroke-linejoin="miter" fill="none" stroke="#000000" d="M1798 1842 1560.2 1514.7 1944.9 1389.7V1639.7Z"/>
<path transform="matrix(.1,0,0,-.1,0,792)" d="M4287.9 1842 4140.9 1639.7V1389.7L4525.6 1514.7Z" fill="#5c6600"/>
<path transform="matrix(.1,0,0,-.1,0,792)" stroke-width="1" stroke-linecap="butt" stroke-miterlimit="10" stroke-linejoin="miter" fill="none" stroke="#000000" d="M4287.9 1842 4140.9 1639.7V1389.7L4525.6 1514.7Z"/>
<path transform="matrix(.1,0,0,-.1,0,792)" d="M4140.9 6625.8 4525.6 6750.8 4287.9 7078 4140.9 6875.8Z" fill="#5c6600"/>
<path transform="matrix(.1,0,0,-.1,0,792)" stroke-width="1" stroke-linecap="butt" stroke-miterlimit="10" stroke-linejoin="miter" fill="none" stroke="#000000" d="M4140.9 6625.8 4525.6 6750.8 4287.9 7078 4140.9 6875.8Z"/>
<path transform="matrix(.1,0,0,-.1,0,792)" d="M1944.9 6625.8V6875.8L1798 7078 1560.2 6750.8Z" fill="#5c6600"/>
<path transform="matrix(.1,0,0,-.1,0,792)" stroke-width="1" stroke-linecap="butt" stroke-miterlimit="10" stroke-linejoin="miter" fill="none" stroke="#000000" d="M1944.9 6625.8V6875.8L1798 7078 1560.2 6750.8Z"/>
<path transform="matrix(.1,0,0,-.1,0,792)" d="M4763.4 2496.5 4910.4 2294.2V2044.2L5295.1 1919.2 5532.8 2246.5 5385.9 2448.7V2698.7L5001.2 2823.7" fill="#ffffff"/>
<path transform="matrix(.1,0,0,-.1,0,792)" stroke-width="1" stroke-linecap="butt" stroke-miterlimit="10" stroke-linejoin="miter" fill="none" stroke="#000000" d="M4763.4 2496.5 4910.4 2294.2V2044.2L5295.1 1919.2 5532.8 2246.5 5385.9 2448.7V2698.7L5001.2 2823.7Z"/>
<path transform="matrix(.1,0,0,-.1,0,792)" d="M4763.4 3805.5 4910.4 3603.2V3353.2L5295.1 3228.2 5532.8 3555.5 5385.9 3757.7V4007.7L5001.2 4132.7" fill="#ffffff"/>
<path transform="matrix(.1,0,0,-.1,0,792)" stroke-width="1" stroke-linecap="butt" stroke-miterlimit="10" stroke-linejoin="miter" fill="none" stroke="#000000" d="M4763.4 3805.5 4910.4 3603.2V3353.2L5295.1 3228.2 5532.8 3555.5 5385.9 3757.7V4007.7L5001.2 4132.7Z"/>
<path transform="matrix(.1,0,0,-.1,0,792)" d="M4763.4 5114.5 4910.4 4912.3V4662.3L5295.1 4537.3 5532.8 4864.5 5385.9 5066.8V5316.8L5001.2 5441.8" fill="#ffffff"/>
<path transform="matrix(.1,0,0,-.1,0,792)" stroke-width="1" stroke-linecap="butt" stroke-miterlimit="10" stroke-linejoin="miter" fill="none" stroke="#000000" d="M4763.4 5114.5 4910.4 4912.3V4662.3L5295.1 4537.3 5532.8 4864.5 5385.9 5066.8V5316.8L5001.2 5441.8Z"/>
<path transform="matrix(.1,0,0,-.1,0,792)" d="M4763.4 6423.5 5001.2 6750.8 5385.9 6625.8V7030.3L5770.6 7155.3 5532.8 7482.5 5295.1 7155.3 4910.4 7280.3V6875.8L4525.6 6750.8" fill="#805900"/>
<path transform="matrix(.1,0,0,-.1,0,792)" stroke-width="1" stroke-linecap="butt" stroke-miterlimit="10" stroke-linejoin="miter" fill="none" stroke="#000000" d="M4763.4 6423.5 5001.2 6750.8 5385.9 6625.8V7030.3L5770.6 7155.3 5532.8 7482.5 5295.1 7155.3 4910.4 7280.3V6875.8L4525.6 6750.8Z"/>
<path transform="matrix(.1,0,0,-.1,0,792)" d="M4763.4 6423.5 4910.4 6221.3V5971.3L5295.1 5846.3 5532.8 6173.5 5385.9 6375.8V6625.8L5001.2 6750.8" fill="#ffffff"/>
<path transform="matrix(.1,0,0,-.1,0,792)" stroke-width="1" stroke-linecap="butt" stroke-miterlimit="10" stroke-linejoin="miter" fill="none" stroke="#000000" d="M4763.4 6423.5 4910.4 6221.3V5971.3L5295.1 5846.3 5532.8 6173.5 5385.9 6375.8V6625.8L5001.2 6750.8Z"/>
<path transform="matrix(.1,0,0,-.1,0,792)" d="M1175.5 2044.2 790.801 1919.2 553 2246.5 315.301 1919.2 700 1794.2V1389.7L1084.7 1514.7 1322.5 1187.5 1560.2 1514.7 1175.5 1639.7" fill="#805900"/>
<path transform="matrix(.1,0,0,-.1,0,792)" stroke-width="1" stroke-linecap="butt" stroke-miterlimit="10" stroke-linejoin="miter" fill="none" stroke="#000000" d="M1175.5 2044.2 790.801 1919.2 553 2246.5 315.301 1919.2 700 1794.2V1389.7L1084.7 1514.7 1322.5 1187.5 1560.2 1514.7 1175.5 1639.7Z"/>
<path transform="matrix(.1,0,0,-.1,0,792)" d="M4525.6 6750.8 4910.4 6875.8V7280.3L4525.6 7405.3 4287.9 7078" fill="#ffde66"/>
<path transform="matrix(.1,0,0,-.1,0,792)" stroke-width="1" stroke-linecap="butt" stroke-miterlimit="10" stroke-linejoin="miter" fill="none" stroke="#000000" d="M4525.6 6750.8 4910.4 6875.8V7280.3L4525.6 7405.3 4287.9 7078Z"/>
<path transform="matrix(.1,0,0,-.1,0,792)" d="M1560.2 6750.8 1798 7078 1560.2 7405.3 1175.5 7280.3V6875.8" fill="#ffde66"/>
<path transform="matrix(.1,0,0,-.1,0,792)" stroke-width="1" stroke-linecap="butt" stroke-miterlimit="10" stroke-linejoin="miter" fill="none" stroke="#000000" d="M1560.2 6750.8 1798 7078 1560.2 7405.3 1175.5 7280.3V6875.8Z"/>
<path transform="matrix(.1,0,0,-.1,0,792)" d="M2567.4 1592 2329.6 1264.7 1944.9 1389.7V985.199L1560.2 860.199 1798 532.898 2035.7 860.199 2420.5 735.199V1139.7L2805.2 1264.7" fill="#805900"/>
<path transform="matrix(.1,0,0,-.1,0,792)" stroke-width="1" stroke-linecap="butt" stroke-miterlimit="10" stroke-linejoin="miter" fill="none" stroke="#000000" d="M2567.4 1592 2329.6 1264.7 1944.9 1389.7V985.199L1560.2 860.199 1798 532.898 2035.7 860.199 2420.5 735.199V1139.7L2805.2 1264.7Z"/>
<path transform="matrix(.1,0,0,-.1,0,792)" d="M3518.5 1592 3280.7 1264.7 3665.4 1139.7V735.199L4050.1 860.199 4287.9 532.898 4525.6 860.199 4140.9 985.199V1389.7L3756.2 1264.7" fill="#805900"/>
<path transform="matrix(.1,0,0,-.1,0,792)" stroke-width="1" stroke-linecap="butt" stroke-miterlimit="10" stroke-linejoin="miter" fill="none" stroke="#000000" d="M3518.5 1592 3280.7 1264.7 3665.4 1139.7V735.199L4050.1 860.199 4287.9 532.898 4525.6 860.199 4140.9 985.199V1389.7L3756.2 1264.7Z"/>
<path transform="matrix(.1,0,0,-.1,0,792)" d="M3518.5 6828 3665.4 7030.3V7280.3L3280.7 7155.3Z" fill="#5c6600"/>
<path transform="matrix(.1,0,0,-.1,0,792)" stroke-width="1" stroke-linecap="butt" stroke-miterlimit="10" stroke-linejoin="miter" fill="none" stroke="#000000" d="M3518.5 6828 3665.4 7030.3V7280.3L3280.7 7155.3Z"/>
<path transform="matrix(.1,0,0,-.1,0,792)" d="M2567.4 6828 2805.2 7155.3 2420.5 7280.3V7030.3Z" fill="#5c6600"/>
<path transform="matrix(.1,0,0,-.1,0,792)" stroke-width="1" stroke-linecap="butt" stroke-miterlimit="10" stroke-linejoin="miter" fill="none" stroke="#000000" d="M2567.4 6828 2805.2 7155.3 2420.5 7280.3V7030.3Z"/>
<path transform="matrix(.1,0,0,-.1,0,792)" d="M4910.4 1639.7 4525.6 1514.7 4763.4 1187.5 5001.2 1514.7 5385.9 1389.7V1794.2L5770.6 1919.2 5532.8 2246.5 5295.1 1919.2 4910.4 2044.2" fill="#805900"/>
<path transform="matrix(.1,0,0,-.1,0,792)" stroke-width="1" stroke-linecap="butt" stroke-miterlimit="10" stroke-linejoin="miter" fill="none" stroke="#000000" d="M4910.4 1639.7 4525.6 1514.7 4763.4 1187.5 5001.2 1514.7 5385.9 1389.7V1794.2L5770.6 1919.2 5532.8 2246.5 5295.1 1919.2 4910.4 2044.2Z"/>
<path transform="matrix(.1,0,0,-.1,0,792)" d="M4525.6 1514.7 4140.9 1389.7V985.199L4525.6 860.199 4763.4 1187.5" fill="#ffde66"/>
<path transform="matrix(.1,0,0,-.1,0,792)" stroke-width="1" stroke-linecap="butt" stroke-miterlimit="10" stroke-linejoin="miter" fill="none" stroke="#000000" d="M4525.6 1514.7 4140.9 1389.7V985.199L4525.6 860.199 4763.4 1187.5Z"/>
<path transform="matrix(.1,0,0,-.1,0,792)" d="M1084.7 1514.7 700 1389.7V1139.7L553 937.5 790.801 610.199 1175.5 735.199V985.199L1322.5 1187.5" fill="#ffffff"/>
<path transform="matrix(.1,0,0,-.1,0,792)" stroke-width="1" stroke-linecap="butt" stroke-miterlimit="10" stroke-linejoin="miter" fill="none" stroke="#000000" d="M1084.7 1514.7 700 1389.7V1139.7L553 937.5 790.801 610.199 1175.5 735.199V985.199L1322.5 1187.5Z"/>
<path transform="matrix(.1,0,0,-.1,0,792)" d="M1560.2 1514.7 1322.5 1187.5 1560.2 860.199 1944.9 985.199V1389.7" fill="#ffde66"/>
<path transform="matrix(.1,0,0,-.1,0,792)" stroke-width="1" stroke-linecap="butt" stroke-miterlimit="10" stroke-linejoin="miter" fill="none" stroke="#000000" d="M1560.2 1514.7 1322.5 1187.5 1560.2 860.199 1944.9 985.199V1389.7Z"/>
<path transform="matrix(.1,0,0,-.1,0,792)" d="M5001.2 1514.7 4763.4 1187.5 4910.4 985.199V735.199L5295.1 610.199 5532.8 937.5 5385.9 1139.7V1389.7" fill="#ffffff"/>
<path transform="matrix(.1,0,0,-.1,0,792)" stroke-width="1" stroke-linecap="butt" stroke-miterlimit="10" stroke-linejoin="miter" fill="none" stroke="#000000" d="M5001.2 1514.7 4763.4 1187.5 4910.4 985.199V735.199L5295.1 610.199 5532.8 937.5 5385.9 1139.7V1389.7Z"/>
<path transform="matrix(.1,0,0,-.1,0,792)" d="M4287.9 7078 4525.6 7405.3 4140.9 7530.3V7934.8L3756.2 7809.8 3518.5 8137.1 3280.7 7809.8 3665.4 7684.8V7280.3L4050.1 7405.3" fill="#805900"/>
<path transform="matrix(.1,0,0,-.1,0,792)" stroke-width="1" stroke-linecap="butt" stroke-miterlimit="10" stroke-linejoin="miter" fill="none" stroke="#000000" d="M4287.9 7078 4525.6 7405.3 4140.9 7530.3V7934.8L3756.2 7809.8 3518.5 8137.1 3280.7 7809.8 3665.4 7684.8V7280.3L4050.1 7405.3Z"/>
<path transform="matrix(.1,0,0,-.1,0,792)" d="M3042.9 7078 3280.7 7155.3 3042.9 7482.5 2805.2 7155.3Z" fill="#5c6600"/>
<path transform="matrix(.1,0,0,-.1,0,792)" stroke-width="1" stroke-linecap="butt" stroke-miterlimit="10" stroke-linejoin="miter" fill="none" stroke="#000000" d="M3042.9 7078 3280.7 7155.3 3042.9 7482.5 2805.2 7155.3Z"/>
<path transform="matrix(.1,0,0,-.1,0,792)" d="M1798 7078 2035.7 7405.3 2420.5 7280.3V7684.8L2805.2 7809.8 2567.4 8137.1 2329.6 7809.8 1944.9 7934.8V7530.3L1560.2 7405.3" fill="#805900"/>
<path transform="matrix(.1,0,0,-.1,0,792)" stroke-width="1" stroke-linecap="butt" stroke-miterlimit="10" stroke-linejoin="miter" fill="none" stroke="#000000" d="M1798 7078 2035.7 7405.3 2420.5 7280.3V7684.8L2805.2 7809.8 2567.4 8137.1 2329.6 7809.8 1944.9 7934.8V7530.3L1560.2 7405.3Z"/>
<path transform="matrix(.1,0,0,-.1,0,792)" d="M3042.9 1342 2805.2 1264.7 3042.9 937.5 3280.7 1264.7Z" fill="#5c6600"/>
<path transform="matrix(.1,0,0,-.1,0,792)" stroke-width="1" stroke-linecap="butt" stroke-miterlimit="10" stroke-linejoin="miter" fill="none" stroke="#000000" d="M3042.9 1342 2805.2 1264.7 3042.9 937.5 3280.7 1264.7Z"/>
<path transform="matrix(.1,0,0,-.1,0,792)" d="M2805.2 1264.7 2420.5 1139.7V735.199L2805.2 610.199 3042.9 937.5" fill="#ffde66"/>
<path transform="matrix(.1,0,0,-.1,0,792)" stroke-width="1" stroke-linecap="butt" stroke-miterlimit="10" stroke-linejoin="miter" fill="none" stroke="#000000" d="M2805.2 1264.7 2420.5 1139.7V735.199L2805.2 610.199 3042.9 937.5Z"/>
<path transform="matrix(.1,0,0,-.1,0,792)" d="M3280.7 1264.7 3042.9 937.5 3280.7 610.199 3665.4 735.199V1139.7" fill="#ffde66"/>
<path transform="matrix(.1,0,0,-.1,0,792)" stroke-width="1" stroke-linecap="butt" stroke-miterlimit="10" stroke-linejoin="miter" fill="none" stroke="#000000" d="M3280.7 1264.7 3042.9 937.5 3280.7 610.199 3665.4 735.199V1139.7Z"/>
<path transform="matrix(.1,0,0,-.1,0,792)" d="M3280.7 7155.3 3665.4 7280.3V7684.8L3280.7 7809.8 3042.9 7482.5" fill="#ffde66"/>
<path transform="matrix(.1,0,0,-.1,0,792)" stroke-width="1" stroke-linecap="butt" stroke-miterlimit="10" stroke-linejoin="miter" fill="none" stroke="#000000" d="M3280.7 7155.3 3665.4 7280.3V7684.8L3280.7 7809.8 3042.9 7482.5Z"/>
<path transform="matrix(.1,0,0,-.1,0,792)" d="M2805.2 7155.3 3042.9 7482.5 2805.2 7809.8 2420.5 7684.8V7280.3" fill="#ffde66"/>
<path transform="matrix(.1,0,0,-.1,0,792)" stroke-width="1" stroke-linecap="butt" stroke-miterlimit="10" stroke-linejoin="miter" fill="none" stroke="#000000" d="M2805.2 7155.3 3042.9 7482.5 2805.2 7809.8 2420.5 7684.8V7280.3Z"/>
<path transform="matrix(.1,0,0,-.1,0,792)" d="M790.801 7155.3 1175.5 7280.3V7530.3L1322.5 7732.5 1084.7 8059.8 700 7934.8V7684.8L553 7482.5" fill="#ffffff"/>
<path transform="matrix(.1,0,0,-.1,0,792)" stroke-width="1" stroke-linecap="butt" stroke-miterlimit="10" stroke-linejoin="miter" fill="none" stroke="#000000" d="M790.801 7155.3 1175.5 7280.3V7530.3L1322.5 7732.5 1084.7 8059.8 700 7934.8V7684.8L553 7482.5Z"/>
<path transform="matrix(.1,0,0,-.1,0,792)" d="M1322.5 1187.5 1175.5 985.199V735.199L1560.2 860.199Z" fill="#5c6600"/>
<path transform="matrix(.1,0,0,-.1,0,792)" stroke-width="1" stroke-linecap="butt" stroke-miterlimit="10" stroke-linejoin="miter" fill="none" stroke="#000000" d="M1322.5 1187.5 1175.5 985.199V735.199L1560.2 860.199Z"/>
<path transform="matrix(.1,0,0,-.1,0,792)" d="M4763.4 1187.5 4525.6 860.199 4910.4 735.199V985.199Z" fill="#5c6600"/>
<path transform="matrix(.1,0,0,-.1,0,792)" stroke-width="1" stroke-linecap="butt" stroke-miterlimit="10" stroke-linejoin="miter" fill="none" stroke="#000000" d="M4763.4 1187.5 4525.6 860.199 4910.4 735.199V985.199Z"/>
<path transform="matrix(.1,0,0,-.1,0,792)" d="M4910.4 7280.3V7530.3L4763.4 7732.5 4525.6 7405.3Z" fill="#5c6600"/>
<path transform="matrix(.1,0,0,-.1,0,792)" stroke-width="1" stroke-linecap="butt" stroke-miterlimit="10" stroke-linejoin="miter" fill="none" stroke="#000000" d="M4910.4 7280.3V7530.3L4763.4 7732.5 4525.6 7405.3Z"/>
<path transform="matrix(.1,0,0,-.1,0,792)" d="M4910.4 7280.3 5295.1 7155.3 5532.8 7482.5 5385.9 7684.8V7934.8L5001.2 8059.8 4763.4 7732.5 4910.4 7530.3" fill="#ffffff"/>
<path transform="matrix(.1,0,0,-.1,0,792)" stroke-width="1" stroke-linecap="butt" stroke-miterlimit="10" stroke-linejoin="miter" fill="none" stroke="#000000" d="M4910.4 7280.3 5295.1 7155.3 5532.8 7482.5 5385.9 7684.8V7934.8L5001.2 8059.8 4763.4 7732.5 4910.4 7530.3Z"/>
<path transform="matrix(.1,0,0,-.1,0,792)" d="M1175.5 7280.3 1560.2 7405.3 1322.5 7732.5 1175.5 7530.3Z" fill="#5c6600"/>
<path transform="matrix(.1,0,0,-.1,0,792)" stroke-width="1" stroke-linecap="butt" stroke-miterlimit="10" stroke-linejoin="miter" fill="none" stroke="#000000" d="M1175.5 7280.3 1560.2 7405.3 1322.5 7732.5 1175.5 7530.3Z"/>
<path transform="matrix(.1,0,0,-.1,0,792)" d="M700 7030.3 315.301 7155.3 77.5 6828 315.301 6500.8 700 6625.8" fill="#ffde66"/>
<path transform="matrix(.1,0,0,-.1,0,792)" stroke-width="1" stroke-linecap="butt" stroke-miterlimit="10" stroke-linejoin="miter" fill="none" stroke="#000000" d="M700 7030.3 315.301 7155.3 77.5 6828 315.301 6500.8 700 6625.8Z"/>
<path transform="matrix(.1,0,0,-.1,0,792)" d="M700 6625.8 315.301 6500.8 553 6173.5 700 6375.8Z" fill="#5c6600"/>
<path transform="matrix(.1,0,0,-.1,0,792)" stroke-width="1" stroke-linecap="butt" stroke-miterlimit="10" stroke-linejoin="miter" fill="none" stroke="#000000" d="M700 6625.8 315.301 6500.8 553 6173.5 700 6375.8Z"/>
<path transform="matrix(.1,0,0,-.1,0,792)" d="M700 5721.3 315.301 5846.3 77.5 5519 315.301 5191.8 700 5316.8" fill="#ffde66"/>
<path transform="matrix(.1,0,0,-.1,0,792)" stroke-width="1" stroke-linecap="butt" stroke-miterlimit="10" stroke-linejoin="miter" fill="none" stroke="#000000" d="M700 5721.3 315.301 5846.3 77.5 5519 315.301 5191.8 700 5316.8Z"/>
<path transform="matrix(.1,0,0,-.1,0,792)" d="M700 5316.8 315.301 5191.8 553 4864.5 700 5066.8Z" fill="#5c6600"/>
<path transform="matrix(.1,0,0,-.1,0,792)" stroke-width="1" stroke-linecap="butt" stroke-miterlimit="10" stroke-linejoin="miter" fill="none" stroke="#000000" d="M700 5316.8 315.301 5191.8 553 4864.5 700 5066.8Z"/>
<path transform="matrix(.1,0,0,-.1,0,792)" d="M700 4412.3 315.301 4537.3 77.5 4210 315.301 3882.7 700 4007.7" fill="#ffde66"/>
<path transform="matrix(.1,0,0,-.1,0,792)" stroke-width="1" stroke-linecap="butt" stroke-miterlimit="10" stroke-linejoin="miter" fill="none" stroke="#000000" d="M700 4412.3 315.301 4537.3 77.5 4210 315.301 3882.7 700 4007.7Z"/>
<path transform="matrix(.1,0,0,-.1,0,792)" d="M700 4007.7 315.301 3882.7 553 3555.5 700 3757.7Z" fill="#5c6600"/>
<path transform="matrix(.1,0,0,-.1,0,792)" stroke-width="1" stroke-linecap="butt" stroke-miterlimit="10" stroke-linejoin="miter" fill="none" stroke="#000000" d="M700 4007.7 315.301 3882.7 553 3555.5 700 3757.7Z"/>
<path transform="matrix(.1,0,0,-.1,0,792)" d="M700 3103.2 315.301 3228.2 77.5 2901 315.301 2573.7 700 2698.7" fill="#ffde66"/>
<path transform="matrix(.1,0,0,-.1,0,792)" stroke-width="1" stroke-linecap="butt" stroke-miterlimit="10" stroke-linejoin="miter" fill="none" stroke="#000000" d="M700 3103.2 315.301 3228.2 77.5 2901 315.301 2573.7 700 2698.7Z"/>
<path transform="matrix(.1,0,0,-.1,0,792)" d="M700 2698.7 315.301 2573.7 553 2246.5 700 2448.7Z" fill="#5c6600"/>
<path transform="matrix(.1,0,0,-.1,0,792)" stroke-width="1" stroke-linecap="butt" stroke-miterlimit="10" stroke-linejoin="miter" fill="none" stroke="#000000" d="M700 2698.7 315.301 2573.7 553 2246.5 700 2448.7Z"/>
<path transform="matrix(.1,0,0,-.1,0,792)" d="M700 1794.2 315.301 1919.2 77.5 1592 315.301 1264.7 700 1389.7" fill="#ffde66"/>
<path transform="matrix(.1,0,0,-.1,0,792)" stroke-width="1" stroke-linecap="butt" stroke-miterlimit="10" stroke-linejoin="miter" fill="none" stroke="#000000" d="M700 1794.2 315.301 1919.2 77.5 1592 315.301 1264.7 700 1389.7Z"/>
<path transform="matrix(.1,0,0,-.1,0,792)" d="M700 1389.7 315.301 1264.7 553 937.5 700 1139.7Z" fill="#5c6600"/>
<path transform="matrix(.1,0,0,-.1,0,792)" stroke-width="1" stroke-linecap="butt" stroke-miterlimit="10" stroke-linejoin="miter" fill="none" stroke="#000000" d="M700 1389.7 315.301 1264.7 553 937.5 700 1139.7Z"/>
<path transform="matrix(.1,0,0,-.1,0,792)" d="M4525.6 7405.3 4763.4 7732.5 4525.6 8059.8 4140.9 7934.8V7530.3" fill="#ffde66"/>
<path transform="matrix(.1,0,0,-.1,0,792)" stroke-width="1" stroke-linecap="butt" stroke-miterlimit="10" stroke-linejoin="miter" fill="none" stroke="#000000" d="M4525.6 7405.3 4763.4 7732.5 4525.6 8059.8 4140.9 7934.8V7530.3Z"/>
<path transform="matrix(.1,0,0,-.1,0,792)" d="M1560.2 7405.3 1944.9 7530.3V7934.8L1560.2 8059.8 1322.5 7732.5" fill="#ffde66"/>
<path transform="matrix(.1,0,0,-.1,0,792)" stroke-width="1" stroke-linecap="butt" stroke-miterlimit="10" stroke-linejoin="miter" fill="none" stroke="#000000" d="M1560.2 7405.3 1944.9 7530.3V7934.8L1560.2 8059.8 1322.5 7732.5Z"/>
<path transform="matrix(.1,0,0,-.1,0,792)" d="M3042.9 937.5 2805.2 610.199 3042.9 532.898 3280.7 610.199Z" fill="#5c6600"/>
<path transform="matrix(.1,0,0,-.1,0,792)" stroke-width="1" stroke-linecap="butt" stroke-miterlimit="10" stroke-linejoin="miter" fill="none" stroke="#000000" d="M3042.9 937.5 2805.2 610.199 3042.9 532.898 3280.7 610.199Z"/>
<path transform="matrix(.1,0,0,-.1,0,792)" d="M3042.9 7482.5 3280.7 7809.8 3042.9 7887.1 2805.2 7809.8Z" fill="#5c6600"/>
<path transform="matrix(.1,0,0,-.1,0,792)" stroke-width="1" stroke-linecap="butt" stroke-miterlimit="10" stroke-linejoin="miter" fill="none" stroke="#000000" d="M3042.9 7482.5 3280.7 7809.8 3042.9 7887.1 2805.2 7809.8Z"/>
<path transform="matrix(.1,0,0,-.1,0,792)" d="M5385.9 1139.7 5532.8 937.5 5770.6 1264.7 5385.9 1389.7Z" fill="#5c6600"/>
<path transform="matrix(.1,0,0,-.1,0,792)" stroke-width="1" stroke-linecap="butt" stroke-miterlimit="10" stroke-linejoin="miter" fill="none" stroke="#000000" d="M5385.9 1139.7 5532.8 937.5 5770.6 1264.7 5385.9 1389.7Z"/>
<path transform="matrix(.1,0,0,-.1,0,792)" d="M5385.9 1389.7 5770.6 1264.7 6008.4 1592 5770.6 1919.2 5385.9 1794.2" fill="#ffde66"/>
<path transform="matrix(.1,0,0,-.1,0,792)" stroke-width="1" stroke-linecap="butt" stroke-miterlimit="10" stroke-linejoin="miter" fill="none" stroke="#000000" d="M5385.9 1389.7 5770.6 1264.7 6008.4 1592 5770.6 1919.2 5385.9 1794.2Z"/>
<path transform="matrix(.1,0,0,-.1,0,792)" d="M5385.9 2448.7 5532.8 2246.5 5770.6 2573.7 5385.9 2698.7Z" fill="#5c6600"/>
<path transform="matrix(.1,0,0,-.1,0,792)" stroke-width="1" stroke-linecap="butt" stroke-miterlimit="10" stroke-linejoin="miter" fill="none" stroke="#000000" d="M5385.9 2448.7 5532.8 2246.5 5770.6 2573.7 5385.9 2698.7Z"/>
<path transform="matrix(.1,0,0,-.1,0,792)" d="M5385.9 2698.7 5770.6 2573.7 6008.4 2901 5770.6 3228.2 5385.9 3103.2" fill="#ffde66"/>
<path transform="matrix(.1,0,0,-.1,0,792)" stroke-width="1" stroke-linecap="butt" stroke-miterlimit="10" stroke-linejoin="miter" fill="none" stroke="#000000" d="M5385.9 2698.7 5770.6 2573.7 6008.4 2901 5770.6 3228.2 5385.9 3103.2Z"/>
<path transform="matrix(.1,0,0,-.1,0,792)" d="M5385.9 3757.7 5532.8 3555.5 5770.6 3882.7 5385.9 4007.7Z" fill="#5c6600"/>
<path transform="matrix(.1,0,0,-.1,0,792)" stroke-width="1" stroke-linecap="butt" stroke-miterlimit="10" stroke-linejoin="miter" fill="none" stroke="#000000" d="M5385.9 3757.7 5532.8 3555.5 5770.6 3882.7 5385.9 4007.7Z"/>
<path transform="matrix(.1,0,0,-.1,0,792)" d="M5385.9 4007.7 5770.6 3882.7 6008.4 4210 5770.6 4537.3 5385.9 4412.3" fill="#ffde66"/>
<path transform="matrix(.1,0,0,-.1,0,792)" stroke-width="1" stroke-linecap="butt" stroke-miterlimit="10" stroke-linejoin="miter" fill="none" stroke="#000000" d="M5385.9 4007.7 5770.6 3882.7 6008.4 4210 5770.6 4537.3 5385.9 4412.3Z"/>
<path transform="matrix(.1,0,0,-.1,0,792)" d="M5385.9 5066.8 5532.8 4864.5 5770.6 5191.8 5385.9 5316.8Z" fill="#5c6600"/>
<path transform="matrix(.1,0,0,-.1,0,792)" stroke-width="1" stroke-linecap="butt" stroke-miterlimit="10" stroke-linejoin="miter" fill="none" stroke="#000000" d="M5385.9 5066.8 5532.8 4864.5 5770.6 5191.8 5385.9 5316.8Z"/>
<path transform="matrix(.1,0,0,-.1,0,792)" d="M5385.9 5316.8 5770.6 5191.8 6008.4 5519 5770.6 5846.3 5385.9 5721.3" fill="#ffde66"/>
<path transform="matrix(.1,0,0,-.1,0,792)" stroke-width="1" stroke-linecap="butt" stroke-miterlimit="10" stroke-linejoin="miter" fill="none" stroke="#000000" d="M5385.9 5316.8 5770.6 5191.8 6008.4 5519 5770.6 5846.3 5385.9 5721.3Z"/>
<path transform="matrix(.1,0,0,-.1,0,792)" d="M5385.9 6375.8 5532.8 6173.5 5770.6 6500.8 5385.9 6625.8Z" fill="#5c6600"/>
<path transform="matrix(.1,0,0,-.1,0,792)" stroke-width="1" stroke-linecap="butt" stroke-miterlimit="10" stroke-linejoin="miter" fill="none" stroke="#000000" d="M5385.9 6375.8 5532.8 6173.5 5770.6 6500.8 5385.9 6625.8Z"/>
<path transform="matrix(.1,0,0,-.1,0,792)" d="M5385.9 6625.8 5770.6 6500.8 6008.4 6828 5770.6 7155.3 5385.9 7030.3" fill="#ffde66"/>
<path transform="matrix(.1,0,0,-.1,0,792)" stroke-width="1" stroke-linecap="butt" stroke-miterlimit="10" stroke-linejoin="miter" fill="none" stroke="#000000" d="M5385.9 6625.8 5770.6 6500.8 6008.4 6828 5770.6 7155.3 5385.9 7030.3Z"/>
<path transform="matrix(.1,0,0,-.1,0,792)" d="M553 7482.5 315.301 7809.8 77.5 7732.5-160.301 7809.8-398 7482.5-160.301 7155.3 77.5 7232.5 315.301 7155.3" fill="#ffffff"/>
<path transform="matrix(.1,0,0,-.1,0,792)" stroke-width="1" stroke-linecap="butt" stroke-miterlimit="10" stroke-linejoin="miter" fill="none" stroke="#000000" d="M553 7482.5 315.301 7809.8 77.5 7732.5-160.301 7809.8-398 7482.5-160.301 7155.3 77.5 7232.5 315.301 7155.3Z"/>
<path transform="matrix(.1,0,0,-.1,0,792)" d="M553 7482.5 700 7684.8V7934.8L315.301 7809.8Z" fill="#5c6600"/>
<path transform="matrix(.1,0,0,-.1,0,792)" stroke-width="1" stroke-linecap="butt" stroke-miterlimit="10" stroke-linejoin="miter" fill="none" stroke="#000000" d="M553 7482.5 700 7684.8V7934.8L315.301 7809.8Z"/>
<path transform="matrix(.1,0,0,-.1,0,792)" d="M553 6173.5 315.301 6500.8 77.5 6423.5-160.301 6500.8-398 6173.5-160.301 5846.3 77.5 5923.5 315.301 5846.3" fill="#ffffff"/>
<path transform="matrix(.1,0,0,-.1,0,792)" stroke-width="1" stroke-linecap="butt" stroke-miterlimit="10" stroke-linejoin="miter" fill="none" stroke="#000000" d="M553 6173.5 315.301 6500.8 77.5 6423.5-160.301 6500.8-398 6173.5-160.301 5846.3 77.5 5923.5 315.301 5846.3Z"/>
<path transform="matrix(.1,0,0,-.1,0,792)" d="M553 4864.5 315.301 5191.8 77.5 5114.5-160.301 5191.8-398 4864.5-160.301 4537.3 77.5 4614.5 315.301 4537.3" fill="#ffffff"/>
<path transform="matrix(.1,0,0,-.1,0,792)" stroke-width="1" stroke-linecap="butt" stroke-miterlimit="10" stroke-linejoin="miter" fill="none" stroke="#000000" d="M553 4864.5 315.301 5191.8 77.5 5114.5-160.301 5191.8-398 4864.5-160.301 4537.3 77.5 4614.5 315.301 4537.3Z"/>
<path transform="matrix(.1,0,0,-.1,0,792)" d="M553 3555.5 315.301 3882.7 77.5 3805.5-160.301 3882.7-398 3555.5-160.301 3228.2 77.5 3305.5 315.301 3228.2" fill="#ffffff"/>
<path transform="matrix(.1,0,0,-.1,0,792)" stroke-width="1" stroke-linecap="butt" stroke-miterlimit="10" stroke-linejoin="miter" fill="none" stroke="#000000" d="M553 3555.5 315.301 3882.7 77.5 3805.5-160.301 3882.7-398 3555.5-160.301 3228.2 77.5 3305.5 315.301 3228.2Z"/>
<path transform="matrix(.1,0,0,-.1,0,792)" d="M553 2246.5 315.301 2573.7 77.5 2496.5-160.301 2573.7-398 2246.5-160.301 1919.2 77.5 1996.5 315.301 1919.2" fill="#ffffff"/>
<path transform="matrix(.1,0,0,-.1,0,792)" stroke-width="1" stroke-linecap="butt" stroke-miterlimit="10" stroke-linejoin="miter" fill="none" stroke="#000000" d="M553 2246.5 315.301 2573.7 77.5 2496.5-160.301 2573.7-398 2246.5-160.301 1919.2 77.5 1996.5 315.301 1919.2Z"/>
<path transform="matrix(.1,0,0,-.1,0,792)" d="M553 937.5 315.301 610.199 700 485.199V80.6992L1084.7 205.699 1322.5-121.602 1560.2 205.699 1175.5 330.699V735.199L790.801 610.199" fill="#805900"/>
<path transform="matrix(.1,0,0,-.1,0,792)" stroke-width="1" stroke-linecap="butt" stroke-miterlimit="10" stroke-linejoin="miter" fill="none" stroke="#000000" d="M553 937.5 315.301 610.199 700 485.199V80.6992L1084.7 205.699 1322.5-121.602 1560.2 205.699 1175.5 330.699V735.199L790.801 610.199Z"/>
<path transform="matrix(.1,0,0,-.1,0,792)" d="M553 937.5 315.301 1264.7 77.5 1187.5-160.301 1264.7-398 937.5-160.301 610.199 77.5 687.5 315.301 610.199" fill="#ffffff"/>
<path transform="matrix(.1,0,0,-.1,0,792)" stroke-width="1" stroke-linecap="butt" stroke-miterlimit="10" stroke-linejoin="miter" fill="none" stroke="#000000" d="M553 937.5 315.301 1264.7 77.5 1187.5-160.301 1264.7-398 937.5-160.301 610.199 77.5 687.5 315.301 610.199Z"/>
<path transform="matrix(.1,0,0,-.1,0,792)" d="M1560.2 860.199 1175.5 735.199V330.699L1560.2 205.699 1798 532.898" fill="#ffde66"/>
<path transform="matrix(.1,0,0,-.1,0,792)" stroke-width="1" stroke-linecap="butt" stroke-miterlimit="10" stroke-linejoin="miter" fill="none" stroke="#000000" d="M1560.2 860.199 1175.5 735.199V330.699L1560.2 205.699 1798 532.898Z"/>
<path transform="matrix(.1,0,0,-.1,0,792)" d="M2035.7 860.199 1798 532.898 1944.9 330.699V80.6992L2329.6-44.3008 2567.4 282.898 2420.5 485.199V735.199" fill="#ffffff"/>
<path transform="matrix(.1,0,0,-.1,0,792)" stroke-width="1" stroke-linecap="butt" stroke-miterlimit="10" stroke-linejoin="miter" fill="none" stroke="#000000" d="M2035.7 860.199 1798 532.898 1944.9 330.699V80.6992L2329.6-44.3008 2567.4 282.898 2420.5 485.199V735.199Z"/>
<path transform="matrix(.1,0,0,-.1,0,792)" d="M4050.1 860.199 3665.4 735.199V485.199L3518.5 282.898 3756.2-44.3008 4140.9 80.6992V330.699L4287.9 532.898" fill="#ffffff"/>
<path transform="matrix(.1,0,0,-.1,0,792)" stroke-width="1" stroke-linecap="butt" stroke-miterlimit="10" stroke-linejoin="miter" fill="none" stroke="#000000" d="M4050.1 860.199 3665.4 735.199V485.199L3518.5 282.898 3756.2-44.3008 4140.9 80.6992V330.699L4287.9 532.898Z"/>
<path transform="matrix(.1,0,0,-.1,0,792)" d="M4525.6 860.199 4287.9 532.898 4525.6 205.699 4910.4 330.699V735.199" fill="#ffde66"/>
<path transform="matrix(.1,0,0,-.1,0,792)" stroke-width="1" stroke-linecap="butt" stroke-miterlimit="10" stroke-linejoin="miter" fill="none" stroke="#000000" d="M4525.6 860.199 4287.9 532.898 4525.6 205.699 4910.4 330.699V735.199Z"/>
<path transform="matrix(.1,0,0,-.1,0,792)" d="M4910.4 735.199V330.699L4525.6 205.699 4763.4-121.602 5001.2 205.699 5385.9 80.6992V485.199L5770.6 610.199 5532.8 937.5 5295.1 610.199" fill="#805900"/>
<path transform="matrix(.1,0,0,-.1,0,792)" stroke-width="1" stroke-linecap="butt" stroke-miterlimit="10" stroke-linejoin="miter" fill="none" stroke="#000000" d="M4910.4 735.199V330.699L4525.6 205.699 4763.4-121.602 5001.2 205.699 5385.9 80.6992V485.199L5770.6 610.199 5532.8 937.5 5295.1 610.199Z"/>
<path transform="matrix(.1,0,0,-.1,0,792)" d="M5385.9 7684.8 5532.8 7482.5 5770.6 7809.8 5385.9 7934.8Z" fill="#5c6600"/>
<path transform="matrix(.1,0,0,-.1,0,792)" stroke-width="1" stroke-linecap="butt" stroke-miterlimit="10" stroke-linejoin="miter" fill="none" stroke="#000000" d="M5385.9 7684.8 5532.8 7482.5 5770.6 7809.8 5385.9 7934.8Z"/>
<path transform="matrix(.1,0,0,-.1,0,792)" d="M2420.5 735.199V485.199L2567.4 282.898 2805.2 610.199Z" fill="#5c6600"/>
<path transform="matrix(.1,0,0,-.1,0,792)" stroke-width="1" stroke-linecap="butt" stroke-miterlimit="10" stroke-linejoin="miter" fill="none" stroke="#000000" d="M2420.5 735.199V485.199L2567.4 282.898 2805.2 610.199Z"/>
<path transform="matrix(.1,0,0,-.1,0,792)" d="M3665.4 735.199 3280.7 610.199 3518.5 282.898 3665.4 485.199Z" fill="#5c6600"/>
<path transform="matrix(.1,0,0,-.1,0,792)" stroke-width="1" stroke-linecap="butt" stroke-miterlimit="10" stroke-linejoin="miter" fill="none" stroke="#000000" d="M3665.4 735.199 3280.7 610.199 3518.5 282.898 3665.4 485.199Z"/>
<path transform="matrix(.1,0,0,-.1,0,792)" d="M5532.8 937.5 5770.6 610.199 6008.4 687.5 6246.1 610.199 6483.9 937.5 6246.1 1264.7 6008.4 1187.5 5770.6 1264.7" fill="#ffffff"/>
<path transform="matrix(.1,0,0,-.1,0,792)" stroke-width="1" stroke-linecap="butt" stroke-miterlimit="10" stroke-linejoin="miter" fill="none" stroke="#000000" d="M5532.8 937.5 5770.6 610.199 6008.4 687.5 6246.1 610.199 6483.9 937.5 6246.1 1264.7 6008.4 1187.5 5770.6 1264.7Z"/>
<path transform="matrix(.1,0,0,-.1,0,792)" d="M5532.8 2246.5 5770.6 1919.2 6008.4 1996.5 6246.1 1919.2 6483.9 2246.5 6246.1 2573.7 6008.4 2496.5 5770.6 2573.7" fill="#ffffff"/>
<path transform="matrix(.1,0,0,-.1,0,792)" stroke-width="1" stroke-linecap="butt" stroke-miterlimit="10" stroke-linejoin="miter" fill="none" stroke="#000000" d="M5532.8 2246.5 5770.6 1919.2 6008.4 1996.5 6246.1 1919.2 6483.9 2246.5 6246.1 2573.7 6008.4 2496.5 5770.6 2573.7Z"/>
<path transform="matrix(.1,0,0,-.1,0,792)" d="M5532.8 3555.5 5770.6 3228.2 6008.4 3305.5 6246.1 3228.2 6483.9 3555.5 6246.1 3882.7 6008.4 3805.5 5770.6 3882.7" fill="#ffffff"/>
<path transform="matrix(.1,0,0,-.1,0,792)" stroke-width="1" stroke-linecap="butt" stroke-miterlimit="10" stroke-linejoin="miter" fill="none" stroke="#000000" d="M5532.8 3555.5 5770.6 3228.2 6008.4 3305.5 6246.1 3228.2 6483.9 3555.5 6246.1 3882.7 6008.4 3805.5 5770.6 3882.7Z"/>
<path transform="matrix(.1,0,0,-.1,0,792)" d="M5532.8 4864.5 5770.6 4537.3 6008.4 4614.5 6246.1 4537.3 6483.9 4864.5 6246.1 5191.8 6008.4 5114.5 5770.6 5191.8" fill="#ffffff"/>
<path transform="matrix(.1,0,0,-.1,0,792)" stroke-width="1" stroke-linecap="butt" stroke-miterlimit="10" stroke-linejoin="miter" fill="none" stroke="#000000" d="M5532.8 4864.5 5770.6 4537.3 6008.4 4614.5 6246.1 4537.3 6483.9 4864.5 6246.1 5191.8 6008.4 5114.5 5770.6 5191.8Z"/>
<path transform="matrix(.1,0,0,-.1,0,792)" d="M5532.8 6173.5 5770.6 5846.3 6008.4 5923.5 6246.1 5846.3 6483.9 6173.5 6246.1 6500.8 6008.4 6423.5 5770.6 6500.8" fill="#ffffff"/>
<path transform="matrix(.1,0,0,-.1,0,792)" stroke-width="1" stroke-linecap="butt" stroke-miterlimit="10" stroke-linejoin="miter" fill="none" stroke="#000000" d="M5532.8 6173.5 5770.6 5846.3 6008.4 5923.5 6246.1 5846.3 6483.9 6173.5 6246.1 6500.8 6008.4 6423.5 5770.6 6500.8Z"/>
<path transform="matrix(.1,0,0,-.1,0,792)" d="M5532.8 7482.5 5770.6 7155.3 6008.4 7232.5 6246.1 7155.3 6483.9 7482.5 6246.1 7809.8 6008.4 7732.5 5770.6 7809.8" fill="#ffffff"/>
<path transform="matrix(.1,0,0,-.1,0,792)" stroke-width="1" stroke-linecap="butt" stroke-miterlimit="10" stroke-linejoin="miter" fill="none" stroke="#000000" d="M5532.8 7482.5 5770.6 7155.3 6008.4 7232.5 6246.1 7155.3 6483.9 7482.5 6246.1 7809.8 6008.4 7732.5 5770.6 7809.8Z"/>
<path transform="matrix(.1,0,0,-.1,0,792)" d="M4763.4 7732.5 5001.2 8059.8 5385.9 7934.8V8339.3L5770.6 8464.3 5532.8 8791.6 5295.1 8464.3 4910.4 8589.3V8184.8L4525.6 8059.8" fill="#805900"/>
<path transform="matrix(.1,0,0,-.1,0,792)" stroke-width="1" stroke-linecap="butt" stroke-miterlimit="10" stroke-linejoin="miter" fill="none" stroke="#000000" d="M4763.4 7732.5 5001.2 8059.8 5385.9 7934.8V8339.3L5770.6 8464.3 5532.8 8791.6 5295.1 8464.3 4910.4 8589.3V8184.8L4525.6 8059.8Z"/>
<path transform="matrix(.1,0,0,-.1,0,792)" d="M1322.5 7732.5 1560.2 8059.8 1175.5 8184.8V8589.3L790.801 8464.3 553 8791.6 315.301 8464.3 700 8339.3V7934.8L1084.7 8059.8" fill="#805900"/>
<path transform="matrix(.1,0,0,-.1,0,792)" stroke-width="1" stroke-linecap="butt" stroke-miterlimit="10" stroke-linejoin="miter" fill="none" stroke="#000000" d="M1322.5 7732.5 1560.2 8059.8 1175.5 8184.8V8589.3L790.801 8464.3 553 8791.6 315.301 8464.3 700 8339.3V7934.8L1084.7 8059.8Z"/>
<path transform="matrix(.1,0,0,-.1,0,792)" d="M2805.2 610.199 2567.4 282.898 2805.2-44.3008 3042.9 32.8984 3280.7-44.3008 3518.5 282.898 3280.7 610.199 3042.9 532.898" fill="#ffffff"/>
<path transform="matrix(.1,0,0,-.1,0,792)" stroke-width="1" stroke-linecap="butt" stroke-miterlimit="10" stroke-linejoin="miter" fill="none" stroke="#000000" d="M2805.2 610.199 2567.4 282.898 2805.2-44.3008 3042.9 32.8984 3280.7-44.3008 3518.5 282.898 3280.7 610.199 3042.9 532.898Z"/>
<path transform="matrix(.1,0,0,-.1,0,792)" d="M3756.2 7809.8 4140.9 7934.8V8184.8L4287.9 8387.1 4050.1 8714.3 3665.4 8589.3V8339.3L3518.5 8137.1" fill="#ffffff"/>
<path transform="matrix(.1,0,0,-.1,0,792)" stroke-width="1" stroke-linecap="butt" stroke-miterlimit="10" stroke-linejoin="miter" fill="none" stroke="#000000" d="M3756.2 7809.8 4140.9 7934.8V8184.8L4287.9 8387.1 4050.1 8714.3 3665.4 8589.3V8339.3L3518.5 8137.1Z"/>
<path transform="matrix(.1,0,0,-.1,0,792)" d="M3280.7 7809.8 3518.5 8137.1 3280.7 8464.3 3042.9 8387.1 2805.2 8464.3 2567.4 8137.1 2805.2 7809.8 3042.9 7887.1" fill="#ffffff"/>
<path transform="matrix(.1,0,0,-.1,0,792)" stroke-width="1" stroke-linecap="butt" stroke-miterlimit="10" stroke-linejoin="miter" fill="none" stroke="#000000" d="M3280.7 7809.8 3518.5 8137.1 3280.7 8464.3 3042.9 8387.1 2805.2 8464.3 2567.4 8137.1 2805.2 7809.8 3042.9 7887.1Z"/>
<path transform="matrix(.1,0,0,-.1,0,792)" d="M2329.6 7809.8 2567.4 8137.1 2420.5 8339.3V8589.3L2035.7 8714.3 1798 8387.1 1944.9 8184.8V7934.8" fill="#ffffff"/>
<path transform="matrix(.1,0,0,-.1,0,792)" stroke-width="1" stroke-linecap="butt" stroke-miterlimit="10" stroke-linejoin="miter" fill="none" stroke="#000000" d="M2329.6 7809.8 2567.4 8137.1 2420.5 8339.3V8589.3L2035.7 8714.3 1798 8387.1 1944.9 8184.8V7934.8Z"/>
<path transform="matrix(.1,0,0,-.1,0,792)" d="M315.301 7809.8 77.5 8137.1-160.301 7809.8 77.5 7732.5Z" fill="#5c6600"/>
<path transform="matrix(.1,0,0,-.1,0,792)" stroke-width="1" stroke-linecap="butt" stroke-miterlimit="10" stroke-linejoin="miter" fill="none" stroke="#000000" d="M315.301 7809.8 77.5 8137.1-160.301 7809.8 77.5 7732.5Z"/>
<path transform="matrix(.1,0,0,-.1,0,792)" d="M315.301 7809.8 700 7934.8V8339.3L315.301 8464.3 77.5 8137.1" fill="#ffde66"/>
<path transform="matrix(.1,0,0,-.1,0,792)" stroke-width="1" stroke-linecap="butt" stroke-miterlimit="10" stroke-linejoin="miter" fill="none" stroke="#000000" d="M315.301 7809.8 700 7934.8V8339.3L315.301 8464.3 77.5 8137.1Z"/>
<path transform="matrix(.1,0,0,-.1,0,792)" d="M315.301 7155.3 77.5 7232.5-160.301 7155.3 77.5 6828Z" fill="#5c6600"/>
<path transform="matrix(.1,0,0,-.1,0,792)" stroke-width="1" stroke-linecap="butt" stroke-miterlimit="10" stroke-linejoin="miter" fill="none" stroke="#000000" d="M315.301 7155.3 77.5 7232.5-160.301 7155.3 77.5 6828Z"/>
<path transform="matrix(.1,0,0,-.1,0,792)" d="M315.301 6500.8 77.5 6828-160.301 6500.8 77.5 6423.5Z" fill="#5c6600"/>
<path transform="matrix(.1,0,0,-.1,0,792)" stroke-width="1" stroke-linecap="butt" stroke-miterlimit="10" stroke-linejoin="miter" fill="none" stroke="#000000" d="M315.301 6500.8 77.5 6828-160.301 6500.8 77.5 6423.5Z"/>
<path transform="matrix(.1,0,0,-.1,0,792)" d="M315.301 5846.3 77.5 5923.5-160.301 5846.3 77.5 5519Z" fill="#5c6600"/>
<path transform="matrix(.1,0,0,-.1,0,792)" stroke-width="1" stroke-linecap="butt" stroke-miterlimit="10" stroke-linejoin="miter" fill="none" stroke="#000000" d="M315.301 5846.3 77.5 5923.5-160.301 5846.3 77.5 5519Z"/>
<path transform="matrix(.1,0,0,-.1,0,792)" d="M315.301 5191.8 77.5 5519-160.301 5191.8 77.5 5114.5Z" fill="#5c6600"/>
<path transform="matrix(.1,0,0,-.1,0,792)" stroke-width="1" stroke-linecap="butt" stroke-miterlimit="10" stroke-linejoin="miter" fill="none" stroke="#000000" d="M315.301 5191.8 77.5 5519-160.301 5191.8 77.5 5114.5Z"/>
<path transform="matrix(.1,0,0,-.1,0,792)" d="M315.301 4537.3 77.5 4614.5-160.301 4537.3 77.5 4210Z" fill="#5c6600"/>
<path transform="matrix(.1,0,0,-.1,0,792)" stroke-width="1" stroke-linecap="butt" stroke-miterlimit="10" stroke-linejoin="miter" fill="none" stroke="#000000" d="M315.301 4537.3 77.5 4614.5-160.301 4537.3 77.5 4210Z"/>
<path transform="matrix(.1,0,0,-.1,0,792)" d="M315.301 3882.7 77.5 4210-160.301 3882.7 77.5 3805.5Z" fill="#5c6600"/>
<path transform="matrix(.1,0,0,-.1,0,792)" stroke-width="1" stroke-linecap="butt" stroke-miterlimit="10" stroke-linejoin="miter" fill="none" stroke="#000000" d="M315.301 3882.7 77.5 4210-160.301 3882.7 77.5 3805.5Z"/>
<path transform="matrix(.1,0,0,-.1,0,792)" d="M315.301 3228.2 77.5 3305.5-160.301 3228.2 77.5 2901Z" fill="#5c6600"/>
<path transform="matrix(.1,0,0,-.1,0,792)" stroke-width="1" stroke-linecap="butt" stroke-miterlimit="10" stroke-linejoin="miter" fill="none" stroke="#000000" d="M315.301 3228.2 77.5 3305.5-160.301 3228.2 77.5 2901Z"/>
<path transform="matrix(.1,0,0,-.1,0,792)" d="M315.301 2573.7 77.5 2901-160.301 2573.7 77.5 2496.5Z" fill="#5c6600"/>
<path transform="matrix(.1,0,0,-.1,0,792)" stroke-width="1" stroke-linecap="butt" stroke-miterlimit="10" stroke-linejoin="miter" fill="none" stroke="#000000" d="M315.301 2573.7 77.5 2901-160.301 2573.7 77.5 2496.5Z"/>
<path transform="matrix(.1,0,0,-.1,0,792)" d="M315.301 1919.2 77.5 1996.5-160.301 1919.2 77.5 1592Z" fill="#5c6600"/>
<path transform="matrix(.1,0,0,-.1,0,792)" stroke-width="1" stroke-linecap="butt" stroke-miterlimit="10" stroke-linejoin="miter" fill="none" stroke="#000000" d="M315.301 1919.2 77.5 1996.5-160.301 1919.2 77.5 1592Z"/>
<path transform="matrix(.1,0,0,-.1,0,792)" d="M315.301 1264.7 77.5 1592-160.301 1264.7 77.5 1187.5Z" fill="#5c6600"/>
<path transform="matrix(.1,0,0,-.1,0,792)" stroke-width="1" stroke-linecap="butt" stroke-miterlimit="10" stroke-linejoin="miter" fill="none" stroke="#000000" d="M315.301 1264.7 77.5 1592-160.301 1264.7 77.5 1187.5Z"/>
<path transform="matrix(.1,0,0,-.1,0,792)" d="M315.301 610.199 77.5 282.898 315.301-44.3008 700 80.6992V485.199" fill="#ffde66"/>
<path transform="matrix(.1,0,0,-.1,0,792)" stroke-width="1" stroke-linecap="butt" stroke-miterlimit="10" stroke-linejoin="miter" fill="none" stroke="#000000" d="M315.301 610.199 77.5 282.898 315.301-44.3008 700 80.6992V485.199Z"/>
<path transform="matrix(.1,0,0,-.1,0,792)" d="M315.301 610.199 77.5 687.5-160.301 610.199 77.5 282.898Z" fill="#5c6600"/>
<path transform="matrix(.1,0,0,-.1,0,792)" stroke-width="1" stroke-linecap="butt" stroke-miterlimit="10" stroke-linejoin="miter" fill="none" stroke="#000000" d="M315.301 610.199 77.5 687.5-160.301 610.199 77.5 282.898Z"/>
<path transform="matrix(.1,0,0,-.1,0,792)" d="M1798 532.898 1560.2 205.699 1944.9 80.6992V330.699Z" fill="#5c6600"/>
<path transform="matrix(.1,0,0,-.1,0,792)" stroke-width="1" stroke-linecap="butt" stroke-miterlimit="10" stroke-linejoin="miter" fill="none" stroke="#000000" d="M1798 532.898 1560.2 205.699 1944.9 80.6992V330.699Z"/>
<path transform="matrix(.1,0,0,-.1,0,792)" d="M4287.9 532.898 4140.9 330.699V80.6992L4525.6 205.699Z" fill="#5c6600"/>
<path transform="matrix(.1,0,0,-.1,0,792)" stroke-width="1" stroke-linecap="butt" stroke-miterlimit="10" stroke-linejoin="miter" fill="none" stroke="#000000" d="M4287.9 532.898 4140.9 330.699V80.6992L4525.6 205.699Z"/>
<path transform="matrix(.1,0,0,-.1,0,792)" d="M5385.9 485.199V80.6992L5770.6-44.3008 6008.4 282.898 5770.6 610.199" fill="#ffde66"/>
<path transform="matrix(.1,0,0,-.1,0,792)" stroke-width="1" stroke-linecap="butt" stroke-miterlimit="10" stroke-linejoin="miter" fill="none" stroke="#000000" d="M5385.9 485.199V80.6992L5770.6-44.3008 6008.4 282.898 5770.6 610.199Z"/>
<path transform="matrix(.1,0,0,-.1,0,792)" d="M5385.9 7934.8 5770.6 7809.8 6008.4 8137.1 5770.6 8464.3 5385.9 8339.3" fill="#ffde66"/>
<path transform="matrix(.1,0,0,-.1,0,792)" stroke-width="1" stroke-linecap="butt" stroke-miterlimit="10" stroke-linejoin="miter" fill="none" stroke="#000000" d="M5385.9 7934.8 5770.6 7809.8 6008.4 8137.1 5770.6 8464.3 5385.9 8339.3Z"/>
<path transform="matrix(.1,0,0,-.1,0,792)" d="M5770.6 610.199 6008.4 282.898 6246.1 610.199 6008.4 687.5Z" fill="#5c6600"/>
<path transform="matrix(.1,0,0,-.1,0,792)" stroke-width="1" stroke-linecap="butt" stroke-miterlimit="10" stroke-linejoin="miter" fill="none" stroke="#000000" d="M5770.6 610.199 6008.4 282.898 6246.1 610.199 6008.4 687.5Z"/>
<path transform="matrix(.1,0,0,-.1,0,792)" d="M5770.6 1264.7 6008.4 1187.5 6246.1 1264.7 6008.4 1592Z" fill="#5c6600"/>
<path transform="matrix(.1,0,0,-.1,0,792)" stroke-width="1" stroke-linecap="butt" stroke-miterlimit="10" stroke-linejoin="miter" fill="none" stroke="#000000" d="M5770.6 1264.7 6008.4 1187.5 6246.1 1264.7 6008.4 1592Z"/>
<path transform="matrix(.1,0,0,-.1,0,792)" d="M5770.6 1919.2 6008.4 1592 6246.1 1919.2 6008.4 1996.5Z" fill="#5c6600"/>
<path transform="matrix(.1,0,0,-.1,0,792)" stroke-width="1" stroke-linecap="butt" stroke-miterlimit="10" stroke-linejoin="miter" fill="none" stroke="#000000" d="M5770.6 1919.2 6008.4 1592 6246.1 1919.2 6008.4 1996.5Z"/>
<path transform="matrix(.1,0,0,-.1,0,792)" d="M5770.6 2573.7 6008.4 2496.5 6246.1 2573.7 6008.4 2901Z" fill="#5c6600"/>
<path transform="matrix(.1,0,0,-.1,0,792)" stroke-width="1" stroke-linecap="butt" stroke-miterlimit="10" stroke-linejoin="miter" fill="none" stroke="#000000" d="M5770.6 2573.7 6008.4 2496.5 6246.1 2573.7 6008.4 2901Z"/>
<path transform="matrix(.1,0,0,-.1,0,792)" d="M5770.6 3228.2 6008.4 2901 6246.1 3228.2 6008.4 3305.5Z" fill="#5c6600"/>
<path transform="matrix(.1,0,0,-.1,0,792)" stroke-width="1" stroke-linecap="butt" stroke-miterlimit="10" stroke-linejoin="miter" fill="none" stroke="#000000" d="M5770.6 3228.2 6008.4 2901 6246.1 3228.2 6008.4 3305.5Z"/>
<path transform="matrix(.1,0,0,-.1,0,792)" d="M5770.6 3882.7 6008.4 3805.5 6246.1 3882.7 6008.4 4210Z" fill="#5c6600"/>
<path transform="matrix(.1,0,0,-.1,0,792)" stroke-width="1" stroke-linecap="butt" stroke-miterlimit="10" stroke-linejoin="miter" fill="none" stroke="#000000" d="M5770.6 3882.7 6008.4 3805.5 6246.1 3882.7 6008.4 4210Z"/>
<path transform="matrix(.1,0,0,-.1,0,792)" d="M5770.6 4537.3 6008.4 4210 6246.1 4537.3 6008.4 4614.5Z" fill="#5c6600"/>
<path transform="matrix(.1,0,0,-.1,0,792)" stroke-width="1" stroke-linecap="butt" stroke-miterlimit="10" stroke-linejoin="miter" fill="none" stroke="#000000" d="M5770.6 4537.3 6008.4 4210 6246.1 4537.3 6008.4 4614.5Z"/>
<path transform="matrix(.1,0,0,-.1,0,792)" d="M5770.6 5191.8 6008.4 5114.5 6246.1 5191.8 6008.4 5519Z" fill="#5c6600"/>
<path transform="matrix(.1,0,0,-.1,0,792)" stroke-width="1" stroke-linecap="butt" stroke-miterlimit="10" stroke-linejoin="miter" fill="none" stroke="#000000" d="M5770.6 5191.8 6008.4 5114.5 6246.1 5191.8 6008.4 5519Z"/>
<path transform="matrix(.1,0,0,-.1,0,792)" d="M5770.6 5846.3 6008.4 5519 6246.1 5846.3 6008.4 5923.5Z" fill="#5c6600"/>
<path transform="matrix(.1,0,0,-.1,0,792)" stroke-width="1" stroke-linecap="butt" stroke-miterlimit="10" stroke-linejoin="miter" fill="none" stroke="#000000" d="M5770.6 5846.3 6008.4 5519 6246.1 5846.3 6008.4 5923.5Z"/>
<path transform="matrix(.1,0,0,-.1,0,792)" d="M5770.6 6500.8 6008.4 6423.5 6246.1 6500.8 6008.4 6828Z" fill="#5c6600"/>
<path transform="matrix(.1,0,0,-.1,0,792)" stroke-width="1" stroke-linecap="butt" stroke-miterlimit="10" stroke-linejoin="miter" fill="none" stroke="#000000" d="M5770.6 6500.8 6008.4 6423.5 6246.1 6500.8 6008.4 6828Z"/>
<path transform="matrix(.1,0,0,-.1,0,792)" d="M5770.6 7155.3 6008.4 6828 6246.1 7155.3 6008.4 7232.5Z" fill="#5c6600"/>
<path transform="matrix(.1,0,0,-.1,0,792)" stroke-width="1" stroke-linecap="butt" stroke-miterlimit="10" stroke-linejoin="miter" fill="none" stroke="#000000" d="M5770.6 7155.3 6008.4 6828 6246.1 7155.3 6008.4 7232.5Z"/>
<path transform="matrix(.1,0,0,-.1,0,792)" d="M5770.6 7809.8 6008.4 7732.5 6246.1 7809.8 6008.4 8137.1Z" fill="#5c6600"/>
<path transform="matrix(.1,0,0,-.1,0,792)" stroke-width="1" stroke-linecap="butt" stroke-miterlimit="10" stroke-linejoin="miter" fill="none" stroke="#000000" d="M5770.6 7809.8 6008.4 7732.5 6246.1 7809.8 6008.4 8137.1Z"/>
<path transform="matrix(.1,0,0,-.1,0,792)" d="M2567.4 282.898 2329.6-44.3008 1944.9 80.6992V-323.801L1560.2-448.801 1798-776.102 2035.7-448.801 2420.5-573.801V-169.301L2805.2-44.3008" fill="#805900"/>
<path transform="matrix(.1,0,0,-.1,0,792)" stroke-width="1" stroke-linecap="butt" stroke-miterlimit="10" stroke-linejoin="miter" fill="none" stroke="#000000" d="M2567.4 282.898 2329.6-44.3008 1944.9 80.6992V-323.801L1560.2-448.801 1798-776.102 2035.7-448.801 2420.5-573.801V-169.301L2805.2-44.3008Z"/>
<path transform="matrix(.1,0,0,-.1,0,792)" d="M3518.5 282.898 3280.7-44.3008 3665.4-169.301V-573.801L4050.1-448.801 4287.9-776.102 4525.6-448.801 4140.9-323.801V80.6992L3756.2-44.3008" fill="#805900"/>
<path transform="matrix(.1,0,0,-.1,0,792)" stroke-width="1" stroke-linecap="butt" stroke-miterlimit="10" stroke-linejoin="miter" fill="none" stroke="#000000" d="M3518.5 282.898 3280.7-44.3008 3665.4-169.301V-573.801L4050.1-448.801 4287.9-776.102 4525.6-448.801 4140.9-323.801V80.6992L3756.2-44.3008Z"/>
<path transform="matrix(.1,0,0,-.1,0,792)" d="M77.5 8137.1-160.301 8464.3-545 8339.3V7934.8L-160.301 7809.8" fill="#ffde66"/>
<path transform="matrix(.1,0,0,-.1,0,792)" stroke-width="1" stroke-linecap="butt" stroke-miterlimit="10" stroke-linejoin="miter" fill="none" stroke="#000000" d="M77.5 8137.1-160.301 8464.3-545 8339.3V7934.8L-160.301 7809.8Z"/>
<path transform="matrix(.1,0,0,-.1,0,792)" d="M77.5 6828-160.301 7155.3-545 7030.3V6625.8L-160.301 6500.8" fill="#ffde66"/>
<path transform="matrix(.1,0,0,-.1,0,792)" stroke-width="1" stroke-linecap="butt" stroke-miterlimit="10" stroke-linejoin="miter" fill="none" stroke="#000000" d="M77.5 6828-160.301 7155.3-545 7030.3V6625.8L-160.301 6500.8Z"/>
<path transform="matrix(.1,0,0,-.1,0,792)" d="M77.5 5519-160.301 5846.3-545 5721.3V5316.8L-160.301 5191.8" fill="#ffde66"/>
<path transform="matrix(.1,0,0,-.1,0,792)" stroke-width="1" stroke-linecap="butt" stroke-miterlimit="10" stroke-linejoin="miter" fill="none" stroke="#000000" d="M77.5 5519-160.301 5846.3-545 5721.3V5316.8L-160.301 5191.8Z"/>
<path transform="matrix(.1,0,0,-.1,0,792)" d="M77.5 4210-160.301 4537.3-545 4412.3V4007.7L-160.301 3882.7" fill="#ffde66"/>
<path transform="matrix(.1,0,0,-.1,0,792)" stroke-width="1" stroke-linecap="butt" stroke-miterlimit="10" stroke-linejoin="miter" fill="none" stroke="#000000" d="M77.5 4210-160.301 4537.3-545 4412.3V4007.7L-160.301 3882.7Z"/>
<path transform="matrix(.1,0,0,-.1,0,792)" d="M77.5 2901-160.301 3228.2-545 3103.2V2698.7L-160.301 2573.7" fill="#ffde66"/>
<path transform="matrix(.1,0,0,-.1,0,792)" stroke-width="1" stroke-linecap="butt" stroke-miterlimit="10" stroke-linejoin="miter" fill="none" stroke="#000000" d="M77.5 2901-160.301 3228.2-545 3103.2V2698.7L-160.301 2573.7Z"/>
<path transform="matrix(.1,0,0,-.1,0,792)" d="M77.5 1592-160.301 1919.2-545 1794.2V1389.7L-160.301 1264.7" fill="#ffde66"/>
<path transform="matrix(.1,0,0,-.1,0,792)" stroke-width="1" stroke-linecap="butt" stroke-miterlimit="10" stroke-linejoin="miter" fill="none" stroke="#000000" d="M77.5 1592-160.301 1919.2-545 1794.2V1389.7L-160.301 1264.7Z"/>
<path transform="matrix(.1,0,0,-.1,0,792)" d="M77.5 282.898-160.301-44.3008 77.5-121.602 315.301-44.3008Z" fill="#5c6600"/>
<path transform="matrix(.1,0,0,-.1,0,792)" stroke-width="1" stroke-linecap="butt" stroke-miterlimit="10" stroke-linejoin="miter" fill="none" stroke="#000000" d="M77.5 282.898-160.301-44.3008 77.5-121.602 315.301-44.3008Z"/>
<path transform="matrix(.1,0,0,-.1,0,792)" d="M77.5 282.898-160.301 610.199-545 485.199V80.6992L-160.301-44.3008" fill="#ffde66"/>
<path transform="matrix(.1,0,0,-.1,0,792)" stroke-width="1" stroke-linecap="butt" stroke-miterlimit="10" stroke-linejoin="miter" fill="none" stroke="#000000" d="M77.5 282.898-160.301 610.199-545 485.199V80.6992L-160.301-44.3008Z"/>
<path transform="matrix(.1,0,0,-.1,0,792)" d="M1084.7 205.699 700 80.6992V-169.301L553-371.602 790.801-698.801 1175.5-573.801V-323.801L1322.5-121.602" fill="#ffffff"/>
<path transform="matrix(.1,0,0,-.1,0,792)" stroke-width="1" stroke-linecap="butt" stroke-miterlimit="10" stroke-linejoin="miter" fill="none" stroke="#000000" d="M1084.7 205.699 700 80.6992V-169.301L553-371.602 790.801-698.801 1175.5-573.801V-323.801L1322.5-121.602Z"/>
<path transform="matrix(.1,0,0,-.1,0,792)" d="M1560.2 205.699 1322.5-121.602 1560.2-448.801 1944.9-323.801V80.6992" fill="#ffde66"/>
<path transform="matrix(.1,0,0,-.1,0,792)" stroke-width="1" stroke-linecap="butt" stroke-miterlimit="10" stroke-linejoin="miter" fill="none" stroke="#000000" d="M1560.2 205.699 1322.5-121.602 1560.2-448.801 1944.9-323.801V80.6992Z"/>
<path transform="matrix(.1,0,0,-.1,0,792)" d="M4525.6 205.699 4140.9 80.6992V-323.801L4525.6-448.801 4763.4-121.602" fill="#ffde66"/>
<path transform="matrix(.1,0,0,-.1,0,792)" stroke-width="1" stroke-linecap="butt" stroke-miterlimit="10" stroke-linejoin="miter" fill="none" stroke="#000000" d="M4525.6 205.699 4140.9 80.6992V-323.801L4525.6-448.801 4763.4-121.602Z"/>
<path transform="matrix(.1,0,0,-.1,0,792)" d="M5001.2 205.699 4763.4-121.602 4910.4-323.801V-573.801L5295.1-698.801 5532.8-371.602 5385.9-169.301V80.6992" fill="#ffffff"/>
<path transform="matrix(.1,0,0,-.1,0,792)" stroke-width="1" stroke-linecap="butt" stroke-miterlimit="10" stroke-linejoin="miter" fill="none" stroke="#000000" d="M5001.2 205.699 4763.4-121.602 4910.4-323.801V-573.801L5295.1-698.801 5532.8-371.602 5385.9-169.301V80.6992Z"/>
<path transform="matrix(.1,0,0,-.1,0,792)" d="M5385.9 80.6992V-169.301L5532.8-371.602 5770.6-44.3008Z" fill="#5c6600"/>
<path transform="matrix(.1,0,0,-.1,0,792)" stroke-width="1" stroke-linecap="butt" stroke-miterlimit="10" stroke-linejoin="miter" fill="none" stroke="#000000" d="M5385.9 80.6992V-169.301L5532.8-371.602 5770.6-44.3008Z"/>
<path transform="matrix(.1,0,0,-.1,0,792)" d="M700 80.6992 315.301-44.3008 553-371.602 700-169.301Z" fill="#5c6600"/>
<path transform="matrix(.1,0,0,-.1,0,792)" stroke-width="1" stroke-linecap="butt" stroke-miterlimit="10" stroke-linejoin="miter" fill="none" stroke="#000000" d="M700 80.6992 315.301-44.3008 553-371.602 700-169.301Z"/>
<path transform="matrix(.1,0,0,-.1,0,792)" d="M3042.9 32.8984 2805.2-44.3008 3042.9-371.602 3280.7-44.3008Z" fill="#5c6600"/>
<path transform="matrix(.1,0,0,-.1,0,792)" stroke-width="1" stroke-linecap="butt" stroke-miterlimit="10" stroke-linejoin="miter" fill="none" stroke="#000000" d="M3042.9 32.8984 2805.2-44.3008 3042.9-371.602 3280.7-44.3008Z"/>
<path transform="matrix(.1,0,0,-.1,0,792)" d="M6008.4 282.898 6246.1-44.3008 6630.8 80.6992V485.199L6246.1 610.199" fill="#ffde66"/>
<path transform="matrix(.1,0,0,-.1,0,792)" stroke-width="1" stroke-linecap="butt" stroke-miterlimit="10" stroke-linejoin="miter" fill="none" stroke="#000000" d="M6008.4 282.898 6246.1-44.3008 6630.8 80.6992V485.199L6246.1 610.199Z"/>
<path transform="matrix(.1,0,0,-.1,0,792)" d="M6008.4 282.898 5770.6-44.3008 6008.4-121.602 6246.1-44.3008Z" fill="#5c6600"/>
<path transform="matrix(.1,0,0,-.1,0,792)" stroke-width="1" stroke-linecap="butt" stroke-miterlimit="10" stroke-linejoin="miter" fill="none" stroke="#000000" d="M6008.4 282.898 5770.6-44.3008 6008.4-121.602 6246.1-44.3008Z"/>
<path transform="matrix(.1,0,0,-.1,0,792)" d="M6008.4 1592 6246.1 1264.7 6630.8 1389.7V1794.2L6246.1 1919.2" fill="#ffde66"/>
<path transform="matrix(.1,0,0,-.1,0,792)" stroke-width="1" stroke-linecap="butt" stroke-miterlimit="10" stroke-linejoin="miter" fill="none" stroke="#000000" d="M6008.4 1592 6246.1 1264.7 6630.8 1389.7V1794.2L6246.1 1919.2Z"/>
<path transform="matrix(.1,0,0,-.1,0,792)" d="M6008.4 2901 6246.1 2573.7 6630.8 2698.7V3103.2L6246.1 3228.2" fill="#ffde66"/>
<path transform="matrix(.1,0,0,-.1,0,792)" stroke-width="1" stroke-linecap="butt" stroke-miterlimit="10" stroke-linejoin="miter" fill="none" stroke="#000000" d="M6008.4 2901 6246.1 2573.7 6630.8 2698.7V3103.2L6246.1 3228.2Z"/>
<path transform="matrix(.1,0,0,-.1,0,792)" d="M6008.4 4210 6246.1 3882.7 6630.8 4007.7V4412.3L6246.1 4537.3" fill="#ffde66"/>
<path transform="matrix(.1,0,0,-.1,0,792)" stroke-width="1" stroke-linecap="butt" stroke-miterlimit="10" stroke-linejoin="miter" fill="none" stroke="#000000" d="M6008.4 4210 6246.1 3882.7 6630.8 4007.7V4412.3L6246.1 4537.3Z"/>
<path transform="matrix(.1,0,0,-.1,0,792)" d="M6008.4 5519 6246.1 5191.8 6630.8 5316.8V5721.3L6246.1 5846.3" fill="#ffde66"/>
<path transform="matrix(.1,0,0,-.1,0,792)" stroke-width="1" stroke-linecap="butt" stroke-miterlimit="10" stroke-linejoin="miter" fill="none" stroke="#000000" d="M6008.4 5519 6246.1 5191.8 6630.8 5316.8V5721.3L6246.1 5846.3Z"/>
<path transform="matrix(.1,0,0,-.1,0,792)" d="M6008.4 6828 6246.1 6500.8 6630.8 6625.8V7030.3L6246.1 7155.3" fill="#ffde66"/>
<path transform="matrix(.1,0,0,-.1,0,792)" stroke-width="1" stroke-linecap="butt" stroke-miterlimit="10" stroke-linejoin="miter" fill="none" stroke="#000000" d="M6008.4 6828 6246.1 6500.8 6630.8 6625.8V7030.3L6246.1 7155.3Z"/>
<path transform="matrix(.1,0,0,-.1,0,792)" d="M6008.4 8137.1 6246.1 7809.8 6630.8 7934.8V8339.3L6246.1 8464.3" fill="#ffde66"/>
<path transform="matrix(.1,0,0,-.1,0,792)" stroke-width="1" stroke-linecap="butt" stroke-miterlimit="10" stroke-linejoin="miter" fill="none" stroke="#000000" d="M6008.4 8137.1 6246.1 7809.8 6630.8 7934.8V8339.3L6246.1 8464.3Z"/>
</svg>
