<svg xmlns="http://www.w3.org/2000/svg" xmlns:xlink="http://www.w3.org/1999/xlink" xmlns:inkscape="http://www.inkscape.org/namespaces/inkscape" version="1.1" width="612" height="792" viewBox="0 0 612 792">
<path transform="matrix(.1,0,0,-.1,0,792)" d="M3446.2 4210 3471.9 4147.9 3446.2 4210 3327.3 4497 3040.3 4615.9 3102.4 4641.6 3040.3 4615.9 2753.3 4497 2634.4 4210 2608.7 4272.1 2634.4 4210 2753.3 3923 3040.3 3804.1 2978.3 3778.4 3040.3 3804.1 3327.3 3923" fill="#c28c24"/>
<path transform="matrix(.1,0,0,-.1,0,792)" stroke-width="9.5" stroke-linecap="butt" stroke-miterlimit="10" stroke-linejoin="miter" fill="none" stroke="#000000" d="M3446.2 4210 3471.9 4147.9 3446.2 4210 3327.3 4497 3040.3 4615.9 3102.4 4641.6 3040.3 4615.9 2753.3 4497 2634.4 4210 2608.7 4272.1 2634.4 4210 2753.3 3923 3040.3 3804.1 2978.3 3778.4 3040.3 3804.1 3327.3 3923Z"/>
<path transform="matrix(.1,0,0,-.1,0,792)" d="M2680.6 4569.7 2916.2 4667.3 2978.3 4693 2916.2 4667.3 2366.5 4895 2916.2 5122.7 2978.3 5148.4 2916.2 5122.7 2680.6 5220.3 2583 5455.9 2557.3 5517.9 2583 5455.9 2350.7 4895 2325 4832.9 2350.7 4895 2583 4334.1 2608.7 4272.1 2583 4334.1" fill="#f8c499"/>
<path transform="matrix(.1,0,0,-.1,0,792)" stroke-width="9.5" stroke-linecap="butt" stroke-miterlimit="10" stroke-linejoin="miter" fill="none" stroke="#000000" d="M2680.6 4569.7 2916.2 4667.3 2978.3 4693 2916.2 4667.3 2366.5 4895 2916.2 5122.7 2978.3 5148.4 2916.2 5122.7 2680.6 5220.3 2583 5455.9 2557.3 5517.9 2583 5455.9 2350.7 4895 2325 4832.9 2350.7 4895 2583 4334.1 2608.7 4272.1 2583 4334.1Z"/>
<path transform="matrix(.1,0,0,-.1,0,792)" d="M2680.6 3850.3 2583 4085.9 2557.3 4147.9 2583 4085.9 2447.1 3757.6 2124.4 3891.3 2080.5 3909.4 2124.4 3891.3 2027.1 3656.4 2355.3 3520.4 2417.4 3494.7 2355.3 3520.4 2916.2 3752.7 2978.3 3778.4 2916.2 3752.7" fill="#b0c4d9"/>
<path transform="matrix(.1,0,0,-.1,0,792)" stroke-width="9.5" stroke-linecap="butt" stroke-miterlimit="10" stroke-linejoin="miter" fill="none" stroke="#000000" d="M2680.6 3850.3 2583 4085.9 2557.3 4147.9 2583 4085.9 2447.1 3757.6 2124.4 3891.3 2080.5 3909.4 2124.4 3891.3 2027.1 3656.4 2355.3 3520.4 2417.4 3494.7 2355.3 3520.4 2916.2 3752.7 2978.3 3778.4 2916.2 3752.7Z"/>
<path transform="matrix(.1,0,0,-.1,0,792)" d="M3164.5 3752.7 3102.4 3727 3164.5 3752.7 3725.3 3520.4 3787.4 3494.7 3725.3 3520.4 4053.6 3656.4 3956.3 3891.3 3938.1 3935.2 3956.3 3891.3 3633.6 3757.6 3497.6 4085.9 3471.9 4147.9 3497.6 4085.9 3400 3850.3" fill="#9bc9b0"/>
<path transform="matrix(.1,0,0,-.1,0,792)" stroke-width="9.5" stroke-linecap="butt" stroke-miterlimit="10" stroke-linejoin="miter" fill="none" stroke="#000000" d="M3164.5 3752.7 3102.4 3727 3164.5 3752.7 3725.3 3520.4 3787.4 3494.7 3725.3 3520.4 4053.6 3656.4 3956.3 3891.3 3938.1 3935.2 3956.3 3891.3 3633.6 3757.6 3497.6 4085.9 3471.9 4147.9 3497.6 4085.9 3400 3850.3Z"/>
<path transform="matrix(.1,0,0,-.1,0,792)" d="M3040.3 3701.3 3102.4 3727 3040.3 3701.3 2479.5 3469 2417.4 3494.7 2479.5 3469 2715 3371.4 2812.6 3135.8 2786.9 3073.7 2812.6 3135.8 3040.3 3685.5 3268 3135.8 3242.3 3073.7 3268 3135.8 3365.6 3371.4 3601.2 3469 3663.3 3443.3 3601.2 3469" fill="#f8c499"/>
<path transform="matrix(.1,0,0,-.1,0,792)" stroke-width="9.5" stroke-linecap="butt" stroke-miterlimit="10" stroke-linejoin="miter" fill="none" stroke="#000000" d="M3040.3 3701.3 3102.4 3727 3040.3 3701.3 2479.5 3469 2417.4 3494.7 2479.5 3469 2715 3371.4 2812.6 3135.8 2786.9 3073.7 2812.6 3135.8 3040.3 3685.5 3268 3135.8 3242.3 3073.7 3268 3135.8 3365.6 3371.4 3601.2 3469 3663.3 3443.3 3601.2 3469Z"/>
<path transform="matrix(.1,0,0,-.1,0,792)" d="M3040.3 4718.7 2978.3 4693 3040.3 4718.7 3465.9 4895 3040.3 5071.3 3102.4 5097 3040.3 5071.3 2614.7 4895" fill="#c28c24"/>
<path transform="matrix(.1,0,0,-.1,0,792)" stroke-width="9.5" stroke-linecap="butt" stroke-miterlimit="10" stroke-linejoin="miter" fill="none" stroke="#000000" d="M3040.3 4718.7 2978.3 4693 3040.3 4718.7 3465.9 4895 3040.3 5071.3 3102.4 5097 3040.3 5071.3 2614.7 4895Z"/>
<path transform="matrix(.1,0,0,-.1,0,792)" d="M3164.5 4667.3 3102.4 4641.6 3164.5 4667.3 3400 4569.7 3497.6 4334.1 3523.3 4272.1 3497.6 4334.1 3729.9 4895 3755.7 4957.1 3729.9 4895 3497.6 5455.9 3471.9 5517.9 3497.6 5455.9 3400 5220.3 3164.5 5122.7 3102.4 5097 3164.5 5122.7 3714.2 4895" fill="#f8c499"/>
<path transform="matrix(.1,0,0,-.1,0,792)" stroke-width="9.5" stroke-linecap="butt" stroke-miterlimit="10" stroke-linejoin="miter" fill="none" stroke="#000000" d="M3164.5 4667.3 3102.4 4641.6 3164.5 4667.3 3400 4569.7 3497.6 4334.1 3523.3 4272.1 3497.6 4334.1 3729.9 4895 3755.7 4957.1 3729.9 4895 3497.6 5455.9 3471.9 5517.9 3497.6 5455.9 3400 5220.3 3164.5 5122.7 3102.4 5097 3164.5 5122.7 3714.2 4895Z"/>
<path transform="matrix(.1,0,0,-.1,0,792)" d="M2531.6 4210 2557.3 4147.9 2531.6 4210 2299.3 4770.9 2325 4832.9 2299.3 4770.9 2201.7 4535.3 1966.1 4437.7 1904.1 4463.4 1966.1 4437.7 2294.4 4301.7 2160.7 3979 2116.8 3997.2 2160.7 3979 2395.6 3881.7" fill="#b0c4d9"/>
<path transform="matrix(.1,0,0,-.1,0,792)" stroke-width="9.5" stroke-linecap="butt" stroke-miterlimit="10" stroke-linejoin="miter" fill="none" stroke="#000000" d="M2531.6 4210 2557.3 4147.9 2531.6 4210 2299.3 4770.9 2325 4832.9 2299.3 4770.9 2201.7 4535.3 1966.1 4437.7 1904.1 4463.4 1966.1 4437.7 2294.4 4301.7 2160.7 3979 2116.8 3997.2 2160.7 3979 2395.6 3881.7Z"/>
<path transform="matrix(.1,0,0,-.1,0,792)" d="M3040.3 3437.3 2864 3011.7 2838.3 2949.6 2864 3011.7 3040.3 2586.1 3216.6 3011.7 3242.3 3073.7 3216.6 3011.7" fill="#c28c24"/>
<path transform="matrix(.1,0,0,-.1,0,792)" stroke-width="9.5" stroke-linecap="butt" stroke-miterlimit="10" stroke-linejoin="miter" fill="none" stroke="#000000" d="M3040.3 3437.3 2864 3011.7 2838.3 2949.6 2864 3011.7 3040.3 2586.1 3216.6 3011.7 3242.3 3073.7 3216.6 3011.7Z"/>
<path transform="matrix(.1,0,0,-.1,0,792)" d="M3549 4210 3523.3 4272.1 3549 4210 3685 3881.7 3919.9 3979 3938.1 3935.2 3919.9 3979 3786.3 4301.7 4114.5 4437.7 4176.6 4412 4114.5 4437.7 3878.9 4535.3 3781.4 4770.9 3807.1 4832.9 3781.4 4770.9" fill="#9bc9b0"/>
<path transform="matrix(.1,0,0,-.1,0,792)" stroke-width="9.5" stroke-linecap="butt" stroke-miterlimit="10" stroke-linejoin="miter" fill="none" stroke="#000000" d="M3549 4210 3523.3 4272.1 3549 4210 3685 3881.7 3919.9 3979 3938.1 3935.2 3919.9 3979 3786.3 4301.7 4114.5 4437.7 4176.6 4412 4114.5 4437.7 3878.9 4535.3 3781.4 4770.9 3807.1 4832.9 3781.4 4770.9Z"/>
<path transform="matrix(.1,0,0,-.1,0,792)" d="M2355.3 3417.6 2293.3 3443.3 2355.3 3417.6 2068.3 3298.7 1949.5 3011.7 1923.7 2949.6 1949.5 3011.7 2068.3 2724.7 2355.3 2605.8 2417.4 2580.1 2355.3 2605.8 2642.3 2724.7 2761.2 3011.7 2786.9 3073.7 2761.2 3011.7 2642.3 3298.7" fill="#c28c24"/>
<path transform="matrix(.1,0,0,-.1,0,792)" stroke-width="9.5" stroke-linecap="butt" stroke-miterlimit="10" stroke-linejoin="miter" fill="none" stroke="#000000" d="M2355.3 3417.6 2293.3 3443.3 2355.3 3417.6 2068.3 3298.7 1949.5 3011.7 1923.7 2949.6 1949.5 3011.7 2068.3 2724.7 2355.3 2605.8 2417.4 2580.1 2355.3 2605.8 2642.3 2724.7 2761.2 3011.7 2786.9 3073.7 2761.2 3011.7 2642.3 3298.7Z"/>
<path transform="matrix(.1,0,0,-.1,0,792)" d="M2231.2 3469 2293.3 3443.3 2231.2 3469 1902.9 3604.9 2036.6 3927.6 2080.5 3909.4 2036.6 3927.6 1801.7 4024.9 1665.7 3696.7 1640 3758.7 1665.7 3696.7 1898 3135.8 1872.3 3073.7 1898 3135.8 1995.6 3371.4" fill="#b0c4d9"/>
<path transform="matrix(.1,0,0,-.1,0,792)" stroke-width="9.5" stroke-linecap="butt" stroke-miterlimit="10" stroke-linejoin="miter" fill="none" stroke="#000000" d="M2231.2 3469 2293.3 3443.3 2231.2 3469 1902.9 3604.9 2036.6 3927.6 2080.5 3909.4 2036.6 3927.6 1801.7 4024.9 1665.7 3696.7 1640 3758.7 1665.7 3696.7 1898 3135.8 1872.3 3073.7 1898 3135.8 1995.6 3371.4Z"/>
<path transform="matrix(.1,0,0,-.1,0,792)" d="M3438.3 3298.7 3319.4 3011.7 3293.7 2949.6 3319.4 3011.7 3438.3 2724.7 3725.3 2605.8 3787.4 2580.1 3725.3 2605.8 4012.3 2724.7 4131.2 3011.7 4156.9 3073.7 4131.2 3011.7 4012.3 3298.7 3725.3 3417.6 3663.3 3443.3 3725.3 3417.6" fill="#c28c24"/>
<path transform="matrix(.1,0,0,-.1,0,792)" stroke-width="9.5" stroke-linecap="butt" stroke-miterlimit="10" stroke-linejoin="miter" fill="none" stroke="#000000" d="M3438.3 3298.7 3319.4 3011.7 3293.7 2949.6 3319.4 3011.7 3438.3 2724.7 3725.3 2605.8 3787.4 2580.1 3725.3 2605.8 4012.3 2724.7 4131.2 3011.7 4156.9 3073.7 4131.2 3011.7 4012.3 3298.7 3725.3 3417.6 3663.3 3443.3 3725.3 3417.6Z"/>
<path transform="matrix(.1,0,0,-.1,0,792)" d="M3040.3 5174.1 2978.3 5148.4 3040.3 5174.1 3327.3 5293 3446.2 5580 3471.9 5517.9 3446.2 5580 3327.3 5867 3040.3 5985.9 3102.4 6011.6 3040.3 5985.9 2753.3 5867 2634.4 5580 2608.7 5642 2634.4 5580 2753.3 5293" fill="#c28c24"/>
<path transform="matrix(.1,0,0,-.1,0,792)" stroke-width="9.5" stroke-linecap="butt" stroke-miterlimit="10" stroke-linejoin="miter" fill="none" stroke="#000000" d="M3040.3 5174.1 2978.3 5148.4 3040.3 5174.1 3327.3 5293 3446.2 5580 3471.9 5517.9 3446.2 5580 3327.3 5867 3040.3 5985.9 3102.4 6011.6 3040.3 5985.9 2753.3 5867 2634.4 5580 2608.7 5642 2634.4 5580 2753.3 5293Z"/>
<path transform="matrix(.1,0,0,-.1,0,792)" d="M2247.9 4895 2273.6 4957.1 2247.9 4895 2129 5182 1842 5300.9 1779.9 5326.6 1842 5300.9 1555 5182 1436.1 4895 1410.4 4832.9 1436.1 4895 1555 4608 1842 4489.1 1904.1 4463.4 1842 4489.1 2129 4608" fill="#c28c24"/>
<path transform="matrix(.1,0,0,-.1,0,792)" stroke-width="9.5" stroke-linecap="butt" stroke-miterlimit="10" stroke-linejoin="miter" fill="none" stroke="#000000" d="M2247.9 4895 2273.6 4957.1 2247.9 4895 2129 5182 1842 5300.9 1779.9 5326.6 1842 5300.9 1555 5182 1436.1 4895 1410.4 4832.9 1436.1 4895 1555 4608 1842 4489.1 1904.1 4463.4 1842 4489.1 2129 4608Z"/>
<path transform="matrix(.1,0,0,-.1,0,792)" d="M2299.3 5019.1 2273.6 4957.1 2299.3 5019.1 2531.6 5580 2557.3 5517.9 2531.6 5580 2395.6 5908.3 2160.7 5810.9 2142.6 5854.8 2160.7 5810.9 2294.4 5488.3 1966.1 5352.3 1904.1 5378 1966.1 5352.3 2201.7 5254.7" fill="#9bc9b0"/>
<path transform="matrix(.1,0,0,-.1,0,792)" stroke-width="9.5" stroke-linecap="butt" stroke-miterlimit="10" stroke-linejoin="miter" fill="none" stroke="#000000" d="M2299.3 5019.1 2273.6 4957.1 2299.3 5019.1 2531.6 5580 2557.3 5517.9 2531.6 5580 2395.6 5908.3 2160.7 5810.9 2142.6 5854.8 2160.7 5810.9 2294.4 5488.3 1966.1 5352.3 1904.1 5378 1966.1 5352.3 2201.7 5254.7Z"/>
<path transform="matrix(.1,0,0,-.1,0,792)" d="M2170.3 4250.3 1842 4386.3 1779.9 4412 1842 4386.3 1281.1 4154 1219.1 4128.3 1281.1 4154 1516.7 4056.4 1614.3 3820.8 1640 3758.7 1614.3 3820.8 1750.3 4149.1 2073 4015.4 2116.8 3997.2 2073 4015.4" fill="#b0c4d9"/>
<path transform="matrix(.1,0,0,-.1,0,792)" stroke-width="9.5" stroke-linecap="butt" stroke-miterlimit="10" stroke-linejoin="miter" fill="none" stroke="#000000" d="M2170.3 4250.3 1842 4386.3 1779.9 4412 1842 4386.3 1281.1 4154 1219.1 4128.3 1281.1 4154 1516.7 4056.4 1614.3 3820.8 1640 3758.7 1614.3 3820.8 1750.3 4149.1 2073 4015.4 2116.8 3997.2 2073 4015.4Z"/>
<path transform="matrix(.1,0,0,-.1,0,792)" d="M3849.4 3469 3787.4 3494.7 3849.4 3469 4085 3371.4 4182.6 3135.8 4156.9 3073.7 4182.6 3135.8 4414.9 3696.7 4440.6 3634.6 4414.9 3696.7 4279 4024.9 4044.1 3927.6 4025.9 3971.5 4044.1 3927.6 4177.7 3604.9" fill="#9bc9b0"/>
<path transform="matrix(.1,0,0,-.1,0,792)" stroke-width="9.5" stroke-linecap="butt" stroke-miterlimit="10" stroke-linejoin="miter" fill="none" stroke="#000000" d="M3849.4 3469 3787.4 3494.7 3849.4 3469 4085 3371.4 4182.6 3135.8 4156.9 3073.7 4182.6 3135.8 4414.9 3696.7 4440.6 3634.6 4414.9 3696.7 4279 4024.9 4044.1 3927.6 4025.9 3971.5 4044.1 3927.6 4177.7 3604.9Z"/>
<path transform="matrix(.1,0,0,-.1,0,792)" d="M3781.4 5019.1 3755.7 4957.1 3781.4 5019.1 3878.9 5254.7 4114.5 5352.3 4176.6 5326.6 4114.5 5352.3 3786.3 5488.3 3919.9 5810.9 3963.8 5792.8 3919.9 5810.9 3685 5908.3 3549 5580 3523.3 5642 3549 5580" fill="#b0c4d9"/>
<path transform="matrix(.1,0,0,-.1,0,792)" stroke-width="9.5" stroke-linecap="butt" stroke-miterlimit="10" stroke-linejoin="miter" fill="none" stroke="#000000" d="M3781.4 5019.1 3755.7 4957.1 3781.4 5019.1 3878.9 5254.7 4114.5 5352.3 4176.6 5326.6 4114.5 5352.3 3786.3 5488.3 3919.9 5810.9 3963.8 5792.8 3919.9 5810.9 3685 5908.3 3549 5580 3523.3 5642 3549 5580Z"/>
<path transform="matrix(.1,0,0,-.1,0,792)" d="M3832.8 4895 3807.1 4832.9 3832.8 4895 3951.7 4608 4238.7 4489.1 4300.7 4463.4 4238.7 4489.1 4525.7 4608 4644.5 4895 4670.2 4957.1 4644.5 4895 4525.7 5182 4238.7 5300.9 4176.6 5326.6 4238.7 5300.9 3951.7 5182" fill="#c28c24"/>
<path transform="matrix(.1,0,0,-.1,0,792)" stroke-width="9.5" stroke-linecap="butt" stroke-miterlimit="10" stroke-linejoin="miter" fill="none" stroke="#000000" d="M3832.8 4895 3807.1 4832.9 3832.8 4895 3951.7 4608 4238.7 4489.1 4300.7 4463.4 4238.7 4489.1 4525.7 4608 4644.5 4895 4670.2 4957.1 4644.5 4895 4525.7 5182 4238.7 5300.9 4176.6 5326.6 4238.7 5300.9 3951.7 5182Z"/>
<path transform="matrix(.1,0,0,-.1,0,792)" d="M2812.6 2887.5 2838.3 2949.6 2812.6 2887.5 2715 2652 2479.5 2554.4 2417.4 2580.1 2479.5 2554.4 3040.3 2322.1 2978.3 2296.3 3040.3 2322.1 3601.2 2554.4 3663.3 2528.7 3601.2 2554.4 3365.6 2652 3268 2887.5 3293.7 2949.6 3268 2887.5 3040.3 2337.8" fill="#f8c499"/>
<path transform="matrix(.1,0,0,-.1,0,792)" stroke-width="9.5" stroke-linecap="butt" stroke-miterlimit="10" stroke-linejoin="miter" fill="none" stroke="#000000" d="M2812.6 2887.5 2838.3 2949.6 2812.6 2887.5 2715 2652 2479.5 2554.4 2417.4 2580.1 2479.5 2554.4 3040.3 2322.1 2978.3 2296.3 3040.3 2322.1 3601.2 2554.4 3663.3 2528.7 3601.2 2554.4 3365.6 2652 3268 2887.5 3293.7 2949.6 3268 2887.5 3040.3 2337.8Z"/>
<path transform="matrix(.1,0,0,-.1,0,792)" d="M3910.4 4250.3 4007.7 4015.4 4025.9 3971.5 4007.7 4015.4 4330.4 4149.1 4466.4 3820.8 4492.1 3758.7 4466.4 3820.8 4563.9 4056.4 4799.5 4154 4861.6 4179.7 4799.5 4154 4238.7 4386.3 4176.6 4412 4238.7 4386.3" fill="#9bc9b0"/>
<path transform="matrix(.1,0,0,-.1,0,792)" stroke-width="9.5" stroke-linecap="butt" stroke-miterlimit="10" stroke-linejoin="miter" fill="none" stroke="#000000" d="M3910.4 4250.3 4007.7 4015.4 4025.9 3971.5 4007.7 4015.4 4330.4 4149.1 4466.4 3820.8 4492.1 3758.7 4466.4 3820.8 4563.9 4056.4 4799.5 4154 4861.6 4179.7 4799.5 4154 4238.7 4386.3 4176.6 4412 4238.7 4386.3Z"/>
<path transform="matrix(.1,0,0,-.1,0,792)" d="M3910.4 5539.7 4238.7 5403.7 4300.7 5378 4238.7 5403.7 4799.5 5636 4861.6 5661.7 4799.5 5636 4563.9 5733.6 4466.4 5969.2 4440.6 6031.3 4466.4 5969.2 4330.4 5640.9 4007.7 5774.6 3963.8 5792.8 4007.7 5774.6" fill="#b0c4d9"/>
<path transform="matrix(.1,0,0,-.1,0,792)" stroke-width="9.5" stroke-linecap="butt" stroke-miterlimit="10" stroke-linejoin="miter" fill="none" stroke="#000000" d="M3910.4 5539.7 4238.7 5403.7 4300.7 5378 4238.7 5403.7 4799.5 5636 4861.6 5661.7 4799.5 5636 4563.9 5733.6 4466.4 5969.2 4440.6 6031.3 4466.4 5969.2 4330.4 5640.9 4007.7 5774.6 3963.8 5792.8 4007.7 5774.6Z"/>
<path transform="matrix(.1,0,0,-.1,0,792)" d="M2170.3 5539.7 2073 5774.6 2054.8 5818.5 2073 5774.6 1750.3 5640.9 1614.3 5969.2 1588.6 6031.3 1614.3 5969.2 1516.7 5733.6 1281.1 5636 1219.1 5610.3 1281.1 5636 1842 5403.7 1904.1 5378 1842 5403.7" fill="#9bc9b0"/>
<path transform="matrix(.1,0,0,-.1,0,792)" stroke-width="9.5" stroke-linecap="butt" stroke-miterlimit="10" stroke-linejoin="miter" fill="none" stroke="#000000" d="M2170.3 5539.7 2073 5774.6 2054.8 5818.5 2073 5774.6 1750.3 5640.9 1614.3 5969.2 1588.6 6031.3 1614.3 5969.2 1516.7 5733.6 1281.1 5636 1219.1 5610.3 1281.1 5636 1842 5403.7 1904.1 5378 1842 5403.7Z"/>
<path transform="matrix(.1,0,0,-.1,0,792)" d="M3497.6 5704.1 3523.3 5642 3497.6 5704.1 3633.6 6032.4 3956.3 5898.7 4000.2 5880.5 3956.3 5898.7 4053.6 6133.6 3725.3 6269.6 3663.3 6295.3 3725.3 6269.6 3164.5 6037.3 3102.4 6011.6 3164.5 6037.3 3400 5939.7" fill="#b0c4d9"/>
<path transform="matrix(.1,0,0,-.1,0,792)" stroke-width="9.5" stroke-linecap="butt" stroke-miterlimit="10" stroke-linejoin="miter" fill="none" stroke="#000000" d="M3497.6 5704.1 3523.3 5642 3497.6 5704.1 3633.6 6032.4 3956.3 5898.7 4000.2 5880.5 3956.3 5898.7 4053.6 6133.6 3725.3 6269.6 3663.3 6295.3 3725.3 6269.6 3164.5 6037.3 3102.4 6011.6 3164.5 6037.3 3400 5939.7Z"/>
<path transform="matrix(.1,0,0,-.1,0,792)" d="M2583 5704.1 2608.7 5642 2583 5704.1 2680.6 5939.7 2916.2 6037.3 2978.3 6063 2916.2 6037.3 2355.3 6269.6 2293.3 6295.3 2355.3 6269.6 2027.1 6133.6 2124.4 5898.7 2142.6 5854.8 2124.4 5898.7 2447.1 6032.4" fill="#9bc9b0"/>
<path transform="matrix(.1,0,0,-.1,0,792)" stroke-width="9.5" stroke-linecap="butt" stroke-miterlimit="10" stroke-linejoin="miter" fill="none" stroke="#000000" d="M2583 5704.1 2608.7 5642 2583 5704.1 2680.6 5939.7 2916.2 6037.3 2978.3 6063 2916.2 6037.3 2355.3 6269.6 2293.3 6295.3 2355.3 6269.6 2027.1 6133.6 2124.4 5898.7 2142.6 5854.8 2124.4 5898.7 2447.1 6032.4Z"/>
<path transform="matrix(.1,0,0,-.1,0,792)" d="M1898 2887.5 1923.7 2949.6 1898 2887.5 1665.7 2326.7 1640 2388.7 1665.7 2326.7 1801.7 1998.4 2036.6 2095.7 2054.8 2051.8 2036.6 2095.7 1902.9 2418.4 2231.2 2554.4 2293.3 2528.7 2231.2 2554.4 1995.6 2652" fill="#9bc9b0"/>
<path transform="matrix(.1,0,0,-.1,0,792)" stroke-width="9.5" stroke-linecap="butt" stroke-miterlimit="10" stroke-linejoin="miter" fill="none" stroke="#000000" d="M1898 2887.5 1923.7 2949.6 1898 2887.5 1665.7 2326.7 1640 2388.7 1665.7 2326.7 1801.7 1998.4 2036.6 2095.7 2054.8 2051.8 2036.6 2095.7 1902.9 2418.4 2231.2 2554.4 2293.3 2528.7 2231.2 2554.4 1995.6 2652Z"/>
<path transform="matrix(.1,0,0,-.1,0,792)" d="M1846.6 3011.7 1872.3 3073.7 1846.6 3011.7 1614.3 3572.5 1588.6 3634.6 1614.3 3572.5 1516.7 3337 1281.1 3239.4 1219.1 3213.7 1281.1 3239.4 1830.8 3011.7 1281.1 2784 1219.1 2758.3 1281.1 2784 1516.7 2686.4 1614.3 2450.8 1640 2388.7 1614.3 2450.8" fill="#f8c499"/>
<path transform="matrix(.1,0,0,-.1,0,792)" stroke-width="9.5" stroke-linecap="butt" stroke-miterlimit="10" stroke-linejoin="miter" fill="none" stroke="#000000" d="M1846.6 3011.7 1872.3 3073.7 1846.6 3011.7 1614.3 3572.5 1588.6 3634.6 1614.3 3572.5 1516.7 3337 1281.1 3239.4 1219.1 3213.7 1281.1 3239.4 1830.8 3011.7 1281.1 2784 1219.1 2758.3 1281.1 2784 1516.7 2686.4 1614.3 2450.8 1640 2388.7 1614.3 2450.8Z"/>
<path transform="matrix(.1,0,0,-.1,0,792)" d="M4085 2652 3849.4 2554.4 3787.4 2580.1 3849.4 2554.4 4177.7 2418.4 4044.1 2095.7 4000.2 2113.9 4044.1 2095.7 4279 1998.4 4414.9 2326.7 4440.6 2264.6 4414.9 2326.7 4182.6 2887.5 4208.3 2949.6 4182.6 2887.5" fill="#b0c4d9"/>
<path transform="matrix(.1,0,0,-.1,0,792)" stroke-width="9.5" stroke-linecap="butt" stroke-miterlimit="10" stroke-linejoin="miter" fill="none" stroke="#000000" d="M4085 2652 3849.4 2554.4 3787.4 2580.1 3849.4 2554.4 4177.7 2418.4 4044.1 2095.7 4000.2 2113.9 4044.1 2095.7 4279 1998.4 4414.9 2326.7 4440.6 2264.6 4414.9 2326.7 4182.6 2887.5 4208.3 2949.6 4182.6 2887.5Z"/>
<path transform="matrix(.1,0,0,-.1,0,792)" d="M1717.9 5352.3 1779.9 5326.6 1717.9 5352.3 1157 5584.6 1219.1 5610.3 1157 5584.6 596.102 5352.3 534.102 5378 596.102 5352.3 831.699 5254.7 929.301 5019.1 903.602 4957.1 929.301 5019.1 1157 5568.8 1384.7 5019.1 1359 4957.1 1384.7 5019.1 1482.3 5254.7" fill="#f8c499"/>
<path transform="matrix(.1,0,0,-.1,0,792)" stroke-width="9.5" stroke-linecap="butt" stroke-miterlimit="10" stroke-linejoin="miter" fill="none" stroke="#000000" d="M1717.9 5352.3 1779.9 5326.6 1717.9 5352.3 1157 5584.6 1219.1 5610.3 1157 5584.6 596.102 5352.3 534.102 5378 596.102 5352.3 831.699 5254.7 929.301 5019.1 903.602 4957.1 929.301 5019.1 1157 5568.8 1384.7 5019.1 1359 4957.1 1384.7 5019.1 1482.3 5254.7Z"/>
<path transform="matrix(.1,0,0,-.1,0,792)" d="M1717.9 4437.7 1779.9 4412 1717.9 4437.7 1482.3 4535.3 1384.7 4770.9 1410.4 4832.9 1384.7 4770.9 1157 4221.2 929.301 4770.9 955 4832.9 929.301 4770.9 831.699 4535.3 596.102 4437.7 534.102 4463.4 596.102 4437.7 1157 4205.4 1094.9 4179.7 1157 4205.4" fill="#f8c499"/>
<path transform="matrix(.1,0,0,-.1,0,792)" stroke-width="9.5" stroke-linecap="butt" stroke-miterlimit="10" stroke-linejoin="miter" fill="none" stroke="#000000" d="M1717.9 4437.7 1779.9 4412 1717.9 4437.7 1482.3 4535.3 1384.7 4770.9 1410.4 4832.9 1384.7 4770.9 1157 4221.2 929.301 4770.9 955 4832.9 929.301 4770.9 831.699 4535.3 596.102 4437.7 534.102 4463.4 596.102 4437.7 1157 4205.4 1094.9 4179.7 1157 4205.4Z"/>
<path transform="matrix(.1,0,0,-.1,0,792)" d="M4044.1 5862.4 4000.2 5880.5 4044.1 5862.4 4279 5765.1 4414.9 6093.3 4440.6 6031.3 4414.9 6093.3 4182.6 6654.2 4208.3 6716.3 4182.6 6654.2 4085 6418.6 3849.4 6321 3787.4 6346.7 3849.4 6321 4177.7 6185" fill="#b0c4d9"/>
<path transform="matrix(.1,0,0,-.1,0,792)" stroke-width="9.5" stroke-linecap="butt" stroke-miterlimit="10" stroke-linejoin="miter" fill="none" stroke="#000000" d="M4044.1 5862.4 4000.2 5880.5 4044.1 5862.4 4279 5765.1 4414.9 6093.3 4440.6 6031.3 4414.9 6093.3 4182.6 6654.2 4208.3 6716.3 4182.6 6654.2 4085 6418.6 3849.4 6321 3787.4 6346.7 3849.4 6321 4177.7 6185Z"/>
<path transform="matrix(.1,0,0,-.1,0,792)" d="M2036.6 5862.4 2054.8 5818.5 2036.6 5862.4 1902.9 6185 2231.2 6321 2293.3 6295.3 2231.2 6321 1995.6 6418.6 1898 6654.2 1923.7 6716.3 1898 6654.2 1665.7 6093.3 1640 6155.4 1665.7 6093.3 1801.7 5765.1" fill="#9bc9b0"/>
<path transform="matrix(.1,0,0,-.1,0,792)" stroke-width="9.5" stroke-linecap="butt" stroke-miterlimit="10" stroke-linejoin="miter" fill="none" stroke="#000000" d="M2036.6 5862.4 2054.8 5818.5 2036.6 5862.4 1902.9 6185 2231.2 6321 2293.3 6295.3 2231.2 6321 1995.6 6418.6 1898 6654.2 1923.7 6716.3 1898 6654.2 1665.7 6093.3 1640 6155.4 1665.7 6093.3 1801.7 5765.1Z"/>
<path transform="matrix(.1,0,0,-.1,0,792)" d="M2355.3 2503 2293.3 2528.7 2355.3 2503 2027.1 2367 2124.4 2132.1 2142.6 2088.2 2124.4 2132.1 2447.1 2265.7 2583 1937.5 2608.7 1875.4 2583 1937.5 2680.6 2173.1 2916.2 2270.6 2978.3 2296.3 2916.2 2270.6" fill="#9bc9b0"/>
<path transform="matrix(.1,0,0,-.1,0,792)" stroke-width="9.5" stroke-linecap="butt" stroke-miterlimit="10" stroke-linejoin="miter" fill="none" stroke="#000000" d="M2355.3 2503 2293.3 2528.7 2355.3 2503 2027.1 2367 2124.4 2132.1 2142.6 2088.2 2124.4 2132.1 2447.1 2265.7 2583 1937.5 2608.7 1875.4 2583 1937.5 2680.6 2173.1 2916.2 2270.6 2978.3 2296.3 2916.2 2270.6Z"/>
<path transform="matrix(.1,0,0,-.1,0,792)" d="M3725.3 2503 3663.3 2528.7 3725.3 2503 3164.5 2270.6 3102.4 2244.9 3164.5 2270.6 3400 2173.1 3497.6 1937.5 3523.3 1875.4 3497.6 1937.5 3633.6 2265.7 3956.3 2132.1 4000.2 2113.9 3956.3 2132.1 4053.6 2367" fill="#b0c4d9"/>
<path transform="matrix(.1,0,0,-.1,0,792)" stroke-width="9.5" stroke-linecap="butt" stroke-miterlimit="10" stroke-linejoin="miter" fill="none" stroke="#000000" d="M3725.3 2503 3663.3 2528.7 3725.3 2503 3164.5 2270.6 3102.4 2244.9 3164.5 2270.6 3400 2173.1 3497.6 1937.5 3523.3 1875.4 3497.6 1937.5 3633.6 2265.7 3956.3 2132.1 4000.2 2113.9 3956.3 2132.1 4053.6 2367Z"/>
<path transform="matrix(.1,0,0,-.1,0,792)" d="M4234 3011.7 4208.3 2949.6 4234 3011.7 4466.4 2450.8 4492.1 2388.7 4466.4 2450.8 4563.9 2686.4 4799.5 2784 4861.6 2809.7 4799.5 2784 4249.8 3011.7 4799.5 3239.4 4861.6 3265.1 4799.5 3239.4 4563.9 3337 4466.4 3572.5 4440.6 3634.6 4466.4 3572.5" fill="#f8c499"/>
<path transform="matrix(.1,0,0,-.1,0,792)" stroke-width="9.5" stroke-linecap="butt" stroke-miterlimit="10" stroke-linejoin="miter" fill="none" stroke="#000000" d="M4234 3011.7 4208.3 2949.6 4234 3011.7 4466.4 2450.8 4492.1 2388.7 4466.4 2450.8 4563.9 2686.4 4799.5 2784 4861.6 2809.7 4799.5 2784 4249.8 3011.7 4799.5 3239.4 4861.6 3265.1 4799.5 3239.4 4563.9 3337 4466.4 3572.5 4440.6 3634.6 4466.4 3572.5Z"/>
<path transform="matrix(.1,0,0,-.1,0,792)" d="M4362.8 4437.7 4300.7 4463.4 4362.8 4437.7 4923.6 4205.4 4861.6 4179.7 4923.6 4205.4 5484.5 4437.7 5546.6 4412 5484.5 4437.7 5248.9 4535.3 5151.3 4770.9 5177.1 4832.9 5151.3 4770.9 4923.6 4221.2 4696 4770.9 4721.7 4832.9 4696 4770.9 4598.4 4535.3" fill="#f8c499"/>
<path transform="matrix(.1,0,0,-.1,0,792)" stroke-width="9.5" stroke-linecap="butt" stroke-miterlimit="10" stroke-linejoin="miter" fill="none" stroke="#000000" d="M4362.8 4437.7 4300.7 4463.4 4362.8 4437.7 4923.6 4205.4 4861.6 4179.7 4923.6 4205.4 5484.5 4437.7 5546.6 4412 5484.5 4437.7 5248.9 4535.3 5151.3 4770.9 5177.1 4832.9 5151.3 4770.9 4923.6 4221.2 4696 4770.9 4721.7 4832.9 4696 4770.9 4598.4 4535.3Z"/>
<path transform="matrix(.1,0,0,-.1,0,792)" d="M4362.8 5352.3 4300.7 5378 4362.8 5352.3 4598.4 5254.7 4696 5019.1 4670.2 4957.1 4696 5019.1 4923.6 5568.8 5151.3 5019.1 5125.6 4957.1 5151.3 5019.1 5248.9 5254.7 5484.5 5352.3 5546.6 5326.6 5484.5 5352.3 4923.6 5584.6 4985.7 5610.3 4923.6 5584.6" fill="#f8c499"/>
<path transform="matrix(.1,0,0,-.1,0,792)" stroke-width="9.5" stroke-linecap="butt" stroke-miterlimit="10" stroke-linejoin="miter" fill="none" stroke="#000000" d="M4362.8 5352.3 4300.7 5378 4362.8 5352.3 4598.4 5254.7 4696 5019.1 4670.2 4957.1 4696 5019.1 4923.6 5568.8 5151.3 5019.1 5125.6 4957.1 5151.3 5019.1 5248.9 5254.7 5484.5 5352.3 5546.6 5326.6 5484.5 5352.3 4923.6 5584.6 4985.7 5610.3 4923.6 5584.6Z"/>
<path transform="matrix(.1,0,0,-.1,0,792)" d="M1582.6 3011.7 1157 3188 1219.1 3213.7 1157 3188 731.398 3011.7 1157 2835.4 1094.9 2809.7 1157 2835.4" fill="#c28c24"/>
<path transform="matrix(.1,0,0,-.1,0,792)" stroke-width="9.5" stroke-linecap="butt" stroke-miterlimit="10" stroke-linejoin="miter" fill="none" stroke="#000000" d="M1582.6 3011.7 1157 3188 1219.1 3213.7 1157 3188 731.398 3011.7 1157 2835.4 1094.9 2809.7 1157 2835.4Z"/>
<path transform="matrix(.1,0,0,-.1,0,792)" d="M3040.3 6088.7 2978.3 6063 3040.3 6088.7 3601.2 6321 3663.3 6295.3 3601.2 6321 3365.6 6418.6 3268 6654.2 3293.7 6716.3 3268 6654.2 3040.3 6104.5 2812.6 6654.2 2838.3 6716.3 2812.6 6654.2 2715 6418.6 2479.5 6321 2417.4 6346.7 2479.5 6321" fill="#f8c499"/>
<path transform="matrix(.1,0,0,-.1,0,792)" stroke-width="9.5" stroke-linecap="butt" stroke-miterlimit="10" stroke-linejoin="miter" fill="none" stroke="#000000" d="M3040.3 6088.7 2978.3 6063 3040.3 6088.7 3601.2 6321 3663.3 6295.3 3601.2 6321 3365.6 6418.6 3268 6654.2 3293.7 6716.3 3268 6654.2 3040.3 6104.5 2812.6 6654.2 2838.3 6716.3 2812.6 6654.2 2715 6418.6 2479.5 6321 2417.4 6346.7 2479.5 6321Z"/>
<path transform="matrix(.1,0,0,-.1,0,792)" d="M1562.9 3696.7 1588.6 3634.6 1562.9 3696.7 1444 3983.7 1157 4102.5 1219.1 4128.3 1157 4102.5 870 3983.7 751.102 3696.7 725.398 3758.7 751.102 3696.7 870 3409.7 1157 3290.8 1094.9 3265.1 1157 3290.8 1444 3409.7" fill="#c28c24"/>
<path transform="matrix(.1,0,0,-.1,0,792)" stroke-width="9.5" stroke-linecap="butt" stroke-miterlimit="10" stroke-linejoin="miter" fill="none" stroke="#000000" d="M1562.9 3696.7 1588.6 3634.6 1562.9 3696.7 1444 3983.7 1157 4102.5 1219.1 4128.3 1157 4102.5 870 3983.7 751.102 3696.7 725.398 3758.7 751.102 3696.7 870 3409.7 1157 3290.8 1094.9 3265.1 1157 3290.8 1444 3409.7Z"/>
<path transform="matrix(.1,0,0,-.1,0,792)" d="M1614.3 2202.6 1588.6 2264.6 1614.3 2202.6 1516.7 1967 1281.1 1869.4 1219.1 1843.7 1281.1 1869.4 1842 1637.1 1904.1 1611.4 1842 1637.1 2170.3 1773 2073 2007.9 2054.8 2051.8 2073 2007.9 1750.3 1874.3" fill="#9bc9b0"/>
<path transform="matrix(.1,0,0,-.1,0,792)" stroke-width="9.5" stroke-linecap="butt" stroke-miterlimit="10" stroke-linejoin="miter" fill="none" stroke="#000000" d="M1614.3 2202.6 1588.6 2264.6 1614.3 2202.6 1516.7 1967 1281.1 1869.4 1219.1 1843.7 1281.1 1869.4 1842 1637.1 1904.1 1611.4 1842 1637.1 2170.3 1773 2073 2007.9 2054.8 2051.8 2073 2007.9 1750.3 1874.3Z"/>
<path transform="matrix(.1,0,0,-.1,0,792)" d="M1562.9 2326.7 1588.6 2264.6 1562.9 2326.7 1444 2613.7 1157 2732.6 1219.1 2758.3 1157 2732.6 870 2613.7 751.102 2326.7 725.398 2388.7 751.102 2326.7 870 2039.7 1157 1920.8 1094.9 1895.1 1157 1920.8 1444 2039.7" fill="#c28c24"/>
<path transform="matrix(.1,0,0,-.1,0,792)" stroke-width="9.5" stroke-linecap="butt" stroke-miterlimit="10" stroke-linejoin="miter" fill="none" stroke="#000000" d="M1562.9 2326.7 1588.6 2264.6 1562.9 2326.7 1444 2613.7 1157 2732.6 1219.1 2758.3 1157 2732.6 870 2613.7 751.102 2326.7 725.398 2388.7 751.102 2326.7 870 2039.7 1157 1920.8 1094.9 1895.1 1157 1920.8 1444 2039.7Z"/>
<path transform="matrix(.1,0,0,-.1,0,792)" d="M1562.9 6093.3 1588.6 6031.3 1562.9 6093.3 1444 6380.3 1157 6499.2 1219.1 6524.9 1157 6499.2 870 6380.3 751.102 6093.3 725.398 6155.4 751.102 6093.3 870 5806.3 1157 5687.4 1094.9 5661.7 1157 5687.4 1444 5806.3" fill="#c28c24"/>
<path transform="matrix(.1,0,0,-.1,0,792)" stroke-width="9.5" stroke-linecap="butt" stroke-miterlimit="10" stroke-linejoin="miter" fill="none" stroke="#000000" d="M1562.9 6093.3 1588.6 6031.3 1562.9 6093.3 1444 6380.3 1157 6499.2 1219.1 6524.9 1157 6499.2 870 6380.3 751.102 6093.3 725.398 6155.4 751.102 6093.3 870 5806.3 1157 5687.4 1094.9 5661.7 1157 5687.4 1444 5806.3Z"/>
<path transform="matrix(.1,0,0,-.1,0,792)" d="M1614.3 6217.4 1640 6155.4 1614.3 6217.4 1846.6 6778.3 1872.3 6840.4 1846.6 6778.3 1614.3 7339.2 1588.6 7401.2 1614.3 7339.2 1516.7 7103.6 1281.1 7006 1219.1 6980.3 1281.1 7006 1830.8 6778.3 1281.1 6550.6 1219.1 6524.9 1281.1 6550.6 1516.7 6453" fill="#f8c499"/>
<path transform="matrix(.1,0,0,-.1,0,792)" stroke-width="9.5" stroke-linecap="butt" stroke-miterlimit="10" stroke-linejoin="miter" fill="none" stroke="#000000" d="M1614.3 6217.4 1640 6155.4 1614.3 6217.4 1846.6 6778.3 1872.3 6840.4 1846.6 6778.3 1614.3 7339.2 1588.6 7401.2 1614.3 7339.2 1516.7 7103.6 1281.1 7006 1219.1 6980.3 1281.1 7006 1830.8 6778.3 1281.1 6550.6 1219.1 6524.9 1281.1 6550.6 1516.7 6453Z"/>
<path transform="matrix(.1,0,0,-.1,0,792)" d="M4498.1 3011.7 4923.6 2835.4 4861.6 2809.7 4923.6 2835.4 5349.2 3011.7 4923.6 3188 4985.7 3213.7 4923.6 3188" fill="#c28c24"/>
<path transform="matrix(.1,0,0,-.1,0,792)" stroke-width="9.5" stroke-linecap="butt" stroke-miterlimit="10" stroke-linejoin="miter" fill="none" stroke="#000000" d="M4498.1 3011.7 4923.6 2835.4 4861.6 2809.7 4923.6 2835.4 5349.2 3011.7 4923.6 3188 4985.7 3213.7 4923.6 3188Z"/>
<path transform="matrix(.1,0,0,-.1,0,792)" d="M3040.3 2219.2 3102.4 2244.9 3040.3 2219.2 2753.3 2100.3 2634.4 1813.3 2608.7 1875.4 2634.4 1813.3 2753.3 1526.3 3040.3 1407.5 2978.3 1381.8 3040.3 1407.5 3327.3 1526.3 3446.2 1813.3 3471.9 1751.3 3446.2 1813.3 3327.3 2100.3" fill="#c28c24"/>
<path transform="matrix(.1,0,0,-.1,0,792)" stroke-width="9.5" stroke-linecap="butt" stroke-miterlimit="10" stroke-linejoin="miter" fill="none" stroke="#000000" d="M3040.3 2219.2 3102.4 2244.9 3040.3 2219.2 2753.3 2100.3 2634.4 1813.3 2608.7 1875.4 2634.4 1813.3 2753.3 1526.3 3040.3 1407.5 2978.3 1381.8 3040.3 1407.5 3327.3 1526.3 3446.2 1813.3 3471.9 1751.3 3446.2 1813.3 3327.3 2100.3Z"/>
<path transform="matrix(.1,0,0,-.1,0,792)" d="M2395.6 2141.6 2160.7 2044.3 2142.6 2088.2 2160.7 2044.3 2294.4 1721.6 1966.1 1585.6 1904.1 1611.4 1966.1 1585.6 2201.7 1488.1 2299.3 1252.5 2273.6 1190.4 2299.3 1252.5 2531.6 1813.3 2557.3 1751.3 2531.6 1813.3" fill="#9bc9b0"/>
<path transform="matrix(.1,0,0,-.1,0,792)" stroke-width="9.5" stroke-linecap="butt" stroke-miterlimit="10" stroke-linejoin="miter" fill="none" stroke="#000000" d="M2395.6 2141.6 2160.7 2044.3 2142.6 2088.2 2160.7 2044.3 2294.4 1721.6 1966.1 1585.6 1904.1 1611.4 1966.1 1585.6 2201.7 1488.1 2299.3 1252.5 2273.6 1190.4 2299.3 1252.5 2531.6 1813.3 2557.3 1751.3 2531.6 1813.3Z"/>
<path transform="matrix(.1,0,0,-.1,0,792)" d="M3685 2141.6 3549 1813.3 3523.3 1875.4 3549 1813.3 3781.4 1252.5 3755.7 1190.4 3781.4 1252.5 3878.9 1488.1 4114.5 1585.6 4176.6 1559.9 4114.5 1585.6 3786.3 1721.6 3919.9 2044.3 3963.8 2026.1 3919.9 2044.3" fill="#b0c4d9"/>
<path transform="matrix(.1,0,0,-.1,0,792)" stroke-width="9.5" stroke-linecap="butt" stroke-miterlimit="10" stroke-linejoin="miter" fill="none" stroke="#000000" d="M3685 2141.6 3549 1813.3 3523.3 1875.4 3549 1813.3 3781.4 1252.5 3755.7 1190.4 3781.4 1252.5 3878.9 1488.1 4114.5 1585.6 4176.6 1559.9 4114.5 1585.6 3786.3 1721.6 3919.9 2044.3 3963.8 2026.1 3919.9 2044.3Z"/>
<path transform="matrix(.1,0,0,-.1,0,792)" d="M3040.3 6352.7 3216.6 6778.3 3242.3 6840.4 3216.6 6778.3 3040.3 7203.9 2864 6778.3 2838.3 6716.3 2864 6778.3" fill="#c28c24"/>
<path transform="matrix(.1,0,0,-.1,0,792)" stroke-width="9.5" stroke-linecap="butt" stroke-miterlimit="10" stroke-linejoin="miter" fill="none" stroke="#000000" d="M3040.3 6352.7 3216.6 6778.3 3242.3 6840.4 3216.6 6778.3 3040.3 7203.9 2864 6778.3 2838.3 6716.3 2864 6778.3Z"/>
<path transform="matrix(.1,0,0,-.1,0,792)" d="M4517.8 2326.7 4492.1 2388.7 4517.8 2326.7 4636.6 2039.7 4923.6 1920.8 4861.6 1895.1 4923.6 1920.8 5210.7 2039.7 5329.5 2326.7 5355.2 2264.6 5329.5 2326.7 5210.7 2613.7 4923.6 2732.6 4985.7 2758.3 4923.6 2732.6 4636.6 2613.7" fill="#c28c24"/>
<path transform="matrix(.1,0,0,-.1,0,792)" stroke-width="9.5" stroke-linecap="butt" stroke-miterlimit="10" stroke-linejoin="miter" fill="none" stroke="#000000" d="M4517.8 2326.7 4492.1 2388.7 4517.8 2326.7 4636.6 2039.7 4923.6 1920.8 4861.6 1895.1 4923.6 1920.8 5210.7 2039.7 5329.5 2326.7 5355.2 2264.6 5329.5 2326.7 5210.7 2613.7 4923.6 2732.6 4985.7 2758.3 4923.6 2732.6 4636.6 2613.7Z"/>
<path transform="matrix(.1,0,0,-.1,0,792)" d="M4466.4 2202.6 4440.6 2264.6 4466.4 2202.6 4330.4 1874.3 4007.7 2007.9 3963.8 2026.1 4007.7 2007.9 3910.4 1773 4238.7 1637.1 4300.7 1611.4 4238.7 1637.1 4799.5 1869.4 4861.6 1895.1 4799.5 1869.4 4563.9 1967" fill="#b0c4d9"/>
<path transform="matrix(.1,0,0,-.1,0,792)" stroke-width="9.5" stroke-linecap="butt" stroke-miterlimit="10" stroke-linejoin="miter" fill="none" stroke="#000000" d="M4466.4 2202.6 4440.6 2264.6 4466.4 2202.6 4330.4 1874.3 4007.7 2007.9 3963.8 2026.1 4007.7 2007.9 3910.4 1773 4238.7 1637.1 4300.7 1611.4 4238.7 1637.1 4799.5 1869.4 4861.6 1895.1 4799.5 1869.4 4563.9 1967Z"/>
<path transform="matrix(.1,0,0,-.1,0,792)" d="M4517.8 3696.7 4492.1 3758.7 4517.8 3696.7 4636.6 3409.7 4923.6 3290.8 4861.6 3265.1 4923.6 3290.8 5210.7 3409.7 5329.5 3696.7 5355.2 3634.6 5329.5 3696.7 5210.7 3983.7 4923.6 4102.5 4985.7 4128.3 4923.6 4102.5 4636.6 3983.7" fill="#c28c24"/>
<path transform="matrix(.1,0,0,-.1,0,792)" stroke-width="9.5" stroke-linecap="butt" stroke-miterlimit="10" stroke-linejoin="miter" fill="none" stroke="#000000" d="M4517.8 3696.7 4492.1 3758.7 4517.8 3696.7 4636.6 3409.7 4923.6 3290.8 4861.6 3265.1 4923.6 3290.8 5210.7 3409.7 5329.5 3696.7 5355.2 3634.6 5329.5 3696.7 5210.7 3983.7 4923.6 4102.5 4985.7 4128.3 4923.6 4102.5 4636.6 3983.7Z"/>
<path transform="matrix(.1,0,0,-.1,0,792)" d="M4466.4 6217.4 4492.1 6155.4 4466.4 6217.4 4563.9 6453 4799.5 6550.6 4861.6 6576.3 4799.5 6550.6 4249.8 6778.3 4799.5 7006 4861.6 7031.7 4799.5 7006 4563.9 7103.6 4466.4 7339.2 4440.6 7401.2 4466.4 7339.2 4234 6778.3 4208.3 6716.3 4234 6778.3" fill="#f8c499"/>
<path transform="matrix(.1,0,0,-.1,0,792)" stroke-width="9.5" stroke-linecap="butt" stroke-miterlimit="10" stroke-linejoin="miter" fill="none" stroke="#000000" d="M4466.4 6217.4 4492.1 6155.4 4466.4 6217.4 4563.9 6453 4799.5 6550.6 4861.6 6576.3 4799.5 6550.6 4249.8 6778.3 4799.5 7006 4861.6 7031.7 4799.5 7006 4563.9 7103.6 4466.4 7339.2 4440.6 7401.2 4466.4 7339.2 4234 6778.3 4208.3 6716.3 4234 6778.3Z"/>
<path transform="matrix(.1,0,0,-.1,0,792)" d="M4517.8 6093.3 4492.1 6155.4 4517.8 6093.3 4636.6 5806.3 4923.6 5687.4 4861.6 5661.7 4923.6 5687.4 5210.7 5806.3 5329.5 6093.3 5355.2 6031.3 5329.5 6093.3 5210.7 6380.3 4923.6 6499.2 4985.7 6524.9 4923.6 6499.2 4636.6 6380.3" fill="#c28c24"/>
<path transform="matrix(.1,0,0,-.1,0,792)" stroke-width="9.5" stroke-linecap="butt" stroke-miterlimit="10" stroke-linejoin="miter" fill="none" stroke="#000000" d="M4517.8 6093.3 4492.1 6155.4 4517.8 6093.3 4636.6 5806.3 4923.6 5687.4 4861.6 5661.7 4923.6 5687.4 5210.7 5806.3 5329.5 6093.3 5355.2 6031.3 5329.5 6093.3 5210.7 6380.3 4923.6 6499.2 4985.7 6524.9 4923.6 6499.2 4636.6 6380.3Z"/>
<path transform="matrix(.1,0,0,-.1,0,792)" d="M3725.3 6372.4 3787.4 6346.7 3725.3 6372.4 4012.3 6491.3 4131.2 6778.3 4156.9 6840.4 4131.2 6778.3 4012.3 7065.3 3725.3 7184.2 3663.3 7209.9 3725.3 7184.2 3438.3 7065.3 3319.4 6778.3 3293.7 6716.3 3319.4 6778.3 3438.3 6491.3" fill="#c28c24"/>
<path transform="matrix(.1,0,0,-.1,0,792)" stroke-width="9.5" stroke-linecap="butt" stroke-miterlimit="10" stroke-linejoin="miter" fill="none" stroke="#000000" d="M3725.3 6372.4 3787.4 6346.7 3725.3 6372.4 4012.3 6491.3 4131.2 6778.3 4156.9 6840.4 4131.2 6778.3 4012.3 7065.3 3725.3 7184.2 3663.3 7209.9 3725.3 7184.2 3438.3 7065.3 3319.4 6778.3 3293.7 6716.3 3319.4 6778.3 3438.3 6491.3Z"/>
<path transform="matrix(.1,0,0,-.1,0,792)" d="M2355.3 6372.4 2417.4 6346.7 2355.3 6372.4 2642.3 6491.3 2761.2 6778.3 2786.9 6840.4 2761.2 6778.3 2642.3 7065.3 2355.3 7184.2 2293.3 7209.9 2355.3 7184.2 2068.3 7065.3 1949.5 6778.3 1923.7 6716.3 1949.5 6778.3 2068.3 6491.3" fill="#c28c24"/>
<path transform="matrix(.1,0,0,-.1,0,792)" stroke-width="9.5" stroke-linecap="butt" stroke-miterlimit="10" stroke-linejoin="miter" fill="none" stroke="#000000" d="M2355.3 6372.4 2417.4 6346.7 2355.3 6372.4 2642.3 6491.3 2761.2 6778.3 2786.9 6840.4 2761.2 6778.3 2642.3 7065.3 2355.3 7184.2 2293.3 7209.9 2355.3 7184.2 2068.3 7065.3 1949.5 6778.3 1923.7 6716.3 1949.5 6778.3 2068.3 6491.3Z"/>
<path transform="matrix(.1,0,0,-.1,0,792)" d="M1333.3 4895 1359 4957.1 1333.3 4895 1157 5320.6 980.699 4895 955 4832.9 980.699 4895 1157 4469.4" fill="#c28c24"/>
<path transform="matrix(.1,0,0,-.1,0,792)" stroke-width="9.5" stroke-linecap="butt" stroke-miterlimit="10" stroke-linejoin="miter" fill="none" stroke="#000000" d="M1333.3 4895 1359 4957.1 1333.3 4895 1157 5320.6 980.699 4895 955 4832.9 980.699 4895 1157 4469.4Z"/>
<path transform="matrix(.1,0,0,-.1,0,792)" d="M4747.4 4895 4721.7 4832.9 4747.4 4895 4923.6 4469.4 5099.9 4895 5125.6 4957.1 5099.9 4895 4923.6 5320.6" fill="#c28c24"/>
<path transform="matrix(.1,0,0,-.1,0,792)" stroke-width="9.5" stroke-linecap="butt" stroke-miterlimit="10" stroke-linejoin="miter" fill="none" stroke="#000000" d="M4747.4 4895 4721.7 4832.9 4747.4 4895 4923.6 4469.4 5099.9 4895 5125.6 4957.1 5099.9 4895 4923.6 5320.6Z"/>
<path transform="matrix(.1,0,0,-.1,0,792)" d="M2583 1689.2 2557.3 1751.3 2583 1689.2 2350.7 1128.4 2325 1066.3 2350.7 1128.4 2583 567.5 2608.7 505.398 2583 567.5 2680.6 803.102 2916.2 900.699 2978.3 926.398 2916.2 900.699 2366.5 1128.4 2916.2 1356 2978.3 1381.8 2916.2 1356 2680.6 1453.6" fill="#f8c499"/>
<path transform="matrix(.1,0,0,-.1,0,792)" stroke-width="9.5" stroke-linecap="butt" stroke-miterlimit="10" stroke-linejoin="miter" fill="none" stroke="#000000" d="M2583 1689.2 2557.3 1751.3 2583 1689.2 2350.7 1128.4 2325 1066.3 2350.7 1128.4 2583 567.5 2608.7 505.398 2583 567.5 2680.6 803.102 2916.2 900.699 2978.3 926.398 2916.2 900.699 2366.5 1128.4 2916.2 1356 2978.3 1381.8 2916.2 1356 2680.6 1453.6Z"/>
<path transform="matrix(.1,0,0,-.1,0,792)" d="M3497.6 1689.2 3471.9 1751.3 3497.6 1689.2 3400 1453.6 3164.5 1356 3102.4 1330.3 3164.5 1356 3714.2 1128.4 3164.5 900.699 3102.4 874.898 3164.5 900.699 3400 803.102 3497.6 567.5 3523.3 505.398 3497.6 567.5 3729.9 1128.4 3755.7 1190.4 3729.9 1128.4" fill="#f8c499"/>
<path transform="matrix(.1,0,0,-.1,0,792)" stroke-width="9.5" stroke-linecap="butt" stroke-miterlimit="10" stroke-linejoin="miter" fill="none" stroke="#000000" d="M3497.6 1689.2 3471.9 1751.3 3497.6 1689.2 3400 1453.6 3164.5 1356 3102.4 1330.3 3164.5 1356 3714.2 1128.4 3164.5 900.699 3102.4 874.898 3164.5 900.699 3400 803.102 3497.6 567.5 3523.3 505.398 3497.6 567.5 3729.9 1128.4 3755.7 1190.4 3729.9 1128.4Z"/>
<path transform="matrix(.1,0,0,-.1,0,792)" d="M1032.9 6550.6 1094.9 6576.3 1032.9 6550.6 483.199 6778.3 1032.9 7006 1094.9 7031.7 1032.9 7006 797.301 7103.6 699.699 7339.2 674 7401.2 699.699 7339.2 467.398 6778.3 441.699 6716.3 467.398 6778.3 699.699 6217.4 725.398 6155.4 699.699 6217.4 797.301 6453" fill="#f8c499"/>
<path transform="matrix(.1,0,0,-.1,0,792)" stroke-width="9.5" stroke-linecap="butt" stroke-miterlimit="10" stroke-linejoin="miter" fill="none" stroke="#000000" d="M1032.9 6550.6 1094.9 6576.3 1032.9 6550.6 483.199 6778.3 1032.9 7006 1094.9 7031.7 1032.9 7006 797.301 7103.6 699.699 7339.2 674 7401.2 699.699 7339.2 467.398 6778.3 441.699 6716.3 467.398 6778.3 699.699 6217.4 725.398 6155.4 699.699 6217.4 797.301 6453Z"/>
<path transform="matrix(.1,0,0,-.1,0,792)" d="M1157 6602 1094.9 6576.3 1157 6602 1582.6 6778.3 1157 6954.6 1219.1 6980.3 1157 6954.6 731.398 6778.3" fill="#c28c24"/>
<path transform="matrix(.1,0,0,-.1,0,792)" stroke-width="9.5" stroke-linecap="butt" stroke-miterlimit="10" stroke-linejoin="miter" fill="none" stroke="#000000" d="M1157 6602 1094.9 6576.3 1157 6602 1582.6 6778.3 1157 6954.6 1219.1 6980.3 1157 6954.6 731.398 6778.3Z"/>
<path transform="matrix(.1,0,0,-.1,0,792)" d="M1032.9 5636 1094.9 5661.7 1032.9 5636 797.301 5733.6 699.699 5969.2 674 6031.3 699.699 5969.2 563.699 5640.9 241.102 5774.6 197.199 5792.8 241.102 5774.6 143.699 5539.7 472 5403.7 534.102 5378 472 5403.7" fill="#b0c4d9"/>
<path transform="matrix(.1,0,0,-.1,0,792)" stroke-width="9.5" stroke-linecap="butt" stroke-miterlimit="10" stroke-linejoin="miter" fill="none" stroke="#000000" d="M1032.9 5636 1094.9 5661.7 1032.9 5636 797.301 5733.6 699.699 5969.2 674 6031.3 699.699 5969.2 563.699 5640.9 241.102 5774.6 197.199 5792.8 241.102 5774.6 143.699 5539.7 472 5403.7 534.102 5378 472 5403.7Z"/>
<path transform="matrix(.1,0,0,-.1,0,792)" d="M1032.9 4154 1094.9 4179.7 1032.9 4154 472 4386.3 410 4412 472 4386.3 143.699 4250.3 241.102 4015.4 259.199 3971.5 241.102 4015.4 563.699 4149.1 699.699 3820.8 725.398 3758.7 699.699 3820.8 797.301 4056.4" fill="#9bc9b0"/>
<path transform="matrix(.1,0,0,-.1,0,792)" stroke-width="9.5" stroke-linecap="butt" stroke-miterlimit="10" stroke-linejoin="miter" fill="none" stroke="#000000" d="M1032.9 4154 1094.9 4179.7 1032.9 4154 472 4386.3 410 4412 472 4386.3 143.699 4250.3 241.102 4015.4 259.199 3971.5 241.102 4015.4 563.699 4149.1 699.699 3820.8 725.398 3758.7 699.699 3820.8 797.301 4056.4Z"/>
<path transform="matrix(.1,0,0,-.1,0,792)" d="M1032.9 3239.4 1094.9 3265.1 1032.9 3239.4 797.301 3337 699.699 3572.5 674 3634.6 699.699 3572.5 467.398 3011.7 441.699 2949.6 467.398 3011.7 699.699 2450.8 725.398 2388.7 699.699 2450.8 797.301 2686.4 1032.9 2784 1094.9 2809.7 1032.9 2784 483.199 3011.7" fill="#f8c499"/>
<path transform="matrix(.1,0,0,-.1,0,792)" stroke-width="9.5" stroke-linecap="butt" stroke-miterlimit="10" stroke-linejoin="miter" fill="none" stroke="#000000" d="M1032.9 3239.4 1094.9 3265.1 1032.9 3239.4 797.301 3337 699.699 3572.5 674 3634.6 699.699 3572.5 467.398 3011.7 441.699 2949.6 467.398 3011.7 699.699 2450.8 725.398 2388.7 699.699 2450.8 797.301 2686.4 1032.9 2784 1094.9 2809.7 1032.9 2784 483.199 3011.7Z"/>
<path transform="matrix(.1,0,0,-.1,0,792)" d="M1157 1818 1219.1 1843.7 1157 1818 596.102 1585.6 534.102 1611.4 596.102 1585.6 831.699 1488.1 929.301 1252.5 903.602 1190.4 929.301 1252.5 1157 1802.2 1384.7 1252.5 1359 1190.4 1384.7 1252.5 1482.3 1488.1 1717.9 1585.6 1779.9 1559.9 1717.9 1585.6" fill="#f8c499"/>
<path transform="matrix(.1,0,0,-.1,0,792)" stroke-width="9.5" stroke-linecap="butt" stroke-miterlimit="10" stroke-linejoin="miter" fill="none" stroke="#000000" d="M1157 1818 1219.1 1843.7 1157 1818 596.102 1585.6 534.102 1611.4 596.102 1585.6 831.699 1488.1 929.301 1252.5 903.602 1190.4 929.301 1252.5 1157 1802.2 1384.7 1252.5 1359 1190.4 1384.7 1252.5 1482.3 1488.1 1717.9 1585.6 1779.9 1559.9 1717.9 1585.6Z"/>
<path transform="matrix(.1,0,0,-.1,0,792)" d="M1032.9 1869.4 1094.9 1895.1 1032.9 1869.4 797.301 1967 699.699 2202.6 674 2264.6 699.699 2202.6 563.699 1874.3 241.102 2007.9 197.199 2026.1 241.102 2007.9 143.699 1773 472 1637.1 534.102 1611.4 472 1637.1" fill="#b0c4d9"/>
<path transform="matrix(.1,0,0,-.1,0,792)" stroke-width="9.5" stroke-linecap="butt" stroke-miterlimit="10" stroke-linejoin="miter" fill="none" stroke="#000000" d="M1032.9 1869.4 1094.9 1895.1 1032.9 1869.4 797.301 1967 699.699 2202.6 674 2264.6 699.699 2202.6 563.699 1874.3 241.102 2007.9 197.199 2026.1 241.102 2007.9 143.699 1773 472 1637.1 534.102 1611.4 472 1637.1Z"/>
<path transform="matrix(.1,0,0,-.1,0,792)" d="M1157 1553.9 980.699 1128.4 955 1066.3 980.699 1128.4 1157 702.801 1333.3 1128.4 1359 1190.4 1333.3 1128.4" fill="#c28c24"/>
<path transform="matrix(.1,0,0,-.1,0,792)" stroke-width="9.5" stroke-linecap="butt" stroke-miterlimit="10" stroke-linejoin="miter" fill="none" stroke="#000000" d="M1157 1553.9 980.699 1128.4 955 1066.3 980.699 1128.4 1157 702.801 1333.3 1128.4 1359 1190.4 1333.3 1128.4Z"/>
<path transform="matrix(.1,0,0,-.1,0,792)" d="M4498.1 6778.3 4923.6 6602 4861.6 6576.3 4923.6 6602 5349.2 6778.3 4923.6 6954.6 4985.7 6980.3 4923.6 6954.6" fill="#c28c24"/>
<path transform="matrix(.1,0,0,-.1,0,792)" stroke-width="9.5" stroke-linecap="butt" stroke-miterlimit="10" stroke-linejoin="miter" fill="none" stroke="#000000" d="M4498.1 6778.3 4923.6 6602 4861.6 6576.3 4923.6 6602 5349.2 6778.3 4923.6 6954.6 4985.7 6980.3 4923.6 6954.6Z"/>
<path transform="matrix(.1,0,0,-.1,0,792)" d="M4182.6 6902.4 4156.9 6840.4 4182.6 6902.4 4414.9 7463.3 4440.6 7401.2 4414.9 7463.3 4279 7791.6 4044.1 7694.3 4025.9 7738.2 4044.1 7694.3 4177.7 7371.6 3849.4 7235.6 3787.4 7261.3 3849.4 7235.6 4085 7138" fill="#9bc9b0"/>
<path transform="matrix(.1,0,0,-.1,0,792)" stroke-width="9.5" stroke-linecap="butt" stroke-miterlimit="10" stroke-linejoin="miter" fill="none" stroke="#000000" d="M4182.6 6902.4 4156.9 6840.4 4182.6 6902.4 4414.9 7463.3 4440.6 7401.2 4414.9 7463.3 4279 7791.6 4044.1 7694.3 4025.9 7738.2 4044.1 7694.3 4177.7 7371.6 3849.4 7235.6 3787.4 7261.3 3849.4 7235.6 4085 7138Z"/>
<path transform="matrix(.1,0,0,-.1,0,792)" d="M3268 6902.4 3242.3 6840.4 3268 6902.4 3365.6 7138 3601.2 7235.6 3663.3 7209.9 3601.2 7235.6 3040.3 7467.9 3102.4 7493.6 3040.3 7467.9 2479.5 7235.6 2417.4 7261.3 2479.5 7235.6 2715 7138 2812.6 6902.4 2786.9 6840.4 2812.6 6902.4 3040.3 7452.1" fill="#f8c499"/>
<path transform="matrix(.1,0,0,-.1,0,792)" stroke-width="9.5" stroke-linecap="butt" stroke-miterlimit="10" stroke-linejoin="miter" fill="none" stroke="#000000" d="M3268 6902.4 3242.3 6840.4 3268 6902.4 3365.6 7138 3601.2 7235.6 3663.3 7209.9 3601.2 7235.6 3040.3 7467.9 3102.4 7493.6 3040.3 7467.9 2479.5 7235.6 2417.4 7261.3 2479.5 7235.6 2715 7138 2812.6 6902.4 2786.9 6840.4 2812.6 6902.4 3040.3 7452.1Z"/>
<path transform="matrix(.1,0,0,-.1,0,792)" d="M1898 6902.4 1872.3 6840.4 1898 6902.4 1995.6 7138 2231.2 7235.6 2293.3 7209.9 2231.2 7235.6 1902.9 7371.6 2036.6 7694.3 2080.5 7676.1 2036.6 7694.3 1801.7 7791.6 1665.7 7463.3 1640 7525.4 1665.7 7463.3" fill="#b0c4d9"/>
<path transform="matrix(.1,0,0,-.1,0,792)" stroke-width="9.5" stroke-linecap="butt" stroke-miterlimit="10" stroke-linejoin="miter" fill="none" stroke="#000000" d="M1898 6902.4 1872.3 6840.4 1898 6902.4 1995.6 7138 2231.2 7235.6 2293.3 7209.9 2231.2 7235.6 1902.9 7371.6 2036.6 7694.3 2080.5 7676.1 2036.6 7694.3 1801.7 7791.6 1665.7 7463.3 1640 7525.4 1665.7 7463.3Z"/>
<path transform="matrix(.1,0,0,-.1,0,792)" d="M1842 1534.2 1779.9 1559.9 1842 1534.2 1555 1415.4 1436.1 1128.4 1410.4 1066.3 1436.1 1128.4 1555 841.301 1842 722.5 1904.1 696.801 1842 722.5 2129 841.301 2247.9 1128.4 2273.6 1190.4 2247.9 1128.4 2129 1415.4" fill="#c28c24"/>
<path transform="matrix(.1,0,0,-.1,0,792)" stroke-width="9.5" stroke-linecap="butt" stroke-miterlimit="10" stroke-linejoin="miter" fill="none" stroke="#000000" d="M1842 1534.2 1779.9 1559.9 1842 1534.2 1555 1415.4 1436.1 1128.4 1410.4 1066.3 1436.1 1128.4 1555 841.301 1842 722.5 1904.1 696.801 1842 722.5 2129 841.301 2247.9 1128.4 2273.6 1190.4 2247.9 1128.4 2129 1415.4Z"/>
<path transform="matrix(.1,0,0,-.1,0,792)" d="M4362.8 1585.6 4300.7 1611.4 4362.8 1585.6 4598.4 1488.1 4696 1252.5 4670.2 1190.4 4696 1252.5 4923.6 1802.2 5151.3 1252.5 5125.6 1190.4 5151.3 1252.5 5248.9 1488.1 5484.5 1585.6 5546.6 1559.9 5484.5 1585.6 4923.6 1818 4985.7 1843.7 4923.6 1818" fill="#f8c499"/>
<path transform="matrix(.1,0,0,-.1,0,792)" stroke-width="9.5" stroke-linecap="butt" stroke-miterlimit="10" stroke-linejoin="miter" fill="none" stroke="#000000" d="M4362.8 1585.6 4300.7 1611.4 4362.8 1585.6 4598.4 1488.1 4696 1252.5 4670.2 1190.4 4696 1252.5 4923.6 1802.2 5151.3 1252.5 5125.6 1190.4 5151.3 1252.5 5248.9 1488.1 5484.5 1585.6 5546.6 1559.9 5484.5 1585.6 4923.6 1818 4985.7 1843.7 4923.6 1818Z"/>
<path transform="matrix(.1,0,0,-.1,0,792)" d="M4238.7 1534.2 4176.6 1559.9 4238.7 1534.2 3951.7 1415.4 3832.8 1128.4 3807.1 1066.3 3832.8 1128.4 3951.7 841.301 4238.7 722.5 4300.7 696.801 4238.7 722.5 4525.7 841.301 4644.5 1128.4 4670.2 1190.4 4644.5 1128.4 4525.7 1415.4" fill="#c28c24"/>
<path transform="matrix(.1,0,0,-.1,0,792)" stroke-width="9.5" stroke-linecap="butt" stroke-miterlimit="10" stroke-linejoin="miter" fill="none" stroke="#000000" d="M4238.7 1534.2 4176.6 1559.9 4238.7 1534.2 3951.7 1415.4 3832.8 1128.4 3807.1 1066.3 3832.8 1128.4 3951.7 841.301 4238.7 722.5 4300.7 696.801 4238.7 722.5 4525.7 841.301 4644.5 1128.4 4670.2 1190.4 4644.5 1128.4 4525.7 1415.4Z"/>
<path transform="matrix(.1,0,0,-.1,0,792)" d="M4923.6 1553.9 4747.4 1128.4 4721.7 1066.3 4747.4 1128.4 4923.6 702.801 5099.9 1128.4 5125.6 1190.4 5099.9 1128.4" fill="#c28c24"/>
<path transform="matrix(.1,0,0,-.1,0,792)" stroke-width="9.5" stroke-linecap="butt" stroke-miterlimit="10" stroke-linejoin="miter" fill="none" stroke="#000000" d="M4923.6 1553.9 4747.4 1128.4 4721.7 1066.3 4747.4 1128.4 4923.6 702.801 5099.9 1128.4 5125.6 1190.4 5099.9 1128.4Z"/>
<path transform="matrix(.1,0,0,-.1,0,792)" d="M5047.8 1869.4 4985.7 1843.7 5047.8 1869.4 5608.6 1637.1 5670.7 1611.4 5608.6 1637.1 5936.9 1773 5839.6 2007.9 5821.4 2051.8 5839.6 2007.9 5516.9 1874.3 5380.9 2202.6 5355.2 2264.6 5380.9 2202.6 5283.4 1967" fill="#9bc9b0"/>
<path transform="matrix(.1,0,0,-.1,0,792)" stroke-width="9.5" stroke-linecap="butt" stroke-miterlimit="10" stroke-linejoin="miter" fill="none" stroke="#000000" d="M5047.8 1869.4 4985.7 1843.7 5047.8 1869.4 5608.6 1637.1 5670.7 1611.4 5608.6 1637.1 5936.9 1773 5839.6 2007.9 5821.4 2051.8 5839.6 2007.9 5516.9 1874.3 5380.9 2202.6 5355.2 2264.6 5380.9 2202.6 5283.4 1967Z"/>
<path transform="matrix(.1,0,0,-.1,0,792)" d="M5047.8 2784 4985.7 2758.3 5047.8 2784 5283.4 2686.4 5380.9 2450.8 5406.7 2388.7 5380.9 2450.8 5613.3 3011.7 5639 3073.7 5613.3 3011.7 5380.9 3572.5 5355.2 3634.6 5380.9 3572.5 5283.4 3337 5047.8 3239.4 4985.7 3213.7 5047.8 3239.4 5597.5 3011.7" fill="#f8c499"/>
<path transform="matrix(.1,0,0,-.1,0,792)" stroke-width="9.5" stroke-linecap="butt" stroke-miterlimit="10" stroke-linejoin="miter" fill="none" stroke="#000000" d="M5047.8 2784 4985.7 2758.3 5047.8 2784 5283.4 2686.4 5380.9 2450.8 5406.7 2388.7 5380.9 2450.8 5613.3 3011.7 5639 3073.7 5613.3 3011.7 5380.9 3572.5 5355.2 3634.6 5380.9 3572.5 5283.4 3337 5047.8 3239.4 4985.7 3213.7 5047.8 3239.4 5597.5 3011.7Z"/>
<path transform="matrix(.1,0,0,-.1,0,792)" d="M5047.8 4154 4985.7 4128.3 5047.8 4154 5283.4 4056.4 5380.9 3820.8 5406.7 3758.7 5380.9 3820.8 5516.9 4149.1 5839.6 4015.4 5883.5 3997.2 5839.6 4015.4 5936.9 4250.3 5608.6 4386.3 5546.6 4412 5608.6 4386.3" fill="#b0c4d9"/>
<path transform="matrix(.1,0,0,-.1,0,792)" stroke-width="9.5" stroke-linecap="butt" stroke-miterlimit="10" stroke-linejoin="miter" fill="none" stroke="#000000" d="M5047.8 4154 4985.7 4128.3 5047.8 4154 5283.4 4056.4 5380.9 3820.8 5406.7 3758.7 5380.9 3820.8 5516.9 4149.1 5839.6 4015.4 5883.5 3997.2 5839.6 4015.4 5936.9 4250.3 5608.6 4386.3 5546.6 4412 5608.6 4386.3Z"/>
<path transform="matrix(.1,0,0,-.1,0,792)" d="M5047.8 5636 4985.7 5610.3 5047.8 5636 5608.6 5403.7 5670.7 5378 5608.6 5403.7 5936.9 5539.7 5839.6 5774.6 5821.4 5818.5 5839.6 5774.6 5516.9 5640.9 5380.9 5969.2 5355.2 6031.3 5380.9 5969.2 5283.4 5733.6" fill="#9bc9b0"/>
<path transform="matrix(.1,0,0,-.1,0,792)" stroke-width="9.5" stroke-linecap="butt" stroke-miterlimit="10" stroke-linejoin="miter" fill="none" stroke="#000000" d="M5047.8 5636 4985.7 5610.3 5047.8 5636 5608.6 5403.7 5670.7 5378 5608.6 5403.7 5936.9 5539.7 5839.6 5774.6 5821.4 5818.5 5839.6 5774.6 5516.9 5640.9 5380.9 5969.2 5355.2 6031.3 5380.9 5969.2 5283.4 5733.6Z"/>
<path transform="matrix(.1,0,0,-.1,0,792)" d="M5047.8 6550.6 4985.7 6524.9 5047.8 6550.6 5283.4 6453 5380.9 6217.4 5406.7 6155.4 5380.9 6217.4 5613.3 6778.3 5639 6840.4 5613.3 6778.3 5380.9 7339.2 5355.2 7401.2 5380.9 7339.2 5283.4 7103.6 5047.8 7006 4985.7 6980.3 5047.8 7006 5597.5 6778.3" fill="#f8c499"/>
<path transform="matrix(.1,0,0,-.1,0,792)" stroke-width="9.5" stroke-linecap="butt" stroke-miterlimit="10" stroke-linejoin="miter" fill="none" stroke="#000000" d="M5047.8 6550.6 4985.7 6524.9 5047.8 6550.6 5283.4 6453 5380.9 6217.4 5406.7 6155.4 5380.9 6217.4 5613.3 6778.3 5639 6840.4 5613.3 6778.3 5380.9 7339.2 5355.2 7401.2 5380.9 7339.2 5283.4 7103.6 5047.8 7006 4985.7 6980.3 5047.8 7006 5597.5 6778.3Z"/>
<path transform="matrix(.1,0,0,-.1,0,792)" d="M4923.6 7057.4 4861.6 7031.7 4923.6 7057.4 5210.7 7176.3 5329.5 7463.3 5355.2 7401.2 5329.5 7463.3 5210.7 7750.3 4923.6 7869.2 4985.7 7894.9 4923.6 7869.2 4636.6 7750.3 4517.8 7463.3 4492.1 7525.4 4517.8 7463.3 4636.6 7176.3" fill="#c28c24"/>
<path transform="matrix(.1,0,0,-.1,0,792)" stroke-width="9.5" stroke-linecap="butt" stroke-miterlimit="10" stroke-linejoin="miter" fill="none" stroke="#000000" d="M4923.6 7057.4 4861.6 7031.7 4923.6 7057.4 5210.7 7176.3 5329.5 7463.3 5355.2 7401.2 5329.5 7463.3 5210.7 7750.3 4923.6 7869.2 4985.7 7894.9 4923.6 7869.2 4636.6 7750.3 4517.8 7463.3 4492.1 7525.4 4517.8 7463.3 4636.6 7176.3Z"/>
<path transform="matrix(.1,0,0,-.1,0,792)" d="M1157 7057.4 1094.9 7031.7 1157 7057.4 1444 7176.3 1562.9 7463.3 1588.6 7401.2 1562.9 7463.3 1444 7750.3 1157 7869.2 1219.1 7894.9 1157 7869.2 870 7750.3 751.102 7463.3 725.398 7525.4 751.102 7463.3 870 7176.3" fill="#c28c24"/>
<path transform="matrix(.1,0,0,-.1,0,792)" stroke-width="9.5" stroke-linecap="butt" stroke-miterlimit="10" stroke-linejoin="miter" fill="none" stroke="#000000" d="M1157 7057.4 1094.9 7031.7 1157 7057.4 1444 7176.3 1562.9 7463.3 1588.6 7401.2 1562.9 7463.3 1444 7750.3 1157 7869.2 1219.1 7894.9 1157 7869.2 870 7750.3 751.102 7463.3 725.398 7525.4 751.102 7463.3 870 7176.3Z"/>
<path transform="matrix(.1,0,0,-.1,0,792)" d="M877.898 4895 903.602 4957.1 877.898 4895 759 5182 472 5300.9 410 5326.6 472 5300.9 185 5182 66.1016 4895 40.3984 4832.9 66.1016 4895 185 4608 472 4489.1 534.102 4463.4 472 4489.1 759 4608" fill="#c28c24"/>
<path transform="matrix(.1,0,0,-.1,0,792)" stroke-width="9.5" stroke-linecap="butt" stroke-miterlimit="10" stroke-linejoin="miter" fill="none" stroke="#000000" d="M877.898 4895 903.602 4957.1 877.898 4895 759 5182 472 5300.9 410 5326.6 472 5300.9 185 5182 66.1016 4895 40.3984 4832.9 66.1016 4895 185 4608 472 4489.1 534.102 4463.4 472 4489.1 759 4608Z"/>
<path transform="matrix(.1,0,0,-.1,0,792)" d="M3040.3 1304.6 3102.4 1330.3 3040.3 1304.6 2614.7 1128.4 3040.3 952.102 2978.3 926.398 3040.3 952.102 3465.9 1128.4" fill="#c28c24"/>
<path transform="matrix(.1,0,0,-.1,0,792)" stroke-width="9.5" stroke-linecap="butt" stroke-miterlimit="10" stroke-linejoin="miter" fill="none" stroke="#000000" d="M3040.3 1304.6 3102.4 1330.3 3040.3 1304.6 2614.7 1128.4 3040.3 952.102 2978.3 926.398 3040.3 952.102 3465.9 1128.4Z"/>
<path transform="matrix(.1,0,0,-.1,0,792)" d="M5202.8 4895 5177.1 4832.9 5202.8 4895 5321.6 4608 5608.6 4489.1 5670.7 4463.4 5608.6 4489.1 5895.6 4608 6014.5 4895 6040.2 4957.1 6014.5 4895 5895.6 5182 5608.6 5300.9 5546.6 5326.6 5608.6 5300.9 5321.6 5182" fill="#c28c24"/>
<path transform="matrix(.1,0,0,-.1,0,792)" stroke-width="9.5" stroke-linecap="butt" stroke-miterlimit="10" stroke-linejoin="miter" fill="none" stroke="#000000" d="M5202.8 4895 5177.1 4832.9 5202.8 4895 5321.6 4608 5608.6 4489.1 5670.7 4463.4 5608.6 4489.1 5895.6 4608 6014.5 4895 6040.2 4957.1 6014.5 4895 5895.6 5182 5608.6 5300.9 5546.6 5326.6 5608.6 5300.9 5321.6 5182Z"/>
<path transform="matrix(.1,0,0,-.1,0,792)" d="M759 1415.4 472 1534.2 410 1559.9 472 1534.2 185 1415.4 66.1016 1128.4 40.3984 1066.3 66.1016 1128.4 185 841.301 472 722.5 534.102 696.801 472 722.5 759 841.301 877.898 1128.4 903.602 1190.4 877.898 1128.4" fill="#c28c24"/>
<path transform="matrix(.1,0,0,-.1,0,792)" stroke-width="9.5" stroke-linecap="butt" stroke-miterlimit="10" stroke-linejoin="miter" fill="none" stroke="#000000" d="M759 1415.4 472 1534.2 410 1559.9 472 1534.2 185 1415.4 66.1016 1128.4 40.3984 1066.3 66.1016 1128.4 185 841.301 472 722.5 534.102 696.801 472 722.5 759 841.301 877.898 1128.4 903.602 1190.4 877.898 1128.4Z"/>
<path transform="matrix(.1,0,0,-.1,0,792)" d="M3725.3 7287 3787.4 7261.3 3725.3 7287 4053.6 7423 3956.3 7657.9 3938.1 7701.8 3956.3 7657.9 3633.6 7524.3 3497.6 7852.5 3471.9 7914.6 3497.6 7852.5 3400 7616.9 3164.5 7519.3 3102.4 7493.6 3164.5 7519.3" fill="#9bc9b0"/>
<path transform="matrix(.1,0,0,-.1,0,792)" stroke-width="9.5" stroke-linecap="butt" stroke-miterlimit="10" stroke-linejoin="miter" fill="none" stroke="#000000" d="M3725.3 7287 3787.4 7261.3 3725.3 7287 4053.6 7423 3956.3 7657.9 3938.1 7701.8 3956.3 7657.9 3633.6 7524.3 3497.6 7852.5 3471.9 7914.6 3497.6 7852.5 3400 7616.9 3164.5 7519.3 3102.4 7493.6 3164.5 7519.3Z"/>
<path transform="matrix(.1,0,0,-.1,0,792)" d="M2355.3 7287 2417.4 7261.3 2355.3 7287 2916.2 7519.3 2978.3 7545.1 2916.2 7519.3 2680.6 7616.9 2583 7852.5 2557.3 7914.6 2583 7852.5 2447.1 7524.3 2124.4 7657.9 2080.5 7676.1 2124.4 7657.9 2027.1 7423" fill="#b0c4d9"/>
<path transform="matrix(.1,0,0,-.1,0,792)" stroke-width="9.5" stroke-linecap="butt" stroke-miterlimit="10" stroke-linejoin="miter" fill="none" stroke="#000000" d="M2355.3 7287 2417.4 7261.3 2355.3 7287 2916.2 7519.3 2978.3 7545.1 2916.2 7519.3 2680.6 7616.9 2583 7852.5 2557.3 7914.6 2583 7852.5 2447.1 7524.3 2124.4 7657.9 2080.5 7676.1 2124.4 7657.9 2027.1 7423Z"/>
<path transform="matrix(.1,0,0,-.1,0,792)" d="M929.301 1004.2 955 1066.3 929.301 1004.2 831.699 768.602 596.102 671.102 534.102 696.801 596.102 671.102 1157 438.699 1094.9 413 1157 438.699 1717.9 671.102 1779.9 645.301 1717.9 671.102 1482.3 768.602 1384.7 1004.2 1410.4 1066.3 1384.7 1004.2 1157 454.5" fill="#f8c499"/>
<path transform="matrix(.1,0,0,-.1,0,792)" stroke-width="9.5" stroke-linecap="butt" stroke-miterlimit="10" stroke-linejoin="miter" fill="none" stroke="#000000" d="M929.301 1004.2 955 1066.3 929.301 1004.2 831.699 768.602 596.102 671.102 534.102 696.801 596.102 671.102 1157 438.699 1094.9 413 1157 438.699 1717.9 671.102 1779.9 645.301 1717.9 671.102 1482.3 768.602 1384.7 1004.2 1410.4 1066.3 1384.7 1004.2 1157 454.5Z"/>
<path transform="matrix(.1,0,0,-.1,0,792)" d="M2299.3 1004.2 2325 1066.3 2299.3 1004.2 2201.7 768.602 1966.1 671.102 1904.1 696.801 1966.1 671.102 2294.4 535.102 2160.7 212.398 2116.8 230.602 2160.7 212.398 2395.6 115.102 2531.6 443.398 2557.3 381.301 2531.6 443.398" fill="#b0c4d9"/>
<path transform="matrix(.1,0,0,-.1,0,792)" stroke-width="9.5" stroke-linecap="butt" stroke-miterlimit="10" stroke-linejoin="miter" fill="none" stroke="#000000" d="M2299.3 1004.2 2325 1066.3 2299.3 1004.2 2201.7 768.602 1966.1 671.102 1904.1 696.801 1966.1 671.102 2294.4 535.102 2160.7 212.398 2116.8 230.602 2160.7 212.398 2395.6 115.102 2531.6 443.398 2557.3 381.301 2531.6 443.398Z"/>
<path transform="matrix(.1,0,0,-.1,0,792)" d="M3781.4 1004.2 3807.1 1066.3 3781.4 1004.2 3549 443.398 3523.3 505.398 3549 443.398 3685 115.102 3919.9 212.398 3938.1 168.5 3919.9 212.398 3786.3 535.102 4114.5 671.102 4176.6 645.301 4114.5 671.102 3878.9 768.602" fill="#9bc9b0"/>
<path transform="matrix(.1,0,0,-.1,0,792)" stroke-width="9.5" stroke-linecap="butt" stroke-miterlimit="10" stroke-linejoin="miter" fill="none" stroke="#000000" d="M3781.4 1004.2 3807.1 1066.3 3781.4 1004.2 3549 443.398 3523.3 505.398 3549 443.398 3685 115.102 3919.9 212.398 3938.1 168.5 3919.9 212.398 3786.3 535.102 4114.5 671.102 4176.6 645.301 4114.5 671.102 3878.9 768.602Z"/>
<path transform="matrix(.1,0,0,-.1,0,792)" d="M4696 1004.2 4721.7 1066.3 4696 1004.2 4598.4 768.602 4362.8 671.102 4300.7 696.801 4362.8 671.102 4923.6 438.699 4861.6 413 4923.6 438.699 5484.5 671.102 5546.6 645.301 5484.5 671.102 5248.9 768.602 5151.3 1004.2 5177.1 1066.3 5151.3 1004.2 4923.6 454.5" fill="#f8c499"/>
<path transform="matrix(.1,0,0,-.1,0,792)" stroke-width="9.5" stroke-linecap="butt" stroke-miterlimit="10" stroke-linejoin="miter" fill="none" stroke="#000000" d="M4696 1004.2 4721.7 1066.3 4696 1004.2 4598.4 768.602 4362.8 671.102 4300.7 696.801 4362.8 671.102 4923.6 438.699 4861.6 413 4923.6 438.699 5484.5 671.102 5546.6 645.301 5484.5 671.102 5248.9 768.602 5151.3 1004.2 5177.1 1066.3 5151.3 1004.2 4923.6 454.5Z"/>
<path transform="matrix(.1,0,0,-.1,0,792)" d="M5202.8 1128.4 5177.1 1066.3 5202.8 1128.4 5321.6 841.301 5608.6 722.5 5670.7 696.801 5608.6 722.5 5895.6 841.301 6014.5 1128.4 6040.2 1190.4 6014.5 1128.4 5895.6 1415.4 5608.6 1534.2 5546.6 1559.9 5608.6 1534.2 5321.6 1415.4" fill="#c28c24"/>
<path transform="matrix(.1,0,0,-.1,0,792)" stroke-width="9.5" stroke-linecap="butt" stroke-miterlimit="10" stroke-linejoin="miter" fill="none" stroke="#000000" d="M5202.8 1128.4 5177.1 1066.3 5202.8 1128.4 5321.6 841.301 5608.6 722.5 5670.7 696.801 5608.6 722.5 5895.6 841.301 6014.5 1128.4 6040.2 1190.4 6014.5 1128.4 5895.6 1415.4 5608.6 1534.2 5546.6 1559.9 5608.6 1534.2 5321.6 1415.4Z"/>
<path transform="matrix(.1,0,0,-.1,0,792)" d="M648.301 6093.3 674 6031.3 648.301 6093.3 416 6654.2 441.699 6716.3 416 6654.2 318.398 6418.6 82.8008 6321 20.6992 6346.7 82.8008 6321 411.102 6185 277.398 5862.4 233.5 5880.5 277.398 5862.4 512.301 5765.1" fill="#b0c4d9"/>
<path transform="matrix(.1,0,0,-.1,0,792)" stroke-width="9.5" stroke-linecap="butt" stroke-miterlimit="10" stroke-linejoin="miter" fill="none" stroke="#000000" d="M648.301 6093.3 674 6031.3 648.301 6093.3 416 6654.2 441.699 6716.3 416 6654.2 318.398 6418.6 82.8008 6321 20.6992 6346.7 82.8008 6321 411.102 6185 277.398 5862.4 233.5 5880.5 277.398 5862.4 512.301 5765.1Z"/>
<path transform="matrix(.1,0,0,-.1,0,792)" d="M648.301 3696.7 674 3634.6 648.301 3696.7 512.301 4024.9 277.398 3927.6 259.199 3971.5 277.398 3927.6 411.102 3604.9 82.8008 3469 20.6992 3494.7 82.8008 3469 318.398 3371.4 416 3135.8 390.301 3073.7 416 3135.8" fill="#9bc9b0"/>
<path transform="matrix(.1,0,0,-.1,0,792)" stroke-width="9.5" stroke-linecap="butt" stroke-miterlimit="10" stroke-linejoin="miter" fill="none" stroke="#000000" d="M648.301 3696.7 674 3634.6 648.301 3696.7 512.301 4024.9 277.398 3927.6 259.199 3971.5 277.398 3927.6 411.102 3604.9 82.8008 3469 20.6992 3494.7 82.8008 3469 318.398 3371.4 416 3135.8 390.301 3073.7 416 3135.8Z"/>
<path transform="matrix(.1,0,0,-.1,0,792)" d="M648.301 2326.7 674 2264.6 648.301 2326.7 416 2887.5 441.699 2949.6 416 2887.5 318.398 2652 82.8008 2554.4 20.6992 2580.1 82.8008 2554.4 411.102 2418.4 277.398 2095.7 233.5 2113.9 277.398 2095.7 512.301 1998.4" fill="#b0c4d9"/>
<path transform="matrix(.1,0,0,-.1,0,792)" stroke-width="9.5" stroke-linecap="butt" stroke-miterlimit="10" stroke-linejoin="miter" fill="none" stroke="#000000" d="M648.301 2326.7 674 2264.6 648.301 2326.7 416 2887.5 441.699 2949.6 416 2887.5 318.398 2652 82.8008 2554.4 20.6992 2580.1 82.8008 2554.4 411.102 2418.4 277.398 2095.7 233.5 2113.9 277.398 2095.7 512.301 1998.4Z"/>
<path transform="matrix(.1,0,0,-.1,0,792)" d="M4466.4 7587.4 4492.1 7525.4 4466.4 7587.4 4563.9 7823 4799.5 7920.6 4861.6 7946.3 4799.5 7920.6 4238.7 8152.9 4176.6 8178.6 4238.7 8152.9 3910.4 8017 4007.7 7782 4025.9 7738.2 4007.7 7782 4330.4 7915.7" fill="#9bc9b0"/>
<path transform="matrix(.1,0,0,-.1,0,792)" stroke-width="9.5" stroke-linecap="butt" stroke-miterlimit="10" stroke-linejoin="miter" fill="none" stroke="#000000" d="M4466.4 7587.4 4492.1 7525.4 4466.4 7587.4 4563.9 7823 4799.5 7920.6 4861.6 7946.3 4799.5 7920.6 4238.7 8152.9 4176.6 8178.6 4238.7 8152.9 3910.4 8017 4007.7 7782 4025.9 7738.2 4007.7 7782 4330.4 7915.7Z"/>
<path transform="matrix(.1,0,0,-.1,0,792)" d="M1614.3 7587.4 1640 7525.4 1614.3 7587.4 1750.3 7915.7 2073 7782 2116.8 7763.9 2073 7782 2170.3 8017 1842 8152.9 1779.9 8178.6 1842 8152.9 1281.1 7920.6 1219.1 7894.9 1281.1 7920.6 1516.7 7823" fill="#b0c4d9"/>
<path transform="matrix(.1,0,0,-.1,0,792)" stroke-width="9.5" stroke-linecap="butt" stroke-miterlimit="10" stroke-linejoin="miter" fill="none" stroke="#000000" d="M1614.3 7587.4 1640 7525.4 1614.3 7587.4 1750.3 7915.7 2073 7782 2116.8 7763.9 2073 7782 2170.3 8017 1842 8152.9 1779.9 8178.6 1842 8152.9 1281.1 7920.6 1219.1 7894.9 1281.1 7920.6 1516.7 7823Z"/>
<path transform="matrix(.1,0,0,-.1,0,792)" d="M648.301 7463.3 674 7401.2 648.301 7463.3 512.301 7791.6 277.398 7694.3 259.199 7738.2 277.398 7694.3 411.102 7371.6 82.8008 7235.6 20.6992 7261.3 82.8008 7235.6 318.398 7138 416 6902.4 390.301 6840.4 416 6902.4" fill="#9bc9b0"/>
<path transform="matrix(.1,0,0,-.1,0,792)" stroke-width="9.5" stroke-linecap="butt" stroke-miterlimit="10" stroke-linejoin="miter" fill="none" stroke="#000000" d="M648.301 7463.3 674 7401.2 648.301 7463.3 512.301 7791.6 277.398 7694.3 259.199 7738.2 277.398 7694.3 411.102 7371.6 82.8008 7235.6 20.6992 7261.3 82.8008 7235.6 318.398 7138 416 6902.4 390.301 6840.4 416 6902.4Z"/>
<path transform="matrix(.1,0,0,-.1,0,792)" d="M699.699 7587.4 725.398 7525.4 699.699 7587.4 797.301 7823 1032.9 7920.6 1094.9 7946.3 1032.9 7920.6 472 8152.9 410 8178.6 472 8152.9 143.699 8017 241.102 7782 259.199 7738.2 241.102 7782 563.699 7915.7" fill="#9bc9b0"/>
<path transform="matrix(.1,0,0,-.1,0,792)" stroke-width="9.5" stroke-linecap="butt" stroke-miterlimit="10" stroke-linejoin="miter" fill="none" stroke="#000000" d="M699.699 7587.4 725.398 7525.4 699.699 7587.4 797.301 7823 1032.9 7920.6 1094.9 7946.3 1032.9 7920.6 472 8152.9 410 8178.6 472 8152.9 143.699 8017 241.102 7782 259.199 7738.2 241.102 7782 563.699 7915.7Z"/>
<path transform="matrix(.1,0,0,-.1,0,792)" d="M3040.3 849.199 3102.4 874.898 3040.3 849.199 2753.3 730.398 2634.4 443.398 2608.7 505.398 2634.4 443.398 2753.3 156.398 3040.3 37.5 2978.3 11.8008 3040.3 37.5 3327.3 156.398 3446.2 443.398 3471.9 381.301 3446.2 443.398 3327.3 730.398" fill="#c28c24"/>
<path transform="matrix(.1,0,0,-.1,0,792)" stroke-width="9.5" stroke-linecap="butt" stroke-miterlimit="10" stroke-linejoin="miter" fill="none" stroke="#000000" d="M3040.3 849.199 3102.4 874.898 3040.3 849.199 2753.3 730.398 2634.4 443.398 2608.7 505.398 2634.4 443.398 2753.3 156.398 3040.3 37.5 2978.3 11.8008 3040.3 37.5 3327.3 156.398 3446.2 443.398 3471.9 381.301 3446.2 443.398 3327.3 730.398Z"/>
<path transform="matrix(.1,0,0,-.1,0,792)" d="M3040.3 7570.8 2978.3 7545.1 3040.3 7570.8 3327.3 7689.6 3446.2 7976.6 3471.9 7914.6 3446.2 7976.6 3327.3 8263.6 3040.3 8382.5 3102.4 8408.2 3040.3 8382.5 2753.3 8263.6 2634.4 7976.6 2608.7 8038.7 2634.4 7976.6 2753.3 7689.6" fill="#c28c24"/>
<path transform="matrix(.1,0,0,-.1,0,792)" stroke-width="9.5" stroke-linecap="butt" stroke-miterlimit="10" stroke-linejoin="miter" fill="none" stroke="#000000" d="M3040.3 7570.8 2978.3 7545.1 3040.3 7570.8 3327.3 7689.6 3446.2 7976.6 3471.9 7914.6 3446.2 7976.6 3327.3 8263.6 3040.3 8382.5 3102.4 8408.2 3040.3 8382.5 2753.3 8263.6 2634.4 7976.6 2608.7 8038.7 2634.4 7976.6 2753.3 7689.6Z"/>
<path transform="matrix(.1,0,0,-.1,0,792)" d="M5432.4 2326.7 5406.7 2388.7 5432.4 2326.7 5568.3 1998.4 5803.2 2095.7 5821.4 2051.8 5803.2 2095.7 5669.6 2418.4 5997.9 2554.4 6059.9 2528.7 5997.9 2554.4 5762.3 2652 5664.7 2887.5 5690.4 2949.6 5664.7 2887.5" fill="#9bc9b0"/>
<path transform="matrix(.1,0,0,-.1,0,792)" stroke-width="9.5" stroke-linecap="butt" stroke-miterlimit="10" stroke-linejoin="miter" fill="none" stroke="#000000" d="M5432.4 2326.7 5406.7 2388.7 5432.4 2326.7 5568.3 1998.4 5803.2 2095.7 5821.4 2051.8 5803.2 2095.7 5669.6 2418.4 5997.9 2554.4 6059.9 2528.7 5997.9 2554.4 5762.3 2652 5664.7 2887.5 5690.4 2949.6 5664.7 2887.5Z"/>
<path transform="matrix(.1,0,0,-.1,0,792)" d="M5432.4 3696.7 5406.7 3758.7 5432.4 3696.7 5664.7 3135.8 5639 3073.7 5664.7 3135.8 5762.3 3371.4 5997.9 3469 6059.9 3443.3 5997.9 3469 5669.6 3604.9 5803.2 3927.6 5847.1 3909.4 5803.2 3927.6 5568.3 4024.9" fill="#b0c4d9"/>
<path transform="matrix(.1,0,0,-.1,0,792)" stroke-width="9.5" stroke-linecap="butt" stroke-miterlimit="10" stroke-linejoin="miter" fill="none" stroke="#000000" d="M5432.4 3696.7 5406.7 3758.7 5432.4 3696.7 5664.7 3135.8 5639 3073.7 5664.7 3135.8 5762.3 3371.4 5997.9 3469 6059.9 3443.3 5997.9 3469 5669.6 3604.9 5803.2 3927.6 5847.1 3909.4 5803.2 3927.6 5568.3 4024.9Z"/>
<path transform="matrix(.1,0,0,-.1,0,792)" d="M5432.4 6093.3 5406.7 6155.4 5432.4 6093.3 5568.3 5765.1 5803.2 5862.4 5821.4 5818.5 5803.2 5862.4 5669.6 6185 5997.9 6321 6059.9 6295.3 5997.9 6321 5762.3 6418.6 5664.7 6654.2 5690.4 6716.3 5664.7 6654.2" fill="#9bc9b0"/>
<path transform="matrix(.1,0,0,-.1,0,792)" stroke-width="9.5" stroke-linecap="butt" stroke-miterlimit="10" stroke-linejoin="miter" fill="none" stroke="#000000" d="M5432.4 6093.3 5406.7 6155.4 5432.4 6093.3 5568.3 5765.1 5803.2 5862.4 5821.4 5818.5 5803.2 5862.4 5669.6 6185 5997.9 6321 6059.9 6295.3 5997.9 6321 5762.3 6418.6 5664.7 6654.2 5690.4 6716.3 5664.7 6654.2Z"/>
<path transform="matrix(.1,0,0,-.1,0,792)" d="M5380.9 7587.4 5406.7 7525.4 5380.9 7587.4 5516.9 7915.7 5839.6 7782 5883.5 7763.9 5839.6 7782 5936.9 8017 5608.6 8152.9 5546.6 8178.6 5608.6 8152.9 5047.8 7920.6 4985.7 7894.9 5047.8 7920.6 5283.4 7823" fill="#b0c4d9"/>
<path transform="matrix(.1,0,0,-.1,0,792)" stroke-width="9.5" stroke-linecap="butt" stroke-miterlimit="10" stroke-linejoin="miter" fill="none" stroke="#000000" d="M5380.9 7587.4 5406.7 7525.4 5380.9 7587.4 5516.9 7915.7 5839.6 7782 5883.5 7763.9 5839.6 7782 5936.9 8017 5608.6 8152.9 5546.6 8178.6 5608.6 8152.9 5047.8 7920.6 4985.7 7894.9 5047.8 7920.6 5283.4 7823Z"/>
<path transform="matrix(.1,0,0,-.1,0,792)" d="M5432.4 7463.3 5406.7 7525.4 5432.4 7463.3 5664.7 6902.4 5639 6840.4 5664.7 6902.4 5762.3 7138 5997.9 7235.6 6059.9 7209.9 5997.9 7235.6 5669.6 7371.6 5803.2 7694.3 5847.1 7676.1 5803.2 7694.3 5568.3 7791.6" fill="#b0c4d9"/>
<path transform="matrix(.1,0,0,-.1,0,792)" stroke-width="9.5" stroke-linecap="butt" stroke-miterlimit="10" stroke-linejoin="miter" fill="none" stroke="#000000" d="M5432.4 7463.3 5406.7 7525.4 5432.4 7463.3 5664.7 6902.4 5639 6840.4 5664.7 6902.4 5762.3 7138 5997.9 7235.6 6059.9 7209.9 5997.9 7235.6 5669.6 7371.6 5803.2 7694.3 5847.1 7676.1 5803.2 7694.3 5568.3 7791.6Z"/>
<path transform="matrix(.1,0,0,-.1,0,792)" d="M3685 7648.4 3919.9 7745.7 3938.1 7701.8 3919.9 7745.7 3786.3 8068.4 4114.5 8204.3 4176.6 8178.6 4114.5 8204.3 3878.9 8301.9 3781.4 8537.5 3807.1 8599.6 3781.4 8537.5 3549 7976.6 3523.3 8038.7 3549 7976.6" fill="#9bc9b0"/>
<path transform="matrix(.1,0,0,-.1,0,792)" stroke-width="9.5" stroke-linecap="butt" stroke-miterlimit="10" stroke-linejoin="miter" fill="none" stroke="#000000" d="M3685 7648.4 3919.9 7745.7 3938.1 7701.8 3919.9 7745.7 3786.3 8068.4 4114.5 8204.3 4176.6 8178.6 4114.5 8204.3 3878.9 8301.9 3781.4 8537.5 3807.1 8599.6 3781.4 8537.5 3549 7976.6 3523.3 8038.7 3549 7976.6Z"/>
<path transform="matrix(.1,0,0,-.1,0,792)" d="M2395.6 7648.4 2531.6 7976.6 2557.3 7914.6 2531.6 7976.6 2299.3 8537.5 2325 8599.6 2299.3 8537.5 2201.7 8301.9 1966.1 8204.3 1904.1 8230 1966.1 8204.3 2294.4 8068.4 2160.7 7745.7 2116.8 7763.9 2160.7 7745.7" fill="#b0c4d9"/>
<path transform="matrix(.1,0,0,-.1,0,792)" stroke-width="9.5" stroke-linecap="butt" stroke-miterlimit="10" stroke-linejoin="miter" fill="none" stroke="#000000" d="M2395.6 7648.4 2531.6 7976.6 2557.3 7914.6 2531.6 7976.6 2299.3 8537.5 2325 8599.6 2299.3 8537.5 2201.7 8301.9 1966.1 8204.3 1904.1 8230 1966.1 8204.3 2294.4 8068.4 2160.7 7745.7 2116.8 7763.9 2160.7 7745.7Z"/>
<path transform="matrix(.1,0,0,-.1,0,792)" d="M347.898 5352.3 410 5326.6 347.898 5352.3 19.6016 5488.3 153.301 5810.9 197.199 5792.8 153.301 5810.9-81.6016 5908.3-217.602 5580-243.301 5642-217.602 5580 14.6992 5019.1-11 4957.1 14.6992 5019.1 112.301 5254.7" fill="#b0c4d9"/>
<path transform="matrix(.1,0,0,-.1,0,792)" stroke-width="9.5" stroke-linecap="butt" stroke-miterlimit="10" stroke-linejoin="miter" fill="none" stroke="#000000" d="M347.898 5352.3 410 5326.6 347.898 5352.3 19.6016 5488.3 153.301 5810.9 197.199 5792.8 153.301 5810.9-81.6016 5908.3-217.602 5580-243.301 5642-217.602 5580 14.6992 5019.1-11 4957.1 14.6992 5019.1 112.301 5254.7Z"/>
<path transform="matrix(.1,0,0,-.1,0,792)" d="M347.898 4437.7 410 4412 347.898 4437.7 112.301 4535.3 14.6992 4770.9 40.3984 4832.9 14.6992 4770.9-217.602 4210-243.301 4272.1-217.602 4210-81.6016 3881.7 153.301 3979 171.5 3935.2 153.301 3979 19.6016 4301.7" fill="#9bc9b0"/>
<path transform="matrix(.1,0,0,-.1,0,792)" stroke-width="9.5" stroke-linecap="butt" stroke-miterlimit="10" stroke-linejoin="miter" fill="none" stroke="#000000" d="M347.898 4437.7 410 4412 347.898 4437.7 112.301 4535.3 14.6992 4770.9 40.3984 4832.9 14.6992 4770.9-217.602 4210-243.301 4272.1-217.602 4210-81.6016 3881.7 153.301 3979 171.5 3935.2 153.301 3979 19.6016 4301.7Z"/>
<path transform="matrix(.1,0,0,-.1,0,792)" d="M347.898 1585.6 410 1559.9 347.898 1585.6 19.6016 1721.6 153.301 2044.3 197.199 2026.1 153.301 2044.3-81.6016 2141.6-217.602 1813.3-243.301 1875.4-217.602 1813.3 14.6992 1252.5-11 1190.4 14.6992 1252.5 112.301 1488.1" fill="#b0c4d9"/>
<path transform="matrix(.1,0,0,-.1,0,792)" stroke-width="9.5" stroke-linecap="butt" stroke-miterlimit="10" stroke-linejoin="miter" fill="none" stroke="#000000" d="M347.898 1585.6 410 1559.9 347.898 1585.6 19.6016 1721.6 153.301 2044.3 197.199 2026.1 153.301 2044.3-81.6016 2141.6-217.602 1813.3-243.301 1875.4-217.602 1813.3 14.6992 1252.5-11 1190.4 14.6992 1252.5 112.301 1488.1Z"/>
<path transform="matrix(.1,0,0,-.1,0,792)" d="M364.602 6778.3 390.301 6840.4 364.602 6778.3 245.699 7065.3-41.3008 7184.2-103.398 7209.9-41.3008 7184.2-328.301 7065.3-447.199 6778.3-472.898 6716.3-447.199 6778.3-328.301 6491.3-41.3008 6372.4 20.6992 6346.7-41.3008 6372.4 245.699 6491.3" fill="#c28c24"/>
<path transform="matrix(.1,0,0,-.1,0,792)" stroke-width="9.5" stroke-linecap="butt" stroke-miterlimit="10" stroke-linejoin="miter" fill="none" stroke="#000000" d="M364.602 6778.3 390.301 6840.4 364.602 6778.3 245.699 7065.3-41.3008 7184.2-103.398 7209.9-41.3008 7184.2-328.301 7065.3-447.199 6778.3-472.898 6716.3-447.199 6778.3-328.301 6491.3-41.3008 6372.4 20.6992 6346.7-41.3008 6372.4 245.699 6491.3Z"/>
<path transform="matrix(.1,0,0,-.1,0,792)" d="M364.602 3011.7 390.301 3073.7 364.602 3011.7 245.699 3298.7-41.3008 3417.6-103.398 3443.3-41.3008 3417.6-328.301 3298.7-447.199 3011.7-472.898 2949.6-447.199 3011.7-328.301 2724.7-41.3008 2605.8 20.6992 2580.1-41.3008 2605.8 245.699 2724.7" fill="#c28c24"/>
<path transform="matrix(.1,0,0,-.1,0,792)" stroke-width="9.5" stroke-linecap="butt" stroke-miterlimit="10" stroke-linejoin="miter" fill="none" stroke="#000000" d="M364.602 3011.7 390.301 3073.7 364.602 3011.7 245.699 3298.7-41.3008 3417.6-103.398 3443.3-41.3008 3417.6-328.301 3298.7-447.199 3011.7-472.898 2949.6-447.199 3011.7-328.301 2724.7-41.3008 2605.8 20.6992 2580.1-41.3008 2605.8 245.699 2724.7Z"/>
<path transform="matrix(.1,0,0,-.1,0,792)" d="M472 619.602 410 645.301 472 619.602 143.699 483.699 241.102 248.801 259.199 204.898 241.102 248.801 563.699 382.398 699.699 54.1016 725.398-7.89844 699.699 54.1016 797.301 289.699 1032.9 387.301 1094.9 413 1032.9 387.301" fill="#9bc9b0"/>
<path transform="matrix(.1,0,0,-.1,0,792)" stroke-width="9.5" stroke-linecap="butt" stroke-miterlimit="10" stroke-linejoin="miter" fill="none" stroke="#000000" d="M472 619.602 410 645.301 472 619.602 143.699 483.699 241.102 248.801 259.199 204.898 241.102 248.801 563.699 382.398 699.699 54.1016 725.398-7.89844 699.699 54.1016 797.301 289.699 1032.9 387.301 1094.9 413 1032.9 387.301Z"/>
<path transform="matrix(.1,0,0,-.1,0,792)" d="M347.898 671.102 410 645.301 347.898 671.102 112.301 768.602 14.6992 1004.2 40.3984 1066.3 14.6992 1004.2-217.602 443.398-243.301 505.398-217.602 443.398-81.6016 115.102 153.301 212.398 171.5 168.5 153.301 212.398 19.6016 535.102" fill="#9bc9b0"/>
<path transform="matrix(.1,0,0,-.1,0,792)" stroke-width="9.5" stroke-linecap="butt" stroke-miterlimit="10" stroke-linejoin="miter" fill="none" stroke="#000000" d="M347.898 671.102 410 645.301 347.898 671.102 112.301 768.602 14.6992 1004.2 40.3984 1066.3 14.6992 1004.2-217.602 443.398-243.301 505.398-217.602 443.398-81.6016 115.102 153.301 212.398 171.5 168.5 153.301 212.398 19.6016 535.102Z"/>
<path transform="matrix(.1,0,0,-.1,0,792)" d="M1842 619.602 1779.9 645.301 1842 619.602 1281.1 387.301 1219.1 361.602 1281.1 387.301 1516.7 289.699 1614.3 54.1016 1640-7.89844 1614.3 54.1016 1750.3 382.398 2073 248.801 2116.8 230.602 2073 248.801 2170.3 483.699" fill="#b0c4d9"/>
<path transform="matrix(.1,0,0,-.1,0,792)" stroke-width="9.5" stroke-linecap="butt" stroke-miterlimit="10" stroke-linejoin="miter" fill="none" stroke="#000000" d="M1842 619.602 1779.9 645.301 1842 619.602 1281.1 387.301 1219.1 361.602 1281.1 387.301 1516.7 289.699 1614.3 54.1016 1640-7.89844 1614.3 54.1016 1750.3 382.398 2073 248.801 2116.8 230.602 2073 248.801 2170.3 483.699Z"/>
<path transform="matrix(.1,0,0,-.1,0,792)" d="M4238.7 619.602 4176.6 645.301 4238.7 619.602 3910.4 483.699 4007.7 248.801 4025.9 204.898 4007.7 248.801 4330.4 382.398 4466.4 54.1016 4492.1-7.89844 4466.4 54.1016 4563.9 289.699 4799.5 387.301 4861.6 413 4799.5 387.301" fill="#9bc9b0"/>
<path transform="matrix(.1,0,0,-.1,0,792)" stroke-width="9.5" stroke-linecap="butt" stroke-miterlimit="10" stroke-linejoin="miter" fill="none" stroke="#000000" d="M4238.7 619.602 4176.6 645.301 4238.7 619.602 3910.4 483.699 4007.7 248.801 4025.9 204.898 4007.7 248.801 4330.4 382.398 4466.4 54.1016 4492.1-7.89844 4466.4 54.1016 4563.9 289.699 4799.5 387.301 4861.6 413 4799.5 387.301Z"/>
<path transform="matrix(.1,0,0,-.1,0,792)" d="M286.898 7423 189.602 7657.9 171.5 7701.8 189.602 7657.9-133 7524.3-269 7852.5-294.699 7914.6-269 7852.5-366.602 7616.9-602.199 7519.3-664.301 7493.6-602.199 7519.3-41.3008 7287 20.6992 7261.3-41.3008 7287" fill="#9bc9b0"/>
<path transform="matrix(.1,0,0,-.1,0,792)" stroke-width="9.5" stroke-linecap="butt" stroke-miterlimit="10" stroke-linejoin="miter" fill="none" stroke="#000000" d="M286.898 7423 189.602 7657.9 171.5 7701.8 189.602 7657.9-133 7524.3-269 7852.5-294.699 7914.6-269 7852.5-366.602 7616.9-602.199 7519.3-664.301 7493.6-602.199 7519.3-41.3008 7287 20.6992 7261.3-41.3008 7287Z"/>
<path transform="matrix(.1,0,0,-.1,0,792)" d="M286.898 6133.6-41.3008 6269.6-103.398 6295.3-41.3008 6269.6-602.199 6037.3-664.301 6011.6-602.199 6037.3-366.602 5939.7-269 5704.1-243.301 5642-269 5704.1-133 6032.4 189.602 5898.7 233.5 5880.5 189.602 5898.7" fill="#b0c4d9"/>
<path transform="matrix(.1,0,0,-.1,0,792)" stroke-width="9.5" stroke-linecap="butt" stroke-miterlimit="10" stroke-linejoin="miter" fill="none" stroke="#000000" d="M286.898 6133.6-41.3008 6269.6-103.398 6295.3-41.3008 6269.6-602.199 6037.3-664.301 6011.6-602.199 6037.3-366.602 5939.7-269 5704.1-243.301 5642-269 5704.1-133 6032.4 189.602 5898.7 233.5 5880.5 189.602 5898.7Z"/>
<path transform="matrix(.1,0,0,-.1,0,792)" d="M286.898 3656.4 189.602 3891.3 171.5 3935.2 189.602 3891.3-133 3757.6-269 4085.9-294.699 4147.9-269 4085.9-366.602 3850.3-602.199 3752.7-664.301 3727-602.199 3752.7-41.3008 3520.4 20.6992 3494.7-41.3008 3520.4" fill="#9bc9b0"/>
<path transform="matrix(.1,0,0,-.1,0,792)" stroke-width="9.5" stroke-linecap="butt" stroke-miterlimit="10" stroke-linejoin="miter" fill="none" stroke="#000000" d="M286.898 3656.4 189.602 3891.3 171.5 3935.2 189.602 3891.3-133 3757.6-269 4085.9-294.699 4147.9-269 4085.9-366.602 3850.3-602.199 3752.7-664.301 3727-602.199 3752.7-41.3008 3520.4 20.6992 3494.7-41.3008 3520.4Z"/>
<path transform="matrix(.1,0,0,-.1,0,792)" d="M286.898 2367-41.3008 2503-103.398 2528.7-41.3008 2503-602.199 2270.6-664.301 2244.9-602.199 2270.6-366.602 2173.1-269 1937.5-243.301 1875.4-269 1937.5-133 2265.7 189.602 2132.1 233.5 2113.9 189.602 2132.1" fill="#b0c4d9"/>
<path transform="matrix(.1,0,0,-.1,0,792)" stroke-width="9.5" stroke-linecap="butt" stroke-miterlimit="10" stroke-linejoin="miter" fill="none" stroke="#000000" d="M286.898 2367-41.3008 2503-103.398 2528.7-41.3008 2503-602.199 2270.6-664.301 2244.9-602.199 2270.6-366.602 2173.1-269 1937.5-243.301 1875.4-269 1937.5-133 2265.7 189.602 2132.1 233.5 2113.9 189.602 2132.1Z"/>
<path transform="matrix(.1,0,0,-.1,0,792)" d="M5732.8 671.102 5670.7 696.801 5732.8 671.102 6061 535.102 5927.4 212.398 5883.5 230.602 5927.4 212.398 6162.3 115.102 6298.3 443.398 6324 381.301 6298.3 443.398 6065.9 1004.2 6091.6 1066.3 6065.9 1004.2 5968.4 768.602" fill="#b0c4d9"/>
<path transform="matrix(.1,0,0,-.1,0,792)" stroke-width="9.5" stroke-linecap="butt" stroke-miterlimit="10" stroke-linejoin="miter" fill="none" stroke="#000000" d="M5732.8 671.102 5670.7 696.801 5732.8 671.102 6061 535.102 5927.4 212.398 5883.5 230.602 5927.4 212.398 6162.3 115.102 6298.3 443.398 6324 381.301 6298.3 443.398 6065.9 1004.2 6091.6 1066.3 6065.9 1004.2 5968.4 768.602Z"/>
<path transform="matrix(.1,0,0,-.1,0,792)" d="M5608.6 619.602 5546.6 645.301 5608.6 619.602 5047.8 387.301 4985.7 361.602 5047.8 387.301 5283.4 289.699 5380.9 54.1016 5406.7-7.89844 5380.9 54.1016 5516.9 382.398 5839.6 248.801 5883.5 230.602 5839.6 248.801 5936.9 483.699" fill="#b0c4d9"/>
<path transform="matrix(.1,0,0,-.1,0,792)" stroke-width="9.5" stroke-linecap="butt" stroke-miterlimit="10" stroke-linejoin="miter" fill="none" stroke="#000000" d="M5608.6 619.602 5546.6 645.301 5608.6 619.602 5047.8 387.301 4985.7 361.602 5047.8 387.301 5283.4 289.699 5380.9 54.1016 5406.7-7.89844 5380.9 54.1016 5516.9 382.398 5839.6 248.801 5883.5 230.602 5839.6 248.801 5936.9 483.699Z"/>
<path transform="matrix(.1,0,0,-.1,0,792)" d="M5732.8 1585.6 5670.7 1611.4 5732.8 1585.6 5968.4 1488.1 6065.9 1252.5 6040.2 1190.4 6065.9 1252.5 6298.3 1813.3 6324 1751.3 6298.3 1813.3 6162.3 2141.6 5927.4 2044.3 5909.2 2088.2 5927.4 2044.3 6061 1721.6" fill="#9bc9b0"/>
<path transform="matrix(.1,0,0,-.1,0,792)" stroke-width="9.5" stroke-linecap="butt" stroke-miterlimit="10" stroke-linejoin="miter" fill="none" stroke="#000000" d="M5732.8 1585.6 5670.7 1611.4 5732.8 1585.6 5968.4 1488.1 6065.9 1252.5 6040.2 1190.4 6065.9 1252.5 6298.3 1813.3 6324 1751.3 6298.3 1813.3 6162.3 2141.6 5927.4 2044.3 5909.2 2088.2 5927.4 2044.3 6061 1721.6Z"/>
<path transform="matrix(.1,0,0,-.1,0,792)" d="M5732.8 4437.7 5670.7 4463.4 5732.8 4437.7 6061 4301.7 5927.4 3979 5883.5 3997.2 5927.4 3979 6162.3 3881.7 6298.3 4210 6324 4147.9 6298.3 4210 6065.9 4770.9 6091.6 4832.9 6065.9 4770.9 5968.4 4535.3" fill="#b0c4d9"/>
<path transform="matrix(.1,0,0,-.1,0,792)" stroke-width="9.5" stroke-linecap="butt" stroke-miterlimit="10" stroke-linejoin="miter" fill="none" stroke="#000000" d="M5732.8 4437.7 5670.7 4463.4 5732.8 4437.7 6061 4301.7 5927.4 3979 5883.5 3997.2 5927.4 3979 6162.3 3881.7 6298.3 4210 6324 4147.9 6298.3 4210 6065.9 4770.9 6091.6 4832.9 6065.9 4770.9 5968.4 4535.3Z"/>
<path transform="matrix(.1,0,0,-.1,0,792)" d="M5732.8 5352.3 5670.7 5378 5732.8 5352.3 5968.4 5254.7 6065.9 5019.1 6040.2 4957.1 6065.9 5019.1 6298.3 5580 6324 5517.9 6298.3 5580 6162.3 5908.3 5927.4 5810.9 5909.2 5854.8 5927.4 5810.9 6061 5488.3" fill="#9bc9b0"/>
<path transform="matrix(.1,0,0,-.1,0,792)" stroke-width="9.5" stroke-linecap="butt" stroke-miterlimit="10" stroke-linejoin="miter" fill="none" stroke="#000000" d="M5732.8 5352.3 5670.7 5378 5732.8 5352.3 5968.4 5254.7 6065.9 5019.1 6040.2 4957.1 6065.9 5019.1 6298.3 5580 6324 5517.9 6298.3 5580 6162.3 5908.3 5927.4 5810.9 5909.2 5854.8 5927.4 5810.9 6061 5488.3Z"/>
<path transform="matrix(.1,0,0,-.1,0,792)" d="M5716.1 6778.3 5690.4 6716.3 5716.1 6778.3 5835 6491.3 6122 6372.4 6184 6346.7 6122 6372.4 6409 6491.3 6527.9 6778.3 6553.6 6840.4 6527.9 6778.3 6409 7065.3 6122 7184.2 6059.9 7209.9 6122 7184.2 5835 7065.3" fill="#c28c24"/>
<path transform="matrix(.1,0,0,-.1,0,792)" stroke-width="9.5" stroke-linecap="butt" stroke-miterlimit="10" stroke-linejoin="miter" fill="none" stroke="#000000" d="M5716.1 6778.3 5690.4 6716.3 5716.1 6778.3 5835 6491.3 6122 6372.4 6184 6346.7 6122 6372.4 6409 6491.3 6527.9 6778.3 6553.6 6840.4 6527.9 6778.3 6409 7065.3 6122 7184.2 6059.9 7209.9 6122 7184.2 5835 7065.3Z"/>
<path transform="matrix(.1,0,0,-.1,0,792)" d="M5716.1 3011.7 5690.4 2949.6 5716.1 3011.7 5835 2724.7 6122 2605.8 6184 2580.1 6122 2605.8 6409 2724.7 6527.9 3011.7 6553.6 3073.7 6527.9 3011.7 6409 3298.7 6122 3417.6 6059.9 3443.3 6122 3417.6 5835 3298.7" fill="#c28c24"/>
<path transform="matrix(.1,0,0,-.1,0,792)" stroke-width="9.5" stroke-linecap="butt" stroke-miterlimit="10" stroke-linejoin="miter" fill="none" stroke="#000000" d="M5716.1 3011.7 5690.4 2949.6 5716.1 3011.7 5835 2724.7 6122 2605.8 6184 2580.1 6122 2605.8 6409 2724.7 6527.9 3011.7 6553.6 3073.7 6527.9 3011.7 6409 3298.7 6122 3417.6 6059.9 3443.3 6122 3417.6 5835 3298.7Z"/>
<path transform="matrix(.1,0,0,-.1,0,792)" d="M2583 319.199 2557.3 381.301 2583 319.199 2447.1-9 2124.4 124.602 2080.5 142.801 2124.4 124.602 2027.1-110.301 2355.3-246.301 2417.4-272 2355.3-246.301 2916.2-13.8984 2978.3 11.8008 2916.2-13.8984 2680.6 83.6016" fill="#b0c4d9"/>
<path transform="matrix(.1,0,0,-.1,0,792)" stroke-width="9.5" stroke-linecap="butt" stroke-miterlimit="10" stroke-linejoin="miter" fill="none" stroke="#000000" d="M2583 319.199 2557.3 381.301 2583 319.199 2447.1-9 2124.4 124.602 2080.5 142.801 2124.4 124.602 2027.1-110.301 2355.3-246.301 2417.4-272 2355.3-246.301 2916.2-13.8984 2978.3 11.8008 2916.2-13.8984 2680.6 83.6016Z"/>
<path transform="matrix(.1,0,0,-.1,0,792)" d="M3497.6 319.199 3471.9 381.301 3497.6 319.199 3400 83.6016 3164.5-13.8984 3102.4-39.6016 3164.5-13.8984 3725.3-246.301 3787.4-272 3725.3-246.301 4053.6-110.301 3956.3 124.602 3938.1 168.5 3956.3 124.602 3633.6-9" fill="#9bc9b0"/>
<path transform="matrix(.1,0,0,-.1,0,792)" stroke-width="9.5" stroke-linecap="butt" stroke-miterlimit="10" stroke-linejoin="miter" fill="none" stroke="#000000" d="M3497.6 319.199 3471.9 381.301 3497.6 319.199 3400 83.6016 3164.5-13.8984 3102.4-39.6016 3164.5-13.8984 3725.3-246.301 3787.4-272 3725.3-246.301 4053.6-110.301 3956.3 124.602 3938.1 168.5 3956.3 124.602 3633.6-9Z"/>
<path transform="matrix(.1,0,0,-.1,0,792)" d="M5793.7 2367 5891 2132.1 5909.2 2088.2 5891 2132.1 6213.7 2265.7 6349.7 1937.5 6375.4 1875.4 6349.7 1937.5 6447.3 2173.1 6682.8 2270.6 6744.9 2296.3 6682.8 2270.6 6122 2503 6059.9 2528.7 6122 2503" fill="#9bc9b0"/>
<path transform="matrix(.1,0,0,-.1,0,792)" stroke-width="9.5" stroke-linecap="butt" stroke-miterlimit="10" stroke-linejoin="miter" fill="none" stroke="#000000" d="M5793.7 2367 5891 2132.1 5909.2 2088.2 5891 2132.1 6213.7 2265.7 6349.7 1937.5 6375.4 1875.4 6349.7 1937.5 6447.3 2173.1 6682.8 2270.6 6744.9 2296.3 6682.8 2270.6 6122 2503 6059.9 2528.7 6122 2503Z"/>
<path transform="matrix(.1,0,0,-.1,0,792)" d="M5793.7 3656.4 6122 3520.4 6184 3494.7 6122 3520.4 6682.8 3752.7 6744.9 3778.4 6682.8 3752.7 6447.3 3850.3 6349.7 4085.9 6324 4147.9 6349.7 4085.9 6213.7 3757.6 5891 3891.3 5847.1 3909.4 5891 3891.3" fill="#b0c4d9"/>
<path transform="matrix(.1,0,0,-.1,0,792)" stroke-width="9.5" stroke-linecap="butt" stroke-miterlimit="10" stroke-linejoin="miter" fill="none" stroke="#000000" d="M5793.7 3656.4 6122 3520.4 6184 3494.7 6122 3520.4 6682.8 3752.7 6744.9 3778.4 6682.8 3752.7 6447.3 3850.3 6349.7 4085.9 6324 4147.9 6349.7 4085.9 6213.7 3757.6 5891 3891.3 5847.1 3909.4 5891 3891.3Z"/>
<path transform="matrix(.1,0,0,-.1,0,792)" d="M5793.7 6133.6 5891 5898.7 5909.2 5854.8 5891 5898.7 6213.7 6032.4 6349.7 5704.1 6375.4 5642 6349.7 5704.1 6447.3 5939.7 6682.8 6037.3 6744.9 6063 6682.8 6037.3 6122 6269.6 6059.9 6295.3 6122 6269.6" fill="#9bc9b0"/>
<path transform="matrix(.1,0,0,-.1,0,792)" stroke-width="9.5" stroke-linecap="butt" stroke-miterlimit="10" stroke-linejoin="miter" fill="none" stroke="#000000" d="M5793.7 6133.6 5891 5898.7 5909.2 5854.8 5891 5898.7 6213.7 6032.4 6349.7 5704.1 6375.4 5642 6349.7 5704.1 6447.3 5939.7 6682.8 6037.3 6744.9 6063 6682.8 6037.3 6122 6269.6 6059.9 6295.3 6122 6269.6Z"/>
<path transform="matrix(.1,0,0,-.1,0,792)" d="M5793.7 7423 6122 7287 6184 7261.3 6122 7287 6682.8 7519.3 6744.9 7545.1 6682.8 7519.3 6447.3 7616.9 6349.7 7852.5 6324 7914.6 6349.7 7852.5 6213.7 7524.3 5891 7657.9 5847.1 7676.1 5891 7657.9" fill="#b0c4d9"/>
<path transform="matrix(.1,0,0,-.1,0,792)" stroke-width="9.5" stroke-linecap="butt" stroke-miterlimit="10" stroke-linejoin="miter" fill="none" stroke="#000000" d="M5793.7 7423 6122 7287 6184 7261.3 6122 7287 6682.8 7519.3 6744.9 7545.1 6682.8 7519.3 6447.3 7616.9 6349.7 7852.5 6324 7914.6 6349.7 7852.5 6213.7 7524.3 5891 7657.9 5847.1 7676.1 5891 7657.9Z"/>
<path transform="matrix(.1,0,0,-.1,0,792)" d="M153.301 7745.7 171.5 7701.8 153.301 7745.7 19.6016 8068.4 347.898 8204.3 410 8178.6 347.898 8204.3 112.301 8301.9 14.6992 8537.5 40.3984 8599.6 14.6992 8537.5-217.602 7976.6-243.301 8038.7-217.602 7976.6-81.6016 7648.4" fill="#9bc9b0"/>
<path transform="matrix(.1,0,0,-.1,0,792)" stroke-width="9.5" stroke-linecap="butt" stroke-miterlimit="10" stroke-linejoin="miter" fill="none" stroke="#000000" d="M153.301 7745.7 171.5 7701.8 153.301 7745.7 19.6016 8068.4 347.898 8204.3 410 8178.6 347.898 8204.3 112.301 8301.9 14.6992 8537.5 40.3984 8599.6 14.6992 8537.5-217.602 7976.6-243.301 8038.7-217.602 7976.6-81.6016 7648.4Z"/>
<path transform="matrix(.1,0,0,-.1,0,792)" d="M1157 335.898 1219.1 361.602 1157 335.898 870 217 751.102-70 725.398-7.89844 751.102-70 870-357 1157-475.898 1094.9-501.602 1157-475.898 1444-357 1562.9-70 1588.6-132 1562.9-70 1444 217" fill="#c28c24"/>
<path transform="matrix(.1,0,0,-.1,0,792)" stroke-width="9.5" stroke-linecap="butt" stroke-miterlimit="10" stroke-linejoin="miter" fill="none" stroke="#000000" d="M1157 335.898 1219.1 361.602 1157 335.898 870 217 751.102-70 725.398-7.89844 751.102-70 870-357 1157-475.898 1094.9-501.602 1157-475.898 1444-357 1562.9-70 1588.6-132 1562.9-70 1444 217Z"/>
<path transform="matrix(.1,0,0,-.1,0,792)" d="M4923.6 335.898 4985.7 361.602 4923.6 335.898 4636.6 217 4517.8-70 4492.1-7.89844 4517.8-70 4636.6-357 4923.6-475.898 4861.6-501.602 4923.6-475.898 5210.7-357 5329.5-70 5355.2-132 5329.5-70 5210.7 217" fill="#c28c24"/>
<path transform="matrix(.1,0,0,-.1,0,792)" stroke-width="9.5" stroke-linecap="butt" stroke-miterlimit="10" stroke-linejoin="miter" fill="none" stroke="#000000" d="M4923.6 335.898 4985.7 361.602 4923.6 335.898 4636.6 217 4517.8-70 4492.1-7.89844 4517.8-70 4636.6-357 4923.6-475.898 4861.6-501.602 4923.6-475.898 5210.7-357 5329.5-70 5355.2-132 5329.5-70 5210.7 217Z"/>
<path transform="matrix(.1,0,0,-.1,0,792)" d="M4279 258.301 4044.1 161 4025.9 204.898 4044.1 161 4177.7-161.699 3849.4-297.699 3787.4-272 3849.4-297.699 4085-395.301 4182.6-630.801 4156.9-692.898 4182.6-630.801 4414.9-70 4440.6-132 4414.9-70" fill="#9bc9b0"/>
<path transform="matrix(.1,0,0,-.1,0,792)" stroke-width="9.5" stroke-linecap="butt" stroke-miterlimit="10" stroke-linejoin="miter" fill="none" stroke="#000000" d="M4279 258.301 4044.1 161 4025.9 204.898 4044.1 161 4177.7-161.699 3849.4-297.699 3787.4-272 3849.4-297.699 4085-395.301 4182.6-630.801 4156.9-692.898 4182.6-630.801 4414.9-70 4440.6-132 4414.9-70Z"/>
<path transform="matrix(.1,0,0,-.1,0,792)" d="M5568.3 258.301 5432.4-70 5406.7-7.89844 5432.4-70 5664.7-630.801 5639-692.898 5664.7-630.801 5762.3-395.301 5997.9-297.699 6059.9-323.398 5997.9-297.699 5669.6-161.699 5803.2 161 5847.1 142.801 5803.2 161" fill="#b0c4d9"/>
<path transform="matrix(.1,0,0,-.1,0,792)" stroke-width="9.5" stroke-linecap="butt" stroke-miterlimit="10" stroke-linejoin="miter" fill="none" stroke="#000000" d="M5568.3 258.301 5432.4-70 5406.7-7.89844 5432.4-70 5664.7-630.801 5639-692.898 5664.7-630.801 5762.3-395.301 5997.9-297.699 6059.9-323.398 5997.9-297.699 5669.6-161.699 5803.2 161 5847.1 142.801 5803.2 161Z"/>
<path transform="matrix(.1,0,0,-.1,0,792)" d="M512.301 258.301 277.398 161 259.199 204.898 277.398 161 411.102-161.699 82.8008-297.699 20.6992-272 82.8008-297.699 318.398-395.301 416-630.801 390.301-692.898 416-630.801 648.301-70 674-132 648.301-70" fill="#9bc9b0"/>
<path transform="matrix(.1,0,0,-.1,0,792)" stroke-width="9.5" stroke-linecap="butt" stroke-miterlimit="10" stroke-linejoin="miter" fill="none" stroke="#000000" d="M512.301 258.301 277.398 161 259.199 204.898 277.398 161 411.102-161.699 82.8008-297.699 20.6992-272 82.8008-297.699 318.398-395.301 416-630.801 390.301-692.898 416-630.801 648.301-70 674-132 648.301-70Z"/>
<path transform="matrix(.1,0,0,-.1,0,792)" d="M1801.7 258.301 1665.7-70 1640-7.89844 1665.7-70 1898-630.801 1872.3-692.898 1898-630.801 1995.6-395.301 2231.2-297.699 2293.3-323.398 2231.2-297.699 1902.9-161.699 2036.6 161 2080.5 142.801 2036.6 161" fill="#b0c4d9"/>
<path transform="matrix(.1,0,0,-.1,0,792)" stroke-width="9.5" stroke-linecap="butt" stroke-miterlimit="10" stroke-linejoin="miter" fill="none" stroke="#000000" d="M1801.7 258.301 1665.7-70 1640-7.89844 1665.7-70 1898-630.801 1872.3-692.898 1898-630.801 1995.6-395.301 2231.2-297.699 2293.3-323.398 2231.2-297.699 1902.9-161.699 2036.6 161 2080.5 142.801 2036.6 161Z"/>
<path transform="matrix(.1,0,0,-.1,0,792)" d="M5927.4 7745.7 5883.5 7763.9 5927.4 7745.7 6162.3 7648.4 6298.3 7976.6 6324 7914.6 6298.3 7976.6 6065.9 8537.5 6091.6 8599.6 6065.9 8537.5 5968.4 8301.9 5732.8 8204.3 5670.7 8230 5732.8 8204.3 6061 8068.4" fill="#b0c4d9"/>
<path transform="matrix(.1,0,0,-.1,0,792)" stroke-width="9.5" stroke-linecap="butt" stroke-miterlimit="10" stroke-linejoin="miter" fill="none" stroke="#000000" d="M5927.4 7745.7 5883.5 7763.9 5927.4 7745.7 6162.3 7648.4 6298.3 7976.6 6324 7914.6 6298.3 7976.6 6065.9 8537.5 6091.6 8599.6 6065.9 8537.5 5968.4 8301.9 5732.8 8204.3 5670.7 8230 5732.8 8204.3 6061 8068.4Z"/>
<path transform="matrix(.1,0,0,-.1,0,792)" d="M189.602 124.602 171.5 168.5 189.602 124.602-133-9-269 319.199-294.699 381.301-269 319.199-366.602 83.6016-602.199-13.8984-664.301-39.6016-602.199-13.8984-41.3008-246.301 20.6992-272-41.3008-246.301 286.898-110.301" fill="#9bc9b0"/>
<path transform="matrix(.1,0,0,-.1,0,792)" stroke-width="9.5" stroke-linecap="butt" stroke-miterlimit="10" stroke-linejoin="miter" fill="none" stroke="#000000" d="M189.602 124.602 171.5 168.5 189.602 124.602-133-9-269 319.199-294.699 381.301-269 319.199-366.602 83.6016-602.199-13.8984-664.301-39.6016-602.199-13.8984-41.3008-246.301 20.6992-272-41.3008-246.301 286.898-110.301Z"/>
<path transform="matrix(.1,0,0,-.1,0,792)" d="M5891 124.602 5847.1 142.801 5891 124.602 5793.7-110.301 6122-246.301 6184-272 6122-246.301 6682.8-13.8984 6744.9 11.8008 6682.8-13.8984 6447.3 83.6016 6349.7 319.199 6324 381.301 6349.7 319.199 6213.7-9" fill="#b0c4d9"/>
<path transform="matrix(.1,0,0,-.1,0,792)" stroke-width="9.5" stroke-linecap="butt" stroke-miterlimit="10" stroke-linejoin="miter" fill="none" stroke="#000000" d="M5891 124.602 5847.1 142.801 5891 124.602 5793.7-110.301 6122-246.301 6184-272 6122-246.301 6682.8-13.8984 6744.9 11.8008 6682.8-13.8984 6447.3 83.6016 6349.7 319.199 6324 381.301 6349.7 319.199 6213.7-9Z"/>
<path transform="matrix(.1,0,0,-.1,0,792)" d="M6117.4 1128.4 6091.6 1066.3 6117.4 1128.4 6349.7 567.5 6375.4 505.398 6349.7 567.5 6447.3 803.102 6682.8 900.699 6744.9 926.398 6682.8 900.699 6133.1 1128.4 6682.8 1356 6744.9 1381.8 6682.8 1356 6447.3 1453.6 6349.7 1689.2 6324 1751.3 6349.7 1689.2" fill="#f8c499"/>
<path transform="matrix(.1,0,0,-.1,0,792)" stroke-width="9.5" stroke-linecap="butt" stroke-miterlimit="10" stroke-linejoin="miter" fill="none" stroke="#000000" d="M6117.4 1128.4 6091.6 1066.3 6117.4 1128.4 6349.7 567.5 6375.4 505.398 6349.7 567.5 6447.3 803.102 6682.8 900.699 6744.9 926.398 6682.8 900.699 6133.1 1128.4 6682.8 1356 6744.9 1381.8 6682.8 1356 6447.3 1453.6 6349.7 1689.2 6324 1751.3 6349.7 1689.2Z"/>
<path transform="matrix(.1,0,0,-.1,0,792)" d="M6117.4 4895 6091.6 4832.9 6117.4 4895 6349.7 4334.1 6375.4 4272.1 6349.7 4334.1 6447.3 4569.7 6682.8 4667.3 6744.9 4693 6682.8 4667.3 6133.1 4895 6682.8 5122.7 6744.9 5148.4 6682.8 5122.7 6447.3 5220.3 6349.7 5455.9 6324 5517.9 6349.7 5455.9" fill="#f8c499"/>
<path transform="matrix(.1,0,0,-.1,0,792)" stroke-width="9.5" stroke-linecap="butt" stroke-miterlimit="10" stroke-linejoin="miter" fill="none" stroke="#000000" d="M6117.4 4895 6091.6 4832.9 6117.4 4895 6349.7 4334.1 6375.4 4272.1 6349.7 4334.1 6447.3 4569.7 6682.8 4667.3 6744.9 4693 6682.8 4667.3 6133.1 4895 6682.8 5122.7 6744.9 5148.4 6682.8 5122.7 6447.3 5220.3 6349.7 5455.9 6324 5517.9 6349.7 5455.9Z"/>
</svg>
