<svg xmlns="http://www.w3.org/2000/svg" xmlns:xlink="http://www.w3.org/1999/xlink" xmlns:inkscape="http://www.inkscape.org/namespaces/inkscape" version="1.1" width="612" height="792" viewBox="0 0 612 792">
<path transform="matrix(.1,0,0,-.1,0,792)" d="M2975 3164.7 3242.9 3811.5 3889.6 4079.3 3242.9 4347.2 2975 4993.9 2707.1 4347.2 2060.4 4079.3 2707.1 3811.5" fill="#6ed4fa"/>
<path transform="matrix(.1,0,0,-.1,0,792)" stroke-width="15" stroke-linecap="butt" stroke-miterlimit="10" stroke-linejoin="miter" fill="none" stroke="#000000" d="M2975 3164.7 3242.9 3811.5 3889.6 4079.3 3242.9 4347.2 2975 4993.9 2707.1 4347.2 2060.4 4079.3 2707.1 3811.5Z"/>
<path transform="matrix(.1,0,0,-.1,0,792)" d="M3242.9 4347.2 3889.6 4079.3H4939.6L5586.3 4347.2 5854.2 4993.9V6043.9L5586.3 6690.7 4939.6 6958.5H3889.6L3242.9 6690.7 2975 6043.9V4993.9" fill="#176b14"/>
<path transform="matrix(.1,0,0,-.1,0,792)" stroke-width="15" stroke-linecap="butt" stroke-miterlimit="10" stroke-linejoin="miter" fill="none" stroke="#000000" d="M3242.9 4347.2 3889.6 4079.3H4939.6L5586.3 4347.2 5854.2 4993.9V6043.9L5586.3 6690.7 4939.6 6958.5H3889.6L3242.9 6690.7 2975 6043.9V4993.9Z"/>
<path transform="matrix(.1,0,0,-.1,0,792)" d="M2707.1 4347.2 2975 4993.9V6043.9L2707.1 6690.7 2060.4 6958.5H1010.4L363.699 6690.7 95.8008 6043.9V4993.9L363.699 4347.2 1010.4 4079.3H2060.4" fill="#4abf33"/>
<path transform="matrix(.1,0,0,-.1,0,792)" stroke-width="15" stroke-linecap="butt" stroke-miterlimit="10" stroke-linejoin="miter" fill="none" stroke="#000000" d="M2707.1 4347.2 2975 4993.9V6043.9L2707.1 6690.7 2060.4 6958.5H1010.4L363.699 6690.7 95.8008 6043.9V4993.9L363.699 4347.2 1010.4 4079.3H2060.4Z"/>
<path transform="matrix(.1,0,0,-.1,0,792)" d="M2707.1 3811.5 2060.4 4079.3H1010.4L363.699 3811.5 95.8008 3164.7V2114.7L363.699 1468 1010.4 1200.2H2060.4L2707.1 1468 2975 2114.7V3164.7" fill="#176b14"/>
<path transform="matrix(.1,0,0,-.1,0,792)" stroke-width="15" stroke-linecap="butt" stroke-miterlimit="10" stroke-linejoin="miter" fill="none" stroke="#000000" d="M2707.1 3811.5 2060.4 4079.3H1010.4L363.699 3811.5 95.8008 3164.7V2114.7L363.699 1468 1010.4 1200.2H2060.4L2707.1 1468 2975 2114.7V3164.7Z"/>
<path transform="matrix(.1,0,0,-.1,0,792)" d="M3242.9 3811.5 2975 3164.7V2114.7L3242.9 1468 3889.6 1200.2H4939.6L5586.3 1468 5854.2 2114.7V3164.7L5586.3 3811.5 4939.6 4079.3H3889.6" fill="#4abf33"/>
<path transform="matrix(.1,0,0,-.1,0,792)" stroke-width="15" stroke-linecap="butt" stroke-miterlimit="10" stroke-linejoin="miter" fill="none" stroke="#000000" d="M3242.9 3811.5 2975 3164.7V2114.7L3242.9 1468 3889.6 1200.2H4939.6L5586.3 1468 5854.2 2114.7V3164.7L5586.3 3811.5 4939.6 4079.3H3889.6Z"/>
<path transform="matrix(.1,0,0,-.1,0,792)" d="M2975 6043.9 3242.9 6690.7 3889.6 6958.5 3242.9 7226.4 2975 7873.1 2707.1 7226.4 2060.4 6958.5 2707.1 6690.7" fill="#6ed4fa"/>
<path transform="matrix(.1,0,0,-.1,0,792)" stroke-width="15" stroke-linecap="butt" stroke-miterlimit="10" stroke-linejoin="miter" fill="none" stroke="#000000" d="M2975 6043.9 3242.9 6690.7 3889.6 6958.5 3242.9 7226.4 2975 7873.1 2707.1 7226.4 2060.4 6958.5 2707.1 6690.7Z"/>
<path transform="matrix(.1,0,0,-.1,0,792)" d="M2975 2114.7 2707.1 1468 2060.4 1200.2 2707.1 932.301 2975 285.602 3242.9 932.301 3889.6 1200.2 3242.9 1468" fill="#6ed4fa"/>
<path transform="matrix(.1,0,0,-.1,0,792)" stroke-width="15" stroke-linecap="butt" stroke-miterlimit="10" stroke-linejoin="miter" fill="none" stroke="#000000" d="M2975 2114.7 2707.1 1468 2060.4 1200.2 2707.1 932.301 2975 285.602 3242.9 932.301 3889.6 1200.2 3242.9 1468Z"/>
<path transform="matrix(.1,0,0,-.1,0,792)" d="M4939.6 4079.3 5586.3 3811.5 5854.2 3164.7 6122.1 3811.5 6768.8 4079.3 6122.1 4347.2 5854.2 4993.9 5586.3 4347.2" fill="#6ed4fa"/>
<path transform="matrix(.1,0,0,-.1,0,792)" stroke-width="15" stroke-linecap="butt" stroke-miterlimit="10" stroke-linejoin="miter" fill="none" stroke="#000000" d="M4939.6 4079.3 5586.3 3811.5 5854.2 3164.7 6122.1 3811.5 6768.8 4079.3 6122.1 4347.2 5854.2 4993.9 5586.3 4347.2Z"/>
<path transform="matrix(.1,0,0,-.1,0,792)" d="M1010.4 4079.3 363.699 4347.2 95.8008 4993.9-172.102 4347.2-818.801 4079.3-172.102 3811.5 95.8008 3164.7 363.699 3811.5" fill="#6ed4fa"/>
<path transform="matrix(.1,0,0,-.1,0,792)" stroke-width="15" stroke-linecap="butt" stroke-miterlimit="10" stroke-linejoin="miter" fill="none" stroke="#000000" d="M1010.4 4079.3 363.699 4347.2 95.8008 4993.9-172.102 4347.2-818.801 4079.3-172.102 3811.5 95.8008 3164.7 363.699 3811.5Z"/>
<path transform="matrix(.1,0,0,-.1,0,792)" d="M4939.6 6958.5 5586.3 7226.4 5854.2 7873.1V8923.1L5586.3 9569.8 4939.6 9837.7H3889.6L3242.9 9569.8 2975 8923.1V7873.1L3242.9 7226.4 3889.6 6958.5" fill="#4abf33"/>
<path transform="matrix(.1,0,0,-.1,0,792)" stroke-width="15" stroke-linecap="butt" stroke-miterlimit="10" stroke-linejoin="miter" fill="none" stroke="#000000" d="M4939.6 6958.5 5586.3 7226.4 5854.2 7873.1V8923.1L5586.3 9569.8 4939.6 9837.7H3889.6L3242.9 9569.8 2975 8923.1V7873.1L3242.9 7226.4 3889.6 6958.5Z"/>
<path transform="matrix(.1,0,0,-.1,0,792)" d="M4939.6 6958.5 5586.3 6690.7 5854.2 6043.9 6122.1 6690.7 6768.8 6958.5 6122.1 7226.4 5854.2 7873.1 5586.3 7226.4" fill="#6ed4fa"/>
<path transform="matrix(.1,0,0,-.1,0,792)" stroke-width="15" stroke-linecap="butt" stroke-miterlimit="10" stroke-linejoin="miter" fill="none" stroke="#000000" d="M4939.6 6958.5 5586.3 6690.7 5854.2 6043.9 6122.1 6690.7 6768.8 6958.5 6122.1 7226.4 5854.2 7873.1 5586.3 7226.4Z"/>
<path transform="matrix(.1,0,0,-.1,0,792)" d="M2060.4 6958.5 2707.1 7226.4 2975 7873.1V8923.1L2707.1 9569.8 2060.4 9837.7H1010.4L363.699 9569.8 95.8008 8923.1V7873.1L363.699 7226.4 1010.4 6958.5" fill="#176b14"/>
<path transform="matrix(.1,0,0,-.1,0,792)" stroke-width="15" stroke-linecap="butt" stroke-miterlimit="10" stroke-linejoin="miter" fill="none" stroke="#000000" d="M2060.4 6958.5 2707.1 7226.4 2975 7873.1V8923.1L2707.1 9569.8 2060.4 9837.7H1010.4L363.699 9569.8 95.8008 8923.1V7873.1L363.699 7226.4 1010.4 6958.5Z"/>
<path transform="matrix(.1,0,0,-.1,0,792)" d="M1010.4 6958.5 363.699 7226.4 95.8008 7873.1-172.102 7226.4-818.801 6958.5-172.102 6690.7 95.8008 6043.9 363.699 6690.7" fill="#6ed4fa"/>
<path transform="matrix(.1,0,0,-.1,0,792)" stroke-width="15" stroke-linecap="butt" stroke-miterlimit="10" stroke-linejoin="miter" fill="none" stroke="#000000" d="M1010.4 6958.5 363.699 7226.4 95.8008 7873.1-172.102 7226.4-818.801 6958.5-172.102 6690.7 95.8008 6043.9 363.699 6690.7Z"/>
<path transform="matrix(.1,0,0,-.1,0,792)" d="M1010.4 1200.2 363.699 932.301 95.8008 285.602V-764.398L363.699-1411.2 1010.4-1679H2060.4L2707.1-1411.2 2975-764.398V285.602L2707.1 932.301 2060.4 1200.2" fill="#4abf33"/>
<path transform="matrix(.1,0,0,-.1,0,792)" stroke-width="15" stroke-linecap="butt" stroke-miterlimit="10" stroke-linejoin="miter" fill="none" stroke="#000000" d="M1010.4 1200.2 363.699 932.301 95.8008 285.602V-764.398L363.699-1411.2 1010.4-1679H2060.4L2707.1-1411.2 2975-764.398V285.602L2707.1 932.301 2060.4 1200.2Z"/>
<path transform="matrix(.1,0,0,-.1,0,792)" d="M1010.4 1200.2 363.699 1468 95.8008 2114.7-172.102 1468-818.801 1200.2-172.102 932.301 95.8008 285.602 363.699 932.301" fill="#6ed4fa"/>
<path transform="matrix(.1,0,0,-.1,0,792)" stroke-width="15" stroke-linecap="butt" stroke-miterlimit="10" stroke-linejoin="miter" fill="none" stroke="#000000" d="M1010.4 1200.2 363.699 1468 95.8008 2114.7-172.102 1468-818.801 1200.2-172.102 932.301 95.8008 285.602 363.699 932.301Z"/>
<path transform="matrix(.1,0,0,-.1,0,792)" d="M3889.6 1200.2 3242.9 932.301 2975 285.602V-764.398L3242.9-1411.2 3889.6-1679H4939.6L5586.3-1411.2 5854.2-764.398V285.602L5586.3 932.301 4939.6 1200.2" fill="#176b14"/>
<path transform="matrix(.1,0,0,-.1,0,792)" stroke-width="15" stroke-linecap="butt" stroke-miterlimit="10" stroke-linejoin="miter" fill="none" stroke="#000000" d="M3889.6 1200.2 3242.9 932.301 2975 285.602V-764.398L3242.9-1411.2 3889.6-1679H4939.6L5586.3-1411.2 5854.2-764.398V285.602L5586.3 932.301 4939.6 1200.2Z"/>
<path transform="matrix(.1,0,0,-.1,0,792)" d="M4939.6 1200.2 5586.3 932.301 5854.2 285.602 6122.1 932.301 6768.8 1200.2 6122.1 1468 5854.2 2114.7 5586.3 1468" fill="#6ed4fa"/>
<path transform="matrix(.1,0,0,-.1,0,792)" stroke-width="15" stroke-linecap="butt" stroke-miterlimit="10" stroke-linejoin="miter" fill="none" stroke="#000000" d="M4939.6 1200.2 5586.3 932.301 5854.2 285.602 6122.1 932.301 6768.8 1200.2 6122.1 1468 5854.2 2114.7 5586.3 1468Z"/>
<path transform="matrix(.1,0,0,-.1,0,792)" d="M5854.2 285.602V-764.398L6122.1-1411.2 6768.8-1679H7818.8L8465.5-1411.2 8733.4-764.398V285.602L8465.5 932.301 7818.8 1200.2H6768.8L6122.1 932.301" fill="#4abf33"/>
<path transform="matrix(.1,0,0,-.1,0,792)" stroke-width="15" stroke-linecap="butt" stroke-miterlimit="10" stroke-linejoin="miter" fill="none" stroke="#000000" d="M5854.2 285.602V-764.398L6122.1-1411.2 6768.8-1679H7818.8L8465.5-1411.2 8733.4-764.398V285.602L8465.5 932.301 7818.8 1200.2H6768.8L6122.1 932.301Z"/>
<path transform="matrix(.1,0,0,-.1,0,792)" d="M5854.2 2114.7 6122.1 1468 6768.8 1200.2H7818.8L8465.5 1468 8733.4 2114.7V3164.7L8465.5 3811.5 7818.8 4079.3H6768.8L6122.1 3811.5 5854.2 3164.7" fill="#176b14"/>
<path transform="matrix(.1,0,0,-.1,0,792)" stroke-width="15" stroke-linecap="butt" stroke-miterlimit="10" stroke-linejoin="miter" fill="none" stroke="#000000" d="M5854.2 2114.7 6122.1 1468 6768.8 1200.2H7818.8L8465.5 1468 8733.4 2114.7V3164.7L8465.5 3811.5 7818.8 4079.3H6768.8L6122.1 3811.5 5854.2 3164.7Z"/>
<path transform="matrix(.1,0,0,-.1,0,792)" d="M5854.2 4993.9 6122.1 4347.2 6768.8 4079.3H7818.8L8465.5 4347.2 8733.4 4993.9V6043.9L8465.5 6690.7 7818.8 6958.5H6768.8L6122.1 6690.7 5854.2 6043.9" fill="#4abf33"/>
<path transform="matrix(.1,0,0,-.1,0,792)" stroke-width="15" stroke-linecap="butt" stroke-miterlimit="10" stroke-linejoin="miter" fill="none" stroke="#000000" d="M5854.2 4993.9 6122.1 4347.2 6768.8 4079.3H7818.8L8465.5 4347.2 8733.4 4993.9V6043.9L8465.5 6690.7 7818.8 6958.5H6768.8L6122.1 6690.7 5854.2 6043.9Z"/>
<path transform="matrix(.1,0,0,-.1,0,792)" d="M5854.2 7873.1 6122.1 7226.4 6768.8 6958.5H7818.8L8465.5 7226.4 8733.4 7873.1V8923.1L8465.5 9569.8 7818.8 9837.7H6768.8L6122.1 9569.8 5854.2 8923.1" fill="#176b14"/>
<path transform="matrix(.1,0,0,-.1,0,792)" stroke-width="15" stroke-linecap="butt" stroke-miterlimit="10" stroke-linejoin="miter" fill="none" stroke="#000000" d="M5854.2 7873.1 6122.1 7226.4 6768.8 6958.5H7818.8L8465.5 7226.4 8733.4 7873.1V8923.1L8465.5 9569.8 7818.8 9837.7H6768.8L6122.1 9569.8 5854.2 8923.1Z"/>
<path transform="matrix(.1,0,0,-.1,0,792)" d="M95.8008 7873.1V8923.1L-172.102 9569.8-818.801 9837.7H-1868.8L-2515.5 9569.8-2783.4 8923.1V7873.1L-2515.5 7226.4-1868.8 6958.5H-818.801L-172.102 7226.4" fill="#4abf33"/>
<path transform="matrix(.1,0,0,-.1,0,792)" stroke-width="15" stroke-linecap="butt" stroke-miterlimit="10" stroke-linejoin="miter" fill="none" stroke="#000000" d="M95.8008 7873.1V8923.1L-172.102 9569.8-818.801 9837.7H-1868.8L-2515.5 9569.8-2783.4 8923.1V7873.1L-2515.5 7226.4-1868.8 6958.5H-818.801L-172.102 7226.4Z"/>
<path transform="matrix(.1,0,0,-.1,0,792)" d="M95.8008 6043.9-172.102 6690.7-818.801 6958.5H-1868.8L-2515.5 6690.7-2783.4 6043.9V4993.9L-2515.5 4347.2-1868.8 4079.3H-818.801L-172.102 4347.2 95.8008 4993.9" fill="#176b14"/>
<path transform="matrix(.1,0,0,-.1,0,792)" stroke-width="15" stroke-linecap="butt" stroke-miterlimit="10" stroke-linejoin="miter" fill="none" stroke="#000000" d="M95.8008 6043.9-172.102 6690.7-818.801 6958.5H-1868.8L-2515.5 6690.7-2783.4 6043.9V4993.9L-2515.5 4347.2-1868.8 4079.3H-818.801L-172.102 4347.2 95.8008 4993.9Z"/>
<path transform="matrix(.1,0,0,-.1,0,792)" d="M95.8008 3164.7-172.102 3811.5-818.801 4079.3H-1868.8L-2515.5 3811.5-2783.4 3164.7V2114.7L-2515.5 1468-1868.8 1200.2H-818.801L-172.102 1468 95.8008 2114.7" fill="#4abf33"/>
<path transform="matrix(.1,0,0,-.1,0,792)" stroke-width="15" stroke-linecap="butt" stroke-miterlimit="10" stroke-linejoin="miter" fill="none" stroke="#000000" d="M95.8008 3164.7-172.102 3811.5-818.801 4079.3H-1868.8L-2515.5 3811.5-2783.4 3164.7V2114.7L-2515.5 1468-1868.8 1200.2H-818.801L-172.102 1468 95.8008 2114.7Z"/>
<path transform="matrix(.1,0,0,-.1,0,792)" d="M95.8008 285.602-172.102 932.301-818.801 1200.2H-1868.8L-2515.5 932.301-2783.4 285.602V-764.398L-2515.5-1411.2-1868.8-1679H-818.801L-172.102-1411.2 95.8008-764.398" fill="#176b14"/>
<path transform="matrix(.1,0,0,-.1,0,792)" stroke-width="15" stroke-linecap="butt" stroke-miterlimit="10" stroke-linejoin="miter" fill="none" stroke="#000000" d="M95.8008 285.602-172.102 932.301-818.801 1200.2H-1868.8L-2515.5 932.301-2783.4 285.602V-764.398L-2515.5-1411.2-1868.8-1679H-818.801L-172.102-1411.2 95.8008-764.398Z"/>
</svg>
