<svg xmlns="http://www.w3.org/2000/svg" xmlns:xlink="http://www.w3.org/1999/xlink" xmlns:inkscape="http://www.inkscape.org/namespaces/inkscape" version="1.1" width="612" height="792" viewBox="0 0 612 792">
<path transform="matrix(.1,0,0,-.1,0,792)" d="M3352.9 3555.5V3955.5L3699.3 4155.5 3352.9 4355.5V4755.5L3006.5 4555.5 2660.1 4755.5V4355.5L2313.7 4155.5 2660.1 3955.5V3555.5L3006.5 3755.5" fill="#f8e6bd"/>
<path transform="matrix(.1,0,0,-.1,0,792)" stroke-width="100" stroke-linecap="butt" stroke-linejoin="bevel" fill="none" stroke="#000000" d="M3352.9 3555.5V3955.5L3699.3 4155.5 3352.9 4355.5V4755.5L3006.5 4555.5 2660.1 4755.5V4355.5L2313.7 4155.5 2660.1 3955.5V3555.5L3006.5 3755.5Z"/>
<path transform="matrix(.1,0,0,-.1,0,792)" d="M3006.5 4555.5 3352.9 4755.5V5155.5L3006.5 5355.5 2660.1 5155.5V4755.5" fill="#ebb254"/>
<path transform="matrix(.1,0,0,-.1,0,792)" stroke-width="100" stroke-linecap="butt" stroke-linejoin="bevel" fill="none" stroke="#000000" d="M3006.5 4555.5 3352.9 4755.5V5155.5L3006.5 5355.5 2660.1 5155.5V4755.5Z"/>
<path transform="matrix(.1,0,0,-.1,0,792)" d="M2660.1 4355.5V5155.5L2113.7 4501.9 2313.7 4155.5Z" fill="#ebb254"/>
<path transform="matrix(.1,0,0,-.1,0,792)" stroke-width="100" stroke-linecap="butt" stroke-linejoin="bevel" fill="none" stroke="#000000" d="M2660.1 4355.5V5155.5L2113.7 4501.9 2313.7 4155.5Z"/>
<path transform="matrix(.1,0,0,-.1,0,792)" d="M2660.1 3955.5 2313.7 4155.5 2113.7 3809 2660.1 3155.5V3555.5" fill="#ebb254"/>
<path transform="matrix(.1,0,0,-.1,0,792)" stroke-width="100" stroke-linecap="butt" stroke-linejoin="bevel" fill="none" stroke="#000000" d="M2660.1 3955.5 2313.7 4155.5 2113.7 3809 2660.1 3155.5V3555.5Z"/>
<path transform="matrix(.1,0,0,-.1,0,792)" d="M3006.5 3755.5 2660.1 3555.5V3155.5L3006.5 2955.5 3352.9 3155.5V3555.5" fill="#ebb254"/>
<path transform="matrix(.1,0,0,-.1,0,792)" stroke-width="100" stroke-linecap="butt" stroke-linejoin="bevel" fill="none" stroke="#000000" d="M3006.5 3755.5 2660.1 3555.5V3155.5L3006.5 2955.5 3352.9 3155.5V3555.5Z"/>
<path transform="matrix(.1,0,0,-.1,0,792)" d="M3352.9 3955.5V3155.5L3899.3 3809 3699.3 4155.5Z" fill="#ebb254"/>
<path transform="matrix(.1,0,0,-.1,0,792)" stroke-width="100" stroke-linecap="butt" stroke-linejoin="bevel" fill="none" stroke="#000000" d="M3352.9 3955.5V3155.5L3899.3 3809 3699.3 4155.5Z"/>
<path transform="matrix(.1,0,0,-.1,0,792)" d="M3352.9 4355.5 3699.3 4155.5 3899.3 4501.9 3352.9 5155.5V4755.5" fill="#ebb254"/>
<path transform="matrix(.1,0,0,-.1,0,792)" stroke-width="100" stroke-linecap="butt" stroke-linejoin="bevel" fill="none" stroke="#000000" d="M3352.9 4355.5 3699.3 4155.5 3899.3 4501.9 3352.9 5155.5V4755.5Z"/>
<path transform="matrix(.1,0,0,-.1,0,792)" d="M2313.7 4155.5 2113.7 4501.9H1713.7L1513.7 4155.5 1713.7 3809H2113.7" fill="#ebb254"/>
<path transform="matrix(.1,0,0,-.1,0,792)" stroke-width="100" stroke-linecap="butt" stroke-linejoin="bevel" fill="none" stroke="#000000" d="M2313.7 4155.5 2113.7 4501.9H1713.7L1513.7 4155.5 1713.7 3809H2113.7Z"/>
<path transform="matrix(.1,0,0,-.1,0,792)" d="M2660.1 5155.5 2006.5 5701.9 1460.1 5048.3 2113.7 4501.9Z" fill="#ebb254"/>
<path transform="matrix(.1,0,0,-.1,0,792)" stroke-width="100" stroke-linecap="butt" stroke-linejoin="bevel" fill="none" stroke="#000000" d="M2660.1 5155.5 2006.5 5701.9 1460.1 5048.3 2113.7 4501.9Z"/>
<path transform="matrix(.1,0,0,-.1,0,792)" d="M2660.1 5155.5 3006.5 5355.5 2806.5 5701.9H2006.5Z" fill="#ebb254"/>
<path transform="matrix(.1,0,0,-.1,0,792)" stroke-width="100" stroke-linecap="butt" stroke-linejoin="bevel" fill="none" stroke="#000000" d="M2660.1 5155.5 3006.5 5355.5 2806.5 5701.9H2006.5Z"/>
<path transform="matrix(.1,0,0,-.1,0,792)" d="M3352.9 5155.5 4006.5 5701.9H3206.5L3006.5 5355.5Z" fill="#ebb254"/>
<path transform="matrix(.1,0,0,-.1,0,792)" stroke-width="100" stroke-linecap="butt" stroke-linejoin="bevel" fill="none" stroke="#000000" d="M3352.9 5155.5 4006.5 5701.9H3206.5L3006.5 5355.5Z"/>
<path transform="matrix(.1,0,0,-.1,0,792)" d="M3352.9 5155.5 3899.3 4501.9 4552.9 5048.3 4006.5 5701.9Z" fill="#ebb254"/>
<path transform="matrix(.1,0,0,-.1,0,792)" stroke-width="100" stroke-linecap="butt" stroke-linejoin="bevel" fill="none" stroke="#000000" d="M3352.9 5155.5 3899.3 4501.9 4552.9 5048.3 4006.5 5701.9Z"/>
<path transform="matrix(.1,0,0,-.1,0,792)" d="M3699.3 4155.5 3899.3 3809H4299.3L4499.3 4155.5 4299.3 4501.9H3899.3" fill="#ebb254"/>
<path transform="matrix(.1,0,0,-.1,0,792)" stroke-width="100" stroke-linecap="butt" stroke-linejoin="bevel" fill="none" stroke="#000000" d="M3699.3 4155.5 3899.3 3809H4299.3L4499.3 4155.5 4299.3 4501.9H3899.3Z"/>
<path transform="matrix(.1,0,0,-.1,0,792)" d="M3352.9 3155.5 4006.5 2609 4552.9 3262.6 3899.3 3809Z" fill="#ebb254"/>
<path transform="matrix(.1,0,0,-.1,0,792)" stroke-width="100" stroke-linecap="butt" stroke-linejoin="bevel" fill="none" stroke="#000000" d="M3352.9 3155.5 4006.5 2609 4552.9 3262.6 3899.3 3809Z"/>
<path transform="matrix(.1,0,0,-.1,0,792)" d="M3352.9 3155.5 3006.5 2955.5 3206.5 2609H4006.5Z" fill="#ebb254"/>
<path transform="matrix(.1,0,0,-.1,0,792)" stroke-width="100" stroke-linecap="butt" stroke-linejoin="bevel" fill="none" stroke="#000000" d="M3352.9 3155.5 3006.5 2955.5 3206.5 2609H4006.5Z"/>
<path transform="matrix(.1,0,0,-.1,0,792)" d="M2660.1 3155.5 2006.5 2609H2806.5L3006.5 2955.5Z" fill="#ebb254"/>
<path transform="matrix(.1,0,0,-.1,0,792)" stroke-width="100" stroke-linecap="butt" stroke-linejoin="bevel" fill="none" stroke="#000000" d="M2660.1 3155.5 2006.5 2609H2806.5L3006.5 2955.5Z"/>
<path transform="matrix(.1,0,0,-.1,0,792)" d="M2660.1 3155.5 2113.7 3809 1460.1 3262.6 2006.5 2609Z" fill="#ebb254"/>
<path transform="matrix(.1,0,0,-.1,0,792)" stroke-width="100" stroke-linecap="butt" stroke-linejoin="bevel" fill="none" stroke="#000000" d="M2660.1 3155.5 2113.7 3809 1460.1 3262.6 2006.5 2609Z"/>
<path transform="matrix(.1,0,0,-.1,0,792)" d="M3006.5 5355.5 3206.5 5701.9H3606.5L3406.5 6048.3 3606.5 6394.7H3206.5L3006.5 6741.1 2806.5 6394.7H2406.5L2606.5 6048.3 2406.5 5701.9H2806.5" fill="#f8e6bd"/>
<path transform="matrix(.1,0,0,-.1,0,792)" stroke-width="100" stroke-linecap="butt" stroke-linejoin="bevel" fill="none" stroke="#000000" d="M3006.5 5355.5 3206.5 5701.9H3606.5L3406.5 6048.3 3606.5 6394.7H3206.5L3006.5 6741.1 2806.5 6394.7H2406.5L2606.5 6048.3 2406.5 5701.9H2806.5Z"/>
<path transform="matrix(.1,0,0,-.1,0,792)" d="M2113.7 4501.9 1460.1 5048.3 1113.7 4848.3 1313.7 4501.9H1713.7" fill="#ebb254"/>
<path transform="matrix(.1,0,0,-.1,0,792)" stroke-width="100" stroke-linecap="butt" stroke-linejoin="bevel" fill="none" stroke="#000000" d="M2113.7 4501.9 1460.1 5048.3 1113.7 4848.3 1313.7 4501.9H1713.7Z"/>
<path transform="matrix(.1,0,0,-.1,0,792)" d="M2113.7 3809H1313.7L1113.7 3462.6 1460.1 3262.6Z" fill="#ebb254"/>
<path transform="matrix(.1,0,0,-.1,0,792)" stroke-width="100" stroke-linecap="butt" stroke-linejoin="bevel" fill="none" stroke="#000000" d="M2113.7 3809H1313.7L1113.7 3462.6 1460.1 3262.6Z"/>
<path transform="matrix(.1,0,0,-.1,0,792)" d="M3006.5 2955.5 2806.5 2609H2406.5L2606.5 2262.6 2406.5 1916.2H2806.5L3006.5 1569.8 3206.5 1916.2H3606.5L3406.5 2262.6 3606.5 2609H3206.5" fill="#f8e6bd"/>
<path transform="matrix(.1,0,0,-.1,0,792)" stroke-width="100" stroke-linecap="butt" stroke-linejoin="bevel" fill="none" stroke="#000000" d="M3006.5 2955.5 2806.5 2609H2406.5L2606.5 2262.6 2406.5 1916.2H2806.5L3006.5 1569.8 3206.5 1916.2H3606.5L3406.5 2262.6 3606.5 2609H3206.5Z"/>
<path transform="matrix(.1,0,0,-.1,0,792)" d="M3899.3 3809 4552.9 3262.6 4899.3 3462.6 4699.3 3809H4299.3" fill="#ebb254"/>
<path transform="matrix(.1,0,0,-.1,0,792)" stroke-width="100" stroke-linecap="butt" stroke-linejoin="bevel" fill="none" stroke="#000000" d="M3899.3 3809 4552.9 3262.6 4899.3 3462.6 4699.3 3809H4299.3Z"/>
<path transform="matrix(.1,0,0,-.1,0,792)" d="M3899.3 4501.9H4699.3L4899.3 4848.3 4552.9 5048.3Z" fill="#ebb254"/>
<path transform="matrix(.1,0,0,-.1,0,792)" stroke-width="100" stroke-linecap="butt" stroke-linejoin="bevel" fill="none" stroke="#000000" d="M3899.3 4501.9H4699.3L4899.3 4848.3 4552.9 5048.3Z"/>
<path transform="matrix(.1,0,0,-.1,0,792)" d="M4006.5 5701.9 4206.5 6048.3 4006.5 6394.7H3606.5L3406.5 6048.3 3606.5 5701.9" fill="#ebb254"/>
<path transform="matrix(.1,0,0,-.1,0,792)" stroke-width="100" stroke-linecap="butt" stroke-linejoin="bevel" fill="none" stroke="#000000" d="M4006.5 5701.9 4206.5 6048.3 4006.5 6394.7H3606.5L3406.5 6048.3 3606.5 5701.9Z"/>
<path transform="matrix(.1,0,0,-.1,0,792)" d="M4006.5 5701.9 4552.9 5048.3V5848.3L4206.5 6048.3Z" fill="#ebb254"/>
<path transform="matrix(.1,0,0,-.1,0,792)" stroke-width="100" stroke-linecap="butt" stroke-linejoin="bevel" fill="none" stroke="#000000" d="M4006.5 5701.9 4552.9 5048.3V5848.3L4206.5 6048.3Z"/>
<path transform="matrix(.1,0,0,-.1,0,792)" d="M2406.5 5701.9 2606.5 6048.3 2406.5 6394.7H2006.5L1806.5 6048.3 2006.5 5701.9" fill="#ebb254"/>
<path transform="matrix(.1,0,0,-.1,0,792)" stroke-width="100" stroke-linecap="butt" stroke-linejoin="bevel" fill="none" stroke="#000000" d="M2406.5 5701.9 2606.5 6048.3 2406.5 6394.7H2006.5L1806.5 6048.3 2006.5 5701.9Z"/>
<path transform="matrix(.1,0,0,-.1,0,792)" d="M2006.5 5701.9 1806.5 6048.3 1460.1 5848.3V5048.3Z" fill="#ebb254"/>
<path transform="matrix(.1,0,0,-.1,0,792)" stroke-width="100" stroke-linecap="butt" stroke-linejoin="bevel" fill="none" stroke="#000000" d="M2006.5 5701.9 1806.5 6048.3 1460.1 5848.3V5048.3Z"/>
<path transform="matrix(.1,0,0,-.1,0,792)" d="M2006.5 2609 1806.5 2262.6 2006.5 1916.2H2406.5L2606.5 2262.6 2406.5 2609" fill="#ebb254"/>
<path transform="matrix(.1,0,0,-.1,0,792)" stroke-width="100" stroke-linecap="butt" stroke-linejoin="bevel" fill="none" stroke="#000000" d="M2006.5 2609 1806.5 2262.6 2006.5 1916.2H2406.5L2606.5 2262.6 2406.5 2609Z"/>
<path transform="matrix(.1,0,0,-.1,0,792)" d="M2006.5 2609 1460.1 3262.6V2462.6L1806.5 2262.6Z" fill="#ebb254"/>
<path transform="matrix(.1,0,0,-.1,0,792)" stroke-width="100" stroke-linecap="butt" stroke-linejoin="bevel" fill="none" stroke="#000000" d="M2006.5 2609 1460.1 3262.6V2462.6L1806.5 2262.6Z"/>
<path transform="matrix(.1,0,0,-.1,0,792)" d="M3606.5 2609 3406.5 2262.6 3606.5 1916.2H4006.5L4206.5 2262.6 4006.5 2609" fill="#ebb254"/>
<path transform="matrix(.1,0,0,-.1,0,792)" stroke-width="100" stroke-linecap="butt" stroke-linejoin="bevel" fill="none" stroke="#000000" d="M3606.5 2609 3406.5 2262.6 3606.5 1916.2H4006.5L4206.5 2262.6 4006.5 2609Z"/>
<path transform="matrix(.1,0,0,-.1,0,792)" d="M4006.5 2609 4206.5 2262.6 4552.9 2462.6V3262.6Z" fill="#ebb254"/>
<path transform="matrix(.1,0,0,-.1,0,792)" stroke-width="100" stroke-linecap="butt" stroke-linejoin="bevel" fill="none" stroke="#000000" d="M4006.5 2609 4206.5 2262.6 4552.9 2462.6V3262.6Z"/>
<path transform="matrix(.1,0,0,-.1,0,792)" d="M1713.7 4501.9H1313.7L1113.7 4848.3 913.699 4501.9H513.699L713.699 4155.5 513.699 3809H913.699L1113.7 3462.6 1313.7 3809H1713.7L1513.7 4155.5" fill="#f8e6bd"/>
<path transform="matrix(.1,0,0,-.1,0,792)" stroke-width="100" stroke-linecap="butt" stroke-linejoin="bevel" fill="none" stroke="#000000" d="M1713.7 4501.9H1313.7L1113.7 4848.3 913.699 4501.9H513.699L713.699 4155.5 513.699 3809H913.699L1113.7 3462.6 1313.7 3809H1713.7L1513.7 4155.5Z"/>
<path transform="matrix(.1,0,0,-.1,0,792)" d="M4299.3 3809H4699.3L4899.3 3462.6 5099.3 3809H5499.3L5299.3 4155.5 5499.3 4501.9H5099.3L4899.3 4848.3 4699.3 4501.9H4299.3L4499.3 4155.5" fill="#f8e6bd"/>
<path transform="matrix(.1,0,0,-.1,0,792)" stroke-width="100" stroke-linecap="butt" stroke-linejoin="bevel" fill="none" stroke="#000000" d="M4299.3 3809H4699.3L4899.3 3462.6 5099.3 3809H5499.3L5299.3 4155.5 5499.3 4501.9H5099.3L4899.3 4848.3 4699.3 4501.9H4299.3L4499.3 4155.5Z"/>
<path transform="matrix(.1,0,0,-.1,0,792)" d="M4206.5 6048.3 4552.9 6248.3V7048.3L4006.5 6394.7Z" fill="#ebb254"/>
<path transform="matrix(.1,0,0,-.1,0,792)" stroke-width="100" stroke-linecap="butt" stroke-linejoin="bevel" fill="none" stroke="#000000" d="M4206.5 6048.3 4552.9 6248.3V7048.3L4006.5 6394.7Z"/>
<path transform="matrix(.1,0,0,-.1,0,792)" d="M4206.5 6048.3 4552.9 5848.3V5448.3L4899.3 5648.3 5245.7 5448.3V5848.3L5592.1 6048.3 5245.7 6248.3V6648.3L4899.3 6448.3 4552.9 6648.3V6248.3" fill="#f8e6bd"/>
<path transform="matrix(.1,0,0,-.1,0,792)" stroke-width="100" stroke-linecap="butt" stroke-linejoin="bevel" fill="none" stroke="#000000" d="M4206.5 6048.3 4552.9 5848.3V5448.3L4899.3 5648.3 5245.7 5448.3V5848.3L5592.1 6048.3 5245.7 6248.3V6648.3L4899.3 6448.3 4552.9 6648.3V6248.3Z"/>
<path transform="matrix(.1,0,0,-.1,0,792)" d="M1806.5 6048.3 1460.1 6248.3V6648.3L1113.7 6448.3 767.301 6648.3V6248.3L420.898 6048.3 767.301 5848.3V5448.3L1113.7 5648.3 1460.1 5448.3V5848.3" fill="#f8e6bd"/>
<path transform="matrix(.1,0,0,-.1,0,792)" stroke-width="100" stroke-linecap="butt" stroke-linejoin="bevel" fill="none" stroke="#000000" d="M1806.5 6048.3 1460.1 6248.3V6648.3L1113.7 6448.3 767.301 6648.3V6248.3L420.898 6048.3 767.301 5848.3V5448.3L1113.7 5648.3 1460.1 5448.3V5848.3Z"/>
<path transform="matrix(.1,0,0,-.1,0,792)" d="M1806.5 6048.3 2006.5 6394.7 1460.1 7048.3V6248.3Z" fill="#ebb254"/>
<path transform="matrix(.1,0,0,-.1,0,792)" stroke-width="100" stroke-linecap="butt" stroke-linejoin="bevel" fill="none" stroke="#000000" d="M1806.5 6048.3 2006.5 6394.7 1460.1 7048.3V6248.3Z"/>
<path transform="matrix(.1,0,0,-.1,0,792)" d="M1806.5 2262.6 1460.1 2062.6V1262.6L2006.5 1916.2Z" fill="#ebb254"/>
<path transform="matrix(.1,0,0,-.1,0,792)" stroke-width="100" stroke-linecap="butt" stroke-linejoin="bevel" fill="none" stroke="#000000" d="M1806.5 2262.6 1460.1 2062.6V1262.6L2006.5 1916.2Z"/>
<path transform="matrix(.1,0,0,-.1,0,792)" d="M1806.5 2262.6 1460.1 2462.6V2862.6L1113.7 2662.6 767.301 2862.6V2462.6L420.898 2262.6 767.301 2062.6V1662.6L1113.7 1862.6 1460.1 1662.6V2062.6" fill="#f8e6bd"/>
<path transform="matrix(.1,0,0,-.1,0,792)" stroke-width="100" stroke-linecap="butt" stroke-linejoin="bevel" fill="none" stroke="#000000" d="M1806.5 2262.6 1460.1 2462.6V2862.6L1113.7 2662.6 767.301 2862.6V2462.6L420.898 2262.6 767.301 2062.6V1662.6L1113.7 1862.6 1460.1 1662.6V2062.6Z"/>
<path transform="matrix(.1,0,0,-.1,0,792)" d="M4206.5 2262.6 4552.9 2062.6V1662.6L4899.3 1862.6 5245.7 1662.6V2062.6L5592.1 2262.6 5245.7 2462.6V2862.6L4899.3 2662.6 4552.9 2862.6V2462.6" fill="#f8e6bd"/>
<path transform="matrix(.1,0,0,-.1,0,792)" stroke-width="100" stroke-linecap="butt" stroke-linejoin="bevel" fill="none" stroke="#000000" d="M4206.5 2262.6 4552.9 2062.6V1662.6L4899.3 1862.6 5245.7 1662.6V2062.6L5592.1 2262.6 5245.7 2462.6V2862.6L4899.3 2662.6 4552.9 2862.6V2462.6Z"/>
<path transform="matrix(.1,0,0,-.1,0,792)" d="M4206.5 2262.6 4006.5 1916.2 4552.9 1262.6V2062.6Z" fill="#ebb254"/>
<path transform="matrix(.1,0,0,-.1,0,792)" stroke-width="100" stroke-linecap="butt" stroke-linejoin="bevel" fill="none" stroke="#000000" d="M4206.5 2262.6 4006.5 1916.2 4552.9 1262.6V2062.6Z"/>
<path transform="matrix(.1,0,0,-.1,0,792)" d="M1460.1 5448.3 1113.7 5648.3 767.301 5448.3V5048.3L1113.7 4848.3 1460.1 5048.3" fill="#ebb254"/>
<path transform="matrix(.1,0,0,-.1,0,792)" stroke-width="100" stroke-linecap="butt" stroke-linejoin="bevel" fill="none" stroke="#000000" d="M1460.1 5448.3 1113.7 5648.3 767.301 5448.3V5048.3L1113.7 4848.3 1460.1 5048.3Z"/>
<path transform="matrix(.1,0,0,-.1,0,792)" d="M1460.1 3262.6 1113.7 3462.6 767.301 3262.6V2862.6L1113.7 2662.6 1460.1 2862.6" fill="#ebb254"/>
<path transform="matrix(.1,0,0,-.1,0,792)" stroke-width="100" stroke-linecap="butt" stroke-linejoin="bevel" fill="none" stroke="#000000" d="M1460.1 3262.6 1113.7 3462.6 767.301 3262.6V2862.6L1113.7 2662.6 1460.1 2862.6Z"/>
<path transform="matrix(.1,0,0,-.1,0,792)" d="M4552.9 2862.6 4899.3 2662.6 5245.7 2862.6V3262.6L4899.3 3462.6 4552.9 3262.6" fill="#ebb254"/>
<path transform="matrix(.1,0,0,-.1,0,792)" stroke-width="100" stroke-linecap="butt" stroke-linejoin="bevel" fill="none" stroke="#000000" d="M4552.9 2862.6 4899.3 2662.6 5245.7 2862.6V3262.6L4899.3 3462.6 4552.9 3262.6Z"/>
<path transform="matrix(.1,0,0,-.1,0,792)" d="M4552.9 5048.3 4899.3 4848.3 5245.7 5048.3V5448.3L4899.3 5648.3 4552.9 5448.3" fill="#ebb254"/>
<path transform="matrix(.1,0,0,-.1,0,792)" stroke-width="100" stroke-linecap="butt" stroke-linejoin="bevel" fill="none" stroke="#000000" d="M4552.9 5048.3 4899.3 4848.3 5245.7 5048.3V5448.3L4899.3 5648.3 4552.9 5448.3Z"/>
<path transform="matrix(.1,0,0,-.1,0,792)" d="M4006.5 6394.7 3352.9 6941.1 3006.5 6741.1 3206.5 6394.7H3606.5" fill="#ebb254"/>
<path transform="matrix(.1,0,0,-.1,0,792)" stroke-width="100" stroke-linecap="butt" stroke-linejoin="bevel" fill="none" stroke="#000000" d="M4006.5 6394.7 3352.9 6941.1 3006.5 6741.1 3206.5 6394.7H3606.5Z"/>
<path transform="matrix(.1,0,0,-.1,0,792)" d="M4006.5 6394.7 4552.9 7048.3 3899.3 7594.7 3352.9 6941.1Z" fill="#ebb254"/>
<path transform="matrix(.1,0,0,-.1,0,792)" stroke-width="100" stroke-linecap="butt" stroke-linejoin="bevel" fill="none" stroke="#000000" d="M4006.5 6394.7 4552.9 7048.3 3899.3 7594.7 3352.9 6941.1Z"/>
<path transform="matrix(.1,0,0,-.1,0,792)" d="M2806.5 6394.7 3006.5 6741.1 2660.1 6941.1 2006.5 6394.7H2406.5" fill="#ebb254"/>
<path transform="matrix(.1,0,0,-.1,0,792)" stroke-width="100" stroke-linecap="butt" stroke-linejoin="bevel" fill="none" stroke="#000000" d="M2806.5 6394.7 3006.5 6741.1 2660.1 6941.1 2006.5 6394.7H2406.5Z"/>
<path transform="matrix(.1,0,0,-.1,0,792)" d="M2006.5 6394.7 2660.1 6941.1 2113.7 7594.7 1460.1 7048.3Z" fill="#ebb254"/>
<path transform="matrix(.1,0,0,-.1,0,792)" stroke-width="100" stroke-linecap="butt" stroke-linejoin="bevel" fill="none" stroke="#000000" d="M2006.5 6394.7 2660.1 6941.1 2113.7 7594.7 1460.1 7048.3Z"/>
<path transform="matrix(.1,0,0,-.1,0,792)" d="M2006.5 1916.2 2660.1 1369.8 3006.5 1569.8 2806.5 1916.2H2406.5" fill="#ebb254"/>
<path transform="matrix(.1,0,0,-.1,0,792)" stroke-width="100" stroke-linecap="butt" stroke-linejoin="bevel" fill="none" stroke="#000000" d="M2006.5 1916.2 2660.1 1369.8 3006.5 1569.8 2806.5 1916.2H2406.5Z"/>
<path transform="matrix(.1,0,0,-.1,0,792)" d="M2006.5 1916.2 1460.1 1262.6 2113.7 716.199 2660.1 1369.8Z" fill="#ebb254"/>
<path transform="matrix(.1,0,0,-.1,0,792)" stroke-width="100" stroke-linecap="butt" stroke-linejoin="bevel" fill="none" stroke="#000000" d="M2006.5 1916.2 1460.1 1262.6 2113.7 716.199 2660.1 1369.8Z"/>
<path transform="matrix(.1,0,0,-.1,0,792)" d="M3206.5 1916.2 3006.5 1569.8 3352.9 1369.8 4006.5 1916.2H3606.5" fill="#ebb254"/>
<path transform="matrix(.1,0,0,-.1,0,792)" stroke-width="100" stroke-linecap="butt" stroke-linejoin="bevel" fill="none" stroke="#000000" d="M3206.5 1916.2 3006.5 1569.8 3352.9 1369.8 4006.5 1916.2H3606.5Z"/>
<path transform="matrix(.1,0,0,-.1,0,792)" d="M4006.5 1916.2 3352.9 1369.8 3899.3 716.199 4552.9 1262.6Z" fill="#ebb254"/>
<path transform="matrix(.1,0,0,-.1,0,792)" stroke-width="100" stroke-linecap="butt" stroke-linejoin="bevel" fill="none" stroke="#000000" d="M4006.5 1916.2 3352.9 1369.8 3899.3 716.199 4552.9 1262.6Z"/>
<path transform="matrix(.1,0,0,-.1,0,792)" d="M4552.9 6648.3 4899.3 6448.3 5245.7 6648.3V7048.3L4899.3 7248.3 4552.9 7048.3" fill="#ebb254"/>
<path transform="matrix(.1,0,0,-.1,0,792)" stroke-width="100" stroke-linecap="butt" stroke-linejoin="bevel" fill="none" stroke="#000000" d="M4552.9 6648.3 4899.3 6448.3 5245.7 6648.3V7048.3L4899.3 7248.3 4552.9 7048.3Z"/>
<path transform="matrix(.1,0,0,-.1,0,792)" d="M1460.1 6648.3V7048.3L1113.7 7248.3 767.301 7048.3V6648.3L1113.7 6448.3" fill="#ebb254"/>
<path transform="matrix(.1,0,0,-.1,0,792)" stroke-width="100" stroke-linecap="butt" stroke-linejoin="bevel" fill="none" stroke="#000000" d="M1460.1 6648.3V7048.3L1113.7 7248.3 767.301 7048.3V6648.3L1113.7 6448.3Z"/>
<path transform="matrix(.1,0,0,-.1,0,792)" d="M3006.5 6741.1 3352.9 6941.1V7341.1L3006.5 7541.1 2660.1 7341.1V6941.1" fill="#ebb254"/>
<path transform="matrix(.1,0,0,-.1,0,792)" stroke-width="100" stroke-linecap="butt" stroke-linejoin="bevel" fill="none" stroke="#000000" d="M3006.5 6741.1 3352.9 6941.1V7341.1L3006.5 7541.1 2660.1 7341.1V6941.1Z"/>
<path transform="matrix(.1,0,0,-.1,0,792)" d="M1460.1 1662.6 1113.7 1862.6 767.301 1662.6V1262.6L1113.7 1062.6 1460.1 1262.6" fill="#ebb254"/>
<path transform="matrix(.1,0,0,-.1,0,792)" stroke-width="100" stroke-linecap="butt" stroke-linejoin="bevel" fill="none" stroke="#000000" d="M1460.1 1662.6 1113.7 1862.6 767.301 1662.6V1262.6L1113.7 1062.6 1460.1 1262.6Z"/>
<path transform="matrix(.1,0,0,-.1,0,792)" d="M4552.9 1662.6V1262.6L4899.3 1062.6 5245.7 1262.6V1662.6L4899.3 1862.6" fill="#ebb254"/>
<path transform="matrix(.1,0,0,-.1,0,792)" stroke-width="100" stroke-linecap="butt" stroke-linejoin="bevel" fill="none" stroke="#000000" d="M4552.9 1662.6V1262.6L4899.3 1062.6 5245.7 1262.6V1662.6L4899.3 1862.6Z"/>
<path transform="matrix(.1,0,0,-.1,0,792)" d="M1113.7 4848.3 767.301 5048.3 113.699 4501.9H913.699Z" fill="#ebb254"/>
<path transform="matrix(.1,0,0,-.1,0,792)" stroke-width="100" stroke-linecap="butt" stroke-linejoin="bevel" fill="none" stroke="#000000" d="M1113.7 4848.3 767.301 5048.3 113.699 4501.9H913.699Z"/>
<path transform="matrix(.1,0,0,-.1,0,792)" d="M1113.7 3462.6 913.699 3809H113.699L767.301 3262.6Z" fill="#ebb254"/>
<path transform="matrix(.1,0,0,-.1,0,792)" stroke-width="100" stroke-linecap="butt" stroke-linejoin="bevel" fill="none" stroke="#000000" d="M1113.7 3462.6 913.699 3809H113.699L767.301 3262.6Z"/>
<path transform="matrix(.1,0,0,-.1,0,792)" d="M3006.5 1569.8 2660.1 1369.8V969.801L3006.5 769.801 3352.9 969.801V1369.8" fill="#ebb254"/>
<path transform="matrix(.1,0,0,-.1,0,792)" stroke-width="100" stroke-linecap="butt" stroke-linejoin="bevel" fill="none" stroke="#000000" d="M3006.5 1569.8 2660.1 1369.8V969.801L3006.5 769.801 3352.9 969.801V1369.8Z"/>
<path transform="matrix(.1,0,0,-.1,0,792)" d="M4899.3 3462.6 5245.7 3262.6 5899.3 3809H5099.3Z" fill="#ebb254"/>
<path transform="matrix(.1,0,0,-.1,0,792)" stroke-width="100" stroke-linecap="butt" stroke-linejoin="bevel" fill="none" stroke="#000000" d="M4899.3 3462.6 5245.7 3262.6 5899.3 3809H5099.3Z"/>
<path transform="matrix(.1,0,0,-.1,0,792)" d="M4899.3 4848.3 5099.3 4501.9H5899.3L5245.7 5048.3Z" fill="#ebb254"/>
<path transform="matrix(.1,0,0,-.1,0,792)" stroke-width="100" stroke-linecap="butt" stroke-linejoin="bevel" fill="none" stroke="#000000" d="M4899.3 4848.3 5099.3 4501.9H5899.3L5245.7 5048.3Z"/>
<path transform="matrix(.1,0,0,-.1,0,792)" d="M3352.9 6941.1 3899.3 7594.7 3699.3 7941.1 3352.9 7741.1V7341.1" fill="#ebb254"/>
<path transform="matrix(.1,0,0,-.1,0,792)" stroke-width="100" stroke-linecap="butt" stroke-linejoin="bevel" fill="none" stroke="#000000" d="M3352.9 6941.1 3899.3 7594.7 3699.3 7941.1 3352.9 7741.1V7341.1Z"/>
<path transform="matrix(.1,0,0,-.1,0,792)" d="M2660.1 6941.1V7741.1L2313.7 7941.1 2113.7 7594.7Z" fill="#ebb254"/>
<path transform="matrix(.1,0,0,-.1,0,792)" stroke-width="100" stroke-linecap="butt" stroke-linejoin="bevel" fill="none" stroke="#000000" d="M2660.1 6941.1V7741.1L2313.7 7941.1 2113.7 7594.7Z"/>
<path transform="matrix(.1,0,0,-.1,0,792)" d="M1460.1 7048.3 2113.7 7594.7H1313.7L1113.7 7248.3Z" fill="#ebb254"/>
<path transform="matrix(.1,0,0,-.1,0,792)" stroke-width="100" stroke-linecap="butt" stroke-linejoin="bevel" fill="none" stroke="#000000" d="M1460.1 7048.3 2113.7 7594.7H1313.7L1113.7 7248.3Z"/>
<path transform="matrix(.1,0,0,-.1,0,792)" d="M4552.9 7048.3 4899.3 7248.3 4699.3 7594.7H3899.3Z" fill="#ebb254"/>
<path transform="matrix(.1,0,0,-.1,0,792)" stroke-width="100" stroke-linecap="butt" stroke-linejoin="bevel" fill="none" stroke="#000000" d="M4552.9 7048.3 4899.3 7248.3 4699.3 7594.7H3899.3Z"/>
<path transform="matrix(.1,0,0,-.1,0,792)" d="M2660.1 1369.8 2113.7 716.199 2313.7 369.801 2660.1 569.801V969.801" fill="#ebb254"/>
<path transform="matrix(.1,0,0,-.1,0,792)" stroke-width="100" stroke-linecap="butt" stroke-linejoin="bevel" fill="none" stroke="#000000" d="M2660.1 1369.8 2113.7 716.199 2313.7 369.801 2660.1 569.801V969.801Z"/>
<path transform="matrix(.1,0,0,-.1,0,792)" d="M3352.9 1369.8V569.801L3699.3 369.801 3899.3 716.199Z" fill="#ebb254"/>
<path transform="matrix(.1,0,0,-.1,0,792)" stroke-width="100" stroke-linecap="butt" stroke-linejoin="bevel" fill="none" stroke="#000000" d="M3352.9 1369.8V569.801L3699.3 369.801 3899.3 716.199Z"/>
<path transform="matrix(.1,0,0,-.1,0,792)" d="M4552.9 1262.6 3899.3 716.199H4699.3L4899.3 1062.6Z" fill="#ebb254"/>
<path transform="matrix(.1,0,0,-.1,0,792)" stroke-width="100" stroke-linecap="butt" stroke-linejoin="bevel" fill="none" stroke="#000000" d="M4552.9 1262.6 3899.3 716.199H4699.3L4899.3 1062.6Z"/>
<path transform="matrix(.1,0,0,-.1,0,792)" d="M1460.1 1262.6 1113.7 1062.6 1313.7 716.199H2113.7Z" fill="#ebb254"/>
<path transform="matrix(.1,0,0,-.1,0,792)" stroke-width="100" stroke-linecap="butt" stroke-linejoin="bevel" fill="none" stroke="#000000" d="M1460.1 1262.6 1113.7 1062.6 1313.7 716.199H2113.7Z"/>
<path transform="matrix(.1,0,0,-.1,0,792)" d="M4899.3 7248.3 5099.3 7594.7H5499.3L5299.3 7941.1 5499.3 8287.5H5099.3L4899.3 8633.9 4699.3 8287.5H4299.3L4499.3 7941.1 4299.3 7594.7H4699.3" fill="#f8e6bd"/>
<path transform="matrix(.1,0,0,-.1,0,792)" stroke-width="100" stroke-linecap="butt" stroke-linejoin="bevel" fill="none" stroke="#000000" d="M4899.3 7248.3 5099.3 7594.7H5499.3L5299.3 7941.1 5499.3 8287.5H5099.3L4899.3 8633.9 4699.3 8287.5H4299.3L4499.3 7941.1 4299.3 7594.7H4699.3Z"/>
<path transform="matrix(.1,0,0,-.1,0,792)" d="M4899.3 7248.3 5245.7 7048.3 5899.3 7594.7H5099.3Z" fill="#ebb254"/>
<path transform="matrix(.1,0,0,-.1,0,792)" stroke-width="100" stroke-linecap="butt" stroke-linejoin="bevel" fill="none" stroke="#000000" d="M4899.3 7248.3 5245.7 7048.3 5899.3 7594.7H5099.3Z"/>
<path transform="matrix(.1,0,0,-.1,0,792)" d="M1113.7 7248.3 913.699 7594.7H113.699L767.301 7048.3Z" fill="#ebb254"/>
<path transform="matrix(.1,0,0,-.1,0,792)" stroke-width="100" stroke-linecap="butt" stroke-linejoin="bevel" fill="none" stroke="#000000" d="M1113.7 7248.3 913.699 7594.7H113.699L767.301 7048.3Z"/>
<path transform="matrix(.1,0,0,-.1,0,792)" d="M1113.7 7248.3 1313.7 7594.7H1713.7L1513.7 7941.1 1713.7 8287.5H1313.7L1113.7 8633.9 913.699 8287.5H513.699L713.699 7941.1 513.699 7594.7H913.699" fill="#f8e6bd"/>
<path transform="matrix(.1,0,0,-.1,0,792)" stroke-width="100" stroke-linecap="butt" stroke-linejoin="bevel" fill="none" stroke="#000000" d="M1113.7 7248.3 1313.7 7594.7H1713.7L1513.7 7941.1 1713.7 8287.5H1313.7L1113.7 8633.9 913.699 8287.5H513.699L713.699 7941.1 513.699 7594.7H913.699Z"/>
<path transform="matrix(.1,0,0,-.1,0,792)" d="M767.301 7048.3 220.898 6394.7 420.898 6048.3 767.301 6248.3V6648.3" fill="#ebb254"/>
<path transform="matrix(.1,0,0,-.1,0,792)" stroke-width="100" stroke-linecap="butt" stroke-linejoin="bevel" fill="none" stroke="#000000" d="M767.301 7048.3 220.898 6394.7 420.898 6048.3 767.301 6248.3V6648.3Z"/>
<path transform="matrix(.1,0,0,-.1,0,792)" d="M767.301 7048.3 113.699 7594.7-432.699 6941.1 220.898 6394.7Z" fill="#ebb254"/>
<path transform="matrix(.1,0,0,-.1,0,792)" stroke-width="100" stroke-linecap="butt" stroke-linejoin="bevel" fill="none" stroke="#000000" d="M767.301 7048.3 113.699 7594.7-432.699 6941.1 220.898 6394.7Z"/>
<path transform="matrix(.1,0,0,-.1,0,792)" d="M767.301 5848.3 420.898 6048.3 220.898 5701.9 767.301 5048.3V5448.3" fill="#ebb254"/>
<path transform="matrix(.1,0,0,-.1,0,792)" stroke-width="100" stroke-linecap="butt" stroke-linejoin="bevel" fill="none" stroke="#000000" d="M767.301 5848.3 420.898 6048.3 220.898 5701.9 767.301 5048.3V5448.3Z"/>
<path transform="matrix(.1,0,0,-.1,0,792)" d="M767.301 5048.3 220.898 5701.9-432.699 5155.5 113.699 4501.9Z" fill="#ebb254"/>
<path transform="matrix(.1,0,0,-.1,0,792)" stroke-width="100" stroke-linecap="butt" stroke-linejoin="bevel" fill="none" stroke="#000000" d="M767.301 5048.3 220.898 5701.9-432.699 5155.5 113.699 4501.9Z"/>
<path transform="matrix(.1,0,0,-.1,0,792)" d="M767.301 3262.6 220.898 2609 420.898 2262.6 767.301 2462.6V2862.6" fill="#ebb254"/>
<path transform="matrix(.1,0,0,-.1,0,792)" stroke-width="100" stroke-linecap="butt" stroke-linejoin="bevel" fill="none" stroke="#000000" d="M767.301 3262.6 220.898 2609 420.898 2262.6 767.301 2462.6V2862.6Z"/>
<path transform="matrix(.1,0,0,-.1,0,792)" d="M767.301 3262.6 113.699 3809-432.699 3155.5 220.898 2609Z" fill="#ebb254"/>
<path transform="matrix(.1,0,0,-.1,0,792)" stroke-width="100" stroke-linecap="butt" stroke-linejoin="bevel" fill="none" stroke="#000000" d="M767.301 3262.6 113.699 3809-432.699 3155.5 220.898 2609Z"/>
<path transform="matrix(.1,0,0,-.1,0,792)" d="M767.301 2062.6 420.898 2262.6 220.898 1916.2 767.301 1262.6V1662.6" fill="#ebb254"/>
<path transform="matrix(.1,0,0,-.1,0,792)" stroke-width="100" stroke-linecap="butt" stroke-linejoin="bevel" fill="none" stroke="#000000" d="M767.301 2062.6 420.898 2262.6 220.898 1916.2 767.301 1262.6V1662.6Z"/>
<path transform="matrix(.1,0,0,-.1,0,792)" d="M767.301 1262.6 113.699 716.199H913.699L1113.7 1062.6Z" fill="#ebb254"/>
<path transform="matrix(.1,0,0,-.1,0,792)" stroke-width="100" stroke-linecap="butt" stroke-linejoin="bevel" fill="none" stroke="#000000" d="M767.301 1262.6 113.699 716.199H913.699L1113.7 1062.6Z"/>
<path transform="matrix(.1,0,0,-.1,0,792)" d="M767.301 1262.6 220.898 1916.2-432.699 1369.8 113.699 716.199Z" fill="#ebb254"/>
<path transform="matrix(.1,0,0,-.1,0,792)" stroke-width="100" stroke-linecap="butt" stroke-linejoin="bevel" fill="none" stroke="#000000" d="M767.301 1262.6 220.898 1916.2-432.699 1369.8 113.699 716.199Z"/>
<path transform="matrix(.1,0,0,-.1,0,792)" d="M713.699 4155.5 513.699 4501.9H113.699L-86.3008 4155.5 113.699 3809H513.699" fill="#ebb254"/>
<path transform="matrix(.1,0,0,-.1,0,792)" stroke-width="100" stroke-linecap="butt" stroke-linejoin="bevel" fill="none" stroke="#000000" d="M713.699 4155.5 513.699 4501.9H113.699L-86.3008 4155.5 113.699 3809H513.699Z"/>
<path transform="matrix(.1,0,0,-.1,0,792)" d="M5245.7 1262.6 5792.1 1916.2 5592.1 2262.6 5245.7 2062.6V1662.6" fill="#ebb254"/>
<path transform="matrix(.1,0,0,-.1,0,792)" stroke-width="100" stroke-linecap="butt" stroke-linejoin="bevel" fill="none" stroke="#000000" d="M5245.7 1262.6 5792.1 1916.2 5592.1 2262.6 5245.7 2062.6V1662.6Z"/>
<path transform="matrix(.1,0,0,-.1,0,792)" d="M5245.7 1262.6 5899.3 716.199 6445.7 1369.8 5792.1 1916.2Z" fill="#ebb254"/>
<path transform="matrix(.1,0,0,-.1,0,792)" stroke-width="100" stroke-linecap="butt" stroke-linejoin="bevel" fill="none" stroke="#000000" d="M5245.7 1262.6 5899.3 716.199 6445.7 1369.8 5792.1 1916.2Z"/>
<path transform="matrix(.1,0,0,-.1,0,792)" d="M5245.7 1262.6 4899.3 1062.6 5099.3 716.199H5899.3Z" fill="#ebb254"/>
<path transform="matrix(.1,0,0,-.1,0,792)" stroke-width="100" stroke-linecap="butt" stroke-linejoin="bevel" fill="none" stroke="#000000" d="M5245.7 1262.6 4899.3 1062.6 5099.3 716.199H5899.3Z"/>
<path transform="matrix(.1,0,0,-.1,0,792)" d="M5245.7 2462.6 5592.1 2262.6 5792.1 2609 5245.7 3262.6V2862.6" fill="#ebb254"/>
<path transform="matrix(.1,0,0,-.1,0,792)" stroke-width="100" stroke-linecap="butt" stroke-linejoin="bevel" fill="none" stroke="#000000" d="M5245.7 2462.6 5592.1 2262.6 5792.1 2609 5245.7 3262.6V2862.6Z"/>
<path transform="matrix(.1,0,0,-.1,0,792)" d="M5245.7 3262.6 5792.1 2609 6445.7 3155.5 5899.3 3809Z" fill="#ebb254"/>
<path transform="matrix(.1,0,0,-.1,0,792)" stroke-width="100" stroke-linecap="butt" stroke-linejoin="bevel" fill="none" stroke="#000000" d="M5245.7 3262.6 5792.1 2609 6445.7 3155.5 5899.3 3809Z"/>
<path transform="matrix(.1,0,0,-.1,0,792)" d="M5245.7 5048.3 5792.1 5701.9 5592.1 6048.3 5245.7 5848.3V5448.3" fill="#ebb254"/>
<path transform="matrix(.1,0,0,-.1,0,792)" stroke-width="100" stroke-linecap="butt" stroke-linejoin="bevel" fill="none" stroke="#000000" d="M5245.7 5048.3 5792.1 5701.9 5592.1 6048.3 5245.7 5848.3V5448.3Z"/>
<path transform="matrix(.1,0,0,-.1,0,792)" d="M5245.7 5048.3 5899.3 4501.9 6445.7 5155.5 5792.1 5701.9Z" fill="#ebb254"/>
<path transform="matrix(.1,0,0,-.1,0,792)" stroke-width="100" stroke-linecap="butt" stroke-linejoin="bevel" fill="none" stroke="#000000" d="M5245.7 5048.3 5899.3 4501.9 6445.7 5155.5 5792.1 5701.9Z"/>
<path transform="matrix(.1,0,0,-.1,0,792)" d="M5245.7 6248.3 5592.1 6048.3 5792.1 6394.7 5245.7 7048.3V6648.3" fill="#ebb254"/>
<path transform="matrix(.1,0,0,-.1,0,792)" stroke-width="100" stroke-linecap="butt" stroke-linejoin="bevel" fill="none" stroke="#000000" d="M5245.7 6248.3 5592.1 6048.3 5792.1 6394.7 5245.7 7048.3V6648.3Z"/>
<path transform="matrix(.1,0,0,-.1,0,792)" d="M5245.7 7048.3 5792.1 6394.7 6445.7 6941.1 5899.3 7594.7Z" fill="#ebb254"/>
<path transform="matrix(.1,0,0,-.1,0,792)" stroke-width="100" stroke-linecap="butt" stroke-linejoin="bevel" fill="none" stroke="#000000" d="M5245.7 7048.3 5792.1 6394.7 6445.7 6941.1 5899.3 7594.7Z"/>
<path transform="matrix(.1,0,0,-.1,0,792)" d="M3352.9 7341.1V7741.1L3699.3 7941.1 3352.9 8141.1V8541.1L3006.5 8341.1 2660.1 8541.1V8141.1L2313.7 7941.1 2660.1 7741.1V7341.1L3006.5 7541.1" fill="#f8e6bd"/>
<path transform="matrix(.1,0,0,-.1,0,792)" stroke-width="100" stroke-linecap="butt" stroke-linejoin="bevel" fill="none" stroke="#000000" d="M3352.9 7341.1V7741.1L3699.3 7941.1 3352.9 8141.1V8541.1L3006.5 8341.1 2660.1 8541.1V8141.1L2313.7 7941.1 2660.1 7741.1V7341.1L3006.5 7541.1Z"/>
<path transform="matrix(.1,0,0,-.1,0,792)" d="M1113.7 1062.6 913.699 716.199H513.699L713.699 369.801 513.699 23.3984H913.699L1113.7-323 1313.7 23.3984H1713.7L1513.7 369.801 1713.7 716.199H1313.7" fill="#f8e6bd"/>
<path transform="matrix(.1,0,0,-.1,0,792)" stroke-width="100" stroke-linecap="butt" stroke-linejoin="bevel" fill="none" stroke="#000000" d="M1113.7 1062.6 913.699 716.199H513.699L713.699 369.801 513.699 23.3984H913.699L1113.7-323 1313.7 23.3984H1713.7L1513.7 369.801 1713.7 716.199H1313.7Z"/>
<path transform="matrix(.1,0,0,-.1,0,792)" d="M4899.3 1062.6 4699.3 716.199H4299.3L4499.3 369.801 4299.3 23.3984H4699.3L4899.3-323 5099.3 23.3984H5499.3L5299.3 369.801 5499.3 716.199H5099.3" fill="#f8e6bd"/>
<path transform="matrix(.1,0,0,-.1,0,792)" stroke-width="100" stroke-linecap="butt" stroke-linejoin="bevel" fill="none" stroke="#000000" d="M4899.3 1062.6 4699.3 716.199H4299.3L4499.3 369.801 4299.3 23.3984H4699.3L4899.3-323 5099.3 23.3984H5499.3L5299.3 369.801 5499.3 716.199H5099.3Z"/>
<path transform="matrix(.1,0,0,-.1,0,792)" d="M5299.3 4155.5 5499.3 3809H5899.3L6099.3 4155.5 5899.3 4501.9H5499.3" fill="#ebb254"/>
<path transform="matrix(.1,0,0,-.1,0,792)" stroke-width="100" stroke-linecap="butt" stroke-linejoin="bevel" fill="none" stroke="#000000" d="M5299.3 4155.5 5499.3 3809H5899.3L6099.3 4155.5 5899.3 4501.9H5499.3Z"/>
<path transform="matrix(.1,0,0,-.1,0,792)" d="M2660.1 969.801V569.801L2313.7 369.801 2660.1 169.801V-230.199L3006.5-30.1992 3352.9-230.199V169.801L3699.3 369.801 3352.9 569.801V969.801L3006.5 769.801" fill="#f8e6bd"/>
<path transform="matrix(.1,0,0,-.1,0,792)" stroke-width="100" stroke-linecap="butt" stroke-linejoin="bevel" fill="none" stroke="#000000" d="M2660.1 969.801V569.801L2313.7 369.801 2660.1 169.801V-230.199L3006.5-30.1992 3352.9-230.199V169.801L3699.3 369.801 3352.9 569.801V969.801L3006.5 769.801Z"/>
<path transform="matrix(.1,0,0,-.1,0,792)" d="M4299.3 7594.7 4499.3 7941.1 4299.3 8287.5H3899.3L3699.3 7941.1 3899.3 7594.7" fill="#ebb254"/>
<path transform="matrix(.1,0,0,-.1,0,792)" stroke-width="100" stroke-linecap="butt" stroke-linejoin="bevel" fill="none" stroke="#000000" d="M4299.3 7594.7 4499.3 7941.1 4299.3 8287.5H3899.3L3699.3 7941.1 3899.3 7594.7Z"/>
<path transform="matrix(.1,0,0,-.1,0,792)" d="M2113.7 7594.7 2313.7 7941.1 2113.7 8287.5H1713.7L1513.7 7941.1 1713.7 7594.7" fill="#ebb254"/>
<path transform="matrix(.1,0,0,-.1,0,792)" stroke-width="100" stroke-linecap="butt" stroke-linejoin="bevel" fill="none" stroke="#000000" d="M2113.7 7594.7 2313.7 7941.1 2113.7 8287.5H1713.7L1513.7 7941.1 1713.7 7594.7Z"/>
<path transform="matrix(.1,0,0,-.1,0,792)" d="M513.699 7594.7 713.699 7941.1 513.699 8287.5H113.699L-86.3008 7941.1 113.699 7594.7" fill="#ebb254"/>
<path transform="matrix(.1,0,0,-.1,0,792)" stroke-width="100" stroke-linecap="butt" stroke-linejoin="bevel" fill="none" stroke="#000000" d="M513.699 7594.7 713.699 7941.1 513.699 8287.5H113.699L-86.3008 7941.1 113.699 7594.7Z"/>
<path transform="matrix(.1,0,0,-.1,0,792)" d="M5499.3 7594.7H5899.3L6099.3 7941.1 5899.3 8287.5H5499.3L5299.3 7941.1" fill="#ebb254"/>
<path transform="matrix(.1,0,0,-.1,0,792)" stroke-width="100" stroke-linecap="butt" stroke-linejoin="bevel" fill="none" stroke="#000000" d="M5499.3 7594.7H5899.3L6099.3 7941.1 5899.3 8287.5H5499.3L5299.3 7941.1Z"/>
<path transform="matrix(.1,0,0,-.1,0,792)" d="M513.699 716.199H113.699L-86.3008 369.801 113.699 23.3984H513.699L713.699 369.801" fill="#ebb254"/>
<path transform="matrix(.1,0,0,-.1,0,792)" stroke-width="100" stroke-linecap="butt" stroke-linejoin="bevel" fill="none" stroke="#000000" d="M513.699 716.199H113.699L-86.3008 369.801 113.699 23.3984H513.699L713.699 369.801Z"/>
<path transform="matrix(.1,0,0,-.1,0,792)" d="M1713.7 716.199 1513.7 369.801 1713.7 23.3984H2113.7L2313.7 369.801 2113.7 716.199" fill="#ebb254"/>
<path transform="matrix(.1,0,0,-.1,0,792)" stroke-width="100" stroke-linecap="butt" stroke-linejoin="bevel" fill="none" stroke="#000000" d="M1713.7 716.199 1513.7 369.801 1713.7 23.3984H2113.7L2313.7 369.801 2113.7 716.199Z"/>
<path transform="matrix(.1,0,0,-.1,0,792)" d="M3899.3 716.199 3699.3 369.801 3899.3 23.3984H4299.3L4499.3 369.801 4299.3 716.199" fill="#ebb254"/>
<path transform="matrix(.1,0,0,-.1,0,792)" stroke-width="100" stroke-linecap="butt" stroke-linejoin="bevel" fill="none" stroke="#000000" d="M3899.3 716.199 3699.3 369.801 3899.3 23.3984H4299.3L4499.3 369.801 4299.3 716.199Z"/>
<path transform="matrix(.1,0,0,-.1,0,792)" d="M5499.3 716.199 5299.3 369.801 5499.3 23.3984H5899.3L6099.3 369.801 5899.3 716.199" fill="#ebb254"/>
<path transform="matrix(.1,0,0,-.1,0,792)" stroke-width="100" stroke-linecap="butt" stroke-linejoin="bevel" fill="none" stroke="#000000" d="M5499.3 716.199 5299.3 369.801 5499.3 23.3984H5899.3L6099.3 369.801 5899.3 716.199Z"/>
<path transform="matrix(.1,0,0,-.1,0,792)" d="M420.898 6048.3 220.898 6394.7H-179.102L-379.102 6048.3-179.102 5701.9H220.898" fill="#ebb254"/>
<path transform="matrix(.1,0,0,-.1,0,792)" stroke-width="100" stroke-linecap="butt" stroke-linejoin="bevel" fill="none" stroke="#000000" d="M420.898 6048.3 220.898 6394.7H-179.102L-379.102 6048.3-179.102 5701.9H220.898Z"/>
<path transform="matrix(.1,0,0,-.1,0,792)" d="M420.898 2262.6 220.898 2609H-179.102L-379.102 2262.6-179.102 1916.2H220.898" fill="#ebb254"/>
<path transform="matrix(.1,0,0,-.1,0,792)" stroke-width="100" stroke-linecap="butt" stroke-linejoin="bevel" fill="none" stroke="#000000" d="M420.898 2262.6 220.898 2609H-179.102L-379.102 2262.6-179.102 1916.2H220.898Z"/>
<path transform="matrix(.1,0,0,-.1,0,792)" d="M5592.1 2262.6 5792.1 1916.2H6192.1L6392.1 2262.6 6192.1 2609H5792.1" fill="#ebb254"/>
<path transform="matrix(.1,0,0,-.1,0,792)" stroke-width="100" stroke-linecap="butt" stroke-linejoin="bevel" fill="none" stroke="#000000" d="M5592.1 2262.6 5792.1 1916.2H6192.1L6392.1 2262.6 6192.1 2609H5792.1Z"/>
<path transform="matrix(.1,0,0,-.1,0,792)" d="M5592.1 6048.3 5792.1 5701.9H6192.1L6392.1 6048.3 6192.1 6394.7H5792.1" fill="#ebb254"/>
<path transform="matrix(.1,0,0,-.1,0,792)" stroke-width="100" stroke-linecap="butt" stroke-linejoin="bevel" fill="none" stroke="#000000" d="M5592.1 6048.3 5792.1 5701.9H6192.1L6392.1 6048.3 6192.1 6394.7H5792.1Z"/>
<path transform="matrix(.1,0,0,-.1,0,792)" stroke-width="100" stroke-linecap="butt" stroke-linejoin="bevel" fill="none" stroke="#000000" d="M3699.3 7941.1 3899.3 8287.5 3352.9 8941.1V8141.1Z"/>
<path transform="matrix(.1,0,0,-.1,0,792)" stroke-width="100" stroke-linecap="butt" stroke-linejoin="bevel" fill="none" stroke="#000000" d="M2313.7 7941.1 2660.1 8141.1V8941.1L2113.7 8287.5Z"/>
<path transform="matrix(.1,0,0,-.1,0,792)" d="M220.898 6394.7-432.699 6941.1-779.102 6741.1-579.102 6394.7H-179.102" fill="#ebb254"/>
<path transform="matrix(.1,0,0,-.1,0,792)" stroke-width="100" stroke-linecap="butt" stroke-linejoin="bevel" fill="none" stroke="#000000" d="M220.898 6394.7-432.699 6941.1-779.102 6741.1-579.102 6394.7H-179.102Z"/>
<path transform="matrix(.1,0,0,-.1,0,792)" d="M220.898 5701.9H-579.102L-779.102 5355.5-432.699 5155.5Z" fill="#ebb254"/>
<path transform="matrix(.1,0,0,-.1,0,792)" stroke-width="100" stroke-linecap="butt" stroke-linejoin="bevel" fill="none" stroke="#000000" d="M220.898 5701.9H-579.102L-779.102 5355.5-432.699 5155.5Z"/>
<path transform="matrix(.1,0,0,-.1,0,792)" d="M220.898 2609-432.699 3155.5-779.102 2955.5-579.102 2609H-179.102" fill="#ebb254"/>
<path transform="matrix(.1,0,0,-.1,0,792)" stroke-width="100" stroke-linecap="butt" stroke-linejoin="bevel" fill="none" stroke="#000000" d="M220.898 2609-432.699 3155.5-779.102 2955.5-579.102 2609H-179.102Z"/>
<path transform="matrix(.1,0,0,-.1,0,792)" d="M220.898 1916.2H-579.102L-779.102 1569.8-432.699 1369.8Z" fill="#ebb254"/>
<path transform="matrix(.1,0,0,-.1,0,792)" stroke-width="100" stroke-linecap="butt" stroke-linejoin="bevel" fill="none" stroke="#000000" d="M220.898 1916.2H-579.102L-779.102 1569.8-432.699 1369.8Z"/>
<path transform="matrix(.1,0,0,-.1,0,792)" d="M2313.7 369.801 2113.7 23.3984 2660.1-630.199V169.801Z" fill="#ebb254"/>
<path transform="matrix(.1,0,0,-.1,0,792)" stroke-width="100" stroke-linecap="butt" stroke-linejoin="bevel" fill="none" stroke="#000000" d="M2313.7 369.801 2113.7 23.3984 2660.1-630.199V169.801Z"/>
<path transform="matrix(.1,0,0,-.1,0,792)" d="M3699.3 369.801 3352.9 169.801V-630.199L3899.3 23.3984Z" fill="#ebb254"/>
<path transform="matrix(.1,0,0,-.1,0,792)" stroke-width="100" stroke-linecap="butt" stroke-linejoin="bevel" fill="none" stroke="#000000" d="M3699.3 369.801 3352.9 169.801V-630.199L3899.3 23.3984Z"/>
<path transform="matrix(.1,0,0,-.1,0,792)" d="M5792.1 1916.2 6445.7 1369.8 6792.1 1569.8 6592.1 1916.2H6192.1" fill="#ebb254"/>
<path transform="matrix(.1,0,0,-.1,0,792)" stroke-width="100" stroke-linecap="butt" stroke-linejoin="bevel" fill="none" stroke="#000000" d="M5792.1 1916.2 6445.7 1369.8 6792.1 1569.8 6592.1 1916.2H6192.1Z"/>
<path transform="matrix(.1,0,0,-.1,0,792)" d="M5792.1 2609H6592.1L6792.1 2955.5 6445.7 3155.5Z" fill="#ebb254"/>
<path transform="matrix(.1,0,0,-.1,0,792)" stroke-width="100" stroke-linecap="butt" stroke-linejoin="bevel" fill="none" stroke="#000000" d="M5792.1 2609H6592.1L6792.1 2955.5 6445.7 3155.5Z"/>
<path transform="matrix(.1,0,0,-.1,0,792)" d="M5792.1 5701.9 6445.7 5155.5 6792.1 5355.5 6592.1 5701.9H6192.1" fill="#ebb254"/>
<path transform="matrix(.1,0,0,-.1,0,792)" stroke-width="100" stroke-linecap="butt" stroke-linejoin="bevel" fill="none" stroke="#000000" d="M5792.1 5701.9 6445.7 5155.5 6792.1 5355.5 6592.1 5701.9H6192.1Z"/>
<path transform="matrix(.1,0,0,-.1,0,792)" d="M5792.1 6394.7H6592.1L6792.1 6741.1 6445.7 6941.1Z" fill="#ebb254"/>
<path transform="matrix(.1,0,0,-.1,0,792)" stroke-width="100" stroke-linecap="butt" stroke-linejoin="bevel" fill="none" stroke="#000000" d="M5792.1 6394.7H6592.1L6792.1 6741.1 6445.7 6941.1Z"/>
<path transform="matrix(.1,0,0,-.1,0,792)" d="M113.699 7594.7-86.3008 7941.1-432.699 7741.1V6941.1Z" fill="#ebb254"/>
<path transform="matrix(.1,0,0,-.1,0,792)" stroke-width="100" stroke-linecap="butt" stroke-linejoin="bevel" fill="none" stroke="#000000" d="M113.699 7594.7-86.3008 7941.1-432.699 7741.1V6941.1Z"/>
<path transform="matrix(.1,0,0,-.1,0,792)" d="M113.699 4501.9-432.699 5155.5V4355.5L-86.3008 4155.5Z" fill="#ebb254"/>
<path transform="matrix(.1,0,0,-.1,0,792)" stroke-width="100" stroke-linecap="butt" stroke-linejoin="bevel" fill="none" stroke="#000000" d="M113.699 4501.9-432.699 5155.5V4355.5L-86.3008 4155.5Z"/>
<path transform="matrix(.1,0,0,-.1,0,792)" d="M113.699 3809-86.3008 4155.5-432.699 3955.5V3155.5Z" fill="#ebb254"/>
<path transform="matrix(.1,0,0,-.1,0,792)" stroke-width="100" stroke-linecap="butt" stroke-linejoin="bevel" fill="none" stroke="#000000" d="M113.699 3809-86.3008 4155.5-432.699 3955.5V3155.5Z"/>
<path transform="matrix(.1,0,0,-.1,0,792)" d="M113.699 716.199-432.699 1369.8V569.801L-86.3008 369.801Z" fill="#ebb254"/>
<path transform="matrix(.1,0,0,-.1,0,792)" stroke-width="100" stroke-linecap="butt" stroke-linejoin="bevel" fill="none" stroke="#000000" d="M113.699 716.199-432.699 1369.8V569.801L-86.3008 369.801Z"/>
<path transform="matrix(.1,0,0,-.1,0,792)" d="M5899.3 716.199 6099.3 369.801 6445.7 569.801V1369.8Z" fill="#ebb254"/>
<path transform="matrix(.1,0,0,-.1,0,792)" stroke-width="100" stroke-linecap="butt" stroke-linejoin="bevel" fill="none" stroke="#000000" d="M5899.3 716.199 6099.3 369.801 6445.7 569.801V1369.8Z"/>
<path transform="matrix(.1,0,0,-.1,0,792)" d="M5899.3 3809 6445.7 3155.5V3955.5L6099.3 4155.5Z" fill="#ebb254"/>
<path transform="matrix(.1,0,0,-.1,0,792)" stroke-width="100" stroke-linecap="butt" stroke-linejoin="bevel" fill="none" stroke="#000000" d="M5899.3 3809 6445.7 3155.5V3955.5L6099.3 4155.5Z"/>
<path transform="matrix(.1,0,0,-.1,0,792)" d="M5899.3 4501.9 6099.3 4155.5 6445.7 4355.5V5155.5Z" fill="#ebb254"/>
<path transform="matrix(.1,0,0,-.1,0,792)" stroke-width="100" stroke-linecap="butt" stroke-linejoin="bevel" fill="none" stroke="#000000" d="M5899.3 4501.9 6099.3 4155.5 6445.7 4355.5V5155.5Z"/>
<path transform="matrix(.1,0,0,-.1,0,792)" d="M5899.3 7594.7 6445.7 6941.1V7741.1L6099.3 7941.1Z" fill="#ebb254"/>
<path transform="matrix(.1,0,0,-.1,0,792)" stroke-width="100" stroke-linecap="butt" stroke-linejoin="bevel" fill="none" stroke="#000000" d="M5899.3 7594.7 6445.7 6941.1V7741.1L6099.3 7941.1Z"/>
<path transform="matrix(.1,0,0,-.1,0,792)" stroke-width="100" stroke-linecap="butt" stroke-linejoin="bevel" fill="none" stroke="#000000" d="M5899.3 8287.5 6099.3 7941.1 6445.7 8141.1V8941.1Z"/>
<path transform="matrix(.1,0,0,-.1,0,792)" stroke-width="100" stroke-linecap="butt" stroke-linejoin="bevel" fill="none" stroke="#000000" d="M113.699 8287.5-432.699 8941.1V8141.1L-86.3008 7941.1Z"/>
<path transform="matrix(.1,0,0,-.1,0,792)" d="M113.699 23.3984 767.301-523 1113.7-323 913.699 23.3984H513.699" fill="#ebb254"/>
<path transform="matrix(.1,0,0,-.1,0,792)" stroke-width="100" stroke-linecap="butt" stroke-linejoin="bevel" fill="none" stroke="#000000" d="M113.699 23.3984 767.301-523 1113.7-323 913.699 23.3984H513.699Z"/>
<path transform="matrix(.1,0,0,-.1,0,792)" d="M113.699 23.3984-432.699-630.199 220.898-1176.6 767.301-523Z" fill="#ebb254"/>
<path transform="matrix(.1,0,0,-.1,0,792)" stroke-width="100" stroke-linecap="butt" stroke-linejoin="bevel" fill="none" stroke="#000000" d="M113.699 23.3984-432.699-630.199 220.898-1176.6 767.301-523Z"/>
<path transform="matrix(.1,0,0,-.1,0,792)" d="M113.699 23.3984-86.3008 369.801-432.699 169.801V-630.199Z" fill="#ebb254"/>
<path transform="matrix(.1,0,0,-.1,0,792)" stroke-width="100" stroke-linecap="butt" stroke-linejoin="bevel" fill="none" stroke="#000000" d="M113.699 23.3984-86.3008 369.801-432.699 169.801V-630.199Z"/>
<path transform="matrix(.1,0,0,-.1,0,792)" d="M1313.7 23.3984 1113.7-323 1460.1-523 2113.7 23.3984H1713.7" fill="#ebb254"/>
<path transform="matrix(.1,0,0,-.1,0,792)" stroke-width="100" stroke-linecap="butt" stroke-linejoin="bevel" fill="none" stroke="#000000" d="M1313.7 23.3984 1113.7-323 1460.1-523 2113.7 23.3984H1713.7Z"/>
<path transform="matrix(.1,0,0,-.1,0,792)" d="M2113.7 23.3984 1460.1-523 2006.5-1176.6 2660.1-630.199Z" fill="#ebb254"/>
<path transform="matrix(.1,0,0,-.1,0,792)" stroke-width="100" stroke-linecap="butt" stroke-linejoin="bevel" fill="none" stroke="#000000" d="M2113.7 23.3984 1460.1-523 2006.5-1176.6 2660.1-630.199Z"/>
<path transform="matrix(.1,0,0,-.1,0,792)" d="M3899.3 23.3984 4552.9-523 4899.3-323 4699.3 23.3984H4299.3" fill="#ebb254"/>
<path transform="matrix(.1,0,0,-.1,0,792)" stroke-width="100" stroke-linecap="butt" stroke-linejoin="bevel" fill="none" stroke="#000000" d="M3899.3 23.3984 4552.9-523 4899.3-323 4699.3 23.3984H4299.3Z"/>
<path transform="matrix(.1,0,0,-.1,0,792)" d="M3899.3 23.3984 3352.9-630.199 4006.5-1176.6 4552.9-523Z" fill="#ebb254"/>
<path transform="matrix(.1,0,0,-.1,0,792)" stroke-width="100" stroke-linecap="butt" stroke-linejoin="bevel" fill="none" stroke="#000000" d="M3899.3 23.3984 3352.9-630.199 4006.5-1176.6 4552.9-523Z"/>
<path transform="matrix(.1,0,0,-.1,0,792)" d="M5099.3 23.3984 4899.3-323 5245.7-523 5899.3 23.3984H5499.3" fill="#ebb254"/>
<path transform="matrix(.1,0,0,-.1,0,792)" stroke-width="100" stroke-linecap="butt" stroke-linejoin="bevel" fill="none" stroke="#000000" d="M5099.3 23.3984 4899.3-323 5245.7-523 5899.3 23.3984H5499.3Z"/>
<path transform="matrix(.1,0,0,-.1,0,792)" d="M5899.3 23.3984 6445.7-630.199V169.801L6099.3 369.801Z" fill="#ebb254"/>
<path transform="matrix(.1,0,0,-.1,0,792)" stroke-width="100" stroke-linecap="butt" stroke-linejoin="bevel" fill="none" stroke="#000000" d="M5899.3 23.3984 6445.7-630.199V169.801L6099.3 369.801Z"/>
<path transform="matrix(.1,0,0,-.1,0,792)" d="M5899.3 23.3984 5245.7-523 5792.1-1176.6 6445.7-630.199Z" fill="#ebb254"/>
<path transform="matrix(.1,0,0,-.1,0,792)" stroke-width="100" stroke-linecap="butt" stroke-linejoin="bevel" fill="none" stroke="#000000" d="M5899.3 23.3984 5245.7-523 5792.1-1176.6 6445.7-630.199Z"/>
<path transform="matrix(.1,0,0,-.1,0,792)" stroke-width="100" stroke-linecap="butt" stroke-linejoin="bevel" fill="none" stroke="#000000" d="M3006.5-30.1992 2660.1-230.199V-630.199L3006.5-830.199 3352.9-630.199V-230.199Z"/>
<path transform="matrix(.1,0,0,-.1,0,792)" d="M6099.3 369.801 6445.7 169.801V-230.199L6792.1-30.1992 7138.5-230.199V169.801L7485 369.801 7138.5 569.801V969.801L6792.1 769.801 6445.7 969.801V569.801" fill="#f8e6bd"/>
<path transform="matrix(.1,0,0,-.1,0,792)" stroke-width="100" stroke-linecap="butt" stroke-linejoin="bevel" fill="none" stroke="#000000" d="M6099.3 369.801 6445.7 169.801V-230.199L6792.1-30.1992 7138.5-230.199V169.801L7485 369.801 7138.5 569.801V969.801L6792.1 769.801 6445.7 969.801V569.801Z"/>
<path transform="matrix(.1,0,0,-.1,0,792)" d="M6099.3 4155.5 6445.7 3955.5V3555.5L6792.1 3755.5 7138.5 3555.5V3955.5L7485 4155.5 7138.5 4355.5V4755.5L6792.1 4555.5 6445.7 4755.5V4355.5" fill="#f8e6bd"/>
<path transform="matrix(.1,0,0,-.1,0,792)" stroke-width="100" stroke-linecap="butt" stroke-linejoin="bevel" fill="none" stroke="#000000" d="M6099.3 4155.5 6445.7 3955.5V3555.5L6792.1 3755.5 7138.5 3555.5V3955.5L7485 4155.5 7138.5 4355.5V4755.5L6792.1 4555.5 6445.7 4755.5V4355.5Z"/>
<path transform="matrix(.1,0,0,-.1,0,792)" d="M6099.3 7941.1 6445.7 7741.1V7341.1L6792.1 7541.1 7138.5 7341.1V7741.1L7485 7941.1 7138.5 8141.1V8541.1L6792.1 8341.1 6445.7 8541.1V8141.1" fill="#f8e6bd"/>
<path transform="matrix(.1,0,0,-.1,0,792)" stroke-width="100" stroke-linecap="butt" stroke-linejoin="bevel" fill="none" stroke="#000000" d="M6099.3 7941.1 6445.7 7741.1V7341.1L6792.1 7541.1 7138.5 7341.1V7741.1L7485 7941.1 7138.5 8141.1V8541.1L6792.1 8341.1 6445.7 8541.1V8141.1Z"/>
</svg>
