<svg xmlns="http://www.w3.org/2000/svg" xmlns:xlink="http://www.w3.org/1999/xlink" xmlns:inkscape="http://www.inkscape.org/namespaces/inkscape" version="1.1" width="612" height="792" viewBox="0 0 612 792">
<path transform="matrix(.1,0,0,-.1,0,792)" d="M3076.3 2981.8H3476.3L3676.3 3328.2 3576.3 3501.4H3376.3L3276.3 3328.2H3476.3L3376.3 3155H3176.3L3076.3 3328.2 3276.3 3674.6H3676.3 3876.3 4076.3L4276.3 4021 4076.3 4367.5H3876.3L3776.3 4194.3 3876.3 4021 3976.3 4194.3 4076.3 4021 3976.3 3847.8H3776.3L3576.3 4194.3 3776.3 4540.7 3876.3 4713.9 3976.3 4887.1 3776.3 5233.5H3376.3L3276.3 5060.3 3376.3 4887.1H3576.3L3476.3 5060.3H3676.3L3776.3 4887.1 3676.3 4713.9H3276.3L3076.3 5060.3 2976.3 5233.5 2876.3 5406.7H2476.3L2276.3 5060.3 2376.3 4887.1H2576.3L2676.3 5060.3H2476.3L2576.3 5233.5H2776.3L2876.3 5060.3 2676.3 4713.9H2276.3 2076.3 1876.3L1676.3 4367.5 1876.3 4021H2076.3L2176.3 4194.3 2076.3 4367.5 1976.3 4194.3 1876.3 4367.5 1976.3 4540.7H2176.3L2376.3 4194.3 2176.3 3847.8 2076.3 3674.6 1976.3 3501.4 2176.3 3155H2576.3L2676.3 3328.2 2576.3 3501.4H2376.3L2476.3 3328.2H2276.3L2176.3 3501.4 2276.3 3674.6H2676.3L2876.3 3328.2 2976.3 3155" fill="#b80000"/>
<path transform="matrix(.1,0,0,-.1,0,792)" stroke-width="50" stroke-linecap="butt" stroke-miterlimit="10" stroke-linejoin="miter" fill="none" stroke="#ffffff" d="M3076.3 2981.8H3476.3L3676.3 3328.2 3576.3 3501.4H3376.3L3276.3 3328.2H3476.3L3376.3 3155H3176.3L3076.3 3328.2 3276.3 3674.6H3676.3 3876.3 4076.3L4276.3 4021 4076.3 4367.5H3876.3L3776.3 4194.3 3876.3 4021 3976.3 4194.3 4076.3 4021 3976.3 3847.8H3776.3L3576.3 4194.3 3776.3 4540.7 3876.3 4713.9 3976.3 4887.1 3776.3 5233.5H3376.3L3276.3 5060.3 3376.3 4887.1H3576.3L3476.3 5060.3H3676.3L3776.3 4887.1 3676.3 4713.9H3276.3L3076.3 5060.3 2976.3 5233.5 2876.3 5406.7H2476.3L2276.3 5060.3 2376.3 4887.1H2576.3L2676.3 5060.3H2476.3L2576.3 5233.5H2776.3L2876.3 5060.3 2676.3 4713.9H2276.3 2076.3 1876.3L1676.3 4367.5 1876.3 4021H2076.3L2176.3 4194.3 2076.3 4367.5 1976.3 4194.3 1876.3 4367.5 1976.3 4540.7H2176.3L2376.3 4194.3 2176.3 3847.8 2076.3 3674.6 1976.3 3501.4 2176.3 3155H2576.3L2676.3 3328.2 2576.3 3501.4H2376.3L2476.3 3328.2H2276.3L2176.3 3501.4 2276.3 3674.6H2676.3L2876.3 3328.2 2976.3 3155Z"/>
<path transform="matrix(.1,0,0,-.1,0,792)" d="M2976.3 3155 2876.3 3328.2 2776.3 3155 2676.3 2981.8H2876.3 3076.3" fill="#adc29e"/>
<path transform="matrix(.1,0,0,-.1,0,792)" stroke-width="50" stroke-linecap="butt" stroke-miterlimit="10" stroke-linejoin="miter" fill="none" stroke="#ffffff" d="M2976.3 3155 2876.3 3328.2 2776.3 3155 2676.3 2981.8H2876.3 3076.3Z"/>
<path transform="matrix(.1,0,0,-.1,0,792)" d="M3676.3 3674.6 3776.3 3501.4 3876.3 3328.2 3976.3 3501.4 4076.3 3674.6H3876.3" fill="#adc29e"/>
<path transform="matrix(.1,0,0,-.1,0,792)" stroke-width="50" stroke-linecap="butt" stroke-miterlimit="10" stroke-linejoin="miter" fill="none" stroke="#ffffff" d="M3676.3 3674.6 3776.3 3501.4 3876.3 3328.2 3976.3 3501.4 4076.3 3674.6H3876.3Z"/>
<path transform="matrix(.1,0,0,-.1,0,792)" d="M3776.3 4540.7H4176.3L4076.3 4713.9 3976.3 4887.1 3876.3 4713.9" fill="#adc29e"/>
<path transform="matrix(.1,0,0,-.1,0,792)" stroke-width="50" stroke-linecap="butt" stroke-miterlimit="10" stroke-linejoin="miter" fill="none" stroke="#ffffff" d="M3776.3 4540.7H4176.3L4076.3 4713.9 3976.3 4887.1 3876.3 4713.9Z"/>
<path transform="matrix(.1,0,0,-.1,0,792)" d="M3076.3 5060.3 3176.3 5233.5 3276.3 5406.7H2876.3L2976.3 5233.5" fill="#adc29e"/>
<path transform="matrix(.1,0,0,-.1,0,792)" stroke-width="50" stroke-linecap="butt" stroke-miterlimit="10" stroke-linejoin="miter" fill="none" stroke="#ffffff" d="M3076.3 5060.3 3176.3 5233.5 3276.3 5406.7H2876.3L2976.3 5233.5Z"/>
<path transform="matrix(.1,0,0,-.1,0,792)" d="M2176.3 3847.8H1776.3L1876.3 3674.6 1976.3 3501.4 2076.3 3674.6" fill="#adc29e"/>
<path transform="matrix(.1,0,0,-.1,0,792)" stroke-width="50" stroke-linecap="butt" stroke-miterlimit="10" stroke-linejoin="miter" fill="none" stroke="#ffffff" d="M2176.3 3847.8H1776.3L1876.3 3674.6 1976.3 3501.4 2076.3 3674.6Z"/>
<path transform="matrix(.1,0,0,-.1,0,792)" d="M3276.3 4713.9H3676.3L3776.3 4887.1 3676.3 5060.3H3476.3L3576.3 4887.1H3376.3L3276.3 5060.3 3376.3 5233.5H3776.3L3976.3 4887.1 4076.3 4713.9 4176.3 4540.7H4576.3L4776.3 4887.1 4676.3 5060.3H4476.3L4376.3 4887.1H4576.3L4476.3 4713.9H4276.3L4176.3 4887.1 4376.3 5233.5H4776.3 4976.3 5176.3L5376.3 5579.9 5176.3 5926.3H4976.3L4876.3 5753.1 4976.3 5579.9 5076.3 5753.1 5176.3 5579.9 5076.3 5406.7H4876.3L4676.3 5753.1 4876.3 6099.5 4976.3 6272.7 5076.3 6445.9 4876.3 6792.3H4476.3L4376.3 6619.1 4476.3 6445.9H4676.3L4576.3 6619.1H4776.3L4876.3 6445.9 4776.3 6272.7H4376.3L4176.3 6619.1 4076.3 6792.3 3976.3 6965.5H3576.3L3376.3 6619.1 3476.3 6445.9H3676.3L3776.3 6619.1H3576.3L3676.3 6792.3H3876.3L3976.3 6619.1 3776.3 6272.7H3376.3 3176.3 2976.3L2776.3 5926.3 2976.3 5579.9H3176.3L3276.3 5753.1 3176.3 5926.3 3076.3 5753.1 2976.3 5926.3 3076.3 6099.5H3276.3L3476.3 5753.1 3276.3 5406.7 3176.3 5233.5 3076.3 5060.3" fill="#b80000"/>
<path transform="matrix(.1,0,0,-.1,0,792)" stroke-width="50" stroke-linecap="butt" stroke-miterlimit="10" stroke-linejoin="miter" fill="none" stroke="#ffffff" d="M3276.3 4713.9H3676.3L3776.3 4887.1 3676.3 5060.3H3476.3L3576.3 4887.1H3376.3L3276.3 5060.3 3376.3 5233.5H3776.3L3976.3 4887.1 4076.3 4713.9 4176.3 4540.7H4576.3L4776.3 4887.1 4676.3 5060.3H4476.3L4376.3 4887.1H4576.3L4476.3 4713.9H4276.3L4176.3 4887.1 4376.3 5233.5H4776.3 4976.3 5176.3L5376.3 5579.9 5176.3 5926.3H4976.3L4876.3 5753.1 4976.3 5579.9 5076.3 5753.1 5176.3 5579.9 5076.3 5406.7H4876.3L4676.3 5753.1 4876.3 6099.5 4976.3 6272.7 5076.3 6445.9 4876.3 6792.3H4476.3L4376.3 6619.1 4476.3 6445.9H4676.3L4576.3 6619.1H4776.3L4876.3 6445.9 4776.3 6272.7H4376.3L4176.3 6619.1 4076.3 6792.3 3976.3 6965.5H3576.3L3376.3 6619.1 3476.3 6445.9H3676.3L3776.3 6619.1H3576.3L3676.3 6792.3H3876.3L3976.3 6619.1 3776.3 6272.7H3376.3 3176.3 2976.3L2776.3 5926.3 2976.3 5579.9H3176.3L3276.3 5753.1 3176.3 5926.3 3076.3 5753.1 2976.3 5926.3 3076.3 6099.5H3276.3L3476.3 5753.1 3276.3 5406.7 3176.3 5233.5 3076.3 5060.3Z"/>
<path transform="matrix(.1,0,0,-.1,0,792)" d="M4776.3 5233.5 4876.3 5060.3 4976.3 4887.1 5076.3 5060.3 5176.3 5233.5H4976.3" fill="#adc29e"/>
<path transform="matrix(.1,0,0,-.1,0,792)" stroke-width="50" stroke-linecap="butt" stroke-miterlimit="10" stroke-linejoin="miter" fill="none" stroke="#ffffff" d="M4776.3 5233.5 4876.3 5060.3 4976.3 4887.1 5076.3 5060.3 5176.3 5233.5H4976.3Z"/>
<path transform="matrix(.1,0,0,-.1,0,792)" d="M4876.3 6099.5H5276.3L5176.3 6272.7 5076.3 6445.9 4976.3 6272.7" fill="#adc29e"/>
<path transform="matrix(.1,0,0,-.1,0,792)" stroke-width="50" stroke-linecap="butt" stroke-miterlimit="10" stroke-linejoin="miter" fill="none" stroke="#ffffff" d="M4876.3 6099.5H5276.3L5176.3 6272.7 5076.3 6445.9 4976.3 6272.7Z"/>
<path transform="matrix(.1,0,0,-.1,0,792)" d="M3376.3 6272.7 3276.3 6445.9 3176.3 6619.1 3076.3 6445.9 2976.3 6272.7H3176.3" fill="#adc29e"/>
<path transform="matrix(.1,0,0,-.1,0,792)" stroke-width="50" stroke-linecap="butt" stroke-miterlimit="10" stroke-linejoin="miter" fill="none" stroke="#ffffff" d="M3376.3 6272.7 3276.3 6445.9 3176.3 6619.1 3076.3 6445.9 2976.3 6272.7H3176.3Z"/>
<path transform="matrix(.1,0,0,-.1,0,792)" d="M2676.3 4713.9 2876.3 5060.3 2776.3 5233.5H2576.3L2476.3 5060.3H2676.3L2576.3 4887.1H2376.3L2276.3 5060.3 2476.3 5406.7H2876.3 3076.3 3276.3L3476.3 5753.1 3276.3 6099.5H3076.3L2976.3 5926.3 3076.3 5753.1 3176.3 5926.3 3276.3 5753.1 3176.3 5579.9H2976.3L2776.3 5926.3 2976.3 6272.7 3076.3 6445.9 3176.3 6619.1 2976.3 6965.5H2576.3L2476.3 6792.3 2576.3 6619.1H2776.3L2676.3 6792.3H2876.3L2976.3 6619.1 2876.3 6445.9H2476.3L2276.3 6792.3 2176.3 6965.5 2076.3 7138.7H1676.3L1476.3 6792.3 1576.3 6619.1H1776.3L1876.3 6792.3H1676.3L1776.3 6965.5H1976.3L2076.3 6792.3 1876.3 6445.9H1476.3 1276.3 1076.3L876.301 6099.5 1076.3 5753.1H1276.3L1376.3 5926.3 1276.3 6099.5 1176.3 5926.3 1076.3 6099.5 1176.3 6272.7H1376.3L1576.3 5926.3 1376.3 5579.9 1276.3 5406.7 1176.3 5233.5 1376.3 4887.1H1776.3L1876.3 5060.3 1776.3 5233.5H1576.3L1676.3 5060.3H1476.3L1376.3 5233.5 1476.3 5406.7H1876.3L2076.3 5060.3 2176.3 4887.1 2276.3 4713.9" fill="#b80000"/>
<path transform="matrix(.1,0,0,-.1,0,792)" stroke-width="50" stroke-linecap="butt" stroke-miterlimit="10" stroke-linejoin="miter" fill="none" stroke="#ffffff" d="M2676.3 4713.9 2876.3 5060.3 2776.3 5233.5H2576.3L2476.3 5060.3H2676.3L2576.3 4887.1H2376.3L2276.3 5060.3 2476.3 5406.7H2876.3 3076.3 3276.3L3476.3 5753.1 3276.3 6099.5H3076.3L2976.3 5926.3 3076.3 5753.1 3176.3 5926.3 3276.3 5753.1 3176.3 5579.9H2976.3L2776.3 5926.3 2976.3 6272.7 3076.3 6445.9 3176.3 6619.1 2976.3 6965.5H2576.3L2476.3 6792.3 2576.3 6619.1H2776.3L2676.3 6792.3H2876.3L2976.3 6619.1 2876.3 6445.9H2476.3L2276.3 6792.3 2176.3 6965.5 2076.3 7138.7H1676.3L1476.3 6792.3 1576.3 6619.1H1776.3L1876.3 6792.3H1676.3L1776.3 6965.5H1976.3L2076.3 6792.3 1876.3 6445.9H1476.3 1276.3 1076.3L876.301 6099.5 1076.3 5753.1H1276.3L1376.3 5926.3 1276.3 6099.5 1176.3 5926.3 1076.3 6099.5 1176.3 6272.7H1376.3L1576.3 5926.3 1376.3 5579.9 1276.3 5406.7 1176.3 5233.5 1376.3 4887.1H1776.3L1876.3 5060.3 1776.3 5233.5H1576.3L1676.3 5060.3H1476.3L1376.3 5233.5 1476.3 5406.7H1876.3L2076.3 5060.3 2176.3 4887.1 2276.3 4713.9Z"/>
<path transform="matrix(.1,0,0,-.1,0,792)" d="M2276.3 6792.3 2376.3 6965.5 2476.3 7138.7H2076.3L2176.3 6965.5" fill="#adc29e"/>
<path transform="matrix(.1,0,0,-.1,0,792)" stroke-width="50" stroke-linecap="butt" stroke-miterlimit="10" stroke-linejoin="miter" fill="none" stroke="#ffffff" d="M2276.3 6792.3 2376.3 6965.5 2476.3 7138.7H2076.3L2176.3 6965.5Z"/>
<path transform="matrix(.1,0,0,-.1,0,792)" d="M1476.3 6445.9 1376.3 6619.1 1276.3 6792.3 1176.3 6619.1 1076.3 6445.9H1276.3" fill="#adc29e"/>
<path transform="matrix(.1,0,0,-.1,0,792)" stroke-width="50" stroke-linecap="butt" stroke-miterlimit="10" stroke-linejoin="miter" fill="none" stroke="#ffffff" d="M1476.3 6445.9 1376.3 6619.1 1276.3 6792.3 1176.3 6619.1 1076.3 6445.9H1276.3Z"/>
<path transform="matrix(.1,0,0,-.1,0,792)" d="M1376.3 5579.9H976.301L1076.3 5406.7 1176.3 5233.5 1276.3 5406.7" fill="#adc29e"/>
<path transform="matrix(.1,0,0,-.1,0,792)" stroke-width="50" stroke-linecap="butt" stroke-miterlimit="10" stroke-linejoin="miter" fill="none" stroke="#ffffff" d="M1376.3 5579.9H976.301L1076.3 5406.7 1176.3 5233.5 1276.3 5406.7Z"/>
<path transform="matrix(.1,0,0,-.1,0,792)" d="M2076.3 5060.3 1976.3 4887.1 1876.3 4713.9H2276.3L2176.3 4887.1" fill="#adc29e"/>
<path transform="matrix(.1,0,0,-.1,0,792)" stroke-width="50" stroke-linecap="butt" stroke-miterlimit="10" stroke-linejoin="miter" fill="none" stroke="#ffffff" d="M2076.3 5060.3 1976.3 4887.1 1876.3 4713.9H2276.3L2176.3 4887.1Z"/>
<path transform="matrix(.1,0,0,-.1,0,792)" d="M2676.3 3674.6H2276.3L2176.3 3501.4 2276.3 3328.2H2476.3L2376.3 3501.4H2576.3L2676.3 3328.2 2576.3 3155H2176.3L1976.3 3501.4 1876.3 3674.6 1776.3 3847.8H1376.3L1176.3 3501.4 1276.3 3328.2H1476.3L1576.3 3501.4H1376.3L1476.3 3674.6H1676.3L1776.3 3501.4 1576.3 3155H1176.3 976.301 776.301L576.301 2808.6 776.301 2462.2H976.301L1076.3 2635.4 976.301 2808.6 876.301 2635.4 776.301 2808.6 876.301 2981.8H1076.3L1276.3 2635.4 1076.3 2289 976.301 2115.8 876.301 1942.6 1076.3 1596.2H1476.3L1576.3 1769.4 1476.3 1942.6H1276.3L1376.3 1769.4H1176.3L1076.3 1942.6 1176.3 2115.8H1576.3L1776.3 1769.4 1876.3 1596.2 1976.3 1423H2376.3L2576.3 1769.4 2476.3 1942.6H2276.3L2176.3 1769.4H2376.3L2276.3 1596.2H2076.3L1976.3 1769.4 2176.3 2115.8H2576.3 2776.3 2976.3L3176.3 2462.2 2976.3 2808.6H2776.3L2676.3 2635.4 2776.3 2462.2 2876.3 2635.4 2976.3 2462.2 2876.3 2289H2676.3L2476.3 2635.4 2676.3 2981.8 2776.3 3155 2876.3 3328.2" fill="#b80000"/>
<path transform="matrix(.1,0,0,-.1,0,792)" stroke-width="50" stroke-linecap="butt" stroke-miterlimit="10" stroke-linejoin="miter" fill="none" stroke="#ffffff" d="M2676.3 3674.6H2276.3L2176.3 3501.4 2276.3 3328.2H2476.3L2376.3 3501.4H2576.3L2676.3 3328.2 2576.3 3155H2176.3L1976.3 3501.4 1876.3 3674.6 1776.3 3847.8H1376.3L1176.3 3501.4 1276.3 3328.2H1476.3L1576.3 3501.4H1376.3L1476.3 3674.6H1676.3L1776.3 3501.4 1576.3 3155H1176.3 976.301 776.301L576.301 2808.6 776.301 2462.2H976.301L1076.3 2635.4 976.301 2808.6 876.301 2635.4 776.301 2808.6 876.301 2981.8H1076.3L1276.3 2635.4 1076.3 2289 976.301 2115.8 876.301 1942.6 1076.3 1596.2H1476.3L1576.3 1769.4 1476.3 1942.6H1276.3L1376.3 1769.4H1176.3L1076.3 1942.6 1176.3 2115.8H1576.3L1776.3 1769.4 1876.3 1596.2 1976.3 1423H2376.3L2576.3 1769.4 2476.3 1942.6H2276.3L2176.3 1769.4H2376.3L2276.3 1596.2H2076.3L1976.3 1769.4 2176.3 2115.8H2576.3 2776.3 2976.3L3176.3 2462.2 2976.3 2808.6H2776.3L2676.3 2635.4 2776.3 2462.2 2876.3 2635.4 2976.3 2462.2 2876.3 2289H2676.3L2476.3 2635.4 2676.3 2981.8 2776.3 3155 2876.3 3328.2Z"/>
<path transform="matrix(.1,0,0,-.1,0,792)" d="M1176.3 3155 1076.3 3328.2 976.301 3501.4 876.301 3328.2 776.301 3155H976.301" fill="#adc29e"/>
<path transform="matrix(.1,0,0,-.1,0,792)" stroke-width="50" stroke-linecap="butt" stroke-miterlimit="10" stroke-linejoin="miter" fill="none" stroke="#ffffff" d="M1176.3 3155 1076.3 3328.2 976.301 3501.4 876.301 3328.2 776.301 3155H976.301Z"/>
<path transform="matrix(.1,0,0,-.1,0,792)" d="M1076.3 2289H676.301L776.301 2115.8 876.301 1942.6 976.301 2115.8" fill="#adc29e"/>
<path transform="matrix(.1,0,0,-.1,0,792)" stroke-width="50" stroke-linecap="butt" stroke-miterlimit="10" stroke-linejoin="miter" fill="none" stroke="#ffffff" d="M1076.3 2289H676.301L776.301 2115.8 876.301 1942.6 976.301 2115.8Z"/>
<path transform="matrix(.1,0,0,-.1,0,792)" d="M1776.3 1769.4 1676.3 1596.2 1576.3 1423H1976.3L1876.3 1596.2" fill="#adc29e"/>
<path transform="matrix(.1,0,0,-.1,0,792)" stroke-width="50" stroke-linecap="butt" stroke-miterlimit="10" stroke-linejoin="miter" fill="none" stroke="#ffffff" d="M1776.3 1769.4 1676.3 1596.2 1576.3 1423H1976.3L1876.3 1596.2Z"/>
<path transform="matrix(.1,0,0,-.1,0,792)" d="M2576.3 2115.8 2676.3 1942.6 2776.3 1769.4 2876.3 1942.6 2976.3 2115.8H2776.3" fill="#adc29e"/>
<path transform="matrix(.1,0,0,-.1,0,792)" stroke-width="50" stroke-linecap="butt" stroke-miterlimit="10" stroke-linejoin="miter" fill="none" stroke="#ffffff" d="M2576.3 2115.8 2676.3 1942.6 2776.3 1769.4 2876.3 1942.6 2976.3 2115.8H2776.3Z"/>
<path transform="matrix(.1,0,0,-.1,0,792)" d="M3276.3 3674.6 3076.3 3328.2 3176.3 3155H3376.3L3476.3 3328.2H3276.3L3376.3 3501.4H3576.3L3676.3 3328.2 3476.3 2981.8H3076.3 2876.3 2676.3L2476.3 2635.4 2676.3 2289H2876.3L2976.3 2462.2 2876.3 2635.4 2776.3 2462.2 2676.3 2635.4 2776.3 2808.6H2976.3L3176.3 2462.2 2976.3 2115.8 2876.3 1942.6 2776.3 1769.4 2976.3 1423H3376.3L3476.3 1596.2 3376.3 1769.4H3176.3L3276.3 1596.2H3076.3L2976.3 1769.4 3076.3 1942.6H3476.3L3676.3 1596.2 3776.3 1423 3876.3 1249.8H4276.3L4476.3 1596.2 4376.3 1769.4H4176.3L4076.3 1596.2H4276.3L4176.3 1423H3976.3L3876.3 1596.2 4076.3 1942.6H4476.3 4676.3 4876.3L5076.3 2289 4876.3 2635.4H4676.3L4576.3 2462.2 4676.3 2289 4776.3 2462.2 4876.3 2289 4776.3 2115.8H4576.3L4376.3 2462.2 4576.3 2808.6 4676.3 2981.8 4776.3 3155 4576.3 3501.4H4176.3L4076.3 3328.2 4176.3 3155H4376.3L4276.3 3328.2H4476.3L4576.3 3155 4476.3 2981.8H4076.3L3876.3 3328.2 3776.3 3501.4 3676.3 3674.6" fill="#b80000"/>
<path transform="matrix(.1,0,0,-.1,0,792)" stroke-width="50" stroke-linecap="butt" stroke-miterlimit="10" stroke-linejoin="miter" fill="none" stroke="#ffffff" d="M3276.3 3674.6 3076.3 3328.2 3176.3 3155H3376.3L3476.3 3328.2H3276.3L3376.3 3501.4H3576.3L3676.3 3328.2 3476.3 2981.8H3076.3 2876.3 2676.3L2476.3 2635.4 2676.3 2289H2876.3L2976.3 2462.2 2876.3 2635.4 2776.3 2462.2 2676.3 2635.4 2776.3 2808.6H2976.3L3176.3 2462.2 2976.3 2115.8 2876.3 1942.6 2776.3 1769.4 2976.3 1423H3376.3L3476.3 1596.2 3376.3 1769.4H3176.3L3276.3 1596.2H3076.3L2976.3 1769.4 3076.3 1942.6H3476.3L3676.3 1596.2 3776.3 1423 3876.3 1249.8H4276.3L4476.3 1596.2 4376.3 1769.4H4176.3L4076.3 1596.2H4276.3L4176.3 1423H3976.3L3876.3 1596.2 4076.3 1942.6H4476.3 4676.3 4876.3L5076.3 2289 4876.3 2635.4H4676.3L4576.3 2462.2 4676.3 2289 4776.3 2462.2 4876.3 2289 4776.3 2115.8H4576.3L4376.3 2462.2 4576.3 2808.6 4676.3 2981.8 4776.3 3155 4576.3 3501.4H4176.3L4076.3 3328.2 4176.3 3155H4376.3L4276.3 3328.2H4476.3L4576.3 3155 4476.3 2981.8H4076.3L3876.3 3328.2 3776.3 3501.4 3676.3 3674.6Z"/>
<path transform="matrix(.1,0,0,-.1,0,792)" d="M3676.3 1596.2 3576.3 1423 3476.3 1249.8H3876.3L3776.3 1423" fill="#adc29e"/>
<path transform="matrix(.1,0,0,-.1,0,792)" stroke-width="50" stroke-linecap="butt" stroke-miterlimit="10" stroke-linejoin="miter" fill="none" stroke="#ffffff" d="M3676.3 1596.2 3576.3 1423 3476.3 1249.8H3876.3L3776.3 1423Z"/>
<path transform="matrix(.1,0,0,-.1,0,792)" d="M4476.3 1942.6 4576.3 1769.4 4676.3 1596.2 4776.3 1769.4 4876.3 1942.6H4676.3" fill="#adc29e"/>
<path transform="matrix(.1,0,0,-.1,0,792)" stroke-width="50" stroke-linecap="butt" stroke-miterlimit="10" stroke-linejoin="miter" fill="none" stroke="#ffffff" d="M4476.3 1942.6 4576.3 1769.4 4676.3 1596.2 4776.3 1769.4 4876.3 1942.6H4676.3Z"/>
<path transform="matrix(.1,0,0,-.1,0,792)" d="M4576.3 2808.6H4976.3L4876.3 2981.8 4776.3 3155 4676.3 2981.8" fill="#adc29e"/>
<path transform="matrix(.1,0,0,-.1,0,792)" stroke-width="50" stroke-linecap="butt" stroke-miterlimit="10" stroke-linejoin="miter" fill="none" stroke="#ffffff" d="M4576.3 2808.6H4976.3L4876.3 2981.8 4776.3 3155 4676.3 2981.8Z"/>
<path transform="matrix(.1,0,0,-.1,0,792)" d="M2376.3 4194.3 2176.3 4540.7H1976.3L1876.3 4367.5 1976.3 4194.3 2076.3 4367.5 2176.3 4194.3 2076.3 4021H1876.3L1676.3 4367.5 1876.3 4713.9 1976.3 4887.1 2076.3 5060.3 1876.3 5406.7H1476.3L1376.3 5233.5 1476.3 5060.3H1676.3L1576.3 5233.5H1776.3L1876.3 5060.3 1776.3 4887.1H1376.3L1176.3 5233.5 1076.3 5406.7 976.301 5579.9H576.301L376.301 5233.5 476.301 5060.3H676.301L776.301 5233.5H576.301L676.301 5406.7H876.301L976.301 5233.5 776.301 4887.1H376.301 176.301-23.6992L-223.699 4540.7-23.6992 4194.3H176.301L276.301 4367.5 176.301 4540.7 76.3008 4367.5-23.6992 4540.7 76.3008 4713.9H276.301L476.301 4367.5 276.301 4021 176.301 3847.8 76.3008 3674.6 276.301 3328.2H676.301L776.301 3501.4 676.301 3674.6H476.301L576.301 3501.4H376.301L276.301 3674.6 376.301 3847.8H776.301L976.301 3501.4 1076.3 3328.2 1176.3 3155H1576.3L1776.3 3501.4 1676.3 3674.6H1476.3L1376.3 3501.4H1576.3L1476.3 3328.2H1276.3L1176.3 3501.4 1376.3 3847.8H1776.3 1976.3 2176.3" fill="#b80000"/>
<path transform="matrix(.1,0,0,-.1,0,792)" stroke-width="50" stroke-linecap="butt" stroke-miterlimit="10" stroke-linejoin="miter" fill="none" stroke="#ffffff" d="M2376.3 4194.3 2176.3 4540.7H1976.3L1876.3 4367.5 1976.3 4194.3 2076.3 4367.5 2176.3 4194.3 2076.3 4021H1876.3L1676.3 4367.5 1876.3 4713.9 1976.3 4887.1 2076.3 5060.3 1876.3 5406.7H1476.3L1376.3 5233.5 1476.3 5060.3H1676.3L1576.3 5233.5H1776.3L1876.3 5060.3 1776.3 4887.1H1376.3L1176.3 5233.5 1076.3 5406.7 976.301 5579.9H576.301L376.301 5233.5 476.301 5060.3H676.301L776.301 5233.5H576.301L676.301 5406.7H876.301L976.301 5233.5 776.301 4887.1H376.301 176.301-23.6992L-223.699 4540.7-23.6992 4194.3H176.301L276.301 4367.5 176.301 4540.7 76.3008 4367.5-23.6992 4540.7 76.3008 4713.9H276.301L476.301 4367.5 276.301 4021 176.301 3847.8 76.3008 3674.6 276.301 3328.2H676.301L776.301 3501.4 676.301 3674.6H476.301L576.301 3501.4H376.301L276.301 3674.6 376.301 3847.8H776.301L976.301 3501.4 1076.3 3328.2 1176.3 3155H1576.3L1776.3 3501.4 1676.3 3674.6H1476.3L1376.3 3501.4H1576.3L1476.3 3328.2H1276.3L1176.3 3501.4 1376.3 3847.8H1776.3 1976.3 2176.3Z"/>
<path transform="matrix(.1,0,0,-.1,0,792)" d="M376.301 4887.1 276.301 5060.3 176.301 5233.5 76.3008 5060.3-23.6992 4887.1H176.301" fill="#adc29e"/>
<path transform="matrix(.1,0,0,-.1,0,792)" stroke-width="50" stroke-linecap="butt" stroke-miterlimit="10" stroke-linejoin="miter" fill="none" stroke="#ffffff" d="M376.301 4887.1 276.301 5060.3 176.301 5233.5 76.3008 5060.3-23.6992 4887.1H176.301Z"/>
<path transform="matrix(.1,0,0,-.1,0,792)" d="M276.301 4021H-123.699L-23.6992 3847.8 76.3008 3674.6 176.301 3847.8" fill="#adc29e"/>
<path transform="matrix(.1,0,0,-.1,0,792)" stroke-width="50" stroke-linecap="butt" stroke-miterlimit="10" stroke-linejoin="miter" fill="none" stroke="#ffffff" d="M276.301 4021H-123.699L-23.6992 3847.8 76.3008 3674.6 176.301 3847.8Z"/>
<path transform="matrix(.1,0,0,-.1,0,792)" d="M3576.3 4194.3 3776.3 3847.8H3976.3L4076.3 4021 3976.3 4194.3 3876.3 4021 3776.3 4194.3 3876.3 4367.5H4076.3L4276.3 4021 4076.3 3674.6 3976.3 3501.4 3876.3 3328.2 4076.3 2981.8H4476.3L4576.3 3155 4476.3 3328.2H4276.3L4376.3 3155H4176.3L4076.3 3328.2 4176.3 3501.4H4576.3L4776.3 3155 4876.3 2981.8 4976.3 2808.6H5376.3L5576.3 3155 5476.3 3328.2H5276.3L5176.3 3155H5376.3L5276.3 2981.8H5076.3L4976.3 3155 5176.3 3501.4H5576.3 5776.3 5976.3L6176.3 3847.8 5976.3 4194.3H5776.3L5676.3 4021 5776.3 3847.8 5876.3 4021 5976.3 3847.8 5876.3 3674.6H5676.3L5476.3 4021 5676.3 4367.5 5776.3 4540.7 5876.3 4713.9 5676.3 5060.3H5276.3L5176.3 4887.1 5276.3 4713.9H5476.3L5376.3 4887.1H5576.3L5676.3 4713.9 5576.3 4540.7H5176.3L4976.3 4887.1 4876.3 5060.3 4776.3 5233.5H4376.3L4176.3 4887.1 4276.3 4713.9H4476.3L4576.3 4887.1H4376.3L4476.3 5060.3H4676.3L4776.3 4887.1 4576.3 4540.7H4176.3 3976.3 3776.3" fill="#b80000"/>
<path transform="matrix(.1,0,0,-.1,0,792)" stroke-width="50" stroke-linecap="butt" stroke-miterlimit="10" stroke-linejoin="miter" fill="none" stroke="#ffffff" d="M3576.3 4194.3 3776.3 3847.8H3976.3L4076.3 4021 3976.3 4194.3 3876.3 4021 3776.3 4194.3 3876.3 4367.5H4076.3L4276.3 4021 4076.3 3674.6 3976.3 3501.4 3876.3 3328.2 4076.3 2981.8H4476.3L4576.3 3155 4476.3 3328.2H4276.3L4376.3 3155H4176.3L4076.3 3328.2 4176.3 3501.4H4576.3L4776.3 3155 4876.3 2981.8 4976.3 2808.6H5376.3L5576.3 3155 5476.3 3328.2H5276.3L5176.3 3155H5376.3L5276.3 2981.8H5076.3L4976.3 3155 5176.3 3501.4H5576.3 5776.3 5976.3L6176.3 3847.8 5976.3 4194.3H5776.3L5676.3 4021 5776.3 3847.8 5876.3 4021 5976.3 3847.8 5876.3 3674.6H5676.3L5476.3 4021 5676.3 4367.5 5776.3 4540.7 5876.3 4713.9 5676.3 5060.3H5276.3L5176.3 4887.1 5276.3 4713.9H5476.3L5376.3 4887.1H5576.3L5676.3 4713.9 5576.3 4540.7H5176.3L4976.3 4887.1 4876.3 5060.3 4776.3 5233.5H4376.3L4176.3 4887.1 4276.3 4713.9H4476.3L4576.3 4887.1H4376.3L4476.3 5060.3H4676.3L4776.3 4887.1 4576.3 4540.7H4176.3 3976.3 3776.3Z"/>
<path transform="matrix(.1,0,0,-.1,0,792)" d="M5676.3 4367.5H6076.3L5976.3 4540.7 5876.3 4713.9 5776.3 4540.7" fill="#adc29e"/>
<path transform="matrix(.1,0,0,-.1,0,792)" stroke-width="50" stroke-linecap="butt" stroke-miterlimit="10" stroke-linejoin="miter" fill="none" stroke="#ffffff" d="M5676.3 4367.5H6076.3L5976.3 4540.7 5876.3 4713.9 5776.3 4540.7Z"/>
<path transform="matrix(.1,0,0,-.1,0,792)" d="M1576.3 5926.3 1376.3 6272.7H1176.3L1076.3 6099.5 1176.3 5926.3 1276.3 6099.5 1376.3 5926.3 1276.3 5753.1H1076.3L876.301 6099.5 1076.3 6445.9 1176.3 6619.1 1276.3 6792.3 1076.3 7138.7H676.301L576.301 6965.5 676.301 6792.3H876.301L776.301 6965.5H976.301L1076.3 6792.3 976.301 6619.1H576.301L376.301 6965.5 276.301 7138.7 176.301 7311.9H-223.699L-423.699 6965.5-323.699 6792.3H-123.699L-23.6992 6965.5H-223.699L-123.699 7138.7H76.3008L176.301 6965.5-23.6992 6619.1H-423.699-623.699-823.699L-1023.7 6272.7-823.699 5926.3H-623.699L-523.699 6099.5-623.699 6272.7-723.699 6099.5-823.699 6272.7-723.699 6445.9H-523.699L-323.699 6099.5-523.699 5753.1-623.699 5579.9-723.699 5406.7-523.699 5060.3H-123.699L-23.6992 5233.5-123.699 5406.7H-323.699L-223.699 5233.5H-423.699L-523.699 5406.7-423.699 5579.9H-23.6992L176.301 5233.5 276.301 5060.3 376.301 4887.1H776.301L976.301 5233.5 876.301 5406.7H676.301L576.301 5233.5H776.301L676.301 5060.3H476.301L376.301 5233.5 576.301 5579.9H976.301 1176.3 1376.3" fill="#b80000"/>
<path transform="matrix(.1,0,0,-.1,0,792)" stroke-width="50" stroke-linecap="butt" stroke-miterlimit="10" stroke-linejoin="miter" fill="none" stroke="#ffffff" d="M1576.3 5926.3 1376.3 6272.7H1176.3L1076.3 6099.5 1176.3 5926.3 1276.3 6099.5 1376.3 5926.3 1276.3 5753.1H1076.3L876.301 6099.5 1076.3 6445.9 1176.3 6619.1 1276.3 6792.3 1076.3 7138.7H676.301L576.301 6965.5 676.301 6792.3H876.301L776.301 6965.5H976.301L1076.3 6792.3 976.301 6619.1H576.301L376.301 6965.5 276.301 7138.7 176.301 7311.9H-223.699L-423.699 6965.5-323.699 6792.3H-123.699L-23.6992 6965.5H-223.699L-123.699 7138.7H76.3008L176.301 6965.5-23.6992 6619.1H-423.699-623.699-823.699L-1023.7 6272.7-823.699 5926.3H-623.699L-523.699 6099.5-623.699 6272.7-723.699 6099.5-823.699 6272.7-723.699 6445.9H-523.699L-323.699 6099.5-523.699 5753.1-623.699 5579.9-723.699 5406.7-523.699 5060.3H-123.699L-23.6992 5233.5-123.699 5406.7H-323.699L-223.699 5233.5H-423.699L-523.699 5406.7-423.699 5579.9H-23.6992L176.301 5233.5 276.301 5060.3 376.301 4887.1H776.301L976.301 5233.5 876.301 5406.7H676.301L576.301 5233.5H776.301L676.301 5060.3H476.301L376.301 5233.5 576.301 5579.9H976.301 1176.3 1376.3Z"/>
<path transform="matrix(.1,0,0,-.1,0,792)" d="M376.301 6965.5 476.301 7138.7 576.301 7311.9H176.301L276.301 7138.7" fill="#adc29e"/>
<path transform="matrix(.1,0,0,-.1,0,792)" stroke-width="50" stroke-linecap="butt" stroke-miterlimit="10" stroke-linejoin="miter" fill="none" stroke="#ffffff" d="M376.301 6965.5 476.301 7138.7 576.301 7311.9H176.301L276.301 7138.7Z"/>
<path transform="matrix(.1,0,0,-.1,0,792)" d="M4376.3 2462.2 4576.3 2115.8H4776.3L4876.3 2289 4776.3 2462.2 4676.3 2289 4576.3 2462.2 4676.3 2635.4H4876.3L5076.3 2289 4876.3 1942.6 4776.3 1769.4 4676.3 1596.2 4876.3 1249.8H5276.3L5376.3 1423 5276.3 1596.2H5076.3L5176.3 1423H4976.3L4876.3 1596.2 4976.3 1769.4H5376.3L5576.3 1423 5676.3 1249.8 5776.3 1076.6H6176.3L6376.3 1423 6276.3 1596.2H6076.3L5976.3 1423H6176.3L6076.3 1249.8H5876.3L5776.3 1423 5976.3 1769.4H6376.3 6576.3 6776.3L6976.3 2115.8 6776.3 2462.2H6576.3L6476.3 2289 6576.3 2115.8 6676.3 2289 6776.3 2115.8 6676.3 1942.6H6476.3L6276.3 2289 6476.3 2635.4 6576.3 2808.6 6676.3 2981.8 6476.3 3328.2H6076.3L5976.3 3155 6076.3 2981.8H6276.3L6176.3 3155H6376.3L6476.3 2981.8 6376.3 2808.6H5976.3L5776.3 3155 5676.3 3328.2 5576.3 3501.4H5176.3L4976.3 3155 5076.3 2981.8H5276.3L5376.3 3155H5176.3L5276.3 3328.2H5476.3L5576.3 3155 5376.3 2808.6H4976.3 4776.3 4576.3" fill="#b80000"/>
<path transform="matrix(.1,0,0,-.1,0,792)" stroke-width="50" stroke-linecap="butt" stroke-miterlimit="10" stroke-linejoin="miter" fill="none" stroke="#ffffff" d="M4376.3 2462.2 4576.3 2115.8H4776.3L4876.3 2289 4776.3 2462.2 4676.3 2289 4576.3 2462.2 4676.3 2635.4H4876.3L5076.3 2289 4876.3 1942.6 4776.3 1769.4 4676.3 1596.2 4876.3 1249.8H5276.3L5376.3 1423 5276.3 1596.2H5076.3L5176.3 1423H4976.3L4876.3 1596.2 4976.3 1769.4H5376.3L5576.3 1423 5676.3 1249.8 5776.3 1076.6H6176.3L6376.3 1423 6276.3 1596.2H6076.3L5976.3 1423H6176.3L6076.3 1249.8H5876.3L5776.3 1423 5976.3 1769.4H6376.3 6576.3 6776.3L6976.3 2115.8 6776.3 2462.2H6576.3L6476.3 2289 6576.3 2115.8 6676.3 2289 6776.3 2115.8 6676.3 1942.6H6476.3L6276.3 2289 6476.3 2635.4 6576.3 2808.6 6676.3 2981.8 6476.3 3328.2H6076.3L5976.3 3155 6076.3 2981.8H6276.3L6176.3 3155H6376.3L6476.3 2981.8 6376.3 2808.6H5976.3L5776.3 3155 5676.3 3328.2 5576.3 3501.4H5176.3L4976.3 3155 5076.3 2981.8H5276.3L5376.3 3155H5176.3L5276.3 3328.2H5476.3L5576.3 3155 5376.3 2808.6H4976.3 4776.3 4576.3Z"/>
<path transform="matrix(.1,0,0,-.1,0,792)" d="M5576.3 1423 5476.3 1249.8 5376.3 1076.6H5776.3L5676.3 1249.8" fill="#adc29e"/>
<path transform="matrix(.1,0,0,-.1,0,792)" stroke-width="50" stroke-linecap="butt" stroke-miterlimit="10" stroke-linejoin="miter" fill="none" stroke="#ffffff" d="M5576.3 1423 5476.3 1249.8 5376.3 1076.6H5776.3L5676.3 1249.8Z"/>
<path transform="matrix(.1,0,0,-.1,0,792)" d="M5776.3 3155 5876.3 3328.2 5976.3 3501.4H5576.3L5676.3 3328.2" fill="#adc29e"/>
<path transform="matrix(.1,0,0,-.1,0,792)" stroke-width="50" stroke-linecap="butt" stroke-miterlimit="10" stroke-linejoin="miter" fill="none" stroke="#ffffff" d="M5776.3 3155 5876.3 3328.2 5976.3 3501.4H5576.3L5676.3 3328.2Z"/>
<path transform="matrix(.1,0,0,-.1,0,792)" d="M4376.3 6272.7H4776.3L4876.3 6445.9 4776.3 6619.1H4576.3L4676.3 6445.9H4476.3L4376.3 6619.1 4476.3 6792.3H4876.3L5076.3 6445.9 5176.3 6272.7 5276.3 6099.5H5676.3L5876.3 6445.9 5776.3 6619.1H5576.3L5476.3 6445.9H5676.3L5576.3 6272.7H5376.3L5276.3 6445.9 5476.3 6792.3H5876.3 6076.3 6276.3L6476.3 7138.7 6276.3 7485.2H6076.3L5976.3 7311.9 6076.3 7138.7 6176.3 7311.9 6276.3 7138.7 6176.3 6965.5H5976.3L5776.3 7311.9 5976.3 7658.4 6076.3 7831.6 6176.3 8004.8 5976.3 8351.2H5576.3L5476.3 8178 5576.3 8004.8H5776.3L5676.3 8178H5876.3L5976.3 8004.8 5876.3 7831.6H5476.3L5276.3 8178 5176.3 8351.2 5076.3 8524.4H4676.3L4476.3 8178 4576.3 8004.8H4776.3L4876.3 8178H4676.3L4776.3 8351.2H4976.3L5076.3 8178 4876.3 7831.6H4476.3 4276.3 4076.3L3876.3 7485.2 4076.3 7138.7H4276.3L4376.3 7311.9 4276.3 7485.2 4176.3 7311.9 4076.3 7485.2 4176.3 7658.4H4376.3L4576.3 7311.9 4376.3 6965.5 4276.3 6792.3 4176.3 6619.1" fill="#b80000"/>
<path transform="matrix(.1,0,0,-.1,0,792)" stroke-width="50" stroke-linecap="butt" stroke-miterlimit="10" stroke-linejoin="miter" fill="none" stroke="#ffffff" d="M4376.3 6272.7H4776.3L4876.3 6445.9 4776.3 6619.1H4576.3L4676.3 6445.9H4476.3L4376.3 6619.1 4476.3 6792.3H4876.3L5076.3 6445.9 5176.3 6272.7 5276.3 6099.5H5676.3L5876.3 6445.9 5776.3 6619.1H5576.3L5476.3 6445.9H5676.3L5576.3 6272.7H5376.3L5276.3 6445.9 5476.3 6792.3H5876.3 6076.3 6276.3L6476.3 7138.7 6276.3 7485.2H6076.3L5976.3 7311.9 6076.3 7138.7 6176.3 7311.9 6276.3 7138.7 6176.3 6965.5H5976.3L5776.3 7311.9 5976.3 7658.4 6076.3 7831.6 6176.3 8004.8 5976.3 8351.2H5576.3L5476.3 8178 5576.3 8004.8H5776.3L5676.3 8178H5876.3L5976.3 8004.8 5876.3 7831.6H5476.3L5276.3 8178 5176.3 8351.2 5076.3 8524.4H4676.3L4476.3 8178 4576.3 8004.8H4776.3L4876.3 8178H4676.3L4776.3 8351.2H4976.3L5076.3 8178 4876.3 7831.6H4476.3 4276.3 4076.3L3876.3 7485.2 4076.3 7138.7H4276.3L4376.3 7311.9 4276.3 7485.2 4176.3 7311.9 4076.3 7485.2 4176.3 7658.4H4376.3L4576.3 7311.9 4376.3 6965.5 4276.3 6792.3 4176.3 6619.1Z"/>
<path transform="matrix(.1,0,0,-.1,0,792)" d="M5876.3 6792.3 5976.3 6619.1 6076.3 6445.9 6176.3 6619.1 6276.3 6792.3H6076.3" fill="#adc29e"/>
<path transform="matrix(.1,0,0,-.1,0,792)" stroke-width="50" stroke-linecap="butt" stroke-miterlimit="10" stroke-linejoin="miter" fill="none" stroke="#ffffff" d="M5876.3 6792.3 5976.3 6619.1 6076.3 6445.9 6176.3 6619.1 6276.3 6792.3H6076.3Z"/>
<path transform="matrix(.1,0,0,-.1,0,792)" d="M5976.3 7658.4H6376.3L6276.3 7831.6 6176.3 8004.8 6076.3 7831.6" fill="#adc29e"/>
<path transform="matrix(.1,0,0,-.1,0,792)" stroke-width="50" stroke-linecap="butt" stroke-miterlimit="10" stroke-linejoin="miter" fill="none" stroke="#ffffff" d="M5976.3 7658.4H6376.3L6276.3 7831.6 6176.3 8004.8 6076.3 7831.6Z"/>
<path transform="matrix(.1,0,0,-.1,0,792)" d="M4476.3 7831.6 4376.3 8004.8 4276.3 8178 4176.3 8004.8 4076.3 7831.6H4276.3" fill="#adc29e"/>
<path transform="matrix(.1,0,0,-.1,0,792)" stroke-width="50" stroke-linecap="butt" stroke-miterlimit="10" stroke-linejoin="miter" fill="none" stroke="#ffffff" d="M4476.3 7831.6 4376.3 8004.8 4276.3 8178 4176.3 8004.8 4076.3 7831.6H4276.3Z"/>
<path transform="matrix(.1,0,0,-.1,0,792)" d="M4376.3 6965.5H3976.3L4076.3 6792.3 4176.3 6619.1 4276.3 6792.3" fill="#adc29e"/>
<path transform="matrix(.1,0,0,-.1,0,792)" stroke-width="50" stroke-linecap="butt" stroke-miterlimit="10" stroke-linejoin="miter" fill="none" stroke="#ffffff" d="M4376.3 6965.5H3976.3L4076.3 6792.3 4176.3 6619.1 4276.3 6792.3Z"/>
<path transform="matrix(.1,0,0,-.1,0,792)" d="M3776.3 6272.7 3976.3 6619.1 3876.3 6792.3H3676.3L3576.3 6619.1H3776.3L3676.3 6445.9H3476.3L3376.3 6619.1 3576.3 6965.5H3976.3 4176.3 4376.3L4576.3 7311.9 4376.3 7658.4H4176.3L4076.3 7485.2 4176.3 7311.9 4276.3 7485.2 4376.3 7311.9 4276.3 7138.7H4076.3L3876.3 7485.2 4076.3 7831.6 4176.3 8004.8 4276.3 8178 4076.3 8524.4H3676.3L3576.3 8351.2 3676.3 8178H3876.3L3776.3 8351.2H3976.3L4076.3 8178 3976.3 8004.8H3576.3L3376.3 8351.2 3276.3 8524.4 3176.3 8697.6H2776.3L2576.3 8351.2 2676.3 8178H2876.3L2976.3 8351.2H2776.3L2876.3 8524.4H3076.3L3176.3 8351.2 2976.3 8004.8H2576.3 2376.3 2176.3L1976.3 7658.4 2176.3 7311.9H2376.3L2476.3 7485.2 2376.3 7658.4 2276.3 7485.2 2176.3 7658.4 2276.3 7831.6H2476.3L2676.3 7485.2 2476.3 7138.7 2376.3 6965.5 2276.3 6792.3 2476.3 6445.9H2876.3L2976.3 6619.1 2876.3 6792.3H2676.3L2776.3 6619.1H2576.3L2476.3 6792.3 2576.3 6965.5H2976.3L3176.3 6619.1 3276.3 6445.9 3376.3 6272.7" fill="#b80000"/>
<path transform="matrix(.1,0,0,-.1,0,792)" stroke-width="50" stroke-linecap="butt" stroke-miterlimit="10" stroke-linejoin="miter" fill="none" stroke="#ffffff" d="M3776.3 6272.7 3976.3 6619.1 3876.3 6792.3H3676.3L3576.3 6619.1H3776.3L3676.3 6445.9H3476.3L3376.3 6619.1 3576.3 6965.5H3976.3 4176.3 4376.3L4576.3 7311.9 4376.3 7658.4H4176.3L4076.3 7485.2 4176.3 7311.9 4276.3 7485.2 4376.3 7311.9 4276.3 7138.7H4076.3L3876.3 7485.2 4076.3 7831.6 4176.3 8004.8 4276.3 8178 4076.3 8524.4H3676.3L3576.3 8351.2 3676.3 8178H3876.3L3776.3 8351.2H3976.3L4076.3 8178 3976.3 8004.8H3576.3L3376.3 8351.2 3276.3 8524.4 3176.3 8697.6H2776.3L2576.3 8351.2 2676.3 8178H2876.3L2976.3 8351.2H2776.3L2876.3 8524.4H3076.3L3176.3 8351.2 2976.3 8004.8H2576.3 2376.3 2176.3L1976.3 7658.4 2176.3 7311.9H2376.3L2476.3 7485.2 2376.3 7658.4 2276.3 7485.2 2176.3 7658.4 2276.3 7831.6H2476.3L2676.3 7485.2 2476.3 7138.7 2376.3 6965.5 2276.3 6792.3 2476.3 6445.9H2876.3L2976.3 6619.1 2876.3 6792.3H2676.3L2776.3 6619.1H2576.3L2476.3 6792.3 2576.3 6965.5H2976.3L3176.3 6619.1 3276.3 6445.9 3376.3 6272.7Z"/>
<path transform="matrix(.1,0,0,-.1,0,792)" d="M1576.3 2115.8H1176.3L1076.3 1942.6 1176.3 1769.4H1376.3L1276.3 1942.6H1476.3L1576.3 1769.4 1476.3 1596.2H1076.3L876.301 1942.6 776.301 2115.8 676.301 2289H276.301L76.3008 1942.6 176.301 1769.4H376.301L476.301 1942.6H276.301L376.301 2115.8H576.301L676.301 1942.6 476.301 1596.2H76.3008-123.699-323.699L-523.699 1249.8-323.699 903.398H-123.699L-23.6992 1076.6-123.699 1249.8-223.699 1076.6-323.699 1249.8-223.699 1423H-23.6992L176.301 1076.6-23.6992 730.199-123.699 556.898-223.699 383.699-23.6992 37.3008H376.301L476.301 210.5 376.301 383.699H176.301L276.301 210.5H76.3008L-23.6992 383.699 76.3008 556.898H476.301L676.301 210.5 776.301 37.3008 876.301-135.898H1276.3L1476.3 210.5 1376.3 383.699H1176.3L1076.3 210.5H1276.3L1176.3 37.3008H976.301L876.301 210.5 1076.3 556.898H1476.3 1676.3 1876.3L2076.3 903.398 1876.3 1249.8H1676.3L1576.3 1076.6 1676.3 903.398 1776.3 1076.6 1876.3 903.398 1776.3 730.199H1576.3L1376.3 1076.6 1576.3 1423 1676.3 1596.2 1776.3 1769.4" fill="#b80000"/>
<path transform="matrix(.1,0,0,-.1,0,792)" stroke-width="50" stroke-linecap="butt" stroke-miterlimit="10" stroke-linejoin="miter" fill="none" stroke="#ffffff" d="M1576.3 2115.8H1176.3L1076.3 1942.6 1176.3 1769.4H1376.3L1276.3 1942.6H1476.3L1576.3 1769.4 1476.3 1596.2H1076.3L876.301 1942.6 776.301 2115.8 676.301 2289H276.301L76.3008 1942.6 176.301 1769.4H376.301L476.301 1942.6H276.301L376.301 2115.8H576.301L676.301 1942.6 476.301 1596.2H76.3008-123.699-323.699L-523.699 1249.8-323.699 903.398H-123.699L-23.6992 1076.6-123.699 1249.8-223.699 1076.6-323.699 1249.8-223.699 1423H-23.6992L176.301 1076.6-23.6992 730.199-123.699 556.898-223.699 383.699-23.6992 37.3008H376.301L476.301 210.5 376.301 383.699H176.301L276.301 210.5H76.3008L-23.6992 383.699 76.3008 556.898H476.301L676.301 210.5 776.301 37.3008 876.301-135.898H1276.3L1476.3 210.5 1376.3 383.699H1176.3L1076.3 210.5H1276.3L1176.3 37.3008H976.301L876.301 210.5 1076.3 556.898H1476.3 1676.3 1876.3L2076.3 903.398 1876.3 1249.8H1676.3L1576.3 1076.6 1676.3 903.398 1776.3 1076.6 1876.3 903.398 1776.3 730.199H1576.3L1376.3 1076.6 1576.3 1423 1676.3 1596.2 1776.3 1769.4Z"/>
<path transform="matrix(.1,0,0,-.1,0,792)" d="M76.3008 1596.2-23.6992 1769.4-123.699 1942.6-223.699 1769.4-323.699 1596.2H-123.699" fill="#adc29e"/>
<path transform="matrix(.1,0,0,-.1,0,792)" stroke-width="50" stroke-linecap="butt" stroke-miterlimit="10" stroke-linejoin="miter" fill="none" stroke="#ffffff" d="M76.3008 1596.2-23.6992 1769.4-123.699 1942.6-223.699 1769.4-323.699 1596.2H-123.699Z"/>
<path transform="matrix(.1,0,0,-.1,0,792)" stroke-width="50" stroke-linecap="butt" stroke-miterlimit="10" stroke-linejoin="miter" fill="none" stroke="#ffffff" d="M-23.6992 730.199H-423.699L-323.699 556.898-223.699 383.699-123.699 556.898Z"/>
<path transform="matrix(.1,0,0,-.1,0,792)" d="M676.301 210.5 576.301 37.3008 476.301-135.898H876.301L776.301 37.3008" fill="#adc29e"/>
<path transform="matrix(.1,0,0,-.1,0,792)" stroke-width="50" stroke-linecap="butt" stroke-miterlimit="10" stroke-linejoin="miter" fill="none" stroke="#ffffff" d="M676.301 210.5 576.301 37.3008 476.301-135.898H876.301L776.301 37.3008Z"/>
<path transform="matrix(.1,0,0,-.1,0,792)" d="M1476.3 556.898 1576.3 383.699 1676.3 210.5 1776.3 383.699 1876.3 556.898H1676.3" fill="#adc29e"/>
<path transform="matrix(.1,0,0,-.1,0,792)" stroke-width="50" stroke-linecap="butt" stroke-miterlimit="10" stroke-linejoin="miter" fill="none" stroke="#ffffff" d="M1476.3 556.898 1576.3 383.699 1676.3 210.5 1776.3 383.699 1876.3 556.898H1676.3Z"/>
<path transform="matrix(.1,0,0,-.1,0,792)" d="M2176.3 2115.8 1976.3 1769.4 2076.3 1596.2H2276.3L2376.3 1769.4H2176.3L2276.3 1942.6H2476.3L2576.3 1769.4 2376.3 1423H1976.3 1776.3 1576.3L1376.3 1076.6 1576.3 730.199H1776.3L1876.3 903.398 1776.3 1076.6 1676.3 903.398 1576.3 1076.6 1676.3 1249.8H1876.3L2076.3 903.398 1876.3 556.898 1776.3 383.699 1676.3 210.5 1876.3-135.898H2276.3L2376.3 37.3008 2276.3 210.5H2076.3L2176.3 37.3008H1976.3L1876.3 210.5 1976.3 383.699H2376.3L2576.3 37.3008 2676.3-135.898 2776.3-309.102H3176.3L3376.3 37.3008 3276.3 210.5H3076.3L2976.3 37.3008H3176.3L3076.3-135.898H2876.3L2776.3 37.3008 2976.3 383.699H3376.3 3576.3 3776.3L3976.3 730.199 3776.3 1076.6H3576.3L3476.3 903.398 3576.3 730.199 3676.3 903.398 3776.3 730.199 3676.3 556.898H3476.3L3276.3 903.398 3476.3 1249.8 3576.3 1423 3676.3 1596.2 3476.3 1942.6H3076.3L2976.3 1769.4 3076.3 1596.2H3276.3L3176.3 1769.4H3376.3L3476.3 1596.2 3376.3 1423H2976.3L2776.3 1769.4 2676.3 1942.6 2576.3 2115.8" fill="#b80000"/>
<path transform="matrix(.1,0,0,-.1,0,792)" stroke-width="50" stroke-linecap="butt" stroke-miterlimit="10" stroke-linejoin="miter" fill="none" stroke="#ffffff" d="M2176.3 2115.8 1976.3 1769.4 2076.3 1596.2H2276.3L2376.3 1769.4H2176.3L2276.3 1942.6H2476.3L2576.3 1769.4 2376.3 1423H1976.3 1776.3 1576.3L1376.3 1076.6 1576.3 730.199H1776.3L1876.3 903.398 1776.3 1076.6 1676.3 903.398 1576.3 1076.6 1676.3 1249.8H1876.3L2076.3 903.398 1876.3 556.898 1776.3 383.699 1676.3 210.5 1876.3-135.898H2276.3L2376.3 37.3008 2276.3 210.5H2076.3L2176.3 37.3008H1976.3L1876.3 210.5 1976.3 383.699H2376.3L2576.3 37.3008 2676.3-135.898 2776.3-309.102H3176.3L3376.3 37.3008 3276.3 210.5H3076.3L2976.3 37.3008H3176.3L3076.3-135.898H2876.3L2776.3 37.3008 2976.3 383.699H3376.3 3576.3 3776.3L3976.3 730.199 3776.3 1076.6H3576.3L3476.3 903.398 3576.3 730.199 3676.3 903.398 3776.3 730.199 3676.3 556.898H3476.3L3276.3 903.398 3476.3 1249.8 3576.3 1423 3676.3 1596.2 3476.3 1942.6H3076.3L2976.3 1769.4 3076.3 1596.2H3276.3L3176.3 1769.4H3376.3L3476.3 1596.2 3376.3 1423H2976.3L2776.3 1769.4 2676.3 1942.6 2576.3 2115.8Z"/>
<path transform="matrix(.1,0,0,-.1,0,792)" d="M3376.3 383.699 3476.3 210.5 3576.3 37.3008 3676.3 210.5 3776.3 383.699H3576.3" fill="#adc29e"/>
<path transform="matrix(.1,0,0,-.1,0,792)" stroke-width="50" stroke-linecap="butt" stroke-miterlimit="10" stroke-linejoin="miter" fill="none" stroke="#ffffff" d="M3376.3 383.699 3476.3 210.5 3576.3 37.3008 3676.3 210.5 3776.3 383.699H3576.3Z"/>
<path transform="matrix(.1,0,0,-.1,0,792)" d="M1876.3 6445.9 2076.3 6792.3 1976.3 6965.5H1776.3L1676.3 6792.3H1876.3L1776.3 6619.1H1576.3L1476.3 6792.3 1676.3 7138.7H2076.3 2276.3 2476.3L2676.3 7485.2 2476.3 7831.6H2276.3L2176.3 7658.4 2276.3 7485.2 2376.3 7658.4 2476.3 7485.2 2376.3 7311.9H2176.3L1976.3 7658.4 2176.3 8004.8 2276.3 8178 2376.3 8351.2 2176.3 8697.6H1776.3L1676.3 8524.4 1776.3 8351.2H1976.3L1876.3 8524.4H2076.3L2176.3 8351.2 2076.3 8178H1676.3L1476.3 8524.4 1376.3 8697.6 1276.3 8870.8H876.301L676.301 8524.4 776.301 8351.2H976.301L1076.3 8524.4H876.301L976.301 8697.6H1176.3L1276.3 8524.4 1076.3 8178H676.301 476.301 276.301L76.3008 7831.6 276.301 7485.2H476.301L576.301 7658.4 476.301 7831.6 376.301 7658.4 276.301 7831.6 376.301 8004.8H576.301L776.301 7658.4 576.301 7311.9 476.301 7138.7 376.301 6965.5 576.301 6619.1H976.301L1076.3 6792.3 976.301 6965.5H776.301L876.301 6792.3H676.301L576.301 6965.5 676.301 7138.7H1076.3L1276.3 6792.3 1376.3 6619.1 1476.3 6445.9" fill="#b80000"/>
<path transform="matrix(.1,0,0,-.1,0,792)" stroke-width="50" stroke-linecap="butt" stroke-miterlimit="10" stroke-linejoin="miter" fill="none" stroke="#ffffff" d="M1876.3 6445.9 2076.3 6792.3 1976.3 6965.5H1776.3L1676.3 6792.3H1876.3L1776.3 6619.1H1576.3L1476.3 6792.3 1676.3 7138.7H2076.3 2276.3 2476.3L2676.3 7485.2 2476.3 7831.6H2276.3L2176.3 7658.4 2276.3 7485.2 2376.3 7658.4 2476.3 7485.2 2376.3 7311.9H2176.3L1976.3 7658.4 2176.3 8004.8 2276.3 8178 2376.3 8351.2 2176.3 8697.6H1776.3L1676.3 8524.4 1776.3 8351.2H1976.3L1876.3 8524.4H2076.3L2176.3 8351.2 2076.3 8178H1676.3L1476.3 8524.4 1376.3 8697.6 1276.3 8870.8H876.301L676.301 8524.4 776.301 8351.2H976.301L1076.3 8524.4H876.301L976.301 8697.6H1176.3L1276.3 8524.4 1076.3 8178H676.301 476.301 276.301L76.3008 7831.6 276.301 7485.2H476.301L576.301 7658.4 476.301 7831.6 376.301 7658.4 276.301 7831.6 376.301 8004.8H576.301L776.301 7658.4 576.301 7311.9 476.301 7138.7 376.301 6965.5 576.301 6619.1H976.301L1076.3 6792.3 976.301 6965.5H776.301L876.301 6792.3H676.301L576.301 6965.5 676.301 7138.7H1076.3L1276.3 6792.3 1376.3 6619.1 1476.3 6445.9Z"/>
<path transform="matrix(.1,0,0,-.1,0,792)" d="M4076.3 1942.6 3876.3 1596.2 3976.3 1423H4176.3L4276.3 1596.2H4076.3L4176.3 1769.4H4376.3L4476.3 1596.2 4276.3 1249.8H3876.3 3676.3 3476.3L3276.3 903.398 3476.3 556.898H3676.3L3776.3 730.199 3676.3 903.398 3576.3 730.199 3476.3 903.398 3576.3 1076.6H3776.3L3976.3 730.199 3776.3 383.699 3676.3 210.5 3576.3 37.3008 3776.3-309.102H4176.3L4276.3-135.898 4176.3 37.3008H3976.3L4076.3-135.898H3876.3L3776.3 37.3008 3876.3 210.5H4276.3L4476.3-135.898 4576.3-309.102 4676.3-482.301H5076.3L5276.3-135.898 5176.3 37.3008H4976.3L4876.3-135.898H5076.3L4976.3-309.102H4776.3L4676.3-135.898 4876.3 210.5H5276.3 5476.3 5676.3L5876.3 556.898 5676.3 903.398H5476.3L5376.3 730.199 5476.3 556.898 5576.3 730.199 5676.3 556.898 5576.3 383.699H5376.3L5176.3 730.199 5376.3 1076.6 5476.3 1249.8 5576.3 1423 5376.3 1769.4H4976.3L4876.3 1596.2 4976.3 1423H5176.3L5076.3 1596.2H5276.3L5376.3 1423 5276.3 1249.8H4876.3L4676.3 1596.2 4576.3 1769.4 4476.3 1942.6" fill="#b80000"/>
<path transform="matrix(.1,0,0,-.1,0,792)" stroke-width="50" stroke-linecap="butt" stroke-miterlimit="10" stroke-linejoin="miter" fill="none" stroke="#ffffff" d="M4076.3 1942.6 3876.3 1596.2 3976.3 1423H4176.3L4276.3 1596.2H4076.3L4176.3 1769.4H4376.3L4476.3 1596.2 4276.3 1249.8H3876.3 3676.3 3476.3L3276.3 903.398 3476.3 556.898H3676.3L3776.3 730.199 3676.3 903.398 3576.3 730.199 3476.3 903.398 3576.3 1076.6H3776.3L3976.3 730.199 3776.3 383.699 3676.3 210.5 3576.3 37.3008 3776.3-309.102H4176.3L4276.3-135.898 4176.3 37.3008H3976.3L4076.3-135.898H3876.3L3776.3 37.3008 3876.3 210.5H4276.3L4476.3-135.898 4576.3-309.102 4676.3-482.301H5076.3L5276.3-135.898 5176.3 37.3008H4976.3L4876.3-135.898H5076.3L4976.3-309.102H4776.3L4676.3-135.898 4876.3 210.5H5276.3 5476.3 5676.3L5876.3 556.898 5676.3 903.398H5476.3L5376.3 730.199 5476.3 556.898 5576.3 730.199 5676.3 556.898 5576.3 383.699H5376.3L5176.3 730.199 5376.3 1076.6 5476.3 1249.8 5576.3 1423 5376.3 1769.4H4976.3L4876.3 1596.2 4976.3 1423H5176.3L5076.3 1596.2H5276.3L5376.3 1423 5276.3 1249.8H4876.3L4676.3 1596.2 4576.3 1769.4 4476.3 1942.6Z"/>
<path transform="matrix(.1,0,0,-.1,0,792)" d="M5276.3 210.5 5376.3 37.3008 5476.3-135.898 5576.3 37.3008 5676.3 210.5H5476.3" fill="#adc29e"/>
<path transform="matrix(.1,0,0,-.1,0,792)" stroke-width="50" stroke-linecap="butt" stroke-miterlimit="10" stroke-linejoin="miter" fill="none" stroke="#ffffff" d="M5276.3 210.5 5376.3 37.3008 5476.3-135.898 5576.3 37.3008 5676.3 210.5H5476.3Z"/>
<path transform="matrix(.1,0,0,-.1,0,792)" d="M1276.3 2635.4 1076.3 2981.8H876.301L776.301 2808.6 876.301 2635.4 976.301 2808.6 1076.3 2635.4 976.301 2462.2H776.301L576.301 2808.6 776.301 3155 876.301 3328.2 976.301 3501.4 776.301 3847.8H376.301L276.301 3674.6 376.301 3501.4H576.301L476.301 3674.6H676.301L776.301 3501.4 676.301 3328.2H276.301L76.3008 3674.6-23.6992 3847.8-123.699 4021H-523.699L-723.699 3674.6-623.699 3501.4H-423.699L-323.699 3674.6H-523.699L-423.699 3847.8H-223.699L-123.699 3674.6-323.699 3328.2H-723.699-923.699-1123.7L-1323.7 2981.8-1123.7 2635.4H-923.699L-823.699 2808.6-923.699 2981.8-1023.7 2808.6-1123.7 2981.8-1023.7 3155H-823.699L-623.699 2808.6-823.699 2462.2-923.699 2289-1023.7 2115.8-823.699 1769.4H-423.699L-323.699 1942.6-423.699 2115.8H-623.699L-523.699 1942.6H-723.699L-823.699 2115.8-723.699 2289H-323.699L-123.699 1942.6-23.6992 1769.4 76.3008 1596.2H476.301L676.301 1942.6 576.301 2115.8H376.301L276.301 1942.6H476.301L376.301 1769.4H176.301L76.3008 1942.6 276.301 2289H676.301 876.301 1076.3" fill="#b80000"/>
<path transform="matrix(.1,0,0,-.1,0,792)" stroke-width="50" stroke-linecap="butt" stroke-miterlimit="10" stroke-linejoin="miter" fill="none" stroke="#ffffff" d="M1276.3 2635.4 1076.3 2981.8H876.301L776.301 2808.6 876.301 2635.4 976.301 2808.6 1076.3 2635.4 976.301 2462.2H776.301L576.301 2808.6 776.301 3155 876.301 3328.2 976.301 3501.4 776.301 3847.8H376.301L276.301 3674.6 376.301 3501.4H576.301L476.301 3674.6H676.301L776.301 3501.4 676.301 3328.2H276.301L76.3008 3674.6-23.6992 3847.8-123.699 4021H-523.699L-723.699 3674.6-623.699 3501.4H-423.699L-323.699 3674.6H-523.699L-423.699 3847.8H-223.699L-123.699 3674.6-323.699 3328.2H-723.699-923.699-1123.7L-1323.7 2981.8-1123.7 2635.4H-923.699L-823.699 2808.6-923.699 2981.8-1023.7 2808.6-1123.7 2981.8-1023.7 3155H-823.699L-623.699 2808.6-823.699 2462.2-923.699 2289-1023.7 2115.8-823.699 1769.4H-423.699L-323.699 1942.6-423.699 2115.8H-623.699L-523.699 1942.6H-723.699L-823.699 2115.8-723.699 2289H-323.699L-123.699 1942.6-23.6992 1769.4 76.3008 1596.2H476.301L676.301 1942.6 576.301 2115.8H376.301L276.301 1942.6H476.301L376.301 1769.4H176.301L76.3008 1942.6 276.301 2289H676.301 876.301 1076.3Z"/>
<path transform="matrix(.1,0,0,-.1,0,792)" d="M4676.3 5753.1 4876.3 5406.7H5076.3L5176.3 5579.9 5076.3 5753.1 4976.3 5579.9 4876.3 5753.1 4976.3 5926.3H5176.3L5376.3 5579.9 5176.3 5233.5 5076.3 5060.3 4976.3 4887.1 5176.3 4540.7H5576.3L5676.3 4713.9 5576.3 4887.1H5376.3L5476.3 4713.9H5276.3L5176.3 4887.1 5276.3 5060.3H5676.3L5876.3 4713.9 5976.3 4540.7 6076.3 4367.5H6476.3L6676.3 4713.9 6576.3 4887.1H6376.3L6276.3 4713.9H6476.3L6376.3 4540.7H6176.3L6076.3 4713.9 6276.3 5060.3H6676.3 6876.3 7076.3L7276.3 5406.7 7076.3 5753.1H6876.3L6776.3 5579.9 6876.3 5406.7 6976.3 5579.9 7076.3 5406.7 6976.3 5233.5H6776.3L6576.3 5579.9 6776.3 5926.3 6876.3 6099.5 6976.3 6272.7 6776.3 6619.1H6376.3L6276.3 6445.9 6376.3 6272.7H6576.3L6476.3 6445.9H6676.3L6776.3 6272.7 6676.3 6099.5H6276.3L6076.3 6445.9 5976.3 6619.1 5876.3 6792.3H5476.3L5276.3 6445.9 5376.3 6272.7H5576.3L5676.3 6445.9H5476.3L5576.3 6619.1H5776.3L5876.3 6445.9 5676.3 6099.5H5276.3 5076.3 4876.3" fill="#b80000"/>
<path transform="matrix(.1,0,0,-.1,0,792)" stroke-width="50" stroke-linecap="butt" stroke-miterlimit="10" stroke-linejoin="miter" fill="none" stroke="#ffffff" d="M4676.3 5753.1 4876.3 5406.7H5076.3L5176.3 5579.9 5076.3 5753.1 4976.3 5579.9 4876.3 5753.1 4976.3 5926.3H5176.3L5376.3 5579.9 5176.3 5233.5 5076.3 5060.3 4976.3 4887.1 5176.3 4540.7H5576.3L5676.3 4713.9 5576.3 4887.1H5376.3L5476.3 4713.9H5276.3L5176.3 4887.1 5276.3 5060.3H5676.3L5876.3 4713.9 5976.3 4540.7 6076.3 4367.5H6476.3L6676.3 4713.9 6576.3 4887.1H6376.3L6276.3 4713.9H6476.3L6376.3 4540.7H6176.3L6076.3 4713.9 6276.3 5060.3H6676.3 6876.3 7076.3L7276.3 5406.7 7076.3 5753.1H6876.3L6776.3 5579.9 6876.3 5406.7 6976.3 5579.9 7076.3 5406.7 6976.3 5233.5H6776.3L6576.3 5579.9 6776.3 5926.3 6876.3 6099.5 6976.3 6272.7 6776.3 6619.1H6376.3L6276.3 6445.9 6376.3 6272.7H6576.3L6476.3 6445.9H6676.3L6776.3 6272.7 6676.3 6099.5H6276.3L6076.3 6445.9 5976.3 6619.1 5876.3 6792.3H5476.3L5276.3 6445.9 5376.3 6272.7H5576.3L5676.3 6445.9H5476.3L5576.3 6619.1H5776.3L5876.3 6445.9 5676.3 6099.5H5276.3 5076.3 4876.3Z"/>
<path transform="matrix(.1,0,0,-.1,0,792)" d="M576.301 7311.9 776.301 7658.4 576.301 8004.8H376.301L276.301 7831.6 376.301 7658.4 476.301 7831.6 576.301 7658.4 476.301 7485.2H276.301L76.3008 7831.6 276.301 8178 376.301 8351.2 476.301 8524.4 276.301 8870.8H-123.699L-223.699 8697.6-123.699 8524.4H76.3008L-23.6992 8697.6H176.301L276.301 8524.4 176.301 8351.2H-223.699L-423.699 8697.6-523.699 8870.8-623.699 9044H-1023.7L-1223.7 8697.6-1123.7 8524.4H-923.699L-823.699 8697.6H-1023.7L-923.699 8870.8H-723.699L-623.699 8697.6-823.699 8351.2H-1223.7-1423.7-1623.7L-1823.7 8004.8-1623.7 7658.4H-1423.7L-1323.7 7831.6-1423.7 8004.8-1523.7 7831.6-1623.7 8004.8-1523.7 8178H-1323.7L-1123.7 7831.6-1323.7 7485.2-1423.7 7311.9-1523.7 7138.7-1323.7 6792.3H-923.699L-823.699 6965.5-923.699 7138.7H-1123.7L-1023.7 6965.5H-1223.7L-1323.7 7138.7-1223.7 7311.9H-823.699L-623.699 6965.5-523.699 6792.3-423.699 6619.1H-23.6992L176.301 6965.5 76.3008 7138.7H-123.699L-223.699 6965.5H-23.6992L-123.699 6792.3H-323.699L-423.699 6965.5-223.699 7311.9H176.301 376.301" fill="#b80000"/>
<path transform="matrix(.1,0,0,-.1,0,792)" stroke-width="50" stroke-linecap="butt" stroke-miterlimit="10" stroke-linejoin="miter" fill="none" stroke="#ffffff" d="M576.301 7311.9 776.301 7658.4 576.301 8004.8H376.301L276.301 7831.6 376.301 7658.4 476.301 7831.6 576.301 7658.4 476.301 7485.2H276.301L76.3008 7831.6 276.301 8178 376.301 8351.2 476.301 8524.4 276.301 8870.8H-123.699L-223.699 8697.6-123.699 8524.4H76.3008L-23.6992 8697.6H176.301L276.301 8524.4 176.301 8351.2H-223.699L-423.699 8697.6-523.699 8870.8-623.699 9044H-1023.7L-1223.7 8697.6-1123.7 8524.4H-923.699L-823.699 8697.6H-1023.7L-923.699 8870.8H-723.699L-623.699 8697.6-823.699 8351.2H-1223.7-1423.7-1623.7L-1823.7 8004.8-1623.7 7658.4H-1423.7L-1323.7 7831.6-1423.7 8004.8-1523.7 7831.6-1623.7 8004.8-1523.7 8178H-1323.7L-1123.7 7831.6-1323.7 7485.2-1423.7 7311.9-1523.7 7138.7-1323.7 6792.3H-923.699L-823.699 6965.5-923.699 7138.7H-1123.7L-1023.7 6965.5H-1223.7L-1323.7 7138.7-1223.7 7311.9H-823.699L-623.699 6965.5-523.699 6792.3-423.699 6619.1H-23.6992L176.301 6965.5 76.3008 7138.7H-123.699L-223.699 6965.5H-23.6992L-123.699 6792.3H-323.699L-423.699 6965.5-223.699 7311.9H176.301 376.301Z"/>
<path transform="matrix(.1,0,0,-.1,0,792)" d="M5376.3 1076.6 5176.3 730.199 5376.3 383.699H5576.3L5676.3 556.898 5576.3 730.199 5476.3 556.898 5376.3 730.199 5476.3 903.398H5676.3L5876.3 556.898 5676.3 210.5 5576.3 37.3008 5476.3-135.898 5676.3-482.301H6076.3L6176.3-309.102 6076.3-135.898H5876.3L5976.3-309.102H5776.3L5676.3-135.898 5776.3 37.3008H6176.3L6376.3-309.102 6476.3-482.301 6576.3-655.5H6976.3L7176.3-309.102 7076.3-135.898H6876.3L6776.3-309.102H6976.3L6876.3-482.301H6676.3L6576.3-309.102 6776.3 37.3008H7176.3 7376.3 7576.3L7776.3 383.699 7576.3 730.199H7376.3L7276.3 556.898 7376.3 383.699 7476.3 556.898 7576.3 383.699 7476.3 210.5H7276.3L7076.3 556.898 7276.3 903.398 7376.3 1076.6 7476.3 1249.8 7276.3 1596.2H6876.3L6776.3 1423 6876.3 1249.8H7076.3L6976.3 1423H7176.3L7276.3 1249.8 7176.3 1076.6H6776.3L6576.3 1423 6476.3 1596.2 6376.3 1769.4H5976.3L5776.3 1423 5876.3 1249.8H6076.3L6176.3 1423H5976.3L6076.3 1596.2H6276.3L6376.3 1423 6176.3 1076.6H5776.3 5576.3" fill="#b80000"/>
<path transform="matrix(.1,0,0,-.1,0,792)" stroke-width="50" stroke-linecap="butt" stroke-miterlimit="10" stroke-linejoin="miter" fill="none" stroke="#ffffff" d="M5376.3 1076.6 5176.3 730.199 5376.3 383.699H5576.3L5676.3 556.898 5576.3 730.199 5476.3 556.898 5376.3 730.199 5476.3 903.398H5676.3L5876.3 556.898 5676.3 210.5 5576.3 37.3008 5476.3-135.898 5676.3-482.301H6076.3L6176.3-309.102 6076.3-135.898H5876.3L5976.3-309.102H5776.3L5676.3-135.898 5776.3 37.3008H6176.3L6376.3-309.102 6476.3-482.301 6576.3-655.5H6976.3L7176.3-309.102 7076.3-135.898H6876.3L6776.3-309.102H6976.3L6876.3-482.301H6676.3L6576.3-309.102 6776.3 37.3008H7176.3 7376.3 7576.3L7776.3 383.699 7576.3 730.199H7376.3L7276.3 556.898 7376.3 383.699 7476.3 556.898 7576.3 383.699 7476.3 210.5H7276.3L7076.3 556.898 7276.3 903.398 7376.3 1076.6 7476.3 1249.8 7276.3 1596.2H6876.3L6776.3 1423 6876.3 1249.8H7076.3L6976.3 1423H7176.3L7276.3 1249.8 7176.3 1076.6H6776.3L6576.3 1423 6476.3 1596.2 6376.3 1769.4H5976.3L5776.3 1423 5876.3 1249.8H6076.3L6176.3 1423H5976.3L6076.3 1596.2H6276.3L6376.3 1423 6176.3 1076.6H5776.3 5576.3Z"/>
<path transform="matrix(.1,0,0,-.1,0,792)" d="M476.301 4367.5 276.301 4713.9H76.3008L-23.6992 4540.7 76.3008 4367.5 176.301 4540.7 276.301 4367.5 176.301 4194.3H-23.6992L-223.699 4540.7-23.6992 4887.1 76.3008 5060.3 176.301 5233.5-23.6992 5579.9H-423.699L-523.699 5406.7-423.699 5233.5H-223.699L-323.699 5406.7H-123.699L-23.6992 5233.5-123.699 5060.3H-523.699L-723.699 5406.7-823.699 5579.9-923.699 5753.1H-1323.7L-1523.7 5406.7-1423.7 5233.5H-1223.7L-1123.7 5406.7H-1323.7L-1223.7 5579.9H-1023.7L-923.699 5406.7-1123.7 5060.3H-1523.7-1723.7-1923.7L-2123.7 4713.9-1923.7 4367.5H-1723.7L-1623.7 4540.7-1723.7 4713.9-1823.7 4540.7-1923.7 4713.9-1823.7 4887.1H-1623.7L-1423.7 4540.7-1623.7 4194.3-1723.7 4021-1823.7 3847.8-1623.7 3501.4H-1223.7L-1123.7 3674.6-1223.7 3847.8H-1423.7L-1323.7 3674.6H-1523.7L-1623.7 3847.8-1523.7 4021H-1123.7L-923.699 3674.6-823.699 3501.4-723.699 3328.2H-323.699L-123.699 3674.6-223.699 3847.8H-423.699L-523.699 3674.6H-323.699L-423.699 3501.4H-623.699L-723.699 3674.6-523.699 4021H-123.699 76.3008 276.301" fill="#b80000"/>
<path transform="matrix(.1,0,0,-.1,0,792)" stroke-width="50" stroke-linecap="butt" stroke-miterlimit="10" stroke-linejoin="miter" fill="none" stroke="#ffffff" d="M476.301 4367.5 276.301 4713.9H76.3008L-23.6992 4540.7 76.3008 4367.5 176.301 4540.7 276.301 4367.5 176.301 4194.3H-23.6992L-223.699 4540.7-23.6992 4887.1 76.3008 5060.3 176.301 5233.5-23.6992 5579.9H-423.699L-523.699 5406.7-423.699 5233.5H-223.699L-323.699 5406.7H-123.699L-23.6992 5233.5-123.699 5060.3H-523.699L-723.699 5406.7-823.699 5579.9-923.699 5753.1H-1323.7L-1523.7 5406.7-1423.7 5233.5H-1223.7L-1123.7 5406.7H-1323.7L-1223.7 5579.9H-1023.7L-923.699 5406.7-1123.7 5060.3H-1523.7-1723.7-1923.7L-2123.7 4713.9-1923.7 4367.5H-1723.7L-1623.7 4540.7-1723.7 4713.9-1823.7 4540.7-1923.7 4713.9-1823.7 4887.1H-1623.7L-1423.7 4540.7-1623.7 4194.3-1723.7 4021-1823.7 3847.8-1623.7 3501.4H-1223.7L-1123.7 3674.6-1223.7 3847.8H-1423.7L-1323.7 3674.6H-1523.7L-1623.7 3847.8-1523.7 4021H-1123.7L-923.699 3674.6-823.699 3501.4-723.699 3328.2H-323.699L-123.699 3674.6-223.699 3847.8H-423.699L-523.699 3674.6H-323.699L-423.699 3501.4H-623.699L-723.699 3674.6-523.699 4021H-123.699 76.3008 276.301Z"/>
<path transform="matrix(.1,0,0,-.1,0,792)" d="M5476.3 4021 5676.3 3674.6H5876.3L5976.3 3847.8 5876.3 4021 5776.3 3847.8 5676.3 4021 5776.3 4194.3H5976.3L6176.3 3847.8 5976.3 3501.4 5876.3 3328.2 5776.3 3155 5976.3 2808.6H6376.3L6476.3 2981.8 6376.3 3155H6176.3L6276.3 2981.8H6076.3L5976.3 3155 6076.3 3328.2H6476.3L6676.3 2981.8 6776.3 2808.6 6876.3 2635.4H7276.3L7476.3 2981.8 7376.3 3155H7176.3L7076.3 2981.8H7276.3L7176.3 2808.6H6976.3L6876.3 2981.8 7076.3 3328.2H7476.3 7676.3 7876.3L8076.3 3674.6 7876.3 4021H7676.3L7576.3 3847.8 7676.3 3674.6 7776.3 3847.8 7876.3 3674.6 7776.3 3501.4H7576.3L7376.3 3847.8 7576.3 4194.3 7676.3 4367.5 7776.3 4540.7 7576.3 4887.1H7176.3L7076.3 4713.9 7176.3 4540.7H7376.3L7276.3 4713.9H7476.3L7576.3 4540.7 7476.3 4367.5H7076.3L6876.3 4713.9 6776.3 4887.1 6676.3 5060.3H6276.3L6076.3 4713.9 6176.3 4540.7H6376.3L6476.3 4713.9H6276.3L6376.3 4887.1H6576.3L6676.3 4713.9 6476.3 4367.5H6076.3 5876.3 5676.3" fill="#b80000"/>
<path transform="matrix(.1,0,0,-.1,0,792)" stroke-width="50" stroke-linecap="butt" stroke-miterlimit="10" stroke-linejoin="miter" fill="none" stroke="#ffffff" d="M5476.3 4021 5676.3 3674.6H5876.3L5976.3 3847.8 5876.3 4021 5776.3 3847.8 5676.3 4021 5776.3 4194.3H5976.3L6176.3 3847.8 5976.3 3501.4 5876.3 3328.2 5776.3 3155 5976.3 2808.6H6376.3L6476.3 2981.8 6376.3 3155H6176.3L6276.3 2981.8H6076.3L5976.3 3155 6076.3 3328.2H6476.3L6676.3 2981.8 6776.3 2808.6 6876.3 2635.4H7276.3L7476.3 2981.8 7376.3 3155H7176.3L7076.3 2981.8H7276.3L7176.3 2808.6H6976.3L6876.3 2981.8 7076.3 3328.2H7476.3 7676.3 7876.3L8076.3 3674.6 7876.3 4021H7676.3L7576.3 3847.8 7676.3 3674.6 7776.3 3847.8 7876.3 3674.6 7776.3 3501.4H7576.3L7376.3 3847.8 7576.3 4194.3 7676.3 4367.5 7776.3 4540.7 7576.3 4887.1H7176.3L7076.3 4713.9 7176.3 4540.7H7376.3L7276.3 4713.9H7476.3L7576.3 4540.7 7476.3 4367.5H7076.3L6876.3 4713.9 6776.3 4887.1 6676.3 5060.3H6276.3L6076.3 4713.9 6176.3 4540.7H6376.3L6476.3 4713.9H6276.3L6376.3 4887.1H6576.3L6676.3 4713.9 6476.3 4367.5H6076.3 5876.3 5676.3Z"/>
<path transform="matrix(.1,0,0,-.1,0,792)" d="M5476.3 7831.6H5876.3L5976.3 8004.8 5876.3 8178H5676.3L5776.3 8004.8H5576.3L5476.3 8178 5576.3 8351.2H5976.3L6176.3 8004.8 6276.3 7831.6 6376.3 7658.4H6776.3L6976.3 8004.8 6876.3 8178H6676.3L6576.3 8004.8H6776.3L6676.3 7831.6H6476.3L6376.3 8004.8 6576.3 8351.2H6976.3 7176.3 7376.3L7576.3 8697.6 7376.3 9044H7176.3L7076.3 8870.8 7176.3 8697.6 7276.3 8870.8 7376.3 8697.6 7276.3 8524.4H7076.3L6876.3 8870.8 7076.3 9217.2 7176.3 9390.4 7276.3 9563.6 7076.3 9910H6676.3L6576.3 9736.8 6676.3 9563.6H6876.3L6776.3 9736.8H6976.3L7076.3 9563.6 6976.3 9390.4H6576.3L6376.3 9736.8 6276.3 9910 6176.3 10083.2H5776.3L5576.3 9736.8 5676.3 9563.6H5876.3L5976.3 9736.8H5776.3L5876.3 9910H6076.3L6176.3 9736.8 5976.3 9390.4H5576.3 5376.3 5176.3L4976.3 9044 5176.3 8697.6H5376.3L5476.3 8870.8 5376.3 9044 5276.3 8870.8 5176.3 9044 5276.3 9217.2H5476.3L5676.3 8870.8 5476.3 8524.4 5376.3 8351.2 5276.3 8178" fill="#b80000"/>
<path transform="matrix(.1,0,0,-.1,0,792)" stroke-width="50" stroke-linecap="butt" stroke-miterlimit="10" stroke-linejoin="miter" fill="none" stroke="#ffffff" d="M5476.3 7831.6H5876.3L5976.3 8004.8 5876.3 8178H5676.3L5776.3 8004.8H5576.3L5476.3 8178 5576.3 8351.2H5976.3L6176.3 8004.8 6276.3 7831.6 6376.3 7658.4H6776.3L6976.3 8004.8 6876.3 8178H6676.3L6576.3 8004.8H6776.3L6676.3 7831.6H6476.3L6376.3 8004.8 6576.3 8351.2H6976.3 7176.3 7376.3L7576.3 8697.6 7376.3 9044H7176.3L7076.3 8870.8 7176.3 8697.6 7276.3 8870.8 7376.3 8697.6 7276.3 8524.4H7076.3L6876.3 8870.8 7076.3 9217.2 7176.3 9390.4 7276.3 9563.6 7076.3 9910H6676.3L6576.3 9736.8 6676.3 9563.6H6876.3L6776.3 9736.8H6976.3L7076.3 9563.6 6976.3 9390.4H6576.3L6376.3 9736.8 6276.3 9910 6176.3 10083.2H5776.3L5576.3 9736.8 5676.3 9563.6H5876.3L5976.3 9736.8H5776.3L5876.3 9910H6076.3L6176.3 9736.8 5976.3 9390.4H5576.3 5376.3 5176.3L4976.3 9044 5176.3 8697.6H5376.3L5476.3 8870.8 5376.3 9044 5276.3 8870.8 5176.3 9044 5276.3 9217.2H5476.3L5676.3 8870.8 5476.3 8524.4 5376.3 8351.2 5276.3 8178Z"/>
<path transform="matrix(.1,0,0,-.1,0,792)" d="M4876.3 7831.6 5076.3 8178 4976.3 8351.2H4776.3L4676.3 8178H4876.3L4776.3 8004.8H4576.3L4476.3 8178 4676.3 8524.4H5076.3 5276.3 5476.3L5676.3 8870.8 5476.3 9217.2H5276.3L5176.3 9044 5276.3 8870.8 5376.3 9044 5476.3 8870.8 5376.3 8697.6H5176.3L4976.3 9044 5176.3 9390.4 5276.3 9563.6 5376.3 9736.8 5176.3 10083.2H4776.3L4676.3 9910 4776.3 9736.8H4976.3L4876.3 9910H5076.3L5176.3 9736.8 5076.3 9563.6H4676.3L4476.3 9910 4376.3 10083.2 4276.3 10256.4H3876.3L3676.3 9910 3776.3 9736.8H3976.3L4076.3 9910H3876.3L3976.3 10083.2H4176.3L4276.3 9910 4076.3 9563.6H3676.3 3476.3 3276.3L3076.3 9217.2 3276.3 8870.8H3476.3L3576.3 9044 3476.3 9217.2 3376.3 9044 3276.3 9217.2 3376.3 9390.4H3576.3L3776.3 9044 3576.3 8697.6 3476.3 8524.4 3376.3 8351.2 3576.3 8004.8H3976.3L4076.3 8178 3976.3 8351.2H3776.3L3876.3 8178H3676.3L3576.3 8351.2 3676.3 8524.4H4076.3L4276.3 8178 4376.3 8004.8 4476.3 7831.6" fill="#b80000"/>
<path transform="matrix(.1,0,0,-.1,0,792)" stroke-width="50" stroke-linecap="butt" stroke-miterlimit="10" stroke-linejoin="miter" fill="none" stroke="#ffffff" d="M4876.3 7831.6 5076.3 8178 4976.3 8351.2H4776.3L4676.3 8178H4876.3L4776.3 8004.8H4576.3L4476.3 8178 4676.3 8524.4H5076.3 5276.3 5476.3L5676.3 8870.8 5476.3 9217.2H5276.3L5176.3 9044 5276.3 8870.8 5376.3 9044 5476.3 8870.8 5376.3 8697.6H5176.3L4976.3 9044 5176.3 9390.4 5276.3 9563.6 5376.3 9736.8 5176.3 10083.2H4776.3L4676.3 9910 4776.3 9736.8H4976.3L4876.3 9910H5076.3L5176.3 9736.8 5076.3 9563.6H4676.3L4476.3 9910 4376.3 10083.2 4276.3 10256.4H3876.3L3676.3 9910 3776.3 9736.8H3976.3L4076.3 9910H3876.3L3976.3 10083.2H4176.3L4276.3 9910 4076.3 9563.6H3676.3 3476.3 3276.3L3076.3 9217.2 3276.3 8870.8H3476.3L3576.3 9044 3476.3 9217.2 3376.3 9044 3276.3 9217.2 3376.3 9390.4H3576.3L3776.3 9044 3576.3 8697.6 3476.3 8524.4 3376.3 8351.2 3576.3 8004.8H3976.3L4076.3 8178 3976.3 8351.2H3776.3L3876.3 8178H3676.3L3576.3 8351.2 3676.3 8524.4H4076.3L4276.3 8178 4376.3 8004.8 4476.3 7831.6Z"/>
<path transform="matrix(.1,0,0,-.1,0,792)" d="M476.301 556.898H76.3008L-23.6992 383.699 76.3008 210.5H276.301L176.301 383.699H376.301L476.301 210.5 376.301 37.3008H-23.6992L-223.699 383.699-323.699 556.898-423.699 730.199H-823.699L-1023.7 383.699-923.699 210.5H-723.699L-623.699 383.699H-823.699L-723.699 556.898H-523.699L-423.699 383.699-623.699 37.3008H-1023.7-1223.7-1423.7L-1623.7-309.102-1423.7-655.5H-1223.7L-1123.7-482.301-1223.7-309.102-1323.7-482.301-1423.7-309.102-1323.7-135.898H-1123.7L-923.699-482.301-1123.7-828.699-1223.7-1001.9-1323.7-1175.1-1123.7-1521.5H-723.699L-623.699-1348.3-723.699-1175.1H-923.699L-823.699-1348.3H-1023.7L-1123.7-1175.1-1023.7-1001.9H-623.699L-423.699-1348.3-323.699-1521.5-223.699-1694.7H176.301L376.301-1348.3 276.301-1175.1H76.3008L-23.6992-1348.3H176.301L76.3008-1521.5H-123.699L-223.699-1348.3-23.6992-1001.9H376.301 576.301 776.301L976.301-655.5 776.301-309.102H576.301L476.301-482.301 576.301-655.5 676.301-482.301 776.301-655.5 676.301-828.699H476.301L276.301-482.301 476.301-135.898 576.301 37.3008 676.301 210.5" fill="#b80000"/>
<path transform="matrix(.1,0,0,-.1,0,792)" stroke-width="50" stroke-linecap="butt" stroke-miterlimit="10" stroke-linejoin="miter" fill="none" stroke="#ffffff" d="M476.301 556.898H76.3008L-23.6992 383.699 76.3008 210.5H276.301L176.301 383.699H376.301L476.301 210.5 376.301 37.3008H-23.6992L-223.699 383.699-323.699 556.898-423.699 730.199H-823.699L-1023.7 383.699-923.699 210.5H-723.699L-623.699 383.699H-823.699L-723.699 556.898H-523.699L-423.699 383.699-623.699 37.3008H-1023.7-1223.7-1423.7L-1623.7-309.102-1423.7-655.5H-1223.7L-1123.7-482.301-1223.7-309.102-1323.7-482.301-1423.7-309.102-1323.7-135.898H-1123.7L-923.699-482.301-1123.7-828.699-1223.7-1001.9-1323.7-1175.1-1123.7-1521.5H-723.699L-623.699-1348.3-723.699-1175.1H-923.699L-823.699-1348.3H-1023.7L-1123.7-1175.1-1023.7-1001.9H-623.699L-423.699-1348.3-323.699-1521.5-223.699-1694.7H176.301L376.301-1348.3 276.301-1175.1H76.3008L-23.6992-1348.3H176.301L76.3008-1521.5H-123.699L-223.699-1348.3-23.6992-1001.9H376.301 576.301 776.301L976.301-655.5 776.301-309.102H576.301L476.301-482.301 576.301-655.5 676.301-482.301 776.301-655.5 676.301-828.699H476.301L276.301-482.301 476.301-135.898 576.301 37.3008 676.301 210.5Z"/>
<path transform="matrix(.1,0,0,-.1,0,792)" d="M1076.3 556.898 876.301 210.5 976.301 37.3008H1176.3L1276.3 210.5H1076.3L1176.3 383.699H1376.3L1476.3 210.5 1276.3-135.898H876.301 676.301 476.301L276.301-482.301 476.301-828.699H676.301L776.301-655.5 676.301-482.301 576.301-655.5 476.301-482.301 576.301-309.102H776.301L976.301-655.5 776.301-1001.9 676.301-1175.1 576.301-1348.3 776.301-1694.7H1176.3L1276.3-1521.5 1176.3-1348.3H976.301L1076.3-1521.5H876.301L776.301-1348.3 876.301-1175.1H1276.3L1476.3-1521.5 1576.3-1694.7 1676.3-1867.9H2076.3L2276.3-1521.5 2176.3-1348.3H1976.3L1876.3-1521.5H2076.3L1976.3-1694.7H1776.3L1676.3-1521.5 1876.3-1175.1H2276.3 2476.3 2676.3L2876.3-828.699 2676.3-482.301H2476.3L2376.3-655.5 2476.3-828.699 2576.3-655.5 2676.3-828.699 2576.3-1001.9H2376.3L2176.3-655.5 2376.3-309.102 2476.3-135.898 2576.3 37.3008 2376.3 383.699H1976.3L1876.3 210.5 1976.3 37.3008H2176.3L2076.3 210.5H2276.3L2376.3 37.3008 2276.3-135.898H1876.3L1676.3 210.5 1576.3 383.699 1476.3 556.898" fill="#b80000"/>
<path transform="matrix(.1,0,0,-.1,0,792)" stroke-width="50" stroke-linecap="butt" stroke-miterlimit="10" stroke-linejoin="miter" fill="none" stroke="#ffffff" d="M1076.3 556.898 876.301 210.5 976.301 37.3008H1176.3L1276.3 210.5H1076.3L1176.3 383.699H1376.3L1476.3 210.5 1276.3-135.898H876.301 676.301 476.301L276.301-482.301 476.301-828.699H676.301L776.301-655.5 676.301-482.301 576.301-655.5 476.301-482.301 576.301-309.102H776.301L976.301-655.5 776.301-1001.9 676.301-1175.1 576.301-1348.3 776.301-1694.7H1176.3L1276.3-1521.5 1176.3-1348.3H976.301L1076.3-1521.5H876.301L776.301-1348.3 876.301-1175.1H1276.3L1476.3-1521.5 1576.3-1694.7 1676.3-1867.9H2076.3L2276.3-1521.5 2176.3-1348.3H1976.3L1876.3-1521.5H2076.3L1976.3-1694.7H1776.3L1676.3-1521.5 1876.3-1175.1H2276.3 2476.3 2676.3L2876.3-828.699 2676.3-482.301H2476.3L2376.3-655.5 2476.3-828.699 2576.3-655.5 2676.3-828.699 2576.3-1001.9H2376.3L2176.3-655.5 2376.3-309.102 2476.3-135.898 2576.3 37.3008 2376.3 383.699H1976.3L1876.3 210.5 1976.3 37.3008H2176.3L2076.3 210.5H2276.3L2376.3 37.3008 2276.3-135.898H1876.3L1676.3 210.5 1576.3 383.699 1476.3 556.898Z"/>
<path transform="matrix(.1,0,0,-.1,0,792)" d="M2376.3-309.102H2776.3L2676.3-135.898 2576.3 37.3008 2476.3-135.898" fill="#adc29e"/>
<path transform="matrix(.1,0,0,-.1,0,792)" stroke-width="50" stroke-linecap="butt" stroke-miterlimit="10" stroke-linejoin="miter" fill="none" stroke="#ffffff" d="M2376.3-309.102H2776.3L2676.3-135.898 2576.3 37.3008 2476.3-135.898Z"/>
<path transform="matrix(.1,0,0,-.1,0,792)" d="M2976.3 383.699 2776.3 37.3008 2876.3-135.898H3076.3L3176.3 37.3008H2976.3L3076.3 210.5H3276.3L3376.3 37.3008 3176.3-309.102H2776.3 2576.3 2376.3L2176.3-655.5 2376.3-1001.9H2576.3L2676.3-828.699 2576.3-655.5 2476.3-828.699 2376.3-655.5 2476.3-482.301H2676.3L2876.3-828.699 2676.3-1175.1 2576.3-1348.3 2476.3-1521.5 2676.3-1867.9H3076.3L3176.3-1694.7 3076.3-1521.5H2876.3L2976.3-1694.7H2776.3L2676.3-1521.5 2776.3-1348.3H3176.3L3376.3-1694.7 3476.3-1867.9 3576.3-2041.1H3976.3L4176.3-1694.7 4076.3-1521.5H3876.3L3776.3-1694.7H3976.3L3876.3-1867.9H3676.3L3576.3-1694.7 3776.3-1348.3H4176.3 4376.3 4576.3L4776.3-1001.9 4576.3-655.5H4376.3L4276.3-828.699 4376.3-1001.9 4476.3-828.699 4576.3-1001.9 4476.3-1175.1H4276.3L4076.3-828.699 4276.3-482.301 4376.3-309.102 4476.3-135.898 4276.3 210.5H3876.3L3776.3 37.3008 3876.3-135.898H4076.3L3976.3 37.3008H4176.3L4276.3-135.898 4176.3-309.102H3776.3L3576.3 37.3008 3476.3 210.5 3376.3 383.699" fill="#b80000"/>
<path transform="matrix(.1,0,0,-.1,0,792)" stroke-width="50" stroke-linecap="butt" stroke-miterlimit="10" stroke-linejoin="miter" fill="none" stroke="#ffffff" d="M2976.3 383.699 2776.3 37.3008 2876.3-135.898H3076.3L3176.3 37.3008H2976.3L3076.3 210.5H3276.3L3376.3 37.3008 3176.3-309.102H2776.3 2576.3 2376.3L2176.3-655.5 2376.3-1001.9H2576.3L2676.3-828.699 2576.3-655.5 2476.3-828.699 2376.3-655.5 2476.3-482.301H2676.3L2876.3-828.699 2676.3-1175.1 2576.3-1348.3 2476.3-1521.5 2676.3-1867.9H3076.3L3176.3-1694.7 3076.3-1521.5H2876.3L2976.3-1694.7H2776.3L2676.3-1521.5 2776.3-1348.3H3176.3L3376.3-1694.7 3476.3-1867.9 3576.3-2041.1H3976.3L4176.3-1694.7 4076.3-1521.5H3876.3L3776.3-1694.7H3976.3L3876.3-1867.9H3676.3L3576.3-1694.7 3776.3-1348.3H4176.3 4376.3 4576.3L4776.3-1001.9 4576.3-655.5H4376.3L4276.3-828.699 4376.3-1001.9 4476.3-828.699 4576.3-1001.9 4476.3-1175.1H4276.3L4076.3-828.699 4276.3-482.301 4376.3-309.102 4476.3-135.898 4276.3 210.5H3876.3L3776.3 37.3008 3876.3-135.898H4076.3L3976.3 37.3008H4176.3L4276.3-135.898 4176.3-309.102H3776.3L3576.3 37.3008 3476.3 210.5 3376.3 383.699Z"/>
<path transform="matrix(.1,0,0,-.1,0,792)" d="M176.301 1076.6-23.6992 1423H-223.699L-323.699 1249.8-223.699 1076.6-123.699 1249.8-23.6992 1076.6-123.699 903.398H-323.699L-523.699 1249.8-323.699 1596.2-223.699 1769.4-123.699 1942.6-323.699 2289H-723.699L-823.699 2115.8-723.699 1942.6H-523.699L-623.699 2115.8H-423.699L-323.699 1942.6-423.699 1769.4H-823.699L-1023.7 2115.8-1123.7 2289-1223.7 2462.2H-1623.7L-1823.7 2115.8-1723.7 1942.6H-1523.7L-1423.7 2115.8H-1623.7L-1523.7 2289H-1323.7L-1223.7 2115.8-1423.7 1769.4H-1823.7-2023.7-2223.7L-2423.7 1423-2223.7 1076.6H-2023.7L-1923.7 1249.8-2023.7 1423-2123.7 1249.8-2223.7 1423-2123.7 1596.2H-1923.7L-1723.7 1249.8-1923.7 903.398-2023.7 730.199-2123.7 556.898-1923.7 210.5H-1523.7L-1423.7 383.699-1523.7 556.898H-1723.7L-1623.7 383.699H-1823.7L-1923.7 556.898-1823.7 730.199H-1423.7L-1223.7 383.699-1123.7 210.5-1023.7 37.3008H-623.699L-423.699 383.699-523.699 556.898H-723.699L-823.699 383.699H-623.699L-723.699 210.5H-923.699L-1023.7 383.699-823.699 730.199H-423.699-223.699-23.6992" fill="#b80000"/>
<path transform="matrix(.1,0,0,-.1,0,792)" stroke-width="50" stroke-linecap="butt" stroke-miterlimit="10" stroke-linejoin="miter" fill="none" stroke="#ffffff" d="M176.301 1076.6-23.6992 1423H-223.699L-323.699 1249.8-223.699 1076.6-123.699 1249.8-23.6992 1076.6-123.699 903.398H-323.699L-523.699 1249.8-323.699 1596.2-223.699 1769.4-123.699 1942.6-323.699 2289H-723.699L-823.699 2115.8-723.699 1942.6H-523.699L-623.699 2115.8H-423.699L-323.699 1942.6-423.699 1769.4H-823.699L-1023.7 2115.8-1123.7 2289-1223.7 2462.2H-1623.7L-1823.7 2115.8-1723.7 1942.6H-1523.7L-1423.7 2115.8H-1623.7L-1523.7 2289H-1323.7L-1223.7 2115.8-1423.7 1769.4H-1823.7-2023.7-2223.7L-2423.7 1423-2223.7 1076.6H-2023.7L-1923.7 1249.8-2023.7 1423-2123.7 1249.8-2223.7 1423-2123.7 1596.2H-1923.7L-1723.7 1249.8-1923.7 903.398-2023.7 730.199-2123.7 556.898-1923.7 210.5H-1523.7L-1423.7 383.699-1523.7 556.898H-1723.7L-1623.7 383.699H-1823.7L-1923.7 556.898-1823.7 730.199H-1423.7L-1223.7 383.699-1123.7 210.5-1023.7 37.3008H-623.699L-423.699 383.699-523.699 556.898H-723.699L-823.699 383.699H-623.699L-723.699 210.5H-923.699L-1023.7 383.699-823.699 730.199H-423.699-223.699-23.6992Z"/>
<path transform="matrix(.1,0,0,-.1,0,792)" d="M5776.3 7311.9 5976.3 6965.5H6176.3L6276.3 7138.7 6176.3 7311.9 6076.3 7138.7 5976.3 7311.9 6076.3 7485.2H6276.3L6476.3 7138.7 6276.3 6792.3 6176.3 6619.1 6076.3 6445.9 6276.3 6099.5H6676.3L6776.3 6272.7 6676.3 6445.9H6476.3L6576.3 6272.7H6376.3L6276.3 6445.9 6376.3 6619.1H6776.3L6976.3 6272.7 7076.3 6099.5 7176.3 5926.3H7576.3L7776.3 6272.7 7676.3 6445.9H7476.3L7376.3 6272.7H7576.3L7476.3 6099.5H7276.3L7176.3 6272.7 7376.3 6619.1H7776.3 7976.3 8176.3L8376.3 6965.5 8176.3 7311.9H7976.3L7876.3 7138.7 7976.3 6965.5 8076.3 7138.7 8176.3 6965.5 8076.3 6792.3H7876.3L7676.3 7138.7 7876.3 7485.2 7976.3 7658.4 8076.3 7831.6 7876.3 8178H7476.3L7376.3 8004.8 7476.3 7831.6H7676.3L7576.3 8004.8H7776.3L7876.3 7831.6 7776.3 7658.4H7376.3L7176.3 8004.8 7076.3 8178 6976.3 8351.2H6576.3L6376.3 8004.8 6476.3 7831.6H6676.3L6776.3 8004.8H6576.3L6676.3 8178H6876.3L6976.3 8004.8 6776.3 7658.4H6376.3 6176.3 5976.3" fill="#b80000"/>
<path transform="matrix(.1,0,0,-.1,0,792)" stroke-width="50" stroke-linecap="butt" stroke-miterlimit="10" stroke-linejoin="miter" fill="none" stroke="#ffffff" d="M5776.3 7311.9 5976.3 6965.5H6176.3L6276.3 7138.7 6176.3 7311.9 6076.3 7138.7 5976.3 7311.9 6076.3 7485.2H6276.3L6476.3 7138.7 6276.3 6792.3 6176.3 6619.1 6076.3 6445.9 6276.3 6099.5H6676.3L6776.3 6272.7 6676.3 6445.9H6476.3L6576.3 6272.7H6376.3L6276.3 6445.9 6376.3 6619.1H6776.3L6976.3 6272.7 7076.3 6099.5 7176.3 5926.3H7576.3L7776.3 6272.7 7676.3 6445.9H7476.3L7376.3 6272.7H7576.3L7476.3 6099.5H7276.3L7176.3 6272.7 7376.3 6619.1H7776.3 7976.3 8176.3L8376.3 6965.5 8176.3 7311.9H7976.3L7876.3 7138.7 7976.3 6965.5 8076.3 7138.7 8176.3 6965.5 8076.3 6792.3H7876.3L7676.3 7138.7 7876.3 7485.2 7976.3 7658.4 8076.3 7831.6 7876.3 8178H7476.3L7376.3 8004.8 7476.3 7831.6H7676.3L7576.3 8004.8H7776.3L7876.3 7831.6 7776.3 7658.4H7376.3L7176.3 8004.8 7076.3 8178 6976.3 8351.2H6576.3L6376.3 8004.8 6476.3 7831.6H6676.3L6776.3 8004.8H6576.3L6676.3 8178H6876.3L6976.3 8004.8 6776.3 7658.4H6376.3 6176.3 5976.3Z"/>
<path transform="matrix(.1,0,0,-.1,0,792)" d="M4876.3 210.5 4676.3-135.898 4776.3-309.102H4976.3L5076.3-135.898H4876.3L4976.3 37.3008H5176.3L5276.3-135.898 5076.3-482.301H4676.3 4476.3 4276.3L4076.3-828.699 4276.3-1175.1H4476.3L4576.3-1001.9 4476.3-828.699 4376.3-1001.9 4276.3-828.699 4376.3-655.5H4576.3L4776.3-1001.9 4576.3-1348.3 4476.3-1521.5 4376.3-1694.7 4576.3-2041.1H4976.3L5076.3-1867.9 4976.3-1694.7H4776.3L4876.3-1867.9H4676.3L4576.3-1694.7 4676.3-1521.5H5076.3L5276.3-1867.9 5376.3-2041.1 5476.3-2214.3H5876.3L6076.3-1867.9 5976.3-1694.7H5776.3L5676.3-1867.9H5876.3L5776.3-2041.1H5576.3L5476.3-1867.9 5676.3-1521.5H6076.3 6276.3 6476.3L6676.3-1175.1 6476.3-828.699H6276.3L6176.3-1001.9 6276.3-1175.1 6376.3-1001.9 6476.3-1175.1 6376.3-1348.3H6176.3L5976.3-1001.9 6176.3-655.5 6276.3-482.301 6376.3-309.102 6176.3 37.3008H5776.3L5676.3-135.898 5776.3-309.102H5976.3L5876.3-135.898H6076.3L6176.3-309.102 6076.3-482.301H5676.3L5476.3-135.898 5376.3 37.3008 5276.3 210.5" fill="#b80000"/>
<path transform="matrix(.1,0,0,-.1,0,792)" stroke-width="50" stroke-linecap="butt" stroke-miterlimit="10" stroke-linejoin="miter" fill="none" stroke="#ffffff" d="M4876.3 210.5 4676.3-135.898 4776.3-309.102H4976.3L5076.3-135.898H4876.3L4976.3 37.3008H5176.3L5276.3-135.898 5076.3-482.301H4676.3 4476.3 4276.3L4076.3-828.699 4276.3-1175.1H4476.3L4576.3-1001.9 4476.3-828.699 4376.3-1001.9 4276.3-828.699 4376.3-655.5H4576.3L4776.3-1001.9 4576.3-1348.3 4476.3-1521.5 4376.3-1694.7 4576.3-2041.1H4976.3L5076.3-1867.9 4976.3-1694.7H4776.3L4876.3-1867.9H4676.3L4576.3-1694.7 4676.3-1521.5H5076.3L5276.3-1867.9 5376.3-2041.1 5476.3-2214.3H5876.3L6076.3-1867.9 5976.3-1694.7H5776.3L5676.3-1867.9H5876.3L5776.3-2041.1H5576.3L5476.3-1867.9 5676.3-1521.5H6076.3 6276.3 6476.3L6676.3-1175.1 6476.3-828.699H6276.3L6176.3-1001.9 6276.3-1175.1 6376.3-1001.9 6476.3-1175.1 6376.3-1348.3H6176.3L5976.3-1001.9 6176.3-655.5 6276.3-482.301 6376.3-309.102 6176.3 37.3008H5776.3L5676.3-135.898 5776.3-309.102H5976.3L5876.3-135.898H6076.3L6176.3-309.102 6076.3-482.301H5676.3L5476.3-135.898 5376.3 37.3008 5276.3 210.5Z"/>
<path transform="matrix(.1,0,0,-.1,0,792)" d="M6176.3-655.5 5976.3-1001.9 6176.3-1348.3H6376.3L6476.3-1175.1 6376.3-1001.9 6276.3-1175.1 6176.3-1001.9 6276.3-828.699H6476.3L6676.3-1175.1 6476.3-1521.5 6376.3-1694.7 6276.3-1867.9 6476.3-2214.3H6876.3L6976.3-2041.1 6876.3-1867.9H6676.3L6776.3-2041.1H6576.3L6476.3-1867.9 6576.3-1694.7H6976.3L7176.3-2041.1 7276.3-2214.3 7376.3-2387.5H7776.3L7976.3-2041.1 7876.3-1867.9H7676.3L7576.3-2041.1H7776.3L7676.3-2214.3H7476.3L7376.3-2041.1 7576.3-1694.7H7976.3 8176.3 8376.3L8576.3-1348.3 8376.3-1001.9H8176.3L8076.3-1175.1 8176.3-1348.3 8276.3-1175.1 8376.3-1348.3 8276.3-1521.5H8076.3L7876.3-1175.1 8076.3-828.699 8176.3-655.5 8276.3-482.301 8076.3-135.898H7676.3L7576.3-309.102 7676.3-482.301H7876.3L7776.3-309.102H7976.3L8076.3-482.301 7976.3-655.5H7576.3L7376.3-309.102 7276.3-135.898 7176.3 37.3008H6776.3L6576.3-309.102 6676.3-482.301H6876.3L6976.3-309.102H6776.3L6876.3-135.898H7076.3L7176.3-309.102 6976.3-655.5H6576.3 6376.3" fill="#b80000"/>
<path transform="matrix(.1,0,0,-.1,0,792)" stroke-width="50" stroke-linecap="butt" stroke-miterlimit="10" stroke-linejoin="miter" fill="none" stroke="#ffffff" d="M6176.3-655.5 5976.3-1001.9 6176.3-1348.3H6376.3L6476.3-1175.1 6376.3-1001.9 6276.3-1175.1 6176.3-1001.9 6276.3-828.699H6476.3L6676.3-1175.1 6476.3-1521.5 6376.3-1694.7 6276.3-1867.9 6476.3-2214.3H6876.3L6976.3-2041.1 6876.3-1867.9H6676.3L6776.3-2041.1H6576.3L6476.3-1867.9 6576.3-1694.7H6976.3L7176.3-2041.1 7276.3-2214.3 7376.3-2387.5H7776.3L7976.3-2041.1 7876.3-1867.9H7676.3L7576.3-2041.1H7776.3L7676.3-2214.3H7476.3L7376.3-2041.1 7576.3-1694.7H7976.3 8176.3 8376.3L8576.3-1348.3 8376.3-1001.9H8176.3L8076.3-1175.1 8176.3-1348.3 8276.3-1175.1 8376.3-1348.3 8276.3-1521.5H8076.3L7876.3-1175.1 8076.3-828.699 8176.3-655.5 8276.3-482.301 8076.3-135.898H7676.3L7576.3-309.102 7676.3-482.301H7876.3L7776.3-309.102H7976.3L8076.3-482.301 7976.3-655.5H7576.3L7376.3-309.102 7276.3-135.898 7176.3 37.3008H6776.3L6576.3-309.102 6676.3-482.301H6876.3L6976.3-309.102H6776.3L6876.3-135.898H7076.3L7176.3-309.102 6976.3-655.5H6576.3 6376.3Z"/>
</svg>
