<svg xmlns="http://www.w3.org/2000/svg" xmlns:xlink="http://www.w3.org/1999/xlink" xmlns:inkscape="http://www.inkscape.org/namespaces/inkscape" version="1.1" width="612" height="792" viewBox="0 0 612 792">
<path transform="matrix(.1,0,0,-.1,0,792)" d="M2819.8 2866.2H3719.8L3119.8 3905.4H4019.8L3869.8 3645.6 4019.8 3385.8 4469.8 4165.2H3269.8L3719.8 4944.6 3869.8 4684.8H4169.8L3719.8 5464.2 3119.8 4425 2669.8 5204.4H2969.8L3119.8 5464.2H2219.8L2819.8 4425H1919.8L2069.8 4684.8 1919.8 4944.6 1469.8 4165.2H2669.8L2219.8 3385.8 2069.8 3645.6H1769.8L2219.8 2866.2 2819.8 3905.4 3269.8 3126H2969.8" fill="#edd6bf"/>
<path transform="matrix(.1,0,0,-.1,0,792)" stroke-width="20" stroke-linecap="butt" stroke-miterlimit="10" stroke-linejoin="miter" fill="none" stroke="#000000" d="M2819.8 2866.2H3719.8L3119.8 3905.4H4019.8L3869.8 3645.6 4019.8 3385.8 4469.8 4165.2H3269.8L3719.8 4944.6 3869.8 4684.8H4169.8L3719.8 5464.2 3119.8 4425 2669.8 5204.4H2969.8L3119.8 5464.2H2219.8L2819.8 4425H1919.8L2069.8 4684.8 1919.8 4944.6 1469.8 4165.2H2669.8L2219.8 3385.8 2069.8 3645.6H1769.8L2219.8 2866.2 2819.8 3905.4 3269.8 3126H2969.8Z"/>
<path transform="matrix(.1,0,0,-.1,0,792)" d="M3119.8 4425 3719.8 5464.2 4169.8 4684.8H3869.8L3719.8 4425H4619.8L4019.8 5464.2H4919.8L4769.8 5204.4 4919.8 4944.6 5369.8 5724.1H4169.8L4619.8 6503.5 4769.8 6243.7H5069.8L4619.8 7023.1 4019.8 5983.9 3569.8 6763.3H3869.8L4019.8 7023.1H3119.8L3719.8 5983.9H2819.8L2969.8 6243.7 2819.8 6503.5 2369.8 5724.1H3569.8L3119.8 4944.6 2969.8 5204.4H2669.8" fill="#b0c4d9"/>
<path transform="matrix(.1,0,0,-.1,0,792)" stroke-width="20" stroke-linecap="butt" stroke-miterlimit="10" stroke-linejoin="miter" fill="none" stroke="#000000" d="M3119.8 4425 3719.8 5464.2 4169.8 4684.8H3869.8L3719.8 4425H4619.8L4019.8 5464.2H4919.8L4769.8 5204.4 4919.8 4944.6 5369.8 5724.1H4169.8L4619.8 6503.5 4769.8 6243.7H5069.8L4619.8 7023.1 4019.8 5983.9 3569.8 6763.3H3869.8L4019.8 7023.1H3119.8L3719.8 5983.9H2819.8L2969.8 6243.7 2819.8 6503.5 2369.8 5724.1H3569.8L3119.8 4944.6 2969.8 5204.4H2669.8Z"/>
<path transform="matrix(.1,0,0,-.1,0,792)" d="M2819.8 4425 2219.8 5464.2H3119.8L2969.8 5204.4 3119.8 4944.6 3569.8 5724.1H2369.8L2819.8 6503.5 2969.8 6243.7H3269.8L2819.8 7023.1 2219.8 5983.9 1769.8 6763.3H2069.8L2219.8 7023.1H1319.8L1919.8 5983.9H1019.8L1169.8 6243.7 1019.8 6503.5 569.801 5724.1H1769.8L1319.8 4944.6 1169.8 5204.4H869.801L1319.8 4425 1919.8 5464.2 2369.8 4684.8H2069.8L1919.8 4425" fill="#87b2a8"/>
<path transform="matrix(.1,0,0,-.1,0,792)" stroke-width="20" stroke-linecap="butt" stroke-miterlimit="10" stroke-linejoin="miter" fill="none" stroke="#000000" d="M2819.8 4425 2219.8 5464.2H3119.8L2969.8 5204.4 3119.8 4944.6 3569.8 5724.1H2369.8L2819.8 6503.5 2969.8 6243.7H3269.8L2819.8 7023.1 2219.8 5983.9 1769.8 6763.3H2069.8L2219.8 7023.1H1319.8L1919.8 5983.9H1019.8L1169.8 6243.7 1019.8 6503.5 569.801 5724.1H1769.8L1319.8 4944.6 1169.8 5204.4H869.801L1319.8 4425 1919.8 5464.2 2369.8 4684.8H2069.8L1919.8 4425Z"/>
<path transform="matrix(.1,0,0,-.1,0,792)" d="M2819.8 3905.4 2219.8 2866.2 1769.8 3645.6H2069.8L2219.8 3905.4H1319.8L1919.8 2866.2H1019.8L1169.8 3126 1019.8 3385.8 569.801 2606.4H1769.8L1319.8 1826.9 1169.8 2086.7H869.801L1319.8 1307.3 1919.8 2346.6 2369.8 1567.1H2069.8L1919.8 1307.3H2819.8L2219.8 2346.6H3119.8L2969.8 2086.7 3119.8 1826.9 3569.8 2606.4H2369.8L2819.8 3385.8 2969.8 3126H3269.8" fill="#87b2a8"/>
<path transform="matrix(.1,0,0,-.1,0,792)" stroke-width="20" stroke-linecap="butt" stroke-miterlimit="10" stroke-linejoin="miter" fill="none" stroke="#000000" d="M2819.8 3905.4 2219.8 2866.2 1769.8 3645.6H2069.8L2219.8 3905.4H1319.8L1919.8 2866.2H1019.8L1169.8 3126 1019.8 3385.8 569.801 2606.4H1769.8L1319.8 1826.9 1169.8 2086.7H869.801L1319.8 1307.3 1919.8 2346.6 2369.8 1567.1H2069.8L1919.8 1307.3H2819.8L2219.8 2346.6H3119.8L2969.8 2086.7 3119.8 1826.9 3569.8 2606.4H2369.8L2819.8 3385.8 2969.8 3126H3269.8Z"/>
<path transform="matrix(.1,0,0,-.1,0,792)" d="M3119.8 3905.4 3719.8 2866.2H2819.8L2969.8 3126 2819.8 3385.8 2369.8 2606.4H3569.8L3119.8 1826.9 2969.8 2086.7H2669.8L3119.8 1307.3 3719.8 2346.6 4169.8 1567.1H3869.8L3719.8 1307.3H4619.8L4019.8 2346.6H4919.8L4769.8 2086.7 4919.8 1826.9 5369.8 2606.4H4169.8L4619.8 3385.8 4769.8 3126H5069.8L4619.8 3905.4 4019.8 2866.2 3569.8 3645.6H3869.8L4019.8 3905.4" fill="#b0c4d9"/>
<path transform="matrix(.1,0,0,-.1,0,792)" stroke-width="20" stroke-linecap="butt" stroke-miterlimit="10" stroke-linejoin="miter" fill="none" stroke="#000000" d="M3119.8 3905.4 3719.8 2866.2H2819.8L2969.8 3126 2819.8 3385.8 2369.8 2606.4H3569.8L3119.8 1826.9 2969.8 2086.7H2669.8L3119.8 1307.3 3719.8 2346.6 4169.8 1567.1H3869.8L3719.8 1307.3H4619.8L4019.8 2346.6H4919.8L4769.8 2086.7 4919.8 1826.9 5369.8 2606.4H4169.8L4619.8 3385.8 4769.8 3126H5069.8L4619.8 3905.4 4019.8 2866.2 3569.8 3645.6H3869.8L4019.8 3905.4Z"/>
<path transform="matrix(.1,0,0,-.1,0,792)" d="M3269.8 4165.2H4469.8L4019.8 3385.8 3869.8 3645.6H3569.8L4019.8 2866.2 4619.8 3905.4 5069.8 3126H4769.8L4619.8 2866.2H5519.8L4919.8 3905.4H5819.8L5669.8 3645.6 5819.8 3385.8 6269.8 4165.2H5069.8L5519.8 4944.6 5669.8 4684.8H5969.8L5519.8 5464.2 4919.8 4425 4469.8 5204.4H4769.8L4919.8 5464.2H4019.8L4619.8 4425H3719.8L3869.8 4684.8 3719.8 4944.6" fill="#87b2a8"/>
<path transform="matrix(.1,0,0,-.1,0,792)" stroke-width="20" stroke-linecap="butt" stroke-miterlimit="10" stroke-linejoin="miter" fill="none" stroke="#000000" d="M3269.8 4165.2H4469.8L4019.8 3385.8 3869.8 3645.6H3569.8L4019.8 2866.2 4619.8 3905.4 5069.8 3126H4769.8L4619.8 2866.2H5519.8L4919.8 3905.4H5819.8L5669.8 3645.6 5819.8 3385.8 6269.8 4165.2H5069.8L5519.8 4944.6 5669.8 4684.8H5969.8L5519.8 5464.2 4919.8 4425 4469.8 5204.4H4769.8L4919.8 5464.2H4019.8L4619.8 4425H3719.8L3869.8 4684.8 3719.8 4944.6Z"/>
<path transform="matrix(.1,0,0,-.1,0,792)" d="M2669.8 4165.2H1469.8L1919.8 4944.6 2069.8 4684.8H2369.8L1919.8 5464.2 1319.8 4425 869.801 5204.4H1169.8L1319.8 5464.2H419.801L1019.8 4425H119.801L269.801 4684.8 119.801 4944.6-330.199 4165.2H869.801L419.801 3385.8 269.801 3645.6H-30.1992L419.801 2866.2 1019.8 3905.4 1469.8 3126H1169.8L1019.8 2866.2H1919.8L1319.8 3905.4H2219.8L2069.8 3645.6 2219.8 3385.8" fill="#b0c4d9"/>
<path transform="matrix(.1,0,0,-.1,0,792)" stroke-width="20" stroke-linecap="butt" stroke-miterlimit="10" stroke-linejoin="miter" fill="none" stroke="#000000" d="M2669.8 4165.2H1469.8L1919.8 4944.6 2069.8 4684.8H2369.8L1919.8 5464.2 1319.8 4425 869.801 5204.4H1169.8L1319.8 5464.2H419.801L1019.8 4425H119.801L269.801 4684.8 119.801 4944.6-330.199 4165.2H869.801L419.801 3385.8 269.801 3645.6H-30.1992L419.801 2866.2 1019.8 3905.4 1469.8 3126H1169.8L1019.8 2866.2H1919.8L1319.8 3905.4H2219.8L2069.8 3645.6 2219.8 3385.8Z"/>
<path transform="matrix(.1,0,0,-.1,0,792)" d="M4169.8 2606.4H5369.8L4919.8 1826.9 4769.8 2086.7H4469.8L4919.8 1307.3 5519.8 2346.6 5969.8 1567.1H5669.8L5519.8 1307.3H6419.8L5819.8 2346.6H6719.8L6569.8 2086.7 6719.8 1826.9 7169.8 2606.4H5969.8L6419.8 3385.8 6569.8 3126H6869.8L6419.8 3905.4 5819.8 2866.2 5369.8 3645.6H5669.8L5819.8 3905.4H4919.8L5519.8 2866.2H4619.8L4769.8 3126 4619.8 3385.8" fill="#edd6bf"/>
<path transform="matrix(.1,0,0,-.1,0,792)" stroke-width="20" stroke-linecap="butt" stroke-miterlimit="10" stroke-linejoin="miter" fill="none" stroke="#000000" d="M4169.8 2606.4H5369.8L4919.8 1826.9 4769.8 2086.7H4469.8L4919.8 1307.3 5519.8 2346.6 5969.8 1567.1H5669.8L5519.8 1307.3H6419.8L5819.8 2346.6H6719.8L6569.8 2086.7 6719.8 1826.9 7169.8 2606.4H5969.8L6419.8 3385.8 6569.8 3126H6869.8L6419.8 3905.4 5819.8 2866.2 5369.8 3645.6H5669.8L5819.8 3905.4H4919.8L5519.8 2866.2H4619.8L4769.8 3126 4619.8 3385.8Z"/>
<path transform="matrix(.1,0,0,-.1,0,792)" d="M4169.8 5724.1H5369.8L4919.8 4944.6 4769.8 5204.4H4469.8L4919.8 4425 5519.8 5464.2 5969.8 4684.8H5669.8L5519.8 4425H6419.8L5819.8 5464.2H6719.8L6569.8 5204.4 6719.8 4944.6 7169.8 5724.1H5969.8L6419.8 6503.5 6569.8 6243.7H6869.8L6419.8 7023.1 5819.8 5983.9 5369.8 6763.3H5669.8L5819.8 7023.1H4919.8L5519.8 5983.9H4619.8L4769.8 6243.7 4619.8 6503.5" fill="#edd6bf"/>
<path transform="matrix(.1,0,0,-.1,0,792)" stroke-width="20" stroke-linecap="butt" stroke-miterlimit="10" stroke-linejoin="miter" fill="none" stroke="#000000" d="M4169.8 5724.1H5369.8L4919.8 4944.6 4769.8 5204.4H4469.8L4919.8 4425 5519.8 5464.2 5969.8 4684.8H5669.8L5519.8 4425H6419.8L5819.8 5464.2H6719.8L6569.8 5204.4 6719.8 4944.6 7169.8 5724.1H5969.8L6419.8 6503.5 6569.8 6243.7H6869.8L6419.8 7023.1 5819.8 5983.9 5369.8 6763.3H5669.8L5819.8 7023.1H4919.8L5519.8 5983.9H4619.8L4769.8 6243.7 4619.8 6503.5Z"/>
<path transform="matrix(.1,0,0,-.1,0,792)" d="M1769.8 5724.1H569.801L1019.8 6503.5 1169.8 6243.7H1469.8L1019.8 7023.1 419.801 5983.9-30.1992 6763.3H269.801L419.801 7023.1H-480.199L119.801 5983.9H-780.199L-630.199 6243.7-780.199 6503.5-1230.2 5724.1H-30.1992L-480.199 4944.6-630.199 5204.4H-930.199L-480.199 4425 119.801 5464.2 569.801 4684.8H269.801L119.801 4425H1019.8L419.801 5464.2H1319.8L1169.8 5204.4 1319.8 4944.6" fill="#edd6bf"/>
<path transform="matrix(.1,0,0,-.1,0,792)" stroke-width="20" stroke-linecap="butt" stroke-miterlimit="10" stroke-linejoin="miter" fill="none" stroke="#000000" d="M1769.8 5724.1H569.801L1019.8 6503.5 1169.8 6243.7H1469.8L1019.8 7023.1 419.801 5983.9-30.1992 6763.3H269.801L419.801 7023.1H-480.199L119.801 5983.9H-780.199L-630.199 6243.7-780.199 6503.5-1230.2 5724.1H-30.1992L-480.199 4944.6-630.199 5204.4H-930.199L-480.199 4425 119.801 5464.2 569.801 4684.8H269.801L119.801 4425H1019.8L419.801 5464.2H1319.8L1169.8 5204.4 1319.8 4944.6Z"/>
<path transform="matrix(.1,0,0,-.1,0,792)" d="M1769.8 2606.4H569.801L1019.8 3385.8 1169.8 3126H1469.8L1019.8 3905.4 419.801 2866.2-30.1992 3645.6H269.801L419.801 3905.4H-480.199L119.801 2866.2H-780.199L-630.199 3126-780.199 3385.8-1230.2 2606.4H-30.1992L-480.199 1826.9-630.199 2086.7H-930.199L-480.199 1307.3 119.801 2346.6 569.801 1567.1H269.801L119.801 1307.3H1019.8L419.801 2346.6H1319.8L1169.8 2086.7 1319.8 1826.9" fill="#edd6bf"/>
<path transform="matrix(.1,0,0,-.1,0,792)" stroke-width="20" stroke-linecap="butt" stroke-miterlimit="10" stroke-linejoin="miter" fill="none" stroke="#000000" d="M1769.8 2606.4H569.801L1019.8 3385.8 1169.8 3126H1469.8L1019.8 3905.4 419.801 2866.2-30.1992 3645.6H269.801L419.801 3905.4H-480.199L119.801 2866.2H-780.199L-630.199 3126-780.199 3385.8-1230.2 2606.4H-30.1992L-480.199 1826.9-630.199 2086.7H-930.199L-480.199 1307.3 119.801 2346.6 569.801 1567.1H269.801L119.801 1307.3H1019.8L419.801 2346.6H1319.8L1169.8 2086.7 1319.8 1826.9Z"/>
<path transform="matrix(.1,0,0,-.1,0,792)" d="M4019.8 5983.9 4619.8 7023.1 5069.8 6243.7H4769.8L4619.8 5983.9H5519.8L4919.8 7023.1H5819.8L5669.8 6763.3 5819.8 6503.5 6269.8 7282.9H5069.8L5519.8 8062.3 5669.8 7802.5H5969.8L5519.8 8581.9 4919.8 7542.7 4469.8 8322.1H4769.8L4919.8 8581.9H4019.8L4619.8 7542.7H3719.8L3869.8 7802.5 3719.8 8062.3 3269.8 7282.9H4469.8L4019.8 6503.5 3869.8 6763.3H3569.8" fill="#87b2a8"/>
<path transform="matrix(.1,0,0,-.1,0,792)" stroke-width="20" stroke-linecap="butt" stroke-miterlimit="10" stroke-linejoin="miter" fill="none" stroke="#000000" d="M4019.8 5983.9 4619.8 7023.1 5069.8 6243.7H4769.8L4619.8 5983.9H5519.8L4919.8 7023.1H5819.8L5669.8 6763.3 5819.8 6503.5 6269.8 7282.9H5069.8L5519.8 8062.3 5669.8 7802.5H5969.8L5519.8 8581.9 4919.8 7542.7 4469.8 8322.1H4769.8L4919.8 8581.9H4019.8L4619.8 7542.7H3719.8L3869.8 7802.5 3719.8 8062.3 3269.8 7282.9H4469.8L4019.8 6503.5 3869.8 6763.3H3569.8Z"/>
<path transform="matrix(.1,0,0,-.1,0,792)" d="M3719.8 5983.9 3119.8 7023.1H4019.8L3869.8 6763.3 4019.8 6503.5 4469.8 7282.9H3269.8L3719.8 8062.3 3869.8 7802.5H4169.8L3719.8 8581.9 3119.8 7542.7 2669.8 8322.1H2969.8L3119.8 8581.9H2219.8L2819.8 7542.7H1919.8L2069.8 7802.5 1919.8 8062.3 1469.8 7282.9H2669.8L2219.8 6503.5 2069.8 6763.3H1769.8L2219.8 5983.9 2819.8 7023.1 3269.8 6243.7H2969.8L2819.8 5983.9" fill="#edd6bf"/>
<path transform="matrix(.1,0,0,-.1,0,792)" stroke-width="20" stroke-linecap="butt" stroke-miterlimit="10" stroke-linejoin="miter" fill="none" stroke="#000000" d="M3719.8 5983.9 3119.8 7023.1H4019.8L3869.8 6763.3 4019.8 6503.5 4469.8 7282.9H3269.8L3719.8 8062.3 3869.8 7802.5H4169.8L3719.8 8581.9 3119.8 7542.7 2669.8 8322.1H2969.8L3119.8 8581.9H2219.8L2819.8 7542.7H1919.8L2069.8 7802.5 1919.8 8062.3 1469.8 7282.9H2669.8L2219.8 6503.5 2069.8 6763.3H1769.8L2219.8 5983.9 2819.8 7023.1 3269.8 6243.7H2969.8L2819.8 5983.9Z"/>
<path transform="matrix(.1,0,0,-.1,0,792)" d="M1919.8 5983.9 1319.8 7023.1H2219.8L2069.8 6763.3 2219.8 6503.5 2669.8 7282.9H1469.8L1919.8 8062.3 2069.8 7802.5H2369.8L1919.8 8581.9 1319.8 7542.7 869.801 8322.1H1169.8L1319.8 8581.9H419.801L1019.8 7542.7H119.801L269.801 7802.5 119.801 8062.3-330.199 7282.9H869.801L419.801 6503.5 269.801 6763.3H-30.1992L419.801 5983.9 1019.8 7023.1 1469.8 6243.7H1169.8L1019.8 5983.9" fill="#b0c4d9"/>
<path transform="matrix(.1,0,0,-.1,0,792)" stroke-width="20" stroke-linecap="butt" stroke-miterlimit="10" stroke-linejoin="miter" fill="none" stroke="#000000" d="M1919.8 5983.9 1319.8 7023.1H2219.8L2069.8 6763.3 2219.8 6503.5 2669.8 7282.9H1469.8L1919.8 8062.3 2069.8 7802.5H2369.8L1919.8 8581.9 1319.8 7542.7 869.801 8322.1H1169.8L1319.8 8581.9H419.801L1019.8 7542.7H119.801L269.801 7802.5 119.801 8062.3-330.199 7282.9H869.801L419.801 6503.5 269.801 6763.3H-30.1992L419.801 5983.9 1019.8 7023.1 1469.8 6243.7H1169.8L1019.8 5983.9Z"/>
<path transform="matrix(.1,0,0,-.1,0,792)" d="M1919.8 2346.6 1319.8 1307.3 869.801 2086.7H1169.8L1319.8 2346.6H419.801L1019.8 1307.3H119.801L269.801 1567.1 119.801 1826.9-330.199 1047.5H869.801L419.801 268.102 269.801 527.898H-30.1992L419.801-251.5 1019.8 787.699 1469.8 8.30078H1169.8L1019.8-251.5H1919.8L1319.8 787.699H2219.8L2069.8 527.898 2219.8 268.102 2669.8 1047.5H1469.8L1919.8 1826.9 2069.8 1567.1H2369.8" fill="#b0c4d9"/>
<path transform="matrix(.1,0,0,-.1,0,792)" stroke-width="20" stroke-linecap="butt" stroke-miterlimit="10" stroke-linejoin="miter" fill="none" stroke="#000000" d="M1919.8 2346.6 1319.8 1307.3 869.801 2086.7H1169.8L1319.8 2346.6H419.801L1019.8 1307.3H119.801L269.801 1567.1 119.801 1826.9-330.199 1047.5H869.801L419.801 268.102 269.801 527.898H-30.1992L419.801-251.5 1019.8 787.699 1469.8 8.30078H1169.8L1019.8-251.5H1919.8L1319.8 787.699H2219.8L2069.8 527.898 2219.8 268.102 2669.8 1047.5H1469.8L1919.8 1826.9 2069.8 1567.1H2369.8Z"/>
<path transform="matrix(.1,0,0,-.1,0,792)" d="M2219.8 2346.6 2819.8 1307.3H1919.8L2069.8 1567.1 1919.8 1826.9 1469.8 1047.5H2669.8L2219.8 268.102 2069.8 527.898H1769.8L2219.8-251.5 2819.8 787.699 3269.8 8.30078H2969.8L2819.8-251.5H3719.8L3119.8 787.699H4019.8L3869.8 527.898 4019.8 268.102 4469.8 1047.5H3269.8L3719.8 1826.9 3869.8 1567.1H4169.8L3719.8 2346.6 3119.8 1307.3 2669.8 2086.7H2969.8L3119.8 2346.6" fill="#edd6bf"/>
<path transform="matrix(.1,0,0,-.1,0,792)" stroke-width="20" stroke-linecap="butt" stroke-miterlimit="10" stroke-linejoin="miter" fill="none" stroke="#000000" d="M2219.8 2346.6 2819.8 1307.3H1919.8L2069.8 1567.1 1919.8 1826.9 1469.8 1047.5H2669.8L2219.8 268.102 2069.8 527.898H1769.8L2219.8-251.5 2819.8 787.699 3269.8 8.30078H2969.8L2819.8-251.5H3719.8L3119.8 787.699H4019.8L3869.8 527.898 4019.8 268.102 4469.8 1047.5H3269.8L3719.8 1826.9 3869.8 1567.1H4169.8L3719.8 2346.6 3119.8 1307.3 2669.8 2086.7H2969.8L3119.8 2346.6Z"/>
<path transform="matrix(.1,0,0,-.1,0,792)" d="M4019.8 2346.6 4619.8 1307.3H3719.8L3869.8 1567.1 3719.8 1826.9 3269.8 1047.5H4469.8L4019.8 268.102 3869.8 527.898H3569.8L4019.8-251.5 4619.8 787.699 5069.8 8.30078H4769.8L4619.8-251.5H5519.8L4919.8 787.699H5819.8L5669.8 527.898 5819.8 268.102 6269.8 1047.5H5069.8L5519.8 1826.9 5669.8 1567.1H5969.8L5519.8 2346.6 4919.8 1307.3 4469.8 2086.7H4769.8L4919.8 2346.6" fill="#87b2a8"/>
<path transform="matrix(.1,0,0,-.1,0,792)" stroke-width="20" stroke-linecap="butt" stroke-miterlimit="10" stroke-linejoin="miter" fill="none" stroke="#000000" d="M4019.8 2346.6 4619.8 1307.3H3719.8L3869.8 1567.1 3719.8 1826.9 3269.8 1047.5H4469.8L4019.8 268.102 3869.8 527.898H3569.8L4019.8-251.5 4619.8 787.699 5069.8 8.30078H4769.8L4619.8-251.5H5519.8L4919.8 787.699H5819.8L5669.8 527.898 5819.8 268.102 6269.8 1047.5H5069.8L5519.8 1826.9 5669.8 1567.1H5969.8L5519.8 2346.6 4919.8 1307.3 4469.8 2086.7H4769.8L4919.8 2346.6Z"/>
<path transform="matrix(.1,0,0,-.1,0,792)" d="M5069.8 4165.2H6269.8L5819.8 3385.8 5669.8 3645.6H5369.8L5819.8 2866.2 6419.8 3905.4 6869.8 3126H6569.8L6419.8 2866.2H7319.8L6719.8 3905.4H7619.8L7469.8 3645.6 7619.8 3385.8 8069.8 4165.2H6869.8L7319.8 4944.6 7469.8 4684.8H7769.8L7319.8 5464.2 6719.8 4425 6269.8 5204.4H6569.8L6719.8 5464.2H5819.8L6419.8 4425H5519.8L5669.8 4684.8 5519.8 4944.6" fill="#b0c4d9"/>
<path transform="matrix(.1,0,0,-.1,0,792)" stroke-width="20" stroke-linecap="butt" stroke-miterlimit="10" stroke-linejoin="miter" fill="none" stroke="#000000" d="M5069.8 4165.2H6269.8L5819.8 3385.8 5669.8 3645.6H5369.8L5819.8 2866.2 6419.8 3905.4 6869.8 3126H6569.8L6419.8 2866.2H7319.8L6719.8 3905.4H7619.8L7469.8 3645.6 7619.8 3385.8 8069.8 4165.2H6869.8L7319.8 4944.6 7469.8 4684.8H7769.8L7319.8 5464.2 6719.8 4425 6269.8 5204.4H6569.8L6719.8 5464.2H5819.8L6419.8 4425H5519.8L5669.8 4684.8 5519.8 4944.6Z"/>
<path transform="matrix(.1,0,0,-.1,0,792)" d="M869.801 4165.2H-330.199L119.801 4944.6 269.801 4684.8H569.801L119.801 5464.2-480.199 4425-930.199 5204.4H-630.199L-480.199 5464.2H-1380.2L-780.199 4425H-1680.2L-1530.2 4684.8-1680.2 4944.6-2130.2 4165.2H-930.199L-1380.2 3385.8-1530.2 3645.6H-1830.2L-1380.2 2866.2-780.199 3905.4-330.199 3126H-630.199L-780.199 2866.2H119.801L-480.199 3905.4H419.801L269.801 3645.6 419.801 3385.8" fill="#87b2a8"/>
<path transform="matrix(.1,0,0,-.1,0,792)" stroke-width="20" stroke-linecap="butt" stroke-miterlimit="10" stroke-linejoin="miter" fill="none" stroke="#000000" d="M869.801 4165.2H-330.199L119.801 4944.6 269.801 4684.8H569.801L119.801 5464.2-480.199 4425-930.199 5204.4H-630.199L-480.199 5464.2H-1380.2L-780.199 4425H-1680.2L-1530.2 4684.8-1680.2 4944.6-2130.2 4165.2H-930.199L-1380.2 3385.8-1530.2 3645.6H-1830.2L-1380.2 2866.2-780.199 3905.4-330.199 3126H-630.199L-780.199 2866.2H119.801L-480.199 3905.4H419.801L269.801 3645.6 419.801 3385.8Z"/>
<path transform="matrix(.1,0,0,-.1,0,792)" d="M5069.8 7282.9H6269.8L5819.8 6503.5 5669.8 6763.3H5369.8L5819.8 5983.9 6419.8 7023.1 6869.8 6243.7H6569.8L6419.8 5983.9H7319.8L6719.8 7023.1H7619.8L7469.8 6763.3 7619.8 6503.5 8069.8 7282.9H6869.8L7319.8 8062.3 7469.8 7802.5H7769.8L7319.8 8581.9 6719.8 7542.7 6269.8 8322.1H6569.8L6719.8 8581.9H5819.8L6419.8 7542.7H5519.8L5669.8 7802.5 5519.8 8062.3" fill="#b0c4d9"/>
<path transform="matrix(.1,0,0,-.1,0,792)" stroke-width="20" stroke-linecap="butt" stroke-miterlimit="10" stroke-linejoin="miter" fill="none" stroke="#000000" d="M5069.8 7282.9H6269.8L5819.8 6503.5 5669.8 6763.3H5369.8L5819.8 5983.9 6419.8 7023.1 6869.8 6243.7H6569.8L6419.8 5983.9H7319.8L6719.8 7023.1H7619.8L7469.8 6763.3 7619.8 6503.5 8069.8 7282.9H6869.8L7319.8 8062.3 7469.8 7802.5H7769.8L7319.8 8581.9 6719.8 7542.7 6269.8 8322.1H6569.8L6719.8 8581.9H5819.8L6419.8 7542.7H5519.8L5669.8 7802.5 5519.8 8062.3Z"/>
<path transform="matrix(.1,0,0,-.1,0,792)" d="M869.801 7282.9H-330.199L119.801 8062.3 269.801 7802.5H569.801L119.801 8581.9-480.199 7542.7-930.199 8322.1H-630.199L-480.199 8581.9H-1380.2L-780.199 7542.7H-1680.2L-1530.2 7802.5-1680.2 8062.3-2130.2 7282.9H-930.199L-1380.2 6503.5-1530.2 6763.3H-1830.2L-1380.2 5983.9-780.199 7023.1-330.199 6243.7H-630.199L-780.199 5983.9H119.801L-480.199 7023.1H419.801L269.801 6763.3 419.801 6503.5" fill="#87b2a8"/>
<path transform="matrix(.1,0,0,-.1,0,792)" stroke-width="20" stroke-linecap="butt" stroke-miterlimit="10" stroke-linejoin="miter" fill="none" stroke="#000000" d="M869.801 7282.9H-330.199L119.801 8062.3 269.801 7802.5H569.801L119.801 8581.9-480.199 7542.7-930.199 8322.1H-630.199L-480.199 8581.9H-1380.2L-780.199 7542.7H-1680.2L-1530.2 7802.5-1680.2 8062.3-2130.2 7282.9H-930.199L-1380.2 6503.5-1530.2 6763.3H-1830.2L-1380.2 5983.9-780.199 7023.1-330.199 6243.7H-630.199L-780.199 5983.9H119.801L-480.199 7023.1H419.801L269.801 6763.3 419.801 6503.5Z"/>
<path transform="matrix(.1,0,0,-.1,0,792)" d="M869.801 1047.5H-330.199L119.801 1826.9 269.801 1567.1H569.801L119.801 2346.6-480.199 1307.3-930.199 2086.7H-630.199L-480.199 2346.6H-1380.2L-780.199 1307.3H-1680.2L-1530.2 1567.1-1680.2 1826.9-2130.2 1047.5H-930.199L-1380.2 268.102-1530.2 527.898H-1830.2L-1380.2-251.5-780.199 787.699-330.199 8.30078H-630.199L-780.199-251.5H119.801L-480.199 787.699H419.801L269.801 527.898 419.801 268.102" fill="#87b2a8"/>
<path transform="matrix(.1,0,0,-.1,0,792)" stroke-width="20" stroke-linecap="butt" stroke-miterlimit="10" stroke-linejoin="miter" fill="none" stroke="#000000" d="M869.801 1047.5H-330.199L119.801 1826.9 269.801 1567.1H569.801L119.801 2346.6-480.199 1307.3-930.199 2086.7H-630.199L-480.199 2346.6H-1380.2L-780.199 1307.3H-1680.2L-1530.2 1567.1-1680.2 1826.9-2130.2 1047.5H-930.199L-1380.2 268.102-1530.2 527.898H-1830.2L-1380.2-251.5-780.199 787.699-330.199 8.30078H-630.199L-780.199-251.5H119.801L-480.199 787.699H419.801L269.801 527.898 419.801 268.102Z"/>
<path transform="matrix(.1,0,0,-.1,0,792)" d="M5069.8 1047.5H6269.8L5819.8 268.102 5669.8 527.898H5369.8L5819.8-251.5 6419.8 787.699 6869.8 8.30078H6569.8L6419.8-251.5H7319.8L6719.8 787.699H7619.8L7469.8 527.898 7619.8 268.102 8069.8 1047.5H6869.8L7319.8 1826.9 7469.8 1567.1H7769.8L7319.8 2346.6 6719.8 1307.3 6269.8 2086.7H6569.8L6719.8 2346.6H5819.8L6419.8 1307.3H5519.8L5669.8 1567.1 5519.8 1826.9" fill="#b0c4d9"/>
<path transform="matrix(.1,0,0,-.1,0,792)" stroke-width="20" stroke-linecap="butt" stroke-miterlimit="10" stroke-linejoin="miter" fill="none" stroke="#000000" d="M5069.8 1047.5H6269.8L5819.8 268.102 5669.8 527.898H5369.8L5819.8-251.5 6419.8 787.699 6869.8 8.30078H6569.8L6419.8-251.5H7319.8L6719.8 787.699H7619.8L7469.8 527.898 7619.8 268.102 8069.8 1047.5H6869.8L7319.8 1826.9 7469.8 1567.1H7769.8L7319.8 2346.6 6719.8 1307.3 6269.8 2086.7H6569.8L6719.8 2346.6H5819.8L6419.8 1307.3H5519.8L5669.8 1567.1 5519.8 1826.9Z"/>
<path transform="matrix(.1,0,0,-.1,0,792)" d="M4919.8 7542.7 5519.8 8581.9 5969.8 7802.5H5669.8L5519.8 7542.7H6419.8L5819.8 8581.9H6719.8L6569.8 8322.1 6719.8 8062.3 7169.8 8841.7H5969.8L6419.8 9621.2 6569.8 9361.4H6869.8L6419.8 10140.8 5819.8 9101.6 5369.8 9881H5669.8L5819.8 10140.8H4919.8L5519.8 9101.6H4619.8L4769.8 9361.4 4619.8 9621.2 4169.8 8841.7H5369.8L4919.8 8062.3 4769.8 8322.1H4469.8" fill="#edd6bf"/>
<path transform="matrix(.1,0,0,-.1,0,792)" stroke-width="20" stroke-linecap="butt" stroke-miterlimit="10" stroke-linejoin="miter" fill="none" stroke="#000000" d="M4919.8 7542.7 5519.8 8581.9 5969.8 7802.5H5669.8L5519.8 7542.7H6419.8L5819.8 8581.9H6719.8L6569.8 8322.1 6719.8 8062.3 7169.8 8841.7H5969.8L6419.8 9621.2 6569.8 9361.4H6869.8L6419.8 10140.8 5819.8 9101.6 5369.8 9881H5669.8L5819.8 10140.8H4919.8L5519.8 9101.6H4619.8L4769.8 9361.4 4619.8 9621.2 4169.8 8841.7H5369.8L4919.8 8062.3 4769.8 8322.1H4469.8Z"/>
<path transform="matrix(.1,0,0,-.1,0,792)" d="M4619.8 7542.7 4019.8 8581.9H4919.8L4769.8 8322.1 4919.8 8062.3 5369.8 8841.7H4169.8L4619.8 9621.2 4769.8 9361.4H5069.8L4619.8 10140.8 4019.8 9101.6 3569.8 9881H3869.8L4019.8 10140.8H3119.8L3719.8 9101.6H2819.8L2969.8 9361.4 2819.8 9621.2 2369.8 8841.7H3569.8L3119.8 8062.3 2969.8 8322.1H2669.8L3119.8 7542.7 3719.8 8581.9 4169.8 7802.5H3869.8L3719.8 7542.7" fill="#b0c4d9"/>
<path transform="matrix(.1,0,0,-.1,0,792)" stroke-width="20" stroke-linecap="butt" stroke-miterlimit="10" stroke-linejoin="miter" fill="none" stroke="#000000" d="M4619.8 7542.7 4019.8 8581.9H4919.8L4769.8 8322.1 4919.8 8062.3 5369.8 8841.7H4169.8L4619.8 9621.2 4769.8 9361.4H5069.8L4619.8 10140.8 4019.8 9101.6 3569.8 9881H3869.8L4019.8 10140.8H3119.8L3719.8 9101.6H2819.8L2969.8 9361.4 2819.8 9621.2 2369.8 8841.7H3569.8L3119.8 8062.3 2969.8 8322.1H2669.8L3119.8 7542.7 3719.8 8581.9 4169.8 7802.5H3869.8L3719.8 7542.7Z"/>
<path transform="matrix(.1,0,0,-.1,0,792)" d="M2819.8 7542.7 2219.8 8581.9H3119.8L2969.8 8322.1 3119.8 8062.3 3569.8 8841.7H2369.8L2819.8 9621.2 2969.8 9361.4H3269.8L2819.8 10140.8 2219.8 9101.6 1769.8 9881H2069.8L2219.8 10140.8H1319.8L1919.8 9101.6H1019.8L1169.8 9361.4 1019.8 9621.2 569.801 8841.7H1769.8L1319.8 8062.3 1169.8 8322.1H869.801L1319.8 7542.7 1919.8 8581.9 2369.8 7802.5H2069.8L1919.8 7542.7" fill="#87b2a8"/>
<path transform="matrix(.1,0,0,-.1,0,792)" stroke-width="20" stroke-linecap="butt" stroke-miterlimit="10" stroke-linejoin="miter" fill="none" stroke="#000000" d="M2819.8 7542.7 2219.8 8581.9H3119.8L2969.8 8322.1 3119.8 8062.3 3569.8 8841.7H2369.8L2819.8 9621.2 2969.8 9361.4H3269.8L2819.8 10140.8 2219.8 9101.6 1769.8 9881H2069.8L2219.8 10140.8H1319.8L1919.8 9101.6H1019.8L1169.8 9361.4 1019.8 9621.2 569.801 8841.7H1769.8L1319.8 8062.3 1169.8 8322.1H869.801L1319.8 7542.7 1919.8 8581.9 2369.8 7802.5H2069.8L1919.8 7542.7Z"/>
<path transform="matrix(.1,0,0,-.1,0,792)" d="M1019.8 7542.7 419.801 8581.9H1319.8L1169.8 8322.1 1319.8 8062.3 1769.8 8841.7H569.801L1019.8 9621.2 1169.8 9361.4H1469.8L1019.8 10140.8 419.801 9101.6-30.1992 9881H269.801L419.801 10140.8H-480.199L119.801 9101.6H-780.199L-630.199 9361.4-780.199 9621.2-1230.2 8841.7H-30.1992L-480.199 8062.3-630.199 8322.1H-930.199L-480.199 7542.7 119.801 8581.9 569.801 7802.5H269.801L119.801 7542.7" fill="#edd6bf"/>
<path transform="matrix(.1,0,0,-.1,0,792)" stroke-width="20" stroke-linecap="butt" stroke-miterlimit="10" stroke-linejoin="miter" fill="none" stroke="#000000" d="M1019.8 7542.7 419.801 8581.9H1319.8L1169.8 8322.1 1319.8 8062.3 1769.8 8841.7H569.801L1019.8 9621.2 1169.8 9361.4H1469.8L1019.8 10140.8 419.801 9101.6-30.1992 9881H269.801L419.801 10140.8H-480.199L119.801 9101.6H-780.199L-630.199 9361.4-780.199 9621.2-1230.2 8841.7H-30.1992L-480.199 8062.3-630.199 8322.1H-930.199L-480.199 7542.7 119.801 8581.9 569.801 7802.5H269.801L119.801 7542.7Z"/>
<path transform="matrix(.1,0,0,-.1,0,792)" d="M1019.8 787.699 419.801-251.5-30.1992 527.898H269.801L419.801 787.699H-480.199L119.801-251.5H-780.199L-630.199 8.30078-780.199 268.102-1230.2-511.301H-30.1992L-480.199-1290.8-630.199-1030.9H-930.199L-480.199-1810.4 119.801-771.102 569.801-1550.6H269.801L119.801-1810.4H1019.8L419.801-771.102H1319.8L1169.8-1030.9 1319.8-1290.8 1769.8-511.301H569.801L1019.8 268.102 1169.8 8.30078H1469.8" fill="#edd6bf"/>
<path transform="matrix(.1,0,0,-.1,0,792)" stroke-width="20" stroke-linecap="butt" stroke-miterlimit="10" stroke-linejoin="miter" fill="none" stroke="#000000" d="M1019.8 787.699 419.801-251.5-30.1992 527.898H269.801L419.801 787.699H-480.199L119.801-251.5H-780.199L-630.199 8.30078-780.199 268.102-1230.2-511.301H-30.1992L-480.199-1290.8-630.199-1030.9H-930.199L-480.199-1810.4 119.801-771.102 569.801-1550.6H269.801L119.801-1810.4H1019.8L419.801-771.102H1319.8L1169.8-1030.9 1319.8-1290.8 1769.8-511.301H569.801L1019.8 268.102 1169.8 8.30078H1469.8Z"/>
<path transform="matrix(.1,0,0,-.1,0,792)" d="M1319.8 787.699 1919.8-251.5H1019.8L1169.8 8.30078 1019.8 268.102 569.801-511.301H1769.8L1319.8-1290.8 1169.8-1030.9H869.801L1319.8-1810.4 1919.8-771.102 2369.8-1550.6H2069.8L1919.8-1810.4H2819.8L2219.8-771.102H3119.8L2969.8-1030.9 3119.8-1290.8 3569.8-511.301H2369.8L2819.8 268.102 2969.8 8.30078H3269.8L2819.8 787.699 2219.8-251.5 1769.8 527.898H2069.8L2219.8 787.699" fill="#87b2a8"/>
<path transform="matrix(.1,0,0,-.1,0,792)" stroke-width="20" stroke-linecap="butt" stroke-miterlimit="10" stroke-linejoin="miter" fill="none" stroke="#000000" d="M1319.8 787.699 1919.8-251.5H1019.8L1169.8 8.30078 1019.8 268.102 569.801-511.301H1769.8L1319.8-1290.8 1169.8-1030.9H869.801L1319.8-1810.4 1919.8-771.102 2369.8-1550.6H2069.8L1919.8-1810.4H2819.8L2219.8-771.102H3119.8L2969.8-1030.9 3119.8-1290.8 3569.8-511.301H2369.8L2819.8 268.102 2969.8 8.30078H3269.8L2819.8 787.699 2219.8-251.5 1769.8 527.898H2069.8L2219.8 787.699Z"/>
<path transform="matrix(.1,0,0,-.1,0,792)" d="M3119.8 787.699 3719.8-251.5H2819.8L2969.8 8.30078 2819.8 268.102 2369.8-511.301H3569.8L3119.8-1290.8 2969.8-1030.9H2669.8L3119.8-1810.4 3719.8-771.102 4169.8-1550.6H3869.8L3719.8-1810.4H4619.8L4019.8-771.102H4919.8L4769.8-1030.9 4919.8-1290.8 5369.8-511.301H4169.8L4619.8 268.102 4769.8 8.30078H5069.8L4619.8 787.699 4019.8-251.5 3569.8 527.898H3869.8L4019.8 787.699" fill="#b0c4d9"/>
<path transform="matrix(.1,0,0,-.1,0,792)" stroke-width="20" stroke-linecap="butt" stroke-miterlimit="10" stroke-linejoin="miter" fill="none" stroke="#000000" d="M3119.8 787.699 3719.8-251.5H2819.8L2969.8 8.30078 2819.8 268.102 2369.8-511.301H3569.8L3119.8-1290.8 2969.8-1030.9H2669.8L3119.8-1810.4 3719.8-771.102 4169.8-1550.6H3869.8L3719.8-1810.4H4619.8L4019.8-771.102H4919.8L4769.8-1030.9 4919.8-1290.8 5369.8-511.301H4169.8L4619.8 268.102 4769.8 8.30078H5069.8L4619.8 787.699 4019.8-251.5 3569.8 527.898H3869.8L4019.8 787.699Z"/>
<path transform="matrix(.1,0,0,-.1,0,792)" d="M4919.8 787.699 5519.8-251.5H4619.8L4769.8 8.30078 4619.8 268.102 4169.8-511.301H5369.8L4919.8-1290.8 4769.8-1030.9H4469.8L4919.8-1810.4 5519.8-771.102 5969.8-1550.6H5669.8L5519.8-1810.4H6419.8L5819.8-771.102H6719.8L6569.8-1030.9 6719.8-1290.8 7169.8-511.301H5969.8L6419.8 268.102 6569.8 8.30078H6869.8L6419.8 787.699 5819.8-251.5 5369.8 527.898H5669.8L5819.8 787.699" fill="#edd6bf"/>
<path transform="matrix(.1,0,0,-.1,0,792)" stroke-width="20" stroke-linecap="butt" stroke-miterlimit="10" stroke-linejoin="miter" fill="none" stroke="#000000" d="M4919.8 787.699 5519.8-251.5H4619.8L4769.8 8.30078 4619.8 268.102 4169.8-511.301H5369.8L4919.8-1290.8 4769.8-1030.9H4469.8L4919.8-1810.4 5519.8-771.102 5969.8-1550.6H5669.8L5519.8-1810.4H6419.8L5819.8-771.102H6719.8L6569.8-1030.9 6719.8-1290.8 7169.8-511.301H5969.8L6419.8 268.102 6569.8 8.30078H6869.8L6419.8 787.699 5819.8-251.5 5369.8 527.898H5669.8L5819.8 787.699Z"/>
<path transform="matrix(.1,0,0,-.1,0,792)" d="M5969.8 2606.4H7169.8L6719.8 1826.9 6569.8 2086.7H6269.8L6719.8 1307.3 7319.8 2346.6 7769.8 1567.1H7469.8L7319.8 1307.3H8219.8L7619.8 2346.6H8519.8L8369.8 2086.7 8519.8 1826.9 8969.8 2606.4H7769.8L8219.8 3385.8 8369.8 3126H8669.8L8219.8 3905.4 7619.8 2866.2 7169.8 3645.6H7469.8L7619.8 3905.4H6719.8L7319.8 2866.2H6419.8L6569.8 3126 6419.8 3385.8" fill="#87b2a8"/>
<path transform="matrix(.1,0,0,-.1,0,792)" stroke-width="20" stroke-linecap="butt" stroke-miterlimit="10" stroke-linejoin="miter" fill="none" stroke="#000000" d="M5969.8 2606.4H7169.8L6719.8 1826.9 6569.8 2086.7H6269.8L6719.8 1307.3 7319.8 2346.6 7769.8 1567.1H7469.8L7319.8 1307.3H8219.8L7619.8 2346.6H8519.8L8369.8 2086.7 8519.8 1826.9 8969.8 2606.4H7769.8L8219.8 3385.8 8369.8 3126H8669.8L8219.8 3905.4 7619.8 2866.2 7169.8 3645.6H7469.8L7619.8 3905.4H6719.8L7319.8 2866.2H6419.8L6569.8 3126 6419.8 3385.8Z"/>
<path transform="matrix(.1,0,0,-.1,0,792)" d="M5969.8 5724.1H7169.8L6719.8 4944.6 6569.8 5204.4H6269.8L6719.8 4425 7319.8 5464.2 7769.8 4684.8H7469.8L7319.8 4425H8219.8L7619.8 5464.2H8519.8L8369.8 5204.4 8519.8 4944.6 8969.8 5724.1H7769.8L8219.8 6503.5 8369.8 6243.7H8669.8L8219.8 7023.1 7619.8 5983.9 7169.8 6763.3H7469.8L7619.8 7023.1H6719.8L7319.8 5983.9H6419.8L6569.8 6243.7 6419.8 6503.5" fill="#87b2a8"/>
<path transform="matrix(.1,0,0,-.1,0,792)" stroke-width="20" stroke-linecap="butt" stroke-miterlimit="10" stroke-linejoin="miter" fill="none" stroke="#000000" d="M5969.8 5724.1H7169.8L6719.8 4944.6 6569.8 5204.4H6269.8L6719.8 4425 7319.8 5464.2 7769.8 4684.8H7469.8L7319.8 4425H8219.8L7619.8 5464.2H8519.8L8369.8 5204.4 8519.8 4944.6 8969.8 5724.1H7769.8L8219.8 6503.5 8369.8 6243.7H8669.8L8219.8 7023.1 7619.8 5983.9 7169.8 6763.3H7469.8L7619.8 7023.1H6719.8L7319.8 5983.9H6419.8L6569.8 6243.7 6419.8 6503.5Z"/>
<path transform="matrix(.1,0,0,-.1,0,792)" d="M6269.8 8322.1 6719.8 7542.7 7319.8 8581.9 7769.8 7802.5H7469.8L7319.8 7542.7H8219.8L7619.8 8581.9H8519.8L8369.8 8322.1 8519.8 8062.3 8969.8 8841.7H7769.8L8219.8 9621.2 8369.8 9361.4H8669.8L8219.8 10140.8 7619.8 9101.6 7169.8 9881H7469.8L7619.8 10140.8H6719.8L7319.8 9101.6H6419.8L6569.8 9361.4 6419.8 9621.2 5969.8 8841.7H7169.8L6719.8 8062.3 6569.8 8322.1" fill="#87b2a8"/>
<path transform="matrix(.1,0,0,-.1,0,792)" stroke-width="20" stroke-linecap="butt" stroke-miterlimit="10" stroke-linejoin="miter" fill="none" stroke="#000000" d="M6269.8 8322.1 6719.8 7542.7 7319.8 8581.9 7769.8 7802.5H7469.8L7319.8 7542.7H8219.8L7619.8 8581.9H8519.8L8369.8 8322.1 8519.8 8062.3 8969.8 8841.7H7769.8L8219.8 9621.2 8369.8 9361.4H8669.8L8219.8 10140.8 7619.8 9101.6 7169.8 9881H7469.8L7619.8 10140.8H6719.8L7319.8 9101.6H6419.8L6569.8 9361.4 6419.8 9621.2 5969.8 8841.7H7169.8L6719.8 8062.3 6569.8 8322.1Z"/>
<path transform="matrix(.1,0,0,-.1,0,792)" d="M5969.8-511.301H7169.8L6719.8-1290.8 6569.8-1030.9H6269.8L6719.8-1810.4 7319.8-771.102 7769.8-1550.6H7469.8L7319.8-1810.4H8219.8L7619.8-771.102H8519.8L8369.8-1030.9 8519.8-1290.8 8969.8-511.301H7769.8L8219.8 268.102 8369.8 8.30078H8669.8L8219.8 787.699 7619.8-251.5 7169.8 527.898H7469.8L7619.8 787.699H6719.8L7319.8-251.5H6419.8L6569.8 8.30078 6419.8 268.102" fill="#87b2a8"/>
<path transform="matrix(.1,0,0,-.1,0,792)" stroke-width="20" stroke-linecap="butt" stroke-miterlimit="10" stroke-linejoin="miter" fill="none" stroke="#000000" d="M5969.8-511.301H7169.8L6719.8-1290.8 6569.8-1030.9H6269.8L6719.8-1810.4 7319.8-771.102 7769.8-1550.6H7469.8L7319.8-1810.4H8219.8L7619.8-771.102H8519.8L8369.8-1030.9 8519.8-1290.8 8969.8-511.301H7769.8L8219.8 268.102 8369.8 8.30078H8669.8L8219.8 787.699 7619.8-251.5 7169.8 527.898H7469.8L7619.8 787.699H6719.8L7319.8-251.5H6419.8L6569.8 8.30078 6419.8 268.102Z"/>
</svg>
