<svg xmlns="http://www.w3.org/2000/svg" xmlns:xlink="http://www.w3.org/1999/xlink" xmlns:inkscape="http://www.inkscape.org/namespaces/inkscape" version="1.1" width="612" height="792" viewBox="0 0 612 792">
<path transform="matrix(.1,0,0,-.1,0,792)" d="M2975 3695 3116.4 3836.4H3316.4V4036.4L3457.8 4177.8 3316.4 4319.2V4519.2H3116.4L2975 4660.7 2833.6 4519.2H2633.6V4319.2L2492.2 4177.8 2633.6 4036.4V3836.4H2833.6" fill="#007800"/>
<path transform="matrix(.1,0,0,-.1,0,792)" stroke-width="1" stroke-linecap="butt" stroke-miterlimit="10" stroke-linejoin="miter" fill="none" stroke="#000000" d="M2975 3695 3116.4 3836.4H3316.4V4036.4L3457.8 4177.8 3316.4 4319.2V4519.2H3116.4L2975 4660.7 2833.6 4519.2H2633.6V4319.2L2492.2 4177.8 2633.6 4036.4V3836.4H2833.6Z"/>
<path transform="matrix(.1,0,0,-.1,0,792)" d="M3116.4 4519.2H3316.4V5002.1L2975 4660.7Z"/>
<path transform="matrix(.1,0,0,-.1,0,792)" stroke-width="1" stroke-linecap="butt" stroke-miterlimit="10" stroke-linejoin="miter" fill="none" stroke="#000000" d="M3116.4 4519.2H3316.4V5002.1L2975 4660.7Z"/>
<path transform="matrix(.1,0,0,-.1,0,792)" d="M2833.6 4519.2 2975 4660.7 2633.6 5002.1V4519.2Z"/>
<path transform="matrix(.1,0,0,-.1,0,792)" stroke-width="1" stroke-linecap="butt" stroke-miterlimit="10" stroke-linejoin="miter" fill="none" stroke="#000000" d="M2833.6 4519.2 2975 4660.7 2633.6 5002.1V4519.2Z"/>
<path transform="matrix(.1,0,0,-.1,0,792)" d="M2833.6 3836.4H2633.6V3353.5L2975 3695Z"/>
<path transform="matrix(.1,0,0,-.1,0,792)" stroke-width="1" stroke-linecap="butt" stroke-miterlimit="10" stroke-linejoin="miter" fill="none" stroke="#000000" d="M2833.6 3836.4H2633.6V3353.5L2975 3695Z"/>
<path transform="matrix(.1,0,0,-.1,0,792)" d="M3116.4 3836.4 2975 3695 3316.4 3353.5V3836.4Z"/>
<path transform="matrix(.1,0,0,-.1,0,792)" stroke-width="1" stroke-linecap="butt" stroke-miterlimit="10" stroke-linejoin="miter" fill="none" stroke="#000000" d="M3116.4 3836.4 2975 3695 3316.4 3353.5V3836.4Z"/>
<path transform="matrix(.1,0,0,-.1,0,792)" d="M2975 4660.7 3316.4 5002.1V5402.1L2975 5543.5 2633.6 5402.1V5002.1" fill="#808000"/>
<path transform="matrix(.1,0,0,-.1,0,792)" stroke-width="1" stroke-linecap="butt" stroke-miterlimit="10" stroke-linejoin="miter" fill="none" stroke="#000000" d="M2975 4660.7 3316.4 5002.1V5402.1L2975 5543.5 2633.6 5402.1V5002.1Z"/>
<path transform="matrix(.1,0,0,-.1,0,792)" d="M3316.4 4519.2H3799.3L3940.7 4660.7 3799.3 5002.1 3457.8 5143.5 3316.4 5002.1" fill="#808000"/>
<path transform="matrix(.1,0,0,-.1,0,792)" stroke-width="1" stroke-linecap="butt" stroke-miterlimit="10" stroke-linejoin="miter" fill="none" stroke="#000000" d="M3316.4 4519.2H3799.3L3940.7 4660.7 3799.3 5002.1 3457.8 5143.5 3316.4 5002.1Z"/>
<path transform="matrix(.1,0,0,-.1,0,792)" d="M3316.4 4319.2 3457.8 4177.8 3799.3 4519.2H3316.4Z"/>
<path transform="matrix(.1,0,0,-.1,0,792)" stroke-width="1" stroke-linecap="butt" stroke-miterlimit="10" stroke-linejoin="miter" fill="none" stroke="#000000" d="M3316.4 4319.2 3457.8 4177.8 3799.3 4519.2H3316.4Z"/>
<path transform="matrix(.1,0,0,-.1,0,792)" d="M3316.4 4036.4V3836.4H3799.3L3457.8 4177.8Z"/>
<path transform="matrix(.1,0,0,-.1,0,792)" stroke-width="1" stroke-linecap="butt" stroke-miterlimit="10" stroke-linejoin="miter" fill="none" stroke="#000000" d="M3316.4 4036.4V3836.4H3799.3L3457.8 4177.8Z"/>
<path transform="matrix(.1,0,0,-.1,0,792)" d="M3316.4 3836.4V3353.5L3457.8 3212.1 3799.3 3353.5 3940.7 3695 3799.3 3836.4" fill="#808000"/>
<path transform="matrix(.1,0,0,-.1,0,792)" stroke-width="1" stroke-linecap="butt" stroke-miterlimit="10" stroke-linejoin="miter" fill="none" stroke="#000000" d="M3316.4 3836.4V3353.5L3457.8 3212.1 3799.3 3353.5 3940.7 3695 3799.3 3836.4Z"/>
<path transform="matrix(.1,0,0,-.1,0,792)" d="M2633.6 4519.2H2150.7L2492.2 4177.8 2633.6 4319.2Z"/>
<path transform="matrix(.1,0,0,-.1,0,792)" stroke-width="1" stroke-linecap="butt" stroke-miterlimit="10" stroke-linejoin="miter" fill="none" stroke="#000000" d="M2633.6 4519.2H2150.7L2492.2 4177.8 2633.6 4319.2Z"/>
<path transform="matrix(.1,0,0,-.1,0,792)" d="M2633.6 4519.2V5002.1L2492.2 5143.5 2150.7 5002.1 2009.3 4660.7 2150.7 4519.2" fill="#808000"/>
<path transform="matrix(.1,0,0,-.1,0,792)" stroke-width="1" stroke-linecap="butt" stroke-miterlimit="10" stroke-linejoin="miter" fill="none" stroke="#000000" d="M2633.6 4519.2V5002.1L2492.2 5143.5 2150.7 5002.1 2009.3 4660.7 2150.7 4519.2Z"/>
<path transform="matrix(.1,0,0,-.1,0,792)" d="M2633.6 4036.4 2492.2 4177.8 2150.7 3836.4H2633.6Z"/>
<path transform="matrix(.1,0,0,-.1,0,792)" stroke-width="1" stroke-linecap="butt" stroke-miterlimit="10" stroke-linejoin="miter" fill="none" stroke="#000000" d="M2633.6 4036.4 2492.2 4177.8 2150.7 3836.4H2633.6Z"/>
<path transform="matrix(.1,0,0,-.1,0,792)" d="M2633.6 3836.4H2150.7L2009.3 3695 2150.7 3353.5 2492.2 3212.1 2633.6 3353.5" fill="#808000"/>
<path transform="matrix(.1,0,0,-.1,0,792)" stroke-width="1" stroke-linecap="butt" stroke-miterlimit="10" stroke-linejoin="miter" fill="none" stroke="#000000" d="M2633.6 3836.4H2150.7L2009.3 3695 2150.7 3353.5 2492.2 3212.1 2633.6 3353.5Z"/>
<path transform="matrix(.1,0,0,-.1,0,792)" d="M2975 3695 2633.6 3353.5V2953.5L2975 2812.1 3316.4 2953.5V3353.5" fill="#808000"/>
<path transform="matrix(.1,0,0,-.1,0,792)" stroke-width="1" stroke-linecap="butt" stroke-miterlimit="10" stroke-linejoin="miter" fill="none" stroke="#000000" d="M2975 3695 2633.6 3353.5V2953.5L2975 2812.1 3316.4 2953.5V3353.5Z"/>
<path transform="matrix(.1,0,0,-.1,0,792)" d="M3457.8 4177.8 3799.3 3836.4H4199.3L4340.7 4177.8 4199.3 4519.2H3799.3" fill="#808000"/>
<path transform="matrix(.1,0,0,-.1,0,792)" stroke-width="1" stroke-linecap="butt" stroke-miterlimit="10" stroke-linejoin="miter" fill="none" stroke="#000000" d="M3457.8 4177.8 3799.3 3836.4H4199.3L4340.7 4177.8 4199.3 4519.2H3799.3Z"/>
<path transform="matrix(.1,0,0,-.1,0,792)" d="M2492.2 4177.8 2150.7 4519.2H1750.7L1609.3 4177.8 1750.7 3836.4H2150.7" fill="#808000"/>
<path transform="matrix(.1,0,0,-.1,0,792)" stroke-width="1" stroke-linecap="butt" stroke-miterlimit="10" stroke-linejoin="miter" fill="none" stroke="#000000" d="M2492.2 4177.8 2150.7 4519.2H1750.7L1609.3 4177.8 1750.7 3836.4H2150.7Z"/>
<path transform="matrix(.1,0,0,-.1,0,792)" d="M3316.4 5002.1 3457.8 5143.5 3799.3 5002.1 3657.8 5343.5 3857.8 5543.5 3657.8 5743.5 3799.3 6084.9 3457.8 5943.5 3316.4 6084.9V5684.9L2975 5543.5 3316.4 5402.1" fill="#009ecc"/>
<path transform="matrix(.1,0,0,-.1,0,792)" stroke-width="1" stroke-linecap="butt" stroke-miterlimit="10" stroke-linejoin="miter" fill="none" stroke="#000000" d="M3316.4 5002.1 3457.8 5143.5 3799.3 5002.1 3657.8 5343.5 3857.8 5543.5 3657.8 5743.5 3799.3 6084.9 3457.8 5943.5 3316.4 6084.9V5684.9L2975 5543.5 3316.4 5402.1Z"/>
<path transform="matrix(.1,0,0,-.1,0,792)" d="M2633.6 5002.1V5402.1L2975 5543.5 2633.6 5684.9V6084.9L2492.2 5943.5 2150.7 6084.9 2292.2 5743.5 2092.2 5543.5 2292.2 5343.5 2150.7 5002.1 2492.2 5143.5" fill="#009ecc"/>
<path transform="matrix(.1,0,0,-.1,0,792)" stroke-width="1" stroke-linecap="butt" stroke-miterlimit="10" stroke-linejoin="miter" fill="none" stroke="#000000" d="M2633.6 5002.1V5402.1L2975 5543.5 2633.6 5684.9V6084.9L2492.2 5943.5 2150.7 6084.9 2292.2 5743.5 2092.2 5543.5 2292.2 5343.5 2150.7 5002.1 2492.2 5143.5Z"/>
<path transform="matrix(.1,0,0,-.1,0,792)" d="M2633.6 3353.5 2492.2 3212.1 2150.7 3353.5 2292.2 3012.1 2092.2 2812.1 2292.2 2612.1 2150.7 2270.7 2492.2 2412.1 2633.6 2270.7V2670.7L2975 2812.1 2633.6 2953.5" fill="#009ecc"/>
<path transform="matrix(.1,0,0,-.1,0,792)" stroke-width="1" stroke-linecap="butt" stroke-miterlimit="10" stroke-linejoin="miter" fill="none" stroke="#000000" d="M2633.6 3353.5 2492.2 3212.1 2150.7 3353.5 2292.2 3012.1 2092.2 2812.1 2292.2 2612.1 2150.7 2270.7 2492.2 2412.1 2633.6 2270.7V2670.7L2975 2812.1 2633.6 2953.5Z"/>
<path transform="matrix(.1,0,0,-.1,0,792)" d="M3316.4 3353.5V2953.5L2975 2812.1 3316.4 2670.7V2270.7L3457.8 2412.1 3799.3 2270.7 3657.8 2612.1 3857.8 2812.1 3657.8 3012.1 3799.3 3353.5 3457.8 3212.1" fill="#009ecc"/>
<path transform="matrix(.1,0,0,-.1,0,792)" stroke-width="1" stroke-linecap="butt" stroke-miterlimit="10" stroke-linejoin="miter" fill="none" stroke="#000000" d="M3316.4 3353.5V2953.5L2975 2812.1 3316.4 2670.7V2270.7L3457.8 2412.1 3799.3 2270.7 3657.8 2612.1 3857.8 2812.1 3657.8 3012.1 3799.3 3353.5 3457.8 3212.1Z"/>
<path transform="matrix(.1,0,0,-.1,0,792)" d="M3657.8 5343.5 3799.3 5002.1 4140.7 4860.7 4340.7 5060.7 4540.7 4860.7 4882.1 5002.1 5023.5 5343.5 4823.5 5543.5 5023.5 5743.5 4882.1 6084.9 4540.7 6226.3 4340.7 6026.3 4140.7 6226.3 3799.3 6084.9 3657.8 5743.5 3857.8 5543.5" fill="#808000"/>
<path transform="matrix(.1,0,0,-.1,0,792)" stroke-width="1" stroke-linecap="butt" stroke-miterlimit="10" stroke-linejoin="miter" fill="none" stroke="#000000" d="M3657.8 5343.5 3799.3 5002.1 4140.7 4860.7 4340.7 5060.7 4540.7 4860.7 4882.1 5002.1 5023.5 5343.5 4823.5 5543.5 5023.5 5743.5 4882.1 6084.9 4540.7 6226.3 4340.7 6026.3 4140.7 6226.3 3799.3 6084.9 3657.8 5743.5 3857.8 5543.5Z"/>
<path transform="matrix(.1,0,0,-.1,0,792)" d="M2292.2 5343.5 2092.2 5543.5 2292.2 5743.5 2150.7 6084.9 1809.3 6226.3 1609.3 6026.3 1409.3 6226.3 1067.9 6084.9 926.5 5743.5 1126.5 5543.5 926.5 5343.5 1067.9 5002.1 1409.3 4860.7 1609.3 5060.7 1809.3 4860.7 2150.7 5002.1" fill="#808000"/>
<path transform="matrix(.1,0,0,-.1,0,792)" stroke-width="1" stroke-linecap="butt" stroke-miterlimit="10" stroke-linejoin="miter" fill="none" stroke="#000000" d="M2292.2 5343.5 2092.2 5543.5 2292.2 5743.5 2150.7 6084.9 1809.3 6226.3 1609.3 6026.3 1409.3 6226.3 1067.9 6084.9 926.5 5743.5 1126.5 5543.5 926.5 5343.5 1067.9 5002.1 1409.3 4860.7 1609.3 5060.7 1809.3 4860.7 2150.7 5002.1Z"/>
<path transform="matrix(.1,0,0,-.1,0,792)" d="M2150.7 5002.1 1809.3 4860.7 1609.3 5060.7 1409.3 4860.7 1067.9 5002.1 1209.3 4660.7 1067.9 4519.2H1467.9L1609.3 4177.8 1750.7 4519.2H2150.7L2009.3 4660.7" fill="#009ecc"/>
<path transform="matrix(.1,0,0,-.1,0,792)" stroke-width="1" stroke-linecap="butt" stroke-miterlimit="10" stroke-linejoin="miter" fill="none" stroke="#000000" d="M2150.7 5002.1 1809.3 4860.7 1609.3 5060.7 1409.3 4860.7 1067.9 5002.1 1209.3 4660.7 1067.9 4519.2H1467.9L1609.3 4177.8 1750.7 4519.2H2150.7L2009.3 4660.7Z"/>
<path transform="matrix(.1,0,0,-.1,0,792)" d="M2150.7 3836.4H1750.7L1609.3 4177.8 1467.9 3836.4H1067.9L1209.3 3695 1067.9 3353.5 1409.3 3495 1609.3 3295 1809.3 3495 2150.7 3353.5 2009.3 3695" fill="#009ecc"/>
<path transform="matrix(.1,0,0,-.1,0,792)" stroke-width="1" stroke-linecap="butt" stroke-miterlimit="10" stroke-linejoin="miter" fill="none" stroke="#000000" d="M2150.7 3836.4H1750.7L1609.3 4177.8 1467.9 3836.4H1067.9L1209.3 3695 1067.9 3353.5 1409.3 3495 1609.3 3295 1809.3 3495 2150.7 3353.5 2009.3 3695Z"/>
<path transform="matrix(.1,0,0,-.1,0,792)" d="M2150.7 3353.5 1809.3 3495 1609.3 3295 1409.3 3495 1067.9 3353.5 926.5 3012.1 1126.5 2812.1 926.5 2612.1 1067.9 2270.7 1409.3 2129.3 1609.3 2329.3 1809.3 2129.3 2150.7 2270.7 2292.2 2612.1 2092.2 2812.1 2292.2 3012.1" fill="#808000"/>
<path transform="matrix(.1,0,0,-.1,0,792)" stroke-width="1" stroke-linecap="butt" stroke-miterlimit="10" stroke-linejoin="miter" fill="none" stroke="#000000" d="M2150.7 3353.5 1809.3 3495 1609.3 3295 1409.3 3495 1067.9 3353.5 926.5 3012.1 1126.5 2812.1 926.5 2612.1 1067.9 2270.7 1409.3 2129.3 1609.3 2329.3 1809.3 2129.3 2150.7 2270.7 2292.2 2612.1 2092.2 2812.1 2292.2 3012.1Z"/>
<path transform="matrix(.1,0,0,-.1,0,792)" d="M3799.3 3353.5 4140.7 3495 4340.7 3295 4540.7 3495 4882.1 3353.5 4740.7 3695 4882.1 3836.4H4482.1L4340.7 4177.8 4199.3 3836.4H3799.3L3940.7 3695" fill="#009ecc"/>
<path transform="matrix(.1,0,0,-.1,0,792)" stroke-width="1" stroke-linecap="butt" stroke-miterlimit="10" stroke-linejoin="miter" fill="none" stroke="#000000" d="M3799.3 3353.5 4140.7 3495 4340.7 3295 4540.7 3495 4882.1 3353.5 4740.7 3695 4882.1 3836.4H4482.1L4340.7 4177.8 4199.3 3836.4H3799.3L3940.7 3695Z"/>
<path transform="matrix(.1,0,0,-.1,0,792)" d="M3799.3 3353.5 3657.8 3012.1 3857.8 2812.1 3657.8 2612.1 3799.3 2270.7 4140.7 2129.3 4340.7 2329.3 4540.7 2129.3 4882.1 2270.7 5023.5 2612.1 4823.5 2812.1 5023.5 3012.1 4882.1 3353.5 4540.7 3495 4340.7 3295 4140.7 3495" fill="#808000"/>
<path transform="matrix(.1,0,0,-.1,0,792)" stroke-width="1" stroke-linecap="butt" stroke-miterlimit="10" stroke-linejoin="miter" fill="none" stroke="#000000" d="M3799.3 3353.5 3657.8 3012.1 3857.8 2812.1 3657.8 2612.1 3799.3 2270.7 4140.7 2129.3 4340.7 2329.3 4540.7 2129.3 4882.1 2270.7 5023.5 2612.1 4823.5 2812.1 5023.5 3012.1 4882.1 3353.5 4540.7 3495 4340.7 3295 4140.7 3495Z"/>
<path transform="matrix(.1,0,0,-.1,0,792)" d="M3799.3 4519.2H4199.3L4340.7 4177.8 4482.1 4519.2H4882.1L4740.7 4660.7 4882.1 5002.1 4540.7 4860.7 4340.7 5060.7 4140.7 4860.7 3799.3 5002.1 3940.7 4660.7" fill="#009ecc"/>
<path transform="matrix(.1,0,0,-.1,0,792)" stroke-width="1" stroke-linecap="butt" stroke-miterlimit="10" stroke-linejoin="miter" fill="none" stroke="#000000" d="M3799.3 4519.2H4199.3L4340.7 4177.8 4482.1 4519.2H4882.1L4740.7 4660.7 4882.1 5002.1 4540.7 4860.7 4340.7 5060.7 4140.7 4860.7 3799.3 5002.1 3940.7 4660.7Z"/>
<path transform="matrix(.1,0,0,-.1,0,792)" d="M2975 5543.5 3316.4 5684.9V6084.9L2975 6426.3 2633.6 6084.9V5684.9" fill="#808000"/>
<path transform="matrix(.1,0,0,-.1,0,792)" stroke-width="1" stroke-linecap="butt" stroke-miterlimit="10" stroke-linejoin="miter" fill="none" stroke="#000000" d="M2975 5543.5 3316.4 5684.9V6084.9L2975 6426.3 2633.6 6084.9V5684.9Z"/>
<path transform="matrix(.1,0,0,-.1,0,792)" d="M2975 2812.1 2633.6 2670.7V2270.7L2975 1929.3 3316.4 2270.7V2670.7" fill="#808000"/>
<path transform="matrix(.1,0,0,-.1,0,792)" stroke-width="1" stroke-linecap="butt" stroke-miterlimit="10" stroke-linejoin="miter" fill="none" stroke="#000000" d="M2975 2812.1 2633.6 2670.7V2270.7L2975 1929.3 3316.4 2270.7V2670.7Z"/>
<path transform="matrix(.1,0,0,-.1,0,792)" d="M3457.8 5943.5 3799.3 6084.9 3940.7 6426.3 3799.3 6567.8H3316.4V6084.9" fill="#808000"/>
<path transform="matrix(.1,0,0,-.1,0,792)" stroke-width="1" stroke-linecap="butt" stroke-miterlimit="10" stroke-linejoin="miter" fill="none" stroke="#000000" d="M3457.8 5943.5 3799.3 6084.9 3940.7 6426.3 3799.3 6567.8H3316.4V6084.9Z"/>
<path transform="matrix(.1,0,0,-.1,0,792)" d="M2492.2 5943.5 2633.6 6084.9V6567.8H2150.7L2009.3 6426.3 2150.7 6084.9" fill="#808000"/>
<path transform="matrix(.1,0,0,-.1,0,792)" stroke-width="1" stroke-linecap="butt" stroke-miterlimit="10" stroke-linejoin="miter" fill="none" stroke="#000000" d="M2492.2 5943.5 2633.6 6084.9V6567.8H2150.7L2009.3 6426.3 2150.7 6084.9Z"/>
<path transform="matrix(.1,0,0,-.1,0,792)" d="M2492.2 2412.1 2150.7 2270.7 2009.3 1929.3 2150.7 1787.9H2633.6V2270.7" fill="#808000"/>
<path transform="matrix(.1,0,0,-.1,0,792)" stroke-width="1" stroke-linecap="butt" stroke-miterlimit="10" stroke-linejoin="miter" fill="none" stroke="#000000" d="M2492.2 2412.1 2150.7 2270.7 2009.3 1929.3 2150.7 1787.9H2633.6V2270.7Z"/>
<path transform="matrix(.1,0,0,-.1,0,792)" d="M3457.8 2412.1 3316.4 2270.7V1787.9H3799.3L3940.7 1929.3 3799.3 2270.7" fill="#808000"/>
<path transform="matrix(.1,0,0,-.1,0,792)" stroke-width="1" stroke-linecap="butt" stroke-miterlimit="10" stroke-linejoin="miter" fill="none" stroke="#000000" d="M3457.8 2412.1 3316.4 2270.7V1787.9H3799.3L3940.7 1929.3 3799.3 2270.7Z"/>
<path transform="matrix(.1,0,0,-.1,0,792)" d="M3799.3 6084.9 4140.7 6226.3 4340.7 6026.3 4540.7 6226.3 4882.1 6084.9 4740.7 6426.3 4882.1 6567.8H4482.1L4340.7 6909.2 4199.3 6567.8H3799.3L3940.7 6426.3" fill="#009ecc"/>
<path transform="matrix(.1,0,0,-.1,0,792)" stroke-width="1" stroke-linecap="butt" stroke-miterlimit="10" stroke-linejoin="miter" fill="none" stroke="#000000" d="M3799.3 6084.9 4140.7 6226.3 4340.7 6026.3 4540.7 6226.3 4882.1 6084.9 4740.7 6426.3 4882.1 6567.8H4482.1L4340.7 6909.2 4199.3 6567.8H3799.3L3940.7 6426.3Z"/>
<path transform="matrix(.1,0,0,-.1,0,792)" d="M3316.4 6084.9V6567.8H3116.4L2975 6426.3Z"/>
<path transform="matrix(.1,0,0,-.1,0,792)" stroke-width="1" stroke-linecap="butt" stroke-miterlimit="10" stroke-linejoin="miter" fill="none" stroke="#000000" d="M3316.4 6084.9V6567.8H3116.4L2975 6426.3Z"/>
<path transform="matrix(.1,0,0,-.1,0,792)" d="M2633.6 6084.9 2975 6426.3 2833.6 6567.8H2633.6Z"/>
<path transform="matrix(.1,0,0,-.1,0,792)" stroke-width="1" stroke-linecap="butt" stroke-miterlimit="10" stroke-linejoin="miter" fill="none" stroke="#000000" d="M2633.6 6084.9 2975 6426.3 2833.6 6567.8H2633.6Z"/>
<path transform="matrix(.1,0,0,-.1,0,792)" d="M2150.7 6084.9 2009.3 6426.3 2150.7 6567.8H1750.7L1609.3 6909.2 1467.9 6567.8H1067.9L1209.3 6426.3 1067.9 6084.9 1409.3 6226.3 1609.3 6026.3 1809.3 6226.3" fill="#009ecc"/>
<path transform="matrix(.1,0,0,-.1,0,792)" stroke-width="1" stroke-linecap="butt" stroke-miterlimit="10" stroke-linejoin="miter" fill="none" stroke="#000000" d="M2150.7 6084.9 2009.3 6426.3 2150.7 6567.8H1750.7L1609.3 6909.2 1467.9 6567.8H1067.9L1209.3 6426.3 1067.9 6084.9 1409.3 6226.3 1609.3 6026.3 1809.3 6226.3Z"/>
<path transform="matrix(.1,0,0,-.1,0,792)" d="M1609.3 4177.8 1467.9 4519.2H1067.9L726.5 4177.8 1067.9 3836.4H1467.9" fill="#808000"/>
<path transform="matrix(.1,0,0,-.1,0,792)" stroke-width="1" stroke-linecap="butt" stroke-miterlimit="10" stroke-linejoin="miter" fill="none" stroke="#000000" d="M1609.3 4177.8 1467.9 4519.2H1067.9L726.5 4177.8 1067.9 3836.4H1467.9Z"/>
<path transform="matrix(.1,0,0,-.1,0,792)" d="M1609.3 2329.3 1409.3 2129.3 1067.9 2270.7 1209.3 1929.3 1067.9 1787.9H1467.9L1609.3 1446.4 1750.7 1787.9H2150.7L2009.3 1929.3 2150.7 2270.7 1809.3 2129.3" fill="#009ecc"/>
<path transform="matrix(.1,0,0,-.1,0,792)" stroke-width="1" stroke-linecap="butt" stroke-miterlimit="10" stroke-linejoin="miter" fill="none" stroke="#000000" d="M1609.3 2329.3 1409.3 2129.3 1067.9 2270.7 1209.3 1929.3 1067.9 1787.9H1467.9L1609.3 1446.4 1750.7 1787.9H2150.7L2009.3 1929.3 2150.7 2270.7 1809.3 2129.3Z"/>
<path transform="matrix(.1,0,0,-.1,0,792)" d="M4340.7 2329.3 4140.7 2129.3 3799.3 2270.7 3940.7 1929.3 3799.3 1787.9H4199.3L4340.7 1446.4 4482.1 1787.9H4882.1L4740.7 1929.3 4882.1 2270.7 4540.7 2129.3" fill="#009ecc"/>
<path transform="matrix(.1,0,0,-.1,0,792)" stroke-width="1" stroke-linecap="butt" stroke-miterlimit="10" stroke-linejoin="miter" fill="none" stroke="#000000" d="M4340.7 2329.3 4140.7 2129.3 3799.3 2270.7 3940.7 1929.3 3799.3 1787.9H4199.3L4340.7 1446.4 4482.1 1787.9H4882.1L4740.7 1929.3 4882.1 2270.7 4540.7 2129.3Z"/>
<path transform="matrix(.1,0,0,-.1,0,792)" d="M4340.7 4177.8 4482.1 3836.4H4882.1L5223.5 4177.8 4882.1 4519.2H4482.1" fill="#808000"/>
<path transform="matrix(.1,0,0,-.1,0,792)" stroke-width="1" stroke-linecap="butt" stroke-miterlimit="10" stroke-linejoin="miter" fill="none" stroke="#000000" d="M4340.7 4177.8 4482.1 3836.4H4882.1L5223.5 4177.8 4882.1 4519.2H4482.1Z"/>
<path transform="matrix(.1,0,0,-.1,0,792)" d="M2633.6 2270.7V1787.9H2833.6L2975 1929.3Z"/>
<path transform="matrix(.1,0,0,-.1,0,792)" stroke-width="1" stroke-linecap="butt" stroke-miterlimit="10" stroke-linejoin="miter" fill="none" stroke="#000000" d="M2633.6 2270.7V1787.9H2833.6L2975 1929.3Z"/>
<path transform="matrix(.1,0,0,-.1,0,792)" d="M3316.4 2270.7 2975 1929.3 3116.4 1787.9H3316.4Z"/>
<path transform="matrix(.1,0,0,-.1,0,792)" stroke-width="1" stroke-linecap="butt" stroke-miterlimit="10" stroke-linejoin="miter" fill="none" stroke="#000000" d="M3316.4 2270.7 2975 1929.3 3116.4 1787.9H3316.4Z"/>
<path transform="matrix(.1,0,0,-.1,0,792)" d="M2975 6426.3 3116.4 6567.8H3316.4V6767.8L3457.8 6909.2 3316.4 7050.6V7250.6H3116.4L2975 7392 2833.6 7250.6H2633.6V7050.6L2492.2 6909.2 2633.6 6767.8V6567.8H2833.6" fill="#007800"/>
<path transform="matrix(.1,0,0,-.1,0,792)" stroke-width="1" stroke-linecap="butt" stroke-miterlimit="10" stroke-linejoin="miter" fill="none" stroke="#000000" d="M2975 6426.3 3116.4 6567.8H3316.4V6767.8L3457.8 6909.2 3316.4 7050.6V7250.6H3116.4L2975 7392 2833.6 7250.6H2633.6V7050.6L2492.2 6909.2 2633.6 6767.8V6567.8H2833.6Z"/>
<path transform="matrix(.1,0,0,-.1,0,792)" d="M2975 1929.3 2833.6 1787.9H2633.6V1587.9L2492.2 1446.4 2633.6 1305V1105H2833.6L2975 963.602 3116.4 1105H3316.4V1305L3457.8 1446.4 3316.4 1587.9V1787.9H3116.4" fill="#007800"/>
<path transform="matrix(.1,0,0,-.1,0,792)" stroke-width="1" stroke-linecap="butt" stroke-miterlimit="10" stroke-linejoin="miter" fill="none" stroke="#000000" d="M2975 1929.3 2833.6 1787.9H2633.6V1587.9L2492.2 1446.4 2633.6 1305V1105H2833.6L2975 963.602 3116.4 1105H3316.4V1305L3457.8 1446.4 3316.4 1587.9V1787.9H3116.4Z"/>
<path transform="matrix(.1,0,0,-.1,0,792)" d="M4482.1 6567.8H4882.1L5223.5 6909.2 4882.1 7250.6H4482.1L4340.7 6909.2" fill="#808000"/>
<path transform="matrix(.1,0,0,-.1,0,792)" stroke-width="1" stroke-linecap="butt" stroke-miterlimit="10" stroke-linejoin="miter" fill="none" stroke="#000000" d="M4482.1 6567.8H4882.1L5223.5 6909.2 4882.1 7250.6H4482.1L4340.7 6909.2Z"/>
<path transform="matrix(.1,0,0,-.1,0,792)" d="M4199.3 6567.8 4340.7 6909.2 4199.3 7250.6H3799.3L3457.8 6909.2 3799.3 6567.8" fill="#808000"/>
<path transform="matrix(.1,0,0,-.1,0,792)" stroke-width="1" stroke-linecap="butt" stroke-miterlimit="10" stroke-linejoin="miter" fill="none" stroke="#000000" d="M4199.3 6567.8 4340.7 6909.2 4199.3 7250.6H3799.3L3457.8 6909.2 3799.3 6567.8Z"/>
<path transform="matrix(.1,0,0,-.1,0,792)" d="M3799.3 6567.8 3457.8 6909.2 3316.4 6767.8V6567.8Z"/>
<path transform="matrix(.1,0,0,-.1,0,792)" stroke-width="1" stroke-linecap="butt" stroke-miterlimit="10" stroke-linejoin="miter" fill="none" stroke="#000000" d="M3799.3 6567.8 3457.8 6909.2 3316.4 6767.8V6567.8Z"/>
<path transform="matrix(.1,0,0,-.1,0,792)" d="M2633.6 6567.8V6767.8L2492.2 6909.2 2150.7 6567.8Z"/>
<path transform="matrix(.1,0,0,-.1,0,792)" stroke-width="1" stroke-linecap="butt" stroke-miterlimit="10" stroke-linejoin="miter" fill="none" stroke="#000000" d="M2633.6 6567.8V6767.8L2492.2 6909.2 2150.7 6567.8Z"/>
<path transform="matrix(.1,0,0,-.1,0,792)" d="M2150.7 6567.8 2492.2 6909.2 2150.7 7250.6H1750.7L1609.3 6909.2 1750.7 6567.8" fill="#808000"/>
<path transform="matrix(.1,0,0,-.1,0,792)" stroke-width="1" stroke-linecap="butt" stroke-miterlimit="10" stroke-linejoin="miter" fill="none" stroke="#000000" d="M2150.7 6567.8 2492.2 6909.2 2150.7 7250.6H1750.7L1609.3 6909.2 1750.7 6567.8Z"/>
<path transform="matrix(.1,0,0,-.1,0,792)" d="M1467.9 6567.8 1609.3 6909.2 1467.9 7250.6H1067.9L726.5 6909.2 1067.9 6567.8" fill="#808000"/>
<path transform="matrix(.1,0,0,-.1,0,792)" stroke-width="1" stroke-linecap="butt" stroke-miterlimit="10" stroke-linejoin="miter" fill="none" stroke="#000000" d="M1467.9 6567.8 1609.3 6909.2 1467.9 7250.6H1067.9L726.5 6909.2 1067.9 6567.8Z"/>
<path transform="matrix(.1,0,0,-.1,0,792)" d="M1467.9 1787.9H1067.9L726.5 1446.4 1067.9 1105H1467.9L1609.3 1446.4" fill="#808000"/>
<path transform="matrix(.1,0,0,-.1,0,792)" stroke-width="1" stroke-linecap="butt" stroke-miterlimit="10" stroke-linejoin="miter" fill="none" stroke="#000000" d="M1467.9 1787.9H1067.9L726.5 1446.4 1067.9 1105H1467.9L1609.3 1446.4Z"/>
<path transform="matrix(.1,0,0,-.1,0,792)" d="M1750.7 1787.9 1609.3 1446.4 1750.7 1105H2150.7L2492.2 1446.4 2150.7 1787.9" fill="#808000"/>
<path transform="matrix(.1,0,0,-.1,0,792)" stroke-width="1" stroke-linecap="butt" stroke-miterlimit="10" stroke-linejoin="miter" fill="none" stroke="#000000" d="M1750.7 1787.9 1609.3 1446.4 1750.7 1105H2150.7L2492.2 1446.4 2150.7 1787.9Z"/>
<path transform="matrix(.1,0,0,-.1,0,792)" d="M2150.7 1787.9 2492.2 1446.4 2633.6 1587.9V1787.9Z"/>
<path transform="matrix(.1,0,0,-.1,0,792)" stroke-width="1" stroke-linecap="butt" stroke-miterlimit="10" stroke-linejoin="miter" fill="none" stroke="#000000" d="M2150.7 1787.9 2492.2 1446.4 2633.6 1587.9V1787.9Z"/>
<path transform="matrix(.1,0,0,-.1,0,792)" d="M3316.4 1787.9V1587.9L3457.8 1446.4 3799.3 1787.9Z"/>
<path transform="matrix(.1,0,0,-.1,0,792)" stroke-width="1" stroke-linecap="butt" stroke-miterlimit="10" stroke-linejoin="miter" fill="none" stroke="#000000" d="M3316.4 1787.9V1587.9L3457.8 1446.4 3799.3 1787.9Z"/>
<path transform="matrix(.1,0,0,-.1,0,792)" d="M3799.3 1787.9 3457.8 1446.4 3799.3 1105H4199.3L4340.7 1446.4 4199.3 1787.9" fill="#808000"/>
<path transform="matrix(.1,0,0,-.1,0,792)" stroke-width="1" stroke-linecap="butt" stroke-miterlimit="10" stroke-linejoin="miter" fill="none" stroke="#000000" d="M3799.3 1787.9 3457.8 1446.4 3799.3 1105H4199.3L4340.7 1446.4 4199.3 1787.9Z"/>
<path transform="matrix(.1,0,0,-.1,0,792)" d="M4482.1 1787.9 4340.7 1446.4 4482.1 1105H4882.1L5223.5 1446.4 4882.1 1787.9" fill="#808000"/>
<path transform="matrix(.1,0,0,-.1,0,792)" stroke-width="1" stroke-linecap="butt" stroke-miterlimit="10" stroke-linejoin="miter" fill="none" stroke="#000000" d="M4482.1 1787.9 4340.7 1446.4 4482.1 1105H4882.1L5223.5 1446.4 4882.1 1787.9Z"/>
<path transform="matrix(.1,0,0,-.1,0,792)" d="M4740.7 1929.3 4882.1 1787.9H5364.9V2270.7L5223.5 2412.1 4882.1 2270.7" fill="#808000"/>
<path transform="matrix(.1,0,0,-.1,0,792)" stroke-width="1" stroke-linecap="butt" stroke-miterlimit="10" stroke-linejoin="miter" fill="none" stroke="#000000" d="M4740.7 1929.3 4882.1 1787.9H5364.9V2270.7L5223.5 2412.1 4882.1 2270.7Z"/>
<path transform="matrix(.1,0,0,-.1,0,792)" d="M4740.7 3695 4882.1 3353.5 5223.5 3212.1 5364.9 3353.5V3836.4H4882.1" fill="#808000"/>
<path transform="matrix(.1,0,0,-.1,0,792)" stroke-width="1" stroke-linecap="butt" stroke-miterlimit="10" stroke-linejoin="miter" fill="none" stroke="#000000" d="M4740.7 3695 4882.1 3353.5 5223.5 3212.1 5364.9 3353.5V3836.4H4882.1Z"/>
<path transform="matrix(.1,0,0,-.1,0,792)" d="M4740.7 4660.7 4882.1 4519.2H5364.9V5002.1L5223.5 5143.5 4882.1 5002.1" fill="#808000"/>
<path transform="matrix(.1,0,0,-.1,0,792)" stroke-width="1" stroke-linecap="butt" stroke-miterlimit="10" stroke-linejoin="miter" fill="none" stroke="#000000" d="M4740.7 4660.7 4882.1 4519.2H5364.9V5002.1L5223.5 5143.5 4882.1 5002.1Z"/>
<path transform="matrix(.1,0,0,-.1,0,792)" d="M4740.7 6426.3 4882.1 6084.9 5223.5 5943.5 5364.9 6084.9V6567.8H4882.1" fill="#808000"/>
<path transform="matrix(.1,0,0,-.1,0,792)" stroke-width="1" stroke-linecap="butt" stroke-miterlimit="10" stroke-linejoin="miter" fill="none" stroke="#000000" d="M4740.7 6426.3 4882.1 6084.9 5223.5 5943.5 5364.9 6084.9V6567.8H4882.1Z"/>
<path transform="matrix(.1,0,0,-.1,0,792)" d="M1209.3 6426.3 1067.9 6567.8H585.102V6084.9L726.5 5943.5 1067.9 6084.9" fill="#808000"/>
<path transform="matrix(.1,0,0,-.1,0,792)" stroke-width="1" stroke-linecap="butt" stroke-miterlimit="10" stroke-linejoin="miter" fill="none" stroke="#000000" d="M1209.3 6426.3 1067.9 6567.8H585.102V6084.9L726.5 5943.5 1067.9 6084.9Z"/>
<path transform="matrix(.1,0,0,-.1,0,792)" d="M1209.3 4660.7 1067.9 5002.1 726.5 5143.5 585.102 5002.1V4519.2H1067.9" fill="#808000"/>
<path transform="matrix(.1,0,0,-.1,0,792)" stroke-width="1" stroke-linecap="butt" stroke-miterlimit="10" stroke-linejoin="miter" fill="none" stroke="#000000" d="M1209.3 4660.7 1067.9 5002.1 726.5 5143.5 585.102 5002.1V4519.2H1067.9Z"/>
<path transform="matrix(.1,0,0,-.1,0,792)" d="M1209.3 3695 1067.9 3836.4H585.102V3353.5L726.5 3212.1 1067.9 3353.5" fill="#808000"/>
<path transform="matrix(.1,0,0,-.1,0,792)" stroke-width="1" stroke-linecap="butt" stroke-miterlimit="10" stroke-linejoin="miter" fill="none" stroke="#000000" d="M1209.3 3695 1067.9 3836.4H585.102V3353.5L726.5 3212.1 1067.9 3353.5Z"/>
<path transform="matrix(.1,0,0,-.1,0,792)" d="M1209.3 1929.3 1067.9 2270.7 726.5 2412.1 585.102 2270.7V1787.9H1067.9" fill="#808000"/>
<path transform="matrix(.1,0,0,-.1,0,792)" stroke-width="1" stroke-linecap="butt" stroke-miterlimit="10" stroke-linejoin="miter" fill="none" stroke="#000000" d="M1209.3 1929.3 1067.9 2270.7 726.5 2412.1 585.102 2270.7V1787.9H1067.9Z"/>
<path transform="matrix(.1,0,0,-.1,0,792)" d="M4823.5 2812.1 5023.5 2612.1 4882.1 2270.7 5223.5 2412.1 5364.9 2270.7V2670.7L5706.4 2812.1 5364.9 2953.5V3353.5L5223.5 3212.1 4882.1 3353.5 5023.5 3012.1" fill="#009ecc"/>
<path transform="matrix(.1,0,0,-.1,0,792)" stroke-width="1" stroke-linecap="butt" stroke-miterlimit="10" stroke-linejoin="miter" fill="none" stroke="#000000" d="M4823.5 2812.1 5023.5 2612.1 4882.1 2270.7 5223.5 2412.1 5364.9 2270.7V2670.7L5706.4 2812.1 5364.9 2953.5V3353.5L5223.5 3212.1 4882.1 3353.5 5023.5 3012.1Z"/>
<path transform="matrix(.1,0,0,-.1,0,792)" d="M4823.5 5543.5 5023.5 5343.5 4882.1 5002.1 5223.5 5143.5 5364.9 5002.1V5402.1L5706.4 5543.5 5364.9 5684.9V6084.9L5223.5 5943.5 4882.1 6084.9 5023.5 5743.5" fill="#009ecc"/>
<path transform="matrix(.1,0,0,-.1,0,792)" stroke-width="1" stroke-linecap="butt" stroke-miterlimit="10" stroke-linejoin="miter" fill="none" stroke="#000000" d="M4823.5 5543.5 5023.5 5343.5 4882.1 5002.1 5223.5 5143.5 5364.9 5002.1V5402.1L5706.4 5543.5 5364.9 5684.9V6084.9L5223.5 5943.5 4882.1 6084.9 5023.5 5743.5Z"/>
<path transform="matrix(.1,0,0,-.1,0,792)" d="M1126.5 5543.5 926.5 5743.5 1067.9 6084.9 726.5 5943.5 585.102 6084.9V5684.9L243.602 5543.5 585.102 5402.1V5002.1L726.5 5143.5 1067.9 5002.1 926.5 5343.5" fill="#009ecc"/>
<path transform="matrix(.1,0,0,-.1,0,792)" stroke-width="1" stroke-linecap="butt" stroke-miterlimit="10" stroke-linejoin="miter" fill="none" stroke="#000000" d="M1126.5 5543.5 926.5 5743.5 1067.9 6084.9 726.5 5943.5 585.102 6084.9V5684.9L243.602 5543.5 585.102 5402.1V5002.1L726.5 5143.5 1067.9 5002.1 926.5 5343.5Z"/>
<path transform="matrix(.1,0,0,-.1,0,792)" d="M1126.5 2812.1 926.5 3012.1 1067.9 3353.5 726.5 3212.1 585.102 3353.5V2953.5L243.602 2812.1 585.102 2670.7V2270.7L726.5 2412.1 1067.9 2270.7 926.5 2612.1" fill="#009ecc"/>
<path transform="matrix(.1,0,0,-.1,0,792)" stroke-width="1" stroke-linecap="butt" stroke-miterlimit="10" stroke-linejoin="miter" fill="none" stroke="#000000" d="M1126.5 2812.1 926.5 3012.1 1067.9 3353.5 726.5 3212.1 585.102 3353.5V2953.5L243.602 2812.1 585.102 2670.7V2270.7L726.5 2412.1 1067.9 2270.7 926.5 2612.1Z"/>
<path transform="matrix(.1,0,0,-.1,0,792)" d="M1067.9 1787.9H585.102V1587.9L726.5 1446.4Z"/>
<path transform="matrix(.1,0,0,-.1,0,792)" stroke-width="1" stroke-linecap="butt" stroke-miterlimit="10" stroke-linejoin="miter" fill="none" stroke="#000000" d="M1067.9 1787.9H585.102V1587.9L726.5 1446.4Z"/>
<path transform="matrix(.1,0,0,-.1,0,792)" d="M4882.1 1787.9 5223.5 1446.4 5364.9 1587.9V1787.9Z"/>
<path transform="matrix(.1,0,0,-.1,0,792)" stroke-width="1" stroke-linecap="butt" stroke-miterlimit="10" stroke-linejoin="miter" fill="none" stroke="#000000" d="M4882.1 1787.9 5223.5 1446.4 5364.9 1587.9V1787.9Z"/>
<path transform="matrix(.1,0,0,-.1,0,792)" d="M4882.1 3836.4H5364.9V4036.4L5223.5 4177.8Z"/>
<path transform="matrix(.1,0,0,-.1,0,792)" stroke-width="1" stroke-linecap="butt" stroke-miterlimit="10" stroke-linejoin="miter" fill="none" stroke="#000000" d="M4882.1 3836.4H5364.9V4036.4L5223.5 4177.8Z"/>
<path transform="matrix(.1,0,0,-.1,0,792)" d="M4882.1 4519.2 5223.5 4177.8 5364.9 4319.2V4519.2Z"/>
<path transform="matrix(.1,0,0,-.1,0,792)" stroke-width="1" stroke-linecap="butt" stroke-miterlimit="10" stroke-linejoin="miter" fill="none" stroke="#000000" d="M4882.1 4519.2 5223.5 4177.8 5364.9 4319.2V4519.2Z"/>
<path transform="matrix(.1,0,0,-.1,0,792)" d="M4882.1 6567.8H5364.9V6767.8L5223.5 6909.2Z"/>
<path transform="matrix(.1,0,0,-.1,0,792)" stroke-width="1" stroke-linecap="butt" stroke-miterlimit="10" stroke-linejoin="miter" fill="none" stroke="#000000" d="M4882.1 6567.8H5364.9V6767.8L5223.5 6909.2Z"/>
<path transform="matrix(.1,0,0,-.1,0,792)" d="M1067.9 6567.8 726.5 6909.2 585.102 6767.8V6567.8Z"/>
<path transform="matrix(.1,0,0,-.1,0,792)" stroke-width="1" stroke-linecap="butt" stroke-miterlimit="10" stroke-linejoin="miter" fill="none" stroke="#000000" d="M1067.9 6567.8 726.5 6909.2 585.102 6767.8V6567.8Z"/>
<path transform="matrix(.1,0,0,-.1,0,792)" d="M1067.9 4519.2H585.102V4319.2L726.5 4177.8Z"/>
<path transform="matrix(.1,0,0,-.1,0,792)" stroke-width="1" stroke-linecap="butt" stroke-miterlimit="10" stroke-linejoin="miter" fill="none" stroke="#000000" d="M1067.9 4519.2H585.102V4319.2L726.5 4177.8Z"/>
<path transform="matrix(.1,0,0,-.1,0,792)" d="M1067.9 3836.4 726.5 4177.8 585.102 4036.4V3836.4Z"/>
<path transform="matrix(.1,0,0,-.1,0,792)" stroke-width="1" stroke-linecap="butt" stroke-miterlimit="10" stroke-linejoin="miter" fill="none" stroke="#000000" d="M1067.9 3836.4 726.5 4177.8 585.102 4036.4V3836.4Z"/>
<path transform="matrix(.1,0,0,-.1,0,792)" d="M4340.7 6909.2 4482.1 7250.6H4882.1L4740.7 7392 4882.1 7733.4 4540.7 7592 4340.7 7792 4140.7 7592 3799.3 7733.4 3940.7 7392 3799.3 7250.6H4199.3" fill="#009ecc"/>
<path transform="matrix(.1,0,0,-.1,0,792)" stroke-width="1" stroke-linecap="butt" stroke-miterlimit="10" stroke-linejoin="miter" fill="none" stroke="#000000" d="M4340.7 6909.2 4482.1 7250.6H4882.1L4740.7 7392 4882.1 7733.4 4540.7 7592 4340.7 7792 4140.7 7592 3799.3 7733.4 3940.7 7392 3799.3 7250.6H4199.3Z"/>
<path transform="matrix(.1,0,0,-.1,0,792)" d="M3457.8 6909.2 3799.3 7250.6H3316.4V7050.6Z"/>
<path transform="matrix(.1,0,0,-.1,0,792)" stroke-width="1" stroke-linecap="butt" stroke-miterlimit="10" stroke-linejoin="miter" fill="none" stroke="#000000" d="M3457.8 6909.2 3799.3 7250.6H3316.4V7050.6Z"/>
<path transform="matrix(.1,0,0,-.1,0,792)" d="M2492.2 6909.2 2633.6 7050.6V7250.6H2150.7Z"/>
<path transform="matrix(.1,0,0,-.1,0,792)" stroke-width="1" stroke-linecap="butt" stroke-miterlimit="10" stroke-linejoin="miter" fill="none" stroke="#000000" d="M2492.2 6909.2 2633.6 7050.6V7250.6H2150.7Z"/>
<path transform="matrix(.1,0,0,-.1,0,792)" d="M1609.3 6909.2 1750.7 7250.6H2150.7L2009.3 7392 2150.7 7733.4 1809.3 7592 1609.3 7792 1409.3 7592 1067.9 7733.4 1209.3 7392 1067.9 7250.6H1467.9" fill="#009ecc"/>
<path transform="matrix(.1,0,0,-.1,0,792)" stroke-width="1" stroke-linecap="butt" stroke-miterlimit="10" stroke-linejoin="miter" fill="none" stroke="#000000" d="M1609.3 6909.2 1750.7 7250.6H2150.7L2009.3 7392 2150.7 7733.4 1809.3 7592 1609.3 7792 1409.3 7592 1067.9 7733.4 1209.3 7392 1067.9 7250.6H1467.9Z"/>
<path transform="matrix(.1,0,0,-.1,0,792)" d="M1609.3 1446.4 1467.9 1105H1067.9L1209.3 963.602 1067.9 622.199 1409.3 763.602 1609.3 563.602 1809.3 763.602 2150.7 622.199 2009.3 963.602 2150.7 1105H1750.7" fill="#009ecc"/>
<path transform="matrix(.1,0,0,-.1,0,792)" stroke-width="1" stroke-linecap="butt" stroke-miterlimit="10" stroke-linejoin="miter" fill="none" stroke="#000000" d="M1609.3 1446.4 1467.9 1105H1067.9L1209.3 963.602 1067.9 622.199 1409.3 763.602 1609.3 563.602 1809.3 763.602 2150.7 622.199 2009.3 963.602 2150.7 1105H1750.7Z"/>
<path transform="matrix(.1,0,0,-.1,0,792)" d="M2492.2 1446.4 2150.7 1105H2633.6V1305Z"/>
<path transform="matrix(.1,0,0,-.1,0,792)" stroke-width="1" stroke-linecap="butt" stroke-miterlimit="10" stroke-linejoin="miter" fill="none" stroke="#000000" d="M2492.2 1446.4 2150.7 1105H2633.6V1305Z"/>
<path transform="matrix(.1,0,0,-.1,0,792)" d="M3457.8 1446.4 3316.4 1305V1105H3799.3Z"/>
<path transform="matrix(.1,0,0,-.1,0,792)" stroke-width="1" stroke-linecap="butt" stroke-miterlimit="10" stroke-linejoin="miter" fill="none" stroke="#000000" d="M3457.8 1446.4 3316.4 1305V1105H3799.3Z"/>
<path transform="matrix(.1,0,0,-.1,0,792)" d="M4340.7 1446.4 4199.3 1105H3799.3L3940.7 963.602 3799.3 622.199 4140.7 763.602 4340.7 563.602 4540.7 763.602 4882.1 622.199 4740.7 963.602 4882.1 1105H4482.1" fill="#009ecc"/>
<path transform="matrix(.1,0,0,-.1,0,792)" stroke-width="1" stroke-linecap="butt" stroke-miterlimit="10" stroke-linejoin="miter" fill="none" stroke="#000000" d="M4340.7 1446.4 4199.3 1105H3799.3L3940.7 963.602 3799.3 622.199 4140.7 763.602 4340.7 563.602 4540.7 763.602 4882.1 622.199 4740.7 963.602 4882.1 1105H4482.1Z"/>
<path transform="matrix(.1,0,0,-.1,0,792)" d="M4882.1 7250.6H5364.9V7733.4L5223.5 7874.9 4882.1 7733.4 4740.7 7392" fill="#808000"/>
<path transform="matrix(.1,0,0,-.1,0,792)" stroke-width="1" stroke-linecap="butt" stroke-miterlimit="10" stroke-linejoin="miter" fill="none" stroke="#000000" d="M4882.1 7250.6H5364.9V7733.4L5223.5 7874.9 4882.1 7733.4 4740.7 7392Z"/>
<path transform="matrix(.1,0,0,-.1,0,792)" d="M4882.1 7250.6 5223.5 6909.2 5364.9 7050.6V7250.6Z"/>
<path transform="matrix(.1,0,0,-.1,0,792)" stroke-width="1" stroke-linecap="butt" stroke-miterlimit="10" stroke-linejoin="miter" fill="none" stroke="#000000" d="M4882.1 7250.6 5223.5 6909.2 5364.9 7050.6V7250.6Z"/>
<path transform="matrix(.1,0,0,-.1,0,792)" d="M3799.3 7250.6 3940.7 7392 3799.3 7733.4 3457.8 7874.9 3316.4 7733.4V7250.6" fill="#808000"/>
<path transform="matrix(.1,0,0,-.1,0,792)" stroke-width="1" stroke-linecap="butt" stroke-miterlimit="10" stroke-linejoin="miter" fill="none" stroke="#000000" d="M3799.3 7250.6 3940.7 7392 3799.3 7733.4 3457.8 7874.9 3316.4 7733.4V7250.6Z"/>
<path transform="matrix(.1,0,0,-.1,0,792)" d="M3316.4 7250.6V7733.4L2975 7392 3116.4 7250.6Z"/>
<path transform="matrix(.1,0,0,-.1,0,792)" stroke-width="1" stroke-linecap="butt" stroke-miterlimit="10" stroke-linejoin="miter" fill="none" stroke="#000000" d="M3316.4 7250.6V7733.4L2975 7392 3116.4 7250.6Z"/>
<path transform="matrix(.1,0,0,-.1,0,792)" d="M2833.6 7250.6 2975 7392 2633.6 7733.4V7250.6Z"/>
<path transform="matrix(.1,0,0,-.1,0,792)" stroke-width="1" stroke-linecap="butt" stroke-miterlimit="10" stroke-linejoin="miter" fill="none" stroke="#000000" d="M2833.6 7250.6 2975 7392 2633.6 7733.4V7250.6Z"/>
<path transform="matrix(.1,0,0,-.1,0,792)" d="M2633.6 7250.6V7733.4L2492.2 7874.9 2150.7 7733.4 2009.3 7392 2150.7 7250.6" fill="#808000"/>
<path transform="matrix(.1,0,0,-.1,0,792)" stroke-width="1" stroke-linecap="butt" stroke-miterlimit="10" stroke-linejoin="miter" fill="none" stroke="#000000" d="M2633.6 7250.6V7733.4L2492.2 7874.9 2150.7 7733.4 2009.3 7392 2150.7 7250.6Z"/>
<path transform="matrix(.1,0,0,-.1,0,792)" d="M1067.9 7250.6H585.102V7050.6L726.5 6909.2Z"/>
<path transform="matrix(.1,0,0,-.1,0,792)" stroke-width="1" stroke-linecap="butt" stroke-miterlimit="10" stroke-linejoin="miter" fill="none" stroke="#000000" d="M1067.9 7250.6H585.102V7050.6L726.5 6909.2Z"/>
<path transform="matrix(.1,0,0,-.1,0,792)" d="M1067.9 7250.6 1209.3 7392 1067.9 7733.4 726.5 7874.9 585.102 7733.4V7250.6" fill="#808000"/>
<path transform="matrix(.1,0,0,-.1,0,792)" stroke-width="1" stroke-linecap="butt" stroke-miterlimit="10" stroke-linejoin="miter" fill="none" stroke="#000000" d="M1067.9 7250.6 1209.3 7392 1067.9 7733.4 726.5 7874.9 585.102 7733.4V7250.6Z"/>
<path transform="matrix(.1,0,0,-.1,0,792)" d="M726.5 6909.2 585.102 7050.6V7250.6H385.102L243.602 7392 102.199 7250.6H-97.8008V7050.6L-239.199 6909.2-97.8008 6767.8V6567.8H102.199L243.602 6426.3 385.102 6567.8H585.102V6767.8" fill="#007800"/>
<path transform="matrix(.1,0,0,-.1,0,792)" stroke-width="1" stroke-linecap="butt" stroke-miterlimit="10" stroke-linejoin="miter" fill="none" stroke="#000000" d="M726.5 6909.2 585.102 7050.6V7250.6H385.102L243.602 7392 102.199 7250.6H-97.8008V7050.6L-239.199 6909.2-97.8008 6767.8V6567.8H102.199L243.602 6426.3 385.102 6567.8H585.102V6767.8Z"/>
<path transform="matrix(.1,0,0,-.1,0,792)" d="M726.5 4177.8 585.102 4319.2V4519.2H385.102L243.602 4660.7 102.199 4519.2H-97.8008V4319.2L-239.199 4177.8-97.8008 4036.4V3836.4H102.199L243.602 3695 385.102 3836.4H585.102V4036.4" fill="#007800"/>
<path transform="matrix(.1,0,0,-.1,0,792)" stroke-width="1" stroke-linecap="butt" stroke-miterlimit="10" stroke-linejoin="miter" fill="none" stroke="#000000" d="M726.5 4177.8 585.102 4319.2V4519.2H385.102L243.602 4660.7 102.199 4519.2H-97.8008V4319.2L-239.199 4177.8-97.8008 4036.4V3836.4H102.199L243.602 3695 385.102 3836.4H585.102V4036.4Z"/>
<path transform="matrix(.1,0,0,-.1,0,792)" d="M726.5 1446.4 585.102 1305V1105H1067.9Z"/>
<path transform="matrix(.1,0,0,-.1,0,792)" stroke-width="1" stroke-linecap="butt" stroke-miterlimit="10" stroke-linejoin="miter" fill="none" stroke="#000000" d="M726.5 1446.4 585.102 1305V1105H1067.9Z"/>
<path transform="matrix(.1,0,0,-.1,0,792)" d="M726.5 1446.4 585.102 1587.9V1787.9H385.102L243.602 1929.3 102.199 1787.9H-97.8008V1587.9L-239.199 1446.4-97.8008 1305V1105H102.199L243.602 963.602 385.102 1105H585.102V1305" fill="#007800"/>
<path transform="matrix(.1,0,0,-.1,0,792)" stroke-width="1" stroke-linecap="butt" stroke-miterlimit="10" stroke-linejoin="miter" fill="none" stroke="#000000" d="M726.5 1446.4 585.102 1587.9V1787.9H385.102L243.602 1929.3 102.199 1787.9H-97.8008V1587.9L-239.199 1446.4-97.8008 1305V1105H102.199L243.602 963.602 385.102 1105H585.102V1305Z"/>
<path transform="matrix(.1,0,0,-.1,0,792)" d="M5223.5 1446.4 5364.9 1305V1105H5564.9L5706.4 963.602 5847.8 1105H6047.8V1305L6189.2 1446.4 6047.8 1587.9V1787.9H5847.8L5706.4 1929.3 5564.9 1787.9H5364.9V1587.9" fill="#007800"/>
<path transform="matrix(.1,0,0,-.1,0,792)" stroke-width="1" stroke-linecap="butt" stroke-miterlimit="10" stroke-linejoin="miter" fill="none" stroke="#000000" d="M5223.5 1446.4 5364.9 1305V1105H5564.9L5706.4 963.602 5847.8 1105H6047.8V1305L6189.2 1446.4 6047.8 1587.9V1787.9H5847.8L5706.4 1929.3 5564.9 1787.9H5364.9V1587.9Z"/>
<path transform="matrix(.1,0,0,-.1,0,792)" d="M5223.5 1446.4 4882.1 1105H5364.9V1305Z"/>
<path transform="matrix(.1,0,0,-.1,0,792)" stroke-width="1" stroke-linecap="butt" stroke-miterlimit="10" stroke-linejoin="miter" fill="none" stroke="#000000" d="M5223.5 1446.4 4882.1 1105H5364.9V1305Z"/>
<path transform="matrix(.1,0,0,-.1,0,792)" d="M5223.5 4177.8 5364.9 4036.4V3836.4H5564.9L5706.4 3695 5847.8 3836.4H6047.8V4036.4L6189.2 4177.8 6047.8 4319.2V4519.2H5847.8L5706.4 4660.7 5564.9 4519.2H5364.9V4319.2" fill="#007800"/>
<path transform="matrix(.1,0,0,-.1,0,792)" stroke-width="1" stroke-linecap="butt" stroke-miterlimit="10" stroke-linejoin="miter" fill="none" stroke="#000000" d="M5223.5 4177.8 5364.9 4036.4V3836.4H5564.9L5706.4 3695 5847.8 3836.4H6047.8V4036.4L6189.2 4177.8 6047.8 4319.2V4519.2H5847.8L5706.4 4660.7 5564.9 4519.2H5364.9V4319.2Z"/>
<path transform="matrix(.1,0,0,-.1,0,792)" d="M5223.5 6909.2 5364.9 6767.8V6567.8H5564.9L5706.4 6426.3 5847.8 6567.8H6047.8V6767.8L6189.2 6909.2 6047.8 7050.6V7250.6H5847.8L5706.4 7392 5564.9 7250.6H5364.9V7050.6" fill="#007800"/>
<path transform="matrix(.1,0,0,-.1,0,792)" stroke-width="1" stroke-linecap="butt" stroke-miterlimit="10" stroke-linejoin="miter" fill="none" stroke="#000000" d="M5223.5 6909.2 5364.9 6767.8V6567.8H5564.9L5706.4 6426.3 5847.8 6567.8H6047.8V6767.8L6189.2 6909.2 6047.8 7050.6V7250.6H5847.8L5706.4 7392 5564.9 7250.6H5364.9V7050.6Z"/>
<path transform="matrix(.1,0,0,-.1,0,792)" d="M1067.9 1105H585.102V622.199L726.5 480.801 1067.9 622.199 1209.3 963.602" fill="#808000"/>
<path transform="matrix(.1,0,0,-.1,0,792)" stroke-width="1" stroke-linecap="butt" stroke-miterlimit="10" stroke-linejoin="miter" fill="none" stroke="#000000" d="M1067.9 1105H585.102V622.199L726.5 480.801 1067.9 622.199 1209.3 963.602Z"/>
<path transform="matrix(.1,0,0,-.1,0,792)" d="M2150.7 1105 2009.3 963.602 2150.7 622.199 2492.2 480.801 2633.6 622.199V1105" fill="#808000"/>
<path transform="matrix(.1,0,0,-.1,0,792)" stroke-width="1" stroke-linecap="butt" stroke-miterlimit="10" stroke-linejoin="miter" fill="none" stroke="#000000" d="M2150.7 1105 2009.3 963.602 2150.7 622.199 2492.2 480.801 2633.6 622.199V1105Z"/>
<path transform="matrix(.1,0,0,-.1,0,792)" d="M2633.6 1105V622.199L2975 963.602 2833.6 1105Z"/>
<path transform="matrix(.1,0,0,-.1,0,792)" stroke-width="1" stroke-linecap="butt" stroke-miterlimit="10" stroke-linejoin="miter" fill="none" stroke="#000000" d="M2633.6 1105V622.199L2975 963.602 2833.6 1105Z"/>
<path transform="matrix(.1,0,0,-.1,0,792)" d="M3116.4 1105 2975 963.602 3316.4 622.199V1105Z"/>
<path transform="matrix(.1,0,0,-.1,0,792)" stroke-width="1" stroke-linecap="butt" stroke-miterlimit="10" stroke-linejoin="miter" fill="none" stroke="#000000" d="M3116.4 1105 2975 963.602 3316.4 622.199V1105Z"/>
<path transform="matrix(.1,0,0,-.1,0,792)" d="M3316.4 1105V622.199L3457.8 480.801 3799.3 622.199 3940.7 963.602 3799.3 1105" fill="#808000"/>
<path transform="matrix(.1,0,0,-.1,0,792)" stroke-width="1" stroke-linecap="butt" stroke-miterlimit="10" stroke-linejoin="miter" fill="none" stroke="#000000" d="M3316.4 1105V622.199L3457.8 480.801 3799.3 622.199 3940.7 963.602 3799.3 1105Z"/>
<path transform="matrix(.1,0,0,-.1,0,792)" d="M4882.1 1105 4740.7 963.602 4882.1 622.199 5223.5 480.801 5364.9 622.199V1105" fill="#808000"/>
<path transform="matrix(.1,0,0,-.1,0,792)" stroke-width="1" stroke-linecap="butt" stroke-miterlimit="10" stroke-linejoin="miter" fill="none" stroke="#000000" d="M4882.1 1105 4740.7 963.602 4882.1 622.199 5223.5 480.801 5364.9 622.199V1105Z"/>
<path transform="matrix(.1,0,0,-.1,0,792)" d="M2975 7392 3316.4 7733.4V8133.4L2975 8274.9 2633.6 8133.4V7733.4" fill="#808000"/>
<path transform="matrix(.1,0,0,-.1,0,792)" stroke-width="1" stroke-linecap="butt" stroke-miterlimit="10" stroke-linejoin="miter" fill="none" stroke="#000000" d="M2975 7392 3316.4 7733.4V8133.4L2975 8274.9 2633.6 8133.4V7733.4Z"/>
<path transform="matrix(.1,0,0,-.1,0,792)" d="M2975 963.602 2633.6 622.199V222.199L2975 80.8008 3316.4 222.199V622.199" fill="#808000"/>
<path transform="matrix(.1,0,0,-.1,0,792)" stroke-width="1" stroke-linecap="butt" stroke-miterlimit="10" stroke-linejoin="miter" fill="none" stroke="#000000" d="M2975 963.602 2633.6 622.199V222.199L2975 80.8008 3316.4 222.199V622.199Z"/>
<path transform="matrix(.1,0,0,-.1,0,792)" d="M5364.9 1105V622.199L5706.4 963.602 5564.9 1105Z"/>
<path transform="matrix(.1,0,0,-.1,0,792)" stroke-width="1" stroke-linecap="butt" stroke-miterlimit="10" stroke-linejoin="miter" fill="none" stroke="#000000" d="M5364.9 1105V622.199L5706.4 963.602 5564.9 1105Z"/>
<path transform="matrix(.1,0,0,-.1,0,792)" d="M5364.9 1787.9H5564.9L5706.4 1929.3 5364.9 2270.7Z"/>
<path transform="matrix(.1,0,0,-.1,0,792)" stroke-width="1" stroke-linecap="butt" stroke-miterlimit="10" stroke-linejoin="miter" fill="none" stroke="#000000" d="M5364.9 1787.9H5564.9L5706.4 1929.3 5364.9 2270.7Z"/>
<path transform="matrix(.1,0,0,-.1,0,792)" d="M5364.9 2270.7 5706.4 1929.3 6047.8 2270.7V2670.7L5706.4 2812.1 5364.9 2670.7" fill="#808000"/>
<path transform="matrix(.1,0,0,-.1,0,792)" stroke-width="1" stroke-linecap="butt" stroke-miterlimit="10" stroke-linejoin="miter" fill="none" stroke="#000000" d="M5364.9 2270.7 5706.4 1929.3 6047.8 2270.7V2670.7L5706.4 2812.1 5364.9 2670.7Z"/>
<path transform="matrix(.1,0,0,-.1,0,792)" d="M5364.9 2953.5 5706.4 2812.1 6047.8 2953.5V3353.5L5706.4 3695 5364.9 3353.5" fill="#808000"/>
<path transform="matrix(.1,0,0,-.1,0,792)" stroke-width="1" stroke-linecap="butt" stroke-miterlimit="10" stroke-linejoin="miter" fill="none" stroke="#000000" d="M5364.9 2953.5 5706.4 2812.1 6047.8 2953.5V3353.5L5706.4 3695 5364.9 3353.5Z"/>
<path transform="matrix(.1,0,0,-.1,0,792)" d="M5364.9 3353.5 5706.4 3695 5564.9 3836.4H5364.9Z"/>
<path transform="matrix(.1,0,0,-.1,0,792)" stroke-width="1" stroke-linecap="butt" stroke-miterlimit="10" stroke-linejoin="miter" fill="none" stroke="#000000" d="M5364.9 3353.5 5706.4 3695 5564.9 3836.4H5364.9Z"/>
<path transform="matrix(.1,0,0,-.1,0,792)" d="M5364.9 4519.2H5564.9L5706.4 4660.7 5364.9 5002.1Z"/>
<path transform="matrix(.1,0,0,-.1,0,792)" stroke-width="1" stroke-linecap="butt" stroke-miterlimit="10" stroke-linejoin="miter" fill="none" stroke="#000000" d="M5364.9 4519.2H5564.9L5706.4 4660.7 5364.9 5002.1Z"/>
<path transform="matrix(.1,0,0,-.1,0,792)" d="M5364.9 5002.1 5706.4 4660.7 6047.8 5002.1V5402.1L5706.4 5543.5 5364.9 5402.1" fill="#808000"/>
<path transform="matrix(.1,0,0,-.1,0,792)" stroke-width="1" stroke-linecap="butt" stroke-miterlimit="10" stroke-linejoin="miter" fill="none" stroke="#000000" d="M5364.9 5002.1 5706.4 4660.7 6047.8 5002.1V5402.1L5706.4 5543.5 5364.9 5402.1Z"/>
<path transform="matrix(.1,0,0,-.1,0,792)" d="M5364.9 5684.9 5706.4 5543.5 6047.8 5684.9V6084.9L5706.4 6426.3 5364.9 6084.9" fill="#808000"/>
<path transform="matrix(.1,0,0,-.1,0,792)" stroke-width="1" stroke-linecap="butt" stroke-miterlimit="10" stroke-linejoin="miter" fill="none" stroke="#000000" d="M5364.9 5684.9 5706.4 5543.5 6047.8 5684.9V6084.9L5706.4 6426.3 5364.9 6084.9Z"/>
<path transform="matrix(.1,0,0,-.1,0,792)" d="M5364.9 6084.9 5706.4 6426.3 5564.9 6567.8H5364.9Z"/>
<path transform="matrix(.1,0,0,-.1,0,792)" stroke-width="1" stroke-linecap="butt" stroke-miterlimit="10" stroke-linejoin="miter" fill="none" stroke="#000000" d="M5364.9 6084.9 5706.4 6426.3 5564.9 6567.8H5364.9Z"/>
<path transform="matrix(.1,0,0,-.1,0,792)" d="M5364.9 7250.6H5564.9L5706.4 7392 5364.9 7733.4Z"/>
<path transform="matrix(.1,0,0,-.1,0,792)" stroke-width="1" stroke-linecap="butt" stroke-miterlimit="10" stroke-linejoin="miter" fill="none" stroke="#000000" d="M5364.9 7250.6H5564.9L5706.4 7392 5364.9 7733.4Z"/>
<path transform="matrix(.1,0,0,-.1,0,792)" d="M585.102 7250.6V7733.4L243.602 7392 385.102 7250.6Z"/>
<path transform="matrix(.1,0,0,-.1,0,792)" stroke-width="1" stroke-linecap="butt" stroke-miterlimit="10" stroke-linejoin="miter" fill="none" stroke="#000000" d="M585.102 7250.6V7733.4L243.602 7392 385.102 7250.6Z"/>
<path transform="matrix(.1,0,0,-.1,0,792)" d="M585.102 6567.8H385.102L243.602 6426.3 585.102 6084.9Z"/>
<path transform="matrix(.1,0,0,-.1,0,792)" stroke-width="1" stroke-linecap="butt" stroke-miterlimit="10" stroke-linejoin="miter" fill="none" stroke="#000000" d="M585.102 6567.8H385.102L243.602 6426.3 585.102 6084.9Z"/>
<path transform="matrix(.1,0,0,-.1,0,792)" d="M585.102 6084.9 243.602 6426.3-97.8008 6084.9V5684.9L243.602 5543.5 585.102 5684.9" fill="#808000"/>
<path transform="matrix(.1,0,0,-.1,0,792)" stroke-width="1" stroke-linecap="butt" stroke-miterlimit="10" stroke-linejoin="miter" fill="none" stroke="#000000" d="M585.102 6084.9 243.602 6426.3-97.8008 6084.9V5684.9L243.602 5543.5 585.102 5684.9Z"/>
<path transform="matrix(.1,0,0,-.1,0,792)" d="M585.102 5402.1 243.602 5543.5-97.8008 5402.1V5002.1L243.602 4660.7 585.102 5002.1" fill="#808000"/>
<path transform="matrix(.1,0,0,-.1,0,792)" stroke-width="1" stroke-linecap="butt" stroke-miterlimit="10" stroke-linejoin="miter" fill="none" stroke="#000000" d="M585.102 5402.1 243.602 5543.5-97.8008 5402.1V5002.1L243.602 4660.7 585.102 5002.1Z"/>
<path transform="matrix(.1,0,0,-.1,0,792)" d="M585.102 5002.1 243.602 4660.7 385.102 4519.2H585.102Z"/>
<path transform="matrix(.1,0,0,-.1,0,792)" stroke-width="1" stroke-linecap="butt" stroke-miterlimit="10" stroke-linejoin="miter" fill="none" stroke="#000000" d="M585.102 5002.1 243.602 4660.7 385.102 4519.2H585.102Z"/>
<path transform="matrix(.1,0,0,-.1,0,792)" d="M585.102 3836.4H385.102L243.602 3695 585.102 3353.5Z"/>
<path transform="matrix(.1,0,0,-.1,0,792)" stroke-width="1" stroke-linecap="butt" stroke-miterlimit="10" stroke-linejoin="miter" fill="none" stroke="#000000" d="M585.102 3836.4H385.102L243.602 3695 585.102 3353.5Z"/>
<path transform="matrix(.1,0,0,-.1,0,792)" d="M585.102 3353.5 243.602 3695-97.8008 3353.5V2953.5L243.602 2812.1 585.102 2953.5" fill="#808000"/>
<path transform="matrix(.1,0,0,-.1,0,792)" stroke-width="1" stroke-linecap="butt" stroke-miterlimit="10" stroke-linejoin="miter" fill="none" stroke="#000000" d="M585.102 3353.5 243.602 3695-97.8008 3353.5V2953.5L243.602 2812.1 585.102 2953.5Z"/>
<path transform="matrix(.1,0,0,-.1,0,792)" d="M585.102 2670.7 243.602 2812.1-97.8008 2670.7V2270.7L243.602 1929.3 585.102 2270.7" fill="#808000"/>
<path transform="matrix(.1,0,0,-.1,0,792)" stroke-width="1" stroke-linecap="butt" stroke-miterlimit="10" stroke-linejoin="miter" fill="none" stroke="#000000" d="M585.102 2670.7 243.602 2812.1-97.8008 2670.7V2270.7L243.602 1929.3 585.102 2270.7Z"/>
<path transform="matrix(.1,0,0,-.1,0,792)" d="M585.102 2270.7 243.602 1929.3 385.102 1787.9H585.102Z"/>
<path transform="matrix(.1,0,0,-.1,0,792)" stroke-width="1" stroke-linecap="butt" stroke-miterlimit="10" stroke-linejoin="miter" fill="none" stroke="#000000" d="M585.102 2270.7 243.602 1929.3 385.102 1787.9H585.102Z"/>
<path transform="matrix(.1,0,0,-.1,0,792)" d="M585.102 1105H385.102L243.602 963.602 585.102 622.199Z"/>
<path transform="matrix(.1,0,0,-.1,0,792)" stroke-width="1" stroke-linecap="butt" stroke-miterlimit="10" stroke-linejoin="miter" fill="none" stroke="#000000" d="M585.102 1105H385.102L243.602 963.602 585.102 622.199Z"/>
<path transform="matrix(.1,0,0,-.1,0,792)" d="M4540.7 7592 4882.1 7733.4 5023.5 8074.9 4823.5 8274.9 5023.5 8474.9 4882.1 8816.3 4540.7 8957.7 4340.7 8757.7 4140.7 8957.7 3799.3 8816.3 3657.8 8474.9 3857.8 8274.9 3657.8 8074.9 3799.3 7733.4 4140.7 7592 4340.7 7792" fill="#808000"/>
<path transform="matrix(.1,0,0,-.1,0,792)" stroke-width="1" stroke-linecap="butt" stroke-miterlimit="10" stroke-linejoin="miter" fill="none" stroke="#000000" d="M4540.7 7592 4882.1 7733.4 5023.5 8074.9 4823.5 8274.9 5023.5 8474.9 4882.1 8816.3 4540.7 8957.7 4340.7 8757.7 4140.7 8957.7 3799.3 8816.3 3657.8 8474.9 3857.8 8274.9 3657.8 8074.9 3799.3 7733.4 4140.7 7592 4340.7 7792Z"/>
<path transform="matrix(.1,0,0,-.1,0,792)" d="M1809.3 7592 2150.7 7733.4 2292.2 8074.9 2092.2 8274.9 2292.2 8474.9 2150.7 8816.3 1809.3 8957.7 1609.3 8757.7 1409.3 8957.7 1067.9 8816.3 926.5 8474.9 1126.5 8274.9 926.5 8074.9 1067.9 7733.4 1409.3 7592 1609.3 7792" fill="#808000"/>
<path transform="matrix(.1,0,0,-.1,0,792)" stroke-width="1" stroke-linecap="butt" stroke-miterlimit="10" stroke-linejoin="miter" fill="none" stroke="#000000" d="M1809.3 7592 2150.7 7733.4 2292.2 8074.9 2092.2 8274.9 2292.2 8474.9 2150.7 8816.3 1809.3 8957.7 1609.3 8757.7 1409.3 8957.7 1067.9 8816.3 926.5 8474.9 1126.5 8274.9 926.5 8074.9 1067.9 7733.4 1409.3 7592 1609.3 7792Z"/>
<path transform="matrix(.1,0,0,-.1,0,792)" d="M1409.3 763.602 1067.9 622.199 926.5 280.801 1126.5 80.8008 926.5-119.199 1067.9-460.699 1409.3-602.102 1609.3-402.102 1809.3-602.102 2150.7-460.699 2292.2-119.199 2092.2 80.8008 2292.2 280.801 2150.7 622.199 1809.3 763.602 1609.3 563.602" fill="#808000"/>
<path transform="matrix(.1,0,0,-.1,0,792)" stroke-width="1" stroke-linecap="butt" stroke-miterlimit="10" stroke-linejoin="miter" fill="none" stroke="#000000" d="M1409.3 763.602 1067.9 622.199 926.5 280.801 1126.5 80.8008 926.5-119.199 1067.9-460.699 1409.3-602.102 1609.3-402.102 1809.3-602.102 2150.7-460.699 2292.2-119.199 2092.2 80.8008 2292.2 280.801 2150.7 622.199 1809.3 763.602 1609.3 563.602Z"/>
<path transform="matrix(.1,0,0,-.1,0,792)" d="M4140.7 763.602 3799.3 622.199 3657.8 280.801 3857.8 80.8008 3657.8-119.199 3799.3-460.699 4140.7-602.102 4340.7-402.102 4540.7-602.102 4882.1-460.699 5023.5-119.199 4823.5 80.8008 5023.5 280.801 4882.1 622.199 4540.7 763.602 4340.7 563.602" fill="#808000"/>
<path transform="matrix(.1,0,0,-.1,0,792)" stroke-width="1" stroke-linecap="butt" stroke-miterlimit="10" stroke-linejoin="miter" fill="none" stroke="#000000" d="M4140.7 763.602 3799.3 622.199 3657.8 280.801 3857.8 80.8008 3657.8-119.199 3799.3-460.699 4140.7-602.102 4340.7-402.102 4540.7-602.102 4882.1-460.699 5023.5-119.199 4823.5 80.8008 5023.5 280.801 4882.1 622.199 4540.7 763.602 4340.7 563.602Z"/>
<path transform="matrix(.1,0,0,-.1,0,792)" d="M5364.9 7733.4V8133.4L5706.4 8274.9 5364.9 8416.3V8816.3L5223.5 8674.9 4882.1 8816.3 5023.5 8474.9 4823.5 8274.9 5023.5 8074.9 4882.1 7733.4 5223.5 7874.9" fill="#009ecc"/>
<path transform="matrix(.1,0,0,-.1,0,792)" stroke-width="1" stroke-linecap="butt" stroke-miterlimit="10" stroke-linejoin="miter" fill="none" stroke="#000000" d="M5364.9 7733.4V8133.4L5706.4 8274.9 5364.9 8416.3V8816.3L5223.5 8674.9 4882.1 8816.3 5023.5 8474.9 4823.5 8274.9 5023.5 8074.9 4882.1 7733.4 5223.5 7874.9Z"/>
<path transform="matrix(.1,0,0,-.1,0,792)" d="M5364.9 7733.4 5706.4 7392 6047.8 7733.4V8133.4L5706.4 8274.9 5364.9 8133.4" fill="#808000"/>
<path transform="matrix(.1,0,0,-.1,0,792)" stroke-width="1" stroke-linecap="butt" stroke-miterlimit="10" stroke-linejoin="miter" fill="none" stroke="#000000" d="M5364.9 7733.4 5706.4 7392 6047.8 7733.4V8133.4L5706.4 8274.9 5364.9 8133.4Z"/>
<path transform="matrix(.1,0,0,-.1,0,792)" d="M3799.3 7733.4 3657.8 8074.9 3857.8 8274.9 3657.8 8474.9 3799.3 8816.3 3457.8 8674.9 3316.4 8816.3V8416.3L2975 8274.9 3316.4 8133.4V7733.4L3457.8 7874.9" fill="#009ecc"/>
<path transform="matrix(.1,0,0,-.1,0,792)" stroke-width="1" stroke-linecap="butt" stroke-miterlimit="10" stroke-linejoin="miter" fill="none" stroke="#000000" d="M3799.3 7733.4 3657.8 8074.9 3857.8 8274.9 3657.8 8474.9 3799.3 8816.3 3457.8 8674.9 3316.4 8816.3V8416.3L2975 8274.9 3316.4 8133.4V7733.4L3457.8 7874.9Z"/>
<path transform="matrix(.1,0,0,-.1,0,792)" d="M2633.6 7733.4V8133.4L2975 8274.9 2633.6 8416.3V8816.3L2492.2 8674.9 2150.7 8816.3 2292.2 8474.9 2092.2 8274.9 2292.2 8074.9 2150.7 7733.4 2492.2 7874.9" fill="#009ecc"/>
<path transform="matrix(.1,0,0,-.1,0,792)" stroke-width="1" stroke-linecap="butt" stroke-miterlimit="10" stroke-linejoin="miter" fill="none" stroke="#000000" d="M2633.6 7733.4V8133.4L2975 8274.9 2633.6 8416.3V8816.3L2492.2 8674.9 2150.7 8816.3 2292.2 8474.9 2092.2 8274.9 2292.2 8074.9 2150.7 7733.4 2492.2 7874.9Z"/>
<path transform="matrix(.1,0,0,-.1,0,792)" d="M1067.9 7733.4 926.5 8074.9 1126.5 8274.9 926.5 8474.9 1067.9 8816.3 726.5 8674.9 585.102 8816.3V8416.3L243.602 8274.9 585.102 8133.4V7733.4L726.5 7874.9" fill="#009ecc"/>
<path transform="matrix(.1,0,0,-.1,0,792)" stroke-width="1" stroke-linecap="butt" stroke-miterlimit="10" stroke-linejoin="miter" fill="none" stroke="#000000" d="M1067.9 7733.4 926.5 8074.9 1126.5 8274.9 926.5 8474.9 1067.9 8816.3 726.5 8674.9 585.102 8816.3V8416.3L243.602 8274.9 585.102 8133.4V7733.4L726.5 7874.9Z"/>
<path transform="matrix(.1,0,0,-.1,0,792)" d="M585.102 7733.4V8133.4L243.602 8274.9-97.8008 8133.4V7733.4L243.602 7392" fill="#808000"/>
<path transform="matrix(.1,0,0,-.1,0,792)" stroke-width="1" stroke-linecap="butt" stroke-miterlimit="10" stroke-linejoin="miter" fill="none" stroke="#000000" d="M585.102 7733.4V8133.4L243.602 8274.9-97.8008 8133.4V7733.4L243.602 7392Z"/>
<path transform="matrix(.1,0,0,-.1,0,792)" d="M585.102 622.199V222.199L243.602 80.8008 585.102-60.6992V-460.699L726.5-319.199 1067.9-460.699 926.5-119.199 1126.5 80.8008 926.5 280.801 1067.9 622.199 726.5 480.801" fill="#009ecc"/>
<path transform="matrix(.1,0,0,-.1,0,792)" stroke-width="1" stroke-linecap="butt" stroke-miterlimit="10" stroke-linejoin="miter" fill="none" stroke="#000000" d="M585.102 622.199V222.199L243.602 80.8008 585.102-60.6992V-460.699L726.5-319.199 1067.9-460.699 926.5-119.199 1126.5 80.8008 926.5 280.801 1067.9 622.199 726.5 480.801Z"/>
<path transform="matrix(.1,0,0,-.1,0,792)" d="M585.102 622.199 243.602 963.602-97.8008 622.199V222.199L243.602 80.8008 585.102 222.199" fill="#808000"/>
<path transform="matrix(.1,0,0,-.1,0,792)" stroke-width="1" stroke-linecap="butt" stroke-miterlimit="10" stroke-linejoin="miter" fill="none" stroke="#000000" d="M585.102 622.199 243.602 963.602-97.8008 622.199V222.199L243.602 80.8008 585.102 222.199Z"/>
<path transform="matrix(.1,0,0,-.1,0,792)" d="M2150.7 622.199 2292.2 280.801 2092.2 80.8008 2292.2-119.199 2150.7-460.699 2492.2-319.199 2633.6-460.699V-60.6992L2975 80.8008 2633.6 222.199V622.199L2492.2 480.801" fill="#009ecc"/>
<path transform="matrix(.1,0,0,-.1,0,792)" stroke-width="1" stroke-linecap="butt" stroke-miterlimit="10" stroke-linejoin="miter" fill="none" stroke="#000000" d="M2150.7 622.199 2292.2 280.801 2092.2 80.8008 2292.2-119.199 2150.7-460.699 2492.2-319.199 2633.6-460.699V-60.6992L2975 80.8008 2633.6 222.199V622.199L2492.2 480.801Z"/>
<path transform="matrix(.1,0,0,-.1,0,792)" d="M3316.4 622.199V222.199L2975 80.8008 3316.4-60.6992V-460.699L3457.8-319.199 3799.3-460.699 3657.8-119.199 3857.8 80.8008 3657.8 280.801 3799.3 622.199 3457.8 480.801" fill="#009ecc"/>
<path transform="matrix(.1,0,0,-.1,0,792)" stroke-width="1" stroke-linecap="butt" stroke-miterlimit="10" stroke-linejoin="miter" fill="none" stroke="#000000" d="M3316.4 622.199V222.199L2975 80.8008 3316.4-60.6992V-460.699L3457.8-319.199 3799.3-460.699 3657.8-119.199 3857.8 80.8008 3657.8 280.801 3799.3 622.199 3457.8 480.801Z"/>
<path transform="matrix(.1,0,0,-.1,0,792)" d="M4882.1 622.199 5023.5 280.801 4823.5 80.8008 5023.5-119.199 4882.1-460.699 5223.5-319.199 5364.9-460.699V-60.6992L5706.4 80.8008 5364.9 222.199V622.199L5223.5 480.801" fill="#009ecc"/>
<path transform="matrix(.1,0,0,-.1,0,792)" stroke-width="1" stroke-linecap="butt" stroke-miterlimit="10" stroke-linejoin="miter" fill="none" stroke="#000000" d="M4882.1 622.199 5023.5 280.801 4823.5 80.8008 5023.5-119.199 4882.1-460.699 5223.5-319.199 5364.9-460.699V-60.6992L5706.4 80.8008 5364.9 222.199V622.199L5223.5 480.801Z"/>
<path transform="matrix(.1,0,0,-.1,0,792)" d="M5364.9 622.199V222.199L5706.4 80.8008 6047.8 222.199V622.199L5706.4 963.602" fill="#808000"/>
<path transform="matrix(.1,0,0,-.1,0,792)" stroke-width="1" stroke-linecap="butt" stroke-miterlimit="10" stroke-linejoin="miter" fill="none" stroke="#000000" d="M5364.9 622.199V222.199L5706.4 80.8008 6047.8 222.199V622.199L5706.4 963.602Z"/>
<path transform="matrix(.1,0,0,-.1,0,792)" d="M5706.4 963.602 6047.8 622.199V1105H5847.8Z"/>
<path transform="matrix(.1,0,0,-.1,0,792)" stroke-width="1" stroke-linecap="butt" stroke-miterlimit="10" stroke-linejoin="miter" fill="none" stroke="#000000" d="M5706.4 963.602 6047.8 622.199V1105H5847.8Z"/>
<path transform="matrix(.1,0,0,-.1,0,792)" d="M5706.4 1929.3 5847.8 1787.9H6047.8V2270.7Z"/>
<path transform="matrix(.1,0,0,-.1,0,792)" stroke-width="1" stroke-linecap="butt" stroke-miterlimit="10" stroke-linejoin="miter" fill="none" stroke="#000000" d="M5706.4 1929.3 5847.8 1787.9H6047.8V2270.7Z"/>
<path transform="matrix(.1,0,0,-.1,0,792)" d="M5706.4 2812.1 6047.8 2670.7V2270.7L6189.2 2412.1 6530.6 2270.7 6389.2 2612.1 6589.2 2812.1 6389.2 3012.1 6530.6 3353.5 6189.2 3212.1 6047.8 3353.5V2953.5" fill="#009ecc"/>
<path transform="matrix(.1,0,0,-.1,0,792)" stroke-width="1" stroke-linecap="butt" stroke-miterlimit="10" stroke-linejoin="miter" fill="none" stroke="#000000" d="M5706.4 2812.1 6047.8 2670.7V2270.7L6189.2 2412.1 6530.6 2270.7 6389.2 2612.1 6589.2 2812.1 6389.2 3012.1 6530.6 3353.5 6189.2 3212.1 6047.8 3353.5V2953.5Z"/>
<path transform="matrix(.1,0,0,-.1,0,792)" d="M5706.4 3695 6047.8 3353.5V3836.4H5847.8Z"/>
<path transform="matrix(.1,0,0,-.1,0,792)" stroke-width="1" stroke-linecap="butt" stroke-miterlimit="10" stroke-linejoin="miter" fill="none" stroke="#000000" d="M5706.4 3695 6047.8 3353.5V3836.4H5847.8Z"/>
<path transform="matrix(.1,0,0,-.1,0,792)" d="M5706.4 4660.7 5847.8 4519.2H6047.8V5002.1Z"/>
<path transform="matrix(.1,0,0,-.1,0,792)" stroke-width="1" stroke-linecap="butt" stroke-miterlimit="10" stroke-linejoin="miter" fill="none" stroke="#000000" d="M5706.4 4660.7 5847.8 4519.2H6047.8V5002.1Z"/>
<path transform="matrix(.1,0,0,-.1,0,792)" d="M5706.4 5543.5 6047.8 5402.1V5002.1L6189.2 5143.5 6530.6 5002.1 6389.2 5343.5 6589.2 5543.5 6389.2 5743.5 6530.6 6084.9 6189.2 5943.5 6047.8 6084.9V5684.9" fill="#009ecc"/>
<path transform="matrix(.1,0,0,-.1,0,792)" stroke-width="1" stroke-linecap="butt" stroke-miterlimit="10" stroke-linejoin="miter" fill="none" stroke="#000000" d="M5706.4 5543.5 6047.8 5402.1V5002.1L6189.2 5143.5 6530.6 5002.1 6389.2 5343.5 6589.2 5543.5 6389.2 5743.5 6530.6 6084.9 6189.2 5943.5 6047.8 6084.9V5684.9Z"/>
<path transform="matrix(.1,0,0,-.1,0,792)" d="M5706.4 6426.3 6047.8 6084.9V6567.8H5847.8Z"/>
<path transform="matrix(.1,0,0,-.1,0,792)" stroke-width="1" stroke-linecap="butt" stroke-miterlimit="10" stroke-linejoin="miter" fill="none" stroke="#000000" d="M5706.4 6426.3 6047.8 6084.9V6567.8H5847.8Z"/>
<path transform="matrix(.1,0,0,-.1,0,792)" d="M5706.4 7392 5847.8 7250.6H6047.8V7733.4Z"/>
<path transform="matrix(.1,0,0,-.1,0,792)" stroke-width="1" stroke-linecap="butt" stroke-miterlimit="10" stroke-linejoin="miter" fill="none" stroke="#000000" d="M5706.4 7392 5847.8 7250.6H6047.8V7733.4Z"/>
<path transform="matrix(.1,0,0,-.1,0,792)" d="M243.602 7392-97.8008 7733.4V7250.6H102.199Z"/>
<path transform="matrix(.1,0,0,-.1,0,792)" stroke-width="1" stroke-linecap="butt" stroke-miterlimit="10" stroke-linejoin="miter" fill="none" stroke="#000000" d="M243.602 7392-97.8008 7733.4V7250.6H102.199Z"/>
<path transform="matrix(.1,0,0,-.1,0,792)" d="M243.602 6426.3 102.199 6567.8H-97.8008V6084.9Z"/>
<path transform="matrix(.1,0,0,-.1,0,792)" stroke-width="1" stroke-linecap="butt" stroke-miterlimit="10" stroke-linejoin="miter" fill="none" stroke="#000000" d="M243.602 6426.3 102.199 6567.8H-97.8008V6084.9Z"/>
<path transform="matrix(.1,0,0,-.1,0,792)" d="M243.602 5543.5-97.8008 5684.9V6084.9L-239.199 5943.5-580.602 6084.9-439.199 5743.5-639.199 5543.5-439.199 5343.5-580.602 5002.1-239.199 5143.5-97.8008 5002.1V5402.1" fill="#009ecc"/>
<path transform="matrix(.1,0,0,-.1,0,792)" stroke-width="1" stroke-linecap="butt" stroke-miterlimit="10" stroke-linejoin="miter" fill="none" stroke="#000000" d="M243.602 5543.5-97.8008 5684.9V6084.9L-239.199 5943.5-580.602 6084.9-439.199 5743.5-639.199 5543.5-439.199 5343.5-580.602 5002.1-239.199 5143.5-97.8008 5002.1V5402.1Z"/>
<path transform="matrix(.1,0,0,-.1,0,792)" d="M243.602 4660.7-97.8008 5002.1V4519.2H102.199Z"/>
<path transform="matrix(.1,0,0,-.1,0,792)" stroke-width="1" stroke-linecap="butt" stroke-miterlimit="10" stroke-linejoin="miter" fill="none" stroke="#000000" d="M243.602 4660.7-97.8008 5002.1V4519.2H102.199Z"/>
<path transform="matrix(.1,0,0,-.1,0,792)" d="M243.602 3695 102.199 3836.4H-97.8008V3353.5Z"/>
<path transform="matrix(.1,0,0,-.1,0,792)" stroke-width="1" stroke-linecap="butt" stroke-miterlimit="10" stroke-linejoin="miter" fill="none" stroke="#000000" d="M243.602 3695 102.199 3836.4H-97.8008V3353.5Z"/>
<path transform="matrix(.1,0,0,-.1,0,792)" d="M243.602 2812.1-97.8008 2953.5V3353.5L-239.199 3212.1-580.602 3353.5-439.199 3012.1-639.199 2812.1-439.199 2612.1-580.602 2270.7-239.199 2412.1-97.8008 2270.7V2670.7" fill="#009ecc"/>
<path transform="matrix(.1,0,0,-.1,0,792)" stroke-width="1" stroke-linecap="butt" stroke-miterlimit="10" stroke-linejoin="miter" fill="none" stroke="#000000" d="M243.602 2812.1-97.8008 2953.5V3353.5L-239.199 3212.1-580.602 3353.5-439.199 3012.1-639.199 2812.1-439.199 2612.1-580.602 2270.7-239.199 2412.1-97.8008 2270.7V2670.7Z"/>
<path transform="matrix(.1,0,0,-.1,0,792)" d="M243.602 1929.3-97.8008 2270.7V1787.9H102.199Z"/>
<path transform="matrix(.1,0,0,-.1,0,792)" stroke-width="1" stroke-linecap="butt" stroke-miterlimit="10" stroke-linejoin="miter" fill="none" stroke="#000000" d="M243.602 1929.3-97.8008 2270.7V1787.9H102.199Z"/>
<path transform="matrix(.1,0,0,-.1,0,792)" d="M243.602 963.602 102.199 1105H-97.8008V622.199Z"/>
<path transform="matrix(.1,0,0,-.1,0,792)" stroke-width="1" stroke-linecap="butt" stroke-miterlimit="10" stroke-linejoin="miter" fill="none" stroke="#000000" d="M243.602 963.602 102.199 1105H-97.8008V622.199Z"/>
<path transform="matrix(.1,0,0,-.1,0,792)" d="M5706.4 8274.9 6047.8 8133.4V7733.4L6189.2 7874.9 6530.6 7733.4 6389.2 8074.9 6589.2 8274.9 6389.2 8474.9 6530.6 8816.3 6189.2 8674.9 6047.8 8816.3V8416.3" fill="#009ecc"/>
<path transform="matrix(.1,0,0,-.1,0,792)" stroke-width="1" stroke-linecap="butt" stroke-miterlimit="10" stroke-linejoin="miter" fill="none" stroke="#000000" d="M5706.4 8274.9 6047.8 8133.4V7733.4L6189.2 7874.9 6530.6 7733.4 6389.2 8074.9 6589.2 8274.9 6389.2 8474.9 6530.6 8816.3 6189.2 8674.9 6047.8 8816.3V8416.3Z"/>
<path transform="matrix(.1,0,0,-.1,0,792)" d="M243.602 8274.9-97.8008 8416.3V8816.3L-239.199 8674.9-580.602 8816.3-439.199 8474.9-639.199 8274.9-439.199 8074.9-580.602 7733.4-239.199 7874.9-97.8008 7733.4V8133.4" fill="#009ecc"/>
<path transform="matrix(.1,0,0,-.1,0,792)" stroke-width="1" stroke-linecap="butt" stroke-miterlimit="10" stroke-linejoin="miter" fill="none" stroke="#000000" d="M243.602 8274.9-97.8008 8416.3V8816.3L-239.199 8674.9-580.602 8816.3-439.199 8474.9-639.199 8274.9-439.199 8074.9-580.602 7733.4-239.199 7874.9-97.8008 7733.4V8133.4Z"/>
<path transform="matrix(.1,0,0,-.1,0,792)" d="M243.602 80.8008-97.8008-60.6992V-460.699L243.602-802.102 585.102-460.699V-60.6992" fill="#808000"/>
<path transform="matrix(.1,0,0,-.1,0,792)" stroke-width="1" stroke-linecap="butt" stroke-miterlimit="10" stroke-linejoin="miter" fill="none" stroke="#000000" d="M243.602 80.8008-97.8008-60.6992V-460.699L243.602-802.102 585.102-460.699V-60.6992Z"/>
<path transform="matrix(.1,0,0,-.1,0,792)" d="M243.602 80.8008-97.8008 222.199V622.199L-239.199 480.801-580.602 622.199-439.199 280.801-639.199 80.8008-439.199-119.199-580.602-460.699-239.199-319.199-97.8008-460.699V-60.6992" fill="#009ecc"/>
<path transform="matrix(.1,0,0,-.1,0,792)" stroke-width="1" stroke-linecap="butt" stroke-miterlimit="10" stroke-linejoin="miter" fill="none" stroke="#000000" d="M243.602 80.8008-97.8008 222.199V622.199L-239.199 480.801-580.602 622.199-439.199 280.801-639.199 80.8008-439.199-119.199-580.602-460.699-239.199-319.199-97.8008-460.699V-60.6992Z"/>
<path transform="matrix(.1,0,0,-.1,0,792)" d="M2975 80.8008 2633.6-60.6992V-460.699L2975-802.102 3316.4-460.699V-60.6992" fill="#808000"/>
<path transform="matrix(.1,0,0,-.1,0,792)" stroke-width="1" stroke-linecap="butt" stroke-miterlimit="10" stroke-linejoin="miter" fill="none" stroke="#000000" d="M2975 80.8008 2633.6-60.6992V-460.699L2975-802.102 3316.4-460.699V-60.6992Z"/>
<path transform="matrix(.1,0,0,-.1,0,792)" d="M5706.4 80.8008 6047.8-60.6992V-460.699L6189.2-319.199 6530.6-460.699 6389.2-119.199 6589.2 80.8008 6389.2 280.801 6530.6 622.199 6189.2 480.801 6047.8 622.199V222.199" fill="#009ecc"/>
<path transform="matrix(.1,0,0,-.1,0,792)" stroke-width="1" stroke-linecap="butt" stroke-miterlimit="10" stroke-linejoin="miter" fill="none" stroke="#000000" d="M5706.4 80.8008 6047.8-60.6992V-460.699L6189.2-319.199 6530.6-460.699 6389.2-119.199 6589.2 80.8008 6389.2 280.801 6530.6 622.199 6189.2 480.801 6047.8 622.199V222.199Z"/>
<path transform="matrix(.1,0,0,-.1,0,792)" d="M5706.4 80.8008 5364.9-60.6992V-460.699L5706.4-802.102 6047.8-460.699V-60.6992" fill="#808000"/>
<path transform="matrix(.1,0,0,-.1,0,792)" stroke-width="1" stroke-linecap="butt" stroke-miterlimit="10" stroke-linejoin="miter" fill="none" stroke="#000000" d="M5706.4 80.8008 5364.9-60.6992V-460.699L5706.4-802.102 6047.8-460.699V-60.6992Z"/>
<path transform="matrix(.1,0,0,-.1,0,792)" d="M6047.8 622.199 6189.2 480.801 6530.6 622.199 6672.1 963.602 6530.6 1105H6047.8" fill="#808000"/>
<path transform="matrix(.1,0,0,-.1,0,792)" stroke-width="1" stroke-linecap="butt" stroke-miterlimit="10" stroke-linejoin="miter" fill="none" stroke="#000000" d="M6047.8 622.199 6189.2 480.801 6530.6 622.199 6672.1 963.602 6530.6 1105H6047.8Z"/>
<path transform="matrix(.1,0,0,-.1,0,792)" d="M6047.8 1105H6530.6L6189.2 1446.4 6047.8 1305Z"/>
<path transform="matrix(.1,0,0,-.1,0,792)" stroke-width="1" stroke-linecap="butt" stroke-miterlimit="10" stroke-linejoin="miter" fill="none" stroke="#000000" d="M6047.8 1105H6530.6L6189.2 1446.4 6047.8 1305Z"/>
<path transform="matrix(.1,0,0,-.1,0,792)" d="M6047.8 1587.9 6189.2 1446.4 6530.6 1787.9H6047.8Z"/>
<path transform="matrix(.1,0,0,-.1,0,792)" stroke-width="1" stroke-linecap="butt" stroke-miterlimit="10" stroke-linejoin="miter" fill="none" stroke="#000000" d="M6047.8 1587.9 6189.2 1446.4 6530.6 1787.9H6047.8Z"/>
<path transform="matrix(.1,0,0,-.1,0,792)" d="M6047.8 1787.9H6530.6L6672.1 1929.3 6530.6 2270.7 6189.2 2412.1 6047.8 2270.7" fill="#808000"/>
<path transform="matrix(.1,0,0,-.1,0,792)" stroke-width="1" stroke-linecap="butt" stroke-miterlimit="10" stroke-linejoin="miter" fill="none" stroke="#000000" d="M6047.8 1787.9H6530.6L6672.1 1929.3 6530.6 2270.7 6189.2 2412.1 6047.8 2270.7Z"/>
<path transform="matrix(.1,0,0,-.1,0,792)" d="M6047.8 3353.5 6189.2 3212.1 6530.6 3353.5 6672.1 3695 6530.6 3836.4H6047.8" fill="#808000"/>
<path transform="matrix(.1,0,0,-.1,0,792)" stroke-width="1" stroke-linecap="butt" stroke-miterlimit="10" stroke-linejoin="miter" fill="none" stroke="#000000" d="M6047.8 3353.5 6189.2 3212.1 6530.6 3353.5 6672.1 3695 6530.6 3836.4H6047.8Z"/>
<path transform="matrix(.1,0,0,-.1,0,792)" d="M6047.8 3836.4H6530.6L6189.2 4177.8 6047.8 4036.4Z"/>
<path transform="matrix(.1,0,0,-.1,0,792)" stroke-width="1" stroke-linecap="butt" stroke-miterlimit="10" stroke-linejoin="miter" fill="none" stroke="#000000" d="M6047.8 3836.4H6530.6L6189.2 4177.8 6047.8 4036.4Z"/>
<path transform="matrix(.1,0,0,-.1,0,792)" d="M6047.8 4319.2 6189.2 4177.8 6530.6 4519.2H6047.8Z"/>
<path transform="matrix(.1,0,0,-.1,0,792)" stroke-width="1" stroke-linecap="butt" stroke-miterlimit="10" stroke-linejoin="miter" fill="none" stroke="#000000" d="M6047.8 4319.2 6189.2 4177.8 6530.6 4519.2H6047.8Z"/>
<path transform="matrix(.1,0,0,-.1,0,792)" d="M6047.8 4519.2H6530.6L6672.1 4660.7 6530.6 5002.1 6189.2 5143.5 6047.8 5002.1" fill="#808000"/>
<path transform="matrix(.1,0,0,-.1,0,792)" stroke-width="1" stroke-linecap="butt" stroke-miterlimit="10" stroke-linejoin="miter" fill="none" stroke="#000000" d="M6047.8 4519.2H6530.6L6672.1 4660.7 6530.6 5002.1 6189.2 5143.5 6047.8 5002.1Z"/>
<path transform="matrix(.1,0,0,-.1,0,792)" d="M6047.8 6084.9 6189.2 5943.5 6530.6 6084.9 6672.1 6426.3 6530.6 6567.8H6047.8" fill="#808000"/>
<path transform="matrix(.1,0,0,-.1,0,792)" stroke-width="1" stroke-linecap="butt" stroke-miterlimit="10" stroke-linejoin="miter" fill="none" stroke="#000000" d="M6047.8 6084.9 6189.2 5943.5 6530.6 6084.9 6672.1 6426.3 6530.6 6567.8H6047.8Z"/>
<path transform="matrix(.1,0,0,-.1,0,792)" d="M6047.8 6567.8H6530.6L6189.2 6909.2 6047.8 6767.8Z"/>
<path transform="matrix(.1,0,0,-.1,0,792)" stroke-width="1" stroke-linecap="butt" stroke-miterlimit="10" stroke-linejoin="miter" fill="none" stroke="#000000" d="M6047.8 6567.8H6530.6L6189.2 6909.2 6047.8 6767.8Z"/>
<path transform="matrix(.1,0,0,-.1,0,792)" d="M6047.8 7050.6 6189.2 6909.2 6530.6 7250.6H6047.8Z"/>
<path transform="matrix(.1,0,0,-.1,0,792)" stroke-width="1" stroke-linecap="butt" stroke-miterlimit="10" stroke-linejoin="miter" fill="none" stroke="#000000" d="M6047.8 7050.6 6189.2 6909.2 6530.6 7250.6H6047.8Z"/>
<path transform="matrix(.1,0,0,-.1,0,792)" d="M6047.8 7250.6H6530.6L6672.1 7392 6530.6 7733.4 6189.2 7874.9 6047.8 7733.4" fill="#808000"/>
<path transform="matrix(.1,0,0,-.1,0,792)" stroke-width="1" stroke-linecap="butt" stroke-miterlimit="10" stroke-linejoin="miter" fill="none" stroke="#000000" d="M6047.8 7250.6H6530.6L6672.1 7392 6530.6 7733.4 6189.2 7874.9 6047.8 7733.4Z"/>
</svg>
