<svg xmlns="http://www.w3.org/2000/svg" xmlns:xlink="http://www.w3.org/1999/xlink" xmlns:inkscape="http://www.inkscape.org/namespaces/inkscape" version="1.1" width="612" height="792" viewBox="0 0 612 792">
<path transform="matrix(.1,0,0,-.1,0,792)" d="M2975 3683.1 3151.8 3859.9 3393.3 3924.6 3328.6 4166.1 3393.3 4407.6 3151.8 4472.3 2975 4649.1 2798.2 4472.3 2556.7 4407.6 2621.4 4166.1 2556.7 3924.6 2798.2 3859.9" fill="#ffcc66"/>
<path transform="matrix(.1,0,0,-.1,0,792)" stroke-width="80" stroke-linecap="butt" stroke-linejoin="bevel" fill="none" stroke="#000000" d="M2975 3683.1 3151.8 3859.9 3393.3 3924.6 3328.6 4166.1 3393.3 4407.6 3151.8 4472.3 2975 4649.1 2798.2 4472.3 2556.7 4407.6 2621.4 4166.1 2556.7 3924.6 2798.2 3859.9Z"/>
<path transform="matrix(.1,0,0,-.1,0,792)" d="M3151.8 4472.3 3393.3 4407.6 3634.7 5308.8 2975 4649.1Z" fill="#ffcc66"/>
<path transform="matrix(.1,0,0,-.1,0,792)" stroke-width="80" stroke-linecap="butt" stroke-linejoin="bevel" fill="none" stroke="#000000" d="M3151.8 4472.3 3393.3 4407.6 3634.7 5308.8 2975 4649.1Z"/>
<path transform="matrix(.1,0,0,-.1,0,792)" d="M2798.2 4472.3 2975 4649.1 2315.3 5308.8 2556.7 4407.6Z" fill="#ffcc66"/>
<path transform="matrix(.1,0,0,-.1,0,792)" stroke-width="80" stroke-linecap="butt" stroke-linejoin="bevel" fill="none" stroke="#000000" d="M2798.2 4472.3 2975 4649.1 2315.3 5308.8 2556.7 4407.6Z"/>
<path transform="matrix(.1,0,0,-.1,0,792)" d="M2798.2 3859.9 2556.7 3924.6 2315.3 3023.4 2975 3683.1Z" fill="#ffcc66"/>
<path transform="matrix(.1,0,0,-.1,0,792)" stroke-width="80" stroke-linecap="butt" stroke-linejoin="bevel" fill="none" stroke="#000000" d="M2798.2 3859.9 2556.7 3924.6 2315.3 3023.4 2975 3683.1Z"/>
<path transform="matrix(.1,0,0,-.1,0,792)" d="M3151.8 3859.9 2975 3683.1 3634.7 3023.4 3393.3 3924.6Z" fill="#ffcc66"/>
<path transform="matrix(.1,0,0,-.1,0,792)" stroke-width="80" stroke-linecap="butt" stroke-linejoin="bevel" fill="none" stroke="#000000" d="M3151.8 3859.9 2975 3683.1 3634.7 3023.4 3393.3 3924.6Z"/>
<path transform="matrix(.1,0,0,-.1,0,792)" d="M2975 4649.1 3634.7 5308.8 2975 5968.5 2315.3 5308.8Z" fill="#ffcc66"/>
<path transform="matrix(.1,0,0,-.1,0,792)" stroke-width="80" stroke-linecap="butt" stroke-linejoin="bevel" fill="none" stroke="#000000" d="M2975 4649.1 3634.7 5308.8 2975 5968.5 2315.3 5308.8Z"/>
<path transform="matrix(.1,0,0,-.1,0,792)" d="M2621.4 4166.1 2556.7 4407.6 1655.5 4166.1 2556.7 3924.6Z" fill="#ffcc66"/>
<path transform="matrix(.1,0,0,-.1,0,792)" stroke-width="80" stroke-linecap="butt" stroke-linejoin="bevel" fill="none" stroke="#000000" d="M2621.4 4166.1 2556.7 4407.6 1655.5 4166.1 2556.7 3924.6Z"/>
<path transform="matrix(.1,0,0,-.1,0,792)" d="M3328.6 4166.1 3393.3 3924.6 4294.5 4166.1 3393.3 4407.6Z" fill="#ffcc66"/>
<path transform="matrix(.1,0,0,-.1,0,792)" stroke-width="80" stroke-linecap="butt" stroke-linejoin="bevel" fill="none" stroke="#000000" d="M3328.6 4166.1 3393.3 3924.6 4294.5 4166.1 3393.3 4407.6Z"/>
<path transform="matrix(.1,0,0,-.1,0,792)" d="M2975 3683.1 2315.3 3023.4 2975 2363.7 3634.7 3023.4Z" fill="#ffcc66"/>
<path transform="matrix(.1,0,0,-.1,0,792)" stroke-width="80" stroke-linecap="butt" stroke-linejoin="bevel" fill="none" stroke="#000000" d="M2975 3683.1 2315.3 3023.4 2975 2363.7 3634.7 3023.4Z"/>
<path transform="matrix(.1,0,0,-.1,0,792)" d="M2556.7 3924.6 1655.5 4166.1 1414 3264.9 2315.3 3023.4Z" fill="#ffcc66"/>
<path transform="matrix(.1,0,0,-.1,0,792)" stroke-width="80" stroke-linecap="butt" stroke-linejoin="bevel" fill="none" stroke="#000000" d="M2556.7 3924.6 1655.5 4166.1 1414 3264.9 2315.3 3023.4Z"/>
<path transform="matrix(.1,0,0,-.1,0,792)" d="M2556.7 4407.6 2315.3 5308.8 1414 5067.3 1655.5 4166.1Z" fill="#ffcc66"/>
<path transform="matrix(.1,0,0,-.1,0,792)" stroke-width="80" stroke-linecap="butt" stroke-linejoin="bevel" fill="none" stroke="#000000" d="M2556.7 4407.6 2315.3 5308.8 1414 5067.3 1655.5 4166.1Z"/>
<path transform="matrix(.1,0,0,-.1,0,792)" d="M3393.3 3924.6 3634.7 3023.4 4536 3264.9 4294.5 4166.1Z" fill="#ffcc66"/>
<path transform="matrix(.1,0,0,-.1,0,792)" stroke-width="80" stroke-linecap="butt" stroke-linejoin="bevel" fill="none" stroke="#000000" d="M3393.3 3924.6 3634.7 3023.4 4536 3264.9 4294.5 4166.1Z"/>
<path transform="matrix(.1,0,0,-.1,0,792)" d="M3393.3 4407.6 4294.5 4166.1 4536 5067.3 3634.7 5308.8Z" fill="#ffcc66"/>
<path transform="matrix(.1,0,0,-.1,0,792)" stroke-width="80" stroke-linecap="butt" stroke-linejoin="bevel" fill="none" stroke="#000000" d="M3393.3 4407.6 4294.5 4166.1 4536 5067.3 3634.7 5308.8Z"/>
<path transform="matrix(.1,0,0,-.1,0,792)" d="M3634.7 5308.8 4536 5067.3 3876.2 5727.1 2975 5968.5Z" fill="#ffcc66"/>
<path transform="matrix(.1,0,0,-.1,0,792)" stroke-width="80" stroke-linecap="butt" stroke-linejoin="bevel" fill="none" stroke="#000000" d="M3634.7 5308.8 4536 5067.3 3876.2 5727.1 2975 5968.5Z"/>
<path transform="matrix(.1,0,0,-.1,0,792)" d="M2315.3 5308.8 2975 5968.5 2073.8 5727.1 1414 5067.3Z" fill="#ffcc66"/>
<path transform="matrix(.1,0,0,-.1,0,792)" stroke-width="80" stroke-linecap="butt" stroke-linejoin="bevel" fill="none" stroke="#000000" d="M2315.3 5308.8 2975 5968.5 2073.8 5727.1 1414 5067.3Z"/>
<path transform="matrix(.1,0,0,-.1,0,792)" d="M2315.3 3023.4 1414 3264.9 2073.8 2605.1 2975 2363.7Z" fill="#ffcc66"/>
<path transform="matrix(.1,0,0,-.1,0,792)" stroke-width="80" stroke-linecap="butt" stroke-linejoin="bevel" fill="none" stroke="#000000" d="M2315.3 3023.4 1414 3264.9 2073.8 2605.1 2975 2363.7Z"/>
<path transform="matrix(.1,0,0,-.1,0,792)" d="M3634.7 3023.4 2975 2363.7 3876.2 2605.1 4536 3264.9Z" fill="#ffcc66"/>
<path transform="matrix(.1,0,0,-.1,0,792)" stroke-width="80" stroke-linecap="butt" stroke-linejoin="bevel" fill="none" stroke="#000000" d="M3634.7 3023.4 2975 2363.7 3876.2 2605.1 4536 3264.9Z"/>
<path transform="matrix(.1,0,0,-.1,0,792)" d="M3876.2 5727.1 4117.7 6628.3 3216.5 6869.8 2975 5968.5Z" fill="#ffcc66"/>
<path transform="matrix(.1,0,0,-.1,0,792)" stroke-width="80" stroke-linecap="butt" stroke-linejoin="bevel" fill="none" stroke="#000000" d="M3876.2 5727.1 4117.7 6628.3 3216.5 6869.8 2975 5968.5Z"/>
<path transform="matrix(.1,0,0,-.1,0,792)" d="M3876.2 5727.1 4536 6386.8 4359.2 6563.6 4117.7 6628.3Z" fill="#ffcc66"/>
<path transform="matrix(.1,0,0,-.1,0,792)" stroke-width="80" stroke-linecap="butt" stroke-linejoin="bevel" fill="none" stroke="#000000" d="M3876.2 5727.1 4536 6386.8 4359.2 6563.6 4117.7 6628.3Z"/>
<path transform="matrix(.1,0,0,-.1,0,792)" d="M3876.2 5727.1 4536 5067.3 5195.7 5727.1 4536 6386.8Z" fill="#ffcc66"/>
<path transform="matrix(.1,0,0,-.1,0,792)" stroke-width="80" stroke-linecap="butt" stroke-linejoin="bevel" fill="none" stroke="#000000" d="M3876.2 5727.1 4536 5067.3 5195.7 5727.1 4536 6386.8Z"/>
<path transform="matrix(.1,0,0,-.1,0,792)" d="M2073.8 5727.1 1414 6386.8 754.301 5727.1 1414 5067.3Z" fill="#ffcc66"/>
<path transform="matrix(.1,0,0,-.1,0,792)" stroke-width="80" stroke-linecap="butt" stroke-linejoin="bevel" fill="none" stroke="#000000" d="M2073.8 5727.1 1414 6386.8 754.301 5727.1 1414 5067.3Z"/>
<path transform="matrix(.1,0,0,-.1,0,792)" d="M2073.8 5727.1 1832.3 6628.3 1590.8 6563.6 1414 6386.8Z" fill="#ffcc66"/>
<path transform="matrix(.1,0,0,-.1,0,792)" stroke-width="80" stroke-linecap="butt" stroke-linejoin="bevel" fill="none" stroke="#000000" d="M2073.8 5727.1 1832.3 6628.3 1590.8 6563.6 1414 6386.8Z"/>
<path transform="matrix(.1,0,0,-.1,0,792)" d="M2073.8 5727.1 2975 5968.5 2733.5 6869.8 1832.3 6628.3Z" fill="#ffcc66"/>
<path transform="matrix(.1,0,0,-.1,0,792)" stroke-width="80" stroke-linecap="butt" stroke-linejoin="bevel" fill="none" stroke="#000000" d="M2073.8 5727.1 2975 5968.5 2733.5 6869.8 1832.3 6628.3Z"/>
<path transform="matrix(.1,0,0,-.1,0,792)" d="M2073.8 2605.1 1832.3 1703.9 2733.5 1462.4 2975 2363.7Z" fill="#ffcc66"/>
<path transform="matrix(.1,0,0,-.1,0,792)" stroke-width="80" stroke-linecap="butt" stroke-linejoin="bevel" fill="none" stroke="#000000" d="M2073.8 2605.1 1832.3 1703.9 2733.5 1462.4 2975 2363.7Z"/>
<path transform="matrix(.1,0,0,-.1,0,792)" d="M2073.8 2605.1 1414 1945.4 1590.8 1768.6 1832.3 1703.9Z" fill="#ffcc66"/>
<path transform="matrix(.1,0,0,-.1,0,792)" stroke-width="80" stroke-linecap="butt" stroke-linejoin="bevel" fill="none" stroke="#000000" d="M2073.8 2605.1 1414 1945.4 1590.8 1768.6 1832.3 1703.9Z"/>
<path transform="matrix(.1,0,0,-.1,0,792)" d="M2073.8 2605.1 1414 3264.9 754.301 2605.1 1414 1945.4Z" fill="#ffcc66"/>
<path transform="matrix(.1,0,0,-.1,0,792)" stroke-width="80" stroke-linecap="butt" stroke-linejoin="bevel" fill="none" stroke="#000000" d="M2073.8 2605.1 1414 3264.9 754.301 2605.1 1414 1945.4Z"/>
<path transform="matrix(.1,0,0,-.1,0,792)" d="M3876.2 2605.1 4536 1945.4 5195.7 2605.1 4536 3264.9Z" fill="#ffcc66"/>
<path transform="matrix(.1,0,0,-.1,0,792)" stroke-width="80" stroke-linecap="butt" stroke-linejoin="bevel" fill="none" stroke="#000000" d="M3876.2 2605.1 4536 1945.4 5195.7 2605.1 4536 3264.9Z"/>
<path transform="matrix(.1,0,0,-.1,0,792)" d="M3876.2 2605.1 4117.7 1703.9 4359.2 1768.6 4536 1945.4Z" fill="#ffcc66"/>
<path transform="matrix(.1,0,0,-.1,0,792)" stroke-width="80" stroke-linecap="butt" stroke-linejoin="bevel" fill="none" stroke="#000000" d="M3876.2 2605.1 4117.7 1703.9 4359.2 1768.6 4536 1945.4Z"/>
<path transform="matrix(.1,0,0,-.1,0,792)" d="M3876.2 2605.1 2975 2363.7 3216.5 1462.4 4117.7 1703.9Z" fill="#ffcc66"/>
<path transform="matrix(.1,0,0,-.1,0,792)" stroke-width="80" stroke-linecap="butt" stroke-linejoin="bevel" fill="none" stroke="#000000" d="M3876.2 2605.1 2975 2363.7 3216.5 1462.4 4117.7 1703.9Z"/>
<path transform="matrix(.1,0,0,-.1,0,792)" d="M2975 5968.5 3216.5 6869.8 2975 7771 2733.5 6869.8Z" fill="#ffcc66"/>
<path transform="matrix(.1,0,0,-.1,0,792)" stroke-width="80" stroke-linecap="butt" stroke-linejoin="bevel" fill="none" stroke="#000000" d="M2975 5968.5 3216.5 6869.8 2975 7771 2733.5 6869.8Z"/>
<path transform="matrix(.1,0,0,-.1,0,792)" d="M1655.5 4166.1 1414 5067.3 1172.6 4166.1 1414 3264.9Z" fill="#ffcc66"/>
<path transform="matrix(.1,0,0,-.1,0,792)" stroke-width="80" stroke-linecap="butt" stroke-linejoin="bevel" fill="none" stroke="#000000" d="M1655.5 4166.1 1414 5067.3 1172.6 4166.1 1414 3264.9Z"/>
<path transform="matrix(.1,0,0,-.1,0,792)" d="M4294.5 4166.1 4536 3264.9 4777.4 4166.1 4536 5067.3Z" fill="#ffcc66"/>
<path transform="matrix(.1,0,0,-.1,0,792)" stroke-width="80" stroke-linecap="butt" stroke-linejoin="bevel" fill="none" stroke="#000000" d="M4294.5 4166.1 4536 3264.9 4777.4 4166.1 4536 5067.3Z"/>
<path transform="matrix(.1,0,0,-.1,0,792)" d="M2975 2363.7 2733.5 1462.4 2975 561.199 3216.5 1462.4Z" fill="#ffcc66"/>
<path transform="matrix(.1,0,0,-.1,0,792)" stroke-width="80" stroke-linecap="butt" stroke-linejoin="bevel" fill="none" stroke="#000000" d="M2975 2363.7 2733.5 1462.4 2975 561.199 3216.5 1462.4Z"/>
<path transform="matrix(.1,0,0,-.1,0,792)" d="M4536 3264.9 5437.2 3023.4 5678.7 3924.6 4777.4 4166.1Z" fill="#ffcc66"/>
<path transform="matrix(.1,0,0,-.1,0,792)" stroke-width="80" stroke-linecap="butt" stroke-linejoin="bevel" fill="none" stroke="#000000" d="M4536 3264.9 5437.2 3023.4 5678.7 3924.6 4777.4 4166.1Z"/>
<path transform="matrix(.1,0,0,-.1,0,792)" d="M4536 3264.9 5195.7 2605.1 6096.9 2363.7 5437.2 3023.4Z" fill="#ffcc66"/>
<path transform="matrix(.1,0,0,-.1,0,792)" stroke-width="80" stroke-linecap="butt" stroke-linejoin="bevel" fill="none" stroke="#000000" d="M4536 3264.9 5195.7 2605.1 6096.9 2363.7 5437.2 3023.4Z"/>
<path transform="matrix(.1,0,0,-.1,0,792)" d="M4536 5067.3 5437.2 5308.8 6096.9 5968.5 5195.7 5727.1Z" fill="#ffcc66"/>
<path transform="matrix(.1,0,0,-.1,0,792)" stroke-width="80" stroke-linecap="butt" stroke-linejoin="bevel" fill="none" stroke="#000000" d="M4536 5067.3 5437.2 5308.8 6096.9 5968.5 5195.7 5727.1Z"/>
<path transform="matrix(.1,0,0,-.1,0,792)" d="M4536 5067.3 4777.4 4166.1 5678.7 4407.6 5437.2 5308.8Z" fill="#ffcc66"/>
<path transform="matrix(.1,0,0,-.1,0,792)" stroke-width="80" stroke-linecap="butt" stroke-linejoin="bevel" fill="none" stroke="#000000" d="M4536 5067.3 4777.4 4166.1 5678.7 4407.6 5437.2 5308.8Z"/>
<path transform="matrix(.1,0,0,-.1,0,792)" d="M1414 5067.3 512.801 5308.8 271.301 4407.6 1172.6 4166.1Z" fill="#ffcc66"/>
<path transform="matrix(.1,0,0,-.1,0,792)" stroke-width="80" stroke-linecap="butt" stroke-linejoin="bevel" fill="none" stroke="#000000" d="M1414 5067.3 512.801 5308.8 271.301 4407.6 1172.6 4166.1Z"/>
<path transform="matrix(.1,0,0,-.1,0,792)" d="M1414 5067.3 754.301 5727.1-146.898 5968.5 512.801 5308.8Z" fill="#ffcc66"/>
<path transform="matrix(.1,0,0,-.1,0,792)" stroke-width="80" stroke-linecap="butt" stroke-linejoin="bevel" fill="none" stroke="#000000" d="M1414 5067.3 754.301 5727.1-146.898 5968.5 512.801 5308.8Z"/>
<path transform="matrix(.1,0,0,-.1,0,792)" d="M1414 3264.9 512.801 3023.4-146.898 2363.7 754.301 2605.1Z" fill="#ffcc66"/>
<path transform="matrix(.1,0,0,-.1,0,792)" stroke-width="80" stroke-linecap="butt" stroke-linejoin="bevel" fill="none" stroke="#000000" d="M1414 3264.9 512.801 3023.4-146.898 2363.7 754.301 2605.1Z"/>
<path transform="matrix(.1,0,0,-.1,0,792)" d="M1414 3264.9 1172.6 4166.1 271.301 3924.6 512.801 3023.4Z" fill="#ffcc66"/>
<path transform="matrix(.1,0,0,-.1,0,792)" stroke-width="80" stroke-linecap="butt" stroke-linejoin="bevel" fill="none" stroke="#000000" d="M1414 3264.9 1172.6 4166.1 271.301 3924.6 512.801 3023.4Z"/>
<path transform="matrix(.1,0,0,-.1,0,792)" d="M4536 6386.8 4712.7 6563.6 4954.2 6628.3 4889.5 6869.8 4954.2 7111.2 4712.7 7175.9 4536 7352.7 4359.2 7175.9 4117.7 7111.2 4182.4 6869.8 4117.7 6628.3 4359.2 6563.6" fill="#ffcc66"/>
<path transform="matrix(.1,0,0,-.1,0,792)" stroke-width="80" stroke-linecap="butt" stroke-linejoin="bevel" fill="none" stroke="#000000" d="M4536 6386.8 4712.7 6563.6 4954.2 6628.3 4889.5 6869.8 4954.2 7111.2 4712.7 7175.9 4536 7352.7 4359.2 7175.9 4117.7 7111.2 4182.4 6869.8 4117.7 6628.3 4359.2 6563.6Z"/>
<path transform="matrix(.1,0,0,-.1,0,792)" d="M4536 6386.8 5195.7 5727.1 4954.2 6628.3 4712.7 6563.6Z" fill="#ffcc66"/>
<path transform="matrix(.1,0,0,-.1,0,792)" stroke-width="80" stroke-linecap="butt" stroke-linejoin="bevel" fill="none" stroke="#000000" d="M4536 6386.8 5195.7 5727.1 4954.2 6628.3 4712.7 6563.6Z"/>
<path transform="matrix(.1,0,0,-.1,0,792)" d="M1414 6386.8 1237.3 6563.6 995.801 6628.3 754.301 5727.1Z" fill="#ffcc66"/>
<path transform="matrix(.1,0,0,-.1,0,792)" stroke-width="80" stroke-linecap="butt" stroke-linejoin="bevel" fill="none" stroke="#000000" d="M1414 6386.8 1237.3 6563.6 995.801 6628.3 754.301 5727.1Z"/>
<path transform="matrix(.1,0,0,-.1,0,792)" d="M1414 6386.8 1590.8 6563.6 1832.3 6628.3 1767.6 6869.8 1832.3 7111.2 1590.8 7175.9 1414 7352.7 1237.3 7175.9 995.801 7111.2 1060.5 6869.8 995.801 6628.3 1237.3 6563.6" fill="#ffcc66"/>
<path transform="matrix(.1,0,0,-.1,0,792)" stroke-width="80" stroke-linecap="butt" stroke-linejoin="bevel" fill="none" stroke="#000000" d="M1414 6386.8 1590.8 6563.6 1832.3 6628.3 1767.6 6869.8 1832.3 7111.2 1590.8 7175.9 1414 7352.7 1237.3 7175.9 995.801 7111.2 1060.5 6869.8 995.801 6628.3 1237.3 6563.6Z"/>
<path transform="matrix(.1,0,0,-.1,0,792)" d="M1414 1945.4 1237.3 1768.6 995.801 1703.9 1060.5 1462.4 995.801 1220.9 1237.3 1156.2 1414 979.5 1590.8 1156.2 1832.3 1220.9 1767.6 1462.4 1832.3 1703.9 1590.8 1768.6" fill="#ffcc66"/>
<path transform="matrix(.1,0,0,-.1,0,792)" stroke-width="80" stroke-linecap="butt" stroke-linejoin="bevel" fill="none" stroke="#000000" d="M1414 1945.4 1237.3 1768.6 995.801 1703.9 1060.5 1462.4 995.801 1220.9 1237.3 1156.2 1414 979.5 1590.8 1156.2 1832.3 1220.9 1767.6 1462.4 1832.3 1703.9 1590.8 1768.6Z"/>
<path transform="matrix(.1,0,0,-.1,0,792)" d="M1414 1945.4 754.301 2605.1 995.801 1703.9 1237.3 1768.6Z" fill="#ffcc66"/>
<path transform="matrix(.1,0,0,-.1,0,792)" stroke-width="80" stroke-linecap="butt" stroke-linejoin="bevel" fill="none" stroke="#000000" d="M1414 1945.4 754.301 2605.1 995.801 1703.9 1237.3 1768.6Z"/>
<path transform="matrix(.1,0,0,-.1,0,792)" d="M4536 1945.4 4712.7 1768.6 4954.2 1703.9 5195.7 2605.1Z" fill="#ffcc66"/>
<path transform="matrix(.1,0,0,-.1,0,792)" stroke-width="80" stroke-linecap="butt" stroke-linejoin="bevel" fill="none" stroke="#000000" d="M4536 1945.4 4712.7 1768.6 4954.2 1703.9 5195.7 2605.1Z"/>
<path transform="matrix(.1,0,0,-.1,0,792)" d="M4536 1945.4 4359.2 1768.6 4117.7 1703.9 4182.4 1462.4 4117.7 1220.9 4359.2 1156.2 4536 979.5 4712.7 1156.2 4954.2 1220.9 4889.5 1462.4 4954.2 1703.9 4712.7 1768.6" fill="#ffcc66"/>
<path transform="matrix(.1,0,0,-.1,0,792)" stroke-width="80" stroke-linecap="butt" stroke-linejoin="bevel" fill="none" stroke="#000000" d="M4536 1945.4 4359.2 1768.6 4117.7 1703.9 4182.4 1462.4 4117.7 1220.9 4359.2 1156.2 4536 979.5 4712.7 1156.2 4954.2 1220.9 4889.5 1462.4 4954.2 1703.9 4712.7 1768.6Z"/>
<path transform="matrix(.1,0,0,-.1,0,792)" d="M4117.7 6628.3 4182.4 6869.8 4117.7 7111.2 3216.5 6869.8Z" fill="#ffcc66"/>
<path transform="matrix(.1,0,0,-.1,0,792)" stroke-width="80" stroke-linecap="butt" stroke-linejoin="bevel" fill="none" stroke="#000000" d="M4117.7 6628.3 4182.4 6869.8 4117.7 7111.2 3216.5 6869.8Z"/>
<path transform="matrix(.1,0,0,-.1,0,792)" d="M1832.3 6628.3 2733.5 6869.8 1832.3 7111.2 1767.6 6869.8Z" fill="#ffcc66"/>
<path transform="matrix(.1,0,0,-.1,0,792)" stroke-width="80" stroke-linecap="butt" stroke-linejoin="bevel" fill="none" stroke="#000000" d="M1832.3 6628.3 2733.5 6869.8 1832.3 7111.2 1767.6 6869.8Z"/>
<path transform="matrix(.1,0,0,-.1,0,792)" d="M1172.6 4166.1 271.301 4407.6 206.602 4166.1 271.301 3924.6Z" fill="#ffcc66"/>
<path transform="matrix(.1,0,0,-.1,0,792)" stroke-width="80" stroke-linecap="butt" stroke-linejoin="bevel" fill="none" stroke="#000000" d="M1172.6 4166.1 271.301 4407.6 206.602 4166.1 271.301 3924.6Z"/>
<path transform="matrix(.1,0,0,-.1,0,792)" d="M4777.4 4166.1 5678.7 3924.6 5743.4 4166.1 5678.7 4407.6Z" fill="#ffcc66"/>
<path transform="matrix(.1,0,0,-.1,0,792)" stroke-width="80" stroke-linecap="butt" stroke-linejoin="bevel" fill="none" stroke="#000000" d="M4777.4 4166.1 5678.7 3924.6 5743.4 4166.1 5678.7 4407.6Z"/>
<path transform="matrix(.1,0,0,-.1,0,792)" d="M1832.3 1703.9 1767.6 1462.4 1832.3 1220.9 2733.5 1462.4Z" fill="#ffcc66"/>
<path transform="matrix(.1,0,0,-.1,0,792)" stroke-width="80" stroke-linecap="butt" stroke-linejoin="bevel" fill="none" stroke="#000000" d="M1832.3 1703.9 1767.6 1462.4 1832.3 1220.9 2733.5 1462.4Z"/>
<path transform="matrix(.1,0,0,-.1,0,792)" d="M4117.7 1703.9 3216.5 1462.4 4117.7 1220.9 4182.4 1462.4Z" fill="#ffcc66"/>
<path transform="matrix(.1,0,0,-.1,0,792)" stroke-width="80" stroke-linecap="butt" stroke-linejoin="bevel" fill="none" stroke="#000000" d="M4117.7 1703.9 3216.5 1462.4 4117.7 1220.9 4182.4 1462.4Z"/>
<path transform="matrix(.1,0,0,-.1,0,792)" d="M4889.5 6869.8 4954.2 6628.3 5855.4 6869.8 4954.2 7111.2Z" fill="#ffcc66"/>
<path transform="matrix(.1,0,0,-.1,0,792)" stroke-width="80" stroke-linecap="butt" stroke-linejoin="bevel" fill="none" stroke="#000000" d="M4889.5 6869.8 4954.2 6628.3 5855.4 6869.8 4954.2 7111.2Z"/>
<path transform="matrix(.1,0,0,-.1,0,792)" d="M3216.5 6869.8 4117.7 7111.2 3876.2 8012.5 2975 7771Z" fill="#ffcc66"/>
<path transform="matrix(.1,0,0,-.1,0,792)" stroke-width="80" stroke-linecap="butt" stroke-linejoin="bevel" fill="none" stroke="#000000" d="M3216.5 6869.8 4117.7 7111.2 3876.2 8012.5 2975 7771Z"/>
<path transform="matrix(.1,0,0,-.1,0,792)" d="M2733.5 6869.8 2975 7771 2073.8 8012.5 1832.3 7111.2Z" fill="#ffcc66"/>
<path transform="matrix(.1,0,0,-.1,0,792)" stroke-width="80" stroke-linecap="butt" stroke-linejoin="bevel" fill="none" stroke="#000000" d="M2733.5 6869.8 2975 7771 2073.8 8012.5 1832.3 7111.2Z"/>
<path transform="matrix(.1,0,0,-.1,0,792)" d="M1060.5 6869.8 995.801 7111.2 94.6016 6869.8 995.801 6628.3Z" fill="#ffcc66"/>
<path transform="matrix(.1,0,0,-.1,0,792)" stroke-width="80" stroke-linecap="butt" stroke-linejoin="bevel" fill="none" stroke="#000000" d="M1060.5 6869.8 995.801 7111.2 94.6016 6869.8 995.801 6628.3Z"/>
<path transform="matrix(.1,0,0,-.1,0,792)" d="M995.801 6628.3 94.6016 6869.8-146.898 5968.5 754.301 5727.1Z" fill="#ffcc66"/>
<path transform="matrix(.1,0,0,-.1,0,792)" stroke-width="80" stroke-linecap="butt" stroke-linejoin="bevel" fill="none" stroke="#000000" d="M995.801 6628.3 94.6016 6869.8-146.898 5968.5 754.301 5727.1Z"/>
<path transform="matrix(.1,0,0,-.1,0,792)" d="M995.801 1703.9 94.6016 1462.4 995.801 1220.9 1060.5 1462.4Z" fill="#ffcc66"/>
<path transform="matrix(.1,0,0,-.1,0,792)" stroke-width="80" stroke-linecap="butt" stroke-linejoin="bevel" fill="none" stroke="#000000" d="M995.801 1703.9 94.6016 1462.4 995.801 1220.9 1060.5 1462.4Z"/>
<path transform="matrix(.1,0,0,-.1,0,792)" d="M995.801 1703.9 754.301 2605.1-146.898 2363.7 94.6016 1462.4Z" fill="#ffcc66"/>
<path transform="matrix(.1,0,0,-.1,0,792)" stroke-width="80" stroke-linecap="butt" stroke-linejoin="bevel" fill="none" stroke="#000000" d="M995.801 1703.9 754.301 2605.1-146.898 2363.7 94.6016 1462.4Z"/>
<path transform="matrix(.1,0,0,-.1,0,792)" d="M4954.2 1703.9 5855.4 1462.4 6096.9 2363.7 5195.7 2605.1Z" fill="#ffcc66"/>
<path transform="matrix(.1,0,0,-.1,0,792)" stroke-width="80" stroke-linecap="butt" stroke-linejoin="bevel" fill="none" stroke="#000000" d="M4954.2 1703.9 5855.4 1462.4 6096.9 2363.7 5195.7 2605.1Z"/>
<path transform="matrix(.1,0,0,-.1,0,792)" d="M4954.2 1703.9 4889.5 1462.4 4954.2 1220.9 5855.4 1462.4Z" fill="#ffcc66"/>
<path transform="matrix(.1,0,0,-.1,0,792)" stroke-width="80" stroke-linecap="butt" stroke-linejoin="bevel" fill="none" stroke="#000000" d="M4954.2 1703.9 4889.5 1462.4 4954.2 1220.9 5855.4 1462.4Z"/>
<path transform="matrix(.1,0,0,-.1,0,792)" d="M4954.2 6628.3 5195.7 5727.1 6096.9 5968.5 5855.4 6869.8Z" fill="#ffcc66"/>
<path transform="matrix(.1,0,0,-.1,0,792)" stroke-width="80" stroke-linecap="butt" stroke-linejoin="bevel" fill="none" stroke="#000000" d="M4954.2 6628.3 5195.7 5727.1 6096.9 5968.5 5855.4 6869.8Z"/>
<path transform="matrix(.1,0,0,-.1,0,792)" d="M2733.5 1462.4 1832.3 1220.9 2073.8 319.699 2975 561.199Z" fill="#ffcc66"/>
<path transform="matrix(.1,0,0,-.1,0,792)" stroke-width="80" stroke-linecap="butt" stroke-linejoin="bevel" fill="none" stroke="#000000" d="M2733.5 1462.4 1832.3 1220.9 2073.8 319.699 2975 561.199Z"/>
<path transform="matrix(.1,0,0,-.1,0,792)" d="M3216.5 1462.4 2975 561.199 3876.2 319.699 4117.7 1220.9Z" fill="#ffcc66"/>
<path transform="matrix(.1,0,0,-.1,0,792)" stroke-width="80" stroke-linecap="butt" stroke-linejoin="bevel" fill="none" stroke="#000000" d="M3216.5 1462.4 2975 561.199 3876.2 319.699 4117.7 1220.9Z"/>
<path transform="matrix(.1,0,0,-.1,0,792)" d="M4954.2 7111.2 5195.7 8012.5 4536 7352.7 4712.7 7175.9Z" fill="#ffcc66"/>
<path transform="matrix(.1,0,0,-.1,0,792)" stroke-width="80" stroke-linecap="butt" stroke-linejoin="bevel" fill="none" stroke="#000000" d="M4954.2 7111.2 5195.7 8012.5 4536 7352.7 4712.7 7175.9Z"/>
<path transform="matrix(.1,0,0,-.1,0,792)" d="M4954.2 7111.2 5855.4 6869.8 6096.9 7771 5195.7 8012.5Z" fill="#ffcc66"/>
<path transform="matrix(.1,0,0,-.1,0,792)" stroke-width="80" stroke-linecap="butt" stroke-linejoin="bevel" fill="none" stroke="#000000" d="M4954.2 7111.2 5855.4 6869.8 6096.9 7771 5195.7 8012.5Z"/>
<path transform="matrix(.1,0,0,-.1,0,792)" d="M4117.7 7111.2 4359.2 7175.9 4536 7352.7 3876.2 8012.5Z" fill="#ffcc66"/>
<path transform="matrix(.1,0,0,-.1,0,792)" stroke-width="80" stroke-linecap="butt" stroke-linejoin="bevel" fill="none" stroke="#000000" d="M4117.7 7111.2 4359.2 7175.9 4536 7352.7 3876.2 8012.5Z"/>
<path transform="matrix(.1,0,0,-.1,0,792)" d="M1832.3 7111.2 2073.8 8012.5 1414 7352.7 1590.8 7175.9Z" fill="#ffcc66"/>
<path transform="matrix(.1,0,0,-.1,0,792)" stroke-width="80" stroke-linecap="butt" stroke-linejoin="bevel" fill="none" stroke="#000000" d="M1832.3 7111.2 2073.8 8012.5 1414 7352.7 1590.8 7175.9Z"/>
<path transform="matrix(.1,0,0,-.1,0,792)" d="M995.801 7111.2 754.301 8012.5-146.898 7771 94.6016 6869.8Z" fill="#ffcc66"/>
<path transform="matrix(.1,0,0,-.1,0,792)" stroke-width="80" stroke-linecap="butt" stroke-linejoin="bevel" fill="none" stroke="#000000" d="M995.801 7111.2 754.301 8012.5-146.898 7771 94.6016 6869.8Z"/>
<path transform="matrix(.1,0,0,-.1,0,792)" d="M995.801 7111.2 1237.3 7175.9 1414 7352.7 754.301 8012.5Z" fill="#ffcc66"/>
<path transform="matrix(.1,0,0,-.1,0,792)" stroke-width="80" stroke-linecap="butt" stroke-linejoin="bevel" fill="none" stroke="#000000" d="M995.801 7111.2 1237.3 7175.9 1414 7352.7 754.301 8012.5Z"/>
<path transform="matrix(.1,0,0,-.1,0,792)" d="M995.801 1220.9 754.301 319.699 1414 979.5 1237.3 1156.2Z" fill="#ffcc66"/>
<path transform="matrix(.1,0,0,-.1,0,792)" stroke-width="80" stroke-linecap="butt" stroke-linejoin="bevel" fill="none" stroke="#000000" d="M995.801 1220.9 754.301 319.699 1414 979.5 1237.3 1156.2Z"/>
<path transform="matrix(.1,0,0,-.1,0,792)" d="M995.801 1220.9 94.6016 1462.4-146.898 561.199 754.301 319.699Z" fill="#ffcc66"/>
<path transform="matrix(.1,0,0,-.1,0,792)" stroke-width="80" stroke-linecap="butt" stroke-linejoin="bevel" fill="none" stroke="#000000" d="M995.801 1220.9 94.6016 1462.4-146.898 561.199 754.301 319.699Z"/>
<path transform="matrix(.1,0,0,-.1,0,792)" d="M1832.3 1220.9 1590.8 1156.2 1414 979.5 2073.8 319.699Z" fill="#ffcc66"/>
<path transform="matrix(.1,0,0,-.1,0,792)" stroke-width="80" stroke-linecap="butt" stroke-linejoin="bevel" fill="none" stroke="#000000" d="M1832.3 1220.9 1590.8 1156.2 1414 979.5 2073.8 319.699Z"/>
<path transform="matrix(.1,0,0,-.1,0,792)" d="M4117.7 1220.9 3876.2 319.699 4536 979.5 4359.2 1156.2Z" fill="#ffcc66"/>
<path transform="matrix(.1,0,0,-.1,0,792)" stroke-width="80" stroke-linecap="butt" stroke-linejoin="bevel" fill="none" stroke="#000000" d="M4117.7 1220.9 3876.2 319.699 4536 979.5 4359.2 1156.2Z"/>
<path transform="matrix(.1,0,0,-.1,0,792)" d="M4954.2 1220.9 5195.7 319.699 6096.9 561.199 5855.4 1462.4Z" fill="#ffcc66"/>
<path transform="matrix(.1,0,0,-.1,0,792)" stroke-width="80" stroke-linecap="butt" stroke-linejoin="bevel" fill="none" stroke="#000000" d="M4954.2 1220.9 5195.7 319.699 6096.9 561.199 5855.4 1462.4Z"/>
<path transform="matrix(.1,0,0,-.1,0,792)" d="M4954.2 1220.9 4712.7 1156.2 4536 979.5 5195.7 319.699Z" fill="#ffcc66"/>
<path transform="matrix(.1,0,0,-.1,0,792)" stroke-width="80" stroke-linecap="butt" stroke-linejoin="bevel" fill="none" stroke="#000000" d="M4954.2 1220.9 4712.7 1156.2 4536 979.5 5195.7 319.699Z"/>
<path transform="matrix(.1,0,0,-.1,0,792)" d="M4536 7352.7 5195.7 8012.5 4536 8672.2 3876.2 8012.5Z" fill="#ffcc66"/>
<path transform="matrix(.1,0,0,-.1,0,792)" stroke-width="80" stroke-linecap="butt" stroke-linejoin="bevel" fill="none" stroke="#000000" d="M4536 7352.7 5195.7 8012.5 4536 8672.2 3876.2 8012.5Z"/>
<path transform="matrix(.1,0,0,-.1,0,792)" d="M1414 7352.7 2073.8 8012.5 1414 8672.2 754.301 8012.5Z" fill="#ffcc66"/>
<path transform="matrix(.1,0,0,-.1,0,792)" stroke-width="80" stroke-linecap="butt" stroke-linejoin="bevel" fill="none" stroke="#000000" d="M1414 7352.7 2073.8 8012.5 1414 8672.2 754.301 8012.5Z"/>
<path transform="matrix(.1,0,0,-.1,0,792)" d="M1414 979.5 754.301 319.699 1414-340 2073.8 319.699Z" fill="#ffcc66"/>
<path transform="matrix(.1,0,0,-.1,0,792)" stroke-width="80" stroke-linecap="butt" stroke-linejoin="bevel" fill="none" stroke="#000000" d="M1414 979.5 754.301 319.699 1414-340 2073.8 319.699Z"/>
<path transform="matrix(.1,0,0,-.1,0,792)" d="M4536 979.5 3876.2 319.699 4536-340 5195.7 319.699Z" fill="#ffcc66"/>
<path transform="matrix(.1,0,0,-.1,0,792)" stroke-width="80" stroke-linecap="butt" stroke-linejoin="bevel" fill="none" stroke="#000000" d="M4536 979.5 3876.2 319.699 4536-340 5195.7 319.699Z"/>
<path transform="matrix(.1,0,0,-.1,0,792)" d="M5437.2 3023.4 6096.9 3683.1 5920.1 3859.9 5678.7 3924.6Z" fill="#ffcc66"/>
<path transform="matrix(.1,0,0,-.1,0,792)" stroke-width="80" stroke-linecap="butt" stroke-linejoin="bevel" fill="none" stroke="#000000" d="M5437.2 3023.4 6096.9 3683.1 5920.1 3859.9 5678.7 3924.6Z"/>
<path transform="matrix(.1,0,0,-.1,0,792)" d="M5437.2 3023.4 6096.9 2363.7 6756.7 3023.4 6096.9 3683.1Z" fill="#ffcc66"/>
<path transform="matrix(.1,0,0,-.1,0,792)" stroke-width="80" stroke-linecap="butt" stroke-linejoin="bevel" fill="none" stroke="#000000" d="M5437.2 3023.4 6096.9 2363.7 6756.7 3023.4 6096.9 3683.1Z"/>
<path transform="matrix(.1,0,0,-.1,0,792)" d="M5437.2 5308.8 6096.9 4649.1 6756.7 5308.8 6096.9 5968.5Z" fill="#ffcc66"/>
<path transform="matrix(.1,0,0,-.1,0,792)" stroke-width="80" stroke-linecap="butt" stroke-linejoin="bevel" fill="none" stroke="#000000" d="M5437.2 5308.8 6096.9 4649.1 6756.7 5308.8 6096.9 5968.5Z"/>
<path transform="matrix(.1,0,0,-.1,0,792)" d="M5437.2 5308.8 5678.7 4407.6 5920.1 4472.3 6096.9 4649.1Z" fill="#ffcc66"/>
<path transform="matrix(.1,0,0,-.1,0,792)" stroke-width="80" stroke-linecap="butt" stroke-linejoin="bevel" fill="none" stroke="#000000" d="M5437.2 5308.8 5678.7 4407.6 5920.1 4472.3 6096.9 4649.1Z"/>
<path transform="matrix(.1,0,0,-.1,0,792)" d="M512.801 5308.8-146.898 4649.1 29.8984 4472.3 271.301 4407.6Z" fill="#ffcc66"/>
<path transform="matrix(.1,0,0,-.1,0,792)" stroke-width="80" stroke-linecap="butt" stroke-linejoin="bevel" fill="none" stroke="#000000" d="M512.801 5308.8-146.898 4649.1 29.8984 4472.3 271.301 4407.6Z"/>
<path transform="matrix(.1,0,0,-.1,0,792)" d="M512.801 5308.8-146.898 5968.5-806.699 5308.8-146.898 4649.1Z" fill="#ffcc66"/>
<path transform="matrix(.1,0,0,-.1,0,792)" stroke-width="80" stroke-linecap="butt" stroke-linejoin="bevel" fill="none" stroke="#000000" d="M512.801 5308.8-146.898 5968.5-806.699 5308.8-146.898 4649.1Z"/>
<path transform="matrix(.1,0,0,-.1,0,792)" d="M512.801 3023.4-146.898 3683.1-806.699 3023.4-146.898 2363.7Z" fill="#ffcc66"/>
<path transform="matrix(.1,0,0,-.1,0,792)" stroke-width="80" stroke-linecap="butt" stroke-linejoin="bevel" fill="none" stroke="#000000" d="M512.801 3023.4-146.898 3683.1-806.699 3023.4-146.898 2363.7Z"/>
<path transform="matrix(.1,0,0,-.1,0,792)" d="M512.801 3023.4 271.301 3924.6 29.8984 3859.9-146.898 3683.1Z" fill="#ffcc66"/>
<path transform="matrix(.1,0,0,-.1,0,792)" stroke-width="80" stroke-linecap="butt" stroke-linejoin="bevel" fill="none" stroke="#000000" d="M512.801 3023.4 271.301 3924.6 29.8984 3859.9-146.898 3683.1Z"/>
<path transform="matrix(.1,0,0,-.1,0,792)" d="M2975 7771 2315.3 8430.7 1414 8672.2 2073.8 8012.5Z" fill="#ffcc66"/>
<path transform="matrix(.1,0,0,-.1,0,792)" stroke-width="80" stroke-linecap="butt" stroke-linejoin="bevel" fill="none" stroke="#000000" d="M2975 7771 2315.3 8430.7 1414 8672.2 2073.8 8012.5Z"/>
<path transform="matrix(.1,0,0,-.1,0,792)" d="M2975 7771 3634.7 8430.7 2975 9090.5 2315.3 8430.7Z" fill="#ffcc66"/>
<path transform="matrix(.1,0,0,-.1,0,792)" stroke-width="80" stroke-linecap="butt" stroke-linejoin="bevel" fill="none" stroke="#000000" d="M2975 7771 3634.7 8430.7 2975 9090.5 2315.3 8430.7Z"/>
<path transform="matrix(.1,0,0,-.1,0,792)" d="M2975 7771 3876.2 8012.5 4536 8672.2 3634.7 8430.7Z" fill="#ffcc66"/>
<path transform="matrix(.1,0,0,-.1,0,792)" stroke-width="80" stroke-linecap="butt" stroke-linejoin="bevel" fill="none" stroke="#000000" d="M2975 7771 3876.2 8012.5 4536 8672.2 3634.7 8430.7Z"/>
<path transform="matrix(.1,0,0,-.1,0,792)" d="M2975 561.199 3634.7-98.5 4536-340 3876.2 319.699Z" fill="#ffcc66"/>
<path transform="matrix(.1,0,0,-.1,0,792)" stroke-width="80" stroke-linecap="butt" stroke-linejoin="bevel" fill="none" stroke="#000000" d="M2975 561.199 3634.7-98.5 4536-340 3876.2 319.699Z"/>
<path transform="matrix(.1,0,0,-.1,0,792)" d="M2975 561.199 2315.3-98.5 2975-758.301 3634.7-98.5Z" fill="#ffcc66"/>
<path transform="matrix(.1,0,0,-.1,0,792)" stroke-width="80" stroke-linecap="butt" stroke-linejoin="bevel" fill="none" stroke="#000000" d="M2975 561.199 2315.3-98.5 2975-758.301 3634.7-98.5Z"/>
<path transform="matrix(.1,0,0,-.1,0,792)" d="M2975 561.199 2073.8 319.699 1414-340 2315.3-98.5Z" fill="#ffcc66"/>
<path transform="matrix(.1,0,0,-.1,0,792)" stroke-width="80" stroke-linecap="butt" stroke-linejoin="bevel" fill="none" stroke="#000000" d="M2975 561.199 2073.8 319.699 1414-340 2315.3-98.5Z"/>
<path transform="matrix(.1,0,0,-.1,0,792)" d="M5678.7 3924.6 5920.1 3859.9 6096.9 3683.1 6273.7 3859.9 6515.2 3924.6 6450.5 4166.1 6515.2 4407.6 6273.7 4472.3 6096.9 4649.1 5920.1 4472.3 5678.7 4407.6 5743.4 4166.1" fill="#ffcc66"/>
<path transform="matrix(.1,0,0,-.1,0,792)" stroke-width="80" stroke-linecap="butt" stroke-linejoin="bevel" fill="none" stroke="#000000" d="M5678.7 3924.6 5920.1 3859.9 6096.9 3683.1 6273.7 3859.9 6515.2 3924.6 6450.5 4166.1 6515.2 4407.6 6273.7 4472.3 6096.9 4649.1 5920.1 4472.3 5678.7 4407.6 5743.4 4166.1Z"/>
<path transform="matrix(.1,0,0,-.1,0,792)" d="M271.301 4407.6 29.8984 4472.3-146.898 4649.1-323.699 4472.3-565.199 4407.6-500.5 4166.1-565.199 3924.6-323.699 3859.9-146.898 3683.1 29.8984 3859.9 271.301 3924.6 206.602 4166.1" fill="#ffcc66"/>
<path transform="matrix(.1,0,0,-.1,0,792)" stroke-width="80" stroke-linecap="butt" stroke-linejoin="bevel" fill="none" stroke="#000000" d="M271.301 4407.6 29.8984 4472.3-146.898 4649.1-323.699 4472.3-565.199 4407.6-500.5 4166.1-565.199 3924.6-323.699 3859.9-146.898 3683.1 29.8984 3859.9 271.301 3924.6 206.602 4166.1Z"/>
<path transform="matrix(.1,0,0,-.1,0,792)" d="M5195.7 8012.5 6096.9 7771 5437.2 8430.7 4536 8672.2Z" fill="#ffcc66"/>
<path transform="matrix(.1,0,0,-.1,0,792)" stroke-width="80" stroke-linecap="butt" stroke-linejoin="bevel" fill="none" stroke="#000000" d="M5195.7 8012.5 6096.9 7771 5437.2 8430.7 4536 8672.2Z"/>
<path transform="matrix(.1,0,0,-.1,0,792)" d="M754.301 8012.5 1414 8672.2 512.801 8430.7-146.898 7771Z" fill="#ffcc66"/>
<path transform="matrix(.1,0,0,-.1,0,792)" stroke-width="80" stroke-linecap="butt" stroke-linejoin="bevel" fill="none" stroke="#000000" d="M754.301 8012.5 1414 8672.2 512.801 8430.7-146.898 7771Z"/>
<path transform="matrix(.1,0,0,-.1,0,792)" d="M754.301 319.699-146.898 561.199 512.801-98.5 1414-340Z" fill="#ffcc66"/>
<path transform="matrix(.1,0,0,-.1,0,792)" stroke-width="80" stroke-linecap="butt" stroke-linejoin="bevel" fill="none" stroke="#000000" d="M754.301 319.699-146.898 561.199 512.801-98.5 1414-340Z"/>
<path transform="matrix(.1,0,0,-.1,0,792)" d="M5195.7 319.699 4536-340 5437.2-98.5 6096.9 561.199Z" fill="#ffcc66"/>
<path transform="matrix(.1,0,0,-.1,0,792)" stroke-width="80" stroke-linecap="butt" stroke-linejoin="bevel" fill="none" stroke="#000000" d="M5195.7 319.699 4536-340 5437.2-98.5 6096.9 561.199Z"/>
<path transform="matrix(.1,0,0,-.1,0,792)" d="M5855.4 1462.4 6096.9 561.199 6338.4 1462.4 6096.9 2363.7Z" fill="#ffcc66"/>
<path transform="matrix(.1,0,0,-.1,0,792)" stroke-width="80" stroke-linecap="butt" stroke-linejoin="bevel" fill="none" stroke="#000000" d="M5855.4 1462.4 6096.9 561.199 6338.4 1462.4 6096.9 2363.7Z"/>
<path transform="matrix(.1,0,0,-.1,0,792)" d="M5855.4 6869.8 6096.9 5968.5 6338.4 6869.8 6096.9 7771Z" fill="#ffcc66"/>
<path transform="matrix(.1,0,0,-.1,0,792)" stroke-width="80" stroke-linecap="butt" stroke-linejoin="bevel" fill="none" stroke="#000000" d="M5855.4 6869.8 6096.9 5968.5 6338.4 6869.8 6096.9 7771Z"/>
<path transform="matrix(.1,0,0,-.1,0,792)" d="M94.6016 6869.8-146.898 7771-388.398 6869.8-146.898 5968.5Z" fill="#ffcc66"/>
<path transform="matrix(.1,0,0,-.1,0,792)" stroke-width="80" stroke-linecap="butt" stroke-linejoin="bevel" fill="none" stroke="#000000" d="M94.6016 6869.8-146.898 7771-388.398 6869.8-146.898 5968.5Z"/>
<path transform="matrix(.1,0,0,-.1,0,792)" d="M94.6016 1462.4-146.898 2363.7-388.398 1462.4-146.898 561.199Z" fill="#ffcc66"/>
<path transform="matrix(.1,0,0,-.1,0,792)" stroke-width="80" stroke-linecap="butt" stroke-linejoin="bevel" fill="none" stroke="#000000" d="M94.6016 1462.4-146.898 2363.7-388.398 1462.4-146.898 561.199Z"/>
<path transform="matrix(.1,0,0,-.1,0,792)" d="M5437.2 8430.7 6096.9 7771 6756.7 8430.7 6096.9 9090.5Z" fill="#ffcc66"/>
<path transform="matrix(.1,0,0,-.1,0,792)" stroke-width="80" stroke-linecap="butt" stroke-linejoin="bevel" fill="none" stroke="#000000" d="M5437.2 8430.7 6096.9 7771 6756.7 8430.7 6096.9 9090.5Z"/>
<path transform="matrix(.1,0,0,-.1,0,792)" d="M512.801 8430.7-146.898 9090.5-806.699 8430.7-146.898 7771Z" fill="#ffcc66"/>
<path transform="matrix(.1,0,0,-.1,0,792)" stroke-width="80" stroke-linecap="butt" stroke-linejoin="bevel" fill="none" stroke="#000000" d="M512.801 8430.7-146.898 9090.5-806.699 8430.7-146.898 7771Z"/>
<path transform="matrix(.1,0,0,-.1,0,792)" d="M-146.898 561.199-806.699-98.5-146.898-758.301 512.801-98.5Z" fill="#ffcc66"/>
<path transform="matrix(.1,0,0,-.1,0,792)" stroke-width="80" stroke-linecap="butt" stroke-linejoin="bevel" fill="none" stroke="#000000" d="M-146.898 561.199-806.699-98.5-146.898-758.301 512.801-98.5Z"/>
<path transform="matrix(.1,0,0,-.1,0,792)" d="M6096.9 561.199 6998.1 319.699 7239.6 1220.9 6338.4 1462.4Z" fill="#ffcc66"/>
<path transform="matrix(.1,0,0,-.1,0,792)" stroke-width="80" stroke-linecap="butt" stroke-linejoin="bevel" fill="none" stroke="#000000" d="M6096.9 561.199 6998.1 319.699 7239.6 1220.9 6338.4 1462.4Z"/>
<path transform="matrix(.1,0,0,-.1,0,792)" d="M6096.9 561.199 6756.7-98.5 7657.9-340 6998.1 319.699Z" fill="#ffcc66"/>
<path transform="matrix(.1,0,0,-.1,0,792)" stroke-width="80" stroke-linecap="butt" stroke-linejoin="bevel" fill="none" stroke="#000000" d="M6096.9 561.199 6756.7-98.5 7657.9-340 6998.1 319.699Z"/>
<path transform="matrix(.1,0,0,-.1,0,792)" d="M6096.9 561.199 5437.2-98.5 6096.9-758.301 6756.7-98.5Z" fill="#ffcc66"/>
<path transform="matrix(.1,0,0,-.1,0,792)" stroke-width="80" stroke-linecap="butt" stroke-linejoin="bevel" fill="none" stroke="#000000" d="M6096.9 561.199 5437.2-98.5 6096.9-758.301 6756.7-98.5Z"/>
<path transform="matrix(.1,0,0,-.1,0,792)" d="M6096.9 2363.7 6998.1 2605.1 7657.9 3264.9 6756.7 3023.4Z" fill="#ffcc66"/>
<path transform="matrix(.1,0,0,-.1,0,792)" stroke-width="80" stroke-linecap="butt" stroke-linejoin="bevel" fill="none" stroke="#000000" d="M6096.9 2363.7 6998.1 2605.1 7657.9 3264.9 6756.7 3023.4Z"/>
<path transform="matrix(.1,0,0,-.1,0,792)" d="M6096.9 2363.7 6338.4 1462.4 7239.6 1703.9 6998.1 2605.1Z" fill="#ffcc66"/>
<path transform="matrix(.1,0,0,-.1,0,792)" stroke-width="80" stroke-linecap="butt" stroke-linejoin="bevel" fill="none" stroke="#000000" d="M6096.9 2363.7 6338.4 1462.4 7239.6 1703.9 6998.1 2605.1Z"/>
<path transform="matrix(.1,0,0,-.1,0,792)" d="M6096.9 3683.1 6756.7 3023.4 6515.2 3924.6 6273.7 3859.9Z" fill="#ffcc66"/>
<path transform="matrix(.1,0,0,-.1,0,792)" stroke-width="80" stroke-linecap="butt" stroke-linejoin="bevel" fill="none" stroke="#000000" d="M6096.9 3683.1 6756.7 3023.4 6515.2 3924.6 6273.7 3859.9Z"/>
<path transform="matrix(.1,0,0,-.1,0,792)" d="M6096.9 4649.1 6273.7 4472.3 6515.2 4407.6 6756.7 5308.8Z" fill="#ffcc66"/>
<path transform="matrix(.1,0,0,-.1,0,792)" stroke-width="80" stroke-linecap="butt" stroke-linejoin="bevel" fill="none" stroke="#000000" d="M6096.9 4649.1 6273.7 4472.3 6515.2 4407.6 6756.7 5308.8Z"/>
<path transform="matrix(.1,0,0,-.1,0,792)" d="M6096.9 5968.5 6998.1 5727.1 7239.6 6628.3 6338.4 6869.8Z" fill="#ffcc66"/>
<path transform="matrix(.1,0,0,-.1,0,792)" stroke-width="80" stroke-linecap="butt" stroke-linejoin="bevel" fill="none" stroke="#000000" d="M6096.9 5968.5 6998.1 5727.1 7239.6 6628.3 6338.4 6869.8Z"/>
<path transform="matrix(.1,0,0,-.1,0,792)" d="M6096.9 5968.5 6756.7 5308.8 7657.9 5067.3 6998.1 5727.1Z" fill="#ffcc66"/>
<path transform="matrix(.1,0,0,-.1,0,792)" stroke-width="80" stroke-linecap="butt" stroke-linejoin="bevel" fill="none" stroke="#000000" d="M6096.9 5968.5 6756.7 5308.8 7657.9 5067.3 6998.1 5727.1Z"/>
<path transform="matrix(.1,0,0,-.1,0,792)" d="M6096.9 7771 6998.1 8012.5 7657.9 8672.2 6756.7 8430.7Z" fill="#ffcc66"/>
<path transform="matrix(.1,0,0,-.1,0,792)" stroke-width="80" stroke-linecap="butt" stroke-linejoin="bevel" fill="none" stroke="#000000" d="M6096.9 7771 6998.1 8012.5 7657.9 8672.2 6756.7 8430.7Z"/>
<path transform="matrix(.1,0,0,-.1,0,792)" d="M6096.9 7771 6338.4 6869.8 7239.6 7111.2 6998.1 8012.5Z" fill="#ffcc66"/>
<path transform="matrix(.1,0,0,-.1,0,792)" stroke-width="80" stroke-linecap="butt" stroke-linejoin="bevel" fill="none" stroke="#000000" d="M6096.9 7771 6338.4 6869.8 7239.6 7111.2 6998.1 8012.5Z"/>
</svg>
