<svg xmlns="http://www.w3.org/2000/svg" xmlns:xlink="http://www.w3.org/1999/xlink" xmlns:inkscape="http://www.inkscape.org/namespaces/inkscape" version="1.1" width="612" height="792" viewBox="0 0 612 792">
<path transform="matrix(.1,0,0,-.1,0,792)" d="M2808.3 4043.3H3308.3V4543.3H2808.3Z" fill="#b0c4d9"/>
<path transform="matrix(.1,0,0,-.1,0,792)" stroke-width="20" stroke-linecap="butt" stroke-miterlimit="10" stroke-linejoin="miter" fill="none" stroke="#000000" d="M2808.3 4043.3H3308.3V4543.3H2808.3Z"/>
<path transform="matrix(.1,0,0,-.1,0,792)" d="M2808.3 3543.3H3308.3V4043.3H2808.3Z" fill="#b0c4d9"/>
<path transform="matrix(.1,0,0,-.1,0,792)" stroke-width="20" stroke-linecap="butt" stroke-miterlimit="10" stroke-linejoin="miter" fill="none" stroke="#000000" d="M2808.3 3543.3H3308.3V4043.3H2808.3Z"/>
<path transform="matrix(.1,0,0,-.1,0,792)" d="M2808.3 4043.3H2308.3L1808.3 3543.3V3043.3H2308.3L2808.3 3543.3" fill="#c28c24"/>
<path transform="matrix(.1,0,0,-.1,0,792)" stroke-width="20" stroke-linecap="butt" stroke-miterlimit="10" stroke-linejoin="miter" fill="none" stroke="#000000" d="M2808.3 4043.3H2308.3L1808.3 3543.3V3043.3H2308.3L2808.3 3543.3Z"/>
<path transform="matrix(.1,0,0,-.1,0,792)" d="M2308.3 4043.3H2808.3V4543.3H2308.3Z" fill="#b0c4d9"/>
<path transform="matrix(.1,0,0,-.1,0,792)" stroke-width="20" stroke-linecap="butt" stroke-miterlimit="10" stroke-linejoin="miter" fill="none" stroke="#000000" d="M2308.3 4043.3H2808.3V4543.3H2308.3Z"/>
<path transform="matrix(.1,0,0,-.1,0,792)" d="M2808.3 4543.3V5043.3L2308.3 5543.3H1808.3V5043.3L2308.3 4543.3" fill="#c28c24"/>
<path transform="matrix(.1,0,0,-.1,0,792)" stroke-width="20" stroke-linecap="butt" stroke-miterlimit="10" stroke-linejoin="miter" fill="none" stroke="#000000" d="M2808.3 4543.3V5043.3L2308.3 5543.3H1808.3V5043.3L2308.3 4543.3Z"/>
<path transform="matrix(.1,0,0,-.1,0,792)" d="M2808.3 4543.3H3308.3V5043.3H2808.3Z" fill="#b0c4d9"/>
<path transform="matrix(.1,0,0,-.1,0,792)" stroke-width="20" stroke-linecap="butt" stroke-miterlimit="10" stroke-linejoin="miter" fill="none" stroke="#000000" d="M2808.3 4543.3H3308.3V5043.3H2808.3Z"/>
<path transform="matrix(.1,0,0,-.1,0,792)" d="M3308.3 4043.3H3808.3V4543.3H3308.3Z" fill="#b0c4d9"/>
<path transform="matrix(.1,0,0,-.1,0,792)" stroke-width="20" stroke-linecap="butt" stroke-miterlimit="10" stroke-linejoin="miter" fill="none" stroke="#000000" d="M3308.3 4043.3H3808.3V4543.3H3308.3Z"/>
<path transform="matrix(.1,0,0,-.1,0,792)" d="M3308.3 4043.3V3543.3L3808.3 3043.3H4308.3V3543.3L3808.3 4043.3" fill="#c28c24"/>
<path transform="matrix(.1,0,0,-.1,0,792)" stroke-width="20" stroke-linecap="butt" stroke-miterlimit="10" stroke-linejoin="miter" fill="none" stroke="#000000" d="M3308.3 4043.3V3543.3L3808.3 3043.3H4308.3V3543.3L3808.3 4043.3Z"/>
<path transform="matrix(.1,0,0,-.1,0,792)" d="M3308.3 4543.3H3808.3L4308.3 5043.3V5543.3H3808.3L3308.3 5043.3" fill="#c28c24"/>
<path transform="matrix(.1,0,0,-.1,0,792)" stroke-width="20" stroke-linecap="butt" stroke-miterlimit="10" stroke-linejoin="miter" fill="none" stroke="#000000" d="M3308.3 4543.3H3808.3L4308.3 5043.3V5543.3H3808.3L3308.3 5043.3Z"/>
<path transform="matrix(.1,0,0,-.1,0,792)" d="M2808.3 3543.3V2793.3H3058.3V3043.3H3808.3L3308.3 3543.3" fill="#ffffff"/>
<path transform="matrix(.1,0,0,-.1,0,792)" stroke-width="20" stroke-linecap="butt" stroke-miterlimit="10" stroke-linejoin="miter" fill="none" stroke="#000000" d="M2808.3 3543.3V2793.3H3058.3V3043.3H3808.3L3308.3 3543.3Z"/>
<path transform="matrix(.1,0,0,-.1,0,792)" d="M2808.3 3543.3 2308.3 3043.3V2543.3H3058.3V2793.3H2808.3" fill="#ffffff"/>
<path transform="matrix(.1,0,0,-.1,0,792)" stroke-width="20" stroke-linecap="butt" stroke-miterlimit="10" stroke-linejoin="miter" fill="none" stroke="#000000" d="M2808.3 3543.3 2308.3 3043.3V2543.3H3058.3V2793.3H2808.3Z"/>
<path transform="matrix(.1,0,0,-.1,0,792)" d="M3308.3 5043.3V5793.3H3058.3V5543.3H2308.3L2808.3 5043.3" fill="#ffffff"/>
<path transform="matrix(.1,0,0,-.1,0,792)" stroke-width="20" stroke-linecap="butt" stroke-miterlimit="10" stroke-linejoin="miter" fill="none" stroke="#000000" d="M3308.3 5043.3V5793.3H3058.3V5543.3H2308.3L2808.3 5043.3Z"/>
<path transform="matrix(.1,0,0,-.1,0,792)" d="M3308.3 5043.3 3808.3 5543.3V6043.3H3058.3V5793.3H3308.3" fill="#ffffff"/>
<path transform="matrix(.1,0,0,-.1,0,792)" stroke-width="20" stroke-linecap="butt" stroke-miterlimit="10" stroke-linejoin="miter" fill="none" stroke="#000000" d="M3308.3 5043.3 3808.3 5543.3V6043.3H3058.3V5793.3H3308.3Z"/>
<path transform="matrix(.1,0,0,-.1,0,792)" d="M2308.3 4543.3H1558.3V4293.3H1808.3V3543.3L2308.3 4043.3" fill="#ffffff"/>
<path transform="matrix(.1,0,0,-.1,0,792)" stroke-width="20" stroke-linecap="butt" stroke-miterlimit="10" stroke-linejoin="miter" fill="none" stroke="#000000" d="M2308.3 4543.3H1558.3V4293.3H1808.3V3543.3L2308.3 4043.3Z"/>
<path transform="matrix(.1,0,0,-.1,0,792)" d="M2308.3 4543.3 1808.3 5043.3H1308.3V4293.3H1558.3V4543.3" fill="#ffffff"/>
<path transform="matrix(.1,0,0,-.1,0,792)" stroke-width="20" stroke-linecap="butt" stroke-miterlimit="10" stroke-linejoin="miter" fill="none" stroke="#000000" d="M2308.3 4543.3 1808.3 5043.3H1308.3V4293.3H1558.3V4543.3Z"/>
<path transform="matrix(.1,0,0,-.1,0,792)" d="M3808.3 4043.3H4558.3V4293.3H4308.3V5043.3L3808.3 4543.3" fill="#ffffff"/>
<path transform="matrix(.1,0,0,-.1,0,792)" stroke-width="20" stroke-linecap="butt" stroke-miterlimit="10" stroke-linejoin="miter" fill="none" stroke="#000000" d="M3808.3 4043.3H4558.3V4293.3H4308.3V5043.3L3808.3 4543.3Z"/>
<path transform="matrix(.1,0,0,-.1,0,792)" d="M3808.3 4043.3 4308.3 3543.3H4808.3V4293.3H4558.3V4043.3" fill="#ffffff"/>
<path transform="matrix(.1,0,0,-.1,0,792)" stroke-width="20" stroke-linecap="butt" stroke-miterlimit="10" stroke-linejoin="miter" fill="none" stroke="#000000" d="M3808.3 4043.3 4308.3 3543.3H4808.3V4293.3H4558.3V4043.3Z"/>
<path transform="matrix(.1,0,0,-.1,0,792)" d="M1808.3 2543.3H2308.3V3043.3H1808.3Z" fill="#b0c4d9"/>
<path transform="matrix(.1,0,0,-.1,0,792)" stroke-width="20" stroke-linecap="butt" stroke-miterlimit="10" stroke-linejoin="miter" fill="none" stroke="#000000" d="M1808.3 2543.3H2308.3V3043.3H1808.3Z"/>
<path transform="matrix(.1,0,0,-.1,0,792)" d="M3058.3 3043.3V2793.3H3308.3V2043.3L3808.3 2543.3V3043.3" fill="#ffffff"/>
<path transform="matrix(.1,0,0,-.1,0,792)" stroke-width="20" stroke-linecap="butt" stroke-miterlimit="10" stroke-linejoin="miter" fill="none" stroke="#000000" d="M3058.3 3043.3V2793.3H3308.3V2043.3L3808.3 2543.3V3043.3Z"/>
<path transform="matrix(.1,0,0,-.1,0,792)" d="M3808.3 2543.3H4308.3V3043.3H3808.3Z" fill="#b0c4d9"/>
<path transform="matrix(.1,0,0,-.1,0,792)" stroke-width="20" stroke-linecap="butt" stroke-miterlimit="10" stroke-linejoin="miter" fill="none" stroke="#000000" d="M3808.3 2543.3H4308.3V3043.3H3808.3Z"/>
<path transform="matrix(.1,0,0,-.1,0,792)" d="M3808.3 5543.3H4308.3V6043.3H3808.3Z" fill="#b0c4d9"/>
<path transform="matrix(.1,0,0,-.1,0,792)" stroke-width="20" stroke-linecap="butt" stroke-miterlimit="10" stroke-linejoin="miter" fill="none" stroke="#000000" d="M3808.3 5543.3H4308.3V6043.3H3808.3Z"/>
<path transform="matrix(.1,0,0,-.1,0,792)" d="M3058.3 5543.3V5793.3H2808.3V6543.3L2308.3 6043.3V5543.3" fill="#ffffff"/>
<path transform="matrix(.1,0,0,-.1,0,792)" stroke-width="20" stroke-linecap="butt" stroke-miterlimit="10" stroke-linejoin="miter" fill="none" stroke="#000000" d="M3058.3 5543.3V5793.3H2808.3V6543.3L2308.3 6043.3V5543.3Z"/>
<path transform="matrix(.1,0,0,-.1,0,792)" d="M1808.3 5543.3H2308.3V6043.3H1808.3Z" fill="#b0c4d9"/>
<path transform="matrix(.1,0,0,-.1,0,792)" stroke-width="20" stroke-linecap="butt" stroke-miterlimit="10" stroke-linejoin="miter" fill="none" stroke="#000000" d="M1808.3 5543.3H2308.3V6043.3H1808.3Z"/>
<path transform="matrix(.1,0,0,-.1,0,792)" d="M3058.3 2793.3V2543.3H2308.3L2808.3 2043.3H3308.3V2793.3" fill="#ffffff"/>
<path transform="matrix(.1,0,0,-.1,0,792)" stroke-width="20" stroke-linecap="butt" stroke-miterlimit="10" stroke-linejoin="miter" fill="none" stroke="#000000" d="M3058.3 2793.3V2543.3H2308.3L2808.3 2043.3H3308.3V2793.3Z"/>
<path transform="matrix(.1,0,0,-.1,0,792)" d="M3058.3 5793.3V6043.3H3808.3L3308.3 6543.3H2808.3V5793.3" fill="#ffffff"/>
<path transform="matrix(.1,0,0,-.1,0,792)" stroke-width="20" stroke-linecap="butt" stroke-miterlimit="10" stroke-linejoin="miter" fill="none" stroke="#000000" d="M3058.3 5793.3V6043.3H3808.3L3308.3 6543.3H2808.3V5793.3Z"/>
<path transform="matrix(.1,0,0,-.1,0,792)" d="M1308.3 5043.3H1808.3V5543.3H1308.3Z" fill="#b0c4d9"/>
<path transform="matrix(.1,0,0,-.1,0,792)" stroke-width="20" stroke-linecap="butt" stroke-miterlimit="10" stroke-linejoin="miter" fill="none" stroke="#000000" d="M1308.3 5043.3H1808.3V5543.3H1308.3Z"/>
<path transform="matrix(.1,0,0,-.1,0,792)" d="M1308.3 5543.3H1808.3V6043.3H1308.3Z" fill="#b0c4d9"/>
<path transform="matrix(.1,0,0,-.1,0,792)" stroke-width="20" stroke-linecap="butt" stroke-miterlimit="10" stroke-linejoin="miter" fill="none" stroke="#000000" d="M1308.3 5543.3H1808.3V6043.3H1308.3Z"/>
<path transform="matrix(.1,0,0,-.1,0,792)" d="M1808.3 4293.3H1558.3V4043.3H808.301L1308.3 3543.3H1808.3" fill="#ffffff"/>
<path transform="matrix(.1,0,0,-.1,0,792)" stroke-width="20" stroke-linecap="butt" stroke-miterlimit="10" stroke-linejoin="miter" fill="none" stroke="#000000" d="M1808.3 4293.3H1558.3V4043.3H808.301L1308.3 3543.3H1808.3Z"/>
<path transform="matrix(.1,0,0,-.1,0,792)" d="M1308.3 3043.3H1808.3V3543.3H1308.3Z" fill="#b0c4d9"/>
<path transform="matrix(.1,0,0,-.1,0,792)" stroke-width="20" stroke-linecap="butt" stroke-miterlimit="10" stroke-linejoin="miter" fill="none" stroke="#000000" d="M1308.3 3043.3H1808.3V3543.3H1308.3Z"/>
<path transform="matrix(.1,0,0,-.1,0,792)" d="M1308.3 2543.3H1808.3V3043.3H1308.3Z" fill="#b0c4d9"/>
<path transform="matrix(.1,0,0,-.1,0,792)" stroke-width="20" stroke-linecap="butt" stroke-miterlimit="10" stroke-linejoin="miter" fill="none" stroke="#000000" d="M1308.3 2543.3H1808.3V3043.3H1308.3Z"/>
<path transform="matrix(.1,0,0,-.1,0,792)" d="M1808.3 2543.3V2043.3L2308.3 1543.3H2808.3V2043.3L2308.3 2543.3" fill="#c28c24"/>
<path transform="matrix(.1,0,0,-.1,0,792)" stroke-width="20" stroke-linecap="butt" stroke-miterlimit="10" stroke-linejoin="miter" fill="none" stroke="#000000" d="M1808.3 2543.3V2043.3L2308.3 1543.3H2808.3V2043.3L2308.3 2543.3Z"/>
<path transform="matrix(.1,0,0,-.1,0,792)" d="M1308.3 2043.3H1808.3V2543.3H1308.3Z" fill="#b0c4d9"/>
<path transform="matrix(.1,0,0,-.1,0,792)" stroke-width="20" stroke-linecap="butt" stroke-miterlimit="10" stroke-linejoin="miter" fill="none" stroke="#000000" d="M1308.3 2043.3H1808.3V2543.3H1308.3Z"/>
<path transform="matrix(.1,0,0,-.1,0,792)" d="M3808.3 2543.3 3308.3 2043.3V1543.3H3808.3L4308.3 2043.3V2543.3" fill="#c28c24"/>
<path transform="matrix(.1,0,0,-.1,0,792)" stroke-width="20" stroke-linecap="butt" stroke-miterlimit="10" stroke-linejoin="miter" fill="none" stroke="#000000" d="M3808.3 2543.3 3308.3 2043.3V1543.3H3808.3L4308.3 2043.3V2543.3Z"/>
<path transform="matrix(.1,0,0,-.1,0,792)" d="M3808.3 6043.3H4308.3V6543.3L3808.3 7043.3H3308.3V6543.3" fill="#c28c24"/>
<path transform="matrix(.1,0,0,-.1,0,792)" stroke-width="20" stroke-linecap="butt" stroke-miterlimit="10" stroke-linejoin="miter" fill="none" stroke="#000000" d="M3808.3 6043.3H4308.3V6543.3L3808.3 7043.3H3308.3V6543.3Z"/>
<path transform="matrix(.1,0,0,-.1,0,792)" d="M2308.3 6043.3 2808.3 6543.3V7043.3H2308.3L1808.3 6543.3V6043.3" fill="#c28c24"/>
<path transform="matrix(.1,0,0,-.1,0,792)" stroke-width="20" stroke-linecap="butt" stroke-miterlimit="10" stroke-linejoin="miter" fill="none" stroke="#000000" d="M2308.3 6043.3 2808.3 6543.3V7043.3H2308.3L1808.3 6543.3V6043.3Z"/>
<path transform="matrix(.1,0,0,-.1,0,792)" d="M1308.3 6043.3H1808.3V6543.3H1308.3Z" fill="#b0c4d9"/>
<path transform="matrix(.1,0,0,-.1,0,792)" stroke-width="20" stroke-linecap="butt" stroke-miterlimit="10" stroke-linejoin="miter" fill="none" stroke="#000000" d="M1308.3 6043.3H1808.3V6543.3H1308.3Z"/>
<path transform="matrix(.1,0,0,-.1,0,792)" d="M4308.3 2543.3H4808.3V3043.3H4308.3Z" fill="#b0c4d9"/>
<path transform="matrix(.1,0,0,-.1,0,792)" stroke-width="20" stroke-linecap="butt" stroke-miterlimit="10" stroke-linejoin="miter" fill="none" stroke="#000000" d="M4308.3 2543.3H4808.3V3043.3H4308.3Z"/>
<path transform="matrix(.1,0,0,-.1,0,792)" d="M4308.3 2043.3H4808.3V2543.3H4308.3Z" fill="#b0c4d9"/>
<path transform="matrix(.1,0,0,-.1,0,792)" stroke-width="20" stroke-linecap="butt" stroke-miterlimit="10" stroke-linejoin="miter" fill="none" stroke="#000000" d="M4308.3 2043.3H4808.3V2543.3H4308.3Z"/>
<path transform="matrix(.1,0,0,-.1,0,792)" d="M4308.3 3043.3H4808.3V3543.3H4308.3Z" fill="#b0c4d9"/>
<path transform="matrix(.1,0,0,-.1,0,792)" stroke-width="20" stroke-linecap="butt" stroke-miterlimit="10" stroke-linejoin="miter" fill="none" stroke="#000000" d="M4308.3 3043.3H4808.3V3543.3H4308.3Z"/>
<path transform="matrix(.1,0,0,-.1,0,792)" d="M4308.3 4293.3H4558.3V4543.3H5308.3L4808.3 5043.3H4308.3" fill="#ffffff"/>
<path transform="matrix(.1,0,0,-.1,0,792)" stroke-width="20" stroke-linecap="butt" stroke-miterlimit="10" stroke-linejoin="miter" fill="none" stroke="#000000" d="M4308.3 4293.3H4558.3V4543.3H5308.3L4808.3 5043.3H4308.3Z"/>
<path transform="matrix(.1,0,0,-.1,0,792)" d="M4308.3 5043.3H4808.3V5543.3H4308.3Z" fill="#b0c4d9"/>
<path transform="matrix(.1,0,0,-.1,0,792)" stroke-width="20" stroke-linecap="butt" stroke-miterlimit="10" stroke-linejoin="miter" fill="none" stroke="#000000" d="M4308.3 5043.3H4808.3V5543.3H4308.3Z"/>
<path transform="matrix(.1,0,0,-.1,0,792)" d="M4308.3 5543.3H4808.3V6043.3H4308.3Z" fill="#b0c4d9"/>
<path transform="matrix(.1,0,0,-.1,0,792)" stroke-width="20" stroke-linecap="butt" stroke-miterlimit="10" stroke-linejoin="miter" fill="none" stroke="#000000" d="M4308.3 5543.3H4808.3V6043.3H4308.3Z"/>
<path transform="matrix(.1,0,0,-.1,0,792)" d="M4308.3 6043.3H4808.3V6543.3H4308.3Z" fill="#b0c4d9"/>
<path transform="matrix(.1,0,0,-.1,0,792)" stroke-width="20" stroke-linecap="butt" stroke-miterlimit="10" stroke-linejoin="miter" fill="none" stroke="#000000" d="M4308.3 6043.3H4808.3V6543.3H4308.3Z"/>
<path transform="matrix(.1,0,0,-.1,0,792)" d="M1558.3 4293.3H1308.3V5043.3L808.301 4543.3V4043.3H1558.3" fill="#ffffff"/>
<path transform="matrix(.1,0,0,-.1,0,792)" stroke-width="20" stroke-linecap="butt" stroke-miterlimit="10" stroke-linejoin="miter" fill="none" stroke="#000000" d="M1558.3 4293.3H1308.3V5043.3L808.301 4543.3V4043.3H1558.3Z"/>
<path transform="matrix(.1,0,0,-.1,0,792)" d="M1808.3 2043.3H1308.3V1293.3H1558.3V1543.3H2308.3" fill="#ffffff"/>
<path transform="matrix(.1,0,0,-.1,0,792)" stroke-width="20" stroke-linecap="butt" stroke-miterlimit="10" stroke-linejoin="miter" fill="none" stroke="#000000" d="M1808.3 2043.3H1308.3V1293.3H1558.3V1543.3H2308.3Z"/>
<path transform="matrix(.1,0,0,-.1,0,792)" d="M2808.3 1543.3H3308.3V2043.3H2808.3Z" fill="#b0c4d9"/>
<path transform="matrix(.1,0,0,-.1,0,792)" stroke-width="20" stroke-linecap="butt" stroke-miterlimit="10" stroke-linejoin="miter" fill="none" stroke="#000000" d="M2808.3 1543.3H3308.3V2043.3H2808.3Z"/>
<path transform="matrix(.1,0,0,-.1,0,792)" d="M4308.3 2043.3V1293.3H4558.3V1543.3H5308.3L4808.3 2043.3" fill="#ffffff"/>
<path transform="matrix(.1,0,0,-.1,0,792)" stroke-width="20" stroke-linecap="butt" stroke-miterlimit="10" stroke-linejoin="miter" fill="none" stroke="#000000" d="M4308.3 2043.3V1293.3H4558.3V1543.3H5308.3L4808.3 2043.3Z"/>
<path transform="matrix(.1,0,0,-.1,0,792)" d="M4308.3 2043.3 3808.3 1543.3V1043.3H4558.3V1293.3H4308.3" fill="#ffffff"/>
<path transform="matrix(.1,0,0,-.1,0,792)" stroke-width="20" stroke-linecap="butt" stroke-miterlimit="10" stroke-linejoin="miter" fill="none" stroke="#000000" d="M4308.3 2043.3 3808.3 1543.3V1043.3H4558.3V1293.3H4308.3Z"/>
<path transform="matrix(.1,0,0,-.1,0,792)" d="M4558.3 4293.3H4808.3V3543.3L5308.3 4043.3V4543.3H4558.3" fill="#ffffff"/>
<path transform="matrix(.1,0,0,-.1,0,792)" stroke-width="20" stroke-linecap="butt" stroke-miterlimit="10" stroke-linejoin="miter" fill="none" stroke="#000000" d="M4558.3 4293.3H4808.3V3543.3L5308.3 4043.3V4543.3H4558.3Z"/>
<path transform="matrix(.1,0,0,-.1,0,792)" d="M808.301 5543.3H1308.301V6043.3H808.301Z" fill="#b0c4d9"/>
<path transform="matrix(.1,0,0,-.1,0,792)" stroke-width="20" stroke-linecap="butt" stroke-miterlimit="10" stroke-linejoin="miter" fill="none" stroke="#000000" d="M808.301 5543.3H1308.301V6043.3H808.301Z"/>
<path transform="matrix(.1,0,0,-.1,0,792)" d="M1308.3 6043.3V6543.3L808.301 7043.3H308.301V6543.3L808.301 6043.3" fill="#c28c24"/>
<path transform="matrix(.1,0,0,-.1,0,792)" stroke-width="20" stroke-linecap="butt" stroke-miterlimit="10" stroke-linejoin="miter" fill="none" stroke="#000000" d="M1308.3 6043.3V6543.3L808.301 7043.3H308.301V6543.3L808.301 6043.3Z"/>
<path transform="matrix(.1,0,0,-.1,0,792)" d="M1308.3 5543.3H808.301L308.301 5043.3V4543.3H808.301L1308.3 5043.3" fill="#c28c24"/>
<path transform="matrix(.1,0,0,-.1,0,792)" stroke-width="20" stroke-linecap="butt" stroke-miterlimit="10" stroke-linejoin="miter" fill="none" stroke="#000000" d="M1308.3 5543.3H808.301L308.301 5043.3V4543.3H808.301L1308.3 5043.3Z"/>
<path transform="matrix(.1,0,0,-.1,0,792)" d="M1308.3 3543.3 808.301 4043.3H308.301V3543.3L808.301 3043.3H1308.3" fill="#c28c24"/>
<path transform="matrix(.1,0,0,-.1,0,792)" stroke-width="20" stroke-linecap="butt" stroke-miterlimit="10" stroke-linejoin="miter" fill="none" stroke="#000000" d="M1308.3 3543.3 808.301 4043.3H308.301V3543.3L808.301 3043.3H1308.3Z"/>
<path transform="matrix(.1,0,0,-.1,0,792)" d="M808.301 2543.3H1308.301V3043.3H808.301Z" fill="#b0c4d9"/>
<path transform="matrix(.1,0,0,-.1,0,792)" stroke-width="20" stroke-linecap="butt" stroke-miterlimit="10" stroke-linejoin="miter" fill="none" stroke="#000000" d="M808.301 2543.3H1308.301V3043.3H808.301Z"/>
<path transform="matrix(.1,0,0,-.1,0,792)" d="M1308.3 2543.3H808.301L308.301 2043.3V1543.3H808.301L1308.3 2043.3" fill="#c28c24"/>
<path transform="matrix(.1,0,0,-.1,0,792)" stroke-width="20" stroke-linecap="butt" stroke-miterlimit="10" stroke-linejoin="miter" fill="none" stroke="#000000" d="M1308.3 2543.3H808.301L308.301 2043.3V1543.3H808.301L1308.3 2043.3Z"/>
<path transform="matrix(.1,0,0,-.1,0,792)" d="M1308.3 2043.3 808.301 1543.3V1043.3H1558.3V1293.3H1308.3" fill="#ffffff"/>
<path transform="matrix(.1,0,0,-.1,0,792)" stroke-width="20" stroke-linecap="butt" stroke-miterlimit="10" stroke-linejoin="miter" fill="none" stroke="#000000" d="M1308.3 2043.3 808.301 1543.3V1043.3H1558.3V1293.3H1308.3Z"/>
<path transform="matrix(.1,0,0,-.1,0,792)" d="M4308.3 6543.3H4808.3V7293.3H4558.3V7043.3H3808.3" fill="#ffffff"/>
<path transform="matrix(.1,0,0,-.1,0,792)" stroke-width="20" stroke-linecap="butt" stroke-miterlimit="10" stroke-linejoin="miter" fill="none" stroke="#000000" d="M4308.3 6543.3H4808.3V7293.3H4558.3V7043.3H3808.3Z"/>
<path transform="matrix(.1,0,0,-.1,0,792)" d="M2808.3 6543.3H3308.3V7043.3H2808.3Z" fill="#b0c4d9"/>
<path transform="matrix(.1,0,0,-.1,0,792)" stroke-width="20" stroke-linecap="butt" stroke-miterlimit="10" stroke-linejoin="miter" fill="none" stroke="#000000" d="M2808.3 6543.3H3308.3V7043.3H2808.3Z"/>
<path transform="matrix(.1,0,0,-.1,0,792)" d="M1808.3 6543.3V7293.3H1558.3V7043.3H808.301L1308.3 6543.3" fill="#ffffff"/>
<path transform="matrix(.1,0,0,-.1,0,792)" stroke-width="20" stroke-linecap="butt" stroke-miterlimit="10" stroke-linejoin="miter" fill="none" stroke="#000000" d="M1808.3 6543.3V7293.3H1558.3V7043.3H808.301L1308.3 6543.3Z"/>
<path transform="matrix(.1,0,0,-.1,0,792)" d="M1808.3 6543.3 2308.3 7043.3V7543.3H1558.3V7293.3H1808.3" fill="#ffffff"/>
<path transform="matrix(.1,0,0,-.1,0,792)" stroke-width="20" stroke-linecap="butt" stroke-miterlimit="10" stroke-linejoin="miter" fill="none" stroke="#000000" d="M1808.3 6543.3 2308.3 7043.3V7543.3H1558.3V7293.3H1808.3Z"/>
<path transform="matrix(.1,0,0,-.1,0,792)" d="M4808.3 2043.3 5308.3 1543.3H5808.3V2043.3L5308.3 2543.3H4808.3" fill="#c28c24"/>
<path transform="matrix(.1,0,0,-.1,0,792)" stroke-width="20" stroke-linecap="butt" stroke-miterlimit="10" stroke-linejoin="miter" fill="none" stroke="#000000" d="M4808.3 2043.3 5308.3 1543.3H5808.3V2043.3L5308.3 2543.3H4808.3Z"/>
<path transform="matrix(.1,0,0,-.1,0,792)" d="M4808.3 2543.3H5308.3V3043.3H4808.3Z" fill="#b0c4d9"/>
<path transform="matrix(.1,0,0,-.1,0,792)" stroke-width="20" stroke-linecap="butt" stroke-miterlimit="10" stroke-linejoin="miter" fill="none" stroke="#000000" d="M4808.3 2543.3H5308.3V3043.3H4808.3Z"/>
<path transform="matrix(.1,0,0,-.1,0,792)" d="M4808.3 3043.3H5308.3L5808.3 3543.3V4043.3H5308.3L4808.3 3543.3" fill="#c28c24"/>
<path transform="matrix(.1,0,0,-.1,0,792)" stroke-width="20" stroke-linecap="butt" stroke-miterlimit="10" stroke-linejoin="miter" fill="none" stroke="#000000" d="M4808.3 3043.3H5308.3L5808.3 3543.3V4043.3H5308.3L4808.3 3543.3Z"/>
<path transform="matrix(.1,0,0,-.1,0,792)" d="M4808.3 5043.3 5308.3 4543.3H5808.3V5043.3L5308.3 5543.3H4808.3" fill="#c28c24"/>
<path transform="matrix(.1,0,0,-.1,0,792)" stroke-width="20" stroke-linecap="butt" stroke-miterlimit="10" stroke-linejoin="miter" fill="none" stroke="#000000" d="M4808.3 5043.3 5308.3 4543.3H5808.3V5043.3L5308.3 5543.3H4808.3Z"/>
<path transform="matrix(.1,0,0,-.1,0,792)" d="M4808.3 5543.3H5308.3V6043.3H4808.3Z" fill="#b0c4d9"/>
<path transform="matrix(.1,0,0,-.1,0,792)" stroke-width="20" stroke-linecap="butt" stroke-miterlimit="10" stroke-linejoin="miter" fill="none" stroke="#000000" d="M4808.3 5543.3H5308.3V6043.3H4808.3Z"/>
<path transform="matrix(.1,0,0,-.1,0,792)" d="M4808.3 6043.3H5308.3L5808.3 6543.3V7043.3H5308.3L4808.3 6543.3" fill="#c28c24"/>
<path transform="matrix(.1,0,0,-.1,0,792)" stroke-width="20" stroke-linecap="butt" stroke-miterlimit="10" stroke-linejoin="miter" fill="none" stroke="#000000" d="M4808.3 6043.3H5308.3L5808.3 6543.3V7043.3H5308.3L4808.3 6543.3Z"/>
<path transform="matrix(.1,0,0,-.1,0,792)" d="M4808.3 6543.3 5308.3 7043.3V7543.3H4558.3V7293.3H4808.3" fill="#ffffff"/>
<path transform="matrix(.1,0,0,-.1,0,792)" stroke-width="20" stroke-linecap="butt" stroke-miterlimit="10" stroke-linejoin="miter" fill="none" stroke="#000000" d="M4808.3 6543.3 5308.3 7043.3V7543.3H4558.3V7293.3H4808.3Z"/>
<path transform="matrix(.1,0,0,-.1,0,792)" d="M1558.3 1543.3V1293.3H1808.3V543.301L2308.3 1043.3V1543.3" fill="#ffffff"/>
<path transform="matrix(.1,0,0,-.1,0,792)" stroke-width="20" stroke-linecap="butt" stroke-miterlimit="10" stroke-linejoin="miter" fill="none" stroke="#000000" d="M1558.3 1543.3V1293.3H1808.3V543.301L2308.3 1043.3V1543.3Z"/>
<path transform="matrix(.1,0,0,-.1,0,792)" d="M2308.3 1043.3H2808.3V1543.3H2308.3Z" fill="#b0c4d9"/>
<path transform="matrix(.1,0,0,-.1,0,792)" stroke-width="20" stroke-linecap="butt" stroke-miterlimit="10" stroke-linejoin="miter" fill="none" stroke="#000000" d="M2308.3 1043.3H2808.3V1543.3H2308.3Z"/>
<path transform="matrix(.1,0,0,-.1,0,792)" d="M2808.3 1043.3H3308.3V1543.3H2808.3Z" fill="#b0c4d9"/>
<path transform="matrix(.1,0,0,-.1,0,792)" stroke-width="20" stroke-linecap="butt" stroke-miterlimit="10" stroke-linejoin="miter" fill="none" stroke="#000000" d="M2808.3 1043.3H3308.3V1543.3H2808.3Z"/>
<path transform="matrix(.1,0,0,-.1,0,792)" d="M3308.3 1043.3H3808.3V1543.3H3308.3Z" fill="#b0c4d9"/>
<path transform="matrix(.1,0,0,-.1,0,792)" stroke-width="20" stroke-linecap="butt" stroke-miterlimit="10" stroke-linejoin="miter" fill="none" stroke="#000000" d="M3308.3 1043.3H3808.3V1543.3H3308.3Z"/>
<path transform="matrix(.1,0,0,-.1,0,792)" d="M4558.3 1543.3V1293.3H4808.3V543.301L5308.3 1043.3V1543.3" fill="#ffffff"/>
<path transform="matrix(.1,0,0,-.1,0,792)" stroke-width="20" stroke-linecap="butt" stroke-miterlimit="10" stroke-linejoin="miter" fill="none" stroke="#000000" d="M4558.3 1543.3V1293.3H4808.3V543.301L5308.3 1043.3V1543.3Z"/>
<path transform="matrix(.1,0,0,-.1,0,792)" d="M4558.3 7043.3V7293.3H4308.3V8043.3L3808.3 7543.3V7043.3" fill="#ffffff"/>
<path transform="matrix(.1,0,0,-.1,0,792)" stroke-width="20" stroke-linecap="butt" stroke-miterlimit="10" stroke-linejoin="miter" fill="none" stroke="#000000" d="M4558.3 7043.3V7293.3H4308.3V8043.3L3808.3 7543.3V7043.3Z"/>
<path transform="matrix(.1,0,0,-.1,0,792)" d="M3308.3 7043.3H3808.3V7543.3H3308.3Z" fill="#b0c4d9"/>
<path transform="matrix(.1,0,0,-.1,0,792)" stroke-width="20" stroke-linecap="butt" stroke-miterlimit="10" stroke-linejoin="miter" fill="none" stroke="#000000" d="M3308.3 7043.3H3808.3V7543.3H3308.3Z"/>
<path transform="matrix(.1,0,0,-.1,0,792)" d="M2808.3 7043.3H3308.3V7543.3H2808.3Z" fill="#b0c4d9"/>
<path transform="matrix(.1,0,0,-.1,0,792)" stroke-width="20" stroke-linecap="butt" stroke-miterlimit="10" stroke-linejoin="miter" fill="none" stroke="#000000" d="M2808.3 7043.3H3308.3V7543.3H2808.3Z"/>
<path transform="matrix(.1,0,0,-.1,0,792)" d="M2308.3 7043.3H2808.3V7543.3H2308.3Z" fill="#b0c4d9"/>
<path transform="matrix(.1,0,0,-.1,0,792)" stroke-width="20" stroke-linecap="butt" stroke-miterlimit="10" stroke-linejoin="miter" fill="none" stroke="#000000" d="M2308.3 7043.3H2808.3V7543.3H2308.3Z"/>
<path transform="matrix(.1,0,0,-.1,0,792)" d="M1558.3 7043.3V7293.3H1308.3V8043.3L808.301 7543.3V7043.3" fill="#ffffff"/>
<path transform="matrix(.1,0,0,-.1,0,792)" stroke-width="20" stroke-linecap="butt" stroke-miterlimit="10" stroke-linejoin="miter" fill="none" stroke="#000000" d="M1558.3 7043.3V7293.3H1308.3V8043.3L808.301 7543.3V7043.3Z"/>
<path transform="matrix(.1,0,0,-.1,0,792)" d="M1558.3 1293.3V1043.3H808.301L1308.3 543.301H1808.3V1293.3" fill="#ffffff"/>
<path transform="matrix(.1,0,0,-.1,0,792)" stroke-width="20" stroke-linecap="butt" stroke-miterlimit="10" stroke-linejoin="miter" fill="none" stroke="#000000" d="M1558.3 1293.3V1043.3H808.301L1308.3 543.301H1808.3V1293.3Z"/>
<path transform="matrix(.1,0,0,-.1,0,792)" d="M4558.3 1293.3V1043.3H3808.3L4308.3 543.301H4808.3V1293.3" fill="#ffffff"/>
<path transform="matrix(.1,0,0,-.1,0,792)" stroke-width="20" stroke-linecap="butt" stroke-miterlimit="10" stroke-linejoin="miter" fill="none" stroke="#000000" d="M4558.3 1293.3V1043.3H3808.3L4308.3 543.301H4808.3V1293.3Z"/>
<path transform="matrix(.1,0,0,-.1,0,792)" d="M308.301 7043.3H808.301V7543.3H308.301Z" fill="#b0c4d9"/>
<path transform="matrix(.1,0,0,-.1,0,792)" stroke-width="20" stroke-linecap="butt" stroke-miterlimit="10" stroke-linejoin="miter" fill="none" stroke="#000000" d="M308.301 7043.3H808.301V7543.3H308.301Z"/>
<path transform="matrix(.1,0,0,-.1,0,792)" d="M808.301 6043.3H58.3008V5793.3H308.301V5043.3L808.301 5543.3" fill="#ffffff"/>
<path transform="matrix(.1,0,0,-.1,0,792)" stroke-width="20" stroke-linecap="butt" stroke-miterlimit="10" stroke-linejoin="miter" fill="none" stroke="#000000" d="M808.301 6043.3H58.3008V5793.3H308.301V5043.3L808.301 5543.3Z"/>
<path transform="matrix(.1,0,0,-.1,0,792)" d="M808.301 6043.3 308.301 6543.3H-191.699V5793.3H58.3008V6043.3" fill="#ffffff"/>
<path transform="matrix(.1,0,0,-.1,0,792)" stroke-width="20" stroke-linecap="butt" stroke-miterlimit="10" stroke-linejoin="miter" fill="none" stroke="#000000" d="M808.301 6043.3 308.301 6543.3H-191.699V5793.3H58.3008V6043.3Z"/>
<path transform="matrix(.1,0,0,-.1,0,792)" d="M308.301 4043.3H808.301V4543.3H308.301Z" fill="#b0c4d9"/>
<path transform="matrix(.1,0,0,-.1,0,792)" stroke-width="20" stroke-linecap="butt" stroke-miterlimit="10" stroke-linejoin="miter" fill="none" stroke="#000000" d="M308.301 4043.3H808.301V4543.3H308.301Z"/>
<path transform="matrix(.1,0,0,-.1,0,792)" d="M808.301 3043.3H58.3008V2793.3H308.301V2043.3L808.301 2543.3" fill="#ffffff"/>
<path transform="matrix(.1,0,0,-.1,0,792)" stroke-width="20" stroke-linecap="butt" stroke-miterlimit="10" stroke-linejoin="miter" fill="none" stroke="#000000" d="M808.301 3043.3H58.3008V2793.3H308.301V2043.3L808.301 2543.3Z"/>
<path transform="matrix(.1,0,0,-.1,0,792)" d="M808.301 3043.3 308.301 3543.3H-191.699V2793.3H58.3008V3043.3" fill="#ffffff"/>
<path transform="matrix(.1,0,0,-.1,0,792)" stroke-width="20" stroke-linecap="butt" stroke-miterlimit="10" stroke-linejoin="miter" fill="none" stroke="#000000" d="M808.301 3043.3 308.301 3543.3H-191.699V2793.3H58.3008V3043.3Z"/>
<path transform="matrix(.1,0,0,-.1,0,792)" d="M308.301 1043.3H808.301V1543.3H308.301Z" fill="#b0c4d9"/>
<path transform="matrix(.1,0,0,-.1,0,792)" stroke-width="20" stroke-linecap="butt" stroke-miterlimit="10" stroke-linejoin="miter" fill="none" stroke="#000000" d="M308.301 1043.3H808.301V1543.3H308.301Z"/>
<path transform="matrix(.1,0,0,-.1,0,792)" d="M4558.3 7293.3V7543.3H5308.3L4808.3 8043.3H4308.3V7293.3" fill="#ffffff"/>
<path transform="matrix(.1,0,0,-.1,0,792)" stroke-width="20" stroke-linecap="butt" stroke-miterlimit="10" stroke-linejoin="miter" fill="none" stroke="#000000" d="M4558.3 7293.3V7543.3H5308.3L4808.3 8043.3H4308.3V7293.3Z"/>
<path transform="matrix(.1,0,0,-.1,0,792)" d="M1558.3 7293.3V7543.3H2308.3L1808.3 8043.3H1308.3V7293.3" fill="#ffffff"/>
<path transform="matrix(.1,0,0,-.1,0,792)" stroke-width="20" stroke-linecap="butt" stroke-miterlimit="10" stroke-linejoin="miter" fill="none" stroke="#000000" d="M1558.3 7293.3V7543.3H2308.3L1808.3 8043.3H1308.3V7293.3Z"/>
<path transform="matrix(.1,0,0,-.1,0,792)" d="M808.301 1043.3H308.301V543.301L808.301 43.3008H1308.3V543.301" fill="#c28c24"/>
<path transform="matrix(.1,0,0,-.1,0,792)" stroke-width="20" stroke-linecap="butt" stroke-miterlimit="10" stroke-linejoin="miter" fill="none" stroke="#000000" d="M808.301 1043.3H308.301V543.301L808.301 43.3008H1308.3V543.301Z"/>
<path transform="matrix(.1,0,0,-.1,0,792)" d="M2308.3 1043.3 1808.3 543.301V43.3008H2308.3L2808.3 543.301V1043.3" fill="#c28c24"/>
<path transform="matrix(.1,0,0,-.1,0,792)" stroke-width="20" stroke-linecap="butt" stroke-miterlimit="10" stroke-linejoin="miter" fill="none" stroke="#000000" d="M2308.3 1043.3 1808.3 543.301V43.3008H2308.3L2808.3 543.301V1043.3Z"/>
<path transform="matrix(.1,0,0,-.1,0,792)" d="M2808.3 543.301H3308.3V1043.301H2808.3Z" fill="#b0c4d9"/>
<path transform="matrix(.1,0,0,-.1,0,792)" stroke-width="20" stroke-linecap="butt" stroke-miterlimit="10" stroke-linejoin="miter" fill="none" stroke="#000000" d="M2808.3 543.301H3308.3V1043.301H2808.3Z"/>
<path transform="matrix(.1,0,0,-.1,0,792)" d="M3308.3 1043.3V543.301L3808.3 43.3008H4308.3V543.301L3808.3 1043.3" fill="#c28c24"/>
<path transform="matrix(.1,0,0,-.1,0,792)" stroke-width="20" stroke-linecap="butt" stroke-miterlimit="10" stroke-linejoin="miter" fill="none" stroke="#000000" d="M3308.3 1043.3V543.301L3808.3 43.3008H4308.3V543.301L3808.3 1043.3Z"/>
<path transform="matrix(.1,0,0,-.1,0,792)" d="M5308.3 1043.3H5808.3V1543.3H5308.3Z" fill="#b0c4d9"/>
<path transform="matrix(.1,0,0,-.1,0,792)" stroke-width="20" stroke-linecap="butt" stroke-miterlimit="10" stroke-linejoin="miter" fill="none" stroke="#000000" d="M5308.3 1043.3H5808.3V1543.3H5308.3Z"/>
<path transform="matrix(.1,0,0,-.1,0,792)" d="M5308.3 1043.3 4808.3 543.301V43.3008H5308.3L5808.3 543.301V1043.3" fill="#c28c24"/>
<path transform="matrix(.1,0,0,-.1,0,792)" stroke-width="20" stroke-linecap="butt" stroke-miterlimit="10" stroke-linejoin="miter" fill="none" stroke="#000000" d="M5308.3 1043.3 4808.3 543.301V43.3008H5308.3L5808.3 543.301V1043.3Z"/>
<path transform="matrix(.1,0,0,-.1,0,792)" d="M5308.3 2543.3H6058.3V2793.3H5808.3V3543.3L5308.3 3043.3" fill="#ffffff"/>
<path transform="matrix(.1,0,0,-.1,0,792)" stroke-width="20" stroke-linecap="butt" stroke-miterlimit="10" stroke-linejoin="miter" fill="none" stroke="#000000" d="M5308.3 2543.3H6058.3V2793.3H5808.3V3543.3L5308.3 3043.3Z"/>
<path transform="matrix(.1,0,0,-.1,0,792)" d="M5308.3 2543.3 5808.3 2043.3H6308.3V2793.3H6058.3V2543.3" fill="#ffffff"/>
<path transform="matrix(.1,0,0,-.1,0,792)" stroke-width="20" stroke-linecap="butt" stroke-miterlimit="10" stroke-linejoin="miter" fill="none" stroke="#000000" d="M5308.3 2543.3 5808.3 2043.3H6308.3V2793.3H6058.3V2543.3Z"/>
<path transform="matrix(.1,0,0,-.1,0,792)" d="M5308.3 4043.3H5808.3V4543.3H5308.3Z" fill="#b0c4d9"/>
<path transform="matrix(.1,0,0,-.1,0,792)" stroke-width="20" stroke-linecap="butt" stroke-miterlimit="10" stroke-linejoin="miter" fill="none" stroke="#000000" d="M5308.3 4043.3H5808.3V4543.3H5308.3Z"/>
<path transform="matrix(.1,0,0,-.1,0,792)" d="M5308.3 5543.3H6058.3V5793.3H5808.3V6543.3L5308.3 6043.3" fill="#ffffff"/>
<path transform="matrix(.1,0,0,-.1,0,792)" stroke-width="20" stroke-linecap="butt" stroke-miterlimit="10" stroke-linejoin="miter" fill="none" stroke="#000000" d="M5308.3 5543.3H6058.3V5793.3H5808.3V6543.3L5308.3 6043.3Z"/>
<path transform="matrix(.1,0,0,-.1,0,792)" d="M5308.3 5543.3 5808.3 5043.3H6308.3V5793.3H6058.3V5543.3" fill="#ffffff"/>
<path transform="matrix(.1,0,0,-.1,0,792)" stroke-width="20" stroke-linecap="butt" stroke-miterlimit="10" stroke-linejoin="miter" fill="none" stroke="#000000" d="M5308.3 5543.3 5808.3 5043.3H6308.3V5793.3H6058.3V5543.3Z"/>
<path transform="matrix(.1,0,0,-.1,0,792)" d="M5308.3 7043.3H5808.3V7543.3H5308.3Z" fill="#b0c4d9"/>
<path transform="matrix(.1,0,0,-.1,0,792)" stroke-width="20" stroke-linecap="butt" stroke-miterlimit="10" stroke-linejoin="miter" fill="none" stroke="#000000" d="M5308.3 7043.3H5808.3V7543.3H5308.3Z"/>
<path transform="matrix(.1,0,0,-.1,0,792)" d="M5308.3 7543.3H5808.3V8043.3L5308.3 8543.3H4808.3V8043.3" fill="#c28c24"/>
<path transform="matrix(.1,0,0,-.1,0,792)" stroke-width="20" stroke-linecap="butt" stroke-miterlimit="10" stroke-linejoin="miter" fill="none" stroke="#000000" d="M5308.3 7543.3H5808.3V8043.3L5308.3 8543.3H4808.3V8043.3Z"/>
<path transform="matrix(.1,0,0,-.1,0,792)" d="M3808.3 7543.3 4308.3 8043.3V8543.3H3808.3L3308.3 8043.3V7543.3" fill="#c28c24"/>
<path transform="matrix(.1,0,0,-.1,0,792)" stroke-width="20" stroke-linecap="butt" stroke-miterlimit="10" stroke-linejoin="miter" fill="none" stroke="#000000" d="M3808.3 7543.3 4308.3 8043.3V8543.3H3808.3L3308.3 8043.3V7543.3Z"/>
<path transform="matrix(.1,0,0,-.1,0,792)" d="M2808.3 7543.3H3308.3V8043.3H2808.3Z" fill="#b0c4d9"/>
<path transform="matrix(.1,0,0,-.1,0,792)" stroke-width="20" stroke-linecap="butt" stroke-miterlimit="10" stroke-linejoin="miter" fill="none" stroke="#000000" d="M2808.3 7543.3H3308.3V8043.3H2808.3Z"/>
<path transform="matrix(.1,0,0,-.1,0,792)" d="M2808.3 7543.3V8043.3L2308.3 8543.3H1808.3V8043.3L2308.3 7543.3" fill="#c28c24"/>
<path transform="matrix(.1,0,0,-.1,0,792)" stroke-width="20" stroke-linecap="butt" stroke-miterlimit="10" stroke-linejoin="miter" fill="none" stroke="#000000" d="M2808.3 7543.3V8043.3L2308.3 8543.3H1808.3V8043.3L2308.3 7543.3Z"/>
<path transform="matrix(.1,0,0,-.1,0,792)" d="M808.301 7543.3 1308.3 8043.3V8543.3H808.301L308.301 8043.3V7543.3" fill="#c28c24"/>
<path transform="matrix(.1,0,0,-.1,0,792)" stroke-width="20" stroke-linecap="butt" stroke-miterlimit="10" stroke-linejoin="miter" fill="none" stroke="#000000" d="M808.301 7543.3 1308.3 8043.3V8543.3H808.301L308.301 8043.3V7543.3Z"/>
<path transform="matrix(.1,0,0,-.1,0,792)" d="M1308.3 43.3008H1808.3V543.3008H1308.3Z" fill="#b0c4d9"/>
<path transform="matrix(.1,0,0,-.1,0,792)" stroke-width="20" stroke-linecap="butt" stroke-miterlimit="10" stroke-linejoin="miter" fill="none" stroke="#000000" d="M1308.3 43.3008H1808.3V543.3008H1308.3Z"/>
<path transform="matrix(.1,0,0,-.1,0,792)" d="M2808.3 543.301V-206.699H3058.3V43.3008H3808.3L3308.3 543.301" fill="#ffffff"/>
<path transform="matrix(.1,0,0,-.1,0,792)" stroke-width="20" stroke-linecap="butt" stroke-miterlimit="10" stroke-linejoin="miter" fill="none" stroke="#000000" d="M2808.3 543.301V-206.699H3058.3V43.3008H3808.3L3308.3 543.301Z"/>
<path transform="matrix(.1,0,0,-.1,0,792)" d="M2808.3 543.301 2308.3 43.3008V-456.699H3058.3V-206.699H2808.3" fill="#ffffff"/>
<path transform="matrix(.1,0,0,-.1,0,792)" stroke-width="20" stroke-linecap="butt" stroke-miterlimit="10" stroke-linejoin="miter" fill="none" stroke="#000000" d="M2808.3 543.301 2308.3 43.3008V-456.699H3058.3V-206.699H2808.3Z"/>
<path transform="matrix(.1,0,0,-.1,0,792)" d="M4308.3 43.3008H4808.3V543.3008H4308.3Z" fill="#b0c4d9"/>
<path transform="matrix(.1,0,0,-.1,0,792)" stroke-width="20" stroke-linecap="butt" stroke-miterlimit="10" stroke-linejoin="miter" fill="none" stroke="#000000" d="M4308.3 43.3008H4808.3V543.3008H4308.3Z"/>
<path transform="matrix(.1,0,0,-.1,0,792)" d="M0 7043.3H308.301V7543.3H0Z" fill="#b0c4d9"/>
<path transform="matrix(.1,0,0,-.1,0,792)" stroke-width="20" stroke-linecap="butt" stroke-miterlimit="10" stroke-linejoin="miter" fill="none" stroke="#000000" d="M-10.9961 7043.3H308.3009V7543.3H-10.9961Z"/>
<path transform="matrix(.1,0,0,-.1,0,792)" d="M0 7543.3H308.301V8043.3H0Z" fill="#b0c4d9"/>
<path transform="matrix(.1,0,0,-.1,0,792)" stroke-width="20" stroke-linecap="butt" stroke-miterlimit="10" stroke-linejoin="miter" fill="none" stroke="#000000" d="M-10.9961 7543.3H308.3009V8043.3H-10.9961Z"/>
<path transform="matrix(.1,0,0,-.1,0,792)" d="M0 6543.3H308.301V7043.3H0Z" fill="#b0c4d9"/>
<path transform="matrix(.1,0,0,-.1,0,792)" stroke-width="20" stroke-linecap="butt" stroke-miterlimit="10" stroke-linejoin="miter" fill="none" stroke="#000000" d="M-10.9961 6543.3H308.3009V7043.3H-10.9961Z"/>
<path transform="matrix(.1,0,0,-.1,0,792)" d="M308.301 5793.3H58.3008V5543.3H-691.699L-191.699 5043.3H308.301" fill="#ffffff"/>
<path transform="matrix(.1,0,0,-.1,0,792)" stroke-width="20" stroke-linecap="butt" stroke-miterlimit="10" stroke-linejoin="miter" fill="none" stroke="#000000" d="M308.301 5793.3H58.3008V5543.3H-691.699L-191.699 5043.3H308.301Z"/>
<path transform="matrix(.1,0,0,-.1,0,792)" d="M0 4543.3H308.301V5043.3H0Z" fill="#b0c4d9"/>
<path transform="matrix(.1,0,0,-.1,0,792)" stroke-width="20" stroke-linecap="butt" stroke-miterlimit="10" stroke-linejoin="miter" fill="none" stroke="#000000" d="M-10.9961 4543.3H308.3009V5043.3H-10.9961Z"/>
<path transform="matrix(.1,0,0,-.1,0,792)" d="M0 4043.3H308.301V4543.3H0Z" fill="#b0c4d9"/>
<path transform="matrix(.1,0,0,-.1,0,792)" stroke-width="20" stroke-linecap="butt" stroke-miterlimit="10" stroke-linejoin="miter" fill="none" stroke="#000000" d="M-10.9961 4043.3H308.3009V4543.3H-10.9961Z"/>
<path transform="matrix(.1,0,0,-.1,0,792)" d="M0 3543.3H308.301V4043.3H0Z" fill="#b0c4d9"/>
<path transform="matrix(.1,0,0,-.1,0,792)" stroke-width="20" stroke-linecap="butt" stroke-miterlimit="10" stroke-linejoin="miter" fill="none" stroke="#000000" d="M-10.9961 3543.3H308.3009V4043.3H-10.9961Z"/>
<path transform="matrix(.1,0,0,-.1,0,792)" d="M308.301 2793.3H58.3008V2543.3H-691.699L-191.699 2043.3H308.301" fill="#ffffff"/>
<path transform="matrix(.1,0,0,-.1,0,792)" stroke-width="20" stroke-linecap="butt" stroke-miterlimit="10" stroke-linejoin="miter" fill="none" stroke="#000000" d="M308.301 2793.3H58.3008V2543.3H-691.699L-191.699 2043.3H308.301Z"/>
<path transform="matrix(.1,0,0,-.1,0,792)" d="M0 1543.3H308.301V2043.3H0Z" fill="#b0c4d9"/>
<path transform="matrix(.1,0,0,-.1,0,792)" stroke-width="20" stroke-linecap="butt" stroke-miterlimit="10" stroke-linejoin="miter" fill="none" stroke="#000000" d="M-10.9961 1543.3H308.3009V2043.3H-10.9961Z"/>
<path transform="matrix(.1,0,0,-.1,0,792)" d="M0 1043.3H308.301V1543.3H0Z" fill="#b0c4d9"/>
<path transform="matrix(.1,0,0,-.1,0,792)" stroke-width="20" stroke-linecap="butt" stroke-miterlimit="10" stroke-linejoin="miter" fill="none" stroke="#000000" d="M-10.9961 1043.3H308.3009V1543.3H-10.9961Z"/>
<path transform="matrix(.1,0,0,-.1,0,792)" d="M0 543.301H308.301V1043.301H0Z" fill="#b0c4d9"/>
<path transform="matrix(.1,0,0,-.1,0,792)" stroke-width="20" stroke-linecap="butt" stroke-miterlimit="10" stroke-linejoin="miter" fill="none" stroke="#000000" d="M-10.9961 543.301H308.3009V1043.301H-10.9961Z"/>
<path transform="matrix(.1,0,0,-.1,0,792)" d="M308.301 543.301H-191.699V-206.699H58.3008V43.3008H808.301" fill="#ffffff"/>
<path transform="matrix(.1,0,0,-.1,0,792)" stroke-width="20" stroke-linecap="butt" stroke-miterlimit="10" stroke-linejoin="miter" fill="none" stroke="#000000" d="M308.301 543.301H-191.699V-206.699H58.3008V43.3008H808.301Z"/>
<path transform="matrix(.1,0,0,-.1,0,792)" d="M5808.3 543.301H6308.3V1043.301H5808.3Z" fill="#b0c4d9"/>
<path transform="matrix(.1,0,0,-.1,0,792)" stroke-width="20" stroke-linecap="butt" stroke-miterlimit="10" stroke-linejoin="miter" fill="none" stroke="#000000" d="M5808.3 543.301H6308.3V1043.301H5808.3Z"/>
<path transform="matrix(.1,0,0,-.1,0,792)" d="M5808.3 543.301V-206.699H6058.3V43.3008H6808.3L6308.3 543.301" fill="#ffffff"/>
<path transform="matrix(.1,0,0,-.1,0,792)" stroke-width="20" stroke-linecap="butt" stroke-miterlimit="10" stroke-linejoin="miter" fill="none" stroke="#000000" d="M5808.3 543.301V-206.699H6058.3V43.3008H6808.3L6308.3 543.301Z"/>
<path transform="matrix(.1,0,0,-.1,0,792)" d="M5808.3 543.301 5308.3 43.3008V-456.699H6058.3V-206.699H5808.3" fill="#ffffff"/>
<path transform="matrix(.1,0,0,-.1,0,792)" stroke-width="20" stroke-linecap="butt" stroke-miterlimit="10" stroke-linejoin="miter" fill="none" stroke="#000000" d="M5808.3 543.301 5308.3 43.3008V-456.699H6058.3V-206.699H5808.3Z"/>
<path transform="matrix(.1,0,0,-.1,0,792)" d="M5808.3 1043.3H6308.3V1543.3H5808.3Z" fill="#b0c4d9"/>
<path transform="matrix(.1,0,0,-.1,0,792)" stroke-width="20" stroke-linecap="butt" stroke-miterlimit="10" stroke-linejoin="miter" fill="none" stroke="#000000" d="M5808.3 1043.3H6308.3V1543.3H5808.3Z"/>
<path transform="matrix(.1,0,0,-.1,0,792)" d="M5808.3 1543.3H6308.3V2043.3H5808.3Z" fill="#b0c4d9"/>
<path transform="matrix(.1,0,0,-.1,0,792)" stroke-width="20" stroke-linecap="butt" stroke-miterlimit="10" stroke-linejoin="miter" fill="none" stroke="#000000" d="M5808.3 1543.3H6308.3V2043.3H5808.3Z"/>
<path transform="matrix(.1,0,0,-.1,0,792)" d="M5808.3 2793.3H6058.3V3043.3H6808.3L6308.3 3543.3H5808.3" fill="#ffffff"/>
<path transform="matrix(.1,0,0,-.1,0,792)" stroke-width="20" stroke-linecap="butt" stroke-miterlimit="10" stroke-linejoin="miter" fill="none" stroke="#000000" d="M5808.3 2793.3H6058.3V3043.3H6808.3L6308.3 3543.3H5808.3Z"/>
<path transform="matrix(.1,0,0,-.1,0,792)" d="M5808.3 3543.3H6308.3V4043.3H5808.3Z" fill="#b0c4d9"/>
<path transform="matrix(.1,0,0,-.1,0,792)" stroke-width="20" stroke-linecap="butt" stroke-miterlimit="10" stroke-linejoin="miter" fill="none" stroke="#000000" d="M5808.3 3543.3H6308.3V4043.3H5808.3Z"/>
<path transform="matrix(.1,0,0,-.1,0,792)" d="M5808.3 4043.3H6308.3V4543.3H5808.3Z" fill="#b0c4d9"/>
<path transform="matrix(.1,0,0,-.1,0,792)" stroke-width="20" stroke-linecap="butt" stroke-miterlimit="10" stroke-linejoin="miter" fill="none" stroke="#000000" d="M5808.3 4043.3H6308.3V4543.3H5808.3Z"/>
<path transform="matrix(.1,0,0,-.1,0,792)" d="M5808.3 4543.3H6308.3V5043.3H5808.3Z" fill="#b0c4d9"/>
<path transform="matrix(.1,0,0,-.1,0,792)" stroke-width="20" stroke-linecap="butt" stroke-miterlimit="10" stroke-linejoin="miter" fill="none" stroke="#000000" d="M5808.3 4543.3H6308.3V5043.3H5808.3Z"/>
<path transform="matrix(.1,0,0,-.1,0,792)" d="M5808.3 5793.3H6058.3V6043.3H6808.3L6308.3 6543.3H5808.3" fill="#ffffff"/>
<path transform="matrix(.1,0,0,-.1,0,792)" stroke-width="20" stroke-linecap="butt" stroke-miterlimit="10" stroke-linejoin="miter" fill="none" stroke="#000000" d="M5808.3 5793.3H6058.3V6043.3H6808.3L6308.3 6543.3H5808.3Z"/>
<path transform="matrix(.1,0,0,-.1,0,792)" d="M5808.3 6543.3H6308.3V7043.3H5808.3Z" fill="#b0c4d9"/>
<path transform="matrix(.1,0,0,-.1,0,792)" stroke-width="20" stroke-linecap="butt" stroke-miterlimit="10" stroke-linejoin="miter" fill="none" stroke="#000000" d="M5808.3 6543.3H6308.3V7043.3H5808.3Z"/>
<path transform="matrix(.1,0,0,-.1,0,792)" d="M5808.3 7043.3H6308.3V7543.3H5808.3Z" fill="#b0c4d9"/>
<path transform="matrix(.1,0,0,-.1,0,792)" stroke-width="20" stroke-linecap="butt" stroke-miterlimit="10" stroke-linejoin="miter" fill="none" stroke="#000000" d="M5808.3 7043.3H6308.3V7543.3H5808.3Z"/>
<path transform="matrix(.1,0,0,-.1,0,792)" d="M5808.3 7543.3H6308.3V8043.3H5808.3Z" fill="#b0c4d9"/>
<path transform="matrix(.1,0,0,-.1,0,792)" stroke-width="20" stroke-linecap="butt" stroke-miterlimit="10" stroke-linejoin="miter" fill="none" stroke="#000000" d="M5808.3 7543.3H6308.3V8043.3H5808.3Z"/>
<path transform="matrix(.1,0,0,-.1,0,792)" d="M58.3008 5793.3H-191.699V6543.3L-691.699 6043.3V5543.3H58.3008" fill="#ffffff"/>
<path transform="matrix(.1,0,0,-.1,0,792)" stroke-width="20" stroke-linecap="butt" stroke-miterlimit="10" stroke-linejoin="miter" fill="none" stroke="#000000" d="M58.3008 5793.3H-191.699V6543.3L-691.699 6043.3V5543.3H58.3008Z"/>
<path transform="matrix(.1,0,0,-.1,0,792)" d="M58.3008 2793.3H-191.699V3543.3L-691.699 3043.3V2543.3H58.3008" fill="#ffffff"/>
<path transform="matrix(.1,0,0,-.1,0,792)" stroke-width="20" stroke-linecap="butt" stroke-miterlimit="10" stroke-linejoin="miter" fill="none" stroke="#000000" d="M58.3008 2793.3H-191.699V3543.3L-691.699 3043.3V2543.3H58.3008Z"/>
<path transform="matrix(.1,0,0,-.1,0,792)" d="M58.3008 43.3008V-206.699H308.301V-956.699L808.301-456.699V43.3008" fill="#ffffff"/>
<path transform="matrix(.1,0,0,-.1,0,792)" stroke-width="20" stroke-linecap="butt" stroke-miterlimit="10" stroke-linejoin="miter" fill="none" stroke="#000000" d="M58.3008 43.3008V-206.699H308.301V-956.699L808.301-456.699V43.3008Z"/>
<path transform="matrix(.1,0,0,-.1,0,792)" d="M808.301 0H1308.301V43.3008H808.301Z" fill="#b0c4d9"/>
<path transform="matrix(.1,0,0,-.1,0,792)" stroke-width="20" stroke-linecap="butt" stroke-miterlimit="10" stroke-linejoin="miter" fill="none" stroke="#000000" d="M808.301-10.9961H1308.301V43.3008H808.301Z"/>
<path transform="matrix(.1,0,0,-.1,0,792)" d="M1308.3 0H1808.3V43.3008H1308.3Z" fill="#b0c4d9"/>
<path transform="matrix(.1,0,0,-.1,0,792)" stroke-width="20" stroke-linecap="butt" stroke-miterlimit="10" stroke-linejoin="miter" fill="none" stroke="#000000" d="M1308.3-10.9961H1808.3V43.3008H1308.3Z"/>
<path transform="matrix(.1,0,0,-.1,0,792)" d="M1808.3 0H2308.3V43.3008H1808.3Z" fill="#b0c4d9"/>
<path transform="matrix(.1,0,0,-.1,0,792)" stroke-width="20" stroke-linecap="butt" stroke-miterlimit="10" stroke-linejoin="miter" fill="none" stroke="#000000" d="M1808.3-10.9961H2308.3V43.3008H1808.3Z"/>
<path transform="matrix(.1,0,0,-.1,0,792)" d="M3058.3 43.3008V-206.699H3308.3V-956.699L3808.3-456.699V43.3008" fill="#ffffff"/>
<path transform="matrix(.1,0,0,-.1,0,792)" stroke-width="20" stroke-linecap="butt" stroke-miterlimit="10" stroke-linejoin="miter" fill="none" stroke="#000000" d="M3058.3 43.3008V-206.699H3308.3V-956.699L3808.3-456.699V43.3008Z"/>
<path transform="matrix(.1,0,0,-.1,0,792)" d="M3808.3 0H4308.3V43.3008H3808.3Z" fill="#b0c4d9"/>
<path transform="matrix(.1,0,0,-.1,0,792)" stroke-width="20" stroke-linecap="butt" stroke-miterlimit="10" stroke-linejoin="miter" fill="none" stroke="#000000" d="M3808.3-10.9961H4308.3V43.3008H3808.3Z"/>
<path transform="matrix(.1,0,0,-.1,0,792)" d="M4308.3 0H4808.3V43.3008H4308.3Z" fill="#b0c4d9"/>
<path transform="matrix(.1,0,0,-.1,0,792)" stroke-width="20" stroke-linecap="butt" stroke-miterlimit="10" stroke-linejoin="miter" fill="none" stroke="#000000" d="M4308.3-10.9961H4808.3V43.3008H4308.3Z"/>
<path transform="matrix(.1,0,0,-.1,0,792)" d="M4808.3 0H5308.3V43.3008H4808.3Z" fill="#b0c4d9"/>
<path transform="matrix(.1,0,0,-.1,0,792)" stroke-width="20" stroke-linecap="butt" stroke-miterlimit="10" stroke-linejoin="miter" fill="none" stroke="#000000" d="M4808.3-10.9961H5308.3V43.3008H4808.3Z"/>
<path transform="matrix(.1,0,0,-.1,0,792)" d="M6058.3 43.3008V-206.699H6308.3V-956.699L6808.3-456.699V43.3008" fill="#ffffff"/>
<path transform="matrix(.1,0,0,-.1,0,792)" stroke-width="20" stroke-linecap="butt" stroke-miterlimit="10" stroke-linejoin="miter" fill="none" stroke="#000000" d="M6058.3 43.3008V-206.699H6308.3V-956.699L6808.3-456.699V43.3008Z"/>
<path transform="matrix(.1,0,0,-.1,0,792)" d="M6058.3 2793.3H6308.3V2043.3L6808.3 2543.3V3043.3H6058.3" fill="#ffffff"/>
<path transform="matrix(.1,0,0,-.1,0,792)" stroke-width="20" stroke-linecap="butt" stroke-miterlimit="10" stroke-linejoin="miter" fill="none" stroke="#000000" d="M6058.3 2793.3H6308.3V2043.3L6808.3 2543.3V3043.3H6058.3Z"/>
<path transform="matrix(.1,0,0,-.1,0,792)" d="M6058.3 5793.3H6308.3V5043.3L6808.3 5543.3V6043.3H6058.3" fill="#ffffff"/>
<path transform="matrix(.1,0,0,-.1,0,792)" stroke-width="20" stroke-linecap="butt" stroke-miterlimit="10" stroke-linejoin="miter" fill="none" stroke="#000000" d="M6058.3 5793.3H6308.3V5043.3L6808.3 5543.3V6043.3H6058.3Z"/>
<path transform="matrix(.1,0,0,-.1,0,792)" d="M-191.699 543.301-691.699 43.3008V-456.699H58.3008V-206.699H-191.699" fill="#ffffff"/>
<path transform="matrix(.1,0,0,-.1,0,792)" stroke-width="20" stroke-linecap="butt" stroke-miterlimit="10" stroke-linejoin="miter" fill="none" stroke="#000000" d="M-191.699 543.301-691.699 43.3008V-456.699H58.3008V-206.699H-191.699Z"/>
</svg>
