<svg xmlns="http://www.w3.org/2000/svg" xmlns:xlink="http://www.w3.org/1999/xlink" xmlns:inkscape="http://www.inkscape.org/namespaces/inkscape" version="1.1" width="612" height="792" viewBox="0 0 612 792">
<path transform="matrix(.1,0,0,-.1,0,792)" d="M3664.8 3924.3V4424.3L3311.2 4777.8H2811.2L2457.7 4424.3V3924.3L2811.2 3570.7H3311.2" fill="#ffffff"/>
<path transform="matrix(.1,0,0,-.1,0,792)" stroke-width="20" stroke-linecap="butt" stroke-miterlimit="10" stroke-linejoin="miter" fill="none" stroke="#000000" d="M3664.8 3924.3V4424.3L3311.2 4777.8H2811.2L2457.7 4424.3V3924.3L2811.2 3570.7H3311.2Z"/>
<path transform="matrix(.1,0,0,-.1,0,792)" d="M3311.2 4777.8 3061.2 5027.8 2811.2 4777.8" fill="#cc0000"/>
<path transform="matrix(.1,0,0,-.1,0,792)" stroke-width="20" stroke-linecap="butt" stroke-miterlimit="10" stroke-linejoin="miter" fill="none" stroke="#000000" d="M3311.2 4777.8 3061.2 5027.8 2811.2 4777.8Z"/>
<path transform="matrix(.1,0,0,-.1,0,792)" d="M3311.2 4777.8V5277.8L3061.2 5027.8" fill="#cc0000"/>
<path transform="matrix(.1,0,0,-.1,0,792)" stroke-width="20" stroke-linecap="butt" stroke-miterlimit="10" stroke-linejoin="miter" fill="none" stroke="#000000" d="M3311.2 4777.8V5277.8L3061.2 5027.8Z"/>
<path transform="matrix(.1,0,0,-.1,0,792)" d="M3311.2 4777.8 3664.8 4424.3H4164.8L4518.3 4777.8V5277.8L4164.8 5631.4H3664.8L3311.2 5277.8" fill="#ffffff"/>
<path transform="matrix(.1,0,0,-.1,0,792)" stroke-width="20" stroke-linecap="butt" stroke-miterlimit="10" stroke-linejoin="miter" fill="none" stroke="#000000" d="M3311.2 4777.8 3664.8 4424.3H4164.8L4518.3 4777.8V5277.8L4164.8 5631.4H3664.8L3311.2 5277.8Z"/>
<path transform="matrix(.1,0,0,-.1,0,792)" d="M2811.2 4777.8H2457.7V4424.3" fill="#cc0000"/>
<path transform="matrix(.1,0,0,-.1,0,792)" stroke-width="20" stroke-linecap="butt" stroke-miterlimit="10" stroke-linejoin="miter" fill="none" stroke="#000000" d="M2811.2 4777.8H2457.7V4424.3Z"/>
<path transform="matrix(.1,0,0,-.1,0,792)" d="M2811.2 4777.8 3061.2 5027.8 2457.7 5631.4V4777.8Z" fill="#ffffff"/>
<path transform="matrix(.1,0,0,-.1,0,792)" stroke-width="20" stroke-linecap="butt" stroke-miterlimit="10" stroke-linejoin="miter" fill="none" stroke="#000000" d="M2811.2 4777.8 3061.2 5027.8 2457.7 5631.4V4777.8Z"/>
<path transform="matrix(.1,0,0,-.1,0,792)" d="M2811.2 3570.7 3061.2 3320.7 3311.2 3570.7" fill="#cc0000"/>
<path transform="matrix(.1,0,0,-.1,0,792)" stroke-width="20" stroke-linecap="butt" stroke-miterlimit="10" stroke-linejoin="miter" fill="none" stroke="#000000" d="M2811.2 3570.7 3061.2 3320.7 3311.2 3570.7Z"/>
<path transform="matrix(.1,0,0,-.1,0,792)" d="M2811.2 3570.7H2457.7V2717.2L3061.2 3320.7Z" fill="#ffffff"/>
<path transform="matrix(.1,0,0,-.1,0,792)" stroke-width="20" stroke-linecap="butt" stroke-miterlimit="10" stroke-linejoin="miter" fill="none" stroke="#000000" d="M2811.2 3570.7H2457.7V2717.2L3061.2 3320.7Z"/>
<path transform="matrix(.1,0,0,-.1,0,792)" d="M2811.2 3570.7 2457.7 3924.3V3570.7" fill="#cc0000"/>
<path transform="matrix(.1,0,0,-.1,0,792)" stroke-width="20" stroke-linecap="butt" stroke-miterlimit="10" stroke-linejoin="miter" fill="none" stroke="#000000" d="M2811.2 3570.7 2457.7 3924.3V3570.7Z"/>
<path transform="matrix(.1,0,0,-.1,0,792)" d="M3311.2 3570.7V3070.7L3664.8 2717.2H4164.8L4518.3 3070.7V3570.7L4164.8 3924.3H3664.8" fill="#ffffff"/>
<path transform="matrix(.1,0,0,-.1,0,792)" stroke-width="20" stroke-linecap="butt" stroke-miterlimit="10" stroke-linejoin="miter" fill="none" stroke="#000000" d="M3311.2 3570.7V3070.7L3664.8 2717.2H4164.8L4518.3 3070.7V3570.7L4164.8 3924.3H3664.8Z"/>
<path transform="matrix(.1,0,0,-.1,0,792)" d="M3311.2 3570.7 3061.2 3320.7 3311.2 3070.7" fill="#cc0000"/>
<path transform="matrix(.1,0,0,-.1,0,792)" stroke-width="20" stroke-linecap="butt" stroke-miterlimit="10" stroke-linejoin="miter" fill="none" stroke="#000000" d="M3311.2 3570.7 3061.2 3320.7 3311.2 3070.7Z"/>
<path transform="matrix(.1,0,0,-.1,0,792)" d="M2457.7 4777.8H2104.1L2457.7 4424.3" fill="#cc0000"/>
<path transform="matrix(.1,0,0,-.1,0,792)" stroke-width="20" stroke-linecap="butt" stroke-miterlimit="10" stroke-linejoin="miter" fill="none" stroke="#000000" d="M2457.7 4777.8H2104.1L2457.7 4424.3Z"/>
<path transform="matrix(.1,0,0,-.1,0,792)" d="M2457.7 4777.8V5631.4L1854.1 5027.8 2104.1 4777.8Z" fill="#ffffff"/>
<path transform="matrix(.1,0,0,-.1,0,792)" stroke-width="20" stroke-linecap="butt" stroke-miterlimit="10" stroke-linejoin="miter" fill="none" stroke="#000000" d="M2457.7 4777.8V5631.4L1854.1 5027.8 2104.1 4777.8Z"/>
<path transform="matrix(.1,0,0,-.1,0,792)" d="M2457.7 4424.3 2104.1 4777.8H1604.1L1250.6 4424.3V3924.3L1604.1 3570.7H2104.1L2457.7 3924.3" fill="#ffffff"/>
<path transform="matrix(.1,0,0,-.1,0,792)" stroke-width="20" stroke-linecap="butt" stroke-miterlimit="10" stroke-linejoin="miter" fill="none" stroke="#000000" d="M2457.7 4424.3 2104.1 4777.8H1604.1L1250.6 4424.3V3924.3L1604.1 3570.7H2104.1L2457.7 3924.3Z"/>
<path transform="matrix(.1,0,0,-.1,0,792)" d="M2457.7 3924.3 2104.1 3570.7H2457.7" fill="#cc0000"/>
<path transform="matrix(.1,0,0,-.1,0,792)" stroke-width="20" stroke-linecap="butt" stroke-miterlimit="10" stroke-linejoin="miter" fill="none" stroke="#000000" d="M2457.7 3924.3 2104.1 3570.7H2457.7Z"/>
<path transform="matrix(.1,0,0,-.1,0,792)" d="M2457.7 3570.7H2104.1L1854.1 3320.7 2457.7 2717.2Z" fill="#ffffff"/>
<path transform="matrix(.1,0,0,-.1,0,792)" stroke-width="20" stroke-linecap="butt" stroke-miterlimit="10" stroke-linejoin="miter" fill="none" stroke="#000000" d="M2457.7 3570.7H2104.1L1854.1 3320.7 2457.7 2717.2Z"/>
<path transform="matrix(.1,0,0,-.1,0,792)" d="M3061.2 5027.8 3311.2 5277.8V5631.4H2457.7Z" fill="#ffffff"/>
<path transform="matrix(.1,0,0,-.1,0,792)" stroke-width="20" stroke-linecap="butt" stroke-miterlimit="10" stroke-linejoin="miter" fill="none" stroke="#000000" d="M3061.2 5027.8 3311.2 5277.8V5631.4H2457.7Z"/>
<path transform="matrix(.1,0,0,-.1,0,792)" d="M3061.2 3320.7 2457.7 2717.2H3311.2V3070.7Z" fill="#ffffff"/>
<path transform="matrix(.1,0,0,-.1,0,792)" stroke-width="20" stroke-linecap="butt" stroke-miterlimit="10" stroke-linejoin="miter" fill="none" stroke="#000000" d="M3061.2 3320.7 2457.7 2717.2H3311.2V3070.7Z"/>
<path transform="matrix(.1,0,0,-.1,0,792)" d="M3664.8 4424.3 3914.8 4320.7 4164.8 4424.3" fill="#e6e6e6"/>
<path transform="matrix(.1,0,0,-.1,0,792)" stroke-width="20" stroke-linecap="butt" stroke-miterlimit="10" stroke-linejoin="miter" fill="none" stroke="#000000" d="M3664.8 4424.3 3914.8 4320.7 4164.8 4424.3Z"/>
<path transform="matrix(.1,0,0,-.1,0,792)" d="M3664.8 4424.3 3768.3 4174.3 3664.8 3924.3 3914.8 4027.8 4164.8 3924.3 4061.2 4174.3 4164.8 4424.3 3914.8 4320.7" fill="#cc0000"/>
<path transform="matrix(.1,0,0,-.1,0,792)" stroke-width="20" stroke-linecap="butt" stroke-miterlimit="10" stroke-linejoin="miter" fill="none" stroke="#000000" d="M3664.8 4424.3 3768.3 4174.3 3664.8 3924.3 3914.8 4027.8 4164.8 3924.3 4061.2 4174.3 4164.8 4424.3 3914.8 4320.7Z"/>
<path transform="matrix(.1,0,0,-.1,0,792)" d="M3664.8 4424.3V3924.3L3768.3 4174.3" fill="#e6e6e6"/>
<path transform="matrix(.1,0,0,-.1,0,792)" stroke-width="20" stroke-linecap="butt" stroke-miterlimit="10" stroke-linejoin="miter" fill="none" stroke="#000000" d="M3664.8 4424.3V3924.3L3768.3 4174.3Z"/>
<path transform="matrix(.1,0,0,-.1,0,792)" d="M3664.8 3924.3H4164.8L3914.8 4027.8" fill="#e6e6e6"/>
<path transform="matrix(.1,0,0,-.1,0,792)" stroke-width="20" stroke-linecap="butt" stroke-miterlimit="10" stroke-linejoin="miter" fill="none" stroke="#000000" d="M3664.8 3924.3H4164.8L3914.8 4027.8Z"/>
<path transform="matrix(.1,0,0,-.1,0,792)" d="M3311.2 5277.8 3664.8 5631.4H3311.2" fill="#cc0000"/>
<path transform="matrix(.1,0,0,-.1,0,792)" stroke-width="20" stroke-linecap="butt" stroke-miterlimit="10" stroke-linejoin="miter" fill="none" stroke="#000000" d="M3311.2 5277.8 3664.8 5631.4H3311.2Z"/>
<path transform="matrix(.1,0,0,-.1,0,792)" d="M3311.2 3070.7V2717.2H3664.8" fill="#cc0000"/>
<path transform="matrix(.1,0,0,-.1,0,792)" stroke-width="20" stroke-linecap="butt" stroke-miterlimit="10" stroke-linejoin="miter" fill="none" stroke="#000000" d="M3311.2 3070.7V2717.2H3664.8Z"/>
<path transform="matrix(.1,0,0,-.1,0,792)" d="M2104.1 4777.8 1854.1 5027.8 1604.1 4777.8" fill="#cc0000"/>
<path transform="matrix(.1,0,0,-.1,0,792)" stroke-width="20" stroke-linecap="butt" stroke-miterlimit="10" stroke-linejoin="miter" fill="none" stroke="#000000" d="M2104.1 4777.8 1854.1 5027.8 1604.1 4777.8Z"/>
<path transform="matrix(.1,0,0,-.1,0,792)" d="M2104.1 3570.7H1604.1L1854.1 3320.7" fill="#cc0000"/>
<path transform="matrix(.1,0,0,-.1,0,792)" stroke-width="20" stroke-linecap="butt" stroke-miterlimit="10" stroke-linejoin="miter" fill="none" stroke="#000000" d="M2104.1 3570.7H1604.1L1854.1 3320.7Z"/>
<path transform="matrix(.1,0,0,-.1,0,792)" d="M3664.8 5631.4 3311.2 5984.9V5631.4" fill="#cc0000"/>
<path transform="matrix(.1,0,0,-.1,0,792)" stroke-width="20" stroke-linecap="butt" stroke-miterlimit="10" stroke-linejoin="miter" fill="none" stroke="#000000" d="M3664.8 5631.4 3311.2 5984.9V5631.4Z"/>
<path transform="matrix(.1,0,0,-.1,0,792)" d="M3664.8 5631.4H4164.8L4518.3 5984.9V6484.9L4164.8 6838.5H3664.8L3311.2 6484.9V5984.9" fill="#ffffff"/>
<path transform="matrix(.1,0,0,-.1,0,792)" stroke-width="20" stroke-linecap="butt" stroke-miterlimit="10" stroke-linejoin="miter" fill="none" stroke="#000000" d="M3664.8 5631.4H4164.8L4518.3 5984.9V6484.9L4164.8 6838.5H3664.8L3311.2 6484.9V5984.9Z"/>
<path transform="matrix(.1,0,0,-.1,0,792)" d="M3311.2 5631.4V5984.9L3061.2 6234.9 2457.7 5631.4Z" fill="#ffffff"/>
<path transform="matrix(.1,0,0,-.1,0,792)" stroke-width="20" stroke-linecap="butt" stroke-miterlimit="10" stroke-linejoin="miter" fill="none" stroke="#000000" d="M3311.2 5631.4V5984.9L3061.2 6234.9 2457.7 5631.4Z"/>
<path transform="matrix(.1,0,0,-.1,0,792)" d="M2457.7 5631.4H1604.1V5277.8L1854.1 5027.8Z" fill="#ffffff"/>
<path transform="matrix(.1,0,0,-.1,0,792)" stroke-width="20" stroke-linecap="butt" stroke-miterlimit="10" stroke-linejoin="miter" fill="none" stroke="#000000" d="M2457.7 5631.4H1604.1V5277.8L1854.1 5027.8Z"/>
<path transform="matrix(.1,0,0,-.1,0,792)" d="M2457.7 5631.4 1854.1 6234.9 1604.1 5984.9V5631.4Z" fill="#ffffff"/>
<path transform="matrix(.1,0,0,-.1,0,792)" stroke-width="20" stroke-linecap="butt" stroke-miterlimit="10" stroke-linejoin="miter" fill="none" stroke="#000000" d="M2457.7 5631.4 1854.1 6234.9 1604.1 5984.9V5631.4Z"/>
<path transform="matrix(.1,0,0,-.1,0,792)" d="M2457.7 5631.4V6484.9H2104.1L1854.1 6234.9Z" fill="#ffffff"/>
<path transform="matrix(.1,0,0,-.1,0,792)" stroke-width="20" stroke-linecap="butt" stroke-miterlimit="10" stroke-linejoin="miter" fill="none" stroke="#000000" d="M2457.7 5631.4V6484.9H2104.1L1854.1 6234.9Z"/>
<path transform="matrix(.1,0,0,-.1,0,792)" d="M2457.7 5631.4 3061.2 6234.9 2811.2 6484.9H2457.7Z" fill="#ffffff"/>
<path transform="matrix(.1,0,0,-.1,0,792)" stroke-width="20" stroke-linecap="butt" stroke-miterlimit="10" stroke-linejoin="miter" fill="none" stroke="#000000" d="M2457.7 5631.4 3061.2 6234.9 2811.2 6484.9H2457.7Z"/>
<path transform="matrix(.1,0,0,-.1,0,792)" d="M2457.7 2717.2 3061.2 2113.6 3311.2 2363.6V2717.2Z" fill="#ffffff"/>
<path transform="matrix(.1,0,0,-.1,0,792)" stroke-width="20" stroke-linecap="butt" stroke-miterlimit="10" stroke-linejoin="miter" fill="none" stroke="#000000" d="M2457.7 2717.2 3061.2 2113.6 3311.2 2363.6V2717.2Z"/>
<path transform="matrix(.1,0,0,-.1,0,792)" d="M2457.7 2717.2V1863.6H2811.2L3061.2 2113.6Z" fill="#ffffff"/>
<path transform="matrix(.1,0,0,-.1,0,792)" stroke-width="20" stroke-linecap="butt" stroke-miterlimit="10" stroke-linejoin="miter" fill="none" stroke="#000000" d="M2457.7 2717.2V1863.6H2811.2L3061.2 2113.6Z"/>
<path transform="matrix(.1,0,0,-.1,0,792)" d="M2457.7 2717.2 1854.1 2113.6 2104.1 1863.6H2457.7Z" fill="#ffffff"/>
<path transform="matrix(.1,0,0,-.1,0,792)" stroke-width="20" stroke-linecap="butt" stroke-miterlimit="10" stroke-linejoin="miter" fill="none" stroke="#000000" d="M2457.7 2717.2 1854.1 2113.6 2104.1 1863.6H2457.7Z"/>
<path transform="matrix(.1,0,0,-.1,0,792)" d="M2457.7 2717.2H1604.1V2363.6L1854.1 2113.6Z" fill="#ffffff"/>
<path transform="matrix(.1,0,0,-.1,0,792)" stroke-width="20" stroke-linecap="butt" stroke-miterlimit="10" stroke-linejoin="miter" fill="none" stroke="#000000" d="M2457.7 2717.2H1604.1V2363.6L1854.1 2113.6Z"/>
<path transform="matrix(.1,0,0,-.1,0,792)" d="M2457.7 2717.2 1854.1 3320.7 1604.1 3070.7V2717.2Z" fill="#ffffff"/>
<path transform="matrix(.1,0,0,-.1,0,792)" stroke-width="20" stroke-linecap="butt" stroke-miterlimit="10" stroke-linejoin="miter" fill="none" stroke="#000000" d="M2457.7 2717.2 1854.1 3320.7 1604.1 3070.7V2717.2Z"/>
<path transform="matrix(.1,0,0,-.1,0,792)" d="M3311.2 2717.2V2363.6L3664.8 2717.2" fill="#cc0000"/>
<path transform="matrix(.1,0,0,-.1,0,792)" stroke-width="20" stroke-linecap="butt" stroke-miterlimit="10" stroke-linejoin="miter" fill="none" stroke="#000000" d="M3311.2 2717.2V2363.6L3664.8 2717.2Z"/>
<path transform="matrix(.1,0,0,-.1,0,792)" d="M3664.8 2717.2 3311.2 2363.6V1863.6L3664.8 1510.1H4164.8L4518.3 1863.6V2363.6L4164.8 2717.2" fill="#ffffff"/>
<path transform="matrix(.1,0,0,-.1,0,792)" stroke-width="20" stroke-linecap="butt" stroke-miterlimit="10" stroke-linejoin="miter" fill="none" stroke="#000000" d="M3664.8 2717.2 3311.2 2363.6V1863.6L3664.8 1510.1H4164.8L4518.3 1863.6V2363.6L4164.8 2717.2Z"/>
<path transform="matrix(.1,0,0,-.1,0,792)" d="M4061.2 4174.3 4164.8 3924.3V4424.3" fill="#e6e6e6"/>
<path transform="matrix(.1,0,0,-.1,0,792)" stroke-width="20" stroke-linecap="butt" stroke-miterlimit="10" stroke-linejoin="miter" fill="none" stroke="#000000" d="M4061.2 4174.3 4164.8 3924.3V4424.3Z"/>
<path transform="matrix(.1,0,0,-.1,0,792)" d="M1854.1 5027.8 1604.1 5277.8V4777.8" fill="#cc0000"/>
<path transform="matrix(.1,0,0,-.1,0,792)" stroke-width="20" stroke-linecap="butt" stroke-miterlimit="10" stroke-linejoin="miter" fill="none" stroke="#000000" d="M1854.1 5027.8 1604.1 5277.8V4777.8Z"/>
<path transform="matrix(.1,0,0,-.1,0,792)" d="M1854.1 3320.7 1604.1 3570.7V3070.7" fill="#cc0000"/>
<path transform="matrix(.1,0,0,-.1,0,792)" stroke-width="20" stroke-linecap="butt" stroke-miterlimit="10" stroke-linejoin="miter" fill="none" stroke="#000000" d="M1854.1 3320.7 1604.1 3570.7V3070.7Z"/>
<path transform="matrix(.1,0,0,-.1,0,792)" d="M4164.8 2717.2H4518.3V3070.7" fill="#cc0000"/>
<path transform="matrix(.1,0,0,-.1,0,792)" stroke-width="20" stroke-linecap="butt" stroke-miterlimit="10" stroke-linejoin="miter" fill="none" stroke="#000000" d="M4164.8 2717.2H4518.3V3070.7Z"/>
<path transform="matrix(.1,0,0,-.1,0,792)" d="M4164.8 2717.2 4518.3 2363.6V2717.2" fill="#cc0000"/>
<path transform="matrix(.1,0,0,-.1,0,792)" stroke-width="20" stroke-linecap="butt" stroke-miterlimit="10" stroke-linejoin="miter" fill="none" stroke="#000000" d="M4164.8 2717.2 4518.3 2363.6V2717.2Z"/>
<path transform="matrix(.1,0,0,-.1,0,792)" d="M4164.8 3924.3 4518.3 3570.7H5018.3L5371.9 3924.3V4424.3L5018.3 4777.8H4518.3L4164.8 4424.3" fill="#ffffff"/>
<path transform="matrix(.1,0,0,-.1,0,792)" stroke-width="20" stroke-linecap="butt" stroke-miterlimit="10" stroke-linejoin="miter" fill="none" stroke="#000000" d="M4164.8 3924.3 4518.3 3570.7H5018.3L5371.9 3924.3V4424.3L5018.3 4777.8H4518.3L4164.8 4424.3Z"/>
<path transform="matrix(.1,0,0,-.1,0,792)" d="M4164.8 5631.4H4518.3V5984.9" fill="#cc0000"/>
<path transform="matrix(.1,0,0,-.1,0,792)" stroke-width="20" stroke-linecap="butt" stroke-miterlimit="10" stroke-linejoin="miter" fill="none" stroke="#000000" d="M4164.8 5631.4H4518.3V5984.9Z"/>
<path transform="matrix(.1,0,0,-.1,0,792)" d="M4164.8 5631.4 4518.3 5277.8V5631.4" fill="#cc0000"/>
<path transform="matrix(.1,0,0,-.1,0,792)" stroke-width="20" stroke-linecap="butt" stroke-miterlimit="10" stroke-linejoin="miter" fill="none" stroke="#000000" d="M4164.8 5631.4 4518.3 5277.8V5631.4Z"/>
<path transform="matrix(.1,0,0,-.1,0,792)" d="M3311.2 5984.9V6484.9L3061.2 6234.9" fill="#cc0000"/>
<path transform="matrix(.1,0,0,-.1,0,792)" stroke-width="20" stroke-linecap="butt" stroke-miterlimit="10" stroke-linejoin="miter" fill="none" stroke="#000000" d="M3311.2 5984.9V6484.9L3061.2 6234.9Z"/>
<path transform="matrix(.1,0,0,-.1,0,792)" d="M3311.2 2363.6 3061.2 2113.6 3311.2 1863.6" fill="#cc0000"/>
<path transform="matrix(.1,0,0,-.1,0,792)" stroke-width="20" stroke-linecap="butt" stroke-miterlimit="10" stroke-linejoin="miter" fill="none" stroke="#000000" d="M3311.2 2363.6 3061.2 2113.6 3311.2 1863.6Z"/>
<path transform="matrix(.1,0,0,-.1,0,792)" d="M1604.1 5984.9 1250.6 5631.4H1604.1" fill="#cc0000"/>
<path transform="matrix(.1,0,0,-.1,0,792)" stroke-width="20" stroke-linecap="butt" stroke-miterlimit="10" stroke-linejoin="miter" fill="none" stroke="#000000" d="M1604.1 5984.9 1250.6 5631.4H1604.1Z"/>
<path transform="matrix(.1,0,0,-.1,0,792)" d="M1604.1 5984.9V6484.9L1250.6 6838.5H750.602L397 6484.9V5984.9L750.602 5631.4H1250.6" fill="#ffffff"/>
<path transform="matrix(.1,0,0,-.1,0,792)" stroke-width="20" stroke-linecap="butt" stroke-miterlimit="10" stroke-linejoin="miter" fill="none" stroke="#000000" d="M1604.1 5984.9V6484.9L1250.6 6838.5H750.602L397 6484.9V5984.9L750.602 5631.4H1250.6Z"/>
<path transform="matrix(.1,0,0,-.1,0,792)" d="M1604.1 5984.9 1854.1 6234.9 1604.1 6484.9" fill="#cc0000"/>
<path transform="matrix(.1,0,0,-.1,0,792)" stroke-width="20" stroke-linecap="butt" stroke-miterlimit="10" stroke-linejoin="miter" fill="none" stroke="#000000" d="M1604.1 5984.9 1854.1 6234.9 1604.1 6484.9Z"/>
<path transform="matrix(.1,0,0,-.1,0,792)" d="M1604.1 5631.4H1250.6L1604.1 5277.8" fill="#cc0000"/>
<path transform="matrix(.1,0,0,-.1,0,792)" stroke-width="20" stroke-linecap="butt" stroke-miterlimit="10" stroke-linejoin="miter" fill="none" stroke="#000000" d="M1604.1 5631.4H1250.6L1604.1 5277.8Z"/>
<path transform="matrix(.1,0,0,-.1,0,792)" d="M1604.1 5277.8 1250.6 5631.4H750.602L397 5277.8V4777.8L750.602 4424.3H1250.6L1604.1 4777.8" fill="#ffffff"/>
<path transform="matrix(.1,0,0,-.1,0,792)" stroke-width="20" stroke-linecap="butt" stroke-miterlimit="10" stroke-linejoin="miter" fill="none" stroke="#000000" d="M1604.1 5277.8 1250.6 5631.4H750.602L397 5277.8V4777.8L750.602 4424.3H1250.6L1604.1 4777.8Z"/>
<path transform="matrix(.1,0,0,-.1,0,792)" d="M1604.1 3570.7 1250.6 3924.3H750.602L397 3570.7V3070.7L750.602 2717.2H1250.6L1604.1 3070.7" fill="#ffffff"/>
<path transform="matrix(.1,0,0,-.1,0,792)" stroke-width="20" stroke-linecap="butt" stroke-miterlimit="10" stroke-linejoin="miter" fill="none" stroke="#000000" d="M1604.1 3570.7 1250.6 3924.3H750.602L397 3570.7V3070.7L750.602 2717.2H1250.6L1604.1 3070.7Z"/>
<path transform="matrix(.1,0,0,-.1,0,792)" d="M1604.1 3070.7 1250.6 2717.2H1604.1" fill="#cc0000"/>
<path transform="matrix(.1,0,0,-.1,0,792)" stroke-width="20" stroke-linecap="butt" stroke-miterlimit="10" stroke-linejoin="miter" fill="none" stroke="#000000" d="M1604.1 3070.7 1250.6 2717.2H1604.1Z"/>
<path transform="matrix(.1,0,0,-.1,0,792)" d="M1604.1 2717.2H1250.6L1604.1 2363.6" fill="#cc0000"/>
<path transform="matrix(.1,0,0,-.1,0,792)" stroke-width="20" stroke-linecap="butt" stroke-miterlimit="10" stroke-linejoin="miter" fill="none" stroke="#000000" d="M1604.1 2717.2H1250.6L1604.1 2363.6Z"/>
<path transform="matrix(.1,0,0,-.1,0,792)" d="M1604.1 2363.6V1863.6L1854.1 2113.6" fill="#cc0000"/>
<path transform="matrix(.1,0,0,-.1,0,792)" stroke-width="20" stroke-linecap="butt" stroke-miterlimit="10" stroke-linejoin="miter" fill="none" stroke="#000000" d="M1604.1 2363.6V1863.6L1854.1 2113.6Z"/>
<path transform="matrix(.1,0,0,-.1,0,792)" d="M1604.1 2363.6 1250.6 2717.2H750.602L397 2363.6V1863.6L750.602 1510.1H1250.6L1604.1 1863.6" fill="#ffffff"/>
<path transform="matrix(.1,0,0,-.1,0,792)" stroke-width="20" stroke-linecap="butt" stroke-miterlimit="10" stroke-linejoin="miter" fill="none" stroke="#000000" d="M1604.1 2363.6 1250.6 2717.2H750.602L397 2363.6V1863.6L750.602 1510.1H1250.6L1604.1 1863.6Z"/>
<path transform="matrix(.1,0,0,-.1,0,792)" d="M3061.2 6234.9 3311.2 6484.9H2811.2" fill="#cc0000"/>
<path transform="matrix(.1,0,0,-.1,0,792)" stroke-width="20" stroke-linecap="butt" stroke-miterlimit="10" stroke-linejoin="miter" fill="none" stroke="#000000" d="M3061.2 6234.9 3311.2 6484.9H2811.2Z"/>
<path transform="matrix(.1,0,0,-.1,0,792)" d="M1854.1 6234.9 2104.1 6484.9H1604.1" fill="#cc0000"/>
<path transform="matrix(.1,0,0,-.1,0,792)" stroke-width="20" stroke-linecap="butt" stroke-miterlimit="10" stroke-linejoin="miter" fill="none" stroke="#000000" d="M1854.1 6234.9 2104.1 6484.9H1604.1Z"/>
<path transform="matrix(.1,0,0,-.1,0,792)" d="M1854.1 2113.6 1604.1 1863.6H2104.1" fill="#cc0000"/>
<path transform="matrix(.1,0,0,-.1,0,792)" stroke-width="20" stroke-linecap="butt" stroke-miterlimit="10" stroke-linejoin="miter" fill="none" stroke="#000000" d="M1854.1 2113.6 1604.1 1863.6H2104.1Z"/>
<path transform="matrix(.1,0,0,-.1,0,792)" d="M3061.2 2113.6 2811.2 1863.6H3311.2" fill="#cc0000"/>
<path transform="matrix(.1,0,0,-.1,0,792)" stroke-width="20" stroke-linecap="butt" stroke-miterlimit="10" stroke-linejoin="miter" fill="none" stroke="#000000" d="M3061.2 2113.6 2811.2 1863.6H3311.2Z"/>
<path transform="matrix(.1,0,0,-.1,0,792)" d="M4518.3 2363.6 4768.3 2113.6 5371.9 2717.2H4518.3Z" fill="#ffffff"/>
<path transform="matrix(.1,0,0,-.1,0,792)" stroke-width="20" stroke-linecap="butt" stroke-miterlimit="10" stroke-linejoin="miter" fill="none" stroke="#000000" d="M4518.3 2363.6 4768.3 2113.6 5371.9 2717.2H4518.3Z"/>
<path transform="matrix(.1,0,0,-.1,0,792)" d="M4518.3 2363.6V1863.6L4768.3 2113.6" fill="#cc0000"/>
<path transform="matrix(.1,0,0,-.1,0,792)" stroke-width="20" stroke-linecap="butt" stroke-miterlimit="10" stroke-linejoin="miter" fill="none" stroke="#000000" d="M4518.3 2363.6V1863.6L4768.3 2113.6Z"/>
<path transform="matrix(.1,0,0,-.1,0,792)" d="M4518.3 2717.2H5371.9L4768.3 3320.7 4518.3 3070.7Z" fill="#ffffff"/>
<path transform="matrix(.1,0,0,-.1,0,792)" stroke-width="20" stroke-linecap="butt" stroke-miterlimit="10" stroke-linejoin="miter" fill="none" stroke="#000000" d="M4518.3 2717.2H5371.9L4768.3 3320.7 4518.3 3070.7Z"/>
<path transform="matrix(.1,0,0,-.1,0,792)" d="M4518.3 3070.7 4768.3 3320.7 4518.3 3570.7" fill="#cc0000"/>
<path transform="matrix(.1,0,0,-.1,0,792)" stroke-width="20" stroke-linecap="butt" stroke-miterlimit="10" stroke-linejoin="miter" fill="none" stroke="#000000" d="M4518.3 3070.7 4768.3 3320.7 4518.3 3570.7Z"/>
<path transform="matrix(.1,0,0,-.1,0,792)" d="M4518.3 3570.7 4768.3 3320.7 5018.3 3570.7" fill="#cc0000"/>
<path transform="matrix(.1,0,0,-.1,0,792)" stroke-width="20" stroke-linecap="butt" stroke-miterlimit="10" stroke-linejoin="miter" fill="none" stroke="#000000" d="M4518.3 3570.7 4768.3 3320.7 5018.3 3570.7Z"/>
<path transform="matrix(.1,0,0,-.1,0,792)" d="M4518.3 4777.8 4768.3 5027.8 4518.3 5277.8" fill="#cc0000"/>
<path transform="matrix(.1,0,0,-.1,0,792)" stroke-width="20" stroke-linecap="butt" stroke-miterlimit="10" stroke-linejoin="miter" fill="none" stroke="#000000" d="M4518.3 4777.8 4768.3 5027.8 4518.3 5277.8Z"/>
<path transform="matrix(.1,0,0,-.1,0,792)" d="M4518.3 4777.8H5018.3L4768.3 5027.8" fill="#cc0000"/>
<path transform="matrix(.1,0,0,-.1,0,792)" stroke-width="20" stroke-linecap="butt" stroke-miterlimit="10" stroke-linejoin="miter" fill="none" stroke="#000000" d="M4518.3 4777.8H5018.3L4768.3 5027.8Z"/>
<path transform="matrix(.1,0,0,-.1,0,792)" d="M4518.3 5277.8 4768.3 5027.8 5371.9 5631.4H4518.3Z" fill="#ffffff"/>
<path transform="matrix(.1,0,0,-.1,0,792)" stroke-width="20" stroke-linecap="butt" stroke-miterlimit="10" stroke-linejoin="miter" fill="none" stroke="#000000" d="M4518.3 5277.8 4768.3 5027.8 5371.9 5631.4H4518.3Z"/>
<path transform="matrix(.1,0,0,-.1,0,792)" d="M4518.3 5631.4H5371.9L4768.3 6234.9 4518.3 5984.9Z" fill="#ffffff"/>
<path transform="matrix(.1,0,0,-.1,0,792)" stroke-width="20" stroke-linecap="butt" stroke-miterlimit="10" stroke-linejoin="miter" fill="none" stroke="#000000" d="M4518.3 5631.4H5371.9L4768.3 6234.9 4518.3 5984.9Z"/>
<path transform="matrix(.1,0,0,-.1,0,792)" d="M4518.3 5984.9 4768.3 6234.9 4518.3 6484.9" fill="#cc0000"/>
<path transform="matrix(.1,0,0,-.1,0,792)" stroke-width="20" stroke-linecap="butt" stroke-miterlimit="10" stroke-linejoin="miter" fill="none" stroke="#000000" d="M4518.3 5984.9 4768.3 6234.9 4518.3 6484.9Z"/>
<path transform="matrix(.1,0,0,-.1,0,792)" d="M4518.3 6484.9H5018.3L5371.9 6838.5V7338.5L5018.3 7692.1H4518.3L4164.8 7338.5V6838.5" fill="#ffffff"/>
<path transform="matrix(.1,0,0,-.1,0,792)" stroke-width="20" stroke-linecap="butt" stroke-miterlimit="10" stroke-linejoin="miter" fill="none" stroke="#000000" d="M4518.3 6484.9H5018.3L5371.9 6838.5V7338.5L5018.3 7692.1H4518.3L4164.8 7338.5V6838.5Z"/>
<path transform="matrix(.1,0,0,-.1,0,792)" d="M4518.3 6484.9 4768.3 6234.9 5018.3 6484.9" fill="#cc0000"/>
<path transform="matrix(.1,0,0,-.1,0,792)" stroke-width="20" stroke-linecap="butt" stroke-miterlimit="10" stroke-linejoin="miter" fill="none" stroke="#000000" d="M4518.3 6484.9 4768.3 6234.9 5018.3 6484.9Z"/>
<path transform="matrix(.1,0,0,-.1,0,792)" d="M3311.2 6484.9 3664.8 6838.5V7338.5L3311.2 7692.1H2811.2L2457.7 7338.5V6838.5L2811.2 6484.9" fill="#ffffff"/>
<path transform="matrix(.1,0,0,-.1,0,792)" stroke-width="20" stroke-linecap="butt" stroke-miterlimit="10" stroke-linejoin="miter" fill="none" stroke="#000000" d="M3311.2 6484.9 3664.8 6838.5V7338.5L3311.2 7692.1H2811.2L2457.7 7338.5V6838.5L2811.2 6484.9Z"/>
<path transform="matrix(.1,0,0,-.1,0,792)" d="M2811.2 6484.9 2457.7 6838.5V6484.9" fill="#cc0000"/>
<path transform="matrix(.1,0,0,-.1,0,792)" stroke-width="20" stroke-linecap="butt" stroke-miterlimit="10" stroke-linejoin="miter" fill="none" stroke="#000000" d="M2811.2 6484.9 2457.7 6838.5V6484.9Z"/>
<path transform="matrix(.1,0,0,-.1,0,792)" d="M2457.7 6484.9V6838.5L2104.1 6484.9" fill="#cc0000"/>
<path transform="matrix(.1,0,0,-.1,0,792)" stroke-width="20" stroke-linecap="butt" stroke-miterlimit="10" stroke-linejoin="miter" fill="none" stroke="#000000" d="M2457.7 6484.9V6838.5L2104.1 6484.9Z"/>
<path transform="matrix(.1,0,0,-.1,0,792)" d="M2104.1 6484.9 2457.7 6838.5V7338.5L2104.1 7692.1H1604.1L1250.6 7338.5V6838.5L1604.1 6484.9" fill="#ffffff"/>
<path transform="matrix(.1,0,0,-.1,0,792)" stroke-width="20" stroke-linecap="butt" stroke-miterlimit="10" stroke-linejoin="miter" fill="none" stroke="#000000" d="M2104.1 6484.9 2457.7 6838.5V7338.5L2104.1 7692.1H1604.1L1250.6 7338.5V6838.5L1604.1 6484.9Z"/>
<path transform="matrix(.1,0,0,-.1,0,792)" d="M1604.1 1863.6 1250.6 1510.1V1010.1L1604.1 656.5H2104.1L2457.7 1010.1V1510.1L2104.1 1863.6" fill="#ffffff"/>
<path transform="matrix(.1,0,0,-.1,0,792)" stroke-width="20" stroke-linecap="butt" stroke-miterlimit="10" stroke-linejoin="miter" fill="none" stroke="#000000" d="M1604.1 1863.6 1250.6 1510.1V1010.1L1604.1 656.5H2104.1L2457.7 1010.1V1510.1L2104.1 1863.6Z"/>
<path transform="matrix(.1,0,0,-.1,0,792)" d="M2104.1 1863.6 2457.7 1510.1V1863.6" fill="#cc0000"/>
<path transform="matrix(.1,0,0,-.1,0,792)" stroke-width="20" stroke-linecap="butt" stroke-miterlimit="10" stroke-linejoin="miter" fill="none" stroke="#000000" d="M2104.1 1863.6 2457.7 1510.1V1863.6Z"/>
<path transform="matrix(.1,0,0,-.1,0,792)" d="M2457.7 1863.6V1510.1L2811.2 1863.6" fill="#cc0000"/>
<path transform="matrix(.1,0,0,-.1,0,792)" stroke-width="20" stroke-linecap="butt" stroke-miterlimit="10" stroke-linejoin="miter" fill="none" stroke="#000000" d="M2457.7 1863.6V1510.1L2811.2 1863.6Z"/>
<path transform="matrix(.1,0,0,-.1,0,792)" d="M2811.2 1863.6 2457.7 1510.1V1010.1L2811.2 656.5H3311.2L3664.8 1010.1V1510.1L3311.2 1863.6" fill="#ffffff"/>
<path transform="matrix(.1,0,0,-.1,0,792)" stroke-width="20" stroke-linecap="butt" stroke-miterlimit="10" stroke-linejoin="miter" fill="none" stroke="#000000" d="M2811.2 1863.6 2457.7 1510.1V1010.1L2811.2 656.5H3311.2L3664.8 1010.1V1510.1L3311.2 1863.6Z"/>
<path transform="matrix(.1,0,0,-.1,0,792)" d="M4518.3 1863.6H5018.3L4768.3 2113.6" fill="#cc0000"/>
<path transform="matrix(.1,0,0,-.1,0,792)" stroke-width="20" stroke-linecap="butt" stroke-miterlimit="10" stroke-linejoin="miter" fill="none" stroke="#000000" d="M4518.3 1863.6H5018.3L4768.3 2113.6Z"/>
<path transform="matrix(.1,0,0,-.1,0,792)" d="M4518.3 1863.6 4164.8 1510.1V1010.1L4518.3 656.5H5018.3L5371.9 1010.1V1510.1L5018.3 1863.6" fill="#ffffff"/>
<path transform="matrix(.1,0,0,-.1,0,792)" stroke-width="20" stroke-linecap="butt" stroke-miterlimit="10" stroke-linejoin="miter" fill="none" stroke="#000000" d="M4518.3 1863.6 4164.8 1510.1V1010.1L4518.3 656.5H5018.3L5371.9 1010.1V1510.1L5018.3 1863.6Z"/>
<path transform="matrix(.1,0,0,-.1,0,792)" d="M1250.6 4424.3 1147 4174.3 1250.6 3924.3" fill="#e6e6e6"/>
<path transform="matrix(.1,0,0,-.1,0,792)" stroke-width="20" stroke-linecap="butt" stroke-miterlimit="10" stroke-linejoin="miter" fill="none" stroke="#000000" d="M1250.6 4424.3 1147 4174.3 1250.6 3924.3Z"/>
<path transform="matrix(.1,0,0,-.1,0,792)" d="M1250.6 4424.3 1000.6 4320.7 750.602 4424.3 854.102 4174.3 750.602 3924.3 1000.6 4027.8 1250.6 3924.3 1147 4174.3" fill="#cc0000"/>
<path transform="matrix(.1,0,0,-.1,0,792)" stroke-width="20" stroke-linecap="butt" stroke-miterlimit="10" stroke-linejoin="miter" fill="none" stroke="#000000" d="M1250.6 4424.3 1000.6 4320.7 750.602 4424.3 854.102 4174.3 750.602 3924.3 1000.6 4027.8 1250.6 3924.3 1147 4174.3Z"/>
<path transform="matrix(.1,0,0,-.1,0,792)" d="M1250.6 4424.3H750.602L1000.6 4320.7" fill="#e6e6e6"/>
<path transform="matrix(.1,0,0,-.1,0,792)" stroke-width="20" stroke-linecap="butt" stroke-miterlimit="10" stroke-linejoin="miter" fill="none" stroke="#000000" d="M1250.6 4424.3H750.602L1000.6 4320.7Z"/>
<path transform="matrix(.1,0,0,-.1,0,792)" d="M1250.6 3924.3 1000.6 4027.8 750.602 3924.3" fill="#e6e6e6"/>
<path transform="matrix(.1,0,0,-.1,0,792)" stroke-width="20" stroke-linecap="butt" stroke-miterlimit="10" stroke-linejoin="miter" fill="none" stroke="#000000" d="M1250.6 3924.3 1000.6 4027.8 750.602 3924.3Z"/>
<path transform="matrix(.1,0,0,-.1,0,792)" d="M4768.3 2113.6 5018.3 1863.6H5371.9V2717.2Z" fill="#ffffff"/>
<path transform="matrix(.1,0,0,-.1,0,792)" stroke-width="20" stroke-linecap="butt" stroke-miterlimit="10" stroke-linejoin="miter" fill="none" stroke="#000000" d="M4768.3 2113.6 5018.3 1863.6H5371.9V2717.2Z"/>
<path transform="matrix(.1,0,0,-.1,0,792)" d="M4768.3 3320.7 5371.9 2717.2V3570.7H5018.3Z" fill="#ffffff"/>
<path transform="matrix(.1,0,0,-.1,0,792)" stroke-width="20" stroke-linecap="butt" stroke-miterlimit="10" stroke-linejoin="miter" fill="none" stroke="#000000" d="M4768.3 3320.7 5371.9 2717.2V3570.7H5018.3Z"/>
<path transform="matrix(.1,0,0,-.1,0,792)" d="M4768.3 5027.8 5018.3 4777.8H5371.9V5631.4Z" fill="#ffffff"/>
<path transform="matrix(.1,0,0,-.1,0,792)" stroke-width="20" stroke-linecap="butt" stroke-miterlimit="10" stroke-linejoin="miter" fill="none" stroke="#000000" d="M4768.3 5027.8 5018.3 4777.8H5371.9V5631.4Z"/>
<path transform="matrix(.1,0,0,-.1,0,792)" d="M4768.3 6234.9 5371.9 5631.4V6484.9H5018.3Z" fill="#ffffff"/>
<path transform="matrix(.1,0,0,-.1,0,792)" stroke-width="20" stroke-linecap="butt" stroke-miterlimit="10" stroke-linejoin="miter" fill="none" stroke="#000000" d="M4768.3 6234.9 5371.9 5631.4V6484.9H5018.3Z"/>
<path transform="matrix(.1,0,0,-.1,0,792)" d="M4164.8 6838.5 3914.8 6942.1 3664.8 6838.5" fill="#e6e6e6"/>
<path transform="matrix(.1,0,0,-.1,0,792)" stroke-width="20" stroke-linecap="butt" stroke-miterlimit="10" stroke-linejoin="miter" fill="none" stroke="#000000" d="M4164.8 6838.5 3914.8 6942.1 3664.8 6838.5Z"/>
<path transform="matrix(.1,0,0,-.1,0,792)" d="M4164.8 6838.5 4061.2 7088.5 4164.8 7338.5 3914.8 7234.9 3664.8 7338.5 3768.3 7088.5 3664.8 6838.5 3914.8 6942.1" fill="#cc0000"/>
<path transform="matrix(.1,0,0,-.1,0,792)" stroke-width="20" stroke-linecap="butt" stroke-miterlimit="10" stroke-linejoin="miter" fill="none" stroke="#000000" d="M4164.8 6838.5 4061.2 7088.5 4164.8 7338.5 3914.8 7234.9 3664.8 7338.5 3768.3 7088.5 3664.8 6838.5 3914.8 6942.1Z"/>
<path transform="matrix(.1,0,0,-.1,0,792)" d="M4164.8 6838.5V7338.5L4061.2 7088.5" fill="#e6e6e6"/>
<path transform="matrix(.1,0,0,-.1,0,792)" stroke-width="20" stroke-linecap="butt" stroke-miterlimit="10" stroke-linejoin="miter" fill="none" stroke="#000000" d="M4164.8 6838.5V7338.5L4061.2 7088.5Z"/>
<path transform="matrix(.1,0,0,-.1,0,792)" d="M3664.8 6838.5 3768.3 7088.5 3664.8 7338.5" fill="#e6e6e6"/>
<path transform="matrix(.1,0,0,-.1,0,792)" stroke-width="20" stroke-linecap="butt" stroke-miterlimit="10" stroke-linejoin="miter" fill="none" stroke="#000000" d="M3664.8 6838.5 3768.3 7088.5 3664.8 7338.5Z"/>
<path transform="matrix(.1,0,0,-.1,0,792)" d="M1250.6 6838.5 1000.6 6942.1 750.602 6838.5" fill="#e6e6e6"/>
<path transform="matrix(.1,0,0,-.1,0,792)" stroke-width="20" stroke-linecap="butt" stroke-miterlimit="10" stroke-linejoin="miter" fill="none" stroke="#000000" d="M1250.6 6838.5 1000.6 6942.1 750.602 6838.5Z"/>
<path transform="matrix(.1,0,0,-.1,0,792)" d="M1250.6 6838.5 1147 7088.5 1250.6 7338.5 1000.6 7234.9 750.602 7338.5 854.102 7088.5 750.602 6838.5 1000.6 6942.1" fill="#cc0000"/>
<path transform="matrix(.1,0,0,-.1,0,792)" stroke-width="20" stroke-linecap="butt" stroke-miterlimit="10" stroke-linejoin="miter" fill="none" stroke="#000000" d="M1250.6 6838.5 1147 7088.5 1250.6 7338.5 1000.6 7234.9 750.602 7338.5 854.102 7088.5 750.602 6838.5 1000.6 6942.1Z"/>
<path transform="matrix(.1,0,0,-.1,0,792)" d="M1250.6 6838.5V7338.5L1147 7088.5" fill="#e6e6e6"/>
<path transform="matrix(.1,0,0,-.1,0,792)" stroke-width="20" stroke-linecap="butt" stroke-miterlimit="10" stroke-linejoin="miter" fill="none" stroke="#000000" d="M1250.6 6838.5V7338.5L1147 7088.5Z"/>
<path transform="matrix(.1,0,0,-.1,0,792)" d="M1250.6 1510.1 1147 1260.1 1250.6 1010.1" fill="#e6e6e6"/>
<path transform="matrix(.1,0,0,-.1,0,792)" stroke-width="20" stroke-linecap="butt" stroke-miterlimit="10" stroke-linejoin="miter" fill="none" stroke="#000000" d="M1250.6 1510.1 1147 1260.1 1250.6 1010.1Z"/>
<path transform="matrix(.1,0,0,-.1,0,792)" d="M1250.6 1510.1 1000.6 1406.5 750.602 1510.1 854.102 1260.1 750.602 1010.1 1000.6 1113.6 1250.6 1010.1 1147 1260.1" fill="#cc0000"/>
<path transform="matrix(.1,0,0,-.1,0,792)" stroke-width="20" stroke-linecap="butt" stroke-miterlimit="10" stroke-linejoin="miter" fill="none" stroke="#000000" d="M1250.6 1510.1 1000.6 1406.5 750.602 1510.1 854.102 1260.1 750.602 1010.1 1000.6 1113.6 1250.6 1010.1 1147 1260.1Z"/>
<path transform="matrix(.1,0,0,-.1,0,792)" d="M1250.6 1510.1H750.602L1000.6 1406.5" fill="#e6e6e6"/>
<path transform="matrix(.1,0,0,-.1,0,792)" stroke-width="20" stroke-linecap="butt" stroke-miterlimit="10" stroke-linejoin="miter" fill="none" stroke="#000000" d="M1250.6 1510.1H750.602L1000.6 1406.5Z"/>
<path transform="matrix(.1,0,0,-.1,0,792)" d="M3664.8 1510.1 3914.8 1406.5 4164.8 1510.1" fill="#e6e6e6"/>
<path transform="matrix(.1,0,0,-.1,0,792)" stroke-width="20" stroke-linecap="butt" stroke-miterlimit="10" stroke-linejoin="miter" fill="none" stroke="#000000" d="M3664.8 1510.1 3914.8 1406.5 4164.8 1510.1Z"/>
<path transform="matrix(.1,0,0,-.1,0,792)" d="M3664.8 1510.1 3768.3 1260.1 3664.8 1010.1 3914.8 1113.6 4164.8 1010.1 4061.2 1260.1 4164.8 1510.1 3914.8 1406.5" fill="#cc0000"/>
<path transform="matrix(.1,0,0,-.1,0,792)" stroke-width="20" stroke-linecap="butt" stroke-miterlimit="10" stroke-linejoin="miter" fill="none" stroke="#000000" d="M3664.8 1510.1 3768.3 1260.1 3664.8 1010.1 3914.8 1113.6 4164.8 1010.1 4061.2 1260.1 4164.8 1510.1 3914.8 1406.5Z"/>
<path transform="matrix(.1,0,0,-.1,0,792)" d="M3664.8 1510.1V1010.1L3768.3 1260.1" fill="#e6e6e6"/>
<path transform="matrix(.1,0,0,-.1,0,792)" stroke-width="20" stroke-linecap="butt" stroke-miterlimit="10" stroke-linejoin="miter" fill="none" stroke="#000000" d="M3664.8 1510.1V1010.1L3768.3 1260.1Z"/>
<path transform="matrix(.1,0,0,-.1,0,792)" d="M4164.8 1510.1 4061.2 1260.1 4164.8 1010.1" fill="#e6e6e6"/>
<path transform="matrix(.1,0,0,-.1,0,792)" stroke-width="20" stroke-linecap="butt" stroke-miterlimit="10" stroke-linejoin="miter" fill="none" stroke="#000000" d="M4164.8 1510.1 4061.2 1260.1 4164.8 1010.1Z"/>
<path transform="matrix(.1,0,0,-.1,0,792)" d="M5018.3 1863.6 5371.9 1510.1V1863.6" fill="#cc0000"/>
<path transform="matrix(.1,0,0,-.1,0,792)" stroke-width="20" stroke-linecap="butt" stroke-miterlimit="10" stroke-linejoin="miter" fill="none" stroke="#000000" d="M5018.3 1863.6 5371.9 1510.1V1863.6Z"/>
<path transform="matrix(.1,0,0,-.1,0,792)" d="M5018.3 3570.7H5371.9V3924.3" fill="#cc0000"/>
<path transform="matrix(.1,0,0,-.1,0,792)" stroke-width="20" stroke-linecap="butt" stroke-miterlimit="10" stroke-linejoin="miter" fill="none" stroke="#000000" d="M5018.3 3570.7H5371.9V3924.3Z"/>
<path transform="matrix(.1,0,0,-.1,0,792)" d="M5018.3 4777.8 5371.9 4424.3V4777.8" fill="#cc0000"/>
<path transform="matrix(.1,0,0,-.1,0,792)" stroke-width="20" stroke-linecap="butt" stroke-miterlimit="10" stroke-linejoin="miter" fill="none" stroke="#000000" d="M5018.3 4777.8 5371.9 4424.3V4777.8Z"/>
<path transform="matrix(.1,0,0,-.1,0,792)" d="M5018.3 6484.9H5371.9V6838.5" fill="#cc0000"/>
<path transform="matrix(.1,0,0,-.1,0,792)" stroke-width="20" stroke-linecap="butt" stroke-miterlimit="10" stroke-linejoin="miter" fill="none" stroke="#000000" d="M5018.3 6484.9H5371.9V6838.5Z"/>
<path transform="matrix(.1,0,0,-.1,0,792)" d="M854.102 7088.5 750.602 7338.5V6838.5" fill="#e6e6e6"/>
<path transform="matrix(.1,0,0,-.1,0,792)" stroke-width="20" stroke-linecap="butt" stroke-miterlimit="10" stroke-linejoin="miter" fill="none" stroke="#000000" d="M854.102 7088.5 750.602 7338.5V6838.5Z"/>
<path transform="matrix(.1,0,0,-.1,0,792)" d="M854.102 4174.3 750.602 4424.3V3924.3" fill="#e6e6e6"/>
<path transform="matrix(.1,0,0,-.1,0,792)" stroke-width="20" stroke-linecap="butt" stroke-miterlimit="10" stroke-linejoin="miter" fill="none" stroke="#000000" d="M854.102 4174.3 750.602 4424.3V3924.3Z"/>
<path transform="matrix(.1,0,0,-.1,0,792)" d="M854.102 1260.1 750.602 1510.1V1010.1" fill="#e6e6e6"/>
<path transform="matrix(.1,0,0,-.1,0,792)" stroke-width="20" stroke-linecap="butt" stroke-miterlimit="10" stroke-linejoin="miter" fill="none" stroke="#000000" d="M854.102 1260.1 750.602 1510.1V1010.1Z"/>
<path transform="matrix(.1,0,0,-.1,0,792)" d="M3914.8 7234.9 4164.8 7338.5H3664.8" fill="#e6e6e6"/>
<path transform="matrix(.1,0,0,-.1,0,792)" stroke-width="20" stroke-linecap="butt" stroke-miterlimit="10" stroke-linejoin="miter" fill="none" stroke="#000000" d="M3914.8 7234.9 4164.8 7338.5H3664.8Z"/>
<path transform="matrix(.1,0,0,-.1,0,792)" d="M1000.6 7234.9 1250.6 7338.5H750.602" fill="#e6e6e6"/>
<path transform="matrix(.1,0,0,-.1,0,792)" stroke-width="20" stroke-linecap="butt" stroke-miterlimit="10" stroke-linejoin="miter" fill="none" stroke="#000000" d="M1000.6 7234.9 1250.6 7338.5H750.602Z"/>
<path transform="matrix(.1,0,0,-.1,0,792)" d="M750.602 6838.5V7338.5L397 7692.1H-103L-456.5 7338.5V6838.5L-103 6484.9H397" fill="#ffffff"/>
<path transform="matrix(.1,0,0,-.1,0,792)" stroke-width="20" stroke-linecap="butt" stroke-miterlimit="10" stroke-linejoin="miter" fill="none" stroke="#000000" d="M750.602 6838.5V7338.5L397 7692.1H-103L-456.5 7338.5V6838.5L-103 6484.9H397Z"/>
<path transform="matrix(.1,0,0,-.1,0,792)" d="M750.602 5631.4H397V5277.8" fill="#cc0000"/>
<path transform="matrix(.1,0,0,-.1,0,792)" stroke-width="20" stroke-linecap="butt" stroke-miterlimit="10" stroke-linejoin="miter" fill="none" stroke="#000000" d="M750.602 5631.4H397V5277.8Z"/>
<path transform="matrix(.1,0,0,-.1,0,792)" d="M750.602 5631.4 397 5984.9V5631.4" fill="#cc0000"/>
<path transform="matrix(.1,0,0,-.1,0,792)" stroke-width="20" stroke-linecap="butt" stroke-miterlimit="10" stroke-linejoin="miter" fill="none" stroke="#000000" d="M750.602 5631.4 397 5984.9V5631.4Z"/>
<path transform="matrix(.1,0,0,-.1,0,792)" d="M750.602 4424.3 397 4777.8H-103L-456.5 4424.3V3924.3L-103 3570.7H397L750.602 3924.3" fill="#ffffff"/>
<path transform="matrix(.1,0,0,-.1,0,792)" stroke-width="20" stroke-linecap="butt" stroke-miterlimit="10" stroke-linejoin="miter" fill="none" stroke="#000000" d="M750.602 4424.3 397 4777.8H-103L-456.5 4424.3V3924.3L-103 3570.7H397L750.602 3924.3Z"/>
<path transform="matrix(.1,0,0,-.1,0,792)" d="M750.602 2717.2H397V2363.6" fill="#cc0000"/>
<path transform="matrix(.1,0,0,-.1,0,792)" stroke-width="20" stroke-linecap="butt" stroke-miterlimit="10" stroke-linejoin="miter" fill="none" stroke="#000000" d="M750.602 2717.2H397V2363.6Z"/>
<path transform="matrix(.1,0,0,-.1,0,792)" d="M750.602 2717.2 397 3070.7V2717.2" fill="#cc0000"/>
<path transform="matrix(.1,0,0,-.1,0,792)" stroke-width="20" stroke-linecap="butt" stroke-miterlimit="10" stroke-linejoin="miter" fill="none" stroke="#000000" d="M750.602 2717.2 397 3070.7V2717.2Z"/>
<path transform="matrix(.1,0,0,-.1,0,792)" d="M750.602 1510.1 397 1863.6H-103L-456.5 1510.1V1010.1L-103 656.5H397L750.602 1010.1" fill="#ffffff"/>
<path transform="matrix(.1,0,0,-.1,0,792)" stroke-width="20" stroke-linecap="butt" stroke-miterlimit="10" stroke-linejoin="miter" fill="none" stroke="#000000" d="M750.602 1510.1 397 1863.6H-103L-456.5 1510.1V1010.1L-103 656.5H397L750.602 1010.1Z"/>
<path transform="matrix(.1,0,0,-.1,0,792)" d="M1000.6 1113.6 750.602 1010.1H1250.6" fill="#e6e6e6"/>
<path transform="matrix(.1,0,0,-.1,0,792)" stroke-width="20" stroke-linecap="butt" stroke-miterlimit="10" stroke-linejoin="miter" fill="none" stroke="#000000" d="M1000.6 1113.6 750.602 1010.1H1250.6Z"/>
<path transform="matrix(.1,0,0,-.1,0,792)" d="M3914.8 1113.6 3664.8 1010.1H4164.8" fill="#e6e6e6"/>
<path transform="matrix(.1,0,0,-.1,0,792)" stroke-width="20" stroke-linecap="butt" stroke-miterlimit="10" stroke-linejoin="miter" fill="none" stroke="#000000" d="M3914.8 1113.6 3664.8 1010.1H4164.8Z"/>
<path transform="matrix(.1,0,0,-.1,0,792)" d="M4164.8 7338.5 4518.3 7692.1V8192.1L4164.8 8545.6H3664.8L3311.2 8192.1V7692.1L3664.8 7338.5" fill="#ffffff"/>
<path transform="matrix(.1,0,0,-.1,0,792)" stroke-width="20" stroke-linecap="butt" stroke-miterlimit="10" stroke-linejoin="miter" fill="none" stroke="#000000" d="M4164.8 7338.5 4518.3 7692.1V8192.1L4164.8 8545.6H3664.8L3311.2 8192.1V7692.1L3664.8 7338.5Z"/>
<path transform="matrix(.1,0,0,-.1,0,792)" d="M2457.7 7338.5V7692.1H2104.1" fill="#cc0000"/>
<path transform="matrix(.1,0,0,-.1,0,792)" stroke-width="20" stroke-linecap="butt" stroke-miterlimit="10" stroke-linejoin="miter" fill="none" stroke="#000000" d="M2457.7 7338.5V7692.1H2104.1Z"/>
<path transform="matrix(.1,0,0,-.1,0,792)" d="M2457.7 7338.5 2811.2 7692.1H2457.7" fill="#cc0000"/>
<path transform="matrix(.1,0,0,-.1,0,792)" stroke-width="20" stroke-linecap="butt" stroke-miterlimit="10" stroke-linejoin="miter" fill="none" stroke="#000000" d="M2457.7 7338.5 2811.2 7692.1H2457.7Z"/>
<path transform="matrix(.1,0,0,-.1,0,792)" d="M1250.6 7338.5 1604.1 7692.1V8192.1L1250.6 8545.6H750.602L397 8192.1V7692.1L750.602 7338.5" fill="#ffffff"/>
<path transform="matrix(.1,0,0,-.1,0,792)" stroke-width="20" stroke-linecap="butt" stroke-miterlimit="10" stroke-linejoin="miter" fill="none" stroke="#000000" d="M1250.6 7338.5 1604.1 7692.1V8192.1L1250.6 8545.6H750.602L397 8192.1V7692.1L750.602 7338.5Z"/>
<path transform="matrix(.1,0,0,-.1,0,792)" d="M750.602 1010.1 397 656.5V156.5L750.602-197H1250.6L1604.1 156.5V656.5L1250.6 1010.1" fill="#ffffff"/>
<path transform="matrix(.1,0,0,-.1,0,792)" stroke-width="20" stroke-linecap="butt" stroke-miterlimit="10" stroke-linejoin="miter" fill="none" stroke="#000000" d="M750.602 1010.1 397 656.5V156.5L750.602-197H1250.6L1604.1 156.5V656.5L1250.6 1010.1Z"/>
<path transform="matrix(.1,0,0,-.1,0,792)" d="M2457.7 1010.1V656.5H2811.2" fill="#cc0000"/>
<path transform="matrix(.1,0,0,-.1,0,792)" stroke-width="20" stroke-linecap="butt" stroke-miterlimit="10" stroke-linejoin="miter" fill="none" stroke="#000000" d="M2457.7 1010.1V656.5H2811.2Z"/>
<path transform="matrix(.1,0,0,-.1,0,792)" d="M2457.7 1010.1 2104.1 656.5H2457.7" fill="#cc0000"/>
<path transform="matrix(.1,0,0,-.1,0,792)" stroke-width="20" stroke-linecap="butt" stroke-miterlimit="10" stroke-linejoin="miter" fill="none" stroke="#000000" d="M2457.7 1010.1 2104.1 656.5H2457.7Z"/>
<path transform="matrix(.1,0,0,-.1,0,792)" d="M3664.8 1010.1 3311.2 656.5V156.5L3664.8-197H4164.8L4518.3 156.5V656.5L4164.8 1010.1" fill="#ffffff"/>
<path transform="matrix(.1,0,0,-.1,0,792)" stroke-width="20" stroke-linecap="butt" stroke-miterlimit="10" stroke-linejoin="miter" fill="none" stroke="#000000" d="M3664.8 1010.1 3311.2 656.5V156.5L3664.8-197H4164.8L4518.3 156.5V656.5L4164.8 1010.1Z"/>
<path transform="matrix(.1,0,0,-.1,0,792)" d="M5371.9 1010.1 5725.4 656.5H6225.4L6579 1010.1V1510.1L6225.4 1863.6H5725.4L5371.9 1510.1" fill="#ffffff"/>
<path transform="matrix(.1,0,0,-.1,0,792)" stroke-width="20" stroke-linecap="butt" stroke-miterlimit="10" stroke-linejoin="miter" fill="none" stroke="#000000" d="M5371.9 1010.1 5725.4 656.5H6225.4L6579 1010.1V1510.1L6225.4 1863.6H5725.4L5371.9 1510.1Z"/>
<path transform="matrix(.1,0,0,-.1,0,792)" d="M5371.9 1010.1V656.5H5725.4" fill="#cc0000"/>
<path transform="matrix(.1,0,0,-.1,0,792)" stroke-width="20" stroke-linecap="butt" stroke-miterlimit="10" stroke-linejoin="miter" fill="none" stroke="#000000" d="M5371.9 1010.1V656.5H5725.4Z"/>
<path transform="matrix(.1,0,0,-.1,0,792)" d="M5371.9 1010.1 5018.3 656.5H5371.9" fill="#cc0000"/>
<path transform="matrix(.1,0,0,-.1,0,792)" stroke-width="20" stroke-linecap="butt" stroke-miterlimit="10" stroke-linejoin="miter" fill="none" stroke="#000000" d="M5371.9 1010.1 5018.3 656.5H5371.9Z"/>
<path transform="matrix(.1,0,0,-.1,0,792)" d="M5371.9 1510.1 5725.4 1863.6H5371.9" fill="#cc0000"/>
<path transform="matrix(.1,0,0,-.1,0,792)" stroke-width="20" stroke-linecap="butt" stroke-miterlimit="10" stroke-linejoin="miter" fill="none" stroke="#000000" d="M5371.9 1510.1 5725.4 1863.6H5371.9Z"/>
<path transform="matrix(.1,0,0,-.1,0,792)" d="M5371.9 1863.6H5725.4L5975.4 2113.6 5371.9 2717.2Z" fill="#ffffff"/>
<path transform="matrix(.1,0,0,-.1,0,792)" stroke-width="20" stroke-linecap="butt" stroke-miterlimit="10" stroke-linejoin="miter" fill="none" stroke="#000000" d="M5371.9 1863.6H5725.4L5975.4 2113.6 5371.9 2717.2Z"/>
<path transform="matrix(.1,0,0,-.1,0,792)" d="M5371.9 2717.2 5975.4 3320.7 5725.4 3570.7H5371.9Z" fill="#ffffff"/>
<path transform="matrix(.1,0,0,-.1,0,792)" stroke-width="20" stroke-linecap="butt" stroke-miterlimit="10" stroke-linejoin="miter" fill="none" stroke="#000000" d="M5371.9 2717.2 5975.4 3320.7 5725.4 3570.7H5371.9Z"/>
<path transform="matrix(.1,0,0,-.1,0,792)" d="M5371.9 2717.2H6225.4V3070.7L5975.4 3320.7Z" fill="#ffffff"/>
<path transform="matrix(.1,0,0,-.1,0,792)" stroke-width="20" stroke-linecap="butt" stroke-miterlimit="10" stroke-linejoin="miter" fill="none" stroke="#000000" d="M5371.9 2717.2H6225.4V3070.7L5975.4 3320.7Z"/>
<path transform="matrix(.1,0,0,-.1,0,792)" d="M5371.9 2717.2 5975.4 2113.6 6225.4 2363.6V2717.2Z" fill="#ffffff"/>
<path transform="matrix(.1,0,0,-.1,0,792)" stroke-width="20" stroke-linecap="butt" stroke-miterlimit="10" stroke-linejoin="miter" fill="none" stroke="#000000" d="M5371.9 2717.2 5975.4 2113.6 6225.4 2363.6V2717.2Z"/>
<path transform="matrix(.1,0,0,-.1,0,792)" d="M5371.9 3570.7H5725.4L5371.9 3924.3" fill="#cc0000"/>
<path transform="matrix(.1,0,0,-.1,0,792)" stroke-width="20" stroke-linecap="butt" stroke-miterlimit="10" stroke-linejoin="miter" fill="none" stroke="#000000" d="M5371.9 3570.7H5725.4L5371.9 3924.3Z"/>
<path transform="matrix(.1,0,0,-.1,0,792)" d="M5371.9 3924.3 5725.4 3570.7H6225.4L6579 3924.3V4424.3L6225.4 4777.8H5725.4L5371.9 4424.3" fill="#ffffff"/>
<path transform="matrix(.1,0,0,-.1,0,792)" stroke-width="20" stroke-linecap="butt" stroke-miterlimit="10" stroke-linejoin="miter" fill="none" stroke="#000000" d="M5371.9 3924.3 5725.4 3570.7H6225.4L6579 3924.3V4424.3L6225.4 4777.8H5725.4L5371.9 4424.3Z"/>
<path transform="matrix(.1,0,0,-.1,0,792)" d="M5371.9 4424.3 5725.4 4777.8H5371.9" fill="#cc0000"/>
<path transform="matrix(.1,0,0,-.1,0,792)" stroke-width="20" stroke-linecap="butt" stroke-miterlimit="10" stroke-linejoin="miter" fill="none" stroke="#000000" d="M5371.9 4424.3 5725.4 4777.8H5371.9Z"/>
<path transform="matrix(.1,0,0,-.1,0,792)" d="M5371.9 4777.8H5725.4L5975.4 5027.8 5371.9 5631.4Z" fill="#ffffff"/>
<path transform="matrix(.1,0,0,-.1,0,792)" stroke-width="20" stroke-linecap="butt" stroke-miterlimit="10" stroke-linejoin="miter" fill="none" stroke="#000000" d="M5371.9 4777.8H5725.4L5975.4 5027.8 5371.9 5631.4Z"/>
<path transform="matrix(.1,0,0,-.1,0,792)" d="M5371.9 5631.4 5975.4 6234.9 5725.4 6484.9H5371.9Z" fill="#ffffff"/>
<path transform="matrix(.1,0,0,-.1,0,792)" stroke-width="20" stroke-linecap="butt" stroke-miterlimit="10" stroke-linejoin="miter" fill="none" stroke="#000000" d="M5371.9 5631.4 5975.4 6234.9 5725.4 6484.9H5371.9Z"/>
<path transform="matrix(.1,0,0,-.1,0,792)" d="M5371.9 5631.4H6225.4V5984.9L5975.4 6234.9Z" fill="#ffffff"/>
<path transform="matrix(.1,0,0,-.1,0,792)" stroke-width="20" stroke-linecap="butt" stroke-miterlimit="10" stroke-linejoin="miter" fill="none" stroke="#000000" d="M5371.9 5631.4H6225.4V5984.9L5975.4 6234.9Z"/>
<path transform="matrix(.1,0,0,-.1,0,792)" d="M5371.9 5631.4 5975.4 5027.8 6225.4 5277.8V5631.4Z" fill="#ffffff"/>
<path transform="matrix(.1,0,0,-.1,0,792)" stroke-width="20" stroke-linecap="butt" stroke-miterlimit="10" stroke-linejoin="miter" fill="none" stroke="#000000" d="M5371.9 5631.4 5975.4 5027.8 6225.4 5277.8V5631.4Z"/>
<path transform="matrix(.1,0,0,-.1,0,792)" d="M5371.9 6484.9H5725.4L5371.9 6838.5" fill="#cc0000"/>
<path transform="matrix(.1,0,0,-.1,0,792)" stroke-width="20" stroke-linecap="butt" stroke-miterlimit="10" stroke-linejoin="miter" fill="none" stroke="#000000" d="M5371.9 6484.9H5725.4L5371.9 6838.5Z"/>
<path transform="matrix(.1,0,0,-.1,0,792)" d="M5371.9 6838.5 5725.4 6484.9H6225.4L6579 6838.5V7338.5L6225.4 7692.1H5725.4L5371.9 7338.5" fill="#ffffff"/>
<path transform="matrix(.1,0,0,-.1,0,792)" stroke-width="20" stroke-linecap="butt" stroke-miterlimit="10" stroke-linejoin="miter" fill="none" stroke="#000000" d="M5371.9 6838.5 5725.4 6484.9H6225.4L6579 6838.5V7338.5L6225.4 7692.1H5725.4L5371.9 7338.5Z"/>
<path transform="matrix(.1,0,0,-.1,0,792)" d="M5371.9 7338.5V7692.1H5018.3" fill="#cc0000"/>
<path transform="matrix(.1,0,0,-.1,0,792)" stroke-width="20" stroke-linecap="butt" stroke-miterlimit="10" stroke-linejoin="miter" fill="none" stroke="#000000" d="M5371.9 7338.5V7692.1H5018.3Z"/>
<path transform="matrix(.1,0,0,-.1,0,792)" d="M5371.9 7338.5 5725.4 7692.1H5371.9" fill="#cc0000"/>
<path transform="matrix(.1,0,0,-.1,0,792)" stroke-width="20" stroke-linecap="butt" stroke-miterlimit="10" stroke-linejoin="miter" fill="none" stroke="#000000" d="M5371.9 7338.5 5725.4 7692.1H5371.9Z"/>
<path transform="matrix(.1,0,0,-.1,0,792)" d="M5371.9 7692.1V8545.6L4768.3 7942.1 5018.3 7692.1Z" fill="#ffffff"/>
<path transform="matrix(.1,0,0,-.1,0,792)" stroke-width="20" stroke-linecap="butt" stroke-miterlimit="10" stroke-linejoin="miter" fill="none" stroke="#000000" d="M5371.9 7692.1V8545.6L4768.3 7942.1 5018.3 7692.1Z"/>
<path transform="matrix(.1,0,0,-.1,0,792)" d="M5371.9 7692.1H5725.4L5975.4 7942.1 5371.9 8545.6Z" fill="#ffffff"/>
<path transform="matrix(.1,0,0,-.1,0,792)" stroke-width="20" stroke-linecap="butt" stroke-miterlimit="10" stroke-linejoin="miter" fill="none" stroke="#000000" d="M5371.9 7692.1H5725.4L5975.4 7942.1 5371.9 8545.6Z"/>
<path transform="matrix(.1,0,0,-.1,0,792)" d="M5018.3 7692.1 4768.3 7942.1 4518.3 7692.1" fill="#cc0000"/>
<path transform="matrix(.1,0,0,-.1,0,792)" stroke-width="20" stroke-linecap="butt" stroke-miterlimit="10" stroke-linejoin="miter" fill="none" stroke="#000000" d="M5018.3 7692.1 4768.3 7942.1 4518.3 7692.1Z"/>
<path transform="matrix(.1,0,0,-.1,0,792)" d="M4518.3 7692.1 4768.3 7942.1 4518.3 8192.1" fill="#cc0000"/>
<path transform="matrix(.1,0,0,-.1,0,792)" stroke-width="20" stroke-linecap="butt" stroke-miterlimit="10" stroke-linejoin="miter" fill="none" stroke="#000000" d="M4518.3 7692.1 4768.3 7942.1 4518.3 8192.1Z"/>
<path transform="matrix(.1,0,0,-.1,0,792)" d="M3311.2 7692.1 3061.2 7942.1 2811.2 7692.1" fill="#cc0000"/>
<path transform="matrix(.1,0,0,-.1,0,792)" stroke-width="20" stroke-linecap="butt" stroke-miterlimit="10" stroke-linejoin="miter" fill="none" stroke="#000000" d="M3311.2 7692.1 3061.2 7942.1 2811.2 7692.1Z"/>
<path transform="matrix(.1,0,0,-.1,0,792)" d="M3311.2 7692.1V8192.1L3061.2 7942.1" fill="#cc0000"/>
<path transform="matrix(.1,0,0,-.1,0,792)" stroke-width="20" stroke-linecap="butt" stroke-miterlimit="10" stroke-linejoin="miter" fill="none" stroke="#000000" d="M3311.2 7692.1V8192.1L3061.2 7942.1Z"/>
<path transform="matrix(.1,0,0,-.1,0,792)" d="M2811.2 7692.1 3061.2 7942.1 2457.7 8545.6V7692.1Z" fill="#ffffff"/>
<path transform="matrix(.1,0,0,-.1,0,792)" stroke-width="20" stroke-linecap="butt" stroke-miterlimit="10" stroke-linejoin="miter" fill="none" stroke="#000000" d="M2811.2 7692.1 3061.2 7942.1 2457.7 8545.6V7692.1Z"/>
<path transform="matrix(.1,0,0,-.1,0,792)" d="M2457.7 7692.1V8545.6L1854.1 7942.1 2104.1 7692.1Z" fill="#ffffff"/>
<path transform="matrix(.1,0,0,-.1,0,792)" stroke-width="20" stroke-linecap="butt" stroke-miterlimit="10" stroke-linejoin="miter" fill="none" stroke="#000000" d="M2457.7 7692.1V8545.6L1854.1 7942.1 2104.1 7692.1Z"/>
<path transform="matrix(.1,0,0,-.1,0,792)" d="M2104.1 7692.1 1854.1 7942.1 1604.1 7692.1" fill="#cc0000"/>
<path transform="matrix(.1,0,0,-.1,0,792)" stroke-width="20" stroke-linecap="butt" stroke-miterlimit="10" stroke-linejoin="miter" fill="none" stroke="#000000" d="M2104.1 7692.1 1854.1 7942.1 1604.1 7692.1Z"/>
<path transform="matrix(.1,0,0,-.1,0,792)" d="M1604.1 7692.1 1854.1 7942.1 1604.1 8192.1" fill="#cc0000"/>
<path transform="matrix(.1,0,0,-.1,0,792)" stroke-width="20" stroke-linecap="butt" stroke-miterlimit="10" stroke-linejoin="miter" fill="none" stroke="#000000" d="M1604.1 7692.1 1854.1 7942.1 1604.1 8192.1Z"/>
<path transform="matrix(.1,0,0,-.1,0,792)" d="M397 7692.1 147 7942.1-103 7692.1" fill="#cc0000"/>
<path transform="matrix(.1,0,0,-.1,0,792)" stroke-width="20" stroke-linecap="butt" stroke-miterlimit="10" stroke-linejoin="miter" fill="none" stroke="#000000" d="M397 7692.1 147 7942.1-103 7692.1Z"/>
<path transform="matrix(.1,0,0,-.1,0,792)" d="M397 7692.1V8192.1L147 7942.1" fill="#cc0000"/>
<path transform="matrix(.1,0,0,-.1,0,792)" stroke-width="20" stroke-linecap="butt" stroke-miterlimit="10" stroke-linejoin="miter" fill="none" stroke="#000000" d="M397 7692.1V8192.1L147 7942.1Z"/>
<path transform="matrix(.1,0,0,-.1,0,792)" d="M397 6484.9 147 6234.9 397 5984.9" fill="#cc0000"/>
<path transform="matrix(.1,0,0,-.1,0,792)" stroke-width="20" stroke-linecap="butt" stroke-miterlimit="10" stroke-linejoin="miter" fill="none" stroke="#000000" d="M397 6484.9 147 6234.9 397 5984.9Z"/>
<path transform="matrix(.1,0,0,-.1,0,792)" d="M397 6484.9H-103L147 6234.9" fill="#cc0000"/>
<path transform="matrix(.1,0,0,-.1,0,792)" stroke-width="20" stroke-linecap="butt" stroke-miterlimit="10" stroke-linejoin="miter" fill="none" stroke="#000000" d="M397 6484.9H-103L147 6234.9Z"/>
<path transform="matrix(.1,0,0,-.1,0,792)" d="M397 5984.9 147 6234.9-456.5 5631.4H397Z" fill="#ffffff"/>
<path transform="matrix(.1,0,0,-.1,0,792)" stroke-width="20" stroke-linecap="butt" stroke-miterlimit="10" stroke-linejoin="miter" fill="none" stroke="#000000" d="M397 5984.9 147 6234.9-456.5 5631.4H397Z"/>
<path transform="matrix(.1,0,0,-.1,0,792)" d="M397 5631.4H-456.5L147 5027.8 397 5277.8Z" fill="#ffffff"/>
<path transform="matrix(.1,0,0,-.1,0,792)" stroke-width="20" stroke-linecap="butt" stroke-miterlimit="10" stroke-linejoin="miter" fill="none" stroke="#000000" d="M397 5631.4H-456.5L147 5027.8 397 5277.8Z"/>
<path transform="matrix(.1,0,0,-.1,0,792)" d="M397 5277.8 147 5027.8 397 4777.8" fill="#cc0000"/>
<path transform="matrix(.1,0,0,-.1,0,792)" stroke-width="20" stroke-linecap="butt" stroke-miterlimit="10" stroke-linejoin="miter" fill="none" stroke="#000000" d="M397 5277.8 147 5027.8 397 4777.8Z"/>
<path transform="matrix(.1,0,0,-.1,0,792)" d="M397 4777.8 147 5027.8-103 4777.8" fill="#cc0000"/>
<path transform="matrix(.1,0,0,-.1,0,792)" stroke-width="20" stroke-linecap="butt" stroke-miterlimit="10" stroke-linejoin="miter" fill="none" stroke="#000000" d="M397 4777.8 147 5027.8-103 4777.8Z"/>
<path transform="matrix(.1,0,0,-.1,0,792)" d="M397 3570.7 147 3320.7 397 3070.7" fill="#cc0000"/>
<path transform="matrix(.1,0,0,-.1,0,792)" stroke-width="20" stroke-linecap="butt" stroke-miterlimit="10" stroke-linejoin="miter" fill="none" stroke="#000000" d="M397 3570.7 147 3320.7 397 3070.7Z"/>
<path transform="matrix(.1,0,0,-.1,0,792)" d="M397 3570.7H-103L147 3320.7" fill="#cc0000"/>
<path transform="matrix(.1,0,0,-.1,0,792)" stroke-width="20" stroke-linecap="butt" stroke-miterlimit="10" stroke-linejoin="miter" fill="none" stroke="#000000" d="M397 3570.7H-103L147 3320.7Z"/>
<path transform="matrix(.1,0,0,-.1,0,792)" d="M397 3070.7 147 3320.7-456.5 2717.2H397Z" fill="#ffffff"/>
<path transform="matrix(.1,0,0,-.1,0,792)" stroke-width="20" stroke-linecap="butt" stroke-miterlimit="10" stroke-linejoin="miter" fill="none" stroke="#000000" d="M397 3070.7 147 3320.7-456.5 2717.2H397Z"/>
<path transform="matrix(.1,0,0,-.1,0,792)" d="M397 2717.2H-456.5L147 2113.6 397 2363.6Z" fill="#ffffff"/>
<path transform="matrix(.1,0,0,-.1,0,792)" stroke-width="20" stroke-linecap="butt" stroke-miterlimit="10" stroke-linejoin="miter" fill="none" stroke="#000000" d="M397 2717.2H-456.5L147 2113.6 397 2363.6Z"/>
<path transform="matrix(.1,0,0,-.1,0,792)" d="M397 2363.6 147 2113.6 397 1863.6" fill="#cc0000"/>
<path transform="matrix(.1,0,0,-.1,0,792)" stroke-width="20" stroke-linecap="butt" stroke-miterlimit="10" stroke-linejoin="miter" fill="none" stroke="#000000" d="M397 2363.6 147 2113.6 397 1863.6Z"/>
<path transform="matrix(.1,0,0,-.1,0,792)" d="M397 1863.6 147 2113.6-103 1863.6" fill="#cc0000"/>
<path transform="matrix(.1,0,0,-.1,0,792)" stroke-width="20" stroke-linecap="butt" stroke-miterlimit="10" stroke-linejoin="miter" fill="none" stroke="#000000" d="M397 1863.6 147 2113.6-103 1863.6Z"/>
<path transform="matrix(.1,0,0,-.1,0,792)" d="M397 656.5 147 406.5 397 156.5" fill="#cc0000"/>
<path transform="matrix(.1,0,0,-.1,0,792)" stroke-width="20" stroke-linecap="butt" stroke-miterlimit="10" stroke-linejoin="miter" fill="none" stroke="#000000" d="M397 656.5 147 406.5 397 156.5Z"/>
<path transform="matrix(.1,0,0,-.1,0,792)" d="M397 656.5H-103L147 406.5" fill="#cc0000"/>
<path transform="matrix(.1,0,0,-.1,0,792)" stroke-width="20" stroke-linecap="butt" stroke-miterlimit="10" stroke-linejoin="miter" fill="none" stroke="#000000" d="M397 656.5H-103L147 406.5Z"/>
<path transform="matrix(.1,0,0,-.1,0,792)" d="M1604.1 656.5 1854.1 406.5 2104.1 656.5" fill="#cc0000"/>
<path transform="matrix(.1,0,0,-.1,0,792)" stroke-width="20" stroke-linecap="butt" stroke-miterlimit="10" stroke-linejoin="miter" fill="none" stroke="#000000" d="M1604.1 656.5 1854.1 406.5 2104.1 656.5Z"/>
<path transform="matrix(.1,0,0,-.1,0,792)" d="M1604.1 656.5V156.5L1854.1 406.5" fill="#cc0000"/>
<path transform="matrix(.1,0,0,-.1,0,792)" stroke-width="20" stroke-linecap="butt" stroke-miterlimit="10" stroke-linejoin="miter" fill="none" stroke="#000000" d="M1604.1 656.5V156.5L1854.1 406.5Z"/>
<path transform="matrix(.1,0,0,-.1,0,792)" d="M2104.1 656.5 1854.1 406.5 2457.7-197V656.5Z" fill="#ffffff"/>
<path transform="matrix(.1,0,0,-.1,0,792)" stroke-width="20" stroke-linecap="butt" stroke-miterlimit="10" stroke-linejoin="miter" fill="none" stroke="#000000" d="M2104.1 656.5 1854.1 406.5 2457.7-197V656.5Z"/>
<path transform="matrix(.1,0,0,-.1,0,792)" d="M2457.7 656.5V-197L3061.2 406.5 2811.2 656.5Z" fill="#ffffff"/>
<path transform="matrix(.1,0,0,-.1,0,792)" stroke-width="20" stroke-linecap="butt" stroke-miterlimit="10" stroke-linejoin="miter" fill="none" stroke="#000000" d="M2457.7 656.5V-197L3061.2 406.5 2811.2 656.5Z"/>
<path transform="matrix(.1,0,0,-.1,0,792)" d="M2811.2 656.5 3061.2 406.5 3311.2 656.5" fill="#cc0000"/>
<path transform="matrix(.1,0,0,-.1,0,792)" stroke-width="20" stroke-linecap="butt" stroke-miterlimit="10" stroke-linejoin="miter" fill="none" stroke="#000000" d="M2811.2 656.5 3061.2 406.5 3311.2 656.5Z"/>
<path transform="matrix(.1,0,0,-.1,0,792)" d="M3311.2 656.5 3061.2 406.5 3311.2 156.5" fill="#cc0000"/>
<path transform="matrix(.1,0,0,-.1,0,792)" stroke-width="20" stroke-linecap="butt" stroke-miterlimit="10" stroke-linejoin="miter" fill="none" stroke="#000000" d="M3311.2 656.5 3061.2 406.5 3311.2 156.5Z"/>
<path transform="matrix(.1,0,0,-.1,0,792)" d="M4518.3 656.5 4768.3 406.5 5018.3 656.5" fill="#cc0000"/>
<path transform="matrix(.1,0,0,-.1,0,792)" stroke-width="20" stroke-linecap="butt" stroke-miterlimit="10" stroke-linejoin="miter" fill="none" stroke="#000000" d="M4518.3 656.5 4768.3 406.5 5018.3 656.5Z"/>
<path transform="matrix(.1,0,0,-.1,0,792)" d="M4518.3 656.5V156.5L4768.3 406.5" fill="#cc0000"/>
<path transform="matrix(.1,0,0,-.1,0,792)" stroke-width="20" stroke-linecap="butt" stroke-miterlimit="10" stroke-linejoin="miter" fill="none" stroke="#000000" d="M4518.3 656.5V156.5L4768.3 406.5Z"/>
<path transform="matrix(.1,0,0,-.1,0,792)" d="M5018.3 656.5 4768.3 406.5 5371.9-197V656.5Z" fill="#ffffff"/>
<path transform="matrix(.1,0,0,-.1,0,792)" stroke-width="20" stroke-linecap="butt" stroke-miterlimit="10" stroke-linejoin="miter" fill="none" stroke="#000000" d="M5018.3 656.5 4768.3 406.5 5371.9-197V656.5Z"/>
<path transform="matrix(.1,0,0,-.1,0,792)" d="M5371.9 656.5V-197L5975.4 406.5 5725.4 656.5Z" fill="#ffffff"/>
<path transform="matrix(.1,0,0,-.1,0,792)" stroke-width="20" stroke-linecap="butt" stroke-miterlimit="10" stroke-linejoin="miter" fill="none" stroke="#000000" d="M5371.9 656.5V-197L5975.4 406.5 5725.4 656.5Z"/>
<path transform="matrix(.1,0,0,-.1,0,792)" d="M5725.4 656.5 5975.4 406.5 6225.4 656.5" fill="#cc0000"/>
<path transform="matrix(.1,0,0,-.1,0,792)" stroke-width="20" stroke-linecap="butt" stroke-miterlimit="10" stroke-linejoin="miter" fill="none" stroke="#000000" d="M5725.4 656.5 5975.4 406.5 6225.4 656.5Z"/>
<path transform="matrix(.1,0,0,-.1,0,792)" d="M5725.4 1863.6H6225.4L5975.4 2113.6" fill="#cc0000"/>
<path transform="matrix(.1,0,0,-.1,0,792)" stroke-width="20" stroke-linecap="butt" stroke-miterlimit="10" stroke-linejoin="miter" fill="none" stroke="#000000" d="M5725.4 1863.6H6225.4L5975.4 2113.6Z"/>
<path transform="matrix(.1,0,0,-.1,0,792)" d="M5725.4 3570.7 5975.4 3320.7 6225.4 3570.7" fill="#cc0000"/>
<path transform="matrix(.1,0,0,-.1,0,792)" stroke-width="20" stroke-linecap="butt" stroke-miterlimit="10" stroke-linejoin="miter" fill="none" stroke="#000000" d="M5725.4 3570.7 5975.4 3320.7 6225.4 3570.7Z"/>
<path transform="matrix(.1,0,0,-.1,0,792)" d="M5725.4 4777.8H6225.4L5975.4 5027.8" fill="#cc0000"/>
<path transform="matrix(.1,0,0,-.1,0,792)" stroke-width="20" stroke-linecap="butt" stroke-miterlimit="10" stroke-linejoin="miter" fill="none" stroke="#000000" d="M5725.4 4777.8H6225.4L5975.4 5027.8Z"/>
<path transform="matrix(.1,0,0,-.1,0,792)" d="M5725.4 6484.9 5975.4 6234.9 6225.4 6484.9" fill="#cc0000"/>
<path transform="matrix(.1,0,0,-.1,0,792)" stroke-width="20" stroke-linecap="butt" stroke-miterlimit="10" stroke-linejoin="miter" fill="none" stroke="#000000" d="M5725.4 6484.9 5975.4 6234.9 6225.4 6484.9Z"/>
<path transform="matrix(.1,0,0,-.1,0,792)" d="M5725.4 7692.1H6225.4L5975.4 7942.1" fill="#cc0000"/>
<path transform="matrix(.1,0,0,-.1,0,792)" stroke-width="20" stroke-linecap="butt" stroke-miterlimit="10" stroke-linejoin="miter" fill="none" stroke="#000000" d="M5725.4 7692.1H6225.4L5975.4 7942.1Z"/>
<path transform="matrix(.1,0,0,-.1,0,792)" d="M1854.1 406.5 1604.1 156.5V-197H2457.7Z" fill="#ffffff"/>
<path transform="matrix(.1,0,0,-.1,0,792)" stroke-width="20" stroke-linecap="butt" stroke-miterlimit="10" stroke-linejoin="miter" fill="none" stroke="#000000" d="M1854.1 406.5 1604.1 156.5V-197H2457.7Z"/>
<path transform="matrix(.1,0,0,-.1,0,792)" d="M3061.2 406.5 2457.7-197H3311.2V156.5Z" fill="#ffffff"/>
<path transform="matrix(.1,0,0,-.1,0,792)" stroke-width="20" stroke-linecap="butt" stroke-miterlimit="10" stroke-linejoin="miter" fill="none" stroke="#000000" d="M3061.2 406.5 2457.7-197H3311.2V156.5Z"/>
<path transform="matrix(.1,0,0,-.1,0,792)" d="M4768.3 406.5 4518.3 156.5V-197H5371.9Z" fill="#ffffff"/>
<path transform="matrix(.1,0,0,-.1,0,792)" stroke-width="20" stroke-linecap="butt" stroke-miterlimit="10" stroke-linejoin="miter" fill="none" stroke="#000000" d="M4768.3 406.5 4518.3 156.5V-197H5371.9Z"/>
<path transform="matrix(.1,0,0,-.1,0,792)" d="M147 7942.1-456.5 8545.6V7692.1H-103Z" fill="#ffffff"/>
<path transform="matrix(.1,0,0,-.1,0,792)" stroke-width="20" stroke-linecap="butt" stroke-miterlimit="10" stroke-linejoin="miter" fill="none" stroke="#000000" d="M147 7942.1-456.5 8545.6V7692.1H-103Z"/>
<path transform="matrix(.1,0,0,-.1,0,792)" d="M147 6234.9-103 6484.9H-456.5V5631.4Z" fill="#ffffff"/>
<path transform="matrix(.1,0,0,-.1,0,792)" stroke-width="20" stroke-linecap="butt" stroke-miterlimit="10" stroke-linejoin="miter" fill="none" stroke="#000000" d="M147 6234.9-103 6484.9H-456.5V5631.4Z"/>
<path transform="matrix(.1,0,0,-.1,0,792)" d="M147 5027.8-456.5 5631.4V4777.8H-103Z" fill="#ffffff"/>
<path transform="matrix(.1,0,0,-.1,0,792)" stroke-width="20" stroke-linecap="butt" stroke-miterlimit="10" stroke-linejoin="miter" fill="none" stroke="#000000" d="M147 5027.8-456.5 5631.4V4777.8H-103Z"/>
<path transform="matrix(.1,0,0,-.1,0,792)" d="M147 3320.7-103 3570.7H-456.5V2717.2Z" fill="#ffffff"/>
<path transform="matrix(.1,0,0,-.1,0,792)" stroke-width="20" stroke-linecap="butt" stroke-miterlimit="10" stroke-linejoin="miter" fill="none" stroke="#000000" d="M147 3320.7-103 3570.7H-456.5V2717.2Z"/>
<path transform="matrix(.1,0,0,-.1,0,792)" d="M147 2113.6-456.5 2717.2V1863.6H-103Z" fill="#ffffff"/>
<path transform="matrix(.1,0,0,-.1,0,792)" stroke-width="20" stroke-linecap="butt" stroke-miterlimit="10" stroke-linejoin="miter" fill="none" stroke="#000000" d="M147 2113.6-456.5 2717.2V1863.6H-103Z"/>
<path transform="matrix(.1,0,0,-.1,0,792)" d="M147 406.5-456.5-197H397V156.5Z" fill="#ffffff"/>
<path transform="matrix(.1,0,0,-.1,0,792)" stroke-width="20" stroke-linecap="butt" stroke-miterlimit="10" stroke-linejoin="miter" fill="none" stroke="#000000" d="M147 406.5-456.5-197H397V156.5Z"/>
<path transform="matrix(.1,0,0,-.1,0,792)" d="M147 406.5-103 656.5H-456.5V-197Z" fill="#ffffff"/>
<path transform="matrix(.1,0,0,-.1,0,792)" stroke-width="20" stroke-linecap="butt" stroke-miterlimit="10" stroke-linejoin="miter" fill="none" stroke="#000000" d="M147 406.5-103 656.5H-456.5V-197Z"/>
<path transform="matrix(.1,0,0,-.1,0,792)" d="M397 156.5V-197H750.602" fill="#cc0000"/>
<path transform="matrix(.1,0,0,-.1,0,792)" stroke-width="20" stroke-linecap="butt" stroke-miterlimit="10" stroke-linejoin="miter" fill="none" stroke="#000000" d="M397 156.5V-197H750.602Z"/>
<path transform="matrix(.1,0,0,-.1,0,792)" d="M1604.1 156.5 1250.6-197H1604.1" fill="#cc0000"/>
<path transform="matrix(.1,0,0,-.1,0,792)" stroke-width="20" stroke-linecap="butt" stroke-miterlimit="10" stroke-linejoin="miter" fill="none" stroke="#000000" d="M1604.1 156.5 1250.6-197H1604.1Z"/>
<path transform="matrix(.1,0,0,-.1,0,792)" d="M3311.2 156.5V-197H3664.8" fill="#cc0000"/>
<path transform="matrix(.1,0,0,-.1,0,792)" stroke-width="20" stroke-linecap="butt" stroke-miterlimit="10" stroke-linejoin="miter" fill="none" stroke="#000000" d="M3311.2 156.5V-197H3664.8Z"/>
<path transform="matrix(.1,0,0,-.1,0,792)" d="M4518.3 156.5 4164.8-197H4518.3" fill="#cc0000"/>
<path transform="matrix(.1,0,0,-.1,0,792)" stroke-width="20" stroke-linecap="butt" stroke-miterlimit="10" stroke-linejoin="miter" fill="none" stroke="#000000" d="M4518.3 156.5 4164.8-197H4518.3Z"/>
<path transform="matrix(.1,0,0,-.1,0,792)" d="M5975.4 406.5 6225.4 156.5V656.5" fill="#cc0000"/>
<path transform="matrix(.1,0,0,-.1,0,792)" stroke-width="20" stroke-linecap="butt" stroke-miterlimit="10" stroke-linejoin="miter" fill="none" stroke="#000000" d="M5975.4 406.5 6225.4 156.5V656.5Z"/>
<path transform="matrix(.1,0,0,-.1,0,792)" d="M5975.4 406.5 5371.9-197H6225.4V156.5Z" fill="#ffffff"/>
<path transform="matrix(.1,0,0,-.1,0,792)" stroke-width="20" stroke-linecap="butt" stroke-miterlimit="10" stroke-linejoin="miter" fill="none" stroke="#000000" d="M5975.4 406.5 5371.9-197H6225.4V156.5Z"/>
<path transform="matrix(.1,0,0,-.1,0,792)" d="M5975.4 2113.6 6225.4 1863.6V2363.6" fill="#cc0000"/>
<path transform="matrix(.1,0,0,-.1,0,792)" stroke-width="20" stroke-linecap="butt" stroke-miterlimit="10" stroke-linejoin="miter" fill="none" stroke="#000000" d="M5975.4 2113.6 6225.4 1863.6V2363.6Z"/>
<path transform="matrix(.1,0,0,-.1,0,792)" d="M5975.4 3320.7 6225.4 3070.7V3570.7" fill="#cc0000"/>
<path transform="matrix(.1,0,0,-.1,0,792)" stroke-width="20" stroke-linecap="butt" stroke-miterlimit="10" stroke-linejoin="miter" fill="none" stroke="#000000" d="M5975.4 3320.7 6225.4 3070.7V3570.7Z"/>
<path transform="matrix(.1,0,0,-.1,0,792)" d="M5975.4 5027.8 6225.4 4777.8V5277.8" fill="#cc0000"/>
<path transform="matrix(.1,0,0,-.1,0,792)" stroke-width="20" stroke-linecap="butt" stroke-miterlimit="10" stroke-linejoin="miter" fill="none" stroke="#000000" d="M5975.4 5027.8 6225.4 4777.8V5277.8Z"/>
<path transform="matrix(.1,0,0,-.1,0,792)" d="M5975.4 6234.9 6225.4 5984.9V6484.9" fill="#cc0000"/>
<path transform="matrix(.1,0,0,-.1,0,792)" stroke-width="20" stroke-linecap="butt" stroke-miterlimit="10" stroke-linejoin="miter" fill="none" stroke="#000000" d="M5975.4 6234.9 6225.4 5984.9V6484.9Z"/>
<path transform="matrix(.1,0,0,-.1,0,792)" d="M5975.4 7942.1 6225.4 7692.1V8192.1" fill="#cc0000"/>
<path transform="matrix(.1,0,0,-.1,0,792)" stroke-width="20" stroke-linecap="butt" stroke-miterlimit="10" stroke-linejoin="miter" fill="none" stroke="#000000" d="M5975.4 7942.1 6225.4 7692.1V8192.1Z"/>
</svg>
