<svg xmlns="http://www.w3.org/2000/svg" xmlns:xlink="http://www.w3.org/1999/xlink" xmlns:inkscape="http://www.inkscape.org/namespaces/inkscape" version="1.1" width="612" height="792" viewBox="0 0 612 792">
<path transform="matrix(.1,0,0,-.1,0,792)" d="M2519.8 3566.2 2696.5 3743H3196.5L3373.3 3566.2 3550.1 3743 3373.3 3919.8V4419.8L3550.1 4596.5 3373.3 4773.3 3196.5 4596.5H2696.5L2519.8 4773.3 2343 4596.5 2519.8 4419.8V3919.8L2343 3743" fill="#ffffff"/>
<path transform="matrix(.1,0,0,-.1,0,792)" stroke-width="3" stroke-linecap="butt" stroke-miterlimit="10" stroke-linejoin="miter" fill="none" stroke="#ffffff" d="M2519.8 3566.2 2696.5 3743H3196.5L3373.3 3566.2 3550.1 3743 3373.3 3919.8V4419.8L3550.1 4596.5 3373.3 4773.3 3196.5 4596.5H2696.5L2519.8 4773.3 2343 4596.5 2519.8 4419.8V3919.8L2343 3743Z"/>
<path transform="matrix(.1,0,0,-.1,0,792)" d="M3196.5 4596.5 3373.3 4773.3 3196.5 4950.1H2696.5L2519.8 4773.3 2696.5 4596.5" fill="#404284"/>
<path transform="matrix(.1,0,0,-.1,0,792)" stroke-width="3" stroke-linecap="butt" stroke-miterlimit="10" stroke-linejoin="miter" fill="none" stroke="#ffffff" d="M3196.5 4596.5 3373.3 4773.3 3196.5 4950.1H2696.5L2519.8 4773.3 2696.5 4596.5Z"/>
<path transform="matrix(.1,0,0,-.1,0,792)" d="M2696.5 3743 2519.8 3566.2 2696.5 3389.4H3196.5L3373.3 3566.2 3196.5 3743" fill="#404284"/>
<path transform="matrix(.1,0,0,-.1,0,792)" stroke-width="3" stroke-linecap="butt" stroke-miterlimit="10" stroke-linejoin="miter" fill="none" stroke="#ffffff" d="M2696.5 3743 2519.8 3566.2 2696.5 3389.4H3196.5L3373.3 3566.2 3196.5 3743Z"/>
<path transform="matrix(.1,0,0,-.1,0,792)" d="M3373.3 3919.8 3550.1 3743 3726.9 3919.8V4419.8L3550.1 4596.5 3373.3 4419.8" fill="#404284"/>
<path transform="matrix(.1,0,0,-.1,0,792)" stroke-width="3" stroke-linecap="butt" stroke-miterlimit="10" stroke-linejoin="miter" fill="none" stroke="#ffffff" d="M3373.3 3919.8 3550.1 3743 3726.9 3919.8V4419.8L3550.1 4596.5 3373.3 4419.8Z"/>
<path transform="matrix(.1,0,0,-.1,0,792)" d="M3373.3 4773.3 3550.1 4950.1 3373.3 5126.9V5626.9L3550.1 5803.6 3373.3 5980.4 3196.5 5803.6H2696.5L2519.8 5980.4 2343 5803.6 2519.8 5626.9V5126.9L2343 4950.1 2519.8 4773.3 2696.5 4950.1H3196.5" fill="#ffffff"/>
<path transform="matrix(.1,0,0,-.1,0,792)" stroke-width="3" stroke-linecap="butt" stroke-miterlimit="10" stroke-linejoin="miter" fill="none" stroke="#ffffff" d="M3373.3 4773.3 3550.1 4950.1 3373.3 5126.9V5626.9L3550.1 5803.6 3373.3 5980.4 3196.5 5803.6H2696.5L2519.8 5980.4 2343 5803.6 2519.8 5626.9V5126.9L2343 4950.1 2519.8 4773.3 2696.5 4950.1H3196.5Z"/>
<path transform="matrix(.1,0,0,-.1,0,792)" d="M3373.3 4773.3 3550.1 4596.5 3726.9 4773.3 3550.1 4950.1Z" fill="#54ab9b"/>
<path transform="matrix(.1,0,0,-.1,0,792)" stroke-width="3" stroke-linecap="butt" stroke-miterlimit="10" stroke-linejoin="miter" fill="none" stroke="#ffffff" d="M3373.3 4773.3 3550.1 4596.5 3726.9 4773.3 3550.1 4950.1Z"/>
<path transform="matrix(.1,0,0,-.1,0,792)" d="M2519.8 4773.3 2343 4950.1 2166.2 4773.3 2343 4596.5Z" fill="#54ab9b"/>
<path transform="matrix(.1,0,0,-.1,0,792)" stroke-width="3" stroke-linecap="butt" stroke-miterlimit="10" stroke-linejoin="miter" fill="none" stroke="#ffffff" d="M2519.8 4773.3 2343 4950.1 2166.2 4773.3 2343 4596.5Z"/>
<path transform="matrix(.1,0,0,-.1,0,792)" d="M2519.8 4419.8 2343 4596.5 2166.2 4419.8V3919.8L2343 3743 2519.8 3919.8" fill="#404284"/>
<path transform="matrix(.1,0,0,-.1,0,792)" stroke-width="3" stroke-linecap="butt" stroke-miterlimit="10" stroke-linejoin="miter" fill="none" stroke="#ffffff" d="M2519.8 4419.8 2343 4596.5 2166.2 4419.8V3919.8L2343 3743 2519.8 3919.8Z"/>
<path transform="matrix(.1,0,0,-.1,0,792)" d="M2519.8 3566.2 2343 3389.4 2519.8 3212.7V2712.7L2343 2535.9 2519.8 2359.1 2696.5 2535.9H3196.5L3373.3 2359.1 3550.1 2535.9 3373.3 2712.7V3212.7L3550.1 3389.4 3373.3 3566.2 3196.5 3389.4H2696.5" fill="#ffffff"/>
<path transform="matrix(.1,0,0,-.1,0,792)" stroke-width="3" stroke-linecap="butt" stroke-miterlimit="10" stroke-linejoin="miter" fill="none" stroke="#ffffff" d="M2519.8 3566.2 2343 3389.4 2519.8 3212.7V2712.7L2343 2535.9 2519.8 2359.1 2696.5 2535.9H3196.5L3373.3 2359.1 3550.1 2535.9 3373.3 2712.7V3212.7L3550.1 3389.4 3373.3 3566.2 3196.5 3389.4H2696.5Z"/>
<path transform="matrix(.1,0,0,-.1,0,792)" d="M2519.8 3566.2 2343 3743 2166.2 3566.2 2343 3389.4Z" fill="#54ab9b"/>
<path transform="matrix(.1,0,0,-.1,0,792)" stroke-width="3" stroke-linecap="butt" stroke-miterlimit="10" stroke-linejoin="miter" fill="none" stroke="#ffffff" d="M2519.8 3566.2 2343 3743 2166.2 3566.2 2343 3389.4Z"/>
<path transform="matrix(.1,0,0,-.1,0,792)" d="M3373.3 3566.2 3550.1 3389.4 3726.9 3566.2 3550.1 3743Z" fill="#54ab9b"/>
<path transform="matrix(.1,0,0,-.1,0,792)" stroke-width="3" stroke-linecap="butt" stroke-miterlimit="10" stroke-linejoin="miter" fill="none" stroke="#ffffff" d="M3373.3 3566.2 3550.1 3389.4 3726.9 3566.2 3550.1 3743Z"/>
<path transform="matrix(.1,0,0,-.1,0,792)" d="M3550.1 3743 3726.9 3566.2 3903.7 3743H4403.7L4580.4 3566.2 4757.2 3743 4580.4 3919.8V4419.8L4757.2 4596.5 4580.4 4773.3 4403.7 4596.5H3903.7L3726.9 4773.3 3550.1 4596.5 3726.9 4419.8V3919.8" fill="#ffffff"/>
<path transform="matrix(.1,0,0,-.1,0,792)" stroke-width="3" stroke-linecap="butt" stroke-miterlimit="10" stroke-linejoin="miter" fill="none" stroke="#ffffff" d="M3550.1 3743 3726.9 3566.2 3903.7 3743H4403.7L4580.4 3566.2 4757.2 3743 4580.4 3919.8V4419.8L4757.2 4596.5 4580.4 4773.3 4403.7 4596.5H3903.7L3726.9 4773.3 3550.1 4596.5 3726.9 4419.8V3919.8Z"/>
<path transform="matrix(.1,0,0,-.1,0,792)" d="M3550.1 4950.1 3726.9 5126.9V5626.9L3550.1 5803.6 3373.3 5626.9V5126.9" fill="#404284"/>
<path transform="matrix(.1,0,0,-.1,0,792)" stroke-width="3" stroke-linecap="butt" stroke-miterlimit="10" stroke-linejoin="miter" fill="none" stroke="#ffffff" d="M3550.1 4950.1 3726.9 5126.9V5626.9L3550.1 5803.6 3373.3 5626.9V5126.9Z"/>
<path transform="matrix(.1,0,0,-.1,0,792)" d="M3550.1 4950.1 3726.9 4773.3 3903.7 4950.1H4403.7L4580.4 4773.3 4757.2 4950.1 4580.4 5126.9V5626.9L4757.2 5803.6 4580.4 5980.4 4403.7 5803.6H3903.7L3726.9 5980.4 3550.1 5803.6 3726.9 5626.9V5126.9" fill="#ffffff"/>
<path transform="matrix(.1,0,0,-.1,0,792)" stroke-width="3" stroke-linecap="butt" stroke-miterlimit="10" stroke-linejoin="miter" fill="none" stroke="#ffffff" d="M3550.1 4950.1 3726.9 4773.3 3903.7 4950.1H4403.7L4580.4 4773.3 4757.2 4950.1 4580.4 5126.9V5626.9L4757.2 5803.6 4580.4 5980.4 4403.7 5803.6H3903.7L3726.9 5980.4 3550.1 5803.6 3726.9 5626.9V5126.9Z"/>
<path transform="matrix(.1,0,0,-.1,0,792)" d="M3550.1 3389.4 3726.9 3212.7V2712.7L3550.1 2535.9 3726.9 2359.1 3903.7 2535.9H4403.7L4580.4 2359.1 4757.2 2535.9 4580.4 2712.7V3212.7L4757.2 3389.4 4580.4 3566.2 4403.7 3389.4H3903.7L3726.9 3566.2" fill="#ffffff"/>
<path transform="matrix(.1,0,0,-.1,0,792)" stroke-width="3" stroke-linecap="butt" stroke-miterlimit="10" stroke-linejoin="miter" fill="none" stroke="#ffffff" d="M3550.1 3389.4 3726.9 3212.7V2712.7L3550.1 2535.9 3726.9 2359.1 3903.7 2535.9H4403.7L4580.4 2359.1 4757.2 2535.9 4580.4 2712.7V3212.7L4757.2 3389.4 4580.4 3566.2 4403.7 3389.4H3903.7L3726.9 3566.2Z"/>
<path transform="matrix(.1,0,0,-.1,0,792)" d="M3550.1 3389.4 3373.3 3212.7V2712.7L3550.1 2535.9 3726.9 2712.7V3212.7" fill="#404284"/>
<path transform="matrix(.1,0,0,-.1,0,792)" stroke-width="3" stroke-linecap="butt" stroke-miterlimit="10" stroke-linejoin="miter" fill="none" stroke="#ffffff" d="M3550.1 3389.4 3373.3 3212.7V2712.7L3550.1 2535.9 3726.9 2712.7V3212.7Z"/>
<path transform="matrix(.1,0,0,-.1,0,792)" d="M2343 4950.1 2166.2 5126.9V5626.9L2343 5803.6 2166.2 5980.4 1989.4 5803.6H1489.4L1312.7 5980.4 1135.9 5803.6 1312.7 5626.9V5126.9L1135.9 4950.1 1312.7 4773.3 1489.4 4950.1H1989.4L2166.2 4773.3" fill="#ffffff"/>
<path transform="matrix(.1,0,0,-.1,0,792)" stroke-width="3" stroke-linecap="butt" stroke-miterlimit="10" stroke-linejoin="miter" fill="none" stroke="#ffffff" d="M2343 4950.1 2166.2 5126.9V5626.9L2343 5803.6 2166.2 5980.4 1989.4 5803.6H1489.4L1312.7 5980.4 1135.9 5803.6 1312.7 5626.9V5126.9L1135.9 4950.1 1312.7 4773.3 1489.4 4950.1H1989.4L2166.2 4773.3Z"/>
<path transform="matrix(.1,0,0,-.1,0,792)" d="M2343 4950.1 2519.8 5126.9V5626.9L2343 5803.6 2166.2 5626.9V5126.9" fill="#404284"/>
<path transform="matrix(.1,0,0,-.1,0,792)" stroke-width="3" stroke-linecap="butt" stroke-miterlimit="10" stroke-linejoin="miter" fill="none" stroke="#ffffff" d="M2343 4950.1 2519.8 5126.9V5626.9L2343 5803.6 2166.2 5626.9V5126.9Z"/>
<path transform="matrix(.1,0,0,-.1,0,792)" d="M2343 4596.5 2166.2 4773.3 1989.4 4596.5H1489.4L1312.7 4773.3 1135.9 4596.5 1312.7 4419.8V3919.8L1135.9 3743 1312.7 3566.2 1489.4 3743H1989.4L2166.2 3566.2 2343 3743 2166.2 3919.8V4419.8" fill="#ffffff"/>
<path transform="matrix(.1,0,0,-.1,0,792)" stroke-width="3" stroke-linecap="butt" stroke-miterlimit="10" stroke-linejoin="miter" fill="none" stroke="#ffffff" d="M2343 4596.5 2166.2 4773.3 1989.4 4596.5H1489.4L1312.7 4773.3 1135.9 4596.5 1312.7 4419.8V3919.8L1135.9 3743 1312.7 3566.2 1489.4 3743H1989.4L2166.2 3566.2 2343 3743 2166.2 3919.8V4419.8Z"/>
<path transform="matrix(.1,0,0,-.1,0,792)" d="M2343 3389.4 2166.2 3212.7V2712.7L2343 2535.9 2519.8 2712.7V3212.7" fill="#404284"/>
<path transform="matrix(.1,0,0,-.1,0,792)" stroke-width="3" stroke-linecap="butt" stroke-miterlimit="10" stroke-linejoin="miter" fill="none" stroke="#ffffff" d="M2343 3389.4 2166.2 3212.7V2712.7L2343 2535.9 2519.8 2712.7V3212.7Z"/>
<path transform="matrix(.1,0,0,-.1,0,792)" d="M2343 3389.4 2166.2 3566.2 1989.4 3389.4H1489.4L1312.7 3566.2 1135.9 3389.4 1312.7 3212.7V2712.7L1135.9 2535.9 1312.7 2359.1 1489.4 2535.9H1989.4L2166.2 2359.1 2343 2535.9 2166.2 2712.7V3212.7" fill="#ffffff"/>
<path transform="matrix(.1,0,0,-.1,0,792)" stroke-width="3" stroke-linecap="butt" stroke-miterlimit="10" stroke-linejoin="miter" fill="none" stroke="#ffffff" d="M2343 3389.4 2166.2 3566.2 1989.4 3389.4H1489.4L1312.7 3566.2 1135.9 3389.4 1312.7 3212.7V2712.7L1135.9 2535.9 1312.7 2359.1 1489.4 2535.9H1989.4L2166.2 2359.1 2343 2535.9 2166.2 2712.7V3212.7Z"/>
<path transform="matrix(.1,0,0,-.1,0,792)" d="M3726.9 3566.2 3903.7 3389.4H4403.7L4580.4 3566.2 4403.7 3743H3903.7" fill="#404284"/>
<path transform="matrix(.1,0,0,-.1,0,792)" stroke-width="3" stroke-linecap="butt" stroke-miterlimit="10" stroke-linejoin="miter" fill="none" stroke="#ffffff" d="M3726.9 3566.2 3903.7 3389.4H4403.7L4580.4 3566.2 4403.7 3743H3903.7Z"/>
<path transform="matrix(.1,0,0,-.1,0,792)" d="M3726.9 4773.3 3903.7 4596.5H4403.7L4580.4 4773.3 4403.7 4950.1H3903.7" fill="#404284"/>
<path transform="matrix(.1,0,0,-.1,0,792)" stroke-width="3" stroke-linecap="butt" stroke-miterlimit="10" stroke-linejoin="miter" fill="none" stroke="#ffffff" d="M3726.9 4773.3 3903.7 4596.5H4403.7L4580.4 4773.3 4403.7 4950.1H3903.7Z"/>
<path transform="matrix(.1,0,0,-.1,0,792)" d="M2166.2 4773.3 1989.4 4950.1H1489.4L1312.7 4773.3 1489.4 4596.5H1989.4" fill="#404284"/>
<path transform="matrix(.1,0,0,-.1,0,792)" stroke-width="3" stroke-linecap="butt" stroke-miterlimit="10" stroke-linejoin="miter" fill="none" stroke="#ffffff" d="M2166.2 4773.3 1989.4 4950.1H1489.4L1312.7 4773.3 1489.4 4596.5H1989.4Z"/>
<path transform="matrix(.1,0,0,-.1,0,792)" d="M2166.2 3566.2 1989.4 3743H1489.4L1312.7 3566.2 1489.4 3389.4H1989.4" fill="#404284"/>
<path transform="matrix(.1,0,0,-.1,0,792)" stroke-width="3" stroke-linecap="butt" stroke-miterlimit="10" stroke-linejoin="miter" fill="none" stroke="#ffffff" d="M2166.2 3566.2 1989.4 3743H1489.4L1312.7 3566.2 1489.4 3389.4H1989.4Z"/>
<path transform="matrix(.1,0,0,-.1,0,792)" d="M3903.7 5803.6H4403.7L4580.4 5980.4 4403.7 6157.2H3903.7L3726.9 5980.4" fill="#404284"/>
<path transform="matrix(.1,0,0,-.1,0,792)" stroke-width="3" stroke-linecap="butt" stroke-miterlimit="10" stroke-linejoin="miter" fill="none" stroke="#ffffff" d="M3903.7 5803.6H4403.7L4580.4 5980.4 4403.7 6157.2H3903.7L3726.9 5980.4Z"/>
<path transform="matrix(.1,0,0,-.1,0,792)" d="M3550.1 5803.6 3726.9 5980.4 3550.1 6157.2 3373.3 5980.4Z" fill="#54ab9b"/>
<path transform="matrix(.1,0,0,-.1,0,792)" stroke-width="3" stroke-linecap="butt" stroke-miterlimit="10" stroke-linejoin="miter" fill="none" stroke="#ffffff" d="M3550.1 5803.6 3726.9 5980.4 3550.1 6157.2 3373.3 5980.4Z"/>
<path transform="matrix(.1,0,0,-.1,0,792)" d="M3196.5 5803.6 3373.3 5980.4 3196.5 6157.2H2696.5L2519.8 5980.4 2696.5 5803.6" fill="#404284"/>
<path transform="matrix(.1,0,0,-.1,0,792)" stroke-width="3" stroke-linecap="butt" stroke-miterlimit="10" stroke-linejoin="miter" fill="none" stroke="#ffffff" d="M3196.5 5803.6 3373.3 5980.4 3196.5 6157.2H2696.5L2519.8 5980.4 2696.5 5803.6Z"/>
<path transform="matrix(.1,0,0,-.1,0,792)" d="M2343 5803.6 2519.8 5980.4 2343 6157.2 2166.2 5980.4Z" fill="#54ab9b"/>
<path transform="matrix(.1,0,0,-.1,0,792)" stroke-width="3" stroke-linecap="butt" stroke-miterlimit="10" stroke-linejoin="miter" fill="none" stroke="#ffffff" d="M2343 5803.6 2519.8 5980.4 2343 6157.2 2166.2 5980.4Z"/>
<path transform="matrix(.1,0,0,-.1,0,792)" d="M1989.4 5803.6 2166.2 5980.4 1989.4 6157.2H1489.4L1312.7 5980.4 1489.4 5803.6" fill="#404284"/>
<path transform="matrix(.1,0,0,-.1,0,792)" stroke-width="3" stroke-linecap="butt" stroke-miterlimit="10" stroke-linejoin="miter" fill="none" stroke="#ffffff" d="M1989.4 5803.6 2166.2 5980.4 1989.4 6157.2H1489.4L1312.7 5980.4 1489.4 5803.6Z"/>
<path transform="matrix(.1,0,0,-.1,0,792)" d="M1989.4 2535.9H1489.4L1312.7 2359.1 1489.4 2182.3H1989.4L2166.2 2359.1" fill="#404284"/>
<path transform="matrix(.1,0,0,-.1,0,792)" stroke-width="3" stroke-linecap="butt" stroke-miterlimit="10" stroke-linejoin="miter" fill="none" stroke="#ffffff" d="M1989.4 2535.9H1489.4L1312.7 2359.1 1489.4 2182.3H1989.4L2166.2 2359.1Z"/>
<path transform="matrix(.1,0,0,-.1,0,792)" d="M2343 2535.9 2166.2 2359.1 2343 2182.3 2519.8 2359.1Z" fill="#54ab9b"/>
<path transform="matrix(.1,0,0,-.1,0,792)" stroke-width="3" stroke-linecap="butt" stroke-miterlimit="10" stroke-linejoin="miter" fill="none" stroke="#ffffff" d="M2343 2535.9 2166.2 2359.1 2343 2182.3 2519.8 2359.1Z"/>
<path transform="matrix(.1,0,0,-.1,0,792)" d="M2696.5 2535.9 2519.8 2359.1 2696.5 2182.3H3196.5L3373.3 2359.1 3196.5 2535.9" fill="#404284"/>
<path transform="matrix(.1,0,0,-.1,0,792)" stroke-width="3" stroke-linecap="butt" stroke-miterlimit="10" stroke-linejoin="miter" fill="none" stroke="#ffffff" d="M2696.5 2535.9 2519.8 2359.1 2696.5 2182.3H3196.5L3373.3 2359.1 3196.5 2535.9Z"/>
<path transform="matrix(.1,0,0,-.1,0,792)" d="M3550.1 2535.9 3373.3 2359.1 3550.1 2182.3 3726.9 2359.1Z" fill="#54ab9b"/>
<path transform="matrix(.1,0,0,-.1,0,792)" stroke-width="3" stroke-linecap="butt" stroke-miterlimit="10" stroke-linejoin="miter" fill="none" stroke="#ffffff" d="M3550.1 2535.9 3373.3 2359.1 3550.1 2182.3 3726.9 2359.1Z"/>
<path transform="matrix(.1,0,0,-.1,0,792)" d="M3903.7 2535.9 3726.9 2359.1 3903.7 2182.3H4403.7L4580.4 2359.1 4403.7 2535.9" fill="#404284"/>
<path transform="matrix(.1,0,0,-.1,0,792)" stroke-width="3" stroke-linecap="butt" stroke-miterlimit="10" stroke-linejoin="miter" fill="none" stroke="#ffffff" d="M3903.7 2535.9 3726.9 2359.1 3903.7 2182.3H4403.7L4580.4 2359.1 4403.7 2535.9Z"/>
<path transform="matrix(.1,0,0,-.1,0,792)" d="M3726.9 5980.4 3903.7 6157.2H4403.7L4580.4 5980.4 4757.2 6157.2 4580.4 6334V6834L4757.2 7010.8 4580.4 7187.5 4403.7 7010.8H3903.7L3726.9 7187.5 3550.1 7010.8 3726.9 6834V6334L3550.1 6157.2" fill="#ffffff"/>
<path transform="matrix(.1,0,0,-.1,0,792)" stroke-width="3" stroke-linecap="butt" stroke-miterlimit="10" stroke-linejoin="miter" fill="none" stroke="#ffffff" d="M3726.9 5980.4 3903.7 6157.2H4403.7L4580.4 5980.4 4757.2 6157.2 4580.4 6334V6834L4757.2 7010.8 4580.4 7187.5 4403.7 7010.8H3903.7L3726.9 7187.5 3550.1 7010.8 3726.9 6834V6334L3550.1 6157.2Z"/>
<path transform="matrix(.1,0,0,-.1,0,792)" d="M3373.3 5980.4 3550.1 6157.2 3373.3 6334V6834L3550.1 7010.8 3373.3 7187.5 3196.5 7010.8H2696.5L2519.8 7187.5 2343 7010.8 2519.8 6834V6334L2343 6157.2 2519.8 5980.4 2696.5 6157.2H3196.5" fill="#ffffff"/>
<path transform="matrix(.1,0,0,-.1,0,792)" stroke-width="3" stroke-linecap="butt" stroke-miterlimit="10" stroke-linejoin="miter" fill="none" stroke="#ffffff" d="M3373.3 5980.4 3550.1 6157.2 3373.3 6334V6834L3550.1 7010.8 3373.3 7187.5 3196.5 7010.8H2696.5L2519.8 7187.5 2343 7010.8 2519.8 6834V6334L2343 6157.2 2519.8 5980.4 2696.5 6157.2H3196.5Z"/>
<path transform="matrix(.1,0,0,-.1,0,792)" d="M2166.2 5980.4 2343 6157.2 2166.2 6334V6834L2343 7010.8 2166.2 7187.5 1989.4 7010.8H1489.4L1312.7 7187.5 1135.9 7010.8 1312.7 6834V6334L1135.9 6157.2 1312.7 5980.4 1489.4 6157.2H1989.4" fill="#ffffff"/>
<path transform="matrix(.1,0,0,-.1,0,792)" stroke-width="3" stroke-linecap="butt" stroke-miterlimit="10" stroke-linejoin="miter" fill="none" stroke="#ffffff" d="M2166.2 5980.4 2343 6157.2 2166.2 6334V6834L2343 7010.8 2166.2 7187.5 1989.4 7010.8H1489.4L1312.7 7187.5 1135.9 7010.8 1312.7 6834V6334L1135.9 6157.2 1312.7 5980.4 1489.4 6157.2H1989.4Z"/>
<path transform="matrix(.1,0,0,-.1,0,792)" d="M2166.2 2359.1 1989.4 2182.3H1489.4L1312.7 2359.1 1135.9 2182.3 1312.7 2005.5V1505.5L1135.9 1328.8 1312.7 1152 1489.4 1328.8H1989.4L2166.2 1152 2343 1328.8 2166.2 1505.5V2005.5L2343 2182.3" fill="#ffffff"/>
<path transform="matrix(.1,0,0,-.1,0,792)" stroke-width="3" stroke-linecap="butt" stroke-miterlimit="10" stroke-linejoin="miter" fill="none" stroke="#ffffff" d="M2166.2 2359.1 1989.4 2182.3H1489.4L1312.7 2359.1 1135.9 2182.3 1312.7 2005.5V1505.5L1135.9 1328.8 1312.7 1152 1489.4 1328.8H1989.4L2166.2 1152 2343 1328.8 2166.2 1505.5V2005.5L2343 2182.3Z"/>
<path transform="matrix(.1,0,0,-.1,0,792)" d="M2519.8 2359.1 2343 2182.3 2519.8 2005.5V1505.5L2343 1328.8 2519.8 1152 2696.5 1328.8H3196.5L3373.3 1152 3550.1 1328.8 3373.3 1505.5V2005.5L3550.1 2182.3 3373.3 2359.1 3196.5 2182.3H2696.5" fill="#ffffff"/>
<path transform="matrix(.1,0,0,-.1,0,792)" stroke-width="3" stroke-linecap="butt" stroke-miterlimit="10" stroke-linejoin="miter" fill="none" stroke="#ffffff" d="M2519.8 2359.1 2343 2182.3 2519.8 2005.5V1505.5L2343 1328.8 2519.8 1152 2696.5 1328.8H3196.5L3373.3 1152 3550.1 1328.8 3373.3 1505.5V2005.5L3550.1 2182.3 3373.3 2359.1 3196.5 2182.3H2696.5Z"/>
<path transform="matrix(.1,0,0,-.1,0,792)" d="M3726.9 2359.1 3550.1 2182.3 3726.9 2005.5V1505.5L3550.1 1328.8 3726.9 1152 3903.7 1328.8H4403.7L4580.4 1152 4757.2 1328.8 4580.4 1505.5V2005.5L4757.2 2182.3 4580.4 2359.1 4403.7 2182.3H3903.7" fill="#ffffff"/>
<path transform="matrix(.1,0,0,-.1,0,792)" stroke-width="3" stroke-linecap="butt" stroke-miterlimit="10" stroke-linejoin="miter" fill="none" stroke="#ffffff" d="M3726.9 2359.1 3550.1 2182.3 3726.9 2005.5V1505.5L3550.1 1328.8 3726.9 1152 3903.7 1328.8H4403.7L4580.4 1152 4757.2 1328.8 4580.4 1505.5V2005.5L4757.2 2182.3 4580.4 2359.1 4403.7 2182.3H3903.7Z"/>
<path transform="matrix(.1,0,0,-.1,0,792)" d="M3550.1 6157.2 3726.9 6334V6834L3550.1 7010.8 3373.3 6834V6334" fill="#404284"/>
<path transform="matrix(.1,0,0,-.1,0,792)" stroke-width="3" stroke-linecap="butt" stroke-miterlimit="10" stroke-linejoin="miter" fill="none" stroke="#ffffff" d="M3550.1 6157.2 3726.9 6334V6834L3550.1 7010.8 3373.3 6834V6334Z"/>
<path transform="matrix(.1,0,0,-.1,0,792)" d="M2343 6157.2 2519.8 6334V6834L2343 7010.8 2166.2 6834V6334" fill="#404284"/>
<path transform="matrix(.1,0,0,-.1,0,792)" stroke-width="3" stroke-linecap="butt" stroke-miterlimit="10" stroke-linejoin="miter" fill="none" stroke="#ffffff" d="M2343 6157.2 2519.8 6334V6834L2343 7010.8 2166.2 6834V6334Z"/>
<path transform="matrix(.1,0,0,-.1,0,792)" d="M2343 2182.3 2166.2 2005.5V1505.5L2343 1328.8 2519.8 1505.5V2005.5" fill="#404284"/>
<path transform="matrix(.1,0,0,-.1,0,792)" stroke-width="3" stroke-linecap="butt" stroke-miterlimit="10" stroke-linejoin="miter" fill="none" stroke="#ffffff" d="M2343 2182.3 2166.2 2005.5V1505.5L2343 1328.8 2519.8 1505.5V2005.5Z"/>
<path transform="matrix(.1,0,0,-.1,0,792)" d="M3550.1 2182.3 3373.3 2005.5V1505.5L3550.1 1328.8 3726.9 1505.5V2005.5" fill="#404284"/>
<path transform="matrix(.1,0,0,-.1,0,792)" stroke-width="3" stroke-linecap="butt" stroke-miterlimit="10" stroke-linejoin="miter" fill="none" stroke="#ffffff" d="M3550.1 2182.3 3373.3 2005.5V1505.5L3550.1 1328.8 3726.9 1505.5V2005.5Z"/>
<path transform="matrix(.1,0,0,-.1,0,792)" d="M4580.4 2005.5V1505.5L4757.2 1328.8 4934 1505.5V2005.5L4757.2 2182.3" fill="#404284"/>
<path transform="matrix(.1,0,0,-.1,0,792)" stroke-width="3" stroke-linecap="butt" stroke-miterlimit="10" stroke-linejoin="miter" fill="none" stroke="#ffffff" d="M4580.4 2005.5V1505.5L4757.2 1328.8 4934 1505.5V2005.5L4757.2 2182.3Z"/>
<path transform="matrix(.1,0,0,-.1,0,792)" d="M4580.4 2359.1 4757.2 2182.3 4934 2359.1 4757.2 2535.9Z" fill="#54ab9b"/>
<path transform="matrix(.1,0,0,-.1,0,792)" stroke-width="3" stroke-linecap="butt" stroke-miterlimit="10" stroke-linejoin="miter" fill="none" stroke="#ffffff" d="M4580.4 2359.1 4757.2 2182.3 4934 2359.1 4757.2 2535.9Z"/>
<path transform="matrix(.1,0,0,-.1,0,792)" d="M4580.4 2712.7 4757.2 2535.9 4934 2712.7V3212.7L4757.2 3389.4 4580.4 3212.7" fill="#404284"/>
<path transform="matrix(.1,0,0,-.1,0,792)" stroke-width="3" stroke-linecap="butt" stroke-miterlimit="10" stroke-linejoin="miter" fill="none" stroke="#ffffff" d="M4580.4 2712.7 4757.2 2535.9 4934 2712.7V3212.7L4757.2 3389.4 4580.4 3212.7Z"/>
<path transform="matrix(.1,0,0,-.1,0,792)" d="M4580.4 3566.2 4757.2 3389.4 4934 3566.2 4757.2 3743Z" fill="#54ab9b"/>
<path transform="matrix(.1,0,0,-.1,0,792)" stroke-width="3" stroke-linecap="butt" stroke-miterlimit="10" stroke-linejoin="miter" fill="none" stroke="#ffffff" d="M4580.4 3566.2 4757.2 3389.4 4934 3566.2 4757.2 3743Z"/>
<path transform="matrix(.1,0,0,-.1,0,792)" d="M4580.4 3919.8 4757.2 3743 4934 3919.8V4419.8L4757.2 4596.5 4580.4 4419.8" fill="#404284"/>
<path transform="matrix(.1,0,0,-.1,0,792)" stroke-width="3" stroke-linecap="butt" stroke-miterlimit="10" stroke-linejoin="miter" fill="none" stroke="#ffffff" d="M4580.4 3919.8 4757.2 3743 4934 3919.8V4419.8L4757.2 4596.5 4580.4 4419.8Z"/>
<path transform="matrix(.1,0,0,-.1,0,792)" d="M4580.4 4773.3 4757.2 4596.5 4934 4773.3 4757.2 4950.1Z" fill="#54ab9b"/>
<path transform="matrix(.1,0,0,-.1,0,792)" stroke-width="3" stroke-linecap="butt" stroke-miterlimit="10" stroke-linejoin="miter" fill="none" stroke="#ffffff" d="M4580.4 4773.3 4757.2 4596.5 4934 4773.3 4757.2 4950.1Z"/>
<path transform="matrix(.1,0,0,-.1,0,792)" d="M4580.4 5126.9 4757.2 4950.1 4934 5126.9V5626.9L4757.2 5803.6 4580.4 5626.9" fill="#404284"/>
<path transform="matrix(.1,0,0,-.1,0,792)" stroke-width="3" stroke-linecap="butt" stroke-miterlimit="10" stroke-linejoin="miter" fill="none" stroke="#ffffff" d="M4580.4 5126.9 4757.2 4950.1 4934 5126.9V5626.9L4757.2 5803.6 4580.4 5626.9Z"/>
<path transform="matrix(.1,0,0,-.1,0,792)" d="M4580.4 5980.4 4757.2 5803.6 4934 5980.4 4757.2 6157.2Z" fill="#54ab9b"/>
<path transform="matrix(.1,0,0,-.1,0,792)" stroke-width="3" stroke-linecap="butt" stroke-miterlimit="10" stroke-linejoin="miter" fill="none" stroke="#ffffff" d="M4580.4 5980.4 4757.2 5803.6 4934 5980.4 4757.2 6157.2Z"/>
<path transform="matrix(.1,0,0,-.1,0,792)" d="M4580.4 6334 4757.2 6157.2 4934 6334V6834L4757.2 7010.8 4580.4 6834" fill="#404284"/>
<path transform="matrix(.1,0,0,-.1,0,792)" stroke-width="3" stroke-linecap="butt" stroke-miterlimit="10" stroke-linejoin="miter" fill="none" stroke="#ffffff" d="M4580.4 6334 4757.2 6157.2 4934 6334V6834L4757.2 7010.8 4580.4 6834Z"/>
<path transform="matrix(.1,0,0,-.1,0,792)" d="M1312.7 6334V6834L1135.9 7010.8 959.102 6834V6334L1135.9 6157.2" fill="#404284"/>
<path transform="matrix(.1,0,0,-.1,0,792)" stroke-width="3" stroke-linecap="butt" stroke-miterlimit="10" stroke-linejoin="miter" fill="none" stroke="#ffffff" d="M1312.7 6334V6834L1135.9 7010.8 959.102 6834V6334L1135.9 6157.2Z"/>
<path transform="matrix(.1,0,0,-.1,0,792)" d="M1312.7 5980.4 1135.9 6157.2 959.102 5980.4 1135.9 5803.6Z" fill="#54ab9b"/>
<path transform="matrix(.1,0,0,-.1,0,792)" stroke-width="3" stroke-linecap="butt" stroke-miterlimit="10" stroke-linejoin="miter" fill="none" stroke="#ffffff" d="M1312.7 5980.4 1135.9 6157.2 959.102 5980.4 1135.9 5803.6Z"/>
<path transform="matrix(.1,0,0,-.1,0,792)" d="M1312.7 5626.9 1135.9 5803.6 959.102 5626.9V5126.9L1135.9 4950.1 1312.7 5126.9" fill="#404284"/>
<path transform="matrix(.1,0,0,-.1,0,792)" stroke-width="3" stroke-linecap="butt" stroke-miterlimit="10" stroke-linejoin="miter" fill="none" stroke="#ffffff" d="M1312.7 5626.9 1135.9 5803.6 959.102 5626.9V5126.9L1135.9 4950.1 1312.7 5126.9Z"/>
<path transform="matrix(.1,0,0,-.1,0,792)" d="M1312.7 4773.3 1135.9 4950.1 959.102 4773.3 1135.9 4596.5Z" fill="#54ab9b"/>
<path transform="matrix(.1,0,0,-.1,0,792)" stroke-width="3" stroke-linecap="butt" stroke-miterlimit="10" stroke-linejoin="miter" fill="none" stroke="#ffffff" d="M1312.7 4773.3 1135.9 4950.1 959.102 4773.3 1135.9 4596.5Z"/>
<path transform="matrix(.1,0,0,-.1,0,792)" d="M1312.7 4419.8 1135.9 4596.5 959.102 4419.8V3919.8L1135.9 3743 1312.7 3919.8" fill="#404284"/>
<path transform="matrix(.1,0,0,-.1,0,792)" stroke-width="3" stroke-linecap="butt" stroke-miterlimit="10" stroke-linejoin="miter" fill="none" stroke="#ffffff" d="M1312.7 4419.8 1135.9 4596.5 959.102 4419.8V3919.8L1135.9 3743 1312.7 3919.8Z"/>
<path transform="matrix(.1,0,0,-.1,0,792)" d="M1312.7 3566.2 1135.9 3743 959.102 3566.2 1135.9 3389.4Z" fill="#54ab9b"/>
<path transform="matrix(.1,0,0,-.1,0,792)" stroke-width="3" stroke-linecap="butt" stroke-miterlimit="10" stroke-linejoin="miter" fill="none" stroke="#ffffff" d="M1312.7 3566.2 1135.9 3743 959.102 3566.2 1135.9 3389.4Z"/>
<path transform="matrix(.1,0,0,-.1,0,792)" d="M1312.7 3212.7 1135.9 3389.4 959.102 3212.7V2712.7L1135.9 2535.9 1312.7 2712.7" fill="#404284"/>
<path transform="matrix(.1,0,0,-.1,0,792)" stroke-width="3" stroke-linecap="butt" stroke-miterlimit="10" stroke-linejoin="miter" fill="none" stroke="#ffffff" d="M1312.7 3212.7 1135.9 3389.4 959.102 3212.7V2712.7L1135.9 2535.9 1312.7 2712.7Z"/>
<path transform="matrix(.1,0,0,-.1,0,792)" d="M1312.7 2359.1 1135.9 2535.9 959.102 2359.1 1135.9 2182.3Z" fill="#54ab9b"/>
<path transform="matrix(.1,0,0,-.1,0,792)" stroke-width="3" stroke-linecap="butt" stroke-miterlimit="10" stroke-linejoin="miter" fill="none" stroke="#ffffff" d="M1312.7 2359.1 1135.9 2535.9 959.102 2359.1 1135.9 2182.3Z"/>
<path transform="matrix(.1,0,0,-.1,0,792)" d="M1312.7 2005.5 1135.9 2182.3 959.102 2005.5V1505.5L1135.9 1328.8 1312.7 1505.5" fill="#404284"/>
<path transform="matrix(.1,0,0,-.1,0,792)" stroke-width="3" stroke-linecap="butt" stroke-miterlimit="10" stroke-linejoin="miter" fill="none" stroke="#ffffff" d="M1312.7 2005.5 1135.9 2182.3 959.102 2005.5V1505.5L1135.9 1328.8 1312.7 1505.5Z"/>
<path transform="matrix(.1,0,0,-.1,0,792)" d="M4757.2 2182.3 4934 2005.5V1505.5L4757.2 1328.8 4934 1152 5110.8 1328.8H5610.8L5787.5 1152 5964.3 1328.8 5787.5 1505.5V2005.5L5964.3 2182.3 5787.5 2359.1 5610.8 2182.3H5110.8L4934 2359.1" fill="#ffffff"/>
<path transform="matrix(.1,0,0,-.1,0,792)" stroke-width="3" stroke-linecap="butt" stroke-miterlimit="10" stroke-linejoin="miter" fill="none" stroke="#ffffff" d="M4757.2 2182.3 4934 2005.5V1505.5L4757.2 1328.8 4934 1152 5110.8 1328.8H5610.8L5787.5 1152 5964.3 1328.8 5787.5 1505.5V2005.5L5964.3 2182.3 5787.5 2359.1 5610.8 2182.3H5110.8L4934 2359.1Z"/>
<path transform="matrix(.1,0,0,-.1,0,792)" d="M4757.2 2535.9 4934 2359.1 5110.8 2535.9H5610.8L5787.5 2359.1 5964.3 2535.9 5787.5 2712.7V3212.7L5964.3 3389.4 5787.5 3566.2 5610.8 3389.4H5110.8L4934 3566.2 4757.2 3389.4 4934 3212.7V2712.7" fill="#ffffff"/>
<path transform="matrix(.1,0,0,-.1,0,792)" stroke-width="3" stroke-linecap="butt" stroke-miterlimit="10" stroke-linejoin="miter" fill="none" stroke="#ffffff" d="M4757.2 2535.9 4934 2359.1 5110.8 2535.9H5610.8L5787.5 2359.1 5964.3 2535.9 5787.5 2712.7V3212.7L5964.3 3389.4 5787.5 3566.2 5610.8 3389.4H5110.8L4934 3566.2 4757.2 3389.4 4934 3212.7V2712.7Z"/>
<path transform="matrix(.1,0,0,-.1,0,792)" d="M4757.2 3743 4934 3566.2 5110.8 3743H5610.8L5787.5 3566.2 5964.3 3743 5787.5 3919.8V4419.8L5964.3 4596.5 5787.5 4773.3 5610.8 4596.5H5110.8L4934 4773.3 4757.2 4596.5 4934 4419.8V3919.8" fill="#ffffff"/>
<path transform="matrix(.1,0,0,-.1,0,792)" stroke-width="3" stroke-linecap="butt" stroke-miterlimit="10" stroke-linejoin="miter" fill="none" stroke="#ffffff" d="M4757.2 3743 4934 3566.2 5110.8 3743H5610.8L5787.5 3566.2 5964.3 3743 5787.5 3919.8V4419.8L5964.3 4596.5 5787.5 4773.3 5610.8 4596.5H5110.8L4934 4773.3 4757.2 4596.5 4934 4419.8V3919.8Z"/>
<path transform="matrix(.1,0,0,-.1,0,792)" d="M4757.2 4950.1 4934 4773.3 5110.8 4950.1H5610.8L5787.5 4773.3 5964.3 4950.1 5787.5 5126.9V5626.9L5964.3 5803.6 5787.5 5980.4 5610.8 5803.6H5110.8L4934 5980.4 4757.2 5803.6 4934 5626.9V5126.9" fill="#ffffff"/>
<path transform="matrix(.1,0,0,-.1,0,792)" stroke-width="3" stroke-linecap="butt" stroke-miterlimit="10" stroke-linejoin="miter" fill="none" stroke="#ffffff" d="M4757.2 4950.1 4934 4773.3 5110.8 4950.1H5610.8L5787.5 4773.3 5964.3 4950.1 5787.5 5126.9V5626.9L5964.3 5803.6 5787.5 5980.4 5610.8 5803.6H5110.8L4934 5980.4 4757.2 5803.6 4934 5626.9V5126.9Z"/>
<path transform="matrix(.1,0,0,-.1,0,792)" d="M4757.2 6157.2 4934 5980.4 5110.8 6157.2H5610.8L5787.5 5980.4 5964.3 6157.2 5787.5 6334V6834L5964.3 7010.8 5787.5 7187.5 5610.8 7010.8H5110.8L4934 7187.5 4757.2 7010.8 4934 6834V6334" fill="#ffffff"/>
<path transform="matrix(.1,0,0,-.1,0,792)" stroke-width="3" stroke-linecap="butt" stroke-miterlimit="10" stroke-linejoin="miter" fill="none" stroke="#ffffff" d="M4757.2 6157.2 4934 5980.4 5110.8 6157.2H5610.8L5787.5 5980.4 5964.3 6157.2 5787.5 6334V6834L5964.3 7010.8 5787.5 7187.5 5610.8 7010.8H5110.8L4934 7187.5 4757.2 7010.8 4934 6834V6334Z"/>
<path transform="matrix(.1,0,0,-.1,0,792)" d="M1135.9 6157.2 959.102 6334V6834L1135.9 7010.8 959.102 7187.5 782.301 7010.8H282.301L105.602 7187.5-71.1992 7010.8 105.602 6834V6334L-71.1992 6157.2 105.602 5980.4 282.301 6157.2H782.301L959.102 5980.4" fill="#ffffff"/>
<path transform="matrix(.1,0,0,-.1,0,792)" stroke-width="3" stroke-linecap="butt" stroke-miterlimit="10" stroke-linejoin="miter" fill="none" stroke="#ffffff" d="M1135.9 6157.2 959.102 6334V6834L1135.9 7010.8 959.102 7187.5 782.301 7010.8H282.301L105.602 7187.5-71.1992 7010.8 105.602 6834V6334L-71.1992 6157.2 105.602 5980.4 282.301 6157.2H782.301L959.102 5980.4Z"/>
<path transform="matrix(.1,0,0,-.1,0,792)" d="M1135.9 5803.6 959.102 5980.4 782.301 5803.6H282.301L105.602 5980.4-71.1992 5803.6 105.602 5626.9V5126.9L-71.1992 4950.1 105.602 4773.3 282.301 4950.1H782.301L959.102 4773.3 1135.9 4950.1 959.102 5126.9V5626.9" fill="#ffffff"/>
<path transform="matrix(.1,0,0,-.1,0,792)" stroke-width="3" stroke-linecap="butt" stroke-miterlimit="10" stroke-linejoin="miter" fill="none" stroke="#ffffff" d="M1135.9 5803.6 959.102 5980.4 782.301 5803.6H282.301L105.602 5980.4-71.1992 5803.6 105.602 5626.9V5126.9L-71.1992 4950.1 105.602 4773.3 282.301 4950.1H782.301L959.102 4773.3 1135.9 4950.1 959.102 5126.9V5626.9Z"/>
<path transform="matrix(.1,0,0,-.1,0,792)" d="M1135.9 4596.5 959.102 4773.3 782.301 4596.5H282.301L105.602 4773.3-71.1992 4596.5 105.602 4419.8V3919.8L-71.1992 3743 105.602 3566.2 282.301 3743H782.301L959.102 3566.2 1135.9 3743 959.102 3919.8V4419.8" fill="#ffffff"/>
<path transform="matrix(.1,0,0,-.1,0,792)" stroke-width="3" stroke-linecap="butt" stroke-miterlimit="10" stroke-linejoin="miter" fill="none" stroke="#ffffff" d="M1135.9 4596.5 959.102 4773.3 782.301 4596.5H282.301L105.602 4773.3-71.1992 4596.5 105.602 4419.8V3919.8L-71.1992 3743 105.602 3566.2 282.301 3743H782.301L959.102 3566.2 1135.9 3743 959.102 3919.8V4419.8Z"/>
<path transform="matrix(.1,0,0,-.1,0,792)" d="M1135.9 3389.4 959.102 3566.2 782.301 3389.4H282.301L105.602 3566.2-71.1992 3389.4 105.602 3212.7V2712.7L-71.1992 2535.9 105.602 2359.1 282.301 2535.9H782.301L959.102 2359.1 1135.9 2535.9 959.102 2712.7V3212.7" fill="#ffffff"/>
<path transform="matrix(.1,0,0,-.1,0,792)" stroke-width="3" stroke-linecap="butt" stroke-miterlimit="10" stroke-linejoin="miter" fill="none" stroke="#ffffff" d="M1135.9 3389.4 959.102 3566.2 782.301 3389.4H282.301L105.602 3566.2-71.1992 3389.4 105.602 3212.7V2712.7L-71.1992 2535.9 105.602 2359.1 282.301 2535.9H782.301L959.102 2359.1 1135.9 2535.9 959.102 2712.7V3212.7Z"/>
<path transform="matrix(.1,0,0,-.1,0,792)" d="M1135.9 2182.3 959.102 2359.1 782.301 2182.3H282.301L105.602 2359.1-71.1992 2182.3 105.602 2005.5V1505.5L-71.1992 1328.8 105.602 1152 282.301 1328.8H782.301L959.102 1152 1135.9 1328.8 959.102 1505.5V2005.5" fill="#ffffff"/>
<path transform="matrix(.1,0,0,-.1,0,792)" stroke-width="3" stroke-linecap="butt" stroke-miterlimit="10" stroke-linejoin="miter" fill="none" stroke="#ffffff" d="M1135.9 2182.3 959.102 2359.1 782.301 2182.3H282.301L105.602 2359.1-71.1992 2182.3 105.602 2005.5V1505.5L-71.1992 1328.8 105.602 1152 282.301 1328.8H782.301L959.102 1152 1135.9 1328.8 959.102 1505.5V2005.5Z"/>
<path transform="matrix(.1,0,0,-.1,0,792)" d="M4934 2359.1 5110.8 2182.3H5610.8L5787.5 2359.1 5610.8 2535.9H5110.8" fill="#404284"/>
<path transform="matrix(.1,0,0,-.1,0,792)" stroke-width="3" stroke-linecap="butt" stroke-miterlimit="10" stroke-linejoin="miter" fill="none" stroke="#ffffff" d="M4934 2359.1 5110.8 2182.3H5610.8L5787.5 2359.1 5610.8 2535.9H5110.8Z"/>
<path transform="matrix(.1,0,0,-.1,0,792)" d="M4934 3566.2 5110.8 3389.4H5610.8L5787.5 3566.2 5610.8 3743H5110.8" fill="#404284"/>
<path transform="matrix(.1,0,0,-.1,0,792)" stroke-width="3" stroke-linecap="butt" stroke-miterlimit="10" stroke-linejoin="miter" fill="none" stroke="#ffffff" d="M4934 3566.2 5110.8 3389.4H5610.8L5787.5 3566.2 5610.8 3743H5110.8Z"/>
<path transform="matrix(.1,0,0,-.1,0,792)" d="M4934 4773.3 5110.8 4596.5H5610.8L5787.5 4773.3 5610.8 4950.1H5110.8" fill="#404284"/>
<path transform="matrix(.1,0,0,-.1,0,792)" stroke-width="3" stroke-linecap="butt" stroke-miterlimit="10" stroke-linejoin="miter" fill="none" stroke="#ffffff" d="M4934 4773.3 5110.8 4596.5H5610.8L5787.5 4773.3 5610.8 4950.1H5110.8Z"/>
<path transform="matrix(.1,0,0,-.1,0,792)" d="M4934 5980.4 5110.8 5803.6H5610.8L5787.5 5980.4 5610.8 6157.2H5110.8" fill="#404284"/>
<path transform="matrix(.1,0,0,-.1,0,792)" stroke-width="3" stroke-linecap="butt" stroke-miterlimit="10" stroke-linejoin="miter" fill="none" stroke="#ffffff" d="M4934 5980.4 5110.8 5803.6H5610.8L5787.5 5980.4 5610.8 6157.2H5110.8Z"/>
<path transform="matrix(.1,0,0,-.1,0,792)" d="M959.102 5980.4 782.301 6157.2H282.301L105.602 5980.4 282.301 5803.6H782.301" fill="#404284"/>
<path transform="matrix(.1,0,0,-.1,0,792)" stroke-width="3" stroke-linecap="butt" stroke-miterlimit="10" stroke-linejoin="miter" fill="none" stroke="#ffffff" d="M959.102 5980.4 782.301 6157.2H282.301L105.602 5980.4 282.301 5803.6H782.301Z"/>
<path transform="matrix(.1,0,0,-.1,0,792)" d="M959.102 4773.3 782.301 4950.1H282.301L105.602 4773.3 282.301 4596.5H782.301" fill="#404284"/>
<path transform="matrix(.1,0,0,-.1,0,792)" stroke-width="3" stroke-linecap="butt" stroke-miterlimit="10" stroke-linejoin="miter" fill="none" stroke="#ffffff" d="M959.102 4773.3 782.301 4950.1H282.301L105.602 4773.3 282.301 4596.5H782.301Z"/>
<path transform="matrix(.1,0,0,-.1,0,792)" d="M959.102 3566.2 782.301 3743H282.301L105.602 3566.2 282.301 3389.4H782.301" fill="#404284"/>
<path transform="matrix(.1,0,0,-.1,0,792)" stroke-width="3" stroke-linecap="butt" stroke-miterlimit="10" stroke-linejoin="miter" fill="none" stroke="#ffffff" d="M959.102 3566.2 782.301 3743H282.301L105.602 3566.2 282.301 3389.4H782.301Z"/>
<path transform="matrix(.1,0,0,-.1,0,792)" d="M959.102 2359.1 782.301 2535.9H282.301L105.602 2359.1 282.301 2182.3H782.301" fill="#404284"/>
<path transform="matrix(.1,0,0,-.1,0,792)" stroke-width="3" stroke-linecap="butt" stroke-miterlimit="10" stroke-linejoin="miter" fill="none" stroke="#ffffff" d="M959.102 2359.1 782.301 2535.9H282.301L105.602 2359.1 282.301 2182.3H782.301Z"/>
<path transform="matrix(.1,0,0,-.1,0,792)" d="M4757.2 7010.8 4934 7187.5 4757.2 7364.3 4580.4 7187.5Z" fill="#54ab9b"/>
<path transform="matrix(.1,0,0,-.1,0,792)" stroke-width="3" stroke-linecap="butt" stroke-miterlimit="10" stroke-linejoin="miter" fill="none" stroke="#ffffff" d="M4757.2 7010.8 4934 7187.5 4757.2 7364.3 4580.4 7187.5Z"/>
<path transform="matrix(.1,0,0,-.1,0,792)" d="M4403.7 7010.8 4580.4 7187.5 4403.7 7364.3H3903.7L3726.9 7187.5 3903.7 7010.8" fill="#404284"/>
<path transform="matrix(.1,0,0,-.1,0,792)" stroke-width="3" stroke-linecap="butt" stroke-miterlimit="10" stroke-linejoin="miter" fill="none" stroke="#ffffff" d="M4403.7 7010.8 4580.4 7187.5 4403.7 7364.3H3903.7L3726.9 7187.5 3903.7 7010.8Z"/>
<path transform="matrix(.1,0,0,-.1,0,792)" d="M3550.1 7010.8 3726.9 7187.5 3550.1 7364.3 3373.3 7187.5Z" fill="#54ab9b"/>
<path transform="matrix(.1,0,0,-.1,0,792)" stroke-width="3" stroke-linecap="butt" stroke-miterlimit="10" stroke-linejoin="miter" fill="none" stroke="#ffffff" d="M3550.1 7010.8 3726.9 7187.5 3550.1 7364.3 3373.3 7187.5Z"/>
<path transform="matrix(.1,0,0,-.1,0,792)" d="M3196.5 7010.8 3373.3 7187.5 3196.5 7364.3H2696.5L2519.8 7187.5 2696.5 7010.8" fill="#404284"/>
<path transform="matrix(.1,0,0,-.1,0,792)" stroke-width="3" stroke-linecap="butt" stroke-miterlimit="10" stroke-linejoin="miter" fill="none" stroke="#ffffff" d="M3196.5 7010.8 3373.3 7187.5 3196.5 7364.3H2696.5L2519.8 7187.5 2696.5 7010.8Z"/>
<path transform="matrix(.1,0,0,-.1,0,792)" d="M2343 7010.8 2519.8 7187.5 2343 7364.3 2166.2 7187.5Z" fill="#54ab9b"/>
<path transform="matrix(.1,0,0,-.1,0,792)" stroke-width="3" stroke-linecap="butt" stroke-miterlimit="10" stroke-linejoin="miter" fill="none" stroke="#ffffff" d="M2343 7010.8 2519.8 7187.5 2343 7364.3 2166.2 7187.5Z"/>
<path transform="matrix(.1,0,0,-.1,0,792)" d="M1989.4 7010.8 2166.2 7187.5 1989.4 7364.3H1489.4L1312.7 7187.5 1489.4 7010.8" fill="#404284"/>
<path transform="matrix(.1,0,0,-.1,0,792)" stroke-width="3" stroke-linecap="butt" stroke-miterlimit="10" stroke-linejoin="miter" fill="none" stroke="#ffffff" d="M1989.4 7010.8 2166.2 7187.5 1989.4 7364.3H1489.4L1312.7 7187.5 1489.4 7010.8Z"/>
<path transform="matrix(.1,0,0,-.1,0,792)" d="M1135.9 7010.8 1312.7 7187.5 1135.9 7364.3 959.102 7187.5Z" fill="#54ab9b"/>
<path transform="matrix(.1,0,0,-.1,0,792)" stroke-width="3" stroke-linecap="butt" stroke-miterlimit="10" stroke-linejoin="miter" fill="none" stroke="#ffffff" d="M1135.9 7010.8 1312.7 7187.5 1135.9 7364.3 959.102 7187.5Z"/>
<path transform="matrix(.1,0,0,-.1,0,792)" d="M1135.9 1328.8 959.102 1152 1135.9 975.199 1312.7 1152Z" fill="#54ab9b"/>
<path transform="matrix(.1,0,0,-.1,0,792)" stroke-width="3" stroke-linecap="butt" stroke-miterlimit="10" stroke-linejoin="miter" fill="none" stroke="#ffffff" d="M1135.9 1328.8 959.102 1152 1135.9 975.199 1312.7 1152Z"/>
<path transform="matrix(.1,0,0,-.1,0,792)" d="M1489.4 1328.8 1312.7 1152 1489.4 975.199H1989.4L2166.2 1152 1989.4 1328.8" fill="#404284"/>
<path transform="matrix(.1,0,0,-.1,0,792)" stroke-width="3" stroke-linecap="butt" stroke-miterlimit="10" stroke-linejoin="miter" fill="none" stroke="#ffffff" d="M1489.4 1328.8 1312.7 1152 1489.4 975.199H1989.4L2166.2 1152 1989.4 1328.8Z"/>
<path transform="matrix(.1,0,0,-.1,0,792)" d="M2343 1328.8 2166.2 1152 2343 975.199 2519.8 1152Z" fill="#54ab9b"/>
<path transform="matrix(.1,0,0,-.1,0,792)" stroke-width="3" stroke-linecap="butt" stroke-miterlimit="10" stroke-linejoin="miter" fill="none" stroke="#ffffff" d="M2343 1328.8 2166.2 1152 2343 975.199 2519.8 1152Z"/>
<path transform="matrix(.1,0,0,-.1,0,792)" d="M2696.5 1328.8 2519.8 1152 2696.5 975.199H3196.5L3373.3 1152 3196.5 1328.8" fill="#404284"/>
<path transform="matrix(.1,0,0,-.1,0,792)" stroke-width="3" stroke-linecap="butt" stroke-miterlimit="10" stroke-linejoin="miter" fill="none" stroke="#ffffff" d="M2696.5 1328.8 2519.8 1152 2696.5 975.199H3196.5L3373.3 1152 3196.5 1328.8Z"/>
<path transform="matrix(.1,0,0,-.1,0,792)" d="M3550.1 1328.8 3373.3 1152 3550.1 975.199 3726.9 1152Z" fill="#54ab9b"/>
<path transform="matrix(.1,0,0,-.1,0,792)" stroke-width="3" stroke-linecap="butt" stroke-miterlimit="10" stroke-linejoin="miter" fill="none" stroke="#ffffff" d="M3550.1 1328.8 3373.3 1152 3550.1 975.199 3726.9 1152Z"/>
<path transform="matrix(.1,0,0,-.1,0,792)" d="M3903.7 1328.8 3726.9 1152 3903.7 975.199H4403.7L4580.4 1152 4403.7 1328.8" fill="#404284"/>
<path transform="matrix(.1,0,0,-.1,0,792)" stroke-width="3" stroke-linecap="butt" stroke-miterlimit="10" stroke-linejoin="miter" fill="none" stroke="#ffffff" d="M3903.7 1328.8 3726.9 1152 3903.7 975.199H4403.7L4580.4 1152 4403.7 1328.8Z"/>
<path transform="matrix(.1,0,0,-.1,0,792)" d="M4757.2 1328.8 4580.4 1152 4757.2 975.199 4934 1152Z" fill="#54ab9b"/>
<path transform="matrix(.1,0,0,-.1,0,792)" stroke-width="3" stroke-linecap="butt" stroke-miterlimit="10" stroke-linejoin="miter" fill="none" stroke="#ffffff" d="M4757.2 1328.8 4580.4 1152 4757.2 975.199 4934 1152Z"/>
<path transform="matrix(.1,0,0,-.1,0,792)" d="M5110.8 1328.8 4934 1152 5110.8 975.199H5610.8L5787.5 1152 5610.8 1328.8" fill="#404284"/>
<path transform="matrix(.1,0,0,-.1,0,792)" stroke-width="3" stroke-linecap="butt" stroke-miterlimit="10" stroke-linejoin="miter" fill="none" stroke="#ffffff" d="M5110.8 1328.8 4934 1152 5110.8 975.199H5610.8L5787.5 1152 5610.8 1328.8Z"/>
<path transform="matrix(.1,0,0,-.1,0,792)" d="M5110.8 7010.8H5610.8L5787.5 7187.5 5610.8 7364.3H5110.8L4934 7187.5" fill="#404284"/>
<path transform="matrix(.1,0,0,-.1,0,792)" stroke-width="3" stroke-linecap="butt" stroke-miterlimit="10" stroke-linejoin="miter" fill="none" stroke="#ffffff" d="M5110.8 7010.8H5610.8L5787.5 7187.5 5610.8 7364.3H5110.8L4934 7187.5Z"/>
<path transform="matrix(.1,0,0,-.1,0,792)" d="M4934 7187.5 5110.8 7364.3H5610.8L5787.5 7187.5 5964.3 7364.3 5787.5 7541.1V8041.1L5964.3 8217.9 5787.5 8394.6 5610.8 8217.9H5110.8L4934 8394.6 4757.2 8217.9 4934 8041.1V7541.1L4757.2 7364.3" fill="#ffffff"/>
<path transform="matrix(.1,0,0,-.1,0,792)" stroke-width="3" stroke-linecap="butt" stroke-miterlimit="10" stroke-linejoin="miter" fill="none" stroke="#ffffff" d="M4934 7187.5 5110.8 7364.3H5610.8L5787.5 7187.5 5964.3 7364.3 5787.5 7541.1V8041.1L5964.3 8217.9 5787.5 8394.6 5610.8 8217.9H5110.8L4934 8394.6 4757.2 8217.9 4934 8041.1V7541.1L4757.2 7364.3Z"/>
<path transform="matrix(.1,0,0,-.1,0,792)" d="M4580.4 7187.5 4757.2 7364.3 4580.4 7541.1V8041.1L4757.2 8217.9 4580.4 8394.6 4403.7 8217.9H3903.7L3726.9 8394.6 3550.1 8217.9 3726.9 8041.1V7541.1L3550.1 7364.3 3726.9 7187.5 3903.7 7364.3H4403.7" fill="#ffffff"/>
<path transform="matrix(.1,0,0,-.1,0,792)" stroke-width="3" stroke-linecap="butt" stroke-miterlimit="10" stroke-linejoin="miter" fill="none" stroke="#ffffff" d="M4580.4 7187.5 4757.2 7364.3 4580.4 7541.1V8041.1L4757.2 8217.9 4580.4 8394.6 4403.7 8217.9H3903.7L3726.9 8394.6 3550.1 8217.9 3726.9 8041.1V7541.1L3550.1 7364.3 3726.9 7187.5 3903.7 7364.3H4403.7Z"/>
<path transform="matrix(.1,0,0,-.1,0,792)" d="M3373.3 7187.5 3550.1 7364.3 3373.3 7541.1V8041.1L3550.1 8217.9 3373.3 8394.6 3196.5 8217.9H2696.5L2519.8 8394.6 2343 8217.9 2519.8 8041.1V7541.1L2343 7364.3 2519.8 7187.5 2696.5 7364.3H3196.5" fill="#ffffff"/>
<path transform="matrix(.1,0,0,-.1,0,792)" stroke-width="3" stroke-linecap="butt" stroke-miterlimit="10" stroke-linejoin="miter" fill="none" stroke="#ffffff" d="M3373.3 7187.5 3550.1 7364.3 3373.3 7541.1V8041.1L3550.1 8217.9 3373.3 8394.6 3196.5 8217.9H2696.5L2519.8 8394.6 2343 8217.9 2519.8 8041.1V7541.1L2343 7364.3 2519.8 7187.5 2696.5 7364.3H3196.5Z"/>
<path transform="matrix(.1,0,0,-.1,0,792)" d="M2166.2 7187.5 2343 7364.3 2166.2 7541.1V8041.1L2343 8217.9 2166.2 8394.6 1989.4 8217.9H1489.4L1312.7 8394.6 1135.9 8217.9 1312.7 8041.1V7541.1L1135.9 7364.3 1312.7 7187.5 1489.4 7364.3H1989.4" fill="#ffffff"/>
<path transform="matrix(.1,0,0,-.1,0,792)" stroke-width="3" stroke-linecap="butt" stroke-miterlimit="10" stroke-linejoin="miter" fill="none" stroke="#ffffff" d="M2166.2 7187.5 2343 7364.3 2166.2 7541.1V8041.1L2343 8217.9 2166.2 8394.6 1989.4 8217.9H1489.4L1312.7 8394.6 1135.9 8217.9 1312.7 8041.1V7541.1L1135.9 7364.3 1312.7 7187.5 1489.4 7364.3H1989.4Z"/>
<path transform="matrix(.1,0,0,-.1,0,792)" d="M959.102 7187.5 782.301 7364.3H282.301L105.602 7187.5 282.301 7010.8H782.301" fill="#404284"/>
<path transform="matrix(.1,0,0,-.1,0,792)" stroke-width="3" stroke-linecap="butt" stroke-miterlimit="10" stroke-linejoin="miter" fill="none" stroke="#ffffff" d="M959.102 7187.5 782.301 7364.3H282.301L105.602 7187.5 282.301 7010.8H782.301Z"/>
<path transform="matrix(.1,0,0,-.1,0,792)" d="M959.102 7187.5 1135.9 7364.3 959.102 7541.1V8041.1L1135.9 8217.9 959.102 8394.6 782.301 8217.9H282.301L105.602 8394.6-71.1992 8217.9 105.602 8041.1V7541.1L-71.1992 7364.3 105.602 7187.5 282.301 7364.3H782.301" fill="#ffffff"/>
<path transform="matrix(.1,0,0,-.1,0,792)" stroke-width="3" stroke-linecap="butt" stroke-miterlimit="10" stroke-linejoin="miter" fill="none" stroke="#ffffff" d="M959.102 7187.5 1135.9 7364.3 959.102 7541.1V8041.1L1135.9 8217.9 959.102 8394.6 782.301 8217.9H282.301L105.602 8394.6-71.1992 8217.9 105.602 8041.1V7541.1L-71.1992 7364.3 105.602 7187.5 282.301 7364.3H782.301Z"/>
<path transform="matrix(.1,0,0,-.1,0,792)" d="M782.301 1328.8H282.301L105.602 1152 282.301 975.199H782.301L959.102 1152" fill="#404284"/>
<path transform="matrix(.1,0,0,-.1,0,792)" stroke-width="3" stroke-linecap="butt" stroke-miterlimit="10" stroke-linejoin="miter" fill="none" stroke="#ffffff" d="M782.301 1328.8H282.301L105.602 1152 282.301 975.199H782.301L959.102 1152Z"/>
<path transform="matrix(.1,0,0,-.1,0,792)" d="M959.102 1152 782.301 975.199H282.301L105.602 1152-71.1992 975.199 105.602 798.398V298.398L-71.1992 121.699 105.602-55.1016 282.301 121.699H782.301L959.102-55.1016 1135.9 121.699 959.102 298.398V798.398L1135.9 975.199" fill="#ffffff"/>
<path transform="matrix(.1,0,0,-.1,0,792)" stroke-width="3" stroke-linecap="butt" stroke-miterlimit="10" stroke-linejoin="miter" fill="none" stroke="#ffffff" d="M959.102 1152 782.301 975.199H282.301L105.602 1152-71.1992 975.199 105.602 798.398V298.398L-71.1992 121.699 105.602-55.1016 282.301 121.699H782.301L959.102-55.1016 1135.9 121.699 959.102 298.398V798.398L1135.9 975.199Z"/>
<path transform="matrix(.1,0,0,-.1,0,792)" d="M1312.7 1152 1135.9 975.199 1312.7 798.398V298.398L1135.9 121.699 1312.7-55.1016 1489.4 121.699H1989.4L2166.2-55.1016 2343 121.699 2166.2 298.398V798.398L2343 975.199 2166.2 1152 1989.4 975.199H1489.4" fill="#ffffff"/>
<path transform="matrix(.1,0,0,-.1,0,792)" stroke-width="3" stroke-linecap="butt" stroke-miterlimit="10" stroke-linejoin="miter" fill="none" stroke="#ffffff" d="M1312.7 1152 1135.9 975.199 1312.7 798.398V298.398L1135.9 121.699 1312.7-55.1016 1489.4 121.699H1989.4L2166.2-55.1016 2343 121.699 2166.2 298.398V798.398L2343 975.199 2166.2 1152 1989.4 975.199H1489.4Z"/>
<path transform="matrix(.1,0,0,-.1,0,792)" d="M2519.8 1152 2343 975.199 2519.8 798.398V298.398L2343 121.699 2519.8-55.1016 2696.5 121.699H3196.5L3373.3-55.1016 3550.1 121.699 3373.3 298.398V798.398L3550.1 975.199 3373.3 1152 3196.5 975.199H2696.5" fill="#ffffff"/>
<path transform="matrix(.1,0,0,-.1,0,792)" stroke-width="3" stroke-linecap="butt" stroke-miterlimit="10" stroke-linejoin="miter" fill="none" stroke="#ffffff" d="M2519.8 1152 2343 975.199 2519.8 798.398V298.398L2343 121.699 2519.8-55.1016 2696.5 121.699H3196.5L3373.3-55.1016 3550.1 121.699 3373.3 298.398V798.398L3550.1 975.199 3373.3 1152 3196.5 975.199H2696.5Z"/>
<path transform="matrix(.1,0,0,-.1,0,792)" d="M3726.9 1152 3550.1 975.199 3726.9 798.398V298.398L3550.1 121.699 3726.9-55.1016 3903.7 121.699H4403.7L4580.4-55.1016 4757.2 121.699 4580.4 298.398V798.398L4757.2 975.199 4580.4 1152 4403.7 975.199H3903.7" fill="#ffffff"/>
<path transform="matrix(.1,0,0,-.1,0,792)" stroke-width="3" stroke-linecap="butt" stroke-miterlimit="10" stroke-linejoin="miter" fill="none" stroke="#ffffff" d="M3726.9 1152 3550.1 975.199 3726.9 798.398V298.398L3550.1 121.699 3726.9-55.1016 3903.7 121.699H4403.7L4580.4-55.1016 4757.2 121.699 4580.4 298.398V798.398L4757.2 975.199 4580.4 1152 4403.7 975.199H3903.7Z"/>
<path transform="matrix(.1,0,0,-.1,0,792)" d="M4934 1152 4757.2 975.199 4934 798.398V298.398L4757.2 121.699 4934-55.1016 5110.8 121.699H5610.8L5787.5-55.1016 5964.3 121.699 5787.5 298.398V798.398L5964.3 975.199 5787.5 1152 5610.8 975.199H5110.8" fill="#ffffff"/>
<path transform="matrix(.1,0,0,-.1,0,792)" stroke-width="3" stroke-linecap="butt" stroke-miterlimit="10" stroke-linejoin="miter" fill="none" stroke="#ffffff" d="M4934 1152 4757.2 975.199 4934 798.398V298.398L4757.2 121.699 4934-55.1016 5110.8 121.699H5610.8L5787.5-55.1016 5964.3 121.699 5787.5 298.398V798.398L5964.3 975.199 5787.5 1152 5610.8 975.199H5110.8Z"/>
<path transform="matrix(.1,0,0,-.1,0,792)" d="M4757.2 7364.3 4934 7541.1V8041.1L4757.2 8217.9 4580.4 8041.1V7541.1" fill="#404284"/>
<path transform="matrix(.1,0,0,-.1,0,792)" stroke-width="3" stroke-linecap="butt" stroke-miterlimit="10" stroke-linejoin="miter" fill="none" stroke="#ffffff" d="M4757.2 7364.3 4934 7541.1V8041.1L4757.2 8217.9 4580.4 8041.1V7541.1Z"/>
<path transform="matrix(.1,0,0,-.1,0,792)" d="M3550.1 7364.3 3726.9 7541.1V8041.1L3550.1 8217.9 3373.3 8041.1V7541.1" fill="#404284"/>
<path transform="matrix(.1,0,0,-.1,0,792)" stroke-width="3" stroke-linecap="butt" stroke-miterlimit="10" stroke-linejoin="miter" fill="none" stroke="#ffffff" d="M3550.1 7364.3 3726.9 7541.1V8041.1L3550.1 8217.9 3373.3 8041.1V7541.1Z"/>
<path transform="matrix(.1,0,0,-.1,0,792)" d="M2343 7364.3 2519.8 7541.1V8041.1L2343 8217.9 2166.2 8041.1V7541.1" fill="#404284"/>
<path transform="matrix(.1,0,0,-.1,0,792)" stroke-width="3" stroke-linecap="butt" stroke-miterlimit="10" stroke-linejoin="miter" fill="none" stroke="#ffffff" d="M2343 7364.3 2519.8 7541.1V8041.1L2343 8217.9 2166.2 8041.1V7541.1Z"/>
<path transform="matrix(.1,0,0,-.1,0,792)" d="M1135.9 7364.3 1312.7 7541.1V8041.1L1135.9 8217.9 959.102 8041.1V7541.1" fill="#404284"/>
<path transform="matrix(.1,0,0,-.1,0,792)" stroke-width="3" stroke-linecap="butt" stroke-miterlimit="10" stroke-linejoin="miter" fill="none" stroke="#ffffff" d="M1135.9 7364.3 1312.7 7541.1V8041.1L1135.9 8217.9 959.102 8041.1V7541.1Z"/>
<path transform="matrix(.1,0,0,-.1,0,792)" d="M1135.9 975.199 959.102 798.398V298.398L1135.9 121.699 1312.7 298.398V798.398" fill="#404284"/>
<path transform="matrix(.1,0,0,-.1,0,792)" stroke-width="3" stroke-linecap="butt" stroke-miterlimit="10" stroke-linejoin="miter" fill="none" stroke="#ffffff" d="M1135.9 975.199 959.102 798.398V298.398L1135.9 121.699 1312.7 298.398V798.398Z"/>
<path transform="matrix(.1,0,0,-.1,0,792)" d="M2343 975.199 2166.2 798.398V298.398L2343 121.699 2519.8 298.398V798.398" fill="#404284"/>
<path transform="matrix(.1,0,0,-.1,0,792)" stroke-width="3" stroke-linecap="butt" stroke-miterlimit="10" stroke-linejoin="miter" fill="none" stroke="#ffffff" d="M2343 975.199 2166.2 798.398V298.398L2343 121.699 2519.8 298.398V798.398Z"/>
<path transform="matrix(.1,0,0,-.1,0,792)" d="M3550.1 975.199 3373.3 798.398V298.398L3550.1 121.699 3726.9 298.398V798.398" fill="#404284"/>
<path transform="matrix(.1,0,0,-.1,0,792)" stroke-width="3" stroke-linecap="butt" stroke-miterlimit="10" stroke-linejoin="miter" fill="none" stroke="#ffffff" d="M3550.1 975.199 3373.3 798.398V298.398L3550.1 121.699 3726.9 298.398V798.398Z"/>
<path transform="matrix(.1,0,0,-.1,0,792)" d="M4757.2 975.199 4580.4 798.398V298.398L4757.2 121.699 4934 298.398V798.398" fill="#404284"/>
<path transform="matrix(.1,0,0,-.1,0,792)" stroke-width="3" stroke-linecap="butt" stroke-miterlimit="10" stroke-linejoin="miter" fill="none" stroke="#ffffff" d="M4757.2 975.199 4580.4 798.398V298.398L4757.2 121.699 4934 298.398V798.398Z"/>
<path transform="matrix(.1,0,0,-.1,0,792)" d="M5787.5 798.398V298.398L5964.3 121.699 6141.1 298.398V798.398L5964.3 975.199" fill="#404284"/>
<path transform="matrix(.1,0,0,-.1,0,792)" stroke-width="3" stroke-linecap="butt" stroke-miterlimit="10" stroke-linejoin="miter" fill="none" stroke="#ffffff" d="M5787.5 798.398V298.398L5964.3 121.699 6141.1 298.398V798.398L5964.3 975.199Z"/>
<path transform="matrix(.1,0,0,-.1,0,792)" d="M5787.5 1152 5964.3 975.199 6141.1 1152 5964.3 1328.8Z" fill="#54ab9b"/>
<path transform="matrix(.1,0,0,-.1,0,792)" stroke-width="3" stroke-linecap="butt" stroke-miterlimit="10" stroke-linejoin="miter" fill="none" stroke="#ffffff" d="M5787.5 1152 5964.3 975.199 6141.1 1152 5964.3 1328.8Z"/>
<path transform="matrix(.1,0,0,-.1,0,792)" d="M5787.5 1505.5 5964.3 1328.8 6141.1 1505.5V2005.5L5964.3 2182.3 5787.5 2005.5" fill="#404284"/>
<path transform="matrix(.1,0,0,-.1,0,792)" stroke-width="3" stroke-linecap="butt" stroke-miterlimit="10" stroke-linejoin="miter" fill="none" stroke="#ffffff" d="M5787.5 1505.5 5964.3 1328.8 6141.1 1505.5V2005.5L5964.3 2182.3 5787.5 2005.5Z"/>
<path transform="matrix(.1,0,0,-.1,0,792)" d="M5787.5 2359.1 5964.3 2182.3 6141.1 2359.1 5964.3 2535.9Z" fill="#54ab9b"/>
<path transform="matrix(.1,0,0,-.1,0,792)" stroke-width="3" stroke-linecap="butt" stroke-miterlimit="10" stroke-linejoin="miter" fill="none" stroke="#ffffff" d="M5787.5 2359.1 5964.3 2182.3 6141.1 2359.1 5964.3 2535.9Z"/>
<path transform="matrix(.1,0,0,-.1,0,792)" d="M5787.5 2712.7 5964.3 2535.9 6141.1 2712.7V3212.7L5964.3 3389.4 5787.5 3212.7" fill="#404284"/>
<path transform="matrix(.1,0,0,-.1,0,792)" stroke-width="3" stroke-linecap="butt" stroke-miterlimit="10" stroke-linejoin="miter" fill="none" stroke="#ffffff" d="M5787.5 2712.7 5964.3 2535.9 6141.1 2712.7V3212.7L5964.3 3389.4 5787.5 3212.7Z"/>
<path transform="matrix(.1,0,0,-.1,0,792)" d="M5787.5 3566.2 5964.3 3389.4 6141.1 3566.2 5964.3 3743Z" fill="#54ab9b"/>
<path transform="matrix(.1,0,0,-.1,0,792)" stroke-width="3" stroke-linecap="butt" stroke-miterlimit="10" stroke-linejoin="miter" fill="none" stroke="#ffffff" d="M5787.5 3566.2 5964.3 3389.4 6141.1 3566.2 5964.3 3743Z"/>
<path transform="matrix(.1,0,0,-.1,0,792)" d="M5787.5 3919.8 5964.3 3743 6141.1 3919.8V4419.8L5964.3 4596.5 5787.5 4419.8" fill="#404284"/>
<path transform="matrix(.1,0,0,-.1,0,792)" stroke-width="3" stroke-linecap="butt" stroke-miterlimit="10" stroke-linejoin="miter" fill="none" stroke="#ffffff" d="M5787.5 3919.8 5964.3 3743 6141.1 3919.8V4419.8L5964.3 4596.5 5787.5 4419.8Z"/>
<path transform="matrix(.1,0,0,-.1,0,792)" d="M5787.5 4773.3 5964.3 4596.5 6141.1 4773.3 5964.3 4950.1Z" fill="#54ab9b"/>
<path transform="matrix(.1,0,0,-.1,0,792)" stroke-width="3" stroke-linecap="butt" stroke-miterlimit="10" stroke-linejoin="miter" fill="none" stroke="#ffffff" d="M5787.5 4773.3 5964.3 4596.5 6141.1 4773.3 5964.3 4950.1Z"/>
<path transform="matrix(.1,0,0,-.1,0,792)" d="M5787.5 5126.9 5964.3 4950.1 6141.1 5126.9V5626.9L5964.3 5803.6 5787.5 5626.9" fill="#404284"/>
<path transform="matrix(.1,0,0,-.1,0,792)" stroke-width="3" stroke-linecap="butt" stroke-miterlimit="10" stroke-linejoin="miter" fill="none" stroke="#ffffff" d="M5787.5 5126.9 5964.3 4950.1 6141.1 5126.9V5626.9L5964.3 5803.6 5787.5 5626.9Z"/>
<path transform="matrix(.1,0,0,-.1,0,792)" d="M5787.5 5980.4 5964.3 5803.6 6141.1 5980.4 5964.3 6157.2Z" fill="#54ab9b"/>
<path transform="matrix(.1,0,0,-.1,0,792)" stroke-width="3" stroke-linecap="butt" stroke-miterlimit="10" stroke-linejoin="miter" fill="none" stroke="#ffffff" d="M5787.5 5980.4 5964.3 5803.6 6141.1 5980.4 5964.3 6157.2Z"/>
<path transform="matrix(.1,0,0,-.1,0,792)" d="M5787.5 6334 5964.3 6157.2 6141.1 6334V6834L5964.3 7010.8 5787.5 6834" fill="#404284"/>
<path transform="matrix(.1,0,0,-.1,0,792)" stroke-width="3" stroke-linecap="butt" stroke-miterlimit="10" stroke-linejoin="miter" fill="none" stroke="#ffffff" d="M5787.5 6334 5964.3 6157.2 6141.1 6334V6834L5964.3 7010.8 5787.5 6834Z"/>
<path transform="matrix(.1,0,0,-.1,0,792)" d="M5787.5 7187.5 5964.3 7010.8 6141.1 7187.5 5964.3 7364.3Z" fill="#54ab9b"/>
<path transform="matrix(.1,0,0,-.1,0,792)" stroke-width="3" stroke-linecap="butt" stroke-miterlimit="10" stroke-linejoin="miter" fill="none" stroke="#ffffff" d="M5787.5 7187.5 5964.3 7010.8 6141.1 7187.5 5964.3 7364.3Z"/>
<path transform="matrix(.1,0,0,-.1,0,792)" d="M5787.5 7541.1 5964.3 7364.3 6141.1 7541.1V8041.1L5964.3 8217.9 5787.5 8041.1" fill="#404284"/>
<path transform="matrix(.1,0,0,-.1,0,792)" stroke-width="3" stroke-linecap="butt" stroke-miterlimit="10" stroke-linejoin="miter" fill="none" stroke="#ffffff" d="M5787.5 7541.1 5964.3 7364.3 6141.1 7541.1V8041.1L5964.3 8217.9 5787.5 8041.1Z"/>
<path transform="matrix(.1,0,0,-.1,0,792)" d="M105.602 8041.1-71.1992 8217.9-248 8041.1V7541.1L-71.1992 7364.3 105.602 7541.1" fill="#404284"/>
<path transform="matrix(.1,0,0,-.1,0,792)" stroke-width="3" stroke-linecap="butt" stroke-miterlimit="10" stroke-linejoin="miter" fill="none" stroke="#ffffff" d="M105.602 8041.1-71.1992 8217.9-248 8041.1V7541.1L-71.1992 7364.3 105.602 7541.1Z"/>
<path transform="matrix(.1,0,0,-.1,0,792)" d="M105.602 7187.5-71.1992 7364.3-248 7187.5-71.1992 7010.8Z" fill="#54ab9b"/>
<path transform="matrix(.1,0,0,-.1,0,792)" stroke-width="3" stroke-linecap="butt" stroke-miterlimit="10" stroke-linejoin="miter" fill="none" stroke="#ffffff" d="M105.602 7187.5-71.1992 7364.3-248 7187.5-71.1992 7010.8Z"/>
<path transform="matrix(.1,0,0,-.1,0,792)" d="M105.602 6834-71.1992 7010.8-248 6834V6334L-71.1992 6157.2 105.602 6334" fill="#404284"/>
<path transform="matrix(.1,0,0,-.1,0,792)" stroke-width="3" stroke-linecap="butt" stroke-miterlimit="10" stroke-linejoin="miter" fill="none" stroke="#ffffff" d="M105.602 6834-71.1992 7010.8-248 6834V6334L-71.1992 6157.2 105.602 6334Z"/>
<path transform="matrix(.1,0,0,-.1,0,792)" d="M105.602 5980.4-71.1992 6157.2-248 5980.4-71.1992 5803.6Z" fill="#54ab9b"/>
<path transform="matrix(.1,0,0,-.1,0,792)" stroke-width="3" stroke-linecap="butt" stroke-miterlimit="10" stroke-linejoin="miter" fill="none" stroke="#ffffff" d="M105.602 5980.4-71.1992 6157.2-248 5980.4-71.1992 5803.6Z"/>
<path transform="matrix(.1,0,0,-.1,0,792)" d="M105.602 5626.9-71.1992 5803.6-248 5626.9V5126.9L-71.1992 4950.1 105.602 5126.9" fill="#404284"/>
<path transform="matrix(.1,0,0,-.1,0,792)" stroke-width="3" stroke-linecap="butt" stroke-miterlimit="10" stroke-linejoin="miter" fill="none" stroke="#ffffff" d="M105.602 5626.9-71.1992 5803.6-248 5626.9V5126.9L-71.1992 4950.1 105.602 5126.9Z"/>
<path transform="matrix(.1,0,0,-.1,0,792)" d="M105.602 4773.3-71.1992 4950.1-248 4773.3-71.1992 4596.5Z" fill="#54ab9b"/>
<path transform="matrix(.1,0,0,-.1,0,792)" stroke-width="3" stroke-linecap="butt" stroke-miterlimit="10" stroke-linejoin="miter" fill="none" stroke="#ffffff" d="M105.602 4773.3-71.1992 4950.1-248 4773.3-71.1992 4596.5Z"/>
<path transform="matrix(.1,0,0,-.1,0,792)" d="M105.602 4419.8-71.1992 4596.5-248 4419.8V3919.8L-71.1992 3743 105.602 3919.8" fill="#404284"/>
<path transform="matrix(.1,0,0,-.1,0,792)" stroke-width="3" stroke-linecap="butt" stroke-miterlimit="10" stroke-linejoin="miter" fill="none" stroke="#ffffff" d="M105.602 4419.8-71.1992 4596.5-248 4419.8V3919.8L-71.1992 3743 105.602 3919.8Z"/>
<path transform="matrix(.1,0,0,-.1,0,792)" d="M105.602 3566.2-71.1992 3743-248 3566.2-71.1992 3389.4Z" fill="#54ab9b"/>
<path transform="matrix(.1,0,0,-.1,0,792)" stroke-width="3" stroke-linecap="butt" stroke-miterlimit="10" stroke-linejoin="miter" fill="none" stroke="#ffffff" d="M105.602 3566.2-71.1992 3743-248 3566.2-71.1992 3389.4Z"/>
<path transform="matrix(.1,0,0,-.1,0,792)" d="M105.602 3212.7-71.1992 3389.4-248 3212.7V2712.7L-71.1992 2535.9 105.602 2712.7" fill="#404284"/>
<path transform="matrix(.1,0,0,-.1,0,792)" stroke-width="3" stroke-linecap="butt" stroke-miterlimit="10" stroke-linejoin="miter" fill="none" stroke="#ffffff" d="M105.602 3212.7-71.1992 3389.4-248 3212.7V2712.7L-71.1992 2535.9 105.602 2712.7Z"/>
<path transform="matrix(.1,0,0,-.1,0,792)" d="M105.602 2359.1-71.1992 2535.9-248 2359.1-71.1992 2182.3Z" fill="#54ab9b"/>
<path transform="matrix(.1,0,0,-.1,0,792)" stroke-width="3" stroke-linecap="butt" stroke-miterlimit="10" stroke-linejoin="miter" fill="none" stroke="#ffffff" d="M105.602 2359.1-71.1992 2535.9-248 2359.1-71.1992 2182.3Z"/>
<path transform="matrix(.1,0,0,-.1,0,792)" d="M105.602 2005.5-71.1992 2182.3-248 2005.5V1505.5L-71.1992 1328.8 105.602 1505.5" fill="#404284"/>
<path transform="matrix(.1,0,0,-.1,0,792)" stroke-width="3" stroke-linecap="butt" stroke-miterlimit="10" stroke-linejoin="miter" fill="none" stroke="#ffffff" d="M105.602 2005.5-71.1992 2182.3-248 2005.5V1505.5L-71.1992 1328.8 105.602 1505.5Z"/>
<path transform="matrix(.1,0,0,-.1,0,792)" d="M105.602 1152-71.1992 1328.8-248 1152-71.1992 975.199Z" fill="#54ab9b"/>
<path transform="matrix(.1,0,0,-.1,0,792)" stroke-width="3" stroke-linecap="butt" stroke-miterlimit="10" stroke-linejoin="miter" fill="none" stroke="#ffffff" d="M105.602 1152-71.1992 1328.8-248 1152-71.1992 975.199Z"/>
<path transform="matrix(.1,0,0,-.1,0,792)" d="M105.602 798.398-71.1992 975.199-248 798.398V298.398L-71.1992 121.699 105.602 298.398" fill="#404284"/>
<path transform="matrix(.1,0,0,-.1,0,792)" stroke-width="3" stroke-linecap="butt" stroke-miterlimit="10" stroke-linejoin="miter" fill="none" stroke="#ffffff" d="M105.602 798.398-71.1992 975.199-248 798.398V298.398L-71.1992 121.699 105.602 298.398Z"/>
<path transform="matrix(.1,0,0,-.1,0,792)" d="M282.301 121.699 105.602-55.1016 282.301-231.898H782.301L959.102-55.1016 782.301 121.699" fill="#404284"/>
<path transform="matrix(.1,0,0,-.1,0,792)" stroke-width="3" stroke-linecap="butt" stroke-miterlimit="10" stroke-linejoin="miter" fill="none" stroke="#ffffff" d="M282.301 121.699 105.602-55.1016 282.301-231.898H782.301L959.102-55.1016 782.301 121.699Z"/>
<path transform="matrix(.1,0,0,-.1,0,792)" d="M1135.9 121.699 959.102-55.1016 1135.9-231.898 1312.7-55.1016Z" fill="#54ab9b"/>
<path transform="matrix(.1,0,0,-.1,0,792)" stroke-width="3" stroke-linecap="butt" stroke-miterlimit="10" stroke-linejoin="miter" fill="none" stroke="#ffffff" d="M1135.9 121.699 959.102-55.1016 1135.9-231.898 1312.7-55.1016Z"/>
<path transform="matrix(.1,0,0,-.1,0,792)" d="M1489.4 121.699 1312.7-55.1016 1489.4-231.898H1989.4L2166.2-55.1016 1989.4 121.699" fill="#404284"/>
<path transform="matrix(.1,0,0,-.1,0,792)" stroke-width="3" stroke-linecap="butt" stroke-miterlimit="10" stroke-linejoin="miter" fill="none" stroke="#ffffff" d="M1489.4 121.699 1312.7-55.1016 1489.4-231.898H1989.4L2166.2-55.1016 1989.4 121.699Z"/>
<path transform="matrix(.1,0,0,-.1,0,792)" d="M2343 121.699 2166.2-55.1016 2343-231.898 2519.8-55.1016Z" fill="#54ab9b"/>
<path transform="matrix(.1,0,0,-.1,0,792)" stroke-width="3" stroke-linecap="butt" stroke-miterlimit="10" stroke-linejoin="miter" fill="none" stroke="#ffffff" d="M2343 121.699 2166.2-55.1016 2343-231.898 2519.8-55.1016Z"/>
<path transform="matrix(.1,0,0,-.1,0,792)" d="M2696.5 121.699 2519.8-55.1016 2696.5-231.898H3196.5L3373.3-55.1016 3196.5 121.699" fill="#404284"/>
<path transform="matrix(.1,0,0,-.1,0,792)" stroke-width="3" stroke-linecap="butt" stroke-miterlimit="10" stroke-linejoin="miter" fill="none" stroke="#ffffff" d="M2696.5 121.699 2519.8-55.1016 2696.5-231.898H3196.5L3373.3-55.1016 3196.5 121.699Z"/>
<path transform="matrix(.1,0,0,-.1,0,792)" d="M3550.1 121.699 3373.3-55.1016 3550.1-231.898 3726.9-55.1016Z" fill="#54ab9b"/>
<path transform="matrix(.1,0,0,-.1,0,792)" stroke-width="3" stroke-linecap="butt" stroke-miterlimit="10" stroke-linejoin="miter" fill="none" stroke="#ffffff" d="M3550.1 121.699 3373.3-55.1016 3550.1-231.898 3726.9-55.1016Z"/>
<path transform="matrix(.1,0,0,-.1,0,792)" d="M3903.7 121.699 3726.9-55.1016 3903.7-231.898H4403.7L4580.4-55.1016 4403.7 121.699" fill="#404284"/>
<path transform="matrix(.1,0,0,-.1,0,792)" stroke-width="3" stroke-linecap="butt" stroke-miterlimit="10" stroke-linejoin="miter" fill="none" stroke="#ffffff" d="M3903.7 121.699 3726.9-55.1016 3903.7-231.898H4403.7L4580.4-55.1016 4403.7 121.699Z"/>
<path transform="matrix(.1,0,0,-.1,0,792)" d="M4757.2 121.699 4580.4-55.1016 4757.2-231.898 4934-55.1016Z" fill="#54ab9b"/>
<path transform="matrix(.1,0,0,-.1,0,792)" stroke-width="3" stroke-linecap="butt" stroke-miterlimit="10" stroke-linejoin="miter" fill="none" stroke="#ffffff" d="M4757.2 121.699 4580.4-55.1016 4757.2-231.898 4934-55.1016Z"/>
<path transform="matrix(.1,0,0,-.1,0,792)" d="M5110.8 121.699 4934-55.1016 5110.8-231.898H5610.8L5787.5-55.1016 5610.8 121.699" fill="#404284"/>
<path transform="matrix(.1,0,0,-.1,0,792)" stroke-width="3" stroke-linecap="butt" stroke-miterlimit="10" stroke-linejoin="miter" fill="none" stroke="#ffffff" d="M5110.8 121.699 4934-55.1016 5110.8-231.898H5610.8L5787.5-55.1016 5610.8 121.699Z"/>
<path transform="matrix(.1,0,0,-.1,0,792)" d="M5964.3 121.699 6141.1-55.1016 6317.9 121.699H6817.9L6994.6-55.1016 7171.4 121.699 6994.6 298.398V798.398L7171.4 975.199 6994.6 1152 6817.9 975.199H6317.9L6141.1 1152 5964.3 975.199 6141.1 798.398V298.398" fill="#ffffff"/>
<path transform="matrix(.1,0,0,-.1,0,792)" stroke-width="3" stroke-linecap="butt" stroke-miterlimit="10" stroke-linejoin="miter" fill="none" stroke="#ffffff" d="M5964.3 121.699 6141.1-55.1016 6317.9 121.699H6817.9L6994.6-55.1016 7171.4 121.699 6994.6 298.398V798.398L7171.4 975.199 6994.6 1152 6817.9 975.199H6317.9L6141.1 1152 5964.3 975.199 6141.1 798.398V298.398Z"/>
<path transform="matrix(.1,0,0,-.1,0,792)" d="M5964.3 121.699 5787.5-55.1016 5964.3-231.898 6141.1-55.1016Z" fill="#54ab9b"/>
<path transform="matrix(.1,0,0,-.1,0,792)" stroke-width="3" stroke-linecap="butt" stroke-miterlimit="10" stroke-linejoin="miter" fill="none" stroke="#ffffff" d="M5964.3 121.699 5787.5-55.1016 5964.3-231.898 6141.1-55.1016Z"/>
<path transform="matrix(.1,0,0,-.1,0,792)" d="M5964.3 1328.8 6141.1 1152 6317.9 1328.8H6817.9L6994.6 1152 7171.4 1328.8 6994.6 1505.5V2005.5L7171.4 2182.3 6994.6 2359.1 6817.9 2182.3H6317.9L6141.1 2359.1 5964.3 2182.3 6141.1 2005.5V1505.5" fill="#ffffff"/>
<path transform="matrix(.1,0,0,-.1,0,792)" stroke-width="3" stroke-linecap="butt" stroke-miterlimit="10" stroke-linejoin="miter" fill="none" stroke="#ffffff" d="M5964.3 1328.8 6141.1 1152 6317.9 1328.8H6817.9L6994.6 1152 7171.4 1328.8 6994.6 1505.5V2005.5L7171.4 2182.3 6994.6 2359.1 6817.9 2182.3H6317.9L6141.1 2359.1 5964.3 2182.3 6141.1 2005.5V1505.5Z"/>
<path transform="matrix(.1,0,0,-.1,0,792)" d="M5964.3 2535.9 6141.1 2359.1 6317.9 2535.9H6817.9L6994.6 2359.1 7171.4 2535.9 6994.6 2712.7V3212.7L7171.4 3389.4 6994.6 3566.2 6817.9 3389.4H6317.9L6141.1 3566.2 5964.3 3389.4 6141.1 3212.7V2712.7" fill="#ffffff"/>
<path transform="matrix(.1,0,0,-.1,0,792)" stroke-width="3" stroke-linecap="butt" stroke-miterlimit="10" stroke-linejoin="miter" fill="none" stroke="#ffffff" d="M5964.3 2535.9 6141.1 2359.1 6317.9 2535.9H6817.9L6994.6 2359.1 7171.4 2535.9 6994.6 2712.7V3212.7L7171.4 3389.4 6994.6 3566.2 6817.9 3389.4H6317.9L6141.1 3566.2 5964.3 3389.4 6141.1 3212.7V2712.7Z"/>
<path transform="matrix(.1,0,0,-.1,0,792)" d="M5964.3 3743 6141.1 3566.2 6317.9 3743H6817.9L6994.6 3566.2 7171.4 3743 6994.6 3919.8V4419.8L7171.4 4596.5 6994.6 4773.3 6817.9 4596.5H6317.9L6141.1 4773.3 5964.3 4596.5 6141.1 4419.8V3919.8" fill="#ffffff"/>
<path transform="matrix(.1,0,0,-.1,0,792)" stroke-width="3" stroke-linecap="butt" stroke-miterlimit="10" stroke-linejoin="miter" fill="none" stroke="#ffffff" d="M5964.3 3743 6141.1 3566.2 6317.9 3743H6817.9L6994.6 3566.2 7171.4 3743 6994.6 3919.8V4419.8L7171.4 4596.5 6994.6 4773.3 6817.9 4596.5H6317.9L6141.1 4773.3 5964.3 4596.5 6141.1 4419.8V3919.8Z"/>
<path transform="matrix(.1,0,0,-.1,0,792)" d="M5964.3 4950.1 6141.1 4773.3 6317.9 4950.1H6817.9L6994.6 4773.3 7171.4 4950.1 6994.6 5126.9V5626.9L7171.4 5803.6 6994.6 5980.4 6817.9 5803.6H6317.9L6141.1 5980.4 5964.3 5803.6 6141.1 5626.9V5126.9" fill="#ffffff"/>
<path transform="matrix(.1,0,0,-.1,0,792)" stroke-width="3" stroke-linecap="butt" stroke-miterlimit="10" stroke-linejoin="miter" fill="none" stroke="#ffffff" d="M5964.3 4950.1 6141.1 4773.3 6317.9 4950.1H6817.9L6994.6 4773.3 7171.4 4950.1 6994.6 5126.9V5626.9L7171.4 5803.6 6994.6 5980.4 6817.9 5803.6H6317.9L6141.1 5980.4 5964.3 5803.6 6141.1 5626.9V5126.9Z"/>
<path transform="matrix(.1,0,0,-.1,0,792)" d="M5964.3 6157.2 6141.1 5980.4 6317.9 6157.2H6817.9L6994.6 5980.4 7171.4 6157.2 6994.6 6334V6834L7171.4 7010.8 6994.6 7187.5 6817.9 7010.8H6317.9L6141.1 7187.5 5964.3 7010.8 6141.1 6834V6334" fill="#ffffff"/>
<path transform="matrix(.1,0,0,-.1,0,792)" stroke-width="3" stroke-linecap="butt" stroke-miterlimit="10" stroke-linejoin="miter" fill="none" stroke="#ffffff" d="M5964.3 6157.2 6141.1 5980.4 6317.9 6157.2H6817.9L6994.6 5980.4 7171.4 6157.2 6994.6 6334V6834L7171.4 7010.8 6994.6 7187.5 6817.9 7010.8H6317.9L6141.1 7187.5 5964.3 7010.8 6141.1 6834V6334Z"/>
<path transform="matrix(.1,0,0,-.1,0,792)" d="M5964.3 7364.3 6141.1 7187.5 6317.9 7364.3H6817.9L6994.6 7187.5 7171.4 7364.3 6994.6 7541.1V8041.1L7171.4 8217.9 6994.6 8394.6 6817.9 8217.9H6317.9L6141.1 8394.6 5964.3 8217.9 6141.1 8041.1V7541.1" fill="#ffffff"/>
<path transform="matrix(.1,0,0,-.1,0,792)" stroke-width="3" stroke-linecap="butt" stroke-miterlimit="10" stroke-linejoin="miter" fill="none" stroke="#ffffff" d="M5964.3 7364.3 6141.1 7187.5 6317.9 7364.3H6817.9L6994.6 7187.5 7171.4 7364.3 6994.6 7541.1V8041.1L7171.4 8217.9 6994.6 8394.6 6817.9 8217.9H6317.9L6141.1 8394.6 5964.3 8217.9 6141.1 8041.1V7541.1Z"/>
<path transform="matrix(.1,0,0,-.1,0,792)" d="M-71.1992 121.699-248-55.1016-71.1992-231.898 105.602-55.1016Z" fill="#54ab9b"/>
<path transform="matrix(.1,0,0,-.1,0,792)" stroke-width="3" stroke-linecap="butt" stroke-miterlimit="10" stroke-linejoin="miter" fill="none" stroke="#ffffff" d="M-71.1992 121.699-248-55.1016-71.1992-231.898 105.602-55.1016Z"/>
</svg>
