<svg xmlns="http://www.w3.org/2000/svg" xmlns:xlink="http://www.w3.org/1999/xlink" xmlns:inkscape="http://www.inkscape.org/namespaces/inkscape" version="1.1" width="612" height="792" viewBox="0 0 612 792">
<path transform="matrix(.1,0,0,-.1,0,792)" d="M3414.7 4529.4 3030 4654.4 2883 4452.2 2645.2 4374.9V3970.4L3030 3845.4 3176.9 4047.7 3414.7 4124.9" fill="#ffffff"/>
<path transform="matrix(.1,0,0,-.1,0,792)" stroke-width="1" stroke-linecap="butt" stroke-miterlimit="10" stroke-linejoin="miter" fill="none" stroke="#000000" d="M3414.7 4529.4 3030 4654.4 2883 4452.2 2645.2 4374.9V3970.4L3030 3845.4 3176.9 4047.7 3414.7 4124.9Z"/>
<path transform="matrix(.1,0,0,-.1,0,792)" d="M2883 4452.2 3030 4654.4 2645.2 4779.4V4374.9Z" fill="#5c6600"/>
<path transform="matrix(.1,0,0,-.1,0,792)" stroke-width="1" stroke-linecap="butt" stroke-miterlimit="10" stroke-linejoin="miter" fill="none" stroke="#000000" d="M2883 4452.2 3030 4654.4 2645.2 4779.4V4374.9Z"/>
<path transform="matrix(.1,0,0,-.1,0,792)" d="M3176.9 4047.7 3030 3845.4 3414.7 3720.4V4124.9Z" fill="#5c6600"/>
<path transform="matrix(.1,0,0,-.1,0,792)" stroke-width="1" stroke-linecap="butt" stroke-miterlimit="10" stroke-linejoin="miter" fill="none" stroke="#000000" d="M3176.9 4047.7 3030 3845.4 3414.7 3720.4V4124.9Z"/>
<path transform="matrix(.1,0,0,-.1,0,792)" d="M3030 3845.4 2792.2 3518.2 3030 3190.9 3414.7 3315.9V3720.4" fill="#ffde66"/>
<path transform="matrix(.1,0,0,-.1,0,792)" stroke-width="1" stroke-linecap="butt" stroke-miterlimit="10" stroke-linejoin="miter" fill="none" stroke="#000000" d="M3030 3845.4 2792.2 3518.2 3030 3190.9 3414.7 3315.9V3720.4Z"/>
<path transform="matrix(.1,0,0,-.1,0,792)" d="M3030 3845.4 2645.2 3970.4V3720.4L2792.2 3518.2Z" fill="#5c6600"/>
<path transform="matrix(.1,0,0,-.1,0,792)" stroke-width="1" stroke-linecap="butt" stroke-miterlimit="10" stroke-linejoin="miter" fill="none" stroke="#000000" d="M3030 3845.4 2645.2 3970.4V3720.4L2792.2 3518.2Z"/>
<path transform="matrix(.1,0,0,-.1,0,792)" d="M3030 4654.4 3267.7 4981.7 3120.8 5183.9V5433.9L2736.1 5558.9 2498.3 5231.7 2645.2 5029.4V4779.4" fill="#ffffff"/>
<path transform="matrix(.1,0,0,-.1,0,792)" stroke-width="1" stroke-linecap="butt" stroke-miterlimit="10" stroke-linejoin="miter" fill="none" stroke="#000000" d="M3030 4654.4 3267.7 4981.7 3120.8 5183.9V5433.9L2736.1 5558.9 2498.3 5231.7 2645.2 5029.4V4779.4Z"/>
<path transform="matrix(.1,0,0,-.1,0,792)" d="M3030 4654.4 3414.7 4529.4V4124.9L3799.4 4249.9 4037.1 3922.7 4274.9 4249.9 3890.2 4374.9V4779.4L3505.5 4654.4 3267.7 4981.7" fill="#805900"/>
<path transform="matrix(.1,0,0,-.1,0,792)" stroke-width="1" stroke-linecap="butt" stroke-miterlimit="10" stroke-linejoin="miter" fill="none" stroke="#000000" d="M3030 4654.4 3414.7 4529.4V4124.9L3799.4 4249.9 4037.1 3922.7 4274.9 4249.9 3890.2 4374.9V4779.4L3505.5 4654.4 3267.7 4981.7Z"/>
<path transform="matrix(.1,0,0,-.1,0,792)" d="M2645.2 4374.9 2407.5 4297.7 2260.5 4095.4 2645.2 3970.4Z" fill="#5c6600"/>
<path transform="matrix(.1,0,0,-.1,0,792)" stroke-width="1" stroke-linecap="butt" stroke-miterlimit="10" stroke-linejoin="miter" fill="none" stroke="#000000" d="M2645.2 4374.9 2407.5 4297.7 2260.5 4095.4 2645.2 3970.4Z"/>
<path transform="matrix(.1,0,0,-.1,0,792)" d="M2645.2 4374.9V4779.4L2260.5 4904.4 2113.6 4702.2 1875.8 4624.9V4220.4L2260.5 4095.4 2407.5 4297.7" fill="#ffffff"/>
<path transform="matrix(.1,0,0,-.1,0,792)" stroke-width="1" stroke-linecap="butt" stroke-miterlimit="10" stroke-linejoin="miter" fill="none" stroke="#000000" d="M2645.2 4374.9V4779.4L2260.5 4904.4 2113.6 4702.2 1875.8 4624.9V4220.4L2260.5 4095.4 2407.5 4297.7Z"/>
<path transform="matrix(.1,0,0,-.1,0,792)" d="M2645.2 3970.4 2260.5 4095.4 2022.8 3768.2 2169.7 3565.9V3315.9L2554.4 3190.9 2792.2 3518.2 2645.2 3720.4" fill="#ffffff"/>
<path transform="matrix(.1,0,0,-.1,0,792)" stroke-width="1" stroke-linecap="butt" stroke-miterlimit="10" stroke-linejoin="miter" fill="none" stroke="#000000" d="M2645.2 3970.4 2260.5 4095.4 2022.8 3768.2 2169.7 3565.9V3315.9L2554.4 3190.9 2792.2 3518.2 2645.2 3720.4Z"/>
<path transform="matrix(.1,0,0,-.1,0,792)" d="M2645.2 4779.4V5029.4L2498.3 5231.7 2260.5 4904.4Z" fill="#5c6600"/>
<path transform="matrix(.1,0,0,-.1,0,792)" stroke-width="1" stroke-linecap="butt" stroke-miterlimit="10" stroke-linejoin="miter" fill="none" stroke="#000000" d="M2645.2 4779.4V5029.4L2498.3 5231.7 2260.5 4904.4Z"/>
<path transform="matrix(.1,0,0,-.1,0,792)" d="M3414.7 3720.4 3799.4 3595.4 4037.1 3922.7 3799.4 4249.9 3414.7 4124.9" fill="#ffde66"/>
<path transform="matrix(.1,0,0,-.1,0,792)" stroke-width="1" stroke-linecap="butt" stroke-miterlimit="10" stroke-linejoin="miter" fill="none" stroke="#000000" d="M3414.7 3720.4 3799.4 3595.4 4037.1 3922.7 3799.4 4249.9 3414.7 4124.9Z"/>
<path transform="matrix(.1,0,0,-.1,0,792)" d="M3414.7 3720.4V3315.9L3652.4 3393.2 3799.4 3595.4Z" fill="#5c6600"/>
<path transform="matrix(.1,0,0,-.1,0,792)" stroke-width="1" stroke-linecap="butt" stroke-miterlimit="10" stroke-linejoin="miter" fill="none" stroke="#000000" d="M3414.7 3720.4V3315.9L3652.4 3393.2 3799.4 3595.4Z"/>
<path transform="matrix(.1,0,0,-.1,0,792)" d="M2792.2 3518.2 2554.4 3190.9 2939.1 3065.9V2661.4L3323.9 2786.4 3561.6 2459.2 3799.4 2786.4 3414.7 2911.4V3315.9L3030 3190.9" fill="#805900"/>
<path transform="matrix(.1,0,0,-.1,0,792)" stroke-width="1" stroke-linecap="butt" stroke-miterlimit="10" stroke-linejoin="miter" fill="none" stroke="#000000" d="M2792.2 3518.2 2554.4 3190.9 2939.1 3065.9V2661.4L3323.9 2786.4 3561.6 2459.2 3799.4 2786.4 3414.7 2911.4V3315.9L3030 3190.9Z"/>
<path transform="matrix(.1,0,0,-.1,0,792)" d="M3505.5 4654.4 3890.2 4779.4V5183.9L3505.5 5308.9 3267.7 4981.7" fill="#ffde66"/>
<path transform="matrix(.1,0,0,-.1,0,792)" stroke-width="1" stroke-linecap="butt" stroke-miterlimit="10" stroke-linejoin="miter" fill="none" stroke="#000000" d="M3505.5 4654.4 3890.2 4779.4V5183.9L3505.5 5308.9 3267.7 4981.7Z"/>
<path transform="matrix(.1,0,0,-.1,0,792)" d="M3267.7 4981.7 3505.5 5308.9 3120.8 5433.9V5183.9Z" fill="#5c6600"/>
<path transform="matrix(.1,0,0,-.1,0,792)" stroke-width="1" stroke-linecap="butt" stroke-miterlimit="10" stroke-linejoin="miter" fill="none" stroke="#000000" d="M3267.7 4981.7 3505.5 5308.9 3120.8 5433.9V5183.9Z"/>
<path transform="matrix(.1,0,0,-.1,0,792)" d="M3414.7 3315.9V2911.4L3799.4 2786.4 3946.3 2988.7 4184.1 3065.9V3470.4L3799.4 3595.4 3652.4 3393.2" fill="#ffffff"/>
<path transform="matrix(.1,0,0,-.1,0,792)" stroke-width="1" stroke-linecap="butt" stroke-miterlimit="10" stroke-linejoin="miter" fill="none" stroke="#000000" d="M3414.7 3315.9V2911.4L3799.4 2786.4 3946.3 2988.7 4184.1 3065.9V3470.4L3799.4 3595.4 3652.4 3393.2Z"/>
<path transform="matrix(.1,0,0,-.1,0,792)" d="M2260.5 4904.4 1875.8 5029.4V4624.9L2113.6 4702.2Z" fill="#5c6600"/>
<path transform="matrix(.1,0,0,-.1,0,792)" stroke-width="1" stroke-linecap="butt" stroke-miterlimit="10" stroke-linejoin="miter" fill="none" stroke="#000000" d="M2260.5 4904.4 1875.8 5029.4V4624.9L2113.6 4702.2Z"/>
<path transform="matrix(.1,0,0,-.1,0,792)" d="M2260.5 4904.4 2498.3 5231.7 2260.5 5558.9 1875.8 5433.9V5029.4" fill="#ffde66"/>
<path transform="matrix(.1,0,0,-.1,0,792)" stroke-width="1" stroke-linecap="butt" stroke-miterlimit="10" stroke-linejoin="miter" fill="none" stroke="#000000" d="M2260.5 4904.4 2498.3 5231.7 2260.5 5558.9 1875.8 5433.9V5029.4Z"/>
<path transform="matrix(.1,0,0,-.1,0,792)" d="M2260.5 4095.4 1875.8 4220.4V4624.9L1491.1 4499.9 1253.4 4827.2 1015.6 4499.9 1400.3 4374.9V3970.4L1785 4095.4 2022.8 3768.2" fill="#805900"/>
<path transform="matrix(.1,0,0,-.1,0,792)" stroke-width="1" stroke-linecap="butt" stroke-miterlimit="10" stroke-linejoin="miter" fill="none" stroke="#000000" d="M2260.5 4095.4 1875.8 4220.4V4624.9L1491.1 4499.9 1253.4 4827.2 1015.6 4499.9 1400.3 4374.9V3970.4L1785 4095.4 2022.8 3768.2Z"/>
<path transform="matrix(.1,0,0,-.1,0,792)" d="M2554.4 3190.9 2407.5 2988.7 2169.7 2911.4V2506.9L2554.4 2381.9 2701.4 2584.2 2939.1 2661.4V3065.9" fill="#ffffff"/>
<path transform="matrix(.1,0,0,-.1,0,792)" stroke-width="1" stroke-linecap="butt" stroke-miterlimit="10" stroke-linejoin="miter" fill="none" stroke="#000000" d="M2554.4 3190.9 2407.5 2988.7 2169.7 2911.4V2506.9L2554.4 2381.9 2701.4 2584.2 2939.1 2661.4V3065.9Z"/>
<path transform="matrix(.1,0,0,-.1,0,792)" d="M2554.4 3190.9 2169.7 3315.9V2911.4L2407.5 2988.7Z" fill="#5c6600"/>
<path transform="matrix(.1,0,0,-.1,0,792)" stroke-width="1" stroke-linecap="butt" stroke-miterlimit="10" stroke-linejoin="miter" fill="none" stroke="#000000" d="M2554.4 3190.9 2169.7 3315.9V2911.4L2407.5 2988.7Z"/>
<path transform="matrix(.1,0,0,-.1,0,792)" d="M2498.3 5231.7 2736.1 5558.9 2351.4 5683.9V6088.5L1966.6 5963.5 1728.9 6290.7 1491.1 5963.5 1875.8 5838.5V5433.9L2260.5 5558.9" fill="#805900"/>
<path transform="matrix(.1,0,0,-.1,0,792)" stroke-width="1" stroke-linecap="butt" stroke-miterlimit="10" stroke-linejoin="miter" fill="none" stroke="#000000" d="M2498.3 5231.7 2736.1 5558.9 2351.4 5683.9V6088.5L1966.6 5963.5 1728.9 6290.7 1491.1 5963.5 1875.8 5838.5V5433.9L2260.5 5558.9Z"/>
<path transform="matrix(.1,0,0,-.1,0,792)" d="M3505.5 5308.9 3652.4 5511.2 3890.2 5588.5V5993L3505.5 6118 3358.5 5915.7 3120.8 5838.5V5433.9" fill="#ffffff"/>
<path transform="matrix(.1,0,0,-.1,0,792)" stroke-width="1" stroke-linecap="butt" stroke-miterlimit="10" stroke-linejoin="miter" fill="none" stroke="#000000" d="M3505.5 5308.9 3652.4 5511.2 3890.2 5588.5V5993L3505.5 6118 3358.5 5915.7 3120.8 5838.5V5433.9Z"/>
<path transform="matrix(.1,0,0,-.1,0,792)" d="M3505.5 5308.9 3890.2 5183.9V5588.5L3652.4 5511.2Z" fill="#5c6600"/>
<path transform="matrix(.1,0,0,-.1,0,792)" stroke-width="1" stroke-linecap="butt" stroke-miterlimit="10" stroke-linejoin="miter" fill="none" stroke="#000000" d="M3505.5 5308.9 3890.2 5183.9V5588.5L3652.4 5511.2Z"/>
<path transform="matrix(.1,0,0,-.1,0,792)" d="M2169.7 3565.9 2022.8 3768.2 1785 3440.9 2169.7 3315.9Z" fill="#5c6600"/>
<path transform="matrix(.1,0,0,-.1,0,792)" stroke-width="1" stroke-linecap="butt" stroke-miterlimit="10" stroke-linejoin="miter" fill="none" stroke="#000000" d="M2169.7 3565.9 2022.8 3768.2 1785 3440.9 2169.7 3315.9Z"/>
<path transform="matrix(.1,0,0,-.1,0,792)" d="M2169.7 3315.9 1785 3440.9 1638.1 3238.7 1400.3 3161.4V2756.9L1785 2631.9 1932 2834.2 2169.7 2911.4" fill="#ffffff"/>
<path transform="matrix(.1,0,0,-.1,0,792)" stroke-width="1" stroke-linecap="butt" stroke-miterlimit="10" stroke-linejoin="miter" fill="none" stroke="#000000" d="M2169.7 3315.9 1785 3440.9 1638.1 3238.7 1400.3 3161.4V2756.9L1785 2631.9 1932 2834.2 2169.7 2911.4Z"/>
<path transform="matrix(.1,0,0,-.1,0,792)" d="M3799.4 3595.4 4184.1 3470.4V3720.4L4037.1 3922.7Z" fill="#5c6600"/>
<path transform="matrix(.1,0,0,-.1,0,792)" stroke-width="1" stroke-linecap="butt" stroke-miterlimit="10" stroke-linejoin="miter" fill="none" stroke="#000000" d="M3799.4 3595.4 4184.1 3470.4V3720.4L4037.1 3922.7Z"/>
<path transform="matrix(.1,0,0,-.1,0,792)" d="M3120.8 5433.9V5838.5L2883 5761.2 2736.1 5558.9Z" fill="#5c6600"/>
<path transform="matrix(.1,0,0,-.1,0,792)" stroke-width="1" stroke-linecap="butt" stroke-miterlimit="10" stroke-linejoin="miter" fill="none" stroke="#000000" d="M3120.8 5433.9V5838.5L2883 5761.2 2736.1 5558.9Z"/>
<path transform="matrix(.1,0,0,-.1,0,792)" d="M3890.2 4374.9 4274.9 4249.9 4421.9 4452.2 4659.6 4529.4V4933.9L4274.9 5058.9 4128 4856.7 3890.2 4779.4" fill="#ffffff"/>
<path transform="matrix(.1,0,0,-.1,0,792)" stroke-width="1" stroke-linecap="butt" stroke-miterlimit="10" stroke-linejoin="miter" fill="none" stroke="#000000" d="M3890.2 4374.9 4274.9 4249.9 4421.9 4452.2 4659.6 4529.4V4933.9L4274.9 5058.9 4128 4856.7 3890.2 4779.4Z"/>
<path transform="matrix(.1,0,0,-.1,0,792)" d="M3890.2 4779.4 4128 4856.7 4274.9 5058.9 3890.2 5183.9Z" fill="#5c6600"/>
<path transform="matrix(.1,0,0,-.1,0,792)" stroke-width="1" stroke-linecap="butt" stroke-miterlimit="10" stroke-linejoin="miter" fill="none" stroke="#000000" d="M3890.2 4779.4 4128 4856.7 4274.9 5058.9 3890.2 5183.9Z"/>
<path transform="matrix(.1,0,0,-.1,0,792)" d="M3890.2 5183.9 4274.9 5058.9 4512.7 5386.2 4274.9 5713.5 3890.2 5588.5" fill="#ffde66"/>
<path transform="matrix(.1,0,0,-.1,0,792)" stroke-width="1" stroke-linecap="butt" stroke-miterlimit="10" stroke-linejoin="miter" fill="none" stroke="#000000" d="M3890.2 5183.9 4274.9 5058.9 4512.7 5386.2 4274.9 5713.5 3890.2 5588.5Z"/>
<path transform="matrix(.1,0,0,-.1,0,792)" d="M2169.7 2911.4 1932 2834.2 1785 2631.9 2169.7 2506.9Z" fill="#5c6600"/>
<path transform="matrix(.1,0,0,-.1,0,792)" stroke-width="1" stroke-linecap="butt" stroke-miterlimit="10" stroke-linejoin="miter" fill="none" stroke="#000000" d="M2169.7 2911.4 1932 2834.2 1785 2631.9 2169.7 2506.9Z"/>
<path transform="matrix(.1,0,0,-.1,0,792)" d="M2022.8 3768.2 1785 4095.4 1400.3 3970.4V3565.9L1785 3440.9" fill="#ffde66"/>
<path transform="matrix(.1,0,0,-.1,0,792)" stroke-width="1" stroke-linecap="butt" stroke-miterlimit="10" stroke-linejoin="miter" fill="none" stroke="#000000" d="M2022.8 3768.2 1785 4095.4 1400.3 3970.4V3565.9L1785 3440.9Z"/>
<path transform="matrix(.1,0,0,-.1,0,792)" d="M3946.3 2988.7 3799.4 2786.4 4184.1 2661.4V3065.9Z" fill="#5c6600"/>
<path transform="matrix(.1,0,0,-.1,0,792)" stroke-width="1" stroke-linecap="butt" stroke-miterlimit="10" stroke-linejoin="miter" fill="none" stroke="#000000" d="M3946.3 2988.7 3799.4 2786.4 4184.1 2661.4V3065.9Z"/>
<path transform="matrix(.1,0,0,-.1,0,792)" d="M2736.1 5558.9 2883 5761.2 3120.8 5838.5V6243L2736.1 6368 2589.1 6165.7 2351.4 6088.5V5683.9" fill="#ffffff"/>
<path transform="matrix(.1,0,0,-.1,0,792)" stroke-width="1" stroke-linecap="butt" stroke-miterlimit="10" stroke-linejoin="miter" fill="none" stroke="#000000" d="M2736.1 5558.9 2883 5761.2 3120.8 5838.5V6243L2736.1 6368 2589.1 6165.7 2351.4 6088.5V5683.9Z"/>
<path transform="matrix(.1,0,0,-.1,0,792)" d="M3890.2 5588.5 4274.9 5713.5 4512.7 5386.2 4750.4 5713.5 4365.7 5838.5V6243L3981 6118 3743.3 6445.2 3505.5 6118 3890.2 5993" fill="#805900"/>
<path transform="matrix(.1,0,0,-.1,0,792)" stroke-width="1" stroke-linecap="butt" stroke-miterlimit="10" stroke-linejoin="miter" fill="none" stroke="#000000" d="M3890.2 5588.5 4274.9 5713.5 4512.7 5386.2 4750.4 5713.5 4365.7 5838.5V6243L3981 6118 3743.3 6445.2 3505.5 6118 3890.2 5993Z"/>
<path transform="matrix(.1,0,0,-.1,0,792)" d="M3323.9 2786.4 2939.1 2661.4V2256.9L3323.9 2131.9 3561.6 2459.2" fill="#ffde66"/>
<path transform="matrix(.1,0,0,-.1,0,792)" stroke-width="1" stroke-linecap="butt" stroke-miterlimit="10" stroke-linejoin="miter" fill="none" stroke="#000000" d="M3323.9 2786.4 2939.1 2661.4V2256.9L3323.9 2131.9 3561.6 2459.2Z"/>
<path transform="matrix(.1,0,0,-.1,0,792)" d="M3799.4 2786.4 3561.6 2459.2 3708.6 2256.9V2006.9L4093.3 1881.9 4331 2209.2 4184.1 2411.4V2661.4" fill="#ffffff"/>
<path transform="matrix(.1,0,0,-.1,0,792)" stroke-width="1" stroke-linecap="butt" stroke-miterlimit="10" stroke-linejoin="miter" fill="none" stroke="#000000" d="M3799.4 2786.4 3561.6 2459.2 3708.6 2256.9V2006.9L4093.3 1881.9 4331 2209.2 4184.1 2411.4V2661.4Z"/>
<path transform="matrix(.1,0,0,-.1,0,792)" d="M4037.1 3922.7 4184.1 3720.4V3470.4L4568.8 3345.4 4806.6 3672.7 4659.6 3874.9V4124.9L4274.9 4249.9" fill="#ffffff"/>
<path transform="matrix(.1,0,0,-.1,0,792)" stroke-width="1" stroke-linecap="butt" stroke-miterlimit="10" stroke-linejoin="miter" fill="none" stroke="#000000" d="M4037.1 3922.7 4184.1 3720.4V3470.4L4568.8 3345.4 4806.6 3672.7 4659.6 3874.9V4124.9L4274.9 4249.9Z"/>
<path transform="matrix(.1,0,0,-.1,0,792)" d="M1875.8 5433.9 1638.1 5356.7 1491.1 5154.4 1875.8 5029.4Z" fill="#5c6600"/>
<path transform="matrix(.1,0,0,-.1,0,792)" stroke-width="1" stroke-linecap="butt" stroke-miterlimit="10" stroke-linejoin="miter" fill="none" stroke="#000000" d="M1875.8 5433.9 1638.1 5356.7 1491.1 5154.4 1875.8 5029.4Z"/>
<path transform="matrix(.1,0,0,-.1,0,792)" d="M1875.8 5433.9V5838.5L1491.1 5963.5 1344.2 5761.2 1106.4 5683.9V5279.4L1491.1 5154.4 1638.1 5356.7" fill="#ffffff"/>
<path transform="matrix(.1,0,0,-.1,0,792)" stroke-width="1" stroke-linecap="butt" stroke-miterlimit="10" stroke-linejoin="miter" fill="none" stroke="#000000" d="M1875.8 5433.9V5838.5L1491.1 5963.5 1344.2 5761.2 1106.4 5683.9V5279.4L1491.1 5154.4 1638.1 5356.7Z"/>
<path transform="matrix(.1,0,0,-.1,0,792)" d="M1875.8 5029.4 1491.1 5154.4 1253.4 4827.2 1491.1 4499.9 1875.8 4624.9" fill="#ffde66"/>
<path transform="matrix(.1,0,0,-.1,0,792)" stroke-width="1" stroke-linecap="butt" stroke-miterlimit="10" stroke-linejoin="miter" fill="none" stroke="#000000" d="M1875.8 5029.4 1491.1 5154.4 1253.4 4827.2 1491.1 4499.9 1875.8 4624.9Z"/>
<path transform="matrix(.1,0,0,-.1,0,792)" d="M2939.1 2661.4 2701.4 2584.2 2554.4 2381.9 2939.1 2256.9Z" fill="#5c6600"/>
<path transform="matrix(.1,0,0,-.1,0,792)" stroke-width="1" stroke-linecap="butt" stroke-miterlimit="10" stroke-linejoin="miter" fill="none" stroke="#000000" d="M2939.1 2661.4 2701.4 2584.2 2554.4 2381.9 2939.1 2256.9Z"/>
<path transform="matrix(.1,0,0,-.1,0,792)" d="M3120.8 5838.5 3358.5 5915.7 3505.5 6118 3120.8 6243Z" fill="#5c6600"/>
<path transform="matrix(.1,0,0,-.1,0,792)" stroke-width="1" stroke-linecap="butt" stroke-miterlimit="10" stroke-linejoin="miter" fill="none" stroke="#000000" d="M3120.8 5838.5 3358.5 5915.7 3505.5 6118 3120.8 6243Z"/>
<path transform="matrix(.1,0,0,-.1,0,792)" d="M1785 3440.9 1400.3 3565.9V3161.4L1638.1 3238.7Z" fill="#5c6600"/>
<path transform="matrix(.1,0,0,-.1,0,792)" stroke-width="1" stroke-linecap="butt" stroke-miterlimit="10" stroke-linejoin="miter" fill="none" stroke="#000000" d="M1785 3440.9 1400.3 3565.9V3161.4L1638.1 3238.7Z"/>
<path transform="matrix(.1,0,0,-.1,0,792)" d="M1785 2631.9 1547.2 2304.6 1694.2 2102.4V1852.4L2078.9 1727.4 2316.7 2054.6 2169.7 2256.9V2506.9" fill="#ffffff"/>
<path transform="matrix(.1,0,0,-.1,0,792)" stroke-width="1" stroke-linecap="butt" stroke-miterlimit="10" stroke-linejoin="miter" fill="none" stroke="#000000" d="M1785 2631.9 1547.2 2304.6 1694.2 2102.4V1852.4L2078.9 1727.4 2316.7 2054.6 2169.7 2256.9V2506.9Z"/>
<path transform="matrix(.1,0,0,-.1,0,792)" d="M1785 2631.9 1400.3 2756.9V3161.4L1015.6 3036.4 777.801 3363.7 540.102 3036.4 924.801 2911.4V2506.9L1309.5 2631.9 1547.2 2304.6" fill="#805900"/>
<path transform="matrix(.1,0,0,-.1,0,792)" stroke-width="1" stroke-linecap="butt" stroke-miterlimit="10" stroke-linejoin="miter" fill="none" stroke="#000000" d="M1785 2631.9 1400.3 2756.9V3161.4L1015.6 3036.4 777.801 3363.7 540.102 3036.4 924.801 2911.4V2506.9L1309.5 2631.9 1547.2 2304.6Z"/>
<path transform="matrix(.1,0,0,-.1,0,792)" d="M4184.1 2661.4 4568.8 2536.4 4715.7 2738.7 4953.5 2815.9V3220.4L4568.8 3345.4 4421.9 3143.2 4184.1 3065.9" fill="#ffffff"/>
<path transform="matrix(.1,0,0,-.1,0,792)" stroke-width="1" stroke-linecap="butt" stroke-miterlimit="10" stroke-linejoin="miter" fill="none" stroke="#000000" d="M4184.1 2661.4 4568.8 2536.4 4715.7 2738.7 4953.5 2815.9V3220.4L4568.8 3345.4 4421.9 3143.2 4184.1 3065.9Z"/>
<path transform="matrix(.1,0,0,-.1,0,792)" d="M4184.1 2661.4V2411.4L4331 2209.2 4568.8 2536.4Z" fill="#5c6600"/>
<path transform="matrix(.1,0,0,-.1,0,792)" stroke-width="1" stroke-linecap="butt" stroke-miterlimit="10" stroke-linejoin="miter" fill="none" stroke="#000000" d="M4184.1 2661.4V2411.4L4331 2209.2 4568.8 2536.4Z"/>
<path transform="matrix(.1,0,0,-.1,0,792)" d="M4184.1 3065.9 4421.9 3143.2 4568.8 3345.4 4184.1 3470.4Z" fill="#5c6600"/>
<path transform="matrix(.1,0,0,-.1,0,792)" stroke-width="1" stroke-linecap="butt" stroke-miterlimit="10" stroke-linejoin="miter" fill="none" stroke="#000000" d="M4184.1 3065.9 4421.9 3143.2 4568.8 3345.4 4184.1 3470.4Z"/>
<path transform="matrix(.1,0,0,-.1,0,792)" d="M2169.7 2506.9V2256.9L2316.7 2054.6 2554.4 2381.9Z" fill="#5c6600"/>
<path transform="matrix(.1,0,0,-.1,0,792)" stroke-width="1" stroke-linecap="butt" stroke-miterlimit="10" stroke-linejoin="miter" fill="none" stroke="#000000" d="M2169.7 2506.9V2256.9L2316.7 2054.6 2554.4 2381.9Z"/>
<path transform="matrix(.1,0,0,-.1,0,792)" d="M3561.6 2459.2 3323.9 2131.9 3708.6 2006.9V2256.9Z" fill="#5c6600"/>
<path transform="matrix(.1,0,0,-.1,0,792)" stroke-width="1" stroke-linecap="butt" stroke-miterlimit="10" stroke-linejoin="miter" fill="none" stroke="#000000" d="M3561.6 2459.2 3323.9 2131.9 3708.6 2006.9V2256.9Z"/>
<path transform="matrix(.1,0,0,-.1,0,792)" d="M1966.6 5963.5 2351.4 6088.5V6493L1966.6 6618 1728.9 6290.7" fill="#ffde66"/>
<path transform="matrix(.1,0,0,-.1,0,792)" stroke-width="1" stroke-linecap="butt" stroke-miterlimit="10" stroke-linejoin="miter" fill="none" stroke="#000000" d="M1966.6 5963.5 2351.4 6088.5V6493L1966.6 6618 1728.9 6290.7Z"/>
<path transform="matrix(.1,0,0,-.1,0,792)" d="M4274.9 4249.9 4659.6 4124.9V4529.4L4421.9 4452.2Z" fill="#5c6600"/>
<path transform="matrix(.1,0,0,-.1,0,792)" stroke-width="1" stroke-linecap="butt" stroke-miterlimit="10" stroke-linejoin="miter" fill="none" stroke="#000000" d="M4274.9 4249.9 4659.6 4124.9V4529.4L4421.9 4452.2Z"/>
<path transform="matrix(.1,0,0,-.1,0,792)" d="M4274.9 5058.9 4659.6 4933.9V5183.9L4512.7 5386.2Z" fill="#5c6600"/>
<path transform="matrix(.1,0,0,-.1,0,792)" stroke-width="1" stroke-linecap="butt" stroke-miterlimit="10" stroke-linejoin="miter" fill="none" stroke="#000000" d="M4274.9 5058.9 4659.6 4933.9V5183.9L4512.7 5386.2Z"/>
<path transform="matrix(.1,0,0,-.1,0,792)" d="M2554.4 2381.9 2316.7 2054.6 2554.4 1727.4 2939.1 1852.4V2256.9" fill="#ffde66"/>
<path transform="matrix(.1,0,0,-.1,0,792)" stroke-width="1" stroke-linecap="butt" stroke-miterlimit="10" stroke-linejoin="miter" fill="none" stroke="#000000" d="M2554.4 2381.9 2316.7 2054.6 2554.4 1727.4 2939.1 1852.4V2256.9Z"/>
<path transform="matrix(.1,0,0,-.1,0,792)" d="M2351.4 6088.5 2589.1 6165.7 2736.1 6368 2351.4 6493Z" fill="#5c6600"/>
<path transform="matrix(.1,0,0,-.1,0,792)" stroke-width="1" stroke-linecap="butt" stroke-miterlimit="10" stroke-linejoin="miter" fill="none" stroke="#000000" d="M2351.4 6088.5 2589.1 6165.7 2736.1 6368 2351.4 6493Z"/>
<path transform="matrix(.1,0,0,-.1,0,792)" d="M3981 6118 4365.7 6243V6647.5L3981 6772.5 3743.3 6445.2" fill="#ffde66"/>
<path transform="matrix(.1,0,0,-.1,0,792)" stroke-width="1" stroke-linecap="butt" stroke-miterlimit="10" stroke-linejoin="miter" fill="none" stroke="#000000" d="M3981 6118 4365.7 6243V6647.5L3981 6772.5 3743.3 6445.2Z"/>
<path transform="matrix(.1,0,0,-.1,0,792)" d="M3505.5 6118 3743.3 6445.2 3596.3 6647.5V6897.5L3211.6 7022.5 2973.8 6695.2 3120.8 6493V6243" fill="#ffffff"/>
<path transform="matrix(.1,0,0,-.1,0,792)" stroke-width="1" stroke-linecap="butt" stroke-miterlimit="10" stroke-linejoin="miter" fill="none" stroke="#000000" d="M3505.5 6118 3743.3 6445.2 3596.3 6647.5V6897.5L3211.6 7022.5 2973.8 6695.2 3120.8 6493V6243Z"/>
<path transform="matrix(.1,0,0,-.1,0,792)" d="M4365.7 5838.5 4750.4 5713.5 4897.4 5915.7 5135.1 5993V6397.5L4750.4 6522.5 4603.5 6320.2 4365.7 6243" fill="#ffffff"/>
<path transform="matrix(.1,0,0,-.1,0,792)" stroke-width="1" stroke-linecap="butt" stroke-miterlimit="10" stroke-linejoin="miter" fill="none" stroke="#000000" d="M4365.7 5838.5 4750.4 5713.5 4897.4 5915.7 5135.1 5993V6397.5L4750.4 6522.5 4603.5 6320.2 4365.7 6243Z"/>
<path transform="matrix(.1,0,0,-.1,0,792)" d="M2939.1 2256.9V1852.4L3176.9 1929.6 3323.9 2131.9Z" fill="#5c6600"/>
<path transform="matrix(.1,0,0,-.1,0,792)" stroke-width="1" stroke-linecap="butt" stroke-miterlimit="10" stroke-linejoin="miter" fill="none" stroke="#000000" d="M2939.1 2256.9V1852.4L3176.9 1929.6 3323.9 2131.9Z"/>
<path transform="matrix(.1,0,0,-.1,0,792)" d="M1547.2 2304.6 1309.5 1977.4 1694.2 1852.4V2102.4Z" fill="#5c6600"/>
<path transform="matrix(.1,0,0,-.1,0,792)" stroke-width="1" stroke-linecap="butt" stroke-miterlimit="10" stroke-linejoin="miter" fill="none" stroke="#000000" d="M1547.2 2304.6 1309.5 1977.4 1694.2 1852.4V2102.4Z"/>
<path transform="matrix(.1,0,0,-.1,0,792)" d="M1547.2 2304.6 1309.5 2631.9 924.801 2506.9V2102.4L1309.5 1977.4" fill="#ffde66"/>
<path transform="matrix(.1,0,0,-.1,0,792)" stroke-width="1" stroke-linecap="butt" stroke-miterlimit="10" stroke-linejoin="miter" fill="none" stroke="#000000" d="M1547.2 2304.6 1309.5 2631.9 924.801 2506.9V2102.4L1309.5 1977.4Z"/>
<path transform="matrix(.1,0,0,-.1,0,792)" d="M4331 2209.2 4568.8 1881.9 4953.5 2006.9V2411.4L4568.8 2536.4" fill="#ffde66"/>
<path transform="matrix(.1,0,0,-.1,0,792)" stroke-width="1" stroke-linecap="butt" stroke-miterlimit="10" stroke-linejoin="miter" fill="none" stroke="#000000" d="M4331 2209.2 4568.8 1881.9 4953.5 2006.9V2411.4L4568.8 2536.4Z"/>
<path transform="matrix(.1,0,0,-.1,0,792)" d="M4331 2209.2 4093.3 1881.9 4478 1756.9V1352.4L4862.7 1477.4 5100.5 1150.1 5338.2 1477.4 4953.5 1602.4V2006.9L4568.8 1881.9" fill="#805900"/>
<path transform="matrix(.1,0,0,-.1,0,792)" stroke-width="1" stroke-linecap="butt" stroke-miterlimit="10" stroke-linejoin="miter" fill="none" stroke="#000000" d="M4331 2209.2 4093.3 1881.9 4478 1756.9V1352.4L4862.7 1477.4 5100.5 1150.1 5338.2 1477.4 4953.5 1602.4V2006.9L4568.8 1881.9Z"/>
<path transform="matrix(.1,0,0,-.1,0,792)" d="M4365.7 6243 4603.5 6320.2 4750.4 6522.5 4365.7 6647.5Z" fill="#5c6600"/>
<path transform="matrix(.1,0,0,-.1,0,792)" stroke-width="1" stroke-linecap="butt" stroke-miterlimit="10" stroke-linejoin="miter" fill="none" stroke="#000000" d="M4365.7 6243 4603.5 6320.2 4750.4 6522.5 4365.7 6647.5Z"/>
<path transform="matrix(.1,0,0,-.1,0,792)" d="M3120.8 6243V6493L2973.8 6695.2 2736.1 6368Z" fill="#5c6600"/>
<path transform="matrix(.1,0,0,-.1,0,792)" stroke-width="1" stroke-linecap="butt" stroke-miterlimit="10" stroke-linejoin="miter" fill="none" stroke="#000000" d="M3120.8 6243V6493L2973.8 6695.2 2736.1 6368Z"/>
<path transform="matrix(.1,0,0,-.1,0,792)" d="M1491.1 5963.5 1106.4 6088.5V5683.9L1344.2 5761.2Z" fill="#5c6600"/>
<path transform="matrix(.1,0,0,-.1,0,792)" stroke-width="1" stroke-linecap="butt" stroke-miterlimit="10" stroke-linejoin="miter" fill="none" stroke="#000000" d="M1491.1 5963.5 1106.4 6088.5V5683.9L1344.2 5761.2Z"/>
<path transform="matrix(.1,0,0,-.1,0,792)" d="M1491.1 5963.5 1728.9 6290.7 1581.9 6493V6743L1197.2 6868 959.5 6540.7 1106.4 6338.5V6088.5" fill="#ffffff"/>
<path transform="matrix(.1,0,0,-.1,0,792)" stroke-width="1" stroke-linecap="butt" stroke-miterlimit="10" stroke-linejoin="miter" fill="none" stroke="#000000" d="M1491.1 5963.5 1728.9 6290.7 1581.9 6493V6743L1197.2 6868 959.5 6540.7 1106.4 6338.5V6088.5Z"/>
<path transform="matrix(.1,0,0,-.1,0,792)" d="M1491.1 5154.4 1106.4 5279.4V5029.4L1253.4 4827.2Z" fill="#5c6600"/>
<path transform="matrix(.1,0,0,-.1,0,792)" stroke-width="1" stroke-linecap="butt" stroke-miterlimit="10" stroke-linejoin="miter" fill="none" stroke="#000000" d="M1491.1 5154.4 1106.4 5279.4V5029.4L1253.4 4827.2Z"/>
<path transform="matrix(.1,0,0,-.1,0,792)" d="M3323.9 2131.9 3176.9 1929.6 2939.1 1852.4V1447.9L3323.9 1322.9 3470.8 1525.1 3708.6 1602.4V2006.9" fill="#ffffff"/>
<path transform="matrix(.1,0,0,-.1,0,792)" stroke-width="1" stroke-linecap="butt" stroke-miterlimit="10" stroke-linejoin="miter" fill="none" stroke="#000000" d="M3323.9 2131.9 3176.9 1929.6 2939.1 1852.4V1447.9L3323.9 1322.9 3470.8 1525.1 3708.6 1602.4V2006.9Z"/>
<path transform="matrix(.1,0,0,-.1,0,792)" d="M1728.9 6290.7 1966.6 6618 1581.9 6743V6493Z" fill="#5c6600"/>
<path transform="matrix(.1,0,0,-.1,0,792)" stroke-width="1" stroke-linecap="butt" stroke-miterlimit="10" stroke-linejoin="miter" fill="none" stroke="#000000" d="M1728.9 6290.7 1966.6 6618 1581.9 6743V6493Z"/>
<path transform="matrix(.1,0,0,-.1,0,792)" d="M4512.7 5386.2 4659.6 5183.9V4933.9L5044.3 4808.9 5282.1 5136.2 5135.1 5338.5V5588.5L4750.4 5713.5" fill="#ffffff"/>
<path transform="matrix(.1,0,0,-.1,0,792)" stroke-width="1" stroke-linecap="butt" stroke-miterlimit="10" stroke-linejoin="miter" fill="none" stroke="#000000" d="M4512.7 5386.2 4659.6 5183.9V4933.9L5044.3 4808.9 5282.1 5136.2 5135.1 5338.5V5588.5L4750.4 5713.5Z"/>
<path transform="matrix(.1,0,0,-.1,0,792)" d="M2316.7 2054.6 2078.9 1727.4 2463.6 1602.4V1197.9L2848.3 1322.9 3086.1 995.602 3323.9 1322.9 2939.1 1447.9V1852.4L2554.4 1727.4" fill="#805900"/>
<path transform="matrix(.1,0,0,-.1,0,792)" stroke-width="1" stroke-linecap="butt" stroke-miterlimit="10" stroke-linejoin="miter" fill="none" stroke="#000000" d="M2316.7 2054.6 2078.9 1727.4 2463.6 1602.4V1197.9L2848.3 1322.9 3086.1 995.602 3323.9 1322.9 2939.1 1447.9V1852.4L2554.4 1727.4Z"/>
<path transform="matrix(.1,0,0,-.1,0,792)" d="M2736.1 6368 2973.8 6695.2 2736.1 7022.5 2351.4 6897.5V6493" fill="#ffde66"/>
<path transform="matrix(.1,0,0,-.1,0,792)" stroke-width="1" stroke-linecap="butt" stroke-miterlimit="10" stroke-linejoin="miter" fill="none" stroke="#000000" d="M2736.1 6368 2973.8 6695.2 2736.1 7022.5 2351.4 6897.5V6493Z"/>
<path transform="matrix(.1,0,0,-.1,0,792)" d="M1400.3 4374.9 1015.6 4499.9 868.602 4297.7 630.898 4220.4V3815.9L1015.6 3690.9 1162.5 3893.2 1400.3 3970.4" fill="#ffffff"/>
<path transform="matrix(.1,0,0,-.1,0,792)" stroke-width="1" stroke-linecap="butt" stroke-miterlimit="10" stroke-linejoin="miter" fill="none" stroke="#000000" d="M1400.3 4374.9 1015.6 4499.9 868.602 4297.7 630.898 4220.4V3815.9L1015.6 3690.9 1162.5 3893.2 1400.3 3970.4Z"/>
<path transform="matrix(.1,0,0,-.1,0,792)" d="M1400.3 3970.4 1162.5 3893.2 1015.6 3690.9 1400.3 3565.9Z" fill="#5c6600"/>
<path transform="matrix(.1,0,0,-.1,0,792)" stroke-width="1" stroke-linecap="butt" stroke-miterlimit="10" stroke-linejoin="miter" fill="none" stroke="#000000" d="M1400.3 3970.4 1162.5 3893.2 1015.6 3690.9 1400.3 3565.9Z"/>
<path transform="matrix(.1,0,0,-.1,0,792)" d="M1400.3 3565.9 1015.6 3690.9 777.801 3363.7 1015.6 3036.4 1400.3 3161.4" fill="#ffde66"/>
<path transform="matrix(.1,0,0,-.1,0,792)" stroke-width="1" stroke-linecap="butt" stroke-miterlimit="10" stroke-linejoin="miter" fill="none" stroke="#000000" d="M1400.3 3565.9 1015.6 3690.9 777.801 3363.7 1015.6 3036.4 1400.3 3161.4Z"/>
<path transform="matrix(.1,0,0,-.1,0,792)" d="M4568.8 2536.4 4953.5 2411.4V2815.9L4715.7 2738.7Z" fill="#5c6600"/>
<path transform="matrix(.1,0,0,-.1,0,792)" stroke-width="1" stroke-linecap="butt" stroke-miterlimit="10" stroke-linejoin="miter" fill="none" stroke="#000000" d="M4568.8 2536.4 4953.5 2411.4V2815.9L4715.7 2738.7Z"/>
<path transform="matrix(.1,0,0,-.1,0,792)" d="M4568.8 3345.4 4953.5 3220.4V2815.9L5338.2 2940.9 5576 2613.7 5813.7 2940.9 5429 3065.9V3470.4L5044.3 3345.4 4806.6 3672.7" fill="#805900"/>
<path transform="matrix(.1,0,0,-.1,0,792)" stroke-width="1" stroke-linecap="butt" stroke-miterlimit="10" stroke-linejoin="miter" fill="none" stroke="#000000" d="M4568.8 3345.4 4953.5 3220.4V2815.9L5338.2 2940.9 5576 2613.7 5813.7 2940.9 5429 3065.9V3470.4L5044.3 3345.4 4806.6 3672.7Z"/>
<path transform="matrix(.1,0,0,-.1,0,792)" d="M3708.6 2006.9V1602.4L3946.3 1679.6 4093.3 1881.9Z" fill="#5c6600"/>
<path transform="matrix(.1,0,0,-.1,0,792)" stroke-width="1" stroke-linecap="butt" stroke-miterlimit="10" stroke-linejoin="miter" fill="none" stroke="#000000" d="M3708.6 2006.9V1602.4L3946.3 1679.6 4093.3 1881.9Z"/>
<path transform="matrix(.1,0,0,-.1,0,792)" d="M3743.3 6445.2 3981 6772.5 3596.3 6897.5V6647.5Z" fill="#5c6600"/>
<path transform="matrix(.1,0,0,-.1,0,792)" stroke-width="1" stroke-linecap="butt" stroke-miterlimit="10" stroke-linejoin="miter" fill="none" stroke="#000000" d="M3743.3 6445.2 3981 6772.5 3596.3 6897.5V6647.5Z"/>
<path transform="matrix(.1,0,0,-.1,0,792)" d="M2351.4 6493V6897.5L2113.6 6820.2 1966.6 6618Z" fill="#5c6600"/>
<path transform="matrix(.1,0,0,-.1,0,792)" stroke-width="1" stroke-linecap="butt" stroke-miterlimit="10" stroke-linejoin="miter" fill="none" stroke="#000000" d="M2351.4 6493V6897.5L2113.6 6820.2 1966.6 6618Z"/>
<path transform="matrix(.1,0,0,-.1,0,792)" d="M1309.5 1977.4 1162.5 1775.1 924.801 1697.9V1293.4L1309.5 1168.4 1456.4 1370.6 1694.2 1447.9V1852.4" fill="#ffffff"/>
<path transform="matrix(.1,0,0,-.1,0,792)" stroke-width="1" stroke-linecap="butt" stroke-miterlimit="10" stroke-linejoin="miter" fill="none" stroke="#000000" d="M1309.5 1977.4 1162.5 1775.1 924.801 1697.9V1293.4L1309.5 1168.4 1456.4 1370.6 1694.2 1447.9V1852.4Z"/>
<path transform="matrix(.1,0,0,-.1,0,792)" d="M1309.5 1977.4 924.801 2102.4V1697.9L1162.5 1775.1Z" fill="#5c6600"/>
<path transform="matrix(.1,0,0,-.1,0,792)" stroke-width="1" stroke-linecap="butt" stroke-miterlimit="10" stroke-linejoin="miter" fill="none" stroke="#000000" d="M1309.5 1977.4 924.801 2102.4V1697.9L1162.5 1775.1Z"/>
<path transform="matrix(.1,0,0,-.1,0,792)" d="M4659.6 3874.9 4806.6 3672.7 5044.3 3999.9 4659.6 4124.9Z" fill="#5c6600"/>
<path transform="matrix(.1,0,0,-.1,0,792)" stroke-width="1" stroke-linecap="butt" stroke-miterlimit="10" stroke-linejoin="miter" fill="none" stroke="#000000" d="M4659.6 3874.9 4806.6 3672.7 5044.3 3999.9 4659.6 4124.9Z"/>
<path transform="matrix(.1,0,0,-.1,0,792)" d="M4659.6 4124.9 5044.3 3999.9 5191.3 4202.2 5429 4279.4V4683.9L5044.3 4808.9 4897.4 4606.7 4659.6 4529.4" fill="#ffffff"/>
<path transform="matrix(.1,0,0,-.1,0,792)" stroke-width="1" stroke-linecap="butt" stroke-miterlimit="10" stroke-linejoin="miter" fill="none" stroke="#000000" d="M4659.6 4124.9 5044.3 3999.9 5191.3 4202.2 5429 4279.4V4683.9L5044.3 4808.9 4897.4 4606.7 4659.6 4529.4Z"/>
<path transform="matrix(.1,0,0,-.1,0,792)" d="M4659.6 4529.4 4897.4 4606.7 5044.3 4808.9 4659.6 4933.9Z" fill="#5c6600"/>
<path transform="matrix(.1,0,0,-.1,0,792)" stroke-width="1" stroke-linecap="butt" stroke-miterlimit="10" stroke-linejoin="miter" fill="none" stroke="#000000" d="M4659.6 4529.4 4897.4 4606.7 5044.3 4808.9 4659.6 4933.9Z"/>
<path transform="matrix(.1,0,0,-.1,0,792)" d="M4093.3 1881.9 3946.3 1679.6 3708.6 1602.4V1197.9L4093.3 1072.9 4240.2 1275.1 4478 1352.4V1756.9" fill="#ffffff"/>
<path transform="matrix(.1,0,0,-.1,0,792)" stroke-width="1" stroke-linecap="butt" stroke-miterlimit="10" stroke-linejoin="miter" fill="none" stroke="#000000" d="M4093.3 1881.9 3946.3 1679.6 3708.6 1602.4V1197.9L4093.3 1072.9 4240.2 1275.1 4478 1352.4V1756.9Z"/>
<path transform="matrix(.1,0,0,-.1,0,792)" d="M1694.2 1852.4V1447.9L1932 1525.1 2078.9 1727.4Z" fill="#5c6600"/>
<path transform="matrix(.1,0,0,-.1,0,792)" stroke-width="1" stroke-linecap="butt" stroke-miterlimit="10" stroke-linejoin="miter" fill="none" stroke="#000000" d="M1694.2 1852.4V1447.9L1932 1525.1 2078.9 1727.4Z"/>
<path transform="matrix(.1,0,0,-.1,0,792)" d="M1253.4 4827.2 1106.4 5029.4V5279.4L721.699 5404.4 483.898 5077.2 630.898 4874.9V4624.9L1015.6 4499.9" fill="#ffffff"/>
<path transform="matrix(.1,0,0,-.1,0,792)" stroke-width="1" stroke-linecap="butt" stroke-miterlimit="10" stroke-linejoin="miter" fill="none" stroke="#000000" d="M1253.4 4827.2 1106.4 5029.4V5279.4L721.699 5404.4 483.898 5077.2 630.898 4874.9V4624.9L1015.6 4499.9Z"/>
<path transform="matrix(.1,0,0,-.1,0,792)" d="M1966.6 6618 2113.6 6820.2 2351.4 6897.5V7302L1966.6 7427 1819.7 7224.7 1581.9 7147.5V6743" fill="#ffffff"/>
<path transform="matrix(.1,0,0,-.1,0,792)" stroke-width="1" stroke-linecap="butt" stroke-miterlimit="10" stroke-linejoin="miter" fill="none" stroke="#000000" d="M1966.6 6618 2113.6 6820.2 2351.4 6897.5V7302L1966.6 7427 1819.7 7224.7 1581.9 7147.5V6743Z"/>
<path transform="matrix(.1,0,0,-.1,0,792)" d="M4365.7 6647.5V7052L4128 6974.7 3981 6772.5Z" fill="#5c6600"/>
<path transform="matrix(.1,0,0,-.1,0,792)" stroke-width="1" stroke-linecap="butt" stroke-miterlimit="10" stroke-linejoin="miter" fill="none" stroke="#000000" d="M4365.7 6647.5V7052L4128 6974.7 3981 6772.5Z"/>
<path transform="matrix(.1,0,0,-.1,0,792)" d="M4365.7 6647.5 4750.4 6522.5 4988.2 6849.7 4750.4 7177 4365.7 7052" fill="#ffde66"/>
<path transform="matrix(.1,0,0,-.1,0,792)" stroke-width="1" stroke-linecap="butt" stroke-miterlimit="10" stroke-linejoin="miter" fill="none" stroke="#000000" d="M4365.7 6647.5 4750.4 6522.5 4988.2 6849.7 4750.4 7177 4365.7 7052Z"/>
<path transform="matrix(.1,0,0,-.1,0,792)" d="M4750.4 6522.5 5135.1 6397.5V6647.5L4988.2 6849.7Z" fill="#5c6600"/>
<path transform="matrix(.1,0,0,-.1,0,792)" stroke-width="1" stroke-linecap="butt" stroke-miterlimit="10" stroke-linejoin="miter" fill="none" stroke="#000000" d="M4750.4 6522.5 5135.1 6397.5V6647.5L4988.2 6849.7Z"/>
<path transform="matrix(.1,0,0,-.1,0,792)" d="M4750.4 5713.5 5135.1 5588.5V5993L4897.4 5915.7Z" fill="#5c6600"/>
<path transform="matrix(.1,0,0,-.1,0,792)" stroke-width="1" stroke-linecap="butt" stroke-miterlimit="10" stroke-linejoin="miter" fill="none" stroke="#000000" d="M4750.4 5713.5 5135.1 5588.5V5993L4897.4 5915.7Z"/>
<path transform="matrix(.1,0,0,-.1,0,792)" d="M2078.9 1727.4 1932 1525.1 1694.2 1447.9V1043.4L2078.9 918.398 2225.8 1120.6 2463.6 1197.9V1602.4" fill="#ffffff"/>
<path transform="matrix(.1,0,0,-.1,0,792)" stroke-width="1" stroke-linecap="butt" stroke-miterlimit="10" stroke-linejoin="miter" fill="none" stroke="#000000" d="M2078.9 1727.4 1932 1525.1 1694.2 1447.9V1043.4L2078.9 918.398 2225.8 1120.6 2463.6 1197.9V1602.4Z"/>
<path transform="matrix(.1,0,0,-.1,0,792)" d="M2973.8 6695.2 3211.6 7022.5 2826.9 7147.5V7552L2442.2 7427 2204.4 7754.2 1966.6 7427 2351.4 7302V6897.5L2736.1 7022.5" fill="#805900"/>
<path transform="matrix(.1,0,0,-.1,0,792)" stroke-width="1" stroke-linecap="butt" stroke-miterlimit="10" stroke-linejoin="miter" fill="none" stroke="#000000" d="M2973.8 6695.2 3211.6 7022.5 2826.9 7147.5V7552L2442.2 7427 2204.4 7754.2 1966.6 7427 2351.4 7302V6897.5L2736.1 7022.5Z"/>
<path transform="matrix(.1,0,0,-.1,0,792)" d="M4806.6 3672.7 5044.3 3345.4 5429 3470.4V3874.9L5044.3 3999.9" fill="#ffde66"/>
<path transform="matrix(.1,0,0,-.1,0,792)" stroke-width="1" stroke-linecap="butt" stroke-miterlimit="10" stroke-linejoin="miter" fill="none" stroke="#000000" d="M4806.6 3672.7 5044.3 3345.4 5429 3470.4V3874.9L5044.3 3999.9Z"/>
<path transform="matrix(.1,0,0,-.1,0,792)" d="M1581.9 6743V7147.5L1344.2 7070.2 1197.2 6868Z" fill="#5c6600"/>
<path transform="matrix(.1,0,0,-.1,0,792)" stroke-width="1" stroke-linecap="butt" stroke-miterlimit="10" stroke-linejoin="miter" fill="none" stroke="#000000" d="M1581.9 6743V7147.5L1344.2 7070.2 1197.2 6868Z"/>
<path transform="matrix(.1,0,0,-.1,0,792)" d="M3981 6772.5 4128 6974.7 4365.7 7052V7456.5L3981 7581.5 3834.1 7379.2 3596.3 7302V6897.5" fill="#ffffff"/>
<path transform="matrix(.1,0,0,-.1,0,792)" stroke-width="1" stroke-linecap="butt" stroke-miterlimit="10" stroke-linejoin="miter" fill="none" stroke="#000000" d="M3981 6772.5 4128 6974.7 4365.7 7052V7456.5L3981 7581.5 3834.1 7379.2 3596.3 7302V6897.5Z"/>
<path transform="matrix(.1,0,0,-.1,0,792)" d="M1106.4 6338.5 959.5 6540.7 721.699 6213.5 1106.4 6088.5Z" fill="#5c6600"/>
<path transform="matrix(.1,0,0,-.1,0,792)" stroke-width="1" stroke-linecap="butt" stroke-miterlimit="10" stroke-linejoin="miter" fill="none" stroke="#000000" d="M1106.4 6338.5 959.5 6540.7 721.699 6213.5 1106.4 6088.5Z"/>
<path transform="matrix(.1,0,0,-.1,0,792)" d="M1106.4 6088.5 721.699 6213.5 574.699 6011.2 337 5933.9V5529.4L721.699 5404.4 868.602 5606.7 1106.4 5683.9" fill="#ffffff"/>
<path transform="matrix(.1,0,0,-.1,0,792)" stroke-width="1" stroke-linecap="butt" stroke-miterlimit="10" stroke-linejoin="miter" fill="none" stroke="#000000" d="M1106.4 6088.5 721.699 6213.5 574.699 6011.2 337 5933.9V5529.4L721.699 5404.4 868.602 5606.7 1106.4 5683.9Z"/>
<path transform="matrix(.1,0,0,-.1,0,792)" d="M1106.4 5683.9 868.602 5606.7 721.699 5404.4 1106.4 5279.4Z" fill="#5c6600"/>
<path transform="matrix(.1,0,0,-.1,0,792)" stroke-width="1" stroke-linecap="butt" stroke-miterlimit="10" stroke-linejoin="miter" fill="none" stroke="#000000" d="M1106.4 5683.9 868.602 5606.7 721.699 5404.4 1106.4 5279.4Z"/>
<path transform="matrix(.1,0,0,-.1,0,792)" d="M3708.6 1602.4 3470.8 1525.1 3323.9 1322.9 3708.6 1197.9Z" fill="#5c6600"/>
<path transform="matrix(.1,0,0,-.1,0,792)" stroke-width="1" stroke-linecap="butt" stroke-miterlimit="10" stroke-linejoin="miter" fill="none" stroke="#000000" d="M3708.6 1602.4 3470.8 1525.1 3323.9 1322.9 3708.6 1197.9Z"/>
<path transform="matrix(.1,0,0,-.1,0,792)" d="M1197.2 6868 812.5 6993V7397.5L427.801 7272.5 190 7599.7-47.6992 7272.5 337 7147.5V6743L721.699 6868 959.5 6540.7" fill="#805900"/>
<path transform="matrix(.1,0,0,-.1,0,792)" stroke-width="1" stroke-linecap="butt" stroke-miterlimit="10" stroke-linejoin="miter" fill="none" stroke="#000000" d="M1197.2 6868 812.5 6993V7397.5L427.801 7272.5 190 7599.7-47.6992 7272.5 337 7147.5V6743L721.699 6868 959.5 6540.7Z"/>
<path transform="matrix(.1,0,0,-.1,0,792)" d="M1197.2 6868 1344.2 7070.2 1581.9 7147.5V7552L1197.2 7677 1050.3 7474.7 812.5 7397.5V6993" fill="#ffffff"/>
<path transform="matrix(.1,0,0,-.1,0,792)" stroke-width="1" stroke-linecap="butt" stroke-miterlimit="10" stroke-linejoin="miter" fill="none" stroke="#000000" d="M1197.2 6868 1344.2 7070.2 1581.9 7147.5V7552L1197.2 7677 1050.3 7474.7 812.5 7397.5V6993Z"/>
<path transform="matrix(.1,0,0,-.1,0,792)" d="M3596.3 6897.5V7302L3358.5 7224.7 3211.6 7022.5Z" fill="#5c6600"/>
<path transform="matrix(.1,0,0,-.1,0,792)" stroke-width="1" stroke-linecap="butt" stroke-miterlimit="10" stroke-linejoin="miter" fill="none" stroke="#000000" d="M3596.3 6897.5V7302L3358.5 7224.7 3211.6 7022.5Z"/>
<path transform="matrix(.1,0,0,-.1,0,792)" d="M1015.6 4499.9 630.898 4624.9V4220.4L868.602 4297.7Z" fill="#5c6600"/>
<path transform="matrix(.1,0,0,-.1,0,792)" stroke-width="1" stroke-linecap="butt" stroke-miterlimit="10" stroke-linejoin="miter" fill="none" stroke="#000000" d="M1015.6 4499.9 630.898 4624.9V4220.4L868.602 4297.7Z"/>
<path transform="matrix(.1,0,0,-.1,0,792)" d="M1015.6 3690.9 630.898 3815.9V3565.9L777.801 3363.7Z" fill="#5c6600"/>
<path transform="matrix(.1,0,0,-.1,0,792)" stroke-width="1" stroke-linecap="butt" stroke-miterlimit="10" stroke-linejoin="miter" fill="none" stroke="#000000" d="M1015.6 3690.9 630.898 3815.9V3565.9L777.801 3363.7Z"/>
<path transform="matrix(.1,0,0,-.1,0,792)" d="M4953.5 1602.4 5338.2 1477.4 5485.2 1679.6 5722.9 1756.9V2161.4L5338.2 2286.4 5191.3 2084.2 4953.5 2006.9" fill="#ffffff"/>
<path transform="matrix(.1,0,0,-.1,0,792)" stroke-width="1" stroke-linecap="butt" stroke-miterlimit="10" stroke-linejoin="miter" fill="none" stroke="#000000" d="M4953.5 1602.4 5338.2 1477.4 5485.2 1679.6 5722.9 1756.9V2161.4L5338.2 2286.4 5191.3 2084.2 4953.5 2006.9Z"/>
<path transform="matrix(.1,0,0,-.1,0,792)" d="M4953.5 2006.9 5191.3 2084.2 5338.2 2286.4 4953.5 2411.4Z" fill="#5c6600"/>
<path transform="matrix(.1,0,0,-.1,0,792)" stroke-width="1" stroke-linecap="butt" stroke-miterlimit="10" stroke-linejoin="miter" fill="none" stroke="#000000" d="M4953.5 2006.9 5191.3 2084.2 5338.2 2286.4 4953.5 2411.4Z"/>
<path transform="matrix(.1,0,0,-.1,0,792)" d="M4953.5 2411.4 5338.2 2286.4 5576 2613.7 5338.2 2940.9 4953.5 2815.9" fill="#ffde66"/>
<path transform="matrix(.1,0,0,-.1,0,792)" stroke-width="1" stroke-linecap="butt" stroke-miterlimit="10" stroke-linejoin="miter" fill="none" stroke="#000000" d="M4953.5 2411.4 5338.2 2286.4 5576 2613.7 5338.2 2940.9 4953.5 2815.9Z"/>
<path transform="matrix(.1,0,0,-.1,0,792)" d="M4862.7 1477.4 4478 1352.4V947.898L4862.7 822.898 5100.5 1150.1" fill="#ffde66"/>
<path transform="matrix(.1,0,0,-.1,0,792)" stroke-width="1" stroke-linecap="butt" stroke-miterlimit="10" stroke-linejoin="miter" fill="none" stroke="#000000" d="M4862.7 1477.4 4478 1352.4V947.898L4862.7 822.898 5100.5 1150.1Z"/>
<path transform="matrix(.1,0,0,-.1,0,792)" d="M1694.2 1447.9 1456.4 1370.6 1309.5 1168.4 1694.2 1043.4Z" fill="#5c6600"/>
<path transform="matrix(.1,0,0,-.1,0,792)" stroke-width="1" stroke-linecap="butt" stroke-miterlimit="10" stroke-linejoin="miter" fill="none" stroke="#000000" d="M1694.2 1447.9 1456.4 1370.6 1309.5 1168.4 1694.2 1043.4Z"/>
<path transform="matrix(.1,0,0,-.1,0,792)" d="M4988.2 6849.7 5226 7177 4841.3 7302V7706.5L4456.5 7581.5 4218.8 7908.7 3981 7581.5 4365.7 7456.5V7052L4750.4 7177" fill="#805900"/>
<path transform="matrix(.1,0,0,-.1,0,792)" stroke-width="1" stroke-linecap="butt" stroke-miterlimit="10" stroke-linejoin="miter" fill="none" stroke="#000000" d="M4988.2 6849.7 5226 7177 4841.3 7302V7706.5L4456.5 7581.5 4218.8 7908.7 3981 7581.5 4365.7 7456.5V7052L4750.4 7177Z"/>
<path transform="matrix(.1,0,0,-.1,0,792)" d="M4988.2 6849.7 5135.1 6647.5V6397.5L5519.9 6272.5 5757.6 6599.7 5610.7 6802V7052L5226 7177" fill="#ffffff"/>
<path transform="matrix(.1,0,0,-.1,0,792)" stroke-width="1" stroke-linecap="butt" stroke-miterlimit="10" stroke-linejoin="miter" fill="none" stroke="#000000" d="M4988.2 6849.7 5135.1 6647.5V6397.5L5519.9 6272.5 5757.6 6599.7 5610.7 6802V7052L5226 7177Z"/>
<path transform="matrix(.1,0,0,-.1,0,792)" d="M959.5 6540.7 721.699 6868 337 6743V6338.5L721.699 6213.5" fill="#ffde66"/>
<path transform="matrix(.1,0,0,-.1,0,792)" stroke-width="1" stroke-linecap="butt" stroke-miterlimit="10" stroke-linejoin="miter" fill="none" stroke="#000000" d="M959.5 6540.7 721.699 6868 337 6743V6338.5L721.699 6213.5Z"/>
<path transform="matrix(.1,0,0,-.1,0,792)" d="M3211.6 7022.5 3358.5 7224.7 3596.3 7302V7706.5L3211.6 7831.5 3064.6 7629.2 2826.9 7552V7147.5" fill="#ffffff"/>
<path transform="matrix(.1,0,0,-.1,0,792)" stroke-width="1" stroke-linecap="butt" stroke-miterlimit="10" stroke-linejoin="miter" fill="none" stroke="#000000" d="M3211.6 7022.5 3358.5 7224.7 3596.3 7302V7706.5L3211.6 7831.5 3064.6 7629.2 2826.9 7552V7147.5Z"/>
<path transform="matrix(.1,0,0,-.1,0,792)" d="M924.801 2911.4 540.102 3036.4 393.102 2834.2 155.301 2756.9V2352.4L540.102 2227.4 687 2429.6 924.801 2506.9" fill="#ffffff"/>
<path transform="matrix(.1,0,0,-.1,0,792)" stroke-width="1" stroke-linecap="butt" stroke-miterlimit="10" stroke-linejoin="miter" fill="none" stroke="#000000" d="M924.801 2911.4 540.102 3036.4 393.102 2834.2 155.301 2756.9V2352.4L540.102 2227.4 687 2429.6 924.801 2506.9Z"/>
<path transform="matrix(.1,0,0,-.1,0,792)" d="M924.801 2506.9 687 2429.6 540.102 2227.4 924.801 2102.4Z" fill="#5c6600"/>
<path transform="matrix(.1,0,0,-.1,0,792)" stroke-width="1" stroke-linecap="butt" stroke-miterlimit="10" stroke-linejoin="miter" fill="none" stroke="#000000" d="M924.801 2506.9 687 2429.6 540.102 2227.4 924.801 2102.4Z"/>
<path transform="matrix(.1,0,0,-.1,0,792)" d="M924.801 2102.4 540.102 2227.4 302.301 1900.1 540.102 1572.9 924.801 1697.9" fill="#ffde66"/>
<path transform="matrix(.1,0,0,-.1,0,792)" stroke-width="1" stroke-linecap="butt" stroke-miterlimit="10" stroke-linejoin="miter" fill="none" stroke="#000000" d="M924.801 2102.4 540.102 2227.4 302.301 1900.1 540.102 1572.9 924.801 1697.9Z"/>
<path transform="matrix(.1,0,0,-.1,0,792)" d="M924.801 1697.9 540.102 1572.9 302.301 1900.1 64.5 1572.9 449.199 1447.9V1043.4L834 1168.4 1071.7 841.102 1309.5 1168.4 924.801 1293.4" fill="#805900"/>
<path transform="matrix(.1,0,0,-.1,0,792)" stroke-width="1" stroke-linecap="butt" stroke-miterlimit="10" stroke-linejoin="miter" fill="none" stroke="#000000" d="M924.801 1697.9 540.102 1572.9 302.301 1900.1 64.5 1572.9 449.199 1447.9V1043.4L834 1168.4 1071.7 841.102 1309.5 1168.4 924.801 1293.4Z"/>
<path transform="matrix(.1,0,0,-.1,0,792)" d="M5044.3 3999.9 5429 3874.9V4279.4L5191.3 4202.2Z" fill="#5c6600"/>
<path transform="matrix(.1,0,0,-.1,0,792)" stroke-width="1" stroke-linecap="butt" stroke-miterlimit="10" stroke-linejoin="miter" fill="none" stroke="#000000" d="M5044.3 3999.9 5429 3874.9V4279.4L5191.3 4202.2Z"/>
<path transform="matrix(.1,0,0,-.1,0,792)" d="M5044.3 4808.9 5429 4683.9V4279.4L5813.7 4404.4 6051.5 4077.2 6289.3 4404.4 5904.6 4529.4V4933.9L5519.9 4808.9 5282.1 5136.2" fill="#805900"/>
<path transform="matrix(.1,0,0,-.1,0,792)" stroke-width="1" stroke-linecap="butt" stroke-miterlimit="10" stroke-linejoin="miter" fill="none" stroke="#000000" d="M5044.3 4808.9 5429 4683.9V4279.4L5813.7 4404.4 6051.5 4077.2 6289.3 4404.4 5904.6 4529.4V4933.9L5519.9 4808.9 5282.1 5136.2Z"/>
<path transform="matrix(.1,0,0,-.1,0,792)" d="M4478 1352.4 4240.2 1275.1 4093.3 1072.9 4478 947.898Z" fill="#5c6600"/>
<path transform="matrix(.1,0,0,-.1,0,792)" stroke-width="1" stroke-linecap="butt" stroke-miterlimit="10" stroke-linejoin="miter" fill="none" stroke="#000000" d="M4478 1352.4 4240.2 1275.1 4093.3 1072.9 4478 947.898Z"/>
<path transform="matrix(.1,0,0,-.1,0,792)" d="M2848.3 1322.9 2463.6 1197.9V793.398L2848.3 668.398 3086.1 995.602" fill="#ffde66"/>
<path transform="matrix(.1,0,0,-.1,0,792)" stroke-width="1" stroke-linecap="butt" stroke-miterlimit="10" stroke-linejoin="miter" fill="none" stroke="#000000" d="M2848.3 1322.9 2463.6 1197.9V793.398L2848.3 668.398 3086.1 995.602Z"/>
<path transform="matrix(.1,0,0,-.1,0,792)" d="M3323.9 1322.9 3086.1 995.602 3233 793.398V543.398L3617.7 418.398 3855.5 745.602 3708.6 947.898V1197.9" fill="#ffffff"/>
<path transform="matrix(.1,0,0,-.1,0,792)" stroke-width="1" stroke-linecap="butt" stroke-miterlimit="10" stroke-linejoin="miter" fill="none" stroke="#000000" d="M3323.9 1322.9 3086.1 995.602 3233 793.398V543.398L3617.7 418.398 3855.5 745.602 3708.6 947.898V1197.9Z"/>
<path transform="matrix(.1,0,0,-.1,0,792)" d="M1581.9 7147.5 1819.7 7224.7 1966.6 7427 1581.9 7552Z" fill="#5c6600"/>
<path transform="matrix(.1,0,0,-.1,0,792)" stroke-width="1" stroke-linecap="butt" stroke-miterlimit="10" stroke-linejoin="miter" fill="none" stroke="#000000" d="M1581.9 7147.5 1819.7 7224.7 1966.6 7427 1581.9 7552Z"/>
<path transform="matrix(.1,0,0,-.1,0,792)" d="M5135.1 5338.5 5282.1 5136.2 5519.9 5463.5 5135.1 5588.5Z" fill="#5c6600"/>
<path transform="matrix(.1,0,0,-.1,0,792)" stroke-width="1" stroke-linecap="butt" stroke-miterlimit="10" stroke-linejoin="miter" fill="none" stroke="#000000" d="M5135.1 5338.5 5282.1 5136.2 5519.9 5463.5 5135.1 5588.5Z"/>
<path transform="matrix(.1,0,0,-.1,0,792)" d="M5135.1 5588.5 5519.9 5463.5 5666.8 5665.7 5904.6 5743V6147.5L5519.9 6272.5 5372.9 6070.2 5135.1 5993" fill="#ffffff"/>
<path transform="matrix(.1,0,0,-.1,0,792)" stroke-width="1" stroke-linecap="butt" stroke-miterlimit="10" stroke-linejoin="miter" fill="none" stroke="#000000" d="M5135.1 5588.5 5519.9 5463.5 5666.8 5665.7 5904.6 5743V6147.5L5519.9 6272.5 5372.9 6070.2 5135.1 5993Z"/>
<path transform="matrix(.1,0,0,-.1,0,792)" d="M5135.1 5993 5372.9 6070.2 5519.9 6272.5 5135.1 6397.5Z" fill="#5c6600"/>
<path transform="matrix(.1,0,0,-.1,0,792)" stroke-width="1" stroke-linecap="butt" stroke-miterlimit="10" stroke-linejoin="miter" fill="none" stroke="#000000" d="M5135.1 5993 5372.9 6070.2 5519.9 6272.5 5135.1 6397.5Z"/>
<path transform="matrix(.1,0,0,-.1,0,792)" d="M2463.6 1197.9 2225.8 1120.6 2078.9 918.398 2463.6 793.398Z" fill="#5c6600"/>
<path transform="matrix(.1,0,0,-.1,0,792)" stroke-width="1" stroke-linecap="butt" stroke-miterlimit="10" stroke-linejoin="miter" fill="none" stroke="#000000" d="M2463.6 1197.9 2225.8 1120.6 2078.9 918.398 2463.6 793.398Z"/>
<path transform="matrix(.1,0,0,-.1,0,792)" d="M3708.6 1197.9V947.898L3855.5 745.602 4093.3 1072.9Z" fill="#5c6600"/>
<path transform="matrix(.1,0,0,-.1,0,792)" stroke-width="1" stroke-linecap="butt" stroke-miterlimit="10" stroke-linejoin="miter" fill="none" stroke="#000000" d="M3708.6 1197.9V947.898L3855.5 745.602 4093.3 1072.9Z"/>
<path transform="matrix(.1,0,0,-.1,0,792)" d="M777.801 3363.7 630.898 3565.9V3815.9L246.199 3940.9 8.39844 3613.7 155.301 3411.4V3161.4L540.102 3036.4" fill="#ffffff"/>
<path transform="matrix(.1,0,0,-.1,0,792)" stroke-width="1" stroke-linecap="butt" stroke-miterlimit="10" stroke-linejoin="miter" fill="none" stroke="#000000" d="M777.801 3363.7 630.898 3565.9V3815.9L246.199 3940.9 8.39844 3613.7 155.301 3411.4V3161.4L540.102 3036.4Z"/>
<path transform="matrix(.1,0,0,-.1,0,792)" d="M834 1168.4 449.199 1043.4V638.898L834 513.898 1071.7 841.102" fill="#ffde66"/>
<path transform="matrix(.1,0,0,-.1,0,792)" stroke-width="1" stroke-linecap="butt" stroke-miterlimit="10" stroke-linejoin="miter" fill="none" stroke="#000000" d="M834 1168.4 449.199 1043.4V638.898L834 513.898 1071.7 841.102Z"/>
<path transform="matrix(.1,0,0,-.1,0,792)" d="M1309.5 1168.4 1071.7 841.102 1218.7 638.898V388.898L1603.4 263.898 1841.1 591.102 1694.2 793.398V1043.4" fill="#ffffff"/>
<path transform="matrix(.1,0,0,-.1,0,792)" stroke-width="1" stroke-linecap="butt" stroke-miterlimit="10" stroke-linejoin="miter" fill="none" stroke="#000000" d="M1309.5 1168.4 1071.7 841.102 1218.7 638.898V388.898L1603.4 263.898 1841.1 591.102 1694.2 793.398V1043.4Z"/>
<path transform="matrix(.1,0,0,-.1,0,792)" d="M5100.5 1150.1 5247.4 947.898V697.898L5632.1 572.898 5869.9 900.102 5722.9 1102.4V1352.4L5338.2 1477.4" fill="#ffffff"/>
<path transform="matrix(.1,0,0,-.1,0,792)" stroke-width="1" stroke-linecap="butt" stroke-miterlimit="10" stroke-linejoin="miter" fill="none" stroke="#000000" d="M5100.5 1150.1 5247.4 947.898V697.898L5632.1 572.898 5869.9 900.102 5722.9 1102.4V1352.4L5338.2 1477.4Z"/>
<path transform="matrix(.1,0,0,-.1,0,792)" d="M5100.5 1150.1 4862.7 822.898 5247.4 697.898V947.898Z" fill="#5c6600"/>
<path transform="matrix(.1,0,0,-.1,0,792)" stroke-width="1" stroke-linecap="butt" stroke-miterlimit="10" stroke-linejoin="miter" fill="none" stroke="#000000" d="M5100.5 1150.1 4862.7 822.898 5247.4 697.898V947.898Z"/>
<path transform="matrix(.1,0,0,-.1,0,792)" d="M4841.3 7302 5226 7177 5372.9 7379.2 5610.7 7456.5V7861L5226 7986 5079 7783.7 4841.3 7706.5" fill="#ffffff"/>
<path transform="matrix(.1,0,0,-.1,0,792)" stroke-width="1" stroke-linecap="butt" stroke-miterlimit="10" stroke-linejoin="miter" fill="none" stroke="#000000" d="M4841.3 7302 5226 7177 5372.9 7379.2 5610.7 7456.5V7861L5226 7986 5079 7783.7 4841.3 7706.5Z"/>
<path transform="matrix(.1,0,0,-.1,0,792)" d="M3596.3 7302 3834.1 7379.2 3981 7581.5 3596.3 7706.5Z" fill="#5c6600"/>
<path transform="matrix(.1,0,0,-.1,0,792)" stroke-width="1" stroke-linecap="butt" stroke-miterlimit="10" stroke-linejoin="miter" fill="none" stroke="#000000" d="M3596.3 7302 3834.1 7379.2 3981 7581.5 3596.3 7706.5Z"/>
<path transform="matrix(.1,0,0,-.1,0,792)" d="M5226 7177 5610.7 7052V7456.5L5372.9 7379.2Z" fill="#5c6600"/>
<path transform="matrix(.1,0,0,-.1,0,792)" stroke-width="1" stroke-linecap="butt" stroke-miterlimit="10" stroke-linejoin="miter" fill="none" stroke="#000000" d="M5226 7177 5610.7 7052V7456.5L5372.9 7379.2Z"/>
<path transform="matrix(.1,0,0,-.1,0,792)" d="M721.699 6213.5 337 6338.5V5933.9L574.699 6011.2Z" fill="#5c6600"/>
<path transform="matrix(.1,0,0,-.1,0,792)" stroke-width="1" stroke-linecap="butt" stroke-miterlimit="10" stroke-linejoin="miter" fill="none" stroke="#000000" d="M721.699 6213.5 337 6338.5V5933.9L574.699 6011.2Z"/>
<path transform="matrix(.1,0,0,-.1,0,792)" d="M721.699 5404.4 337 5529.4V5933.9L-47.6992 5808.9-285.5 6136.2-523.301 5808.9-138.5 5683.9V5279.4L246.199 5404.4 483.898 5077.2" fill="#805900"/>
<path transform="matrix(.1,0,0,-.1,0,792)" stroke-width="1" stroke-linecap="butt" stroke-miterlimit="10" stroke-linejoin="miter" fill="none" stroke="#000000" d="M721.699 5404.4 337 5529.4V5933.9L-47.6992 5808.9-285.5 6136.2-523.301 5808.9-138.5 5683.9V5279.4L246.199 5404.4 483.898 5077.2Z"/>
<path transform="matrix(.1,0,0,-.1,0,792)" d="M4093.3 1072.9 3855.5 745.602 4093.3 418.398 4478 543.398V947.898" fill="#ffde66"/>
<path transform="matrix(.1,0,0,-.1,0,792)" stroke-width="1" stroke-linecap="butt" stroke-miterlimit="10" stroke-linejoin="miter" fill="none" stroke="#000000" d="M4093.3 1072.9 3855.5 745.602 4093.3 418.398 4478 543.398V947.898Z"/>
<path transform="matrix(.1,0,0,-.1,0,792)" d="M1694.2 1043.4V793.398L1841.1 591.102 2078.9 918.398Z" fill="#5c6600"/>
<path transform="matrix(.1,0,0,-.1,0,792)" stroke-width="1" stroke-linecap="butt" stroke-miterlimit="10" stroke-linejoin="miter" fill="none" stroke="#000000" d="M1694.2 1043.4V793.398L1841.1 591.102 2078.9 918.398Z"/>
<path transform="matrix(.1,0,0,-.1,0,792)" d="M5282.1 5136.2 5519.9 4808.9 5904.6 4933.9V5338.5L5519.9 5463.5" fill="#ffde66"/>
<path transform="matrix(.1,0,0,-.1,0,792)" stroke-width="1" stroke-linecap="butt" stroke-miterlimit="10" stroke-linejoin="miter" fill="none" stroke="#000000" d="M5282.1 5136.2 5519.9 4808.9 5904.6 4933.9V5338.5L5519.9 5463.5Z"/>
<path transform="matrix(.1,0,0,-.1,0,792)" d="M812.5 7397.5V7802L427.801 7927 190 7599.7 427.801 7272.5" fill="#ffde66"/>
<path transform="matrix(.1,0,0,-.1,0,792)" stroke-width="1" stroke-linecap="butt" stroke-miterlimit="10" stroke-linejoin="miter" fill="none" stroke="#000000" d="M812.5 7397.5V7802L427.801 7927 190 7599.7 427.801 7272.5Z"/>
<path transform="matrix(.1,0,0,-.1,0,792)" d="M812.5 7397.5 1050.3 7474.7 1197.2 7677 812.5 7802Z" fill="#5c6600"/>
<path transform="matrix(.1,0,0,-.1,0,792)" stroke-width="1" stroke-linecap="butt" stroke-miterlimit="10" stroke-linejoin="miter" fill="none" stroke="#000000" d="M812.5 7397.5 1050.3 7474.7 1197.2 7677 812.5 7802Z"/>
<path transform="matrix(.1,0,0,-.1,0,792)" d="M3086.1 995.602 2848.3 668.398 3233 543.398V793.398Z" fill="#5c6600"/>
<path transform="matrix(.1,0,0,-.1,0,792)" stroke-width="1" stroke-linecap="butt" stroke-miterlimit="10" stroke-linejoin="miter" fill="none" stroke="#000000" d="M3086.1 995.602 2848.3 668.398 3233 543.398V793.398Z"/>
<path transform="matrix(.1,0,0,-.1,0,792)" d="M2442.2 7427 2826.9 7552V7956.5L2442.2 8081.5 2204.4 7754.2" fill="#ffde66"/>
<path transform="matrix(.1,0,0,-.1,0,792)" stroke-width="1" stroke-linecap="butt" stroke-miterlimit="10" stroke-linejoin="miter" fill="none" stroke="#000000" d="M2442.2 7427 2826.9 7552V7956.5L2442.2 8081.5 2204.4 7754.2Z"/>
<path transform="matrix(.1,0,0,-.1,0,792)" d="M1966.6 7427 2204.4 7754.2 2057.5 7956.5V8206.5L1672.8 8331.5 1435 8004.2 1581.9 7802V7552" fill="#ffffff"/>
<path transform="matrix(.1,0,0,-.1,0,792)" stroke-width="1" stroke-linecap="butt" stroke-miterlimit="10" stroke-linejoin="miter" fill="none" stroke="#000000" d="M1966.6 7427 2204.4 7754.2 2057.5 7956.5V8206.5L1672.8 8331.5 1435 8004.2 1581.9 7802V7552Z"/>
<path transform="matrix(.1,0,0,-.1,0,792)" d="M630.898 4874.9 483.898 5077.2 246.199 4749.9 630.898 4624.9Z" fill="#5c6600"/>
<path transform="matrix(.1,0,0,-.1,0,792)" stroke-width="1" stroke-linecap="butt" stroke-miterlimit="10" stroke-linejoin="miter" fill="none" stroke="#000000" d="M630.898 4874.9 483.898 5077.2 246.199 4749.9 630.898 4624.9Z"/>
<path transform="matrix(.1,0,0,-.1,0,792)" d="M630.898 4624.9 246.199 4749.9 99.1992 4547.7-138.5 4470.4V4065.9L246.199 3940.9 393.102 4143.2 630.898 4220.4" fill="#ffffff"/>
<path transform="matrix(.1,0,0,-.1,0,792)" stroke-width="1" stroke-linecap="butt" stroke-miterlimit="10" stroke-linejoin="miter" fill="none" stroke="#000000" d="M630.898 4624.9 246.199 4749.9 99.1992 4547.7-138.5 4470.4V4065.9L246.199 3940.9 393.102 4143.2 630.898 4220.4Z"/>
<path transform="matrix(.1,0,0,-.1,0,792)" d="M630.898 4220.4 393.102 4143.2 246.199 3940.9 630.898 3815.9Z" fill="#5c6600"/>
<path transform="matrix(.1,0,0,-.1,0,792)" stroke-width="1" stroke-linecap="butt" stroke-miterlimit="10" stroke-linejoin="miter" fill="none" stroke="#000000" d="M630.898 4220.4 393.102 4143.2 246.199 3940.9 630.898 3815.9Z"/>
<path transform="matrix(.1,0,0,-.1,0,792)" d="M5338.2 1477.4 5722.9 1352.4V1756.9L5485.2 1679.6Z" fill="#5c6600"/>
<path transform="matrix(.1,0,0,-.1,0,792)" stroke-width="1" stroke-linecap="butt" stroke-miterlimit="10" stroke-linejoin="miter" fill="none" stroke="#000000" d="M5338.2 1477.4 5722.9 1352.4V1756.9L5485.2 1679.6Z"/>
<path transform="matrix(.1,0,0,-.1,0,792)" d="M5338.2 2286.4 5722.9 2161.4V2411.4L5576 2613.7Z" fill="#5c6600"/>
<path transform="matrix(.1,0,0,-.1,0,792)" stroke-width="1" stroke-linecap="butt" stroke-miterlimit="10" stroke-linejoin="miter" fill="none" stroke="#000000" d="M5338.2 2286.4 5722.9 2161.4V2411.4L5576 2613.7Z"/>
<path transform="matrix(.1,0,0,-.1,0,792)" d="M4478 947.898V543.398L4715.7 620.602 4862.7 822.898Z" fill="#5c6600"/>
<path transform="matrix(.1,0,0,-.1,0,792)" stroke-width="1" stroke-linecap="butt" stroke-miterlimit="10" stroke-linejoin="miter" fill="none" stroke="#000000" d="M4478 947.898V543.398L4715.7 620.602 4862.7 822.898Z"/>
<path transform="matrix(.1,0,0,-.1,0,792)" d="M2078.9 918.398 1841.1 591.102 2078.9 263.898 2463.6 388.898V793.398" fill="#ffde66"/>
<path transform="matrix(.1,0,0,-.1,0,792)" stroke-width="1" stroke-linecap="butt" stroke-miterlimit="10" stroke-linejoin="miter" fill="none" stroke="#000000" d="M2078.9 918.398 1841.1 591.102 2078.9 263.898 2463.6 388.898V793.398Z"/>
<path transform="matrix(.1,0,0,-.1,0,792)" d="M2826.9 7552 3064.6 7629.2 3211.6 7831.5 2826.9 7956.5Z" fill="#5c6600"/>
<path transform="matrix(.1,0,0,-.1,0,792)" stroke-width="1" stroke-linecap="butt" stroke-miterlimit="10" stroke-linejoin="miter" fill="none" stroke="#000000" d="M2826.9 7552 3064.6 7629.2 3211.6 7831.5 2826.9 7956.5Z"/>
<path transform="matrix(.1,0,0,-.1,0,792)" d="M1581.9 7552V7802L1435 8004.2 1197.2 7677Z" fill="#5c6600"/>
<path transform="matrix(.1,0,0,-.1,0,792)" stroke-width="1" stroke-linecap="butt" stroke-miterlimit="10" stroke-linejoin="miter" fill="none" stroke="#000000" d="M1581.9 7552V7802L1435 8004.2 1197.2 7677Z"/>
<path transform="matrix(.1,0,0,-.1,0,792)" d="M540.102 3036.4 155.301 3161.4V2756.9L393.102 2834.2Z" fill="#5c6600"/>
<path transform="matrix(.1,0,0,-.1,0,792)" stroke-width="1" stroke-linecap="butt" stroke-miterlimit="10" stroke-linejoin="miter" fill="none" stroke="#000000" d="M540.102 3036.4 155.301 3161.4V2756.9L393.102 2834.2Z"/>
<path transform="matrix(.1,0,0,-.1,0,792)" d="M540.102 2227.4 155.301 2352.4V2102.4L302.301 1900.1Z" fill="#5c6600"/>
<path transform="matrix(.1,0,0,-.1,0,792)" stroke-width="1" stroke-linecap="butt" stroke-miterlimit="10" stroke-linejoin="miter" fill="none" stroke="#000000" d="M540.102 2227.4 155.301 2352.4V2102.4L302.301 1900.1Z"/>
<path transform="matrix(.1,0,0,-.1,0,792)" d="M1071.7 841.102 834 513.898 1218.7 388.898V638.898Z" fill="#5c6600"/>
<path transform="matrix(.1,0,0,-.1,0,792)" stroke-width="1" stroke-linecap="butt" stroke-miterlimit="10" stroke-linejoin="miter" fill="none" stroke="#000000" d="M1071.7 841.102 834 513.898 1218.7 388.898V638.898Z"/>
<path transform="matrix(.1,0,0,-.1,0,792)" d="M4456.5 7581.5 4841.3 7706.5V8111L4456.5 8236 4218.8 7908.7" fill="#ffde66"/>
<path transform="matrix(.1,0,0,-.1,0,792)" stroke-width="1" stroke-linecap="butt" stroke-miterlimit="10" stroke-linejoin="miter" fill="none" stroke="#000000" d="M4456.5 7581.5 4841.3 7706.5V8111L4456.5 8236 4218.8 7908.7Z"/>
<path transform="matrix(.1,0,0,-.1,0,792)" d="M3981 7581.5 4218.8 7908.7 4071.8 8111V8361L3687.1 8486 3449.4 8158.7 3596.3 7956.5V7706.5" fill="#ffffff"/>
<path transform="matrix(.1,0,0,-.1,0,792)" stroke-width="1" stroke-linecap="butt" stroke-miterlimit="10" stroke-linejoin="miter" fill="none" stroke="#000000" d="M3981 7581.5 4218.8 7908.7 4071.8 8111V8361L3687.1 8486 3449.4 8158.7 3596.3 7956.5V7706.5Z"/>
<path transform="matrix(.1,0,0,-.1,0,792)" d="M5429 3065.9 5813.7 2940.9 5960.7 3143.2 6198.5 3220.4V3624.9L5813.7 3749.9 5666.8 3547.7 5429 3470.4" fill="#ffffff"/>
<path transform="matrix(.1,0,0,-.1,0,792)" stroke-width="1" stroke-linecap="butt" stroke-miterlimit="10" stroke-linejoin="miter" fill="none" stroke="#000000" d="M5429 3065.9 5813.7 2940.9 5960.7 3143.2 6198.5 3220.4V3624.9L5813.7 3749.9 5666.8 3547.7 5429 3470.4Z"/>
<path transform="matrix(.1,0,0,-.1,0,792)" d="M5429 3470.4 5666.8 3547.7 5813.7 3749.9 5429 3874.9Z" fill="#5c6600"/>
<path transform="matrix(.1,0,0,-.1,0,792)" stroke-width="1" stroke-linecap="butt" stroke-miterlimit="10" stroke-linejoin="miter" fill="none" stroke="#000000" d="M5429 3470.4 5666.8 3547.7 5813.7 3749.9 5429 3874.9Z"/>
<path transform="matrix(.1,0,0,-.1,0,792)" d="M5429 3874.9 5813.7 3749.9 6051.5 4077.2 5813.7 4404.4 5429 4279.4" fill="#ffde66"/>
<path transform="matrix(.1,0,0,-.1,0,792)" stroke-width="1" stroke-linecap="butt" stroke-miterlimit="10" stroke-linejoin="miter" fill="none" stroke="#000000" d="M5429 3874.9 5813.7 3749.9 6051.5 4077.2 5813.7 4404.4 5429 4279.4Z"/>
<path transform="matrix(.1,0,0,-.1,0,792)" d="M4862.7 822.898 4715.7 620.602 4478 543.398V138.898L4862.7 13.8984 5009.6 216.102 5247.4 293.398V697.898" fill="#ffffff"/>
<path transform="matrix(.1,0,0,-.1,0,792)" stroke-width="1" stroke-linecap="butt" stroke-miterlimit="10" stroke-linejoin="miter" fill="none" stroke="#000000" d="M4862.7 822.898 4715.7 620.602 4478 543.398V138.898L4862.7 13.8984 5009.6 216.102 5247.4 293.398V697.898Z"/>
<path transform="matrix(.1,0,0,-.1,0,792)" d="M2463.6 793.398V388.898L2701.4 466.102 2848.3 668.398Z" fill="#5c6600"/>
<path transform="matrix(.1,0,0,-.1,0,792)" stroke-width="1" stroke-linecap="butt" stroke-miterlimit="10" stroke-linejoin="miter" fill="none" stroke="#000000" d="M2463.6 793.398V388.898L2701.4 466.102 2848.3 668.398Z"/>
<path transform="matrix(.1,0,0,-.1,0,792)" d="M483.898 5077.2 246.199 5404.4-138.5 5279.4V4874.9L246.199 4749.9" fill="#ffde66"/>
<path transform="matrix(.1,0,0,-.1,0,792)" stroke-width="1" stroke-linecap="butt" stroke-miterlimit="10" stroke-linejoin="miter" fill="none" stroke="#000000" d="M483.898 5077.2 246.199 5404.4-138.5 5279.4V4874.9L246.199 4749.9Z"/>
<path transform="matrix(.1,0,0,-.1,0,792)" d="M3855.5 745.602 3617.7 418.398 4002.5 293.398V-111.102L4387.2 13.8984 4624.9-313.398 4862.7 13.8984 4478 138.898V543.398L4093.3 418.398" fill="#805900"/>
<path transform="matrix(.1,0,0,-.1,0,792)" stroke-width="1" stroke-linecap="butt" stroke-miterlimit="10" stroke-linejoin="miter" fill="none" stroke="#000000" d="M3855.5 745.602 3617.7 418.398 4002.5 293.398V-111.102L4387.2 13.8984 4624.9-313.398 4862.7 13.8984 4478 138.898V543.398L4093.3 418.398Z"/>
<path transform="matrix(.1,0,0,-.1,0,792)" d="M1197.2 7677 1435 8004.2 1197.2 8331.5 812.5 8206.5V7802" fill="#ffde66"/>
<path transform="matrix(.1,0,0,-.1,0,792)" stroke-width="1" stroke-linecap="butt" stroke-miterlimit="10" stroke-linejoin="miter" fill="none" stroke="#000000" d="M1197.2 7677 1435 8004.2 1197.2 8331.5 812.5 8206.5V7802Z"/>
<path transform="matrix(.1,0,0,-.1,0,792)" d="M449.199 1447.9 64.5 1572.9-82.3984 1370.6-320.199 1293.4V888.898L64.5 763.898 211.5 966.102 449.199 1043.4" fill="#ffffff"/>
<path transform="matrix(.1,0,0,-.1,0,792)" stroke-width="1" stroke-linecap="butt" stroke-miterlimit="10" stroke-linejoin="miter" fill="none" stroke="#000000" d="M449.199 1447.9 64.5 1572.9-82.3984 1370.6-320.199 1293.4V888.898L64.5 763.898 211.5 966.102 449.199 1043.4Z"/>
<path transform="matrix(.1,0,0,-.1,0,792)" d="M449.199 1043.4 211.5 966.102 64.5 763.898 449.199 638.898Z" fill="#5c6600"/>
<path transform="matrix(.1,0,0,-.1,0,792)" stroke-width="1" stroke-linecap="butt" stroke-miterlimit="10" stroke-linejoin="miter" fill="none" stroke="#000000" d="M449.199 1043.4 211.5 966.102 64.5 763.898 449.199 638.898Z"/>
<path transform="matrix(.1,0,0,-.1,0,792)" d="M4841.3 7706.5 5079 7783.7 5226 7986 4841.3 8111Z" fill="#5c6600"/>
<path transform="matrix(.1,0,0,-.1,0,792)" stroke-width="1" stroke-linecap="butt" stroke-miterlimit="10" stroke-linejoin="miter" fill="none" stroke="#000000" d="M4841.3 7706.5 5079 7783.7 5226 7986 4841.3 8111Z"/>
<path transform="matrix(.1,0,0,-.1,0,792)" d="M3596.3 7706.5V7956.5L3449.4 8158.7 3211.6 7831.5Z" fill="#5c6600"/>
<path transform="matrix(.1,0,0,-.1,0,792)" stroke-width="1" stroke-linecap="butt" stroke-miterlimit="10" stroke-linejoin="miter" fill="none" stroke="#000000" d="M3596.3 7706.5V7956.5L3449.4 8158.7 3211.6 7831.5Z"/>
<path transform="matrix(.1,0,0,-.1,0,792)" d="M5519.9 5463.5 5904.6 5338.5V5743L5666.8 5665.7Z" fill="#5c6600"/>
<path transform="matrix(.1,0,0,-.1,0,792)" stroke-width="1" stroke-linecap="butt" stroke-miterlimit="10" stroke-linejoin="miter" fill="none" stroke="#000000" d="M5519.9 5463.5 5904.6 5338.5V5743L5666.8 5665.7Z"/>
<path transform="matrix(.1,0,0,-.1,0,792)" d="M5519.9 6272.5 5904.6 6147.5V5743L6289.3 5868 6527 5540.7 6764.8 5868 6380.1 5993V6397.5L5995.4 6272.5 5757.6 6599.7" fill="#805900"/>
<path transform="matrix(.1,0,0,-.1,0,792)" stroke-width="1" stroke-linecap="butt" stroke-miterlimit="10" stroke-linejoin="miter" fill="none" stroke="#000000" d="M5519.9 6272.5 5904.6 6147.5V5743L6289.3 5868 6527 5540.7 6764.8 5868 6380.1 5993V6397.5L5995.4 6272.5 5757.6 6599.7Z"/>
<path transform="matrix(.1,0,0,-.1,0,792)" d="M5247.4 697.898V293.398L5485.2 370.602 5632.1 572.898Z" fill="#5c6600"/>
<path transform="matrix(.1,0,0,-.1,0,792)" stroke-width="1" stroke-linecap="butt" stroke-miterlimit="10" stroke-linejoin="miter" fill="none" stroke="#000000" d="M5247.4 697.898V293.398L5485.2 370.602 5632.1 572.898Z"/>
<path transform="matrix(.1,0,0,-.1,0,792)" d="M2848.3 668.398 2701.4 466.102 2463.6 388.898V-15.6016L2848.3-140.602 2995.3 61.6016 3233 138.898V543.398" fill="#ffffff"/>
<path transform="matrix(.1,0,0,-.1,0,792)" stroke-width="1" stroke-linecap="butt" stroke-miterlimit="10" stroke-linejoin="miter" fill="none" stroke="#000000" d="M2848.3 668.398 2701.4 466.102 2463.6 388.898V-15.6016L2848.3-140.602 2995.3 61.6016 3233 138.898V543.398Z"/>
<path transform="matrix(.1,0,0,-.1,0,792)" d="M2204.4 7754.2 2442.2 8081.5 2057.5 8206.5V7956.5Z" fill="#5c6600"/>
<path transform="matrix(.1,0,0,-.1,0,792)" stroke-width="1" stroke-linecap="butt" stroke-miterlimit="10" stroke-linejoin="miter" fill="none" stroke="#000000" d="M2204.4 7754.2 2442.2 8081.5 2057.5 8206.5V7956.5Z"/>
<path transform="matrix(.1,0,0,-.1,0,792)" d="M449.199 638.898V234.398L687 311.602 834 513.898Z" fill="#5c6600"/>
<path transform="matrix(.1,0,0,-.1,0,792)" stroke-width="1" stroke-linecap="butt" stroke-miterlimit="10" stroke-linejoin="miter" fill="none" stroke="#000000" d="M449.199 638.898V234.398L687 311.602 834 513.898Z"/>
<path transform="matrix(.1,0,0,-.1,0,792)" d="M449.199 638.898 64.5 763.898-173.199 436.602 64.5 109.398 449.199 234.398" fill="#ffde66"/>
<path transform="matrix(.1,0,0,-.1,0,792)" stroke-width="1" stroke-linecap="butt" stroke-miterlimit="10" stroke-linejoin="miter" fill="none" stroke="#000000" d="M449.199 638.898 64.5 763.898-173.199 436.602 64.5 109.398 449.199 234.398Z"/>
<path transform="matrix(.1,0,0,-.1,0,792)" d="M5576 2613.7 5722.9 2411.4V2161.4L6107.6 2036.4 6345.4 2363.7 6198.5 2565.9V2815.9L5813.7 2940.9" fill="#ffffff"/>
<path transform="matrix(.1,0,0,-.1,0,792)" stroke-width="1" stroke-linecap="butt" stroke-miterlimit="10" stroke-linejoin="miter" fill="none" stroke="#000000" d="M5576 2613.7 5722.9 2411.4V2161.4L6107.6 2036.4 6345.4 2363.7 6198.5 2565.9V2815.9L5813.7 2940.9Z"/>
<path transform="matrix(.1,0,0,-.1,0,792)" d="M812.5 7802V8206.5L574.699 8129.2 427.801 7927Z" fill="#5c6600"/>
<path transform="matrix(.1,0,0,-.1,0,792)" stroke-width="1" stroke-linecap="butt" stroke-miterlimit="10" stroke-linejoin="miter" fill="none" stroke="#000000" d="M812.5 7802V8206.5L574.699 8129.2 427.801 7927Z"/>
<path transform="matrix(.1,0,0,-.1,0,792)" d="M1841.1 591.102 1603.4 263.898 1988.1 138.898V-265.602L2372.8-140.602 2610.6-467.898 2848.3-140.602 2463.6-15.6016V388.898L2078.9 263.898" fill="#805900"/>
<path transform="matrix(.1,0,0,-.1,0,792)" stroke-width="1" stroke-linecap="butt" stroke-miterlimit="10" stroke-linejoin="miter" fill="none" stroke="#000000" d="M1841.1 591.102 1603.4 263.898 1988.1 138.898V-265.602L2372.8-140.602 2610.6-467.898 2848.3-140.602 2463.6-15.6016V388.898L2078.9 263.898Z"/>
<path transform="matrix(.1,0,0,-.1,0,792)" d="M3211.6 7831.5 3449.4 8158.7 3211.6 8486 2826.9 8361V7956.5" fill="#ffde66"/>
<path transform="matrix(.1,0,0,-.1,0,792)" stroke-width="1" stroke-linecap="butt" stroke-miterlimit="10" stroke-linejoin="miter" fill="none" stroke="#000000" d="M3211.6 7831.5 3449.4 8158.7 3211.6 8486 2826.9 8361V7956.5Z"/>
<path transform="matrix(.1,0,0,-.1,0,792)" d="M5610.7 6802 5757.6 6599.7 5995.4 6927 5610.7 7052Z" fill="#5c6600"/>
<path transform="matrix(.1,0,0,-.1,0,792)" stroke-width="1" stroke-linecap="butt" stroke-miterlimit="10" stroke-linejoin="miter" fill="none" stroke="#000000" d="M5610.7 6802 5757.6 6599.7 5995.4 6927 5610.7 7052Z"/>
<path transform="matrix(.1,0,0,-.1,0,792)" d="M5610.7 7052 5995.4 6927 6142.3 7129.2 6380.1 7206.5V7611L5995.4 7736 5848.4 7533.7 5610.7 7456.5" fill="#ffffff"/>
<path transform="matrix(.1,0,0,-.1,0,792)" stroke-width="1" stroke-linecap="butt" stroke-miterlimit="10" stroke-linejoin="miter" fill="none" stroke="#000000" d="M5610.7 7052 5995.4 6927 6142.3 7129.2 6380.1 7206.5V7611L5995.4 7736 5848.4 7533.7 5610.7 7456.5Z"/>
<path transform="matrix(.1,0,0,-.1,0,792)" d="M5610.7 7456.5 5848.4 7533.7 5995.4 7736 5610.7 7861Z" fill="#5c6600"/>
<path transform="matrix(.1,0,0,-.1,0,792)" stroke-width="1" stroke-linecap="butt" stroke-miterlimit="10" stroke-linejoin="miter" fill="none" stroke="#000000" d="M5610.7 7456.5 5848.4 7533.7 5995.4 7736 5610.7 7861Z"/>
<path transform="matrix(.1,0,0,-.1,0,792)" d="M337 7147.5-47.6992 7272.5-194.699 7070.2-432.398 6993V6588.5L-47.6992 6463.5 99.1992 6665.7 337 6743" fill="#ffffff"/>
<path transform="matrix(.1,0,0,-.1,0,792)" stroke-width="1" stroke-linecap="butt" stroke-miterlimit="10" stroke-linejoin="miter" fill="none" stroke="#000000" d="M337 7147.5-47.6992 7272.5-194.699 7070.2-432.398 6993V6588.5L-47.6992 6463.5 99.1992 6665.7 337 6743Z"/>
<path transform="matrix(.1,0,0,-.1,0,792)" d="M337 6743 99.1992 6665.7-47.6992 6463.5 337 6338.5Z" fill="#5c6600"/>
<path transform="matrix(.1,0,0,-.1,0,792)" stroke-width="1" stroke-linecap="butt" stroke-miterlimit="10" stroke-linejoin="miter" fill="none" stroke="#000000" d="M337 6743 99.1992 6665.7-47.6992 6463.5 337 6338.5Z"/>
<path transform="matrix(.1,0,0,-.1,0,792)" d="M337 6338.5-47.6992 6463.5-285.5 6136.2-47.6992 5808.9 337 5933.9" fill="#ffde66"/>
<path transform="matrix(.1,0,0,-.1,0,792)" stroke-width="1" stroke-linecap="butt" stroke-miterlimit="10" stroke-linejoin="miter" fill="none" stroke="#000000" d="M337 6338.5-47.6992 6463.5-285.5 6136.2-47.6992 5808.9 337 5933.9Z"/>
<path transform="matrix(.1,0,0,-.1,0,792)" d="M5610.7 7861V8111L5463.7 8313.3 5226 7986Z" fill="#5c6600"/>
<path transform="matrix(.1,0,0,-.1,0,792)" stroke-width="1" stroke-linecap="butt" stroke-miterlimit="10" stroke-linejoin="miter" fill="none" stroke="#000000" d="M5610.7 7861V8111L5463.7 8313.3 5226 7986Z"/>
<path transform="matrix(.1,0,0,-.1,0,792)" d="M5610.7 7861 5995.4 7736 6233.1 8063.3 6086.2 8265.5V8515.5L5701.5 8640.5 5463.7 8313.3 5610.7 8111" fill="#ffffff"/>
<path transform="matrix(.1,0,0,-.1,0,792)" stroke-width="1" stroke-linecap="butt" stroke-miterlimit="10" stroke-linejoin="miter" fill="none" stroke="#000000" d="M5610.7 7861 5995.4 7736 6233.1 8063.3 6086.2 8265.5V8515.5L5701.5 8640.5 5463.7 8313.3 5610.7 8111Z"/>
<path transform="matrix(.1,0,0,-.1,0,792)" d="M5632.1 572.898 6016.8 447.898V43.3984L6401.5 168.398 6639.3-158.898 6877.1 168.398 6492.4 293.398V697.898L6107.6 572.898 5869.9 900.102" fill="#805900"/>
<path transform="matrix(.1,0,0,-.1,0,792)" stroke-width="1" stroke-linecap="butt" stroke-miterlimit="10" stroke-linejoin="miter" fill="none" stroke="#000000" d="M5632.1 572.898 6016.8 447.898V43.3984L6401.5 168.398 6639.3-158.898 6877.1 168.398 6492.4 293.398V697.898L6107.6 572.898 5869.9 900.102Z"/>
<path transform="matrix(.1,0,0,-.1,0,792)" d="M5632.1 572.898 5485.2 370.602 5247.4 293.398V-111.102L5632.1-236.102 5779.1-33.8984 6016.8 43.3984V447.898" fill="#ffffff"/>
<path transform="matrix(.1,0,0,-.1,0,792)" stroke-width="1" stroke-linecap="butt" stroke-miterlimit="10" stroke-linejoin="miter" fill="none" stroke="#000000" d="M5632.1 572.898 5485.2 370.602 5247.4 293.398V-111.102L5632.1-236.102 5779.1-33.8984 6016.8 43.3984V447.898Z"/>
<path transform="matrix(.1,0,0,-.1,0,792)" d="M3233 543.398V138.898L3470.8 216.102 3617.7 418.398Z" fill="#5c6600"/>
<path transform="matrix(.1,0,0,-.1,0,792)" stroke-width="1" stroke-linecap="butt" stroke-miterlimit="10" stroke-linejoin="miter" fill="none" stroke="#000000" d="M3233 543.398V138.898L3470.8 216.102 3617.7 418.398Z"/>
<path transform="matrix(.1,0,0,-.1,0,792)" d="M302.301 1900.1 155.301 2102.4V2352.4L-229.398 2477.4-467.102 2150.1-320.199 1947.9V1697.9L64.5 1572.9" fill="#ffffff"/>
<path transform="matrix(.1,0,0,-.1,0,792)" stroke-width="1" stroke-linecap="butt" stroke-miterlimit="10" stroke-linejoin="miter" fill="none" stroke="#000000" d="M302.301 1900.1 155.301 2102.4V2352.4L-229.398 2477.4-467.102 2150.1-320.199 1947.9V1697.9L64.5 1572.9Z"/>
<path transform="matrix(.1,0,0,-.1,0,792)" d="M834 513.898 687 311.602 449.199 234.398V-170.199L834-295.199 980.898-92.8984 1218.7-15.6016V388.898" fill="#ffffff"/>
<path transform="matrix(.1,0,0,-.1,0,792)" stroke-width="1" stroke-linecap="butt" stroke-miterlimit="10" stroke-linejoin="miter" fill="none" stroke="#000000" d="M834 513.898 687 311.602 449.199 234.398V-170.199L834-295.199 980.898-92.8984 1218.7-15.6016V388.898Z"/>
<path transform="matrix(.1,0,0,-.1,0,792)" d="M4218.8 7908.7 4456.5 8236 4071.8 8361V8111Z" fill="#5c6600"/>
<path transform="matrix(.1,0,0,-.1,0,792)" stroke-width="1" stroke-linecap="butt" stroke-miterlimit="10" stroke-linejoin="miter" fill="none" stroke="#000000" d="M4218.8 7908.7 4456.5 8236 4071.8 8361V8111Z"/>
<path transform="matrix(.1,0,0,-.1,0,792)" d="M427.801 7927 43.1016 8052V7802L190 7599.7Z" fill="#5c6600"/>
<path transform="matrix(.1,0,0,-.1,0,792)" stroke-width="1" stroke-linecap="butt" stroke-miterlimit="10" stroke-linejoin="miter" fill="none" stroke="#000000" d="M427.801 7927 43.1016 8052V7802L190 7599.7Z"/>
<path transform="matrix(.1,0,0,-.1,0,792)" d="M246.199 4749.9-138.5 4874.9V4470.4L99.1992 4547.7Z" fill="#5c6600"/>
<path transform="matrix(.1,0,0,-.1,0,792)" stroke-width="1" stroke-linecap="butt" stroke-miterlimit="10" stroke-linejoin="miter" fill="none" stroke="#000000" d="M246.199 4749.9-138.5 4874.9V4470.4L99.1992 4547.7Z"/>
<path transform="matrix(.1,0,0,-.1,0,792)" d="M246.199 3940.9-138.5 4065.9V4470.4L-523.301 4345.4-761 4672.7-998.801 4345.4-614.102 4220.4V3815.9L-229.398 3940.9 8.39844 3613.7" fill="#805900"/>
<path transform="matrix(.1,0,0,-.1,0,792)" stroke-width="1" stroke-linecap="butt" stroke-miterlimit="10" stroke-linejoin="miter" fill="none" stroke="#000000" d="M246.199 3940.9-138.5 4065.9V4470.4L-523.301 4345.4-761 4672.7-998.801 4345.4-614.102 4220.4V3815.9L-229.398 3940.9 8.39844 3613.7Z"/>
<path transform="matrix(.1,0,0,-.1,0,792)" d="M5722.9 1102.4 5869.9 900.102 6107.6 1227.4 5722.9 1352.4Z" fill="#5c6600"/>
<path transform="matrix(.1,0,0,-.1,0,792)" stroke-width="1" stroke-linecap="butt" stroke-miterlimit="10" stroke-linejoin="miter" fill="none" stroke="#000000" d="M5722.9 1102.4 5869.9 900.102 6107.6 1227.4 5722.9 1352.4Z"/>
<path transform="matrix(.1,0,0,-.1,0,792)" d="M5722.9 1352.4 6107.6 1227.4 6254.6 1429.6 6492.4 1506.9V1911.4L6107.6 2036.4 5960.7 1834.2 5722.9 1756.9" fill="#ffffff"/>
<path transform="matrix(.1,0,0,-.1,0,792)" stroke-width="1" stroke-linecap="butt" stroke-miterlimit="10" stroke-linejoin="miter" fill="none" stroke="#000000" d="M5722.9 1352.4 6107.6 1227.4 6254.6 1429.6 6492.4 1506.9V1911.4L6107.6 2036.4 5960.7 1834.2 5722.9 1756.9Z"/>
<path transform="matrix(.1,0,0,-.1,0,792)" d="M5722.9 1756.9 5960.7 1834.2 6107.6 2036.4 5722.9 2161.4Z" fill="#5c6600"/>
<path transform="matrix(.1,0,0,-.1,0,792)" stroke-width="1" stroke-linecap="butt" stroke-miterlimit="10" stroke-linejoin="miter" fill="none" stroke="#000000" d="M5722.9 1756.9 5960.7 1834.2 6107.6 2036.4 5722.9 2161.4Z"/>
<path transform="matrix(.1,0,0,-.1,0,792)" d="M3617.7 418.398 3470.8 216.102 3233 138.898V-265.602L3617.7-390.602 3764.7-188.398 4002.5-111.102V293.398" fill="#ffffff"/>
<path transform="matrix(.1,0,0,-.1,0,792)" stroke-width="1" stroke-linecap="butt" stroke-miterlimit="10" stroke-linejoin="miter" fill="none" stroke="#000000" d="M3617.7 418.398 3470.8 216.102 3233 138.898V-265.602L3617.7-390.602 3764.7-188.398 4002.5-111.102V293.398Z"/>
<path transform="matrix(.1,0,0,-.1,0,792)" d="M1218.7 388.898V-15.6016L1456.4 61.6016 1603.4 263.898Z" fill="#5c6600"/>
<path transform="matrix(.1,0,0,-.1,0,792)" stroke-width="1" stroke-linecap="butt" stroke-miterlimit="10" stroke-linejoin="miter" fill="none" stroke="#000000" d="M1218.7 388.898V-15.6016L1456.4 61.6016 1603.4 263.898Z"/>
<path transform="matrix(.1,0,0,-.1,0,792)" d="M5757.6 6599.7 5995.4 6272.5 6380.1 6397.5V6802L5995.4 6927" fill="#ffde66"/>
<path transform="matrix(.1,0,0,-.1,0,792)" stroke-width="1" stroke-linecap="butt" stroke-miterlimit="10" stroke-linejoin="miter" fill="none" stroke="#000000" d="M5757.6 6599.7 5995.4 6272.5 6380.1 6397.5V6802L5995.4 6927Z"/>
<path transform="matrix(.1,0,0,-.1,0,792)" d="M190 7599.7 43.1016 7802V8052L-341.602 8177-579.398 7849.7-432.398 7647.5V7397.5L-47.6992 7272.5" fill="#ffffff"/>
<path transform="matrix(.1,0,0,-.1,0,792)" stroke-width="1" stroke-linecap="butt" stroke-miterlimit="10" stroke-linejoin="miter" fill="none" stroke="#000000" d="M190 7599.7 43.1016 7802V8052L-341.602 8177-579.398 7849.7-432.398 7647.5V7397.5L-47.6992 7272.5Z"/>
<path transform="matrix(.1,0,0,-.1,0,792)" d="M155.301 3411.4 8.39844 3613.7-229.398 3286.4 155.301 3161.4Z" fill="#5c6600"/>
<path transform="matrix(.1,0,0,-.1,0,792)" stroke-width="1" stroke-linecap="butt" stroke-miterlimit="10" stroke-linejoin="miter" fill="none" stroke="#000000" d="M155.301 3411.4 8.39844 3613.7-229.398 3286.4 155.301 3161.4Z"/>
<path transform="matrix(.1,0,0,-.1,0,792)" d="M155.301 3161.4-229.398 3286.4-376.301 3084.2-614.102 3006.9V2602.4L-229.398 2477.4-82.3984 2679.6 155.301 2756.9" fill="#ffffff"/>
<path transform="matrix(.1,0,0,-.1,0,792)" stroke-width="1" stroke-linecap="butt" stroke-miterlimit="10" stroke-linejoin="miter" fill="none" stroke="#000000" d="M155.301 3161.4-229.398 3286.4-376.301 3084.2-614.102 3006.9V2602.4L-229.398 2477.4-82.3984 2679.6 155.301 2756.9Z"/>
<path transform="matrix(.1,0,0,-.1,0,792)" d="M155.301 2756.9-82.3984 2679.6-229.398 2477.4 155.301 2352.4Z" fill="#5c6600"/>
<path transform="matrix(.1,0,0,-.1,0,792)" stroke-width="1" stroke-linecap="butt" stroke-miterlimit="10" stroke-linejoin="miter" fill="none" stroke="#000000" d="M155.301 2756.9-82.3984 2679.6-229.398 2477.4 155.301 2352.4Z"/>
<path transform="matrix(.1,0,0,-.1,0,792)" d="M5813.7 2940.9 6198.5 2815.9V3220.4L5960.7 3143.2Z" fill="#5c6600"/>
<path transform="matrix(.1,0,0,-.1,0,792)" stroke-width="1" stroke-linecap="butt" stroke-miterlimit="10" stroke-linejoin="miter" fill="none" stroke="#000000" d="M5813.7 2940.9 6198.5 2815.9V3220.4L5960.7 3143.2Z"/>
<path transform="matrix(.1,0,0,-.1,0,792)" d="M5813.7 3749.9 6198.5 3624.9V3874.9L6051.5 4077.2Z" fill="#5c6600"/>
<path transform="matrix(.1,0,0,-.1,0,792)" stroke-width="1" stroke-linecap="butt" stroke-miterlimit="10" stroke-linejoin="miter" fill="none" stroke="#000000" d="M5813.7 3749.9 6198.5 3624.9V3874.9L6051.5 4077.2Z"/>
<path transform="matrix(.1,0,0,-.1,0,792)" d="M5247.4 293.398 5009.6 216.102 4862.7 13.8984 5247.4-111.102Z" fill="#5c6600"/>
<path transform="matrix(.1,0,0,-.1,0,792)" stroke-width="1" stroke-linecap="butt" stroke-miterlimit="10" stroke-linejoin="miter" fill="none" stroke="#000000" d="M5247.4 293.398 5009.6 216.102 4862.7 13.8984 5247.4-111.102Z"/>
<path transform="matrix(.1,0,0,-.1,0,792)" d="M1603.4 263.898 1456.4 61.6016 1218.7-15.6016V-420.199L1603.4-545.199 1750.3-342.898 1988.1-265.602V138.898" fill="#ffffff"/>
<path transform="matrix(.1,0,0,-.1,0,792)" stroke-width="1" stroke-linecap="butt" stroke-miterlimit="10" stroke-linejoin="miter" fill="none" stroke="#000000" d="M1603.4 263.898 1456.4 61.6016 1218.7-15.6016V-420.199L1603.4-545.199 1750.3-342.898 1988.1-265.602V138.898Z"/>
<path transform="matrix(.1,0,0,-.1,0,792)" d="M449.199 234.398 64.5 109.398-173.199 436.602-411 109.398-26.3008-15.6016V-420.199L358.398-295.199 596.199-622.398 834-295.199 449.199-170.199" fill="#805900"/>
<path transform="matrix(.1,0,0,-.1,0,792)" stroke-width="1" stroke-linecap="butt" stroke-miterlimit="10" stroke-linejoin="miter" fill="none" stroke="#000000" d="M449.199 234.398 64.5 109.398-173.199 436.602-411 109.398-26.3008-15.6016V-420.199L358.398-295.199 596.199-622.398 834-295.199 449.199-170.199Z"/>
<path transform="matrix(.1,0,0,-.1,0,792)" d="M5869.9 900.102 6107.6 572.898 6492.4 697.898V1102.4L6107.6 1227.4" fill="#ffde66"/>
<path transform="matrix(.1,0,0,-.1,0,792)" stroke-width="1" stroke-linecap="butt" stroke-miterlimit="10" stroke-linejoin="miter" fill="none" stroke="#000000" d="M5869.9 900.102 6107.6 572.898 6492.4 697.898V1102.4L6107.6 1227.4Z"/>
<path transform="matrix(.1,0,0,-.1,0,792)" d="M64.5 1572.9-320.199 1697.9V1293.4L-82.3984 1370.6Z" fill="#5c6600"/>
<path transform="matrix(.1,0,0,-.1,0,792)" stroke-width="1" stroke-linecap="butt" stroke-miterlimit="10" stroke-linejoin="miter" fill="none" stroke="#000000" d="M64.5 1572.9-320.199 1697.9V1293.4L-82.3984 1370.6Z"/>
<path transform="matrix(.1,0,0,-.1,0,792)" d="M64.5 763.898-320.199 888.898V638.898L-173.199 436.602Z" fill="#5c6600"/>
<path transform="matrix(.1,0,0,-.1,0,792)" stroke-width="1" stroke-linecap="butt" stroke-miterlimit="10" stroke-linejoin="miter" fill="none" stroke="#000000" d="M64.5 763.898-320.199 888.898V638.898L-173.199 436.602Z"/>
<path transform="matrix(.1,0,0,-.1,0,792)" d="M5904.6 4529.4 6289.3 4404.4 6436.2 4606.7 6674 4683.9V5088.5L6289.3 5213.5 6142.3 5011.2 5904.6 4933.9" fill="#ffffff"/>
<path transform="matrix(.1,0,0,-.1,0,792)" stroke-width="1" stroke-linecap="butt" stroke-miterlimit="10" stroke-linejoin="miter" fill="none" stroke="#000000" d="M5904.6 4529.4 6289.3 4404.4 6436.2 4606.7 6674 4683.9V5088.5L6289.3 5213.5 6142.3 5011.2 5904.6 4933.9Z"/>
<path transform="matrix(.1,0,0,-.1,0,792)" d="M5904.6 4933.9 6142.3 5011.2 6289.3 5213.5 5904.6 5338.5Z" fill="#5c6600"/>
<path transform="matrix(.1,0,0,-.1,0,792)" stroke-width="1" stroke-linecap="butt" stroke-miterlimit="10" stroke-linejoin="miter" fill="none" stroke="#000000" d="M5904.6 4933.9 6142.3 5011.2 6289.3 5213.5 5904.6 5338.5Z"/>
<path transform="matrix(.1,0,0,-.1,0,792)" d="M5904.6 5338.5 6289.3 5213.5 6527 5540.7 6289.3 5868 5904.6 5743" fill="#ffde66"/>
<path transform="matrix(.1,0,0,-.1,0,792)" stroke-width="1" stroke-linecap="butt" stroke-miterlimit="10" stroke-linejoin="miter" fill="none" stroke="#000000" d="M5904.6 5338.5 6289.3 5213.5 6527 5540.7 6289.3 5868 5904.6 5743Z"/>
<path transform="matrix(.1,0,0,-.1,0,792)" d="M3233 138.898 2995.3 61.6016 2848.3-140.602 3233-265.602Z" fill="#5c6600"/>
<path transform="matrix(.1,0,0,-.1,0,792)" stroke-width="1" stroke-linecap="butt" stroke-miterlimit="10" stroke-linejoin="miter" fill="none" stroke="#000000" d="M3233 138.898 2995.3 61.6016 2848.3-140.602 3233-265.602Z"/>
<path transform="matrix(.1,0,0,-.1,0,792)" d="M8.39844 3613.7-229.398 3940.9-614.102 3815.9V3411.4L-229.398 3286.4" fill="#ffde66"/>
<path transform="matrix(.1,0,0,-.1,0,792)" stroke-width="1" stroke-linecap="butt" stroke-miterlimit="10" stroke-linejoin="miter" fill="none" stroke="#000000" d="M8.39844 3613.7-229.398 3940.9-614.102 3815.9V3411.4L-229.398 3286.4Z"/>
<path transform="matrix(.1,0,0,-.1,0,792)" d="M5995.4 6927 6380.1 6802V7206.5L6142.3 7129.2Z" fill="#5c6600"/>
<path transform="matrix(.1,0,0,-.1,0,792)" stroke-width="1" stroke-linecap="butt" stroke-miterlimit="10" stroke-linejoin="miter" fill="none" stroke="#000000" d="M5995.4 6927 6380.1 6802V7206.5L6142.3 7129.2Z"/>
<path transform="matrix(.1,0,0,-.1,0,792)" d="M5995.4 7736 6380.1 7611V7206.5L6764.8 7331.5 7002.6 7004.2 7240.3 7331.5 6855.6 7456.5V7861L6470.9 7736 6233.1 8063.3" fill="#805900"/>
<path transform="matrix(.1,0,0,-.1,0,792)" stroke-width="1" stroke-linecap="butt" stroke-miterlimit="10" stroke-linejoin="miter" fill="none" stroke="#000000" d="M5995.4 7736 6380.1 7611V7206.5L6764.8 7331.5 7002.6 7004.2 7240.3 7331.5 6855.6 7456.5V7861L6470.9 7736 6233.1 8063.3Z"/>
<path transform="matrix(.1,0,0,-.1,0,792)" d="M6016.8 43.3984V-361.102L6401.5-486.102 6639.3-158.898 6401.5 168.398" fill="#ffde66"/>
<path transform="matrix(.1,0,0,-.1,0,792)" stroke-width="1" stroke-linecap="butt" stroke-miterlimit="10" stroke-linejoin="miter" fill="none" stroke="#000000" d="M6016.8 43.3984V-361.102L6401.5-486.102 6639.3-158.898 6401.5 168.398Z"/>
<path transform="matrix(.1,0,0,-.1,0,792)" d="M6016.8 43.3984 5779.1-33.8984 5632.1-236.102 6016.8-361.102Z" fill="#5c6600"/>
<path transform="matrix(.1,0,0,-.1,0,792)" stroke-width="1" stroke-linecap="butt" stroke-miterlimit="10" stroke-linejoin="miter" fill="none" stroke="#000000" d="M6016.8 43.3984 5779.1-33.8984 5632.1-236.102 6016.8-361.102Z"/>
<path transform="matrix(.1,0,0,-.1,0,792)" d="M4387.2 13.8984 4002.5-111.102V-515.602L4387.2-640.602 4624.9-313.398" fill="#ffde66"/>
<path transform="matrix(.1,0,0,-.1,0,792)" stroke-width="1" stroke-linecap="butt" stroke-miterlimit="10" stroke-linejoin="miter" fill="none" stroke="#000000" d="M4387.2 13.8984 4002.5-111.102V-515.602L4387.2-640.602 4624.9-313.398Z"/>
<path transform="matrix(.1,0,0,-.1,0,792)" d="M4862.7 13.8984 4624.9-313.398 4771.9-515.602V-765.602L5156.6-890.602 5394.3-563.398 5247.4-361.102V-111.102" fill="#ffffff"/>
<path transform="matrix(.1,0,0,-.1,0,792)" stroke-width="1" stroke-linecap="butt" stroke-miterlimit="10" stroke-linejoin="miter" fill="none" stroke="#000000" d="M4862.7 13.8984 4624.9-313.398 4771.9-515.602V-765.602L5156.6-890.602 5394.3-563.398 5247.4-361.102V-111.102Z"/>
<path transform="matrix(.1,0,0,-.1,0,792)" d="M6051.5 4077.2 6198.5 3874.9V3624.9L6583.2 3499.9 6820.9 3827.2 6674 4029.4V4279.4L6289.3 4404.4" fill="#ffffff"/>
<path transform="matrix(.1,0,0,-.1,0,792)" stroke-width="1" stroke-linecap="butt" stroke-miterlimit="10" stroke-linejoin="miter" fill="none" stroke="#000000" d="M6051.5 4077.2 6198.5 3874.9V3624.9L6583.2 3499.9 6820.9 3827.2 6674 4029.4V4279.4L6289.3 4404.4Z"/>
<path transform="matrix(.1,0,0,-.1,0,792)" d="M6107.6 1227.4 6492.4 1102.4V1506.9L6254.6 1429.6Z" fill="#5c6600"/>
<path transform="matrix(.1,0,0,-.1,0,792)" stroke-width="1" stroke-linecap="butt" stroke-miterlimit="10" stroke-linejoin="miter" fill="none" stroke="#000000" d="M6107.6 1227.4 6492.4 1102.4V1506.9L6254.6 1429.6Z"/>
<path transform="matrix(.1,0,0,-.1,0,792)" d="M6107.6 2036.4 6492.4 1911.4V1506.9L6877.1 1631.9 7114.8 1304.6 7352.6 1631.9 6967.9 1756.9V2161.4L6583.2 2036.4 6345.4 2363.7" fill="#805900"/>
<path transform="matrix(.1,0,0,-.1,0,792)" stroke-width="1" stroke-linecap="butt" stroke-miterlimit="10" stroke-linejoin="miter" fill="none" stroke="#000000" d="M6107.6 2036.4 6492.4 1911.4V1506.9L6877.1 1631.9 7114.8 1304.6 7352.6 1631.9 6967.9 1756.9V2161.4L6583.2 2036.4 6345.4 2363.7Z"/>
</svg>
