<svg xmlns="http://www.w3.org/2000/svg" xmlns:xlink="http://www.w3.org/1999/xlink" xmlns:inkscape="http://www.inkscape.org/namespaces/inkscape" version="1.1" width="612" height="792" viewBox="0 0 612 792">
<path transform="matrix(.1,0,0,-.1,0,792)" d="M2975 3643.1 3125 3903H3425L3275 4162.8 3425 4422.6H3125L2975 4682.4 2825 4422.6H2525L2675 4162.8 2525 3903H2825" fill="#cc9999"/>
<path transform="matrix(.1,0,0,-.1,0,792)" stroke-width="60" stroke-linecap="butt" stroke-linejoin="bevel" fill="none" stroke="#4d0033" d="M2975 3643.1 3125 3903H3425L3275 4162.8 3425 4422.6H3125L2975 4682.4 2825 4422.6H2525L2675 4162.8 2525 3903H2825Z"/>
<path transform="matrix(.1,0,0,-.1,0,792)" d="M3125 4422.6 3425 4942.2 2975 5202 2525 4942.2 2825 4422.6 2975 4682.4" fill="#cc9999"/>
<path transform="matrix(.1,0,0,-.1,0,792)" stroke-width="60" stroke-linecap="butt" stroke-linejoin="bevel" fill="none" stroke="#4d0033" d="M3125 4422.6 3425 4942.2 2975 5202 2525 4942.2 2825 4422.6 2975 4682.4Z"/>
<path transform="matrix(.1,0,0,-.1,0,792)" d="M3125 4422.6H3425L3275 4162.8H3875V4682.4L3425 4942.2" fill="#cc9999"/>
<path transform="matrix(.1,0,0,-.1,0,792)" stroke-width="60" stroke-linecap="butt" stroke-linejoin="bevel" fill="none" stroke="#4d0033" d="M3125 4422.6H3425L3275 4162.8H3875V4682.4L3425 4942.2Z"/>
<path transform="matrix(.1,0,0,-.1,0,792)" d="M2825 4422.6 2525 4942.2 2075 4682.4V4162.8H2675L2525 4422.6" fill="#cc9999"/>
<path transform="matrix(.1,0,0,-.1,0,792)" stroke-width="60" stroke-linecap="butt" stroke-linejoin="bevel" fill="none" stroke="#4d0033" d="M2825 4422.6 2525 4942.2 2075 4682.4V4162.8H2675L2525 4422.6Z"/>
<path transform="matrix(.1,0,0,-.1,0,792)" d="M2825 3903 2525 3383.3 2975 3123.5 3425 3383.3 3125 3903 2975 3643.1" fill="#cc9999"/>
<path transform="matrix(.1,0,0,-.1,0,792)" stroke-width="60" stroke-linecap="butt" stroke-linejoin="bevel" fill="none" stroke="#4d0033" d="M2825 3903 2525 3383.3 2975 3123.5 3425 3383.3 3125 3903 2975 3643.1Z"/>
<path transform="matrix(.1,0,0,-.1,0,792)" d="M2825 3903H2525L2675 4162.8H2075V3643.1L2525 3383.3" fill="#cc9999"/>
<path transform="matrix(.1,0,0,-.1,0,792)" stroke-width="60" stroke-linecap="butt" stroke-linejoin="bevel" fill="none" stroke="#4d0033" d="M2825 3903H2525L2675 4162.8H2075V3643.1L2525 3383.3Z"/>
<path transform="matrix(.1,0,0,-.1,0,792)" d="M3125 3903 3425 3383.3 3875 3643.1V4162.8H3275L3425 3903" fill="#cc9999"/>
<path transform="matrix(.1,0,0,-.1,0,792)" stroke-width="60" stroke-linecap="butt" stroke-linejoin="bevel" fill="none" stroke="#4d0033" d="M3125 3903 3425 3383.3 3875 3643.1V4162.8H3275L3425 3903Z"/>
<path transform="matrix(.1,0,0,-.1,0,792)" d="M3425 4942.2 3725 5461.8H3425L3575 5721.6H2975V5202" fill="#cc9999"/>
<path transform="matrix(.1,0,0,-.1,0,792)" stroke-width="60" stroke-linecap="butt" stroke-linejoin="bevel" fill="none" stroke="#4d0033" d="M3425 4942.2 3725 5461.8H3425L3575 5721.6H2975V5202Z"/>
<path transform="matrix(.1,0,0,-.1,0,792)" d="M3425 4942.2 3875 4682.4 4325 4942.2 4025 5461.8 3875 5202 3725 5461.8" fill="#cc9999"/>
<path transform="matrix(.1,0,0,-.1,0,792)" stroke-width="60" stroke-linecap="butt" stroke-linejoin="bevel" fill="none" stroke="#4d0033" d="M3425 4942.2 3875 4682.4 4325 4942.2 4025 5461.8 3875 5202 3725 5461.8Z"/>
<path transform="matrix(.1,0,0,-.1,0,792)" d="M2525 4942.2 2225 5461.8 2075 5202 1925 5461.8 1625 4942.2 2075 4682.4" fill="#cc9999"/>
<path transform="matrix(.1,0,0,-.1,0,792)" stroke-width="60" stroke-linecap="butt" stroke-linejoin="bevel" fill="none" stroke="#4d0033" d="M2525 4942.2 2225 5461.8 2075 5202 1925 5461.8 1625 4942.2 2075 4682.4Z"/>
<path transform="matrix(.1,0,0,-.1,0,792)" d="M2525 4942.2 2975 5202V5721.6H2375L2525 5461.8H2225" fill="#cc9999"/>
<path transform="matrix(.1,0,0,-.1,0,792)" stroke-width="60" stroke-linecap="butt" stroke-linejoin="bevel" fill="none" stroke="#4d0033" d="M2525 4942.2 2975 5202V5721.6H2375L2525 5461.8H2225Z"/>
<path transform="matrix(.1,0,0,-.1,0,792)" d="M2525 3383.3 2225 2863.7H2525L2375 2603.9H2975V3123.5" fill="#cc9999"/>
<path transform="matrix(.1,0,0,-.1,0,792)" stroke-width="60" stroke-linecap="butt" stroke-linejoin="bevel" fill="none" stroke="#4d0033" d="M2525 3383.3 2225 2863.7H2525L2375 2603.9H2975V3123.5Z"/>
<path transform="matrix(.1,0,0,-.1,0,792)" d="M2525 3383.3 2075 3643.1 1625 3383.3 1925 2863.7 2075 3123.5 2225 2863.7" fill="#cc9999"/>
<path transform="matrix(.1,0,0,-.1,0,792)" stroke-width="60" stroke-linecap="butt" stroke-linejoin="bevel" fill="none" stroke="#4d0033" d="M2525 3383.3 2075 3643.1 1625 3383.3 1925 2863.7 2075 3123.5 2225 2863.7Z"/>
<path transform="matrix(.1,0,0,-.1,0,792)" d="M3425 3383.3 3725 2863.7 3875 3123.5 4025 2863.7 4325 3383.3 3875 3643.1" fill="#cc9999"/>
<path transform="matrix(.1,0,0,-.1,0,792)" stroke-width="60" stroke-linecap="butt" stroke-linejoin="bevel" fill="none" stroke="#4d0033" d="M3425 3383.3 3725 2863.7 3875 3123.5 4025 2863.7 4325 3383.3 3875 3643.1Z"/>
<path transform="matrix(.1,0,0,-.1,0,792)" d="M3425 3383.3 2975 3123.5V2603.9H3575L3425 2863.7H3725" fill="#cc9999"/>
<path transform="matrix(.1,0,0,-.1,0,792)" stroke-width="60" stroke-linecap="butt" stroke-linejoin="bevel" fill="none" stroke="#4d0033" d="M3425 3383.3 2975 3123.5V2603.9H3575L3425 2863.7H3725Z"/>
<path transform="matrix(.1,0,0,-.1,0,792)" d="M3875 3123.5 3725 2863.7H3425L3575 2603.9 3425 2344.1H3725L3875 2084.3 4025 2344.1H4325L4175 2603.9 4325 2863.7H4025" fill="#cc9999"/>
<path transform="matrix(.1,0,0,-.1,0,792)" stroke-width="60" stroke-linecap="butt" stroke-linejoin="bevel" fill="none" stroke="#4d0033" d="M3875 3123.5 3725 2863.7H3425L3575 2603.9 3425 2344.1H3725L3875 2084.3 4025 2344.1H4325L4175 2603.9 4325 2863.7H4025Z"/>
<path transform="matrix(.1,0,0,-.1,0,792)" d="M3875 3643.1 4325 3383.3 4625 3903H4325L4475 4162.8H3875" fill="#cc9999"/>
<path transform="matrix(.1,0,0,-.1,0,792)" stroke-width="60" stroke-linecap="butt" stroke-linejoin="bevel" fill="none" stroke="#4d0033" d="M3875 3643.1 4325 3383.3 4625 3903H4325L4475 4162.8H3875Z"/>
<path transform="matrix(.1,0,0,-.1,0,792)" d="M3875 4162.8H4475L4325 4422.6H4625L4325 4942.2 3875 4682.4" fill="#cc9999"/>
<path transform="matrix(.1,0,0,-.1,0,792)" stroke-width="60" stroke-linecap="butt" stroke-linejoin="bevel" fill="none" stroke="#4d0033" d="M3875 4162.8H4475L4325 4422.6H4625L4325 4942.2 3875 4682.4Z"/>
<path transform="matrix(.1,0,0,-.1,0,792)" d="M3875 5202 4025 5461.8H4325L4175 5721.6 4325 5981.4H4025L3875 6241.2 3725 5981.4H3425L3575 5721.6 3425 5461.8H3725" fill="#cc9999"/>
<path transform="matrix(.1,0,0,-.1,0,792)" stroke-width="60" stroke-linecap="butt" stroke-linejoin="bevel" fill="none" stroke="#4d0033" d="M3875 5202 4025 5461.8H4325L4175 5721.6 4325 5981.4H4025L3875 6241.2 3725 5981.4H3425L3575 5721.6 3425 5461.8H3725Z"/>
<path transform="matrix(.1,0,0,-.1,0,792)" d="M2075 5202 2225 5461.8H2525L2375 5721.6 2525 5981.4H2225L2075 6241.2 1925 5981.4H1625L1775 5721.6 1625 5461.8H1925" fill="#cc9999"/>
<path transform="matrix(.1,0,0,-.1,0,792)" stroke-width="60" stroke-linecap="butt" stroke-linejoin="bevel" fill="none" stroke="#4d0033" d="M2075 5202 2225 5461.8H2525L2375 5721.6 2525 5981.4H2225L2075 6241.2 1925 5981.4H1625L1775 5721.6 1625 5461.8H1925Z"/>
<path transform="matrix(.1,0,0,-.1,0,792)" d="M2075 4682.4 1625 4942.2 1325 4422.6H1625L1475 4162.8H2075" fill="#cc9999"/>
<path transform="matrix(.1,0,0,-.1,0,792)" stroke-width="60" stroke-linecap="butt" stroke-linejoin="bevel" fill="none" stroke="#4d0033" d="M2075 4682.4 1625 4942.2 1325 4422.6H1625L1475 4162.8H2075Z"/>
<path transform="matrix(.1,0,0,-.1,0,792)" d="M2075 4162.8H1475L1625 3903H1325L1625 3383.3 2075 3643.1" fill="#cc9999"/>
<path transform="matrix(.1,0,0,-.1,0,792)" stroke-width="60" stroke-linecap="butt" stroke-linejoin="bevel" fill="none" stroke="#4d0033" d="M2075 4162.8H1475L1625 3903H1325L1625 3383.3 2075 3643.1Z"/>
<path transform="matrix(.1,0,0,-.1,0,792)" d="M2075 3123.5 1925 2863.7H1625L1775 2603.9 1625 2344.1H1925L2075 2084.3 2225 2344.1H2525L2375 2603.9 2525 2863.7H2225" fill="#cc9999"/>
<path transform="matrix(.1,0,0,-.1,0,792)" stroke-width="60" stroke-linecap="butt" stroke-linejoin="bevel" fill="none" stroke="#4d0033" d="M2075 3123.5 1925 2863.7H1625L1775 2603.9 1625 2344.1H1925L2075 2084.3 2225 2344.1H2525L2375 2603.9 2525 2863.7H2225Z"/>
<path transform="matrix(.1,0,0,-.1,0,792)" d="M1925 2863.7 1625 3383.3 1175 3123.5V2603.9H1775L1625 2863.7" fill="#cc9999"/>
<path transform="matrix(.1,0,0,-.1,0,792)" stroke-width="60" stroke-linecap="butt" stroke-linejoin="bevel" fill="none" stroke="#4d0033" d="M1925 2863.7 1625 3383.3 1175 3123.5V2603.9H1775L1625 2863.7Z"/>
<path transform="matrix(.1,0,0,-.1,0,792)" d="M4025 2863.7H4325L4175 2603.9H4775V3123.5L4325 3383.3" fill="#cc9999"/>
<path transform="matrix(.1,0,0,-.1,0,792)" stroke-width="60" stroke-linecap="butt" stroke-linejoin="bevel" fill="none" stroke="#4d0033" d="M4025 2863.7H4325L4175 2603.9H4775V3123.5L4325 3383.3Z"/>
<path transform="matrix(.1,0,0,-.1,0,792)" d="M4025 5461.8 4325 4942.2 4775 5202V5721.6H4175L4325 5461.8" fill="#cc9999"/>
<path transform="matrix(.1,0,0,-.1,0,792)" stroke-width="60" stroke-linecap="butt" stroke-linejoin="bevel" fill="none" stroke="#4d0033" d="M4025 5461.8 4325 4942.2 4775 5202V5721.6H4175L4325 5461.8Z"/>
<path transform="matrix(.1,0,0,-.1,0,792)" d="M1925 5461.8H1625L1775 5721.6H1175V5202L1625 4942.2" fill="#cc9999"/>
<path transform="matrix(.1,0,0,-.1,0,792)" stroke-width="60" stroke-linecap="butt" stroke-linejoin="bevel" fill="none" stroke="#4d0033" d="M1925 5461.8H1625L1775 5721.6H1175V5202L1625 4942.2Z"/>
<path transform="matrix(.1,0,0,-.1,0,792)" d="M3575 5721.6 3425 5981.4H3725L3425 6501 2975 6241.2V5721.6" fill="#cc9999"/>
<path transform="matrix(.1,0,0,-.1,0,792)" stroke-width="60" stroke-linecap="butt" stroke-linejoin="bevel" fill="none" stroke="#4d0033" d="M3575 5721.6 3425 5981.4H3725L3425 6501 2975 6241.2V5721.6Z"/>
<path transform="matrix(.1,0,0,-.1,0,792)" d="M2975 5721.6V6241.2L2525 6501 2225 5981.4H2525L2375 5721.6" fill="#cc9999"/>
<path transform="matrix(.1,0,0,-.1,0,792)" stroke-width="60" stroke-linecap="butt" stroke-linejoin="bevel" fill="none" stroke="#4d0033" d="M2975 5721.6V6241.2L2525 6501 2225 5981.4H2525L2375 5721.6Z"/>
<path transform="matrix(.1,0,0,-.1,0,792)" d="M2375 2603.9 2525 2344.1H2225L2525 1824.5 2975 2084.3V2603.9" fill="#cc9999"/>
<path transform="matrix(.1,0,0,-.1,0,792)" stroke-width="60" stroke-linecap="butt" stroke-linejoin="bevel" fill="none" stroke="#4d0033" d="M2375 2603.9 2525 2344.1H2225L2525 1824.5 2975 2084.3V2603.9Z"/>
<path transform="matrix(.1,0,0,-.1,0,792)" d="M2975 2603.9V2084.3L3425 1824.5 3725 2344.1H3425L3575 2603.9" fill="#cc9999"/>
<path transform="matrix(.1,0,0,-.1,0,792)" stroke-width="60" stroke-linecap="butt" stroke-linejoin="bevel" fill="none" stroke="#4d0033" d="M2975 2603.9V2084.3L3425 1824.5 3725 2344.1H3425L3575 2603.9Z"/>
<path transform="matrix(.1,0,0,-.1,0,792)" d="M4175 2603.9 4325 2344.1H4025L4325 1824.5 4775 2084.3V2603.9" fill="#cc9999"/>
<path transform="matrix(.1,0,0,-.1,0,792)" stroke-width="60" stroke-linecap="butt" stroke-linejoin="bevel" fill="none" stroke="#4d0033" d="M4175 2603.9 4325 2344.1H4025L4325 1824.5 4775 2084.3V2603.9Z"/>
<path transform="matrix(.1,0,0,-.1,0,792)" d="M4175 5721.6H4775V6241.2L4325 6501 4025 5981.4H4325" fill="#cc9999"/>
<path transform="matrix(.1,0,0,-.1,0,792)" stroke-width="60" stroke-linecap="butt" stroke-linejoin="bevel" fill="none" stroke="#4d0033" d="M4175 5721.6H4775V6241.2L4325 6501 4025 5981.4H4325Z"/>
<path transform="matrix(.1,0,0,-.1,0,792)" d="M1775 5721.6 1625 5981.4H1925L1625 6501 1175 6241.2V5721.6" fill="#cc9999"/>
<path transform="matrix(.1,0,0,-.1,0,792)" stroke-width="60" stroke-linecap="butt" stroke-linejoin="bevel" fill="none" stroke="#4d0033" d="M1775 5721.6 1625 5981.4H1925L1625 6501 1175 6241.2V5721.6Z"/>
<path transform="matrix(.1,0,0,-.1,0,792)" d="M1775 2603.9H1175V2084.3L1625 1824.5 1925 2344.1H1625" fill="#cc9999"/>
<path transform="matrix(.1,0,0,-.1,0,792)" stroke-width="60" stroke-linecap="butt" stroke-linejoin="bevel" fill="none" stroke="#4d0033" d="M1775 2603.9H1175V2084.3L1625 1824.5 1925 2344.1H1625Z"/>
<path transform="matrix(.1,0,0,-.1,0,792)" d="M4025 5981.4 4325 6501 3875 6760.8 3425 6501 3725 5981.4 3875 6241.2" fill="#cc9999"/>
<path transform="matrix(.1,0,0,-.1,0,792)" stroke-width="60" stroke-linecap="butt" stroke-linejoin="bevel" fill="none" stroke="#4d0033" d="M4025 5981.4 4325 6501 3875 6760.8 3425 6501 3725 5981.4 3875 6241.2Z"/>
<path transform="matrix(.1,0,0,-.1,0,792)" d="M2225 5981.4 2525 6501 2075 6760.8 1625 6501 1925 5981.4 2075 6241.2" fill="#cc9999"/>
<path transform="matrix(.1,0,0,-.1,0,792)" stroke-width="60" stroke-linecap="butt" stroke-linejoin="bevel" fill="none" stroke="#4d0033" d="M2225 5981.4 2525 6501 2075 6760.8 1625 6501 1925 5981.4 2075 6241.2Z"/>
<path transform="matrix(.1,0,0,-.1,0,792)" d="M1625 4942.2 1175 5202 725 4942.2 1025 4422.6 1175 4682.4 1325 4422.6" fill="#cc9999"/>
<path transform="matrix(.1,0,0,-.1,0,792)" stroke-width="60" stroke-linecap="butt" stroke-linejoin="bevel" fill="none" stroke="#4d0033" d="M1625 4942.2 1175 5202 725 4942.2 1025 4422.6 1175 4682.4 1325 4422.6Z"/>
<path transform="matrix(.1,0,0,-.1,0,792)" d="M1625 4422.6H1325L1175 4682.4 1025 4422.6H725L875 4162.8 725 3903H1025L1175 3643.1 1325 3903H1625L1475 4162.8" fill="#cc9999"/>
<path transform="matrix(.1,0,0,-.1,0,792)" stroke-width="60" stroke-linecap="butt" stroke-linejoin="bevel" fill="none" stroke="#4d0033" d="M1625 4422.6H1325L1175 4682.4 1025 4422.6H725L875 4162.8 725 3903H1025L1175 3643.1 1325 3903H1625L1475 4162.8Z"/>
<path transform="matrix(.1,0,0,-.1,0,792)" d="M1625 3383.3 1325 3903 1175 3643.1 1025 3903 725 3383.3 1175 3123.5" fill="#cc9999"/>
<path transform="matrix(.1,0,0,-.1,0,792)" stroke-width="60" stroke-linecap="butt" stroke-linejoin="bevel" fill="none" stroke="#4d0033" d="M1625 3383.3 1325 3903 1175 3643.1 1025 3903 725 3383.3 1175 3123.5Z"/>
<path transform="matrix(.1,0,0,-.1,0,792)" d="M4325 3383.3 4775 3123.5 5225 3383.3 4925 3903 4775 3643.1 4625 3903" fill="#cc9999"/>
<path transform="matrix(.1,0,0,-.1,0,792)" stroke-width="60" stroke-linecap="butt" stroke-linejoin="bevel" fill="none" stroke="#4d0033" d="M4325 3383.3 4775 3123.5 5225 3383.3 4925 3903 4775 3643.1 4625 3903Z"/>
<path transform="matrix(.1,0,0,-.1,0,792)" d="M4325 3903H4625L4775 3643.1 4925 3903H5225L5075 4162.8 5225 4422.6H4925L4775 4682.4 4625 4422.6H4325L4475 4162.8" fill="#cc9999"/>
<path transform="matrix(.1,0,0,-.1,0,792)" stroke-width="60" stroke-linecap="butt" stroke-linejoin="bevel" fill="none" stroke="#4d0033" d="M4325 3903H4625L4775 3643.1 4925 3903H5225L5075 4162.8 5225 4422.6H4925L4775 4682.4 4625 4422.6H4325L4475 4162.8Z"/>
<path transform="matrix(.1,0,0,-.1,0,792)" d="M4325 4942.2 4625 4422.6 4775 4682.4 4925 4422.6 5225 4942.2 4775 5202" fill="#cc9999"/>
<path transform="matrix(.1,0,0,-.1,0,792)" stroke-width="60" stroke-linecap="butt" stroke-linejoin="bevel" fill="none" stroke="#4d0033" d="M4325 4942.2 4625 4422.6 4775 4682.4 4925 4422.6 5225 4942.2 4775 5202Z"/>
<path transform="matrix(.1,0,0,-.1,0,792)" d="M1925 2344.1 1625 1824.5 2075 1564.7 2525 1824.5 2225 2344.1 2075 2084.3" fill="#cc9999"/>
<path transform="matrix(.1,0,0,-.1,0,792)" stroke-width="60" stroke-linecap="butt" stroke-linejoin="bevel" fill="none" stroke="#4d0033" d="M1925 2344.1 1625 1824.5 2075 1564.7 2525 1824.5 2225 2344.1 2075 2084.3Z"/>
<path transform="matrix(.1,0,0,-.1,0,792)" d="M3725 2344.1 3425 1824.5 3875 1564.7 4325 1824.5 4025 2344.1 3875 2084.3" fill="#cc9999"/>
<path transform="matrix(.1,0,0,-.1,0,792)" stroke-width="60" stroke-linecap="butt" stroke-linejoin="bevel" fill="none" stroke="#4d0033" d="M3725 2344.1 3425 1824.5 3875 1564.7 4325 1824.5 4025 2344.1 3875 2084.3Z"/>
<path transform="matrix(.1,0,0,-.1,0,792)" d="M2975 6241.2 3425 6501 3125 7020.6 2975 6760.8 2825 7020.6 2525 6501" fill="#cc9999"/>
<path transform="matrix(.1,0,0,-.1,0,792)" stroke-width="60" stroke-linecap="butt" stroke-linejoin="bevel" fill="none" stroke="#4d0033" d="M2975 6241.2 3425 6501 3125 7020.6 2975 6760.8 2825 7020.6 2525 6501Z"/>
<path transform="matrix(.1,0,0,-.1,0,792)" d="M2975 2084.3 2525 1824.5 2825 1304.9 2975 1564.7 3125 1304.9 3425 1824.5" fill="#cc9999"/>
<path transform="matrix(.1,0,0,-.1,0,792)" stroke-width="60" stroke-linecap="butt" stroke-linejoin="bevel" fill="none" stroke="#4d0033" d="M2975 2084.3 2525 1824.5 2825 1304.9 2975 1564.7 3125 1304.9 3425 1824.5Z"/>
<path transform="matrix(.1,0,0,-.1,0,792)" d="M4325 6501 4625 7020.6H4325L4475 7280.5H3875V6760.8" fill="#cc9999"/>
<path transform="matrix(.1,0,0,-.1,0,792)" stroke-width="60" stroke-linecap="butt" stroke-linejoin="bevel" fill="none" stroke="#4d0033" d="M4325 6501 4625 7020.6H4325L4475 7280.5H3875V6760.8Z"/>
<path transform="matrix(.1,0,0,-.1,0,792)" d="M4325 6501 4775 6241.2 5225 6501 4925 7020.6 4775 6760.8 4625 7020.6" fill="#cc9999"/>
<path transform="matrix(.1,0,0,-.1,0,792)" stroke-width="60" stroke-linecap="butt" stroke-linejoin="bevel" fill="none" stroke="#4d0033" d="M4325 6501 4775 6241.2 5225 6501 4925 7020.6 4775 6760.8 4625 7020.6Z"/>
<path transform="matrix(.1,0,0,-.1,0,792)" d="M3425 6501 3875 6760.8V7280.5H3275L3425 7020.6H3125" fill="#cc9999"/>
<path transform="matrix(.1,0,0,-.1,0,792)" stroke-width="60" stroke-linecap="butt" stroke-linejoin="bevel" fill="none" stroke="#4d0033" d="M3425 6501 3875 6760.8V7280.5H3275L3425 7020.6H3125Z"/>
<path transform="matrix(.1,0,0,-.1,0,792)" d="M2525 6501 2825 7020.6H2525L2675 7280.5H2075V6760.8" fill="#cc9999"/>
<path transform="matrix(.1,0,0,-.1,0,792)" stroke-width="60" stroke-linecap="butt" stroke-linejoin="bevel" fill="none" stroke="#4d0033" d="M2525 6501 2825 7020.6H2525L2675 7280.5H2075V6760.8Z"/>
<path transform="matrix(.1,0,0,-.1,0,792)" d="M1625 6501 1325 7020.6 1175 6760.8 1025 7020.6 725 6501 1175 6241.2" fill="#cc9999"/>
<path transform="matrix(.1,0,0,-.1,0,792)" stroke-width="60" stroke-linecap="butt" stroke-linejoin="bevel" fill="none" stroke="#4d0033" d="M1625 6501 1325 7020.6 1175 6760.8 1025 7020.6 725 6501 1175 6241.2Z"/>
<path transform="matrix(.1,0,0,-.1,0,792)" d="M1625 6501 2075 6760.8V7280.5H1475L1625 7020.6H1325" fill="#cc9999"/>
<path transform="matrix(.1,0,0,-.1,0,792)" stroke-width="60" stroke-linecap="butt" stroke-linejoin="bevel" fill="none" stroke="#4d0033" d="M1625 6501 2075 6760.8V7280.5H1475L1625 7020.6H1325Z"/>
<path transform="matrix(.1,0,0,-.1,0,792)" d="M1625 1824.5 1325 1304.9H1625L1475 1045.1H2075V1564.7" fill="#cc9999"/>
<path transform="matrix(.1,0,0,-.1,0,792)" stroke-width="60" stroke-linecap="butt" stroke-linejoin="bevel" fill="none" stroke="#4d0033" d="M1625 1824.5 1325 1304.9H1625L1475 1045.1H2075V1564.7Z"/>
<path transform="matrix(.1,0,0,-.1,0,792)" d="M1625 1824.5 1175 2084.3 725 1824.5 1025 1304.9 1175 1564.7 1325 1304.9" fill="#cc9999"/>
<path transform="matrix(.1,0,0,-.1,0,792)" stroke-width="60" stroke-linecap="butt" stroke-linejoin="bevel" fill="none" stroke="#4d0033" d="M1625 1824.5 1175 2084.3 725 1824.5 1025 1304.9 1175 1564.7 1325 1304.9Z"/>
<path transform="matrix(.1,0,0,-.1,0,792)" d="M2525 1824.5 2075 1564.7V1045.1H2675L2525 1304.9H2825" fill="#cc9999"/>
<path transform="matrix(.1,0,0,-.1,0,792)" stroke-width="60" stroke-linecap="butt" stroke-linejoin="bevel" fill="none" stroke="#4d0033" d="M2525 1824.5 2075 1564.7V1045.1H2675L2525 1304.9H2825Z"/>
<path transform="matrix(.1,0,0,-.1,0,792)" d="M3425 1824.5 3125 1304.9H3425L3275 1045.1H3875V1564.7" fill="#cc9999"/>
<path transform="matrix(.1,0,0,-.1,0,792)" stroke-width="60" stroke-linecap="butt" stroke-linejoin="bevel" fill="none" stroke="#4d0033" d="M3425 1824.5 3125 1304.9H3425L3275 1045.1H3875V1564.7Z"/>
<path transform="matrix(.1,0,0,-.1,0,792)" d="M4325 1824.5 4625 1304.9 4775 1564.7 4925 1304.9 5225 1824.5 4775 2084.3" fill="#cc9999"/>
<path transform="matrix(.1,0,0,-.1,0,792)" stroke-width="60" stroke-linecap="butt" stroke-linejoin="bevel" fill="none" stroke="#4d0033" d="M4325 1824.5 4625 1304.9 4775 1564.7 4925 1304.9 5225 1824.5 4775 2084.3Z"/>
<path transform="matrix(.1,0,0,-.1,0,792)" d="M4325 1824.5 3875 1564.7V1045.1H4475L4325 1304.9H4625" fill="#cc9999"/>
<path transform="matrix(.1,0,0,-.1,0,792)" stroke-width="60" stroke-linecap="butt" stroke-linejoin="bevel" fill="none" stroke="#4d0033" d="M4325 1824.5 3875 1564.7V1045.1H4475L4325 1304.9H4625Z"/>
<path transform="matrix(.1,0,0,-.1,0,792)" d="M4775 2084.3 5225 1824.5 5525 2344.1H5225L5375 2603.9H4775" fill="#cc9999"/>
<path transform="matrix(.1,0,0,-.1,0,792)" stroke-width="60" stroke-linecap="butt" stroke-linejoin="bevel" fill="none" stroke="#4d0033" d="M4775 2084.3 5225 1824.5 5525 2344.1H5225L5375 2603.9H4775Z"/>
<path transform="matrix(.1,0,0,-.1,0,792)" d="M4775 2603.9H5375L5225 2863.7H5525L5225 3383.3 4775 3123.5" fill="#cc9999"/>
<path transform="matrix(.1,0,0,-.1,0,792)" stroke-width="60" stroke-linecap="butt" stroke-linejoin="bevel" fill="none" stroke="#4d0033" d="M4775 2603.9H5375L5225 2863.7H5525L5225 3383.3 4775 3123.5Z"/>
<path transform="matrix(.1,0,0,-.1,0,792)" d="M4775 5202 5225 4942.2 5525 5461.8H5225L5375 5721.6H4775" fill="#cc9999"/>
<path transform="matrix(.1,0,0,-.1,0,792)" stroke-width="60" stroke-linecap="butt" stroke-linejoin="bevel" fill="none" stroke="#4d0033" d="M4775 5202 5225 4942.2 5525 5461.8H5225L5375 5721.6H4775Z"/>
<path transform="matrix(.1,0,0,-.1,0,792)" d="M4775 5721.6H5375L5225 5981.4H5525L5225 6501 4775 6241.2" fill="#cc9999"/>
<path transform="matrix(.1,0,0,-.1,0,792)" stroke-width="60" stroke-linecap="butt" stroke-linejoin="bevel" fill="none" stroke="#4d0033" d="M4775 5721.6H5375L5225 5981.4H5525L5225 6501 4775 6241.2Z"/>
<path transform="matrix(.1,0,0,-.1,0,792)" d="M1175 6241.2 725 6501 425 5981.4H725L575 5721.6H1175" fill="#cc9999"/>
<path transform="matrix(.1,0,0,-.1,0,792)" stroke-width="60" stroke-linecap="butt" stroke-linejoin="bevel" fill="none" stroke="#4d0033" d="M1175 6241.2 725 6501 425 5981.4H725L575 5721.6H1175Z"/>
<path transform="matrix(.1,0,0,-.1,0,792)" d="M1175 5721.6H575L725 5461.8H425L725 4942.2 1175 5202" fill="#cc9999"/>
<path transform="matrix(.1,0,0,-.1,0,792)" stroke-width="60" stroke-linecap="butt" stroke-linejoin="bevel" fill="none" stroke="#4d0033" d="M1175 5721.6H575L725 5461.8H425L725 4942.2 1175 5202Z"/>
<path transform="matrix(.1,0,0,-.1,0,792)" d="M1175 3123.5 725 3383.3 425 2863.7H725L575 2603.9H1175" fill="#cc9999"/>
<path transform="matrix(.1,0,0,-.1,0,792)" stroke-width="60" stroke-linecap="butt" stroke-linejoin="bevel" fill="none" stroke="#4d0033" d="M1175 3123.5 725 3383.3 425 2863.7H725L575 2603.9H1175Z"/>
<path transform="matrix(.1,0,0,-.1,0,792)" d="M1175 2603.9H575L725 2344.1H425L725 1824.5 1175 2084.3" fill="#cc9999"/>
<path transform="matrix(.1,0,0,-.1,0,792)" stroke-width="60" stroke-linecap="butt" stroke-linejoin="bevel" fill="none" stroke="#4d0033" d="M1175 2603.9H575L725 2344.1H425L725 1824.5 1175 2084.3Z"/>
<path transform="matrix(.1,0,0,-.1,0,792)" d="M4775 6760.8 4925 7020.6H5225L5075 7280.5 5225 7540.3H4925L4775 7800.1 4625 7540.3H4325L4475 7280.5 4325 7020.6H4625" fill="#cc9999"/>
<path transform="matrix(.1,0,0,-.1,0,792)" stroke-width="60" stroke-linecap="butt" stroke-linejoin="bevel" fill="none" stroke="#4d0033" d="M4775 6760.8 4925 7020.6H5225L5075 7280.5 5225 7540.3H4925L4775 7800.1 4625 7540.3H4325L4475 7280.5 4325 7020.6H4625Z"/>
<path transform="matrix(.1,0,0,-.1,0,792)" d="M2975 6760.8 3125 7020.6H3425L3275 7280.5 3425 7540.3H3125L2975 7800.1 2825 7540.3H2525L2675 7280.5 2525 7020.6H2825" fill="#cc9999"/>
<path transform="matrix(.1,0,0,-.1,0,792)" stroke-width="60" stroke-linecap="butt" stroke-linejoin="bevel" fill="none" stroke="#4d0033" d="M2975 6760.8 3125 7020.6H3425L3275 7280.5 3425 7540.3H3125L2975 7800.1 2825 7540.3H2525L2675 7280.5 2525 7020.6H2825Z"/>
<path transform="matrix(.1,0,0,-.1,0,792)" d="M1175 6760.8 1325 7020.6H1625L1475 7280.5 1625 7540.3H1325L1175 7800.1 1025 7540.3H725L875 7280.5 725 7020.6H1025" fill="#cc9999"/>
<path transform="matrix(.1,0,0,-.1,0,792)" stroke-width="60" stroke-linecap="butt" stroke-linejoin="bevel" fill="none" stroke="#4d0033" d="M1175 6760.8 1325 7020.6H1625L1475 7280.5 1625 7540.3H1325L1175 7800.1 1025 7540.3H725L875 7280.5 725 7020.6H1025Z"/>
<path transform="matrix(.1,0,0,-.1,0,792)" d="M1175 1564.7 1025 1304.9H725L875 1045.1 725 785.301H1025L1175 525.5 1325 785.301H1625L1475 1045.1 1625 1304.9H1325" fill="#cc9999"/>
<path transform="matrix(.1,0,0,-.1,0,792)" stroke-width="60" stroke-linecap="butt" stroke-linejoin="bevel" fill="none" stroke="#4d0033" d="M1175 1564.7 1025 1304.9H725L875 1045.1 725 785.301H1025L1175 525.5 1325 785.301H1625L1475 1045.1 1625 1304.9H1325Z"/>
<path transform="matrix(.1,0,0,-.1,0,792)" d="M2975 1564.7 2825 1304.9H2525L2675 1045.1 2525 785.301H2825L2975 525.5 3125 785.301H3425L3275 1045.1 3425 1304.9H3125" fill="#cc9999"/>
<path transform="matrix(.1,0,0,-.1,0,792)" stroke-width="60" stroke-linecap="butt" stroke-linejoin="bevel" fill="none" stroke="#4d0033" d="M2975 1564.7 2825 1304.9H2525L2675 1045.1 2525 785.301H2825L2975 525.5 3125 785.301H3425L3275 1045.1 3425 1304.9H3125Z"/>
<path transform="matrix(.1,0,0,-.1,0,792)" d="M4775 1564.7 4625 1304.9H4325L4475 1045.1 4325 785.301H4625L4775 525.5 4925 785.301H5225L5075 1045.1 5225 1304.9H4925" fill="#cc9999"/>
<path transform="matrix(.1,0,0,-.1,0,792)" stroke-width="60" stroke-linecap="butt" stroke-linejoin="bevel" fill="none" stroke="#4d0033" d="M4775 1564.7 4625 1304.9H4325L4475 1045.1 4325 785.301H4625L4775 525.5 4925 785.301H5225L5075 1045.1 5225 1304.9H4925Z"/>
<path transform="matrix(.1,0,0,-.1,0,792)" d="M4925 3903 5225 3383.3 5675 3643.1V4162.8H5075L5225 3903" fill="#cc9999"/>
<path transform="matrix(.1,0,0,-.1,0,792)" stroke-width="60" stroke-linecap="butt" stroke-linejoin="bevel" fill="none" stroke="#4d0033" d="M4925 3903 5225 3383.3 5675 3643.1V4162.8H5075L5225 3903Z"/>
<path transform="matrix(.1,0,0,-.1,0,792)" d="M4925 4422.6H5225L5075 4162.8H5675V4682.4L5225 4942.2" fill="#cc9999"/>
<path transform="matrix(.1,0,0,-.1,0,792)" stroke-width="60" stroke-linecap="butt" stroke-linejoin="bevel" fill="none" stroke="#4d0033" d="M4925 4422.6H5225L5075 4162.8H5675V4682.4L5225 4942.2Z"/>
<path transform="matrix(.1,0,0,-.1,0,792)" d="M1025 4422.6 725 4942.2 275 4682.4V4162.8H875L725 4422.6" fill="#cc9999"/>
<path transform="matrix(.1,0,0,-.1,0,792)" stroke-width="60" stroke-linecap="butt" stroke-linejoin="bevel" fill="none" stroke="#4d0033" d="M1025 4422.6 725 4942.2 275 4682.4V4162.8H875L725 4422.6Z"/>
<path transform="matrix(.1,0,0,-.1,0,792)" d="M1025 3903H725L875 4162.8H275V3643.1L725 3383.3" fill="#cc9999"/>
<path transform="matrix(.1,0,0,-.1,0,792)" stroke-width="60" stroke-linecap="butt" stroke-linejoin="bevel" fill="none" stroke="#4d0033" d="M1025 3903H725L875 4162.8H275V3643.1L725 3383.3Z"/>
<path transform="matrix(.1,0,0,-.1,0,792)" d="M4925 7020.6 5225 6501 5675 6760.8V7280.5H5075L5225 7020.6" fill="#cc9999"/>
<path transform="matrix(.1,0,0,-.1,0,792)" stroke-width="60" stroke-linecap="butt" stroke-linejoin="bevel" fill="none" stroke="#4d0033" d="M4925 7020.6 5225 6501 5675 6760.8V7280.5H5075L5225 7020.6Z"/>
<path transform="matrix(.1,0,0,-.1,0,792)" d="M1025 7020.6H725L875 7280.5H275V6760.8L725 6501" fill="#cc9999"/>
<path transform="matrix(.1,0,0,-.1,0,792)" stroke-width="60" stroke-linecap="butt" stroke-linejoin="bevel" fill="none" stroke="#4d0033" d="M1025 7020.6H725L875 7280.5H275V6760.8L725 6501Z"/>
<path transform="matrix(.1,0,0,-.1,0,792)" d="M1025 1304.9 725 1824.5 275 1564.7V1045.1H875L725 1304.9" fill="#cc9999"/>
<path transform="matrix(.1,0,0,-.1,0,792)" stroke-width="60" stroke-linecap="butt" stroke-linejoin="bevel" fill="none" stroke="#4d0033" d="M1025 1304.9 725 1824.5 275 1564.7V1045.1H875L725 1304.9Z"/>
<path transform="matrix(.1,0,0,-.1,0,792)" d="M4925 1304.9H5225L5075 1045.1H5675V1564.7L5225 1824.5" fill="#cc9999"/>
<path transform="matrix(.1,0,0,-.1,0,792)" stroke-width="60" stroke-linecap="butt" stroke-linejoin="bevel" fill="none" stroke="#4d0033" d="M4925 1304.9H5225L5075 1045.1H5675V1564.7L5225 1824.5Z"/>
<path transform="matrix(.1,0,0,-.1,0,792)" d="M5075 7280.5H5675V7800.1L5225 8059.9 4925 7540.3H5225" fill="#cc9999"/>
<path transform="matrix(.1,0,0,-.1,0,792)" stroke-width="60" stroke-linecap="butt" stroke-linejoin="bevel" fill="none" stroke="#4d0033" d="M5075 7280.5H5675V7800.1L5225 8059.9 4925 7540.3H5225Z"/>
<path transform="matrix(.1,0,0,-.1,0,792)" d="M4475 7280.5 4325 7540.3H4625L4325 8059.9 3875 7800.1V7280.5" fill="#cc9999"/>
<path transform="matrix(.1,0,0,-.1,0,792)" stroke-width="60" stroke-linecap="butt" stroke-linejoin="bevel" fill="none" stroke="#4d0033" d="M4475 7280.5 4325 7540.3H4625L4325 8059.9 3875 7800.1V7280.5Z"/>
<path transform="matrix(.1,0,0,-.1,0,792)" d="M3875 7280.5V7800.1L3425 8059.9 3125 7540.3H3425L3275 7280.5" fill="#cc9999"/>
<path transform="matrix(.1,0,0,-.1,0,792)" stroke-width="60" stroke-linecap="butt" stroke-linejoin="bevel" fill="none" stroke="#4d0033" d="M3875 7280.5V7800.1L3425 8059.9 3125 7540.3H3425L3275 7280.5Z"/>
<path transform="matrix(.1,0,0,-.1,0,792)" d="M2675 7280.5 2525 7540.3H2825L2525 8059.9 2075 7800.1V7280.5" fill="#cc9999"/>
<path transform="matrix(.1,0,0,-.1,0,792)" stroke-width="60" stroke-linecap="butt" stroke-linejoin="bevel" fill="none" stroke="#4d0033" d="M2675 7280.5 2525 7540.3H2825L2525 8059.9 2075 7800.1V7280.5Z"/>
<path transform="matrix(.1,0,0,-.1,0,792)" d="M2075 7280.5V7800.1L1625 8059.9 1325 7540.3H1625L1475 7280.5" fill="#cc9999"/>
<path transform="matrix(.1,0,0,-.1,0,792)" stroke-width="60" stroke-linecap="butt" stroke-linejoin="bevel" fill="none" stroke="#4d0033" d="M2075 7280.5V7800.1L1625 8059.9 1325 7540.3H1625L1475 7280.5Z"/>
<path transform="matrix(.1,0,0,-.1,0,792)" d="M875 7280.5 725 7540.3H1025L725 8059.9 275 7800.1V7280.5" fill="#cc9999"/>
<path transform="matrix(.1,0,0,-.1,0,792)" stroke-width="60" stroke-linecap="butt" stroke-linejoin="bevel" fill="none" stroke="#4d0033" d="M875 7280.5 725 7540.3H1025L725 8059.9 275 7800.1V7280.5Z"/>
<path transform="matrix(.1,0,0,-.1,0,792)" d="M725 6501 275 6760.8-175 6501 125 5981.4 275 6241.2 425 5981.4" fill="#cc9999"/>
<path transform="matrix(.1,0,0,-.1,0,792)" stroke-width="60" stroke-linecap="butt" stroke-linejoin="bevel" fill="none" stroke="#4d0033" d="M725 6501 275 6760.8-175 6501 125 5981.4 275 6241.2 425 5981.4Z"/>
<path transform="matrix(.1,0,0,-.1,0,792)" d="M725 5981.4H425L275 6241.2 125 5981.4H-175L-25 5721.6-175 5461.8H125L275 5202 425 5461.8H725L575 5721.6" fill="#cc9999"/>
<path transform="matrix(.1,0,0,-.1,0,792)" stroke-width="60" stroke-linecap="butt" stroke-linejoin="bevel" fill="none" stroke="#4d0033" d="M725 5981.4H425L275 6241.2 125 5981.4H-175L-25 5721.6-175 5461.8H125L275 5202 425 5461.8H725L575 5721.6Z"/>
<path transform="matrix(.1,0,0,-.1,0,792)" d="M725 4942.2 425 5461.8 275 5202 125 5461.8-175 4942.2 275 4682.4" fill="#cc9999"/>
<path transform="matrix(.1,0,0,-.1,0,792)" stroke-width="60" stroke-linecap="butt" stroke-linejoin="bevel" fill="none" stroke="#4d0033" d="M725 4942.2 425 5461.8 275 5202 125 5461.8-175 4942.2 275 4682.4Z"/>
<path transform="matrix(.1,0,0,-.1,0,792)" d="M725 3383.3 275 3643.1-175 3383.3 125 2863.7 275 3123.5 425 2863.7" fill="#cc9999"/>
<path transform="matrix(.1,0,0,-.1,0,792)" stroke-width="60" stroke-linecap="butt" stroke-linejoin="bevel" fill="none" stroke="#4d0033" d="M725 3383.3 275 3643.1-175 3383.3 125 2863.7 275 3123.5 425 2863.7Z"/>
<path transform="matrix(.1,0,0,-.1,0,792)" d="M725 2863.7H425L275 3123.5 125 2863.7H-175L-25 2603.9-175 2344.1H125L275 2084.3 425 2344.1H725L575 2603.9" fill="#cc9999"/>
<path transform="matrix(.1,0,0,-.1,0,792)" stroke-width="60" stroke-linecap="butt" stroke-linejoin="bevel" fill="none" stroke="#4d0033" d="M725 2863.7H425L275 3123.5 125 2863.7H-175L-25 2603.9-175 2344.1H125L275 2084.3 425 2344.1H725L575 2603.9Z"/>
<path transform="matrix(.1,0,0,-.1,0,792)" d="M725 1824.5 425 2344.1 275 2084.3 125 2344.1-175 1824.5 275 1564.7" fill="#cc9999"/>
<path transform="matrix(.1,0,0,-.1,0,792)" stroke-width="60" stroke-linecap="butt" stroke-linejoin="bevel" fill="none" stroke="#4d0033" d="M725 1824.5 425 2344.1 275 2084.3 125 2344.1-175 1824.5 275 1564.7Z"/>
<path transform="matrix(.1,0,0,-.1,0,792)" d="M5225 1824.5 5675 1564.7 6125 1824.5 5825 2344.1 5675 2084.3 5525 2344.1" fill="#cc9999"/>
<path transform="matrix(.1,0,0,-.1,0,792)" stroke-width="60" stroke-linecap="butt" stroke-linejoin="bevel" fill="none" stroke="#4d0033" d="M5225 1824.5 5675 1564.7 6125 1824.5 5825 2344.1 5675 2084.3 5525 2344.1Z"/>
<path transform="matrix(.1,0,0,-.1,0,792)" d="M5225 2344.1H5525L5675 2084.3 5825 2344.1H6125L5975 2603.9 6125 2863.7H5825L5675 3123.5 5525 2863.7H5225L5375 2603.9" fill="#cc9999"/>
<path transform="matrix(.1,0,0,-.1,0,792)" stroke-width="60" stroke-linecap="butt" stroke-linejoin="bevel" fill="none" stroke="#4d0033" d="M5225 2344.1H5525L5675 2084.3 5825 2344.1H6125L5975 2603.9 6125 2863.7H5825L5675 3123.5 5525 2863.7H5225L5375 2603.9Z"/>
<path transform="matrix(.1,0,0,-.1,0,792)" d="M5225 3383.3 5525 2863.7 5675 3123.5 5825 2863.7 6125 3383.3 5675 3643.1" fill="#cc9999"/>
<path transform="matrix(.1,0,0,-.1,0,792)" stroke-width="60" stroke-linecap="butt" stroke-linejoin="bevel" fill="none" stroke="#4d0033" d="M5225 3383.3 5525 2863.7 5675 3123.5 5825 2863.7 6125 3383.3 5675 3643.1Z"/>
<path transform="matrix(.1,0,0,-.1,0,792)" d="M5225 4942.2 5675 4682.4 6125 4942.2 5825 5461.8 5675 5202 5525 5461.8" fill="#cc9999"/>
<path transform="matrix(.1,0,0,-.1,0,792)" stroke-width="60" stroke-linecap="butt" stroke-linejoin="bevel" fill="none" stroke="#4d0033" d="M5225 4942.2 5675 4682.4 6125 4942.2 5825 5461.8 5675 5202 5525 5461.8Z"/>
<path transform="matrix(.1,0,0,-.1,0,792)" d="M5225 5461.8H5525L5675 5202 5825 5461.8H6125L5975 5721.6 6125 5981.4H5825L5675 6241.2 5525 5981.4H5225L5375 5721.6" fill="#cc9999"/>
<path transform="matrix(.1,0,0,-.1,0,792)" stroke-width="60" stroke-linecap="butt" stroke-linejoin="bevel" fill="none" stroke="#4d0033" d="M5225 5461.8H5525L5675 5202 5825 5461.8H6125L5975 5721.6 6125 5981.4H5825L5675 6241.2 5525 5981.4H5225L5375 5721.6Z"/>
<path transform="matrix(.1,0,0,-.1,0,792)" d="M5225 6501 5525 5981.4 5675 6241.2 5825 5981.4 6125 6501 5675 6760.8" fill="#cc9999"/>
<path transform="matrix(.1,0,0,-.1,0,792)" stroke-width="60" stroke-linecap="butt" stroke-linejoin="bevel" fill="none" stroke="#4d0033" d="M5225 6501 5525 5981.4 5675 6241.2 5825 5981.4 6125 6501 5675 6760.8Z"/>
<path transform="matrix(.1,0,0,-.1,0,792)" d="M875 1045.1H275V525.5L725 265.602 1025 785.301H725" fill="#cc9999"/>
<path transform="matrix(.1,0,0,-.1,0,792)" stroke-width="60" stroke-linecap="butt" stroke-linejoin="bevel" fill="none" stroke="#4d0033" d="M875 1045.1H275V525.5L725 265.602 1025 785.301H725Z"/>
<path transform="matrix(.1,0,0,-.1,0,792)" d="M1475 1045.1 1625 785.301H1325L1625 265.602 2075 525.5V1045.1" fill="#cc9999"/>
<path transform="matrix(.1,0,0,-.1,0,792)" stroke-width="60" stroke-linecap="butt" stroke-linejoin="bevel" fill="none" stroke="#4d0033" d="M1475 1045.1 1625 785.301H1325L1625 265.602 2075 525.5V1045.1Z"/>
<path transform="matrix(.1,0,0,-.1,0,792)" d="M2075 1045.1V525.5L2525 265.602 2825 785.301H2525L2675 1045.1" fill="#cc9999"/>
<path transform="matrix(.1,0,0,-.1,0,792)" stroke-width="60" stroke-linecap="butt" stroke-linejoin="bevel" fill="none" stroke="#4d0033" d="M2075 1045.1V525.5L2525 265.602 2825 785.301H2525L2675 1045.1Z"/>
<path transform="matrix(.1,0,0,-.1,0,792)" d="M3275 1045.1 3425 785.301H3125L3425 265.602 3875 525.5V1045.1" fill="#cc9999"/>
<path transform="matrix(.1,0,0,-.1,0,792)" stroke-width="60" stroke-linecap="butt" stroke-linejoin="bevel" fill="none" stroke="#4d0033" d="M3275 1045.1 3425 785.301H3125L3425 265.602 3875 525.5V1045.1Z"/>
<path transform="matrix(.1,0,0,-.1,0,792)" d="M3875 1045.1V525.5L4325 265.602 4625 785.301H4325L4475 1045.1" fill="#cc9999"/>
<path transform="matrix(.1,0,0,-.1,0,792)" stroke-width="60" stroke-linecap="butt" stroke-linejoin="bevel" fill="none" stroke="#4d0033" d="M3875 1045.1V525.5L4325 265.602 4625 785.301H4325L4475 1045.1Z"/>
<path transform="matrix(.1,0,0,-.1,0,792)" d="M5075 1045.1 5225 785.301H4925L5225 265.602 5675 525.5V1045.1" fill="#cc9999"/>
<path transform="matrix(.1,0,0,-.1,0,792)" stroke-width="60" stroke-linecap="butt" stroke-linejoin="bevel" fill="none" stroke="#4d0033" d="M5075 1045.1 5225 785.301H4925L5225 265.602 5675 525.5V1045.1Z"/>
<path transform="matrix(.1,0,0,-.1,0,792)" d="M4925 7540.3 5225 8059.9 4775 8319.7 4325 8059.9 4625 7540.3 4775 7800.1" fill="#cc9999"/>
<path transform="matrix(.1,0,0,-.1,0,792)" stroke-width="60" stroke-linecap="butt" stroke-linejoin="bevel" fill="none" stroke="#4d0033" d="M4925 7540.3 5225 8059.9 4775 8319.7 4325 8059.9 4625 7540.3 4775 7800.1Z"/>
<path transform="matrix(.1,0,0,-.1,0,792)" d="M3125 7540.3 3425 8059.9 2975 8319.7 2525 8059.9 2825 7540.3 2975 7800.1" fill="#cc9999"/>
<path transform="matrix(.1,0,0,-.1,0,792)" stroke-width="60" stroke-linecap="butt" stroke-linejoin="bevel" fill="none" stroke="#4d0033" d="M3125 7540.3 3425 8059.9 2975 8319.7 2525 8059.9 2825 7540.3 2975 7800.1Z"/>
<path transform="matrix(.1,0,0,-.1,0,792)" d="M1325 7540.3 1625 8059.9 1175 8319.7 725 8059.9 1025 7540.3 1175 7800.1" fill="#cc9999"/>
<path transform="matrix(.1,0,0,-.1,0,792)" stroke-width="60" stroke-linecap="butt" stroke-linejoin="bevel" fill="none" stroke="#4d0033" d="M1325 7540.3 1625 8059.9 1175 8319.7 725 8059.9 1025 7540.3 1175 7800.1Z"/>
<path transform="matrix(.1,0,0,-.1,0,792)" d="M1025 785.301 725 265.602 1175 5.80078 1625 265.602 1325 785.301 1175 525.5" fill="#cc9999"/>
<path transform="matrix(.1,0,0,-.1,0,792)" stroke-width="60" stroke-linecap="butt" stroke-linejoin="bevel" fill="none" stroke="#4d0033" d="M1025 785.301 725 265.602 1175 5.80078 1625 265.602 1325 785.301 1175 525.5Z"/>
<path transform="matrix(.1,0,0,-.1,0,792)" d="M2825 785.301 2525 265.602 2975 5.80078 3425 265.602 3125 785.301 2975 525.5" fill="#cc9999"/>
<path transform="matrix(.1,0,0,-.1,0,792)" stroke-width="60" stroke-linecap="butt" stroke-linejoin="bevel" fill="none" stroke="#4d0033" d="M2825 785.301 2525 265.602 2975 5.80078 3425 265.602 3125 785.301 2975 525.5Z"/>
<path transform="matrix(.1,0,0,-.1,0,792)" d="M4625 785.301 4325 265.602 4775 5.80078 5225 265.602 4925 785.301 4775 525.5" fill="#cc9999"/>
<path transform="matrix(.1,0,0,-.1,0,792)" stroke-width="60" stroke-linecap="butt" stroke-linejoin="bevel" fill="none" stroke="#4d0033" d="M4625 785.301 4325 265.602 4775 5.80078 5225 265.602 4925 785.301 4775 525.5Z"/>
<path transform="matrix(.1,0,0,-.1,0,792)" d="M3875 7800.1 4325 8059.9 4025 8579.5 3875 8319.7 3725 8579.5 3425 8059.9" fill="#cc9999"/>
<path transform="matrix(.1,0,0,-.1,0,792)" stroke-width="60" stroke-linecap="butt" stroke-linejoin="bevel" fill="none" stroke="#4d0033" d="M3875 7800.1 4325 8059.9 4025 8579.5 3875 8319.7 3725 8579.5 3425 8059.9Z"/>
<path transform="matrix(.1,0,0,-.1,0,792)" d="M2075 7800.1 2525 8059.9 2225 8579.5 2075 8319.7 1925 8579.5 1625 8059.9" fill="#cc9999"/>
<path transform="matrix(.1,0,0,-.1,0,792)" stroke-width="60" stroke-linecap="butt" stroke-linejoin="bevel" fill="none" stroke="#4d0033" d="M2075 7800.1 2525 8059.9 2225 8579.5 2075 8319.7 1925 8579.5 1625 8059.9Z"/>
<path transform="matrix(.1,0,0,-.1,0,792)" d="M2075 525.5 1625 265.602 1925-254 2075 5.80078 2225-254 2525 265.602" fill="#cc9999"/>
<path transform="matrix(.1,0,0,-.1,0,792)" stroke-width="60" stroke-linecap="butt" stroke-linejoin="bevel" fill="none" stroke="#4d0033" d="M2075 525.5 1625 265.602 1925-254 2075 5.80078 2225-254 2525 265.602Z"/>
<path transform="matrix(.1,0,0,-.1,0,792)" d="M3875 525.5 3425 265.602 3725-254 3875 5.80078 4025-254 4325 265.602" fill="#cc9999"/>
<path transform="matrix(.1,0,0,-.1,0,792)" stroke-width="60" stroke-linecap="butt" stroke-linejoin="bevel" fill="none" stroke="#4d0033" d="M3875 525.5 3425 265.602 3725-254 3875 5.80078 4025-254 4325 265.602Z"/>
<path transform="matrix(.1,0,0,-.1,0,792)" d="M5675 525.5 6125 265.602 6425 785.301H6125L6275 1045.1H5675" fill="#cc9999"/>
<path transform="matrix(.1,0,0,-.1,0,792)" stroke-width="60" stroke-linecap="butt" stroke-linejoin="bevel" fill="none" stroke="#4d0033" d="M5675 525.5 6125 265.602 6425 785.301H6125L6275 1045.1H5675Z"/>
<path transform="matrix(.1,0,0,-.1,0,792)" d="M5675 525.5 5225 265.602 5525-254 5675 5.80078 5825-254 6125 265.602" fill="#cc9999"/>
<path transform="matrix(.1,0,0,-.1,0,792)" stroke-width="60" stroke-linecap="butt" stroke-linejoin="bevel" fill="none" stroke="#4d0033" d="M5675 525.5 5225 265.602 5525-254 5675 5.80078 5825-254 6125 265.602Z"/>
<path transform="matrix(.1,0,0,-.1,0,792)" d="M5675 1045.1H6275L6125 1304.9H6425L6125 1824.5 5675 1564.7" fill="#cc9999"/>
<path transform="matrix(.1,0,0,-.1,0,792)" stroke-width="60" stroke-linecap="butt" stroke-linejoin="bevel" fill="none" stroke="#4d0033" d="M5675 1045.1H6275L6125 1304.9H6425L6125 1824.5 5675 1564.7Z"/>
<path transform="matrix(.1,0,0,-.1,0,792)" d="M5675 3643.1 6125 3383.3 6425 3903H6125L6275 4162.8H5675" fill="#cc9999"/>
<path transform="matrix(.1,0,0,-.1,0,792)" stroke-width="60" stroke-linecap="butt" stroke-linejoin="bevel" fill="none" stroke="#4d0033" d="M5675 3643.1 6125 3383.3 6425 3903H6125L6275 4162.8H5675Z"/>
<path transform="matrix(.1,0,0,-.1,0,792)" d="M5675 4162.8H6275L6125 4422.6H6425L6125 4942.2 5675 4682.4" fill="#cc9999"/>
<path transform="matrix(.1,0,0,-.1,0,792)" stroke-width="60" stroke-linecap="butt" stroke-linejoin="bevel" fill="none" stroke="#4d0033" d="M5675 4162.8H6275L6125 4422.6H6425L6125 4942.2 5675 4682.4Z"/>
<path transform="matrix(.1,0,0,-.1,0,792)" d="M5675 6760.8 6125 6501 6425 7020.6H6125L6275 7280.5H5675" fill="#cc9999"/>
<path transform="matrix(.1,0,0,-.1,0,792)" stroke-width="60" stroke-linecap="butt" stroke-linejoin="bevel" fill="none" stroke="#4d0033" d="M5675 6760.8 6125 6501 6425 7020.6H6125L6275 7280.5H5675Z"/>
<path transform="matrix(.1,0,0,-.1,0,792)" d="M5675 7280.5H6275L6125 7540.3H6425L6125 8059.9 5675 7800.1" fill="#cc9999"/>
<path transform="matrix(.1,0,0,-.1,0,792)" stroke-width="60" stroke-linecap="butt" stroke-linejoin="bevel" fill="none" stroke="#4d0033" d="M5675 7280.5H6275L6125 7540.3H6425L6125 8059.9 5675 7800.1Z"/>
<path transform="matrix(.1,0,0,-.1,0,792)" d="M5675 7800.1 6125 8059.9 5825 8579.5 5675 8319.7 5525 8579.5 5225 8059.9" fill="#cc9999"/>
<path transform="matrix(.1,0,0,-.1,0,792)" stroke-width="60" stroke-linecap="butt" stroke-linejoin="bevel" fill="none" stroke="#4d0033" d="M5675 7800.1 6125 8059.9 5825 8579.5 5675 8319.7 5525 8579.5 5225 8059.9Z"/>
<path transform="matrix(.1,0,0,-.1,0,792)" d="M275 7800.1-175 8059.9-475 7540.3H-175L-325 7280.5H275" fill="#cc9999"/>
<path transform="matrix(.1,0,0,-.1,0,792)" stroke-width="60" stroke-linecap="butt" stroke-linejoin="bevel" fill="none" stroke="#4d0033" d="M275 7800.1-175 8059.9-475 7540.3H-175L-325 7280.5H275Z"/>
<path transform="matrix(.1,0,0,-.1,0,792)" d="M275 7800.1 725 8059.9 425 8579.5 275 8319.7 125 8579.5-175 8059.9" fill="#cc9999"/>
<path transform="matrix(.1,0,0,-.1,0,792)" stroke-width="60" stroke-linecap="butt" stroke-linejoin="bevel" fill="none" stroke="#4d0033" d="M275 7800.1 725 8059.9 425 8579.5 275 8319.7 125 8579.5-175 8059.9Z"/>
<path transform="matrix(.1,0,0,-.1,0,792)" d="M275 7280.5H-325L-175 7020.6H-475L-175 6501 275 6760.8" fill="#cc9999"/>
<path transform="matrix(.1,0,0,-.1,0,792)" stroke-width="60" stroke-linecap="butt" stroke-linejoin="bevel" fill="none" stroke="#4d0033" d="M275 7280.5H-325L-175 7020.6H-475L-175 6501 275 6760.8Z"/>
<path transform="matrix(.1,0,0,-.1,0,792)" d="M275 4682.4-175 4942.2-475 4422.6H-175L-325 4162.8H275" fill="#cc9999"/>
<path transform="matrix(.1,0,0,-.1,0,792)" stroke-width="60" stroke-linecap="butt" stroke-linejoin="bevel" fill="none" stroke="#4d0033" d="M275 4682.4-175 4942.2-475 4422.6H-175L-325 4162.8H275Z"/>
<path transform="matrix(.1,0,0,-.1,0,792)" d="M275 4162.8H-325L-175 3903H-475L-175 3383.3 275 3643.1" fill="#cc9999"/>
<path transform="matrix(.1,0,0,-.1,0,792)" stroke-width="60" stroke-linecap="butt" stroke-linejoin="bevel" fill="none" stroke="#4d0033" d="M275 4162.8H-325L-175 3903H-475L-175 3383.3 275 3643.1Z"/>
<path transform="matrix(.1,0,0,-.1,0,792)" d="M275 1564.7-175 1824.5-475 1304.9H-175L-325 1045.1H275" fill="#cc9999"/>
<path transform="matrix(.1,0,0,-.1,0,792)" stroke-width="60" stroke-linecap="butt" stroke-linejoin="bevel" fill="none" stroke="#4d0033" d="M275 1564.7-175 1824.5-475 1304.9H-175L-325 1045.1H275Z"/>
<path transform="matrix(.1,0,0,-.1,0,792)" d="M275 1045.1H-325L-175 785.301H-475L-175 265.602 275 525.5" fill="#cc9999"/>
<path transform="matrix(.1,0,0,-.1,0,792)" stroke-width="60" stroke-linecap="butt" stroke-linejoin="bevel" fill="none" stroke="#4d0033" d="M275 1045.1H-325L-175 785.301H-475L-175 265.602 275 525.5Z"/>
<path transform="matrix(.1,0,0,-.1,0,792)" d="M275 525.5-175 265.602 125-254 275 5.80078 425-254 725 265.602" fill="#cc9999"/>
<path transform="matrix(.1,0,0,-.1,0,792)" stroke-width="60" stroke-linecap="butt" stroke-linejoin="bevel" fill="none" stroke="#4d0033" d="M275 525.5-175 265.602 125-254 275 5.80078 425-254 725 265.602Z"/>
<path transform="matrix(.1,0,0,-.1,0,792)" d="M125 5981.4-175 6501-625 6241.2V5721.6H-25L-175 5981.4" fill="#cc9999"/>
<path transform="matrix(.1,0,0,-.1,0,792)" stroke-width="60" stroke-linecap="butt" stroke-linejoin="bevel" fill="none" stroke="#4d0033" d="M125 5981.4-175 6501-625 6241.2V5721.6H-25L-175 5981.4Z"/>
<path transform="matrix(.1,0,0,-.1,0,792)" d="M125 5461.8H-175L-25 5721.6H-625V5202L-175 4942.2" fill="#cc9999"/>
<path transform="matrix(.1,0,0,-.1,0,792)" stroke-width="60" stroke-linecap="butt" stroke-linejoin="bevel" fill="none" stroke="#4d0033" d="M125 5461.8H-175L-25 5721.6H-625V5202L-175 4942.2Z"/>
<path transform="matrix(.1,0,0,-.1,0,792)" d="M125 2863.7-175 3383.3-625 3123.5V2603.9H-25L-175 2863.7" fill="#cc9999"/>
<path transform="matrix(.1,0,0,-.1,0,792)" stroke-width="60" stroke-linecap="butt" stroke-linejoin="bevel" fill="none" stroke="#4d0033" d="M125 2863.7-175 3383.3-625 3123.5V2603.9H-25L-175 2863.7Z"/>
<path transform="matrix(.1,0,0,-.1,0,792)" d="M125 2344.1H-175L-25 2603.9H-625V2084.3L-175 1824.5" fill="#cc9999"/>
<path transform="matrix(.1,0,0,-.1,0,792)" stroke-width="60" stroke-linecap="butt" stroke-linejoin="bevel" fill="none" stroke="#4d0033" d="M125 2344.1H-175L-25 2603.9H-625V2084.3L-175 1824.5Z"/>
<path transform="matrix(.1,0,0,-.1,0,792)" d="M5825 2344.1 6125 1824.5 6575 2084.3V2603.9H5975L6125 2344.1" fill="#cc9999"/>
<path transform="matrix(.1,0,0,-.1,0,792)" stroke-width="60" stroke-linecap="butt" stroke-linejoin="bevel" fill="none" stroke="#4d0033" d="M5825 2344.1 6125 1824.5 6575 2084.3V2603.9H5975L6125 2344.1Z"/>
<path transform="matrix(.1,0,0,-.1,0,792)" d="M5825 2863.7H6125L5975 2603.9H6575V3123.5L6125 3383.3" fill="#cc9999"/>
<path transform="matrix(.1,0,0,-.1,0,792)" stroke-width="60" stroke-linecap="butt" stroke-linejoin="bevel" fill="none" stroke="#4d0033" d="M5825 2863.7H6125L5975 2603.9H6575V3123.5L6125 3383.3Z"/>
<path transform="matrix(.1,0,0,-.1,0,792)" d="M5825 5461.8 6125 4942.2 6575 5202V5721.6H5975L6125 5461.8" fill="#cc9999"/>
<path transform="matrix(.1,0,0,-.1,0,792)" stroke-width="60" stroke-linecap="butt" stroke-linejoin="bevel" fill="none" stroke="#4d0033" d="M5825 5461.8 6125 4942.2 6575 5202V5721.6H5975L6125 5461.8Z"/>
<path transform="matrix(.1,0,0,-.1,0,792)" d="M5825 5981.4H6125L5975 5721.6H6575V6241.2L6125 6501" fill="#cc9999"/>
<path transform="matrix(.1,0,0,-.1,0,792)" stroke-width="60" stroke-linecap="butt" stroke-linejoin="bevel" fill="none" stroke="#4d0033" d="M5825 5981.4H6125L5975 5721.6H6575V6241.2L6125 6501Z"/>
<path transform="matrix(.1,0,0,-.1,0,792)" d="M725 265.602 425-254H725L575-513.801H1175V5.80078" fill="#cc9999"/>
<path transform="matrix(.1,0,0,-.1,0,792)" stroke-width="60" stroke-linecap="butt" stroke-linejoin="bevel" fill="none" stroke="#4d0033" d="M725 265.602 425-254H725L575-513.801H1175V5.80078Z"/>
<path transform="matrix(.1,0,0,-.1,0,792)" d="M1625 265.602 1175 5.80078V-513.801H1775L1625-254H1925" fill="#cc9999"/>
<path transform="matrix(.1,0,0,-.1,0,792)" stroke-width="60" stroke-linecap="butt" stroke-linejoin="bevel" fill="none" stroke="#4d0033" d="M1625 265.602 1175 5.80078V-513.801H1775L1625-254H1925Z"/>
<path transform="matrix(.1,0,0,-.1,0,792)" d="M2525 265.602 2225-254H2525L2375-513.801H2975V5.80078" fill="#cc9999"/>
<path transform="matrix(.1,0,0,-.1,0,792)" stroke-width="60" stroke-linecap="butt" stroke-linejoin="bevel" fill="none" stroke="#4d0033" d="M2525 265.602 2225-254H2525L2375-513.801H2975V5.80078Z"/>
<path transform="matrix(.1,0,0,-.1,0,792)" d="M3425 265.602 2975 5.80078V-513.801H3575L3425-254H3725" fill="#cc9999"/>
<path transform="matrix(.1,0,0,-.1,0,792)" stroke-width="60" stroke-linecap="butt" stroke-linejoin="bevel" fill="none" stroke="#4d0033" d="M3425 265.602 2975 5.80078V-513.801H3575L3425-254H3725Z"/>
<path transform="matrix(.1,0,0,-.1,0,792)" d="M4325 265.602 4025-254H4325L4175-513.801H4775V5.80078" fill="#cc9999"/>
<path transform="matrix(.1,0,0,-.1,0,792)" stroke-width="60" stroke-linecap="butt" stroke-linejoin="bevel" fill="none" stroke="#4d0033" d="M4325 265.602 4025-254H4325L4175-513.801H4775V5.80078Z"/>
<path transform="matrix(.1,0,0,-.1,0,792)" d="M5225 265.602 4775 5.80078V-513.801H5375L5225-254H5525" fill="#cc9999"/>
<path transform="matrix(.1,0,0,-.1,0,792)" stroke-width="60" stroke-linecap="butt" stroke-linejoin="bevel" fill="none" stroke="#4d0033" d="M5225 265.602 4775 5.80078V-513.801H5375L5225-254H5525Z"/>
<path transform="matrix(.1,0,0,-.1,0,792)" d="M275 5.80078 125-254H-175L-25-513.801-175-773.602H125L275-1033.4 425-773.602H725L575-513.801 725-254H425" fill="#cc9999"/>
<path transform="matrix(.1,0,0,-.1,0,792)" stroke-width="60" stroke-linecap="butt" stroke-linejoin="bevel" fill="none" stroke="#4d0033" d="M275 5.80078 125-254H-175L-25-513.801-175-773.602H125L275-1033.4 425-773.602H725L575-513.801 725-254H425Z"/>
<path transform="matrix(.1,0,0,-.1,0,792)" d="M2075 5.80078 1925-254H1625L1775-513.801 1625-773.602H1925L2075-1033.4 2225-773.602H2525L2375-513.801 2525-254H2225" fill="#cc9999"/>
<path transform="matrix(.1,0,0,-.1,0,792)" stroke-width="60" stroke-linecap="butt" stroke-linejoin="bevel" fill="none" stroke="#4d0033" d="M2075 5.80078 1925-254H1625L1775-513.801 1625-773.602H1925L2075-1033.4 2225-773.602H2525L2375-513.801 2525-254H2225Z"/>
<path transform="matrix(.1,0,0,-.1,0,792)" d="M3875 5.80078 3725-254H3425L3575-513.801 3425-773.602H3725L3875-1033.4 4025-773.602H4325L4175-513.801 4325-254H4025" fill="#cc9999"/>
<path transform="matrix(.1,0,0,-.1,0,792)" stroke-width="60" stroke-linecap="butt" stroke-linejoin="bevel" fill="none" stroke="#4d0033" d="M3875 5.80078 3725-254H3425L3575-513.801 3425-773.602H3725L3875-1033.4 4025-773.602H4325L4175-513.801 4325-254H4025Z"/>
<path transform="matrix(.1,0,0,-.1,0,792)" d="M5675 5.80078 5525-254H5225L5375-513.801 5225-773.602H5525L5675-1033.4 5825-773.602H6125L5975-513.801 6125-254H5825" fill="#cc9999"/>
<path transform="matrix(.1,0,0,-.1,0,792)" stroke-width="60" stroke-linecap="butt" stroke-linejoin="bevel" fill="none" stroke="#4d0033" d="M5675 5.80078 5525-254H5225L5375-513.801 5225-773.602H5525L5675-1033.4 5825-773.602H6125L5975-513.801 6125-254H5825Z"/>
<path transform="matrix(.1,0,0,-.1,0,792)" stroke-width="60" stroke-linecap="butt" stroke-linejoin="bevel" fill="none" stroke="#4d0033" d="M6125 265.602 6575 5.80078 7025 265.602 6725 785.301 6575 525.5 6425 785.301Z"/>
<path transform="matrix(.1,0,0,-.1,0,792)" d="M6125 265.602 5825-254H6125L5975-513.801H6575V5.80078" fill="#cc9999"/>
<path transform="matrix(.1,0,0,-.1,0,792)" stroke-width="60" stroke-linecap="butt" stroke-linejoin="bevel" fill="none" stroke="#4d0033" d="M6125 265.602 5825-254H6125L5975-513.801H6575V5.80078Z"/>
<path transform="matrix(.1,0,0,-.1,0,792)" stroke-width="60" stroke-linecap="butt" stroke-linejoin="bevel" fill="none" stroke="#4d0033" d="M6125 785.301H6425L6575 525.5 6725 785.301H7025L6875 1045.1 7025 1304.9H6725L6575 1564.7 6425 1304.9H6125L6275 1045.1Z"/>
<path transform="matrix(.1,0,0,-.1,0,792)" stroke-width="60" stroke-linecap="butt" stroke-linejoin="bevel" fill="none" stroke="#4d0033" d="M6125 1824.5 6425 1304.9 6575 1564.7 6725 1304.9 7025 1824.5 6575 2084.3Z"/>
<path transform="matrix(.1,0,0,-.1,0,792)" stroke-width="60" stroke-linecap="butt" stroke-linejoin="bevel" fill="none" stroke="#4d0033" d="M6125 3383.3 6575 3123.5 7025 3383.3 6725 3903 6575 3643.1 6425 3903Z"/>
<path transform="matrix(.1,0,0,-.1,0,792)" stroke-width="60" stroke-linecap="butt" stroke-linejoin="bevel" fill="none" stroke="#4d0033" d="M6125 3903H6425L6575 3643.1 6725 3903H7025L6875 4162.8 7025 4422.6H6725L6575 4682.4 6425 4422.6H6125L6275 4162.8Z"/>
<path transform="matrix(.1,0,0,-.1,0,792)" stroke-width="60" stroke-linecap="butt" stroke-linejoin="bevel" fill="none" stroke="#4d0033" d="M6125 4942.2 6425 4422.6 6575 4682.4 6725 4422.6 7025 4942.2 6575 5202Z"/>
<path transform="matrix(.1,0,0,-.1,0,792)" stroke-width="60" stroke-linecap="butt" stroke-linejoin="bevel" fill="none" stroke="#4d0033" d="M6125 6501 6575 6241.2 7025 6501 6725 7020.6 6575 6760.8 6425 7020.6Z"/>
<path transform="matrix(.1,0,0,-.1,0,792)" stroke-width="60" stroke-linecap="butt" stroke-linejoin="bevel" fill="none" stroke="#4d0033" d="M6125 7020.6H6425L6575 6760.8 6725 7020.6H7025L6875 7280.5 7025 7540.3H6725L6575 7800.1 6425 7540.3H6125L6275 7280.5Z"/>
<path transform="matrix(.1,0,0,-.1,0,792)" stroke-width="60" stroke-linecap="butt" stroke-linejoin="bevel" fill="none" stroke="#4d0033" d="M6125 8059.9 6425 7540.3 6575 7800.1 6725 7540.3 7025 8059.9 6575 8319.7Z"/>
<path transform="matrix(.1,0,0,-.1,0,792)" d="M-175 265.602-625 5.80078V-513.801H-25L-175-254H125" fill="#cc9999"/>
<path transform="matrix(.1,0,0,-.1,0,792)" stroke-width="60" stroke-linecap="butt" stroke-linejoin="bevel" fill="none" stroke="#4d0033" d="M-175 265.602-625 5.80078V-513.801H-25L-175-254H125Z"/>
</svg>
