<svg xmlns="http://www.w3.org/2000/svg" xmlns:xlink="http://www.w3.org/1999/xlink" xmlns:inkscape="http://www.inkscape.org/namespaces/inkscape" version="1.1" width="612" height="792" viewBox="0 0 612 792">
<path transform="matrix(.1,0,0,-.1,0,792)" d="M3210.7 4210 3033.9 4386.8 2857.1 4210 3033.9 4033.2" fill="#ffffff"/>
<path transform="matrix(.1,0,0,-.1,0,792)" stroke-width="1" stroke-linecap="butt" stroke-miterlimit="10" stroke-linejoin="miter" fill="none" stroke="#000000" d="M3210.7 4210 3033.9 4386.8 2857.1 4210 3033.9 4033.2Z"/>
<path transform="matrix(.1,0,0,-.1,0,792)" d="M2857.1 4210 2715.7 4068.6 2892.5 3891.8 3033.9 3750.4 3140 3644.3 3033.9 3538.2 3175.3 3396.8 3422.8 3644.3 3175.3 3891.8 3033.9 4033.2" fill="#80a6cc"/>
<path transform="matrix(.1,0,0,-.1,0,792)" stroke-width="1" stroke-linecap="butt" stroke-miterlimit="10" stroke-linejoin="miter" fill="none" stroke="#000000" d="M2857.1 4210 2715.7 4068.6 2892.5 3891.8 3033.9 3750.4 3140 3644.3 3033.9 3538.2 3175.3 3396.8 3422.8 3644.3 3175.3 3891.8 3033.9 4033.2Z"/>
<path transform="matrix(.1,0,0,-.1,0,792)" d="M2857.1 4210 3033.9 4386.8 2892.5 4528.2 2715.7 4351.4 2574.3 4210 2468.2 4103.9 2362.2 4210 2220.8 4068.6 2468.2 3821.1 2715.7 4068.6" fill="#4066cc"/>
<path transform="matrix(.1,0,0,-.1,0,792)" stroke-width="1" stroke-linecap="butt" stroke-miterlimit="10" stroke-linejoin="miter" fill="none" stroke="#000000" d="M2857.1 4210 3033.9 4386.8 2892.5 4528.2 2715.7 4351.4 2574.3 4210 2468.2 4103.9 2362.2 4210 2220.8 4068.6 2468.2 3821.1 2715.7 4068.6Z"/>
<path transform="matrix(.1,0,0,-.1,0,792)" d="M3033.9 4386.8 3210.7 4210 3352.1 4351.4 3175.3 4528.2 3033.9 4669.6 2927.9 4775.7 3033.9 4881.8 2892.5 5023.2 2645 4775.7 2892.5 4528.2" fill="#80a6cc"/>
<path transform="matrix(.1,0,0,-.1,0,792)" stroke-width="1" stroke-linecap="butt" stroke-miterlimit="10" stroke-linejoin="miter" fill="none" stroke="#000000" d="M3033.9 4386.8 3210.7 4210 3352.1 4351.4 3175.3 4528.2 3033.9 4669.6 2927.9 4775.7 3033.9 4881.8 2892.5 5023.2 2645 4775.7 2892.5 4528.2Z"/>
<path transform="matrix(.1,0,0,-.1,0,792)" d="M3033.9 4033.2 3175.3 3891.8 3352.1 4068.6 3493.5 4210 3599.6 4316.1 3705.7 4210 3847.1 4351.4 3599.6 4598.9 3352.1 4351.4 3210.7 4210" fill="#4066cc"/>
<path transform="matrix(.1,0,0,-.1,0,792)" stroke-width="1" stroke-linecap="butt" stroke-miterlimit="10" stroke-linejoin="miter" fill="none" stroke="#000000" d="M3033.9 4033.2 3175.3 3891.8 3352.1 4068.6 3493.5 4210 3599.6 4316.1 3705.7 4210 3847.1 4351.4 3599.6 4598.9 3352.1 4351.4 3210.7 4210Z"/>
<path transform="matrix(.1,0,0,-.1,0,792)" d="M3175.3 3891.8 3422.8 3644.3 3175.3 3396.8 3493.5 3078.6 3175.3 2760.4 3422.8 2512.9 3175.3 2265.5 3352.1 2088.7 3599.6 2336.2 3847.1 2088.7 4165.3 2406.9 4483.5 2088.7 4731 2336.2 4978.5 2088.7 5155.2 2265.5 4907.8 2512.9 5155.2 2760.4 4837 3078.6 5155.2 3396.8 4907.8 3644.3 5155.2 3891.8 4978.5 4068.6 4731 3821.1 4483.5 4068.6 4165.3 3750.4 3847.1 4068.6 3599.6 3821.1 3352.1 4068.6" fill="#ffffff"/>
<path transform="matrix(.1,0,0,-.1,0,792)" stroke-width="1" stroke-linecap="butt" stroke-miterlimit="10" stroke-linejoin="miter" fill="none" stroke="#000000" d="M3175.3 3891.8 3422.8 3644.3 3175.3 3396.8 3493.5 3078.6 3175.3 2760.4 3422.8 2512.9 3175.3 2265.5 3352.1 2088.7 3599.6 2336.2 3847.1 2088.7 4165.3 2406.9 4483.5 2088.7 4731 2336.2 4978.5 2088.7 5155.2 2265.5 4907.8 2512.9 5155.2 2760.4 4837 3078.6 5155.2 3396.8 4907.8 3644.3 5155.2 3891.8 4978.5 4068.6 4731 3821.1 4483.5 4068.6 4165.3 3750.4 3847.1 4068.6 3599.6 3821.1 3352.1 4068.6Z"/>
<path transform="matrix(.1,0,0,-.1,0,792)" d="M3175.3 4528.2 3422.8 4775.7 3175.3 5023.2 3033.9 5164.6 2857.1 5341.4 3033.9 5518.1 2892.5 5659.6 2574.3 5341.4 2892.5 5023.2 3033.9 4881.8 3140 4775.7 3033.9 4669.6" fill="#4066cc"/>
<path transform="matrix(.1,0,0,-.1,0,792)" stroke-width="1" stroke-linecap="butt" stroke-miterlimit="10" stroke-linejoin="miter" fill="none" stroke="#000000" d="M3175.3 4528.2 3422.8 4775.7 3175.3 5023.2 3033.9 5164.6 2857.1 5341.4 3033.9 5518.1 2892.5 5659.6 2574.3 5341.4 2892.5 5023.2 3033.9 4881.8 3140 4775.7 3033.9 4669.6Z"/>
<path transform="matrix(.1,0,0,-.1,0,792)" d="M3175.3 4528.2 3352.1 4351.4 3599.6 4598.9 3847.1 4351.4 4165.3 4669.6 4483.5 4351.4 4731 4598.9 4978.5 4351.4 5155.2 4528.2 4907.8 4775.7 5155.2 5023.2 4837 5341.4 5155.2 5659.6 4907.8 5907.1 5155.2 6154.5 4978.5 6331.3 4731 6083.8 4483.5 6331.3 4165.3 6013.1 3847.1 6331.3 3599.6 6083.8 3352.1 6331.3 3175.3 6154.5 3422.8 5907.1 3175.3 5659.6 3493.5 5341.4 3175.3 5023.2 3422.8 4775.7" fill="#ffffff"/>
<path transform="matrix(.1,0,0,-.1,0,792)" stroke-width="1" stroke-linecap="butt" stroke-miterlimit="10" stroke-linejoin="miter" fill="none" stroke="#000000" d="M3175.3 4528.2 3352.1 4351.4 3599.6 4598.9 3847.1 4351.4 4165.3 4669.6 4483.5 4351.4 4731 4598.9 4978.5 4351.4 5155.2 4528.2 4907.8 4775.7 5155.2 5023.2 4837 5341.4 5155.2 5659.6 4907.8 5907.1 5155.2 6154.5 4978.5 6331.3 4731 6083.8 4483.5 6331.3 4165.3 6013.1 3847.1 6331.3 3599.6 6083.8 3352.1 6331.3 3175.3 6154.5 3422.8 5907.1 3175.3 5659.6 3493.5 5341.4 3175.3 5023.2 3422.8 4775.7Z"/>
<path transform="matrix(.1,0,0,-.1,0,792)" d="M2892.5 4528.2 2645 4775.7 2892.5 5023.2 2574.3 5341.4 2892.5 5659.6 2645 5907.1 2892.5 6154.5 2715.7 6331.3 2468.2 6083.8 2220.8 6331.3 1902.6 6013.1 1584.4 6331.3 1336.9 6083.8 1089.4 6331.3 912.602 6154.5 1160.1 5907.1 912.602 5659.6 1230.8 5341.4 912.602 5023.2 1160.1 4775.7 912.602 4528.2 1089.4 4351.4 1336.9 4598.9 1584.4 4351.4 1902.6 4669.6 2220.8 4351.4 2468.2 4598.9 2715.7 4351.4" fill="#ffffff"/>
<path transform="matrix(.1,0,0,-.1,0,792)" stroke-width="1" stroke-linecap="butt" stroke-miterlimit="10" stroke-linejoin="miter" fill="none" stroke="#000000" d="M2892.5 4528.2 2645 4775.7 2892.5 5023.2 2574.3 5341.4 2892.5 5659.6 2645 5907.1 2892.5 6154.5 2715.7 6331.3 2468.2 6083.8 2220.8 6331.3 1902.6 6013.1 1584.4 6331.3 1336.9 6083.8 1089.4 6331.3 912.602 6154.5 1160.1 5907.1 912.602 5659.6 1230.8 5341.4 912.602 5023.2 1160.1 4775.7 912.602 4528.2 1089.4 4351.4 1336.9 4598.9 1584.4 4351.4 1902.6 4669.6 2220.8 4351.4 2468.2 4598.9 2715.7 4351.4Z"/>
<path transform="matrix(.1,0,0,-.1,0,792)" d="M2892.5 3891.8 2645 3644.3 2892.5 3396.8 3033.9 3255.4 3210.7 3078.6 3033.9 2901.9 3175.3 2760.4 3493.5 3078.6 3175.3 3396.8 3033.9 3538.2 2927.9 3644.3 3033.9 3750.4" fill="#4066cc"/>
<path transform="matrix(.1,0,0,-.1,0,792)" stroke-width="1" stroke-linecap="butt" stroke-miterlimit="10" stroke-linejoin="miter" fill="none" stroke="#000000" d="M2892.5 3891.8 2645 3644.3 2892.5 3396.8 3033.9 3255.4 3210.7 3078.6 3033.9 2901.9 3175.3 2760.4 3493.5 3078.6 3175.3 3396.8 3033.9 3538.2 2927.9 3644.3 3033.9 3750.4Z"/>
<path transform="matrix(.1,0,0,-.1,0,792)" d="M2892.5 3891.8 2715.7 4068.6 2468.2 3821.1 2220.8 4068.6 1902.6 3750.4 1584.4 4068.6 1336.9 3821.1 1089.4 4068.6 912.602 3891.8 1160.1 3644.3 912.602 3396.8 1230.8 3078.6 912.602 2760.4 1160.1 2512.9 912.602 2265.5 1089.4 2088.7 1336.9 2336.2 1584.4 2088.7 1902.6 2406.9 2220.8 2088.7 2468.2 2336.2 2715.7 2088.7 2892.5 2265.5 2645 2512.9 2892.5 2760.4 2574.3 3078.6 2892.5 3396.8 2645 3644.3" fill="#ffffff"/>
<path transform="matrix(.1,0,0,-.1,0,792)" stroke-width="1" stroke-linecap="butt" stroke-miterlimit="10" stroke-linejoin="miter" fill="none" stroke="#000000" d="M2892.5 3891.8 2715.7 4068.6 2468.2 3821.1 2220.8 4068.6 1902.6 3750.4 1584.4 4068.6 1336.9 3821.1 1089.4 4068.6 912.602 3891.8 1160.1 3644.3 912.602 3396.8 1230.8 3078.6 912.602 2760.4 1160.1 2512.9 912.602 2265.5 1089.4 2088.7 1336.9 2336.2 1584.4 2088.7 1902.6 2406.9 2220.8 2088.7 2468.2 2336.2 2715.7 2088.7 2892.5 2265.5 2645 2512.9 2892.5 2760.4 2574.3 3078.6 2892.5 3396.8 2645 3644.3Z"/>
<path transform="matrix(.1,0,0,-.1,0,792)" d="M2715.7 4351.4 2468.2 4598.9 2220.8 4351.4 2079.3 4210 1902.6 4033.2 1725.8 4210 1584.4 4068.6 1902.6 3750.4 2220.8 4068.6 2362.2 4210 2468.2 4316.1 2574.3 4210" fill="#80a6cc"/>
<path transform="matrix(.1,0,0,-.1,0,792)" stroke-width="1" stroke-linecap="butt" stroke-miterlimit="10" stroke-linejoin="miter" fill="none" stroke="#000000" d="M2715.7 4351.4 2468.2 4598.9 2220.8 4351.4 2079.3 4210 1902.6 4033.2 1725.8 4210 1584.4 4068.6 1902.6 3750.4 2220.8 4068.6 2362.2 4210 2468.2 4316.1 2574.3 4210Z"/>
<path transform="matrix(.1,0,0,-.1,0,792)" d="M3033.9 3750.4 2927.9 3644.3 3033.9 3538.2 3140 3644.3" fill="#ffffff"/>
<path transform="matrix(.1,0,0,-.1,0,792)" stroke-width="1" stroke-linecap="butt" stroke-miterlimit="10" stroke-linejoin="miter" fill="none" stroke="#000000" d="M3033.9 3750.4 2927.9 3644.3 3033.9 3538.2 3140 3644.3Z"/>
<path transform="matrix(.1,0,0,-.1,0,792)" d="M3033.9 4669.6 3140 4775.7 3033.9 4881.8 2927.9 4775.7" fill="#ffffff"/>
<path transform="matrix(.1,0,0,-.1,0,792)" stroke-width="1" stroke-linecap="butt" stroke-miterlimit="10" stroke-linejoin="miter" fill="none" stroke="#000000" d="M3033.9 4669.6 3140 4775.7 3033.9 4881.8 2927.9 4775.7Z"/>
<path transform="matrix(.1,0,0,-.1,0,792)" d="M3352.1 4068.6 3599.6 3821.1 3847.1 4068.6 3988.5 4210 4165.3 4386.8 4342.1 4210 4483.5 4351.4 4165.3 4669.6 3847.1 4351.4 3705.7 4210 3599.6 4103.9 3493.5 4210" fill="#80a6cc"/>
<path transform="matrix(.1,0,0,-.1,0,792)" stroke-width="1" stroke-linecap="butt" stroke-miterlimit="10" stroke-linejoin="miter" fill="none" stroke="#000000" d="M3352.1 4068.6 3599.6 3821.1 3847.1 4068.6 3988.5 4210 4165.3 4386.8 4342.1 4210 4483.5 4351.4 4165.3 4669.6 3847.1 4351.4 3705.7 4210 3599.6 4103.9 3493.5 4210Z"/>
<path transform="matrix(.1,0,0,-.1,0,792)" d="M2574.3 4210 2468.2 4316.1 2362.2 4210 2468.2 4103.9" fill="#ffffff"/>
<path transform="matrix(.1,0,0,-.1,0,792)" stroke-width="1" stroke-linecap="butt" stroke-miterlimit="10" stroke-linejoin="miter" fill="none" stroke="#000000" d="M2574.3 4210 2468.2 4316.1 2362.2 4210 2468.2 4103.9Z"/>
<path transform="matrix(.1,0,0,-.1,0,792)" d="M3493.5 4210 3599.6 4103.9 3705.7 4210 3599.6 4316.1" fill="#ffffff"/>
<path transform="matrix(.1,0,0,-.1,0,792)" stroke-width="1" stroke-linecap="butt" stroke-miterlimit="10" stroke-linejoin="miter" fill="none" stroke="#000000" d="M3493.5 4210 3599.6 4103.9 3705.7 4210 3599.6 4316.1Z"/>
<path transform="matrix(.1,0,0,-.1,0,792)" d="M3175.3 5023.2 3493.5 5341.4 3175.3 5659.6 3033.9 5801 2927.9 5907.1 3033.9 6013.1 2892.5 6154.5 2645 5907.1 2892.5 5659.6 3033.9 5518.1 3210.7 5341.4 3033.9 5164.6" fill="#80a6cc"/>
<path transform="matrix(.1,0,0,-.1,0,792)" stroke-width="1" stroke-linecap="butt" stroke-miterlimit="10" stroke-linejoin="miter" fill="none" stroke="#000000" d="M3175.3 5023.2 3493.5 5341.4 3175.3 5659.6 3033.9 5801 2927.9 5907.1 3033.9 6013.1 2892.5 6154.5 2645 5907.1 2892.5 5659.6 3033.9 5518.1 3210.7 5341.4 3033.9 5164.6Z"/>
<path transform="matrix(.1,0,0,-.1,0,792)" d="M2892.5 3396.8 2574.3 3078.6 2892.5 2760.4 3033.9 2619 3140 2512.9 3033.9 2406.9 3175.3 2265.5 3422.8 2512.9 3175.3 2760.4 3033.9 2901.9 2857.1 3078.6 3033.9 3255.4" fill="#80a6cc"/>
<path transform="matrix(.1,0,0,-.1,0,792)" stroke-width="1" stroke-linecap="butt" stroke-miterlimit="10" stroke-linejoin="miter" fill="none" stroke="#000000" d="M2892.5 3396.8 2574.3 3078.6 2892.5 2760.4 3033.9 2619 3140 2512.9 3033.9 2406.9 3175.3 2265.5 3422.8 2512.9 3175.3 2760.4 3033.9 2901.9 2857.1 3078.6 3033.9 3255.4Z"/>
<path transform="matrix(.1,0,0,-.1,0,792)" d="M3033.9 3255.4 2857.1 3078.6 3033.9 2901.9 3210.7 3078.6" fill="#ffffff"/>
<path transform="matrix(.1,0,0,-.1,0,792)" stroke-width="1" stroke-linecap="butt" stroke-miterlimit="10" stroke-linejoin="miter" fill="none" stroke="#000000" d="M3033.9 3255.4 2857.1 3078.6 3033.9 2901.9 3210.7 3078.6Z"/>
<path transform="matrix(.1,0,0,-.1,0,792)" d="M3033.9 5164.6 3210.7 5341.4 3033.9 5518.1 2857.1 5341.4" fill="#ffffff"/>
<path transform="matrix(.1,0,0,-.1,0,792)" stroke-width="1" stroke-linecap="butt" stroke-miterlimit="10" stroke-linejoin="miter" fill="none" stroke="#000000" d="M3033.9 5164.6 3210.7 5341.4 3033.9 5518.1 2857.1 5341.4Z"/>
<path transform="matrix(.1,0,0,-.1,0,792)" d="M2220.8 4351.4 1902.6 4669.6 1584.4 4351.4 1442.9 4210 1336.9 4103.9 1230.8 4210 1089.4 4068.6 1336.9 3821.1 1584.4 4068.6 1725.8 4210 1902.6 4386.8 2079.3 4210" fill="#4066cc"/>
<path transform="matrix(.1,0,0,-.1,0,792)" stroke-width="1" stroke-linecap="butt" stroke-miterlimit="10" stroke-linejoin="miter" fill="none" stroke="#000000" d="M2220.8 4351.4 1902.6 4669.6 1584.4 4351.4 1442.9 4210 1336.9 4103.9 1230.8 4210 1089.4 4068.6 1336.9 3821.1 1584.4 4068.6 1725.8 4210 1902.6 4386.8 2079.3 4210Z"/>
<path transform="matrix(.1,0,0,-.1,0,792)" d="M3847.1 4068.6 4165.3 3750.4 4483.5 4068.6 4624.9 4210 4731 4316.1 4837 4210 4978.5 4351.4 4731 4598.9 4483.5 4351.4 4342.1 4210 4165.3 4033.2 3988.5 4210" fill="#4066cc"/>
<path transform="matrix(.1,0,0,-.1,0,792)" stroke-width="1" stroke-linecap="butt" stroke-miterlimit="10" stroke-linejoin="miter" fill="none" stroke="#000000" d="M3847.1 4068.6 4165.3 3750.4 4483.5 4068.6 4624.9 4210 4731 4316.1 4837 4210 4978.5 4351.4 4731 4598.9 4483.5 4351.4 4342.1 4210 4165.3 4033.2 3988.5 4210Z"/>
<path transform="matrix(.1,0,0,-.1,0,792)" d="M2079.3 4210 1902.6 4386.8 1725.8 4210 1902.6 4033.2" fill="#ffffff"/>
<path transform="matrix(.1,0,0,-.1,0,792)" stroke-width="1" stroke-linecap="butt" stroke-miterlimit="10" stroke-linejoin="miter" fill="none" stroke="#000000" d="M2079.3 4210 1902.6 4386.8 1725.8 4210 1902.6 4033.2Z"/>
<path transform="matrix(.1,0,0,-.1,0,792)" d="M3988.5 4210 4165.3 4033.2 4342.1 4210 4165.3 4386.8" fill="#ffffff"/>
<path transform="matrix(.1,0,0,-.1,0,792)" stroke-width="1" stroke-linecap="butt" stroke-miterlimit="10" stroke-linejoin="miter" fill="none" stroke="#000000" d="M3988.5 4210 4165.3 4033.2 4342.1 4210 4165.3 4386.8Z"/>
<path transform="matrix(.1,0,0,-.1,0,792)" d="M3175.3 5659.6 3422.8 5907.1 3175.3 6154.5 3033.9 6296 2857.1 6472.7 2715.7 6331.3 2892.5 6154.5 3033.9 6013.1 3140 5907.1 3033.9 5801" fill="#4066cc"/>
<path transform="matrix(.1,0,0,-.1,0,792)" stroke-width="1" stroke-linecap="butt" stroke-miterlimit="10" stroke-linejoin="miter" fill="none" stroke="#000000" d="M3175.3 5659.6 3422.8 5907.1 3175.3 6154.5 3033.9 6296 2857.1 6472.7 2715.7 6331.3 2892.5 6154.5 3033.9 6013.1 3140 5907.1 3033.9 5801Z"/>
<path transform="matrix(.1,0,0,-.1,0,792)" d="M2892.5 2760.4 2645 2512.9 2892.5 2265.5 3033.9 2124 3210.7 1947.3 3352.1 2088.7 3175.3 2265.5 3033.9 2406.9 2927.9 2512.9 3033.9 2619" fill="#4066cc"/>
<path transform="matrix(.1,0,0,-.1,0,792)" stroke-width="1" stroke-linecap="butt" stroke-miterlimit="10" stroke-linejoin="miter" fill="none" stroke="#000000" d="M2892.5 2760.4 2645 2512.9 2892.5 2265.5 3033.9 2124 3210.7 1947.3 3352.1 2088.7 3175.3 2265.5 3033.9 2406.9 2927.9 2512.9 3033.9 2619Z"/>
<path transform="matrix(.1,0,0,-.1,0,792)" d="M3033.9 2619 2927.9 2512.9 3033.9 2406.9 3140 2512.9" fill="#ffffff"/>
<path transform="matrix(.1,0,0,-.1,0,792)" stroke-width="1" stroke-linecap="butt" stroke-miterlimit="10" stroke-linejoin="miter" fill="none" stroke="#000000" d="M3033.9 2619 2927.9 2512.9 3033.9 2406.9 3140 2512.9Z"/>
<path transform="matrix(.1,0,0,-.1,0,792)" d="M3033.9 5801 3140 5907.1 3033.9 6013.1 2927.9 5907.1" fill="#ffffff"/>
<path transform="matrix(.1,0,0,-.1,0,792)" stroke-width="1" stroke-linecap="butt" stroke-miterlimit="10" stroke-linejoin="miter" fill="none" stroke="#000000" d="M3033.9 5801 3140 5907.1 3033.9 6013.1 2927.9 5907.1Z"/>
<path transform="matrix(.1,0,0,-.1,0,792)" d="M1902.6 6013.1 2220.8 6331.3 2362.2 6472.7 2468.2 6578.8 2574.3 6472.7 2715.7 6614.2 2468.2 6861.7 2220.8 6614.2 2079.3 6472.7 1902.6 6296 1725.8 6472.7 1584.4 6331.3" fill="#4066cc"/>
<path transform="matrix(.1,0,0,-.1,0,792)" stroke-width="1" stroke-linecap="butt" stroke-miterlimit="10" stroke-linejoin="miter" fill="none" stroke="#000000" d="M1902.6 6013.1 2220.8 6331.3 2362.2 6472.7 2468.2 6578.8 2574.3 6472.7 2715.7 6614.2 2468.2 6861.7 2220.8 6614.2 2079.3 6472.7 1902.6 6296 1725.8 6472.7 1584.4 6331.3Z"/>
<path transform="matrix(.1,0,0,-.1,0,792)" d="M1902.6 2406.9 1584.4 2088.7 1442.9 1947.3 1336.9 1841.2 1230.8 1947.3 1089.4 1805.8 1336.9 1558.3 1584.4 1805.8 1725.8 1947.3 1902.6 2124 2079.3 1947.3 2220.8 2088.7" fill="#80a6cc"/>
<path transform="matrix(.1,0,0,-.1,0,792)" stroke-width="1" stroke-linecap="butt" stroke-miterlimit="10" stroke-linejoin="miter" fill="none" stroke="#000000" d="M1902.6 2406.9 1584.4 2088.7 1442.9 1947.3 1336.9 1841.2 1230.8 1947.3 1089.4 1805.8 1336.9 1558.3 1584.4 1805.8 1725.8 1947.3 1902.6 2124 2079.3 1947.3 2220.8 2088.7Z"/>
<path transform="matrix(.1,0,0,-.1,0,792)" d="M4165.3 2406.9 3847.1 2088.7 3705.7 1947.3 3599.6 1841.2 3493.5 1947.3 3352.1 1805.8 3599.6 1558.3 3847.1 1805.8 3988.5 1947.3 4165.3 2124 4342.1 1947.3 4483.5 2088.7" fill="#4066cc"/>
<path transform="matrix(.1,0,0,-.1,0,792)" stroke-width="1" stroke-linecap="butt" stroke-miterlimit="10" stroke-linejoin="miter" fill="none" stroke="#000000" d="M4165.3 2406.9 3847.1 2088.7 3705.7 1947.3 3599.6 1841.2 3493.5 1947.3 3352.1 1805.8 3599.6 1558.3 3847.1 1805.8 3988.5 1947.3 4165.3 2124 4342.1 1947.3 4483.5 2088.7Z"/>
<path transform="matrix(.1,0,0,-.1,0,792)" d="M4165.3 6013.1 4483.5 6331.3 4624.9 6472.7 4731 6578.8 4837 6472.7 4978.5 6614.2 4731 6861.7 4483.5 6614.2 4342.1 6472.7 4165.3 6296 3988.5 6472.7 3847.1 6331.3" fill="#80a6cc"/>
<path transform="matrix(.1,0,0,-.1,0,792)" stroke-width="1" stroke-linecap="butt" stroke-miterlimit="10" stroke-linejoin="miter" fill="none" stroke="#000000" d="M4165.3 6013.1 4483.5 6331.3 4624.9 6472.7 4731 6578.8 4837 6472.7 4978.5 6614.2 4731 6861.7 4483.5 6614.2 4342.1 6472.7 4165.3 6296 3988.5 6472.7 3847.1 6331.3Z"/>
<path transform="matrix(.1,0,0,-.1,0,792)" d="M3599.6 6083.8 3847.1 6331.3 3988.5 6472.7 4165.3 6649.5 4342.1 6472.7 4483.5 6614.2 4165.3 6932.4 3847.1 6614.2 3705.7 6472.7 3599.6 6366.7 3493.5 6472.7 3352.1 6331.3" fill="#4066cc"/>
<path transform="matrix(.1,0,0,-.1,0,792)" stroke-width="1" stroke-linecap="butt" stroke-miterlimit="10" stroke-linejoin="miter" fill="none" stroke="#000000" d="M3599.6 6083.8 3847.1 6331.3 3988.5 6472.7 4165.3 6649.5 4342.1 6472.7 4483.5 6614.2 4165.3 6932.4 3847.1 6614.2 3705.7 6472.7 3599.6 6366.7 3493.5 6472.7 3352.1 6331.3Z"/>
<path transform="matrix(.1,0,0,-.1,0,792)" d="M2468.2 6083.8 2715.7 6331.3 2857.1 6472.7 3033.9 6649.5 2892.5 6790.9 2715.7 6614.2 2574.3 6472.7 2468.2 6366.7 2362.2 6472.7 2220.8 6331.3" fill="#80a6cc"/>
<path transform="matrix(.1,0,0,-.1,0,792)" stroke-width="1" stroke-linecap="butt" stroke-miterlimit="10" stroke-linejoin="miter" fill="none" stroke="#000000" d="M2468.2 6083.8 2715.7 6331.3 2857.1 6472.7 3033.9 6649.5 2892.5 6790.9 2715.7 6614.2 2574.3 6472.7 2468.2 6366.7 2362.2 6472.7 2220.8 6331.3Z"/>
<path transform="matrix(.1,0,0,-.1,0,792)" d="M2468.2 2336.2 2220.8 2088.7 2079.3 1947.3 1902.6 1770.5 1725.8 1947.3 1584.4 1805.8 1902.6 1487.6 2220.8 1805.8 2362.2 1947.3 2468.2 2053.3 2574.3 1947.3 2715.7 2088.7" fill="#4066cc"/>
<path transform="matrix(.1,0,0,-.1,0,792)" stroke-width="1" stroke-linecap="butt" stroke-miterlimit="10" stroke-linejoin="miter" fill="none" stroke="#000000" d="M2468.2 2336.2 2220.8 2088.7 2079.3 1947.3 1902.6 1770.5 1725.8 1947.3 1584.4 1805.8 1902.6 1487.6 2220.8 1805.8 2362.2 1947.3 2468.2 2053.3 2574.3 1947.3 2715.7 2088.7Z"/>
<path transform="matrix(.1,0,0,-.1,0,792)" d="M3599.6 2336.2 3352.1 2088.7 3210.7 1947.3 3033.9 1770.5 3175.3 1629.1 3352.1 1805.8 3493.5 1947.3 3599.6 2053.3 3705.7 1947.3 3847.1 2088.7" fill="#80a6cc"/>
<path transform="matrix(.1,0,0,-.1,0,792)" stroke-width="1" stroke-linecap="butt" stroke-miterlimit="10" stroke-linejoin="miter" fill="none" stroke="#000000" d="M3599.6 2336.2 3352.1 2088.7 3210.7 1947.3 3033.9 1770.5 3175.3 1629.1 3352.1 1805.8 3493.5 1947.3 3599.6 2053.3 3705.7 1947.3 3847.1 2088.7Z"/>
<path transform="matrix(.1,0,0,-.1,0,792)" d="M1584.4 4351.4 1336.9 4598.9 1089.4 4351.4 948 4210 771.199 4033.2 912.602 3891.8 1089.4 4068.6 1230.8 4210 1336.9 4316.1 1442.9 4210" fill="#80a6cc"/>
<path transform="matrix(.1,0,0,-.1,0,792)" stroke-width="1" stroke-linecap="butt" stroke-miterlimit="10" stroke-linejoin="miter" fill="none" stroke="#000000" d="M1584.4 4351.4 1336.9 4598.9 1089.4 4351.4 948 4210 771.199 4033.2 912.602 3891.8 1089.4 4068.6 1230.8 4210 1336.9 4316.1 1442.9 4210Z"/>
<path transform="matrix(.1,0,0,-.1,0,792)" d="M2892.5 2265.5 2715.7 2088.7 2574.3 1947.3 2468.2 1841.2 2362.2 1947.3 2220.8 1805.8 2468.2 1558.3 2715.7 1805.8 2857.1 1947.3 3033.9 2124" fill="#80a6cc"/>
<path transform="matrix(.1,0,0,-.1,0,792)" stroke-width="1" stroke-linecap="butt" stroke-miterlimit="10" stroke-linejoin="miter" fill="none" stroke="#000000" d="M2892.5 2265.5 2715.7 2088.7 2574.3 1947.3 2468.2 1841.2 2362.2 1947.3 2220.8 1805.8 2468.2 1558.3 2715.7 1805.8 2857.1 1947.3 3033.9 2124Z"/>
<path transform="matrix(.1,0,0,-.1,0,792)" d="M3175.3 6154.5 3352.1 6331.3 3493.5 6472.7 3599.6 6578.8 3705.7 6472.7 3847.1 6614.2 3599.6 6861.7 3352.1 6614.2 3210.7 6472.7 3033.9 6296" fill="#80a6cc"/>
<path transform="matrix(.1,0,0,-.1,0,792)" stroke-width="1" stroke-linecap="butt" stroke-miterlimit="10" stroke-linejoin="miter" fill="none" stroke="#000000" d="M3175.3 6154.5 3352.1 6331.3 3493.5 6472.7 3599.6 6578.8 3705.7 6472.7 3847.1 6614.2 3599.6 6861.7 3352.1 6614.2 3210.7 6472.7 3033.9 6296Z"/>
<path transform="matrix(.1,0,0,-.1,0,792)" d="M4483.5 4068.6 4731 3821.1 4978.5 4068.6 5119.9 4210 5296.7 4386.8 5155.2 4528.2 4978.5 4351.4 4837 4210 4731 4103.9 4624.9 4210" fill="#80a6cc"/>
<path transform="matrix(.1,0,0,-.1,0,792)" stroke-width="1" stroke-linecap="butt" stroke-miterlimit="10" stroke-linejoin="miter" fill="none" stroke="#000000" d="M4483.5 4068.6 4731 3821.1 4978.5 4068.6 5119.9 4210 5296.7 4386.8 5155.2 4528.2 4978.5 4351.4 4837 4210 4731 4103.9 4624.9 4210Z"/>
<path transform="matrix(.1,0,0,-.1,0,792)" d="M4165.3 6296 4342.1 6472.7 4165.3 6649.5 3988.5 6472.7" fill="#ffffff"/>
<path transform="matrix(.1,0,0,-.1,0,792)" stroke-width="1" stroke-linecap="butt" stroke-miterlimit="10" stroke-linejoin="miter" fill="none" stroke="#000000" d="M4165.3 6296 4342.1 6472.7 4165.3 6649.5 3988.5 6472.7Z"/>
<path transform="matrix(.1,0,0,-.1,0,792)" d="M3033.9 6296 3210.7 6472.7 3033.9 6649.5 2857.1 6472.7" fill="#ffffff"/>
<path transform="matrix(.1,0,0,-.1,0,792)" stroke-width="1" stroke-linecap="butt" stroke-miterlimit="10" stroke-linejoin="miter" fill="none" stroke="#000000" d="M3033.9 6296 3210.7 6472.7 3033.9 6649.5 2857.1 6472.7Z"/>
<path transform="matrix(.1,0,0,-.1,0,792)" d="M1902.6 6296 2079.3 6472.7 1902.6 6649.5 1725.8 6472.7" fill="#ffffff"/>
<path transform="matrix(.1,0,0,-.1,0,792)" stroke-width="1" stroke-linecap="butt" stroke-miterlimit="10" stroke-linejoin="miter" fill="none" stroke="#000000" d="M1902.6 6296 2079.3 6472.7 1902.6 6649.5 1725.8 6472.7Z"/>
<path transform="matrix(.1,0,0,-.1,0,792)" d="M1902.6 2124 1725.8 1947.3 1902.6 1770.5 2079.3 1947.3" fill="#ffffff"/>
<path transform="matrix(.1,0,0,-.1,0,792)" stroke-width="1" stroke-linecap="butt" stroke-miterlimit="10" stroke-linejoin="miter" fill="none" stroke="#000000" d="M1902.6 2124 1725.8 1947.3 1902.6 1770.5 2079.3 1947.3Z"/>
<path transform="matrix(.1,0,0,-.1,0,792)" d="M3033.9 2124 2857.1 1947.3 3033.9 1770.5 3210.7 1947.3" fill="#ffffff"/>
<path transform="matrix(.1,0,0,-.1,0,792)" stroke-width="1" stroke-linecap="butt" stroke-miterlimit="10" stroke-linejoin="miter" fill="none" stroke="#000000" d="M3033.9 2124 2857.1 1947.3 3033.9 1770.5 3210.7 1947.3Z"/>
<path transform="matrix(.1,0,0,-.1,0,792)" d="M4165.3 2124 3988.5 1947.3 4165.3 1770.5 4342.1 1947.3" fill="#ffffff"/>
<path transform="matrix(.1,0,0,-.1,0,792)" stroke-width="1" stroke-linecap="butt" stroke-miterlimit="10" stroke-linejoin="miter" fill="none" stroke="#000000" d="M4165.3 2124 3988.5 1947.3 4165.3 1770.5 4342.1 1947.3Z"/>
<path transform="matrix(.1,0,0,-.1,0,792)" d="M1442.9 4210 1336.9 4316.1 1230.8 4210 1336.9 4103.9" fill="#ffffff"/>
<path transform="matrix(.1,0,0,-.1,0,792)" stroke-width="1" stroke-linecap="butt" stroke-miterlimit="10" stroke-linejoin="miter" fill="none" stroke="#000000" d="M1442.9 4210 1336.9 4316.1 1230.8 4210 1336.9 4103.9Z"/>
<path transform="matrix(.1,0,0,-.1,0,792)" d="M1584.4 2088.7 1336.9 2336.2 1089.4 2088.7 948 1947.3 771.199 1770.5 912.602 1629.1 1089.4 1805.8 1230.8 1947.3 1336.9 2053.3 1442.9 1947.3" fill="#4066cc"/>
<path transform="matrix(.1,0,0,-.1,0,792)" stroke-width="1" stroke-linecap="butt" stroke-miterlimit="10" stroke-linejoin="miter" fill="none" stroke="#000000" d="M1584.4 2088.7 1336.9 2336.2 1089.4 2088.7 948 1947.3 771.199 1770.5 912.602 1629.1 1089.4 1805.8 1230.8 1947.3 1336.9 2053.3 1442.9 1947.3Z"/>
<path transform="matrix(.1,0,0,-.1,0,792)" d="M4483.5 2088.7 4342.1 1947.3 4165.3 1770.5 3988.5 1947.3 3847.1 1805.8 4165.3 1487.6 4483.5 1805.8 4624.9 1947.3 4731 2053.3 4837 1947.3 4978.5 2088.7 4731 2336.2" fill="#80a6cc"/>
<path transform="matrix(.1,0,0,-.1,0,792)" stroke-width="1" stroke-linecap="butt" stroke-miterlimit="10" stroke-linejoin="miter" fill="none" stroke="#000000" d="M4483.5 2088.7 4342.1 1947.3 4165.3 1770.5 3988.5 1947.3 3847.1 1805.8 4165.3 1487.6 4483.5 1805.8 4624.9 1947.3 4731 2053.3 4837 1947.3 4978.5 2088.7 4731 2336.2Z"/>
<path transform="matrix(.1,0,0,-.1,0,792)" d="M4483.5 6331.3 4731 6083.8 4978.5 6331.3 5119.9 6472.7 5296.7 6649.5 5155.2 6790.9 4978.5 6614.2 4837 6472.7 4731 6366.7 4624.9 6472.7" fill="#4066cc"/>
<path transform="matrix(.1,0,0,-.1,0,792)" stroke-width="1" stroke-linecap="butt" stroke-miterlimit="10" stroke-linejoin="miter" fill="none" stroke="#000000" d="M4483.5 6331.3 4731 6083.8 4978.5 6331.3 5119.9 6472.7 5296.7 6649.5 5155.2 6790.9 4978.5 6614.2 4837 6472.7 4731 6366.7 4624.9 6472.7Z"/>
<path transform="matrix(.1,0,0,-.1,0,792)" d="M1584.4 6331.3 1725.8 6472.7 1902.6 6649.5 2079.3 6472.7 2220.8 6614.2 1902.6 6932.4 1584.4 6614.2 1442.9 6472.7 1336.9 6366.7 1230.8 6472.7 1089.4 6331.3 1336.9 6083.8" fill="#80a6cc"/>
<path transform="matrix(.1,0,0,-.1,0,792)" stroke-width="1" stroke-linecap="butt" stroke-miterlimit="10" stroke-linejoin="miter" fill="none" stroke="#000000" d="M1584.4 6331.3 1725.8 6472.7 1902.6 6649.5 2079.3 6472.7 2220.8 6614.2 1902.6 6932.4 1584.4 6614.2 1442.9 6472.7 1336.9 6366.7 1230.8 6472.7 1089.4 6331.3 1336.9 6083.8Z"/>
<path transform="matrix(.1,0,0,-.1,0,792)" d="M2468.2 2053.3 2362.2 1947.3 2468.2 1841.2 2574.3 1947.3" fill="#ffffff"/>
<path transform="matrix(.1,0,0,-.1,0,792)" stroke-width="1" stroke-linecap="butt" stroke-miterlimit="10" stroke-linejoin="miter" fill="none" stroke="#000000" d="M2468.2 2053.3 2362.2 1947.3 2468.2 1841.2 2574.3 1947.3Z"/>
<path transform="matrix(.1,0,0,-.1,0,792)" d="M3599.6 2053.3 3493.5 1947.3 3599.6 1841.2 3705.7 1947.3" fill="#ffffff"/>
<path transform="matrix(.1,0,0,-.1,0,792)" stroke-width="1" stroke-linecap="butt" stroke-miterlimit="10" stroke-linejoin="miter" fill="none" stroke="#000000" d="M3599.6 2053.3 3493.5 1947.3 3599.6 1841.2 3705.7 1947.3Z"/>
<path transform="matrix(.1,0,0,-.1,0,792)" d="M3599.6 6366.7 3705.7 6472.7 3599.6 6578.8 3493.5 6472.7" fill="#ffffff"/>
<path transform="matrix(.1,0,0,-.1,0,792)" stroke-width="1" stroke-linecap="butt" stroke-miterlimit="10" stroke-linejoin="miter" fill="none" stroke="#000000" d="M3599.6 6366.7 3705.7 6472.7 3599.6 6578.8 3493.5 6472.7Z"/>
<path transform="matrix(.1,0,0,-.1,0,792)" d="M2468.2 6366.7 2574.3 6472.7 2468.2 6578.8 2362.2 6472.7" fill="#ffffff"/>
<path transform="matrix(.1,0,0,-.1,0,792)" stroke-width="1" stroke-linecap="butt" stroke-miterlimit="10" stroke-linejoin="miter" fill="none" stroke="#000000" d="M2468.2 6366.7 2574.3 6472.7 2468.2 6578.8 2362.2 6472.7Z"/>
<path transform="matrix(.1,0,0,-.1,0,792)" d="M1336.9 6366.7 1442.9 6472.7 1336.9 6578.8 1230.8 6472.7" fill="#ffffff"/>
<path transform="matrix(.1,0,0,-.1,0,792)" stroke-width="1" stroke-linecap="butt" stroke-miterlimit="10" stroke-linejoin="miter" fill="none" stroke="#000000" d="M1336.9 6366.7 1442.9 6472.7 1336.9 6578.8 1230.8 6472.7Z"/>
<path transform="matrix(.1,0,0,-.1,0,792)" d="M1336.9 2053.3 1230.8 1947.3 1336.9 1841.2 1442.9 1947.3" fill="#ffffff"/>
<path transform="matrix(.1,0,0,-.1,0,792)" stroke-width="1" stroke-linecap="butt" stroke-miterlimit="10" stroke-linejoin="miter" fill="none" stroke="#000000" d="M1336.9 2053.3 1230.8 1947.3 1336.9 1841.2 1442.9 1947.3Z"/>
<path transform="matrix(.1,0,0,-.1,0,792)" d="M2857.1 1947.3 2715.7 1805.8 2892.5 1629.1 3033.9 1487.6 3140 1381.6 3033.9 1275.5 3175.3 1134.1 3422.8 1381.6 3175.3 1629.1 3033.9 1770.5" fill="#4066cc"/>
<path transform="matrix(.1,0,0,-.1,0,792)" stroke-width="1" stroke-linecap="butt" stroke-miterlimit="10" stroke-linejoin="miter" fill="none" stroke="#000000" d="M2857.1 1947.3 2715.7 1805.8 2892.5 1629.1 3033.9 1487.6 3140 1381.6 3033.9 1275.5 3175.3 1134.1 3422.8 1381.6 3175.3 1629.1 3033.9 1770.5Z"/>
<path transform="matrix(.1,0,0,-.1,0,792)" d="M3210.7 6472.7 3352.1 6614.2 3175.3 6790.9 3033.9 6932.4 2927.9 7038.4 3033.9 7144.5 2892.5 7285.9 2645 7038.4 2892.5 6790.9 3033.9 6649.5" fill="#4066cc"/>
<path transform="matrix(.1,0,0,-.1,0,792)" stroke-width="1" stroke-linecap="butt" stroke-miterlimit="10" stroke-linejoin="miter" fill="none" stroke="#000000" d="M3210.7 6472.7 3352.1 6614.2 3175.3 6790.9 3033.9 6932.4 2927.9 7038.4 3033.9 7144.5 2892.5 7285.9 2645 7038.4 2892.5 6790.9 3033.9 6649.5Z"/>
<path transform="matrix(.1,0,0,-.1,0,792)" d="M1442.9 6472.7 1584.4 6614.2 1336.9 6861.7 1089.4 6614.2 948 6472.7 771.199 6296 912.602 6154.5 1089.4 6331.3 1230.8 6472.7 1336.9 6578.8" fill="#4066cc"/>
<path transform="matrix(.1,0,0,-.1,0,792)" stroke-width="1" stroke-linecap="butt" stroke-miterlimit="10" stroke-linejoin="miter" fill="none" stroke="#000000" d="M1442.9 6472.7 1584.4 6614.2 1336.9 6861.7 1089.4 6614.2 948 6472.7 771.199 6296 912.602 6154.5 1089.4 6331.3 1230.8 6472.7 1336.9 6578.8Z"/>
<path transform="matrix(.1,0,0,-.1,0,792)" d="M4624.9 1947.3 4731 1841.2 4837 1947.3 4731 2053.3" fill="#ffffff"/>
<path transform="matrix(.1,0,0,-.1,0,792)" stroke-width="1" stroke-linecap="butt" stroke-miterlimit="10" stroke-linejoin="miter" fill="none" stroke="#000000" d="M4624.9 1947.3 4731 1841.2 4837 1947.3 4731 2053.3Z"/>
<path transform="matrix(.1,0,0,-.1,0,792)" d="M4624.9 1947.3 4483.5 1805.8 4731 1558.3 4978.5 1805.8 5119.9 1947.3 5296.7 2124 5155.2 2265.5 4978.5 2088.7 4837 1947.3 4731 1841.2" fill="#4066cc"/>
<path transform="matrix(.1,0,0,-.1,0,792)" stroke-width="1" stroke-linecap="butt" stroke-miterlimit="10" stroke-linejoin="miter" fill="none" stroke="#000000" d="M4624.9 1947.3 4483.5 1805.8 4731 1558.3 4978.5 1805.8 5119.9 1947.3 5296.7 2124 5155.2 2265.5 4978.5 2088.7 4837 1947.3 4731 1841.2Z"/>
<path transform="matrix(.1,0,0,-.1,0,792)" d="M4624.9 4210 4731 4103.9 4837 4210 4731 4316.1" fill="#ffffff"/>
<path transform="matrix(.1,0,0,-.1,0,792)" stroke-width="1" stroke-linecap="butt" stroke-miterlimit="10" stroke-linejoin="miter" fill="none" stroke="#000000" d="M4624.9 4210 4731 4103.9 4837 4210 4731 4316.1Z"/>
<path transform="matrix(.1,0,0,-.1,0,792)" d="M4624.9 6472.7 4731 6366.7 4837 6472.7 4731 6578.8" fill="#ffffff"/>
<path transform="matrix(.1,0,0,-.1,0,792)" stroke-width="1" stroke-linecap="butt" stroke-miterlimit="10" stroke-linejoin="miter" fill="none" stroke="#000000" d="M4624.9 6472.7 4731 6366.7 4837 6472.7 4731 6578.8Z"/>
<path transform="matrix(.1,0,0,-.1,0,792)" d="M1230.8 5341.4 912.602 5659.6 771.199 5801 665.102 5907.1 771.199 6013.1 629.801 6154.5 382.301 5907.1 629.801 5659.6 771.199 5518.1 948 5341.4 771.199 5164.6 912.602 5023.2" fill="#4066cc"/>
<path transform="matrix(.1,0,0,-.1,0,792)" stroke-width="1" stroke-linecap="butt" stroke-miterlimit="10" stroke-linejoin="miter" fill="none" stroke="#000000" d="M1230.8 5341.4 912.602 5659.6 771.199 5801 665.102 5907.1 771.199 6013.1 629.801 6154.5 382.301 5907.1 629.801 5659.6 771.199 5518.1 948 5341.4 771.199 5164.6 912.602 5023.2Z"/>
<path transform="matrix(.1,0,0,-.1,0,792)" d="M1230.8 3078.6 912.602 3396.8 771.199 3538.2 665.102 3644.3 771.199 3750.4 629.801 3891.8 382.301 3644.3 629.801 3396.8 771.199 3255.4 948 3078.6 771.199 2901.9 912.602 2760.4" fill="#80a6cc"/>
<path transform="matrix(.1,0,0,-.1,0,792)" stroke-width="1" stroke-linecap="butt" stroke-miterlimit="10" stroke-linejoin="miter" fill="none" stroke="#000000" d="M1230.8 3078.6 912.602 3396.8 771.199 3538.2 665.102 3644.3 771.199 3750.4 629.801 3891.8 382.301 3644.3 629.801 3396.8 771.199 3255.4 948 3078.6 771.199 2901.9 912.602 2760.4Z"/>
<path transform="matrix(.1,0,0,-.1,0,792)" d="M1584.4 1805.8 1336.9 1558.3 1089.4 1805.8 912.602 1629.1 1160.1 1381.6 912.602 1134.1 1230.8 815.898 912.602 497.699 1160.1 250.199 912.602 2.69922 1089.4-174.102 1336.9 73.3984 1584.4-174.102 1902.6 144.102 2220.8-174.102 2468.2 73.3984 2715.7-174.102 2892.5 2.69922 2645 250.199 2892.5 497.699 2574.3 815.898 2892.5 1134.1 2645 1381.6 2892.5 1629.1 2715.7 1805.8 2468.2 1558.3 2220.8 1805.8 1902.6 1487.6" fill="#ffffff"/>
<path transform="matrix(.1,0,0,-.1,0,792)" stroke-width="1" stroke-linecap="butt" stroke-miterlimit="10" stroke-linejoin="miter" fill="none" stroke="#000000" d="M1584.4 1805.8 1336.9 1558.3 1089.4 1805.8 912.602 1629.1 1160.1 1381.6 912.602 1134.1 1230.8 815.898 912.602 497.699 1160.1 250.199 912.602 2.69922 1089.4-174.102 1336.9 73.3984 1584.4-174.102 1902.6 144.102 2220.8-174.102 2468.2 73.3984 2715.7-174.102 2892.5 2.69922 2645 250.199 2892.5 497.699 2574.3 815.898 2892.5 1134.1 2645 1381.6 2892.5 1629.1 2715.7 1805.8 2468.2 1558.3 2220.8 1805.8 1902.6 1487.6Z"/>
<path transform="matrix(.1,0,0,-.1,0,792)" d="M3352.1 1805.8 3175.3 1629.1 3422.8 1381.6 3175.3 1134.1 3493.5 815.898 3175.3 497.699 3422.8 250.199 3175.3 2.69922 3352.1-174.102 3599.6 73.3984 3847.1-174.102 4165.3 144.102 4483.5-174.102 4731 73.3984 4978.5-174.102 5155.2 2.69922 4907.8 250.199 5155.2 497.699 4837 815.898 5155.2 1134.1 4907.8 1381.6 5155.2 1629.1 4978.5 1805.8 4731 1558.3 4483.5 1805.8 4165.3 1487.6 3847.1 1805.8 3599.6 1558.3" fill="#ffffff"/>
<path transform="matrix(.1,0,0,-.1,0,792)" stroke-width="1" stroke-linecap="butt" stroke-miterlimit="10" stroke-linejoin="miter" fill="none" stroke="#000000" d="M3352.1 1805.8 3175.3 1629.1 3422.8 1381.6 3175.3 1134.1 3493.5 815.898 3175.3 497.699 3422.8 250.199 3175.3 2.69922 3352.1-174.102 3599.6 73.3984 3847.1-174.102 4165.3 144.102 4483.5-174.102 4731 73.3984 4978.5-174.102 5155.2 2.69922 4907.8 250.199 5155.2 497.699 4837 815.898 5155.2 1134.1 4907.8 1381.6 5155.2 1629.1 4978.5 1805.8 4731 1558.3 4483.5 1805.8 4165.3 1487.6 3847.1 1805.8 3599.6 1558.3Z"/>
<path transform="matrix(.1,0,0,-.1,0,792)" d="M4483.5 6614.2 4731 6861.7 4978.5 6614.2 5155.2 6790.9 4907.8 7038.4 5155.2 7285.9 4837 7604.1 5155.2 7922.3 4907.8 8169.8 5155.2 8417.3 4978.5 8594.1 4731 8346.6 4483.5 8594.1 4165.3 8275.9 3847.1 8594.1 3599.6 8346.6 3352.1 8594.1 3175.3 8417.3 3422.8 8169.8 3175.3 7922.3 3493.5 7604.1 3175.3 7285.9 3422.8 7038.4 3175.3 6790.9 3352.1 6614.2 3599.6 6861.7 3847.1 6614.2 4165.3 6932.4" fill="#ffffff"/>
<path transform="matrix(.1,0,0,-.1,0,792)" stroke-width="1" stroke-linecap="butt" stroke-miterlimit="10" stroke-linejoin="miter" fill="none" stroke="#000000" d="M4483.5 6614.2 4731 6861.7 4978.5 6614.2 5155.2 6790.9 4907.8 7038.4 5155.2 7285.9 4837 7604.1 5155.2 7922.3 4907.8 8169.8 5155.2 8417.3 4978.5 8594.1 4731 8346.6 4483.5 8594.1 4165.3 8275.9 3847.1 8594.1 3599.6 8346.6 3352.1 8594.1 3175.3 8417.3 3422.8 8169.8 3175.3 7922.3 3493.5 7604.1 3175.3 7285.9 3422.8 7038.4 3175.3 6790.9 3352.1 6614.2 3599.6 6861.7 3847.1 6614.2 4165.3 6932.4Z"/>
<path transform="matrix(.1,0,0,-.1,0,792)" d="M2715.7 6614.2 2892.5 6790.9 2645 7038.4 2892.5 7285.9 2574.3 7604.1 2892.5 7922.3 2645 8169.8 2892.5 8417.3 2715.7 8594.1 2468.2 8346.6 2220.8 8594.1 1902.6 8275.9 1584.4 8594.1 1336.9 8346.6 1089.4 8594.1 912.602 8417.3 1160.1 8169.8 912.602 7922.3 1230.8 7604.1 912.602 7285.9 1160.1 7038.4 912.602 6790.9 1089.4 6614.2 1336.9 6861.7 1584.4 6614.2 1902.6 6932.4 2220.8 6614.2 2468.2 6861.7" fill="#ffffff"/>
<path transform="matrix(.1,0,0,-.1,0,792)" stroke-width="1" stroke-linecap="butt" stroke-miterlimit="10" stroke-linejoin="miter" fill="none" stroke="#000000" d="M2715.7 6614.2 2892.5 6790.9 2645 7038.4 2892.5 7285.9 2574.3 7604.1 2892.5 7922.3 2645 8169.8 2892.5 8417.3 2715.7 8594.1 2468.2 8346.6 2220.8 8594.1 1902.6 8275.9 1584.4 8594.1 1336.9 8346.6 1089.4 8594.1 912.602 8417.3 1160.1 8169.8 912.602 7922.3 1230.8 7604.1 912.602 7285.9 1160.1 7038.4 912.602 6790.9 1089.4 6614.2 1336.9 6861.7 1584.4 6614.2 1902.6 6932.4 2220.8 6614.2 2468.2 6861.7Z"/>
<path transform="matrix(.1,0,0,-.1,0,792)" d="M1160.1 5907.1 912.602 6154.5 771.199 6296 594.398 6472.7 453 6331.3 629.801 6154.5 771.199 6013.1 877.199 5907.1 771.199 5801 912.602 5659.6" fill="#80a6cc"/>
<path transform="matrix(.1,0,0,-.1,0,792)" stroke-width="1" stroke-linecap="butt" stroke-miterlimit="10" stroke-linejoin="miter" fill="none" stroke="#000000" d="M1160.1 5907.1 912.602 6154.5 771.199 6296 594.398 6472.7 453 6331.3 629.801 6154.5 771.199 6013.1 877.199 5907.1 771.199 5801 912.602 5659.6Z"/>
<path transform="matrix(.1,0,0,-.1,0,792)" d="M1160.1 4775.7 912.602 5023.2 771.199 5164.6 594.398 5341.4 771.199 5518.1 629.801 5659.6 311.602 5341.4 629.801 5023.2 771.199 4881.8 877.199 4775.7 771.199 4669.6 912.602 4528.2" fill="#80a6cc"/>
<path transform="matrix(.1,0,0,-.1,0,792)" stroke-width="1" stroke-linecap="butt" stroke-miterlimit="10" stroke-linejoin="miter" fill="none" stroke="#000000" d="M1160.1 4775.7 912.602 5023.2 771.199 5164.6 594.398 5341.4 771.199 5518.1 629.801 5659.6 311.602 5341.4 629.801 5023.2 771.199 4881.8 877.199 4775.7 771.199 4669.6 912.602 4528.2Z"/>
<path transform="matrix(.1,0,0,-.1,0,792)" d="M1160.1 3644.3 912.602 3891.8 771.199 4033.2 594.398 4210 453 4068.6 629.801 3891.8 771.199 3750.4 877.199 3644.3 771.199 3538.2 912.602 3396.8" fill="#4066cc"/>
<path transform="matrix(.1,0,0,-.1,0,792)" stroke-width="1" stroke-linecap="butt" stroke-miterlimit="10" stroke-linejoin="miter" fill="none" stroke="#000000" d="M1160.1 3644.3 912.602 3891.8 771.199 4033.2 594.398 4210 453 4068.6 629.801 3891.8 771.199 3750.4 877.199 3644.3 771.199 3538.2 912.602 3396.8Z"/>
<path transform="matrix(.1,0,0,-.1,0,792)" d="M1160.1 2512.9 912.602 2760.4 771.199 2901.9 594.398 3078.6 771.199 3255.4 629.801 3396.8 311.602 3078.6 629.801 2760.4 771.199 2619 877.199 2512.9 771.199 2406.9 912.602 2265.5" fill="#4066cc"/>
<path transform="matrix(.1,0,0,-.1,0,792)" stroke-width="1" stroke-linecap="butt" stroke-miterlimit="10" stroke-linejoin="miter" fill="none" stroke="#000000" d="M1160.1 2512.9 912.602 2760.4 771.199 2901.9 594.398 3078.6 771.199 3255.4 629.801 3396.8 311.602 3078.6 629.801 2760.4 771.199 2619 877.199 2512.9 771.199 2406.9 912.602 2265.5Z"/>
<path transform="matrix(.1,0,0,-.1,0,792)" d="M4837 3078.6 5155.2 2760.4 5296.7 2619 5402.7 2512.9 5296.7 2406.9 5438.1 2265.5 5685.6 2512.9 5438.1 2760.4 5296.7 2901.9 5119.9 3078.6 5296.7 3255.4 5155.2 3396.8" fill="#4066cc"/>
<path transform="matrix(.1,0,0,-.1,0,792)" stroke-width="1" stroke-linecap="butt" stroke-miterlimit="10" stroke-linejoin="miter" fill="none" stroke="#000000" d="M4837 3078.6 5155.2 2760.4 5296.7 2619 5402.7 2512.9 5296.7 2406.9 5438.1 2265.5 5685.6 2512.9 5438.1 2760.4 5296.7 2901.9 5119.9 3078.6 5296.7 3255.4 5155.2 3396.8Z"/>
<path transform="matrix(.1,0,0,-.1,0,792)" d="M4837 5341.4 5155.2 5023.2 5296.7 4881.8 5402.7 4775.7 5296.7 4669.6 5438.1 4528.2 5685.6 4775.7 5438.1 5023.2 5296.7 5164.6 5119.9 5341.4 5296.7 5518.1 5155.2 5659.6" fill="#80a6cc"/>
<path transform="matrix(.1,0,0,-.1,0,792)" stroke-width="1" stroke-linecap="butt" stroke-miterlimit="10" stroke-linejoin="miter" fill="none" stroke="#000000" d="M4837 5341.4 5155.2 5023.2 5296.7 4881.8 5402.7 4775.7 5296.7 4669.6 5438.1 4528.2 5685.6 4775.7 5438.1 5023.2 5296.7 5164.6 5119.9 5341.4 5296.7 5518.1 5155.2 5659.6Z"/>
<path transform="matrix(.1,0,0,-.1,0,792)" d="M3175.3 6790.9 3422.8 7038.4 3175.3 7285.9 3033.9 7427.3 2857.1 7604.1 3033.9 7780.9 2892.5 7922.3 2574.3 7604.1 2892.5 7285.9 3033.9 7144.5 3140 7038.4 3033.9 6932.4" fill="#80a6cc"/>
<path transform="matrix(.1,0,0,-.1,0,792)" stroke-width="1" stroke-linecap="butt" stroke-miterlimit="10" stroke-linejoin="miter" fill="none" stroke="#000000" d="M3175.3 6790.9 3422.8 7038.4 3175.3 7285.9 3033.9 7427.3 2857.1 7604.1 3033.9 7780.9 2892.5 7922.3 2574.3 7604.1 2892.5 7285.9 3033.9 7144.5 3140 7038.4 3033.9 6932.4Z"/>
<path transform="matrix(.1,0,0,-.1,0,792)" d="M2892.5 1629.1 2645 1381.6 2892.5 1134.1 3033.9 992.699 3210.7 815.898 3033.9 639.102 3175.3 497.699 3493.5 815.898 3175.3 1134.1 3033.9 1275.5 2927.9 1381.6 3033.9 1487.6" fill="#80a6cc"/>
<path transform="matrix(.1,0,0,-.1,0,792)" stroke-width="1" stroke-linecap="butt" stroke-miterlimit="10" stroke-linejoin="miter" fill="none" stroke="#000000" d="M2892.5 1629.1 2645 1381.6 2892.5 1134.1 3033.9 992.699 3210.7 815.898 3033.9 639.102 3175.3 497.699 3493.5 815.898 3175.3 1134.1 3033.9 1275.5 2927.9 1381.6 3033.9 1487.6Z"/>
<path transform="matrix(.1,0,0,-.1,0,792)" d="M1089.4 6614.2 912.602 6790.9 771.199 6932.4 665.102 7038.4 771.199 7144.5 629.801 7285.9 382.301 7038.4 629.801 6790.9 771.199 6649.5 948 6472.7" fill="#80a6cc"/>
<path transform="matrix(.1,0,0,-.1,0,792)" stroke-width="1" stroke-linecap="butt" stroke-miterlimit="10" stroke-linejoin="miter" fill="none" stroke="#000000" d="M1089.4 6614.2 912.602 6790.9 771.199 6932.4 665.102 7038.4 771.199 7144.5 629.801 7285.9 382.301 7038.4 629.801 6790.9 771.199 6649.5 948 6472.7Z"/>
<path transform="matrix(.1,0,0,-.1,0,792)" d="M1089.4 4351.4 912.602 4528.2 771.199 4669.6 665.102 4775.7 771.199 4881.8 629.801 5023.2 382.301 4775.7 629.801 4528.2 771.199 4386.8 948 4210" fill="#4066cc"/>
<path transform="matrix(.1,0,0,-.1,0,792)" stroke-width="1" stroke-linecap="butt" stroke-miterlimit="10" stroke-linejoin="miter" fill="none" stroke="#000000" d="M1089.4 4351.4 912.602 4528.2 771.199 4669.6 665.102 4775.7 771.199 4881.8 629.801 5023.2 382.301 4775.7 629.801 4528.2 771.199 4386.8 948 4210Z"/>
<path transform="matrix(.1,0,0,-.1,0,792)" d="M1089.4 2088.7 912.602 2265.5 771.199 2406.9 665.102 2512.9 771.199 2619 629.801 2760.4 382.301 2512.9 629.801 2265.5 771.199 2124 948 1947.3" fill="#80a6cc"/>
<path transform="matrix(.1,0,0,-.1,0,792)" stroke-width="1" stroke-linecap="butt" stroke-miterlimit="10" stroke-linejoin="miter" fill="none" stroke="#000000" d="M1089.4 2088.7 912.602 2265.5 771.199 2406.9 665.102 2512.9 771.199 2619 629.801 2760.4 382.301 2512.9 629.801 2265.5 771.199 2124 948 1947.3Z"/>
<path transform="matrix(.1,0,0,-.1,0,792)" d="M4907.8 2512.9 5155.2 2265.5 5296.7 2124 5473.4 1947.3 5614.9 2088.7 5438.1 2265.5 5296.7 2406.9 5190.6 2512.9 5296.7 2619 5155.2 2760.4" fill="#80a6cc"/>
<path transform="matrix(.1,0,0,-.1,0,792)" stroke-width="1" stroke-linecap="butt" stroke-miterlimit="10" stroke-linejoin="miter" fill="none" stroke="#000000" d="M4907.8 2512.9 5155.2 2265.5 5296.7 2124 5473.4 1947.3 5614.9 2088.7 5438.1 2265.5 5296.7 2406.9 5190.6 2512.9 5296.7 2619 5155.2 2760.4Z"/>
<path transform="matrix(.1,0,0,-.1,0,792)" d="M4907.8 3644.3 5155.2 3396.8 5296.7 3255.4 5473.4 3078.6 5296.7 2901.9 5438.1 2760.4 5756.3 3078.6 5438.1 3396.8 5296.7 3538.2 5190.6 3644.3 5296.7 3750.4 5155.2 3891.8" fill="#80a6cc"/>
<path transform="matrix(.1,0,0,-.1,0,792)" stroke-width="1" stroke-linecap="butt" stroke-miterlimit="10" stroke-linejoin="miter" fill="none" stroke="#000000" d="M4907.8 3644.3 5155.2 3396.8 5296.7 3255.4 5473.4 3078.6 5296.7 2901.9 5438.1 2760.4 5756.3 3078.6 5438.1 3396.8 5296.7 3538.2 5190.6 3644.3 5296.7 3750.4 5155.2 3891.8Z"/>
<path transform="matrix(.1,0,0,-.1,0,792)" d="M4907.8 4775.7 5155.2 4528.2 5296.7 4386.8 5473.4 4210 5614.9 4351.4 5438.1 4528.2 5296.7 4669.6 5190.6 4775.7 5296.7 4881.8 5155.2 5023.2" fill="#4066cc"/>
<path transform="matrix(.1,0,0,-.1,0,792)" stroke-width="1" stroke-linecap="butt" stroke-miterlimit="10" stroke-linejoin="miter" fill="none" stroke="#000000" d="M4907.8 4775.7 5155.2 4528.2 5296.7 4386.8 5473.4 4210 5614.9 4351.4 5438.1 4528.2 5296.7 4669.6 5190.6 4775.7 5296.7 4881.8 5155.2 5023.2Z"/>
<path transform="matrix(.1,0,0,-.1,0,792)" d="M4907.8 5907.1 5155.2 5659.6 5296.7 5518.1 5473.4 5341.4 5296.7 5164.6 5438.1 5023.2 5756.3 5341.4 5438.1 5659.6 5296.7 5801 5190.6 5907.1 5296.7 6013.1 5155.2 6154.5" fill="#4066cc"/>
<path transform="matrix(.1,0,0,-.1,0,792)" stroke-width="1" stroke-linecap="butt" stroke-miterlimit="10" stroke-linejoin="miter" fill="none" stroke="#000000" d="M4907.8 5907.1 5155.2 5659.6 5296.7 5518.1 5473.4 5341.4 5296.7 5164.6 5438.1 5023.2 5756.3 5341.4 5438.1 5659.6 5296.7 5801 5190.6 5907.1 5296.7 6013.1 5155.2 6154.5Z"/>
<path transform="matrix(.1,0,0,-.1,0,792)" d="M3033.9 6932.4 3140 7038.4 3033.9 7144.5 2927.9 7038.4" fill="#ffffff"/>
<path transform="matrix(.1,0,0,-.1,0,792)" stroke-width="1" stroke-linecap="butt" stroke-miterlimit="10" stroke-linejoin="miter" fill="none" stroke="#000000" d="M3033.9 6932.4 3140 7038.4 3033.9 7144.5 2927.9 7038.4Z"/>
<path transform="matrix(.1,0,0,-.1,0,792)" d="M3033.9 1487.6 2927.9 1381.6 3033.9 1275.5 3140 1381.6" fill="#ffffff"/>
<path transform="matrix(.1,0,0,-.1,0,792)" stroke-width="1" stroke-linecap="butt" stroke-miterlimit="10" stroke-linejoin="miter" fill="none" stroke="#000000" d="M3033.9 1487.6 2927.9 1381.6 3033.9 1275.5 3140 1381.6Z"/>
<path transform="matrix(.1,0,0,-.1,0,792)" d="M4978.5 1805.8 5155.2 1629.1 5296.7 1487.6 5402.7 1381.6 5296.7 1275.5 5438.1 1134.1 5685.6 1381.6 5438.1 1629.1 5296.7 1770.5 5119.9 1947.3" fill="#80a6cc"/>
<path transform="matrix(.1,0,0,-.1,0,792)" stroke-width="1" stroke-linecap="butt" stroke-miterlimit="10" stroke-linejoin="miter" fill="none" stroke="#000000" d="M4978.5 1805.8 5155.2 1629.1 5296.7 1487.6 5402.7 1381.6 5296.7 1275.5 5438.1 1134.1 5685.6 1381.6 5438.1 1629.1 5296.7 1770.5 5119.9 1947.3Z"/>
<path transform="matrix(.1,0,0,-.1,0,792)" d="M4978.5 4068.6 5155.2 3891.8 5296.7 3750.4 5402.7 3644.3 5296.7 3538.2 5438.1 3396.8 5685.6 3644.3 5438.1 3891.8 5296.7 4033.2 5119.9 4210" fill="#4066cc"/>
<path transform="matrix(.1,0,0,-.1,0,792)" stroke-width="1" stroke-linecap="butt" stroke-miterlimit="10" stroke-linejoin="miter" fill="none" stroke="#000000" d="M4978.5 4068.6 5155.2 3891.8 5296.7 3750.4 5402.7 3644.3 5296.7 3538.2 5438.1 3396.8 5685.6 3644.3 5438.1 3891.8 5296.7 4033.2 5119.9 4210Z"/>
<path transform="matrix(.1,0,0,-.1,0,792)" d="M4978.5 6331.3 5155.2 6154.5 5296.7 6013.1 5402.7 5907.1 5296.7 5801 5438.1 5659.6 5685.6 5907.1 5438.1 6154.5 5296.7 6296 5119.9 6472.7" fill="#80a6cc"/>
<path transform="matrix(.1,0,0,-.1,0,792)" stroke-width="1" stroke-linecap="butt" stroke-miterlimit="10" stroke-linejoin="miter" fill="none" stroke="#000000" d="M4978.5 6331.3 5155.2 6154.5 5296.7 6013.1 5402.7 5907.1 5296.7 5801 5438.1 5659.6 5685.6 5907.1 5438.1 6154.5 5296.7 6296 5119.9 6472.7Z"/>
<path transform="matrix(.1,0,0,-.1,0,792)" d="M948 6472.7 771.199 6649.5 594.398 6472.7 771.199 6296" fill="#ffffff"/>
<path transform="matrix(.1,0,0,-.1,0,792)" stroke-width="1" stroke-linecap="butt" stroke-miterlimit="10" stroke-linejoin="miter" fill="none" stroke="#000000" d="M948 6472.7 771.199 6649.5 594.398 6472.7 771.199 6296Z"/>
<path transform="matrix(.1,0,0,-.1,0,792)" d="M948 5341.4 771.199 5518.1 594.398 5341.4 771.199 5164.6" fill="#ffffff"/>
<path transform="matrix(.1,0,0,-.1,0,792)" stroke-width="1" stroke-linecap="butt" stroke-miterlimit="10" stroke-linejoin="miter" fill="none" stroke="#000000" d="M948 5341.4 771.199 5518.1 594.398 5341.4 771.199 5164.6Z"/>
<path transform="matrix(.1,0,0,-.1,0,792)" d="M948 4210 771.199 4386.8 594.398 4210 771.199 4033.2" fill="#ffffff"/>
<path transform="matrix(.1,0,0,-.1,0,792)" stroke-width="1" stroke-linecap="butt" stroke-miterlimit="10" stroke-linejoin="miter" fill="none" stroke="#000000" d="M948 4210 771.199 4386.8 594.398 4210 771.199 4033.2Z"/>
<path transform="matrix(.1,0,0,-.1,0,792)" d="M948 3078.6 771.199 3255.4 594.398 3078.6 771.199 2901.9" fill="#ffffff"/>
<path transform="matrix(.1,0,0,-.1,0,792)" stroke-width="1" stroke-linecap="butt" stroke-miterlimit="10" stroke-linejoin="miter" fill="none" stroke="#000000" d="M948 3078.6 771.199 3255.4 594.398 3078.6 771.199 2901.9Z"/>
<path transform="matrix(.1,0,0,-.1,0,792)" d="M948 1947.3 771.199 2124 594.398 1947.3 771.199 1770.5" fill="#ffffff"/>
<path transform="matrix(.1,0,0,-.1,0,792)" stroke-width="1" stroke-linecap="butt" stroke-miterlimit="10" stroke-linejoin="miter" fill="none" stroke="#000000" d="M948 1947.3 771.199 2124 594.398 1947.3 771.199 1770.5Z"/>
<path transform="matrix(.1,0,0,-.1,0,792)" d="M1160.1 1381.6 912.602 1629.1 771.199 1770.5 594.398 1947.3 453 1805.8 629.801 1629.1 771.199 1487.6 877.199 1381.6 771.199 1275.5 912.602 1134.1" fill="#80a6cc"/>
<path transform="matrix(.1,0,0,-.1,0,792)" stroke-width="1" stroke-linecap="butt" stroke-miterlimit="10" stroke-linejoin="miter" fill="none" stroke="#000000" d="M1160.1 1381.6 912.602 1629.1 771.199 1770.5 594.398 1947.3 453 1805.8 629.801 1629.1 771.199 1487.6 877.199 1381.6 771.199 1275.5 912.602 1134.1Z"/>
<path transform="matrix(.1,0,0,-.1,0,792)" d="M4907.8 1381.6 5155.2 1134.1 5296.7 992.699 5473.4 815.898 5296.7 639.102 5438.1 497.699 5756.3 815.898 5438.1 1134.1 5296.7 1275.5 5190.6 1381.6 5296.7 1487.6 5155.2 1629.1" fill="#4066cc"/>
<path transform="matrix(.1,0,0,-.1,0,792)" stroke-width="1" stroke-linecap="butt" stroke-miterlimit="10" stroke-linejoin="miter" fill="none" stroke="#000000" d="M4907.8 1381.6 5155.2 1134.1 5296.7 992.699 5473.4 815.898 5296.7 639.102 5438.1 497.699 5756.3 815.898 5438.1 1134.1 5296.7 1275.5 5190.6 1381.6 5296.7 1487.6 5155.2 1629.1Z"/>
<path transform="matrix(.1,0,0,-.1,0,792)" d="M4907.8 7038.4 5155.2 6790.9 5296.7 6649.5 5473.4 6472.7 5614.9 6614.2 5438.1 6790.9 5296.7 6932.4 5190.6 7038.4 5296.7 7144.5 5155.2 7285.9" fill="#80a6cc"/>
<path transform="matrix(.1,0,0,-.1,0,792)" stroke-width="1" stroke-linecap="butt" stroke-miterlimit="10" stroke-linejoin="miter" fill="none" stroke="#000000" d="M4907.8 7038.4 5155.2 6790.9 5296.7 6649.5 5473.4 6472.7 5614.9 6614.2 5438.1 6790.9 5296.7 6932.4 5190.6 7038.4 5296.7 7144.5 5155.2 7285.9Z"/>
<path transform="matrix(.1,0,0,-.1,0,792)" d="M1160.1 7038.4 912.602 7285.9 771.199 7427.3 594.398 7604.1 771.199 7780.9 629.801 7922.3 311.602 7604.1 629.801 7285.9 771.199 7144.5 877.199 7038.4 771.199 6932.4 912.602 6790.9" fill="#4066cc"/>
<path transform="matrix(.1,0,0,-.1,0,792)" stroke-width="1" stroke-linecap="butt" stroke-miterlimit="10" stroke-linejoin="miter" fill="none" stroke="#000000" d="M1160.1 7038.4 912.602 7285.9 771.199 7427.3 594.398 7604.1 771.199 7780.9 629.801 7922.3 311.602 7604.1 629.801 7285.9 771.199 7144.5 877.199 7038.4 771.199 6932.4 912.602 6790.9Z"/>
<path transform="matrix(.1,0,0,-.1,0,792)" d="M877.199 7038.4 771.199 7144.5 665.102 7038.4 771.199 6932.4" fill="#ffffff"/>
<path transform="matrix(.1,0,0,-.1,0,792)" stroke-width="1" stroke-linecap="butt" stroke-miterlimit="10" stroke-linejoin="miter" fill="none" stroke="#000000" d="M877.199 7038.4 771.199 7144.5 665.102 7038.4 771.199 6932.4Z"/>
<path transform="matrix(.1,0,0,-.1,0,792)" d="M877.199 5907.1 771.199 6013.1 665.102 5907.1 771.199 5801" fill="#ffffff"/>
<path transform="matrix(.1,0,0,-.1,0,792)" stroke-width="1" stroke-linecap="butt" stroke-miterlimit="10" stroke-linejoin="miter" fill="none" stroke="#000000" d="M877.199 5907.1 771.199 6013.1 665.102 5907.1 771.199 5801Z"/>
<path transform="matrix(.1,0,0,-.1,0,792)" d="M877.199 4775.7 771.199 4881.8 665.102 4775.7 771.199 4669.6" fill="#ffffff"/>
<path transform="matrix(.1,0,0,-.1,0,792)" stroke-width="1" stroke-linecap="butt" stroke-miterlimit="10" stroke-linejoin="miter" fill="none" stroke="#000000" d="M877.199 4775.7 771.199 4881.8 665.102 4775.7 771.199 4669.6Z"/>
<path transform="matrix(.1,0,0,-.1,0,792)" d="M877.199 3644.3 771.199 3750.4 665.102 3644.3 771.199 3538.2" fill="#ffffff"/>
<path transform="matrix(.1,0,0,-.1,0,792)" stroke-width="1" stroke-linecap="butt" stroke-miterlimit="10" stroke-linejoin="miter" fill="none" stroke="#000000" d="M877.199 3644.3 771.199 3750.4 665.102 3644.3 771.199 3538.2Z"/>
<path transform="matrix(.1,0,0,-.1,0,792)" d="M877.199 2512.9 771.199 2619 665.102 2512.9 771.199 2406.9" fill="#ffffff"/>
<path transform="matrix(.1,0,0,-.1,0,792)" stroke-width="1" stroke-linecap="butt" stroke-miterlimit="10" stroke-linejoin="miter" fill="none" stroke="#000000" d="M877.199 2512.9 771.199 2619 665.102 2512.9 771.199 2406.9Z"/>
<path transform="matrix(.1,0,0,-.1,0,792)" d="M877.199 1381.6 771.199 1487.6 665.102 1381.6 771.199 1275.5" fill="#ffffff"/>
<path transform="matrix(.1,0,0,-.1,0,792)" stroke-width="1" stroke-linecap="butt" stroke-miterlimit="10" stroke-linejoin="miter" fill="none" stroke="#000000" d="M877.199 1381.6 771.199 1487.6 665.102 1381.6 771.199 1275.5Z"/>
<path transform="matrix(.1,0,0,-.1,0,792)" d="M5119.9 1947.3 5296.7 1770.5 5473.4 1947.3 5296.7 2124" fill="#ffffff"/>
<path transform="matrix(.1,0,0,-.1,0,792)" stroke-width="1" stroke-linecap="butt" stroke-miterlimit="10" stroke-linejoin="miter" fill="none" stroke="#000000" d="M5119.9 1947.3 5296.7 1770.5 5473.4 1947.3 5296.7 2124Z"/>
<path transform="matrix(.1,0,0,-.1,0,792)" d="M5119.9 3078.6 5296.7 2901.9 5473.4 3078.6 5296.7 3255.4" fill="#ffffff"/>
<path transform="matrix(.1,0,0,-.1,0,792)" stroke-width="1" stroke-linecap="butt" stroke-miterlimit="10" stroke-linejoin="miter" fill="none" stroke="#000000" d="M5119.9 3078.6 5296.7 2901.9 5473.4 3078.6 5296.7 3255.4Z"/>
<path transform="matrix(.1,0,0,-.1,0,792)" d="M5119.9 4210 5296.7 4033.2 5473.4 4210 5296.7 4386.8" fill="#ffffff"/>
<path transform="matrix(.1,0,0,-.1,0,792)" stroke-width="1" stroke-linecap="butt" stroke-miterlimit="10" stroke-linejoin="miter" fill="none" stroke="#000000" d="M5119.9 4210 5296.7 4033.2 5473.4 4210 5296.7 4386.8Z"/>
<path transform="matrix(.1,0,0,-.1,0,792)" d="M5119.9 5341.4 5296.7 5164.6 5473.4 5341.4 5296.7 5518.1" fill="#ffffff"/>
<path transform="matrix(.1,0,0,-.1,0,792)" stroke-width="1" stroke-linecap="butt" stroke-miterlimit="10" stroke-linejoin="miter" fill="none" stroke="#000000" d="M5119.9 5341.4 5296.7 5164.6 5473.4 5341.4 5296.7 5518.1Z"/>
<path transform="matrix(.1,0,0,-.1,0,792)" d="M5119.9 6472.7 5296.7 6296 5473.4 6472.7 5296.7 6649.5" fill="#ffffff"/>
<path transform="matrix(.1,0,0,-.1,0,792)" stroke-width="1" stroke-linecap="butt" stroke-miterlimit="10" stroke-linejoin="miter" fill="none" stroke="#000000" d="M5119.9 6472.7 5296.7 6296 5473.4 6472.7 5296.7 6649.5Z"/>
<path transform="matrix(.1,0,0,-.1,0,792)" d="M771.199 6649.5 629.801 6790.9 453 6614.2 311.602 6472.7 205.5 6366.7 99.3984 6472.7-42 6331.3 205.5 6083.8 453 6331.3 594.398 6472.7" fill="#4066cc"/>
<path transform="matrix(.1,0,0,-.1,0,792)" stroke-width="1" stroke-linecap="butt" stroke-miterlimit="10" stroke-linejoin="miter" fill="none" stroke="#000000" d="M771.199 6649.5 629.801 6790.9 453 6614.2 311.602 6472.7 205.5 6366.7 99.3984 6472.7-42 6331.3 205.5 6083.8 453 6331.3 594.398 6472.7Z"/>
<path transform="matrix(.1,0,0,-.1,0,792)" d="M771.199 4386.8 629.801 4528.2 453 4351.4 311.602 4210 205.5 4103.9 99.3984 4210-42 4068.6 205.5 3821.1 453 4068.6 594.398 4210" fill="#80a6cc"/>
<path transform="matrix(.1,0,0,-.1,0,792)" stroke-width="1" stroke-linecap="butt" stroke-miterlimit="10" stroke-linejoin="miter" fill="none" stroke="#000000" d="M771.199 4386.8 629.801 4528.2 453 4351.4 311.602 4210 205.5 4103.9 99.3984 4210-42 4068.6 205.5 3821.1 453 4068.6 594.398 4210Z"/>
<path transform="matrix(.1,0,0,-.1,0,792)" d="M771.199 2124 629.801 2265.5 453 2088.7 311.602 1947.3 205.5 1841.2 99.3984 1947.3-42 1805.8 205.5 1558.3 453 1805.8 594.398 1947.3" fill="#4066cc"/>
<path transform="matrix(.1,0,0,-.1,0,792)" stroke-width="1" stroke-linecap="butt" stroke-miterlimit="10" stroke-linejoin="miter" fill="none" stroke="#000000" d="M771.199 2124 629.801 2265.5 453 2088.7 311.602 1947.3 205.5 1841.2 99.3984 1947.3-42 1805.8 205.5 1558.3 453 1805.8 594.398 1947.3Z"/>
<path transform="matrix(.1,0,0,-.1,0,792)" d="M771.199 1487.6 629.801 1629.1 382.301 1381.6 629.801 1134.1 771.199 992.699 948 815.898 771.199 639.102 912.602 497.699 1230.8 815.898 912.602 1134.1 771.199 1275.5 665.102 1381.6" fill="#4066cc"/>
<path transform="matrix(.1,0,0,-.1,0,792)" stroke-width="1" stroke-linecap="butt" stroke-miterlimit="10" stroke-linejoin="miter" fill="none" stroke="#000000" d="M771.199 1487.6 629.801 1629.1 382.301 1381.6 629.801 1134.1 771.199 992.699 948 815.898 771.199 639.102 912.602 497.699 1230.8 815.898 912.602 1134.1 771.199 1275.5 665.102 1381.6Z"/>
<path transform="matrix(.1,0,0,-.1,0,792)" d="M5190.6 1381.6 5296.7 1275.5 5402.7 1381.6 5296.7 1487.6" fill="#ffffff"/>
<path transform="matrix(.1,0,0,-.1,0,792)" stroke-width="1" stroke-linecap="butt" stroke-miterlimit="10" stroke-linejoin="miter" fill="none" stroke="#000000" d="M5190.6 1381.6 5296.7 1275.5 5402.7 1381.6 5296.7 1487.6Z"/>
<path transform="matrix(.1,0,0,-.1,0,792)" d="M5190.6 2512.9 5296.7 2406.9 5402.7 2512.9 5296.7 2619" fill="#ffffff"/>
<path transform="matrix(.1,0,0,-.1,0,792)" stroke-width="1" stroke-linecap="butt" stroke-miterlimit="10" stroke-linejoin="miter" fill="none" stroke="#000000" d="M5190.6 2512.9 5296.7 2406.9 5402.7 2512.9 5296.7 2619Z"/>
<path transform="matrix(.1,0,0,-.1,0,792)" d="M5190.6 3644.3 5296.7 3538.2 5402.7 3644.3 5296.7 3750.4" fill="#ffffff"/>
<path transform="matrix(.1,0,0,-.1,0,792)" stroke-width="1" stroke-linecap="butt" stroke-miterlimit="10" stroke-linejoin="miter" fill="none" stroke="#000000" d="M5190.6 3644.3 5296.7 3538.2 5402.7 3644.3 5296.7 3750.4Z"/>
<path transform="matrix(.1,0,0,-.1,0,792)" d="M5190.6 4775.7 5296.7 4669.6 5402.7 4775.7 5296.7 4881.8" fill="#ffffff"/>
<path transform="matrix(.1,0,0,-.1,0,792)" stroke-width="1" stroke-linecap="butt" stroke-miterlimit="10" stroke-linejoin="miter" fill="none" stroke="#000000" d="M5190.6 4775.7 5296.7 4669.6 5402.7 4775.7 5296.7 4881.8Z"/>
<path transform="matrix(.1,0,0,-.1,0,792)" d="M5190.6 5907.1 5296.7 5801 5402.7 5907.1 5296.7 6013.1" fill="#ffffff"/>
<path transform="matrix(.1,0,0,-.1,0,792)" stroke-width="1" stroke-linecap="butt" stroke-miterlimit="10" stroke-linejoin="miter" fill="none" stroke="#000000" d="M5190.6 5907.1 5296.7 5801 5402.7 5907.1 5296.7 6013.1Z"/>
<path transform="matrix(.1,0,0,-.1,0,792)" d="M5190.6 7038.4 5296.7 6932.4 5402.7 7038.4 5296.7 7144.5" fill="#ffffff"/>
<path transform="matrix(.1,0,0,-.1,0,792)" stroke-width="1" stroke-linecap="butt" stroke-miterlimit="10" stroke-linejoin="miter" fill="none" stroke="#000000" d="M5190.6 7038.4 5296.7 6932.4 5402.7 7038.4 5296.7 7144.5Z"/>
<path transform="matrix(.1,0,0,-.1,0,792)" d="M5155.2 7285.9 5296.7 7144.5 5402.7 7038.4 5296.7 6932.4 5438.1 6790.9 5685.6 7038.4 5438.1 7285.9 5296.7 7427.3 5119.9 7604.1 5296.7 7780.9 5155.2 7922.3 4837 7604.1" fill="#4066cc"/>
<path transform="matrix(.1,0,0,-.1,0,792)" stroke-width="1" stroke-linecap="butt" stroke-miterlimit="10" stroke-linejoin="miter" fill="none" stroke="#000000" d="M5155.2 7285.9 5296.7 7144.5 5402.7 7038.4 5296.7 6932.4 5438.1 6790.9 5685.6 7038.4 5438.1 7285.9 5296.7 7427.3 5119.9 7604.1 5296.7 7780.9 5155.2 7922.3 4837 7604.1Z"/>
<path transform="matrix(.1,0,0,-.1,0,792)" d="M3175.3 7285.9 3493.5 7604.1 3175.3 7922.3 3033.9 8063.7 2927.9 8169.8 3033.9 8275.9 2892.5 8417.3 2645 8169.8 2892.5 7922.3 3033.9 7780.9 3210.7 7604.1 3033.9 7427.3" fill="#4066cc"/>
<path transform="matrix(.1,0,0,-.1,0,792)" stroke-width="1" stroke-linecap="butt" stroke-miterlimit="10" stroke-linejoin="miter" fill="none" stroke="#000000" d="M3175.3 7285.9 3493.5 7604.1 3175.3 7922.3 3033.9 8063.7 2927.9 8169.8 3033.9 8275.9 2892.5 8417.3 2645 8169.8 2892.5 7922.3 3033.9 7780.9 3210.7 7604.1 3033.9 7427.3Z"/>
<path transform="matrix(.1,0,0,-.1,0,792)" d="M912.602 7285.9 1230.8 7604.1 912.602 7922.3 771.199 8063.7 665.102 8169.8 771.199 8275.9 629.801 8417.3 382.301 8169.8 629.801 7922.3 771.199 7780.9 948 7604.1 771.199 7427.3" fill="#80a6cc"/>
<path transform="matrix(.1,0,0,-.1,0,792)" stroke-width="1" stroke-linecap="butt" stroke-miterlimit="10" stroke-linejoin="miter" fill="none" stroke="#000000" d="M912.602 7285.9 1230.8 7604.1 912.602 7922.3 771.199 8063.7 665.102 8169.8 771.199 8275.9 629.801 8417.3 382.301 8169.8 629.801 7922.3 771.199 7780.9 948 7604.1 771.199 7427.3Z"/>
<path transform="matrix(.1,0,0,-.1,0,792)" d="M2892.5 1134.1 2574.3 815.898 2892.5 497.699 3033.9 356.301 3140 250.199 3033.9 144.102 3175.3 2.69922 3422.8 250.199 3175.3 497.699 3033.9 639.102 2857.1 815.898 3033.9 992.699" fill="#4066cc"/>
<path transform="matrix(.1,0,0,-.1,0,792)" stroke-width="1" stroke-linecap="butt" stroke-miterlimit="10" stroke-linejoin="miter" fill="none" stroke="#000000" d="M2892.5 1134.1 2574.3 815.898 2892.5 497.699 3033.9 356.301 3140 250.199 3033.9 144.102 3175.3 2.69922 3422.8 250.199 3175.3 497.699 3033.9 639.102 2857.1 815.898 3033.9 992.699Z"/>
<path transform="matrix(.1,0,0,-.1,0,792)" d="M5155.2 1134.1 4837 815.898 5155.2 497.699 5296.7 356.301 5402.7 250.199 5296.7 144.102 5438.1 2.69922 5685.6 250.199 5438.1 497.699 5296.7 639.102 5119.9 815.898 5296.7 992.699" fill="#80a6cc"/>
<path transform="matrix(.1,0,0,-.1,0,792)" stroke-width="1" stroke-linecap="butt" stroke-miterlimit="10" stroke-linejoin="miter" fill="none" stroke="#000000" d="M5155.2 1134.1 4837 815.898 5155.2 497.699 5296.7 356.301 5402.7 250.199 5296.7 144.102 5438.1 2.69922 5685.6 250.199 5438.1 497.699 5296.7 639.102 5119.9 815.898 5296.7 992.699Z"/>
<path transform="matrix(.1,0,0,-.1,0,792)" d="M5296.7 1770.5 5438.1 1629.1 5614.9 1805.8 5756.3 1947.3 5862.4 2053.3 5968.4 1947.3 6109.8 2088.7 5862.4 2336.2 5614.9 2088.7 5473.4 1947.3" fill="#4066cc"/>
<path transform="matrix(.1,0,0,-.1,0,792)" stroke-width="1" stroke-linecap="butt" stroke-miterlimit="10" stroke-linejoin="miter" fill="none" stroke="#000000" d="M5296.7 1770.5 5438.1 1629.1 5614.9 1805.8 5756.3 1947.3 5862.4 2053.3 5968.4 1947.3 6109.8 2088.7 5862.4 2336.2 5614.9 2088.7 5473.4 1947.3Z"/>
<path transform="matrix(.1,0,0,-.1,0,792)" d="M5296.7 4033.2 5438.1 3891.8 5614.9 4068.6 5756.3 4210 5862.4 4316.1 5968.4 4210 6109.8 4351.4 5862.4 4598.9 5614.9 4351.4 5473.4 4210" fill="#80a6cc"/>
<path transform="matrix(.1,0,0,-.1,0,792)" stroke-width="1" stroke-linecap="butt" stroke-miterlimit="10" stroke-linejoin="miter" fill="none" stroke="#000000" d="M5296.7 4033.2 5438.1 3891.8 5614.9 4068.6 5756.3 4210 5862.4 4316.1 5968.4 4210 6109.8 4351.4 5862.4 4598.9 5614.9 4351.4 5473.4 4210Z"/>
<path transform="matrix(.1,0,0,-.1,0,792)" d="M5296.7 6296 5438.1 6154.5 5614.9 6331.3 5756.3 6472.7 5862.4 6578.8 5968.4 6472.7 6109.8 6614.2 5862.4 6861.7 5614.9 6614.2 5473.4 6472.7" fill="#4066cc"/>
<path transform="matrix(.1,0,0,-.1,0,792)" stroke-width="1" stroke-linecap="butt" stroke-miterlimit="10" stroke-linejoin="miter" fill="none" stroke="#000000" d="M5296.7 6296 5438.1 6154.5 5614.9 6331.3 5756.3 6472.7 5862.4 6578.8 5968.4 6472.7 6109.8 6614.2 5862.4 6861.7 5614.9 6614.2 5473.4 6472.7Z"/>
<path transform="matrix(.1,0,0,-.1,0,792)" d="M5296.7 7427.3 5473.4 7604.1 5296.7 7780.9 5119.9 7604.1" fill="#ffffff"/>
<path transform="matrix(.1,0,0,-.1,0,792)" stroke-width="1" stroke-linecap="butt" stroke-miterlimit="10" stroke-linejoin="miter" fill="none" stroke="#000000" d="M5296.7 7427.3 5473.4 7604.1 5296.7 7780.9 5119.9 7604.1Z"/>
<path transform="matrix(.1,0,0,-.1,0,792)" d="M5296.7 7427.3 5438.1 7285.9 5756.3 7604.1 5438.1 7922.3 5296.7 8063.7 5190.6 8169.8 5296.7 8275.9 5155.2 8417.3 4907.8 8169.8 5155.2 7922.3 5296.7 7780.9 5473.4 7604.1" fill="#80a6cc"/>
<path transform="matrix(.1,0,0,-.1,0,792)" stroke-width="1" stroke-linecap="butt" stroke-miterlimit="10" stroke-linejoin="miter" fill="none" stroke="#000000" d="M5296.7 7427.3 5438.1 7285.9 5756.3 7604.1 5438.1 7922.3 5296.7 8063.7 5190.6 8169.8 5296.7 8275.9 5155.2 8417.3 4907.8 8169.8 5155.2 7922.3 5296.7 7780.9 5473.4 7604.1Z"/>
<path transform="matrix(.1,0,0,-.1,0,792)" d="M3033.9 7427.3 3210.7 7604.1 3033.9 7780.9 2857.1 7604.1" fill="#ffffff"/>
<path transform="matrix(.1,0,0,-.1,0,792)" stroke-width="1" stroke-linecap="butt" stroke-miterlimit="10" stroke-linejoin="miter" fill="none" stroke="#000000" d="M3033.9 7427.3 3210.7 7604.1 3033.9 7780.9 2857.1 7604.1Z"/>
<path transform="matrix(.1,0,0,-.1,0,792)" d="M771.199 7427.3 948 7604.1 771.199 7780.9 594.398 7604.1" fill="#ffffff"/>
<path transform="matrix(.1,0,0,-.1,0,792)" stroke-width="1" stroke-linecap="butt" stroke-miterlimit="10" stroke-linejoin="miter" fill="none" stroke="#000000" d="M771.199 7427.3 948 7604.1 771.199 7780.9 594.398 7604.1Z"/>
<path transform="matrix(.1,0,0,-.1,0,792)" d="M771.199 992.699 594.398 815.898 771.199 639.102 948 815.898" fill="#ffffff"/>
<path transform="matrix(.1,0,0,-.1,0,792)" stroke-width="1" stroke-linecap="butt" stroke-miterlimit="10" stroke-linejoin="miter" fill="none" stroke="#000000" d="M771.199 992.699 594.398 815.898 771.199 639.102 948 815.898Z"/>
<path transform="matrix(.1,0,0,-.1,0,792)" d="M771.199 992.699 629.801 1134.1 311.602 815.898 629.801 497.699 771.199 356.301 877.199 250.199 771.199 144.102 912.602 2.69922 1160.1 250.199 912.602 497.699 771.199 639.102 594.398 815.898" fill="#80a6cc"/>
<path transform="matrix(.1,0,0,-.1,0,792)" stroke-width="1" stroke-linecap="butt" stroke-miterlimit="10" stroke-linejoin="miter" fill="none" stroke="#000000" d="M771.199 992.699 629.801 1134.1 311.602 815.898 629.801 497.699 771.199 356.301 877.199 250.199 771.199 144.102 912.602 2.69922 1160.1 250.199 912.602 497.699 771.199 639.102 594.398 815.898Z"/>
<path transform="matrix(.1,0,0,-.1,0,792)" d="M3033.9 992.699 2857.1 815.898 3033.9 639.102 3210.7 815.898" fill="#ffffff"/>
<path transform="matrix(.1,0,0,-.1,0,792)" stroke-width="1" stroke-linecap="butt" stroke-miterlimit="10" stroke-linejoin="miter" fill="none" stroke="#000000" d="M3033.9 992.699 2857.1 815.898 3033.9 639.102 3210.7 815.898Z"/>
<path transform="matrix(.1,0,0,-.1,0,792)" d="M5296.7 992.699 5119.9 815.898 5296.7 639.102 5473.4 815.898" fill="#ffffff"/>
<path transform="matrix(.1,0,0,-.1,0,792)" stroke-width="1" stroke-linecap="butt" stroke-miterlimit="10" stroke-linejoin="miter" fill="none" stroke="#000000" d="M5296.7 992.699 5119.9 815.898 5296.7 639.102 5473.4 815.898Z"/>
<path transform="matrix(.1,0,0,-.1,0,792)" d="M629.801 7285.9 311.602 7604.1 629.801 7922.3 382.301 8169.8 629.801 8417.3 453 8594.1 205.5 8346.6-42 8594.1-360.199 8275.9-678.398 8594.1-925.898 8346.6-1173.4 8594.1-1350.1 8417.3-1102.6 8169.8-1350.1 7922.3-1031.9 7604.1-1350.1 7285.9-1102.6 7038.4-1350.1 6790.9-1173.4 6614.2-925.898 6861.7-678.398 6614.2-360.199 6932.4-42 6614.2 205.5 6861.7 453 6614.2 629.801 6790.9 382.301 7038.4" fill="#ffffff"/>
<path transform="matrix(.1,0,0,-.1,0,792)" stroke-width="1" stroke-linecap="butt" stroke-miterlimit="10" stroke-linejoin="miter" fill="none" stroke="#000000" d="M629.801 7285.9 311.602 7604.1 629.801 7922.3 382.301 8169.8 629.801 8417.3 453 8594.1 205.5 8346.6-42 8594.1-360.199 8275.9-678.398 8594.1-925.898 8346.6-1173.4 8594.1-1350.1 8417.3-1102.6 8169.8-1350.1 7922.3-1031.9 7604.1-1350.1 7285.9-1102.6 7038.4-1350.1 6790.9-1173.4 6614.2-925.898 6861.7-678.398 6614.2-360.199 6932.4-42 6614.2 205.5 6861.7 453 6614.2 629.801 6790.9 382.301 7038.4Z"/>
<path transform="matrix(.1,0,0,-.1,0,792)" d="M629.801 6154.5 453 6331.3 205.5 6083.8-42 6331.3-360.199 6013.1-678.398 6331.3-925.898 6083.8-1173.4 6331.3-1350.1 6154.5-1102.6 5907.1-1350.1 5659.6-1031.9 5341.4-1350.1 5023.2-1102.6 4775.7-1350.1 4528.2-1173.4 4351.4-925.898 4598.9-678.398 4351.4-360.199 4669.6-42 4351.4 205.5 4598.9 453 4351.4 629.801 4528.2 382.301 4775.7 629.801 5023.2 311.602 5341.4 629.801 5659.6 382.301 5907.1" fill="#ffffff"/>
<path transform="matrix(.1,0,0,-.1,0,792)" stroke-width="1" stroke-linecap="butt" stroke-miterlimit="10" stroke-linejoin="miter" fill="none" stroke="#000000" d="M629.801 6154.5 453 6331.3 205.5 6083.8-42 6331.3-360.199 6013.1-678.398 6331.3-925.898 6083.8-1173.4 6331.3-1350.1 6154.5-1102.6 5907.1-1350.1 5659.6-1031.9 5341.4-1350.1 5023.2-1102.6 4775.7-1350.1 4528.2-1173.4 4351.4-925.898 4598.9-678.398 4351.4-360.199 4669.6-42 4351.4 205.5 4598.9 453 4351.4 629.801 4528.2 382.301 4775.7 629.801 5023.2 311.602 5341.4 629.801 5659.6 382.301 5907.1Z"/>
<path transform="matrix(.1,0,0,-.1,0,792)" d="M629.801 3891.8 453 4068.6 205.5 3821.1-42 4068.6-360.199 3750.4-678.398 4068.6-925.898 3821.1-1173.4 4068.6-1350.1 3891.8-1102.6 3644.3-1350.1 3396.8-1031.9 3078.6-1350.1 2760.4-1102.6 2512.9-1350.1 2265.5-1173.4 2088.7-925.898 2336.2-678.398 2088.7-360.199 2406.9-42 2088.7 205.5 2336.2 453 2088.7 629.801 2265.5 382.301 2512.9 629.801 2760.4 311.602 3078.6 629.801 3396.8 382.301 3644.3" fill="#ffffff"/>
<path transform="matrix(.1,0,0,-.1,0,792)" stroke-width="1" stroke-linecap="butt" stroke-miterlimit="10" stroke-linejoin="miter" fill="none" stroke="#000000" d="M629.801 3891.8 453 4068.6 205.5 3821.1-42 4068.6-360.199 3750.4-678.398 4068.6-925.898 3821.1-1173.4 4068.6-1350.1 3891.8-1102.6 3644.3-1350.1 3396.8-1031.9 3078.6-1350.1 2760.4-1102.6 2512.9-1350.1 2265.5-1173.4 2088.7-925.898 2336.2-678.398 2088.7-360.199 2406.9-42 2088.7 205.5 2336.2 453 2088.7 629.801 2265.5 382.301 2512.9 629.801 2760.4 311.602 3078.6 629.801 3396.8 382.301 3644.3Z"/>
<path transform="matrix(.1,0,0,-.1,0,792)" d="M629.801 1629.1 453 1805.8 205.5 1558.3-42 1805.8-360.199 1487.6-678.398 1805.8-925.898 1558.3-1173.4 1805.8-1350.1 1629.1-1102.6 1381.6-1350.1 1134.1-1031.9 815.898-1350.1 497.699-1102.6 250.199-1350.1 2.69922-1173.4-174.102-925.898 73.3984-678.398-174.102-360.199 144.102-42-174.102 205.5 73.3984 453-174.102 629.801 2.69922 382.301 250.199 629.801 497.699 311.602 815.898 629.801 1134.1 382.301 1381.6" fill="#ffffff"/>
<path transform="matrix(.1,0,0,-.1,0,792)" stroke-width="1" stroke-linecap="butt" stroke-miterlimit="10" stroke-linejoin="miter" fill="none" stroke="#000000" d="M629.801 1629.1 453 1805.8 205.5 1558.3-42 1805.8-360.199 1487.6-678.398 1805.8-925.898 1558.3-1173.4 1805.8-1350.1 1629.1-1102.6 1381.6-1350.1 1134.1-1031.9 815.898-1350.1 497.699-1102.6 250.199-1350.1 2.69922-1173.4-174.102-925.898 73.3984-678.398-174.102-360.199 144.102-42-174.102 205.5 73.3984 453-174.102 629.801 2.69922 382.301 250.199 629.801 497.699 311.602 815.898 629.801 1134.1 382.301 1381.6Z"/>
<path transform="matrix(.1,0,0,-.1,0,792)" d="M5438.1 1134.1 5756.3 815.898 5438.1 497.699 5685.6 250.199 5438.1 2.69922 5614.9-174.102 5862.4 73.3984 6109.8-174.102 6428 144.102 6746.2-174.102 6993.7 73.3984 7241.2-174.102 7418 2.69922 7170.5 250.199 7418 497.699 7099.8 815.898 7418 1134.1 7170.5 1381.6 7418 1629.1 7241.2 1805.8 6993.7 1558.3 6746.2 1805.8 6428 1487.6 6109.8 1805.8 5862.4 1558.3 5614.9 1805.8 5438.1 1629.1 5685.6 1381.6" fill="#ffffff"/>
<path transform="matrix(.1,0,0,-.1,0,792)" stroke-width="1" stroke-linecap="butt" stroke-miterlimit="10" stroke-linejoin="miter" fill="none" stroke="#000000" d="M5438.1 1134.1 5756.3 815.898 5438.1 497.699 5685.6 250.199 5438.1 2.69922 5614.9-174.102 5862.4 73.3984 6109.8-174.102 6428 144.102 6746.2-174.102 6993.7 73.3984 7241.2-174.102 7418 2.69922 7170.5 250.199 7418 497.699 7099.8 815.898 7418 1134.1 7170.5 1381.6 7418 1629.1 7241.2 1805.8 6993.7 1558.3 6746.2 1805.8 6428 1487.6 6109.8 1805.8 5862.4 1558.3 5614.9 1805.8 5438.1 1629.1 5685.6 1381.6Z"/>
<path transform="matrix(.1,0,0,-.1,0,792)" d="M5438.1 2265.5 5614.9 2088.7 5862.4 2336.2 6109.8 2088.7 6428 2406.9 6746.2 2088.7 6993.7 2336.2 7241.2 2088.7 7418 2265.5 7170.5 2512.9 7418 2760.4 7099.8 3078.6 7418 3396.8 7170.5 3644.3 7418 3891.8 7241.2 4068.6 6993.7 3821.1 6746.2 4068.6 6428 3750.4 6109.8 4068.6 5862.4 3821.1 5614.9 4068.6 5438.1 3891.8 5685.6 3644.3 5438.1 3396.8 5756.3 3078.6 5438.1 2760.4 5685.6 2512.9" fill="#ffffff"/>
<path transform="matrix(.1,0,0,-.1,0,792)" stroke-width="1" stroke-linecap="butt" stroke-miterlimit="10" stroke-linejoin="miter" fill="none" stroke="#000000" d="M5438.1 2265.5 5614.9 2088.7 5862.4 2336.2 6109.8 2088.7 6428 2406.9 6746.2 2088.7 6993.7 2336.2 7241.2 2088.7 7418 2265.5 7170.5 2512.9 7418 2760.4 7099.8 3078.6 7418 3396.8 7170.5 3644.3 7418 3891.8 7241.2 4068.6 6993.7 3821.1 6746.2 4068.6 6428 3750.4 6109.8 4068.6 5862.4 3821.1 5614.9 4068.6 5438.1 3891.8 5685.6 3644.3 5438.1 3396.8 5756.3 3078.6 5438.1 2760.4 5685.6 2512.9Z"/>
<path transform="matrix(.1,0,0,-.1,0,792)" d="M5438.1 4528.2 5614.9 4351.4 5862.4 4598.9 6109.8 4351.4 6428 4669.6 6746.2 4351.4 6993.7 4598.9 7241.2 4351.4 7418 4528.2 7170.5 4775.7 7418 5023.2 7099.8 5341.4 7418 5659.6 7170.5 5907.1 7418 6154.5 7241.2 6331.3 6993.7 6083.8 6746.2 6331.3 6428 6013.1 6109.8 6331.3 5862.4 6083.8 5614.9 6331.3 5438.1 6154.5 5685.6 5907.1 5438.1 5659.6 5756.3 5341.4 5438.1 5023.2 5685.6 4775.7" fill="#ffffff"/>
<path transform="matrix(.1,0,0,-.1,0,792)" stroke-width="1" stroke-linecap="butt" stroke-miterlimit="10" stroke-linejoin="miter" fill="none" stroke="#000000" d="M5438.1 4528.2 5614.9 4351.4 5862.4 4598.9 6109.8 4351.4 6428 4669.6 6746.2 4351.4 6993.7 4598.9 7241.2 4351.4 7418 4528.2 7170.5 4775.7 7418 5023.2 7099.8 5341.4 7418 5659.6 7170.5 5907.1 7418 6154.5 7241.2 6331.3 6993.7 6083.8 6746.2 6331.3 6428 6013.1 6109.8 6331.3 5862.4 6083.8 5614.9 6331.3 5438.1 6154.5 5685.6 5907.1 5438.1 5659.6 5756.3 5341.4 5438.1 5023.2 5685.6 4775.7Z"/>
<path transform="matrix(.1,0,0,-.1,0,792)" d="M5438.1 6790.9 5614.9 6614.2 5862.4 6861.7 6109.8 6614.2 6428 6932.4 6746.2 6614.2 6993.7 6861.7 7241.2 6614.2 7418 6790.9 7170.5 7038.4 7418 7285.9 7099.8 7604.1 7418 7922.3 7170.5 8169.8 7418 8417.3 7241.2 8594.1 6993.7 8346.6 6746.2 8594.1 6428 8275.9 6109.8 8594.1 5862.4 8346.6 5614.9 8594.1 5438.1 8417.3 5685.6 8169.8 5438.1 7922.3 5756.3 7604.1 5438.1 7285.9 5685.6 7038.4" fill="#ffffff"/>
<path transform="matrix(.1,0,0,-.1,0,792)" stroke-width="1" stroke-linecap="butt" stroke-miterlimit="10" stroke-linejoin="miter" fill="none" stroke="#000000" d="M5438.1 6790.9 5614.9 6614.2 5862.4 6861.7 6109.8 6614.2 6428 6932.4 6746.2 6614.2 6993.7 6861.7 7241.2 6614.2 7418 6790.9 7170.5 7038.4 7418 7285.9 7099.8 7604.1 7418 7922.3 7170.5 8169.8 7418 8417.3 7241.2 8594.1 6993.7 8346.6 6746.2 8594.1 6428 8275.9 6109.8 8594.1 5862.4 8346.6 5614.9 8594.1 5438.1 8417.3 5685.6 8169.8 5438.1 7922.3 5756.3 7604.1 5438.1 7285.9 5685.6 7038.4Z"/>
<path transform="matrix(.1,0,0,-.1,0,792)" d="M453 6614.2 205.5 6861.7-42 6614.2-183.398 6472.7-360.199 6296-537 6472.7-678.398 6331.3-360.199 6013.1-42 6331.3 99.3984 6472.7 205.5 6578.8 311.602 6472.7" fill="#80a6cc"/>
<path transform="matrix(.1,0,0,-.1,0,792)" stroke-width="1" stroke-linecap="butt" stroke-miterlimit="10" stroke-linejoin="miter" fill="none" stroke="#000000" d="M453 6614.2 205.5 6861.7-42 6614.2-183.398 6472.7-360.199 6296-537 6472.7-678.398 6331.3-360.199 6013.1-42 6331.3 99.3984 6472.7 205.5 6578.8 311.602 6472.7Z"/>
<path transform="matrix(.1,0,0,-.1,0,792)" d="M453 4351.4 205.5 4598.9-42 4351.4-183.398 4210-360.199 4033.2-537 4210-678.398 4068.6-360.199 3750.4-42 4068.6 99.3984 4210 205.5 4316.1 311.602 4210" fill="#4066cc"/>
<path transform="matrix(.1,0,0,-.1,0,792)" stroke-width="1" stroke-linecap="butt" stroke-miterlimit="10" stroke-linejoin="miter" fill="none" stroke="#000000" d="M453 4351.4 205.5 4598.9-42 4351.4-183.398 4210-360.199 4033.2-537 4210-678.398 4068.6-360.199 3750.4-42 4068.6 99.3984 4210 205.5 4316.1 311.602 4210Z"/>
<path transform="matrix(.1,0,0,-.1,0,792)" d="M453 2088.7 205.5 2336.2-42 2088.7-183.398 1947.3-360.199 1770.5-537 1947.3-678.398 1805.8-360.199 1487.6-42 1805.8 99.3984 1947.3 205.5 2053.3 311.602 1947.3" fill="#80a6cc"/>
<path transform="matrix(.1,0,0,-.1,0,792)" stroke-width="1" stroke-linecap="butt" stroke-miterlimit="10" stroke-linejoin="miter" fill="none" stroke="#000000" d="M453 2088.7 205.5 2336.2-42 2088.7-183.398 1947.3-360.199 1770.5-537 1947.3-678.398 1805.8-360.199 1487.6-42 1805.8 99.3984 1947.3 205.5 2053.3 311.602 1947.3Z"/>
<path transform="matrix(.1,0,0,-.1,0,792)" d="M5614.9 1805.8 5862.4 1558.3 6109.8 1805.8 6251.3 1947.3 6428 2124 6604.8 1947.3 6746.2 2088.7 6428 2406.9 6109.8 2088.7 5968.4 1947.3 5862.4 1841.2 5756.3 1947.3" fill="#80a6cc"/>
<path transform="matrix(.1,0,0,-.1,0,792)" stroke-width="1" stroke-linecap="butt" stroke-miterlimit="10" stroke-linejoin="miter" fill="none" stroke="#000000" d="M5614.9 1805.8 5862.4 1558.3 6109.8 1805.8 6251.3 1947.3 6428 2124 6604.8 1947.3 6746.2 2088.7 6428 2406.9 6109.8 2088.7 5968.4 1947.3 5862.4 1841.2 5756.3 1947.3Z"/>
<path transform="matrix(.1,0,0,-.1,0,792)" d="M5614.9 4068.6 5862.4 3821.1 6109.8 4068.6 6251.3 4210 6428 4386.8 6604.8 4210 6746.2 4351.4 6428 4669.6 6109.8 4351.4 5968.4 4210 5862.4 4103.9 5756.3 4210" fill="#4066cc"/>
<path transform="matrix(.1,0,0,-.1,0,792)" stroke-width="1" stroke-linecap="butt" stroke-miterlimit="10" stroke-linejoin="miter" fill="none" stroke="#000000" d="M5614.9 4068.6 5862.4 3821.1 6109.8 4068.6 6251.3 4210 6428 4386.8 6604.8 4210 6746.2 4351.4 6428 4669.6 6109.8 4351.4 5968.4 4210 5862.4 4103.9 5756.3 4210Z"/>
<path transform="matrix(.1,0,0,-.1,0,792)" d="M5614.9 6331.3 5862.4 6083.8 6109.8 6331.3 6251.3 6472.7 6428 6649.5 6604.8 6472.7 6746.2 6614.2 6428 6932.4 6109.8 6614.2 5968.4 6472.7 5862.4 6366.7 5756.3 6472.7" fill="#80a6cc"/>
<path transform="matrix(.1,0,0,-.1,0,792)" stroke-width="1" stroke-linecap="butt" stroke-miterlimit="10" stroke-linejoin="miter" fill="none" stroke="#000000" d="M5614.9 6331.3 5862.4 6083.8 6109.8 6331.3 6251.3 6472.7 6428 6649.5 6604.8 6472.7 6746.2 6614.2 6428 6932.4 6109.8 6614.2 5968.4 6472.7 5862.4 6366.7 5756.3 6472.7Z"/>
<path transform="matrix(.1,0,0,-.1,0,792)" d="M311.602 6472.7 205.5 6578.8 99.3984 6472.7 205.5 6366.7" fill="#ffffff"/>
<path transform="matrix(.1,0,0,-.1,0,792)" stroke-width="1" stroke-linecap="butt" stroke-miterlimit="10" stroke-linejoin="miter" fill="none" stroke="#000000" d="M311.602 6472.7 205.5 6578.8 99.3984 6472.7 205.5 6366.7Z"/>
<path transform="matrix(.1,0,0,-.1,0,792)" d="M311.602 4210 205.5 4316.1 99.3984 4210 205.5 4103.9" fill="#ffffff"/>
<path transform="matrix(.1,0,0,-.1,0,792)" stroke-width="1" stroke-linecap="butt" stroke-miterlimit="10" stroke-linejoin="miter" fill="none" stroke="#000000" d="M311.602 4210 205.5 4316.1 99.3984 4210 205.5 4103.9Z"/>
<path transform="matrix(.1,0,0,-.1,0,792)" d="M311.602 1947.3 205.5 2053.3 99.3984 1947.3 205.5 1841.2" fill="#ffffff"/>
<path transform="matrix(.1,0,0,-.1,0,792)" stroke-width="1" stroke-linecap="butt" stroke-miterlimit="10" stroke-linejoin="miter" fill="none" stroke="#000000" d="M311.602 1947.3 205.5 2053.3 99.3984 1947.3 205.5 1841.2Z"/>
<path transform="matrix(.1,0,0,-.1,0,792)" d="M629.801 497.699 382.301 250.199 629.801 2.69922 771.199-138.699 948-315.5 1089.4-174.102 912.602 2.69922 771.199 144.102 665.102 250.199 771.199 356.301" fill="#4066cc"/>
<path transform="matrix(.1,0,0,-.1,0,792)" stroke-width="1" stroke-linecap="butt" stroke-miterlimit="10" stroke-linejoin="miter" fill="none" stroke="#000000" d="M629.801 497.699 382.301 250.199 629.801 2.69922 771.199-138.699 948-315.5 1089.4-174.102 912.602 2.69922 771.199 144.102 665.102 250.199 771.199 356.301Z"/>
<path transform="matrix(.1,0,0,-.1,0,792)" d="M2892.5 497.699 2645 250.199 2892.5 2.69922 3033.9-138.699 3210.7-315.5 3352.1-174.102 3175.3 2.69922 3033.9 144.102 2927.9 250.199 3033.9 356.301" fill="#80a6cc"/>
<path transform="matrix(.1,0,0,-.1,0,792)" stroke-width="1" stroke-linecap="butt" stroke-miterlimit="10" stroke-linejoin="miter" fill="none" stroke="#000000" d="M2892.5 497.699 2645 250.199 2892.5 2.69922 3033.9-138.699 3210.7-315.5 3352.1-174.102 3175.3 2.69922 3033.9 144.102 2927.9 250.199 3033.9 356.301Z"/>
<path transform="matrix(.1,0,0,-.1,0,792)" d="M5155.2 497.699 4907.8 250.199 5155.2 2.69922 5296.7-138.699 5473.4-315.5 5614.9-174.102 5438.1 2.69922 5296.7 144.102 5190.6 250.199 5296.7 356.301" fill="#4066cc"/>
<path transform="matrix(.1,0,0,-.1,0,792)" stroke-width="1" stroke-linecap="butt" stroke-miterlimit="10" stroke-linejoin="miter" fill="none" stroke="#000000" d="M5155.2 497.699 4907.8 250.199 5155.2 2.69922 5296.7-138.699 5473.4-315.5 5614.9-174.102 5438.1 2.69922 5296.7 144.102 5190.6 250.199 5296.7 356.301Z"/>
<path transform="matrix(.1,0,0,-.1,0,792)" stroke-width="1" stroke-linecap="butt" stroke-miterlimit="10" stroke-linejoin="miter" fill="none" stroke="#000000" d="M5438.1 7922.3 5685.6 8169.8 5438.1 8417.3 5296.7 8558.7 5119.9 8735.5 4978.5 8594.1 5155.2 8417.3 5296.7 8275.9 5402.7 8169.8 5296.7 8063.7Z"/>
<path transform="matrix(.1,0,0,-.1,0,792)" stroke-width="1" stroke-linecap="butt" stroke-miterlimit="10" stroke-linejoin="miter" fill="none" stroke="#000000" d="M3175.3 7922.3 3422.8 8169.8 3175.3 8417.3 3033.9 8558.7 2857.1 8735.5 2715.7 8594.1 2892.5 8417.3 3033.9 8275.9 3140 8169.8 3033.9 8063.7Z"/>
<path transform="matrix(.1,0,0,-.1,0,792)" stroke-width="1" stroke-linecap="butt" stroke-miterlimit="10" stroke-linejoin="miter" fill="none" stroke="#000000" d="M912.602 7922.3 1160.1 8169.8 912.602 8417.3 771.199 8558.7 594.398 8735.5 453 8594.1 629.801 8417.3 771.199 8275.9 877.199 8169.8 771.199 8063.7Z"/>
<path transform="matrix(.1,0,0,-.1,0,792)" d="M5756.3 1947.3 5862.4 1841.2 5968.4 1947.3 5862.4 2053.3" fill="#ffffff"/>
<path transform="matrix(.1,0,0,-.1,0,792)" stroke-width="1" stroke-linecap="butt" stroke-miterlimit="10" stroke-linejoin="miter" fill="none" stroke="#000000" d="M5756.3 1947.3 5862.4 1841.2 5968.4 1947.3 5862.4 2053.3Z"/>
<path transform="matrix(.1,0,0,-.1,0,792)" d="M5756.3 4210 5862.4 4103.9 5968.4 4210 5862.4 4316.1" fill="#ffffff"/>
<path transform="matrix(.1,0,0,-.1,0,792)" stroke-width="1" stroke-linecap="butt" stroke-miterlimit="10" stroke-linejoin="miter" fill="none" stroke="#000000" d="M5756.3 4210 5862.4 4103.9 5968.4 4210 5862.4 4316.1Z"/>
<path transform="matrix(.1,0,0,-.1,0,792)" d="M5756.3 6472.7 5862.4 6366.7 5968.4 6472.7 5862.4 6578.8" fill="#ffffff"/>
<path transform="matrix(.1,0,0,-.1,0,792)" stroke-width="1" stroke-linecap="butt" stroke-miterlimit="10" stroke-linejoin="miter" fill="none" stroke="#000000" d="M5756.3 6472.7 5862.4 6366.7 5968.4 6472.7 5862.4 6578.8Z"/>
<path transform="matrix(.1,0,0,-.1,0,792)" d="M771.199 356.301 665.102 250.199 771.199 144.102 877.199 250.199" fill="#ffffff"/>
<path transform="matrix(.1,0,0,-.1,0,792)" stroke-width="1" stroke-linecap="butt" stroke-miterlimit="10" stroke-linejoin="miter" fill="none" stroke="#000000" d="M771.199 356.301 665.102 250.199 771.199 144.102 877.199 250.199Z"/>
<path transform="matrix(.1,0,0,-.1,0,792)" d="M3033.9 356.301 2927.9 250.199 3033.9 144.102 3140 250.199" fill="#ffffff"/>
<path transform="matrix(.1,0,0,-.1,0,792)" stroke-width="1" stroke-linecap="butt" stroke-miterlimit="10" stroke-linejoin="miter" fill="none" stroke="#000000" d="M3033.9 356.301 2927.9 250.199 3033.9 144.102 3140 250.199Z"/>
<path transform="matrix(.1,0,0,-.1,0,792)" d="M5296.7 356.301 5190.6 250.199 5296.7 144.102 5402.7 250.199" fill="#ffffff"/>
<path transform="matrix(.1,0,0,-.1,0,792)" stroke-width="1" stroke-linecap="butt" stroke-miterlimit="10" stroke-linejoin="miter" fill="none" stroke="#000000" d="M5296.7 356.301 5190.6 250.199 5296.7 144.102 5402.7 250.199Z"/>
<path transform="matrix(.1,0,0,-.1,0,792)" d="M1902.6 144.102 1584.4-174.102 1442.9-315.5 1336.9-421.5 1230.8-315.5 1089.4-456.898 1336.9-704.398 1584.4-456.898 1725.8-315.5 1902.6-138.699 2079.3-315.5 2220.8-174.102" fill="#4066cc"/>
<path transform="matrix(.1,0,0,-.1,0,792)" stroke-width="1" stroke-linecap="butt" stroke-miterlimit="10" stroke-linejoin="miter" fill="none" stroke="#000000" d="M1902.6 144.102 1584.4-174.102 1442.9-315.5 1336.9-421.5 1230.8-315.5 1089.4-456.898 1336.9-704.398 1584.4-456.898 1725.8-315.5 1902.6-138.699 2079.3-315.5 2220.8-174.102Z"/>
<path transform="matrix(.1,0,0,-.1,0,792)" d="M4165.3 144.102 3847.1-174.102 3705.7-315.5 3599.6-421.5 3493.5-315.5 3352.1-456.898 3599.6-704.398 3847.1-456.898 3988.5-315.5 4165.3-138.699 4342.1-315.5 4483.5-174.102" fill="#80a6cc"/>
<path transform="matrix(.1,0,0,-.1,0,792)" stroke-width="1" stroke-linecap="butt" stroke-miterlimit="10" stroke-linejoin="miter" fill="none" stroke="#000000" d="M4165.3 144.102 3847.1-174.102 3705.7-315.5 3599.6-421.5 3493.5-315.5 3352.1-456.898 3599.6-704.398 3847.1-456.898 3988.5-315.5 4165.3-138.699 4342.1-315.5 4483.5-174.102Z"/>
<path transform="matrix(.1,0,0,-.1,0,792)" d="M3599.6 73.3984 3352.1-174.102 3210.7-315.5 3033.9-492.301 3175.3-633.699 3352.1-456.898 3493.5-315.5 3599.6-209.398 3705.7-315.5 3847.1-174.102" fill="#4066cc"/>
<path transform="matrix(.1,0,0,-.1,0,792)" stroke-width="1" stroke-linecap="butt" stroke-miterlimit="10" stroke-linejoin="miter" fill="none" stroke="#000000" d="M3599.6 73.3984 3352.1-174.102 3210.7-315.5 3033.9-492.301 3175.3-633.699 3352.1-456.898 3493.5-315.5 3599.6-209.398 3705.7-315.5 3847.1-174.102Z"/>
<path transform="matrix(.1,0,0,-.1,0,792)" d="M4731 73.3984 4483.5-174.102 4342.1-315.5 4165.3-492.301 3988.5-315.5 3847.1-456.898 4165.3-775.102 4483.5-456.898 4624.9-315.5 4731-209.398 4837-315.5 4978.5-174.102" fill="#4066cc"/>
<path transform="matrix(.1,0,0,-.1,0,792)" stroke-width="1" stroke-linecap="butt" stroke-miterlimit="10" stroke-linejoin="miter" fill="none" stroke="#000000" d="M4731 73.3984 4483.5-174.102 4342.1-315.5 4165.3-492.301 3988.5-315.5 3847.1-456.898 4165.3-775.102 4483.5-456.898 4624.9-315.5 4731-209.398 4837-315.5 4978.5-174.102Z"/>
<path transform="matrix(.1,0,0,-.1,0,792)" d="M5862.4 73.3984 5614.9-174.102 5473.4-315.5 5296.7-492.301 5438.1-633.699 5614.9-456.898 5756.3-315.5 5862.4-209.398 5968.4-315.5 6109.8-174.102" fill="#80a6cc"/>
<path transform="matrix(.1,0,0,-.1,0,792)" stroke-width="1" stroke-linecap="butt" stroke-miterlimit="10" stroke-linejoin="miter" fill="none" stroke="#000000" d="M5862.4 73.3984 5614.9-174.102 5473.4-315.5 5296.7-492.301 5438.1-633.699 5614.9-456.898 5756.3-315.5 5862.4-209.398 5968.4-315.5 6109.8-174.102Z"/>
<path transform="matrix(.1,0,0,-.1,0,792)" d="M205.5 73.3984-42-174.102-183.398-315.5-360.199-492.301-537-315.5-678.398-456.898-360.199-775.102-42-456.898 99.3984-315.5 205.5-209.398 311.602-315.5 453-174.102" fill="#4066cc"/>
<path transform="matrix(.1,0,0,-.1,0,792)" stroke-width="1" stroke-linecap="butt" stroke-miterlimit="10" stroke-linejoin="miter" fill="none" stroke="#000000" d="M205.5 73.3984-42-174.102-183.398-315.5-360.199-492.301-537-315.5-678.398-456.898-360.199-775.102-42-456.898 99.3984-315.5 205.5-209.398 311.602-315.5 453-174.102Z"/>
<path transform="matrix(.1,0,0,-.1,0,792)" d="M1336.9 73.3984 1089.4-174.102 948-315.5 771.199-492.301 912.602-633.699 1089.4-456.898 1230.8-315.5 1336.9-209.398 1442.9-315.5 1584.4-174.102" fill="#80a6cc"/>
<path transform="matrix(.1,0,0,-.1,0,792)" stroke-width="1" stroke-linecap="butt" stroke-miterlimit="10" stroke-linejoin="miter" fill="none" stroke="#000000" d="M1336.9 73.3984 1089.4-174.102 948-315.5 771.199-492.301 912.602-633.699 1089.4-456.898 1230.8-315.5 1336.9-209.398 1442.9-315.5 1584.4-174.102Z"/>
<path transform="matrix(.1,0,0,-.1,0,792)" d="M2468.2 73.3984 2220.8-174.102 2079.3-315.5 1902.6-492.301 1725.8-315.5 1584.4-456.898 1902.6-775.102 2220.8-456.898 2362.2-315.5 2468.2-209.398 2574.3-315.5 2715.7-174.102" fill="#80a6cc"/>
<path transform="matrix(.1,0,0,-.1,0,792)" stroke-width="1" stroke-linecap="butt" stroke-miterlimit="10" stroke-linejoin="miter" fill="none" stroke="#000000" d="M2468.2 73.3984 2220.8-174.102 2079.3-315.5 1902.6-492.301 1725.8-315.5 1584.4-456.898 1902.6-775.102 2220.8-456.898 2362.2-315.5 2468.2-209.398 2574.3-315.5 2715.7-174.102Z"/>
<path transform="matrix(.1,0,0,-.1,0,792)" d="M629.801 2.69922 453-174.102 311.602-315.5 205.5-421.5 99.3984-315.5-42-456.898 205.5-704.398 453-456.898 594.398-315.5 771.199-138.699" fill="#80a6cc"/>
<path transform="matrix(.1,0,0,-.1,0,792)" stroke-width="1" stroke-linecap="butt" stroke-miterlimit="10" stroke-linejoin="miter" fill="none" stroke="#000000" d="M629.801 2.69922 453-174.102 311.602-315.5 205.5-421.5 99.3984-315.5-42-456.898 205.5-704.398 453-456.898 594.398-315.5 771.199-138.699Z"/>
<path transform="matrix(.1,0,0,-.1,0,792)" d="M2892.5 2.69922 2715.7-174.102 2574.3-315.5 2468.2-421.5 2362.2-315.5 2220.8-456.898 2468.2-704.398 2715.7-456.898 2857.1-315.5 3033.9-138.699" fill="#4066cc"/>
<path transform="matrix(.1,0,0,-.1,0,792)" stroke-width="1" stroke-linecap="butt" stroke-miterlimit="10" stroke-linejoin="miter" fill="none" stroke="#000000" d="M2892.5 2.69922 2715.7-174.102 2574.3-315.5 2468.2-421.5 2362.2-315.5 2220.8-456.898 2468.2-704.398 2715.7-456.898 2857.1-315.5 3033.9-138.699Z"/>
<path transform="matrix(.1,0,0,-.1,0,792)" d="M5155.2 2.69922 4978.5-174.102 4837-315.5 4731-421.5 4624.9-315.5 4483.5-456.898 4731-704.398 4978.5-456.898 5119.9-315.5 5296.7-138.699" fill="#80a6cc"/>
<path transform="matrix(.1,0,0,-.1,0,792)" stroke-width="1" stroke-linecap="butt" stroke-miterlimit="10" stroke-linejoin="miter" fill="none" stroke="#000000" d="M5155.2 2.69922 4978.5-174.102 4837-315.5 4731-421.5 4624.9-315.5 4483.5-456.898 4731-704.398 4978.5-456.898 5119.9-315.5 5296.7-138.699Z"/>
<path transform="matrix(.1,0,0,-.1,0,792)" d="M6109.8 1805.8 6428 1487.6 6746.2 1805.8 6887.7 1947.3 6993.7 2053.3 7099.8 1947.3 7241.2 2088.7 6993.7 2336.2 6746.2 2088.7 6604.8 1947.3 6428 1770.5 6251.3 1947.3" fill="#4066cc"/>
<path transform="matrix(.1,0,0,-.1,0,792)" stroke-width="1" stroke-linecap="butt" stroke-miterlimit="10" stroke-linejoin="miter" fill="none" stroke="#000000" d="M6109.8 1805.8 6428 1487.6 6746.2 1805.8 6887.7 1947.3 6993.7 2053.3 7099.8 1947.3 7241.2 2088.7 6993.7 2336.2 6746.2 2088.7 6604.8 1947.3 6428 1770.5 6251.3 1947.3Z"/>
<path transform="matrix(.1,0,0,-.1,0,792)" d="M6109.8 4068.6 6428 3750.4 6746.2 4068.6 6887.7 4210 6993.7 4316.1 7099.8 4210 7241.2 4351.4 6993.7 4598.9 6746.2 4351.4 6604.8 4210 6428 4033.2 6251.3 4210" fill="#80a6cc"/>
<path transform="matrix(.1,0,0,-.1,0,792)" stroke-width="1" stroke-linecap="butt" stroke-miterlimit="10" stroke-linejoin="miter" fill="none" stroke="#000000" d="M6109.8 4068.6 6428 3750.4 6746.2 4068.6 6887.7 4210 6993.7 4316.1 7099.8 4210 7241.2 4351.4 6993.7 4598.9 6746.2 4351.4 6604.8 4210 6428 4033.2 6251.3 4210Z"/>
<path transform="matrix(.1,0,0,-.1,0,792)" d="M6109.8 6331.3 6428 6013.1 6746.2 6331.3 6887.7 6472.7 6993.7 6578.8 7099.8 6472.7 7241.2 6614.2 6993.7 6861.7 6746.2 6614.2 6604.8 6472.7 6428 6296 6251.3 6472.7" fill="#4066cc"/>
<path transform="matrix(.1,0,0,-.1,0,792)" stroke-width="1" stroke-linecap="butt" stroke-miterlimit="10" stroke-linejoin="miter" fill="none" stroke="#000000" d="M6109.8 6331.3 6428 6013.1 6746.2 6331.3 6887.7 6472.7 6993.7 6578.8 7099.8 6472.7 7241.2 6614.2 6993.7 6861.7 6746.2 6614.2 6604.8 6472.7 6428 6296 6251.3 6472.7Z"/>
<path transform="matrix(.1,0,0,-.1,0,792)" d="M6109.8-174.102 5968.4-315.5 5862.4-421.5 5756.3-315.5 5614.9-456.898 5862.4-704.398 6109.8-456.898 6251.3-315.5 6428-138.699 6604.8-315.5 6746.2-174.102 6428 144.102" fill="#4066cc"/>
<path transform="matrix(.1,0,0,-.1,0,792)" stroke-width="1" stroke-linecap="butt" stroke-miterlimit="10" stroke-linejoin="miter" fill="none" stroke="#000000" d="M6109.8-174.102 5968.4-315.5 5862.4-421.5 5756.3-315.5 5614.9-456.898 5862.4-704.398 6109.8-456.898 6251.3-315.5 6428-138.699 6604.8-315.5 6746.2-174.102 6428 144.102Z"/>
</svg>
