<svg xmlns="http://www.w3.org/2000/svg" xmlns:xlink="http://www.w3.org/1999/xlink" xmlns:inkscape="http://www.inkscape.org/namespaces/inkscape" version="1.1" width="612" height="792" viewBox="0 0 612 792">
<path transform="matrix(.1,0,0,-.1,0,792)" d="M2975 3179.9 3257.8 3462.8H3657.8V3862.8L3940.7 4145.6 3657.8 4428.5V4828.5H3257.8L2975 5111.3 2692.2 4828.5H2292.2V4428.5L2009.3 4145.6 2292.2 3862.8V3462.8H2692.2" fill="#f8e696"/>
<path transform="matrix(.1,0,0,-.1,0,792)" stroke-width="1" stroke-linecap="butt" stroke-miterlimit="10" stroke-linejoin="miter" fill="none" stroke="#000000" d="M2975 3179.9 3257.8 3462.8H3657.8V3862.8L3940.7 4145.6 3657.8 4428.5V4828.5H3257.8L2975 5111.3 2692.2 4828.5H2292.2V4428.5L2009.3 4145.6 2292.2 3862.8V3462.8H2692.2Z"/>
<path transform="matrix(.1,0,0,-.1,0,792)" d="M3257.8 4828.5H3657.8L3470.8 5342.5 2975 5111.3Z"/>
<path transform="matrix(.1,0,0,-.1,0,792)" stroke-width="1" stroke-linecap="butt" stroke-miterlimit="10" stroke-linejoin="miter" fill="none" stroke="#000000" d="M3257.8 4828.5H3657.8L3470.8 5342.5 2975 5111.3Z"/>
<path transform="matrix(.1,0,0,-.1,0,792)" d="M2692.2 4828.5 2975 5111.3 2479.2 5342.5 2292.2 4828.5Z"/>
<path transform="matrix(.1,0,0,-.1,0,792)" stroke-width="1" stroke-linecap="butt" stroke-miterlimit="10" stroke-linejoin="miter" fill="none" stroke="#000000" d="M2692.2 4828.5 2975 5111.3 2479.2 5342.5 2292.2 4828.5Z"/>
<path transform="matrix(.1,0,0,-.1,0,792)" d="M2692.2 3462.8H2292.2L2479.2 2948.8 2975 3179.9Z"/>
<path transform="matrix(.1,0,0,-.1,0,792)" stroke-width="1" stroke-linecap="butt" stroke-miterlimit="10" stroke-linejoin="miter" fill="none" stroke="#000000" d="M2692.2 3462.8H2292.2L2479.2 2948.8 2975 3179.9Z"/>
<path transform="matrix(.1,0,0,-.1,0,792)" d="M3257.8 3462.8 2975 3179.9 3470.8 2948.8 3657.8 3462.8Z"/>
<path transform="matrix(.1,0,0,-.1,0,792)" stroke-width="1" stroke-linecap="butt" stroke-miterlimit="10" stroke-linejoin="miter" fill="none" stroke="#000000" d="M3257.8 3462.8 2975 3179.9 3470.8 2948.8 3657.8 3462.8Z"/>
<path transform="matrix(.1,0,0,-.1,0,792)" d="M2975 5111.3 3470.8 5342.5 3283.7 5856.5 3493 6361.9 2975 6147.3 2457 6361.9 2666.3 5856.5 2479.2 5342.5" fill="#87bdd1"/>
<path transform="matrix(.1,0,0,-.1,0,792)" stroke-width="1" stroke-linecap="butt" stroke-miterlimit="10" stroke-linejoin="miter" fill="none" stroke="#000000" d="M2975 5111.3 3470.8 5342.5 3283.7 5856.5 3493 6361.9 2975 6147.3 2457 6361.9 2666.3 5856.5 2479.2 5342.5Z"/>
<path transform="matrix(.1,0,0,-.1,0,792)" d="M3657.8 4828.5 4171.9 4641.4 4503.1 5351.8 5213.5 5683 5026.4 6197 4512.4 6384.1 4181.1 5673.7 3470.8 5342.5" fill="#f8e696"/>
<path transform="matrix(.1,0,0,-.1,0,792)" stroke-width="1" stroke-linecap="butt" stroke-miterlimit="10" stroke-linejoin="miter" fill="none" stroke="#000000" d="M3657.8 4828.5 4171.9 4641.4 4503.1 5351.8 5213.5 5683 5026.4 6197 4512.4 6384.1 4181.1 5673.7 3470.8 5342.5Z"/>
<path transform="matrix(.1,0,0,-.1,0,792)" d="M3657.8 4428.5 3940.7 4145.6 4171.9 4641.4 3657.8 4828.5Z"/>
<path transform="matrix(.1,0,0,-.1,0,792)" stroke-width="1" stroke-linecap="butt" stroke-miterlimit="10" stroke-linejoin="miter" fill="none" stroke="#000000" d="M3657.8 4428.5 3940.7 4145.6 4171.9 4641.4 3657.8 4828.5Z"/>
<path transform="matrix(.1,0,0,-.1,0,792)" d="M3657.8 3862.8V3462.8L4171.9 3649.9 3940.7 4145.6Z"/>
<path transform="matrix(.1,0,0,-.1,0,792)" stroke-width="1" stroke-linecap="butt" stroke-miterlimit="10" stroke-linejoin="miter" fill="none" stroke="#000000" d="M3657.8 3862.8V3462.8L4171.9 3649.9 3940.7 4145.6Z"/>
<path transform="matrix(.1,0,0,-.1,0,792)" d="M3657.8 3462.8 3470.8 2948.8 4181.1 2617.5 4512.4 1907.1 5026.4 2094.2 5213.5 2608.2 4503.1 2939.5 4171.9 3649.9" fill="#f8e696"/>
<path transform="matrix(.1,0,0,-.1,0,792)" stroke-width="1" stroke-linecap="butt" stroke-miterlimit="10" stroke-linejoin="miter" fill="none" stroke="#000000" d="M3657.8 3462.8 3470.8 2948.8 4181.1 2617.5 4512.4 1907.1 5026.4 2094.2 5213.5 2608.2 4503.1 2939.5 4171.9 3649.9Z"/>
<path transform="matrix(.1,0,0,-.1,0,792)" d="M2292.2 4828.5 1778.1 4641.4 2009.3 4145.6 2292.2 4428.5Z"/>
<path transform="matrix(.1,0,0,-.1,0,792)" stroke-width="1" stroke-linecap="butt" stroke-miterlimit="10" stroke-linejoin="miter" fill="none" stroke="#000000" d="M2292.2 4828.5 1778.1 4641.4 2009.3 4145.6 2292.2 4428.5Z"/>
<path transform="matrix(.1,0,0,-.1,0,792)" d="M2292.2 4828.5 2479.2 5342.5 1768.9 5673.7 1437.6 6384.1 923.602 6197 736.5 5683 1446.9 5351.8 1778.1 4641.4" fill="#f8e696"/>
<path transform="matrix(.1,0,0,-.1,0,792)" stroke-width="1" stroke-linecap="butt" stroke-miterlimit="10" stroke-linejoin="miter" fill="none" stroke="#000000" d="M2292.2 4828.5 2479.2 5342.5 1768.9 5673.7 1437.6 6384.1 923.602 6197 736.5 5683 1446.9 5351.8 1778.1 4641.4Z"/>
<path transform="matrix(.1,0,0,-.1,0,792)" d="M2292.2 3862.8 2009.3 4145.6 1778.1 3649.9 2292.2 3462.8Z"/>
<path transform="matrix(.1,0,0,-.1,0,792)" stroke-width="1" stroke-linecap="butt" stroke-miterlimit="10" stroke-linejoin="miter" fill="none" stroke="#000000" d="M2292.2 3862.8 2009.3 4145.6 1778.1 3649.9 2292.2 3462.8Z"/>
<path transform="matrix(.1,0,0,-.1,0,792)" d="M2292.2 3462.8 1778.1 3649.9 1446.9 2939.5 736.5 2608.2 923.602 2094.2 1437.6 1907.1 1768.9 2617.5 2479.2 2948.8" fill="#f8e696"/>
<path transform="matrix(.1,0,0,-.1,0,792)" stroke-width="1" stroke-linecap="butt" stroke-miterlimit="10" stroke-linejoin="miter" fill="none" stroke="#000000" d="M2292.2 3462.8 1778.1 3649.9 1446.9 2939.5 736.5 2608.2 923.602 2094.2 1437.6 1907.1 1768.9 2617.5 2479.2 2948.8Z"/>
<path transform="matrix(.1,0,0,-.1,0,792)" d="M2975 3179.9 2479.2 2948.8 2666.3 2434.7 2457 1929.4 2975 2143.9 3493 1929.4 3283.7 2434.7 3470.8 2948.8" fill="#87bdd1"/>
<path transform="matrix(.1,0,0,-.1,0,792)" stroke-width="1" stroke-linecap="butt" stroke-miterlimit="10" stroke-linejoin="miter" fill="none" stroke="#000000" d="M2975 3179.9 2479.2 2948.8 2666.3 2434.7 2457 1929.4 2975 2143.9 3493 1929.4 3283.7 2434.7 3470.8 2948.8Z"/>
<path transform="matrix(.1,0,0,-.1,0,792)" d="M3470.8 5342.5 4181.1 5673.7 4512.4 6384.1 3998.4 6571.2 3493 6361.9 3283.7 5856.5"/>
<path transform="matrix(.1,0,0,-.1,0,792)" stroke-width="1" stroke-linecap="butt" stroke-miterlimit="10" stroke-linejoin="miter" fill="none" stroke="#000000" d="M3470.8 5342.5 4181.1 5673.7 4512.4 6384.1 3998.4 6571.2 3493 6361.9 3283.7 5856.5Z"/>
<path transform="matrix(.1,0,0,-.1,0,792)" d="M2479.2 5342.5 2666.3 5856.5 2457 6361.9 1951.6 6571.2 1437.6 6384.1 1768.9 5673.7"/>
<path transform="matrix(.1,0,0,-.1,0,792)" stroke-width="1" stroke-linecap="butt" stroke-miterlimit="10" stroke-linejoin="miter" fill="none" stroke="#000000" d="M2479.2 5342.5 2666.3 5856.5 2457 6361.9 1951.6 6571.2 1437.6 6384.1 1768.9 5673.7Z"/>
<path transform="matrix(.1,0,0,-.1,0,792)" d="M2479.2 2948.8 1768.9 2617.5 1437.6 1907.1 1951.6 1720 2457 1929.4 2666.3 2434.7"/>
<path transform="matrix(.1,0,0,-.1,0,792)" stroke-width="1" stroke-linecap="butt" stroke-miterlimit="10" stroke-linejoin="miter" fill="none" stroke="#000000" d="M2479.2 2948.8 1768.9 2617.5 1437.6 1907.1 1951.6 1720 2457 1929.4 2666.3 2434.7Z"/>
<path transform="matrix(.1,0,0,-.1,0,792)" d="M3470.8 2948.8 3283.7 2434.7 3493 1929.4 3998.4 1720 4512.4 1907.1 4181.1 2617.5"/>
<path transform="matrix(.1,0,0,-.1,0,792)" stroke-width="1" stroke-linecap="butt" stroke-miterlimit="10" stroke-linejoin="miter" fill="none" stroke="#000000" d="M3470.8 2948.8 3283.7 2434.7 3493 1929.4 3998.4 1720 4512.4 1907.1 4181.1 2617.5Z"/>
<path transform="matrix(.1,0,0,-.1,0,792)" d="M3940.7 4145.6 4171.9 3649.9 4685.9 3837 5191.2 3627.6 4976.7 4145.6 5191.2 4663.6 4685.9 4454.3 4171.9 4641.4" fill="#87bdd1"/>
<path transform="matrix(.1,0,0,-.1,0,792)" stroke-width="1" stroke-linecap="butt" stroke-miterlimit="10" stroke-linejoin="miter" fill="none" stroke="#000000" d="M3940.7 4145.6 4171.9 3649.9 4685.9 3837 5191.2 3627.6 4976.7 4145.6 5191.2 4663.6 4685.9 4454.3 4171.9 4641.4Z"/>
<path transform="matrix(.1,0,0,-.1,0,792)" d="M2009.3 4145.6 1778.1 4641.4 1264.1 4454.3 758.801 4663.6 973.301 4145.6 758.801 3627.6 1264.1 3837 1778.1 3649.9" fill="#87bdd1"/>
<path transform="matrix(.1,0,0,-.1,0,792)" stroke-width="1" stroke-linecap="butt" stroke-miterlimit="10" stroke-linejoin="miter" fill="none" stroke="#000000" d="M2009.3 4145.6 1778.1 4641.4 1264.1 4454.3 758.801 4663.6 973.301 4145.6 758.801 3627.6 1264.1 3837 1778.1 3649.9Z"/>
<path transform="matrix(.1,0,0,-.1,0,792)" d="M1778.1 4641.4 1446.9 5351.8 736.5 5683 549.398 5169 758.801 4663.6 1264.1 4454.3"/>
<path transform="matrix(.1,0,0,-.1,0,792)" stroke-width="1" stroke-linecap="butt" stroke-miterlimit="10" stroke-linejoin="miter" fill="none" stroke="#000000" d="M1778.1 4641.4 1446.9 5351.8 736.5 5683 549.398 5169 758.801 4663.6 1264.1 4454.3Z"/>
<path transform="matrix(.1,0,0,-.1,0,792)" d="M1778.1 3649.9 1264.1 3837 758.801 3627.6 549.398 3122.3 736.5 2608.2 1446.9 2939.5"/>
<path transform="matrix(.1,0,0,-.1,0,792)" stroke-width="1" stroke-linecap="butt" stroke-miterlimit="10" stroke-linejoin="miter" fill="none" stroke="#000000" d="M1778.1 3649.9 1264.1 3837 758.801 3627.6 549.398 3122.3 736.5 2608.2 1446.9 2939.5Z"/>
<path transform="matrix(.1,0,0,-.1,0,792)" d="M4171.9 3649.9 4503.1 2939.5 5213.5 2608.2 5400.6 3122.3 5191.2 3627.6 4685.9 3837"/>
<path transform="matrix(.1,0,0,-.1,0,792)" stroke-width="1" stroke-linecap="butt" stroke-miterlimit="10" stroke-linejoin="miter" fill="none" stroke="#000000" d="M4171.9 3649.9 4503.1 2939.5 5213.5 2608.2 5400.6 3122.3 5191.2 3627.6 4685.9 3837Z"/>
<path transform="matrix(.1,0,0,-.1,0,792)" d="M4171.9 4641.4 4685.9 4454.3 5191.2 4663.6 5400.6 5169 5213.5 5683 4503.1 5351.8"/>
<path transform="matrix(.1,0,0,-.1,0,792)" stroke-width="1" stroke-linecap="butt" stroke-miterlimit="10" stroke-linejoin="miter" fill="none" stroke="#000000" d="M4171.9 4641.4 4685.9 4454.3 5191.2 4663.6 5400.6 5169 5213.5 5683 4503.1 5351.8Z"/>
<path transform="matrix(.1,0,0,-.1,0,792)" d="M2975 6147.3 3493 6361.9 3707.6 6879.9 3493 7397.9 2975 7612.4 2457 7397.9 2242.4 6879.9 2457 6361.9" fill="#f8e696"/>
<path transform="matrix(.1,0,0,-.1,0,792)" stroke-width="1" stroke-linecap="butt" stroke-miterlimit="10" stroke-linejoin="miter" fill="none" stroke="#000000" d="M2975 6147.3 3493 6361.9 3707.6 6879.9 3493 7397.9 2975 7612.4 2457 7397.9 2242.4 6879.9 2457 6361.9Z"/>
<path transform="matrix(.1,0,0,-.1,0,792)" d="M2975 2143.9 2457 1929.4 2242.4 1411.4 2457 893.398 2975 678.801 3493 893.398 3707.6 1411.4 3493 1929.4" fill="#f8e696"/>
<path transform="matrix(.1,0,0,-.1,0,792)" stroke-width="1" stroke-linecap="butt" stroke-miterlimit="10" stroke-linejoin="miter" fill="none" stroke="#000000" d="M2975 2143.9 2457 1929.4 2242.4 1411.4 2457 893.398 2975 678.801 3493 893.398 3707.6 1411.4 3493 1929.4Z"/>
<path transform="matrix(.1,0,0,-.1,0,792)" d="M3493 6361.9 3998.4 6571.2 4512.4 6384.1 4743.6 6879.9 4512.4 7375.6 3998.4 7188.5 3493 7397.9 3707.6 6879.9" fill="#87bdd1"/>
<path transform="matrix(.1,0,0,-.1,0,792)" stroke-width="1" stroke-linecap="butt" stroke-miterlimit="10" stroke-linejoin="miter" fill="none" stroke="#000000" d="M3493 6361.9 3998.4 6571.2 4512.4 6384.1 4743.6 6879.9 4512.4 7375.6 3998.4 7188.5 3493 7397.9 3707.6 6879.9Z"/>
<path transform="matrix(.1,0,0,-.1,0,792)" d="M2457 6361.9 2242.4 6879.9 2457 7397.9 1951.6 7188.5 1437.6 7375.6 1206.4 6879.9 1437.6 6384.1 1951.6 6571.2" fill="#87bdd1"/>
<path transform="matrix(.1,0,0,-.1,0,792)" stroke-width="1" stroke-linecap="butt" stroke-miterlimit="10" stroke-linejoin="miter" fill="none" stroke="#000000" d="M2457 6361.9 2242.4 6879.9 2457 7397.9 1951.6 7188.5 1437.6 7375.6 1206.4 6879.9 1437.6 6384.1 1951.6 6571.2Z"/>
<path transform="matrix(.1,0,0,-.1,0,792)" d="M1437.6 6384.1 1206.4 6879.9 923.602 6597V6197Z"/>
<path transform="matrix(.1,0,0,-.1,0,792)" stroke-width="1" stroke-linecap="butt" stroke-miterlimit="10" stroke-linejoin="miter" fill="none" stroke="#000000" d="M1437.6 6384.1 1206.4 6879.9 923.602 6597V6197Z"/>
<path transform="matrix(.1,0,0,-.1,0,792)" d="M4512.4 6384.1 5026.4 6197V6597L4743.6 6879.9Z"/>
<path transform="matrix(.1,0,0,-.1,0,792)" stroke-width="1" stroke-linecap="butt" stroke-miterlimit="10" stroke-linejoin="miter" fill="none" stroke="#000000" d="M4512.4 6384.1 5026.4 6197V6597L4743.6 6879.9Z"/>
<path transform="matrix(.1,0,0,-.1,0,792)" d="M2457 1929.4 1951.6 1720 1437.6 1907.1 1206.4 1411.4 1437.6 915.602 1951.6 1102.7 2457 893.398 2242.4 1411.4" fill="#87bdd1"/>
<path transform="matrix(.1,0,0,-.1,0,792)" stroke-width="1" stroke-linecap="butt" stroke-miterlimit="10" stroke-linejoin="miter" fill="none" stroke="#000000" d="M2457 1929.4 1951.6 1720 1437.6 1907.1 1206.4 1411.4 1437.6 915.602 1951.6 1102.7 2457 893.398 2242.4 1411.4Z"/>
<path transform="matrix(.1,0,0,-.1,0,792)" d="M3493 1929.4 3707.6 1411.4 3493 893.398 3998.4 1102.7 4512.4 915.602 4743.6 1411.4 4512.4 1907.1 3998.4 1720" fill="#87bdd1"/>
<path transform="matrix(.1,0,0,-.1,0,792)" stroke-width="1" stroke-linecap="butt" stroke-miterlimit="10" stroke-linejoin="miter" fill="none" stroke="#000000" d="M3493 1929.4 3707.6 1411.4 3493 893.398 3998.4 1102.7 4512.4 915.602 4743.6 1411.4 4512.4 1907.1 3998.4 1720Z"/>
<path transform="matrix(.1,0,0,-.1,0,792)" d="M4512.4 1907.1 4743.6 1411.4 5026.4 1694.2V2094.2Z"/>
<path transform="matrix(.1,0,0,-.1,0,792)" stroke-width="1" stroke-linecap="butt" stroke-miterlimit="10" stroke-linejoin="miter" fill="none" stroke="#000000" d="M4512.4 1907.1 4743.6 1411.4 5026.4 1694.2V2094.2Z"/>
<path transform="matrix(.1,0,0,-.1,0,792)" d="M1437.6 1907.1 923.602 2094.2V1694.2L1206.4 1411.4Z"/>
<path transform="matrix(.1,0,0,-.1,0,792)" stroke-width="1" stroke-linecap="butt" stroke-miterlimit="10" stroke-linejoin="miter" fill="none" stroke="#000000" d="M1437.6 1907.1 923.602 2094.2V1694.2L1206.4 1411.4Z"/>
<path transform="matrix(.1,0,0,-.1,0,792)" d="M4743.6 6879.9 5026.4 7162.7V7562.7L4512.4 7375.6Z"/>
<path transform="matrix(.1,0,0,-.1,0,792)" stroke-width="1" stroke-linecap="butt" stroke-miterlimit="10" stroke-linejoin="miter" fill="none" stroke="#000000" d="M4743.6 6879.9 5026.4 7162.7V7562.7L4512.4 7375.6Z"/>
<path transform="matrix(.1,0,0,-.1,0,792)" d="M4743.6 6879.9 5026.4 6597V6197H5426.4L5709.2 5914.2 5992.1 6197H6392.1V6597L6674.9 6879.9 6392.1 7162.7V7562.7H5992.1L5709.2 7845.6 5426.4 7562.7H5026.4V7162.7" fill="#f8e696"/>
<path transform="matrix(.1,0,0,-.1,0,792)" stroke-width="1" stroke-linecap="butt" stroke-miterlimit="10" stroke-linejoin="miter" fill="none" stroke="#000000" d="M4743.6 6879.9 5026.4 6597V6197H5426.4L5709.2 5914.2 5992.1 6197H6392.1V6597L6674.9 6879.9 6392.1 7162.7V7562.7H5992.1L5709.2 7845.6 5426.4 7562.7H5026.4V7162.7Z"/>
<path transform="matrix(.1,0,0,-.1,0,792)" d="M1206.4 6879.9 923.602 7162.7V7562.7H523.602L240.801 7845.6-42.1016 7562.7H-442.102V7162.7L-724.898 6879.9-442.102 6597V6197H-42.1016L240.801 5914.2 523.602 6197H923.602V6597" fill="#f8e696"/>
<path transform="matrix(.1,0,0,-.1,0,792)" stroke-width="1" stroke-linecap="butt" stroke-miterlimit="10" stroke-linejoin="miter" fill="none" stroke="#000000" d="M1206.4 6879.9 923.602 7162.7V7562.7H523.602L240.801 7845.6-42.1016 7562.7H-442.102V7162.7L-724.898 6879.9-442.102 6597V6197H-42.1016L240.801 5914.2 523.602 6197H923.602V6597Z"/>
<path transform="matrix(.1,0,0,-.1,0,792)" d="M1206.4 6879.9 1437.6 7375.6 923.602 7562.7V7162.7Z"/>
<path transform="matrix(.1,0,0,-.1,0,792)" stroke-width="1" stroke-linecap="butt" stroke-miterlimit="10" stroke-linejoin="miter" fill="none" stroke="#000000" d="M1206.4 6879.9 1437.6 7375.6 923.602 7562.7V7162.7Z"/>
<path transform="matrix(.1,0,0,-.1,0,792)" d="M973.301 4145.6 758.801 4663.6 240.801 4878.2-277.199 4663.6-491.801 4145.6-277.199 3627.6 240.801 3413.1 758.801 3627.6" fill="#f8e696"/>
<path transform="matrix(.1,0,0,-.1,0,792)" stroke-width="1" stroke-linecap="butt" stroke-miterlimit="10" stroke-linejoin="miter" fill="none" stroke="#000000" d="M973.301 4145.6 758.801 4663.6 240.801 4878.2-277.199 4663.6-491.801 4145.6-277.199 3627.6 240.801 3413.1 758.801 3627.6Z"/>
<path transform="matrix(.1,0,0,-.1,0,792)" d="M4976.7 4145.6 5191.2 3627.6 5709.2 3413.1 6227.2 3627.6 6441.8 4145.6 6227.2 4663.6 5709.2 4878.2 5191.2 4663.6" fill="#f8e696"/>
<path transform="matrix(.1,0,0,-.1,0,792)" stroke-width="1" stroke-linecap="butt" stroke-miterlimit="10" stroke-linejoin="miter" fill="none" stroke="#000000" d="M4976.7 4145.6 5191.2 3627.6 5709.2 3413.1 6227.2 3627.6 6441.8 4145.6 6227.2 4663.6 5709.2 4878.2 5191.2 4663.6Z"/>
<path transform="matrix(.1,0,0,-.1,0,792)" d="M1206.4 1411.4 923.602 1128.5V728.5L1437.6 915.602Z"/>
<path transform="matrix(.1,0,0,-.1,0,792)" stroke-width="1" stroke-linecap="butt" stroke-miterlimit="10" stroke-linejoin="miter" fill="none" stroke="#000000" d="M1206.4 1411.4 923.602 1128.5V728.5L1437.6 915.602Z"/>
<path transform="matrix(.1,0,0,-.1,0,792)" d="M1206.4 1411.4 923.602 1694.2V2094.2H523.602L240.801 2377.1-42.1016 2094.2H-442.102V1694.2L-724.898 1411.4-442.102 1128.5V728.5H-42.1016L240.801 445.699 523.602 728.5H923.602V1128.5" fill="#f8e696"/>
<path transform="matrix(.1,0,0,-.1,0,792)" stroke-width="1" stroke-linecap="butt" stroke-miterlimit="10" stroke-linejoin="miter" fill="none" stroke="#000000" d="M1206.4 1411.4 923.602 1694.2V2094.2H523.602L240.801 2377.1-42.1016 2094.2H-442.102V1694.2L-724.898 1411.4-442.102 1128.5V728.5H-42.1016L240.801 445.699 523.602 728.5H923.602V1128.5Z"/>
<path transform="matrix(.1,0,0,-.1,0,792)" d="M4743.6 1411.4 5026.4 1128.5V728.5H5426.4L5709.2 445.699 5992.1 728.5H6392.1V1128.5L6674.9 1411.4 6392.1 1694.2V2094.2H5992.1L5709.2 2377.1 5426.4 2094.2H5026.4V1694.2" fill="#f8e696"/>
<path transform="matrix(.1,0,0,-.1,0,792)" stroke-width="1" stroke-linecap="butt" stroke-miterlimit="10" stroke-linejoin="miter" fill="none" stroke="#000000" d="M4743.6 1411.4 5026.4 1128.5V728.5H5426.4L5709.2 445.699 5992.1 728.5H6392.1V1128.5L6674.9 1411.4 6392.1 1694.2V2094.2H5992.1L5709.2 2377.1 5426.4 2094.2H5026.4V1694.2Z"/>
<path transform="matrix(.1,0,0,-.1,0,792)" d="M4743.6 1411.4 4512.4 915.602 5026.4 728.5V1128.5Z"/>
<path transform="matrix(.1,0,0,-.1,0,792)" stroke-width="1" stroke-linecap="butt" stroke-miterlimit="10" stroke-linejoin="miter" fill="none" stroke="#000000" d="M4743.6 1411.4 4512.4 915.602 5026.4 728.5V1128.5Z"/>
<path transform="matrix(.1,0,0,-.1,0,792)" d="M5026.4 2094.2H5426.4L5709.2 2377.1 5213.5 2608.2Z"/>
<path transform="matrix(.1,0,0,-.1,0,792)" stroke-width="1" stroke-linecap="butt" stroke-miterlimit="10" stroke-linejoin="miter" fill="none" stroke="#000000" d="M5026.4 2094.2H5426.4L5709.2 2377.1 5213.5 2608.2Z"/>
<path transform="matrix(.1,0,0,-.1,0,792)" d="M5026.4 6197 5213.5 5683 5709.2 5914.2 5426.4 6197Z"/>
<path transform="matrix(.1,0,0,-.1,0,792)" stroke-width="1" stroke-linecap="butt" stroke-miterlimit="10" stroke-linejoin="miter" fill="none" stroke="#000000" d="M5026.4 6197 5213.5 5683 5709.2 5914.2 5426.4 6197Z"/>
<path transform="matrix(.1,0,0,-.1,0,792)" d="M923.602 6197H523.602L240.801 5914.2 736.5 5683Z"/>
<path transform="matrix(.1,0,0,-.1,0,792)" stroke-width="1" stroke-linecap="butt" stroke-miterlimit="10" stroke-linejoin="miter" fill="none" stroke="#000000" d="M923.602 6197H523.602L240.801 5914.2 736.5 5683Z"/>
<path transform="matrix(.1,0,0,-.1,0,792)" d="M923.602 2094.2 736.5 2608.2 240.801 2377.1 523.602 2094.2Z"/>
<path transform="matrix(.1,0,0,-.1,0,792)" stroke-width="1" stroke-linecap="butt" stroke-miterlimit="10" stroke-linejoin="miter" fill="none" stroke="#000000" d="M923.602 2094.2 736.5 2608.2 240.801 2377.1 523.602 2094.2Z"/>
<path transform="matrix(.1,0,0,-.1,0,792)" d="M3998.4 7188.5 4512.4 7375.6 4181.1 8086 3470.8 8417.2 3283.7 7903.2 3493 7397.9"/>
<path transform="matrix(.1,0,0,-.1,0,792)" stroke-width="1" stroke-linecap="butt" stroke-miterlimit="10" stroke-linejoin="miter" fill="none" stroke="#000000" d="M3998.4 7188.5 4512.4 7375.6 4181.1 8086 3470.8 8417.2 3283.7 7903.2 3493 7397.9Z"/>
<path transform="matrix(.1,0,0,-.1,0,792)" d="M1951.6 7188.5 2457 7397.9 2666.3 7903.2 2479.2 8417.2 1768.9 8086 1437.6 7375.6"/>
<path transform="matrix(.1,0,0,-.1,0,792)" stroke-width="1" stroke-linecap="butt" stroke-miterlimit="10" stroke-linejoin="miter" fill="none" stroke="#000000" d="M1951.6 7188.5 2457 7397.9 2666.3 7903.2 2479.2 8417.2 1768.9 8086 1437.6 7375.6Z"/>
<path transform="matrix(.1,0,0,-.1,0,792)" d="M758.801 4663.6 549.398 5169 736.5 5683 240.801 5914.2-255 5683-67.8984 5169-277.199 4663.6 240.801 4878.2" fill="#87bdd1"/>
<path transform="matrix(.1,0,0,-.1,0,792)" stroke-width="1" stroke-linecap="butt" stroke-miterlimit="10" stroke-linejoin="miter" fill="none" stroke="#000000" d="M758.801 4663.6 549.398 5169 736.5 5683 240.801 5914.2-255 5683-67.8984 5169-277.199 4663.6 240.801 4878.2Z"/>
<path transform="matrix(.1,0,0,-.1,0,792)" d="M758.801 3627.6 240.801 3413.1-277.199 3627.6-67.8984 3122.3-255 2608.2 240.801 2377.1 736.5 2608.2 549.398 3122.3" fill="#87bdd1"/>
<path transform="matrix(.1,0,0,-.1,0,792)" stroke-width="1" stroke-linecap="butt" stroke-miterlimit="10" stroke-linejoin="miter" fill="none" stroke="#000000" d="M758.801 3627.6 240.801 3413.1-277.199 3627.6-67.8984 3122.3-255 2608.2 240.801 2377.1 736.5 2608.2 549.398 3122.3Z"/>
<path transform="matrix(.1,0,0,-.1,0,792)" d="M5191.2 3627.6 5400.6 3122.3 5213.5 2608.2 5709.2 2377.1 6205 2608.2 6017.9 3122.3 6227.2 3627.6 5709.2 3413.1" fill="#87bdd1"/>
<path transform="matrix(.1,0,0,-.1,0,792)" stroke-width="1" stroke-linecap="butt" stroke-miterlimit="10" stroke-linejoin="miter" fill="none" stroke="#000000" d="M5191.2 3627.6 5400.6 3122.3 5213.5 2608.2 5709.2 2377.1 6205 2608.2 6017.9 3122.3 6227.2 3627.6 5709.2 3413.1Z"/>
<path transform="matrix(.1,0,0,-.1,0,792)" d="M5191.2 4663.6 5709.2 4878.2 6227.2 4663.6 6017.9 5169 6205 5683 5709.2 5914.2 5213.5 5683 5400.6 5169" fill="#87bdd1"/>
<path transform="matrix(.1,0,0,-.1,0,792)" stroke-width="1" stroke-linecap="butt" stroke-miterlimit="10" stroke-linejoin="miter" fill="none" stroke="#000000" d="M5191.2 4663.6 5709.2 4878.2 6227.2 4663.6 6017.9 5169 6205 5683 5709.2 5914.2 5213.5 5683 5400.6 5169Z"/>
<path transform="matrix(.1,0,0,-.1,0,792)" d="M1951.6 1102.7 1437.6 915.602 1768.9 205.199 2479.2-126 2666.3 388 2457 893.398"/>
<path transform="matrix(.1,0,0,-.1,0,792)" stroke-width="1" stroke-linecap="butt" stroke-miterlimit="10" stroke-linejoin="miter" fill="none" stroke="#000000" d="M1951.6 1102.7 1437.6 915.602 1768.9 205.199 2479.2-126 2666.3 388 2457 893.398Z"/>
<path transform="matrix(.1,0,0,-.1,0,792)" d="M3998.4 1102.7 3493 893.398 3283.7 388 3470.8-126 4181.1 205.199 4512.4 915.602"/>
<path transform="matrix(.1,0,0,-.1,0,792)" stroke-width="1" stroke-linecap="butt" stroke-miterlimit="10" stroke-linejoin="miter" fill="none" stroke="#000000" d="M3998.4 1102.7 3493 893.398 3283.7 388 3470.8-126 4181.1 205.199 4512.4 915.602Z"/>
<path transform="matrix(.1,0,0,-.1,0,792)" d="M4512.4 7375.6 5026.4 7562.7 5213.5 8076.7 4503.1 8408 4171.9 9118.4 3657.8 8931.3 3470.8 8417.2 4181.1 8086" fill="#f8e696"/>
<path transform="matrix(.1,0,0,-.1,0,792)" stroke-width="1" stroke-linecap="butt" stroke-miterlimit="10" stroke-linejoin="miter" fill="none" stroke="#000000" d="M4512.4 7375.6 5026.4 7562.7 5213.5 8076.7 4503.1 8408 4171.9 9118.4 3657.8 8931.3 3470.8 8417.2 4181.1 8086Z"/>
<path transform="matrix(.1,0,0,-.1,0,792)" d="M1437.6 7375.6 1768.9 8086 2479.2 8417.2 2292.2 8931.3 1778.1 9118.4 1446.9 8408 736.5 8076.7 923.602 7562.7" fill="#f8e696"/>
<path transform="matrix(.1,0,0,-.1,0,792)" stroke-width="1" stroke-linecap="butt" stroke-miterlimit="10" stroke-linejoin="miter" fill="none" stroke="#000000" d="M1437.6 7375.6 1768.9 8086 2479.2 8417.2 2292.2 8931.3 1778.1 9118.4 1446.9 8408 736.5 8076.7 923.602 7562.7Z"/>
<path transform="matrix(.1,0,0,-.1,0,792)" d="M3493 7397.9 3283.7 7903.2 3470.8 8417.2 2975 8648.4 2479.2 8417.2 2666.3 7903.2 2457 7397.9 2975 7612.4" fill="#87bdd1"/>
<path transform="matrix(.1,0,0,-.1,0,792)" stroke-width="1" stroke-linecap="butt" stroke-miterlimit="10" stroke-linejoin="miter" fill="none" stroke="#000000" d="M3493 7397.9 3283.7 7903.2 3470.8 8417.2 2975 8648.4 2479.2 8417.2 2666.3 7903.2 2457 7397.9 2975 7612.4Z"/>
<path transform="matrix(.1,0,0,-.1,0,792)" d="M1437.6 915.602 923.602 728.5 736.5 214.5 1446.9-116.699 1778.1-827.102 2292.2-640 2479.2-126 1768.9 205.199" fill="#f8e696"/>
<path transform="matrix(.1,0,0,-.1,0,792)" stroke-width="1" stroke-linecap="butt" stroke-miterlimit="10" stroke-linejoin="miter" fill="none" stroke="#000000" d="M1437.6 915.602 923.602 728.5 736.5 214.5 1446.9-116.699 1778.1-827.102 2292.2-640 2479.2-126 1768.9 205.199Z"/>
<path transform="matrix(.1,0,0,-.1,0,792)" d="M4512.4 915.602 4181.1 205.199 3470.8-126 3657.8-640 4171.9-827.102 4503.1-116.699 5213.5 214.5 5026.4 728.5" fill="#f8e696"/>
<path transform="matrix(.1,0,0,-.1,0,792)" stroke-width="1" stroke-linecap="butt" stroke-miterlimit="10" stroke-linejoin="miter" fill="none" stroke="#000000" d="M4512.4 915.602 4181.1 205.199 3470.8-126 3657.8-640 4171.9-827.102 4503.1-116.699 5213.5 214.5 5026.4 728.5Z"/>
<path transform="matrix(.1,0,0,-.1,0,792)" d="M2457 893.398 2666.3 388 2479.2-126 2975-357.199 3470.8-126 3283.7 388 3493 893.398 2975 678.801" fill="#87bdd1"/>
<path transform="matrix(.1,0,0,-.1,0,792)" stroke-width="1" stroke-linecap="butt" stroke-miterlimit="10" stroke-linejoin="miter" fill="none" stroke="#000000" d="M2457 893.398 2666.3 388 2479.2-126 2975-357.199 3470.8-126 3283.7 388 3493 893.398 2975 678.801Z"/>
<path transform="matrix(.1,0,0,-.1,0,792)" d="M5026.4 7562.7H5426.4L5709.2 7845.6 5213.5 8076.7Z"/>
<path transform="matrix(.1,0,0,-.1,0,792)" stroke-width="1" stroke-linecap="butt" stroke-miterlimit="10" stroke-linejoin="miter" fill="none" stroke="#000000" d="M5026.4 7562.7H5426.4L5709.2 7845.6 5213.5 8076.7Z"/>
<path transform="matrix(.1,0,0,-.1,0,792)" d="M923.602 7562.7 736.5 8076.7 240.801 7845.6 523.602 7562.7Z"/>
<path transform="matrix(.1,0,0,-.1,0,792)" stroke-width="1" stroke-linecap="butt" stroke-miterlimit="10" stroke-linejoin="miter" fill="none" stroke="#000000" d="M923.602 7562.7 736.5 8076.7 240.801 7845.6 523.602 7562.7Z"/>
<path transform="matrix(.1,0,0,-.1,0,792)" d="M523.602 728.5 240.801 445.699 736.5 214.5 923.602 728.5Z"/>
<path transform="matrix(.1,0,0,-.1,0,792)" stroke-width="1" stroke-linecap="butt" stroke-miterlimit="10" stroke-linejoin="miter" fill="none" stroke="#000000" d="M523.602 728.5 240.801 445.699 736.5 214.5 923.602 728.5Z"/>
<path transform="matrix(.1,0,0,-.1,0,792)" d="M5026.4 728.5 5213.5 214.5 5709.2 445.699 5426.4 728.5Z"/>
<path transform="matrix(.1,0,0,-.1,0,792)" stroke-width="1" stroke-linecap="butt" stroke-miterlimit="10" stroke-linejoin="miter" fill="none" stroke="#000000" d="M5026.4 728.5 5213.5 214.5 5709.2 445.699 5426.4 728.5Z"/>
<path transform="matrix(.1,0,0,-.1,0,792)" d="M5709.2 445.699 6205 214.5 6392.1 728.5H5992.1Z"/>
<path transform="matrix(.1,0,0,-.1,0,792)" stroke-width="1" stroke-linecap="butt" stroke-miterlimit="10" stroke-linejoin="miter" fill="none" stroke="#000000" d="M5709.2 445.699 6205 214.5 6392.1 728.5H5992.1Z"/>
<path transform="matrix(.1,0,0,-.1,0,792)" d="M5709.2 445.699 5213.5 214.5 5400.6-299.5 5191.2-804.898 5709.2-590.301 6227.2-804.898 6017.9-299.5 6205 214.5" fill="#87bdd1"/>
<path transform="matrix(.1,0,0,-.1,0,792)" stroke-width="1" stroke-linecap="butt" stroke-miterlimit="10" stroke-linejoin="miter" fill="none" stroke="#000000" d="M5709.2 445.699 5213.5 214.5 5400.6-299.5 5191.2-804.898 5709.2-590.301 6227.2-804.898 6017.9-299.5 6205 214.5Z"/>
<path transform="matrix(.1,0,0,-.1,0,792)" d="M5709.2 2377.1 5992.1 2094.2H6392.1L6205 2608.2Z"/>
<path transform="matrix(.1,0,0,-.1,0,792)" stroke-width="1" stroke-linecap="butt" stroke-miterlimit="10" stroke-linejoin="miter" fill="none" stroke="#000000" d="M5709.2 2377.1 5992.1 2094.2H6392.1L6205 2608.2Z"/>
<path transform="matrix(.1,0,0,-.1,0,792)" d="M5709.2 5914.2 6205 5683 6392.1 6197H5992.1Z"/>
<path transform="matrix(.1,0,0,-.1,0,792)" stroke-width="1" stroke-linecap="butt" stroke-miterlimit="10" stroke-linejoin="miter" fill="none" stroke="#000000" d="M5709.2 5914.2 6205 5683 6392.1 6197H5992.1Z"/>
<path transform="matrix(.1,0,0,-.1,0,792)" d="M5709.2 7845.6 6205 8076.7 6017.9 8590.7 6227.2 9096.1 5709.2 8881.5 5191.2 9096.1 5400.6 8590.7 5213.5 8076.7" fill="#87bdd1"/>
<path transform="matrix(.1,0,0,-.1,0,792)" stroke-width="1" stroke-linecap="butt" stroke-miterlimit="10" stroke-linejoin="miter" fill="none" stroke="#000000" d="M5709.2 7845.6 6205 8076.7 6017.9 8590.7 6227.2 9096.1 5709.2 8881.5 5191.2 9096.1 5400.6 8590.7 5213.5 8076.7Z"/>
<path transform="matrix(.1,0,0,-.1,0,792)" d="M5709.2 7845.6 5992.1 7562.7H6392.1L6205 8076.7Z"/>
<path transform="matrix(.1,0,0,-.1,0,792)" stroke-width="1" stroke-linecap="butt" stroke-miterlimit="10" stroke-linejoin="miter" fill="none" stroke="#000000" d="M5709.2 7845.6 5992.1 7562.7H6392.1L6205 8076.7Z"/>
<path transform="matrix(.1,0,0,-.1,0,792)" d="M240.801 7845.6-255 8076.7-442.102 7562.7H-42.1016Z"/>
<path transform="matrix(.1,0,0,-.1,0,792)" stroke-width="1" stroke-linecap="butt" stroke-miterlimit="10" stroke-linejoin="miter" fill="none" stroke="#000000" d="M240.801 7845.6-255 8076.7-442.102 7562.7H-42.1016Z"/>
<path transform="matrix(.1,0,0,-.1,0,792)" d="M240.801 7845.6 736.5 8076.7 549.398 8590.7 758.801 9096.1 240.801 8881.5-277.199 9096.1-67.8984 8590.7-255 8076.7" fill="#87bdd1"/>
<path transform="matrix(.1,0,0,-.1,0,792)" stroke-width="1" stroke-linecap="butt" stroke-miterlimit="10" stroke-linejoin="miter" fill="none" stroke="#000000" d="M240.801 7845.6 736.5 8076.7 549.398 8590.7 758.801 9096.1 240.801 8881.5-277.199 9096.1-67.8984 8590.7-255 8076.7Z"/>
<path transform="matrix(.1,0,0,-.1,0,792)" d="M240.801 5914.2-42.1016 6197H-442.102L-255 5683Z"/>
<path transform="matrix(.1,0,0,-.1,0,792)" stroke-width="1" stroke-linecap="butt" stroke-miterlimit="10" stroke-linejoin="miter" fill="none" stroke="#000000" d="M240.801 5914.2-42.1016 6197H-442.102L-255 5683Z"/>
<path transform="matrix(.1,0,0,-.1,0,792)" d="M240.801 2377.1-255 2608.2-442.102 2094.2H-42.1016Z"/>
<path transform="matrix(.1,0,0,-.1,0,792)" stroke-width="1" stroke-linecap="butt" stroke-miterlimit="10" stroke-linejoin="miter" fill="none" stroke="#000000" d="M240.801 2377.1-255 2608.2-442.102 2094.2H-42.1016Z"/>
<path transform="matrix(.1,0,0,-.1,0,792)" d="M240.801 445.699-255 214.5-67.8984-299.5-277.199-804.898 240.801-590.301 758.801-804.898 549.398-299.5 736.5 214.5" fill="#87bdd1"/>
<path transform="matrix(.1,0,0,-.1,0,792)" stroke-width="1" stroke-linecap="butt" stroke-miterlimit="10" stroke-linejoin="miter" fill="none" stroke="#000000" d="M240.801 445.699-255 214.5-67.8984-299.5-277.199-804.898 240.801-590.301 758.801-804.898 549.398-299.5 736.5 214.5Z"/>
<path transform="matrix(.1,0,0,-.1,0,792)" d="M240.801 445.699-42.1016 728.5H-442.102L-255 214.5Z"/>
<path transform="matrix(.1,0,0,-.1,0,792)" stroke-width="1" stroke-linecap="butt" stroke-miterlimit="10" stroke-linejoin="miter" fill="none" stroke="#000000" d="M240.801 445.699-42.1016 728.5H-442.102L-255 214.5Z"/>
<path transform="matrix(.1,0,0,-.1,0,792)" d="M736.5 214.5 549.398-299.5 758.801-804.898 1264.1-1014.2 1778.1-827.102 1446.9-116.699"/>
<path transform="matrix(.1,0,0,-.1,0,792)" stroke-width="1" stroke-linecap="butt" stroke-miterlimit="10" stroke-linejoin="miter" fill="none" stroke="#000000" d="M736.5 214.5 549.398-299.5 758.801-804.898 1264.1-1014.2 1778.1-827.102 1446.9-116.699Z"/>
<path transform="matrix(.1,0,0,-.1,0,792)" d="M5213.5 214.5 4503.1-116.699 4171.9-827.102 4685.9-1014.2 5191.2-804.898 5400.6-299.5"/>
<path transform="matrix(.1,0,0,-.1,0,792)" stroke-width="1" stroke-linecap="butt" stroke-miterlimit="10" stroke-linejoin="miter" fill="none" stroke="#000000" d="M5213.5 214.5 4503.1-116.699 4171.9-827.102 4685.9-1014.2 5191.2-804.898 5400.6-299.5Z"/>
<path transform="matrix(.1,0,0,-.1,0,792)" d="M6017.9 3122.3 6205 2608.2 6915.4 2939.5 7246.6 3649.9 6732.6 3837 6227.2 3627.6"/>
<path transform="matrix(.1,0,0,-.1,0,792)" stroke-width="1" stroke-linecap="butt" stroke-miterlimit="10" stroke-linejoin="miter" fill="none" stroke="#000000" d="M6017.9 3122.3 6205 2608.2 6915.4 2939.5 7246.6 3649.9 6732.6 3837 6227.2 3627.6Z"/>
<path transform="matrix(.1,0,0,-.1,0,792)" d="M6017.9 5169 6227.2 4663.6 6732.6 4454.3 7246.6 4641.4 6915.4 5351.8 6205 5683"/>
<path transform="matrix(.1,0,0,-.1,0,792)" stroke-width="1" stroke-linecap="butt" stroke-miterlimit="10" stroke-linejoin="miter" fill="none" stroke="#000000" d="M6017.9 5169 6227.2 4663.6 6732.6 4454.3 7246.6 4641.4 6915.4 5351.8 6205 5683Z"/>
<path transform="matrix(.1,0,0,-.1,0,792)" d="M6205 214.5 6017.9-299.5 6227.2-804.898 6732.6-1014.2 7246.6-827.102 6915.4-116.699"/>
<path transform="matrix(.1,0,0,-.1,0,792)" stroke-width="1" stroke-linecap="butt" stroke-miterlimit="10" stroke-linejoin="miter" fill="none" stroke="#000000" d="M6205 214.5 6017.9-299.5 6227.2-804.898 6732.6-1014.2 7246.6-827.102 6915.4-116.699Z"/>
</svg>
