<svg xmlns="http://www.w3.org/2000/svg" xmlns:xlink="http://www.w3.org/1999/xlink" xmlns:inkscape="http://www.inkscape.org/namespaces/inkscape" version="1.1" width="612" height="792" viewBox="0 0 612 792">
<path transform="matrix(.1,0,0,-.1,0,792)" d="M3275.3 3285.7 3451.7 3528.4 3737 3621.1V3921.1L3913.3 4163.8 3737 4406.5V4706.5L3451.7 4799.2 3275.3 5041.9 2990 4949.2 2704.7 5041.9 2528.4 4799.2 2243 4706.5V4406.5L2066.7 4163.8 2243 3921.1V3621.1L2528.4 3528.4 2704.7 3285.7 2990 3378.4" fill="#ffffc9"/>
<path transform="matrix(.1,0,0,-.1,0,792)" stroke-width="1" stroke-linecap="butt" stroke-miterlimit="10" stroke-linejoin="miter" fill="none" stroke="#000000" d="M3275.3 3285.7 3451.7 3528.4 3737 3621.1V3921.1L3913.3 4163.8 3737 4406.5V4706.5L3451.7 4799.2 3275.3 5041.9 2990 4949.2 2704.7 5041.9 2528.4 4799.2 2243 4706.5V4406.5L2066.7 4163.8 2243 3921.1V3621.1L2528.4 3528.4 2704.7 3285.7 2990 3378.4Z"/>
<path transform="matrix(.1,0,0,-.1,0,792)" d="M2528.4 4799.2 2704.7 5041.9 2243 5191.9V4706.5Z" fill="#808000"/>
<path transform="matrix(.1,0,0,-.1,0,792)" stroke-width="1" stroke-linecap="butt" stroke-miterlimit="10" stroke-linejoin="miter" fill="none" stroke="#000000" d="M2528.4 4799.2 2704.7 5041.9 2243 5191.9V4706.5Z"/>
<path transform="matrix(.1,0,0,-.1,0,792)" d="M3451.7 4799.2 3737 4706.5V5191.9L3275.3 5041.9Z" fill="#808000"/>
<path transform="matrix(.1,0,0,-.1,0,792)" stroke-width="1" stroke-linecap="butt" stroke-miterlimit="10" stroke-linejoin="miter" fill="none" stroke="#000000" d="M3451.7 4799.2 3737 4706.5V5191.9L3275.3 5041.9Z"/>
<path transform="matrix(.1,0,0,-.1,0,792)" d="M2528.4 3528.4 2243 3621.1V3135.7L2704.7 3285.7Z" fill="#808000"/>
<path transform="matrix(.1,0,0,-.1,0,792)" stroke-width="1" stroke-linecap="butt" stroke-miterlimit="10" stroke-linejoin="miter" fill="none" stroke="#000000" d="M2528.4 3528.4 2243 3621.1V3135.7L2704.7 3285.7Z"/>
<path transform="matrix(.1,0,0,-.1,0,792)" d="M3451.7 3528.4 3275.3 3285.7 3737 3135.7V3621.1Z" fill="#808000"/>
<path transform="matrix(.1,0,0,-.1,0,792)" stroke-width="1" stroke-linecap="butt" stroke-miterlimit="10" stroke-linejoin="miter" fill="none" stroke="#000000" d="M3451.7 3528.4 3275.3 3285.7 3737 3135.7V3621.1Z"/>
<path transform="matrix(.1,0,0,-.1,0,792)" d="M2990 4949.2 3275.3 5041.9 2990 5434.6 2704.7 5041.9Z" fill="#808000"/>
<path transform="matrix(.1,0,0,-.1,0,792)" stroke-width="1" stroke-linecap="butt" stroke-miterlimit="10" stroke-linejoin="miter" fill="none" stroke="#000000" d="M2990 4949.2 3275.3 5041.9 2990 5434.6 2704.7 5041.9Z"/>
<path transform="matrix(.1,0,0,-.1,0,792)" d="M2990 3378.4 2704.7 3285.7 2990 2893 3275.3 3285.7Z" fill="#808000"/>
<path transform="matrix(.1,0,0,-.1,0,792)" stroke-width="1" stroke-linecap="butt" stroke-miterlimit="10" stroke-linejoin="miter" fill="none" stroke="#000000" d="M2990 3378.4 2704.7 3285.7 2990 2893 3275.3 3285.7Z"/>
<path transform="matrix(.1,0,0,-.1,0,792)" d="M3275.3 5041.9 3737 5191.9V5677.3L3275.3 5827.3 2990 5434.6" fill="#ffff52"/>
<path transform="matrix(.1,0,0,-.1,0,792)" stroke-width="1" stroke-linecap="butt" stroke-miterlimit="10" stroke-linejoin="miter" fill="none" stroke="#000000" d="M3275.3 5041.9 3737 5191.9V5677.3L3275.3 5827.3 2990 5434.6Z"/>
<path transform="matrix(.1,0,0,-.1,0,792)" d="M2704.7 5041.9 2990 5434.6 2704.7 5827.3 2243 5677.3V5191.9" fill="#ffff52"/>
<path transform="matrix(.1,0,0,-.1,0,792)" stroke-width="1" stroke-linecap="butt" stroke-miterlimit="10" stroke-linejoin="miter" fill="none" stroke="#000000" d="M2704.7 5041.9 2990 5434.6 2704.7 5827.3 2243 5677.3V5191.9Z"/>
<path transform="matrix(.1,0,0,-.1,0,792)" d="M2704.7 3285.7 2243 3135.7V2650.3L2704.7 2500.3 2990 2893" fill="#ffff52"/>
<path transform="matrix(.1,0,0,-.1,0,792)" stroke-width="1" stroke-linecap="butt" stroke-miterlimit="10" stroke-linejoin="miter" fill="none" stroke="#000000" d="M2704.7 3285.7 2243 3135.7V2650.3L2704.7 2500.3 2990 2893Z"/>
<path transform="matrix(.1,0,0,-.1,0,792)" d="M3275.3 3285.7 2990 2893 3275.3 2500.3 3737 2650.3V3135.7" fill="#ffff52"/>
<path transform="matrix(.1,0,0,-.1,0,792)" stroke-width="1" stroke-linecap="butt" stroke-miterlimit="10" stroke-linejoin="miter" fill="none" stroke="#000000" d="M3275.3 3285.7 2990 2893 3275.3 2500.3 3737 2650.3V3135.7Z"/>
<path transform="matrix(.1,0,0,-.1,0,792)" d="M2243 5191.9 1781.4 5341.9 1496.1 4949.2 1781.4 4556.5 2243 4706.5" fill="#ffff52"/>
<path transform="matrix(.1,0,0,-.1,0,792)" stroke-width="1" stroke-linecap="butt" stroke-miterlimit="10" stroke-linejoin="miter" fill="none" stroke="#000000" d="M2243 5191.9 1781.4 5341.9 1496.1 4949.2 1781.4 4556.5 2243 4706.5Z"/>
<path transform="matrix(.1,0,0,-.1,0,792)" d="M2243 5191.9V5677.3L1957.7 5584.6 1781.4 5341.9Z" fill="#808000"/>
<path transform="matrix(.1,0,0,-.1,0,792)" stroke-width="1" stroke-linecap="butt" stroke-miterlimit="10" stroke-linejoin="miter" fill="none" stroke="#000000" d="M2243 5191.9V5677.3L1957.7 5584.6 1781.4 5341.9Z"/>
<path transform="matrix(.1,0,0,-.1,0,792)" d="M2243 4706.5 1781.4 4556.5 2066.7 4163.8 2243 4406.5Z" fill="#808000"/>
<path transform="matrix(.1,0,0,-.1,0,792)" stroke-width="1" stroke-linecap="butt" stroke-miterlimit="10" stroke-linejoin="miter" fill="none" stroke="#000000" d="M2243 4706.5 1781.4 4556.5 2066.7 4163.8 2243 4406.5Z"/>
<path transform="matrix(.1,0,0,-.1,0,792)" d="M2243 3921.1 2066.7 4163.8 1781.4 3771.1 2243 3621.1Z" fill="#808000"/>
<path transform="matrix(.1,0,0,-.1,0,792)" stroke-width="1" stroke-linecap="butt" stroke-miterlimit="10" stroke-linejoin="miter" fill="none" stroke="#000000" d="M2243 3921.1 2066.7 4163.8 1781.4 3771.1 2243 3621.1Z"/>
<path transform="matrix(.1,0,0,-.1,0,792)" d="M2243 3621.1 1781.4 3771.1 1496.1 3378.4 1781.4 2985.7 2243 3135.7" fill="#ffff52"/>
<path transform="matrix(.1,0,0,-.1,0,792)" stroke-width="1" stroke-linecap="butt" stroke-miterlimit="10" stroke-linejoin="miter" fill="none" stroke="#000000" d="M2243 3621.1 1781.4 3771.1 1496.1 3378.4 1781.4 2985.7 2243 3135.7Z"/>
<path transform="matrix(.1,0,0,-.1,0,792)" d="M3737 3621.1 4198.6 3771.1 3913.3 4163.8 3737 3921.1Z" fill="#808000"/>
<path transform="matrix(.1,0,0,-.1,0,792)" stroke-width="1" stroke-linecap="butt" stroke-miterlimit="10" stroke-linejoin="miter" fill="none" stroke="#000000" d="M3737 3621.1 4198.6 3771.1 3913.3 4163.8 3737 3921.1Z"/>
<path transform="matrix(.1,0,0,-.1,0,792)" d="M3737 3621.1V3135.7L4198.6 2985.7 4484 3378.4 4198.6 3771.1" fill="#ffff52"/>
<path transform="matrix(.1,0,0,-.1,0,792)" stroke-width="1" stroke-linecap="butt" stroke-miterlimit="10" stroke-linejoin="miter" fill="none" stroke="#000000" d="M3737 3621.1V3135.7L4198.6 2985.7 4484 3378.4 4198.6 3771.1Z"/>
<path transform="matrix(.1,0,0,-.1,0,792)" d="M3737 4406.5 3913.3 4163.8 4198.6 4556.5 3737 4706.5Z" fill="#808000"/>
<path transform="matrix(.1,0,0,-.1,0,792)" stroke-width="1" stroke-linecap="butt" stroke-miterlimit="10" stroke-linejoin="miter" fill="none" stroke="#000000" d="M3737 4406.5 3913.3 4163.8 4198.6 4556.5 3737 4706.5Z"/>
<path transform="matrix(.1,0,0,-.1,0,792)" d="M3737 4706.5 4198.6 4556.5 4484 4949.2 4198.6 5341.9 3737 5191.9" fill="#ffff52"/>
<path transform="matrix(.1,0,0,-.1,0,792)" stroke-width="1" stroke-linecap="butt" stroke-miterlimit="10" stroke-linejoin="miter" fill="none" stroke="#000000" d="M3737 4706.5 4198.6 4556.5 4484 4949.2 4198.6 5341.9 3737 5191.9Z"/>
<path transform="matrix(.1,0,0,-.1,0,792)" d="M3737 5191.9 4198.6 5341.9 4022.3 5584.6 3737 5677.3Z" fill="#808000"/>
<path transform="matrix(.1,0,0,-.1,0,792)" stroke-width="1" stroke-linecap="butt" stroke-miterlimit="10" stroke-linejoin="miter" fill="none" stroke="#000000" d="M3737 5191.9 4198.6 5341.9 4022.3 5584.6 3737 5677.3Z"/>
<path transform="matrix(.1,0,0,-.1,0,792)" d="M2243 3135.7 1781.4 2985.7 1957.7 2743 2243 2650.3Z" fill="#808000"/>
<path transform="matrix(.1,0,0,-.1,0,792)" stroke-width="1" stroke-linecap="butt" stroke-miterlimit="10" stroke-linejoin="miter" fill="none" stroke="#000000" d="M2243 3135.7 1781.4 2985.7 1957.7 2743 2243 2650.3Z"/>
<path transform="matrix(.1,0,0,-.1,0,792)" d="M3737 3135.7V2650.3L4022.3 2743 4198.6 2985.7Z" fill="#808000"/>
<path transform="matrix(.1,0,0,-.1,0,792)" stroke-width="1" stroke-linecap="butt" stroke-miterlimit="10" stroke-linejoin="miter" fill="none" stroke="#000000" d="M3737 3135.7V2650.3L4022.3 2743 4198.6 2985.7Z"/>
<path transform="matrix(.1,0,0,-.1,0,792)" d="M2990 5434.6 3275.3 5827.3 2990 5920 2704.7 5827.3Z" fill="#808000"/>
<path transform="matrix(.1,0,0,-.1,0,792)" stroke-width="1" stroke-linecap="butt" stroke-miterlimit="10" stroke-linejoin="miter" fill="none" stroke="#000000" d="M2990 5434.6 3275.3 5827.3 2990 5920 2704.7 5827.3Z"/>
<path transform="matrix(.1,0,0,-.1,0,792)" d="M2066.7 4163.8 1781.4 4556.5 1319.7 4406.5V3921.1L1781.4 3771.1" fill="#ffff52"/>
<path transform="matrix(.1,0,0,-.1,0,792)" stroke-width="1" stroke-linecap="butt" stroke-miterlimit="10" stroke-linejoin="miter" fill="none" stroke="#000000" d="M2066.7 4163.8 1781.4 4556.5 1319.7 4406.5V3921.1L1781.4 3771.1Z"/>
<path transform="matrix(.1,0,0,-.1,0,792)" d="M3913.3 4163.8 4198.6 3771.1 4660.3 3921.1V4406.5L4198.6 4556.5" fill="#ffff52"/>
<path transform="matrix(.1,0,0,-.1,0,792)" stroke-width="1" stroke-linecap="butt" stroke-miterlimit="10" stroke-linejoin="miter" fill="none" stroke="#000000" d="M3913.3 4163.8 4198.6 3771.1 4660.3 3921.1V4406.5L4198.6 4556.5Z"/>
<path transform="matrix(.1,0,0,-.1,0,792)" d="M2990 2893 2704.7 2500.3 2990 2407.6 3275.3 2500.3Z" fill="#808000"/>
<path transform="matrix(.1,0,0,-.1,0,792)" stroke-width="1" stroke-linecap="butt" stroke-miterlimit="10" stroke-linejoin="miter" fill="none" stroke="#000000" d="M2990 2893 2704.7 2500.3 2990 2407.6 3275.3 2500.3Z"/>
<path transform="matrix(.1,0,0,-.1,0,792)" d="M1957.7 5584.6 2243 5677.3V6162.7L1781.4 6312.7 1605.1 6070 1319.7 5977.3V5491.9L1781.4 5341.9" fill="#ffffff"/>
<path transform="matrix(.1,0,0,-.1,0,792)" stroke-width="1" stroke-linecap="butt" stroke-miterlimit="10" stroke-linejoin="miter" fill="none" stroke="#000000" d="M1957.7 5584.6 2243 5677.3V6162.7L1781.4 6312.7 1605.1 6070 1319.7 5977.3V5491.9L1781.4 5341.9Z"/>
<path transform="matrix(.1,0,0,-.1,0,792)" d="M4022.3 5584.6 4198.6 5341.9 4660.3 5491.9V5977.3L4375 6070 4198.6 6312.7 3737 6162.7V5677.3" fill="#ffffff"/>
<path transform="matrix(.1,0,0,-.1,0,792)" stroke-width="1" stroke-linecap="butt" stroke-miterlimit="10" stroke-linejoin="miter" fill="none" stroke="#000000" d="M4022.3 5584.6 4198.6 5341.9 4660.3 5491.9V5977.3L4375 6070 4198.6 6312.7 3737 6162.7V5677.3Z"/>
<path transform="matrix(.1,0,0,-.1,0,792)" d="M1957.7 2743 1781.4 2985.7 1319.7 2835.7V2350.3L1605.1 2257.6 1781.4 2014.8 2243 2164.8V2650.3" fill="#ffffff"/>
<path transform="matrix(.1,0,0,-.1,0,792)" stroke-width="1" stroke-linecap="butt" stroke-miterlimit="10" stroke-linejoin="miter" fill="none" stroke="#000000" d="M1957.7 2743 1781.4 2985.7 1319.7 2835.7V2350.3L1605.1 2257.6 1781.4 2014.8 2243 2164.8V2650.3Z"/>
<path transform="matrix(.1,0,0,-.1,0,792)" d="M4022.3 2743 3737 2650.3V2164.8L4198.6 2014.8 4375 2257.6 4660.3 2350.3V2835.7L4198.6 2985.7" fill="#ffffff"/>
<path transform="matrix(.1,0,0,-.1,0,792)" stroke-width="1" stroke-linecap="butt" stroke-miterlimit="10" stroke-linejoin="miter" fill="none" stroke="#000000" d="M4022.3 2743 3737 2650.3V2164.8L4198.6 2014.8 4375 2257.6 4660.3 2350.3V2835.7L4198.6 2985.7Z"/>
<path transform="matrix(.1,0,0,-.1,0,792)" d="M3737 5677.3V6162.7L4198.6 6312.7 3913.3 6705.4 4198.6 7098.1 3737 7248.1V6762.7L3275.3 6612.7 3560.7 6220 3275.3 5827.3" fill="#805900"/>
<path transform="matrix(.1,0,0,-.1,0,792)" stroke-width="1" stroke-linecap="butt" stroke-miterlimit="10" stroke-linejoin="miter" fill="none" stroke="#000000" d="M3737 5677.3V6162.7L4198.6 6312.7 3913.3 6705.4 4198.6 7098.1 3737 7248.1V6762.7L3275.3 6612.7 3560.7 6220 3275.3 5827.3Z"/>
<path transform="matrix(.1,0,0,-.1,0,792)" d="M2243 5677.3 2704.7 5827.3 2419.4 6220 2704.7 6612.7 2243 6762.7V7248.1L1781.4 7098.1 2066.7 6705.4 1781.4 6312.7 2243 6162.7" fill="#805900"/>
<path transform="matrix(.1,0,0,-.1,0,792)" stroke-width="1" stroke-linecap="butt" stroke-miterlimit="10" stroke-linejoin="miter" fill="none" stroke="#000000" d="M2243 5677.3 2704.7 5827.3 2419.4 6220 2704.7 6612.7 2243 6762.7V7248.1L1781.4 7098.1 2066.7 6705.4 1781.4 6312.7 2243 6162.7Z"/>
<path transform="matrix(.1,0,0,-.1,0,792)" d="M2243 2650.3V2164.8L1781.4 2014.8 2066.7 1622.1 1781.4 1229.4 2243 1079.4V1564.8L2704.7 1714.8 2419.4 2107.6 2704.7 2500.3" fill="#805900"/>
<path transform="matrix(.1,0,0,-.1,0,792)" stroke-width="1" stroke-linecap="butt" stroke-miterlimit="10" stroke-linejoin="miter" fill="none" stroke="#000000" d="M2243 2650.3V2164.8L1781.4 2014.8 2066.7 1622.1 1781.4 1229.4 2243 1079.4V1564.8L2704.7 1714.8 2419.4 2107.6 2704.7 2500.3Z"/>
<path transform="matrix(.1,0,0,-.1,0,792)" d="M3737 2650.3 3275.3 2500.3 3560.7 2107.6 3275.3 1714.8 3737 1564.8V1079.4L4198.6 1229.4 3913.3 1622.1 4198.6 2014.8 3737 2164.8" fill="#805900"/>
<path transform="matrix(.1,0,0,-.1,0,792)" stroke-width="1" stroke-linecap="butt" stroke-miterlimit="10" stroke-linejoin="miter" fill="none" stroke="#000000" d="M3737 2650.3 3275.3 2500.3 3560.7 2107.6 3275.3 1714.8 3737 1564.8V1079.4L4198.6 1229.4 3913.3 1622.1 4198.6 2014.8 3737 2164.8Z"/>
<path transform="matrix(.1,0,0,-.1,0,792)" d="M3275.3 5827.3 3560.7 6220 3275.3 6612.7 2990 6520 2704.7 6612.7 2419.4 6220 2704.7 5827.3 2990 5920" fill="#ffffff"/>
<path transform="matrix(.1,0,0,-.1,0,792)" stroke-width="1" stroke-linecap="butt" stroke-miterlimit="10" stroke-linejoin="miter" fill="none" stroke="#000000" d="M3275.3 5827.3 3560.7 6220 3275.3 6612.7 2990 6520 2704.7 6612.7 2419.4 6220 2704.7 5827.3 2990 5920Z"/>
<path transform="matrix(.1,0,0,-.1,0,792)" d="M1781.4 5341.9 1319.7 5491.9V5977.3L858.102 5827.3 1143.4 5434.6 858.102 5041.9 1319.7 4891.9V4406.5L1781.4 4556.5 1496.1 4949.2" fill="#805900"/>
<path transform="matrix(.1,0,0,-.1,0,792)" stroke-width="1" stroke-linecap="butt" stroke-miterlimit="10" stroke-linejoin="miter" fill="none" stroke="#000000" d="M1781.4 5341.9 1319.7 5491.9V5977.3L858.102 5827.3 1143.4 5434.6 858.102 5041.9 1319.7 4891.9V4406.5L1781.4 4556.5 1496.1 4949.2Z"/>
<path transform="matrix(.1,0,0,-.1,0,792)" d="M1781.4 3771.1 1319.7 3921.1V3435.7L858.102 3285.7 1143.4 2893 858.102 2500.3 1319.7 2350.3V2835.7L1781.4 2985.7 1496.1 3378.4" fill="#805900"/>
<path transform="matrix(.1,0,0,-.1,0,792)" stroke-width="1" stroke-linecap="butt" stroke-miterlimit="10" stroke-linejoin="miter" fill="none" stroke="#000000" d="M1781.4 3771.1 1319.7 3921.1V3435.7L858.102 3285.7 1143.4 2893 858.102 2500.3 1319.7 2350.3V2835.7L1781.4 2985.7 1496.1 3378.4Z"/>
<path transform="matrix(.1,0,0,-.1,0,792)" d="M4198.6 2985.7 4660.3 2835.7V2350.3L5121.9 2500.3 4836.6 2893 5121.9 3285.7 4660.3 3435.7V3921.1L4198.6 3771.1 4484 3378.4" fill="#805900"/>
<path transform="matrix(.1,0,0,-.1,0,792)" stroke-width="1" stroke-linecap="butt" stroke-miterlimit="10" stroke-linejoin="miter" fill="none" stroke="#000000" d="M4198.6 2985.7 4660.3 2835.7V2350.3L5121.9 2500.3 4836.6 2893 5121.9 3285.7 4660.3 3435.7V3921.1L4198.6 3771.1 4484 3378.4Z"/>
<path transform="matrix(.1,0,0,-.1,0,792)" d="M4198.6 4556.5 4660.3 4406.5V4891.9L5121.9 5041.9 4836.6 5434.6 5121.9 5827.3 4660.3 5977.3V5491.9L4198.6 5341.9 4484 4949.2" fill="#805900"/>
<path transform="matrix(.1,0,0,-.1,0,792)" stroke-width="1" stroke-linecap="butt" stroke-miterlimit="10" stroke-linejoin="miter" fill="none" stroke="#000000" d="M4198.6 4556.5 4660.3 4406.5V4891.9L5121.9 5041.9 4836.6 5434.6 5121.9 5827.3 4660.3 5977.3V5491.9L4198.6 5341.9 4484 4949.2Z"/>
<path transform="matrix(.1,0,0,-.1,0,792)" d="M2704.7 2500.3 2419.4 2107.6 2704.7 1714.8 2990 1807.6 3275.3 1714.8 3560.7 2107.6 3275.3 2500.3 2990 2407.6" fill="#ffffff"/>
<path transform="matrix(.1,0,0,-.1,0,792)" stroke-width="1" stroke-linecap="butt" stroke-miterlimit="10" stroke-linejoin="miter" fill="none" stroke="#000000" d="M2704.7 2500.3 2419.4 2107.6 2704.7 1714.8 2990 1807.6 3275.3 1714.8 3560.7 2107.6 3275.3 2500.3 2990 2407.6Z"/>
<path transform="matrix(.1,0,0,-.1,0,792)" d="M1605.1 6070 1781.4 6312.7 1319.7 6462.7V5977.3Z" fill="#808000"/>
<path transform="matrix(.1,0,0,-.1,0,792)" stroke-width="1" stroke-linecap="butt" stroke-miterlimit="10" stroke-linejoin="miter" fill="none" stroke="#000000" d="M1605.1 6070 1781.4 6312.7 1319.7 6462.7V5977.3Z"/>
<path transform="matrix(.1,0,0,-.1,0,792)" d="M4375 6070 4660.3 5977.3V6462.7L4198.6 6312.7Z" fill="#808000"/>
<path transform="matrix(.1,0,0,-.1,0,792)" stroke-width="1" stroke-linecap="butt" stroke-miterlimit="10" stroke-linejoin="miter" fill="none" stroke="#000000" d="M4375 6070 4660.3 5977.3V6462.7L4198.6 6312.7Z"/>
<path transform="matrix(.1,0,0,-.1,0,792)" d="M1605.1 2257.6 1319.7 2350.3V1864.8L1781.4 2014.8Z" fill="#808000"/>
<path transform="matrix(.1,0,0,-.1,0,792)" stroke-width="1" stroke-linecap="butt" stroke-miterlimit="10" stroke-linejoin="miter" fill="none" stroke="#000000" d="M1605.1 2257.6 1319.7 2350.3V1864.8L1781.4 2014.8Z"/>
<path transform="matrix(.1,0,0,-.1,0,792)" d="M4375 2257.6 4198.6 2014.8 4660.3 1864.8V2350.3Z" fill="#808000"/>
<path transform="matrix(.1,0,0,-.1,0,792)" stroke-width="1" stroke-linecap="butt" stroke-miterlimit="10" stroke-linejoin="miter" fill="none" stroke="#000000" d="M4375 2257.6 4198.6 2014.8 4660.3 1864.8V2350.3Z"/>
<path transform="matrix(.1,0,0,-.1,0,792)" d="M4198.6 6312.7 4660.3 6462.7V6948.1L4198.6 7098.1 3913.3 6705.4" fill="#ffff52"/>
<path transform="matrix(.1,0,0,-.1,0,792)" stroke-width="1" stroke-linecap="butt" stroke-miterlimit="10" stroke-linejoin="miter" fill="none" stroke="#000000" d="M4198.6 6312.7 4660.3 6462.7V6948.1L4198.6 7098.1 3913.3 6705.4Z"/>
<path transform="matrix(.1,0,0,-.1,0,792)" d="M1781.4 6312.7 2066.7 6705.4 1781.4 7098.1 1319.7 6948.1V6462.7" fill="#ffff52"/>
<path transform="matrix(.1,0,0,-.1,0,792)" stroke-width="1" stroke-linecap="butt" stroke-miterlimit="10" stroke-linejoin="miter" fill="none" stroke="#000000" d="M1781.4 6312.7 2066.7 6705.4 1781.4 7098.1 1319.7 6948.1V6462.7Z"/>
<path transform="matrix(.1,0,0,-.1,0,792)" d="M1781.4 2014.8 1319.7 1864.8V1379.4L1781.4 1229.4 2066.7 1622.1" fill="#ffff52"/>
<path transform="matrix(.1,0,0,-.1,0,792)" stroke-width="1" stroke-linecap="butt" stroke-miterlimit="10" stroke-linejoin="miter" fill="none" stroke="#000000" d="M1781.4 2014.8 1319.7 1864.8V1379.4L1781.4 1229.4 2066.7 1622.1Z"/>
<path transform="matrix(.1,0,0,-.1,0,792)" d="M4198.6 2014.8 3913.3 1622.1 4198.6 1229.4 4660.3 1379.4V1864.8" fill="#ffff52"/>
<path transform="matrix(.1,0,0,-.1,0,792)" stroke-width="1" stroke-linecap="butt" stroke-miterlimit="10" stroke-linejoin="miter" fill="none" stroke="#000000" d="M4198.6 2014.8 3913.3 1622.1 4198.6 1229.4 4660.3 1379.4V1864.8Z"/>
<path transform="matrix(.1,0,0,-.1,0,792)" d="M1319.7 6462.7 858.102 6612.7 572.801 6220 858.102 5827.3 1319.7 5977.3" fill="#ffff52"/>
<path transform="matrix(.1,0,0,-.1,0,792)" stroke-width="1" stroke-linecap="butt" stroke-miterlimit="10" stroke-linejoin="miter" fill="none" stroke="#000000" d="M1319.7 6462.7 858.102 6612.7 572.801 6220 858.102 5827.3 1319.7 5977.3Z"/>
<path transform="matrix(.1,0,0,-.1,0,792)" d="M1319.7 6462.7V6948.1L1034.4 6855.4 858.102 6612.7Z" fill="#808000"/>
<path transform="matrix(.1,0,0,-.1,0,792)" stroke-width="1" stroke-linecap="butt" stroke-miterlimit="10" stroke-linejoin="miter" fill="none" stroke="#000000" d="M1319.7 6462.7V6948.1L1034.4 6855.4 858.102 6612.7Z"/>
<path transform="matrix(.1,0,0,-.1,0,792)" d="M1319.7 4891.9 858.102 5041.9 572.801 4649.2 858.102 4256.5 1319.7 4406.5" fill="#ffff52"/>
<path transform="matrix(.1,0,0,-.1,0,792)" stroke-width="1" stroke-linecap="butt" stroke-miterlimit="10" stroke-linejoin="miter" fill="none" stroke="#000000" d="M1319.7 4891.9 858.102 5041.9 572.801 4649.2 858.102 4256.5 1319.7 4406.5Z"/>
<path transform="matrix(.1,0,0,-.1,0,792)" d="M1319.7 4406.5 858.102 4256.5 572.801 4649.2 287.5 4256.5-174.199 4406.5V3921.1L287.5 4071.1 572.801 3678.4 858.102 4071.1 1319.7 3921.1" fill="#805900"/>
<path transform="matrix(.1,0,0,-.1,0,792)" stroke-width="1" stroke-linecap="butt" stroke-miterlimit="10" stroke-linejoin="miter" fill="none" stroke="#000000" d="M1319.7 4406.5 858.102 4256.5 572.801 4649.2 287.5 4256.5-174.199 4406.5V3921.1L287.5 4071.1 572.801 3678.4 858.102 4071.1 1319.7 3921.1Z"/>
<path transform="matrix(.1,0,0,-.1,0,792)" d="M1319.7 3921.1 858.102 4071.1 572.801 3678.4 858.102 3285.7 1319.7 3435.7" fill="#ffff52"/>
<path transform="matrix(.1,0,0,-.1,0,792)" stroke-width="1" stroke-linecap="butt" stroke-miterlimit="10" stroke-linejoin="miter" fill="none" stroke="#000000" d="M1319.7 3921.1 858.102 4071.1 572.801 3678.4 858.102 3285.7 1319.7 3435.7Z"/>
<path transform="matrix(.1,0,0,-.1,0,792)" d="M1319.7 2350.3 858.102 2500.3 572.801 2107.6 858.102 1714.8 1319.7 1864.8" fill="#ffff52"/>
<path transform="matrix(.1,0,0,-.1,0,792)" stroke-width="1" stroke-linecap="butt" stroke-miterlimit="10" stroke-linejoin="miter" fill="none" stroke="#000000" d="M1319.7 2350.3 858.102 2500.3 572.801 2107.6 858.102 1714.8 1319.7 1864.8Z"/>
<path transform="matrix(.1,0,0,-.1,0,792)" d="M2990 6520 3275.3 6612.7 2990 7005.4 2704.7 6612.7Z" fill="#808000"/>
<path transform="matrix(.1,0,0,-.1,0,792)" stroke-width="1" stroke-linecap="butt" stroke-miterlimit="10" stroke-linejoin="miter" fill="none" stroke="#000000" d="M2990 6520 3275.3 6612.7 2990 7005.4 2704.7 6612.7Z"/>
<path transform="matrix(.1,0,0,-.1,0,792)" d="M4660.3 2350.3V1864.8L5121.9 1714.8 5407.3 2107.6 5121.9 2500.3" fill="#ffff52"/>
<path transform="matrix(.1,0,0,-.1,0,792)" stroke-width="1" stroke-linecap="butt" stroke-miterlimit="10" stroke-linejoin="miter" fill="none" stroke="#000000" d="M4660.3 2350.3V1864.8L5121.9 1714.8 5407.3 2107.6 5121.9 2500.3Z"/>
<path transform="matrix(.1,0,0,-.1,0,792)" d="M4660.3 3435.7 5121.9 3285.7 5407.3 3678.4 5121.9 4071.1 4660.3 3921.1" fill="#ffff52"/>
<path transform="matrix(.1,0,0,-.1,0,792)" stroke-width="1" stroke-linecap="butt" stroke-miterlimit="10" stroke-linejoin="miter" fill="none" stroke="#000000" d="M4660.3 3435.7 5121.9 3285.7 5407.3 3678.4 5121.9 4071.1 4660.3 3921.1Z"/>
<path transform="matrix(.1,0,0,-.1,0,792)" d="M4660.3 3921.1 5121.9 4071.1 5407.3 3678.4 5692.6 4071.1 6154.2 3921.1V4406.5L5692.6 4256.5 5407.3 4649.2 5121.9 4256.5 4660.3 4406.5" fill="#805900"/>
<path transform="matrix(.1,0,0,-.1,0,792)" stroke-width="1" stroke-linecap="butt" stroke-miterlimit="10" stroke-linejoin="miter" fill="none" stroke="#000000" d="M4660.3 3921.1 5121.9 4071.1 5407.3 3678.4 5692.6 4071.1 6154.2 3921.1V4406.5L5692.6 4256.5 5407.3 4649.2 5121.9 4256.5 4660.3 4406.5Z"/>
<path transform="matrix(.1,0,0,-.1,0,792)" d="M4660.3 4406.5 5121.9 4256.5 5407.3 4649.2 5121.9 5041.9 4660.3 4891.9" fill="#ffff52"/>
<path transform="matrix(.1,0,0,-.1,0,792)" stroke-width="1" stroke-linecap="butt" stroke-miterlimit="10" stroke-linejoin="miter" fill="none" stroke="#000000" d="M4660.3 4406.5 5121.9 4256.5 5407.3 4649.2 5121.9 5041.9 4660.3 4891.9Z"/>
<path transform="matrix(.1,0,0,-.1,0,792)" d="M4660.3 5977.3 5121.9 5827.3 5407.3 6220 5121.9 6612.7 4660.3 6462.7" fill="#ffff52"/>
<path transform="matrix(.1,0,0,-.1,0,792)" stroke-width="1" stroke-linecap="butt" stroke-miterlimit="10" stroke-linejoin="miter" fill="none" stroke="#000000" d="M4660.3 5977.3 5121.9 5827.3 5407.3 6220 5121.9 6612.7 4660.3 6462.7Z"/>
<path transform="matrix(.1,0,0,-.1,0,792)" d="M4660.3 6462.7 5121.9 6612.7 4945.6 6855.4 4660.3 6948.1Z" fill="#808000"/>
<path transform="matrix(.1,0,0,-.1,0,792)" stroke-width="1" stroke-linecap="butt" stroke-miterlimit="10" stroke-linejoin="miter" fill="none" stroke="#000000" d="M4660.3 6462.7 5121.9 6612.7 4945.6 6855.4 4660.3 6948.1Z"/>
<path transform="matrix(.1,0,0,-.1,0,792)" d="M1319.7 1864.8 858.102 1714.8 1034.4 1472.1 1319.7 1379.4Z" fill="#808000"/>
<path transform="matrix(.1,0,0,-.1,0,792)" stroke-width="1" stroke-linecap="butt" stroke-miterlimit="10" stroke-linejoin="miter" fill="none" stroke="#000000" d="M1319.7 1864.8 858.102 1714.8 1034.4 1472.1 1319.7 1379.4Z"/>
<path transform="matrix(.1,0,0,-.1,0,792)" d="M4660.3 1864.8V1379.4L4945.6 1472.1 5121.9 1714.8Z" fill="#808000"/>
<path transform="matrix(.1,0,0,-.1,0,792)" stroke-width="1" stroke-linecap="butt" stroke-miterlimit="10" stroke-linejoin="miter" fill="none" stroke="#000000" d="M4660.3 1864.8V1379.4L4945.6 1472.1 5121.9 1714.8Z"/>
<path transform="matrix(.1,0,0,-.1,0,792)" d="M2990 1807.6 2704.7 1714.8 2990 1322.1 3275.3 1714.8Z" fill="#808000"/>
<path transform="matrix(.1,0,0,-.1,0,792)" stroke-width="1" stroke-linecap="butt" stroke-miterlimit="10" stroke-linejoin="miter" fill="none" stroke="#000000" d="M2990 1807.6 2704.7 1714.8 2990 1322.1 3275.3 1714.8Z"/>
<path transform="matrix(.1,0,0,-.1,0,792)" d="M3275.3 6612.7 3737 6762.7V7248.1L3275.3 7398.1 2990 7005.4" fill="#ffff52"/>
<path transform="matrix(.1,0,0,-.1,0,792)" stroke-width="1" stroke-linecap="butt" stroke-miterlimit="10" stroke-linejoin="miter" fill="none" stroke="#000000" d="M3275.3 6612.7 3737 6762.7V7248.1L3275.3 7398.1 2990 7005.4Z"/>
<path transform="matrix(.1,0,0,-.1,0,792)" d="M2704.7 6612.7 2990 7005.4 2704.7 7398.1 2243 7248.1V6762.7" fill="#ffff52"/>
<path transform="matrix(.1,0,0,-.1,0,792)" stroke-width="1" stroke-linecap="butt" stroke-miterlimit="10" stroke-linejoin="miter" fill="none" stroke="#000000" d="M2704.7 6612.7 2990 7005.4 2704.7 7398.1 2243 7248.1V6762.7Z"/>
<path transform="matrix(.1,0,0,-.1,0,792)" d="M2704.7 1714.8 2243 1564.8V1079.4L2704.7 929.398 2990 1322.1" fill="#ffff52"/>
<path transform="matrix(.1,0,0,-.1,0,792)" stroke-width="1" stroke-linecap="butt" stroke-miterlimit="10" stroke-linejoin="miter" fill="none" stroke="#000000" d="M2704.7 1714.8 2243 1564.8V1079.4L2704.7 929.398 2990 1322.1Z"/>
<path transform="matrix(.1,0,0,-.1,0,792)" d="M3275.3 1714.8 2990 1322.1 3275.3 929.398 3737 1079.4V1564.8" fill="#ffff52"/>
<path transform="matrix(.1,0,0,-.1,0,792)" stroke-width="1" stroke-linecap="butt" stroke-miterlimit="10" stroke-linejoin="miter" fill="none" stroke="#000000" d="M3275.3 1714.8 2990 1322.1 3275.3 929.398 3737 1079.4V1564.8Z"/>
<path transform="matrix(.1,0,0,-.1,0,792)" d="M1143.4 5434.6 858.102 5827.3 572.801 5734.6 287.5 5827.3 2.10156 5434.6 287.5 5041.9 572.801 5134.6 858.102 5041.9" fill="#ffffff"/>
<path transform="matrix(.1,0,0,-.1,0,792)" stroke-width="1" stroke-linecap="butt" stroke-miterlimit="10" stroke-linejoin="miter" fill="none" stroke="#000000" d="M1143.4 5434.6 858.102 5827.3 572.801 5734.6 287.5 5827.3 2.10156 5434.6 287.5 5041.9 572.801 5134.6 858.102 5041.9Z"/>
<path transform="matrix(.1,0,0,-.1,0,792)" d="M1143.4 2893 858.102 3285.7 572.801 3193 287.5 3285.7 2.10156 2893 287.5 2500.3 572.801 2593 858.102 2500.3" fill="#ffffff"/>
<path transform="matrix(.1,0,0,-.1,0,792)" stroke-width="1" stroke-linecap="butt" stroke-miterlimit="10" stroke-linejoin="miter" fill="none" stroke="#000000" d="M1143.4 2893 858.102 3285.7 572.801 3193 287.5 3285.7 2.10156 2893 287.5 2500.3 572.801 2593 858.102 2500.3Z"/>
<path transform="matrix(.1,0,0,-.1,0,792)" d="M4836.6 2893 5121.9 2500.3 5407.3 2593 5692.6 2500.3 5977.9 2893 5692.6 3285.7 5407.3 3193 5121.9 3285.7" fill="#ffffff"/>
<path transform="matrix(.1,0,0,-.1,0,792)" stroke-width="1" stroke-linecap="butt" stroke-miterlimit="10" stroke-linejoin="miter" fill="none" stroke="#000000" d="M4836.6 2893 5121.9 2500.3 5407.3 2593 5692.6 2500.3 5977.9 2893 5692.6 3285.7 5407.3 3193 5121.9 3285.7Z"/>
<path transform="matrix(.1,0,0,-.1,0,792)" d="M4836.6 5434.6 5121.9 5041.9 5407.3 5134.6 5692.6 5041.9 5977.9 5434.6 5692.6 5827.3 5407.3 5734.6 5121.9 5827.3" fill="#ffffff"/>
<path transform="matrix(.1,0,0,-.1,0,792)" stroke-width="1" stroke-linecap="butt" stroke-miterlimit="10" stroke-linejoin="miter" fill="none" stroke="#000000" d="M4836.6 5434.6 5121.9 5041.9 5407.3 5134.6 5692.6 5041.9 5977.9 5434.6 5692.6 5827.3 5407.3 5734.6 5121.9 5827.3Z"/>
<path transform="matrix(.1,0,0,-.1,0,792)" d="M1034.4 6855.4 1319.7 6948.1V7248.1L1496.1 7490.8 1319.7 7733.5V8033.5L1034.4 8126.2 858.102 8368.9 572.801 8276.2 287.5 8368.9 111.102 8126.2-174.199 8033.5V7733.5L-350.5 7490.8-174.199 7248.1V6948.1L111.102 6855.4 287.5 6612.7 572.801 6705.4 858.102 6612.7" fill="#ffffc9"/>
<path transform="matrix(.1,0,0,-.1,0,792)" stroke-width="1" stroke-linecap="butt" stroke-miterlimit="10" stroke-linejoin="miter" fill="none" stroke="#000000" d="M1034.4 6855.4 1319.7 6948.1V7248.1L1496.1 7490.8 1319.7 7733.5V8033.5L1034.4 8126.2 858.102 8368.9 572.801 8276.2 287.5 8368.9 111.102 8126.2-174.199 8033.5V7733.5L-350.5 7490.8-174.199 7248.1V6948.1L111.102 6855.4 287.5 6612.7 572.801 6705.4 858.102 6612.7Z"/>
<path transform="matrix(.1,0,0,-.1,0,792)" d="M4945.6 6855.4 5121.9 6612.7 5407.3 6705.4 5692.6 6612.7 5868.9 6855.4 6154.2 6948.1V7248.1L6330.6 7490.8 6154.2 7733.5V8033.5L5868.9 8126.2 5692.6 8368.9 5407.3 8276.2 5121.9 8368.9 4945.6 8126.2 4660.3 8033.5V7733.5L4484 7490.8 4660.3 7248.1V6948.1" fill="#ffffc9"/>
<path transform="matrix(.1,0,0,-.1,0,792)" stroke-width="1" stroke-linecap="butt" stroke-miterlimit="10" stroke-linejoin="miter" fill="none" stroke="#000000" d="M4945.6 6855.4 5121.9 6612.7 5407.3 6705.4 5692.6 6612.7 5868.9 6855.4 6154.2 6948.1V7248.1L6330.6 7490.8 6154.2 7733.5V8033.5L5868.9 8126.2 5692.6 8368.9 5407.3 8276.2 5121.9 8368.9 4945.6 8126.2 4660.3 8033.5V7733.5L4484 7490.8 4660.3 7248.1V6948.1Z"/>
<path transform="matrix(.1,0,0,-.1,0,792)" d="M1034.4 1472.1 858.102 1714.8 572.801 1622.1 287.5 1714.8 111.102 1472.1-174.199 1379.4V1079.4L-350.5 836.699-174.199 594V294L111.102 201.301 287.5-41.3984 572.801 51.3008 858.102-41.3984 1034.4 201.301 1319.7 294V594L1496.1 836.699 1319.7 1079.4V1379.4" fill="#ffffc9"/>
<path transform="matrix(.1,0,0,-.1,0,792)" stroke-width="1" stroke-linecap="butt" stroke-miterlimit="10" stroke-linejoin="miter" fill="none" stroke="#000000" d="M1034.4 1472.1 858.102 1714.8 572.801 1622.1 287.5 1714.8 111.102 1472.1-174.199 1379.4V1079.4L-350.5 836.699-174.199 594V294L111.102 201.301 287.5-41.3984 572.801 51.3008 858.102-41.3984 1034.4 201.301 1319.7 294V594L1496.1 836.699 1319.7 1079.4V1379.4Z"/>
<path transform="matrix(.1,0,0,-.1,0,792)" d="M4945.6 1472.1 4660.3 1379.4V1079.4L4484 836.699 4660.3 594V294L4945.6 201.301 5121.9-41.3984 5407.3 51.3008 5692.6-41.3984 5868.9 201.301 6154.2 294V594L6330.6 836.699 6154.2 1079.4V1379.4L5868.9 1472.1 5692.6 1714.8 5407.3 1622.1 5121.9 1714.8" fill="#ffffc9"/>
<path transform="matrix(.1,0,0,-.1,0,792)" stroke-width="1" stroke-linecap="butt" stroke-miterlimit="10" stroke-linejoin="miter" fill="none" stroke="#000000" d="M4945.6 1472.1 4660.3 1379.4V1079.4L4484 836.699 4660.3 594V294L4945.6 201.301 5121.9-41.3984 5407.3 51.3008 5692.6-41.3984 5868.9 201.301 6154.2 294V594L6330.6 836.699 6154.2 1079.4V1379.4L5868.9 1472.1 5692.6 1714.8 5407.3 1622.1 5121.9 1714.8Z"/>
<path transform="matrix(.1,0,0,-.1,0,792)" d="M4660.3 6948.1V7248.1L4484 7490.8 4198.6 7098.1Z" fill="#808000"/>
<path transform="matrix(.1,0,0,-.1,0,792)" stroke-width="1" stroke-linecap="butt" stroke-miterlimit="10" stroke-linejoin="miter" fill="none" stroke="#000000" d="M4660.3 6948.1V7248.1L4484 7490.8 4198.6 7098.1Z"/>
<path transform="matrix(.1,0,0,-.1,0,792)" d="M1319.7 6948.1 1781.4 7098.1 1496.1 7490.8 1319.7 7248.1Z" fill="#808000"/>
<path transform="matrix(.1,0,0,-.1,0,792)" stroke-width="1" stroke-linecap="butt" stroke-miterlimit="10" stroke-linejoin="miter" fill="none" stroke="#000000" d="M1319.7 6948.1 1781.4 7098.1 1496.1 7490.8 1319.7 7248.1Z"/>
<path transform="matrix(.1,0,0,-.1,0,792)" d="M2990 7005.4 3275.3 7398.1 3737 7248.1V7733.5L3275.3 7583.5 2990 7976.2 2704.7 7583.5 2243 7733.5V7248.1L2704.7 7398.1" fill="#805900"/>
<path transform="matrix(.1,0,0,-.1,0,792)" stroke-width="1" stroke-linecap="butt" stroke-miterlimit="10" stroke-linejoin="miter" fill="none" stroke="#000000" d="M2990 7005.4 3275.3 7398.1 3737 7248.1V7733.5L3275.3 7583.5 2990 7976.2 2704.7 7583.5 2243 7733.5V7248.1L2704.7 7398.1Z"/>
<path transform="matrix(.1,0,0,-.1,0,792)" d="M1319.7 1379.4V1079.4L1496.1 836.699 1781.4 1229.4Z" fill="#808000"/>
<path transform="matrix(.1,0,0,-.1,0,792)" stroke-width="1" stroke-linecap="butt" stroke-miterlimit="10" stroke-linejoin="miter" fill="none" stroke="#000000" d="M1319.7 1379.4V1079.4L1496.1 836.699 1781.4 1229.4Z"/>
<path transform="matrix(.1,0,0,-.1,0,792)" d="M4660.3 1379.4 4198.6 1229.4 4484 836.699 4660.3 1079.4Z" fill="#808000"/>
<path transform="matrix(.1,0,0,-.1,0,792)" stroke-width="1" stroke-linecap="butt" stroke-miterlimit="10" stroke-linejoin="miter" fill="none" stroke="#000000" d="M4660.3 1379.4 4198.6 1229.4 4484 836.699 4660.3 1079.4Z"/>
<path transform="matrix(.1,0,0,-.1,0,792)" d="M2990 1322.1 2704.7 929.398 2243 1079.4V594L2704.7 744 2990 351.301 3275.3 744 3737 594V1079.4L3275.3 929.398" fill="#805900"/>
<path transform="matrix(.1,0,0,-.1,0,792)" stroke-width="1" stroke-linecap="butt" stroke-miterlimit="10" stroke-linejoin="miter" fill="none" stroke="#000000" d="M2990 1322.1 2704.7 929.398 2243 1079.4V594L2704.7 744 2990 351.301 3275.3 744 3737 594V1079.4L3275.3 929.398Z"/>
<path transform="matrix(.1,0,0,-.1,0,792)" d="M4198.6 7098.1 4484 7490.8 4198.6 7883.5 3737 7733.5V7248.1" fill="#ffff52"/>
<path transform="matrix(.1,0,0,-.1,0,792)" stroke-width="1" stroke-linecap="butt" stroke-miterlimit="10" stroke-linejoin="miter" fill="none" stroke="#000000" d="M4198.6 7098.1 4484 7490.8 4198.6 7883.5 3737 7733.5V7248.1Z"/>
<path transform="matrix(.1,0,0,-.1,0,792)" d="M1781.4 7098.1 2243 7248.1V7733.5L1781.4 7883.5 1496.1 7490.8" fill="#ffff52"/>
<path transform="matrix(.1,0,0,-.1,0,792)" stroke-width="1" stroke-linecap="butt" stroke-miterlimit="10" stroke-linejoin="miter" fill="none" stroke="#000000" d="M1781.4 7098.1 2243 7248.1V7733.5L1781.4 7883.5 1496.1 7490.8Z"/>
<path transform="matrix(.1,0,0,-.1,0,792)" d="M858.102 6612.7 572.801 6705.4 287.5 6612.7 572.801 6220Z" fill="#808000"/>
<path transform="matrix(.1,0,0,-.1,0,792)" stroke-width="1" stroke-linecap="butt" stroke-miterlimit="10" stroke-linejoin="miter" fill="none" stroke="#000000" d="M858.102 6612.7 572.801 6705.4 287.5 6612.7 572.801 6220Z"/>
<path transform="matrix(.1,0,0,-.1,0,792)" d="M858.102 5827.3 572.801 6220 287.5 5827.3 572.801 5734.6Z" fill="#808000"/>
<path transform="matrix(.1,0,0,-.1,0,792)" stroke-width="1" stroke-linecap="butt" stroke-miterlimit="10" stroke-linejoin="miter" fill="none" stroke="#000000" d="M858.102 5827.3 572.801 6220 287.5 5827.3 572.801 5734.6Z"/>
<path transform="matrix(.1,0,0,-.1,0,792)" d="M858.102 5041.9 572.801 5134.6 287.5 5041.9 572.801 4649.2Z" fill="#808000"/>
<path transform="matrix(.1,0,0,-.1,0,792)" stroke-width="1" stroke-linecap="butt" stroke-miterlimit="10" stroke-linejoin="miter" fill="none" stroke="#000000" d="M858.102 5041.9 572.801 5134.6 287.5 5041.9 572.801 4649.2Z"/>
<path transform="matrix(.1,0,0,-.1,0,792)" d="M858.102 3285.7 572.801 3678.4 287.5 3285.7 572.801 3193Z" fill="#808000"/>
<path transform="matrix(.1,0,0,-.1,0,792)" stroke-width="1" stroke-linecap="butt" stroke-miterlimit="10" stroke-linejoin="miter" fill="none" stroke="#000000" d="M858.102 3285.7 572.801 3678.4 287.5 3285.7 572.801 3193Z"/>
<path transform="matrix(.1,0,0,-.1,0,792)" d="M858.102 2500.3 572.801 2593 287.5 2500.3 572.801 2107.6Z" fill="#808000"/>
<path transform="matrix(.1,0,0,-.1,0,792)" stroke-width="1" stroke-linecap="butt" stroke-miterlimit="10" stroke-linejoin="miter" fill="none" stroke="#000000" d="M858.102 2500.3 572.801 2593 287.5 2500.3 572.801 2107.6Z"/>
<path transform="matrix(.1,0,0,-.1,0,792)" d="M858.102 1714.8 572.801 2107.6 287.5 1714.8 572.801 1622.1Z" fill="#808000"/>
<path transform="matrix(.1,0,0,-.1,0,792)" stroke-width="1" stroke-linecap="butt" stroke-miterlimit="10" stroke-linejoin="miter" fill="none" stroke="#000000" d="M858.102 1714.8 572.801 2107.6 287.5 1714.8 572.801 1622.1Z"/>
<path transform="matrix(.1,0,0,-.1,0,792)" d="M5121.9 1714.8 5407.3 1622.1 5692.6 1714.8 5407.3 2107.6Z" fill="#808000"/>
<path transform="matrix(.1,0,0,-.1,0,792)" stroke-width="1" stroke-linecap="butt" stroke-miterlimit="10" stroke-linejoin="miter" fill="none" stroke="#000000" d="M5121.9 1714.8 5407.3 1622.1 5692.6 1714.8 5407.3 2107.6Z"/>
<path transform="matrix(.1,0,0,-.1,0,792)" d="M5121.9 2500.3 5407.3 2107.6 5692.6 2500.3 5407.3 2593Z" fill="#808000"/>
<path transform="matrix(.1,0,0,-.1,0,792)" stroke-width="1" stroke-linecap="butt" stroke-miterlimit="10" stroke-linejoin="miter" fill="none" stroke="#000000" d="M5121.9 2500.3 5407.3 2107.6 5692.6 2500.3 5407.3 2593Z"/>
<path transform="matrix(.1,0,0,-.1,0,792)" d="M5121.9 3285.7 5407.3 3193 5692.6 3285.7 5407.3 3678.4Z" fill="#808000"/>
<path transform="matrix(.1,0,0,-.1,0,792)" stroke-width="1" stroke-linecap="butt" stroke-miterlimit="10" stroke-linejoin="miter" fill="none" stroke="#000000" d="M5121.9 3285.7 5407.3 3193 5692.6 3285.7 5407.3 3678.4Z"/>
<path transform="matrix(.1,0,0,-.1,0,792)" d="M5121.9 5041.9 5407.3 4649.2 5692.6 5041.9 5407.3 5134.6Z" fill="#808000"/>
<path transform="matrix(.1,0,0,-.1,0,792)" stroke-width="1" stroke-linecap="butt" stroke-miterlimit="10" stroke-linejoin="miter" fill="none" stroke="#000000" d="M5121.9 5041.9 5407.3 4649.2 5692.6 5041.9 5407.3 5134.6Z"/>
<path transform="matrix(.1,0,0,-.1,0,792)" d="M5121.9 5827.3 5407.3 5734.6 5692.6 5827.3 5407.3 6220Z" fill="#808000"/>
<path transform="matrix(.1,0,0,-.1,0,792)" stroke-width="1" stroke-linecap="butt" stroke-miterlimit="10" stroke-linejoin="miter" fill="none" stroke="#000000" d="M5121.9 5827.3 5407.3 5734.6 5692.6 5827.3 5407.3 6220Z"/>
<path transform="matrix(.1,0,0,-.1,0,792)" d="M5121.9 6612.7 5407.3 6220 5692.6 6612.7 5407.3 6705.4Z" fill="#808000"/>
<path transform="matrix(.1,0,0,-.1,0,792)" stroke-width="1" stroke-linecap="butt" stroke-miterlimit="10" stroke-linejoin="miter" fill="none" stroke="#000000" d="M5121.9 6612.7 5407.3 6220 5692.6 6612.7 5407.3 6705.4Z"/>
<path transform="matrix(.1,0,0,-.1,0,792)" d="M1781.4 1229.4 1496.1 836.699 1781.4 444 2243 594V1079.4" fill="#ffff52"/>
<path transform="matrix(.1,0,0,-.1,0,792)" stroke-width="1" stroke-linecap="butt" stroke-miterlimit="10" stroke-linejoin="miter" fill="none" stroke="#000000" d="M1781.4 1229.4 1496.1 836.699 1781.4 444 2243 594V1079.4Z"/>
<path transform="matrix(.1,0,0,-.1,0,792)" d="M4198.6 1229.4 3737 1079.4V594L4198.6 444 4484 836.699" fill="#ffff52"/>
<path transform="matrix(.1,0,0,-.1,0,792)" stroke-width="1" stroke-linecap="butt" stroke-miterlimit="10" stroke-linejoin="miter" fill="none" stroke="#000000" d="M4198.6 1229.4 3737 1079.4V594L4198.6 444 4484 836.699Z"/>
<path transform="matrix(.1,0,0,-.1,0,792)" d="M4484 7490.8 4660.3 7733.5V8033.5L4198.6 7883.5Z" fill="#808000"/>
<path transform="matrix(.1,0,0,-.1,0,792)" stroke-width="1" stroke-linecap="butt" stroke-miterlimit="10" stroke-linejoin="miter" fill="none" stroke="#000000" d="M4484 7490.8 4660.3 7733.5V8033.5L4198.6 7883.5Z"/>
<path transform="matrix(.1,0,0,-.1,0,792)" d="M1496.1 7490.8 1781.4 7883.5 1319.7 8033.5V7733.5Z" fill="#808000"/>
<path transform="matrix(.1,0,0,-.1,0,792)" stroke-width="1" stroke-linecap="butt" stroke-miterlimit="10" stroke-linejoin="miter" fill="none" stroke="#000000" d="M1496.1 7490.8 1781.4 7883.5 1319.7 8033.5V7733.5Z"/>
<path transform="matrix(.1,0,0,-.1,0,792)" d="M572.801 6220 287.5 6612.7-174.199 6462.7V5977.3L287.5 5827.3" fill="#ffff52"/>
<path transform="matrix(.1,0,0,-.1,0,792)" stroke-width="1" stroke-linecap="butt" stroke-miterlimit="10" stroke-linejoin="miter" fill="none" stroke="#000000" d="M572.801 6220 287.5 6612.7-174.199 6462.7V5977.3L287.5 5827.3Z"/>
<path transform="matrix(.1,0,0,-.1,0,792)" d="M572.801 4649.2 287.5 5041.9-174.199 4891.9V4406.5L287.5 4256.5" fill="#ffff52"/>
<path transform="matrix(.1,0,0,-.1,0,792)" stroke-width="1" stroke-linecap="butt" stroke-miterlimit="10" stroke-linejoin="miter" fill="none" stroke="#000000" d="M572.801 4649.2 287.5 5041.9-174.199 4891.9V4406.5L287.5 4256.5Z"/>
<path transform="matrix(.1,0,0,-.1,0,792)" d="M572.801 3678.4 287.5 4071.1-174.199 3921.1V3435.7L287.5 3285.7" fill="#ffff52"/>
<path transform="matrix(.1,0,0,-.1,0,792)" stroke-width="1" stroke-linecap="butt" stroke-miterlimit="10" stroke-linejoin="miter" fill="none" stroke="#000000" d="M572.801 3678.4 287.5 4071.1-174.199 3921.1V3435.7L287.5 3285.7Z"/>
<path transform="matrix(.1,0,0,-.1,0,792)" d="M572.801 2107.6 287.5 2500.3-174.199 2350.3V1864.8L287.5 1714.8" fill="#ffff52"/>
<path transform="matrix(.1,0,0,-.1,0,792)" stroke-width="1" stroke-linecap="butt" stroke-miterlimit="10" stroke-linejoin="miter" fill="none" stroke="#000000" d="M572.801 2107.6 287.5 2500.3-174.199 2350.3V1864.8L287.5 1714.8Z"/>
<path transform="matrix(.1,0,0,-.1,0,792)" d="M5407.3 2107.6 5692.6 1714.8 6154.2 1864.8V2350.3L5692.6 2500.3" fill="#ffff52"/>
<path transform="matrix(.1,0,0,-.1,0,792)" stroke-width="1" stroke-linecap="butt" stroke-miterlimit="10" stroke-linejoin="miter" fill="none" stroke="#000000" d="M5407.3 2107.6 5692.6 1714.8 6154.2 1864.8V2350.3L5692.6 2500.3Z"/>
<path transform="matrix(.1,0,0,-.1,0,792)" d="M5407.3 3678.4 5692.6 3285.7 6154.2 3435.7V3921.1L5692.6 4071.1" fill="#ffff52"/>
<path transform="matrix(.1,0,0,-.1,0,792)" stroke-width="1" stroke-linecap="butt" stroke-miterlimit="10" stroke-linejoin="miter" fill="none" stroke="#000000" d="M5407.3 3678.4 5692.6 3285.7 6154.2 3435.7V3921.1L5692.6 4071.1Z"/>
<path transform="matrix(.1,0,0,-.1,0,792)" d="M5407.3 4649.2 5692.6 4256.5 6154.2 4406.5V4891.9L5692.6 5041.9" fill="#ffff52"/>
<path transform="matrix(.1,0,0,-.1,0,792)" stroke-width="1" stroke-linecap="butt" stroke-miterlimit="10" stroke-linejoin="miter" fill="none" stroke="#000000" d="M5407.3 4649.2 5692.6 4256.5 6154.2 4406.5V4891.9L5692.6 5041.9Z"/>
<path transform="matrix(.1,0,0,-.1,0,792)" d="M5407.3 6220 5692.6 5827.3 6154.2 5977.3V6462.7L5692.6 6612.7" fill="#ffff52"/>
<path transform="matrix(.1,0,0,-.1,0,792)" stroke-width="1" stroke-linecap="butt" stroke-miterlimit="10" stroke-linejoin="miter" fill="none" stroke="#000000" d="M5407.3 6220 5692.6 5827.3 6154.2 5977.3V6462.7L5692.6 6612.7Z"/>
<path transform="matrix(.1,0,0,-.1,0,792)" d="M1496.1 836.699 1319.7 594V294L1781.4 444Z" fill="#808000"/>
<path transform="matrix(.1,0,0,-.1,0,792)" stroke-width="1" stroke-linecap="butt" stroke-miterlimit="10" stroke-linejoin="miter" fill="none" stroke="#000000" d="M1496.1 836.699 1319.7 594V294L1781.4 444Z"/>
<path transform="matrix(.1,0,0,-.1,0,792)" d="M4484 836.699 4198.6 444 4660.3 294V594Z" fill="#808000"/>
<path transform="matrix(.1,0,0,-.1,0,792)" stroke-width="1" stroke-linecap="butt" stroke-miterlimit="10" stroke-linejoin="miter" fill="none" stroke="#000000" d="M4484 836.699 4198.6 444 4660.3 294V594Z"/>
<path transform="matrix(.1,0,0,-.1,0,792)" d="M3275.3 7583.5 3737 7733.5V8218.9L3275.3 8368.9 2990 7976.2" fill="#ffff52"/>
<path transform="matrix(.1,0,0,-.1,0,792)" stroke-width="1" stroke-linecap="butt" stroke-miterlimit="10" stroke-linejoin="miter" fill="none" stroke="#000000" d="M3275.3 7583.5 3737 7733.5V8218.9L3275.3 8368.9 2990 7976.2Z"/>
<path transform="matrix(.1,0,0,-.1,0,792)" d="M2704.7 7583.5 2990 7976.2 2704.7 8368.9 2243 8218.9V7733.5" fill="#ffff52"/>
<path transform="matrix(.1,0,0,-.1,0,792)" stroke-width="1" stroke-linecap="butt" stroke-miterlimit="10" stroke-linejoin="miter" fill="none" stroke="#000000" d="M2704.7 7583.5 2990 7976.2 2704.7 8368.9 2243 8218.9V7733.5Z"/>
<path transform="matrix(.1,0,0,-.1,0,792)" d="M2704.7 744 2243 594V108.602L2704.7-41.3984 2990 351.301" fill="#ffff52"/>
<path transform="matrix(.1,0,0,-.1,0,792)" stroke-width="1" stroke-linecap="butt" stroke-miterlimit="10" stroke-linejoin="miter" fill="none" stroke="#000000" d="M2704.7 744 2243 594V108.602L2704.7-41.3984 2990 351.301Z"/>
<path transform="matrix(.1,0,0,-.1,0,792)" d="M3275.3 744 2990 351.301 3275.3-41.3984 3737 108.602V594" fill="#ffff52"/>
<path transform="matrix(.1,0,0,-.1,0,792)" stroke-width="1" stroke-linecap="butt" stroke-miterlimit="10" stroke-linejoin="miter" fill="none" stroke="#000000" d="M3275.3 744 2990 351.301 3275.3-41.3984 3737 108.602V594Z"/>
<path transform="matrix(.1,0,0,-.1,0,792)" d="M3737 7733.5 4198.6 7883.5 3913.3 8276.2 4198.6 8668.9 3737 8818.9V9304.4L3275.3 9154.4 3560.7 8761.7 3275.3 8368.9 3737 8218.9" fill="#805900"/>
<path transform="matrix(.1,0,0,-.1,0,792)" stroke-width="1" stroke-linecap="butt" stroke-miterlimit="10" stroke-linejoin="miter" fill="none" stroke="#000000" d="M3737 7733.5 4198.6 7883.5 3913.3 8276.2 4198.6 8668.9 3737 8818.9V9304.4L3275.3 9154.4 3560.7 8761.7 3275.3 8368.9 3737 8218.9Z"/>
<path transform="matrix(.1,0,0,-.1,0,792)" d="M2243 7733.5V8218.9L2704.7 8368.9 2419.4 8761.7 2704.7 9154.4 2243 9304.4V8818.9L1781.4 8668.9 2066.7 8276.2 1781.4 7883.5" fill="#805900"/>
<path transform="matrix(.1,0,0,-.1,0,792)" stroke-width="1" stroke-linecap="butt" stroke-miterlimit="10" stroke-linejoin="miter" fill="none" stroke="#000000" d="M2243 7733.5V8218.9L2704.7 8368.9 2419.4 8761.7 2704.7 9154.4 2243 9304.4V8818.9L1781.4 8668.9 2066.7 8276.2 1781.4 7883.5Z"/>
<path transform="matrix(.1,0,0,-.1,0,792)" d="M2243 594 1781.4 444 2066.7 51.3008 1781.4-341.398 2243-491.398V-976.801L2704.7-826.801 2419.4-434.102 2704.7-41.3984 2243 108.602" fill="#805900"/>
<path transform="matrix(.1,0,0,-.1,0,792)" stroke-width="1" stroke-linecap="butt" stroke-miterlimit="10" stroke-linejoin="miter" fill="none" stroke="#000000" d="M2243 594 1781.4 444 2066.7 51.3008 1781.4-341.398 2243-491.398V-976.801L2704.7-826.801 2419.4-434.102 2704.7-41.3984 2243 108.602Z"/>
<path transform="matrix(.1,0,0,-.1,0,792)" d="M3737 594V108.602L3275.3-41.3984 3560.7-434.102 3275.3-826.801 3737-976.801V-491.398L4198.6-341.398 3913.3 51.3008 4198.6 444" fill="#805900"/>
<path transform="matrix(.1,0,0,-.1,0,792)" stroke-width="1" stroke-linecap="butt" stroke-miterlimit="10" stroke-linejoin="miter" fill="none" stroke="#000000" d="M3737 594V108.602L3275.3-41.3984 3560.7-434.102 3275.3-826.801 3737-976.801V-491.398L4198.6-341.398 3913.3 51.3008 4198.6 444Z"/>
<path transform="matrix(.1,0,0,-.1,0,792)" d="M4198.6 7883.5 4660.3 8033.5V8518.9L4198.6 8668.9 3913.3 8276.2" fill="#ffff52"/>
<path transform="matrix(.1,0,0,-.1,0,792)" stroke-width="1" stroke-linecap="butt" stroke-miterlimit="10" stroke-linejoin="miter" fill="none" stroke="#000000" d="M4198.6 7883.5 4660.3 8033.5V8518.9L4198.6 8668.9 3913.3 8276.2Z"/>
<path transform="matrix(.1,0,0,-.1,0,792)" d="M1781.4 7883.5 2066.7 8276.2 1781.4 8668.9 1319.7 8518.9V8033.5" fill="#ffff52"/>
<path transform="matrix(.1,0,0,-.1,0,792)" stroke-width="1" stroke-linecap="butt" stroke-miterlimit="10" stroke-linejoin="miter" fill="none" stroke="#000000" d="M1781.4 7883.5 2066.7 8276.2 1781.4 8668.9 1319.7 8518.9V8033.5Z"/>
<path transform="matrix(.1,0,0,-.1,0,792)" d="M287.5 6612.7 111.102 6855.4-174.199 6948.1V6462.7Z" fill="#808000"/>
<path transform="matrix(.1,0,0,-.1,0,792)" stroke-width="1" stroke-linecap="butt" stroke-miterlimit="10" stroke-linejoin="miter" fill="none" stroke="#000000" d="M287.5 6612.7 111.102 6855.4-174.199 6948.1V6462.7Z"/>
<path transform="matrix(.1,0,0,-.1,0,792)" d="M287.5 5827.3-174.199 5977.3V5491.9L-635.801 5341.9-350.5 4949.2-635.801 4556.5-174.199 4406.5V4891.9L287.5 5041.9 2.10156 5434.6" fill="#805900"/>
<path transform="matrix(.1,0,0,-.1,0,792)" stroke-width="1" stroke-linecap="butt" stroke-miterlimit="10" stroke-linejoin="miter" fill="none" stroke="#000000" d="M287.5 5827.3-174.199 5977.3V5491.9L-635.801 5341.9-350.5 4949.2-635.801 4556.5-174.199 4406.5V4891.9L287.5 5041.9 2.10156 5434.6Z"/>
<path transform="matrix(.1,0,0,-.1,0,792)" d="M287.5 3285.7-174.199 3435.7V3921.1L-635.801 3771.1-350.5 3378.4-635.801 2985.7-174.199 2835.7V2350.3L287.5 2500.3 2.10156 2893" fill="#805900"/>
<path transform="matrix(.1,0,0,-.1,0,792)" stroke-width="1" stroke-linecap="butt" stroke-miterlimit="10" stroke-linejoin="miter" fill="none" stroke="#000000" d="M287.5 3285.7-174.199 3435.7V3921.1L-635.801 3771.1-350.5 3378.4-635.801 2985.7-174.199 2835.7V2350.3L287.5 2500.3 2.10156 2893Z"/>
<path transform="matrix(.1,0,0,-.1,0,792)" d="M287.5 1714.8-174.199 1864.8V1379.4L111.102 1472.1Z" fill="#808000"/>
<path transform="matrix(.1,0,0,-.1,0,792)" stroke-width="1" stroke-linecap="butt" stroke-miterlimit="10" stroke-linejoin="miter" fill="none" stroke="#000000" d="M287.5 1714.8-174.199 1864.8V1379.4L111.102 1472.1Z"/>
<path transform="matrix(.1,0,0,-.1,0,792)" d="M5692.6 1714.8 5868.9 1472.1 6154.2 1379.4V1864.8Z" fill="#808000"/>
<path transform="matrix(.1,0,0,-.1,0,792)" stroke-width="1" stroke-linecap="butt" stroke-miterlimit="10" stroke-linejoin="miter" fill="none" stroke="#000000" d="M5692.6 1714.8 5868.9 1472.1 6154.2 1379.4V1864.8Z"/>
<path transform="matrix(.1,0,0,-.1,0,792)" d="M5692.6 2500.3 6154.2 2350.3V2835.7L6615.9 2985.7 6330.6 3378.4 6615.9 3771.1 6154.2 3921.1V3435.7L5692.6 3285.7 5977.9 2893" fill="#805900"/>
<path transform="matrix(.1,0,0,-.1,0,792)" stroke-width="1" stroke-linecap="butt" stroke-miterlimit="10" stroke-linejoin="miter" fill="none" stroke="#000000" d="M5692.6 2500.3 6154.2 2350.3V2835.7L6615.9 2985.7 6330.6 3378.4 6615.9 3771.1 6154.2 3921.1V3435.7L5692.6 3285.7 5977.9 2893Z"/>
<path transform="matrix(.1,0,0,-.1,0,792)" d="M5692.6 5041.9 6154.2 4891.9V4406.5L6615.9 4556.5 6330.6 4949.2 6615.9 5341.9 6154.2 5491.9V5977.3L5692.6 5827.3 5977.9 5434.6" fill="#805900"/>
<path transform="matrix(.1,0,0,-.1,0,792)" stroke-width="1" stroke-linecap="butt" stroke-miterlimit="10" stroke-linejoin="miter" fill="none" stroke="#000000" d="M5692.6 5041.9 6154.2 4891.9V4406.5L6615.9 4556.5 6330.6 4949.2 6615.9 5341.9 6154.2 5491.9V5977.3L5692.6 5827.3 5977.9 5434.6Z"/>
<path transform="matrix(.1,0,0,-.1,0,792)" d="M5692.6 6612.7 6154.2 6462.7V6948.1L5868.9 6855.4Z" fill="#808000"/>
<path transform="matrix(.1,0,0,-.1,0,792)" stroke-width="1" stroke-linecap="butt" stroke-miterlimit="10" stroke-linejoin="miter" fill="none" stroke="#000000" d="M5692.6 6612.7 6154.2 6462.7V6948.1L5868.9 6855.4Z"/>
<path transform="matrix(.1,0,0,-.1,0,792)" d="M1781.4 444 1319.7 294V-191.398L1781.4-341.398 2066.7 51.3008" fill="#ffff52"/>
<path transform="matrix(.1,0,0,-.1,0,792)" stroke-width="1" stroke-linecap="butt" stroke-miterlimit="10" stroke-linejoin="miter" fill="none" stroke="#000000" d="M1781.4 444 1319.7 294V-191.398L1781.4-341.398 2066.7 51.3008Z"/>
<path transform="matrix(.1,0,0,-.1,0,792)" d="M4198.6 444 3913.3 51.3008 4198.6-341.398 4660.3-191.398V294" fill="#ffff52"/>
<path transform="matrix(.1,0,0,-.1,0,792)" stroke-width="1" stroke-linecap="butt" stroke-miterlimit="10" stroke-linejoin="miter" fill="none" stroke="#000000" d="M4198.6 444 3913.3 51.3008 4198.6-341.398 4660.3-191.398V294Z"/>
<path transform="matrix(.1,0,0,-.1,0,792)" d="M2990 351.301 2704.7-41.3984 2990-134.102 3275.3-41.3984Z" fill="#808000"/>
<path transform="matrix(.1,0,0,-.1,0,792)" stroke-width="1" stroke-linecap="butt" stroke-miterlimit="10" stroke-linejoin="miter" fill="none" stroke="#000000" d="M2990 351.301 2704.7-41.3984 2990-134.102 3275.3-41.3984Z"/>
<path transform="matrix(.1,0,0,-.1,0,792)" d="M4660.3 294V-191.398L5121.9-41.3984 4945.6 201.301Z" fill="#808000"/>
<path transform="matrix(.1,0,0,-.1,0,792)" stroke-width="1" stroke-linecap="butt" stroke-miterlimit="10" stroke-linejoin="miter" fill="none" stroke="#000000" d="M4660.3 294V-191.398L5121.9-41.3984 4945.6 201.301Z"/>
<path transform="matrix(.1,0,0,-.1,0,792)" d="M1319.7 294 1034.4 201.301 858.102-41.3984 1319.7-191.398Z" fill="#808000"/>
<path transform="matrix(.1,0,0,-.1,0,792)" stroke-width="1" stroke-linecap="butt" stroke-miterlimit="10" stroke-linejoin="miter" fill="none" stroke="#000000" d="M1319.7 294 1034.4 201.301 858.102-41.3984 1319.7-191.398Z"/>
<path transform="matrix(.1,0,0,-.1,0,792)" d="M111.102 201.301-174.199 294V-191.398L287.5-41.3984Z" fill="#808000"/>
<path transform="matrix(.1,0,0,-.1,0,792)" stroke-width="1" stroke-linecap="butt" stroke-miterlimit="10" stroke-linejoin="miter" fill="none" stroke="#000000" d="M111.102 201.301-174.199 294V-191.398L287.5-41.3984Z"/>
<path transform="matrix(.1,0,0,-.1,0,792)" d="M5868.9 201.301 5692.6-41.3984 6154.2-191.398V294Z" fill="#808000"/>
<path transform="matrix(.1,0,0,-.1,0,792)" stroke-width="1" stroke-linecap="butt" stroke-miterlimit="10" stroke-linejoin="miter" fill="none" stroke="#000000" d="M5868.9 201.301 5692.6-41.3984 6154.2-191.398V294Z"/>
<path transform="matrix(.1,0,0,-.1,0,792)" d="M572.801 51.3008 287.5-41.3984 572.801-434.102 858.102-41.3984Z" fill="#808000"/>
<path transform="matrix(.1,0,0,-.1,0,792)" stroke-width="1" stroke-linecap="butt" stroke-miterlimit="10" stroke-linejoin="miter" fill="none" stroke="#000000" d="M572.801 51.3008 287.5-41.3984 572.801-434.102 858.102-41.3984Z"/>
<path transform="matrix(.1,0,0,-.1,0,792)" d="M5407.3 51.3008 5121.9-41.3984 5407.3-434.102 5692.6-41.3984Z" fill="#808000"/>
<path transform="matrix(.1,0,0,-.1,0,792)" stroke-width="1" stroke-linecap="butt" stroke-miterlimit="10" stroke-linejoin="miter" fill="none" stroke="#000000" d="M5407.3 51.3008 5121.9-41.3984 5407.3-434.102 5692.6-41.3984Z"/>
</svg>
