<svg xmlns="http://www.w3.org/2000/svg" xmlns:xlink="http://www.w3.org/1999/xlink" xmlns:inkscape="http://www.inkscape.org/namespaces/inkscape" version="1.1" width="612" height="792" viewBox="0 0 612 792">
<path transform="matrix(.1,0,0,-.1,0,792)" d="M2135 5050V3650H2835V4350H3535V5050" fill="#824df2"/>
<path transform="matrix(.1,0,0,-.1,0,792)" stroke-width="15" stroke-linecap="butt" stroke-miterlimit="10" stroke-linejoin="miter" fill="none" stroke="#000000" d="M2135 5050V3650H2835V4350H3535V5050Z"/>
<path transform="matrix(.1,0,0,-.1,0,792)" d="M2835 3650H3535V4350H2835Z" fill="#dbb296"/>
<path transform="matrix(.1,0,0,-.1,0,792)" stroke-width="15" stroke-linecap="butt" stroke-miterlimit="10" stroke-linejoin="miter" fill="none" stroke="#000000" d="M2835 3650H3535V4350H2835Z"/>
<path transform="matrix(.1,0,0,-.1,0,792)" d="M2835 3650V2950H4235V4350H3535V3650" fill="#b514d4"/>
<path transform="matrix(.1,0,0,-.1,0,792)" stroke-width="15" stroke-linecap="butt" stroke-miterlimit="10" stroke-linejoin="miter" fill="none" stroke="#000000" d="M2835 3650V2950H4235V4350H3535V3650Z"/>
<path transform="matrix(.1,0,0,-.1,0,792)" d="M2135 2950H2835V3650H2135Z" fill="#1729a8"/>
<path transform="matrix(.1,0,0,-.1,0,792)" stroke-width="15" stroke-linecap="butt" stroke-miterlimit="10" stroke-linejoin="miter" fill="none" stroke="#000000" d="M2135 2950H2835V3650H2135Z"/>
<path transform="matrix(.1,0,0,-.1,0,792)" d="M3535 4350H4235V5050H3535Z" fill="#59ba7d"/>
<path transform="matrix(.1,0,0,-.1,0,792)" stroke-width="15" stroke-linecap="butt" stroke-miterlimit="10" stroke-linejoin="miter" fill="none" stroke="#000000" d="M3535 4350H4235V5050H3535Z"/>
<path transform="matrix(.1,0,0,-.1,0,792)" d="M3535 5050V5750H2835V6450H2135V5050" fill="#0d0fb5"/>
<path transform="matrix(.1,0,0,-.1,0,792)" stroke-width="15" stroke-linecap="butt" stroke-miterlimit="10" stroke-linejoin="miter" fill="none" stroke="#000000" d="M3535 5050V5750H2835V6450H2135V5050Z"/>
<path transform="matrix(.1,0,0,-.1,0,792)" d="M3535 5050H4235V5750H3535Z" fill="#ba690d"/>
<path transform="matrix(.1,0,0,-.1,0,792)" stroke-width="15" stroke-linecap="butt" stroke-miterlimit="10" stroke-linejoin="miter" fill="none" stroke="#000000" d="M3535 5050H4235V5750H3535Z"/>
<path transform="matrix(.1,0,0,-.1,0,792)" d="M1435 3650H2135V5050H1435Z" fill="#ebc7f5"/>
<path transform="matrix(.1,0,0,-.1,0,792)" stroke-width="15" stroke-linecap="butt" stroke-miterlimit="10" stroke-linejoin="miter" fill="none" stroke="#000000" d="M1435 3650H2135V5050H1435Z"/>
<path transform="matrix(.1,0,0,-.1,0,792)" d="M1435 5050H2135V6450H1435Z" fill="#61de91"/>
<path transform="matrix(.1,0,0,-.1,0,792)" stroke-width="15" stroke-linecap="butt" stroke-miterlimit="10" stroke-linejoin="miter" fill="none" stroke="#000000" d="M1435 5050H2135V6450H1435Z"/>
<path transform="matrix(.1,0,0,-.1,0,792)" d="M1435 2950H2135V3650H1435Z" fill="#57c933"/>
<path transform="matrix(.1,0,0,-.1,0,792)" stroke-width="15" stroke-linecap="butt" stroke-miterlimit="10" stroke-linejoin="miter" fill="none" stroke="#000000" d="M1435 2950H2135V3650H1435Z"/>
<path transform="matrix(.1,0,0,-.1,0,792)" d="M2135 2250H2835V2950H2135Z" fill="#f5b0f8"/>
<path transform="matrix(.1,0,0,-.1,0,792)" stroke-width="15" stroke-linecap="butt" stroke-miterlimit="10" stroke-linejoin="miter" fill="none" stroke="#000000" d="M2135 2250H2835V2950H2135Z"/>
<path transform="matrix(.1,0,0,-.1,0,792)" d="M1435 2250H2135V2950H1435Z" fill="#a13dcc"/>
<path transform="matrix(.1,0,0,-.1,0,792)" stroke-width="15" stroke-linecap="butt" stroke-miterlimit="10" stroke-linejoin="miter" fill="none" stroke="#000000" d="M1435 2250H2135V2950H1435Z"/>
<path transform="matrix(.1,0,0,-.1,0,792)" d="M2835 2250H4235V2950H2835Z" fill="#3359ab"/>
<path transform="matrix(.1,0,0,-.1,0,792)" stroke-width="15" stroke-linecap="butt" stroke-miterlimit="10" stroke-linejoin="miter" fill="none" stroke="#000000" d="M2835 2250H4235V2950H2835Z"/>
<path transform="matrix(.1,0,0,-.1,0,792)" d="M2835 5750H3535V6450H2835Z" fill="#756bc9"/>
<path transform="matrix(.1,0,0,-.1,0,792)" stroke-width="15" stroke-linecap="butt" stroke-miterlimit="10" stroke-linejoin="miter" fill="none" stroke="#000000" d="M2835 5750H3535V6450H2835Z"/>
<path transform="matrix(.1,0,0,-.1,0,792)" d="M3535 5750H4235V7150H2835V6450H3535" fill="#30c9ad"/>
<path transform="matrix(.1,0,0,-.1,0,792)" stroke-width="15" stroke-linecap="butt" stroke-miterlimit="10" stroke-linejoin="miter" fill="none" stroke="#000000" d="M3535 5750H4235V7150H2835V6450H3535Z"/>
<path transform="matrix(.1,0,0,-.1,0,792)" d="M4235 5050H5635V5750H4235Z" fill="#7a4aab"/>
<path transform="matrix(.1,0,0,-.1,0,792)" stroke-width="15" stroke-linecap="butt" stroke-miterlimit="10" stroke-linejoin="miter" fill="none" stroke="#000000" d="M4235 5050H5635V5750H4235Z"/>
<path transform="matrix(.1,0,0,-.1,0,792)" d="M4235 4350H5635V5050H4235Z" fill="#7a4aab"/>
<path transform="matrix(.1,0,0,-.1,0,792)" stroke-width="15" stroke-linecap="butt" stroke-miterlimit="10" stroke-linejoin="miter" fill="none" stroke="#000000" d="M4235 4350H5635V5050H4235Z"/>
<path transform="matrix(.1,0,0,-.1,0,792)" d="M4235 2950H5635V4350H4235Z" fill="#2e824f"/>
<path transform="matrix(.1,0,0,-.1,0,792)" stroke-width="15" stroke-linecap="butt" stroke-miterlimit="10" stroke-linejoin="miter" fill="none" stroke="#000000" d="M4235 2950H5635V4350H4235Z"/>
<path transform="matrix(.1,0,0,-.1,0,792)" d="M4235 2250H5635V2950H4235Z" fill="#4f1724"/>
<path transform="matrix(.1,0,0,-.1,0,792)" stroke-width="15" stroke-linecap="butt" stroke-miterlimit="10" stroke-linejoin="miter" fill="none" stroke="#000000" d="M4235 2250H5635V2950H4235Z"/>
<path transform="matrix(.1,0,0,-.1,0,792)" d="M4235 5750H5635V7150H4235Z" fill="#2e824f"/>
<path transform="matrix(.1,0,0,-.1,0,792)" stroke-width="15" stroke-linecap="butt" stroke-miterlimit="10" stroke-linejoin="miter" fill="none" stroke="#000000" d="M4235 5750H5635V7150H4235Z"/>
<path transform="matrix(.1,0,0,-.1,0,792)" d="M2135 1550H2835V2250H2135Z" fill="#5cc9de"/>
<path transform="matrix(.1,0,0,-.1,0,792)" stroke-width="15" stroke-linecap="butt" stroke-miterlimit="10" stroke-linejoin="miter" fill="none" stroke="#000000" d="M2135 1550H2835V2250H2135Z"/>
<path transform="matrix(.1,0,0,-.1,0,792)" d="M1435 1550H2135V2250H1435Z" fill="#8cc717"/>
<path transform="matrix(.1,0,0,-.1,0,792)" stroke-width="15" stroke-linecap="butt" stroke-miterlimit="10" stroke-linejoin="miter" fill="none" stroke="#000000" d="M1435 1550H2135V2250H1435Z"/>
<path transform="matrix(.1,0,0,-.1,0,792)" d="M2835 1550H4235V2250H2835Z" fill="#732957"/>
<path transform="matrix(.1,0,0,-.1,0,792)" stroke-width="15" stroke-linecap="butt" stroke-miterlimit="10" stroke-linejoin="miter" fill="none" stroke="#000000" d="M2835 1550H4235V2250H2835Z"/>
<path transform="matrix(.1,0,0,-.1,0,792)" d="M4235 1550H5635V2250H4235Z" fill="#4f1724"/>
<path transform="matrix(.1,0,0,-.1,0,792)" stroke-width="15" stroke-linecap="butt" stroke-miterlimit="10" stroke-linejoin="miter" fill="none" stroke="#000000" d="M4235 1550H5635V2250H4235Z"/>
<path transform="matrix(.1,0,0,-.1,0,792)" d="M735 3650H1435V5050H735Z" fill="#61de91"/>
<path transform="matrix(.1,0,0,-.1,0,792)" stroke-width="15" stroke-linecap="butt" stroke-miterlimit="10" stroke-linejoin="miter" fill="none" stroke="#000000" d="M735 3650H1435V5050H735Z"/>
<path transform="matrix(.1,0,0,-.1,0,792)" d="M735 5050H1435V6450H735Z" fill="#ebc7f5"/>
<path transform="matrix(.1,0,0,-.1,0,792)" stroke-width="15" stroke-linecap="butt" stroke-miterlimit="10" stroke-linejoin="miter" fill="none" stroke="#000000" d="M735 5050H1435V6450H735Z"/>
<path transform="matrix(.1,0,0,-.1,0,792)" d="M735 2950H1435V3650H735Z" fill="#2b17cc"/>
<path transform="matrix(.1,0,0,-.1,0,792)" stroke-width="15" stroke-linecap="butt" stroke-miterlimit="10" stroke-linejoin="miter" fill="none" stroke="#000000" d="M735 2950H1435V3650H735Z"/>
<path transform="matrix(.1,0,0,-.1,0,792)" d="M735 2250H1435V2950H735Z" fill="#8cc717"/>
<path transform="matrix(.1,0,0,-.1,0,792)" stroke-width="15" stroke-linecap="butt" stroke-miterlimit="10" stroke-linejoin="miter" fill="none" stroke="#000000" d="M735 2250H1435V2950H735Z"/>
<path transform="matrix(.1,0,0,-.1,0,792)" d="M735 1550H1435V2250H735Z" fill="#a13dcc"/>
<path transform="matrix(.1,0,0,-.1,0,792)" stroke-width="15" stroke-linecap="butt" stroke-miterlimit="10" stroke-linejoin="miter" fill="none" stroke="#000000" d="M735 1550H1435V2250H735Z"/>
<path transform="matrix(.1,0,0,-.1,0,792)" d="M2135 6450H2835V7150H2135Z" fill="#f2cff5"/>
<path transform="matrix(.1,0,0,-.1,0,792)" stroke-width="15" stroke-linecap="butt" stroke-miterlimit="10" stroke-linejoin="miter" fill="none" stroke="#000000" d="M2135 6450H2835V7150H2135Z"/>
<path transform="matrix(.1,0,0,-.1,0,792)" d="M1435 6450H2135V7150H1435Z" fill="#2b17cc"/>
<path transform="matrix(.1,0,0,-.1,0,792)" stroke-width="15" stroke-linecap="butt" stroke-miterlimit="10" stroke-linejoin="miter" fill="none" stroke="#000000" d="M1435 6450H2135V7150H1435Z"/>
<path transform="matrix(.1,0,0,-.1,0,792)" d="M735 6450H1435V7150H735Z" fill="#57c933"/>
<path transform="matrix(.1,0,0,-.1,0,792)" stroke-width="15" stroke-linecap="butt" stroke-miterlimit="10" stroke-linejoin="miter" fill="none" stroke="#000000" d="M735 6450H1435V7150H735Z"/>
<path transform="matrix(.1,0,0,-.1,0,792)" d="M1435 850H2135V1550H1435Z" fill="#2b17cc"/>
<path transform="matrix(.1,0,0,-.1,0,792)" stroke-width="15" stroke-linecap="butt" stroke-miterlimit="10" stroke-linejoin="miter" fill="none" stroke="#000000" d="M1435 850H2135V1550H1435Z"/>
<path transform="matrix(.1,0,0,-.1,0,792)" d="M735 850H1435V1550H735Z" fill="#57c933"/>
<path transform="matrix(.1,0,0,-.1,0,792)" stroke-width="15" stroke-linecap="butt" stroke-miterlimit="10" stroke-linejoin="miter" fill="none" stroke="#000000" d="M735 850H1435V1550H735Z"/>
<path transform="matrix(.1,0,0,-.1,0,792)" d="M2135 850H2835V1550H2135Z" fill="#f2cff5"/>
<path transform="matrix(.1,0,0,-.1,0,792)" stroke-width="15" stroke-linecap="butt" stroke-miterlimit="10" stroke-linejoin="miter" fill="none" stroke="#000000" d="M2135 850H2835V1550H2135Z"/>
<path transform="matrix(.1,0,0,-.1,0,792)" d="M2835 1550V850H3535V150H4235V1550" fill="#30c9ad"/>
<path transform="matrix(.1,0,0,-.1,0,792)" stroke-width="15" stroke-linecap="butt" stroke-miterlimit="10" stroke-linejoin="miter" fill="none" stroke="#000000" d="M2835 1550V850H3535V150H4235V1550Z"/>
<path transform="matrix(.1,0,0,-.1,0,792)" d="M4235 150H5635V1550H4235Z" fill="#2e824f"/>
<path transform="matrix(.1,0,0,-.1,0,792)" stroke-width="15" stroke-linecap="butt" stroke-miterlimit="10" stroke-linejoin="miter" fill="none" stroke="#000000" d="M4235 150H5635V1550H4235Z"/>
<path transform="matrix(.1,0,0,-.1,0,792)" d="M2835 7150H4235V7850H2835Z" fill="#732957"/>
<path transform="matrix(.1,0,0,-.1,0,792)" stroke-width="15" stroke-linecap="butt" stroke-miterlimit="10" stroke-linejoin="miter" fill="none" stroke="#000000" d="M2835 7150H4235V7850H2835Z"/>
<path transform="matrix(.1,0,0,-.1,0,792)" d="M4235 7150H5635V7850H4235Z" fill="#4f1724"/>
<path transform="matrix(.1,0,0,-.1,0,792)" stroke-width="15" stroke-linecap="butt" stroke-miterlimit="10" stroke-linejoin="miter" fill="none" stroke="#000000" d="M4235 7150H5635V7850H4235Z"/>
<path transform="matrix(.1,0,0,-.1,0,792)" d="M2135 7150H2835V7850H2135Z" fill="#5cc9de"/>
<path transform="matrix(.1,0,0,-.1,0,792)" stroke-width="15" stroke-linecap="butt" stroke-miterlimit="10" stroke-linejoin="miter" fill="none" stroke="#000000" d="M2135 7150H2835V7850H2135Z"/>
<path transform="matrix(.1,0,0,-.1,0,792)" d="M1435 7150H2135V7850H1435Z" fill="#8cc717"/>
<path transform="matrix(.1,0,0,-.1,0,792)" stroke-width="15" stroke-linecap="butt" stroke-miterlimit="10" stroke-linejoin="miter" fill="none" stroke="#000000" d="M1435 7150H2135V7850H1435Z"/>
<path transform="matrix(.1,0,0,-.1,0,792)" d="M735 7150H1435V7850H735Z" fill="#a13dcc"/>
<path transform="matrix(.1,0,0,-.1,0,792)" stroke-width="15" stroke-linecap="butt" stroke-miterlimit="10" stroke-linejoin="miter" fill="none" stroke="#000000" d="M735 7150H1435V7850H735Z"/>
<path transform="matrix(.1,0,0,-.1,0,792)" d="M35 6450H735V7150H35Z" fill="#1729a8"/>
<path transform="matrix(.1,0,0,-.1,0,792)" stroke-width="15" stroke-linecap="butt" stroke-miterlimit="10" stroke-linejoin="miter" fill="none" stroke="#000000" d="M35 6450H735V7150H35Z"/>
<path transform="matrix(.1,0,0,-.1,0,792)" d="M35 7150H735V7850H35Z" fill="#f5b0f8"/>
<path transform="matrix(.1,0,0,-.1,0,792)" stroke-width="15" stroke-linecap="butt" stroke-miterlimit="10" stroke-linejoin="miter" fill="none" stroke="#000000" d="M35 7150H735V7850H35Z"/>
<path transform="matrix(.1,0,0,-.1,0,792)" d="M735 6450H35V5750H-665V5050H735" fill="#824df2"/>
<path transform="matrix(.1,0,0,-.1,0,792)" stroke-width="15" stroke-linecap="butt" stroke-miterlimit="10" stroke-linejoin="miter" fill="none" stroke="#000000" d="M735 6450H35V5750H-665V5050H735Z"/>
<path transform="matrix(.1,0,0,-.1,0,792)" d="M735 5050H-665V4350H35V3650H735" fill="#0d0fb5"/>
<path transform="matrix(.1,0,0,-.1,0,792)" stroke-width="15" stroke-linecap="butt" stroke-miterlimit="10" stroke-linejoin="miter" fill="none" stroke="#000000" d="M735 5050H-665V4350H35V3650H735Z"/>
<path transform="matrix(.1,0,0,-.1,0,792)" d="M35 2950H735V3650H35Z" fill="#f2cff5"/>
<path transform="matrix(.1,0,0,-.1,0,792)" stroke-width="15" stroke-linecap="butt" stroke-miterlimit="10" stroke-linejoin="miter" fill="none" stroke="#000000" d="M35 2950H735V3650H35Z"/>
<path transform="matrix(.1,0,0,-.1,0,792)" d="M35 2250H735V2950H35Z" fill="#5cc9de"/>
<path transform="matrix(.1,0,0,-.1,0,792)" stroke-width="15" stroke-linecap="butt" stroke-miterlimit="10" stroke-linejoin="miter" fill="none" stroke="#000000" d="M35 2250H735V2950H35Z"/>
<path transform="matrix(.1,0,0,-.1,0,792)" d="M35 1550H735V2250H35Z" fill="#f5b0f8"/>
<path transform="matrix(.1,0,0,-.1,0,792)" stroke-width="15" stroke-linecap="butt" stroke-miterlimit="10" stroke-linejoin="miter" fill="none" stroke="#000000" d="M35 1550H735V2250H35Z"/>
<path transform="matrix(.1,0,0,-.1,0,792)" d="M35 850H735V1550H35Z" fill="#1729a8"/>
<path transform="matrix(.1,0,0,-.1,0,792)" stroke-width="15" stroke-linecap="butt" stroke-miterlimit="10" stroke-linejoin="miter" fill="none" stroke="#000000" d="M35 850H735V1550H35Z"/>
<path transform="matrix(.1,0,0,-.1,0,792)" d="M735 0H1435V850H735Z" fill="#ebc7f5"/>
<path transform="matrix(.1,0,0,-.1,0,792)" stroke-width="15" stroke-linecap="butt" stroke-miterlimit="10" stroke-linejoin="miter" fill="none" stroke="#000000" d="M735-8.49609H1435V849.9999H735Z"/>
<path transform="matrix(.1,0,0,-.1,0,792)" d="M735 850H35V150H-665V-550H735" fill="#824df2"/>
<path transform="matrix(.1,0,0,-.1,0,792)" stroke-width="15" stroke-linecap="butt" stroke-miterlimit="10" stroke-linejoin="miter" fill="none" stroke="#000000" d="M735 850H35V150H-665V-550H735Z"/>
<path transform="matrix(.1,0,0,-.1,0,792)" d="M1435 0H2135V850H1435Z" fill="#61de91"/>
<path transform="matrix(.1,0,0,-.1,0,792)" stroke-width="15" stroke-linecap="butt" stroke-miterlimit="10" stroke-linejoin="miter" fill="none" stroke="#000000" d="M1435-8.49609H2135V849.9999H1435Z"/>
<path transform="matrix(.1,0,0,-.1,0,792)" d="M2135 850V-550H3535V150H2835V850" fill="#0d0fb5"/>
<path transform="matrix(.1,0,0,-.1,0,792)" stroke-width="15" stroke-linecap="butt" stroke-miterlimit="10" stroke-linejoin="miter" fill="none" stroke="#000000" d="M2135 850V-550H3535V150H2835V850Z"/>
<path transform="matrix(.1,0,0,-.1,0,792)" d="M2835 150H3535V850H2835Z" fill="#756bc9"/>
<path transform="matrix(.1,0,0,-.1,0,792)" stroke-width="15" stroke-linecap="butt" stroke-miterlimit="10" stroke-linejoin="miter" fill="none" stroke="#000000" d="M2835 150H3535V850H2835Z"/>
<path transform="matrix(.1,0,0,-.1,0,792)" d="M2835 7850H4235V8550H2835Z" fill="#3359ab"/>
<path transform="matrix(.1,0,0,-.1,0,792)" stroke-width="15" stroke-linecap="butt" stroke-miterlimit="10" stroke-linejoin="miter" fill="none" stroke="#000000" d="M2835 7850H4235V8550H2835Z"/>
<path transform="matrix(.1,0,0,-.1,0,792)" d="M4235 7850H5635V8550H4235Z" fill="#4f1724"/>
<path transform="matrix(.1,0,0,-.1,0,792)" stroke-width="15" stroke-linecap="butt" stroke-miterlimit="10" stroke-linejoin="miter" fill="none" stroke="#000000" d="M4235 7850H5635V8550H4235Z"/>
<path transform="matrix(.1,0,0,-.1,0,792)" d="M2135 7850H2835V8550H2135Z" fill="#f5b0f8"/>
<path transform="matrix(.1,0,0,-.1,0,792)" stroke-width="15" stroke-linecap="butt" stroke-miterlimit="10" stroke-linejoin="miter" fill="none" stroke="#000000" d="M2135 7850H2835V8550H2135Z"/>
<path transform="matrix(.1,0,0,-.1,0,792)" d="M1435 7850H2135V8550H1435Z" fill="#a13dcc"/>
<path transform="matrix(.1,0,0,-.1,0,792)" stroke-width="15" stroke-linecap="butt" stroke-miterlimit="10" stroke-linejoin="miter" fill="none" stroke="#000000" d="M1435 7850H2135V8550H1435Z"/>
<path transform="matrix(.1,0,0,-.1,0,792)" d="M735 7850H1435V8550H735Z" fill="#8cc717"/>
<path transform="matrix(.1,0,0,-.1,0,792)" stroke-width="15" stroke-linecap="butt" stroke-miterlimit="10" stroke-linejoin="miter" fill="none" stroke="#000000" d="M735 7850H1435V8550H735Z"/>
<path transform="matrix(.1,0,0,-.1,0,792)" d="M35 7850H735V8550H35Z" fill="#5cc9de"/>
<path transform="matrix(.1,0,0,-.1,0,792)" stroke-width="15" stroke-linecap="butt" stroke-miterlimit="10" stroke-linejoin="miter" fill="none" stroke="#000000" d="M35 7850H735V8550H35Z"/>
<path transform="matrix(.1,0,0,-.1,0,792)" d="M5635 1550H7035V2250H5635Z" fill="#3359ab"/>
<path transform="matrix(.1,0,0,-.1,0,792)" stroke-width="15" stroke-linecap="butt" stroke-miterlimit="10" stroke-linejoin="miter" fill="none" stroke="#000000" d="M5635 1550H7035V2250H5635Z"/>
<path transform="matrix(.1,0,0,-.1,0,792)" d="M5635 1550V150H6335V850H7035V1550" fill="#b514d4"/>
<path transform="matrix(.1,0,0,-.1,0,792)" stroke-width="15" stroke-linecap="butt" stroke-miterlimit="10" stroke-linejoin="miter" fill="none" stroke="#000000" d="M5635 1550V150H6335V850H7035V1550Z"/>
<path transform="matrix(.1,0,0,-.1,0,792)" d="M5635 2250H7035V2950H5635Z" fill="#732957"/>
<path transform="matrix(.1,0,0,-.1,0,792)" stroke-width="15" stroke-linecap="butt" stroke-miterlimit="10" stroke-linejoin="miter" fill="none" stroke="#000000" d="M5635 2250H7035V2950H5635Z"/>
<path transform="matrix(.1,0,0,-.1,0,792)" d="M5635 2950H7035V3650H6335V4350H5635" fill="#30c9ad"/>
<path transform="matrix(.1,0,0,-.1,0,792)" stroke-width="15" stroke-linecap="butt" stroke-miterlimit="10" stroke-linejoin="miter" fill="none" stroke="#000000" d="M5635 2950H7035V3650H6335V4350H5635Z"/>
<path transform="matrix(.1,0,0,-.1,0,792)" d="M5635 4350H6335V5050H5635Z" fill="#ba690d"/>
<path transform="matrix(.1,0,0,-.1,0,792)" stroke-width="15" stroke-linecap="butt" stroke-miterlimit="10" stroke-linejoin="miter" fill="none" stroke="#000000" d="M5635 4350H6335V5050H5635Z"/>
<path transform="matrix(.1,0,0,-.1,0,792)" d="M5635 5050H6335V5750H5635Z" fill="#59ba7d"/>
<path transform="matrix(.1,0,0,-.1,0,792)" stroke-width="15" stroke-linecap="butt" stroke-miterlimit="10" stroke-linejoin="miter" fill="none" stroke="#000000" d="M5635 5050H6335V5750H5635Z"/>
<path transform="matrix(.1,0,0,-.1,0,792)" d="M5635 5750H6335V6450H7035V7150H5635" fill="#b514d4"/>
<path transform="matrix(.1,0,0,-.1,0,792)" stroke-width="15" stroke-linecap="butt" stroke-miterlimit="10" stroke-linejoin="miter" fill="none" stroke="#000000" d="M5635 5750H6335V6450H7035V7150H5635Z"/>
<path transform="matrix(.1,0,0,-.1,0,792)" d="M5635 7150H7035V7850H5635Z" fill="#3359ab"/>
<path transform="matrix(.1,0,0,-.1,0,792)" stroke-width="15" stroke-linecap="butt" stroke-miterlimit="10" stroke-linejoin="miter" fill="none" stroke="#000000" d="M5635 7150H7035V7850H5635Z"/>
<path transform="matrix(.1,0,0,-.1,0,792)" d="M5635 7850H7035V8550H5635Z" fill="#732957"/>
<path transform="matrix(.1,0,0,-.1,0,792)" stroke-width="15" stroke-linecap="butt" stroke-miterlimit="10" stroke-linejoin="miter" fill="none" stroke="#000000" d="M5635 7850H7035V8550H5635Z"/>
<path transform="matrix(.1,0,0,-.1,0,792)" d="M0 7150H35V7850H0Z" fill="#3359ab"/>
<path transform="matrix(.1,0,0,-.1,0,792)" stroke-width="15" stroke-linecap="butt" stroke-miterlimit="10" stroke-linejoin="miter" fill="none" stroke="#000000" d="M-8.49609 7150H35.00001V7850H-8.49609Z"/>
<path transform="matrix(.1,0,0,-.1,0,792)" d="M0 7850H35V8550H0Z" fill="#732957"/>
<path transform="matrix(.1,0,0,-.1,0,792)" stroke-width="15" stroke-linecap="butt" stroke-miterlimit="10" stroke-linejoin="miter" fill="none" stroke="#000000" d="M-8.49609 7850H35.00001V8550H-8.49609Z"/>
<path transform="matrix(.1,0,0,-.1,0,792)" d="M35 7150H-1365V5750H-665V6450H35" fill="#b514d4"/>
<path transform="matrix(.1,0,0,-.1,0,792)" stroke-width="15" stroke-linecap="butt" stroke-miterlimit="10" stroke-linejoin="miter" fill="none" stroke="#000000" d="M35 7150H-1365V5750H-665V6450H35Z"/>
<path transform="matrix(.1,0,0,-.1,0,792)" d="M0 5750H35V6450H0Z" fill="#dbb296"/>
<path transform="matrix(.1,0,0,-.1,0,792)" stroke-width="15" stroke-linecap="butt" stroke-miterlimit="10" stroke-linejoin="miter" fill="none" stroke="#000000" d="M-8.49609 5750H35.00001V6450H-8.49609Z"/>
<path transform="matrix(.1,0,0,-.1,0,792)" d="M0 3650H35V4350H0Z" fill="#756bc9"/>
<path transform="matrix(.1,0,0,-.1,0,792)" stroke-width="15" stroke-linecap="butt" stroke-miterlimit="10" stroke-linejoin="miter" fill="none" stroke="#000000" d="M-8.49609 3650H35.00001V4350H-8.49609Z"/>
<path transform="matrix(.1,0,0,-.1,0,792)" d="M35 3650H-665V4350H-1365V2950H35" fill="#30c9ad"/>
<path transform="matrix(.1,0,0,-.1,0,792)" stroke-width="15" stroke-linecap="butt" stroke-miterlimit="10" stroke-linejoin="miter" fill="none" stroke="#000000" d="M35 3650H-665V4350H-1365V2950H35Z"/>
<path transform="matrix(.1,0,0,-.1,0,792)" d="M0 2250H35V2950H0Z" fill="#732957"/>
<path transform="matrix(.1,0,0,-.1,0,792)" stroke-width="15" stroke-linecap="butt" stroke-miterlimit="10" stroke-linejoin="miter" fill="none" stroke="#000000" d="M-8.49609 2250H35.00001V2950H-8.49609Z"/>
<path transform="matrix(.1,0,0,-.1,0,792)" d="M0 1550H35V2250H0Z" fill="#3359ab"/>
<path transform="matrix(.1,0,0,-.1,0,792)" stroke-width="15" stroke-linecap="butt" stroke-miterlimit="10" stroke-linejoin="miter" fill="none" stroke="#000000" d="M-8.49609 1550H35.00001V2250H-8.49609Z"/>
<path transform="matrix(.1,0,0,-.1,0,792)" d="M35 1550H-1365V150H-665V850H35" fill="#b514d4"/>
<path transform="matrix(.1,0,0,-.1,0,792)" stroke-width="15" stroke-linecap="butt" stroke-miterlimit="10" stroke-linejoin="miter" fill="none" stroke="#000000" d="M35 1550H-1365V150H-665V850H35Z"/>
<path transform="matrix(.1,0,0,-.1,0,792)" d="M0 150H35V850H0Z" fill="#dbb296"/>
<path transform="matrix(.1,0,0,-.1,0,792)" stroke-width="15" stroke-linecap="butt" stroke-miterlimit="10" stroke-linejoin="miter" fill="none" stroke="#000000" d="M-8.49609 150H35.00001V850H-8.49609Z"/>
<path transform="matrix(.1,0,0,-.1,0,792)" d="M3535 0H4235V150H3535Z" fill="#ba690d"/>
<path transform="matrix(.1,0,0,-.1,0,792)" stroke-width="15" stroke-linecap="butt" stroke-miterlimit="10" stroke-linejoin="miter" fill="none" stroke="#000000" d="M3535-8.49609H4235V149.99991H3535Z"/>
<path transform="matrix(.1,0,0,-.1,0,792)" d="M4235 0H5635V150H4235Z" fill="#7a4aab"/>
<path transform="matrix(.1,0,0,-.1,0,792)" stroke-width="15" stroke-linecap="butt" stroke-miterlimit="10" stroke-linejoin="miter" fill="none" stroke="#000000" d="M4235-8.49609H5635V149.99991H4235Z"/>
<path transform="matrix(.1,0,0,-.1,0,792)" d="M5635 0H6335V150H5635Z" fill="#59ba7d"/>
<path transform="matrix(.1,0,0,-.1,0,792)" stroke-width="15" stroke-linecap="butt" stroke-miterlimit="10" stroke-linejoin="miter" fill="none" stroke="#000000" d="M5635-8.49609H6335V149.99991H5635Z"/>
</svg>
