<svg xmlns="http://www.w3.org/2000/svg" xmlns:xlink="http://www.w3.org/1999/xlink" xmlns:inkscape="http://www.inkscape.org/namespaces/inkscape" version="1.1" width="612" height="792" viewBox="0 0 612 792">
<path transform="matrix(.1,0,0,-.1,0,792)" d="M2615 3850H3215V4150H2915V4450H2615" fill="#e63b00"/>
<path transform="matrix(.1,0,0,-.1,0,792)" stroke-width="10" stroke-linecap="butt" stroke-miterlimit="10" stroke-linejoin="miter" fill="none" stroke="#000000" d="M2615 3850H3215V4150H2915V4450H2615Z"/>
<path transform="matrix(.1,0,0,-.1,0,792)" d="M2915 4150H3215V3850H3515V4450H3215V4750H2615V4450H2915" fill="#4d9973"/>
<path transform="matrix(.1,0,0,-.1,0,792)" stroke-width="10" stroke-linecap="butt" stroke-miterlimit="10" stroke-linejoin="miter" fill="none" stroke="#000000" d="M2915 4150H3215V3850H3515V4450H3215V4750H2615V4450H2915Z"/>
<path transform="matrix(.1,0,0,-.1,0,792)" d="M3215 4450H3515V4750H3215Z" fill="#ff8f0f"/>
<path transform="matrix(.1,0,0,-.1,0,792)" stroke-width="10" stroke-linecap="butt" stroke-miterlimit="10" stroke-linejoin="miter" fill="none" stroke="#000000" d="M3215 4450H3515V4750H3215Z"/>
<path transform="matrix(.1,0,0,-.1,0,792)" d="M3215 3850V3550H2915V3250H2615V2950H3215V3250H3515V3850" fill="#4d9973"/>
<path transform="matrix(.1,0,0,-.1,0,792)" stroke-width="10" stroke-linecap="butt" stroke-miterlimit="10" stroke-linejoin="miter" fill="none" stroke="#000000" d="M3215 3850V3550H2915V3250H2615V2950H3215V3250H3515V3850Z"/>
<path transform="matrix(.1,0,0,-.1,0,792)" d="M3215 3850H2615V3250H2915V3550H3215" fill="#e63b00"/>
<path transform="matrix(.1,0,0,-.1,0,792)" stroke-width="10" stroke-linecap="butt" stroke-miterlimit="10" stroke-linejoin="miter" fill="none" stroke="#000000" d="M3215 3850H2615V3250H2915V3550H3215Z"/>
<path transform="matrix(.1,0,0,-.1,0,792)" d="M2615 4450H2315V4150H2015V3850H2615" fill="#e63b00"/>
<path transform="matrix(.1,0,0,-.1,0,792)" stroke-width="10" stroke-linecap="butt" stroke-miterlimit="10" stroke-linejoin="miter" fill="none" stroke="#000000" d="M2615 4450H2315V4150H2015V3850H2615Z"/>
<path transform="matrix(.1,0,0,-.1,0,792)" d="M2615 4450V4750H2015V4450H1715V3850H2015V4150H2315V4450" fill="#4d9973"/>
<path transform="matrix(.1,0,0,-.1,0,792)" stroke-width="10" stroke-linecap="butt" stroke-miterlimit="10" stroke-linejoin="miter" fill="none" stroke="#000000" d="M2615 4450V4750H2015V4450H1715V3850H2015V4150H2315V4450Z"/>
<path transform="matrix(.1,0,0,-.1,0,792)" d="M2615 3850H2015V3550H2315V3250H2615" fill="#e63b00"/>
<path transform="matrix(.1,0,0,-.1,0,792)" stroke-width="10" stroke-linecap="butt" stroke-miterlimit="10" stroke-linejoin="miter" fill="none" stroke="#000000" d="M2615 3850H2015V3550H2315V3250H2615Z"/>
<path transform="matrix(.1,0,0,-.1,0,792)" d="M3215 4750V5050H2915V5350H2615V4750" fill="#b21a00"/>
<path transform="matrix(.1,0,0,-.1,0,792)" stroke-width="10" stroke-linecap="butt" stroke-miterlimit="10" stroke-linejoin="miter" fill="none" stroke="#000000" d="M3215 4750V5050H2915V5350H2615V4750Z"/>
<path transform="matrix(.1,0,0,-.1,0,792)" d="M3215 4750H3515V5050L2915 5650H2615V5350H2915V5050H3215" fill="#ff8f0f"/>
<path transform="matrix(.1,0,0,-.1,0,792)" stroke-width="10" stroke-linecap="butt" stroke-miterlimit="10" stroke-linejoin="miter" fill="none" stroke="#000000" d="M3215 4750H3515V5050L2915 5650H2615V5350H2915V5050H3215Z"/>
<path transform="matrix(.1,0,0,-.1,0,792)" d="M2615 4750V5350H2315V5050H2015V4750" fill="#b21a00"/>
<path transform="matrix(.1,0,0,-.1,0,792)" stroke-width="10" stroke-linecap="butt" stroke-miterlimit="10" stroke-linejoin="miter" fill="none" stroke="#000000" d="M2615 4750V5350H2315V5050H2015V4750Z"/>
<path transform="matrix(.1,0,0,-.1,0,792)" d="M3515 3850H4115V4150H3815V4450H3515" fill="#b21a00"/>
<path transform="matrix(.1,0,0,-.1,0,792)" stroke-width="10" stroke-linecap="butt" stroke-miterlimit="10" stroke-linejoin="miter" fill="none" stroke="#000000" d="M3515 3850H4115V4150H3815V4450H3515Z"/>
<path transform="matrix(.1,0,0,-.1,0,792)" d="M3515 3850V3250H3815V3550H4115V3850" fill="#b21a00"/>
<path transform="matrix(.1,0,0,-.1,0,792)" stroke-width="10" stroke-linecap="butt" stroke-miterlimit="10" stroke-linejoin="miter" fill="none" stroke="#000000" d="M3515 3850V3250H3815V3550H4115V3850Z"/>
<path transform="matrix(.1,0,0,-.1,0,792)" d="M3515 4450H3815V4150H4115V3850H4415V4150L3815 4750H3515" fill="#ff8f0f"/>
<path transform="matrix(.1,0,0,-.1,0,792)" stroke-width="10" stroke-linecap="butt" stroke-miterlimit="10" stroke-linejoin="miter" fill="none" stroke="#000000" d="M3515 4450H3815V4150H4115V3850H4415V4150L3815 4750H3515Z"/>
<path transform="matrix(.1,0,0,-.1,0,792)" d="M3515 4750H3815L4415 4150V4750H4115V5050H3815V5350H3515V5650H2915L3515 5050" fill="#e63b00"/>
<path transform="matrix(.1,0,0,-.1,0,792)" stroke-width="10" stroke-linecap="butt" stroke-miterlimit="10" stroke-linejoin="miter" fill="none" stroke="#000000" d="M3515 4750H3815L4415 4150V4750H4115V5050H3815V5350H3515V5650H2915L3515 5050Z"/>
<path transform="matrix(.1,0,0,-.1,0,792)" d="M2315 5050V5350H2615V5650H2315L1715 5050V4750H2015V5050" fill="#ff8f0f"/>
<path transform="matrix(.1,0,0,-.1,0,792)" stroke-width="10" stroke-linecap="butt" stroke-miterlimit="10" stroke-linejoin="miter" fill="none" stroke="#000000" d="M2315 5050V5350H2615V5650H2315L1715 5050V4750H2015V5050Z"/>
<path transform="matrix(.1,0,0,-.1,0,792)" d="M2315 3550H2015V3850H1715V3250H2015V2950H2615V3250H2315" fill="#4d9973"/>
<path transform="matrix(.1,0,0,-.1,0,792)" stroke-width="10" stroke-linecap="butt" stroke-miterlimit="10" stroke-linejoin="miter" fill="none" stroke="#000000" d="M2315 3550H2015V3850H1715V3250H2015V2950H2615V3250H2315Z"/>
<path transform="matrix(.1,0,0,-.1,0,792)" d="M3215 2950H3515V3250H3215Z" fill="#ff8f0f"/>
<path transform="matrix(.1,0,0,-.1,0,792)" stroke-width="10" stroke-linecap="butt" stroke-miterlimit="10" stroke-linejoin="miter" fill="none" stroke="#000000" d="M3215 2950H3515V3250H3215Z"/>
<path transform="matrix(.1,0,0,-.1,0,792)" d="M3515 3250V2950H3815L4415 3550V3850H4115V3550H3815V3250" fill="#ff8f0f"/>
<path transform="matrix(.1,0,0,-.1,0,792)" stroke-width="10" stroke-linecap="butt" stroke-miterlimit="10" stroke-linejoin="miter" fill="none" stroke="#000000" d="M3515 3250V2950H3815L4415 3550V3850H4115V3550H3815V3250Z"/>
<path transform="matrix(.1,0,0,-.1,0,792)" d="M3515 5350H3815V5050H4115V4750H4415V5350H4115V5650H3515" fill="#4d9973"/>
<path transform="matrix(.1,0,0,-.1,0,792)" stroke-width="10" stroke-linecap="butt" stroke-miterlimit="10" stroke-linejoin="miter" fill="none" stroke="#000000" d="M3515 5350H3815V5050H4115V4750H4415V5350H4115V5650H3515Z"/>
<path transform="matrix(.1,0,0,-.1,0,792)" d="M2615 2950V2350H2915V2650H3215V2950" fill="#b21a00"/>
<path transform="matrix(.1,0,0,-.1,0,792)" stroke-width="10" stroke-linecap="butt" stroke-miterlimit="10" stroke-linejoin="miter" fill="none" stroke="#000000" d="M2615 2950V2350H2915V2650H3215V2950Z"/>
<path transform="matrix(.1,0,0,-.1,0,792)" d="M2615 2950H2015V2650H2315V2350H2615" fill="#b21a00"/>
<path transform="matrix(.1,0,0,-.1,0,792)" stroke-width="10" stroke-linecap="butt" stroke-miterlimit="10" stroke-linejoin="miter" fill="none" stroke="#000000" d="M2615 2950H2015V2650H2315V2350H2615Z"/>
<path transform="matrix(.1,0,0,-.1,0,792)" d="M3215 2950V2650H2915V2350H2615V2050H2915L3515 2650V2950" fill="#ff8f0f"/>
<path transform="matrix(.1,0,0,-.1,0,792)" stroke-width="10" stroke-linecap="butt" stroke-miterlimit="10" stroke-linejoin="miter" fill="none" stroke="#000000" d="M3215 2950V2650H2915V2350H2615V2050H2915L3515 2650V2950Z"/>
<path transform="matrix(.1,0,0,-.1,0,792)" d="M3515 2950V2650L2915 2050H3515V2350H3815V2650H4115V2950H4415V3550L3815 2950" fill="#e63b00"/>
<path transform="matrix(.1,0,0,-.1,0,792)" stroke-width="10" stroke-linecap="butt" stroke-miterlimit="10" stroke-linejoin="miter" fill="none" stroke="#000000" d="M3515 2950V2650L2915 2050H3515V2350H3815V2650H4115V2950H4415V3550L3815 2950Z"/>
<path transform="matrix(.1,0,0,-.1,0,792)" d="M1715 4450H2015V4750H1715Z" fill="#ff8f0f"/>
<path transform="matrix(.1,0,0,-.1,0,792)" stroke-width="10" stroke-linecap="butt" stroke-miterlimit="10" stroke-linejoin="miter" fill="none" stroke="#000000" d="M1715 4450H2015V4750H1715Z"/>
<path transform="matrix(.1,0,0,-.1,0,792)" d="M1715 2950H2015V3250H1715Z" fill="#ff8f0f"/>
<path transform="matrix(.1,0,0,-.1,0,792)" stroke-width="10" stroke-linecap="butt" stroke-miterlimit="10" stroke-linejoin="miter" fill="none" stroke="#000000" d="M1715 2950H2015V3250H1715Z"/>
<path transform="matrix(.1,0,0,-.1,0,792)" d="M2015 2950H1715V2650L2315 2050H2615V2350H2315V2650H2015" fill="#ff8f0f"/>
<path transform="matrix(.1,0,0,-.1,0,792)" stroke-width="10" stroke-linecap="butt" stroke-miterlimit="10" stroke-linejoin="miter" fill="none" stroke="#000000" d="M2015 2950H1715V2650L2315 2050H2615V2350H2315V2650H2015Z"/>
<path transform="matrix(.1,0,0,-.1,0,792)" d="M3515 5650V5950H3815V6250H4115V6550H4415V7150L3815 6550H3515V6250L2915 5650" fill="#e63b00"/>
<path transform="matrix(.1,0,0,-.1,0,792)" stroke-width="10" stroke-linecap="butt" stroke-miterlimit="10" stroke-linejoin="miter" fill="none" stroke="#000000" d="M3515 5650V5950H3815V6250H4115V6550H4415V7150L3815 6550H3515V6250L2915 5650Z"/>
<path transform="matrix(.1,0,0,-.1,0,792)" d="M3515 5650H4115V5950H4415V6550H4115V6250H3815V5950H3515" fill="#4d9973"/>
<path transform="matrix(.1,0,0,-.1,0,792)" stroke-width="10" stroke-linecap="butt" stroke-miterlimit="10" stroke-linejoin="miter" fill="none" stroke="#000000" d="M3515 5650H4115V5950H4415V6550H4115V6250H3815V5950H3515Z"/>
<path transform="matrix(.1,0,0,-.1,0,792)" d="M2915 5650 3515 6250V6550H3215V6250H2915V5950H2615V5650" fill="#ff8f0f"/>
<path transform="matrix(.1,0,0,-.1,0,792)" stroke-width="10" stroke-linecap="butt" stroke-miterlimit="10" stroke-linejoin="miter" fill="none" stroke="#000000" d="M2915 5650 3515 6250V6550H3215V6250H2915V5950H2615V5650Z"/>
<path transform="matrix(.1,0,0,-.1,0,792)" d="M2615 5650V5950H2315V6250H2015V6550H1715V6250L2315 5650" fill="#ff8f0f"/>
<path transform="matrix(.1,0,0,-.1,0,792)" stroke-width="10" stroke-linecap="butt" stroke-miterlimit="10" stroke-linejoin="miter" fill="none" stroke="#000000" d="M2615 5650V5950H2315V6250H2015V6550H1715V6250L2315 5650Z"/>
<path transform="matrix(.1,0,0,-.1,0,792)" d="M2315 5650H1715V5350H1415V5050H1115V4750H815V4150L1415 4750H1715V5050" fill="#e63b00"/>
<path transform="matrix(.1,0,0,-.1,0,792)" stroke-width="10" stroke-linecap="butt" stroke-miterlimit="10" stroke-linejoin="miter" fill="none" stroke="#000000" d="M2315 5650H1715V5350H1415V5050H1115V4750H815V4150L1415 4750H1715V5050Z"/>
<path transform="matrix(.1,0,0,-.1,0,792)" d="M2315 5650 1715 6250V6550H1415L815 7150V6550H1115V6250H1415V5950H1715V5650" fill="#e63b00"/>
<path transform="matrix(.1,0,0,-.1,0,792)" stroke-width="10" stroke-linecap="butt" stroke-miterlimit="10" stroke-linejoin="miter" fill="none" stroke="#000000" d="M2315 5650 1715 6250V6550H1415L815 7150V6550H1115V6250H1415V5950H1715V5650Z"/>
<path transform="matrix(.1,0,0,-.1,0,792)" d="M3815 2650V2350H3515V2050H4115V2350H4415V2950H4115V2650" fill="#4d9973"/>
<path transform="matrix(.1,0,0,-.1,0,792)" stroke-width="10" stroke-linecap="butt" stroke-miterlimit="10" stroke-linejoin="miter" fill="none" stroke="#000000" d="M3815 2650V2350H3515V2050H4115V2350H4415V2950H4115V2650Z"/>
<path transform="matrix(.1,0,0,-.1,0,792)" d="M4115 5350H4415V5650H4115Z" fill="#ff8f0f"/>
<path transform="matrix(.1,0,0,-.1,0,792)" stroke-width="10" stroke-linecap="butt" stroke-miterlimit="10" stroke-linejoin="miter" fill="none" stroke="#000000" d="M4115 5350H4415V5650H4115Z"/>
<path transform="matrix(.1,0,0,-.1,0,792)" d="M4115 5650H4415V5950H4115Z" fill="#ff8f0f"/>
<path transform="matrix(.1,0,0,-.1,0,792)" stroke-width="10" stroke-linecap="butt" stroke-miterlimit="10" stroke-linejoin="miter" fill="none" stroke="#000000" d="M4115 5650H4415V5950H4115Z"/>
<path transform="matrix(.1,0,0,-.1,0,792)" d="M1715 5650H1115V5350H815V4750H1115V5050H1415V5350H1715" fill="#4d9973"/>
<path transform="matrix(.1,0,0,-.1,0,792)" stroke-width="10" stroke-linecap="butt" stroke-miterlimit="10" stroke-linejoin="miter" fill="none" stroke="#000000" d="M1715 5650H1115V5350H815V4750H1115V5050H1415V5350H1715Z"/>
<path transform="matrix(.1,0,0,-.1,0,792)" d="M1715 5650V5950H1415V6250H1115V6550H815V5950H1115V5650" fill="#4d9973"/>
<path transform="matrix(.1,0,0,-.1,0,792)" stroke-width="10" stroke-linecap="butt" stroke-miterlimit="10" stroke-linejoin="miter" fill="none" stroke="#000000" d="M1715 5650V5950H1415V6250H1115V6550H815V5950H1115V5650Z"/>
<path transform="matrix(.1,0,0,-.1,0,792)" d="M1715 4750H1415L815 4150V3850H1115V4150H1415V4450H1715" fill="#ff8f0f"/>
<path transform="matrix(.1,0,0,-.1,0,792)" stroke-width="10" stroke-linecap="butt" stroke-miterlimit="10" stroke-linejoin="miter" fill="none" stroke="#000000" d="M1715 4750H1415L815 4150V3850H1115V4150H1415V4450H1715Z"/>
<path transform="matrix(.1,0,0,-.1,0,792)" d="M1715 4450H1415V4150H1115V3850H1715" fill="#b21a00"/>
<path transform="matrix(.1,0,0,-.1,0,792)" stroke-width="10" stroke-linecap="butt" stroke-miterlimit="10" stroke-linejoin="miter" fill="none" stroke="#000000" d="M1715 4450H1415V4150H1115V3850H1715Z"/>
<path transform="matrix(.1,0,0,-.1,0,792)" d="M1715 3850H1115V3550H1415V3250H1715" fill="#b21a00"/>
<path transform="matrix(.1,0,0,-.1,0,792)" stroke-width="10" stroke-linecap="butt" stroke-miterlimit="10" stroke-linejoin="miter" fill="none" stroke="#000000" d="M1715 3850H1115V3550H1415V3250H1715Z"/>
<path transform="matrix(.1,0,0,-.1,0,792)" d="M1715 3250H1415V3550H1115V3850H815V3550L1415 2950H1715" fill="#ff8f0f"/>
<path transform="matrix(.1,0,0,-.1,0,792)" stroke-width="10" stroke-linecap="butt" stroke-miterlimit="10" stroke-linejoin="miter" fill="none" stroke="#000000" d="M1715 3250H1415V3550H1115V3850H815V3550L1415 2950H1715Z"/>
<path transform="matrix(.1,0,0,-.1,0,792)" d="M1715 2950H1415L815 3550V2950H1115V2650H1415V2350H1715V2050H2315L1715 2650" fill="#e63b00"/>
<path transform="matrix(.1,0,0,-.1,0,792)" stroke-width="10" stroke-linecap="butt" stroke-miterlimit="10" stroke-linejoin="miter" fill="none" stroke="#000000" d="M1715 2950H1415L815 3550V2950H1115V2650H1415V2350H1715V2050H2315L1715 2650Z"/>
<path transform="matrix(.1,0,0,-.1,0,792)" d="M2915 5950V6250H3215V6550H2615V5950" fill="#b21a00"/>
<path transform="matrix(.1,0,0,-.1,0,792)" stroke-width="10" stroke-linecap="butt" stroke-miterlimit="10" stroke-linejoin="miter" fill="none" stroke="#000000" d="M2915 5950V6250H3215V6550H2615V5950Z"/>
<path transform="matrix(.1,0,0,-.1,0,792)" d="M2615 5950V6550H2015V6250H2315V5950" fill="#b21a00"/>
<path transform="matrix(.1,0,0,-.1,0,792)" stroke-width="10" stroke-linecap="butt" stroke-miterlimit="10" stroke-linejoin="miter" fill="none" stroke="#000000" d="M2615 5950V6550H2015V6250H2315V5950Z"/>
<path transform="matrix(.1,0,0,-.1,0,792)" d="M1715 2350H1415V2650H1115V2950H815V2350H1115V2050H1715" fill="#4d9973"/>
<path transform="matrix(.1,0,0,-.1,0,792)" stroke-width="10" stroke-linecap="butt" stroke-miterlimit="10" stroke-linejoin="miter" fill="none" stroke="#000000" d="M1715 2350H1415V2650H1115V2950H815V2350H1115V2050H1715Z"/>
<path transform="matrix(.1,0,0,-.1,0,792)" d="M4115 2050H4415V2350H4115Z" fill="#ff8f0f"/>
<path transform="matrix(.1,0,0,-.1,0,792)" stroke-width="10" stroke-linecap="butt" stroke-miterlimit="10" stroke-linejoin="miter" fill="none" stroke="#000000" d="M4115 2050H4415V2350H4115Z"/>
<path transform="matrix(.1,0,0,-.1,0,792)" d="M4415 2350H4715V2050H5315V2350H5015V2650H4715V2950H4415" fill="#4d9973"/>
<path transform="matrix(.1,0,0,-.1,0,792)" stroke-width="10" stroke-linecap="butt" stroke-miterlimit="10" stroke-linejoin="miter" fill="none" stroke="#000000" d="M4415 2350H4715V2050H5315V2350H5015V2650H4715V2950H4415Z"/>
<path transform="matrix(.1,0,0,-.1,0,792)" d="M4415 2050H4715V2350H4415Z" fill="#ff8f0f"/>
<path transform="matrix(.1,0,0,-.1,0,792)" stroke-width="10" stroke-linecap="butt" stroke-miterlimit="10" stroke-linejoin="miter" fill="none" stroke="#000000" d="M4415 2050H4715V2350H4415Z"/>
<path transform="matrix(.1,0,0,-.1,0,792)" d="M4415 2950H4715V2650H5015V2350H5315V2050H5915L5315 2650V2950H5015L4415 3550" fill="#e63b00"/>
<path transform="matrix(.1,0,0,-.1,0,792)" stroke-width="10" stroke-linecap="butt" stroke-miterlimit="10" stroke-linejoin="miter" fill="none" stroke="#000000" d="M4415 2950H4715V2650H5015V2350H5315V2050H5915L5315 2650V2950H5015L4415 3550Z"/>
<path transform="matrix(.1,0,0,-.1,0,792)" d="M4415 3550 5015 2950H5315V3250H5015V3550H4715V3850H4415" fill="#ff8f0f"/>
<path transform="matrix(.1,0,0,-.1,0,792)" stroke-width="10" stroke-linecap="butt" stroke-miterlimit="10" stroke-linejoin="miter" fill="none" stroke="#000000" d="M4415 3550 5015 2950H5315V3250H5015V3550H4715V3850H4415Z"/>
<path transform="matrix(.1,0,0,-.1,0,792)" d="M4415 3850H4715V4150H5015V4450H5315V4750H5015L4415 4150" fill="#ff8f0f"/>
<path transform="matrix(.1,0,0,-.1,0,792)" stroke-width="10" stroke-linecap="butt" stroke-miterlimit="10" stroke-linejoin="miter" fill="none" stroke="#000000" d="M4415 3850H4715V4150H5015V4450H5315V4750H5015L4415 4150Z"/>
<path transform="matrix(.1,0,0,-.1,0,792)" d="M4415 4150 5015 4750H5315V5050L5915 5650H5315V5350H5015V5050H4715V4750H4415" fill="#e63b00"/>
<path transform="matrix(.1,0,0,-.1,0,792)" stroke-width="10" stroke-linecap="butt" stroke-miterlimit="10" stroke-linejoin="miter" fill="none" stroke="#000000" d="M4415 4150 5015 4750H5315V5050L5915 5650H5315V5350H5015V5050H4715V4750H4415Z"/>
<path transform="matrix(.1,0,0,-.1,0,792)" d="M4415 4750H4715V5050H5015V5350H5315V5650H4715V5350H4415" fill="#4d9973"/>
<path transform="matrix(.1,0,0,-.1,0,792)" stroke-width="10" stroke-linecap="butt" stroke-miterlimit="10" stroke-linejoin="miter" fill="none" stroke="#000000" d="M4415 4750H4715V5050H5015V5350H5315V5650H4715V5350H4415Z"/>
<path transform="matrix(.1,0,0,-.1,0,792)" d="M4415 5350H4715V5650H4415Z" fill="#ff8f0f"/>
<path transform="matrix(.1,0,0,-.1,0,792)" stroke-width="10" stroke-linecap="butt" stroke-miterlimit="10" stroke-linejoin="miter" fill="none" stroke="#000000" d="M4415 5350H4715V5650H4415Z"/>
<path transform="matrix(.1,0,0,-.1,0,792)" d="M4415 5650H4715V5950H4415Z" fill="#ff8f0f"/>
<path transform="matrix(.1,0,0,-.1,0,792)" stroke-width="10" stroke-linecap="butt" stroke-miterlimit="10" stroke-linejoin="miter" fill="none" stroke="#000000" d="M4415 5650H4715V5950H4415Z"/>
<path transform="matrix(.1,0,0,-.1,0,792)" d="M4415 5950H4715V5650H5315V5950H5015V6250H4715V6550H4415" fill="#4d9973"/>
<path transform="matrix(.1,0,0,-.1,0,792)" stroke-width="10" stroke-linecap="butt" stroke-miterlimit="10" stroke-linejoin="miter" fill="none" stroke="#000000" d="M4415 5950H4715V5650H5315V5950H5015V6250H4715V6550H4415Z"/>
<path transform="matrix(.1,0,0,-.1,0,792)" d="M1715 2050V1750H1415V1450H1115V1150H815V550L1415 1150H1715V1450L2315 2050" fill="#e63b00"/>
<path transform="matrix(.1,0,0,-.1,0,792)" stroke-width="10" stroke-linecap="butt" stroke-miterlimit="10" stroke-linejoin="miter" fill="none" stroke="#000000" d="M1715 2050V1750H1415V1450H1115V1150H815V550L1415 1150H1715V1450L2315 2050Z"/>
<path transform="matrix(.1,0,0,-.1,0,792)" d="M1715 2050H1115V1750H815V1150H1115V1450H1415V1750H1715" fill="#4d9973"/>
<path transform="matrix(.1,0,0,-.1,0,792)" stroke-width="10" stroke-linecap="butt" stroke-miterlimit="10" stroke-linejoin="miter" fill="none" stroke="#000000" d="M1715 2050H1115V1750H815V1150H1115V1450H1415V1750H1715Z"/>
<path transform="matrix(.1,0,0,-.1,0,792)" d="M2315 2050 1715 1450V1150H2015V1450H2315V1750H2615V2050" fill="#ff8f0f"/>
<path transform="matrix(.1,0,0,-.1,0,792)" stroke-width="10" stroke-linecap="butt" stroke-miterlimit="10" stroke-linejoin="miter" fill="none" stroke="#000000" d="M2315 2050 1715 1450V1150H2015V1450H2315V1750H2615V2050Z"/>
<path transform="matrix(.1,0,0,-.1,0,792)" d="M2615 2050V1750H2915V1450H3215V1150H3515V1450L2915 2050" fill="#ff8f0f"/>
<path transform="matrix(.1,0,0,-.1,0,792)" stroke-width="10" stroke-linecap="butt" stroke-miterlimit="10" stroke-linejoin="miter" fill="none" stroke="#000000" d="M2615 2050V1750H2915V1450H3215V1150H3515V1450L2915 2050Z"/>
<path transform="matrix(.1,0,0,-.1,0,792)" d="M2915 2050 3515 1450V1150H3815L4415 550V1150H4115V1450H3815V1750H3515V2050" fill="#e63b00"/>
<path transform="matrix(.1,0,0,-.1,0,792)" stroke-width="10" stroke-linecap="butt" stroke-miterlimit="10" stroke-linejoin="miter" fill="none" stroke="#000000" d="M2915 2050 3515 1450V1150H3815L4415 550V1150H4115V1450H3815V1750H3515V2050Z"/>
<path transform="matrix(.1,0,0,-.1,0,792)" d="M3515 2050V1750H3815V1450H4115V1150H4415V1750H4115V2050" fill="#4d9973"/>
<path transform="matrix(.1,0,0,-.1,0,792)" stroke-width="10" stroke-linecap="butt" stroke-miterlimit="10" stroke-linejoin="miter" fill="none" stroke="#000000" d="M3515 2050V1750H3815V1450H4115V1150H4415V1750H4115V2050Z"/>
<path transform="matrix(.1,0,0,-.1,0,792)" d="M4115 1750H4415V2050H4115Z" fill="#ff8f0f"/>
<path transform="matrix(.1,0,0,-.1,0,792)" stroke-width="10" stroke-linecap="butt" stroke-miterlimit="10" stroke-linejoin="miter" fill="none" stroke="#000000" d="M4115 1750H4415V2050H4115Z"/>
<path transform="matrix(.1,0,0,-.1,0,792)" d="M4415 1750H4715V2050H4415Z" fill="#ff8f0f"/>
<path transform="matrix(.1,0,0,-.1,0,792)" stroke-width="10" stroke-linecap="butt" stroke-miterlimit="10" stroke-linejoin="miter" fill="none" stroke="#000000" d="M4415 1750H4715V2050H4415Z"/>
<path transform="matrix(.1,0,0,-.1,0,792)" d="M4415 6550H4715V6250H5015V5950H5315V5650H5915L5315 6250V6550H5015L4415 7150" fill="#e63b00"/>
<path transform="matrix(.1,0,0,-.1,0,792)" stroke-width="10" stroke-linecap="butt" stroke-miterlimit="10" stroke-linejoin="miter" fill="none" stroke="#000000" d="M4415 6550H4715V6250H5015V5950H5315V5650H5915L5315 6250V6550H5015L4415 7150Z"/>
<path transform="matrix(.1,0,0,-.1,0,792)" d="M3815 6550 4415 7150V7450H4115V7150H3815V6850H3515V6550" fill="#ff8f0f"/>
<path transform="matrix(.1,0,0,-.1,0,792)" stroke-width="10" stroke-linecap="butt" stroke-miterlimit="10" stroke-linejoin="miter" fill="none" stroke="#000000" d="M3815 6550 4415 7150V7450H4115V7150H3815V6850H3515V6550Z"/>
<path transform="matrix(.1,0,0,-.1,0,792)" d="M3215 6550H3515V6850H3215Z" fill="#ff8f0f"/>
<path transform="matrix(.1,0,0,-.1,0,792)" stroke-width="10" stroke-linecap="butt" stroke-miterlimit="10" stroke-linejoin="miter" fill="none" stroke="#000000" d="M3215 6550H3515V6850H3215Z"/>
<path transform="matrix(.1,0,0,-.1,0,792)" d="M3215 6550V6850H3515V7450H3215V7150H2915V6850H2615V6550" fill="#4d9973"/>
<path transform="matrix(.1,0,0,-.1,0,792)" stroke-width="10" stroke-linecap="butt" stroke-miterlimit="10" stroke-linejoin="miter" fill="none" stroke="#000000" d="M3215 6550V6850H3515V7450H3215V7150H2915V6850H2615V6550Z"/>
<path transform="matrix(.1,0,0,-.1,0,792)" d="M2615 6550V6850H2315V7150H2015V7450H1715V6850H2015V6550" fill="#4d9973"/>
<path transform="matrix(.1,0,0,-.1,0,792)" stroke-width="10" stroke-linecap="butt" stroke-miterlimit="10" stroke-linejoin="miter" fill="none" stroke="#000000" d="M2615 6550V6850H2315V7150H2015V7450H1715V6850H2015V6550Z"/>
<path transform="matrix(.1,0,0,-.1,0,792)" d="M1715 6550H2015V6850H1715Z" fill="#ff8f0f"/>
<path transform="matrix(.1,0,0,-.1,0,792)" stroke-width="10" stroke-linecap="butt" stroke-miterlimit="10" stroke-linejoin="miter" fill="none" stroke="#000000" d="M1715 6550H2015V6850H1715Z"/>
<path transform="matrix(.1,0,0,-.1,0,792)" d="M1715 6550V6850H1415V7150H1115V7450H815V7150L1415 6550" fill="#ff8f0f"/>
<path transform="matrix(.1,0,0,-.1,0,792)" stroke-width="10" stroke-linecap="butt" stroke-miterlimit="10" stroke-linejoin="miter" fill="none" stroke="#000000" d="M1715 6550V6850H1415V7150H1115V7450H815V7150L1415 6550Z"/>
<path transform="matrix(.1,0,0,-.1,0,792)" d="M4715 2050V1750H4415V1150H4715V1450H5015V1750H5315V2050" fill="#4d9973"/>
<path transform="matrix(.1,0,0,-.1,0,792)" stroke-width="10" stroke-linecap="butt" stroke-miterlimit="10" stroke-linejoin="miter" fill="none" stroke="#000000" d="M4715 2050V1750H4415V1150H4715V1450H5015V1750H5315V2050Z"/>
<path transform="matrix(.1,0,0,-.1,0,792)" d="M4715 3550H5015V3250H5315V3850H4715" fill="#b21a00"/>
<path transform="matrix(.1,0,0,-.1,0,792)" stroke-width="10" stroke-linecap="butt" stroke-miterlimit="10" stroke-linejoin="miter" fill="none" stroke="#000000" d="M4715 3550H5015V3250H5315V3850H4715Z"/>
<path transform="matrix(.1,0,0,-.1,0,792)" d="M4715 3850H5315V4450H5015V4150H4715" fill="#b21a00"/>
<path transform="matrix(.1,0,0,-.1,0,792)" stroke-width="10" stroke-linecap="butt" stroke-miterlimit="10" stroke-linejoin="miter" fill="none" stroke="#000000" d="M4715 3850H5315V4450H5015V4150H4715Z"/>
<path transform="matrix(.1,0,0,-.1,0,792)" d="M2315 1750V1450H2015V1150H2615V1750" fill="#b21a00"/>
<path transform="matrix(.1,0,0,-.1,0,792)" stroke-width="10" stroke-linecap="butt" stroke-miterlimit="10" stroke-linejoin="miter" fill="none" stroke="#000000" d="M2315 1750V1450H2015V1150H2615V1750Z"/>
<path transform="matrix(.1,0,0,-.1,0,792)" d="M2615 1750V1150H3215V1450H2915V1750" fill="#b21a00"/>
<path transform="matrix(.1,0,0,-.1,0,792)" stroke-width="10" stroke-linecap="butt" stroke-miterlimit="10" stroke-linejoin="miter" fill="none" stroke="#000000" d="M2615 1750V1150H3215V1450H2915V1750Z"/>
<path transform="matrix(.1,0,0,-.1,0,792)" d="M815 5650H1115V5950H815Z" fill="#ff8f0f"/>
<path transform="matrix(.1,0,0,-.1,0,792)" stroke-width="10" stroke-linecap="butt" stroke-miterlimit="10" stroke-linejoin="miter" fill="none" stroke="#000000" d="M815 5650H1115V5950H815Z"/>
<path transform="matrix(.1,0,0,-.1,0,792)" d="M815 5350H1115V5650H815Z" fill="#ff8f0f"/>
<path transform="matrix(.1,0,0,-.1,0,792)" stroke-width="10" stroke-linecap="butt" stroke-miterlimit="10" stroke-linejoin="miter" fill="none" stroke="#000000" d="M815 5350H1115V5650H815Z"/>
<path transform="matrix(.1,0,0,-.1,0,792)" d="M815 2050H1115V2350H815Z" fill="#ff8f0f"/>
<path transform="matrix(.1,0,0,-.1,0,792)" stroke-width="10" stroke-linecap="butt" stroke-miterlimit="10" stroke-linejoin="miter" fill="none" stroke="#000000" d="M815 2050H1115V2350H815Z"/>
<path transform="matrix(.1,0,0,-.1,0,792)" d="M815 1750H1115V2050H815Z" fill="#ff8f0f"/>
<path transform="matrix(.1,0,0,-.1,0,792)" stroke-width="10" stroke-linecap="butt" stroke-miterlimit="10" stroke-linejoin="miter" fill="none" stroke="#000000" d="M815 1750H1115V2050H815Z"/>
<path transform="matrix(.1,0,0,-.1,0,792)" d="M3815 6850V7150H4115V7450H3515V6850" fill="#b21a00"/>
<path transform="matrix(.1,0,0,-.1,0,792)" stroke-width="10" stroke-linecap="butt" stroke-miterlimit="10" stroke-linejoin="miter" fill="none" stroke="#000000" d="M3815 6850V7150H4115V7450H3515V6850Z"/>
<path transform="matrix(.1,0,0,-.1,0,792)" d="M2915 6850V7150H3215V7450H2615V6850" fill="#e63b00"/>
<path transform="matrix(.1,0,0,-.1,0,792)" stroke-width="10" stroke-linecap="butt" stroke-miterlimit="10" stroke-linejoin="miter" fill="none" stroke="#000000" d="M2915 6850V7150H3215V7450H2615V6850Z"/>
<path transform="matrix(.1,0,0,-.1,0,792)" d="M2615 6850V7450H2015V7150H2315V6850" fill="#e63b00"/>
<path transform="matrix(.1,0,0,-.1,0,792)" stroke-width="10" stroke-linecap="butt" stroke-miterlimit="10" stroke-linejoin="miter" fill="none" stroke="#000000" d="M2615 6850V7450H2015V7150H2315V6850Z"/>
<path transform="matrix(.1,0,0,-.1,0,792)" d="M1715 6850V7450H1115V7150H1415V6850" fill="#b21a00"/>
<path transform="matrix(.1,0,0,-.1,0,792)" stroke-width="10" stroke-linecap="butt" stroke-miterlimit="10" stroke-linejoin="miter" fill="none" stroke="#000000" d="M1715 6850V7450H1115V7150H1415V6850Z"/>
<path transform="matrix(.1,0,0,-.1,0,792)" d="M4715 1450V1150H4415V550L5015 1150H5315V1450L5915 2050H5315V1750H5015V1450" fill="#e63b00"/>
<path transform="matrix(.1,0,0,-.1,0,792)" stroke-width="10" stroke-linecap="butt" stroke-miterlimit="10" stroke-linejoin="miter" fill="none" stroke="#000000" d="M4715 1450V1150H4415V550L5015 1150H5315V1450L5915 2050H5315V1750H5015V1450Z"/>
<path transform="matrix(.1,0,0,-.1,0,792)" d="M5015 6550H5315V6850H5015V7150H4715V7450H4415V7150" fill="#ff8f0f"/>
<path transform="matrix(.1,0,0,-.1,0,792)" stroke-width="10" stroke-linecap="butt" stroke-miterlimit="10" stroke-linejoin="miter" fill="none" stroke="#000000" d="M5015 6550H5315V6850H5015V7150H4715V7450H4415V7150Z"/>
<path transform="matrix(.1,0,0,-.1,0,792)" d="M5015 6850H5315V7450H4715V7150H5015" fill="#b21a00"/>
<path transform="matrix(.1,0,0,-.1,0,792)" stroke-width="10" stroke-linecap="butt" stroke-miterlimit="10" stroke-linejoin="miter" fill="none" stroke="#000000" d="M5015 6850H5315V7450H4715V7150H5015Z"/>
<path transform="matrix(.1,0,0,-.1,0,792)" d="M815 7150 215 6550H-85V6250L-685 5650H-85V5950H215V6250H515V6550H815" fill="#e63b00"/>
<path transform="matrix(.1,0,0,-.1,0,792)" stroke-width="10" stroke-linecap="butt" stroke-miterlimit="10" stroke-linejoin="miter" fill="none" stroke="#000000" d="M815 7150 215 6550H-85V6250L-685 5650H-85V5950H215V6250H515V6550H815Z"/>
<path transform="matrix(.1,0,0,-.1,0,792)" d="M815 7150V7450H515V7150H215V6850H-85V6550H215" fill="#ff8f0f"/>
<path transform="matrix(.1,0,0,-.1,0,792)" stroke-width="10" stroke-linecap="butt" stroke-miterlimit="10" stroke-linejoin="miter" fill="none" stroke="#000000" d="M815 7150V7450H515V7150H215V6850H-85V6550H215Z"/>
<path transform="matrix(.1,0,0,-.1,0,792)" d="M815 6550H515V6250H215V5950H-85V5650H515V5950H815" fill="#4d9973"/>
<path transform="matrix(.1,0,0,-.1,0,792)" stroke-width="10" stroke-linecap="butt" stroke-miterlimit="10" stroke-linejoin="miter" fill="none" stroke="#000000" d="M815 6550H515V6250H215V5950H-85V5650H515V5950H815Z"/>
<path transform="matrix(.1,0,0,-.1,0,792)" d="M515 5650H815V5950H515Z" fill="#ff8f0f"/>
<path transform="matrix(.1,0,0,-.1,0,792)" stroke-width="10" stroke-linecap="butt" stroke-miterlimit="10" stroke-linejoin="miter" fill="none" stroke="#000000" d="M515 5650H815V5950H515Z"/>
<path transform="matrix(.1,0,0,-.1,0,792)" d="M515 5350H815V5650H515Z" fill="#ff8f0f"/>
<path transform="matrix(.1,0,0,-.1,0,792)" stroke-width="10" stroke-linecap="butt" stroke-miterlimit="10" stroke-linejoin="miter" fill="none" stroke="#000000" d="M515 5350H815V5650H515Z"/>
<path transform="matrix(.1,0,0,-.1,0,792)" d="M815 5350H515V5650H-85V5350H215V5050H515V4750H815" fill="#4d9973"/>
<path transform="matrix(.1,0,0,-.1,0,792)" stroke-width="10" stroke-linecap="butt" stroke-miterlimit="10" stroke-linejoin="miter" fill="none" stroke="#000000" d="M815 5350H515V5650H-85V5350H215V5050H515V4750H815Z"/>
<path transform="matrix(.1,0,0,-.1,0,792)" d="M815 4750H515V5050H215V5350H-85V5650H-685L-85 5050V4750H215L815 4150" fill="#e63b00"/>
<path transform="matrix(.1,0,0,-.1,0,792)" stroke-width="10" stroke-linecap="butt" stroke-miterlimit="10" stroke-linejoin="miter" fill="none" stroke="#000000" d="M815 4750H515V5050H215V5350H-85V5650H-685L-85 5050V4750H215L815 4150Z"/>
<path transform="matrix(.1,0,0,-.1,0,792)" d="M815 4150 215 4750H-85V4450H215V4150H515V3850H815" fill="#ff8f0f"/>
<path transform="matrix(.1,0,0,-.1,0,792)" stroke-width="10" stroke-linecap="butt" stroke-miterlimit="10" stroke-linejoin="miter" fill="none" stroke="#000000" d="M815 4150 215 4750H-85V4450H215V4150H515V3850H815Z"/>
<path transform="matrix(.1,0,0,-.1,0,792)" d="M815 3850H515V3550H215V3250H-85V2950H215L815 3550" fill="#ff8f0f"/>
<path transform="matrix(.1,0,0,-.1,0,792)" stroke-width="10" stroke-linecap="butt" stroke-miterlimit="10" stroke-linejoin="miter" fill="none" stroke="#000000" d="M815 3850H515V3550H215V3250H-85V2950H215L815 3550Z"/>
<path transform="matrix(.1,0,0,-.1,0,792)" d="M815 3550 215 2950H-85V2650L-685 2050H-85V2350H215V2650H515V2950H815" fill="#e63b00"/>
<path transform="matrix(.1,0,0,-.1,0,792)" stroke-width="10" stroke-linecap="butt" stroke-miterlimit="10" stroke-linejoin="miter" fill="none" stroke="#000000" d="M815 3550 215 2950H-85V2650L-685 2050H-85V2350H215V2650H515V2950H815Z"/>
<path transform="matrix(.1,0,0,-.1,0,792)" d="M815 2950H515V2650H215V2350H-85V2050H515V2350H815" fill="#4d9973"/>
<path transform="matrix(.1,0,0,-.1,0,792)" stroke-width="10" stroke-linecap="butt" stroke-miterlimit="10" stroke-linejoin="miter" fill="none" stroke="#000000" d="M815 2950H515V2650H215V2350H-85V2050H515V2350H815Z"/>
<path transform="matrix(.1,0,0,-.1,0,792)" d="M515 2050H815V2350H515Z" fill="#ff8f0f"/>
<path transform="matrix(.1,0,0,-.1,0,792)" stroke-width="10" stroke-linecap="butt" stroke-miterlimit="10" stroke-linejoin="miter" fill="none" stroke="#000000" d="M515 2050H815V2350H515Z"/>
<path transform="matrix(.1,0,0,-.1,0,792)" d="M515 1750H815V2050H515Z" fill="#ff8f0f"/>
<path transform="matrix(.1,0,0,-.1,0,792)" stroke-width="10" stroke-linecap="butt" stroke-miterlimit="10" stroke-linejoin="miter" fill="none" stroke="#000000" d="M515 1750H815V2050H515Z"/>
<path transform="matrix(.1,0,0,-.1,0,792)" d="M815 1750H515V2050H-85V1750H215V1450H515V1150H815" fill="#4d9973"/>
<path transform="matrix(.1,0,0,-.1,0,792)" stroke-width="10" stroke-linecap="butt" stroke-miterlimit="10" stroke-linejoin="miter" fill="none" stroke="#000000" d="M815 1750H515V2050H-85V1750H215V1450H515V1150H815Z"/>
<path transform="matrix(.1,0,0,-.1,0,792)" d="M815 1150H515V1450H215V1750H-85V2050H-685L-85 1450V1150H215L815 550" fill="#e63b00"/>
<path transform="matrix(.1,0,0,-.1,0,792)" stroke-width="10" stroke-linecap="butt" stroke-miterlimit="10" stroke-linejoin="miter" fill="none" stroke="#000000" d="M815 1150H515V1450H215V1750H-85V2050H-685L-85 1450V1150H215L815 550Z"/>
<path transform="matrix(.1,0,0,-.1,0,792)" d="M1415 1150 815 550V250H1115V550H1415V850H1715V1150" fill="#ff8f0f"/>
<path transform="matrix(.1,0,0,-.1,0,792)" stroke-width="10" stroke-linecap="butt" stroke-miterlimit="10" stroke-linejoin="miter" fill="none" stroke="#000000" d="M1415 1150 815 550V250H1115V550H1415V850H1715V1150Z"/>
<path transform="matrix(.1,0,0,-.1,0,792)" d="M1715 850H2015V1150H1715Z" fill="#ff8f0f"/>
<path transform="matrix(.1,0,0,-.1,0,792)" stroke-width="10" stroke-linecap="butt" stroke-miterlimit="10" stroke-linejoin="miter" fill="none" stroke="#000000" d="M1715 850H2015V1150H1715Z"/>
<path transform="matrix(.1,0,0,-.1,0,792)" d="M2015 1150V850H1715V250H2015V550H2315V850H2615V1150" fill="#4d9973"/>
<path transform="matrix(.1,0,0,-.1,0,792)" stroke-width="10" stroke-linecap="butt" stroke-miterlimit="10" stroke-linejoin="miter" fill="none" stroke="#000000" d="M2015 1150V850H1715V250H2015V550H2315V850H2615V1150Z"/>
<path transform="matrix(.1,0,0,-.1,0,792)" d="M2615 1150V850H2915V550H3215V250H3515V850H3215V1150" fill="#4d9973"/>
<path transform="matrix(.1,0,0,-.1,0,792)" stroke-width="10" stroke-linecap="butt" stroke-miterlimit="10" stroke-linejoin="miter" fill="none" stroke="#000000" d="M2615 1150V850H2915V550H3215V250H3515V850H3215V1150Z"/>
<path transform="matrix(.1,0,0,-.1,0,792)" d="M3215 850H3515V1150H3215Z" fill="#ff8f0f"/>
<path transform="matrix(.1,0,0,-.1,0,792)" stroke-width="10" stroke-linecap="butt" stroke-miterlimit="10" stroke-linejoin="miter" fill="none" stroke="#000000" d="M3215 850H3515V1150H3215Z"/>
<path transform="matrix(.1,0,0,-.1,0,792)" d="M3515 1150V850H3815V550H4115V250H4415V550L3815 1150" fill="#ff8f0f"/>
<path transform="matrix(.1,0,0,-.1,0,792)" stroke-width="10" stroke-linecap="butt" stroke-miterlimit="10" stroke-linejoin="miter" fill="none" stroke="#000000" d="M3515 1150V850H3815V550H4115V250H4415V550L3815 1150Z"/>
<path transform="matrix(.1,0,0,-.1,0,792)" d="M5015 1150 4415 550V250H4715V550H5015V850H5315V1150" fill="#ff8f0f"/>
<path transform="matrix(.1,0,0,-.1,0,792)" stroke-width="10" stroke-linecap="butt" stroke-miterlimit="10" stroke-linejoin="miter" fill="none" stroke="#000000" d="M5015 1150 4415 550V250H4715V550H5015V850H5315V1150Z"/>
<path transform="matrix(.1,0,0,-.1,0,792)" d="M5315 1150H5615V1450H5915V1750H6215V2050H5915L5315 1450" fill="#ff8f0f"/>
<path transform="matrix(.1,0,0,-.1,0,792)" stroke-width="10" stroke-linecap="butt" stroke-miterlimit="10" stroke-linejoin="miter" fill="none" stroke="#000000" d="M5315 1150H5615V1450H5915V1750H6215V2050H5915L5315 1450Z"/>
<path transform="matrix(.1,0,0,-.1,0,792)" d="M5315 850H5615V1150H5315Z" fill="#ff8f0f"/>
<path transform="matrix(.1,0,0,-.1,0,792)" stroke-width="10" stroke-linecap="butt" stroke-miterlimit="10" stroke-linejoin="miter" fill="none" stroke="#000000" d="M5315 850H5615V1150H5315Z"/>
<path transform="matrix(.1,0,0,-.1,0,792)" d="M5315 2650 5915 2050H6215V2350H5915V2650H5615V2950H5315" fill="#ff8f0f"/>
<path transform="matrix(.1,0,0,-.1,0,792)" stroke-width="10" stroke-linecap="butt" stroke-miterlimit="10" stroke-linejoin="miter" fill="none" stroke="#000000" d="M5315 2650 5915 2050H6215V2350H5915V2650H5615V2950H5315Z"/>
<path transform="matrix(.1,0,0,-.1,0,792)" d="M5315 2950H5615V3250H5315Z" fill="#ff8f0f"/>
<path transform="matrix(.1,0,0,-.1,0,792)" stroke-width="10" stroke-linecap="butt" stroke-miterlimit="10" stroke-linejoin="miter" fill="none" stroke="#000000" d="M5315 2950H5615V3250H5315Z"/>
<path transform="matrix(.1,0,0,-.1,0,792)" d="M5315 3250H5615V2950H6215V3250H5915V3550H5615V3850H5315" fill="#4d9973"/>
<path transform="matrix(.1,0,0,-.1,0,792)" stroke-width="10" stroke-linecap="butt" stroke-miterlimit="10" stroke-linejoin="miter" fill="none" stroke="#000000" d="M5315 3250H5615V2950H6215V3250H5915V3550H5615V3850H5315Z"/>
<path transform="matrix(.1,0,0,-.1,0,792)" d="M5315 3850H5615V4150H5915V4450H6215V4750H5615V4450H5315" fill="#4d9973"/>
<path transform="matrix(.1,0,0,-.1,0,792)" stroke-width="10" stroke-linecap="butt" stroke-miterlimit="10" stroke-linejoin="miter" fill="none" stroke="#000000" d="M5315 3850H5615V4150H5915V4450H6215V4750H5615V4450H5315Z"/>
<path transform="matrix(.1,0,0,-.1,0,792)" d="M5315 4450H5615V4750H5315Z" fill="#ff8f0f"/>
<path transform="matrix(.1,0,0,-.1,0,792)" stroke-width="10" stroke-linecap="butt" stroke-miterlimit="10" stroke-linejoin="miter" fill="none" stroke="#000000" d="M5315 4450H5615V4750H5315Z"/>
<path transform="matrix(.1,0,0,-.1,0,792)" d="M5315 4750H5615V5050H5915V5350H6215V5650H5915L5315 5050" fill="#ff8f0f"/>
<path transform="matrix(.1,0,0,-.1,0,792)" stroke-width="10" stroke-linecap="butt" stroke-miterlimit="10" stroke-linejoin="miter" fill="none" stroke="#000000" d="M5315 4750H5615V5050H5915V5350H6215V5650H5915L5315 5050Z"/>
<path transform="matrix(.1,0,0,-.1,0,792)" d="M5315 6250 5915 5650H6215V5950H5915V6250H5615V6550H5315" fill="#ff8f0f"/>
<path transform="matrix(.1,0,0,-.1,0,792)" stroke-width="10" stroke-linecap="butt" stroke-miterlimit="10" stroke-linejoin="miter" fill="none" stroke="#000000" d="M5315 6250 5915 5650H6215V5950H5915V6250H5615V6550H5315Z"/>
<path transform="matrix(.1,0,0,-.1,0,792)" d="M5315 6550H5615V6850H5315Z" fill="#ff8f0f"/>
<path transform="matrix(.1,0,0,-.1,0,792)" stroke-width="10" stroke-linecap="butt" stroke-miterlimit="10" stroke-linejoin="miter" fill="none" stroke="#000000" d="M5315 6550H5615V6850H5315Z"/>
<path transform="matrix(.1,0,0,-.1,0,792)" d="M5315 6850H5615V6550H6215V6850H5915V7150H5615V7450H5315" fill="#4d9973"/>
<path transform="matrix(.1,0,0,-.1,0,792)" stroke-width="10" stroke-linecap="butt" stroke-miterlimit="10" stroke-linejoin="miter" fill="none" stroke="#000000" d="M5315 6850H5615V6550H6215V6850H5915V7150H5615V7450H5315Z"/>
<path transform="matrix(.1,0,0,-.1,0,792)" d="M5315 7450V8050H5015V7750H4715V7450" fill="#b21a00"/>
<path transform="matrix(.1,0,0,-.1,0,792)" stroke-width="10" stroke-linecap="butt" stroke-miterlimit="10" stroke-linejoin="miter" fill="none" stroke="#000000" d="M5315 7450V8050H5015V7750H4715V7450Z"/>
<path transform="matrix(.1,0,0,-.1,0,792)" d="M5315 7450H5615V7750H5915V8050H6215V8350H5615V8050H5315" fill="#4d9973"/>
<path transform="matrix(.1,0,0,-.1,0,792)" stroke-width="10" stroke-linecap="butt" stroke-miterlimit="10" stroke-linejoin="miter" fill="none" stroke="#000000" d="M5315 7450H5615V7750H5915V8050H6215V8350H5615V8050H5315Z"/>
<path transform="matrix(.1,0,0,-.1,0,792)" d="M4715 7450V7750H5015V8050H5315V8350H5015L4415 7750V7450" fill="#ff8f0f"/>
<path transform="matrix(.1,0,0,-.1,0,792)" stroke-width="10" stroke-linecap="butt" stroke-miterlimit="10" stroke-linejoin="miter" fill="none" stroke="#000000" d="M4715 7450V7750H5015V8050H5315V8350H5015L4415 7750V7450Z"/>
<path transform="matrix(.1,0,0,-.1,0,792)" d="M4415 7450V7750L3815 8350H3515V8050H3815V7750H4115V7450" fill="#ff8f0f"/>
<path transform="matrix(.1,0,0,-.1,0,792)" stroke-width="10" stroke-linecap="butt" stroke-miterlimit="10" stroke-linejoin="miter" fill="none" stroke="#000000" d="M4415 7450V7750L3815 8350H3515V8050H3815V7750H4115V7450Z"/>
<path transform="matrix(.1,0,0,-.1,0,792)" d="M4115 7450V7750H3815V8050H3515V7450" fill="#b21a00"/>
<path transform="matrix(.1,0,0,-.1,0,792)" stroke-width="10" stroke-linecap="butt" stroke-miterlimit="10" stroke-linejoin="miter" fill="none" stroke="#000000" d="M4115 7450V7750H3815V8050H3515V7450Z"/>
<path transform="matrix(.1,0,0,-.1,0,792)" d="M3515 7450V8050H3215V8350H2615V8050H2915V7750H3215V7450" fill="#4d9973"/>
<path transform="matrix(.1,0,0,-.1,0,792)" stroke-width="10" stroke-linecap="butt" stroke-miterlimit="10" stroke-linejoin="miter" fill="none" stroke="#000000" d="M3515 7450V8050H3215V8350H2615V8050H2915V7750H3215V7450Z"/>
<path transform="matrix(.1,0,0,-.1,0,792)" d="M3215 7450V7750H2915V8050H2615V7450" fill="#e63b00"/>
<path transform="matrix(.1,0,0,-.1,0,792)" stroke-width="10" stroke-linecap="butt" stroke-miterlimit="10" stroke-linejoin="miter" fill="none" stroke="#000000" d="M3215 7450V7750H2915V8050H2615V7450Z"/>
<path transform="matrix(.1,0,0,-.1,0,792)" d="M2615 7450V8050H2315V7750H2015V7450" fill="#e63b00"/>
<path transform="matrix(.1,0,0,-.1,0,792)" stroke-width="10" stroke-linecap="butt" stroke-miterlimit="10" stroke-linejoin="miter" fill="none" stroke="#000000" d="M2615 7450V8050H2315V7750H2015V7450Z"/>
<path transform="matrix(.1,0,0,-.1,0,792)" d="M2015 7450V7750H2315V8050H2615V8350H2015V8050H1715V7450" fill="#4d9973"/>
<path transform="matrix(.1,0,0,-.1,0,792)" stroke-width="10" stroke-linecap="butt" stroke-miterlimit="10" stroke-linejoin="miter" fill="none" stroke="#000000" d="M2015 7450V7750H2315V8050H2615V8350H2015V8050H1715V7450Z"/>
<path transform="matrix(.1,0,0,-.1,0,792)" d="M1715 7450V8050H1415V7750H1115V7450" fill="#b21a00"/>
<path transform="matrix(.1,0,0,-.1,0,792)" stroke-width="10" stroke-linecap="butt" stroke-miterlimit="10" stroke-linejoin="miter" fill="none" stroke="#000000" d="M1715 7450V8050H1415V7750H1115V7450Z"/>
<path transform="matrix(.1,0,0,-.1,0,792)" d="M1115 7450V7750H1415V8050H1715V8350H1415L815 7750V7450" fill="#ff8f0f"/>
<path transform="matrix(.1,0,0,-.1,0,792)" stroke-width="10" stroke-linecap="butt" stroke-miterlimit="10" stroke-linejoin="miter" fill="none" stroke="#000000" d="M1115 7450V7750H1415V8050H1715V8350H1415L815 7750V7450Z"/>
<path transform="matrix(.1,0,0,-.1,0,792)" d="M815 7450V7750L215 8350H-85V8050H215V7750H515V7450" fill="#ff8f0f"/>
<path transform="matrix(.1,0,0,-.1,0,792)" stroke-width="10" stroke-linecap="butt" stroke-miterlimit="10" stroke-linejoin="miter" fill="none" stroke="#000000" d="M815 7450V7750L215 8350H-85V8050H215V7750H515V7450Z"/>
<path transform="matrix(.1,0,0,-.1,0,792)" d="M1415 850V550H1115V250H1715V850" fill="#b21a00"/>
<path transform="matrix(.1,0,0,-.1,0,792)" stroke-width="10" stroke-linecap="butt" stroke-miterlimit="10" stroke-linejoin="miter" fill="none" stroke="#000000" d="M1415 850V550H1115V250H1715V850Z"/>
<path transform="matrix(.1,0,0,-.1,0,792)" d="M2315 850V550H2015V250H2615V850" fill="#e63b00"/>
<path transform="matrix(.1,0,0,-.1,0,792)" stroke-width="10" stroke-linecap="butt" stroke-miterlimit="10" stroke-linejoin="miter" fill="none" stroke="#000000" d="M2315 850V550H2015V250H2615V850Z"/>
<path transform="matrix(.1,0,0,-.1,0,792)" d="M2615 850V250H3215V550H2915V850" fill="#e63b00"/>
<path transform="matrix(.1,0,0,-.1,0,792)" stroke-width="10" stroke-linecap="butt" stroke-miterlimit="10" stroke-linejoin="miter" fill="none" stroke="#000000" d="M2615 850V250H3215V550H2915V850Z"/>
<path transform="matrix(.1,0,0,-.1,0,792)" d="M3515 850V250H4115V550H3815V850" fill="#b21a00"/>
<path transform="matrix(.1,0,0,-.1,0,792)" stroke-width="10" stroke-linecap="butt" stroke-miterlimit="10" stroke-linejoin="miter" fill="none" stroke="#000000" d="M3515 850V250H4115V550H3815V850Z"/>
<path transform="matrix(.1,0,0,-.1,0,792)" d="M5015 850V550H4715V250H5315V850" fill="#b21a00"/>
<path transform="matrix(.1,0,0,-.1,0,792)" stroke-width="10" stroke-linecap="butt" stroke-miterlimit="10" stroke-linejoin="miter" fill="none" stroke="#000000" d="M5015 850V550H4715V250H5315V850Z"/>
<path transform="matrix(.1,0,0,-.1,0,792)" d="M5315 850V250H5615V550H5915V850H6215V1150H5615V850" fill="#4d9973"/>
<path transform="matrix(.1,0,0,-.1,0,792)" stroke-width="10" stroke-linecap="butt" stroke-miterlimit="10" stroke-linejoin="miter" fill="none" stroke="#000000" d="M5315 850V250H5615V550H5915V850H6215V1150H5615V850Z"/>
<path transform="matrix(.1,0,0,-.1,0,792)" d="M515 7450H-85V6850H215V7150H515" fill="#b21a00"/>
<path transform="matrix(.1,0,0,-.1,0,792)" stroke-width="10" stroke-linecap="butt" stroke-miterlimit="10" stroke-linejoin="miter" fill="none" stroke="#000000" d="M515 7450H-85V6850H215V7150H515Z"/>
<path transform="matrix(.1,0,0,-.1,0,792)" d="M515 7450V7750H215V8050H-85V7450" fill="#b21a00"/>
<path transform="matrix(.1,0,0,-.1,0,792)" stroke-width="10" stroke-linecap="butt" stroke-miterlimit="10" stroke-linejoin="miter" fill="none" stroke="#000000" d="M515 7450V7750H215V8050H-85V7450Z"/>
<path transform="matrix(.1,0,0,-.1,0,792)" d="M515 4150H215V4450H-85V3850H515" fill="#b21a00"/>
<path transform="matrix(.1,0,0,-.1,0,792)" stroke-width="10" stroke-linecap="butt" stroke-miterlimit="10" stroke-linejoin="miter" fill="none" stroke="#000000" d="M515 4150H215V4450H-85V3850H515Z"/>
<path transform="matrix(.1,0,0,-.1,0,792)" d="M515 3850H-85V3250H215V3550H515" fill="#b21a00"/>
<path transform="matrix(.1,0,0,-.1,0,792)" stroke-width="10" stroke-linecap="butt" stroke-miterlimit="10" stroke-linejoin="miter" fill="none" stroke="#000000" d="M515 3850H-85V3250H215V3550H515Z"/>
<path transform="matrix(.1,0,0,-.1,0,792)" d="M4415 7750V8350H4115V8650H3815V8950H3515V9250H2915L3515 8650V8350H3815" fill="#e63b00"/>
<path transform="matrix(.1,0,0,-.1,0,792)" stroke-width="10" stroke-linecap="butt" stroke-miterlimit="10" stroke-linejoin="miter" fill="none" stroke="#000000" d="M4415 7750V8350H4115V8650H3815V8950H3515V9250H2915L3515 8650V8350H3815Z"/>
<path transform="matrix(.1,0,0,-.1,0,792)" d="M4415 7750 5015 8350H5315V8650L5915 9250H5315V8950H5015V8650H4715V8350H4415" fill="#e63b00"/>
<path transform="matrix(.1,0,0,-.1,0,792)" stroke-width="10" stroke-linecap="butt" stroke-miterlimit="10" stroke-linejoin="miter" fill="none" stroke="#000000" d="M4415 7750 5015 8350H5315V8650L5915 9250H5315V8950H5015V8650H4715V8350H4415Z"/>
<path transform="matrix(.1,0,0,-.1,0,792)" d="M815 7750V8350H515V8650H215V8950H-85V9250H-685L-85 8650V8350H215" fill="#e63b00"/>
<path transform="matrix(.1,0,0,-.1,0,792)" stroke-width="10" stroke-linecap="butt" stroke-miterlimit="10" stroke-linejoin="miter" fill="none" stroke="#000000" d="M815 7750V8350H515V8650H215V8950H-85V9250H-685L-85 8650V8350H215Z"/>
<path transform="matrix(.1,0,0,-.1,0,792)" d="M815 7750 1415 8350H1715V8650L2315 9250H1715V8950H1415V8650H1115V8350H815" fill="#e63b00"/>
<path transform="matrix(.1,0,0,-.1,0,792)" stroke-width="10" stroke-linecap="butt" stroke-miterlimit="10" stroke-linejoin="miter" fill="none" stroke="#000000" d="M815 7750 1415 8350H1715V8650L2315 9250H1715V8950H1415V8650H1115V8350H815Z"/>
<path transform="matrix(.1,0,0,-.1,0,792)" d="M5615 1150H6215V1750H5915V1450H5615" fill="#b21a00"/>
<path transform="matrix(.1,0,0,-.1,0,792)" stroke-width="10" stroke-linecap="butt" stroke-miterlimit="10" stroke-linejoin="miter" fill="none" stroke="#000000" d="M5615 1150H6215V1750H5915V1450H5615Z"/>
<path transform="matrix(.1,0,0,-.1,0,792)" d="M5615 2650H5915V2350H6215V2950H5615" fill="#b21a00"/>
<path transform="matrix(.1,0,0,-.1,0,792)" stroke-width="10" stroke-linecap="butt" stroke-miterlimit="10" stroke-linejoin="miter" fill="none" stroke="#000000" d="M5615 2650H5915V2350H6215V2950H5615Z"/>
<path transform="matrix(.1,0,0,-.1,0,792)" d="M5615 3550H5915V3250H6215V3850H5615" fill="#e63b00"/>
<path transform="matrix(.1,0,0,-.1,0,792)" stroke-width="10" stroke-linecap="butt" stroke-miterlimit="10" stroke-linejoin="miter" fill="none" stroke="#000000" d="M5615 3550H5915V3250H6215V3850H5615Z"/>
<path transform="matrix(.1,0,0,-.1,0,792)" d="M5615 3850H6215V4450H5915V4150H5615" fill="#e63b00"/>
<path transform="matrix(.1,0,0,-.1,0,792)" stroke-width="10" stroke-linecap="butt" stroke-miterlimit="10" stroke-linejoin="miter" fill="none" stroke="#000000" d="M5615 3850H6215V4450H5915V4150H5615Z"/>
<path transform="matrix(.1,0,0,-.1,0,792)" d="M5615 4750H6215V5350H5915V5050H5615" fill="#b21a00"/>
<path transform="matrix(.1,0,0,-.1,0,792)" stroke-width="10" stroke-linecap="butt" stroke-miterlimit="10" stroke-linejoin="miter" fill="none" stroke="#000000" d="M5615 4750H6215V5350H5915V5050H5615Z"/>
<path transform="matrix(.1,0,0,-.1,0,792)" d="M5615 6250H5915V5950H6215V6550H5615" fill="#b21a00"/>
<path transform="matrix(.1,0,0,-.1,0,792)" stroke-width="10" stroke-linecap="butt" stroke-miterlimit="10" stroke-linejoin="miter" fill="none" stroke="#000000" d="M5615 6250H5915V5950H6215V6550H5615Z"/>
<path transform="matrix(.1,0,0,-.1,0,792)" d="M5615 7150H5915V6850H6215V7450H5615" fill="#e63b00"/>
<path transform="matrix(.1,0,0,-.1,0,792)" stroke-width="10" stroke-linecap="butt" stroke-miterlimit="10" stroke-linejoin="miter" fill="none" stroke="#000000" d="M5615 7150H5915V6850H6215V7450H5615Z"/>
<path transform="matrix(.1,0,0,-.1,0,792)" d="M5615 7450H6215V8050H5915V7750H5615" fill="#e63b00"/>
<path transform="matrix(.1,0,0,-.1,0,792)" stroke-width="10" stroke-linecap="butt" stroke-miterlimit="10" stroke-linejoin="miter" fill="none" stroke="#000000" d="M5615 7450H6215V8050H5915V7750H5615Z"/>
<path transform="matrix(.1,0,0,-.1,0,792)" d="M815 550 215 1150H-85V850H215V550H515V250H815" fill="#ff8f0f"/>
<path transform="matrix(.1,0,0,-.1,0,792)" stroke-width="10" stroke-linecap="butt" stroke-miterlimit="10" stroke-linejoin="miter" fill="none" stroke="#000000" d="M815 550 215 1150H-85V850H215V550H515V250H815Z"/>
<path transform="matrix(.1,0,0,-.1,0,792)" d="M515 550H215V850H-85V250H515" fill="#b21a00"/>
<path transform="matrix(.1,0,0,-.1,0,792)" stroke-width="10" stroke-linecap="butt" stroke-miterlimit="10" stroke-linejoin="miter" fill="none" stroke="#000000" d="M515 550H215V850H-85V250H515Z"/>
<path transform="matrix(.1,0,0,-.1,0,792)" d="M5615 550V250H6215V850H5915V550" fill="#e63b00"/>
<path transform="matrix(.1,0,0,-.1,0,792)" stroke-width="10" stroke-linecap="butt" stroke-miterlimit="10" stroke-linejoin="miter" fill="none" stroke="#000000" d="M5615 550V250H6215V850H5915V550Z"/>
<path transform="matrix(.1,0,0,-.1,0,792)" d="M515 250V-50H215V-350H-85V-650H215L815-50V250" fill="#ff8f0f"/>
<path transform="matrix(.1,0,0,-.1,0,792)" stroke-width="10" stroke-linecap="butt" stroke-miterlimit="10" stroke-linejoin="miter" fill="none" stroke="#000000" d="M515 250V-50H215V-350H-85V-650H215L815-50V250Z"/>
<path transform="matrix(.1,0,0,-.1,0,792)" d="M515 250H-85V-350H215V-50H515" fill="#b21a00"/>
<path transform="matrix(.1,0,0,-.1,0,792)" stroke-width="10" stroke-linecap="butt" stroke-miterlimit="10" stroke-linejoin="miter" fill="none" stroke="#000000" d="M515 250H-85V-350H215V-50H515Z"/>
<path transform="matrix(.1,0,0,-.1,0,792)" d="M815 250V-50L1415-650H1715V-350H1415V-50H1115V250" fill="#ff8f0f"/>
<path transform="matrix(.1,0,0,-.1,0,792)" stroke-width="10" stroke-linecap="butt" stroke-miterlimit="10" stroke-linejoin="miter" fill="none" stroke="#000000" d="M815 250V-50L1415-650H1715V-350H1415V-50H1115V250Z"/>
<path transform="matrix(.1,0,0,-.1,0,792)" d="M1115 250V-50H1415V-350H1715V250" fill="#b21a00"/>
<path transform="matrix(.1,0,0,-.1,0,792)" stroke-width="10" stroke-linecap="butt" stroke-miterlimit="10" stroke-linejoin="miter" fill="none" stroke="#000000" d="M1115 250V-50H1415V-350H1715V250Z"/>
<path transform="matrix(.1,0,0,-.1,0,792)" d="M1715 250V-350H2015V-650H2615V-350H2315V-50H2015V250" fill="#4d9973"/>
<path transform="matrix(.1,0,0,-.1,0,792)" stroke-width="10" stroke-linecap="butt" stroke-miterlimit="10" stroke-linejoin="miter" fill="none" stroke="#000000" d="M1715 250V-350H2015V-650H2615V-350H2315V-50H2015V250Z"/>
<path transform="matrix(.1,0,0,-.1,0,792)" d="M2015 250V-50H2315V-350H2615V250" fill="#e63b00"/>
<path transform="matrix(.1,0,0,-.1,0,792)" stroke-width="10" stroke-linecap="butt" stroke-miterlimit="10" stroke-linejoin="miter" fill="none" stroke="#000000" d="M2015 250V-50H2315V-350H2615V250Z"/>
<path transform="matrix(.1,0,0,-.1,0,792)" d="M2615 250V-350H2915V-50H3215V250" fill="#e63b00"/>
<path transform="matrix(.1,0,0,-.1,0,792)" stroke-width="10" stroke-linecap="butt" stroke-miterlimit="10" stroke-linejoin="miter" fill="none" stroke="#000000" d="M2615 250V-350H2915V-50H3215V250Z"/>
<path transform="matrix(.1,0,0,-.1,0,792)" d="M3215 250V-50H2915V-350H2615V-650H3215V-350H3515V250" fill="#4d9973"/>
<path transform="matrix(.1,0,0,-.1,0,792)" stroke-width="10" stroke-linecap="butt" stroke-miterlimit="10" stroke-linejoin="miter" fill="none" stroke="#000000" d="M3215 250V-50H2915V-350H2615V-650H3215V-350H3515V250Z"/>
<path transform="matrix(.1,0,0,-.1,0,792)" d="M3515 250V-350H3815V-50H4115V250" fill="#b21a00"/>
<path transform="matrix(.1,0,0,-.1,0,792)" stroke-width="10" stroke-linecap="butt" stroke-miterlimit="10" stroke-linejoin="miter" fill="none" stroke="#000000" d="M3515 250V-350H3815V-50H4115V250Z"/>
<path transform="matrix(.1,0,0,-.1,0,792)" d="M4115 250V-50H3815V-350H3515V-650H3815L4415-50V250" fill="#ff8f0f"/>
<path transform="matrix(.1,0,0,-.1,0,792)" stroke-width="10" stroke-linecap="butt" stroke-miterlimit="10" stroke-linejoin="miter" fill="none" stroke="#000000" d="M4115 250V-50H3815V-350H3515V-650H3815L4415-50V250Z"/>
<path transform="matrix(.1,0,0,-.1,0,792)" d="M4415 250V-50L5015-650H5315V-350H5015V-50H4715V250" fill="#ff8f0f"/>
<path transform="matrix(.1,0,0,-.1,0,792)" stroke-width="10" stroke-linecap="butt" stroke-miterlimit="10" stroke-linejoin="miter" fill="none" stroke="#000000" d="M4415 250V-50L5015-650H5315V-350H5015V-50H4715V250Z"/>
<path transform="matrix(.1,0,0,-.1,0,792)" d="M4715 250V-50H5015V-350H5315V250" fill="#b21a00"/>
<path transform="matrix(.1,0,0,-.1,0,792)" stroke-width="10" stroke-linecap="butt" stroke-miterlimit="10" stroke-linejoin="miter" fill="none" stroke="#000000" d="M4715 250V-50H5015V-350H5315V250Z"/>
<path transform="matrix(.1,0,0,-.1,0,792)" d="M5315 250V-350H5615V-650H6215V-350H5915V-50H5615V250" fill="#4d9973"/>
<path transform="matrix(.1,0,0,-.1,0,792)" stroke-width="10" stroke-linecap="butt" stroke-miterlimit="10" stroke-linejoin="miter" fill="none" stroke="#000000" d="M5315 250V-350H5615V-650H6215V-350H5915V-50H5615V250Z"/>
<path transform="matrix(.1,0,0,-.1,0,792)" d="M5615 250V-50H5915V-350H6215V250" fill="#e63b00"/>
<path transform="matrix(.1,0,0,-.1,0,792)" stroke-width="10" stroke-linecap="butt" stroke-miterlimit="10" stroke-linejoin="miter" fill="none" stroke="#000000" d="M5615 250V-50H5915V-350H6215V250Z"/>
</svg>
