<svg xmlns="http://www.w3.org/2000/svg" xmlns:xlink="http://www.w3.org/1999/xlink" xmlns:inkscape="http://www.inkscape.org/namespaces/inkscape" version="1.1" width="612" height="792" viewBox="0 0 612 792">
<path transform="matrix(.1,0,0,-.1,0,792)" d="M3459.9 1300.8 4308.4 2149.3 2611.3 3846.3 4308.4 5543.4 3459.9 6391.9 2611.3 5543.4 914.301 3846.3 2611.3 2149.3" fill="#ccd987"/>
<path transform="matrix(.1,0,0,-.1,0,792)" stroke-width="15" stroke-linecap="butt" stroke-miterlimit="10" stroke-linejoin="miter" fill="none" stroke="#000000" d="M3459.9 1300.8 4308.4 2149.3 2611.3 3846.3 4308.4 5543.4 3459.9 6391.9 2611.3 5543.4 914.301 3846.3 2611.3 2149.3Z"/>
<path transform="matrix(.1,0,0,-.1,0,792)" d="M2611.3 3846.3 4308.4 2149.3 5156.9 1300.8 6005.5 2149.3 4308.4 3846.3 6005.5 5543.4 5156.9 6391.9 4308.4 5543.4" fill="#ccd987"/>
<path transform="matrix(.1,0,0,-.1,0,792)" stroke-width="15" stroke-linecap="butt" stroke-miterlimit="10" stroke-linejoin="miter" fill="none" stroke="#000000" d="M2611.3 3846.3 4308.4 2149.3 5156.9 1300.8 6005.5 2149.3 4308.4 3846.3 6005.5 5543.4 5156.9 6391.9 4308.4 5543.4Z"/>
<path transform="matrix(.1,0,0,-.1,0,792)" d="M2611.3 5543.4 1762.8 6391.9 914.301 5543.4-782.801 3846.3 914.301 2149.3 1762.8 1300.8 2611.3 2149.3 914.301 3846.3" fill="#ccd987"/>
<path transform="matrix(.1,0,0,-.1,0,792)" stroke-width="15" stroke-linecap="butt" stroke-miterlimit="10" stroke-linejoin="miter" fill="none" stroke="#000000" d="M2611.3 5543.4 1762.8 6391.9 914.301 5543.4-782.801 3846.3 914.301 2149.3 1762.8 1300.8 2611.3 2149.3 914.301 3846.3Z"/>
<path transform="matrix(.1,0,0,-.1,0,792)" d="M2611.3 5543.4 3459.9 6391.9 1762.8 8089 3459.9 9786 2611.3 10634.6 1762.8 9786 65.8008 8089 1762.8 6391.9" fill="#ccd987"/>
<path transform="matrix(.1,0,0,-.1,0,792)" stroke-width="15" stroke-linecap="butt" stroke-miterlimit="10" stroke-linejoin="miter" fill="none" stroke="#000000" d="M2611.3 5543.4 3459.9 6391.9 1762.8 8089 3459.9 9786 2611.3 10634.6 1762.8 9786 65.8008 8089 1762.8 6391.9Z"/>
<path transform="matrix(.1,0,0,-.1,0,792)" d="M4308.4 5543.4 5156.9 6391.9 3459.9 8089 5156.9 9786 4308.4 10634.6 3459.9 9786 1762.8 8089 3459.9 6391.9" fill="#ccd987"/>
<path transform="matrix(.1,0,0,-.1,0,792)" stroke-width="15" stroke-linecap="butt" stroke-miterlimit="10" stroke-linejoin="miter" fill="none" stroke="#000000" d="M4308.4 5543.4 5156.9 6391.9 3459.9 8089 5156.9 9786 4308.4 10634.6 3459.9 9786 1762.8 8089 3459.9 6391.9Z"/>
<path transform="matrix(.1,0,0,-.1,0,792)" d="M4308.4 3846.3 6005.5 2149.3 6854 1300.8 7702.5 2149.3 6005.5 3846.3 7702.5 5543.4 6854 6391.9 6005.5 5543.4" fill="#ccd987"/>
<path transform="matrix(.1,0,0,-.1,0,792)" stroke-width="15" stroke-linecap="butt" stroke-miterlimit="10" stroke-linejoin="miter" fill="none" stroke="#000000" d="M4308.4 3846.3 6005.5 2149.3 6854 1300.8 7702.5 2149.3 6005.5 3846.3 7702.5 5543.4 6854 6391.9 6005.5 5543.4Z"/>
<path transform="matrix(.1,0,0,-.1,0,792)" d="M2611.3 2149.3 1762.8 1300.8 65.8008-396.301 1762.8-2093.4 2611.3-2941.9 3459.9-2093.4 1762.8-396.301 3459.9 1300.8" fill="#ccd987"/>
<path transform="matrix(.1,0,0,-.1,0,792)" stroke-width="15" stroke-linecap="butt" stroke-miterlimit="10" stroke-linejoin="miter" fill="none" stroke="#000000" d="M2611.3 2149.3 1762.8 1300.8 65.8008-396.301 1762.8-2093.4 2611.3-2941.9 3459.9-2093.4 1762.8-396.301 3459.9 1300.8Z"/>
<path transform="matrix(.1,0,0,-.1,0,792)" d="M4308.4 2149.3 3459.9 1300.8 1762.8-396.301 3459.9-2093.4 4308.4-2941.9 5156.9-2093.4 3459.9-396.301 5156.9 1300.8" fill="#ccd987"/>
<path transform="matrix(.1,0,0,-.1,0,792)" stroke-width="15" stroke-linecap="butt" stroke-miterlimit="10" stroke-linejoin="miter" fill="none" stroke="#000000" d="M4308.4 2149.3 3459.9 1300.8 1762.8-396.301 3459.9-2093.4 4308.4-2941.9 5156.9-2093.4 3459.9-396.301 5156.9 1300.8Z"/>
<path transform="matrix(.1,0,0,-.1,0,792)" d="M1762.8 6391.9 65.8008 8089 1762.8 9786 914.301 10634.6 65.8008 9786-1631.3 8089 65.8008 6391.9 914.301 5543.4" fill="#ccd987"/>
<path transform="matrix(.1,0,0,-.1,0,792)" stroke-width="15" stroke-linecap="butt" stroke-miterlimit="10" stroke-linejoin="miter" fill="none" stroke="#000000" d="M1762.8 6391.9 65.8008 8089 1762.8 9786 914.301 10634.6 65.8008 9786-1631.3 8089 65.8008 6391.9 914.301 5543.4Z"/>
<path transform="matrix(.1,0,0,-.1,0,792)" d="M914.301 5543.4 65.8008 6391.9-782.801 5543.4-2479.8 3846.3-782.801 2149.3 65.8008 1300.8 914.301 2149.3-782.801 3846.3" fill="#ccd987"/>
<path transform="matrix(.1,0,0,-.1,0,792)" stroke-width="15" stroke-linecap="butt" stroke-miterlimit="10" stroke-linejoin="miter" fill="none" stroke="#000000" d="M914.301 5543.4 65.8008 6391.9-782.801 5543.4-2479.8 3846.3-782.801 2149.3 65.8008 1300.8 914.301 2149.3-782.801 3846.3Z"/>
<path transform="matrix(.1,0,0,-.1,0,792)" d="M914.301 2149.3 65.8008 1300.8-1631.3-396.301 65.8008-2093.4 914.301-2941.9 1762.8-2093.4 65.8008-396.301 1762.8 1300.8" fill="#ccd987"/>
<path transform="matrix(.1,0,0,-.1,0,792)" stroke-width="15" stroke-linecap="butt" stroke-miterlimit="10" stroke-linejoin="miter" fill="none" stroke="#000000" d="M914.301 2149.3 65.8008 1300.8-1631.3-396.301 65.8008-2093.4 914.301-2941.9 1762.8-2093.4 65.8008-396.301 1762.8 1300.8Z"/>
<path transform="matrix(.1,0,0,-.1,0,792)" d="M5156.9 1300.8 3459.9-396.301 5156.9-2093.4 6005.5-2941.9 6854-2093.4 5156.9-396.301 6854 1300.8 6005.5 2149.3" fill="#ccd987"/>
<path transform="matrix(.1,0,0,-.1,0,792)" stroke-width="15" stroke-linecap="butt" stroke-miterlimit="10" stroke-linejoin="miter" fill="none" stroke="#000000" d="M5156.9 1300.8 3459.9-396.301 5156.9-2093.4 6005.5-2941.9 6854-2093.4 5156.9-396.301 6854 1300.8 6005.5 2149.3Z"/>
<path transform="matrix(.1,0,0,-.1,0,792)" d="M5156.9 6391.9 6005.5 5543.4 6854 6391.9 5156.9 8089 6854 9786 6005.5 10634.6 5156.9 9786 3459.9 8089" fill="#ccd987"/>
<path transform="matrix(.1,0,0,-.1,0,792)" stroke-width="15" stroke-linecap="butt" stroke-miterlimit="10" stroke-linejoin="miter" fill="none" stroke="#000000" d="M5156.9 6391.9 6005.5 5543.4 6854 6391.9 5156.9 8089 6854 9786 6005.5 10634.6 5156.9 9786 3459.9 8089Z"/>
<path transform="matrix(.1,0,0,-.1,0,792)" d="M5156.9 8089 6854 6391.9 7702.5 5543.4 8551 6391.9 6854 8089 8551 9786 7702.5 10634.6 6854 9786" fill="#ccd987"/>
<path transform="matrix(.1,0,0,-.1,0,792)" stroke-width="15" stroke-linecap="butt" stroke-miterlimit="10" stroke-linejoin="miter" fill="none" stroke="#000000" d="M5156.9 8089 6854 6391.9 7702.5 5543.4 8551 6391.9 6854 8089 8551 9786 7702.5 10634.6 6854 9786Z"/>
<path transform="matrix(.1,0,0,-.1,0,792)" d="M65.8008 6391.9-1631.3 8089 65.8008 9786-782.801 10634.6-1631.3 9786-3328.4 8089-1631.3 6391.9-782.801 5543.4" fill="#ccd987"/>
<path transform="matrix(.1,0,0,-.1,0,792)" stroke-width="15" stroke-linecap="butt" stroke-miterlimit="10" stroke-linejoin="miter" fill="none" stroke="#000000" d="M65.8008 6391.9-1631.3 8089 65.8008 9786-782.801 10634.6-1631.3 9786-3328.4 8089-1631.3 6391.9-782.801 5543.4Z"/>
<path transform="matrix(.1,0,0,-.1,0,792)" d="M65.8008 1300.8-782.801 2149.3-1631.3 1300.8-3328.4-396.301-1631.3-2093.4-782.801-2941.9 65.8008-2093.4-1631.3-396.301" fill="#ccd987"/>
<path transform="matrix(.1,0,0,-.1,0,792)" stroke-width="15" stroke-linecap="butt" stroke-miterlimit="10" stroke-linejoin="miter" fill="none" stroke="#000000" d="M65.8008 1300.8-782.801 2149.3-1631.3 1300.8-3328.4-396.301-1631.3-2093.4-782.801-2941.9 65.8008-2093.4-1631.3-396.301Z"/>
<path transform="matrix(.1,0,0,-.1,0,792)" d="M6005.5 3846.3 7702.5 2149.3 8551 1300.8 9399.6 2149.3 7702.5 3846.3 9399.6 5543.4 8551 6391.9 7702.5 5543.4" fill="#ccd987"/>
<path transform="matrix(.1,0,0,-.1,0,792)" stroke-width="15" stroke-linecap="butt" stroke-miterlimit="10" stroke-linejoin="miter" fill="none" stroke="#000000" d="M6005.5 3846.3 7702.5 2149.3 8551 1300.8 9399.6 2149.3 7702.5 3846.3 9399.6 5543.4 8551 6391.9 7702.5 5543.4Z"/>
<path transform="matrix(.1,0,0,-.1,0,792)" d="M5156.9-396.301 6854-2093.4 7702.5-2941.9 8551-2093.4 6854-396.301 8551 1300.8 7702.5 2149.3 6854 1300.8" fill="#ccd987"/>
<path transform="matrix(.1,0,0,-.1,0,792)" stroke-width="15" stroke-linecap="butt" stroke-miterlimit="10" stroke-linejoin="miter" fill="none" stroke="#000000" d="M5156.9-396.301 6854-2093.4 7702.5-2941.9 8551-2093.4 6854-396.301 8551 1300.8 7702.5 2149.3 6854 1300.8Z"/>
</svg>
