<svg xmlns="http://www.w3.org/2000/svg" xmlns:xlink="http://www.w3.org/1999/xlink" xmlns:inkscape="http://www.inkscape.org/namespaces/inkscape" version="1.1" width="612" height="792" viewBox="0 0 612 792">
<path transform="matrix(.1,0,0,-.1,0,792)" d="M2975 2362.5 3775 3748.1 2975 5133.8 2175 3748.1Z" fill="#7adbcc"/>
<path transform="matrix(.1,0,0,-.1,0,792)" stroke-width="15" stroke-linecap="butt" stroke-miterlimit="10" stroke-linejoin="miter" fill="none" stroke="#000000" d="M2975 2362.5 3775 3748.1 2975 5133.8 2175 3748.1Z"/>
<path transform="matrix(.1,0,0,-.1,0,792)" d="M2975 5133.8 575 3748.1 2975 2362.5 2175 3748.1Z" fill="#f26991"/>
<path transform="matrix(.1,0,0,-.1,0,792)" stroke-width="15" stroke-linecap="butt" stroke-miterlimit="10" stroke-linejoin="miter" fill="none" stroke="#000000" d="M2975 5133.8 575 3748.1 2975 2362.5 2175 3748.1Z"/>
<path transform="matrix(.1,0,0,-.1,0,792)" d="M2975 5133.8H1375L575 6519.4V3748.1Z" fill="#c9b280"/>
<path transform="matrix(.1,0,0,-.1,0,792)" stroke-width="15" stroke-linecap="butt" stroke-miterlimit="10" stroke-linejoin="miter" fill="none" stroke="#000000" d="M2975 5133.8H1375L575 6519.4V3748.1Z"/>
<path transform="matrix(.1,0,0,-.1,0,792)" d="M2975 5133.8 2175 6519.4H575L1375 5133.8Z" fill="#7adbcc"/>
<path transform="matrix(.1,0,0,-.1,0,792)" stroke-width="15" stroke-linecap="butt" stroke-miterlimit="10" stroke-linejoin="miter" fill="none" stroke="#000000" d="M2975 5133.8 2175 6519.4H575L1375 5133.8Z"/>
<path transform="matrix(.1,0,0,-.1,0,792)" d="M2975 5133.8V7905L575 6519.4H2175Z" fill="#f26991"/>
<path transform="matrix(.1,0,0,-.1,0,792)" stroke-width="15" stroke-linecap="butt" stroke-miterlimit="10" stroke-linejoin="miter" fill="none" stroke="#000000" d="M2975 5133.8V7905L575 6519.4H2175Z"/>
<path transform="matrix(.1,0,0,-.1,0,792)" d="M2975 5133.8 3775 6519.4H5375L2975 7905Z" fill="#c9b280"/>
<path transform="matrix(.1,0,0,-.1,0,792)" stroke-width="15" stroke-linecap="butt" stroke-miterlimit="10" stroke-linejoin="miter" fill="none" stroke="#000000" d="M2975 5133.8 3775 6519.4H5375L2975 7905Z"/>
<path transform="matrix(.1,0,0,-.1,0,792)" d="M2975 5133.8H4575L5375 6519.4H3775Z" fill="#7adbcc"/>
<path transform="matrix(.1,0,0,-.1,0,792)" stroke-width="15" stroke-linecap="butt" stroke-miterlimit="10" stroke-linejoin="miter" fill="none" stroke="#000000" d="M2975 5133.8H4575L5375 6519.4H3775Z"/>
<path transform="matrix(.1,0,0,-.1,0,792)" d="M2975 5133.8 5375 3748.1V6519.4L4575 5133.8Z" fill="#f26991"/>
<path transform="matrix(.1,0,0,-.1,0,792)" stroke-width="15" stroke-linecap="butt" stroke-miterlimit="10" stroke-linejoin="miter" fill="none" stroke="#000000" d="M2975 5133.8 5375 3748.1V6519.4L4575 5133.8Z"/>
<path transform="matrix(.1,0,0,-.1,0,792)" d="M2975 5133.8 3775 3748.1 2975 2362.5 5375 3748.1Z" fill="#c9b280"/>
<path transform="matrix(.1,0,0,-.1,0,792)" stroke-width="15" stroke-linecap="butt" stroke-miterlimit="10" stroke-linejoin="miter" fill="none" stroke="#000000" d="M2975 5133.8 3775 3748.1 2975 2362.5 5375 3748.1Z"/>
<path transform="matrix(.1,0,0,-.1,0,792)" d="M2975 2362.5H4575L5375 976.801V3748.1Z" fill="#f26991"/>
<path transform="matrix(.1,0,0,-.1,0,792)" stroke-width="15" stroke-linecap="butt" stroke-miterlimit="10" stroke-linejoin="miter" fill="none" stroke="#000000" d="M2975 2362.5H4575L5375 976.801V3748.1Z"/>
<path transform="matrix(.1,0,0,-.1,0,792)" d="M2975 2362.5 3775 976.801H5375L4575 2362.5Z" fill="#7adbcc"/>
<path transform="matrix(.1,0,0,-.1,0,792)" stroke-width="15" stroke-linecap="butt" stroke-miterlimit="10" stroke-linejoin="miter" fill="none" stroke="#000000" d="M2975 2362.5 3775 976.801H5375L4575 2362.5Z"/>
<path transform="matrix(.1,0,0,-.1,0,792)" d="M2975 2362.5V-408.801L5375 976.801H3775Z" fill="#c9b280"/>
<path transform="matrix(.1,0,0,-.1,0,792)" stroke-width="15" stroke-linecap="butt" stroke-miterlimit="10" stroke-linejoin="miter" fill="none" stroke="#000000" d="M2975 2362.5V-408.801L5375 976.801H3775Z"/>
<path transform="matrix(.1,0,0,-.1,0,792)" d="M2975 2362.5 2175 976.801H575L2975-408.801Z" fill="#f26991"/>
<path transform="matrix(.1,0,0,-.1,0,792)" stroke-width="15" stroke-linecap="butt" stroke-miterlimit="10" stroke-linejoin="miter" fill="none" stroke="#000000" d="M2975 2362.5 2175 976.801H575L2975-408.801Z"/>
<path transform="matrix(.1,0,0,-.1,0,792)" d="M2975 2362.5H1375L575 976.801H2175Z" fill="#7adbcc"/>
<path transform="matrix(.1,0,0,-.1,0,792)" stroke-width="15" stroke-linecap="butt" stroke-miterlimit="10" stroke-linejoin="miter" fill="none" stroke="#000000" d="M2975 2362.5H1375L575 976.801H2175Z"/>
<path transform="matrix(.1,0,0,-.1,0,792)" d="M2975 2362.5 575 3748.1V976.801L1375 2362.5Z" fill="#c9b280"/>
<path transform="matrix(.1,0,0,-.1,0,792)" stroke-width="15" stroke-linecap="butt" stroke-miterlimit="10" stroke-linejoin="miter" fill="none" stroke="#000000" d="M2975 2362.5 575 3748.1V976.801L1375 2362.5Z"/>
<path transform="matrix(.1,0,0,-.1,0,792)" d="M575 6519.4-225 5133.8H-1825L575 3748.1Z" fill="#f26991"/>
<path transform="matrix(.1,0,0,-.1,0,792)" stroke-width="15" stroke-linecap="butt" stroke-miterlimit="10" stroke-linejoin="miter" fill="none" stroke="#000000" d="M575 6519.4-225 5133.8H-1825L575 3748.1Z"/>
<path transform="matrix(.1,0,0,-.1,0,792)" d="M575 6519.4H-1025L-1825 5133.8H-225Z" fill="#7adbcc"/>
<path transform="matrix(.1,0,0,-.1,0,792)" stroke-width="15" stroke-linecap="butt" stroke-miterlimit="10" stroke-linejoin="miter" fill="none" stroke="#000000" d="M575 6519.4H-1025L-1825 5133.8H-225Z"/>
<path transform="matrix(.1,0,0,-.1,0,792)" d="M575 6519.4-1825 7905V5133.8L-1025 6519.4Z" fill="#c9b280"/>
<path transform="matrix(.1,0,0,-.1,0,792)" stroke-width="15" stroke-linecap="butt" stroke-miterlimit="10" stroke-linejoin="miter" fill="none" stroke="#000000" d="M575 6519.4-1825 7905V5133.8L-1025 6519.4Z"/>
<path transform="matrix(.1,0,0,-.1,0,792)" d="M575 6519.4-225 7905 575 9290.7-1825 7905Z" fill="#f26991"/>
<path transform="matrix(.1,0,0,-.1,0,792)" stroke-width="15" stroke-linecap="butt" stroke-miterlimit="10" stroke-linejoin="miter" fill="none" stroke="#000000" d="M575 6519.4-225 7905 575 9290.7-1825 7905Z"/>
<path transform="matrix(.1,0,0,-.1,0,792)" d="M575 6519.4 1375 7905 575 9290.7-225 7905Z" fill="#7adbcc"/>
<path transform="matrix(.1,0,0,-.1,0,792)" stroke-width="15" stroke-linecap="butt" stroke-miterlimit="10" stroke-linejoin="miter" fill="none" stroke="#000000" d="M575 6519.4 1375 7905 575 9290.7-225 7905Z"/>
<path transform="matrix(.1,0,0,-.1,0,792)" d="M575 6519.4 2975 7905 575 9290.7 1375 7905Z" fill="#c9b280"/>
<path transform="matrix(.1,0,0,-.1,0,792)" stroke-width="15" stroke-linecap="butt" stroke-miterlimit="10" stroke-linejoin="miter" fill="none" stroke="#000000" d="M575 6519.4 2975 7905 575 9290.7 1375 7905Z"/>
<path transform="matrix(.1,0,0,-.1,0,792)" d="M5375 6519.4 4575 7905 5375 9290.7 2975 7905Z" fill="#f26991"/>
<path transform="matrix(.1,0,0,-.1,0,792)" stroke-width="15" stroke-linecap="butt" stroke-miterlimit="10" stroke-linejoin="miter" fill="none" stroke="#000000" d="M5375 6519.4 4575 7905 5375 9290.7 2975 7905Z"/>
<path transform="matrix(.1,0,0,-.1,0,792)" d="M5375 3748.1 7775 5133.8H6175L5375 6519.4Z" fill="#c9b280"/>
<path transform="matrix(.1,0,0,-.1,0,792)" stroke-width="15" stroke-linecap="butt" stroke-miterlimit="10" stroke-linejoin="miter" fill="none" stroke="#000000" d="M5375 3748.1 7775 5133.8H6175L5375 6519.4Z"/>
<path transform="matrix(.1,0,0,-.1,0,792)" d="M5375 976.801 6175 2362.5H7775L5375 3748.1Z" fill="#c9b280"/>
<path transform="matrix(.1,0,0,-.1,0,792)" stroke-width="15" stroke-linecap="butt" stroke-miterlimit="10" stroke-linejoin="miter" fill="none" stroke="#000000" d="M5375 976.801 6175 2362.5H7775L5375 3748.1Z"/>
<path transform="matrix(.1,0,0,-.1,0,792)" d="M5375 976.801H6975L7775 2362.5H6175Z" fill="#7adbcc"/>
<path transform="matrix(.1,0,0,-.1,0,792)" stroke-width="15" stroke-linecap="butt" stroke-miterlimit="10" stroke-linejoin="miter" fill="none" stroke="#000000" d="M5375 976.801H6975L7775 2362.5H6175Z"/>
<path transform="matrix(.1,0,0,-.1,0,792)" d="M5375 976.801 7775-408.801V2362.5L6975 976.801Z" fill="#f26991"/>
<path transform="matrix(.1,0,0,-.1,0,792)" stroke-width="15" stroke-linecap="butt" stroke-miterlimit="10" stroke-linejoin="miter" fill="none" stroke="#000000" d="M5375 976.801 7775-408.801V2362.5L6975 976.801Z"/>
<path transform="matrix(.1,0,0,-.1,0,792)" d="M5375 976.801 6175-408.801 5375-1794.4 7775-408.801Z" fill="#c9b280"/>
<path transform="matrix(.1,0,0,-.1,0,792)" stroke-width="15" stroke-linecap="butt" stroke-miterlimit="10" stroke-linejoin="miter" fill="none" stroke="#000000" d="M5375 976.801 6175-408.801 5375-1794.4 7775-408.801Z"/>
<path transform="matrix(.1,0,0,-.1,0,792)" d="M5375 976.801 4575-408.801 5375-1794.4 6175-408.801Z" fill="#7adbcc"/>
<path transform="matrix(.1,0,0,-.1,0,792)" stroke-width="15" stroke-linecap="butt" stroke-miterlimit="10" stroke-linejoin="miter" fill="none" stroke="#000000" d="M5375 976.801 4575-408.801 5375-1794.4 6175-408.801Z"/>
<path transform="matrix(.1,0,0,-.1,0,792)" d="M5375 976.801 2975-408.801 5375-1794.4 4575-408.801Z" fill="#f26991"/>
<path transform="matrix(.1,0,0,-.1,0,792)" stroke-width="15" stroke-linecap="butt" stroke-miterlimit="10" stroke-linejoin="miter" fill="none" stroke="#000000" d="M5375 976.801 2975-408.801 5375-1794.4 4575-408.801Z"/>
<path transform="matrix(.1,0,0,-.1,0,792)" d="M575 976.801 1375-408.801 575-1794.4 2975-408.801Z" fill="#c9b280"/>
<path transform="matrix(.1,0,0,-.1,0,792)" stroke-width="15" stroke-linecap="butt" stroke-miterlimit="10" stroke-linejoin="miter" fill="none" stroke="#000000" d="M575 976.801 1375-408.801 575-1794.4 2975-408.801Z"/>
<path transform="matrix(.1,0,0,-.1,0,792)" d="M575 3748.1-1825 2362.5H-225L575 976.801Z" fill="#f26991"/>
<path transform="matrix(.1,0,0,-.1,0,792)" stroke-width="15" stroke-linecap="butt" stroke-miterlimit="10" stroke-linejoin="miter" fill="none" stroke="#000000" d="M575 3748.1-1825 2362.5H-225L575 976.801Z"/>
<path transform="matrix(.1,0,0,-.1,0,792)" d="M575 3748.1-1825 5133.8-1025 3748.1-1825 2362.5Z" fill="#c9b280"/>
<path transform="matrix(.1,0,0,-.1,0,792)" stroke-width="15" stroke-linecap="butt" stroke-miterlimit="10" stroke-linejoin="miter" fill="none" stroke="#000000" d="M575 3748.1-1825 5133.8-1025 3748.1-1825 2362.5Z"/>
<path transform="matrix(.1,0,0,-.1,0,792)" d="M575 976.801-225-408.801 575-1794.4 1375-408.801Z" fill="#7adbcc"/>
<path transform="matrix(.1,0,0,-.1,0,792)" stroke-width="15" stroke-linecap="butt" stroke-miterlimit="10" stroke-linejoin="miter" fill="none" stroke="#000000" d="M575 976.801-225-408.801 575-1794.4 1375-408.801Z"/>
<path transform="matrix(.1,0,0,-.1,0,792)" d="M575 976.801-1825-408.801 575-1794.4-225-408.801Z" fill="#f26991"/>
<path transform="matrix(.1,0,0,-.1,0,792)" stroke-width="15" stroke-linecap="butt" stroke-miterlimit="10" stroke-linejoin="miter" fill="none" stroke="#000000" d="M575 976.801-1825-408.801 575-1794.4-225-408.801Z"/>
<path transform="matrix(.1,0,0,-.1,0,792)" d="M575 976.801H-1025L-1825 2362.5V-408.801Z" fill="#c9b280"/>
<path transform="matrix(.1,0,0,-.1,0,792)" stroke-width="15" stroke-linecap="butt" stroke-miterlimit="10" stroke-linejoin="miter" fill="none" stroke="#000000" d="M575 976.801H-1025L-1825 2362.5V-408.801Z"/>
<path transform="matrix(.1,0,0,-.1,0,792)" d="M575 976.801-225 2362.5H-1825L-1025 976.801Z" fill="#7adbcc"/>
<path transform="matrix(.1,0,0,-.1,0,792)" stroke-width="15" stroke-linecap="butt" stroke-miterlimit="10" stroke-linejoin="miter" fill="none" stroke="#000000" d="M575 976.801-225 2362.5H-1825L-1025 976.801Z"/>
<path transform="matrix(.1,0,0,-.1,0,792)" d="M5375 3748.1 7775 2362.5 6975 3748.1 7775 5133.8Z" fill="#f26991"/>
<path transform="matrix(.1,0,0,-.1,0,792)" stroke-width="15" stroke-linecap="butt" stroke-miterlimit="10" stroke-linejoin="miter" fill="none" stroke="#000000" d="M5375 3748.1 7775 2362.5 6975 3748.1 7775 5133.8Z"/>
<path transform="matrix(.1,0,0,-.1,0,792)" d="M5375 6519.4 6175 7905 5375 9290.7 4575 7905Z" fill="#7adbcc"/>
<path transform="matrix(.1,0,0,-.1,0,792)" stroke-width="15" stroke-linecap="butt" stroke-miterlimit="10" stroke-linejoin="miter" fill="none" stroke="#000000" d="M5375 6519.4 6175 7905 5375 9290.7 4575 7905Z"/>
<path transform="matrix(.1,0,0,-.1,0,792)" d="M5375 6519.4 7775 7905 5375 9290.7 6175 7905Z" fill="#c9b280"/>
<path transform="matrix(.1,0,0,-.1,0,792)" stroke-width="15" stroke-linecap="butt" stroke-miterlimit="10" stroke-linejoin="miter" fill="none" stroke="#000000" d="M5375 6519.4 7775 7905 5375 9290.7 6175 7905Z"/>
<path transform="matrix(.1,0,0,-.1,0,792)" d="M5375 6519.4H6975L7775 5133.8V7905Z" fill="#f26991"/>
<path transform="matrix(.1,0,0,-.1,0,792)" stroke-width="15" stroke-linecap="butt" stroke-miterlimit="10" stroke-linejoin="miter" fill="none" stroke="#000000" d="M5375 6519.4H6975L7775 5133.8V7905Z"/>
<path transform="matrix(.1,0,0,-.1,0,792)" d="M5375 6519.4 6175 5133.8H7775L6975 6519.4Z" fill="#7adbcc"/>
<path transform="matrix(.1,0,0,-.1,0,792)" stroke-width="15" stroke-linecap="butt" stroke-miterlimit="10" stroke-linejoin="miter" fill="none" stroke="#000000" d="M5375 6519.4 6175 5133.8H7775L6975 6519.4Z"/>
<path transform="matrix(.1,0,0,-.1,0,792)" d="M2975 7905V10676.3L2175 9290.7H575Z" fill="#f26991"/>
<path transform="matrix(.1,0,0,-.1,0,792)" stroke-width="15" stroke-linecap="butt" stroke-miterlimit="10" stroke-linejoin="miter" fill="none" stroke="#000000" d="M2975 7905V10676.3L2175 9290.7H575Z"/>
<path transform="matrix(.1,0,0,-.1,0,792)" d="M2975 7905 5375 9290.7H3775L2975 10676.3Z" fill="#c9b280"/>
<path transform="matrix(.1,0,0,-.1,0,792)" stroke-width="15" stroke-linecap="butt" stroke-miterlimit="10" stroke-linejoin="miter" fill="none" stroke="#000000" d="M2975 7905 5375 9290.7H3775L2975 10676.3Z"/>
</svg>
