<svg xmlns="http://www.w3.org/2000/svg" xmlns:xlink="http://www.w3.org/1999/xlink" xmlns:inkscape="http://www.inkscape.org/namespaces/inkscape" version="1.1" width="612" height="792" viewBox="0 0 612 792">
<path transform="matrix(.1,0,0,-.1,0,792)" d="M2975 3566.2 3151.8 3743H3401.8V3993L3578.6 4169.8 3401.8 4346.5V4596.5H3151.8L2975 4773.3 2798.2 4596.5H2548.2V4346.5L2371.4 4169.8 2548.2 3993V3743H2798.2" fill="#808080"/>
<path transform="matrix(.1,0,0,-.1,0,792)" stroke-width="5" stroke-linecap="butt" stroke-miterlimit="10" stroke-linejoin="miter" fill="none" stroke="#ffffff" d="M2975 3566.2 3151.8 3743H3401.8V3993L3578.6 4169.8 3401.8 4346.5V4596.5H3151.8L2975 4773.3 2798.2 4596.5H2548.2V4346.5L2371.4 4169.8 2548.2 3993V3743H2798.2Z"/>
<path transform="matrix(.1,0,0,-.1,0,792)" d="M3151.8 4596.5H3401.8V5200.1L2975 4773.3Z"/>
<path transform="matrix(.1,0,0,-.1,0,792)" stroke-width="5" stroke-linecap="butt" stroke-miterlimit="10" stroke-linejoin="miter" fill="none" stroke="#ffffff" d="M3151.8 4596.5H3401.8V5200.1L2975 4773.3Z"/>
<path transform="matrix(.1,0,0,-.1,0,792)" d="M2798.2 4596.5 2975 4773.3 2548.2 5200.1V4596.5Z"/>
<path transform="matrix(.1,0,0,-.1,0,792)" stroke-width="5" stroke-linecap="butt" stroke-miterlimit="10" stroke-linejoin="miter" fill="none" stroke="#ffffff" d="M2798.2 4596.5 2975 4773.3 2548.2 5200.1V4596.5Z"/>
<path transform="matrix(.1,0,0,-.1,0,792)" d="M2798.2 3743H2548.2V3139.4L2975 3566.2Z"/>
<path transform="matrix(.1,0,0,-.1,0,792)" stroke-width="5" stroke-linecap="butt" stroke-miterlimit="10" stroke-linejoin="miter" fill="none" stroke="#ffffff" d="M2798.2 3743H2548.2V3139.4L2975 3566.2Z"/>
<path transform="matrix(.1,0,0,-.1,0,792)" d="M3151.8 3743 2975 3566.2 3401.8 3139.4V3743Z"/>
<path transform="matrix(.1,0,0,-.1,0,792)" stroke-width="5" stroke-linecap="butt" stroke-miterlimit="10" stroke-linejoin="miter" fill="none" stroke="#ffffff" d="M3151.8 3743 2975 3566.2 3401.8 3139.4V3743Z"/>
<path transform="matrix(.1,0,0,-.1,0,792)" d="M2975 4773.3 3401.8 5200.1V5662L2975 5838.8 2548.2 5662V5200.1" fill="#808080"/>
<path transform="matrix(.1,0,0,-.1,0,792)" stroke-width="5" stroke-linecap="butt" stroke-miterlimit="10" stroke-linejoin="miter" fill="none" stroke="#ffffff" d="M2975 4773.3 3401.8 5200.1V5662L2975 5838.8 2548.2 5662V5200.1Z"/>
<path transform="matrix(.1,0,0,-.1,0,792)" d="M3401.8 4596.5H4005.3L4332 4923.2 4155.2 5350 3728.4 5526.7 3401.8 5200.1" fill="#808080"/>
<path transform="matrix(.1,0,0,-.1,0,792)" stroke-width="5" stroke-linecap="butt" stroke-miterlimit="10" stroke-linejoin="miter" fill="none" stroke="#ffffff" d="M3401.8 4596.5H4005.3L4332 4923.2 4155.2 5350 3728.4 5526.7 3401.8 5200.1Z"/>
<path transform="matrix(.1,0,0,-.1,0,792)" d="M3401.8 4346.5 3578.6 4169.8 4005.3 4596.5H3401.8Z"/>
<path transform="matrix(.1,0,0,-.1,0,792)" stroke-width="5" stroke-linecap="butt" stroke-miterlimit="10" stroke-linejoin="miter" fill="none" stroke="#ffffff" d="M3401.8 4346.5 3578.6 4169.8 4005.3 4596.5H3401.8Z"/>
<path transform="matrix(.1,0,0,-.1,0,792)" d="M3401.8 3993V3743H4005.3L3578.6 4169.8Z"/>
<path transform="matrix(.1,0,0,-.1,0,792)" stroke-width="5" stroke-linecap="butt" stroke-miterlimit="10" stroke-linejoin="miter" fill="none" stroke="#ffffff" d="M3401.8 3993V3743H4005.3L3578.6 4169.8Z"/>
<path transform="matrix(.1,0,0,-.1,0,792)" d="M3401.8 3743V3139.4L3728.4 2812.8 4155.2 2989.6 4332 3416.3 4005.3 3743" fill="#808080"/>
<path transform="matrix(.1,0,0,-.1,0,792)" stroke-width="5" stroke-linecap="butt" stroke-miterlimit="10" stroke-linejoin="miter" fill="none" stroke="#ffffff" d="M3401.8 3743V3139.4L3728.4 2812.8 4155.2 2989.6 4332 3416.3 4005.3 3743Z"/>
<path transform="matrix(.1,0,0,-.1,0,792)" d="M2548.2 4596.5H1944.7L2371.4 4169.8 2548.2 4346.5Z"/>
<path transform="matrix(.1,0,0,-.1,0,792)" stroke-width="5" stroke-linecap="butt" stroke-miterlimit="10" stroke-linejoin="miter" fill="none" stroke="#ffffff" d="M2548.2 4596.5H1944.7L2371.4 4169.8 2548.2 4346.5Z"/>
<path transform="matrix(.1,0,0,-.1,0,792)" d="M2548.2 4596.5V5200.1L2221.6 5526.7 1794.8 5350 1618 4923.2 1944.7 4596.5" fill="#808080"/>
<path transform="matrix(.1,0,0,-.1,0,792)" stroke-width="5" stroke-linecap="butt" stroke-miterlimit="10" stroke-linejoin="miter" fill="none" stroke="#ffffff" d="M2548.2 4596.5V5200.1L2221.6 5526.7 1794.8 5350 1618 4923.2 1944.7 4596.5Z"/>
<path transform="matrix(.1,0,0,-.1,0,792)" d="M2548.2 3993 2371.4 4169.8 1944.7 3743H2548.2Z"/>
<path transform="matrix(.1,0,0,-.1,0,792)" stroke-width="5" stroke-linecap="butt" stroke-miterlimit="10" stroke-linejoin="miter" fill="none" stroke="#ffffff" d="M2548.2 3993 2371.4 4169.8 1944.7 3743H2548.2Z"/>
<path transform="matrix(.1,0,0,-.1,0,792)" d="M2548.2 3743H1944.7L1618 3416.3 1794.8 2989.6 2221.6 2812.8 2548.2 3139.4" fill="#808080"/>
<path transform="matrix(.1,0,0,-.1,0,792)" stroke-width="5" stroke-linecap="butt" stroke-miterlimit="10" stroke-linejoin="miter" fill="none" stroke="#ffffff" d="M2548.2 3743H1944.7L1618 3416.3 1794.8 2989.6 2221.6 2812.8 2548.2 3139.4Z"/>
<path transform="matrix(.1,0,0,-.1,0,792)" d="M2975 3566.2 2548.2 3139.4V2677.5L2975 2500.7 3401.8 2677.5V3139.4" fill="#808080"/>
<path transform="matrix(.1,0,0,-.1,0,792)" stroke-width="5" stroke-linecap="butt" stroke-miterlimit="10" stroke-linejoin="miter" fill="none" stroke="#ffffff" d="M2975 3566.2 2548.2 3139.4V2677.5L2975 2500.7 3401.8 2677.5V3139.4Z"/>
<path transform="matrix(.1,0,0,-.1,0,792)" d="M3578.6 4169.8 4005.3 3743H4467.3L4644 4169.8 4467.3 4596.5H4005.3" fill="#808080"/>
<path transform="matrix(.1,0,0,-.1,0,792)" stroke-width="5" stroke-linecap="butt" stroke-miterlimit="10" stroke-linejoin="miter" fill="none" stroke="#ffffff" d="M3578.6 4169.8 4005.3 3743H4467.3L4644 4169.8 4467.3 4596.5H4005.3Z"/>
<path transform="matrix(.1,0,0,-.1,0,792)" d="M2371.4 4169.8 1944.7 4596.5H1482.7L1306 4169.8 1482.7 3743H1944.7" fill="#808080"/>
<path transform="matrix(.1,0,0,-.1,0,792)" stroke-width="5" stroke-linecap="butt" stroke-miterlimit="10" stroke-linejoin="miter" fill="none" stroke="#ffffff" d="M2371.4 4169.8 1944.7 4596.5H1482.7L1306 4169.8 1482.7 3743H1944.7Z"/>
<path transform="matrix(.1,0,0,-.1,0,792)" d="M3401.8 5200.1 3728.4 5526.7 3401.8 5662"/>
<path transform="matrix(.1,0,0,-.1,0,792)" stroke-width="5" stroke-linecap="butt" stroke-miterlimit="10" stroke-linejoin="miter" fill="none" stroke="#ffffff" d="M3401.8 5200.1 3728.4 5526.7 3401.8 5662Z"/>
<path transform="matrix(.1,0,0,-.1,0,792)" d="M2548.2 5200.1V5662L2221.6 5526.7"/>
<path transform="matrix(.1,0,0,-.1,0,792)" stroke-width="5" stroke-linecap="butt" stroke-miterlimit="10" stroke-linejoin="miter" fill="none" stroke="#ffffff" d="M2548.2 5200.1V5662L2221.6 5526.7Z"/>
<path transform="matrix(.1,0,0,-.1,0,792)" d="M2548.2 3139.4 2221.6 2812.8 2548.2 2677.5"/>
<path transform="matrix(.1,0,0,-.1,0,792)" stroke-width="5" stroke-linecap="butt" stroke-miterlimit="10" stroke-linejoin="miter" fill="none" stroke="#ffffff" d="M2548.2 3139.4 2221.6 2812.8 2548.2 2677.5Z"/>
<path transform="matrix(.1,0,0,-.1,0,792)" d="M3401.8 3139.4V2677.5L3728.4 2812.8"/>
<path transform="matrix(.1,0,0,-.1,0,792)" stroke-width="5" stroke-linecap="butt" stroke-miterlimit="10" stroke-linejoin="miter" fill="none" stroke="#ffffff" d="M3401.8 3139.4V2677.5L3728.4 2812.8Z"/>
<path transform="matrix(.1,0,0,-.1,0,792)" d="M3728.4 5526.7 3952.7 5838.8 3728.4 6150.9 3401.8 6015.6V5662" fill="#0000cc"/>
<path transform="matrix(.1,0,0,-.1,0,792)" stroke-width="5" stroke-linecap="butt" stroke-miterlimit="10" stroke-linejoin="miter" fill="none" stroke="#ffffff" d="M3728.4 5526.7 3952.7 5838.8 3728.4 6150.9 3401.8 6015.6V5662Z"/>
<path transform="matrix(.1,0,0,-.1,0,792)" d="M3728.4 5526.7 4155.2 5350 3952.7 5838.8"/>
<path transform="matrix(.1,0,0,-.1,0,792)" stroke-width="5" stroke-linecap="butt" stroke-miterlimit="10" stroke-linejoin="miter" fill="none" stroke="#ffffff" d="M3728.4 5526.7 4155.2 5350 3952.7 5838.8Z"/>
<path transform="matrix(.1,0,0,-.1,0,792)" d="M2221.6 5526.7 1997.3 5838.8 1794.8 5350"/>
<path transform="matrix(.1,0,0,-.1,0,792)" stroke-width="5" stroke-linecap="butt" stroke-miterlimit="10" stroke-linejoin="miter" fill="none" stroke="#ffffff" d="M2221.6 5526.7 1997.3 5838.8 1794.8 5350Z"/>
<path transform="matrix(.1,0,0,-.1,0,792)" d="M2221.6 5526.7 2548.2 5662V6015.6L2221.6 6150.9 1997.3 5838.8" fill="#0000cc"/>
<path transform="matrix(.1,0,0,-.1,0,792)" stroke-width="5" stroke-linecap="butt" stroke-miterlimit="10" stroke-linejoin="miter" fill="none" stroke="#ffffff" d="M2221.6 5526.7 2548.2 5662V6015.6L2221.6 6150.9 1997.3 5838.8Z"/>
<path transform="matrix(.1,0,0,-.1,0,792)" d="M2221.6 2812.8 1997.3 2500.7 2221.6 2188.6 2548.2 2323.9V2677.5" fill="#0000cc"/>
<path transform="matrix(.1,0,0,-.1,0,792)" stroke-width="5" stroke-linecap="butt" stroke-miterlimit="10" stroke-linejoin="miter" fill="none" stroke="#ffffff" d="M2221.6 2812.8 1997.3 2500.7 2221.6 2188.6 2548.2 2323.9V2677.5Z"/>
<path transform="matrix(.1,0,0,-.1,0,792)" d="M2221.6 2812.8 1794.8 2989.6 1997.3 2500.7"/>
<path transform="matrix(.1,0,0,-.1,0,792)" stroke-width="5" stroke-linecap="butt" stroke-miterlimit="10" stroke-linejoin="miter" fill="none" stroke="#ffffff" d="M2221.6 2812.8 1794.8 2989.6 1997.3 2500.7Z"/>
<path transform="matrix(.1,0,0,-.1,0,792)" d="M3728.4 2812.8 3952.7 2500.7 4155.2 2989.6"/>
<path transform="matrix(.1,0,0,-.1,0,792)" stroke-width="5" stroke-linecap="butt" stroke-miterlimit="10" stroke-linejoin="miter" fill="none" stroke="#ffffff" d="M3728.4 2812.8 3952.7 2500.7 4155.2 2989.6Z"/>
<path transform="matrix(.1,0,0,-.1,0,792)" d="M3728.4 2812.8 3401.8 2677.5V2323.9L3728.4 2188.6 3952.7 2500.7" fill="#0000cc"/>
<path transform="matrix(.1,0,0,-.1,0,792)" stroke-width="5" stroke-linecap="butt" stroke-miterlimit="10" stroke-linejoin="miter" fill="none" stroke="#ffffff" d="M3728.4 2812.8 3401.8 2677.5V2323.9L3728.4 2188.6 3952.7 2500.7Z"/>
<path transform="matrix(.1,0,0,-.1,0,792)" d="M4005.3 3743 4332 3416.3 4467.3 3743"/>
<path transform="matrix(.1,0,0,-.1,0,792)" stroke-width="5" stroke-linecap="butt" stroke-miterlimit="10" stroke-linejoin="miter" fill="none" stroke="#ffffff" d="M4005.3 3743 4332 3416.3 4467.3 3743Z"/>
<path transform="matrix(.1,0,0,-.1,0,792)" d="M4005.3 4596.5H4467.3L4332 4923.2"/>
<path transform="matrix(.1,0,0,-.1,0,792)" stroke-width="5" stroke-linecap="butt" stroke-miterlimit="10" stroke-linejoin="miter" fill="none" stroke="#ffffff" d="M4005.3 4596.5H4467.3L4332 4923.2Z"/>
<path transform="matrix(.1,0,0,-.1,0,792)" d="M1944.7 4596.5 1618 4923.2 1482.7 4596.5"/>
<path transform="matrix(.1,0,0,-.1,0,792)" stroke-width="5" stroke-linecap="butt" stroke-miterlimit="10" stroke-linejoin="miter" fill="none" stroke="#ffffff" d="M1944.7 4596.5 1618 4923.2 1482.7 4596.5Z"/>
<path transform="matrix(.1,0,0,-.1,0,792)" d="M1944.7 3743H1482.7L1618 3416.3"/>
<path transform="matrix(.1,0,0,-.1,0,792)" stroke-width="5" stroke-linecap="butt" stroke-miterlimit="10" stroke-linejoin="miter" fill="none" stroke="#ffffff" d="M1944.7 3743H1482.7L1618 3416.3Z"/>
<path transform="matrix(.1,0,0,-.1,0,792)" d="M3401.8 5662V6015.6L2975 5838.8"/>
<path transform="matrix(.1,0,0,-.1,0,792)" stroke-width="5" stroke-linecap="butt" stroke-miterlimit="10" stroke-linejoin="miter" fill="none" stroke="#ffffff" d="M3401.8 5662V6015.6L2975 5838.8Z"/>
<path transform="matrix(.1,0,0,-.1,0,792)" d="M2548.2 5662 2975 5838.8 2548.2 6015.6"/>
<path transform="matrix(.1,0,0,-.1,0,792)" stroke-width="5" stroke-linecap="butt" stroke-miterlimit="10" stroke-linejoin="miter" fill="none" stroke="#ffffff" d="M2548.2 5662 2975 5838.8 2548.2 6015.6Z"/>
<path transform="matrix(.1,0,0,-.1,0,792)" d="M2548.2 2677.5V2323.9L2975 2500.7"/>
<path transform="matrix(.1,0,0,-.1,0,792)" stroke-width="5" stroke-linecap="butt" stroke-miterlimit="10" stroke-linejoin="miter" fill="none" stroke="#ffffff" d="M2548.2 2677.5V2323.9L2975 2500.7Z"/>
<path transform="matrix(.1,0,0,-.1,0,792)" d="M3401.8 2677.5 2975 2500.7 3401.8 2323.9"/>
<path transform="matrix(.1,0,0,-.1,0,792)" stroke-width="5" stroke-linecap="butt" stroke-miterlimit="10" stroke-linejoin="miter" fill="none" stroke="#ffffff" d="M3401.8 2677.5 2975 2500.7 3401.8 2323.9Z"/>
<path transform="matrix(.1,0,0,-.1,0,792)" d="M4155.2 2989.6 4644 3192.1 4332 3416.3"/>
<path transform="matrix(.1,0,0,-.1,0,792)" stroke-width="5" stroke-linecap="butt" stroke-miterlimit="10" stroke-linejoin="miter" fill="none" stroke="#ffffff" d="M4155.2 2989.6 4644 3192.1 4332 3416.3Z"/>
<path transform="matrix(.1,0,0,-.1,0,792)" d="M4155.2 2989.6 4644 2787.1 5132.9 2989.6 4644 3192.1Z" fill="#808080"/>
<path transform="matrix(.1,0,0,-.1,0,792)" stroke-width="5" stroke-linecap="butt" stroke-miterlimit="10" stroke-linejoin="miter" fill="none" stroke="#ffffff" d="M4155.2 2989.6 4644 2787.1 5132.9 2989.6 4644 3192.1Z"/>
<path transform="matrix(.1,0,0,-.1,0,792)" d="M4155.2 2989.6 4357.7 2500.7 4155.2 2011.9 4644 2214.4 5132.9 2011.9 4930.4 2500.7 5132.9 2989.6 4644 2787.1"/>
<path transform="matrix(.1,0,0,-.1,0,792)" stroke-width="5" stroke-linecap="butt" stroke-miterlimit="10" stroke-linejoin="miter" fill="none" stroke="#ffffff" d="M4155.2 2989.6 4357.7 2500.7 4155.2 2011.9 4644 2214.4 5132.9 2011.9 4930.4 2500.7 5132.9 2989.6 4644 2787.1Z"/>
<path transform="matrix(.1,0,0,-.1,0,792)" d="M4155.2 2989.6 3952.7 2500.7 4155.2 2011.9 4357.7 2500.7Z" fill="#808080"/>
<path transform="matrix(.1,0,0,-.1,0,792)" stroke-width="5" stroke-linecap="butt" stroke-miterlimit="10" stroke-linejoin="miter" fill="none" stroke="#ffffff" d="M4155.2 2989.6 3952.7 2500.7 4155.2 2011.9 4357.7 2500.7Z"/>
<path transform="matrix(.1,0,0,-.1,0,792)" d="M4155.2 5350 4357.7 5838.8 4155.2 6327.7 3952.7 5838.8Z" fill="#808080"/>
<path transform="matrix(.1,0,0,-.1,0,792)" stroke-width="5" stroke-linecap="butt" stroke-miterlimit="10" stroke-linejoin="miter" fill="none" stroke="#ffffff" d="M4155.2 5350 4357.7 5838.8 4155.2 6327.7 3952.7 5838.8Z"/>
<path transform="matrix(.1,0,0,-.1,0,792)" d="M4155.2 5350 4644 5552.4 5132.9 5350 4930.4 5838.8 5132.9 6327.7 4644 6125.2 4155.2 6327.7 4357.7 5838.8"/>
<path transform="matrix(.1,0,0,-.1,0,792)" stroke-width="5" stroke-linecap="butt" stroke-miterlimit="10" stroke-linejoin="miter" fill="none" stroke="#ffffff" d="M4155.2 5350 4644 5552.4 5132.9 5350 4930.4 5838.8 5132.9 6327.7 4644 6125.2 4155.2 6327.7 4357.7 5838.8Z"/>
<path transform="matrix(.1,0,0,-.1,0,792)" d="M4155.2 5350 4644 5147.5 5132.9 5350 4644 5552.4Z" fill="#808080"/>
<path transform="matrix(.1,0,0,-.1,0,792)" stroke-width="5" stroke-linecap="butt" stroke-miterlimit="10" stroke-linejoin="miter" fill="none" stroke="#ffffff" d="M4155.2 5350 4644 5147.5 5132.9 5350 4644 5552.4Z"/>
<path transform="matrix(.1,0,0,-.1,0,792)" d="M4155.2 5350 4332 4923.2 4644 5147.5"/>
<path transform="matrix(.1,0,0,-.1,0,792)" stroke-width="5" stroke-linecap="butt" stroke-miterlimit="10" stroke-linejoin="miter" fill="none" stroke="#ffffff" d="M4155.2 5350 4332 4923.2 4644 5147.5Z"/>
<path transform="matrix(.1,0,0,-.1,0,792)" d="M1794.8 5350 1306 5147.5 1618 4923.2"/>
<path transform="matrix(.1,0,0,-.1,0,792)" stroke-width="5" stroke-linecap="butt" stroke-miterlimit="10" stroke-linejoin="miter" fill="none" stroke="#ffffff" d="M1794.8 5350 1306 5147.5 1618 4923.2Z"/>
<path transform="matrix(.1,0,0,-.1,0,792)" d="M1794.8 5350 1306 5552.4 817.102 5350 1306 5147.5Z" fill="#808080"/>
<path transform="matrix(.1,0,0,-.1,0,792)" stroke-width="5" stroke-linecap="butt" stroke-miterlimit="10" stroke-linejoin="miter" fill="none" stroke="#ffffff" d="M1794.8 5350 1306 5552.4 817.102 5350 1306 5147.5Z"/>
<path transform="matrix(.1,0,0,-.1,0,792)" d="M1794.8 5350 1592.3 5838.8 1794.8 6327.7 1306 6125.2 817.102 6327.7 1019.6 5838.8 817.102 5350 1306 5552.4"/>
<path transform="matrix(.1,0,0,-.1,0,792)" stroke-width="5" stroke-linecap="butt" stroke-miterlimit="10" stroke-linejoin="miter" fill="none" stroke="#ffffff" d="M1794.8 5350 1592.3 5838.8 1794.8 6327.7 1306 6125.2 817.102 6327.7 1019.6 5838.8 817.102 5350 1306 5552.4Z"/>
<path transform="matrix(.1,0,0,-.1,0,792)" d="M1794.8 5350 1997.3 5838.8 1794.8 6327.7 1592.3 5838.8Z" fill="#808080"/>
<path transform="matrix(.1,0,0,-.1,0,792)" stroke-width="5" stroke-linecap="butt" stroke-miterlimit="10" stroke-linejoin="miter" fill="none" stroke="#ffffff" d="M1794.8 5350 1997.3 5838.8 1794.8 6327.7 1592.3 5838.8Z"/>
<path transform="matrix(.1,0,0,-.1,0,792)" d="M1794.8 2989.6 1592.3 2500.7 1794.8 2011.9 1997.3 2500.7Z" fill="#808080"/>
<path transform="matrix(.1,0,0,-.1,0,792)" stroke-width="5" stroke-linecap="butt" stroke-miterlimit="10" stroke-linejoin="miter" fill="none" stroke="#ffffff" d="M1794.8 2989.6 1592.3 2500.7 1794.8 2011.9 1997.3 2500.7Z"/>
<path transform="matrix(.1,0,0,-.1,0,792)" d="M1794.8 2989.6 1306 2787.1 817.102 2989.6 1019.6 2500.7 817.102 2011.9 1306 2214.4 1794.8 2011.9 1592.3 2500.7"/>
<path transform="matrix(.1,0,0,-.1,0,792)" stroke-width="5" stroke-linecap="butt" stroke-miterlimit="10" stroke-linejoin="miter" fill="none" stroke="#ffffff" d="M1794.8 2989.6 1306 2787.1 817.102 2989.6 1019.6 2500.7 817.102 2011.9 1306 2214.4 1794.8 2011.9 1592.3 2500.7Z"/>
<path transform="matrix(.1,0,0,-.1,0,792)" d="M1794.8 2989.6 1306 3192.1 817.102 2989.6 1306 2787.1Z" fill="#808080"/>
<path transform="matrix(.1,0,0,-.1,0,792)" stroke-width="5" stroke-linecap="butt" stroke-miterlimit="10" stroke-linejoin="miter" fill="none" stroke="#ffffff" d="M1794.8 2989.6 1306 3192.1 817.102 2989.6 1306 2787.1Z"/>
<path transform="matrix(.1,0,0,-.1,0,792)" d="M1794.8 2989.6 1618 3416.3 1306 3192.1"/>
<path transform="matrix(.1,0,0,-.1,0,792)" stroke-width="5" stroke-linecap="butt" stroke-miterlimit="10" stroke-linejoin="miter" fill="none" stroke="#ffffff" d="M1794.8 2989.6 1618 3416.3 1306 3192.1Z"/>
<path transform="matrix(.1,0,0,-.1,0,792)" d="M3952.7 5838.8 4155.2 6327.7 3728.4 6150.9"/>
<path transform="matrix(.1,0,0,-.1,0,792)" stroke-width="5" stroke-linecap="butt" stroke-miterlimit="10" stroke-linejoin="miter" fill="none" stroke="#ffffff" d="M3952.7 5838.8 4155.2 6327.7 3728.4 6150.9Z"/>
<path transform="matrix(.1,0,0,-.1,0,792)" d="M2975 5838.8 3401.8 6015.6V6477.5L2975 6904.3 2548.2 6477.5V6015.6" fill="#808080"/>
<path transform="matrix(.1,0,0,-.1,0,792)" stroke-width="5" stroke-linecap="butt" stroke-miterlimit="10" stroke-linejoin="miter" fill="none" stroke="#ffffff" d="M2975 5838.8 3401.8 6015.6V6477.5L2975 6904.3 2548.2 6477.5V6015.6Z"/>
<path transform="matrix(.1,0,0,-.1,0,792)" d="M1997.3 5838.8 2221.6 6150.9 1794.8 6327.7"/>
<path transform="matrix(.1,0,0,-.1,0,792)" stroke-width="5" stroke-linecap="butt" stroke-miterlimit="10" stroke-linejoin="miter" fill="none" stroke="#ffffff" d="M1997.3 5838.8 2221.6 6150.9 1794.8 6327.7Z"/>
<path transform="matrix(.1,0,0,-.1,0,792)" d="M1997.3 2500.7 1794.8 2011.9 2221.6 2188.6"/>
<path transform="matrix(.1,0,0,-.1,0,792)" stroke-width="5" stroke-linecap="butt" stroke-miterlimit="10" stroke-linejoin="miter" fill="none" stroke="#ffffff" d="M1997.3 2500.7 1794.8 2011.9 2221.6 2188.6Z"/>
<path transform="matrix(.1,0,0,-.1,0,792)" d="M2975 2500.7 2548.2 2323.9V1862L2975 1435.2 3401.8 1862V2323.9" fill="#808080"/>
<path transform="matrix(.1,0,0,-.1,0,792)" stroke-width="5" stroke-linecap="butt" stroke-miterlimit="10" stroke-linejoin="miter" fill="none" stroke="#ffffff" d="M2975 2500.7 2548.2 2323.9V1862L2975 1435.2 3401.8 1862V2323.9Z"/>
<path transform="matrix(.1,0,0,-.1,0,792)" d="M3952.7 2500.7 3728.4 2188.6 4155.2 2011.9"/>
<path transform="matrix(.1,0,0,-.1,0,792)" stroke-width="5" stroke-linecap="butt" stroke-miterlimit="10" stroke-linejoin="miter" fill="none" stroke="#ffffff" d="M3952.7 2500.7 3728.4 2188.6 4155.2 2011.9Z"/>
<path transform="matrix(.1,0,0,-.1,0,792)" d="M3401.8 6015.6 3728.4 6150.9 3401.8 6477.5"/>
<path transform="matrix(.1,0,0,-.1,0,792)" stroke-width="5" stroke-linecap="butt" stroke-miterlimit="10" stroke-linejoin="miter" fill="none" stroke="#ffffff" d="M3401.8 6015.6 3728.4 6150.9 3401.8 6477.5Z"/>
<path transform="matrix(.1,0,0,-.1,0,792)" d="M2548.2 6015.6V6477.5L2221.6 6150.9"/>
<path transform="matrix(.1,0,0,-.1,0,792)" stroke-width="5" stroke-linecap="butt" stroke-miterlimit="10" stroke-linejoin="miter" fill="none" stroke="#ffffff" d="M2548.2 6015.6V6477.5L2221.6 6150.9Z"/>
<path transform="matrix(.1,0,0,-.1,0,792)" d="M1618 4923.2 1306 5147.5 993.898 4923.2 1129.2 4596.5H1482.7" fill="#0000cc"/>
<path transform="matrix(.1,0,0,-.1,0,792)" stroke-width="5" stroke-linecap="butt" stroke-miterlimit="10" stroke-linejoin="miter" fill="none" stroke="#ffffff" d="M1618 4923.2 1306 5147.5 993.898 4923.2 1129.2 4596.5H1482.7Z"/>
<path transform="matrix(.1,0,0,-.1,0,792)" d="M1618 3416.3 1482.7 3743H1129.2L993.898 3416.3 1306 3192.1" fill="#0000cc"/>
<path transform="matrix(.1,0,0,-.1,0,792)" stroke-width="5" stroke-linecap="butt" stroke-miterlimit="10" stroke-linejoin="miter" fill="none" stroke="#ffffff" d="M1618 3416.3 1482.7 3743H1129.2L993.898 3416.3 1306 3192.1Z"/>
<path transform="matrix(.1,0,0,-.1,0,792)" d="M4332 3416.3 4644 3192.1 4956.1 3416.3 4820.8 3743H4467.3" fill="#0000cc"/>
<path transform="matrix(.1,0,0,-.1,0,792)" stroke-width="5" stroke-linecap="butt" stroke-miterlimit="10" stroke-linejoin="miter" fill="none" stroke="#ffffff" d="M4332 3416.3 4644 3192.1 4956.1 3416.3 4820.8 3743H4467.3Z"/>
<path transform="matrix(.1,0,0,-.1,0,792)" d="M4332 4923.2 4467.3 4596.5H4820.8L4956.1 4923.2 4644 5147.5" fill="#0000cc"/>
<path transform="matrix(.1,0,0,-.1,0,792)" stroke-width="5" stroke-linecap="butt" stroke-miterlimit="10" stroke-linejoin="miter" fill="none" stroke="#ffffff" d="M4332 4923.2 4467.3 4596.5H4820.8L4956.1 4923.2 4644 5147.5Z"/>
<path transform="matrix(.1,0,0,-.1,0,792)" d="M2548.2 2323.9 2221.6 2188.6 2548.2 1862"/>
<path transform="matrix(.1,0,0,-.1,0,792)" stroke-width="5" stroke-linecap="butt" stroke-miterlimit="10" stroke-linejoin="miter" fill="none" stroke="#ffffff" d="M2548.2 2323.9 2221.6 2188.6 2548.2 1862Z"/>
<path transform="matrix(.1,0,0,-.1,0,792)" d="M3401.8 2323.9V1862L3728.4 2188.6"/>
<path transform="matrix(.1,0,0,-.1,0,792)" stroke-width="5" stroke-linecap="butt" stroke-miterlimit="10" stroke-linejoin="miter" fill="none" stroke="#ffffff" d="M3401.8 2323.9V1862L3728.4 2188.6Z"/>
<path transform="matrix(.1,0,0,-.1,0,792)" d="M3728.4 6150.9 4155.2 6327.7 4332 6754.4 4005.3 7081.1H3401.8V6477.5" fill="#808080"/>
<path transform="matrix(.1,0,0,-.1,0,792)" stroke-width="5" stroke-linecap="butt" stroke-miterlimit="10" stroke-linejoin="miter" fill="none" stroke="#ffffff" d="M3728.4 6150.9 4155.2 6327.7 4332 6754.4 4005.3 7081.1H3401.8V6477.5Z"/>
<path transform="matrix(.1,0,0,-.1,0,792)" d="M2221.6 6150.9 2548.2 6477.5V7081.1H1944.7L1618 6754.4 1794.8 6327.7" fill="#808080"/>
<path transform="matrix(.1,0,0,-.1,0,792)" stroke-width="5" stroke-linecap="butt" stroke-miterlimit="10" stroke-linejoin="miter" fill="none" stroke="#ffffff" d="M2221.6 6150.9 2548.2 6477.5V7081.1H1944.7L1618 6754.4 1794.8 6327.7Z"/>
<path transform="matrix(.1,0,0,-.1,0,792)" d="M2221.6 2188.6 1794.8 2011.9 1618 1585.1 1944.7 1258.4H2548.2V1862" fill="#808080"/>
<path transform="matrix(.1,0,0,-.1,0,792)" stroke-width="5" stroke-linecap="butt" stroke-miterlimit="10" stroke-linejoin="miter" fill="none" stroke="#ffffff" d="M2221.6 2188.6 1794.8 2011.9 1618 1585.1 1944.7 1258.4H2548.2V1862Z"/>
<path transform="matrix(.1,0,0,-.1,0,792)" d="M3728.4 2188.6 3401.8 1862V1258.4H4005.3L4332 1585.1 4155.2 2011.9" fill="#808080"/>
<path transform="matrix(.1,0,0,-.1,0,792)" stroke-width="5" stroke-linecap="butt" stroke-miterlimit="10" stroke-linejoin="miter" fill="none" stroke="#ffffff" d="M3728.4 2188.6 3401.8 1862V1258.4H4005.3L4332 1585.1 4155.2 2011.9Z"/>
<path transform="matrix(.1,0,0,-.1,0,792)" d="M4467.3 3743H4820.8L4644 4169.8"/>
<path transform="matrix(.1,0,0,-.1,0,792)" stroke-width="5" stroke-linecap="butt" stroke-miterlimit="10" stroke-linejoin="miter" fill="none" stroke="#ffffff" d="M4467.3 3743H4820.8L4644 4169.8Z"/>
<path transform="matrix(.1,0,0,-.1,0,792)" d="M4467.3 4596.5 4644 4169.8 4820.8 4596.5"/>
<path transform="matrix(.1,0,0,-.1,0,792)" stroke-width="5" stroke-linecap="butt" stroke-miterlimit="10" stroke-linejoin="miter" fill="none" stroke="#ffffff" d="M4467.3 4596.5 4644 4169.8 4820.8 4596.5Z"/>
<path transform="matrix(.1,0,0,-.1,0,792)" d="M1482.7 4596.5H1129.2L1306 4169.8"/>
<path transform="matrix(.1,0,0,-.1,0,792)" stroke-width="5" stroke-linecap="butt" stroke-miterlimit="10" stroke-linejoin="miter" fill="none" stroke="#ffffff" d="M1482.7 4596.5H1129.2L1306 4169.8Z"/>
<path transform="matrix(.1,0,0,-.1,0,792)" d="M1482.7 3743 1306 4169.8 1129.2 3743"/>
<path transform="matrix(.1,0,0,-.1,0,792)" stroke-width="5" stroke-linecap="butt" stroke-miterlimit="10" stroke-linejoin="miter" fill="none" stroke="#ffffff" d="M1482.7 3743 1306 4169.8 1129.2 3743Z"/>
<path transform="matrix(.1,0,0,-.1,0,792)" d="M4155.2 6327.7 4644 6530.2 4332 6754.4"/>
<path transform="matrix(.1,0,0,-.1,0,792)" stroke-width="5" stroke-linecap="butt" stroke-miterlimit="10" stroke-linejoin="miter" fill="none" stroke="#ffffff" d="M4155.2 6327.7 4644 6530.2 4332 6754.4Z"/>
<path transform="matrix(.1,0,0,-.1,0,792)" d="M4155.2 6327.7 4644 6125.2 5132.9 6327.7 4644 6530.2Z" fill="#808080"/>
<path transform="matrix(.1,0,0,-.1,0,792)" stroke-width="5" stroke-linecap="butt" stroke-miterlimit="10" stroke-linejoin="miter" fill="none" stroke="#ffffff" d="M4155.2 6327.7 4644 6125.2 5132.9 6327.7 4644 6530.2Z"/>
<path transform="matrix(.1,0,0,-.1,0,792)" d="M1794.8 6327.7 1306 6530.2 817.102 6327.7 1306 6125.2Z" fill="#808080"/>
<path transform="matrix(.1,0,0,-.1,0,792)" stroke-width="5" stroke-linecap="butt" stroke-miterlimit="10" stroke-linejoin="miter" fill="none" stroke="#ffffff" d="M1794.8 6327.7 1306 6530.2 817.102 6327.7 1306 6125.2Z"/>
<path transform="matrix(.1,0,0,-.1,0,792)" d="M1794.8 6327.7 1618 6754.4 1306 6530.2"/>
<path transform="matrix(.1,0,0,-.1,0,792)" stroke-width="5" stroke-linecap="butt" stroke-miterlimit="10" stroke-linejoin="miter" fill="none" stroke="#ffffff" d="M1794.8 6327.7 1618 6754.4 1306 6530.2Z"/>
<path transform="matrix(.1,0,0,-.1,0,792)" d="M1794.8 2011.9 1306 1809.4 1618 1585.1"/>
<path transform="matrix(.1,0,0,-.1,0,792)" stroke-width="5" stroke-linecap="butt" stroke-miterlimit="10" stroke-linejoin="miter" fill="none" stroke="#ffffff" d="M1794.8 2011.9 1306 1809.4 1618 1585.1Z"/>
<path transform="matrix(.1,0,0,-.1,0,792)" d="M1794.8 2011.9 1306 2214.4 817.102 2011.9 1306 1809.4Z" fill="#808080"/>
<path transform="matrix(.1,0,0,-.1,0,792)" stroke-width="5" stroke-linecap="butt" stroke-miterlimit="10" stroke-linejoin="miter" fill="none" stroke="#ffffff" d="M1794.8 2011.9 1306 2214.4 817.102 2011.9 1306 1809.4Z"/>
<path transform="matrix(.1,0,0,-.1,0,792)" d="M4155.2 2011.9 4644 1809.4 5132.9 2011.9 4644 2214.4Z" fill="#808080"/>
<path transform="matrix(.1,0,0,-.1,0,792)" stroke-width="5" stroke-linecap="butt" stroke-miterlimit="10" stroke-linejoin="miter" fill="none" stroke="#ffffff" d="M4155.2 2011.9 4644 1809.4 5132.9 2011.9 4644 2214.4Z"/>
<path transform="matrix(.1,0,0,-.1,0,792)" d="M4155.2 2011.9 4332 1585.1 4644 1809.4"/>
<path transform="matrix(.1,0,0,-.1,0,792)" stroke-width="5" stroke-linecap="butt" stroke-miterlimit="10" stroke-linejoin="miter" fill="none" stroke="#ffffff" d="M4155.2 2011.9 4332 1585.1 4644 1809.4Z"/>
<path transform="matrix(.1,0,0,-.1,0,792)" d="M3401.8 6477.5V7081.1H3151.8L2975 6904.3Z"/>
<path transform="matrix(.1,0,0,-.1,0,792)" stroke-width="5" stroke-linecap="butt" stroke-miterlimit="10" stroke-linejoin="miter" fill="none" stroke="#ffffff" d="M3401.8 6477.5V7081.1H3151.8L2975 6904.3Z"/>
<path transform="matrix(.1,0,0,-.1,0,792)" d="M2548.2 6477.5 2975 6904.3 2798.2 7081.1H2548.2Z"/>
<path transform="matrix(.1,0,0,-.1,0,792)" stroke-width="5" stroke-linecap="butt" stroke-miterlimit="10" stroke-linejoin="miter" fill="none" stroke="#ffffff" d="M2548.2 6477.5 2975 6904.3 2798.2 7081.1H2548.2Z"/>
<path transform="matrix(.1,0,0,-.1,0,792)" d="M1306 5147.5 817.102 5350 993.898 4923.2"/>
<path transform="matrix(.1,0,0,-.1,0,792)" stroke-width="5" stroke-linecap="butt" stroke-miterlimit="10" stroke-linejoin="miter" fill="none" stroke="#ffffff" d="M1306 5147.5 817.102 5350 993.898 4923.2Z"/>
<path transform="matrix(.1,0,0,-.1,0,792)" d="M1306 4169.8 1129.2 4596.5H667.199L240.5 4169.8 667.199 3743H1129.2" fill="#808080"/>
<path transform="matrix(.1,0,0,-.1,0,792)" stroke-width="5" stroke-linecap="butt" stroke-miterlimit="10" stroke-linejoin="miter" fill="none" stroke="#ffffff" d="M1306 4169.8 1129.2 4596.5H667.199L240.5 4169.8 667.199 3743H1129.2Z"/>
<path transform="matrix(.1,0,0,-.1,0,792)" d="M1306 3192.1 993.898 3416.3 817.102 2989.6"/>
<path transform="matrix(.1,0,0,-.1,0,792)" stroke-width="5" stroke-linecap="butt" stroke-miterlimit="10" stroke-linejoin="miter" fill="none" stroke="#ffffff" d="M1306 3192.1 993.898 3416.3 817.102 2989.6Z"/>
<path transform="matrix(.1,0,0,-.1,0,792)" d="M4644 3192.1 5132.9 2989.6 4956.1 3416.3"/>
<path transform="matrix(.1,0,0,-.1,0,792)" stroke-width="5" stroke-linecap="butt" stroke-miterlimit="10" stroke-linejoin="miter" fill="none" stroke="#ffffff" d="M4644 3192.1 5132.9 2989.6 4956.1 3416.3Z"/>
<path transform="matrix(.1,0,0,-.1,0,792)" d="M4644 4169.8 4820.8 3743H5282.8L5709.5 4169.8 5282.8 4596.5H4820.8" fill="#808080"/>
<path transform="matrix(.1,0,0,-.1,0,792)" stroke-width="5" stroke-linecap="butt" stroke-miterlimit="10" stroke-linejoin="miter" fill="none" stroke="#ffffff" d="M4644 4169.8 4820.8 3743H5282.8L5709.5 4169.8 5282.8 4596.5H4820.8Z"/>
<path transform="matrix(.1,0,0,-.1,0,792)" d="M4644 5147.5 4956.1 4923.2 5132.9 5350"/>
<path transform="matrix(.1,0,0,-.1,0,792)" stroke-width="5" stroke-linecap="butt" stroke-miterlimit="10" stroke-linejoin="miter" fill="none" stroke="#ffffff" d="M4644 5147.5 4956.1 4923.2 5132.9 5350Z"/>
<path transform="matrix(.1,0,0,-.1,0,792)" d="M4644 6530.2 4956.1 6754.4 4820.8 7081.1H4467.3L4332 6754.4" fill="#0000cc"/>
<path transform="matrix(.1,0,0,-.1,0,792)" stroke-width="5" stroke-linecap="butt" stroke-miterlimit="10" stroke-linejoin="miter" fill="none" stroke="#ffffff" d="M4644 6530.2 4956.1 6754.4 4820.8 7081.1H4467.3L4332 6754.4Z"/>
<path transform="matrix(.1,0,0,-.1,0,792)" d="M4644 6530.2 5132.9 6327.7 4956.1 6754.4"/>
<path transform="matrix(.1,0,0,-.1,0,792)" stroke-width="5" stroke-linecap="butt" stroke-miterlimit="10" stroke-linejoin="miter" fill="none" stroke="#ffffff" d="M4644 6530.2 5132.9 6327.7 4956.1 6754.4Z"/>
<path transform="matrix(.1,0,0,-.1,0,792)" d="M1306 6530.2 993.898 6754.4 817.102 6327.7"/>
<path transform="matrix(.1,0,0,-.1,0,792)" stroke-width="5" stroke-linecap="butt" stroke-miterlimit="10" stroke-linejoin="miter" fill="none" stroke="#ffffff" d="M1306 6530.2 993.898 6754.4 817.102 6327.7Z"/>
<path transform="matrix(.1,0,0,-.1,0,792)" d="M1306 6530.2 1618 6754.4 1482.7 7081.1H1129.2L993.898 6754.4" fill="#0000cc"/>
<path transform="matrix(.1,0,0,-.1,0,792)" stroke-width="5" stroke-linecap="butt" stroke-miterlimit="10" stroke-linejoin="miter" fill="none" stroke="#ffffff" d="M1306 6530.2 1618 6754.4 1482.7 7081.1H1129.2L993.898 6754.4Z"/>
<path transform="matrix(.1,0,0,-.1,0,792)" d="M2548.2 1862V1258.4H2798.2L2975 1435.2Z"/>
<path transform="matrix(.1,0,0,-.1,0,792)" stroke-width="5" stroke-linecap="butt" stroke-miterlimit="10" stroke-linejoin="miter" fill="none" stroke="#ffffff" d="M2548.2 1862V1258.4H2798.2L2975 1435.2Z"/>
<path transform="matrix(.1,0,0,-.1,0,792)" d="M3401.8 1862 2975 1435.2 3151.8 1258.4H3401.8Z"/>
<path transform="matrix(.1,0,0,-.1,0,792)" stroke-width="5" stroke-linecap="butt" stroke-miterlimit="10" stroke-linejoin="miter" fill="none" stroke="#ffffff" d="M3401.8 1862 2975 1435.2 3151.8 1258.4H3401.8Z"/>
<path transform="matrix(.1,0,0,-.1,0,792)" d="M4644 1809.4 4956.1 1585.1 5132.9 2011.9"/>
<path transform="matrix(.1,0,0,-.1,0,792)" stroke-width="5" stroke-linecap="butt" stroke-miterlimit="10" stroke-linejoin="miter" fill="none" stroke="#ffffff" d="M4644 1809.4 4956.1 1585.1 5132.9 2011.9Z"/>
<path transform="matrix(.1,0,0,-.1,0,792)" d="M4644 1809.4 4332 1585.1 4467.3 1258.4H4820.8L4956.1 1585.1" fill="#0000cc"/>
<path transform="matrix(.1,0,0,-.1,0,792)" stroke-width="5" stroke-linecap="butt" stroke-miterlimit="10" stroke-linejoin="miter" fill="none" stroke="#ffffff" d="M4644 1809.4 4332 1585.1 4467.3 1258.4H4820.8L4956.1 1585.1Z"/>
<path transform="matrix(.1,0,0,-.1,0,792)" d="M1306 1809.4 993.898 1585.1 1129.2 1258.4H1482.7L1618 1585.1" fill="#0000cc"/>
<path transform="matrix(.1,0,0,-.1,0,792)" stroke-width="5" stroke-linecap="butt" stroke-miterlimit="10" stroke-linejoin="miter" fill="none" stroke="#ffffff" d="M1306 1809.4 993.898 1585.1 1129.2 1258.4H1482.7L1618 1585.1Z"/>
<path transform="matrix(.1,0,0,-.1,0,792)" d="M1306 1809.4 817.102 2011.9 993.898 1585.1"/>
<path transform="matrix(.1,0,0,-.1,0,792)" stroke-width="5" stroke-linecap="butt" stroke-miterlimit="10" stroke-linejoin="miter" fill="none" stroke="#ffffff" d="M1306 1809.4 817.102 2011.9 993.898 1585.1Z"/>
<path transform="matrix(.1,0,0,-.1,0,792)" d="M4820.8 3743 4956.1 3416.3 5282.8 3743"/>
<path transform="matrix(.1,0,0,-.1,0,792)" stroke-width="5" stroke-linecap="butt" stroke-miterlimit="10" stroke-linejoin="miter" fill="none" stroke="#ffffff" d="M4820.8 3743 4956.1 3416.3 5282.8 3743Z"/>
<path transform="matrix(.1,0,0,-.1,0,792)" d="M4820.8 4596.5H5282.8L4956.1 4923.2"/>
<path transform="matrix(.1,0,0,-.1,0,792)" stroke-width="5" stroke-linecap="butt" stroke-miterlimit="10" stroke-linejoin="miter" fill="none" stroke="#ffffff" d="M4820.8 4596.5H5282.8L4956.1 4923.2Z"/>
<path transform="matrix(.1,0,0,-.1,0,792)" d="M1129.2 4596.5 993.898 4923.2 667.199 4596.5"/>
<path transform="matrix(.1,0,0,-.1,0,792)" stroke-width="5" stroke-linecap="butt" stroke-miterlimit="10" stroke-linejoin="miter" fill="none" stroke="#ffffff" d="M1129.2 4596.5 993.898 4923.2 667.199 4596.5Z"/>
<path transform="matrix(.1,0,0,-.1,0,792)" d="M1129.2 3743H667.199L993.898 3416.3"/>
<path transform="matrix(.1,0,0,-.1,0,792)" stroke-width="5" stroke-linecap="butt" stroke-miterlimit="10" stroke-linejoin="miter" fill="none" stroke="#ffffff" d="M1129.2 3743H667.199L993.898 3416.3Z"/>
<path transform="matrix(.1,0,0,-.1,0,792)" d="M4332 6754.4 4467.3 7081.1H4005.3"/>
<path transform="matrix(.1,0,0,-.1,0,792)" stroke-width="5" stroke-linecap="butt" stroke-miterlimit="10" stroke-linejoin="miter" fill="none" stroke="#ffffff" d="M4332 6754.4 4467.3 7081.1H4005.3Z"/>
<path transform="matrix(.1,0,0,-.1,0,792)" d="M1618 6754.4 1944.7 7081.1H1482.7"/>
<path transform="matrix(.1,0,0,-.1,0,792)" stroke-width="5" stroke-linecap="butt" stroke-miterlimit="10" stroke-linejoin="miter" fill="none" stroke="#ffffff" d="M1618 6754.4 1944.7 7081.1H1482.7Z"/>
<path transform="matrix(.1,0,0,-.1,0,792)" d="M1618 1585.1 1482.7 1258.4H1944.7"/>
<path transform="matrix(.1,0,0,-.1,0,792)" stroke-width="5" stroke-linecap="butt" stroke-miterlimit="10" stroke-linejoin="miter" fill="none" stroke="#ffffff" d="M1618 1585.1 1482.7 1258.4H1944.7Z"/>
<path transform="matrix(.1,0,0,-.1,0,792)" d="M4332 1585.1 4005.3 1258.4H4467.3"/>
<path transform="matrix(.1,0,0,-.1,0,792)" stroke-width="5" stroke-linecap="butt" stroke-miterlimit="10" stroke-linejoin="miter" fill="none" stroke="#ffffff" d="M4332 1585.1 4005.3 1258.4H4467.3Z"/>
<path transform="matrix(.1,0,0,-.1,0,792)" d="M4930.4 2500.7 5132.9 2011.9 5335.4 2500.7 5132.9 2989.6Z" fill="#808080"/>
<path transform="matrix(.1,0,0,-.1,0,792)" stroke-width="5" stroke-linecap="butt" stroke-miterlimit="10" stroke-linejoin="miter" fill="none" stroke="#ffffff" d="M4930.4 2500.7 5132.9 2011.9 5335.4 2500.7 5132.9 2989.6Z"/>
<path transform="matrix(.1,0,0,-.1,0,792)" d="M4930.4 5838.8 5132.9 5350 5335.4 5838.8 5132.9 6327.7Z" fill="#808080"/>
<path transform="matrix(.1,0,0,-.1,0,792)" stroke-width="5" stroke-linecap="butt" stroke-miterlimit="10" stroke-linejoin="miter" fill="none" stroke="#ffffff" d="M4930.4 5838.8 5132.9 5350 5335.4 5838.8 5132.9 6327.7Z"/>
<path transform="matrix(.1,0,0,-.1,0,792)" d="M1019.6 5838.8 817.102 6327.7 614.602 5838.8 817.102 5350Z" fill="#808080"/>
<path transform="matrix(.1,0,0,-.1,0,792)" stroke-width="5" stroke-linecap="butt" stroke-miterlimit="10" stroke-linejoin="miter" fill="none" stroke="#ffffff" d="M1019.6 5838.8 817.102 6327.7 614.602 5838.8 817.102 5350Z"/>
<path transform="matrix(.1,0,0,-.1,0,792)" d="M1019.6 2500.7 817.102 2989.6 614.602 2500.7 817.102 2011.9Z" fill="#808080"/>
<path transform="matrix(.1,0,0,-.1,0,792)" stroke-width="5" stroke-linecap="butt" stroke-miterlimit="10" stroke-linejoin="miter" fill="none" stroke="#ffffff" d="M1019.6 2500.7 817.102 2989.6 614.602 2500.7 817.102 2011.9Z"/>
<path transform="matrix(.1,0,0,-.1,0,792)" d="M2975 6904.3 3151.8 7081.1H3401.8V7331.1L3578.6 7507.9 3401.8 7684.6V7934.6H3151.8L2975 8111.4 2798.2 7934.6H2548.2V7684.6L2371.4 7507.9 2548.2 7331.1V7081.1H2798.2" fill="#808080"/>
<path transform="matrix(.1,0,0,-.1,0,792)" stroke-width="5" stroke-linecap="butt" stroke-miterlimit="10" stroke-linejoin="miter" fill="none" stroke="#ffffff" d="M2975 6904.3 3151.8 7081.1H3401.8V7331.1L3578.6 7507.9 3401.8 7684.6V7934.6H3151.8L2975 8111.4 2798.2 7934.6H2548.2V7684.6L2371.4 7507.9 2548.2 7331.1V7081.1H2798.2Z"/>
<path transform="matrix(.1,0,0,-.1,0,792)" d="M993.898 6754.4 667.199 7081.1H63.6992V6477.5L390.301 6150.9 817.102 6327.7" fill="#808080"/>
<path transform="matrix(.1,0,0,-.1,0,792)" stroke-width="5" stroke-linecap="butt" stroke-miterlimit="10" stroke-linejoin="miter" fill="none" stroke="#ffffff" d="M993.898 6754.4 667.199 7081.1H63.6992V6477.5L390.301 6150.9 817.102 6327.7Z"/>
<path transform="matrix(.1,0,0,-.1,0,792)" d="M993.898 6754.4 1129.2 7081.1H667.199"/>
<path transform="matrix(.1,0,0,-.1,0,792)" stroke-width="5" stroke-linecap="butt" stroke-miterlimit="10" stroke-linejoin="miter" fill="none" stroke="#ffffff" d="M993.898 6754.4 1129.2 7081.1H667.199Z"/>
<path transform="matrix(.1,0,0,-.1,0,792)" d="M993.898 4923.2 817.102 5350 390.301 5526.7 63.6992 5200.1V4596.5H667.199" fill="#808080"/>
<path transform="matrix(.1,0,0,-.1,0,792)" stroke-width="5" stroke-linecap="butt" stroke-miterlimit="10" stroke-linejoin="miter" fill="none" stroke="#ffffff" d="M993.898 4923.2 817.102 5350 390.301 5526.7 63.6992 5200.1V4596.5H667.199Z"/>
<path transform="matrix(.1,0,0,-.1,0,792)" d="M993.898 3416.3 667.199 3743H63.6992V3139.4L390.301 2812.8 817.102 2989.6" fill="#808080"/>
<path transform="matrix(.1,0,0,-.1,0,792)" stroke-width="5" stroke-linecap="butt" stroke-miterlimit="10" stroke-linejoin="miter" fill="none" stroke="#ffffff" d="M993.898 3416.3 667.199 3743H63.6992V3139.4L390.301 2812.8 817.102 2989.6Z"/>
<path transform="matrix(.1,0,0,-.1,0,792)" d="M993.898 1585.1 667.199 1258.4H1129.2"/>
<path transform="matrix(.1,0,0,-.1,0,792)" stroke-width="5" stroke-linecap="butt" stroke-miterlimit="10" stroke-linejoin="miter" fill="none" stroke="#ffffff" d="M993.898 1585.1 667.199 1258.4H1129.2Z"/>
<path transform="matrix(.1,0,0,-.1,0,792)" d="M993.898 1585.1 817.102 2011.9 390.301 2188.6 63.6992 1862V1258.4H667.199" fill="#808080"/>
<path transform="matrix(.1,0,0,-.1,0,792)" stroke-width="5" stroke-linecap="butt" stroke-miterlimit="10" stroke-linejoin="miter" fill="none" stroke="#ffffff" d="M993.898 1585.1 817.102 2011.9 390.301 2188.6 63.6992 1862V1258.4H667.199Z"/>
<path transform="matrix(.1,0,0,-.1,0,792)" d="M4956.1 1585.1 5282.8 1258.4H5886.3V1862L5559.7 2188.6 5132.9 2011.9" fill="#808080"/>
<path transform="matrix(.1,0,0,-.1,0,792)" stroke-width="5" stroke-linecap="butt" stroke-miterlimit="10" stroke-linejoin="miter" fill="none" stroke="#ffffff" d="M4956.1 1585.1 5282.8 1258.4H5886.3V1862L5559.7 2188.6 5132.9 2011.9Z"/>
<path transform="matrix(.1,0,0,-.1,0,792)" d="M4956.1 1585.1 4820.8 1258.4H5282.8"/>
<path transform="matrix(.1,0,0,-.1,0,792)" stroke-width="5" stroke-linecap="butt" stroke-miterlimit="10" stroke-linejoin="miter" fill="none" stroke="#ffffff" d="M4956.1 1585.1 4820.8 1258.4H5282.8Z"/>
<path transform="matrix(.1,0,0,-.1,0,792)" d="M4956.1 3416.3 5132.9 2989.6 5559.7 2812.8 5886.3 3139.4V3743H5282.8" fill="#808080"/>
<path transform="matrix(.1,0,0,-.1,0,792)" stroke-width="5" stroke-linecap="butt" stroke-miterlimit="10" stroke-linejoin="miter" fill="none" stroke="#ffffff" d="M4956.1 3416.3 5132.9 2989.6 5559.7 2812.8 5886.3 3139.4V3743H5282.8Z"/>
<path transform="matrix(.1,0,0,-.1,0,792)" d="M4956.1 4923.2 5282.8 4596.5H5886.3V5200.1L5559.7 5526.7 5132.9 5350" fill="#808080"/>
<path transform="matrix(.1,0,0,-.1,0,792)" stroke-width="5" stroke-linecap="butt" stroke-miterlimit="10" stroke-linejoin="miter" fill="none" stroke="#ffffff" d="M4956.1 4923.2 5282.8 4596.5H5886.3V5200.1L5559.7 5526.7 5132.9 5350Z"/>
<path transform="matrix(.1,0,0,-.1,0,792)" d="M4956.1 6754.4 5282.8 7081.1H4820.8"/>
<path transform="matrix(.1,0,0,-.1,0,792)" stroke-width="5" stroke-linecap="butt" stroke-miterlimit="10" stroke-linejoin="miter" fill="none" stroke="#ffffff" d="M4956.1 6754.4 5282.8 7081.1H4820.8Z"/>
<path transform="matrix(.1,0,0,-.1,0,792)" d="M4956.1 6754.4 5132.9 6327.7 5559.7 6150.9 5886.3 6477.5V7081.1H5282.8" fill="#808080"/>
<path transform="matrix(.1,0,0,-.1,0,792)" stroke-width="5" stroke-linecap="butt" stroke-miterlimit="10" stroke-linejoin="miter" fill="none" stroke="#ffffff" d="M4956.1 6754.4 5132.9 6327.7 5559.7 6150.9 5886.3 6477.5V7081.1H5282.8Z"/>
<path transform="matrix(.1,0,0,-.1,0,792)" d="M2975 1435.2 2798.2 1258.4H2548.2V1008.4L2371.4 831.699 2548.2 654.898V404.898H2798.2L2975 228.102 3151.8 404.898H3401.8V654.898L3578.6 831.699 3401.8 1008.4V1258.4H3151.8" fill="#808080"/>
<path transform="matrix(.1,0,0,-.1,0,792)" stroke-width="5" stroke-linecap="butt" stroke-miterlimit="10" stroke-linejoin="miter" fill="none" stroke="#ffffff" d="M2975 1435.2 2798.2 1258.4H2548.2V1008.4L2371.4 831.699 2548.2 654.898V404.898H2798.2L2975 228.102 3151.8 404.898H3401.8V654.898L3578.6 831.699 3401.8 1008.4V1258.4H3151.8Z"/>
<path transform="matrix(.1,0,0,-.1,0,792)" d="M4820.8 7081.1 4644 7507.9 4467.3 7081.1"/>
<path transform="matrix(.1,0,0,-.1,0,792)" stroke-width="5" stroke-linecap="butt" stroke-miterlimit="10" stroke-linejoin="miter" fill="none" stroke="#ffffff" d="M4820.8 7081.1 4644 7507.9 4467.3 7081.1Z"/>
<path transform="matrix(.1,0,0,-.1,0,792)" d="M4820.8 7081.1H5282.8L5709.5 7507.9 5282.8 7934.6H4820.8L4644 7507.9" fill="#808080"/>
<path transform="matrix(.1,0,0,-.1,0,792)" stroke-width="5" stroke-linecap="butt" stroke-miterlimit="10" stroke-linejoin="miter" fill="none" stroke="#ffffff" d="M4820.8 7081.1H5282.8L5709.5 7507.9 5282.8 7934.6H4820.8L4644 7507.9Z"/>
<path transform="matrix(.1,0,0,-.1,0,792)" d="M4467.3 7081.1 4644 7507.9 4467.3 7934.6H4005.3L3578.6 7507.9 4005.3 7081.1" fill="#808080"/>
<path transform="matrix(.1,0,0,-.1,0,792)" stroke-width="5" stroke-linecap="butt" stroke-miterlimit="10" stroke-linejoin="miter" fill="none" stroke="#ffffff" d="M4467.3 7081.1 4644 7507.9 4467.3 7934.6H4005.3L3578.6 7507.9 4005.3 7081.1Z"/>
<path transform="matrix(.1,0,0,-.1,0,792)" d="M4005.3 7081.1 3578.6 7507.9 3401.8 7331.1V7081.1Z"/>
<path transform="matrix(.1,0,0,-.1,0,792)" stroke-width="5" stroke-linecap="butt" stroke-miterlimit="10" stroke-linejoin="miter" fill="none" stroke="#ffffff" d="M4005.3 7081.1 3578.6 7507.9 3401.8 7331.1V7081.1Z"/>
<path transform="matrix(.1,0,0,-.1,0,792)" d="M2548.2 7081.1V7331.1L2371.4 7507.9 1944.7 7081.1Z"/>
<path transform="matrix(.1,0,0,-.1,0,792)" stroke-width="5" stroke-linecap="butt" stroke-miterlimit="10" stroke-linejoin="miter" fill="none" stroke="#ffffff" d="M2548.2 7081.1V7331.1L2371.4 7507.9 1944.7 7081.1Z"/>
<path transform="matrix(.1,0,0,-.1,0,792)" d="M1944.7 7081.1 2371.4 7507.9 1944.7 7934.6H1482.7L1306 7507.9 1482.7 7081.1" fill="#808080"/>
<path transform="matrix(.1,0,0,-.1,0,792)" stroke-width="5" stroke-linecap="butt" stroke-miterlimit="10" stroke-linejoin="miter" fill="none" stroke="#ffffff" d="M1944.7 7081.1 2371.4 7507.9 1944.7 7934.6H1482.7L1306 7507.9 1482.7 7081.1Z"/>
<path transform="matrix(.1,0,0,-.1,0,792)" d="M1482.7 7081.1 1306 7507.9 1129.2 7081.1"/>
<path transform="matrix(.1,0,0,-.1,0,792)" stroke-width="5" stroke-linecap="butt" stroke-miterlimit="10" stroke-linejoin="miter" fill="none" stroke="#ffffff" d="M1482.7 7081.1 1306 7507.9 1129.2 7081.1Z"/>
<path transform="matrix(.1,0,0,-.1,0,792)" d="M1129.2 7081.1 1306 7507.9 1129.2 7934.6H667.199L240.5 7507.9 667.199 7081.1" fill="#808080"/>
<path transform="matrix(.1,0,0,-.1,0,792)" stroke-width="5" stroke-linecap="butt" stroke-miterlimit="10" stroke-linejoin="miter" fill="none" stroke="#ffffff" d="M1129.2 7081.1 1306 7507.9 1129.2 7934.6H667.199L240.5 7507.9 667.199 7081.1Z"/>
<path transform="matrix(.1,0,0,-.1,0,792)" d="M1129.2 1258.4 1306 831.699 1482.7 1258.4"/>
<path transform="matrix(.1,0,0,-.1,0,792)" stroke-width="5" stroke-linecap="butt" stroke-miterlimit="10" stroke-linejoin="miter" fill="none" stroke="#ffffff" d="M1129.2 1258.4 1306 831.699 1482.7 1258.4Z"/>
<path transform="matrix(.1,0,0,-.1,0,792)" d="M1129.2 1258.4H667.199L240.5 831.699 667.199 404.898H1129.2L1306 831.699" fill="#808080"/>
<path transform="matrix(.1,0,0,-.1,0,792)" stroke-width="5" stroke-linecap="butt" stroke-miterlimit="10" stroke-linejoin="miter" fill="none" stroke="#ffffff" d="M1129.2 1258.4H667.199L240.5 831.699 667.199 404.898H1129.2L1306 831.699Z"/>
<path transform="matrix(.1,0,0,-.1,0,792)" d="M1482.7 1258.4 1306 831.699 1482.7 404.898H1944.7L2371.4 831.699 1944.7 1258.4" fill="#808080"/>
<path transform="matrix(.1,0,0,-.1,0,792)" stroke-width="5" stroke-linecap="butt" stroke-miterlimit="10" stroke-linejoin="miter" fill="none" stroke="#ffffff" d="M1482.7 1258.4 1306 831.699 1482.7 404.898H1944.7L2371.4 831.699 1944.7 1258.4Z"/>
<path transform="matrix(.1,0,0,-.1,0,792)" d="M1944.7 1258.4 2371.4 831.699 2548.2 1008.4V1258.4Z"/>
<path transform="matrix(.1,0,0,-.1,0,792)" stroke-width="5" stroke-linecap="butt" stroke-miterlimit="10" stroke-linejoin="miter" fill="none" stroke="#ffffff" d="M1944.7 1258.4 2371.4 831.699 2548.2 1008.4V1258.4Z"/>
<path transform="matrix(.1,0,0,-.1,0,792)" d="M3401.8 1258.4V1008.4L3578.6 831.699 4005.3 1258.4Z"/>
<path transform="matrix(.1,0,0,-.1,0,792)" stroke-width="5" stroke-linecap="butt" stroke-miterlimit="10" stroke-linejoin="miter" fill="none" stroke="#ffffff" d="M3401.8 1258.4V1008.4L3578.6 831.699 4005.3 1258.4Z"/>
<path transform="matrix(.1,0,0,-.1,0,792)" d="M4005.3 1258.4 3578.6 831.699 4005.3 404.898H4467.3L4644 831.699 4467.3 1258.4" fill="#808080"/>
<path transform="matrix(.1,0,0,-.1,0,792)" stroke-width="5" stroke-linecap="butt" stroke-miterlimit="10" stroke-linejoin="miter" fill="none" stroke="#ffffff" d="M4005.3 1258.4 3578.6 831.699 4005.3 404.898H4467.3L4644 831.699 4467.3 1258.4Z"/>
<path transform="matrix(.1,0,0,-.1,0,792)" d="M4467.3 1258.4 4644 831.699 4820.8 1258.4"/>
<path transform="matrix(.1,0,0,-.1,0,792)" stroke-width="5" stroke-linecap="butt" stroke-miterlimit="10" stroke-linejoin="miter" fill="none" stroke="#ffffff" d="M4467.3 1258.4 4644 831.699 4820.8 1258.4Z"/>
<path transform="matrix(.1,0,0,-.1,0,792)" d="M4820.8 1258.4 4644 831.699 4820.8 404.898H5282.8L5709.5 831.699 5282.8 1258.4" fill="#808080"/>
<path transform="matrix(.1,0,0,-.1,0,792)" stroke-width="5" stroke-linecap="butt" stroke-miterlimit="10" stroke-linejoin="miter" fill="none" stroke="#ffffff" d="M4820.8 1258.4 4644 831.699 4820.8 404.898H5282.8L5709.5 831.699 5282.8 1258.4Z"/>
<path transform="matrix(.1,0,0,-.1,0,792)" d="M5132.9 2011.9 5559.7 2188.6 5335.4 2500.7"/>
<path transform="matrix(.1,0,0,-.1,0,792)" stroke-width="5" stroke-linecap="butt" stroke-miterlimit="10" stroke-linejoin="miter" fill="none" stroke="#ffffff" d="M5132.9 2011.9 5559.7 2188.6 5335.4 2500.7Z"/>
<path transform="matrix(.1,0,0,-.1,0,792)" d="M5132.9 2989.6 5335.4 2500.7 5559.7 2812.8"/>
<path transform="matrix(.1,0,0,-.1,0,792)" stroke-width="5" stroke-linecap="butt" stroke-miterlimit="10" stroke-linejoin="miter" fill="none" stroke="#ffffff" d="M5132.9 2989.6 5335.4 2500.7 5559.7 2812.8Z"/>
<path transform="matrix(.1,0,0,-.1,0,792)" d="M5132.9 5350 5559.7 5526.7 5335.4 5838.8"/>
<path transform="matrix(.1,0,0,-.1,0,792)" stroke-width="5" stroke-linecap="butt" stroke-miterlimit="10" stroke-linejoin="miter" fill="none" stroke="#ffffff" d="M5132.9 5350 5559.7 5526.7 5335.4 5838.8Z"/>
<path transform="matrix(.1,0,0,-.1,0,792)" d="M5132.9 6327.7 5335.4 5838.8 5559.7 6150.9"/>
<path transform="matrix(.1,0,0,-.1,0,792)" stroke-width="5" stroke-linecap="butt" stroke-miterlimit="10" stroke-linejoin="miter" fill="none" stroke="#ffffff" d="M5132.9 6327.7 5335.4 5838.8 5559.7 6150.9Z"/>
<path transform="matrix(.1,0,0,-.1,0,792)" d="M817.102 6327.7 390.301 6150.9 614.602 5838.8"/>
<path transform="matrix(.1,0,0,-.1,0,792)" stroke-width="5" stroke-linecap="butt" stroke-miterlimit="10" stroke-linejoin="miter" fill="none" stroke="#ffffff" d="M817.102 6327.7 390.301 6150.9 614.602 5838.8Z"/>
<path transform="matrix(.1,0,0,-.1,0,792)" d="M817.102 5350 614.602 5838.8 390.301 5526.7"/>
<path transform="matrix(.1,0,0,-.1,0,792)" stroke-width="5" stroke-linecap="butt" stroke-miterlimit="10" stroke-linejoin="miter" fill="none" stroke="#ffffff" d="M817.102 5350 614.602 5838.8 390.301 5526.7Z"/>
<path transform="matrix(.1,0,0,-.1,0,792)" d="M817.102 2989.6 390.301 2812.8 614.602 2500.7"/>
<path transform="matrix(.1,0,0,-.1,0,792)" stroke-width="5" stroke-linecap="butt" stroke-miterlimit="10" stroke-linejoin="miter" fill="none" stroke="#ffffff" d="M817.102 2989.6 390.301 2812.8 614.602 2500.7Z"/>
<path transform="matrix(.1,0,0,-.1,0,792)" d="M817.102 2011.9 614.602 2500.7 390.301 2188.6"/>
<path transform="matrix(.1,0,0,-.1,0,792)" stroke-width="5" stroke-linecap="butt" stroke-miterlimit="10" stroke-linejoin="miter" fill="none" stroke="#ffffff" d="M817.102 2011.9 614.602 2500.7 390.301 2188.6Z"/>
<path transform="matrix(.1,0,0,-.1,0,792)" d="M667.199 1258.4H63.6992V1008.4L240.5 831.699Z"/>
<path transform="matrix(.1,0,0,-.1,0,792)" stroke-width="5" stroke-linecap="butt" stroke-miterlimit="10" stroke-linejoin="miter" fill="none" stroke="#ffffff" d="M667.199 1258.4H63.6992V1008.4L240.5 831.699Z"/>
<path transform="matrix(.1,0,0,-.1,0,792)" d="M5282.8 1258.4 5709.5 831.699 5886.3 1008.4V1258.4Z"/>
<path transform="matrix(.1,0,0,-.1,0,792)" stroke-width="5" stroke-linecap="butt" stroke-miterlimit="10" stroke-linejoin="miter" fill="none" stroke="#ffffff" d="M5282.8 1258.4 5709.5 831.699 5886.3 1008.4V1258.4Z"/>
<path transform="matrix(.1,0,0,-.1,0,792)" d="M5282.8 3743H5886.3V3993L5709.5 4169.8Z"/>
<path transform="matrix(.1,0,0,-.1,0,792)" stroke-width="5" stroke-linecap="butt" stroke-miterlimit="10" stroke-linejoin="miter" fill="none" stroke="#ffffff" d="M5282.8 3743H5886.3V3993L5709.5 4169.8Z"/>
<path transform="matrix(.1,0,0,-.1,0,792)" d="M5282.8 4596.5 5709.5 4169.8 5886.3 4346.5V4596.5Z"/>
<path transform="matrix(.1,0,0,-.1,0,792)" stroke-width="5" stroke-linecap="butt" stroke-miterlimit="10" stroke-linejoin="miter" fill="none" stroke="#ffffff" d="M5282.8 4596.5 5709.5 4169.8 5886.3 4346.5V4596.5Z"/>
<path transform="matrix(.1,0,0,-.1,0,792)" d="M5282.8 7081.1H5886.3V7331.1L5709.5 7507.9Z"/>
<path transform="matrix(.1,0,0,-.1,0,792)" stroke-width="5" stroke-linecap="butt" stroke-miterlimit="10" stroke-linejoin="miter" fill="none" stroke="#ffffff" d="M5282.8 7081.1H5886.3V7331.1L5709.5 7507.9Z"/>
<path transform="matrix(.1,0,0,-.1,0,792)" d="M667.199 7081.1 240.5 7507.9 63.6992 7331.1V7081.1Z"/>
<path transform="matrix(.1,0,0,-.1,0,792)" stroke-width="5" stroke-linecap="butt" stroke-miterlimit="10" stroke-linejoin="miter" fill="none" stroke="#ffffff" d="M667.199 7081.1 240.5 7507.9 63.6992 7331.1V7081.1Z"/>
<path transform="matrix(.1,0,0,-.1,0,792)" d="M667.199 4596.5H63.6992V4346.5L240.5 4169.8Z"/>
<path transform="matrix(.1,0,0,-.1,0,792)" stroke-width="5" stroke-linecap="butt" stroke-miterlimit="10" stroke-linejoin="miter" fill="none" stroke="#ffffff" d="M667.199 4596.5H63.6992V4346.5L240.5 4169.8Z"/>
<path transform="matrix(.1,0,0,-.1,0,792)" d="M667.199 3743 240.5 4169.8 63.6992 3993V3743Z"/>
<path transform="matrix(.1,0,0,-.1,0,792)" stroke-width="5" stroke-linecap="butt" stroke-miterlimit="10" stroke-linejoin="miter" fill="none" stroke="#ffffff" d="M667.199 3743 240.5 4169.8 63.6992 3993V3743Z"/>
<path transform="matrix(.1,0,0,-.1,0,792)" d="M614.602 2500.7 390.301 2812.8 63.6992 2677.5V2323.9L390.301 2188.6" fill="#0000cc"/>
<path transform="matrix(.1,0,0,-.1,0,792)" stroke-width="5" stroke-linecap="butt" stroke-miterlimit="10" stroke-linejoin="miter" fill="none" stroke="#ffffff" d="M614.602 2500.7 390.301 2812.8 63.6992 2677.5V2323.9L390.301 2188.6Z"/>
<path transform="matrix(.1,0,0,-.1,0,792)" d="M5335.4 2500.7 5559.7 2188.6 5886.3 2323.9V2677.5L5559.7 2812.8" fill="#0000cc"/>
<path transform="matrix(.1,0,0,-.1,0,792)" stroke-width="5" stroke-linecap="butt" stroke-miterlimit="10" stroke-linejoin="miter" fill="none" stroke="#ffffff" d="M5335.4 2500.7 5559.7 2188.6 5886.3 2323.9V2677.5L5559.7 2812.8Z"/>
<path transform="matrix(.1,0,0,-.1,0,792)" d="M5335.4 5838.8 5559.7 5526.7 5886.3 5662V6015.6L5559.7 6150.9" fill="#0000cc"/>
<path transform="matrix(.1,0,0,-.1,0,792)" stroke-width="5" stroke-linecap="butt" stroke-miterlimit="10" stroke-linejoin="miter" fill="none" stroke="#ffffff" d="M5335.4 5838.8 5559.7 5526.7 5886.3 5662V6015.6L5559.7 6150.9Z"/>
<path transform="matrix(.1,0,0,-.1,0,792)" d="M614.602 5838.8 390.301 6150.9 63.6992 6015.6V5662L390.301 5526.7" fill="#0000cc"/>
<path transform="matrix(.1,0,0,-.1,0,792)" stroke-width="5" stroke-linecap="butt" stroke-miterlimit="10" stroke-linejoin="miter" fill="none" stroke="#ffffff" d="M614.602 5838.8 390.301 6150.9 63.6992 6015.6V5662L390.301 5526.7Z"/>
<path transform="matrix(.1,0,0,-.1,0,792)" d="M4644 7507.9 4820.8 7934.6H4467.3"/>
<path transform="matrix(.1,0,0,-.1,0,792)" stroke-width="5" stroke-linecap="butt" stroke-miterlimit="10" stroke-linejoin="miter" fill="none" stroke="#ffffff" d="M4644 7507.9 4820.8 7934.6H4467.3Z"/>
<path transform="matrix(.1,0,0,-.1,0,792)" d="M3578.6 7507.9 4005.3 7934.6H3401.8V7684.6Z"/>
<path transform="matrix(.1,0,0,-.1,0,792)" stroke-width="5" stroke-linecap="butt" stroke-miterlimit="10" stroke-linejoin="miter" fill="none" stroke="#ffffff" d="M3578.6 7507.9 4005.3 7934.6H3401.8V7684.6Z"/>
<path transform="matrix(.1,0,0,-.1,0,792)" d="M2371.4 7507.9 2548.2 7684.6V7934.6H1944.7Z"/>
<path transform="matrix(.1,0,0,-.1,0,792)" stroke-width="5" stroke-linecap="butt" stroke-miterlimit="10" stroke-linejoin="miter" fill="none" stroke="#ffffff" d="M2371.4 7507.9 2548.2 7684.6V7934.6H1944.7Z"/>
<path transform="matrix(.1,0,0,-.1,0,792)" d="M1306 7507.9 1482.7 7934.6H1129.2"/>
<path transform="matrix(.1,0,0,-.1,0,792)" stroke-width="5" stroke-linecap="butt" stroke-miterlimit="10" stroke-linejoin="miter" fill="none" stroke="#ffffff" d="M1306 7507.9 1482.7 7934.6H1129.2Z"/>
<path transform="matrix(.1,0,0,-.1,0,792)" d="M1306 831.699 1129.2 404.898H1482.7"/>
<path transform="matrix(.1,0,0,-.1,0,792)" stroke-width="5" stroke-linecap="butt" stroke-miterlimit="10" stroke-linejoin="miter" fill="none" stroke="#ffffff" d="M1306 831.699 1129.2 404.898H1482.7Z"/>
<path transform="matrix(.1,0,0,-.1,0,792)" d="M2371.4 831.699 1944.7 404.898H2548.2V654.898Z"/>
<path transform="matrix(.1,0,0,-.1,0,792)" stroke-width="5" stroke-linecap="butt" stroke-miterlimit="10" stroke-linejoin="miter" fill="none" stroke="#ffffff" d="M2371.4 831.699 1944.7 404.898H2548.2V654.898Z"/>
<path transform="matrix(.1,0,0,-.1,0,792)" d="M3578.6 831.699 3401.8 654.898V404.898H4005.3Z"/>
<path transform="matrix(.1,0,0,-.1,0,792)" stroke-width="5" stroke-linecap="butt" stroke-miterlimit="10" stroke-linejoin="miter" fill="none" stroke="#ffffff" d="M3578.6 831.699 3401.8 654.898V404.898H4005.3Z"/>
<path transform="matrix(.1,0,0,-.1,0,792)" d="M4644 831.699 4467.3 404.898H4820.8"/>
<path transform="matrix(.1,0,0,-.1,0,792)" stroke-width="5" stroke-linecap="butt" stroke-miterlimit="10" stroke-linejoin="miter" fill="none" stroke="#ffffff" d="M4644 831.699 4467.3 404.898H4820.8Z"/>
<path transform="matrix(.1,0,0,-.1,0,792)" d="M5559.7 2188.6 5886.3 1862V2323.9"/>
<path transform="matrix(.1,0,0,-.1,0,792)" stroke-width="5" stroke-linecap="butt" stroke-miterlimit="10" stroke-linejoin="miter" fill="none" stroke="#ffffff" d="M5559.7 2188.6 5886.3 1862V2323.9Z"/>
<path transform="matrix(.1,0,0,-.1,0,792)" d="M5559.7 2812.8 5886.3 2677.5V3139.4"/>
<path transform="matrix(.1,0,0,-.1,0,792)" stroke-width="5" stroke-linecap="butt" stroke-miterlimit="10" stroke-linejoin="miter" fill="none" stroke="#ffffff" d="M5559.7 2812.8 5886.3 2677.5V3139.4Z"/>
<path transform="matrix(.1,0,0,-.1,0,792)" d="M5559.7 5526.7 5886.3 5200.1V5662"/>
<path transform="matrix(.1,0,0,-.1,0,792)" stroke-width="5" stroke-linecap="butt" stroke-miterlimit="10" stroke-linejoin="miter" fill="none" stroke="#ffffff" d="M5559.7 5526.7 5886.3 5200.1V5662Z"/>
<path transform="matrix(.1,0,0,-.1,0,792)" d="M5559.7 6150.9 5886.3 6015.6V6477.5"/>
<path transform="matrix(.1,0,0,-.1,0,792)" stroke-width="5" stroke-linecap="butt" stroke-miterlimit="10" stroke-linejoin="miter" fill="none" stroke="#ffffff" d="M5559.7 6150.9 5886.3 6015.6V6477.5Z"/>
<path transform="matrix(.1,0,0,-.1,0,792)" d="M390.301 6150.9 63.6992 6477.5V6015.6"/>
<path transform="matrix(.1,0,0,-.1,0,792)" stroke-width="5" stroke-linecap="butt" stroke-miterlimit="10" stroke-linejoin="miter" fill="none" stroke="#ffffff" d="M390.301 6150.9 63.6992 6477.5V6015.6Z"/>
<path transform="matrix(.1,0,0,-.1,0,792)" d="M390.301 5526.7 63.6992 5662V5200.1"/>
<path transform="matrix(.1,0,0,-.1,0,792)" stroke-width="5" stroke-linecap="butt" stroke-miterlimit="10" stroke-linejoin="miter" fill="none" stroke="#ffffff" d="M390.301 5526.7 63.6992 5662V5200.1Z"/>
<path transform="matrix(.1,0,0,-.1,0,792)" d="M390.301 2812.8 63.6992 3139.4V2677.5"/>
<path transform="matrix(.1,0,0,-.1,0,792)" stroke-width="5" stroke-linecap="butt" stroke-miterlimit="10" stroke-linejoin="miter" fill="none" stroke="#ffffff" d="M390.301 2812.8 63.6992 3139.4V2677.5Z"/>
<path transform="matrix(.1,0,0,-.1,0,792)" d="M390.301 2188.6 63.6992 2323.9V1862"/>
<path transform="matrix(.1,0,0,-.1,0,792)" stroke-width="5" stroke-linecap="butt" stroke-miterlimit="10" stroke-linejoin="miter" fill="none" stroke="#ffffff" d="M390.301 2188.6 63.6992 2323.9V1862Z"/>
<path transform="matrix(.1,0,0,-.1,0,792)" d="M5282.8 7934.6 5709.5 7507.9 5886.3 7684.6V7934.6Z"/>
<path transform="matrix(.1,0,0,-.1,0,792)" stroke-width="5" stroke-linecap="butt" stroke-miterlimit="10" stroke-linejoin="miter" fill="none" stroke="#ffffff" d="M5282.8 7934.6 5709.5 7507.9 5886.3 7684.6V7934.6Z"/>
<path transform="matrix(.1,0,0,-.1,0,792)" d="M667.199 7934.6H63.6992V7684.6L240.5 7507.9Z"/>
<path transform="matrix(.1,0,0,-.1,0,792)" stroke-width="5" stroke-linecap="butt" stroke-miterlimit="10" stroke-linejoin="miter" fill="none" stroke="#ffffff" d="M667.199 7934.6H63.6992V7684.6L240.5 7507.9Z"/>
<path transform="matrix(.1,0,0,-.1,0,792)" d="M240.5 7507.9 63.6992 7684.6V7934.6H-186.301L-363.102 8111.4-539.898 7934.6H-789.898V7684.6L-966.602 7507.9-789.898 7331.1V7081.1H-539.898L-363.102 6904.3-186.301 7081.1H63.6992V7331.1" fill="#808080"/>
<path transform="matrix(.1,0,0,-.1,0,792)" stroke-width="5" stroke-linecap="butt" stroke-miterlimit="10" stroke-linejoin="miter" fill="none" stroke="#ffffff" d="M240.5 7507.9 63.6992 7684.6V7934.6H-186.301L-363.102 8111.4-539.898 7934.6H-789.898V7684.6L-966.602 7507.9-789.898 7331.1V7081.1H-539.898L-363.102 6904.3-186.301 7081.1H63.6992V7331.1Z"/>
<path transform="matrix(.1,0,0,-.1,0,792)" d="M240.5 4169.8 63.6992 4346.5V4596.5H-186.301L-363.102 4773.3-539.898 4596.5H-789.898V4346.5L-966.602 4169.8-789.898 3993V3743H-539.898L-363.102 3566.2-186.301 3743H63.6992V3993" fill="#808080"/>
<path transform="matrix(.1,0,0,-.1,0,792)" stroke-width="5" stroke-linecap="butt" stroke-miterlimit="10" stroke-linejoin="miter" fill="none" stroke="#ffffff" d="M240.5 4169.8 63.6992 4346.5V4596.5H-186.301L-363.102 4773.3-539.898 4596.5H-789.898V4346.5L-966.602 4169.8-789.898 3993V3743H-539.898L-363.102 3566.2-186.301 3743H63.6992V3993Z"/>
<path transform="matrix(.1,0,0,-.1,0,792)" d="M240.5 831.699 63.6992 654.898V404.898H667.199Z"/>
<path transform="matrix(.1,0,0,-.1,0,792)" stroke-width="5" stroke-linecap="butt" stroke-miterlimit="10" stroke-linejoin="miter" fill="none" stroke="#ffffff" d="M240.5 831.699 63.6992 654.898V404.898H667.199Z"/>
<path transform="matrix(.1,0,0,-.1,0,792)" d="M240.5 831.699 63.6992 1008.4V1258.4H-186.301L-363.102 1435.2-539.898 1258.4H-789.898V1008.4L-966.602 831.699-789.898 654.898V404.898H-539.898L-363.102 228.102-186.301 404.898H63.6992V654.898" fill="#808080"/>
<path transform="matrix(.1,0,0,-.1,0,792)" stroke-width="5" stroke-linecap="butt" stroke-miterlimit="10" stroke-linejoin="miter" fill="none" stroke="#ffffff" d="M240.5 831.699 63.6992 1008.4V1258.4H-186.301L-363.102 1435.2-539.898 1258.4H-789.898V1008.4L-966.602 831.699-789.898 654.898V404.898H-539.898L-363.102 228.102-186.301 404.898H63.6992V654.898Z"/>
<path transform="matrix(.1,0,0,-.1,0,792)" d="M5709.5 831.699 5886.3 654.898V404.898H6136.3L6313.1 228.102 6489.9 404.898H6739.9V654.898L6916.6 831.699 6739.9 1008.4V1258.4H6489.9L6313.1 1435.2 6136.3 1258.4H5886.3V1008.4" fill="#808080"/>
<path transform="matrix(.1,0,0,-.1,0,792)" stroke-width="5" stroke-linecap="butt" stroke-miterlimit="10" stroke-linejoin="miter" fill="none" stroke="#ffffff" d="M5709.5 831.699 5886.3 654.898V404.898H6136.3L6313.1 228.102 6489.9 404.898H6739.9V654.898L6916.6 831.699 6739.9 1008.4V1258.4H6489.9L6313.1 1435.2 6136.3 1258.4H5886.3V1008.4Z"/>
<path transform="matrix(.1,0,0,-.1,0,792)" d="M5709.5 831.699 5282.8 404.898H5886.3V654.898Z"/>
<path transform="matrix(.1,0,0,-.1,0,792)" stroke-width="5" stroke-linecap="butt" stroke-miterlimit="10" stroke-linejoin="miter" fill="none" stroke="#ffffff" d="M5709.5 831.699 5282.8 404.898H5886.3V654.898Z"/>
<path transform="matrix(.1,0,0,-.1,0,792)" d="M5709.5 4169.8 5886.3 3993V3743H6136.3L6313.1 3566.2 6489.9 3743H6739.9V3993L6916.6 4169.8 6739.9 4346.5V4596.5H6489.9L6313.1 4773.3 6136.3 4596.5H5886.3V4346.5" fill="#808080"/>
<path transform="matrix(.1,0,0,-.1,0,792)" stroke-width="5" stroke-linecap="butt" stroke-miterlimit="10" stroke-linejoin="miter" fill="none" stroke="#ffffff" d="M5709.5 4169.8 5886.3 3993V3743H6136.3L6313.1 3566.2 6489.9 3743H6739.9V3993L6916.6 4169.8 6739.9 4346.5V4596.5H6489.9L6313.1 4773.3 6136.3 4596.5H5886.3V4346.5Z"/>
<path transform="matrix(.1,0,0,-.1,0,792)" d="M5709.5 7507.9 5886.3 7331.1V7081.1H6136.3L6313.1 6904.3 6489.9 7081.1H6739.9V7331.1L6916.6 7507.9 6739.9 7684.6V7934.6H6489.9L6313.1 8111.4 6136.3 7934.6H5886.3V7684.6" fill="#808080"/>
<path transform="matrix(.1,0,0,-.1,0,792)" stroke-width="5" stroke-linecap="butt" stroke-miterlimit="10" stroke-linejoin="miter" fill="none" stroke="#ffffff" d="M5709.5 7507.9 5886.3 7331.1V7081.1H6136.3L6313.1 6904.3 6489.9 7081.1H6739.9V7331.1L6916.6 7507.9 6739.9 7684.6V7934.6H6489.9L6313.1 8111.4 6136.3 7934.6H5886.3V7684.6Z"/>
<path transform="matrix(.1,0,0,-.1,0,792)" d="M667.199 404.898 993.898 78.3008 1129.2 404.898"/>
<path transform="matrix(.1,0,0,-.1,0,792)" stroke-width="5" stroke-linecap="butt" stroke-miterlimit="10" stroke-linejoin="miter" fill="none" stroke="#ffffff" d="M667.199 404.898 993.898 78.3008 1129.2 404.898Z"/>
<path transform="matrix(.1,0,0,-.1,0,792)" d="M667.199 404.898H63.6992V-198.699L390.301-525.301 817.102-348.5 993.898 78.3008" fill="#808080"/>
<path transform="matrix(.1,0,0,-.1,0,792)" stroke-width="5" stroke-linecap="butt" stroke-miterlimit="10" stroke-linejoin="miter" fill="none" stroke="#ffffff" d="M667.199 404.898H63.6992V-198.699L390.301-525.301 817.102-348.5 993.898 78.3008Z"/>
<path transform="matrix(.1,0,0,-.1,0,792)" d="M1129.2 404.898 993.898 78.3008 1306-146 1618 78.3008 1482.7 404.898" fill="#0000cc"/>
<path transform="matrix(.1,0,0,-.1,0,792)" stroke-width="5" stroke-linecap="butt" stroke-miterlimit="10" stroke-linejoin="miter" fill="none" stroke="#ffffff" d="M1129.2 404.898 993.898 78.3008 1306-146 1618 78.3008 1482.7 404.898Z"/>
<path transform="matrix(.1,0,0,-.1,0,792)" d="M1482.7 404.898 1618 78.3008 1944.7 404.898"/>
<path transform="matrix(.1,0,0,-.1,0,792)" stroke-width="5" stroke-linecap="butt" stroke-miterlimit="10" stroke-linejoin="miter" fill="none" stroke="#ffffff" d="M1482.7 404.898 1618 78.3008 1944.7 404.898Z"/>
<path transform="matrix(.1,0,0,-.1,0,792)" d="M1944.7 404.898 1618 78.3008 1794.8-348.5 2221.6-525.301 2548.2-198.699V404.898" fill="#808080"/>
<path transform="matrix(.1,0,0,-.1,0,792)" stroke-width="5" stroke-linecap="butt" stroke-miterlimit="10" stroke-linejoin="miter" fill="none" stroke="#ffffff" d="M1944.7 404.898 1618 78.3008 1794.8-348.5 2221.6-525.301 2548.2-198.699V404.898Z"/>
<path transform="matrix(.1,0,0,-.1,0,792)" d="M2548.2 404.898V-198.699L2975 228.102 2798.2 404.898Z"/>
<path transform="matrix(.1,0,0,-.1,0,792)" stroke-width="5" stroke-linecap="butt" stroke-miterlimit="10" stroke-linejoin="miter" fill="none" stroke="#ffffff" d="M2548.2 404.898V-198.699L2975 228.102 2798.2 404.898Z"/>
<path transform="matrix(.1,0,0,-.1,0,792)" d="M3151.8 404.898 2975 228.102 3401.8-198.699V404.898Z"/>
<path transform="matrix(.1,0,0,-.1,0,792)" stroke-width="5" stroke-linecap="butt" stroke-miterlimit="10" stroke-linejoin="miter" fill="none" stroke="#ffffff" d="M3151.8 404.898 2975 228.102 3401.8-198.699V404.898Z"/>
<path transform="matrix(.1,0,0,-.1,0,792)" d="M3401.8 404.898V-198.699L3728.4-525.301 4155.2-348.5 4332 78.3008 4005.3 404.898" fill="#808080"/>
<path transform="matrix(.1,0,0,-.1,0,792)" stroke-width="5" stroke-linecap="butt" stroke-miterlimit="10" stroke-linejoin="miter" fill="none" stroke="#ffffff" d="M3401.8 404.898V-198.699L3728.4-525.301 4155.2-348.5 4332 78.3008 4005.3 404.898Z"/>
<path transform="matrix(.1,0,0,-.1,0,792)" d="M4005.3 404.898 4332 78.3008 4467.3 404.898"/>
<path transform="matrix(.1,0,0,-.1,0,792)" stroke-width="5" stroke-linecap="butt" stroke-miterlimit="10" stroke-linejoin="miter" fill="none" stroke="#ffffff" d="M4005.3 404.898 4332 78.3008 4467.3 404.898Z"/>
<path transform="matrix(.1,0,0,-.1,0,792)" d="M4467.3 404.898 4332 78.3008 4644-146 4956.1 78.3008 4820.8 404.898" fill="#0000cc"/>
<path transform="matrix(.1,0,0,-.1,0,792)" stroke-width="5" stroke-linecap="butt" stroke-miterlimit="10" stroke-linejoin="miter" fill="none" stroke="#ffffff" d="M4467.3 404.898 4332 78.3008 4644-146 4956.1 78.3008 4820.8 404.898Z"/>
<path transform="matrix(.1,0,0,-.1,0,792)" d="M4820.8 404.898 4956.1 78.3008 5282.8 404.898"/>
<path transform="matrix(.1,0,0,-.1,0,792)" stroke-width="5" stroke-linecap="butt" stroke-miterlimit="10" stroke-linejoin="miter" fill="none" stroke="#ffffff" d="M4820.8 404.898 4956.1 78.3008 5282.8 404.898Z"/>
<path transform="matrix(.1,0,0,-.1,0,792)" d="M5282.8 404.898 4956.1 78.3008 5132.9-348.5 5559.7-525.301 5886.3-198.699V404.898" fill="#808080"/>
<path transform="matrix(.1,0,0,-.1,0,792)" stroke-width="5" stroke-linecap="butt" stroke-miterlimit="10" stroke-linejoin="miter" fill="none" stroke="#ffffff" d="M5282.8 404.898 4956.1 78.3008 5132.9-348.5 5559.7-525.301 5886.3-198.699V404.898Z"/>
<path transform="matrix(.1,0,0,-.1,0,792)" d="M2975 228.102 2548.2-198.699V-660.602L2975-837.398 3401.8-660.602V-198.699" fill="#808080"/>
<path transform="matrix(.1,0,0,-.1,0,792)" stroke-width="5" stroke-linecap="butt" stroke-miterlimit="10" stroke-linejoin="miter" fill="none" stroke="#ffffff" d="M2975 228.102 2548.2-198.699V-660.602L2975-837.398 3401.8-660.602V-198.699Z"/>
<path transform="matrix(.1,0,0,-.1,0,792)" d="M5886.3 404.898V-198.699L6313.1 228.102 6136.3 404.898Z"/>
<path transform="matrix(.1,0,0,-.1,0,792)" stroke-width="5" stroke-linecap="butt" stroke-miterlimit="10" stroke-linejoin="miter" fill="none" stroke="#ffffff" d="M5886.3 404.898V-198.699L6313.1 228.102 6136.3 404.898Z"/>
<path transform="matrix(.1,0,0,-.1,0,792)" d="M5886.3 1258.4H6136.3L6313.1 1435.2 5886.3 1862Z"/>
<path transform="matrix(.1,0,0,-.1,0,792)" stroke-width="5" stroke-linecap="butt" stroke-miterlimit="10" stroke-linejoin="miter" fill="none" stroke="#ffffff" d="M5886.3 1258.4H6136.3L6313.1 1435.2 5886.3 1862Z"/>
<path transform="matrix(.1,0,0,-.1,0,792)" d="M5886.3 1862 6313.1 1435.2 6739.9 1862V2323.9L6313.1 2500.7 5886.3 2323.9" fill="#808080"/>
<path transform="matrix(.1,0,0,-.1,0,792)" stroke-width="5" stroke-linecap="butt" stroke-miterlimit="10" stroke-linejoin="miter" fill="none" stroke="#ffffff" d="M5886.3 1862 6313.1 1435.2 6739.9 1862V2323.9L6313.1 2500.7 5886.3 2323.9Z"/>
<path transform="matrix(.1,0,0,-.1,0,792)" d="M5886.3 2323.9 6313.1 2500.7 5886.3 2677.5"/>
<path transform="matrix(.1,0,0,-.1,0,792)" stroke-width="5" stroke-linecap="butt" stroke-miterlimit="10" stroke-linejoin="miter" fill="none" stroke="#ffffff" d="M5886.3 2323.9 6313.1 2500.7 5886.3 2677.5Z"/>
<path transform="matrix(.1,0,0,-.1,0,792)" d="M5886.3 2677.5 6313.1 2500.7 6739.9 2677.5V3139.4L6313.1 3566.2 5886.3 3139.4" fill="#808080"/>
<path transform="matrix(.1,0,0,-.1,0,792)" stroke-width="5" stroke-linecap="butt" stroke-miterlimit="10" stroke-linejoin="miter" fill="none" stroke="#ffffff" d="M5886.3 2677.5 6313.1 2500.7 6739.9 2677.5V3139.4L6313.1 3566.2 5886.3 3139.4Z"/>
<path transform="matrix(.1,0,0,-.1,0,792)" d="M5886.3 3139.4 6313.1 3566.2 6136.3 3743H5886.3Z"/>
<path transform="matrix(.1,0,0,-.1,0,792)" stroke-width="5" stroke-linecap="butt" stroke-miterlimit="10" stroke-linejoin="miter" fill="none" stroke="#ffffff" d="M5886.3 3139.4 6313.1 3566.2 6136.3 3743H5886.3Z"/>
<path transform="matrix(.1,0,0,-.1,0,792)" d="M5886.3 4596.5H6136.3L6313.1 4773.3 5886.3 5200.1Z"/>
<path transform="matrix(.1,0,0,-.1,0,792)" stroke-width="5" stroke-linecap="butt" stroke-miterlimit="10" stroke-linejoin="miter" fill="none" stroke="#ffffff" d="M5886.3 4596.5H6136.3L6313.1 4773.3 5886.3 5200.1Z"/>
<path transform="matrix(.1,0,0,-.1,0,792)" d="M5886.3 5200.1 6313.1 4773.3 6739.9 5200.1V5662L6313.1 5838.8 5886.3 5662" fill="#808080"/>
<path transform="matrix(.1,0,0,-.1,0,792)" stroke-width="5" stroke-linecap="butt" stroke-miterlimit="10" stroke-linejoin="miter" fill="none" stroke="#ffffff" d="M5886.3 5200.1 6313.1 4773.3 6739.9 5200.1V5662L6313.1 5838.8 5886.3 5662Z"/>
<path transform="matrix(.1,0,0,-.1,0,792)" d="M5886.3 5662 6313.1 5838.8 5886.3 6015.6"/>
<path transform="matrix(.1,0,0,-.1,0,792)" stroke-width="5" stroke-linecap="butt" stroke-miterlimit="10" stroke-linejoin="miter" fill="none" stroke="#ffffff" d="M5886.3 5662 6313.1 5838.8 5886.3 6015.6Z"/>
<path transform="matrix(.1,0,0,-.1,0,792)" d="M5886.3 6015.6 6313.1 5838.8 6739.9 6015.6V6477.5L6313.1 6904.3 5886.3 6477.5" fill="#808080"/>
<path transform="matrix(.1,0,0,-.1,0,792)" stroke-width="5" stroke-linecap="butt" stroke-miterlimit="10" stroke-linejoin="miter" fill="none" stroke="#ffffff" d="M5886.3 6015.6 6313.1 5838.8 6739.9 6015.6V6477.5L6313.1 6904.3 5886.3 6477.5Z"/>
<path transform="matrix(.1,0,0,-.1,0,792)" d="M5886.3 6477.5 6313.1 6904.3 6136.3 7081.1H5886.3Z"/>
<path transform="matrix(.1,0,0,-.1,0,792)" stroke-width="5" stroke-linecap="butt" stroke-miterlimit="10" stroke-linejoin="miter" fill="none" stroke="#ffffff" d="M5886.3 6477.5 6313.1 6904.3 6136.3 7081.1H5886.3Z"/>
<path transform="matrix(.1,0,0,-.1,0,792)" d="M63.6992 7081.1H-186.301L-363.102 6904.3 63.6992 6477.5Z"/>
<path transform="matrix(.1,0,0,-.1,0,792)" stroke-width="5" stroke-linecap="butt" stroke-miterlimit="10" stroke-linejoin="miter" fill="none" stroke="#ffffff" d="M63.6992 7081.1H-186.301L-363.102 6904.3 63.6992 6477.5Z"/>
<path transform="matrix(.1,0,0,-.1,0,792)" d="M63.6992 6477.5-363.102 6904.3-789.898 6477.5V6015.6L-363.102 5838.8 63.6992 6015.6" fill="#808080"/>
<path transform="matrix(.1,0,0,-.1,0,792)" stroke-width="5" stroke-linecap="butt" stroke-miterlimit="10" stroke-linejoin="miter" fill="none" stroke="#ffffff" d="M63.6992 6477.5-363.102 6904.3-789.898 6477.5V6015.6L-363.102 5838.8 63.6992 6015.6Z"/>
<path transform="matrix(.1,0,0,-.1,0,792)" d="M63.6992 6015.6-363.102 5838.8 63.6992 5662"/>
<path transform="matrix(.1,0,0,-.1,0,792)" stroke-width="5" stroke-linecap="butt" stroke-miterlimit="10" stroke-linejoin="miter" fill="none" stroke="#ffffff" d="M63.6992 6015.6-363.102 5838.8 63.6992 5662Z"/>
<path transform="matrix(.1,0,0,-.1,0,792)" d="M63.6992 5662-363.102 5838.8-789.898 5662V5200.1L-363.102 4773.3 63.6992 5200.1" fill="#808080"/>
<path transform="matrix(.1,0,0,-.1,0,792)" stroke-width="5" stroke-linecap="butt" stroke-miterlimit="10" stroke-linejoin="miter" fill="none" stroke="#ffffff" d="M63.6992 5662-363.102 5838.8-789.898 5662V5200.1L-363.102 4773.3 63.6992 5200.1Z"/>
<path transform="matrix(.1,0,0,-.1,0,792)" d="M63.6992 5200.1-363.102 4773.3-186.301 4596.5H63.6992Z"/>
<path transform="matrix(.1,0,0,-.1,0,792)" stroke-width="5" stroke-linecap="butt" stroke-miterlimit="10" stroke-linejoin="miter" fill="none" stroke="#ffffff" d="M63.6992 5200.1-363.102 4773.3-186.301 4596.5H63.6992Z"/>
<path transform="matrix(.1,0,0,-.1,0,792)" d="M63.6992 3743H-186.301L-363.102 3566.2 63.6992 3139.4Z"/>
<path transform="matrix(.1,0,0,-.1,0,792)" stroke-width="5" stroke-linecap="butt" stroke-miterlimit="10" stroke-linejoin="miter" fill="none" stroke="#ffffff" d="M63.6992 3743H-186.301L-363.102 3566.2 63.6992 3139.4Z"/>
<path transform="matrix(.1,0,0,-.1,0,792)" d="M63.6992 3139.4-363.102 3566.2-789.898 3139.4V2677.5L-363.102 2500.7 63.6992 2677.5" fill="#808080"/>
<path transform="matrix(.1,0,0,-.1,0,792)" stroke-width="5" stroke-linecap="butt" stroke-miterlimit="10" stroke-linejoin="miter" fill="none" stroke="#ffffff" d="M63.6992 3139.4-363.102 3566.2-789.898 3139.4V2677.5L-363.102 2500.7 63.6992 2677.5Z"/>
<path transform="matrix(.1,0,0,-.1,0,792)" d="M63.6992 2677.5-363.102 2500.7 63.6992 2323.9"/>
<path transform="matrix(.1,0,0,-.1,0,792)" stroke-width="5" stroke-linecap="butt" stroke-miterlimit="10" stroke-linejoin="miter" fill="none" stroke="#ffffff" d="M63.6992 2677.5-363.102 2500.7 63.6992 2323.9Z"/>
<path transform="matrix(.1,0,0,-.1,0,792)" d="M63.6992 2323.9-363.102 2500.7-789.898 2323.9V1862L-363.102 1435.2 63.6992 1862" fill="#808080"/>
<path transform="matrix(.1,0,0,-.1,0,792)" stroke-width="5" stroke-linecap="butt" stroke-miterlimit="10" stroke-linejoin="miter" fill="none" stroke="#ffffff" d="M63.6992 2323.9-363.102 2500.7-789.898 2323.9V1862L-363.102 1435.2 63.6992 1862Z"/>
<path transform="matrix(.1,0,0,-.1,0,792)" d="M63.6992 1862-363.102 1435.2-186.301 1258.4H63.6992Z"/>
<path transform="matrix(.1,0,0,-.1,0,792)" stroke-width="5" stroke-linecap="butt" stroke-miterlimit="10" stroke-linejoin="miter" fill="none" stroke="#ffffff" d="M63.6992 1862-363.102 1435.2-186.301 1258.4H63.6992Z"/>
<path transform="matrix(.1,0,0,-.1,0,792)" d="M63.6992 404.898H-186.301L-363.102 228.102 63.6992-198.699Z"/>
<path transform="matrix(.1,0,0,-.1,0,792)" stroke-width="5" stroke-linecap="butt" stroke-miterlimit="10" stroke-linejoin="miter" fill="none" stroke="#ffffff" d="M63.6992 404.898H-186.301L-363.102 228.102 63.6992-198.699Z"/>
<path transform="matrix(.1,0,0,-.1,0,792)" d="M993.898 78.3008 817.102-348.5 1306-146"/>
<path transform="matrix(.1,0,0,-.1,0,792)" stroke-width="5" stroke-linecap="butt" stroke-miterlimit="10" stroke-linejoin="miter" fill="none" stroke="#ffffff" d="M993.898 78.3008 817.102-348.5 1306-146Z"/>
<path transform="matrix(.1,0,0,-.1,0,792)" d="M1618 78.3008 1306-146 1794.8-348.5"/>
<path transform="matrix(.1,0,0,-.1,0,792)" stroke-width="5" stroke-linecap="butt" stroke-miterlimit="10" stroke-linejoin="miter" fill="none" stroke="#ffffff" d="M1618 78.3008 1306-146 1794.8-348.5Z"/>
<path transform="matrix(.1,0,0,-.1,0,792)" d="M4332 78.3008 4155.2-348.5 4644-146"/>
<path transform="matrix(.1,0,0,-.1,0,792)" stroke-width="5" stroke-linecap="butt" stroke-miterlimit="10" stroke-linejoin="miter" fill="none" stroke="#ffffff" d="M4332 78.3008 4155.2-348.5 4644-146Z"/>
<path transform="matrix(.1,0,0,-.1,0,792)" d="M4956.1 78.3008 4644-146 5132.9-348.5"/>
<path transform="matrix(.1,0,0,-.1,0,792)" stroke-width="5" stroke-linecap="butt" stroke-miterlimit="10" stroke-linejoin="miter" fill="none" stroke="#ffffff" d="M4956.1 78.3008 4644-146 5132.9-348.5Z"/>
<path transform="matrix(.1,0,0,-.1,0,792)" d="M5886.3-198.699V-660.602L6313.1-837.398 6739.9-660.602V-198.699L6313.1 228.102" fill="#808080"/>
<path transform="matrix(.1,0,0,-.1,0,792)" stroke-width="5" stroke-linecap="butt" stroke-miterlimit="10" stroke-linejoin="miter" fill="none" stroke="#ffffff" d="M5886.3-198.699V-660.602L6313.1-837.398 6739.9-660.602V-198.699L6313.1 228.102Z"/>
<path transform="matrix(.1,0,0,-.1,0,792)" d="M63.6992-198.699-363.102 228.102-789.898-198.699V-660.602L-363.102-837.398 63.6992-660.602" fill="#808080"/>
<path transform="matrix(.1,0,0,-.1,0,792)" stroke-width="5" stroke-linecap="butt" stroke-miterlimit="10" stroke-linejoin="miter" fill="none" stroke="#ffffff" d="M63.6992-198.699-363.102 228.102-789.898-198.699V-660.602L-363.102-837.398 63.6992-660.602Z"/>
</svg>
