<svg xmlns="http://www.w3.org/2000/svg" xmlns:xlink="http://www.w3.org/1999/xlink" xmlns:inkscape="http://www.inkscape.org/namespaces/inkscape" version="1.1" width="612" height="792" viewBox="0 0 612 792">
<path transform="matrix(.1,0,0,-.1,0,792)" d="M2597.9 3299.5 2951.4 3653.1 3305 3299.5V3799.5H3805L3451.4 4153.1 3805 4506.6H3305V5006.6L2951.4 4653.1 2597.9 5006.6V4506.6H2097.9L2451.4 4153.1 2097.9 3799.5H2597.9" fill="#fac782"/>
<path transform="matrix(.1,0,0,-.1,0,792)" stroke-width="1" stroke-linecap="butt" stroke-miterlimit="10" stroke-linejoin="miter" fill="none" stroke="#000000" d="M2597.9 3299.5 2951.4 3653.1 3305 3299.5V3799.5H3805L3451.4 4153.1 3805 4506.6H3305V5006.6L2951.4 4653.1 2597.9 5006.6V4506.6H2097.9L2451.4 4153.1 2097.9 3799.5H2597.9Z"/>
<path transform="matrix(.1,0,0,-.1,0,792)" d="M2951.4 4653.1 3305 5006.6 2951.4 5360.2 2597.9 5006.6Z" fill="#944200"/>
<path transform="matrix(.1,0,0,-.1,0,792)" stroke-width="1" stroke-linecap="butt" stroke-miterlimit="10" stroke-linejoin="miter" fill="none" stroke="#000000" d="M2951.4 4653.1 3305 5006.6 2951.4 5360.2 2597.9 5006.6Z"/>
<path transform="matrix(.1,0,0,-.1,0,792)" d="M3305 4506.6H3805L3305 5006.6" fill="#944200"/>
<path transform="matrix(.1,0,0,-.1,0,792)" stroke-width="1" stroke-linecap="butt" stroke-miterlimit="10" stroke-linejoin="miter" fill="none" stroke="#000000" d="M3305 4506.6H3805L3305 5006.6Z"/>
<path transform="matrix(.1,0,0,-.1,0,792)" d="M3305 3799.5V3299.5L3805 3799.5" fill="#944200"/>
<path transform="matrix(.1,0,0,-.1,0,792)" stroke-width="1" stroke-linecap="butt" stroke-miterlimit="10" stroke-linejoin="miter" fill="none" stroke="#000000" d="M3305 3799.5V3299.5L3805 3799.5Z"/>
<path transform="matrix(.1,0,0,-.1,0,792)" d="M2597.9 4506.6V5006.6L2097.9 4506.6" fill="#944200"/>
<path transform="matrix(.1,0,0,-.1,0,792)" stroke-width="1" stroke-linecap="butt" stroke-miterlimit="10" stroke-linejoin="miter" fill="none" stroke="#000000" d="M2597.9 4506.6V5006.6L2097.9 4506.6Z"/>
<path transform="matrix(.1,0,0,-.1,0,792)" d="M2597.9 3799.5H2097.9L2597.9 3299.5" fill="#944200"/>
<path transform="matrix(.1,0,0,-.1,0,792)" stroke-width="1" stroke-linecap="butt" stroke-miterlimit="10" stroke-linejoin="miter" fill="none" stroke="#000000" d="M2597.9 3799.5H2097.9L2597.9 3299.5Z"/>
<path transform="matrix(.1,0,0,-.1,0,792)" d="M2951.4 3653.1 2597.9 3299.5 2951.4 2946 3305 3299.5Z" fill="#944200"/>
<path transform="matrix(.1,0,0,-.1,0,792)" stroke-width="1" stroke-linecap="butt" stroke-miterlimit="10" stroke-linejoin="miter" fill="none" stroke="#000000" d="M2951.4 3653.1 2597.9 3299.5 2951.4 2946 3305 3299.5Z"/>
<path transform="matrix(.1,0,0,-.1,0,792)" d="M3451.4 4153.1 3805 3799.5 4158.5 4153.1 3805 4506.6Z" fill="#944200"/>
<path transform="matrix(.1,0,0,-.1,0,792)" stroke-width="1" stroke-linecap="butt" stroke-miterlimit="10" stroke-linejoin="miter" fill="none" stroke="#000000" d="M3451.4 4153.1 3805 3799.5 4158.5 4153.1 3805 4506.6Z"/>
<path transform="matrix(.1,0,0,-.1,0,792)" d="M2451.4 4153.1 2097.9 4506.6 1744.3 4153.1 2097.9 3799.5Z" fill="#944200"/>
<path transform="matrix(.1,0,0,-.1,0,792)" stroke-width="1" stroke-linecap="butt" stroke-miterlimit="10" stroke-linejoin="miter" fill="none" stroke="#000000" d="M2451.4 4153.1 2097.9 4506.6 1744.3 4153.1 2097.9 3799.5Z"/>
<path transform="matrix(.1,0,0,-.1,0,792)" d="M2597.9 5006.6 2097.9 5506.6 1597.9 5006.6 2097.9 4506.6Z" fill="#fac782"/>
<path transform="matrix(.1,0,0,-.1,0,792)" stroke-width="1" stroke-linecap="butt" stroke-miterlimit="10" stroke-linejoin="miter" fill="none" stroke="#000000" d="M2597.9 5006.6 2097.9 5506.6 1597.9 5006.6 2097.9 4506.6Z"/>
<path transform="matrix(.1,0,0,-.1,0,792)" d="M2597.9 5006.6V5506.6H2097.9" fill="#944200"/>
<path transform="matrix(.1,0,0,-.1,0,792)" stroke-width="1" stroke-linecap="butt" stroke-miterlimit="10" stroke-linejoin="miter" fill="none" stroke="#000000" d="M2597.9 5006.6V5506.6H2097.9Z"/>
<path transform="matrix(.1,0,0,-.1,0,792)" d="M2597.9 5006.6 2951.4 5360.2 3305 5006.6V5506.6H3805L3451.4 5860.2 3805 6213.8H3305V6713.8L2951.4 6360.2 2597.9 6713.8V6213.8H2097.9L2451.4 5860.2 2097.9 5506.6H2597.9" fill="#fac782"/>
<path transform="matrix(.1,0,0,-.1,0,792)" stroke-width="1" stroke-linecap="butt" stroke-miterlimit="10" stroke-linejoin="miter" fill="none" stroke="#000000" d="M2597.9 5006.6 2951.4 5360.2 3305 5006.6V5506.6H3805L3451.4 5860.2 3805 6213.8H3305V6713.8L2951.4 6360.2 2597.9 6713.8V6213.8H2097.9L2451.4 5860.2 2097.9 5506.6H2597.9Z"/>
<path transform="matrix(.1,0,0,-.1,0,792)" d="M3305 5006.6 3805 5506.6H3305" fill="#944200"/>
<path transform="matrix(.1,0,0,-.1,0,792)" stroke-width="1" stroke-linecap="butt" stroke-miterlimit="10" stroke-linejoin="miter" fill="none" stroke="#000000" d="M3305 5006.6 3805 5506.6H3305Z"/>
<path transform="matrix(.1,0,0,-.1,0,792)" d="M3305 5006.6 3805 4506.6 4305 5006.6 3805 5506.6Z" fill="#fac782"/>
<path transform="matrix(.1,0,0,-.1,0,792)" stroke-width="1" stroke-linecap="butt" stroke-miterlimit="10" stroke-linejoin="miter" fill="none" stroke="#000000" d="M3305 5006.6 3805 4506.6 4305 5006.6 3805 5506.6Z"/>
<path transform="matrix(.1,0,0,-.1,0,792)" d="M2597.9 3299.5V2799.5H2097.9L2451.4 2446 2097.9 2092.4H2597.9V1592.4L2951.4 1946 3305 1592.4V2092.4H3805L3451.4 2446 3805 2799.5H3305V3299.5L2951.4 2946" fill="#fac782"/>
<path transform="matrix(.1,0,0,-.1,0,792)" stroke-width="1" stroke-linecap="butt" stroke-miterlimit="10" stroke-linejoin="miter" fill="none" stroke="#000000" d="M2597.9 3299.5V2799.5H2097.9L2451.4 2446 2097.9 2092.4H2597.9V1592.4L2951.4 1946 3305 1592.4V2092.4H3805L3451.4 2446 3805 2799.5H3305V3299.5L2951.4 2946Z"/>
<path transform="matrix(.1,0,0,-.1,0,792)" d="M2597.9 3299.5 2097.9 2799.5H2597.9" fill="#944200"/>
<path transform="matrix(.1,0,0,-.1,0,792)" stroke-width="1" stroke-linecap="butt" stroke-miterlimit="10" stroke-linejoin="miter" fill="none" stroke="#000000" d="M2597.9 3299.5 2097.9 2799.5H2597.9Z"/>
<path transform="matrix(.1,0,0,-.1,0,792)" d="M2597.9 3299.5 2097.9 3799.5 1597.9 3299.5 2097.9 2799.5Z" fill="#fac782"/>
<path transform="matrix(.1,0,0,-.1,0,792)" stroke-width="1" stroke-linecap="butt" stroke-miterlimit="10" stroke-linejoin="miter" fill="none" stroke="#000000" d="M2597.9 3299.5 2097.9 3799.5 1597.9 3299.5 2097.9 2799.5Z"/>
<path transform="matrix(.1,0,0,-.1,0,792)" d="M3305 3299.5 3805 2799.5 4305 3299.5 3805 3799.5Z" fill="#fac782"/>
<path transform="matrix(.1,0,0,-.1,0,792)" stroke-width="1" stroke-linecap="butt" stroke-miterlimit="10" stroke-linejoin="miter" fill="none" stroke="#000000" d="M3305 3299.5 3805 2799.5 4305 3299.5 3805 3799.5Z"/>
<path transform="matrix(.1,0,0,-.1,0,792)" d="M3305 3299.5V2799.5H3805" fill="#944200"/>
<path transform="matrix(.1,0,0,-.1,0,792)" stroke-width="1" stroke-linecap="butt" stroke-miterlimit="10" stroke-linejoin="miter" fill="none" stroke="#000000" d="M3305 3299.5V2799.5H3805Z"/>
<path transform="matrix(.1,0,0,-.1,0,792)" d="M3805 3799.5H4305V3299.5L4658.5 3653.1 5012.1 3299.5V3799.5H5512.1L5158.5 4153.1 5512.1 4506.6H5012.1V5006.6L4658.5 4653.1 4305 5006.6V4506.6H3805L4158.5 4153.1" fill="#fac782"/>
<path transform="matrix(.1,0,0,-.1,0,792)" stroke-width="1" stroke-linecap="butt" stroke-miterlimit="10" stroke-linejoin="miter" fill="none" stroke="#000000" d="M3805 3799.5H4305V3299.5L4658.5 3653.1 5012.1 3299.5V3799.5H5512.1L5158.5 4153.1 5512.1 4506.6H5012.1V5006.6L4658.5 4653.1 4305 5006.6V4506.6H3805L4158.5 4153.1Z"/>
<path transform="matrix(.1,0,0,-.1,0,792)" d="M3805 3799.5 4305 3299.5V3799.5" fill="#944200"/>
<path transform="matrix(.1,0,0,-.1,0,792)" stroke-width="1" stroke-linecap="butt" stroke-miterlimit="10" stroke-linejoin="miter" fill="none" stroke="#000000" d="M3805 3799.5 4305 3299.5V3799.5Z"/>
<path transform="matrix(.1,0,0,-.1,0,792)" d="M3805 4506.6H4305V5006.6" fill="#944200"/>
<path transform="matrix(.1,0,0,-.1,0,792)" stroke-width="1" stroke-linecap="butt" stroke-miterlimit="10" stroke-linejoin="miter" fill="none" stroke="#000000" d="M3805 4506.6H4305V5006.6Z"/>
<path transform="matrix(.1,0,0,-.1,0,792)" d="M2097.9 4506.6H1597.9V5006.6L1244.3 4653.1 890.801 5006.6V4506.6H390.801L744.301 4153.1 390.801 3799.5H890.801V3299.5L1244.3 3653.1 1597.9 3299.5V3799.5H2097.9L1744.3 4153.1" fill="#fac782"/>
<path transform="matrix(.1,0,0,-.1,0,792)" stroke-width="1" stroke-linecap="butt" stroke-miterlimit="10" stroke-linejoin="miter" fill="none" stroke="#000000" d="M2097.9 4506.6H1597.9V5006.6L1244.3 4653.1 890.801 5006.6V4506.6H390.801L744.301 4153.1 390.801 3799.5H890.801V3299.5L1244.3 3653.1 1597.9 3299.5V3799.5H2097.9L1744.3 4153.1Z"/>
<path transform="matrix(.1,0,0,-.1,0,792)" d="M2097.9 4506.6 1597.9 5006.6V4506.6" fill="#944200"/>
<path transform="matrix(.1,0,0,-.1,0,792)" stroke-width="1" stroke-linecap="butt" stroke-miterlimit="10" stroke-linejoin="miter" fill="none" stroke="#000000" d="M2097.9 4506.6 1597.9 5006.6V4506.6Z"/>
<path transform="matrix(.1,0,0,-.1,0,792)" d="M2097.9 3799.5H1597.9V3299.5" fill="#944200"/>
<path transform="matrix(.1,0,0,-.1,0,792)" stroke-width="1" stroke-linecap="butt" stroke-miterlimit="10" stroke-linejoin="miter" fill="none" stroke="#000000" d="M2097.9 3799.5H1597.9V3299.5Z"/>
<path transform="matrix(.1,0,0,-.1,0,792)" d="M3805 5506.6 4158.5 5860.2 3805 6213.8 3451.4 5860.2Z" fill="#944200"/>
<path transform="matrix(.1,0,0,-.1,0,792)" stroke-width="1" stroke-linecap="butt" stroke-miterlimit="10" stroke-linejoin="miter" fill="none" stroke="#000000" d="M3805 5506.6 4158.5 5860.2 3805 6213.8 3451.4 5860.2Z"/>
<path transform="matrix(.1,0,0,-.1,0,792)" d="M3805 5506.6H4305V5006.6L4658.5 5360.2 5012.1 5006.6V5506.6H5512.1L5158.5 5860.2 5512.1 6213.8H5012.1V6713.8L4658.5 6360.2 4305 6713.8V6213.8H3805L4158.5 5860.2" fill="#fac782"/>
<path transform="matrix(.1,0,0,-.1,0,792)" stroke-width="1" stroke-linecap="butt" stroke-miterlimit="10" stroke-linejoin="miter" fill="none" stroke="#000000" d="M3805 5506.6H4305V5006.6L4658.5 5360.2 5012.1 5006.6V5506.6H5512.1L5158.5 5860.2 5512.1 6213.8H5012.1V6713.8L4658.5 6360.2 4305 6713.8V6213.8H3805L4158.5 5860.2Z"/>
<path transform="matrix(.1,0,0,-.1,0,792)" d="M3805 5506.6 4305 5006.6V5506.6" fill="#944200"/>
<path transform="matrix(.1,0,0,-.1,0,792)" stroke-width="1" stroke-linecap="butt" stroke-miterlimit="10" stroke-linejoin="miter" fill="none" stroke="#000000" d="M3805 5506.6 4305 5006.6V5506.6Z"/>
<path transform="matrix(.1,0,0,-.1,0,792)" d="M2097.9 5506.6H1597.9V5006.6" fill="#944200"/>
<path transform="matrix(.1,0,0,-.1,0,792)" stroke-width="1" stroke-linecap="butt" stroke-miterlimit="10" stroke-linejoin="miter" fill="none" stroke="#000000" d="M2097.9 5506.6H1597.9V5006.6Z"/>
<path transform="matrix(.1,0,0,-.1,0,792)" d="M2097.9 5506.6 1744.3 5860.2 2097.9 6213.8H1597.9V6713.8L1244.3 6360.2 890.801 6713.8V6213.8H390.801L744.301 5860.2 390.801 5506.6H890.801V5006.6L1244.3 5360.2 1597.9 5006.6V5506.6" fill="#fac782"/>
<path transform="matrix(.1,0,0,-.1,0,792)" stroke-width="1" stroke-linecap="butt" stroke-miterlimit="10" stroke-linejoin="miter" fill="none" stroke="#000000" d="M2097.9 5506.6 1744.3 5860.2 2097.9 6213.8H1597.9V6713.8L1244.3 6360.2 890.801 6713.8V6213.8H390.801L744.301 5860.2 390.801 5506.6H890.801V5006.6L1244.3 5360.2 1597.9 5006.6V5506.6Z"/>
<path transform="matrix(.1,0,0,-.1,0,792)" d="M2097.9 5506.6 2451.4 5860.2 2097.9 6213.8 1744.3 5860.2Z" fill="#944200"/>
<path transform="matrix(.1,0,0,-.1,0,792)" stroke-width="1" stroke-linecap="butt" stroke-miterlimit="10" stroke-linejoin="miter" fill="none" stroke="#000000" d="M2097.9 5506.6 2451.4 5860.2 2097.9 6213.8 1744.3 5860.2Z"/>
<path transform="matrix(.1,0,0,-.1,0,792)" d="M2097.9 2799.5 1744.3 2446 2097.9 2092.4 2451.4 2446Z" fill="#944200"/>
<path transform="matrix(.1,0,0,-.1,0,792)" stroke-width="1" stroke-linecap="butt" stroke-miterlimit="10" stroke-linejoin="miter" fill="none" stroke="#000000" d="M2097.9 2799.5 1744.3 2446 2097.9 2092.4 2451.4 2446Z"/>
<path transform="matrix(.1,0,0,-.1,0,792)" d="M2097.9 2799.5H1597.9V3299.5L1244.3 2946 890.801 3299.5V2799.5H390.801L744.301 2446 390.801 2092.4H890.801V1592.4L1244.3 1946 1597.9 1592.4V2092.4H2097.9L1744.3 2446" fill="#fac782"/>
<path transform="matrix(.1,0,0,-.1,0,792)" stroke-width="1" stroke-linecap="butt" stroke-miterlimit="10" stroke-linejoin="miter" fill="none" stroke="#000000" d="M2097.9 2799.5H1597.9V3299.5L1244.3 2946 890.801 3299.5V2799.5H390.801L744.301 2446 390.801 2092.4H890.801V1592.4L1244.3 1946 1597.9 1592.4V2092.4H2097.9L1744.3 2446Z"/>
<path transform="matrix(.1,0,0,-.1,0,792)" d="M2097.9 2799.5 1597.9 3299.5V2799.5" fill="#944200"/>
<path transform="matrix(.1,0,0,-.1,0,792)" stroke-width="1" stroke-linecap="butt" stroke-miterlimit="10" stroke-linejoin="miter" fill="none" stroke="#000000" d="M2097.9 2799.5 1597.9 3299.5V2799.5Z"/>
<path transform="matrix(.1,0,0,-.1,0,792)" d="M3805 2799.5H4305V3299.5" fill="#944200"/>
<path transform="matrix(.1,0,0,-.1,0,792)" stroke-width="1" stroke-linecap="butt" stroke-miterlimit="10" stroke-linejoin="miter" fill="none" stroke="#000000" d="M3805 2799.5H4305V3299.5Z"/>
<path transform="matrix(.1,0,0,-.1,0,792)" d="M3805 2799.5 4158.5 2446 3805 2092.4H4305V1592.4L4658.5 1946 5012.1 1592.4V2092.4H5512.1L5158.5 2446 5512.1 2799.5H5012.1V3299.5L4658.5 2946 4305 3299.5V2799.5" fill="#fac782"/>
<path transform="matrix(.1,0,0,-.1,0,792)" stroke-width="1" stroke-linecap="butt" stroke-miterlimit="10" stroke-linejoin="miter" fill="none" stroke="#000000" d="M3805 2799.5 4158.5 2446 3805 2092.4H4305V1592.4L4658.5 1946 5012.1 1592.4V2092.4H5512.1L5158.5 2446 5512.1 2799.5H5012.1V3299.5L4658.5 2946 4305 3299.5V2799.5Z"/>
<path transform="matrix(.1,0,0,-.1,0,792)" d="M3805 2799.5 3451.4 2446 3805 2092.4 4158.5 2446Z" fill="#944200"/>
<path transform="matrix(.1,0,0,-.1,0,792)" stroke-width="1" stroke-linecap="butt" stroke-miterlimit="10" stroke-linejoin="miter" fill="none" stroke="#000000" d="M3805 2799.5 3451.4 2446 3805 2092.4 4158.5 2446Z"/>
<path transform="matrix(.1,0,0,-.1,0,792)" d="M4305 3299.5 4658.5 2946 5012.1 3299.5 4658.5 3653.1Z" fill="#944200"/>
<path transform="matrix(.1,0,0,-.1,0,792)" stroke-width="1" stroke-linecap="butt" stroke-miterlimit="10" stroke-linejoin="miter" fill="none" stroke="#000000" d="M4305 3299.5 4658.5 2946 5012.1 3299.5 4658.5 3653.1Z"/>
<path transform="matrix(.1,0,0,-.1,0,792)" d="M4305 5006.6 4658.5 4653.1 5012.1 5006.6 4658.5 5360.2Z" fill="#944200"/>
<path transform="matrix(.1,0,0,-.1,0,792)" stroke-width="1" stroke-linecap="butt" stroke-miterlimit="10" stroke-linejoin="miter" fill="none" stroke="#000000" d="M4305 5006.6 4658.5 4653.1 5012.1 5006.6 4658.5 5360.2Z"/>
<path transform="matrix(.1,0,0,-.1,0,792)" d="M1597.9 5006.6 1244.3 5360.2 890.801 5006.6 1244.3 4653.1Z" fill="#944200"/>
<path transform="matrix(.1,0,0,-.1,0,792)" stroke-width="1" stroke-linecap="butt" stroke-miterlimit="10" stroke-linejoin="miter" fill="none" stroke="#000000" d="M1597.9 5006.6 1244.3 5360.2 890.801 5006.6 1244.3 4653.1Z"/>
<path transform="matrix(.1,0,0,-.1,0,792)" d="M1597.9 3299.5 1244.3 3653.1 890.801 3299.5 1244.3 2946Z" fill="#944200"/>
<path transform="matrix(.1,0,0,-.1,0,792)" stroke-width="1" stroke-linecap="butt" stroke-miterlimit="10" stroke-linejoin="miter" fill="none" stroke="#000000" d="M1597.9 3299.5 1244.3 3653.1 890.801 3299.5 1244.3 2946Z"/>
<path transform="matrix(.1,0,0,-.1,0,792)" d="M4305 6213.8V6713.8L3805 6213.8" fill="#944200"/>
<path transform="matrix(.1,0,0,-.1,0,792)" stroke-width="1" stroke-linecap="butt" stroke-miterlimit="10" stroke-linejoin="miter" fill="none" stroke="#000000" d="M4305 6213.8V6713.8L3805 6213.8Z"/>
<path transform="matrix(.1,0,0,-.1,0,792)" d="M3805 6213.8 3305 6713.8V6213.8" fill="#944200"/>
<path transform="matrix(.1,0,0,-.1,0,792)" stroke-width="1" stroke-linecap="butt" stroke-miterlimit="10" stroke-linejoin="miter" fill="none" stroke="#000000" d="M3805 6213.8 3305 6713.8V6213.8Z"/>
<path transform="matrix(.1,0,0,-.1,0,792)" d="M3805 6213.8 4305 6713.8 3805 7213.8 3305 6713.8Z" fill="#fac782"/>
<path transform="matrix(.1,0,0,-.1,0,792)" stroke-width="1" stroke-linecap="butt" stroke-miterlimit="10" stroke-linejoin="miter" fill="none" stroke="#000000" d="M3805 6213.8 4305 6713.8 3805 7213.8 3305 6713.8Z"/>
<path transform="matrix(.1,0,0,-.1,0,792)" d="M2597.9 6213.8V6713.8L2097.9 6213.8" fill="#944200"/>
<path transform="matrix(.1,0,0,-.1,0,792)" stroke-width="1" stroke-linecap="butt" stroke-miterlimit="10" stroke-linejoin="miter" fill="none" stroke="#000000" d="M2597.9 6213.8V6713.8L2097.9 6213.8Z"/>
<path transform="matrix(.1,0,0,-.1,0,792)" d="M2097.9 6213.8 1597.9 6713.8V6213.8" fill="#944200"/>
<path transform="matrix(.1,0,0,-.1,0,792)" stroke-width="1" stroke-linecap="butt" stroke-miterlimit="10" stroke-linejoin="miter" fill="none" stroke="#000000" d="M2097.9 6213.8 1597.9 6713.8V6213.8Z"/>
<path transform="matrix(.1,0,0,-.1,0,792)" d="M2097.9 6213.8 2597.9 6713.8 2097.9 7213.8 1597.9 6713.8Z" fill="#fac782"/>
<path transform="matrix(.1,0,0,-.1,0,792)" stroke-width="1" stroke-linecap="butt" stroke-miterlimit="10" stroke-linejoin="miter" fill="none" stroke="#000000" d="M2097.9 6213.8 2597.9 6713.8 2097.9 7213.8 1597.9 6713.8Z"/>
<path transform="matrix(.1,0,0,-.1,0,792)" d="M1597.9 2092.4V1592.4L2097.9 2092.4" fill="#944200"/>
<path transform="matrix(.1,0,0,-.1,0,792)" stroke-width="1" stroke-linecap="butt" stroke-miterlimit="10" stroke-linejoin="miter" fill="none" stroke="#000000" d="M1597.9 2092.4V1592.4L2097.9 2092.4Z"/>
<path transform="matrix(.1,0,0,-.1,0,792)" d="M2097.9 2092.4 2597.9 1592.4V2092.4" fill="#944200"/>
<path transform="matrix(.1,0,0,-.1,0,792)" stroke-width="1" stroke-linecap="butt" stroke-miterlimit="10" stroke-linejoin="miter" fill="none" stroke="#000000" d="M2097.9 2092.4 2597.9 1592.4V2092.4Z"/>
<path transform="matrix(.1,0,0,-.1,0,792)" d="M2097.9 2092.4 1597.9 1592.4 2097.9 1092.4 2597.9 1592.4Z" fill="#fac782"/>
<path transform="matrix(.1,0,0,-.1,0,792)" stroke-width="1" stroke-linecap="butt" stroke-miterlimit="10" stroke-linejoin="miter" fill="none" stroke="#000000" d="M2097.9 2092.4 1597.9 1592.4 2097.9 1092.4 2597.9 1592.4Z"/>
<path transform="matrix(.1,0,0,-.1,0,792)" d="M3305 2092.4V1592.4L3805 2092.4" fill="#944200"/>
<path transform="matrix(.1,0,0,-.1,0,792)" stroke-width="1" stroke-linecap="butt" stroke-miterlimit="10" stroke-linejoin="miter" fill="none" stroke="#000000" d="M3305 2092.4V1592.4L3805 2092.4Z"/>
<path transform="matrix(.1,0,0,-.1,0,792)" d="M3805 2092.4 4305 1592.4V2092.4" fill="#944200"/>
<path transform="matrix(.1,0,0,-.1,0,792)" stroke-width="1" stroke-linecap="butt" stroke-miterlimit="10" stroke-linejoin="miter" fill="none" stroke="#000000" d="M3805 2092.4 4305 1592.4V2092.4Z"/>
<path transform="matrix(.1,0,0,-.1,0,792)" d="M3805 2092.4 3305 1592.4 3805 1092.4 4305 1592.4Z" fill="#fac782"/>
<path transform="matrix(.1,0,0,-.1,0,792)" stroke-width="1" stroke-linecap="butt" stroke-miterlimit="10" stroke-linejoin="miter" fill="none" stroke="#000000" d="M3805 2092.4 3305 1592.4 3805 1092.4 4305 1592.4Z"/>
<path transform="matrix(.1,0,0,-.1,0,792)" d="M2951.4 6360.2 3305 6713.8 2951.4 7067.3 2597.9 6713.8Z" fill="#944200"/>
<path transform="matrix(.1,0,0,-.1,0,792)" stroke-width="1" stroke-linecap="butt" stroke-miterlimit="10" stroke-linejoin="miter" fill="none" stroke="#000000" d="M2951.4 6360.2 3305 6713.8 2951.4 7067.3 2597.9 6713.8Z"/>
<path transform="matrix(.1,0,0,-.1,0,792)" d="M2951.4 1946 2597.9 1592.4 2951.4 1238.9 3305 1592.4Z" fill="#944200"/>
<path transform="matrix(.1,0,0,-.1,0,792)" stroke-width="1" stroke-linecap="butt" stroke-miterlimit="10" stroke-linejoin="miter" fill="none" stroke="#000000" d="M2951.4 1946 2597.9 1592.4 2951.4 1238.9 3305 1592.4Z"/>
<path transform="matrix(.1,0,0,-.1,0,792)" d="M4658.5 1946 4305 1592.4 4658.5 1238.9 5012.1 1592.4Z" fill="#944200"/>
<path transform="matrix(.1,0,0,-.1,0,792)" stroke-width="1" stroke-linecap="butt" stroke-miterlimit="10" stroke-linejoin="miter" fill="none" stroke="#000000" d="M4658.5 1946 4305 1592.4 4658.5 1238.9 5012.1 1592.4Z"/>
<path transform="matrix(.1,0,0,-.1,0,792)" d="M4658.5 6360.2 5012.1 6713.8 4658.5 7067.3 4305 6713.8Z" fill="#944200"/>
<path transform="matrix(.1,0,0,-.1,0,792)" stroke-width="1" stroke-linecap="butt" stroke-miterlimit="10" stroke-linejoin="miter" fill="none" stroke="#000000" d="M4658.5 6360.2 5012.1 6713.8 4658.5 7067.3 4305 6713.8Z"/>
<path transform="matrix(.1,0,0,-.1,0,792)" d="M1244.3 6360.2 1597.9 6713.8 1244.3 7067.3 890.801 6713.8Z" fill="#944200"/>
<path transform="matrix(.1,0,0,-.1,0,792)" stroke-width="1" stroke-linecap="butt" stroke-miterlimit="10" stroke-linejoin="miter" fill="none" stroke="#000000" d="M1244.3 6360.2 1597.9 6713.8 1244.3 7067.3 890.801 6713.8Z"/>
<path transform="matrix(.1,0,0,-.1,0,792)" d="M1244.3 1946 890.801 1592.4 1244.3 1238.9 1597.9 1592.4Z" fill="#944200"/>
<path transform="matrix(.1,0,0,-.1,0,792)" stroke-width="1" stroke-linecap="butt" stroke-miterlimit="10" stroke-linejoin="miter" fill="none" stroke="#000000" d="M1244.3 1946 890.801 1592.4 1244.3 1238.9 1597.9 1592.4Z"/>
<path transform="matrix(.1,0,0,-.1,0,792)" d="M4305 6713.8V7213.8H3805" fill="#944200"/>
<path transform="matrix(.1,0,0,-.1,0,792)" stroke-width="1" stroke-linecap="butt" stroke-miterlimit="10" stroke-linejoin="miter" fill="none" stroke="#000000" d="M4305 6713.8V7213.8H3805Z"/>
<path transform="matrix(.1,0,0,-.1,0,792)" d="M4305 6713.8 4658.5 7067.3 5012.1 6713.8V7213.8H5512.1L5158.5 7567.3 5512.1 7920.9H5012.1V8420.9L4658.5 8067.3 4305 8420.9V7920.9H3805L4158.5 7567.3 3805 7213.8H4305" fill="#fac782"/>
<path transform="matrix(.1,0,0,-.1,0,792)" stroke-width="1" stroke-linecap="butt" stroke-miterlimit="10" stroke-linejoin="miter" fill="none" stroke="#000000" d="M4305 6713.8 4658.5 7067.3 5012.1 6713.8V7213.8H5512.1L5158.5 7567.3 5512.1 7920.9H5012.1V8420.9L4658.5 8067.3 4305 8420.9V7920.9H3805L4158.5 7567.3 3805 7213.8H4305Z"/>
<path transform="matrix(.1,0,0,-.1,0,792)" d="M3305 6713.8V7213.8H3805L3451.4 7567.3 3805 7920.9H3305V8420.9L2951.4 8067.3 2597.9 8420.9V7920.9H2097.9L2451.4 7567.3 2097.9 7213.8H2597.9V6713.8L2951.4 7067.3" fill="#fac782"/>
<path transform="matrix(.1,0,0,-.1,0,792)" stroke-width="1" stroke-linecap="butt" stroke-miterlimit="10" stroke-linejoin="miter" fill="none" stroke="#000000" d="M3305 6713.8V7213.8H3805L3451.4 7567.3 3805 7920.9H3305V8420.9L2951.4 8067.3 2597.9 8420.9V7920.9H2097.9L2451.4 7567.3 2097.9 7213.8H2597.9V6713.8L2951.4 7067.3Z"/>
<path transform="matrix(.1,0,0,-.1,0,792)" d="M3305 6713.8 3805 7213.8H3305" fill="#944200"/>
<path transform="matrix(.1,0,0,-.1,0,792)" stroke-width="1" stroke-linecap="butt" stroke-miterlimit="10" stroke-linejoin="miter" fill="none" stroke="#000000" d="M3305 6713.8 3805 7213.8H3305Z"/>
<path transform="matrix(.1,0,0,-.1,0,792)" d="M2597.9 6713.8V7213.8H2097.9" fill="#944200"/>
<path transform="matrix(.1,0,0,-.1,0,792)" stroke-width="1" stroke-linecap="butt" stroke-miterlimit="10" stroke-linejoin="miter" fill="none" stroke="#000000" d="M2597.9 6713.8V7213.8H2097.9Z"/>
<path transform="matrix(.1,0,0,-.1,0,792)" d="M1597.9 6713.8V7213.8H2097.9L1744.3 7567.3 2097.9 7920.9H1597.9V8420.9L1244.3 8067.3 890.801 8420.9V7920.9H390.801L744.301 7567.3 390.801 7213.8H890.801V6713.8L1244.3 7067.3" fill="#fac782"/>
<path transform="matrix(.1,0,0,-.1,0,792)" stroke-width="1" stroke-linecap="butt" stroke-miterlimit="10" stroke-linejoin="miter" fill="none" stroke="#000000" d="M1597.9 6713.8V7213.8H2097.9L1744.3 7567.3 2097.9 7920.9H1597.9V8420.9L1244.3 8067.3 890.801 8420.9V7920.9H390.801L744.301 7567.3 390.801 7213.8H890.801V6713.8L1244.3 7067.3Z"/>
<path transform="matrix(.1,0,0,-.1,0,792)" d="M1597.9 6713.8 2097.9 7213.8H1597.9" fill="#944200"/>
<path transform="matrix(.1,0,0,-.1,0,792)" stroke-width="1" stroke-linecap="butt" stroke-miterlimit="10" stroke-linejoin="miter" fill="none" stroke="#000000" d="M1597.9 6713.8 2097.9 7213.8H1597.9Z"/>
<path transform="matrix(.1,0,0,-.1,0,792)" d="M1597.9 1592.4V1092.4H2097.9" fill="#944200"/>
<path transform="matrix(.1,0,0,-.1,0,792)" stroke-width="1" stroke-linecap="butt" stroke-miterlimit="10" stroke-linejoin="miter" fill="none" stroke="#000000" d="M1597.9 1592.4V1092.4H2097.9Z"/>
<path transform="matrix(.1,0,0,-.1,0,792)" d="M1597.9 1592.4 1244.3 1238.9 890.801 1592.4V1092.4H390.801L744.301 738.898 390.801 385.301H890.801V-114.699L1244.3 238.898 1597.9-114.699V385.301H2097.9L1744.3 738.898 2097.9 1092.4H1597.9" fill="#fac782"/>
<path transform="matrix(.1,0,0,-.1,0,792)" stroke-width="1" stroke-linecap="butt" stroke-miterlimit="10" stroke-linejoin="miter" fill="none" stroke="#000000" d="M1597.9 1592.4 1244.3 1238.9 890.801 1592.4V1092.4H390.801L744.301 738.898 390.801 385.301H890.801V-114.699L1244.3 238.898 1597.9-114.699V385.301H2097.9L1744.3 738.898 2097.9 1092.4H1597.9Z"/>
<path transform="matrix(.1,0,0,-.1,0,792)" d="M2597.9 1592.4V1092.4H2097.9L2451.4 738.898 2097.9 385.301H2597.9V-114.699L2951.4 238.898 3305-114.699V385.301H3805L3451.4 738.898 3805 1092.4H3305V1592.4L2951.4 1238.9" fill="#fac782"/>
<path transform="matrix(.1,0,0,-.1,0,792)" stroke-width="1" stroke-linecap="butt" stroke-miterlimit="10" stroke-linejoin="miter" fill="none" stroke="#000000" d="M2597.9 1592.4V1092.4H2097.9L2451.4 738.898 2097.9 385.301H2597.9V-114.699L2951.4 238.898 3305-114.699V385.301H3805L3451.4 738.898 3805 1092.4H3305V1592.4L2951.4 1238.9Z"/>
<path transform="matrix(.1,0,0,-.1,0,792)" d="M2597.9 1592.4 2097.9 1092.4H2597.9" fill="#944200"/>
<path transform="matrix(.1,0,0,-.1,0,792)" stroke-width="1" stroke-linecap="butt" stroke-miterlimit="10" stroke-linejoin="miter" fill="none" stroke="#000000" d="M2597.9 1592.4 2097.9 1092.4H2597.9Z"/>
<path transform="matrix(.1,0,0,-.1,0,792)" d="M3305 1592.4V1092.4H3805" fill="#944200"/>
<path transform="matrix(.1,0,0,-.1,0,792)" stroke-width="1" stroke-linecap="butt" stroke-miterlimit="10" stroke-linejoin="miter" fill="none" stroke="#000000" d="M3305 1592.4V1092.4H3805Z"/>
<path transform="matrix(.1,0,0,-.1,0,792)" d="M4305 1592.4V1092.4H3805L4158.5 738.898 3805 385.301H4305V-114.699L4658.5 238.898 5012.1-114.699V385.301H5512.1L5158.5 738.898 5512.1 1092.4H5012.1V1592.4L4658.5 1238.9" fill="#fac782"/>
<path transform="matrix(.1,0,0,-.1,0,792)" stroke-width="1" stroke-linecap="butt" stroke-miterlimit="10" stroke-linejoin="miter" fill="none" stroke="#000000" d="M4305 1592.4V1092.4H3805L4158.5 738.898 3805 385.301H4305V-114.699L4658.5 238.898 5012.1-114.699V385.301H5512.1L5158.5 738.898 5512.1 1092.4H5012.1V1592.4L4658.5 1238.9Z"/>
<path transform="matrix(.1,0,0,-.1,0,792)" d="M4305 1592.4 3805 1092.4H4305" fill="#944200"/>
<path transform="matrix(.1,0,0,-.1,0,792)" stroke-width="1" stroke-linecap="butt" stroke-miterlimit="10" stroke-linejoin="miter" fill="none" stroke="#000000" d="M4305 1592.4 3805 1092.4H4305Z"/>
<path transform="matrix(.1,0,0,-.1,0,792)" d="M5012.1 1592.4 5512.1 2092.4H5012.1" fill="#944200"/>
<path transform="matrix(.1,0,0,-.1,0,792)" stroke-width="1" stroke-linecap="butt" stroke-miterlimit="10" stroke-linejoin="miter" fill="none" stroke="#000000" d="M5012.1 1592.4 5512.1 2092.4H5012.1Z"/>
<path transform="matrix(.1,0,0,-.1,0,792)" d="M5012.1 1592.4 5512.1 1092.4 6012.1 1592.4 5512.1 2092.4Z" fill="#fac782"/>
<path transform="matrix(.1,0,0,-.1,0,792)" stroke-width="1" stroke-linecap="butt" stroke-miterlimit="10" stroke-linejoin="miter" fill="none" stroke="#000000" d="M5012.1 1592.4 5512.1 1092.4 6012.1 1592.4 5512.1 2092.4Z"/>
<path transform="matrix(.1,0,0,-.1,0,792)" d="M5012.1 1592.4V1092.4H5512.1" fill="#944200"/>
<path transform="matrix(.1,0,0,-.1,0,792)" stroke-width="1" stroke-linecap="butt" stroke-miterlimit="10" stroke-linejoin="miter" fill="none" stroke="#000000" d="M5012.1 1592.4V1092.4H5512.1Z"/>
<path transform="matrix(.1,0,0,-.1,0,792)" d="M5012.1 2799.5H5512.1L5012.1 3299.5" fill="#944200"/>
<path transform="matrix(.1,0,0,-.1,0,792)" stroke-width="1" stroke-linecap="butt" stroke-miterlimit="10" stroke-linejoin="miter" fill="none" stroke="#000000" d="M5012.1 2799.5H5512.1L5012.1 3299.5Z"/>
<path transform="matrix(.1,0,0,-.1,0,792)" d="M5012.1 3299.5 5512.1 3799.5H5012.1" fill="#944200"/>
<path transform="matrix(.1,0,0,-.1,0,792)" stroke-width="1" stroke-linecap="butt" stroke-miterlimit="10" stroke-linejoin="miter" fill="none" stroke="#000000" d="M5012.1 3299.5 5512.1 3799.5H5012.1Z"/>
<path transform="matrix(.1,0,0,-.1,0,792)" d="M5012.1 3299.5 5512.1 2799.5 6012.1 3299.5 5512.1 3799.5Z" fill="#fac782"/>
<path transform="matrix(.1,0,0,-.1,0,792)" stroke-width="1" stroke-linecap="butt" stroke-miterlimit="10" stroke-linejoin="miter" fill="none" stroke="#000000" d="M5012.1 3299.5 5512.1 2799.5 6012.1 3299.5 5512.1 3799.5Z"/>
<path transform="matrix(.1,0,0,-.1,0,792)" d="M5012.1 4506.6H5512.1L5012.1 5006.6" fill="#944200"/>
<path transform="matrix(.1,0,0,-.1,0,792)" stroke-width="1" stroke-linecap="butt" stroke-miterlimit="10" stroke-linejoin="miter" fill="none" stroke="#000000" d="M5012.1 4506.6H5512.1L5012.1 5006.6Z"/>
<path transform="matrix(.1,0,0,-.1,0,792)" d="M5012.1 5006.6 5512.1 5506.6H5012.1" fill="#944200"/>
<path transform="matrix(.1,0,0,-.1,0,792)" stroke-width="1" stroke-linecap="butt" stroke-miterlimit="10" stroke-linejoin="miter" fill="none" stroke="#000000" d="M5012.1 5006.6 5512.1 5506.6H5012.1Z"/>
<path transform="matrix(.1,0,0,-.1,0,792)" d="M5012.1 5006.6 5512.1 4506.6 6012.1 5006.6 5512.1 5506.6Z" fill="#fac782"/>
<path transform="matrix(.1,0,0,-.1,0,792)" stroke-width="1" stroke-linecap="butt" stroke-miterlimit="10" stroke-linejoin="miter" fill="none" stroke="#000000" d="M5012.1 5006.6 5512.1 4506.6 6012.1 5006.6 5512.1 5506.6Z"/>
<path transform="matrix(.1,0,0,-.1,0,792)" d="M5012.1 6213.8H5512.1L5012.1 6713.8" fill="#944200"/>
<path transform="matrix(.1,0,0,-.1,0,792)" stroke-width="1" stroke-linecap="butt" stroke-miterlimit="10" stroke-linejoin="miter" fill="none" stroke="#000000" d="M5012.1 6213.8H5512.1L5012.1 6713.8Z"/>
<path transform="matrix(.1,0,0,-.1,0,792)" d="M5012.1 6713.8 5512.1 7213.8H5012.1" fill="#944200"/>
<path transform="matrix(.1,0,0,-.1,0,792)" stroke-width="1" stroke-linecap="butt" stroke-miterlimit="10" stroke-linejoin="miter" fill="none" stroke="#000000" d="M5012.1 6713.8 5512.1 7213.8H5012.1Z"/>
<path transform="matrix(.1,0,0,-.1,0,792)" d="M5012.1 6713.8 5512.1 6213.8 6012.1 6713.8 5512.1 7213.8Z" fill="#fac782"/>
<path transform="matrix(.1,0,0,-.1,0,792)" stroke-width="1" stroke-linecap="butt" stroke-miterlimit="10" stroke-linejoin="miter" fill="none" stroke="#000000" d="M5012.1 6713.8 5512.1 6213.8 6012.1 6713.8 5512.1 7213.8Z"/>
<path transform="matrix(.1,0,0,-.1,0,792)" d="M890.801 6713.8 390.801 6213.8H890.801" fill="#944200"/>
<path transform="matrix(.1,0,0,-.1,0,792)" stroke-width="1" stroke-linecap="butt" stroke-miterlimit="10" stroke-linejoin="miter" fill="none" stroke="#000000" d="M890.801 6713.8 390.801 6213.8H890.801Z"/>
<path transform="matrix(.1,0,0,-.1,0,792)" d="M890.801 6713.8 390.801 7213.8-109.199 6713.8 390.801 6213.8Z" fill="#fac782"/>
<path transform="matrix(.1,0,0,-.1,0,792)" stroke-width="1" stroke-linecap="butt" stroke-miterlimit="10" stroke-linejoin="miter" fill="none" stroke="#000000" d="M890.801 6713.8 390.801 7213.8-109.199 6713.8 390.801 6213.8Z"/>
<path transform="matrix(.1,0,0,-.1,0,792)" d="M890.801 6713.8V7213.8H390.801" fill="#944200"/>
<path transform="matrix(.1,0,0,-.1,0,792)" stroke-width="1" stroke-linecap="butt" stroke-miterlimit="10" stroke-linejoin="miter" fill="none" stroke="#000000" d="M890.801 6713.8V7213.8H390.801Z"/>
<path transform="matrix(.1,0,0,-.1,0,792)" d="M890.801 5506.6H390.801L890.801 5006.6" fill="#944200"/>
<path transform="matrix(.1,0,0,-.1,0,792)" stroke-width="1" stroke-linecap="butt" stroke-miterlimit="10" stroke-linejoin="miter" fill="none" stroke="#000000" d="M890.801 5506.6H390.801L890.801 5006.6Z"/>
<path transform="matrix(.1,0,0,-.1,0,792)" d="M890.801 5006.6 390.801 4506.6H890.801" fill="#944200"/>
<path transform="matrix(.1,0,0,-.1,0,792)" stroke-width="1" stroke-linecap="butt" stroke-miterlimit="10" stroke-linejoin="miter" fill="none" stroke="#000000" d="M890.801 5006.6 390.801 4506.6H890.801Z"/>
<path transform="matrix(.1,0,0,-.1,0,792)" d="M890.801 5006.6 390.801 5506.6-109.199 5006.6 390.801 4506.6Z" fill="#fac782"/>
<path transform="matrix(.1,0,0,-.1,0,792)" stroke-width="1" stroke-linecap="butt" stroke-miterlimit="10" stroke-linejoin="miter" fill="none" stroke="#000000" d="M890.801 5006.6 390.801 5506.6-109.199 5006.6 390.801 4506.6Z"/>
<path transform="matrix(.1,0,0,-.1,0,792)" d="M890.801 3799.5H390.801L890.801 3299.5" fill="#944200"/>
<path transform="matrix(.1,0,0,-.1,0,792)" stroke-width="1" stroke-linecap="butt" stroke-miterlimit="10" stroke-linejoin="miter" fill="none" stroke="#000000" d="M890.801 3799.5H390.801L890.801 3299.5Z"/>
<path transform="matrix(.1,0,0,-.1,0,792)" d="M890.801 3299.5 390.801 2799.5H890.801" fill="#944200"/>
<path transform="matrix(.1,0,0,-.1,0,792)" stroke-width="1" stroke-linecap="butt" stroke-miterlimit="10" stroke-linejoin="miter" fill="none" stroke="#000000" d="M890.801 3299.5 390.801 2799.5H890.801Z"/>
<path transform="matrix(.1,0,0,-.1,0,792)" d="M890.801 3299.5 390.801 3799.5-109.199 3299.5 390.801 2799.5Z" fill="#fac782"/>
<path transform="matrix(.1,0,0,-.1,0,792)" stroke-width="1" stroke-linecap="butt" stroke-miterlimit="10" stroke-linejoin="miter" fill="none" stroke="#000000" d="M890.801 3299.5 390.801 3799.5-109.199 3299.5 390.801 2799.5Z"/>
<path transform="matrix(.1,0,0,-.1,0,792)" d="M890.801 2092.4H390.801L890.801 1592.4" fill="#944200"/>
<path transform="matrix(.1,0,0,-.1,0,792)" stroke-width="1" stroke-linecap="butt" stroke-miterlimit="10" stroke-linejoin="miter" fill="none" stroke="#000000" d="M890.801 2092.4H390.801L890.801 1592.4Z"/>
<path transform="matrix(.1,0,0,-.1,0,792)" d="M890.801 1592.4 390.801 1092.4H890.801" fill="#944200"/>
<path transform="matrix(.1,0,0,-.1,0,792)" stroke-width="1" stroke-linecap="butt" stroke-miterlimit="10" stroke-linejoin="miter" fill="none" stroke="#000000" d="M890.801 1592.4 390.801 1092.4H890.801Z"/>
<path transform="matrix(.1,0,0,-.1,0,792)" d="M890.801 1592.4 390.801 2092.4-109.199 1592.4 390.801 1092.4Z" fill="#fac782"/>
<path transform="matrix(.1,0,0,-.1,0,792)" stroke-width="1" stroke-linecap="butt" stroke-miterlimit="10" stroke-linejoin="miter" fill="none" stroke="#000000" d="M890.801 1592.4 390.801 2092.4-109.199 1592.4 390.801 1092.4Z"/>
<path transform="matrix(.1,0,0,-.1,0,792)" d="M3805 7213.8 4158.5 7567.3 3805 7920.9 3451.4 7567.3Z" fill="#944200"/>
<path transform="matrix(.1,0,0,-.1,0,792)" stroke-width="1" stroke-linecap="butt" stroke-miterlimit="10" stroke-linejoin="miter" fill="none" stroke="#000000" d="M3805 7213.8 4158.5 7567.3 3805 7920.9 3451.4 7567.3Z"/>
<path transform="matrix(.1,0,0,-.1,0,792)" d="M2097.9 7213.8 2451.4 7567.3 2097.9 7920.9 1744.3 7567.3Z" fill="#944200"/>
<path transform="matrix(.1,0,0,-.1,0,792)" stroke-width="1" stroke-linecap="butt" stroke-miterlimit="10" stroke-linejoin="miter" fill="none" stroke="#000000" d="M2097.9 7213.8 2451.4 7567.3 2097.9 7920.9 1744.3 7567.3Z"/>
<path transform="matrix(.1,0,0,-.1,0,792)" d="M5158.5 2446 5512.1 2092.4 5865.6 2446 5512.1 2799.5Z" fill="#944200"/>
<path transform="matrix(.1,0,0,-.1,0,792)" stroke-width="1" stroke-linecap="butt" stroke-miterlimit="10" stroke-linejoin="miter" fill="none" stroke="#000000" d="M5158.5 2446 5512.1 2092.4 5865.6 2446 5512.1 2799.5Z"/>
<path transform="matrix(.1,0,0,-.1,0,792)" d="M5158.5 4153.1 5512.1 3799.5 5865.6 4153.1 5512.1 4506.6Z" fill="#944200"/>
<path transform="matrix(.1,0,0,-.1,0,792)" stroke-width="1" stroke-linecap="butt" stroke-miterlimit="10" stroke-linejoin="miter" fill="none" stroke="#000000" d="M5158.5 4153.1 5512.1 3799.5 5865.6 4153.1 5512.1 4506.6Z"/>
<path transform="matrix(.1,0,0,-.1,0,792)" d="M5158.5 5860.2 5512.1 5506.6 5865.6 5860.2 5512.1 6213.8Z" fill="#944200"/>
<path transform="matrix(.1,0,0,-.1,0,792)" stroke-width="1" stroke-linecap="butt" stroke-miterlimit="10" stroke-linejoin="miter" fill="none" stroke="#000000" d="M5158.5 5860.2 5512.1 5506.6 5865.6 5860.2 5512.1 6213.8Z"/>
<path transform="matrix(.1,0,0,-.1,0,792)" d="M744.301 5860.2 390.801 6213.8 37.1992 5860.2 390.801 5506.6Z" fill="#944200"/>
<path transform="matrix(.1,0,0,-.1,0,792)" stroke-width="1" stroke-linecap="butt" stroke-miterlimit="10" stroke-linejoin="miter" fill="none" stroke="#000000" d="M744.301 5860.2 390.801 6213.8 37.1992 5860.2 390.801 5506.6Z"/>
<path transform="matrix(.1,0,0,-.1,0,792)" d="M744.301 4153.1 390.801 4506.6 37.1992 4153.1 390.801 3799.5Z" fill="#944200"/>
<path transform="matrix(.1,0,0,-.1,0,792)" stroke-width="1" stroke-linecap="butt" stroke-miterlimit="10" stroke-linejoin="miter" fill="none" stroke="#000000" d="M744.301 4153.1 390.801 4506.6 37.1992 4153.1 390.801 3799.5Z"/>
<path transform="matrix(.1,0,0,-.1,0,792)" d="M744.301 2446 390.801 2799.5 37.1992 2446 390.801 2092.4Z" fill="#944200"/>
<path transform="matrix(.1,0,0,-.1,0,792)" stroke-width="1" stroke-linecap="butt" stroke-miterlimit="10" stroke-linejoin="miter" fill="none" stroke="#000000" d="M744.301 2446 390.801 2799.5 37.1992 2446 390.801 2092.4Z"/>
<path transform="matrix(.1,0,0,-.1,0,792)" d="M2097.9 1092.4 1744.3 738.898 2097.9 385.301 2451.4 738.898Z" fill="#944200"/>
<path transform="matrix(.1,0,0,-.1,0,792)" stroke-width="1" stroke-linecap="butt" stroke-miterlimit="10" stroke-linejoin="miter" fill="none" stroke="#000000" d="M2097.9 1092.4 1744.3 738.898 2097.9 385.301 2451.4 738.898Z"/>
<path transform="matrix(.1,0,0,-.1,0,792)" d="M3805 1092.4 3451.4 738.898 3805 385.301 4158.5 738.898Z" fill="#944200"/>
<path transform="matrix(.1,0,0,-.1,0,792)" stroke-width="1" stroke-linecap="butt" stroke-miterlimit="10" stroke-linejoin="miter" fill="none" stroke="#000000" d="M3805 1092.4 3451.4 738.898 3805 385.301 4158.5 738.898Z"/>
<path transform="matrix(.1,0,0,-.1,0,792)" d="M5158.5 7567.3 5512.1 7213.8 5865.6 7567.3 5512.1 7920.9Z" fill="#944200"/>
<path transform="matrix(.1,0,0,-.1,0,792)" stroke-width="1" stroke-linecap="butt" stroke-miterlimit="10" stroke-linejoin="miter" fill="none" stroke="#000000" d="M5158.5 7567.3 5512.1 7213.8 5865.6 7567.3 5512.1 7920.9Z"/>
<path transform="matrix(.1,0,0,-.1,0,792)" d="M744.301 7567.3 390.801 7920.9 37.1992 7567.3 390.801 7213.8Z" fill="#944200"/>
<path transform="matrix(.1,0,0,-.1,0,792)" stroke-width="1" stroke-linecap="butt" stroke-miterlimit="10" stroke-linejoin="miter" fill="none" stroke="#000000" d="M744.301 7567.3 390.801 7920.9 37.1992 7567.3 390.801 7213.8Z"/>
<path transform="matrix(.1,0,0,-.1,0,792)" d="M744.301 738.898 390.801 1092.4 37.1992 738.898 390.801 385.301Z" fill="#944200"/>
<path transform="matrix(.1,0,0,-.1,0,792)" stroke-width="1" stroke-linecap="butt" stroke-miterlimit="10" stroke-linejoin="miter" fill="none" stroke="#000000" d="M744.301 738.898 390.801 1092.4 37.1992 738.898 390.801 385.301Z"/>
<path transform="matrix(.1,0,0,-.1,0,792)" d="M5158.5 738.898 5512.1 385.301 5865.6 738.898 5512.1 1092.4Z" fill="#944200"/>
<path transform="matrix(.1,0,0,-.1,0,792)" stroke-width="1" stroke-linecap="butt" stroke-miterlimit="10" stroke-linejoin="miter" fill="none" stroke="#000000" d="M5158.5 738.898 5512.1 385.301 5865.6 738.898 5512.1 1092.4Z"/>
<path transform="matrix(.1,0,0,-.1,0,792)" d="M5512.1 1092.4H6012.1V1592.4" fill="#944200"/>
<path transform="matrix(.1,0,0,-.1,0,792)" stroke-width="1" stroke-linecap="butt" stroke-miterlimit="10" stroke-linejoin="miter" fill="none" stroke="#000000" d="M5512.1 1092.4H6012.1V1592.4Z"/>
<path transform="matrix(.1,0,0,-.1,0,792)" d="M5512.1 1092.4 5865.6 738.898 5512.1 385.301H6012.1V-114.699L6365.6 238.898 6719.2-114.699V385.301H7219.2L6865.6 738.898 7219.2 1092.4H6719.2V1592.4L6365.6 1238.9 6012.1 1592.4V1092.4" fill="#fac782"/>
<path transform="matrix(.1,0,0,-.1,0,792)" stroke-width="1" stroke-linecap="butt" stroke-miterlimit="10" stroke-linejoin="miter" fill="none" stroke="#000000" d="M5512.1 1092.4 5865.6 738.898 5512.1 385.301H6012.1V-114.699L6365.6 238.898 6719.2-114.699V385.301H7219.2L6865.6 738.898 7219.2 1092.4H6719.2V1592.4L6365.6 1238.9 6012.1 1592.4V1092.4Z"/>
<path transform="matrix(.1,0,0,-.1,0,792)" d="M5512.1 2092.4H6012.1V1592.4L6365.6 1946 6719.2 1592.4V2092.4H7219.2L6865.6 2446 7219.2 2799.5H6719.2V3299.5L6365.6 2946 6012.1 3299.5V2799.5H5512.1L5865.6 2446" fill="#fac782"/>
<path transform="matrix(.1,0,0,-.1,0,792)" stroke-width="1" stroke-linecap="butt" stroke-miterlimit="10" stroke-linejoin="miter" fill="none" stroke="#000000" d="M5512.1 2092.4H6012.1V1592.4L6365.6 1946 6719.2 1592.4V2092.4H7219.2L6865.6 2446 7219.2 2799.5H6719.2V3299.5L6365.6 2946 6012.1 3299.5V2799.5H5512.1L5865.6 2446Z"/>
<path transform="matrix(.1,0,0,-.1,0,792)" d="M5512.1 2092.4 6012.1 1592.4V2092.4" fill="#944200"/>
<path transform="matrix(.1,0,0,-.1,0,792)" stroke-width="1" stroke-linecap="butt" stroke-miterlimit="10" stroke-linejoin="miter" fill="none" stroke="#000000" d="M5512.1 2092.4 6012.1 1592.4V2092.4Z"/>
<path transform="matrix(.1,0,0,-.1,0,792)" d="M5512.1 2799.5H6012.1V3299.5" fill="#944200"/>
<path transform="matrix(.1,0,0,-.1,0,792)" stroke-width="1" stroke-linecap="butt" stroke-miterlimit="10" stroke-linejoin="miter" fill="none" stroke="#000000" d="M5512.1 2799.5H6012.1V3299.5Z"/>
<path transform="matrix(.1,0,0,-.1,0,792)" d="M5512.1 3799.5H6012.1V3299.5L6365.6 3653.1 6719.2 3299.5V3799.5H7219.2L6865.6 4153.1 7219.2 4506.6H6719.2V5006.6L6365.6 4653.1 6012.1 5006.6V4506.6H5512.1L5865.6 4153.1" fill="#fac782"/>
<path transform="matrix(.1,0,0,-.1,0,792)" stroke-width="1" stroke-linecap="butt" stroke-miterlimit="10" stroke-linejoin="miter" fill="none" stroke="#000000" d="M5512.1 3799.5H6012.1V3299.5L6365.6 3653.1 6719.2 3299.5V3799.5H7219.2L6865.6 4153.1 7219.2 4506.6H6719.2V5006.6L6365.6 4653.1 6012.1 5006.6V4506.6H5512.1L5865.6 4153.1Z"/>
<path transform="matrix(.1,0,0,-.1,0,792)" d="M5512.1 3799.5 6012.1 3299.5V3799.5" fill="#944200"/>
<path transform="matrix(.1,0,0,-.1,0,792)" stroke-width="1" stroke-linecap="butt" stroke-miterlimit="10" stroke-linejoin="miter" fill="none" stroke="#000000" d="M5512.1 3799.5 6012.1 3299.5V3799.5Z"/>
<path transform="matrix(.1,0,0,-.1,0,792)" d="M5512.1 4506.6H6012.1V5006.6" fill="#944200"/>
<path transform="matrix(.1,0,0,-.1,0,792)" stroke-width="1" stroke-linecap="butt" stroke-miterlimit="10" stroke-linejoin="miter" fill="none" stroke="#000000" d="M5512.1 4506.6H6012.1V5006.6Z"/>
<path transform="matrix(.1,0,0,-.1,0,792)" d="M5512.1 5506.6H6012.1V5006.6L6365.6 5360.2 6719.2 5006.6V5506.6H7219.2L6865.6 5860.2 7219.2 6213.8H6719.2V6713.8L6365.6 6360.2 6012.1 6713.8V6213.8H5512.1L5865.6 5860.2" fill="#fac782"/>
<path transform="matrix(.1,0,0,-.1,0,792)" stroke-width="1" stroke-linecap="butt" stroke-miterlimit="10" stroke-linejoin="miter" fill="none" stroke="#000000" d="M5512.1 5506.6H6012.1V5006.6L6365.6 5360.2 6719.2 5006.6V5506.6H7219.2L6865.6 5860.2 7219.2 6213.8H6719.2V6713.8L6365.6 6360.2 6012.1 6713.8V6213.8H5512.1L5865.6 5860.2Z"/>
<path transform="matrix(.1,0,0,-.1,0,792)" d="M5512.1 5506.6 6012.1 5006.6V5506.6" fill="#944200"/>
<path transform="matrix(.1,0,0,-.1,0,792)" stroke-width="1" stroke-linecap="butt" stroke-miterlimit="10" stroke-linejoin="miter" fill="none" stroke="#000000" d="M5512.1 5506.6 6012.1 5006.6V5506.6Z"/>
<path transform="matrix(.1,0,0,-.1,0,792)" d="M5512.1 6213.8H6012.1V6713.8" fill="#944200"/>
<path transform="matrix(.1,0,0,-.1,0,792)" stroke-width="1" stroke-linecap="butt" stroke-miterlimit="10" stroke-linejoin="miter" fill="none" stroke="#000000" d="M5512.1 6213.8H6012.1V6713.8Z"/>
<path transform="matrix(.1,0,0,-.1,0,792)" d="M5512.1 7213.8H6012.1V6713.8L6365.6 7067.3 6719.2 6713.8V7213.8H7219.2L6865.6 7567.3 7219.2 7920.9H6719.2V8420.9L6365.6 8067.3 6012.1 8420.9V7920.9H5512.1L5865.6 7567.3" fill="#fac782"/>
<path transform="matrix(.1,0,0,-.1,0,792)" stroke-width="1" stroke-linecap="butt" stroke-miterlimit="10" stroke-linejoin="miter" fill="none" stroke="#000000" d="M5512.1 7213.8H6012.1V6713.8L6365.6 7067.3 6719.2 6713.8V7213.8H7219.2L6865.6 7567.3 7219.2 7920.9H6719.2V8420.9L6365.6 8067.3 6012.1 8420.9V7920.9H5512.1L5865.6 7567.3Z"/>
<path transform="matrix(.1,0,0,-.1,0,792)" d="M5512.1 7213.8 6012.1 6713.8V7213.8" fill="#944200"/>
<path transform="matrix(.1,0,0,-.1,0,792)" stroke-width="1" stroke-linecap="butt" stroke-miterlimit="10" stroke-linejoin="miter" fill="none" stroke="#000000" d="M5512.1 7213.8 6012.1 6713.8V7213.8Z"/>
<path transform="matrix(.1,0,0,-.1,0,792)" d="M390.801 7213.8H-109.199V6713.8" fill="#944200"/>
<path transform="matrix(.1,0,0,-.1,0,792)" stroke-width="1" stroke-linecap="butt" stroke-miterlimit="10" stroke-linejoin="miter" fill="none" stroke="#000000" d="M390.801 7213.8H-109.199V6713.8Z"/>
<path transform="matrix(.1,0,0,-.1,0,792)" d="M390.801 7213.8 37.1992 7567.3 390.801 7920.9H-109.199V8420.9L-462.801 8067.3-816.301 8420.9V7920.9H-1316.3L-962.801 7567.3-1316.3 7213.8H-816.301V6713.8L-462.801 7067.3-109.199 6713.8V7213.8" fill="#fac782"/>
<path transform="matrix(.1,0,0,-.1,0,792)" stroke-width="1" stroke-linecap="butt" stroke-miterlimit="10" stroke-linejoin="miter" fill="none" stroke="#000000" d="M390.801 7213.8 37.1992 7567.3 390.801 7920.9H-109.199V8420.9L-462.801 8067.3-816.301 8420.9V7920.9H-1316.3L-962.801 7567.3-1316.3 7213.8H-816.301V6713.8L-462.801 7067.3-109.199 6713.8V7213.8Z"/>
<path transform="matrix(.1,0,0,-.1,0,792)" d="M390.801 6213.8H-109.199V6713.8L-462.801 6360.2-816.301 6713.8V6213.8H-1316.3L-962.801 5860.2-1316.3 5506.6H-816.301V5006.6L-462.801 5360.2-109.199 5006.6V5506.6H390.801L37.1992 5860.2" fill="#fac782"/>
<path transform="matrix(.1,0,0,-.1,0,792)" stroke-width="1" stroke-linecap="butt" stroke-miterlimit="10" stroke-linejoin="miter" fill="none" stroke="#000000" d="M390.801 6213.8H-109.199V6713.8L-462.801 6360.2-816.301 6713.8V6213.8H-1316.3L-962.801 5860.2-1316.3 5506.6H-816.301V5006.6L-462.801 5360.2-109.199 5006.6V5506.6H390.801L37.1992 5860.2Z"/>
<path transform="matrix(.1,0,0,-.1,0,792)" d="M390.801 6213.8-109.199 6713.8V6213.8" fill="#944200"/>
<path transform="matrix(.1,0,0,-.1,0,792)" stroke-width="1" stroke-linecap="butt" stroke-miterlimit="10" stroke-linejoin="miter" fill="none" stroke="#000000" d="M390.801 6213.8-109.199 6713.8V6213.8Z"/>
<path transform="matrix(.1,0,0,-.1,0,792)" d="M390.801 5506.6H-109.199V5006.6" fill="#944200"/>
<path transform="matrix(.1,0,0,-.1,0,792)" stroke-width="1" stroke-linecap="butt" stroke-miterlimit="10" stroke-linejoin="miter" fill="none" stroke="#000000" d="M390.801 5506.6H-109.199V5006.6Z"/>
<path transform="matrix(.1,0,0,-.1,0,792)" d="M390.801 4506.6H-109.199V5006.6L-462.801 4653.1-816.301 5006.6V4506.6H-1316.3L-962.801 4153.1-1316.3 3799.5H-816.301V3299.5L-462.801 3653.1-109.199 3299.5V3799.5H390.801L37.1992 4153.1" fill="#fac782"/>
<path transform="matrix(.1,0,0,-.1,0,792)" stroke-width="1" stroke-linecap="butt" stroke-miterlimit="10" stroke-linejoin="miter" fill="none" stroke="#000000" d="M390.801 4506.6H-109.199V5006.6L-462.801 4653.1-816.301 5006.6V4506.6H-1316.3L-962.801 4153.1-1316.3 3799.5H-816.301V3299.5L-462.801 3653.1-109.199 3299.5V3799.5H390.801L37.1992 4153.1Z"/>
<path transform="matrix(.1,0,0,-.1,0,792)" d="M390.801 4506.6-109.199 5006.6V4506.6" fill="#944200"/>
<path transform="matrix(.1,0,0,-.1,0,792)" stroke-width="1" stroke-linecap="butt" stroke-miterlimit="10" stroke-linejoin="miter" fill="none" stroke="#000000" d="M390.801 4506.6-109.199 5006.6V4506.6Z"/>
<path transform="matrix(.1,0,0,-.1,0,792)" d="M390.801 3799.5H-109.199V3299.5" fill="#944200"/>
<path transform="matrix(.1,0,0,-.1,0,792)" stroke-width="1" stroke-linecap="butt" stroke-miterlimit="10" stroke-linejoin="miter" fill="none" stroke="#000000" d="M390.801 3799.5H-109.199V3299.5Z"/>
<path transform="matrix(.1,0,0,-.1,0,792)" d="M390.801 2799.5H-109.199V3299.5L-462.801 2946-816.301 3299.5V2799.5H-1316.3L-962.801 2446-1316.3 2092.4H-816.301V1592.4L-462.801 1946-109.199 1592.4V2092.4H390.801L37.1992 2446" fill="#fac782"/>
<path transform="matrix(.1,0,0,-.1,0,792)" stroke-width="1" stroke-linecap="butt" stroke-miterlimit="10" stroke-linejoin="miter" fill="none" stroke="#000000" d="M390.801 2799.5H-109.199V3299.5L-462.801 2946-816.301 3299.5V2799.5H-1316.3L-962.801 2446-1316.3 2092.4H-816.301V1592.4L-462.801 1946-109.199 1592.4V2092.4H390.801L37.1992 2446Z"/>
<path transform="matrix(.1,0,0,-.1,0,792)" d="M390.801 2799.5-109.199 3299.5V2799.5" fill="#944200"/>
<path transform="matrix(.1,0,0,-.1,0,792)" stroke-width="1" stroke-linecap="butt" stroke-miterlimit="10" stroke-linejoin="miter" fill="none" stroke="#000000" d="M390.801 2799.5-109.199 3299.5V2799.5Z"/>
<path transform="matrix(.1,0,0,-.1,0,792)" d="M390.801 2092.4H-109.199V1592.4" fill="#944200"/>
<path transform="matrix(.1,0,0,-.1,0,792)" stroke-width="1" stroke-linecap="butt" stroke-miterlimit="10" stroke-linejoin="miter" fill="none" stroke="#000000" d="M390.801 2092.4H-109.199V1592.4Z"/>
<path transform="matrix(.1,0,0,-.1,0,792)" d="M390.801 1092.4H-109.199V1592.4L-462.801 1238.9-816.301 1592.4V1092.4H-1316.3L-962.801 738.898-1316.3 385.301H-816.301V-114.699L-462.801 238.898-109.199-114.699V385.301H390.801L37.1992 738.898" fill="#fac782"/>
<path transform="matrix(.1,0,0,-.1,0,792)" stroke-width="1" stroke-linecap="butt" stroke-miterlimit="10" stroke-linejoin="miter" fill="none" stroke="#000000" d="M390.801 1092.4H-109.199V1592.4L-462.801 1238.9-816.301 1592.4V1092.4H-1316.3L-962.801 738.898-1316.3 385.301H-816.301V-114.699L-462.801 238.898-109.199-114.699V385.301H390.801L37.1992 738.898Z"/>
<path transform="matrix(.1,0,0,-.1,0,792)" d="M390.801 1092.4-109.199 1592.4V1092.4" fill="#944200"/>
<path transform="matrix(.1,0,0,-.1,0,792)" stroke-width="1" stroke-linecap="butt" stroke-miterlimit="10" stroke-linejoin="miter" fill="none" stroke="#000000" d="M390.801 1092.4-109.199 1592.4V1092.4Z"/>
<path transform="matrix(.1,0,0,-.1,0,792)" stroke-width="1" stroke-linecap="butt" stroke-miterlimit="10" stroke-linejoin="miter" fill="none" stroke="#000000" d="M5512.1 7920.9 5012.1 8420.9V7920.9Z"/>
<path transform="matrix(.1,0,0,-.1,0,792)" stroke-width="1" stroke-linecap="butt" stroke-miterlimit="10" stroke-linejoin="miter" fill="none" stroke="#000000" d="M5512.1 7920.9 6012.1 8420.9 5512.1 8920.9 5012.1 8420.9Z"/>
<path transform="matrix(.1,0,0,-.1,0,792)" stroke-width="1" stroke-linecap="butt" stroke-miterlimit="10" stroke-linejoin="miter" fill="none" stroke="#000000" d="M5512.1 7920.9H6012.1V8420.9Z"/>
<path transform="matrix(.1,0,0,-.1,0,792)" stroke-width="1" stroke-linecap="butt" stroke-miterlimit="10" stroke-linejoin="miter" fill="none" stroke="#000000" d="M4305 7920.9V8420.9L3805 7920.9Z"/>
<path transform="matrix(.1,0,0,-.1,0,792)" stroke-width="1" stroke-linecap="butt" stroke-miterlimit="10" stroke-linejoin="miter" fill="none" stroke="#000000" d="M3805 7920.9 3305 8420.9V7920.9Z"/>
<path transform="matrix(.1,0,0,-.1,0,792)" stroke-width="1" stroke-linecap="butt" stroke-miterlimit="10" stroke-linejoin="miter" fill="none" stroke="#000000" d="M3805 7920.9 4305 8420.9 3805 8920.9 3305 8420.9Z"/>
<path transform="matrix(.1,0,0,-.1,0,792)" stroke-width="1" stroke-linecap="butt" stroke-miterlimit="10" stroke-linejoin="miter" fill="none" stroke="#000000" d="M2597.9 7920.9V8420.9L2097.9 7920.9Z"/>
<path transform="matrix(.1,0,0,-.1,0,792)" stroke-width="1" stroke-linecap="butt" stroke-miterlimit="10" stroke-linejoin="miter" fill="none" stroke="#000000" d="M2097.9 7920.9 1597.9 8420.9V7920.9Z"/>
<path transform="matrix(.1,0,0,-.1,0,792)" stroke-width="1" stroke-linecap="butt" stroke-miterlimit="10" stroke-linejoin="miter" fill="none" stroke="#000000" d="M2097.9 7920.9 2597.9 8420.9 2097.9 8920.9 1597.9 8420.9Z"/>
<path transform="matrix(.1,0,0,-.1,0,792)" stroke-width="1" stroke-linecap="butt" stroke-miterlimit="10" stroke-linejoin="miter" fill="none" stroke="#000000" d="M890.801 7920.9V8420.9L390.801 7920.9Z"/>
<path transform="matrix(.1,0,0,-.1,0,792)" stroke-width="1" stroke-linecap="butt" stroke-miterlimit="10" stroke-linejoin="miter" fill="none" stroke="#000000" d="M390.801 7920.9-109.199 8420.9V7920.9Z"/>
<path transform="matrix(.1,0,0,-.1,0,792)" stroke-width="1" stroke-linecap="butt" stroke-miterlimit="10" stroke-linejoin="miter" fill="none" stroke="#000000" d="M390.801 7920.9 890.801 8420.9 390.801 8920.9-109.199 8420.9Z"/>
<path transform="matrix(.1,0,0,-.1,0,792)" d="M390.801 385.301 890.801-114.699V385.301" fill="#944200"/>
<path transform="matrix(.1,0,0,-.1,0,792)" stroke-width="1" stroke-linecap="butt" stroke-miterlimit="10" stroke-linejoin="miter" fill="none" stroke="#000000" d="M390.801 385.301 890.801-114.699V385.301Z"/>
<path transform="matrix(.1,0,0,-.1,0,792)" d="M390.801 385.301-109.199-114.699 390.801-614.699 890.801-114.699Z" fill="#fac782"/>
<path transform="matrix(.1,0,0,-.1,0,792)" stroke-width="1" stroke-linecap="butt" stroke-miterlimit="10" stroke-linejoin="miter" fill="none" stroke="#000000" d="M390.801 385.301-109.199-114.699 390.801-614.699 890.801-114.699Z"/>
<path transform="matrix(.1,0,0,-.1,0,792)" d="M390.801 385.301H-109.199V-114.699" fill="#944200"/>
<path transform="matrix(.1,0,0,-.1,0,792)" stroke-width="1" stroke-linecap="butt" stroke-miterlimit="10" stroke-linejoin="miter" fill="none" stroke="#000000" d="M390.801 385.301H-109.199V-114.699Z"/>
<path transform="matrix(.1,0,0,-.1,0,792)" d="M1597.9 385.301V-114.699L2097.9 385.301" fill="#944200"/>
<path transform="matrix(.1,0,0,-.1,0,792)" stroke-width="1" stroke-linecap="butt" stroke-miterlimit="10" stroke-linejoin="miter" fill="none" stroke="#000000" d="M1597.9 385.301V-114.699L2097.9 385.301Z"/>
<path transform="matrix(.1,0,0,-.1,0,792)" d="M2097.9 385.301 2597.9-114.699V385.301" fill="#944200"/>
<path transform="matrix(.1,0,0,-.1,0,792)" stroke-width="1" stroke-linecap="butt" stroke-miterlimit="10" stroke-linejoin="miter" fill="none" stroke="#000000" d="M2097.9 385.301 2597.9-114.699V385.301Z"/>
<path transform="matrix(.1,0,0,-.1,0,792)" d="M2097.9 385.301 1597.9-114.699 2097.9-614.699 2597.9-114.699Z" fill="#fac782"/>
<path transform="matrix(.1,0,0,-.1,0,792)" stroke-width="1" stroke-linecap="butt" stroke-miterlimit="10" stroke-linejoin="miter" fill="none" stroke="#000000" d="M2097.9 385.301 1597.9-114.699 2097.9-614.699 2597.9-114.699Z"/>
<path transform="matrix(.1,0,0,-.1,0,792)" d="M3305 385.301V-114.699L3805 385.301" fill="#944200"/>
<path transform="matrix(.1,0,0,-.1,0,792)" stroke-width="1" stroke-linecap="butt" stroke-miterlimit="10" stroke-linejoin="miter" fill="none" stroke="#000000" d="M3305 385.301V-114.699L3805 385.301Z"/>
<path transform="matrix(.1,0,0,-.1,0,792)" d="M3805 385.301 4305-114.699V385.301" fill="#944200"/>
<path transform="matrix(.1,0,0,-.1,0,792)" stroke-width="1" stroke-linecap="butt" stroke-miterlimit="10" stroke-linejoin="miter" fill="none" stroke="#000000" d="M3805 385.301 4305-114.699V385.301Z"/>
<path transform="matrix(.1,0,0,-.1,0,792)" d="M3805 385.301 3305-114.699 3805-614.699 4305-114.699Z" fill="#fac782"/>
<path transform="matrix(.1,0,0,-.1,0,792)" stroke-width="1" stroke-linecap="butt" stroke-miterlimit="10" stroke-linejoin="miter" fill="none" stroke="#000000" d="M3805 385.301 3305-114.699 3805-614.699 4305-114.699Z"/>
<path transform="matrix(.1,0,0,-.1,0,792)" d="M5012.1 385.301V-114.699L5512.1 385.301" fill="#944200"/>
<path transform="matrix(.1,0,0,-.1,0,792)" stroke-width="1" stroke-linecap="butt" stroke-miterlimit="10" stroke-linejoin="miter" fill="none" stroke="#000000" d="M5012.1 385.301V-114.699L5512.1 385.301Z"/>
<path transform="matrix(.1,0,0,-.1,0,792)" d="M5512.1 385.301 6012.1-114.699V385.301" fill="#944200"/>
<path transform="matrix(.1,0,0,-.1,0,792)" stroke-width="1" stroke-linecap="butt" stroke-miterlimit="10" stroke-linejoin="miter" fill="none" stroke="#000000" d="M5512.1 385.301 6012.1-114.699V385.301Z"/>
<path transform="matrix(.1,0,0,-.1,0,792)" d="M5512.1 385.301 5012.1-114.699 5512.1-614.699 6012.1-114.699Z" fill="#fac782"/>
<path transform="matrix(.1,0,0,-.1,0,792)" stroke-width="1" stroke-linecap="butt" stroke-miterlimit="10" stroke-linejoin="miter" fill="none" stroke="#000000" d="M5512.1 385.301 5012.1-114.699 5512.1-614.699 6012.1-114.699Z"/>
<path transform="matrix(.1,0,0,-.1,0,792)" d="M1244.3 238.898 890.801-114.699 1244.3-468.199 1597.9-114.699Z" fill="#944200"/>
<path transform="matrix(.1,0,0,-.1,0,792)" stroke-width="1" stroke-linecap="butt" stroke-miterlimit="10" stroke-linejoin="miter" fill="none" stroke="#000000" d="M1244.3 238.898 890.801-114.699 1244.3-468.199 1597.9-114.699Z"/>
<path transform="matrix(.1,0,0,-.1,0,792)" d="M2951.4 238.898 2597.9-114.699 2951.4-468.199 3305-114.699Z" fill="#944200"/>
<path transform="matrix(.1,0,0,-.1,0,792)" stroke-width="1" stroke-linecap="butt" stroke-miterlimit="10" stroke-linejoin="miter" fill="none" stroke="#000000" d="M2951.4 238.898 2597.9-114.699 2951.4-468.199 3305-114.699Z"/>
<path transform="matrix(.1,0,0,-.1,0,792)" d="M4658.5 238.898 4305-114.699 4658.5-468.199 5012.1-114.699Z" fill="#944200"/>
<path transform="matrix(.1,0,0,-.1,0,792)" stroke-width="1" stroke-linecap="butt" stroke-miterlimit="10" stroke-linejoin="miter" fill="none" stroke="#000000" d="M4658.5 238.898 4305-114.699 4658.5-468.199 5012.1-114.699Z"/>
<path transform="matrix(.1,0,0,-.1,0,792)" d="M6012.1 1592.4 6365.6 1238.9 6719.2 1592.4 6365.6 1946Z" fill="#944200"/>
<path transform="matrix(.1,0,0,-.1,0,792)" stroke-width="1" stroke-linecap="butt" stroke-miterlimit="10" stroke-linejoin="miter" fill="none" stroke="#000000" d="M6012.1 1592.4 6365.6 1238.9 6719.2 1592.4 6365.6 1946Z"/>
<path transform="matrix(.1,0,0,-.1,0,792)" d="M6012.1 3299.5 6365.6 2946 6719.2 3299.5 6365.6 3653.1Z" fill="#944200"/>
<path transform="matrix(.1,0,0,-.1,0,792)" stroke-width="1" stroke-linecap="butt" stroke-miterlimit="10" stroke-linejoin="miter" fill="none" stroke="#000000" d="M6012.1 3299.5 6365.6 2946 6719.2 3299.5 6365.6 3653.1Z"/>
<path transform="matrix(.1,0,0,-.1,0,792)" d="M6012.1 5006.6 6365.6 4653.1 6719.2 5006.6 6365.6 5360.2Z" fill="#944200"/>
<path transform="matrix(.1,0,0,-.1,0,792)" stroke-width="1" stroke-linecap="butt" stroke-miterlimit="10" stroke-linejoin="miter" fill="none" stroke="#000000" d="M6012.1 5006.6 6365.6 4653.1 6719.2 5006.6 6365.6 5360.2Z"/>
<path transform="matrix(.1,0,0,-.1,0,792)" d="M6012.1 6713.8 6365.6 6360.2 6719.2 6713.8 6365.6 7067.3Z" fill="#944200"/>
<path transform="matrix(.1,0,0,-.1,0,792)" stroke-width="1" stroke-linecap="butt" stroke-miterlimit="10" stroke-linejoin="miter" fill="none" stroke="#000000" d="M6012.1 6713.8 6365.6 6360.2 6719.2 6713.8 6365.6 7067.3Z"/>
<path transform="matrix(.1,0,0,-.1,0,792)" d="M6012.1-114.699 6365.6-468.199 6719.2-114.699 6365.6 238.898Z" fill="#944200"/>
<path transform="matrix(.1,0,0,-.1,0,792)" stroke-width="1" stroke-linecap="butt" stroke-miterlimit="10" stroke-linejoin="miter" fill="none" stroke="#000000" d="M6012.1-114.699 6365.6-468.199 6719.2-114.699 6365.6 238.898Z"/>
</svg>
