<svg xmlns="http://www.w3.org/2000/svg" xmlns:xlink="http://www.w3.org/1999/xlink" xmlns:inkscape="http://www.inkscape.org/namespaces/inkscape" version="1.1" width="612" height="792" viewBox="0 0 612 792">
<path transform="matrix(.1,0,0,-.1,0,792)" d="M2975 2887.3 3325 3493.6H4025L3675 4099.8 4025 4706H3325L2975 5312.2 2625 4706H1925L2275 4099.8 1925 3493.6H2625" fill="#59a10d"/>
<path transform="matrix(.1,0,0,-.1,0,792)" stroke-width="35" stroke-linecap="butt" stroke-miterlimit="10" stroke-linejoin="miter" fill="none" stroke="#ffffff" d="M2975 2887.3 3325 3493.6H4025L3675 4099.8 4025 4706H3325L2975 5312.2 2625 4706H1925L2275 4099.8 1925 3493.6H2625Z"/>
<path transform="matrix(.1,0,0,-.1,0,792)" d="M3325 4706H5425L5075 5312.2H3675L3325 5918.4 2975 5312.2" fill="#034599"/>
<path transform="matrix(.1,0,0,-.1,0,792)" stroke-width="35" stroke-linecap="butt" stroke-miterlimit="10" stroke-linejoin="miter" fill="none" stroke="#ffffff" d="M3325 4706H5425L5075 5312.2H3675L3325 5918.4 2975 5312.2Z"/>
<path transform="matrix(.1,0,0,-.1,0,792)" d="M2625 4706 2975 5312.2 3325 5918.4 3675 6524.6H2975L2625 5918.4 2275 5312.2H1575L1925 4706" fill="#034599"/>
<path transform="matrix(.1,0,0,-.1,0,792)" stroke-width="35" stroke-linecap="butt" stroke-miterlimit="10" stroke-linejoin="miter" fill="none" stroke="#ffffff" d="M2625 4706 2975 5312.2 3325 5918.4 3675 6524.6H2975L2625 5918.4 2275 5312.2H1575L1925 4706Z"/>
<path transform="matrix(.1,0,0,-.1,0,792)" d="M2625 3493.6H525L875 2887.3H2275L2625 2281.1 2975 2887.3" fill="#034599"/>
<path transform="matrix(.1,0,0,-.1,0,792)" stroke-width="35" stroke-linecap="butt" stroke-miterlimit="10" stroke-linejoin="miter" fill="none" stroke="#ffffff" d="M2625 3493.6H525L875 2887.3H2275L2625 2281.1 2975 2887.3Z"/>
<path transform="matrix(.1,0,0,-.1,0,792)" d="M3325 3493.6 2975 2887.3 2625 2281.1 2275 1674.9H2975L3325 2281.1 3675 2887.3H4375L4025 3493.6" fill="#034599"/>
<path transform="matrix(.1,0,0,-.1,0,792)" stroke-width="35" stroke-linecap="butt" stroke-miterlimit="10" stroke-linejoin="miter" fill="none" stroke="#ffffff" d="M3325 3493.6 2975 2887.3 2625 2281.1 2275 1674.9H2975L3325 2281.1 3675 2887.3H4375L4025 3493.6Z"/>
<path transform="matrix(.1,0,0,-.1,0,792)" d="M3675 4099.8 4025 3493.6 4375 2887.3 4725 2281.1 5075 2887.3 4725 3493.6 4375 4099.8 4725 4706H4025" fill="#034599"/>
<path transform="matrix(.1,0,0,-.1,0,792)" stroke-width="35" stroke-linecap="butt" stroke-miterlimit="10" stroke-linejoin="miter" fill="none" stroke="#ffffff" d="M3675 4099.8 4025 3493.6 4375 2887.3 4725 2281.1 5075 2887.3 4725 3493.6 4375 4099.8 4725 4706H4025Z"/>
<path transform="matrix(.1,0,0,-.1,0,792)" d="M2275 4099.8 1925 4706 1575 5312.2 1225 5918.4 875 5312.2 1225 4706 1575 4099.8 1225 3493.6H1925" fill="#034599"/>
<path transform="matrix(.1,0,0,-.1,0,792)" stroke-width="35" stroke-linecap="butt" stroke-miterlimit="10" stroke-linejoin="miter" fill="none" stroke="#ffffff" d="M2275 4099.8 1925 4706 1575 5312.2 1225 5918.4 875 5312.2 1225 4706 1575 4099.8 1225 3493.6H1925Z"/>
<path transform="matrix(.1,0,0,-.1,0,792)" d="M2275 5312.2 2625 5918.4 2275 6524.6H1575L1225 5918.4 1575 5312.2" fill="#3399a6"/>
<path transform="matrix(.1,0,0,-.1,0,792)" stroke-width="35" stroke-linecap="butt" stroke-miterlimit="10" stroke-linejoin="miter" fill="none" stroke="#ffffff" d="M2275 5312.2 2625 5918.4 2275 6524.6H1575L1225 5918.4 1575 5312.2Z"/>
<path transform="matrix(.1,0,0,-.1,0,792)" d="M3675 5312.2H4375L4725 5918.4 4375 6524.6H3675L3325 5918.4" fill="#3399a6"/>
<path transform="matrix(.1,0,0,-.1,0,792)" stroke-width="35" stroke-linecap="butt" stroke-miterlimit="10" stroke-linejoin="miter" fill="none" stroke="#ffffff" d="M3675 5312.2H4375L4725 5918.4 4375 6524.6H3675L3325 5918.4Z"/>
<path transform="matrix(.1,0,0,-.1,0,792)" d="M2275 2887.3H1575L1225 2281.1 1575 1674.9H2275L2625 2281.1" fill="#3399a6"/>
<path transform="matrix(.1,0,0,-.1,0,792)" stroke-width="35" stroke-linecap="butt" stroke-miterlimit="10" stroke-linejoin="miter" fill="none" stroke="#ffffff" d="M2275 2887.3H1575L1225 2281.1 1575 1674.9H2275L2625 2281.1Z"/>
<path transform="matrix(.1,0,0,-.1,0,792)" d="M3675 2887.3 3325 2281.1 3675 1674.9H4375L4725 2281.1 4375 2887.3" fill="#3399a6"/>
<path transform="matrix(.1,0,0,-.1,0,792)" stroke-width="35" stroke-linecap="butt" stroke-miterlimit="10" stroke-linejoin="miter" fill="none" stroke="#ffffff" d="M3675 2887.3 3325 2281.1 3675 1674.9H4375L4725 2281.1 4375 2887.3Z"/>
<path transform="matrix(.1,0,0,-.1,0,792)" d="M2625 5918.4 2975 6524.6 2625 7130.9 2275 7737.1 2625 8343.3H1925L1575 7737.1 1925 7130.9 2275 6524.6" fill="#034599"/>
<path transform="matrix(.1,0,0,-.1,0,792)" stroke-width="35" stroke-linecap="butt" stroke-miterlimit="10" stroke-linejoin="miter" fill="none" stroke="#ffffff" d="M2625 5918.4 2975 6524.6 2625 7130.9 2275 7737.1 2625 8343.3H1925L1575 7737.1 1925 7130.9 2275 6524.6Z"/>
<path transform="matrix(.1,0,0,-.1,0,792)" d="M1575 4099.8 1225 4706H525L175 4099.8 525 3493.6H1225" fill="#3399a6"/>
<path transform="matrix(.1,0,0,-.1,0,792)" stroke-width="35" stroke-linecap="butt" stroke-miterlimit="10" stroke-linejoin="miter" fill="none" stroke="#ffffff" d="M1575 4099.8 1225 4706H525L175 4099.8 525 3493.6H1225Z"/>
<path transform="matrix(.1,0,0,-.1,0,792)" d="M1575 2887.3H875L525 2281.1 175 1674.9H-525L-175 1068.7H525L875 1674.9 1225 2281.1" fill="#034599"/>
<path transform="matrix(.1,0,0,-.1,0,792)" stroke-width="35" stroke-linecap="butt" stroke-miterlimit="10" stroke-linejoin="miter" fill="none" stroke="#ffffff" d="M1575 2887.3H875L525 2281.1 175 1674.9H-525L-175 1068.7H525L875 1674.9 1225 2281.1Z"/>
<path transform="matrix(.1,0,0,-.1,0,792)" d="M4375 4099.8 4725 3493.6H5425L5775 4099.8 5425 4706H4725" fill="#3399a6"/>
<path transform="matrix(.1,0,0,-.1,0,792)" stroke-width="35" stroke-linecap="butt" stroke-miterlimit="10" stroke-linejoin="miter" fill="none" stroke="#ffffff" d="M4375 4099.8 4725 3493.6H5425L5775 4099.8 5425 4706H4725Z"/>
<path transform="matrix(.1,0,0,-.1,0,792)" d="M4375 5312.2H5075L5425 5918.4 5775 6524.6H6475L6125 7130.9H5425L5075 6524.6 4725 5918.4" fill="#034599"/>
<path transform="matrix(.1,0,0,-.1,0,792)" stroke-width="35" stroke-linecap="butt" stroke-miterlimit="10" stroke-linejoin="miter" fill="none" stroke="#ffffff" d="M4375 5312.2H5075L5425 5918.4 5775 6524.6H6475L6125 7130.9H5425L5075 6524.6 4725 5918.4Z"/>
<path transform="matrix(.1,0,0,-.1,0,792)" d="M3325 2281.1 2975 1674.9 3325 1068.7 3675 462.5 3325-143.699H4025L4375 462.5 4025 1068.7 3675 1674.9" fill="#034599"/>
<path transform="matrix(.1,0,0,-.1,0,792)" stroke-width="35" stroke-linecap="butt" stroke-miterlimit="10" stroke-linejoin="miter" fill="none" stroke="#ffffff" d="M3325 2281.1 2975 1674.9 3325 1068.7 3675 462.5 3325-143.699H4025L4375 462.5 4025 1068.7 3675 1674.9Z"/>
<path transform="matrix(.1,0,0,-.1,0,792)" d="M4375 6524.6 4725 5918.4 5075 6524.6 4725 7130.9H4025 3325 2625L2975 6524.6H3675" fill="#034599"/>
<path transform="matrix(.1,0,0,-.1,0,792)" stroke-width="35" stroke-linecap="butt" stroke-miterlimit="10" stroke-linejoin="miter" fill="none" stroke="#ffffff" d="M4375 6524.6 4725 5918.4 5075 6524.6 4725 7130.9H4025 3325 2625L2975 6524.6H3675Z"/>
<path transform="matrix(.1,0,0,-.1,0,792)" d="M2275 6524.6 1925 7130.9H1225L875 6524.6 525 5918.4 175 5312.2H875L1225 5918.4 1575 6524.6" fill="#034599"/>
<path transform="matrix(.1,0,0,-.1,0,792)" stroke-width="35" stroke-linecap="butt" stroke-miterlimit="10" stroke-linejoin="miter" fill="none" stroke="#ffffff" d="M2275 6524.6 1925 7130.9H1225L875 6524.6 525 5918.4 175 5312.2H875L1225 5918.4 1575 6524.6Z"/>
<path transform="matrix(.1,0,0,-.1,0,792)" d="M1225 4706 875 5312.2H-525L-875 5918.4-1225 5312.2-875 4706H-175 525" fill="#034599"/>
<path transform="matrix(.1,0,0,-.1,0,792)" stroke-width="35" stroke-linecap="butt" stroke-miterlimit="10" stroke-linejoin="miter" fill="none" stroke="#ffffff" d="M1225 4706 875 5312.2H-525L-875 5918.4-1225 5312.2-875 4706H-175 525Z"/>
<path transform="matrix(.1,0,0,-.1,0,792)" d="M1225 2281.1 875 1674.9 1225 1068.7H3325L2975 1674.9H2275 1575" fill="#034599"/>
<path transform="matrix(.1,0,0,-.1,0,792)" stroke-width="35" stroke-linecap="butt" stroke-miterlimit="10" stroke-linejoin="miter" fill="none" stroke="#ffffff" d="M1225 2281.1 875 1674.9 1225 1068.7H3325L2975 1674.9H2275 1575Z"/>
<path transform="matrix(.1,0,0,-.1,0,792)" d="M4725 2281.1 4375 1674.9H3675L4025 1068.7H4725L5075 1674.9 5425 2281.1 5775 2887.3H5075" fill="#034599"/>
<path transform="matrix(.1,0,0,-.1,0,792)" stroke-width="35" stroke-linecap="butt" stroke-miterlimit="10" stroke-linejoin="miter" fill="none" stroke="#ffffff" d="M4725 2281.1 4375 1674.9H3675L4025 1068.7H4725L5075 1674.9 5425 2281.1 5775 2887.3H5075Z"/>
<path transform="matrix(.1,0,0,-.1,0,792)" d="M4725 3493.6 5075 2887.3H6475L6825 2281.1 7175 2887.3 6825 3493.6H6125 5425" fill="#034599"/>
<path transform="matrix(.1,0,0,-.1,0,792)" stroke-width="35" stroke-linecap="butt" stroke-miterlimit="10" stroke-linejoin="miter" fill="none" stroke="#ffffff" d="M4725 3493.6 5075 2887.3H6475L6825 2281.1 7175 2887.3 6825 3493.6H6125 5425Z"/>
<path transform="matrix(.1,0,0,-.1,0,792)" d="M5075 5312.2 5425 4706 5775 4099.8 5425 3493.6H6125L6475 4099.8 6125 4706 5775 5312.2 5425 5918.4" fill="#034599"/>
<path transform="matrix(.1,0,0,-.1,0,792)" stroke-width="35" stroke-linecap="butt" stroke-miterlimit="10" stroke-linejoin="miter" fill="none" stroke="#ffffff" d="M5075 5312.2 5425 4706 5775 4099.8 5425 3493.6H6125L6475 4099.8 6125 4706 5775 5312.2 5425 5918.4Z"/>
<path transform="matrix(.1,0,0,-.1,0,792)" d="M5075 6524.6 5425 7130.9H6125L5775 7737.1 6125 8343.3H5425L5075 8949.5 4725 8343.3H4025L4375 7737.1 4025 7130.9H4725" fill="#59a10d"/>
<path transform="matrix(.1,0,0,-.1,0,792)" stroke-width="35" stroke-linecap="butt" stroke-miterlimit="10" stroke-linejoin="miter" fill="none" stroke="#ffffff" d="M5075 6524.6 5425 7130.9H6125L5775 7737.1 6125 8343.3H5425L5075 8949.5 4725 8343.3H4025L4375 7737.1 4025 7130.9H4725Z"/>
<path transform="matrix(.1,0,0,-.1,0,792)" d="M875 6524.6 525 7130.9H-1575L-1225 6524.6H-525 175L525 5918.4" fill="#034599"/>
<path transform="matrix(.1,0,0,-.1,0,792)" stroke-width="35" stroke-linecap="butt" stroke-miterlimit="10" stroke-linejoin="miter" fill="none" stroke="#ffffff" d="M875 6524.6 525 7130.9H-1575L-1225 6524.6H-525 175L525 5918.4Z"/>
<path transform="matrix(.1,0,0,-.1,0,792)" d="M875 6524.6 1225 7130.9H1925L1575 7737.1 1925 8343.3H1225L875 8949.5 525 8343.3H-175L175 7737.1-175 7130.9H525" fill="#59a10d"/>
<path transform="matrix(.1,0,0,-.1,0,792)" stroke-width="35" stroke-linecap="butt" stroke-miterlimit="10" stroke-linejoin="miter" fill="none" stroke="#ffffff" d="M875 6524.6 1225 7130.9H1925L1575 7737.1 1925 8343.3H1225L875 8949.5 525 8343.3H-175L175 7737.1-175 7130.9H525Z"/>
<path transform="matrix(.1,0,0,-.1,0,792)" d="M875 2887.3 525 3493.6 175 4099.8 525 4706H-175L-525 4099.8-175 3493.6 175 2887.3 525 2281.1" fill="#034599"/>
<path transform="matrix(.1,0,0,-.1,0,792)" stroke-width="35" stroke-linecap="butt" stroke-miterlimit="10" stroke-linejoin="miter" fill="none" stroke="#ffffff" d="M875 2887.3 525 3493.6 175 4099.8 525 4706H-175L-525 4099.8-175 3493.6 175 2887.3 525 2281.1Z"/>
<path transform="matrix(.1,0,0,-.1,0,792)" d="M875 1674.9 525 1068.7H-175L175 462.5-175-143.699H525L875-750 1225-143.699H1925L1575 462.5 1925 1068.7H1225" fill="#59a10d"/>
<path transform="matrix(.1,0,0,-.1,0,792)" stroke-width="35" stroke-linecap="butt" stroke-miterlimit="10" stroke-linejoin="miter" fill="none" stroke="#ffffff" d="M875 1674.9 525 1068.7H-175L175 462.5-175-143.699H525L875-750 1225-143.699H1925L1575 462.5 1925 1068.7H1225Z"/>
<path transform="matrix(.1,0,0,-.1,0,792)" d="M5075 1674.9 5425 1068.7H7525L7175 1674.9H6475 5775L5425 2281.1" fill="#034599"/>
<path transform="matrix(.1,0,0,-.1,0,792)" stroke-width="35" stroke-linecap="butt" stroke-miterlimit="10" stroke-linejoin="miter" fill="none" stroke="#ffffff" d="M5075 1674.9 5425 1068.7H7525L7175 1674.9H6475 5775L5425 2281.1Z"/>
<path transform="matrix(.1,0,0,-.1,0,792)" d="M5075 1674.9 4725 1068.7H4025L4375 462.5 4025-143.699H4725L5075-750 5425-143.699H6125L5775 462.5 6125 1068.7H5425" fill="#59a10d"/>
<path transform="matrix(.1,0,0,-.1,0,792)" stroke-width="35" stroke-linecap="butt" stroke-miterlimit="10" stroke-linejoin="miter" fill="none" stroke="#ffffff" d="M5075 1674.9 4725 1068.7H4025L4375 462.5 4025-143.699H4725L5075-750 5425-143.699H6125L5775 462.5 6125 1068.7H5425Z"/>
<path transform="matrix(.1,0,0,-.1,0,792)" d="M4025 7130.9 4375 7737.1 4025 8343.3 3675 8949.5 3325 9555.7 2975 8949.5 3325 8343.3 3675 7737.1 3325 7130.9" fill="#034599"/>
<path transform="matrix(.1,0,0,-.1,0,792)" stroke-width="35" stroke-linecap="butt" stroke-miterlimit="10" stroke-linejoin="miter" fill="none" stroke="#ffffff" d="M4025 7130.9 4375 7737.1 4025 8343.3 3675 8949.5 3325 9555.7 2975 8949.5 3325 8343.3 3675 7737.1 3325 7130.9Z"/>
<path transform="matrix(.1,0,0,-.1,0,792)" d="M3325 7130.9 3675 7737.1 3325 8343.3H2625L2275 7737.1 2625 7130.9" fill="#3399a6"/>
<path transform="matrix(.1,0,0,-.1,0,792)" stroke-width="35" stroke-linecap="butt" stroke-miterlimit="10" stroke-linejoin="miter" fill="none" stroke="#ffffff" d="M3325 7130.9 3675 7737.1 3325 8343.3H2625L2275 7737.1 2625 7130.9Z"/>
<path transform="matrix(.1,0,0,-.1,0,792)" d="M1925 1068.7 1575 462.5 1925-143.699 2275-750 2625-1356.2 2975-750 2625-143.699 2275 462.5 2625 1068.7" fill="#034599"/>
<path transform="matrix(.1,0,0,-.1,0,792)" stroke-width="35" stroke-linecap="butt" stroke-miterlimit="10" stroke-linejoin="miter" fill="none" stroke="#ffffff" d="M1925 1068.7 1575 462.5 1925-143.699 2275-750 2625-1356.2 2975-750 2625-143.699 2275 462.5 2625 1068.7Z"/>
<path transform="matrix(.1,0,0,-.1,0,792)" d="M2625 1068.7 2275 462.5 2625-143.699H3325L3675 462.5 3325 1068.7" fill="#3399a6"/>
<path transform="matrix(.1,0,0,-.1,0,792)" stroke-width="35" stroke-linecap="butt" stroke-miterlimit="10" stroke-linejoin="miter" fill="none" stroke="#ffffff" d="M2625 1068.7 2275 462.5 2625-143.699H3325L3675 462.5 3325 1068.7Z"/>
<path transform="matrix(.1,0,0,-.1,0,792)" d="M5425 2281.1 5775 1674.9H6475L6825 2281.1 6475 2887.3H5775" fill="#3399a6"/>
<path transform="matrix(.1,0,0,-.1,0,792)" stroke-width="35" stroke-linecap="butt" stroke-miterlimit="10" stroke-linejoin="miter" fill="none" stroke="#ffffff" d="M5425 2281.1 5775 1674.9H6475L6825 2281.1 6475 2887.3H5775Z"/>
<path transform="matrix(.1,0,0,-.1,0,792)" d="M5425 5918.4 5775 5312.2H6475L6825 5918.4 6475 6524.6H5775" fill="#3399a6"/>
<path transform="matrix(.1,0,0,-.1,0,792)" stroke-width="35" stroke-linecap="butt" stroke-miterlimit="10" stroke-linejoin="miter" fill="none" stroke="#ffffff" d="M5425 5918.4 5775 5312.2H6475L6825 5918.4 6475 6524.6H5775Z"/>
<path transform="matrix(.1,0,0,-.1,0,792)" d="M525 5918.4 175 6524.6H-525L-875 5918.4-525 5312.2H175" fill="#3399a6"/>
<path transform="matrix(.1,0,0,-.1,0,792)" stroke-width="35" stroke-linecap="butt" stroke-miterlimit="10" stroke-linejoin="miter" fill="none" stroke="#ffffff" d="M525 5918.4 175 6524.6H-525L-875 5918.4-525 5312.2H175Z"/>
<path transform="matrix(.1,0,0,-.1,0,792)" d="M525 2281.1 175 2887.3H-525L-875 2281.1-525 1674.9H175" fill="#3399a6"/>
<path transform="matrix(.1,0,0,-.1,0,792)" stroke-width="35" stroke-linecap="butt" stroke-miterlimit="10" stroke-linejoin="miter" fill="none" stroke="#ffffff" d="M525 2281.1 175 2887.3H-525L-875 2281.1-525 1674.9H175Z"/>
<path transform="matrix(.1,0,0,-.1,0,792)" d="M175 2887.3-175 3493.6H-875L-1225 2887.3-1575 2281.1-1925 1674.9H-1225L-875 2281.1-525 2887.3" fill="#034599"/>
<path transform="matrix(.1,0,0,-.1,0,792)" stroke-width="35" stroke-linecap="butt" stroke-miterlimit="10" stroke-linejoin="miter" fill="none" stroke="#ffffff" d="M175 2887.3-175 3493.6H-875L-1225 2887.3-1575 2281.1-1925 1674.9H-1225L-875 2281.1-525 2887.3Z"/>
<path transform="matrix(.1,0,0,-.1,0,792)" d="M175 462.5-175 1068.7-525 1674.9-875 2281.1-1225 1674.9-875 1068.7-525 462.5-875-143.699H-175" fill="#034599"/>
<path transform="matrix(.1,0,0,-.1,0,792)" stroke-width="35" stroke-linecap="butt" stroke-miterlimit="10" stroke-linejoin="miter" fill="none" stroke="#ffffff" d="M175 462.5-175 1068.7-525 1674.9-875 2281.1-1225 1674.9-875 1068.7-525 462.5-875-143.699H-175Z"/>
<path transform="matrix(.1,0,0,-.1,0,792)" d="M5775 462.5 6125-143.699 6475-750 6825-1356.2 7175-750 6825-143.699 6475 462.5 6825 1068.7H6125" fill="#034599"/>
<path transform="matrix(.1,0,0,-.1,0,792)" stroke-width="35" stroke-linecap="butt" stroke-miterlimit="10" stroke-linejoin="miter" fill="none" stroke="#ffffff" d="M5775 462.5 6125-143.699 6475-750 6825-1356.2 7175-750 6825-143.699 6475 462.5 6825 1068.7H6125Z"/>
<path transform="matrix(.1,0,0,-.1,0,792)" d="M5775 5312.2 6125 4706H6825L7175 5312.2 7525 5918.4 7875 6524.6H7175L6825 5918.4 6475 5312.2" fill="#034599"/>
<path transform="matrix(.1,0,0,-.1,0,792)" stroke-width="35" stroke-linecap="butt" stroke-miterlimit="10" stroke-linejoin="miter" fill="none" stroke="#ffffff" d="M5775 5312.2 6125 4706H6825L7175 5312.2 7525 5918.4 7875 6524.6H7175L6825 5918.4 6475 5312.2Z"/>
<path transform="matrix(.1,0,0,-.1,0,792)" d="M5775 7737.1 6125 7130.9 6475 6524.6 6825 5918.4 7175 6524.6 6825 7130.9 6475 7737.1 6825 8343.3H6125" fill="#034599"/>
<path transform="matrix(.1,0,0,-.1,0,792)" stroke-width="35" stroke-linecap="butt" stroke-miterlimit="10" stroke-linejoin="miter" fill="none" stroke="#ffffff" d="M5775 7737.1 6125 7130.9 6475 6524.6 6825 5918.4 7175 6524.6 6825 7130.9 6475 7737.1 6825 8343.3H6125Z"/>
<path transform="matrix(.1,0,0,-.1,0,792)" d="M175 7737.1-175 8343.3-525 8949.5-875 9555.7-1225 8949.5-875 8343.3-525 7737.1-875 7130.9H-175" fill="#034599"/>
<path transform="matrix(.1,0,0,-.1,0,792)" stroke-width="35" stroke-linecap="butt" stroke-miterlimit="10" stroke-linejoin="miter" fill="none" stroke="#ffffff" d="M175 7737.1-175 8343.3-525 8949.5-875 9555.7-1225 8949.5-875 8343.3-525 7737.1-875 7130.9H-175Z"/>
<path transform="matrix(.1,0,0,-.1,0,792)" stroke-width="35" stroke-linecap="butt" stroke-miterlimit="10" stroke-linejoin="miter" fill="none" stroke="#ffffff" d="M6125 3493.6H6825L7175 2887.3 7525 3493.6H8225L7875 4099.8 8225 4706H7525L7175 5312.2 6825 4706H6125L6475 4099.8Z"/>
</svg>
