<svg xmlns="http://www.w3.org/2000/svg" xmlns:xlink="http://www.w3.org/1999/xlink" xmlns:inkscape="http://www.inkscape.org/namespaces/inkscape" version="1.1" width="612" height="792" viewBox="0 0 612 792">
<path transform="matrix(.1,0,0,-.1,0,792)" d="M3335 4210 3185 4469.8H2885L2735 4210 2885 3950.2H3185" fill="#ffcc66"/>
<path transform="matrix(.1,0,0,-.1,0,792)" stroke-width="1" stroke-linecap="butt" stroke-miterlimit="10" stroke-linejoin="miter" fill="none" stroke="#000000" d="M3335 4210 3185 4469.8H2885L2735 4210 2885 3950.2H3185Z"/>
<path transform="matrix(.1,0,0,-.1,0,792)" d="M2885 3950.2 3035 3690.4 3185 3950.2" fill="#ffffff"/>
<path transform="matrix(.1,0,0,-.1,0,792)" stroke-width="1" stroke-linecap="butt" stroke-miterlimit="10" stroke-linejoin="miter" fill="none" stroke="#000000" d="M2885 3950.2 3035 3690.4 3185 3950.2Z"/>
<path transform="matrix(.1,0,0,-.1,0,792)" d="M2885 3950.2H2585L2435 3690.4 2585 3430.6H2885L3035 3690.4" fill="#8099b2"/>
<path transform="matrix(.1,0,0,-.1,0,792)" stroke-width="1" stroke-linecap="butt" stroke-miterlimit="10" stroke-linejoin="miter" fill="none" stroke="#000000" d="M2885 3950.2H2585L2435 3690.4 2585 3430.6H2885L3035 3690.4Z"/>
<path transform="matrix(.1,0,0,-.1,0,792)" d="M2885 3950.2 2735 4210 2585 3950.2" fill="#ffffff"/>
<path transform="matrix(.1,0,0,-.1,0,792)" stroke-width="1" stroke-linecap="butt" stroke-miterlimit="10" stroke-linejoin="miter" fill="none" stroke="#000000" d="M2885 3950.2 2735 4210 2585 3950.2Z"/>
<path transform="matrix(.1,0,0,-.1,0,792)" d="M2885 4469.8H2585L2735 4210" fill="#ffffff"/>
<path transform="matrix(.1,0,0,-.1,0,792)" stroke-width="1" stroke-linecap="butt" stroke-miterlimit="10" stroke-linejoin="miter" fill="none" stroke="#000000" d="M2885 4469.8H2585L2735 4210Z"/>
<path transform="matrix(.1,0,0,-.1,0,792)" d="M2885 4469.8 3035 4729.6 2885 4989.4H2585L2435 4729.6 2585 4469.8" fill="#8099b2"/>
<path transform="matrix(.1,0,0,-.1,0,792)" stroke-width="1" stroke-linecap="butt" stroke-miterlimit="10" stroke-linejoin="miter" fill="none" stroke="#000000" d="M2885 4469.8 3035 4729.6 2885 4989.4H2585L2435 4729.6 2585 4469.8Z"/>
<path transform="matrix(.1,0,0,-.1,0,792)" d="M2885 4469.8H3185L3035 4729.6" fill="#ffffff"/>
<path transform="matrix(.1,0,0,-.1,0,792)" stroke-width="1" stroke-linecap="butt" stroke-miterlimit="10" stroke-linejoin="miter" fill="none" stroke="#000000" d="M2885 4469.8H3185L3035 4729.6Z"/>
<path transform="matrix(.1,0,0,-.1,0,792)" d="M3185 4469.8H3485L3635 4729.6 3485 4989.4H3185L3035 4729.6" fill="#8099b2"/>
<path transform="matrix(.1,0,0,-.1,0,792)" stroke-width="1" stroke-linecap="butt" stroke-miterlimit="10" stroke-linejoin="miter" fill="none" stroke="#000000" d="M3185 4469.8H3485L3635 4729.6 3485 4989.4H3185L3035 4729.6Z"/>
<path transform="matrix(.1,0,0,-.1,0,792)" d="M3185 4469.8 3335 4210 3485 4469.8" fill="#ffffff"/>
<path transform="matrix(.1,0,0,-.1,0,792)" stroke-width="1" stroke-linecap="butt" stroke-miterlimit="10" stroke-linejoin="miter" fill="none" stroke="#000000" d="M3185 4469.8 3335 4210 3485 4469.8Z"/>
<path transform="matrix(.1,0,0,-.1,0,792)" d="M3185 3950.2H3485L3335 4210" fill="#ffffff"/>
<path transform="matrix(.1,0,0,-.1,0,792)" stroke-width="1" stroke-linecap="butt" stroke-miterlimit="10" stroke-linejoin="miter" fill="none" stroke="#000000" d="M3185 3950.2H3485L3335 4210Z"/>
<path transform="matrix(.1,0,0,-.1,0,792)" d="M3185 3950.2 3035 3690.4 3185 3430.6H3485L3635 3690.4 3485 3950.2" fill="#8099b2"/>
<path transform="matrix(.1,0,0,-.1,0,792)" stroke-width="1" stroke-linecap="butt" stroke-miterlimit="10" stroke-linejoin="miter" fill="none" stroke="#000000" d="M3185 3950.2 3035 3690.4 3185 3430.6H3485L3635 3690.4 3485 3950.2Z"/>
<path transform="matrix(.1,0,0,-.1,0,792)" d="M2735 4210 2585 4469.8H2285L2135 4210 2285 3950.2H2585" fill="#8099b2"/>
<path transform="matrix(.1,0,0,-.1,0,792)" stroke-width="1" stroke-linecap="butt" stroke-miterlimit="10" stroke-linejoin="miter" fill="none" stroke="#000000" d="M2735 4210 2585 4469.8H2285L2135 4210 2285 3950.2H2585Z"/>
<path transform="matrix(.1,0,0,-.1,0,792)" d="M3335 4210 3485 3950.2H3785L3935 4210 3785 4469.8H3485" fill="#8099b2"/>
<path transform="matrix(.1,0,0,-.1,0,792)" stroke-width="1" stroke-linecap="butt" stroke-miterlimit="10" stroke-linejoin="miter" fill="none" stroke="#000000" d="M3335 4210 3485 3950.2H3785L3935 4210 3785 4469.8H3485Z"/>
<path transform="matrix(.1,0,0,-.1,0,792)" d="M3035 4729.6 3185 4989.4H3485L3035 5768.8 2585 4989.4H2885" fill="#ffffff"/>
<path transform="matrix(.1,0,0,-.1,0,792)" stroke-width="1" stroke-linecap="butt" stroke-miterlimit="10" stroke-linejoin="miter" fill="none" stroke="#000000" d="M3035 4729.6 3185 4989.4H3485L3035 5768.8 2585 4989.4H2885Z"/>
<path transform="matrix(.1,0,0,-.1,0,792)" d="M3035 3690.4 2885 3430.6H2585L3035 2651.2 3485 3430.6H3185" fill="#ffffff"/>
<path transform="matrix(.1,0,0,-.1,0,792)" stroke-width="1" stroke-linecap="butt" stroke-miterlimit="10" stroke-linejoin="miter" fill="none" stroke="#000000" d="M3035 3690.4 2885 3430.6H2585L3035 2651.2 3485 3430.6H3185Z"/>
<path transform="matrix(.1,0,0,-.1,0,792)" d="M2585 4469.8 2435 4729.6 2585 4989.4H1685L2135 4210 2285 4469.8" fill="#ffffff"/>
<path transform="matrix(.1,0,0,-.1,0,792)" stroke-width="1" stroke-linecap="butt" stroke-miterlimit="10" stroke-linejoin="miter" fill="none" stroke="#000000" d="M2585 4469.8 2435 4729.6 2585 4989.4H1685L2135 4210 2285 4469.8Z"/>
<path transform="matrix(.1,0,0,-.1,0,792)" d="M2585 3950.2H2285L2135 4210 1685 3430.6H2585L2435 3690.4" fill="#ffffff"/>
<path transform="matrix(.1,0,0,-.1,0,792)" stroke-width="1" stroke-linecap="butt" stroke-miterlimit="10" stroke-linejoin="miter" fill="none" stroke="#000000" d="M2585 3950.2H2285L2135 4210 1685 3430.6H2585L2435 3690.4Z"/>
<path transform="matrix(.1,0,0,-.1,0,792)" d="M3485 3950.2 3635 3690.4 3485 3430.6H4385L3935 4210 3785 3950.2" fill="#ffffff"/>
<path transform="matrix(.1,0,0,-.1,0,792)" stroke-width="1" stroke-linecap="butt" stroke-miterlimit="10" stroke-linejoin="miter" fill="none" stroke="#000000" d="M3485 3950.2 3635 3690.4 3485 3430.6H4385L3935 4210 3785 3950.2Z"/>
<path transform="matrix(.1,0,0,-.1,0,792)" d="M3485 4469.8H3785L3935 4210 4385 4989.4H3485L3635 4729.6" fill="#ffffff"/>
<path transform="matrix(.1,0,0,-.1,0,792)" stroke-width="1" stroke-linecap="butt" stroke-miterlimit="10" stroke-linejoin="miter" fill="none" stroke="#000000" d="M3485 4469.8H3785L3935 4210 4385 4989.4H3485L3635 4729.6Z"/>
<path transform="matrix(.1,0,0,-.1,0,792)" d="M3485 4989.4H4385L3605.6 5439.4 3320.3 5604.1 3035 5768.8" fill="#b23300"/>
<path transform="matrix(.1,0,0,-.1,0,792)" stroke-width="1" stroke-linecap="butt" stroke-miterlimit="10" stroke-linejoin="miter" fill="none" stroke="#000000" d="M3485 4989.4H4385L3605.6 5439.4 3320.3 5604.1 3035 5768.8Z"/>
<path transform="matrix(.1,0,0,-.1,0,792)" d="M2585 4989.4 1805.6 5439.4 1026.2 4989.4H1685Z" fill="#b23300"/>
<path transform="matrix(.1,0,0,-.1,0,792)" stroke-width="1" stroke-linecap="butt" stroke-miterlimit="10" stroke-linejoin="miter" fill="none" stroke="#000000" d="M2585 4989.4 1805.6 5439.4 1026.2 4989.4H1685Z"/>
<path transform="matrix(.1,0,0,-.1,0,792)" d="M2585 4989.4V5889.4L2325.2 5739.4 2065.4 5889.4V5589.4L1805.6 5439.4" fill="#ffffff"/>
<path transform="matrix(.1,0,0,-.1,0,792)" stroke-width="1" stroke-linecap="butt" stroke-miterlimit="10" stroke-linejoin="miter" fill="none" stroke="#000000" d="M2585 4989.4V5889.4L2325.2 5739.4 2065.4 5889.4V5589.4L1805.6 5439.4Z"/>
<path transform="matrix(.1,0,0,-.1,0,792)" d="M2585 4989.4 3035 5768.8 3199.7 6054.1 3364.4 6339.4 2585 5889.4" fill="#b23300"/>
<path transform="matrix(.1,0,0,-.1,0,792)" stroke-width="1" stroke-linecap="butt" stroke-miterlimit="10" stroke-linejoin="miter" fill="none" stroke="#000000" d="M2585 4989.4 3035 5768.8 3199.7 6054.1 3364.4 6339.4 2585 5889.4Z"/>
<path transform="matrix(.1,0,0,-.1,0,792)" d="M2585 3430.6H1685L2464.4 2980.6 2749.7 2815.9 3035 2651.2" fill="#b23300"/>
<path transform="matrix(.1,0,0,-.1,0,792)" stroke-width="1" stroke-linecap="butt" stroke-miterlimit="10" stroke-linejoin="miter" fill="none" stroke="#000000" d="M2585 3430.6H1685L2464.4 2980.6 2749.7 2815.9 3035 2651.2Z"/>
<path transform="matrix(.1,0,0,-.1,0,792)" d="M3485 3430.6 4264.4 2980.6 5043.8 3430.6H4385Z" fill="#b23300"/>
<path transform="matrix(.1,0,0,-.1,0,792)" stroke-width="1" stroke-linecap="butt" stroke-miterlimit="10" stroke-linejoin="miter" fill="none" stroke="#000000" d="M3485 3430.6 4264.4 2980.6 5043.8 3430.6H4385Z"/>
<path transform="matrix(.1,0,0,-.1,0,792)" d="M3485 3430.6V2530.6L3744.8 2680.6 4004.6 2530.6V2830.6L4264.4 2980.6" fill="#ffffff"/>
<path transform="matrix(.1,0,0,-.1,0,792)" stroke-width="1" stroke-linecap="butt" stroke-miterlimit="10" stroke-linejoin="miter" fill="none" stroke="#000000" d="M3485 3430.6V2530.6L3744.8 2680.6 4004.6 2530.6V2830.6L4264.4 2980.6Z"/>
<path transform="matrix(.1,0,0,-.1,0,792)" d="M3485 3430.6 3035 2651.2 2870.3 2365.9 2705.6 2080.6 3485 2530.6" fill="#b23300"/>
<path transform="matrix(.1,0,0,-.1,0,792)" stroke-width="1" stroke-linecap="butt" stroke-miterlimit="10" stroke-linejoin="miter" fill="none" stroke="#000000" d="M3485 3430.6 3035 2651.2 2870.3 2365.9 2705.6 2080.6 3485 2530.6Z"/>
<path transform="matrix(.1,0,0,-.1,0,792)" d="M2135 4210 1685 4989.4V3430.6" fill="#b23300"/>
<path transform="matrix(.1,0,0,-.1,0,792)" stroke-width="1" stroke-linecap="butt" stroke-miterlimit="10" stroke-linejoin="miter" fill="none" stroke="#000000" d="M2135 4210 1685 4989.4V3430.6Z"/>
<path transform="matrix(.1,0,0,-.1,0,792)" d="M2464.4 2980.6 2299.7 2695.3 2749.7 2815.9" fill="#ffffff"/>
<path transform="matrix(.1,0,0,-.1,0,792)" stroke-width="1" stroke-linecap="butt" stroke-miterlimit="10" stroke-linejoin="miter" fill="none" stroke="#000000" d="M2464.4 2980.6 2299.7 2695.3 2749.7 2815.9Z"/>
<path transform="matrix(.1,0,0,-.1,0,792)" d="M2464.4 2980.6 1685 2530.6V1630.6L2135 2410 2299.7 2695.3" fill="#b23300"/>
<path transform="matrix(.1,0,0,-.1,0,792)" stroke-width="1" stroke-linecap="butt" stroke-miterlimit="10" stroke-linejoin="miter" fill="none" stroke="#000000" d="M2464.4 2980.6 1685 2530.6V1630.6L2135 2410 2299.7 2695.3Z"/>
<path transform="matrix(.1,0,0,-.1,0,792)" d="M2464.4 2980.6 1685 3430.6V3130.6L1425.2 2980.6 1685 2830.6V2530.6" fill="#ffffff"/>
<path transform="matrix(.1,0,0,-.1,0,792)" stroke-width="1" stroke-linecap="butt" stroke-miterlimit="10" stroke-linejoin="miter" fill="none" stroke="#000000" d="M2464.4 2980.6 1685 3430.6V3130.6L1425.2 2980.6 1685 2830.6V2530.6Z"/>
<path transform="matrix(.1,0,0,-.1,0,792)" d="M3605.6 5439.4 3770.3 5724.7 3320.3 5604.1" fill="#ffffff"/>
<path transform="matrix(.1,0,0,-.1,0,792)" stroke-width="1" stroke-linecap="butt" stroke-miterlimit="10" stroke-linejoin="miter" fill="none" stroke="#000000" d="M3605.6 5439.4 3770.3 5724.7 3320.3 5604.1Z"/>
<path transform="matrix(.1,0,0,-.1,0,792)" d="M3605.6 5439.4 4385 5889.4V6789.4L3935 6010 3770.3 5724.7" fill="#b23300"/>
<path transform="matrix(.1,0,0,-.1,0,792)" stroke-width="1" stroke-linecap="butt" stroke-miterlimit="10" stroke-linejoin="miter" fill="none" stroke="#000000" d="M3605.6 5439.4 4385 5889.4V6789.4L3935 6010 3770.3 5724.7Z"/>
<path transform="matrix(.1,0,0,-.1,0,792)" d="M3605.6 5439.4 4385 4989.4V5289.4L4644.8 5439.4 4385 5589.4V5889.4" fill="#ffffff"/>
<path transform="matrix(.1,0,0,-.1,0,792)" stroke-width="1" stroke-linecap="butt" stroke-miterlimit="10" stroke-linejoin="miter" fill="none" stroke="#000000" d="M3605.6 5439.4 4385 4989.4V5289.4L4644.8 5439.4 4385 5589.4V5889.4Z"/>
<path transform="matrix(.1,0,0,-.1,0,792)" d="M3935 4210 4385 3430.6V4989.4" fill="#b23300"/>
<path transform="matrix(.1,0,0,-.1,0,792)" stroke-width="1" stroke-linecap="butt" stroke-miterlimit="10" stroke-linejoin="miter" fill="none" stroke="#000000" d="M3935 4210 4385 3430.6V4989.4Z"/>
<path transform="matrix(.1,0,0,-.1,0,792)" d="M2065.4 5589.4V5889.4L1805.6 6039.4 1545.8 5889.4V5589.4L1805.6 5439.4" fill="#8099b2"/>
<path transform="matrix(.1,0,0,-.1,0,792)" stroke-width="1" stroke-linecap="butt" stroke-miterlimit="10" stroke-linejoin="miter" fill="none" stroke="#000000" d="M2065.4 5589.4V5889.4L1805.6 6039.4 1545.8 5889.4V5589.4L1805.6 5439.4Z"/>
<path transform="matrix(.1,0,0,-.1,0,792)" d="M2749.7 2815.9 2870.3 2365.9 3035 2651.2" fill="#ffffff"/>
<path transform="matrix(.1,0,0,-.1,0,792)" stroke-width="1" stroke-linecap="butt" stroke-miterlimit="10" stroke-linejoin="miter" fill="none" stroke="#000000" d="M2749.7 2815.9 2870.3 2365.9 3035 2651.2Z"/>
<path transform="matrix(.1,0,0,-.1,0,792)" d="M2749.7 2815.9 2299.7 2695.3 2420.3 2245.3 2870.3 2365.9Z" fill="#ffcc66"/>
<path transform="matrix(.1,0,0,-.1,0,792)" stroke-width="1" stroke-linecap="butt" stroke-miterlimit="10" stroke-linejoin="miter" fill="none" stroke="#000000" d="M2749.7 2815.9 2299.7 2695.3 2420.3 2245.3 2870.3 2365.9Z"/>
<path transform="matrix(.1,0,0,-.1,0,792)" d="M3320.3 5604.1 3199.7 6054.1 3035 5768.8" fill="#ffffff"/>
<path transform="matrix(.1,0,0,-.1,0,792)" stroke-width="1" stroke-linecap="butt" stroke-miterlimit="10" stroke-linejoin="miter" fill="none" stroke="#000000" d="M3320.3 5604.1 3199.7 6054.1 3035 5768.8Z"/>
<path transform="matrix(.1,0,0,-.1,0,792)" d="M3320.3 5604.1 3770.3 5724.7 3649.7 6174.7 3199.7 6054.1Z" fill="#ffcc66"/>
<path transform="matrix(.1,0,0,-.1,0,792)" stroke-width="1" stroke-linecap="butt" stroke-miterlimit="10" stroke-linejoin="miter" fill="none" stroke="#000000" d="M3320.3 5604.1 3770.3 5724.7 3649.7 6174.7 3199.7 6054.1Z"/>
<path transform="matrix(.1,0,0,-.1,0,792)" d="M4004.6 2830.6V2530.6L4264.4 2380.6 4524.2 2530.6V2830.6L4264.4 2980.6" fill="#8099b2"/>
<path transform="matrix(.1,0,0,-.1,0,792)" stroke-width="1" stroke-linecap="butt" stroke-miterlimit="10" stroke-linejoin="miter" fill="none" stroke="#000000" d="M4004.6 2830.6V2530.6L4264.4 2380.6 4524.2 2530.6V2830.6L4264.4 2980.6Z"/>
<path transform="matrix(.1,0,0,-.1,0,792)" d="M3770.3 5724.7 3935 6010 3649.7 6174.7" fill="#ffffff"/>
<path transform="matrix(.1,0,0,-.1,0,792)" stroke-width="1" stroke-linecap="butt" stroke-miterlimit="10" stroke-linejoin="miter" fill="none" stroke="#000000" d="M3770.3 5724.7 3935 6010 3649.7 6174.7Z"/>
<path transform="matrix(.1,0,0,-.1,0,792)" d="M2299.7 2695.3 2135 2410 2420.3 2245.3" fill="#ffffff"/>
<path transform="matrix(.1,0,0,-.1,0,792)" stroke-width="1" stroke-linecap="butt" stroke-miterlimit="10" stroke-linejoin="miter" fill="none" stroke="#000000" d="M2299.7 2695.3 2135 2410 2420.3 2245.3Z"/>
<path transform="matrix(.1,0,0,-.1,0,792)" d="M3744.8 2680.6 3485 2530.6V2230.6L3744.8 2080.6 4004.6 2230.6V2530.6" fill="#8099b2"/>
<path transform="matrix(.1,0,0,-.1,0,792)" stroke-width="1" stroke-linecap="butt" stroke-miterlimit="10" stroke-linejoin="miter" fill="none" stroke="#000000" d="M3744.8 2680.6 3485 2530.6V2230.6L3744.8 2080.6 4004.6 2230.6V2530.6Z"/>
<path transform="matrix(.1,0,0,-.1,0,792)" d="M2325.2 5739.4 2585 5889.4V6189.4L2325.2 6339.4 2065.4 6189.4V5889.4" fill="#8099b2"/>
<path transform="matrix(.1,0,0,-.1,0,792)" stroke-width="1" stroke-linecap="butt" stroke-miterlimit="10" stroke-linejoin="miter" fill="none" stroke="#000000" d="M2325.2 5739.4 2585 5889.4V6189.4L2325.2 6339.4 2065.4 6189.4V5889.4Z"/>
<path transform="matrix(.1,0,0,-.1,0,792)" d="M1805.6 5439.4 1545.8 5589.4V5889.4L1286 5739.4 1026.2 5889.4V4989.4" fill="#ffffff"/>
<path transform="matrix(.1,0,0,-.1,0,792)" stroke-width="1" stroke-linecap="butt" stroke-miterlimit="10" stroke-linejoin="miter" fill="none" stroke="#000000" d="M1805.6 5439.4 1545.8 5589.4V5889.4L1286 5739.4 1026.2 5889.4V4989.4Z"/>
<path transform="matrix(.1,0,0,-.1,0,792)" d="M3485 2530.6 2705.6 2080.6 3485 1630.6V1930.6L3744.8 2080.6 3485 2230.6" fill="#ffffff"/>
<path transform="matrix(.1,0,0,-.1,0,792)" stroke-width="1" stroke-linecap="butt" stroke-miterlimit="10" stroke-linejoin="miter" fill="none" stroke="#000000" d="M3485 2530.6 2705.6 2080.6 3485 1630.6V1930.6L3744.8 2080.6 3485 2230.6Z"/>
<path transform="matrix(.1,0,0,-.1,0,792)" d="M4004.6 2530.6V2230.6L4264.4 2380.6" fill="#ffffff"/>
<path transform="matrix(.1,0,0,-.1,0,792)" stroke-width="1" stroke-linecap="butt" stroke-miterlimit="10" stroke-linejoin="miter" fill="none" stroke="#000000" d="M4004.6 2530.6V2230.6L4264.4 2380.6Z"/>
<path transform="matrix(.1,0,0,-.1,0,792)" d="M2585 5889.4 3364.4 6339.4 2585 6789.4V6489.4L2325.2 6339.4 2585 6189.4" fill="#ffffff"/>
<path transform="matrix(.1,0,0,-.1,0,792)" stroke-width="1" stroke-linecap="butt" stroke-miterlimit="10" stroke-linejoin="miter" fill="none" stroke="#000000" d="M2585 5889.4 3364.4 6339.4 2585 6789.4V6489.4L2325.2 6339.4 2585 6189.4Z"/>
<path transform="matrix(.1,0,0,-.1,0,792)" d="M2065.4 5889.4V6189.4L1805.6 6039.4" fill="#ffffff"/>
<path transform="matrix(.1,0,0,-.1,0,792)" stroke-width="1" stroke-linecap="butt" stroke-miterlimit="10" stroke-linejoin="miter" fill="none" stroke="#000000" d="M2065.4 5889.4V6189.4L1805.6 6039.4Z"/>
<path transform="matrix(.1,0,0,-.1,0,792)" d="M4264.4 2980.6 4524.2 2830.6V2530.6L4784 2680.6 5043.8 2530.6V3430.6" fill="#ffffff"/>
<path transform="matrix(.1,0,0,-.1,0,792)" stroke-width="1" stroke-linecap="butt" stroke-miterlimit="10" stroke-linejoin="miter" fill="none" stroke="#000000" d="M4264.4 2980.6 4524.2 2830.6V2530.6L4784 2680.6 5043.8 2530.6V3430.6Z"/>
<path transform="matrix(.1,0,0,-.1,0,792)" d="M1685 4989.4H1355.6L1685 4660" fill="#ffffff"/>
<path transform="matrix(.1,0,0,-.1,0,792)" stroke-width="1" stroke-linecap="butt" stroke-miterlimit="10" stroke-linejoin="miter" fill="none" stroke="#000000" d="M1685 4989.4H1355.6L1685 4660Z"/>
<path transform="matrix(.1,0,0,-.1,0,792)" d="M1685 4660 1355.6 4330.6H1685" fill="#ffffff"/>
<path transform="matrix(.1,0,0,-.1,0,792)" stroke-width="1" stroke-linecap="butt" stroke-miterlimit="10" stroke-linejoin="miter" fill="none" stroke="#000000" d="M1685 4660 1355.6 4330.6H1685Z"/>
<path transform="matrix(.1,0,0,-.1,0,792)" d="M1685 4660 1355.6 4989.4 1026.2 4660 1355.6 4330.6Z" fill="#ffcc66"/>
<path transform="matrix(.1,0,0,-.1,0,792)" stroke-width="1" stroke-linecap="butt" stroke-miterlimit="10" stroke-linejoin="miter" fill="none" stroke="#000000" d="M1685 4660 1355.6 4989.4 1026.2 4660 1355.6 4330.6Z"/>
<path transform="matrix(.1,0,0,-.1,0,792)" d="M1685 4330.6 905.602 3880.6 1165.4 3730.6V3430.6L1425.2 3580.6 1685 3430.6" fill="#ffffff"/>
<path transform="matrix(.1,0,0,-.1,0,792)" stroke-width="1" stroke-linecap="butt" stroke-miterlimit="10" stroke-linejoin="miter" fill="none" stroke="#000000" d="M1685 4330.6 905.602 3880.6 1165.4 3730.6V3430.6L1425.2 3580.6 1685 3430.6Z"/>
<path transform="matrix(.1,0,0,-.1,0,792)" d="M1685 4330.6H126.199L905.602 3880.6" fill="#b23300"/>
<path transform="matrix(.1,0,0,-.1,0,792)" stroke-width="1" stroke-linecap="butt" stroke-miterlimit="10" stroke-linejoin="miter" fill="none" stroke="#000000" d="M1685 4330.6H126.199L905.602 3880.6Z"/>
<path transform="matrix(.1,0,0,-.1,0,792)" d="M1685 3430.6 1425.2 3580.6 1165.4 3430.6V3130.6L1425.2 2980.6 1685 3130.6" fill="#8099b2"/>
<path transform="matrix(.1,0,0,-.1,0,792)" stroke-width="1" stroke-linecap="butt" stroke-miterlimit="10" stroke-linejoin="miter" fill="none" stroke="#000000" d="M1685 3430.6 1425.2 3580.6 1165.4 3430.6V3130.6L1425.2 2980.6 1685 3130.6Z"/>
<path transform="matrix(.1,0,0,-.1,0,792)" d="M1685 2830.6 1425.2 2980.6 1165.4 2830.6V2530.6L1425.2 2380.6 1685 2530.6" fill="#8099b2"/>
<path transform="matrix(.1,0,0,-.1,0,792)" stroke-width="1" stroke-linecap="butt" stroke-miterlimit="10" stroke-linejoin="miter" fill="none" stroke="#000000" d="M1685 2830.6 1425.2 2980.6 1165.4 2830.6V2530.6L1425.2 2380.6 1685 2530.6Z"/>
<path transform="matrix(.1,0,0,-.1,0,792)" d="M1685 2530.6 1425.2 2380.6 1165.4 2530.6V2230.6L905.602 2080.6 1685 1630.6" fill="#ffffff"/>
<path transform="matrix(.1,0,0,-.1,0,792)" stroke-width="1" stroke-linecap="butt" stroke-miterlimit="10" stroke-linejoin="miter" fill="none" stroke="#000000" d="M1685 2530.6 1425.2 2380.6 1165.4 2530.6V2230.6L905.602 2080.6 1685 1630.6Z"/>
<path transform="matrix(.1,0,0,-.1,0,792)" d="M2135 2410 2585 1630.6H3485L2705.6 2080.6 2420.3 2245.3" fill="#b23300"/>
<path transform="matrix(.1,0,0,-.1,0,792)" stroke-width="1" stroke-linecap="butt" stroke-miterlimit="10" stroke-linejoin="miter" fill="none" stroke="#000000" d="M2135 2410 2585 1630.6H3485L2705.6 2080.6 2420.3 2245.3Z"/>
<path transform="matrix(.1,0,0,-.1,0,792)" d="M2135 2410 1685 1630.6H1985L2135 1370.8 2285 1630.6H2585" fill="#ffffff"/>
<path transform="matrix(.1,0,0,-.1,0,792)" stroke-width="1" stroke-linecap="butt" stroke-miterlimit="10" stroke-linejoin="miter" fill="none" stroke="#000000" d="M2135 2410 1685 1630.6H1985L2135 1370.8 2285 1630.6H2585Z"/>
<path transform="matrix(.1,0,0,-.1,0,792)" d="M3935 6010 3485 6789.4H2585L3364.4 6339.4 3649.7 6174.7" fill="#b23300"/>
<path transform="matrix(.1,0,0,-.1,0,792)" stroke-width="1" stroke-linecap="butt" stroke-miterlimit="10" stroke-linejoin="miter" fill="none" stroke="#000000" d="M3935 6010 3485 6789.4H2585L3364.4 6339.4 3649.7 6174.7Z"/>
<path transform="matrix(.1,0,0,-.1,0,792)" d="M3935 6010 4385 6789.4H4085L3935 7049.2 3785 6789.4H3485" fill="#ffffff"/>
<path transform="matrix(.1,0,0,-.1,0,792)" stroke-width="1" stroke-linecap="butt" stroke-miterlimit="10" stroke-linejoin="miter" fill="none" stroke="#000000" d="M3935 6010 4385 6789.4H4085L3935 7049.2 3785 6789.4H3485Z"/>
<path transform="matrix(.1,0,0,-.1,0,792)" d="M1805.6 6039.4 1545.8 6189.4V5889.4" fill="#ffffff"/>
<path transform="matrix(.1,0,0,-.1,0,792)" stroke-width="1" stroke-linecap="butt" stroke-miterlimit="10" stroke-linejoin="miter" fill="none" stroke="#000000" d="M1805.6 6039.4 1545.8 6189.4V5889.4Z"/>
<path transform="matrix(.1,0,0,-.1,0,792)" d="M1805.6 6039.4 2065.4 6189.4V6489.4L1805.6 6639.4 1545.8 6489.4V6189.4" fill="#ffcc66"/>
<path transform="matrix(.1,0,0,-.1,0,792)" stroke-width="1" stroke-linecap="butt" stroke-miterlimit="10" stroke-linejoin="miter" fill="none" stroke="#000000" d="M1805.6 6039.4 2065.4 6189.4V6489.4L1805.6 6639.4 1545.8 6489.4V6189.4Z"/>
<path transform="matrix(.1,0,0,-.1,0,792)" d="M4264.4 2380.6 4524.2 2230.6V2530.6" fill="#ffffff"/>
<path transform="matrix(.1,0,0,-.1,0,792)" stroke-width="1" stroke-linecap="butt" stroke-miterlimit="10" stroke-linejoin="miter" fill="none" stroke="#000000" d="M4264.4 2380.6 4524.2 2230.6V2530.6Z"/>
<path transform="matrix(.1,0,0,-.1,0,792)" d="M4264.4 2380.6 4004.6 2230.6V1930.6L4264.4 1780.6 4524.2 1930.6V2230.6" fill="#ffcc66"/>
<path transform="matrix(.1,0,0,-.1,0,792)" stroke-width="1" stroke-linecap="butt" stroke-miterlimit="10" stroke-linejoin="miter" fill="none" stroke="#000000" d="M4264.4 2380.6 4004.6 2230.6V1930.6L4264.4 1780.6 4524.2 1930.6V2230.6Z"/>
<path transform="matrix(.1,0,0,-.1,0,792)" d="M3199.7 6054.1 3649.7 6174.7 3364.4 6339.4" fill="#ffffff"/>
<path transform="matrix(.1,0,0,-.1,0,792)" stroke-width="1" stroke-linecap="butt" stroke-miterlimit="10" stroke-linejoin="miter" fill="none" stroke="#000000" d="M3199.7 6054.1 3649.7 6174.7 3364.4 6339.4Z"/>
<path transform="matrix(.1,0,0,-.1,0,792)" d="M2870.3 2365.9 2420.3 2245.3 2705.6 2080.6" fill="#ffffff"/>
<path transform="matrix(.1,0,0,-.1,0,792)" stroke-width="1" stroke-linecap="butt" stroke-miterlimit="10" stroke-linejoin="miter" fill="none" stroke="#000000" d="M2870.3 2365.9 2420.3 2245.3 2705.6 2080.6Z"/>
<path transform="matrix(.1,0,0,-.1,0,792)" d="M4385 3430.6H4714.4L4385 3760" fill="#ffffff"/>
<path transform="matrix(.1,0,0,-.1,0,792)" stroke-width="1" stroke-linecap="butt" stroke-miterlimit="10" stroke-linejoin="miter" fill="none" stroke="#000000" d="M4385 3430.6H4714.4L4385 3760Z"/>
<path transform="matrix(.1,0,0,-.1,0,792)" d="M4385 3760 4714.4 4089.4H4385" fill="#ffffff"/>
<path transform="matrix(.1,0,0,-.1,0,792)" stroke-width="1" stroke-linecap="butt" stroke-miterlimit="10" stroke-linejoin="miter" fill="none" stroke="#000000" d="M4385 3760 4714.4 4089.4H4385Z"/>
<path transform="matrix(.1,0,0,-.1,0,792)" d="M4385 3760 4714.4 3430.6 5043.8 3760 4714.4 4089.4Z" fill="#ffcc66"/>
<path transform="matrix(.1,0,0,-.1,0,792)" stroke-width="1" stroke-linecap="butt" stroke-miterlimit="10" stroke-linejoin="miter" fill="none" stroke="#000000" d="M4385 3760 4714.4 3430.6 5043.8 3760 4714.4 4089.4Z"/>
<path transform="matrix(.1,0,0,-.1,0,792)" d="M4385 4089.4 5164.4 4539.4 4904.6 4689.4V4989.4L4644.8 4839.4 4385 4989.4" fill="#ffffff"/>
<path transform="matrix(.1,0,0,-.1,0,792)" stroke-width="1" stroke-linecap="butt" stroke-miterlimit="10" stroke-linejoin="miter" fill="none" stroke="#000000" d="M4385 4089.4 5164.4 4539.4 4904.6 4689.4V4989.4L4644.8 4839.4 4385 4989.4Z"/>
<path transform="matrix(.1,0,0,-.1,0,792)" d="M4385 4089.4H5943.8L5164.4 4539.4" fill="#b23300"/>
<path transform="matrix(.1,0,0,-.1,0,792)" stroke-width="1" stroke-linecap="butt" stroke-miterlimit="10" stroke-linejoin="miter" fill="none" stroke="#000000" d="M4385 4089.4H5943.8L5164.4 4539.4Z"/>
<path transform="matrix(.1,0,0,-.1,0,792)" d="M4385 4989.4 4644.8 4839.4 4904.6 4989.4V5289.4L4644.8 5439.4 4385 5289.4" fill="#8099b2"/>
<path transform="matrix(.1,0,0,-.1,0,792)" stroke-width="1" stroke-linecap="butt" stroke-miterlimit="10" stroke-linejoin="miter" fill="none" stroke="#000000" d="M4385 4989.4 4644.8 4839.4 4904.6 4989.4V5289.4L4644.8 5439.4 4385 5289.4Z"/>
<path transform="matrix(.1,0,0,-.1,0,792)" d="M4385 5589.4 4644.8 5439.4 4904.6 5589.4V5889.4L4644.8 6039.4 4385 5889.4" fill="#8099b2"/>
<path transform="matrix(.1,0,0,-.1,0,792)" stroke-width="1" stroke-linecap="butt" stroke-miterlimit="10" stroke-linejoin="miter" fill="none" stroke="#000000" d="M4385 5589.4 4644.8 5439.4 4904.6 5589.4V5889.4L4644.8 6039.4 4385 5889.4Z"/>
<path transform="matrix(.1,0,0,-.1,0,792)" d="M4385 5889.4 4644.8 6039.4 4904.6 5889.4V6189.4L5164.4 6339.4 4385 6789.4" fill="#ffffff"/>
<path transform="matrix(.1,0,0,-.1,0,792)" stroke-width="1" stroke-linecap="butt" stroke-miterlimit="10" stroke-linejoin="miter" fill="none" stroke="#000000" d="M4385 5889.4 4644.8 6039.4 4904.6 5889.4V6189.4L5164.4 6339.4 4385 6789.4Z"/>
<path transform="matrix(.1,0,0,-.1,0,792)" d="M1545.8 5889.4V6189.4L1286 6339.4 1026.2 6189.4V5889.4L1286 5739.4" fill="#8099b2"/>
<path transform="matrix(.1,0,0,-.1,0,792)" stroke-width="1" stroke-linecap="butt" stroke-miterlimit="10" stroke-linejoin="miter" fill="none" stroke="#000000" d="M1545.8 5889.4V6189.4L1286 6339.4 1026.2 6189.4V5889.4L1286 5739.4Z"/>
<path transform="matrix(.1,0,0,-.1,0,792)" d="M1545.8 6189.4V6489.4L1286 6339.4" fill="#ffffff"/>
<path transform="matrix(.1,0,0,-.1,0,792)" stroke-width="1" stroke-linecap="butt" stroke-miterlimit="10" stroke-linejoin="miter" fill="none" stroke="#000000" d="M1545.8 6189.4V6489.4L1286 6339.4Z"/>
<path transform="matrix(.1,0,0,-.1,0,792)" d="M4004.6 2230.6 3744.8 2080.6 4004.6 1930.6" fill="#ffffff"/>
<path transform="matrix(.1,0,0,-.1,0,792)" stroke-width="1" stroke-linecap="butt" stroke-miterlimit="10" stroke-linejoin="miter" fill="none" stroke="#000000" d="M4004.6 2230.6 3744.8 2080.6 4004.6 1930.6Z"/>
<path transform="matrix(.1,0,0,-.1,0,792)" d="M2065.4 6189.4 2325.2 6339.4 2065.4 6489.4" fill="#ffffff"/>
<path transform="matrix(.1,0,0,-.1,0,792)" stroke-width="1" stroke-linecap="butt" stroke-miterlimit="10" stroke-linejoin="miter" fill="none" stroke="#000000" d="M2065.4 6189.4 2325.2 6339.4 2065.4 6489.4Z"/>
<path transform="matrix(.1,0,0,-.1,0,792)" d="M2325.2 6339.4 2585 6489.4V6789.4L2325.2 6939.4 2065.4 6789.4V6489.4" fill="#8099b2"/>
<path transform="matrix(.1,0,0,-.1,0,792)" stroke-width="1" stroke-linecap="butt" stroke-miterlimit="10" stroke-linejoin="miter" fill="none" stroke="#000000" d="M2325.2 6339.4 2585 6489.4V6789.4L2325.2 6939.4 2065.4 6789.4V6489.4Z"/>
<path transform="matrix(.1,0,0,-.1,0,792)" d="M3744.8 2080.6 3485 1930.6V1630.6L3744.8 1480.6 4004.6 1630.6V1930.6" fill="#8099b2"/>
<path transform="matrix(.1,0,0,-.1,0,792)" stroke-width="1" stroke-linecap="butt" stroke-miterlimit="10" stroke-linejoin="miter" fill="none" stroke="#000000" d="M3744.8 2080.6 3485 1930.6V1630.6L3744.8 1480.6 4004.6 1630.6V1930.6Z"/>
<path transform="matrix(.1,0,0,-.1,0,792)" d="M4524.2 2230.6 4784 2080.6 5043.8 2230.6V2530.6L4784 2680.6 4524.2 2530.6" fill="#8099b2"/>
<path transform="matrix(.1,0,0,-.1,0,792)" stroke-width="1" stroke-linecap="butt" stroke-miterlimit="10" stroke-linejoin="miter" fill="none" stroke="#000000" d="M4524.2 2230.6 4784 2080.6 5043.8 2230.6V2530.6L4784 2680.6 4524.2 2530.6Z"/>
<path transform="matrix(.1,0,0,-.1,0,792)" d="M4524.2 2230.6V1930.6L4784 2080.6" fill="#ffffff"/>
<path transform="matrix(.1,0,0,-.1,0,792)" stroke-width="1" stroke-linecap="butt" stroke-miterlimit="10" stroke-linejoin="miter" fill="none" stroke="#000000" d="M4524.2 2230.6V1930.6L4784 2080.6Z"/>
<path transform="matrix(.1,0,0,-.1,0,792)" d="M1425.2 2980.6 1165.4 3130.6V2830.6" fill="#ffffff"/>
<path transform="matrix(.1,0,0,-.1,0,792)" stroke-width="1" stroke-linecap="butt" stroke-miterlimit="10" stroke-linejoin="miter" fill="none" stroke="#000000" d="M1425.2 2980.6 1165.4 3130.6V2830.6Z"/>
<path transform="matrix(.1,0,0,-.1,0,792)" d="M1355.6 4989.4H1026.2V4660" fill="#ffffff"/>
<path transform="matrix(.1,0,0,-.1,0,792)" stroke-width="1" stroke-linecap="butt" stroke-miterlimit="10" stroke-linejoin="miter" fill="none" stroke="#000000" d="M1355.6 4989.4H1026.2V4660Z"/>
<path transform="matrix(.1,0,0,-.1,0,792)" d="M1355.6 4330.6 1026.2 4660V4330.6" fill="#ffffff"/>
<path transform="matrix(.1,0,0,-.1,0,792)" stroke-width="1" stroke-linecap="butt" stroke-miterlimit="10" stroke-linejoin="miter" fill="none" stroke="#000000" d="M1355.6 4330.6 1026.2 4660V4330.6Z"/>
<path transform="matrix(.1,0,0,-.1,0,792)" d="M4004.6 1930.6V1630.6L4264.4 1780.6" fill="#ffffff"/>
<path transform="matrix(.1,0,0,-.1,0,792)" stroke-width="1" stroke-linecap="butt" stroke-miterlimit="10" stroke-linejoin="miter" fill="none" stroke="#000000" d="M4004.6 1930.6V1630.6L4264.4 1780.6Z"/>
<path transform="matrix(.1,0,0,-.1,0,792)" d="M4524.2 1930.6V1630.6L4784 1480.6 5043.8 1630.6V1930.6L4784 2080.6" fill="#8099b2"/>
<path transform="matrix(.1,0,0,-.1,0,792)" stroke-width="1" stroke-linecap="butt" stroke-miterlimit="10" stroke-linejoin="miter" fill="none" stroke="#000000" d="M4524.2 1930.6V1630.6L4784 1480.6 5043.8 1630.6V1930.6L4784 2080.6Z"/>
<path transform="matrix(.1,0,0,-.1,0,792)" d="M4524.2 1930.6 4264.4 1780.6 4524.2 1630.6" fill="#ffffff"/>
<path transform="matrix(.1,0,0,-.1,0,792)" stroke-width="1" stroke-linecap="butt" stroke-miterlimit="10" stroke-linejoin="miter" fill="none" stroke="#000000" d="M4524.2 1930.6 4264.4 1780.6 4524.2 1630.6Z"/>
<path transform="matrix(.1,0,0,-.1,0,792)" d="M2065.4 6489.4V6789.4L1805.6 6639.4" fill="#ffffff"/>
<path transform="matrix(.1,0,0,-.1,0,792)" stroke-width="1" stroke-linecap="butt" stroke-miterlimit="10" stroke-linejoin="miter" fill="none" stroke="#000000" d="M2065.4 6489.4V6789.4L1805.6 6639.4Z"/>
<path transform="matrix(.1,0,0,-.1,0,792)" d="M1545.8 6489.4V6789.4L1286 6939.4 1026.2 6789.4V6489.4L1286 6339.4" fill="#8099b2"/>
<path transform="matrix(.1,0,0,-.1,0,792)" stroke-width="1" stroke-linecap="butt" stroke-miterlimit="10" stroke-linejoin="miter" fill="none" stroke="#000000" d="M1545.8 6489.4V6789.4L1286 6939.4 1026.2 6789.4V6489.4L1286 6339.4Z"/>
<path transform="matrix(.1,0,0,-.1,0,792)" d="M1545.8 6489.4 1805.6 6639.4 1545.8 6789.4" fill="#ffffff"/>
<path transform="matrix(.1,0,0,-.1,0,792)" stroke-width="1" stroke-linecap="butt" stroke-miterlimit="10" stroke-linejoin="miter" fill="none" stroke="#000000" d="M1545.8 6489.4 1805.6 6639.4 1545.8 6789.4Z"/>
<path transform="matrix(.1,0,0,-.1,0,792)" d="M4644.8 5439.4 4904.6 5289.4V5589.4" fill="#ffffff"/>
<path transform="matrix(.1,0,0,-.1,0,792)" stroke-width="1" stroke-linecap="butt" stroke-miterlimit="10" stroke-linejoin="miter" fill="none" stroke="#000000" d="M4644.8 5439.4 4904.6 5289.4V5589.4Z"/>
<path transform="matrix(.1,0,0,-.1,0,792)" d="M1286 6339.4 1026.2 6489.4V6789.4L246.699 6339.4 1026.2 5889.4V6189.4" fill="#ffffff"/>
<path transform="matrix(.1,0,0,-.1,0,792)" stroke-width="1" stroke-linecap="butt" stroke-miterlimit="10" stroke-linejoin="miter" fill="none" stroke="#000000" d="M1286 6339.4 1026.2 6489.4V6789.4L246.699 6339.4 1026.2 5889.4V6189.4Z"/>
<path transform="matrix(.1,0,0,-.1,0,792)" d="M4714.4 3430.6H5043.8V3760" fill="#ffffff"/>
<path transform="matrix(.1,0,0,-.1,0,792)" stroke-width="1" stroke-linecap="butt" stroke-miterlimit="10" stroke-linejoin="miter" fill="none" stroke="#000000" d="M4714.4 3430.6H5043.8V3760Z"/>
<path transform="matrix(.1,0,0,-.1,0,792)" d="M4714.4 4089.4 5043.8 3760V4089.4" fill="#ffffff"/>
<path transform="matrix(.1,0,0,-.1,0,792)" stroke-width="1" stroke-linecap="butt" stroke-miterlimit="10" stroke-linejoin="miter" fill="none" stroke="#000000" d="M4714.4 4089.4 5043.8 3760V4089.4Z"/>
<path transform="matrix(.1,0,0,-.1,0,792)" d="M1805.6 6639.4 2065.4 6789.4V7089.4L1805.6 7239.4 1545.8 7089.4V6789.4" fill="#8099b2"/>
<path transform="matrix(.1,0,0,-.1,0,792)" stroke-width="1" stroke-linecap="butt" stroke-miterlimit="10" stroke-linejoin="miter" fill="none" stroke="#000000" d="M1805.6 6639.4 2065.4 6789.4V7089.4L1805.6 7239.4 1545.8 7089.4V6789.4Z"/>
<path transform="matrix(.1,0,0,-.1,0,792)" d="M4264.4 1780.6 4004.6 1630.6V1330.6L4264.4 1180.6 4524.2 1330.6V1630.6" fill="#8099b2"/>
<path transform="matrix(.1,0,0,-.1,0,792)" stroke-width="1" stroke-linecap="butt" stroke-miterlimit="10" stroke-linejoin="miter" fill="none" stroke="#000000" d="M4264.4 1780.6 4004.6 1630.6V1330.6L4264.4 1180.6 4524.2 1330.6V1630.6Z"/>
<path transform="matrix(.1,0,0,-.1,0,792)" d="M4784 2080.6 5043.8 1930.6V1630.6L5823.3 2080.6 5043.8 2530.6V2230.6" fill="#ffffff"/>
<path transform="matrix(.1,0,0,-.1,0,792)" stroke-width="1" stroke-linecap="butt" stroke-miterlimit="10" stroke-linejoin="miter" fill="none" stroke="#000000" d="M4784 2080.6 5043.8 1930.6V1630.6L5823.3 2080.6 5043.8 2530.6V2230.6Z"/>
<path transform="matrix(.1,0,0,-.1,0,792)" d="M1165.4 3730.6 905.602 3880.6 645.801 3730.6V3430.6L905.602 3280.6 1165.4 3430.6" fill="#8099b2"/>
<path transform="matrix(.1,0,0,-.1,0,792)" stroke-width="1" stroke-linecap="butt" stroke-miterlimit="10" stroke-linejoin="miter" fill="none" stroke="#000000" d="M1165.4 3730.6 905.602 3880.6 645.801 3730.6V3430.6L905.602 3280.6 1165.4 3430.6Z"/>
<path transform="matrix(.1,0,0,-.1,0,792)" d="M1165.4 3430.6 905.602 3280.6 1165.4 3130.6" fill="#ffffff"/>
<path transform="matrix(.1,0,0,-.1,0,792)" stroke-width="1" stroke-linecap="butt" stroke-miterlimit="10" stroke-linejoin="miter" fill="none" stroke="#000000" d="M1165.4 3430.6 905.602 3280.6 1165.4 3130.6Z"/>
<path transform="matrix(.1,0,0,-.1,0,792)" d="M1165.4 3130.6 905.602 3280.6 645.801 3130.6V2830.6L905.602 2680.6 1165.4 2830.6" fill="#ffcc66"/>
<path transform="matrix(.1,0,0,-.1,0,792)" stroke-width="1" stroke-linecap="butt" stroke-miterlimit="10" stroke-linejoin="miter" fill="none" stroke="#000000" d="M1165.4 3130.6 905.602 3280.6 645.801 3130.6V2830.6L905.602 2680.6 1165.4 2830.6Z"/>
<path transform="matrix(.1,0,0,-.1,0,792)" d="M1165.4 2830.6 905.602 2680.6 1165.4 2530.6" fill="#ffffff"/>
<path transform="matrix(.1,0,0,-.1,0,792)" stroke-width="1" stroke-linecap="butt" stroke-miterlimit="10" stroke-linejoin="miter" fill="none" stroke="#000000" d="M1165.4 2830.6 905.602 2680.6 1165.4 2530.6Z"/>
<path transform="matrix(.1,0,0,-.1,0,792)" d="M1165.4 2530.6 905.602 2680.6 645.801 2530.6V2230.6L905.602 2080.6 1165.4 2230.6" fill="#8099b2"/>
<path transform="matrix(.1,0,0,-.1,0,792)" stroke-width="1" stroke-linecap="butt" stroke-miterlimit="10" stroke-linejoin="miter" fill="none" stroke="#000000" d="M1165.4 2530.6 905.602 2680.6 645.801 2530.6V2230.6L905.602 2080.6 1165.4 2230.6Z"/>
<path transform="matrix(.1,0,0,-.1,0,792)" d="M1685 1630.6 1535 1370.8 1685 1111H1985L2135 1370.8 1985 1630.6" fill="#8099b2"/>
<path transform="matrix(.1,0,0,-.1,0,792)" stroke-width="1" stroke-linecap="butt" stroke-miterlimit="10" stroke-linejoin="miter" fill="none" stroke="#000000" d="M1685 1630.6 1535 1370.8 1685 1111H1985L2135 1370.8 1985 1630.6Z"/>
<path transform="matrix(.1,0,0,-.1,0,792)" d="M1685 1630.6H785L1235 851.199 1385 1111H1685L1535 1370.8" fill="#ffffff"/>
<path transform="matrix(.1,0,0,-.1,0,792)" stroke-width="1" stroke-linecap="butt" stroke-miterlimit="10" stroke-linejoin="miter" fill="none" stroke="#000000" d="M1685 1630.6H785L1235 851.199 1385 1111H1685L1535 1370.8Z"/>
<path transform="matrix(.1,0,0,-.1,0,792)" d="M1685 1630.6 905.602 2080.6 126.199 1630.6H785Z" fill="#b23300"/>
<path transform="matrix(.1,0,0,-.1,0,792)" stroke-width="1" stroke-linecap="butt" stroke-miterlimit="10" stroke-linejoin="miter" fill="none" stroke="#000000" d="M1685 1630.6 905.602 2080.6 126.199 1630.6H785Z"/>
<path transform="matrix(.1,0,0,-.1,0,792)" d="M2285 1630.6 2135 1370.8 2285 1111H2585L2735 1370.8 2585 1630.6" fill="#8099b2"/>
<path transform="matrix(.1,0,0,-.1,0,792)" stroke-width="1" stroke-linecap="butt" stroke-miterlimit="10" stroke-linejoin="miter" fill="none" stroke="#000000" d="M2285 1630.6 2135 1370.8 2285 1111H2585L2735 1370.8 2585 1630.6Z"/>
<path transform="matrix(.1,0,0,-.1,0,792)" d="M2585 1630.6 2735 1370.8 2585 1111H2885L3035 851.199 3485 1630.6" fill="#ffffff"/>
<path transform="matrix(.1,0,0,-.1,0,792)" stroke-width="1" stroke-linecap="butt" stroke-miterlimit="10" stroke-linejoin="miter" fill="none" stroke="#000000" d="M2585 1630.6 2735 1370.8 2585 1111H2885L3035 851.199 3485 1630.6Z"/>
<path transform="matrix(.1,0,0,-.1,0,792)" d="M3485 1630.6V730.602L4264.4 1180.6 4004.6 1330.6V1630.6L3744.8 1480.6" fill="#ffffff"/>
<path transform="matrix(.1,0,0,-.1,0,792)" stroke-width="1" stroke-linecap="butt" stroke-miterlimit="10" stroke-linejoin="miter" fill="none" stroke="#000000" d="M3485 1630.6V730.602L4264.4 1180.6 4004.6 1330.6V1630.6L3744.8 1480.6Z"/>
<path transform="matrix(.1,0,0,-.1,0,792)" d="M3485 1630.6 3035 851.199 3485 71.6992V730.602Z" fill="#b23300"/>
<path transform="matrix(.1,0,0,-.1,0,792)" stroke-width="1" stroke-linecap="butt" stroke-miterlimit="10" stroke-linejoin="miter" fill="none" stroke="#000000" d="M3485 1630.6 3035 851.199 3485 71.6992V730.602Z"/>
<path transform="matrix(.1,0,0,-.1,0,792)" d="M4524.2 1630.6V1330.6L4264.4 1180.6 5043.8 730.602V1630.6L4784 1480.6" fill="#ffffff"/>
<path transform="matrix(.1,0,0,-.1,0,792)" stroke-width="1" stroke-linecap="butt" stroke-miterlimit="10" stroke-linejoin="miter" fill="none" stroke="#000000" d="M4524.2 1630.6V1330.6L4264.4 1180.6 5043.8 730.602V1630.6L4784 1480.6Z"/>
<path transform="matrix(.1,0,0,-.1,0,792)" d="M4385 6789.4 4535 7049.2 4385 7309H4085L3935 7049.2 4085 6789.4" fill="#8099b2"/>
<path transform="matrix(.1,0,0,-.1,0,792)" stroke-width="1" stroke-linecap="butt" stroke-miterlimit="10" stroke-linejoin="miter" fill="none" stroke="#000000" d="M4385 6789.4 4535 7049.2 4385 7309H4085L3935 7049.2 4085 6789.4Z"/>
<path transform="matrix(.1,0,0,-.1,0,792)" d="M4385 6789.4H5285L4835 7568.8 4685 7309H4385L4535 7049.2" fill="#ffffff"/>
<path transform="matrix(.1,0,0,-.1,0,792)" stroke-width="1" stroke-linecap="butt" stroke-miterlimit="10" stroke-linejoin="miter" fill="none" stroke="#000000" d="M4385 6789.4H5285L4835 7568.8 4685 7309H4385L4535 7049.2Z"/>
<path transform="matrix(.1,0,0,-.1,0,792)" d="M4385 6789.4 5164.4 6339.4 5943.8 6789.4H5285Z" fill="#b23300"/>
<path transform="matrix(.1,0,0,-.1,0,792)" stroke-width="1" stroke-linecap="butt" stroke-miterlimit="10" stroke-linejoin="miter" fill="none" stroke="#000000" d="M4385 6789.4 5164.4 6339.4 5943.8 6789.4H5285Z"/>
<path transform="matrix(.1,0,0,-.1,0,792)" d="M3785 6789.4 3935 7049.2 3785 7309H3485L3335 7049.2 3485 6789.4" fill="#8099b2"/>
<path transform="matrix(.1,0,0,-.1,0,792)" stroke-width="1" stroke-linecap="butt" stroke-miterlimit="10" stroke-linejoin="miter" fill="none" stroke="#000000" d="M3785 6789.4 3935 7049.2 3785 7309H3485L3335 7049.2 3485 6789.4Z"/>
<path transform="matrix(.1,0,0,-.1,0,792)" d="M3485 6789.4 3335 7049.2 3485 7309H3185L3035 7568.8 2585 6789.4" fill="#ffffff"/>
<path transform="matrix(.1,0,0,-.1,0,792)" stroke-width="1" stroke-linecap="butt" stroke-miterlimit="10" stroke-linejoin="miter" fill="none" stroke="#000000" d="M3485 6789.4 3335 7049.2 3485 7309H3185L3035 7568.8 2585 6789.4Z"/>
<path transform="matrix(.1,0,0,-.1,0,792)" d="M2585 6789.4V7689.4L1805.6 7239.4 2065.4 7089.4V6789.4L2325.2 6939.4" fill="#ffffff"/>
<path transform="matrix(.1,0,0,-.1,0,792)" stroke-width="1" stroke-linecap="butt" stroke-miterlimit="10" stroke-linejoin="miter" fill="none" stroke="#000000" d="M2585 6789.4V7689.4L1805.6 7239.4 2065.4 7089.4V6789.4L2325.2 6939.4Z"/>
<path transform="matrix(.1,0,0,-.1,0,792)" d="M2585 6789.4 3035 7568.8 2585 8348.3V7689.4Z" fill="#b23300"/>
<path transform="matrix(.1,0,0,-.1,0,792)" stroke-width="1" stroke-linecap="butt" stroke-miterlimit="10" stroke-linejoin="miter" fill="none" stroke="#000000" d="M2585 6789.4 3035 7568.8 2585 8348.3V7689.4Z"/>
<path transform="matrix(.1,0,0,-.1,0,792)" d="M1545.8 6789.4V7089.4L1805.6 7239.4 1026.2 7689.4V6789.4L1286 6939.4" fill="#ffffff"/>
<path transform="matrix(.1,0,0,-.1,0,792)" stroke-width="1" stroke-linecap="butt" stroke-miterlimit="10" stroke-linejoin="miter" fill="none" stroke="#000000" d="M1545.8 6789.4V7089.4L1805.6 7239.4 1026.2 7689.4V6789.4L1286 6939.4Z"/>
<path transform="matrix(.1,0,0,-.1,0,792)" d="M4904.6 4689.4 5164.4 4539.4 5424.2 4689.4V4989.4L5164.4 5139.4 4904.6 4989.4" fill="#8099b2"/>
<path transform="matrix(.1,0,0,-.1,0,792)" stroke-width="1" stroke-linecap="butt" stroke-miterlimit="10" stroke-linejoin="miter" fill="none" stroke="#000000" d="M4904.6 4689.4 5164.4 4539.4 5424.2 4689.4V4989.4L5164.4 5139.4 4904.6 4989.4Z"/>
<path transform="matrix(.1,0,0,-.1,0,792)" d="M4904.6 4989.4 5164.4 5139.4 4904.6 5289.4" fill="#ffffff"/>
<path transform="matrix(.1,0,0,-.1,0,792)" stroke-width="1" stroke-linecap="butt" stroke-miterlimit="10" stroke-linejoin="miter" fill="none" stroke="#000000" d="M4904.6 4989.4 5164.4 5139.4 4904.6 5289.4Z"/>
<path transform="matrix(.1,0,0,-.1,0,792)" d="M4904.6 5289.4 5164.4 5139.4 5424.2 5289.4V5589.4L5164.4 5739.4 4904.6 5589.4" fill="#ffcc66"/>
<path transform="matrix(.1,0,0,-.1,0,792)" stroke-width="1" stroke-linecap="butt" stroke-miterlimit="10" stroke-linejoin="miter" fill="none" stroke="#000000" d="M4904.6 5289.4 5164.4 5139.4 5424.2 5289.4V5589.4L5164.4 5739.4 4904.6 5589.4Z"/>
<path transform="matrix(.1,0,0,-.1,0,792)" d="M4904.6 5589.4 5164.4 5739.4 4904.6 5889.4" fill="#ffffff"/>
<path transform="matrix(.1,0,0,-.1,0,792)" stroke-width="1" stroke-linecap="butt" stroke-miterlimit="10" stroke-linejoin="miter" fill="none" stroke="#000000" d="M4904.6 5589.4 5164.4 5739.4 4904.6 5889.4Z"/>
<path transform="matrix(.1,0,0,-.1,0,792)" d="M4904.6 5889.4 5164.4 5739.4 5424.2 5889.4V6189.4L5164.4 6339.4 4904.6 6189.4" fill="#8099b2"/>
<path transform="matrix(.1,0,0,-.1,0,792)" stroke-width="1" stroke-linecap="butt" stroke-miterlimit="10" stroke-linejoin="miter" fill="none" stroke="#000000" d="M4904.6 5889.4 5164.4 5739.4 5424.2 5889.4V6189.4L5164.4 6339.4 4904.6 6189.4Z"/>
<path transform="matrix(.1,0,0,-.1,0,792)" d="M1026.2 6789.4V7689.4L576.199 6910 411.398 6624.7 246.699 6339.4" fill="#b23300"/>
<path transform="matrix(.1,0,0,-.1,0,792)" stroke-width="1" stroke-linecap="butt" stroke-miterlimit="10" stroke-linejoin="miter" fill="none" stroke="#000000" d="M1026.2 6789.4V7689.4L576.199 6910 411.398 6624.7 246.699 6339.4Z"/>
<path transform="matrix(.1,0,0,-.1,0,792)" d="M1026.2 5889.4 576.199 5110 1026.2 4330.6V4989.4Z" fill="#b23300"/>
<path transform="matrix(.1,0,0,-.1,0,792)" stroke-width="1" stroke-linecap="butt" stroke-miterlimit="10" stroke-linejoin="miter" fill="none" stroke="#000000" d="M1026.2 5889.4 576.199 5110 1026.2 4330.6V4989.4Z"/>
<path transform="matrix(.1,0,0,-.1,0,792)" d="M1026.2 5889.4H126.199L276.199 5629.6 126.199 5369.8H426.199L576.199 5110" fill="#ffffff"/>
<path transform="matrix(.1,0,0,-.1,0,792)" stroke-width="1" stroke-linecap="butt" stroke-miterlimit="10" stroke-linejoin="miter" fill="none" stroke="#000000" d="M1026.2 5889.4H126.199L276.199 5629.6 126.199 5369.8H426.199L576.199 5110Z"/>
<path transform="matrix(.1,0,0,-.1,0,792)" d="M1026.2 5889.4 246.699 6339.4-38.6016 6504.1-323.801 6668.8 126.199 5889.4" fill="#b23300"/>
<path transform="matrix(.1,0,0,-.1,0,792)" stroke-width="1" stroke-linecap="butt" stroke-miterlimit="10" stroke-linejoin="miter" fill="none" stroke="#000000" d="M1026.2 5889.4 246.699 6339.4-38.6016 6504.1-323.801 6668.8 126.199 5889.4Z"/>
<path transform="matrix(.1,0,0,-.1,0,792)" d="M1026.2 4330.6 576.199 5110 426.199 4850.2H126.199L276.199 4590.4 126.199 4330.6" fill="#ffffff"/>
<path transform="matrix(.1,0,0,-.1,0,792)" stroke-width="1" stroke-linecap="butt" stroke-miterlimit="10" stroke-linejoin="miter" fill="none" stroke="#000000" d="M1026.2 4330.6 576.199 5110 426.199 4850.2H126.199L276.199 4590.4 126.199 4330.6Z"/>
<path transform="matrix(.1,0,0,-.1,0,792)" d="M2135 1370.8 1985 1111H2285" fill="#ffffff"/>
<path transform="matrix(.1,0,0,-.1,0,792)" stroke-width="1" stroke-linecap="butt" stroke-miterlimit="10" stroke-linejoin="miter" fill="none" stroke="#000000" d="M2135 1370.8 1985 1111H2285Z"/>
<path transform="matrix(.1,0,0,-.1,0,792)" d="M3935 7049.2 4085 7309H3785" fill="#ffffff"/>
<path transform="matrix(.1,0,0,-.1,0,792)" stroke-width="1" stroke-linecap="butt" stroke-miterlimit="10" stroke-linejoin="miter" fill="none" stroke="#000000" d="M3935 7049.2 4085 7309H3785Z"/>
<path transform="matrix(.1,0,0,-.1,0,792)" d="M5043.8 1630.6V730.602L5493.8 1510 5658.6 1795.3 5823.3 2080.6" fill="#b23300"/>
<path transform="matrix(.1,0,0,-.1,0,792)" stroke-width="1" stroke-linecap="butt" stroke-miterlimit="10" stroke-linejoin="miter" fill="none" stroke="#000000" d="M5043.8 1630.6V730.602L5493.8 1510 5658.6 1795.3 5823.3 2080.6Z"/>
<path transform="matrix(.1,0,0,-.1,0,792)" d="M5043.8 2530.6 5493.8 3310 5043.8 4089.4V3430.6Z" fill="#b23300"/>
<path transform="matrix(.1,0,0,-.1,0,792)" stroke-width="1" stroke-linecap="butt" stroke-miterlimit="10" stroke-linejoin="miter" fill="none" stroke="#000000" d="M5043.8 2530.6 5493.8 3310 5043.8 4089.4V3430.6Z"/>
<path transform="matrix(.1,0,0,-.1,0,792)" d="M5043.8 2530.6H5943.8L5793.8 2790.4 5943.8 3050.2H5643.8L5493.8 3310" fill="#ffffff"/>
<path transform="matrix(.1,0,0,-.1,0,792)" stroke-width="1" stroke-linecap="butt" stroke-miterlimit="10" stroke-linejoin="miter" fill="none" stroke="#000000" d="M5043.8 2530.6H5943.8L5793.8 2790.4 5943.8 3050.2H5643.8L5493.8 3310Z"/>
<path transform="matrix(.1,0,0,-.1,0,792)" d="M5043.8 2530.6 5823.3 2080.6 6108.6 1915.9 6393.8 1751.2 5943.8 2530.6" fill="#b23300"/>
<path transform="matrix(.1,0,0,-.1,0,792)" stroke-width="1" stroke-linecap="butt" stroke-miterlimit="10" stroke-linejoin="miter" fill="none" stroke="#000000" d="M5043.8 2530.6 5823.3 2080.6 6108.6 1915.9 6393.8 1751.2 5943.8 2530.6Z"/>
<path transform="matrix(.1,0,0,-.1,0,792)" d="M5043.8 4089.4 5493.8 3310 5643.8 3569.8H5943.8L5793.8 3829.6 5943.8 4089.4" fill="#ffffff"/>
<path transform="matrix(.1,0,0,-.1,0,792)" stroke-width="1" stroke-linecap="butt" stroke-miterlimit="10" stroke-linejoin="miter" fill="none" stroke="#000000" d="M5043.8 4089.4 5493.8 3310 5643.8 3569.8H5943.8L5793.8 3829.6 5943.8 4089.4Z"/>
<path transform="matrix(.1,0,0,-.1,0,792)" d="M905.602 3880.6 126.199 4330.6V3430.6L386 3580.6 645.801 3430.6V3730.6" fill="#ffffff"/>
<path transform="matrix(.1,0,0,-.1,0,792)" stroke-width="1" stroke-linecap="butt" stroke-miterlimit="10" stroke-linejoin="miter" fill="none" stroke="#000000" d="M905.602 3880.6 126.199 4330.6V3430.6L386 3580.6 645.801 3430.6V3730.6Z"/>
<path transform="matrix(.1,0,0,-.1,0,792)" d="M905.602 3280.6 645.801 3430.6V3130.6" fill="#ffffff"/>
<path transform="matrix(.1,0,0,-.1,0,792)" stroke-width="1" stroke-linecap="butt" stroke-miterlimit="10" stroke-linejoin="miter" fill="none" stroke="#000000" d="M905.602 3280.6 645.801 3430.6V3130.6Z"/>
<path transform="matrix(.1,0,0,-.1,0,792)" d="M905.602 2680.6 645.801 2830.6V2530.6" fill="#ffffff"/>
<path transform="matrix(.1,0,0,-.1,0,792)" stroke-width="1" stroke-linecap="butt" stroke-miterlimit="10" stroke-linejoin="miter" fill="none" stroke="#000000" d="M905.602 2680.6 645.801 2830.6V2530.6Z"/>
<path transform="matrix(.1,0,0,-.1,0,792)" d="M905.602 2080.6 645.801 2230.6V2530.6L386 2380.6 126.199 2530.6V1630.6" fill="#ffffff"/>
<path transform="matrix(.1,0,0,-.1,0,792)" stroke-width="1" stroke-linecap="butt" stroke-miterlimit="10" stroke-linejoin="miter" fill="none" stroke="#000000" d="M905.602 2080.6 645.801 2230.6V2530.6L386 2380.6 126.199 2530.6V1630.6Z"/>
<path transform="matrix(.1,0,0,-.1,0,792)" d="M5164.4 4539.4 5943.8 4089.4V4989.4L5684 4839.4 5424.2 4989.4V4689.4" fill="#ffffff"/>
<path transform="matrix(.1,0,0,-.1,0,792)" stroke-width="1" stroke-linecap="butt" stroke-miterlimit="10" stroke-linejoin="miter" fill="none" stroke="#000000" d="M5164.4 4539.4 5943.8 4089.4V4989.4L5684 4839.4 5424.2 4989.4V4689.4Z"/>
<path transform="matrix(.1,0,0,-.1,0,792)" d="M5164.4 5139.4 5424.2 4989.4V5289.4" fill="#ffffff"/>
<path transform="matrix(.1,0,0,-.1,0,792)" stroke-width="1" stroke-linecap="butt" stroke-miterlimit="10" stroke-linejoin="miter" fill="none" stroke="#000000" d="M5164.4 5139.4 5424.2 4989.4V5289.4Z"/>
<path transform="matrix(.1,0,0,-.1,0,792)" d="M5164.4 5739.4 5424.2 5589.4V5889.4" fill="#ffffff"/>
<path transform="matrix(.1,0,0,-.1,0,792)" stroke-width="1" stroke-linecap="butt" stroke-miterlimit="10" stroke-linejoin="miter" fill="none" stroke="#000000" d="M5164.4 5739.4 5424.2 5589.4V5889.4Z"/>
<path transform="matrix(.1,0,0,-.1,0,792)" d="M5164.4 6339.4 5424.2 6189.4V5889.4L5684 6039.4 5943.8 5889.4V6789.4" fill="#ffffff"/>
<path transform="matrix(.1,0,0,-.1,0,792)" stroke-width="1" stroke-linecap="butt" stroke-miterlimit="10" stroke-linejoin="miter" fill="none" stroke="#000000" d="M5164.4 6339.4 5424.2 6189.4V5889.4L5684 6039.4 5943.8 5889.4V6789.4Z"/>
<path transform="matrix(.1,0,0,-.1,0,792)" d="M785 1630.6V71.6992L1235 851.199" fill="#b23300"/>
<path transform="matrix(.1,0,0,-.1,0,792)" stroke-width="1" stroke-linecap="butt" stroke-miterlimit="10" stroke-linejoin="miter" fill="none" stroke="#000000" d="M785 1630.6V71.6992L1235 851.199Z"/>
<path transform="matrix(.1,0,0,-.1,0,792)" d="M785 1630.6H455.602L785 1301.2" fill="#ffffff"/>
<path transform="matrix(.1,0,0,-.1,0,792)" stroke-width="1" stroke-linecap="butt" stroke-miterlimit="10" stroke-linejoin="miter" fill="none" stroke="#000000" d="M785 1630.6H455.602L785 1301.2Z"/>
<path transform="matrix(.1,0,0,-.1,0,792)" d="M785 1301.2 455.602 971.699H785" fill="#ffffff"/>
<path transform="matrix(.1,0,0,-.1,0,792)" stroke-width="1" stroke-linecap="butt" stroke-miterlimit="10" stroke-linejoin="miter" fill="none" stroke="#000000" d="M785 1301.2 455.602 971.699H785Z"/>
<path transform="matrix(.1,0,0,-.1,0,792)" d="M785 1301.2 455.602 1630.6 126.199 1301.2 455.602 971.699Z" fill="#ffcc66"/>
<path transform="matrix(.1,0,0,-.1,0,792)" stroke-width="1" stroke-linecap="butt" stroke-miterlimit="10" stroke-linejoin="miter" fill="none" stroke="#000000" d="M785 1301.2 455.602 1630.6 126.199 1301.2 455.602 971.699Z"/>
<path transform="matrix(.1,0,0,-.1,0,792)" d="M4264.4 1180.6 3485 730.602H5043.8" fill="#b23300"/>
<path transform="matrix(.1,0,0,-.1,0,792)" stroke-width="1" stroke-linecap="butt" stroke-miterlimit="10" stroke-linejoin="miter" fill="none" stroke="#000000" d="M4264.4 1180.6 3485 730.602H5043.8Z"/>
<path transform="matrix(.1,0,0,-.1,0,792)" d="M1805.6 7239.4 2585 7689.4H1026.2" fill="#b23300"/>
<path transform="matrix(.1,0,0,-.1,0,792)" stroke-width="1" stroke-linecap="butt" stroke-miterlimit="10" stroke-linejoin="miter" fill="none" stroke="#000000" d="M1805.6 7239.4 2585 7689.4H1026.2Z"/>
<path transform="matrix(.1,0,0,-.1,0,792)" d="M1385 1111 1235 851.199 1385 591.301H1685L1835 851.199 1685 1111" fill="#8099b2"/>
<path transform="matrix(.1,0,0,-.1,0,792)" stroke-width="1" stroke-linecap="butt" stroke-miterlimit="10" stroke-linejoin="miter" fill="none" stroke="#000000" d="M1385 1111 1235 851.199 1385 591.301H1685L1835 851.199 1685 1111Z"/>
<path transform="matrix(.1,0,0,-.1,0,792)" d="M1685 1111 1835 851.199 1985 1111" fill="#ffffff"/>
<path transform="matrix(.1,0,0,-.1,0,792)" stroke-width="1" stroke-linecap="butt" stroke-miterlimit="10" stroke-linejoin="miter" fill="none" stroke="#000000" d="M1685 1111 1835 851.199 1985 1111Z"/>
<path transform="matrix(.1,0,0,-.1,0,792)" d="M1985 1111 1835 851.199 1985 591.301H2285L2435 851.199 2285 1111" fill="#ffcc66"/>
<path transform="matrix(.1,0,0,-.1,0,792)" stroke-width="1" stroke-linecap="butt" stroke-miterlimit="10" stroke-linejoin="miter" fill="none" stroke="#000000" d="M1985 1111 1835 851.199 1985 591.301H2285L2435 851.199 2285 1111Z"/>
<path transform="matrix(.1,0,0,-.1,0,792)" d="M2285 1111 2435 851.199 2585 1111" fill="#ffffff"/>
<path transform="matrix(.1,0,0,-.1,0,792)" stroke-width="1" stroke-linecap="butt" stroke-miterlimit="10" stroke-linejoin="miter" fill="none" stroke="#000000" d="M2285 1111 2435 851.199 2585 1111Z"/>
<path transform="matrix(.1,0,0,-.1,0,792)" d="M2585 1111 2435 851.199 2585 591.301H2885L3035 851.199 2885 1111" fill="#8099b2"/>
<path transform="matrix(.1,0,0,-.1,0,792)" stroke-width="1" stroke-linecap="butt" stroke-miterlimit="10" stroke-linejoin="miter" fill="none" stroke="#000000" d="M2585 1111 2435 851.199 2585 591.301H2885L3035 851.199 2885 1111Z"/>
<path transform="matrix(.1,0,0,-.1,0,792)" d="M4685 7309 4835 7568.8 4685 7828.7H4385L4235 7568.8 4385 7309" fill="#8099b2"/>
<path transform="matrix(.1,0,0,-.1,0,792)" stroke-width="1" stroke-linecap="butt" stroke-miterlimit="10" stroke-linejoin="miter" fill="none" stroke="#000000" d="M4685 7309 4835 7568.8 4685 7828.7H4385L4235 7568.8 4385 7309Z"/>
<path transform="matrix(.1,0,0,-.1,0,792)" d="M4385 7309 4235 7568.8 4085 7309" fill="#ffffff"/>
<path transform="matrix(.1,0,0,-.1,0,792)" stroke-width="1" stroke-linecap="butt" stroke-miterlimit="10" stroke-linejoin="miter" fill="none" stroke="#000000" d="M4385 7309 4235 7568.8 4085 7309Z"/>
<path transform="matrix(.1,0,0,-.1,0,792)" d="M4085 7309 4235 7568.8 4085 7828.7H3785L3635 7568.8 3785 7309" fill="#ffcc66"/>
<path transform="matrix(.1,0,0,-.1,0,792)" stroke-width="1" stroke-linecap="butt" stroke-miterlimit="10" stroke-linejoin="miter" fill="none" stroke="#000000" d="M4085 7309 4235 7568.8 4085 7828.7H3785L3635 7568.8 3785 7309Z"/>
<path transform="matrix(.1,0,0,-.1,0,792)" d="M3785 7309 3635 7568.8 3485 7309" fill="#ffffff"/>
<path transform="matrix(.1,0,0,-.1,0,792)" stroke-width="1" stroke-linecap="butt" stroke-miterlimit="10" stroke-linejoin="miter" fill="none" stroke="#000000" d="M3785 7309 3635 7568.8 3485 7309Z"/>
<path transform="matrix(.1,0,0,-.1,0,792)" d="M3485 7309 3635 7568.8 3485 7828.7H3185L3035 7568.8 3185 7309" fill="#8099b2"/>
<path transform="matrix(.1,0,0,-.1,0,792)" stroke-width="1" stroke-linecap="butt" stroke-miterlimit="10" stroke-linejoin="miter" fill="none" stroke="#000000" d="M3485 7309 3635 7568.8 3485 7828.7H3185L3035 7568.8 3185 7309Z"/>
<path transform="matrix(.1,0,0,-.1,0,792)" d="M5285 6789.4V8348.3L4835 7568.8" fill="#b23300"/>
<path transform="matrix(.1,0,0,-.1,0,792)" stroke-width="1" stroke-linecap="butt" stroke-miterlimit="10" stroke-linejoin="miter" fill="none" stroke="#000000" d="M5285 6789.4V8348.3L4835 7568.8Z"/>
<path transform="matrix(.1,0,0,-.1,0,792)" d="M5285 6789.4H5614.4L5285 7118.8" fill="#ffffff"/>
<path transform="matrix(.1,0,0,-.1,0,792)" stroke-width="1" stroke-linecap="butt" stroke-miterlimit="10" stroke-linejoin="miter" fill="none" stroke="#000000" d="M5285 6789.4H5614.4L5285 7118.8Z"/>
<path transform="matrix(.1,0,0,-.1,0,792)" d="M5285 7118.8 5614.4 7448.3H5285" fill="#ffffff"/>
<path transform="matrix(.1,0,0,-.1,0,792)" stroke-width="1" stroke-linecap="butt" stroke-miterlimit="10" stroke-linejoin="miter" fill="none" stroke="#000000" d="M5285 7118.8 5614.4 7448.3H5285Z"/>
<path transform="matrix(.1,0,0,-.1,0,792)" d="M5285 7118.8 5614.4 6789.4 5943.8 7118.8 5614.4 7448.3Z" fill="#ffcc66"/>
<path transform="matrix(.1,0,0,-.1,0,792)" stroke-width="1" stroke-linecap="butt" stroke-miterlimit="10" stroke-linejoin="miter" fill="none" stroke="#000000" d="M5285 7118.8 5614.4 6789.4 5943.8 7118.8 5614.4 7448.3Z"/>
<path transform="matrix(.1,0,0,-.1,0,792)" d="M645.801 3430.6 386 3580.6 126.199 3430.6V3130.6L386 2980.6 645.801 3130.6" fill="#8099b2"/>
<path transform="matrix(.1,0,0,-.1,0,792)" stroke-width="1" stroke-linecap="butt" stroke-miterlimit="10" stroke-linejoin="miter" fill="none" stroke="#000000" d="M645.801 3430.6 386 3580.6 126.199 3430.6V3130.6L386 2980.6 645.801 3130.6Z"/>
<path transform="matrix(.1,0,0,-.1,0,792)" d="M645.801 3130.6 386 2980.6 645.801 2830.6" fill="#ffffff"/>
<path transform="matrix(.1,0,0,-.1,0,792)" stroke-width="1" stroke-linecap="butt" stroke-miterlimit="10" stroke-linejoin="miter" fill="none" stroke="#000000" d="M645.801 3130.6 386 2980.6 645.801 2830.6Z"/>
<path transform="matrix(.1,0,0,-.1,0,792)" d="M645.801 2830.6 386 2980.6 126.199 2830.6V2530.6L386 2380.6 645.801 2530.6" fill="#8099b2"/>
<path transform="matrix(.1,0,0,-.1,0,792)" stroke-width="1" stroke-linecap="butt" stroke-miterlimit="10" stroke-linejoin="miter" fill="none" stroke="#000000" d="M645.801 2830.6 386 2980.6 126.199 2830.6V2530.6L386 2380.6 645.801 2530.6Z"/>
<path transform="matrix(.1,0,0,-.1,0,792)" d="M785 971.699 5.60156 521.699 265.398 371.699V71.6992L525.199 221.699 785 71.6992" fill="#ffffff"/>
<path transform="matrix(.1,0,0,-.1,0,792)" stroke-width="1" stroke-linecap="butt" stroke-miterlimit="10" stroke-linejoin="miter" fill="none" stroke="#000000" d="M785 971.699 5.60156 521.699 265.398 371.699V71.6992L525.199 221.699 785 71.6992Z"/>
<path transform="matrix(.1,0,0,-.1,0,792)" d="M785 971.699H-773.801L5.60156 521.699" fill="#b23300"/>
<path transform="matrix(.1,0,0,-.1,0,792)" stroke-width="1" stroke-linecap="butt" stroke-miterlimit="10" stroke-linejoin="miter" fill="none" stroke="#000000" d="M785 971.699H-773.801L5.60156 521.699Z"/>
<path transform="matrix(.1,0,0,-.1,0,792)" d="M5285 7448.3 6064.4 7898.3 5804.6 8048.3V8348.3L5544.8 8198.3 5285 8348.3" fill="#ffffff"/>
<path transform="matrix(.1,0,0,-.1,0,792)" stroke-width="1" stroke-linecap="butt" stroke-miterlimit="10" stroke-linejoin="miter" fill="none" stroke="#000000" d="M5285 7448.3 6064.4 7898.3 5804.6 8048.3V8348.3L5544.8 8198.3 5285 8348.3Z"/>
<path transform="matrix(.1,0,0,-.1,0,792)" d="M5285 7448.3H6843.8L6064.4 7898.3" fill="#b23300"/>
<path transform="matrix(.1,0,0,-.1,0,792)" stroke-width="1" stroke-linecap="butt" stroke-miterlimit="10" stroke-linejoin="miter" fill="none" stroke="#000000" d="M5285 7448.3H6843.8L6064.4 7898.3Z"/>
<path transform="matrix(.1,0,0,-.1,0,792)" d="M576.199 6910 290.898 7074.7 411.398 6624.7" fill="#ffffff"/>
<path transform="matrix(.1,0,0,-.1,0,792)" stroke-width="1" stroke-linecap="butt" stroke-miterlimit="10" stroke-linejoin="miter" fill="none" stroke="#000000" d="M576.199 6910 290.898 7074.7 411.398 6624.7Z"/>
<path transform="matrix(.1,0,0,-.1,0,792)" d="M576.199 6910 126.199 7689.4H-773.801L5.60156 7239.4 290.898 7074.7" fill="#b23300"/>
<path transform="matrix(.1,0,0,-.1,0,792)" stroke-width="1" stroke-linecap="butt" stroke-miterlimit="10" stroke-linejoin="miter" fill="none" stroke="#000000" d="M576.199 6910 126.199 7689.4H-773.801L5.60156 7239.4 290.898 7074.7Z"/>
<path transform="matrix(.1,0,0,-.1,0,792)" d="M576.199 6910 1026.2 7689.4H726.199L576.199 7949.2 426.199 7689.4H126.199" fill="#ffffff"/>
<path transform="matrix(.1,0,0,-.1,0,792)" stroke-width="1" stroke-linecap="butt" stroke-miterlimit="10" stroke-linejoin="miter" fill="none" stroke="#000000" d="M576.199 6910 1026.2 7689.4H726.199L576.199 7949.2 426.199 7689.4H126.199Z"/>
<path transform="matrix(.1,0,0,-.1,0,792)" d="M576.199 5110 426.199 5369.8H126.199L-23.8008 5110 126.199 4850.2H426.199" fill="#8099b2"/>
<path transform="matrix(.1,0,0,-.1,0,792)" stroke-width="1" stroke-linecap="butt" stroke-miterlimit="10" stroke-linejoin="miter" fill="none" stroke="#000000" d="M576.199 5110 426.199 5369.8H126.199L-23.8008 5110 126.199 4850.2H426.199Z"/>
<path transform="matrix(.1,0,0,-.1,0,792)" d="M1235 851.199 785 71.6992H1685L1535 331.5 1685 591.301H1385" fill="#ffffff"/>
<path transform="matrix(.1,0,0,-.1,0,792)" stroke-width="1" stroke-linecap="butt" stroke-miterlimit="10" stroke-linejoin="miter" fill="none" stroke="#000000" d="M1235 851.199 785 71.6992H1685L1535 331.5 1685 591.301H1385Z"/>
<path transform="matrix(.1,0,0,-.1,0,792)" d="M1835 851.199 1685 591.301H1985" fill="#ffffff"/>
<path transform="matrix(.1,0,0,-.1,0,792)" stroke-width="1" stroke-linecap="butt" stroke-miterlimit="10" stroke-linejoin="miter" fill="none" stroke="#000000" d="M1835 851.199 1685 591.301H1985Z"/>
<path transform="matrix(.1,0,0,-.1,0,792)" d="M2435 851.199 2285 591.301H2585" fill="#ffffff"/>
<path transform="matrix(.1,0,0,-.1,0,792)" stroke-width="1" stroke-linecap="butt" stroke-miterlimit="10" stroke-linejoin="miter" fill="none" stroke="#000000" d="M2435 851.199 2285 591.301H2585Z"/>
<path transform="matrix(.1,0,0,-.1,0,792)" d="M3035 851.199 2885 591.301H2585L2735 331.5 2585 71.6992H3485" fill="#ffffff"/>
<path transform="matrix(.1,0,0,-.1,0,792)" stroke-width="1" stroke-linecap="butt" stroke-miterlimit="10" stroke-linejoin="miter" fill="none" stroke="#000000" d="M3035 851.199 2885 591.301H2585L2735 331.5 2585 71.6992H3485Z"/>
<path transform="matrix(.1,0,0,-.1,0,792)" d="M4835 7568.8 5285 8348.3H4385L4535 8088.5 4385 7828.7H4685" fill="#ffffff"/>
<path transform="matrix(.1,0,0,-.1,0,792)" stroke-width="1" stroke-linecap="butt" stroke-miterlimit="10" stroke-linejoin="miter" fill="none" stroke="#000000" d="M4835 7568.8 5285 8348.3H4385L4535 8088.5 4385 7828.7H4685Z"/>
<path transform="matrix(.1,0,0,-.1,0,792)" d="M4235 7568.8 4385 7828.7H4085" fill="#ffffff"/>
<path transform="matrix(.1,0,0,-.1,0,792)" stroke-width="1" stroke-linecap="butt" stroke-miterlimit="10" stroke-linejoin="miter" fill="none" stroke="#000000" d="M4235 7568.8 4385 7828.7H4085Z"/>
<path transform="matrix(.1,0,0,-.1,0,792)" d="M3635 7568.8 3785 7828.7H3485" fill="#ffffff"/>
<path transform="matrix(.1,0,0,-.1,0,792)" stroke-width="1" stroke-linecap="butt" stroke-miterlimit="10" stroke-linejoin="miter" fill="none" stroke="#000000" d="M3635 7568.8 3785 7828.7H3485Z"/>
<path transform="matrix(.1,0,0,-.1,0,792)" d="M3035 7568.8 3185 7828.7H3485L3335 8088.5 3485 8348.3H2585" fill="#ffffff"/>
<path transform="matrix(.1,0,0,-.1,0,792)" stroke-width="1" stroke-linecap="butt" stroke-miterlimit="10" stroke-linejoin="miter" fill="none" stroke="#000000" d="M3035 7568.8 3185 7828.7H3485L3335 8088.5 3485 8348.3H2585Z"/>
<path transform="matrix(.1,0,0,-.1,0,792)" d="M5424.2 4989.4 5684 4839.4 5943.8 4989.4V5289.4L5684 5439.4 5424.2 5289.4" fill="#8099b2"/>
<path transform="matrix(.1,0,0,-.1,0,792)" stroke-width="1" stroke-linecap="butt" stroke-miterlimit="10" stroke-linejoin="miter" fill="none" stroke="#000000" d="M5424.2 4989.4 5684 4839.4 5943.8 4989.4V5289.4L5684 5439.4 5424.2 5289.4Z"/>
<path transform="matrix(.1,0,0,-.1,0,792)" d="M5424.2 5289.4 5684 5439.4 5424.2 5589.4" fill="#ffffff"/>
<path transform="matrix(.1,0,0,-.1,0,792)" stroke-width="1" stroke-linecap="butt" stroke-miterlimit="10" stroke-linejoin="miter" fill="none" stroke="#000000" d="M5424.2 5289.4 5684 5439.4 5424.2 5589.4Z"/>
<path transform="matrix(.1,0,0,-.1,0,792)" d="M5424.2 5589.4 5684 5439.4 5943.8 5589.4V5889.4L5684 6039.4 5424.2 5889.4" fill="#8099b2"/>
<path transform="matrix(.1,0,0,-.1,0,792)" stroke-width="1" stroke-linecap="butt" stroke-miterlimit="10" stroke-linejoin="miter" fill="none" stroke="#000000" d="M5424.2 5589.4 5684 5439.4 5943.8 5589.4V5889.4L5684 6039.4 5424.2 5889.4Z"/>
<path transform="matrix(.1,0,0,-.1,0,792)" d="M5493.8 1510 5779.1 1345.3 5658.6 1795.3" fill="#ffffff"/>
<path transform="matrix(.1,0,0,-.1,0,792)" stroke-width="1" stroke-linecap="butt" stroke-miterlimit="10" stroke-linejoin="miter" fill="none" stroke="#000000" d="M5493.8 1510 5779.1 1345.3 5658.6 1795.3Z"/>
<path transform="matrix(.1,0,0,-.1,0,792)" d="M5493.8 1510 5943.8 730.602H6843.8L6064.4 1180.6 5779.1 1345.3" fill="#b23300"/>
<path transform="matrix(.1,0,0,-.1,0,792)" stroke-width="1" stroke-linecap="butt" stroke-miterlimit="10" stroke-linejoin="miter" fill="none" stroke="#000000" d="M5493.8 1510 5943.8 730.602H6843.8L6064.4 1180.6 5779.1 1345.3Z"/>
<path transform="matrix(.1,0,0,-.1,0,792)" d="M5493.8 1510 5043.8 730.602H5343.8L5493.8 470.801 5643.8 730.602H5943.8" fill="#ffffff"/>
<path transform="matrix(.1,0,0,-.1,0,792)" stroke-width="1" stroke-linecap="butt" stroke-miterlimit="10" stroke-linejoin="miter" fill="none" stroke="#000000" d="M5493.8 1510 5043.8 730.602H5343.8L5493.8 470.801 5643.8 730.602H5943.8Z"/>
<path transform="matrix(.1,0,0,-.1,0,792)" d="M5493.8 3310 5643.8 3050.2H5943.8L6093.8 3310 5943.8 3569.8H5643.8" fill="#8099b2"/>
<path transform="matrix(.1,0,0,-.1,0,792)" stroke-width="1" stroke-linecap="butt" stroke-miterlimit="10" stroke-linejoin="miter" fill="none" stroke="#000000" d="M5493.8 3310 5643.8 3050.2H5943.8L6093.8 3310 5943.8 3569.8H5643.8Z"/>
<path transform="matrix(.1,0,0,-.1,0,792)" d="M455.602 1630.6H126.199V1301.2" fill="#ffffff"/>
<path transform="matrix(.1,0,0,-.1,0,792)" stroke-width="1" stroke-linecap="butt" stroke-miterlimit="10" stroke-linejoin="miter" fill="none" stroke="#000000" d="M455.602 1630.6H126.199V1301.2Z"/>
<path transform="matrix(.1,0,0,-.1,0,792)" d="M455.602 971.699 126.199 1301.2V971.699" fill="#ffffff"/>
<path transform="matrix(.1,0,0,-.1,0,792)" stroke-width="1" stroke-linecap="butt" stroke-miterlimit="10" stroke-linejoin="miter" fill="none" stroke="#000000" d="M455.602 971.699 126.199 1301.2V971.699Z"/>
<path transform="matrix(.1,0,0,-.1,0,792)" d="M3485 730.602V401.199L3814.4 730.602" fill="#ffffff"/>
<path transform="matrix(.1,0,0,-.1,0,792)" stroke-width="1" stroke-linecap="butt" stroke-miterlimit="10" stroke-linejoin="miter" fill="none" stroke="#000000" d="M3485 730.602V401.199L3814.4 730.602Z"/>
<path transform="matrix(.1,0,0,-.1,0,792)" d="M3814.4 730.602 4143.8 401.199V730.602" fill="#ffffff"/>
<path transform="matrix(.1,0,0,-.1,0,792)" stroke-width="1" stroke-linecap="butt" stroke-miterlimit="10" stroke-linejoin="miter" fill="none" stroke="#000000" d="M3814.4 730.602 4143.8 401.199V730.602Z"/>
<path transform="matrix(.1,0,0,-.1,0,792)" d="M3814.4 730.602 3485 401.199 3814.4 71.6992 4143.8 401.199Z" fill="#ffcc66"/>
<path transform="matrix(.1,0,0,-.1,0,792)" stroke-width="1" stroke-linecap="butt" stroke-miterlimit="10" stroke-linejoin="miter" fill="none" stroke="#000000" d="M3814.4 730.602 3485 401.199 3814.4 71.6992 4143.8 401.199Z"/>
<path transform="matrix(.1,0,0,-.1,0,792)" d="M4143.8 730.602 4593.8-48.8008 4743.8 211H5043.8L4893.8 470.801 5043.8 730.602" fill="#ffffff"/>
<path transform="matrix(.1,0,0,-.1,0,792)" stroke-width="1" stroke-linecap="butt" stroke-miterlimit="10" stroke-linejoin="miter" fill="none" stroke="#000000" d="M4143.8 730.602 4593.8-48.8008 4743.8 211H5043.8L4893.8 470.801 5043.8 730.602Z"/>
<path transform="matrix(.1,0,0,-.1,0,792)" d="M4143.8 730.602V-828.301L4593.8-48.8008" fill="#b23300"/>
<path transform="matrix(.1,0,0,-.1,0,792)" stroke-width="1" stroke-linecap="butt" stroke-miterlimit="10" stroke-linejoin="miter" fill="none" stroke="#000000" d="M4143.8 730.602V-828.301L4593.8-48.8008Z"/>
<path transform="matrix(.1,0,0,-.1,0,792)" d="M5043.8 730.602 4893.8 470.801 5043.8 211H5343.8L5493.8 470.801 5343.8 730.602" fill="#8099b2"/>
<path transform="matrix(.1,0,0,-.1,0,792)" stroke-width="1" stroke-linecap="butt" stroke-miterlimit="10" stroke-linejoin="miter" fill="none" stroke="#000000" d="M5043.8 730.602 4893.8 470.801 5043.8 211H5343.8L5493.8 470.801 5343.8 730.602Z"/>
<path transform="matrix(.1,0,0,-.1,0,792)" d="M2585 7689.4V8018.8L2255.6 7689.4" fill="#ffffff"/>
<path transform="matrix(.1,0,0,-.1,0,792)" stroke-width="1" stroke-linecap="butt" stroke-miterlimit="10" stroke-linejoin="miter" fill="none" stroke="#000000" d="M2585 7689.4V8018.8L2255.6 7689.4Z"/>
<path transform="matrix(.1,0,0,-.1,0,792)" d="M2255.6 7689.4 1926.2 8018.8V7689.4" fill="#ffffff"/>
<path transform="matrix(.1,0,0,-.1,0,792)" stroke-width="1" stroke-linecap="butt" stroke-miterlimit="10" stroke-linejoin="miter" fill="none" stroke="#000000" d="M2255.6 7689.4 1926.2 8018.8V7689.4Z"/>
<path transform="matrix(.1,0,0,-.1,0,792)" d="M2255.6 7689.4 2585 8018.8 2255.6 8348.3 1926.2 8018.8Z" fill="#ffcc66"/>
<path transform="matrix(.1,0,0,-.1,0,792)" stroke-width="1" stroke-linecap="butt" stroke-miterlimit="10" stroke-linejoin="miter" fill="none" stroke="#000000" d="M2255.6 7689.4 2585 8018.8 2255.6 8348.3 1926.2 8018.8Z"/>
<path transform="matrix(.1,0,0,-.1,0,792)" d="M1926.2 7689.4 1476.2 8468.8 1326.2 8209H1026.2L1176.2 7949.2 1026.2 7689.4" fill="#ffffff"/>
<path transform="matrix(.1,0,0,-.1,0,792)" stroke-width="1" stroke-linecap="butt" stroke-miterlimit="10" stroke-linejoin="miter" fill="none" stroke="#000000" d="M1926.2 7689.4 1476.2 8468.8 1326.2 8209H1026.2L1176.2 7949.2 1026.2 7689.4Z"/>
<path transform="matrix(.1,0,0,-.1,0,792)" d="M1926.2 7689.4V9248.3L1476.2 8468.8" fill="#b23300"/>
<path transform="matrix(.1,0,0,-.1,0,792)" stroke-width="1" stroke-linecap="butt" stroke-miterlimit="10" stroke-linejoin="miter" fill="none" stroke="#000000" d="M1926.2 7689.4V9248.3L1476.2 8468.8Z"/>
<path transform="matrix(.1,0,0,-.1,0,792)" d="M1026.2 7689.4 1176.2 7949.2 1026.2 8209H726.199L576.199 7949.2 726.199 7689.4" fill="#8099b2"/>
<path transform="matrix(.1,0,0,-.1,0,792)" stroke-width="1" stroke-linecap="butt" stroke-miterlimit="10" stroke-linejoin="miter" fill="none" stroke="#000000" d="M1026.2 7689.4 1176.2 7949.2 1026.2 8209H726.199L576.199 7949.2 726.199 7689.4Z"/>
<path transform="matrix(.1,0,0,-.1,0,792)" d="M426.199 7689.4 576.199 7949.2 426.199 8209H126.199L-23.8008 7949.2 126.199 7689.4" fill="#8099b2"/>
<path transform="matrix(.1,0,0,-.1,0,792)" stroke-width="1" stroke-linecap="butt" stroke-miterlimit="10" stroke-linejoin="miter" fill="none" stroke="#000000" d="M426.199 7689.4 576.199 7949.2 426.199 8209H126.199L-23.8008 7949.2 126.199 7689.4Z"/>
<path transform="matrix(.1,0,0,-.1,0,792)" d="M411.398 6624.7-38.6016 6504.1 246.699 6339.4" fill="#ffffff"/>
<path transform="matrix(.1,0,0,-.1,0,792)" stroke-width="1" stroke-linecap="butt" stroke-miterlimit="10" stroke-linejoin="miter" fill="none" stroke="#000000" d="M411.398 6624.7-38.6016 6504.1 246.699 6339.4Z"/>
<path transform="matrix(.1,0,0,-.1,0,792)" d="M411.398 6624.7 290.898 7074.7-159.102 6954.1-38.6016 6504.1Z" fill="#ffcc66"/>
<path transform="matrix(.1,0,0,-.1,0,792)" stroke-width="1" stroke-linecap="butt" stroke-miterlimit="10" stroke-linejoin="miter" fill="none" stroke="#000000" d="M411.398 6624.7 290.898 7074.7-159.102 6954.1-38.6016 6504.1Z"/>
<path transform="matrix(.1,0,0,-.1,0,792)" d="M386 2980.6 126.199 3130.6V3430.6L-653.301 2980.6 126.199 2530.6V2830.6" fill="#ffffff"/>
<path transform="matrix(.1,0,0,-.1,0,792)" stroke-width="1" stroke-linecap="butt" stroke-miterlimit="10" stroke-linejoin="miter" fill="none" stroke="#000000" d="M386 2980.6 126.199 3130.6V3430.6L-653.301 2980.6 126.199 2530.6V2830.6Z"/>
<path transform="matrix(.1,0,0,-.1,0,792)" d="M1685 591.301 1535 331.5 1685 71.6992H1985L2135 331.5 1985 591.301" fill="#8099b2"/>
<path transform="matrix(.1,0,0,-.1,0,792)" stroke-width="1" stroke-linecap="butt" stroke-miterlimit="10" stroke-linejoin="miter" fill="none" stroke="#000000" d="M1685 591.301 1535 331.5 1685 71.6992H1985L2135 331.5 1985 591.301Z"/>
<path transform="matrix(.1,0,0,-.1,0,792)" d="M1985 591.301 2135 331.5 2285 591.301" fill="#ffffff"/>
<path transform="matrix(.1,0,0,-.1,0,792)" stroke-width="1" stroke-linecap="butt" stroke-miterlimit="10" stroke-linejoin="miter" fill="none" stroke="#000000" d="M1985 591.301 2135 331.5 2285 591.301Z"/>
<path transform="matrix(.1,0,0,-.1,0,792)" d="M2285 591.301 2135 331.5 2285 71.6992H2585L2735 331.5 2585 591.301" fill="#8099b2"/>
<path transform="matrix(.1,0,0,-.1,0,792)" stroke-width="1" stroke-linecap="butt" stroke-miterlimit="10" stroke-linejoin="miter" fill="none" stroke="#000000" d="M2285 591.301 2135 331.5 2285 71.6992H2585L2735 331.5 2585 591.301Z"/>
<path transform="matrix(.1,0,0,-.1,0,792)" d="M4385 7828.7 4535 8088.5 4385 8348.3H4085L3935 8088.5 4085 7828.7" fill="#8099b2"/>
<path transform="matrix(.1,0,0,-.1,0,792)" stroke-width="1" stroke-linecap="butt" stroke-miterlimit="10" stroke-linejoin="miter" fill="none" stroke="#000000" d="M4385 7828.7 4535 8088.5 4385 8348.3H4085L3935 8088.5 4085 7828.7Z"/>
<path transform="matrix(.1,0,0,-.1,0,792)" d="M4085 7828.7 3935 8088.5 3785 7828.7" fill="#ffffff"/>
<path transform="matrix(.1,0,0,-.1,0,792)" stroke-width="1" stroke-linecap="butt" stroke-miterlimit="10" stroke-linejoin="miter" fill="none" stroke="#000000" d="M4085 7828.7 3935 8088.5 3785 7828.7Z"/>
<path transform="matrix(.1,0,0,-.1,0,792)" d="M3785 7828.7 3935 8088.5 3785 8348.3H3485L3335 8088.5 3485 7828.7" fill="#8099b2"/>
<path transform="matrix(.1,0,0,-.1,0,792)" stroke-width="1" stroke-linecap="butt" stroke-miterlimit="10" stroke-linejoin="miter" fill="none" stroke="#000000" d="M3785 7828.7 3935 8088.5 3785 8348.3H3485L3335 8088.5 3485 7828.7Z"/>
<path transform="matrix(.1,0,0,-.1,0,792)" d="M5614.4 6789.4H5943.8V7118.8" fill="#ffffff"/>
<path transform="matrix(.1,0,0,-.1,0,792)" stroke-width="1" stroke-linecap="butt" stroke-miterlimit="10" stroke-linejoin="miter" fill="none" stroke="#000000" d="M5614.4 6789.4H5943.8V7118.8Z"/>
<path transform="matrix(.1,0,0,-.1,0,792)" d="M5614.4 7448.3 5943.8 7118.8V7448.3" fill="#ffffff"/>
<path transform="matrix(.1,0,0,-.1,0,792)" stroke-width="1" stroke-linecap="butt" stroke-miterlimit="10" stroke-linejoin="miter" fill="none" stroke="#000000" d="M5614.4 7448.3 5943.8 7118.8V7448.3Z"/>
<path transform="matrix(.1,0,0,-.1,0,792)" d="M5643.8 730.602 5493.8 470.801 5643.8 211H5943.8L6093.8 470.801 5943.8 730.602" fill="#8099b2"/>
<path transform="matrix(.1,0,0,-.1,0,792)" stroke-width="1" stroke-linecap="butt" stroke-miterlimit="10" stroke-linejoin="miter" fill="none" stroke="#000000" d="M5643.8 730.602 5493.8 470.801 5643.8 211H5943.8L6093.8 470.801 5943.8 730.602Z"/>
<path transform="matrix(.1,0,0,-.1,0,792)" d="M5658.6 1795.3 6108.6 1915.9 5823.3 2080.6" fill="#ffffff"/>
<path transform="matrix(.1,0,0,-.1,0,792)" stroke-width="1" stroke-linecap="butt" stroke-miterlimit="10" stroke-linejoin="miter" fill="none" stroke="#000000" d="M5658.6 1795.3 6108.6 1915.9 5823.3 2080.6Z"/>
<path transform="matrix(.1,0,0,-.1,0,792)" d="M5658.6 1795.3 5779.1 1345.3 6229.1 1465.9 6108.6 1915.9Z" fill="#ffcc66"/>
<path transform="matrix(.1,0,0,-.1,0,792)" stroke-width="1" stroke-linecap="butt" stroke-miterlimit="10" stroke-linejoin="miter" fill="none" stroke="#000000" d="M5658.6 1795.3 5779.1 1345.3 6229.1 1465.9 6108.6 1915.9Z"/>
<path transform="matrix(.1,0,0,-.1,0,792)" d="M290.898 7074.7 5.60156 7239.4-159.102 6954.1" fill="#ffffff"/>
<path transform="matrix(.1,0,0,-.1,0,792)" stroke-width="1" stroke-linecap="butt" stroke-miterlimit="10" stroke-linejoin="miter" fill="none" stroke="#000000" d="M290.898 7074.7 5.60156 7239.4-159.102 6954.1Z"/>
<path transform="matrix(.1,0,0,-.1,0,792)" d="M276.199 5629.6 126.199 5889.4H-173.801L-323.801 5629.6-173.801 5369.8H126.199" fill="#8099b2"/>
<path transform="matrix(.1,0,0,-.1,0,792)" stroke-width="1" stroke-linecap="butt" stroke-miterlimit="10" stroke-linejoin="miter" fill="none" stroke="#000000" d="M276.199 5629.6 126.199 5889.4H-173.801L-323.801 5629.6-173.801 5369.8H126.199Z"/>
<path transform="matrix(.1,0,0,-.1,0,792)" d="M276.199 4590.4 126.199 4850.2H-173.801L-323.801 4590.4-173.801 4330.6H126.199" fill="#8099b2"/>
<path transform="matrix(.1,0,0,-.1,0,792)" stroke-width="1" stroke-linecap="butt" stroke-miterlimit="10" stroke-linejoin="miter" fill="none" stroke="#000000" d="M276.199 4590.4 126.199 4850.2H-173.801L-323.801 4590.4-173.801 4330.6H126.199Z"/>
<path transform="matrix(.1,0,0,-.1,0,792)" d="M5684 5439.4 5943.8 5289.4V4989.4L6723.3 5439.4 5943.8 5889.4V5589.4" fill="#ffffff"/>
<path transform="matrix(.1,0,0,-.1,0,792)" stroke-width="1" stroke-linecap="butt" stroke-miterlimit="10" stroke-linejoin="miter" fill="none" stroke="#000000" d="M5684 5439.4 5943.8 5289.4V4989.4L6723.3 5439.4 5943.8 5889.4V5589.4Z"/>
<path transform="matrix(.1,0,0,-.1,0,792)" d="M5493.8 470.801 5343.8 211H5643.8" fill="#ffffff"/>
<path transform="matrix(.1,0,0,-.1,0,792)" stroke-width="1" stroke-linecap="butt" stroke-miterlimit="10" stroke-linejoin="miter" fill="none" stroke="#000000" d="M5493.8 470.801 5343.8 211H5643.8Z"/>
<path transform="matrix(.1,0,0,-.1,0,792)" d="M3485 401.199V71.6992H3814.4" fill="#ffffff"/>
<path transform="matrix(.1,0,0,-.1,0,792)" stroke-width="1" stroke-linecap="butt" stroke-miterlimit="10" stroke-linejoin="miter" fill="none" stroke="#000000" d="M3485 401.199V71.6992H3814.4Z"/>
<path transform="matrix(.1,0,0,-.1,0,792)" d="M4143.8 401.199 3814.4 71.6992H4143.8" fill="#ffffff"/>
<path transform="matrix(.1,0,0,-.1,0,792)" stroke-width="1" stroke-linecap="butt" stroke-miterlimit="10" stroke-linejoin="miter" fill="none" stroke="#000000" d="M4143.8 401.199 3814.4 71.6992H4143.8Z"/>
<path transform="matrix(.1,0,0,-.1,0,792)" d="M265.398 371.699 5.60156 521.699-254.199 371.699V71.6992L5.60156-78.3008 265.398 71.6992" fill="#8099b2"/>
<path transform="matrix(.1,0,0,-.1,0,792)" stroke-width="1" stroke-linecap="butt" stroke-miterlimit="10" stroke-linejoin="miter" fill="none" stroke="#000000" d="M265.398 371.699 5.60156 521.699-254.199 371.699V71.6992L5.60156-78.3008 265.398 71.6992Z"/>
<path transform="matrix(.1,0,0,-.1,0,792)" d="M5779.1 1345.3 6064.4 1180.6 6229.1 1465.9" fill="#ffffff"/>
<path transform="matrix(.1,0,0,-.1,0,792)" stroke-width="1" stroke-linecap="butt" stroke-miterlimit="10" stroke-linejoin="miter" fill="none" stroke="#000000" d="M5779.1 1345.3 6064.4 1180.6 6229.1 1465.9Z"/>
<path transform="matrix(.1,0,0,-.1,0,792)" d="M2135 331.5 1985 71.6992H1685L2135-707.699 2585 71.6992H2285" fill="#ffffff"/>
<path transform="matrix(.1,0,0,-.1,0,792)" stroke-width="1" stroke-linecap="butt" stroke-miterlimit="10" stroke-linejoin="miter" fill="none" stroke="#000000" d="M2135 331.5 1985 71.6992H1685L2135-707.699 2585 71.6992H2285Z"/>
<path transform="matrix(.1,0,0,-.1,0,792)" d="M5793.8 2790.4 5943.8 2530.6H6243.8L6393.8 2790.4 6243.8 3050.2H5943.8" fill="#8099b2"/>
<path transform="matrix(.1,0,0,-.1,0,792)" stroke-width="1" stroke-linecap="butt" stroke-miterlimit="10" stroke-linejoin="miter" fill="none" stroke="#000000" d="M5793.8 2790.4 5943.8 2530.6H6243.8L6393.8 2790.4 6243.8 3050.2H5943.8Z"/>
<path transform="matrix(.1,0,0,-.1,0,792)" d="M5793.8 3829.6 5943.8 3569.8H6243.8L6393.8 3829.6 6243.8 4089.4H5943.8" fill="#8099b2"/>
<path transform="matrix(.1,0,0,-.1,0,792)" stroke-width="1" stroke-linecap="butt" stroke-miterlimit="10" stroke-linejoin="miter" fill="none" stroke="#000000" d="M5793.8 3829.6 5943.8 3569.8H6243.8L6393.8 3829.6 6243.8 4089.4H5943.8Z"/>
<path transform="matrix(.1,0,0,-.1,0,792)" d="M5804.6 8048.3 6064.4 7898.3 6324.2 8048.3V8348.3L6064.4 8498.3 5804.6 8348.3" fill="#8099b2"/>
<path transform="matrix(.1,0,0,-.1,0,792)" stroke-width="1" stroke-linecap="butt" stroke-miterlimit="10" stroke-linejoin="miter" fill="none" stroke="#000000" d="M5804.6 8048.3 6064.4 7898.3 6324.2 8048.3V8348.3L6064.4 8498.3 5804.6 8348.3Z"/>
<path transform="matrix(.1,0,0,-.1,0,792)" d="M126.199 7689.4-23.8008 7949.2 126.199 8209H-173.801L-323.801 8468.8-773.801 7689.4" fill="#ffffff"/>
<path transform="matrix(.1,0,0,-.1,0,792)" stroke-width="1" stroke-linecap="butt" stroke-miterlimit="10" stroke-linejoin="miter" fill="none" stroke="#000000" d="M126.199 7689.4-23.8008 7949.2 126.199 8209H-173.801L-323.801 8468.8-773.801 7689.4Z"/>
<path transform="matrix(.1,0,0,-.1,0,792)" d="M126.199 5889.4-323.801 6668.8-773.801 5889.4H-473.801L-323.801 5629.6-173.801 5889.4" fill="#ffffff"/>
<path transform="matrix(.1,0,0,-.1,0,792)" stroke-width="1" stroke-linecap="butt" stroke-miterlimit="10" stroke-linejoin="miter" fill="none" stroke="#000000" d="M126.199 5889.4-323.801 6668.8-773.801 5889.4H-473.801L-323.801 5629.6-173.801 5889.4Z"/>
<path transform="matrix(.1,0,0,-.1,0,792)" d="M126.199 5369.8H-173.801L-23.8008 5110" fill="#ffffff"/>
<path transform="matrix(.1,0,0,-.1,0,792)" stroke-width="1" stroke-linecap="butt" stroke-miterlimit="10" stroke-linejoin="miter" fill="none" stroke="#000000" d="M126.199 5369.8H-173.801L-23.8008 5110Z"/>
<path transform="matrix(.1,0,0,-.1,0,792)" d="M126.199 4850.2-23.8008 5110-173.801 4850.2" fill="#ffffff"/>
<path transform="matrix(.1,0,0,-.1,0,792)" stroke-width="1" stroke-linecap="butt" stroke-miterlimit="10" stroke-linejoin="miter" fill="none" stroke="#000000" d="M126.199 4850.2-23.8008 5110-173.801 4850.2Z"/>
<path transform="matrix(.1,0,0,-.1,0,792)" d="M126.199 4330.6-323.801 3551.2-488.602 3265.9-653.301 2980.6 126.199 3430.6" fill="#b23300"/>
<path transform="matrix(.1,0,0,-.1,0,792)" stroke-width="1" stroke-linecap="butt" stroke-miterlimit="10" stroke-linejoin="miter" fill="none" stroke="#000000" d="M126.199 4330.6-323.801 3551.2-488.602 3265.9-653.301 2980.6 126.199 3430.6Z"/>
<path transform="matrix(.1,0,0,-.1,0,792)" d="M126.199 4330.6H-173.801L-323.801 4590.4-473.801 4330.6H-773.801L-323.801 3551.2" fill="#ffffff"/>
<path transform="matrix(.1,0,0,-.1,0,792)" stroke-width="1" stroke-linecap="butt" stroke-miterlimit="10" stroke-linejoin="miter" fill="none" stroke="#000000" d="M126.199 4330.6H-173.801L-323.801 4590.4-473.801 4330.6H-773.801L-323.801 3551.2Z"/>
<path transform="matrix(.1,0,0,-.1,0,792)" d="M126.199 2530.6-323.801 1751.2 126.199 971.699V1630.6Z" fill="#b23300"/>
<path transform="matrix(.1,0,0,-.1,0,792)" stroke-width="1" stroke-linecap="butt" stroke-miterlimit="10" stroke-linejoin="miter" fill="none" stroke="#000000" d="M126.199 2530.6-323.801 1751.2 126.199 971.699V1630.6Z"/>
<path transform="matrix(.1,0,0,-.1,0,792)" d="M126.199 2530.6H-773.801L-623.801 2270.8-773.801 2011H-473.801L-323.801 1751.2" fill="#ffffff"/>
<path transform="matrix(.1,0,0,-.1,0,792)" stroke-width="1" stroke-linecap="butt" stroke-miterlimit="10" stroke-linejoin="miter" fill="none" stroke="#000000" d="M126.199 2530.6H-773.801L-623.801 2270.8-773.801 2011H-473.801L-323.801 1751.2Z"/>
<path transform="matrix(.1,0,0,-.1,0,792)" d="M126.199 2530.6-653.301 2980.6-938.602 3145.3-1223.8 3310-773.801 2530.6" fill="#b23300"/>
<path transform="matrix(.1,0,0,-.1,0,792)" stroke-width="1" stroke-linecap="butt" stroke-miterlimit="10" stroke-linejoin="miter" fill="none" stroke="#000000" d="M126.199 2530.6-653.301 2980.6-938.602 3145.3-1223.8 3310-773.801 2530.6Z"/>
<path transform="matrix(.1,0,0,-.1,0,792)" d="M126.199 971.699-323.801 1751.2-473.801 1491.3H-773.801L-623.801 1231.5-773.801 971.699" fill="#ffffff"/>
<path transform="matrix(.1,0,0,-.1,0,792)" stroke-width="1" stroke-linecap="butt" stroke-miterlimit="10" stroke-linejoin="miter" fill="none" stroke="#000000" d="M126.199 971.699-323.801 1751.2-473.801 1491.3H-773.801L-623.801 1231.5-773.801 971.699Z"/>
<path transform="matrix(.1,0,0,-.1,0,792)" d="M525.199 221.699 265.398 71.6992V-228.301L525.199-378.301 785-228.301V71.6992" fill="#8099b2"/>
<path transform="matrix(.1,0,0,-.1,0,792)" stroke-width="1" stroke-linecap="butt" stroke-miterlimit="10" stroke-linejoin="miter" fill="none" stroke="#000000" d="M525.199 221.699 265.398 71.6992V-228.301L525.199-378.301 785-228.301V71.6992Z"/>
<path transform="matrix(.1,0,0,-.1,0,792)" d="M4743.8 211 4593.8-48.8008 4743.8-308.699H5043.8L5193.8-48.8008 5043.8 211" fill="#8099b2"/>
<path transform="matrix(.1,0,0,-.1,0,792)" stroke-width="1" stroke-linecap="butt" stroke-miterlimit="10" stroke-linejoin="miter" fill="none" stroke="#000000" d="M4743.8 211 4593.8-48.8008 4743.8-308.699H5043.8L5193.8-48.8008 5043.8 211Z"/>
<path transform="matrix(.1,0,0,-.1,0,792)" d="M5043.8 211 5193.8-48.8008 5343.8 211" fill="#ffffff"/>
<path transform="matrix(.1,0,0,-.1,0,792)" stroke-width="1" stroke-linecap="butt" stroke-miterlimit="10" stroke-linejoin="miter" fill="none" stroke="#000000" d="M5043.8 211 5193.8-48.8008 5343.8 211Z"/>
<path transform="matrix(.1,0,0,-.1,0,792)" d="M5343.8 211 5193.8-48.8008 5343.8-308.699H5643.8L5793.8-48.8008 5643.8 211" fill="#ffcc66"/>
<path transform="matrix(.1,0,0,-.1,0,792)" stroke-width="1" stroke-linecap="butt" stroke-miterlimit="10" stroke-linejoin="miter" fill="none" stroke="#000000" d="M5343.8 211 5193.8-48.8008 5343.8-308.699H5643.8L5793.8-48.8008 5643.8 211Z"/>
<path transform="matrix(.1,0,0,-.1,0,792)" d="M5643.8 211 5793.8-48.8008 5943.8 211" fill="#ffffff"/>
<path transform="matrix(.1,0,0,-.1,0,792)" stroke-width="1" stroke-linecap="butt" stroke-miterlimit="10" stroke-linejoin="miter" fill="none" stroke="#000000" d="M5643.8 211 5793.8-48.8008 5943.8 211Z"/>
<path transform="matrix(.1,0,0,-.1,0,792)" d="M5943.8 211H6243.8L6393.8-48.8008 6843.8 730.602H5943.8L6093.8 470.801" fill="#ffffff"/>
<path transform="matrix(.1,0,0,-.1,0,792)" stroke-width="1" stroke-linecap="butt" stroke-miterlimit="10" stroke-linejoin="miter" fill="none" stroke="#000000" d="M5943.8 211H6243.8L6393.8-48.8008 6843.8 730.602H5943.8L6093.8 470.801Z"/>
<path transform="matrix(.1,0,0,-.1,0,792)" d="M5943.8 211 5793.8-48.8008 5943.8-308.699H6243.8L6393.8-48.8008 6243.8 211" fill="#8099b2"/>
<path transform="matrix(.1,0,0,-.1,0,792)" stroke-width="1" stroke-linecap="butt" stroke-miterlimit="10" stroke-linejoin="miter" fill="none" stroke="#000000" d="M5943.8 211 5793.8-48.8008 5943.8-308.699H6243.8L6393.8-48.8008 6243.8 211Z"/>
<path transform="matrix(.1,0,0,-.1,0,792)" d="M5943.8 2530.6 6393.8 1751.2 6843.8 2530.6H6543.8L6393.8 2790.4 6243.8 2530.6" fill="#ffffff"/>
<path transform="matrix(.1,0,0,-.1,0,792)" stroke-width="1" stroke-linecap="butt" stroke-miterlimit="10" stroke-linejoin="miter" fill="none" stroke="#000000" d="M5943.8 2530.6 6393.8 1751.2 6843.8 2530.6H6543.8L6393.8 2790.4 6243.8 2530.6Z"/>
<path transform="matrix(.1,0,0,-.1,0,792)" d="M5943.8 3050.2H6243.8L6093.8 3310" fill="#ffffff"/>
<path transform="matrix(.1,0,0,-.1,0,792)" stroke-width="1" stroke-linecap="butt" stroke-miterlimit="10" stroke-linejoin="miter" fill="none" stroke="#000000" d="M5943.8 3050.2H6243.8L6093.8 3310Z"/>
<path transform="matrix(.1,0,0,-.1,0,792)" d="M5943.8 3569.8 6093.8 3310 6243.8 3569.8" fill="#ffffff"/>
<path transform="matrix(.1,0,0,-.1,0,792)" stroke-width="1" stroke-linecap="butt" stroke-miterlimit="10" stroke-linejoin="miter" fill="none" stroke="#000000" d="M5943.8 3569.8 6093.8 3310 6243.8 3569.8Z"/>
<path transform="matrix(.1,0,0,-.1,0,792)" d="M5943.8 4089.4 6393.8 4868.8 6558.6 5154.1 6723.3 5439.4 5943.8 4989.4" fill="#b23300"/>
<path transform="matrix(.1,0,0,-.1,0,792)" stroke-width="1" stroke-linecap="butt" stroke-miterlimit="10" stroke-linejoin="miter" fill="none" stroke="#000000" d="M5943.8 4089.4 6393.8 4868.8 6558.6 5154.1 6723.3 5439.4 5943.8 4989.4Z"/>
<path transform="matrix(.1,0,0,-.1,0,792)" d="M5943.8 4089.4H6243.8L6393.8 3829.6 6543.8 4089.4H6843.8L6393.8 4868.8" fill="#ffffff"/>
<path transform="matrix(.1,0,0,-.1,0,792)" stroke-width="1" stroke-linecap="butt" stroke-miterlimit="10" stroke-linejoin="miter" fill="none" stroke="#000000" d="M5943.8 4089.4H6243.8L6393.8 3829.6 6543.8 4089.4H6843.8L6393.8 4868.8Z"/>
<path transform="matrix(.1,0,0,-.1,0,792)" d="M5943.8 5889.4 6393.8 6668.8 5943.8 7448.3V6789.4Z" fill="#b23300"/>
<path transform="matrix(.1,0,0,-.1,0,792)" stroke-width="1" stroke-linecap="butt" stroke-miterlimit="10" stroke-linejoin="miter" fill="none" stroke="#000000" d="M5943.8 5889.4 6393.8 6668.8 5943.8 7448.3V6789.4Z"/>
<path transform="matrix(.1,0,0,-.1,0,792)" d="M5943.8 5889.4H6843.8L6693.8 6149.2 6843.8 6409H6543.8L6393.8 6668.8" fill="#ffffff"/>
<path transform="matrix(.1,0,0,-.1,0,792)" stroke-width="1" stroke-linecap="butt" stroke-miterlimit="10" stroke-linejoin="miter" fill="none" stroke="#000000" d="M5943.8 5889.4H6843.8L6693.8 6149.2 6843.8 6409H6543.8L6393.8 6668.8Z"/>
<path transform="matrix(.1,0,0,-.1,0,792)" d="M5943.8 5889.4 6723.3 5439.4 7008.6 5274.7 7293.8 5110 6843.8 5889.4" fill="#b23300"/>
<path transform="matrix(.1,0,0,-.1,0,792)" stroke-width="1" stroke-linecap="butt" stroke-miterlimit="10" stroke-linejoin="miter" fill="none" stroke="#000000" d="M5943.8 5889.4 6723.3 5439.4 7008.6 5274.7 7293.8 5110 6843.8 5889.4Z"/>
<path transform="matrix(.1,0,0,-.1,0,792)" d="M5943.8 7448.3 6393.8 6668.8 6543.8 6928.7H6843.8L6693.8 7188.5 6843.8 7448.3" fill="#ffffff"/>
<path transform="matrix(.1,0,0,-.1,0,792)" stroke-width="1" stroke-linecap="butt" stroke-miterlimit="10" stroke-linejoin="miter" fill="none" stroke="#000000" d="M5943.8 7448.3 6393.8 6668.8 6543.8 6928.7H6843.8L6693.8 7188.5 6843.8 7448.3Z"/>
<path transform="matrix(.1,0,0,-.1,0,792)" d="M5.60156 7239.4-773.801 6789.4V5889.4L-323.801 6668.8-159.102 6954.1" fill="#b23300"/>
<path transform="matrix(.1,0,0,-.1,0,792)" stroke-width="1" stroke-linecap="butt" stroke-miterlimit="10" stroke-linejoin="miter" fill="none" stroke="#000000" d="M5.60156 7239.4-773.801 6789.4V5889.4L-323.801 6668.8-159.102 6954.1Z"/>
<path transform="matrix(.1,0,0,-.1,0,792)" d="M5.60156 7239.4-773.801 7689.4V7389.4L-1033.7 7239.4-773.801 7089.4V6789.4" fill="#ffffff"/>
<path transform="matrix(.1,0,0,-.1,0,792)" stroke-width="1" stroke-linecap="butt" stroke-miterlimit="10" stroke-linejoin="miter" fill="none" stroke="#000000" d="M5.60156 7239.4-773.801 7689.4V7389.4L-1033.7 7239.4-773.801 7089.4V6789.4Z"/>
<path transform="matrix(.1,0,0,-.1,0,792)" d="M5.60156 521.699-773.801 971.699V71.6992L-514 221.699-254.199 71.6992V371.699" fill="#ffffff"/>
<path transform="matrix(.1,0,0,-.1,0,792)" stroke-width="1" stroke-linecap="butt" stroke-miterlimit="10" stroke-linejoin="miter" fill="none" stroke="#000000" d="M5.60156 521.699-773.801 971.699V71.6992L-514 221.699-254.199 71.6992V371.699Z"/>
<path transform="matrix(.1,0,0,-.1,0,792)" d="M265.398 71.6992 5.60156-78.3008 265.398-228.301" fill="#ffffff"/>
<path transform="matrix(.1,0,0,-.1,0,792)" stroke-width="1" stroke-linecap="butt" stroke-miterlimit="10" stroke-linejoin="miter" fill="none" stroke="#000000" d="M265.398 71.6992 5.60156-78.3008 265.398-228.301Z"/>
<path transform="matrix(.1,0,0,-.1,0,792)" d="M785 71.6992 1564.4-378.301 1849.7-543 2135-707.699 1685 71.6992" fill="#b23300"/>
<path transform="matrix(.1,0,0,-.1,0,792)" stroke-width="1" stroke-linecap="butt" stroke-miterlimit="10" stroke-linejoin="miter" fill="none" stroke="#000000" d="M785 71.6992 1564.4-378.301 1849.7-543 2135-707.699 1685 71.6992Z"/>
<path transform="matrix(.1,0,0,-.1,0,792)" d="M785 71.6992V-228.301L525.199-378.301 785-528.301V-828.301L1564.4-378.301" fill="#ffffff"/>
<path transform="matrix(.1,0,0,-.1,0,792)" stroke-width="1" stroke-linecap="butt" stroke-miterlimit="10" stroke-linejoin="miter" fill="none" stroke="#000000" d="M785 71.6992V-228.301L525.199-378.301 785-528.301V-828.301L1564.4-378.301Z"/>
<path transform="matrix(.1,0,0,-.1,0,792)" d="M2585 71.6992 3364.4-378.301 4143.8 71.6992H3485Z" fill="#b23300"/>
<path transform="matrix(.1,0,0,-.1,0,792)" stroke-width="1" stroke-linecap="butt" stroke-miterlimit="10" stroke-linejoin="miter" fill="none" stroke="#000000" d="M2585 71.6992 3364.4-378.301 4143.8 71.6992H3485Z"/>
<path transform="matrix(.1,0,0,-.1,0,792)" d="M2585 71.6992V-828.301L2844.8-678.301 3104.6-828.301V-528.301L3364.4-378.301" fill="#ffffff"/>
<path transform="matrix(.1,0,0,-.1,0,792)" stroke-width="1" stroke-linecap="butt" stroke-miterlimit="10" stroke-linejoin="miter" fill="none" stroke="#000000" d="M2585 71.6992V-828.301L2844.8-678.301 3104.6-828.301V-528.301L3364.4-378.301Z"/>
<path transform="matrix(.1,0,0,-.1,0,792)" d="M2585 71.6992 2135-707.699 1970.3-993 1805.6-1278.3 2585-828.301" fill="#b23300"/>
<path transform="matrix(.1,0,0,-.1,0,792)" stroke-width="1" stroke-linecap="butt" stroke-miterlimit="10" stroke-linejoin="miter" fill="none" stroke="#000000" d="M2585 71.6992 2135-707.699 1970.3-993 1805.6-1278.3 2585-828.301Z"/>
<path transform="matrix(.1,0,0,-.1,0,792)" d="M4143.8 71.6992 3364.4-378.301 3624.2-528.301V-828.301L3884-678.301 4143.8-828.301" fill="#ffffff"/>
<path transform="matrix(.1,0,0,-.1,0,792)" stroke-width="1" stroke-linecap="butt" stroke-miterlimit="10" stroke-linejoin="miter" fill="none" stroke="#000000" d="M4143.8 71.6992 3364.4-378.301 3624.2-528.301V-828.301L3884-678.301 4143.8-828.301Z"/>
<path transform="matrix(.1,0,0,-.1,0,792)" d="M6064.4 1180.6 6843.8 1630.6V2530.6L6393.8 1751.2 6229.1 1465.9" fill="#b23300"/>
<path transform="matrix(.1,0,0,-.1,0,792)" stroke-width="1" stroke-linecap="butt" stroke-miterlimit="10" stroke-linejoin="miter" fill="none" stroke="#000000" d="M6064.4 1180.6 6843.8 1630.6V2530.6L6393.8 1751.2 6229.1 1465.9Z"/>
<path transform="matrix(.1,0,0,-.1,0,792)" d="M6064.4 1180.6 6843.8 730.602V1030.6L7103.7 1180.6 6843.8 1330.6V1630.6" fill="#ffffff"/>
<path transform="matrix(.1,0,0,-.1,0,792)" stroke-width="1" stroke-linecap="butt" stroke-miterlimit="10" stroke-linejoin="miter" fill="none" stroke="#000000" d="M6064.4 1180.6 6843.8 730.602V1030.6L7103.7 1180.6 6843.8 1330.6V1630.6Z"/>
<path transform="matrix(.1,0,0,-.1,0,792)" d="M6064.4 7898.3 6843.8 7448.3V8348.3L6584 8198.3 6324.2 8348.3V8048.3" fill="#ffffff"/>
<path transform="matrix(.1,0,0,-.1,0,792)" stroke-width="1" stroke-linecap="butt" stroke-miterlimit="10" stroke-linejoin="miter" fill="none" stroke="#000000" d="M6064.4 7898.3 6843.8 7448.3V8348.3L6584 8198.3 6324.2 8348.3V8048.3Z"/>
<path transform="matrix(.1,0,0,-.1,0,792)" d="M5.60156-78.3008-254.199 71.6992V-228.301" fill="#ffffff"/>
<path transform="matrix(.1,0,0,-.1,0,792)" stroke-width="1" stroke-linecap="butt" stroke-miterlimit="10" stroke-linejoin="miter" fill="none" stroke="#000000" d="M5.60156-78.3008-254.199 71.6992V-228.301Z"/>
<path transform="matrix(.1,0,0,-.1,0,792)" d="M6093.8 3310 6243.8 3050.2H6543.8L6693.8 3310 6543.8 3569.8H6243.8" fill="#ffcc66"/>
<path transform="matrix(.1,0,0,-.1,0,792)" stroke-width="1" stroke-linecap="butt" stroke-miterlimit="10" stroke-linejoin="miter" fill="none" stroke="#000000" d="M6093.8 3310 6243.8 3050.2H6543.8L6693.8 3310 6543.8 3569.8H6243.8Z"/>
<path transform="matrix(.1,0,0,-.1,0,792)" d="M6108.6 1915.9 6229.1 1465.9 6393.8 1751.2" fill="#ffffff"/>
<path transform="matrix(.1,0,0,-.1,0,792)" stroke-width="1" stroke-linecap="butt" stroke-miterlimit="10" stroke-linejoin="miter" fill="none" stroke="#000000" d="M6108.6 1915.9 6229.1 1465.9 6393.8 1751.2Z"/>
</svg>
