<svg xmlns="http://www.w3.org/2000/svg" xmlns:xlink="http://www.w3.org/1999/xlink" xmlns:inkscape="http://www.inkscape.org/namespaces/inkscape" version="1.1" width="612" height="792" viewBox="0 0 612 792">
<path transform="matrix(.1,0,0,-.1,0,792)" d="M3158.5 3767V3717.5 4007.2H3398.7L3433.7 3972.2 3398.7 4007.2 3228.9 4177 3398.7 4346.9H3448.2 3398.7 3158.5V4587.1L3193.5 4622.1 3158.5 4587.1 2988.7 4417.2 2818.8 4587.1V4636.6 4587.1 4346.9H2578.6L2543.6 4381.9 2578.6 4346.9 2748.4 4177 2578.6 4007.2H2529.1 2578.6 2818.8V3767L2783.8 3732 2818.8 3767 2988.7 3936.8" fill="#663d00"/>
<path transform="matrix(.1,0,0,-.1,0,792)" stroke-width="7" stroke-linecap="butt" stroke-miterlimit="10" stroke-linejoin="miter" fill="none" stroke="#000000" d="M3158.5 3767V3717.5 4007.2H3398.7L3433.7 3972.2 3398.7 4007.2 3228.9 4177 3398.7 4346.9H3448.2 3398.7 3158.5V4587.1L3193.5 4622.1 3158.5 4587.1 2988.7 4417.2 2818.8 4587.1V4636.6 4587.1 4346.9H2578.6L2543.6 4381.9 2578.6 4346.9 2748.4 4177 2578.6 4007.2H2529.1 2578.6 2818.8V3767L2783.8 3732 2818.8 3767 2988.7 3936.8Z"/>
<path transform="matrix(.1,0,0,-.1,0,792)" d="M2988.7 4516.2 3158.5 4686.1 3193.5 4721.1 3158.5 4686.1V5336 5371 5336H3059L2988.7 5406.4 2918.3 5336H2818.8 2783.8 2818.8V4686.1 4636.6 4686.1" fill="#78ffe6"/>
<path transform="matrix(.1,0,0,-.1,0,792)" stroke-width="7" stroke-linecap="butt" stroke-miterlimit="10" stroke-linejoin="miter" fill="none" stroke="#000000" d="M2988.7 4516.2 3158.5 4686.1 3193.5 4721.1 3158.5 4686.1V5336 5371 5336H3059L2988.7 5406.4 2918.3 5336H2818.8 2783.8 2818.8V4686.1 4636.6 4686.1Z"/>
<path transform="matrix(.1,0,0,-.1,0,792)" d="M2748.8 4416.9V4706.6 4657.1L2289.2 5116.6 2264.5 5141.4 2289.2 5116.6 2218.9 5046.3H2119.4V4946.8L2049 4876.4 2024.3 4851.7 2049 4876.4 2508.6 4416.9 2543.6 4381.9 2508.6 4416.9" fill="#78ffe6"/>
<path transform="matrix(.1,0,0,-.1,0,792)" stroke-width="7" stroke-linecap="butt" stroke-miterlimit="10" stroke-linejoin="miter" fill="none" stroke="#000000" d="M2748.8 4416.9V4706.6 4657.1L2289.2 5116.6 2264.5 5141.4 2289.2 5116.6 2218.9 5046.3H2119.4V4946.8L2049 4876.4 2024.3 4851.7 2049 4876.4 2508.6 4416.9 2543.6 4381.9 2508.6 4416.9Z"/>
<path transform="matrix(.1,0,0,-.1,0,792)" d="M2748.8 3937.2H2459.1 2508.6L2049 3477.6 2024.3 3452.9 2049 3477.6 2119.4 3407.3V3307.8H2218.9L2289.2 3237.4 2314 3212.7 2289.2 3237.4 2748.8 3697 2783.8 3732 2748.8 3697" fill="#78ffe6"/>
<path transform="matrix(.1,0,0,-.1,0,792)" stroke-width="7" stroke-linecap="butt" stroke-miterlimit="10" stroke-linejoin="miter" fill="none" stroke="#000000" d="M2748.8 3937.2H2459.1 2508.6L2049 3477.6 2024.3 3452.9 2049 3477.6 2119.4 3407.3V3307.8H2218.9L2289.2 3237.4 2314 3212.7 2289.2 3237.4 2748.8 3697 2783.8 3732 2748.8 3697Z"/>
<path transform="matrix(.1,0,0,-.1,0,792)" d="M3228.5 3937.2V3647.5 3697L3688.1 3237.4 3712.8 3212.7 3688.1 3237.4 3758.4 3307.8H3857.9V3407.3L3928.3 3477.6 3953 3502.4 3928.3 3477.6 3468.7 3937.2 3433.7 3972.2 3468.7 3937.2" fill="#78ffe6"/>
<path transform="matrix(.1,0,0,-.1,0,792)" stroke-width="7" stroke-linecap="butt" stroke-miterlimit="10" stroke-linejoin="miter" fill="none" stroke="#000000" d="M3228.5 3937.2V3647.5 3697L3688.1 3237.4 3712.8 3212.7 3688.1 3237.4 3758.4 3307.8H3857.9V3407.3L3928.3 3477.6 3953 3502.4 3928.3 3477.6 3468.7 3937.2 3433.7 3972.2 3468.7 3937.2Z"/>
<path transform="matrix(.1,0,0,-.1,0,792)" d="M3228.5 4416.9H3518.2 3468.7L3928.3 4876.4 3953 4901.2 3928.3 4876.4 3857.9 4946.8V5046.3H3758.4L3688.1 5116.6 3663.3 5141.4 3688.1 5116.6 3228.5 4657.1 3193.5 4622.1 3228.5 4657.1" fill="#78ffe6"/>
<path transform="matrix(.1,0,0,-.1,0,792)" stroke-width="7" stroke-linecap="butt" stroke-miterlimit="10" stroke-linejoin="miter" fill="none" stroke="#000000" d="M3228.5 4416.9H3518.2 3468.7L3928.3 4876.4 3953 4901.2 3928.3 4876.4 3857.9 4946.8V5046.3H3758.4L3688.1 5116.6 3663.3 5141.4 3688.1 5116.6 3228.5 4657.1 3193.5 4622.1 3228.5 4657.1Z"/>
<path transform="matrix(.1,0,0,-.1,0,792)" d="M2988.7 3837.8 2818.8 3668 2783.8 3633 2818.8 3668V3018.1 2983.1 3018.1H2918.3L2988.7 2947.7 3059 3018.1H3158.5 3193.5 3158.5V3668 3717.5 3668" fill="#78ffe6"/>
<path transform="matrix(.1,0,0,-.1,0,792)" stroke-width="7" stroke-linecap="butt" stroke-miterlimit="10" stroke-linejoin="miter" fill="none" stroke="#000000" d="M2988.7 3837.8 2818.8 3668 2783.8 3633 2818.8 3668V3018.1 2983.1 3018.1H2918.3L2988.7 2947.7 3059 3018.1H3158.5 3193.5 3158.5V3668 3717.5 3668Z"/>
<path transform="matrix(.1,0,0,-.1,0,792)" d="M2649.5 4177 2479.6 4346.9 2444.6 4381.9 2479.6 4346.9H1829.7 1794.7 1829.7V4247.4L1759.3 4177 1829.7 4106.7V4007.2 3972.2 4007.2H2479.6 2529.1 2479.6" fill="#78ffe6"/>
<path transform="matrix(.1,0,0,-.1,0,792)" stroke-width="7" stroke-linecap="butt" stroke-miterlimit="10" stroke-linejoin="miter" fill="none" stroke="#000000" d="M2649.5 4177 2479.6 4346.9 2444.6 4381.9 2479.6 4346.9H1829.7 1794.7 1829.7V4247.4L1759.3 4177 1829.7 4106.7V4007.2 3972.2 4007.2H2479.6 2529.1 2479.6Z"/>
<path transform="matrix(.1,0,0,-.1,0,792)" d="M3327.9 4177 3497.7 4007.2 3532.7 3972.2 3497.7 4007.2H4147.6 4182.6 4147.6V4106.7L4218 4177 4147.6 4247.4V4346.9 4381.9 4346.9H3497.7 3448.2 3497.7" fill="#78ffe6"/>
<path transform="matrix(.1,0,0,-.1,0,792)" stroke-width="7" stroke-linecap="butt" stroke-miterlimit="10" stroke-linejoin="miter" fill="none" stroke="#000000" d="M3327.9 4177 3497.7 4007.2 3532.7 3972.2 3497.7 4007.2H4147.6 4182.6 4147.6V4106.7L4218 4177 4147.6 4247.4V4346.9 4381.9 4346.9H3497.7 3448.2 3497.7Z"/>
<path transform="matrix(.1,0,0,-.1,0,792)" d="M3228.5 4756.1 3193.5 4721.1 3228.5 4756.1 3638.6 5166.1 3663.3 5141.4 3638.6 5166.1 3468.7 5336H3228.5V5371 5336" fill="#fff0f0"/>
<path transform="matrix(.1,0,0,-.1,0,792)" stroke-width="7" stroke-linecap="butt" stroke-miterlimit="10" stroke-linejoin="miter" fill="none" stroke="#000000" d="M3228.5 4756.1 3193.5 4721.1 3228.5 4756.1 3638.6 5166.1 3663.3 5141.4 3638.6 5166.1 3468.7 5336H3228.5V5371 5336Z"/>
<path transform="matrix(.1,0,0,-.1,0,792)" d="M2748.8 4756.1V4706.6 5336H2783.8 2748.8 2508.6L2338.7 5166.1 2314 5190.9 2338.7 5166.1" fill="#fff0f0"/>
<path transform="matrix(.1,0,0,-.1,0,792)" stroke-width="7" stroke-linecap="butt" stroke-miterlimit="10" stroke-linejoin="miter" fill="none" stroke="#000000" d="M2748.8 4756.1V4706.6 5336H2783.8 2748.8 2508.6L2338.7 5166.1 2314 5190.9 2338.7 5166.1Z"/>
<path transform="matrix(.1,0,0,-.1,0,792)" d="M2748.8 3598 2783.8 3633 2748.8 3598 2338.7 3187.9 2314 3212.7 2338.7 3187.9 2508.6 3018.1H2748.8V2983.1 3018.1" fill="#fff0f0"/>
<path transform="matrix(.1,0,0,-.1,0,792)" stroke-width="7" stroke-linecap="butt" stroke-miterlimit="10" stroke-linejoin="miter" fill="none" stroke="#000000" d="M2748.8 3598 2783.8 3633 2748.8 3598 2338.7 3187.9 2314 3212.7 2338.7 3187.9 2508.6 3018.1H2748.8V2983.1 3018.1Z"/>
<path transform="matrix(.1,0,0,-.1,0,792)" d="M3228.5 3598V3647.5 3018.1H3193.5 3228.5 3468.7L3638.6 3187.9 3663.3 3163.2 3638.6 3187.9" fill="#fff0f0"/>
<path transform="matrix(.1,0,0,-.1,0,792)" stroke-width="7" stroke-linecap="butt" stroke-miterlimit="10" stroke-linejoin="miter" fill="none" stroke="#000000" d="M3228.5 3598V3647.5 3018.1H3193.5 3228.5 3468.7L3638.6 3187.9 3663.3 3163.2 3638.6 3187.9Z"/>
<path transform="matrix(.1,0,0,-.1,0,792)" d="M2409.6 4416.9 2444.6 4381.9 2409.6 4416.9 1999.5 4826.9 2024.3 4851.7 1999.5 4826.9 1829.7 4657.1V4416.9H1794.7 1829.7" fill="#fff0f0"/>
<path transform="matrix(.1,0,0,-.1,0,792)" stroke-width="7" stroke-linecap="butt" stroke-miterlimit="10" stroke-linejoin="miter" fill="none" stroke="#000000" d="M2409.6 4416.9 2444.6 4381.9 2409.6 4416.9 1999.5 4826.9 2024.3 4851.7 1999.5 4826.9 1829.7 4657.1V4416.9H1794.7 1829.7Z"/>
<path transform="matrix(.1,0,0,-.1,0,792)" d="M2409.6 3937.2H2459.1 1829.7V3972.2 3937.2 3697L1999.5 3527.1 1974.8 3502.4 1999.5 3527.1" fill="#fff0f0"/>
<path transform="matrix(.1,0,0,-.1,0,792)" stroke-width="7" stroke-linecap="butt" stroke-miterlimit="10" stroke-linejoin="miter" fill="none" stroke="#000000" d="M2409.6 3937.2H2459.1 1829.7V3972.2 3937.2 3697L1999.5 3527.1 1974.8 3502.4 1999.5 3527.1Z"/>
<path transform="matrix(.1,0,0,-.1,0,792)" d="M3567.7 3937.2 3532.7 3972.2 3567.7 3937.2 3977.8 3527.1 3953 3502.4 3977.8 3527.1 4147.6 3697V3937.2H4182.6 4147.6" fill="#fff0f0"/>
<path transform="matrix(.1,0,0,-.1,0,792)" stroke-width="7" stroke-linecap="butt" stroke-miterlimit="10" stroke-linejoin="miter" fill="none" stroke="#000000" d="M3567.7 3937.2 3532.7 3972.2 3567.7 3937.2 3977.8 3527.1 3953 3502.4 3977.8 3527.1 4147.6 3697V3937.2H4182.6 4147.6Z"/>
<path transform="matrix(.1,0,0,-.1,0,792)" d="M3567.7 4416.9H3518.2 4147.6V4381.9 4416.9 4657.1L3977.8 4826.9 4002.5 4851.7 3977.8 4826.9" fill="#fff0f0"/>
<path transform="matrix(.1,0,0,-.1,0,792)" stroke-width="7" stroke-linecap="butt" stroke-miterlimit="10" stroke-linejoin="miter" fill="none" stroke="#000000" d="M3567.7 4416.9H3518.2 4147.6V4381.9 4416.9 4657.1L3977.8 4826.9 4002.5 4851.7 3977.8 4826.9Z"/>
<path transform="matrix(.1,0,0,-.1,0,792)" d="M2239.7 5166.1 2264.5 5141.4 2239.7 5166.1 2069.9 5336H1829.7V5371 5336 5095.8L1999.5 4925.9 1974.8 4901.2 1999.5 4925.9 2049.4 4975.8V5116.3H2189.9" fill="#663d00"/>
<path transform="matrix(.1,0,0,-.1,0,792)" stroke-width="7" stroke-linecap="butt" stroke-miterlimit="10" stroke-linejoin="miter" fill="none" stroke="#000000" d="M2239.7 5166.1 2264.5 5141.4 2239.7 5166.1 2069.9 5336H1829.7V5371 5336 5095.8L1999.5 4925.9 1974.8 4901.2 1999.5 4925.9 2049.4 4975.8V5116.3H2189.9Z"/>
<path transform="matrix(.1,0,0,-.1,0,792)" d="M2289.2 5215.6 2314 5190.9 2289.2 5215.6 2479.6 5406H2748.8 2783.8 2748.8V5675.2L2939.2 5865.6 2963.9 5890.3 2939.2 5865.6 2748.8 6055.9V6325.1H2479.6L2289.2 6515.5 2264.5 6540.2 2289.2 6515.5 2098.9 6325.1H1829.7 1794.7 1829.7V6055.9L1639.3 5865.6 1614.6 5840.8 1639.3 5865.6 1829.7 5675.2V5406 5371 5406H2098.9" fill="#ffcccc"/>
<path transform="matrix(.1,0,0,-.1,0,792)" stroke-width="7" stroke-linecap="butt" stroke-miterlimit="10" stroke-linejoin="miter" fill="none" stroke="#000000" d="M2289.2 5215.6 2314 5190.9 2289.2 5215.6 2479.6 5406H2748.8 2783.8 2748.8V5675.2L2939.2 5865.6 2963.9 5890.3 2939.2 5865.6 2748.8 6055.9V6325.1H2479.6L2289.2 6515.5 2264.5 6540.2 2289.2 6515.5 2098.9 6325.1H1829.7 1794.7 1829.7V6055.9L1639.3 5865.6 1614.6 5840.8 1639.3 5865.6 1829.7 5675.2V5406 5371 5406H2098.9Z"/>
<path transform="matrix(.1,0,0,-.1,0,792)" d="M3688.1 5215.6 3712.8 5190.9 3688.1 5215.6 3878.4 5406H4147.6 4182.6 4147.6V5675.2L4338 5865.6 4362.7 5890.3 4338 5865.6 4147.6 6055.9V6325.1 6360.1 6325.1H3878.4L3688.1 6515.5 3663.3 6540.2 3688.1 6515.5 3497.7 6325.1H3228.5V6055.9L3038.2 5865.6 3013.4 5840.8 3038.2 5865.6 3228.5 5675.2V5406 5371 5406H3497.7" fill="#ffcccc"/>
<path transform="matrix(.1,0,0,-.1,0,792)" stroke-width="7" stroke-linecap="butt" stroke-miterlimit="10" stroke-linejoin="miter" fill="none" stroke="#000000" d="M3688.1 5215.6 3712.8 5190.9 3688.1 5215.6 3878.4 5406H4147.6 4182.6 4147.6V5675.2L4338 5865.6 4362.7 5890.3 4338 5865.6 4147.6 6055.9V6325.1 6360.1 6325.1H3878.4L3688.1 6515.5 3663.3 6540.2 3688.1 6515.5 3497.7 6325.1H3228.5V6055.9L3038.2 5865.6 3013.4 5840.8 3038.2 5865.6 3228.5 5675.2V5406 5371 5406H3497.7Z"/>
<path transform="matrix(.1,0,0,-.1,0,792)" d="M3737.6 5166.1 3712.8 5190.9 3737.6 5166.1 3787.4 5116.3H3927.9V4975.8L3977.8 4925.9 3953 4901.2 3977.8 4925.9 4147.6 5095.8V5336H4182.6 4147.6 3907.4" fill="#663d00"/>
<path transform="matrix(.1,0,0,-.1,0,792)" stroke-width="7" stroke-linecap="butt" stroke-miterlimit="10" stroke-linejoin="miter" fill="none" stroke="#000000" d="M3737.6 5166.1 3712.8 5190.9 3737.6 5166.1 3787.4 5116.3H3927.9V4975.8L3977.8 4925.9 3953 4901.2 3977.8 4925.9 4147.6 5095.8V5336H4182.6 4147.6 3907.4Z"/>
<path transform="matrix(.1,0,0,-.1,0,792)" d="M2289.2 3138.4 2264.5 3163.2 2289.2 3138.4 2098.9 2948.1H1829.7 1794.7 1829.7V2678.9L1639.3 2488.5 1614.6 2463.8 1639.3 2488.5 1829.7 2298.1V2028.9 1993.9 2028.9H2098.9L2289.2 1838.6 2314 1813.8 2289.2 1838.6 2479.6 2028.9H2748.8V2298.1L2939.2 2488.5 2963.9 2513.3 2939.2 2488.5 2748.8 2678.9V2948.1 2983.1 2948.1H2479.6" fill="#ffcccc"/>
<path transform="matrix(.1,0,0,-.1,0,792)" stroke-width="7" stroke-linecap="butt" stroke-miterlimit="10" stroke-linejoin="miter" fill="none" stroke="#000000" d="M2289.2 3138.4 2264.5 3163.2 2289.2 3138.4 2098.9 2948.1H1829.7 1794.7 1829.7V2678.9L1639.3 2488.5 1614.6 2463.8 1639.3 2488.5 1829.7 2298.1V2028.9 1993.9 2028.9H2098.9L2289.2 1838.6 2314 1813.8 2289.2 1838.6 2479.6 2028.9H2748.8V2298.1L2939.2 2488.5 2963.9 2513.3 2939.2 2488.5 2748.8 2678.9V2948.1 2983.1 2948.1H2479.6Z"/>
<path transform="matrix(.1,0,0,-.1,0,792)" d="M2239.7 3187.9 2264.5 3163.2 2239.7 3187.9 2189.9 3237.8H2049.4V3378.3L1999.5 3428.1 2024.3 3452.9 1999.5 3428.1 1829.7 3258.3V3018.1H1794.7 1829.7 2069.9" fill="#663d00"/>
<path transform="matrix(.1,0,0,-.1,0,792)" stroke-width="7" stroke-linecap="butt" stroke-miterlimit="10" stroke-linejoin="miter" fill="none" stroke="#000000" d="M2239.7 3187.9 2264.5 3163.2 2239.7 3187.9 2189.9 3237.8H2049.4V3378.3L1999.5 3428.1 2024.3 3452.9 1999.5 3428.1 1829.7 3258.3V3018.1H1794.7 1829.7 2069.9Z"/>
<path transform="matrix(.1,0,0,-.1,0,792)" d="M3737.6 3187.9 3712.8 3212.7 3737.6 3187.9 3907.4 3018.1H4147.6V2983.1 3018.1 3258.3L3977.8 3428.1 4002.5 3452.9 3977.8 3428.1 3927.9 3378.3V3237.8H3787.4" fill="#663d00"/>
<path transform="matrix(.1,0,0,-.1,0,792)" stroke-width="7" stroke-linecap="butt" stroke-miterlimit="10" stroke-linejoin="miter" fill="none" stroke="#000000" d="M3737.6 3187.9 3712.8 3212.7 3737.6 3187.9 3907.4 3018.1H4147.6V2983.1 3018.1 3258.3L3977.8 3428.1 4002.5 3452.9 3977.8 3428.1 3927.9 3378.3V3237.8H3787.4Z"/>
<path transform="matrix(.1,0,0,-.1,0,792)" d="M3688.1 3138.4 3663.3 3163.2 3688.1 3138.4 3497.7 2948.1H3228.5 3193.5 3228.5V2678.9L3038.2 2488.5 3013.4 2463.8 3038.2 2488.5 3228.5 2298.1V2028.9H3497.7L3688.1 1838.6 3712.8 1813.8 3688.1 1838.6 3878.4 2028.9H4147.6 4182.6 4147.6V2298.1L4338 2488.5 4362.7 2513.3 4338 2488.5 4147.6 2678.9V2948.1 2983.1 2948.1H3878.4" fill="#ffcccc"/>
<path transform="matrix(.1,0,0,-.1,0,792)" stroke-width="7" stroke-linecap="butt" stroke-miterlimit="10" stroke-linejoin="miter" fill="none" stroke="#000000" d="M3688.1 3138.4 3663.3 3163.2 3688.1 3138.4 3497.7 2948.1H3228.5 3193.5 3228.5V2678.9L3038.2 2488.5 3013.4 2463.8 3038.2 2488.5 3228.5 2298.1V2028.9H3497.7L3688.1 1838.6 3712.8 1813.8 3688.1 1838.6 3878.4 2028.9H4147.6 4182.6 4147.6V2298.1L4338 2488.5 4362.7 2513.3 4338 2488.5 4147.6 2678.9V2948.1 2983.1 2948.1H3878.4Z"/>
<path transform="matrix(.1,0,0,-.1,0,792)" d="M3158.5 5406V5371 5646.2L2988.7 5816.1 3013.4 5840.8 2988.7 5816.1 2818.8 5646.2V5406H2783.8 2818.8 2889.3L2988.7 5505.3 3088 5406" fill="#663d00"/>
<path transform="matrix(.1,0,0,-.1,0,792)" stroke-width="7" stroke-linecap="butt" stroke-miterlimit="10" stroke-linejoin="miter" fill="none" stroke="#000000" d="M3158.5 5406V5371 5646.2L2988.7 5816.1 3013.4 5840.8 2988.7 5816.1 2818.8 5646.2V5406H2783.8 2818.8 2889.3L2988.7 5505.3 3088 5406Z"/>
<path transform="matrix(.1,0,0,-.1,0,792)" d="M2818.8 2948.1V2983.1 2707.9L2988.7 2538 2963.9 2513.3 2988.7 2538 3158.5 2707.9V2948.1H3193.5 3158.5 3088L2988.7 2848.7 2889.3 2948.1" fill="#663d00"/>
<path transform="matrix(.1,0,0,-.1,0,792)" stroke-width="7" stroke-linecap="butt" stroke-miterlimit="10" stroke-linejoin="miter" fill="none" stroke="#000000" d="M2818.8 2948.1V2983.1 2707.9L2988.7 2538 2963.9 2513.3 2988.7 2538 3158.5 2707.9V2948.1H3193.5 3158.5 3088L2988.7 2848.7 2889.3 2948.1Z"/>
<path transform="matrix(.1,0,0,-.1,0,792)" d="M1950 4876.4 1974.8 4901.2 1950 4876.4 1759.7 5066.8V5336 5371 5336H1490.5L1300.1 5526.4 1275.4 5551.1 1300.1 5526.4 1109.8 5336H840.602 805.602 840.602V5066.8L650.199 4876.4 625.5 4851.7 650.199 4876.4 840.602 4686.1V4416.9H1109.8L1300.1 4226.5 1324.9 4201.8 1300.1 4226.5 1490.5 4416.9H1759.7 1794.7 1759.7V4686.1" fill="#ffcccc"/>
<path transform="matrix(.1,0,0,-.1,0,792)" stroke-width="7" stroke-linecap="butt" stroke-miterlimit="10" stroke-linejoin="miter" fill="none" stroke="#000000" d="M1950 4876.4 1974.8 4901.2 1950 4876.4 1759.7 5066.8V5336 5371 5336H1490.5L1300.1 5526.4 1275.4 5551.1 1300.1 5526.4 1109.8 5336H840.602 805.602 840.602V5066.8L650.199 4876.4 625.5 4851.7 650.199 4876.4 840.602 4686.1V4416.9H1109.8L1300.1 4226.5 1324.9 4201.8 1300.1 4226.5 1490.5 4416.9H1759.7 1794.7 1759.7V4686.1Z"/>
<path transform="matrix(.1,0,0,-.1,0,792)" d="M1950 3477.6 1974.8 3502.4 1950 3477.6 1759.7 3668V3937.2 3972.2 3937.2H1490.5L1300.1 4127.5 1275.4 4152.3 1300.1 4127.5 1109.8 3937.2H840.602V3668L650.199 3477.6 625.5 3452.9 650.199 3477.6 840.602 3287.3V3018.1 2983.1 3018.1H1109.8L1300.1 2827.7 1324.9 2803 1300.1 2827.7 1490.5 3018.1H1759.7 1794.7 1759.7V3287.3" fill="#ffcccc"/>
<path transform="matrix(.1,0,0,-.1,0,792)" stroke-width="7" stroke-linecap="butt" stroke-miterlimit="10" stroke-linejoin="miter" fill="none" stroke="#000000" d="M1950 3477.6 1974.8 3502.4 1950 3477.6 1759.7 3668V3937.2 3972.2 3937.2H1490.5L1300.1 4127.5 1275.4 4152.3 1300.1 4127.5 1109.8 3937.2H840.602V3668L650.199 3477.6 625.5 3452.9 650.199 3477.6 840.602 3287.3V3018.1 2983.1 3018.1H1109.8L1300.1 2827.7 1324.9 2803 1300.1 2827.7 1490.5 3018.1H1759.7 1794.7 1759.7V3287.3Z"/>
<path transform="matrix(.1,0,0,-.1,0,792)" d="M4027.3 3477.6 4002.5 3452.9 4027.3 3477.6 4217.6 3287.3V3018.1 2983.1 3018.1H4486.8L4677.2 2827.7 4701.9 2803 4677.2 2827.7 4867.5 3018.1H5136.7 5171.7 5136.7V3287.3L5327.1 3477.6 5351.8 3502.4 5327.1 3477.6 5136.7 3668V3937.2H4867.5L4677.2 4127.5 4652.4 4152.3 4677.2 4127.5 4486.8 3937.2H4217.6 4182.6 4217.6V3668" fill="#ffcccc"/>
<path transform="matrix(.1,0,0,-.1,0,792)" stroke-width="7" stroke-linecap="butt" stroke-miterlimit="10" stroke-linejoin="miter" fill="none" stroke="#000000" d="M4027.3 3477.6 4002.5 3452.9 4027.3 3477.6 4217.6 3287.3V3018.1 2983.1 3018.1H4486.8L4677.2 2827.7 4701.9 2803 4677.2 2827.7 4867.5 3018.1H5136.7 5171.7 5136.7V3287.3L5327.1 3477.6 5351.8 3502.4 5327.1 3477.6 5136.7 3668V3937.2H4867.5L4677.2 4127.5 4652.4 4152.3 4677.2 4127.5 4486.8 3937.2H4217.6 4182.6 4217.6V3668Z"/>
<path transform="matrix(.1,0,0,-.1,0,792)" d="M4027.3 4876.4 4002.5 4851.7 4027.3 4876.4 4217.6 4686.1V4416.9 4381.9 4416.9H4486.8L4677.2 4226.5 4701.9 4201.8 4677.2 4226.5 4867.5 4416.9H5136.7V4686.1L5327.1 4876.4 5351.8 4901.2 5327.1 4876.4 5136.7 5066.8V5336 5371 5336H4867.5L4677.2 5526.4 4652.4 5551.1 4677.2 5526.4 4486.8 5336H4217.6 4182.6 4217.6V5066.8" fill="#ffcccc"/>
<path transform="matrix(.1,0,0,-.1,0,792)" stroke-width="7" stroke-linecap="butt" stroke-miterlimit="10" stroke-linejoin="miter" fill="none" stroke="#000000" d="M4027.3 4876.4 4002.5 4851.7 4027.3 4876.4 4217.6 4686.1V4416.9 4381.9 4416.9H4486.8L4677.2 4226.5 4701.9 4201.8 4677.2 4226.5 4867.5 4416.9H5136.7V4686.1L5327.1 4876.4 5351.8 4901.2 5327.1 4876.4 5136.7 5066.8V5336 5371 5336H4867.5L4677.2 5526.4 4652.4 5551.1 4677.2 5526.4 4486.8 5336H4217.6 4182.6 4217.6V5066.8Z"/>
<path transform="matrix(.1,0,0,-.1,0,792)" d="M1759.7 5646.2 1589.8 5816.1 1614.6 5840.8 1589.8 5816.1 1540 5766.2V5625.7H1399.5L1349.6 5575.9 1324.9 5600.6 1349.6 5575.9 1519.5 5406H1759.7V5371 5406" fill="#663d00"/>
<path transform="matrix(.1,0,0,-.1,0,792)" stroke-width="7" stroke-linecap="butt" stroke-miterlimit="10" stroke-linejoin="miter" fill="none" stroke="#000000" d="M1759.7 5646.2 1589.8 5816.1 1614.6 5840.8 1589.8 5816.1 1540 5766.2V5625.7H1399.5L1349.6 5575.9 1324.9 5600.6 1349.6 5575.9 1519.5 5406H1759.7V5371 5406Z"/>
<path transform="matrix(.1,0,0,-.1,0,792)" d="M1759.7 4346.9H1794.7 1519.5L1349.6 4177 1324.9 4201.8 1349.6 4177 1519.5 4007.2H1759.7V3972.2 4007.2 4077.7L1660.3 4177 1759.7 4276.4" fill="#663d00"/>
<path transform="matrix(.1,0,0,-.1,0,792)" stroke-width="7" stroke-linecap="butt" stroke-miterlimit="10" stroke-linejoin="miter" fill="none" stroke="#000000" d="M1759.7 4346.9H1794.7 1519.5L1349.6 4177 1324.9 4201.8 1349.6 4177 1519.5 4007.2H1759.7V3972.2 4007.2 4077.7L1660.3 4177 1759.7 4276.4Z"/>
<path transform="matrix(.1,0,0,-.1,0,792)" d="M1759.7 2948.1H1794.7 1519.5L1349.6 2778.2 1324.9 2803 1349.6 2778.2 1399.5 2728.4H1540V2587.9L1589.8 2538 1565.1 2513.3 1589.8 2538 1759.7 2707.9" fill="#663d00"/>
<path transform="matrix(.1,0,0,-.1,0,792)" stroke-width="7" stroke-linecap="butt" stroke-miterlimit="10" stroke-linejoin="miter" fill="none" stroke="#000000" d="M1759.7 2948.1H1794.7 1519.5L1349.6 2778.2 1324.9 2803 1349.6 2778.2 1399.5 2728.4H1540V2587.9L1589.8 2538 1565.1 2513.3 1589.8 2538 1759.7 2707.9Z"/>
<path transform="matrix(.1,0,0,-.1,0,792)" d="M2988.7 5915.1 2963.9 5890.3 2988.7 5915.1 3158.5 6084.9V6395.1H3468.7L3638.6 6565 3663.3 6540.2 3638.6 6565 3468.7 6734.8H3158.5V7045L2988.7 7214.9 3013.4 7239.6 2988.7 7214.9 2818.8 7045V6734.8H2508.6L2338.7 6565 2314 6589.7 2338.7 6565 2508.6 6395.1H2818.8V6084.9" fill="#663d00"/>
<path transform="matrix(.1,0,0,-.1,0,792)" stroke-width="7" stroke-linecap="butt" stroke-miterlimit="10" stroke-linejoin="miter" fill="none" stroke="#000000" d="M2988.7 5915.1 2963.9 5890.3 2988.7 5915.1 3158.5 6084.9V6395.1H3468.7L3638.6 6565 3663.3 6540.2 3638.6 6565 3468.7 6734.8H3158.5V7045L2988.7 7214.9 3013.4 7239.6 2988.7 7214.9 2818.8 7045V6734.8H2508.6L2338.7 6565 2314 6589.7 2338.7 6565 2508.6 6395.1H2818.8V6084.9Z"/>
<path transform="matrix(.1,0,0,-.1,0,792)" d="M4217.6 2707.9 4387.5 2538 4362.7 2513.3 4387.5 2538 4437.3 2587.9V2728.4H4577.8L4627.7 2778.2 4652.4 2753.5 4627.7 2778.2 4457.8 2948.1H4217.6V2983.1 2948.1" fill="#663d00"/>
<path transform="matrix(.1,0,0,-.1,0,792)" stroke-width="7" stroke-linecap="butt" stroke-miterlimit="10" stroke-linejoin="miter" fill="none" stroke="#000000" d="M4217.6 2707.9 4387.5 2538 4362.7 2513.3 4387.5 2538 4437.3 2587.9V2728.4H4577.8L4627.7 2778.2 4652.4 2753.5 4627.7 2778.2 4457.8 2948.1H4217.6V2983.1 2948.1Z"/>
<path transform="matrix(.1,0,0,-.1,0,792)" d="M4217.6 4007.2H4182.6 4457.8L4627.7 4177 4652.4 4152.3 4627.7 4177 4457.8 4346.9H4217.6V4381.9 4346.9 4276.4L4317 4177 4217.6 4077.7" fill="#663d00"/>
<path transform="matrix(.1,0,0,-.1,0,792)" stroke-width="7" stroke-linecap="butt" stroke-miterlimit="10" stroke-linejoin="miter" fill="none" stroke="#000000" d="M4217.6 4007.2H4182.6 4457.8L4627.7 4177 4652.4 4152.3 4627.7 4177 4457.8 4346.9H4217.6V4381.9 4346.9 4276.4L4317 4177 4217.6 4077.7Z"/>
<path transform="matrix(.1,0,0,-.1,0,792)" d="M4217.6 5406H4182.6 4457.8L4627.7 5575.9 4652.4 5551.1 4627.7 5575.9 4577.8 5625.7H4437.3V5766.2L4387.5 5816.1 4412.2 5840.8 4387.5 5816.1 4217.6 5646.2" fill="#663d00"/>
<path transform="matrix(.1,0,0,-.1,0,792)" stroke-width="7" stroke-linecap="butt" stroke-miterlimit="10" stroke-linejoin="miter" fill="none" stroke="#000000" d="M4217.6 5406H4182.6 4457.8L4627.7 5575.9 4652.4 5551.1 4627.7 5575.9 4577.8 5625.7H4437.3V5766.2L4387.5 5816.1 4412.2 5840.8 4387.5 5816.1 4217.6 5646.2Z"/>
<path transform="matrix(.1,0,0,-.1,0,792)" d="M2988.7 2439 3013.4 2463.8 2988.7 2439 2818.8 2269.2V1958.9H2508.6L2338.7 1789.1 2314 1813.8 2338.7 1789.1 2508.6 1619.2H2818.8V1309L2988.7 1139.2 2963.9 1114.4 2988.7 1139.2 3158.5 1309V1619.2H3468.7L3638.6 1789.1 3663.3 1764.3 3638.6 1789.1 3468.7 1958.9H3158.5V2269.2" fill="#663d00"/>
<path transform="matrix(.1,0,0,-.1,0,792)" stroke-width="7" stroke-linecap="butt" stroke-miterlimit="10" stroke-linejoin="miter" fill="none" stroke="#000000" d="M2988.7 2439 3013.4 2463.8 2988.7 2439 2818.8 2269.2V1958.9H2508.6L2338.7 1789.1 2314 1813.8 2338.7 1789.1 2508.6 1619.2H2818.8V1309L2988.7 1139.2 2963.9 1114.4 2988.7 1139.2 3158.5 1309V1619.2H3468.7L3638.6 1789.1 3663.3 1764.3 3638.6 1789.1 3468.7 1958.9H3158.5V2269.2Z"/>
<path transform="matrix(.1,0,0,-.1,0,792)" d="M4217.6 6084.9 4387.5 5915.1 4362.7 5890.3 4387.5 5915.1 4797.5 6325.1H4847 4797.5 4217.6V6360.1 6325.1" fill="#fff0f0"/>
<path transform="matrix(.1,0,0,-.1,0,792)" stroke-width="7" stroke-linecap="butt" stroke-miterlimit="10" stroke-linejoin="miter" fill="none" stroke="#000000" d="M4217.6 6084.9 4387.5 5915.1 4362.7 5890.3 4387.5 5915.1 4797.5 6325.1H4847 4797.5 4217.6V6360.1 6325.1Z"/>
<path transform="matrix(.1,0,0,-.1,0,792)" d="M1759.7 6084.9V6325.1H1794.7 1179.8L1144.8 6360.1 1179.8 6325.1 1589.8 5915.1 1565.1 5890.3 1589.8 5915.1" fill="#fff0f0"/>
<path transform="matrix(.1,0,0,-.1,0,792)" stroke-width="7" stroke-linecap="butt" stroke-miterlimit="10" stroke-linejoin="miter" fill="none" stroke="#000000" d="M1759.7 6084.9V6325.1H1794.7 1179.8L1144.8 6360.1 1179.8 6325.1 1589.8 5915.1 1565.1 5890.3 1589.8 5915.1Z"/>
<path transform="matrix(.1,0,0,-.1,0,792)" d="M1540.3 5865.6 1565.1 5890.3 1540.3 5865.6 1080.8 6325.1 1045.8 6360.1 1080.8 6325.1H840.602V6084.9 6035.4 6084.9L1300.1 5625.3 1324.9 5600.6 1300.1 5625.3 1370.5 5695.7H1470V5795.2" fill="#78ffe6"/>
<path transform="matrix(.1,0,0,-.1,0,792)" stroke-width="7" stroke-linecap="butt" stroke-miterlimit="10" stroke-linejoin="miter" fill="none" stroke="#000000" d="M1540.3 5865.6 1565.1 5890.3 1540.3 5865.6 1080.8 6325.1 1045.8 6360.1 1080.8 6325.1H840.602V6084.9 6035.4 6084.9L1300.1 5625.3 1324.9 5600.6 1300.1 5625.3 1370.5 5695.7H1470V5795.2Z"/>
<path transform="matrix(.1,0,0,-.1,0,792)" d="M1589.8 2439 1614.6 2463.8 1589.8 2439 1179.8 2028.9H1130.3 1179.8 1759.7V1993.9 2028.9 2269.2" fill="#fff0f0"/>
<path transform="matrix(.1,0,0,-.1,0,792)" stroke-width="7" stroke-linecap="butt" stroke-miterlimit="10" stroke-linejoin="miter" fill="none" stroke="#000000" d="M1589.8 2439 1614.6 2463.8 1589.8 2439 1179.8 2028.9H1130.3 1179.8 1759.7V1993.9 2028.9 2269.2Z"/>
<path transform="matrix(.1,0,0,-.1,0,792)" d="M1540.3 2488.5 1565.1 2513.3 1540.3 2488.5 1470 2558.9V2658.4H1370.5L1300.1 2728.7 1275.4 2753.5 1300.1 2728.7 840.602 2269.2 805.602 2234.2 840.602 2269.2V2028.9H1080.8 1130.3 1080.8" fill="#78ffe6"/>
<path transform="matrix(.1,0,0,-.1,0,792)" stroke-width="7" stroke-linecap="butt" stroke-miterlimit="10" stroke-linejoin="miter" fill="none" stroke="#000000" d="M1540.3 2488.5 1565.1 2513.3 1540.3 2488.5 1470 2558.9V2658.4H1370.5L1300.1 2728.7 1275.4 2753.5 1300.1 2728.7 840.602 2269.2 805.602 2234.2 840.602 2269.2V2028.9H1080.8 1130.3 1080.8Z"/>
<path transform="matrix(.1,0,0,-.1,0,792)" d="M4217.6 2269.2V2028.9H4182.6 4797.5L4832.5 1993.9 4797.5 2028.9 4387.5 2439 4412.2 2463.8 4387.5 2439" fill="#fff0f0"/>
<path transform="matrix(.1,0,0,-.1,0,792)" stroke-width="7" stroke-linecap="butt" stroke-miterlimit="10" stroke-linejoin="miter" fill="none" stroke="#000000" d="M4217.6 2269.2V2028.9H4182.6 4797.5L4832.5 1993.9 4797.5 2028.9 4387.5 2439 4412.2 2463.8 4387.5 2439Z"/>
<path transform="matrix(.1,0,0,-.1,0,792)" d="M4437 2488.5 4412.2 2463.8 4437 2488.5 4896.5 2028.9 4931.5 1993.9 4896.5 2028.9H5136.7V2269.2 2318.6 2269.2L4677.2 2728.7 4652.4 2753.5 4677.2 2728.7 4606.8 2658.4H4507.3V2558.9" fill="#78ffe6"/>
<path transform="matrix(.1,0,0,-.1,0,792)" stroke-width="7" stroke-linecap="butt" stroke-miterlimit="10" stroke-linejoin="miter" fill="none" stroke="#000000" d="M4437 2488.5 4412.2 2463.8 4437 2488.5 4896.5 2028.9 4931.5 1993.9 4896.5 2028.9H5136.7V2269.2 2318.6 2269.2L4677.2 2728.7 4652.4 2753.5 4677.2 2728.7 4606.8 2658.4H4507.3V2558.9Z"/>
<path transform="matrix(.1,0,0,-.1,0,792)" d="M4437 5865.6 4412.2 5840.8 4437 5865.6 4507.3 5795.2V5695.7H4606.8L4677.2 5625.3 4701.9 5600.6 4677.2 5625.3 5136.7 6084.9 5171.7 6119.9 5136.7 6084.9V6325.1H4896.5 4847 4896.5" fill="#78ffe6"/>
<path transform="matrix(.1,0,0,-.1,0,792)" stroke-width="7" stroke-linecap="butt" stroke-miterlimit="10" stroke-linejoin="miter" fill="none" stroke="#000000" d="M4437 5865.6 4412.2 5840.8 4437 5865.6 4507.3 5795.2V5695.7H4606.8L4677.2 5625.3 4701.9 5600.6 4677.2 5625.3 5136.7 6084.9 5171.7 6119.9 5136.7 6084.9V6325.1H4896.5 4847 4896.5Z"/>
<path transform="matrix(.1,0,0,-.1,0,792)" d="M4147.6 6395.1V6360.1 6465.6L4048.3 6565 4147.6 6664.3V6734.8H4182.6 4147.6 3907.4L3737.6 6565 3712.8 6589.7 3737.6 6565 3907.4 6395.1" fill="#663d00"/>
<path transform="matrix(.1,0,0,-.1,0,792)" stroke-width="7" stroke-linecap="butt" stroke-miterlimit="10" stroke-linejoin="miter" fill="none" stroke="#000000" d="M4147.6 6395.1V6360.1 6465.6L4048.3 6565 4147.6 6664.3V6734.8H4182.6 4147.6 3907.4L3737.6 6565 3712.8 6589.7 3737.6 6565 3907.4 6395.1Z"/>
<path transform="matrix(.1,0,0,-.1,0,792)" d="M4217.6 6395.1V6360.1 6395.1H4917 4867.5L5037.4 6565 4867.5 6734.8 4832.5 6769.8 4867.5 6734.8H4217.6 4182.6 4217.6V6635.3L4147.3 6565 4217.6 6494.6" fill="#78ffe6"/>
<path transform="matrix(.1,0,0,-.1,0,792)" stroke-width="7" stroke-linecap="butt" stroke-miterlimit="10" stroke-linejoin="miter" fill="none" stroke="#000000" d="M4217.6 6395.1V6360.1 6395.1H4917 4867.5L5037.4 6565 4867.5 6734.8 4832.5 6769.8 4867.5 6734.8H4217.6 4182.6 4217.6V6635.3L4147.3 6565 4217.6 6494.6Z"/>
<path transform="matrix(.1,0,0,-.1,0,792)" d="M2069.9 6395.1 2239.7 6565 2264.5 6540.2 2239.7 6565 2069.9 6734.8H1829.7V6769.8 6734.8 6664.3L1929 6565 1829.7 6465.6V6395.1H1794.7 1829.7" fill="#663d00"/>
<path transform="matrix(.1,0,0,-.1,0,792)" stroke-width="7" stroke-linecap="butt" stroke-miterlimit="10" stroke-linejoin="miter" fill="none" stroke="#000000" d="M2069.9 6395.1 2239.7 6565 2264.5 6540.2 2239.7 6565 2069.9 6734.8H1829.7V6769.8 6734.8 6664.3L1929 6565 1829.7 6465.6V6395.1H1794.7 1829.7Z"/>
<path transform="matrix(.1,0,0,-.1,0,792)" d="M1759.7 6395.1H1794.7 1759.7V6494.6L1830 6565 1759.7 6635.3V6734.8 6769.8 6734.8H1109.8 1060.3 1109.8L939.898 6565 1109.8 6395.1 1144.8 6360.1 1109.8 6395.1" fill="#78ffe6"/>
<path transform="matrix(.1,0,0,-.1,0,792)" stroke-width="7" stroke-linecap="butt" stroke-miterlimit="10" stroke-linejoin="miter" fill="none" stroke="#000000" d="M1759.7 6395.1H1794.7 1759.7V6494.6L1830 6565 1759.7 6635.3V6734.8 6769.8 6734.8H1109.8 1060.3 1109.8L939.898 6565 1109.8 6395.1 1144.8 6360.1 1109.8 6395.1Z"/>
<path transform="matrix(.1,0,0,-.1,0,792)" d="M1829.7 1958.9V1993.9 1888.4L1929 1789.1 1829.7 1689.7V1619.2H1794.7 1829.7 2069.9L2239.7 1789.1 2264.5 1764.3 2239.7 1789.1 2069.9 1958.9" fill="#663d00"/>
<path transform="matrix(.1,0,0,-.1,0,792)" stroke-width="7" stroke-linecap="butt" stroke-miterlimit="10" stroke-linejoin="miter" fill="none" stroke="#000000" d="M1829.7 1958.9V1993.9 1888.4L1929 1789.1 1829.7 1689.7V1619.2H1794.7 1829.7 2069.9L2239.7 1789.1 2264.5 1764.3 2239.7 1789.1 2069.9 1958.9Z"/>
<path transform="matrix(.1,0,0,-.1,0,792)" d="M1759.7 1958.9V1993.9 1958.9H1060.3 1109.8L939.898 1789.1 1109.8 1619.2 1144.8 1584.2 1109.8 1619.2H1759.7 1794.7 1759.7V1718.7L1830 1789.1 1759.7 1859.4" fill="#78ffe6"/>
<path transform="matrix(.1,0,0,-.1,0,792)" stroke-width="7" stroke-linecap="butt" stroke-miterlimit="10" stroke-linejoin="miter" fill="none" stroke="#000000" d="M1759.7 1958.9V1993.9 1958.9H1060.3 1109.8L939.898 1789.1 1109.8 1619.2 1144.8 1584.2 1109.8 1619.2H1759.7 1794.7 1759.7V1718.7L1830 1789.1 1759.7 1859.4Z"/>
<path transform="matrix(.1,0,0,-.1,0,792)" d="M3907.4 1958.9 3737.6 1789.1 3712.8 1813.8 3737.6 1789.1 3907.4 1619.2H4147.6V1584.2 1619.2 1689.7L4048.3 1789.1 4147.6 1888.4V1958.9H4182.6 4147.6" fill="#663d00"/>
<path transform="matrix(.1,0,0,-.1,0,792)" stroke-width="7" stroke-linecap="butt" stroke-miterlimit="10" stroke-linejoin="miter" fill="none" stroke="#000000" d="M3907.4 1958.9 3737.6 1789.1 3712.8 1813.8 3737.6 1789.1 3907.4 1619.2H4147.6V1584.2 1619.2 1689.7L4048.3 1789.1 4147.6 1888.4V1958.9H4182.6 4147.6Z"/>
<path transform="matrix(.1,0,0,-.1,0,792)" d="M4217.6 1958.9H4182.6 4217.6V1859.4L4147.3 1789.1 4217.6 1718.7V1619.2 1584.2 1619.2H4867.5 4917 4867.5L5037.4 1789.1 4867.5 1958.9 4832.5 1993.9 4867.5 1958.9" fill="#78ffe6"/>
<path transform="matrix(.1,0,0,-.1,0,792)" stroke-width="7" stroke-linecap="butt" stroke-miterlimit="10" stroke-linejoin="miter" fill="none" stroke="#000000" d="M4217.6 1958.9H4182.6 4217.6V1859.4L4147.3 1789.1 4217.6 1718.7V1619.2 1584.2 1619.2H4867.5 4917 4867.5L5037.4 1789.1 4867.5 1958.9 4832.5 1993.9 4867.5 1958.9Z"/>
<path transform="matrix(.1,0,0,-.1,0,792)" d="M1250.6 5575.9 1275.4 5551.1 1250.6 5575.9 840.602 5985.9V6035.4 5985.9 5406H805.602 840.602 1080.8" fill="#fff0f0"/>
<path transform="matrix(.1,0,0,-.1,0,792)" stroke-width="7" stroke-linecap="butt" stroke-miterlimit="10" stroke-linejoin="miter" fill="none" stroke="#000000" d="M1250.6 5575.9 1275.4 5551.1 1250.6 5575.9 840.602 5985.9V6035.4 5985.9 5406H805.602 840.602 1080.8Z"/>
<path transform="matrix(.1,0,0,-.1,0,792)" d="M1250.6 4177 1275.4 4152.3 1250.6 4177 1080.8 4346.9H770.602V4657.1L600.699 4826.9 625.5 4851.7 600.699 4826.9 430.898 4657.1V4346.9H120.699L-49.1992 4177-73.8984 4201.8-49.1992 4177 120.699 4007.2H430.898V3697L600.699 3527.1 576 3502.4 600.699 3527.1 770.602 3697V4007.2H1080.8" fill="#663d00"/>
<path transform="matrix(.1,0,0,-.1,0,792)" stroke-width="7" stroke-linecap="butt" stroke-miterlimit="10" stroke-linejoin="miter" fill="none" stroke="#000000" d="M1250.6 4177 1275.4 4152.3 1250.6 4177 1080.8 4346.9H770.602V4657.1L600.699 4826.9 625.5 4851.7 600.699 4826.9 430.898 4657.1V4346.9H120.699L-49.1992 4177-73.8984 4201.8-49.1992 4177 120.699 4007.2H430.898V3697L600.699 3527.1 576 3502.4 600.699 3527.1 770.602 3697V4007.2H1080.8Z"/>
<path transform="matrix(.1,0,0,-.1,0,792)" d="M1250.6 2778.2 1275.4 2753.5 1250.6 2778.2 1080.8 2948.1H840.602V2983.1 2948.1 2368.1L805.602 2333.1 840.602 2368.1" fill="#fff0f0"/>
<path transform="matrix(.1,0,0,-.1,0,792)" stroke-width="7" stroke-linecap="butt" stroke-miterlimit="10" stroke-linejoin="miter" fill="none" stroke="#000000" d="M1250.6 2778.2 1275.4 2753.5 1250.6 2778.2 1080.8 2948.1H840.602V2983.1 2948.1 2368.1L805.602 2333.1 840.602 2368.1Z"/>
<path transform="matrix(.1,0,0,-.1,0,792)" d="M4726.7 2778.2 4701.9 2803 4726.7 2778.2 5136.7 2368.1V2318.6 2368.1 2948.1H5171.7 5136.7 4896.5" fill="#fff0f0"/>
<path transform="matrix(.1,0,0,-.1,0,792)" stroke-width="7" stroke-linecap="butt" stroke-miterlimit="10" stroke-linejoin="miter" fill="none" stroke="#000000" d="M4726.7 2778.2 4701.9 2803 4726.7 2778.2 5136.7 2368.1V2318.6 2368.1 2948.1H5171.7 5136.7 4896.5Z"/>
<path transform="matrix(.1,0,0,-.1,0,792)" d="M4726.7 4177 4701.9 4201.8 4726.7 4177 4896.5 4007.2H5206.7V3697L5376.6 3527.1 5351.8 3502.4 5376.6 3527.1 5546.4 3697V4007.2H5856.7L6026.5 4177 6051.3 4152.3 6026.5 4177 5856.7 4346.9H5546.4V4657.1L5376.6 4826.9 5401.3 4851.7 5376.6 4826.9 5206.7 4657.1V4346.9H4896.5" fill="#663d00"/>
<path transform="matrix(.1,0,0,-.1,0,792)" stroke-width="7" stroke-linecap="butt" stroke-miterlimit="10" stroke-linejoin="miter" fill="none" stroke="#000000" d="M4726.7 4177 4701.9 4201.8 4726.7 4177 4896.5 4007.2H5206.7V3697L5376.6 3527.1 5351.8 3502.4 5376.6 3527.1 5546.4 3697V4007.2H5856.7L6026.5 4177 6051.3 4152.3 6026.5 4177 5856.7 4346.9H5546.4V4657.1L5376.6 4826.9 5401.3 4851.7 5376.6 4826.9 5206.7 4657.1V4346.9H4896.5Z"/>
<path transform="matrix(.1,0,0,-.1,0,792)" d="M4726.7 5575.9 4701.9 5600.6 4726.7 5575.9 4896.5 5406H5136.7V5371 5406 5985.9L5171.7 6020.9 5136.7 5985.9" fill="#fff0f0"/>
<path transform="matrix(.1,0,0,-.1,0,792)" stroke-width="7" stroke-linecap="butt" stroke-miterlimit="10" stroke-linejoin="miter" fill="none" stroke="#000000" d="M4726.7 5575.9 4701.9 5600.6 4726.7 5575.9 4896.5 5406H5136.7V5371 5406 5985.9L5171.7 6020.9 5136.7 5985.9Z"/>
<path transform="matrix(.1,0,0,-.1,0,792)" d="M3688.1 6614.5 3712.8 6589.7 3688.1 6614.5 3878.4 6804.8H4147.6 4182.6 4147.6V7074L4338 7264.4 4362.7 7289.1 4338 7264.4 4147.6 7454.7V7723.9 7758.9 7723.9H3878.4L3688.1 7914.3 3663.3 7939 3688.1 7914.3 3497.7 7723.9H3228.5 3193.5 3228.5V7454.7L3038.2 7264.4 3013.4 7239.6 3038.2 7264.4 3228.5 7074V6804.8H3497.7" fill="#ffcccc"/>
<path transform="matrix(.1,0,0,-.1,0,792)" stroke-width="7" stroke-linecap="butt" stroke-miterlimit="10" stroke-linejoin="miter" fill="none" stroke="#000000" d="M3688.1 6614.5 3712.8 6589.7 3688.1 6614.5 3878.4 6804.8H4147.6 4182.6 4147.6V7074L4338 7264.4 4362.7 7289.1 4338 7264.4 4147.6 7454.7V7723.9 7758.9 7723.9H3878.4L3688.1 7914.3 3663.3 7939 3688.1 7914.3 3497.7 7723.9H3228.5 3193.5 3228.5V7454.7L3038.2 7264.4 3013.4 7239.6 3038.2 7264.4 3228.5 7074V6804.8H3497.7Z"/>
<path transform="matrix(.1,0,0,-.1,0,792)" d="M2289.2 6614.5 2314 6589.7 2289.2 6614.5 2479.6 6804.8H2748.8V7074L2939.2 7264.4 2963.9 7289.1 2939.2 7264.4 2748.8 7454.7V7723.9 7758.9 7723.9H2479.6L2289.2 7914.3 2264.5 7939 2289.2 7914.3 2098.9 7723.9H1829.7 1794.7 1829.7V7454.7L1639.3 7264.4 1614.6 7239.6 1639.3 7264.4 1829.7 7074V6804.8 6769.8 6804.8H2098.9" fill="#ffcccc"/>
<path transform="matrix(.1,0,0,-.1,0,792)" stroke-width="7" stroke-linecap="butt" stroke-miterlimit="10" stroke-linejoin="miter" fill="none" stroke="#000000" d="M2289.2 6614.5 2314 6589.7 2289.2 6614.5 2479.6 6804.8H2748.8V7074L2939.2 7264.4 2963.9 7289.1 2939.2 7264.4 2748.8 7454.7V7723.9 7758.9 7723.9H2479.6L2289.2 7914.3 2264.5 7939 2289.2 7914.3 2098.9 7723.9H1829.7 1794.7 1829.7V7454.7L1639.3 7264.4 1614.6 7239.6 1639.3 7264.4 1829.7 7074V6804.8 6769.8 6804.8H2098.9Z"/>
<path transform="matrix(.1,0,0,-.1,0,792)" d="M2289.2 1739.6 2264.5 1764.3 2289.2 1739.6 2098.9 1549.2H1829.7 1794.7 1829.7V1280L1639.3 1089.7 1614.6 1064.9 1639.3 1089.7 1829.7 899.301V630.102 595.102 630.102H2098.9L2289.2 439.801 2314 415 2289.2 439.801 2479.6 630.102H2748.8 2783.8 2748.8V899.301L2939.2 1089.7 2963.9 1114.4 2939.2 1089.7 2748.8 1280V1549.2H2479.6" fill="#ffcccc"/>
<path transform="matrix(.1,0,0,-.1,0,792)" stroke-width="7" stroke-linecap="butt" stroke-miterlimit="10" stroke-linejoin="miter" fill="none" stroke="#000000" d="M2289.2 1739.6 2264.5 1764.3 2289.2 1739.6 2098.9 1549.2H1829.7 1794.7 1829.7V1280L1639.3 1089.7 1614.6 1064.9 1639.3 1089.7 1829.7 899.301V630.102 595.102 630.102H2098.9L2289.2 439.801 2314 415 2289.2 439.801 2479.6 630.102H2748.8 2783.8 2748.8V899.301L2939.2 1089.7 2963.9 1114.4 2939.2 1089.7 2748.8 1280V1549.2H2479.6Z"/>
<path transform="matrix(.1,0,0,-.1,0,792)" d="M3688.1 1739.6 3663.3 1764.3 3688.1 1739.6 3497.7 1549.2H3228.5V1280L3038.2 1089.7 3013.4 1064.9 3038.2 1089.7 3228.5 899.301V630.102 595.102 630.102H3497.7L3688.1 439.801 3712.8 415 3688.1 439.801 3878.4 630.102H4147.6 4182.6 4147.6V899.301L4338 1089.7 4362.7 1114.4 4338 1089.7 4147.6 1280V1549.2 1584.2 1549.2H3878.4" fill="#ffcccc"/>
<path transform="matrix(.1,0,0,-.1,0,792)" stroke-width="7" stroke-linecap="butt" stroke-miterlimit="10" stroke-linejoin="miter" fill="none" stroke="#000000" d="M3688.1 1739.6 3663.3 1764.3 3688.1 1739.6 3497.7 1549.2H3228.5V1280L3038.2 1089.7 3013.4 1064.9 3038.2 1089.7 3228.5 899.301V630.102 595.102 630.102H3497.7L3688.1 439.801 3712.8 415 3688.1 439.801 3878.4 630.102H4147.6 4182.6 4147.6V899.301L4338 1089.7 4362.7 1114.4 4338 1089.7 4147.6 1280V1549.2 1584.2 1549.2H3878.4Z"/>
<path transform="matrix(.1,0,0,-.1,0,792)" d="M4217.6 6804.8H4182.6 4797.5L4832.5 6769.8 4797.5 6804.8 4387.5 7214.9 4412.2 7239.6 4387.5 7214.9 4217.6 7045" fill="#fff0f0"/>
<path transform="matrix(.1,0,0,-.1,0,792)" stroke-width="7" stroke-linecap="butt" stroke-miterlimit="10" stroke-linejoin="miter" fill="none" stroke="#000000" d="M4217.6 6804.8H4182.6 4797.5L4832.5 6769.8 4797.5 6804.8 4387.5 7214.9 4412.2 7239.6 4387.5 7214.9 4217.6 7045Z"/>
<path transform="matrix(.1,0,0,-.1,0,792)" d="M1759.7 6804.8V6769.8 7045L1589.8 7214.9 1614.6 7239.6 1589.8 7214.9 1179.8 6804.8H1130.3 1179.8" fill="#fff0f0"/>
<path transform="matrix(.1,0,0,-.1,0,792)" stroke-width="7" stroke-linecap="butt" stroke-miterlimit="10" stroke-linejoin="miter" fill="none" stroke="#000000" d="M1759.7 6804.8V6769.8 7045L1589.8 7214.9 1614.6 7239.6 1589.8 7214.9 1179.8 6804.8H1130.3 1179.8Z"/>
<path transform="matrix(.1,0,0,-.1,0,792)" d="M1010.8 6734.8H1060.3 770.602V6975L805.602 7010 770.602 6975 600.699 6805.2 430.898 6975V7024.5 6975 6734.8H190.699L155.699 6769.8 190.699 6734.8 360.5 6565 190.699 6395.1H141.199 190.699 430.898V6154.9L395.898 6119.9 430.898 6154.9 600.699 6324.8 770.602 6154.9V6105.4 6154.9 6395.1H1010.8L1045.8 6360.1 1010.8 6395.1 840.898 6565" fill="#663d00"/>
<path transform="matrix(.1,0,0,-.1,0,792)" stroke-width="7" stroke-linecap="butt" stroke-miterlimit="10" stroke-linejoin="miter" fill="none" stroke="#000000" d="M1010.8 6734.8H1060.3 770.602V6975L805.602 7010 770.602 6975 600.699 6805.2 430.898 6975V7024.5 6975 6734.8H190.699L155.699 6769.8 190.699 6734.8 360.5 6565 190.699 6395.1H141.199 190.699 430.898V6154.9L395.898 6119.9 430.898 6154.9 600.699 6324.8 770.602 6154.9V6105.4 6154.9 6395.1H1010.8L1045.8 6360.1 1010.8 6395.1 840.898 6565Z"/>
<path transform="matrix(.1,0,0,-.1,0,792)" d="M1080.8 6804.8H1130.3 1080.8L1540.3 7264.4 1565.1 7289.1 1540.3 7264.4 1470 7334.7V7434.2H1370.5L1300.1 7504.6 1275.4 7529.3 1300.1 7504.6 840.602 7045 805.602 7010 840.602 7045V6804.8" fill="#78ffe6"/>
<path transform="matrix(.1,0,0,-.1,0,792)" stroke-width="7" stroke-linecap="butt" stroke-miterlimit="10" stroke-linejoin="miter" fill="none" stroke="#000000" d="M1080.8 6804.8H1130.3 1080.8L1540.3 7264.4 1565.1 7289.1 1540.3 7264.4 1470 7334.7V7434.2H1370.5L1300.1 7504.6 1275.4 7529.3 1300.1 7504.6 840.602 7045 805.602 7010 840.602 7045V6804.8Z"/>
<path transform="matrix(.1,0,0,-.1,0,792)" d="M1010.8 1958.9H1060.3 770.602V2199.2L805.602 2234.2 770.602 2199.2 600.699 2029.3 430.898 2199.2V2248.6 2199.2 1958.9H190.699L155.699 1993.9 190.699 1958.9 360.5 1789.1 190.699 1619.2H141.199 190.699 430.898V1379L395.898 1344 430.898 1379 600.699 1548.9 770.602 1379V1329.5 1379 1619.2H1010.8L1045.8 1584.2 1010.8 1619.2 840.898 1789.1" fill="#663d00"/>
<path transform="matrix(.1,0,0,-.1,0,792)" stroke-width="7" stroke-linecap="butt" stroke-miterlimit="10" stroke-linejoin="miter" fill="none" stroke="#000000" d="M1010.8 1958.9H1060.3 770.602V2199.2L805.602 2234.2 770.602 2199.2 600.699 2029.3 430.898 2199.2V2248.6 2199.2 1958.9H190.699L155.699 1993.9 190.699 1958.9 360.5 1789.1 190.699 1619.2H141.199 190.699 430.898V1379L395.898 1344 430.898 1379 600.699 1548.9 770.602 1379V1329.5 1379 1619.2H1010.8L1045.8 1584.2 1010.8 1619.2 840.898 1789.1Z"/>
<path transform="matrix(.1,0,0,-.1,0,792)" d="M1179.8 1549.2 1144.8 1584.2 1179.8 1549.2 1589.8 1139.2 1565.1 1114.4 1589.8 1139.2 1759.7 1309V1549.2H1794.7 1759.7" fill="#fff0f0"/>
<path transform="matrix(.1,0,0,-.1,0,792)" stroke-width="7" stroke-linecap="butt" stroke-miterlimit="10" stroke-linejoin="miter" fill="none" stroke="#000000" d="M1179.8 1549.2 1144.8 1584.2 1179.8 1549.2 1589.8 1139.2 1565.1 1114.4 1589.8 1139.2 1759.7 1309V1549.2H1794.7 1759.7Z"/>
<path transform="matrix(.1,0,0,-.1,0,792)" d="M1080.8 1549.2 1045.8 1584.2 1080.8 1549.2H840.602V1309 1259.5 1309L1300.1 849.5 1324.9 824.699 1300.1 849.5 1370.5 919.801H1470V1019.3L1540.3 1089.7 1565.1 1114.4 1540.3 1089.7" fill="#78ffe6"/>
<path transform="matrix(.1,0,0,-.1,0,792)" stroke-width="7" stroke-linecap="butt" stroke-miterlimit="10" stroke-linejoin="miter" fill="none" stroke="#000000" d="M1080.8 1549.2 1045.8 1584.2 1080.8 1549.2H840.602V1309 1259.5 1309L1300.1 849.5 1324.9 824.699 1300.1 849.5 1370.5 919.801H1470V1019.3L1540.3 1089.7 1565.1 1114.4 1540.3 1089.7Z"/>
<path transform="matrix(.1,0,0,-.1,0,792)" d="M4217.6 1549.2V1584.2 1309L4387.5 1139.2 4362.7 1114.4 4387.5 1139.2 4797.5 1549.2H4847 4797.5" fill="#fff0f0"/>
<path transform="matrix(.1,0,0,-.1,0,792)" stroke-width="7" stroke-linecap="butt" stroke-miterlimit="10" stroke-linejoin="miter" fill="none" stroke="#000000" d="M4217.6 1549.2V1584.2 1309L4387.5 1139.2 4362.7 1114.4 4387.5 1139.2 4797.5 1549.2H4847 4797.5Z"/>
<path transform="matrix(.1,0,0,-.1,0,792)" d="M4966.5 1619.2H4917 5206.7V1379L5171.7 1344 5206.7 1379 5376.6 1548.9 5546.4 1379V1329.5 1379 1619.2H5786.7L5821.7 1584.2 5786.7 1619.2 5616.8 1789.1 5786.7 1958.9H5836.2 5786.7 5546.4V2199.2L5581.4 2234.2 5546.4 2199.2 5376.6 2029.3 5206.7 2199.2V2248.6 2199.2 1958.9H4966.5L4931.5 1993.9 4966.5 1958.9 5136.4 1789.1" fill="#663d00"/>
<path transform="matrix(.1,0,0,-.1,0,792)" stroke-width="7" stroke-linecap="butt" stroke-miterlimit="10" stroke-linejoin="miter" fill="none" stroke="#000000" d="M4966.5 1619.2H4917 5206.7V1379L5171.7 1344 5206.7 1379 5376.6 1548.9 5546.4 1379V1329.5 1379 1619.2H5786.7L5821.7 1584.2 5786.7 1619.2 5616.8 1789.1 5786.7 1958.9H5836.2 5786.7 5546.4V2199.2L5581.4 2234.2 5546.4 2199.2 5376.6 2029.3 5206.7 2199.2V2248.6 2199.2 1958.9H4966.5L4931.5 1993.9 4966.5 1958.9 5136.4 1789.1Z"/>
<path transform="matrix(.1,0,0,-.1,0,792)" d="M4896.5 1549.2H4847 4896.5L4437 1089.7 4412.2 1064.9 4437 1089.7 4507.3 1019.3V919.801H4606.8L4677.2 849.5 4701.9 824.699 4677.2 849.5 5136.7 1309 5171.7 1344 5136.7 1309V1549.2" fill="#78ffe6"/>
<path transform="matrix(.1,0,0,-.1,0,792)" stroke-width="7" stroke-linecap="butt" stroke-miterlimit="10" stroke-linejoin="miter" fill="none" stroke="#000000" d="M4896.5 1549.2H4847 4896.5L4437 1089.7 4412.2 1064.9 4437 1089.7 4507.3 1019.3V919.801H4606.8L4677.2 849.5 4701.9 824.699 4677.2 849.5 5136.7 1309 5171.7 1344 5136.7 1309V1549.2Z"/>
<path transform="matrix(.1,0,0,-.1,0,792)" d="M4966.5 6395.1H4917 5206.7V6154.9L5171.7 6119.9 5206.7 6154.9 5376.6 6324.8 5546.4 6154.9V6105.4 6154.9 6395.1H5786.7L5821.7 6360.1 5786.7 6395.1 5616.8 6565 5786.7 6734.8H5836.2 5786.7 5546.4V6975L5581.4 7010 5546.4 6975 5376.6 6805.2 5206.7 6975V7024.5 6975 6734.8H4966.5L4931.5 6769.8 4966.5 6734.8 5136.4 6565" fill="#663d00"/>
<path transform="matrix(.1,0,0,-.1,0,792)" stroke-width="7" stroke-linecap="butt" stroke-miterlimit="10" stroke-linejoin="miter" fill="none" stroke="#000000" d="M4966.5 6395.1H4917 5206.7V6154.9L5171.7 6119.9 5206.7 6154.9 5376.6 6324.8 5546.4 6154.9V6105.4 6154.9 6395.1H5786.7L5821.7 6360.1 5786.7 6395.1 5616.8 6565 5786.7 6734.8H5836.2 5786.7 5546.4V6975L5581.4 7010 5546.4 6975 5376.6 6805.2 5206.7 6975V7024.5 6975 6734.8H4966.5L4931.5 6769.8 4966.5 6734.8 5136.4 6565Z"/>
<path transform="matrix(.1,0,0,-.1,0,792)" d="M4896.5 6804.8 4931.5 6769.8 4896.5 6804.8H5136.7V7045 7094.5 7045L4677.2 7504.6 4652.4 7529.3 4677.2 7504.6 4606.8 7434.2H4507.3V7334.7L4437 7264.4 4412.2 7239.6 4437 7264.4" fill="#78ffe6"/>
<path transform="matrix(.1,0,0,-.1,0,792)" stroke-width="7" stroke-linecap="butt" stroke-miterlimit="10" stroke-linejoin="miter" fill="none" stroke="#000000" d="M4896.5 6804.8 4931.5 6769.8 4896.5 6804.8H5136.7V7045 7094.5 7045L4677.2 7504.6 4652.4 7529.3 4677.2 7504.6 4606.8 7434.2H4507.3V7334.7L4437 7264.4 4412.2 7239.6 4437 7264.4Z"/>
<path transform="matrix(.1,0,0,-.1,0,792)" d="M770.602 7074 805.602 7109 770.602 7074V7758.9 7723.9H671.102L600.699 7794.3 530.398 7723.9H430.898 395.898 430.898V7074 7024.5 7074L600.699 6904.2" fill="#78ffe6"/>
<path transform="matrix(.1,0,0,-.1,0,792)" stroke-width="7" stroke-linecap="butt" stroke-miterlimit="10" stroke-linejoin="miter" fill="none" stroke="#000000" d="M770.602 7074 805.602 7109 770.602 7074V7758.9 7723.9H671.102L600.699 7794.3 530.398 7723.9H430.898 395.898 430.898V7074 7024.5 7074L600.699 6904.2Z"/>
<path transform="matrix(.1,0,0,-.1,0,792)" d="M840.602 7144 805.602 7109 840.602 7144 1250.6 7554.1 1275.4 7529.3 1250.6 7554.1 1080.8 7723.9H840.602V7758.9 7723.9" fill="#fff0f0"/>
<path transform="matrix(.1,0,0,-.1,0,792)" stroke-width="7" stroke-linecap="butt" stroke-miterlimit="10" stroke-linejoin="miter" fill="none" stroke="#000000" d="M840.602 7144 805.602 7109 840.602 7144 1250.6 7554.1 1275.4 7529.3 1250.6 7554.1 1080.8 7723.9H840.602V7758.9 7723.9Z"/>
<path transform="matrix(.1,0,0,-.1,0,792)" d="M770.602 6055.9V6105.4 6055.9L600.699 6225.8 430.898 6055.9 395.898 6020.9 430.898 6055.9V5406 5371 5406H530.398L600.699 5335.6 671.102 5406H770.602 805.602 770.602" fill="#78ffe6"/>
<path transform="matrix(.1,0,0,-.1,0,792)" stroke-width="7" stroke-linecap="butt" stroke-miterlimit="10" stroke-linejoin="miter" fill="none" stroke="#000000" d="M770.602 6055.9V6105.4 6055.9L600.699 6225.8 430.898 6055.9 395.898 6020.9 430.898 6055.9V5406 5371 5406H530.398L600.699 5335.6 671.102 5406H770.602 805.602 770.602Z"/>
<path transform="matrix(.1,0,0,-.1,0,792)" d="M770.602 5336H805.602 700.102L600.699 5236.6 501.398 5336H430.898V5371 5336 5095.8L600.699 4925.9 576 4901.2 600.699 4925.9 770.602 5095.8" fill="#663d00"/>
<path transform="matrix(.1,0,0,-.1,0,792)" stroke-width="7" stroke-linecap="butt" stroke-miterlimit="10" stroke-linejoin="miter" fill="none" stroke="#000000" d="M770.602 5336H805.602 700.102L600.699 5236.6 501.398 5336H430.898V5371 5336 5095.8L600.699 4925.9 576 4901.2 600.699 4925.9 770.602 5095.8Z"/>
<path transform="matrix(.1,0,0,-.1,0,792)" d="M770.602 3258.3 600.699 3428.1 625.5 3452.9 600.699 3428.1 430.898 3258.3V3018.1H395.898 430.898 501.398L600.699 3117.4 700.102 3018.1H770.602V2983.1 3018.1" fill="#663d00"/>
<path transform="matrix(.1,0,0,-.1,0,792)" stroke-width="7" stroke-linecap="butt" stroke-miterlimit="10" stroke-linejoin="miter" fill="none" stroke="#000000" d="M770.602 3258.3 600.699 3428.1 625.5 3452.9 600.699 3428.1 430.898 3258.3V3018.1H395.898 430.898 501.398L600.699 3117.4 700.102 3018.1H770.602V2983.1 3018.1Z"/>
<path transform="matrix(.1,0,0,-.1,0,792)" d="M770.602 2948.1V2983.1 2948.1H671.102L600.699 3018.4 530.398 2948.1H430.898 395.898 430.898V2298.1 2248.6 2298.1L600.699 2128.3 770.602 2298.1 805.602 2333.1 770.602 2298.1" fill="#78ffe6"/>
<path transform="matrix(.1,0,0,-.1,0,792)" stroke-width="7" stroke-linecap="butt" stroke-miterlimit="10" stroke-linejoin="miter" fill="none" stroke="#000000" d="M770.602 2948.1V2983.1 2948.1H671.102L600.699 3018.4 530.398 2948.1H430.898 395.898 430.898V2298.1 2248.6 2298.1L600.699 2128.3 770.602 2298.1 805.602 2333.1 770.602 2298.1Z"/>
<path transform="matrix(.1,0,0,-.1,0,792)" d="M840.602 1210V1259.5 630.102H805.602 840.602 1080.8L1250.6 800 1275.4 775.199 1250.6 800" fill="#fff0f0"/>
<path transform="matrix(.1,0,0,-.1,0,792)" stroke-width="7" stroke-linecap="butt" stroke-miterlimit="10" stroke-linejoin="miter" fill="none" stroke="#000000" d="M840.602 1210V1259.5 630.102H805.602 840.602 1080.8L1250.6 800 1275.4 775.199 1250.6 800Z"/>
<path transform="matrix(.1,0,0,-.1,0,792)" d="M770.602 1280V1329.5 1280L600.699 1449.9 430.898 1280 395.898 1245 430.898 1280V630.102 595.102 630.102H530.398L600.699 559.801 671.102 630.102H770.602 805.602 770.602" fill="#78ffe6"/>
<path transform="matrix(.1,0,0,-.1,0,792)" stroke-width="7" stroke-linecap="butt" stroke-miterlimit="10" stroke-linejoin="miter" fill="none" stroke="#000000" d="M770.602 1280V1329.5 1280L600.699 1449.9 430.898 1280 395.898 1245 430.898 1280V630.102 595.102 630.102H530.398L600.699 559.801 671.102 630.102H770.602 805.602 770.602Z"/>
<path transform="matrix(.1,0,0,-.1,0,792)" d="M5206.7 1280 5171.7 1245 5206.7 1280V595.102 630.102H5306.2L5376.6 559.801 5447 630.102H5546.4 5581.4 5546.4V1280 1329.5 1280L5376.6 1449.9" fill="#78ffe6"/>
<path transform="matrix(.1,0,0,-.1,0,792)" stroke-width="7" stroke-linecap="butt" stroke-miterlimit="10" stroke-linejoin="miter" fill="none" stroke="#000000" d="M5206.7 1280 5171.7 1245 5206.7 1280V595.102 630.102H5306.2L5376.6 559.801 5447 630.102H5546.4 5581.4 5546.4V1280 1329.5 1280L5376.6 1449.9Z"/>
<path transform="matrix(.1,0,0,-.1,0,792)" d="M5136.7 1210 5171.7 1245 5136.7 1210 4726.7 800 4701.9 824.699 4726.7 800 4896.5 630.102H5136.7V595.102 630.102" fill="#fff0f0"/>
<path transform="matrix(.1,0,0,-.1,0,792)" stroke-width="7" stroke-linecap="butt" stroke-miterlimit="10" stroke-linejoin="miter" fill="none" stroke="#000000" d="M5136.7 1210 5171.7 1245 5136.7 1210 4726.7 800 4701.9 824.699 4726.7 800 4896.5 630.102H5136.7V595.102 630.102Z"/>
<path transform="matrix(.1,0,0,-.1,0,792)" d="M5206.7 2298.1V2248.6 2298.1L5376.6 2128.3 5546.4 2298.1 5581.4 2333.1 5546.4 2298.1V2948.1 2983.1 2948.1H5447L5376.6 3018.4 5306.2 2948.1H5206.7 5171.7 5206.7" fill="#78ffe6"/>
<path transform="matrix(.1,0,0,-.1,0,792)" stroke-width="7" stroke-linecap="butt" stroke-miterlimit="10" stroke-linejoin="miter" fill="none" stroke="#000000" d="M5206.7 2298.1V2248.6 2298.1L5376.6 2128.3 5546.4 2298.1 5581.4 2333.1 5546.4 2298.1V2948.1 2983.1 2948.1H5447L5376.6 3018.4 5306.2 2948.1H5206.7 5171.7 5206.7Z"/>
<path transform="matrix(.1,0,0,-.1,0,792)" d="M5206.7 3018.1H5171.7 5277.2L5376.6 3117.4 5475.9 3018.1H5546.4V2983.1 3018.1 3258.3L5376.6 3428.1 5401.3 3452.9 5376.6 3428.1 5206.7 3258.3" fill="#663d00"/>
<path transform="matrix(.1,0,0,-.1,0,792)" stroke-width="7" stroke-linecap="butt" stroke-miterlimit="10" stroke-linejoin="miter" fill="none" stroke="#000000" d="M5206.7 3018.1H5171.7 5277.2L5376.6 3117.4 5475.9 3018.1H5546.4V2983.1 3018.1 3258.3L5376.6 3428.1 5401.3 3452.9 5376.6 3428.1 5206.7 3258.3Z"/>
<path transform="matrix(.1,0,0,-.1,0,792)" d="M5206.7 5095.8 5376.6 4925.9 5351.8 4901.2 5376.6 4925.9 5546.4 5095.8V5336H5581.4 5546.4 5475.9L5376.6 5236.6 5277.2 5336H5206.7V5371 5336" fill="#663d00"/>
<path transform="matrix(.1,0,0,-.1,0,792)" stroke-width="7" stroke-linecap="butt" stroke-miterlimit="10" stroke-linejoin="miter" fill="none" stroke="#000000" d="M5206.7 5095.8 5376.6 4925.9 5351.8 4901.2 5376.6 4925.9 5546.4 5095.8V5336H5581.4 5546.4 5475.9L5376.6 5236.6 5277.2 5336H5206.7V5371 5336Z"/>
<path transform="matrix(.1,0,0,-.1,0,792)" d="M5206.7 5406V5371 5406H5306.2L5376.6 5335.6 5447 5406H5546.4 5581.4 5546.4V6055.9 6105.4 6055.9L5376.6 6225.8 5206.7 6055.9 5171.7 6020.9 5206.7 6055.9" fill="#78ffe6"/>
<path transform="matrix(.1,0,0,-.1,0,792)" stroke-width="7" stroke-linecap="butt" stroke-miterlimit="10" stroke-linejoin="miter" fill="none" stroke="#000000" d="M5206.7 5406V5371 5406H5306.2L5376.6 5335.6 5447 5406H5546.4 5581.4 5546.4V6055.9 6105.4 6055.9L5376.6 6225.8 5206.7 6055.9 5171.7 6020.9 5206.7 6055.9Z"/>
<path transform="matrix(.1,0,0,-.1,0,792)" d="M5136.7 7144V7094.5 7723.9H5171.7 5136.7 4896.5L4726.7 7554.1 4701.9 7578.8 4726.7 7554.1" fill="#fff0f0"/>
<path transform="matrix(.1,0,0,-.1,0,792)" stroke-width="7" stroke-linecap="butt" stroke-miterlimit="10" stroke-linejoin="miter" fill="none" stroke="#000000" d="M5136.7 7144V7094.5 7723.9H5171.7 5136.7 4896.5L4726.7 7554.1 4701.9 7578.8 4726.7 7554.1Z"/>
<path transform="matrix(.1,0,0,-.1,0,792)" d="M5206.7 7074V7024.5 7074L5376.6 6904.2 5546.4 7074 5581.4 7109 5546.4 7074V7723.9 7758.9 7723.9H5447L5376.6 7794.3 5306.2 7723.9H5206.7 5171.7 5206.7" fill="#78ffe6"/>
<path transform="matrix(.1,0,0,-.1,0,792)" stroke-width="7" stroke-linecap="butt" stroke-miterlimit="10" stroke-linejoin="miter" fill="none" stroke="#000000" d="M5206.7 7074V7024.5 7074L5376.6 6904.2 5546.4 7074 5581.4 7109 5546.4 7074V7723.9 7758.9 7723.9H5447L5376.6 7794.3 5306.2 7723.9H5206.7 5171.7 5206.7Z"/>
<path transform="matrix(.1,0,0,-.1,0,792)" d="M4387.5 7313.9 4362.7 7289.1 4387.5 7313.9 4437.3 7363.7V7504.2H4577.8L4627.7 7554.1 4652.4 7529.3 4627.7 7554.1 4457.8 7723.9H4217.6V7758.9 7723.9 7483.7" fill="#663d00"/>
<path transform="matrix(.1,0,0,-.1,0,792)" stroke-width="7" stroke-linecap="butt" stroke-miterlimit="10" stroke-linejoin="miter" fill="none" stroke="#000000" d="M4387.5 7313.9 4362.7 7289.1 4387.5 7313.9 4437.3 7363.7V7504.2H4577.8L4627.7 7554.1 4652.4 7529.3 4627.7 7554.1 4457.8 7723.9H4217.6V7758.9 7723.9 7483.7Z"/>
<path transform="matrix(.1,0,0,-.1,0,792)" d="M2988.7 7313.9 2963.9 7289.1 2988.7 7313.9 3158.5 7483.7V7723.9H3193.5 3158.5 3088L2988.7 7624.6 2889.3 7723.9H2818.8V7758.9 7723.9 7483.7" fill="#663d00"/>
<path transform="matrix(.1,0,0,-.1,0,792)" stroke-width="7" stroke-linecap="butt" stroke-miterlimit="10" stroke-linejoin="miter" fill="none" stroke="#000000" d="M2988.7 7313.9 2963.9 7289.1 2988.7 7313.9 3158.5 7483.7V7723.9H3193.5 3158.5 3088L2988.7 7624.6 2889.3 7723.9H2818.8V7758.9 7723.9 7483.7Z"/>
<path transform="matrix(.1,0,0,-.1,0,792)" d="M1589.8 7313.9 1565.1 7289.1 1589.8 7313.9 1759.7 7483.7V7723.9H1794.7 1759.7 1519.5L1349.6 7554.1 1324.9 7578.8 1349.6 7554.1 1399.5 7504.2H1540V7363.7" fill="#663d00"/>
<path transform="matrix(.1,0,0,-.1,0,792)" stroke-width="7" stroke-linecap="butt" stroke-miterlimit="10" stroke-linejoin="miter" fill="none" stroke="#000000" d="M1589.8 7313.9 1565.1 7289.1 1589.8 7313.9 1759.7 7483.7V7723.9H1794.7 1759.7 1519.5L1349.6 7554.1 1324.9 7578.8 1349.6 7554.1 1399.5 7504.2H1540V7363.7Z"/>
<path transform="matrix(.1,0,0,-.1,0,792)" d="M1589.8 1040.2 1614.6 1064.9 1589.8 1040.2 1540 990.301V849.801H1399.5L1349.6 800 1324.9 824.699 1349.6 800 1519.5 630.102H1759.7V595.102 630.102 870.301" fill="#663d00"/>
<path transform="matrix(.1,0,0,-.1,0,792)" stroke-width="7" stroke-linecap="butt" stroke-miterlimit="10" stroke-linejoin="miter" fill="none" stroke="#000000" d="M1589.8 1040.2 1614.6 1064.9 1589.8 1040.2 1540 990.301V849.801H1399.5L1349.6 800 1324.9 824.699 1349.6 800 1519.5 630.102H1759.7V595.102 630.102 870.301Z"/>
<path transform="matrix(.1,0,0,-.1,0,792)" d="M2988.7 1040.2 3013.4 1064.9 2988.7 1040.2 2818.8 870.301V630.102H2783.8 2818.8 2889.3L2988.7 729.5 3088 630.102H3158.5V595.102 630.102 870.301" fill="#663d00"/>
<path transform="matrix(.1,0,0,-.1,0,792)" stroke-width="7" stroke-linecap="butt" stroke-miterlimit="10" stroke-linejoin="miter" fill="none" stroke="#000000" d="M2988.7 1040.2 3013.4 1064.9 2988.7 1040.2 2818.8 870.301V630.102H2783.8 2818.8 2889.3L2988.7 729.5 3088 630.102H3158.5V595.102 630.102 870.301Z"/>
<path transform="matrix(.1,0,0,-.1,0,792)" d="M4387.5 1040.2 4412.2 1064.9 4387.5 1040.2 4217.6 870.301V630.102H4182.6 4217.6 4457.8L4627.7 800 4652.4 775.199 4627.7 800 4577.8 849.801H4437.3V990.301" fill="#663d00"/>
<path transform="matrix(.1,0,0,-.1,0,792)" stroke-width="7" stroke-linecap="butt" stroke-miterlimit="10" stroke-linejoin="miter" fill="none" stroke="#000000" d="M4387.5 1040.2 4412.2 1064.9 4387.5 1040.2 4217.6 870.301V630.102H4182.6 4217.6 4457.8L4627.7 800 4652.4 775.199 4627.7 800 4577.8 849.801H4437.3V990.301Z"/>
<path transform="matrix(.1,0,0,-.1,0,792)" d="M551.199 4876.4 576 4901.2 551.199 4876.4 360.898 5066.8V5336 5371 5336H91.6992L-98.6992 5526.4-123.398 5551.1-98.6992 5526.4-289 5336H-558.301-593.301-558.301V5066.8L-748.602 4876.4-773.398 4851.7-748.602 4876.4-558.301 4686.1V4416.9 4381.9 4416.9H-289L-98.6992 4226.5-73.8984 4201.8-98.6992 4226.5 91.6992 4416.9H360.898V4686.1" fill="#ffcccc"/>
<path transform="matrix(.1,0,0,-.1,0,792)" stroke-width="7" stroke-linecap="butt" stroke-miterlimit="10" stroke-linejoin="miter" fill="none" stroke="#000000" d="M551.199 4876.4 576 4901.2 551.199 4876.4 360.898 5066.8V5336 5371 5336H91.6992L-98.6992 5526.4-123.398 5551.1-98.6992 5526.4-289 5336H-558.301-593.301-558.301V5066.8L-748.602 4876.4-773.398 4851.7-748.602 4876.4-558.301 4686.1V4416.9 4381.9 4416.9H-289L-98.6992 4226.5-73.8984 4201.8-98.6992 4226.5 91.6992 4416.9H360.898V4686.1Z"/>
<path transform="matrix(.1,0,0,-.1,0,792)" d="M551.199 3477.6 576 3502.4 551.199 3477.6 360.898 3668V3937.2H91.6992L-98.6992 4127.5-123.398 4152.3-98.6992 4127.5-289 3937.2H-558.301-593.301-558.301V3668L-748.602 3477.6-773.398 3452.9-748.602 3477.6-558.301 3287.3V3018.1 2983.1 3018.1H-289L-98.6992 2827.7-73.8984 2803-98.6992 2827.7 91.6992 3018.1H360.898 395.898 360.898V3287.3" fill="#ffcccc"/>
<path transform="matrix(.1,0,0,-.1,0,792)" stroke-width="7" stroke-linecap="butt" stroke-miterlimit="10" stroke-linejoin="miter" fill="none" stroke="#000000" d="M551.199 3477.6 576 3502.4 551.199 3477.6 360.898 3668V3937.2H91.6992L-98.6992 4127.5-123.398 4152.3-98.6992 4127.5-289 3937.2H-558.301-593.301-558.301V3668L-748.602 3477.6-773.398 3452.9-748.602 3477.6-558.301 3287.3V3018.1 2983.1 3018.1H-289L-98.6992 2827.7-73.8984 2803-98.6992 2827.7 91.6992 3018.1H360.898 395.898 360.898V3287.3Z"/>
<path transform="matrix(.1,0,0,-.1,0,792)" d="M5426.1 3477.6 5401.3 3452.9 5426.1 3477.6 5616.4 3287.3V3018.1 2983.1 3018.1H5885.7L6076 2827.7 6100.8 2803 6076 2827.7 6266.4 3018.1H6535.6 6570.6 6535.6V3287.3L6725.9 3477.6 6750.7 3502.4 6725.9 3477.6 6535.6 3668V3937.2 3972.2 3937.2H6266.4L6076 4127.5 6051.3 4152.3 6076 4127.5 5885.7 3937.2H5616.4V3668" fill="#ffcccc"/>
<path transform="matrix(.1,0,0,-.1,0,792)" stroke-width="7" stroke-linecap="butt" stroke-miterlimit="10" stroke-linejoin="miter" fill="none" stroke="#000000" d="M5426.1 3477.6 5401.3 3452.9 5426.1 3477.6 5616.4 3287.3V3018.1 2983.1 3018.1H5885.7L6076 2827.7 6100.8 2803 6076 2827.7 6266.4 3018.1H6535.6 6570.6 6535.6V3287.3L6725.9 3477.6 6750.7 3502.4 6725.9 3477.6 6535.6 3668V3937.2 3972.2 3937.2H6266.4L6076 4127.5 6051.3 4152.3 6076 4127.5 5885.7 3937.2H5616.4V3668Z"/>
<path transform="matrix(.1,0,0,-.1,0,792)" d="M5426.1 4876.4 5401.3 4851.7 5426.1 4876.4 5616.4 4686.1V4416.9H5885.7L6076 4226.5 6100.8 4201.8 6076 4226.5 6266.4 4416.9H6535.6 6570.6 6535.6V4686.1L6725.9 4876.4 6750.7 4901.2 6725.9 4876.4 6535.6 5066.8V5336 5371 5336H6266.4L6076 5526.4 6051.3 5551.1 6076 5526.4 5885.7 5336H5616.4 5581.4 5616.4V5066.8" fill="#ffcccc"/>
<path transform="matrix(.1,0,0,-.1,0,792)" stroke-width="7" stroke-linecap="butt" stroke-miterlimit="10" stroke-linejoin="miter" fill="none" stroke="#000000" d="M5426.1 4876.4 5401.3 4851.7 5426.1 4876.4 5616.4 4686.1V4416.9H5885.7L6076 4226.5 6100.8 4201.8 6076 4226.5 6266.4 4416.9H6535.6 6570.6 6535.6V4686.1L6725.9 4876.4 6750.7 4901.2 6725.9 4876.4 6535.6 5066.8V5336 5371 5336H6266.4L6076 5526.4 6051.3 5551.1 6076 5526.4 5885.7 5336H5616.4 5581.4 5616.4V5066.8Z"/>
<path transform="matrix(.1,0,0,-.1,0,792)" d="M4677.2 7603.6 4701.9 7578.8 4677.2 7603.6 4867.5 7793.9H5136.7 5171.7 5136.7V8063.1L5327.1 8253.5 5351.8 8278.2 5327.1 8253.5 5136.7 8443.9V8713.1H4867.5L4677.2 8903.4 4652.4 8928.2 4677.2 8903.4 4486.8 8713.1H4217.6 4182.6 4217.6V8443.9L4027.3 8253.5 4002.5 8228.7 4027.3 8253.5 4217.6 8063.1V7793.9 7758.9 7793.9H4486.8" fill="#ffcccc"/>
<path transform="matrix(.1,0,0,-.1,0,792)" stroke-width="7" stroke-linecap="butt" stroke-miterlimit="10" stroke-linejoin="miter" fill="none" stroke="#000000" d="M4677.2 7603.6 4701.9 7578.8 4677.2 7603.6 4867.5 7793.9H5136.7 5171.7 5136.7V8063.1L5327.1 8253.5 5351.8 8278.2 5327.1 8253.5 5136.7 8443.9V8713.1H4867.5L4677.2 8903.4 4652.4 8928.2 4677.2 8903.4 4486.8 8713.1H4217.6 4182.6 4217.6V8443.9L4027.3 8253.5 4002.5 8228.7 4027.3 8253.5 4217.6 8063.1V7793.9 7758.9 7793.9H4486.8Z"/>
<path transform="matrix(.1,0,0,-.1,0,792)" d="M1300.1 7603.6 1324.9 7578.8 1300.1 7603.6 1490.5 7793.9H1759.7 1794.7 1759.7V8063.1L1950 8253.5 1974.8 8278.2 1950 8253.5 1759.7 8443.9V8713.1 8748.1 8713.1H1490.5L1300.1 8903.4 1275.4 8928.2 1300.1 8903.4 1109.8 8713.1H840.602V8443.9L650.199 8253.5 625.5 8228.7 650.199 8253.5 840.602 8063.1V7793.9 7758.9 7793.9H1109.8" fill="#ffcccc"/>
<path transform="matrix(.1,0,0,-.1,0,792)" stroke-width="7" stroke-linecap="butt" stroke-miterlimit="10" stroke-linejoin="miter" fill="none" stroke="#000000" d="M1300.1 7603.6 1324.9 7578.8 1300.1 7603.6 1490.5 7793.9H1759.7 1794.7 1759.7V8063.1L1950 8253.5 1974.8 8278.2 1950 8253.5 1759.7 8443.9V8713.1 8748.1 8713.1H1490.5L1300.1 8903.4 1275.4 8928.2 1300.1 8903.4 1109.8 8713.1H840.602V8443.9L650.199 8253.5 625.5 8228.7 650.199 8253.5 840.602 8063.1V7793.9 7758.9 7793.9H1109.8Z"/>
<path transform="matrix(.1,0,0,-.1,0,792)" d="M1300.1 750.5 1275.4 775.199 1300.1 750.5 1109.8 560.102H840.602 805.602 840.602V290.898L650.199 100.602 625.5 75.8008 650.199 100.602 840.602-89.8008V-359H1109.8L1300.1-549.398 1324.9-574.102 1300.1-549.398 1490.5-359H1759.7 1794.7 1759.7V-89.8008L1950 100.602 1974.8 125.301 1950 100.602 1759.7 290.898V560.102 595.102 560.102H1490.5" fill="#ffcccc"/>
<path transform="matrix(.1,0,0,-.1,0,792)" stroke-width="7" stroke-linecap="butt" stroke-miterlimit="10" stroke-linejoin="miter" fill="none" stroke="#000000" d="M1300.1 750.5 1275.4 775.199 1300.1 750.5 1109.8 560.102H840.602 805.602 840.602V290.898L650.199 100.602 625.5 75.8008 650.199 100.602 840.602-89.8008V-359H1109.8L1300.1-549.398 1324.9-574.102 1300.1-549.398 1490.5-359H1759.7 1794.7 1759.7V-89.8008L1950 100.602 1974.8 125.301 1950 100.602 1759.7 290.898V560.102 595.102 560.102H1490.5Z"/>
<path transform="matrix(.1,0,0,-.1,0,792)" d="M4677.2 750.5 4652.4 775.199 4677.2 750.5 4486.8 560.102H4217.6 4182.6 4217.6V290.898L4027.3 100.602 4002.5 75.8008 4027.3 100.602 4217.6-89.8008V-359-394-359H4486.8L4677.2-549.398 4701.9-574.102 4677.2-549.398 4867.5-359H5136.7V-89.8008L5327.1 100.602 5351.8 125.301 5327.1 100.602 5136.7 290.898V560.102 595.102 560.102H4867.5" fill="#ffcccc"/>
<path transform="matrix(.1,0,0,-.1,0,792)" stroke-width="7" stroke-linecap="butt" stroke-miterlimit="10" stroke-linejoin="miter" fill="none" stroke="#000000" d="M4677.2 750.5 4652.4 775.199 4677.2 750.5 4486.8 560.102H4217.6 4182.6 4217.6V290.898L4027.3 100.602 4002.5 75.8008 4027.3 100.602 4217.6-89.8008V-359-394-359H4486.8L4677.2-549.398 4701.9-574.102 4677.2-549.398 4867.5-359H5136.7V-89.8008L5327.1 100.602 5351.8 125.301 5327.1 100.602 5136.7 290.898V560.102 595.102 560.102H4867.5Z"/>
<path transform="matrix(.1,0,0,-.1,0,792)" d="M2988.7 7723.6 3059 7793.9H3193.5 3158.5V8443.9 8493.3 8443.9L2988.7 8613.7 2818.8 8443.9 2783.8 8408.9 2818.8 8443.9V7793.9 7758.9 7793.9H2918.3" fill="#78ffe6"/>
<path transform="matrix(.1,0,0,-.1,0,792)" stroke-width="7" stroke-linecap="butt" stroke-miterlimit="10" stroke-linejoin="miter" fill="none" stroke="#000000" d="M2988.7 7723.6 3059 7793.9H3193.5 3158.5V8443.9 8493.3 8443.9L2988.7 8613.7 2818.8 8443.9 2783.8 8408.9 2818.8 8443.9V7793.9 7758.9 7793.9H2918.3Z"/>
<path transform="matrix(.1,0,0,-.1,0,792)" d="M2988.7 630.5 2918.3 560.102H2783.8 2818.8V-89.8008-139.301-89.8008L2988.7-259.602 3158.5-89.8008 3193.5-54.8008 3158.5-89.8008V560.102 595.102 560.102H3059" fill="#78ffe6"/>
<path transform="matrix(.1,0,0,-.1,0,792)" stroke-width="7" stroke-linecap="butt" stroke-miterlimit="10" stroke-linejoin="miter" fill="none" stroke="#000000" d="M2988.7 630.5 2918.3 560.102H2783.8 2818.8V-89.8008-139.301-89.8008L2988.7-259.602 3158.5-89.8008 3193.5-54.8008 3158.5-89.8008V560.102 595.102 560.102H3059Z"/>
<path transform="matrix(.1,0,0,-.1,0,792)" d="M5475.9 7793.9H5546.4V7758.9 8034.1L5376.6 8204 5401.3 8228.7 5376.6 8204 5206.7 8034.1V7793.9H5171.7 5206.7 5277.2L5376.6 7893.3" fill="#663d00"/>
<path transform="matrix(.1,0,0,-.1,0,792)" stroke-width="7" stroke-linecap="butt" stroke-miterlimit="10" stroke-linejoin="miter" fill="none" stroke="#000000" d="M5475.9 7793.9H5546.4V7758.9 8034.1L5376.6 8204 5401.3 8228.7 5376.6 8204 5206.7 8034.1V7793.9H5171.7 5206.7 5277.2L5376.6 7893.3Z"/>
<path transform="matrix(.1,0,0,-.1,0,792)" d="M4147.6 7793.9V7758.9 8034.1L3977.8 8204 4002.5 8228.7 3977.8 8204 3927.9 8154.1V8013.6H3787.4L3737.6 7963.8 3712.8 7988.5 3737.6 7963.8 3907.4 7793.9" fill="#663d00"/>
<path transform="matrix(.1,0,0,-.1,0,792)" stroke-width="7" stroke-linecap="butt" stroke-miterlimit="10" stroke-linejoin="miter" fill="none" stroke="#000000" d="M4147.6 7793.9V7758.9 8034.1L3977.8 8204 4002.5 8228.7 3977.8 8204 3927.9 8154.1V8013.6H3787.4L3737.6 7963.8 3712.8 7988.5 3737.6 7963.8 3907.4 7793.9Z"/>
<path transform="matrix(.1,0,0,-.1,0,792)" d="M3468.7 7793.9 3638.6 7963.8 3663.3 7939 3638.6 7963.8 3228.5 8373.9V8423.3 8373.9 7793.9H3193.5 3228.5" fill="#fff0f0"/>
<path transform="matrix(.1,0,0,-.1,0,792)" stroke-width="7" stroke-linecap="butt" stroke-miterlimit="10" stroke-linejoin="miter" fill="none" stroke="#000000" d="M3468.7 7793.9 3638.6 7963.8 3663.3 7939 3638.6 7963.8 3228.5 8373.9V8423.3 8373.9 7793.9H3193.5 3228.5Z"/>
<path transform="matrix(.1,0,0,-.1,0,792)" d="M2748.8 7793.9V7758.9 8373.9L2783.8 8408.9 2748.8 8373.9 2338.7 7963.8 2314 7988.5 2338.7 7963.8 2508.6 7793.9" fill="#fff0f0"/>
<path transform="matrix(.1,0,0,-.1,0,792)" stroke-width="7" stroke-linecap="butt" stroke-miterlimit="10" stroke-linejoin="miter" fill="none" stroke="#000000" d="M2748.8 7793.9V7758.9 8373.9L2783.8 8408.9 2748.8 8373.9 2338.7 7963.8 2314 7988.5 2338.7 7963.8 2508.6 7793.9Z"/>
<path transform="matrix(.1,0,0,-.1,0,792)" d="M2069.9 7793.9 2239.7 7963.8 2264.5 7939 2239.7 7963.8 2189.9 8013.6H2049.4V8154.1L1999.5 8204 2024.3 8228.7 1999.5 8204 1829.7 8034.1V7793.9H1794.7 1829.7" fill="#663d00"/>
<path transform="matrix(.1,0,0,-.1,0,792)" stroke-width="7" stroke-linecap="butt" stroke-miterlimit="10" stroke-linejoin="miter" fill="none" stroke="#000000" d="M2069.9 7793.9 2239.7 7963.8 2264.5 7939 2239.7 7963.8 2189.9 8013.6H2049.4V8154.1L1999.5 8204 2024.3 8228.7 1999.5 8204 1829.7 8034.1V7793.9H1794.7 1829.7Z"/>
<path transform="matrix(.1,0,0,-.1,0,792)" d="M770.602 7793.9V7758.9 8034.1L600.699 8204 625.5 8228.7 600.699 8204 430.898 8034.1V7793.9H395.898 430.898 501.398L600.699 7893.3 700.102 7793.9" fill="#663d00"/>
<path transform="matrix(.1,0,0,-.1,0,792)" stroke-width="7" stroke-linecap="butt" stroke-miterlimit="10" stroke-linejoin="miter" fill="none" stroke="#000000" d="M770.602 7793.9V7758.9 8034.1L600.699 8204 625.5 8228.7 600.699 8204 430.898 8034.1V7793.9H395.898 430.898 501.398L600.699 7893.3 700.102 7793.9Z"/>
<path transform="matrix(.1,0,0,-.1,0,792)" d="M360.898 7723.9H395.898 120.699L-49.1992 7554.1-73.8984 7578.8-49.1992 7554.1 360.898 7144V7094.5 7144" fill="#fff0f0"/>
<path transform="matrix(.1,0,0,-.1,0,792)" stroke-width="7" stroke-linecap="butt" stroke-miterlimit="10" stroke-linejoin="miter" fill="none" stroke="#000000" d="M360.898 7723.9H395.898 120.699L-49.1992 7554.1-73.8984 7578.8-49.1992 7554.1 360.898 7144V7094.5 7144Z"/>
<path transform="matrix(.1,0,0,-.1,0,792)" d="M360.898 7793.9H395.898 360.898V8063.1L551.199 8253.5 576 8278.2 551.199 8253.5 360.898 8443.9V8713.1H91.6992L-98.6992 8903.4-123.398 8928.2-98.6992 8903.4-289 8713.1H-558.301-593.301-558.301V8443.9L-748.602 8253.5-773.398 8228.7-748.602 8253.5-558.301 8063.1V7793.9 7758.9 7793.9H-289L-98.6992 7603.6-73.8984 7578.8-98.6992 7603.6 91.6992 7793.9" fill="#ffcccc"/>
<path transform="matrix(.1,0,0,-.1,0,792)" stroke-width="7" stroke-linecap="butt" stroke-miterlimit="10" stroke-linejoin="miter" fill="none" stroke="#000000" d="M360.898 7793.9H395.898 360.898V8063.1L551.199 8253.5 576 8278.2 551.199 8253.5 360.898 8443.9V8713.1H91.6992L-98.6992 8903.4-123.398 8928.2-98.6992 8903.4-289 8713.1H-558.301-593.301-558.301V8443.9L-748.602 8253.5-773.398 8228.7-748.602 8253.5-558.301 8063.1V7793.9 7758.9 7793.9H-289L-98.6992 7603.6-73.8984 7578.8-98.6992 7603.6 91.6992 7793.9Z"/>
<path transform="matrix(.1,0,0,-.1,0,792)" d="M360.898 7045V7094.5 7045L-98.6992 7504.6-123.398 7529.3-98.6992 7504.6-169 7434.2H-268.5V7334.7L-338.898 7264.4-363.699 7239.6-338.898 7264.4 120.699 6804.8 155.699 6769.8 120.699 6804.8H360.898" fill="#78ffe6"/>
<path transform="matrix(.1,0,0,-.1,0,792)" stroke-width="7" stroke-linecap="butt" stroke-miterlimit="10" stroke-linejoin="miter" fill="none" stroke="#000000" d="M360.898 7045V7094.5 7045L-98.6992 7504.6-123.398 7529.3-98.6992 7504.6-169 7434.2H-268.5V7334.7L-338.898 7264.4-363.699 7239.6-338.898 7264.4 120.699 6804.8 155.699 6769.8 120.699 6804.8H360.898Z"/>
<path transform="matrix(.1,0,0,-.1,0,792)" d="M360.898 6325.1H71.1992 120.699L-338.898 5865.6-363.699 5840.8-338.898 5865.6-268.5 5795.2V5695.7H-169L-98.6992 5625.3-73.8984 5600.6-98.6992 5625.3 360.898 6084.9 395.898 6119.9 360.898 6084.9" fill="#78ffe6"/>
<path transform="matrix(.1,0,0,-.1,0,792)" stroke-width="7" stroke-linecap="butt" stroke-miterlimit="10" stroke-linejoin="miter" fill="none" stroke="#000000" d="M360.898 6325.1H71.1992 120.699L-338.898 5865.6-363.699 5840.8-338.898 5865.6-268.5 5795.2V5695.7H-169L-98.6992 5625.3-73.8984 5600.6-98.6992 5625.3 360.898 6084.9 395.898 6119.9 360.898 6084.9Z"/>
<path transform="matrix(.1,0,0,-.1,0,792)" d="M360.898 5985.9 395.898 6020.9 360.898 5985.9-49.1992 5575.9-73.8984 5600.6-49.1992 5575.9 120.699 5406H360.898V5371 5406" fill="#fff0f0"/>
<path transform="matrix(.1,0,0,-.1,0,792)" stroke-width="7" stroke-linecap="butt" stroke-miterlimit="10" stroke-linejoin="miter" fill="none" stroke="#000000" d="M360.898 5985.9 395.898 6020.9 360.898 5985.9-49.1992 5575.9-73.8984 5600.6-49.1992 5575.9 120.699 5406H360.898V5371 5406Z"/>
<path transform="matrix(.1,0,0,-.1,0,792)" d="M360.898 2948.1H395.898 120.699L-49.1992 2778.2-73.8984 2803-49.1992 2778.2 360.898 2368.1V2318.6 2368.1" fill="#fff0f0"/>
<path transform="matrix(.1,0,0,-.1,0,792)" stroke-width="7" stroke-linecap="butt" stroke-miterlimit="10" stroke-linejoin="miter" fill="none" stroke="#000000" d="M360.898 2948.1H395.898 120.699L-49.1992 2778.2-73.8984 2803-49.1992 2778.2 360.898 2368.1V2318.6 2368.1Z"/>
<path transform="matrix(.1,0,0,-.1,0,792)" d="M360.898 2269.2V2318.6 2269.2L-98.6992 2728.7-123.398 2753.5-98.6992 2728.7-169 2658.4H-268.5V2558.9L-338.898 2488.5-363.699 2463.8-338.898 2488.5 120.699 2028.9 155.699 1993.9 120.699 2028.9H360.898" fill="#78ffe6"/>
<path transform="matrix(.1,0,0,-.1,0,792)" stroke-width="7" stroke-linecap="butt" stroke-miterlimit="10" stroke-linejoin="miter" fill="none" stroke="#000000" d="M360.898 2269.2V2318.6 2269.2L-98.6992 2728.7-123.398 2753.5-98.6992 2728.7-169 2658.4H-268.5V2558.9L-338.898 2488.5-363.699 2463.8-338.898 2488.5 120.699 2028.9 155.699 1993.9 120.699 2028.9H360.898Z"/>
<path transform="matrix(.1,0,0,-.1,0,792)" d="M360.898 1549.2H71.1992 120.699L-338.898 1089.7-363.699 1064.9-338.898 1089.7-268.5 1019.3V919.801H-169L-98.6992 849.5-73.8984 824.699-98.6992 849.5 360.898 1309 395.898 1344 360.898 1309" fill="#78ffe6"/>
<path transform="matrix(.1,0,0,-.1,0,792)" stroke-width="7" stroke-linecap="butt" stroke-miterlimit="10" stroke-linejoin="miter" fill="none" stroke="#000000" d="M360.898 1549.2H71.1992 120.699L-338.898 1089.7-363.699 1064.9-338.898 1089.7-268.5 1019.3V919.801H-169L-98.6992 849.5-73.8984 824.699-98.6992 849.5 360.898 1309 395.898 1344 360.898 1309Z"/>
<path transform="matrix(.1,0,0,-.1,0,792)" d="M360.898 1210 395.898 1245 360.898 1210-49.1992 800-73.8984 824.699-49.1992 800 120.699 630.102H360.898V595.102 630.102" fill="#fff0f0"/>
<path transform="matrix(.1,0,0,-.1,0,792)" stroke-width="7" stroke-linecap="butt" stroke-miterlimit="10" stroke-linejoin="miter" fill="none" stroke="#000000" d="M360.898 1210 395.898 1245 360.898 1210-49.1992 800-73.8984 824.699-49.1992 800 120.699 630.102H360.898V595.102 630.102Z"/>
<path transform="matrix(.1,0,0,-.1,0,792)" d="M5616.4 1309V1259.5 1309L6076 849.5 6100.8 824.699 6076 849.5 6146.4 919.801H6245.9V1019.3L6316.2 1089.7 6341 1114.4 6316.2 1089.7 5856.7 1549.2 5821.7 1584.2 5856.7 1549.2H5616.4" fill="#78ffe6"/>
<path transform="matrix(.1,0,0,-.1,0,792)" stroke-width="7" stroke-linecap="butt" stroke-miterlimit="10" stroke-linejoin="miter" fill="none" stroke="#000000" d="M5616.4 1309V1259.5 1309L6076 849.5 6100.8 824.699 6076 849.5 6146.4 919.801H6245.9V1019.3L6316.2 1089.7 6341 1114.4 6316.2 1089.7 5856.7 1549.2 5821.7 1584.2 5856.7 1549.2H5616.4Z"/>
<path transform="matrix(.1,0,0,-.1,0,792)" d="M5616.4 1210V1259.5 630.102H5581.4 5616.4 5856.7L6026.5 800 6051.3 775.199 6026.5 800" fill="#fff0f0"/>
<path transform="matrix(.1,0,0,-.1,0,792)" stroke-width="7" stroke-linecap="butt" stroke-miterlimit="10" stroke-linejoin="miter" fill="none" stroke="#000000" d="M5616.4 1210V1259.5 630.102H5581.4 5616.4 5856.7L6026.5 800 6051.3 775.199 6026.5 800Z"/>
<path transform="matrix(.1,0,0,-.1,0,792)" d="M5616.4 2028.9H5906.2 5856.7L6316.2 2488.5 6341 2513.3 6316.2 2488.5 6245.9 2558.9V2658.4H6146.4L6076 2728.7 6051.3 2753.5 6076 2728.7 5616.4 2269.2 5581.4 2234.2 5616.4 2269.2" fill="#78ffe6"/>
<path transform="matrix(.1,0,0,-.1,0,792)" stroke-width="7" stroke-linecap="butt" stroke-miterlimit="10" stroke-linejoin="miter" fill="none" stroke="#000000" d="M5616.4 2028.9H5906.2 5856.7L6316.2 2488.5 6341 2513.3 6316.2 2488.5 6245.9 2558.9V2658.4H6146.4L6076 2728.7 6051.3 2753.5 6076 2728.7 5616.4 2269.2 5581.4 2234.2 5616.4 2269.2Z"/>
<path transform="matrix(.1,0,0,-.1,0,792)" d="M5616.4 2368.1 5581.4 2333.1 5616.4 2368.1 6026.5 2778.2 6051.3 2753.5 6026.5 2778.2 5856.7 2948.1H5616.4V2983.1 2948.1" fill="#fff0f0"/>
<path transform="matrix(.1,0,0,-.1,0,792)" stroke-width="7" stroke-linecap="butt" stroke-miterlimit="10" stroke-linejoin="miter" fill="none" stroke="#000000" d="M5616.4 2368.1 5581.4 2333.1 5616.4 2368.1 6026.5 2778.2 6051.3 2753.5 6026.5 2778.2 5856.7 2948.1H5616.4V2983.1 2948.1Z"/>
<path transform="matrix(.1,0,0,-.1,0,792)" d="M5616.4 5406H5581.4 5856.7L6026.5 5575.9 6051.3 5551.1 6026.5 5575.9 5616.4 5985.9V6035.4 5985.9" fill="#fff0f0"/>
<path transform="matrix(.1,0,0,-.1,0,792)" stroke-width="7" stroke-linecap="butt" stroke-miterlimit="10" stroke-linejoin="miter" fill="none" stroke="#000000" d="M5616.4 5406H5581.4 5856.7L6026.5 5575.9 6051.3 5551.1 6026.5 5575.9 5616.4 5985.9V6035.4 5985.9Z"/>
<path transform="matrix(.1,0,0,-.1,0,792)" d="M5616.4 6084.9V6035.4 6084.9L6076 5625.3 6100.8 5600.6 6076 5625.3 6146.4 5695.7H6245.9V5795.2L6316.2 5865.6 6341 5890.3 6316.2 5865.6 5856.7 6325.1 5821.7 6360.1 5856.7 6325.1H5616.4" fill="#78ffe6"/>
<path transform="matrix(.1,0,0,-.1,0,792)" stroke-width="7" stroke-linecap="butt" stroke-miterlimit="10" stroke-linejoin="miter" fill="none" stroke="#000000" d="M5616.4 6084.9V6035.4 6084.9L6076 5625.3 6100.8 5600.6 6076 5625.3 6146.4 5695.7H6245.9V5795.2L6316.2 5865.6 6341 5890.3 6316.2 5865.6 5856.7 6325.1 5821.7 6360.1 5856.7 6325.1H5616.4Z"/>
<path transform="matrix(.1,0,0,-.1,0,792)" d="M5616.4 6804.8H5906.2 5856.7L6316.2 7264.4 6341 7289.1 6316.2 7264.4 6245.9 7334.7V7434.2H6146.4L6076 7504.6 6051.3 7529.3 6076 7504.6 5616.4 7045 5581.4 7010 5616.4 7045" fill="#78ffe6"/>
<path transform="matrix(.1,0,0,-.1,0,792)" stroke-width="7" stroke-linecap="butt" stroke-miterlimit="10" stroke-linejoin="miter" fill="none" stroke="#000000" d="M5616.4 6804.8H5906.2 5856.7L6316.2 7264.4 6341 7289.1 6316.2 7264.4 6245.9 7334.7V7434.2H6146.4L6076 7504.6 6051.3 7529.3 6076 7504.6 5616.4 7045 5581.4 7010 5616.4 7045Z"/>
<path transform="matrix(.1,0,0,-.1,0,792)" d="M5616.4 7144 5581.4 7109 5616.4 7144 6026.5 7554.1 6051.3 7529.3 6026.5 7554.1 5856.7 7723.9H5616.4V7758.9 7723.9" fill="#fff0f0"/>
<path transform="matrix(.1,0,0,-.1,0,792)" stroke-width="7" stroke-linecap="butt" stroke-miterlimit="10" stroke-linejoin="miter" fill="none" stroke="#000000" d="M5616.4 7144 5581.4 7109 5616.4 7144 6026.5 7554.1 6051.3 7529.3 6026.5 7554.1 5856.7 7723.9H5616.4V7758.9 7723.9Z"/>
<path transform="matrix(.1,0,0,-.1,0,792)" d="M5616.4 7793.9V7758.9 7793.9H5885.7L6076 7603.6 6100.8 7578.8 6076 7603.6 6266.4 7793.9H6535.6 6570.6 6535.6V8063.1L6725.9 8253.5 6750.7 8278.2 6725.9 8253.5 6535.6 8443.9V8713.1 8748.1 8713.1H6266.4L6076 8903.4 6051.3 8928.2 6076 8903.4 5885.7 8713.1H5616.4V8443.9L5426.1 8253.5 5401.3 8228.7 5426.1 8253.5 5616.4 8063.1" fill="#ffcccc"/>
<path transform="matrix(.1,0,0,-.1,0,792)" stroke-width="7" stroke-linecap="butt" stroke-miterlimit="10" stroke-linejoin="miter" fill="none" stroke="#000000" d="M5616.4 7793.9V7758.9 7793.9H5885.7L6076 7603.6 6100.8 7578.8 6076 7603.6 6266.4 7793.9H6535.6 6570.6 6535.6V8063.1L6725.9 8253.5 6750.7 8278.2 6725.9 8253.5 6535.6 8443.9V8713.1 8748.1 8713.1H6266.4L6076 8903.4 6051.3 8928.2 6076 8903.4 5885.7 8713.1H5616.4V8443.9L5426.1 8253.5 5401.3 8228.7 5426.1 8253.5 5616.4 8063.1Z"/>
<path transform="matrix(.1,0,0,-.1,0,792)" d="M430.898 560.102V595.102 319.898L600.699 150.102 576 125.301 600.699 150.102 770.602 319.898V560.102H805.602 770.602 700.102L600.699 460.801 501.398 560.102" fill="#663d00"/>
<path transform="matrix(.1,0,0,-.1,0,792)" stroke-width="7" stroke-linecap="butt" stroke-miterlimit="10" stroke-linejoin="miter" fill="none" stroke="#000000" d="M430.898 560.102V595.102 319.898L600.699 150.102 576 125.301 600.699 150.102 770.602 319.898V560.102H805.602 770.602 700.102L600.699 460.801 501.398 560.102Z"/>
<path transform="matrix(.1,0,0,-.1,0,792)" d="M360.898 560.102V595.102 560.102H91.6992L-98.6992 750.5-123.398 775.199-98.6992 750.5-289 560.102H-558.301-593.301-558.301V290.898L-748.602 100.602-773.398 75.8008-748.602 100.602-558.301-89.8008V-359-394-359H-289L-98.6992-549.398-73.8984-574.102-98.6992-549.398 91.6992-359H360.898V-89.8008L551.199 100.602 576 125.301 551.199 100.602 360.898 290.898" fill="#ffcccc"/>
<path transform="matrix(.1,0,0,-.1,0,792)" stroke-width="7" stroke-linecap="butt" stroke-miterlimit="10" stroke-linejoin="miter" fill="none" stroke="#000000" d="M360.898 560.102V595.102 560.102H91.6992L-98.6992 750.5-123.398 775.199-98.6992 750.5-289 560.102H-558.301-593.301-558.301V290.898L-748.602 100.602-773.398 75.8008-748.602 100.602-558.301-89.8008V-359-394-359H-289L-98.6992-549.398-73.8984-574.102-98.6992-549.398 91.6992-359H360.898V-89.8008L551.199 100.602 576 125.301 551.199 100.602 360.898 290.898Z"/>
<path transform="matrix(.1,0,0,-.1,0,792)" d="M1829.7 560.102V595.102 319.898L1999.5 150.102 1974.8 125.301 1999.5 150.102 2049.4 199.898V340.398H2189.9L2239.7 390.301 2264.5 365.5 2239.7 390.301 2069.9 560.102" fill="#663d00"/>
<path transform="matrix(.1,0,0,-.1,0,792)" stroke-width="7" stroke-linecap="butt" stroke-miterlimit="10" stroke-linejoin="miter" fill="none" stroke="#000000" d="M1829.7 560.102V595.102 319.898L1999.5 150.102 1974.8 125.301 1999.5 150.102 2049.4 199.898V340.398H2189.9L2239.7 390.301 2264.5 365.5 2239.7 390.301 2069.9 560.102Z"/>
<path transform="matrix(.1,0,0,-.1,0,792)" d="M2508.6 560.102 2338.7 390.301 2314 415 2338.7 390.301 2748.8-19.8008V-69.3008-19.8008 560.102H2783.8 2748.8" fill="#fff0f0"/>
<path transform="matrix(.1,0,0,-.1,0,792)" stroke-width="7" stroke-linecap="butt" stroke-miterlimit="10" stroke-linejoin="miter" fill="none" stroke="#000000" d="M2508.6 560.102 2338.7 390.301 2314 415 2338.7 390.301 2748.8-19.8008V-69.3008-19.8008 560.102H2783.8 2748.8Z"/>
<path transform="matrix(.1,0,0,-.1,0,792)" d="M3228.5 560.102V595.102-19.8008L3193.5-54.8008 3228.5-19.8008 3638.6 390.301 3663.3 365.5 3638.6 390.301 3468.7 560.102" fill="#fff0f0"/>
<path transform="matrix(.1,0,0,-.1,0,792)" stroke-width="7" stroke-linecap="butt" stroke-miterlimit="10" stroke-linejoin="miter" fill="none" stroke="#000000" d="M3228.5 560.102V595.102-19.8008L3193.5-54.8008 3228.5-19.8008 3638.6 390.301 3663.3 365.5 3638.6 390.301 3468.7 560.102Z"/>
<path transform="matrix(.1,0,0,-.1,0,792)" d="M3907.4 560.102 3737.6 390.301 3712.8 415 3737.6 390.301 3787.4 340.398H3927.9V199.898L3977.8 150.102 3953 125.301 3977.8 150.102 4147.6 319.898V560.102H4182.6 4147.6" fill="#663d00"/>
<path transform="matrix(.1,0,0,-.1,0,792)" stroke-width="7" stroke-linecap="butt" stroke-miterlimit="10" stroke-linejoin="miter" fill="none" stroke="#000000" d="M3907.4 560.102 3737.6 390.301 3712.8 415 3737.6 390.301 3787.4 340.398H3927.9V199.898L3977.8 150.102 3953 125.301 3977.8 150.102 4147.6 319.898V560.102H4182.6 4147.6Z"/>
<path transform="matrix(.1,0,0,-.1,0,792)" d="M5206.7 560.102V595.102 319.898L5376.6 150.102 5351.8 125.301 5376.6 150.102 5546.4 319.898V560.102H5581.4 5546.4 5475.9L5376.6 460.801 5277.2 560.102" fill="#663d00"/>
<path transform="matrix(.1,0,0,-.1,0,792)" stroke-width="7" stroke-linecap="butt" stroke-miterlimit="10" stroke-linejoin="miter" fill="none" stroke="#000000" d="M5206.7 560.102V595.102 319.898L5376.6 150.102 5351.8 125.301 5376.6 150.102 5546.4 319.898V560.102H5581.4 5546.4 5475.9L5376.6 460.801 5277.2 560.102Z"/>
<path transform="matrix(.1,0,0,-.1,0,792)" d="M5616.4 560.102H5581.4 5616.4V290.898L5426.1 100.602 5401.3 75.8008 5426.1 100.602 5616.4-89.8008V-359H5885.7L6076-549.398 6100.8-574.102 6076-549.398 6266.4-359H6535.6 6570.6 6535.6V-89.8008L6725.9 100.602 6750.7 125.301 6725.9 100.602 6535.6 290.898V560.102 595.102 560.102H6266.4L6076 750.5 6051.3 775.199 6076 750.5 5885.7 560.102" fill="#ffcccc"/>
<path transform="matrix(.1,0,0,-.1,0,792)" stroke-width="7" stroke-linecap="butt" stroke-miterlimit="10" stroke-linejoin="miter" fill="none" stroke="#000000" d="M5616.4 560.102H5581.4 5616.4V290.898L5426.1 100.602 5401.3 75.8008 5426.1 100.602 5616.4-89.8008V-359H5885.7L6076-549.398 6100.8-574.102 6076-549.398 6266.4-359H6535.6 6570.6 6535.6V-89.8008L6725.9 100.602 6750.7 125.301 6725.9 100.602 6535.6 290.898V560.102 595.102 560.102H6266.4L6076 750.5 6051.3 775.199 6076 750.5 5885.7 560.102Z"/>
<path transform="matrix(.1,0,0,-.1,0,792)" d="M261.5 6565 91.6992 6734.8 56.6992 6769.8 91.6992 6734.8H-558.301-593.301-558.301V6635.3L-628.602 6565-558.301 6494.6V6395.1 6360.1 6395.1H91.6992 141.199 91.6992" fill="#78ffe6"/>
<path transform="matrix(.1,0,0,-.1,0,792)" stroke-width="7" stroke-linecap="butt" stroke-miterlimit="10" stroke-linejoin="miter" fill="none" stroke="#000000" d="M261.5 6565 91.6992 6734.8 56.6992 6769.8 91.6992 6734.8H-558.301-593.301-558.301V6635.3L-628.602 6565-558.301 6494.6V6395.1 6360.1 6395.1H91.6992 141.199 91.6992Z"/>
<path transform="matrix(.1,0,0,-.1,0,792)" d="M261.5 1789.1 91.6992 1958.9 56.6992 1993.9 91.6992 1958.9H-558.301-593.301-558.301V1859.4L-628.602 1789.1-558.301 1718.7V1619.2 1584.2 1619.2H91.6992 141.199 91.6992" fill="#78ffe6"/>
<path transform="matrix(.1,0,0,-.1,0,792)" stroke-width="7" stroke-linecap="butt" stroke-miterlimit="10" stroke-linejoin="miter" fill="none" stroke="#000000" d="M261.5 1789.1 91.6992 1958.9 56.6992 1993.9 91.6992 1958.9H-558.301-593.301-558.301V1859.4L-628.602 1789.1-558.301 1718.7V1619.2 1584.2 1619.2H91.6992 141.199 91.6992Z"/>
<path transform="matrix(.1,0,0,-.1,0,792)" d="M5715.8 1789.1 5885.7 1619.2 5920.7 1584.2 5885.7 1619.2H6535.6 6570.6 6535.6V1718.7L6605.9 1789.1 6535.6 1859.4V1958.9 1993.9 1958.9H5885.7 5836.2 5885.7" fill="#78ffe6"/>
<path transform="matrix(.1,0,0,-.1,0,792)" stroke-width="7" stroke-linecap="butt" stroke-miterlimit="10" stroke-linejoin="miter" fill="none" stroke="#000000" d="M5715.8 1789.1 5885.7 1619.2 5920.7 1584.2 5885.7 1619.2H6535.6 6570.6 6535.6V1718.7L6605.9 1789.1 6535.6 1859.4V1958.9 1993.9 1958.9H5885.7 5836.2 5885.7Z"/>
<path transform="matrix(.1,0,0,-.1,0,792)" d="M5715.8 6565 5885.7 6395.1 5920.7 6360.1 5885.7 6395.1H6535.6 6570.6 6535.6V6494.6L6605.9 6565 6535.6 6635.3V6734.8 6769.8 6734.8H5885.7 5836.2 5885.7" fill="#78ffe6"/>
<path transform="matrix(.1,0,0,-.1,0,792)" stroke-width="7" stroke-linecap="butt" stroke-miterlimit="10" stroke-linejoin="miter" fill="none" stroke="#000000" d="M5715.8 6565 5885.7 6395.1 5920.7 6360.1 5885.7 6395.1H6535.6 6570.6 6535.6V6494.6L6605.9 6565 6535.6 6635.3V6734.8 6769.8 6734.8H5885.7 5836.2 5885.7Z"/>
<path transform="matrix(.1,0,0,-.1,0,792)" d="M2289.2 340.801 2264.5 365.5 2289.2 340.801 2218.9 270.398H2119.4V170.898L2049 100.602 2024.3 75.8008 2049 100.602 2508.6-359 2543.6-394 2508.6-359H2748.8V-118.801-69.3008-118.801" fill="#78ffe6"/>
<path transform="matrix(.1,0,0,-.1,0,792)" stroke-width="7" stroke-linecap="butt" stroke-miterlimit="10" stroke-linejoin="miter" fill="none" stroke="#000000" d="M2289.2 340.801 2264.5 365.5 2289.2 340.801 2218.9 270.398H2119.4V170.898L2049 100.602 2024.3 75.8008 2049 100.602 2508.6-359 2543.6-394 2508.6-359H2748.8V-118.801-69.3008-118.801Z"/>
<path transform="matrix(.1,0,0,-.1,0,792)" d="M3688.1 340.801 3663.3 365.5 3688.1 340.801 3228.5-118.801 3193.5-153.801 3228.5-118.801V-359H3468.7 3518.2 3468.7L3928.3 100.602 3953 125.301 3928.3 100.602 3857.9 170.898V270.398H3758.4" fill="#78ffe6"/>
<path transform="matrix(.1,0,0,-.1,0,792)" stroke-width="7" stroke-linecap="butt" stroke-miterlimit="10" stroke-linejoin="miter" fill="none" stroke="#000000" d="M3688.1 340.801 3663.3 365.5 3688.1 340.801 3228.5-118.801 3193.5-153.801 3228.5-118.801V-359H3468.7 3518.2 3468.7L3928.3 100.602 3953 125.301 3928.3 100.602 3857.9 170.898V270.398H3758.4Z"/>
<path transform="matrix(.1,0,0,-.1,0,792)" d="M21.6992 6804.8 56.6992 6769.8 21.6992 6804.8-388.398 7214.9-363.699 7239.6-388.398 7214.9-558.301 7045V6804.8H-593.301-558.301" fill="#fff0f0"/>
<path transform="matrix(.1,0,0,-.1,0,792)" stroke-width="7" stroke-linecap="butt" stroke-miterlimit="10" stroke-linejoin="miter" fill="none" stroke="#000000" d="M21.6992 6804.8 56.6992 6769.8 21.6992 6804.8-388.398 7214.9-363.699 7239.6-388.398 7214.9-558.301 7045V6804.8H-593.301-558.301Z"/>
<path transform="matrix(.1,0,0,-.1,0,792)" d="M21.6992 6325.1H71.1992-558.301V6360.1 6325.1 6084.9L-388.398 5915.1-413.102 5890.3-388.398 5915.1" fill="#fff0f0"/>
<path transform="matrix(.1,0,0,-.1,0,792)" stroke-width="7" stroke-linecap="butt" stroke-miterlimit="10" stroke-linejoin="miter" fill="none" stroke="#000000" d="M21.6992 6325.1H71.1992-558.301V6360.1 6325.1 6084.9L-388.398 5915.1-413.102 5890.3-388.398 5915.1Z"/>
<path transform="matrix(.1,0,0,-.1,0,792)" d="M21.6992 2028.9 56.6992 1993.9 21.6992 2028.9-388.398 2439-363.699 2463.8-388.398 2439-558.301 2269.2V2028.9H-593.301-558.301" fill="#fff0f0"/>
<path transform="matrix(.1,0,0,-.1,0,792)" stroke-width="7" stroke-linecap="butt" stroke-miterlimit="10" stroke-linejoin="miter" fill="none" stroke="#000000" d="M21.6992 2028.9 56.6992 1993.9 21.6992 2028.9-388.398 2439-363.699 2463.8-388.398 2439-558.301 2269.2V2028.9H-593.301-558.301Z"/>
<path transform="matrix(.1,0,0,-.1,0,792)" d="M21.6992 1549.2H71.1992-558.301V1584.2 1549.2 1309L-388.398 1139.2-413.102 1114.4-388.398 1139.2" fill="#fff0f0"/>
<path transform="matrix(.1,0,0,-.1,0,792)" stroke-width="7" stroke-linecap="butt" stroke-miterlimit="10" stroke-linejoin="miter" fill="none" stroke="#000000" d="M21.6992 1549.2H71.1992-558.301V1584.2 1549.2 1309L-388.398 1139.2-413.102 1114.4-388.398 1139.2Z"/>
<path transform="matrix(.1,0,0,-.1,0,792)" d="M5955.7 1549.2 5920.7 1584.2 5955.7 1549.2 6365.7 1139.2 6341 1114.4 6365.7 1139.2 6535.6 1309V1549.2H6570.6 6535.6" fill="#fff0f0"/>
<path transform="matrix(.1,0,0,-.1,0,792)" stroke-width="7" stroke-linecap="butt" stroke-miterlimit="10" stroke-linejoin="miter" fill="none" stroke="#000000" d="M5955.7 1549.2 5920.7 1584.2 5955.7 1549.2 6365.7 1139.2 6341 1114.4 6365.7 1139.2 6535.6 1309V1549.2H6570.6 6535.6Z"/>
<path transform="matrix(.1,0,0,-.1,0,792)" d="M5955.7 2028.9H5906.2 6535.6V1993.9 2028.9 2269.2L6365.7 2439 6390.5 2463.8 6365.7 2439" fill="#fff0f0"/>
<path transform="matrix(.1,0,0,-.1,0,792)" stroke-width="7" stroke-linecap="butt" stroke-miterlimit="10" stroke-linejoin="miter" fill="none" stroke="#000000" d="M5955.7 2028.9H5906.2 6535.6V1993.9 2028.9 2269.2L6365.7 2439 6390.5 2463.8 6365.7 2439Z"/>
<path transform="matrix(.1,0,0,-.1,0,792)" d="M5955.7 6325.1 5920.7 6360.1 5955.7 6325.1 6365.7 5915.1 6341 5890.3 6365.7 5915.1 6535.6 6084.9V6325.1H6570.6 6535.6" fill="#fff0f0"/>
<path transform="matrix(.1,0,0,-.1,0,792)" stroke-width="7" stroke-linecap="butt" stroke-miterlimit="10" stroke-linejoin="miter" fill="none" stroke="#000000" d="M5955.7 6325.1 5920.7 6360.1 5955.7 6325.1 6365.7 5915.1 6341 5890.3 6365.7 5915.1 6535.6 6084.9V6325.1H6570.6 6535.6Z"/>
<path transform="matrix(.1,0,0,-.1,0,792)" d="M5955.7 6804.8H5906.2 6535.6V6769.8 6804.8 7045L6365.7 7214.9 6390.5 7239.6 6365.7 7214.9" fill="#fff0f0"/>
<path transform="matrix(.1,0,0,-.1,0,792)" stroke-width="7" stroke-linecap="butt" stroke-miterlimit="10" stroke-linejoin="miter" fill="none" stroke="#000000" d="M5955.7 6804.8H5906.2 6535.6V6769.8 6804.8 7045L6365.7 7214.9 6390.5 7239.6 6365.7 7214.9Z"/>
<path transform="matrix(.1,0,0,-.1,0,792)" d="M600.699 51.1016 625.5 75.8008 600.699 51.1016 430.898-118.801V-429H120.699L-49.1992-598.801-73.8984-574.102-49.1992-598.801 120.699-768.699H430.898V-1078.9L600.699-1248.8 576-1273.5 600.699-1248.8 770.602-1078.9V-768.699H1080.8L1250.6-598.801 1275.4-623.602 1250.6-598.801 1080.8-429H770.602V-118.801" fill="#663d00"/>
<path transform="matrix(.1,0,0,-.1,0,792)" stroke-width="7" stroke-linecap="butt" stroke-miterlimit="10" stroke-linejoin="miter" fill="none" stroke="#000000" d="M600.699 51.1016 625.5 75.8008 600.699 51.1016 430.898-118.801V-429H120.699L-49.1992-598.801-73.8984-574.102-49.1992-598.801 120.699-768.699H430.898V-1078.9L600.699-1248.8 576-1273.5 600.699-1248.8 770.602-1078.9V-768.699H1080.8L1250.6-598.801 1275.4-623.602 1250.6-598.801 1080.8-429H770.602V-118.801Z"/>
<path transform="matrix(.1,0,0,-.1,0,792)" d="M1999.5 51.1016 2024.3 75.8008 1999.5 51.1016 1829.7-118.801V-359H1794.7 1829.7 2409.6L2444.6-394 2409.6-359" fill="#fff0f0"/>
<path transform="matrix(.1,0,0,-.1,0,792)" stroke-width="7" stroke-linecap="butt" stroke-miterlimit="10" stroke-linejoin="miter" fill="none" stroke="#000000" d="M1999.5 51.1016 2024.3 75.8008 1999.5 51.1016 1829.7-118.801V-359H1794.7 1829.7 2409.6L2444.6-394 2409.6-359Z"/>
<path transform="matrix(.1,0,0,-.1,0,792)" d="M3977.8 51.1016 4002.5 75.8008 3977.8 51.1016 3567.7-359H3518.2 3567.7 4147.6V-394-359-118.801" fill="#fff0f0"/>
<path transform="matrix(.1,0,0,-.1,0,792)" stroke-width="7" stroke-linecap="butt" stroke-miterlimit="10" stroke-linejoin="miter" fill="none" stroke="#000000" d="M3977.8 51.1016 4002.5 75.8008 3977.8 51.1016 3567.7-359H3518.2 3567.7 4147.6V-394-359-118.801Z"/>
<path transform="matrix(.1,0,0,-.1,0,792)" d="M5376.6 51.1016 5401.3 75.8008 5376.6 51.1016 5206.7-118.801V-429H4896.5L4726.7-598.801 4701.9-574.102 4726.7-598.801 4896.5-768.699H5206.7V-1078.9L5376.6-1248.8 5351.8-1273.5 5376.6-1248.8 5546.4-1078.9V-768.699H5856.7L6026.5-598.801 6051.3-623.602 6026.5-598.801 5856.7-429H5546.4V-118.801" fill="#663d00"/>
<path transform="matrix(.1,0,0,-.1,0,792)" stroke-width="7" stroke-linecap="butt" stroke-miterlimit="10" stroke-linejoin="miter" fill="none" stroke="#000000" d="M5376.6 51.1016 5401.3 75.8008 5376.6 51.1016 5206.7-118.801V-429H4896.5L4726.7-598.801 4701.9-574.102 4726.7-598.801 4896.5-768.699H5206.7V-1078.9L5376.6-1248.8 5351.8-1273.5 5376.6-1248.8 5546.4-1078.9V-768.699H5856.7L6026.5-598.801 6051.3-623.602 6026.5-598.801 5856.7-429H5546.4V-118.801Z"/>
<path transform="matrix(.1,0,0,-.1,0,792)" d="M6125.5 800 6100.8 824.699 6125.5 800 6295.4 630.102H6535.6V595.102 630.102 870.301L6365.7 1040.2 6390.5 1064.9 6365.7 1040.2 6315.9 990.301V849.801H6175.4" fill="#663d00"/>
<path transform="matrix(.1,0,0,-.1,0,792)" stroke-width="7" stroke-linecap="butt" stroke-miterlimit="10" stroke-linejoin="miter" fill="none" stroke="#000000" d="M6125.5 800 6100.8 824.699 6125.5 800 6295.4 630.102H6535.6V595.102 630.102 870.301L6365.7 1040.2 6390.5 1064.9 6365.7 1040.2 6315.9 990.301V849.801H6175.4Z"/>
<path transform="matrix(.1,0,0,-.1,0,792)" d="M6125.5 2778.2 6100.8 2803 6125.5 2778.2 6175.4 2728.4H6315.9V2587.9L6365.7 2538 6341 2513.3 6365.7 2538 6535.6 2707.9V2948.1H6570.6 6535.6 6295.4" fill="#663d00"/>
<path transform="matrix(.1,0,0,-.1,0,792)" stroke-width="7" stroke-linecap="butt" stroke-miterlimit="10" stroke-linejoin="miter" fill="none" stroke="#000000" d="M6125.5 2778.2 6100.8 2803 6125.5 2778.2 6175.4 2728.4H6315.9V2587.9L6365.7 2538 6341 2513.3 6365.7 2538 6535.6 2707.9V2948.1H6570.6 6535.6 6295.4Z"/>
<path transform="matrix(.1,0,0,-.1,0,792)" d="M6125.5 4177 6100.8 4201.8 6125.5 4177 6295.4 4007.2H6535.6V3972.2 4007.2 4077.7L6436.2 4177 6535.6 4276.4V4346.9H6570.6 6535.6 6295.4" fill="#663d00"/>
<path transform="matrix(.1,0,0,-.1,0,792)" stroke-width="7" stroke-linecap="butt" stroke-miterlimit="10" stroke-linejoin="miter" fill="none" stroke="#000000" d="M6125.5 4177 6100.8 4201.8 6125.5 4177 6295.4 4007.2H6535.6V3972.2 4007.2 4077.7L6436.2 4177 6535.6 4276.4V4346.9H6570.6 6535.6 6295.4Z"/>
<path transform="matrix(.1,0,0,-.1,0,792)" d="M6125.5 5575.9 6100.8 5600.6 6125.5 5575.9 6295.4 5406H6535.6V5371 5406 5646.2L6365.7 5816.1 6390.5 5840.8 6365.7 5816.1 6315.9 5766.2V5625.7H6175.4" fill="#663d00"/>
<path transform="matrix(.1,0,0,-.1,0,792)" stroke-width="7" stroke-linecap="butt" stroke-miterlimit="10" stroke-linejoin="miter" fill="none" stroke="#000000" d="M6125.5 5575.9 6100.8 5600.6 6125.5 5575.9 6295.4 5406H6535.6V5371 5406 5646.2L6365.7 5816.1 6390.5 5840.8 6365.7 5816.1 6315.9 5766.2V5625.7H6175.4Z"/>
<path transform="matrix(.1,0,0,-.1,0,792)" d="M6125.5 7554.1 6100.8 7578.8 6125.5 7554.1 6175.4 7504.2H6315.9V7363.7L6365.7 7313.9 6341 7289.1 6365.7 7313.9 6535.6 7483.7V7723.9H6570.6 6535.6 6295.4" fill="#663d00"/>
<path transform="matrix(.1,0,0,-.1,0,792)" stroke-width="7" stroke-linecap="butt" stroke-miterlimit="10" stroke-linejoin="miter" fill="none" stroke="#000000" d="M6125.5 7554.1 6100.8 7578.8 6125.5 7554.1 6175.4 7504.2H6315.9V7363.7L6365.7 7313.9 6341 7289.1 6365.7 7313.9 6535.6 7483.7V7723.9H6570.6 6535.6 6295.4Z"/>
</svg>
