<svg xmlns="http://www.w3.org/2000/svg" xmlns:xlink="http://www.w3.org/1999/xlink" xmlns:inkscape="http://www.inkscape.org/namespaces/inkscape" version="1.1" width="612" height="792" viewBox="0 0 612 792">
<path transform="matrix(.1,0,0,-.1,0,792)" d="M2608.3 3843.3H3708.3V4943.3H2608.3Z" fill="#ffffff"/>
<path transform="matrix(.1,0,0,-.1,0,792)" stroke-width="1" stroke-linecap="butt" stroke-miterlimit="10" stroke-linejoin="miter" fill="none" stroke="#000000" d="M2608.3 3843.3H3708.3V4943.3H2608.3Z"/>
<path transform="matrix(.1,0,0,-.1,0,792)" d="M2608.3 3843.3 3158.3 3293.3 3708.3 3843.3" fill="#758240"/>
<path transform="matrix(.1,0,0,-.1,0,792)" stroke-width="1" stroke-linecap="butt" stroke-miterlimit="10" stroke-linejoin="miter" fill="none" stroke="#000000" d="M2608.3 3843.3 3158.3 3293.3 3708.3 3843.3Z"/>
<path transform="matrix(.1,0,0,-.1,0,792)" d="M2608.3 3843.3V3293.3H3158.3" fill="#ffffff"/>
<path transform="matrix(.1,0,0,-.1,0,792)" stroke-width="1" stroke-linecap="butt" stroke-miterlimit="10" stroke-linejoin="miter" fill="none" stroke="#000000" d="M2608.3 3843.3V3293.3H3158.3Z"/>
<path transform="matrix(.1,0,0,-.1,0,792)" d="M2058.3 3293.3H2608.3V3843.3H2058.3Z" fill="#758240"/>
<path transform="matrix(.1,0,0,-.1,0,792)" stroke-width="1" stroke-linecap="butt" stroke-miterlimit="10" stroke-linejoin="miter" fill="none" stroke="#000000" d="M2058.3 3293.3H2608.3V3843.3H2058.3Z"/>
<path transform="matrix(.1,0,0,-.1,0,792)" d="M2608.3 3843.3 2058.3 4393.3V3843.3" fill="#ffffff"/>
<path transform="matrix(.1,0,0,-.1,0,792)" stroke-width="1" stroke-linecap="butt" stroke-miterlimit="10" stroke-linejoin="miter" fill="none" stroke="#000000" d="M2608.3 3843.3 2058.3 4393.3V3843.3Z"/>
<path transform="matrix(.1,0,0,-.1,0,792)" d="M2608.3 3843.3V4943.3L2058.3 4393.3" fill="#758240"/>
<path transform="matrix(.1,0,0,-.1,0,792)" stroke-width="1" stroke-linecap="butt" stroke-miterlimit="10" stroke-linejoin="miter" fill="none" stroke="#000000" d="M2608.3 3843.3V4943.3L2058.3 4393.3Z"/>
<path transform="matrix(.1,0,0,-.1,0,792)" d="M2608.3 4943.3H2058.3V4393.3" fill="#ffffff"/>
<path transform="matrix(.1,0,0,-.1,0,792)" stroke-width="1" stroke-linecap="butt" stroke-miterlimit="10" stroke-linejoin="miter" fill="none" stroke="#000000" d="M2608.3 4943.3H2058.3V4393.3Z"/>
<path transform="matrix(.1,0,0,-.1,0,792)" d="M2058.3 4943.3H2608.3V5493.3H2058.3Z" fill="#758240"/>
<path transform="matrix(.1,0,0,-.1,0,792)" stroke-width="1" stroke-linecap="butt" stroke-miterlimit="10" stroke-linejoin="miter" fill="none" stroke="#000000" d="M2058.3 4943.3H2608.3V5493.3H2058.3Z"/>
<path transform="matrix(.1,0,0,-.1,0,792)" d="M2608.3 4943.3 3158.3 5493.3H2608.3" fill="#ffffff"/>
<path transform="matrix(.1,0,0,-.1,0,792)" stroke-width="1" stroke-linecap="butt" stroke-miterlimit="10" stroke-linejoin="miter" fill="none" stroke="#000000" d="M2608.3 4943.3 3158.3 5493.3H2608.3Z"/>
<path transform="matrix(.1,0,0,-.1,0,792)" d="M2608.3 4943.3H3708.3L3158.3 5493.3" fill="#758240"/>
<path transform="matrix(.1,0,0,-.1,0,792)" stroke-width="1" stroke-linecap="butt" stroke-miterlimit="10" stroke-linejoin="miter" fill="none" stroke="#000000" d="M2608.3 4943.3H3708.3L3158.3 5493.3Z"/>
<path transform="matrix(.1,0,0,-.1,0,792)" d="M2608.3 3293.3V2193.3H3708.3V3293.3H3158.3" fill="#758240"/>
<path transform="matrix(.1,0,0,-.1,0,792)" stroke-width="1" stroke-linecap="butt" stroke-miterlimit="10" stroke-linejoin="miter" fill="none" stroke="#000000" d="M2608.3 3293.3V2193.3H3708.3V3293.3H3158.3Z"/>
<path transform="matrix(.1,0,0,-.1,0,792)" d="M2608.3 3293.3H2058.3L2608.3 2743.3" fill="#ffffff"/>
<path transform="matrix(.1,0,0,-.1,0,792)" stroke-width="1" stroke-linecap="butt" stroke-miterlimit="10" stroke-linejoin="miter" fill="none" stroke="#000000" d="M2608.3 3293.3H2058.3L2608.3 2743.3Z"/>
<path transform="matrix(.1,0,0,-.1,0,792)" d="M3158.3 3293.3H3708.3V3843.3" fill="#ffffff"/>
<path transform="matrix(.1,0,0,-.1,0,792)" stroke-width="1" stroke-linecap="butt" stroke-miterlimit="10" stroke-linejoin="miter" fill="none" stroke="#000000" d="M3158.3 3293.3H3708.3V3843.3Z"/>
<path transform="matrix(.1,0,0,-.1,0,792)" d="M3708.3 3293.3H4258.3V3843.3H3708.3Z" fill="#758240"/>
<path transform="matrix(.1,0,0,-.1,0,792)" stroke-width="1" stroke-linecap="butt" stroke-miterlimit="10" stroke-linejoin="miter" fill="none" stroke="#000000" d="M3708.3 3293.3H4258.3V3843.3H3708.3Z"/>
<path transform="matrix(.1,0,0,-.1,0,792)" d="M3708.3 3293.3V2743.3L4258.3 3293.3" fill="#ffffff"/>
<path transform="matrix(.1,0,0,-.1,0,792)" stroke-width="1" stroke-linecap="butt" stroke-miterlimit="10" stroke-linejoin="miter" fill="none" stroke="#000000" d="M3708.3 3293.3V2743.3L4258.3 3293.3Z"/>
<path transform="matrix(.1,0,0,-.1,0,792)" d="M3708.3 3843.3 4258.3 4393.3 3708.3 4943.3" fill="#758240"/>
<path transform="matrix(.1,0,0,-.1,0,792)" stroke-width="1" stroke-linecap="butt" stroke-miterlimit="10" stroke-linejoin="miter" fill="none" stroke="#000000" d="M3708.3 3843.3 4258.3 4393.3 3708.3 4943.3Z"/>
<path transform="matrix(.1,0,0,-.1,0,792)" d="M3708.3 3843.3H4258.3V4393.3" fill="#ffffff"/>
<path transform="matrix(.1,0,0,-.1,0,792)" stroke-width="1" stroke-linecap="butt" stroke-miterlimit="10" stroke-linejoin="miter" fill="none" stroke="#000000" d="M3708.3 3843.3H4258.3V4393.3Z"/>
<path transform="matrix(.1,0,0,-.1,0,792)" d="M2058.3 4943.3H958.301V3843.3H2058.3V4393.3" fill="#758240"/>
<path transform="matrix(.1,0,0,-.1,0,792)" stroke-width="1" stroke-linecap="butt" stroke-miterlimit="10" stroke-linejoin="miter" fill="none" stroke="#000000" d="M2058.3 4943.3H958.301V3843.3H2058.3V4393.3Z"/>
<path transform="matrix(.1,0,0,-.1,0,792)" d="M2058.3 4943.3V5493.3L1508.3 4943.3" fill="#ffffff"/>
<path transform="matrix(.1,0,0,-.1,0,792)" stroke-width="1" stroke-linecap="butt" stroke-miterlimit="10" stroke-linejoin="miter" fill="none" stroke="#000000" d="M2058.3 4943.3V5493.3L1508.3 4943.3Z"/>
<path transform="matrix(.1,0,0,-.1,0,792)" d="M2058.3 3843.3H1508.3L2058.3 3293.3" fill="#ffffff"/>
<path transform="matrix(.1,0,0,-.1,0,792)" stroke-width="1" stroke-linecap="butt" stroke-miterlimit="10" stroke-linejoin="miter" fill="none" stroke="#000000" d="M2058.3 3843.3H1508.3L2058.3 3293.3Z"/>
<path transform="matrix(.1,0,0,-.1,0,792)" d="M2058.3 3293.3V2193.3L2608.3 2743.3" fill="#758240"/>
<path transform="matrix(.1,0,0,-.1,0,792)" stroke-width="1" stroke-linecap="butt" stroke-miterlimit="10" stroke-linejoin="miter" fill="none" stroke="#000000" d="M2058.3 3293.3V2193.3L2608.3 2743.3Z"/>
<path transform="matrix(.1,0,0,-.1,0,792)" d="M958.301 2193.3H2058.301V3293.3H958.301Z" fill="#ffffff"/>
<path transform="matrix(.1,0,0,-.1,0,792)" stroke-width="1" stroke-linecap="butt" stroke-miterlimit="10" stroke-linejoin="miter" fill="none" stroke="#000000" d="M958.301 2193.3H2058.301V3293.3H958.301Z"/>
<path transform="matrix(.1,0,0,-.1,0,792)" d="M2058.3 3293.3 1508.3 3843.3 958.301 3293.3" fill="#758240"/>
<path transform="matrix(.1,0,0,-.1,0,792)" stroke-width="1" stroke-linecap="butt" stroke-miterlimit="10" stroke-linejoin="miter" fill="none" stroke="#000000" d="M2058.3 3293.3 1508.3 3843.3 958.301 3293.3Z"/>
<path transform="matrix(.1,0,0,-.1,0,792)" d="M3158.3 5493.3H3708.3V6593.3H2608.3V6043.3 5493.3" fill="#758240"/>
<path transform="matrix(.1,0,0,-.1,0,792)" stroke-width="1" stroke-linecap="butt" stroke-miterlimit="10" stroke-linejoin="miter" fill="none" stroke="#000000" d="M3158.3 5493.3H3708.3V6593.3H2608.3V6043.3 5493.3Z"/>
<path transform="matrix(.1,0,0,-.1,0,792)" d="M3158.3 5493.3 3708.3 4943.3V5493.3" fill="#ffffff"/>
<path transform="matrix(.1,0,0,-.1,0,792)" stroke-width="1" stroke-linecap="butt" stroke-miterlimit="10" stroke-linejoin="miter" fill="none" stroke="#000000" d="M3158.3 5493.3 3708.3 4943.3V5493.3Z"/>
<path transform="matrix(.1,0,0,-.1,0,792)" d="M3708.3 5493.3H4258.3L3708.3 6043.3" fill="#ffffff"/>
<path transform="matrix(.1,0,0,-.1,0,792)" stroke-width="1" stroke-linecap="butt" stroke-miterlimit="10" stroke-linejoin="miter" fill="none" stroke="#000000" d="M3708.3 5493.3H4258.3L3708.3 6043.3Z"/>
<path transform="matrix(.1,0,0,-.1,0,792)" d="M3708.3 4943.3H4258.3V5493.3H3708.3Z" fill="#758240"/>
<path transform="matrix(.1,0,0,-.1,0,792)" stroke-width="1" stroke-linecap="butt" stroke-miterlimit="10" stroke-linejoin="miter" fill="none" stroke="#000000" d="M3708.3 4943.3H4258.3V5493.3H3708.3Z"/>
<path transform="matrix(.1,0,0,-.1,0,792)" d="M2608.3 5493.3V6043.3L2058.3 5493.3" fill="#ffffff"/>
<path transform="matrix(.1,0,0,-.1,0,792)" stroke-width="1" stroke-linecap="butt" stroke-miterlimit="10" stroke-linejoin="miter" fill="none" stroke="#000000" d="M2608.3 5493.3V6043.3L2058.3 5493.3Z"/>
<path transform="matrix(.1,0,0,-.1,0,792)" d="M2058.3 5493.3H958.301L1508.3 4943.3" fill="#758240"/>
<path transform="matrix(.1,0,0,-.1,0,792)" stroke-width="1" stroke-linecap="butt" stroke-miterlimit="10" stroke-linejoin="miter" fill="none" stroke="#000000" d="M2058.3 5493.3H958.301L1508.3 4943.3Z"/>
<path transform="matrix(.1,0,0,-.1,0,792)" d="M958.301 5493.3H2058.301V6593.3H958.301Z" fill="#ffffff"/>
<path transform="matrix(.1,0,0,-.1,0,792)" stroke-width="1" stroke-linecap="butt" stroke-miterlimit="10" stroke-linejoin="miter" fill="none" stroke="#000000" d="M958.301 5493.3H2058.301V6593.3H958.301Z"/>
<path transform="matrix(.1,0,0,-.1,0,792)" d="M2058.3 5493.3 2608.3 6043.3 2058.3 6593.3" fill="#758240"/>
<path transform="matrix(.1,0,0,-.1,0,792)" stroke-width="1" stroke-linecap="butt" stroke-miterlimit="10" stroke-linejoin="miter" fill="none" stroke="#000000" d="M2058.3 5493.3 2608.3 6043.3 2058.3 6593.3Z"/>
<path transform="matrix(.1,0,0,-.1,0,792)" d="M3708.3 4943.3 4258.3 4393.3V4943.3" fill="#ffffff"/>
<path transform="matrix(.1,0,0,-.1,0,792)" stroke-width="1" stroke-linecap="butt" stroke-miterlimit="10" stroke-linejoin="miter" fill="none" stroke="#000000" d="M3708.3 4943.3 4258.3 4393.3V4943.3Z"/>
<path transform="matrix(.1,0,0,-.1,0,792)" d="M2608.3 2743.3 2058.3 2193.3H2608.3" fill="#ffffff"/>
<path transform="matrix(.1,0,0,-.1,0,792)" stroke-width="1" stroke-linecap="butt" stroke-miterlimit="10" stroke-linejoin="miter" fill="none" stroke="#000000" d="M2608.3 2743.3 2058.3 2193.3H2608.3Z"/>
<path transform="matrix(.1,0,0,-.1,0,792)" d="M3708.3 2743.3 4258.3 2193.3V3293.3" fill="#758240"/>
<path transform="matrix(.1,0,0,-.1,0,792)" stroke-width="1" stroke-linecap="butt" stroke-miterlimit="10" stroke-linejoin="miter" fill="none" stroke="#000000" d="M3708.3 2743.3 4258.3 2193.3V3293.3Z"/>
<path transform="matrix(.1,0,0,-.1,0,792)" d="M3708.3 2743.3V2193.3H4258.3" fill="#ffffff"/>
<path transform="matrix(.1,0,0,-.1,0,792)" stroke-width="1" stroke-linecap="butt" stroke-miterlimit="10" stroke-linejoin="miter" fill="none" stroke="#000000" d="M3708.3 2743.3V2193.3H4258.3Z"/>
<path transform="matrix(.1,0,0,-.1,0,792)" d="M4258.3 3293.3 4808.3 3843.3H4258.3" fill="#ffffff"/>
<path transform="matrix(.1,0,0,-.1,0,792)" stroke-width="1" stroke-linecap="butt" stroke-miterlimit="10" stroke-linejoin="miter" fill="none" stroke="#000000" d="M4258.3 3293.3 4808.3 3843.3H4258.3Z"/>
<path transform="matrix(.1,0,0,-.1,0,792)" d="M4258.3 3293.3H5358.3L4808.3 3843.3" fill="#758240"/>
<path transform="matrix(.1,0,0,-.1,0,792)" stroke-width="1" stroke-linecap="butt" stroke-miterlimit="10" stroke-linejoin="miter" fill="none" stroke="#000000" d="M4258.3 3293.3H5358.3L4808.3 3843.3Z"/>
<path transform="matrix(.1,0,0,-.1,0,792)" d="M4258.3 2193.3H5358.3V3293.3H4258.3Z" fill="#ffffff"/>
<path transform="matrix(.1,0,0,-.1,0,792)" stroke-width="1" stroke-linecap="butt" stroke-miterlimit="10" stroke-linejoin="miter" fill="none" stroke="#000000" d="M4258.3 2193.3H5358.3V3293.3H4258.3Z"/>
<path transform="matrix(.1,0,0,-.1,0,792)" d="M4258.3 3843.3H5358.3V4943.3H4258.3V4393.3" fill="#758240"/>
<path transform="matrix(.1,0,0,-.1,0,792)" stroke-width="1" stroke-linecap="butt" stroke-miterlimit="10" stroke-linejoin="miter" fill="none" stroke="#000000" d="M4258.3 3843.3H5358.3V4943.3H4258.3V4393.3Z"/>
<path transform="matrix(.1,0,0,-.1,0,792)" d="M4258.3 4943.3H4808.3L4258.3 5493.3" fill="#ffffff"/>
<path transform="matrix(.1,0,0,-.1,0,792)" stroke-width="1" stroke-linecap="butt" stroke-miterlimit="10" stroke-linejoin="miter" fill="none" stroke="#000000" d="M4258.3 4943.3H4808.3L4258.3 5493.3Z"/>
<path transform="matrix(.1,0,0,-.1,0,792)" d="M4258.3 5493.3V6593.3L3708.3 6043.3" fill="#758240"/>
<path transform="matrix(.1,0,0,-.1,0,792)" stroke-width="1" stroke-linecap="butt" stroke-miterlimit="10" stroke-linejoin="miter" fill="none" stroke="#000000" d="M4258.3 5493.3V6593.3L3708.3 6043.3Z"/>
<path transform="matrix(.1,0,0,-.1,0,792)" d="M4258.3 5493.3H5358.3V6593.3H4258.3Z" fill="#ffffff"/>
<path transform="matrix(.1,0,0,-.1,0,792)" stroke-width="1" stroke-linecap="butt" stroke-miterlimit="10" stroke-linejoin="miter" fill="none" stroke="#000000" d="M4258.3 5493.3H5358.3V6593.3H4258.3Z"/>
<path transform="matrix(.1,0,0,-.1,0,792)" d="M4258.3 5493.3 4808.3 4943.3 5358.3 5493.3" fill="#758240"/>
<path transform="matrix(.1,0,0,-.1,0,792)" stroke-width="1" stroke-linecap="butt" stroke-miterlimit="10" stroke-linejoin="miter" fill="none" stroke="#000000" d="M4258.3 5493.3 4808.3 4943.3 5358.3 5493.3Z"/>
<path transform="matrix(.1,0,0,-.1,0,792)" d="M3708.3 6043.3 4258.3 6593.3H3708.3" fill="#ffffff"/>
<path transform="matrix(.1,0,0,-.1,0,792)" stroke-width="1" stroke-linecap="butt" stroke-miterlimit="10" stroke-linejoin="miter" fill="none" stroke="#000000" d="M3708.3 6043.3 4258.3 6593.3H3708.3Z"/>
<path transform="matrix(.1,0,0,-.1,0,792)" d="M2608.3 6043.3V6593.3H2058.3" fill="#ffffff"/>
<path transform="matrix(.1,0,0,-.1,0,792)" stroke-width="1" stroke-linecap="butt" stroke-miterlimit="10" stroke-linejoin="miter" fill="none" stroke="#000000" d="M2608.3 6043.3V6593.3H2058.3Z"/>
<path transform="matrix(.1,0,0,-.1,0,792)" d="M2058.3 1643.3H2608.3V2193.3H2058.3Z" fill="#758240"/>
<path transform="matrix(.1,0,0,-.1,0,792)" stroke-width="1" stroke-linecap="butt" stroke-miterlimit="10" stroke-linejoin="miter" fill="none" stroke="#000000" d="M2058.3 1643.3H2608.3V2193.3H2058.3Z"/>
<path transform="matrix(.1,0,0,-.1,0,792)" d="M2058.3 2193.3 1508.3 1643.3H2058.3" fill="#ffffff"/>
<path transform="matrix(.1,0,0,-.1,0,792)" stroke-width="1" stroke-linecap="butt" stroke-miterlimit="10" stroke-linejoin="miter" fill="none" stroke="#000000" d="M2058.3 2193.3 1508.3 1643.3H2058.3Z"/>
<path transform="matrix(.1,0,0,-.1,0,792)" d="M2058.3 2193.3H958.301L1508.3 1643.3" fill="#758240"/>
<path transform="matrix(.1,0,0,-.1,0,792)" stroke-width="1" stroke-linecap="butt" stroke-miterlimit="10" stroke-linejoin="miter" fill="none" stroke="#000000" d="M2058.3 2193.3H958.301L1508.3 1643.3Z"/>
<path transform="matrix(.1,0,0,-.1,0,792)" d="M2608.3 2193.3V1643.3L3158.3 2193.3" fill="#ffffff"/>
<path transform="matrix(.1,0,0,-.1,0,792)" stroke-width="1" stroke-linecap="butt" stroke-miterlimit="10" stroke-linejoin="miter" fill="none" stroke="#000000" d="M2608.3 2193.3V1643.3L3158.3 2193.3Z"/>
<path transform="matrix(.1,0,0,-.1,0,792)" d="M3158.3 2193.3 3708.3 1643.3V2193.3" fill="#ffffff"/>
<path transform="matrix(.1,0,0,-.1,0,792)" stroke-width="1" stroke-linecap="butt" stroke-miterlimit="10" stroke-linejoin="miter" fill="none" stroke="#000000" d="M3158.3 2193.3 3708.3 1643.3V2193.3Z"/>
<path transform="matrix(.1,0,0,-.1,0,792)" d="M3158.3 2193.3 2608.3 1643.3H3708.3" fill="#758240"/>
<path transform="matrix(.1,0,0,-.1,0,792)" stroke-width="1" stroke-linecap="butt" stroke-miterlimit="10" stroke-linejoin="miter" fill="none" stroke="#000000" d="M3158.3 2193.3 2608.3 1643.3H3708.3Z"/>
<path transform="matrix(.1,0,0,-.1,0,792)" d="M3708.3 1643.3H4258.3V2193.3H3708.3Z" fill="#758240"/>
<path transform="matrix(.1,0,0,-.1,0,792)" stroke-width="1" stroke-linecap="butt" stroke-miterlimit="10" stroke-linejoin="miter" fill="none" stroke="#000000" d="M3708.3 1643.3H4258.3V2193.3H3708.3Z"/>
<path transform="matrix(.1,0,0,-.1,0,792)" d="M4258.3 2193.3 4808.3 1643.3 5358.3 2193.3" fill="#758240"/>
<path transform="matrix(.1,0,0,-.1,0,792)" stroke-width="1" stroke-linecap="butt" stroke-miterlimit="10" stroke-linejoin="miter" fill="none" stroke="#000000" d="M4258.3 2193.3 4808.3 1643.3 5358.3 2193.3Z"/>
<path transform="matrix(.1,0,0,-.1,0,792)" d="M4258.3 2193.3V1643.3H4808.3" fill="#ffffff"/>
<path transform="matrix(.1,0,0,-.1,0,792)" stroke-width="1" stroke-linecap="butt" stroke-miterlimit="10" stroke-linejoin="miter" fill="none" stroke="#000000" d="M4258.3 2193.3V1643.3H4808.3Z"/>
<path transform="matrix(.1,0,0,-.1,0,792)" d="M1508.3 4943.3 958.301 5493.3V4943.3" fill="#ffffff"/>
<path transform="matrix(.1,0,0,-.1,0,792)" stroke-width="1" stroke-linecap="butt" stroke-miterlimit="10" stroke-linejoin="miter" fill="none" stroke="#000000" d="M1508.3 4943.3 958.301 5493.3V4943.3Z"/>
<path transform="matrix(.1,0,0,-.1,0,792)" d="M1508.3 3843.3H958.301V3293.3" fill="#ffffff"/>
<path transform="matrix(.1,0,0,-.1,0,792)" stroke-width="1" stroke-linecap="butt" stroke-miterlimit="10" stroke-linejoin="miter" fill="none" stroke="#000000" d="M1508.3 3843.3H958.301V3293.3Z"/>
<path transform="matrix(.1,0,0,-.1,0,792)" d="M3708.3 6593.3H4258.3V7143.3H3708.3Z" fill="#758240"/>
<path transform="matrix(.1,0,0,-.1,0,792)" stroke-width="1" stroke-linecap="butt" stroke-miterlimit="10" stroke-linejoin="miter" fill="none" stroke="#000000" d="M3708.3 6593.3H4258.3V7143.3H3708.3Z"/>
<path transform="matrix(.1,0,0,-.1,0,792)" d="M4258.3 6593.3 4808.3 7143.3H4258.3" fill="#ffffff"/>
<path transform="matrix(.1,0,0,-.1,0,792)" stroke-width="1" stroke-linecap="butt" stroke-miterlimit="10" stroke-linejoin="miter" fill="none" stroke="#000000" d="M4258.3 6593.3 4808.3 7143.3H4258.3Z"/>
<path transform="matrix(.1,0,0,-.1,0,792)" d="M4258.3 6593.3H5358.3L4808.3 7143.3" fill="#758240"/>
<path transform="matrix(.1,0,0,-.1,0,792)" stroke-width="1" stroke-linecap="butt" stroke-miterlimit="10" stroke-linejoin="miter" fill="none" stroke="#000000" d="M4258.3 6593.3H5358.3L4808.3 7143.3Z"/>
<path transform="matrix(.1,0,0,-.1,0,792)" d="M3708.3 6593.3V7143.3L3158.3 6593.3" fill="#ffffff"/>
<path transform="matrix(.1,0,0,-.1,0,792)" stroke-width="1" stroke-linecap="butt" stroke-miterlimit="10" stroke-linejoin="miter" fill="none" stroke="#000000" d="M3708.3 6593.3V7143.3L3158.3 6593.3Z"/>
<path transform="matrix(.1,0,0,-.1,0,792)" d="M3158.3 6593.3 2608.3 7143.3V6593.3" fill="#ffffff"/>
<path transform="matrix(.1,0,0,-.1,0,792)" stroke-width="1" stroke-linecap="butt" stroke-miterlimit="10" stroke-linejoin="miter" fill="none" stroke="#000000" d="M3158.3 6593.3 2608.3 7143.3V6593.3Z"/>
<path transform="matrix(.1,0,0,-.1,0,792)" d="M3158.3 6593.3 3708.3 7143.3H2608.3" fill="#758240"/>
<path transform="matrix(.1,0,0,-.1,0,792)" stroke-width="1" stroke-linecap="butt" stroke-miterlimit="10" stroke-linejoin="miter" fill="none" stroke="#000000" d="M3158.3 6593.3 3708.3 7143.3H2608.3Z"/>
<path transform="matrix(.1,0,0,-.1,0,792)" d="M2058.3 6593.3H2608.3V7143.3H2058.3Z" fill="#758240"/>
<path transform="matrix(.1,0,0,-.1,0,792)" stroke-width="1" stroke-linecap="butt" stroke-miterlimit="10" stroke-linejoin="miter" fill="none" stroke="#000000" d="M2058.3 6593.3H2608.3V7143.3H2058.3Z"/>
<path transform="matrix(.1,0,0,-.1,0,792)" d="M2058.3 6593.3 1508.3 7143.3 958.301 6593.3" fill="#758240"/>
<path transform="matrix(.1,0,0,-.1,0,792)" stroke-width="1" stroke-linecap="butt" stroke-miterlimit="10" stroke-linejoin="miter" fill="none" stroke="#000000" d="M2058.3 6593.3 1508.3 7143.3 958.301 6593.3Z"/>
<path transform="matrix(.1,0,0,-.1,0,792)" d="M2058.3 6593.3V7143.3H1508.3" fill="#ffffff"/>
<path transform="matrix(.1,0,0,-.1,0,792)" stroke-width="1" stroke-linecap="butt" stroke-miterlimit="10" stroke-linejoin="miter" fill="none" stroke="#000000" d="M2058.3 6593.3V7143.3H1508.3Z"/>
<path transform="matrix(.1,0,0,-.1,0,792)" d="M4808.3 3843.3 5358.3 3293.3V3843.3" fill="#ffffff"/>
<path transform="matrix(.1,0,0,-.1,0,792)" stroke-width="1" stroke-linecap="butt" stroke-miterlimit="10" stroke-linejoin="miter" fill="none" stroke="#000000" d="M4808.3 3843.3 5358.3 3293.3V3843.3Z"/>
<path transform="matrix(.1,0,0,-.1,0,792)" d="M4808.3 4943.3H5358.3V5493.3" fill="#ffffff"/>
<path transform="matrix(.1,0,0,-.1,0,792)" stroke-width="1" stroke-linecap="butt" stroke-miterlimit="10" stroke-linejoin="miter" fill="none" stroke="#000000" d="M4808.3 4943.3H5358.3V5493.3Z"/>
<path transform="matrix(.1,0,0,-.1,0,792)" d="M1508.3 1643.3H958.301V543.301H2058.3V1093.3 1643.3" fill="#758240"/>
<path transform="matrix(.1,0,0,-.1,0,792)" stroke-width="1" stroke-linecap="butt" stroke-miterlimit="10" stroke-linejoin="miter" fill="none" stroke="#000000" d="M1508.3 1643.3H958.301V543.301H2058.3V1093.3 1643.3Z"/>
<path transform="matrix(.1,0,0,-.1,0,792)" d="M1508.3 1643.3 958.301 2193.3V1643.3" fill="#ffffff"/>
<path transform="matrix(.1,0,0,-.1,0,792)" stroke-width="1" stroke-linecap="butt" stroke-miterlimit="10" stroke-linejoin="miter" fill="none" stroke="#000000" d="M1508.3 1643.3 958.301 2193.3V1643.3Z"/>
<path transform="matrix(.1,0,0,-.1,0,792)" d="M2058.3 1643.3V1093.3L2608.3 1643.3" fill="#ffffff"/>
<path transform="matrix(.1,0,0,-.1,0,792)" stroke-width="1" stroke-linecap="butt" stroke-miterlimit="10" stroke-linejoin="miter" fill="none" stroke="#000000" d="M2058.3 1643.3V1093.3L2608.3 1643.3Z"/>
<path transform="matrix(.1,0,0,-.1,0,792)" d="M2608.3 543.301H3708.3V1643.301H2608.3Z" fill="#ffffff"/>
<path transform="matrix(.1,0,0,-.1,0,792)" stroke-width="1" stroke-linecap="butt" stroke-miterlimit="10" stroke-linejoin="miter" fill="none" stroke="#000000" d="M2608.3 543.301H3708.3V1643.301H2608.3Z"/>
<path transform="matrix(.1,0,0,-.1,0,792)" d="M2608.3 1643.3 2058.3 1093.3 2608.3 543.301" fill="#758240"/>
<path transform="matrix(.1,0,0,-.1,0,792)" stroke-width="1" stroke-linecap="butt" stroke-miterlimit="10" stroke-linejoin="miter" fill="none" stroke="#000000" d="M2608.3 1643.3 2058.3 1093.3 2608.3 543.301Z"/>
<path transform="matrix(.1,0,0,-.1,0,792)" d="M3708.3 1643.3 4258.3 1093.3V1643.3" fill="#ffffff"/>
<path transform="matrix(.1,0,0,-.1,0,792)" stroke-width="1" stroke-linecap="butt" stroke-miterlimit="10" stroke-linejoin="miter" fill="none" stroke="#000000" d="M3708.3 1643.3 4258.3 1093.3V1643.3Z"/>
<path transform="matrix(.1,0,0,-.1,0,792)" d="M3708.3 1643.3V543.301L4258.3 1093.3" fill="#758240"/>
<path transform="matrix(.1,0,0,-.1,0,792)" stroke-width="1" stroke-linecap="butt" stroke-miterlimit="10" stroke-linejoin="miter" fill="none" stroke="#000000" d="M3708.3 1643.3V543.301L4258.3 1093.3Z"/>
<path transform="matrix(.1,0,0,-.1,0,792)" d="M4258.3 1643.3V543.301H5358.3V1643.3H4808.3" fill="#758240"/>
<path transform="matrix(.1,0,0,-.1,0,792)" stroke-width="1" stroke-linecap="butt" stroke-miterlimit="10" stroke-linejoin="miter" fill="none" stroke="#000000" d="M4258.3 1643.3V543.301H5358.3V1643.3H4808.3Z"/>
<path transform="matrix(.1,0,0,-.1,0,792)" d="M4808.3 1643.3H5358.3V2193.3" fill="#ffffff"/>
<path transform="matrix(.1,0,0,-.1,0,792)" stroke-width="1" stroke-linecap="butt" stroke-miterlimit="10" stroke-linejoin="miter" fill="none" stroke="#000000" d="M4808.3 1643.3H5358.3V2193.3Z"/>
<path transform="matrix(.1,0,0,-.1,0,792)" d="M958.301 6593.3 408.301 6043.3 958.301 5493.3" fill="#758240"/>
<path transform="matrix(.1,0,0,-.1,0,792)" stroke-width="1" stroke-linecap="butt" stroke-miterlimit="10" stroke-linejoin="miter" fill="none" stroke="#000000" d="M958.301 6593.3 408.301 6043.3 958.301 5493.3Z"/>
<path transform="matrix(.1,0,0,-.1,0,792)" d="M958.301 6593.3H408.301V6043.3" fill="#ffffff"/>
<path transform="matrix(.1,0,0,-.1,0,792)" stroke-width="1" stroke-linecap="butt" stroke-miterlimit="10" stroke-linejoin="miter" fill="none" stroke="#000000" d="M958.301 6593.3H408.301V6043.3Z"/>
<path transform="matrix(.1,0,0,-.1,0,792)" d="M408.301 6593.3H958.301V7143.3H408.301Z" fill="#758240"/>
<path transform="matrix(.1,0,0,-.1,0,792)" stroke-width="1" stroke-linecap="butt" stroke-miterlimit="10" stroke-linejoin="miter" fill="none" stroke="#000000" d="M408.301 6593.3H958.301V7143.3H408.301Z"/>
<path transform="matrix(.1,0,0,-.1,0,792)" d="M958.301 6593.3 1508.3 7143.3H958.301" fill="#ffffff"/>
<path transform="matrix(.1,0,0,-.1,0,792)" stroke-width="1" stroke-linecap="butt" stroke-miterlimit="10" stroke-linejoin="miter" fill="none" stroke="#000000" d="M958.301 6593.3 1508.3 7143.3H958.301Z"/>
<path transform="matrix(.1,0,0,-.1,0,792)" d="M408.301 4943.3H958.301V5493.3H408.301Z" fill="#758240"/>
<path transform="matrix(.1,0,0,-.1,0,792)" stroke-width="1" stroke-linecap="butt" stroke-miterlimit="10" stroke-linejoin="miter" fill="none" stroke="#000000" d="M408.301 4943.3H958.301V5493.3H408.301Z"/>
<path transform="matrix(.1,0,0,-.1,0,792)" d="M958.301 5493.3 408.301 6043.3V5493.3" fill="#ffffff"/>
<path transform="matrix(.1,0,0,-.1,0,792)" stroke-width="1" stroke-linecap="butt" stroke-miterlimit="10" stroke-linejoin="miter" fill="none" stroke="#000000" d="M958.301 5493.3 408.301 6043.3V5493.3Z"/>
<path transform="matrix(.1,0,0,-.1,0,792)" d="M958.301 4943.3H408.301L958.301 4393.3" fill="#ffffff"/>
<path transform="matrix(.1,0,0,-.1,0,792)" stroke-width="1" stroke-linecap="butt" stroke-miterlimit="10" stroke-linejoin="miter" fill="none" stroke="#000000" d="M958.301 4943.3H408.301L958.301 4393.3Z"/>
<path transform="matrix(.1,0,0,-.1,0,792)" d="M958.301 4393.3 408.301 3843.3H958.301" fill="#ffffff"/>
<path transform="matrix(.1,0,0,-.1,0,792)" stroke-width="1" stroke-linecap="butt" stroke-miterlimit="10" stroke-linejoin="miter" fill="none" stroke="#000000" d="M958.301 4393.3 408.301 3843.3H958.301Z"/>
<path transform="matrix(.1,0,0,-.1,0,792)" d="M958.301 4393.3 408.301 4943.3V3843.3" fill="#758240"/>
<path transform="matrix(.1,0,0,-.1,0,792)" stroke-width="1" stroke-linecap="butt" stroke-miterlimit="10" stroke-linejoin="miter" fill="none" stroke="#000000" d="M958.301 4393.3 408.301 4943.3V3843.3Z"/>
<path transform="matrix(.1,0,0,-.1,0,792)" d="M408.301 3293.3H958.301V3843.3H408.301Z" fill="#758240"/>
<path transform="matrix(.1,0,0,-.1,0,792)" stroke-width="1" stroke-linecap="butt" stroke-miterlimit="10" stroke-linejoin="miter" fill="none" stroke="#000000" d="M408.301 3293.3H958.301V3843.3H408.301Z"/>
<path transform="matrix(.1,0,0,-.1,0,792)" d="M958.301 3293.3 408.301 2743.3 958.301 2193.3" fill="#758240"/>
<path transform="matrix(.1,0,0,-.1,0,792)" stroke-width="1" stroke-linecap="butt" stroke-miterlimit="10" stroke-linejoin="miter" fill="none" stroke="#000000" d="M958.301 3293.3 408.301 2743.3 958.301 2193.3Z"/>
<path transform="matrix(.1,0,0,-.1,0,792)" d="M958.301 3293.3H408.301V2743.3" fill="#ffffff"/>
<path transform="matrix(.1,0,0,-.1,0,792)" stroke-width="1" stroke-linecap="butt" stroke-miterlimit="10" stroke-linejoin="miter" fill="none" stroke="#000000" d="M958.301 3293.3H408.301V2743.3Z"/>
<path transform="matrix(.1,0,0,-.1,0,792)" d="M408.301 1643.3H958.301V2193.3H408.301Z" fill="#758240"/>
<path transform="matrix(.1,0,0,-.1,0,792)" stroke-width="1" stroke-linecap="butt" stroke-miterlimit="10" stroke-linejoin="miter" fill="none" stroke="#000000" d="M408.301 1643.3H958.301V2193.3H408.301Z"/>
<path transform="matrix(.1,0,0,-.1,0,792)" d="M958.301 2193.3 408.301 2743.3V2193.3" fill="#ffffff"/>
<path transform="matrix(.1,0,0,-.1,0,792)" stroke-width="1" stroke-linecap="butt" stroke-miterlimit="10" stroke-linejoin="miter" fill="none" stroke="#000000" d="M958.301 2193.3 408.301 2743.3V2193.3Z"/>
<path transform="matrix(.1,0,0,-.1,0,792)" d="M958.301 1643.3H408.301L958.301 1093.3" fill="#ffffff"/>
<path transform="matrix(.1,0,0,-.1,0,792)" stroke-width="1" stroke-linecap="butt" stroke-miterlimit="10" stroke-linejoin="miter" fill="none" stroke="#000000" d="M958.301 1643.3H408.301L958.301 1093.3Z"/>
<path transform="matrix(.1,0,0,-.1,0,792)" d="M4808.3 7143.3H5358.3V8243.3H4258.3V7693.3 7143.3" fill="#758240"/>
<path transform="matrix(.1,0,0,-.1,0,792)" stroke-width="1" stroke-linecap="butt" stroke-miterlimit="10" stroke-linejoin="miter" fill="none" stroke="#000000" d="M4808.3 7143.3H5358.3V8243.3H4258.3V7693.3 7143.3Z"/>
<path transform="matrix(.1,0,0,-.1,0,792)" d="M4808.3 7143.3 5358.3 6593.3V7143.3" fill="#ffffff"/>
<path transform="matrix(.1,0,0,-.1,0,792)" stroke-width="1" stroke-linecap="butt" stroke-miterlimit="10" stroke-linejoin="miter" fill="none" stroke="#000000" d="M4808.3 7143.3 5358.3 6593.3V7143.3Z"/>
<path transform="matrix(.1,0,0,-.1,0,792)" d="M4258.3 7143.3V7693.3L3708.3 7143.3" fill="#ffffff"/>
<path transform="matrix(.1,0,0,-.1,0,792)" stroke-width="1" stroke-linecap="butt" stroke-miterlimit="10" stroke-linejoin="miter" fill="none" stroke="#000000" d="M4258.3 7143.3V7693.3L3708.3 7143.3Z"/>
<path transform="matrix(.1,0,0,-.1,0,792)" d="M2608.3 7143.3H3708.3V8243.3H2608.3Z" fill="#ffffff"/>
<path transform="matrix(.1,0,0,-.1,0,792)" stroke-width="1" stroke-linecap="butt" stroke-miterlimit="10" stroke-linejoin="miter" fill="none" stroke="#000000" d="M2608.3 7143.3H3708.3V8243.3H2608.3Z"/>
<path transform="matrix(.1,0,0,-.1,0,792)" d="M3708.3 7143.3 4258.3 7693.3 3708.3 8243.3" fill="#758240"/>
<path transform="matrix(.1,0,0,-.1,0,792)" stroke-width="1" stroke-linecap="butt" stroke-miterlimit="10" stroke-linejoin="miter" fill="none" stroke="#000000" d="M3708.3 7143.3 4258.3 7693.3 3708.3 8243.3Z"/>
<path transform="matrix(.1,0,0,-.1,0,792)" d="M2608.3 7143.3 2058.3 7693.3V7143.3" fill="#ffffff"/>
<path transform="matrix(.1,0,0,-.1,0,792)" stroke-width="1" stroke-linecap="butt" stroke-miterlimit="10" stroke-linejoin="miter" fill="none" stroke="#000000" d="M2608.3 7143.3 2058.3 7693.3V7143.3Z"/>
<path transform="matrix(.1,0,0,-.1,0,792)" d="M2608.3 7143.3V8243.3L2058.3 7693.3" fill="#758240"/>
<path transform="matrix(.1,0,0,-.1,0,792)" stroke-width="1" stroke-linecap="butt" stroke-miterlimit="10" stroke-linejoin="miter" fill="none" stroke="#000000" d="M2608.3 7143.3V8243.3L2058.3 7693.3Z"/>
<path transform="matrix(.1,0,0,-.1,0,792)" d="M2058.3 7143.3V8243.3H958.301V7143.3H1508.3" fill="#758240"/>
<path transform="matrix(.1,0,0,-.1,0,792)" stroke-width="1" stroke-linecap="butt" stroke-miterlimit="10" stroke-linejoin="miter" fill="none" stroke="#000000" d="M2058.3 7143.3V8243.3H958.301V7143.3H1508.3Z"/>
<path transform="matrix(.1,0,0,-.1,0,792)" d="M958.301 7143.3V7693.3L408.301 7143.3" fill="#ffffff"/>
<path transform="matrix(.1,0,0,-.1,0,792)" stroke-width="1" stroke-linecap="butt" stroke-miterlimit="10" stroke-linejoin="miter" fill="none" stroke="#000000" d="M958.301 7143.3V7693.3L408.301 7143.3Z"/>
<path transform="matrix(.1,0,0,-.1,0,792)" d="M958.301 1093.3 408.301 543.301H958.301" fill="#ffffff"/>
<path transform="matrix(.1,0,0,-.1,0,792)" stroke-width="1" stroke-linecap="butt" stroke-miterlimit="10" stroke-linejoin="miter" fill="none" stroke="#000000" d="M958.301 1093.3 408.301 543.301H958.301Z"/>
<path transform="matrix(.1,0,0,-.1,0,792)" d="M958.301 1093.3 408.301 1643.3V543.301" fill="#758240"/>
<path transform="matrix(.1,0,0,-.1,0,792)" stroke-width="1" stroke-linecap="butt" stroke-miterlimit="10" stroke-linejoin="miter" fill="none" stroke="#000000" d="M958.301 1093.3 408.301 1643.3V543.301Z"/>
<path transform="matrix(.1,0,0,-.1,0,792)" d="M2058.3 1093.3V543.301H2608.3" fill="#ffffff"/>
<path transform="matrix(.1,0,0,-.1,0,792)" stroke-width="1" stroke-linecap="butt" stroke-miterlimit="10" stroke-linejoin="miter" fill="none" stroke="#000000" d="M2058.3 1093.3V543.301H2608.3Z"/>
<path transform="matrix(.1,0,0,-.1,0,792)" d="M4258.3 1093.3 3708.3 543.301H4258.3" fill="#ffffff"/>
<path transform="matrix(.1,0,0,-.1,0,792)" stroke-width="1" stroke-linecap="butt" stroke-miterlimit="10" stroke-linejoin="miter" fill="none" stroke="#000000" d="M4258.3 1093.3 3708.3 543.301H4258.3Z"/>
<path transform="matrix(.1,0,0,-.1,0,792)" d="M5358.3 1093.3 5908.3 1643.3H5358.3" fill="#ffffff"/>
<path transform="matrix(.1,0,0,-.1,0,792)" stroke-width="1" stroke-linecap="butt" stroke-miterlimit="10" stroke-linejoin="miter" fill="none" stroke="#000000" d="M5358.3 1093.3 5908.3 1643.3H5358.3Z"/>
<path transform="matrix(.1,0,0,-.1,0,792)" d="M5358.3 1093.3 5908.3 543.301V1643.3" fill="#758240"/>
<path transform="matrix(.1,0,0,-.1,0,792)" stroke-width="1" stroke-linecap="butt" stroke-miterlimit="10" stroke-linejoin="miter" fill="none" stroke="#000000" d="M5358.3 1093.3 5908.3 543.301V1643.3Z"/>
<path transform="matrix(.1,0,0,-.1,0,792)" d="M5358.3 1093.3V543.301H5908.3" fill="#ffffff"/>
<path transform="matrix(.1,0,0,-.1,0,792)" stroke-width="1" stroke-linecap="butt" stroke-miterlimit="10" stroke-linejoin="miter" fill="none" stroke="#000000" d="M5358.3 1093.3V543.301H5908.3Z"/>
<path transform="matrix(.1,0,0,-.1,0,792)" d="M5358.3 1643.3H5908.3V2193.3H5358.3Z" fill="#758240"/>
<path transform="matrix(.1,0,0,-.1,0,792)" stroke-width="1" stroke-linecap="butt" stroke-miterlimit="10" stroke-linejoin="miter" fill="none" stroke="#000000" d="M5358.3 1643.3H5908.3V2193.3H5358.3Z"/>
<path transform="matrix(.1,0,0,-.1,0,792)" d="M5358.3 2193.3 5908.3 2743.3 5358.3 3293.3" fill="#758240"/>
<path transform="matrix(.1,0,0,-.1,0,792)" stroke-width="1" stroke-linecap="butt" stroke-miterlimit="10" stroke-linejoin="miter" fill="none" stroke="#000000" d="M5358.3 2193.3 5908.3 2743.3 5358.3 3293.3Z"/>
<path transform="matrix(.1,0,0,-.1,0,792)" d="M5358.3 2193.3H5908.3V2743.3" fill="#ffffff"/>
<path transform="matrix(.1,0,0,-.1,0,792)" stroke-width="1" stroke-linecap="butt" stroke-miterlimit="10" stroke-linejoin="miter" fill="none" stroke="#000000" d="M5358.3 2193.3H5908.3V2743.3Z"/>
<path transform="matrix(.1,0,0,-.1,0,792)" d="M5358.3 3293.3H5908.3V3843.3H5358.3Z" fill="#758240"/>
<path transform="matrix(.1,0,0,-.1,0,792)" stroke-width="1" stroke-linecap="butt" stroke-miterlimit="10" stroke-linejoin="miter" fill="none" stroke="#000000" d="M5358.3 3293.3H5908.3V3843.3H5358.3Z"/>
<path transform="matrix(.1,0,0,-.1,0,792)" d="M5358.3 3293.3 5908.3 2743.3V3293.3" fill="#ffffff"/>
<path transform="matrix(.1,0,0,-.1,0,792)" stroke-width="1" stroke-linecap="butt" stroke-miterlimit="10" stroke-linejoin="miter" fill="none" stroke="#000000" d="M5358.3 3293.3 5908.3 2743.3V3293.3Z"/>
<path transform="matrix(.1,0,0,-.1,0,792)" d="M5358.3 3843.3H5908.3L5358.3 4393.3" fill="#ffffff"/>
<path transform="matrix(.1,0,0,-.1,0,792)" stroke-width="1" stroke-linecap="butt" stroke-miterlimit="10" stroke-linejoin="miter" fill="none" stroke="#000000" d="M5358.3 3843.3H5908.3L5358.3 4393.3Z"/>
<path transform="matrix(.1,0,0,-.1,0,792)" d="M5358.3 4393.3 5908.3 4943.3H5358.3" fill="#ffffff"/>
<path transform="matrix(.1,0,0,-.1,0,792)" stroke-width="1" stroke-linecap="butt" stroke-miterlimit="10" stroke-linejoin="miter" fill="none" stroke="#000000" d="M5358.3 4393.3 5908.3 4943.3H5358.3Z"/>
<path transform="matrix(.1,0,0,-.1,0,792)" d="M5358.3 4393.3 5908.3 3843.3V4943.3" fill="#758240"/>
<path transform="matrix(.1,0,0,-.1,0,792)" stroke-width="1" stroke-linecap="butt" stroke-miterlimit="10" stroke-linejoin="miter" fill="none" stroke="#000000" d="M5358.3 4393.3 5908.3 3843.3V4943.3Z"/>
<path transform="matrix(.1,0,0,-.1,0,792)" d="M5358.3 4943.3H5908.3V5493.3H5358.3Z" fill="#758240"/>
<path transform="matrix(.1,0,0,-.1,0,792)" stroke-width="1" stroke-linecap="butt" stroke-miterlimit="10" stroke-linejoin="miter" fill="none" stroke="#000000" d="M5358.3 4943.3H5908.3V5493.3H5358.3Z"/>
<path transform="matrix(.1,0,0,-.1,0,792)" d="M5358.3 5493.3 5908.3 6043.3 5358.3 6593.3" fill="#758240"/>
<path transform="matrix(.1,0,0,-.1,0,792)" stroke-width="1" stroke-linecap="butt" stroke-miterlimit="10" stroke-linejoin="miter" fill="none" stroke="#000000" d="M5358.3 5493.3 5908.3 6043.3 5358.3 6593.3Z"/>
<path transform="matrix(.1,0,0,-.1,0,792)" d="M5358.3 5493.3H5908.3V6043.3" fill="#ffffff"/>
<path transform="matrix(.1,0,0,-.1,0,792)" stroke-width="1" stroke-linecap="butt" stroke-miterlimit="10" stroke-linejoin="miter" fill="none" stroke="#000000" d="M5358.3 5493.3H5908.3V6043.3Z"/>
<path transform="matrix(.1,0,0,-.1,0,792)" d="M5358.3 6593.3H5908.3V7143.3H5358.3Z" fill="#758240"/>
<path transform="matrix(.1,0,0,-.1,0,792)" stroke-width="1" stroke-linecap="butt" stroke-miterlimit="10" stroke-linejoin="miter" fill="none" stroke="#000000" d="M5358.3 6593.3H5908.3V7143.3H5358.3Z"/>
<path transform="matrix(.1,0,0,-.1,0,792)" d="M5358.3 6593.3 5908.3 6043.3V6593.3" fill="#ffffff"/>
<path transform="matrix(.1,0,0,-.1,0,792)" stroke-width="1" stroke-linecap="butt" stroke-miterlimit="10" stroke-linejoin="miter" fill="none" stroke="#000000" d="M5358.3 6593.3 5908.3 6043.3V6593.3Z"/>
<path transform="matrix(.1,0,0,-.1,0,792)" d="M5358.3 7143.3H5908.3L5358.3 7693.3" fill="#ffffff"/>
<path transform="matrix(.1,0,0,-.1,0,792)" stroke-width="1" stroke-linecap="butt" stroke-miterlimit="10" stroke-linejoin="miter" fill="none" stroke="#000000" d="M5358.3 7143.3H5908.3L5358.3 7693.3Z"/>
<path transform="matrix(.1,0,0,-.1,0,792)" d="M5358.3 7693.3 5908.3 8243.3H5358.3" fill="#ffffff"/>
<path transform="matrix(.1,0,0,-.1,0,792)" stroke-width="1" stroke-linecap="butt" stroke-miterlimit="10" stroke-linejoin="miter" fill="none" stroke="#000000" d="M5358.3 7693.3 5908.3 8243.3H5358.3Z"/>
<path transform="matrix(.1,0,0,-.1,0,792)" d="M5358.3 7693.3 5908.3 7143.3V8243.3" fill="#758240"/>
<path transform="matrix(.1,0,0,-.1,0,792)" stroke-width="1" stroke-linecap="butt" stroke-miterlimit="10" stroke-linejoin="miter" fill="none" stroke="#000000" d="M5358.3 7693.3 5908.3 7143.3V8243.3Z"/>
<path transform="matrix(.1,0,0,-.1,0,792)" d="M4258.3 7693.3V8243.3H3708.3" fill="#ffffff"/>
<path transform="matrix(.1,0,0,-.1,0,792)" stroke-width="1" stroke-linecap="butt" stroke-miterlimit="10" stroke-linejoin="miter" fill="none" stroke="#000000" d="M4258.3 7693.3V8243.3H3708.3Z"/>
<path transform="matrix(.1,0,0,-.1,0,792)" d="M2058.3 7693.3 2608.3 8243.3H2058.3" fill="#ffffff"/>
<path transform="matrix(.1,0,0,-.1,0,792)" stroke-width="1" stroke-linecap="butt" stroke-miterlimit="10" stroke-linejoin="miter" fill="none" stroke="#000000" d="M2058.3 7693.3 2608.3 8243.3H2058.3Z"/>
<path transform="matrix(.1,0,0,-.1,0,792)" d="M958.301 7693.3 408.301 8243.3V7143.3" fill="#758240"/>
<path transform="matrix(.1,0,0,-.1,0,792)" stroke-width="1" stroke-linecap="butt" stroke-miterlimit="10" stroke-linejoin="miter" fill="none" stroke="#000000" d="M958.301 7693.3 408.301 8243.3V7143.3Z"/>
<path transform="matrix(.1,0,0,-.1,0,792)" d="M958.301 7693.3V8243.3H408.301" fill="#ffffff"/>
<path transform="matrix(.1,0,0,-.1,0,792)" stroke-width="1" stroke-linecap="butt" stroke-miterlimit="10" stroke-linejoin="miter" fill="none" stroke="#000000" d="M958.301 7693.3V8243.3H408.301Z"/>
<path transform="matrix(.1,0,0,-.1,0,792)" d="M408.301 7143.3-141.699 6593.3H408.301" fill="#ffffff"/>
<path transform="matrix(.1,0,0,-.1,0,792)" stroke-width="1" stroke-linecap="butt" stroke-miterlimit="10" stroke-linejoin="miter" fill="none" stroke="#000000" d="M408.301 7143.3-141.699 6593.3H408.301Z"/>
<path transform="matrix(.1,0,0,-.1,0,792)" d="M408.301 7143.3H-691.699L-141.699 6593.3" fill="#758240"/>
<path transform="matrix(.1,0,0,-.1,0,792)" stroke-width="1" stroke-linecap="butt" stroke-miterlimit="10" stroke-linejoin="miter" fill="none" stroke="#000000" d="M408.301 7143.3H-691.699L-141.699 6593.3Z"/>
<path transform="matrix(.1,0,0,-.1,0,792)" d="M0 7143.3H408.301V8243.3H0Z" fill="#ffffff"/>
<path transform="matrix(.1,0,0,-.1,0,792)" stroke-width="1" stroke-linecap="butt" stroke-miterlimit="10" stroke-linejoin="miter" fill="none" stroke="#000000" d="M-1.49609 7143.3H408.3009V8243.3H-1.49609Z"/>
<path transform="matrix(.1,0,0,-.1,0,792)" d="M408.301 6593.3H-691.699V5493.3H408.301V6043.3" fill="#758240"/>
<path transform="matrix(.1,0,0,-.1,0,792)" stroke-width="1" stroke-linecap="butt" stroke-miterlimit="10" stroke-linejoin="miter" fill="none" stroke="#000000" d="M408.301 6593.3H-691.699V5493.3H408.301V6043.3Z"/>
<path transform="matrix(.1,0,0,-.1,0,792)" d="M408.301 5493.3H-141.699L408.301 4943.3" fill="#ffffff"/>
<path transform="matrix(.1,0,0,-.1,0,792)" stroke-width="1" stroke-linecap="butt" stroke-miterlimit="10" stroke-linejoin="miter" fill="none" stroke="#000000" d="M408.301 5493.3H-141.699L408.301 4943.3Z"/>
<path transform="matrix(.1,0,0,-.1,0,792)" d="M0 3843.3H408.301V4943.3H0Z" fill="#ffffff"/>
<path transform="matrix(.1,0,0,-.1,0,792)" stroke-width="1" stroke-linecap="butt" stroke-miterlimit="10" stroke-linejoin="miter" fill="none" stroke="#000000" d="M-1.49609 3843.3H408.3009V4943.3H-1.49609Z"/>
<path transform="matrix(.1,0,0,-.1,0,792)" d="M408.301 4943.3-141.699 5493.3-691.699 4943.3" fill="#758240"/>
<path transform="matrix(.1,0,0,-.1,0,792)" stroke-width="1" stroke-linecap="butt" stroke-miterlimit="10" stroke-linejoin="miter" fill="none" stroke="#000000" d="M408.301 4943.3-141.699 5493.3-691.699 4943.3Z"/>
<path transform="matrix(.1,0,0,-.1,0,792)" d="M408.301 3843.3-141.699 3293.3H408.301" fill="#ffffff"/>
<path transform="matrix(.1,0,0,-.1,0,792)" stroke-width="1" stroke-linecap="butt" stroke-miterlimit="10" stroke-linejoin="miter" fill="none" stroke="#000000" d="M408.301 3843.3-141.699 3293.3H408.301Z"/>
<path transform="matrix(.1,0,0,-.1,0,792)" d="M408.301 3843.3H-691.699L-141.699 3293.3" fill="#758240"/>
<path transform="matrix(.1,0,0,-.1,0,792)" stroke-width="1" stroke-linecap="butt" stroke-miterlimit="10" stroke-linejoin="miter" fill="none" stroke="#000000" d="M408.301 3843.3H-691.699L-141.699 3293.3Z"/>
<path transform="matrix(.1,0,0,-.1,0,792)" d="M408.301 3293.3H-691.699V2193.3H408.301V2743.3" fill="#758240"/>
<path transform="matrix(.1,0,0,-.1,0,792)" stroke-width="1" stroke-linecap="butt" stroke-miterlimit="10" stroke-linejoin="miter" fill="none" stroke="#000000" d="M408.301 3293.3H-691.699V2193.3H408.301V2743.3Z"/>
<path transform="matrix(.1,0,0,-.1,0,792)" d="M408.301 2193.3H-141.699L408.301 1643.3" fill="#ffffff"/>
<path transform="matrix(.1,0,0,-.1,0,792)" stroke-width="1" stroke-linecap="butt" stroke-miterlimit="10" stroke-linejoin="miter" fill="none" stroke="#000000" d="M408.301 2193.3H-141.699L408.301 1643.3Z"/>
<path transform="matrix(.1,0,0,-.1,0,792)" d="M0 543.301H408.301V1643.301H0Z" fill="#ffffff"/>
<path transform="matrix(.1,0,0,-.1,0,792)" stroke-width="1" stroke-linecap="butt" stroke-miterlimit="10" stroke-linejoin="miter" fill="none" stroke="#000000" d="M-1.49609 543.301H408.3009V1643.301H-1.49609Z"/>
<path transform="matrix(.1,0,0,-.1,0,792)" d="M408.301 1643.3-141.699 2193.3-691.699 1643.3" fill="#758240"/>
<path transform="matrix(.1,0,0,-.1,0,792)" stroke-width="1" stroke-linecap="butt" stroke-miterlimit="10" stroke-linejoin="miter" fill="none" stroke="#000000" d="M408.301 1643.3-141.699 2193.3-691.699 1643.3Z"/>
<path transform="matrix(.1,0,0,-.1,0,792)" d="M408.301 0H958.301V543.301H408.301Z" fill="#758240"/>
<path transform="matrix(.1,0,0,-.1,0,792)" stroke-width="1" stroke-linecap="butt" stroke-miterlimit="10" stroke-linejoin="miter" fill="none" stroke="#000000" d="M408.301-1.49609H958.301V543.3009H408.301Z"/>
<path transform="matrix(.1,0,0,-.1,0,792)" d="M408.301 543.301-141.699-6.69922H408.301" fill="#ffffff"/>
<path transform="matrix(.1,0,0,-.1,0,792)" stroke-width="1" stroke-linecap="butt" stroke-miterlimit="10" stroke-linejoin="miter" fill="none" stroke="#000000" d="M408.301 543.301-141.699-6.69922H408.301Z"/>
<path transform="matrix(.1,0,0,-.1,0,792)" d="M408.301 543.301H-691.699L-141.699-6.69922" fill="#758240"/>
<path transform="matrix(.1,0,0,-.1,0,792)" stroke-width="1" stroke-linecap="butt" stroke-miterlimit="10" stroke-linejoin="miter" fill="none" stroke="#000000" d="M408.301 543.301H-691.699L-141.699-6.69922Z"/>
<path transform="matrix(.1,0,0,-.1,0,792)" d="M958.301 543.301V-6.69922L1508.3 543.301" fill="#ffffff"/>
<path transform="matrix(.1,0,0,-.1,0,792)" stroke-width="1" stroke-linecap="butt" stroke-miterlimit="10" stroke-linejoin="miter" fill="none" stroke="#000000" d="M958.301 543.301V-6.69922L1508.3 543.301Z"/>
<path transform="matrix(.1,0,0,-.1,0,792)" d="M1508.3 543.301 2058.3-6.69922V543.301" fill="#ffffff"/>
<path transform="matrix(.1,0,0,-.1,0,792)" stroke-width="1" stroke-linecap="butt" stroke-miterlimit="10" stroke-linejoin="miter" fill="none" stroke="#000000" d="M1508.3 543.301 2058.3-6.69922V543.301Z"/>
<path transform="matrix(.1,0,0,-.1,0,792)" d="M1508.3 543.301 958.301-6.69922H2058.3" fill="#758240"/>
<path transform="matrix(.1,0,0,-.1,0,792)" stroke-width="1" stroke-linecap="butt" stroke-miterlimit="10" stroke-linejoin="miter" fill="none" stroke="#000000" d="M1508.3 543.301 958.301-6.69922H2058.3Z"/>
<path transform="matrix(.1,0,0,-.1,0,792)" d="M2058.3 0H2608.3V543.301H2058.3Z" fill="#758240"/>
<path transform="matrix(.1,0,0,-.1,0,792)" stroke-width="1" stroke-linecap="butt" stroke-miterlimit="10" stroke-linejoin="miter" fill="none" stroke="#000000" d="M2058.3-1.49609H2608.3V543.3009H2058.3Z"/>
<path transform="matrix(.1,0,0,-.1,0,792)" d="M2608.3 543.301 3158.3-6.69922 3708.3 543.301" fill="#758240"/>
<path transform="matrix(.1,0,0,-.1,0,792)" stroke-width="1" stroke-linecap="butt" stroke-miterlimit="10" stroke-linejoin="miter" fill="none" stroke="#000000" d="M2608.3 543.301 3158.3-6.69922 3708.3 543.301Z"/>
<path transform="matrix(.1,0,0,-.1,0,792)" d="M2608.3 543.301V-6.69922H3158.3" fill="#ffffff"/>
<path transform="matrix(.1,0,0,-.1,0,792)" stroke-width="1" stroke-linecap="butt" stroke-miterlimit="10" stroke-linejoin="miter" fill="none" stroke="#000000" d="M2608.3 543.301V-6.69922H3158.3Z"/>
<path transform="matrix(.1,0,0,-.1,0,792)" d="M3708.3 0H4258.3V543.301H3708.3Z" fill="#758240"/>
<path transform="matrix(.1,0,0,-.1,0,792)" stroke-width="1" stroke-linecap="butt" stroke-miterlimit="10" stroke-linejoin="miter" fill="none" stroke="#000000" d="M3708.3-1.49609H4258.3V543.3009H3708.3Z"/>
<path transform="matrix(.1,0,0,-.1,0,792)" d="M3708.3 543.301 3158.3-6.69922H3708.3" fill="#ffffff"/>
<path transform="matrix(.1,0,0,-.1,0,792)" stroke-width="1" stroke-linecap="butt" stroke-miterlimit="10" stroke-linejoin="miter" fill="none" stroke="#000000" d="M3708.3 543.301 3158.3-6.69922H3708.3Z"/>
<path transform="matrix(.1,0,0,-.1,0,792)" d="M4258.3 543.301V-6.69922L4808.3 543.301" fill="#ffffff"/>
<path transform="matrix(.1,0,0,-.1,0,792)" stroke-width="1" stroke-linecap="butt" stroke-miterlimit="10" stroke-linejoin="miter" fill="none" stroke="#000000" d="M4258.3 543.301V-6.69922L4808.3 543.301Z"/>
<path transform="matrix(.1,0,0,-.1,0,792)" d="M4808.3 543.301 5358.3-6.69922V543.301" fill="#ffffff"/>
<path transform="matrix(.1,0,0,-.1,0,792)" stroke-width="1" stroke-linecap="butt" stroke-miterlimit="10" stroke-linejoin="miter" fill="none" stroke="#000000" d="M4808.3 543.301 5358.3-6.69922V543.301Z"/>
<path transform="matrix(.1,0,0,-.1,0,792)" d="M4808.3 543.301 4258.3-6.69922H5358.3" fill="#758240"/>
<path transform="matrix(.1,0,0,-.1,0,792)" stroke-width="1" stroke-linecap="butt" stroke-miterlimit="10" stroke-linejoin="miter" fill="none" stroke="#000000" d="M4808.3 543.301 4258.3-6.69922H5358.3Z"/>
<path transform="matrix(.1,0,0,-.1,0,792)" d="M5358.3 0H5908.3V543.301H5358.3Z" fill="#758240"/>
<path transform="matrix(.1,0,0,-.1,0,792)" stroke-width="1" stroke-linecap="butt" stroke-miterlimit="10" stroke-linejoin="miter" fill="none" stroke="#000000" d="M5358.3-1.49609H5908.3V543.3009H5358.3Z"/>
<path transform="matrix(.1,0,0,-.1,0,792)" d="M5908.3 543.301H7008.3V1643.301H5908.3Z" fill="#ffffff"/>
<path transform="matrix(.1,0,0,-.1,0,792)" stroke-width="1" stroke-linecap="butt" stroke-miterlimit="10" stroke-linejoin="miter" fill="none" stroke="#000000" d="M5908.3 543.301H7008.3V1643.301H5908.3Z"/>
<path transform="matrix(.1,0,0,-.1,0,792)" d="M5908.3 543.301 6458.3-6.69922 7008.3 543.301" fill="#758240"/>
<path transform="matrix(.1,0,0,-.1,0,792)" stroke-width="1" stroke-linecap="butt" stroke-miterlimit="10" stroke-linejoin="miter" fill="none" stroke="#000000" d="M5908.3 543.301 6458.3-6.69922 7008.3 543.301Z"/>
<path transform="matrix(.1,0,0,-.1,0,792)" d="M5908.3 543.301V-6.69922H6458.3" fill="#ffffff"/>
<path transform="matrix(.1,0,0,-.1,0,792)" stroke-width="1" stroke-linecap="butt" stroke-miterlimit="10" stroke-linejoin="miter" fill="none" stroke="#000000" d="M5908.3 543.301V-6.69922H6458.3Z"/>
<path transform="matrix(.1,0,0,-.1,0,792)" d="M5908.3 1643.3 6458.3 2193.3H5908.3" fill="#ffffff"/>
<path transform="matrix(.1,0,0,-.1,0,792)" stroke-width="1" stroke-linecap="butt" stroke-miterlimit="10" stroke-linejoin="miter" fill="none" stroke="#000000" d="M5908.3 1643.3 6458.3 2193.3H5908.3Z"/>
<path transform="matrix(.1,0,0,-.1,0,792)" d="M5908.3 1643.3H7008.3L6458.3 2193.3" fill="#758240"/>
<path transform="matrix(.1,0,0,-.1,0,792)" stroke-width="1" stroke-linecap="butt" stroke-miterlimit="10" stroke-linejoin="miter" fill="none" stroke="#000000" d="M5908.3 1643.3H7008.3L6458.3 2193.3Z"/>
<path transform="matrix(.1,0,0,-.1,0,792)" d="M5908.3 2193.3H7008.3V3293.3H5908.3V2743.3" fill="#758240"/>
<path transform="matrix(.1,0,0,-.1,0,792)" stroke-width="1" stroke-linecap="butt" stroke-miterlimit="10" stroke-linejoin="miter" fill="none" stroke="#000000" d="M5908.3 2193.3H7008.3V3293.3H5908.3V2743.3Z"/>
<path transform="matrix(.1,0,0,-.1,0,792)" d="M5908.3 3293.3H6458.3L5908.3 3843.3" fill="#ffffff"/>
<path transform="matrix(.1,0,0,-.1,0,792)" stroke-width="1" stroke-linecap="butt" stroke-miterlimit="10" stroke-linejoin="miter" fill="none" stroke="#000000" d="M5908.3 3293.3H6458.3L5908.3 3843.3Z"/>
<path transform="matrix(.1,0,0,-.1,0,792)" d="M5908.3 3843.3H7008.3V4943.3H5908.3Z" fill="#ffffff"/>
<path transform="matrix(.1,0,0,-.1,0,792)" stroke-width="1" stroke-linecap="butt" stroke-miterlimit="10" stroke-linejoin="miter" fill="none" stroke="#000000" d="M5908.3 3843.3H7008.3V4943.3H5908.3Z"/>
<path transform="matrix(.1,0,0,-.1,0,792)" d="M5908.3 3843.3 6458.3 3293.3 7008.3 3843.3" fill="#758240"/>
<path transform="matrix(.1,0,0,-.1,0,792)" stroke-width="1" stroke-linecap="butt" stroke-miterlimit="10" stroke-linejoin="miter" fill="none" stroke="#000000" d="M5908.3 3843.3 6458.3 3293.3 7008.3 3843.3Z"/>
<path transform="matrix(.1,0,0,-.1,0,792)" d="M5908.3 4943.3 6458.3 5493.3H5908.3" fill="#ffffff"/>
<path transform="matrix(.1,0,0,-.1,0,792)" stroke-width="1" stroke-linecap="butt" stroke-miterlimit="10" stroke-linejoin="miter" fill="none" stroke="#000000" d="M5908.3 4943.3 6458.3 5493.3H5908.3Z"/>
<path transform="matrix(.1,0,0,-.1,0,792)" d="M5908.3 4943.3H7008.3L6458.3 5493.3" fill="#758240"/>
<path transform="matrix(.1,0,0,-.1,0,792)" stroke-width="1" stroke-linecap="butt" stroke-miterlimit="10" stroke-linejoin="miter" fill="none" stroke="#000000" d="M5908.3 4943.3H7008.3L6458.3 5493.3Z"/>
<path transform="matrix(.1,0,0,-.1,0,792)" d="M5908.3 5493.3H7008.3V6593.3H5908.3V6043.3" fill="#758240"/>
<path transform="matrix(.1,0,0,-.1,0,792)" stroke-width="1" stroke-linecap="butt" stroke-miterlimit="10" stroke-linejoin="miter" fill="none" stroke="#000000" d="M5908.3 5493.3H7008.3V6593.3H5908.3V6043.3Z"/>
<path transform="matrix(.1,0,0,-.1,0,792)" d="M5908.3 6593.3H6458.3L5908.3 7143.3" fill="#ffffff"/>
<path transform="matrix(.1,0,0,-.1,0,792)" stroke-width="1" stroke-linecap="butt" stroke-miterlimit="10" stroke-linejoin="miter" fill="none" stroke="#000000" d="M5908.3 6593.3H6458.3L5908.3 7143.3Z"/>
<path transform="matrix(.1,0,0,-.1,0,792)" d="M5908.3 7143.3H7008.3V8243.3H5908.3Z" fill="#ffffff"/>
<path transform="matrix(.1,0,0,-.1,0,792)" stroke-width="1" stroke-linecap="butt" stroke-miterlimit="10" stroke-linejoin="miter" fill="none" stroke="#000000" d="M5908.3 7143.3H7008.3V8243.3H5908.3Z"/>
<path transform="matrix(.1,0,0,-.1,0,792)" d="M5908.3 7143.3 6458.3 6593.3 7008.3 7143.3" fill="#758240"/>
<path transform="matrix(.1,0,0,-.1,0,792)" stroke-width="1" stroke-linecap="butt" stroke-miterlimit="10" stroke-linejoin="miter" fill="none" stroke="#000000" d="M5908.3 7143.3 6458.3 6593.3 7008.3 7143.3Z"/>
</svg>
