<svg xmlns="http://www.w3.org/2000/svg" xmlns:xlink="http://www.w3.org/1999/xlink" xmlns:inkscape="http://www.inkscape.org/namespaces/inkscape" version="1.1" width="612" height="792" viewBox="0 0 612 792">
<path transform="matrix(.1,0,0,-.1,0,792)" d="M4106.4 4210 3257.8 5058.5 2409.3 4210 3257.8 3361.5Z" fill="#385c33"/>
<path transform="matrix(.1,0,0,-.1,0,792)" stroke-width=".1" stroke-linecap="butt" stroke-miterlimit="10" stroke-linejoin="miter" fill="none" stroke="#000000" d="M4106.4 4210 3257.8 5058.5 2409.3 4210 3257.8 3361.5Z"/>
<path transform="matrix(.1,0,0,-.1,0,792)" d="M2409.3 4210 2126.5 3927.2 2409.3 3644.3 2126.5 3361.5 2409.3 3078.6 2692.2 3361.5 2975 3078.6 3257.8 3361.5" fill="#ffffff"/>
<path transform="matrix(.1,0,0,-.1,0,792)" stroke-width=".1" stroke-linecap="butt" stroke-miterlimit="10" stroke-linejoin="miter" fill="none" stroke="#000000" d="M2409.3 4210 2126.5 3927.2 2409.3 3644.3 2126.5 3361.5 2409.3 3078.6 2692.2 3361.5 2975 3078.6 3257.8 3361.5Z"/>
<path transform="matrix(.1,0,0,-.1,0,792)" d="M2409.3 4210 2126.5 4492.8 1843.6 4210 2126.5 3927.2Z"/>
<path transform="matrix(.1,0,0,-.1,0,792)" stroke-width=".1" stroke-linecap="butt" stroke-miterlimit="10" stroke-linejoin="miter" fill="none" stroke="#000000" d="M2409.3 4210 2126.5 4492.8 1843.6 4210 2126.5 3927.2Z"/>
<path transform="matrix(.1,0,0,-.1,0,792)" d="M2409.3 4210 3257.8 5058.5 2975 5341.4 2692.2 5058.5 2409.3 5341.4 2126.5 5058.5 2409.3 4775.7 2126.5 4492.8" fill="#ffffff"/>
<path transform="matrix(.1,0,0,-.1,0,792)" stroke-width=".1" stroke-linecap="butt" stroke-miterlimit="10" stroke-linejoin="miter" fill="none" stroke="#000000" d="M2409.3 4210 3257.8 5058.5 2975 5341.4 2692.2 5058.5 2409.3 5341.4 2126.5 5058.5 2409.3 4775.7 2126.5 4492.8Z"/>
<path transform="matrix(.1,0,0,-.1,0,792)" d="M2409.3 4775.7 2126.5 5058.5 1843.6 4775.7 2126.5 4492.8Z"/>
<path transform="matrix(.1,0,0,-.1,0,792)" stroke-width=".1" stroke-linecap="butt" stroke-miterlimit="10" stroke-linejoin="miter" fill="none" stroke="#000000" d="M2409.3 4775.7 2126.5 5058.5 1843.6 4775.7 2126.5 4492.8Z"/>
<path transform="matrix(.1,0,0,-.1,0,792)" d="M2409.3 3644.3 2126.5 3927.2 1843.6 3644.3 2126.5 3361.5Z"/>
<path transform="matrix(.1,0,0,-.1,0,792)" stroke-width=".1" stroke-linecap="butt" stroke-miterlimit="10" stroke-linejoin="miter" fill="none" stroke="#000000" d="M2409.3 3644.3 2126.5 3927.2 1843.6 3644.3 2126.5 3361.5Z"/>
<path transform="matrix(.1,0,0,-.1,0,792)" d="M2692.2 3361.5 2409.3 3078.6 2692.2 2795.8 2975 3078.6Z"/>
<path transform="matrix(.1,0,0,-.1,0,792)" stroke-width=".1" stroke-linecap="butt" stroke-miterlimit="10" stroke-linejoin="miter" fill="none" stroke="#000000" d="M2692.2 3361.5 2409.3 3078.6 2692.2 2795.8 2975 3078.6Z"/>
<path transform="matrix(.1,0,0,-.1,0,792)" d="M3257.8 3361.5 3540.7 3078.6 3823.5 3361.5 4106.4 3078.6 4389.2 3361.5 4106.4 3644.3 4389.2 3927.2 4106.4 4210" fill="#ffffff"/>
<path transform="matrix(.1,0,0,-.1,0,792)" stroke-width=".1" stroke-linecap="butt" stroke-miterlimit="10" stroke-linejoin="miter" fill="none" stroke="#000000" d="M3257.8 3361.5 3540.7 3078.6 3823.5 3361.5 4106.4 3078.6 4389.2 3361.5 4106.4 3644.3 4389.2 3927.2 4106.4 4210Z"/>
<path transform="matrix(.1,0,0,-.1,0,792)" d="M3257.8 3361.5 2975 3078.6 3257.8 2795.8 3540.7 3078.6Z"/>
<path transform="matrix(.1,0,0,-.1,0,792)" stroke-width=".1" stroke-linecap="butt" stroke-miterlimit="10" stroke-linejoin="miter" fill="none" stroke="#000000" d="M3257.8 3361.5 2975 3078.6 3257.8 2795.8 3540.7 3078.6Z"/>
<path transform="matrix(.1,0,0,-.1,0,792)" d="M3257.8 5058.5 3540.7 5341.4 3257.8 5624.2 2975 5341.4Z"/>
<path transform="matrix(.1,0,0,-.1,0,792)" stroke-width=".1" stroke-linecap="butt" stroke-miterlimit="10" stroke-linejoin="miter" fill="none" stroke="#000000" d="M3257.8 5058.5 3540.7 5341.4 3257.8 5624.2 2975 5341.4Z"/>
<path transform="matrix(.1,0,0,-.1,0,792)" d="M3257.8 5058.5 4106.4 4210 4389.2 4492.8 4106.4 4775.7 4389.2 5058.5 4106.4 5341.4 3823.5 5058.5 3540.7 5341.4" fill="#ffffff"/>
<path transform="matrix(.1,0,0,-.1,0,792)" stroke-width=".1" stroke-linecap="butt" stroke-miterlimit="10" stroke-linejoin="miter" fill="none" stroke="#000000" d="M3257.8 5058.5 4106.4 4210 4389.2 4492.8 4106.4 4775.7 4389.2 5058.5 4106.4 5341.4 3823.5 5058.5 3540.7 5341.4Z"/>
<path transform="matrix(.1,0,0,-.1,0,792)" d="M2692.2 5058.5 2975 5341.4 2692.2 5624.2 2409.3 5341.4Z"/>
<path transform="matrix(.1,0,0,-.1,0,792)" stroke-width=".1" stroke-linecap="butt" stroke-miterlimit="10" stroke-linejoin="miter" fill="none" stroke="#000000" d="M2692.2 5058.5 2975 5341.4 2692.2 5624.2 2409.3 5341.4Z"/>
<path transform="matrix(.1,0,0,-.1,0,792)" d="M2975 5341.4 3257.8 5624.2 2409.3 6472.7 2126.5 6189.9 2409.3 5907.1 2126.5 5624.2 2409.3 5341.4 2692.2 5624.2" fill="#ffffff"/>
<path transform="matrix(.1,0,0,-.1,0,792)" stroke-width=".1" stroke-linecap="butt" stroke-miterlimit="10" stroke-linejoin="miter" fill="none" stroke="#000000" d="M2975 5341.4 3257.8 5624.2 2409.3 6472.7 2126.5 6189.9 2409.3 5907.1 2126.5 5624.2 2409.3 5341.4 2692.2 5624.2Z"/>
<path transform="matrix(.1,0,0,-.1,0,792)" d="M3540.7 5341.4 3823.5 5624.2 4106.4 5341.4 4389.2 5624.2 4106.4 5907.1 4389.2 6189.9 4106.4 6472.7 3257.8 5624.2" fill="#ffffff"/>
<path transform="matrix(.1,0,0,-.1,0,792)" stroke-width=".1" stroke-linecap="butt" stroke-miterlimit="10" stroke-linejoin="miter" fill="none" stroke="#000000" d="M3540.7 5341.4 3823.5 5624.2 4106.4 5341.4 4389.2 5624.2 4106.4 5907.1 4389.2 6189.9 4106.4 6472.7 3257.8 5624.2Z"/>
<path transform="matrix(.1,0,0,-.1,0,792)" d="M3540.7 5341.4 3823.5 5058.5 4106.4 5341.4 3823.5 5624.2Z"/>
<path transform="matrix(.1,0,0,-.1,0,792)" stroke-width=".1" stroke-linecap="butt" stroke-miterlimit="10" stroke-linejoin="miter" fill="none" stroke="#000000" d="M3540.7 5341.4 3823.5 5058.5 4106.4 5341.4 3823.5 5624.2Z"/>
<path transform="matrix(.1,0,0,-.1,0,792)" d="M2409.3 5341.4 2126.5 5624.2 1843.6 5341.4 2126.5 5058.5Z"/>
<path transform="matrix(.1,0,0,-.1,0,792)" stroke-width=".1" stroke-linecap="butt" stroke-miterlimit="10" stroke-linejoin="miter" fill="none" stroke="#000000" d="M2409.3 5341.4 2126.5 5624.2 1843.6 5341.4 2126.5 5058.5Z"/>
<path transform="matrix(.1,0,0,-.1,0,792)" d="M2409.3 3078.6 2126.5 2795.8 2409.3 2512.9 2126.5 2230.1 2409.3 1947.3 3257.8 2795.8 2975 3078.6 2692.2 2795.8" fill="#ffffff"/>
<path transform="matrix(.1,0,0,-.1,0,792)" stroke-width=".1" stroke-linecap="butt" stroke-miterlimit="10" stroke-linejoin="miter" fill="none" stroke="#000000" d="M2409.3 3078.6 2126.5 2795.8 2409.3 2512.9 2126.5 2230.1 2409.3 1947.3 3257.8 2795.8 2975 3078.6 2692.2 2795.8Z"/>
<path transform="matrix(.1,0,0,-.1,0,792)" d="M2409.3 3078.6 2126.5 3361.5 1843.6 3078.6 2126.5 2795.8Z"/>
<path transform="matrix(.1,0,0,-.1,0,792)" stroke-width=".1" stroke-linecap="butt" stroke-miterlimit="10" stroke-linejoin="miter" fill="none" stroke="#000000" d="M2409.3 3078.6 2126.5 3361.5 1843.6 3078.6 2126.5 2795.8Z"/>
<path transform="matrix(.1,0,0,-.1,0,792)" d="M3540.7 3078.6 3823.5 2795.8 4106.4 3078.6 3823.5 3361.5Z"/>
<path transform="matrix(.1,0,0,-.1,0,792)" stroke-width=".1" stroke-linecap="butt" stroke-miterlimit="10" stroke-linejoin="miter" fill="none" stroke="#000000" d="M3540.7 3078.6 3823.5 2795.8 4106.4 3078.6 3823.5 3361.5Z"/>
<path transform="matrix(.1,0,0,-.1,0,792)" d="M3540.7 3078.6 3257.8 2795.8 4106.4 1947.3 4389.2 2230.1 4106.4 2512.9 4389.2 2795.8 4106.4 3078.6 3823.5 2795.8" fill="#ffffff"/>
<path transform="matrix(.1,0,0,-.1,0,792)" stroke-width=".1" stroke-linecap="butt" stroke-miterlimit="10" stroke-linejoin="miter" fill="none" stroke="#000000" d="M3540.7 3078.6 3257.8 2795.8 4106.4 1947.3 4389.2 2230.1 4106.4 2512.9 4389.2 2795.8 4106.4 3078.6 3823.5 2795.8Z"/>
<path transform="matrix(.1,0,0,-.1,0,792)" d="M2126.5 5058.5 1843.6 5341.4 1560.8 5058.5 1277.9 5341.4 995.102 5058.5 1843.6 4210 2126.5 4492.8 1843.6 4775.7" fill="#ffffff"/>
<path transform="matrix(.1,0,0,-.1,0,792)" stroke-width=".1" stroke-linecap="butt" stroke-miterlimit="10" stroke-linejoin="miter" fill="none" stroke="#000000" d="M2126.5 5058.5 1843.6 5341.4 1560.8 5058.5 1277.9 5341.4 995.102 5058.5 1843.6 4210 2126.5 4492.8 1843.6 4775.7Z"/>
<path transform="matrix(.1,0,0,-.1,0,792)" d="M2126.5 3927.2 1843.6 4210 995.102 3361.5 1277.9 3078.6 1560.8 3361.5 1843.6 3078.6 2126.5 3361.5 1843.6 3644.3" fill="#ffffff"/>
<path transform="matrix(.1,0,0,-.1,0,792)" stroke-width=".1" stroke-linecap="butt" stroke-miterlimit="10" stroke-linejoin="miter" fill="none" stroke="#000000" d="M2126.5 3927.2 1843.6 4210 995.102 3361.5 1277.9 3078.6 1560.8 3361.5 1843.6 3078.6 2126.5 3361.5 1843.6 3644.3Z"/>
<path transform="matrix(.1,0,0,-.1,0,792)" d="M2126.5 2795.8 1843.6 2512.9 2126.5 2230.1 2409.3 2512.9Z"/>
<path transform="matrix(.1,0,0,-.1,0,792)" stroke-width=".1" stroke-linecap="butt" stroke-miterlimit="10" stroke-linejoin="miter" fill="none" stroke="#000000" d="M2126.5 2795.8 1843.6 2512.9 2126.5 2230.1 2409.3 2512.9Z"/>
<path transform="matrix(.1,0,0,-.1,0,792)" d="M2126.5 2795.8 1843.6 3078.6 1560.8 2795.8 1277.9 3078.6 995.102 2795.8 1843.6 1947.3 2126.5 2230.1 1843.6 2512.9" fill="#ffffff"/>
<path transform="matrix(.1,0,0,-.1,0,792)" stroke-width=".1" stroke-linecap="butt" stroke-miterlimit="10" stroke-linejoin="miter" fill="none" stroke="#000000" d="M2126.5 2795.8 1843.6 3078.6 1560.8 2795.8 1277.9 3078.6 995.102 2795.8 1843.6 1947.3 2126.5 2230.1 1843.6 2512.9Z"/>
<path transform="matrix(.1,0,0,-.1,0,792)" d="M3257.8 2795.8 2409.3 1947.3 3257.8 1098.7 4106.4 1947.3Z" fill="#385c33"/>
<path transform="matrix(.1,0,0,-.1,0,792)" stroke-width=".1" stroke-linecap="butt" stroke-miterlimit="10" stroke-linejoin="miter" fill="none" stroke="#000000" d="M3257.8 2795.8 2409.3 1947.3 3257.8 1098.7 4106.4 1947.3Z"/>
<path transform="matrix(.1,0,0,-.1,0,792)" d="M3257.8 5624.2 4106.4 6472.7 3257.8 7321.3 2409.3 6472.7Z" fill="#385c33"/>
<path transform="matrix(.1,0,0,-.1,0,792)" stroke-width=".1" stroke-linecap="butt" stroke-miterlimit="10" stroke-linejoin="miter" fill="none" stroke="#000000" d="M3257.8 5624.2 4106.4 6472.7 3257.8 7321.3 2409.3 6472.7Z"/>
<path transform="matrix(.1,0,0,-.1,0,792)" d="M2126.5 5624.2 1843.6 5907.1 2126.5 6189.9 1843.6 6472.7 995.102 5624.2 1277.9 5341.4 1560.8 5624.2 1843.6 5341.4" fill="#ffffff"/>
<path transform="matrix(.1,0,0,-.1,0,792)" stroke-width=".1" stroke-linecap="butt" stroke-miterlimit="10" stroke-linejoin="miter" fill="none" stroke="#000000" d="M2126.5 5624.2 1843.6 5907.1 2126.5 6189.9 1843.6 6472.7 995.102 5624.2 1277.9 5341.4 1560.8 5624.2 1843.6 5341.4Z"/>
<path transform="matrix(.1,0,0,-.1,0,792)" d="M2126.5 5624.2 2409.3 5907.1 2126.5 6189.9 1843.6 5907.1Z"/>
<path transform="matrix(.1,0,0,-.1,0,792)" stroke-width=".1" stroke-linecap="butt" stroke-miterlimit="10" stroke-linejoin="miter" fill="none" stroke="#000000" d="M2126.5 5624.2 2409.3 5907.1 2126.5 6189.9 1843.6 5907.1Z"/>
<path transform="matrix(.1,0,0,-.1,0,792)" d="M1843.6 5341.4 1560.8 5624.2 1277.9 5341.4 1560.8 5058.5Z"/>
<path transform="matrix(.1,0,0,-.1,0,792)" stroke-width=".1" stroke-linecap="butt" stroke-miterlimit="10" stroke-linejoin="miter" fill="none" stroke="#000000" d="M1843.6 5341.4 1560.8 5624.2 1277.9 5341.4 1560.8 5058.5Z"/>
<path transform="matrix(.1,0,0,-.1,0,792)" d="M1843.6 4210 995.102 5058.5 146.602 4210 995.102 3361.5Z" fill="#385c33"/>
<path transform="matrix(.1,0,0,-.1,0,792)" stroke-width=".1" stroke-linecap="butt" stroke-miterlimit="10" stroke-linejoin="miter" fill="none" stroke="#000000" d="M1843.6 4210 995.102 5058.5 146.602 4210 995.102 3361.5Z"/>
<path transform="matrix(.1,0,0,-.1,0,792)" d="M1843.6 3078.6 1560.8 3361.5 1277.9 3078.6 1560.8 2795.8Z"/>
<path transform="matrix(.1,0,0,-.1,0,792)" stroke-width=".1" stroke-linecap="butt" stroke-miterlimit="10" stroke-linejoin="miter" fill="none" stroke="#000000" d="M1843.6 3078.6 1560.8 3361.5 1277.9 3078.6 1560.8 2795.8Z"/>
<path transform="matrix(.1,0,0,-.1,0,792)" d="M4106.4 3078.6 4389.2 2795.8 4672.1 3078.6 4389.2 3361.5Z"/>
<path transform="matrix(.1,0,0,-.1,0,792)" stroke-width=".1" stroke-linecap="butt" stroke-miterlimit="10" stroke-linejoin="miter" fill="none" stroke="#000000" d="M4106.4 3078.6 4389.2 2795.8 4672.1 3078.6 4389.2 3361.5Z"/>
<path transform="matrix(.1,0,0,-.1,0,792)" d="M4106.4 3644.3 4389.2 3361.5 4672.1 3644.3 4389.2 3927.2Z"/>
<path transform="matrix(.1,0,0,-.1,0,792)" stroke-width=".1" stroke-linecap="butt" stroke-miterlimit="10" stroke-linejoin="miter" fill="none" stroke="#000000" d="M4106.4 3644.3 4389.2 3361.5 4672.1 3644.3 4389.2 3927.2Z"/>
<path transform="matrix(.1,0,0,-.1,0,792)" d="M4106.4 4210 4389.2 3927.2 4672.1 4210 4389.2 4492.8Z"/>
<path transform="matrix(.1,0,0,-.1,0,792)" stroke-width=".1" stroke-linecap="butt" stroke-miterlimit="10" stroke-linejoin="miter" fill="none" stroke="#000000" d="M4106.4 4210 4389.2 3927.2 4672.1 4210 4389.2 4492.8Z"/>
<path transform="matrix(.1,0,0,-.1,0,792)" d="M4106.4 4775.7 4389.2 4492.8 4672.1 4775.7 4389.2 5058.5Z"/>
<path transform="matrix(.1,0,0,-.1,0,792)" stroke-width=".1" stroke-linecap="butt" stroke-miterlimit="10" stroke-linejoin="miter" fill="none" stroke="#000000" d="M4106.4 4775.7 4389.2 4492.8 4672.1 4775.7 4389.2 5058.5Z"/>
<path transform="matrix(.1,0,0,-.1,0,792)" d="M4106.4 5341.4 4389.2 5058.5 4672.1 5341.4 4389.2 5624.2Z"/>
<path transform="matrix(.1,0,0,-.1,0,792)" stroke-width=".1" stroke-linecap="butt" stroke-miterlimit="10" stroke-linejoin="miter" fill="none" stroke="#000000" d="M4106.4 5341.4 4389.2 5058.5 4672.1 5341.4 4389.2 5624.2Z"/>
<path transform="matrix(.1,0,0,-.1,0,792)" d="M4106.4 5907.1 4389.2 5624.2 4672.1 5907.1 4389.2 6189.9Z"/>
<path transform="matrix(.1,0,0,-.1,0,792)" stroke-width=".1" stroke-linecap="butt" stroke-miterlimit="10" stroke-linejoin="miter" fill="none" stroke="#000000" d="M4106.4 5907.1 4389.2 5624.2 4672.1 5907.1 4389.2 6189.9Z"/>
<path transform="matrix(.1,0,0,-.1,0,792)" d="M4106.4 2512.9 4389.2 2230.1 4672.1 2512.9 4389.2 2795.8Z"/>
<path transform="matrix(.1,0,0,-.1,0,792)" stroke-width=".1" stroke-linecap="butt" stroke-miterlimit="10" stroke-linejoin="miter" fill="none" stroke="#000000" d="M4106.4 2512.9 4389.2 2230.1 4672.1 2512.9 4389.2 2795.8Z"/>
<path transform="matrix(.1,0,0,-.1,0,792)" d="M4389.2 2795.8 4672.1 2512.9 4389.2 2230.1 4672.1 1947.3 5520.6 2795.8 5237.7 3078.6 4954.9 2795.8 4672.1 3078.6" fill="#ffffff"/>
<path transform="matrix(.1,0,0,-.1,0,792)" stroke-width=".1" stroke-linecap="butt" stroke-miterlimit="10" stroke-linejoin="miter" fill="none" stroke="#000000" d="M4389.2 2795.8 4672.1 2512.9 4389.2 2230.1 4672.1 1947.3 5520.6 2795.8 5237.7 3078.6 4954.9 2795.8 4672.1 3078.6Z"/>
<path transform="matrix(.1,0,0,-.1,0,792)" d="M4389.2 3361.5 4672.1 3078.6 4954.9 3361.5 5237.7 3078.6 5520.6 3361.5 4672.1 4210 4389.2 3927.2 4672.1 3644.3" fill="#ffffff"/>
<path transform="matrix(.1,0,0,-.1,0,792)" stroke-width=".1" stroke-linecap="butt" stroke-miterlimit="10" stroke-linejoin="miter" fill="none" stroke="#000000" d="M4389.2 3361.5 4672.1 3078.6 4954.9 3361.5 5237.7 3078.6 5520.6 3361.5 4672.1 4210 4389.2 3927.2 4672.1 3644.3Z"/>
<path transform="matrix(.1,0,0,-.1,0,792)" d="M4389.2 4492.8 4672.1 4210 5520.6 5058.5 5237.7 5341.4 4954.9 5058.5 4672.1 5341.4 4389.2 5058.5 4672.1 4775.7" fill="#ffffff"/>
<path transform="matrix(.1,0,0,-.1,0,792)" stroke-width=".1" stroke-linecap="butt" stroke-miterlimit="10" stroke-linejoin="miter" fill="none" stroke="#000000" d="M4389.2 4492.8 4672.1 4210 5520.6 5058.5 5237.7 5341.4 4954.9 5058.5 4672.1 5341.4 4389.2 5058.5 4672.1 4775.7Z"/>
<path transform="matrix(.1,0,0,-.1,0,792)" d="M4389.2 5624.2 4672.1 5341.4 4954.9 5624.2 5237.7 5341.4 5520.6 5624.2 4672.1 6472.7 4389.2 6189.9 4672.1 5907.1" fill="#ffffff"/>
<path transform="matrix(.1,0,0,-.1,0,792)" stroke-width=".1" stroke-linecap="butt" stroke-miterlimit="10" stroke-linejoin="miter" fill="none" stroke="#000000" d="M4389.2 5624.2 4672.1 5341.4 4954.9 5624.2 5237.7 5341.4 5520.6 5624.2 4672.1 6472.7 4389.2 6189.9 4672.1 5907.1Z"/>
<path transform="matrix(.1,0,0,-.1,0,792)" d="M4389.2 6189.9 4672.1 6472.7 4389.2 6755.6 4106.4 6472.7Z"/>
<path transform="matrix(.1,0,0,-.1,0,792)" stroke-width=".1" stroke-linecap="butt" stroke-miterlimit="10" stroke-linejoin="miter" fill="none" stroke="#000000" d="M4389.2 6189.9 4672.1 6472.7 4389.2 6755.6 4106.4 6472.7Z"/>
<path transform="matrix(.1,0,0,-.1,0,792)" d="M2126.5 6189.9 2409.3 6472.7 2126.5 6755.6 1843.6 6472.7Z"/>
<path transform="matrix(.1,0,0,-.1,0,792)" stroke-width=".1" stroke-linecap="butt" stroke-miterlimit="10" stroke-linejoin="miter" fill="none" stroke="#000000" d="M2126.5 6189.9 2409.3 6472.7 2126.5 6755.6 1843.6 6472.7Z"/>
<path transform="matrix(.1,0,0,-.1,0,792)" d="M2126.5 2230.1 1843.6 1947.3 2126.5 1664.4 2409.3 1947.3Z"/>
<path transform="matrix(.1,0,0,-.1,0,792)" stroke-width=".1" stroke-linecap="butt" stroke-miterlimit="10" stroke-linejoin="miter" fill="none" stroke="#000000" d="M2126.5 2230.1 1843.6 1947.3 2126.5 1664.4 2409.3 1947.3Z"/>
<path transform="matrix(.1,0,0,-.1,0,792)" d="M4389.2 2230.1 4106.4 1947.3 4389.2 1664.4 4672.1 1947.3Z"/>
<path transform="matrix(.1,0,0,-.1,0,792)" stroke-width=".1" stroke-linecap="butt" stroke-miterlimit="10" stroke-linejoin="miter" fill="none" stroke="#000000" d="M4389.2 2230.1 4106.4 1947.3 4389.2 1664.4 4672.1 1947.3Z"/>
<path transform="matrix(.1,0,0,-.1,0,792)" d="M4106.4 1947.3 3257.8 1098.7 3540.7 815.898 3823.5 1098.7 4106.4 815.898 4389.2 1098.7 4106.4 1381.6 4389.2 1664.4" fill="#ffffff"/>
<path transform="matrix(.1,0,0,-.1,0,792)" stroke-width=".1" stroke-linecap="butt" stroke-miterlimit="10" stroke-linejoin="miter" fill="none" stroke="#000000" d="M4106.4 1947.3 3257.8 1098.7 3540.7 815.898 3823.5 1098.7 4106.4 815.898 4389.2 1098.7 4106.4 1381.6 4389.2 1664.4Z"/>
<path transform="matrix(.1,0,0,-.1,0,792)" d="M2409.3 1947.3 2126.5 1664.4 2409.3 1381.6 2126.5 1098.7 2409.3 815.898 2692.2 1098.7 2975 815.898 3257.8 1098.7" fill="#ffffff"/>
<path transform="matrix(.1,0,0,-.1,0,792)" stroke-width=".1" stroke-linecap="butt" stroke-miterlimit="10" stroke-linejoin="miter" fill="none" stroke="#000000" d="M2409.3 1947.3 2126.5 1664.4 2409.3 1381.6 2126.5 1098.7 2409.3 815.898 2692.2 1098.7 2975 815.898 3257.8 1098.7Z"/>
<path transform="matrix(.1,0,0,-.1,0,792)" d="M1843.6 1947.3 995.102 1098.7 1277.9 815.898 1560.8 1098.7 1843.6 815.898 2126.5 1098.7 1843.6 1381.6 2126.5 1664.4" fill="#ffffff"/>
<path transform="matrix(.1,0,0,-.1,0,792)" stroke-width=".1" stroke-linecap="butt" stroke-miterlimit="10" stroke-linejoin="miter" fill="none" stroke="#000000" d="M1843.6 1947.3 995.102 1098.7 1277.9 815.898 1560.8 1098.7 1843.6 815.898 2126.5 1098.7 1843.6 1381.6 2126.5 1664.4Z"/>
<path transform="matrix(.1,0,0,-.1,0,792)" d="M1843.6 1947.3 995.102 2795.8 146.602 1947.3 995.102 1098.7Z" fill="#385c33"/>
<path transform="matrix(.1,0,0,-.1,0,792)" stroke-width=".1" stroke-linecap="butt" stroke-miterlimit="10" stroke-linejoin="miter" fill="none" stroke="#000000" d="M1843.6 1947.3 995.102 2795.8 146.602 1947.3 995.102 1098.7Z"/>
<path transform="matrix(.1,0,0,-.1,0,792)" d="M4106.4 6472.7 4389.2 6755.6 4106.4 7038.4 4389.2 7321.3 4106.4 7604.1 3823.5 7321.3 3540.7 7604.1 3257.8 7321.3" fill="#ffffff"/>
<path transform="matrix(.1,0,0,-.1,0,792)" stroke-width=".1" stroke-linecap="butt" stroke-miterlimit="10" stroke-linejoin="miter" fill="none" stroke="#000000" d="M4106.4 6472.7 4389.2 6755.6 4106.4 7038.4 4389.2 7321.3 4106.4 7604.1 3823.5 7321.3 3540.7 7604.1 3257.8 7321.3Z"/>
<path transform="matrix(.1,0,0,-.1,0,792)" d="M2409.3 6472.7 3257.8 7321.3 2975 7604.1 2692.2 7321.3 2409.3 7604.1 2126.5 7321.3 2409.3 7038.4 2126.5 6755.6" fill="#ffffff"/>
<path transform="matrix(.1,0,0,-.1,0,792)" stroke-width=".1" stroke-linecap="butt" stroke-miterlimit="10" stroke-linejoin="miter" fill="none" stroke="#000000" d="M2409.3 6472.7 3257.8 7321.3 2975 7604.1 2692.2 7321.3 2409.3 7604.1 2126.5 7321.3 2409.3 7038.4 2126.5 6755.6Z"/>
<path transform="matrix(.1,0,0,-.1,0,792)" d="M1843.6 6472.7 995.102 7321.3 146.602 6472.7 995.102 5624.2Z" fill="#385c33"/>
<path transform="matrix(.1,0,0,-.1,0,792)" stroke-width=".1" stroke-linecap="butt" stroke-miterlimit="10" stroke-linejoin="miter" fill="none" stroke="#000000" d="M1843.6 6472.7 995.102 7321.3 146.602 6472.7 995.102 5624.2Z"/>
<path transform="matrix(.1,0,0,-.1,0,792)" d="M1843.6 6472.7 2126.5 6755.6 1843.6 7038.4 2126.5 7321.3 1843.6 7604.1 1560.8 7321.3 1277.9 7604.1 995.102 7321.3" fill="#ffffff"/>
<path transform="matrix(.1,0,0,-.1,0,792)" stroke-width=".1" stroke-linecap="butt" stroke-miterlimit="10" stroke-linejoin="miter" fill="none" stroke="#000000" d="M1843.6 6472.7 2126.5 6755.6 1843.6 7038.4 2126.5 7321.3 1843.6 7604.1 1560.8 7321.3 1277.9 7604.1 995.102 7321.3Z"/>
<path transform="matrix(.1,0,0,-.1,0,792)" d="M1277.9 5341.4 995.102 5624.2 712.301 5341.4 995.102 5058.5Z"/>
<path transform="matrix(.1,0,0,-.1,0,792)" stroke-width=".1" stroke-linecap="butt" stroke-miterlimit="10" stroke-linejoin="miter" fill="none" stroke="#000000" d="M1277.9 5341.4 995.102 5624.2 712.301 5341.4 995.102 5058.5Z"/>
<path transform="matrix(.1,0,0,-.1,0,792)" d="M1277.9 3078.6 995.102 3361.5 712.301 3078.6 995.102 2795.8Z"/>
<path transform="matrix(.1,0,0,-.1,0,792)" stroke-width=".1" stroke-linecap="butt" stroke-miterlimit="10" stroke-linejoin="miter" fill="none" stroke="#000000" d="M1277.9 3078.6 995.102 3361.5 712.301 3078.6 995.102 2795.8Z"/>
<path transform="matrix(.1,0,0,-.1,0,792)" d="M4672.1 1947.3 5520.6 1098.7 6369.1 1947.3 5520.6 2795.8Z" fill="#385c33"/>
<path transform="matrix(.1,0,0,-.1,0,792)" stroke-width=".1" stroke-linecap="butt" stroke-miterlimit="10" stroke-linejoin="miter" fill="none" stroke="#000000" d="M4672.1 1947.3 5520.6 1098.7 6369.1 1947.3 5520.6 2795.8Z"/>
<path transform="matrix(.1,0,0,-.1,0,792)" d="M4672.1 1947.3 4389.2 1664.4 4672.1 1381.6 4389.2 1098.7 4672.1 815.898 4954.9 1098.7 5237.7 815.898 5520.6 1098.7" fill="#ffffff"/>
<path transform="matrix(.1,0,0,-.1,0,792)" stroke-width=".1" stroke-linecap="butt" stroke-miterlimit="10" stroke-linejoin="miter" fill="none" stroke="#000000" d="M4672.1 1947.3 4389.2 1664.4 4672.1 1381.6 4389.2 1098.7 4672.1 815.898 4954.9 1098.7 5237.7 815.898 5520.6 1098.7Z"/>
<path transform="matrix(.1,0,0,-.1,0,792)" d="M4672.1 3078.6 4954.9 2795.8 5237.7 3078.6 4954.9 3361.5Z"/>
<path transform="matrix(.1,0,0,-.1,0,792)" stroke-width=".1" stroke-linecap="butt" stroke-miterlimit="10" stroke-linejoin="miter" fill="none" stroke="#000000" d="M4672.1 3078.6 4954.9 2795.8 5237.7 3078.6 4954.9 3361.5Z"/>
<path transform="matrix(.1,0,0,-.1,0,792)" d="M4672.1 4210 5520.6 3361.5 6369.1 4210 5520.6 5058.5Z" fill="#385c33"/>
<path transform="matrix(.1,0,0,-.1,0,792)" stroke-width=".1" stroke-linecap="butt" stroke-miterlimit="10" stroke-linejoin="miter" fill="none" stroke="#000000" d="M4672.1 4210 5520.6 3361.5 6369.1 4210 5520.6 5058.5Z"/>
<path transform="matrix(.1,0,0,-.1,0,792)" d="M4672.1 5341.4 4954.9 5058.5 5237.7 5341.4 4954.9 5624.2Z"/>
<path transform="matrix(.1,0,0,-.1,0,792)" stroke-width=".1" stroke-linecap="butt" stroke-miterlimit="10" stroke-linejoin="miter" fill="none" stroke="#000000" d="M4672.1 5341.4 4954.9 5058.5 5237.7 5341.4 4954.9 5624.2Z"/>
<path transform="matrix(.1,0,0,-.1,0,792)" d="M4672.1 6472.7 5520.6 7321.3 5237.7 7604.1 4954.9 7321.3 4672.1 7604.1 4389.2 7321.3 4672.1 7038.4 4389.2 6755.6" fill="#ffffff"/>
<path transform="matrix(.1,0,0,-.1,0,792)" stroke-width=".1" stroke-linecap="butt" stroke-miterlimit="10" stroke-linejoin="miter" fill="none" stroke="#000000" d="M4672.1 6472.7 5520.6 7321.3 5237.7 7604.1 4954.9 7321.3 4672.1 7604.1 4389.2 7321.3 4672.1 7038.4 4389.2 6755.6Z"/>
<path transform="matrix(.1,0,0,-.1,0,792)" d="M4672.1 6472.7 5520.6 5624.2 6369.1 6472.7 5520.6 7321.3Z" fill="#385c33"/>
<path transform="matrix(.1,0,0,-.1,0,792)" stroke-width=".1" stroke-linecap="butt" stroke-miterlimit="10" stroke-linejoin="miter" fill="none" stroke="#000000" d="M4672.1 6472.7 5520.6 5624.2 6369.1 6472.7 5520.6 7321.3Z"/>
<path transform="matrix(.1,0,0,-.1,0,792)" d="M4389.2 6755.6 4672.1 7038.4 4389.2 7321.3 4106.4 7038.4Z"/>
<path transform="matrix(.1,0,0,-.1,0,792)" stroke-width=".1" stroke-linecap="butt" stroke-miterlimit="10" stroke-linejoin="miter" fill="none" stroke="#000000" d="M4389.2 6755.6 4672.1 7038.4 4389.2 7321.3 4106.4 7038.4Z"/>
<path transform="matrix(.1,0,0,-.1,0,792)" d="M2126.5 6755.6 2409.3 7038.4 2126.5 7321.3 1843.6 7038.4Z"/>
<path transform="matrix(.1,0,0,-.1,0,792)" stroke-width=".1" stroke-linecap="butt" stroke-miterlimit="10" stroke-linejoin="miter" fill="none" stroke="#000000" d="M2126.5 6755.6 2409.3 7038.4 2126.5 7321.3 1843.6 7038.4Z"/>
<path transform="matrix(.1,0,0,-.1,0,792)" d="M2126.5 1664.4 1843.6 1381.6 2126.5 1098.7 2409.3 1381.6Z"/>
<path transform="matrix(.1,0,0,-.1,0,792)" stroke-width=".1" stroke-linecap="butt" stroke-miterlimit="10" stroke-linejoin="miter" fill="none" stroke="#000000" d="M2126.5 1664.4 1843.6 1381.6 2126.5 1098.7 2409.3 1381.6Z"/>
<path transform="matrix(.1,0,0,-.1,0,792)" d="M4389.2 1664.4 4106.4 1381.6 4389.2 1098.7 4672.1 1381.6Z"/>
<path transform="matrix(.1,0,0,-.1,0,792)" stroke-width=".1" stroke-linecap="butt" stroke-miterlimit="10" stroke-linejoin="miter" fill="none" stroke="#000000" d="M4389.2 1664.4 4106.4 1381.6 4389.2 1098.7 4672.1 1381.6Z"/>
<path transform="matrix(.1,0,0,-.1,0,792)" d="M995.102 5624.2 146.602 6472.7-136.301 6189.9 146.602 5907.1-136.301 5624.2 146.602 5341.4 429.398 5624.2 712.301 5341.4" fill="#ffffff"/>
<path transform="matrix(.1,0,0,-.1,0,792)" stroke-width=".1" stroke-linecap="butt" stroke-miterlimit="10" stroke-linejoin="miter" fill="none" stroke="#000000" d="M995.102 5624.2 146.602 6472.7-136.301 6189.9 146.602 5907.1-136.301 5624.2 146.602 5341.4 429.398 5624.2 712.301 5341.4Z"/>
<path transform="matrix(.1,0,0,-.1,0,792)" d="M995.102 5058.5 712.301 5341.4 429.398 5058.5 146.602 5341.4-136.301 5058.5 146.602 4775.7-136.301 4492.8 146.602 4210" fill="#ffffff"/>
<path transform="matrix(.1,0,0,-.1,0,792)" stroke-width=".1" stroke-linecap="butt" stroke-miterlimit="10" stroke-linejoin="miter" fill="none" stroke="#000000" d="M995.102 5058.5 712.301 5341.4 429.398 5058.5 146.602 5341.4-136.301 5058.5 146.602 4775.7-136.301 4492.8 146.602 4210Z"/>
<path transform="matrix(.1,0,0,-.1,0,792)" d="M995.102 3361.5 146.602 4210-136.301 3927.2 146.602 3644.3-136.301 3361.5 146.602 3078.6 429.398 3361.5 712.301 3078.6" fill="#ffffff"/>
<path transform="matrix(.1,0,0,-.1,0,792)" stroke-width=".1" stroke-linecap="butt" stroke-miterlimit="10" stroke-linejoin="miter" fill="none" stroke="#000000" d="M995.102 3361.5 146.602 4210-136.301 3927.2 146.602 3644.3-136.301 3361.5 146.602 3078.6 429.398 3361.5 712.301 3078.6Z"/>
<path transform="matrix(.1,0,0,-.1,0,792)" d="M995.102 2795.8 712.301 3078.6 429.398 2795.8 146.602 3078.6-136.301 2795.8 146.602 2512.9-136.301 2230.1 146.602 1947.3" fill="#ffffff"/>
<path transform="matrix(.1,0,0,-.1,0,792)" stroke-width=".1" stroke-linecap="butt" stroke-miterlimit="10" stroke-linejoin="miter" fill="none" stroke="#000000" d="M995.102 2795.8 712.301 3078.6 429.398 2795.8 146.602 3078.6-136.301 2795.8 146.602 2512.9-136.301 2230.1 146.602 1947.3Z"/>
<path transform="matrix(.1,0,0,-.1,0,792)" d="M995.102 1098.7 712.301 815.898 995.102 533 1277.9 815.898Z"/>
<path transform="matrix(.1,0,0,-.1,0,792)" stroke-width=".1" stroke-linecap="butt" stroke-miterlimit="10" stroke-linejoin="miter" fill="none" stroke="#000000" d="M995.102 1098.7 712.301 815.898 995.102 533 1277.9 815.898Z"/>
<path transform="matrix(.1,0,0,-.1,0,792)" d="M995.102 1098.7 146.602 1947.3-136.301 1664.4 146.602 1381.6-136.301 1098.7 146.602 815.898 429.398 1098.7 712.301 815.898" fill="#ffffff"/>
<path transform="matrix(.1,0,0,-.1,0,792)" stroke-width=".1" stroke-linecap="butt" stroke-miterlimit="10" stroke-linejoin="miter" fill="none" stroke="#000000" d="M995.102 1098.7 146.602 1947.3-136.301 1664.4 146.602 1381.6-136.301 1098.7 146.602 815.898 429.398 1098.7 712.301 815.898Z"/>
<path transform="matrix(.1,0,0,-.1,0,792)" d="M1560.8 1098.7 1277.9 815.898 1560.8 533 1843.6 815.898Z"/>
<path transform="matrix(.1,0,0,-.1,0,792)" stroke-width=".1" stroke-linecap="butt" stroke-miterlimit="10" stroke-linejoin="miter" fill="none" stroke="#000000" d="M1560.8 1098.7 1277.9 815.898 1560.8 533 1843.6 815.898Z"/>
<path transform="matrix(.1,0,0,-.1,0,792)" d="M2126.5 1098.7 1843.6 815.898 2126.5 533 2409.3 815.898Z"/>
<path transform="matrix(.1,0,0,-.1,0,792)" stroke-width=".1" stroke-linecap="butt" stroke-miterlimit="10" stroke-linejoin="miter" fill="none" stroke="#000000" d="M2126.5 1098.7 1843.6 815.898 2126.5 533 2409.3 815.898Z"/>
<path transform="matrix(.1,0,0,-.1,0,792)" d="M2692.2 1098.7 2409.3 815.898 2692.2 533 2975 815.898Z"/>
<path transform="matrix(.1,0,0,-.1,0,792)" stroke-width=".1" stroke-linecap="butt" stroke-miterlimit="10" stroke-linejoin="miter" fill="none" stroke="#000000" d="M2692.2 1098.7 2409.3 815.898 2692.2 533 2975 815.898Z"/>
<path transform="matrix(.1,0,0,-.1,0,792)" d="M3257.8 1098.7 2975 815.898 3257.8 533 3540.7 815.898Z"/>
<path transform="matrix(.1,0,0,-.1,0,792)" stroke-width=".1" stroke-linecap="butt" stroke-miterlimit="10" stroke-linejoin="miter" fill="none" stroke="#000000" d="M3257.8 1098.7 2975 815.898 3257.8 533 3540.7 815.898Z"/>
<path transform="matrix(.1,0,0,-.1,0,792)" d="M3823.5 1098.7 3540.7 815.898 3823.5 533 4106.4 815.898Z"/>
<path transform="matrix(.1,0,0,-.1,0,792)" stroke-width=".1" stroke-linecap="butt" stroke-miterlimit="10" stroke-linejoin="miter" fill="none" stroke="#000000" d="M3823.5 1098.7 3540.7 815.898 3823.5 533 4106.4 815.898Z"/>
<path transform="matrix(.1,0,0,-.1,0,792)" d="M4389.2 1098.7 4106.4 815.898 4389.2 533 4672.1 815.898Z"/>
<path transform="matrix(.1,0,0,-.1,0,792)" stroke-width=".1" stroke-linecap="butt" stroke-miterlimit="10" stroke-linejoin="miter" fill="none" stroke="#000000" d="M4389.2 1098.7 4106.4 815.898 4389.2 533 4672.1 815.898Z"/>
<path transform="matrix(.1,0,0,-.1,0,792)" d="M4954.9 1098.7 4672.1 815.898 4954.9 533 5237.7 815.898Z"/>
<path transform="matrix(.1,0,0,-.1,0,792)" stroke-width=".1" stroke-linecap="butt" stroke-miterlimit="10" stroke-linejoin="miter" fill="none" stroke="#000000" d="M4954.9 1098.7 4672.1 815.898 4954.9 533 5237.7 815.898Z"/>
<path transform="matrix(.1,0,0,-.1,0,792)" d="M4954.9 7321.3 5237.7 7604.1 4954.9 7887 4672.1 7604.1Z"/>
<path transform="matrix(.1,0,0,-.1,0,792)" stroke-width=".1" stroke-linecap="butt" stroke-miterlimit="10" stroke-linejoin="miter" fill="none" stroke="#000000" d="M4954.9 7321.3 5237.7 7604.1 4954.9 7887 4672.1 7604.1Z"/>
<path transform="matrix(.1,0,0,-.1,0,792)" d="M4389.2 7321.3 4672.1 7604.1 4389.2 7887 4106.4 7604.1Z"/>
<path transform="matrix(.1,0,0,-.1,0,792)" stroke-width=".1" stroke-linecap="butt" stroke-miterlimit="10" stroke-linejoin="miter" fill="none" stroke="#000000" d="M4389.2 7321.3 4672.1 7604.1 4389.2 7887 4106.4 7604.1Z"/>
<path transform="matrix(.1,0,0,-.1,0,792)" d="M3823.5 7321.3 4106.4 7604.1 3823.5 7887 3540.7 7604.1Z"/>
<path transform="matrix(.1,0,0,-.1,0,792)" stroke-width=".1" stroke-linecap="butt" stroke-miterlimit="10" stroke-linejoin="miter" fill="none" stroke="#000000" d="M3823.5 7321.3 4106.4 7604.1 3823.5 7887 3540.7 7604.1Z"/>
<path transform="matrix(.1,0,0,-.1,0,792)" d="M3257.8 7321.3 3540.7 7604.1 3257.8 7887 2975 7604.1Z"/>
<path transform="matrix(.1,0,0,-.1,0,792)" stroke-width=".1" stroke-linecap="butt" stroke-miterlimit="10" stroke-linejoin="miter" fill="none" stroke="#000000" d="M3257.8 7321.3 3540.7 7604.1 3257.8 7887 2975 7604.1Z"/>
<path transform="matrix(.1,0,0,-.1,0,792)" d="M2692.2 7321.3 2975 7604.1 2692.2 7887 2409.3 7604.1Z"/>
<path transform="matrix(.1,0,0,-.1,0,792)" stroke-width=".1" stroke-linecap="butt" stroke-miterlimit="10" stroke-linejoin="miter" fill="none" stroke="#000000" d="M2692.2 7321.3 2975 7604.1 2692.2 7887 2409.3 7604.1Z"/>
<path transform="matrix(.1,0,0,-.1,0,792)" d="M2126.5 7321.3 2409.3 7604.1 2126.5 7887 1843.6 7604.1Z"/>
<path transform="matrix(.1,0,0,-.1,0,792)" stroke-width=".1" stroke-linecap="butt" stroke-miterlimit="10" stroke-linejoin="miter" fill="none" stroke="#000000" d="M2126.5 7321.3 2409.3 7604.1 2126.5 7887 1843.6 7604.1Z"/>
<path transform="matrix(.1,0,0,-.1,0,792)" d="M1560.8 7321.3 1843.6 7604.1 1560.8 7887 1277.9 7604.1Z"/>
<path transform="matrix(.1,0,0,-.1,0,792)" stroke-width=".1" stroke-linecap="butt" stroke-miterlimit="10" stroke-linejoin="miter" fill="none" stroke="#000000" d="M1560.8 7321.3 1843.6 7604.1 1560.8 7887 1277.9 7604.1Z"/>
<path transform="matrix(.1,0,0,-.1,0,792)" d="M995.102 7321.3 712.301 7604.1 429.398 7321.3 146.602 7604.1-136.301 7321.3 146.602 7038.4-136.301 6755.6 146.602 6472.7" fill="#ffffff"/>
<path transform="matrix(.1,0,0,-.1,0,792)" stroke-width=".1" stroke-linecap="butt" stroke-miterlimit="10" stroke-linejoin="miter" fill="none" stroke="#000000" d="M995.102 7321.3 712.301 7604.1 429.398 7321.3 146.602 7604.1-136.301 7321.3 146.602 7038.4-136.301 6755.6 146.602 6472.7Z"/>
<path transform="matrix(.1,0,0,-.1,0,792)" d="M995.102 7321.3 1277.9 7604.1 995.102 7887 712.301 7604.1Z"/>
<path transform="matrix(.1,0,0,-.1,0,792)" stroke-width=".1" stroke-linecap="butt" stroke-miterlimit="10" stroke-linejoin="miter" fill="none" stroke="#000000" d="M995.102 7321.3 1277.9 7604.1 995.102 7887 712.301 7604.1Z"/>
<path transform="matrix(.1,0,0,-.1,0,792)" d="M712.301 5341.4 429.398 5624.2 146.602 5341.4 429.398 5058.5Z"/>
<path transform="matrix(.1,0,0,-.1,0,792)" stroke-width=".1" stroke-linecap="butt" stroke-miterlimit="10" stroke-linejoin="miter" fill="none" stroke="#000000" d="M712.301 5341.4 429.398 5624.2 146.602 5341.4 429.398 5058.5Z"/>
<path transform="matrix(.1,0,0,-.1,0,792)" d="M712.301 3078.6 429.398 3361.5 146.602 3078.6 429.398 2795.8Z"/>
<path transform="matrix(.1,0,0,-.1,0,792)" stroke-width=".1" stroke-linecap="butt" stroke-miterlimit="10" stroke-linejoin="miter" fill="none" stroke="#000000" d="M712.301 3078.6 429.398 3361.5 146.602 3078.6 429.398 2795.8Z"/>
<path transform="matrix(.1,0,0,-.1,0,792)" d="M5237.7 3078.6 5520.6 2795.8 5803.4 3078.6 5520.6 3361.5Z"/>
<path transform="matrix(.1,0,0,-.1,0,792)" stroke-width=".1" stroke-linecap="butt" stroke-miterlimit="10" stroke-linejoin="miter" fill="none" stroke="#000000" d="M5237.7 3078.6 5520.6 2795.8 5803.4 3078.6 5520.6 3361.5Z"/>
<path transform="matrix(.1,0,0,-.1,0,792)" d="M5237.7 5341.4 5520.6 5058.5 5803.4 5341.4 5520.6 5624.2Z"/>
<path transform="matrix(.1,0,0,-.1,0,792)" stroke-width=".1" stroke-linecap="butt" stroke-miterlimit="10" stroke-linejoin="miter" fill="none" stroke="#000000" d="M5237.7 5341.4 5520.6 5058.5 5803.4 5341.4 5520.6 5624.2Z"/>
<path transform="matrix(.1,0,0,-.1,0,792)" d="M5237.7 7604.1 5520.6 7887 4672.1 8735.5 4389.2 8452.6 4672.1 8169.8 4389.2 7887 4672.1 7604.1 4954.9 7887" fill="#ffffff"/>
<path transform="matrix(.1,0,0,-.1,0,792)" stroke-width=".1" stroke-linecap="butt" stroke-miterlimit="10" stroke-linejoin="miter" fill="none" stroke="#000000" d="M5237.7 7604.1 5520.6 7887 4672.1 8735.5 4389.2 8452.6 4672.1 8169.8 4389.2 7887 4672.1 7604.1 4954.9 7887Z"/>
<path transform="matrix(.1,0,0,-.1,0,792)" d="M5237.7 7604.1 5520.6 7321.3 5803.4 7604.1 5520.6 7887Z"/>
<path transform="matrix(.1,0,0,-.1,0,792)" stroke-width=".1" stroke-linecap="butt" stroke-miterlimit="10" stroke-linejoin="miter" fill="none" stroke="#000000" d="M5237.7 7604.1 5520.6 7321.3 5803.4 7604.1 5520.6 7887Z"/>
<path transform="matrix(.1,0,0,-.1,0,792)" d="M4106.4 7604.1 4389.2 7887 4106.4 8169.8 4389.2 8452.6 4106.4 8735.5 3257.8 7887 3540.7 7604.1 3823.5 7887" fill="#ffffff"/>
<path transform="matrix(.1,0,0,-.1,0,792)" stroke-width=".1" stroke-linecap="butt" stroke-miterlimit="10" stroke-linejoin="miter" fill="none" stroke="#000000" d="M4106.4 7604.1 4389.2 7887 4106.4 8169.8 4389.2 8452.6 4106.4 8735.5 3257.8 7887 3540.7 7604.1 3823.5 7887Z"/>
<path transform="matrix(.1,0,0,-.1,0,792)" d="M2975 7604.1 3257.8 7887 2409.3 8735.5 2126.5 8452.6 2409.3 8169.8 2126.5 7887 2409.3 7604.1 2692.2 7887" fill="#ffffff"/>
<path transform="matrix(.1,0,0,-.1,0,792)" stroke-width=".1" stroke-linecap="butt" stroke-miterlimit="10" stroke-linejoin="miter" fill="none" stroke="#000000" d="M2975 7604.1 3257.8 7887 2409.3 8735.5 2126.5 8452.6 2409.3 8169.8 2126.5 7887 2409.3 7604.1 2692.2 7887Z"/>
<path transform="matrix(.1,0,0,-.1,0,792)" d="M1843.6 7604.1 2126.5 7887 1843.6 8169.8 2126.5 8452.6 1843.6 8735.5 995.102 7887 1277.9 7604.1 1560.8 7887" fill="#ffffff"/>
<path transform="matrix(.1,0,0,-.1,0,792)" stroke-width=".1" stroke-linecap="butt" stroke-miterlimit="10" stroke-linejoin="miter" fill="none" stroke="#000000" d="M1843.6 7604.1 2126.5 7887 1843.6 8169.8 2126.5 8452.6 1843.6 8735.5 995.102 7887 1277.9 7604.1 1560.8 7887Z"/>
<path transform="matrix(.1,0,0,-.1,0,792)" d="M712.301 7604.1 429.398 7887 146.602 7604.1 429.398 7321.3Z"/>
<path transform="matrix(.1,0,0,-.1,0,792)" stroke-width=".1" stroke-linecap="butt" stroke-miterlimit="10" stroke-linejoin="miter" fill="none" stroke="#000000" d="M712.301 7604.1 429.398 7887 146.602 7604.1 429.398 7321.3Z"/>
<path transform="matrix(.1,0,0,-.1,0,792)" d="M712.301 7604.1 995.102 7887 146.602 8735.5-136.301 8452.6 146.602 8169.8-136.301 7887 146.602 7604.1 429.398 7887" fill="#ffffff"/>
<path transform="matrix(.1,0,0,-.1,0,792)" stroke-width=".1" stroke-linecap="butt" stroke-miterlimit="10" stroke-linejoin="miter" fill="none" stroke="#000000" d="M712.301 7604.1 995.102 7887 146.602 8735.5-136.301 8452.6 146.602 8169.8-136.301 7887 146.602 7604.1 429.398 7887Z"/>
<path transform="matrix(.1,0,0,-.1,0,792)" d="M712.301 815.898 429.398 533 146.602 815.898-136.301 533 146.602 250.199-136.301-32.6016 146.602-315.5 995.102 533" fill="#ffffff"/>
<path transform="matrix(.1,0,0,-.1,0,792)" stroke-width=".1" stroke-linecap="butt" stroke-miterlimit="10" stroke-linejoin="miter" fill="none" stroke="#000000" d="M712.301 815.898 429.398 533 146.602 815.898-136.301 533 146.602 250.199-136.301-32.6016 146.602-315.5 995.102 533Z"/>
<path transform="matrix(.1,0,0,-.1,0,792)" d="M712.301 815.898 429.398 1098.7 146.602 815.898 429.398 533Z"/>
<path transform="matrix(.1,0,0,-.1,0,792)" stroke-width=".1" stroke-linecap="butt" stroke-miterlimit="10" stroke-linejoin="miter" fill="none" stroke="#000000" d="M712.301 815.898 429.398 1098.7 146.602 815.898 429.398 533Z"/>
<path transform="matrix(.1,0,0,-.1,0,792)" d="M1277.9 815.898 995.102 533 1843.6-315.5 2126.5-32.6016 1843.6 250.199 2126.5 533 1843.6 815.898 1560.8 533" fill="#ffffff"/>
<path transform="matrix(.1,0,0,-.1,0,792)" stroke-width=".1" stroke-linecap="butt" stroke-miterlimit="10" stroke-linejoin="miter" fill="none" stroke="#000000" d="M1277.9 815.898 995.102 533 1843.6-315.5 2126.5-32.6016 1843.6 250.199 2126.5 533 1843.6 815.898 1560.8 533Z"/>
<path transform="matrix(.1,0,0,-.1,0,792)" d="M2409.3 815.898 2126.5 533 2409.3 250.199 2126.5-32.6016 2409.3-315.5 3257.8 533 2975 815.898 2692.2 533" fill="#ffffff"/>
<path transform="matrix(.1,0,0,-.1,0,792)" stroke-width=".1" stroke-linecap="butt" stroke-miterlimit="10" stroke-linejoin="miter" fill="none" stroke="#000000" d="M2409.3 815.898 2126.5 533 2409.3 250.199 2126.5-32.6016 2409.3-315.5 3257.8 533 2975 815.898 2692.2 533Z"/>
<path transform="matrix(.1,0,0,-.1,0,792)" d="M3540.7 815.898 3257.8 533 4106.4-315.5 4389.2-32.6016 4106.4 250.199 4389.2 533 4106.4 815.898 3823.5 533" fill="#ffffff"/>
<path transform="matrix(.1,0,0,-.1,0,792)" stroke-width=".1" stroke-linecap="butt" stroke-miterlimit="10" stroke-linejoin="miter" fill="none" stroke="#000000" d="M3540.7 815.898 3257.8 533 4106.4-315.5 4389.2-32.6016 4106.4 250.199 4389.2 533 4106.4 815.898 3823.5 533Z"/>
<path transform="matrix(.1,0,0,-.1,0,792)" d="M4672.1 815.898 4389.2 533 4672.1 250.199 4389.2-32.6016 4672.1-315.5 5520.6 533 5237.7 815.898 4954.9 533" fill="#ffffff"/>
<path transform="matrix(.1,0,0,-.1,0,792)" stroke-width=".1" stroke-linecap="butt" stroke-miterlimit="10" stroke-linejoin="miter" fill="none" stroke="#000000" d="M4672.1 815.898 4389.2 533 4672.1 250.199 4389.2-32.6016 4672.1-315.5 5520.6 533 5237.7 815.898 4954.9 533Z"/>
<path transform="matrix(.1,0,0,-.1,0,792)" d="M5237.7 815.898 5520.6 533 5803.4 815.898 5520.6 1098.7Z"/>
<path transform="matrix(.1,0,0,-.1,0,792)" stroke-width=".1" stroke-linecap="butt" stroke-miterlimit="10" stroke-linejoin="miter" fill="none" stroke="#000000" d="M5237.7 815.898 5520.6 533 5803.4 815.898 5520.6 1098.7Z"/>
<path transform="matrix(.1,0,0,-.1,0,792)" d="M5520.6 1098.7 5803.4 815.898 6086.3 1098.7 6369.1 815.898 6652 1098.7 6369.1 1381.6 6652 1664.4 6369.1 1947.3" fill="#ffffff"/>
<path transform="matrix(.1,0,0,-.1,0,792)" stroke-width=".1" stroke-linecap="butt" stroke-miterlimit="10" stroke-linejoin="miter" fill="none" stroke="#000000" d="M5520.6 1098.7 5803.4 815.898 6086.3 1098.7 6369.1 815.898 6652 1098.7 6369.1 1381.6 6652 1664.4 6369.1 1947.3Z"/>
<path transform="matrix(.1,0,0,-.1,0,792)" d="M5520.6 2795.8 6369.1 1947.3 6652 2230.1 6369.1 2512.9 6652 2795.8 6369.1 3078.6 6086.3 2795.8 5803.4 3078.6" fill="#ffffff"/>
<path transform="matrix(.1,0,0,-.1,0,792)" stroke-width=".1" stroke-linecap="butt" stroke-miterlimit="10" stroke-linejoin="miter" fill="none" stroke="#000000" d="M5520.6 2795.8 6369.1 1947.3 6652 2230.1 6369.1 2512.9 6652 2795.8 6369.1 3078.6 6086.3 2795.8 5803.4 3078.6Z"/>
<path transform="matrix(.1,0,0,-.1,0,792)" d="M5520.6 3361.5 5803.4 3078.6 6086.3 3361.5 6369.1 3078.6 6652 3361.5 6369.1 3644.3 6652 3927.2 6369.1 4210" fill="#ffffff"/>
<path transform="matrix(.1,0,0,-.1,0,792)" stroke-width=".1" stroke-linecap="butt" stroke-miterlimit="10" stroke-linejoin="miter" fill="none" stroke="#000000" d="M5520.6 3361.5 5803.4 3078.6 6086.3 3361.5 6369.1 3078.6 6652 3361.5 6369.1 3644.3 6652 3927.2 6369.1 4210Z"/>
<path transform="matrix(.1,0,0,-.1,0,792)" d="M5520.6 5058.5 6369.1 4210 6652 4492.8 6369.1 4775.7 6652 5058.5 6369.1 5341.4 6086.3 5058.5 5803.4 5341.4" fill="#ffffff"/>
<path transform="matrix(.1,0,0,-.1,0,792)" stroke-width=".1" stroke-linecap="butt" stroke-miterlimit="10" stroke-linejoin="miter" fill="none" stroke="#000000" d="M5520.6 5058.5 6369.1 4210 6652 4492.8 6369.1 4775.7 6652 5058.5 6369.1 5341.4 6086.3 5058.5 5803.4 5341.4Z"/>
<path transform="matrix(.1,0,0,-.1,0,792)" d="M5520.6 5624.2 5803.4 5341.4 6086.3 5624.2 6369.1 5341.4 6652 5624.2 6369.1 5907.1 6652 6189.9 6369.1 6472.7" fill="#ffffff"/>
<path transform="matrix(.1,0,0,-.1,0,792)" stroke-width=".1" stroke-linecap="butt" stroke-miterlimit="10" stroke-linejoin="miter" fill="none" stroke="#000000" d="M5520.6 5624.2 5803.4 5341.4 6086.3 5624.2 6369.1 5341.4 6652 5624.2 6369.1 5907.1 6652 6189.9 6369.1 6472.7Z"/>
<path transform="matrix(.1,0,0,-.1,0,792)" d="M5520.6 7321.3 6369.1 6472.7 6652 6755.6 6369.1 7038.4 6652 7321.3 6369.1 7604.1 6086.3 7321.3 5803.4 7604.1" fill="#ffffff"/>
<path transform="matrix(.1,0,0,-.1,0,792)" stroke-width=".1" stroke-linecap="butt" stroke-miterlimit="10" stroke-linejoin="miter" fill="none" stroke="#000000" d="M5520.6 7321.3 6369.1 6472.7 6652 6755.6 6369.1 7038.4 6652 7321.3 6369.1 7604.1 6086.3 7321.3 5803.4 7604.1Z"/>
<path transform="matrix(.1,0,0,-.1,0,792)" d="M5520.6 7887 6369.1 8735.5 5520.6 9584 4672.1 8735.5Z" fill="#385c33"/>
<path transform="matrix(.1,0,0,-.1,0,792)" stroke-width=".1" stroke-linecap="butt" stroke-miterlimit="10" stroke-linejoin="miter" fill="none" stroke="#000000" d="M5520.6 7887 6369.1 8735.5 5520.6 9584 4672.1 8735.5Z"/>
<path transform="matrix(.1,0,0,-.1,0,792)" d="M5520.6 7887 5803.4 7604.1 6086.3 7887 6369.1 7604.1 6652 7887 6369.1 8169.8 6652 8452.6 6369.1 8735.5" fill="#ffffff"/>
<path transform="matrix(.1,0,0,-.1,0,792)" stroke-width=".1" stroke-linecap="butt" stroke-miterlimit="10" stroke-linejoin="miter" fill="none" stroke="#000000" d="M5520.6 7887 5803.4 7604.1 6086.3 7887 6369.1 7604.1 6652 7887 6369.1 8169.8 6652 8452.6 6369.1 8735.5Z"/>
<path transform="matrix(.1,0,0,-.1,0,792)" d="M4389.2 7887 4672.1 8169.8 4389.2 8452.6 4106.4 8169.8Z"/>
<path transform="matrix(.1,0,0,-.1,0,792)" stroke-width=".1" stroke-linecap="butt" stroke-miterlimit="10" stroke-linejoin="miter" fill="none" stroke="#000000" d="M4389.2 7887 4672.1 8169.8 4389.2 8452.6 4106.4 8169.8Z"/>
<path transform="matrix(.1,0,0,-.1,0,792)" d="M3257.8 7887 4106.4 8735.5 3257.8 9584 2409.3 8735.5Z" fill="#385c33"/>
<path transform="matrix(.1,0,0,-.1,0,792)" stroke-width=".1" stroke-linecap="butt" stroke-miterlimit="10" stroke-linejoin="miter" fill="none" stroke="#000000" d="M3257.8 7887 4106.4 8735.5 3257.8 9584 2409.3 8735.5Z"/>
<path transform="matrix(.1,0,0,-.1,0,792)" d="M2126.5 7887 2409.3 8169.8 2126.5 8452.6 1843.6 8169.8Z"/>
<path transform="matrix(.1,0,0,-.1,0,792)" stroke-width=".1" stroke-linecap="butt" stroke-miterlimit="10" stroke-linejoin="miter" fill="none" stroke="#000000" d="M2126.5 7887 2409.3 8169.8 2126.5 8452.6 1843.6 8169.8Z"/>
<path transform="matrix(.1,0,0,-.1,0,792)" d="M995.102 7887 1843.6 8735.5 995.102 9584 146.602 8735.5Z" fill="#385c33"/>
<path transform="matrix(.1,0,0,-.1,0,792)" stroke-width=".1" stroke-linecap="butt" stroke-miterlimit="10" stroke-linejoin="miter" fill="none" stroke="#000000" d="M995.102 7887 1843.6 8735.5 995.102 9584 146.602 8735.5Z"/>
<path transform="matrix(.1,0,0,-.1,0,792)" d="M995.102 533 146.602-315.5 995.102-1164 1843.6-315.5Z" fill="#385c33"/>
<path transform="matrix(.1,0,0,-.1,0,792)" stroke-width=".1" stroke-linecap="butt" stroke-miterlimit="10" stroke-linejoin="miter" fill="none" stroke="#000000" d="M995.102 533 146.602-315.5 995.102-1164 1843.6-315.5Z"/>
<path transform="matrix(.1,0,0,-.1,0,792)" d="M2126.5 533 1843.6 250.199 2126.5-32.6016 2409.3 250.199Z"/>
<path transform="matrix(.1,0,0,-.1,0,792)" stroke-width=".1" stroke-linecap="butt" stroke-miterlimit="10" stroke-linejoin="miter" fill="none" stroke="#000000" d="M2126.5 533 1843.6 250.199 2126.5-32.6016 2409.3 250.199Z"/>
<path transform="matrix(.1,0,0,-.1,0,792)" d="M3257.8 533 2409.3-315.5 3257.8-1164 4106.4-315.5Z" fill="#385c33"/>
<path transform="matrix(.1,0,0,-.1,0,792)" stroke-width=".1" stroke-linecap="butt" stroke-miterlimit="10" stroke-linejoin="miter" fill="none" stroke="#000000" d="M3257.8 533 2409.3-315.5 3257.8-1164 4106.4-315.5Z"/>
<path transform="matrix(.1,0,0,-.1,0,792)" d="M4389.2 533 4106.4 250.199 4389.2-32.6016 4672.1 250.199Z"/>
<path transform="matrix(.1,0,0,-.1,0,792)" stroke-width=".1" stroke-linecap="butt" stroke-miterlimit="10" stroke-linejoin="miter" fill="none" stroke="#000000" d="M4389.2 533 4106.4 250.199 4389.2-32.6016 4672.1 250.199Z"/>
<path transform="matrix(.1,0,0,-.1,0,792)" d="M5520.6 533 6369.1-315.5 6652-32.6016 6369.1 250.199 6652 533 6369.1 815.898 6086.3 533 5803.4 815.898" fill="#ffffff"/>
<path transform="matrix(.1,0,0,-.1,0,792)" stroke-width=".1" stroke-linecap="butt" stroke-miterlimit="10" stroke-linejoin="miter" fill="none" stroke="#000000" d="M5520.6 533 6369.1-315.5 6652-32.6016 6369.1 250.199 6652 533 6369.1 815.898 6086.3 533 5803.4 815.898Z"/>
<path transform="matrix(.1,0,0,-.1,0,792)" d="M5520.6 533 4672.1-315.5 5520.6-1164 6369.1-315.5Z" fill="#385c33"/>
<path transform="matrix(.1,0,0,-.1,0,792)" stroke-width=".1" stroke-linecap="butt" stroke-miterlimit="10" stroke-linejoin="miter" fill="none" stroke="#000000" d="M5520.6 533 4672.1-315.5 5520.6-1164 6369.1-315.5Z"/>
<path transform="matrix(.1,0,0,-.1,0,792)" d="M5803.4 815.898 6086.3 533 6369.1 815.898 6086.3 1098.7Z"/>
<path transform="matrix(.1,0,0,-.1,0,792)" stroke-width=".1" stroke-linecap="butt" stroke-miterlimit="10" stroke-linejoin="miter" fill="none" stroke="#000000" d="M5803.4 815.898 6086.3 533 6369.1 815.898 6086.3 1098.7Z"/>
<path transform="matrix(.1,0,0,-.1,0,792)" d="M5803.4 3078.6 6086.3 2795.8 6369.1 3078.6 6086.3 3361.5Z"/>
<path transform="matrix(.1,0,0,-.1,0,792)" stroke-width=".1" stroke-linecap="butt" stroke-miterlimit="10" stroke-linejoin="miter" fill="none" stroke="#000000" d="M5803.4 3078.6 6086.3 2795.8 6369.1 3078.6 6086.3 3361.5Z"/>
<path transform="matrix(.1,0,0,-.1,0,792)" d="M5803.4 5341.4 6086.3 5058.5 6369.1 5341.4 6086.3 5624.2Z"/>
<path transform="matrix(.1,0,0,-.1,0,792)" stroke-width=".1" stroke-linecap="butt" stroke-miterlimit="10" stroke-linejoin="miter" fill="none" stroke="#000000" d="M5803.4 5341.4 6086.3 5058.5 6369.1 5341.4 6086.3 5624.2Z"/>
<path transform="matrix(.1,0,0,-.1,0,792)" d="M5803.4 7604.1 6086.3 7321.3 6369.1 7604.1 6086.3 7887Z"/>
<path transform="matrix(.1,0,0,-.1,0,792)" stroke-width=".1" stroke-linecap="butt" stroke-miterlimit="10" stroke-linejoin="miter" fill="none" stroke="#000000" d="M5803.4 7604.1 6086.3 7321.3 6369.1 7604.1 6086.3 7887Z"/>
<path transform="matrix(.1,0,0,-.1,0,792)" d="M146.602 7604.1-136.301 7887-419.102 7604.1-136.301 7321.3Z"/>
<path transform="matrix(.1,0,0,-.1,0,792)" stroke-width=".1" stroke-linecap="butt" stroke-miterlimit="10" stroke-linejoin="miter" fill="none" stroke="#000000" d="M146.602 7604.1-136.301 7887-419.102 7604.1-136.301 7321.3Z"/>
<path transform="matrix(.1,0,0,-.1,0,792)" d="M146.602 7038.4-136.301 7321.3-419.102 7038.4-136.301 6755.6Z"/>
<path transform="matrix(.1,0,0,-.1,0,792)" stroke-width=".1" stroke-linecap="butt" stroke-miterlimit="10" stroke-linejoin="miter" fill="none" stroke="#000000" d="M146.602 7038.4-136.301 7321.3-419.102 7038.4-136.301 6755.6Z"/>
<path transform="matrix(.1,0,0,-.1,0,792)" d="M146.602 6472.7-136.301 6755.6-419.102 6472.7-136.301 6189.9Z"/>
<path transform="matrix(.1,0,0,-.1,0,792)" stroke-width=".1" stroke-linecap="butt" stroke-miterlimit="10" stroke-linejoin="miter" fill="none" stroke="#000000" d="M146.602 6472.7-136.301 6755.6-419.102 6472.7-136.301 6189.9Z"/>
<path transform="matrix(.1,0,0,-.1,0,792)" d="M146.602 5907.1-136.301 6189.9-419.102 5907.1-136.301 5624.2Z"/>
<path transform="matrix(.1,0,0,-.1,0,792)" stroke-width=".1" stroke-linecap="butt" stroke-miterlimit="10" stroke-linejoin="miter" fill="none" stroke="#000000" d="M146.602 5907.1-136.301 6189.9-419.102 5907.1-136.301 5624.2Z"/>
<path transform="matrix(.1,0,0,-.1,0,792)" d="M146.602 5341.4-136.301 5624.2-419.102 5341.4-136.301 5058.5Z"/>
<path transform="matrix(.1,0,0,-.1,0,792)" stroke-width=".1" stroke-linecap="butt" stroke-miterlimit="10" stroke-linejoin="miter" fill="none" stroke="#000000" d="M146.602 5341.4-136.301 5624.2-419.102 5341.4-136.301 5058.5Z"/>
<path transform="matrix(.1,0,0,-.1,0,792)" d="M146.602 4775.7-136.301 5058.5-419.102 4775.7-136.301 4492.8Z"/>
<path transform="matrix(.1,0,0,-.1,0,792)" stroke-width=".1" stroke-linecap="butt" stroke-miterlimit="10" stroke-linejoin="miter" fill="none" stroke="#000000" d="M146.602 4775.7-136.301 5058.5-419.102 4775.7-136.301 4492.8Z"/>
<path transform="matrix(.1,0,0,-.1,0,792)" d="M146.602 4210-136.301 4492.8-419.102 4210-136.301 3927.2Z"/>
<path transform="matrix(.1,0,0,-.1,0,792)" stroke-width=".1" stroke-linecap="butt" stroke-miterlimit="10" stroke-linejoin="miter" fill="none" stroke="#000000" d="M146.602 4210-136.301 4492.8-419.102 4210-136.301 3927.2Z"/>
<path transform="matrix(.1,0,0,-.1,0,792)" d="M146.602 3644.3-136.301 3927.2-419.102 3644.3-136.301 3361.5Z"/>
<path transform="matrix(.1,0,0,-.1,0,792)" stroke-width=".1" stroke-linecap="butt" stroke-miterlimit="10" stroke-linejoin="miter" fill="none" stroke="#000000" d="M146.602 3644.3-136.301 3927.2-419.102 3644.3-136.301 3361.5Z"/>
<path transform="matrix(.1,0,0,-.1,0,792)" d="M146.602 3078.6-136.301 3361.5-419.102 3078.6-136.301 2795.8Z"/>
<path transform="matrix(.1,0,0,-.1,0,792)" stroke-width=".1" stroke-linecap="butt" stroke-miterlimit="10" stroke-linejoin="miter" fill="none" stroke="#000000" d="M146.602 3078.6-136.301 3361.5-419.102 3078.6-136.301 2795.8Z"/>
<path transform="matrix(.1,0,0,-.1,0,792)" d="M146.602 2512.9-136.301 2795.8-419.102 2512.9-136.301 2230.1Z"/>
<path transform="matrix(.1,0,0,-.1,0,792)" stroke-width=".1" stroke-linecap="butt" stroke-miterlimit="10" stroke-linejoin="miter" fill="none" stroke="#000000" d="M146.602 2512.9-136.301 2795.8-419.102 2512.9-136.301 2230.1Z"/>
<path transform="matrix(.1,0,0,-.1,0,792)" d="M146.602 1947.3-136.301 2230.1-419.102 1947.3-136.301 1664.4Z"/>
<path transform="matrix(.1,0,0,-.1,0,792)" stroke-width=".1" stroke-linecap="butt" stroke-miterlimit="10" stroke-linejoin="miter" fill="none" stroke="#000000" d="M146.602 1947.3-136.301 2230.1-419.102 1947.3-136.301 1664.4Z"/>
<path transform="matrix(.1,0,0,-.1,0,792)" d="M146.602 1381.6-136.301 1664.4-419.102 1381.6-136.301 1098.7Z"/>
<path transform="matrix(.1,0,0,-.1,0,792)" stroke-width=".1" stroke-linecap="butt" stroke-miterlimit="10" stroke-linejoin="miter" fill="none" stroke="#000000" d="M146.602 1381.6-136.301 1664.4-419.102 1381.6-136.301 1098.7Z"/>
<path transform="matrix(.1,0,0,-.1,0,792)" d="M146.602 815.898-136.301 1098.7-419.102 815.898-136.301 533Z"/>
<path transform="matrix(.1,0,0,-.1,0,792)" stroke-width=".1" stroke-linecap="butt" stroke-miterlimit="10" stroke-linejoin="miter" fill="none" stroke="#000000" d="M146.602 815.898-136.301 1098.7-419.102 815.898-136.301 533Z"/>
<path transform="matrix(.1,0,0,-.1,0,792)" d="M146.602 250.199-136.301 533-419.102 250.199-136.301-32.6016Z"/>
<path transform="matrix(.1,0,0,-.1,0,792)" stroke-width=".1" stroke-linecap="butt" stroke-miterlimit="10" stroke-linejoin="miter" fill="none" stroke="#000000" d="M146.602 250.199-136.301 533-419.102 250.199-136.301-32.6016Z"/>
<path transform="matrix(.1,0,0,-.1,0,792)" d="M146.602 8169.8-136.301 8452.6-419.102 8169.8-136.301 7887Z"/>
<path transform="matrix(.1,0,0,-.1,0,792)" stroke-width=".1" stroke-linecap="butt" stroke-miterlimit="10" stroke-linejoin="miter" fill="none" stroke="#000000" d="M146.602 8169.8-136.301 8452.6-419.102 8169.8-136.301 7887Z"/>
</svg>
