<svg xmlns="http://www.w3.org/2000/svg" xmlns:xlink="http://www.w3.org/1999/xlink" xmlns:inkscape="http://www.inkscape.org/namespaces/inkscape" version="1.1" width="612" height="792" viewBox="0 0 612 792">
<path transform="matrix(.1,0,0,-.1,0,792)" d="M2375 3170.8H3475L3750 3647.1 4025 4123.4 3750 4599.7 3475 5076H2925 2375L2100 4599.7 1825 4123.4 2100 3647.1" fill="#823d24"/>
<path transform="matrix(.1,0,0,-.1,0,792)" stroke-width="30" stroke-linecap="butt" stroke-miterlimit="10" stroke-linejoin="miter" fill="none" stroke="#000000" d="M2375 3170.8H3475L3750 3647.1 4025 4123.4 3750 4599.7 3475 5076H2925 2375L2100 4599.7 1825 4123.4 2100 3647.1Z"/>
<path transform="matrix(.1,0,0,-.1,0,792)" d="M3475 5076 3750 5552.3H3200L2925 5076Z" fill="#ffffff"/>
<path transform="matrix(.1,0,0,-.1,0,792)" stroke-width="30" stroke-linecap="butt" stroke-miterlimit="10" stroke-linejoin="miter" fill="none" stroke="#000000" d="M3475 5076 3750 5552.3H3200L2925 5076Z"/>
<path transform="matrix(.1,0,0,-.1,0,792)" d="M3475 5076 3750 4599.7 4025 5076 3750 5552.3Z" fill="#ffffff"/>
<path transform="matrix(.1,0,0,-.1,0,792)" stroke-width="30" stroke-linecap="butt" stroke-miterlimit="10" stroke-linejoin="miter" fill="none" stroke="#000000" d="M3475 5076 3750 4599.7 4025 5076 3750 5552.3Z"/>
<path transform="matrix(.1,0,0,-.1,0,792)" d="M2925 5076 2650 5552.3H2100L2375 5076Z" fill="#ffffff"/>
<path transform="matrix(.1,0,0,-.1,0,792)" stroke-width="30" stroke-linecap="butt" stroke-miterlimit="10" stroke-linejoin="miter" fill="none" stroke="#000000" d="M2925 5076 2650 5552.3H2100L2375 5076Z"/>
<path transform="matrix(.1,0,0,-.1,0,792)" d="M2925 5076 3200 5552.3 2925 6028.7 2650 5552.3Z" fill="#ffffff"/>
<path transform="matrix(.1,0,0,-.1,0,792)" stroke-width="30" stroke-linecap="butt" stroke-miterlimit="10" stroke-linejoin="miter" fill="none" stroke="#000000" d="M2925 5076 3200 5552.3 2925 6028.7 2650 5552.3Z"/>
<path transform="matrix(.1,0,0,-.1,0,792)" d="M2375 5076 2100 5552.3 1825 5076 2100 4599.7Z" fill="#ffffff"/>
<path transform="matrix(.1,0,0,-.1,0,792)" stroke-width="30" stroke-linecap="butt" stroke-miterlimit="10" stroke-linejoin="miter" fill="none" stroke="#000000" d="M2375 5076 2100 5552.3 1825 5076 2100 4599.7Z"/>
<path transform="matrix(.1,0,0,-.1,0,792)" d="M2375 3170.8 2100 2694.5H2650L2925 3170.8Z" fill="#ffffff"/>
<path transform="matrix(.1,0,0,-.1,0,792)" stroke-width="30" stroke-linecap="butt" stroke-miterlimit="10" stroke-linejoin="miter" fill="none" stroke="#000000" d="M2375 3170.8 2100 2694.5H2650L2925 3170.8Z"/>
<path transform="matrix(.1,0,0,-.1,0,792)" d="M2375 3170.8 2100 3647.1 1825 3170.8 2100 2694.5Z" fill="#ffffff"/>
<path transform="matrix(.1,0,0,-.1,0,792)" stroke-width="30" stroke-linecap="butt" stroke-miterlimit="10" stroke-linejoin="miter" fill="none" stroke="#000000" d="M2375 3170.8 2100 3647.1 1825 3170.8 2100 2694.5Z"/>
<path transform="matrix(.1,0,0,-.1,0,792)" d="M2925 3170.8 3200 2694.5H3750L3475 3170.8Z" fill="#ffffff"/>
<path transform="matrix(.1,0,0,-.1,0,792)" stroke-width="30" stroke-linecap="butt" stroke-miterlimit="10" stroke-linejoin="miter" fill="none" stroke="#000000" d="M2925 3170.8 3200 2694.5H3750L3475 3170.8Z"/>
<path transform="matrix(.1,0,0,-.1,0,792)" d="M2925 3170.8 2650 2694.5 2925 2218.1 3200 2694.5Z" fill="#ffffff"/>
<path transform="matrix(.1,0,0,-.1,0,792)" stroke-width="30" stroke-linecap="butt" stroke-miterlimit="10" stroke-linejoin="miter" fill="none" stroke="#000000" d="M2925 3170.8 2650 2694.5 2925 2218.1 3200 2694.5Z"/>
<path transform="matrix(.1,0,0,-.1,0,792)" d="M3475 3170.8 3750 2694.5 4025 3170.8 3750 3647.1Z" fill="#ffffff"/>
<path transform="matrix(.1,0,0,-.1,0,792)" stroke-width="30" stroke-linecap="butt" stroke-miterlimit="10" stroke-linejoin="miter" fill="none" stroke="#000000" d="M3475 3170.8 3750 2694.5 4025 3170.8 3750 3647.1Z"/>
<path transform="matrix(.1,0,0,-.1,0,792)" d="M3750 3647.1H4300L4575 4123.4H4025Z" fill="#ffffff"/>
<path transform="matrix(.1,0,0,-.1,0,792)" stroke-width="30" stroke-linecap="butt" stroke-miterlimit="10" stroke-linejoin="miter" fill="none" stroke="#000000" d="M3750 3647.1H4300L4575 4123.4H4025Z"/>
<path transform="matrix(.1,0,0,-.1,0,792)" d="M3750 3647.1 4025 3170.8H4575L4300 3647.1Z" fill="#ffffff"/>
<path transform="matrix(.1,0,0,-.1,0,792)" stroke-width="30" stroke-linecap="butt" stroke-miterlimit="10" stroke-linejoin="miter" fill="none" stroke="#000000" d="M3750 3647.1 4025 3170.8H4575L4300 3647.1Z"/>
<path transform="matrix(.1,0,0,-.1,0,792)" d="M3750 4599.7H4300L4575 5076H4025Z" fill="#ffffff"/>
<path transform="matrix(.1,0,0,-.1,0,792)" stroke-width="30" stroke-linecap="butt" stroke-miterlimit="10" stroke-linejoin="miter" fill="none" stroke="#000000" d="M3750 4599.7H4300L4575 5076H4025Z"/>
<path transform="matrix(.1,0,0,-.1,0,792)" d="M3750 4599.7 4025 4123.4H4575L4300 4599.7Z" fill="#ffffff"/>
<path transform="matrix(.1,0,0,-.1,0,792)" stroke-width="30" stroke-linecap="butt" stroke-miterlimit="10" stroke-linejoin="miter" fill="none" stroke="#000000" d="M3750 4599.7 4025 4123.4H4575L4300 4599.7Z"/>
<path transform="matrix(.1,0,0,-.1,0,792)" d="M2100 4599.7H1550L1275 4123.4H1825Z" fill="#ffffff"/>
<path transform="matrix(.1,0,0,-.1,0,792)" stroke-width="30" stroke-linecap="butt" stroke-miterlimit="10" stroke-linejoin="miter" fill="none" stroke="#000000" d="M2100 4599.7H1550L1275 4123.4H1825Z"/>
<path transform="matrix(.1,0,0,-.1,0,792)" d="M2100 4599.7 1825 5076H1275L1550 4599.7Z" fill="#ffffff"/>
<path transform="matrix(.1,0,0,-.1,0,792)" stroke-width="30" stroke-linecap="butt" stroke-miterlimit="10" stroke-linejoin="miter" fill="none" stroke="#000000" d="M2100 4599.7 1825 5076H1275L1550 4599.7Z"/>
<path transform="matrix(.1,0,0,-.1,0,792)" d="M2100 3647.1H1550L1275 3170.8H1825Z" fill="#ffffff"/>
<path transform="matrix(.1,0,0,-.1,0,792)" stroke-width="30" stroke-linecap="butt" stroke-miterlimit="10" stroke-linejoin="miter" fill="none" stroke="#000000" d="M2100 3647.1H1550L1275 3170.8H1825Z"/>
<path transform="matrix(.1,0,0,-.1,0,792)" d="M2100 3647.1 1825 4123.4H1275L1550 3647.1Z" fill="#ffffff"/>
<path transform="matrix(.1,0,0,-.1,0,792)" stroke-width="30" stroke-linecap="butt" stroke-miterlimit="10" stroke-linejoin="miter" fill="none" stroke="#000000" d="M2100 3647.1 1825 4123.4H1275L1550 3647.1Z"/>
<path transform="matrix(.1,0,0,-.1,0,792)" d="M3750 5552.3 3475 6028.7H2925L3200 5552.3Z" fill="#ffffff"/>
<path transform="matrix(.1,0,0,-.1,0,792)" stroke-width="30" stroke-linecap="butt" stroke-miterlimit="10" stroke-linejoin="miter" fill="none" stroke="#000000" d="M3750 5552.3 3475 6028.7H2925L3200 5552.3Z"/>
<path transform="matrix(.1,0,0,-.1,0,792)" d="M3750 5552.3 4025 6028.7 3750 6505 3475 6028.7Z" fill="#ffffff"/>
<path transform="matrix(.1,0,0,-.1,0,792)" stroke-width="30" stroke-linecap="butt" stroke-miterlimit="10" stroke-linejoin="miter" fill="none" stroke="#000000" d="M3750 5552.3 4025 6028.7 3750 6505 3475 6028.7Z"/>
<path transform="matrix(.1,0,0,-.1,0,792)" d="M3750 5552.3H4300L4575 6028.7H4025Z" fill="#ffffff"/>
<path transform="matrix(.1,0,0,-.1,0,792)" stroke-width="30" stroke-linecap="butt" stroke-miterlimit="10" stroke-linejoin="miter" fill="none" stroke="#000000" d="M3750 5552.3H4300L4575 6028.7H4025Z"/>
<path transform="matrix(.1,0,0,-.1,0,792)" d="M3750 5552.3 4025 5076H4575L4300 5552.3Z" fill="#ffffff"/>
<path transform="matrix(.1,0,0,-.1,0,792)" stroke-width="30" stroke-linecap="butt" stroke-miterlimit="10" stroke-linejoin="miter" fill="none" stroke="#000000" d="M3750 5552.3 4025 5076H4575L4300 5552.3Z"/>
<path transform="matrix(.1,0,0,-.1,0,792)" d="M2650 5552.3 2925 6028.7H2375L2100 5552.3Z" fill="#ffffff"/>
<path transform="matrix(.1,0,0,-.1,0,792)" stroke-width="30" stroke-linecap="butt" stroke-miterlimit="10" stroke-linejoin="miter" fill="none" stroke="#000000" d="M2650 5552.3 2925 6028.7H2375L2100 5552.3Z"/>
<path transform="matrix(.1,0,0,-.1,0,792)" d="M2100 5552.3H1550L1275 5076H1825Z" fill="#ffffff"/>
<path transform="matrix(.1,0,0,-.1,0,792)" stroke-width="30" stroke-linecap="butt" stroke-miterlimit="10" stroke-linejoin="miter" fill="none" stroke="#000000" d="M2100 5552.3H1550L1275 5076H1825Z"/>
<path transform="matrix(.1,0,0,-.1,0,792)" d="M2100 5552.3 1825 6028.7H1275L1550 5552.3Z" fill="#ffffff"/>
<path transform="matrix(.1,0,0,-.1,0,792)" stroke-width="30" stroke-linecap="butt" stroke-miterlimit="10" stroke-linejoin="miter" fill="none" stroke="#000000" d="M2100 5552.3 1825 6028.7H1275L1550 5552.3Z"/>
<path transform="matrix(.1,0,0,-.1,0,792)" d="M2100 5552.3 2375 6028.7 2100 6505 1825 6028.7Z" fill="#ffffff"/>
<path transform="matrix(.1,0,0,-.1,0,792)" stroke-width="30" stroke-linecap="butt" stroke-miterlimit="10" stroke-linejoin="miter" fill="none" stroke="#000000" d="M2100 5552.3 2375 6028.7 2100 6505 1825 6028.7Z"/>
<path transform="matrix(.1,0,0,-.1,0,792)" d="M4025 3170.8 3750 2694.5H4300L4575 3170.8Z" fill="#ffffff"/>
<path transform="matrix(.1,0,0,-.1,0,792)" stroke-width="30" stroke-linecap="butt" stroke-miterlimit="10" stroke-linejoin="miter" fill="none" stroke="#000000" d="M4025 3170.8 3750 2694.5H4300L4575 3170.8Z"/>
<path transform="matrix(.1,0,0,-.1,0,792)" d="M3200 2694.5 2925 2218.1H3475L3750 2694.5Z" fill="#ffffff"/>
<path transform="matrix(.1,0,0,-.1,0,792)" stroke-width="30" stroke-linecap="butt" stroke-miterlimit="10" stroke-linejoin="miter" fill="none" stroke="#000000" d="M3200 2694.5 2925 2218.1H3475L3750 2694.5Z"/>
<path transform="matrix(.1,0,0,-.1,0,792)" d="M2650 2694.5H2100L2375 2218.1H2925Z" fill="#ffffff"/>
<path transform="matrix(.1,0,0,-.1,0,792)" stroke-width="30" stroke-linecap="butt" stroke-miterlimit="10" stroke-linejoin="miter" fill="none" stroke="#000000" d="M2650 2694.5H2100L2375 2218.1H2925Z"/>
<path transform="matrix(.1,0,0,-.1,0,792)" d="M2100 2694.5 1825 2218.1 2100 1741.8 2375 2218.1Z" fill="#ffffff"/>
<path transform="matrix(.1,0,0,-.1,0,792)" stroke-width="30" stroke-linecap="butt" stroke-miterlimit="10" stroke-linejoin="miter" fill="none" stroke="#000000" d="M2100 2694.5 1825 2218.1 2100 1741.8 2375 2218.1Z"/>
<path transform="matrix(.1,0,0,-.1,0,792)" d="M2100 2694.5H1550L1275 2218.1H1825Z" fill="#ffffff"/>
<path transform="matrix(.1,0,0,-.1,0,792)" stroke-width="30" stroke-linecap="butt" stroke-miterlimit="10" stroke-linejoin="miter" fill="none" stroke="#000000" d="M2100 2694.5H1550L1275 2218.1H1825Z"/>
<path transform="matrix(.1,0,0,-.1,0,792)" d="M2100 2694.5 1825 3170.8H1275L1550 2694.5Z" fill="#ffffff"/>
<path transform="matrix(.1,0,0,-.1,0,792)" stroke-width="30" stroke-linecap="butt" stroke-miterlimit="10" stroke-linejoin="miter" fill="none" stroke="#000000" d="M2100 2694.5 1825 3170.8H1275L1550 2694.5Z"/>
<path transform="matrix(.1,0,0,-.1,0,792)" d="M3750 2694.5 4025 2218.1H4575L4300 2694.5Z" fill="#ffffff"/>
<path transform="matrix(.1,0,0,-.1,0,792)" stroke-width="30" stroke-linecap="butt" stroke-miterlimit="10" stroke-linejoin="miter" fill="none" stroke="#000000" d="M3750 2694.5 4025 2218.1H4575L4300 2694.5Z"/>
<path transform="matrix(.1,0,0,-.1,0,792)" d="M3750 2694.5 3475 2218.1 3750 1741.8 4025 2218.1Z" fill="#ffffff"/>
<path transform="matrix(.1,0,0,-.1,0,792)" stroke-width="30" stroke-linecap="butt" stroke-miterlimit="10" stroke-linejoin="miter" fill="none" stroke="#000000" d="M3750 2694.5 3475 2218.1 3750 1741.8 4025 2218.1Z"/>
<path transform="matrix(.1,0,0,-.1,0,792)" d="M4025 6028.7H4575L4300 6505H3750Z" fill="#ffffff"/>
<path transform="matrix(.1,0,0,-.1,0,792)" stroke-width="30" stroke-linecap="butt" stroke-miterlimit="10" stroke-linejoin="miter" fill="none" stroke="#000000" d="M4025 6028.7H4575L4300 6505H3750Z"/>
<path transform="matrix(.1,0,0,-.1,0,792)" d="M3475 6028.7 3750 6505 4025 6981.3 3750 7457.6 3475 7933.9H2925 2375L2100 7457.6 1825 6981.3 2100 6505 2375 6028.7H2925" fill="#823d24"/>
<path transform="matrix(.1,0,0,-.1,0,792)" stroke-width="30" stroke-linecap="butt" stroke-miterlimit="10" stroke-linejoin="miter" fill="none" stroke="#000000" d="M3475 6028.7 3750 6505 4025 6981.3 3750 7457.6 3475 7933.9H2925 2375L2100 7457.6 1825 6981.3 2100 6505 2375 6028.7H2925Z"/>
<path transform="matrix(.1,0,0,-.1,0,792)" d="M1825 6028.7 2100 6505H1550L1275 6028.7Z" fill="#ffffff"/>
<path transform="matrix(.1,0,0,-.1,0,792)" stroke-width="30" stroke-linecap="butt" stroke-miterlimit="10" stroke-linejoin="miter" fill="none" stroke="#000000" d="M1825 6028.7 2100 6505H1550L1275 6028.7Z"/>
<path transform="matrix(.1,0,0,-.1,0,792)" d="M4300 2694.5 4575 2218.1 4850 1741.8H5950L6225 2218.1 6500 2694.5 6225 3170.8 5950 3647.1H5400 4850L4575 3170.8" fill="#823d24"/>
<path transform="matrix(.1,0,0,-.1,0,792)" stroke-width="30" stroke-linecap="butt" stroke-miterlimit="10" stroke-linejoin="miter" fill="none" stroke="#000000" d="M4300 2694.5 4575 2218.1 4850 1741.8H5950L6225 2218.1 6500 2694.5 6225 3170.8 5950 3647.1H5400 4850L4575 3170.8Z"/>
<path transform="matrix(.1,0,0,-.1,0,792)" d="M4300 3647.1 4575 3170.8 4850 3647.1 4575 4123.4Z" fill="#ffffff"/>
<path transform="matrix(.1,0,0,-.1,0,792)" stroke-width="30" stroke-linecap="butt" stroke-miterlimit="10" stroke-linejoin="miter" fill="none" stroke="#000000" d="M4300 3647.1 4575 3170.8 4850 3647.1 4575 4123.4Z"/>
<path transform="matrix(.1,0,0,-.1,0,792)" d="M4300 4599.7 4575 4123.4 4850 4599.7 4575 5076Z" fill="#ffffff"/>
<path transform="matrix(.1,0,0,-.1,0,792)" stroke-width="30" stroke-linecap="butt" stroke-miterlimit="10" stroke-linejoin="miter" fill="none" stroke="#000000" d="M4300 4599.7 4575 4123.4 4850 4599.7 4575 5076Z"/>
<path transform="matrix(.1,0,0,-.1,0,792)" d="M4300 5552.3 4575 5076 4850 4599.7H5950L6225 5076 6500 5552.3 6225 6028.7 5950 6505H5400 4850L4575 6028.7" fill="#823d24"/>
<path transform="matrix(.1,0,0,-.1,0,792)" stroke-width="30" stroke-linecap="butt" stroke-miterlimit="10" stroke-linejoin="miter" fill="none" stroke="#000000" d="M4300 5552.3 4575 5076 4850 4599.7H5950L6225 5076 6500 5552.3 6225 6028.7 5950 6505H5400 4850L4575 6028.7Z"/>
<path transform="matrix(.1,0,0,-.1,0,792)" d="M1550 5552.3 1275 6028.7 1000 6505H-100L-375 6028.7-650 5552.3-375 5076-100 4599.7H450 1000L1275 5076" fill="#823d24"/>
<path transform="matrix(.1,0,0,-.1,0,792)" stroke-width="30" stroke-linecap="butt" stroke-miterlimit="10" stroke-linejoin="miter" fill="none" stroke="#000000" d="M1550 5552.3 1275 6028.7 1000 6505H-100L-375 6028.7-650 5552.3-375 5076-100 4599.7H450 1000L1275 5076Z"/>
<path transform="matrix(.1,0,0,-.1,0,792)" d="M1550 4599.7 1275 5076 1000 4599.7 1275 4123.4Z" fill="#ffffff"/>
<path transform="matrix(.1,0,0,-.1,0,792)" stroke-width="30" stroke-linecap="butt" stroke-miterlimit="10" stroke-linejoin="miter" fill="none" stroke="#000000" d="M1550 4599.7 1275 5076 1000 4599.7 1275 4123.4Z"/>
<path transform="matrix(.1,0,0,-.1,0,792)" d="M1550 3647.1 1275 4123.4 1000 3647.1 1275 3170.8Z" fill="#ffffff"/>
<path transform="matrix(.1,0,0,-.1,0,792)" stroke-width="30" stroke-linecap="butt" stroke-miterlimit="10" stroke-linejoin="miter" fill="none" stroke="#000000" d="M1550 3647.1 1275 4123.4 1000 3647.1 1275 3170.8Z"/>
<path transform="matrix(.1,0,0,-.1,0,792)" d="M1550 2694.5 1275 3170.8 1000 3647.1H-100L-375 3170.8-650 2694.5-375 2218.1-100 1741.8H450 1000L1275 2218.1" fill="#823d24"/>
<path transform="matrix(.1,0,0,-.1,0,792)" stroke-width="30" stroke-linecap="butt" stroke-miterlimit="10" stroke-linejoin="miter" fill="none" stroke="#000000" d="M1550 2694.5 1275 3170.8 1000 3647.1H-100L-375 3170.8-650 2694.5-375 2218.1-100 1741.8H450 1000L1275 2218.1Z"/>
<path transform="matrix(.1,0,0,-.1,0,792)" d="M1825 2218.1H1275L1550 1741.8H2100Z" fill="#ffffff"/>
<path transform="matrix(.1,0,0,-.1,0,792)" stroke-width="30" stroke-linecap="butt" stroke-miterlimit="10" stroke-linejoin="miter" fill="none" stroke="#000000" d="M1825 2218.1H1275L1550 1741.8H2100Z"/>
<path transform="matrix(.1,0,0,-.1,0,792)" d="M2375 2218.1 2100 1741.8 1825 1265.5 2100 789.199 2375 312.898H2925 3475L3750 789.199 4025 1265.5 3750 1741.8 3475 2218.1H2925" fill="#823d24"/>
<path transform="matrix(.1,0,0,-.1,0,792)" stroke-width="30" stroke-linecap="butt" stroke-miterlimit="10" stroke-linejoin="miter" fill="none" stroke="#000000" d="M2375 2218.1 2100 1741.8 1825 1265.5 2100 789.199 2375 312.898H2925 3475L3750 789.199 4025 1265.5 3750 1741.8 3475 2218.1H2925Z"/>
<path transform="matrix(.1,0,0,-.1,0,792)" d="M4025 2218.1 3750 1741.8H4300L4575 2218.1Z" fill="#ffffff"/>
<path transform="matrix(.1,0,0,-.1,0,792)" stroke-width="30" stroke-linecap="butt" stroke-miterlimit="10" stroke-linejoin="miter" fill="none" stroke="#000000" d="M4025 2218.1 3750 1741.8H4300L4575 2218.1Z"/>
<path transform="matrix(.1,0,0,-.1,0,792)" d="M4575 2218.1 4300 1741.8 4575 1265.5 4850 1741.8Z" fill="#ffffff"/>
<path transform="matrix(.1,0,0,-.1,0,792)" stroke-width="30" stroke-linecap="butt" stroke-miterlimit="10" stroke-linejoin="miter" fill="none" stroke="#000000" d="M4575 2218.1 4300 1741.8 4575 1265.5 4850 1741.8Z"/>
<path transform="matrix(.1,0,0,-.1,0,792)" d="M4575 4123.4H5125L5400 4599.7H4850Z" fill="#ffffff"/>
<path transform="matrix(.1,0,0,-.1,0,792)" stroke-width="30" stroke-linecap="butt" stroke-miterlimit="10" stroke-linejoin="miter" fill="none" stroke="#000000" d="M4575 4123.4H5125L5400 4599.7H4850Z"/>
<path transform="matrix(.1,0,0,-.1,0,792)" d="M4575 4123.4 4850 3647.1H5400L5125 4123.4Z" fill="#ffffff"/>
<path transform="matrix(.1,0,0,-.1,0,792)" stroke-width="30" stroke-linecap="butt" stroke-miterlimit="10" stroke-linejoin="miter" fill="none" stroke="#000000" d="M4575 4123.4 4850 3647.1H5400L5125 4123.4Z"/>
<path transform="matrix(.1,0,0,-.1,0,792)" d="M4575 6028.7 4850 6505 4575 6981.3 4300 6505Z" fill="#ffffff"/>
<path transform="matrix(.1,0,0,-.1,0,792)" stroke-width="30" stroke-linecap="butt" stroke-miterlimit="10" stroke-linejoin="miter" fill="none" stroke="#000000" d="M4575 6028.7 4850 6505 4575 6981.3 4300 6505Z"/>
<path transform="matrix(.1,0,0,-.1,0,792)" d="M4300 6505 4575 6981.3H4025L3750 6505Z" fill="#ffffff"/>
<path transform="matrix(.1,0,0,-.1,0,792)" stroke-width="30" stroke-linecap="butt" stroke-miterlimit="10" stroke-linejoin="miter" fill="none" stroke="#000000" d="M4300 6505 4575 6981.3H4025L3750 6505Z"/>
<path transform="matrix(.1,0,0,-.1,0,792)" d="M2100 6505 1825 6981.3H1275L1550 6505Z" fill="#ffffff"/>
<path transform="matrix(.1,0,0,-.1,0,792)" stroke-width="30" stroke-linecap="butt" stroke-miterlimit="10" stroke-linejoin="miter" fill="none" stroke="#000000" d="M2100 6505 1825 6981.3H1275L1550 6505Z"/>
<path transform="matrix(.1,0,0,-.1,0,792)" d="M1550 6505 1275 6981.3 1000 6505 1275 6028.7Z" fill="#ffffff"/>
<path transform="matrix(.1,0,0,-.1,0,792)" stroke-width="30" stroke-linecap="butt" stroke-miterlimit="10" stroke-linejoin="miter" fill="none" stroke="#000000" d="M1550 6505 1275 6981.3 1000 6505 1275 6028.7Z"/>
<path transform="matrix(.1,0,0,-.1,0,792)" d="M1275 4123.4H725L450 3647.1H1000Z" fill="#ffffff"/>
<path transform="matrix(.1,0,0,-.1,0,792)" stroke-width="30" stroke-linecap="butt" stroke-miterlimit="10" stroke-linejoin="miter" fill="none" stroke="#000000" d="M1275 4123.4H725L450 3647.1H1000Z"/>
<path transform="matrix(.1,0,0,-.1,0,792)" d="M1275 4123.4 1000 4599.7H450L725 4123.4Z" fill="#ffffff"/>
<path transform="matrix(.1,0,0,-.1,0,792)" stroke-width="30" stroke-linecap="butt" stroke-miterlimit="10" stroke-linejoin="miter" fill="none" stroke="#000000" d="M1275 4123.4 1000 4599.7H450L725 4123.4Z"/>
<path transform="matrix(.1,0,0,-.1,0,792)" d="M1275 2218.1 1000 1741.8 1275 1265.5 1550 1741.8Z" fill="#ffffff"/>
<path transform="matrix(.1,0,0,-.1,0,792)" stroke-width="30" stroke-linecap="butt" stroke-miterlimit="10" stroke-linejoin="miter" fill="none" stroke="#000000" d="M1275 2218.1 1000 1741.8 1275 1265.5 1550 1741.8Z"/>
<path transform="matrix(.1,0,0,-.1,0,792)" d="M1550 1741.8 1275 1265.5H1825L2100 1741.8Z" fill="#ffffff"/>
<path transform="matrix(.1,0,0,-.1,0,792)" stroke-width="30" stroke-linecap="butt" stroke-miterlimit="10" stroke-linejoin="miter" fill="none" stroke="#000000" d="M1550 1741.8 1275 1265.5H1825L2100 1741.8Z"/>
<path transform="matrix(.1,0,0,-.1,0,792)" d="M3750 1741.8 4025 1265.5H4575L4300 1741.8Z" fill="#ffffff"/>
<path transform="matrix(.1,0,0,-.1,0,792)" stroke-width="30" stroke-linecap="butt" stroke-miterlimit="10" stroke-linejoin="miter" fill="none" stroke="#000000" d="M3750 1741.8 4025 1265.5H4575L4300 1741.8Z"/>
<path transform="matrix(.1,0,0,-.1,0,792)" d="M4850 1741.8 4575 1265.5H5125L5400 1741.8Z" fill="#ffffff"/>
<path transform="matrix(.1,0,0,-.1,0,792)" stroke-width="30" stroke-linecap="butt" stroke-miterlimit="10" stroke-linejoin="miter" fill="none" stroke="#000000" d="M4850 1741.8 4575 1265.5H5125L5400 1741.8Z"/>
<path transform="matrix(.1,0,0,-.1,0,792)" d="M4850 6505H5400L5125 6981.3H4575Z" fill="#ffffff"/>
<path transform="matrix(.1,0,0,-.1,0,792)" stroke-width="30" stroke-linecap="butt" stroke-miterlimit="10" stroke-linejoin="miter" fill="none" stroke="#000000" d="M4850 6505H5400L5125 6981.3H4575Z"/>
<path transform="matrix(.1,0,0,-.1,0,792)" d="M1000 6505 1275 6981.3H725L450 6505Z" fill="#ffffff"/>
<path transform="matrix(.1,0,0,-.1,0,792)" stroke-width="30" stroke-linecap="butt" stroke-miterlimit="10" stroke-linejoin="miter" fill="none" stroke="#000000" d="M1000 6505 1275 6981.3H725L450 6505Z"/>
<path transform="matrix(.1,0,0,-.1,0,792)" d="M1000 1741.8H450L725 1265.5H1275Z" fill="#ffffff"/>
<path transform="matrix(.1,0,0,-.1,0,792)" stroke-width="30" stroke-linecap="butt" stroke-miterlimit="10" stroke-linejoin="miter" fill="none" stroke="#000000" d="M1000 1741.8H450L725 1265.5H1275Z"/>
<path transform="matrix(.1,0,0,-.1,0,792)" d="M4575 6981.3 4300 7457.6H3750L4025 6981.3Z" fill="#ffffff"/>
<path transform="matrix(.1,0,0,-.1,0,792)" stroke-width="30" stroke-linecap="butt" stroke-miterlimit="10" stroke-linejoin="miter" fill="none" stroke="#000000" d="M4575 6981.3 4300 7457.6H3750L4025 6981.3Z"/>
<path transform="matrix(.1,0,0,-.1,0,792)" d="M4575 6981.3 4850 7457.6 4575 7933.9 4300 7457.6Z" fill="#ffffff"/>
<path transform="matrix(.1,0,0,-.1,0,792)" stroke-width="30" stroke-linecap="butt" stroke-miterlimit="10" stroke-linejoin="miter" fill="none" stroke="#000000" d="M4575 6981.3 4850 7457.6 4575 7933.9 4300 7457.6Z"/>
<path transform="matrix(.1,0,0,-.1,0,792)" d="M4575 6981.3H5125L5400 7457.6H4850Z" fill="#ffffff"/>
<path transform="matrix(.1,0,0,-.1,0,792)" stroke-width="30" stroke-linecap="butt" stroke-miterlimit="10" stroke-linejoin="miter" fill="none" stroke="#000000" d="M4575 6981.3H5125L5400 7457.6H4850Z"/>
<path transform="matrix(.1,0,0,-.1,0,792)" d="M1825 6981.3 2100 7457.6H1550L1275 6981.3Z" fill="#ffffff"/>
<path transform="matrix(.1,0,0,-.1,0,792)" stroke-width="30" stroke-linecap="butt" stroke-miterlimit="10" stroke-linejoin="miter" fill="none" stroke="#000000" d="M1825 6981.3 2100 7457.6H1550L1275 6981.3Z"/>
<path transform="matrix(.1,0,0,-.1,0,792)" d="M1275 6981.3 1000 7457.6H450L725 6981.3Z" fill="#ffffff"/>
<path transform="matrix(.1,0,0,-.1,0,792)" stroke-width="30" stroke-linecap="butt" stroke-miterlimit="10" stroke-linejoin="miter" fill="none" stroke="#000000" d="M1275 6981.3 1000 7457.6H450L725 6981.3Z"/>
<path transform="matrix(.1,0,0,-.1,0,792)" d="M1275 6981.3 1550 7457.6 1275 7933.9 1000 7457.6Z" fill="#ffffff"/>
<path transform="matrix(.1,0,0,-.1,0,792)" stroke-width="30" stroke-linecap="butt" stroke-miterlimit="10" stroke-linejoin="miter" fill="none" stroke="#000000" d="M1275 6981.3 1550 7457.6 1275 7933.9 1000 7457.6Z"/>
<path transform="matrix(.1,0,0,-.1,0,792)" d="M1275 1265.5 1550 789.199H2100L1825 1265.5Z" fill="#ffffff"/>
<path transform="matrix(.1,0,0,-.1,0,792)" stroke-width="30" stroke-linecap="butt" stroke-miterlimit="10" stroke-linejoin="miter" fill="none" stroke="#000000" d="M1275 1265.5 1550 789.199H2100L1825 1265.5Z"/>
<path transform="matrix(.1,0,0,-.1,0,792)" d="M1275 1265.5 1000 789.199 1275 312.898 1550 789.199Z" fill="#ffffff"/>
<path transform="matrix(.1,0,0,-.1,0,792)" stroke-width="30" stroke-linecap="butt" stroke-miterlimit="10" stroke-linejoin="miter" fill="none" stroke="#000000" d="M1275 1265.5 1000 789.199 1275 312.898 1550 789.199Z"/>
<path transform="matrix(.1,0,0,-.1,0,792)" d="M1275 1265.5H725L450 789.199H1000Z" fill="#ffffff"/>
<path transform="matrix(.1,0,0,-.1,0,792)" stroke-width="30" stroke-linecap="butt" stroke-miterlimit="10" stroke-linejoin="miter" fill="none" stroke="#000000" d="M1275 1265.5H725L450 789.199H1000Z"/>
<path transform="matrix(.1,0,0,-.1,0,792)" d="M4025 1265.5 3750 789.199H4300L4575 1265.5Z" fill="#ffffff"/>
<path transform="matrix(.1,0,0,-.1,0,792)" stroke-width="30" stroke-linecap="butt" stroke-miterlimit="10" stroke-linejoin="miter" fill="none" stroke="#000000" d="M4025 1265.5 3750 789.199H4300L4575 1265.5Z"/>
<path transform="matrix(.1,0,0,-.1,0,792)" d="M4575 1265.5 4850 789.199H5400L5125 1265.5Z" fill="#ffffff"/>
<path transform="matrix(.1,0,0,-.1,0,792)" stroke-width="30" stroke-linecap="butt" stroke-miterlimit="10" stroke-linejoin="miter" fill="none" stroke="#000000" d="M4575 1265.5 4850 789.199H5400L5125 1265.5Z"/>
<path transform="matrix(.1,0,0,-.1,0,792)" d="M4575 1265.5 4300 789.199 4575 312.898 4850 789.199Z" fill="#ffffff"/>
<path transform="matrix(.1,0,0,-.1,0,792)" stroke-width="30" stroke-linecap="butt" stroke-miterlimit="10" stroke-linejoin="miter" fill="none" stroke="#000000" d="M4575 1265.5 4300 789.199 4575 312.898 4850 789.199Z"/>
<path transform="matrix(.1,0,0,-.1,0,792)" d="M5125 1265.5 5400 789.199 5675 1265.5 5400 1741.8Z" fill="#ffffff"/>
<path transform="matrix(.1,0,0,-.1,0,792)" stroke-width="30" stroke-linecap="butt" stroke-miterlimit="10" stroke-linejoin="miter" fill="none" stroke="#000000" d="M5125 1265.5 5400 789.199 5675 1265.5 5400 1741.8Z"/>
<path transform="matrix(.1,0,0,-.1,0,792)" d="M5125 4123.4 5400 3647.1 5675 4123.4 5400 4599.7Z" fill="#ffffff"/>
<path transform="matrix(.1,0,0,-.1,0,792)" stroke-width="30" stroke-linecap="butt" stroke-miterlimit="10" stroke-linejoin="miter" fill="none" stroke="#000000" d="M5125 4123.4 5400 3647.1 5675 4123.4 5400 4599.7Z"/>
<path transform="matrix(.1,0,0,-.1,0,792)" d="M5125 6981.3 5400 6505 5675 6981.3 5400 7457.6Z" fill="#ffffff"/>
<path transform="matrix(.1,0,0,-.1,0,792)" stroke-width="30" stroke-linecap="butt" stroke-miterlimit="10" stroke-linejoin="miter" fill="none" stroke="#000000" d="M5125 6981.3 5400 6505 5675 6981.3 5400 7457.6Z"/>
<path transform="matrix(.1,0,0,-.1,0,792)" d="M725 6981.3 450 7457.6 175 6981.3 450 6505Z" fill="#ffffff"/>
<path transform="matrix(.1,0,0,-.1,0,792)" stroke-width="30" stroke-linecap="butt" stroke-miterlimit="10" stroke-linejoin="miter" fill="none" stroke="#000000" d="M725 6981.3 450 7457.6 175 6981.3 450 6505Z"/>
<path transform="matrix(.1,0,0,-.1,0,792)" d="M725 4123.4 450 4599.7 175 4123.4 450 3647.1Z" fill="#ffffff"/>
<path transform="matrix(.1,0,0,-.1,0,792)" stroke-width="30" stroke-linecap="butt" stroke-miterlimit="10" stroke-linejoin="miter" fill="none" stroke="#000000" d="M725 4123.4 450 4599.7 175 4123.4 450 3647.1Z"/>
<path transform="matrix(.1,0,0,-.1,0,792)" d="M725 1265.5 450 1741.8 175 1265.5 450 789.199Z" fill="#ffffff"/>
<path transform="matrix(.1,0,0,-.1,0,792)" stroke-width="30" stroke-linecap="butt" stroke-miterlimit="10" stroke-linejoin="miter" fill="none" stroke="#000000" d="M725 1265.5 450 1741.8 175 1265.5 450 789.199Z"/>
<path transform="matrix(.1,0,0,-.1,0,792)" d="M4850 7457.6H5950L6225 7933.9 6500 8410.2 6225 8886.5 5950 9362.9H5400 4850L4575 8886.5 4300 8410.2 4575 7933.9" fill="#823d24"/>
<path transform="matrix(.1,0,0,-.1,0,792)" stroke-width="30" stroke-linecap="butt" stroke-miterlimit="10" stroke-linejoin="miter" fill="none" stroke="#000000" d="M4850 7457.6H5950L6225 7933.9 6500 8410.2 6225 8886.5 5950 9362.9H5400 4850L4575 8886.5 4300 8410.2 4575 7933.9Z"/>
<path transform="matrix(.1,0,0,-.1,0,792)" d="M4300 7457.6 4575 7933.9H4025L3750 7457.6Z" fill="#ffffff"/>
<path transform="matrix(.1,0,0,-.1,0,792)" stroke-width="30" stroke-linecap="butt" stroke-miterlimit="10" stroke-linejoin="miter" fill="none" stroke="#000000" d="M4300 7457.6 4575 7933.9H4025L3750 7457.6Z"/>
<path transform="matrix(.1,0,0,-.1,0,792)" d="M3750 7457.6 4025 7933.9 3750 8410.2 3475 7933.9Z" fill="#ffffff"/>
<path transform="matrix(.1,0,0,-.1,0,792)" stroke-width="30" stroke-linecap="butt" stroke-miterlimit="10" stroke-linejoin="miter" fill="none" stroke="#000000" d="M3750 7457.6 4025 7933.9 3750 8410.2 3475 7933.9Z"/>
<path transform="matrix(.1,0,0,-.1,0,792)" d="M2100 7457.6 1825 7933.9H1275L1550 7457.6Z" fill="#ffffff"/>
<path transform="matrix(.1,0,0,-.1,0,792)" stroke-width="30" stroke-linecap="butt" stroke-miterlimit="10" stroke-linejoin="miter" fill="none" stroke="#000000" d="M2100 7457.6 1825 7933.9H1275L1550 7457.6Z"/>
<path transform="matrix(.1,0,0,-.1,0,792)" d="M2100 7457.6 2375 7933.9 2100 8410.2 1825 7933.9Z" fill="#ffffff"/>
<path transform="matrix(.1,0,0,-.1,0,792)" stroke-width="30" stroke-linecap="butt" stroke-miterlimit="10" stroke-linejoin="miter" fill="none" stroke="#000000" d="M2100 7457.6 2375 7933.9 2100 8410.2 1825 7933.9Z"/>
<path transform="matrix(.1,0,0,-.1,0,792)" d="M1000 7457.6 1275 7933.9 1550 8410.2 1275 8886.5 1000 9362.9H450-100L-375 8886.5-650 8410.2-375 7933.9-100 7457.6H450" fill="#823d24"/>
<path transform="matrix(.1,0,0,-.1,0,792)" stroke-width="30" stroke-linecap="butt" stroke-miterlimit="10" stroke-linejoin="miter" fill="none" stroke="#000000" d="M1000 7457.6 1275 7933.9 1550 8410.2 1275 8886.5 1000 9362.9H450-100L-375 8886.5-650 8410.2-375 7933.9-100 7457.6H450Z"/>
<path transform="matrix(.1,0,0,-.1,0,792)" d="M5400 1741.8 5675 1265.5H6225L5950 1741.8Z" fill="#ffffff"/>
<path transform="matrix(.1,0,0,-.1,0,792)" stroke-width="30" stroke-linecap="butt" stroke-miterlimit="10" stroke-linejoin="miter" fill="none" stroke="#000000" d="M5400 1741.8 5675 1265.5H6225L5950 1741.8Z"/>
<path transform="matrix(.1,0,0,-.1,0,792)" d="M5400 3647.1H5950L6225 4123.4H5675Z" fill="#ffffff"/>
<path transform="matrix(.1,0,0,-.1,0,792)" stroke-width="30" stroke-linecap="butt" stroke-miterlimit="10" stroke-linejoin="miter" fill="none" stroke="#000000" d="M5400 3647.1H5950L6225 4123.4H5675Z"/>
<path transform="matrix(.1,0,0,-.1,0,792)" d="M5400 4599.7 5675 4123.4H6225L5950 4599.7Z" fill="#ffffff"/>
<path transform="matrix(.1,0,0,-.1,0,792)" stroke-width="30" stroke-linecap="butt" stroke-miterlimit="10" stroke-linejoin="miter" fill="none" stroke="#000000" d="M5400 4599.7 5675 4123.4H6225L5950 4599.7Z"/>
<path transform="matrix(.1,0,0,-.1,0,792)" d="M5400 6505H5950L6225 6981.3H5675Z" fill="#ffffff"/>
<path transform="matrix(.1,0,0,-.1,0,792)" stroke-width="30" stroke-linecap="butt" stroke-miterlimit="10" stroke-linejoin="miter" fill="none" stroke="#000000" d="M5400 6505H5950L6225 6981.3H5675Z"/>
<path transform="matrix(.1,0,0,-.1,0,792)" d="M5400 7457.6 5675 6981.3H6225L5950 7457.6Z" fill="#ffffff"/>
<path transform="matrix(.1,0,0,-.1,0,792)" stroke-width="30" stroke-linecap="butt" stroke-miterlimit="10" stroke-linejoin="miter" fill="none" stroke="#000000" d="M5400 7457.6 5675 6981.3H6225L5950 7457.6Z"/>
<path transform="matrix(.1,0,0,-.1,0,792)" d="M1000 789.199H-100L-375 312.898-650-163.398-375-639.699-100-1116.1H450 1000L1275-639.699 1550-163.398 1275 312.898" fill="#823d24"/>
<path transform="matrix(.1,0,0,-.1,0,792)" stroke-width="30" stroke-linecap="butt" stroke-miterlimit="10" stroke-linejoin="miter" fill="none" stroke="#000000" d="M1000 789.199H-100L-375 312.898-650-163.398-375-639.699-100-1116.1H450 1000L1275-639.699 1550-163.398 1275 312.898Z"/>
<path transform="matrix(.1,0,0,-.1,0,792)" d="M1550 789.199 1275 312.898H1825L2100 789.199Z" fill="#ffffff"/>
<path transform="matrix(.1,0,0,-.1,0,792)" stroke-width="30" stroke-linecap="butt" stroke-miterlimit="10" stroke-linejoin="miter" fill="none" stroke="#000000" d="M1550 789.199 1275 312.898H1825L2100 789.199Z"/>
<path transform="matrix(.1,0,0,-.1,0,792)" d="M2100 789.199 1825 312.898 2100-163.398 2375 312.898Z" fill="#ffffff"/>
<path transform="matrix(.1,0,0,-.1,0,792)" stroke-width="30" stroke-linecap="butt" stroke-miterlimit="10" stroke-linejoin="miter" fill="none" stroke="#000000" d="M2100 789.199 1825 312.898 2100-163.398 2375 312.898Z"/>
<path transform="matrix(.1,0,0,-.1,0,792)" d="M3750 789.199 4025 312.898H4575L4300 789.199Z" fill="#ffffff"/>
<path transform="matrix(.1,0,0,-.1,0,792)" stroke-width="30" stroke-linecap="butt" stroke-miterlimit="10" stroke-linejoin="miter" fill="none" stroke="#000000" d="M3750 789.199 4025 312.898H4575L4300 789.199Z"/>
<path transform="matrix(.1,0,0,-.1,0,792)" d="M3750 789.199 3475 312.898 3750-163.398 4025 312.898Z" fill="#ffffff"/>
<path transform="matrix(.1,0,0,-.1,0,792)" stroke-width="30" stroke-linecap="butt" stroke-miterlimit="10" stroke-linejoin="miter" fill="none" stroke="#000000" d="M3750 789.199 3475 312.898 3750-163.398 4025 312.898Z"/>
<path transform="matrix(.1,0,0,-.1,0,792)" d="M4850 789.199 4575 312.898 4300-163.398 4575-639.699 4850-1116.1H5400 5950L6225-639.699 6500-163.398 6225 312.898 5950 789.199H5400" fill="#823d24"/>
<path transform="matrix(.1,0,0,-.1,0,792)" stroke-width="30" stroke-linecap="butt" stroke-miterlimit="10" stroke-linejoin="miter" fill="none" stroke="#000000" d="M4850 789.199 4575 312.898 4300-163.398 4575-639.699 4850-1116.1H5400 5950L6225-639.699 6500-163.398 6225 312.898 5950 789.199H5400Z"/>
<path transform="matrix(.1,0,0,-.1,0,792)" d="M5400 789.199H5950L6225 1265.5H5675Z" fill="#ffffff"/>
<path transform="matrix(.1,0,0,-.1,0,792)" stroke-width="30" stroke-linecap="butt" stroke-miterlimit="10" stroke-linejoin="miter" fill="none" stroke="#000000" d="M5400 789.199H5950L6225 1265.5H5675Z"/>
<path transform="matrix(.1,0,0,-.1,0,792)" d="M450 7457.6H-100L-375 6981.3H175Z" fill="#ffffff"/>
<path transform="matrix(.1,0,0,-.1,0,792)" stroke-width="30" stroke-linecap="butt" stroke-miterlimit="10" stroke-linejoin="miter" fill="none" stroke="#000000" d="M450 7457.6H-100L-375 6981.3H175Z"/>
<path transform="matrix(.1,0,0,-.1,0,792)" d="M450 6505 175 6981.3H-375L-100 6505Z" fill="#ffffff"/>
<path transform="matrix(.1,0,0,-.1,0,792)" stroke-width="30" stroke-linecap="butt" stroke-miterlimit="10" stroke-linejoin="miter" fill="none" stroke="#000000" d="M450 6505 175 6981.3H-375L-100 6505Z"/>
<path transform="matrix(.1,0,0,-.1,0,792)" d="M450 4599.7H-100L-375 4123.4H175Z" fill="#ffffff"/>
<path transform="matrix(.1,0,0,-.1,0,792)" stroke-width="30" stroke-linecap="butt" stroke-miterlimit="10" stroke-linejoin="miter" fill="none" stroke="#000000" d="M450 4599.7H-100L-375 4123.4H175Z"/>
<path transform="matrix(.1,0,0,-.1,0,792)" d="M450 3647.1 175 4123.4H-375L-100 3647.1Z" fill="#ffffff"/>
<path transform="matrix(.1,0,0,-.1,0,792)" stroke-width="30" stroke-linecap="butt" stroke-miterlimit="10" stroke-linejoin="miter" fill="none" stroke="#000000" d="M450 3647.1 175 4123.4H-375L-100 3647.1Z"/>
<path transform="matrix(.1,0,0,-.1,0,792)" d="M450 1741.8H-100L-375 1265.5H175Z" fill="#ffffff"/>
<path transform="matrix(.1,0,0,-.1,0,792)" stroke-width="30" stroke-linecap="butt" stroke-miterlimit="10" stroke-linejoin="miter" fill="none" stroke="#000000" d="M450 1741.8H-100L-375 1265.5H175Z"/>
<path transform="matrix(.1,0,0,-.1,0,792)" d="M450 789.199 175 1265.5H-375L-100 789.199Z" fill="#ffffff"/>
<path transform="matrix(.1,0,0,-.1,0,792)" stroke-width="30" stroke-linecap="butt" stroke-miterlimit="10" stroke-linejoin="miter" fill="none" stroke="#000000" d="M450 789.199 175 1265.5H-375L-100 789.199Z"/>
<path transform="matrix(.1,0,0,-.1,0,792)" stroke-width="30" stroke-linecap="butt" stroke-miterlimit="10" stroke-linejoin="miter" fill="none" stroke="#000000" d="M4575 7933.9 4300 8410.2H3750L4025 7933.9Z"/>
<path transform="matrix(.1,0,0,-.1,0,792)" stroke-width="30" stroke-linecap="butt" stroke-miterlimit="10" stroke-linejoin="miter" fill="none" stroke="#000000" d="M3475 7933.9 3750 8410.2H3200L2925 7933.9Z"/>
<path transform="matrix(.1,0,0,-.1,0,792)" stroke-width="30" stroke-linecap="butt" stroke-miterlimit="10" stroke-linejoin="miter" fill="none" stroke="#000000" d="M2925 7933.9 2650 8410.2H2100L2375 7933.9Z"/>
<path transform="matrix(.1,0,0,-.1,0,792)" stroke-width="30" stroke-linecap="butt" stroke-miterlimit="10" stroke-linejoin="miter" fill="none" stroke="#000000" d="M2925 7933.9 3200 8410.2 2925 8886.5 2650 8410.2Z"/>
<path transform="matrix(.1,0,0,-.1,0,792)" stroke-width="30" stroke-linecap="butt" stroke-miterlimit="10" stroke-linejoin="miter" fill="none" stroke="#000000" d="M1825 7933.9 2100 8410.2H1550L1275 7933.9Z"/>
<path transform="matrix(.1,0,0,-.1,0,792)" d="M1275 312.898 1550-163.398H2100L1825 312.898Z" fill="#ffffff"/>
<path transform="matrix(.1,0,0,-.1,0,792)" stroke-width="30" stroke-linecap="butt" stroke-miterlimit="10" stroke-linejoin="miter" fill="none" stroke="#000000" d="M1275 312.898 1550-163.398H2100L1825 312.898Z"/>
<path transform="matrix(.1,0,0,-.1,0,792)" d="M2375 312.898 2100-163.398H2650L2925 312.898Z" fill="#ffffff"/>
<path transform="matrix(.1,0,0,-.1,0,792)" stroke-width="30" stroke-linecap="butt" stroke-miterlimit="10" stroke-linejoin="miter" fill="none" stroke="#000000" d="M2375 312.898 2100-163.398H2650L2925 312.898Z"/>
<path transform="matrix(.1,0,0,-.1,0,792)" d="M2925 312.898 3200-163.398H3750L3475 312.898Z" fill="#ffffff"/>
<path transform="matrix(.1,0,0,-.1,0,792)" stroke-width="30" stroke-linecap="butt" stroke-miterlimit="10" stroke-linejoin="miter" fill="none" stroke="#000000" d="M2925 312.898 3200-163.398H3750L3475 312.898Z"/>
<path transform="matrix(.1,0,0,-.1,0,792)" d="M2925 312.898 2650-163.398 2925-639.699 3200-163.398Z" fill="#ffffff"/>
<path transform="matrix(.1,0,0,-.1,0,792)" stroke-width="30" stroke-linecap="butt" stroke-miterlimit="10" stroke-linejoin="miter" fill="none" stroke="#000000" d="M2925 312.898 2650-163.398 2925-639.699 3200-163.398Z"/>
<path transform="matrix(.1,0,0,-.1,0,792)" d="M4025 312.898 3750-163.398H4300L4575 312.898Z" fill="#ffffff"/>
<path transform="matrix(.1,0,0,-.1,0,792)" stroke-width="30" stroke-linecap="butt" stroke-miterlimit="10" stroke-linejoin="miter" fill="none" stroke="#000000" d="M4025 312.898 3750-163.398H4300L4575 312.898Z"/>
<path transform="matrix(.1,0,0,-.1,0,792)" d="M5950 789.199 6225 312.898 6500 789.199 6225 1265.5Z" fill="#ffffff"/>
<path transform="matrix(.1,0,0,-.1,0,792)" stroke-width="30" stroke-linecap="butt" stroke-miterlimit="10" stroke-linejoin="miter" fill="none" stroke="#000000" d="M5950 789.199 6225 312.898 6500 789.199 6225 1265.5Z"/>
<path transform="matrix(.1,0,0,-.1,0,792)" d="M5950 1741.8 6225 1265.5 6500 1741.8 6225 2218.1Z" fill="#ffffff"/>
<path transform="matrix(.1,0,0,-.1,0,792)" stroke-width="30" stroke-linecap="butt" stroke-miterlimit="10" stroke-linejoin="miter" fill="none" stroke="#000000" d="M5950 1741.8 6225 1265.5 6500 1741.8 6225 2218.1Z"/>
<path transform="matrix(.1,0,0,-.1,0,792)" d="M5950 3647.1 6225 3170.8 6500 3647.1 6225 4123.4Z" fill="#ffffff"/>
<path transform="matrix(.1,0,0,-.1,0,792)" stroke-width="30" stroke-linecap="butt" stroke-miterlimit="10" stroke-linejoin="miter" fill="none" stroke="#000000" d="M5950 3647.1 6225 3170.8 6500 3647.1 6225 4123.4Z"/>
<path transform="matrix(.1,0,0,-.1,0,792)" d="M5950 4599.7 6225 4123.4 6500 4599.7 6225 5076Z" fill="#ffffff"/>
<path transform="matrix(.1,0,0,-.1,0,792)" stroke-width="30" stroke-linecap="butt" stroke-miterlimit="10" stroke-linejoin="miter" fill="none" stroke="#000000" d="M5950 4599.7 6225 4123.4 6500 4599.7 6225 5076Z"/>
<path transform="matrix(.1,0,0,-.1,0,792)" d="M5950 6505 6225 6028.7 6500 6505 6225 6981.3Z" fill="#ffffff"/>
<path transform="matrix(.1,0,0,-.1,0,792)" stroke-width="30" stroke-linecap="butt" stroke-miterlimit="10" stroke-linejoin="miter" fill="none" stroke="#000000" d="M5950 6505 6225 6028.7 6500 6505 6225 6981.3Z"/>
<path transform="matrix(.1,0,0,-.1,0,792)" d="M5950 7457.6 6225 6981.3 6500 7457.6 6225 7933.9Z" fill="#ffffff"/>
<path transform="matrix(.1,0,0,-.1,0,792)" stroke-width="30" stroke-linecap="butt" stroke-miterlimit="10" stroke-linejoin="miter" fill="none" stroke="#000000" d="M5950 7457.6 6225 6981.3 6500 7457.6 6225 7933.9Z"/>
</svg>
