<svg xmlns="http://www.w3.org/2000/svg" xmlns:xlink="http://www.w3.org/1999/xlink" xmlns:inkscape="http://www.inkscape.org/namespaces/inkscape" version="1.1" width="612" height="792" viewBox="0 0 612 792">
<path transform="matrix(.1,0,0,-.1,0,792)" d="M2697.8 3703.2 3252.2 3932.8 2697.8 4487.2" fill="#788fbd"/>
<path transform="matrix(.1,0,0,-.1,0,792)" stroke-width="20" stroke-linecap="butt" stroke-miterlimit="10" stroke-linejoin="miter" fill="none" stroke="#000000" d="M2697.8 3703.2 3252.2 3932.8 2697.8 4487.2Z"/>
<path transform="matrix(.1,0,0,-.1,0,792)" d="M3252.2 3932.8 3481.8 4487.2H2697.8" fill="#b0c4d9"/>
<path transform="matrix(.1,0,0,-.1,0,792)" stroke-width="20" stroke-linecap="butt" stroke-miterlimit="10" stroke-linejoin="miter" fill="none" stroke="#000000" d="M3252.2 3932.8 3481.8 4487.2H2697.8Z"/>
<path transform="matrix(.1,0,0,-.1,0,792)" d="M3252.2 3932.8 3711.4 3473.6 4265.7 3703.2V4487.2H3481.8" fill="#c28c24"/>
<path transform="matrix(.1,0,0,-.1,0,792)" stroke-width="20" stroke-linecap="butt" stroke-miterlimit="10" stroke-linejoin="miter" fill="none" stroke="#000000" d="M3252.2 3932.8 3711.4 3473.6 4265.7 3703.2V4487.2H3481.8Z"/>
<path transform="matrix(.1,0,0,-.1,0,792)" d="M3252.2 3932.8 2697.8 3703.2V2919.3H3481.8L3711.4 3473.6" fill="#c28c24"/>
<path transform="matrix(.1,0,0,-.1,0,792)" stroke-width="20" stroke-linecap="butt" stroke-miterlimit="10" stroke-linejoin="miter" fill="none" stroke="#000000" d="M3252.2 3932.8 2697.8 3703.2V2919.3H3481.8L3711.4 3473.6Z"/>
<path transform="matrix(.1,0,0,-.1,0,792)" d="M2697.8 4487.2 2143.5 3932.8 2697.8 3703.2" fill="#b0c4d9"/>
<path transform="matrix(.1,0,0,-.1,0,792)" stroke-width="20" stroke-linecap="butt" stroke-miterlimit="10" stroke-linejoin="miter" fill="none" stroke="#000000" d="M2697.8 4487.2 2143.5 3932.8 2697.8 3703.2Z"/>
<path transform="matrix(.1,0,0,-.1,0,792)" d="M2697.8 4487.2H1913.9L2143.5 3932.8" fill="#788fbd"/>
<path transform="matrix(.1,0,0,-.1,0,792)" stroke-width="20" stroke-linecap="butt" stroke-miterlimit="10" stroke-linejoin="miter" fill="none" stroke="#000000" d="M2697.8 4487.2H1913.9L2143.5 3932.8Z"/>
<path transform="matrix(.1,0,0,-.1,0,792)" d="M2697.8 4487.2 2143.5 5041.5 1913.9 4487.2" fill="#b0c4d9"/>
<path transform="matrix(.1,0,0,-.1,0,792)" stroke-width="20" stroke-linecap="butt" stroke-miterlimit="10" stroke-linejoin="miter" fill="none" stroke="#000000" d="M2697.8 4487.2 2143.5 5041.5 1913.9 4487.2Z"/>
<path transform="matrix(.1,0,0,-.1,0,792)" d="M2697.8 4487.2V5271.1L2143.5 5041.5" fill="#788fbd"/>
<path transform="matrix(.1,0,0,-.1,0,792)" stroke-width="20" stroke-linecap="butt" stroke-miterlimit="10" stroke-linejoin="miter" fill="none" stroke="#000000" d="M2697.8 4487.2V5271.1L2143.5 5041.5Z"/>
<path transform="matrix(.1,0,0,-.1,0,792)" d="M2697.8 4487.2 3252.2 5041.5 2697.8 5271.1" fill="#b0c4d9"/>
<path transform="matrix(.1,0,0,-.1,0,792)" stroke-width="20" stroke-linecap="butt" stroke-miterlimit="10" stroke-linejoin="miter" fill="none" stroke="#000000" d="M2697.8 4487.2 3252.2 5041.5 2697.8 5271.1Z"/>
<path transform="matrix(.1,0,0,-.1,0,792)" d="M2697.8 4487.2H3481.8L3252.2 5041.5" fill="#788fbd"/>
<path transform="matrix(.1,0,0,-.1,0,792)" stroke-width="20" stroke-linecap="butt" stroke-miterlimit="10" stroke-linejoin="miter" fill="none" stroke="#000000" d="M2697.8 4487.2H3481.8L3252.2 5041.5Z"/>
<path transform="matrix(.1,0,0,-.1,0,792)" d="M2697.8 3703.2 2143.5 3932.8 1684.3 3473.6 1913.9 2919.3H2697.8" fill="#c28c24"/>
<path transform="matrix(.1,0,0,-.1,0,792)" stroke-width="20" stroke-linecap="butt" stroke-miterlimit="10" stroke-linejoin="miter" fill="none" stroke="#000000" d="M2697.8 3703.2 2143.5 3932.8 1684.3 3473.6 1913.9 2919.3H2697.8Z"/>
<path transform="matrix(.1,0,0,-.1,0,792)" d="M3481.8 4487.2H4265.7V5271.1L3711.4 5500.7 3252.2 5041.5" fill="#c28c24"/>
<path transform="matrix(.1,0,0,-.1,0,792)" stroke-width="20" stroke-linecap="butt" stroke-miterlimit="10" stroke-linejoin="miter" fill="none" stroke="#000000" d="M3481.8 4487.2H4265.7V5271.1L3711.4 5500.7 3252.2 5041.5Z"/>
<path transform="matrix(.1,0,0,-.1,0,792)" d="M3252.2 5041.5 3711.4 5500.7 3481.8 6055H2697.8V5271.1" fill="#c28c24"/>
<path transform="matrix(.1,0,0,-.1,0,792)" stroke-width="20" stroke-linecap="butt" stroke-miterlimit="10" stroke-linejoin="miter" fill="none" stroke="#000000" d="M3252.2 5041.5 3711.4 5500.7 3481.8 6055H2697.8V5271.1Z"/>
<path transform="matrix(.1,0,0,-.1,0,792)" d="M3711.4 3473.6 4265.7 2919.3V3703.2" fill="#788fbd"/>
<path transform="matrix(.1,0,0,-.1,0,792)" stroke-width="20" stroke-linecap="butt" stroke-miterlimit="10" stroke-linejoin="miter" fill="none" stroke="#000000" d="M3711.4 3473.6 4265.7 2919.3V3703.2Z"/>
<path transform="matrix(.1,0,0,-.1,0,792)" d="M3711.4 3473.6 3481.8 2919.3H4265.7" fill="#b0c4d9"/>
<path transform="matrix(.1,0,0,-.1,0,792)" stroke-width="20" stroke-linecap="butt" stroke-miterlimit="10" stroke-linejoin="miter" fill="none" stroke="#000000" d="M3711.4 3473.6 3481.8 2919.3H4265.7Z"/>
<path transform="matrix(.1,0,0,-.1,0,792)" d="M2697.8 5271.1V6055H1913.9L1684.3 5500.7 2143.5 5041.5" fill="#c28c24"/>
<path transform="matrix(.1,0,0,-.1,0,792)" stroke-width="20" stroke-linecap="butt" stroke-miterlimit="10" stroke-linejoin="miter" fill="none" stroke="#000000" d="M2697.8 5271.1V6055H1913.9L1684.3 5500.7 2143.5 5041.5Z"/>
<path transform="matrix(.1,0,0,-.1,0,792)" d="M2143.5 5041.5 1684.3 5500.7 1130 5271.1V4487.2H1913.9" fill="#c28c24"/>
<path transform="matrix(.1,0,0,-.1,0,792)" stroke-width="20" stroke-linecap="butt" stroke-miterlimit="10" stroke-linejoin="miter" fill="none" stroke="#000000" d="M2143.5 5041.5 1684.3 5500.7 1130 5271.1V4487.2H1913.9Z"/>
<path transform="matrix(.1,0,0,-.1,0,792)" d="M2143.5 3932.8 1913.9 4487.2H1130V3703.2L1684.3 3473.6" fill="#c28c24"/>
<path transform="matrix(.1,0,0,-.1,0,792)" stroke-width="20" stroke-linecap="butt" stroke-miterlimit="10" stroke-linejoin="miter" fill="none" stroke="#000000" d="M2143.5 3932.8 1913.9 4487.2H1130V3703.2L1684.3 3473.6Z"/>
<path transform="matrix(.1,0,0,-.1,0,792)" d="M2697.8 2919.3V2135.4L3252.2 1905.7 3711.4 2365 3481.8 2919.3" fill="#c28c24"/>
<path transform="matrix(.1,0,0,-.1,0,792)" stroke-width="20" stroke-linecap="butt" stroke-miterlimit="10" stroke-linejoin="miter" fill="none" stroke="#000000" d="M2697.8 2919.3V2135.4L3252.2 1905.7 3711.4 2365 3481.8 2919.3Z"/>
<path transform="matrix(.1,0,0,-.1,0,792)" d="M2697.8 2919.3H1913.9L1684.3 2365 2143.5 1905.7 2697.8 2135.4" fill="#c28c24"/>
<path transform="matrix(.1,0,0,-.1,0,792)" stroke-width="20" stroke-linecap="butt" stroke-miterlimit="10" stroke-linejoin="miter" fill="none" stroke="#000000" d="M2697.8 2919.3H1913.9L1684.3 2365 2143.5 1905.7 2697.8 2135.4Z"/>
<path transform="matrix(.1,0,0,-.1,0,792)" d="M3481.8 2919.3 3711.4 2365 4265.7 2919.3" fill="#788fbd"/>
<path transform="matrix(.1,0,0,-.1,0,792)" stroke-width="20" stroke-linecap="butt" stroke-miterlimit="10" stroke-linejoin="miter" fill="none" stroke="#000000" d="M3481.8 2919.3 3711.4 2365 4265.7 2919.3Z"/>
<path transform="matrix(.1,0,0,-.1,0,792)" d="M3711.4 5500.7 4265.7 6055H3481.8" fill="#788fbd"/>
<path transform="matrix(.1,0,0,-.1,0,792)" stroke-width="20" stroke-linecap="butt" stroke-miterlimit="10" stroke-linejoin="miter" fill="none" stroke="#000000" d="M3711.4 5500.7 4265.7 6055H3481.8Z"/>
<path transform="matrix(.1,0,0,-.1,0,792)" d="M3711.4 5500.7 4265.7 5271.1V6055" fill="#b0c4d9"/>
<path transform="matrix(.1,0,0,-.1,0,792)" stroke-width="20" stroke-linecap="butt" stroke-miterlimit="10" stroke-linejoin="miter" fill="none" stroke="#000000" d="M3711.4 5500.7 4265.7 5271.1V6055Z"/>
<path transform="matrix(.1,0,0,-.1,0,792)" d="M1913.9 2919.3H1130L1684.3 2365" fill="#b0c4d9"/>
<path transform="matrix(.1,0,0,-.1,0,792)" stroke-width="20" stroke-linecap="butt" stroke-miterlimit="10" stroke-linejoin="miter" fill="none" stroke="#000000" d="M1913.9 2919.3H1130L1684.3 2365Z"/>
<path transform="matrix(.1,0,0,-.1,0,792)" d="M1913.9 2919.3 1684.3 3473.6 1130 2919.3" fill="#788fbd"/>
<path transform="matrix(.1,0,0,-.1,0,792)" stroke-width="20" stroke-linecap="butt" stroke-miterlimit="10" stroke-linejoin="miter" fill="none" stroke="#000000" d="M1913.9 2919.3 1684.3 3473.6 1130 2919.3Z"/>
<path transform="matrix(.1,0,0,-.1,0,792)" d="M1684.3 3473.6 1130 3703.2V2919.3" fill="#b0c4d9"/>
<path transform="matrix(.1,0,0,-.1,0,792)" stroke-width="20" stroke-linecap="butt" stroke-miterlimit="10" stroke-linejoin="miter" fill="none" stroke="#000000" d="M1684.3 3473.6 1130 3703.2V2919.3Z"/>
<path transform="matrix(.1,0,0,-.1,0,792)" d="M4265.7 2919.3 4820 3473.6 4265.7 3703.2" fill="#b0c4d9"/>
<path transform="matrix(.1,0,0,-.1,0,792)" stroke-width="20" stroke-linecap="butt" stroke-miterlimit="10" stroke-linejoin="miter" fill="none" stroke="#000000" d="M4265.7 2919.3 4820 3473.6 4265.7 3703.2Z"/>
<path transform="matrix(.1,0,0,-.1,0,792)" d="M4265.7 2919.3H5049.6L4820 3473.6" fill="#788fbd"/>
<path transform="matrix(.1,0,0,-.1,0,792)" stroke-width="20" stroke-linecap="butt" stroke-miterlimit="10" stroke-linejoin="miter" fill="none" stroke="#000000" d="M4265.7 2919.3H5049.6L4820 3473.6Z"/>
<path transform="matrix(.1,0,0,-.1,0,792)" d="M4265.7 2919.3 4820 2365 5049.6 2919.3" fill="#b0c4d9"/>
<path transform="matrix(.1,0,0,-.1,0,792)" stroke-width="20" stroke-linecap="butt" stroke-miterlimit="10" stroke-linejoin="miter" fill="none" stroke="#000000" d="M4265.7 2919.3 4820 2365 5049.6 2919.3Z"/>
<path transform="matrix(.1,0,0,-.1,0,792)" d="M4265.7 2919.3V2135.4L4820 2365" fill="#788fbd"/>
<path transform="matrix(.1,0,0,-.1,0,792)" stroke-width="20" stroke-linecap="butt" stroke-miterlimit="10" stroke-linejoin="miter" fill="none" stroke="#000000" d="M4265.7 2919.3V2135.4L4820 2365Z"/>
<path transform="matrix(.1,0,0,-.1,0,792)" d="M4265.7 2919.3 3711.4 2365 4265.7 2135.4" fill="#b0c4d9"/>
<path transform="matrix(.1,0,0,-.1,0,792)" stroke-width="20" stroke-linecap="butt" stroke-miterlimit="10" stroke-linejoin="miter" fill="none" stroke="#000000" d="M4265.7 2919.3 3711.4 2365 4265.7 2135.4Z"/>
<path transform="matrix(.1,0,0,-.1,0,792)" d="M4265.7 3703.2 4820 3473.6 5279.3 3932.8 5049.6 4487.2H4265.7" fill="#c28c24"/>
<path transform="matrix(.1,0,0,-.1,0,792)" stroke-width="20" stroke-linecap="butt" stroke-miterlimit="10" stroke-linejoin="miter" fill="none" stroke="#000000" d="M4265.7 3703.2 4820 3473.6 5279.3 3932.8 5049.6 4487.2H4265.7Z"/>
<path transform="matrix(.1,0,0,-.1,0,792)" d="M4265.7 4487.2H5049.6L5279.3 5041.5 4820 5500.7 4265.7 5271.1" fill="#c28c24"/>
<path transform="matrix(.1,0,0,-.1,0,792)" stroke-width="20" stroke-linecap="butt" stroke-miterlimit="10" stroke-linejoin="miter" fill="none" stroke="#000000" d="M4265.7 4487.2H5049.6L5279.3 5041.5 4820 5500.7 4265.7 5271.1Z"/>
<path transform="matrix(.1,0,0,-.1,0,792)" d="M4265.7 5271.1 4820 5500.7 4265.7 6055" fill="#788fbd"/>
<path transform="matrix(.1,0,0,-.1,0,792)" stroke-width="20" stroke-linecap="butt" stroke-miterlimit="10" stroke-linejoin="miter" fill="none" stroke="#000000" d="M4265.7 5271.1 4820 5500.7 4265.7 6055Z"/>
<path transform="matrix(.1,0,0,-.1,0,792)" d="M1684.3 5500.7 1130 6055V5271.1" fill="#788fbd"/>
<path transform="matrix(.1,0,0,-.1,0,792)" stroke-width="20" stroke-linecap="butt" stroke-miterlimit="10" stroke-linejoin="miter" fill="none" stroke="#000000" d="M1684.3 5500.7 1130 6055V5271.1Z"/>
<path transform="matrix(.1,0,0,-.1,0,792)" d="M1684.3 5500.7 1913.9 6055H1130" fill="#b0c4d9"/>
<path transform="matrix(.1,0,0,-.1,0,792)" stroke-width="20" stroke-linecap="butt" stroke-miterlimit="10" stroke-linejoin="miter" fill="none" stroke="#000000" d="M1684.3 5500.7 1913.9 6055H1130Z"/>
<path transform="matrix(.1,0,0,-.1,0,792)" d="M2697.8 6055V6839L2143.5 7068.6 1684.3 6609.4 1913.9 6055" fill="#c28c24"/>
<path transform="matrix(.1,0,0,-.1,0,792)" stroke-width="20" stroke-linecap="butt" stroke-miterlimit="10" stroke-linejoin="miter" fill="none" stroke="#000000" d="M2697.8 6055V6839L2143.5 7068.6 1684.3 6609.4 1913.9 6055Z"/>
<path transform="matrix(.1,0,0,-.1,0,792)" d="M3481.8 6055 3711.4 6609.4 3252.2 7068.6 2697.8 6839V6055" fill="#c28c24"/>
<path transform="matrix(.1,0,0,-.1,0,792)" stroke-width="20" stroke-linecap="butt" stroke-miterlimit="10" stroke-linejoin="miter" fill="none" stroke="#000000" d="M3481.8 6055 3711.4 6609.4 3252.2 7068.6 2697.8 6839V6055Z"/>
<path transform="matrix(.1,0,0,-.1,0,792)" d="M4265.7 6055 3711.4 6609.4 3481.8 6055" fill="#b0c4d9"/>
<path transform="matrix(.1,0,0,-.1,0,792)" stroke-width="20" stroke-linecap="butt" stroke-miterlimit="10" stroke-linejoin="miter" fill="none" stroke="#000000" d="M4265.7 6055 3711.4 6609.4 3481.8 6055Z"/>
<path transform="matrix(.1,0,0,-.1,0,792)" d="M4265.7 6055V6839L3711.4 6609.4" fill="#788fbd"/>
<path transform="matrix(.1,0,0,-.1,0,792)" stroke-width="20" stroke-linecap="butt" stroke-miterlimit="10" stroke-linejoin="miter" fill="none" stroke="#000000" d="M4265.7 6055V6839L3711.4 6609.4Z"/>
<path transform="matrix(.1,0,0,-.1,0,792)" d="M4265.7 6055 4820 6609.4 4265.7 6839" fill="#b0c4d9"/>
<path transform="matrix(.1,0,0,-.1,0,792)" stroke-width="20" stroke-linecap="butt" stroke-miterlimit="10" stroke-linejoin="miter" fill="none" stroke="#000000" d="M4265.7 6055 4820 6609.4 4265.7 6839Z"/>
<path transform="matrix(.1,0,0,-.1,0,792)" d="M4265.7 6055H5049.6L4820 6609.4" fill="#788fbd"/>
<path transform="matrix(.1,0,0,-.1,0,792)" stroke-width="20" stroke-linecap="butt" stroke-miterlimit="10" stroke-linejoin="miter" fill="none" stroke="#000000" d="M4265.7 6055H5049.6L4820 6609.4Z"/>
<path transform="matrix(.1,0,0,-.1,0,792)" d="M4265.7 6055 4820 5500.7 5049.6 6055" fill="#b0c4d9"/>
<path transform="matrix(.1,0,0,-.1,0,792)" stroke-width="20" stroke-linecap="butt" stroke-miterlimit="10" stroke-linejoin="miter" fill="none" stroke="#000000" d="M4265.7 6055 4820 5500.7 5049.6 6055Z"/>
<path transform="matrix(.1,0,0,-.1,0,792)" d="M1913.9 6055 1684.3 6609.4 1130 6055" fill="#788fbd"/>
<path transform="matrix(.1,0,0,-.1,0,792)" stroke-width="20" stroke-linecap="butt" stroke-miterlimit="10" stroke-linejoin="miter" fill="none" stroke="#000000" d="M1913.9 6055 1684.3 6609.4 1130 6055Z"/>
<path transform="matrix(.1,0,0,-.1,0,792)" d="M1684.3 2365 1130 2135.4V1351.4H1913.9L2143.5 1905.7" fill="#c28c24"/>
<path transform="matrix(.1,0,0,-.1,0,792)" stroke-width="20" stroke-linecap="butt" stroke-miterlimit="10" stroke-linejoin="miter" fill="none" stroke="#000000" d="M1684.3 2365 1130 2135.4V1351.4H1913.9L2143.5 1905.7Z"/>
<path transform="matrix(.1,0,0,-.1,0,792)" d="M1684.3 2365 1130 2919.3V2135.4" fill="#788fbd"/>
<path transform="matrix(.1,0,0,-.1,0,792)" stroke-width="20" stroke-linecap="butt" stroke-miterlimit="10" stroke-linejoin="miter" fill="none" stroke="#000000" d="M1684.3 2365 1130 2919.3V2135.4Z"/>
<path transform="matrix(.1,0,0,-.1,0,792)" d="M3711.4 2365 3252.2 1905.7 3481.8 1351.4H4265.7V2135.4" fill="#c28c24"/>
<path transform="matrix(.1,0,0,-.1,0,792)" stroke-width="20" stroke-linecap="butt" stroke-miterlimit="10" stroke-linejoin="miter" fill="none" stroke="#000000" d="M3711.4 2365 3252.2 1905.7 3481.8 1351.4H4265.7V2135.4Z"/>
<path transform="matrix(.1,0,0,-.1,0,792)" d="M2697.8 2135.4V1351.4L3252.2 1905.7" fill="#b0c4d9"/>
<path transform="matrix(.1,0,0,-.1,0,792)" stroke-width="20" stroke-linecap="butt" stroke-miterlimit="10" stroke-linejoin="miter" fill="none" stroke="#000000" d="M2697.8 2135.4V1351.4L3252.2 1905.7Z"/>
<path transform="matrix(.1,0,0,-.1,0,792)" d="M2697.8 2135.4 2143.5 1905.7 2697.8 1351.4" fill="#788fbd"/>
<path transform="matrix(.1,0,0,-.1,0,792)" stroke-width="20" stroke-linecap="butt" stroke-miterlimit="10" stroke-linejoin="miter" fill="none" stroke="#000000" d="M2697.8 2135.4 2143.5 1905.7 2697.8 1351.4Z"/>
<path transform="matrix(.1,0,0,-.1,0,792)" d="M4265.7 2135.4V1351.4H5049.6L5279.3 1905.7 4820 2365" fill="#c28c24"/>
<path transform="matrix(.1,0,0,-.1,0,792)" stroke-width="20" stroke-linecap="butt" stroke-miterlimit="10" stroke-linejoin="miter" fill="none" stroke="#000000" d="M4265.7 2135.4V1351.4H5049.6L5279.3 1905.7 4820 2365Z"/>
<path transform="matrix(.1,0,0,-.1,0,792)" d="M2143.5 1905.7 1913.9 1351.4H2697.8" fill="#b0c4d9"/>
<path transform="matrix(.1,0,0,-.1,0,792)" stroke-width="20" stroke-linecap="butt" stroke-miterlimit="10" stroke-linejoin="miter" fill="none" stroke="#000000" d="M2143.5 1905.7 1913.9 1351.4H2697.8Z"/>
<path transform="matrix(.1,0,0,-.1,0,792)" d="M3252.2 1905.7 2697.8 1351.4H3481.8" fill="#788fbd"/>
<path transform="matrix(.1,0,0,-.1,0,792)" stroke-width="20" stroke-linecap="butt" stroke-miterlimit="10" stroke-linejoin="miter" fill="none" stroke="#000000" d="M3252.2 1905.7 2697.8 1351.4H3481.8Z"/>
<path transform="matrix(.1,0,0,-.1,0,792)" d="M3711.4 6609.4 4265.7 6839V7622.9H3481.8L3252.2 7068.6" fill="#c28c24"/>
<path transform="matrix(.1,0,0,-.1,0,792)" stroke-width="20" stroke-linecap="butt" stroke-miterlimit="10" stroke-linejoin="miter" fill="none" stroke="#000000" d="M3711.4 6609.4 4265.7 6839V7622.9H3481.8L3252.2 7068.6Z"/>
<path transform="matrix(.1,0,0,-.1,0,792)" d="M1684.3 6609.4 1130 6839V6055" fill="#b0c4d9"/>
<path transform="matrix(.1,0,0,-.1,0,792)" stroke-width="20" stroke-linecap="butt" stroke-miterlimit="10" stroke-linejoin="miter" fill="none" stroke="#000000" d="M1684.3 6609.4 1130 6839V6055Z"/>
<path transform="matrix(.1,0,0,-.1,0,792)" d="M1684.3 6609.4 2143.5 7068.6 1913.9 7622.9H1130V6839" fill="#c28c24"/>
<path transform="matrix(.1,0,0,-.1,0,792)" stroke-width="20" stroke-linecap="butt" stroke-miterlimit="10" stroke-linejoin="miter" fill="none" stroke="#000000" d="M1684.3 6609.4 2143.5 7068.6 1913.9 7622.9H1130V6839Z"/>
<path transform="matrix(.1,0,0,-.1,0,792)" d="M1130 6055 575.602 5500.7 1130 5271.1" fill="#b0c4d9"/>
<path transform="matrix(.1,0,0,-.1,0,792)" stroke-width="20" stroke-linecap="butt" stroke-miterlimit="10" stroke-linejoin="miter" fill="none" stroke="#000000" d="M1130 6055 575.602 5500.7 1130 5271.1Z"/>
<path transform="matrix(.1,0,0,-.1,0,792)" d="M1130 6055H346L575.602 5500.7" fill="#788fbd"/>
<path transform="matrix(.1,0,0,-.1,0,792)" stroke-width="20" stroke-linecap="butt" stroke-miterlimit="10" stroke-linejoin="miter" fill="none" stroke="#000000" d="M1130 6055H346L575.602 5500.7Z"/>
<path transform="matrix(.1,0,0,-.1,0,792)" d="M1130 6055 575.602 6609.4 346 6055" fill="#b0c4d9"/>
<path transform="matrix(.1,0,0,-.1,0,792)" stroke-width="20" stroke-linecap="butt" stroke-miterlimit="10" stroke-linejoin="miter" fill="none" stroke="#000000" d="M1130 6055 575.602 6609.4 346 6055Z"/>
<path transform="matrix(.1,0,0,-.1,0,792)" d="M1130 6055V6839L575.602 6609.4" fill="#788fbd"/>
<path transform="matrix(.1,0,0,-.1,0,792)" stroke-width="20" stroke-linecap="butt" stroke-miterlimit="10" stroke-linejoin="miter" fill="none" stroke="#000000" d="M1130 6055V6839L575.602 6609.4Z"/>
<path transform="matrix(.1,0,0,-.1,0,792)" d="M1130 5271.1 575.602 5500.7 116.398 5041.5 346 4487.2H1130" fill="#c28c24"/>
<path transform="matrix(.1,0,0,-.1,0,792)" stroke-width="20" stroke-linecap="butt" stroke-miterlimit="10" stroke-linejoin="miter" fill="none" stroke="#000000" d="M1130 5271.1 575.602 5500.7 116.398 5041.5 346 4487.2H1130Z"/>
<path transform="matrix(.1,0,0,-.1,0,792)" d="M1130 4487.2H346L116.398 3932.8 575.602 3473.6 1130 3703.2" fill="#c28c24"/>
<path transform="matrix(.1,0,0,-.1,0,792)" stroke-width="20" stroke-linecap="butt" stroke-miterlimit="10" stroke-linejoin="miter" fill="none" stroke="#000000" d="M1130 4487.2H346L116.398 3932.8 575.602 3473.6 1130 3703.2Z"/>
<path transform="matrix(.1,0,0,-.1,0,792)" d="M1130 3703.2 575.602 3473.6 1130 2919.3" fill="#788fbd"/>
<path transform="matrix(.1,0,0,-.1,0,792)" stroke-width="20" stroke-linecap="butt" stroke-miterlimit="10" stroke-linejoin="miter" fill="none" stroke="#000000" d="M1130 3703.2 575.602 3473.6 1130 2919.3Z"/>
<path transform="matrix(.1,0,0,-.1,0,792)" d="M1130 2919.3 575.602 2365 1130 2135.4" fill="#b0c4d9"/>
<path transform="matrix(.1,0,0,-.1,0,792)" stroke-width="20" stroke-linecap="butt" stroke-miterlimit="10" stroke-linejoin="miter" fill="none" stroke="#000000" d="M1130 2919.3 575.602 2365 1130 2135.4Z"/>
<path transform="matrix(.1,0,0,-.1,0,792)" d="M1130 2919.3H346L575.602 2365" fill="#788fbd"/>
<path transform="matrix(.1,0,0,-.1,0,792)" stroke-width="20" stroke-linecap="butt" stroke-miterlimit="10" stroke-linejoin="miter" fill="none" stroke="#000000" d="M1130 2919.3H346L575.602 2365Z"/>
<path transform="matrix(.1,0,0,-.1,0,792)" d="M1130 2919.3 575.602 3473.6 346 2919.3" fill="#b0c4d9"/>
<path transform="matrix(.1,0,0,-.1,0,792)" stroke-width="20" stroke-linecap="butt" stroke-miterlimit="10" stroke-linejoin="miter" fill="none" stroke="#000000" d="M1130 2919.3 575.602 3473.6 346 2919.3Z"/>
<path transform="matrix(.1,0,0,-.1,0,792)" d="M1130 2135.4 575.602 2365 116.398 1905.7 346 1351.4H1130" fill="#c28c24"/>
<path transform="matrix(.1,0,0,-.1,0,792)" stroke-width="20" stroke-linecap="butt" stroke-miterlimit="10" stroke-linejoin="miter" fill="none" stroke="#000000" d="M1130 2135.4 575.602 2365 116.398 1905.7 346 1351.4H1130Z"/>
<path transform="matrix(.1,0,0,-.1,0,792)" d="M4820 2365 5279.3 1905.7 5833.6 2135.4V2919.3H5049.6" fill="#c28c24"/>
<path transform="matrix(.1,0,0,-.1,0,792)" stroke-width="20" stroke-linecap="butt" stroke-miterlimit="10" stroke-linejoin="miter" fill="none" stroke="#000000" d="M4820 2365 5279.3 1905.7 5833.6 2135.4V2919.3H5049.6Z"/>
<path transform="matrix(.1,0,0,-.1,0,792)" d="M4820 3473.6 5049.6 2919.3H5833.6V3703.2L5279.3 3932.8" fill="#c28c24"/>
<path transform="matrix(.1,0,0,-.1,0,792)" stroke-width="20" stroke-linecap="butt" stroke-miterlimit="10" stroke-linejoin="miter" fill="none" stroke="#000000" d="M4820 3473.6 5049.6 2919.3H5833.6V3703.2L5279.3 3932.8Z"/>
<path transform="matrix(.1,0,0,-.1,0,792)" d="M4820 5500.7 5279.3 5041.5 5833.6 5271.1V6055H5049.6" fill="#c28c24"/>
<path transform="matrix(.1,0,0,-.1,0,792)" stroke-width="20" stroke-linecap="butt" stroke-miterlimit="10" stroke-linejoin="miter" fill="none" stroke="#000000" d="M4820 5500.7 5279.3 5041.5 5833.6 5271.1V6055H5049.6Z"/>
<path transform="matrix(.1,0,0,-.1,0,792)" d="M4820 6609.4 5279.3 7068.6 5049.6 7622.9H4265.7V6839" fill="#c28c24"/>
<path transform="matrix(.1,0,0,-.1,0,792)" stroke-width="20" stroke-linecap="butt" stroke-miterlimit="10" stroke-linejoin="miter" fill="none" stroke="#000000" d="M4820 6609.4 5279.3 7068.6 5049.6 7622.9H4265.7V6839Z"/>
<path transform="matrix(.1,0,0,-.1,0,792)" d="M4820 6609.4 5049.6 6055H5833.6V6839L5279.3 7068.6" fill="#c28c24"/>
<path transform="matrix(.1,0,0,-.1,0,792)" stroke-width="20" stroke-linecap="butt" stroke-miterlimit="10" stroke-linejoin="miter" fill="none" stroke="#000000" d="M4820 6609.4 5049.6 6055H5833.6V6839L5279.3 7068.6Z"/>
<path transform="matrix(.1,0,0,-.1,0,792)" d="M2697.8 6839V7622.9L2143.5 7068.6" fill="#b0c4d9"/>
<path transform="matrix(.1,0,0,-.1,0,792)" stroke-width="20" stroke-linecap="butt" stroke-miterlimit="10" stroke-linejoin="miter" fill="none" stroke="#000000" d="M2697.8 6839V7622.9L2143.5 7068.6Z"/>
<path transform="matrix(.1,0,0,-.1,0,792)" d="M2697.8 6839 3252.2 7068.6 2697.8 7622.9" fill="#788fbd"/>
<path transform="matrix(.1,0,0,-.1,0,792)" stroke-width="20" stroke-linecap="butt" stroke-miterlimit="10" stroke-linejoin="miter" fill="none" stroke="#000000" d="M2697.8 6839 3252.2 7068.6 2697.8 7622.9Z"/>
<path transform="matrix(.1,0,0,-.1,0,792)" d="M1130 6839V7622.9H346L116.398 7068.6 575.602 6609.4" fill="#c28c24"/>
<path transform="matrix(.1,0,0,-.1,0,792)" stroke-width="20" stroke-linecap="butt" stroke-miterlimit="10" stroke-linejoin="miter" fill="none" stroke="#000000" d="M1130 6839V7622.9H346L116.398 7068.6 575.602 6609.4Z"/>
<path transform="matrix(.1,0,0,-.1,0,792)" d="M5049.6 4487.2H5833.6L5279.3 5041.5" fill="#b0c4d9"/>
<path transform="matrix(.1,0,0,-.1,0,792)" stroke-width="20" stroke-linecap="butt" stroke-miterlimit="10" stroke-linejoin="miter" fill="none" stroke="#000000" d="M5049.6 4487.2H5833.6L5279.3 5041.5Z"/>
<path transform="matrix(.1,0,0,-.1,0,792)" d="M5049.6 4487.2 5279.3 3932.8 5833.6 4487.2" fill="#788fbd"/>
<path transform="matrix(.1,0,0,-.1,0,792)" stroke-width="20" stroke-linecap="butt" stroke-miterlimit="10" stroke-linejoin="miter" fill="none" stroke="#000000" d="M5049.6 4487.2 5279.3 3932.8 5833.6 4487.2Z"/>
<path transform="matrix(.1,0,0,-.1,0,792)" d="M3252.2 7068.6 3481.8 7622.9H2697.8" fill="#b0c4d9"/>
<path transform="matrix(.1,0,0,-.1,0,792)" stroke-width="20" stroke-linecap="butt" stroke-miterlimit="10" stroke-linejoin="miter" fill="none" stroke="#000000" d="M3252.2 7068.6 3481.8 7622.9H2697.8Z"/>
<path transform="matrix(.1,0,0,-.1,0,792)" d="M2143.5 7068.6 2697.8 7622.9H1913.9" fill="#788fbd"/>
<path transform="matrix(.1,0,0,-.1,0,792)" stroke-width="20" stroke-linecap="butt" stroke-miterlimit="10" stroke-linejoin="miter" fill="none" stroke="#000000" d="M2143.5 7068.6 2697.8 7622.9H1913.9Z"/>
<path transform="matrix(.1,0,0,-.1,0,792)" d="M1130 1351.4V567.5L1684.3 337.898 2143.5 797.102 1913.9 1351.4" fill="#c28c24"/>
<path transform="matrix(.1,0,0,-.1,0,792)" stroke-width="20" stroke-linecap="butt" stroke-miterlimit="10" stroke-linejoin="miter" fill="none" stroke="#000000" d="M1130 1351.4V567.5L1684.3 337.898 2143.5 797.102 1913.9 1351.4Z"/>
<path transform="matrix(.1,0,0,-.1,0,792)" d="M1130 1351.4H346L116.398 797.102 575.602 337.898 1130 567.5" fill="#c28c24"/>
<path transform="matrix(.1,0,0,-.1,0,792)" stroke-width="20" stroke-linecap="butt" stroke-miterlimit="10" stroke-linejoin="miter" fill="none" stroke="#000000" d="M1130 1351.4H346L116.398 797.102 575.602 337.898 1130 567.5Z"/>
<path transform="matrix(.1,0,0,-.1,0,792)" d="M1913.9 1351.4 2143.5 797.102 2697.8 1351.4" fill="#788fbd"/>
<path transform="matrix(.1,0,0,-.1,0,792)" stroke-width="20" stroke-linecap="butt" stroke-miterlimit="10" stroke-linejoin="miter" fill="none" stroke="#000000" d="M1913.9 1351.4 2143.5 797.102 2697.8 1351.4Z"/>
<path transform="matrix(.1,0,0,-.1,0,792)" d="M2697.8 1351.4 3252.2 797.102 3481.8 1351.4" fill="#b0c4d9"/>
<path transform="matrix(.1,0,0,-.1,0,792)" stroke-width="20" stroke-linecap="butt" stroke-miterlimit="10" stroke-linejoin="miter" fill="none" stroke="#000000" d="M2697.8 1351.4 3252.2 797.102 3481.8 1351.4Z"/>
<path transform="matrix(.1,0,0,-.1,0,792)" d="M2697.8 1351.4V567.5L3252.2 797.102" fill="#788fbd"/>
<path transform="matrix(.1,0,0,-.1,0,792)" stroke-width="20" stroke-linecap="butt" stroke-miterlimit="10" stroke-linejoin="miter" fill="none" stroke="#000000" d="M2697.8 1351.4V567.5L3252.2 797.102Z"/>
<path transform="matrix(.1,0,0,-.1,0,792)" d="M2697.8 1351.4 2143.5 797.102 2697.8 567.5" fill="#b0c4d9"/>
<path transform="matrix(.1,0,0,-.1,0,792)" stroke-width="20" stroke-linecap="butt" stroke-miterlimit="10" stroke-linejoin="miter" fill="none" stroke="#000000" d="M2697.8 1351.4 2143.5 797.102 2697.8 567.5Z"/>
<path transform="matrix(.1,0,0,-.1,0,792)" d="M3481.8 1351.4 3252.2 797.102 3711.4 337.898 4265.7 567.5V1351.4" fill="#c28c24"/>
<path transform="matrix(.1,0,0,-.1,0,792)" stroke-width="20" stroke-linecap="butt" stroke-miterlimit="10" stroke-linejoin="miter" fill="none" stroke="#000000" d="M3481.8 1351.4 3252.2 797.102 3711.4 337.898 4265.7 567.5V1351.4Z"/>
<path transform="matrix(.1,0,0,-.1,0,792)" d="M4265.7 1351.4V567.5L4820 337.898 5279.3 797.102 5049.6 1351.4" fill="#c28c24"/>
<path transform="matrix(.1,0,0,-.1,0,792)" stroke-width="20" stroke-linecap="butt" stroke-miterlimit="10" stroke-linejoin="miter" fill="none" stroke="#000000" d="M4265.7 1351.4V567.5L4820 337.898 5279.3 797.102 5049.6 1351.4Z"/>
<path transform="matrix(.1,0,0,-.1,0,792)" d="M5049.6 1351.4H5833.6L5279.3 1905.7" fill="#b0c4d9"/>
<path transform="matrix(.1,0,0,-.1,0,792)" stroke-width="20" stroke-linecap="butt" stroke-miterlimit="10" stroke-linejoin="miter" fill="none" stroke="#000000" d="M5049.6 1351.4H5833.6L5279.3 1905.7Z"/>
<path transform="matrix(.1,0,0,-.1,0,792)" d="M5049.6 1351.4 5279.3 797.102 5833.6 1351.4" fill="#788fbd"/>
<path transform="matrix(.1,0,0,-.1,0,792)" stroke-width="20" stroke-linecap="butt" stroke-miterlimit="10" stroke-linejoin="miter" fill="none" stroke="#000000" d="M5049.6 1351.4 5279.3 797.102 5833.6 1351.4Z"/>
<path transform="matrix(.1,0,0,-.1,0,792)" d="M5279.3 1905.7 5833.6 1351.4V2135.4" fill="#788fbd"/>
<path transform="matrix(.1,0,0,-.1,0,792)" stroke-width="20" stroke-linecap="butt" stroke-miterlimit="10" stroke-linejoin="miter" fill="none" stroke="#000000" d="M5279.3 1905.7 5833.6 1351.4V2135.4Z"/>
<path transform="matrix(.1,0,0,-.1,0,792)" d="M5279.3 3932.8 5833.6 3703.2V4487.2" fill="#b0c4d9"/>
<path transform="matrix(.1,0,0,-.1,0,792)" stroke-width="20" stroke-linecap="butt" stroke-miterlimit="10" stroke-linejoin="miter" fill="none" stroke="#000000" d="M5279.3 3932.8 5833.6 3703.2V4487.2Z"/>
<path transform="matrix(.1,0,0,-.1,0,792)" d="M5279.3 5041.5 5833.6 4487.2V5271.1" fill="#788fbd"/>
<path transform="matrix(.1,0,0,-.1,0,792)" stroke-width="20" stroke-linecap="butt" stroke-miterlimit="10" stroke-linejoin="miter" fill="none" stroke="#000000" d="M5279.3 5041.5 5833.6 4487.2V5271.1Z"/>
<path transform="matrix(.1,0,0,-.1,0,792)" d="M5279.3 7068.6 5833.6 7622.9H5049.6" fill="#788fbd"/>
<path transform="matrix(.1,0,0,-.1,0,792)" stroke-width="20" stroke-linecap="butt" stroke-miterlimit="10" stroke-linejoin="miter" fill="none" stroke="#000000" d="M5279.3 7068.6 5833.6 7622.9H5049.6Z"/>
<path transform="matrix(.1,0,0,-.1,0,792)" d="M5279.3 7068.6 5833.6 6839V7622.9" fill="#b0c4d9"/>
<path transform="matrix(.1,0,0,-.1,0,792)" stroke-width="20" stroke-linecap="butt" stroke-miterlimit="10" stroke-linejoin="miter" fill="none" stroke="#000000" d="M5279.3 7068.6 5833.6 6839V7622.9Z"/>
<path transform="matrix(.1,0,0,-.1,0,792)" d="M575.602 6609.4 116.398 7068.6-437.898 6839V6055H346" fill="#c28c24"/>
<path transform="matrix(.1,0,0,-.1,0,792)" stroke-width="20" stroke-linecap="butt" stroke-miterlimit="10" stroke-linejoin="miter" fill="none" stroke="#000000" d="M575.602 6609.4 116.398 7068.6-437.898 6839V6055H346Z"/>
<path transform="matrix(.1,0,0,-.1,0,792)" d="M575.602 5500.7 346 6055H-437.898V5271.1L116.398 5041.5" fill="#c28c24"/>
<path transform="matrix(.1,0,0,-.1,0,792)" stroke-width="20" stroke-linecap="butt" stroke-miterlimit="10" stroke-linejoin="miter" fill="none" stroke="#000000" d="M575.602 5500.7 346 6055H-437.898V5271.1L116.398 5041.5Z"/>
<path transform="matrix(.1,0,0,-.1,0,792)" d="M575.602 3473.6 116.398 3932.8-437.898 3703.2V2919.3H346" fill="#c28c24"/>
<path transform="matrix(.1,0,0,-.1,0,792)" stroke-width="20" stroke-linecap="butt" stroke-miterlimit="10" stroke-linejoin="miter" fill="none" stroke="#000000" d="M575.602 3473.6 116.398 3932.8-437.898 3703.2V2919.3H346Z"/>
<path transform="matrix(.1,0,0,-.1,0,792)" d="M575.602 2365 346 2919.3H-437.898V2135.4L116.398 1905.7" fill="#c28c24"/>
<path transform="matrix(.1,0,0,-.1,0,792)" stroke-width="20" stroke-linecap="butt" stroke-miterlimit="10" stroke-linejoin="miter" fill="none" stroke="#000000" d="M575.602 2365 346 2919.3H-437.898V2135.4L116.398 1905.7Z"/>
<path transform="matrix(.1,0,0,-.1,0,792)" d="M2143.5 797.102 1684.3 337.898 1913.9-216.5H2697.8V567.5" fill="#c28c24"/>
<path transform="matrix(.1,0,0,-.1,0,792)" stroke-width="20" stroke-linecap="butt" stroke-miterlimit="10" stroke-linejoin="miter" fill="none" stroke="#000000" d="M2143.5 797.102 1684.3 337.898 1913.9-216.5H2697.8V567.5Z"/>
<path transform="matrix(.1,0,0,-.1,0,792)" d="M3252.2 797.102 2697.8 567.5V-216.5H3481.8L3711.4 337.898" fill="#c28c24"/>
<path transform="matrix(.1,0,0,-.1,0,792)" stroke-width="20" stroke-linecap="butt" stroke-miterlimit="10" stroke-linejoin="miter" fill="none" stroke="#000000" d="M3252.2 797.102 2697.8 567.5V-216.5H3481.8L3711.4 337.898Z"/>
<path transform="matrix(.1,0,0,-.1,0,792)" d="M5279.3 797.102 5833.6 567.5V1351.4" fill="#b0c4d9"/>
<path transform="matrix(.1,0,0,-.1,0,792)" stroke-width="20" stroke-linecap="butt" stroke-miterlimit="10" stroke-linejoin="miter" fill="none" stroke="#000000" d="M5279.3 797.102 5833.6 567.5V1351.4Z"/>
<path transform="matrix(.1,0,0,-.1,0,792)" d="M5279.3 797.102 4820 337.898 5049.6-216.5H5833.6V567.5" fill="#c28c24"/>
<path transform="matrix(.1,0,0,-.1,0,792)" stroke-width="20" stroke-linecap="butt" stroke-miterlimit="10" stroke-linejoin="miter" fill="none" stroke="#000000" d="M5279.3 797.102 4820 337.898 5049.6-216.5H5833.6V567.5Z"/>
<path transform="matrix(.1,0,0,-.1,0,792)" d="M5049.6 7622.9 5279.3 8177.2 4820 8636.5 4265.7 8406.9V7622.9" fill="#c28c24"/>
<path transform="matrix(.1,0,0,-.1,0,792)" stroke-width="20" stroke-linecap="butt" stroke-miterlimit="10" stroke-linejoin="miter" fill="none" stroke="#000000" d="M5049.6 7622.9 5279.3 8177.2 4820 8636.5 4265.7 8406.9V7622.9Z"/>
<path transform="matrix(.1,0,0,-.1,0,792)" d="M5049.6 7622.9H5833.6L5279.3 8177.2" fill="#b0c4d9"/>
<path transform="matrix(.1,0,0,-.1,0,792)" stroke-width="20" stroke-linecap="butt" stroke-miterlimit="10" stroke-linejoin="miter" fill="none" stroke="#000000" d="M5049.6 7622.9H5833.6L5279.3 8177.2Z"/>
<path transform="matrix(.1,0,0,-.1,0,792)" d="M4265.7 7622.9V8406.9L3711.4 8636.5 3252.2 8177.2 3481.8 7622.9" fill="#c28c24"/>
<path transform="matrix(.1,0,0,-.1,0,792)" stroke-width="20" stroke-linecap="butt" stroke-miterlimit="10" stroke-linejoin="miter" fill="none" stroke="#000000" d="M4265.7 7622.9V8406.9L3711.4 8636.5 3252.2 8177.2 3481.8 7622.9Z"/>
<path transform="matrix(.1,0,0,-.1,0,792)" d="M3481.8 7622.9 3252.2 8177.2 2697.8 7622.9" fill="#788fbd"/>
<path transform="matrix(.1,0,0,-.1,0,792)" stroke-width="20" stroke-linecap="butt" stroke-miterlimit="10" stroke-linejoin="miter" fill="none" stroke="#000000" d="M3481.8 7622.9 3252.2 8177.2 2697.8 7622.9Z"/>
<path transform="matrix(.1,0,0,-.1,0,792)" d="M2697.8 7622.9 2143.5 8177.2 1913.9 7622.9" fill="#b0c4d9"/>
<path transform="matrix(.1,0,0,-.1,0,792)" stroke-width="20" stroke-linecap="butt" stroke-miterlimit="10" stroke-linejoin="miter" fill="none" stroke="#000000" d="M2697.8 7622.9 2143.5 8177.2 1913.9 7622.9Z"/>
<path transform="matrix(.1,0,0,-.1,0,792)" d="M2697.8 7622.9V8406.9L2143.5 8177.2" fill="#788fbd"/>
<path transform="matrix(.1,0,0,-.1,0,792)" stroke-width="20" stroke-linecap="butt" stroke-miterlimit="10" stroke-linejoin="miter" fill="none" stroke="#000000" d="M2697.8 7622.9V8406.9L2143.5 8177.2Z"/>
<path transform="matrix(.1,0,0,-.1,0,792)" d="M2697.8 7622.9 3252.2 8177.2 2697.8 8406.9" fill="#b0c4d9"/>
<path transform="matrix(.1,0,0,-.1,0,792)" stroke-width="20" stroke-linecap="butt" stroke-miterlimit="10" stroke-linejoin="miter" fill="none" stroke="#000000" d="M2697.8 7622.9 3252.2 8177.2 2697.8 8406.9Z"/>
<path transform="matrix(.1,0,0,-.1,0,792)" d="M1913.9 7622.9 2143.5 8177.2 1684.3 8636.5 1130 8406.9V7622.9" fill="#c28c24"/>
<path transform="matrix(.1,0,0,-.1,0,792)" stroke-width="20" stroke-linecap="butt" stroke-miterlimit="10" stroke-linejoin="miter" fill="none" stroke="#000000" d="M1913.9 7622.9 2143.5 8177.2 1684.3 8636.5 1130 8406.9V7622.9Z"/>
<path transform="matrix(.1,0,0,-.1,0,792)" d="M1130 7622.9V8406.9L575.602 8636.5 116.398 8177.2 346 7622.9" fill="#c28c24"/>
<path transform="matrix(.1,0,0,-.1,0,792)" stroke-width="20" stroke-linecap="butt" stroke-miterlimit="10" stroke-linejoin="miter" fill="none" stroke="#000000" d="M1130 7622.9V8406.9L575.602 8636.5 116.398 8177.2 346 7622.9Z"/>
<path transform="matrix(.1,0,0,-.1,0,792)" d="M346 7622.9H-437.898L116.398 7068.6" fill="#b0c4d9"/>
<path transform="matrix(.1,0,0,-.1,0,792)" stroke-width="20" stroke-linecap="butt" stroke-miterlimit="10" stroke-linejoin="miter" fill="none" stroke="#000000" d="M346 7622.9H-437.898L116.398 7068.6Z"/>
<path transform="matrix(.1,0,0,-.1,0,792)" d="M346 7622.9 116.398 8177.2-437.898 7622.9" fill="#788fbd"/>
<path transform="matrix(.1,0,0,-.1,0,792)" stroke-width="20" stroke-linecap="butt" stroke-miterlimit="10" stroke-linejoin="miter" fill="none" stroke="#000000" d="M346 7622.9 116.398 8177.2-437.898 7622.9Z"/>
<path transform="matrix(.1,0,0,-.1,0,792)" d="M346 4487.2H-437.898L116.398 3932.8" fill="#b0c4d9"/>
<path transform="matrix(.1,0,0,-.1,0,792)" stroke-width="20" stroke-linecap="butt" stroke-miterlimit="10" stroke-linejoin="miter" fill="none" stroke="#000000" d="M346 4487.2H-437.898L116.398 3932.8Z"/>
<path transform="matrix(.1,0,0,-.1,0,792)" d="M346 4487.2 116.398 5041.5-437.898 4487.2" fill="#788fbd"/>
<path transform="matrix(.1,0,0,-.1,0,792)" stroke-width="20" stroke-linecap="butt" stroke-miterlimit="10" stroke-linejoin="miter" fill="none" stroke="#000000" d="M346 4487.2 116.398 5041.5-437.898 4487.2Z"/>
<path transform="matrix(.1,0,0,-.1,0,792)" d="M346 1351.4H-437.898L116.398 797.102" fill="#b0c4d9"/>
<path transform="matrix(.1,0,0,-.1,0,792)" stroke-width="20" stroke-linecap="butt" stroke-miterlimit="10" stroke-linejoin="miter" fill="none" stroke="#000000" d="M346 1351.4H-437.898L116.398 797.102Z"/>
<path transform="matrix(.1,0,0,-.1,0,792)" d="M346 1351.4 116.398 1905.7-437.898 1351.4" fill="#788fbd"/>
<path transform="matrix(.1,0,0,-.1,0,792)" stroke-width="20" stroke-linecap="butt" stroke-miterlimit="10" stroke-linejoin="miter" fill="none" stroke="#000000" d="M346 1351.4 116.398 1905.7-437.898 1351.4Z"/>
<path transform="matrix(.1,0,0,-.1,0,792)" d="M1130 567.5V-216.5L1684.3 337.898" fill="#b0c4d9"/>
<path transform="matrix(.1,0,0,-.1,0,792)" stroke-width="20" stroke-linecap="butt" stroke-miterlimit="10" stroke-linejoin="miter" fill="none" stroke="#000000" d="M1130 567.5V-216.5L1684.3 337.898Z"/>
<path transform="matrix(.1,0,0,-.1,0,792)" d="M1130 567.5 575.602 337.898 1130-216.5" fill="#788fbd"/>
<path transform="matrix(.1,0,0,-.1,0,792)" stroke-width="20" stroke-linecap="butt" stroke-miterlimit="10" stroke-linejoin="miter" fill="none" stroke="#000000" d="M1130 567.5 575.602 337.898 1130-216.5Z"/>
<path transform="matrix(.1,0,0,-.1,0,792)" d="M4265.7 567.5V-216.5L4820 337.898" fill="#b0c4d9"/>
<path transform="matrix(.1,0,0,-.1,0,792)" stroke-width="20" stroke-linecap="butt" stroke-miterlimit="10" stroke-linejoin="miter" fill="none" stroke="#000000" d="M4265.7 567.5V-216.5L4820 337.898Z"/>
<path transform="matrix(.1,0,0,-.1,0,792)" d="M4265.7 567.5 3711.4 337.898 4265.7-216.5" fill="#788fbd"/>
<path transform="matrix(.1,0,0,-.1,0,792)" stroke-width="20" stroke-linecap="butt" stroke-miterlimit="10" stroke-linejoin="miter" fill="none" stroke="#000000" d="M4265.7 567.5 3711.4 337.898 4265.7-216.5Z"/>
<path transform="matrix(.1,0,0,-.1,0,792)" d="M3711.4 337.898 3481.8-216.5H4265.7" fill="#b0c4d9"/>
<path transform="matrix(.1,0,0,-.1,0,792)" stroke-width="20" stroke-linecap="butt" stroke-miterlimit="10" stroke-linejoin="miter" fill="none" stroke="#000000" d="M3711.4 337.898 3481.8-216.5H4265.7Z"/>
<path transform="matrix(.1,0,0,-.1,0,792)" d="M4820 337.898 4265.7-216.5H5049.6" fill="#788fbd"/>
<path transform="matrix(.1,0,0,-.1,0,792)" stroke-width="20" stroke-linecap="butt" stroke-miterlimit="10" stroke-linejoin="miter" fill="none" stroke="#000000" d="M4820 337.898 4265.7-216.5H5049.6Z"/>
<path transform="matrix(.1,0,0,-.1,0,792)" d="M575.602 337.898 346-216.5H1130" fill="#b0c4d9"/>
<path transform="matrix(.1,0,0,-.1,0,792)" stroke-width="20" stroke-linecap="butt" stroke-miterlimit="10" stroke-linejoin="miter" fill="none" stroke="#000000" d="M575.602 337.898 346-216.5H1130Z"/>
<path transform="matrix(.1,0,0,-.1,0,792)" d="M575.602 337.898 116.398 797.102-437.898 567.5V-216.5H346" fill="#c28c24"/>
<path transform="matrix(.1,0,0,-.1,0,792)" stroke-width="20" stroke-linecap="butt" stroke-miterlimit="10" stroke-linejoin="miter" fill="none" stroke="#000000" d="M575.602 337.898 116.398 797.102-437.898 567.5V-216.5H346Z"/>
<path transform="matrix(.1,0,0,-.1,0,792)" d="M1684.3 337.898 1130-216.5H1913.9" fill="#788fbd"/>
<path transform="matrix(.1,0,0,-.1,0,792)" stroke-width="20" stroke-linecap="butt" stroke-miterlimit="10" stroke-linejoin="miter" fill="none" stroke="#000000" d="M1684.3 337.898 1130-216.5H1913.9Z"/>
<path transform="matrix(.1,0,0,-.1,0,792)" d="M5833.6 567.5 6387.9 797.102 5833.6 1351.4" fill="#788fbd"/>
<path transform="matrix(.1,0,0,-.1,0,792)" stroke-width="20" stroke-linecap="butt" stroke-miterlimit="10" stroke-linejoin="miter" fill="none" stroke="#000000" d="M5833.6 567.5 6387.9 797.102 5833.6 1351.4Z"/>
<path transform="matrix(.1,0,0,-.1,0,792)" d="M5833.6 567.5V-216.5H6617.5L6847.1 337.898 6387.9 797.102" fill="#c28c24"/>
<path transform="matrix(.1,0,0,-.1,0,792)" stroke-width="20" stroke-linecap="butt" stroke-miterlimit="10" stroke-linejoin="miter" fill="none" stroke="#000000" d="M5833.6 567.5V-216.5H6617.5L6847.1 337.898 6387.9 797.102Z"/>
<path transform="matrix(.1,0,0,-.1,0,792)" d="M5833.6 1351.4 6387.9 1905.7 5833.6 2135.4" fill="#b0c4d9"/>
<path transform="matrix(.1,0,0,-.1,0,792)" stroke-width="20" stroke-linecap="butt" stroke-miterlimit="10" stroke-linejoin="miter" fill="none" stroke="#000000" d="M5833.6 1351.4 6387.9 1905.7 5833.6 2135.4Z"/>
<path transform="matrix(.1,0,0,-.1,0,792)" d="M5833.6 1351.4H6617.5L6387.9 1905.7" fill="#788fbd"/>
<path transform="matrix(.1,0,0,-.1,0,792)" stroke-width="20" stroke-linecap="butt" stroke-miterlimit="10" stroke-linejoin="miter" fill="none" stroke="#000000" d="M5833.6 1351.4H6617.5L6387.9 1905.7Z"/>
<path transform="matrix(.1,0,0,-.1,0,792)" d="M5833.6 1351.4 6387.9 797.102 6617.5 1351.4" fill="#b0c4d9"/>
<path transform="matrix(.1,0,0,-.1,0,792)" stroke-width="20" stroke-linecap="butt" stroke-miterlimit="10" stroke-linejoin="miter" fill="none" stroke="#000000" d="M5833.6 1351.4 6387.9 797.102 6617.5 1351.4Z"/>
<path transform="matrix(.1,0,0,-.1,0,792)" d="M5833.6 2135.4 6387.9 1905.7 6847.1 2365 6617.5 2919.3H5833.6" fill="#c28c24"/>
<path transform="matrix(.1,0,0,-.1,0,792)" stroke-width="20" stroke-linecap="butt" stroke-miterlimit="10" stroke-linejoin="miter" fill="none" stroke="#000000" d="M5833.6 2135.4 6387.9 1905.7 6847.1 2365 6617.5 2919.3H5833.6Z"/>
<path transform="matrix(.1,0,0,-.1,0,792)" d="M5833.6 2919.3H6617.5L6847.1 3473.6 6387.9 3932.8 5833.6 3703.2" fill="#c28c24"/>
<path transform="matrix(.1,0,0,-.1,0,792)" stroke-width="20" stroke-linecap="butt" stroke-miterlimit="10" stroke-linejoin="miter" fill="none" stroke="#000000" d="M5833.6 2919.3H6617.5L6847.1 3473.6 6387.9 3932.8 5833.6 3703.2Z"/>
<path transform="matrix(.1,0,0,-.1,0,792)" d="M5833.6 3703.2 6387.9 3932.8 5833.6 4487.2" fill="#788fbd"/>
<path transform="matrix(.1,0,0,-.1,0,792)" stroke-width="20" stroke-linecap="butt" stroke-miterlimit="10" stroke-linejoin="miter" fill="none" stroke="#000000" d="M5833.6 3703.2 6387.9 3932.8 5833.6 4487.2Z"/>
<path transform="matrix(.1,0,0,-.1,0,792)" d="M5833.6 4487.2 6387.9 5041.5 5833.6 5271.1" fill="#b0c4d9"/>
<path transform="matrix(.1,0,0,-.1,0,792)" stroke-width="20" stroke-linecap="butt" stroke-miterlimit="10" stroke-linejoin="miter" fill="none" stroke="#000000" d="M5833.6 4487.2 6387.9 5041.5 5833.6 5271.1Z"/>
<path transform="matrix(.1,0,0,-.1,0,792)" d="M5833.6 4487.2H6617.5L6387.9 5041.5" fill="#788fbd"/>
<path transform="matrix(.1,0,0,-.1,0,792)" stroke-width="20" stroke-linecap="butt" stroke-miterlimit="10" stroke-linejoin="miter" fill="none" stroke="#000000" d="M5833.6 4487.2H6617.5L6387.9 5041.5Z"/>
<path transform="matrix(.1,0,0,-.1,0,792)" d="M5833.6 4487.2 6387.9 3932.8 6617.5 4487.2" fill="#b0c4d9"/>
<path transform="matrix(.1,0,0,-.1,0,792)" stroke-width="20" stroke-linecap="butt" stroke-miterlimit="10" stroke-linejoin="miter" fill="none" stroke="#000000" d="M5833.6 4487.2 6387.9 3932.8 6617.5 4487.2Z"/>
<path transform="matrix(.1,0,0,-.1,0,792)" d="M5833.6 5271.1 6387.9 5041.5 6847.1 5500.7 6617.5 6055H5833.6" fill="#c28c24"/>
<path transform="matrix(.1,0,0,-.1,0,792)" stroke-width="20" stroke-linecap="butt" stroke-miterlimit="10" stroke-linejoin="miter" fill="none" stroke="#000000" d="M5833.6 5271.1 6387.9 5041.5 6847.1 5500.7 6617.5 6055H5833.6Z"/>
<path transform="matrix(.1,0,0,-.1,0,792)" d="M5833.6 6055H6617.5L6847.1 6609.4 6387.9 7068.6 5833.6 6839" fill="#c28c24"/>
<path transform="matrix(.1,0,0,-.1,0,792)" stroke-width="20" stroke-linecap="butt" stroke-miterlimit="10" stroke-linejoin="miter" fill="none" stroke="#000000" d="M5833.6 6055H6617.5L6847.1 6609.4 6387.9 7068.6 5833.6 6839Z"/>
<path transform="matrix(.1,0,0,-.1,0,792)" d="M5833.6 6839 6387.9 7068.6 5833.6 7622.9" fill="#788fbd"/>
<path transform="matrix(.1,0,0,-.1,0,792)" stroke-width="20" stroke-linecap="butt" stroke-miterlimit="10" stroke-linejoin="miter" fill="none" stroke="#000000" d="M5833.6 6839 6387.9 7068.6 5833.6 7622.9Z"/>
<path transform="matrix(.1,0,0,-.1,0,792)" d="M5833.6 7622.9V8406.9L5279.3 8177.2" fill="#788fbd"/>
<path transform="matrix(.1,0,0,-.1,0,792)" stroke-width="20" stroke-linecap="butt" stroke-miterlimit="10" stroke-linejoin="miter" fill="none" stroke="#000000" d="M5833.6 7622.9V8406.9L5279.3 8177.2Z"/>
<path transform="matrix(.1,0,0,-.1,0,792)" d="M5833.6 7622.9 6387.9 8177.2 5833.6 8406.9" fill="#b0c4d9"/>
<path transform="matrix(.1,0,0,-.1,0,792)" stroke-width="20" stroke-linecap="butt" stroke-miterlimit="10" stroke-linejoin="miter" fill="none" stroke="#000000" d="M5833.6 7622.9 6387.9 8177.2 5833.6 8406.9Z"/>
<path transform="matrix(.1,0,0,-.1,0,792)" d="M5833.6 7622.9H6617.5L6387.9 8177.2" fill="#788fbd"/>
<path transform="matrix(.1,0,0,-.1,0,792)" stroke-width="20" stroke-linecap="butt" stroke-miterlimit="10" stroke-linejoin="miter" fill="none" stroke="#000000" d="M5833.6 7622.9H6617.5L6387.9 8177.2Z"/>
<path transform="matrix(.1,0,0,-.1,0,792)" d="M5833.6 7622.9 6387.9 7068.6 6617.5 7622.9" fill="#b0c4d9"/>
<path transform="matrix(.1,0,0,-.1,0,792)" stroke-width="20" stroke-linecap="butt" stroke-miterlimit="10" stroke-linejoin="miter" fill="none" stroke="#000000" d="M5833.6 7622.9 6387.9 7068.6 6617.5 7622.9Z"/>
<path transform="matrix(.1,0,0,-.1,0,792)" d="M116.398 7068.6-437.898 7622.9V6839" fill="#788fbd"/>
<path transform="matrix(.1,0,0,-.1,0,792)" stroke-width="20" stroke-linecap="butt" stroke-miterlimit="10" stroke-linejoin="miter" fill="none" stroke="#000000" d="M116.398 7068.6-437.898 7622.9V6839Z"/>
<path transform="matrix(.1,0,0,-.1,0,792)" d="M116.398 5041.5-437.898 5271.1V4487.2" fill="#b0c4d9"/>
<path transform="matrix(.1,0,0,-.1,0,792)" stroke-width="20" stroke-linecap="butt" stroke-miterlimit="10" stroke-linejoin="miter" fill="none" stroke="#000000" d="M116.398 5041.5-437.898 5271.1V4487.2Z"/>
<path transform="matrix(.1,0,0,-.1,0,792)" d="M116.398 3932.8-437.898 4487.2V3703.2" fill="#788fbd"/>
<path transform="matrix(.1,0,0,-.1,0,792)" stroke-width="20" stroke-linecap="butt" stroke-miterlimit="10" stroke-linejoin="miter" fill="none" stroke="#000000" d="M116.398 3932.8-437.898 4487.2V3703.2Z"/>
<path transform="matrix(.1,0,0,-.1,0,792)" d="M116.398 1905.7-437.898 2135.4V1351.4" fill="#b0c4d9"/>
<path transform="matrix(.1,0,0,-.1,0,792)" stroke-width="20" stroke-linecap="butt" stroke-miterlimit="10" stroke-linejoin="miter" fill="none" stroke="#000000" d="M116.398 1905.7-437.898 2135.4V1351.4Z"/>
<path transform="matrix(.1,0,0,-.1,0,792)" d="M116.398 797.102-437.898 1351.4V567.5" fill="#788fbd"/>
<path transform="matrix(.1,0,0,-.1,0,792)" stroke-width="20" stroke-linecap="butt" stroke-miterlimit="10" stroke-linejoin="miter" fill="none" stroke="#000000" d="M116.398 797.102-437.898 1351.4V567.5Z"/>
<path transform="matrix(.1,0,0,-.1,0,792)" d="M116.398 8177.2-437.898 8406.9V7622.9" fill="#b0c4d9"/>
<path transform="matrix(.1,0,0,-.1,0,792)" stroke-width="20" stroke-linecap="butt" stroke-miterlimit="10" stroke-linejoin="miter" fill="none" stroke="#000000" d="M116.398 8177.2-437.898 8406.9V7622.9Z"/>
</svg>
