<svg xmlns="http://www.w3.org/2000/svg" xmlns:xlink="http://www.w3.org/1999/xlink" xmlns:inkscape="http://www.inkscape.org/namespaces/inkscape" version="1.1" width="612" height="792" viewBox="0 0 612 792">
<path transform="matrix(.1,0,0,-.1,0,792)" d="M3201.3 3663.7V3963.7H3501.3L3289.1 4175.9 3501.3 4388H3201.3V4688L2989.1 4475.9 2777 4688V4388H2477L2689.1 4175.9 2477 3963.7H2777V3663.7L2989.1 3875.9" fill="#301f42"/>
<path transform="matrix(.1,0,0,-.1,0,792)" stroke-width="5" stroke-linecap="butt" stroke-miterlimit="10" stroke-linejoin="miter" fill="none" stroke="#000000" d="M3201.3 3663.7V3963.7H3501.3L3289.1 4175.9 3501.3 4388H3201.3V4688L2989.1 4475.9 2777 4688V4388H2477L2689.1 4175.9 2477 3963.7H2777V3663.7L2989.1 3875.9Z"/>
<path transform="matrix(.1,0,0,-.1,0,792)" d="M2989.1 4475.9 3201.3 4688 2989.1 4900.1 2777 4688Z" fill="#ffffff"/>
<path transform="matrix(.1,0,0,-.1,0,792)" stroke-width="5" stroke-linecap="butt" stroke-miterlimit="10" stroke-linejoin="miter" fill="none" stroke="#000000" d="M2989.1 4475.9 3201.3 4688 2989.1 4900.1 2777 4688Z"/>
<path transform="matrix(.1,0,0,-.1,0,792)" d="M2477 4388H2777V4688H2477Z" fill="#ffffff"/>
<path transform="matrix(.1,0,0,-.1,0,792)" stroke-width="5" stroke-linecap="butt" stroke-miterlimit="10" stroke-linejoin="miter" fill="none" stroke="#000000" d="M2477 4388H2777V4688H2477Z"/>
<path transform="matrix(.1,0,0,-.1,0,792)" d="M2477 3663.7H2777V3963.7H2477Z" fill="#ffffff"/>
<path transform="matrix(.1,0,0,-.1,0,792)" stroke-width="5" stroke-linecap="butt" stroke-miterlimit="10" stroke-linejoin="miter" fill="none" stroke="#000000" d="M2477 3663.7H2777V3963.7H2477Z"/>
<path transform="matrix(.1,0,0,-.1,0,792)" d="M3201.3 3663.7H3501.3V3963.7H3201.3Z" fill="#ffffff"/>
<path transform="matrix(.1,0,0,-.1,0,792)" stroke-width="5" stroke-linecap="butt" stroke-miterlimit="10" stroke-linejoin="miter" fill="none" stroke="#000000" d="M3201.3 3663.7H3501.3V3963.7H3201.3Z"/>
<path transform="matrix(.1,0,0,-.1,0,792)" d="M3201.3 4388H3501.3V4688H3201.3Z" fill="#ffffff"/>
<path transform="matrix(.1,0,0,-.1,0,792)" stroke-width="5" stroke-linecap="butt" stroke-miterlimit="10" stroke-linejoin="miter" fill="none" stroke="#000000" d="M3201.3 4388H3501.3V4688H3201.3Z"/>
<path transform="matrix(.1,0,0,-.1,0,792)" d="M2989.1 3875.9 2777 3663.7 2989.1 3451.6 3201.3 3663.7Z" fill="#ffffff"/>
<path transform="matrix(.1,0,0,-.1,0,792)" stroke-width="5" stroke-linecap="butt" stroke-miterlimit="10" stroke-linejoin="miter" fill="none" stroke="#000000" d="M2989.1 3875.9 2777 3663.7 2989.1 3451.6 3201.3 3663.7Z"/>
<path transform="matrix(.1,0,0,-.1,0,792)" d="M2689.1 4175.9 2477 4388 2264.9 4175.9 2477 3963.7Z" fill="#ffffff"/>
<path transform="matrix(.1,0,0,-.1,0,792)" stroke-width="5" stroke-linecap="butt" stroke-miterlimit="10" stroke-linejoin="miter" fill="none" stroke="#000000" d="M2689.1 4175.9 2477 4388 2264.9 4175.9 2477 3963.7Z"/>
<path transform="matrix(.1,0,0,-.1,0,792)" d="M3289.1 4175.9 3501.3 3963.7 3713.4 4175.9 3501.3 4388Z" fill="#ffffff"/>
<path transform="matrix(.1,0,0,-.1,0,792)" stroke-width="5" stroke-linecap="butt" stroke-miterlimit="10" stroke-linejoin="miter" fill="none" stroke="#000000" d="M3289.1 4175.9 3501.3 3963.7 3713.4 4175.9 3501.3 4388Z"/>
<path transform="matrix(.1,0,0,-.1,0,792)" d="M3201.3 4688H3501.3V4388L3713.4 4175.9 3925.5 4388 4137.7 4175.9 4349.8 4388V4688H4649.8L4861.9 4900.1 4649.8 5112.3 4861.9 5324.4 4649.8 5536.5H4349.8V5836.5L4137.7 6048.7 3925.5 5836.5 3713.4 6048.7 3501.3 5836.5V5536.5H3201.3L2989.1 5324.4 3201.3 5112.3 2989.1 4900.1" fill="#a1382b"/>
<path transform="matrix(.1,0,0,-.1,0,792)" stroke-width="5" stroke-linecap="butt" stroke-miterlimit="10" stroke-linejoin="miter" fill="none" stroke="#000000" d="M3201.3 4688H3501.3V4388L3713.4 4175.9 3925.5 4388 4137.7 4175.9 4349.8 4388V4688H4649.8L4861.9 4900.1 4649.8 5112.3 4861.9 5324.4 4649.8 5536.5H4349.8V5836.5L4137.7 6048.7 3925.5 5836.5 3713.4 6048.7 3501.3 5836.5V5536.5H3201.3L2989.1 5324.4 3201.3 5112.3 2989.1 4900.1Z"/>
<path transform="matrix(.1,0,0,-.1,0,792)" d="M2777 4688 2989.1 4900.1 2777 5112.3 2989.1 5324.4 2777 5536.5H2477V5836.5L2264.9 6048.7 2052.7 5836.5 1840.6 6048.7 1628.5 5836.5V5536.5H1328.5L1116.3 5324.4 1328.5 5112.3 1116.3 4900.1 1328.5 4688H1628.5V4388L1840.6 4175.9 2052.7 4388 2264.9 4175.9 2477 4388V4688" fill="#a1382b"/>
<path transform="matrix(.1,0,0,-.1,0,792)" stroke-width="5" stroke-linecap="butt" stroke-miterlimit="10" stroke-linejoin="miter" fill="none" stroke="#000000" d="M2777 4688 2989.1 4900.1 2777 5112.3 2989.1 5324.4 2777 5536.5H2477V5836.5L2264.9 6048.7 2052.7 5836.5 1840.6 6048.7 1628.5 5836.5V5536.5H1328.5L1116.3 5324.4 1328.5 5112.3 1116.3 4900.1 1328.5 4688H1628.5V4388L1840.6 4175.9 2052.7 4388 2264.9 4175.9 2477 4388V4688Z"/>
<path transform="matrix(.1,0,0,-.1,0,792)" d="M2777 3663.7H2477V3963.7L2264.9 4175.9 2052.7 3963.7 1840.6 4175.9 1628.5 3963.7V3663.7H1328.5L1116.3 3451.6 1328.5 3239.5 1116.3 3027.3 1328.5 2815.2H1628.5V2515.2L1840.6 2303.1 2052.7 2515.2 2264.9 2303.1 2477 2515.2V2815.2H2777L2989.1 3027.3 2777 3239.5 2989.1 3451.6" fill="#a1382b"/>
<path transform="matrix(.1,0,0,-.1,0,792)" stroke-width="5" stroke-linecap="butt" stroke-miterlimit="10" stroke-linejoin="miter" fill="none" stroke="#000000" d="M2777 3663.7H2477V3963.7L2264.9 4175.9 2052.7 3963.7 1840.6 4175.9 1628.5 3963.7V3663.7H1328.5L1116.3 3451.6 1328.5 3239.5 1116.3 3027.3 1328.5 2815.2H1628.5V2515.2L1840.6 2303.1 2052.7 2515.2 2264.9 2303.1 2477 2515.2V2815.2H2777L2989.1 3027.3 2777 3239.5 2989.1 3451.6Z"/>
<path transform="matrix(.1,0,0,-.1,0,792)" d="M3201.3 3663.7 2989.1 3451.6 3201.3 3239.5 2989.1 3027.3 3201.3 2815.2H3501.3V2515.2L3713.4 2303.1 3925.5 2515.2 4137.7 2303.1 4349.8 2515.2V2815.2H4649.8L4861.9 3027.3 4649.8 3239.5 4861.9 3451.6 4649.8 3663.7H4349.8V3963.7L4137.7 4175.9 3925.5 3963.7 3713.4 4175.9 3501.3 3963.7V3663.7" fill="#a1382b"/>
<path transform="matrix(.1,0,0,-.1,0,792)" stroke-width="5" stroke-linecap="butt" stroke-miterlimit="10" stroke-linejoin="miter" fill="none" stroke="#000000" d="M3201.3 3663.7 2989.1 3451.6 3201.3 3239.5 2989.1 3027.3 3201.3 2815.2H3501.3V2515.2L3713.4 2303.1 3925.5 2515.2 4137.7 2303.1 4349.8 2515.2V2815.2H4649.8L4861.9 3027.3 4649.8 3239.5 4861.9 3451.6 4649.8 3663.7H4349.8V3963.7L4137.7 4175.9 3925.5 3963.7 3713.4 4175.9 3501.3 3963.7V3663.7Z"/>
<path transform="matrix(.1,0,0,-.1,0,792)" d="M2989.1 4900.1 3201.3 5112.3 2989.1 5324.4 2777 5112.3Z" fill="#ffffff"/>
<path transform="matrix(.1,0,0,-.1,0,792)" stroke-width="5" stroke-linecap="butt" stroke-miterlimit="10" stroke-linejoin="miter" fill="none" stroke="#000000" d="M2989.1 4900.1 3201.3 5112.3 2989.1 5324.4 2777 5112.3Z"/>
<path transform="matrix(.1,0,0,-.1,0,792)" d="M2989.1 3451.6 2777 3239.5 2989.1 3027.3 3201.3 3239.5Z" fill="#ffffff"/>
<path transform="matrix(.1,0,0,-.1,0,792)" stroke-width="5" stroke-linecap="butt" stroke-miterlimit="10" stroke-linejoin="miter" fill="none" stroke="#000000" d="M2989.1 3451.6 2777 3239.5 2989.1 3027.3 3201.3 3239.5Z"/>
<path transform="matrix(.1,0,0,-.1,0,792)" d="M2264.9 4175.9 2052.7 4388 1840.6 4175.9 2052.7 3963.7Z" fill="#ffffff"/>
<path transform="matrix(.1,0,0,-.1,0,792)" stroke-width="5" stroke-linecap="butt" stroke-miterlimit="10" stroke-linejoin="miter" fill="none" stroke="#000000" d="M2264.9 4175.9 2052.7 4388 1840.6 4175.9 2052.7 3963.7Z"/>
<path transform="matrix(.1,0,0,-.1,0,792)" d="M3713.4 4175.9 3925.5 3963.7 4137.7 4175.9 3925.5 4388Z" fill="#ffffff"/>
<path transform="matrix(.1,0,0,-.1,0,792)" stroke-width="5" stroke-linecap="butt" stroke-miterlimit="10" stroke-linejoin="miter" fill="none" stroke="#000000" d="M3713.4 4175.9 3925.5 3963.7 4137.7 4175.9 3925.5 4388Z"/>
<path transform="matrix(.1,0,0,-.1,0,792)" d="M2989.1 5324.4 3201.3 5536.5 2989.1 5748.7 2777 5536.5Z" fill="#ffffff"/>
<path transform="matrix(.1,0,0,-.1,0,792)" stroke-width="5" stroke-linecap="butt" stroke-miterlimit="10" stroke-linejoin="miter" fill="none" stroke="#000000" d="M2989.1 5324.4 3201.3 5536.5 2989.1 5748.7 2777 5536.5Z"/>
<path transform="matrix(.1,0,0,-.1,0,792)" d="M2989.1 3027.3 2777 2815.2 2989.1 2603.1 3201.3 2815.2Z" fill="#ffffff"/>
<path transform="matrix(.1,0,0,-.1,0,792)" stroke-width="5" stroke-linecap="butt" stroke-miterlimit="10" stroke-linejoin="miter" fill="none" stroke="#000000" d="M2989.1 3027.3 2777 2815.2 2989.1 2603.1 3201.3 2815.2Z"/>
<path transform="matrix(.1,0,0,-.1,0,792)" d="M3201.3 5536.5H3501.3V5836.5H3201.3Z" fill="#ffffff"/>
<path transform="matrix(.1,0,0,-.1,0,792)" stroke-width="5" stroke-linecap="butt" stroke-miterlimit="10" stroke-linejoin="miter" fill="none" stroke="#000000" d="M3201.3 5536.5H3501.3V5836.5H3201.3Z"/>
<path transform="matrix(.1,0,0,-.1,0,792)" d="M3201.3 5536.5V5836.5H3501.3L3289.1 6048.7 3501.3 6260.8H3201.3V6560.8L2989.1 6348.7 2777 6560.8V6260.8H2477L2689.1 6048.7 2477 5836.5H2777V5536.5L2989.1 5748.7" fill="#301f42"/>
<path transform="matrix(.1,0,0,-.1,0,792)" stroke-width="5" stroke-linecap="butt" stroke-miterlimit="10" stroke-linejoin="miter" fill="none" stroke="#000000" d="M3201.3 5536.5V5836.5H3501.3L3289.1 6048.7 3501.3 6260.8H3201.3V6560.8L2989.1 6348.7 2777 6560.8V6260.8H2477L2689.1 6048.7 2477 5836.5H2777V5536.5L2989.1 5748.7Z"/>
<path transform="matrix(.1,0,0,-.1,0,792)" d="M2477 5536.5H2777V5836.5H2477Z" fill="#ffffff"/>
<path transform="matrix(.1,0,0,-.1,0,792)" stroke-width="5" stroke-linecap="butt" stroke-miterlimit="10" stroke-linejoin="miter" fill="none" stroke="#000000" d="M2477 5536.5H2777V5836.5H2477Z"/>
<path transform="matrix(.1,0,0,-.1,0,792)" d="M2477 2515.2H2777V2815.2H2477Z" fill="#ffffff"/>
<path transform="matrix(.1,0,0,-.1,0,792)" stroke-width="5" stroke-linecap="butt" stroke-miterlimit="10" stroke-linejoin="miter" fill="none" stroke="#000000" d="M2477 2515.2H2777V2815.2H2477Z"/>
<path transform="matrix(.1,0,0,-.1,0,792)" d="M2777 2815.2V2515.2H2477L2689.1 2303.1 2477 2090.9H2777V1790.9L2989.1 2003.1 3201.3 1790.9V2090.9H3501.3L3289.1 2303.1 3501.3 2515.2H3201.3V2815.2L2989.1 2603.1" fill="#301f42"/>
<path transform="matrix(.1,0,0,-.1,0,792)" stroke-width="5" stroke-linecap="butt" stroke-miterlimit="10" stroke-linejoin="miter" fill="none" stroke="#000000" d="M2777 2815.2V2515.2H2477L2689.1 2303.1 2477 2090.9H2777V1790.9L2989.1 2003.1 3201.3 1790.9V2090.9H3501.3L3289.1 2303.1 3501.3 2515.2H3201.3V2815.2L2989.1 2603.1Z"/>
<path transform="matrix(.1,0,0,-.1,0,792)" d="M3201.3 2515.2H3501.3V2815.2H3201.3Z" fill="#ffffff"/>
<path transform="matrix(.1,0,0,-.1,0,792)" stroke-width="5" stroke-linecap="butt" stroke-miterlimit="10" stroke-linejoin="miter" fill="none" stroke="#000000" d="M3201.3 2515.2H3501.3V2815.2H3201.3Z"/>
<path transform="matrix(.1,0,0,-.1,0,792)" d="M1840.6 4175.9 1628.5 4388 1416.3 4175.9 1628.5 3963.7Z" fill="#ffffff"/>
<path transform="matrix(.1,0,0,-.1,0,792)" stroke-width="5" stroke-linecap="butt" stroke-miterlimit="10" stroke-linejoin="miter" fill="none" stroke="#000000" d="M1840.6 4175.9 1628.5 4388 1416.3 4175.9 1628.5 3963.7Z"/>
<path transform="matrix(.1,0,0,-.1,0,792)" d="M4137.7 4175.9 4349.8 3963.7 4561.9 4175.9 4349.8 4388Z" fill="#ffffff"/>
<path transform="matrix(.1,0,0,-.1,0,792)" stroke-width="5" stroke-linecap="butt" stroke-miterlimit="10" stroke-linejoin="miter" fill="none" stroke="#000000" d="M4137.7 4175.9 4349.8 3963.7 4561.9 4175.9 4349.8 4388Z"/>
<path transform="matrix(.1,0,0,-.1,0,792)" d="M3925.5 5836.5 4137.7 6048.7 3925.5 6260.8 3713.4 6048.7Z" fill="#ffffff"/>
<path transform="matrix(.1,0,0,-.1,0,792)" stroke-width="5" stroke-linecap="butt" stroke-miterlimit="10" stroke-linejoin="miter" fill="none" stroke="#000000" d="M3925.5 5836.5 4137.7 6048.7 3925.5 6260.8 3713.4 6048.7Z"/>
<path transform="matrix(.1,0,0,-.1,0,792)" d="M3501.3 5836.5 3713.4 6048.7 3501.3 6260.8 3289.1 6048.7Z" fill="#ffffff"/>
<path transform="matrix(.1,0,0,-.1,0,792)" stroke-width="5" stroke-linecap="butt" stroke-miterlimit="10" stroke-linejoin="miter" fill="none" stroke="#000000" d="M3501.3 5836.5 3713.4 6048.7 3501.3 6260.8 3289.1 6048.7Z"/>
<path transform="matrix(.1,0,0,-.1,0,792)" d="M2477 5836.5 2689.1 6048.7 2477 6260.8 2264.9 6048.7Z" fill="#ffffff"/>
<path transform="matrix(.1,0,0,-.1,0,792)" stroke-width="5" stroke-linecap="butt" stroke-miterlimit="10" stroke-linejoin="miter" fill="none" stroke="#000000" d="M2477 5836.5 2689.1 6048.7 2477 6260.8 2264.9 6048.7Z"/>
<path transform="matrix(.1,0,0,-.1,0,792)" d="M2052.7 5836.5 2264.9 6048.7 2052.7 6260.8 1840.6 6048.7Z" fill="#ffffff"/>
<path transform="matrix(.1,0,0,-.1,0,792)" stroke-width="5" stroke-linecap="butt" stroke-miterlimit="10" stroke-linejoin="miter" fill="none" stroke="#000000" d="M2052.7 5836.5 2264.9 6048.7 2052.7 6260.8 1840.6 6048.7Z"/>
<path transform="matrix(.1,0,0,-.1,0,792)" d="M2052.7 2515.2 1840.6 2303.1 2052.7 2090.9 2264.9 2303.1Z" fill="#ffffff"/>
<path transform="matrix(.1,0,0,-.1,0,792)" stroke-width="5" stroke-linecap="butt" stroke-miterlimit="10" stroke-linejoin="miter" fill="none" stroke="#000000" d="M2052.7 2515.2 1840.6 2303.1 2052.7 2090.9 2264.9 2303.1Z"/>
<path transform="matrix(.1,0,0,-.1,0,792)" d="M2477 2515.2 2264.9 2303.1 2477 2090.9 2689.1 2303.1Z" fill="#ffffff"/>
<path transform="matrix(.1,0,0,-.1,0,792)" stroke-width="5" stroke-linecap="butt" stroke-miterlimit="10" stroke-linejoin="miter" fill="none" stroke="#000000" d="M2477 2515.2 2264.9 2303.1 2477 2090.9 2689.1 2303.1Z"/>
<path transform="matrix(.1,0,0,-.1,0,792)" d="M3501.3 2515.2 3289.1 2303.1 3501.3 2090.9 3713.4 2303.1Z" fill="#ffffff"/>
<path transform="matrix(.1,0,0,-.1,0,792)" stroke-width="5" stroke-linecap="butt" stroke-miterlimit="10" stroke-linejoin="miter" fill="none" stroke="#000000" d="M3501.3 2515.2 3289.1 2303.1 3501.3 2090.9 3713.4 2303.1Z"/>
<path transform="matrix(.1,0,0,-.1,0,792)" d="M3925.5 2515.2 3713.4 2303.1 3925.5 2090.9 4137.7 2303.1Z" fill="#ffffff"/>
<path transform="matrix(.1,0,0,-.1,0,792)" stroke-width="5" stroke-linecap="butt" stroke-miterlimit="10" stroke-linejoin="miter" fill="none" stroke="#000000" d="M3925.5 2515.2 3713.4 2303.1 3925.5 2090.9 4137.7 2303.1Z"/>
<path transform="matrix(.1,0,0,-.1,0,792)" d="M4137.7 6048.7 4349.8 6260.8V6560.8H4649.8L4861.9 6772.9 4649.8 6985 4861.9 7197.2 4649.8 7409.3H4349.8V7709.3L4137.7 7921.4 3925.5 7709.3 3713.4 7921.4 3501.3 7709.3V7409.3H3201.3L2989.1 7197.2 3201.3 6985 2989.1 6772.9 3201.3 6560.8H3501.3V6260.8L3713.4 6048.7 3925.5 6260.8" fill="#a1382b"/>
<path transform="matrix(.1,0,0,-.1,0,792)" stroke-width="5" stroke-linecap="butt" stroke-miterlimit="10" stroke-linejoin="miter" fill="none" stroke="#000000" d="M4137.7 6048.7 4349.8 6260.8V6560.8H4649.8L4861.9 6772.9 4649.8 6985 4861.9 7197.2 4649.8 7409.3H4349.8V7709.3L4137.7 7921.4 3925.5 7709.3 3713.4 7921.4 3501.3 7709.3V7409.3H3201.3L2989.1 7197.2 3201.3 6985 2989.1 6772.9 3201.3 6560.8H3501.3V6260.8L3713.4 6048.7 3925.5 6260.8Z"/>
<path transform="matrix(.1,0,0,-.1,0,792)" d="M4137.7 6048.7 4349.8 5836.5 4561.9 6048.7 4349.8 6260.8Z" fill="#ffffff"/>
<path transform="matrix(.1,0,0,-.1,0,792)" stroke-width="5" stroke-linecap="butt" stroke-miterlimit="10" stroke-linejoin="miter" fill="none" stroke="#000000" d="M4137.7 6048.7 4349.8 5836.5 4561.9 6048.7 4349.8 6260.8Z"/>
<path transform="matrix(.1,0,0,-.1,0,792)" d="M2264.9 6048.7 2477 6260.8V6560.8H2777L2989.1 6772.9 2777 6985 2989.1 7197.2 2777 7409.3H2477V7709.3L2264.9 7921.4 2052.7 7709.3 1840.6 7921.4 1628.5 7709.3V7409.3H1328.5L1116.3 7197.2 1328.5 6985 1116.3 6772.9 1328.5 6560.8H1628.5V6260.8L1840.6 6048.7 2052.7 6260.8" fill="#a1382b"/>
<path transform="matrix(.1,0,0,-.1,0,792)" stroke-width="5" stroke-linecap="butt" stroke-miterlimit="10" stroke-linejoin="miter" fill="none" stroke="#000000" d="M2264.9 6048.7 2477 6260.8V6560.8H2777L2989.1 6772.9 2777 6985 2989.1 7197.2 2777 7409.3H2477V7709.3L2264.9 7921.4 2052.7 7709.3 1840.6 7921.4 1628.5 7709.3V7409.3H1328.5L1116.3 7197.2 1328.5 6985 1116.3 6772.9 1328.5 6560.8H1628.5V6260.8L1840.6 6048.7 2052.7 6260.8Z"/>
<path transform="matrix(.1,0,0,-.1,0,792)" d="M1840.6 6048.7 1628.5 6260.8 1416.3 6048.7 1628.5 5836.5Z" fill="#ffffff"/>
<path transform="matrix(.1,0,0,-.1,0,792)" stroke-width="5" stroke-linecap="butt" stroke-miterlimit="10" stroke-linejoin="miter" fill="none" stroke="#000000" d="M1840.6 6048.7 1628.5 6260.8 1416.3 6048.7 1628.5 5836.5Z"/>
<path transform="matrix(.1,0,0,-.1,0,792)" d="M1328.5 5536.5H1628.5V5836.5H1328.5Z" fill="#ffffff"/>
<path transform="matrix(.1,0,0,-.1,0,792)" stroke-width="5" stroke-linecap="butt" stroke-miterlimit="10" stroke-linejoin="miter" fill="none" stroke="#000000" d="M1328.5 5536.5H1628.5V5836.5H1328.5Z"/>
<path transform="matrix(.1,0,0,-.1,0,792)" d="M1628.5 5836.5 1416.3 6048.7 1628.5 6260.8H1328.5V6560.8L1116.3 6348.7 904.199 6560.8V6260.8H604.199L816.301 6048.7 604.199 5836.5H904.199V5536.5L1116.3 5748.7 1328.5 5536.5V5836.5" fill="#301f42"/>
<path transform="matrix(.1,0,0,-.1,0,792)" stroke-width="5" stroke-linecap="butt" stroke-miterlimit="10" stroke-linejoin="miter" fill="none" stroke="#000000" d="M1628.5 5836.5 1416.3 6048.7 1628.5 6260.8H1328.5V6560.8L1116.3 6348.7 904.199 6560.8V6260.8H604.199L816.301 6048.7 604.199 5836.5H904.199V5536.5L1116.3 5748.7 1328.5 5536.5V5836.5Z"/>
<path transform="matrix(.1,0,0,-.1,0,792)" d="M1328.5 4388H1628.5V4688H1328.5Z" fill="#ffffff"/>
<path transform="matrix(.1,0,0,-.1,0,792)" stroke-width="5" stroke-linecap="butt" stroke-miterlimit="10" stroke-linejoin="miter" fill="none" stroke="#000000" d="M1328.5 4388H1628.5V4688H1328.5Z"/>
<path transform="matrix(.1,0,0,-.1,0,792)" d="M1628.5 4388H1328.5V4688L1116.3 4475.9 904.199 4688V4388H604.199L816.301 4175.9 604.199 3963.7H904.199V3663.7L1116.3 3875.9 1328.5 3663.7V3963.7H1628.5L1416.3 4175.9" fill="#301f42"/>
<path transform="matrix(.1,0,0,-.1,0,792)" stroke-width="5" stroke-linecap="butt" stroke-miterlimit="10" stroke-linejoin="miter" fill="none" stroke="#000000" d="M1628.5 4388H1328.5V4688L1116.3 4475.9 904.199 4688V4388H604.199L816.301 4175.9 604.199 3963.7H904.199V3663.7L1116.3 3875.9 1328.5 3663.7V3963.7H1628.5L1416.3 4175.9Z"/>
<path transform="matrix(.1,0,0,-.1,0,792)" d="M1328.5 3663.7H1628.5V3963.7H1328.5Z" fill="#ffffff"/>
<path transform="matrix(.1,0,0,-.1,0,792)" stroke-width="5" stroke-linecap="butt" stroke-miterlimit="10" stroke-linejoin="miter" fill="none" stroke="#000000" d="M1328.5 3663.7H1628.5V3963.7H1328.5Z"/>
<path transform="matrix(.1,0,0,-.1,0,792)" d="M1328.5 2515.2H1628.5V2815.2H1328.5Z" fill="#ffffff"/>
<path transform="matrix(.1,0,0,-.1,0,792)" stroke-width="5" stroke-linecap="butt" stroke-miterlimit="10" stroke-linejoin="miter" fill="none" stroke="#000000" d="M1328.5 2515.2H1628.5V2815.2H1328.5Z"/>
<path transform="matrix(.1,0,0,-.1,0,792)" d="M1628.5 2515.2 1416.3 2303.1 1628.5 2090.9 1840.6 2303.1Z" fill="#ffffff"/>
<path transform="matrix(.1,0,0,-.1,0,792)" stroke-width="5" stroke-linecap="butt" stroke-miterlimit="10" stroke-linejoin="miter" fill="none" stroke="#000000" d="M1628.5 2515.2 1416.3 2303.1 1628.5 2090.9 1840.6 2303.1Z"/>
<path transform="matrix(.1,0,0,-.1,0,792)" d="M1628.5 2515.2H1328.5V2815.2L1116.3 2603.1 904.199 2815.2V2515.2H604.199L816.301 2303.1 604.199 2090.9H904.199V1790.9L1116.3 2003.1 1328.5 1790.9V2090.9H1628.5L1416.3 2303.1" fill="#301f42"/>
<path transform="matrix(.1,0,0,-.1,0,792)" stroke-width="5" stroke-linecap="butt" stroke-miterlimit="10" stroke-linejoin="miter" fill="none" stroke="#000000" d="M1628.5 2515.2H1328.5V2815.2L1116.3 2603.1 904.199 2815.2V2515.2H604.199L816.301 2303.1 604.199 2090.9H904.199V1790.9L1116.3 2003.1 1328.5 1790.9V2090.9H1628.5L1416.3 2303.1Z"/>
<path transform="matrix(.1,0,0,-.1,0,792)" d="M4349.8 2515.2H4649.8V2815.2H4349.8Z" fill="#ffffff"/>
<path transform="matrix(.1,0,0,-.1,0,792)" stroke-width="5" stroke-linecap="butt" stroke-miterlimit="10" stroke-linejoin="miter" fill="none" stroke="#000000" d="M4349.8 2515.2H4649.8V2815.2H4349.8Z"/>
<path transform="matrix(.1,0,0,-.1,0,792)" d="M4349.8 2515.2 4561.9 2303.1 4349.8 2090.9H4649.8V1790.9L4861.9 2003.1 5074.1 1790.9V2090.9H5374.1L5161.9 2303.1 5374.1 2515.2H5074.1V2815.2L4861.9 2603.1 4649.8 2815.2V2515.2" fill="#301f42"/>
<path transform="matrix(.1,0,0,-.1,0,792)" stroke-width="5" stroke-linecap="butt" stroke-miterlimit="10" stroke-linejoin="miter" fill="none" stroke="#000000" d="M4349.8 2515.2 4561.9 2303.1 4349.8 2090.9H4649.8V1790.9L4861.9 2003.1 5074.1 1790.9V2090.9H5374.1L5161.9 2303.1 5374.1 2515.2H5074.1V2815.2L4861.9 2603.1 4649.8 2815.2V2515.2Z"/>
<path transform="matrix(.1,0,0,-.1,0,792)" d="M4349.8 2515.2 4137.7 2303.1 4349.8 2090.9 4561.9 2303.1Z" fill="#ffffff"/>
<path transform="matrix(.1,0,0,-.1,0,792)" stroke-width="5" stroke-linecap="butt" stroke-miterlimit="10" stroke-linejoin="miter" fill="none" stroke="#000000" d="M4349.8 2515.2 4137.7 2303.1 4349.8 2090.9 4561.9 2303.1Z"/>
<path transform="matrix(.1,0,0,-.1,0,792)" d="M4349.8 3663.7H4649.8V3963.7H4349.8Z" fill="#ffffff"/>
<path transform="matrix(.1,0,0,-.1,0,792)" stroke-width="5" stroke-linecap="butt" stroke-miterlimit="10" stroke-linejoin="miter" fill="none" stroke="#000000" d="M4349.8 3663.7H4649.8V3963.7H4349.8Z"/>
<path transform="matrix(.1,0,0,-.1,0,792)" d="M4349.8 3963.7H4649.8V3663.7L4861.9 3875.9 5074.1 3663.7V3963.7H5374.1L5161.9 4175.9 5374.1 4388H5074.1V4688L4861.9 4475.9 4649.8 4688V4388H4349.8L4561.9 4175.9" fill="#301f42"/>
<path transform="matrix(.1,0,0,-.1,0,792)" stroke-width="5" stroke-linecap="butt" stroke-miterlimit="10" stroke-linejoin="miter" fill="none" stroke="#000000" d="M4349.8 3963.7H4649.8V3663.7L4861.9 3875.9 5074.1 3663.7V3963.7H5374.1L5161.9 4175.9 5374.1 4388H5074.1V4688L4861.9 4475.9 4649.8 4688V4388H4349.8L4561.9 4175.9Z"/>
<path transform="matrix(.1,0,0,-.1,0,792)" d="M4349.8 4388H4649.8V4688H4349.8Z" fill="#ffffff"/>
<path transform="matrix(.1,0,0,-.1,0,792)" stroke-width="5" stroke-linecap="butt" stroke-miterlimit="10" stroke-linejoin="miter" fill="none" stroke="#000000" d="M4349.8 4388H4649.8V4688H4349.8Z"/>
<path transform="matrix(.1,0,0,-.1,0,792)" d="M4349.8 5536.5H4649.8V5836.5H4349.8Z" fill="#ffffff"/>
<path transform="matrix(.1,0,0,-.1,0,792)" stroke-width="5" stroke-linecap="butt" stroke-miterlimit="10" stroke-linejoin="miter" fill="none" stroke="#000000" d="M4349.8 5536.5H4649.8V5836.5H4349.8Z"/>
<path transform="matrix(.1,0,0,-.1,0,792)" d="M4349.8 5836.5H4649.8V5536.5L4861.9 5748.7 5074.1 5536.5V5836.5H5374.1L5161.9 6048.7 5374.1 6260.8H5074.1V6560.8L4861.9 6348.7 4649.8 6560.8V6260.8H4349.8L4561.9 6048.7" fill="#301f42"/>
<path transform="matrix(.1,0,0,-.1,0,792)" stroke-width="5" stroke-linecap="butt" stroke-miterlimit="10" stroke-linejoin="miter" fill="none" stroke="#000000" d="M4349.8 5836.5H4649.8V5536.5L4861.9 5748.7 5074.1 5536.5V5836.5H5374.1L5161.9 6048.7 5374.1 6260.8H5074.1V6560.8L4861.9 6348.7 4649.8 6560.8V6260.8H4349.8L4561.9 6048.7Z"/>
<path transform="matrix(.1,0,0,-.1,0,792)" d="M1840.6 2303.1 1628.5 2090.9V1790.9H1328.5L1116.3 1578.8 1328.5 1366.7 1116.3 1154.5 1328.5 942.398H1628.5V642.398L1840.6 430.301 2052.7 642.398 2264.9 430.301 2477 642.398V942.398H2777L2989.1 1154.5 2777 1366.7 2989.1 1578.8 2777 1790.9H2477V2090.9L2264.9 2303.1 2052.7 2090.9" fill="#a1382b"/>
<path transform="matrix(.1,0,0,-.1,0,792)" stroke-width="5" stroke-linecap="butt" stroke-miterlimit="10" stroke-linejoin="miter" fill="none" stroke="#000000" d="M1840.6 2303.1 1628.5 2090.9V1790.9H1328.5L1116.3 1578.8 1328.5 1366.7 1116.3 1154.5 1328.5 942.398H1628.5V642.398L1840.6 430.301 2052.7 642.398 2264.9 430.301 2477 642.398V942.398H2777L2989.1 1154.5 2777 1366.7 2989.1 1578.8 2777 1790.9H2477V2090.9L2264.9 2303.1 2052.7 2090.9Z"/>
<path transform="matrix(.1,0,0,-.1,0,792)" d="M3713.4 2303.1 3501.3 2090.9V1790.9H3201.3L2989.1 1578.8 3201.3 1366.7 2989.1 1154.5 3201.3 942.398H3501.3V642.398L3713.4 430.301 3925.5 642.398 4137.7 430.301 4349.8 642.398V942.398H4649.8L4861.9 1154.5 4649.8 1366.7 4861.9 1578.8 4649.8 1790.9H4349.8V2090.9L4137.7 2303.1 3925.5 2090.9" fill="#a1382b"/>
<path transform="matrix(.1,0,0,-.1,0,792)" stroke-width="5" stroke-linecap="butt" stroke-miterlimit="10" stroke-linejoin="miter" fill="none" stroke="#000000" d="M3713.4 2303.1 3501.3 2090.9V1790.9H3201.3L2989.1 1578.8 3201.3 1366.7 2989.1 1154.5 3201.3 942.398H3501.3V642.398L3713.4 430.301 3925.5 642.398 4137.7 430.301 4349.8 642.398V942.398H4649.8L4861.9 1154.5 4649.8 1366.7 4861.9 1578.8 4649.8 1790.9H4349.8V2090.9L4137.7 2303.1 3925.5 2090.9Z"/>
<path transform="matrix(.1,0,0,-.1,0,792)" d="M4349.8 6260.8H4649.8V6560.8H4349.8Z" fill="#ffffff"/>
<path transform="matrix(.1,0,0,-.1,0,792)" stroke-width="5" stroke-linecap="butt" stroke-miterlimit="10" stroke-linejoin="miter" fill="none" stroke="#000000" d="M4349.8 6260.8H4649.8V6560.8H4349.8Z"/>
<path transform="matrix(.1,0,0,-.1,0,792)" d="M3201.3 6260.8H3501.3V6560.8H3201.3Z" fill="#ffffff"/>
<path transform="matrix(.1,0,0,-.1,0,792)" stroke-width="5" stroke-linecap="butt" stroke-miterlimit="10" stroke-linejoin="miter" fill="none" stroke="#000000" d="M3201.3 6260.8H3501.3V6560.8H3201.3Z"/>
<path transform="matrix(.1,0,0,-.1,0,792)" d="M2477 6260.8H2777V6560.8H2477Z" fill="#ffffff"/>
<path transform="matrix(.1,0,0,-.1,0,792)" stroke-width="5" stroke-linecap="butt" stroke-miterlimit="10" stroke-linejoin="miter" fill="none" stroke="#000000" d="M2477 6260.8H2777V6560.8H2477Z"/>
<path transform="matrix(.1,0,0,-.1,0,792)" d="M1328.5 6260.8H1628.5V6560.8H1328.5Z" fill="#ffffff"/>
<path transform="matrix(.1,0,0,-.1,0,792)" stroke-width="5" stroke-linecap="butt" stroke-miterlimit="10" stroke-linejoin="miter" fill="none" stroke="#000000" d="M1328.5 6260.8H1628.5V6560.8H1328.5Z"/>
<path transform="matrix(.1,0,0,-.1,0,792)" d="M1328.5 1790.9H1628.5V2090.9H1328.5Z" fill="#ffffff"/>
<path transform="matrix(.1,0,0,-.1,0,792)" stroke-width="5" stroke-linecap="butt" stroke-miterlimit="10" stroke-linejoin="miter" fill="none" stroke="#000000" d="M1328.5 1790.9H1628.5V2090.9H1328.5Z"/>
<path transform="matrix(.1,0,0,-.1,0,792)" d="M2477 1790.9H2777V2090.9H2477Z" fill="#ffffff"/>
<path transform="matrix(.1,0,0,-.1,0,792)" stroke-width="5" stroke-linecap="butt" stroke-miterlimit="10" stroke-linejoin="miter" fill="none" stroke="#000000" d="M2477 1790.9H2777V2090.9H2477Z"/>
<path transform="matrix(.1,0,0,-.1,0,792)" d="M3201.3 1790.9H3501.3V2090.9H3201.3Z" fill="#ffffff"/>
<path transform="matrix(.1,0,0,-.1,0,792)" stroke-width="5" stroke-linecap="butt" stroke-miterlimit="10" stroke-linejoin="miter" fill="none" stroke="#000000" d="M3201.3 1790.9H3501.3V2090.9H3201.3Z"/>
<path transform="matrix(.1,0,0,-.1,0,792)" d="M4349.8 1790.9H4649.8V2090.9H4349.8Z" fill="#ffffff"/>
<path transform="matrix(.1,0,0,-.1,0,792)" stroke-width="5" stroke-linecap="butt" stroke-miterlimit="10" stroke-linejoin="miter" fill="none" stroke="#000000" d="M4349.8 1790.9H4649.8V2090.9H4349.8Z"/>
<path transform="matrix(.1,0,0,-.1,0,792)" d="M2989.1 6348.7 3201.3 6560.8 2989.1 6772.9 2777 6560.8Z" fill="#ffffff"/>
<path transform="matrix(.1,0,0,-.1,0,792)" stroke-width="5" stroke-linecap="butt" stroke-miterlimit="10" stroke-linejoin="miter" fill="none" stroke="#000000" d="M2989.1 6348.7 3201.3 6560.8 2989.1 6772.9 2777 6560.8Z"/>
<path transform="matrix(.1,0,0,-.1,0,792)" d="M2989.1 2003.1 2777 1790.9 2989.1 1578.8 3201.3 1790.9Z" fill="#ffffff"/>
<path transform="matrix(.1,0,0,-.1,0,792)" stroke-width="5" stroke-linecap="butt" stroke-miterlimit="10" stroke-linejoin="miter" fill="none" stroke="#000000" d="M2989.1 2003.1 2777 1790.9 2989.1 1578.8 3201.3 1790.9Z"/>
<path transform="matrix(.1,0,0,-.1,0,792)" d="M1328.5 5536.5 1116.3 5748.7 904.199 5536.5 1116.3 5324.4Z" fill="#ffffff"/>
<path transform="matrix(.1,0,0,-.1,0,792)" stroke-width="5" stroke-linecap="butt" stroke-miterlimit="10" stroke-linejoin="miter" fill="none" stroke="#000000" d="M1328.5 5536.5 1116.3 5748.7 904.199 5536.5 1116.3 5324.4Z"/>
<path transform="matrix(.1,0,0,-.1,0,792)" d="M1328.5 5112.3 1116.3 5324.4 904.199 5112.3 1116.3 4900.1Z" fill="#ffffff"/>
<path transform="matrix(.1,0,0,-.1,0,792)" stroke-width="5" stroke-linecap="butt" stroke-miterlimit="10" stroke-linejoin="miter" fill="none" stroke="#000000" d="M1328.5 5112.3 1116.3 5324.4 904.199 5112.3 1116.3 4900.1Z"/>
<path transform="matrix(.1,0,0,-.1,0,792)" d="M1328.5 4688 1116.3 4900.1 904.199 4688 1116.3 4475.9Z" fill="#ffffff"/>
<path transform="matrix(.1,0,0,-.1,0,792)" stroke-width="5" stroke-linecap="butt" stroke-miterlimit="10" stroke-linejoin="miter" fill="none" stroke="#000000" d="M1328.5 4688 1116.3 4900.1 904.199 4688 1116.3 4475.9Z"/>
<path transform="matrix(.1,0,0,-.1,0,792)" d="M1328.5 3663.7 1116.3 3875.9 904.199 3663.7 1116.3 3451.6Z" fill="#ffffff"/>
<path transform="matrix(.1,0,0,-.1,0,792)" stroke-width="5" stroke-linecap="butt" stroke-miterlimit="10" stroke-linejoin="miter" fill="none" stroke="#000000" d="M1328.5 3663.7 1116.3 3875.9 904.199 3663.7 1116.3 3451.6Z"/>
<path transform="matrix(.1,0,0,-.1,0,792)" d="M1328.5 3239.5 1116.3 3451.6 904.199 3239.5 1116.3 3027.3Z" fill="#ffffff"/>
<path transform="matrix(.1,0,0,-.1,0,792)" stroke-width="5" stroke-linecap="butt" stroke-miterlimit="10" stroke-linejoin="miter" fill="none" stroke="#000000" d="M1328.5 3239.5 1116.3 3451.6 904.199 3239.5 1116.3 3027.3Z"/>
<path transform="matrix(.1,0,0,-.1,0,792)" d="M1328.5 2815.2 1116.3 3027.3 904.199 2815.2 1116.3 2603.1Z" fill="#ffffff"/>
<path transform="matrix(.1,0,0,-.1,0,792)" stroke-width="5" stroke-linecap="butt" stroke-miterlimit="10" stroke-linejoin="miter" fill="none" stroke="#000000" d="M1328.5 2815.2 1116.3 3027.3 904.199 2815.2 1116.3 2603.1Z"/>
<path transform="matrix(.1,0,0,-.1,0,792)" d="M4649.8 2815.2 4861.9 2603.1 5074.1 2815.2 4861.9 3027.3Z" fill="#ffffff"/>
<path transform="matrix(.1,0,0,-.1,0,792)" stroke-width="5" stroke-linecap="butt" stroke-miterlimit="10" stroke-linejoin="miter" fill="none" stroke="#000000" d="M4649.8 2815.2 4861.9 2603.1 5074.1 2815.2 4861.9 3027.3Z"/>
<path transform="matrix(.1,0,0,-.1,0,792)" d="M4649.8 3239.5 4861.9 3027.3 5074.1 3239.5 4861.9 3451.6Z" fill="#ffffff"/>
<path transform="matrix(.1,0,0,-.1,0,792)" stroke-width="5" stroke-linecap="butt" stroke-miterlimit="10" stroke-linejoin="miter" fill="none" stroke="#000000" d="M4649.8 3239.5 4861.9 3027.3 5074.1 3239.5 4861.9 3451.6Z"/>
<path transform="matrix(.1,0,0,-.1,0,792)" d="M4649.8 3663.7 4861.9 3451.6 5074.1 3663.7 4861.9 3875.9Z" fill="#ffffff"/>
<path transform="matrix(.1,0,0,-.1,0,792)" stroke-width="5" stroke-linecap="butt" stroke-miterlimit="10" stroke-linejoin="miter" fill="none" stroke="#000000" d="M4649.8 3663.7 4861.9 3451.6 5074.1 3663.7 4861.9 3875.9Z"/>
<path transform="matrix(.1,0,0,-.1,0,792)" d="M4649.8 4688 4861.9 4475.9 5074.1 4688 4861.9 4900.1Z" fill="#ffffff"/>
<path transform="matrix(.1,0,0,-.1,0,792)" stroke-width="5" stroke-linecap="butt" stroke-miterlimit="10" stroke-linejoin="miter" fill="none" stroke="#000000" d="M4649.8 4688 4861.9 4475.9 5074.1 4688 4861.9 4900.1Z"/>
<path transform="matrix(.1,0,0,-.1,0,792)" d="M4649.8 5112.3 4861.9 4900.1 5074.1 5112.3 4861.9 5324.4Z" fill="#ffffff"/>
<path transform="matrix(.1,0,0,-.1,0,792)" stroke-width="5" stroke-linecap="butt" stroke-miterlimit="10" stroke-linejoin="miter" fill="none" stroke="#000000" d="M4649.8 5112.3 4861.9 4900.1 5074.1 5112.3 4861.9 5324.4Z"/>
<path transform="matrix(.1,0,0,-.1,0,792)" d="M4649.8 5536.5 4861.9 5324.4 5074.1 5536.5 4861.9 5748.7Z" fill="#ffffff"/>
<path transform="matrix(.1,0,0,-.1,0,792)" stroke-width="5" stroke-linecap="butt" stroke-miterlimit="10" stroke-linejoin="miter" fill="none" stroke="#000000" d="M4649.8 5536.5 4861.9 5324.4 5074.1 5536.5 4861.9 5748.7Z"/>
<path transform="matrix(.1,0,0,-.1,0,792)" d="M4649.8 6560.8 4861.9 6348.7 5074.1 6560.8 4861.9 6772.9Z" fill="#ffffff"/>
<path transform="matrix(.1,0,0,-.1,0,792)" stroke-width="5" stroke-linecap="butt" stroke-miterlimit="10" stroke-linejoin="miter" fill="none" stroke="#000000" d="M4649.8 6560.8 4861.9 6348.7 5074.1 6560.8 4861.9 6772.9Z"/>
<path transform="matrix(.1,0,0,-.1,0,792)" d="M1328.5 6560.8 1116.3 6772.9 904.199 6560.8 1116.3 6348.7Z" fill="#ffffff"/>
<path transform="matrix(.1,0,0,-.1,0,792)" stroke-width="5" stroke-linecap="butt" stroke-miterlimit="10" stroke-linejoin="miter" fill="none" stroke="#000000" d="M1328.5 6560.8 1116.3 6772.9 904.199 6560.8 1116.3 6348.7Z"/>
<path transform="matrix(.1,0,0,-.1,0,792)" d="M1328.5 1790.9 1116.3 2003.1 904.199 1790.9 1116.3 1578.8Z" fill="#ffffff"/>
<path transform="matrix(.1,0,0,-.1,0,792)" stroke-width="5" stroke-linecap="butt" stroke-miterlimit="10" stroke-linejoin="miter" fill="none" stroke="#000000" d="M1328.5 1790.9 1116.3 2003.1 904.199 1790.9 1116.3 1578.8Z"/>
<path transform="matrix(.1,0,0,-.1,0,792)" d="M4649.8 1790.9 4861.9 1578.8 5074.1 1790.9 4861.9 2003.1Z" fill="#ffffff"/>
<path transform="matrix(.1,0,0,-.1,0,792)" stroke-width="5" stroke-linecap="butt" stroke-miterlimit="10" stroke-linejoin="miter" fill="none" stroke="#000000" d="M4649.8 1790.9 4861.9 1578.8 5074.1 1790.9 4861.9 2003.1Z"/>
<path transform="matrix(.1,0,0,-.1,0,792)" d="M1116.3 5324.4 904.199 5536.5H604.199V5836.5L392.102 6048.7 180 5836.5-32.1992 6048.7-244.301 5836.5V5536.5H-544.301L-756.398 5324.4-544.301 5112.3-756.398 4900.1-544.301 4688H-244.301V4388L-32.1992 4175.9 180 4388 392.102 4175.9 604.199 4388V4688H904.199L1116.3 4900.1 904.199 5112.3" fill="#a1382b"/>
<path transform="matrix(.1,0,0,-.1,0,792)" stroke-width="5" stroke-linecap="butt" stroke-miterlimit="10" stroke-linejoin="miter" fill="none" stroke="#000000" d="M1116.3 5324.4 904.199 5536.5H604.199V5836.5L392.102 6048.7 180 5836.5-32.1992 6048.7-244.301 5836.5V5536.5H-544.301L-756.398 5324.4-544.301 5112.3-756.398 4900.1-544.301 4688H-244.301V4388L-32.1992 4175.9 180 4388 392.102 4175.9 604.199 4388V4688H904.199L1116.3 4900.1 904.199 5112.3Z"/>
<path transform="matrix(.1,0,0,-.1,0,792)" d="M1116.3 3451.6 904.199 3663.7H604.199V3963.7L392.102 4175.9 180 3963.7-32.1992 4175.9-244.301 3963.7V3663.7H-544.301L-756.398 3451.6-544.301 3239.5-756.398 3027.3-544.301 2815.2H-244.301V2515.2L-32.1992 2303.1 180 2515.2 392.102 2303.1 604.199 2515.2V2815.2H904.199L1116.3 3027.3 904.199 3239.5" fill="#a1382b"/>
<path transform="matrix(.1,0,0,-.1,0,792)" stroke-width="5" stroke-linecap="butt" stroke-miterlimit="10" stroke-linejoin="miter" fill="none" stroke="#000000" d="M1116.3 3451.6 904.199 3663.7H604.199V3963.7L392.102 4175.9 180 3963.7-32.1992 4175.9-244.301 3963.7V3663.7H-544.301L-756.398 3451.6-544.301 3239.5-756.398 3027.3-544.301 2815.2H-244.301V2515.2L-32.1992 2303.1 180 2515.2 392.102 2303.1 604.199 2515.2V2815.2H904.199L1116.3 3027.3 904.199 3239.5Z"/>
<path transform="matrix(.1,0,0,-.1,0,792)" d="M2989.1 6772.9 3201.3 6985 2989.1 7197.2 2777 6985Z" fill="#ffffff"/>
<path transform="matrix(.1,0,0,-.1,0,792)" stroke-width="5" stroke-linecap="butt" stroke-miterlimit="10" stroke-linejoin="miter" fill="none" stroke="#000000" d="M2989.1 6772.9 3201.3 6985 2989.1 7197.2 2777 6985Z"/>
<path transform="matrix(.1,0,0,-.1,0,792)" d="M1116.3 6772.9 904.199 6985 1116.3 7197.2 904.199 7409.3H604.199V7709.3L392.102 7921.4 180 7709.3-32.1992 7921.4-244.301 7709.3V7409.3H-544.301L-756.398 7197.2-544.301 6985-756.398 6772.9-544.301 6560.8H-244.301V6260.8L-32.1992 6048.7 180 6260.8 392.102 6048.7 604.199 6260.8V6560.8H904.199" fill="#a1382b"/>
<path transform="matrix(.1,0,0,-.1,0,792)" stroke-width="5" stroke-linecap="butt" stroke-miterlimit="10" stroke-linejoin="miter" fill="none" stroke="#000000" d="M1116.3 6772.9 904.199 6985 1116.3 7197.2 904.199 7409.3H604.199V7709.3L392.102 7921.4 180 7709.3-32.1992 7921.4-244.301 7709.3V7409.3H-544.301L-756.398 7197.2-544.301 6985-756.398 6772.9-544.301 6560.8H-244.301V6260.8L-32.1992 6048.7 180 6260.8 392.102 6048.7 604.199 6260.8V6560.8H904.199Z"/>
<path transform="matrix(.1,0,0,-.1,0,792)" d="M1116.3 6772.9 1328.5 6985 1116.3 7197.2 904.199 6985Z" fill="#ffffff"/>
<path transform="matrix(.1,0,0,-.1,0,792)" stroke-width="5" stroke-linecap="butt" stroke-miterlimit="10" stroke-linejoin="miter" fill="none" stroke="#000000" d="M1116.3 6772.9 1328.5 6985 1116.3 7197.2 904.199 6985Z"/>
<path transform="matrix(.1,0,0,-.1,0,792)" d="M4861.9 3027.3 5074.1 2815.2H5374.1V2515.2L5586.2 2303.1 5798.3 2515.2 6010.5 2303.1 6222.6 2515.2V2815.2H6522.6L6734.7 3027.3 6522.6 3239.5 6734.7 3451.6 6522.6 3663.7H6222.6V3963.7L6010.5 4175.9 5798.3 3963.7 5586.2 4175.9 5374.1 3963.7V3663.7H5074.1L4861.9 3451.6 5074.1 3239.5" fill="#a1382b"/>
<path transform="matrix(.1,0,0,-.1,0,792)" stroke-width="5" stroke-linecap="butt" stroke-miterlimit="10" stroke-linejoin="miter" fill="none" stroke="#000000" d="M4861.9 3027.3 5074.1 2815.2H5374.1V2515.2L5586.2 2303.1 5798.3 2515.2 6010.5 2303.1 6222.6 2515.2V2815.2H6522.6L6734.7 3027.3 6522.6 3239.5 6734.7 3451.6 6522.6 3663.7H6222.6V3963.7L6010.5 4175.9 5798.3 3963.7 5586.2 4175.9 5374.1 3963.7V3663.7H5074.1L4861.9 3451.6 5074.1 3239.5Z"/>
<path transform="matrix(.1,0,0,-.1,0,792)" d="M4861.9 4900.1 5074.1 4688H5374.1V4388L5586.2 4175.9 5798.3 4388 6010.5 4175.9 6222.6 4388V4688H6522.6L6734.7 4900.1 6522.6 5112.3 6734.7 5324.4 6522.6 5536.5H6222.6V5836.5L6010.5 6048.7 5798.3 5836.5 5586.2 6048.7 5374.1 5836.5V5536.5H5074.1L4861.9 5324.4 5074.1 5112.3" fill="#a1382b"/>
<path transform="matrix(.1,0,0,-.1,0,792)" stroke-width="5" stroke-linecap="butt" stroke-miterlimit="10" stroke-linejoin="miter" fill="none" stroke="#000000" d="M4861.9 4900.1 5074.1 4688H5374.1V4388L5586.2 4175.9 5798.3 4388 6010.5 4175.9 6222.6 4388V4688H6522.6L6734.7 4900.1 6522.6 5112.3 6734.7 5324.4 6522.6 5536.5H6222.6V5836.5L6010.5 6048.7 5798.3 5836.5 5586.2 6048.7 5374.1 5836.5V5536.5H5074.1L4861.9 5324.4 5074.1 5112.3Z"/>
<path transform="matrix(.1,0,0,-.1,0,792)" d="M4861.9 6772.9 5074.1 6985 4861.9 7197.2 4649.8 6985Z" fill="#ffffff"/>
<path transform="matrix(.1,0,0,-.1,0,792)" stroke-width="5" stroke-linecap="butt" stroke-miterlimit="10" stroke-linejoin="miter" fill="none" stroke="#000000" d="M4861.9 6772.9 5074.1 6985 4861.9 7197.2 4649.8 6985Z"/>
<path transform="matrix(.1,0,0,-.1,0,792)" d="M4861.9 6772.9 5074.1 6560.8H5374.1V6260.8L5586.2 6048.7 5798.3 6260.8 6010.5 6048.7 6222.6 6260.8V6560.8H6522.6L6734.7 6772.9 6522.6 6985 6734.7 7197.2 6522.6 7409.3H6222.6V7709.3L6010.5 7921.4 5798.3 7709.3 5586.2 7921.4 5374.1 7709.3V7409.3H5074.1L4861.9 7197.2 5074.1 6985" fill="#a1382b"/>
<path transform="matrix(.1,0,0,-.1,0,792)" stroke-width="5" stroke-linecap="butt" stroke-miterlimit="10" stroke-linejoin="miter" fill="none" stroke="#000000" d="M4861.9 6772.9 5074.1 6560.8H5374.1V6260.8L5586.2 6048.7 5798.3 6260.8 6010.5 6048.7 6222.6 6260.8V6560.8H6522.6L6734.7 6772.9 6522.6 6985 6734.7 7197.2 6522.6 7409.3H6222.6V7709.3L6010.5 7921.4 5798.3 7709.3 5586.2 7921.4 5374.1 7709.3V7409.3H5074.1L4861.9 7197.2 5074.1 6985Z"/>
<path transform="matrix(.1,0,0,-.1,0,792)" d="M1116.3 1578.8 904.199 1366.7 1116.3 1154.5 1328.5 1366.7Z" fill="#ffffff"/>
<path transform="matrix(.1,0,0,-.1,0,792)" stroke-width="5" stroke-linecap="butt" stroke-miterlimit="10" stroke-linejoin="miter" fill="none" stroke="#000000" d="M1116.3 1578.8 904.199 1366.7 1116.3 1154.5 1328.5 1366.7Z"/>
<path transform="matrix(.1,0,0,-.1,0,792)" d="M1116.3 1578.8 904.199 1790.9H604.199V2090.9L392.102 2303.1 180 2090.9-32.1992 2303.1-244.301 2090.9V1790.9H-544.301L-756.398 1578.8-544.301 1366.7-756.398 1154.5-544.301 942.398H-244.301V642.398L-32.1992 430.301 180 642.398 392.102 430.301 604.199 642.398V942.398H904.199L1116.3 1154.5 904.199 1366.7" fill="#a1382b"/>
<path transform="matrix(.1,0,0,-.1,0,792)" stroke-width="5" stroke-linecap="butt" stroke-miterlimit="10" stroke-linejoin="miter" fill="none" stroke="#000000" d="M1116.3 1578.8 904.199 1790.9H604.199V2090.9L392.102 2303.1 180 2090.9-32.1992 2303.1-244.301 2090.9V1790.9H-544.301L-756.398 1578.8-544.301 1366.7-756.398 1154.5-544.301 942.398H-244.301V642.398L-32.1992 430.301 180 642.398 392.102 430.301 604.199 642.398V942.398H904.199L1116.3 1154.5 904.199 1366.7Z"/>
<path transform="matrix(.1,0,0,-.1,0,792)" d="M2989.1 1578.8 2777 1366.7 2989.1 1154.5 3201.3 1366.7Z" fill="#ffffff"/>
<path transform="matrix(.1,0,0,-.1,0,792)" stroke-width="5" stroke-linecap="butt" stroke-miterlimit="10" stroke-linejoin="miter" fill="none" stroke="#000000" d="M2989.1 1578.8 2777 1366.7 2989.1 1154.5 3201.3 1366.7Z"/>
<path transform="matrix(.1,0,0,-.1,0,792)" d="M4861.9 1578.8 5074.1 1366.7 4861.9 1154.5 5074.1 942.398H5374.1V642.398L5586.2 430.301 5798.3 642.398 6010.5 430.301 6222.6 642.398V942.398H6522.6L6734.7 1154.5 6522.6 1366.7 6734.7 1578.8 6522.6 1790.9H6222.6V2090.9L6010.5 2303.1 5798.3 2090.9 5586.2 2303.1 5374.1 2090.9V1790.9H5074.1" fill="#a1382b"/>
<path transform="matrix(.1,0,0,-.1,0,792)" stroke-width="5" stroke-linecap="butt" stroke-miterlimit="10" stroke-linejoin="miter" fill="none" stroke="#000000" d="M4861.9 1578.8 5074.1 1366.7 4861.9 1154.5 5074.1 942.398H5374.1V642.398L5586.2 430.301 5798.3 642.398 6010.5 430.301 6222.6 642.398V942.398H6522.6L6734.7 1154.5 6522.6 1366.7 6734.7 1578.8 6522.6 1790.9H6222.6V2090.9L6010.5 2303.1 5798.3 2090.9 5586.2 2303.1 5374.1 2090.9V1790.9H5074.1Z"/>
<path transform="matrix(.1,0,0,-.1,0,792)" d="M4861.9 1578.8 4649.8 1366.7 4861.9 1154.5 5074.1 1366.7Z" fill="#ffffff"/>
<path transform="matrix(.1,0,0,-.1,0,792)" stroke-width="5" stroke-linecap="butt" stroke-miterlimit="10" stroke-linejoin="miter" fill="none" stroke="#000000" d="M4861.9 1578.8 4649.8 1366.7 4861.9 1154.5 5074.1 1366.7Z"/>
<path transform="matrix(.1,0,0,-.1,0,792)" d="M604.199 6260.8H904.199V6560.8H604.199Z" fill="#ffffff"/>
<path transform="matrix(.1,0,0,-.1,0,792)" stroke-width="5" stroke-linecap="butt" stroke-miterlimit="10" stroke-linejoin="miter" fill="none" stroke="#000000" d="M604.199 6260.8H904.199V6560.8H604.199Z"/>
<path transform="matrix(.1,0,0,-.1,0,792)" d="M604.199 5536.5H904.199V5836.5H604.199Z" fill="#ffffff"/>
<path transform="matrix(.1,0,0,-.1,0,792)" stroke-width="5" stroke-linecap="butt" stroke-miterlimit="10" stroke-linejoin="miter" fill="none" stroke="#000000" d="M604.199 5536.5H904.199V5836.5H604.199Z"/>
<path transform="matrix(.1,0,0,-.1,0,792)" d="M604.199 4388H904.199V4688H604.199Z" fill="#ffffff"/>
<path transform="matrix(.1,0,0,-.1,0,792)" stroke-width="5" stroke-linecap="butt" stroke-miterlimit="10" stroke-linejoin="miter" fill="none" stroke="#000000" d="M604.199 4388H904.199V4688H604.199Z"/>
<path transform="matrix(.1,0,0,-.1,0,792)" d="M604.199 3663.7H904.199V3963.7H604.199Z" fill="#ffffff"/>
<path transform="matrix(.1,0,0,-.1,0,792)" stroke-width="5" stroke-linecap="butt" stroke-miterlimit="10" stroke-linejoin="miter" fill="none" stroke="#000000" d="M604.199 3663.7H904.199V3963.7H604.199Z"/>
<path transform="matrix(.1,0,0,-.1,0,792)" d="M604.199 2515.2H904.199V2815.2H604.199Z" fill="#ffffff"/>
<path transform="matrix(.1,0,0,-.1,0,792)" stroke-width="5" stroke-linecap="butt" stroke-miterlimit="10" stroke-linejoin="miter" fill="none" stroke="#000000" d="M604.199 2515.2H904.199V2815.2H604.199Z"/>
<path transform="matrix(.1,0,0,-.1,0,792)" d="M604.199 1790.9H904.199V2090.9H604.199Z" fill="#ffffff"/>
<path transform="matrix(.1,0,0,-.1,0,792)" stroke-width="5" stroke-linecap="butt" stroke-miterlimit="10" stroke-linejoin="miter" fill="none" stroke="#000000" d="M604.199 1790.9H904.199V2090.9H604.199Z"/>
<path transform="matrix(.1,0,0,-.1,0,792)" d="M5074.1 1790.9H5374.1V2090.9H5074.1Z" fill="#ffffff"/>
<path transform="matrix(.1,0,0,-.1,0,792)" stroke-width="5" stroke-linecap="butt" stroke-miterlimit="10" stroke-linejoin="miter" fill="none" stroke="#000000" d="M5074.1 1790.9H5374.1V2090.9H5074.1Z"/>
<path transform="matrix(.1,0,0,-.1,0,792)" d="M5074.1 2515.2H5374.1V2815.2H5074.1Z" fill="#ffffff"/>
<path transform="matrix(.1,0,0,-.1,0,792)" stroke-width="5" stroke-linecap="butt" stroke-miterlimit="10" stroke-linejoin="miter" fill="none" stroke="#000000" d="M5074.1 2515.2H5374.1V2815.2H5074.1Z"/>
<path transform="matrix(.1,0,0,-.1,0,792)" d="M5074.1 3663.7H5374.1V3963.7H5074.1Z" fill="#ffffff"/>
<path transform="matrix(.1,0,0,-.1,0,792)" stroke-width="5" stroke-linecap="butt" stroke-miterlimit="10" stroke-linejoin="miter" fill="none" stroke="#000000" d="M5074.1 3663.7H5374.1V3963.7H5074.1Z"/>
<path transform="matrix(.1,0,0,-.1,0,792)" d="M5074.1 4388H5374.1V4688H5074.1Z" fill="#ffffff"/>
<path transform="matrix(.1,0,0,-.1,0,792)" stroke-width="5" stroke-linecap="butt" stroke-miterlimit="10" stroke-linejoin="miter" fill="none" stroke="#000000" d="M5074.1 4388H5374.1V4688H5074.1Z"/>
<path transform="matrix(.1,0,0,-.1,0,792)" d="M5074.1 5536.5H5374.1V5836.5H5074.1Z" fill="#ffffff"/>
<path transform="matrix(.1,0,0,-.1,0,792)" stroke-width="5" stroke-linecap="butt" stroke-miterlimit="10" stroke-linejoin="miter" fill="none" stroke="#000000" d="M5074.1 5536.5H5374.1V5836.5H5074.1Z"/>
<path transform="matrix(.1,0,0,-.1,0,792)" d="M5074.1 6260.8H5374.1V6560.8H5074.1Z" fill="#ffffff"/>
<path transform="matrix(.1,0,0,-.1,0,792)" stroke-width="5" stroke-linecap="butt" stroke-miterlimit="10" stroke-linejoin="miter" fill="none" stroke="#000000" d="M5074.1 6260.8H5374.1V6560.8H5074.1Z"/>
<path transform="matrix(.1,0,0,-.1,0,792)" d="M816.301 6048.7 604.199 6260.8 392.102 6048.7 604.199 5836.5Z" fill="#ffffff"/>
<path transform="matrix(.1,0,0,-.1,0,792)" stroke-width="5" stroke-linecap="butt" stroke-miterlimit="10" stroke-linejoin="miter" fill="none" stroke="#000000" d="M816.301 6048.7 604.199 6260.8 392.102 6048.7 604.199 5836.5Z"/>
<path transform="matrix(.1,0,0,-.1,0,792)" d="M816.301 4175.9 604.199 4388 392.102 4175.9 604.199 3963.7Z" fill="#ffffff"/>
<path transform="matrix(.1,0,0,-.1,0,792)" stroke-width="5" stroke-linecap="butt" stroke-miterlimit="10" stroke-linejoin="miter" fill="none" stroke="#000000" d="M816.301 4175.9 604.199 4388 392.102 4175.9 604.199 3963.7Z"/>
<path transform="matrix(.1,0,0,-.1,0,792)" d="M816.301 2303.1 604.199 2515.2 392.102 2303.1 604.199 2090.9Z" fill="#ffffff"/>
<path transform="matrix(.1,0,0,-.1,0,792)" stroke-width="5" stroke-linecap="butt" stroke-miterlimit="10" stroke-linejoin="miter" fill="none" stroke="#000000" d="M816.301 2303.1 604.199 2515.2 392.102 2303.1 604.199 2090.9Z"/>
<path transform="matrix(.1,0,0,-.1,0,792)" d="M4861.9 7197.2 5074.1 7409.3 4861.9 7621.4 4649.8 7409.3Z" fill="#ffffff"/>
<path transform="matrix(.1,0,0,-.1,0,792)" stroke-width="5" stroke-linecap="butt" stroke-miterlimit="10" stroke-linejoin="miter" fill="none" stroke="#000000" d="M4861.9 7197.2 5074.1 7409.3 4861.9 7621.4 4649.8 7409.3Z"/>
<path transform="matrix(.1,0,0,-.1,0,792)" d="M2989.1 7197.2 3201.3 7409.3 2989.1 7621.4 2777 7409.3Z" fill="#ffffff"/>
<path transform="matrix(.1,0,0,-.1,0,792)" stroke-width="5" stroke-linecap="butt" stroke-miterlimit="10" stroke-linejoin="miter" fill="none" stroke="#000000" d="M2989.1 7197.2 3201.3 7409.3 2989.1 7621.4 2777 7409.3Z"/>
<path transform="matrix(.1,0,0,-.1,0,792)" d="M1116.3 7197.2 1328.5 7409.3 1116.3 7621.4 904.199 7409.3Z" fill="#ffffff"/>
<path transform="matrix(.1,0,0,-.1,0,792)" stroke-width="5" stroke-linecap="butt" stroke-miterlimit="10" stroke-linejoin="miter" fill="none" stroke="#000000" d="M1116.3 7197.2 1328.5 7409.3 1116.3 7621.4 904.199 7409.3Z"/>
<path transform="matrix(.1,0,0,-.1,0,792)" d="M5161.9 2303.1 5374.1 2090.9 5586.2 2303.1 5374.1 2515.2Z" fill="#ffffff"/>
<path transform="matrix(.1,0,0,-.1,0,792)" stroke-width="5" stroke-linecap="butt" stroke-miterlimit="10" stroke-linejoin="miter" fill="none" stroke="#000000" d="M5161.9 2303.1 5374.1 2090.9 5586.2 2303.1 5374.1 2515.2Z"/>
<path transform="matrix(.1,0,0,-.1,0,792)" d="M5161.9 4175.9 5374.1 3963.7 5586.2 4175.9 5374.1 4388Z" fill="#ffffff"/>
<path transform="matrix(.1,0,0,-.1,0,792)" stroke-width="5" stroke-linecap="butt" stroke-miterlimit="10" stroke-linejoin="miter" fill="none" stroke="#000000" d="M5161.9 4175.9 5374.1 3963.7 5586.2 4175.9 5374.1 4388Z"/>
<path transform="matrix(.1,0,0,-.1,0,792)" d="M5161.9 6048.7 5374.1 5836.5 5586.2 6048.7 5374.1 6260.8Z" fill="#ffffff"/>
<path transform="matrix(.1,0,0,-.1,0,792)" stroke-width="5" stroke-linecap="butt" stroke-miterlimit="10" stroke-linejoin="miter" fill="none" stroke="#000000" d="M5161.9 6048.7 5374.1 5836.5 5586.2 6048.7 5374.1 6260.8Z"/>
<path transform="matrix(.1,0,0,-.1,0,792)" d="M1116.3 1154.5 904.199 942.398 1116.3 730.301 1328.5 942.398Z" fill="#ffffff"/>
<path transform="matrix(.1,0,0,-.1,0,792)" stroke-width="5" stroke-linecap="butt" stroke-miterlimit="10" stroke-linejoin="miter" fill="none" stroke="#000000" d="M1116.3 1154.5 904.199 942.398 1116.3 730.301 1328.5 942.398Z"/>
<path transform="matrix(.1,0,0,-.1,0,792)" d="M2989.1 1154.5 2777 942.398 2989.1 730.301 3201.3 942.398Z" fill="#ffffff"/>
<path transform="matrix(.1,0,0,-.1,0,792)" stroke-width="5" stroke-linecap="butt" stroke-miterlimit="10" stroke-linejoin="miter" fill="none" stroke="#000000" d="M2989.1 1154.5 2777 942.398 2989.1 730.301 3201.3 942.398Z"/>
<path transform="matrix(.1,0,0,-.1,0,792)" d="M4861.9 1154.5 4649.8 942.398 4861.9 730.301 5074.1 942.398Z" fill="#ffffff"/>
<path transform="matrix(.1,0,0,-.1,0,792)" stroke-width="5" stroke-linecap="butt" stroke-miterlimit="10" stroke-linejoin="miter" fill="none" stroke="#000000" d="M4861.9 1154.5 4649.8 942.398 4861.9 730.301 5074.1 942.398Z"/>
<path transform="matrix(.1,0,0,-.1,0,792)" d="M5074.1 7409.3V7709.3H5374.1L5161.9 7921.4 5374.1 8133.6H5074.1V8433.6L4861.9 8221.4 4649.8 8433.6V8133.6H4349.8L4561.9 7921.4 4349.8 7709.3H4649.8V7409.3L4861.9 7621.4" fill="#301f42"/>
<path transform="matrix(.1,0,0,-.1,0,792)" stroke-width="5" stroke-linecap="butt" stroke-miterlimit="10" stroke-linejoin="miter" fill="none" stroke="#000000" d="M5074.1 7409.3V7709.3H5374.1L5161.9 7921.4 5374.1 8133.6H5074.1V8433.6L4861.9 8221.4 4649.8 8433.6V8133.6H4349.8L4561.9 7921.4 4349.8 7709.3H4649.8V7409.3L4861.9 7621.4Z"/>
<path transform="matrix(.1,0,0,-.1,0,792)" d="M5074.1 7409.3H5374.1V7709.3H5074.1Z" fill="#ffffff"/>
<path transform="matrix(.1,0,0,-.1,0,792)" stroke-width="5" stroke-linecap="butt" stroke-miterlimit="10" stroke-linejoin="miter" fill="none" stroke="#000000" d="M5074.1 7409.3H5374.1V7709.3H5074.1Z"/>
<path transform="matrix(.1,0,0,-.1,0,792)" d="M4349.8 7409.3H4649.8V7709.3H4349.8Z" fill="#ffffff"/>
<path transform="matrix(.1,0,0,-.1,0,792)" stroke-width="5" stroke-linecap="butt" stroke-miterlimit="10" stroke-linejoin="miter" fill="none" stroke="#000000" d="M4349.8 7409.3H4649.8V7709.3H4349.8Z"/>
<path transform="matrix(.1,0,0,-.1,0,792)" d="M3201.3 7409.3H3501.3V7709.3H3201.3Z" fill="#ffffff"/>
<path transform="matrix(.1,0,0,-.1,0,792)" stroke-width="5" stroke-linecap="butt" stroke-miterlimit="10" stroke-linejoin="miter" fill="none" stroke="#000000" d="M3201.3 7409.3H3501.3V7709.3H3201.3Z"/>
<path transform="matrix(.1,0,0,-.1,0,792)" d="M3201.3 7409.3V7709.3H3501.3L3289.1 7921.4 3501.3 8133.6H3201.3V8433.6L2989.1 8221.4 2777 8433.6V8133.6H2477L2689.1 7921.4 2477 7709.3H2777V7409.3L2989.1 7621.4" fill="#301f42"/>
<path transform="matrix(.1,0,0,-.1,0,792)" stroke-width="5" stroke-linecap="butt" stroke-miterlimit="10" stroke-linejoin="miter" fill="none" stroke="#000000" d="M3201.3 7409.3V7709.3H3501.3L3289.1 7921.4 3501.3 8133.6H3201.3V8433.6L2989.1 8221.4 2777 8433.6V8133.6H2477L2689.1 7921.4 2477 7709.3H2777V7409.3L2989.1 7621.4Z"/>
<path transform="matrix(.1,0,0,-.1,0,792)" d="M2477 7409.3H2777V7709.3H2477Z" fill="#ffffff"/>
<path transform="matrix(.1,0,0,-.1,0,792)" stroke-width="5" stroke-linecap="butt" stroke-miterlimit="10" stroke-linejoin="miter" fill="none" stroke="#000000" d="M2477 7409.3H2777V7709.3H2477Z"/>
<path transform="matrix(.1,0,0,-.1,0,792)" d="M1328.5 7409.3H1628.5V7709.3H1328.5Z" fill="#ffffff"/>
<path transform="matrix(.1,0,0,-.1,0,792)" stroke-width="5" stroke-linecap="butt" stroke-miterlimit="10" stroke-linejoin="miter" fill="none" stroke="#000000" d="M1328.5 7409.3H1628.5V7709.3H1328.5Z"/>
<path transform="matrix(.1,0,0,-.1,0,792)" d="M1328.5 7409.3V7709.3H1628.5L1416.3 7921.4 1628.5 8133.6H1328.5V8433.6L1116.3 8221.4 904.199 8433.6V8133.6H604.199L816.301 7921.4 604.199 7709.3H904.199V7409.3L1116.3 7621.4" fill="#301f42"/>
<path transform="matrix(.1,0,0,-.1,0,792)" stroke-width="5" stroke-linecap="butt" stroke-miterlimit="10" stroke-linejoin="miter" fill="none" stroke="#000000" d="M1328.5 7409.3V7709.3H1628.5L1416.3 7921.4 1628.5 8133.6H1328.5V8433.6L1116.3 8221.4 904.199 8433.6V8133.6H604.199L816.301 7921.4 604.199 7709.3H904.199V7409.3L1116.3 7621.4Z"/>
<path transform="matrix(.1,0,0,-.1,0,792)" d="M604.199 7409.3H904.199V7709.3H604.199Z" fill="#ffffff"/>
<path transform="matrix(.1,0,0,-.1,0,792)" stroke-width="5" stroke-linecap="butt" stroke-miterlimit="10" stroke-linejoin="miter" fill="none" stroke="#000000" d="M604.199 7409.3H904.199V7709.3H604.199Z"/>
<path transform="matrix(.1,0,0,-.1,0,792)" d="M604.199 642.398H904.199V942.398H604.199Z" fill="#ffffff"/>
<path transform="matrix(.1,0,0,-.1,0,792)" stroke-width="5" stroke-linecap="butt" stroke-miterlimit="10" stroke-linejoin="miter" fill="none" stroke="#000000" d="M604.199 642.398H904.199V942.398H604.199Z"/>
<path transform="matrix(.1,0,0,-.1,0,792)" d="M904.199 942.398V642.398H604.199L816.301 430.301 604.199 218.102H904.199V-81.8984L1116.3 130.301 1328.5-81.8984V218.102H1628.5L1416.3 430.301 1628.5 642.398H1328.5V942.398L1116.3 730.301" fill="#301f42"/>
<path transform="matrix(.1,0,0,-.1,0,792)" stroke-width="5" stroke-linecap="butt" stroke-miterlimit="10" stroke-linejoin="miter" fill="none" stroke="#000000" d="M904.199 942.398V642.398H604.199L816.301 430.301 604.199 218.102H904.199V-81.8984L1116.3 130.301 1328.5-81.8984V218.102H1628.5L1416.3 430.301 1628.5 642.398H1328.5V942.398L1116.3 730.301Z"/>
<path transform="matrix(.1,0,0,-.1,0,792)" d="M1328.5 642.398H1628.5V942.398H1328.5Z" fill="#ffffff"/>
<path transform="matrix(.1,0,0,-.1,0,792)" stroke-width="5" stroke-linecap="butt" stroke-miterlimit="10" stroke-linejoin="miter" fill="none" stroke="#000000" d="M1328.5 642.398H1628.5V942.398H1328.5Z"/>
<path transform="matrix(.1,0,0,-.1,0,792)" d="M2477 642.398H2777V942.398H2477Z" fill="#ffffff"/>
<path transform="matrix(.1,0,0,-.1,0,792)" stroke-width="5" stroke-linecap="butt" stroke-miterlimit="10" stroke-linejoin="miter" fill="none" stroke="#000000" d="M2477 642.398H2777V942.398H2477Z"/>
<path transform="matrix(.1,0,0,-.1,0,792)" d="M2777 942.398V642.398H2477L2689.1 430.301 2477 218.102H2777V-81.8984L2989.1 130.301 3201.3-81.8984V218.102H3501.3L3289.1 430.301 3501.3 642.398H3201.3V942.398L2989.1 730.301" fill="#301f42"/>
<path transform="matrix(.1,0,0,-.1,0,792)" stroke-width="5" stroke-linecap="butt" stroke-miterlimit="10" stroke-linejoin="miter" fill="none" stroke="#000000" d="M2777 942.398V642.398H2477L2689.1 430.301 2477 218.102H2777V-81.8984L2989.1 130.301 3201.3-81.8984V218.102H3501.3L3289.1 430.301 3501.3 642.398H3201.3V942.398L2989.1 730.301Z"/>
<path transform="matrix(.1,0,0,-.1,0,792)" d="M3201.3 642.398H3501.3V942.398H3201.3Z" fill="#ffffff"/>
<path transform="matrix(.1,0,0,-.1,0,792)" stroke-width="5" stroke-linecap="butt" stroke-miterlimit="10" stroke-linejoin="miter" fill="none" stroke="#000000" d="M3201.3 642.398H3501.3V942.398H3201.3Z"/>
<path transform="matrix(.1,0,0,-.1,0,792)" d="M4349.8 642.398H4649.8V942.398H4349.8Z" fill="#ffffff"/>
<path transform="matrix(.1,0,0,-.1,0,792)" stroke-width="5" stroke-linecap="butt" stroke-miterlimit="10" stroke-linejoin="miter" fill="none" stroke="#000000" d="M4349.8 642.398H4649.8V942.398H4349.8Z"/>
<path transform="matrix(.1,0,0,-.1,0,792)" d="M4649.8 942.398V642.398H4349.8L4561.9 430.301 4349.8 218.102H4649.8V-81.8984L4861.9 130.301 5074.1-81.8984V218.102H5374.1L5161.9 430.301 5374.1 642.398H5074.1V942.398L4861.9 730.301" fill="#301f42"/>
<path transform="matrix(.1,0,0,-.1,0,792)" stroke-width="5" stroke-linecap="butt" stroke-miterlimit="10" stroke-linejoin="miter" fill="none" stroke="#000000" d="M4649.8 942.398V642.398H4349.8L4561.9 430.301 4349.8 218.102H4649.8V-81.8984L4861.9 130.301 5074.1-81.8984V218.102H5374.1L5161.9 430.301 5374.1 642.398H5074.1V942.398L4861.9 730.301Z"/>
<path transform="matrix(.1,0,0,-.1,0,792)" d="M5074.1 642.398H5374.1V942.398H5074.1Z" fill="#ffffff"/>
<path transform="matrix(.1,0,0,-.1,0,792)" stroke-width="5" stroke-linecap="butt" stroke-miterlimit="10" stroke-linejoin="miter" fill="none" stroke="#000000" d="M5074.1 642.398H5374.1V942.398H5074.1Z"/>
<path transform="matrix(.1,0,0,-.1,0,792)" d="M5374.1 7709.3 5586.2 7921.4 5374.1 8133.6 5161.9 7921.4Z" fill="#ffffff"/>
<path transform="matrix(.1,0,0,-.1,0,792)" stroke-width="5" stroke-linecap="butt" stroke-miterlimit="10" stroke-linejoin="miter" fill="none" stroke="#000000" d="M5374.1 7709.3 5586.2 7921.4 5374.1 8133.6 5161.9 7921.4Z"/>
<path transform="matrix(.1,0,0,-.1,0,792)" d="M4349.8 7709.3 4561.9 7921.4 4349.8 8133.6 4137.7 7921.4Z" fill="#ffffff"/>
<path transform="matrix(.1,0,0,-.1,0,792)" stroke-width="5" stroke-linecap="butt" stroke-miterlimit="10" stroke-linejoin="miter" fill="none" stroke="#000000" d="M4349.8 7709.3 4561.9 7921.4 4349.8 8133.6 4137.7 7921.4Z"/>
<path transform="matrix(.1,0,0,-.1,0,792)" d="M3925.5 7709.3 4137.7 7921.4 3925.5 8133.6 3713.4 7921.4Z" fill="#ffffff"/>
<path transform="matrix(.1,0,0,-.1,0,792)" stroke-width="5" stroke-linecap="butt" stroke-miterlimit="10" stroke-linejoin="miter" fill="none" stroke="#000000" d="M3925.5 7709.3 4137.7 7921.4 3925.5 8133.6 3713.4 7921.4Z"/>
<path transform="matrix(.1,0,0,-.1,0,792)" d="M3501.3 7709.3 3713.4 7921.4 3501.3 8133.6 3289.1 7921.4Z" fill="#ffffff"/>
<path transform="matrix(.1,0,0,-.1,0,792)" stroke-width="5" stroke-linecap="butt" stroke-miterlimit="10" stroke-linejoin="miter" fill="none" stroke="#000000" d="M3501.3 7709.3 3713.4 7921.4 3501.3 8133.6 3289.1 7921.4Z"/>
<path transform="matrix(.1,0,0,-.1,0,792)" d="M2477 7709.3 2689.1 7921.4 2477 8133.6 2264.9 7921.4Z" fill="#ffffff"/>
<path transform="matrix(.1,0,0,-.1,0,792)" stroke-width="5" stroke-linecap="butt" stroke-miterlimit="10" stroke-linejoin="miter" fill="none" stroke="#000000" d="M2477 7709.3 2689.1 7921.4 2477 8133.6 2264.9 7921.4Z"/>
<path transform="matrix(.1,0,0,-.1,0,792)" d="M2052.7 7709.3 2264.9 7921.4 2052.7 8133.6 1840.6 7921.4Z" fill="#ffffff"/>
<path transform="matrix(.1,0,0,-.1,0,792)" stroke-width="5" stroke-linecap="butt" stroke-miterlimit="10" stroke-linejoin="miter" fill="none" stroke="#000000" d="M2052.7 7709.3 2264.9 7921.4 2052.7 8133.6 1840.6 7921.4Z"/>
<path transform="matrix(.1,0,0,-.1,0,792)" d="M1628.5 7709.3 1840.6 7921.4 1628.5 8133.6 1416.3 7921.4Z" fill="#ffffff"/>
<path transform="matrix(.1,0,0,-.1,0,792)" stroke-width="5" stroke-linecap="butt" stroke-miterlimit="10" stroke-linejoin="miter" fill="none" stroke="#000000" d="M1628.5 7709.3 1840.6 7921.4 1628.5 8133.6 1416.3 7921.4Z"/>
<path transform="matrix(.1,0,0,-.1,0,792)" d="M604.199 7709.3 816.301 7921.4 604.199 8133.6 392.102 7921.4Z" fill="#ffffff"/>
<path transform="matrix(.1,0,0,-.1,0,792)" stroke-width="5" stroke-linecap="butt" stroke-miterlimit="10" stroke-linejoin="miter" fill="none" stroke="#000000" d="M604.199 7709.3 816.301 7921.4 604.199 8133.6 392.102 7921.4Z"/>
<path transform="matrix(.1,0,0,-.1,0,792)" d="M392.102 6048.7 180 6260.8-32.1992 6048.7 180 5836.5Z" fill="#ffffff"/>
<path transform="matrix(.1,0,0,-.1,0,792)" stroke-width="5" stroke-linecap="butt" stroke-miterlimit="10" stroke-linejoin="miter" fill="none" stroke="#000000" d="M392.102 6048.7 180 6260.8-32.1992 6048.7 180 5836.5Z"/>
<path transform="matrix(.1,0,0,-.1,0,792)" d="M392.102 4175.9 180 4388-32.1992 4175.9 180 3963.7Z" fill="#ffffff"/>
<path transform="matrix(.1,0,0,-.1,0,792)" stroke-width="5" stroke-linecap="butt" stroke-miterlimit="10" stroke-linejoin="miter" fill="none" stroke="#000000" d="M392.102 4175.9 180 4388-32.1992 4175.9 180 3963.7Z"/>
<path transform="matrix(.1,0,0,-.1,0,792)" d="M392.102 2303.1 180 2515.2-32.1992 2303.1 180 2090.9Z" fill="#ffffff"/>
<path transform="matrix(.1,0,0,-.1,0,792)" stroke-width="5" stroke-linecap="butt" stroke-miterlimit="10" stroke-linejoin="miter" fill="none" stroke="#000000" d="M392.102 2303.1 180 2515.2-32.1992 2303.1 180 2090.9Z"/>
<path transform="matrix(.1,0,0,-.1,0,792)" d="M604.199 642.398 392.102 430.301 604.199 218.102 816.301 430.301Z" fill="#ffffff"/>
<path transform="matrix(.1,0,0,-.1,0,792)" stroke-width="5" stroke-linecap="butt" stroke-miterlimit="10" stroke-linejoin="miter" fill="none" stroke="#000000" d="M604.199 642.398 392.102 430.301 604.199 218.102 816.301 430.301Z"/>
<path transform="matrix(.1,0,0,-.1,0,792)" d="M1628.5 642.398 1416.3 430.301 1628.5 218.102 1840.6 430.301Z" fill="#ffffff"/>
<path transform="matrix(.1,0,0,-.1,0,792)" stroke-width="5" stroke-linecap="butt" stroke-miterlimit="10" stroke-linejoin="miter" fill="none" stroke="#000000" d="M1628.5 642.398 1416.3 430.301 1628.5 218.102 1840.6 430.301Z"/>
<path transform="matrix(.1,0,0,-.1,0,792)" d="M2052.7 642.398 1840.6 430.301 2052.7 218.102 2264.9 430.301Z" fill="#ffffff"/>
<path transform="matrix(.1,0,0,-.1,0,792)" stroke-width="5" stroke-linecap="butt" stroke-miterlimit="10" stroke-linejoin="miter" fill="none" stroke="#000000" d="M2052.7 642.398 1840.6 430.301 2052.7 218.102 2264.9 430.301Z"/>
<path transform="matrix(.1,0,0,-.1,0,792)" d="M2477 642.398 2264.9 430.301 2477 218.102 2689.1 430.301Z" fill="#ffffff"/>
<path transform="matrix(.1,0,0,-.1,0,792)" stroke-width="5" stroke-linecap="butt" stroke-miterlimit="10" stroke-linejoin="miter" fill="none" stroke="#000000" d="M2477 642.398 2264.9 430.301 2477 218.102 2689.1 430.301Z"/>
<path transform="matrix(.1,0,0,-.1,0,792)" d="M3501.3 642.398 3289.1 430.301 3501.3 218.102 3713.4 430.301Z" fill="#ffffff"/>
<path transform="matrix(.1,0,0,-.1,0,792)" stroke-width="5" stroke-linecap="butt" stroke-miterlimit="10" stroke-linejoin="miter" fill="none" stroke="#000000" d="M3501.3 642.398 3289.1 430.301 3501.3 218.102 3713.4 430.301Z"/>
<path transform="matrix(.1,0,0,-.1,0,792)" d="M3925.5 642.398 3713.4 430.301 3925.5 218.102 4137.7 430.301Z" fill="#ffffff"/>
<path transform="matrix(.1,0,0,-.1,0,792)" stroke-width="5" stroke-linecap="butt" stroke-miterlimit="10" stroke-linejoin="miter" fill="none" stroke="#000000" d="M3925.5 642.398 3713.4 430.301 3925.5 218.102 4137.7 430.301Z"/>
<path transform="matrix(.1,0,0,-.1,0,792)" d="M4349.8 642.398 4137.7 430.301 4349.8 218.102 4561.9 430.301Z" fill="#ffffff"/>
<path transform="matrix(.1,0,0,-.1,0,792)" stroke-width="5" stroke-linecap="butt" stroke-miterlimit="10" stroke-linejoin="miter" fill="none" stroke="#000000" d="M4349.8 642.398 4137.7 430.301 4349.8 218.102 4561.9 430.301Z"/>
<path transform="matrix(.1,0,0,-.1,0,792)" d="M5374.1 642.398 5161.9 430.301 5374.1 218.102 5586.2 430.301Z" fill="#ffffff"/>
<path transform="matrix(.1,0,0,-.1,0,792)" stroke-width="5" stroke-linecap="butt" stroke-miterlimit="10" stroke-linejoin="miter" fill="none" stroke="#000000" d="M5374.1 642.398 5161.9 430.301 5374.1 218.102 5586.2 430.301Z"/>
<path transform="matrix(.1,0,0,-.1,0,792)" d="M5586.2 2303.1 5798.3 2090.9 6010.5 2303.1 5798.3 2515.2Z" fill="#ffffff"/>
<path transform="matrix(.1,0,0,-.1,0,792)" stroke-width="5" stroke-linecap="butt" stroke-miterlimit="10" stroke-linejoin="miter" fill="none" stroke="#000000" d="M5586.2 2303.1 5798.3 2090.9 6010.5 2303.1 5798.3 2515.2Z"/>
<path transform="matrix(.1,0,0,-.1,0,792)" d="M5586.2 4175.9 5798.3 3963.7 6010.5 4175.9 5798.3 4388Z" fill="#ffffff"/>
<path transform="matrix(.1,0,0,-.1,0,792)" stroke-width="5" stroke-linecap="butt" stroke-miterlimit="10" stroke-linejoin="miter" fill="none" stroke="#000000" d="M5586.2 4175.9 5798.3 3963.7 6010.5 4175.9 5798.3 4388Z"/>
<path transform="matrix(.1,0,0,-.1,0,792)" d="M5586.2 6048.7 5798.3 5836.5 6010.5 6048.7 5798.3 6260.8Z" fill="#ffffff"/>
<path transform="matrix(.1,0,0,-.1,0,792)" stroke-width="5" stroke-linecap="butt" stroke-miterlimit="10" stroke-linejoin="miter" fill="none" stroke="#000000" d="M5586.2 6048.7 5798.3 5836.5 6010.5 6048.7 5798.3 6260.8Z"/>
<path transform="matrix(.1,0,0,-.1,0,792)" stroke-width="5" stroke-linecap="butt" stroke-miterlimit="10" stroke-linejoin="miter" fill="none" stroke="#000000" d="M5586.2 7921.4 5798.3 8133.6 6010.5 7921.4 6222.6 8133.6V8433.6H6522.6L6734.7 8645.7 6522.6 8857.8 6734.7 9070 6522.6 9282.1H6222.6V9582.1L6010.5 9794.2 5798.3 9582.1 5586.2 9794.2 5374.1 9582.1V9282.1H5074.1L4861.9 9070 5074.1 8857.8 4861.9 8645.7 5074.1 8433.6H5374.1V8133.6Z"/>
<path transform="matrix(.1,0,0,-.1,0,792)" d="M5586.2 7921.4 5798.3 7709.3 6010.5 7921.4 5798.3 8133.6Z" fill="#ffffff"/>
<path transform="matrix(.1,0,0,-.1,0,792)" stroke-width="5" stroke-linecap="butt" stroke-miterlimit="10" stroke-linejoin="miter" fill="none" stroke="#000000" d="M5586.2 7921.4 5798.3 7709.3 6010.5 7921.4 5798.3 8133.6Z"/>
<path transform="matrix(.1,0,0,-.1,0,792)" stroke-width="5" stroke-linecap="butt" stroke-miterlimit="10" stroke-linejoin="miter" fill="none" stroke="#000000" d="M4137.7 7921.4 4349.8 8133.6V8433.6H4649.8L4861.9 8645.7 4649.8 8857.8 4861.9 9070 4649.8 9282.1H4349.8V9582.1L4137.7 9794.2 3925.5 9582.1 3713.4 9794.2 3501.3 9582.1V9282.1H3201.3L2989.1 9070 3201.3 8857.8 2989.1 8645.7 3201.3 8433.6H3501.3V8133.6L3713.4 7921.4 3925.5 8133.6Z"/>
<path transform="matrix(.1,0,0,-.1,0,792)" stroke-width="5" stroke-linecap="butt" stroke-miterlimit="10" stroke-linejoin="miter" fill="none" stroke="#000000" d="M2264.9 7921.4 2477 8133.6V8433.6H2777L2989.1 8645.7 2777 8857.8 2989.1 9070 2777 9282.1H2477V9582.1L2264.9 9794.2 2052.7 9582.1 1840.6 9794.2 1628.5 9582.1V9282.1H1328.5L1116.3 9070 1328.5 8857.8 1116.3 8645.7 1328.5 8433.6H1628.5V8133.6L1840.6 7921.4 2052.7 8133.6Z"/>
<path transform="matrix(.1,0,0,-.1,0,792)" d="M392.102 7921.4 180 8133.6-32.1992 7921.4 180 7709.3Z" fill="#ffffff"/>
<path transform="matrix(.1,0,0,-.1,0,792)" stroke-width="5" stroke-linecap="butt" stroke-miterlimit="10" stroke-linejoin="miter" fill="none" stroke="#000000" d="M392.102 7921.4 180 8133.6-32.1992 7921.4 180 7709.3Z"/>
<path transform="matrix(.1,0,0,-.1,0,792)" stroke-width="5" stroke-linecap="butt" stroke-miterlimit="10" stroke-linejoin="miter" fill="none" stroke="#000000" d="M392.102 7921.4 604.199 8133.6V8433.6H904.199L1116.3 8645.7 904.199 8857.8 1116.3 9070 904.199 9282.1H604.199V9582.1L392.102 9794.2 180 9582.1-32.1992 9794.2-244.301 9582.1V9282.1H-544.301L-756.398 9070-544.301 8857.8-756.398 8645.7-544.301 8433.6H-244.301V8133.6L-32.1992 7921.4 180 8133.6Z"/>
<path transform="matrix(.1,0,0,-.1,0,792)" d="M392.102 430.301 180 218.102-32.1992 430.301-244.301 218.102V-81.8984H-544.301L-756.398-294-544.301-506.102-756.398-718.301-544.301-930.398H-244.301V-1230.4L-32.1992-1442.5 180-1230.4 392.102-1442.5 604.199-1230.4V-930.398H904.199L1116.3-718.301 904.199-506.102 1116.3-294 904.199-81.8984H604.199V218.102" fill="#a1382b"/>
<path transform="matrix(.1,0,0,-.1,0,792)" stroke-width="5" stroke-linecap="butt" stroke-miterlimit="10" stroke-linejoin="miter" fill="none" stroke="#000000" d="M392.102 430.301 180 218.102-32.1992 430.301-244.301 218.102V-81.8984H-544.301L-756.398-294-544.301-506.102-756.398-718.301-544.301-930.398H-244.301V-1230.4L-32.1992-1442.5 180-1230.4 392.102-1442.5 604.199-1230.4V-930.398H904.199L1116.3-718.301 904.199-506.102 1116.3-294 904.199-81.8984H604.199V218.102Z"/>
<path transform="matrix(.1,0,0,-.1,0,792)" d="M392.102 430.301 180 642.398-32.1992 430.301 180 218.102Z" fill="#ffffff"/>
<path transform="matrix(.1,0,0,-.1,0,792)" stroke-width="5" stroke-linecap="butt" stroke-miterlimit="10" stroke-linejoin="miter" fill="none" stroke="#000000" d="M392.102 430.301 180 642.398-32.1992 430.301 180 218.102Z"/>
<path transform="matrix(.1,0,0,-.1,0,792)" d="M1840.6 430.301 1628.5 218.102V-81.8984H1328.5L1116.3-294 1328.5-506.102 1116.3-718.301 1328.5-930.398H1628.5V-1230.4L1840.6-1442.5 2052.7-1230.4 2264.9-1442.5 2477-1230.4V-930.398H2777L2989.1-718.301 2777-506.102 2989.1-294 2777-81.8984H2477V218.102L2264.9 430.301 2052.7 218.102" fill="#a1382b"/>
<path transform="matrix(.1,0,0,-.1,0,792)" stroke-width="5" stroke-linecap="butt" stroke-miterlimit="10" stroke-linejoin="miter" fill="none" stroke="#000000" d="M1840.6 430.301 1628.5 218.102V-81.8984H1328.5L1116.3-294 1328.5-506.102 1116.3-718.301 1328.5-930.398H1628.5V-1230.4L1840.6-1442.5 2052.7-1230.4 2264.9-1442.5 2477-1230.4V-930.398H2777L2989.1-718.301 2777-506.102 2989.1-294 2777-81.8984H2477V218.102L2264.9 430.301 2052.7 218.102Z"/>
<path transform="matrix(.1,0,0,-.1,0,792)" d="M3713.4 430.301 3501.3 218.102V-81.8984H3201.3L2989.1-294 3201.3-506.102 2989.1-718.301 3201.3-930.398H3501.3V-1230.4L3713.4-1442.5 3925.5-1230.4 4137.7-1442.5 4349.8-1230.4V-930.398H4649.8L4861.9-718.301 4649.8-506.102 4861.9-294 4649.8-81.8984H4349.8V218.102L4137.7 430.301 3925.5 218.102" fill="#a1382b"/>
<path transform="matrix(.1,0,0,-.1,0,792)" stroke-width="5" stroke-linecap="butt" stroke-miterlimit="10" stroke-linejoin="miter" fill="none" stroke="#000000" d="M3713.4 430.301 3501.3 218.102V-81.8984H3201.3L2989.1-294 3201.3-506.102 2989.1-718.301 3201.3-930.398H3501.3V-1230.4L3713.4-1442.5 3925.5-1230.4 4137.7-1442.5 4349.8-1230.4V-930.398H4649.8L4861.9-718.301 4649.8-506.102 4861.9-294 4649.8-81.8984H4349.8V218.102L4137.7 430.301 3925.5 218.102Z"/>
<path transform="matrix(.1,0,0,-.1,0,792)" d="M5586.2 430.301 5798.3 218.102 6010.5 430.301 5798.3 642.398Z" fill="#ffffff"/>
<path transform="matrix(.1,0,0,-.1,0,792)" stroke-width="5" stroke-linecap="butt" stroke-miterlimit="10" stroke-linejoin="miter" fill="none" stroke="#000000" d="M5586.2 430.301 5798.3 218.102 6010.5 430.301 5798.3 642.398Z"/>
<path transform="matrix(.1,0,0,-.1,0,792)" d="M5586.2 430.301 5374.1 218.102V-81.8984H5074.1L4861.9-294 5074.1-506.102 4861.9-718.301 5074.1-930.398H5374.1V-1230.4L5586.2-1442.5 5798.3-1230.4 6010.5-1442.5 6222.6-1230.4V-930.398H6522.6L6734.7-718.301 6522.6-506.102 6734.7-294 6522.6-81.8984H6222.6V218.102L6010.5 430.301 5798.3 218.102" fill="#a1382b"/>
<path transform="matrix(.1,0,0,-.1,0,792)" stroke-width="5" stroke-linecap="butt" stroke-miterlimit="10" stroke-linejoin="miter" fill="none" stroke="#000000" d="M5586.2 430.301 5374.1 218.102V-81.8984H5074.1L4861.9-294 5074.1-506.102 4861.9-718.301 5074.1-930.398H5374.1V-1230.4L5586.2-1442.5 5798.3-1230.4 6010.5-1442.5 6222.6-1230.4V-930.398H6522.6L6734.7-718.301 6522.6-506.102 6734.7-294 6522.6-81.8984H6222.6V218.102L6010.5 430.301 5798.3 218.102Z"/>
<path transform="matrix(.1,0,0,-.1,0,792)" d="M604.199 0H904.199V218.102H604.199Z" fill="#ffffff"/>
<path transform="matrix(.1,0,0,-.1,0,792)" stroke-width="5" stroke-linecap="butt" stroke-miterlimit="10" stroke-linejoin="miter" fill="none" stroke="#000000" d="M604.199-3.49609H904.199V218.10192H604.199Z"/>
<path transform="matrix(.1,0,0,-.1,0,792)" d="M1328.5 0H1628.5V218.102H1328.5Z" fill="#ffffff"/>
<path transform="matrix(.1,0,0,-.1,0,792)" stroke-width="5" stroke-linecap="butt" stroke-miterlimit="10" stroke-linejoin="miter" fill="none" stroke="#000000" d="M1328.5-3.49609H1628.5V218.10192H1328.5Z"/>
<path transform="matrix(.1,0,0,-.1,0,792)" d="M2477 0H2777V218.102H2477Z" fill="#ffffff"/>
<path transform="matrix(.1,0,0,-.1,0,792)" stroke-width="5" stroke-linecap="butt" stroke-miterlimit="10" stroke-linejoin="miter" fill="none" stroke="#000000" d="M2477-3.49609H2777V218.10192H2477Z"/>
<path transform="matrix(.1,0,0,-.1,0,792)" d="M3201.3 0H3501.3V218.102H3201.3Z" fill="#ffffff"/>
<path transform="matrix(.1,0,0,-.1,0,792)" stroke-width="5" stroke-linecap="butt" stroke-miterlimit="10" stroke-linejoin="miter" fill="none" stroke="#000000" d="M3201.3-3.49609H3501.3V218.10192H3201.3Z"/>
<path transform="matrix(.1,0,0,-.1,0,792)" d="M4349.8 0H4649.8V218.102H4349.8Z" fill="#ffffff"/>
<path transform="matrix(.1,0,0,-.1,0,792)" stroke-width="5" stroke-linecap="butt" stroke-miterlimit="10" stroke-linejoin="miter" fill="none" stroke="#000000" d="M4349.8-3.49609H4649.8V218.10192H4349.8Z"/>
<path transform="matrix(.1,0,0,-.1,0,792)" d="M5074.1 0H5374.1V218.102H5074.1Z" fill="#ffffff"/>
<path transform="matrix(.1,0,0,-.1,0,792)" stroke-width="5" stroke-linecap="butt" stroke-miterlimit="10" stroke-linejoin="miter" fill="none" stroke="#000000" d="M5074.1-3.49609H5374.1V218.10192H5074.1Z"/>
<path transform="matrix(.1,0,0,-.1,0,792)" d="M1116.3 130.301 904.199-81.8984 1116.3-294 1328.5-81.8984Z" fill="#ffffff"/>
<path transform="matrix(.1,0,0,-.1,0,792)" stroke-width="5" stroke-linecap="butt" stroke-miterlimit="10" stroke-linejoin="miter" fill="none" stroke="#000000" d="M1116.3 130.301 904.199-81.8984 1116.3-294 1328.5-81.8984Z"/>
<path transform="matrix(.1,0,0,-.1,0,792)" d="M2989.1 130.301 2777-81.8984 2989.1-294 3201.3-81.8984Z" fill="#ffffff"/>
<path transform="matrix(.1,0,0,-.1,0,792)" stroke-width="5" stroke-linecap="butt" stroke-miterlimit="10" stroke-linejoin="miter" fill="none" stroke="#000000" d="M2989.1 130.301 2777-81.8984 2989.1-294 3201.3-81.8984Z"/>
<path transform="matrix(.1,0,0,-.1,0,792)" d="M4861.9 130.301 4649.8-81.8984 4861.9-294 5074.1-81.8984Z" fill="#ffffff"/>
<path transform="matrix(.1,0,0,-.1,0,792)" stroke-width="5" stroke-linecap="butt" stroke-miterlimit="10" stroke-linejoin="miter" fill="none" stroke="#000000" d="M4861.9 130.301 4649.8-81.8984 4861.9-294 5074.1-81.8984Z"/>
<path transform="matrix(.1,0,0,-.1,0,792)" d="M6010.5 430.301 6222.6 218.102 6434.7 430.301 6222.6 642.398Z" fill="#ffffff"/>
<path transform="matrix(.1,0,0,-.1,0,792)" stroke-width="5" stroke-linecap="butt" stroke-miterlimit="10" stroke-linejoin="miter" fill="none" stroke="#000000" d="M6010.5 430.301 6222.6 218.102 6434.7 430.301 6222.6 642.398Z"/>
<path transform="matrix(.1,0,0,-.1,0,792)" d="M6010.5 2303.1 6222.6 2090.9 6434.7 2303.1 6222.6 2515.2Z" fill="#ffffff"/>
<path transform="matrix(.1,0,0,-.1,0,792)" stroke-width="5" stroke-linecap="butt" stroke-miterlimit="10" stroke-linejoin="miter" fill="none" stroke="#000000" d="M6010.5 2303.1 6222.6 2090.9 6434.7 2303.1 6222.6 2515.2Z"/>
<path transform="matrix(.1,0,0,-.1,0,792)" d="M6010.5 4175.9 6222.6 3963.7 6434.7 4175.9 6222.6 4388Z" fill="#ffffff"/>
<path transform="matrix(.1,0,0,-.1,0,792)" stroke-width="5" stroke-linecap="butt" stroke-miterlimit="10" stroke-linejoin="miter" fill="none" stroke="#000000" d="M6010.5 4175.9 6222.6 3963.7 6434.7 4175.9 6222.6 4388Z"/>
<path transform="matrix(.1,0,0,-.1,0,792)" d="M6010.5 6048.7 6222.6 5836.5 6434.7 6048.7 6222.6 6260.8Z" fill="#ffffff"/>
<path transform="matrix(.1,0,0,-.1,0,792)" stroke-width="5" stroke-linecap="butt" stroke-miterlimit="10" stroke-linejoin="miter" fill="none" stroke="#000000" d="M6010.5 6048.7 6222.6 5836.5 6434.7 6048.7 6222.6 6260.8Z"/>
<path transform="matrix(.1,0,0,-.1,0,792)" d="M6010.5 7921.4 6222.6 7709.3 6434.7 7921.4 6222.6 8133.6Z" fill="#ffffff"/>
<path transform="matrix(.1,0,0,-.1,0,792)" stroke-width="5" stroke-linecap="butt" stroke-miterlimit="10" stroke-linejoin="miter" fill="none" stroke="#000000" d="M6010.5 7921.4 6222.6 7709.3 6434.7 7921.4 6222.6 8133.6Z"/>
</svg>
