<svg xmlns="http://www.w3.org/2000/svg" xmlns:xlink="http://www.w3.org/1999/xlink" xmlns:inkscape="http://www.inkscape.org/namespaces/inkscape" version="1.1" width="612" height="792" viewBox="0 0 612 792">
<path transform="matrix(.1,0,0,-.1,0,792)" d="M2750.3 3518.4H3154.8L3029.8 3903.1 3357 4140.8 3029.8 4378.6 3154.8 4763.3H2750.3L2875.3 4378.6 2548 4140.8 2875.3 3903.1" fill="#805900"/>
<path transform="matrix(.1,0,0,-.1,0,792)" stroke-width="1" stroke-linecap="butt" stroke-miterlimit="10" stroke-linejoin="miter" fill="none" stroke="#000000" d="M2750.3 3518.4H3154.8L3029.8 3903.1 3357 4140.8 3029.8 4378.6 3154.8 4763.3H2750.3L2875.3 4378.6 2548 4140.8 2875.3 3903.1Z"/>
<path transform="matrix(.1,0,0,-.1,0,792)" d="M3029.8 4378.6 3357 4140.8 3684.3 4378.6 3559.3 4763.3H3154.8" fill="#ffde66"/>
<path transform="matrix(.1,0,0,-.1,0,792)" stroke-width="1" stroke-linecap="butt" stroke-miterlimit="10" stroke-linejoin="miter" fill="none" stroke="#000000" d="M3029.8 4378.6 3357 4140.8 3684.3 4378.6 3559.3 4763.3H3154.8Z"/>
<path transform="matrix(.1,0,0,-.1,0,792)" d="M2875.3 4378.6 2750.3 4763.3H2500.3L2298 4910.3 1970.8 4672.5 2095.8 4287.8H2345.8L2548 4140.8" fill="#ffffff"/>
<path transform="matrix(.1,0,0,-.1,0,792)" stroke-width="1" stroke-linecap="butt" stroke-miterlimit="10" stroke-linejoin="miter" fill="none" stroke="#000000" d="M2875.3 4378.6 2750.3 4763.3H2500.3L2298 4910.3 1970.8 4672.5 2095.8 4287.8H2345.8L2548 4140.8Z"/>
<path transform="matrix(.1,0,0,-.1,0,792)" d="M2875.3 3903.1 2548 4140.8 2220.8 3903.1 2345.8 3518.4H2750.3" fill="#ffde66"/>
<path transform="matrix(.1,0,0,-.1,0,792)" stroke-width="1" stroke-linecap="butt" stroke-miterlimit="10" stroke-linejoin="miter" fill="none" stroke="#000000" d="M2875.3 3903.1 2548 4140.8 2220.8 3903.1 2345.8 3518.4H2750.3Z"/>
<path transform="matrix(.1,0,0,-.1,0,792)" d="M3029.8 3903.1 3154.8 3518.4H3559.3L3684.3 3903.1 3357 4140.8" fill="#ffde66"/>
<path transform="matrix(.1,0,0,-.1,0,792)" stroke-width="1" stroke-linecap="butt" stroke-miterlimit="10" stroke-linejoin="miter" fill="none" stroke="#000000" d="M3029.8 3903.1 3154.8 3518.4H3559.3L3684.3 3903.1 3357 4140.8Z"/>
<path transform="matrix(.1,0,0,-.1,0,792)" d="M3357 4140.8 3684.3 3903.1 3559.3 3518.4H3963.8L3838.8 3903.1 4166.1 4140.8 3838.8 4378.6 3963.8 4763.3H3559.3L3684.3 4378.6" fill="#805900"/>
<path transform="matrix(.1,0,0,-.1,0,792)" stroke-width="1" stroke-linecap="butt" stroke-miterlimit="10" stroke-linejoin="miter" fill="none" stroke="#000000" d="M3357 4140.8 3684.3 3903.1 3559.3 3518.4H3963.8L3838.8 3903.1 4166.1 4140.8 3838.8 4378.6 3963.8 4763.3H3559.3L3684.3 4378.6Z"/>
<path transform="matrix(.1,0,0,-.1,0,792)" d="M3154.8 4763.3 3232 5001.1 3434.3 5148 3309.3 5532.7H2904.8L2827.5 5295 2625.3 5148 2750.3 4763.3" fill="#ffffff"/>
<path transform="matrix(.1,0,0,-.1,0,792)" stroke-width="1" stroke-linecap="butt" stroke-miterlimit="10" stroke-linejoin="miter" fill="none" stroke="#000000" d="M3154.8 4763.3 3232 5001.1 3434.3 5148 3309.3 5532.7H2904.8L2827.5 5295 2625.3 5148 2750.3 4763.3Z"/>
<path transform="matrix(.1,0,0,-.1,0,792)" d="M3154.8 4763.3H3559.3L3434.3 5148 3232 5001.1Z" fill="#5c6600"/>
<path transform="matrix(.1,0,0,-.1,0,792)" stroke-width="1" stroke-linecap="butt" stroke-miterlimit="10" stroke-linejoin="miter" fill="none" stroke="#000000" d="M3154.8 4763.3H3559.3L3434.3 5148 3232 5001.1Z"/>
<path transform="matrix(.1,0,0,-.1,0,792)" d="M2750.3 4763.3 2625.3 5148 2298 4910.3 2500.3 4763.3Z" fill="#5c6600"/>
<path transform="matrix(.1,0,0,-.1,0,792)" stroke-width="1" stroke-linecap="butt" stroke-miterlimit="10" stroke-linejoin="miter" fill="none" stroke="#000000" d="M2750.3 4763.3 2625.3 5148 2298 4910.3 2500.3 4763.3Z"/>
<path transform="matrix(.1,0,0,-.1,0,792)" d="M2548 4140.8 2345.8 4287.8H2095.8L2220.8 3903.1Z" fill="#5c6600"/>
<path transform="matrix(.1,0,0,-.1,0,792)" stroke-width="1" stroke-linecap="butt" stroke-miterlimit="10" stroke-linejoin="miter" fill="none" stroke="#000000" d="M2548 4140.8 2345.8 4287.8H2095.8L2220.8 3903.1Z"/>
<path transform="matrix(.1,0,0,-.1,0,792)" d="M2750.3 3518.4 2625.3 3133.7 2952.5 2895.9 3279.8 3133.7 3154.8 3518.4" fill="#ffde66"/>
<path transform="matrix(.1,0,0,-.1,0,792)" stroke-width="1" stroke-linecap="butt" stroke-miterlimit="10" stroke-linejoin="miter" fill="none" stroke="#000000" d="M2750.3 3518.4 2625.3 3133.7 2952.5 2895.9 3279.8 3133.7 3154.8 3518.4Z"/>
<path transform="matrix(.1,0,0,-.1,0,792)" d="M2750.3 3518.4H2345.8L2470.8 3133.7 2143.5 2895.9 2470.8 2658.1 2345.8 2273.4H2750.3L2625.3 2658.1 2952.5 2895.9 2625.3 3133.7" fill="#805900"/>
<path transform="matrix(.1,0,0,-.1,0,792)" stroke-width="1" stroke-linecap="butt" stroke-miterlimit="10" stroke-linejoin="miter" fill="none" stroke="#000000" d="M2750.3 3518.4H2345.8L2470.8 3133.7 2143.5 2895.9 2470.8 2658.1 2345.8 2273.4H2750.3L2625.3 2658.1 2952.5 2895.9 2625.3 3133.7Z"/>
<path transform="matrix(.1,0,0,-.1,0,792)" d="M3154.8 3518.4 3279.8 3133.7 3482 3280.6 3559.3 3518.4Z" fill="#5c6600"/>
<path transform="matrix(.1,0,0,-.1,0,792)" stroke-width="1" stroke-linecap="butt" stroke-miterlimit="10" stroke-linejoin="miter" fill="none" stroke="#000000" d="M3154.8 3518.4 3279.8 3133.7 3482 3280.6 3559.3 3518.4Z"/>
<path transform="matrix(.1,0,0,-.1,0,792)" d="M3559.3 3518.4 3482 3280.6 3279.8 3133.7 3404.8 2748.9H3809.3L3886.5 2986.7 4088.8 3133.7 3963.8 3518.4" fill="#ffffff"/>
<path transform="matrix(.1,0,0,-.1,0,792)" stroke-width="1" stroke-linecap="butt" stroke-miterlimit="10" stroke-linejoin="miter" fill="none" stroke="#000000" d="M3559.3 3518.4 3482 3280.6 3279.8 3133.7 3404.8 2748.9H3809.3L3886.5 2986.7 4088.8 3133.7 3963.8 3518.4Z"/>
<path transform="matrix(.1,0,0,-.1,0,792)" d="M3559.3 4763.3H3963.8L4088.8 5148 3761.5 5385.8 3434.3 5148" fill="#ffde66"/>
<path transform="matrix(.1,0,0,-.1,0,792)" stroke-width="1" stroke-linecap="butt" stroke-miterlimit="10" stroke-linejoin="miter" fill="none" stroke="#000000" d="M3559.3 4763.3H3963.8L4088.8 5148 3761.5 5385.8 3434.3 5148Z"/>
<path transform="matrix(.1,0,0,-.1,0,792)" d="M2345.8 3518.4H1941.3L1816.3 3133.7 2143.5 2895.9 2470.8 3133.7" fill="#ffde66"/>
<path transform="matrix(.1,0,0,-.1,0,792)" stroke-width="1" stroke-linecap="butt" stroke-miterlimit="10" stroke-linejoin="miter" fill="none" stroke="#000000" d="M2345.8 3518.4H1941.3L1816.3 3133.7 2143.5 2895.9 2470.8 3133.7Z"/>
<path transform="matrix(.1,0,0,-.1,0,792)" d="M2345.8 3518.4 2220.8 3903.1 2018.5 3756.1 1941.3 3518.4Z" fill="#5c6600"/>
<path transform="matrix(.1,0,0,-.1,0,792)" stroke-width="1" stroke-linecap="butt" stroke-miterlimit="10" stroke-linejoin="miter" fill="none" stroke="#000000" d="M2345.8 3518.4 2220.8 3903.1 2018.5 3756.1 1941.3 3518.4Z"/>
<path transform="matrix(.1,0,0,-.1,0,792)" d="M2298 4910.3 1970.8 5148 2095.8 5532.7H1691.3L1816.3 5148 1489 4910.3 1816.3 4672.5 1691.3 4287.8H2095.8L1970.8 4672.5" fill="#805900"/>
<path transform="matrix(.1,0,0,-.1,0,792)" stroke-width="1" stroke-linecap="butt" stroke-miterlimit="10" stroke-linejoin="miter" fill="none" stroke="#000000" d="M2298 4910.3 1970.8 5148 2095.8 5532.7H1691.3L1816.3 5148 1489 4910.3 1816.3 4672.5 1691.3 4287.8H2095.8L1970.8 4672.5Z"/>
<path transform="matrix(.1,0,0,-.1,0,792)" d="M2298 4910.3 2625.3 5148 2500.3 5532.7H2095.8L1970.8 5148" fill="#ffde66"/>
<path transform="matrix(.1,0,0,-.1,0,792)" stroke-width="1" stroke-linecap="butt" stroke-miterlimit="10" stroke-linejoin="miter" fill="none" stroke="#000000" d="M2298 4910.3 2625.3 5148 2500.3 5532.7H2095.8L1970.8 5148Z"/>
<path transform="matrix(.1,0,0,-.1,0,792)" d="M2625.3 5148 2827.5 5295 2904.8 5532.7H2500.3Z" fill="#5c6600"/>
<path transform="matrix(.1,0,0,-.1,0,792)" stroke-width="1" stroke-linecap="butt" stroke-miterlimit="10" stroke-linejoin="miter" fill="none" stroke="#000000" d="M2625.3 5148 2827.5 5295 2904.8 5532.7H2500.3Z"/>
<path transform="matrix(.1,0,0,-.1,0,792)" d="M3434.3 5148 3761.5 5385.8 3559.3 5532.7H3309.3Z" fill="#5c6600"/>
<path transform="matrix(.1,0,0,-.1,0,792)" stroke-width="1" stroke-linecap="butt" stroke-miterlimit="10" stroke-linejoin="miter" fill="none" stroke="#000000" d="M3434.3 5148 3761.5 5385.8 3559.3 5532.7H3309.3Z"/>
<path transform="matrix(.1,0,0,-.1,0,792)" d="M2220.8 3903.1 2095.8 4287.8H1691.3L1614 4050 1411.7 3903.1 1536.7 3518.4H1941.3L2018.5 3756.1" fill="#ffffff"/>
<path transform="matrix(.1,0,0,-.1,0,792)" stroke-width="1" stroke-linecap="butt" stroke-miterlimit="10" stroke-linejoin="miter" fill="none" stroke="#000000" d="M2220.8 3903.1 2095.8 4287.8H1691.3L1614 4050 1411.7 3903.1 1536.7 3518.4H1941.3L2018.5 3756.1Z"/>
<path transform="matrix(.1,0,0,-.1,0,792)" d="M3279.8 3133.7 2952.5 2895.9 3154.8 2748.9H3404.8Z" fill="#5c6600"/>
<path transform="matrix(.1,0,0,-.1,0,792)" stroke-width="1" stroke-linecap="butt" stroke-miterlimit="10" stroke-linejoin="miter" fill="none" stroke="#000000" d="M3279.8 3133.7 2952.5 2895.9 3154.8 2748.9H3404.8Z"/>
<path transform="matrix(.1,0,0,-.1,0,792)" d="M3761.5 5385.8 4088.8 5623.5 3963.8 6008.3H3713.8L3511.5 6155.2 3184.3 5917.4 3309.3 5532.7H3559.3" fill="#ffffff"/>
<path transform="matrix(.1,0,0,-.1,0,792)" stroke-width="1" stroke-linecap="butt" stroke-miterlimit="10" stroke-linejoin="miter" fill="none" stroke="#000000" d="M3761.5 5385.8 4088.8 5623.5 3963.8 6008.3H3713.8L3511.5 6155.2 3184.3 5917.4 3309.3 5532.7H3559.3Z"/>
<path transform="matrix(.1,0,0,-.1,0,792)" d="M3761.5 5385.8 4088.8 5148 3963.8 4763.3H4368.3L4243.3 5148 4570.6 5385.8 4243.3 5623.5 4368.3 6008.3H3963.8L4088.8 5623.5" fill="#805900"/>
<path transform="matrix(.1,0,0,-.1,0,792)" stroke-width="1" stroke-linecap="butt" stroke-miterlimit="10" stroke-linejoin="miter" fill="none" stroke="#000000" d="M3761.5 5385.8 4088.8 5148 3963.8 4763.3H4368.3L4243.3 5148 4570.6 5385.8 4243.3 5623.5 4368.3 6008.3H3963.8L4088.8 5623.5Z"/>
<path transform="matrix(.1,0,0,-.1,0,792)" d="M3838.8 4378.6 4166.1 4140.8 4493.3 4378.6 4368.3 4763.3H3963.8" fill="#ffde66"/>
<path transform="matrix(.1,0,0,-.1,0,792)" stroke-width="1" stroke-linecap="butt" stroke-miterlimit="10" stroke-linejoin="miter" fill="none" stroke="#000000" d="M3838.8 4378.6 4166.1 4140.8 4493.3 4378.6 4368.3 4763.3H3963.8Z"/>
<path transform="matrix(.1,0,0,-.1,0,792)" d="M3838.8 3903.1 3963.8 3518.4H4213.8L4416.1 3371.4 4743.3 3609.2 4618.3 3993.9H4368.3L4166.1 4140.8" fill="#ffffff"/>
<path transform="matrix(.1,0,0,-.1,0,792)" stroke-width="1" stroke-linecap="butt" stroke-miterlimit="10" stroke-linejoin="miter" fill="none" stroke="#000000" d="M3838.8 3903.1 3963.8 3518.4H4213.8L4416.1 3371.4 4743.3 3609.2 4618.3 3993.9H4368.3L4166.1 4140.8Z"/>
<path transform="matrix(.1,0,0,-.1,0,792)" d="M3886.5 2986.7 3809.3 2748.9H4213.8L4088.8 3133.7Z" fill="#5c6600"/>
<path transform="matrix(.1,0,0,-.1,0,792)" stroke-width="1" stroke-linecap="butt" stroke-miterlimit="10" stroke-linejoin="miter" fill="none" stroke="#000000" d="M3886.5 2986.7 3809.3 2748.9H4213.8L4088.8 3133.7Z"/>
<path transform="matrix(.1,0,0,-.1,0,792)" d="M2143.5 2895.9 1816.3 2658.1 1941.3 2273.4H2345.8L2470.8 2658.1" fill="#ffde66"/>
<path transform="matrix(.1,0,0,-.1,0,792)" stroke-width="1" stroke-linecap="butt" stroke-miterlimit="10" stroke-linejoin="miter" fill="none" stroke="#000000" d="M2143.5 2895.9 1816.3 2658.1 1941.3 2273.4H2345.8L2470.8 2658.1Z"/>
<path transform="matrix(.1,0,0,-.1,0,792)" d="M2143.5 2895.9 1816.3 3133.7 1941.3 3518.4H1536.7L1661.7 3133.7 1334.5 2895.9 1661.7 2658.1 1536.7 2273.4H1941.3L1816.3 2658.1" fill="#805900"/>
<path transform="matrix(.1,0,0,-.1,0,792)" stroke-width="1" stroke-linecap="butt" stroke-miterlimit="10" stroke-linejoin="miter" fill="none" stroke="#000000" d="M2143.5 2895.9 1816.3 3133.7 1941.3 3518.4H1536.7L1661.7 3133.7 1334.5 2895.9 1661.7 2658.1 1536.7 2273.4H1941.3L1816.3 2658.1Z"/>
<path transform="matrix(.1,0,0,-.1,0,792)" d="M2952.5 2895.9 2625.3 2658.1 2750.3 2273.4H3000.3L3202.5 2126.5 3529.8 2364.2 3404.8 2748.9H3154.8" fill="#ffffff"/>
<path transform="matrix(.1,0,0,-.1,0,792)" stroke-width="1" stroke-linecap="butt" stroke-miterlimit="10" stroke-linejoin="miter" fill="none" stroke="#000000" d="M2952.5 2895.9 2625.3 2658.1 2750.3 2273.4H3000.3L3202.5 2126.5 3529.8 2364.2 3404.8 2748.9H3154.8Z"/>
<path transform="matrix(.1,0,0,-.1,0,792)" d="M3309.3 5532.7 3184.3 5917.4 3511.5 6155.2 3184.3 6393 3309.3 6777.7H2904.8L3029.8 6393 2702.5 6155.2 3029.8 5917.4 2904.8 5532.7" fill="#805900"/>
<path transform="matrix(.1,0,0,-.1,0,792)" stroke-width="1" stroke-linecap="butt" stroke-miterlimit="10" stroke-linejoin="miter" fill="none" stroke="#000000" d="M3309.3 5532.7 3184.3 5917.4 3511.5 6155.2 3184.3 6393 3309.3 6777.7H2904.8L3029.8 6393 2702.5 6155.2 3029.8 5917.4 2904.8 5532.7Z"/>
<path transform="matrix(.1,0,0,-.1,0,792)" d="M2904.8 5532.7 3029.8 5917.4 2702.5 6155.2 2375.3 5917.4 2500.3 5532.7" fill="#ffde66"/>
<path transform="matrix(.1,0,0,-.1,0,792)" stroke-width="1" stroke-linecap="butt" stroke-miterlimit="10" stroke-linejoin="miter" fill="none" stroke="#000000" d="M2904.8 5532.7 3029.8 5917.4 2702.5 6155.2 2375.3 5917.4 2500.3 5532.7Z"/>
<path transform="matrix(.1,0,0,-.1,0,792)" d="M2500.3 5532.7 2375.3 5917.4 2702.5 6155.2 2375.3 6393 2500.3 6777.7H2095.8L2220.8 6393 1893.5 6155.2 2220.8 5917.4 2095.8 5532.7" fill="#805900"/>
<path transform="matrix(.1,0,0,-.1,0,792)" stroke-width="1" stroke-linecap="butt" stroke-miterlimit="10" stroke-linejoin="miter" fill="none" stroke="#000000" d="M2500.3 5532.7 2375.3 5917.4 2702.5 6155.2 2375.3 6393 2500.3 6777.7H2095.8L2220.8 6393 1893.5 6155.2 2220.8 5917.4 2095.8 5532.7Z"/>
<path transform="matrix(.1,0,0,-.1,0,792)" d="M2095.8 5532.7 2220.8 5917.4 1893.5 6155.2 1566.3 5917.4 1691.3 5532.7" fill="#ffde66"/>
<path transform="matrix(.1,0,0,-.1,0,792)" stroke-width="1" stroke-linecap="butt" stroke-miterlimit="10" stroke-linejoin="miter" fill="none" stroke="#000000" d="M2095.8 5532.7 2220.8 5917.4 1893.5 6155.2 1566.3 5917.4 1691.3 5532.7Z"/>
<path transform="matrix(.1,0,0,-.1,0,792)" d="M3963.8 3518.4 4088.8 3133.7 4416.1 3371.4 4213.8 3518.4Z" fill="#5c6600"/>
<path transform="matrix(.1,0,0,-.1,0,792)" stroke-width="1" stroke-linecap="butt" stroke-miterlimit="10" stroke-linejoin="miter" fill="none" stroke="#000000" d="M3963.8 3518.4 4088.8 3133.7 4416.1 3371.4 4213.8 3518.4Z"/>
<path transform="matrix(.1,0,0,-.1,0,792)" d="M3404.8 2748.9 3529.8 2364.2 3202.5 2126.5 3529.8 1888.7 3404.8 1504H3809.3L3684.3 1888.7 4011.5 2126.5 3684.3 2364.2 3809.3 2748.9" fill="#805900"/>
<path transform="matrix(.1,0,0,-.1,0,792)" stroke-width="1" stroke-linecap="butt" stroke-miterlimit="10" stroke-linejoin="miter" fill="none" stroke="#000000" d="M3404.8 2748.9 3529.8 2364.2 3202.5 2126.5 3529.8 1888.7 3404.8 1504H3809.3L3684.3 1888.7 4011.5 2126.5 3684.3 2364.2 3809.3 2748.9Z"/>
<path transform="matrix(.1,0,0,-.1,0,792)" d="M3809.3 2748.9 3684.3 2364.2 4011.5 2126.5 4338.8 2364.2 4213.8 2748.9" fill="#ffde66"/>
<path transform="matrix(.1,0,0,-.1,0,792)" stroke-width="1" stroke-linecap="butt" stroke-miterlimit="10" stroke-linejoin="miter" fill="none" stroke="#000000" d="M3809.3 2748.9 3684.3 2364.2 4011.5 2126.5 4338.8 2364.2 4213.8 2748.9Z"/>
<path transform="matrix(.1,0,0,-.1,0,792)" d="M4088.8 3133.7 4213.8 2748.9H4618.3L4743.3 3133.7 4416.1 3371.4" fill="#ffde66"/>
<path transform="matrix(.1,0,0,-.1,0,792)" stroke-width="1" stroke-linecap="butt" stroke-miterlimit="10" stroke-linejoin="miter" fill="none" stroke="#000000" d="M4088.8 3133.7 4213.8 2748.9H4618.3L4743.3 3133.7 4416.1 3371.4Z"/>
<path transform="matrix(.1,0,0,-.1,0,792)" d="M1816.3 5148 1691.3 5532.7H1286.7L1161.7 5148 1489 4910.3" fill="#ffde66"/>
<path transform="matrix(.1,0,0,-.1,0,792)" stroke-width="1" stroke-linecap="butt" stroke-miterlimit="10" stroke-linejoin="miter" fill="none" stroke="#000000" d="M1816.3 5148 1691.3 5532.7H1286.7L1161.7 5148 1489 4910.3Z"/>
<path transform="matrix(.1,0,0,-.1,0,792)" d="M1816.3 4672.5 1489 4910.3 1161.7 4672.5 1286.7 4287.8H1691.3" fill="#ffde66"/>
<path transform="matrix(.1,0,0,-.1,0,792)" stroke-width="1" stroke-linecap="butt" stroke-miterlimit="10" stroke-linejoin="miter" fill="none" stroke="#000000" d="M1816.3 4672.5 1489 4910.3 1161.7 4672.5 1286.7 4287.8H1691.3Z"/>
<path transform="matrix(.1,0,0,-.1,0,792)" d="M4166.1 4140.8 4368.3 3993.9H4618.3L4493.3 4378.6Z" fill="#5c6600"/>
<path transform="matrix(.1,0,0,-.1,0,792)" stroke-width="1" stroke-linecap="butt" stroke-miterlimit="10" stroke-linejoin="miter" fill="none" stroke="#000000" d="M4166.1 4140.8 4368.3 3993.9H4618.3L4493.3 4378.6Z"/>
<path transform="matrix(.1,0,0,-.1,0,792)" d="M4213.8 2748.9 4338.8 2364.2 4011.5 2126.5 4338.8 1888.7 4213.8 1504H4618.3L4493.3 1888.7 4820.6 2126.5 4493.3 2364.2 4618.3 2748.9" fill="#805900"/>
<path transform="matrix(.1,0,0,-.1,0,792)" stroke-width="1" stroke-linecap="butt" stroke-miterlimit="10" stroke-linejoin="miter" fill="none" stroke="#000000" d="M4213.8 2748.9 4338.8 2364.2 4011.5 2126.5 4338.8 1888.7 4213.8 1504H4618.3L4493.3 1888.7 4820.6 2126.5 4493.3 2364.2 4618.3 2748.9Z"/>
<path transform="matrix(.1,0,0,-.1,0,792)" d="M4243.3 5148 4368.3 4763.3H4772.8L4897.8 5148 4570.6 5385.8" fill="#ffde66"/>
<path transform="matrix(.1,0,0,-.1,0,792)" stroke-width="1" stroke-linecap="butt" stroke-miterlimit="10" stroke-linejoin="miter" fill="none" stroke="#000000" d="M4243.3 5148 4368.3 4763.3H4772.8L4897.8 5148 4570.6 5385.8Z"/>
<path transform="matrix(.1,0,0,-.1,0,792)" d="M4243.3 5623.5 4570.6 5385.8 4897.8 5623.5 4772.8 6008.3H4368.3" fill="#ffde66"/>
<path transform="matrix(.1,0,0,-.1,0,792)" stroke-width="1" stroke-linecap="butt" stroke-miterlimit="10" stroke-linejoin="miter" fill="none" stroke="#000000" d="M4243.3 5623.5 4570.6 5385.8 4897.8 5623.5 4772.8 6008.3H4368.3Z"/>
<path transform="matrix(.1,0,0,-.1,0,792)" d="M1691.3 5532.7 1566.3 5917.4 1364 5770.5 1286.7 5532.7Z" fill="#5c6600"/>
<path transform="matrix(.1,0,0,-.1,0,792)" stroke-width="1" stroke-linecap="butt" stroke-miterlimit="10" stroke-linejoin="miter" fill="none" stroke="#000000" d="M1691.3 5532.7 1566.3 5917.4 1364 5770.5 1286.7 5532.7Z"/>
<path transform="matrix(.1,0,0,-.1,0,792)" d="M1691.3 4287.8H1286.7L1411.7 3903.1 1614 4050Z" fill="#5c6600"/>
<path transform="matrix(.1,0,0,-.1,0,792)" stroke-width="1" stroke-linecap="butt" stroke-miterlimit="10" stroke-linejoin="miter" fill="none" stroke="#000000" d="M1691.3 4287.8H1286.7L1411.7 3903.1 1614 4050Z"/>
<path transform="matrix(.1,0,0,-.1,0,792)" d="M3963.8 6008.3 3838.8 6393 3511.5 6155.2 3713.8 6008.3Z" fill="#5c6600"/>
<path transform="matrix(.1,0,0,-.1,0,792)" stroke-width="1" stroke-linecap="butt" stroke-miterlimit="10" stroke-linejoin="miter" fill="none" stroke="#000000" d="M3963.8 6008.3 3838.8 6393 3511.5 6155.2 3713.8 6008.3Z"/>
<path transform="matrix(.1,0,0,-.1,0,792)" d="M3963.8 6008.3H4368.3L4445.6 6246 4647.8 6393 4522.8 6777.7H4118.3L4041.1 6539.9 3838.8 6393" fill="#ffffff"/>
<path transform="matrix(.1,0,0,-.1,0,792)" stroke-width="1" stroke-linecap="butt" stroke-miterlimit="10" stroke-linejoin="miter" fill="none" stroke="#000000" d="M3963.8 6008.3H4368.3L4445.6 6246 4647.8 6393 4522.8 6777.7H4118.3L4041.1 6539.9 3838.8 6393Z"/>
<path transform="matrix(.1,0,0,-.1,0,792)" d="M1661.7 3133.7 1536.7 3518.4H1286.7L1084.5 3665.3 757.199 3427.5 882.199 3042.8H1132.2L1334.5 2895.9" fill="#ffffff"/>
<path transform="matrix(.1,0,0,-.1,0,792)" stroke-width="1" stroke-linecap="butt" stroke-miterlimit="10" stroke-linejoin="miter" fill="none" stroke="#000000" d="M1661.7 3133.7 1536.7 3518.4H1286.7L1084.5 3665.3 757.199 3427.5 882.199 3042.8H1132.2L1334.5 2895.9Z"/>
<path transform="matrix(.1,0,0,-.1,0,792)" d="M1661.7 2658.1 1334.5 2895.9 1007.2 2658.1 1132.2 2273.4H1536.7" fill="#ffde66"/>
<path transform="matrix(.1,0,0,-.1,0,792)" stroke-width="1" stroke-linecap="butt" stroke-miterlimit="10" stroke-linejoin="miter" fill="none" stroke="#000000" d="M1661.7 2658.1 1334.5 2895.9 1007.2 2658.1 1132.2 2273.4H1536.7Z"/>
<path transform="matrix(.1,0,0,-.1,0,792)" d="M4368.3 4763.3 4493.3 4378.6 4695.6 4525.5 4772.8 4763.3Z" fill="#5c6600"/>
<path transform="matrix(.1,0,0,-.1,0,792)" stroke-width="1" stroke-linecap="butt" stroke-miterlimit="10" stroke-linejoin="miter" fill="none" stroke="#000000" d="M4368.3 4763.3 4493.3 4378.6 4695.6 4525.5 4772.8 4763.3Z"/>
<path transform="matrix(.1,0,0,-.1,0,792)" d="M4368.3 6008.3H4772.8L4647.8 6393 4445.6 6246Z" fill="#5c6600"/>
<path transform="matrix(.1,0,0,-.1,0,792)" stroke-width="1" stroke-linecap="butt" stroke-miterlimit="10" stroke-linejoin="miter" fill="none" stroke="#000000" d="M4368.3 6008.3H4772.8L4647.8 6393 4445.6 6246Z"/>
<path transform="matrix(.1,0,0,-.1,0,792)" d="M1941.3 2273.4 2066.3 1888.7 2268.5 2035.6 2345.8 2273.4Z" fill="#5c6600"/>
<path transform="matrix(.1,0,0,-.1,0,792)" stroke-width="1" stroke-linecap="butt" stroke-miterlimit="10" stroke-linejoin="miter" fill="none" stroke="#000000" d="M1941.3 2273.4 2066.3 1888.7 2268.5 2035.6 2345.8 2273.4Z"/>
<path transform="matrix(.1,0,0,-.1,0,792)" d="M1941.3 2273.4H1536.7L1411.7 1888.7 1739 1650.9 2066.3 1888.7" fill="#ffde66"/>
<path transform="matrix(.1,0,0,-.1,0,792)" stroke-width="1" stroke-linecap="butt" stroke-miterlimit="10" stroke-linejoin="miter" fill="none" stroke="#000000" d="M1941.3 2273.4H1536.7L1411.7 1888.7 1739 1650.9 2066.3 1888.7Z"/>
<path transform="matrix(.1,0,0,-.1,0,792)" d="M2345.8 2273.4 2268.5 2035.6 2066.3 1888.7 2191.3 1504H2595.8L2673 1741.8 2875.3 1888.7 2750.3 2273.4" fill="#ffffff"/>
<path transform="matrix(.1,0,0,-.1,0,792)" stroke-width="1" stroke-linecap="butt" stroke-miterlimit="10" stroke-linejoin="miter" fill="none" stroke="#000000" d="M2345.8 2273.4 2268.5 2035.6 2066.3 1888.7 2191.3 1504H2595.8L2673 1741.8 2875.3 1888.7 2750.3 2273.4Z"/>
<path transform="matrix(.1,0,0,-.1,0,792)" d="M2750.3 2273.4 2875.3 1888.7 3202.5 2126.5 3000.3 2273.4Z" fill="#5c6600"/>
<path transform="matrix(.1,0,0,-.1,0,792)" stroke-width="1" stroke-linecap="butt" stroke-miterlimit="10" stroke-linejoin="miter" fill="none" stroke="#000000" d="M2750.3 2273.4 2875.3 1888.7 3202.5 2126.5 3000.3 2273.4Z"/>
<path transform="matrix(.1,0,0,-.1,0,792)" d="M1566.3 5917.4 1441.3 6302.2H1036.7L959.5 6064.4 757.199 5917.4 882.199 5532.7H1286.7L1364 5770.5" fill="#ffffff"/>
<path transform="matrix(.1,0,0,-.1,0,792)" stroke-width="1" stroke-linecap="butt" stroke-miterlimit="10" stroke-linejoin="miter" fill="none" stroke="#000000" d="M1566.3 5917.4 1441.3 6302.2H1036.7L959.5 6064.4 757.199 5917.4 882.199 5532.7H1286.7L1364 5770.5Z"/>
<path transform="matrix(.1,0,0,-.1,0,792)" d="M1566.3 5917.4 1893.5 6155.2 1691.3 6302.2H1441.3Z" fill="#5c6600"/>
<path transform="matrix(.1,0,0,-.1,0,792)" stroke-width="1" stroke-linecap="butt" stroke-miterlimit="10" stroke-linejoin="miter" fill="none" stroke="#000000" d="M1566.3 5917.4 1893.5 6155.2 1691.3 6302.2H1441.3Z"/>
<path transform="matrix(.1,0,0,-.1,0,792)" d="M1893.5 6155.2 2220.8 6393 2095.8 6777.7H1845.8L1643.5 6924.6 1316.3 6686.9 1441.3 6302.2H1691.3" fill="#ffffff"/>
<path transform="matrix(.1,0,0,-.1,0,792)" stroke-width="1" stroke-linecap="butt" stroke-miterlimit="10" stroke-linejoin="miter" fill="none" stroke="#000000" d="M1893.5 6155.2 2220.8 6393 2095.8 6777.7H1845.8L1643.5 6924.6 1316.3 6686.9 1441.3 6302.2H1691.3Z"/>
<path transform="matrix(.1,0,0,-.1,0,792)" d="M3511.5 6155.2 3838.8 6393 3713.8 6777.7H3309.3L3184.3 6393" fill="#ffde66"/>
<path transform="matrix(.1,0,0,-.1,0,792)" stroke-width="1" stroke-linecap="butt" stroke-miterlimit="10" stroke-linejoin="miter" fill="none" stroke="#000000" d="M3511.5 6155.2 3838.8 6393 3713.8 6777.7H3309.3L3184.3 6393Z"/>
<path transform="matrix(.1,0,0,-.1,0,792)" d="M2702.5 6155.2 3029.8 6393 2904.8 6777.7H2500.3L2375.3 6393" fill="#ffde66"/>
<path transform="matrix(.1,0,0,-.1,0,792)" stroke-width="1" stroke-linecap="butt" stroke-miterlimit="10" stroke-linejoin="miter" fill="none" stroke="#000000" d="M2702.5 6155.2 3029.8 6393 2904.8 6777.7H2500.3L2375.3 6393Z"/>
<path transform="matrix(.1,0,0,-.1,0,792)" d="M1536.7 3518.4 1411.7 3903.1 1084.5 3665.3 1286.7 3518.4Z" fill="#5c6600"/>
<path transform="matrix(.1,0,0,-.1,0,792)" stroke-width="1" stroke-linecap="butt" stroke-miterlimit="10" stroke-linejoin="miter" fill="none" stroke="#000000" d="M1536.7 3518.4 1411.7 3903.1 1084.5 3665.3 1286.7 3518.4Z"/>
<path transform="matrix(.1,0,0,-.1,0,792)" d="M1536.7 2273.4H1132.2L1257.2 1888.7 930 1650.9 1257.2 1413.2 1132.2 1028.5H1536.7L1411.7 1413.2 1739 1650.9 1411.7 1888.7" fill="#805900"/>
<path transform="matrix(.1,0,0,-.1,0,792)" stroke-width="1" stroke-linecap="butt" stroke-miterlimit="10" stroke-linejoin="miter" fill="none" stroke="#000000" d="M1536.7 2273.4H1132.2L1257.2 1888.7 930 1650.9 1257.2 1413.2 1132.2 1028.5H1536.7L1411.7 1413.2 1739 1650.9 1411.7 1888.7Z"/>
<path transform="matrix(.1,0,0,-.1,0,792)" d="M4416.1 3371.4 4743.3 3133.7 4618.3 2748.9H5022.8L4897.8 3133.7 5225.1 3371.4 4897.8 3609.2 5022.8 3993.9H4618.3L4743.3 3609.2" fill="#805900"/>
<path transform="matrix(.1,0,0,-.1,0,792)" stroke-width="1" stroke-linecap="butt" stroke-miterlimit="10" stroke-linejoin="miter" fill="none" stroke="#000000" d="M4416.1 3371.4 4743.3 3133.7 4618.3 2748.9H5022.8L4897.8 3133.7 5225.1 3371.4 4897.8 3609.2 5022.8 3993.9H4618.3L4743.3 3609.2Z"/>
<path transform="matrix(.1,0,0,-.1,0,792)" d="M1489 4910.3 1161.7 5148 1286.7 5532.7H882.199L1007.2 5148 680 4910.3 1007.2 4672.5 882.199 4287.8H1286.7L1161.7 4672.5" fill="#805900"/>
<path transform="matrix(.1,0,0,-.1,0,792)" stroke-width="1" stroke-linecap="butt" stroke-miterlimit="10" stroke-linejoin="miter" fill="none" stroke="#000000" d="M1489 4910.3 1161.7 5148 1286.7 5532.7H882.199L1007.2 5148 680 4910.3 1007.2 4672.5 882.199 4287.8H1286.7L1161.7 4672.5Z"/>
<path transform="matrix(.1,0,0,-.1,0,792)" d="M3202.5 2126.5 2875.3 1888.7 3000.3 1504H3404.8L3529.8 1888.7" fill="#ffde66"/>
<path transform="matrix(.1,0,0,-.1,0,792)" stroke-width="1" stroke-linecap="butt" stroke-miterlimit="10" stroke-linejoin="miter" fill="none" stroke="#000000" d="M3202.5 2126.5 2875.3 1888.7 3000.3 1504H3404.8L3529.8 1888.7Z"/>
<path transform="matrix(.1,0,0,-.1,0,792)" d="M4011.5 2126.5 3684.3 1888.7 3809.3 1504H4213.8L4338.8 1888.7" fill="#ffde66"/>
<path transform="matrix(.1,0,0,-.1,0,792)" stroke-width="1" stroke-linecap="butt" stroke-miterlimit="10" stroke-linejoin="miter" fill="none" stroke="#000000" d="M4011.5 2126.5 3684.3 1888.7 3809.3 1504H4213.8L4338.8 1888.7Z"/>
<path transform="matrix(.1,0,0,-.1,0,792)" d="M4493.3 2364.2 4820.6 2126.5 5147.8 2364.2 5022.8 2748.9H4618.3" fill="#ffde66"/>
<path transform="matrix(.1,0,0,-.1,0,792)" stroke-width="1" stroke-linecap="butt" stroke-miterlimit="10" stroke-linejoin="miter" fill="none" stroke="#000000" d="M4493.3 2364.2 4820.6 2126.5 5147.8 2364.2 5022.8 2748.9H4618.3Z"/>
<path transform="matrix(.1,0,0,-.1,0,792)" d="M4493.3 4378.6 4618.3 3993.9H5022.8L5100.1 4231.7 5302.3 4378.6 5177.3 4763.3H4772.8L4695.6 4525.5" fill="#ffffff"/>
<path transform="matrix(.1,0,0,-.1,0,792)" stroke-width="1" stroke-linecap="butt" stroke-miterlimit="10" stroke-linejoin="miter" fill="none" stroke="#000000" d="M4493.3 4378.6 4618.3 3993.9H5022.8L5100.1 4231.7 5302.3 4378.6 5177.3 4763.3H4772.8L4695.6 4525.5Z"/>
<path transform="matrix(.1,0,0,-.1,0,792)" d="M1441.3 6302.2 1316.3 6686.9 1643.5 6924.6 1316.3 7162.4 1441.3 7547.1H1036.7L1161.7 7162.4 834.5 6924.6 1161.7 6686.9 1036.7 6302.2" fill="#805900"/>
<path transform="matrix(.1,0,0,-.1,0,792)" stroke-width="1" stroke-linecap="butt" stroke-miterlimit="10" stroke-linejoin="miter" fill="none" stroke="#000000" d="M1441.3 6302.2 1316.3 6686.9 1643.5 6924.6 1316.3 7162.4 1441.3 7547.1H1036.7L1161.7 7162.4 834.5 6924.6 1161.7 6686.9 1036.7 6302.2Z"/>
<path transform="matrix(.1,0,0,-.1,0,792)" d="M1411.7 3903.1 1286.7 4287.8H882.199L757.199 3903.1 1084.5 3665.3" fill="#ffde66"/>
<path transform="matrix(.1,0,0,-.1,0,792)" stroke-width="1" stroke-linecap="butt" stroke-miterlimit="10" stroke-linejoin="miter" fill="none" stroke="#000000" d="M1411.7 3903.1 1286.7 4287.8H882.199L757.199 3903.1 1084.5 3665.3Z"/>
<path transform="matrix(.1,0,0,-.1,0,792)" d="M3838.8 6393 4041.1 6539.9 4118.3 6777.7H3713.8Z" fill="#5c6600"/>
<path transform="matrix(.1,0,0,-.1,0,792)" stroke-width="1" stroke-linecap="butt" stroke-miterlimit="10" stroke-linejoin="miter" fill="none" stroke="#000000" d="M3838.8 6393 4041.1 6539.9 4118.3 6777.7H3713.8Z"/>
<path transform="matrix(.1,0,0,-.1,0,792)" d="M4570.6 5385.8 4897.8 5148 4772.8 4763.3H5177.3L5052.3 5148 5379.6 5385.8 5052.3 5623.5 5177.3 6008.3H4772.8L4897.8 5623.5" fill="#805900"/>
<path transform="matrix(.1,0,0,-.1,0,792)" stroke-width="1" stroke-linecap="butt" stroke-miterlimit="10" stroke-linejoin="miter" fill="none" stroke="#000000" d="M4570.6 5385.8 4897.8 5148 4772.8 4763.3H5177.3L5052.3 5148 5379.6 5385.8 5052.3 5623.5 5177.3 6008.3H4772.8L4897.8 5623.5Z"/>
<path transform="matrix(.1,0,0,-.1,0,792)" d="M1334.5 2895.9 1132.2 3042.8H882.199L1007.2 2658.1Z" fill="#5c6600"/>
<path transform="matrix(.1,0,0,-.1,0,792)" stroke-width="1" stroke-linecap="butt" stroke-miterlimit="10" stroke-linejoin="miter" fill="none" stroke="#000000" d="M1334.5 2895.9 1132.2 3042.8H882.199L1007.2 2658.1Z"/>
<path transform="matrix(.1,0,0,-.1,0,792)" d="M4647.8 6393 4975.1 6630.7 4772.8 6777.7H4522.8Z" fill="#5c6600"/>
<path transform="matrix(.1,0,0,-.1,0,792)" stroke-width="1" stroke-linecap="butt" stroke-miterlimit="10" stroke-linejoin="miter" fill="none" stroke="#000000" d="M4647.8 6393 4975.1 6630.7 4772.8 6777.7H4522.8Z"/>
<path transform="matrix(.1,0,0,-.1,0,792)" d="M4647.8 6393 4772.8 6008.3H5177.3L5302.3 6393 4975.1 6630.7" fill="#ffde66"/>
<path transform="matrix(.1,0,0,-.1,0,792)" stroke-width="1" stroke-linecap="butt" stroke-miterlimit="10" stroke-linejoin="miter" fill="none" stroke="#000000" d="M4647.8 6393 4772.8 6008.3H5177.3L5302.3 6393 4975.1 6630.7Z"/>
<path transform="matrix(.1,0,0,-.1,0,792)" d="M2066.3 1888.7 1739 1650.9 1941.3 1504H2191.3Z" fill="#5c6600"/>
<path transform="matrix(.1,0,0,-.1,0,792)" stroke-width="1" stroke-linecap="butt" stroke-miterlimit="10" stroke-linejoin="miter" fill="none" stroke="#000000" d="M2066.3 1888.7 1739 1650.9 1941.3 1504H2191.3Z"/>
<path transform="matrix(.1,0,0,-.1,0,792)" d="M2875.3 1888.7 2673 1741.8 2595.8 1504H3000.3Z" fill="#5c6600"/>
<path transform="matrix(.1,0,0,-.1,0,792)" stroke-width="1" stroke-linecap="butt" stroke-miterlimit="10" stroke-linejoin="miter" fill="none" stroke="#000000" d="M2875.3 1888.7 2673 1741.8 2595.8 1504H3000.3Z"/>
<path transform="matrix(.1,0,0,-.1,0,792)" d="M4493.3 1888.7 4618.3 1504H4868.3L5070.6 1357 5397.8 1594.8 5272.8 1979.5H5022.8L4820.6 2126.5" fill="#ffffff"/>
<path transform="matrix(.1,0,0,-.1,0,792)" stroke-width="1" stroke-linecap="butt" stroke-miterlimit="10" stroke-linejoin="miter" fill="none" stroke="#000000" d="M4493.3 1888.7 4618.3 1504H4868.3L5070.6 1357 5397.8 1594.8 5272.8 1979.5H5022.8L4820.6 2126.5Z"/>
<path transform="matrix(.1,0,0,-.1,0,792)" d="M1257.2 1888.7 1132.2 2273.4H727.699L602.699 1888.7 930 1650.9" fill="#ffde66"/>
<path transform="matrix(.1,0,0,-.1,0,792)" stroke-width="1" stroke-linecap="butt" stroke-miterlimit="10" stroke-linejoin="miter" fill="none" stroke="#000000" d="M1257.2 1888.7 1132.2 2273.4H727.699L602.699 1888.7 930 1650.9Z"/>
<path transform="matrix(.1,0,0,-.1,0,792)" d="M1161.7 6686.9 834.5 6924.6 507.199 6686.9 632.199 6302.2H1036.7" fill="#ffde66"/>
<path transform="matrix(.1,0,0,-.1,0,792)" stroke-width="1" stroke-linecap="butt" stroke-miterlimit="10" stroke-linejoin="miter" fill="none" stroke="#000000" d="M1161.7 6686.9 834.5 6924.6 507.199 6686.9 632.199 6302.2H1036.7Z"/>
<path transform="matrix(.1,0,0,-.1,0,792)" d="M1132.2 2273.4 1007.2 2658.1 805 2511.2 727.699 2273.4Z" fill="#5c6600"/>
<path transform="matrix(.1,0,0,-.1,0,792)" stroke-width="1" stroke-linecap="butt" stroke-miterlimit="10" stroke-linejoin="miter" fill="none" stroke="#000000" d="M1132.2 2273.4 1007.2 2658.1 805 2511.2 727.699 2273.4Z"/>
<path transform="matrix(.1,0,0,-.1,0,792)" d="M4820.6 2126.5 5022.8 1979.5H5272.8L5147.8 2364.2Z" fill="#5c6600"/>
<path transform="matrix(.1,0,0,-.1,0,792)" stroke-width="1" stroke-linecap="butt" stroke-miterlimit="10" stroke-linejoin="miter" fill="none" stroke="#000000" d="M4820.6 2126.5 5022.8 1979.5H5272.8L5147.8 2364.2Z"/>
<path transform="matrix(.1,0,0,-.1,0,792)" d="M1739 1650.9 1411.7 1413.2 1536.7 1028.5H1786.7L1989 881.5 2316.3 1119.3 2191.3 1504H1941.3" fill="#ffffff"/>
<path transform="matrix(.1,0,0,-.1,0,792)" stroke-width="1" stroke-linecap="butt" stroke-miterlimit="10" stroke-linejoin="miter" fill="none" stroke="#000000" d="M1739 1650.9 1411.7 1413.2 1536.7 1028.5H1786.7L1989 881.5 2316.3 1119.3 2191.3 1504H1941.3Z"/>
<path transform="matrix(.1,0,0,-.1,0,792)" d="M4772.8 6777.7 4975.1 6630.7 5302.3 6868.5 5177.3 7253.2H4927.3L4725.1 7400.2 4397.8 7162.4 4522.8 6777.7" fill="#ffffff"/>
<path transform="matrix(.1,0,0,-.1,0,792)" stroke-width="1" stroke-linecap="butt" stroke-miterlimit="10" stroke-linejoin="miter" fill="none" stroke="#000000" d="M4772.8 6777.7 4975.1 6630.7 5302.3 6868.5 5177.3 7253.2H4927.3L4725.1 7400.2 4397.8 7162.4 4522.8 6777.7Z"/>
<path transform="matrix(.1,0,0,-.1,0,792)" d="M4522.8 6777.7 4397.8 7162.4 4725.1 7400.2 4397.8 7637.9 4522.8 8022.6H4118.3L4243.3 7637.9 3916.1 7400.2 4243.3 7162.4 4118.3 6777.7" fill="#805900"/>
<path transform="matrix(.1,0,0,-.1,0,792)" stroke-width="1" stroke-linecap="butt" stroke-miterlimit="10" stroke-linejoin="miter" fill="none" stroke="#000000" d="M4522.8 6777.7 4397.8 7162.4 4725.1 7400.2 4397.8 7637.9 4522.8 8022.6H4118.3L4243.3 7637.9 3916.1 7400.2 4243.3 7162.4 4118.3 6777.7Z"/>
<path transform="matrix(.1,0,0,-.1,0,792)" d="M4118.3 6777.7 4243.3 7162.4 3916.1 7400.2 3588.8 7162.4 3713.8 6777.7" fill="#ffde66"/>
<path transform="matrix(.1,0,0,-.1,0,792)" stroke-width="1" stroke-linecap="butt" stroke-miterlimit="10" stroke-linejoin="miter" fill="none" stroke="#000000" d="M4118.3 6777.7 4243.3 7162.4 3916.1 7400.2 3588.8 7162.4 3713.8 6777.7Z"/>
<path transform="matrix(.1,0,0,-.1,0,792)" d="M3713.8 6777.7 3588.8 7162.4 3916.1 7400.2 3588.8 7637.9 3713.8 8022.6H3309.3L3434.3 7637.9 3107 7400.2 3434.3 7162.4 3309.3 6777.7" fill="#805900"/>
<path transform="matrix(.1,0,0,-.1,0,792)" stroke-width="1" stroke-linecap="butt" stroke-miterlimit="10" stroke-linejoin="miter" fill="none" stroke="#000000" d="M3713.8 6777.7 3588.8 7162.4 3916.1 7400.2 3588.8 7637.9 3713.8 8022.6H3309.3L3434.3 7637.9 3107 7400.2 3434.3 7162.4 3309.3 6777.7Z"/>
<path transform="matrix(.1,0,0,-.1,0,792)" d="M3309.3 6777.7 3434.3 7162.4 3107 7400.2 2779.8 7162.4 2904.8 6777.7" fill="#ffde66"/>
<path transform="matrix(.1,0,0,-.1,0,792)" stroke-width="1" stroke-linecap="butt" stroke-miterlimit="10" stroke-linejoin="miter" fill="none" stroke="#000000" d="M3309.3 6777.7 3434.3 7162.4 3107 7400.2 2779.8 7162.4 2904.8 6777.7Z"/>
<path transform="matrix(.1,0,0,-.1,0,792)" d="M2904.8 6777.7 2779.8 7162.4 2577.5 7015.4 2500.3 6777.7Z" fill="#5c6600"/>
<path transform="matrix(.1,0,0,-.1,0,792)" stroke-width="1" stroke-linecap="butt" stroke-miterlimit="10" stroke-linejoin="miter" fill="none" stroke="#000000" d="M2904.8 6777.7 2779.8 7162.4 2577.5 7015.4 2500.3 6777.7Z"/>
<path transform="matrix(.1,0,0,-.1,0,792)" d="M2500.3 6777.7 2577.5 7015.4 2779.8 7162.4 2654.8 7547.1H2250.3L2173 7309.3 1970.8 7162.4 2095.8 6777.7" fill="#ffffff"/>
<path transform="matrix(.1,0,0,-.1,0,792)" stroke-width="1" stroke-linecap="butt" stroke-miterlimit="10" stroke-linejoin="miter" fill="none" stroke="#000000" d="M2500.3 6777.7 2577.5 7015.4 2779.8 7162.4 2654.8 7547.1H2250.3L2173 7309.3 1970.8 7162.4 2095.8 6777.7Z"/>
<path transform="matrix(.1,0,0,-.1,0,792)" d="M2095.8 6777.7 1970.8 7162.4 1643.5 6924.6 1845.8 6777.7Z" fill="#5c6600"/>
<path transform="matrix(.1,0,0,-.1,0,792)" stroke-width="1" stroke-linecap="butt" stroke-miterlimit="10" stroke-linejoin="miter" fill="none" stroke="#000000" d="M2095.8 6777.7 1970.8 7162.4 1643.5 6924.6 1845.8 6777.7Z"/>
<path transform="matrix(.1,0,0,-.1,0,792)" d="M1084.5 3665.3 757.199 3903.1 882.199 4287.8H477.699L602.699 3903.1 275.5 3665.3 602.699 3427.5 477.699 3042.8H882.199L757.199 3427.5" fill="#805900"/>
<path transform="matrix(.1,0,0,-.1,0,792)" stroke-width="1" stroke-linecap="butt" stroke-miterlimit="10" stroke-linejoin="miter" fill="none" stroke="#000000" d="M1084.5 3665.3 757.199 3903.1 882.199 4287.8H477.699L602.699 3903.1 275.5 3665.3 602.699 3427.5 477.699 3042.8H882.199L757.199 3427.5Z"/>
<path transform="matrix(.1,0,0,-.1,0,792)" d="M4897.8 3133.7 5022.8 2748.9H5427.3L5552.3 3133.7 5225.1 3371.4" fill="#ffde66"/>
<path transform="matrix(.1,0,0,-.1,0,792)" stroke-width="1" stroke-linecap="butt" stroke-miterlimit="10" stroke-linejoin="miter" fill="none" stroke="#000000" d="M4897.8 3133.7 5022.8 2748.9H5427.3L5552.3 3133.7 5225.1 3371.4Z"/>
<path transform="matrix(.1,0,0,-.1,0,792)" d="M4897.8 3609.2 5225.1 3371.4 5552.3 3609.2 5427.3 3993.9H5022.8" fill="#ffde66"/>
<path transform="matrix(.1,0,0,-.1,0,792)" stroke-width="1" stroke-linecap="butt" stroke-miterlimit="10" stroke-linejoin="miter" fill="none" stroke="#000000" d="M4897.8 3609.2 5225.1 3371.4 5552.3 3609.2 5427.3 3993.9H5022.8Z"/>
<path transform="matrix(.1,0,0,-.1,0,792)" d="M1036.7 6302.2H632.199L757.199 5917.4 959.5 6064.4Z" fill="#5c6600"/>
<path transform="matrix(.1,0,0,-.1,0,792)" stroke-width="1" stroke-linecap="butt" stroke-miterlimit="10" stroke-linejoin="miter" fill="none" stroke="#000000" d="M1036.7 6302.2H632.199L757.199 5917.4 959.5 6064.4Z"/>
<path transform="matrix(.1,0,0,-.1,0,792)" d="M2191.3 1504 2316.3 1119.3 1989 881.5 2316.3 643.801 2191.3 259H2595.8L2470.8 643.801 2798 881.5 2470.8 1119.3 2595.8 1504" fill="#805900"/>
<path transform="matrix(.1,0,0,-.1,0,792)" stroke-width="1" stroke-linecap="butt" stroke-miterlimit="10" stroke-linejoin="miter" fill="none" stroke="#000000" d="M2191.3 1504 2316.3 1119.3 1989 881.5 2316.3 643.801 2191.3 259H2595.8L2470.8 643.801 2798 881.5 2470.8 1119.3 2595.8 1504Z"/>
<path transform="matrix(.1,0,0,-.1,0,792)" d="M2595.8 1504 2470.8 1119.3 2798 881.5 3125.3 1119.3 3000.3 1504" fill="#ffde66"/>
<path transform="matrix(.1,0,0,-.1,0,792)" stroke-width="1" stroke-linecap="butt" stroke-miterlimit="10" stroke-linejoin="miter" fill="none" stroke="#000000" d="M2595.8 1504 2470.8 1119.3 2798 881.5 3125.3 1119.3 3000.3 1504Z"/>
<path transform="matrix(.1,0,0,-.1,0,792)" d="M3000.3 1504 3125.3 1119.3 2798 881.5 3125.3 643.801 3000.3 259H3404.8L3279.8 643.801 3607 881.5 3279.8 1119.3 3404.8 1504" fill="#805900"/>
<path transform="matrix(.1,0,0,-.1,0,792)" stroke-width="1" stroke-linecap="butt" stroke-miterlimit="10" stroke-linejoin="miter" fill="none" stroke="#000000" d="M3000.3 1504 3125.3 1119.3 2798 881.5 3125.3 643.801 3000.3 259H3404.8L3279.8 643.801 3607 881.5 3279.8 1119.3 3404.8 1504Z"/>
<path transform="matrix(.1,0,0,-.1,0,792)" d="M3404.8 1504 3279.8 1119.3 3607 881.5 3934.3 1119.3 3809.3 1504" fill="#ffde66"/>
<path transform="matrix(.1,0,0,-.1,0,792)" stroke-width="1" stroke-linecap="butt" stroke-miterlimit="10" stroke-linejoin="miter" fill="none" stroke="#000000" d="M3404.8 1504 3279.8 1119.3 3607 881.5 3934.3 1119.3 3809.3 1504Z"/>
<path transform="matrix(.1,0,0,-.1,0,792)" d="M3809.3 1504 3934.3 1119.3 4136.5 1266.2 4213.8 1504Z" fill="#5c6600"/>
<path transform="matrix(.1,0,0,-.1,0,792)" stroke-width="1" stroke-linecap="butt" stroke-miterlimit="10" stroke-linejoin="miter" fill="none" stroke="#000000" d="M3809.3 1504 3934.3 1119.3 4136.5 1266.2 4213.8 1504Z"/>
<path transform="matrix(.1,0,0,-.1,0,792)" d="M4213.8 1504 4136.5 1266.2 3934.3 1119.3 4059.3 734.602H4463.8L4541.1 972.301 4743.3 1119.3 4618.3 1504" fill="#ffffff"/>
<path transform="matrix(.1,0,0,-.1,0,792)" stroke-width="1" stroke-linecap="butt" stroke-miterlimit="10" stroke-linejoin="miter" fill="none" stroke="#000000" d="M4213.8 1504 4136.5 1266.2 3934.3 1119.3 4059.3 734.602H4463.8L4541.1 972.301 4743.3 1119.3 4618.3 1504Z"/>
<path transform="matrix(.1,0,0,-.1,0,792)" d="M4618.3 1504 4743.3 1119.3 5070.6 1357 4868.3 1504Z" fill="#5c6600"/>
<path transform="matrix(.1,0,0,-.1,0,792)" stroke-width="1" stroke-linecap="butt" stroke-miterlimit="10" stroke-linejoin="miter" fill="none" stroke="#000000" d="M4618.3 1504 4743.3 1119.3 5070.6 1357 4868.3 1504Z"/>
<path transform="matrix(.1,0,0,-.1,0,792)" d="M1007.2 5148 882.199 5532.7H632.199L430 5679.7 102.699 5441.9 227.699 5057.2H477.699L680 4910.3" fill="#ffffff"/>
<path transform="matrix(.1,0,0,-.1,0,792)" stroke-width="1" stroke-linecap="butt" stroke-miterlimit="10" stroke-linejoin="miter" fill="none" stroke="#000000" d="M1007.2 5148 882.199 5532.7H632.199L430 5679.7 102.699 5441.9 227.699 5057.2H477.699L680 4910.3Z"/>
<path transform="matrix(.1,0,0,-.1,0,792)" d="M1007.2 4672.5 680 4910.3 352.699 4672.5 477.699 4287.8H882.199" fill="#ffde66"/>
<path transform="matrix(.1,0,0,-.1,0,792)" stroke-width="1" stroke-linecap="butt" stroke-miterlimit="10" stroke-linejoin="miter" fill="none" stroke="#000000" d="M1007.2 4672.5 680 4910.3 352.699 4672.5 477.699 4287.8H882.199Z"/>
<path transform="matrix(.1,0,0,-.1,0,792)" d="M1007.2 2658.1 882.199 3042.8H477.699L400.5 2805.1 198.199 2658.1 323.199 2273.4H727.699L805 2511.2" fill="#ffffff"/>
<path transform="matrix(.1,0,0,-.1,0,792)" stroke-width="1" stroke-linecap="butt" stroke-miterlimit="10" stroke-linejoin="miter" fill="none" stroke="#000000" d="M1007.2 2658.1 882.199 3042.8H477.699L400.5 2805.1 198.199 2658.1 323.199 2273.4H727.699L805 2511.2Z"/>
<path transform="matrix(.1,0,0,-.1,0,792)" d="M1643.5 6924.6 1970.8 7162.4 1845.8 7547.1H1441.3L1316.3 7162.4" fill="#ffde66"/>
<path transform="matrix(.1,0,0,-.1,0,792)" stroke-width="1" stroke-linecap="butt" stroke-miterlimit="10" stroke-linejoin="miter" fill="none" stroke="#000000" d="M1643.5 6924.6 1970.8 7162.4 1845.8 7547.1H1441.3L1316.3 7162.4Z"/>
<path transform="matrix(.1,0,0,-.1,0,792)" d="M4975.1 6630.7 5302.3 6393 5177.3 6008.3H5581.8L5456.8 6393 5784.1 6630.7 5456.8 6868.5 5581.8 7253.2H5177.3L5302.3 6868.5" fill="#805900"/>
<path transform="matrix(.1,0,0,-.1,0,792)" stroke-width="1" stroke-linecap="butt" stroke-miterlimit="10" stroke-linejoin="miter" fill="none" stroke="#000000" d="M4975.1 6630.7 5302.3 6393 5177.3 6008.3H5581.8L5456.8 6393 5784.1 6630.7 5456.8 6868.5 5581.8 7253.2H5177.3L5302.3 6868.5Z"/>
<path transform="matrix(.1,0,0,-.1,0,792)" d="M1257.2 1413.2 930 1650.9 602.699 1413.2 727.699 1028.5H1132.2" fill="#ffde66"/>
<path transform="matrix(.1,0,0,-.1,0,792)" stroke-width="1" stroke-linecap="butt" stroke-miterlimit="10" stroke-linejoin="miter" fill="none" stroke="#000000" d="M1257.2 1413.2 930 1650.9 602.699 1413.2 727.699 1028.5H1132.2Z"/>
<path transform="matrix(.1,0,0,-.1,0,792)" d="M930 1650.9 602.699 1888.7 727.699 2273.4H323.199L448.199 1888.7 121 1650.9 448.199 1413.2 323.199 1028.5H727.699L602.699 1413.2" fill="#805900"/>
<path transform="matrix(.1,0,0,-.1,0,792)" stroke-width="1" stroke-linecap="butt" stroke-miterlimit="10" stroke-linejoin="miter" fill="none" stroke="#000000" d="M930 1650.9 602.699 1888.7 727.699 2273.4H323.199L448.199 1888.7 121 1650.9 448.199 1413.2 323.199 1028.5H727.699L602.699 1413.2Z"/>
<path transform="matrix(.1,0,0,-.1,0,792)" d="M5022.8 2748.9 5147.8 2364.2 5350.1 2511.2 5427.3 2748.9Z" fill="#5c6600"/>
<path transform="matrix(.1,0,0,-.1,0,792)" stroke-width="1" stroke-linecap="butt" stroke-miterlimit="10" stroke-linejoin="miter" fill="none" stroke="#000000" d="M5022.8 2748.9 5147.8 2364.2 5350.1 2511.2 5427.3 2748.9Z"/>
<path transform="matrix(.1,0,0,-.1,0,792)" d="M5022.8 3993.9H5427.3L5302.3 4378.6 5100.1 4231.7Z" fill="#5c6600"/>
<path transform="matrix(.1,0,0,-.1,0,792)" stroke-width="1" stroke-linecap="butt" stroke-miterlimit="10" stroke-linejoin="miter" fill="none" stroke="#000000" d="M5022.8 3993.9H5427.3L5302.3 4378.6 5100.1 4231.7Z"/>
<path transform="matrix(.1,0,0,-.1,0,792)" d="M5052.3 5148 5177.3 4763.3H5427.3L5629.6 4616.4 5956.8 4854.1 5831.8 5238.8H5581.8L5379.6 5385.8" fill="#ffffff"/>
<path transform="matrix(.1,0,0,-.1,0,792)" stroke-width="1" stroke-linecap="butt" stroke-miterlimit="10" stroke-linejoin="miter" fill="none" stroke="#000000" d="M5052.3 5148 5177.3 4763.3H5427.3L5629.6 4616.4 5956.8 4854.1 5831.8 5238.8H5581.8L5379.6 5385.8Z"/>
<path transform="matrix(.1,0,0,-.1,0,792)" d="M5052.3 5623.5 5379.6 5385.8 5706.8 5623.5 5581.8 6008.3H5177.3" fill="#ffde66"/>
<path transform="matrix(.1,0,0,-.1,0,792)" stroke-width="1" stroke-linecap="butt" stroke-miterlimit="10" stroke-linejoin="miter" fill="none" stroke="#000000" d="M5052.3 5623.5 5379.6 5385.8 5706.8 5623.5 5581.8 6008.3H5177.3Z"/>
<path transform="matrix(.1,0,0,-.1,0,792)" d="M882.199 5532.7 757.199 5917.4 430 5679.7 632.199 5532.7Z" fill="#5c6600"/>
<path transform="matrix(.1,0,0,-.1,0,792)" stroke-width="1" stroke-linecap="butt" stroke-miterlimit="10" stroke-linejoin="miter" fill="none" stroke="#000000" d="M882.199 5532.7 757.199 5917.4 430 5679.7 632.199 5532.7Z"/>
<path transform="matrix(.1,0,0,-.1,0,792)" d="M5070.6 1357 5397.8 1119.3 5272.8 734.602H5677.3L5552.3 1119.3 5879.6 1357 5552.3 1594.8 5677.3 1979.5H5272.8L5397.8 1594.8" fill="#805900"/>
<path transform="matrix(.1,0,0,-.1,0,792)" stroke-width="1" stroke-linecap="butt" stroke-miterlimit="10" stroke-linejoin="miter" fill="none" stroke="#000000" d="M5070.6 1357 5397.8 1119.3 5272.8 734.602H5677.3L5552.3 1119.3 5879.6 1357 5552.3 1594.8 5677.3 1979.5H5272.8L5397.8 1594.8Z"/>
<path transform="matrix(.1,0,0,-.1,0,792)" d="M5070.6 1357 4743.3 1119.3 4868.3 734.602H5272.8L5397.8 1119.3" fill="#ffde66"/>
<path transform="matrix(.1,0,0,-.1,0,792)" stroke-width="1" stroke-linecap="butt" stroke-miterlimit="10" stroke-linejoin="miter" fill="none" stroke="#000000" d="M5070.6 1357 4743.3 1119.3 4868.3 734.602H5272.8L5397.8 1119.3Z"/>
<path transform="matrix(.1,0,0,-.1,0,792)" d="M834.5 6924.6 507.199 7162.4 632.199 7547.1H227.699L352.699 7162.4 25.5 6924.6 352.699 6686.9 227.699 6302.2H632.199L507.199 6686.9" fill="#805900"/>
<path transform="matrix(.1,0,0,-.1,0,792)" stroke-width="1" stroke-linecap="butt" stroke-miterlimit="10" stroke-linejoin="miter" fill="none" stroke="#000000" d="M834.5 6924.6 507.199 7162.4 632.199 7547.1H227.699L352.699 7162.4 25.5 6924.6 352.699 6686.9 227.699 6302.2H632.199L507.199 6686.9Z"/>
<path transform="matrix(.1,0,0,-.1,0,792)" d="M834.5 6924.6 1161.7 7162.4 1036.7 7547.1H632.199L507.199 7162.4" fill="#ffde66"/>
<path transform="matrix(.1,0,0,-.1,0,792)" stroke-width="1" stroke-linecap="butt" stroke-miterlimit="10" stroke-linejoin="miter" fill="none" stroke="#000000" d="M834.5 6924.6 1161.7 7162.4 1036.7 7547.1H632.199L507.199 7162.4Z"/>
<path transform="matrix(.1,0,0,-.1,0,792)" d="M2779.8 7162.4 3107 7400.2 2904.8 7547.1H2654.8Z" fill="#5c6600"/>
<path transform="matrix(.1,0,0,-.1,0,792)" stroke-width="1" stroke-linecap="butt" stroke-miterlimit="10" stroke-linejoin="miter" fill="none" stroke="#000000" d="M2779.8 7162.4 3107 7400.2 2904.8 7547.1H2654.8Z"/>
<path transform="matrix(.1,0,0,-.1,0,792)" d="M1970.8 7162.4 2173 7309.3 2250.3 7547.1H1845.8Z" fill="#5c6600"/>
<path transform="matrix(.1,0,0,-.1,0,792)" stroke-width="1" stroke-linecap="butt" stroke-miterlimit="10" stroke-linejoin="miter" fill="none" stroke="#000000" d="M1970.8 7162.4 2173 7309.3 2250.3 7547.1H1845.8Z"/>
<path transform="matrix(.1,0,0,-.1,0,792)" d="M5147.8 2364.2 5272.8 1979.5H5677.3L5754.6 2217.3 5956.8 2364.2 5831.8 2748.9H5427.3L5350.1 2511.2" fill="#ffffff"/>
<path transform="matrix(.1,0,0,-.1,0,792)" stroke-width="1" stroke-linecap="butt" stroke-miterlimit="10" stroke-linejoin="miter" fill="none" stroke="#000000" d="M5147.8 2364.2 5272.8 1979.5H5677.3L5754.6 2217.3 5956.8 2364.2 5831.8 2748.9H5427.3L5350.1 2511.2Z"/>
<path transform="matrix(.1,0,0,-.1,0,792)" d="M5177.3 4763.3 5302.3 4378.6 5629.6 4616.4 5427.3 4763.3Z" fill="#5c6600"/>
<path transform="matrix(.1,0,0,-.1,0,792)" stroke-width="1" stroke-linecap="butt" stroke-miterlimit="10" stroke-linejoin="miter" fill="none" stroke="#000000" d="M5177.3 4763.3 5302.3 4378.6 5629.6 4616.4 5427.3 4763.3Z"/>
<path transform="matrix(.1,0,0,-.1,0,792)" d="M5177.3 7253.2 5052.3 7637.9 4725.1 7400.2 4927.3 7253.2Z" fill="#5c6600"/>
<path transform="matrix(.1,0,0,-.1,0,792)" stroke-width="1" stroke-linecap="butt" stroke-miterlimit="10" stroke-linejoin="miter" fill="none" stroke="#000000" d="M5177.3 7253.2 5052.3 7637.9 4725.1 7400.2 4927.3 7253.2Z"/>
<path transform="matrix(.1,0,0,-.1,0,792)" d="M5177.3 7253.2H5581.8L5659.1 7491 5861.3 7637.9 5736.3 8022.6H5331.8L5254.6 7784.9 5052.3 7637.9" fill="#ffffff"/>
<path transform="matrix(.1,0,0,-.1,0,792)" stroke-width="1" stroke-linecap="butt" stroke-miterlimit="10" stroke-linejoin="miter" fill="none" stroke="#000000" d="M5177.3 7253.2H5581.8L5659.1 7491 5861.3 7637.9 5736.3 8022.6H5331.8L5254.6 7784.9 5052.3 7637.9Z"/>
<path transform="matrix(.1,0,0,-.1,0,792)" d="M757.199 5917.4 632.199 6302.2H227.699L102.699 5917.4 430 5679.7" fill="#ffde66"/>
<path transform="matrix(.1,0,0,-.1,0,792)" stroke-width="1" stroke-linecap="butt" stroke-miterlimit="10" stroke-linejoin="miter" fill="none" stroke="#000000" d="M757.199 5917.4 632.199 6302.2H227.699L102.699 5917.4 430 5679.7Z"/>
<path transform="matrix(.1,0,0,-.1,0,792)" d="M3934.3 1119.3 3607 881.5 3809.3 734.602H4059.3Z" fill="#5c6600"/>
<path transform="matrix(.1,0,0,-.1,0,792)" stroke-width="1" stroke-linecap="butt" stroke-miterlimit="10" stroke-linejoin="miter" fill="none" stroke="#000000" d="M3934.3 1119.3 3607 881.5 3809.3 734.602H4059.3Z"/>
<path transform="matrix(.1,0,0,-.1,0,792)" d="M4743.3 1119.3 4541.1 972.301 4463.8 734.602H4868.3Z" fill="#5c6600"/>
<path transform="matrix(.1,0,0,-.1,0,792)" stroke-width="1" stroke-linecap="butt" stroke-miterlimit="10" stroke-linejoin="miter" fill="none" stroke="#000000" d="M4743.3 1119.3 4541.1 972.301 4463.8 734.602H4868.3Z"/>
<path transform="matrix(.1,0,0,-.1,0,792)" d="M5225.1 3371.4 5552.3 3133.7 5427.3 2748.9H5831.8L5706.8 3133.7 6034.1 3371.4 5706.8 3609.2 5831.8 3993.9H5427.3L5552.3 3609.2" fill="#805900"/>
<path transform="matrix(.1,0,0,-.1,0,792)" stroke-width="1" stroke-linecap="butt" stroke-miterlimit="10" stroke-linejoin="miter" fill="none" stroke="#000000" d="M5225.1 3371.4 5552.3 3133.7 5427.3 2748.9H5831.8L5706.8 3133.7 6034.1 3371.4 5706.8 3609.2 5831.8 3993.9H5427.3L5552.3 3609.2Z"/>
<path transform="matrix(.1,0,0,-.1,0,792)" d="M680 4910.3 477.699 5057.2H227.699L352.699 4672.5Z" fill="#5c6600"/>
<path transform="matrix(.1,0,0,-.1,0,792)" stroke-width="1" stroke-linecap="butt" stroke-miterlimit="10" stroke-linejoin="miter" fill="none" stroke="#000000" d="M680 4910.3 477.699 5057.2H227.699L352.699 4672.5Z"/>
<path transform="matrix(.1,0,0,-.1,0,792)" d="M727.699 1028.5 852.699 643.801 1055 790.699 1132.2 1028.5Z" fill="#5c6600"/>
<path transform="matrix(.1,0,0,-.1,0,792)" stroke-width="1" stroke-linecap="butt" stroke-miterlimit="10" stroke-linejoin="miter" fill="none" stroke="#000000" d="M727.699 1028.5 852.699 643.801 1055 790.699 1132.2 1028.5Z"/>
<path transform="matrix(.1,0,0,-.1,0,792)" d="M727.699 1028.5H323.199L198.199 643.801 525.5 406 852.699 643.801" fill="#ffde66"/>
<path transform="matrix(.1,0,0,-.1,0,792)" stroke-width="1" stroke-linecap="butt" stroke-miterlimit="10" stroke-linejoin="miter" fill="none" stroke="#000000" d="M727.699 1028.5H323.199L198.199 643.801 525.5 406 852.699 643.801Z"/>
<path transform="matrix(.1,0,0,-.1,0,792)" d="M1132.2 1028.5 1055 790.699 852.699 643.801 977.699 259H1382.2L1459.5 496.801 1661.7 643.801 1536.7 1028.5" fill="#ffffff"/>
<path transform="matrix(.1,0,0,-.1,0,792)" stroke-width="1" stroke-linecap="butt" stroke-miterlimit="10" stroke-linejoin="miter" fill="none" stroke="#000000" d="M1132.2 1028.5 1055 790.699 852.699 643.801 977.699 259H1382.2L1459.5 496.801 1661.7 643.801 1536.7 1028.5Z"/>
<path transform="matrix(.1,0,0,-.1,0,792)" d="M1536.7 1028.5 1661.7 643.801 1989 881.5 1786.7 1028.5Z" fill="#5c6600"/>
<path transform="matrix(.1,0,0,-.1,0,792)" stroke-width="1" stroke-linecap="butt" stroke-miterlimit="10" stroke-linejoin="miter" fill="none" stroke="#000000" d="M1536.7 1028.5 1661.7 643.801 1989 881.5 1786.7 1028.5Z"/>
<path transform="matrix(.1,0,0,-.1,0,792)" d="M4725.1 7400.2 5052.3 7637.9 4927.3 8022.6H4522.8L4397.8 7637.9" fill="#ffde66"/>
<path transform="matrix(.1,0,0,-.1,0,792)" stroke-width="1" stroke-linecap="butt" stroke-miterlimit="10" stroke-linejoin="miter" fill="none" stroke="#000000" d="M4725.1 7400.2 5052.3 7637.9 4927.3 8022.6H4522.8L4397.8 7637.9Z"/>
<path transform="matrix(.1,0,0,-.1,0,792)" d="M3916.1 7400.2 4243.3 7637.9 4118.3 8022.6H3713.8L3588.8 7637.9" fill="#ffde66"/>
<path transform="matrix(.1,0,0,-.1,0,792)" stroke-width="1" stroke-linecap="butt" stroke-miterlimit="10" stroke-linejoin="miter" fill="none" stroke="#000000" d="M3916.1 7400.2 4243.3 7637.9 4118.3 8022.6H3713.8L3588.8 7637.9Z"/>
<path transform="matrix(.1,0,0,-.1,0,792)" d="M3107 7400.2 3434.3 7637.9 3309.3 8022.6H3059.3L2857 8169.6 2529.8 7931.8 2654.8 7547.1H2904.8" fill="#ffffff"/>
<path transform="matrix(.1,0,0,-.1,0,792)" stroke-width="1" stroke-linecap="butt" stroke-miterlimit="10" stroke-linejoin="miter" fill="none" stroke="#000000" d="M3107 7400.2 3434.3 7637.9 3309.3 8022.6H3059.3L2857 8169.6 2529.8 7931.8 2654.8 7547.1H2904.8Z"/>
<path transform="matrix(.1,0,0,-.1,0,792)" d="M5302.3 4378.6 5427.3 3993.9H5831.8L5956.8 4378.6 5629.6 4616.4" fill="#ffde66"/>
<path transform="matrix(.1,0,0,-.1,0,792)" stroke-width="1" stroke-linecap="butt" stroke-miterlimit="10" stroke-linejoin="miter" fill="none" stroke="#000000" d="M5302.3 4378.6 5427.3 3993.9H5831.8L5956.8 4378.6 5629.6 4616.4Z"/>
<path transform="matrix(.1,0,0,-.1,0,792)" d="M602.699 3903.1 477.699 4287.8H73.1992L-51.8008 3903.1 275.5 3665.3" fill="#ffde66"/>
<path transform="matrix(.1,0,0,-.1,0,792)" stroke-width="1" stroke-linecap="butt" stroke-miterlimit="10" stroke-linejoin="miter" fill="none" stroke="#000000" d="M602.699 3903.1 477.699 4287.8H73.1992L-51.8008 3903.1 275.5 3665.3Z"/>
<path transform="matrix(.1,0,0,-.1,0,792)" d="M602.699 3427.5 275.5 3665.3-51.8008 3427.5 73.1992 3042.8H477.699" fill="#ffde66"/>
<path transform="matrix(.1,0,0,-.1,0,792)" stroke-width="1" stroke-linecap="butt" stroke-miterlimit="10" stroke-linejoin="miter" fill="none" stroke="#000000" d="M602.699 3427.5 275.5 3665.3-51.8008 3427.5 73.1992 3042.8H477.699Z"/>
<path transform="matrix(.1,0,0,-.1,0,792)" d="M5379.6 5385.8 5581.8 5238.8H5831.8L5706.8 5623.5Z" fill="#5c6600"/>
<path transform="matrix(.1,0,0,-.1,0,792)" stroke-width="1" stroke-linecap="butt" stroke-miterlimit="10" stroke-linejoin="miter" fill="none" stroke="#000000" d="M5379.6 5385.8 5581.8 5238.8H5831.8L5706.8 5623.5Z"/>
<path transform="matrix(.1,0,0,-.1,0,792)" d="M1989 881.5 1661.7 643.801 1786.7 259H2191.3L2316.3 643.801" fill="#ffde66"/>
<path transform="matrix(.1,0,0,-.1,0,792)" stroke-width="1" stroke-linecap="butt" stroke-miterlimit="10" stroke-linejoin="miter" fill="none" stroke="#000000" d="M1989 881.5 1661.7 643.801 1786.7 259H2191.3L2316.3 643.801Z"/>
<path transform="matrix(.1,0,0,-.1,0,792)" d="M2798 881.5 2470.8 643.801 2595.8 259H3000.3L3125.3 643.801" fill="#ffde66"/>
<path transform="matrix(.1,0,0,-.1,0,792)" stroke-width="1" stroke-linecap="butt" stroke-miterlimit="10" stroke-linejoin="miter" fill="none" stroke="#000000" d="M2798 881.5 2470.8 643.801 2595.8 259H3000.3L3125.3 643.801Z"/>
<path transform="matrix(.1,0,0,-.1,0,792)" d="M3607 881.5 3279.8 643.801 3404.8 259H3654.8L3857 112.102 4184.3 349.898 4059.3 734.602H3809.3" fill="#ffffff"/>
<path transform="matrix(.1,0,0,-.1,0,792)" stroke-width="1" stroke-linecap="butt" stroke-miterlimit="10" stroke-linejoin="miter" fill="none" stroke="#000000" d="M3607 881.5 3279.8 643.801 3404.8 259H3654.8L3857 112.102 4184.3 349.898 4059.3 734.602H3809.3Z"/>
<path transform="matrix(.1,0,0,-.1,0,792)" d="M2654.8 7547.1 2529.8 7931.8 2857 8169.6 2529.8 8407.3 2654.8 8792.1H2250.3L2375.3 8407.3 2048 8169.6 2375.3 7931.8 2250.3 7547.1" fill="#805900"/>
<path transform="matrix(.1,0,0,-.1,0,792)" stroke-width="1" stroke-linecap="butt" stroke-miterlimit="10" stroke-linejoin="miter" fill="none" stroke="#000000" d="M2654.8 7547.1 2529.8 7931.8 2857 8169.6 2529.8 8407.3 2654.8 8792.1H2250.3L2375.3 8407.3 2048 8169.6 2375.3 7931.8 2250.3 7547.1Z"/>
<path transform="matrix(.1,0,0,-.1,0,792)" d="M2250.3 7547.1 2375.3 7931.8 2048 8169.6 1720.8 7931.8 1845.8 7547.1" fill="#ffde66"/>
<path transform="matrix(.1,0,0,-.1,0,792)" stroke-width="1" stroke-linecap="butt" stroke-miterlimit="10" stroke-linejoin="miter" fill="none" stroke="#000000" d="M2250.3 7547.1 2375.3 7931.8 2048 8169.6 1720.8 7931.8 1845.8 7547.1Z"/>
<path transform="matrix(.1,0,0,-.1,0,792)" d="M1845.8 7547.1 1720.8 7931.8 2048 8169.6 1720.8 8407.3 1845.8 8792.1H1441.3L1566.3 8407.3 1239 8169.6 1566.3 7931.8 1441.3 7547.1" fill="#805900"/>
<path transform="matrix(.1,0,0,-.1,0,792)" stroke-width="1" stroke-linecap="butt" stroke-miterlimit="10" stroke-linejoin="miter" fill="none" stroke="#000000" d="M1845.8 7547.1 1720.8 7931.8 2048 8169.6 1720.8 8407.3 1845.8 8792.1H1441.3L1566.3 8407.3 1239 8169.6 1566.3 7931.8 1441.3 7547.1Z"/>
<path transform="matrix(.1,0,0,-.1,0,792)" d="M1441.3 7547.1 1566.3 7931.8 1239 8169.6 911.699 7931.8 1036.7 7547.1" fill="#ffde66"/>
<path transform="matrix(.1,0,0,-.1,0,792)" stroke-width="1" stroke-linecap="butt" stroke-miterlimit="10" stroke-linejoin="miter" fill="none" stroke="#000000" d="M1441.3 7547.1 1566.3 7931.8 1239 8169.6 911.699 7931.8 1036.7 7547.1Z"/>
<path transform="matrix(.1,0,0,-.1,0,792)" d="M1036.7 7547.1 911.699 7931.8 709.5 7784.9 632.199 7547.1Z" fill="#5c6600"/>
<path transform="matrix(.1,0,0,-.1,0,792)" stroke-width="1" stroke-linecap="butt" stroke-miterlimit="10" stroke-linejoin="miter" fill="none" stroke="#000000" d="M1036.7 7547.1 911.699 7931.8 709.5 7784.9 632.199 7547.1Z"/>
<path transform="matrix(.1,0,0,-.1,0,792)" d="M632.199 7547.1 709.5 7784.9 911.699 7931.8 786.699 8316.5H382.199L305 8078.8 102.699 7931.8 227.699 7547.1" fill="#ffffff"/>
<path transform="matrix(.1,0,0,-.1,0,792)" stroke-width="1" stroke-linecap="butt" stroke-miterlimit="10" stroke-linejoin="miter" fill="none" stroke="#000000" d="M632.199 7547.1 709.5 7784.9 911.699 7931.8 786.699 8316.5H382.199L305 8078.8 102.699 7931.8 227.699 7547.1Z"/>
<path transform="matrix(.1,0,0,-.1,0,792)" d="M5456.8 6393 5581.8 6008.3H5986.3L6111.3 6393 5784.1 6630.7" fill="#ffde66"/>
<path transform="matrix(.1,0,0,-.1,0,792)" stroke-width="1" stroke-linecap="butt" stroke-miterlimit="10" stroke-linejoin="miter" fill="none" stroke="#000000" d="M5456.8 6393 5581.8 6008.3H5986.3L6111.3 6393 5784.1 6630.7Z"/>
<path transform="matrix(.1,0,0,-.1,0,792)" d="M5456.8 6868.5 5784.1 6630.7 6111.3 6868.5 5986.3 7253.2H5581.8" fill="#ffde66"/>
<path transform="matrix(.1,0,0,-.1,0,792)" stroke-width="1" stroke-linecap="butt" stroke-miterlimit="10" stroke-linejoin="miter" fill="none" stroke="#000000" d="M5456.8 6868.5 5784.1 6630.7 6111.3 6868.5 5986.3 7253.2H5581.8Z"/>
<path transform="matrix(.1,0,0,-.1,0,792)" d="M5052.3 7637.9 5254.6 7784.9 5331.8 8022.6H4927.3Z" fill="#5c6600"/>
<path transform="matrix(.1,0,0,-.1,0,792)" stroke-width="1" stroke-linecap="butt" stroke-miterlimit="10" stroke-linejoin="miter" fill="none" stroke="#000000" d="M5052.3 7637.9 5254.6 7784.9 5331.8 8022.6H4927.3Z"/>
<path transform="matrix(.1,0,0,-.1,0,792)" d="M477.699 4287.8 352.699 4672.5 150.5 4525.5 73.1992 4287.8Z" fill="#5c6600"/>
<path transform="matrix(.1,0,0,-.1,0,792)" stroke-width="1" stroke-linecap="butt" stroke-miterlimit="10" stroke-linejoin="miter" fill="none" stroke="#000000" d="M477.699 4287.8 352.699 4672.5 150.5 4525.5 73.1992 4287.8Z"/>
<path transform="matrix(.1,0,0,-.1,0,792)" d="M477.699 3042.8H73.1992L198.199 2658.1 400.5 2805.1Z" fill="#5c6600"/>
<path transform="matrix(.1,0,0,-.1,0,792)" stroke-width="1" stroke-linecap="butt" stroke-miterlimit="10" stroke-linejoin="miter" fill="none" stroke="#000000" d="M477.699 3042.8H73.1992L198.199 2658.1 400.5 2805.1Z"/>
<path transform="matrix(.1,0,0,-.1,0,792)" d="M4059.3 734.602 4184.3 349.898 3857 112.102 4184.3-125.699 4059.3-510.398H4463.8L4338.8-125.699 4666.1 112.102 4338.8 349.898 4463.8 734.602" fill="#805900"/>
<path transform="matrix(.1,0,0,-.1,0,792)" stroke-width="1" stroke-linecap="butt" stroke-miterlimit="10" stroke-linejoin="miter" fill="none" stroke="#000000" d="M4059.3 734.602 4184.3 349.898 3857 112.102 4184.3-125.699 4059.3-510.398H4463.8L4338.8-125.699 4666.1 112.102 4338.8 349.898 4463.8 734.602Z"/>
<path transform="matrix(.1,0,0,-.1,0,792)" d="M4463.8 734.602 4338.8 349.898 4666.1 112.102 4993.3 349.898 4868.3 734.602" fill="#ffde66"/>
<path transform="matrix(.1,0,0,-.1,0,792)" stroke-width="1" stroke-linecap="butt" stroke-miterlimit="10" stroke-linejoin="miter" fill="none" stroke="#000000" d="M4463.8 734.602 4338.8 349.898 4666.1 112.102 4993.3 349.898 4868.3 734.602Z"/>
<path transform="matrix(.1,0,0,-.1,0,792)" d="M4868.3 734.602 4993.3 349.898 4666.1 112.102 4993.3-125.699 4868.3-510.398H5272.8L5147.8-125.699 5475.1 112.102 5147.8 349.898 5272.8 734.602" fill="#805900"/>
<path transform="matrix(.1,0,0,-.1,0,792)" stroke-width="1" stroke-linecap="butt" stroke-miterlimit="10" stroke-linejoin="miter" fill="none" stroke="#000000" d="M4868.3 734.602 4993.3 349.898 4666.1 112.102 4993.3-125.699 4868.3-510.398H5272.8L5147.8-125.699 5475.1 112.102 5147.8 349.898 5272.8 734.602Z"/>
<path transform="matrix(.1,0,0,-.1,0,792)" d="M5272.8 734.602 5147.8 349.898 5475.1 112.102 5802.3 349.898 5677.3 734.602" fill="#ffde66"/>
<path transform="matrix(.1,0,0,-.1,0,792)" stroke-width="1" stroke-linecap="butt" stroke-miterlimit="10" stroke-linejoin="miter" fill="none" stroke="#000000" d="M5272.8 734.602 5147.8 349.898 5475.1 112.102 5802.3 349.898 5677.3 734.602Z"/>
<path transform="matrix(.1,0,0,-.1,0,792)" d="M448.199 1888.7 323.199 2273.4H73.1992L-129 2420.4-456.301 2182.6-331.301 1797.9H-81.3008L121 1650.9" fill="#ffffff"/>
<path transform="matrix(.1,0,0,-.1,0,792)" stroke-width="1" stroke-linecap="butt" stroke-miterlimit="10" stroke-linejoin="miter" fill="none" stroke="#000000" d="M448.199 1888.7 323.199 2273.4H73.1992L-129 2420.4-456.301 2182.6-331.301 1797.9H-81.3008L121 1650.9Z"/>
<path transform="matrix(.1,0,0,-.1,0,792)" d="M448.199 1413.2 121 1650.9-206.301 1413.2-81.3008 1028.5H323.199" fill="#ffde66"/>
<path transform="matrix(.1,0,0,-.1,0,792)" stroke-width="1" stroke-linecap="butt" stroke-miterlimit="10" stroke-linejoin="miter" fill="none" stroke="#000000" d="M448.199 1413.2 121 1650.9-206.301 1413.2-81.3008 1028.5H323.199Z"/>
<path transform="matrix(.1,0,0,-.1,0,792)" d="M430 5679.7 102.699 5917.4 227.699 6302.2H-176.801L-51.8008 5917.4-379 5679.7-51.8008 5441.9-176.801 5057.2H227.699L102.699 5441.9" fill="#805900"/>
<path transform="matrix(.1,0,0,-.1,0,792)" stroke-width="1" stroke-linecap="butt" stroke-miterlimit="10" stroke-linejoin="miter" fill="none" stroke="#000000" d="M430 5679.7 102.699 5917.4 227.699 6302.2H-176.801L-51.8008 5917.4-379 5679.7-51.8008 5441.9-176.801 5057.2H227.699L102.699 5441.9Z"/>
<path transform="matrix(.1,0,0,-.1,0,792)" d="M5552.3 1119.3 5677.3 734.602H6081.8L6206.8 1119.3 5879.6 1357" fill="#ffde66"/>
<path transform="matrix(.1,0,0,-.1,0,792)" stroke-width="1" stroke-linecap="butt" stroke-miterlimit="10" stroke-linejoin="miter" fill="none" stroke="#000000" d="M5552.3 1119.3 5677.3 734.602H6081.8L6206.8 1119.3 5879.6 1357Z"/>
<path transform="matrix(.1,0,0,-.1,0,792)" d="M5552.3 1594.8 5879.6 1357 6206.8 1594.8 6081.8 1979.5H5677.3" fill="#ffde66"/>
<path transform="matrix(.1,0,0,-.1,0,792)" stroke-width="1" stroke-linecap="butt" stroke-miterlimit="10" stroke-linejoin="miter" fill="none" stroke="#000000" d="M5552.3 1594.8 5879.6 1357 6206.8 1594.8 6081.8 1979.5H5677.3Z"/>
<path transform="matrix(.1,0,0,-.1,0,792)" d="M852.699 643.801 525.5 406 727.699 259H977.699Z" fill="#5c6600"/>
<path transform="matrix(.1,0,0,-.1,0,792)" stroke-width="1" stroke-linecap="butt" stroke-miterlimit="10" stroke-linejoin="miter" fill="none" stroke="#000000" d="M852.699 643.801 525.5 406 727.699 259H977.699Z"/>
<path transform="matrix(.1,0,0,-.1,0,792)" d="M1661.7 643.801 1459.5 496.801 1382.2 259H1786.7Z" fill="#5c6600"/>
<path transform="matrix(.1,0,0,-.1,0,792)" stroke-width="1" stroke-linecap="butt" stroke-miterlimit="10" stroke-linejoin="miter" fill="none" stroke="#000000" d="M1661.7 643.801 1459.5 496.801 1382.2 259H1786.7Z"/>
<path transform="matrix(.1,0,0,-.1,0,792)" d="M5581.8 6008.3 5706.8 5623.5 5909.1 5770.5 5986.3 6008.3Z" fill="#5c6600"/>
<path transform="matrix(.1,0,0,-.1,0,792)" stroke-width="1" stroke-linecap="butt" stroke-miterlimit="10" stroke-linejoin="miter" fill="none" stroke="#000000" d="M5581.8 6008.3 5706.8 5623.5 5909.1 5770.5 5986.3 6008.3Z"/>
<path transform="matrix(.1,0,0,-.1,0,792)" d="M5581.8 7253.2H5986.3L5861.3 7637.9 5659.1 7491Z" fill="#5c6600"/>
<path transform="matrix(.1,0,0,-.1,0,792)" stroke-width="1" stroke-linecap="butt" stroke-miterlimit="10" stroke-linejoin="miter" fill="none" stroke="#000000" d="M5581.8 7253.2H5986.3L5861.3 7637.9 5659.1 7491Z"/>
<path transform="matrix(.1,0,0,-.1,0,792)" d="M352.699 7162.4 227.699 7547.1H-22.3008L-224.5 7694-551.801 7456.3-426.801 7071.6H-176.801L25.5 6924.6" fill="#ffffff"/>
<path transform="matrix(.1,0,0,-.1,0,792)" stroke-width="1" stroke-linecap="butt" stroke-miterlimit="10" stroke-linejoin="miter" fill="none" stroke="#000000" d="M352.699 7162.4 227.699 7547.1H-22.3008L-224.5 7694-551.801 7456.3-426.801 7071.6H-176.801L25.5 6924.6Z"/>
<path transform="matrix(.1,0,0,-.1,0,792)" d="M352.699 6686.9 25.5 6924.6-301.801 6686.9-176.801 6302.2H227.699" fill="#ffde66"/>
<path transform="matrix(.1,0,0,-.1,0,792)" stroke-width="1" stroke-linecap="butt" stroke-miterlimit="10" stroke-linejoin="miter" fill="none" stroke="#000000" d="M352.699 6686.9 25.5 6924.6-301.801 6686.9-176.801 6302.2H227.699Z"/>
<path transform="matrix(.1,0,0,-.1,0,792)" d="M352.699 4672.5 227.699 5057.2H-176.801L-254 4819.4-456.301 4672.5-331.301 4287.8H73.1992L150.5 4525.5" fill="#ffffff"/>
<path transform="matrix(.1,0,0,-.1,0,792)" stroke-width="1" stroke-linecap="butt" stroke-miterlimit="10" stroke-linejoin="miter" fill="none" stroke="#000000" d="M352.699 4672.5 227.699 5057.2H-176.801L-254 4819.4-456.301 4672.5-331.301 4287.8H73.1992L150.5 4525.5Z"/>
<path transform="matrix(.1,0,0,-.1,0,792)" d="M323.199 2273.4 198.199 2658.1-129 2420.4 73.1992 2273.4Z" fill="#5c6600"/>
<path transform="matrix(.1,0,0,-.1,0,792)" stroke-width="1" stroke-linecap="butt" stroke-miterlimit="10" stroke-linejoin="miter" fill="none" stroke="#000000" d="M323.199 2273.4 198.199 2658.1-129 2420.4 73.1992 2273.4Z"/>
<path transform="matrix(.1,0,0,-.1,0,792)" d="M323.199 1028.5H-81.3008L43.6992 643.801-283.5 406 43.6992 168.199-81.3008-216.5H323.199L198.199 168.199 525.5 406 198.199 643.801" fill="#805900"/>
<path transform="matrix(.1,0,0,-.1,0,792)" stroke-width="1" stroke-linecap="butt" stroke-miterlimit="10" stroke-linejoin="miter" fill="none" stroke="#000000" d="M323.199 1028.5H-81.3008L43.6992 643.801-283.5 406 43.6992 168.199-81.3008-216.5H323.199L198.199 168.199 525.5 406 198.199 643.801Z"/>
<path transform="matrix(.1,0,0,-.1,0,792)" d="M5629.6 4616.4 5956.8 4378.6 5831.8 3993.9H6236.3L6111.3 4378.6 6438.6 4616.4 6111.3 4854.1 6236.3 5238.8H5831.8L5956.8 4854.1" fill="#805900"/>
<path transform="matrix(.1,0,0,-.1,0,792)" stroke-width="1" stroke-linecap="butt" stroke-miterlimit="10" stroke-linejoin="miter" fill="none" stroke="#000000" d="M5629.6 4616.4 5956.8 4378.6 5831.8 3993.9H6236.3L6111.3 4378.6 6438.6 4616.4 6111.3 4854.1 6236.3 5238.8H5831.8L5956.8 4854.1Z"/>
<path transform="matrix(.1,0,0,-.1,0,792)" d="M275.5 3665.3-51.8008 3903.1 73.1992 4287.8H-331.301L-206.301 3903.1-533.5 3665.3-206.301 3427.5-331.301 3042.8H73.1992L-51.8008 3427.5" fill="#805900"/>
<path transform="matrix(.1,0,0,-.1,0,792)" stroke-width="1" stroke-linecap="butt" stroke-miterlimit="10" stroke-linejoin="miter" fill="none" stroke="#000000" d="M275.5 3665.3-51.8008 3903.1 73.1992 4287.8H-331.301L-206.301 3903.1-533.5 3665.3-206.301 3427.5-331.301 3042.8H73.1992L-51.8008 3427.5Z"/>
<path transform="matrix(.1,0,0,-.1,0,792)" d="M5677.3 734.602 5802.3 349.898 6004.6 496.801 6081.8 734.602Z" fill="#5c6600"/>
<path transform="matrix(.1,0,0,-.1,0,792)" stroke-width="1" stroke-linecap="butt" stroke-miterlimit="10" stroke-linejoin="miter" fill="none" stroke="#000000" d="M5677.3 734.602 5802.3 349.898 6004.6 496.801 6081.8 734.602Z"/>
<path transform="matrix(.1,0,0,-.1,0,792)" d="M5677.3 1979.5H6081.8L5956.8 2364.2 5754.6 2217.3Z" fill="#5c6600"/>
<path transform="matrix(.1,0,0,-.1,0,792)" stroke-width="1" stroke-linecap="butt" stroke-miterlimit="10" stroke-linejoin="miter" fill="none" stroke="#000000" d="M5677.3 1979.5H6081.8L5956.8 2364.2 5754.6 2217.3Z"/>
<path transform="matrix(.1,0,0,-.1,0,792)" d="M5706.8 3133.7 5831.8 2748.9H6081.8L6284.1 2602 6611.3 2839.8 6486.3 3224.5H6236.3L6034.1 3371.4" fill="#ffffff"/>
<path transform="matrix(.1,0,0,-.1,0,792)" stroke-width="1" stroke-linecap="butt" stroke-miterlimit="10" stroke-linejoin="miter" fill="none" stroke="#000000" d="M5706.8 3133.7 5831.8 2748.9H6081.8L6284.1 2602 6611.3 2839.8 6486.3 3224.5H6236.3L6034.1 3371.4Z"/>
<path transform="matrix(.1,0,0,-.1,0,792)" d="M5706.8 3609.2 6034.1 3371.4 6361.3 3609.2 6236.3 3993.9H5831.8" fill="#ffde66"/>
<path transform="matrix(.1,0,0,-.1,0,792)" stroke-width="1" stroke-linecap="butt" stroke-miterlimit="10" stroke-linejoin="miter" fill="none" stroke="#000000" d="M5706.8 3609.2 6034.1 3371.4 6361.3 3609.2 6236.3 3993.9H5831.8Z"/>
<path transform="matrix(.1,0,0,-.1,0,792)" d="M5706.8 5623.5 5831.8 5238.8H6236.3L6313.6 5476.6 6515.8 5623.5 6390.8 6008.3H5986.3L5909.1 5770.5" fill="#ffffff"/>
<path transform="matrix(.1,0,0,-.1,0,792)" stroke-width="1" stroke-linecap="butt" stroke-miterlimit="10" stroke-linejoin="miter" fill="none" stroke="#000000" d="M5706.8 5623.5 5831.8 5238.8H6236.3L6313.6 5476.6 6515.8 5623.5 6390.8 6008.3H5986.3L5909.1 5770.5Z"/>
<path transform="matrix(.1,0,0,-.1,0,792)" d="M227.699 7547.1 102.699 7931.8-224.5 7694-22.3008 7547.1Z" fill="#5c6600"/>
<path transform="matrix(.1,0,0,-.1,0,792)" stroke-width="1" stroke-linecap="butt" stroke-miterlimit="10" stroke-linejoin="miter" fill="none" stroke="#000000" d="M227.699 7547.1 102.699 7931.8-224.5 7694-22.3008 7547.1Z"/>
<path transform="matrix(.1,0,0,-.1,0,792)" d="M525.5 406 198.199 168.199 323.199-216.5H573.199L775.5-363.398 1102.7-125.699 977.699 259H727.699" fill="#ffffff"/>
<path transform="matrix(.1,0,0,-.1,0,792)" stroke-width="1" stroke-linecap="butt" stroke-miterlimit="10" stroke-linejoin="miter" fill="none" stroke="#000000" d="M525.5 406 198.199 168.199 323.199-216.5H573.199L775.5-363.398 1102.7-125.699 977.699 259H727.699Z"/>
<path transform="matrix(.1,0,0,-.1,0,792)" d="M5736.3 8022.6H5986.3L6188.6 7875.7 6515.8 8113.4 6390.8 8498.2H6140.8L5938.6 8645.1 5611.3 8407.3" fill="#ffffff"/>
<path transform="matrix(.1,0,0,-.1,0,792)" stroke-width="1" stroke-linecap="butt" stroke-miterlimit="10" stroke-linejoin="miter" fill="none" stroke="#000000" d="M5736.3 8022.6H5986.3L6188.6 7875.7 6515.8 8113.4 6390.8 8498.2H6140.8L5938.6 8645.1 5611.3 8407.3Z"/>
<path transform="matrix(.1,0,0,-.1,0,792)" d="M5736.3 8022.6 5861.3 7637.9 6188.6 7875.7 5986.3 8022.6Z" fill="#5c6600"/>
<path transform="matrix(.1,0,0,-.1,0,792)" stroke-width="1" stroke-linecap="butt" stroke-miterlimit="10" stroke-linejoin="miter" fill="none" stroke="#000000" d="M5736.3 8022.6 5861.3 7637.9 6188.6 7875.7 5986.3 8022.6Z"/>
<path transform="matrix(.1,0,0,-.1,0,792)" d="M198.199 2658.1 73.1992 3042.8H-331.301L-456.301 2658.1-129 2420.4" fill="#ffde66"/>
<path transform="matrix(.1,0,0,-.1,0,792)" stroke-width="1" stroke-linecap="butt" stroke-miterlimit="10" stroke-linejoin="miter" fill="none" stroke="#000000" d="M198.199 2658.1 73.1992 3042.8H-331.301L-456.301 2658.1-129 2420.4Z"/>
<path transform="matrix(.1,0,0,-.1,0,792)" d="M5784.1 6630.7 6111.3 6393 5986.3 6008.3H6390.8L6265.8 6393 6593.1 6630.7 6265.8 6868.5 6390.8 7253.2H5986.3L6111.3 6868.5" fill="#805900"/>
<path transform="matrix(.1,0,0,-.1,0,792)" stroke-width="1" stroke-linecap="butt" stroke-miterlimit="10" stroke-linejoin="miter" fill="none" stroke="#000000" d="M5784.1 6630.7 6111.3 6393 5986.3 6008.3H6390.8L6265.8 6393 6593.1 6630.7 6265.8 6868.5 6390.8 7253.2H5986.3L6111.3 6868.5Z"/>
<path transform="matrix(.1,0,0,-.1,0,792)" d="M5802.3 349.898 5927.3-34.8984H6331.8L6409.1 202.898 6611.3 349.898 6486.3 734.602H6081.8L6004.6 496.801" fill="#ffffff"/>
<path transform="matrix(.1,0,0,-.1,0,792)" stroke-width="1" stroke-linecap="butt" stroke-miterlimit="10" stroke-linejoin="miter" fill="none" stroke="#000000" d="M5802.3 349.898 5927.3-34.8984H6331.8L6409.1 202.898 6611.3 349.898 6486.3 734.602H6081.8L6004.6 496.801Z"/>
<path transform="matrix(.1,0,0,-.1,0,792)" d="M5802.3 349.898 5475.1 112.102 5677.3-34.8984H5927.3Z" fill="#5c6600"/>
<path transform="matrix(.1,0,0,-.1,0,792)" stroke-width="1" stroke-linecap="butt" stroke-miterlimit="10" stroke-linejoin="miter" fill="none" stroke="#000000" d="M5802.3 349.898 5475.1 112.102 5677.3-34.8984H5927.3Z"/>
<path transform="matrix(.1,0,0,-.1,0,792)" d="M121 1650.9-81.3008 1797.9H-331.301L-206.301 1413.2Z" fill="#5c6600"/>
<path transform="matrix(.1,0,0,-.1,0,792)" stroke-width="1" stroke-linecap="butt" stroke-miterlimit="10" stroke-linejoin="miter" fill="none" stroke="#000000" d="M121 1650.9-81.3008 1797.9H-331.301L-206.301 1413.2Z"/>
<path transform="matrix(.1,0,0,-.1,0,792)" d="M5831.8 2748.9 5956.8 2364.2 6284.1 2602 6081.8 2748.9Z" fill="#5c6600"/>
<path transform="matrix(.1,0,0,-.1,0,792)" stroke-width="1" stroke-linecap="butt" stroke-miterlimit="10" stroke-linejoin="miter" fill="none" stroke="#000000" d="M5831.8 2748.9 5956.8 2364.2 6284.1 2602 6081.8 2748.9Z"/>
<path transform="matrix(.1,0,0,-.1,0,792)" d="M977.699 259 1102.7-125.699 775.5-363.398 1102.7-601.199 977.699-985.898H1382.2L1257.2-601.199 1584.5-363.398 1257.2-125.699 1382.2 259" fill="#805900"/>
<path transform="matrix(.1,0,0,-.1,0,792)" stroke-width="1" stroke-linecap="butt" stroke-miterlimit="10" stroke-linejoin="miter" fill="none" stroke="#000000" d="M977.699 259 1102.7-125.699 775.5-363.398 1102.7-601.199 977.699-985.898H1382.2L1257.2-601.199 1584.5-363.398 1257.2-125.699 1382.2 259Z"/>
<path transform="matrix(.1,0,0,-.1,0,792)" d="M1382.2 259 1257.2-125.699 1584.5-363.398 1911.7-125.699 1786.7 259" fill="#ffde66"/>
<path transform="matrix(.1,0,0,-.1,0,792)" stroke-width="1" stroke-linecap="butt" stroke-miterlimit="10" stroke-linejoin="miter" fill="none" stroke="#000000" d="M1382.2 259 1257.2-125.699 1584.5-363.398 1911.7-125.699 1786.7 259Z"/>
<path transform="matrix(.1,0,0,-.1,0,792)" d="M1786.7 259 1911.7-125.699 1584.5-363.398 1911.7-601.199 1786.7-985.898H2191.3L2066.3-601.199 2393.5-363.398 2066.3-125.699 2191.3 259" fill="#805900"/>
<path transform="matrix(.1,0,0,-.1,0,792)" stroke-width="1" stroke-linecap="butt" stroke-miterlimit="10" stroke-linejoin="miter" fill="none" stroke="#000000" d="M1786.7 259 1911.7-125.699 1584.5-363.398 1911.7-601.199 1786.7-985.898H2191.3L2066.3-601.199 2393.5-363.398 2066.3-125.699 2191.3 259Z"/>
<path transform="matrix(.1,0,0,-.1,0,792)" d="M2191.3 259 2066.3-125.699 2393.5-363.398 2720.8-125.699 2595.8 259" fill="#ffde66"/>
<path transform="matrix(.1,0,0,-.1,0,792)" stroke-width="1" stroke-linecap="butt" stroke-miterlimit="10" stroke-linejoin="miter" fill="none" stroke="#000000" d="M2191.3 259 2066.3-125.699 2393.5-363.398 2720.8-125.699 2595.8 259Z"/>
<path transform="matrix(.1,0,0,-.1,0,792)" d="M2595.8 259 2720.8-125.699 2923 21.3008 3000.3 259Z" fill="#5c6600"/>
<path transform="matrix(.1,0,0,-.1,0,792)" stroke-width="1" stroke-linecap="butt" stroke-miterlimit="10" stroke-linejoin="miter" fill="none" stroke="#000000" d="M2595.8 259 2720.8-125.699 2923 21.3008 3000.3 259Z"/>
<path transform="matrix(.1,0,0,-.1,0,792)" d="M3000.3 259 2923 21.3008 2720.8-125.699 2845.8-510.398H3250.3L3327.5-272.602 3529.8-125.699 3404.8 259" fill="#ffffff"/>
<path transform="matrix(.1,0,0,-.1,0,792)" stroke-width="1" stroke-linecap="butt" stroke-miterlimit="10" stroke-linejoin="miter" fill="none" stroke="#000000" d="M3000.3 259 2923 21.3008 2720.8-125.699 2845.8-510.398H3250.3L3327.5-272.602 3529.8-125.699 3404.8 259Z"/>
<path transform="matrix(.1,0,0,-.1,0,792)" d="M3404.8 259 3529.8-125.699 3857 112.102 3654.8 259Z" fill="#5c6600"/>
<path transform="matrix(.1,0,0,-.1,0,792)" stroke-width="1" stroke-linecap="butt" stroke-miterlimit="10" stroke-linejoin="miter" fill="none" stroke="#000000" d="M3404.8 259 3529.8-125.699 3857 112.102 3654.8 259Z"/>
<path transform="matrix(.1,0,0,-.1,0,792)" d="M102.699 7931.8-22.3008 8316.5H-426.801L-551.801 7931.8-224.5 7694" fill="#ffde66"/>
<path transform="matrix(.1,0,0,-.1,0,792)" stroke-width="1" stroke-linecap="butt" stroke-miterlimit="10" stroke-linejoin="miter" fill="none" stroke="#000000" d="M102.699 7931.8-22.3008 8316.5H-426.801L-551.801 7931.8-224.5 7694Z"/>
<path transform="matrix(.1,0,0,-.1,0,792)" d="M5861.3 7637.9 5986.3 7253.2H6390.8L6515.8 7637.9 6188.6 7875.7" fill="#ffde66"/>
<path transform="matrix(.1,0,0,-.1,0,792)" stroke-width="1" stroke-linecap="butt" stroke-miterlimit="10" stroke-linejoin="miter" fill="none" stroke="#000000" d="M5861.3 7637.9 5986.3 7253.2H6390.8L6515.8 7637.9 6188.6 7875.7Z"/>
<path transform="matrix(.1,0,0,-.1,0,792)" d="M5879.6 1357 6206.8 1119.3 6081.8 734.602H6486.3L6361.3 1119.3 6688.6 1357 6361.3 1594.8 6486.3 1979.5H6081.8L6206.8 1594.8" fill="#805900"/>
<path transform="matrix(.1,0,0,-.1,0,792)" stroke-width="1" stroke-linecap="butt" stroke-miterlimit="10" stroke-linejoin="miter" fill="none" stroke="#000000" d="M5879.6 1357 6206.8 1119.3 6081.8 734.602H6486.3L6361.3 1119.3 6688.6 1357 6361.3 1594.8 6486.3 1979.5H6081.8L6206.8 1594.8Z"/>
<path transform="matrix(.1,0,0,-.1,0,792)" d="M43.6992 643.801-81.3008 1028.5H-485.801L-610.801 643.801-283.5 406" fill="#ffde66"/>
<path transform="matrix(.1,0,0,-.1,0,792)" stroke-width="1" stroke-linecap="butt" stroke-miterlimit="10" stroke-linejoin="miter" fill="none" stroke="#000000" d="M43.6992 643.801-81.3008 1028.5H-485.801L-610.801 643.801-283.5 406Z"/>
<path transform="matrix(.1,0,0,-.1,0,792)" d="M43.6992 168.199-283.5 406-610.801 168.199-485.801-216.5H-81.3008" fill="#ffde66"/>
<path transform="matrix(.1,0,0,-.1,0,792)" stroke-width="1" stroke-linecap="butt" stroke-miterlimit="10" stroke-linejoin="miter" fill="none" stroke="#000000" d="M43.6992 168.199-283.5 406-610.801 168.199-485.801-216.5H-81.3008Z"/>
<path transform="matrix(.1,0,0,-.1,0,792)" d="M25.5 6924.6-176.801 7071.6H-426.801L-301.801 6686.9Z" fill="#5c6600"/>
<path transform="matrix(.1,0,0,-.1,0,792)" stroke-width="1" stroke-linecap="butt" stroke-miterlimit="10" stroke-linejoin="miter" fill="none" stroke="#000000" d="M25.5 6924.6-176.801 7071.6H-426.801L-301.801 6686.9Z"/>
<path transform="matrix(.1,0,0,-.1,0,792)" d="M3857 112.102 3529.8-125.699 3654.8-510.398H4059.3L4184.3-125.699" fill="#ffde66"/>
<path transform="matrix(.1,0,0,-.1,0,792)" stroke-width="1" stroke-linecap="butt" stroke-miterlimit="10" stroke-linejoin="miter" fill="none" stroke="#000000" d="M3857 112.102 3529.8-125.699 3654.8-510.398H4059.3L4184.3-125.699Z"/>
<path transform="matrix(.1,0,0,-.1,0,792)" d="M4666.1 112.102 4338.8-125.699 4463.8-510.398H4868.3L4993.3-125.699" fill="#ffde66"/>
<path transform="matrix(.1,0,0,-.1,0,792)" stroke-width="1" stroke-linecap="butt" stroke-miterlimit="10" stroke-linejoin="miter" fill="none" stroke="#000000" d="M4666.1 112.102 4338.8-125.699 4463.8-510.398H4868.3L4993.3-125.699Z"/>
<path transform="matrix(.1,0,0,-.1,0,792)" d="M5475.1 112.102 5147.8-125.699 5272.8-510.398H5522.8L5725.1-657.301 6052.3-419.602 5927.3-34.8984H5677.3" fill="#ffffff"/>
<path transform="matrix(.1,0,0,-.1,0,792)" stroke-width="1" stroke-linecap="butt" stroke-miterlimit="10" stroke-linejoin="miter" fill="none" stroke="#000000" d="M5475.1 112.102 5147.8-125.699 5272.8-510.398H5522.8L5725.1-657.301 6052.3-419.602 5927.3-34.8984H5677.3Z"/>
<path transform="matrix(.1,0,0,-.1,0,792)" d="M5956.8 2364.2 6081.8 1979.5H6486.3L6611.3 2364.2 6284.1 2602" fill="#ffde66"/>
<path transform="matrix(.1,0,0,-.1,0,792)" stroke-width="1" stroke-linecap="butt" stroke-miterlimit="10" stroke-linejoin="miter" fill="none" stroke="#000000" d="M5956.8 2364.2 6081.8 1979.5H6486.3L6611.3 2364.2 6284.1 2602Z"/>
<path transform="matrix(.1,0,0,-.1,0,792)" d="M6034.1 3371.4 6236.3 3224.5H6486.3L6361.3 3609.2Z" fill="#5c6600"/>
<path transform="matrix(.1,0,0,-.1,0,792)" stroke-width="1" stroke-linecap="butt" stroke-miterlimit="10" stroke-linejoin="miter" fill="none" stroke="#000000" d="M6034.1 3371.4 6236.3 3224.5H6486.3L6361.3 3609.2Z"/>
<path transform="matrix(.1,0,0,-.1,0,792)" d="M6111.3 4378.6 6236.3 3993.9H6640.8L6765.8 4378.6 6438.6 4616.4" fill="#ffde66"/>
<path transform="matrix(.1,0,0,-.1,0,792)" stroke-width="1" stroke-linecap="butt" stroke-miterlimit="10" stroke-linejoin="miter" fill="none" stroke="#000000" d="M6111.3 4378.6 6236.3 3993.9H6640.8L6765.8 4378.6 6438.6 4616.4Z"/>
<path transform="matrix(.1,0,0,-.1,0,792)" d="M6111.3 4854.1 6438.6 4616.4 6765.8 4854.1 6640.8 5238.8H6236.3" fill="#ffde66"/>
<path transform="matrix(.1,0,0,-.1,0,792)" stroke-width="1" stroke-linecap="butt" stroke-miterlimit="10" stroke-linejoin="miter" fill="none" stroke="#000000" d="M6111.3 4854.1 6438.6 4616.4 6765.8 4854.1 6640.8 5238.8H6236.3Z"/>
</svg>
