<svg xmlns="http://www.w3.org/2000/svg" xmlns:xlink="http://www.w3.org/1999/xlink" xmlns:inkscape="http://www.inkscape.org/namespaces/inkscape" version="1.1" width="612" height="792" viewBox="0 0 612 792">
<path transform="matrix(.1,0,0,-.1,0,792)" d="M2975 2615.4 3445.2 3262.7 4240.8 3346.3 3915.5 4077.1 4240.8 4808 3445.2 4891.6 2975 5538.8 2504.8 4891.6 1709.2 4808 2034.5 4077.1 1709.2 3346.3 2504.8 3262.7" fill="#2b1703"/>
<path transform="matrix(.1,0,0,-.1,0,792)" stroke-width="1" stroke-linecap="butt" stroke-miterlimit="10" stroke-linejoin="miter" fill="none" stroke="#000000" d="M2975 2615.4 3445.2 3262.7 4240.8 3346.3 3915.5 4077.1 4240.8 4808 3445.2 4891.6 2975 5538.8 2504.8 4891.6 1709.2 4808 2034.5 4077.1 1709.2 3346.3 2504.8 3262.7Z"/>
<path transform="matrix(.1,0,0,-.1,0,792)" d="M3445.2 4891.6 4240.8 4808 4566.2 5538.8 4240.8 6269.6 3445.2 6186 2975 5538.8" fill="#42f51c"/>
<path transform="matrix(.1,0,0,-.1,0,792)" stroke-width="1" stroke-linecap="butt" stroke-miterlimit="10" stroke-linejoin="miter" fill="none" stroke="#000000" d="M3445.2 4891.6 4240.8 4808 4566.2 5538.8 4240.8 6269.6 3445.2 6186 2975 5538.8Z"/>
<path transform="matrix(.1,0,0,-.1,0,792)" d="M2504.8 4891.6 2975 5538.8 2504.8 6186 1709.2 6269.6 1383.8 5538.8 1709.2 4808" fill="#42f51c"/>
<path transform="matrix(.1,0,0,-.1,0,792)" stroke-width="1" stroke-linecap="butt" stroke-miterlimit="10" stroke-linejoin="miter" fill="none" stroke="#000000" d="M2504.8 4891.6 2975 5538.8 2504.8 6186 1709.2 6269.6 1383.8 5538.8 1709.2 4808Z"/>
<path transform="matrix(.1,0,0,-.1,0,792)" d="M2504.8 3262.7 1709.2 3346.3 1383.8 2615.4 1709.2 1884.6 2504.8 1968.2 2975 2615.4" fill="#42f51c"/>
<path transform="matrix(.1,0,0,-.1,0,792)" stroke-width="1" stroke-linecap="butt" stroke-miterlimit="10" stroke-linejoin="miter" fill="none" stroke="#000000" d="M2504.8 3262.7 1709.2 3346.3 1383.8 2615.4 1709.2 1884.6 2504.8 1968.2 2975 2615.4Z"/>
<path transform="matrix(.1,0,0,-.1,0,792)" d="M3445.2 3262.7 2975 2615.4 3445.2 1968.2 4240.8 1884.6 4566.2 2615.4 4240.8 3346.3" fill="#42f51c"/>
<path transform="matrix(.1,0,0,-.1,0,792)" stroke-width="1" stroke-linecap="butt" stroke-miterlimit="10" stroke-linejoin="miter" fill="none" stroke="#000000" d="M3445.2 3262.7 2975 2615.4 3445.2 1968.2 4240.8 1884.6 4566.2 2615.4 4240.8 3346.3Z"/>
<path transform="matrix(.1,0,0,-.1,0,792)" d="M3915.5 4077.1 4240.8 3346.3 5036.5 3429.9 5506.7 4077.1 5036.5 4724.3 4240.8 4808" fill="#42f51c"/>
<path transform="matrix(.1,0,0,-.1,0,792)" stroke-width="1" stroke-linecap="butt" stroke-miterlimit="10" stroke-linejoin="miter" fill="none" stroke="#000000" d="M3915.5 4077.1 4240.8 3346.3 5036.5 3429.9 5506.7 4077.1 5036.5 4724.3 4240.8 4808Z"/>
<path transform="matrix(.1,0,0,-.1,0,792)" d="M2034.5 4077.1 1709.2 4808 913.5 4724.3 443.301 4077.1 913.5 3429.9 1709.2 3346.3" fill="#42f51c"/>
<path transform="matrix(.1,0,0,-.1,0,792)" stroke-width="1" stroke-linecap="butt" stroke-miterlimit="10" stroke-linejoin="miter" fill="none" stroke="#000000" d="M2034.5 4077.1 1709.2 4808 913.5 4724.3 443.301 4077.1 913.5 3429.9 1709.2 3346.3Z"/>
<path transform="matrix(.1,0,0,-.1,0,792)" d="M2975 5538.8 3445.2 6186 4240.8 6269.6 3915.5 7000.5 4240.8 7731.3 3445.2 7814.9 2975 8462.1 2504.8 7814.9 1709.2 7731.3 2034.5 7000.5 1709.2 6269.6 2504.8 6186" fill="#2b1703"/>
<path transform="matrix(.1,0,0,-.1,0,792)" stroke-width="1" stroke-linecap="butt" stroke-miterlimit="10" stroke-linejoin="miter" fill="none" stroke="#000000" d="M2975 5538.8 3445.2 6186 4240.8 6269.6 3915.5 7000.5 4240.8 7731.3 3445.2 7814.9 2975 8462.1 2504.8 7814.9 1709.2 7731.3 2034.5 7000.5 1709.2 6269.6 2504.8 6186Z"/>
<path transform="matrix(.1,0,0,-.1,0,792)" d="M2975 2615.4 2504.8 1968.2 1709.2 1884.6 2034.5 1153.8 1709.2 422.898 2504.8 339.301 2975-307.898 3445.2 339.301 4240.8 422.898 3915.5 1153.8 4240.8 1884.6 3445.2 1968.2" fill="#2b1703"/>
<path transform="matrix(.1,0,0,-.1,0,792)" stroke-width="1" stroke-linecap="butt" stroke-miterlimit="10" stroke-linejoin="miter" fill="none" stroke="#000000" d="M2975 2615.4 2504.8 1968.2 1709.2 1884.6 2034.5 1153.8 1709.2 422.898 2504.8 339.301 2975-307.898 3445.2 339.301 4240.8 422.898 3915.5 1153.8 4240.8 1884.6 3445.2 1968.2Z"/>
<path transform="matrix(.1,0,0,-.1,0,792)" d="M4240.8 3346.3 4566.2 2615.4 4240.8 1884.6 5036.5 1801 5506.7 1153.8 5976.9 1801 6772.5 1884.6 6447.1 2615.4 6772.5 3346.3 5976.9 3429.9 5506.7 4077.1 5036.5 3429.9" fill="#2b1703"/>
<path transform="matrix(.1,0,0,-.1,0,792)" stroke-width="1" stroke-linecap="butt" stroke-miterlimit="10" stroke-linejoin="miter" fill="none" stroke="#000000" d="M4240.8 3346.3 4566.2 2615.4 4240.8 1884.6 5036.5 1801 5506.7 1153.8 5976.9 1801 6772.5 1884.6 6447.1 2615.4 6772.5 3346.3 5976.9 3429.9 5506.7 4077.1 5036.5 3429.9Z"/>
<path transform="matrix(.1,0,0,-.1,0,792)" d="M4240.8 4808 5036.5 4724.3 5506.7 4077.1 5976.9 4724.3 6772.5 4808 6447.1 5538.8 6772.5 6269.6 5976.9 6353.3 5506.7 7000.5 5036.5 6353.3 4240.8 6269.6 4566.2 5538.8" fill="#2b1703"/>
<path transform="matrix(.1,0,0,-.1,0,792)" stroke-width="1" stroke-linecap="butt" stroke-miterlimit="10" stroke-linejoin="miter" fill="none" stroke="#000000" d="M4240.8 4808 5036.5 4724.3 5506.7 4077.1 5976.9 4724.3 6772.5 4808 6447.1 5538.8 6772.5 6269.6 5976.9 6353.3 5506.7 7000.5 5036.5 6353.3 4240.8 6269.6 4566.2 5538.8Z"/>
<path transform="matrix(.1,0,0,-.1,0,792)" d="M1709.2 4808 1383.8 5538.8 1709.2 6269.6 913.5 6353.3 443.301 7000.5-26.8984 6353.3-822.5 6269.6-497.102 5538.8-822.5 4808-26.8984 4724.3 443.301 4077.1 913.5 4724.3" fill="#2b1703"/>
<path transform="matrix(.1,0,0,-.1,0,792)" stroke-width="1" stroke-linecap="butt" stroke-miterlimit="10" stroke-linejoin="miter" fill="none" stroke="#000000" d="M1709.2 4808 1383.8 5538.8 1709.2 6269.6 913.5 6353.3 443.301 7000.5-26.8984 6353.3-822.5 6269.6-497.102 5538.8-822.5 4808-26.8984 4724.3 443.301 4077.1 913.5 4724.3Z"/>
<path transform="matrix(.1,0,0,-.1,0,792)" d="M1709.2 3346.3 913.5 3429.9 443.301 4077.1-26.8984 3429.9-822.5 3346.3-497.102 2615.4-822.5 1884.6-26.8984 1801 443.301 1153.8 913.5 1801 1709.2 1884.6 1383.8 2615.4" fill="#2b1703"/>
<path transform="matrix(.1,0,0,-.1,0,792)" stroke-width="1" stroke-linecap="butt" stroke-miterlimit="10" stroke-linejoin="miter" fill="none" stroke="#000000" d="M1709.2 3346.3 913.5 3429.9 443.301 4077.1-26.8984 3429.9-822.5 3346.3-497.102 2615.4-822.5 1884.6-26.8984 1801 443.301 1153.8 913.5 1801 1709.2 1884.6 1383.8 2615.4Z"/>
<path transform="matrix(.1,0,0,-.1,0,792)" d="M4240.8 6269.6 5036.5 6353.3 5506.7 7000.5 5036.5 7647.7 4240.8 7731.3 3915.5 7000.5" fill="#42f51c"/>
<path transform="matrix(.1,0,0,-.1,0,792)" stroke-width="1" stroke-linecap="butt" stroke-miterlimit="10" stroke-linejoin="miter" fill="none" stroke="#000000" d="M4240.8 6269.6 5036.5 6353.3 5506.7 7000.5 5036.5 7647.7 4240.8 7731.3 3915.5 7000.5Z"/>
<path transform="matrix(.1,0,0,-.1,0,792)" d="M1709.2 6269.6 2034.5 7000.5 1709.2 7731.3 913.5 7647.7 443.301 7000.5 913.5 6353.3" fill="#42f51c"/>
<path transform="matrix(.1,0,0,-.1,0,792)" stroke-width="1" stroke-linecap="butt" stroke-miterlimit="10" stroke-linejoin="miter" fill="none" stroke="#000000" d="M1709.2 6269.6 2034.5 7000.5 1709.2 7731.3 913.5 7647.7 443.301 7000.5 913.5 6353.3Z"/>
<path transform="matrix(.1,0,0,-.1,0,792)" d="M1709.2 1884.6 913.5 1801 443.301 1153.8 913.5 506.602 1709.2 422.898 2034.5 1153.8" fill="#42f51c"/>
<path transform="matrix(.1,0,0,-.1,0,792)" stroke-width="1" stroke-linecap="butt" stroke-miterlimit="10" stroke-linejoin="miter" fill="none" stroke="#000000" d="M1709.2 1884.6 913.5 1801 443.301 1153.8 913.5 506.602 1709.2 422.898 2034.5 1153.8Z"/>
<path transform="matrix(.1,0,0,-.1,0,792)" d="M4240.8 1884.6 3915.5 1153.8 4240.8 422.898 5036.5 506.602 5506.7 1153.8 5036.5 1801" fill="#42f51c"/>
<path transform="matrix(.1,0,0,-.1,0,792)" stroke-width="1" stroke-linecap="butt" stroke-miterlimit="10" stroke-linejoin="miter" fill="none" stroke="#000000" d="M4240.8 1884.6 3915.5 1153.8 4240.8 422.898 5036.5 506.602 5506.7 1153.8 5036.5 1801Z"/>
<path transform="matrix(.1,0,0,-.1,0,792)" d="M5036.5 7647.7 5506.7 7000.5 5976.9 7647.7 6772.5 7731.3 6447.1 8462.1 6772.5 9193 5976.9 9276.6 5506.7 9923.8 5036.5 9276.6 4240.8 9193 4566.2 8462.1 4240.8 7731.3" fill="#2b1703"/>
<path transform="matrix(.1,0,0,-.1,0,792)" stroke-width="1" stroke-linecap="butt" stroke-miterlimit="10" stroke-linejoin="miter" fill="none" stroke="#000000" d="M5036.5 7647.7 5506.7 7000.5 5976.9 7647.7 6772.5 7731.3 6447.1 8462.1 6772.5 9193 5976.9 9276.6 5506.7 9923.8 5036.5 9276.6 4240.8 9193 4566.2 8462.1 4240.8 7731.3Z"/>
<path transform="matrix(.1,0,0,-.1,0,792)" d="M913.5 7647.7 1709.2 7731.3 1383.8 8462.1 1709.2 9193 913.5 9276.6 443.301 9923.8-26.8984 9276.6-822.5 9193-497.102 8462.1-822.5 7731.3-26.8984 7647.7 443.301 7000.5" fill="#2b1703"/>
<path transform="matrix(.1,0,0,-.1,0,792)" stroke-width="1" stroke-linecap="butt" stroke-miterlimit="10" stroke-linejoin="miter" fill="none" stroke="#000000" d="M913.5 7647.7 1709.2 7731.3 1383.8 8462.1 1709.2 9193 913.5 9276.6 443.301 9923.8-26.8984 9276.6-822.5 9193-497.102 8462.1-822.5 7731.3-26.8984 7647.7 443.301 7000.5Z"/>
<path transform="matrix(.1,0,0,-.1,0,792)" d="M443.301 7000.5-26.8984 7647.7-822.5 7731.3-1147.9 7000.5-822.5 6269.6-26.8984 6353.3" fill="#42f51c"/>
<path transform="matrix(.1,0,0,-.1,0,792)" stroke-width="1" stroke-linecap="butt" stroke-miterlimit="10" stroke-linejoin="miter" fill="none" stroke="#000000" d="M443.301 7000.5-26.8984 7647.7-822.5 7731.3-1147.9 7000.5-822.5 6269.6-26.8984 6353.3Z"/>
<path transform="matrix(.1,0,0,-.1,0,792)" d="M443.301 4077.1-26.8984 4724.3-822.5 4808-1147.9 4077.1-822.5 3346.3-26.8984 3429.9" fill="#42f51c"/>
<path transform="matrix(.1,0,0,-.1,0,792)" stroke-width="1" stroke-linecap="butt" stroke-miterlimit="10" stroke-linejoin="miter" fill="none" stroke="#000000" d="M443.301 4077.1-26.8984 4724.3-822.5 4808-1147.9 4077.1-822.5 3346.3-26.8984 3429.9Z"/>
<path transform="matrix(.1,0,0,-.1,0,792)" d="M443.301 1153.8-26.8984 506.602-822.5 422.898-497.102-307.898-822.5-1038.7-26.8984-1122.4 443.301-1769.6 913.5-1122.4 1709.2-1038.7 1383.8-307.898 1709.2 422.898 913.5 506.602" fill="#2b1703"/>
<path transform="matrix(.1,0,0,-.1,0,792)" stroke-width="1" stroke-linecap="butt" stroke-miterlimit="10" stroke-linejoin="miter" fill="none" stroke="#000000" d="M443.301 1153.8-26.8984 506.602-822.5 422.898-497.102-307.898-822.5-1038.7-26.8984-1122.4 443.301-1769.6 913.5-1122.4 1709.2-1038.7 1383.8-307.898 1709.2 422.898 913.5 506.602Z"/>
<path transform="matrix(.1,0,0,-.1,0,792)" d="M443.301 1153.8-26.8984 1801-822.5 1884.6-1147.9 1153.8-822.5 422.898-26.8984 506.602" fill="#42f51c"/>
<path transform="matrix(.1,0,0,-.1,0,792)" stroke-width="1" stroke-linecap="butt" stroke-miterlimit="10" stroke-linejoin="miter" fill="none" stroke="#000000" d="M443.301 1153.8-26.8984 1801-822.5 1884.6-1147.9 1153.8-822.5 422.898-26.8984 506.602Z"/>
<path transform="matrix(.1,0,0,-.1,0,792)" d="M5506.7 1153.8 5976.9 506.602 6772.5 422.898 7097.9 1153.8 6772.5 1884.6 5976.9 1801" fill="#42f51c"/>
<path transform="matrix(.1,0,0,-.1,0,792)" stroke-width="1" stroke-linecap="butt" stroke-miterlimit="10" stroke-linejoin="miter" fill="none" stroke="#000000" d="M5506.7 1153.8 5976.9 506.602 6772.5 422.898 7097.9 1153.8 6772.5 1884.6 5976.9 1801Z"/>
<path transform="matrix(.1,0,0,-.1,0,792)" d="M5506.7 1153.8 5036.5 506.602 4240.8 422.898 4566.2-307.898 4240.8-1038.7 5036.5-1122.4 5506.7-1769.6 5976.9-1122.4 6772.5-1038.7 6447.1-307.898 6772.5 422.898 5976.9 506.602" fill="#2b1703"/>
<path transform="matrix(.1,0,0,-.1,0,792)" stroke-width="1" stroke-linecap="butt" stroke-miterlimit="10" stroke-linejoin="miter" fill="none" stroke="#000000" d="M5506.7 1153.8 5036.5 506.602 4240.8 422.898 4566.2-307.898 4240.8-1038.7 5036.5-1122.4 5506.7-1769.6 5976.9-1122.4 6772.5-1038.7 6447.1-307.898 6772.5 422.898 5976.9 506.602Z"/>
<path transform="matrix(.1,0,0,-.1,0,792)" d="M5506.7 4077.1 5976.9 3429.9 6772.5 3346.3 7097.9 4077.1 6772.5 4808 5976.9 4724.3" fill="#42f51c"/>
<path transform="matrix(.1,0,0,-.1,0,792)" stroke-width="1" stroke-linecap="butt" stroke-miterlimit="10" stroke-linejoin="miter" fill="none" stroke="#000000" d="M5506.7 4077.1 5976.9 3429.9 6772.5 3346.3 7097.9 4077.1 6772.5 4808 5976.9 4724.3Z"/>
<path transform="matrix(.1,0,0,-.1,0,792)" d="M5506.7 7000.5 5976.9 6353.3 6772.5 6269.6 7097.9 7000.5 6772.5 7731.3 5976.9 7647.7" fill="#42f51c"/>
<path transform="matrix(.1,0,0,-.1,0,792)" stroke-width="1" stroke-linecap="butt" stroke-miterlimit="10" stroke-linejoin="miter" fill="none" stroke="#000000" d="M5506.7 7000.5 5976.9 6353.3 6772.5 6269.6 7097.9 7000.5 6772.5 7731.3 5976.9 7647.7Z"/>
<path transform="matrix(.1,0,0,-.1,0,792)" d="M4240.8 7731.3 4566.2 8462.1 4240.8 9193 3445.2 9109.4 2975 8462.1 3445.2 7814.9" fill="#42f51c"/>
<path transform="matrix(.1,0,0,-.1,0,792)" stroke-width="1" stroke-linecap="butt" stroke-miterlimit="10" stroke-linejoin="miter" fill="none" stroke="#000000" d="M4240.8 7731.3 4566.2 8462.1 4240.8 9193 3445.2 9109.4 2975 8462.1 3445.2 7814.9Z"/>
<path transform="matrix(.1,0,0,-.1,0,792)" d="M1709.2 7731.3 2504.8 7814.9 2975 8462.1 2504.8 9109.4 1709.2 9193 1383.8 8462.1" fill="#42f51c"/>
<path transform="matrix(.1,0,0,-.1,0,792)" stroke-width="1" stroke-linecap="butt" stroke-miterlimit="10" stroke-linejoin="miter" fill="none" stroke="#000000" d="M1709.2 7731.3 2504.8 7814.9 2975 8462.1 2504.8 9109.4 1709.2 9193 1383.8 8462.1Z"/>
<path transform="matrix(.1,0,0,-.1,0,792)" d="M1709.2 422.898 1383.8-307.898 1709.2-1038.7 2504.8-955.102 2975-307.898 2504.8 339.301" fill="#42f51c"/>
<path transform="matrix(.1,0,0,-.1,0,792)" stroke-width="1" stroke-linecap="butt" stroke-miterlimit="10" stroke-linejoin="miter" fill="none" stroke="#000000" d="M1709.2 422.898 1383.8-307.898 1709.2-1038.7 2504.8-955.102 2975-307.898 2504.8 339.301Z"/>
<path transform="matrix(.1,0,0,-.1,0,792)" d="M4240.8 422.898 3445.2 339.301 2975-307.898 3445.2-955.102 4240.8-1038.7 4566.2-307.898" fill="#42f51c"/>
<path transform="matrix(.1,0,0,-.1,0,792)" stroke-width="1" stroke-linecap="butt" stroke-miterlimit="10" stroke-linejoin="miter" fill="none" stroke="#000000" d="M4240.8 422.898 3445.2 339.301 2975-307.898 3445.2-955.102 4240.8-1038.7 4566.2-307.898Z"/>
</svg>
