<svg xmlns="http://www.w3.org/2000/svg" xmlns:xlink="http://www.w3.org/1999/xlink" xmlns:inkscape="http://www.inkscape.org/namespaces/inkscape" version="1.1" width="612" height="792" viewBox="0 0 612 792">
<path transform="matrix(.1,0,0,-.1,0,792)" d="M2542 3960H3408L2542 4460" fill="#0d26ad"/>
<path transform="matrix(.1,0,0,-.1,0,792)" stroke-width="15" stroke-linecap="butt" stroke-miterlimit="10" stroke-linejoin="miter" fill="none" stroke="#000000" d="M2542 3960H3408L2542 4460Z"/>
<path transform="matrix(.1,0,0,-.1,0,792)" d="M3408 3960 2975 4710 2542 4460" fill="#699eb5"/>
<path transform="matrix(.1,0,0,-.1,0,792)" stroke-width="15" stroke-linecap="butt" stroke-miterlimit="10" stroke-linejoin="miter" fill="none" stroke="#000000" d="M3408 3960 2975 4710 2542 4460Z"/>
<path transform="matrix(.1,0,0,-.1,0,792)" d="M2975 4710 2725 5143H2225V4643L2542 4460" fill="#7a801f"/>
<path transform="matrix(.1,0,0,-.1,0,792)" stroke-width="15" stroke-linecap="butt" stroke-miterlimit="10" stroke-linejoin="miter" fill="none" stroke="#000000" d="M2975 4710 2725 5143H2225V4643L2542 4460Z"/>
<path transform="matrix(.1,0,0,-.1,0,792)" d="M2975 4710 3408 4960V5326L2975 5576 2725 5143" fill="#4a524f"/>
<path transform="matrix(.1,0,0,-.1,0,792)" stroke-width="15" stroke-linecap="butt" stroke-miterlimit="10" stroke-linejoin="miter" fill="none" stroke="#000000" d="M2975 4710 3408 4960V5326L2975 5576 2725 5143Z"/>
<path transform="matrix(.1,0,0,-.1,0,792)" d="M2975 4710 3408 3960V4960" fill="#0d26ad"/>
<path transform="matrix(.1,0,0,-.1,0,792)" stroke-width="15" stroke-linecap="butt" stroke-miterlimit="10" stroke-linejoin="miter" fill="none" stroke="#000000" d="M2975 4710 3408 3960V4960Z"/>
<path transform="matrix(.1,0,0,-.1,0,792)" d="M2542 3960V3460L3408 3960" fill="#699eb5"/>
<path transform="matrix(.1,0,0,-.1,0,792)" stroke-width="15" stroke-linecap="butt" stroke-miterlimit="10" stroke-linejoin="miter" fill="none" stroke="#000000" d="M2542 3960V3460L3408 3960Z"/>
<path transform="matrix(.1,0,0,-.1,0,792)" d="M2542 4460 2225 4643 1792 4393 2042 3960H2542" fill="#4a524f"/>
<path transform="matrix(.1,0,0,-.1,0,792)" stroke-width="15" stroke-linecap="butt" stroke-miterlimit="10" stroke-linejoin="miter" fill="none" stroke="#000000" d="M2542 4460 2225 4643 1792 4393 2042 3960H2542Z"/>
<path transform="matrix(.1,0,0,-.1,0,792)" d="M2542 3960H2042L1792 3527 2225 3277 2542 3460" fill="#7a801f"/>
<path transform="matrix(.1,0,0,-.1,0,792)" stroke-width="15" stroke-linecap="butt" stroke-miterlimit="10" stroke-linejoin="miter" fill="none" stroke="#000000" d="M2542 3960H2042L1792 3527 2225 3277 2542 3460Z"/>
<path transform="matrix(.1,0,0,-.1,0,792)" d="M3408 3960 3841 4710 3408 4960" fill="#699eb5"/>
<path transform="matrix(.1,0,0,-.1,0,792)" stroke-width="15" stroke-linecap="butt" stroke-miterlimit="10" stroke-linejoin="miter" fill="none" stroke="#000000" d="M3408 3960 3841 4710 3408 4960Z"/>
<path transform="matrix(.1,0,0,-.1,0,792)" d="M3408 3960 4274 4460 3841 4710" fill="#0d26ad"/>
<path transform="matrix(.1,0,0,-.1,0,792)" stroke-width="15" stroke-linecap="butt" stroke-miterlimit="10" stroke-linejoin="miter" fill="none" stroke="#000000" d="M3408 3960 4274 4460 3841 4710Z"/>
<path transform="matrix(.1,0,0,-.1,0,792)" d="M3408 3960H4274V4460" fill="#699eb5"/>
<path transform="matrix(.1,0,0,-.1,0,792)" stroke-width="15" stroke-linecap="butt" stroke-miterlimit="10" stroke-linejoin="miter" fill="none" stroke="#000000" d="M3408 3960H4274V4460Z"/>
<path transform="matrix(.1,0,0,-.1,0,792)" d="M3408 3960 4274 3460V3960" fill="#0d26ad"/>
<path transform="matrix(.1,0,0,-.1,0,792)" stroke-width="15" stroke-linecap="butt" stroke-miterlimit="10" stroke-linejoin="miter" fill="none" stroke="#000000" d="M3408 3960 4274 3460V3960Z"/>
<path transform="matrix(.1,0,0,-.1,0,792)" d="M3408 3960 3841 3210 4274 3460" fill="#699eb5"/>
<path transform="matrix(.1,0,0,-.1,0,792)" stroke-width="15" stroke-linecap="butt" stroke-miterlimit="10" stroke-linejoin="miter" fill="none" stroke="#000000" d="M3408 3960 3841 3210 4274 3460Z"/>
<path transform="matrix(.1,0,0,-.1,0,792)" d="M3408 3960V2960L3841 3210" fill="#0d26ad"/>
<path transform="matrix(.1,0,0,-.1,0,792)" stroke-width="15" stroke-linecap="butt" stroke-miterlimit="10" stroke-linejoin="miter" fill="none" stroke="#000000" d="M3408 3960V2960L3841 3210Z"/>
<path transform="matrix(.1,0,0,-.1,0,792)" d="M3408 3960 2975 3210 3408 2960" fill="#699eb5"/>
<path transform="matrix(.1,0,0,-.1,0,792)" stroke-width="15" stroke-linecap="butt" stroke-miterlimit="10" stroke-linejoin="miter" fill="none" stroke="#000000" d="M3408 3960 2975 3210 3408 2960Z"/>
<path transform="matrix(.1,0,0,-.1,0,792)" d="M3408 3960 2542 3460 2975 3210" fill="#0d26ad"/>
<path transform="matrix(.1,0,0,-.1,0,792)" stroke-width="15" stroke-linecap="butt" stroke-miterlimit="10" stroke-linejoin="miter" fill="none" stroke="#000000" d="M3408 3960 2542 3460 2975 3210Z"/>
<path transform="matrix(.1,0,0,-.1,0,792)" d="M2542 3460 2225 3277V2777H2725L2975 3210" fill="#4a524f"/>
<path transform="matrix(.1,0,0,-.1,0,792)" stroke-width="15" stroke-linecap="butt" stroke-miterlimit="10" stroke-linejoin="miter" fill="none" stroke="#000000" d="M2542 3460 2225 3277V2777H2725L2975 3210Z"/>
<path transform="matrix(.1,0,0,-.1,0,792)" d="M3408 4960 3841 4710 4091 5143 3841 5576 3408 5326" fill="#7a801f"/>
<path transform="matrix(.1,0,0,-.1,0,792)" stroke-width="15" stroke-linecap="butt" stroke-miterlimit="10" stroke-linejoin="miter" fill="none" stroke="#000000" d="M3408 4960 3841 4710 4091 5143 3841 5576 3408 5326Z"/>
<path transform="matrix(.1,0,0,-.1,0,792)" d="M2725 5143 2975 5576 2542 5826 2225 5643V5143" fill="#e8ed08"/>
<path transform="matrix(.1,0,0,-.1,0,792)" stroke-width="15" stroke-linecap="butt" stroke-miterlimit="10" stroke-linejoin="miter" fill="none" stroke="#000000" d="M2725 5143 2975 5576 2542 5826 2225 5643V5143Z"/>
<path transform="matrix(.1,0,0,-.1,0,792)" d="M2975 3210 2725 2777 2975 2344 3408 2594V2960" fill="#7a801f"/>
<path transform="matrix(.1,0,0,-.1,0,792)" stroke-width="15" stroke-linecap="butt" stroke-miterlimit="10" stroke-linejoin="miter" fill="none" stroke="#000000" d="M2975 3210 2725 2777 2975 2344 3408 2594V2960Z"/>
<path transform="matrix(.1,0,0,-.1,0,792)" d="M2225 5143H1359L1792 4393 2225 4643Z" fill="#573845"/>
<path transform="matrix(.1,0,0,-.1,0,792)" stroke-width="15" stroke-linecap="butt" stroke-miterlimit="10" stroke-linejoin="miter" fill="none" stroke="#000000" d="M2225 5143H1359L1792 4393 2225 4643Z"/>
<path transform="matrix(.1,0,0,-.1,0,792)" d="M2225 5143V5643L1792 5893 1359 5143Z" fill="#7014e8"/>
<path transform="matrix(.1,0,0,-.1,0,792)" stroke-width="15" stroke-linecap="butt" stroke-miterlimit="10" stroke-linejoin="miter" fill="none" stroke="#000000" d="M2225 5143V5643L1792 5893 1359 5143Z"/>
<path transform="matrix(.1,0,0,-.1,0,792)" d="M2225 3277 1792 3527 1359 2777H2225Z" fill="#573845"/>
<path transform="matrix(.1,0,0,-.1,0,792)" stroke-width="15" stroke-linecap="butt" stroke-miterlimit="10" stroke-linejoin="miter" fill="none" stroke="#000000" d="M2225 3277 1792 3527 1359 2777H2225Z"/>
<path transform="matrix(.1,0,0,-.1,0,792)" d="M3408 5326 3841 5576 3408 6326 2975 5576Z" fill="#573845"/>
<path transform="matrix(.1,0,0,-.1,0,792)" stroke-width="15" stroke-linecap="butt" stroke-miterlimit="10" stroke-linejoin="miter" fill="none" stroke="#000000" d="M3408 5326 3841 5576 3408 6326 2975 5576Z"/>
<path transform="matrix(.1,0,0,-.1,0,792)" d="M3841 3210 4091 2777H4591V3277L4274 3460" fill="#7a801f"/>
<path transform="matrix(.1,0,0,-.1,0,792)" stroke-width="15" stroke-linecap="butt" stroke-miterlimit="10" stroke-linejoin="miter" fill="none" stroke="#000000" d="M3841 3210 4091 2777H4591V3277L4274 3460Z"/>
<path transform="matrix(.1,0,0,-.1,0,792)" d="M3841 3210 3408 2960V2594L3841 2344 4091 2777" fill="#4a524f"/>
<path transform="matrix(.1,0,0,-.1,0,792)" stroke-width="15" stroke-linecap="butt" stroke-miterlimit="10" stroke-linejoin="miter" fill="none" stroke="#000000" d="M3841 3210 3408 2960V2594L3841 2344 4091 2777Z"/>
<path transform="matrix(.1,0,0,-.1,0,792)" d="M3841 4710 4274 4460 4591 4643V5143H4091" fill="#4a524f"/>
<path transform="matrix(.1,0,0,-.1,0,792)" stroke-width="15" stroke-linecap="butt" stroke-miterlimit="10" stroke-linejoin="miter" fill="none" stroke="#000000" d="M3841 4710 4274 4460 4591 4643V5143H4091Z"/>
<path transform="matrix(.1,0,0,-.1,0,792)" d="M2042 3960 1792 4393 1359 4143V3777L1792 3527" fill="#e8ed08"/>
<path transform="matrix(.1,0,0,-.1,0,792)" stroke-width="15" stroke-linecap="butt" stroke-miterlimit="10" stroke-linejoin="miter" fill="none" stroke="#000000" d="M2042 3960 1792 4393 1359 4143V3777L1792 3527Z"/>
<path transform="matrix(.1,0,0,-.1,0,792)" d="M3841 5576 4274 5826V6326H3408Z" fill="#7014e8"/>
<path transform="matrix(.1,0,0,-.1,0,792)" stroke-width="15" stroke-linecap="butt" stroke-miterlimit="10" stroke-linejoin="miter" fill="none" stroke="#000000" d="M3841 5576 4274 5826V6326H3408Z"/>
<path transform="matrix(.1,0,0,-.1,0,792)" d="M3841 5576 4091 5143H4591V5643L4274 5826" fill="#e8ed08"/>
<path transform="matrix(.1,0,0,-.1,0,792)" stroke-width="15" stroke-linecap="butt" stroke-miterlimit="10" stroke-linejoin="miter" fill="none" stroke="#000000" d="M3841 5576 4091 5143H4591V5643L4274 5826Z"/>
<path transform="matrix(.1,0,0,-.1,0,792)" d="M2975 5576 3408 6326H2542V5826Z" fill="#7014e8"/>
<path transform="matrix(.1,0,0,-.1,0,792)" stroke-width="15" stroke-linecap="butt" stroke-miterlimit="10" stroke-linejoin="miter" fill="none" stroke="#000000" d="M2975 5576 3408 6326H2542V5826Z"/>
<path transform="matrix(.1,0,0,-.1,0,792)" d="M2225 5643 2542 5826V6326H2042L1792 5893" fill="#e8ed08"/>
<path transform="matrix(.1,0,0,-.1,0,792)" stroke-width="15" stroke-linecap="butt" stroke-miterlimit="10" stroke-linejoin="miter" fill="none" stroke="#000000" d="M2225 5643 2542 5826V6326H2042L1792 5893Z"/>
<path transform="matrix(.1,0,0,-.1,0,792)" d="M2225 2777V2277L2542 2094 2975 2344 2725 2777" fill="#e8ed08"/>
<path transform="matrix(.1,0,0,-.1,0,792)" stroke-width="15" stroke-linecap="butt" stroke-miterlimit="10" stroke-linejoin="miter" fill="none" stroke="#000000" d="M2225 2777V2277L2542 2094 2975 2344 2725 2777Z"/>
<path transform="matrix(.1,0,0,-.1,0,792)" d="M2225 2777H1359L1792 2027 2225 2277Z" fill="#7014e8"/>
<path transform="matrix(.1,0,0,-.1,0,792)" stroke-width="15" stroke-linecap="butt" stroke-miterlimit="10" stroke-linejoin="miter" fill="none" stroke="#000000" d="M2225 2777H1359L1792 2027 2225 2277Z"/>
<path transform="matrix(.1,0,0,-.1,0,792)" d="M4091 2777 3841 2344 4274 2094 4591 2277V2777" fill="#e8ed08"/>
<path transform="matrix(.1,0,0,-.1,0,792)" stroke-width="15" stroke-linecap="butt" stroke-miterlimit="10" stroke-linejoin="miter" fill="none" stroke="#000000" d="M4091 2777 3841 2344 4274 2094 4591 2277V2777Z"/>
<path transform="matrix(.1,0,0,-.1,0,792)" d="M3408 2594 2975 2344 3408 1594 3841 2344Z" fill="#573845"/>
<path transform="matrix(.1,0,0,-.1,0,792)" stroke-width="15" stroke-linecap="butt" stroke-miterlimit="10" stroke-linejoin="miter" fill="none" stroke="#000000" d="M3408 2594 2975 2344 3408 1594 3841 2344Z"/>
<path transform="matrix(.1,0,0,-.1,0,792)" d="M1792 4393 1359 5143 926 4393 1359 4143Z" fill="#7014e8"/>
<path transform="matrix(.1,0,0,-.1,0,792)" stroke-width="15" stroke-linecap="butt" stroke-miterlimit="10" stroke-linejoin="miter" fill="none" stroke="#000000" d="M1792 4393 1359 5143 926 4393 1359 4143Z"/>
<path transform="matrix(.1,0,0,-.1,0,792)" d="M1792 3527 1359 3777 926 3527 1359 2777Z" fill="#7014e8"/>
<path transform="matrix(.1,0,0,-.1,0,792)" stroke-width="15" stroke-linecap="butt" stroke-miterlimit="10" stroke-linejoin="miter" fill="none" stroke="#000000" d="M1792 3527 1359 3777 926 3527 1359 2777Z"/>
<path transform="matrix(.1,0,0,-.1,0,792)" d="M1792 5893 1359 6143 926 5893 1359 5143Z" fill="#573845"/>
<path transform="matrix(.1,0,0,-.1,0,792)" stroke-width="15" stroke-linecap="butt" stroke-miterlimit="10" stroke-linejoin="miter" fill="none" stroke="#000000" d="M1792 5893 1359 6143 926 5893 1359 5143Z"/>
<path transform="matrix(.1,0,0,-.1,0,792)" d="M1792 5893 2042 6326 1792 6759 1359 6509V6143" fill="#4a524f"/>
<path transform="matrix(.1,0,0,-.1,0,792)" stroke-width="15" stroke-linecap="butt" stroke-miterlimit="10" stroke-linejoin="miter" fill="none" stroke="#000000" d="M1792 5893 2042 6326 1792 6759 1359 6509V6143Z"/>
<path transform="matrix(.1,0,0,-.1,0,792)" d="M4274 3460 4591 3277 5024 3527 4774 3960H4274" fill="#4a524f"/>
<path transform="matrix(.1,0,0,-.1,0,792)" stroke-width="15" stroke-linecap="butt" stroke-miterlimit="10" stroke-linejoin="miter" fill="none" stroke="#000000" d="M4274 3460 4591 3277 5024 3527 4774 3960H4274Z"/>
<path transform="matrix(.1,0,0,-.1,0,792)" d="M4274 3960H4774L5024 4393 4591 4643 4274 4460" fill="#7a801f"/>
<path transform="matrix(.1,0,0,-.1,0,792)" stroke-width="15" stroke-linecap="butt" stroke-miterlimit="10" stroke-linejoin="miter" fill="none" stroke="#000000" d="M4274 3960H4774L5024 4393 4591 4643 4274 4460Z"/>
<path transform="matrix(.1,0,0,-.1,0,792)" d="M4274 5826 4591 5643 5024 5893 4774 6326H4274" fill="#e8ed08"/>
<path transform="matrix(.1,0,0,-.1,0,792)" stroke-width="15" stroke-linecap="butt" stroke-miterlimit="10" stroke-linejoin="miter" fill="none" stroke="#000000" d="M4274 5826 4591 5643 5024 5893 4774 6326H4274Z"/>
<path transform="matrix(.1,0,0,-.1,0,792)" d="M2975 2344 2542 2094V1594H3408Z" fill="#7014e8"/>
<path transform="matrix(.1,0,0,-.1,0,792)" stroke-width="15" stroke-linecap="butt" stroke-miterlimit="10" stroke-linejoin="miter" fill="none" stroke="#000000" d="M2975 2344 2542 2094V1594H3408Z"/>
<path transform="matrix(.1,0,0,-.1,0,792)" d="M3841 2344 3408 1594H4274V2094Z" fill="#7014e8"/>
<path transform="matrix(.1,0,0,-.1,0,792)" stroke-width="15" stroke-linecap="butt" stroke-miterlimit="10" stroke-linejoin="miter" fill="none" stroke="#000000" d="M3841 2344 3408 1594H4274V2094Z"/>
<path transform="matrix(.1,0,0,-.1,0,792)" d="M2225 2277 1792 2027 2042 1594H2542V2094" fill="#e8ed08"/>
<path transform="matrix(.1,0,0,-.1,0,792)" stroke-width="15" stroke-linecap="butt" stroke-miterlimit="10" stroke-linejoin="miter" fill="none" stroke="#000000" d="M2225 2277 1792 2027 2042 1594H2542V2094Z"/>
<path transform="matrix(.1,0,0,-.1,0,792)" d="M4274 2094V1594H4774L5024 2027 4591 2277" fill="#e8ed08"/>
<path transform="matrix(.1,0,0,-.1,0,792)" stroke-width="15" stroke-linecap="butt" stroke-miterlimit="10" stroke-linejoin="miter" fill="none" stroke="#000000" d="M4274 2094V1594H4774L5024 2027 4591 2277Z"/>
<path transform="matrix(.1,0,0,-.1,0,792)" d="M4274 6326V6826L3841 7076 3408 6326Z" fill="#573845"/>
<path transform="matrix(.1,0,0,-.1,0,792)" stroke-width="15" stroke-linecap="butt" stroke-miterlimit="10" stroke-linejoin="miter" fill="none" stroke="#000000" d="M4274 6326V6826L3841 7076 3408 6326Z"/>
<path transform="matrix(.1,0,0,-.1,0,792)" d="M4274 6326H4774L5024 6759 4591 7009 4274 6826" fill="#4a524f"/>
<path transform="matrix(.1,0,0,-.1,0,792)" stroke-width="15" stroke-linecap="butt" stroke-miterlimit="10" stroke-linejoin="miter" fill="none" stroke="#000000" d="M4274 6326H4774L5024 6759 4591 7009 4274 6826Z"/>
<path transform="matrix(.1,0,0,-.1,0,792)" d="M3408 6326 2975 7076 2542 6826V6326Z" fill="#573845"/>
<path transform="matrix(.1,0,0,-.1,0,792)" stroke-width="15" stroke-linecap="butt" stroke-miterlimit="10" stroke-linejoin="miter" fill="none" stroke="#000000" d="M3408 6326 2975 7076 2542 6826V6326Z"/>
<path transform="matrix(.1,0,0,-.1,0,792)" d="M3408 6326 3841 7076 3408 7326 2975 7076Z" fill="#7014e8"/>
<path transform="matrix(.1,0,0,-.1,0,792)" stroke-width="15" stroke-linecap="butt" stroke-miterlimit="10" stroke-linejoin="miter" fill="none" stroke="#000000" d="M3408 6326 3841 7076 3408 7326 2975 7076Z"/>
<path transform="matrix(.1,0,0,-.1,0,792)" d="M2542 6326V6826L2225 7009 1792 6759 2042 6326" fill="#7a801f"/>
<path transform="matrix(.1,0,0,-.1,0,792)" stroke-width="15" stroke-linecap="butt" stroke-miterlimit="10" stroke-linejoin="miter" fill="none" stroke="#000000" d="M2542 6326V6826L2225 7009 1792 6759 2042 6326Z"/>
<path transform="matrix(.1,0,0,-.1,0,792)" d="M1792 2027 1359 1777V1411L1792 1161 2042 1594" fill="#7a801f"/>
<path transform="matrix(.1,0,0,-.1,0,792)" stroke-width="15" stroke-linecap="butt" stroke-miterlimit="10" stroke-linejoin="miter" fill="none" stroke="#000000" d="M1792 2027 1359 1777V1411L1792 1161 2042 1594Z"/>
<path transform="matrix(.1,0,0,-.1,0,792)" d="M1792 2027 1359 2777 926 2027 1359 1777Z" fill="#573845"/>
<path transform="matrix(.1,0,0,-.1,0,792)" stroke-width="15" stroke-linecap="butt" stroke-miterlimit="10" stroke-linejoin="miter" fill="none" stroke="#000000" d="M1792 2027 1359 2777 926 2027 1359 1777Z"/>
<path transform="matrix(.1,0,0,-.1,0,792)" d="M1359 2777H492.898V2277L926 2027Z" fill="#7014e8"/>
<path transform="matrix(.1,0,0,-.1,0,792)" stroke-width="15" stroke-linecap="butt" stroke-miterlimit="10" stroke-linejoin="miter" fill="none" stroke="#000000" d="M1359 2777H492.898V2277L926 2027Z"/>
<path transform="matrix(.1,0,0,-.1,0,792)" d="M1359 2777 926 3527 492.898 3277V2777Z" fill="#573845"/>
<path transform="matrix(.1,0,0,-.1,0,792)" stroke-width="15" stroke-linecap="butt" stroke-miterlimit="10" stroke-linejoin="miter" fill="none" stroke="#000000" d="M1359 2777 926 3527 492.898 3277V2777Z"/>
<path transform="matrix(.1,0,0,-.1,0,792)" d="M1359 3777V4143L926 4393 676 3960 926 3527" fill="#e8ed08"/>
<path transform="matrix(.1,0,0,-.1,0,792)" stroke-width="15" stroke-linecap="butt" stroke-miterlimit="10" stroke-linejoin="miter" fill="none" stroke="#000000" d="M1359 3777V4143L926 4393 676 3960 926 3527Z"/>
<path transform="matrix(.1,0,0,-.1,0,792)" d="M1359 5143H492.898V4643L926 4393Z" fill="#573845"/>
<path transform="matrix(.1,0,0,-.1,0,792)" stroke-width="15" stroke-linecap="butt" stroke-miterlimit="10" stroke-linejoin="miter" fill="none" stroke="#000000" d="M1359 5143H492.898V4643L926 4393Z"/>
<path transform="matrix(.1,0,0,-.1,0,792)" d="M1359 5143 926 5893 492.898 5643V5143Z" fill="#7014e8"/>
<path transform="matrix(.1,0,0,-.1,0,792)" stroke-width="15" stroke-linecap="butt" stroke-miterlimit="10" stroke-linejoin="miter" fill="none" stroke="#000000" d="M1359 5143 926 5893 492.898 5643V5143Z"/>
<path transform="matrix(.1,0,0,-.1,0,792)" d="M1359 6143V6509L926 6759 676 6326 926 5893" fill="#7a801f"/>
<path transform="matrix(.1,0,0,-.1,0,792)" stroke-width="15" stroke-linecap="butt" stroke-miterlimit="10" stroke-linejoin="miter" fill="none" stroke="#000000" d="M1359 6143V6509L926 6759 676 6326 926 5893Z"/>
<path transform="matrix(.1,0,0,-.1,0,792)" d="M4591 2277 5024 2027 5457.1 2777H4591Z" fill="#7014e8"/>
<path transform="matrix(.1,0,0,-.1,0,792)" stroke-width="15" stroke-linecap="butt" stroke-miterlimit="10" stroke-linejoin="miter" fill="none" stroke="#000000" d="M4591 2277 5024 2027 5457.1 2777H4591Z"/>
<path transform="matrix(.1,0,0,-.1,0,792)" d="M4591 2777H5457.1L5024 3527 4591 3277Z" fill="#573845"/>
<path transform="matrix(.1,0,0,-.1,0,792)" stroke-width="15" stroke-linecap="butt" stroke-miterlimit="10" stroke-linejoin="miter" fill="none" stroke="#000000" d="M4591 2777H5457.1L5024 3527 4591 3277Z"/>
<path transform="matrix(.1,0,0,-.1,0,792)" d="M4591 4643 5024 4393 5457.1 5143H4591Z" fill="#573845"/>
<path transform="matrix(.1,0,0,-.1,0,792)" stroke-width="15" stroke-linecap="butt" stroke-miterlimit="10" stroke-linejoin="miter" fill="none" stroke="#000000" d="M4591 4643 5024 4393 5457.1 5143H4591Z"/>
<path transform="matrix(.1,0,0,-.1,0,792)" d="M4591 5143H5457.1L5024 5893 4591 5643Z" fill="#7014e8"/>
<path transform="matrix(.1,0,0,-.1,0,792)" stroke-width="15" stroke-linecap="butt" stroke-miterlimit="10" stroke-linejoin="miter" fill="none" stroke="#000000" d="M4591 5143H5457.1L5024 5893 4591 5643Z"/>
<path transform="matrix(.1,0,0,-.1,0,792)" d="M1359 6509V7509L926 6759" fill="#699eb5"/>
<path transform="matrix(.1,0,0,-.1,0,792)" stroke-width="15" stroke-linecap="butt" stroke-miterlimit="10" stroke-linejoin="miter" fill="none" stroke="#000000" d="M1359 6509V7509L926 6759Z"/>
<path transform="matrix(.1,0,0,-.1,0,792)" d="M1359 6509 1792 6759 1359 7509" fill="#0d26ad"/>
<path transform="matrix(.1,0,0,-.1,0,792)" stroke-width="15" stroke-linecap="butt" stroke-miterlimit="10" stroke-linejoin="miter" fill="none" stroke="#000000" d="M1359 6509 1792 6759 1359 7509Z"/>
<path transform="matrix(.1,0,0,-.1,0,792)" d="M1359 1777 926 2027 676 1594 926 1161 1359 1411" fill="#4a524f"/>
<path transform="matrix(.1,0,0,-.1,0,792)" stroke-width="15" stroke-linecap="butt" stroke-miterlimit="10" stroke-linejoin="miter" fill="none" stroke="#000000" d="M1359 1777 926 2027 676 1594 926 1161 1359 1411Z"/>
<path transform="matrix(.1,0,0,-.1,0,792)" d="M4774 3960 5024 3527 5457.1 3777V4143L5024 4393" fill="#e8ed08"/>
<path transform="matrix(.1,0,0,-.1,0,792)" stroke-width="15" stroke-linecap="butt" stroke-miterlimit="10" stroke-linejoin="miter" fill="none" stroke="#000000" d="M4774 3960 5024 3527 5457.1 3777V4143L5024 4393Z"/>
<path transform="matrix(.1,0,0,-.1,0,792)" d="M4774 6326 5024 5893 5457.1 6143V6509L5024 6759" fill="#7a801f"/>
<path transform="matrix(.1,0,0,-.1,0,792)" stroke-width="15" stroke-linecap="butt" stroke-miterlimit="10" stroke-linejoin="miter" fill="none" stroke="#000000" d="M4774 6326 5024 5893 5457.1 6143V6509L5024 6759Z"/>
<path transform="matrix(.1,0,0,-.1,0,792)" d="M1792 6759 2225 7009 1359 7509" fill="#699eb5"/>
<path transform="matrix(.1,0,0,-.1,0,792)" stroke-width="15" stroke-linecap="butt" stroke-miterlimit="10" stroke-linejoin="miter" fill="none" stroke="#000000" d="M1792 6759 2225 7009 1359 7509Z"/>
<path transform="matrix(.1,0,0,-.1,0,792)" d="M2542 6826 2975 7076 2725 7509H2225V7009" fill="#4a524f"/>
<path transform="matrix(.1,0,0,-.1,0,792)" stroke-width="15" stroke-linecap="butt" stroke-miterlimit="10" stroke-linejoin="miter" fill="none" stroke="#000000" d="M2542 6826 2975 7076 2725 7509H2225V7009Z"/>
<path transform="matrix(.1,0,0,-.1,0,792)" d="M2042 1594 1792 1161 2225 911 2542 1094V1594" fill="#4a524f"/>
<path transform="matrix(.1,0,0,-.1,0,792)" stroke-width="15" stroke-linecap="butt" stroke-miterlimit="10" stroke-linejoin="miter" fill="none" stroke="#000000" d="M2042 1594 1792 1161 2225 911 2542 1094V1594Z"/>
<path transform="matrix(.1,0,0,-.1,0,792)" d="M2542 1594V1094L2975 844 3408 1594Z" fill="#573845"/>
<path transform="matrix(.1,0,0,-.1,0,792)" stroke-width="15" stroke-linecap="butt" stroke-miterlimit="10" stroke-linejoin="miter" fill="none" stroke="#000000" d="M2542 1594V1094L2975 844 3408 1594Z"/>
<path transform="matrix(.1,0,0,-.1,0,792)" d="M3408 1594 3841 844 4274 1094V1594Z" fill="#573845"/>
<path transform="matrix(.1,0,0,-.1,0,792)" stroke-width="15" stroke-linecap="butt" stroke-miterlimit="10" stroke-linejoin="miter" fill="none" stroke="#000000" d="M3408 1594 3841 844 4274 1094V1594Z"/>
<path transform="matrix(.1,0,0,-.1,0,792)" d="M3408 1594 2975 844 3408 594 3841 844Z" fill="#7014e8"/>
<path transform="matrix(.1,0,0,-.1,0,792)" stroke-width="15" stroke-linecap="butt" stroke-miterlimit="10" stroke-linejoin="miter" fill="none" stroke="#000000" d="M3408 1594 2975 844 3408 594 3841 844Z"/>
<path transform="matrix(.1,0,0,-.1,0,792)" d="M4274 1594V1094L4591 911 5024 1161 4774 1594" fill="#7a801f"/>
<path transform="matrix(.1,0,0,-.1,0,792)" stroke-width="15" stroke-linecap="butt" stroke-miterlimit="10" stroke-linejoin="miter" fill="none" stroke="#000000" d="M4274 1594V1094L4591 911 5024 1161 4774 1594Z"/>
<path transform="matrix(.1,0,0,-.1,0,792)" d="M4774 1594 5024 1161 5457.1 1411V1777L5024 2027" fill="#4a524f"/>
<path transform="matrix(.1,0,0,-.1,0,792)" stroke-width="15" stroke-linecap="butt" stroke-miterlimit="10" stroke-linejoin="miter" fill="none" stroke="#000000" d="M4774 1594 5024 1161 5457.1 1411V1777L5024 2027Z"/>
<path transform="matrix(.1,0,0,-.1,0,792)" d="M4274 6826 4591 7009V7509H4091L3841 7076" fill="#7a801f"/>
<path transform="matrix(.1,0,0,-.1,0,792)" stroke-width="15" stroke-linecap="butt" stroke-miterlimit="10" stroke-linejoin="miter" fill="none" stroke="#000000" d="M4274 6826 4591 7009V7509H4091L3841 7076Z"/>
<path transform="matrix(.1,0,0,-.1,0,792)" d="M4591 7009 5457.1 7509H4591" fill="#699eb5"/>
<path transform="matrix(.1,0,0,-.1,0,792)" stroke-width="15" stroke-linecap="butt" stroke-miterlimit="10" stroke-linejoin="miter" fill="none" stroke="#000000" d="M4591 7009 5457.1 7509H4591Z"/>
<path transform="matrix(.1,0,0,-.1,0,792)" d="M4591 7009 5024 6759 5457.1 7509" fill="#0d26ad"/>
<path transform="matrix(.1,0,0,-.1,0,792)" stroke-width="15" stroke-linecap="butt" stroke-miterlimit="10" stroke-linejoin="miter" fill="none" stroke="#000000" d="M4591 7009 5024 6759 5457.1 7509Z"/>
<path transform="matrix(.1,0,0,-.1,0,792)" d="M2225 7009V7509H1359" fill="#0d26ad"/>
<path transform="matrix(.1,0,0,-.1,0,792)" stroke-width="15" stroke-linecap="butt" stroke-miterlimit="10" stroke-linejoin="miter" fill="none" stroke="#000000" d="M2225 7009V7509H1359Z"/>
<path transform="matrix(.1,0,0,-.1,0,792)" d="M1359 1411V411L1792 1161" fill="#699eb5"/>
<path transform="matrix(.1,0,0,-.1,0,792)" stroke-width="15" stroke-linecap="butt" stroke-miterlimit="10" stroke-linejoin="miter" fill="none" stroke="#000000" d="M1359 1411V411L1792 1161Z"/>
<path transform="matrix(.1,0,0,-.1,0,792)" d="M1359 1411 926 1161 1359 411" fill="#0d26ad"/>
<path transform="matrix(.1,0,0,-.1,0,792)" stroke-width="15" stroke-linecap="butt" stroke-miterlimit="10" stroke-linejoin="miter" fill="none" stroke="#000000" d="M1359 1411 926 1161 1359 411Z"/>
<path transform="matrix(.1,0,0,-.1,0,792)" d="M5024 2027 5457.1 1777 5890.1 2027 5457.1 2777Z" fill="#573845"/>
<path transform="matrix(.1,0,0,-.1,0,792)" stroke-width="15" stroke-linecap="butt" stroke-miterlimit="10" stroke-linejoin="miter" fill="none" stroke="#000000" d="M5024 2027 5457.1 1777 5890.1 2027 5457.1 2777Z"/>
<path transform="matrix(.1,0,0,-.1,0,792)" d="M5024 3527 5457.1 2777 5890.1 3527 5457.1 3777Z" fill="#7014e8"/>
<path transform="matrix(.1,0,0,-.1,0,792)" stroke-width="15" stroke-linecap="butt" stroke-miterlimit="10" stroke-linejoin="miter" fill="none" stroke="#000000" d="M5024 3527 5457.1 2777 5890.1 3527 5457.1 3777Z"/>
<path transform="matrix(.1,0,0,-.1,0,792)" d="M5024 4393 5457.1 4143 5890.1 4393 5457.1 5143Z" fill="#7014e8"/>
<path transform="matrix(.1,0,0,-.1,0,792)" stroke-width="15" stroke-linecap="butt" stroke-miterlimit="10" stroke-linejoin="miter" fill="none" stroke="#000000" d="M5024 4393 5457.1 4143 5890.1 4393 5457.1 5143Z"/>
<path transform="matrix(.1,0,0,-.1,0,792)" d="M5024 5893 5457.1 5143 5890.1 5893 5457.1 6143Z" fill="#573845"/>
<path transform="matrix(.1,0,0,-.1,0,792)" stroke-width="15" stroke-linecap="butt" stroke-miterlimit="10" stroke-linejoin="miter" fill="none" stroke="#000000" d="M5024 5893 5457.1 5143 5890.1 5893 5457.1 6143Z"/>
<path transform="matrix(.1,0,0,-.1,0,792)" d="M5024 6759 5457.1 6509V7509" fill="#699eb5"/>
<path transform="matrix(.1,0,0,-.1,0,792)" stroke-width="15" stroke-linecap="butt" stroke-miterlimit="10" stroke-linejoin="miter" fill="none" stroke="#000000" d="M5024 6759 5457.1 6509V7509Z"/>
<path transform="matrix(.1,0,0,-.1,0,792)" d="M926 6759 492.898 7009 176 6826V6326H676" fill="#4a524f"/>
<path transform="matrix(.1,0,0,-.1,0,792)" stroke-width="15" stroke-linecap="butt" stroke-miterlimit="10" stroke-linejoin="miter" fill="none" stroke="#000000" d="M926 6759 492.898 7009 176 6826V6326H676Z"/>
<path transform="matrix(.1,0,0,-.1,0,792)" d="M926 6759 1359 7509 492.898 7009" fill="#0d26ad"/>
<path transform="matrix(.1,0,0,-.1,0,792)" stroke-width="15" stroke-linecap="butt" stroke-miterlimit="10" stroke-linejoin="miter" fill="none" stroke="#000000" d="M926 6759 1359 7509 492.898 7009Z"/>
<path transform="matrix(.1,0,0,-.1,0,792)" d="M926 5893 676 6326H176V5826L492.898 5643" fill="#e8ed08"/>
<path transform="matrix(.1,0,0,-.1,0,792)" stroke-width="15" stroke-linecap="butt" stroke-miterlimit="10" stroke-linejoin="miter" fill="none" stroke="#000000" d="M926 5893 676 6326H176V5826L492.898 5643Z"/>
<path transform="matrix(.1,0,0,-.1,0,792)" d="M926 4393 492.898 4643 176 4460V3960H676" fill="#7a801f"/>
<path transform="matrix(.1,0,0,-.1,0,792)" stroke-width="15" stroke-linecap="butt" stroke-miterlimit="10" stroke-linejoin="miter" fill="none" stroke="#000000" d="M926 4393 492.898 4643 176 4460V3960H676Z"/>
<path transform="matrix(.1,0,0,-.1,0,792)" d="M926 3527 676 3960H176V3460L492.898 3277" fill="#4a524f"/>
<path transform="matrix(.1,0,0,-.1,0,792)" stroke-width="15" stroke-linecap="butt" stroke-miterlimit="10" stroke-linejoin="miter" fill="none" stroke="#000000" d="M926 3527 676 3960H176V3460L492.898 3277Z"/>
<path transform="matrix(.1,0,0,-.1,0,792)" d="M926 2027 492.898 2277 176 2094V1594H676" fill="#e8ed08"/>
<path transform="matrix(.1,0,0,-.1,0,792)" stroke-width="15" stroke-linecap="butt" stroke-miterlimit="10" stroke-linejoin="miter" fill="none" stroke="#000000" d="M926 2027 492.898 2277 176 2094V1594H676Z"/>
<path transform="matrix(.1,0,0,-.1,0,792)" d="M3841 7076 4091 7509 3841 7942.1 3408 7692.1V7326" fill="#e8ed08"/>
<path transform="matrix(.1,0,0,-.1,0,792)" stroke-width="15" stroke-linecap="butt" stroke-miterlimit="10" stroke-linejoin="miter" fill="none" stroke="#000000" d="M3841 7076 4091 7509 3841 7942.1 3408 7692.1V7326Z"/>
<path transform="matrix(.1,0,0,-.1,0,792)" d="M2975 7076 3408 7326V7692.1L2975 7942.1 2725 7509" fill="#e8ed08"/>
<path transform="matrix(.1,0,0,-.1,0,792)" stroke-width="15" stroke-linecap="butt" stroke-miterlimit="10" stroke-linejoin="miter" fill="none" stroke="#000000" d="M2975 7076 3408 7326V7692.1L2975 7942.1 2725 7509Z"/>
<path transform="matrix(.1,0,0,-.1,0,792)" d="M926 1161 492.898 911 1359 411" fill="#699eb5"/>
<path transform="matrix(.1,0,0,-.1,0,792)" stroke-width="15" stroke-linecap="butt" stroke-miterlimit="10" stroke-linejoin="miter" fill="none" stroke="#000000" d="M926 1161 492.898 911 1359 411Z"/>
<path transform="matrix(.1,0,0,-.1,0,792)" d="M926 1161 676 1594H176V1094L492.898 911" fill="#7a801f"/>
<path transform="matrix(.1,0,0,-.1,0,792)" stroke-width="15" stroke-linecap="butt" stroke-miterlimit="10" stroke-linejoin="miter" fill="none" stroke="#000000" d="M926 1161 676 1594H176V1094L492.898 911Z"/>
<path transform="matrix(.1,0,0,-.1,0,792)" d="M1792 1161 1359 411 2225 911" fill="#0d26ad"/>
<path transform="matrix(.1,0,0,-.1,0,792)" stroke-width="15" stroke-linecap="butt" stroke-miterlimit="10" stroke-linejoin="miter" fill="none" stroke="#000000" d="M1792 1161 1359 411 2225 911Z"/>
<path transform="matrix(.1,0,0,-.1,0,792)" d="M5024 1161 5457.1 411V1411" fill="#0d26ad"/>
<path transform="matrix(.1,0,0,-.1,0,792)" stroke-width="15" stroke-linecap="butt" stroke-miterlimit="10" stroke-linejoin="miter" fill="none" stroke="#000000" d="M5024 1161 5457.1 411V1411Z"/>
<path transform="matrix(.1,0,0,-.1,0,792)" d="M5024 1161 4591 911 5457.1 411" fill="#699eb5"/>
<path transform="matrix(.1,0,0,-.1,0,792)" stroke-width="15" stroke-linecap="butt" stroke-miterlimit="10" stroke-linejoin="miter" fill="none" stroke="#000000" d="M5024 1161 4591 911 5457.1 411Z"/>
<path transform="matrix(.1,0,0,-.1,0,792)" d="M4274 1094 3841 844 4091 411H4591V911" fill="#4a524f"/>
<path transform="matrix(.1,0,0,-.1,0,792)" stroke-width="15" stroke-linecap="butt" stroke-miterlimit="10" stroke-linejoin="miter" fill="none" stroke="#000000" d="M4274 1094 3841 844 4091 411H4591V911Z"/>
<path transform="matrix(.1,0,0,-.1,0,792)" d="M2542 1094 2225 911V411H2725L2975 844" fill="#7a801f"/>
<path transform="matrix(.1,0,0,-.1,0,792)" stroke-width="15" stroke-linecap="butt" stroke-miterlimit="10" stroke-linejoin="miter" fill="none" stroke="#000000" d="M2542 1094 2225 911V411H2725L2975 844Z"/>
<path transform="matrix(.1,0,0,-.1,0,792)" d="M2225 911 1359 411H2225" fill="#699eb5"/>
<path transform="matrix(.1,0,0,-.1,0,792)" stroke-width="15" stroke-linecap="butt" stroke-miterlimit="10" stroke-linejoin="miter" fill="none" stroke="#000000" d="M2225 911 1359 411H2225Z"/>
<path transform="matrix(.1,0,0,-.1,0,792)" d="M4591 911V411H5457.1" fill="#0d26ad"/>
<path transform="matrix(.1,0,0,-.1,0,792)" stroke-width="15" stroke-linecap="butt" stroke-miterlimit="10" stroke-linejoin="miter" fill="none" stroke="#000000" d="M4591 911V411H5457.1Z"/>
<path transform="matrix(.1,0,0,-.1,0,792)" d="M4591 7509V8009L4274 8192.1 3841 7942.1 4091 7509" fill="#4a524f"/>
<path transform="matrix(.1,0,0,-.1,0,792)" stroke-width="15" stroke-linecap="butt" stroke-miterlimit="10" stroke-linejoin="miter" fill="none" stroke="#000000" d="M4591 7509V8009L4274 8192.1 3841 7942.1 4091 7509Z"/>
<path transform="matrix(.1,0,0,-.1,0,792)" d="M4591 7509H5457.1L4591 8009" fill="#0d26ad"/>
<path transform="matrix(.1,0,0,-.1,0,792)" stroke-width="15" stroke-linecap="butt" stroke-miterlimit="10" stroke-linejoin="miter" fill="none" stroke="#000000" d="M4591 7509H5457.1L4591 8009Z"/>
<path transform="matrix(.1,0,0,-.1,0,792)" d="M2725 7509 2975 7942.1 2542 8192.1 2225 8009V7509" fill="#7a801f"/>
<path transform="matrix(.1,0,0,-.1,0,792)" stroke-width="15" stroke-linecap="butt" stroke-miterlimit="10" stroke-linejoin="miter" fill="none" stroke="#000000" d="M2725 7509 2975 7942.1 2542 8192.1 2225 8009V7509Z"/>
<path transform="matrix(.1,0,0,-.1,0,792)" d="M2225 7509V8009L1359 7509" fill="#699eb5"/>
<path transform="matrix(.1,0,0,-.1,0,792)" stroke-width="15" stroke-linecap="butt" stroke-miterlimit="10" stroke-linejoin="miter" fill="none" stroke="#000000" d="M2225 7509V8009L1359 7509Z"/>
<path transform="matrix(.1,0,0,-.1,0,792)" d="M1359 7509H492.898V7009" fill="#699eb5"/>
<path transform="matrix(.1,0,0,-.1,0,792)" stroke-width="15" stroke-linecap="butt" stroke-miterlimit="10" stroke-linejoin="miter" fill="none" stroke="#000000" d="M1359 7509H492.898V7009Z"/>
<path transform="matrix(.1,0,0,-.1,0,792)" d="M1359 7509 492.898 8009V7509" fill="#0d26ad"/>
<path transform="matrix(.1,0,0,-.1,0,792)" stroke-width="15" stroke-linecap="butt" stroke-miterlimit="10" stroke-linejoin="miter" fill="none" stroke="#000000" d="M1359 7509 492.898 8009V7509Z"/>
<path transform="matrix(.1,0,0,-.1,0,792)" d="M1359 7509 926 8259 492.898 8009" fill="#699eb5"/>
<path transform="matrix(.1,0,0,-.1,0,792)" stroke-width="15" stroke-linecap="butt" stroke-miterlimit="10" stroke-linejoin="miter" fill="none" stroke="#000000" d="M1359 7509 926 8259 492.898 8009Z"/>
<path transform="matrix(.1,0,0,-.1,0,792)" d="M1359 7509V8509L926 8259" fill="#0d26ad"/>
<path transform="matrix(.1,0,0,-.1,0,792)" stroke-width="15" stroke-linecap="butt" stroke-miterlimit="10" stroke-linejoin="miter" fill="none" stroke="#000000" d="M1359 7509V8509L926 8259Z"/>
<path transform="matrix(.1,0,0,-.1,0,792)" d="M1359 7509 1792 8259 1359 8509" fill="#699eb5"/>
<path transform="matrix(.1,0,0,-.1,0,792)" stroke-width="15" stroke-linecap="butt" stroke-miterlimit="10" stroke-linejoin="miter" fill="none" stroke="#000000" d="M1359 7509 1792 8259 1359 8509Z"/>
<path transform="matrix(.1,0,0,-.1,0,792)" d="M1359 7509 2225 8009 1792 8259" fill="#0d26ad"/>
<path transform="matrix(.1,0,0,-.1,0,792)" stroke-width="15" stroke-linecap="butt" stroke-miterlimit="10" stroke-linejoin="miter" fill="none" stroke="#000000" d="M1359 7509 2225 8009 1792 8259Z"/>
<path transform="matrix(.1,0,0,-.1,0,792)" d="M2975 844 2725 411 2975-22.1016 3408 227.898V594" fill="#e8ed08"/>
<path transform="matrix(.1,0,0,-.1,0,792)" stroke-width="15" stroke-linecap="butt" stroke-miterlimit="10" stroke-linejoin="miter" fill="none" stroke="#000000" d="M2975 844 2725 411 2975-22.1016 3408 227.898V594Z"/>
<path transform="matrix(.1,0,0,-.1,0,792)" d="M3841 844 3408 594V227.898L3841-22.1016 4091 411" fill="#e8ed08"/>
<path transform="matrix(.1,0,0,-.1,0,792)" stroke-width="15" stroke-linecap="butt" stroke-miterlimit="10" stroke-linejoin="miter" fill="none" stroke="#000000" d="M3841 844 3408 594V227.898L3841-22.1016 4091 411Z"/>
<path transform="matrix(.1,0,0,-.1,0,792)" d="M5457.1 1411 5890.1 1161 6140.1 1594 5890.1 2027 5457.1 1777" fill="#7a801f"/>
<path transform="matrix(.1,0,0,-.1,0,792)" stroke-width="15" stroke-linecap="butt" stroke-miterlimit="10" stroke-linejoin="miter" fill="none" stroke="#000000" d="M5457.1 1411 5890.1 1161 6140.1 1594 5890.1 2027 5457.1 1777Z"/>
<path transform="matrix(.1,0,0,-.1,0,792)" d="M5457.1 1411V411L5890.1 1161" fill="#699eb5"/>
<path transform="matrix(.1,0,0,-.1,0,792)" stroke-width="15" stroke-linecap="butt" stroke-miterlimit="10" stroke-linejoin="miter" fill="none" stroke="#000000" d="M5457.1 1411V411L5890.1 1161Z"/>
<path transform="matrix(.1,0,0,-.1,0,792)" d="M5457.1 2777H6323.1V3277L5890.1 3527Z" fill="#573845"/>
<path transform="matrix(.1,0,0,-.1,0,792)" stroke-width="15" stroke-linecap="butt" stroke-miterlimit="10" stroke-linejoin="miter" fill="none" stroke="#000000" d="M5457.1 2777H6323.1V3277L5890.1 3527Z"/>
<path transform="matrix(.1,0,0,-.1,0,792)" d="M5457.1 2777 5890.1 2027 6323.1 2277V2777Z" fill="#7014e8"/>
<path transform="matrix(.1,0,0,-.1,0,792)" stroke-width="15" stroke-linecap="butt" stroke-miterlimit="10" stroke-linejoin="miter" fill="none" stroke="#000000" d="M5457.1 2777 5890.1 2027 6323.1 2277V2777Z"/>
<path transform="matrix(.1,0,0,-.1,0,792)" d="M5457.1 3777 5890.1 3527 6140.1 3960 5890.1 4393 5457.1 4143" fill="#e8ed08"/>
<path transform="matrix(.1,0,0,-.1,0,792)" stroke-width="15" stroke-linecap="butt" stroke-miterlimit="10" stroke-linejoin="miter" fill="none" stroke="#000000" d="M5457.1 3777 5890.1 3527 6140.1 3960 5890.1 4393 5457.1 4143Z"/>
<path transform="matrix(.1,0,0,-.1,0,792)" d="M5457.1 5143H6323.1V5643L5890.1 5893Z" fill="#7014e8"/>
<path transform="matrix(.1,0,0,-.1,0,792)" stroke-width="15" stroke-linecap="butt" stroke-miterlimit="10" stroke-linejoin="miter" fill="none" stroke="#000000" d="M5457.1 5143H6323.1V5643L5890.1 5893Z"/>
<path transform="matrix(.1,0,0,-.1,0,792)" d="M5457.1 5143 5890.1 4393 6323.1 4643V5143Z" fill="#573845"/>
<path transform="matrix(.1,0,0,-.1,0,792)" stroke-width="15" stroke-linecap="butt" stroke-miterlimit="10" stroke-linejoin="miter" fill="none" stroke="#000000" d="M5457.1 5143 5890.1 4393 6323.1 4643V5143Z"/>
<path transform="matrix(.1,0,0,-.1,0,792)" d="M5457.1 6143 5890.1 5893 6140.1 6326 5890.1 6759 5457.1 6509" fill="#4a524f"/>
<path transform="matrix(.1,0,0,-.1,0,792)" stroke-width="15" stroke-linecap="butt" stroke-miterlimit="10" stroke-linejoin="miter" fill="none" stroke="#000000" d="M5457.1 6143 5890.1 5893 6140.1 6326 5890.1 6759 5457.1 6509Z"/>
<path transform="matrix(.1,0,0,-.1,0,792)" d="M5457.1 6509 5890.1 6759 5457.1 7509" fill="#0d26ad"/>
<path transform="matrix(.1,0,0,-.1,0,792)" stroke-width="15" stroke-linecap="butt" stroke-miterlimit="10" stroke-linejoin="miter" fill="none" stroke="#000000" d="M5457.1 6509 5890.1 6759 5457.1 7509Z"/>
<path transform="matrix(.1,0,0,-.1,0,792)" d="M5457.1 7509 5024 8259 4591 8009" fill="#699eb5"/>
<path transform="matrix(.1,0,0,-.1,0,792)" stroke-width="15" stroke-linecap="butt" stroke-miterlimit="10" stroke-linejoin="miter" fill="none" stroke="#000000" d="M5457.1 7509 5024 8259 4591 8009Z"/>
<path transform="matrix(.1,0,0,-.1,0,792)" d="M5457.1 7509V8509L5024 8259" fill="#0d26ad"/>
<path transform="matrix(.1,0,0,-.1,0,792)" stroke-width="15" stroke-linecap="butt" stroke-miterlimit="10" stroke-linejoin="miter" fill="none" stroke="#000000" d="M5457.1 7509V8509L5024 8259Z"/>
<path transform="matrix(.1,0,0,-.1,0,792)" d="M5457.1 7509 5890.1 8259 5457.1 8509" fill="#699eb5"/>
<path transform="matrix(.1,0,0,-.1,0,792)" stroke-width="15" stroke-linecap="butt" stroke-miterlimit="10" stroke-linejoin="miter" fill="none" stroke="#000000" d="M5457.1 7509 5890.1 8259 5457.1 8509Z"/>
<path transform="matrix(.1,0,0,-.1,0,792)" d="M5457.1 7509 6323.1 8009 5890.1 8259" fill="#0d26ad"/>
<path transform="matrix(.1,0,0,-.1,0,792)" stroke-width="15" stroke-linecap="butt" stroke-miterlimit="10" stroke-linejoin="miter" fill="none" stroke="#000000" d="M5457.1 7509 6323.1 8009 5890.1 8259Z"/>
<path transform="matrix(.1,0,0,-.1,0,792)" d="M5457.1 7509H6323.1V8009" fill="#699eb5"/>
<path transform="matrix(.1,0,0,-.1,0,792)" stroke-width="15" stroke-linecap="butt" stroke-miterlimit="10" stroke-linejoin="miter" fill="none" stroke="#000000" d="M5457.1 7509H6323.1V8009Z"/>
<path transform="matrix(.1,0,0,-.1,0,792)" d="M5457.1 7509 6323.1 7009V7509" fill="#0d26ad"/>
<path transform="matrix(.1,0,0,-.1,0,792)" stroke-width="15" stroke-linecap="butt" stroke-miterlimit="10" stroke-linejoin="miter" fill="none" stroke="#000000" d="M5457.1 7509 6323.1 7009V7509Z"/>
<path transform="matrix(.1,0,0,-.1,0,792)" d="M5457.1 7509 5890.1 6759 6323.1 7009" fill="#699eb5"/>
<path transform="matrix(.1,0,0,-.1,0,792)" stroke-width="15" stroke-linecap="butt" stroke-miterlimit="10" stroke-linejoin="miter" fill="none" stroke="#000000" d="M5457.1 7509 5890.1 6759 6323.1 7009Z"/>
<path transform="matrix(.1,0,0,-.1,0,792)" d="M492.898 7509H-7.10156L-257.102 7076 176 6826 492.898 7009" fill="#7a801f"/>
<path transform="matrix(.1,0,0,-.1,0,792)" stroke-width="15" stroke-linecap="butt" stroke-miterlimit="10" stroke-linejoin="miter" fill="none" stroke="#000000" d="M492.898 7509H-7.10156L-257.102 7076 176 6826 492.898 7009Z"/>
<path transform="matrix(.1,0,0,-.1,0,792)" d="M492.898 7509V8009L176 8192.1-257.102 7942.1-7.10156 7509" fill="#4a524f"/>
<path transform="matrix(.1,0,0,-.1,0,792)" stroke-width="15" stroke-linecap="butt" stroke-miterlimit="10" stroke-linejoin="miter" fill="none" stroke="#000000" d="M492.898 7509V8009L176 8192.1-257.102 7942.1-7.10156 7509Z"/>
<path transform="matrix(.1,0,0,-.1,0,792)" d="M492.898 5643 176 5826-257.102 5576-7.10156 5143H492.898" fill="#e8ed08"/>
<path transform="matrix(.1,0,0,-.1,0,792)" stroke-width="15" stroke-linecap="butt" stroke-miterlimit="10" stroke-linejoin="miter" fill="none" stroke="#000000" d="M492.898 5643 176 5826-257.102 5576-7.10156 5143H492.898Z"/>
<path transform="matrix(.1,0,0,-.1,0,792)" d="M492.898 5143H-7.10156L-257.102 4710 176 4460 492.898 4643" fill="#4a524f"/>
<path transform="matrix(.1,0,0,-.1,0,792)" stroke-width="15" stroke-linecap="butt" stroke-miterlimit="10" stroke-linejoin="miter" fill="none" stroke="#000000" d="M492.898 5143H-7.10156L-257.102 4710 176 4460 492.898 4643Z"/>
<path transform="matrix(.1,0,0,-.1,0,792)" d="M492.898 3277 176 3460-257.102 3210-7.10156 2777H492.898" fill="#7a801f"/>
<path transform="matrix(.1,0,0,-.1,0,792)" stroke-width="15" stroke-linecap="butt" stroke-miterlimit="10" stroke-linejoin="miter" fill="none" stroke="#000000" d="M492.898 3277 176 3460-257.102 3210-7.10156 2777H492.898Z"/>
<path transform="matrix(.1,0,0,-.1,0,792)" d="M492.898 2777H-7.10156L-257.102 2344 176 2094 492.898 2277" fill="#e8ed08"/>
<path transform="matrix(.1,0,0,-.1,0,792)" stroke-width="15" stroke-linecap="butt" stroke-miterlimit="10" stroke-linejoin="miter" fill="none" stroke="#000000" d="M492.898 2777H-7.10156L-257.102 2344 176 2094 492.898 2277Z"/>
<path transform="matrix(.1,0,0,-.1,0,792)" d="M492.898 911V411H1359" fill="#0d26ad"/>
<path transform="matrix(.1,0,0,-.1,0,792)" stroke-width="15" stroke-linecap="butt" stroke-miterlimit="10" stroke-linejoin="miter" fill="none" stroke="#000000" d="M492.898 911V411H1359Z"/>
<path transform="matrix(.1,0,0,-.1,0,792)" d="M492.898 911 176 1094-257.102 844-7.10156 411H492.898" fill="#4a524f"/>
<path transform="matrix(.1,0,0,-.1,0,792)" stroke-width="15" stroke-linecap="butt" stroke-miterlimit="10" stroke-linejoin="miter" fill="none" stroke="#000000" d="M492.898 911 176 1094-257.102 844-7.10156 411H492.898Z"/>
<path transform="matrix(.1,0,0,-.1,0,792)" d="M3408 7692.1 3841 7942.1 3408 8692.1 2975 7942.1Z" fill="#7014e8"/>
<path transform="matrix(.1,0,0,-.1,0,792)" stroke-width="15" stroke-linecap="butt" stroke-miterlimit="10" stroke-linejoin="miter" fill="none" stroke="#000000" d="M3408 7692.1 3841 7942.1 3408 8692.1 2975 7942.1Z"/>
<path transform="matrix(.1,0,0,-.1,0,792)" d="M492.898 411V-89L1359 411" fill="#699eb5"/>
<path transform="matrix(.1,0,0,-.1,0,792)" stroke-width="15" stroke-linecap="butt" stroke-miterlimit="10" stroke-linejoin="miter" fill="none" stroke="#000000" d="M492.898 411V-89L1359 411Z"/>
<path transform="matrix(.1,0,0,-.1,0,792)" d="M492.898 411H-7.10156L-257.102-22.1016 176-272.102 492.898-89" fill="#7a801f"/>
<path transform="matrix(.1,0,0,-.1,0,792)" stroke-width="15" stroke-linecap="butt" stroke-miterlimit="10" stroke-linejoin="miter" fill="none" stroke="#000000" d="M492.898 411H-7.10156L-257.102-22.1016 176-272.102 492.898-89Z"/>
<path transform="matrix(.1,0,0,-.1,0,792)" d="M1359 411 2225-89V411" fill="#0d26ad"/>
<path transform="matrix(.1,0,0,-.1,0,792)" stroke-width="15" stroke-linecap="butt" stroke-miterlimit="10" stroke-linejoin="miter" fill="none" stroke="#000000" d="M1359 411 2225-89V411Z"/>
<path transform="matrix(.1,0,0,-.1,0,792)" d="M1359 411 1792-339 2225-89" fill="#699eb5"/>
<path transform="matrix(.1,0,0,-.1,0,792)" stroke-width="15" stroke-linecap="butt" stroke-miterlimit="10" stroke-linejoin="miter" fill="none" stroke="#000000" d="M1359 411 1792-339 2225-89Z"/>
<path transform="matrix(.1,0,0,-.1,0,792)" d="M1359 411V-589L1792-339" fill="#0d26ad"/>
<path transform="matrix(.1,0,0,-.1,0,792)" stroke-width="15" stroke-linecap="butt" stroke-miterlimit="10" stroke-linejoin="miter" fill="none" stroke="#000000" d="M1359 411V-589L1792-339Z"/>
<path transform="matrix(.1,0,0,-.1,0,792)" d="M1359 411 926-339 1359-589" fill="#699eb5"/>
<path transform="matrix(.1,0,0,-.1,0,792)" stroke-width="15" stroke-linecap="butt" stroke-miterlimit="10" stroke-linejoin="miter" fill="none" stroke="#000000" d="M1359 411 926-339 1359-589Z"/>
<path transform="matrix(.1,0,0,-.1,0,792)" d="M1359 411 492.898-89 926-339" fill="#0d26ad"/>
<path transform="matrix(.1,0,0,-.1,0,792)" stroke-width="15" stroke-linecap="butt" stroke-miterlimit="10" stroke-linejoin="miter" fill="none" stroke="#000000" d="M1359 411 492.898-89 926-339Z"/>
<path transform="matrix(.1,0,0,-.1,0,792)" d="M2225 411V-89L2542-272.102 2975-22.1016 2725 411" fill="#4a524f"/>
<path transform="matrix(.1,0,0,-.1,0,792)" stroke-width="15" stroke-linecap="butt" stroke-miterlimit="10" stroke-linejoin="miter" fill="none" stroke="#000000" d="M2225 411V-89L2542-272.102 2975-22.1016 2725 411Z"/>
<path transform="matrix(.1,0,0,-.1,0,792)" d="M4091 411 3841-22.1016 4274-272.102 4591-89V411" fill="#7a801f"/>
<path transform="matrix(.1,0,0,-.1,0,792)" stroke-width="15" stroke-linecap="butt" stroke-miterlimit="10" stroke-linejoin="miter" fill="none" stroke="#000000" d="M4091 411 3841-22.1016 4274-272.102 4591-89V411Z"/>
<path transform="matrix(.1,0,0,-.1,0,792)" d="M4591 411V-89L5457.1 411" fill="#699eb5"/>
<path transform="matrix(.1,0,0,-.1,0,792)" stroke-width="15" stroke-linecap="butt" stroke-miterlimit="10" stroke-linejoin="miter" fill="none" stroke="#000000" d="M4591 411V-89L5457.1 411Z"/>
<path transform="matrix(.1,0,0,-.1,0,792)" d="M5457.1 411 6323.1 911 5890.1 1161" fill="#0d26ad"/>
<path transform="matrix(.1,0,0,-.1,0,792)" stroke-width="15" stroke-linecap="butt" stroke-miterlimit="10" stroke-linejoin="miter" fill="none" stroke="#000000" d="M5457.1 411 6323.1 911 5890.1 1161Z"/>
<path transform="matrix(.1,0,0,-.1,0,792)" d="M5457.1 411H6323.1V911" fill="#699eb5"/>
<path transform="matrix(.1,0,0,-.1,0,792)" stroke-width="15" stroke-linecap="butt" stroke-miterlimit="10" stroke-linejoin="miter" fill="none" stroke="#000000" d="M5457.1 411H6323.1V911Z"/>
<path transform="matrix(.1,0,0,-.1,0,792)" d="M5457.1 411 6323.1-89V411" fill="#0d26ad"/>
<path transform="matrix(.1,0,0,-.1,0,792)" stroke-width="15" stroke-linecap="butt" stroke-miterlimit="10" stroke-linejoin="miter" fill="none" stroke="#000000" d="M5457.1 411 6323.1-89V411Z"/>
<path transform="matrix(.1,0,0,-.1,0,792)" d="M5457.1 411 5890.1-339 6323.1-89" fill="#699eb5"/>
<path transform="matrix(.1,0,0,-.1,0,792)" stroke-width="15" stroke-linecap="butt" stroke-miterlimit="10" stroke-linejoin="miter" fill="none" stroke="#000000" d="M5457.1 411 5890.1-339 6323.1-89Z"/>
<path transform="matrix(.1,0,0,-.1,0,792)" d="M5457.1 411V-589L5890.1-339" fill="#0d26ad"/>
<path transform="matrix(.1,0,0,-.1,0,792)" stroke-width="15" stroke-linecap="butt" stroke-miterlimit="10" stroke-linejoin="miter" fill="none" stroke="#000000" d="M5457.1 411V-589L5890.1-339Z"/>
<path transform="matrix(.1,0,0,-.1,0,792)" d="M5457.1 411 5024-339 5457.1-589" fill="#699eb5"/>
<path transform="matrix(.1,0,0,-.1,0,792)" stroke-width="15" stroke-linecap="butt" stroke-miterlimit="10" stroke-linejoin="miter" fill="none" stroke="#000000" d="M5457.1 411 5024-339 5457.1-589Z"/>
<path transform="matrix(.1,0,0,-.1,0,792)" d="M5457.1 411 4591-89 5024-339" fill="#0d26ad"/>
<path transform="matrix(.1,0,0,-.1,0,792)" stroke-width="15" stroke-linecap="butt" stroke-miterlimit="10" stroke-linejoin="miter" fill="none" stroke="#000000" d="M5457.1 411 4591-89 5024-339Z"/>
<path transform="matrix(.1,0,0,-.1,0,792)" d="M176 6826-257.102 7076-690.102 6326H176Z" fill="#573845"/>
<path transform="matrix(.1,0,0,-.1,0,792)" stroke-width="15" stroke-linecap="butt" stroke-miterlimit="10" stroke-linejoin="miter" fill="none" stroke="#000000" d="M176 6826-257.102 7076-690.102 6326H176Z"/>
<path transform="matrix(.1,0,0,-.1,0,792)" d="M176 6326H-690.102L-257.102 5576 176 5826Z" fill="#7014e8"/>
<path transform="matrix(.1,0,0,-.1,0,792)" stroke-width="15" stroke-linecap="butt" stroke-miterlimit="10" stroke-linejoin="miter" fill="none" stroke="#000000" d="M176 6326H-690.102L-257.102 5576 176 5826Z"/>
<path transform="matrix(.1,0,0,-.1,0,792)" d="M176 4460-690.102 3960H176" fill="#699eb5"/>
<path transform="matrix(.1,0,0,-.1,0,792)" stroke-width="15" stroke-linecap="butt" stroke-miterlimit="10" stroke-linejoin="miter" fill="none" stroke="#000000" d="M176 4460-690.102 3960H176Z"/>
<path transform="matrix(.1,0,0,-.1,0,792)" d="M176 4460-257.102 4710-690.102 3960" fill="#0d26ad"/>
<path transform="matrix(.1,0,0,-.1,0,792)" stroke-width="15" stroke-linecap="butt" stroke-miterlimit="10" stroke-linejoin="miter" fill="none" stroke="#000000" d="M176 4460-257.102 4710-690.102 3960Z"/>
<path transform="matrix(.1,0,0,-.1,0,792)" d="M176 3960H-690.102L176 3460" fill="#0d26ad"/>
<path transform="matrix(.1,0,0,-.1,0,792)" stroke-width="15" stroke-linecap="butt" stroke-miterlimit="10" stroke-linejoin="miter" fill="none" stroke="#000000" d="M176 3960H-690.102L176 3460Z"/>
<path transform="matrix(.1,0,0,-.1,0,792)" d="M176 3460-690.102 3960-257.102 3210" fill="#699eb5"/>
<path transform="matrix(.1,0,0,-.1,0,792)" stroke-width="15" stroke-linecap="butt" stroke-miterlimit="10" stroke-linejoin="miter" fill="none" stroke="#000000" d="M176 3460-690.102 3960-257.102 3210Z"/>
<path transform="matrix(.1,0,0,-.1,0,792)" d="M176 2094-257.102 2344-690.102 1594H176Z" fill="#7014e8"/>
<path transform="matrix(.1,0,0,-.1,0,792)" stroke-width="15" stroke-linecap="butt" stroke-miterlimit="10" stroke-linejoin="miter" fill="none" stroke="#000000" d="M176 2094-257.102 2344-690.102 1594H176Z"/>
<path transform="matrix(.1,0,0,-.1,0,792)" d="M176 1594H-690.102L-257.102 844 176 1094Z" fill="#573845"/>
<path transform="matrix(.1,0,0,-.1,0,792)" stroke-width="15" stroke-linecap="butt" stroke-miterlimit="10" stroke-linejoin="miter" fill="none" stroke="#000000" d="M176 1594H-690.102L-257.102 844 176 1094Z"/>
<path transform="matrix(.1,0,0,-.1,0,792)" d="M3408 227.898 2975-22.1016 3408-772.102 3841-22.1016Z" fill="#7014e8"/>
<path transform="matrix(.1,0,0,-.1,0,792)" stroke-width="15" stroke-linecap="butt" stroke-miterlimit="10" stroke-linejoin="miter" fill="none" stroke="#000000" d="M3408 227.898 2975-22.1016 3408-772.102 3841-22.1016Z"/>
<path transform="matrix(.1,0,0,-.1,0,792)" d="M5890.1 1161 6323.1 911 6640.1 1094V1594H6140.1" fill="#4a524f"/>
<path transform="matrix(.1,0,0,-.1,0,792)" stroke-width="15" stroke-linecap="butt" stroke-miterlimit="10" stroke-linejoin="miter" fill="none" stroke="#000000" d="M5890.1 1161 6323.1 911 6640.1 1094V1594H6140.1Z"/>
<path transform="matrix(.1,0,0,-.1,0,792)" d="M5890.1 2027 6140.1 1594H6640.1V2094L6323.1 2277" fill="#e8ed08"/>
<path transform="matrix(.1,0,0,-.1,0,792)" stroke-width="15" stroke-linecap="butt" stroke-miterlimit="10" stroke-linejoin="miter" fill="none" stroke="#000000" d="M5890.1 2027 6140.1 1594H6640.1V2094L6323.1 2277Z"/>
<path transform="matrix(.1,0,0,-.1,0,792)" d="M5890.1 3527 6323.1 3277 6640.1 3460V3960H6140.1" fill="#7a801f"/>
<path transform="matrix(.1,0,0,-.1,0,792)" stroke-width="15" stroke-linecap="butt" stroke-miterlimit="10" stroke-linejoin="miter" fill="none" stroke="#000000" d="M5890.1 3527 6323.1 3277 6640.1 3460V3960H6140.1Z"/>
<path transform="matrix(.1,0,0,-.1,0,792)" d="M5890.1 4393 6140.1 3960H6640.1V4460L6323.1 4643" fill="#4a524f"/>
<path transform="matrix(.1,0,0,-.1,0,792)" stroke-width="15" stroke-linecap="butt" stroke-miterlimit="10" stroke-linejoin="miter" fill="none" stroke="#000000" d="M5890.1 4393 6140.1 3960H6640.1V4460L6323.1 4643Z"/>
<path transform="matrix(.1,0,0,-.1,0,792)" d="M5890.1 5893 6323.1 5643 6640.1 5826V6326H6140.1" fill="#e8ed08"/>
<path transform="matrix(.1,0,0,-.1,0,792)" stroke-width="15" stroke-linecap="butt" stroke-miterlimit="10" stroke-linejoin="miter" fill="none" stroke="#000000" d="M5890.1 5893 6323.1 5643 6640.1 5826V6326H6140.1Z"/>
<path transform="matrix(.1,0,0,-.1,0,792)" d="M5890.1 6759 6140.1 6326H6640.1V6826L6323.1 7009" fill="#7a801f"/>
<path transform="matrix(.1,0,0,-.1,0,792)" stroke-width="15" stroke-linecap="butt" stroke-miterlimit="10" stroke-linejoin="miter" fill="none" stroke="#000000" d="M5890.1 6759 6140.1 6326H6640.1V6826L6323.1 7009Z"/>
<path transform="matrix(.1,0,0,-.1,0,792)" stroke-width="15" stroke-linecap="butt" stroke-miterlimit="10" stroke-linejoin="miter" fill="none" stroke="#000000" d="M-7.10156 7509-257.102 7942.1-690.102 7692.1V7326L-257.102 7076Z"/>
<path transform="matrix(.1,0,0,-.1,0,792)" stroke-width="15" stroke-linecap="butt" stroke-miterlimit="10" stroke-linejoin="miter" fill="none" stroke="#000000" d="M-7.10156 5143-257.102 5576-690.102 5326V4960L-257.102 4710Z"/>
<path transform="matrix(.1,0,0,-.1,0,792)" stroke-width="15" stroke-linecap="butt" stroke-miterlimit="10" stroke-linejoin="miter" fill="none" stroke="#000000" d="M-7.10156 2777-257.102 3210-690.102 2960V2594L-257.102 2344Z"/>
<path transform="matrix(.1,0,0,-.1,0,792)" stroke-width="15" stroke-linecap="butt" stroke-miterlimit="10" stroke-linejoin="miter" fill="none" stroke="#000000" d="M-7.10156 411-257.102 844-690.102 594V227.898L-257.102-22.1016Z"/>
</svg>
