<svg xmlns="http://www.w3.org/2000/svg" xmlns:xlink="http://www.w3.org/1999/xlink" xmlns:inkscape="http://www.inkscape.org/namespaces/inkscape" version="1.1" width="612" height="792" viewBox="0 0 612 792">
<path transform="matrix(.1,0,0,-.1,0,792)" d="M3815 4210 3465 4816.2H2765L2415 4210 2765 3603.8H3465" fill="#242bc9"/>
<path transform="matrix(.1,0,0,-.1,0,792)" stroke-width="15" stroke-linecap="butt" stroke-miterlimit="10" stroke-linejoin="miter" fill="none" stroke="#000000" d="M3815 4210 3465 4816.2H2765L2415 4210 2765 3603.8H3465Z"/>
<path transform="matrix(.1,0,0,-.1,0,792)" d="M2765 3603.8 2065 2391.3 2415 1785.1H3815L4165 2391.3 3465 3603.8" fill="#59e199"/>
<path transform="matrix(.1,0,0,-.1,0,792)" stroke-width="15" stroke-linecap="butt" stroke-miterlimit="10" stroke-linejoin="miter" fill="none" stroke="#000000" d="M2765 3603.8 2065 2391.3 2415 1785.1H3815L4165 2391.3 3465 3603.8Z"/>
<path transform="matrix(.1,0,0,-.1,0,792)" d="M2765 3603.8 2415 4210H1015L665 3603.8 1365 2391.3H2065" fill="#d90357"/>
<path transform="matrix(.1,0,0,-.1,0,792)" stroke-width="15" stroke-linecap="butt" stroke-miterlimit="10" stroke-linejoin="miter" fill="none" stroke="#000000" d="M2765 3603.8 2415 4210H1015L665 3603.8 1365 2391.3H2065Z"/>
<path transform="matrix(.1,0,0,-.1,0,792)" d="M2765 4816.2 2065 6028.7H1365L665 4816.2 1015 4210H2415" fill="#59e199"/>
<path transform="matrix(.1,0,0,-.1,0,792)" stroke-width="15" stroke-linecap="butt" stroke-miterlimit="10" stroke-linejoin="miter" fill="none" stroke="#000000" d="M2765 4816.2 2065 6028.7H1365L665 4816.2 1015 4210H2415Z"/>
<path transform="matrix(.1,0,0,-.1,0,792)" d="M2765 4816.2H3465L4165 6028.7 3815 6634.9H2415L2065 6028.7" fill="#d90357"/>
<path transform="matrix(.1,0,0,-.1,0,792)" stroke-width="15" stroke-linecap="butt" stroke-miterlimit="10" stroke-linejoin="miter" fill="none" stroke="#000000" d="M2765 4816.2H3465L4165 6028.7 3815 6634.9H2415L2065 6028.7Z"/>
<path transform="matrix(.1,0,0,-.1,0,792)" d="M3465 4816.2 3815 4210H5215L5565 4816.2 4865 6028.7H4165" fill="#59e199"/>
<path transform="matrix(.1,0,0,-.1,0,792)" stroke-width="15" stroke-linecap="butt" stroke-miterlimit="10" stroke-linejoin="miter" fill="none" stroke="#000000" d="M3465 4816.2 3815 4210H5215L5565 4816.2 4865 6028.7H4165Z"/>
<path transform="matrix(.1,0,0,-.1,0,792)" d="M3465 3603.8 4165 2391.3H4865L5565 3603.8 5215 4210H3815" fill="#d90357"/>
<path transform="matrix(.1,0,0,-.1,0,792)" stroke-width="15" stroke-linecap="butt" stroke-miterlimit="10" stroke-linejoin="miter" fill="none" stroke="#000000" d="M3465 3603.8 4165 2391.3H4865L5565 3603.8 5215 4210H3815Z"/>
<path transform="matrix(.1,0,0,-.1,0,792)" d="M4165 2391.3 3815 1785.1 4165 1178.9H4865L5215 1785.1 4865 2391.3" fill="#242bc9"/>
<path transform="matrix(.1,0,0,-.1,0,792)" stroke-width="15" stroke-linecap="butt" stroke-miterlimit="10" stroke-linejoin="miter" fill="none" stroke="#000000" d="M4165 2391.3 3815 1785.1 4165 1178.9H4865L5215 1785.1 4865 2391.3Z"/>
<path transform="matrix(.1,0,0,-.1,0,792)" d="M4165 6028.7H4865L5215 6634.9 4865 7241.1H4165L3815 6634.9" fill="#242bc9"/>
<path transform="matrix(.1,0,0,-.1,0,792)" stroke-width="15" stroke-linecap="butt" stroke-miterlimit="10" stroke-linejoin="miter" fill="none" stroke="#000000" d="M4165 6028.7H4865L5215 6634.9 4865 7241.1H4165L3815 6634.9Z"/>
<path transform="matrix(.1,0,0,-.1,0,792)" d="M2065 6028.7 2415 6634.9 2065 7241.1H1365L1015 6634.9 1365 6028.7" fill="#242bc9"/>
<path transform="matrix(.1,0,0,-.1,0,792)" stroke-width="15" stroke-linecap="butt" stroke-miterlimit="10" stroke-linejoin="miter" fill="none" stroke="#000000" d="M2065 6028.7 2415 6634.9 2065 7241.1H1365L1015 6634.9 1365 6028.7Z"/>
<path transform="matrix(.1,0,0,-.1,0,792)" d="M2065 2391.3H1365L1015 1785.1 1365 1178.9H2065L2415 1785.1" fill="#242bc9"/>
<path transform="matrix(.1,0,0,-.1,0,792)" stroke-width="15" stroke-linecap="butt" stroke-miterlimit="10" stroke-linejoin="miter" fill="none" stroke="#000000" d="M2065 2391.3H1365L1015 1785.1 1365 1178.9H2065L2415 1785.1Z"/>
<path transform="matrix(.1,0,0,-.1,0,792)" d="M1365 2391.3 665 3603.8H-35L-735 2391.3-385 1785.1H1015" fill="#59e199"/>
<path transform="matrix(.1,0,0,-.1,0,792)" stroke-width="15" stroke-linecap="butt" stroke-miterlimit="10" stroke-linejoin="miter" fill="none" stroke="#000000" d="M1365 2391.3 665 3603.8H-35L-735 2391.3-385 1785.1H1015Z"/>
<path transform="matrix(.1,0,0,-.1,0,792)" d="M1365 6028.7 1015 6634.9H-385L-735 6028.7-35 4816.2H665" fill="#d90357"/>
<path transform="matrix(.1,0,0,-.1,0,792)" stroke-width="15" stroke-linecap="butt" stroke-miterlimit="10" stroke-linejoin="miter" fill="none" stroke="#000000" d="M1365 6028.7 1015 6634.9H-385L-735 6028.7-35 4816.2H665Z"/>
<path transform="matrix(.1,0,0,-.1,0,792)" d="M2415 1785.1 2065 1178.9 2765-33.5H3465L4165 1178.9 3815 1785.1" fill="#d90357"/>
<path transform="matrix(.1,0,0,-.1,0,792)" stroke-width="15" stroke-linecap="butt" stroke-miterlimit="10" stroke-linejoin="miter" fill="none" stroke="#000000" d="M2415 1785.1 2065 1178.9 2765-33.5H3465L4165 1178.9 3815 1785.1Z"/>
<path transform="matrix(.1,0,0,-.1,0,792)" d="M3815 6634.9 4165 7241.1 3465 8453.5H2765L2065 7241.1 2415 6634.9" fill="#59e199"/>
<path transform="matrix(.1,0,0,-.1,0,792)" stroke-width="15" stroke-linecap="butt" stroke-miterlimit="10" stroke-linejoin="miter" fill="none" stroke="#000000" d="M3815 6634.9 4165 7241.1 3465 8453.5H2765L2065 7241.1 2415 6634.9Z"/>
<path transform="matrix(.1,0,0,-.1,0,792)" d="M4865 2391.3 5215 1785.1H6615L6965 2391.3 6265 3603.8H5565" fill="#59e199"/>
<path transform="matrix(.1,0,0,-.1,0,792)" stroke-width="15" stroke-linecap="butt" stroke-miterlimit="10" stroke-linejoin="miter" fill="none" stroke="#000000" d="M4865 2391.3 5215 1785.1H6615L6965 2391.3 6265 3603.8H5565Z"/>
<path transform="matrix(.1,0,0,-.1,0,792)" d="M4865 6028.7 5565 4816.2H6265L6965 6028.7 6615 6634.9H5215" fill="#d90357"/>
<path transform="matrix(.1,0,0,-.1,0,792)" stroke-width="15" stroke-linecap="butt" stroke-miterlimit="10" stroke-linejoin="miter" fill="none" stroke="#000000" d="M4865 6028.7 5565 4816.2H6265L6965 6028.7 6615 6634.9H5215Z"/>
<path transform="matrix(.1,0,0,-.1,0,792)" d="M1015 6634.9 1365 7241.1 665 8453.5H-35L-735 7241.1-385 6634.9" fill="#59e199"/>
<path transform="matrix(.1,0,0,-.1,0,792)" stroke-width="15" stroke-linecap="butt" stroke-miterlimit="10" stroke-linejoin="miter" fill="none" stroke="#000000" d="M1015 6634.9 1365 7241.1 665 8453.5H-35L-735 7241.1-385 6634.9Z"/>
<path transform="matrix(.1,0,0,-.1,0,792)" d="M1015 4210 665 4816.2H-35L-385 4210-35 3603.8H665" fill="#242bc9"/>
<path transform="matrix(.1,0,0,-.1,0,792)" stroke-width="15" stroke-linecap="butt" stroke-miterlimit="10" stroke-linejoin="miter" fill="none" stroke="#000000" d="M1015 4210 665 4816.2H-35L-385 4210-35 3603.8H665Z"/>
<path transform="matrix(.1,0,0,-.1,0,792)" d="M1015 1785.1H-385L-735 1178.9-35-33.5H665L1365 1178.9" fill="#d90357"/>
<path transform="matrix(.1,0,0,-.1,0,792)" stroke-width="15" stroke-linecap="butt" stroke-miterlimit="10" stroke-linejoin="miter" fill="none" stroke="#000000" d="M1015 1785.1H-385L-735 1178.9-35-33.5H665L1365 1178.9Z"/>
<path transform="matrix(.1,0,0,-.1,0,792)" d="M1365 1178.9 665-33.5 1015-639.699H2415L2765-33.5 2065 1178.9" fill="#59e199"/>
<path transform="matrix(.1,0,0,-.1,0,792)" stroke-width="15" stroke-linecap="butt" stroke-miterlimit="10" stroke-linejoin="miter" fill="none" stroke="#000000" d="M1365 1178.9 665-33.5 1015-639.699H2415L2765-33.5 2065 1178.9Z"/>
<path transform="matrix(.1,0,0,-.1,0,792)" d="M4165 1178.9 3465-33.5 3815-639.699H5215L5565-33.5 4865 1178.9" fill="#59e199"/>
<path transform="matrix(.1,0,0,-.1,0,792)" stroke-width="15" stroke-linecap="butt" stroke-miterlimit="10" stroke-linejoin="miter" fill="none" stroke="#000000" d="M4165 1178.9 3465-33.5 3815-639.699H5215L5565-33.5 4865 1178.9Z"/>
<path transform="matrix(.1,0,0,-.1,0,792)" d="M4865 1178.9 5565-33.5H6265L6965 1178.9 6615 1785.1H5215" fill="#d90357"/>
<path transform="matrix(.1,0,0,-.1,0,792)" stroke-width="15" stroke-linecap="butt" stroke-miterlimit="10" stroke-linejoin="miter" fill="none" stroke="#000000" d="M4865 1178.9 5565-33.5H6265L6965 1178.9 6615 1785.1H5215Z"/>
<path transform="matrix(.1,0,0,-.1,0,792)" d="M4865 7241.1 5565 8453.5 5215 9059.7H3815L3465 8453.5 4165 7241.1" fill="#d90357"/>
<path transform="matrix(.1,0,0,-.1,0,792)" stroke-width="15" stroke-linecap="butt" stroke-miterlimit="10" stroke-linejoin="miter" fill="none" stroke="#000000" d="M4865 7241.1 5565 8453.5 5215 9059.7H3815L3465 8453.5 4165 7241.1Z"/>
<path transform="matrix(.1,0,0,-.1,0,792)" d="M4865 7241.1 5215 6634.9H6615L6965 7241.1 6265 8453.5H5565" fill="#59e199"/>
<path transform="matrix(.1,0,0,-.1,0,792)" stroke-width="15" stroke-linecap="butt" stroke-miterlimit="10" stroke-linejoin="miter" fill="none" stroke="#000000" d="M4865 7241.1 5215 6634.9H6615L6965 7241.1 6265 8453.5H5565Z"/>
<path transform="matrix(.1,0,0,-.1,0,792)" d="M2065 7241.1 2765 8453.5 2415 9059.7H1015L665 8453.5 1365 7241.1" fill="#d90357"/>
<path transform="matrix(.1,0,0,-.1,0,792)" stroke-width="15" stroke-linecap="butt" stroke-miterlimit="10" stroke-linejoin="miter" fill="none" stroke="#000000" d="M2065 7241.1 2765 8453.5 2415 9059.7H1015L665 8453.5 1365 7241.1Z"/>
<path transform="matrix(.1,0,0,-.1,0,792)" d="M5215 4210 5565 3603.8H6265L6615 4210 6265 4816.2H5565" fill="#242bc9"/>
<path transform="matrix(.1,0,0,-.1,0,792)" stroke-width="15" stroke-linecap="butt" stroke-miterlimit="10" stroke-linejoin="miter" fill="none" stroke="#000000" d="M5215 4210 5565 3603.8H6265L6615 4210 6265 4816.2H5565Z"/>
</svg>
