<svg xmlns="http://www.w3.org/2000/svg" xmlns:xlink="http://www.w3.org/1999/xlink" xmlns:inkscape="http://www.inkscape.org/namespaces/inkscape" version="1.1" width="612" height="792" viewBox="0 0 612 792">
<path transform="matrix(.1,0,0,-.1,0,792)" d="M3446.2 4210 3479.5 4140.9 3446.2 4210 3297.7 4518.3 2964.1 4594.5 3024.1 4642.3 2964.1 4594.5 2696.5 4381.1V4038.9L2964.1 3825.5 2889.3 3808.5 2964.1 3825.5 3297.7 3901.7" fill="#f8c499"/>
<path transform="matrix(.1,0,0,-.1,0,792)" stroke-width="12" stroke-linecap="butt" stroke-miterlimit="10" stroke-linejoin="miter" fill="none" stroke="#000000" d="M3446.2 4210 3479.5 4140.9 3446.2 4210 3297.7 4518.3 2964.1 4594.5 3024.1 4642.3 2964.1 4594.5 2696.5 4381.1V4038.9L2964.1 3825.5 2889.3 3808.5 2964.1 3825.5 3297.7 3901.7Z"/>
<path transform="matrix(.1,0,0,-.1,0,792)" d="M3084.1 3729.8 3009.3 3712.8 3084.1 3729.8 3322 3540.1V3082.3L3084.1 2892.6 3024.1 2844.7 3084.1 2892.6 3380.7 2824.9 3512.8 2550.7 3546.1 2481.6 3512.8 2550.7 3644.8 2824.9 3941.5 2892.6 4016.3 2909.7 3941.5 2892.6 3703.6 3082.3V3540.1L3941.5 3729.8 4001.5 3777.7 3941.5 3729.8 3644.8 3797.5 3512.8 4071.7 3479.5 4140.9 3512.8 4071.7 3380.7 3797.5" fill="#823d24"/>
<path transform="matrix(.1,0,0,-.1,0,792)" stroke-width="12" stroke-linecap="butt" stroke-miterlimit="10" stroke-linejoin="miter" fill="none" stroke="#000000" d="M3084.1 3729.8 3009.3 3712.8 3084.1 3729.8 3322 3540.1V3082.3L3084.1 2892.6 3024.1 2844.7 3084.1 2892.6 3380.7 2824.9 3512.8 2550.7 3546.1 2481.6 3512.8 2550.7 3644.8 2824.9 3941.5 2892.6 4016.3 2909.7 3941.5 2892.6 3703.6 3082.3V3540.1L3941.5 3729.8 4001.5 3777.7 3941.5 3729.8 3644.8 3797.5 3512.8 4071.7 3479.5 4140.9 3512.8 4071.7 3380.7 3797.5Z"/>
<path transform="matrix(.1,0,0,-.1,0,792)" d="M2934.4 3695.7 3009.3 3712.8 2934.4 3695.7 2600.8 3619.5 2452.3 3311.2 2419 3380.4 2452.3 3311.2 2600.8 3002.9 2934.4 2926.7 2874.4 2878.9 2934.4 2926.7 3202 3140.1V3482.3" fill="#f8c499"/>
<path transform="matrix(.1,0,0,-.1,0,792)" stroke-width="12" stroke-linecap="butt" stroke-miterlimit="10" stroke-linejoin="miter" fill="none" stroke="#000000" d="M2934.4 3695.7 3009.3 3712.8 2934.4 3695.7 2600.8 3619.5 2452.3 3311.2 2419 3380.4 2452.3 3311.2 2600.8 3002.9 2934.4 2926.7 2874.4 2878.9 2934.4 2926.7 3202 3140.1V3482.3Z"/>
<path transform="matrix(.1,0,0,-.1,0,792)" d="M2814.4 3791.4 2889.3 3808.5 2814.4 3791.4 2576.5 3981.1V4438.9L2814.4 4628.6 2874.4 4676.5 2814.4 4628.6 2517.8 4696.3 2385.7 4970.5 2352.4 5039.6 2385.7 4970.5 2253.7 4696.3 1957 4628.6 1882.2 4611.5 1957 4628.6 2194.9 4438.9V3981.1L1957 3791.4 1897 3743.5 1957 3791.4 2253.7 3723.7 2385.7 3449.5 2419 3380.4 2385.7 3449.5 2517.8 3723.7" fill="#823d24"/>
<path transform="matrix(.1,0,0,-.1,0,792)" stroke-width="12" stroke-linecap="butt" stroke-miterlimit="10" stroke-linejoin="miter" fill="none" stroke="#000000" d="M2814.4 3791.4 2889.3 3808.5 2814.4 3791.4 2576.5 3981.1V4438.9L2814.4 4628.6 2874.4 4676.5 2814.4 4628.6 2517.8 4696.3 2385.7 4970.5 2352.4 5039.6 2385.7 4970.5 2253.7 4696.3 1957 4628.6 1882.2 4611.5 1957 4628.6 2194.9 4438.9V3981.1L1957 3791.4 1897 3743.5 1957 3791.4 2253.7 3723.7 2385.7 3449.5 2419 3380.4 2385.7 3449.5 2517.8 3723.7Z"/>
<path transform="matrix(.1,0,0,-.1,0,792)" d="M2934.4 4724.3 2874.4 4676.5 2934.4 4724.3 3202 4937.7V5279.9L2934.4 5493.3 3009.3 5510.3 2934.4 5493.3 2600.8 5417.1 2452.3 5108.8 2419 5177.9 2452.3 5108.8 2600.8 4800.5" fill="#f8c499"/>
<path transform="matrix(.1,0,0,-.1,0,792)" stroke-width="12" stroke-linecap="butt" stroke-miterlimit="10" stroke-linejoin="miter" fill="none" stroke="#000000" d="M2934.4 4724.3 2874.4 4676.5 2934.4 4724.3 3202 4937.7V5279.9L2934.4 5493.3 3009.3 5510.3 2934.4 5493.3 2600.8 5417.1 2452.3 5108.8 2419 5177.9 2452.3 5108.8 2600.8 4800.5Z"/>
<path transform="matrix(.1,0,0,-.1,0,792)" d="M3084.1 4690.2 3024.1 4642.3 3084.1 4690.2 3380.7 4622.5 3512.8 4348.3 3546.1 4279.1 3512.8 4348.3 3644.8 4622.5 3941.5 4690.2 4016.3 4707.2 3941.5 4690.2 3703.6 4879.9V5337.7L3941.5 5527.4 4001.5 5575.3 3941.5 5527.4 3644.8 5595.1 3512.8 5869.3 3479.5 5938.4 3512.8 5869.3 3380.7 5595.1 3084.1 5527.4 3009.3 5510.3 3084.1 5527.4 3322 5337.7V4879.9" fill="#823d24"/>
<path transform="matrix(.1,0,0,-.1,0,792)" stroke-width="12" stroke-linecap="butt" stroke-miterlimit="10" stroke-linejoin="miter" fill="none" stroke="#000000" d="M3084.1 4690.2 3024.1 4642.3 3084.1 4690.2 3380.7 4622.5 3512.8 4348.3 3546.1 4279.1 3512.8 4348.3 3644.8 4622.5 3941.5 4690.2 4016.3 4707.2 3941.5 4690.2 3703.6 4879.9V5337.7L3941.5 5527.4 4001.5 5575.3 3941.5 5527.4 3644.8 5595.1 3512.8 5869.3 3479.5 5938.4 3512.8 5869.3 3380.7 5595.1 3084.1 5527.4 3009.3 5510.3 3084.1 5527.4 3322 5337.7V4879.9Z"/>
<path transform="matrix(.1,0,0,-.1,0,792)" d="M3579.4 4210 3546.1 4279.1 3579.4 4210 3727.9 3901.7 4061.5 3825.5 4001.5 3777.7 4061.5 3825.5 4329 4038.9V4381.1L4061.5 4594.5 4136.3 4611.5 4061.5 4594.5 3727.9 4518.3" fill="#f8c499"/>
<path transform="matrix(.1,0,0,-.1,0,792)" stroke-width="12" stroke-linecap="butt" stroke-miterlimit="10" stroke-linejoin="miter" fill="none" stroke="#000000" d="M3579.4 4210 3546.1 4279.1 3579.4 4210 3727.9 3901.7 4061.5 3825.5 4001.5 3777.7 4061.5 3825.5 4329 4038.9V4381.1L4061.5 4594.5 4136.3 4611.5 4061.5 4594.5 3727.9 4518.3Z"/>
<path transform="matrix(.1,0,0,-.1,0,792)" d="M2319.1 5108.8 2352.4 5039.6 2319.1 5108.8 2170.7 5417.1 1837 5493.3 1897 5541.1 1837 5493.3 1569.5 5279.9V4937.7L1837 4724.3 1762.2 4707.2 1837 4724.3 2170.7 4800.5" fill="#f8c499"/>
<path transform="matrix(.1,0,0,-.1,0,792)" stroke-width="12" stroke-linecap="butt" stroke-miterlimit="10" stroke-linejoin="miter" fill="none" stroke="#000000" d="M2319.1 5108.8 2352.4 5039.6 2319.1 5108.8 2170.7 5417.1 1837 5493.3 1897 5541.1 1837 5493.3 1569.5 5279.9V4937.7L1837 4724.3 1762.2 4707.2 1837 4724.3 2170.7 4800.5Z"/>
<path transform="matrix(.1,0,0,-.1,0,792)" d="M2385.7 5247.1 2419 5177.9 2385.7 5247.1 2517.8 5521.2 2814.4 5589 2889.3 5606 2814.4 5589 2576.5 5778.7V6236.5L2814.4 6426.2 2874.4 6474.1 2814.4 6426.2 2517.8 6493.9 2385.7 6768.1 2352.4 6837.2 2385.7 6768.1 2253.7 6493.9 1957 6426.2 1882.2 6409.1 1957 6426.2 2194.9 6236.5V5778.7L1957 5589 1897 5541.1 1957 5589 2253.7 5521.2" fill="#823d24"/>
<path transform="matrix(.1,0,0,-.1,0,792)" stroke-width="12" stroke-linecap="butt" stroke-miterlimit="10" stroke-linejoin="miter" fill="none" stroke="#000000" d="M2385.7 5247.1 2419 5177.9 2385.7 5247.1 2517.8 5521.2 2814.4 5589 2889.3 5606 2814.4 5589 2576.5 5778.7V6236.5L2814.4 6426.2 2874.4 6474.1 2814.4 6426.2 2517.8 6493.9 2385.7 6768.1 2352.4 6837.2 2385.7 6768.1 2253.7 6493.9 1957 6426.2 1882.2 6409.1 1957 6426.2 2194.9 6236.5V5778.7L1957 5589 1897 5541.1 1957 5589 2253.7 5521.2Z"/>
<path transform="matrix(.1,0,0,-.1,0,792)" d="M2385.7 3172.9 2352.4 3242.1 2385.7 3172.9 2253.7 2898.8 1957 2831 1882.2 2814 1957 2831 2194.9 2641.3V2183.5L1957 1993.8 1897 1945.9 1957 1993.8 2253.7 1926.1 2385.7 1651.9 2419 1582.8 2385.7 1651.9 2517.8 1926.1 2814.4 1993.8 2889.3 2010.9 2814.4 1993.8 2576.5 2183.5V2641.3L2814.4 2831 2874.4 2878.9 2814.4 2831 2517.8 2898.8" fill="#823d24"/>
<path transform="matrix(.1,0,0,-.1,0,792)" stroke-width="12" stroke-linecap="butt" stroke-miterlimit="10" stroke-linejoin="miter" fill="none" stroke="#000000" d="M2385.7 3172.9 2352.4 3242.1 2385.7 3172.9 2253.7 2898.8 1957 2831 1882.2 2814 1957 2831 2194.9 2641.3V2183.5L1957 1993.8 1897 1945.9 1957 1993.8 2253.7 1926.1 2385.7 1651.9 2419 1582.8 2385.7 1651.9 2517.8 1926.1 2814.4 1993.8 2889.3 2010.9 2814.4 1993.8 2576.5 2183.5V2641.3L2814.4 2831 2874.4 2878.9 2814.4 2831 2517.8 2898.8Z"/>
<path transform="matrix(.1,0,0,-.1,0,792)" d="M2319.1 3311.2 2352.4 3242.1 2319.1 3311.2 2170.7 3619.5 1837 3695.7 1897 3743.5 1837 3695.7 1569.5 3482.3V3140.1L1837 2926.7 1762.2 2909.7 1837 2926.7 2170.7 3002.9" fill="#f8c499"/>
<path transform="matrix(.1,0,0,-.1,0,792)" stroke-width="12" stroke-linecap="butt" stroke-miterlimit="10" stroke-linejoin="miter" fill="none" stroke="#000000" d="M2319.1 3311.2 2352.4 3242.1 2319.1 3311.2 2170.7 3619.5 1837 3695.7 1897 3743.5 1837 3695.7 1569.5 3482.3V3140.1L1837 2926.7 1762.2 2909.7 1837 2926.7 2170.7 3002.9Z"/>
<path transform="matrix(.1,0,0,-.1,0,792)" d="M3823.6 3482.3V3140.1L4091.1 2926.7 4016.3 2909.7 4091.1 2926.7 4424.8 3002.9 4573.2 3311.2 4606.5 3242.1 4573.2 3311.2 4424.8 3619.5 4091.1 3695.7 4151.1 3743.5 4091.1 3695.7" fill="#f8c499"/>
<path transform="matrix(.1,0,0,-.1,0,792)" stroke-width="12" stroke-linecap="butt" stroke-miterlimit="10" stroke-linejoin="miter" fill="none" stroke="#000000" d="M3823.6 3482.3V3140.1L4091.1 2926.7 4016.3 2909.7 4091.1 2926.7 4424.8 3002.9 4573.2 3311.2 4606.5 3242.1 4573.2 3311.2 4424.8 3619.5 4091.1 3695.7 4151.1 3743.5 4091.1 3695.7Z"/>
<path transform="matrix(.1,0,0,-.1,0,792)" d="M3823.6 4937.7 4091.1 4724.3 4016.3 4707.2 4091.1 4724.3 4424.8 4800.5 4573.2 5108.8 4606.5 5039.6 4573.2 5108.8 4424.8 5417.1 4091.1 5493.3 4151.1 5541.1 4091.1 5493.3 3823.6 5279.9" fill="#f8c499"/>
<path transform="matrix(.1,0,0,-.1,0,792)" stroke-width="12" stroke-linecap="butt" stroke-miterlimit="10" stroke-linejoin="miter" fill="none" stroke="#000000" d="M3823.6 4937.7 4091.1 4724.3 4016.3 4707.2 4091.1 4724.3 4424.8 4800.5 4573.2 5108.8 4606.5 5039.6 4573.2 5108.8 4424.8 5417.1 4091.1 5493.3 4151.1 5541.1 4091.1 5493.3 3823.6 5279.9Z"/>
<path transform="matrix(.1,0,0,-.1,0,792)" d="M2074.9 4381.1 1807.4 4594.5 1882.2 4611.5 1807.4 4594.5 1473.8 4518.3 1325.3 4210 1292 4279.1 1325.3 4210 1473.8 3901.7 1807.4 3825.5 1747.4 3777.7 1807.4 3825.5 2074.9 4038.9" fill="#f8c499"/>
<path transform="matrix(.1,0,0,-.1,0,792)" stroke-width="12" stroke-linecap="butt" stroke-miterlimit="10" stroke-linejoin="miter" fill="none" stroke="#000000" d="M2074.9 4381.1 1807.4 4594.5 1882.2 4611.5 1807.4 4594.5 1473.8 4518.3 1325.3 4210 1292 4279.1 1325.3 4210 1473.8 3901.7 1807.4 3825.5 1747.4 3777.7 1807.4 3825.5 2074.9 4038.9Z"/>
<path transform="matrix(.1,0,0,-.1,0,792)" d="M2964.1 2796.9 3024.1 2844.7 2964.1 2796.9 2696.5 2583.5V2241.3L2964.1 2027.9 2889.3 2010.9 2964.1 2027.9 3297.7 2104.1 3446.2 2412.4 3479.5 2343.3 3446.2 2412.4 3297.7 2720.7" fill="#f8c499"/>
<path transform="matrix(.1,0,0,-.1,0,792)" stroke-width="12" stroke-linecap="butt" stroke-miterlimit="10" stroke-linejoin="miter" fill="none" stroke="#000000" d="M2964.1 2796.9 3024.1 2844.7 2964.1 2796.9 2696.5 2583.5V2241.3L2964.1 2027.9 2889.3 2010.9 2964.1 2027.9 3297.7 2104.1 3446.2 2412.4 3479.5 2343.3 3446.2 2412.4 3297.7 2720.7Z"/>
<path transform="matrix(.1,0,0,-.1,0,792)" d="M2964.1 5623.1 2889.3 5606 2964.1 5623.1 3297.7 5699.3 3446.2 6007.6 3479.5 5938.4 3446.2 6007.6 3297.7 6315.9 2964.1 6392.1 3024.1 6439.9 2964.1 6392.1 2696.5 6178.7V5836.5" fill="#f8c499"/>
<path transform="matrix(.1,0,0,-.1,0,792)" stroke-width="12" stroke-linecap="butt" stroke-miterlimit="10" stroke-linejoin="miter" fill="none" stroke="#000000" d="M2964.1 5623.1 2889.3 5606 2964.1 5623.1 3297.7 5699.3 3446.2 6007.6 3479.5 5938.4 3446.2 6007.6 3297.7 6315.9 2964.1 6392.1 3024.1 6439.9 2964.1 6392.1 2696.5 6178.7V5836.5Z"/>
<path transform="matrix(.1,0,0,-.1,0,792)" d="M3727.9 5699.3 4061.5 5623.1 4001.5 5575.3 4061.5 5623.1 4329 5836.5V6178.7L4061.5 6392.1 4136.3 6409.1 4061.5 6392.1 3727.9 6315.9 3579.4 6007.6 3546.1 6076.7 3579.4 6007.6" fill="#f8c499"/>
<path transform="matrix(.1,0,0,-.1,0,792)" stroke-width="12" stroke-linecap="butt" stroke-miterlimit="10" stroke-linejoin="miter" fill="none" stroke="#000000" d="M3727.9 5699.3 4061.5 5623.1 4001.5 5575.3 4061.5 5623.1 4329 5836.5V6178.7L4061.5 6392.1 4136.3 6409.1 4061.5 6392.1 3727.9 6315.9 3579.4 6007.6 3546.1 6076.7 3579.4 6007.6Z"/>
<path transform="matrix(.1,0,0,-.1,0,792)" d="M3727.9 2720.7 3579.4 2412.4 3546.1 2481.6 3579.4 2412.4 3727.9 2104.1 4061.5 2027.9 4001.5 1980.1 4061.5 2027.9 4329 2241.3V2583.5L4061.5 2796.9 4136.3 2814 4061.5 2796.9" fill="#f8c499"/>
<path transform="matrix(.1,0,0,-.1,0,792)" stroke-width="12" stroke-linecap="butt" stroke-miterlimit="10" stroke-linejoin="miter" fill="none" stroke="#000000" d="M3727.9 2720.7 3579.4 2412.4 3546.1 2481.6 3579.4 2412.4 3727.9 2104.1 4061.5 2027.9 4001.5 1980.1 4061.5 2027.9 4329 2241.3V2583.5L4061.5 2796.9 4136.3 2814 4061.5 2796.9Z"/>
<path transform="matrix(.1,0,0,-.1,0,792)" d="M4211.1 2831 4136.3 2814 4211.1 2831 4449 2641.3V2183.5L4211.1 1993.8 4151.1 1945.9 4211.1 1993.8 4507.8 1926.1 4639.8 1651.9 4673.1 1582.8 4639.8 1651.9 4771.9 1926.1 5068.5 1993.8 5143.4 2010.9 5068.5 1993.8 4830.6 2183.5V2641.3L5068.5 2831 5128.5 2878.9 5068.5 2831 4771.9 2898.8 4639.8 3172.9 4606.5 3242.1 4639.8 3172.9 4507.8 2898.8" fill="#823d24"/>
<path transform="matrix(.1,0,0,-.1,0,792)" stroke-width="12" stroke-linecap="butt" stroke-miterlimit="10" stroke-linejoin="miter" fill="none" stroke="#000000" d="M4211.1 2831 4136.3 2814 4211.1 2831 4449 2641.3V2183.5L4211.1 1993.8 4151.1 1945.9 4211.1 1993.8 4507.8 1926.1 4639.8 1651.9 4673.1 1582.8 4639.8 1651.9 4771.9 1926.1 5068.5 1993.8 5143.4 2010.9 5068.5 1993.8 4830.6 2183.5V2641.3L5068.5 2831 5128.5 2878.9 5068.5 2831 4771.9 2898.8 4639.8 3172.9 4606.5 3242.1 4639.8 3172.9 4507.8 2898.8Z"/>
<path transform="matrix(.1,0,0,-.1,0,792)" d="M4211.1 3791.4 4151.1 3743.5 4211.1 3791.4 4507.8 3723.7 4639.8 3449.5 4673.1 3380.4 4639.8 3449.5 4771.9 3723.7 5068.5 3791.4 5143.4 3808.5 5068.5 3791.4 4830.6 3981.1V4438.9L5068.5 4628.6 5128.5 4676.5 5068.5 4628.6 4771.9 4696.3 4639.8 4970.5 4606.5 5039.6 4639.8 4970.5 4507.8 4696.3 4211.1 4628.6 4136.3 4611.5 4211.1 4628.6 4449 4438.9V3981.1" fill="#823d24"/>
<path transform="matrix(.1,0,0,-.1,0,792)" stroke-width="12" stroke-linecap="butt" stroke-miterlimit="10" stroke-linejoin="miter" fill="none" stroke="#000000" d="M4211.1 3791.4 4151.1 3743.5 4211.1 3791.4 4507.8 3723.7 4639.8 3449.5 4673.1 3380.4 4639.8 3449.5 4771.9 3723.7 5068.5 3791.4 5143.4 3808.5 5068.5 3791.4 4830.6 3981.1V4438.9L5068.5 4628.6 5128.5 4676.5 5068.5 4628.6 4771.9 4696.3 4639.8 4970.5 4606.5 5039.6 4639.8 4970.5 4507.8 4696.3 4211.1 4628.6 4136.3 4611.5 4211.1 4628.6 4449 4438.9V3981.1Z"/>
<path transform="matrix(.1,0,0,-.1,0,792)" d="M4211.1 5589 4151.1 5541.1 4211.1 5589 4507.8 5521.2 4639.8 5247.1 4673.1 5177.9 4639.8 5247.1 4771.9 5521.2 5068.5 5589 5143.4 5606 5068.5 5589 4830.6 5778.7V6236.5L5068.5 6426.2 5128.5 6474.1 5068.5 6426.2 4771.9 6493.9 4639.8 6768.1 4606.5 6837.2 4639.8 6768.1 4507.8 6493.9 4211.1 6426.2 4136.3 6409.1 4211.1 6426.2 4449 6236.5V5778.7" fill="#823d24"/>
<path transform="matrix(.1,0,0,-.1,0,792)" stroke-width="12" stroke-linecap="butt" stroke-miterlimit="10" stroke-linejoin="miter" fill="none" stroke="#000000" d="M4211.1 5589 4151.1 5541.1 4211.1 5589 4507.8 5521.2 4639.8 5247.1 4673.1 5177.9 4639.8 5247.1 4771.9 5521.2 5068.5 5589 5143.4 5606 5068.5 5589 4830.6 5778.7V6236.5L5068.5 6426.2 5128.5 6474.1 5068.5 6426.2 4771.9 6493.9 4639.8 6768.1 4606.5 6837.2 4639.8 6768.1 4507.8 6493.9 4211.1 6426.2 4136.3 6409.1 4211.1 6426.2 4449 6236.5V5778.7Z"/>
<path transform="matrix(.1,0,0,-.1,0,792)" d="M1687.4 5527.4 1747.4 5575.3 1687.4 5527.4 1390.7 5595.1 1258.7 5869.3 1225.4 5938.4 1258.7 5869.3 1126.6 5595.1 830 5527.4 755.199 5510.3 830 5527.4 1067.9 5337.7V4879.9L830 4690.2 770 4642.3 830 4690.2 1126.6 4622.5 1258.7 4348.3 1292 4279.1 1258.7 4348.3 1390.7 4622.5 1687.4 4690.2 1762.2 4707.2 1687.4 4690.2 1449.5 4879.9V5337.7" fill="#823d24"/>
<path transform="matrix(.1,0,0,-.1,0,792)" stroke-width="12" stroke-linecap="butt" stroke-miterlimit="10" stroke-linejoin="miter" fill="none" stroke="#000000" d="M1687.4 5527.4 1747.4 5575.3 1687.4 5527.4 1390.7 5595.1 1258.7 5869.3 1225.4 5938.4 1258.7 5869.3 1126.6 5595.1 830 5527.4 755.199 5510.3 830 5527.4 1067.9 5337.7V4879.9L830 4690.2 770 4642.3 830 4690.2 1126.6 4622.5 1258.7 4348.3 1292 4279.1 1258.7 4348.3 1390.7 4622.5 1687.4 4690.2 1762.2 4707.2 1687.4 4690.2 1449.5 4879.9V5337.7Z"/>
<path transform="matrix(.1,0,0,-.1,0,792)" d="M1807.4 5623.1 1747.4 5575.3 1807.4 5623.1 2074.9 5836.5V6178.7L1807.4 6392.1 1882.2 6409.1 1807.4 6392.1 1473.8 6315.9 1325.3 6007.6 1292 6076.7 1325.3 6007.6 1473.8 5699.3" fill="#f8c499"/>
<path transform="matrix(.1,0,0,-.1,0,792)" stroke-width="12" stroke-linecap="butt" stroke-miterlimit="10" stroke-linejoin="miter" fill="none" stroke="#000000" d="M1807.4 5623.1 1747.4 5575.3 1807.4 5623.1 2074.9 5836.5V6178.7L1807.4 6392.1 1882.2 6409.1 1807.4 6392.1 1473.8 6315.9 1325.3 6007.6 1292 6076.7 1325.3 6007.6 1473.8 5699.3Z"/>
<path transform="matrix(.1,0,0,-.1,0,792)" d="M1687.4 3729.8 1747.4 3777.7 1687.4 3729.8 1390.7 3797.5 1258.7 4071.7 1225.4 4140.9 1258.7 4071.7 1126.6 3797.5 830 3729.8 755.199 3712.8 830 3729.8 1067.9 3540.1V3082.3L830 2892.6 770 2844.7 830 2892.6 1126.6 2824.9 1258.7 2550.7 1292 2481.6 1258.7 2550.7 1390.7 2824.9 1687.4 2892.6 1762.2 2909.7 1687.4 2892.6 1449.5 3082.3V3540.1" fill="#823d24"/>
<path transform="matrix(.1,0,0,-.1,0,792)" stroke-width="12" stroke-linecap="butt" stroke-miterlimit="10" stroke-linejoin="miter" fill="none" stroke="#000000" d="M1687.4 3729.8 1747.4 3777.7 1687.4 3729.8 1390.7 3797.5 1258.7 4071.7 1225.4 4140.9 1258.7 4071.7 1126.6 3797.5 830 3729.8 755.199 3712.8 830 3729.8 1067.9 3540.1V3082.3L830 2892.6 770 2844.7 830 2892.6 1126.6 2824.9 1258.7 2550.7 1292 2481.6 1258.7 2550.7 1390.7 2824.9 1687.4 2892.6 1762.2 2909.7 1687.4 2892.6 1449.5 3082.3V3540.1Z"/>
<path transform="matrix(.1,0,0,-.1,0,792)" d="M1807.4 2796.9 1882.2 2814 1807.4 2796.9 1473.8 2720.7 1325.3 2412.4 1292 2481.6 1325.3 2412.4 1473.8 2104.1 1807.4 2027.9 1747.4 1980.1 1807.4 2027.9 2074.9 2241.3V2583.5" fill="#f8c499"/>
<path transform="matrix(.1,0,0,-.1,0,792)" stroke-width="12" stroke-linecap="butt" stroke-miterlimit="10" stroke-linejoin="miter" fill="none" stroke="#000000" d="M1807.4 2796.9 1882.2 2814 1807.4 2796.9 1473.8 2720.7 1325.3 2412.4 1292 2481.6 1325.3 2412.4 1473.8 2104.1 1807.4 2027.9 1747.4 1980.1 1807.4 2027.9 2074.9 2241.3V2583.5Z"/>
<path transform="matrix(.1,0,0,-.1,0,792)" d="M3512.8 2274.1 3479.5 2343.3 3512.8 2274.1 3380.7 2000 3084.1 1932.2 3009.3 1915.2 3084.1 1932.2 3322 1742.5V1284.7L3084.1 1095 3024.1 1047.2 3084.1 1095 3380.7 1027.3 3512.8 753.102 3546.1 684 3512.8 753.102 3644.8 1027.3 3941.5 1095 4016.3 1112.1 3941.5 1095 3703.6 1284.7V1742.5L3941.5 1932.2 4001.5 1980.1 3941.5 1932.2 3644.8 2000" fill="#823d24"/>
<path transform="matrix(.1,0,0,-.1,0,792)" stroke-width="12" stroke-linecap="butt" stroke-miterlimit="10" stroke-linejoin="miter" fill="none" stroke="#000000" d="M3512.8 2274.1 3479.5 2343.3 3512.8 2274.1 3380.7 2000 3084.1 1932.2 3009.3 1915.2 3084.1 1932.2 3322 1742.5V1284.7L3084.1 1095 3024.1 1047.2 3084.1 1095 3380.7 1027.3 3512.8 753.102 3546.1 684 3512.8 753.102 3644.8 1027.3 3941.5 1095 4016.3 1112.1 3941.5 1095 3703.6 1284.7V1742.5L3941.5 1932.2 4001.5 1980.1 3941.5 1932.2 3644.8 2000Z"/>
<path transform="matrix(.1,0,0,-.1,0,792)" d="M3512.8 6145.9 3546.1 6076.7 3512.8 6145.9 3644.8 6420 3941.5 6487.8 4016.3 6504.8 3941.5 6487.8 3703.6 6677.5V7135.3L3941.5 7325 4001.5 7372.8 3941.5 7325 3644.8 7392.7 3512.8 7666.9 3479.5 7736 3512.8 7666.9 3380.7 7392.7 3084.1 7325 3009.3 7307.9 3084.1 7325 3322 7135.3V6677.5L3084.1 6487.8 3024.1 6439.9 3084.1 6487.8 3380.7 6420" fill="#823d24"/>
<path transform="matrix(.1,0,0,-.1,0,792)" stroke-width="12" stroke-linecap="butt" stroke-miterlimit="10" stroke-linejoin="miter" fill="none" stroke="#000000" d="M3512.8 6145.9 3546.1 6076.7 3512.8 6145.9 3644.8 6420 3941.5 6487.8 4016.3 6504.8 3941.5 6487.8 3703.6 6677.5V7135.3L3941.5 7325 4001.5 7372.8 3941.5 7325 3644.8 7392.7 3512.8 7666.9 3479.5 7736 3512.8 7666.9 3380.7 7392.7 3084.1 7325 3009.3 7307.9 3084.1 7325 3322 7135.3V6677.5L3084.1 6487.8 3024.1 6439.9 3084.1 6487.8 3380.7 6420Z"/>
<path transform="matrix(.1,0,0,-.1,0,792)" d="M1390.7 6420 1687.4 6487.8 1762.2 6504.8 1687.4 6487.8 1449.5 6677.5V7135.3L1687.4 7325 1747.4 7372.8 1687.4 7325 1390.7 7392.7 1258.7 7666.9 1225.4 7736 1258.7 7666.9 1126.6 7392.7 830 7325 755.199 7307.9 830 7325 1067.9 7135.3V6677.5L830 6487.8 770 6439.9 830 6487.8 1126.6 6420 1258.7 6145.9 1292 6076.7 1258.7 6145.9" fill="#823d24"/>
<path transform="matrix(.1,0,0,-.1,0,792)" stroke-width="12" stroke-linecap="butt" stroke-miterlimit="10" stroke-linejoin="miter" fill="none" stroke="#000000" d="M1390.7 6420 1687.4 6487.8 1762.2 6504.8 1687.4 6487.8 1449.5 6677.5V7135.3L1687.4 7325 1747.4 7372.8 1687.4 7325 1390.7 7392.7 1258.7 7666.9 1225.4 7736 1258.7 7666.9 1126.6 7392.7 830 7325 755.199 7307.9 830 7325 1067.9 7135.3V6677.5L830 6487.8 770 6439.9 830 6487.8 1126.6 6420 1258.7 6145.9 1292 6076.7 1258.7 6145.9Z"/>
<path transform="matrix(.1,0,0,-.1,0,792)" d="M1390.7 2000 1258.7 2274.1 1225.4 2343.3 1258.7 2274.1 1126.6 2000 830 1932.2 755.199 1915.2 830 1932.2 1067.9 1742.5V1284.7L830 1095 770 1047.2 830 1095 1126.6 1027.3 1258.7 753.102 1292 684 1258.7 753.102 1390.7 1027.3 1687.4 1095 1762.2 1112.1 1687.4 1095 1449.5 1284.7V1742.5L1687.4 1932.2 1747.4 1980.1 1687.4 1932.2" fill="#823d24"/>
<path transform="matrix(.1,0,0,-.1,0,792)" stroke-width="12" stroke-linecap="butt" stroke-miterlimit="10" stroke-linejoin="miter" fill="none" stroke="#000000" d="M1390.7 2000 1258.7 2274.1 1225.4 2343.3 1258.7 2274.1 1126.6 2000 830 1932.2 755.199 1915.2 830 1932.2 1067.9 1742.5V1284.7L830 1095 770 1047.2 830 1095 1126.6 1027.3 1258.7 753.102 1292 684 1258.7 753.102 1390.7 1027.3 1687.4 1095 1762.2 1112.1 1687.4 1095 1449.5 1284.7V1742.5L1687.4 1932.2 1747.4 1980.1 1687.4 1932.2Z"/>
<path transform="matrix(.1,0,0,-.1,0,792)" d="M1837 1898.1 1897 1945.9 1837 1898.1 1569.5 1684.7V1342.5L1837 1129.2 1762.2 1112.1 1837 1129.2 2170.7 1205.3 2319.1 1513.6 2352.4 1444.5 2319.1 1513.6 2170.7 1821.9" fill="#f8c499"/>
<path transform="matrix(.1,0,0,-.1,0,792)" stroke-width="12" stroke-linecap="butt" stroke-miterlimit="10" stroke-linejoin="miter" fill="none" stroke="#000000" d="M1837 1898.1 1897 1945.9 1837 1898.1 1569.5 1684.7V1342.5L1837 1129.2 1762.2 1112.1 1837 1129.2 2170.7 1205.3 2319.1 1513.6 2352.4 1444.5 2319.1 1513.6 2170.7 1821.9Z"/>
<path transform="matrix(.1,0,0,-.1,0,792)" d="M2934.4 1898.1 3009.3 1915.2 2934.4 1898.1 2600.8 1821.9 2452.3 1513.6 2419 1582.8 2452.3 1513.6 2600.8 1205.3 2934.4 1129.2 2874.4 1081.3 2934.4 1129.2 3202 1342.5V1684.7" fill="#f8c499"/>
<path transform="matrix(.1,0,0,-.1,0,792)" stroke-width="12" stroke-linecap="butt" stroke-miterlimit="10" stroke-linejoin="miter" fill="none" stroke="#000000" d="M2934.4 1898.1 3009.3 1915.2 2934.4 1898.1 2600.8 1821.9 2452.3 1513.6 2419 1582.8 2452.3 1513.6 2600.8 1205.3 2934.4 1129.2 2874.4 1081.3 2934.4 1129.2 3202 1342.5V1684.7Z"/>
<path transform="matrix(.1,0,0,-.1,0,792)" d="M4091.1 1898.1 4151.1 1945.9 4091.1 1898.1 3823.6 1684.7V1342.5L4091.1 1129.2 4016.3 1112.1 4091.1 1129.2 4424.8 1205.3 4573.2 1513.6 4606.5 1444.5 4573.2 1513.6 4424.8 1821.9" fill="#f8c499"/>
<path transform="matrix(.1,0,0,-.1,0,792)" stroke-width="12" stroke-linecap="butt" stroke-miterlimit="10" stroke-linejoin="miter" fill="none" stroke="#000000" d="M4091.1 1898.1 4151.1 1945.9 4091.1 1898.1 3823.6 1684.7V1342.5L4091.1 1129.2 4016.3 1112.1 4091.1 1129.2 4424.8 1205.3 4573.2 1513.6 4606.5 1444.5 4573.2 1513.6 4424.8 1821.9Z"/>
<path transform="matrix(.1,0,0,-.1,0,792)" d="M4091.1 6521.9 4016.3 6504.8 4091.1 6521.9 4424.8 6598.1 4573.2 6906.4 4606.5 6837.2 4573.2 6906.4 4424.8 7214.7 4091.1 7290.8 4151.1 7338.7 4091.1 7290.8 3823.6 7077.5V6735.3" fill="#f8c499"/>
<path transform="matrix(.1,0,0,-.1,0,792)" stroke-width="12" stroke-linecap="butt" stroke-miterlimit="10" stroke-linejoin="miter" fill="none" stroke="#000000" d="M4091.1 6521.9 4016.3 6504.8 4091.1 6521.9 4424.8 6598.1 4573.2 6906.4 4606.5 6837.2 4573.2 6906.4 4424.8 7214.7 4091.1 7290.8 4151.1 7338.7 4091.1 7290.8 3823.6 7077.5V6735.3Z"/>
<path transform="matrix(.1,0,0,-.1,0,792)" d="M2934.4 6521.9 2874.4 6474.1 2934.4 6521.9 3202 6735.3V7077.5L2934.4 7290.8 3009.3 7307.9 2934.4 7290.8 2600.8 7214.7 2452.3 6906.4 2419 6975.5 2452.3 6906.4 2600.8 6598.1" fill="#f8c499"/>
<path transform="matrix(.1,0,0,-.1,0,792)" stroke-width="12" stroke-linecap="butt" stroke-miterlimit="10" stroke-linejoin="miter" fill="none" stroke="#000000" d="M2934.4 6521.9 2874.4 6474.1 2934.4 6521.9 3202 6735.3V7077.5L2934.4 7290.8 3009.3 7307.9 2934.4 7290.8 2600.8 7214.7 2452.3 6906.4 2419 6975.5 2452.3 6906.4 2600.8 6598.1Z"/>
<path transform="matrix(.1,0,0,-.1,0,792)" d="M1837 6521.9 1762.2 6504.8 1837 6521.9 2170.7 6598.1 2319.1 6906.4 2352.4 6837.2 2319.1 6906.4 2170.7 7214.7 1837 7290.8 1897 7338.7 1837 7290.8 1569.5 7077.5V6735.3" fill="#f8c499"/>
<path transform="matrix(.1,0,0,-.1,0,792)" stroke-width="12" stroke-linecap="butt" stroke-miterlimit="10" stroke-linejoin="miter" fill="none" stroke="#000000" d="M1837 6521.9 1762.2 6504.8 1837 6521.9 2170.7 6598.1 2319.1 6906.4 2352.4 6837.2 2319.1 6906.4 2170.7 7214.7 1837 7290.8 1897 7338.7 1837 7290.8 1569.5 7077.5V6735.3Z"/>
<path transform="matrix(.1,0,0,-.1,0,792)" d="M4706.4 3311.2 4673.1 3380.4 4706.4 3311.2 4854.9 3002.9 5188.5 2926.7 5128.5 2878.9 5188.5 2926.7 5456.1 3140.1V3482.3L5188.5 3695.7 5263.4 3712.8 5188.5 3695.7 4854.9 3619.5" fill="#f8c499"/>
<path transform="matrix(.1,0,0,-.1,0,792)" stroke-width="12" stroke-linecap="butt" stroke-miterlimit="10" stroke-linejoin="miter" fill="none" stroke="#000000" d="M4706.4 3311.2 4673.1 3380.4 4706.4 3311.2 4854.9 3002.9 5188.5 2926.7 5128.5 2878.9 5188.5 2926.7 5456.1 3140.1V3482.3L5188.5 3695.7 5263.4 3712.8 5188.5 3695.7 4854.9 3619.5Z"/>
<path transform="matrix(.1,0,0,-.1,0,792)" d="M4706.4 5108.8 4673.1 5177.9 4706.4 5108.8 4854.9 4800.5 5188.5 4724.3 5128.5 4676.5 5188.5 4724.3 5456.1 4937.7V5279.9L5188.5 5493.3 5263.4 5510.3 5188.5 5493.3 4854.9 5417.1" fill="#f8c499"/>
<path transform="matrix(.1,0,0,-.1,0,792)" stroke-width="12" stroke-linecap="butt" stroke-miterlimit="10" stroke-linejoin="miter" fill="none" stroke="#000000" d="M4706.4 5108.8 4673.1 5177.9 4706.4 5108.8 4854.9 4800.5 5188.5 4724.3 5128.5 4676.5 5188.5 4724.3 5456.1 4937.7V5279.9L5188.5 5493.3 5263.4 5510.3 5188.5 5493.3 4854.9 5417.1Z"/>
<path transform="matrix(.1,0,0,-.1,0,792)" d="M1192.1 6007.6 1225.4 5938.4 1192.1 6007.6 1043.6 6315.9 710 6392.1 770 6439.9 710 6392.1 442.398 6178.7V5836.5L710 5623.1 635.199 5606 710 5623.1 1043.6 5699.3" fill="#f8c499"/>
<path transform="matrix(.1,0,0,-.1,0,792)" stroke-width="12" stroke-linecap="butt" stroke-miterlimit="10" stroke-linejoin="miter" fill="none" stroke="#000000" d="M1192.1 6007.6 1225.4 5938.4 1192.1 6007.6 1043.6 6315.9 710 6392.1 770 6439.9 710 6392.1 442.398 6178.7V5836.5L710 5623.1 635.199 5606 710 5623.1 1043.6 5699.3Z"/>
<path transform="matrix(.1,0,0,-.1,0,792)" d="M1192.1 4210 1225.4 4140.9 1192.1 4210 1043.6 4518.3 710 4594.5 770 4642.3 710 4594.5 442.398 4381.1V4038.9L710 3825.5 635.199 3808.5 710 3825.5 1043.6 3901.7" fill="#f8c499"/>
<path transform="matrix(.1,0,0,-.1,0,792)" stroke-width="12" stroke-linecap="butt" stroke-miterlimit="10" stroke-linejoin="miter" fill="none" stroke="#000000" d="M1192.1 4210 1225.4 4140.9 1192.1 4210 1043.6 4518.3 710 4594.5 770 4642.3 710 4594.5 442.398 4381.1V4038.9L710 3825.5 635.199 3808.5 710 3825.5 1043.6 3901.7Z"/>
<path transform="matrix(.1,0,0,-.1,0,792)" d="M1192.1 2412.4 1225.4 2343.3 1192.1 2412.4 1043.6 2720.7 710 2796.9 770 2844.7 710 2796.9 442.398 2583.5V2241.3L710 2027.9 635.199 2010.9 710 2027.9 1043.6 2104.1" fill="#f8c499"/>
<path transform="matrix(.1,0,0,-.1,0,792)" stroke-width="12" stroke-linecap="butt" stroke-miterlimit="10" stroke-linejoin="miter" fill="none" stroke="#000000" d="M1192.1 2412.4 1225.4 2343.3 1192.1 2412.4 1043.6 2720.7 710 2796.9 770 2844.7 710 2796.9 442.398 2583.5V2241.3L710 2027.9 635.199 2010.9 710 2027.9 1043.6 2104.1Z"/>
<path transform="matrix(.1,0,0,-.1,0,792)" d="M4854.9 1821.9 4706.4 1513.6 4673.1 1582.8 4706.4 1513.6 4854.9 1205.3 5188.5 1129.2 5128.5 1081.3 5188.5 1129.2 5456.1 1342.5V1684.7L5188.5 1898.1 5263.4 1915.2 5188.5 1898.1" fill="#f8c499"/>
<path transform="matrix(.1,0,0,-.1,0,792)" stroke-width="12" stroke-linecap="butt" stroke-miterlimit="10" stroke-linejoin="miter" fill="none" stroke="#000000" d="M4854.9 1821.9 4706.4 1513.6 4673.1 1582.8 4706.4 1513.6 4854.9 1205.3 5188.5 1129.2 5128.5 1081.3 5188.5 1129.2 5456.1 1342.5V1684.7L5188.5 1898.1 5263.4 1915.2 5188.5 1898.1Z"/>
<path transform="matrix(.1,0,0,-.1,0,792)" d="M4854.9 6598.1 5188.5 6521.9 5128.5 6474.1 5188.5 6521.9 5456.1 6735.3V7077.5L5188.5 7290.8 5263.4 7307.9 5188.5 7290.8 4854.9 7214.7 4706.4 6906.4 4673.1 6975.5 4706.4 6906.4" fill="#f8c499"/>
<path transform="matrix(.1,0,0,-.1,0,792)" stroke-width="12" stroke-linecap="butt" stroke-miterlimit="10" stroke-linejoin="miter" fill="none" stroke="#000000" d="M4854.9 6598.1 5188.5 6521.9 5128.5 6474.1 5188.5 6521.9 5456.1 6735.3V7077.5L5188.5 7290.8 5263.4 7307.9 5188.5 7290.8 4854.9 7214.7 4706.4 6906.4 4673.1 6975.5 4706.4 6906.4Z"/>
<path transform="matrix(.1,0,0,-.1,0,792)" d="M4950.6 6178.7V5836.5L5218.2 5623.1 5143.4 5606 5218.2 5623.1 5551.8 5699.3 5700.3 6007.6 5733.6 5938.4 5700.3 6007.6 5551.8 6315.9 5218.2 6392.1 5278.2 6439.9 5218.2 6392.1" fill="#f8c499"/>
<path transform="matrix(.1,0,0,-.1,0,792)" stroke-width="12" stroke-linecap="butt" stroke-miterlimit="10" stroke-linejoin="miter" fill="none" stroke="#000000" d="M4950.6 6178.7V5836.5L5218.2 5623.1 5143.4 5606 5218.2 5623.1 5551.8 5699.3 5700.3 6007.6 5733.6 5938.4 5700.3 6007.6 5551.8 6315.9 5218.2 6392.1 5278.2 6439.9 5218.2 6392.1Z"/>
<path transform="matrix(.1,0,0,-.1,0,792)" d="M4950.6 2241.3 5218.2 2027.9 5143.4 2010.9 5218.2 2027.9 5551.8 2104.1 5700.3 2412.4 5733.6 2343.3 5700.3 2412.4 5551.8 2720.7 5218.2 2796.9 5278.2 2844.7 5218.2 2796.9 4950.6 2583.5" fill="#f8c499"/>
<path transform="matrix(.1,0,0,-.1,0,792)" stroke-width="12" stroke-linecap="butt" stroke-miterlimit="10" stroke-linejoin="miter" fill="none" stroke="#000000" d="M4950.6 2241.3 5218.2 2027.9 5143.4 2010.9 5218.2 2027.9 5551.8 2104.1 5700.3 2412.4 5733.6 2343.3 5700.3 2412.4 5551.8 2720.7 5218.2 2796.9 5278.2 2844.7 5218.2 2796.9 4950.6 2583.5Z"/>
<path transform="matrix(.1,0,0,-.1,0,792)" d="M4950.6 4038.9 5218.2 3825.5 5143.4 3808.5 5218.2 3825.5 5551.8 3901.7 5700.3 4210 5733.6 4140.9 5700.3 4210 5551.8 4518.3 5218.2 4594.5 5278.2 4642.3 5218.2 4594.5 4950.6 4381.1" fill="#f8c499"/>
<path transform="matrix(.1,0,0,-.1,0,792)" stroke-width="12" stroke-linecap="butt" stroke-miterlimit="10" stroke-linejoin="miter" fill="none" stroke="#000000" d="M4950.6 4038.9 5218.2 3825.5 5143.4 3808.5 5218.2 3825.5 5551.8 3901.7 5700.3 4210 5733.6 4140.9 5700.3 4210 5551.8 4518.3 5218.2 4594.5 5278.2 4642.3 5218.2 4594.5 4950.6 4381.1Z"/>
<path transform="matrix(.1,0,0,-.1,0,792)" d="M4639.8 7044.7 4673.1 6975.5 4639.8 7044.7 4771.9 7318.8 5068.5 7386.5 5143.4 7403.6 5068.5 7386.5 4830.6 7576.3V8034.1L5068.5 8223.8 5128.5 8271.6 5068.5 8223.8 4771.9 8291.5 4639.8 8565.7 4606.5 8634.8 4639.8 8565.7 4507.8 8291.5 4211.1 8223.8 4136.3 8206.7 4211.1 8223.8 4449 8034.1V7576.3L4211.1 7386.5 4151.1 7338.7 4211.1 7386.5 4507.8 7318.8" fill="#823d24"/>
<path transform="matrix(.1,0,0,-.1,0,792)" stroke-width="12" stroke-linecap="butt" stroke-miterlimit="10" stroke-linejoin="miter" fill="none" stroke="#000000" d="M4639.8 7044.7 4673.1 6975.5 4639.8 7044.7 4771.9 7318.8 5068.5 7386.5 5143.4 7403.6 5068.5 7386.5 4830.6 7576.3V8034.1L5068.5 8223.8 5128.5 8271.6 5068.5 8223.8 4771.9 8291.5 4639.8 8565.7 4606.5 8634.8 4639.8 8565.7 4507.8 8291.5 4211.1 8223.8 4136.3 8206.7 4211.1 8223.8 4449 8034.1V7576.3L4211.1 7386.5 4151.1 7338.7 4211.1 7386.5 4507.8 7318.8Z"/>
<path transform="matrix(.1,0,0,-.1,0,792)" d="M2385.7 7044.7 2419 6975.5 2385.7 7044.7 2517.8 7318.8 2814.4 7386.5 2889.3 7403.6 2814.4 7386.5 2576.5 7576.3V8034.1L2814.4 8223.8 2874.4 8271.6 2814.4 8223.8 2517.8 8291.5 2385.7 8565.7 2352.4 8634.8 2385.7 8565.7 2253.7 8291.5 1957 8223.8 1882.2 8206.7 1957 8223.8 2194.9 8034.1V7576.3L1957 7386.5 1897 7338.7 1957 7386.5 2253.7 7318.8" fill="#823d24"/>
<path transform="matrix(.1,0,0,-.1,0,792)" stroke-width="12" stroke-linecap="butt" stroke-miterlimit="10" stroke-linejoin="miter" fill="none" stroke="#000000" d="M2385.7 7044.7 2419 6975.5 2385.7 7044.7 2517.8 7318.8 2814.4 7386.5 2889.3 7403.6 2814.4 7386.5 2576.5 7576.3V8034.1L2814.4 8223.8 2874.4 8271.6 2814.4 8223.8 2517.8 8291.5 2385.7 8565.7 2352.4 8634.8 2385.7 8565.7 2253.7 8291.5 1957 8223.8 1882.2 8206.7 1957 8223.8 2194.9 8034.1V7576.3L1957 7386.5 1897 7338.7 1957 7386.5 2253.7 7318.8Z"/>
<path transform="matrix(.1,0,0,-.1,0,792)" d="M2385.7 1375.3 2352.4 1444.5 2385.7 1375.3 2253.7 1101.2 1957 1033.5 1882.2 1016.4 1957 1033.5 2194.9 843.699V385.898L1957 196.199 1897 148.398 1957 196.199 2253.7 128.5 2385.7-145.699 2419-214.801 2385.7-145.699 2517.8 128.5 2814.4 196.199 2889.3 213.301 2814.4 196.199 2576.5 385.898V843.699L2814.4 1033.5 2874.4 1081.3 2814.4 1033.5 2517.8 1101.2" fill="#823d24"/>
<path transform="matrix(.1,0,0,-.1,0,792)" stroke-width="12" stroke-linecap="butt" stroke-miterlimit="10" stroke-linejoin="miter" fill="none" stroke="#000000" d="M2385.7 1375.3 2352.4 1444.5 2385.7 1375.3 2253.7 1101.2 1957 1033.5 1882.2 1016.4 1957 1033.5 2194.9 843.699V385.898L1957 196.199 1897 148.398 1957 196.199 2253.7 128.5 2385.7-145.699 2419-214.801 2385.7-145.699 2517.8 128.5 2814.4 196.199 2889.3 213.301 2814.4 196.199 2576.5 385.898V843.699L2814.4 1033.5 2874.4 1081.3 2814.4 1033.5 2517.8 1101.2Z"/>
<path transform="matrix(.1,0,0,-.1,0,792)" d="M4639.8 1375.3 4606.5 1444.5 4639.8 1375.3 4507.8 1101.2 4211.1 1033.5 4136.3 1016.4 4211.1 1033.5 4449 843.699V385.898L4211.1 196.199 4151.1 148.398 4211.1 196.199 4507.8 128.5 4639.8-145.699 4673.1-214.801 4639.8-145.699 4771.9 128.5 5068.5 196.199 5143.4 213.301 5068.5 196.199 4830.6 385.898V843.699L5068.5 1033.5 5128.5 1081.3 5068.5 1033.5 4771.9 1101.2" fill="#823d24"/>
<path transform="matrix(.1,0,0,-.1,0,792)" stroke-width="12" stroke-linecap="butt" stroke-miterlimit="10" stroke-linejoin="miter" fill="none" stroke="#000000" d="M4639.8 1375.3 4606.5 1444.5 4639.8 1375.3 4507.8 1101.2 4211.1 1033.5 4136.3 1016.4 4211.1 1033.5 4449 843.699V385.898L4211.1 196.199 4151.1 148.398 4211.1 196.199 4507.8 128.5 4639.8-145.699 4673.1-214.801 4639.8-145.699 4771.9 128.5 5068.5 196.199 5143.4 213.301 5068.5 196.199 4830.6 385.898V843.699L5068.5 1033.5 5128.5 1081.3 5068.5 1033.5 4771.9 1101.2Z"/>
<path transform="matrix(.1,0,0,-.1,0,792)" d="M947.898 6735.3V7077.5L680.301 7290.8 755.199 7307.9 680.301 7290.8 346.699 7214.7 198.199 6906.4 164.898 6975.5 198.199 6906.4 346.699 6598.1 680.301 6521.9 620.301 6474.1 680.301 6521.9" fill="#f8c499"/>
<path transform="matrix(.1,0,0,-.1,0,792)" stroke-width="12" stroke-linecap="butt" stroke-miterlimit="10" stroke-linejoin="miter" fill="none" stroke="#000000" d="M947.898 6735.3V7077.5L680.301 7290.8 755.199 7307.9 680.301 7290.8 346.699 7214.7 198.199 6906.4 164.898 6975.5 198.199 6906.4 346.699 6598.1 680.301 6521.9 620.301 6474.1 680.301 6521.9Z"/>
<path transform="matrix(.1,0,0,-.1,0,792)" d="M947.898 5279.9 680.301 5493.3 755.199 5510.3 680.301 5493.3 346.699 5417.1 198.199 5108.8 164.898 5177.9 198.199 5108.8 346.699 4800.5 680.301 4724.3 620.301 4676.5 680.301 4724.3 947.898 4937.7" fill="#f8c499"/>
<path transform="matrix(.1,0,0,-.1,0,792)" stroke-width="12" stroke-linecap="butt" stroke-miterlimit="10" stroke-linejoin="miter" fill="none" stroke="#000000" d="M947.898 5279.9 680.301 5493.3 755.199 5510.3 680.301 5493.3 346.699 5417.1 198.199 5108.8 164.898 5177.9 198.199 5108.8 346.699 4800.5 680.301 4724.3 620.301 4676.5 680.301 4724.3 947.898 4937.7Z"/>
<path transform="matrix(.1,0,0,-.1,0,792)" d="M947.898 3482.3 680.301 3695.7 755.199 3712.8 680.301 3695.7 346.699 3619.5 198.199 3311.2 164.898 3380.4 198.199 3311.2 346.699 3002.9 680.301 2926.7 620.301 2878.9 680.301 2926.7 947.898 3140.1" fill="#f8c499"/>
<path transform="matrix(.1,0,0,-.1,0,792)" stroke-width="12" stroke-linecap="butt" stroke-miterlimit="10" stroke-linejoin="miter" fill="none" stroke="#000000" d="M947.898 3482.3 680.301 3695.7 755.199 3712.8 680.301 3695.7 346.699 3619.5 198.199 3311.2 164.898 3380.4 198.199 3311.2 346.699 3002.9 680.301 2926.7 620.301 2878.9 680.301 2926.7 947.898 3140.1Z"/>
<path transform="matrix(.1,0,0,-.1,0,792)" d="M947.898 1684.7 680.301 1898.1 755.199 1915.2 680.301 1898.1 346.699 1821.9 198.199 1513.6 164.898 1582.8 198.199 1513.6 346.699 1205.3 680.301 1129.2 620.301 1081.3 680.301 1129.2 947.898 1342.5" fill="#f8c499"/>
<path transform="matrix(.1,0,0,-.1,0,792)" stroke-width="12" stroke-linecap="butt" stroke-miterlimit="10" stroke-linejoin="miter" fill="none" stroke="#000000" d="M947.898 1684.7 680.301 1898.1 755.199 1915.2 680.301 1898.1 346.699 1821.9 198.199 1513.6 164.898 1582.8 198.199 1513.6 346.699 1205.3 680.301 1129.2 620.301 1081.3 680.301 1129.2 947.898 1342.5Z"/>
<path transform="matrix(.1,0,0,-.1,0,792)" d="M5338.2 1932.2 5263.4 1915.2 5338.2 1932.2 5576.1 1742.5V1284.7L5338.2 1095 5278.2 1047.2 5338.2 1095 5634.8 1027.3 5766.9 753.102 5800.2 684 5766.9 753.102 5898.9 1027.3 6195.6 1095 6270.4 1112.1 6195.6 1095 5957.7 1284.7V1742.5L6195.6 1932.2 6255.6 1980.1 6195.6 1932.2 5898.9 2000 5766.9 2274.1 5733.6 2343.3 5766.9 2274.1 5634.8 2000" fill="#823d24"/>
<path transform="matrix(.1,0,0,-.1,0,792)" stroke-width="12" stroke-linecap="butt" stroke-miterlimit="10" stroke-linejoin="miter" fill="none" stroke="#000000" d="M5338.2 1932.2 5263.4 1915.2 5338.2 1932.2 5576.1 1742.5V1284.7L5338.2 1095 5278.2 1047.2 5338.2 1095 5634.8 1027.3 5766.9 753.102 5800.2 684 5766.9 753.102 5898.9 1027.3 6195.6 1095 6270.4 1112.1 6195.6 1095 5957.7 1284.7V1742.5L6195.6 1932.2 6255.6 1980.1 6195.6 1932.2 5898.9 2000 5766.9 2274.1 5733.6 2343.3 5766.9 2274.1 5634.8 2000Z"/>
<path transform="matrix(.1,0,0,-.1,0,792)" d="M5338.2 2892.6 5278.2 2844.7 5338.2 2892.6 5634.8 2824.9 5766.9 2550.7 5800.2 2481.6 5766.9 2550.7 5898.9 2824.9 6195.6 2892.6 6270.4 2909.7 6195.6 2892.6 5957.7 3082.3V3540.1L6195.6 3729.8 6255.6 3777.7 6195.6 3729.8 5898.9 3797.5 5766.9 4071.7 5733.6 4140.9 5766.9 4071.7 5634.8 3797.5 5338.2 3729.8 5263.4 3712.8 5338.2 3729.8 5576.1 3540.1V3082.3" fill="#823d24"/>
<path transform="matrix(.1,0,0,-.1,0,792)" stroke-width="12" stroke-linecap="butt" stroke-miterlimit="10" stroke-linejoin="miter" fill="none" stroke="#000000" d="M5338.2 2892.6 5278.2 2844.7 5338.2 2892.6 5634.8 2824.9 5766.9 2550.7 5800.2 2481.6 5766.9 2550.7 5898.9 2824.9 6195.6 2892.6 6270.4 2909.7 6195.6 2892.6 5957.7 3082.3V3540.1L6195.6 3729.8 6255.6 3777.7 6195.6 3729.8 5898.9 3797.5 5766.9 4071.7 5733.6 4140.9 5766.9 4071.7 5634.8 3797.5 5338.2 3729.8 5263.4 3712.8 5338.2 3729.8 5576.1 3540.1V3082.3Z"/>
<path transform="matrix(.1,0,0,-.1,0,792)" d="M5338.2 4690.2 5278.2 4642.3 5338.2 4690.2 5634.8 4622.5 5766.9 4348.3 5800.2 4279.1 5766.9 4348.3 5898.9 4622.5 6195.6 4690.2 6270.4 4707.2 6195.6 4690.2 5957.7 4879.9V5337.7L6195.6 5527.4 6255.6 5575.3 6195.6 5527.4 5898.9 5595.1 5766.9 5869.3 5733.6 5938.4 5766.9 5869.3 5634.8 5595.1 5338.2 5527.4 5263.4 5510.3 5338.2 5527.4 5576.1 5337.7V4879.9" fill="#823d24"/>
<path transform="matrix(.1,0,0,-.1,0,792)" stroke-width="12" stroke-linecap="butt" stroke-miterlimit="10" stroke-linejoin="miter" fill="none" stroke="#000000" d="M5338.2 4690.2 5278.2 4642.3 5338.2 4690.2 5634.8 4622.5 5766.9 4348.3 5800.2 4279.1 5766.9 4348.3 5898.9 4622.5 6195.6 4690.2 6270.4 4707.2 6195.6 4690.2 5957.7 4879.9V5337.7L6195.6 5527.4 6255.6 5575.3 6195.6 5527.4 5898.9 5595.1 5766.9 5869.3 5733.6 5938.4 5766.9 5869.3 5634.8 5595.1 5338.2 5527.4 5263.4 5510.3 5338.2 5527.4 5576.1 5337.7V4879.9Z"/>
<path transform="matrix(.1,0,0,-.1,0,792)" d="M5338.2 6487.8 5278.2 6439.9 5338.2 6487.8 5634.8 6420 5766.9 6145.9 5800.2 6076.7 5766.9 6145.9 5898.9 6420 6195.6 6487.8 6270.4 6504.8 6195.6 6487.8 5957.7 6677.5V7135.3L6195.6 7325 6255.6 7372.8 6195.6 7325 5898.9 7392.7 5766.9 7666.9 5733.6 7736 5766.9 7666.9 5634.8 7392.7 5338.2 7325 5263.4 7307.9 5338.2 7325 5576.1 7135.3V6677.5" fill="#823d24"/>
<path transform="matrix(.1,0,0,-.1,0,792)" stroke-width="12" stroke-linecap="butt" stroke-miterlimit="10" stroke-linejoin="miter" fill="none" stroke="#000000" d="M5338.2 6487.8 5278.2 6439.9 5338.2 6487.8 5634.8 6420 5766.9 6145.9 5800.2 6076.7 5766.9 6145.9 5898.9 6420 6195.6 6487.8 6270.4 6504.8 6195.6 6487.8 5957.7 6677.5V7135.3L6195.6 7325 6255.6 7372.8 6195.6 7325 5898.9 7392.7 5766.9 7666.9 5733.6 7736 5766.9 7666.9 5634.8 7392.7 5338.2 7325 5263.4 7307.9 5338.2 7325 5576.1 7135.3V6677.5Z"/>
<path transform="matrix(.1,0,0,-.1,0,792)" d="M560.301 6426.2 620.301 6474.1 560.301 6426.2 263.699 6493.9 131.602 6768.1 98.3008 6837.2 131.602 6768.1-.398438 6493.9-297.102 6426.2-371.898 6409.1-297.102 6426.2-59.1992 6236.5V5778.7L-297.102 5589-357.102 5541.1-297.102 5589-.398438 5521.2 131.602 5247.1 164.898 5177.9 131.602 5247.1 263.699 5521.2 560.301 5589 635.199 5606 560.301 5589 322.398 5778.7V6236.5" fill="#823d24"/>
<path transform="matrix(.1,0,0,-.1,0,792)" stroke-width="12" stroke-linecap="butt" stroke-miterlimit="10" stroke-linejoin="miter" fill="none" stroke="#000000" d="M560.301 6426.2 620.301 6474.1 560.301 6426.2 263.699 6493.9 131.602 6768.1 98.3008 6837.2 131.602 6768.1-.398438 6493.9-297.102 6426.2-371.898 6409.1-297.102 6426.2-59.1992 6236.5V5778.7L-297.102 5589-357.102 5541.1-297.102 5589-.398438 5521.2 131.602 5247.1 164.898 5177.9 131.602 5247.1 263.699 5521.2 560.301 5589 635.199 5606 560.301 5589 322.398 5778.7V6236.5Z"/>
<path transform="matrix(.1,0,0,-.1,0,792)" d="M560.301 4628.6 620.301 4676.5 560.301 4628.6 263.699 4696.3 131.602 4970.5 98.3008 5039.6 131.602 4970.5-.398438 4696.3-297.102 4628.6-371.898 4611.5-297.102 4628.6-59.1992 4438.9V3981.1L-297.102 3791.4-357.102 3743.5-297.102 3791.4-.398438 3723.7 131.602 3449.5 164.898 3380.4 131.602 3449.5 263.699 3723.7 560.301 3791.4 635.199 3808.5 560.301 3791.4 322.398 3981.1V4438.9" fill="#823d24"/>
<path transform="matrix(.1,0,0,-.1,0,792)" stroke-width="12" stroke-linecap="butt" stroke-miterlimit="10" stroke-linejoin="miter" fill="none" stroke="#000000" d="M560.301 4628.6 620.301 4676.5 560.301 4628.6 263.699 4696.3 131.602 4970.5 98.3008 5039.6 131.602 4970.5-.398438 4696.3-297.102 4628.6-371.898 4611.5-297.102 4628.6-59.1992 4438.9V3981.1L-297.102 3791.4-357.102 3743.5-297.102 3791.4-.398438 3723.7 131.602 3449.5 164.898 3380.4 131.602 3449.5 263.699 3723.7 560.301 3791.4 635.199 3808.5 560.301 3791.4 322.398 3981.1V4438.9Z"/>
<path transform="matrix(.1,0,0,-.1,0,792)" d="M560.301 2831 620.301 2878.9 560.301 2831 263.699 2898.8 131.602 3172.9 98.3008 3242.1 131.602 3172.9-.398438 2898.8-297.102 2831-371.898 2814-297.102 2831-59.1992 2641.3V2183.5L-297.102 1993.8-357.102 1945.9-297.102 1993.8-.398438 1926.1 131.602 1651.9 164.898 1582.8 131.602 1651.9 263.699 1926.1 560.301 1993.8 635.199 2010.9 560.301 1993.8 322.398 2183.5V2641.3" fill="#823d24"/>
<path transform="matrix(.1,0,0,-.1,0,792)" stroke-width="12" stroke-linecap="butt" stroke-miterlimit="10" stroke-linejoin="miter" fill="none" stroke="#000000" d="M560.301 2831 620.301 2878.9 560.301 2831 263.699 2898.8 131.602 3172.9 98.3008 3242.1 131.602 3172.9-.398438 2898.8-297.102 2831-371.898 2814-297.102 2831-59.1992 2641.3V2183.5L-297.102 1993.8-357.102 1945.9-297.102 1993.8-.398438 1926.1 131.602 1651.9 164.898 1582.8 131.602 1651.9 263.699 1926.1 560.301 1993.8 635.199 2010.9 560.301 1993.8 322.398 2183.5V2641.3Z"/>
<path transform="matrix(.1,0,0,-.1,0,792)" d="M710 999.301 770 1047.2 710 999.301 442.398 785.898V443.699L710 230.398 635.199 213.301 710 230.398 1043.6 306.5 1192.1 614.801 1225.4 545.699 1192.1 614.801 1043.6 923.199" fill="#f8c499"/>
<path transform="matrix(.1,0,0,-.1,0,792)" stroke-width="12" stroke-linecap="butt" stroke-miterlimit="10" stroke-linejoin="miter" fill="none" stroke="#000000" d="M710 999.301 770 1047.2 710 999.301 442.398 785.898V443.699L710 230.398 635.199 213.301 710 230.398 1043.6 306.5 1192.1 614.801 1225.4 545.699 1192.1 614.801 1043.6 923.199Z"/>
<path transform="matrix(.1,0,0,-.1,0,792)" d="M560.301 1033.5 620.301 1081.3 560.301 1033.5 263.699 1101.2 131.602 1375.3 98.3008 1444.5 131.602 1375.3-.398438 1101.2-297.102 1033.5-371.898 1016.4-297.102 1033.5-59.1992 843.699V385.898L-297.102 196.199-357.102 148.398-297.102 196.199-.398438 128.5 131.602-145.699 164.898-214.801 131.602-145.699 263.699 128.5 560.301 196.199 635.199 213.301 560.301 196.199 322.398 385.898V843.699" fill="#823d24"/>
<path transform="matrix(.1,0,0,-.1,0,792)" stroke-width="12" stroke-linecap="butt" stroke-miterlimit="10" stroke-linejoin="miter" fill="none" stroke="#000000" d="M560.301 1033.5 620.301 1081.3 560.301 1033.5 263.699 1101.2 131.602 1375.3 98.3008 1444.5 131.602 1375.3-.398438 1101.2-297.102 1033.5-371.898 1016.4-297.102 1033.5-59.1992 843.699V385.898L-297.102 196.199-357.102 148.398-297.102 196.199-.398438 128.5 131.602-145.699 164.898-214.801 131.602-145.699 263.699 128.5 560.301 196.199 635.199 213.301 560.301 196.199 322.398 385.898V843.699Z"/>
<path transform="matrix(.1,0,0,-.1,0,792)" d="M1807.4 999.301 1882.2 1016.4 1807.4 999.301 1473.8 923.199 1325.3 614.801 1292 684 1325.3 614.801 1473.8 306.5 1807.4 230.398 1747.4 182.5 1807.4 230.398 2074.9 443.699V785.898" fill="#f8c499"/>
<path transform="matrix(.1,0,0,-.1,0,792)" stroke-width="12" stroke-linecap="butt" stroke-miterlimit="10" stroke-linejoin="miter" fill="none" stroke="#000000" d="M1807.4 999.301 1882.2 1016.4 1807.4 999.301 1473.8 923.199 1325.3 614.801 1292 684 1325.3 614.801 1473.8 306.5 1807.4 230.398 1747.4 182.5 1807.4 230.398 2074.9 443.699V785.898Z"/>
<path transform="matrix(.1,0,0,-.1,0,792)" d="M2964.1 999.301 3024.1 1047.2 2964.1 999.301 2696.5 785.898V443.699L2964.1 230.398 2889.3 213.301 2964.1 230.398 3297.7 306.5 3446.2 614.801 3479.5 545.699 3446.2 614.801 3297.7 923.199" fill="#f8c499"/>
<path transform="matrix(.1,0,0,-.1,0,792)" stroke-width="12" stroke-linecap="butt" stroke-miterlimit="10" stroke-linejoin="miter" fill="none" stroke="#000000" d="M2964.1 999.301 3024.1 1047.2 2964.1 999.301 2696.5 785.898V443.699L2964.1 230.398 2889.3 213.301 2964.1 230.398 3297.7 306.5 3446.2 614.801 3479.5 545.699 3446.2 614.801 3297.7 923.199Z"/>
<path transform="matrix(.1,0,0,-.1,0,792)" d="M4061.5 999.301 4136.3 1016.4 4061.5 999.301 3727.9 923.199 3579.4 614.801 3546.1 684 3579.4 614.801 3727.9 306.5 4061.5 230.398 4001.5 182.5 4061.5 230.398 4329 443.699V785.898" fill="#f8c499"/>
<path transform="matrix(.1,0,0,-.1,0,792)" stroke-width="12" stroke-linecap="butt" stroke-miterlimit="10" stroke-linejoin="miter" fill="none" stroke="#000000" d="M4061.5 999.301 4136.3 1016.4 4061.5 999.301 3727.9 923.199 3579.4 614.801 3546.1 684 3579.4 614.801 3727.9 306.5 4061.5 230.398 4001.5 182.5 4061.5 230.398 4329 443.699V785.898Z"/>
<path transform="matrix(.1,0,0,-.1,0,792)" d="M5218.2 999.301 5278.2 1047.2 5218.2 999.301 4950.6 785.898V443.699L5218.2 230.398 5143.4 213.301 5218.2 230.398 5551.8 306.5 5700.3 614.801 5733.6 545.699 5700.3 614.801 5551.8 923.199" fill="#f8c499"/>
<path transform="matrix(.1,0,0,-.1,0,792)" stroke-width="12" stroke-linecap="butt" stroke-miterlimit="10" stroke-linejoin="miter" fill="none" stroke="#000000" d="M5218.2 999.301 5278.2 1047.2 5218.2 999.301 4950.6 785.898V443.699L5218.2 230.398 5143.4 213.301 5218.2 230.398 5551.8 306.5 5700.3 614.801 5733.6 545.699 5700.3 614.801 5551.8 923.199Z"/>
<path transform="matrix(.1,0,0,-.1,0,792)" d="M5218.2 7420.7 5143.4 7403.6 5218.2 7420.7 5551.8 7496.8 5700.3 7805.2 5733.6 7736 5700.3 7805.2 5551.8 8113.5 5218.2 8189.6 5278.2 8237.5 5218.2 8189.6 4950.6 7976.3V7634.1" fill="#f8c499"/>
<path transform="matrix(.1,0,0,-.1,0,792)" stroke-width="12" stroke-linecap="butt" stroke-miterlimit="10" stroke-linejoin="miter" fill="none" stroke="#000000" d="M5218.2 7420.7 5143.4 7403.6 5218.2 7420.7 5551.8 7496.8 5700.3 7805.2 5733.6 7736 5700.3 7805.2 5551.8 8113.5 5218.2 8189.6 5278.2 8237.5 5218.2 8189.6 4950.6 7976.3V7634.1Z"/>
<path transform="matrix(.1,0,0,-.1,0,792)" d="M4061.5 7420.7 4001.5 7372.8 4061.5 7420.7 4329 7634.1V7976.3L4061.5 8189.6 4136.3 8206.7 4061.5 8189.6 3727.9 8113.5 3579.4 7805.2 3546.1 7874.3 3579.4 7805.2 3727.9 7496.8" fill="#f8c499"/>
<path transform="matrix(.1,0,0,-.1,0,792)" stroke-width="12" stroke-linecap="butt" stroke-miterlimit="10" stroke-linejoin="miter" fill="none" stroke="#000000" d="M4061.5 7420.7 4001.5 7372.8 4061.5 7420.7 4329 7634.1V7976.3L4061.5 8189.6 4136.3 8206.7 4061.5 8189.6 3727.9 8113.5 3579.4 7805.2 3546.1 7874.3 3579.4 7805.2 3727.9 7496.8Z"/>
<path transform="matrix(.1,0,0,-.1,0,792)" d="M2964.1 7420.7 2889.3 7403.6 2964.1 7420.7 3297.7 7496.8 3446.2 7805.2 3479.5 7736 3446.2 7805.2 3297.7 8113.5 2964.1 8189.6 3024.1 8237.5 2964.1 8189.6 2696.5 7976.3V7634.1" fill="#f8c499"/>
<path transform="matrix(.1,0,0,-.1,0,792)" stroke-width="12" stroke-linecap="butt" stroke-miterlimit="10" stroke-linejoin="miter" fill="none" stroke="#000000" d="M2964.1 7420.7 2889.3 7403.6 2964.1 7420.7 3297.7 7496.8 3446.2 7805.2 3479.5 7736 3446.2 7805.2 3297.7 8113.5 2964.1 8189.6 3024.1 8237.5 2964.1 8189.6 2696.5 7976.3V7634.1Z"/>
<path transform="matrix(.1,0,0,-.1,0,792)" d="M1807.4 7420.7 1747.4 7372.8 1807.4 7420.7 2074.9 7634.1V7976.3L1807.4 8189.6 1882.2 8206.7 1807.4 8189.6 1473.8 8113.5 1325.3 7805.2 1292 7874.3 1325.3 7805.2 1473.8 7496.8" fill="#f8c499"/>
<path transform="matrix(.1,0,0,-.1,0,792)" stroke-width="12" stroke-linecap="butt" stroke-miterlimit="10" stroke-linejoin="miter" fill="none" stroke="#000000" d="M1807.4 7420.7 1747.4 7372.8 1807.4 7420.7 2074.9 7634.1V7976.3L1807.4 8189.6 1882.2 8206.7 1807.4 8189.6 1473.8 8113.5 1325.3 7805.2 1292 7874.3 1325.3 7805.2 1473.8 7496.8Z"/>
<path transform="matrix(.1,0,0,-.1,0,792)" d="M560.301 7386.5 635.199 7403.6 560.301 7386.5 322.398 7576.3V8034.1L560.301 8223.8 620.301 8271.6 560.301 8223.8 263.699 8291.5 131.602 8565.7 98.3008 8634.8 131.602 8565.7-.398438 8291.5-297.102 8223.8-371.898 8206.7-297.102 8223.8-59.1992 8034.1V7576.3L-297.102 7386.5-357.102 7338.7-297.102 7386.5-.398438 7318.8 131.602 7044.7 164.898 6975.5 131.602 7044.7 263.699 7318.8" fill="#823d24"/>
<path transform="matrix(.1,0,0,-.1,0,792)" stroke-width="12" stroke-linecap="butt" stroke-miterlimit="10" stroke-linejoin="miter" fill="none" stroke="#000000" d="M560.301 7386.5 635.199 7403.6 560.301 7386.5 322.398 7576.3V8034.1L560.301 8223.8 620.301 8271.6 560.301 8223.8 263.699 8291.5 131.602 8565.7 98.3008 8634.8 131.602 8565.7-.398438 8291.5-297.102 8223.8-371.898 8206.7-297.102 8223.8-59.1992 8034.1V7576.3L-297.102 7386.5-357.102 7338.7-297.102 7386.5-.398438 7318.8 131.602 7044.7 164.898 6975.5 131.602 7044.7 263.699 7318.8Z"/>
<path transform="matrix(.1,0,0,-.1,0,792)" d="M710 7420.7 635.199 7403.6 710 7420.7 1043.6 7496.8 1192.1 7805.2 1225.4 7736 1192.1 7805.2 1043.6 8113.5 710 8189.6 770 8237.5 710 8189.6 442.398 7976.3V7634.1" fill="#f8c499"/>
<path transform="matrix(.1,0,0,-.1,0,792)" stroke-width="12" stroke-linecap="butt" stroke-miterlimit="10" stroke-linejoin="miter" fill="none" stroke="#000000" d="M710 7420.7 635.199 7403.6 710 7420.7 1043.6 7496.8 1192.1 7805.2 1225.4 7736 1192.1 7805.2 1043.6 8113.5 710 8189.6 770 8237.5 710 8189.6 442.398 7976.3V7634.1Z"/>
<path transform="matrix(.1,0,0,-.1,0,792)" d="M1258.7 7943.5 1292 7874.3 1258.7 7943.5 1390.7 8217.6 1687.4 8285.3 1762.2 8302.4 1687.4 8285.3 1449.5 8475.1V8932.9L1687.4 9122.6 1747.4 9170.4 1687.4 9122.6 1390.7 9190.3 1258.7 9464.5 1225.4 9533.6 1258.7 9464.5 1126.6 9190.3 830 9122.6 755.199 9105.5 830 9122.6 1067.9 8932.9V8475.1L830 8285.3 770 8237.5 830 8285.3 1126.6 8217.6" fill="#823d24"/>
<path transform="matrix(.1,0,0,-.1,0,792)" stroke-width="12" stroke-linecap="butt" stroke-miterlimit="10" stroke-linejoin="miter" fill="none" stroke="#000000" d="M1258.7 7943.5 1292 7874.3 1258.7 7943.5 1390.7 8217.6 1687.4 8285.3 1762.2 8302.4 1687.4 8285.3 1449.5 8475.1V8932.9L1687.4 9122.6 1747.4 9170.4 1687.4 9122.6 1390.7 9190.3 1258.7 9464.5 1225.4 9533.6 1258.7 9464.5 1126.6 9190.3 830 9122.6 755.199 9105.5 830 9122.6 1067.9 8932.9V8475.1L830 8285.3 770 8237.5 830 8285.3 1126.6 8217.6Z"/>
<path transform="matrix(.1,0,0,-.1,0,792)" d="M1258.7 476.5 1225.4 545.699 1258.7 476.5 1126.6 202.398 830 134.699 755.199 117.602 830 134.699 1067.9-55.1016V-512.898L830-702.602 770-750.398 830-702.602 1126.6-770.301 1258.7-1044.5 1292-1113.6 1258.7-1044.5 1390.7-770.301 1687.4-702.602 1762.2-685.5 1687.4-702.602 1449.5-512.898V-55.1016L1687.4 134.699 1747.4 182.5 1687.4 134.699 1390.7 202.398" fill="#823d24"/>
<path transform="matrix(.1,0,0,-.1,0,792)" stroke-width="12" stroke-linecap="butt" stroke-miterlimit="10" stroke-linejoin="miter" fill="none" stroke="#000000" d="M1258.7 476.5 1225.4 545.699 1258.7 476.5 1126.6 202.398 830 134.699 755.199 117.602 830 134.699 1067.9-55.1016V-512.898L830-702.602 770-750.398 830-702.602 1126.6-770.301 1258.7-1044.5 1292-1113.6 1258.7-1044.5 1390.7-770.301 1687.4-702.602 1762.2-685.5 1687.4-702.602 1449.5-512.898V-55.1016L1687.4 134.699 1747.4 182.5 1687.4 134.699 1390.7 202.398Z"/>
<path transform="matrix(.1,0,0,-.1,0,792)" d="M3512.8 476.5 3479.5 545.699 3512.8 476.5 3380.7 202.398 3084.1 134.699 3009.3 117.602 3084.1 134.699 3322-55.1016V-512.898L3084.1-702.602 3024.1-750.398 3084.1-702.602 3380.7-770.301 3512.8-1044.5 3546.1-1113.6 3512.8-1044.5 3644.8-770.301 3941.5-702.602 4016.3-685.5 3941.5-702.602 3703.6-512.898V-55.1016L3941.5 134.699 4001.5 182.5 3941.5 134.699 3644.8 202.398" fill="#823d24"/>
<path transform="matrix(.1,0,0,-.1,0,792)" stroke-width="12" stroke-linecap="butt" stroke-miterlimit="10" stroke-linejoin="miter" fill="none" stroke="#000000" d="M3512.8 476.5 3479.5 545.699 3512.8 476.5 3380.7 202.398 3084.1 134.699 3009.3 117.602 3084.1 134.699 3322-55.1016V-512.898L3084.1-702.602 3024.1-750.398 3084.1-702.602 3380.7-770.301 3512.8-1044.5 3546.1-1113.6 3512.8-1044.5 3644.8-770.301 3941.5-702.602 4016.3-685.5 3941.5-702.602 3703.6-512.898V-55.1016L3941.5 134.699 4001.5 182.5 3941.5 134.699 3644.8 202.398Z"/>
<path transform="matrix(.1,0,0,-.1,0,792)" d="M3512.8 7943.5 3546.1 7874.3 3512.8 7943.5 3644.8 8217.6 3941.5 8285.3 4016.3 8302.4 3941.5 8285.3 3703.6 8475.1V8932.9L3941.5 9122.6 4001.5 9170.4 3941.5 9122.6 3644.8 9190.3 3512.8 9464.5 3479.5 9533.6 3512.8 9464.5 3380.7 9190.3 3084.1 9122.6 3009.3 9105.5 3084.1 9122.6 3322 8932.9V8475.1L3084.1 8285.3 3024.1 8237.5 3084.1 8285.3 3380.7 8217.6" fill="#823d24"/>
<path transform="matrix(.1,0,0,-.1,0,792)" stroke-width="12" stroke-linecap="butt" stroke-miterlimit="10" stroke-linejoin="miter" fill="none" stroke="#000000" d="M3512.8 7943.5 3546.1 7874.3 3512.8 7943.5 3644.8 8217.6 3941.5 8285.3 4016.3 8302.4 3941.5 8285.3 3703.6 8475.1V8932.9L3941.5 9122.6 4001.5 9170.4 3941.5 9122.6 3644.8 9190.3 3512.8 9464.5 3479.5 9533.6 3512.8 9464.5 3380.7 9190.3 3084.1 9122.6 3009.3 9105.5 3084.1 9122.6 3322 8932.9V8475.1L3084.1 8285.3 3024.1 8237.5 3084.1 8285.3 3380.7 8217.6Z"/>
<path transform="matrix(.1,0,0,-.1,0,792)" d="M5833.5 614.801 5800.2 684 5833.5 614.801 5982 306.5 6315.6 230.398 6255.6 182.5 6315.6 230.398 6583.1 443.699V785.898L6315.6 999.301 6390.4 1016.4 6315.6 999.301 5982 923.199" fill="#f8c499"/>
<path transform="matrix(.1,0,0,-.1,0,792)" stroke-width="12" stroke-linecap="butt" stroke-miterlimit="10" stroke-linejoin="miter" fill="none" stroke="#000000" d="M5833.5 614.801 5800.2 684 5833.5 614.801 5982 306.5 6315.6 230.398 6255.6 182.5 6315.6 230.398 6583.1 443.699V785.898L6315.6 999.301 6390.4 1016.4 6315.6 999.301 5982 923.199Z"/>
<path transform="matrix(.1,0,0,-.1,0,792)" d="M5766.9 476.5 5733.6 545.699 5766.9 476.5 5634.8 202.398 5338.2 134.699 5263.4 117.602 5338.2 134.699 5576.1-55.1016V-512.898L5338.2-702.602 5278.2-750.398 5338.2-702.602 5634.8-770.301 5766.9-1044.5 5800.2-1113.6 5766.9-1044.5 5898.9-770.301 6195.6-702.602 6270.4-685.5 6195.6-702.602 5957.7-512.898V-55.1016L6195.6 134.699 6255.6 182.5 6195.6 134.699 5898.9 202.398" fill="#823d24"/>
<path transform="matrix(.1,0,0,-.1,0,792)" stroke-width="12" stroke-linecap="butt" stroke-miterlimit="10" stroke-linejoin="miter" fill="none" stroke="#000000" d="M5766.9 476.5 5733.6 545.699 5766.9 476.5 5634.8 202.398 5338.2 134.699 5263.4 117.602 5338.2 134.699 5576.1-55.1016V-512.898L5338.2-702.602 5278.2-750.398 5338.2-702.602 5634.8-770.301 5766.9-1044.5 5800.2-1113.6 5766.9-1044.5 5898.9-770.301 6195.6-702.602 6270.4-685.5 6195.6-702.602 5957.7-512.898V-55.1016L6195.6 134.699 6255.6 182.5 6195.6 134.699 5898.9 202.398Z"/>
<path transform="matrix(.1,0,0,-.1,0,792)" d="M5833.5 2412.4 5800.2 2481.6 5833.5 2412.4 5982 2104.1 6315.6 2027.9 6255.6 1980.1 6315.6 2027.9 6583.1 2241.3V2583.5L6315.6 2796.9 6390.4 2814 6315.6 2796.9 5982 2720.7" fill="#f8c499"/>
<path transform="matrix(.1,0,0,-.1,0,792)" stroke-width="12" stroke-linecap="butt" stroke-miterlimit="10" stroke-linejoin="miter" fill="none" stroke="#000000" d="M5833.5 2412.4 5800.2 2481.6 5833.5 2412.4 5982 2104.1 6315.6 2027.9 6255.6 1980.1 6315.6 2027.9 6583.1 2241.3V2583.5L6315.6 2796.9 6390.4 2814 6315.6 2796.9 5982 2720.7Z"/>
<path transform="matrix(.1,0,0,-.1,0,792)" d="M5833.5 4210 5800.2 4279.1 5833.5 4210 5982 3901.7 6315.6 3825.5 6255.6 3777.7 6315.6 3825.5 6583.1 4038.9V4381.1L6315.6 4594.5 6390.4 4611.5 6315.6 4594.5 5982 4518.3" fill="#f8c499"/>
<path transform="matrix(.1,0,0,-.1,0,792)" stroke-width="12" stroke-linecap="butt" stroke-miterlimit="10" stroke-linejoin="miter" fill="none" stroke="#000000" d="M5833.5 4210 5800.2 4279.1 5833.5 4210 5982 3901.7 6315.6 3825.5 6255.6 3777.7 6315.6 3825.5 6583.1 4038.9V4381.1L6315.6 4594.5 6390.4 4611.5 6315.6 4594.5 5982 4518.3Z"/>
<path transform="matrix(.1,0,0,-.1,0,792)" d="M5833.5 6007.6 5800.2 6076.7 5833.5 6007.6 5982 5699.3 6315.6 5623.1 6255.6 5575.3 6315.6 5623.1 6583.1 5836.5V6178.7L6315.6 6392.1 6390.4 6409.1 6315.6 6392.1 5982 6315.9" fill="#f8c499"/>
<path transform="matrix(.1,0,0,-.1,0,792)" stroke-width="12" stroke-linecap="butt" stroke-miterlimit="10" stroke-linejoin="miter" fill="none" stroke="#000000" d="M5833.5 6007.6 5800.2 6076.7 5833.5 6007.6 5982 5699.3 6315.6 5623.1 6255.6 5575.3 6315.6 5623.1 6583.1 5836.5V6178.7L6315.6 6392.1 6390.4 6409.1 6315.6 6392.1 5982 6315.9Z"/>
<path transform="matrix(.1,0,0,-.1,0,792)" d="M5766.9 7943.5 5800.2 7874.3 5766.9 7943.5 5898.9 8217.6 6195.6 8285.3 6270.4 8302.4 6195.6 8285.3 5957.7 8475.1V8932.9L6195.6 9122.6 6255.6 9170.4 6195.6 9122.6 5898.9 9190.3 5766.9 9464.5 5733.6 9533.6 5766.9 9464.5 5634.8 9190.3 5338.2 9122.6 5263.4 9105.5 5338.2 9122.6 5576.1 8932.9V8475.1L5338.2 8285.3 5278.2 8237.5 5338.2 8285.3 5634.8 8217.6" fill="#823d24"/>
<path transform="matrix(.1,0,0,-.1,0,792)" stroke-width="12" stroke-linecap="butt" stroke-miterlimit="10" stroke-linejoin="miter" fill="none" stroke="#000000" d="M5766.9 7943.5 5800.2 7874.3 5766.9 7943.5 5898.9 8217.6 6195.6 8285.3 6270.4 8302.4 6195.6 8285.3 5957.7 8475.1V8932.9L6195.6 9122.6 6255.6 9170.4 6195.6 9122.6 5898.9 9190.3 5766.9 9464.5 5733.6 9533.6 5766.9 9464.5 5634.8 9190.3 5338.2 9122.6 5263.4 9105.5 5338.2 9122.6 5576.1 8932.9V8475.1L5338.2 8285.3 5278.2 8237.5 5338.2 8285.3 5634.8 8217.6Z"/>
<path transform="matrix(.1,0,0,-.1,0,792)" d="M5833.5 7805.2 5800.2 7874.3 5833.5 7805.2 5982 7496.8 6315.6 7420.7 6255.6 7372.8 6315.6 7420.7 6583.1 7634.1V7976.3L6315.6 8189.6 6390.4 8206.7 6315.6 8189.6 5982 8113.5" fill="#f8c499"/>
<path transform="matrix(.1,0,0,-.1,0,792)" stroke-width="12" stroke-linecap="butt" stroke-miterlimit="10" stroke-linejoin="miter" fill="none" stroke="#000000" d="M5833.5 7805.2 5800.2 7874.3 5833.5 7805.2 5982 7496.8 6315.6 7420.7 6255.6 7372.8 6315.6 7420.7 6583.1 7634.1V7976.3L6315.6 8189.6 6390.4 8206.7 6315.6 8189.6 5982 8113.5Z"/>
<path transform="matrix(.1,0,0,-.1,0,792)" d="M65 6906.4 98.3008 6837.2 65 6906.4-83.3984 7214.7-417.102 7290.8-357.102 7338.7-417.102 7290.8-684.602 7077.5V6735.3L-417.102 6521.9-491.898 6504.8-417.102 6521.9-83.3984 6598.1" fill="#f8c499"/>
<path transform="matrix(.1,0,0,-.1,0,792)" stroke-width="12" stroke-linecap="butt" stroke-miterlimit="10" stroke-linejoin="miter" fill="none" stroke="#000000" d="M65 6906.4 98.3008 6837.2 65 6906.4-83.3984 7214.7-417.102 7290.8-357.102 7338.7-417.102 7290.8-684.602 7077.5V6735.3L-417.102 6521.9-491.898 6504.8-417.102 6521.9-83.3984 6598.1Z"/>
<path transform="matrix(.1,0,0,-.1,0,792)" d="M65 5108.8 98.3008 5039.6 65 5108.8-83.3984 5417.1-417.102 5493.3-357.102 5541.1-417.102 5493.3-684.602 5279.9V4937.7L-417.102 4724.3-491.898 4707.2-417.102 4724.3-83.3984 4800.5" fill="#f8c499"/>
<path transform="matrix(.1,0,0,-.1,0,792)" stroke-width="12" stroke-linecap="butt" stroke-miterlimit="10" stroke-linejoin="miter" fill="none" stroke="#000000" d="M65 5108.8 98.3008 5039.6 65 5108.8-83.3984 5417.1-417.102 5493.3-357.102 5541.1-417.102 5493.3-684.602 5279.9V4937.7L-417.102 4724.3-491.898 4707.2-417.102 4724.3-83.3984 4800.5Z"/>
<path transform="matrix(.1,0,0,-.1,0,792)" d="M65 3311.2 98.3008 3242.1 65 3311.2-83.3984 3619.5-417.102 3695.7-357.102 3743.5-417.102 3695.7-684.602 3482.3V3140.1L-417.102 2926.7-491.898 2909.7-417.102 2926.7-83.3984 3002.9" fill="#f8c499"/>
<path transform="matrix(.1,0,0,-.1,0,792)" stroke-width="12" stroke-linecap="butt" stroke-miterlimit="10" stroke-linejoin="miter" fill="none" stroke="#000000" d="M65 3311.2 98.3008 3242.1 65 3311.2-83.3984 3619.5-417.102 3695.7-357.102 3743.5-417.102 3695.7-684.602 3482.3V3140.1L-417.102 2926.7-491.898 2909.7-417.102 2926.7-83.3984 3002.9Z"/>
<path transform="matrix(.1,0,0,-.1,0,792)" d="M65 1513.6 98.3008 1444.5 65 1513.6-83.3984 1821.9-417.102 1898.1-357.102 1945.9-417.102 1898.1-684.602 1684.7V1342.5L-417.102 1129.2-491.898 1112.1-417.102 1129.2-83.3984 1205.3" fill="#f8c499"/>
<path transform="matrix(.1,0,0,-.1,0,792)" stroke-width="12" stroke-linecap="butt" stroke-miterlimit="10" stroke-linejoin="miter" fill="none" stroke="#000000" d="M65 1513.6 98.3008 1444.5 65 1513.6-83.3984 1821.9-417.102 1898.1-357.102 1945.9-417.102 1898.1-684.602 1684.7V1342.5L-417.102 1129.2-491.898 1112.1-417.102 1129.2-83.3984 1205.3Z"/>
<path transform="matrix(.1,0,0,-.1,0,792)" d="M680.301 100.5 755.199 117.602 680.301 100.5 346.699 24.3984 198.199-284 164.898-214.801 198.199-284 346.699-592.301 680.301-668.398 620.301-716.301 680.301-668.398 947.898-455.102V-112.898" fill="#f8c499"/>
<path transform="matrix(.1,0,0,-.1,0,792)" stroke-width="12" stroke-linecap="butt" stroke-miterlimit="10" stroke-linejoin="miter" fill="none" stroke="#000000" d="M680.301 100.5 755.199 117.602 680.301 100.5 346.699 24.3984 198.199-284 164.898-214.801 198.199-284 346.699-592.301 680.301-668.398 620.301-716.301 680.301-668.398 947.898-455.102V-112.898Z"/>
<path transform="matrix(.1,0,0,-.1,0,792)" d="M1837 100.5 1897 148.398 1837 100.5 1569.5-112.898V-455.102L1837-668.398 1762.2-685.5 1837-668.398 2170.7-592.301 2319.1-284 2352.4-353.102 2319.1-284 2170.7 24.3984" fill="#f8c499"/>
<path transform="matrix(.1,0,0,-.1,0,792)" stroke-width="12" stroke-linecap="butt" stroke-miterlimit="10" stroke-linejoin="miter" fill="none" stroke="#000000" d="M1837 100.5 1897 148.398 1837 100.5 1569.5-112.898V-455.102L1837-668.398 1762.2-685.5 1837-668.398 2170.7-592.301 2319.1-284 2352.4-353.102 2319.1-284 2170.7 24.3984Z"/>
<path transform="matrix(.1,0,0,-.1,0,792)" d="M2934.4 100.5 3009.3 117.602 2934.4 100.5 2600.8 24.3984 2452.3-284 2419-214.801 2452.3-284 2600.8-592.301 2934.4-668.398 2874.4-716.301 2934.4-668.398 3202-455.102V-112.898" fill="#f8c499"/>
<path transform="matrix(.1,0,0,-.1,0,792)" stroke-width="12" stroke-linecap="butt" stroke-miterlimit="10" stroke-linejoin="miter" fill="none" stroke="#000000" d="M2934.4 100.5 3009.3 117.602 2934.4 100.5 2600.8 24.3984 2452.3-284 2419-214.801 2452.3-284 2600.8-592.301 2934.4-668.398 2874.4-716.301 2934.4-668.398 3202-455.102V-112.898Z"/>
<path transform="matrix(.1,0,0,-.1,0,792)" d="M4091.1 100.5 4151.1 148.398 4091.1 100.5 3823.6-112.898V-455.102L4091.1-668.398 4016.3-685.5 4091.1-668.398 4424.8-592.301 4573.2-284 4606.5-353.102 4573.2-284 4424.8 24.3984" fill="#f8c499"/>
<path transform="matrix(.1,0,0,-.1,0,792)" stroke-width="12" stroke-linecap="butt" stroke-miterlimit="10" stroke-linejoin="miter" fill="none" stroke="#000000" d="M4091.1 100.5 4151.1 148.398 4091.1 100.5 3823.6-112.898V-455.102L4091.1-668.398 4016.3-685.5 4091.1-668.398 4424.8-592.301 4573.2-284 4606.5-353.102 4573.2-284 4424.8 24.3984Z"/>
<path transform="matrix(.1,0,0,-.1,0,792)" d="M5188.5 100.5 5263.4 117.602 5188.5 100.5 4854.9 24.3984 4706.4-284 4673.1-214.801 4706.4-284 4854.9-592.301 5188.5-668.398 5128.5-716.301 5188.5-668.398 5456.1-455.102V-112.898" fill="#f8c499"/>
<path transform="matrix(.1,0,0,-.1,0,792)" stroke-width="12" stroke-linecap="butt" stroke-miterlimit="10" stroke-linejoin="miter" fill="none" stroke="#000000" d="M5188.5 100.5 5263.4 117.602 5188.5 100.5 4854.9 24.3984 4706.4-284 4673.1-214.801 4706.4-284 4854.9-592.301 5188.5-668.398 5128.5-716.301 5188.5-668.398 5456.1-455.102V-112.898Z"/>
<path transform="matrix(.1,0,0,-.1,0,792)" d="M-83.3984 24.3984-417.102 100.5-357.102 148.398-417.102 100.5-684.602-112.898V-455.102L-417.102-668.398-491.898-685.5-417.102-668.398-83.3984-592.301 65-284 98.3008-353.102 65-284" fill="#f8c499"/>
<path transform="matrix(.1,0,0,-.1,0,792)" stroke-width="12" stroke-linecap="butt" stroke-miterlimit="10" stroke-linejoin="miter" fill="none" stroke="#000000" d="M-83.3984 24.3984-417.102 100.5-357.102 148.398-417.102 100.5-684.602-112.898V-455.102L-417.102-668.398-491.898-685.5-417.102-668.398-83.3984-592.301 65-284 98.3008-353.102 65-284Z"/>
<path transform="matrix(.1,0,0,-.1,0,792)" d="M6077.7 1342.5 6345.2 1129.2 6270.4 1112.1 6345.2 1129.2 6678.9 1205.3 6827.3 1513.6 6860.6 1444.5 6827.3 1513.6 6678.9 1821.9 6345.2 1898.1 6405.2 1945.9 6345.2 1898.1 6077.7 1684.7" fill="#f8c499"/>
<path transform="matrix(.1,0,0,-.1,0,792)" stroke-width="12" stroke-linecap="butt" stroke-miterlimit="10" stroke-linejoin="miter" fill="none" stroke="#000000" d="M6077.7 1342.5 6345.2 1129.2 6270.4 1112.1 6345.2 1129.2 6678.9 1205.3 6827.3 1513.6 6860.6 1444.5 6827.3 1513.6 6678.9 1821.9 6345.2 1898.1 6405.2 1945.9 6345.2 1898.1 6077.7 1684.7Z"/>
<path transform="matrix(.1,0,0,-.1,0,792)" d="M6077.7 3140.1 6345.2 2926.7 6270.4 2909.7 6345.2 2926.7 6678.9 3002.9 6827.3 3311.2 6860.6 3242.1 6827.3 3311.2 6678.9 3619.5 6345.2 3695.7 6405.2 3743.5 6345.2 3695.7 6077.7 3482.3" fill="#f8c499"/>
<path transform="matrix(.1,0,0,-.1,0,792)" stroke-width="12" stroke-linecap="butt" stroke-miterlimit="10" stroke-linejoin="miter" fill="none" stroke="#000000" d="M6077.7 3140.1 6345.2 2926.7 6270.4 2909.7 6345.2 2926.7 6678.9 3002.9 6827.3 3311.2 6860.6 3242.1 6827.3 3311.2 6678.9 3619.5 6345.2 3695.7 6405.2 3743.5 6345.2 3695.7 6077.7 3482.3Z"/>
<path transform="matrix(.1,0,0,-.1,0,792)" d="M6077.7 4937.7 6345.2 4724.3 6270.4 4707.2 6345.2 4724.3 6678.9 4800.5 6827.3 5108.8 6860.6 5039.6 6827.3 5108.8 6678.9 5417.1 6345.2 5493.3 6405.2 5541.1 6345.2 5493.3 6077.7 5279.9" fill="#f8c499"/>
<path transform="matrix(.1,0,0,-.1,0,792)" stroke-width="12" stroke-linecap="butt" stroke-miterlimit="10" stroke-linejoin="miter" fill="none" stroke="#000000" d="M6077.7 4937.7 6345.2 4724.3 6270.4 4707.2 6345.2 4724.3 6678.9 4800.5 6827.3 5108.8 6860.6 5039.6 6827.3 5108.8 6678.9 5417.1 6345.2 5493.3 6405.2 5541.1 6345.2 5493.3 6077.7 5279.9Z"/>
<path transform="matrix(.1,0,0,-.1,0,792)" d="M6077.7 6735.3 6345.2 6521.9 6270.4 6504.8 6345.2 6521.9 6678.9 6598.1 6827.3 6906.4 6860.6 6837.2 6827.3 6906.4 6678.9 7214.7 6345.2 7290.8 6405.2 7338.7 6345.2 7290.8 6077.7 7077.5" fill="#f8c499"/>
<path transform="matrix(.1,0,0,-.1,0,792)" stroke-width="12" stroke-linecap="butt" stroke-miterlimit="10" stroke-linejoin="miter" fill="none" stroke="#000000" d="M6077.7 6735.3 6345.2 6521.9 6270.4 6504.8 6345.2 6521.9 6678.9 6598.1 6827.3 6906.4 6860.6 6837.2 6827.3 6906.4 6678.9 7214.7 6345.2 7290.8 6405.2 7338.7 6345.2 7290.8 6077.7 7077.5Z"/>
<path transform="matrix(.1,0,0,-.1,0,792)" d="M6077.7-112.898V-455.102L6345.2-668.398 6270.4-685.5 6345.2-668.398 6678.9-592.301 6827.3-284 6860.6-353.102 6827.3-284 6678.9 24.3984 6345.2 100.5 6405.2 148.398 6345.2 100.5" fill="#f8c499"/>
<path transform="matrix(.1,0,0,-.1,0,792)" stroke-width="12" stroke-linecap="butt" stroke-miterlimit="10" stroke-linejoin="miter" fill="none" stroke="#000000" d="M6077.7-112.898V-455.102L6345.2-668.398 6270.4-685.5 6345.2-668.398 6678.9-592.301 6827.3-284 6860.6-353.102 6827.3-284 6678.9 24.3984 6345.2 100.5 6405.2 148.398 6345.2 100.5Z"/>
</svg>
