<svg xmlns="http://www.w3.org/2000/svg" xmlns:xlink="http://www.w3.org/1999/xlink" xmlns:inkscape="http://www.inkscape.org/namespaces/inkscape" version="1.1" width="612" height="792" viewBox="0 0 612 792">
<path transform="matrix(.1,0,0,-.1,0,792)" d="M1820.3 4210 2859.5 3610 3205.9 4210 2859.5 4810Z" fill="#b2a17a"/>
<path transform="matrix(.1,0,0,-.1,0,792)" stroke-width="15" stroke-linecap="butt" stroke-miterlimit="10" stroke-linejoin="miter" fill="none" stroke="#000000" d="M1820.3 4210 2859.5 3610 3205.9 4210 2859.5 4810Z"/>
<path transform="matrix(.1,0,0,-.1,0,792)" d="M3205.9 4210H4591.6L3898.8 5410 2859.5 4810Z" fill="#78f599"/>
<path transform="matrix(.1,0,0,-.1,0,792)" stroke-width="15" stroke-linecap="butt" stroke-miterlimit="10" stroke-linejoin="miter" fill="none" stroke="#000000" d="M3205.9 4210H4591.6L3898.8 5410 2859.5 4810Z"/>
<path transform="matrix(.1,0,0,-.1,0,792)" d="M3205.9 4210 2859.5 3610 3898.8 3010 4591.6 4210Z" fill="#a69e5e"/>
<path transform="matrix(.1,0,0,-.1,0,792)" stroke-width="15" stroke-linecap="butt" stroke-miterlimit="10" stroke-linejoin="miter" fill="none" stroke="#000000" d="M3205.9 4210 2859.5 3610 3898.8 3010 4591.6 4210Z"/>
<path transform="matrix(.1,0,0,-.1,0,792)" d="M2859.5 3610 2513.1 3010 3205.9 1810 3898.8 3010Z" fill="#78f599"/>
<path transform="matrix(.1,0,0,-.1,0,792)" stroke-width="15" stroke-linecap="butt" stroke-miterlimit="10" stroke-linejoin="miter" fill="none" stroke="#000000" d="M2859.5 3610 2513.1 3010 3205.9 1810 3898.8 3010Z"/>
<path transform="matrix(.1,0,0,-.1,0,792)" d="M2859.5 3610 1820.3 4210V3010H2513.1Z" fill="#b2a17a"/>
<path transform="matrix(.1,0,0,-.1,0,792)" stroke-width="15" stroke-linecap="butt" stroke-miterlimit="10" stroke-linejoin="miter" fill="none" stroke="#000000" d="M2859.5 3610 1820.3 4210V3010H2513.1Z"/>
<path transform="matrix(.1,0,0,-.1,0,792)" d="M2859.5 4810 2513.1 5410H1820.3V4210Z" fill="#b2a17a"/>
<path transform="matrix(.1,0,0,-.1,0,792)" stroke-width="15" stroke-linecap="butt" stroke-miterlimit="10" stroke-linejoin="miter" fill="none" stroke="#000000" d="M2859.5 4810 2513.1 5410H1820.3V4210Z"/>
<path transform="matrix(.1,0,0,-.1,0,792)" d="M2859.5 4810 3898.8 5410 3205.9 6610 2513.1 5410Z" fill="#a69e5e"/>
<path transform="matrix(.1,0,0,-.1,0,792)" stroke-width="15" stroke-linecap="butt" stroke-miterlimit="10" stroke-linejoin="miter" fill="none" stroke="#000000" d="M2859.5 4810 3898.8 5410 3205.9 6610 2513.1 5410Z"/>
<path transform="matrix(.1,0,0,-.1,0,792)" d="M2513.1 5410 3205.9 6610H1820.3V5410Z" fill="#78f599"/>
<path transform="matrix(.1,0,0,-.1,0,792)" stroke-width="15" stroke-linecap="butt" stroke-miterlimit="10" stroke-linejoin="miter" fill="none" stroke="#000000" d="M2513.1 5410 3205.9 6610H1820.3V5410Z"/>
<path transform="matrix(.1,0,0,-.1,0,792)" d="M2513.1 3010H1820.3V1810H3205.9Z" fill="#a69e5e"/>
<path transform="matrix(.1,0,0,-.1,0,792)" stroke-width="15" stroke-linecap="butt" stroke-miterlimit="10" stroke-linejoin="miter" fill="none" stroke="#000000" d="M2513.1 3010H1820.3V1810H3205.9Z"/>
<path transform="matrix(.1,0,0,-.1,0,792)" d="M3898.8 3010 4938 2410 5284.4 3010 4591.6 4210Z" fill="#78f599"/>
<path transform="matrix(.1,0,0,-.1,0,792)" stroke-width="15" stroke-linecap="butt" stroke-miterlimit="10" stroke-linejoin="miter" fill="none" stroke="#000000" d="M3898.8 3010 4938 2410 5284.4 3010 4591.6 4210Z"/>
<path transform="matrix(.1,0,0,-.1,0,792)" d="M3898.8 3010 3205.9 1810H4591.6L4938 2410Z" fill="#a69e5e"/>
<path transform="matrix(.1,0,0,-.1,0,792)" stroke-width="15" stroke-linecap="butt" stroke-miterlimit="10" stroke-linejoin="miter" fill="none" stroke="#000000" d="M3898.8 3010 3205.9 1810H4591.6L4938 2410Z"/>
<path transform="matrix(.1,0,0,-.1,0,792)" d="M3898.8 5410 4938 6010 4591.6 6610H3205.9Z" fill="#78f599"/>
<path transform="matrix(.1,0,0,-.1,0,792)" stroke-width="15" stroke-linecap="butt" stroke-miterlimit="10" stroke-linejoin="miter" fill="none" stroke="#000000" d="M3898.8 5410 4938 6010 4591.6 6610H3205.9Z"/>
<path transform="matrix(.1,0,0,-.1,0,792)" d="M3898.8 5410 4591.6 4210 5284.4 5410 4938 6010Z" fill="#a69e5e"/>
<path transform="matrix(.1,0,0,-.1,0,792)" stroke-width="15" stroke-linecap="butt" stroke-miterlimit="10" stroke-linejoin="miter" fill="none" stroke="#000000" d="M3898.8 5410 4591.6 4210 5284.4 5410 4938 6010Z"/>
<path transform="matrix(.1,0,0,-.1,0,792)" d="M1820.3 5410H1127.5L781.102 4810 1820.3 4210Z" fill="#b2a17a"/>
<path transform="matrix(.1,0,0,-.1,0,792)" stroke-width="15" stroke-linecap="butt" stroke-miterlimit="10" stroke-linejoin="miter" fill="none" stroke="#000000" d="M1820.3 5410H1127.5L781.102 4810 1820.3 4210Z"/>
<path transform="matrix(.1,0,0,-.1,0,792)" d="M1820.3 5410V6610H434.699L1127.5 5410Z" fill="#a69e5e"/>
<path transform="matrix(.1,0,0,-.1,0,792)" stroke-width="15" stroke-linecap="butt" stroke-miterlimit="10" stroke-linejoin="miter" fill="none" stroke="#000000" d="M1820.3 5410V6610H434.699L1127.5 5410Z"/>
<path transform="matrix(.1,0,0,-.1,0,792)" d="M1820.3 4210 781.102 3610 1127.5 3010H1820.3Z" fill="#b2a17a"/>
<path transform="matrix(.1,0,0,-.1,0,792)" stroke-width="15" stroke-linecap="butt" stroke-miterlimit="10" stroke-linejoin="miter" fill="none" stroke="#000000" d="M1820.3 4210 781.102 3610 1127.5 3010H1820.3Z"/>
<path transform="matrix(.1,0,0,-.1,0,792)" d="M1820.3 4210 781.102 4810 434.699 4210 781.102 3610Z" fill="#b2a17a"/>
<path transform="matrix(.1,0,0,-.1,0,792)" stroke-width="15" stroke-linecap="butt" stroke-miterlimit="10" stroke-linejoin="miter" fill="none" stroke="#000000" d="M1820.3 4210 781.102 4810 434.699 4210 781.102 3610Z"/>
<path transform="matrix(.1,0,0,-.1,0,792)" d="M1820.3 3010H1127.5L434.699 1810H1820.3Z" fill="#78f599"/>
<path transform="matrix(.1,0,0,-.1,0,792)" stroke-width="15" stroke-linecap="butt" stroke-miterlimit="10" stroke-linejoin="miter" fill="none" stroke="#000000" d="M1820.3 3010H1127.5L434.699 1810H1820.3Z"/>
<path transform="matrix(.1,0,0,-.1,0,792)" d="M4591.6 4210H5977.2V5410H5284.4Z" fill="#78f599"/>
<path transform="matrix(.1,0,0,-.1,0,792)" stroke-width="15" stroke-linecap="butt" stroke-miterlimit="10" stroke-linejoin="miter" fill="none" stroke="#000000" d="M4591.6 4210H5977.2V5410H5284.4Z"/>
<path transform="matrix(.1,0,0,-.1,0,792)" d="M4591.6 4210 5284.4 3010H5977.2V4210Z" fill="#a69e5e"/>
<path transform="matrix(.1,0,0,-.1,0,792)" stroke-width="15" stroke-linecap="butt" stroke-miterlimit="10" stroke-linejoin="miter" fill="none" stroke="#000000" d="M4591.6 4210 5284.4 3010H5977.2V4210Z"/>
<path transform="matrix(.1,0,0,-.1,0,792)" d="M4591.6 6610 4938 7210 3898.8 7810 3205.9 6610Z" fill="#a69e5e"/>
<path transform="matrix(.1,0,0,-.1,0,792)" stroke-width="15" stroke-linecap="butt" stroke-miterlimit="10" stroke-linejoin="miter" fill="none" stroke="#000000" d="M4591.6 6610 4938 7210 3898.8 7810 3205.9 6610Z"/>
<path transform="matrix(.1,0,0,-.1,0,792)" d="M4591.6 6610 4938 6010 5977.2 6610 4938 7210Z" fill="#b2a17a"/>
<path transform="matrix(.1,0,0,-.1,0,792)" stroke-width="15" stroke-linecap="butt" stroke-miterlimit="10" stroke-linejoin="miter" fill="none" stroke="#000000" d="M4591.6 6610 4938 6010 5977.2 6610 4938 7210Z"/>
<path transform="matrix(.1,0,0,-.1,0,792)" d="M3205.9 6610 2513.1 7810H1820.3V6610Z" fill="#a69e5e"/>
<path transform="matrix(.1,0,0,-.1,0,792)" stroke-width="15" stroke-linecap="butt" stroke-miterlimit="10" stroke-linejoin="miter" fill="none" stroke="#000000" d="M3205.9 6610 2513.1 7810H1820.3V6610Z"/>
<path transform="matrix(.1,0,0,-.1,0,792)" d="M3205.9 6610 3898.8 7810 2859.5 8410 2513.1 7810Z" fill="#78f599"/>
<path transform="matrix(.1,0,0,-.1,0,792)" stroke-width="15" stroke-linecap="butt" stroke-miterlimit="10" stroke-linejoin="miter" fill="none" stroke="#000000" d="M3205.9 6610 3898.8 7810 2859.5 8410 2513.1 7810Z"/>
<path transform="matrix(.1,0,0,-.1,0,792)" d="M1820.3 6610V7810H1127.5L434.699 6610Z" fill="#78f599"/>
<path transform="matrix(.1,0,0,-.1,0,792)" stroke-width="15" stroke-linecap="butt" stroke-miterlimit="10" stroke-linejoin="miter" fill="none" stroke="#000000" d="M1820.3 6610V7810H1127.5L434.699 6610Z"/>
<path transform="matrix(.1,0,0,-.1,0,792)" d="M1820.3 1810V610H2513.1L3205.9 1810Z" fill="#78f599"/>
<path transform="matrix(.1,0,0,-.1,0,792)" stroke-width="15" stroke-linecap="butt" stroke-miterlimit="10" stroke-linejoin="miter" fill="none" stroke="#000000" d="M1820.3 1810V610H2513.1L3205.9 1810Z"/>
<path transform="matrix(.1,0,0,-.1,0,792)" d="M1820.3 1810H434.699L1127.5 610H1820.3Z" fill="#a69e5e"/>
<path transform="matrix(.1,0,0,-.1,0,792)" stroke-width="15" stroke-linecap="butt" stroke-miterlimit="10" stroke-linejoin="miter" fill="none" stroke="#000000" d="M1820.3 1810H434.699L1127.5 610H1820.3Z"/>
<path transform="matrix(.1,0,0,-.1,0,792)" d="M3205.9 1810 3898.8 610 4938 1210 4591.6 1810Z" fill="#78f599"/>
<path transform="matrix(.1,0,0,-.1,0,792)" stroke-width="15" stroke-linecap="butt" stroke-miterlimit="10" stroke-linejoin="miter" fill="none" stroke="#000000" d="M3205.9 1810 3898.8 610 4938 1210 4591.6 1810Z"/>
<path transform="matrix(.1,0,0,-.1,0,792)" d="M3205.9 1810 2513.1 610 2859.5 10 3898.8 610Z" fill="#a69e5e"/>
<path transform="matrix(.1,0,0,-.1,0,792)" stroke-width="15" stroke-linecap="butt" stroke-miterlimit="10" stroke-linejoin="miter" fill="none" stroke="#000000" d="M3205.9 1810 2513.1 610 2859.5 10 3898.8 610Z"/>
<path transform="matrix(.1,0,0,-.1,0,792)" d="M4591.6 1810 4938 1210 5977.2 1810 4938 2410Z" fill="#b2a17a"/>
<path transform="matrix(.1,0,0,-.1,0,792)" stroke-width="15" stroke-linecap="butt" stroke-miterlimit="10" stroke-linejoin="miter" fill="none" stroke="#000000" d="M4591.6 1810 4938 1210 5977.2 1810 4938 2410Z"/>
<path transform="matrix(.1,0,0,-.1,0,792)" d="M1127.5 5410 434.699 6610-258.199 5410 781.102 4810Z" fill="#78f599"/>
<path transform="matrix(.1,0,0,-.1,0,792)" stroke-width="15" stroke-linecap="butt" stroke-miterlimit="10" stroke-linejoin="miter" fill="none" stroke="#000000" d="M1127.5 5410 434.699 6610-258.199 5410 781.102 4810Z"/>
<path transform="matrix(.1,0,0,-.1,0,792)" d="M1127.5 3010 781.102 3610-258.199 3010 434.699 1810Z" fill="#a69e5e"/>
<path transform="matrix(.1,0,0,-.1,0,792)" stroke-width="15" stroke-linecap="butt" stroke-miterlimit="10" stroke-linejoin="miter" fill="none" stroke="#000000" d="M1127.5 3010 781.102 3610-258.199 3010 434.699 1810Z"/>
<path transform="matrix(.1,0,0,-.1,0,792)" d="M4938 2410 5977.2 1810V3010H5284.4Z" fill="#b2a17a"/>
<path transform="matrix(.1,0,0,-.1,0,792)" stroke-width="15" stroke-linecap="butt" stroke-miterlimit="10" stroke-linejoin="miter" fill="none" stroke="#000000" d="M4938 2410 5977.2 1810V3010H5284.4Z"/>
<path transform="matrix(.1,0,0,-.1,0,792)" d="M4938 6010 5284.4 5410H5977.2V6610Z" fill="#b2a17a"/>
<path transform="matrix(.1,0,0,-.1,0,792)" stroke-width="15" stroke-linecap="butt" stroke-miterlimit="10" stroke-linejoin="miter" fill="none" stroke="#000000" d="M4938 6010 5284.4 5410H5977.2V6610Z"/>
<path transform="matrix(.1,0,0,-.1,0,792)" d="M4938 7210 5284.4 7810 4591.6 9010 3898.8 7810Z" fill="#78f599"/>
<path transform="matrix(.1,0,0,-.1,0,792)" stroke-width="15" stroke-linecap="butt" stroke-miterlimit="10" stroke-linejoin="miter" fill="none" stroke="#000000" d="M4938 7210 5284.4 7810 4591.6 9010 3898.8 7810Z"/>
<path transform="matrix(.1,0,0,-.1,0,792)" d="M4938 7210 5977.2 6610V7810H5284.4Z" fill="#b2a17a"/>
<path transform="matrix(.1,0,0,-.1,0,792)" stroke-width="15" stroke-linecap="butt" stroke-miterlimit="10" stroke-linejoin="miter" fill="none" stroke="#000000" d="M4938 7210 5977.2 6610V7810H5284.4Z"/>
<path transform="matrix(.1,0,0,-.1,0,792)" d="M4938 1210 5284.4 610H5977.2V1810Z" fill="#b2a17a"/>
<path transform="matrix(.1,0,0,-.1,0,792)" stroke-width="15" stroke-linecap="butt" stroke-miterlimit="10" stroke-linejoin="miter" fill="none" stroke="#000000" d="M4938 1210 5284.4 610H5977.2V1810Z"/>
<path transform="matrix(.1,0,0,-.1,0,792)" d="M4938 1210 3898.8 610 4591.6-590 5284.4 610Z" fill="#a69e5e"/>
<path transform="matrix(.1,0,0,-.1,0,792)" stroke-width="15" stroke-linecap="butt" stroke-miterlimit="10" stroke-linejoin="miter" fill="none" stroke="#000000" d="M4938 1210 3898.8 610 4591.6-590 5284.4 610Z"/>
<path transform="matrix(.1,0,0,-.1,0,792)" d="M781.102 4810-258.199 5410-951 4210H434.699Z" fill="#a69e5e"/>
<path transform="matrix(.1,0,0,-.1,0,792)" stroke-width="15" stroke-linecap="butt" stroke-miterlimit="10" stroke-linejoin="miter" fill="none" stroke="#000000" d="M781.102 4810-258.199 5410-951 4210H434.699Z"/>
<path transform="matrix(.1,0,0,-.1,0,792)" d="M781.102 3610 434.699 4210H-951L-258.199 3010Z" fill="#78f599"/>
<path transform="matrix(.1,0,0,-.1,0,792)" stroke-width="15" stroke-linecap="butt" stroke-miterlimit="10" stroke-linejoin="miter" fill="none" stroke="#000000" d="M781.102 3610 434.699 4210H-951L-258.199 3010Z"/>
<path transform="matrix(.1,0,0,-.1,0,792)" d="M434.699 1810-258.199 610 781.102 10 1127.5 610Z" fill="#78f599"/>
<path transform="matrix(.1,0,0,-.1,0,792)" stroke-width="15" stroke-linecap="butt" stroke-miterlimit="10" stroke-linejoin="miter" fill="none" stroke="#000000" d="M434.699 1810-258.199 610 781.102 10 1127.5 610Z"/>
<path transform="matrix(.1,0,0,-.1,0,792)" d="M434.699 1810H-951L-1297.4 1210-258.199 610Z" fill="#a69e5e"/>
<path transform="matrix(.1,0,0,-.1,0,792)" stroke-width="15" stroke-linecap="butt" stroke-miterlimit="10" stroke-linejoin="miter" fill="none" stroke="#000000" d="M434.699 1810H-951L-1297.4 1210-258.199 610Z"/>
<path transform="matrix(.1,0,0,-.1,0,792)" d="M434.699 1810-258.199 3010-1297.4 2410-951 1810Z" fill="#78f599"/>
<path transform="matrix(.1,0,0,-.1,0,792)" stroke-width="15" stroke-linecap="butt" stroke-miterlimit="10" stroke-linejoin="miter" fill="none" stroke="#000000" d="M434.699 1810-258.199 3010-1297.4 2410-951 1810Z"/>
<path transform="matrix(.1,0,0,-.1,0,792)" d="M434.699 6610H-951L-1297.4 6010-258.199 5410Z" fill="#a69e5e"/>
<path transform="matrix(.1,0,0,-.1,0,792)" stroke-width="15" stroke-linecap="butt" stroke-miterlimit="10" stroke-linejoin="miter" fill="none" stroke="#000000" d="M434.699 6610H-951L-1297.4 6010-258.199 5410Z"/>
<path transform="matrix(.1,0,0,-.1,0,792)" d="M434.699 6610-258.199 7810-1297.4 7210-951 6610Z" fill="#78f599"/>
<path transform="matrix(.1,0,0,-.1,0,792)" stroke-width="15" stroke-linecap="butt" stroke-miterlimit="10" stroke-linejoin="miter" fill="none" stroke="#000000" d="M434.699 6610-258.199 7810-1297.4 7210-951 6610Z"/>
<path transform="matrix(.1,0,0,-.1,0,792)" d="M434.699 6610 1127.5 7810 781.102 8410-258.199 7810Z" fill="#a69e5e"/>
<path transform="matrix(.1,0,0,-.1,0,792)" stroke-width="15" stroke-linecap="butt" stroke-miterlimit="10" stroke-linejoin="miter" fill="none" stroke="#000000" d="M434.699 6610 1127.5 7810 781.102 8410-258.199 7810Z"/>
<path transform="matrix(.1,0,0,-.1,0,792)" d="M1820.3 7810V9010L781.102 8410 1127.5 7810Z" fill="#b2a17a"/>
<path transform="matrix(.1,0,0,-.1,0,792)" stroke-width="15" stroke-linecap="butt" stroke-miterlimit="10" stroke-linejoin="miter" fill="none" stroke="#000000" d="M1820.3 7810V9010L781.102 8410 1127.5 7810Z"/>
<path transform="matrix(.1,0,0,-.1,0,792)" d="M2513.1 7810 2859.5 8410 1820.3 9010V7810Z" fill="#b2a17a"/>
<path transform="matrix(.1,0,0,-.1,0,792)" stroke-width="15" stroke-linecap="butt" stroke-miterlimit="10" stroke-linejoin="miter" fill="none" stroke="#000000" d="M2513.1 7810 2859.5 8410 1820.3 9010V7810Z"/>
<path transform="matrix(.1,0,0,-.1,0,792)" d="M3898.8 7810 4591.6 9010H3205.9L2859.5 8410Z" fill="#a69e5e"/>
<path transform="matrix(.1,0,0,-.1,0,792)" stroke-width="15" stroke-linecap="butt" stroke-miterlimit="10" stroke-linejoin="miter" fill="none" stroke="#000000" d="M3898.8 7810 4591.6 9010H3205.9L2859.5 8410Z"/>
<path transform="matrix(.1,0,0,-.1,0,792)" d="M5284.4 7810H5977.2V9010H4591.6Z" fill="#a69e5e"/>
<path transform="matrix(.1,0,0,-.1,0,792)" stroke-width="15" stroke-linecap="butt" stroke-miterlimit="10" stroke-linejoin="miter" fill="none" stroke="#000000" d="M5284.4 7810H5977.2V9010H4591.6Z"/>
<path transform="matrix(.1,0,0,-.1,0,792)" d="M1127.5 610 781.102 10 1820.3-590V610Z" fill="#b2a17a"/>
<path transform="matrix(.1,0,0,-.1,0,792)" stroke-width="15" stroke-linecap="butt" stroke-miterlimit="10" stroke-linejoin="miter" fill="none" stroke="#000000" d="M1127.5 610 781.102 10 1820.3-590V610Z"/>
<path transform="matrix(.1,0,0,-.1,0,792)" d="M1820.3 610V-590L2859.5 10 2513.1 610Z" fill="#b2a17a"/>
<path transform="matrix(.1,0,0,-.1,0,792)" stroke-width="15" stroke-linecap="butt" stroke-miterlimit="10" stroke-linejoin="miter" fill="none" stroke="#000000" d="M1820.3 610V-590L2859.5 10 2513.1 610Z"/>
<path transform="matrix(.1,0,0,-.1,0,792)" d="M3898.8 610 2859.5 10 3205.9-590H4591.6Z" fill="#78f599"/>
<path transform="matrix(.1,0,0,-.1,0,792)" stroke-width="15" stroke-linecap="butt" stroke-miterlimit="10" stroke-linejoin="miter" fill="none" stroke="#000000" d="M3898.8 610 2859.5 10 3205.9-590H4591.6Z"/>
<path transform="matrix(.1,0,0,-.1,0,792)" d="M5284.4 610 4591.6-590H5977.2V610Z" fill="#78f599"/>
<path transform="matrix(.1,0,0,-.1,0,792)" stroke-width="15" stroke-linecap="butt" stroke-miterlimit="10" stroke-linejoin="miter" fill="none" stroke="#000000" d="M5284.4 610 4591.6-590H5977.2V610Z"/>
<path transform="matrix(.1,0,0,-.1,0,792)" d="M5977.2 610H6670L7016.5 1210 5977.2 1810Z" fill="#b2a17a"/>
<path transform="matrix(.1,0,0,-.1,0,792)" stroke-width="15" stroke-linecap="butt" stroke-miterlimit="10" stroke-linejoin="miter" fill="none" stroke="#000000" d="M5977.2 610H6670L7016.5 1210 5977.2 1810Z"/>
<path transform="matrix(.1,0,0,-.1,0,792)" d="M5977.2 610V-590H7362.9L6670 610Z" fill="#a69e5e"/>
<path transform="matrix(.1,0,0,-.1,0,792)" stroke-width="15" stroke-linecap="butt" stroke-miterlimit="10" stroke-linejoin="miter" fill="none" stroke="#000000" d="M5977.2 610V-590H7362.9L6670 610Z"/>
<path transform="matrix(.1,0,0,-.1,0,792)" d="M5977.2 1810 7016.5 2410 6670 3010H5977.2Z" fill="#b2a17a"/>
<path transform="matrix(.1,0,0,-.1,0,792)" stroke-width="15" stroke-linecap="butt" stroke-miterlimit="10" stroke-linejoin="miter" fill="none" stroke="#000000" d="M5977.2 1810 7016.5 2410 6670 3010H5977.2Z"/>
<path transform="matrix(.1,0,0,-.1,0,792)" d="M5977.2 1810 7016.5 1210 7362.9 1810 7016.5 2410Z" fill="#b2a17a"/>
<path transform="matrix(.1,0,0,-.1,0,792)" stroke-width="15" stroke-linecap="butt" stroke-miterlimit="10" stroke-linejoin="miter" fill="none" stroke="#000000" d="M5977.2 1810 7016.5 1210 7362.9 1810 7016.5 2410Z"/>
<path transform="matrix(.1,0,0,-.1,0,792)" d="M5977.2 3010H6670L7362.9 4210H5977.2Z" fill="#78f599"/>
<path transform="matrix(.1,0,0,-.1,0,792)" stroke-width="15" stroke-linecap="butt" stroke-miterlimit="10" stroke-linejoin="miter" fill="none" stroke="#000000" d="M5977.2 3010H6670L7362.9 4210H5977.2Z"/>
<path transform="matrix(.1,0,0,-.1,0,792)" d="M5977.2 4210H7362.9L6670 5410H5977.2Z" fill="#a69e5e"/>
<path transform="matrix(.1,0,0,-.1,0,792)" stroke-width="15" stroke-linecap="butt" stroke-miterlimit="10" stroke-linejoin="miter" fill="none" stroke="#000000" d="M5977.2 4210H7362.9L6670 5410H5977.2Z"/>
<path transform="matrix(.1,0,0,-.1,0,792)" d="M5977.2 5410H6670L7016.5 6010 5977.2 6610Z" fill="#b2a17a"/>
<path transform="matrix(.1,0,0,-.1,0,792)" stroke-width="15" stroke-linecap="butt" stroke-miterlimit="10" stroke-linejoin="miter" fill="none" stroke="#000000" d="M5977.2 5410H6670L7016.5 6010 5977.2 6610Z"/>
<path transform="matrix(.1,0,0,-.1,0,792)" d="M5977.2 6610 7016.5 7210 6670 7810H5977.2Z" fill="#b2a17a"/>
<path transform="matrix(.1,0,0,-.1,0,792)" stroke-width="15" stroke-linecap="butt" stroke-miterlimit="10" stroke-linejoin="miter" fill="none" stroke="#000000" d="M5977.2 6610 7016.5 7210 6670 7810H5977.2Z"/>
<path transform="matrix(.1,0,0,-.1,0,792)" d="M5977.2 6610 7016.5 6010 7362.9 6610 7016.5 7210Z" fill="#b2a17a"/>
<path transform="matrix(.1,0,0,-.1,0,792)" stroke-width="15" stroke-linecap="butt" stroke-miterlimit="10" stroke-linejoin="miter" fill="none" stroke="#000000" d="M5977.2 6610 7016.5 6010 7362.9 6610 7016.5 7210Z"/>
<path transform="matrix(.1,0,0,-.1,0,792)" d="M5977.2 7810H6670L7362.9 9010H5977.2Z" fill="#78f599"/>
<path transform="matrix(.1,0,0,-.1,0,792)" stroke-width="15" stroke-linecap="butt" stroke-miterlimit="10" stroke-linejoin="miter" fill="none" stroke="#000000" d="M5977.2 7810H6670L7362.9 9010H5977.2Z"/>
<path transform="matrix(.1,0,0,-.1,0,792)" d="M781.102 8410 434.699 9010H-951L-258.199 7810Z" fill="#78f599"/>
<path transform="matrix(.1,0,0,-.1,0,792)" stroke-width="15" stroke-linecap="butt" stroke-miterlimit="10" stroke-linejoin="miter" fill="none" stroke="#000000" d="M781.102 8410 434.699 9010H-951L-258.199 7810Z"/>
<path transform="matrix(.1,0,0,-.1,0,792)" d="M781.102 10 434.699-590 781.102-1190 1820.3-590Z" fill="#b2a17a"/>
<path transform="matrix(.1,0,0,-.1,0,792)" stroke-width="15" stroke-linecap="butt" stroke-miterlimit="10" stroke-linejoin="miter" fill="none" stroke="#000000" d="M781.102 10 434.699-590 781.102-1190 1820.3-590Z"/>
<path transform="matrix(.1,0,0,-.1,0,792)" d="M781.102 10-258.199 610-951-590H434.699Z" fill="#a69e5e"/>
<path transform="matrix(.1,0,0,-.1,0,792)" stroke-width="15" stroke-linecap="butt" stroke-miterlimit="10" stroke-linejoin="miter" fill="none" stroke="#000000" d="M781.102 10-258.199 610-951-590H434.699Z"/>
<path transform="matrix(.1,0,0,-.1,0,792)" d="M2859.5 10 1820.3-590 2859.5-1190 3205.9-590Z" fill="#b2a17a"/>
<path transform="matrix(.1,0,0,-.1,0,792)" stroke-width="15" stroke-linecap="butt" stroke-miterlimit="10" stroke-linejoin="miter" fill="none" stroke="#000000" d="M2859.5 10 1820.3-590 2859.5-1190 3205.9-590Z"/>
</svg>
