<svg xmlns="http://www.w3.org/2000/svg" xmlns:xlink="http://www.w3.org/1999/xlink" xmlns:inkscape="http://www.inkscape.org/namespaces/inkscape" version="1.1" width="612" height="792" viewBox="0 0 612 792">
<path transform="matrix(.1,0,0,-.1,0,792)" d="M2975 3695 3116.4 3836.4H3316.4V4036.4L3457.8 4177.8 3316.4 4319.2V4519.2H3116.4L2975 4660.7 2833.6 4519.2H2633.6V4319.2L2492.2 4177.8 2633.6 4036.4V3836.4H2833.6"/>
<path transform="matrix(.1,0,0,-.1,0,792)" stroke-width="1" stroke-linecap="butt" stroke-miterlimit="10" stroke-linejoin="miter" fill="none" stroke="#000000" d="M2975 3695 3116.4 3836.4H3316.4V4036.4L3457.8 4177.8 3316.4 4319.2V4519.2H3116.4L2975 4660.7 2833.6 4519.2H2633.6V4319.2L2492.2 4177.8 2633.6 4036.4V3836.4H2833.6Z"/>
<path transform="matrix(.1,0,0,-.1,0,792)" d="M3116.4 4519.2H3316.4V5002.1L2975 4660.7Z" fill="#ffffff"/>
<path transform="matrix(.1,0,0,-.1,0,792)" stroke-width="1" stroke-linecap="butt" stroke-miterlimit="10" stroke-linejoin="miter" fill="none" stroke="#000000" d="M3116.4 4519.2H3316.4V5002.1L2975 4660.7Z"/>
<path transform="matrix(.1,0,0,-.1,0,792)" d="M2833.6 4519.2 2975 4660.7 2633.6 5002.1V4519.2Z" fill="#ffffff"/>
<path transform="matrix(.1,0,0,-.1,0,792)" stroke-width="1" stroke-linecap="butt" stroke-miterlimit="10" stroke-linejoin="miter" fill="none" stroke="#000000" d="M2833.6 4519.2 2975 4660.7 2633.6 5002.1V4519.2Z"/>
<path transform="matrix(.1,0,0,-.1,0,792)" d="M2833.6 3836.4H2633.6V3353.5L2975 3695Z" fill="#ffffff"/>
<path transform="matrix(.1,0,0,-.1,0,792)" stroke-width="1" stroke-linecap="butt" stroke-miterlimit="10" stroke-linejoin="miter" fill="none" stroke="#000000" d="M2833.6 3836.4H2633.6V3353.5L2975 3695Z"/>
<path transform="matrix(.1,0,0,-.1,0,792)" d="M3116.4 3836.4 2975 3695 3316.4 3353.5V3836.4Z" fill="#ffffff"/>
<path transform="matrix(.1,0,0,-.1,0,792)" stroke-width="1" stroke-linecap="butt" stroke-miterlimit="10" stroke-linejoin="miter" fill="none" stroke="#000000" d="M3116.4 3836.4 2975 3695 3316.4 3353.5V3836.4Z"/>
<path transform="matrix(.1,0,0,-.1,0,792)" d="M2975 4660.7 3316.4 5002.1V5684.9L2975 6026.3 2633.6 5684.9V5002.1" fill="#99b2ff"/>
<path transform="matrix(.1,0,0,-.1,0,792)" stroke-width="1" stroke-linecap="butt" stroke-miterlimit="10" stroke-linejoin="miter" fill="none" stroke="#000000" d="M2975 4660.7 3316.4 5002.1V5684.9L2975 6026.3 2633.6 5684.9V5002.1Z"/>
<path transform="matrix(.1,0,0,-.1,0,792)" d="M3316.4 4519.2H3799.3L4282.1 5002.1V5484.9H3799.3L3316.4 5002.1" fill="#99b2ff"/>
<path transform="matrix(.1,0,0,-.1,0,792)" stroke-width="1" stroke-linecap="butt" stroke-miterlimit="10" stroke-linejoin="miter" fill="none" stroke="#000000" d="M3316.4 4519.2H3799.3L4282.1 5002.1V5484.9H3799.3L3316.4 5002.1Z"/>
<path transform="matrix(.1,0,0,-.1,0,792)" d="M3316.4 4319.2 3457.8 4177.8 3799.3 4519.2H3316.4Z" fill="#ffffff"/>
<path transform="matrix(.1,0,0,-.1,0,792)" stroke-width="1" stroke-linecap="butt" stroke-miterlimit="10" stroke-linejoin="miter" fill="none" stroke="#000000" d="M3316.4 4319.2 3457.8 4177.8 3799.3 4519.2H3316.4Z"/>
<path transform="matrix(.1,0,0,-.1,0,792)" d="M3316.4 4036.4V3836.4H3799.3L3457.8 4177.8Z" fill="#ffffff"/>
<path transform="matrix(.1,0,0,-.1,0,792)" stroke-width="1" stroke-linecap="butt" stroke-miterlimit="10" stroke-linejoin="miter" fill="none" stroke="#000000" d="M3316.4 4036.4V3836.4H3799.3L3457.8 4177.8Z"/>
<path transform="matrix(.1,0,0,-.1,0,792)" d="M3316.4 3836.4V3353.5L3799.3 2870.7H4282.1V3353.5L3799.3 3836.4" fill="#99b2ff"/>
<path transform="matrix(.1,0,0,-.1,0,792)" stroke-width="1" stroke-linecap="butt" stroke-miterlimit="10" stroke-linejoin="miter" fill="none" stroke="#000000" d="M3316.4 3836.4V3353.5L3799.3 2870.7H4282.1V3353.5L3799.3 3836.4Z"/>
<path transform="matrix(.1,0,0,-.1,0,792)" d="M2633.6 4519.2H2150.7L2492.2 4177.8 2633.6 4319.2Z" fill="#ffffff"/>
<path transform="matrix(.1,0,0,-.1,0,792)" stroke-width="1" stroke-linecap="butt" stroke-miterlimit="10" stroke-linejoin="miter" fill="none" stroke="#000000" d="M2633.6 4519.2H2150.7L2492.2 4177.8 2633.6 4319.2Z"/>
<path transform="matrix(.1,0,0,-.1,0,792)" d="M2633.6 4519.2V5002.1L2150.7 5484.9H1667.9V5002.1L2150.7 4519.2" fill="#99b2ff"/>
<path transform="matrix(.1,0,0,-.1,0,792)" stroke-width="1" stroke-linecap="butt" stroke-miterlimit="10" stroke-linejoin="miter" fill="none" stroke="#000000" d="M2633.6 4519.2V5002.1L2150.7 5484.9H1667.9V5002.1L2150.7 4519.2Z"/>
<path transform="matrix(.1,0,0,-.1,0,792)" d="M2633.6 4036.4 2492.2 4177.8 2150.7 3836.4H2633.6Z" fill="#ffffff"/>
<path transform="matrix(.1,0,0,-.1,0,792)" stroke-width="1" stroke-linecap="butt" stroke-miterlimit="10" stroke-linejoin="miter" fill="none" stroke="#000000" d="M2633.6 4036.4 2492.2 4177.8 2150.7 3836.4H2633.6Z"/>
<path transform="matrix(.1,0,0,-.1,0,792)" d="M2633.6 3836.4H2150.7L1667.9 3353.5V2870.7H2150.7L2633.6 3353.5" fill="#99b2ff"/>
<path transform="matrix(.1,0,0,-.1,0,792)" stroke-width="1" stroke-linecap="butt" stroke-miterlimit="10" stroke-linejoin="miter" fill="none" stroke="#000000" d="M2633.6 3836.4H2150.7L1667.9 3353.5V2870.7H2150.7L2633.6 3353.5Z"/>
<path transform="matrix(.1,0,0,-.1,0,792)" d="M2975 3695 2633.6 3353.5V2670.7L2975 2329.3 3316.4 2670.7V3353.5" fill="#99b2ff"/>
<path transform="matrix(.1,0,0,-.1,0,792)" stroke-width="1" stroke-linecap="butt" stroke-miterlimit="10" stroke-linejoin="miter" fill="none" stroke="#000000" d="M2975 3695 2633.6 3353.5V2670.7L2975 2329.3 3316.4 2670.7V3353.5Z"/>
<path transform="matrix(.1,0,0,-.1,0,792)" d="M3457.8 4177.8 3799.3 3836.4H4482.1L4823.5 4177.8 4482.1 4519.2H3799.3" fill="#99b2ff"/>
<path transform="matrix(.1,0,0,-.1,0,792)" stroke-width="1" stroke-linecap="butt" stroke-miterlimit="10" stroke-linejoin="miter" fill="none" stroke="#000000" d="M3457.8 4177.8 3799.3 3836.4H4482.1L4823.5 4177.8 4482.1 4519.2H3799.3Z"/>
<path transform="matrix(.1,0,0,-.1,0,792)" d="M2492.2 4177.8 2150.7 4519.2H1467.9L1126.5 4177.8 1467.9 3836.4H2150.7" fill="#99b2ff"/>
<path transform="matrix(.1,0,0,-.1,0,792)" stroke-width="1" stroke-linecap="butt" stroke-miterlimit="10" stroke-linejoin="miter" fill="none" stroke="#000000" d="M2492.2 4177.8 2150.7 4519.2H1467.9L1126.5 4177.8 1467.9 3836.4H2150.7Z"/>
<path transform="matrix(.1,0,0,-.1,0,792)" d="M3316.4 5002.1 3799.3 5484.9H3516.4L3316.4 5684.9Z" fill="#ffffff"/>
<path transform="matrix(.1,0,0,-.1,0,792)" stroke-width="1" stroke-linecap="butt" stroke-miterlimit="10" stroke-linejoin="miter" fill="none" stroke="#000000" d="M3316.4 5002.1 3799.3 5484.9H3516.4L3316.4 5684.9Z"/>
<path transform="matrix(.1,0,0,-.1,0,792)" d="M2633.6 5002.1V5684.9L2433.6 5484.9H2150.7Z" fill="#ffffff"/>
<path transform="matrix(.1,0,0,-.1,0,792)" stroke-width="1" stroke-linecap="butt" stroke-miterlimit="10" stroke-linejoin="miter" fill="none" stroke="#000000" d="M2633.6 5002.1V5684.9L2433.6 5484.9H2150.7Z"/>
<path transform="matrix(.1,0,0,-.1,0,792)" d="M2633.6 3353.5 2150.7 2870.7H2433.6L2633.6 2670.7Z" fill="#ffffff"/>
<path transform="matrix(.1,0,0,-.1,0,792)" stroke-width="1" stroke-linecap="butt" stroke-miterlimit="10" stroke-linejoin="miter" fill="none" stroke="#000000" d="M2633.6 3353.5 2150.7 2870.7H2433.6L2633.6 2670.7Z"/>
<path transform="matrix(.1,0,0,-.1,0,792)" d="M3316.4 3353.5V2670.7L3516.4 2870.7H3799.3Z" fill="#ffffff"/>
<path transform="matrix(.1,0,0,-.1,0,792)" stroke-width="1" stroke-linecap="butt" stroke-miterlimit="10" stroke-linejoin="miter" fill="none" stroke="#000000" d="M3316.4 3353.5V2670.7L3516.4 2870.7H3799.3Z"/>
<path transform="matrix(.1,0,0,-.1,0,792)" d="M3799.3 3836.4 4282.1 3353.5V3636.4L4482.1 3836.4Z" fill="#ffffff"/>
<path transform="matrix(.1,0,0,-.1,0,792)" stroke-width="1" stroke-linecap="butt" stroke-miterlimit="10" stroke-linejoin="miter" fill="none" stroke="#000000" d="M3799.3 3836.4 4282.1 3353.5V3636.4L4482.1 3836.4Z"/>
<path transform="matrix(.1,0,0,-.1,0,792)" d="M3799.3 4519.2H4482.1L4282.1 4719.2V5002.1Z" fill="#ffffff"/>
<path transform="matrix(.1,0,0,-.1,0,792)" stroke-width="1" stroke-linecap="butt" stroke-miterlimit="10" stroke-linejoin="miter" fill="none" stroke="#000000" d="M3799.3 4519.2H4482.1L4282.1 4719.2V5002.1Z"/>
<path transform="matrix(.1,0,0,-.1,0,792)" d="M2150.7 4519.2 1667.9 5002.1V4719.2L1467.9 4519.2Z" fill="#ffffff"/>
<path transform="matrix(.1,0,0,-.1,0,792)" stroke-width="1" stroke-linecap="butt" stroke-miterlimit="10" stroke-linejoin="miter" fill="none" stroke="#000000" d="M2150.7 4519.2 1667.9 5002.1V4719.2L1467.9 4519.2Z"/>
<path transform="matrix(.1,0,0,-.1,0,792)" d="M2150.7 3836.4H1467.9L1667.9 3636.4V3353.5Z" fill="#ffffff"/>
<path transform="matrix(.1,0,0,-.1,0,792)" stroke-width="1" stroke-linecap="butt" stroke-miterlimit="10" stroke-linejoin="miter" fill="none" stroke="#000000" d="M2150.7 3836.4H1467.9L1667.9 3636.4V3353.5Z"/>
<path transform="matrix(.1,0,0,-.1,0,792)" d="M3799.3 5484.9 4140.7 5826.3 3799.3 6167.8H3316.4V5684.9L3516.4 5484.9"/>
<path transform="matrix(.1,0,0,-.1,0,792)" stroke-width="1" stroke-linecap="butt" stroke-miterlimit="10" stroke-linejoin="miter" fill="none" stroke="#000000" d="M3799.3 5484.9 4140.7 5826.3 3799.3 6167.8H3316.4V5684.9L3516.4 5484.9Z"/>
<path transform="matrix(.1,0,0,-.1,0,792)" d="M3799.3 5484.9H4282.1V5002.1L4623.5 5343.5 4964.9 5002.1V5684.9L4482.1 6167.8H3799.3L4140.7 5826.3" fill="#ffffff"/>
<path transform="matrix(.1,0,0,-.1,0,792)" stroke-width="1" stroke-linecap="butt" stroke-miterlimit="10" stroke-linejoin="miter" fill="none" stroke="#000000" d="M3799.3 5484.9H4282.1V5002.1L4623.5 5343.5 4964.9 5002.1V5684.9L4482.1 6167.8H3799.3L4140.7 5826.3Z"/>
<path transform="matrix(.1,0,0,-.1,0,792)" d="M2433.6 5484.9 2633.6 5684.9V6167.8H2150.7L1809.3 5826.3 2150.7 5484.9"/>
<path transform="matrix(.1,0,0,-.1,0,792)" stroke-width="1" stroke-linecap="butt" stroke-miterlimit="10" stroke-linejoin="miter" fill="none" stroke="#000000" d="M2433.6 5484.9 2633.6 5684.9V6167.8H2150.7L1809.3 5826.3 2150.7 5484.9Z"/>
<path transform="matrix(.1,0,0,-.1,0,792)" d="M2150.7 5484.9 1809.3 5826.3 2150.7 6167.8H1467.9L985.102 5684.9V5002.1L1326.5 5343.5 1667.9 5002.1V5484.9" fill="#ffffff"/>
<path transform="matrix(.1,0,0,-.1,0,792)" stroke-width="1" stroke-linecap="butt" stroke-miterlimit="10" stroke-linejoin="miter" fill="none" stroke="#000000" d="M2150.7 5484.9 1809.3 5826.3 2150.7 6167.8H1467.9L985.102 5684.9V5002.1L1326.5 5343.5 1667.9 5002.1V5484.9Z"/>
<path transform="matrix(.1,0,0,-.1,0,792)" d="M2150.7 2870.7 1809.3 2529.3 2150.7 2187.9H2633.6V2670.7L2433.6 2870.7"/>
<path transform="matrix(.1,0,0,-.1,0,792)" stroke-width="1" stroke-linecap="butt" stroke-miterlimit="10" stroke-linejoin="miter" fill="none" stroke="#000000" d="M2150.7 2870.7 1809.3 2529.3 2150.7 2187.9H2633.6V2670.7L2433.6 2870.7Z"/>
<path transform="matrix(.1,0,0,-.1,0,792)" d="M2150.7 2870.7H1667.9V3353.5L1326.5 3012.1 985.102 3353.5V2670.7L1467.9 2187.9H2150.7L1809.3 2529.3" fill="#ffffff"/>
<path transform="matrix(.1,0,0,-.1,0,792)" stroke-width="1" stroke-linecap="butt" stroke-miterlimit="10" stroke-linejoin="miter" fill="none" stroke="#000000" d="M2150.7 2870.7H1667.9V3353.5L1326.5 3012.1 985.102 3353.5V2670.7L1467.9 2187.9H2150.7L1809.3 2529.3Z"/>
<path transform="matrix(.1,0,0,-.1,0,792)" d="M3516.4 2870.7 3316.4 2670.7V2187.9H3799.3L4140.7 2529.3 3799.3 2870.7"/>
<path transform="matrix(.1,0,0,-.1,0,792)" stroke-width="1" stroke-linecap="butt" stroke-miterlimit="10" stroke-linejoin="miter" fill="none" stroke="#000000" d="M3516.4 2870.7 3316.4 2670.7V2187.9H3799.3L4140.7 2529.3 3799.3 2870.7Z"/>
<path transform="matrix(.1,0,0,-.1,0,792)" d="M3799.3 2870.7 4140.7 2529.3 3799.3 2187.9H4482.1L4964.9 2670.7V3353.5L4623.5 3012.1 4282.1 3353.5V2870.7" fill="#ffffff"/>
<path transform="matrix(.1,0,0,-.1,0,792)" stroke-width="1" stroke-linecap="butt" stroke-miterlimit="10" stroke-linejoin="miter" fill="none" stroke="#000000" d="M3799.3 2870.7 4140.7 2529.3 3799.3 2187.9H4482.1L4964.9 2670.7V3353.5L4623.5 3012.1 4282.1 3353.5V2870.7Z"/>
<path transform="matrix(.1,0,0,-.1,0,792)" d="M3316.4 5684.9V6167.8H3116.4L2975 6026.3Z" fill="#ffffff"/>
<path transform="matrix(.1,0,0,-.1,0,792)" stroke-width="1" stroke-linecap="butt" stroke-miterlimit="10" stroke-linejoin="miter" fill="none" stroke="#000000" d="M3316.4 5684.9V6167.8H3116.4L2975 6026.3Z"/>
<path transform="matrix(.1,0,0,-.1,0,792)" d="M2633.6 5684.9 2975 6026.3 2833.6 6167.8H2633.6Z" fill="#ffffff"/>
<path transform="matrix(.1,0,0,-.1,0,792)" stroke-width="1" stroke-linecap="butt" stroke-miterlimit="10" stroke-linejoin="miter" fill="none" stroke="#000000" d="M2633.6 5684.9 2975 6026.3 2833.6 6167.8H2633.6Z"/>
<path transform="matrix(.1,0,0,-.1,0,792)" d="M2633.6 2670.7V2187.9H2833.6L2975 2329.3Z" fill="#ffffff"/>
<path transform="matrix(.1,0,0,-.1,0,792)" stroke-width="1" stroke-linecap="butt" stroke-miterlimit="10" stroke-linejoin="miter" fill="none" stroke="#000000" d="M2633.6 2670.7V2187.9H2833.6L2975 2329.3Z"/>
<path transform="matrix(.1,0,0,-.1,0,792)" d="M3316.4 2670.7 2975 2329.3 3116.4 2187.9H3316.4Z" fill="#ffffff"/>
<path transform="matrix(.1,0,0,-.1,0,792)" stroke-width="1" stroke-linecap="butt" stroke-miterlimit="10" stroke-linejoin="miter" fill="none" stroke="#000000" d="M3316.4 2670.7 2975 2329.3 3116.4 2187.9H3316.4Z"/>
<path transform="matrix(.1,0,0,-.1,0,792)" d="M4282.1 3353.5 4623.5 3012.1 4964.9 3353.5V3836.4H4482.1L4282.1 3636.4"/>
<path transform="matrix(.1,0,0,-.1,0,792)" stroke-width="1" stroke-linecap="butt" stroke-miterlimit="10" stroke-linejoin="miter" fill="none" stroke="#000000" d="M4282.1 3353.5 4623.5 3012.1 4964.9 3353.5V3836.4H4482.1L4282.1 3636.4Z"/>
<path transform="matrix(.1,0,0,-.1,0,792)" d="M4282.1 4719.2 4482.1 4519.2H4964.9V5002.1L4623.5 5343.5 4282.1 5002.1"/>
<path transform="matrix(.1,0,0,-.1,0,792)" stroke-width="1" stroke-linecap="butt" stroke-miterlimit="10" stroke-linejoin="miter" fill="none" stroke="#000000" d="M4282.1 4719.2 4482.1 4519.2H4964.9V5002.1L4623.5 5343.5 4282.1 5002.1Z"/>
<path transform="matrix(.1,0,0,-.1,0,792)" d="M1667.9 5002.1 1326.5 5343.5 985.102 5002.1V4519.2H1467.9L1667.9 4719.2"/>
<path transform="matrix(.1,0,0,-.1,0,792)" stroke-width="1" stroke-linecap="butt" stroke-miterlimit="10" stroke-linejoin="miter" fill="none" stroke="#000000" d="M1667.9 5002.1 1326.5 5343.5 985.102 5002.1V4519.2H1467.9L1667.9 4719.2Z"/>
<path transform="matrix(.1,0,0,-.1,0,792)" d="M1667.9 3636.4 1467.9 3836.4H985.102V3353.5L1326.5 3012.1 1667.9 3353.5"/>
<path transform="matrix(.1,0,0,-.1,0,792)" stroke-width="1" stroke-linecap="butt" stroke-miterlimit="10" stroke-linejoin="miter" fill="none" stroke="#000000" d="M1667.9 3636.4 1467.9 3836.4H985.102V3353.5L1326.5 3012.1 1667.9 3353.5Z"/>
<path transform="matrix(.1,0,0,-.1,0,792)" d="M2975 6026.3 3116.4 6167.8H3316.4V6367.8L3457.8 6509.2 3316.4 6650.6V6850.6H3116.4L2975 6992 2833.6 6850.6H2633.6V6650.6L2492.2 6509.2 2633.6 6367.8V6167.8H2833.6"/>
<path transform="matrix(.1,0,0,-.1,0,792)" stroke-width="1" stroke-linecap="butt" stroke-miterlimit="10" stroke-linejoin="miter" fill="none" stroke="#000000" d="M2975 6026.3 3116.4 6167.8H3316.4V6367.8L3457.8 6509.2 3316.4 6650.6V6850.6H3116.4L2975 6992 2833.6 6850.6H2633.6V6650.6L2492.2 6509.2 2633.6 6367.8V6167.8H2833.6Z"/>
<path transform="matrix(.1,0,0,-.1,0,792)" d="M2975 2329.3 2833.6 2187.9H2633.6V1987.9L2492.2 1846.4 2633.6 1705V1505H2833.6L2975 1363.6 3116.4 1505H3316.4V1705L3457.8 1846.4 3316.4 1987.9V2187.9H3116.4"/>
<path transform="matrix(.1,0,0,-.1,0,792)" stroke-width="1" stroke-linecap="butt" stroke-miterlimit="10" stroke-linejoin="miter" fill="none" stroke="#000000" d="M2975 2329.3 2833.6 2187.9H2633.6V1987.9L2492.2 1846.4 2633.6 1705V1505H2833.6L2975 1363.6 3116.4 1505H3316.4V1705L3457.8 1846.4 3316.4 1987.9V2187.9H3116.4Z"/>
<path transform="matrix(.1,0,0,-.1,0,792)" d="M3799.3 6167.8 3457.8 6509.2 3316.4 6367.8V6167.8Z" fill="#ffffff"/>
<path transform="matrix(.1,0,0,-.1,0,792)" stroke-width="1" stroke-linecap="butt" stroke-miterlimit="10" stroke-linejoin="miter" fill="none" stroke="#000000" d="M3799.3 6167.8 3457.8 6509.2 3316.4 6367.8V6167.8Z"/>
<path transform="matrix(.1,0,0,-.1,0,792)" d="M3799.3 6167.8H4482.1L4140.7 6509.2 4482.1 6850.6H3799.3L3457.8 6509.2" fill="#ff6600"/>
<path transform="matrix(.1,0,0,-.1,0,792)" stroke-width="1" stroke-linecap="butt" stroke-miterlimit="10" stroke-linejoin="miter" fill="none" stroke="#000000" d="M3799.3 6167.8H4482.1L4140.7 6509.2 4482.1 6850.6H3799.3L3457.8 6509.2Z"/>
<path transform="matrix(.1,0,0,-.1,0,792)" d="M2633.6 6167.8V6367.8L2492.2 6509.2 2150.7 6167.8Z" fill="#ffffff"/>
<path transform="matrix(.1,0,0,-.1,0,792)" stroke-width="1" stroke-linecap="butt" stroke-miterlimit="10" stroke-linejoin="miter" fill="none" stroke="#000000" d="M2633.6 6167.8V6367.8L2492.2 6509.2 2150.7 6167.8Z"/>
<path transform="matrix(.1,0,0,-.1,0,792)" d="M2150.7 6167.8 2492.2 6509.2 2150.7 6850.6H1467.9L1809.3 6509.2 1467.9 6167.8" fill="#ff6600"/>
<path transform="matrix(.1,0,0,-.1,0,792)" stroke-width="1" stroke-linecap="butt" stroke-miterlimit="10" stroke-linejoin="miter" fill="none" stroke="#000000" d="M2150.7 6167.8 2492.2 6509.2 2150.7 6850.6H1467.9L1809.3 6509.2 1467.9 6167.8Z"/>
<path transform="matrix(.1,0,0,-.1,0,792)" d="M2150.7 2187.9 2492.2 1846.4 2633.6 1987.9V2187.9Z" fill="#ffffff"/>
<path transform="matrix(.1,0,0,-.1,0,792)" stroke-width="1" stroke-linecap="butt" stroke-miterlimit="10" stroke-linejoin="miter" fill="none" stroke="#000000" d="M2150.7 2187.9 2492.2 1846.4 2633.6 1987.9V2187.9Z"/>
<path transform="matrix(.1,0,0,-.1,0,792)" d="M2150.7 2187.9H1467.9L1809.3 1846.4 1467.9 1505H2150.7L2492.2 1846.4" fill="#ff6600"/>
<path transform="matrix(.1,0,0,-.1,0,792)" stroke-width="1" stroke-linecap="butt" stroke-miterlimit="10" stroke-linejoin="miter" fill="none" stroke="#000000" d="M2150.7 2187.9H1467.9L1809.3 1846.4 1467.9 1505H2150.7L2492.2 1846.4Z"/>
<path transform="matrix(.1,0,0,-.1,0,792)" d="M3316.4 2187.9V1987.9L3457.8 1846.4 3799.3 2187.9Z" fill="#ffffff"/>
<path transform="matrix(.1,0,0,-.1,0,792)" stroke-width="1" stroke-linecap="butt" stroke-miterlimit="10" stroke-linejoin="miter" fill="none" stroke="#000000" d="M3316.4 2187.9V1987.9L3457.8 1846.4 3799.3 2187.9Z"/>
<path transform="matrix(.1,0,0,-.1,0,792)" d="M3799.3 2187.9 3457.8 1846.4 3799.3 1505H4482.1L4140.7 1846.4 4482.1 2187.9" fill="#ff6600"/>
<path transform="matrix(.1,0,0,-.1,0,792)" stroke-width="1" stroke-linecap="butt" stroke-miterlimit="10" stroke-linejoin="miter" fill="none" stroke="#000000" d="M3799.3 2187.9 3457.8 1846.4 3799.3 1505H4482.1L4140.7 1846.4 4482.1 2187.9Z"/>
<path transform="matrix(.1,0,0,-.1,0,792)" d="M4482.1 2187.9H4964.9V2670.7" fill="#ff6600"/>
<path transform="matrix(.1,0,0,-.1,0,792)" stroke-width="1" stroke-linecap="butt" stroke-miterlimit="10" stroke-linejoin="miter" fill="none" stroke="#000000" d="M4482.1 2187.9H4964.9V2670.7Z"/>
<path transform="matrix(.1,0,0,-.1,0,792)" d="M4482.1 2187.9 4140.7 1846.4 4482.1 1505H4964.9V1705L4823.5 1846.4 4964.9 1987.9V2187.9" fill="#ffffff"/>
<path transform="matrix(.1,0,0,-.1,0,792)" stroke-width="1" stroke-linecap="butt" stroke-miterlimit="10" stroke-linejoin="miter" fill="none" stroke="#000000" d="M4482.1 2187.9 4140.7 1846.4 4482.1 1505H4964.9V1705L4823.5 1846.4 4964.9 1987.9V2187.9Z"/>
<path transform="matrix(.1,0,0,-.1,0,792)" d="M4482.1 3836.4H4964.9V4036.4L4823.5 4177.8Z" fill="#ffffff"/>
<path transform="matrix(.1,0,0,-.1,0,792)" stroke-width="1" stroke-linecap="butt" stroke-miterlimit="10" stroke-linejoin="miter" fill="none" stroke="#000000" d="M4482.1 3836.4H4964.9V4036.4L4823.5 4177.8Z"/>
<path transform="matrix(.1,0,0,-.1,0,792)" d="M4482.1 4519.2 4823.5 4177.8 4964.9 4319.2V4519.2Z" fill="#ffffff"/>
<path transform="matrix(.1,0,0,-.1,0,792)" stroke-width="1" stroke-linecap="butt" stroke-miterlimit="10" stroke-linejoin="miter" fill="none" stroke="#000000" d="M4482.1 4519.2 4823.5 4177.8 4964.9 4319.2V4519.2Z"/>
<path transform="matrix(.1,0,0,-.1,0,792)" d="M4482.1 6167.8H4964.9V6367.8L4823.5 6509.2 4964.9 6650.6V6850.6H4482.1L4140.7 6509.2" fill="#ffffff"/>
<path transform="matrix(.1,0,0,-.1,0,792)" stroke-width="1" stroke-linecap="butt" stroke-miterlimit="10" stroke-linejoin="miter" fill="none" stroke="#000000" d="M4482.1 6167.8H4964.9V6367.8L4823.5 6509.2 4964.9 6650.6V6850.6H4482.1L4140.7 6509.2Z"/>
<path transform="matrix(.1,0,0,-.1,0,792)" d="M4482.1 6167.8 4964.9 5684.9V6167.8" fill="#ff6600"/>
<path transform="matrix(.1,0,0,-.1,0,792)" stroke-width="1" stroke-linecap="butt" stroke-miterlimit="10" stroke-linejoin="miter" fill="none" stroke="#000000" d="M4482.1 6167.8 4964.9 5684.9V6167.8Z"/>
<path transform="matrix(.1,0,0,-.1,0,792)" d="M1467.9 6167.8H985.102V5684.9" fill="#ff6600"/>
<path transform="matrix(.1,0,0,-.1,0,792)" stroke-width="1" stroke-linecap="butt" stroke-miterlimit="10" stroke-linejoin="miter" fill="none" stroke="#000000" d="M1467.9 6167.8H985.102V5684.9Z"/>
<path transform="matrix(.1,0,0,-.1,0,792)" d="M1467.9 6167.8 1809.3 6509.2 1467.9 6850.6H985.102V6650.6L1126.5 6509.2 985.102 6367.8V6167.8" fill="#ffffff"/>
<path transform="matrix(.1,0,0,-.1,0,792)" stroke-width="1" stroke-linecap="butt" stroke-miterlimit="10" stroke-linejoin="miter" fill="none" stroke="#000000" d="M1467.9 6167.8 1809.3 6509.2 1467.9 6850.6H985.102V6650.6L1126.5 6509.2 985.102 6367.8V6167.8Z"/>
<path transform="matrix(.1,0,0,-.1,0,792)" d="M1467.9 4519.2H985.102V4319.2L1126.5 4177.8Z" fill="#ffffff"/>
<path transform="matrix(.1,0,0,-.1,0,792)" stroke-width="1" stroke-linecap="butt" stroke-miterlimit="10" stroke-linejoin="miter" fill="none" stroke="#000000" d="M1467.9 4519.2H985.102V4319.2L1126.5 4177.8Z"/>
<path transform="matrix(.1,0,0,-.1,0,792)" d="M1467.9 3836.4 1126.5 4177.8 985.102 4036.4V3836.4Z" fill="#ffffff"/>
<path transform="matrix(.1,0,0,-.1,0,792)" stroke-width="1" stroke-linecap="butt" stroke-miterlimit="10" stroke-linejoin="miter" fill="none" stroke="#000000" d="M1467.9 3836.4 1126.5 4177.8 985.102 4036.4V3836.4Z"/>
<path transform="matrix(.1,0,0,-.1,0,792)" d="M1467.9 2187.9H985.102V1987.9L1126.5 1846.4 985.102 1705V1505H1467.9L1809.3 1846.4" fill="#ffffff"/>
<path transform="matrix(.1,0,0,-.1,0,792)" stroke-width="1" stroke-linecap="butt" stroke-miterlimit="10" stroke-linejoin="miter" fill="none" stroke="#000000" d="M1467.9 2187.9H985.102V1987.9L1126.5 1846.4 985.102 1705V1505H1467.9L1809.3 1846.4Z"/>
<path transform="matrix(.1,0,0,-.1,0,792)" d="M1467.9 2187.9 985.102 2670.7V2187.9" fill="#ff6600"/>
<path transform="matrix(.1,0,0,-.1,0,792)" stroke-width="1" stroke-linecap="butt" stroke-miterlimit="10" stroke-linejoin="miter" fill="none" stroke="#000000" d="M1467.9 2187.9 985.102 2670.7V2187.9Z"/>
<path transform="matrix(.1,0,0,-.1,0,792)" d="M3457.8 6509.2 3799.3 6850.6H3316.4V6650.6Z" fill="#ffffff"/>
<path transform="matrix(.1,0,0,-.1,0,792)" stroke-width="1" stroke-linecap="butt" stroke-miterlimit="10" stroke-linejoin="miter" fill="none" stroke="#000000" d="M3457.8 6509.2 3799.3 6850.6H3316.4V6650.6Z"/>
<path transform="matrix(.1,0,0,-.1,0,792)" d="M2492.2 6509.2 2633.6 6650.6V6850.6H2150.7Z" fill="#ffffff"/>
<path transform="matrix(.1,0,0,-.1,0,792)" stroke-width="1" stroke-linecap="butt" stroke-miterlimit="10" stroke-linejoin="miter" fill="none" stroke="#000000" d="M2492.2 6509.2 2633.6 6650.6V6850.6H2150.7Z"/>
<path transform="matrix(.1,0,0,-.1,0,792)" d="M2492.2 1846.4 2150.7 1505H2633.6V1705Z" fill="#ffffff"/>
<path transform="matrix(.1,0,0,-.1,0,792)" stroke-width="1" stroke-linecap="butt" stroke-miterlimit="10" stroke-linejoin="miter" fill="none" stroke="#000000" d="M2492.2 1846.4 2150.7 1505H2633.6V1705Z"/>
<path transform="matrix(.1,0,0,-.1,0,792)" d="M3457.8 1846.4 3316.4 1705V1505H3799.3Z" fill="#ffffff"/>
<path transform="matrix(.1,0,0,-.1,0,792)" stroke-width="1" stroke-linecap="butt" stroke-miterlimit="10" stroke-linejoin="miter" fill="none" stroke="#000000" d="M3457.8 1846.4 3316.4 1705V1505H3799.3Z"/>
<path transform="matrix(.1,0,0,-.1,0,792)" d="M4823.5 1846.4 4964.9 1705V1505H5164.9L5306.4 1363.6 5447.8 1505H5647.8V1705L5789.2 1846.4 5647.8 1987.9V2187.9H5447.8L5306.4 2329.3 5164.9 2187.9H4964.9V1987.9"/>
<path transform="matrix(.1,0,0,-.1,0,792)" stroke-width="1" stroke-linecap="butt" stroke-miterlimit="10" stroke-linejoin="miter" fill="none" stroke="#000000" d="M4823.5 1846.4 4964.9 1705V1505H5164.9L5306.4 1363.6 5447.8 1505H5647.8V1705L5789.2 1846.4 5647.8 1987.9V2187.9H5447.8L5306.4 2329.3 5164.9 2187.9H4964.9V1987.9Z"/>
<path transform="matrix(.1,0,0,-.1,0,792)" d="M4823.5 4177.8 4964.9 4036.4V3836.4H5164.9L5306.4 3695 5447.8 3836.4H5647.8V4036.4L5789.2 4177.8 5647.8 4319.2V4519.2H5447.8L5306.4 4660.7 5164.9 4519.2H4964.9V4319.2"/>
<path transform="matrix(.1,0,0,-.1,0,792)" stroke-width="1" stroke-linecap="butt" stroke-miterlimit="10" stroke-linejoin="miter" fill="none" stroke="#000000" d="M4823.5 4177.8 4964.9 4036.4V3836.4H5164.9L5306.4 3695 5447.8 3836.4H5647.8V4036.4L5789.2 4177.8 5647.8 4319.2V4519.2H5447.8L5306.4 4660.7 5164.9 4519.2H4964.9V4319.2Z"/>
<path transform="matrix(.1,0,0,-.1,0,792)" d="M4823.5 6509.2 4964.9 6367.8V6167.8H5164.9L5306.4 6026.3 5447.8 6167.8H5647.8V6367.8L5789.2 6509.2 5647.8 6650.6V6850.6H5447.8L5306.4 6992 5164.9 6850.6H4964.9V6650.6"/>
<path transform="matrix(.1,0,0,-.1,0,792)" stroke-width="1" stroke-linecap="butt" stroke-miterlimit="10" stroke-linejoin="miter" fill="none" stroke="#000000" d="M4823.5 6509.2 4964.9 6367.8V6167.8H5164.9L5306.4 6026.3 5447.8 6167.8H5647.8V6367.8L5789.2 6509.2 5647.8 6650.6V6850.6H5447.8L5306.4 6992 5164.9 6850.6H4964.9V6650.6Z"/>
<path transform="matrix(.1,0,0,-.1,0,792)" d="M1126.5 6509.2 985.102 6650.6V6850.6H785.102L643.602 6992 502.199 6850.6H302.199V6650.6L160.801 6509.2 302.199 6367.8V6167.8H502.199L643.602 6026.3 785.102 6167.8H985.102V6367.8"/>
<path transform="matrix(.1,0,0,-.1,0,792)" stroke-width="1" stroke-linecap="butt" stroke-miterlimit="10" stroke-linejoin="miter" fill="none" stroke="#000000" d="M1126.5 6509.2 985.102 6650.6V6850.6H785.102L643.602 6992 502.199 6850.6H302.199V6650.6L160.801 6509.2 302.199 6367.8V6167.8H502.199L643.602 6026.3 785.102 6167.8H985.102V6367.8Z"/>
<path transform="matrix(.1,0,0,-.1,0,792)" d="M1126.5 4177.8 985.102 4319.2V4519.2H785.102L643.602 4660.7 502.199 4519.2H302.199V4319.2L160.801 4177.8 302.199 4036.4V3836.4H502.199L643.602 3695 785.102 3836.4H985.102V4036.4"/>
<path transform="matrix(.1,0,0,-.1,0,792)" stroke-width="1" stroke-linecap="butt" stroke-miterlimit="10" stroke-linejoin="miter" fill="none" stroke="#000000" d="M1126.5 4177.8 985.102 4319.2V4519.2H785.102L643.602 4660.7 502.199 4519.2H302.199V4319.2L160.801 4177.8 302.199 4036.4V3836.4H502.199L643.602 3695 785.102 3836.4H985.102V4036.4Z"/>
<path transform="matrix(.1,0,0,-.1,0,792)" d="M1126.5 1846.4 985.102 1987.9V2187.9H785.102L643.602 2329.3 502.199 2187.9H302.199V1987.9L160.801 1846.4 302.199 1705V1505H502.199L643.602 1363.6 785.102 1505H985.102V1705"/>
<path transform="matrix(.1,0,0,-.1,0,792)" stroke-width="1" stroke-linecap="butt" stroke-miterlimit="10" stroke-linejoin="miter" fill="none" stroke="#000000" d="M1126.5 1846.4 985.102 1987.9V2187.9H785.102L643.602 2329.3 502.199 2187.9H302.199V1987.9L160.801 1846.4 302.199 1705V1505H502.199L643.602 1363.6 785.102 1505H985.102V1705Z"/>
<path transform="matrix(.1,0,0,-.1,0,792)" d="M4482.1 6850.6 4964.9 7333.4V8016.3L4623.5 7674.9 4282.1 8016.3V7533.4H3799.3L4140.7 7192 3799.3 6850.6" fill="#ffffff"/>
<path transform="matrix(.1,0,0,-.1,0,792)" stroke-width="1" stroke-linecap="butt" stroke-miterlimit="10" stroke-linejoin="miter" fill="none" stroke="#000000" d="M4482.1 6850.6 4964.9 7333.4V8016.3L4623.5 7674.9 4282.1 8016.3V7533.4H3799.3L4140.7 7192 3799.3 6850.6Z"/>
<path transform="matrix(.1,0,0,-.1,0,792)" d="M4482.1 6850.6H4964.9V7333.4" fill="#ff6600"/>
<path transform="matrix(.1,0,0,-.1,0,792)" stroke-width="1" stroke-linecap="butt" stroke-miterlimit="10" stroke-linejoin="miter" fill="none" stroke="#000000" d="M4482.1 6850.6H4964.9V7333.4Z"/>
<path transform="matrix(.1,0,0,-.1,0,792)" d="M3799.3 6850.6 4140.7 7192 3799.3 7533.4H3516.4L3316.4 7333.4V6850.6"/>
<path transform="matrix(.1,0,0,-.1,0,792)" stroke-width="1" stroke-linecap="butt" stroke-miterlimit="10" stroke-linejoin="miter" fill="none" stroke="#000000" d="M3799.3 6850.6 4140.7 7192 3799.3 7533.4H3516.4L3316.4 7333.4V6850.6Z"/>
<path transform="matrix(.1,0,0,-.1,0,792)" d="M3316.4 6850.6V7333.4L2975 6992 3116.4 6850.6Z" fill="#ffffff"/>
<path transform="matrix(.1,0,0,-.1,0,792)" stroke-width="1" stroke-linecap="butt" stroke-miterlimit="10" stroke-linejoin="miter" fill="none" stroke="#000000" d="M3316.4 6850.6V7333.4L2975 6992 3116.4 6850.6Z"/>
<path transform="matrix(.1,0,0,-.1,0,792)" d="M2833.6 6850.6 2975 6992 2633.6 7333.4V6850.6Z" fill="#ffffff"/>
<path transform="matrix(.1,0,0,-.1,0,792)" stroke-width="1" stroke-linecap="butt" stroke-miterlimit="10" stroke-linejoin="miter" fill="none" stroke="#000000" d="M2833.6 6850.6 2975 6992 2633.6 7333.4V6850.6Z"/>
<path transform="matrix(.1,0,0,-.1,0,792)" d="M2633.6 6850.6V7333.4L2433.6 7533.4H2150.7L1809.3 7192 2150.7 6850.6"/>
<path transform="matrix(.1,0,0,-.1,0,792)" stroke-width="1" stroke-linecap="butt" stroke-miterlimit="10" stroke-linejoin="miter" fill="none" stroke="#000000" d="M2633.6 6850.6V7333.4L2433.6 7533.4H2150.7L1809.3 7192 2150.7 6850.6Z"/>
<path transform="matrix(.1,0,0,-.1,0,792)" d="M2150.7 6850.6 1809.3 7192 2150.7 7533.4H1667.9V8016.3L1326.5 7674.9 985.102 8016.3V7333.4L1467.9 6850.6" fill="#ffffff"/>
<path transform="matrix(.1,0,0,-.1,0,792)" stroke-width="1" stroke-linecap="butt" stroke-miterlimit="10" stroke-linejoin="miter" fill="none" stroke="#000000" d="M2150.7 6850.6 1809.3 7192 2150.7 7533.4H1667.9V8016.3L1326.5 7674.9 985.102 8016.3V7333.4L1467.9 6850.6Z"/>
<path transform="matrix(.1,0,0,-.1,0,792)" d="M1467.9 6850.6 985.102 7333.4V6850.6" fill="#ff6600"/>
<path transform="matrix(.1,0,0,-.1,0,792)" stroke-width="1" stroke-linecap="butt" stroke-miterlimit="10" stroke-linejoin="miter" fill="none" stroke="#000000" d="M1467.9 6850.6 985.102 7333.4V6850.6Z"/>
<path transform="matrix(.1,0,0,-.1,0,792)" d="M1467.9 1505 985.102 1022.2V339.301L1326.5 680.801 1667.9 339.301V822.199H2150.7L1809.3 1163.6 2150.7 1505" fill="#ffffff"/>
<path transform="matrix(.1,0,0,-.1,0,792)" stroke-width="1" stroke-linecap="butt" stroke-miterlimit="10" stroke-linejoin="miter" fill="none" stroke="#000000" d="M1467.9 1505 985.102 1022.2V339.301L1326.5 680.801 1667.9 339.301V822.199H2150.7L1809.3 1163.6 2150.7 1505Z"/>
<path transform="matrix(.1,0,0,-.1,0,792)" d="M1467.9 1505H985.102V1022.2" fill="#ff6600"/>
<path transform="matrix(.1,0,0,-.1,0,792)" stroke-width="1" stroke-linecap="butt" stroke-miterlimit="10" stroke-linejoin="miter" fill="none" stroke="#000000" d="M1467.9 1505H985.102V1022.2Z"/>
<path transform="matrix(.1,0,0,-.1,0,792)" d="M2150.7 1505 1809.3 1163.6 2150.7 822.199H2433.6L2633.6 1022.2V1505"/>
<path transform="matrix(.1,0,0,-.1,0,792)" stroke-width="1" stroke-linecap="butt" stroke-miterlimit="10" stroke-linejoin="miter" fill="none" stroke="#000000" d="M2150.7 1505 1809.3 1163.6 2150.7 822.199H2433.6L2633.6 1022.2V1505Z"/>
<path transform="matrix(.1,0,0,-.1,0,792)" d="M2633.6 1505V1022.2L2975 1363.6 2833.6 1505Z" fill="#ffffff"/>
<path transform="matrix(.1,0,0,-.1,0,792)" stroke-width="1" stroke-linecap="butt" stroke-miterlimit="10" stroke-linejoin="miter" fill="none" stroke="#000000" d="M2633.6 1505V1022.2L2975 1363.6 2833.6 1505Z"/>
<path transform="matrix(.1,0,0,-.1,0,792)" d="M3116.4 1505 2975 1363.6 3316.4 1022.2V1505Z" fill="#ffffff"/>
<path transform="matrix(.1,0,0,-.1,0,792)" stroke-width="1" stroke-linecap="butt" stroke-miterlimit="10" stroke-linejoin="miter" fill="none" stroke="#000000" d="M3116.4 1505 2975 1363.6 3316.4 1022.2V1505Z"/>
<path transform="matrix(.1,0,0,-.1,0,792)" d="M3316.4 1505V1022.2L3516.4 822.199H3799.3L4140.7 1163.6 3799.3 1505"/>
<path transform="matrix(.1,0,0,-.1,0,792)" stroke-width="1" stroke-linecap="butt" stroke-miterlimit="10" stroke-linejoin="miter" fill="none" stroke="#000000" d="M3316.4 1505V1022.2L3516.4 822.199H3799.3L4140.7 1163.6 3799.3 1505Z"/>
<path transform="matrix(.1,0,0,-.1,0,792)" d="M3799.3 1505 4140.7 1163.6 3799.3 822.199H4282.1V339.301L4623.5 680.801 4964.9 339.301V1022.2L4482.1 1505" fill="#ffffff"/>
<path transform="matrix(.1,0,0,-.1,0,792)" stroke-width="1" stroke-linecap="butt" stroke-miterlimit="10" stroke-linejoin="miter" fill="none" stroke="#000000" d="M3799.3 1505 4140.7 1163.6 3799.3 822.199H4282.1V339.301L4623.5 680.801 4964.9 339.301V1022.2L4482.1 1505Z"/>
<path transform="matrix(.1,0,0,-.1,0,792)" d="M4482.1 1505 4964.9 1022.2V1505" fill="#ff6600"/>
<path transform="matrix(.1,0,0,-.1,0,792)" stroke-width="1" stroke-linecap="butt" stroke-miterlimit="10" stroke-linejoin="miter" fill="none" stroke="#000000" d="M4482.1 1505 4964.9 1022.2V1505Z"/>
<path transform="matrix(.1,0,0,-.1,0,792)" d="M4964.9 1505V1022.2L5306.4 680.801 5647.8 1022.2V1505H5447.8L5306.4 1363.6 5164.9 1505" fill="#ffffff"/>
<path transform="matrix(.1,0,0,-.1,0,792)" stroke-width="1" stroke-linecap="butt" stroke-miterlimit="10" stroke-linejoin="miter" fill="none" stroke="#000000" d="M4964.9 1505V1022.2L5306.4 680.801 5647.8 1022.2V1505H5447.8L5306.4 1363.6 5164.9 1505Z"/>
<path transform="matrix(.1,0,0,-.1,0,792)" d="M4964.9 2187.9H5164.9L5306.4 2329.3 5447.8 2187.9H5647.8V2670.7L5306.4 3012.1 4964.9 2670.7" fill="#ffffff"/>
<path transform="matrix(.1,0,0,-.1,0,792)" stroke-width="1" stroke-linecap="butt" stroke-miterlimit="10" stroke-linejoin="miter" fill="none" stroke="#000000" d="M4964.9 2187.9H5164.9L5306.4 2329.3 5447.8 2187.9H5647.8V2670.7L5306.4 3012.1 4964.9 2670.7Z"/>
<path transform="matrix(.1,0,0,-.1,0,792)" d="M4964.9 2670.7 5306.4 3012.1 5647.8 2670.7V3353.5L5306.4 3695 4964.9 3353.5" fill="#ff6600"/>
<path transform="matrix(.1,0,0,-.1,0,792)" stroke-width="1" stroke-linecap="butt" stroke-miterlimit="10" stroke-linejoin="miter" fill="none" stroke="#000000" d="M4964.9 2670.7 5306.4 3012.1 5647.8 2670.7V3353.5L5306.4 3695 4964.9 3353.5Z"/>
<path transform="matrix(.1,0,0,-.1,0,792)" d="M4964.9 3353.5 5306.4 3695 5164.9 3836.4H4964.9Z" fill="#ffffff"/>
<path transform="matrix(.1,0,0,-.1,0,792)" stroke-width="1" stroke-linecap="butt" stroke-miterlimit="10" stroke-linejoin="miter" fill="none" stroke="#000000" d="M4964.9 3353.5 5306.4 3695 5164.9 3836.4H4964.9Z"/>
<path transform="matrix(.1,0,0,-.1,0,792)" d="M4964.9 4519.2H5164.9L5306.4 4660.7 4964.9 5002.1Z" fill="#ffffff"/>
<path transform="matrix(.1,0,0,-.1,0,792)" stroke-width="1" stroke-linecap="butt" stroke-miterlimit="10" stroke-linejoin="miter" fill="none" stroke="#000000" d="M4964.9 4519.2H5164.9L5306.4 4660.7 4964.9 5002.1Z"/>
<path transform="matrix(.1,0,0,-.1,0,792)" d="M4964.9 5002.1 5306.4 4660.7 5647.8 5002.1V5684.9L5306.4 5343.5 4964.9 5684.9" fill="#ff6600"/>
<path transform="matrix(.1,0,0,-.1,0,792)" stroke-width="1" stroke-linecap="butt" stroke-miterlimit="10" stroke-linejoin="miter" fill="none" stroke="#000000" d="M4964.9 5002.1 5306.4 4660.7 5647.8 5002.1V5684.9L5306.4 5343.5 4964.9 5684.9Z"/>
<path transform="matrix(.1,0,0,-.1,0,792)" d="M4964.9 5684.9 5306.4 5343.5 5647.8 5684.9V6167.8H5447.8L5306.4 6026.3 5164.9 6167.8H4964.9" fill="#ffffff"/>
<path transform="matrix(.1,0,0,-.1,0,792)" stroke-width="1" stroke-linecap="butt" stroke-miterlimit="10" stroke-linejoin="miter" fill="none" stroke="#000000" d="M4964.9 5684.9 5306.4 5343.5 5647.8 5684.9V6167.8H5447.8L5306.4 6026.3 5164.9 6167.8H4964.9Z"/>
<path transform="matrix(.1,0,0,-.1,0,792)" d="M4964.9 6850.6H5164.9L5306.4 6992 5447.8 6850.6H5647.8V7333.4L5306.4 7674.9 4964.9 7333.4" fill="#ffffff"/>
<path transform="matrix(.1,0,0,-.1,0,792)" stroke-width="1" stroke-linecap="butt" stroke-miterlimit="10" stroke-linejoin="miter" fill="none" stroke="#000000" d="M4964.9 6850.6H5164.9L5306.4 6992 5447.8 6850.6H5647.8V7333.4L5306.4 7674.9 4964.9 7333.4Z"/>
<path transform="matrix(.1,0,0,-.1,0,792)" d="M985.102 6850.6V7333.4L643.602 7674.9 302.199 7333.4V6850.6H502.199L643.602 6992 785.102 6850.6" fill="#ffffff"/>
<path transform="matrix(.1,0,0,-.1,0,792)" stroke-width="1" stroke-linecap="butt" stroke-miterlimit="10" stroke-linejoin="miter" fill="none" stroke="#000000" d="M985.102 6850.6V7333.4L643.602 7674.9 302.199 7333.4V6850.6H502.199L643.602 6992 785.102 6850.6Z"/>
<path transform="matrix(.1,0,0,-.1,0,792)" d="M985.102 6167.8H785.102L643.602 6026.3 502.199 6167.8H302.199V5684.9L643.602 5343.5 985.102 5684.9" fill="#ffffff"/>
<path transform="matrix(.1,0,0,-.1,0,792)" stroke-width="1" stroke-linecap="butt" stroke-miterlimit="10" stroke-linejoin="miter" fill="none" stroke="#000000" d="M985.102 6167.8H785.102L643.602 6026.3 502.199 6167.8H302.199V5684.9L643.602 5343.5 985.102 5684.9Z"/>
<path transform="matrix(.1,0,0,-.1,0,792)" d="M985.102 5684.9 643.602 5343.5 302.199 5684.9V5002.1L643.602 4660.7 985.102 5002.1" fill="#ff6600"/>
<path transform="matrix(.1,0,0,-.1,0,792)" stroke-width="1" stroke-linecap="butt" stroke-miterlimit="10" stroke-linejoin="miter" fill="none" stroke="#000000" d="M985.102 5684.9 643.602 5343.5 302.199 5684.9V5002.1L643.602 4660.7 985.102 5002.1Z"/>
<path transform="matrix(.1,0,0,-.1,0,792)" d="M985.102 5002.1 643.602 4660.7 785.102 4519.2H985.102Z" fill="#ffffff"/>
<path transform="matrix(.1,0,0,-.1,0,792)" stroke-width="1" stroke-linecap="butt" stroke-miterlimit="10" stroke-linejoin="miter" fill="none" stroke="#000000" d="M985.102 5002.1 643.602 4660.7 785.102 4519.2H985.102Z"/>
<path transform="matrix(.1,0,0,-.1,0,792)" d="M985.102 3836.4H785.102L643.602 3695 985.102 3353.5Z" fill="#ffffff"/>
<path transform="matrix(.1,0,0,-.1,0,792)" stroke-width="1" stroke-linecap="butt" stroke-miterlimit="10" stroke-linejoin="miter" fill="none" stroke="#000000" d="M985.102 3836.4H785.102L643.602 3695 985.102 3353.5Z"/>
<path transform="matrix(.1,0,0,-.1,0,792)" d="M985.102 3353.5 643.602 3695 302.199 3353.5V2670.7L643.602 3012.1 985.102 2670.7" fill="#ff6600"/>
<path transform="matrix(.1,0,0,-.1,0,792)" stroke-width="1" stroke-linecap="butt" stroke-miterlimit="10" stroke-linejoin="miter" fill="none" stroke="#000000" d="M985.102 3353.5 643.602 3695 302.199 3353.5V2670.7L643.602 3012.1 985.102 2670.7Z"/>
<path transform="matrix(.1,0,0,-.1,0,792)" d="M985.102 2670.7 643.602 3012.1 302.199 2670.7V2187.9H502.199L643.602 2329.3 785.102 2187.9H985.102" fill="#ffffff"/>
<path transform="matrix(.1,0,0,-.1,0,792)" stroke-width="1" stroke-linecap="butt" stroke-miterlimit="10" stroke-linejoin="miter" fill="none" stroke="#000000" d="M985.102 2670.7 643.602 3012.1 302.199 2670.7V2187.9H502.199L643.602 2329.3 785.102 2187.9H985.102Z"/>
<path transform="matrix(.1,0,0,-.1,0,792)" d="M985.102 1505H785.102L643.602 1363.6 502.199 1505H302.199V1022.2L643.602 680.801 985.102 1022.2" fill="#ffffff"/>
<path transform="matrix(.1,0,0,-.1,0,792)" stroke-width="1" stroke-linecap="butt" stroke-miterlimit="10" stroke-linejoin="miter" fill="none" stroke="#000000" d="M985.102 1505H785.102L643.602 1363.6 502.199 1505H302.199V1022.2L643.602 680.801 985.102 1022.2Z"/>
<path transform="matrix(.1,0,0,-.1,0,792)" d="M2975 6992 3316.4 7333.4V8016.3L2975 8357.7 2633.6 8016.3V7333.4" fill="#99b2ff"/>
<path transform="matrix(.1,0,0,-.1,0,792)" stroke-width="1" stroke-linecap="butt" stroke-miterlimit="10" stroke-linejoin="miter" fill="none" stroke="#000000" d="M2975 6992 3316.4 7333.4V8016.3L2975 8357.7 2633.6 8016.3V7333.4Z"/>
<path transform="matrix(.1,0,0,-.1,0,792)" d="M2975 1363.6 2633.6 1022.2V339.301L2975-2.10156 3316.4 339.301V1022.2" fill="#99b2ff"/>
<path transform="matrix(.1,0,0,-.1,0,792)" stroke-width="1" stroke-linecap="butt" stroke-miterlimit="10" stroke-linejoin="miter" fill="none" stroke="#000000" d="M2975 1363.6 2633.6 1022.2V339.301L2975-2.10156 3316.4 339.301V1022.2Z"/>
<path transform="matrix(.1,0,0,-.1,0,792)" d="M4964.9 7333.4 5306.4 7674.9 5647.8 7333.4V8016.3L5306.4 8357.7 4964.9 8016.3" fill="#ff6600"/>
<path transform="matrix(.1,0,0,-.1,0,792)" stroke-width="1" stroke-linecap="butt" stroke-miterlimit="10" stroke-linejoin="miter" fill="none" stroke="#000000" d="M4964.9 7333.4 5306.4 7674.9 5647.8 7333.4V8016.3L5306.4 8357.7 4964.9 8016.3Z"/>
<path transform="matrix(.1,0,0,-.1,0,792)" d="M3316.4 7333.4 3516.4 7533.4H3799.3L3316.4 8016.3Z" fill="#ffffff"/>
<path transform="matrix(.1,0,0,-.1,0,792)" stroke-width="1" stroke-linecap="butt" stroke-miterlimit="10" stroke-linejoin="miter" fill="none" stroke="#000000" d="M3316.4 7333.4 3516.4 7533.4H3799.3L3316.4 8016.3Z"/>
<path transform="matrix(.1,0,0,-.1,0,792)" d="M2633.6 7333.4V8016.3L2150.7 7533.4H2433.6Z" fill="#ffffff"/>
<path transform="matrix(.1,0,0,-.1,0,792)" stroke-width="1" stroke-linecap="butt" stroke-miterlimit="10" stroke-linejoin="miter" fill="none" stroke="#000000" d="M2633.6 7333.4V8016.3L2150.7 7533.4H2433.6Z"/>
<path transform="matrix(.1,0,0,-.1,0,792)" d="M985.102 7333.4V8016.3L643.602 8357.7 302.199 8016.3V7333.4L643.602 7674.9" fill="#ff6600"/>
<path transform="matrix(.1,0,0,-.1,0,792)" stroke-width="1" stroke-linecap="butt" stroke-miterlimit="10" stroke-linejoin="miter" fill="none" stroke="#000000" d="M985.102 7333.4V8016.3L643.602 8357.7 302.199 8016.3V7333.4L643.602 7674.9Z"/>
<path transform="matrix(.1,0,0,-.1,0,792)" d="M985.102 1022.2 643.602 680.801 302.199 1022.2V339.301L643.602-2.10156 985.102 339.301" fill="#ff6600"/>
<path transform="matrix(.1,0,0,-.1,0,792)" stroke-width="1" stroke-linecap="butt" stroke-miterlimit="10" stroke-linejoin="miter" fill="none" stroke="#000000" d="M985.102 1022.2 643.602 680.801 302.199 1022.2V339.301L643.602-2.10156 985.102 339.301Z"/>
<path transform="matrix(.1,0,0,-.1,0,792)" d="M2633.6 1022.2 2433.6 822.199H2150.7L2633.6 339.301Z" fill="#ffffff"/>
<path transform="matrix(.1,0,0,-.1,0,792)" stroke-width="1" stroke-linecap="butt" stroke-miterlimit="10" stroke-linejoin="miter" fill="none" stroke="#000000" d="M2633.6 1022.2 2433.6 822.199H2150.7L2633.6 339.301Z"/>
<path transform="matrix(.1,0,0,-.1,0,792)" d="M3316.4 1022.2V339.301L3799.3 822.199H3516.4Z" fill="#ffffff"/>
<path transform="matrix(.1,0,0,-.1,0,792)" stroke-width="1" stroke-linecap="butt" stroke-miterlimit="10" stroke-linejoin="miter" fill="none" stroke="#000000" d="M3316.4 1022.2V339.301L3799.3 822.199H3516.4Z"/>
<path transform="matrix(.1,0,0,-.1,0,792)" d="M4964.9 1022.2V339.301L5306.4-2.10156 5647.8 339.301V1022.2L5306.4 680.801" fill="#ff6600"/>
<path transform="matrix(.1,0,0,-.1,0,792)" stroke-width="1" stroke-linecap="butt" stroke-miterlimit="10" stroke-linejoin="miter" fill="none" stroke="#000000" d="M4964.9 1022.2V339.301L5306.4-2.10156 5647.8 339.301V1022.2L5306.4 680.801Z"/>
<path transform="matrix(.1,0,0,-.1,0,792)" d="M5306.4 3695 5647.8 3353.5V3836.4H5447.8Z" fill="#ffffff"/>
<path transform="matrix(.1,0,0,-.1,0,792)" stroke-width="1" stroke-linecap="butt" stroke-miterlimit="10" stroke-linejoin="miter" fill="none" stroke="#000000" d="M5306.4 3695 5647.8 3353.5V3836.4H5447.8Z"/>
<path transform="matrix(.1,0,0,-.1,0,792)" d="M5306.4 4660.7 5447.8 4519.2H5647.8V5002.1Z" fill="#ffffff"/>
<path transform="matrix(.1,0,0,-.1,0,792)" stroke-width="1" stroke-linecap="butt" stroke-miterlimit="10" stroke-linejoin="miter" fill="none" stroke="#000000" d="M5306.4 4660.7 5447.8 4519.2H5647.8V5002.1Z"/>
<path transform="matrix(.1,0,0,-.1,0,792)" d="M643.602 4660.7 302.199 5002.1V4519.2H502.199Z" fill="#ffffff"/>
<path transform="matrix(.1,0,0,-.1,0,792)" stroke-width="1" stroke-linecap="butt" stroke-miterlimit="10" stroke-linejoin="miter" fill="none" stroke="#000000" d="M643.602 4660.7 302.199 5002.1V4519.2H502.199Z"/>
<path transform="matrix(.1,0,0,-.1,0,792)" d="M643.602 3695 502.199 3836.4H302.199V3353.5Z" fill="#ffffff"/>
<path transform="matrix(.1,0,0,-.1,0,792)" stroke-width="1" stroke-linecap="butt" stroke-miterlimit="10" stroke-linejoin="miter" fill="none" stroke="#000000" d="M643.602 3695 502.199 3836.4H302.199V3353.5Z"/>
<path transform="matrix(.1,0,0,-.1,0,792)" d="M4282.1 7533.4V8016.3L3799.3 8499.1H3316.4V8016.3L3799.3 7533.4" fill="#99b2ff"/>
<path transform="matrix(.1,0,0,-.1,0,792)" stroke-width="1" stroke-linecap="butt" stroke-miterlimit="10" stroke-linejoin="miter" fill="none" stroke="#000000" d="M4282.1 7533.4V8016.3L3799.3 8499.1H3316.4V8016.3L3799.3 7533.4Z"/>
<path transform="matrix(.1,0,0,-.1,0,792)" d="M2150.7 7533.4 2633.6 8016.3V8499.1H2150.7L1667.9 8016.3V7533.4" fill="#99b2ff"/>
<path transform="matrix(.1,0,0,-.1,0,792)" stroke-width="1" stroke-linecap="butt" stroke-miterlimit="10" stroke-linejoin="miter" fill="none" stroke="#000000" d="M2150.7 7533.4 2633.6 8016.3V8499.1H2150.7L1667.9 8016.3V7533.4Z"/>
<path transform="matrix(.1,0,0,-.1,0,792)" d="M1667.9 822.199V339.301L2150.7-143.5H2633.6V339.301L2150.7 822.199" fill="#99b2ff"/>
<path transform="matrix(.1,0,0,-.1,0,792)" stroke-width="1" stroke-linecap="butt" stroke-miterlimit="10" stroke-linejoin="miter" fill="none" stroke="#000000" d="M1667.9 822.199V339.301L2150.7-143.5H2633.6V339.301L2150.7 822.199Z"/>
<path transform="matrix(.1,0,0,-.1,0,792)" d="M3799.3 822.199 3316.4 339.301V-143.5H3799.3L4282.1 339.301V822.199" fill="#99b2ff"/>
<path transform="matrix(.1,0,0,-.1,0,792)" stroke-width="1" stroke-linecap="butt" stroke-miterlimit="10" stroke-linejoin="miter" fill="none" stroke="#000000" d="M3799.3 822.199 3316.4 339.301V-143.5H3799.3L4282.1 339.301V822.199Z"/>
<path transform="matrix(.1,0,0,-.1,0,792)" d="M4623.5 7674.9 4964.9 8016.3V8499.1H4482.1L4282.1 8299.1V8016.3"/>
<path transform="matrix(.1,0,0,-.1,0,792)" stroke-width="1" stroke-linecap="butt" stroke-miterlimit="10" stroke-linejoin="miter" fill="none" stroke="#000000" d="M4623.5 7674.9 4964.9 8016.3V8499.1H4482.1L4282.1 8299.1V8016.3Z"/>
<path transform="matrix(.1,0,0,-.1,0,792)" d="M1326.5 7674.9 1667.9 8016.3V8299.1L1467.9 8499.1H985.102V8016.3"/>
<path transform="matrix(.1,0,0,-.1,0,792)" stroke-width="1" stroke-linecap="butt" stroke-miterlimit="10" stroke-linejoin="miter" fill="none" stroke="#000000" d="M1326.5 7674.9 1667.9 8016.3V8299.1L1467.9 8499.1H985.102V8016.3Z"/>
<path transform="matrix(.1,0,0,-.1,0,792)" d="M1326.5 680.801 985.102 339.301V-143.5H1467.9L1667.9 56.5V339.301"/>
<path transform="matrix(.1,0,0,-.1,0,792)" stroke-width="1" stroke-linecap="butt" stroke-miterlimit="10" stroke-linejoin="miter" fill="none" stroke="#000000" d="M1326.5 680.801 985.102 339.301V-143.5H1467.9L1667.9 56.5V339.301Z"/>
<path transform="matrix(.1,0,0,-.1,0,792)" d="M4623.5 680.801 4282.1 339.301V56.5L4482.1-143.5H4964.9V339.301"/>
<path transform="matrix(.1,0,0,-.1,0,792)" stroke-width="1" stroke-linecap="butt" stroke-miterlimit="10" stroke-linejoin="miter" fill="none" stroke="#000000" d="M4623.5 680.801 4282.1 339.301V56.5L4482.1-143.5H4964.9V339.301Z"/>
<path transform="matrix(.1,0,0,-.1,0,792)" d="M5647.8 1022.2 6130.6 1505H5647.8" fill="#ff6600"/>
<path transform="matrix(.1,0,0,-.1,0,792)" stroke-width="1" stroke-linecap="butt" stroke-miterlimit="10" stroke-linejoin="miter" fill="none" stroke="#000000" d="M5647.8 1022.2 6130.6 1505H5647.8Z"/>
<path transform="matrix(.1,0,0,-.1,0,792)" d="M5647.8 1022.2V339.301L5989.2 680.801 6330.6 339.301V822.199H6813.5L6472.1 1163.6 6813.5 1505H6130.6" fill="#ffffff"/>
<path transform="matrix(.1,0,0,-.1,0,792)" stroke-width="1" stroke-linecap="butt" stroke-miterlimit="10" stroke-linejoin="miter" fill="none" stroke="#000000" d="M5647.8 1022.2V339.301L5989.2 680.801 6330.6 339.301V822.199H6813.5L6472.1 1163.6 6813.5 1505H6130.6Z"/>
<path transform="matrix(.1,0,0,-.1,0,792)" d="M5647.8 1505H6130.6L6472.1 1846.4 6130.6 2187.9H5647.8V1987.9L5789.2 1846.4 5647.8 1705" fill="#ffffff"/>
<path transform="matrix(.1,0,0,-.1,0,792)" stroke-width="1" stroke-linecap="butt" stroke-miterlimit="10" stroke-linejoin="miter" fill="none" stroke="#000000" d="M5647.8 1505H6130.6L6472.1 1846.4 6130.6 2187.9H5647.8V1987.9L5789.2 1846.4 5647.8 1705Z"/>
<path transform="matrix(.1,0,0,-.1,0,792)" d="M5647.8 2187.9H6130.6L5647.8 2670.7" fill="#ff6600"/>
<path transform="matrix(.1,0,0,-.1,0,792)" stroke-width="1" stroke-linecap="butt" stroke-miterlimit="10" stroke-linejoin="miter" fill="none" stroke="#000000" d="M5647.8 2187.9H6130.6L5647.8 2670.7Z"/>
<path transform="matrix(.1,0,0,-.1,0,792)" d="M5647.8 2670.7 6130.6 2187.9H6813.5L6472.1 2529.3 6813.5 2870.7H6330.6V3353.5L5989.2 3012.1 5647.8 3353.5" fill="#ffffff"/>
<path transform="matrix(.1,0,0,-.1,0,792)" stroke-width="1" stroke-linecap="butt" stroke-miterlimit="10" stroke-linejoin="miter" fill="none" stroke="#000000" d="M5647.8 2670.7 6130.6 2187.9H6813.5L6472.1 2529.3 6813.5 2870.7H6330.6V3353.5L5989.2 3012.1 5647.8 3353.5Z"/>
<path transform="matrix(.1,0,0,-.1,0,792)" d="M5647.8 3353.5 5989.2 3012.1 6330.6 3353.5V3636.4L6130.6 3836.4H5647.8"/>
<path transform="matrix(.1,0,0,-.1,0,792)" stroke-width="1" stroke-linecap="butt" stroke-miterlimit="10" stroke-linejoin="miter" fill="none" stroke="#000000" d="M5647.8 3353.5 5989.2 3012.1 6330.6 3353.5V3636.4L6130.6 3836.4H5647.8Z"/>
<path transform="matrix(.1,0,0,-.1,0,792)" d="M5647.8 3836.4H6130.6L5789.2 4177.8 5647.8 4036.4Z" fill="#ffffff"/>
<path transform="matrix(.1,0,0,-.1,0,792)" stroke-width="1" stroke-linecap="butt" stroke-miterlimit="10" stroke-linejoin="miter" fill="none" stroke="#000000" d="M5647.8 3836.4H6130.6L5789.2 4177.8 5647.8 4036.4Z"/>
<path transform="matrix(.1,0,0,-.1,0,792)" d="M5647.8 4319.2 5789.2 4177.8 6130.6 4519.2H5647.8Z" fill="#ffffff"/>
<path transform="matrix(.1,0,0,-.1,0,792)" stroke-width="1" stroke-linecap="butt" stroke-miterlimit="10" stroke-linejoin="miter" fill="none" stroke="#000000" d="M5647.8 4319.2 5789.2 4177.8 6130.6 4519.2H5647.8Z"/>
<path transform="matrix(.1,0,0,-.1,0,792)" d="M5647.8 4519.2H6130.6L6330.6 4719.2V5002.1L5989.2 5343.5 5647.8 5002.1"/>
<path transform="matrix(.1,0,0,-.1,0,792)" stroke-width="1" stroke-linecap="butt" stroke-miterlimit="10" stroke-linejoin="miter" fill="none" stroke="#000000" d="M5647.8 4519.2H6130.6L6330.6 4719.2V5002.1L5989.2 5343.5 5647.8 5002.1Z"/>
<path transform="matrix(.1,0,0,-.1,0,792)" d="M5647.8 5002.1 5989.2 5343.5 6330.6 5002.1V5484.9H6813.5L6472.1 5826.3 6813.5 6167.8H6130.6L5647.8 5684.9" fill="#ffffff"/>
<path transform="matrix(.1,0,0,-.1,0,792)" stroke-width="1" stroke-linecap="butt" stroke-miterlimit="10" stroke-linejoin="miter" fill="none" stroke="#000000" d="M5647.8 5002.1 5989.2 5343.5 6330.6 5002.1V5484.9H6813.5L6472.1 5826.3 6813.5 6167.8H6130.6L5647.8 5684.9Z"/>
<path transform="matrix(.1,0,0,-.1,0,792)" d="M5647.8 5684.9 6130.6 6167.8H5647.8" fill="#ff6600"/>
<path transform="matrix(.1,0,0,-.1,0,792)" stroke-width="1" stroke-linecap="butt" stroke-miterlimit="10" stroke-linejoin="miter" fill="none" stroke="#000000" d="M5647.8 5684.9 6130.6 6167.8H5647.8Z"/>
<path transform="matrix(.1,0,0,-.1,0,792)" d="M5647.8 6167.8H6130.6L6472.1 6509.2 6130.6 6850.6H5647.8V6650.6L5789.2 6509.2 5647.8 6367.8" fill="#ffffff"/>
<path transform="matrix(.1,0,0,-.1,0,792)" stroke-width="1" stroke-linecap="butt" stroke-miterlimit="10" stroke-linejoin="miter" fill="none" stroke="#000000" d="M5647.8 6167.8H6130.6L6472.1 6509.2 6130.6 6850.6H5647.8V6650.6L5789.2 6509.2 5647.8 6367.8Z"/>
<path transform="matrix(.1,0,0,-.1,0,792)" d="M5647.8 6850.6H6130.6L5647.8 7333.4" fill="#ff6600"/>
<path transform="matrix(.1,0,0,-.1,0,792)" stroke-width="1" stroke-linecap="butt" stroke-miterlimit="10" stroke-linejoin="miter" fill="none" stroke="#000000" d="M5647.8 6850.6H6130.6L5647.8 7333.4Z"/>
<path transform="matrix(.1,0,0,-.1,0,792)" d="M5647.8 7333.4 6130.6 6850.6H6813.5L6472.1 7192 6813.5 7533.4H6330.6V8016.3L5989.2 7674.9 5647.8 8016.3" fill="#ffffff"/>
<path transform="matrix(.1,0,0,-.1,0,792)" stroke-width="1" stroke-linecap="butt" stroke-miterlimit="10" stroke-linejoin="miter" fill="none" stroke="#000000" d="M5647.8 7333.4 6130.6 6850.6H6813.5L6472.1 7192 6813.5 7533.4H6330.6V8016.3L5989.2 7674.9 5647.8 8016.3Z"/>
<path transform="matrix(.1,0,0,-.1,0,792)" d="M302.199 7333.4-180.602 6850.6H302.199" fill="#ff6600"/>
<path transform="matrix(.1,0,0,-.1,0,792)" stroke-width="1" stroke-linecap="butt" stroke-miterlimit="10" stroke-linejoin="miter" fill="none" stroke="#000000" d="M302.199 7333.4-180.602 6850.6H302.199Z"/>
<path transform="matrix(.1,0,0,-.1,0,792)" d="M302.199 7333.4V8016.3L-39.1992 7674.9-380.602 8016.3V7533.4H-863.5L-522.102 7192-863.5 6850.6H-180.602" fill="#ffffff"/>
<path transform="matrix(.1,0,0,-.1,0,792)" stroke-width="1" stroke-linecap="butt" stroke-miterlimit="10" stroke-linejoin="miter" fill="none" stroke="#000000" d="M302.199 7333.4V8016.3L-39.1992 7674.9-380.602 8016.3V7533.4H-863.5L-522.102 7192-863.5 6850.6H-180.602Z"/>
<path transform="matrix(.1,0,0,-.1,0,792)" d="M302.199 6850.6H-180.602L-522.102 6509.2-180.602 6167.8H302.199V6367.8L160.801 6509.2 302.199 6650.6" fill="#ffffff"/>
<path transform="matrix(.1,0,0,-.1,0,792)" stroke-width="1" stroke-linecap="butt" stroke-miterlimit="10" stroke-linejoin="miter" fill="none" stroke="#000000" d="M302.199 6850.6H-180.602L-522.102 6509.2-180.602 6167.8H302.199V6367.8L160.801 6509.2 302.199 6650.6Z"/>
<path transform="matrix(.1,0,0,-.1,0,792)" d="M302.199 6167.8H-180.602L302.199 5684.9" fill="#ff6600"/>
<path transform="matrix(.1,0,0,-.1,0,792)" stroke-width="1" stroke-linecap="butt" stroke-miterlimit="10" stroke-linejoin="miter" fill="none" stroke="#000000" d="M302.199 6167.8H-180.602L302.199 5684.9Z"/>
<path transform="matrix(.1,0,0,-.1,0,792)" d="M302.199 5684.9-180.602 6167.8H-863.5L-522.102 5826.3-863.5 5484.9H-380.602V5002.1L-39.1992 5343.5 302.199 5002.1" fill="#ffffff"/>
<path transform="matrix(.1,0,0,-.1,0,792)" stroke-width="1" stroke-linecap="butt" stroke-miterlimit="10" stroke-linejoin="miter" fill="none" stroke="#000000" d="M302.199 5684.9-180.602 6167.8H-863.5L-522.102 5826.3-863.5 5484.9H-380.602V5002.1L-39.1992 5343.5 302.199 5002.1Z"/>
<path transform="matrix(.1,0,0,-.1,0,792)" d="M302.199 5002.1-39.1992 5343.5-380.602 5002.1V4719.2L-180.602 4519.2H302.199"/>
<path transform="matrix(.1,0,0,-.1,0,792)" stroke-width="1" stroke-linecap="butt" stroke-miterlimit="10" stroke-linejoin="miter" fill="none" stroke="#000000" d="M302.199 5002.1-39.1992 5343.5-380.602 5002.1V4719.2L-180.602 4519.2H302.199Z"/>
<path transform="matrix(.1,0,0,-.1,0,792)" d="M302.199 4519.2H-180.602L160.801 4177.8 302.199 4319.2Z" fill="#ffffff"/>
<path transform="matrix(.1,0,0,-.1,0,792)" stroke-width="1" stroke-linecap="butt" stroke-miterlimit="10" stroke-linejoin="miter" fill="none" stroke="#000000" d="M302.199 4519.2H-180.602L160.801 4177.8 302.199 4319.2Z"/>
<path transform="matrix(.1,0,0,-.1,0,792)" d="M302.199 4036.4 160.801 4177.8-180.602 3836.4H302.199Z" fill="#ffffff"/>
<path transform="matrix(.1,0,0,-.1,0,792)" stroke-width="1" stroke-linecap="butt" stroke-miterlimit="10" stroke-linejoin="miter" fill="none" stroke="#000000" d="M302.199 4036.4 160.801 4177.8-180.602 3836.4H302.199Z"/>
<path transform="matrix(.1,0,0,-.1,0,792)" d="M302.199 3836.4H-180.602L-380.602 3636.4V3353.5L-39.1992 3012.1 302.199 3353.5"/>
<path transform="matrix(.1,0,0,-.1,0,792)" stroke-width="1" stroke-linecap="butt" stroke-miterlimit="10" stroke-linejoin="miter" fill="none" stroke="#000000" d="M302.199 3836.4H-180.602L-380.602 3636.4V3353.5L-39.1992 3012.1 302.199 3353.5Z"/>
<path transform="matrix(.1,0,0,-.1,0,792)" d="M302.199 3353.5-39.1992 3012.1-380.602 3353.5V2870.7H-863.5L-522.102 2529.3-863.5 2187.9H-180.602L302.199 2670.7" fill="#ffffff"/>
<path transform="matrix(.1,0,0,-.1,0,792)" stroke-width="1" stroke-linecap="butt" stroke-miterlimit="10" stroke-linejoin="miter" fill="none" stroke="#000000" d="M302.199 3353.5-39.1992 3012.1-380.602 3353.5V2870.7H-863.5L-522.102 2529.3-863.5 2187.9H-180.602L302.199 2670.7Z"/>
<path transform="matrix(.1,0,0,-.1,0,792)" d="M302.199 2670.7-180.602 2187.9H302.199" fill="#ff6600"/>
<path transform="matrix(.1,0,0,-.1,0,792)" stroke-width="1" stroke-linecap="butt" stroke-miterlimit="10" stroke-linejoin="miter" fill="none" stroke="#000000" d="M302.199 2670.7-180.602 2187.9H302.199Z"/>
<path transform="matrix(.1,0,0,-.1,0,792)" d="M302.199 2187.9H-180.602L-522.102 1846.4-180.602 1505H302.199V1705L160.801 1846.4 302.199 1987.9" fill="#ffffff"/>
<path transform="matrix(.1,0,0,-.1,0,792)" stroke-width="1" stroke-linecap="butt" stroke-miterlimit="10" stroke-linejoin="miter" fill="none" stroke="#000000" d="M302.199 2187.9H-180.602L-522.102 1846.4-180.602 1505H302.199V1705L160.801 1846.4 302.199 1987.9Z"/>
<path transform="matrix(.1,0,0,-.1,0,792)" d="M302.199 1505H-180.602L302.199 1022.2" fill="#ff6600"/>
<path transform="matrix(.1,0,0,-.1,0,792)" stroke-width="1" stroke-linecap="butt" stroke-miterlimit="10" stroke-linejoin="miter" fill="none" stroke="#000000" d="M302.199 1505H-180.602L302.199 1022.2Z"/>
<path transform="matrix(.1,0,0,-.1,0,792)" d="M302.199 1022.2-180.602 1505H-863.5L-522.102 1163.6-863.5 822.199H-380.602V339.301L-39.1992 680.801 302.199 339.301" fill="#ffffff"/>
<path transform="matrix(.1,0,0,-.1,0,792)" stroke-width="1" stroke-linecap="butt" stroke-miterlimit="10" stroke-linejoin="miter" fill="none" stroke="#000000" d="M302.199 1022.2-180.602 1505H-863.5L-522.102 1163.6-863.5 822.199H-380.602V339.301L-39.1992 680.801 302.199 339.301Z"/>
<path transform="matrix(.1,0,0,-.1,0,792)" d="M5647.8 8016.3 5989.2 7674.9 6330.6 8016.3V8299.1L6130.6 8499.1H5647.8"/>
<path transform="matrix(.1,0,0,-.1,0,792)" stroke-width="1" stroke-linecap="butt" stroke-miterlimit="10" stroke-linejoin="miter" fill="none" stroke="#000000" d="M5647.8 8016.3 5989.2 7674.9 6330.6 8016.3V8299.1L6130.6 8499.1H5647.8Z"/>
<path transform="matrix(.1,0,0,-.1,0,792)" d="M302.199 8016.3V8499.1H-180.602L-380.602 8299.1V8016.3L-39.1992 7674.9"/>
<path transform="matrix(.1,0,0,-.1,0,792)" stroke-width="1" stroke-linecap="butt" stroke-miterlimit="10" stroke-linejoin="miter" fill="none" stroke="#000000" d="M302.199 8016.3V8499.1H-180.602L-380.602 8299.1V8016.3L-39.1992 7674.9Z"/>
<path transform="matrix(.1,0,0,-.1,0,792)" d="M302.199 339.301V-143.5H502.199L643.602-2.10156Z" fill="#ffffff"/>
<path transform="matrix(.1,0,0,-.1,0,792)" stroke-width="1" stroke-linecap="butt" stroke-miterlimit="10" stroke-linejoin="miter" fill="none" stroke="#000000" d="M302.199 339.301V-143.5H502.199L643.602-2.10156Z"/>
<path transform="matrix(.1,0,0,-.1,0,792)" d="M302.199 339.301-39.1992 680.801-380.602 339.301V56.5L-180.602-143.5H302.199"/>
<path transform="matrix(.1,0,0,-.1,0,792)" stroke-width="1" stroke-linecap="butt" stroke-miterlimit="10" stroke-linejoin="miter" fill="none" stroke="#000000" d="M302.199 339.301-39.1992 680.801-380.602 339.301V56.5L-180.602-143.5H302.199Z"/>
<path transform="matrix(.1,0,0,-.1,0,792)" d="M985.102 339.301 643.602-2.10156 785.102-143.5H985.102Z" fill="#ffffff"/>
<path transform="matrix(.1,0,0,-.1,0,792)" stroke-width="1" stroke-linecap="butt" stroke-miterlimit="10" stroke-linejoin="miter" fill="none" stroke="#000000" d="M985.102 339.301 643.602-2.10156 785.102-143.5H985.102Z"/>
<path transform="matrix(.1,0,0,-.1,0,792)" d="M1667.9 339.301V56.5L1467.9-143.5H2150.7Z" fill="#ffffff"/>
<path transform="matrix(.1,0,0,-.1,0,792)" stroke-width="1" stroke-linecap="butt" stroke-miterlimit="10" stroke-linejoin="miter" fill="none" stroke="#000000" d="M1667.9 339.301V56.5L1467.9-143.5H2150.7Z"/>
<path transform="matrix(.1,0,0,-.1,0,792)" d="M2633.6 339.301V-143.5H2833.6L2975-2.10156Z" fill="#ffffff"/>
<path transform="matrix(.1,0,0,-.1,0,792)" stroke-width="1" stroke-linecap="butt" stroke-miterlimit="10" stroke-linejoin="miter" fill="none" stroke="#000000" d="M2633.6 339.301V-143.5H2833.6L2975-2.10156Z"/>
<path transform="matrix(.1,0,0,-.1,0,792)" d="M3316.4 339.301 2975-2.10156 3116.4-143.5H3316.4Z" fill="#ffffff"/>
<path transform="matrix(.1,0,0,-.1,0,792)" stroke-width="1" stroke-linecap="butt" stroke-miterlimit="10" stroke-linejoin="miter" fill="none" stroke="#000000" d="M3316.4 339.301 2975-2.10156 3116.4-143.5H3316.4Z"/>
<path transform="matrix(.1,0,0,-.1,0,792)" d="M4282.1 339.301 3799.3-143.5H4482.1L4282.1 56.5Z" fill="#ffffff"/>
<path transform="matrix(.1,0,0,-.1,0,792)" stroke-width="1" stroke-linecap="butt" stroke-miterlimit="10" stroke-linejoin="miter" fill="none" stroke="#000000" d="M4282.1 339.301 3799.3-143.5H4482.1L4282.1 56.5Z"/>
<path transform="matrix(.1,0,0,-.1,0,792)" d="M4964.9 339.301V-143.5H5164.9L5306.4-2.10156Z" fill="#ffffff"/>
<path transform="matrix(.1,0,0,-.1,0,792)" stroke-width="1" stroke-linecap="butt" stroke-miterlimit="10" stroke-linejoin="miter" fill="none" stroke="#000000" d="M4964.9 339.301V-143.5H5164.9L5306.4-2.10156Z"/>
<path transform="matrix(.1,0,0,-.1,0,792)" d="M5647.8 339.301V-143.5H6130.6L6330.6 56.5V339.301L5989.2 680.801"/>
<path transform="matrix(.1,0,0,-.1,0,792)" stroke-width="1" stroke-linecap="butt" stroke-miterlimit="10" stroke-linejoin="miter" fill="none" stroke="#000000" d="M5647.8 339.301V-143.5H6130.6L6330.6 56.5V339.301L5989.2 680.801Z"/>
<path transform="matrix(.1,0,0,-.1,0,792)" d="M5647.8 339.301 5306.4-2.10156 5447.8-143.5H5647.8Z" fill="#ffffff"/>
<path transform="matrix(.1,0,0,-.1,0,792)" stroke-width="1" stroke-linecap="butt" stroke-miterlimit="10" stroke-linejoin="miter" fill="none" stroke="#000000" d="M5647.8 339.301 5306.4-2.10156 5447.8-143.5H5647.8Z"/>
<path transform="matrix(.1,0,0,-.1,0,792)" d="M5789.2 4177.8 6130.6 3836.4H6813.5L7154.9 4177.8 6813.5 4519.2H6130.6" fill="#99b2ff"/>
<path transform="matrix(.1,0,0,-.1,0,792)" stroke-width="1" stroke-linecap="butt" stroke-miterlimit="10" stroke-linejoin="miter" fill="none" stroke="#000000" d="M5789.2 4177.8 6130.6 3836.4H6813.5L7154.9 4177.8 6813.5 4519.2H6130.6Z"/>
<path transform="matrix(.1,0,0,-.1,0,792)" d="M160.801 4177.8-180.602 4519.2H-863.5L-1204.9 4177.8-863.5 3836.4H-180.602" fill="#99b2ff"/>
<path transform="matrix(.1,0,0,-.1,0,792)" stroke-width="1" stroke-linecap="butt" stroke-miterlimit="10" stroke-linejoin="miter" fill="none" stroke="#000000" d="M160.801 4177.8-180.602 4519.2H-863.5L-1204.9 4177.8-863.5 3836.4H-180.602Z"/>
<path transform="matrix(.1,0,0,-.1,0,792)" stroke-width="1" stroke-linecap="butt" stroke-miterlimit="10" stroke-linejoin="miter" fill="none" stroke="#000000" d="M643.602-2.10156 502.199-143.5H302.199V-343.5L160.801-484.898 302.199-626.398V-826.398H502.199L643.602-967.801 785.102-826.398H985.102V-626.398L1126.5-484.898 985.102-343.5V-143.5H785.102Z"/>
<path transform="matrix(.1,0,0,-.1,0,792)" stroke-width="1" stroke-linecap="butt" stroke-miterlimit="10" stroke-linejoin="miter" fill="none" stroke="#000000" d="M2975-2.10156 2833.6-143.5H2633.6V-343.5L2492.2-484.898 2633.6-626.398V-826.398H2833.6L2975-967.801 3116.4-826.398H3316.4V-626.398L3457.8-484.898 3316.4-343.5V-143.5H3116.4Z"/>
<path transform="matrix(.1,0,0,-.1,0,792)" stroke-width="1" stroke-linecap="butt" stroke-miterlimit="10" stroke-linejoin="miter" fill="none" stroke="#000000" d="M5306.4-2.10156 5164.9-143.5H4964.9V-343.5L4823.5-484.898 4964.9-626.398V-826.398H5164.9L5306.4-967.801 5447.8-826.398H5647.8V-626.398L5789.2-484.898 5647.8-343.5V-143.5H5447.8Z"/>
</svg>
