<svg xmlns="http://www.w3.org/2000/svg" xmlns:xlink="http://www.w3.org/1999/xlink" xmlns:inkscape="http://www.inkscape.org/namespaces/inkscape" version="1.1" width="612" height="792" viewBox="0 0 612 792">
<path transform="matrix(.1,0,0,-.1,0,792)" d="M3292.1 3444.4V3359.5 3859.5H3707.3L3767.3 3799.5 3707.3 3859.5 3413.7 4153.1 3707.3 4446.6H3792.1 3707.3 3292.1V4861.8L3352.1 4921.8 3292.1 4861.8 2998.6 4568.2 2705 4861.8V4946.6 4861.8 4446.6H2289.9L2229.9 4506.6 2289.9 4446.6 2583.4 4153.1 2289.9 3859.5H2205 2289.9 2705V3444.4L2645 3384.4 2705 3444.4 2998.6 3737.9"/>
<path transform="matrix(.1,0,0,-.1,0,792)" stroke-width="12" stroke-linecap="butt" stroke-miterlimit="10" stroke-linejoin="miter" fill="none" stroke="#000000" d="M3292.1 3444.4V3359.5 3859.5H3707.3L3767.3 3799.5 3707.3 3859.5 3413.7 4153.1 3707.3 4446.6H3792.1 3707.3 3292.1V4861.8L3352.1 4921.8 3292.1 4861.8 2998.6 4568.2 2705 4861.8V4946.6 4861.8 4446.6H2289.9L2229.9 4506.6 2289.9 4446.6 2583.4 4153.1 2289.9 3859.5H2205 2289.9 2705V3444.4L2645 3384.4 2705 3444.4 2998.6 3737.9Z"/>
<path transform="matrix(.1,0,0,-.1,0,792)" d="M2998.6 4737.9 3292.1 5031.5 3352.1 5091.5 3292.1 5031.5V5446.6H3120.2L2998.6 5568.2 2956.1 5610.7 2998.6 5568.2 2877 5446.6H2705V5031.5 4946.6 5031.5"/>
<path transform="matrix(.1,0,0,-.1,0,792)" stroke-width="12" stroke-linecap="butt" stroke-miterlimit="10" stroke-linejoin="miter" fill="none" stroke="#000000" d="M2998.6 4737.9 3292.1 5031.5 3352.1 5091.5 3292.1 5031.5V5446.6H3120.2L2998.6 5568.2 2956.1 5610.7 2998.6 5568.2 2877 5446.6H2705V5031.5 4946.6 5031.5Z"/>
<path transform="matrix(.1,0,0,-.1,0,792)" d="M2585 4566.6V5066.6 4981.8L2291.5 5275.4 2169.9 5153.8H1997.9 1937.9 1997.9V4981.8L1876.3 4860.2 2169.9 4566.6 2229.9 4506.6 2169.9 4566.6"/>
<path transform="matrix(.1,0,0,-.1,0,792)" stroke-width="12" stroke-linecap="butt" stroke-miterlimit="10" stroke-linejoin="miter" fill="none" stroke="#000000" d="M2585 4566.6V5066.6 4981.8L2291.5 5275.4 2169.9 5153.8H1997.9 1937.9 1997.9V4981.8L1876.3 4860.2 2169.9 4566.6 2229.9 4506.6 2169.9 4566.6Z"/>
<path transform="matrix(.1,0,0,-.1,0,792)" d="M2585 3739.5H2085 2169.9L1876.3 3446 1997.9 3324.4V3152.4 3092.4 3152.4H2169.9L2291.5 3030.8 2585 3324.4 2645 3384.4 2585 3324.4"/>
<path transform="matrix(.1,0,0,-.1,0,792)" stroke-width="12" stroke-linecap="butt" stroke-miterlimit="10" stroke-linejoin="miter" fill="none" stroke="#000000" d="M2585 3739.5H2085 2169.9L1876.3 3446 1997.9 3324.4V3152.4 3092.4 3152.4H2169.9L2291.5 3030.8 2585 3324.4 2645 3384.4 2585 3324.4Z"/>
<path transform="matrix(.1,0,0,-.1,0,792)" d="M3412.1 3739.5V3239.5 3324.4L3705.7 3030.8 3827.3 3152.4H3999.2 4059.2 3999.2V3324.4L4120.8 3446 3827.3 3739.5 3767.3 3799.5 3827.3 3739.5"/>
<path transform="matrix(.1,0,0,-.1,0,792)" stroke-width="12" stroke-linecap="butt" stroke-miterlimit="10" stroke-linejoin="miter" fill="none" stroke="#000000" d="M3412.1 3739.5V3239.5 3324.4L3705.7 3030.8 3827.3 3152.4H3999.2 4059.2 3999.2V3324.4L4120.8 3446 3827.3 3739.5 3767.3 3799.5 3827.3 3739.5Z"/>
<path transform="matrix(.1,0,0,-.1,0,792)" d="M3412.1 4566.6H3912.1 3827.3L4120.8 4860.2 3999.2 4981.8V5153.8 5213.8 5153.8H3827.3L3705.7 5275.4 3412.1 4981.8 3352.1 4921.8 3412.1 4981.8"/>
<path transform="matrix(.1,0,0,-.1,0,792)" stroke-width="12" stroke-linecap="butt" stroke-miterlimit="10" stroke-linejoin="miter" fill="none" stroke="#000000" d="M3412.1 4566.6H3912.1 3827.3L4120.8 4860.2 3999.2 4981.8V5153.8 5213.8 5153.8H3827.3L3705.7 5275.4 3412.1 4981.8 3352.1 4921.8 3412.1 4981.8Z"/>
<path transform="matrix(.1,0,0,-.1,0,792)" d="M2998.6 3568.2 2705 3274.7 2645 3214.7 2705 3274.7V2859.5H2877L2998.6 2737.9 3041 2695.5 2998.6 2737.9 3120.2 2859.5H3292.1V3274.7 3359.5 3274.7"/>
<path transform="matrix(.1,0,0,-.1,0,792)" stroke-width="12" stroke-linecap="butt" stroke-miterlimit="10" stroke-linejoin="miter" fill="none" stroke="#000000" d="M2998.6 3568.2 2705 3274.7 2645 3214.7 2705 3274.7V2859.5H2877L2998.6 2737.9 3041 2695.5 2998.6 2737.9 3120.2 2859.5H3292.1V3274.7 3359.5 3274.7Z"/>
<path transform="matrix(.1,0,0,-.1,0,792)" d="M2413.7 4153.1 2120.2 4446.6 2060.2 4506.6 2120.2 4446.6H1705V4274.7L1583.4 4153.1 1541 4110.7 1583.4 4153.1 1705 4031.5V3859.5H2120.2 2205 2120.2"/>
<path transform="matrix(.1,0,0,-.1,0,792)" stroke-width="12" stroke-linecap="butt" stroke-miterlimit="10" stroke-linejoin="miter" fill="none" stroke="#000000" d="M2413.7 4153.1 2120.2 4446.6 2060.2 4506.6 2120.2 4446.6H1705V4274.7L1583.4 4153.1 1541 4110.7 1583.4 4153.1 1705 4031.5V3859.5H2120.2 2205 2120.2Z"/>
<path transform="matrix(.1,0,0,-.1,0,792)" d="M3583.4 4153.1 3877 3859.5 3937 3799.5 3877 3859.5H4292.1V4031.5L4413.7 4153.1 4456.1 4195.5 4413.7 4153.1 4292.1 4274.7V4446.6H3877 3792.1 3877"/>
<path transform="matrix(.1,0,0,-.1,0,792)" stroke-width="12" stroke-linecap="butt" stroke-miterlimit="10" stroke-linejoin="miter" fill="none" stroke="#000000" d="M3583.4 4153.1 3877 3859.5 3937 3799.5 3877 3859.5H4292.1V4031.5L4413.7 4153.1 4456.1 4195.5 4413.7 4153.1 4292.1 4274.7V4446.6H3877 3792.1 3877Z"/>
<path transform="matrix(.1,0,0,-.1,0,792)" d="M3412.1 5151.5 3352.1 5091.5 3412.1 5151.5 3705.7 5445.1 3877 5273.8H3999.2V5213.8 5273.8 5480.9H4206.3V5420.9 5480.9 5603.1L3777 6032.4H3861.9 3777 3169.9L3083.4 5946 3041 5988.4 3083.4 5946 3229.9 5799.5 3083.4 5653.1 3041 5695.5 3083.4 5653.1 3169.9 5566.6H3412.1" fill="#212947"/>
<path transform="matrix(.1,0,0,-.1,0,792)" stroke-width="12" stroke-linecap="butt" stroke-miterlimit="10" stroke-linejoin="miter" fill="none" stroke="#000000" d="M3412.1 5151.5 3352.1 5091.5 3412.1 5151.5 3705.7 5445.1 3877 5273.8H3999.2V5213.8 5273.8 5480.9H4206.3V5420.9 5480.9 5603.1L3777 6032.4H3861.9 3777 3169.9L3083.4 5946 3041 5988.4 3083.4 5946 3229.9 5799.5 3083.4 5653.1 3041 5695.5 3083.4 5653.1 3169.9 5566.6H3412.1Z"/>
<path transform="matrix(.1,0,0,-.1,0,792)" d="M2585 5151.5V5066.6 5566.6H2827.3L2913.7 5653.1 2956.1 5610.7 2913.7 5653.1 2767.3 5799.5 2913.7 5946 2956.1 5903.6 2913.7 5946 2827.3 6032.4H2220.1L2280.1 6092.4 2220.1 6032.4 1790.8 5603.1V5480.9H1730.8 1790.8 1997.9V5273.8H1937.9 1997.9 2120.2L2291.5 5445.1" fill="#212947"/>
<path transform="matrix(.1,0,0,-.1,0,792)" stroke-width="12" stroke-linecap="butt" stroke-miterlimit="10" stroke-linejoin="miter" fill="none" stroke="#000000" d="M2585 5151.5V5066.6 5566.6H2827.3L2913.7 5653.1 2956.1 5610.7 2913.7 5653.1 2767.3 5799.5 2913.7 5946 2956.1 5903.6 2913.7 5946 2827.3 6032.4H2220.1L2280.1 6092.4 2220.1 6032.4 1790.8 5603.1V5480.9H1730.8 1790.8 1997.9V5273.8H1937.9 1997.9 2120.2L2291.5 5445.1Z"/>
<path transform="matrix(.1,0,0,-.1,0,792)" d="M2585 3154.7 2645 3214.7 2585 3154.7 2291.5 2861.1 2120.2 3032.4H1997.9V3092.4 3032.4 2825.3H1790.8V2885.3 2825.3 2703.1L2220.1 2273.8H2135.3 2220.1 2827.3L2913.7 2360.2 2956.1 2317.8 2913.7 2360.2 2767.3 2506.6 2913.7 2653.1 2956.1 2610.7 2913.7 2653.1 2827.3 2739.5H2585" fill="#212947"/>
<path transform="matrix(.1,0,0,-.1,0,792)" stroke-width="12" stroke-linecap="butt" stroke-miterlimit="10" stroke-linejoin="miter" fill="none" stroke="#000000" d="M2585 3154.7 2645 3214.7 2585 3154.7 2291.5 2861.1 2120.2 3032.4H1997.9V3092.4 3032.4 2825.3H1790.8V2885.3 2825.3 2703.1L2220.1 2273.8H2135.3 2220.1 2827.3L2913.7 2360.2 2956.1 2317.8 2913.7 2360.2 2767.3 2506.6 2913.7 2653.1 2956.1 2610.7 2913.7 2653.1 2827.3 2739.5H2585Z"/>
<path transform="matrix(.1,0,0,-.1,0,792)" d="M3412.1 3154.7V3239.5 2739.5H3169.9L3083.4 2653.1 3041 2695.5 3083.4 2653.1 3229.9 2506.6 3083.4 2360.2 3041 2402.6 3083.4 2360.2 3169.9 2273.8H3777L3717 2213.8 3777 2273.8 4206.3 2703.1V2825.3H4266.3 4206.3 3999.2V3032.4H4059.2 3999.2 3877L3705.7 2861.1" fill="#212947"/>
<path transform="matrix(.1,0,0,-.1,0,792)" stroke-width="12" stroke-linecap="butt" stroke-miterlimit="10" stroke-linejoin="miter" fill="none" stroke="#000000" d="M3412.1 3154.7V3239.5 2739.5H3169.9L3083.4 2653.1 3041 2695.5 3083.4 2653.1 3229.9 2506.6 3083.4 2360.2 3041 2402.6 3083.4 2360.2 3169.9 2273.8H3777L3717 2213.8 3777 2273.8 4206.3 2703.1V2825.3H4266.3 4206.3 3999.2V3032.4H4059.2 3999.2 3877L3705.7 2861.1Z"/>
<path transform="matrix(.1,0,0,-.1,0,792)" d="M2000.2 4566.6 2060.2 4506.6 2000.2 4566.6 1706.6 4860.2 1877.9 5031.5V5153.8H1937.9 1877.9 1670.8V5360.9H1730.8 1670.8 1548.5L1119.2 4931.5V5016.4 4931.5 4324.4L1205.7 4237.9 1163.3 4195.5 1205.7 4237.9 1352.1 4384.4 1498.6 4237.9 1456.1 4195.5 1498.6 4237.9 1585 4324.4V4566.6" fill="#212947"/>
<path transform="matrix(.1,0,0,-.1,0,792)" stroke-width="12" stroke-linecap="butt" stroke-miterlimit="10" stroke-linejoin="miter" fill="none" stroke="#000000" d="M2000.2 4566.6 2060.2 4506.6 2000.2 4566.6 1706.6 4860.2 1877.9 5031.5V5153.8H1937.9 1877.9 1670.8V5360.9H1730.8 1670.8 1548.5L1119.2 4931.5V5016.4 4931.5 4324.4L1205.7 4237.9 1163.3 4195.5 1205.7 4237.9 1352.1 4384.4 1498.6 4237.9 1456.1 4195.5 1498.6 4237.9 1585 4324.4V4566.6Z"/>
<path transform="matrix(.1,0,0,-.1,0,792)" d="M2000.2 3739.5H2085 1585V3981.8L1498.6 4068.2 1541 4110.7 1498.6 4068.2 1352.1 3921.8 1205.7 4068.2 1248.1 4110.7 1205.7 4068.2 1119.2 3981.8V3374.6L1059.2 3434.6 1119.2 3374.6 1548.5 2945.3H1670.8V2885.3 2945.3 3152.4H1877.9V3092.4 3152.4 3274.7L1706.6 3446" fill="#212947"/>
<path transform="matrix(.1,0,0,-.1,0,792)" stroke-width="12" stroke-linecap="butt" stroke-miterlimit="10" stroke-linejoin="miter" fill="none" stroke="#000000" d="M2000.2 3739.5H2085 1585V3981.8L1498.6 4068.2 1541 4110.7 1498.6 4068.2 1352.1 3921.8 1205.7 4068.2 1248.1 4110.7 1205.7 4068.2 1119.2 3981.8V3374.6L1059.2 3434.6 1119.2 3374.6 1548.5 2945.3H1670.8V2885.3 2945.3 3152.4H1877.9V3092.4 3152.4 3274.7L1706.6 3446Z"/>
<path transform="matrix(.1,0,0,-.1,0,792)" d="M3997 3739.5 3937 3799.5 3997 3739.5 4290.5 3446 4119.2 3274.7V3152.4H4059.2 4119.2 4326.3V2945.3H4266.3 4326.3 4448.6L4877.9 3374.6V3289.8 3374.6 3981.8L4791.5 4068.2 4833.9 4110.7 4791.5 4068.2 4645 3921.8 4498.6 4068.2 4541 4110.7 4498.6 4068.2 4412.1 3981.8V3739.5" fill="#212947"/>
<path transform="matrix(.1,0,0,-.1,0,792)" stroke-width="12" stroke-linecap="butt" stroke-miterlimit="10" stroke-linejoin="miter" fill="none" stroke="#000000" d="M3997 3739.5 3937 3799.5 3997 3739.5 4290.5 3446 4119.2 3274.7V3152.4H4059.2 4119.2 4326.3V2945.3H4266.3 4326.3 4448.6L4877.9 3374.6V3289.8 3374.6 3981.8L4791.5 4068.2 4833.9 4110.7 4791.5 4068.2 4645 3921.8 4498.6 4068.2 4541 4110.7 4498.6 4068.2 4412.1 3981.8V3739.5Z"/>
<path transform="matrix(.1,0,0,-.1,0,792)" d="M3997 4566.6H3912.1 4412.1V4324.4L4498.6 4237.9 4456.1 4195.5 4498.6 4237.9 4645 4384.4 4791.5 4237.9 4749 4195.5 4791.5 4237.9 4877.9 4324.4V4931.5L4937.9 4871.5 4877.9 4931.5 4448.6 5360.9H4326.3V5420.9 5360.9 5153.8H4119.2V5213.8 5153.8 5031.5L4290.5 4860.2" fill="#212947"/>
<path transform="matrix(.1,0,0,-.1,0,792)" stroke-width="12" stroke-linecap="butt" stroke-miterlimit="10" stroke-linejoin="miter" fill="none" stroke="#000000" d="M3997 4566.6H3912.1 4412.1V4324.4L4498.6 4237.9 4456.1 4195.5 4498.6 4237.9 4645 4384.4 4791.5 4237.9 4749 4195.5 4791.5 4237.9 4877.9 4324.4V4931.5L4937.9 4871.5 4877.9 4931.5 4448.6 5360.9H4326.3V5420.9 5360.9 5153.8H4119.2V5213.8 5153.8 5031.5L4290.5 4860.2Z"/>
<path transform="matrix(.1,0,0,-.1,0,792)" d="M1877.9 5360.9H1730.8 1790.8V5273.8H1877.9 1937.9 1877.9"/>
<path transform="matrix(.1,0,0,-.1,0,792)" stroke-width="12" stroke-linecap="butt" stroke-miterlimit="10" stroke-linejoin="miter" fill="none" stroke="#000000" d="M1877.9 5360.9H1730.8 1790.8V5273.8H1877.9 1937.9 1877.9Z"/>
<path transform="matrix(.1,0,0,-.1,0,792)" d="M1877.9 3032.4V3092.4 3032.4H1790.8V2945.3 2885.3 2945.3H1877.9"/>
<path transform="matrix(.1,0,0,-.1,0,792)" stroke-width="12" stroke-linecap="butt" stroke-miterlimit="10" stroke-linejoin="miter" fill="none" stroke="#000000" d="M1877.9 3032.4V3092.4 3032.4H1790.8V2945.3 2885.3 2945.3H1877.9Z"/>
<path transform="matrix(.1,0,0,-.1,0,792)" d="M2998.6 5737.9 3041 5695.5 2998.6 5737.9 3060.2 5799.5 2998.6 5861.1 2956.1 5903.6 2998.6 5861.1 2937 5799.5"/>
<path transform="matrix(.1,0,0,-.1,0,792)" stroke-width="12" stroke-linecap="butt" stroke-miterlimit="10" stroke-linejoin="miter" fill="none" stroke="#000000" d="M2998.6 5737.9 3041 5695.5 2998.6 5737.9 3060.2 5799.5 2998.6 5861.1 2956.1 5903.6 2998.6 5861.1 2937 5799.5Z"/>
<path transform="matrix(.1,0,0,-.1,0,792)" d="M4119.2 2945.3H4266.3 4206.3V3032.4H4119.2 4059.2 4119.2"/>
<path transform="matrix(.1,0,0,-.1,0,792)" stroke-width="12" stroke-linecap="butt" stroke-miterlimit="10" stroke-linejoin="miter" fill="none" stroke="#000000" d="M4119.2 2945.3H4266.3 4206.3V3032.4H4119.2 4059.2 4119.2Z"/>
<path transform="matrix(.1,0,0,-.1,0,792)" d="M4119.2 5273.8V5213.8 5273.8H4206.3V5360.9 5420.9 5360.9H4119.2"/>
<path transform="matrix(.1,0,0,-.1,0,792)" stroke-width="12" stroke-linecap="butt" stroke-miterlimit="10" stroke-linejoin="miter" fill="none" stroke="#000000" d="M4119.2 5273.8V5213.8 5273.8H4206.3V5360.9 5420.9 5360.9H4119.2Z"/>
<path transform="matrix(.1,0,0,-.1,0,792)" d="M2998.6 2568.2 2956.1 2610.7 2998.6 2568.2 2937 2506.6 2998.6 2445.1 3041 2402.6 2998.6 2445.1 3060.2 2506.6"/>
<path transform="matrix(.1,0,0,-.1,0,792)" stroke-width="12" stroke-linecap="butt" stroke-miterlimit="10" stroke-linejoin="miter" fill="none" stroke="#000000" d="M2998.6 2568.2 2956.1 2610.7 2998.6 2568.2 2937 2506.6 2998.6 2445.1 3041 2402.6 2998.6 2445.1 3060.2 2506.6Z"/>
<path transform="matrix(.1,0,0,-.1,0,792)" d="M1670.8 5652.8 2050.4 6032.4 2110.4 6092.4 2050.4 6032.4H1534.4L1205.7 6361.1 1163.3 6403.6 1205.7 6361.1 1119.2 6274.7V6032.4H877L790.5 5946 748.102 5903.6 790.5 5946 1119.2 5617.3V5101.3 5016.4 5101.3L1498.8 5480.9H1670.8 1730.8 1670.8" fill="#243b36"/>
<path transform="matrix(.1,0,0,-.1,0,792)" stroke-width="12" stroke-linecap="butt" stroke-miterlimit="10" stroke-linejoin="miter" fill="none" stroke="#000000" d="M1670.8 5652.8 2050.4 6032.4 2110.4 6092.4 2050.4 6032.4H1534.4L1205.7 6361.1 1163.3 6403.6 1205.7 6361.1 1119.2 6274.7V6032.4H877L790.5 5946 748.102 5903.6 790.5 5946 1119.2 5617.3V5101.3 5016.4 5101.3L1498.8 5480.9H1670.8 1730.8 1670.8Z"/>
<path transform="matrix(.1,0,0,-.1,0,792)" d="M1670.8 2825.3V2885.3 2825.3H1498.8L1119.2 3204.9 1059.2 3264.9 1119.2 3204.9V2688.9L790.5 2360.2 748.102 2317.8 790.5 2360.2 877 2273.8H1119.2V2031.5L1205.7 1945.1 1248.1 1902.6 1205.7 1945.1 1534.4 2273.8H2050.4 2135.3 2050.4L1670.8 2653.4" fill="#243b36"/>
<path transform="matrix(.1,0,0,-.1,0,792)" stroke-width="12" stroke-linecap="butt" stroke-miterlimit="10" stroke-linejoin="miter" fill="none" stroke="#000000" d="M1670.8 2825.3V2885.3 2825.3H1498.8L1119.2 3204.9 1059.2 3264.9 1119.2 3204.9V2688.9L790.5 2360.2 748.102 2317.8 790.5 2360.2 877 2273.8H1119.2V2031.5L1205.7 1945.1 1248.1 1902.6 1205.7 1945.1 1534.4 2273.8H2050.4 2135.3 2050.4L1670.8 2653.4Z"/>
<path transform="matrix(.1,0,0,-.1,0,792)" d="M2998.6 6030.8 3041 5988.4 2998.6 6030.8 3120.2 6152.4H3657 3741.9 3657L3363.5 6446 3657 6739.5 3717 6799.5 3657 6739.5H3120.2L2998.6 6861.1 2956.1 6903.6 2998.6 6861.1 2877 6739.5H2340.1 2255.3 2340.1L2633.7 6446 2340.1 6152.4 2280.1 6092.4 2340.1 6152.4H2877" fill="#243b36"/>
<path transform="matrix(.1,0,0,-.1,0,792)" stroke-width="12" stroke-linecap="butt" stroke-miterlimit="10" stroke-linejoin="miter" fill="none" stroke="#000000" d="M2998.6 6030.8 3041 5988.4 2998.6 6030.8 3120.2 6152.4H3657 3741.9 3657L3363.5 6446 3657 6739.5 3717 6799.5 3657 6739.5H3120.2L2998.6 6861.1 2956.1 6903.6 2998.6 6861.1 2877 6739.5H2340.1 2255.3 2340.1L2633.7 6446 2340.1 6152.4 2280.1 6092.4 2340.1 6152.4H2877Z"/>
<path transform="matrix(.1,0,0,-.1,0,792)" d="M4326.3 5652.8V5420.9 5480.9H4498.3L4877.9 5101.3 4937.9 5041.3 4877.9 5101.3V5617.3L5206.6 5946 5249 5988.4 5206.6 5946 5120.2 6032.4H4877.9V6274.7L4791.5 6361.1 4749 6403.6 4791.5 6361.1 4462.8 6032.4H3946.7 3861.9 3946.7" fill="#243b36"/>
<path transform="matrix(.1,0,0,-.1,0,792)" stroke-width="12" stroke-linecap="butt" stroke-miterlimit="10" stroke-linejoin="miter" fill="none" stroke="#000000" d="M4326.3 5652.8V5420.9 5480.9H4498.3L4877.9 5101.3 4937.9 5041.3 4877.9 5101.3V5617.3L5206.6 5946 5249 5988.4 5206.6 5946 5120.2 6032.4H4877.9V6274.7L4791.5 6361.1 4749 6403.6 4791.5 6361.1 4462.8 6032.4H3946.7 3861.9 3946.7Z"/>
<path transform="matrix(.1,0,0,-.1,0,792)" d="M4326.3 2653.4 3946.7 2273.8 3886.7 2213.8 3946.7 2273.8H4462.8L4791.5 1945.1 4833.9 1902.6 4791.5 1945.1 4877.9 2031.5V2273.8H5120.2L5206.6 2360.2 5249 2402.6 5206.6 2360.2 4877.9 2688.9V3204.9 3289.8 3204.9L4498.3 2825.3H4326.3 4266.3 4326.3" fill="#243b36"/>
<path transform="matrix(.1,0,0,-.1,0,792)" stroke-width="12" stroke-linecap="butt" stroke-miterlimit="10" stroke-linejoin="miter" fill="none" stroke="#000000" d="M4326.3 2653.4 3946.7 2273.8 3886.7 2213.8 3946.7 2273.8H4462.8L4791.5 1945.1 4833.9 1902.6 4791.5 1945.1 4877.9 2031.5V2273.8H5120.2L5206.6 2360.2 5249 2402.6 5206.6 2360.2 4877.9 2688.9V3204.9 3289.8 3204.9L4498.3 2825.3H4326.3 4266.3 4326.3Z"/>
<path transform="matrix(.1,0,0,-.1,0,792)" d="M2998.6 2275.4 2956.1 2317.8 2998.6 2275.4 2877 2153.8H2340.1 2255.3 2340.1L2633.7 1860.2 2340.1 1566.6 2280.1 1506.6 2340.1 1566.6H2877L2998.6 1445.1 3041 1402.6 2998.6 1445.1 3120.2 1566.6H3657 3741.9 3657L3363.5 1860.2 3657 2153.8 3717 2213.8 3657 2153.8H3120.2" fill="#243b36"/>
<path transform="matrix(.1,0,0,-.1,0,792)" stroke-width="12" stroke-linecap="butt" stroke-miterlimit="10" stroke-linejoin="miter" fill="none" stroke="#000000" d="M2998.6 2275.4 2956.1 2317.8 2998.6 2275.4 2877 2153.8H2340.1 2255.3 2340.1L2633.7 1860.2 2340.1 1566.6 2280.1 1506.6 2340.1 1566.6H2877L2998.6 1445.1 3041 1402.6 2998.6 1445.1 3120.2 1566.6H3657 3741.9 3657L3363.5 1860.2 3657 2153.8 3717 2213.8 3657 2153.8H3120.2Z"/>
<path transform="matrix(.1,0,0,-.1,0,792)" d="M3826.7 6152.4H3741.9 4413.1L4706.6 6446 4749 6403.6 4706.6 6446 4413.1 6739.5H3826.7L3886.7 6799.5 3826.7 6739.5 3533.2 6446"/>
<path transform="matrix(.1,0,0,-.1,0,792)" stroke-width="12" stroke-linecap="butt" stroke-miterlimit="10" stroke-linejoin="miter" fill="none" stroke="#000000" d="M3826.7 6152.4H3741.9 4413.1L4706.6 6446 4749 6403.6 4706.6 6446 4413.1 6739.5H3826.7L3886.7 6799.5 3826.7 6739.5 3533.2 6446Z"/>
<path transform="matrix(.1,0,0,-.1,0,792)" d="M2170.4 6152.4 2110.4 6092.4 2170.4 6152.4 2464 6446 2170.4 6739.5H2255.3 2170.4 1584.1L1290.5 6446 1248.1 6488.4 1290.5 6446 1584.1 6152.4"/>
<path transform="matrix(.1,0,0,-.1,0,792)" stroke-width="12" stroke-linecap="butt" stroke-miterlimit="10" stroke-linejoin="miter" fill="none" stroke="#000000" d="M2170.4 6152.4 2110.4 6092.4 2170.4 6152.4 2464 6446 2170.4 6739.5H2255.3 2170.4 1584.1L1290.5 6446 1248.1 6488.4 1290.5 6446 1584.1 6152.4Z"/>
<path transform="matrix(.1,0,0,-.1,0,792)" d="M1584.1 2153.8 1290.5 1860.2 1248.1 1902.6 1290.5 1860.2 1584.1 1566.6H2170.4L2110.4 1506.6 2170.4 1566.6 2464 1860.2 2170.4 2153.8H2255.3 2170.4"/>
<path transform="matrix(.1,0,0,-.1,0,792)" stroke-width="12" stroke-linecap="butt" stroke-miterlimit="10" stroke-linejoin="miter" fill="none" stroke="#000000" d="M1584.1 2153.8 1290.5 1860.2 1248.1 1902.6 1290.5 1860.2 1584.1 1566.6H2170.4L2110.4 1506.6 2170.4 1566.6 2464 1860.2 2170.4 2153.8H2255.3 2170.4Z"/>
<path transform="matrix(.1,0,0,-.1,0,792)" d="M3826.7 2153.8 3886.7 2213.8 3826.7 2153.8 3533.2 1860.2 3826.7 1566.6H3741.9 3826.7 4413.1L4706.6 1860.2 4749 1817.8 4706.6 1860.2 4413.1 2153.8"/>
<path transform="matrix(.1,0,0,-.1,0,792)" stroke-width="12" stroke-linecap="butt" stroke-miterlimit="10" stroke-linejoin="miter" fill="none" stroke="#000000" d="M3826.7 2153.8 3886.7 2213.8 3826.7 2153.8 3533.2 1860.2 3826.7 1566.6H3741.9 3826.7 4413.1L4706.6 1860.2 4749 1817.8 4706.6 1860.2 4413.1 2153.8Z"/>
<path transform="matrix(.1,0,0,-.1,0,792)" d="M1413.7 4153.1 1456.1 4195.5 1413.7 4153.1 1352.1 4214.7 1290.5 4153.1 1248.1 4110.7 1290.5 4153.1 1352.1 4091.5"/>
<path transform="matrix(.1,0,0,-.1,0,792)" stroke-width="12" stroke-linecap="butt" stroke-miterlimit="10" stroke-linejoin="miter" fill="none" stroke="#000000" d="M1413.7 4153.1 1456.1 4195.5 1413.7 4153.1 1352.1 4214.7 1290.5 4153.1 1248.1 4110.7 1290.5 4153.1 1352.1 4091.5Z"/>
<path transform="matrix(.1,0,0,-.1,0,792)" d="M4583.4 4153.1 4541 4110.7 4583.4 4153.1 4645 4091.5 4706.6 4153.1 4749 4195.5 4706.6 4153.1 4645 4214.7"/>
<path transform="matrix(.1,0,0,-.1,0,792)" stroke-width="12" stroke-linecap="butt" stroke-miterlimit="10" stroke-linejoin="miter" fill="none" stroke="#000000" d="M4583.4 4153.1 4541 4110.7 4583.4 4153.1 4645 4091.5 4706.6 4153.1 4749 4195.5 4706.6 4153.1 4645 4214.7Z"/>
<path transform="matrix(.1,0,0,-.1,0,792)" d="M1120.8 6446 1163.3 6403.6 1120.8 6446 999.199 6567.6V6739.5H827.301L705.699 6861.1 748.102 6903.6 705.699 6861.1 584.102 6739.5H412.102V6567.6L290.5 6446 248.102 6488.4 290.5 6446 412.102 6324.4V6152.4H584.102L705.699 6030.8 663.301 5988.4 705.699 6030.8 827.301 6152.4H999.199V6324.4" fill="#212947"/>
<path transform="matrix(.1,0,0,-.1,0,792)" stroke-width="12" stroke-linecap="butt" stroke-miterlimit="10" stroke-linejoin="miter" fill="none" stroke="#000000" d="M1120.8 6446 1163.3 6403.6 1120.8 6446 999.199 6567.6V6739.5H827.301L705.699 6861.1 748.102 6903.6 705.699 6861.1 584.102 6739.5H412.102V6567.6L290.5 6446 248.102 6488.4 290.5 6446 412.102 6324.4V6152.4H584.102L705.699 6030.8 663.301 5988.4 705.699 6030.8 827.301 6152.4H999.199V6324.4Z"/>
<path transform="matrix(.1,0,0,-.1,0,792)" d="M1205.7 6530.8 1248.1 6488.4 1205.7 6530.8 1534.4 6859.5H2050.4 2135.3 2050.4L1670.8 7239.2V7411.1 7471.1 7411.1H1498.8L1119.2 7790.7 1059.2 7850.7 1119.2 7790.7V7274.7L790.5 6946 748.102 6903.6 790.5 6946 877 6859.5H1119.2V6617.3" fill="#243b36"/>
<path transform="matrix(.1,0,0,-.1,0,792)" stroke-width="12" stroke-linecap="butt" stroke-miterlimit="10" stroke-linejoin="miter" fill="none" stroke="#000000" d="M1205.7 6530.8 1248.1 6488.4 1205.7 6530.8 1534.4 6859.5H2050.4 2135.3 2050.4L1670.8 7239.2V7411.1 7471.1 7411.1H1498.8L1119.2 7790.7 1059.2 7850.7 1119.2 7790.7V7274.7L790.5 6946 748.102 6903.6 790.5 6946 877 6859.5H1119.2V6617.3Z"/>
<path transform="matrix(.1,0,0,-.1,0,792)" d="M1120.8 4153.1 1163.3 4195.5 1120.8 4153.1 999.199 4274.7V4811.5 4896.4 4811.5L705.699 4518 412.102 4811.5 352.102 4871.5 412.102 4811.5V4274.7L290.5 4153.1 248.102 4110.7 290.5 4153.1 412.102 4031.5V3494.6 3409.8 3494.6L705.699 3788.2 999.199 3494.6 1059.2 3434.6 999.199 3494.6V4031.5" fill="#243b36"/>
<path transform="matrix(.1,0,0,-.1,0,792)" stroke-width="12" stroke-linecap="butt" stroke-miterlimit="10" stroke-linejoin="miter" fill="none" stroke="#000000" d="M1120.8 4153.1 1163.3 4195.5 1120.8 4153.1 999.199 4274.7V4811.5 4896.4 4811.5L705.699 4518 412.102 4811.5 352.102 4871.5 412.102 4811.5V4274.7L290.5 4153.1 248.102 4110.7 290.5 4153.1 412.102 4031.5V3494.6 3409.8 3494.6L705.699 3788.2 999.199 3494.6 1059.2 3434.6 999.199 3494.6V4031.5Z"/>
<path transform="matrix(.1,0,0,-.1,0,792)" d="M1205.7 1775.4 1163.3 1817.8 1205.7 1775.4 1119.2 1688.9V1446.6H877L790.5 1360.2 748.102 1317.8 790.5 1360.2 1119.2 1031.5V515.5 430.602 515.5L1498.8 895.102H1670.8 1730.8 1670.8V1067L2050.4 1446.6 2110.4 1506.6 2050.4 1446.6H1534.4" fill="#243b36"/>
<path transform="matrix(.1,0,0,-.1,0,792)" stroke-width="12" stroke-linecap="butt" stroke-miterlimit="10" stroke-linejoin="miter" fill="none" stroke="#000000" d="M1205.7 1775.4 1163.3 1817.8 1205.7 1775.4 1119.2 1688.9V1446.6H877L790.5 1360.2 748.102 1317.8 790.5 1360.2 1119.2 1031.5V515.5 430.602 515.5L1498.8 895.102H1670.8 1730.8 1670.8V1067L2050.4 1446.6 2110.4 1506.6 2050.4 1446.6H1534.4Z"/>
<path transform="matrix(.1,0,0,-.1,0,792)" d="M1120.8 1860.2 1163.3 1817.8 1120.8 1860.2 999.199 1981.8V2153.8H827.301L705.699 2275.4 748.102 2317.8 705.699 2275.4 584.102 2153.8H412.102V1981.8L290.5 1860.2 248.102 1902.6 290.5 1860.2 412.102 1738.6V1566.6H584.102L705.699 1445.1 663.301 1402.6 705.699 1445.1 827.301 1566.6H999.199V1738.6" fill="#212947"/>
<path transform="matrix(.1,0,0,-.1,0,792)" stroke-width="12" stroke-linecap="butt" stroke-miterlimit="10" stroke-linejoin="miter" fill="none" stroke="#000000" d="M1120.8 1860.2 1163.3 1817.8 1120.8 1860.2 999.199 1981.8V2153.8H827.301L705.699 2275.4 748.102 2317.8 705.699 2275.4 584.102 2153.8H412.102V1981.8L290.5 1860.2 248.102 1902.6 290.5 1860.2 412.102 1738.6V1566.6H584.102L705.699 1445.1 663.301 1402.6 705.699 1445.1 827.301 1566.6H999.199V1738.6Z"/>
<path transform="matrix(.1,0,0,-.1,0,792)" d="M4876.3 1860.2 4833.9 1902.6 4876.3 1860.2 4997.9 1738.6V1566.6H5169.9L5291.5 1445.1 5249 1402.6 5291.5 1445.1 5413.1 1566.6H5585V1738.6L5706.6 1860.2 5749 1817.8 5706.6 1860.2 5585 1981.8V2153.8H5413.1L5291.5 2275.4 5333.9 2317.8 5291.5 2275.4 5169.9 2153.8H4997.9V1981.8" fill="#212947"/>
<path transform="matrix(.1,0,0,-.1,0,792)" stroke-width="12" stroke-linecap="butt" stroke-miterlimit="10" stroke-linejoin="miter" fill="none" stroke="#000000" d="M4876.3 1860.2 4833.9 1902.6 4876.3 1860.2 4997.9 1738.6V1566.6H5169.9L5291.5 1445.1 5249 1402.6 5291.5 1445.1 5413.1 1566.6H5585V1738.6L5706.6 1860.2 5749 1817.8 5706.6 1860.2 5585 1981.8V2153.8H5413.1L5291.5 2275.4 5333.9 2317.8 5291.5 2275.4 5169.9 2153.8H4997.9V1981.8Z"/>
<path transform="matrix(.1,0,0,-.1,0,792)" d="M4791.5 1775.4 4749 1817.8 4791.5 1775.4 4462.8 1446.6H3946.7 3861.9 3946.7L4326.3 1067V895.102 835.102 895.102H4498.3L4877.9 515.5 4937.9 455.5 4877.9 515.5V1031.5L5206.6 1360.2 5249 1402.6 5206.6 1360.2 5120.2 1446.6H4877.9V1688.9" fill="#243b36"/>
<path transform="matrix(.1,0,0,-.1,0,792)" stroke-width="12" stroke-linecap="butt" stroke-miterlimit="10" stroke-linejoin="miter" fill="none" stroke="#000000" d="M4791.5 1775.4 4749 1817.8 4791.5 1775.4 4462.8 1446.6H3946.7 3861.9 3946.7L4326.3 1067V895.102 835.102 895.102H4498.3L4877.9 515.5 4937.9 455.5 4877.9 515.5V1031.5L5206.6 1360.2 5249 1402.6 5206.6 1360.2 5120.2 1446.6H4877.9V1688.9Z"/>
<path transform="matrix(.1,0,0,-.1,0,792)" d="M4876.3 4153.1 4833.9 4110.7 4876.3 4153.1 4997.9 4031.5V3494.6 3409.8 3494.6L5291.5 3788.2 5585 3494.6 5645 3434.6 5585 3494.6V4031.5L5706.6 4153.1 5749 4195.5 5706.6 4153.1 5585 4274.7V4811.5 4896.4 4811.5L5291.5 4518 4997.9 4811.5 4937.9 4871.5 4997.9 4811.5V4274.7" fill="#243b36"/>
<path transform="matrix(.1,0,0,-.1,0,792)" stroke-width="12" stroke-linecap="butt" stroke-miterlimit="10" stroke-linejoin="miter" fill="none" stroke="#000000" d="M4876.3 4153.1 4833.9 4110.7 4876.3 4153.1 4997.9 4031.5V3494.6 3409.8 3494.6L5291.5 3788.2 5585 3494.6 5645 3434.6 5585 3494.6V4031.5L5706.6 4153.1 5749 4195.5 5706.6 4153.1 5585 4274.7V4811.5 4896.4 4811.5L5291.5 4518 4997.9 4811.5 4937.9 4871.5 4997.9 4811.5V4274.7Z"/>
<path transform="matrix(.1,0,0,-.1,0,792)" d="M4791.5 6530.8 4833.9 6488.4 4791.5 6530.8 4877.9 6617.3V6859.5H5120.2L5206.6 6946 5249 6988.4 5206.6 6946 4877.9 7274.7V7790.7 7875.6 7790.7L4498.3 7411.1H4326.3 4266.3 4326.3V7239.2L3946.7 6859.5 3886.7 6799.5 3946.7 6859.5H4462.8" fill="#243b36"/>
<path transform="matrix(.1,0,0,-.1,0,792)" stroke-width="12" stroke-linecap="butt" stroke-miterlimit="10" stroke-linejoin="miter" fill="none" stroke="#000000" d="M4791.5 6530.8 4833.9 6488.4 4791.5 6530.8 4877.9 6617.3V6859.5H5120.2L5206.6 6946 5249 6988.4 5206.6 6946 4877.9 7274.7V7790.7 7875.6 7790.7L4498.3 7411.1H4326.3 4266.3 4326.3V7239.2L3946.7 6859.5 3886.7 6799.5 3946.7 6859.5H4462.8Z"/>
<path transform="matrix(.1,0,0,-.1,0,792)" d="M4876.3 6446 4833.9 6488.4 4876.3 6446 4997.9 6324.4V6152.4H5169.9L5291.5 6030.8 5249 5988.4 5291.5 6030.8 5413.1 6152.4H5585V6324.4L5706.6 6446 5749 6403.6 5706.6 6446 5585 6567.6V6739.5H5413.1L5291.5 6861.1 5333.9 6903.6 5291.5 6861.1 5169.9 6739.5H4997.9V6567.6" fill="#212947"/>
<path transform="matrix(.1,0,0,-.1,0,792)" stroke-width="12" stroke-linecap="butt" stroke-miterlimit="10" stroke-linejoin="miter" fill="none" stroke="#000000" d="M4876.3 6446 4833.9 6488.4 4876.3 6446 4997.9 6324.4V6152.4H5169.9L5291.5 6030.8 5249 5988.4 5291.5 6030.8 5413.1 6152.4H5585V6324.4L5706.6 6446 5749 6403.6 5706.6 6446 5585 6567.6V6739.5H5413.1L5291.5 6861.1 5333.9 6903.6 5291.5 6861.1 5169.9 6739.5H4997.9V6567.6Z"/>
<path transform="matrix(.1,0,0,-.1,0,792)" d="M3777 6859.5 3717 6799.5 3777 6859.5 4206.3 7288.9V7411.1H4266.3 4206.3 3999.2V7618.2H4059.2 3999.2 3877L3705.7 7446.9 3412.1 7740.5V7825.3 7740.5 7325.3H3169.9L3083.4 7238.9 3041 7281.3 3083.4 7238.9 3229.9 7092.4 3083.4 6946 3041 6988.4 3083.4 6946 3169.9 6859.5" fill="#212947"/>
<path transform="matrix(.1,0,0,-.1,0,792)" stroke-width="12" stroke-linecap="butt" stroke-miterlimit="10" stroke-linejoin="miter" fill="none" stroke="#000000" d="M3777 6859.5 3717 6799.5 3777 6859.5 4206.3 7288.9V7411.1H4266.3 4206.3 3999.2V7618.2H4059.2 3999.2 3877L3705.7 7446.9 3412.1 7740.5V7825.3 7740.5 7325.3H3169.9L3083.4 7238.9 3041 7281.3 3083.4 7238.9 3229.9 7092.4 3083.4 6946 3041 6988.4 3083.4 6946 3169.9 6859.5Z"/>
<path transform="matrix(.1,0,0,-.1,0,792)" d="M2827.3 6859.5 2913.7 6946 2956.1 6903.6 2913.7 6946 2767.3 7092.4 2913.7 7238.9 2956.1 7196.5 2913.7 7238.9 2827.3 7325.3H2585V7740.5L2645 7800.5 2585 7740.5 2291.5 7446.9 2120.2 7618.2H1997.9V7678.2 7618.2 7411.1H1790.8V7471.1 7411.1 7288.9L2220.1 6859.5H2135.3 2220.1" fill="#212947"/>
<path transform="matrix(.1,0,0,-.1,0,792)" stroke-width="12" stroke-linecap="butt" stroke-miterlimit="10" stroke-linejoin="miter" fill="none" stroke="#000000" d="M2827.3 6859.5 2913.7 6946 2956.1 6903.6 2913.7 6946 2767.3 7092.4 2913.7 7238.9 2956.1 7196.5 2913.7 7238.9 2827.3 7325.3H2585V7740.5L2645 7800.5 2585 7740.5 2291.5 7446.9 2120.2 7618.2H1997.9V7678.2 7618.2 7411.1H1790.8V7471.1 7411.1 7288.9L2220.1 6859.5H2135.3 2220.1Z"/>
<path transform="matrix(.1,0,0,-.1,0,792)" d="M999.199 5567.6 705.699 5861.1 748.102 5903.6 705.699 5861.1 412.102 5567.6V4981.3L352.102 5041.3 412.102 4981.3 705.699 4687.7 999.199 4981.3V4896.4 4981.3"/>
<path transform="matrix(.1,0,0,-.1,0,792)" stroke-width="12" stroke-linecap="butt" stroke-miterlimit="10" stroke-linejoin="miter" fill="none" stroke="#000000" d="M999.199 5567.6 705.699 5861.1 748.102 5903.6 705.699 5861.1 412.102 5567.6V4981.3L352.102 5041.3 412.102 4981.3 705.699 4687.7 999.199 4981.3V4896.4 4981.3Z"/>
<path transform="matrix(.1,0,0,-.1,0,792)" d="M999.199 3324.9 1059.2 3264.9 999.199 3324.9 705.699 3618.5 412.102 3324.9V3409.8 3324.9 2738.6L705.699 2445.1 663.301 2402.6 705.699 2445.1 999.199 2738.6"/>
<path transform="matrix(.1,0,0,-.1,0,792)" stroke-width="12" stroke-linecap="butt" stroke-miterlimit="10" stroke-linejoin="miter" fill="none" stroke="#000000" d="M999.199 3324.9 1059.2 3264.9 999.199 3324.9 705.699 3618.5 412.102 3324.9V3409.8 3324.9 2738.6L705.699 2445.1 663.301 2402.6 705.699 2445.1 999.199 2738.6Z"/>
<path transform="matrix(.1,0,0,-.1,0,792)" d="M2220.1 1446.6 2280.1 1506.6 2220.1 1446.6 1790.8 1017.3V895.102H1730.8 1790.8 1997.9V688H1937.9 1997.9 2120.2L2291.5 859.301 2585 565.699V480.898 565.699 980.898H2827.3L2913.7 1067.3 2956.1 1024.9 2913.7 1067.3 2767.3 1213.8 2913.7 1360.2 2956.1 1317.8 2913.7 1360.2 2827.3 1446.6" fill="#212947"/>
<path transform="matrix(.1,0,0,-.1,0,792)" stroke-width="12" stroke-linecap="butt" stroke-miterlimit="10" stroke-linejoin="miter" fill="none" stroke="#000000" d="M2220.1 1446.6 2280.1 1506.6 2220.1 1446.6 1790.8 1017.3V895.102H1730.8 1790.8 1997.9V688H1937.9 1997.9 2120.2L2291.5 859.301 2585 565.699V480.898 565.699 980.898H2827.3L2913.7 1067.3 2956.1 1024.9 2913.7 1067.3 2767.3 1213.8 2913.7 1360.2 2956.1 1317.8 2913.7 1360.2 2827.3 1446.6Z"/>
<path transform="matrix(.1,0,0,-.1,0,792)" d="M3169.9 1446.6 3083.4 1360.2 3041 1402.6 3083.4 1360.2 3229.9 1213.8 3083.4 1067.3 3041 1109.7 3083.4 1067.3 3169.9 980.898H3412.1V565.699L3352.1 505.699 3412.1 565.699 3705.7 859.301 3877 688H3999.2V628 688 895.102H4206.3V835.102 895.102 1017.3L3777 1446.6H3861.9 3777" fill="#212947"/>
<path transform="matrix(.1,0,0,-.1,0,792)" stroke-width="12" stroke-linecap="butt" stroke-miterlimit="10" stroke-linejoin="miter" fill="none" stroke="#000000" d="M3169.9 1446.6 3083.4 1360.2 3041 1402.6 3083.4 1360.2 3229.9 1213.8 3083.4 1067.3 3041 1109.7 3083.4 1067.3 3169.9 980.898H3412.1V565.699L3352.1 505.699 3412.1 565.699 3705.7 859.301 3877 688H3999.2V628 688 895.102H4206.3V835.102 895.102 1017.3L3777 1446.6H3861.9 3777Z"/>
<path transform="matrix(.1,0,0,-.1,0,792)" d="M4997.9 2738.6 5291.5 2445.1 5249 2402.6 5291.5 2445.1 5585 2738.6V3324.9L5645 3264.9 5585 3324.9 5291.5 3618.5 4997.9 3324.9V3409.8 3324.9"/>
<path transform="matrix(.1,0,0,-.1,0,792)" stroke-width="12" stroke-linecap="butt" stroke-miterlimit="10" stroke-linejoin="miter" fill="none" stroke="#000000" d="M4997.9 2738.6 5291.5 2445.1 5249 2402.6 5291.5 2445.1 5585 2738.6V3324.9L5645 3264.9 5585 3324.9 5291.5 3618.5 4997.9 3324.9V3409.8 3324.9Z"/>
<path transform="matrix(.1,0,0,-.1,0,792)" d="M4997.9 4981.3 4937.9 5041.3 4997.9 4981.3 5291.5 4687.7 5585 4981.3V4896.4 4981.3 5567.6L5291.5 5861.1 5333.9 5903.6 5291.5 5861.1 4997.9 5567.6"/>
<path transform="matrix(.1,0,0,-.1,0,792)" stroke-width="12" stroke-linecap="butt" stroke-miterlimit="10" stroke-linejoin="miter" fill="none" stroke="#000000" d="M4997.9 4981.3 4937.9 5041.3 4997.9 4981.3 5291.5 4687.7 5585 4981.3V4896.4 4981.3 5567.6L5291.5 5861.1 5333.9 5903.6 5291.5 5861.1 4997.9 5567.6Z"/>
<path transform="matrix(.1,0,0,-.1,0,792)" d="M2998.6 7030.8 3041 6988.4 2998.6 7030.8 3060.2 7092.4 2998.6 7154 2956.1 7196.5 2998.6 7154 2937 7092.4"/>
<path transform="matrix(.1,0,0,-.1,0,792)" stroke-width="12" stroke-linecap="butt" stroke-miterlimit="10" stroke-linejoin="miter" fill="none" stroke="#000000" d="M2998.6 7030.8 3041 6988.4 2998.6 7030.8 3060.2 7092.4 2998.6 7154 2956.1 7196.5 2998.6 7154 2937 7092.4Z"/>
<path transform="matrix(.1,0,0,-.1,0,792)" d="M2998.6 1275.4 2956.1 1317.8 2998.6 1275.4 2937 1213.8 2998.6 1152.2 3041 1109.7 2998.6 1152.2 3060.2 1213.8"/>
<path transform="matrix(.1,0,0,-.1,0,792)" stroke-width="12" stroke-linecap="butt" stroke-miterlimit="10" stroke-linejoin="miter" fill="none" stroke="#000000" d="M2998.6 1275.4 2956.1 1317.8 2998.6 1275.4 2937 1213.8 2998.6 1152.2 3041 1109.7 2998.6 1152.2 3060.2 1213.8Z"/>
<path transform="matrix(.1,0,0,-.1,0,792)" d="M2998.6 7323.7 3041 7281.3 2998.6 7323.7 3120.2 7445.3H3292.1V7860.5 7945.3 7860.5L2998.6 8154 2705 7860.5 2645 7800.5 2705 7860.5V7445.3H2877"/>
<path transform="matrix(.1,0,0,-.1,0,792)" stroke-width="12" stroke-linecap="butt" stroke-miterlimit="10" stroke-linejoin="miter" fill="none" stroke="#000000" d="M2998.6 7323.7 3041 7281.3 2998.6 7323.7 3120.2 7445.3H3292.1V7860.5 7945.3 7860.5L2998.6 8154 2705 7860.5 2645 7800.5 2705 7860.5V7445.3H2877Z"/>
<path transform="matrix(.1,0,0,-.1,0,792)" d="M999.199 7324.4V7910.7L1059.2 7850.7 999.199 7910.7 705.699 8204.3 412.102 7910.7V7995.6 7910.7 7324.4L705.699 7030.8 663.301 6988.4 705.699 7030.8"/>
<path transform="matrix(.1,0,0,-.1,0,792)" stroke-width="12" stroke-linecap="butt" stroke-miterlimit="10" stroke-linejoin="miter" fill="none" stroke="#000000" d="M999.199 7324.4V7910.7L1059.2 7850.7 999.199 7910.7 705.699 8204.3 412.102 7910.7V7995.6 7910.7 7324.4L705.699 7030.8 663.301 6988.4 705.699 7030.8Z"/>
<path transform="matrix(.1,0,0,-.1,0,792)" d="M4997.9 7324.4 5291.5 7030.8 5249 6988.4 5291.5 7030.8 5585 7324.4V7910.7L5645 7850.7 5585 7910.7 5291.5 8204.3 4997.9 7910.7V7995.6 7910.7"/>
<path transform="matrix(.1,0,0,-.1,0,792)" stroke-width="12" stroke-linecap="butt" stroke-miterlimit="10" stroke-linejoin="miter" fill="none" stroke="#000000" d="M4997.9 7324.4 5291.5 7030.8 5249 6988.4 5291.5 7030.8 5585 7324.4V7910.7L5645 7850.7 5585 7910.7 5291.5 8204.3 4997.9 7910.7V7995.6 7910.7Z"/>
<path transform="matrix(.1,0,0,-.1,0,792)" d="M620.801 6946 663.301 6988.4 620.801 6946 292.102 7274.7V7790.7 7875.6 7790.7L-87.5 7411.1H-259.398-319.398-259.398V7239.2L-639.102 6859.5-699.102 6799.5-639.102 6859.5H-123L205.699 6530.8 248.102 6488.4 205.699 6530.8 292.102 6617.3V6859.5H534.398" fill="#243b36"/>
<path transform="matrix(.1,0,0,-.1,0,792)" stroke-width="12" stroke-linecap="butt" stroke-miterlimit="10" stroke-linejoin="miter" fill="none" stroke="#000000" d="M620.801 6946 663.301 6988.4 620.801 6946 292.102 7274.7V7790.7 7875.6 7790.7L-87.5 7411.1H-259.398-319.398-259.398V7239.2L-639.102 6859.5-699.102 6799.5-639.102 6859.5H-123L205.699 6530.8 248.102 6488.4 205.699 6530.8 292.102 6617.3V6859.5H534.398Z"/>
<path transform="matrix(.1,0,0,-.1,0,792)" d="M620.801 5946 663.301 5988.4 620.801 5946 534.398 6032.4H292.102V6274.7L205.699 6361.1 163.301 6403.6 205.699 6361.1-123 6032.4H-639.102-723.898-639.102L-259.398 5652.8V5480.9 5420.9 5480.9H-87.5L292.102 5101.3 352.102 5041.3 292.102 5101.3V5617.3" fill="#243b36"/>
<path transform="matrix(.1,0,0,-.1,0,792)" stroke-width="12" stroke-linecap="butt" stroke-miterlimit="10" stroke-linejoin="miter" fill="none" stroke="#000000" d="M620.801 5946 663.301 5988.4 620.801 5946 534.398 6032.4H292.102V6274.7L205.699 6361.1 163.301 6403.6 205.699 6361.1-123 6032.4H-639.102-723.898-639.102L-259.398 5652.8V5480.9 5420.9 5480.9H-87.5L292.102 5101.3 352.102 5041.3 292.102 5101.3V5617.3Z"/>
<path transform="matrix(.1,0,0,-.1,0,792)" d="M620.801 2360.2 663.301 2402.6 620.801 2360.2 292.102 2688.9V3204.9 3289.8 3204.9L-87.5 2825.3H-259.398-319.398-259.398V2653.4L-639.102 2273.8-699.102 2213.8-639.102 2273.8H-123L205.699 1945.1 248.102 1902.6 205.699 1945.1 292.102 2031.5V2273.8H534.398" fill="#243b36"/>
<path transform="matrix(.1,0,0,-.1,0,792)" stroke-width="12" stroke-linecap="butt" stroke-miterlimit="10" stroke-linejoin="miter" fill="none" stroke="#000000" d="M620.801 2360.2 663.301 2402.6 620.801 2360.2 292.102 2688.9V3204.9 3289.8 3204.9L-87.5 2825.3H-259.398-319.398-259.398V2653.4L-639.102 2273.8-699.102 2213.8-639.102 2273.8H-123L205.699 1945.1 248.102 1902.6 205.699 1945.1 292.102 2031.5V2273.8H534.398Z"/>
<path transform="matrix(.1,0,0,-.1,0,792)" d="M705.699 1275.4 748.102 1317.8 705.699 1275.4 412.102 981.801V395.5L352.102 455.5 412.102 395.5 705.699 101.898 999.199 395.5V310.602 395.5 981.801"/>
<path transform="matrix(.1,0,0,-.1,0,792)" stroke-width="12" stroke-linecap="butt" stroke-miterlimit="10" stroke-linejoin="miter" fill="none" stroke="#000000" d="M705.699 1275.4 748.102 1317.8 705.699 1275.4 412.102 981.801V395.5L352.102 455.5 412.102 395.5 705.699 101.898 999.199 395.5V310.602 395.5 981.801Z"/>
<path transform="matrix(.1,0,0,-.1,0,792)" d="M620.801 1360.2 663.301 1402.6 620.801 1360.2 534.398 1446.6H292.102V1688.9L205.699 1775.4 163.301 1817.8 205.699 1775.4-123 1446.6H-639.102-723.898-639.102L-259.398 1067V895.102 835.102 895.102H-87.5L292.102 515.5 352.102 455.5 292.102 515.5V1031.5" fill="#243b36"/>
<path transform="matrix(.1,0,0,-.1,0,792)" stroke-width="12" stroke-linecap="butt" stroke-miterlimit="10" stroke-linejoin="miter" fill="none" stroke="#000000" d="M620.801 1360.2 663.301 1402.6 620.801 1360.2 534.398 1446.6H292.102V1688.9L205.699 1775.4 163.301 1817.8 205.699 1775.4-123 1446.6H-639.102-723.898-639.102L-259.398 1067V895.102 835.102 895.102H-87.5L292.102 515.5 352.102 455.5 292.102 515.5V1031.5Z"/>
<path transform="matrix(.1,0,0,-.1,0,792)" d="M2998.6 982.5 2956.1 1024.9 2998.6 982.5 2877 860.898H2705V445.699 360.898 445.699L2998.6 152.199 3292.1 445.699 3352.1 505.699 3292.1 445.699V860.898H3120.2"/>
<path transform="matrix(.1,0,0,-.1,0,792)" stroke-width="12" stroke-linecap="butt" stroke-miterlimit="10" stroke-linejoin="miter" fill="none" stroke="#000000" d="M2998.6 982.5 2956.1 1024.9 2998.6 982.5 2877 860.898H2705V445.699 360.898 445.699L2998.6 152.199 3292.1 445.699 3352.1 505.699 3292.1 445.699V860.898H3120.2Z"/>
<path transform="matrix(.1,0,0,-.1,0,792)" d="M5376.3 1360.2 5333.9 1317.8 5376.3 1360.2 5705 1031.5V515.5 430.602 515.5L6084.6 895.102H6256.6 6316.6 6256.6V1067L6636.2 1446.6 6696.2 1506.6 6636.2 1446.6H6120.2L5791.5 1775.4 5749 1817.8 5791.5 1775.4 5705 1688.9V1446.6H5462.8" fill="#243b36"/>
<path transform="matrix(.1,0,0,-.1,0,792)" stroke-width="12" stroke-linecap="butt" stroke-miterlimit="10" stroke-linejoin="miter" fill="none" stroke="#000000" d="M5376.3 1360.2 5333.9 1317.8 5376.3 1360.2 5705 1031.5V515.5 430.602 515.5L6084.6 895.102H6256.6 6316.6 6256.6V1067L6636.2 1446.6 6696.2 1506.6 6636.2 1446.6H6120.2L5791.5 1775.4 5749 1817.8 5791.5 1775.4 5705 1688.9V1446.6H5462.8Z"/>
<path transform="matrix(.1,0,0,-.1,0,792)" d="M5291.5 1275.4 5333.9 1317.8 5291.5 1275.4 4997.9 981.801V395.5L4937.9 455.5 4997.9 395.5 5291.5 101.898 5585 395.5V310.602 395.5 981.801"/>
<path transform="matrix(.1,0,0,-.1,0,792)" stroke-width="12" stroke-linecap="butt" stroke-miterlimit="10" stroke-linejoin="miter" fill="none" stroke="#000000" d="M5291.5 1275.4 5333.9 1317.8 5291.5 1275.4 4997.9 981.801V395.5L4937.9 455.5 4997.9 395.5 5291.5 101.898 5585 395.5V310.602 395.5 981.801Z"/>
<path transform="matrix(.1,0,0,-.1,0,792)" d="M5376.3 2360.2 5333.9 2317.8 5376.3 2360.2 5462.8 2273.8H5705V2031.5L5791.5 1945.1 5833.9 1902.6 5791.5 1945.1 6120.2 2273.8H6636.2 6721.1 6636.2L6256.6 2653.4V2825.3 2885.3 2825.3H6084.6L5705 3204.9 5645 3264.9 5705 3204.9V2688.9" fill="#243b36"/>
<path transform="matrix(.1,0,0,-.1,0,792)" stroke-width="12" stroke-linecap="butt" stroke-miterlimit="10" stroke-linejoin="miter" fill="none" stroke="#000000" d="M5376.3 2360.2 5333.9 2317.8 5376.3 2360.2 5462.8 2273.8H5705V2031.5L5791.5 1945.1 5833.9 1902.6 5791.5 1945.1 6120.2 2273.8H6636.2 6721.1 6636.2L6256.6 2653.4V2825.3 2885.3 2825.3H6084.6L5705 3204.9 5645 3264.9 5705 3204.9V2688.9Z"/>
<path transform="matrix(.1,0,0,-.1,0,792)" d="M5376.3 5946 5333.9 5903.6 5376.3 5946 5705 5617.3V5101.3 5016.4 5101.3L6084.6 5480.9H6256.6 6316.6 6256.6V5652.8L6636.2 6032.4 6696.2 6092.4 6636.2 6032.4H6120.2L5791.5 6361.1 5749 6403.6 5791.5 6361.1 5705 6274.7V6032.4H5462.8" fill="#243b36"/>
<path transform="matrix(.1,0,0,-.1,0,792)" stroke-width="12" stroke-linecap="butt" stroke-miterlimit="10" stroke-linejoin="miter" fill="none" stroke="#000000" d="M5376.3 5946 5333.9 5903.6 5376.3 5946 5705 5617.3V5101.3 5016.4 5101.3L6084.6 5480.9H6256.6 6316.6 6256.6V5652.8L6636.2 6032.4 6696.2 6092.4 6636.2 6032.4H6120.2L5791.5 6361.1 5749 6403.6 5791.5 6361.1 5705 6274.7V6032.4H5462.8Z"/>
<path transform="matrix(.1,0,0,-.1,0,792)" d="M5376.3 6946 5333.9 6903.6 5376.3 6946 5462.8 6859.5H5705V6617.3L5791.5 6530.8 5833.9 6488.4 5791.5 6530.8 6120.2 6859.5H6636.2 6721.1 6636.2L6256.6 7239.2V7411.1 7471.1 7411.1H6084.6L5705 7790.7 5645 7850.7 5705 7790.7V7274.7" fill="#243b36"/>
<path transform="matrix(.1,0,0,-.1,0,792)" stroke-width="12" stroke-linecap="butt" stroke-miterlimit="10" stroke-linejoin="miter" fill="none" stroke="#000000" d="M5376.3 6946 5333.9 6903.6 5376.3 6946 5462.8 6859.5H5705V6617.3L5791.5 6530.8 5833.9 6488.4 5791.5 6530.8 6120.2 6859.5H6636.2 6721.1 6636.2L6256.6 7239.2V7411.1 7471.1 7411.1H6084.6L5705 7790.7 5645 7850.7 5705 7790.7V7274.7Z"/>
<path transform="matrix(.1,0,0,-.1,0,792)" d="M4448.6 7531.1 4877.9 7960.4V7875.6 8567.6L4791.5 8654 4833.9 8696.5 4791.5 8654 4645 8507.6 4498.6 8654 4541 8696.5 4498.6 8654 4412.1 8567.6V8325.3H3997L3937 8385.3 3997 8325.3 4290.5 8031.8 4119.2 7860.5V7738.2H4059.2 4119.2 4326.3V7531.1H4266.3 4326.3" fill="#212947"/>
<path transform="matrix(.1,0,0,-.1,0,792)" stroke-width="12" stroke-linecap="butt" stroke-miterlimit="10" stroke-linejoin="miter" fill="none" stroke="#000000" d="M4448.6 7531.1 4877.9 7960.4V7875.6 8567.6L4791.5 8654 4833.9 8696.5 4791.5 8654 4645 8507.6 4498.6 8654 4541 8696.5 4498.6 8654 4412.1 8567.6V8325.3H3997L3937 8385.3 3997 8325.3 4290.5 8031.8 4119.2 7860.5V7738.2H4059.2 4119.2 4326.3V7531.1H4266.3 4326.3Z"/>
<path transform="matrix(.1,0,0,-.1,0,792)" d="M4206.3 7531.1H4266.3 4206.3V7618.2H4119.2 4059.2 4119.2V7531.1"/>
<path transform="matrix(.1,0,0,-.1,0,792)" stroke-width="12" stroke-linecap="butt" stroke-miterlimit="10" stroke-linejoin="miter" fill="none" stroke="#000000" d="M4206.3 7531.1H4266.3 4206.3V7618.2H4119.2 4059.2 4119.2V7531.1Z"/>
<path transform="matrix(.1,0,0,-.1,0,792)" d="M1877.9 7531.1V7678.2 7618.2H1790.8V7531.1 7471.1 7531.1"/>
<path transform="matrix(.1,0,0,-.1,0,792)" stroke-width="12" stroke-linecap="butt" stroke-miterlimit="10" stroke-linejoin="miter" fill="none" stroke="#000000" d="M1877.9 7531.1V7678.2 7618.2H1790.8V7531.1 7471.1 7531.1Z"/>
<path transform="matrix(.1,0,0,-.1,0,792)" d="M1670.8 7531.1V7471.1 7738.2H1877.9V7678.2 7738.2 7860.5L1706.6 8031.8 2000.2 8325.3H2085 2000.2 1585V8567.6L1498.6 8654 1541 8696.5 1498.6 8654 1352.1 8507.6 1205.7 8654 1248.1 8696.5 1205.7 8654 1119.2 8567.6V7960.4L1059.2 8020.4 1119.2 7960.4 1548.5 7531.1" fill="#212947"/>
<path transform="matrix(.1,0,0,-.1,0,792)" stroke-width="12" stroke-linecap="butt" stroke-miterlimit="10" stroke-linejoin="miter" fill="none" stroke="#000000" d="M1670.8 7531.1V7471.1 7738.2H1877.9V7678.2 7738.2 7860.5L1706.6 8031.8 2000.2 8325.3H2085 2000.2 1585V8567.6L1498.6 8654 1541 8696.5 1498.6 8654 1352.1 8507.6 1205.7 8654 1248.1 8696.5 1205.7 8654 1119.2 8567.6V7960.4L1059.2 8020.4 1119.2 7960.4 1548.5 7531.1Z"/>
<path transform="matrix(.1,0,0,-.1,0,792)" d="M3705.7 7616.6 3827.3 7738.2H4059.2 3999.2V7910.2L4120.8 8031.8 3827.3 8325.3 3767.3 8385.3 3827.3 8325.3H3412.1V7910.2 7825.3 7910.2"/>
<path transform="matrix(.1,0,0,-.1,0,792)" stroke-width="12" stroke-linecap="butt" stroke-miterlimit="10" stroke-linejoin="miter" fill="none" stroke="#000000" d="M3705.7 7616.6 3827.3 7738.2H4059.2 3999.2V7910.2L4120.8 8031.8 3827.3 8325.3 3767.3 8385.3 3827.3 8325.3H3412.1V7910.2 7825.3 7910.2Z"/>
<path transform="matrix(.1,0,0,-.1,0,792)" d="M2291.5 7616.6 2585 7910.2 2645 7970.2 2585 7910.2V8325.3H2169.9 2085 2169.9L1876.3 8031.8 1997.9 7910.2V7738.2 7678.2 7738.2H2169.9"/>
<path transform="matrix(.1,0,0,-.1,0,792)" stroke-width="12" stroke-linecap="butt" stroke-miterlimit="10" stroke-linejoin="miter" fill="none" stroke="#000000" d="M2291.5 7616.6 2585 7910.2 2645 7970.2 2585 7910.2V8325.3H2169.9 2085 2169.9L1876.3 8031.8 1997.9 7910.2V7738.2 7678.2 7738.2H2169.9Z"/>
<path transform="matrix(.1,0,0,-.1,0,792)" d="M1548.5 775.102 1119.2 345.801V430.602-261.398L1205.7-347.801 1163.3-390.301 1205.7-347.801 1352.1-201.398 1498.6-347.801 1456.1-390.301 1498.6-347.801 1585-261.398V-19.1016H2000.2L2060.2-79.1016 2000.2-19.1016 1706.6 274.398 1877.9 445.699V568H1937.9 1877.9 1670.8V775.102H1730.8 1670.8" fill="#212947"/>
<path transform="matrix(.1,0,0,-.1,0,792)" stroke-width="12" stroke-linecap="butt" stroke-miterlimit="10" stroke-linejoin="miter" fill="none" stroke="#000000" d="M1548.5 775.102 1119.2 345.801V430.602-261.398L1205.7-347.801 1163.3-390.301 1205.7-347.801 1352.1-201.398 1498.6-347.801 1456.1-390.301 1498.6-347.801 1585-261.398V-19.1016H2000.2L2060.2-79.1016 2000.2-19.1016 1706.6 274.398 1877.9 445.699V568H1937.9 1877.9 1670.8V775.102H1730.8 1670.8Z"/>
<path transform="matrix(.1,0,0,-.1,0,792)" d="M1790.8 775.102H1730.8 1790.8V688H1877.9 1937.9 1877.9V775.102"/>
<path transform="matrix(.1,0,0,-.1,0,792)" stroke-width="12" stroke-linecap="butt" stroke-miterlimit="10" stroke-linejoin="miter" fill="none" stroke="#000000" d="M1790.8 775.102H1730.8 1790.8V688H1877.9 1937.9 1877.9V775.102Z"/>
<path transform="matrix(.1,0,0,-.1,0,792)" d="M4119.2 775.102V628 688H4206.3V775.102 835.102 775.102"/>
<path transform="matrix(.1,0,0,-.1,0,792)" stroke-width="12" stroke-linecap="butt" stroke-miterlimit="10" stroke-linejoin="miter" fill="none" stroke="#000000" d="M4119.2 775.102V628 688H4206.3V775.102 835.102 775.102Z"/>
<path transform="matrix(.1,0,0,-.1,0,792)" d="M4326.3 775.102V835.102 568H4119.2V628 568 445.699L4290.5 274.398 3997-19.1016H3912.1 3997 4412.1V-261.398L4498.6-347.801 4456.1-390.301 4498.6-347.801 4645-201.398 4791.5-347.801 4749-390.301 4791.5-347.801 4877.9-261.398V345.801L4937.9 285.801 4877.9 345.801 4448.6 775.102" fill="#212947"/>
<path transform="matrix(.1,0,0,-.1,0,792)" stroke-width="12" stroke-linecap="butt" stroke-miterlimit="10" stroke-linejoin="miter" fill="none" stroke="#000000" d="M4326.3 775.102V835.102 568H4119.2V628 568 445.699L4290.5 274.398 3997-19.1016H3912.1 3997 4412.1V-261.398L4498.6-347.801 4456.1-390.301 4498.6-347.801 4645-201.398 4791.5-347.801 4749-390.301 4791.5-347.801 4877.9-261.398V345.801L4937.9 285.801 4877.9 345.801 4448.6 775.102Z"/>
<path transform="matrix(.1,0,0,-.1,0,792)" d="M2291.5 689.602 2169.9 568H1937.9 1997.9V396L1876.3 274.398 2169.9-19.1016 2229.9-79.1016 2169.9-19.1016H2585V396 480.898 396"/>
<path transform="matrix(.1,0,0,-.1,0,792)" stroke-width="12" stroke-linecap="butt" stroke-miterlimit="10" stroke-linejoin="miter" fill="none" stroke="#000000" d="M2291.5 689.602 2169.9 568H1937.9 1997.9V396L1876.3 274.398 2169.9-19.1016 2229.9-79.1016 2169.9-19.1016H2585V396 480.898 396Z"/>
<path transform="matrix(.1,0,0,-.1,0,792)" d="M3705.7 689.602 3412.1 396 3352.1 336 3412.1 396V-19.1016H3827.3 3912.1 3827.3L4120.8 274.398 3999.2 396V568 628 568H3827.3"/>
<path transform="matrix(.1,0,0,-.1,0,792)" stroke-width="12" stroke-linecap="butt" stroke-miterlimit="10" stroke-linejoin="miter" fill="none" stroke="#000000" d="M3705.7 689.602 3412.1 396 3352.1 336 3412.1 396V-19.1016H3827.3 3912.1 3827.3L4120.8 274.398 3999.2 396V568 628 568H3827.3Z"/>
<path transform="matrix(.1,0,0,-.1,0,792)" d="M292.102 4931.5 352.102 4871.5 292.102 4931.5-137.199 5360.9H-259.398V5420.9 5360.9 5153.8H-466.602V5213.8 5153.8 5031.5L-295.301 4860.2-588.801 4566.6H-673.699-588.801-173.699V4324.4L-87.1992 4237.9-129.602 4195.5-87.1992 4237.9 59.1992 4384.4 205.699 4237.9 163.301 4195.5 205.699 4237.9 292.102 4324.4" fill="#212947"/>
<path transform="matrix(.1,0,0,-.1,0,792)" stroke-width="12" stroke-linecap="butt" stroke-miterlimit="10" stroke-linejoin="miter" fill="none" stroke="#000000" d="M292.102 4931.5 352.102 4871.5 292.102 4931.5-137.199 5360.9H-259.398V5420.9 5360.9 5153.8H-466.602V5213.8 5153.8 5031.5L-295.301 4860.2-588.801 4566.6H-673.699-588.801-173.699V4324.4L-87.1992 4237.9-129.602 4195.5-87.1992 4237.9 59.1992 4384.4 205.699 4237.9 163.301 4195.5 205.699 4237.9 292.102 4324.4Z"/>
<path transform="matrix(.1,0,0,-.1,0,792)" d="M292.102 3981.8 205.699 4068.2 248.102 4110.7 205.699 4068.2 59.1992 3921.8-87.1992 4068.2-44.8008 4110.7-87.1992 4068.2-173.699 3981.8V3739.5H-588.801L-648.801 3799.5-588.801 3739.5-295.301 3446-466.602 3274.7V3152.4H-526.602-466.602-259.398V2945.3H-319.398-259.398-137.199L292.102 3374.6V3289.8 3374.6" fill="#212947"/>
<path transform="matrix(.1,0,0,-.1,0,792)" stroke-width="12" stroke-linecap="butt" stroke-miterlimit="10" stroke-linejoin="miter" fill="none" stroke="#000000" d="M292.102 3981.8 205.699 4068.2 248.102 4110.7 205.699 4068.2 59.1992 3921.8-87.1992 4068.2-44.8008 4110.7-87.1992 4068.2-173.699 3981.8V3739.5H-588.801L-648.801 3799.5-588.801 3739.5-295.301 3446-466.602 3274.7V3152.4H-526.602-466.602-259.398V2945.3H-319.398-259.398-137.199L292.102 3374.6V3289.8 3374.6Z"/>
<path transform="matrix(.1,0,0,-.1,0,792)" d="M5705 3374.6 5645 3434.6 5705 3374.6 6134.3 2945.3H6256.6V2885.3 2945.3 3152.4H6463.7V3092.4 3152.4 3274.7L6292.4 3446 6586 3739.5H6670.8 6586 6170.8V3981.8L6084.4 4068.2 6126.8 4110.7 6084.4 4068.2 5937.9 3921.8 5791.5 4068.2 5833.9 4110.7 5791.5 4068.2 5705 3981.8" fill="#212947"/>
<path transform="matrix(.1,0,0,-.1,0,792)" stroke-width="12" stroke-linecap="butt" stroke-miterlimit="10" stroke-linejoin="miter" fill="none" stroke="#000000" d="M5705 3374.6 5645 3434.6 5705 3374.6 6134.3 2945.3H6256.6V2885.3 2945.3 3152.4H6463.7V3092.4 3152.4 3274.7L6292.4 3446 6586 3739.5H6670.8 6586 6170.8V3981.8L6084.4 4068.2 6126.8 4110.7 6084.4 4068.2 5937.9 3921.8 5791.5 4068.2 5833.9 4110.7 5791.5 4068.2 5705 3981.8Z"/>
<path transform="matrix(.1,0,0,-.1,0,792)" d="M5705 4324.4 5791.5 4237.9 5749 4195.5 5791.5 4237.9 5937.9 4384.4 6084.4 4237.9 6041.9 4195.5 6084.4 4237.9 6170.8 4324.4V4566.6H6586L6646 4506.6 6586 4566.6 6292.4 4860.2 6463.7 5031.5V5153.8H6523.7 6463.7 6256.6V5360.9H6316.6 6256.6 6134.3L5705 4931.5V5016.4 4931.5" fill="#212947"/>
<path transform="matrix(.1,0,0,-.1,0,792)" stroke-width="12" stroke-linecap="butt" stroke-miterlimit="10" stroke-linejoin="miter" fill="none" stroke="#000000" d="M5705 4324.4 5791.5 4237.9 5749 4195.5 5791.5 4237.9 5937.9 4384.4 6084.4 4237.9 6041.9 4195.5 6084.4 4237.9 6170.8 4324.4V4566.6H6586L6646 4506.6 6586 4566.6 6292.4 4860.2 6463.7 5031.5V5153.8H6523.7 6463.7 6256.6V5360.9H6316.6 6256.6 6134.3L5705 4931.5V5016.4 4931.5Z"/>
<path transform="matrix(.1,0,0,-.1,0,792)" d="M5705 7960.4 5645 8020.4 5705 7960.4 6134.3 7531.1H6256.6V7471.1 7531.1 7738.2H6463.7V7678.2 7738.2 7860.5L6292.4 8031.8 6586 8325.3H6670.8 6586 6170.8V8567.6L6084.4 8654 6126.8 8696.5 6084.4 8654 5937.9 8507.6 5791.5 8654 5833.9 8696.5 5791.5 8654 5705 8567.6" fill="#212947"/>
<path transform="matrix(.1,0,0,-.1,0,792)" stroke-width="12" stroke-linecap="butt" stroke-miterlimit="10" stroke-linejoin="miter" fill="none" stroke="#000000" d="M5705 7960.4 5645 8020.4 5705 7960.4 6134.3 7531.1H6256.6V7471.1 7531.1 7738.2H6463.7V7678.2 7738.2 7860.5L6292.4 8031.8 6586 8325.3H6670.8 6586 6170.8V8567.6L6084.4 8654 6126.8 8696.5 6084.4 8654 5937.9 8507.6 5791.5 8654 5833.9 8696.5 5791.5 8654 5705 8567.6Z"/>
<path transform="matrix(.1,0,0,-.1,0,792)" d="M292.102 7960.4V7875.6 8567.6L205.699 8654 248.102 8696.5 205.699 8654 59.1992 8507.6-87.1992 8654-44.8008 8696.5-87.1992 8654-173.699 8567.6V8325.3H-588.801L-648.801 8385.3-588.801 8325.3-295.301 8031.8-466.602 7860.5V7738.2H-526.602-466.602-259.398V7531.1H-319.398-259.398-137.199" fill="#212947"/>
<path transform="matrix(.1,0,0,-.1,0,792)" stroke-width="12" stroke-linecap="butt" stroke-miterlimit="10" stroke-linejoin="miter" fill="none" stroke="#000000" d="M292.102 7960.4V7875.6 8567.6L205.699 8654 248.102 8696.5 205.699 8654 59.1992 8507.6-87.1992 8654-44.8008 8696.5-87.1992 8654-173.699 8567.6V8325.3H-588.801L-648.801 8385.3-588.801 8325.3-295.301 8031.8-466.602 7860.5V7738.2H-526.602-466.602-259.398V7531.1H-319.398-259.398-137.199Z"/>
<path transform="matrix(.1,0,0,-.1,0,792)" d="M2705 276V360.898-139.102H2289.9L2229.9-79.1016 2289.9-139.102 2583.4-432.699 2289.9-726.199H2205 2289.9 2705V-1141.4L2645-1201.4 2705-1141.4 2998.6-847.801 3292.1-1141.4V-1226.2-1141.4-726.199H3707.3L3767.3-786.199 3707.3-726.199 3413.7-432.699 3707.3-139.102H3792.1 3707.3 3292.1V276L3352.1 336 3292.1 276 2998.6-17.5"/>
<path transform="matrix(.1,0,0,-.1,0,792)" stroke-width="12" stroke-linecap="butt" stroke-miterlimit="10" stroke-linejoin="miter" fill="none" stroke="#000000" d="M2705 276V360.898-139.102H2289.9L2229.9-79.1016 2289.9-139.102 2583.4-432.699 2289.9-726.199H2205 2289.9 2705V-1141.4L2645-1201.4 2705-1141.4 2998.6-847.801 3292.1-1141.4V-1226.2-1141.4-726.199H3707.3L3767.3-786.199 3707.3-726.199 3413.7-432.699 3707.3-139.102H3792.1 3707.3 3292.1V276L3352.1 336 3292.1 276 2998.6-17.5Z"/>
<path transform="matrix(.1,0,0,-.1,0,792)" d="M120.801 6446 163.301 6403.6 120.801 6446-172.699 6739.5H-759.102L-699.102 6799.5-759.102 6739.5-1052.6 6446-759.102 6152.4H-843.898-759.102-172.699"/>
<path transform="matrix(.1,0,0,-.1,0,792)" stroke-width="12" stroke-linecap="butt" stroke-miterlimit="10" stroke-linejoin="miter" fill="none" stroke="#000000" d="M120.801 6446 163.301 6403.6 120.801 6446-172.699 6739.5H-759.102L-699.102 6799.5-759.102 6739.5-1052.6 6446-759.102 6152.4H-843.898-759.102-172.699Z"/>
<path transform="matrix(.1,0,0,-.1,0,792)" d="M120.801 4153.1 163.301 4195.5 120.801 4153.1 59.1992 4214.7-2.39844 4153.1-44.8008 4110.7-2.39844 4153.1 59.1992 4091.5"/>
<path transform="matrix(.1,0,0,-.1,0,792)" stroke-width="12" stroke-linecap="butt" stroke-miterlimit="10" stroke-linejoin="miter" fill="none" stroke="#000000" d="M120.801 4153.1 163.301 4195.5 120.801 4153.1 59.1992 4214.7-2.39844 4153.1-44.8008 4110.7-2.39844 4153.1 59.1992 4091.5Z"/>
<path transform="matrix(.1,0,0,-.1,0,792)" d="M120.801 1860.2 163.301 1817.8 120.801 1860.2-172.699 2153.8H-759.102L-699.102 2213.8-759.102 2153.8-1052.6 1860.2-759.102 1566.6H-843.898-759.102-172.699"/>
<path transform="matrix(.1,0,0,-.1,0,792)" stroke-width="12" stroke-linecap="butt" stroke-miterlimit="10" stroke-linejoin="miter" fill="none" stroke="#000000" d="M120.801 1860.2 163.301 1817.8 120.801 1860.2-172.699 2153.8H-759.102L-699.102 2213.8-759.102 2153.8-1052.6 1860.2-759.102 1566.6H-843.898-759.102-172.699Z"/>
<path transform="matrix(.1,0,0,-.1,0,792)" d="M412.102 225.801 352.102 285.801 412.102 225.801V-311.102L290.5-432.699 248.102-475.102 290.5-432.699 412.102-554.301V-1091.1-1176-1091.1L705.699-797.602 999.199-1091.1 1059.2-1151.1 999.199-1091.1V-554.301L1120.8-432.699 1163.3-390.301 1120.8-432.699 999.199-311.102V225.801 310.602 225.801L705.699-67.8008" fill="#243b36"/>
<path transform="matrix(.1,0,0,-.1,0,792)" stroke-width="12" stroke-linecap="butt" stroke-miterlimit="10" stroke-linejoin="miter" fill="none" stroke="#000000" d="M412.102 225.801 352.102 285.801 412.102 225.801V-311.102L290.5-432.699 248.102-475.102 290.5-432.699 412.102-554.301V-1091.1-1176-1091.1L705.699-797.602 999.199-1091.1 1059.2-1151.1 999.199-1091.1V-554.301L1120.8-432.699 1163.3-390.301 1120.8-432.699 999.199-311.102V225.801 310.602 225.801L705.699-67.8008Z"/>
<path transform="matrix(.1,0,0,-.1,0,792)" d="M292.102 345.801 352.102 285.801 292.102 345.801-137.199 775.102H-259.398V835.102 775.102 568H-466.602V628 568 445.699L-295.301 274.398-588.801-19.1016H-673.699-588.801-173.699V-261.398L-87.1992-347.801-129.602-390.301-87.1992-347.801 59.1992-201.398 205.699-347.801 163.301-390.301 205.699-347.801 292.102-261.398" fill="#212947"/>
<path transform="matrix(.1,0,0,-.1,0,792)" stroke-width="12" stroke-linecap="butt" stroke-miterlimit="10" stroke-linejoin="miter" fill="none" stroke="#000000" d="M292.102 345.801 352.102 285.801 292.102 345.801-137.199 775.102H-259.398V835.102 775.102 568H-466.602V628 568 445.699L-295.301 274.398-588.801-19.1016H-673.699-588.801-173.699V-261.398L-87.1992-347.801-129.602-390.301-87.1992-347.801 59.1992-201.398 205.699-347.801 163.301-390.301 205.699-347.801 292.102-261.398Z"/>
<path transform="matrix(.1,0,0,-.1,0,792)" d="M4997.9 225.801 4937.9 285.801 4997.9 225.801V-311.102L4876.3-432.699 4833.9-475.102 4876.3-432.699 4997.9-554.301V-1091.1-1176-1091.1L5291.5-797.602 5585-1091.1 5645-1151.1 5585-1091.1V-554.301L5706.6-432.699 5749-390.301 5706.6-432.699 5585-311.102V225.801 310.602 225.801L5291.5-67.8008" fill="#243b36"/>
<path transform="matrix(.1,0,0,-.1,0,792)" stroke-width="12" stroke-linecap="butt" stroke-miterlimit="10" stroke-linejoin="miter" fill="none" stroke="#000000" d="M4997.9 225.801 4937.9 285.801 4997.9 225.801V-311.102L4876.3-432.699 4833.9-475.102 4876.3-432.699 4997.9-554.301V-1091.1-1176-1091.1L5291.5-797.602 5585-1091.1 5645-1151.1 5585-1091.1V-554.301L5706.6-432.699 5749-390.301 5706.6-432.699 5585-311.102V225.801 310.602 225.801L5291.5-67.8008Z"/>
<path transform="matrix(.1,0,0,-.1,0,792)" d="M5705 345.801V430.602-261.398L5791.5-347.801 5749-390.301 5791.5-347.801 5937.9-201.398 6084.4-347.801 6041.9-390.301 6084.4-347.801 6170.8-261.398V-19.1016H6586L6646-79.1016 6586-19.1016 6292.4 274.398 6463.7 445.699V568H6523.7 6463.7 6256.6V775.102H6316.6 6256.6 6134.3" fill="#212947"/>
<path transform="matrix(.1,0,0,-.1,0,792)" stroke-width="12" stroke-linecap="butt" stroke-miterlimit="10" stroke-linejoin="miter" fill="none" stroke="#000000" d="M5705 345.801V430.602-261.398L5791.5-347.801 5749-390.301 5791.5-347.801 5937.9-201.398 6084.4-347.801 6041.9-390.301 6084.4-347.801 6170.8-261.398V-19.1016H6586L6646-79.1016 6586-19.1016 6292.4 274.398 6463.7 445.699V568H6523.7 6463.7 6256.6V775.102H6316.6 6256.6 6134.3Z"/>
<path transform="matrix(.1,0,0,-.1,0,792)" d="M5876.3 1860.2 5833.9 1902.6 5876.3 1860.2 6169.9 1566.6H6756.2L6696.2 1506.6 6756.2 1566.6 7049.8 1860.2 6756.2 2153.8H6841.1 6756.2 6169.9"/>
<path transform="matrix(.1,0,0,-.1,0,792)" stroke-width="12" stroke-linecap="butt" stroke-miterlimit="10" stroke-linejoin="miter" fill="none" stroke="#000000" d="M5876.3 1860.2 5833.9 1902.6 5876.3 1860.2 6169.9 1566.6H6756.2L6696.2 1506.6 6756.2 1566.6 7049.8 1860.2 6756.2 2153.8H6841.1 6756.2 6169.9Z"/>
<path transform="matrix(.1,0,0,-.1,0,792)" d="M5876.3 4153.1 5833.9 4110.7 5876.3 4153.1 5937.9 4091.5 5999.5 4153.1 6041.9 4195.5 5999.5 4153.1 5937.9 4214.7"/>
<path transform="matrix(.1,0,0,-.1,0,792)" stroke-width="12" stroke-linecap="butt" stroke-miterlimit="10" stroke-linejoin="miter" fill="none" stroke="#000000" d="M5876.3 4153.1 5833.9 4110.7 5876.3 4153.1 5937.9 4091.5 5999.5 4153.1 6041.9 4195.5 5999.5 4153.1 5937.9 4214.7Z"/>
<path transform="matrix(.1,0,0,-.1,0,792)" d="M5876.3 6446 5833.9 6488.4 5876.3 6446 6169.9 6152.4H6756.2L6696.2 6092.4 6756.2 6152.4 7049.8 6446 6756.2 6739.5H6841.1 6756.2 6169.9"/>
<path transform="matrix(.1,0,0,-.1,0,792)" stroke-width="12" stroke-linecap="butt" stroke-miterlimit="10" stroke-linejoin="miter" fill="none" stroke="#000000" d="M5876.3 6446 5833.9 6488.4 5876.3 6446 6169.9 6152.4H6756.2L6696.2 6092.4 6756.2 6152.4 7049.8 6446 6756.2 6739.5H6841.1 6756.2 6169.9Z"/>
<path transform="matrix(.1,0,0,-.1,0,792)" stroke-width="12" stroke-linecap="butt" stroke-miterlimit="10" stroke-linejoin="miter" fill="none" stroke="#000000" d="M6169.2 4153.1 6126.8 4110.7 6169.2 4153.1 6290.8 4031.5V3859.5H6706 6790.8 6706L6999.5 4153.1 6706 4446.6 6646 4506.6 6706 4446.6H6290.8V4274.7Z"/>
</svg>
