<svg xmlns="http://www.w3.org/2000/svg" xmlns:xlink="http://www.w3.org/1999/xlink" xmlns:inkscape="http://www.inkscape.org/namespaces/inkscape" version="1.1" width="612" height="792" viewBox="0 0 612 792">
<path transform="matrix(.1,0,0,-.1,0,792)" d="M4014.2 4210 3234.8 4660 2455.4 4210 3234.8 3760Z" fill="#004d80"/>
<path transform="matrix(.1,0,0,-.1,0,792)" stroke-width="1" stroke-linecap="butt" stroke-miterlimit="10" stroke-linejoin="miter" fill="none" stroke="#000000" d="M4014.2 4210 3234.8 4660 2455.4 4210 3234.8 3760Z"/>
<path transform="matrix(.1,0,0,-.1,0,792)" d="M3234.8 3760 2455.4 4210 3234.8 2860 4014.2 4210Z" fill="#994d00"/>
<path transform="matrix(.1,0,0,-.1,0,792)" stroke-width="1" stroke-linecap="butt" stroke-miterlimit="10" stroke-linejoin="miter" fill="none" stroke="#000000" d="M3234.8 3760 2455.4 4210 3234.8 2860 4014.2 4210Z"/>
<path transform="matrix(.1,0,0,-.1,0,792)" d="M3234.8 4660 4014.2 4210 3234.8 5560 2455.4 4210Z" fill="#994d00"/>
<path transform="matrix(.1,0,0,-.1,0,792)" stroke-width="1" stroke-linecap="butt" stroke-miterlimit="10" stroke-linejoin="miter" fill="none" stroke="#000000" d="M3234.8 4660 4014.2 4210 3234.8 5560 2455.4 4210Z"/>
<path transform="matrix(.1,0,0,-.1,0,792)" d="M2455.4 4210 1676 2860 2455.4 3310 3234.8 2860Z" fill="#004d80"/>
<path transform="matrix(.1,0,0,-.1,0,792)" stroke-width="1" stroke-linecap="butt" stroke-miterlimit="10" stroke-linejoin="miter" fill="none" stroke="#000000" d="M2455.4 4210 1676 2860 2455.4 3310 3234.8 2860Z"/>
<path transform="matrix(.1,0,0,-.1,0,792)" d="M2455.4 4210 1676 3760 896.5 4210 1676 2860Z" fill="#994d00"/>
<path transform="matrix(.1,0,0,-.1,0,792)" stroke-width="1" stroke-linecap="butt" stroke-miterlimit="10" stroke-linejoin="miter" fill="none" stroke="#000000" d="M2455.4 4210 1676 3760 896.5 4210 1676 2860Z"/>
<path transform="matrix(.1,0,0,-.1,0,792)" d="M2455.4 4210 1676 4660 896.5 4210 1676 3760Z" fill="#004d80"/>
<path transform="matrix(.1,0,0,-.1,0,792)" stroke-width="1" stroke-linecap="butt" stroke-miterlimit="10" stroke-linejoin="miter" fill="none" stroke="#000000" d="M2455.4 4210 1676 4660 896.5 4210 1676 3760Z"/>
<path transform="matrix(.1,0,0,-.1,0,792)" d="M2455.4 4210 1676 5560 896.5 4210 1676 4660Z" fill="#994d00"/>
<path transform="matrix(.1,0,0,-.1,0,792)" stroke-width="1" stroke-linecap="butt" stroke-miterlimit="10" stroke-linejoin="miter" fill="none" stroke="#000000" d="M2455.4 4210 1676 5560 896.5 4210 1676 4660Z"/>
<path transform="matrix(.1,0,0,-.1,0,792)" d="M2455.4 4210 3234.8 5560 2455.4 5110 1676 5560Z" fill="#004d80"/>
<path transform="matrix(.1,0,0,-.1,0,792)" stroke-width="1" stroke-linecap="butt" stroke-miterlimit="10" stroke-linejoin="miter" fill="none" stroke="#000000" d="M2455.4 4210 3234.8 5560 2455.4 5110 1676 5560Z"/>
<path transform="matrix(.1,0,0,-.1,0,792)" d="M2455.4 5110 3234.8 5560 2455.4 6010 1676 5560Z" fill="#994d00"/>
<path transform="matrix(.1,0,0,-.1,0,792)" stroke-width="1" stroke-linecap="butt" stroke-miterlimit="10" stroke-linejoin="miter" fill="none" stroke="#000000" d="M2455.4 5110 3234.8 5560 2455.4 6010 1676 5560Z"/>
<path transform="matrix(.1,0,0,-.1,0,792)" d="M2455.4 3310 1676 2860 2455.4 2410 3234.8 2860Z" fill="#994d00"/>
<path transform="matrix(.1,0,0,-.1,0,792)" stroke-width="1" stroke-linecap="butt" stroke-miterlimit="10" stroke-linejoin="miter" fill="none" stroke="#000000" d="M2455.4 3310 1676 2860 2455.4 2410 3234.8 2860Z"/>
<path transform="matrix(.1,0,0,-.1,0,792)" d="M4014.2 4210 4793.7 5560 4014.2 5110 3234.8 5560Z" fill="#004d80"/>
<path transform="matrix(.1,0,0,-.1,0,792)" stroke-width="1" stroke-linecap="butt" stroke-miterlimit="10" stroke-linejoin="miter" fill="none" stroke="#000000" d="M4014.2 4210 4793.7 5560 4014.2 5110 3234.8 5560Z"/>
<path transform="matrix(.1,0,0,-.1,0,792)" d="M4014.2 4210 4793.7 4660 5573.1 4210 4793.7 5560Z" fill="#994d00"/>
<path transform="matrix(.1,0,0,-.1,0,792)" stroke-width="1" stroke-linecap="butt" stroke-miterlimit="10" stroke-linejoin="miter" fill="none" stroke="#000000" d="M4014.2 4210 4793.7 4660 5573.1 4210 4793.7 5560Z"/>
<path transform="matrix(.1,0,0,-.1,0,792)" d="M4014.2 4210 4793.7 3760 5573.1 4210 4793.7 4660Z" fill="#004d80"/>
<path transform="matrix(.1,0,0,-.1,0,792)" stroke-width="1" stroke-linecap="butt" stroke-miterlimit="10" stroke-linejoin="miter" fill="none" stroke="#000000" d="M4014.2 4210 4793.7 3760 5573.1 4210 4793.7 4660Z"/>
<path transform="matrix(.1,0,0,-.1,0,792)" d="M4014.2 4210 4793.7 2860 5573.1 4210 4793.7 3760Z" fill="#994d00"/>
<path transform="matrix(.1,0,0,-.1,0,792)" stroke-width="1" stroke-linecap="butt" stroke-miterlimit="10" stroke-linejoin="miter" fill="none" stroke="#000000" d="M4014.2 4210 4793.7 2860 5573.1 4210 4793.7 3760Z"/>
<path transform="matrix(.1,0,0,-.1,0,792)" d="M4014.2 4210 3234.8 2860 4014.2 3310 4793.7 2860Z" fill="#004d80"/>
<path transform="matrix(.1,0,0,-.1,0,792)" stroke-width="1" stroke-linecap="butt" stroke-miterlimit="10" stroke-linejoin="miter" fill="none" stroke="#000000" d="M4014.2 4210 3234.8 2860 4014.2 3310 4793.7 2860Z"/>
<path transform="matrix(.1,0,0,-.1,0,792)" d="M3234.8 2860 4014.2 2410 4793.7 2860 4014.2 3310Z" fill="#994d00"/>
<path transform="matrix(.1,0,0,-.1,0,792)" stroke-width="1" stroke-linecap="butt" stroke-miterlimit="10" stroke-linejoin="miter" fill="none" stroke="#000000" d="M3234.8 2860 4014.2 2410 4793.7 2860 4014.2 3310Z"/>
<path transform="matrix(.1,0,0,-.1,0,792)" d="M3234.8 2860 4014.2 1510 4793.7 2860 4014.2 2410Z" fill="#004d80"/>
<path transform="matrix(.1,0,0,-.1,0,792)" stroke-width="1" stroke-linecap="butt" stroke-miterlimit="10" stroke-linejoin="miter" fill="none" stroke="#000000" d="M3234.8 2860 4014.2 1510 4793.7 2860 4014.2 2410Z"/>
<path transform="matrix(.1,0,0,-.1,0,792)" d="M3234.8 2860 2455.4 1510 3234.8 1960 4014.2 1510Z" fill="#994d00"/>
<path transform="matrix(.1,0,0,-.1,0,792)" stroke-width="1" stroke-linecap="butt" stroke-miterlimit="10" stroke-linejoin="miter" fill="none" stroke="#000000" d="M3234.8 2860 2455.4 1510 3234.8 1960 4014.2 1510Z"/>
<path transform="matrix(.1,0,0,-.1,0,792)" d="M3234.8 2860 2455.4 2410 1676 2860 2455.4 1510Z" fill="#004d80"/>
<path transform="matrix(.1,0,0,-.1,0,792)" stroke-width="1" stroke-linecap="butt" stroke-miterlimit="10" stroke-linejoin="miter" fill="none" stroke="#000000" d="M3234.8 2860 2455.4 2410 1676 2860 2455.4 1510Z"/>
<path transform="matrix(.1,0,0,-.1,0,792)" d="M3234.8 5560 2455.4 6910 1676 5560 2455.4 6010Z" fill="#004d80"/>
<path transform="matrix(.1,0,0,-.1,0,792)" stroke-width="1" stroke-linecap="butt" stroke-miterlimit="10" stroke-linejoin="miter" fill="none" stroke="#000000" d="M3234.8 5560 2455.4 6910 1676 5560 2455.4 6010Z"/>
<path transform="matrix(.1,0,0,-.1,0,792)" d="M3234.8 5560 4014.2 6910 3234.8 6460 2455.4 6910Z" fill="#994d00"/>
<path transform="matrix(.1,0,0,-.1,0,792)" stroke-width="1" stroke-linecap="butt" stroke-miterlimit="10" stroke-linejoin="miter" fill="none" stroke="#000000" d="M3234.8 5560 4014.2 6910 3234.8 6460 2455.4 6910Z"/>
<path transform="matrix(.1,0,0,-.1,0,792)" d="M3234.8 5560 4014.2 6010 4793.7 5560 4014.2 6910Z" fill="#004d80"/>
<path transform="matrix(.1,0,0,-.1,0,792)" stroke-width="1" stroke-linecap="butt" stroke-miterlimit="10" stroke-linejoin="miter" fill="none" stroke="#000000" d="M3234.8 5560 4014.2 6010 4793.7 5560 4014.2 6910Z"/>
<path transform="matrix(.1,0,0,-.1,0,792)" d="M3234.8 5560 4014.2 5110 4793.7 5560 4014.2 6010Z" fill="#994d00"/>
<path transform="matrix(.1,0,0,-.1,0,792)" stroke-width="1" stroke-linecap="butt" stroke-miterlimit="10" stroke-linejoin="miter" fill="none" stroke="#000000" d="M3234.8 5560 4014.2 5110 4793.7 5560 4014.2 6010Z"/>
<path transform="matrix(.1,0,0,-.1,0,792)" d="M1676 5560 896.5 5110 117.102 5560 896.5 4210Z" fill="#004d80"/>
<path transform="matrix(.1,0,0,-.1,0,792)" stroke-width="1" stroke-linecap="butt" stroke-miterlimit="10" stroke-linejoin="miter" fill="none" stroke="#000000" d="M1676 5560 896.5 5110 117.102 5560 896.5 4210Z"/>
<path transform="matrix(.1,0,0,-.1,0,792)" d="M1676 5560 896.5 6010 117.102 5560 896.5 5110Z" fill="#994d00"/>
<path transform="matrix(.1,0,0,-.1,0,792)" stroke-width="1" stroke-linecap="butt" stroke-miterlimit="10" stroke-linejoin="miter" fill="none" stroke="#000000" d="M1676 5560 896.5 6010 117.102 5560 896.5 5110Z"/>
<path transform="matrix(.1,0,0,-.1,0,792)" d="M1676 5560 896.5 6910 117.102 5560 896.5 6010Z" fill="#004d80"/>
<path transform="matrix(.1,0,0,-.1,0,792)" stroke-width="1" stroke-linecap="butt" stroke-miterlimit="10" stroke-linejoin="miter" fill="none" stroke="#000000" d="M1676 5560 896.5 6910 117.102 5560 896.5 6010Z"/>
<path transform="matrix(.1,0,0,-.1,0,792)" d="M1676 5560 2455.4 6910 1676 6460 896.5 6910Z" fill="#994d00"/>
<path transform="matrix(.1,0,0,-.1,0,792)" stroke-width="1" stroke-linecap="butt" stroke-miterlimit="10" stroke-linejoin="miter" fill="none" stroke="#000000" d="M1676 5560 2455.4 6910 1676 6460 896.5 6910Z"/>
<path transform="matrix(.1,0,0,-.1,0,792)" d="M1676 2860 896.5 1510 1676 1960 2455.4 1510Z" fill="#994d00"/>
<path transform="matrix(.1,0,0,-.1,0,792)" stroke-width="1" stroke-linecap="butt" stroke-miterlimit="10" stroke-linejoin="miter" fill="none" stroke="#000000" d="M1676 2860 896.5 1510 1676 1960 2455.4 1510Z"/>
<path transform="matrix(.1,0,0,-.1,0,792)" d="M1676 2860 896.5 2410 117.102 2860 896.5 1510Z" fill="#004d80"/>
<path transform="matrix(.1,0,0,-.1,0,792)" stroke-width="1" stroke-linecap="butt" stroke-miterlimit="10" stroke-linejoin="miter" fill="none" stroke="#000000" d="M1676 2860 896.5 2410 117.102 2860 896.5 1510Z"/>
<path transform="matrix(.1,0,0,-.1,0,792)" d="M1676 2860 896.5 3310 117.102 2860 896.5 2410Z" fill="#994d00"/>
<path transform="matrix(.1,0,0,-.1,0,792)" stroke-width="1" stroke-linecap="butt" stroke-miterlimit="10" stroke-linejoin="miter" fill="none" stroke="#000000" d="M1676 2860 896.5 3310 117.102 2860 896.5 2410Z"/>
<path transform="matrix(.1,0,0,-.1,0,792)" d="M1676 2860 896.5 4210 117.102 2860 896.5 3310Z" fill="#004d80"/>
<path transform="matrix(.1,0,0,-.1,0,792)" stroke-width="1" stroke-linecap="butt" stroke-miterlimit="10" stroke-linejoin="miter" fill="none" stroke="#000000" d="M1676 2860 896.5 4210 117.102 2860 896.5 3310Z"/>
<path transform="matrix(.1,0,0,-.1,0,792)" d="M1676 1960 896.5 1510 1676 1060 2455.4 1510Z" fill="#004d80"/>
<path transform="matrix(.1,0,0,-.1,0,792)" stroke-width="1" stroke-linecap="butt" stroke-miterlimit="10" stroke-linejoin="miter" fill="none" stroke="#000000" d="M1676 1960 896.5 1510 1676 1060 2455.4 1510Z"/>
<path transform="matrix(.1,0,0,-.1,0,792)" d="M3234.8 1960 2455.4 1510 3234.8 1060 4014.2 1510Z" fill="#004d80"/>
<path transform="matrix(.1,0,0,-.1,0,792)" stroke-width="1" stroke-linecap="butt" stroke-miterlimit="10" stroke-linejoin="miter" fill="none" stroke="#000000" d="M3234.8 1960 2455.4 1510 3234.8 1060 4014.2 1510Z"/>
<path transform="matrix(.1,0,0,-.1,0,792)" d="M3234.8 6460 4014.2 6910 3234.8 7360 2455.4 6910Z" fill="#004d80"/>
<path transform="matrix(.1,0,0,-.1,0,792)" stroke-width="1" stroke-linecap="butt" stroke-miterlimit="10" stroke-linejoin="miter" fill="none" stroke="#000000" d="M3234.8 6460 4014.2 6910 3234.8 7360 2455.4 6910Z"/>
<path transform="matrix(.1,0,0,-.1,0,792)" d="M1676 6460 2455.4 6910 1676 7360 896.5 6910Z" fill="#004d80"/>
<path transform="matrix(.1,0,0,-.1,0,792)" stroke-width="1" stroke-linecap="butt" stroke-miterlimit="10" stroke-linejoin="miter" fill="none" stroke="#000000" d="M1676 6460 2455.4 6910 1676 7360 896.5 6910Z"/>
<path transform="matrix(.1,0,0,-.1,0,792)" d="M4793.7 2860 5573.1 3310 6352.5 2860 5573.1 4210Z" fill="#004d80"/>
<path transform="matrix(.1,0,0,-.1,0,792)" stroke-width="1" stroke-linecap="butt" stroke-miterlimit="10" stroke-linejoin="miter" fill="none" stroke="#000000" d="M4793.7 2860 5573.1 3310 6352.5 2860 5573.1 4210Z"/>
<path transform="matrix(.1,0,0,-.1,0,792)" d="M4793.7 2860 5573.1 2410 6352.5 2860 5573.1 3310Z" fill="#994d00"/>
<path transform="matrix(.1,0,0,-.1,0,792)" stroke-width="1" stroke-linecap="butt" stroke-miterlimit="10" stroke-linejoin="miter" fill="none" stroke="#000000" d="M4793.7 2860 5573.1 2410 6352.5 2860 5573.1 3310Z"/>
<path transform="matrix(.1,0,0,-.1,0,792)" d="M4793.7 2860 5573.1 1510 6352.5 2860 5573.1 2410Z" fill="#004d80"/>
<path transform="matrix(.1,0,0,-.1,0,792)" stroke-width="1" stroke-linecap="butt" stroke-miterlimit="10" stroke-linejoin="miter" fill="none" stroke="#000000" d="M4793.7 2860 5573.1 1510 6352.5 2860 5573.1 2410Z"/>
<path transform="matrix(.1,0,0,-.1,0,792)" d="M4793.7 2860 4014.2 1510 4793.7 1960 5573.1 1510Z" fill="#994d00"/>
<path transform="matrix(.1,0,0,-.1,0,792)" stroke-width="1" stroke-linecap="butt" stroke-miterlimit="10" stroke-linejoin="miter" fill="none" stroke="#000000" d="M4793.7 2860 4014.2 1510 4793.7 1960 5573.1 1510Z"/>
<path transform="matrix(.1,0,0,-.1,0,792)" d="M4793.7 1960 4014.2 1510 4793.7 1060 5573.1 1510Z" fill="#004d80"/>
<path transform="matrix(.1,0,0,-.1,0,792)" stroke-width="1" stroke-linecap="butt" stroke-miterlimit="10" stroke-linejoin="miter" fill="none" stroke="#000000" d="M4793.7 1960 4014.2 1510 4793.7 1060 5573.1 1510Z"/>
<path transform="matrix(.1,0,0,-.1,0,792)" d="M4793.7 5560 5573.1 6910 4793.7 6460 4014.2 6910Z" fill="#994d00"/>
<path transform="matrix(.1,0,0,-.1,0,792)" stroke-width="1" stroke-linecap="butt" stroke-miterlimit="10" stroke-linejoin="miter" fill="none" stroke="#000000" d="M4793.7 5560 5573.1 6910 4793.7 6460 4014.2 6910Z"/>
<path transform="matrix(.1,0,0,-.1,0,792)" d="M4793.7 5560 5573.1 6010 6352.5 5560 5573.1 6910Z" fill="#004d80"/>
<path transform="matrix(.1,0,0,-.1,0,792)" stroke-width="1" stroke-linecap="butt" stroke-miterlimit="10" stroke-linejoin="miter" fill="none" stroke="#000000" d="M4793.7 5560 5573.1 6010 6352.5 5560 5573.1 6910Z"/>
<path transform="matrix(.1,0,0,-.1,0,792)" d="M4793.7 5560 5573.1 5110 6352.5 5560 5573.1 6010Z" fill="#994d00"/>
<path transform="matrix(.1,0,0,-.1,0,792)" stroke-width="1" stroke-linecap="butt" stroke-miterlimit="10" stroke-linejoin="miter" fill="none" stroke="#000000" d="M4793.7 5560 5573.1 5110 6352.5 5560 5573.1 6010Z"/>
<path transform="matrix(.1,0,0,-.1,0,792)" d="M4793.7 5560 5573.1 4210 6352.5 5560 5573.1 5110Z" fill="#004d80"/>
<path transform="matrix(.1,0,0,-.1,0,792)" stroke-width="1" stroke-linecap="butt" stroke-miterlimit="10" stroke-linejoin="miter" fill="none" stroke="#000000" d="M4793.7 5560 5573.1 4210 6352.5 5560 5573.1 5110Z"/>
<path transform="matrix(.1,0,0,-.1,0,792)" d="M4793.7 6460 5573.1 6910 4793.7 7360 4014.2 6910Z" fill="#004d80"/>
<path transform="matrix(.1,0,0,-.1,0,792)" stroke-width="1" stroke-linecap="butt" stroke-miterlimit="10" stroke-linejoin="miter" fill="none" stroke="#000000" d="M4793.7 6460 5573.1 6910 4793.7 7360 4014.2 6910Z"/>
<path transform="matrix(.1,0,0,-.1,0,792)" d="M4014.2 6910 3234.8 8260 2455.4 6910 3234.8 7360Z" fill="#994d00"/>
<path transform="matrix(.1,0,0,-.1,0,792)" stroke-width="1" stroke-linecap="butt" stroke-miterlimit="10" stroke-linejoin="miter" fill="none" stroke="#000000" d="M4014.2 6910 3234.8 8260 2455.4 6910 3234.8 7360Z"/>
<path transform="matrix(.1,0,0,-.1,0,792)" d="M4014.2 6910 4793.7 8260 4014.2 7810 3234.8 8260Z" fill="#004d80"/>
<path transform="matrix(.1,0,0,-.1,0,792)" stroke-width="1" stroke-linecap="butt" stroke-miterlimit="10" stroke-linejoin="miter" fill="none" stroke="#000000" d="M4014.2 6910 4793.7 8260 4014.2 7810 3234.8 8260Z"/>
<path transform="matrix(.1,0,0,-.1,0,792)" d="M4014.2 6910 4793.7 7360 5573.1 6910 4793.7 8260Z" fill="#994d00"/>
<path transform="matrix(.1,0,0,-.1,0,792)" stroke-width="1" stroke-linecap="butt" stroke-miterlimit="10" stroke-linejoin="miter" fill="none" stroke="#000000" d="M4014.2 6910 4793.7 7360 5573.1 6910 4793.7 8260Z"/>
<path transform="matrix(.1,0,0,-.1,0,792)" d="M2455.4 6910 1676 8260 896.5 6910 1676 7360Z" fill="#994d00"/>
<path transform="matrix(.1,0,0,-.1,0,792)" stroke-width="1" stroke-linecap="butt" stroke-miterlimit="10" stroke-linejoin="miter" fill="none" stroke="#000000" d="M2455.4 6910 1676 8260 896.5 6910 1676 7360Z"/>
<path transform="matrix(.1,0,0,-.1,0,792)" d="M2455.4 6910 3234.8 8260 2455.4 7810 1676 8260Z" fill="#004d80"/>
<path transform="matrix(.1,0,0,-.1,0,792)" stroke-width="1" stroke-linecap="butt" stroke-miterlimit="10" stroke-linejoin="miter" fill="none" stroke="#000000" d="M2455.4 6910 3234.8 8260 2455.4 7810 1676 8260Z"/>
<path transform="matrix(.1,0,0,-.1,0,792)" d="M2455.4 1510 3234.8 160 4014.2 1510 3234.8 1060Z" fill="#994d00"/>
<path transform="matrix(.1,0,0,-.1,0,792)" stroke-width="1" stroke-linecap="butt" stroke-miterlimit="10" stroke-linejoin="miter" fill="none" stroke="#000000" d="M2455.4 1510 3234.8 160 4014.2 1510 3234.8 1060Z"/>
<path transform="matrix(.1,0,0,-.1,0,792)" d="M2455.4 1510 1676 160 2455.4 610 3234.8 160Z" fill="#004d80"/>
<path transform="matrix(.1,0,0,-.1,0,792)" stroke-width="1" stroke-linecap="butt" stroke-miterlimit="10" stroke-linejoin="miter" fill="none" stroke="#000000" d="M2455.4 1510 1676 160 2455.4 610 3234.8 160Z"/>
<path transform="matrix(.1,0,0,-.1,0,792)" d="M2455.4 1510 1676 1060 896.5 1510 1676 160Z" fill="#994d00"/>
<path transform="matrix(.1,0,0,-.1,0,792)" stroke-width="1" stroke-linecap="butt" stroke-miterlimit="10" stroke-linejoin="miter" fill="none" stroke="#000000" d="M2455.4 1510 1676 1060 896.5 1510 1676 160Z"/>
<path transform="matrix(.1,0,0,-.1,0,792)" d="M4014.2 1510 4793.7 160 5573.1 1510 4793.7 1060Z" fill="#994d00"/>
<path transform="matrix(.1,0,0,-.1,0,792)" stroke-width="1" stroke-linecap="butt" stroke-miterlimit="10" stroke-linejoin="miter" fill="none" stroke="#000000" d="M4014.2 1510 4793.7 160 5573.1 1510 4793.7 1060Z"/>
<path transform="matrix(.1,0,0,-.1,0,792)" d="M4014.2 1510 3234.8 160 4014.2 610 4793.7 160Z" fill="#004d80"/>
<path transform="matrix(.1,0,0,-.1,0,792)" stroke-width="1" stroke-linecap="butt" stroke-miterlimit="10" stroke-linejoin="miter" fill="none" stroke="#000000" d="M4014.2 1510 3234.8 160 4014.2 610 4793.7 160Z"/>
<path transform="matrix(.1,0,0,-.1,0,792)" d="M896.5 6910 117.102 6460-662.301 6910 117.102 5560Z" fill="#994d00"/>
<path transform="matrix(.1,0,0,-.1,0,792)" stroke-width="1" stroke-linecap="butt" stroke-miterlimit="10" stroke-linejoin="miter" fill="none" stroke="#000000" d="M896.5 6910 117.102 6460-662.301 6910 117.102 5560Z"/>
<path transform="matrix(.1,0,0,-.1,0,792)" d="M896.5 6910 117.102 7360-662.301 6910 117.102 6460Z" fill="#004d80"/>
<path transform="matrix(.1,0,0,-.1,0,792)" stroke-width="1" stroke-linecap="butt" stroke-miterlimit="10" stroke-linejoin="miter" fill="none" stroke="#000000" d="M896.5 6910 117.102 7360-662.301 6910 117.102 6460Z"/>
<path transform="matrix(.1,0,0,-.1,0,792)" d="M896.5 6910 117.102 8260-662.301 6910 117.102 7360Z" fill="#994d00"/>
<path transform="matrix(.1,0,0,-.1,0,792)" stroke-width="1" stroke-linecap="butt" stroke-miterlimit="10" stroke-linejoin="miter" fill="none" stroke="#000000" d="M896.5 6910 117.102 8260-662.301 6910 117.102 7360Z"/>
<path transform="matrix(.1,0,0,-.1,0,792)" d="M896.5 6910 1676 8260 896.5 7810 117.102 8260Z" fill="#004d80"/>
<path transform="matrix(.1,0,0,-.1,0,792)" stroke-width="1" stroke-linecap="butt" stroke-miterlimit="10" stroke-linejoin="miter" fill="none" stroke="#000000" d="M896.5 6910 1676 8260 896.5 7810 117.102 8260Z"/>
<path transform="matrix(.1,0,0,-.1,0,792)" d="M896.5 4210 117.102 3760-662.301 4210 117.102 2860Z" fill="#994d00"/>
<path transform="matrix(.1,0,0,-.1,0,792)" stroke-width="1" stroke-linecap="butt" stroke-miterlimit="10" stroke-linejoin="miter" fill="none" stroke="#000000" d="M896.5 4210 117.102 3760-662.301 4210 117.102 2860Z"/>
<path transform="matrix(.1,0,0,-.1,0,792)" d="M896.5 4210 117.102 4660-662.301 4210 117.102 3760Z" fill="#004d80"/>
<path transform="matrix(.1,0,0,-.1,0,792)" stroke-width="1" stroke-linecap="butt" stroke-miterlimit="10" stroke-linejoin="miter" fill="none" stroke="#000000" d="M896.5 4210 117.102 4660-662.301 4210 117.102 3760Z"/>
<path transform="matrix(.1,0,0,-.1,0,792)" d="M896.5 4210 117.102 5560-662.301 4210 117.102 4660Z" fill="#994d00"/>
<path transform="matrix(.1,0,0,-.1,0,792)" stroke-width="1" stroke-linecap="butt" stroke-miterlimit="10" stroke-linejoin="miter" fill="none" stroke="#000000" d="M896.5 4210 117.102 5560-662.301 4210 117.102 4660Z"/>
<path transform="matrix(.1,0,0,-.1,0,792)" d="M896.5 1510 117.102 160 896.5 610 1676 160Z" fill="#004d80"/>
<path transform="matrix(.1,0,0,-.1,0,792)" stroke-width="1" stroke-linecap="butt" stroke-miterlimit="10" stroke-linejoin="miter" fill="none" stroke="#000000" d="M896.5 1510 117.102 160 896.5 610 1676 160Z"/>
<path transform="matrix(.1,0,0,-.1,0,792)" d="M896.5 1510 117.102 1060-662.301 1510 117.102 160Z" fill="#994d00"/>
<path transform="matrix(.1,0,0,-.1,0,792)" stroke-width="1" stroke-linecap="butt" stroke-miterlimit="10" stroke-linejoin="miter" fill="none" stroke="#000000" d="M896.5 1510 117.102 1060-662.301 1510 117.102 160Z"/>
<path transform="matrix(.1,0,0,-.1,0,792)" d="M896.5 1510 117.102 1960-662.301 1510 117.102 1060Z" fill="#004d80"/>
<path transform="matrix(.1,0,0,-.1,0,792)" stroke-width="1" stroke-linecap="butt" stroke-miterlimit="10" stroke-linejoin="miter" fill="none" stroke="#000000" d="M896.5 1510 117.102 1960-662.301 1510 117.102 1060Z"/>
<path transform="matrix(.1,0,0,-.1,0,792)" d="M896.5 1510 117.102 2860-662.301 1510 117.102 1960Z" fill="#994d00"/>
<path transform="matrix(.1,0,0,-.1,0,792)" stroke-width="1" stroke-linecap="butt" stroke-miterlimit="10" stroke-linejoin="miter" fill="none" stroke="#000000" d="M896.5 1510 117.102 2860-662.301 1510 117.102 1960Z"/>
<path transform="matrix(.1,0,0,-.1,0,792)" d="M5573.1 1510 6352.5 1960 7131.9 1510 6352.5 2860Z" fill="#994d00"/>
<path transform="matrix(.1,0,0,-.1,0,792)" stroke-width="1" stroke-linecap="butt" stroke-miterlimit="10" stroke-linejoin="miter" fill="none" stroke="#000000" d="M5573.1 1510 6352.5 1960 7131.9 1510 6352.5 2860Z"/>
<path transform="matrix(.1,0,0,-.1,0,792)" d="M5573.1 1510 6352.5 1060 7131.9 1510 6352.5 1960Z" fill="#004d80"/>
<path transform="matrix(.1,0,0,-.1,0,792)" stroke-width="1" stroke-linecap="butt" stroke-miterlimit="10" stroke-linejoin="miter" fill="none" stroke="#000000" d="M5573.1 1510 6352.5 1060 7131.9 1510 6352.5 1960Z"/>
<path transform="matrix(.1,0,0,-.1,0,792)" d="M5573.1 1510 6352.5 160 7131.9 1510 6352.5 1060Z" fill="#994d00"/>
<path transform="matrix(.1,0,0,-.1,0,792)" stroke-width="1" stroke-linecap="butt" stroke-miterlimit="10" stroke-linejoin="miter" fill="none" stroke="#000000" d="M5573.1 1510 6352.5 160 7131.9 1510 6352.5 1060Z"/>
<path transform="matrix(.1,0,0,-.1,0,792)" d="M5573.1 1510 4793.7 160 5573.1 610 6352.5 160Z" fill="#004d80"/>
<path transform="matrix(.1,0,0,-.1,0,792)" stroke-width="1" stroke-linecap="butt" stroke-miterlimit="10" stroke-linejoin="miter" fill="none" stroke="#000000" d="M5573.1 1510 4793.7 160 5573.1 610 6352.5 160Z"/>
<path transform="matrix(.1,0,0,-.1,0,792)" d="M5573.1 4210 6352.5 4660 7131.9 4210 6352.5 5560Z" fill="#994d00"/>
<path transform="matrix(.1,0,0,-.1,0,792)" stroke-width="1" stroke-linecap="butt" stroke-miterlimit="10" stroke-linejoin="miter" fill="none" stroke="#000000" d="M5573.1 4210 6352.5 4660 7131.9 4210 6352.5 5560Z"/>
<path transform="matrix(.1,0,0,-.1,0,792)" d="M5573.1 4210 6352.5 3760 7131.9 4210 6352.5 4660Z" fill="#004d80"/>
<path transform="matrix(.1,0,0,-.1,0,792)" stroke-width="1" stroke-linecap="butt" stroke-miterlimit="10" stroke-linejoin="miter" fill="none" stroke="#000000" d="M5573.1 4210 6352.5 3760 7131.9 4210 6352.5 4660Z"/>
<path transform="matrix(.1,0,0,-.1,0,792)" d="M5573.1 4210 6352.5 2860 7131.9 4210 6352.5 3760Z" fill="#994d00"/>
<path transform="matrix(.1,0,0,-.1,0,792)" stroke-width="1" stroke-linecap="butt" stroke-miterlimit="10" stroke-linejoin="miter" fill="none" stroke="#000000" d="M5573.1 4210 6352.5 2860 7131.9 4210 6352.5 3760Z"/>
<path transform="matrix(.1,0,0,-.1,0,792)" d="M5573.1 6910 6352.5 8260 5573.1 7810 4793.7 8260Z" fill="#004d80"/>
<path transform="matrix(.1,0,0,-.1,0,792)" stroke-width="1" stroke-linecap="butt" stroke-miterlimit="10" stroke-linejoin="miter" fill="none" stroke="#000000" d="M5573.1 6910 6352.5 8260 5573.1 7810 4793.7 8260Z"/>
<path transform="matrix(.1,0,0,-.1,0,792)" d="M5573.1 6910 6352.5 7360 7131.9 6910 6352.5 8260Z" fill="#994d00"/>
<path transform="matrix(.1,0,0,-.1,0,792)" stroke-width="1" stroke-linecap="butt" stroke-miterlimit="10" stroke-linejoin="miter" fill="none" stroke="#000000" d="M5573.1 6910 6352.5 7360 7131.9 6910 6352.5 8260Z"/>
<path transform="matrix(.1,0,0,-.1,0,792)" d="M5573.1 6910 6352.5 6460 7131.9 6910 6352.5 7360Z" fill="#004d80"/>
<path transform="matrix(.1,0,0,-.1,0,792)" stroke-width="1" stroke-linecap="butt" stroke-miterlimit="10" stroke-linejoin="miter" fill="none" stroke="#000000" d="M5573.1 6910 6352.5 6460 7131.9 6910 6352.5 7360Z"/>
<path transform="matrix(.1,0,0,-.1,0,792)" d="M5573.1 6910 6352.5 5560 7131.9 6910 6352.5 6460Z" fill="#994d00"/>
<path transform="matrix(.1,0,0,-.1,0,792)" stroke-width="1" stroke-linecap="butt" stroke-miterlimit="10" stroke-linejoin="miter" fill="none" stroke="#000000" d="M5573.1 6910 6352.5 5560 7131.9 6910 6352.5 6460Z"/>
<path transform="matrix(.1,0,0,-.1,0,792)" d="M5573.1 7810 6352.5 8260 5573.1 8710 4793.7 8260Z" fill="#994d00"/>
<path transform="matrix(.1,0,0,-.1,0,792)" stroke-width="1" stroke-linecap="butt" stroke-miterlimit="10" stroke-linejoin="miter" fill="none" stroke="#000000" d="M5573.1 7810 6352.5 8260 5573.1 8710 4793.7 8260Z"/>
<path transform="matrix(.1,0,0,-.1,0,792)" d="M4014.2 7810 4793.7 8260 4014.2 8710 3234.8 8260Z" fill="#994d00"/>
<path transform="matrix(.1,0,0,-.1,0,792)" stroke-width="1" stroke-linecap="butt" stroke-miterlimit="10" stroke-linejoin="miter" fill="none" stroke="#000000" d="M4014.2 7810 4793.7 8260 4014.2 8710 3234.8 8260Z"/>
<path transform="matrix(.1,0,0,-.1,0,792)" d="M2455.4 7810 3234.8 8260 2455.4 8710 1676 8260Z" fill="#994d00"/>
<path transform="matrix(.1,0,0,-.1,0,792)" stroke-width="1" stroke-linecap="butt" stroke-miterlimit="10" stroke-linejoin="miter" fill="none" stroke="#000000" d="M2455.4 7810 3234.8 8260 2455.4 8710 1676 8260Z"/>
<path transform="matrix(.1,0,0,-.1,0,792)" d="M896.5 7810 1676 8260 896.5 8710 117.102 8260Z" fill="#994d00"/>
<path transform="matrix(.1,0,0,-.1,0,792)" stroke-width="1" stroke-linecap="butt" stroke-miterlimit="10" stroke-linejoin="miter" fill="none" stroke="#000000" d="M896.5 7810 1676 8260 896.5 8710 117.102 8260Z"/>
<path transform="matrix(.1,0,0,-.1,0,792)" d="M896.5 610 117.102 160 896.5-290 1676 160Z" fill="#994d00"/>
<path transform="matrix(.1,0,0,-.1,0,792)" stroke-width="1" stroke-linecap="butt" stroke-miterlimit="10" stroke-linejoin="miter" fill="none" stroke="#000000" d="M896.5 610 117.102 160 896.5-290 1676 160Z"/>
<path transform="matrix(.1,0,0,-.1,0,792)" d="M2455.4 610 1676 160 2455.4-290 3234.8 160Z" fill="#994d00"/>
<path transform="matrix(.1,0,0,-.1,0,792)" stroke-width="1" stroke-linecap="butt" stroke-miterlimit="10" stroke-linejoin="miter" fill="none" stroke="#000000" d="M2455.4 610 1676 160 2455.4-290 3234.8 160Z"/>
<path transform="matrix(.1,0,0,-.1,0,792)" d="M4014.2 610 3234.8 160 4014.2-290 4793.7 160Z" fill="#994d00"/>
<path transform="matrix(.1,0,0,-.1,0,792)" stroke-width="1" stroke-linecap="butt" stroke-miterlimit="10" stroke-linejoin="miter" fill="none" stroke="#000000" d="M4014.2 610 3234.8 160 4014.2-290 4793.7 160Z"/>
<path transform="matrix(.1,0,0,-.1,0,792)" d="M5573.1 610 4793.7 160 5573.1-290 6352.5 160Z" fill="#994d00"/>
<path transform="matrix(.1,0,0,-.1,0,792)" stroke-width="1" stroke-linecap="butt" stroke-miterlimit="10" stroke-linejoin="miter" fill="none" stroke="#000000" d="M5573.1 610 4793.7 160 5573.1-290 6352.5 160Z"/>
<path transform="matrix(.1,0,0,-.1,0,792)" d="M117.102 5560-662.301 5110-1441.7 5560-662.301 4210Z" fill="#004d80"/>
<path transform="matrix(.1,0,0,-.1,0,792)" stroke-width="1" stroke-linecap="butt" stroke-miterlimit="10" stroke-linejoin="miter" fill="none" stroke="#000000" d="M117.102 5560-662.301 5110-1441.7 5560-662.301 4210Z"/>
<path transform="matrix(.1,0,0,-.1,0,792)" d="M117.102 5560-662.301 6010-1441.7 5560-662.301 5110Z" fill="#994d00"/>
<path transform="matrix(.1,0,0,-.1,0,792)" stroke-width="1" stroke-linecap="butt" stroke-miterlimit="10" stroke-linejoin="miter" fill="none" stroke="#000000" d="M117.102 5560-662.301 6010-1441.7 5560-662.301 5110Z"/>
<path transform="matrix(.1,0,0,-.1,0,792)" d="M117.102 5560-662.301 6910-1441.7 5560-662.301 6010Z" fill="#004d80"/>
<path transform="matrix(.1,0,0,-.1,0,792)" stroke-width="1" stroke-linecap="butt" stroke-miterlimit="10" stroke-linejoin="miter" fill="none" stroke="#000000" d="M117.102 5560-662.301 6910-1441.7 5560-662.301 6010Z"/>
<path transform="matrix(.1,0,0,-.1,0,792)" d="M117.102 2860-662.301 2410-1441.7 2860-662.301 1510Z" fill="#004d80"/>
<path transform="matrix(.1,0,0,-.1,0,792)" stroke-width="1" stroke-linecap="butt" stroke-miterlimit="10" stroke-linejoin="miter" fill="none" stroke="#000000" d="M117.102 2860-662.301 2410-1441.7 2860-662.301 1510Z"/>
<path transform="matrix(.1,0,0,-.1,0,792)" d="M117.102 2860-662.301 3310-1441.7 2860-662.301 2410Z" fill="#994d00"/>
<path transform="matrix(.1,0,0,-.1,0,792)" stroke-width="1" stroke-linecap="butt" stroke-miterlimit="10" stroke-linejoin="miter" fill="none" stroke="#000000" d="M117.102 2860-662.301 3310-1441.7 2860-662.301 2410Z"/>
<path transform="matrix(.1,0,0,-.1,0,792)" d="M117.102 2860-662.301 4210-1441.7 2860-662.301 3310Z" fill="#004d80"/>
<path transform="matrix(.1,0,0,-.1,0,792)" stroke-width="1" stroke-linecap="butt" stroke-miterlimit="10" stroke-linejoin="miter" fill="none" stroke="#000000" d="M117.102 2860-662.301 4210-1441.7 2860-662.301 3310Z"/>
<path transform="matrix(.1,0,0,-.1,0,792)" d="M117.102 160 896.5-1190 1676 160 896.5-290Z" fill="#004d80"/>
<path transform="matrix(.1,0,0,-.1,0,792)" stroke-width="1" stroke-linecap="butt" stroke-miterlimit="10" stroke-linejoin="miter" fill="none" stroke="#000000" d="M117.102 160 896.5-1190 1676 160 896.5-290Z"/>
<path transform="matrix(.1,0,0,-.1,0,792)" d="M117.102 160-662.301-1190 117.102-740 896.5-1190Z" fill="#994d00"/>
<path transform="matrix(.1,0,0,-.1,0,792)" stroke-width="1" stroke-linecap="butt" stroke-miterlimit="10" stroke-linejoin="miter" fill="none" stroke="#000000" d="M117.102 160-662.301-1190 117.102-740 896.5-1190Z"/>
<path transform="matrix(.1,0,0,-.1,0,792)" d="M117.102 160-662.301-290-1441.7 160-662.301-1190Z" fill="#004d80"/>
<path transform="matrix(.1,0,0,-.1,0,792)" stroke-width="1" stroke-linecap="butt" stroke-miterlimit="10" stroke-linejoin="miter" fill="none" stroke="#000000" d="M117.102 160-662.301-290-1441.7 160-662.301-1190Z"/>
<path transform="matrix(.1,0,0,-.1,0,792)" d="M117.102 160-662.301 610-1441.7 160-662.301-290Z" fill="#994d00"/>
<path transform="matrix(.1,0,0,-.1,0,792)" stroke-width="1" stroke-linecap="butt" stroke-miterlimit="10" stroke-linejoin="miter" fill="none" stroke="#000000" d="M117.102 160-662.301 610-1441.7 160-662.301-290Z"/>
<path transform="matrix(.1,0,0,-.1,0,792)" d="M117.102 160-662.301 1510-1441.7 160-662.301 610Z" fill="#004d80"/>
<path transform="matrix(.1,0,0,-.1,0,792)" stroke-width="1" stroke-linecap="butt" stroke-miterlimit="10" stroke-linejoin="miter" fill="none" stroke="#000000" d="M117.102 160-662.301 1510-1441.7 160-662.301 610Z"/>
<path transform="matrix(.1,0,0,-.1,0,792)" d="M1676 160 2455.4-1190 3234.8 160 2455.4-290Z" fill="#004d80"/>
<path transform="matrix(.1,0,0,-.1,0,792)" stroke-width="1" stroke-linecap="butt" stroke-miterlimit="10" stroke-linejoin="miter" fill="none" stroke="#000000" d="M1676 160 2455.4-1190 3234.8 160 2455.4-290Z"/>
<path transform="matrix(.1,0,0,-.1,0,792)" d="M1676 160 896.5-1190 1676-740 2455.4-1190Z" fill="#994d00"/>
<path transform="matrix(.1,0,0,-.1,0,792)" stroke-width="1" stroke-linecap="butt" stroke-miterlimit="10" stroke-linejoin="miter" fill="none" stroke="#000000" d="M1676 160 896.5-1190 1676-740 2455.4-1190Z"/>
<path transform="matrix(.1,0,0,-.1,0,792)" d="M3234.8 160 4014.2-1190 4793.7 160 4014.2-290Z" fill="#004d80"/>
<path transform="matrix(.1,0,0,-.1,0,792)" stroke-width="1" stroke-linecap="butt" stroke-miterlimit="10" stroke-linejoin="miter" fill="none" stroke="#000000" d="M3234.8 160 4014.2-1190 4793.7 160 4014.2-290Z"/>
<path transform="matrix(.1,0,0,-.1,0,792)" d="M3234.8 160 2455.4-1190 3234.8-740 4014.2-1190Z" fill="#994d00"/>
<path transform="matrix(.1,0,0,-.1,0,792)" stroke-width="1" stroke-linecap="butt" stroke-miterlimit="10" stroke-linejoin="miter" fill="none" stroke="#000000" d="M3234.8 160 2455.4-1190 3234.8-740 4014.2-1190Z"/>
<path transform="matrix(.1,0,0,-.1,0,792)" d="M4793.7 160 5573.1-1190 6352.5 160 5573.1-290Z" fill="#004d80"/>
<path transform="matrix(.1,0,0,-.1,0,792)" stroke-width="1" stroke-linecap="butt" stroke-miterlimit="10" stroke-linejoin="miter" fill="none" stroke="#000000" d="M4793.7 160 5573.1-1190 6352.5 160 5573.1-290Z"/>
<path transform="matrix(.1,0,0,-.1,0,792)" d="M4793.7 160 4014.2-1190 4793.7-740 5573.1-1190Z" fill="#994d00"/>
<path transform="matrix(.1,0,0,-.1,0,792)" stroke-width="1" stroke-linecap="butt" stroke-miterlimit="10" stroke-linejoin="miter" fill="none" stroke="#000000" d="M4793.7 160 4014.2-1190 4793.7-740 5573.1-1190Z"/>
<path transform="matrix(.1,0,0,-.1,0,792)" d="M117.102 8260-662.301 7810-1441.7 8260-662.301 6910Z" fill="#004d80"/>
<path transform="matrix(.1,0,0,-.1,0,792)" stroke-width="1" stroke-linecap="butt" stroke-miterlimit="10" stroke-linejoin="miter" fill="none" stroke="#000000" d="M117.102 8260-662.301 7810-1441.7 8260-662.301 6910Z"/>
<path transform="matrix(.1,0,0,-.1,0,792)" d="M117.102 8260-662.301 8710-1441.7 8260-662.301 7810Z" fill="#994d00"/>
<path transform="matrix(.1,0,0,-.1,0,792)" stroke-width="1" stroke-linecap="butt" stroke-miterlimit="10" stroke-linejoin="miter" fill="none" stroke="#000000" d="M117.102 8260-662.301 8710-1441.7 8260-662.301 7810Z"/>
<path transform="matrix(.1,0,0,-.1,0,792)" d="M6352.5 160 5573.1-1190 6352.5-740 7131.9-1190Z" fill="#994d00"/>
<path transform="matrix(.1,0,0,-.1,0,792)" stroke-width="1" stroke-linecap="butt" stroke-miterlimit="10" stroke-linejoin="miter" fill="none" stroke="#000000" d="M6352.5 160 5573.1-1190 6352.5-740 7131.9-1190Z"/>
</svg>
