<svg xmlns="http://www.w3.org/2000/svg" xmlns:xlink="http://www.w3.org/1999/xlink" xmlns:inkscape="http://www.inkscape.org/namespaces/inkscape" version="1.1" width="612" height="792" viewBox="0 0 612 792">
<path transform="matrix(.1,0,0,-.1,0,792)" d="M3917.8 4210 3210.7 4917.1 2503.6 4210 3210.7 3502.9Z" fill="#ffffff"/>
<path transform="matrix(.1,0,0,-.1,0,792)" stroke-width="1" stroke-linecap="butt" stroke-miterlimit="10" stroke-linejoin="miter" fill="none" stroke="#000000" d="M3917.8 4210 3210.7 4917.1 2503.6 4210 3210.7 3502.9Z"/>
<path transform="matrix(.1,0,0,-.1,0,792)" d="M2503.6 4210 1537.7 3951.2 2244.8 3244.1 3210.7 3502.9Z"/>
<path transform="matrix(.1,0,0,-.1,0,792)" stroke-width="1" stroke-linecap="butt" stroke-miterlimit="10" stroke-linejoin="miter" fill="none" stroke="#000000" d="M2503.6 4210 1537.7 3951.2 2244.8 3244.1 3210.7 3502.9Z"/>
<path transform="matrix(.1,0,0,-.1,0,792)" d="M2503.6 4210 2244.8 5175.9 1278.9 4917.1 1537.7 3951.2Z" fill="#ffffff"/>
<path transform="matrix(.1,0,0,-.1,0,792)" stroke-width="1" stroke-linecap="butt" stroke-miterlimit="10" stroke-linejoin="miter" fill="none" stroke="#000000" d="M2503.6 4210 2244.8 5175.9 1278.9 4917.1 1537.7 3951.2Z"/>
<path transform="matrix(.1,0,0,-.1,0,792)" d="M2503.6 4210 3210.7 4917.1 2951.9 5883 2244.8 5175.9Z"/>
<path transform="matrix(.1,0,0,-.1,0,792)" stroke-width="1" stroke-linecap="butt" stroke-miterlimit="10" stroke-linejoin="miter" fill="none" stroke="#000000" d="M2503.6 4210 3210.7 4917.1 2951.9 5883 2244.8 5175.9Z"/>
<path transform="matrix(.1,0,0,-.1,0,792)" d="M3210.7 4917.1 4176.6 5175.9 3917.8 6141.9 2951.9 5883Z" fill="#ffffff"/>
<path transform="matrix(.1,0,0,-.1,0,792)" stroke-width="1" stroke-linecap="butt" stroke-miterlimit="10" stroke-linejoin="miter" fill="none" stroke="#000000" d="M3210.7 4917.1 4176.6 5175.9 3917.8 6141.9 2951.9 5883Z"/>
<path transform="matrix(.1,0,0,-.1,0,792)" d="M3210.7 4917.1 3917.8 4210 4883.7 4468.8 4176.6 5175.9Z"/>
<path transform="matrix(.1,0,0,-.1,0,792)" stroke-width="1" stroke-linecap="butt" stroke-miterlimit="10" stroke-linejoin="miter" fill="none" stroke="#000000" d="M3210.7 4917.1 3917.8 4210 4883.7 4468.8 4176.6 5175.9Z"/>
<path transform="matrix(.1,0,0,-.1,0,792)" d="M3210.7 3502.9 3469.5 2537 4176.6 3244.1 3917.8 4210Z"/>
<path transform="matrix(.1,0,0,-.1,0,792)" stroke-width="1" stroke-linecap="butt" stroke-miterlimit="10" stroke-linejoin="miter" fill="none" stroke="#000000" d="M3210.7 3502.9 3469.5 2537 4176.6 3244.1 3917.8 4210Z"/>
<path transform="matrix(.1,0,0,-.1,0,792)" d="M3210.7 3502.9 2244.8 3244.1 2503.6 2278.1 3469.5 2537Z" fill="#ffffff"/>
<path transform="matrix(.1,0,0,-.1,0,792)" stroke-width="1" stroke-linecap="butt" stroke-miterlimit="10" stroke-linejoin="miter" fill="none" stroke="#000000" d="M3210.7 3502.9 2244.8 3244.1 2503.6 2278.1 3469.5 2537Z"/>
<path transform="matrix(.1,0,0,-.1,0,792)" d="M2244.8 3244.1 1537.7 2537 1796.5 1571 2503.6 2278.1Z"/>
<path transform="matrix(.1,0,0,-.1,0,792)" stroke-width="1" stroke-linecap="butt" stroke-miterlimit="10" stroke-linejoin="miter" fill="none" stroke="#000000" d="M2244.8 3244.1 1537.7 2537 1796.5 1571 2503.6 2278.1Z"/>
<path transform="matrix(.1,0,0,-.1,0,792)" d="M2244.8 3244.1 1537.7 3951.2 830.602 3244.1 1537.7 2537Z" fill="#ffffff"/>
<path transform="matrix(.1,0,0,-.1,0,792)" stroke-width="1" stroke-linecap="butt" stroke-miterlimit="10" stroke-linejoin="miter" fill="none" stroke="#000000" d="M2244.8 3244.1 1537.7 3951.2 830.602 3244.1 1537.7 2537Z"/>
<path transform="matrix(.1,0,0,-.1,0,792)" d="M2244.8 5175.9 1537.7 5883 571.699 5624.2 1278.9 4917.1Z"/>
<path transform="matrix(.1,0,0,-.1,0,792)" stroke-width="1" stroke-linecap="butt" stroke-miterlimit="10" stroke-linejoin="miter" fill="none" stroke="#000000" d="M2244.8 5175.9 1537.7 5883 571.699 5624.2 1278.9 4917.1Z"/>
<path transform="matrix(.1,0,0,-.1,0,792)" d="M2244.8 5175.9 2951.9 5883 2244.8 6590.1 1537.7 5883Z" fill="#ffffff"/>
<path transform="matrix(.1,0,0,-.1,0,792)" stroke-width="1" stroke-linecap="butt" stroke-miterlimit="10" stroke-linejoin="miter" fill="none" stroke="#000000" d="M2244.8 5175.9 2951.9 5883 2244.8 6590.1 1537.7 5883Z"/>
<path transform="matrix(.1,0,0,-.1,0,792)" d="M3917.8 4210 4176.6 3244.1 5142.6 3502.9 4883.7 4468.8Z" fill="#ffffff"/>
<path transform="matrix(.1,0,0,-.1,0,792)" stroke-width="1" stroke-linecap="butt" stroke-miterlimit="10" stroke-linejoin="miter" fill="none" stroke="#000000" d="M3917.8 4210 4176.6 3244.1 5142.6 3502.9 4883.7 4468.8Z"/>
<path transform="matrix(.1,0,0,-.1,0,792)" d="M4176.6 3244.1 4883.7 2537 5849.7 2795.8 5142.6 3502.9Z"/>
<path transform="matrix(.1,0,0,-.1,0,792)" stroke-width="1" stroke-linecap="butt" stroke-miterlimit="10" stroke-linejoin="miter" fill="none" stroke="#000000" d="M4176.6 3244.1 4883.7 2537 5849.7 2795.8 5142.6 3502.9Z"/>
<path transform="matrix(.1,0,0,-.1,0,792)" d="M4176.6 3244.1 3469.5 2537 4176.6 1829.9 4883.7 2537Z" fill="#ffffff"/>
<path transform="matrix(.1,0,0,-.1,0,792)" stroke-width="1" stroke-linecap="butt" stroke-miterlimit="10" stroke-linejoin="miter" fill="none" stroke="#000000" d="M4176.6 3244.1 3469.5 2537 4176.6 1829.9 4883.7 2537Z"/>
<path transform="matrix(.1,0,0,-.1,0,792)" d="M4176.6 5175.9 4883.7 5883 4624.9 6849 3917.8 6141.9Z"/>
<path transform="matrix(.1,0,0,-.1,0,792)" stroke-width="1" stroke-linecap="butt" stroke-miterlimit="10" stroke-linejoin="miter" fill="none" stroke="#000000" d="M4176.6 5175.9 4883.7 5883 4624.9 6849 3917.8 6141.9Z"/>
<path transform="matrix(.1,0,0,-.1,0,792)" d="M4176.6 5175.9 4883.7 4468.8 5590.8 5175.9 4883.7 5883Z" fill="#ffffff"/>
<path transform="matrix(.1,0,0,-.1,0,792)" stroke-width="1" stroke-linecap="butt" stroke-miterlimit="10" stroke-linejoin="miter" fill="none" stroke="#000000" d="M4176.6 5175.9 4883.7 4468.8 5590.8 5175.9 4883.7 5883Z"/>
<path transform="matrix(.1,0,0,-.1,0,792)" d="M2951.9 5883 3917.8 6141.9 3210.7 6849 2244.8 6590.1Z"/>
<path transform="matrix(.1,0,0,-.1,0,792)" stroke-width="1" stroke-linecap="butt" stroke-miterlimit="10" stroke-linejoin="miter" fill="none" stroke="#000000" d="M2951.9 5883 3917.8 6141.9 3210.7 6849 2244.8 6590.1Z"/>
<path transform="matrix(.1,0,0,-.1,0,792)" d="M3469.5 2537 2503.6 2278.1 3210.7 1571 4176.6 1829.9Z"/>
<path transform="matrix(.1,0,0,-.1,0,792)" stroke-width="1" stroke-linecap="butt" stroke-miterlimit="10" stroke-linejoin="miter" fill="none" stroke="#000000" d="M3469.5 2537 2503.6 2278.1 3210.7 1571 4176.6 1829.9Z"/>
<path transform="matrix(.1,0,0,-.1,0,792)" d="M2503.6 2278.1 1796.5 1571 2503.6 863.898 3210.7 1571Z" fill="#ffffff"/>
<path transform="matrix(.1,0,0,-.1,0,792)" stroke-width="1" stroke-linecap="butt" stroke-miterlimit="10" stroke-linejoin="miter" fill="none" stroke="#000000" d="M2503.6 2278.1 1796.5 1571 2503.6 863.898 3210.7 1571Z"/>
<path transform="matrix(.1,0,0,-.1,0,792)" d="M3917.8 6141.9 4624.9 6849 3917.8 7556.1 3210.7 6849Z" fill="#ffffff"/>
<path transform="matrix(.1,0,0,-.1,0,792)" stroke-width="1" stroke-linecap="butt" stroke-miterlimit="10" stroke-linejoin="miter" fill="none" stroke="#000000" d="M3917.8 6141.9 4624.9 6849 3917.8 7556.1 3210.7 6849Z"/>
<path transform="matrix(.1,0,0,-.1,0,792)" d="M1537.7 5883 1278.9 6849 312.898 6590.1 571.699 5624.2Z" fill="#ffffff"/>
<path transform="matrix(.1,0,0,-.1,0,792)" stroke-width="1" stroke-linecap="butt" stroke-miterlimit="10" stroke-linejoin="miter" fill="none" stroke="#000000" d="M1537.7 5883 1278.9 6849 312.898 6590.1 571.699 5624.2Z"/>
<path transform="matrix(.1,0,0,-.1,0,792)" d="M1537.7 5883 2244.8 6590.1 1986 7556.1 1278.9 6849Z"/>
<path transform="matrix(.1,0,0,-.1,0,792)" stroke-width="1" stroke-linecap="butt" stroke-miterlimit="10" stroke-linejoin="miter" fill="none" stroke="#000000" d="M1537.7 5883 2244.8 6590.1 1986 7556.1 1278.9 6849Z"/>
<path transform="matrix(.1,0,0,-.1,0,792)" d="M1537.7 3951.2 1278.9 4917.1 571.699 4210 830.602 3244.1Z"/>
<path transform="matrix(.1,0,0,-.1,0,792)" stroke-width="1" stroke-linecap="butt" stroke-miterlimit="10" stroke-linejoin="miter" fill="none" stroke="#000000" d="M1537.7 3951.2 1278.9 4917.1 571.699 4210 830.602 3244.1Z"/>
<path transform="matrix(.1,0,0,-.1,0,792)" d="M1537.7 2537 571.699 2278.1 830.602 1312.2 1796.5 1571Z" fill="#ffffff"/>
<path transform="matrix(.1,0,0,-.1,0,792)" stroke-width="1" stroke-linecap="butt" stroke-miterlimit="10" stroke-linejoin="miter" fill="none" stroke="#000000" d="M1537.7 2537 571.699 2278.1 830.602 1312.2 1796.5 1571Z"/>
<path transform="matrix(.1,0,0,-.1,0,792)" d="M1537.7 2537 830.602 3244.1-135.398 2985.3 571.699 2278.1Z"/>
<path transform="matrix(.1,0,0,-.1,0,792)" stroke-width="1" stroke-linecap="butt" stroke-miterlimit="10" stroke-linejoin="miter" fill="none" stroke="#000000" d="M1537.7 2537 830.602 3244.1-135.398 2985.3 571.699 2278.1Z"/>
<path transform="matrix(.1,0,0,-.1,0,792)" d="M1278.9 4917.1 571.699 5624.2-135.398 4917.1 571.699 4210Z" fill="#ffffff"/>
<path transform="matrix(.1,0,0,-.1,0,792)" stroke-width="1" stroke-linecap="butt" stroke-miterlimit="10" stroke-linejoin="miter" fill="none" stroke="#000000" d="M1278.9 4917.1 571.699 5624.2-135.398 4917.1 571.699 4210Z"/>
<path transform="matrix(.1,0,0,-.1,0,792)" d="M4176.6 1829.9 4435.4 863.898 5142.6 1571 4883.7 2537Z"/>
<path transform="matrix(.1,0,0,-.1,0,792)" stroke-width="1" stroke-linecap="butt" stroke-miterlimit="10" stroke-linejoin="miter" fill="none" stroke="#000000" d="M4176.6 1829.9 4435.4 863.898 5142.6 1571 4883.7 2537Z"/>
<path transform="matrix(.1,0,0,-.1,0,792)" d="M4176.6 1829.9 3210.7 1571 3469.5 605.102 4435.4 863.898Z" fill="#ffffff"/>
<path transform="matrix(.1,0,0,-.1,0,792)" stroke-width="1" stroke-linecap="butt" stroke-miterlimit="10" stroke-linejoin="miter" fill="none" stroke="#000000" d="M4176.6 1829.9 3210.7 1571 3469.5 605.102 4435.4 863.898Z"/>
<path transform="matrix(.1,0,0,-.1,0,792)" d="M2244.8 6590.1 3210.7 6849 2951.9 7814.9 1986 7556.1Z" fill="#ffffff"/>
<path transform="matrix(.1,0,0,-.1,0,792)" stroke-width="1" stroke-linecap="butt" stroke-miterlimit="10" stroke-linejoin="miter" fill="none" stroke="#000000" d="M2244.8 6590.1 3210.7 6849 2951.9 7814.9 1986 7556.1Z"/>
<path transform="matrix(.1,0,0,-.1,0,792)" d="M4883.7 2537 5142.6 1571 6108.5 1829.9 5849.7 2795.8Z" fill="#ffffff"/>
<path transform="matrix(.1,0,0,-.1,0,792)" stroke-width="1" stroke-linecap="butt" stroke-miterlimit="10" stroke-linejoin="miter" fill="none" stroke="#000000" d="M4883.7 2537 5142.6 1571 6108.5 1829.9 5849.7 2795.8Z"/>
<path transform="matrix(.1,0,0,-.1,0,792)" d="M4883.7 4468.8 5142.6 3502.9 5849.7 4210 5590.8 5175.9Z"/>
<path transform="matrix(.1,0,0,-.1,0,792)" stroke-width="1" stroke-linecap="butt" stroke-miterlimit="10" stroke-linejoin="miter" fill="none" stroke="#000000" d="M4883.7 4468.8 5142.6 3502.9 5849.7 4210 5590.8 5175.9Z"/>
<path transform="matrix(.1,0,0,-.1,0,792)" d="M4883.7 5883 5849.7 6141.9 5590.8 7107.8 4624.9 6849Z" fill="#ffffff"/>
<path transform="matrix(.1,0,0,-.1,0,792)" stroke-width="1" stroke-linecap="butt" stroke-miterlimit="10" stroke-linejoin="miter" fill="none" stroke="#000000" d="M4883.7 5883 5849.7 6141.9 5590.8 7107.8 4624.9 6849Z"/>
<path transform="matrix(.1,0,0,-.1,0,792)" d="M4883.7 5883 5590.8 5175.9 6556.8 5434.7 5849.7 6141.9Z"/>
<path transform="matrix(.1,0,0,-.1,0,792)" stroke-width="1" stroke-linecap="butt" stroke-miterlimit="10" stroke-linejoin="miter" fill="none" stroke="#000000" d="M4883.7 5883 5590.8 5175.9 6556.8 5434.7 5849.7 6141.9Z"/>
<path transform="matrix(.1,0,0,-.1,0,792)" d="M4624.9 6849 5590.8 7107.8 4883.7 7814.9 3917.8 7556.1Z"/>
<path transform="matrix(.1,0,0,-.1,0,792)" stroke-width="1" stroke-linecap="butt" stroke-miterlimit="10" stroke-linejoin="miter" fill="none" stroke="#000000" d="M4624.9 6849 5590.8 7107.8 4883.7 7814.9 3917.8 7556.1Z"/>
<path transform="matrix(.1,0,0,-.1,0,792)" d="M3210.7 6849 3917.8 7556.1 3659 8522 2951.9 7814.9Z"/>
<path transform="matrix(.1,0,0,-.1,0,792)" stroke-width="1" stroke-linecap="butt" stroke-miterlimit="10" stroke-linejoin="miter" fill="none" stroke="#000000" d="M3210.7 6849 3917.8 7556.1 3659 8522 2951.9 7814.9Z"/>
<path transform="matrix(.1,0,0,-.1,0,792)" d="M1278.9 6849 571.699 7556.1-394.199 7297.2 312.898 6590.1Z"/>
<path transform="matrix(.1,0,0,-.1,0,792)" stroke-width="1" stroke-linecap="butt" stroke-miterlimit="10" stroke-linejoin="miter" fill="none" stroke="#000000" d="M1278.9 6849 571.699 7556.1-394.199 7297.2 312.898 6590.1Z"/>
<path transform="matrix(.1,0,0,-.1,0,792)" d="M1278.9 6849 1986 7556.1 1278.9 8263.2 571.699 7556.1Z" fill="#ffffff"/>
<path transform="matrix(.1,0,0,-.1,0,792)" stroke-width="1" stroke-linecap="butt" stroke-miterlimit="10" stroke-linejoin="miter" fill="none" stroke="#000000" d="M1278.9 6849 1986 7556.1 1278.9 8263.2 571.699 7556.1Z"/>
<path transform="matrix(.1,0,0,-.1,0,792)" d="M1796.5 1571 830.602 1312.2 1537.7 605.102 2503.6 863.898Z"/>
<path transform="matrix(.1,0,0,-.1,0,792)" stroke-width="1" stroke-linecap="butt" stroke-miterlimit="10" stroke-linejoin="miter" fill="none" stroke="#000000" d="M1796.5 1571 830.602 1312.2 1537.7 605.102 2503.6 863.898Z"/>
<path transform="matrix(.1,0,0,-.1,0,792)" d="M3210.7 1571 2503.6 863.898 2762.4-102 3469.5 605.102Z"/>
<path transform="matrix(.1,0,0,-.1,0,792)" stroke-width="1" stroke-linecap="butt" stroke-miterlimit="10" stroke-linejoin="miter" fill="none" stroke="#000000" d="M3210.7 1571 2503.6 863.898 2762.4-102 3469.5 605.102Z"/>
<path transform="matrix(.1,0,0,-.1,0,792)" d="M830.602 3244.1 571.699 4210-394.199 3951.2-135.398 2985.3Z" fill="#ffffff"/>
<path transform="matrix(.1,0,0,-.1,0,792)" stroke-width="1" stroke-linecap="butt" stroke-miterlimit="10" stroke-linejoin="miter" fill="none" stroke="#000000" d="M830.602 3244.1 571.699 4210-394.199 3951.2-135.398 2985.3Z"/>
<path transform="matrix(.1,0,0,-.1,0,792)" d="M830.602 1312.2 123.5 605.102 830.602-102 1537.7 605.102Z" fill="#ffffff"/>
<path transform="matrix(.1,0,0,-.1,0,792)" stroke-width="1" stroke-linecap="butt" stroke-miterlimit="10" stroke-linejoin="miter" fill="none" stroke="#000000" d="M830.602 1312.2 123.5 605.102 830.602-102 1537.7 605.102Z"/>
<path transform="matrix(.1,0,0,-.1,0,792)" d="M830.602 1312.2 571.699 2278.1-135.398 1571 123.5 605.102Z"/>
<path transform="matrix(.1,0,0,-.1,0,792)" stroke-width="1" stroke-linecap="butt" stroke-miterlimit="10" stroke-linejoin="miter" fill="none" stroke="#000000" d="M830.602 1312.2 571.699 2278.1-135.398 1571 123.5 605.102Z"/>
<path transform="matrix(.1,0,0,-.1,0,792)" d="M5142.6 1571 5849.7 863.898 6815.6 1122.8 6108.5 1829.9Z"/>
<path transform="matrix(.1,0,0,-.1,0,792)" stroke-width="1" stroke-linecap="butt" stroke-miterlimit="10" stroke-linejoin="miter" fill="none" stroke="#000000" d="M5142.6 1571 5849.7 863.898 6815.6 1122.8 6108.5 1829.9Z"/>
<path transform="matrix(.1,0,0,-.1,0,792)" d="M5142.6 1571 4435.4 863.898 5142.6 156.801 5849.7 863.898Z" fill="#ffffff"/>
<path transform="matrix(.1,0,0,-.1,0,792)" stroke-width="1" stroke-linecap="butt" stroke-miterlimit="10" stroke-linejoin="miter" fill="none" stroke="#000000" d="M5142.6 1571 4435.4 863.898 5142.6 156.801 5849.7 863.898Z"/>
<path transform="matrix(.1,0,0,-.1,0,792)" d="M5142.6 3502.9 5849.7 2795.8 6556.8 3502.9 5849.7 4210Z" fill="#ffffff"/>
<path transform="matrix(.1,0,0,-.1,0,792)" stroke-width="1" stroke-linecap="butt" stroke-miterlimit="10" stroke-linejoin="miter" fill="none" stroke="#000000" d="M5142.6 3502.9 5849.7 2795.8 6556.8 3502.9 5849.7 4210Z"/>
<path transform="matrix(.1,0,0,-.1,0,792)" d="M571.699 5624.2 312.898 6590.1-394.199 5883-135.398 4917.1Z"/>
<path transform="matrix(.1,0,0,-.1,0,792)" stroke-width="1" stroke-linecap="butt" stroke-miterlimit="10" stroke-linejoin="miter" fill="none" stroke="#000000" d="M571.699 5624.2 312.898 6590.1-394.199 5883-135.398 4917.1Z"/>
<path transform="matrix(.1,0,0,-.1,0,792)" d="M571.699 4210-135.398 4917.1-1101.3 4658.3-394.199 3951.2Z"/>
<path transform="matrix(.1,0,0,-.1,0,792)" stroke-width="1" stroke-linecap="butt" stroke-miterlimit="10" stroke-linejoin="miter" fill="none" stroke="#000000" d="M571.699 4210-135.398 4917.1-1101.3 4658.3-394.199 3951.2Z"/>
<path transform="matrix(.1,0,0,-.1,0,792)" d="M571.699 2278.1-135.398 2985.3-842.5 2278.1-135.398 1571Z" fill="#ffffff"/>
<path transform="matrix(.1,0,0,-.1,0,792)" stroke-width="1" stroke-linecap="butt" stroke-miterlimit="10" stroke-linejoin="miter" fill="none" stroke="#000000" d="M571.699 2278.1-135.398 2985.3-842.5 2278.1-135.398 1571Z"/>
<path transform="matrix(.1,0,0,-.1,0,792)" d="M2503.6 863.898 1537.7 605.102 1796.5-360.801 2762.4-102Z" fill="#ffffff"/>
<path transform="matrix(.1,0,0,-.1,0,792)" stroke-width="1" stroke-linecap="butt" stroke-miterlimit="10" stroke-linejoin="miter" fill="none" stroke="#000000" d="M2503.6 863.898 1537.7 605.102 1796.5-360.801 2762.4-102Z"/>
<path transform="matrix(.1,0,0,-.1,0,792)" d="M4435.4 863.898 3469.5 605.102 4176.6-102 5142.6 156.801Z"/>
<path transform="matrix(.1,0,0,-.1,0,792)" stroke-width="1" stroke-linecap="butt" stroke-miterlimit="10" stroke-linejoin="miter" fill="none" stroke="#000000" d="M4435.4 863.898 3469.5 605.102 4176.6-102 5142.6 156.801Z"/>
<path transform="matrix(.1,0,0,-.1,0,792)" d="M3917.8 7556.1 4883.7 7814.9 4624.9 8780.8 3659 8522Z" fill="#ffffff"/>
<path transform="matrix(.1,0,0,-.1,0,792)" stroke-width="1" stroke-linecap="butt" stroke-miterlimit="10" stroke-linejoin="miter" fill="none" stroke="#000000" d="M3917.8 7556.1 4883.7 7814.9 4624.9 8780.8 3659 8522Z"/>
<path transform="matrix(.1,0,0,-.1,0,792)" d="M1986 7556.1 2951.9 7814.9 2244.8 8522 1278.9 8263.2Z"/>
<path transform="matrix(.1,0,0,-.1,0,792)" stroke-width="1" stroke-linecap="butt" stroke-miterlimit="10" stroke-linejoin="miter" fill="none" stroke="#000000" d="M1986 7556.1 2951.9 7814.9 2244.8 8522 1278.9 8263.2Z"/>
<path transform="matrix(.1,0,0,-.1,0,792)" d="M571.699 7556.1 312.898 8522-653 8263.2-394.199 7297.2Z" fill="#ffffff"/>
<path transform="matrix(.1,0,0,-.1,0,792)" stroke-width="1" stroke-linecap="butt" stroke-miterlimit="10" stroke-linejoin="miter" fill="none" stroke="#000000" d="M571.699 7556.1 312.898 8522-653 8263.2-394.199 7297.2Z"/>
<path transform="matrix(.1,0,0,-.1,0,792)" d="M571.699 7556.1 1278.9 8263.2 1020 9229.1 312.898 8522Z"/>
<path transform="matrix(.1,0,0,-.1,0,792)" stroke-width="1" stroke-linecap="butt" stroke-miterlimit="10" stroke-linejoin="miter" fill="none" stroke="#000000" d="M571.699 7556.1 1278.9 8263.2 1020 9229.1 312.898 8522Z"/>
<path transform="matrix(.1,0,0,-.1,0,792)" d="M5590.8 5175.9 5849.7 4210 6815.6 4468.8 6556.8 5434.7Z" fill="#ffffff"/>
<path transform="matrix(.1,0,0,-.1,0,792)" stroke-width="1" stroke-linecap="butt" stroke-miterlimit="10" stroke-linejoin="miter" fill="none" stroke="#000000" d="M5590.8 5175.9 5849.7 4210 6815.6 4468.8 6556.8 5434.7Z"/>
<path transform="matrix(.1,0,0,-.1,0,792)" d="M5590.8 7107.8 6297.9 7814.9 5590.8 8522 4883.7 7814.9Z" fill="#ffffff"/>
<path transform="matrix(.1,0,0,-.1,0,792)" stroke-width="1" stroke-linecap="butt" stroke-miterlimit="10" stroke-linejoin="miter" fill="none" stroke="#000000" d="M5590.8 7107.8 6297.9 7814.9 5590.8 8522 4883.7 7814.9Z"/>
<path transform="matrix(.1,0,0,-.1,0,792)" d="M5590.8 7107.8 5849.7 6141.9 6556.8 6849 6297.9 7814.9Z"/>
<path transform="matrix(.1,0,0,-.1,0,792)" stroke-width="1" stroke-linecap="butt" stroke-miterlimit="10" stroke-linejoin="miter" fill="none" stroke="#000000" d="M5590.8 7107.8 5849.7 6141.9 6556.8 6849 6297.9 7814.9Z"/>
<path transform="matrix(.1,0,0,-.1,0,792)" d="M4883.7 7814.9 5590.8 8522 5332 9487.9 4624.9 8780.8Z"/>
<path transform="matrix(.1,0,0,-.1,0,792)" stroke-width="1" stroke-linecap="butt" stroke-miterlimit="10" stroke-linejoin="miter" fill="none" stroke="#000000" d="M4883.7 7814.9 5590.8 8522 5332 9487.9 4624.9 8780.8Z"/>
<path transform="matrix(.1,0,0,-.1,0,792)" d="M2951.9 7814.9 3659 8522 2951.9 9229.1 2244.8 8522Z" fill="#ffffff"/>
<path transform="matrix(.1,0,0,-.1,0,792)" stroke-width="1" stroke-linecap="butt" stroke-miterlimit="10" stroke-linejoin="miter" fill="none" stroke="#000000" d="M2951.9 7814.9 3659 8522 2951.9 9229.1 2244.8 8522Z"/>
<path transform="matrix(.1,0,0,-.1,0,792)" d="M1537.7 605.102 830.602-102 1089.4-1067.9 1796.5-360.801Z"/>
<path transform="matrix(.1,0,0,-.1,0,792)" stroke-width="1" stroke-linecap="butt" stroke-miterlimit="10" stroke-linejoin="miter" fill="none" stroke="#000000" d="M1537.7 605.102 830.602-102 1089.4-1067.9 1796.5-360.801Z"/>
<path transform="matrix(.1,0,0,-.1,0,792)" d="M3469.5 605.102 2762.4-102 3469.5-809.102 4176.6-102Z" fill="#ffffff"/>
<path transform="matrix(.1,0,0,-.1,0,792)" stroke-width="1" stroke-linecap="butt" stroke-miterlimit="10" stroke-linejoin="miter" fill="none" stroke="#000000" d="M3469.5 605.102 2762.4-102 3469.5-809.102 4176.6-102Z"/>
<path transform="matrix(.1,0,0,-.1,0,792)" d="M312.898 6590.1-394.199 7297.2-1101.3 6590.1-394.199 5883Z" fill="#ffffff"/>
<path transform="matrix(.1,0,0,-.1,0,792)" stroke-width="1" stroke-linecap="butt" stroke-miterlimit="10" stroke-linejoin="miter" fill="none" stroke="#000000" d="M312.898 6590.1-394.199 7297.2-1101.3 6590.1-394.199 5883Z"/>
<path transform="matrix(.1,0,0,-.1,0,792)" d="M123.5 605.102-842.5 346.301-135.398-360.801 830.602-102Z"/>
<path transform="matrix(.1,0,0,-.1,0,792)" stroke-width="1" stroke-linecap="butt" stroke-miterlimit="10" stroke-linejoin="miter" fill="none" stroke="#000000" d="M123.5 605.102-842.5 346.301-135.398-360.801 830.602-102Z"/>
<path transform="matrix(.1,0,0,-.1,0,792)" d="M123.5 605.102-135.398 1571-1101.3 1312.2-842.5 346.301Z" fill="#ffffff"/>
<path transform="matrix(.1,0,0,-.1,0,792)" stroke-width="1" stroke-linecap="butt" stroke-miterlimit="10" stroke-linejoin="miter" fill="none" stroke="#000000" d="M123.5 605.102-135.398 1571-1101.3 1312.2-842.5 346.301Z"/>
<path transform="matrix(.1,0,0,-.1,0,792)" d="M5849.7 863.898 6108.5-102 7074.4 156.801 6815.6 1122.8Z" fill="#ffffff"/>
<path transform="matrix(.1,0,0,-.1,0,792)" stroke-width="1" stroke-linecap="butt" stroke-miterlimit="10" stroke-linejoin="miter" fill="none" stroke="#000000" d="M5849.7 863.898 6108.5-102 7074.4 156.801 6815.6 1122.8Z"/>
<path transform="matrix(.1,0,0,-.1,0,792)" d="M5849.7 863.898 5142.6 156.801 5401.4-809.102 6108.5-102Z"/>
<path transform="matrix(.1,0,0,-.1,0,792)" stroke-width="1" stroke-linecap="butt" stroke-miterlimit="10" stroke-linejoin="miter" fill="none" stroke="#000000" d="M5849.7 863.898 5142.6 156.801 5401.4-809.102 6108.5-102Z"/>
<path transform="matrix(.1,0,0,-.1,0,792)" d="M5849.7 2795.8 6108.5 1829.9 6815.6 2537 6556.8 3502.9Z"/>
<path transform="matrix(.1,0,0,-.1,0,792)" stroke-width="1" stroke-linecap="butt" stroke-miterlimit="10" stroke-linejoin="miter" fill="none" stroke="#000000" d="M5849.7 2795.8 6108.5 1829.9 6815.6 2537 6556.8 3502.9Z"/>
<path transform="matrix(.1,0,0,-.1,0,792)" d="M5849.7 4210 6556.8 3502.9 7522.7 3761.7 6815.6 4468.8Z"/>
<path transform="matrix(.1,0,0,-.1,0,792)" stroke-width="1" stroke-linecap="butt" stroke-miterlimit="10" stroke-linejoin="miter" fill="none" stroke="#000000" d="M5849.7 4210 6556.8 3502.9 7522.7 3761.7 6815.6 4468.8Z"/>
<path transform="matrix(.1,0,0,-.1,0,792)" d="M5849.7 6141.9 6556.8 5434.7 7263.9 6141.9 6556.8 6849Z" fill="#ffffff"/>
<path transform="matrix(.1,0,0,-.1,0,792)" stroke-width="1" stroke-linecap="butt" stroke-miterlimit="10" stroke-linejoin="miter" fill="none" stroke="#000000" d="M5849.7 6141.9 6556.8 5434.7 7263.9 6141.9 6556.8 6849Z"/>
<path transform="matrix(.1,0,0,-.1,0,792)" d="M5142.6 156.801 4176.6-102 4435.4-1067.9 5401.4-809.102Z" fill="#ffffff"/>
<path transform="matrix(.1,0,0,-.1,0,792)" stroke-width="1" stroke-linecap="butt" stroke-miterlimit="10" stroke-linejoin="miter" fill="none" stroke="#000000" d="M5142.6 156.801 4176.6-102 4435.4-1067.9 5401.4-809.102Z"/>
<path transform="matrix(.1,0,0,-.1,0,792)" d="M5590.8 8522 6297.9 7814.9 7263.9 8073.7 6556.8 8780.8Z"/>
<path transform="matrix(.1,0,0,-.1,0,792)" stroke-width="1" stroke-linecap="butt" stroke-miterlimit="10" stroke-linejoin="miter" fill="none" stroke="#000000" d="M5590.8 8522 6297.9 7814.9 7263.9 8073.7 6556.8 8780.8Z"/>
<path transform="matrix(.1,0,0,-.1,0,792)" d="M6108.5-102 6815.6-809.102 7781.5-550.301 7074.4 156.801Z"/>
<path transform="matrix(.1,0,0,-.1,0,792)" stroke-width="1" stroke-linecap="butt" stroke-miterlimit="10" stroke-linejoin="miter" fill="none" stroke="#000000" d="M6108.5-102 6815.6-809.102 7781.5-550.301 7074.4 156.801Z"/>
<path transform="matrix(.1,0,0,-.1,0,792)" d="M6108.5 1829.9 6815.6 1122.8 7522.7 1829.9 6815.6 2537Z" fill="#ffffff"/>
<path transform="matrix(.1,0,0,-.1,0,792)" stroke-width="1" stroke-linecap="butt" stroke-miterlimit="10" stroke-linejoin="miter" fill="none" stroke="#000000" d="M6108.5 1829.9 6815.6 1122.8 7522.7 1829.9 6815.6 2537Z"/>
</svg>
