<svg xmlns="http://www.w3.org/2000/svg" xmlns:xlink="http://www.w3.org/1999/xlink" xmlns:inkscape="http://www.inkscape.org/namespaces/inkscape" version="1.1" width="612" height="792" viewBox="0 0 612 792">
<path transform="matrix(.1,0,0,-.1,0,792)" d="M2975 2628.3 3333.7 2805.2 3732.9 2831.4 3955.1 3164 4287.7 3386.2 4313.9 3785.3 4490.8 4144.1 4313.9 4502.8 4287.7 4902 3955.1 5124.2 3732.9 5456.8 3333.7 5483 2975 5659.9 2616.3 5483 2217.1 5456.8 1994.9 5124.2 1662.3 4902 1636.1 4502.8 1459.2 4144.1 1636.1 3785.3 1662.3 3386.2 1994.9 3164 2217.1 2831.4 2616.3 2805.2" fill="#823d24"/>
<path transform="matrix(.1,0,0,-.1,0,792)" stroke-width="20" stroke-linecap="butt" stroke-miterlimit="10" stroke-linejoin="miter" fill="none" stroke="#000000" d="M2975 2628.3 3333.7 2805.2 3732.9 2831.4 3955.1 3164 4287.7 3386.2 4313.9 3785.3 4490.8 4144.1 4313.9 4502.8 4287.7 4902 3955.1 5124.2 3732.9 5456.8 3333.7 5483 2975 5659.9 2616.3 5483 2217.1 5456.8 1994.9 5124.2 1662.3 4902 1636.1 4502.8 1459.2 4144.1 1636.1 3785.3 1662.3 3386.2 1994.9 3164 2217.1 2831.4 2616.3 2805.2Z"/>
<path transform="matrix(.1,0,0,-.1,0,792)" d="M3732.9 5456.8 3374.1 5633.7 2975 5659.9 3333.7 5483Z" fill="#000099"/>
<path transform="matrix(.1,0,0,-.1,0,792)" stroke-width="20" stroke-linecap="butt" stroke-miterlimit="10" stroke-linejoin="miter" fill="none" stroke="#000000" d="M3732.9 5456.8 3374.1 5633.7 2975 5659.9 3333.7 5483Z"/>
<path transform="matrix(.1,0,0,-.1,0,792)" d="M3732.9 5456.8 3556 5815.6 3529.8 6214.7 3307.6 5882.1 2975 5659.9 3374.1 5633.7" fill="#edd6bf"/>
<path transform="matrix(.1,0,0,-.1,0,792)" stroke-width="20" stroke-linecap="butt" stroke-miterlimit="10" stroke-linejoin="miter" fill="none" stroke="#000000" d="M3732.9 5456.8 3556 5815.6 3529.8 6214.7 3307.6 5882.1 2975 5659.9 3374.1 5633.7Z"/>
<path transform="matrix(.1,0,0,-.1,0,792)" d="M3732.9 5456.8 3706.7 5855.9 3529.8 6214.7 3556 5815.6Z" fill="#000099"/>
<path transform="matrix(.1,0,0,-.1,0,792)" stroke-width="20" stroke-linecap="butt" stroke-miterlimit="10" stroke-linejoin="miter" fill="none" stroke="#000000" d="M3732.9 5456.8 3706.7 5855.9 3529.8 6214.7 3556 5815.6Z"/>
<path transform="matrix(.1,0,0,-.1,0,792)" d="M3732.9 5456.8 4065.5 5234.6 4287.7 4902 4686.9 4875.8 5045.6 4698.9 5404.4 4875.8 5803.5 4902 6025.7 5234.6 6358.3 5456.8 6384.5 5855.9 6561.4 6214.7 6384.5 6573.4 6358.3 6972.6 6025.7 7194.8 5803.5 7527.4 5404.4 7553.6 5045.6 7730.5 4686.9 7553.6 4287.7 7527.4 4065.5 7194.8 3732.9 6972.6 3706.7 6573.4 3529.8 6214.7 3706.7 5855.9" fill="#823d24"/>
<path transform="matrix(.1,0,0,-.1,0,792)" stroke-width="20" stroke-linecap="butt" stroke-miterlimit="10" stroke-linejoin="miter" fill="none" stroke="#000000" d="M3732.9 5456.8 4065.5 5234.6 4287.7 4902 4686.9 4875.8 5045.6 4698.9 5404.4 4875.8 5803.5 4902 6025.7 5234.6 6358.3 5456.8 6384.5 5855.9 6561.4 6214.7 6384.5 6573.4 6358.3 6972.6 6025.7 7194.8 5803.5 7527.4 5404.4 7553.6 5045.6 7730.5 4686.9 7553.6 4287.7 7527.4 4065.5 7194.8 3732.9 6972.6 3706.7 6573.4 3529.8 6214.7 3706.7 5855.9Z"/>
<path transform="matrix(.1,0,0,-.1,0,792)" d="M3732.9 5456.8 3955.1 5124.2 4287.7 4902 4065.5 5234.6Z" fill="#1a4d80"/>
<path transform="matrix(.1,0,0,-.1,0,792)" stroke-width="20" stroke-linecap="butt" stroke-miterlimit="10" stroke-linejoin="miter" fill="none" stroke="#000000" d="M3732.9 5456.8 3955.1 5124.2 4287.7 4902 4065.5 5234.6Z"/>
<path transform="matrix(.1,0,0,-.1,0,792)" d="M2217.1 5456.8 1884.5 5234.6 1662.3 4902 1994.9 5124.2Z" fill="#000099"/>
<path transform="matrix(.1,0,0,-.1,0,792)" stroke-width="20" stroke-linecap="butt" stroke-miterlimit="10" stroke-linejoin="miter" fill="none" stroke="#000000" d="M2217.1 5456.8 1884.5 5234.6 1662.3 4902 1994.9 5124.2Z"/>
<path transform="matrix(.1,0,0,-.1,0,792)" d="M2217.1 5456.8 1818 5483 1459.2 5659.9 1636.1 5301.1 1662.3 4902 1884.5 5234.6" fill="#edd6bf"/>
<path transform="matrix(.1,0,0,-.1,0,792)" stroke-width="20" stroke-linecap="butt" stroke-miterlimit="10" stroke-linejoin="miter" fill="none" stroke="#000000" d="M2217.1 5456.8 1818 5483 1459.2 5659.9 1636.1 5301.1 1662.3 4902 1884.5 5234.6Z"/>
<path transform="matrix(.1,0,0,-.1,0,792)" d="M2217.1 5456.8 1858.4 5633.7 1459.2 5659.9 1818 5483Z" fill="#000099"/>
<path transform="matrix(.1,0,0,-.1,0,792)" stroke-width="20" stroke-linecap="butt" stroke-miterlimit="10" stroke-linejoin="miter" fill="none" stroke="#000000" d="M2217.1 5456.8 1858.4 5633.7 1459.2 5659.9 1818 5483Z"/>
<path transform="matrix(.1,0,0,-.1,0,792)" d="M2217.1 5456.8 2575.9 5633.7 2975 5659.9 3197.2 5992.5 3529.8 6214.7 3556 6613.8 3732.9 6972.6 3556 7331.3 3529.8 7730.5 3197.2 7952.7 2975 8285.3 2575.9 8311.5 2217.1 8488.4 1858.4 8311.5 1459.2 8285.3 1237 7952.7 904.398 7730.5 878.199 7331.3 701.301 6972.6 878.199 6613.8 904.398 6214.7 1237 5992.5 1459.2 5659.9 1858.4 5633.7" fill="#823d24"/>
<path transform="matrix(.1,0,0,-.1,0,792)" stroke-width="20" stroke-linecap="butt" stroke-miterlimit="10" stroke-linejoin="miter" fill="none" stroke="#000000" d="M2217.1 5456.8 2575.9 5633.7 2975 5659.9 3197.2 5992.5 3529.8 6214.7 3556 6613.8 3732.9 6972.6 3556 7331.3 3529.8 7730.5 3197.2 7952.7 2975 8285.3 2575.9 8311.5 2217.1 8488.4 1858.4 8311.5 1459.2 8285.3 1237 7952.7 904.398 7730.5 878.199 7331.3 701.301 6972.6 878.199 6613.8 904.398 6214.7 1237 5992.5 1459.2 5659.9 1858.4 5633.7Z"/>
<path transform="matrix(.1,0,0,-.1,0,792)" d="M2217.1 5456.8 2616.3 5483 2975 5659.9 2575.9 5633.7Z" fill="#1a4d80"/>
<path transform="matrix(.1,0,0,-.1,0,792)" stroke-width="20" stroke-linecap="butt" stroke-miterlimit="10" stroke-linejoin="miter" fill="none" stroke="#000000" d="M2217.1 5456.8 2616.3 5483 2975 5659.9 2575.9 5633.7Z"/>
<path transform="matrix(.1,0,0,-.1,0,792)" d="M1994.9 3164 1662.3 3386.2 1884.5 3053.6 2217.1 2831.4Z" fill="#1a4d80"/>
<path transform="matrix(.1,0,0,-.1,0,792)" stroke-width="20" stroke-linecap="butt" stroke-miterlimit="10" stroke-linejoin="miter" fill="none" stroke="#000000" d="M1994.9 3164 1662.3 3386.2 1884.5 3053.6 2217.1 2831.4Z"/>
<path transform="matrix(.1,0,0,-.1,0,792)" d="M3955.1 3164 3732.9 2831.4 4065.5 3053.6 4287.7 3386.2Z" fill="#000099"/>
<path transform="matrix(.1,0,0,-.1,0,792)" stroke-width="20" stroke-linecap="butt" stroke-miterlimit="10" stroke-linejoin="miter" fill="none" stroke="#000000" d="M3955.1 3164 3732.9 2831.4 4065.5 3053.6 4287.7 3386.2Z"/>
<path transform="matrix(.1,0,0,-.1,0,792)" d="M3732.9 2831.4 4132 2805.2 4490.8 2628.3 4313.9 2987.1 4287.7 3386.2 4065.5 3053.6" fill="#edd6bf"/>
<path transform="matrix(.1,0,0,-.1,0,792)" stroke-width="20" stroke-linecap="butt" stroke-miterlimit="10" stroke-linejoin="miter" fill="none" stroke="#000000" d="M3732.9 2831.4 4132 2805.2 4490.8 2628.3 4313.9 2987.1 4287.7 3386.2 4065.5 3053.6Z"/>
<path transform="matrix(.1,0,0,-.1,0,792)" d="M3732.9 2831.4 4091.6 2654.5 4490.8 2628.3 4132 2805.2Z" fill="#000099"/>
<path transform="matrix(.1,0,0,-.1,0,792)" stroke-width="20" stroke-linecap="butt" stroke-miterlimit="10" stroke-linejoin="miter" fill="none" stroke="#000000" d="M3732.9 2831.4 4091.6 2654.5 4490.8 2628.3 4132 2805.2Z"/>
<path transform="matrix(.1,0,0,-.1,0,792)" d="M3732.9 2831.4 3374.1 2654.5 2975 2628.3 2752.8 2295.7 2420.2 2073.5 2394 1674.4 2217.1 1315.6 2394 956.898 2420.2 557.699 2752.8 335.5 2975 2.89844 3374.1-23.3008 3732.9-200.199 4091.6-23.3008 4490.8 2.89844 4713 335.5 5045.6 557.699 5071.8 956.898 5248.7 1315.6 5071.8 1674.4 5045.6 2073.5 4713 2295.7 4490.8 2628.3 4091.6 2654.5" fill="#823d24"/>
<path transform="matrix(.1,0,0,-.1,0,792)" stroke-width="20" stroke-linecap="butt" stroke-miterlimit="10" stroke-linejoin="miter" fill="none" stroke="#000000" d="M3732.9 2831.4 3374.1 2654.5 2975 2628.3 2752.8 2295.7 2420.2 2073.5 2394 1674.4 2217.1 1315.6 2394 956.898 2420.2 557.699 2752.8 335.5 2975 2.89844 3374.1-23.3008 3732.9-200.199 4091.6-23.3008 4490.8 2.89844 4713 335.5 5045.6 557.699 5071.8 956.898 5248.7 1315.6 5071.8 1674.4 5045.6 2073.5 4713 2295.7 4490.8 2628.3 4091.6 2654.5Z"/>
<path transform="matrix(.1,0,0,-.1,0,792)" d="M3732.9 2831.4 3333.7 2805.2 2975 2628.3 3374.1 2654.5Z" fill="#1a4d80"/>
<path transform="matrix(.1,0,0,-.1,0,792)" stroke-width="20" stroke-linecap="butt" stroke-miterlimit="10" stroke-linejoin="miter" fill="none" stroke="#000000" d="M3732.9 2831.4 3333.7 2805.2 2975 2628.3 3374.1 2654.5Z"/>
<path transform="matrix(.1,0,0,-.1,0,792)" d="M2217.1 2831.4 2575.9 2654.5 2975 2628.3 2616.3 2805.2Z" fill="#000099"/>
<path transform="matrix(.1,0,0,-.1,0,792)" stroke-width="20" stroke-linecap="butt" stroke-miterlimit="10" stroke-linejoin="miter" fill="none" stroke="#000000" d="M2217.1 2831.4 2575.9 2654.5 2975 2628.3 2616.3 2805.2Z"/>
<path transform="matrix(.1,0,0,-.1,0,792)" d="M2217.1 2831.4 2394 2472.6 2420.2 2073.5 2642.4 2406.1 2975 2628.3 2575.9 2654.5" fill="#edd6bf"/>
<path transform="matrix(.1,0,0,-.1,0,792)" stroke-width="20" stroke-linecap="butt" stroke-miterlimit="10" stroke-linejoin="miter" fill="none" stroke="#000000" d="M2217.1 2831.4 2394 2472.6 2420.2 2073.5 2642.4 2406.1 2975 2628.3 2575.9 2654.5Z"/>
<path transform="matrix(.1,0,0,-.1,0,792)" d="M2217.1 2831.4 2243.3 2432.2 2420.2 2073.5 2394 2472.6Z" fill="#000099"/>
<path transform="matrix(.1,0,0,-.1,0,792)" stroke-width="20" stroke-linecap="butt" stroke-miterlimit="10" stroke-linejoin="miter" fill="none" stroke="#000000" d="M2217.1 2831.4 2243.3 2432.2 2420.2 2073.5 2394 2472.6Z"/>
<path transform="matrix(.1,0,0,-.1,0,792)" d="M2217.1 2831.4 1884.5 3053.6 1662.3 3386.2 1263.1 3412.4 904.398 3589.3 545.602 3412.4 146.5 3386.2-75.6992 3053.6-408.301 2831.4-434.5 2432.2-611.398 2073.5-434.5 1714.7-408.301 1315.6-75.6992 1093.4 146.5 760.801 545.602 734.602 904.398 557.699 1263.1 734.602 1662.3 760.801 1884.5 1093.4 2217.1 1315.6 2243.3 1714.7 2420.2 2073.5 2243.3 2432.2" fill="#823d24"/>
<path transform="matrix(.1,0,0,-.1,0,792)" stroke-width="20" stroke-linecap="butt" stroke-miterlimit="10" stroke-linejoin="miter" fill="none" stroke="#000000" d="M2217.1 2831.4 1884.5 3053.6 1662.3 3386.2 1263.1 3412.4 904.398 3589.3 545.602 3412.4 146.5 3386.2-75.6992 3053.6-408.301 2831.4-434.5 2432.2-611.398 2073.5-434.5 1714.7-408.301 1315.6-75.6992 1093.4 146.5 760.801 545.602 734.602 904.398 557.699 1263.1 734.602 1662.3 760.801 1884.5 1093.4 2217.1 1315.6 2243.3 1714.7 2420.2 2073.5 2243.3 2432.2Z"/>
<path transform="matrix(.1,0,0,-.1,0,792)" d="M2975 5659.9 3307.6 5882.1 3529.8 6214.7 3197.2 5992.5Z" fill="#000099"/>
<path transform="matrix(.1,0,0,-.1,0,792)" stroke-width="20" stroke-linecap="butt" stroke-miterlimit="10" stroke-linejoin="miter" fill="none" stroke="#000000" d="M2975 5659.9 3307.6 5882.1 3529.8 6214.7 3197.2 5992.5Z"/>
<path transform="matrix(.1,0,0,-.1,0,792)" d="M2975 2628.3 2642.4 2406.1 2420.2 2073.5 2752.8 2295.7Z" fill="#000099"/>
<path transform="matrix(.1,0,0,-.1,0,792)" stroke-width="20" stroke-linecap="butt" stroke-miterlimit="10" stroke-linejoin="miter" fill="none" stroke="#000000" d="M2975 2628.3 2642.4 2406.1 2420.2 2073.5 2752.8 2295.7Z"/>
<path transform="matrix(.1,0,0,-.1,0,792)" d="M4287.7 3386.2 4464.6 3745 4490.8 4144.1 4313.9 3785.3Z" fill="#1a4d80"/>
<path transform="matrix(.1,0,0,-.1,0,792)" stroke-width="20" stroke-linecap="butt" stroke-miterlimit="10" stroke-linejoin="miter" fill="none" stroke="#000000" d="M4287.7 3386.2 4464.6 3745 4490.8 4144.1 4313.9 3785.3Z"/>
<path transform="matrix(.1,0,0,-.1,0,792)" d="M4287.7 3386.2 4464.6 3027.5 4490.8 2628.3 4823.4 2406.1 5045.6 2073.5 5444.7 2047.3 5803.5 1870.4 6162.2 2047.3 6561.4 2073.5 6783.6 2406.1 7116.2 2628.3 7142.4 3027.5 7319.3 3386.2 7142.4 3745 7116.2 4144.1 6783.6 4366.3 6561.4 4698.9 6162.2 4725.1 5803.5 4902 5444.7 4725.1 5045.6 4698.9 4823.4 4366.3 4490.8 4144.1 4464.6 3745" fill="#823d24"/>
<path transform="matrix(.1,0,0,-.1,0,792)" stroke-width="20" stroke-linecap="butt" stroke-miterlimit="10" stroke-linejoin="miter" fill="none" stroke="#000000" d="M4287.7 3386.2 4464.6 3027.5 4490.8 2628.3 4823.4 2406.1 5045.6 2073.5 5444.7 2047.3 5803.5 1870.4 6162.2 2047.3 6561.4 2073.5 6783.6 2406.1 7116.2 2628.3 7142.4 3027.5 7319.3 3386.2 7142.4 3745 7116.2 4144.1 6783.6 4366.3 6561.4 4698.9 6162.2 4725.1 5803.5 4902 5444.7 4725.1 5045.6 4698.9 4823.4 4366.3 4490.8 4144.1 4464.6 3745Z"/>
<path transform="matrix(.1,0,0,-.1,0,792)" d="M4287.7 3386.2 4313.9 2987.1 4490.8 2628.3 4464.6 3027.5Z" fill="#000099"/>
<path transform="matrix(.1,0,0,-.1,0,792)" stroke-width="20" stroke-linecap="butt" stroke-miterlimit="10" stroke-linejoin="miter" fill="none" stroke="#000000" d="M4287.7 3386.2 4313.9 2987.1 4490.8 2628.3 4464.6 3027.5Z"/>
<path transform="matrix(.1,0,0,-.1,0,792)" d="M4287.7 4902 4646.5 4725.1 5045.6 4698.9 4686.9 4875.8Z" fill="#000099"/>
<path transform="matrix(.1,0,0,-.1,0,792)" stroke-width="20" stroke-linecap="butt" stroke-miterlimit="10" stroke-linejoin="miter" fill="none" stroke="#000000" d="M4287.7 4902 4646.5 4725.1 5045.6 4698.9 4686.9 4875.8Z"/>
<path transform="matrix(.1,0,0,-.1,0,792)" d="M4287.7 4902 4464.6 4543.2 4490.8 4144.1 4713 4476.7 5045.6 4698.9 4646.5 4725.1" fill="#edd6bf"/>
<path transform="matrix(.1,0,0,-.1,0,792)" stroke-width="20" stroke-linecap="butt" stroke-miterlimit="10" stroke-linejoin="miter" fill="none" stroke="#000000" d="M4287.7 4902 4464.6 4543.2 4490.8 4144.1 4713 4476.7 5045.6 4698.9 4646.5 4725.1Z"/>
<path transform="matrix(.1,0,0,-.1,0,792)" d="M4287.7 4902 4313.9 4502.8 4490.8 4144.1 4464.6 4543.2Z" fill="#000099"/>
<path transform="matrix(.1,0,0,-.1,0,792)" stroke-width="20" stroke-linecap="butt" stroke-miterlimit="10" stroke-linejoin="miter" fill="none" stroke="#000000" d="M4287.7 4902 4313.9 4502.8 4490.8 4144.1 4464.6 4543.2Z"/>
<path transform="matrix(.1,0,0,-.1,0,792)" d="M1662.3 4902 1485.4 4543.2 1459.2 4144.1 1636.1 4502.8Z" fill="#1a4d80"/>
<path transform="matrix(.1,0,0,-.1,0,792)" stroke-width="20" stroke-linecap="butt" stroke-miterlimit="10" stroke-linejoin="miter" fill="none" stroke="#000000" d="M1662.3 4902 1485.4 4543.2 1459.2 4144.1 1636.1 4502.8Z"/>
<path transform="matrix(.1,0,0,-.1,0,792)" d="M1662.3 4902 1485.4 5260.7 1459.2 5659.9 1126.6 5882.1 904.398 6214.7 505.301 6240.9 146.5 6417.8-212.199 6240.9-611.398 6214.7-833.602 5882.1-1166.2 5659.9-1192.4 5260.7-1369.3 4902-1192.4 4543.2-1166.2 4144.1-833.602 3921.9-611.398 3589.3-212.199 3563.1 146.5 3386.2 505.301 3563.1 904.398 3589.3 1126.6 3921.9 1459.2 4144.1 1485.4 4543.2" fill="#823d24"/>
<path transform="matrix(.1,0,0,-.1,0,792)" stroke-width="20" stroke-linecap="butt" stroke-miterlimit="10" stroke-linejoin="miter" fill="none" stroke="#000000" d="M1662.3 4902 1485.4 5260.7 1459.2 5659.9 1126.6 5882.1 904.398 6214.7 505.301 6240.9 146.5 6417.8-212.199 6240.9-611.398 6214.7-833.602 5882.1-1166.2 5659.9-1192.4 5260.7-1369.3 4902-1192.4 4543.2-1166.2 4144.1-833.602 3921.9-611.398 3589.3-212.199 3563.1 146.5 3386.2 505.301 3563.1 904.398 3589.3 1126.6 3921.9 1459.2 4144.1 1485.4 4543.2Z"/>
<path transform="matrix(.1,0,0,-.1,0,792)" d="M1662.3 4902 1636.1 5301.1 1459.2 5659.9 1485.4 5260.7Z" fill="#000099"/>
<path transform="matrix(.1,0,0,-.1,0,792)" stroke-width="20" stroke-linecap="butt" stroke-miterlimit="10" stroke-linejoin="miter" fill="none" stroke="#000000" d="M1662.3 4902 1636.1 5301.1 1459.2 5659.9 1485.4 5260.7Z"/>
<path transform="matrix(.1,0,0,-.1,0,792)" d="M1662.3 3386.2 1303.5 3563.1 904.398 3589.3 1263.1 3412.4Z" fill="#000099"/>
<path transform="matrix(.1,0,0,-.1,0,792)" stroke-width="20" stroke-linecap="butt" stroke-miterlimit="10" stroke-linejoin="miter" fill="none" stroke="#000000" d="M1662.3 3386.2 1303.5 3563.1 904.398 3589.3 1263.1 3412.4Z"/>
<path transform="matrix(.1,0,0,-.1,0,792)" d="M1662.3 3386.2 1485.4 3745 1459.2 4144.1 1237 3811.5 904.398 3589.3 1303.5 3563.1" fill="#edd6bf"/>
<path transform="matrix(.1,0,0,-.1,0,792)" stroke-width="20" stroke-linecap="butt" stroke-miterlimit="10" stroke-linejoin="miter" fill="none" stroke="#000000" d="M1662.3 3386.2 1485.4 3745 1459.2 4144.1 1237 3811.5 904.398 3589.3 1303.5 3563.1Z"/>
<path transform="matrix(.1,0,0,-.1,0,792)" d="M1662.3 3386.2 1636.1 3785.3 1459.2 4144.1 1485.4 3745Z" fill="#000099"/>
<path transform="matrix(.1,0,0,-.1,0,792)" stroke-width="20" stroke-linecap="butt" stroke-miterlimit="10" stroke-linejoin="miter" fill="none" stroke="#000000" d="M1662.3 3386.2 1636.1 3785.3 1459.2 4144.1 1485.4 3745Z"/>
<path transform="matrix(.1,0,0,-.1,0,792)" d="M3529.8 6214.7 3706.7 6573.4 3732.9 6972.6 3556 6613.8Z" fill="#1a4d80"/>
<path transform="matrix(.1,0,0,-.1,0,792)" stroke-width="20" stroke-linecap="butt" stroke-miterlimit="10" stroke-linejoin="miter" fill="none" stroke="#000000" d="M3529.8 6214.7 3706.7 6573.4 3732.9 6972.6 3556 6613.8Z"/>
<path transform="matrix(.1,0,0,-.1,0,792)" d="M1459.2 5659.9 1237 5992.5 904.398 6214.7 1126.6 5882.1Z" fill="#1a4d80"/>
<path transform="matrix(.1,0,0,-.1,0,792)" stroke-width="20" stroke-linecap="butt" stroke-miterlimit="10" stroke-linejoin="miter" fill="none" stroke="#000000" d="M1459.2 5659.9 1237 5992.5 904.398 6214.7 1126.6 5882.1Z"/>
<path transform="matrix(.1,0,0,-.1,0,792)" d="M1459.2 4144.1 1126.6 3921.9 904.398 3589.3 1237 3811.5Z" fill="#000099"/>
<path transform="matrix(.1,0,0,-.1,0,792)" stroke-width="20" stroke-linecap="butt" stroke-miterlimit="10" stroke-linejoin="miter" fill="none" stroke="#000000" d="M1459.2 4144.1 1126.6 3921.9 904.398 3589.3 1237 3811.5Z"/>
<path transform="matrix(.1,0,0,-.1,0,792)" d="M4490.8 2628.3 4713 2295.7 5045.6 2073.5 4823.4 2406.1Z" fill="#1a4d80"/>
<path transform="matrix(.1,0,0,-.1,0,792)" stroke-width="20" stroke-linecap="butt" stroke-miterlimit="10" stroke-linejoin="miter" fill="none" stroke="#000000" d="M4490.8 2628.3 4713 2295.7 5045.6 2073.5 4823.4 2406.1Z"/>
<path transform="matrix(.1,0,0,-.1,0,792)" d="M4490.8 4144.1 4823.4 4366.3 5045.6 4698.9 4713 4476.7Z" fill="#000099"/>
<path transform="matrix(.1,0,0,-.1,0,792)" stroke-width="20" stroke-linecap="butt" stroke-miterlimit="10" stroke-linejoin="miter" fill="none" stroke="#000000" d="M4490.8 4144.1 4823.4 4366.3 5045.6 4698.9 4713 4476.7Z"/>
<path transform="matrix(.1,0,0,-.1,0,792)" d="M2420.2 2073.5 2243.3 1714.7 2217.1 1315.6 2394 1674.4Z" fill="#1a4d80"/>
<path transform="matrix(.1,0,0,-.1,0,792)" stroke-width="20" stroke-linecap="butt" stroke-miterlimit="10" stroke-linejoin="miter" fill="none" stroke="#000000" d="M2420.2 2073.5 2243.3 1714.7 2217.1 1315.6 2394 1674.4Z"/>
<path transform="matrix(.1,0,0,-.1,0,792)" d="M3732.9 6972.6 3706.7 7371.7 3529.8 7730.5 3556 7331.3Z" fill="#000099"/>
<path transform="matrix(.1,0,0,-.1,0,792)" stroke-width="20" stroke-linecap="butt" stroke-miterlimit="10" stroke-linejoin="miter" fill="none" stroke="#000000" d="M3732.9 6972.6 3706.7 7371.7 3529.8 7730.5 3556 7331.3Z"/>
<path transform="matrix(.1,0,0,-.1,0,792)" d="M3732.9 6972.6 3955.1 7305.2 4287.7 7527.4 3888.6 7553.6 3529.8 7730.5 3706.7 7371.7" fill="#edd6bf"/>
<path transform="matrix(.1,0,0,-.1,0,792)" stroke-width="20" stroke-linecap="butt" stroke-miterlimit="10" stroke-linejoin="miter" fill="none" stroke="#000000" d="M3732.9 6972.6 3955.1 7305.2 4287.7 7527.4 3888.6 7553.6 3529.8 7730.5 3706.7 7371.7Z"/>
<path transform="matrix(.1,0,0,-.1,0,792)" d="M3732.9 6972.6 4065.5 7194.8 4287.7 7527.4 3955.1 7305.2Z" fill="#000099"/>
<path transform="matrix(.1,0,0,-.1,0,792)" stroke-width="20" stroke-linecap="butt" stroke-miterlimit="10" stroke-linejoin="miter" fill="none" stroke="#000000" d="M3732.9 6972.6 4065.5 7194.8 4287.7 7527.4 3955.1 7305.2Z"/>
<path transform="matrix(.1,0,0,-.1,0,792)" d="M904.398 6214.7 545.602 6391.6 146.5 6417.8 505.301 6240.9Z" fill="#000099"/>
<path transform="matrix(.1,0,0,-.1,0,792)" stroke-width="20" stroke-linecap="butt" stroke-miterlimit="10" stroke-linejoin="miter" fill="none" stroke="#000000" d="M904.398 6214.7 545.602 6391.6 146.5 6417.8 505.301 6240.9Z"/>
<path transform="matrix(.1,0,0,-.1,0,792)" d="M904.398 6214.7 727.5 6573.4 701.301 6972.6 479.102 6640 146.5 6417.8 545.602 6391.6" fill="#edd6bf"/>
<path transform="matrix(.1,0,0,-.1,0,792)" stroke-width="20" stroke-linecap="butt" stroke-miterlimit="10" stroke-linejoin="miter" fill="none" stroke="#000000" d="M904.398 6214.7 727.5 6573.4 701.301 6972.6 479.102 6640 146.5 6417.8 545.602 6391.6Z"/>
<path transform="matrix(.1,0,0,-.1,0,792)" d="M904.398 6214.7 878.199 6613.8 701.301 6972.6 727.5 6573.4Z" fill="#000099"/>
<path transform="matrix(.1,0,0,-.1,0,792)" stroke-width="20" stroke-linecap="butt" stroke-miterlimit="10" stroke-linejoin="miter" fill="none" stroke="#000000" d="M904.398 6214.7 878.199 6613.8 701.301 6972.6 727.5 6573.4Z"/>
<path transform="matrix(.1,0,0,-.1,0,792)" d="M904.398 3589.3 505.301 3563.1 146.5 3386.2 545.602 3412.4Z" fill="#1a4d80"/>
<path transform="matrix(.1,0,0,-.1,0,792)" stroke-width="20" stroke-linecap="butt" stroke-miterlimit="10" stroke-linejoin="miter" fill="none" stroke="#000000" d="M904.398 3589.3 505.301 3563.1 146.5 3386.2 545.602 3412.4Z"/>
<path transform="matrix(.1,0,0,-.1,0,792)" d="M5045.6 2073.5 5404.4 1896.6 5803.5 1870.4 5444.7 2047.3Z" fill="#000099"/>
<path transform="matrix(.1,0,0,-.1,0,792)" stroke-width="20" stroke-linecap="butt" stroke-miterlimit="10" stroke-linejoin="miter" fill="none" stroke="#000000" d="M5045.6 2073.5 5404.4 1896.6 5803.5 1870.4 5444.7 2047.3Z"/>
<path transform="matrix(.1,0,0,-.1,0,792)" d="M5045.6 2073.5 5222.5 1714.7 5248.7 1315.6 5470.9 1648.2 5803.5 1870.4 5404.4 1896.6" fill="#edd6bf"/>
<path transform="matrix(.1,0,0,-.1,0,792)" stroke-width="20" stroke-linecap="butt" stroke-miterlimit="10" stroke-linejoin="miter" fill="none" stroke="#000000" d="M5045.6 2073.5 5222.5 1714.7 5248.7 1315.6 5470.9 1648.2 5803.5 1870.4 5404.4 1896.6Z"/>
<path transform="matrix(.1,0,0,-.1,0,792)" d="M5045.6 2073.5 5071.8 1674.4 5248.7 1315.6 5222.5 1714.7Z" fill="#000099"/>
<path transform="matrix(.1,0,0,-.1,0,792)" stroke-width="20" stroke-linecap="butt" stroke-miterlimit="10" stroke-linejoin="miter" fill="none" stroke="#000000" d="M5045.6 2073.5 5071.8 1674.4 5248.7 1315.6 5222.5 1714.7Z"/>
<path transform="matrix(.1,0,0,-.1,0,792)" d="M5045.6 4698.9 5444.7 4725.1 5803.5 4902 5404.4 4875.8Z" fill="#1a4d80"/>
<path transform="matrix(.1,0,0,-.1,0,792)" stroke-width="20" stroke-linecap="butt" stroke-miterlimit="10" stroke-linejoin="miter" fill="none" stroke="#000000" d="M5045.6 4698.9 5444.7 4725.1 5803.5 4902 5404.4 4875.8Z"/>
<path transform="matrix(.1,0,0,-.1,0,792)" d="M2217.1 1315.6 2243.3 916.5 2420.2 557.699 2394 956.898Z" fill="#000099"/>
<path transform="matrix(.1,0,0,-.1,0,792)" stroke-width="20" stroke-linecap="butt" stroke-miterlimit="10" stroke-linejoin="miter" fill="none" stroke="#000000" d="M2217.1 1315.6 2243.3 916.5 2420.2 557.699 2394 956.898Z"/>
<path transform="matrix(.1,0,0,-.1,0,792)" d="M2217.1 1315.6 1994.9 983 1662.3 760.801 2061.4 734.602 2420.2 557.699 2243.3 916.5" fill="#edd6bf"/>
<path transform="matrix(.1,0,0,-.1,0,792)" stroke-width="20" stroke-linecap="butt" stroke-miterlimit="10" stroke-linejoin="miter" fill="none" stroke="#000000" d="M2217.1 1315.6 1994.9 983 1662.3 760.801 2061.4 734.602 2420.2 557.699 2243.3 916.5Z"/>
<path transform="matrix(.1,0,0,-.1,0,792)" d="M2217.1 1315.6 1884.5 1093.4 1662.3 760.801 1994.9 983Z" fill="#000099"/>
<path transform="matrix(.1,0,0,-.1,0,792)" stroke-width="20" stroke-linecap="butt" stroke-miterlimit="10" stroke-linejoin="miter" fill="none" stroke="#000000" d="M2217.1 1315.6 1884.5 1093.4 1662.3 760.801 1994.9 983Z"/>
<path transform="matrix(.1,0,0,-.1,0,792)" d="M878.199 7331.3 904.398 7730.5 727.5 7371.7 701.301 6972.6Z" fill="#1a4d80"/>
<path transform="matrix(.1,0,0,-.1,0,792)" stroke-width="20" stroke-linecap="butt" stroke-miterlimit="10" stroke-linejoin="miter" fill="none" stroke="#000000" d="M878.199 7331.3 904.398 7730.5 727.5 7371.7 701.301 6972.6Z"/>
<path transform="matrix(.1,0,0,-.1,0,792)" d="M701.301 6972.6 368.699 6750.4 146.5 6417.8 479.102 6640Z" fill="#000099"/>
<path transform="matrix(.1,0,0,-.1,0,792)" stroke-width="20" stroke-linecap="butt" stroke-miterlimit="10" stroke-linejoin="miter" fill="none" stroke="#000000" d="M701.301 6972.6 368.699 6750.4 146.5 6417.8 479.102 6640Z"/>
<path transform="matrix(.1,0,0,-.1,0,792)" d="M701.301 6972.6 727.5 7371.7 904.398 7730.5 727.5 8089.2 701.301 8488.4 368.699 8710.6 146.5 9043.2-252.602 9069.4-611.398 9246.3-970.102 9069.4-1369.3 9043.2-1591.5 8710.6-1924.1 8488.4-1950.3 8089.2-2127.2 7730.5-1950.3 7371.7-1924.1 6972.6-1591.5 6750.4-1369.3 6417.8-970.102 6391.6-611.398 6214.7-252.602 6391.6 146.5 6417.8 368.699 6750.4" fill="#823d24"/>
<path transform="matrix(.1,0,0,-.1,0,792)" stroke-width="20" stroke-linecap="butt" stroke-miterlimit="10" stroke-linejoin="miter" fill="none" stroke="#000000" d="M701.301 6972.6 727.5 7371.7 904.398 7730.5 727.5 8089.2 701.301 8488.4 368.699 8710.6 146.5 9043.2-252.602 9069.4-611.398 9246.3-970.102 9069.4-1369.3 9043.2-1591.5 8710.6-1924.1 8488.4-1950.3 8089.2-2127.2 7730.5-1950.3 7371.7-1924.1 6972.6-1591.5 6750.4-1369.3 6417.8-970.102 6391.6-611.398 6214.7-252.602 6391.6 146.5 6417.8 368.699 6750.4Z"/>
<path transform="matrix(.1,0,0,-.1,0,792)" d="M5248.7 1315.6 5581.3 1537.8 5803.5 1870.4 5470.9 1648.2Z" fill="#000099"/>
<path transform="matrix(.1,0,0,-.1,0,792)" stroke-width="20" stroke-linecap="butt" stroke-miterlimit="10" stroke-linejoin="miter" fill="none" stroke="#000000" d="M5248.7 1315.6 5581.3 1537.8 5803.5 1870.4 5470.9 1648.2Z"/>
<path transform="matrix(.1,0,0,-.1,0,792)" d="M5248.7 1315.6 5222.5 916.5 5045.6 557.699 5222.5 199 5248.7-200.199 5581.3-422.398 5803.5-755 6202.6-781.199 6561.4-958.102 6920.1-781.199 7319.3-755 7541.5-422.398 7874.1-200.199 7900.3 199 8077.2 557.699 7900.3 916.5 7874.1 1315.6 7541.5 1537.8 7319.3 1870.4 6920.1 1896.6 6561.4 2073.5 6202.6 1896.6 5803.5 1870.4 5581.3 1537.8" fill="#823d24"/>
<path transform="matrix(.1,0,0,-.1,0,792)" stroke-width="20" stroke-linecap="butt" stroke-miterlimit="10" stroke-linejoin="miter" fill="none" stroke="#000000" d="M5248.7 1315.6 5222.5 916.5 5045.6 557.699 5222.5 199 5248.7-200.199 5581.3-422.398 5803.5-755 6202.6-781.199 6561.4-958.102 6920.1-781.199 7319.3-755 7541.5-422.398 7874.1-200.199 7900.3 199 8077.2 557.699 7900.3 916.5 7874.1 1315.6 7541.5 1537.8 7319.3 1870.4 6920.1 1896.6 6561.4 2073.5 6202.6 1896.6 5803.5 1870.4 5581.3 1537.8Z"/>
<path transform="matrix(.1,0,0,-.1,0,792)" d="M5248.7 1315.6 5071.8 956.898 5045.6 557.699 5222.5 916.5Z" fill="#1a4d80"/>
<path transform="matrix(.1,0,0,-.1,0,792)" stroke-width="20" stroke-linecap="butt" stroke-miterlimit="10" stroke-linejoin="miter" fill="none" stroke="#000000" d="M5248.7 1315.6 5071.8 956.898 5045.6 557.699 5222.5 916.5Z"/>
<path transform="matrix(.1,0,0,-.1,0,792)" d="M4287.7 7527.4 3929 7704.3 3529.8 7730.5 3888.6 7553.6Z" fill="#000099"/>
<path transform="matrix(.1,0,0,-.1,0,792)" stroke-width="20" stroke-linecap="butt" stroke-miterlimit="10" stroke-linejoin="miter" fill="none" stroke="#000000" d="M4287.7 7527.4 3929 7704.3 3529.8 7730.5 3888.6 7553.6Z"/>
<path transform="matrix(.1,0,0,-.1,0,792)" d="M4287.7 7527.4 4646.5 7704.3 5045.6 7730.5 5267.8 8063.1 5600.4 8285.3 5626.6 8684.4 5803.5 9043.2 5626.6 9401.9 5600.4 9801.1 5267.8 10023.3 5045.6 10355.9 4646.5 10382.1 4287.7 10559 3929 10382.1 3529.8 10355.9 3307.6 10023.3 2975 9801.1 2948.8 9401.9 2771.9 9043.2 2948.8 8684.4 2975 8285.3 3307.6 8063.1 3529.8 7730.5 3929 7704.3" fill="#823d24"/>
<path transform="matrix(.1,0,0,-.1,0,792)" stroke-width="20" stroke-linecap="butt" stroke-miterlimit="10" stroke-linejoin="miter" fill="none" stroke="#000000" d="M4287.7 7527.4 4646.5 7704.3 5045.6 7730.5 5267.8 8063.1 5600.4 8285.3 5626.6 8684.4 5803.5 9043.2 5626.6 9401.9 5600.4 9801.1 5267.8 10023.3 5045.6 10355.9 4646.5 10382.1 4287.7 10559 3929 10382.1 3529.8 10355.9 3307.6 10023.3 2975 9801.1 2948.8 9401.9 2771.9 9043.2 2948.8 8684.4 2975 8285.3 3307.6 8063.1 3529.8 7730.5 3929 7704.3Z"/>
<path transform="matrix(.1,0,0,-.1,0,792)" d="M4287.7 7527.4 4686.9 7553.6 5045.6 7730.5 4646.5 7704.3Z" fill="#1a4d80"/>
<path transform="matrix(.1,0,0,-.1,0,792)" stroke-width="20" stroke-linecap="butt" stroke-miterlimit="10" stroke-linejoin="miter" fill="none" stroke="#000000" d="M4287.7 7527.4 4686.9 7553.6 5045.6 7730.5 4646.5 7704.3Z"/>
<path transform="matrix(.1,0,0,-.1,0,792)" d="M5404.4 7553.6 5803.5 7527.4 5444.7 7704.3 5045.6 7730.5Z" fill="#000099"/>
<path transform="matrix(.1,0,0,-.1,0,792)" stroke-width="20" stroke-linecap="butt" stroke-miterlimit="10" stroke-linejoin="miter" fill="none" stroke="#000000" d="M5404.4 7553.6 5803.5 7527.4 5444.7 7704.3 5045.6 7730.5Z"/>
<path transform="matrix(.1,0,0,-.1,0,792)" d="M1662.3 760.801 2021 583.898 2420.2 557.699 2061.4 734.602Z" fill="#000099"/>
<path transform="matrix(.1,0,0,-.1,0,792)" stroke-width="20" stroke-linecap="butt" stroke-miterlimit="10" stroke-linejoin="miter" fill="none" stroke="#000000" d="M1662.3 760.801 2021 583.898 2420.2 557.699 2061.4 734.602Z"/>
<path transform="matrix(.1,0,0,-.1,0,792)" d="M1662.3 760.801 1303.5 583.898 904.398 557.699 682.199 225.102 349.602 2.89844 323.398-396.199 146.5-755 323.398-1113.7 349.602-1512.9 682.199-1735.1 904.398-2067.7 1303.5-2093.9 1662.3-2270.8 2021-2093.9 2420.2-2067.7 2642.4-1735.1 2975-1512.9 3001.2-1113.7 3178.1-755 3001.2-396.199 2975 2.89844 2642.4 225.102 2420.2 557.699 2021 583.898" fill="#823d24"/>
<path transform="matrix(.1,0,0,-.1,0,792)" stroke-width="20" stroke-linecap="butt" stroke-miterlimit="10" stroke-linejoin="miter" fill="none" stroke="#000000" d="M1662.3 760.801 1303.5 583.898 904.398 557.699 682.199 225.102 349.602 2.89844 323.398-396.199 146.5-755 323.398-1113.7 349.602-1512.9 682.199-1735.1 904.398-2067.7 1303.5-2093.9 1662.3-2270.8 2021-2093.9 2420.2-2067.7 2642.4-1735.1 2975-1512.9 3001.2-1113.7 3178.1-755 3001.2-396.199 2975 2.89844 2642.4 225.102 2420.2 557.699 2021 583.898Z"/>
<path transform="matrix(.1,0,0,-.1,0,792)" d="M1662.3 760.801 1263.1 734.602 904.398 557.699 1303.5 583.898Z" fill="#1a4d80"/>
<path transform="matrix(.1,0,0,-.1,0,792)" stroke-width="20" stroke-linecap="butt" stroke-miterlimit="10" stroke-linejoin="miter" fill="none" stroke="#000000" d="M1662.3 760.801 1263.1 734.602 904.398 557.699 1303.5 583.898Z"/>
<path transform="matrix(.1,0,0,-.1,0,792)" d="M545.602 734.602 146.5 760.801 505.301 583.898 904.398 557.699Z" fill="#000099"/>
<path transform="matrix(.1,0,0,-.1,0,792)" stroke-width="20" stroke-linecap="butt" stroke-miterlimit="10" stroke-linejoin="miter" fill="none" stroke="#000000" d="M545.602 734.602 146.5 760.801 505.301 583.898 904.398 557.699Z"/>
<path transform="matrix(.1,0,0,-.1,0,792)" d="M5444.7 7704.3 5803.5 7527.4 5626.6 7886.2 5600.4 8285.3 5378.2 7952.7 5045.6 7730.5" fill="#edd6bf"/>
<path transform="matrix(.1,0,0,-.1,0,792)" stroke-width="20" stroke-linecap="butt" stroke-miterlimit="10" stroke-linejoin="miter" fill="none" stroke="#000000" d="M5444.7 7704.3 5803.5 7527.4 5626.6 7886.2 5600.4 8285.3 5378.2 7952.7 5045.6 7730.5Z"/>
<path transform="matrix(.1,0,0,-.1,0,792)" d="M5045.6 7730.5 5378.2 7952.7 5600.4 8285.3 5267.8 8063.1Z" fill="#000099"/>
<path transform="matrix(.1,0,0,-.1,0,792)" stroke-width="20" stroke-linecap="butt" stroke-miterlimit="10" stroke-linejoin="miter" fill="none" stroke="#000000" d="M5045.6 7730.5 5378.2 7952.7 5600.4 8285.3 5267.8 8063.1Z"/>
<path transform="matrix(.1,0,0,-.1,0,792)" d="M3529.8 7730.5 3307.6 8063.1 2975 8285.3 3197.2 7952.7Z" fill="#1a4d80"/>
<path transform="matrix(.1,0,0,-.1,0,792)" stroke-width="20" stroke-linecap="butt" stroke-miterlimit="10" stroke-linejoin="miter" fill="none" stroke="#000000" d="M3529.8 7730.5 3307.6 8063.1 2975 8285.3 3197.2 7952.7Z"/>
<path transform="matrix(.1,0,0,-.1,0,792)" d="M904.398 7730.5 878.199 8129.6 701.301 8488.4 727.5 8089.2Z" fill="#000099"/>
<path transform="matrix(.1,0,0,-.1,0,792)" stroke-width="20" stroke-linecap="butt" stroke-miterlimit="10" stroke-linejoin="miter" fill="none" stroke="#000000" d="M904.398 7730.5 878.199 8129.6 701.301 8488.4 727.5 8089.2Z"/>
<path transform="matrix(.1,0,0,-.1,0,792)" d="M904.398 7730.5 1126.6 8063.1 1459.2 8285.3 1060.1 8311.5 701.301 8488.4 878.199 8129.6" fill="#edd6bf"/>
<path transform="matrix(.1,0,0,-.1,0,792)" stroke-width="20" stroke-linecap="butt" stroke-miterlimit="10" stroke-linejoin="miter" fill="none" stroke="#000000" d="M904.398 7730.5 1126.6 8063.1 1459.2 8285.3 1060.1 8311.5 701.301 8488.4 878.199 8129.6Z"/>
<path transform="matrix(.1,0,0,-.1,0,792)" d="M904.398 7730.5 1237 7952.7 1459.2 8285.3 1126.6 8063.1Z" fill="#000099"/>
<path transform="matrix(.1,0,0,-.1,0,792)" stroke-width="20" stroke-linecap="butt" stroke-miterlimit="10" stroke-linejoin="miter" fill="none" stroke="#000000" d="M904.398 7730.5 1237 7952.7 1459.2 8285.3 1126.6 8063.1Z"/>
<path transform="matrix(.1,0,0,-.1,0,792)" d="M505.301 583.898 146.5 760.801 323.398 402 349.602 2.89844 571.801 335.5 904.398 557.699" fill="#edd6bf"/>
<path transform="matrix(.1,0,0,-.1,0,792)" stroke-width="20" stroke-linecap="butt" stroke-miterlimit="10" stroke-linejoin="miter" fill="none" stroke="#000000" d="M505.301 583.898 146.5 760.801 323.398 402 349.602 2.89844 571.801 335.5 904.398 557.699Z"/>
<path transform="matrix(.1,0,0,-.1,0,792)" d="M904.398 557.699 571.801 335.5 349.602 2.89844 682.199 225.102Z" fill="#000099"/>
<path transform="matrix(.1,0,0,-.1,0,792)" stroke-width="20" stroke-linecap="butt" stroke-miterlimit="10" stroke-linejoin="miter" fill="none" stroke="#000000" d="M904.398 557.699 571.801 335.5 349.602 2.89844 682.199 225.102Z"/>
<path transform="matrix(.1,0,0,-.1,0,792)" d="M2420.2 557.699 2642.4 225.102 2975 2.89844 2752.8 335.5Z" fill="#1a4d80"/>
<path transform="matrix(.1,0,0,-.1,0,792)" stroke-width="20" stroke-linecap="butt" stroke-miterlimit="10" stroke-linejoin="miter" fill="none" stroke="#000000" d="M2420.2 557.699 2642.4 225.102 2975 2.89844 2752.8 335.5Z"/>
<path transform="matrix(.1,0,0,-.1,0,792)" d="M5045.6 557.699 5071.8 158.602 5248.7-200.199 5222.5 199Z" fill="#000099"/>
<path transform="matrix(.1,0,0,-.1,0,792)" stroke-width="20" stroke-linecap="butt" stroke-miterlimit="10" stroke-linejoin="miter" fill="none" stroke="#000000" d="M5045.6 557.699 5071.8 158.602 5248.7-200.199 5222.5 199Z"/>
<path transform="matrix(.1,0,0,-.1,0,792)" d="M5045.6 557.699 4823.4 225.102 4490.8 2.89844 4889.9-23.3008 5248.7-200.199 5071.8 158.602" fill="#edd6bf"/>
<path transform="matrix(.1,0,0,-.1,0,792)" stroke-width="20" stroke-linecap="butt" stroke-miterlimit="10" stroke-linejoin="miter" fill="none" stroke="#000000" d="M5045.6 557.699 4823.4 225.102 4490.8 2.89844 4889.9-23.3008 5248.7-200.199 5071.8 158.602Z"/>
<path transform="matrix(.1,0,0,-.1,0,792)" d="M5045.6 557.699 4713 335.5 4490.8 2.89844 4823.4 225.102Z" fill="#000099"/>
<path transform="matrix(.1,0,0,-.1,0,792)" stroke-width="20" stroke-linecap="butt" stroke-miterlimit="10" stroke-linejoin="miter" fill="none" stroke="#000000" d="M5045.6 557.699 4713 335.5 4490.8 2.89844 4823.4 225.102Z"/>
<path transform="matrix(.1,0,0,-.1,0,792)" d="M5626.6 7886.2 5803.5 7527.4 5777.3 7926.5 5600.4 8285.3Z" fill="#000099"/>
<path transform="matrix(.1,0,0,-.1,0,792)" stroke-width="20" stroke-linecap="butt" stroke-miterlimit="10" stroke-linejoin="miter" fill="none" stroke="#000000" d="M5626.6 7886.2 5803.5 7527.4 5777.3 7926.5 5600.4 8285.3Z"/>
<path transform="matrix(.1,0,0,-.1,0,792)" d="M323.398 402 146.5 760.801 172.699 361.602 349.602 2.89844Z" fill="#000099"/>
<path transform="matrix(.1,0,0,-.1,0,792)" stroke-width="20" stroke-linecap="butt" stroke-miterlimit="10" stroke-linejoin="miter" fill="none" stroke="#000000" d="M323.398 402 146.5 760.801 172.699 361.602 349.602 2.89844Z"/>
<path transform="matrix(.1,0,0,-.1,0,792)" d="M172.699 361.602 146.5 760.801-186.102 983-408.301 1315.6-807.5 1341.8-1166.2 1518.7-1525 1341.8-1924.1 1315.6-2146.3 983-2478.9 760.801-2505.1 361.602-2682 2.89844-2505.1-355.898-2478.9-755-2146.3-977.199-1924.1-1309.8-1525-1336-1166.2-1512.9-807.5-1336-408.301-1309.8-186.102-977.199 146.5-755 172.699-355.898 349.602 2.89844" fill="#823d24"/>
<path transform="matrix(.1,0,0,-.1,0,792)" stroke-width="20" stroke-linecap="butt" stroke-miterlimit="10" stroke-linejoin="miter" fill="none" stroke="#000000" d="M172.699 361.602 146.5 760.801-186.102 983-408.301 1315.6-807.5 1341.8-1166.2 1518.7-1525 1341.8-1924.1 1315.6-2146.3 983-2478.9 760.801-2505.1 361.602-2682 2.89844-2505.1-355.898-2478.9-755-2146.3-977.199-1924.1-1309.8-1525-1336-1166.2-1512.9-807.5-1336-408.301-1309.8-186.102-977.199 146.5-755 172.699-355.898 349.602 2.89844Z"/>
<path transform="matrix(.1,0,0,-.1,0,792)" d="M5777.3 7926.5 5803.5 7527.4 6136.1 7305.2 6358.3 6972.6 6757.5 6946.4 7116.2 6769.5 7475 6946.4 7874.1 6972.6 8096.3 7305.2 8428.9 7527.4 8455.1 7926.5 8632 8285.3 8455.1 8644 8428.9 9043.2 8096.3 9265.4 7874.1 9598 7475 9624.2 7116.2 9801.1 6757.5 9624.2 6358.3 9598 6136.1 9265.4 5803.5 9043.2 5777.3 8644 5600.4 8285.3" fill="#823d24"/>
<path transform="matrix(.1,0,0,-.1,0,792)" stroke-width="20" stroke-linecap="butt" stroke-miterlimit="10" stroke-linejoin="miter" fill="none" stroke="#000000" d="M5777.3 7926.5 5803.5 7527.4 6136.1 7305.2 6358.3 6972.6 6757.5 6946.4 7116.2 6769.5 7475 6946.4 7874.1 6972.6 8096.3 7305.2 8428.9 7527.4 8455.1 7926.5 8632 8285.3 8455.1 8644 8428.9 9043.2 8096.3 9265.4 7874.1 9598 7475 9624.2 7116.2 9801.1 6757.5 9624.2 6358.3 9598 6136.1 9265.4 5803.5 9043.2 5777.3 8644 5600.4 8285.3Z"/>
<path transform="matrix(.1,0,0,-.1,0,792)" d="M5803.5 7527.4 6025.7 7194.8 6358.3 6972.6 6136.1 7305.2Z" fill="#1a4d80"/>
<path transform="matrix(.1,0,0,-.1,0,792)" stroke-width="20" stroke-linecap="butt" stroke-miterlimit="10" stroke-linejoin="miter" fill="none" stroke="#000000" d="M5803.5 7527.4 6025.7 7194.8 6358.3 6972.6 6136.1 7305.2Z"/>
<path transform="matrix(.1,0,0,-.1,0,792)" d="M146.5 6417.8-252.602 6391.6-611.398 6214.7-212.199 6240.9Z" fill="#1a4d80"/>
<path transform="matrix(.1,0,0,-.1,0,792)" stroke-width="20" stroke-linecap="butt" stroke-miterlimit="10" stroke-linejoin="miter" fill="none" stroke="#000000" d="M146.5 6417.8-252.602 6391.6-611.398 6214.7-212.199 6240.9Z"/>
<path transform="matrix(.1,0,0,-.1,0,792)" d="M146.5 3386.2-186.102 3164-408.301 2831.4-75.6992 3053.6Z" fill="#000099"/>
<path transform="matrix(.1,0,0,-.1,0,792)" stroke-width="20" stroke-linecap="butt" stroke-miterlimit="10" stroke-linejoin="miter" fill="none" stroke="#000000" d="M146.5 3386.2-186.102 3164-408.301 2831.4-75.6992 3053.6Z"/>
<path transform="matrix(.1,0,0,-.1,0,792)" d="M146.5 3386.2-252.602 3412.4-611.398 3589.3-434.5 3230.5-408.301 2831.4-186.102 3164" fill="#edd6bf"/>
<path transform="matrix(.1,0,0,-.1,0,792)" stroke-width="20" stroke-linecap="butt" stroke-miterlimit="10" stroke-linejoin="miter" fill="none" stroke="#000000" d="M146.5 3386.2-252.602 3412.4-611.398 3589.3-434.5 3230.5-408.301 2831.4-186.102 3164Z"/>
<path transform="matrix(.1,0,0,-.1,0,792)" d="M146.5 3386.2-212.199 3563.1-611.398 3589.3-252.602 3412.4Z" fill="#000099"/>
<path transform="matrix(.1,0,0,-.1,0,792)" stroke-width="20" stroke-linecap="butt" stroke-miterlimit="10" stroke-linejoin="miter" fill="none" stroke="#000000" d="M146.5 3386.2-212.199 3563.1-611.398 3589.3-252.602 3412.4Z"/>
<path transform="matrix(.1,0,0,-.1,0,792)" d="M146.5 760.801-75.6992 1093.4-408.301 1315.6-186.102 983Z" fill="#1a4d80"/>
<path transform="matrix(.1,0,0,-.1,0,792)" stroke-width="20" stroke-linecap="butt" stroke-miterlimit="10" stroke-linejoin="miter" fill="none" stroke="#000000" d="M146.5 760.801-75.6992 1093.4-408.301 1315.6-186.102 983Z"/>
<path transform="matrix(.1,0,0,-.1,0,792)" d="M5803.5 1870.4 6202.6 1896.6 6561.4 2073.5 6162.2 2047.3Z" fill="#1a4d80"/>
<path transform="matrix(.1,0,0,-.1,0,792)" stroke-width="20" stroke-linecap="butt" stroke-miterlimit="10" stroke-linejoin="miter" fill="none" stroke="#000000" d="M5803.5 1870.4 6202.6 1896.6 6561.4 2073.5 6162.2 2047.3Z"/>
<path transform="matrix(.1,0,0,-.1,0,792)" d="M5803.5 4902 6136.1 5124.2 6358.3 5456.8 6025.7 5234.6Z" fill="#000099"/>
<path transform="matrix(.1,0,0,-.1,0,792)" stroke-width="20" stroke-linecap="butt" stroke-miterlimit="10" stroke-linejoin="miter" fill="none" stroke="#000000" d="M5803.5 4902 6136.1 5124.2 6358.3 5456.8 6025.7 5234.6Z"/>
<path transform="matrix(.1,0,0,-.1,0,792)" d="M5803.5 4902 6202.6 4875.8 6561.4 4698.9 6384.5 5057.7 6358.3 5456.8 6136.1 5124.2" fill="#edd6bf"/>
<path transform="matrix(.1,0,0,-.1,0,792)" stroke-width="20" stroke-linecap="butt" stroke-miterlimit="10" stroke-linejoin="miter" fill="none" stroke="#000000" d="M5803.5 4902 6202.6 4875.8 6561.4 4698.9 6384.5 5057.7 6358.3 5456.8 6136.1 5124.2Z"/>
<path transform="matrix(.1,0,0,-.1,0,792)" d="M5803.5 4902 6162.2 4725.1 6561.4 4698.9 6202.6 4875.8Z" fill="#000099"/>
<path transform="matrix(.1,0,0,-.1,0,792)" stroke-width="20" stroke-linecap="butt" stroke-miterlimit="10" stroke-linejoin="miter" fill="none" stroke="#000000" d="M5803.5 4902 6162.2 4725.1 6561.4 4698.9 6202.6 4875.8Z"/>
<path transform="matrix(.1,0,0,-.1,0,792)" d="M349.602 2.89844 172.699-355.898 146.5-755 323.398-396.199Z" fill="#1a4d80"/>
<path transform="matrix(.1,0,0,-.1,0,792)" stroke-width="20" stroke-linecap="butt" stroke-miterlimit="10" stroke-linejoin="miter" fill="none" stroke="#000000" d="M349.602 2.89844 172.699-355.898 146.5-755 323.398-396.199Z"/>
<path transform="matrix(.1,0,0,-.1,0,792)" d="M2975 2.89844 3333.7-174 3732.9-200.199 3374.1-23.3008Z" fill="#000099"/>
<path transform="matrix(.1,0,0,-.1,0,792)" stroke-width="20" stroke-linecap="butt" stroke-miterlimit="10" stroke-linejoin="miter" fill="none" stroke="#000000" d="M2975 2.89844 3333.7-174 3732.9-200.199 3374.1-23.3008Z"/>
<path transform="matrix(.1,0,0,-.1,0,792)" d="M2975 2.89844 3151.9-355.898 3178.1-755 3400.3-422.398 3732.9-200.199 3333.7-174" fill="#edd6bf"/>
<path transform="matrix(.1,0,0,-.1,0,792)" stroke-width="20" stroke-linecap="butt" stroke-miterlimit="10" stroke-linejoin="miter" fill="none" stroke="#000000" d="M2975 2.89844 3151.9-355.898 3178.1-755 3400.3-422.398 3732.9-200.199 3333.7-174Z"/>
<path transform="matrix(.1,0,0,-.1,0,792)" d="M2975 2.89844 3001.2-396.199 3178.1-755 3151.9-355.898Z" fill="#000099"/>
<path transform="matrix(.1,0,0,-.1,0,792)" stroke-width="20" stroke-linecap="butt" stroke-miterlimit="10" stroke-linejoin="miter" fill="none" stroke="#000000" d="M2975 2.89844 3001.2-396.199 3178.1-755 3151.9-355.898Z"/>
<path transform="matrix(.1,0,0,-.1,0,792)" d="M4490.8 2.89844 4849.5-174 5248.7-200.199 4889.9-23.3008Z" fill="#000099"/>
<path transform="matrix(.1,0,0,-.1,0,792)" stroke-width="20" stroke-linecap="butt" stroke-miterlimit="10" stroke-linejoin="miter" fill="none" stroke="#000000" d="M4490.8 2.89844 4849.5-174 5248.7-200.199 4889.9-23.3008Z"/>
<path transform="matrix(.1,0,0,-.1,0,792)" d="M4490.8 2.89844 4132-174 3732.9-200.199 3510.7-532.801 3178.1-755 3151.9-1154.1 2975-1512.9 3151.9-1871.6 3178.1-2270.8 3510.7-2493 3732.9-2825.6 4132-2851.8 4490.8-3028.7 4849.5-2851.8 5248.7-2825.6 5470.9-2493 5803.5-2270.8 5829.7-1871.6 6006.6-1512.9 5829.7-1154.1 5803.5-755 5470.9-532.801 5248.7-200.199 4849.5-174" fill="#823d24"/>
<path transform="matrix(.1,0,0,-.1,0,792)" stroke-width="20" stroke-linecap="butt" stroke-miterlimit="10" stroke-linejoin="miter" fill="none" stroke="#000000" d="M4490.8 2.89844 4132-174 3732.9-200.199 3510.7-532.801 3178.1-755 3151.9-1154.1 2975-1512.9 3151.9-1871.6 3178.1-2270.8 3510.7-2493 3732.9-2825.6 4132-2851.8 4490.8-3028.7 4849.5-2851.8 5248.7-2825.6 5470.9-2493 5803.5-2270.8 5829.7-1871.6 6006.6-1512.9 5829.7-1154.1 5803.5-755 5470.9-532.801 5248.7-200.199 4849.5-174Z"/>
<path transform="matrix(.1,0,0,-.1,0,792)" d="M4490.8 2.89844 4091.6-23.3008 3732.9-200.199 4132-174Z" fill="#1a4d80"/>
<path transform="matrix(.1,0,0,-.1,0,792)" stroke-width="20" stroke-linecap="butt" stroke-miterlimit="10" stroke-linejoin="miter" fill="none" stroke="#000000" d="M4490.8 2.89844 4091.6-23.3008 3732.9-200.199 4132-174Z"/>
</svg>
