<svg xmlns="http://www.w3.org/2000/svg" xmlns:xlink="http://www.w3.org/1999/xlink" xmlns:inkscape="http://www.inkscape.org/namespaces/inkscape" version="1.1" width="612" height="792" viewBox="0 0 612 792">
<path transform="matrix(.1,0,0,-.1,0,792)" d="M4028.7 4210 3899.3 4693 3545.8 5046.5 3062.8 5175.9 2579.8 5046.5 2226.3 4693 2096.9 4210 2226.3 3727 2579.8 3373.5 3062.8 3244.1 3545.8 3373.5 3899.3 3727"/>
<path transform="matrix(.1,0,0,-.1,0,792)" stroke-width="20" stroke-linecap="butt" stroke-miterlimit="10" stroke-linejoin="miter" fill="none" stroke="#000000" d="M4028.7 4210 3899.3 4693 3545.8 5046.5 3062.8 5175.9 2579.8 5046.5 2226.3 4693 2096.9 4210 2226.3 3727 2579.8 3373.5 3062.8 3244.1 3545.8 3373.5 3899.3 3727Z"/>
<path transform="matrix(.1,0,0,-.1,0,792)" d="M3545.8 3373.5 4028.7 3244.1 4382.3 2890.5 4511.7 3373.5 4865.3 3727 4382.3 3856.4 4028.7 4210 3899.3 3727" fill="#d4e826"/>
<path transform="matrix(.1,0,0,-.1,0,792)" stroke-width="20" stroke-linecap="butt" stroke-miterlimit="10" stroke-linejoin="miter" fill="none" stroke="#000000" d="M3545.8 3373.5 4028.7 3244.1 4382.3 2890.5 4511.7 3373.5 4865.3 3727 4382.3 3856.4 4028.7 4210 3899.3 3727Z"/>
<path transform="matrix(.1,0,0,-.1,0,792)" d="M3545.8 3373.5 3899.3 3019.9 4382.3 2890.5 4028.7 3244.1Z" fill="#70b089"/>
<path transform="matrix(.1,0,0,-.1,0,792)" stroke-width="20" stroke-linecap="butt" stroke-miterlimit="10" stroke-linejoin="miter" fill="none" stroke="#000000" d="M3545.8 3373.5 3899.3 3019.9 4382.3 2890.5 4028.7 3244.1Z"/>
<path transform="matrix(.1,0,0,-.1,0,792)" d="M3545.8 3373.5 3675.2 2890.5 3545.8 2407.6 3899.3 2761.1 4382.3 2890.5 3899.3 3019.9" fill="#1ff8f8"/>
<path transform="matrix(.1,0,0,-.1,0,792)" stroke-width="20" stroke-linecap="butt" stroke-miterlimit="10" stroke-linejoin="miter" fill="none" stroke="#000000" d="M3545.8 3373.5 3675.2 2890.5 3545.8 2407.6 3899.3 2761.1 4382.3 2890.5 3899.3 3019.9Z"/>
<path transform="matrix(.1,0,0,-.1,0,792)" d="M3545.8 3373.5 3416.4 2890.5 3545.8 2407.6 3675.2 2890.5Z" fill="#70b089"/>
<path transform="matrix(.1,0,0,-.1,0,792)" stroke-width="20" stroke-linecap="butt" stroke-miterlimit="10" stroke-linejoin="miter" fill="none" stroke="#000000" d="M3545.8 3373.5 3416.4 2890.5 3545.8 2407.6 3675.2 2890.5Z"/>
<path transform="matrix(.1,0,0,-.1,0,792)" d="M3545.8 3373.5 3062.8 3244.1 2579.8 3373.5 2709.3 2890.5 2579.8 2407.6 3062.8 2537 3545.8 2407.6 3416.4 2890.5" fill="#d4e826"/>
<path transform="matrix(.1,0,0,-.1,0,792)" stroke-width="20" stroke-linecap="butt" stroke-miterlimit="10" stroke-linejoin="miter" fill="none" stroke="#000000" d="M3545.8 3373.5 3062.8 3244.1 2579.8 3373.5 2709.3 2890.5 2579.8 2407.6 3062.8 2537 3545.8 2407.6 3416.4 2890.5Z"/>
<path transform="matrix(.1,0,0,-.1,0,792)" d="M2579.8 3373.5 2450.4 2890.5 2579.8 2407.6 2709.3 2890.5Z" fill="#70b089"/>
<path transform="matrix(.1,0,0,-.1,0,792)" stroke-width="20" stroke-linecap="butt" stroke-miterlimit="10" stroke-linejoin="miter" fill="none" stroke="#000000" d="M2579.8 3373.5 2450.4 2890.5 2579.8 2407.6 2709.3 2890.5Z"/>
<path transform="matrix(.1,0,0,-.1,0,792)" d="M2579.8 3373.5 2226.3 3019.9 1743.3 2890.5 2226.3 2761.1 2579.8 2407.6 2450.4 2890.5" fill="#1ff8f8"/>
<path transform="matrix(.1,0,0,-.1,0,792)" stroke-width="20" stroke-linecap="butt" stroke-miterlimit="10" stroke-linejoin="miter" fill="none" stroke="#000000" d="M2579.8 3373.5 2226.3 3019.9 1743.3 2890.5 2226.3 2761.1 2579.8 2407.6 2450.4 2890.5Z"/>
<path transform="matrix(.1,0,0,-.1,0,792)" d="M2579.8 3373.5 2096.9 3244.1 1743.3 2890.5 2226.3 3019.9Z" fill="#70b089"/>
<path transform="matrix(.1,0,0,-.1,0,792)" stroke-width="20" stroke-linecap="butt" stroke-miterlimit="10" stroke-linejoin="miter" fill="none" stroke="#000000" d="M2579.8 3373.5 2096.9 3244.1 1743.3 2890.5 2226.3 3019.9Z"/>
<path transform="matrix(.1,0,0,-.1,0,792)" d="M2579.8 3373.5 2226.3 3727 2096.9 4210 1743.3 3856.4 1260.4 3727 1613.9 3373.5 1743.3 2890.5 2096.9 3244.1" fill="#d4e826"/>
<path transform="matrix(.1,0,0,-.1,0,792)" stroke-width="20" stroke-linecap="butt" stroke-miterlimit="10" stroke-linejoin="miter" fill="none" stroke="#000000" d="M2579.8 3373.5 2226.3 3727 2096.9 4210 1743.3 3856.4 1260.4 3727 1613.9 3373.5 1743.3 2890.5 2096.9 3244.1Z"/>
<path transform="matrix(.1,0,0,-.1,0,792)" d="M3545.8 5046.5 3416.4 5529.5 3545.8 6012.4 3062.8 5883 2579.8 6012.4 2709.3 5529.5 2579.8 5046.5 3062.8 5175.9" fill="#d4e826"/>
<path transform="matrix(.1,0,0,-.1,0,792)" stroke-width="20" stroke-linecap="butt" stroke-miterlimit="10" stroke-linejoin="miter" fill="none" stroke="#000000" d="M3545.8 5046.5 3416.4 5529.5 3545.8 6012.4 3062.8 5883 2579.8 6012.4 2709.3 5529.5 2579.8 5046.5 3062.8 5175.9Z"/>
<path transform="matrix(.1,0,0,-.1,0,792)" d="M3545.8 5046.5 3675.2 5529.5 3545.8 6012.4 3416.4 5529.5Z" fill="#70b089"/>
<path transform="matrix(.1,0,0,-.1,0,792)" stroke-width="20" stroke-linecap="butt" stroke-miterlimit="10" stroke-linejoin="miter" fill="none" stroke="#000000" d="M3545.8 5046.5 3675.2 5529.5 3545.8 6012.4 3416.4 5529.5Z"/>
<path transform="matrix(.1,0,0,-.1,0,792)" d="M3545.8 5046.5 3899.3 5400.1 4382.3 5529.5 3899.3 5658.9 3545.8 6012.4 3675.2 5529.5" fill="#1ff8f8"/>
<path transform="matrix(.1,0,0,-.1,0,792)" stroke-width="20" stroke-linecap="butt" stroke-miterlimit="10" stroke-linejoin="miter" fill="none" stroke="#000000" d="M3545.8 5046.5 3899.3 5400.1 4382.3 5529.5 3899.3 5658.9 3545.8 6012.4 3675.2 5529.5Z"/>
<path transform="matrix(.1,0,0,-.1,0,792)" d="M3545.8 5046.5 4028.7 5175.9 4382.3 5529.5 3899.3 5400.1Z" fill="#70b089"/>
<path transform="matrix(.1,0,0,-.1,0,792)" stroke-width="20" stroke-linecap="butt" stroke-miterlimit="10" stroke-linejoin="miter" fill="none" stroke="#000000" d="M3545.8 5046.5 4028.7 5175.9 4382.3 5529.5 3899.3 5400.1Z"/>
<path transform="matrix(.1,0,0,-.1,0,792)" d="M3545.8 5046.5 3899.3 4693 4028.7 4210 4382.3 4563.6 4865.3 4693 4511.7 5046.5 4382.3 5529.5 4028.7 5175.9" fill="#d4e826"/>
<path transform="matrix(.1,0,0,-.1,0,792)" stroke-width="20" stroke-linecap="butt" stroke-miterlimit="10" stroke-linejoin="miter" fill="none" stroke="#000000" d="M3545.8 5046.5 3899.3 4693 4028.7 4210 4382.3 4563.6 4865.3 4693 4511.7 5046.5 4382.3 5529.5 4028.7 5175.9Z"/>
<path transform="matrix(.1,0,0,-.1,0,792)" d="M2579.8 5046.5 2096.9 5175.9 1743.3 5529.5 1613.9 5046.5 1260.4 4693 1743.3 4563.6 2096.9 4210 2226.3 4693" fill="#d4e826"/>
<path transform="matrix(.1,0,0,-.1,0,792)" stroke-width="20" stroke-linecap="butt" stroke-miterlimit="10" stroke-linejoin="miter" fill="none" stroke="#000000" d="M2579.8 5046.5 2096.9 5175.9 1743.3 5529.5 1613.9 5046.5 1260.4 4693 1743.3 4563.6 2096.9 4210 2226.3 4693Z"/>
<path transform="matrix(.1,0,0,-.1,0,792)" d="M2579.8 5046.5 2226.3 5400.1 1743.3 5529.5 2096.9 5175.9Z" fill="#70b089"/>
<path transform="matrix(.1,0,0,-.1,0,792)" stroke-width="20" stroke-linecap="butt" stroke-miterlimit="10" stroke-linejoin="miter" fill="none" stroke="#000000" d="M2579.8 5046.5 2226.3 5400.1 1743.3 5529.5 2096.9 5175.9Z"/>
<path transform="matrix(.1,0,0,-.1,0,792)" d="M2579.8 5046.5 2450.4 5529.5 2579.8 6012.4 2226.3 5658.9 1743.3 5529.5 2226.3 5400.1" fill="#1ff8f8"/>
<path transform="matrix(.1,0,0,-.1,0,792)" stroke-width="20" stroke-linecap="butt" stroke-miterlimit="10" stroke-linejoin="miter" fill="none" stroke="#000000" d="M2579.8 5046.5 2450.4 5529.5 2579.8 6012.4 2226.3 5658.9 1743.3 5529.5 2226.3 5400.1Z"/>
<path transform="matrix(.1,0,0,-.1,0,792)" d="M2579.8 5046.5 2709.3 5529.5 2579.8 6012.4 2450.4 5529.5Z" fill="#70b089"/>
<path transform="matrix(.1,0,0,-.1,0,792)" stroke-width="20" stroke-linecap="butt" stroke-miterlimit="10" stroke-linejoin="miter" fill="none" stroke="#000000" d="M2579.8 5046.5 2709.3 5529.5 2579.8 6012.4 2450.4 5529.5Z"/>
<path transform="matrix(.1,0,0,-.1,0,792)" d="M2096.9 4210 1613.9 4080.6 1260.4 3727 1743.3 3856.4Z" fill="#70b089"/>
<path transform="matrix(.1,0,0,-.1,0,792)" stroke-width="20" stroke-linecap="butt" stroke-miterlimit="10" stroke-linejoin="miter" fill="none" stroke="#000000" d="M2096.9 4210 1613.9 4080.6 1260.4 3727 1743.3 3856.4Z"/>
<path transform="matrix(.1,0,0,-.1,0,792)" d="M2096.9 4210 1613.9 4339.4 1260.4 4693 1389.8 4210 1260.4 3727 1613.9 4080.6" fill="#1ff8f8"/>
<path transform="matrix(.1,0,0,-.1,0,792)" stroke-width="20" stroke-linecap="butt" stroke-miterlimit="10" stroke-linejoin="miter" fill="none" stroke="#000000" d="M2096.9 4210 1613.9 4339.4 1260.4 4693 1389.8 4210 1260.4 3727 1613.9 4080.6Z"/>
<path transform="matrix(.1,0,0,-.1,0,792)" d="M2096.9 4210 1743.3 4563.6 1260.4 4693 1613.9 4339.4Z" fill="#70b089"/>
<path transform="matrix(.1,0,0,-.1,0,792)" stroke-width="20" stroke-linecap="butt" stroke-miterlimit="10" stroke-linejoin="miter" fill="none" stroke="#000000" d="M2096.9 4210 1743.3 4563.6 1260.4 4693 1613.9 4339.4Z"/>
<path transform="matrix(.1,0,0,-.1,0,792)" d="M2226.3 2761.1 1743.3 2890.5 2096.9 2537 2579.8 2407.6Z" fill="#70b089"/>
<path transform="matrix(.1,0,0,-.1,0,792)" stroke-width="20" stroke-linecap="butt" stroke-miterlimit="10" stroke-linejoin="miter" fill="none" stroke="#000000" d="M2226.3 2761.1 1743.3 2890.5 2096.9 2537 2579.8 2407.6Z"/>
<path transform="matrix(.1,0,0,-.1,0,792)" d="M3899.3 2761.1 3545.8 2407.6 4028.7 2537 4382.3 2890.5Z" fill="#70b089"/>
<path transform="matrix(.1,0,0,-.1,0,792)" stroke-width="20" stroke-linecap="butt" stroke-miterlimit="10" stroke-linejoin="miter" fill="none" stroke="#000000" d="M3899.3 2761.1 3545.8 2407.6 4028.7 2537 4382.3 2890.5Z"/>
<path transform="matrix(.1,0,0,-.1,0,792)" d="M3899.3 5658.9 4382.3 5529.5 4028.7 5883 3545.8 6012.4Z" fill="#70b089"/>
<path transform="matrix(.1,0,0,-.1,0,792)" stroke-width="20" stroke-linecap="butt" stroke-miterlimit="10" stroke-linejoin="miter" fill="none" stroke="#000000" d="M3899.3 5658.9 4382.3 5529.5 4028.7 5883 3545.8 6012.4Z"/>
<path transform="matrix(.1,0,0,-.1,0,792)" d="M2226.3 5658.9 2579.8 6012.4 2096.9 5883 1743.3 5529.5Z" fill="#70b089"/>
<path transform="matrix(.1,0,0,-.1,0,792)" stroke-width="20" stroke-linecap="butt" stroke-miterlimit="10" stroke-linejoin="miter" fill="none" stroke="#000000" d="M2226.3 5658.9 2579.8 6012.4 2096.9 5883 1743.3 5529.5Z"/>
<path transform="matrix(.1,0,0,-.1,0,792)" d="M4028.7 4210 4511.7 4339.4 4865.3 4693 4382.3 4563.6Z" fill="#70b089"/>
<path transform="matrix(.1,0,0,-.1,0,792)" stroke-width="20" stroke-linecap="butt" stroke-miterlimit="10" stroke-linejoin="miter" fill="none" stroke="#000000" d="M4028.7 4210 4511.7 4339.4 4865.3 4693 4382.3 4563.6Z"/>
<path transform="matrix(.1,0,0,-.1,0,792)" d="M4028.7 4210 4511.7 4080.6 4865.3 3727 4735.8 4210 4865.3 4693 4511.7 4339.4" fill="#1ff8f8"/>
<path transform="matrix(.1,0,0,-.1,0,792)" stroke-width="20" stroke-linecap="butt" stroke-miterlimit="10" stroke-linejoin="miter" fill="none" stroke="#000000" d="M4028.7 4210 4511.7 4080.6 4865.3 3727 4735.8 4210 4865.3 4693 4511.7 4339.4Z"/>
<path transform="matrix(.1,0,0,-.1,0,792)" d="M4028.7 4210 4382.3 3856.4 4865.3 3727 4511.7 4080.6Z" fill="#70b089"/>
<path transform="matrix(.1,0,0,-.1,0,792)" stroke-width="20" stroke-linecap="butt" stroke-miterlimit="10" stroke-linejoin="miter" fill="none" stroke="#000000" d="M4028.7 4210 4382.3 3856.4 4865.3 3727 4511.7 4080.6Z"/>
<path transform="matrix(.1,0,0,-.1,0,792)" d="M4028.7 5883 4382.3 5529.5 4511.7 6012.4 4865.3 6366 4382.3 6495.4 4028.7 6849 3899.3 6366 3545.8 6012.4" fill="#d4e826"/>
<path transform="matrix(.1,0,0,-.1,0,792)" stroke-width="20" stroke-linecap="butt" stroke-miterlimit="10" stroke-linejoin="miter" fill="none" stroke="#000000" d="M4028.7 5883 4382.3 5529.5 4511.7 6012.4 4865.3 6366 4382.3 6495.4 4028.7 6849 3899.3 6366 3545.8 6012.4Z"/>
<path transform="matrix(.1,0,0,-.1,0,792)" d="M3062.8 5883 3545.8 6012.4 3899.3 6366 4028.7 6849 3899.3 7331.9 3545.8 7685.5 3062.8 7814.9 2579.8 7685.5 2226.3 7331.9 2096.9 6849 2226.3 6366 2579.8 6012.4"/>
<path transform="matrix(.1,0,0,-.1,0,792)" stroke-width="20" stroke-linecap="butt" stroke-miterlimit="10" stroke-linejoin="miter" fill="none" stroke="#000000" d="M3062.8 5883 3545.8 6012.4 3899.3 6366 4028.7 6849 3899.3 7331.9 3545.8 7685.5 3062.8 7814.9 2579.8 7685.5 2226.3 7331.9 2096.9 6849 2226.3 6366 2579.8 6012.4Z"/>
<path transform="matrix(.1,0,0,-.1,0,792)" d="M2096.9 5883 2579.8 6012.4 2226.3 6366 2096.9 6849 1743.3 6495.4 1260.4 6366 1613.9 6012.4 1743.3 5529.5" fill="#d4e826"/>
<path transform="matrix(.1,0,0,-.1,0,792)" stroke-width="20" stroke-linecap="butt" stroke-miterlimit="10" stroke-linejoin="miter" fill="none" stroke="#000000" d="M2096.9 5883 2579.8 6012.4 2226.3 6366 2096.9 6849 1743.3 6495.4 1260.4 6366 1613.9 6012.4 1743.3 5529.5Z"/>
<path transform="matrix(.1,0,0,-.1,0,792)" d="M2096.9 2537 1743.3 2890.5 1613.9 2407.6 1260.4 2054 1743.3 1924.6 2096.9 1571 2226.3 2054 2579.8 2407.6" fill="#d4e826"/>
<path transform="matrix(.1,0,0,-.1,0,792)" stroke-width="20" stroke-linecap="butt" stroke-miterlimit="10" stroke-linejoin="miter" fill="none" stroke="#000000" d="M2096.9 2537 1743.3 2890.5 1613.9 2407.6 1260.4 2054 1743.3 1924.6 2096.9 1571 2226.3 2054 2579.8 2407.6Z"/>
<path transform="matrix(.1,0,0,-.1,0,792)" d="M3062.8 2537 2579.8 2407.6 2226.3 2054 2096.9 1571 2226.3 1088.1 2579.8 734.5 3062.8 605.102 3545.8 734.5 3899.3 1088.1 4028.7 1571 3899.3 2054 3545.8 2407.6"/>
<path transform="matrix(.1,0,0,-.1,0,792)" stroke-width="20" stroke-linecap="butt" stroke-miterlimit="10" stroke-linejoin="miter" fill="none" stroke="#000000" d="M3062.8 2537 2579.8 2407.6 2226.3 2054 2096.9 1571 2226.3 1088.1 2579.8 734.5 3062.8 605.102 3545.8 734.5 3899.3 1088.1 4028.7 1571 3899.3 2054 3545.8 2407.6Z"/>
<path transform="matrix(.1,0,0,-.1,0,792)" d="M4028.7 2537 3545.8 2407.6 3899.3 2054 4028.7 1571 4382.3 1924.6 4865.3 2054 4511.7 2407.6 4382.3 2890.5" fill="#d4e826"/>
<path transform="matrix(.1,0,0,-.1,0,792)" stroke-width="20" stroke-linecap="butt" stroke-miterlimit="10" stroke-linejoin="miter" fill="none" stroke="#000000" d="M4028.7 2537 3545.8 2407.6 3899.3 2054 4028.7 1571 4382.3 1924.6 4865.3 2054 4511.7 2407.6 4382.3 2890.5Z"/>
<path transform="matrix(.1,0,0,-.1,0,792)" d="M1743.3 5529.5 1613.9 6012.4 1260.4 6366 777.398 6495.4 294.398 6366-59.1016 6012.4-188.5 5529.5-59.1016 5046.5 294.398 4693 777.398 4563.6 1260.4 4693 1613.9 5046.5"/>
<path transform="matrix(.1,0,0,-.1,0,792)" stroke-width="20" stroke-linecap="butt" stroke-miterlimit="10" stroke-linejoin="miter" fill="none" stroke="#000000" d="M1743.3 5529.5 1613.9 6012.4 1260.4 6366 777.398 6495.4 294.398 6366-59.1016 6012.4-188.5 5529.5-59.1016 5046.5 294.398 4693 777.398 4563.6 1260.4 4693 1613.9 5046.5Z"/>
<path transform="matrix(.1,0,0,-.1,0,792)" d="M1743.3 2890.5 1613.9 3373.5 1260.4 3727 777.398 3856.4 294.398 3727-59.1016 3373.5-188.5 2890.5-59.1016 2407.6 294.398 2054 777.398 1924.6 1260.4 2054 1613.9 2407.6"/>
<path transform="matrix(.1,0,0,-.1,0,792)" stroke-width="20" stroke-linecap="butt" stroke-miterlimit="10" stroke-linejoin="miter" fill="none" stroke="#000000" d="M1743.3 2890.5 1613.9 3373.5 1260.4 3727 777.398 3856.4 294.398 3727-59.1016 3373.5-188.5 2890.5-59.1016 2407.6 294.398 2054 777.398 1924.6 1260.4 2054 1613.9 2407.6Z"/>
<path transform="matrix(.1,0,0,-.1,0,792)" d="M4382.3 2890.5 4511.7 2407.6 4865.3 2054 5348.2 1924.6 5831.2 2054 6184.7 2407.6 6314.1 2890.5 6184.7 3373.5 5831.2 3727 5348.2 3856.4 4865.3 3727 4511.7 3373.5"/>
<path transform="matrix(.1,0,0,-.1,0,792)" stroke-width="20" stroke-linecap="butt" stroke-miterlimit="10" stroke-linejoin="miter" fill="none" stroke="#000000" d="M4382.3 2890.5 4511.7 2407.6 4865.3 2054 5348.2 1924.6 5831.2 2054 6184.7 2407.6 6314.1 2890.5 6184.7 3373.5 5831.2 3727 5348.2 3856.4 4865.3 3727 4511.7 3373.5Z"/>
<path transform="matrix(.1,0,0,-.1,0,792)" d="M4382.3 5529.5 4511.7 5046.5 4865.3 4693 5348.2 4563.6 5831.2 4693 6184.7 5046.5 6314.1 5529.5 6184.7 6012.4 5831.2 6366 5348.2 6495.4 4865.3 6366 4511.7 6012.4"/>
<path transform="matrix(.1,0,0,-.1,0,792)" stroke-width="20" stroke-linecap="butt" stroke-miterlimit="10" stroke-linejoin="miter" fill="none" stroke="#000000" d="M4382.3 5529.5 4511.7 5046.5 4865.3 4693 5348.2 4563.6 5831.2 4693 6184.7 5046.5 6314.1 5529.5 6184.7 6012.4 5831.2 6366 5348.2 6495.4 4865.3 6366 4511.7 6012.4Z"/>
<path transform="matrix(.1,0,0,-.1,0,792)" d="M1389.8 4210 1260.4 4693 1131 4210 1260.4 3727Z" fill="#70b089"/>
<path transform="matrix(.1,0,0,-.1,0,792)" stroke-width="20" stroke-linecap="butt" stroke-miterlimit="10" stroke-linejoin="miter" fill="none" stroke="#000000" d="M1389.8 4210 1260.4 4693 1131 4210 1260.4 3727Z"/>
<path transform="matrix(.1,0,0,-.1,0,792)" d="M1743.3 1924.6 1260.4 2054 1613.9 1700.5 2096.9 1571Z" fill="#70b089"/>
<path transform="matrix(.1,0,0,-.1,0,792)" stroke-width="20" stroke-linecap="butt" stroke-miterlimit="10" stroke-linejoin="miter" fill="none" stroke="#000000" d="M1743.3 1924.6 1260.4 2054 1613.9 1700.5 2096.9 1571Z"/>
<path transform="matrix(.1,0,0,-.1,0,792)" d="M4382.3 1924.6 4028.7 1571 4511.7 1700.5 4865.3 2054Z" fill="#70b089"/>
<path transform="matrix(.1,0,0,-.1,0,792)" stroke-width="20" stroke-linecap="butt" stroke-miterlimit="10" stroke-linejoin="miter" fill="none" stroke="#000000" d="M4382.3 1924.6 4028.7 1571 4511.7 1700.5 4865.3 2054Z"/>
<path transform="matrix(.1,0,0,-.1,0,792)" d="M4382.3 6495.4 4865.3 6366 4511.7 6719.5 4028.7 6849Z" fill="#70b089"/>
<path transform="matrix(.1,0,0,-.1,0,792)" stroke-width="20" stroke-linecap="butt" stroke-miterlimit="10" stroke-linejoin="miter" fill="none" stroke="#000000" d="M4382.3 6495.4 4865.3 6366 4511.7 6719.5 4028.7 6849Z"/>
<path transform="matrix(.1,0,0,-.1,0,792)" d="M1743.3 6495.4 2096.9 6849 1613.9 6719.5 1260.4 6366Z" fill="#70b089"/>
<path transform="matrix(.1,0,0,-.1,0,792)" stroke-width="20" stroke-linecap="butt" stroke-miterlimit="10" stroke-linejoin="miter" fill="none" stroke="#000000" d="M1743.3 6495.4 2096.9 6849 1613.9 6719.5 1260.4 6366Z"/>
<path transform="matrix(.1,0,0,-.1,0,792)" d="M1260.4 6366 1131 6849 1260.4 7331.9 777.398 7202.5 294.398 7331.9 423.898 6849 294.398 6366 777.398 6495.4" fill="#d4e826"/>
<path transform="matrix(.1,0,0,-.1,0,792)" stroke-width="20" stroke-linecap="butt" stroke-miterlimit="10" stroke-linejoin="miter" fill="none" stroke="#000000" d="M1260.4 6366 1131 6849 1260.4 7331.9 777.398 7202.5 294.398 7331.9 423.898 6849 294.398 6366 777.398 6495.4Z"/>
<path transform="matrix(.1,0,0,-.1,0,792)" d="M1260.4 6366 1389.8 6849 1260.4 7331.9 1131 6849Z" fill="#70b089"/>
<path transform="matrix(.1,0,0,-.1,0,792)" stroke-width="20" stroke-linecap="butt" stroke-miterlimit="10" stroke-linejoin="miter" fill="none" stroke="#000000" d="M1260.4 6366 1389.8 6849 1260.4 7331.9 1131 6849Z"/>
<path transform="matrix(.1,0,0,-.1,0,792)" d="M1260.4 6366 1613.9 6719.5 2096.9 6849 1613.9 6978.4 1260.4 7331.9 1389.8 6849" fill="#1ff8f8"/>
<path transform="matrix(.1,0,0,-.1,0,792)" stroke-width="20" stroke-linecap="butt" stroke-miterlimit="10" stroke-linejoin="miter" fill="none" stroke="#000000" d="M1260.4 6366 1613.9 6719.5 2096.9 6849 1613.9 6978.4 1260.4 7331.9 1389.8 6849Z"/>
<path transform="matrix(.1,0,0,-.1,0,792)" d="M1260.4 4693 777.398 4563.6 294.398 4693 423.898 4210 294.398 3727 777.398 3856.4 1260.4 3727 1131 4210" fill="#d4e826"/>
<path transform="matrix(.1,0,0,-.1,0,792)" stroke-width="20" stroke-linecap="butt" stroke-miterlimit="10" stroke-linejoin="miter" fill="none" stroke="#000000" d="M1260.4 4693 777.398 4563.6 294.398 4693 423.898 4210 294.398 3727 777.398 3856.4 1260.4 3727 1131 4210Z"/>
<path transform="matrix(.1,0,0,-.1,0,792)" d="M1260.4 2054 1389.8 1571 1260.4 1088.1 1613.9 1441.6 2096.9 1571 1613.9 1700.5" fill="#1ff8f8"/>
<path transform="matrix(.1,0,0,-.1,0,792)" stroke-width="20" stroke-linecap="butt" stroke-miterlimit="10" stroke-linejoin="miter" fill="none" stroke="#000000" d="M1260.4 2054 1389.8 1571 1260.4 1088.1 1613.9 1441.6 2096.9 1571 1613.9 1700.5Z"/>
<path transform="matrix(.1,0,0,-.1,0,792)" d="M1260.4 2054 1131 1571 1260.4 1088.1 1389.8 1571Z" fill="#70b089"/>
<path transform="matrix(.1,0,0,-.1,0,792)" stroke-width="20" stroke-linecap="butt" stroke-miterlimit="10" stroke-linejoin="miter" fill="none" stroke="#000000" d="M1260.4 2054 1131 1571 1260.4 1088.1 1389.8 1571Z"/>
<path transform="matrix(.1,0,0,-.1,0,792)" d="M1260.4 2054 777.398 1924.6 294.398 2054 423.898 1571 294.398 1088.1 777.398 1217.5 1260.4 1088.1 1131 1571" fill="#d4e826"/>
<path transform="matrix(.1,0,0,-.1,0,792)" stroke-width="20" stroke-linecap="butt" stroke-miterlimit="10" stroke-linejoin="miter" fill="none" stroke="#000000" d="M1260.4 2054 777.398 1924.6 294.398 2054 423.898 1571 294.398 1088.1 777.398 1217.5 1260.4 1088.1 1131 1571Z"/>
<path transform="matrix(.1,0,0,-.1,0,792)" d="M4735.8 4210 4865.3 3727 4994.7 4210 4865.3 4693Z" fill="#70b089"/>
<path transform="matrix(.1,0,0,-.1,0,792)" stroke-width="20" stroke-linecap="butt" stroke-miterlimit="10" stroke-linejoin="miter" fill="none" stroke="#000000" d="M4735.8 4210 4865.3 3727 4994.7 4210 4865.3 4693Z"/>
<path transform="matrix(.1,0,0,-.1,0,792)" d="M4511.7 6719.5 4865.3 6366 4735.8 6849 4865.3 7331.9 4511.7 6978.4 4028.7 6849" fill="#1ff8f8"/>
<path transform="matrix(.1,0,0,-.1,0,792)" stroke-width="20" stroke-linecap="butt" stroke-miterlimit="10" stroke-linejoin="miter" fill="none" stroke="#000000" d="M4511.7 6719.5 4865.3 6366 4735.8 6849 4865.3 7331.9 4511.7 6978.4 4028.7 6849Z"/>
<path transform="matrix(.1,0,0,-.1,0,792)" d="M4511.7 1700.5 4028.7 1571 4511.7 1441.6 4865.3 1088.1 4735.8 1571 4865.3 2054" fill="#1ff8f8"/>
<path transform="matrix(.1,0,0,-.1,0,792)" stroke-width="20" stroke-linecap="butt" stroke-miterlimit="10" stroke-linejoin="miter" fill="none" stroke="#000000" d="M4511.7 1700.5 4028.7 1571 4511.7 1441.6 4865.3 1088.1 4735.8 1571 4865.3 2054Z"/>
<path transform="matrix(.1,0,0,-.1,0,792)" d="M4865.3 2054 4994.7 1571 4865.3 1088.1 5348.2 1217.5 5831.2 1088.1 5701.8 1571 5831.2 2054 5348.2 1924.6" fill="#d4e826"/>
<path transform="matrix(.1,0,0,-.1,0,792)" stroke-width="20" stroke-linecap="butt" stroke-miterlimit="10" stroke-linejoin="miter" fill="none" stroke="#000000" d="M4865.3 2054 4994.7 1571 4865.3 1088.1 5348.2 1217.5 5831.2 1088.1 5701.8 1571 5831.2 2054 5348.2 1924.6Z"/>
<path transform="matrix(.1,0,0,-.1,0,792)" d="M4865.3 2054 4735.8 1571 4865.3 1088.1 4994.7 1571Z" fill="#70b089"/>
<path transform="matrix(.1,0,0,-.1,0,792)" stroke-width="20" stroke-linecap="butt" stroke-miterlimit="10" stroke-linejoin="miter" fill="none" stroke="#000000" d="M4865.3 2054 4735.8 1571 4865.3 1088.1 4994.7 1571Z"/>
<path transform="matrix(.1,0,0,-.1,0,792)" d="M4865.3 3727 5348.2 3856.4 5831.2 3727 5701.8 4210 5831.2 4693 5348.2 4563.6 4865.3 4693 4994.7 4210" fill="#d4e826"/>
<path transform="matrix(.1,0,0,-.1,0,792)" stroke-width="20" stroke-linecap="butt" stroke-miterlimit="10" stroke-linejoin="miter" fill="none" stroke="#000000" d="M4865.3 3727 5348.2 3856.4 5831.2 3727 5701.8 4210 5831.2 4693 5348.2 4563.6 4865.3 4693 4994.7 4210Z"/>
<path transform="matrix(.1,0,0,-.1,0,792)" d="M4865.3 6366 4994.7 6849 4865.3 7331.9 4735.8 6849Z" fill="#70b089"/>
<path transform="matrix(.1,0,0,-.1,0,792)" stroke-width="20" stroke-linecap="butt" stroke-miterlimit="10" stroke-linejoin="miter" fill="none" stroke="#000000" d="M4865.3 6366 4994.7 6849 4865.3 7331.9 4735.8 6849Z"/>
<path transform="matrix(.1,0,0,-.1,0,792)" d="M4865.3 6366 5348.2 6495.4 5831.2 6366 5701.8 6849 5831.2 7331.9 5348.2 7202.5 4865.3 7331.9 4994.7 6849" fill="#d4e826"/>
<path transform="matrix(.1,0,0,-.1,0,792)" stroke-width="20" stroke-linecap="butt" stroke-miterlimit="10" stroke-linejoin="miter" fill="none" stroke="#000000" d="M4865.3 6366 5348.2 6495.4 5831.2 6366 5701.8 6849 5831.2 7331.9 5348.2 7202.5 4865.3 7331.9 4994.7 6849Z"/>
<path transform="matrix(.1,0,0,-.1,0,792)" d="M4028.7 6849 4382.3 7202.5 4865.3 7331.9 4511.7 7685.5 4382.3 8168.4 4028.7 7814.9 3545.8 7685.5 3899.3 7331.9" fill="#d4e826"/>
<path transform="matrix(.1,0,0,-.1,0,792)" stroke-width="20" stroke-linecap="butt" stroke-miterlimit="10" stroke-linejoin="miter" fill="none" stroke="#000000" d="M4028.7 6849 4382.3 7202.5 4865.3 7331.9 4511.7 7685.5 4382.3 8168.4 4028.7 7814.9 3545.8 7685.5 3899.3 7331.9Z"/>
<path transform="matrix(.1,0,0,-.1,0,792)" d="M4028.7 6849 4511.7 6978.4 4865.3 7331.9 4382.3 7202.5Z" fill="#70b089"/>
<path transform="matrix(.1,0,0,-.1,0,792)" stroke-width="20" stroke-linecap="butt" stroke-miterlimit="10" stroke-linejoin="miter" fill="none" stroke="#000000" d="M4028.7 6849 4511.7 6978.4 4865.3 7331.9 4382.3 7202.5Z"/>
<path transform="matrix(.1,0,0,-.1,0,792)" d="M2096.9 6849 1743.3 7202.5 1260.4 7331.9 1613.9 6978.4Z" fill="#70b089"/>
<path transform="matrix(.1,0,0,-.1,0,792)" stroke-width="20" stroke-linecap="butt" stroke-miterlimit="10" stroke-linejoin="miter" fill="none" stroke="#000000" d="M2096.9 6849 1743.3 7202.5 1260.4 7331.9 1613.9 6978.4Z"/>
<path transform="matrix(.1,0,0,-.1,0,792)" d="M2096.9 6849 2226.3 7331.9 2579.8 7685.5 2096.9 7814.9 1743.3 8168.4 1613.9 7685.5 1260.4 7331.9 1743.3 7202.5" fill="#d4e826"/>
<path transform="matrix(.1,0,0,-.1,0,792)" stroke-width="20" stroke-linecap="butt" stroke-miterlimit="10" stroke-linejoin="miter" fill="none" stroke="#000000" d="M2096.9 6849 2226.3 7331.9 2579.8 7685.5 2096.9 7814.9 1743.3 8168.4 1613.9 7685.5 1260.4 7331.9 1743.3 7202.5Z"/>
<path transform="matrix(.1,0,0,-.1,0,792)" d="M2096.9 1571 1743.3 1217.5 1260.4 1088.1 1613.9 734.5 1743.3 251.602 2096.9 605.102 2579.8 734.5 2226.3 1088.1" fill="#d4e826"/>
<path transform="matrix(.1,0,0,-.1,0,792)" stroke-width="20" stroke-linecap="butt" stroke-miterlimit="10" stroke-linejoin="miter" fill="none" stroke="#000000" d="M2096.9 1571 1743.3 1217.5 1260.4 1088.1 1613.9 734.5 1743.3 251.602 2096.9 605.102 2579.8 734.5 2226.3 1088.1Z"/>
<path transform="matrix(.1,0,0,-.1,0,792)" d="M2096.9 1571 1613.9 1441.6 1260.4 1088.1 1743.3 1217.5Z" fill="#70b089"/>
<path transform="matrix(.1,0,0,-.1,0,792)" stroke-width="20" stroke-linecap="butt" stroke-miterlimit="10" stroke-linejoin="miter" fill="none" stroke="#000000" d="M2096.9 1571 1613.9 1441.6 1260.4 1088.1 1743.3 1217.5Z"/>
<path transform="matrix(.1,0,0,-.1,0,792)" d="M4028.7 1571 4382.3 1217.5 4865.3 1088.1 4511.7 1441.6Z" fill="#70b089"/>
<path transform="matrix(.1,0,0,-.1,0,792)" stroke-width="20" stroke-linecap="butt" stroke-miterlimit="10" stroke-linejoin="miter" fill="none" stroke="#000000" d="M4028.7 1571 4382.3 1217.5 4865.3 1088.1 4511.7 1441.6Z"/>
<path transform="matrix(.1,0,0,-.1,0,792)" d="M4028.7 1571 3899.3 1088.1 3545.8 734.5 4028.7 605.102 4382.3 251.602 4511.7 734.5 4865.3 1088.1 4382.3 1217.5" fill="#d4e826"/>
<path transform="matrix(.1,0,0,-.1,0,792)" stroke-width="20" stroke-linecap="butt" stroke-miterlimit="10" stroke-linejoin="miter" fill="none" stroke="#000000" d="M4028.7 1571 3899.3 1088.1 3545.8 734.5 4028.7 605.102 4382.3 251.602 4511.7 734.5 4865.3 1088.1 4382.3 1217.5Z"/>
<path transform="matrix(.1,0,0,-.1,0,792)" d="M777.398 7202.5 1260.4 7331.9 1613.9 7685.5 1743.3 8168.4 1613.9 8651.4 1260.4 9005 777.398 9134.4 294.398 9005-59.1016 8651.4-188.5 8168.4-59.1016 7685.5 294.398 7331.9"/>
<path transform="matrix(.1,0,0,-.1,0,792)" stroke-width="20" stroke-linecap="butt" stroke-miterlimit="10" stroke-linejoin="miter" fill="none" stroke="#000000" d="M777.398 7202.5 1260.4 7331.9 1613.9 7685.5 1743.3 8168.4 1613.9 8651.4 1260.4 9005 777.398 9134.4 294.398 9005-59.1016 8651.4-188.5 8168.4-59.1016 7685.5 294.398 7331.9Z"/>
<path transform="matrix(.1,0,0,-.1,0,792)" d="M777.398 1217.5 294.398 1088.1-59.1016 734.5-188.5 251.602-59.1016-231.398 294.398-585 777.398-714.398 1260.4-585 1613.9-231.398 1743.3 251.602 1613.9 734.5 1260.4 1088.1"/>
<path transform="matrix(.1,0,0,-.1,0,792)" stroke-width="20" stroke-linecap="butt" stroke-miterlimit="10" stroke-linejoin="miter" fill="none" stroke="#000000" d="M777.398 1217.5 294.398 1088.1-59.1016 734.5-188.5 251.602-59.1016-231.398 294.398-585 777.398-714.398 1260.4-585 1613.9-231.398 1743.3 251.602 1613.9 734.5 1260.4 1088.1Z"/>
<path transform="matrix(.1,0,0,-.1,0,792)" d="M4865.3 1088.1 4511.7 734.5 4382.3 251.602 4511.7-231.398 4865.3-585 5348.2-714.398 5831.2-585 6184.7-231.398 6314.1 251.602 6184.7 734.5 5831.2 1088.1 5348.2 1217.5"/>
<path transform="matrix(.1,0,0,-.1,0,792)" stroke-width="20" stroke-linecap="butt" stroke-miterlimit="10" stroke-linejoin="miter" fill="none" stroke="#000000" d="M4865.3 1088.1 4511.7 734.5 4382.3 251.602 4511.7-231.398 4865.3-585 5348.2-714.398 5831.2-585 6184.7-231.398 6314.1 251.602 6184.7 734.5 5831.2 1088.1 5348.2 1217.5Z"/>
<path transform="matrix(.1,0,0,-.1,0,792)" d="M4865.3 7331.9 5348.2 7202.5 5831.2 7331.9 6184.7 7685.5 6314.1 8168.4 6184.7 8651.4 5831.2 9005 5348.2 9134.4 4865.3 9005 4511.7 8651.4 4382.3 8168.4 4511.7 7685.5"/>
<path transform="matrix(.1,0,0,-.1,0,792)" stroke-width="20" stroke-linecap="butt" stroke-miterlimit="10" stroke-linejoin="miter" fill="none" stroke="#000000" d="M4865.3 7331.9 5348.2 7202.5 5831.2 7331.9 6184.7 7685.5 6314.1 8168.4 6184.7 8651.4 5831.2 9005 5348.2 9134.4 4865.3 9005 4511.7 8651.4 4382.3 8168.4 4511.7 7685.5Z"/>
<path transform="matrix(.1,0,0,-.1,0,792)" d="M3545.8 7685.5 3416.4 8168.4 3545.8 8651.4 3062.8 8522 2579.8 8651.4 2709.3 8168.4 2579.8 7685.5 3062.8 7814.9" fill="#d4e826"/>
<path transform="matrix(.1,0,0,-.1,0,792)" stroke-width="20" stroke-linecap="butt" stroke-miterlimit="10" stroke-linejoin="miter" fill="none" stroke="#000000" d="M3545.8 7685.5 3416.4 8168.4 3545.8 8651.4 3062.8 8522 2579.8 8651.4 2709.3 8168.4 2579.8 7685.5 3062.8 7814.9Z"/>
<path transform="matrix(.1,0,0,-.1,0,792)" d="M3545.8 7685.5 3675.2 8168.4 3545.8 8651.4 3416.4 8168.4Z" fill="#70b089"/>
<path transform="matrix(.1,0,0,-.1,0,792)" stroke-width="20" stroke-linecap="butt" stroke-miterlimit="10" stroke-linejoin="miter" fill="none" stroke="#000000" d="M3545.8 7685.5 3675.2 8168.4 3545.8 8651.4 3416.4 8168.4Z"/>
<path transform="matrix(.1,0,0,-.1,0,792)" d="M3545.8 7685.5 3899.3 8039 4382.3 8168.4 3899.3 8297.8 3545.8 8651.4 3675.2 8168.4" fill="#1ff8f8"/>
<path transform="matrix(.1,0,0,-.1,0,792)" stroke-width="20" stroke-linecap="butt" stroke-miterlimit="10" stroke-linejoin="miter" fill="none" stroke="#000000" d="M3545.8 7685.5 3899.3 8039 4382.3 8168.4 3899.3 8297.8 3545.8 8651.4 3675.2 8168.4Z"/>
<path transform="matrix(.1,0,0,-.1,0,792)" d="M3545.8 7685.5 4028.7 7814.9 4382.3 8168.4 3899.3 8039Z" fill="#70b089"/>
<path transform="matrix(.1,0,0,-.1,0,792)" stroke-width="20" stroke-linecap="butt" stroke-miterlimit="10" stroke-linejoin="miter" fill="none" stroke="#000000" d="M3545.8 7685.5 4028.7 7814.9 4382.3 8168.4 3899.3 8039Z"/>
<path transform="matrix(.1,0,0,-.1,0,792)" d="M2579.8 7685.5 2226.3 8039 1743.3 8168.4 2096.9 7814.9Z" fill="#70b089"/>
<path transform="matrix(.1,0,0,-.1,0,792)" stroke-width="20" stroke-linecap="butt" stroke-miterlimit="10" stroke-linejoin="miter" fill="none" stroke="#000000" d="M2579.8 7685.5 2226.3 8039 1743.3 8168.4 2096.9 7814.9Z"/>
<path transform="matrix(.1,0,0,-.1,0,792)" d="M2579.8 7685.5 2450.4 8168.4 2579.8 8651.4 2226.3 8297.8 1743.3 8168.4 2226.3 8039" fill="#1ff8f8"/>
<path transform="matrix(.1,0,0,-.1,0,792)" stroke-width="20" stroke-linecap="butt" stroke-miterlimit="10" stroke-linejoin="miter" fill="none" stroke="#000000" d="M2579.8 7685.5 2450.4 8168.4 2579.8 8651.4 2226.3 8297.8 1743.3 8168.4 2226.3 8039Z"/>
<path transform="matrix(.1,0,0,-.1,0,792)" d="M2579.8 7685.5 2709.3 8168.4 2579.8 8651.4 2450.4 8168.4Z" fill="#70b089"/>
<path transform="matrix(.1,0,0,-.1,0,792)" stroke-width="20" stroke-linecap="butt" stroke-miterlimit="10" stroke-linejoin="miter" fill="none" stroke="#000000" d="M2579.8 7685.5 2709.3 8168.4 2579.8 8651.4 2450.4 8168.4Z"/>
<path transform="matrix(.1,0,0,-.1,0,792)" d="M2579.8 734.5 2709.3 251.602 2579.8-231.398 3062.8-102 3545.8-231.398 3416.4 251.602 3545.8 734.5 3062.8 605.102" fill="#d4e826"/>
<path transform="matrix(.1,0,0,-.1,0,792)" stroke-width="20" stroke-linecap="butt" stroke-miterlimit="10" stroke-linejoin="miter" fill="none" stroke="#000000" d="M2579.8 734.5 2709.3 251.602 2579.8-231.398 3062.8-102 3545.8-231.398 3416.4 251.602 3545.8 734.5 3062.8 605.102Z"/>
<path transform="matrix(.1,0,0,-.1,0,792)" d="M2579.8 734.5 2450.4 251.602 2579.8-231.398 2709.3 251.602Z" fill="#70b089"/>
<path transform="matrix(.1,0,0,-.1,0,792)" stroke-width="20" stroke-linecap="butt" stroke-miterlimit="10" stroke-linejoin="miter" fill="none" stroke="#000000" d="M2579.8 734.5 2450.4 251.602 2579.8-231.398 2709.3 251.602Z"/>
<path transform="matrix(.1,0,0,-.1,0,792)" d="M2579.8 734.5 2226.3 381 1743.3 251.602 2226.3 122.199 2579.8-231.398 2450.4 251.602" fill="#1ff8f8"/>
<path transform="matrix(.1,0,0,-.1,0,792)" stroke-width="20" stroke-linecap="butt" stroke-miterlimit="10" stroke-linejoin="miter" fill="none" stroke="#000000" d="M2579.8 734.5 2226.3 381 1743.3 251.602 2226.3 122.199 2579.8-231.398 2450.4 251.602Z"/>
<path transform="matrix(.1,0,0,-.1,0,792)" d="M2579.8 734.5 2096.9 605.102 1743.3 251.602 2226.3 381Z" fill="#70b089"/>
<path transform="matrix(.1,0,0,-.1,0,792)" stroke-width="20" stroke-linecap="butt" stroke-miterlimit="10" stroke-linejoin="miter" fill="none" stroke="#000000" d="M2579.8 734.5 2096.9 605.102 1743.3 251.602 2226.3 381Z"/>
<path transform="matrix(.1,0,0,-.1,0,792)" d="M3545.8 734.5 3899.3 381 4382.3 251.602 4028.7 605.102Z" fill="#70b089"/>
<path transform="matrix(.1,0,0,-.1,0,792)" stroke-width="20" stroke-linecap="butt" stroke-miterlimit="10" stroke-linejoin="miter" fill="none" stroke="#000000" d="M3545.8 734.5 3899.3 381 4382.3 251.602 4028.7 605.102Z"/>
<path transform="matrix(.1,0,0,-.1,0,792)" d="M3545.8 734.5 3675.2 251.602 3545.8-231.398 3899.3 122.199 4382.3 251.602 3899.3 381" fill="#1ff8f8"/>
<path transform="matrix(.1,0,0,-.1,0,792)" stroke-width="20" stroke-linecap="butt" stroke-miterlimit="10" stroke-linejoin="miter" fill="none" stroke="#000000" d="M3545.8 734.5 3675.2 251.602 3545.8-231.398 3899.3 122.199 4382.3 251.602 3899.3 381Z"/>
<path transform="matrix(.1,0,0,-.1,0,792)" d="M3545.8 734.5 3416.4 251.602 3545.8-231.398 3675.2 251.602Z" fill="#70b089"/>
<path transform="matrix(.1,0,0,-.1,0,792)" stroke-width="20" stroke-linecap="butt" stroke-miterlimit="10" stroke-linejoin="miter" fill="none" stroke="#000000" d="M3545.8 734.5 3416.4 251.602 3545.8-231.398 3675.2 251.602Z"/>
<path transform="matrix(.1,0,0,-.1,0,792)" d="M423.898 6849 294.398 7331.9 165 6849 294.398 6366Z" fill="#70b089"/>
<path transform="matrix(.1,0,0,-.1,0,792)" stroke-width="20" stroke-linecap="butt" stroke-miterlimit="10" stroke-linejoin="miter" fill="none" stroke="#000000" d="M423.898 6849 294.398 7331.9 165 6849 294.398 6366Z"/>
<path transform="matrix(.1,0,0,-.1,0,792)" d="M423.898 4210 294.398 4693 165 4210 294.398 3727Z" fill="#70b089"/>
<path transform="matrix(.1,0,0,-.1,0,792)" stroke-width="20" stroke-linecap="butt" stroke-miterlimit="10" stroke-linejoin="miter" fill="none" stroke="#000000" d="M423.898 4210 294.398 4693 165 4210 294.398 3727Z"/>
<path transform="matrix(.1,0,0,-.1,0,792)" d="M423.898 1571 294.398 2054 165 1571 294.398 1088.1Z" fill="#70b089"/>
<path transform="matrix(.1,0,0,-.1,0,792)" stroke-width="20" stroke-linecap="butt" stroke-miterlimit="10" stroke-linejoin="miter" fill="none" stroke="#000000" d="M423.898 1571 294.398 2054 165 1571 294.398 1088.1Z"/>
<path transform="matrix(.1,0,0,-.1,0,792)" d="M294.398 2054-59.1016 1700.5-542.102 1571-59.1016 1441.6 294.398 1088.1 165 1571" fill="#1ff8f8"/>
<path transform="matrix(.1,0,0,-.1,0,792)" stroke-width="20" stroke-linecap="butt" stroke-miterlimit="10" stroke-linejoin="miter" fill="none" stroke="#000000" d="M294.398 2054-59.1016 1700.5-542.102 1571-59.1016 1441.6 294.398 1088.1 165 1571Z"/>
<path transform="matrix(.1,0,0,-.1,0,792)" d="M294.398 2054-188.5 1924.6-542.102 1571-59.1016 1700.5Z" fill="#70b089"/>
<path transform="matrix(.1,0,0,-.1,0,792)" stroke-width="20" stroke-linecap="butt" stroke-miterlimit="10" stroke-linejoin="miter" fill="none" stroke="#000000" d="M294.398 2054-188.5 1924.6-542.102 1571-59.1016 1700.5Z"/>
<path transform="matrix(.1,0,0,-.1,0,792)" d="M294.398 2054-59.1016 2407.6-188.5 2890.5-542.102 2537-1025 2407.6-671.5 2054-542.102 1571-188.5 1924.6" fill="#d4e826"/>
<path transform="matrix(.1,0,0,-.1,0,792)" stroke-width="20" stroke-linecap="butt" stroke-miterlimit="10" stroke-linejoin="miter" fill="none" stroke="#000000" d="M294.398 2054-59.1016 2407.6-188.5 2890.5-542.102 2537-1025 2407.6-671.5 2054-542.102 1571-188.5 1924.6Z"/>
<path transform="matrix(.1,0,0,-.1,0,792)" d="M294.398 1088.1-188.5 1217.5-542.102 1571-671.5 1088.1-1025 734.5-542.102 605.102-188.5 251.602-59.1016 734.5" fill="#d4e826"/>
<path transform="matrix(.1,0,0,-.1,0,792)" stroke-width="20" stroke-linecap="butt" stroke-miterlimit="10" stroke-linejoin="miter" fill="none" stroke="#000000" d="M294.398 1088.1-188.5 1217.5-542.102 1571-671.5 1088.1-1025 734.5-542.102 605.102-188.5 251.602-59.1016 734.5Z"/>
<path transform="matrix(.1,0,0,-.1,0,792)" d="M294.398 1088.1-59.1016 1441.6-542.102 1571-188.5 1217.5Z" fill="#70b089"/>
<path transform="matrix(.1,0,0,-.1,0,792)" stroke-width="20" stroke-linecap="butt" stroke-miterlimit="10" stroke-linejoin="miter" fill="none" stroke="#000000" d="M294.398 1088.1-59.1016 1441.6-542.102 1571-188.5 1217.5Z"/>
<path transform="matrix(.1,0,0,-.1,0,792)" d="M294.398 7331.9-59.1016 6978.4-542.102 6849-59.1016 6719.5 294.398 6366 165 6849" fill="#1ff8f8"/>
<path transform="matrix(.1,0,0,-.1,0,792)" stroke-width="20" stroke-linecap="butt" stroke-miterlimit="10" stroke-linejoin="miter" fill="none" stroke="#000000" d="M294.398 7331.9-59.1016 6978.4-542.102 6849-59.1016 6719.5 294.398 6366 165 6849Z"/>
<path transform="matrix(.1,0,0,-.1,0,792)" d="M294.398 7331.9-188.5 7202.5-542.102 6849-59.1016 6978.4Z" fill="#70b089"/>
<path transform="matrix(.1,0,0,-.1,0,792)" stroke-width="20" stroke-linecap="butt" stroke-miterlimit="10" stroke-linejoin="miter" fill="none" stroke="#000000" d="M294.398 7331.9-188.5 7202.5-542.102 6849-59.1016 6978.4Z"/>
<path transform="matrix(.1,0,0,-.1,0,792)" d="M294.398 7331.9-59.1016 7685.5-188.5 8168.4-542.102 7814.9-1025 7685.5-671.5 7331.9-542.102 6849-188.5 7202.5" fill="#d4e826"/>
<path transform="matrix(.1,0,0,-.1,0,792)" stroke-width="20" stroke-linecap="butt" stroke-miterlimit="10" stroke-linejoin="miter" fill="none" stroke="#000000" d="M294.398 7331.9-59.1016 7685.5-188.5 8168.4-542.102 7814.9-1025 7685.5-671.5 7331.9-542.102 6849-188.5 7202.5Z"/>
<path transform="matrix(.1,0,0,-.1,0,792)" d="M294.398 6366-188.5 6495.4-542.102 6849-671.5 6366-1025 6012.4-542.102 5883-188.5 5529.5-59.1016 6012.4" fill="#d4e826"/>
<path transform="matrix(.1,0,0,-.1,0,792)" stroke-width="20" stroke-linecap="butt" stroke-miterlimit="10" stroke-linejoin="miter" fill="none" stroke="#000000" d="M294.398 6366-188.5 6495.4-542.102 6849-671.5 6366-1025 6012.4-542.102 5883-188.5 5529.5-59.1016 6012.4Z"/>
<path transform="matrix(.1,0,0,-.1,0,792)" d="M294.398 6366-59.1016 6719.5-542.102 6849-188.5 6495.4Z" fill="#70b089"/>
<path transform="matrix(.1,0,0,-.1,0,792)" stroke-width="20" stroke-linecap="butt" stroke-miterlimit="10" stroke-linejoin="miter" fill="none" stroke="#000000" d="M294.398 6366-59.1016 6719.5-542.102 6849-188.5 6495.4Z"/>
<path transform="matrix(.1,0,0,-.1,0,792)" d="M294.398 4693-59.1016 4339.4-542.102 4210-59.1016 4080.6 294.398 3727 165 4210" fill="#1ff8f8"/>
<path transform="matrix(.1,0,0,-.1,0,792)" stroke-width="20" stroke-linecap="butt" stroke-miterlimit="10" stroke-linejoin="miter" fill="none" stroke="#000000" d="M294.398 4693-59.1016 4339.4-542.102 4210-59.1016 4080.6 294.398 3727 165 4210Z"/>
<path transform="matrix(.1,0,0,-.1,0,792)" d="M294.398 4693-188.5 4563.6-542.102 4210-59.1016 4339.4Z" fill="#70b089"/>
<path transform="matrix(.1,0,0,-.1,0,792)" stroke-width="20" stroke-linecap="butt" stroke-miterlimit="10" stroke-linejoin="miter" fill="none" stroke="#000000" d="M294.398 4693-188.5 4563.6-542.102 4210-59.1016 4339.4Z"/>
<path transform="matrix(.1,0,0,-.1,0,792)" d="M294.398 4693-59.1016 5046.5-188.5 5529.5-542.102 5175.9-1025 5046.5-671.5 4693-542.102 4210-188.5 4563.6" fill="#d4e826"/>
<path transform="matrix(.1,0,0,-.1,0,792)" stroke-width="20" stroke-linecap="butt" stroke-miterlimit="10" stroke-linejoin="miter" fill="none" stroke="#000000" d="M294.398 4693-59.1016 5046.5-188.5 5529.5-542.102 5175.9-1025 5046.5-671.5 4693-542.102 4210-188.5 4563.6Z"/>
<path transform="matrix(.1,0,0,-.1,0,792)" d="M294.398 3727-188.5 3856.4-542.102 4210-671.5 3727-1025 3373.5-542.102 3244.1-188.5 2890.5-59.1016 3373.5" fill="#d4e826"/>
<path transform="matrix(.1,0,0,-.1,0,792)" stroke-width="20" stroke-linecap="butt" stroke-miterlimit="10" stroke-linejoin="miter" fill="none" stroke="#000000" d="M294.398 3727-188.5 3856.4-542.102 4210-671.5 3727-1025 3373.5-542.102 3244.1-188.5 2890.5-59.1016 3373.5Z"/>
<path transform="matrix(.1,0,0,-.1,0,792)" d="M294.398 3727-59.1016 4080.6-542.102 4210-188.5 3856.4Z" fill="#70b089"/>
<path transform="matrix(.1,0,0,-.1,0,792)" stroke-width="20" stroke-linecap="butt" stroke-miterlimit="10" stroke-linejoin="miter" fill="none" stroke="#000000" d="M294.398 3727-59.1016 4080.6-542.102 4210-188.5 3856.4Z"/>
<path transform="matrix(.1,0,0,-.1,0,792)" d="M5701.8 1571 5831.2 1088.1 5960.6 1571 5831.2 2054Z" fill="#70b089"/>
<path transform="matrix(.1,0,0,-.1,0,792)" stroke-width="20" stroke-linecap="butt" stroke-miterlimit="10" stroke-linejoin="miter" fill="none" stroke="#000000" d="M5701.8 1571 5831.2 1088.1 5960.6 1571 5831.2 2054Z"/>
<path transform="matrix(.1,0,0,-.1,0,792)" d="M5701.8 4210 5831.2 3727 5960.6 4210 5831.2 4693Z" fill="#70b089"/>
<path transform="matrix(.1,0,0,-.1,0,792)" stroke-width="20" stroke-linecap="butt" stroke-miterlimit="10" stroke-linejoin="miter" fill="none" stroke="#000000" d="M5701.8 4210 5831.2 3727 5960.6 4210 5831.2 4693Z"/>
<path transform="matrix(.1,0,0,-.1,0,792)" d="M5701.8 6849 5831.2 6366 5960.6 6849 5831.2 7331.9Z" fill="#70b089"/>
<path transform="matrix(.1,0,0,-.1,0,792)" stroke-width="20" stroke-linecap="butt" stroke-miterlimit="10" stroke-linejoin="miter" fill="none" stroke="#000000" d="M5701.8 6849 5831.2 6366 5960.6 6849 5831.2 7331.9Z"/>
<path transform="matrix(.1,0,0,-.1,0,792)" d="M5831.2 6366 6184.7 6719.5 6667.7 6849 6184.7 6978.4 5831.2 7331.9 5960.6 6849" fill="#1ff8f8"/>
<path transform="matrix(.1,0,0,-.1,0,792)" stroke-width="20" stroke-linecap="butt" stroke-miterlimit="10" stroke-linejoin="miter" fill="none" stroke="#000000" d="M5831.2 6366 6184.7 6719.5 6667.7 6849 6184.7 6978.4 5831.2 7331.9 5960.6 6849Z"/>
<path transform="matrix(.1,0,0,-.1,0,792)" d="M5831.2 6366 6314.1 6495.4 6667.7 6849 6184.7 6719.5Z" fill="#70b089"/>
<path transform="matrix(.1,0,0,-.1,0,792)" stroke-width="20" stroke-linecap="butt" stroke-miterlimit="10" stroke-linejoin="miter" fill="none" stroke="#000000" d="M5831.2 6366 6314.1 6495.4 6667.7 6849 6184.7 6719.5Z"/>
<path transform="matrix(.1,0,0,-.1,0,792)" d="M5831.2 6366 6184.7 6012.4 6314.1 5529.5 6667.7 5883 7150.7 6012.4 6797.1 6366 6667.7 6849 6314.1 6495.4" fill="#d4e826"/>
<path transform="matrix(.1,0,0,-.1,0,792)" stroke-width="20" stroke-linecap="butt" stroke-miterlimit="10" stroke-linejoin="miter" fill="none" stroke="#000000" d="M5831.2 6366 6184.7 6012.4 6314.1 5529.5 6667.7 5883 7150.7 6012.4 6797.1 6366 6667.7 6849 6314.1 6495.4Z"/>
<path transform="matrix(.1,0,0,-.1,0,792)" d="M5831.2 7331.9 6314.1 7202.5 6667.7 6849 6797.1 7331.9 7150.7 7685.5 6667.7 7814.9 6314.1 8168.4 6184.7 7685.5" fill="#d4e826"/>
<path transform="matrix(.1,0,0,-.1,0,792)" stroke-width="20" stroke-linecap="butt" stroke-miterlimit="10" stroke-linejoin="miter" fill="none" stroke="#000000" d="M5831.2 7331.9 6314.1 7202.5 6667.7 6849 6797.1 7331.9 7150.7 7685.5 6667.7 7814.9 6314.1 8168.4 6184.7 7685.5Z"/>
<path transform="matrix(.1,0,0,-.1,0,792)" d="M5831.2 7331.9 6184.7 6978.4 6667.7 6849 6314.1 7202.5Z" fill="#70b089"/>
<path transform="matrix(.1,0,0,-.1,0,792)" stroke-width="20" stroke-linecap="butt" stroke-miterlimit="10" stroke-linejoin="miter" fill="none" stroke="#000000" d="M5831.2 7331.9 6184.7 6978.4 6667.7 6849 6314.1 7202.5Z"/>
<path transform="matrix(.1,0,0,-.1,0,792)" d="M5831.2 1088.1 6184.7 1441.6 6667.7 1571 6184.7 1700.5 5831.2 2054 5960.6 1571" fill="#1ff8f8"/>
<path transform="matrix(.1,0,0,-.1,0,792)" stroke-width="20" stroke-linecap="butt" stroke-miterlimit="10" stroke-linejoin="miter" fill="none" stroke="#000000" d="M5831.2 1088.1 6184.7 1441.6 6667.7 1571 6184.7 1700.5 5831.2 2054 5960.6 1571Z"/>
<path transform="matrix(.1,0,0,-.1,0,792)" d="M5831.2 1088.1 6314.1 1217.5 6667.7 1571 6184.7 1441.6Z" fill="#70b089"/>
<path transform="matrix(.1,0,0,-.1,0,792)" stroke-width="20" stroke-linecap="butt" stroke-miterlimit="10" stroke-linejoin="miter" fill="none" stroke="#000000" d="M5831.2 1088.1 6314.1 1217.5 6667.7 1571 6184.7 1441.6Z"/>
<path transform="matrix(.1,0,0,-.1,0,792)" d="M5831.2 1088.1 6184.7 734.5 6314.1 251.602 6667.7 605.102 7150.7 734.5 6797.1 1088.1 6667.7 1571 6314.1 1217.5" fill="#d4e826"/>
<path transform="matrix(.1,0,0,-.1,0,792)" stroke-width="20" stroke-linecap="butt" stroke-miterlimit="10" stroke-linejoin="miter" fill="none" stroke="#000000" d="M5831.2 1088.1 6184.7 734.5 6314.1 251.602 6667.7 605.102 7150.7 734.5 6797.1 1088.1 6667.7 1571 6314.1 1217.5Z"/>
<path transform="matrix(.1,0,0,-.1,0,792)" d="M5831.2 2054 6314.1 1924.6 6667.7 1571 6797.1 2054 7150.7 2407.6 6667.7 2537 6314.1 2890.5 6184.7 2407.6" fill="#d4e826"/>
<path transform="matrix(.1,0,0,-.1,0,792)" stroke-width="20" stroke-linecap="butt" stroke-miterlimit="10" stroke-linejoin="miter" fill="none" stroke="#000000" d="M5831.2 2054 6314.1 1924.6 6667.7 1571 6797.1 2054 7150.7 2407.6 6667.7 2537 6314.1 2890.5 6184.7 2407.6Z"/>
<path transform="matrix(.1,0,0,-.1,0,792)" d="M5831.2 2054 6184.7 1700.5 6667.7 1571 6314.1 1924.6Z" fill="#70b089"/>
<path transform="matrix(.1,0,0,-.1,0,792)" stroke-width="20" stroke-linecap="butt" stroke-miterlimit="10" stroke-linejoin="miter" fill="none" stroke="#000000" d="M5831.2 2054 6184.7 1700.5 6667.7 1571 6314.1 1924.6Z"/>
<path transform="matrix(.1,0,0,-.1,0,792)" d="M5831.2 3727 6184.7 4080.6 6667.7 4210 6184.7 4339.4 5831.2 4693 5960.6 4210" fill="#1ff8f8"/>
<path transform="matrix(.1,0,0,-.1,0,792)" stroke-width="20" stroke-linecap="butt" stroke-miterlimit="10" stroke-linejoin="miter" fill="none" stroke="#000000" d="M5831.2 3727 6184.7 4080.6 6667.7 4210 6184.7 4339.4 5831.2 4693 5960.6 4210Z"/>
<path transform="matrix(.1,0,0,-.1,0,792)" d="M5831.2 3727 6314.1 3856.4 6667.7 4210 6184.7 4080.6Z" fill="#70b089"/>
<path transform="matrix(.1,0,0,-.1,0,792)" stroke-width="20" stroke-linecap="butt" stroke-miterlimit="10" stroke-linejoin="miter" fill="none" stroke="#000000" d="M5831.2 3727 6314.1 3856.4 6667.7 4210 6184.7 4080.6Z"/>
<path transform="matrix(.1,0,0,-.1,0,792)" d="M5831.2 3727 6184.7 3373.5 6314.1 2890.5 6667.7 3244.1 7150.7 3373.5 6797.1 3727 6667.7 4210 6314.1 3856.4" fill="#d4e826"/>
<path transform="matrix(.1,0,0,-.1,0,792)" stroke-width="20" stroke-linecap="butt" stroke-miterlimit="10" stroke-linejoin="miter" fill="none" stroke="#000000" d="M5831.2 3727 6184.7 3373.5 6314.1 2890.5 6667.7 3244.1 7150.7 3373.5 6797.1 3727 6667.7 4210 6314.1 3856.4Z"/>
<path transform="matrix(.1,0,0,-.1,0,792)" d="M5831.2 4693 6314.1 4563.6 6667.7 4210 6797.1 4693 7150.7 5046.5 6667.7 5175.9 6314.1 5529.5 6184.7 5046.5" fill="#d4e826"/>
<path transform="matrix(.1,0,0,-.1,0,792)" stroke-width="20" stroke-linecap="butt" stroke-miterlimit="10" stroke-linejoin="miter" fill="none" stroke="#000000" d="M5831.2 4693 6314.1 4563.6 6667.7 4210 6797.1 4693 7150.7 5046.5 6667.7 5175.9 6314.1 5529.5 6184.7 5046.5Z"/>
<path transform="matrix(.1,0,0,-.1,0,792)" d="M5831.2 4693 6184.7 4339.4 6667.7 4210 6314.1 4563.6Z" fill="#70b089"/>
<path transform="matrix(.1,0,0,-.1,0,792)" stroke-width="20" stroke-linecap="butt" stroke-miterlimit="10" stroke-linejoin="miter" fill="none" stroke="#000000" d="M5831.2 4693 6184.7 4339.4 6667.7 4210 6314.1 4563.6Z"/>
<path transform="matrix(.1,0,0,-.1,0,792)" d="M1743.3 251.602 2096.9-102 2579.8-231.398 2226.3 122.199Z" fill="#70b089"/>
<path transform="matrix(.1,0,0,-.1,0,792)" stroke-width="20" stroke-linecap="butt" stroke-miterlimit="10" stroke-linejoin="miter" fill="none" stroke="#000000" d="M1743.3 251.602 2096.9-102 2579.8-231.398 2226.3 122.199Z"/>
<path transform="matrix(.1,0,0,-.1,0,792)" d="M1743.3 251.602 1613.9-231.398 1260.4-585 1743.3-714.398 2096.9-1067.9 2226.3-585 2579.8-231.398 2096.9-102" fill="#d4e826"/>
<path transform="matrix(.1,0,0,-.1,0,792)" stroke-width="20" stroke-linecap="butt" stroke-miterlimit="10" stroke-linejoin="miter" fill="none" stroke="#000000" d="M1743.3 251.602 1613.9-231.398 1260.4-585 1743.3-714.398 2096.9-1067.9 2226.3-585 2579.8-231.398 2096.9-102Z"/>
<path transform="matrix(.1,0,0,-.1,0,792)" d="M4382.3 251.602 4028.7-102 3545.8-231.398 3899.3-585 4028.7-1067.9 4382.3-714.398 4865.3-585 4511.7-231.398" fill="#d4e826"/>
<path transform="matrix(.1,0,0,-.1,0,792)" stroke-width="20" stroke-linecap="butt" stroke-miterlimit="10" stroke-linejoin="miter" fill="none" stroke="#000000" d="M4382.3 251.602 4028.7-102 3545.8-231.398 3899.3-585 4028.7-1067.9 4382.3-714.398 4865.3-585 4511.7-231.398Z"/>
<path transform="matrix(.1,0,0,-.1,0,792)" d="M4382.3 251.602 3899.3 122.199 3545.8-231.398 4028.7-102Z" fill="#70b089"/>
<path transform="matrix(.1,0,0,-.1,0,792)" stroke-width="20" stroke-linecap="butt" stroke-miterlimit="10" stroke-linejoin="miter" fill="none" stroke="#000000" d="M4382.3 251.602 3899.3 122.199 3545.8-231.398 4028.7-102Z"/>
<path transform="matrix(.1,0,0,-.1,0,792)" d="M-188.5 251.602-542.102-102-1025-231.398-671.5-585-542.102-1067.9-188.5-714.398 294.398-585-59.1016-231.398" fill="#d4e826"/>
<path transform="matrix(.1,0,0,-.1,0,792)" stroke-width="20" stroke-linecap="butt" stroke-miterlimit="10" stroke-linejoin="miter" fill="none" stroke="#000000" d="M-188.5 251.602-542.102-102-1025-231.398-671.5-585-542.102-1067.9-188.5-714.398 294.398-585-59.1016-231.398Z"/>
<path transform="matrix(.1,0,0,-.1,0,792)" d="M6184.7-231.398 5831.2-585 6314.1-714.398 6667.7-1067.9 6797.1-585 7150.7-231.398 6667.7-102 6314.1 251.602" fill="#d4e826"/>
<path transform="matrix(.1,0,0,-.1,0,792)" stroke-width="20" stroke-linecap="butt" stroke-miterlimit="10" stroke-linejoin="miter" fill="none" stroke="#000000" d="M6184.7-231.398 5831.2-585 6314.1-714.398 6667.7-1067.9 6797.1-585 7150.7-231.398 6667.7-102 6314.1 251.602Z"/>
</svg>
