<svg xmlns="http://www.w3.org/2000/svg" xmlns:xlink="http://www.w3.org/1999/xlink" xmlns:inkscape="http://www.inkscape.org/namespaces/inkscape" version="1.1" width="612" height="792" viewBox="0 0 612 792">
<path transform="matrix(.1,0,0,-.1,0,792)" d="M4274 4210 2975 4960V3460" fill="#ba24cf"/>
<path transform="matrix(.1,0,0,-.1,0,792)" stroke-width="20" stroke-linecap="butt" stroke-miterlimit="10" stroke-linejoin="miter" fill="none" stroke="#000000" d="M4274 4210 2975 4960V3460Z"/>
<path transform="matrix(.1,0,0,-.1,0,792)" d="M2975 4960 1676 4210 2975 3460" fill="#ba24cf"/>
<path transform="matrix(.1,0,0,-.1,0,792)" stroke-width="20" stroke-linecap="butt" stroke-miterlimit="10" stroke-linejoin="miter" fill="none" stroke="#000000" d="M2975 4960 1676 4210 2975 3460Z"/>
<path transform="matrix(.1,0,0,-.1,0,792)" d="M2975 4960 1676 5710V4210" fill="#ba24cf"/>
<path transform="matrix(.1,0,0,-.1,0,792)" stroke-width="20" stroke-linecap="butt" stroke-miterlimit="10" stroke-linejoin="miter" fill="none" stroke="#000000" d="M2975 4960 1676 5710V4210Z"/>
<path transform="matrix(.1,0,0,-.1,0,792)" d="M2975 4960 2130 6199.4 831 6949.4 1676 5710Z" fill="#26ba87"/>
<path transform="matrix(.1,0,0,-.1,0,792)" stroke-width="20" stroke-linecap="butt" stroke-miterlimit="10" stroke-linejoin="miter" fill="none" stroke="#000000" d="M2975 4960 2130 6199.4 831 6949.4 1676 5710Z"/>
<path transform="matrix(.1,0,0,-.1,0,792)" d="M2975 4960 4274 4210 3429.1 5449.4 2130 6199.4Z" fill="#26ba87"/>
<path transform="matrix(.1,0,0,-.1,0,792)" stroke-width="20" stroke-linecap="butt" stroke-miterlimit="10" stroke-linejoin="miter" fill="none" stroke="#000000" d="M2975 4960 4274 4210 3429.1 5449.4 2130 6199.4Z"/>
<path transform="matrix(.1,0,0,-.1,0,792)" d="M2975 3460 4274 2710V4210" fill="#ba24cf"/>
<path transform="matrix(.1,0,0,-.1,0,792)" stroke-width="20" stroke-linecap="butt" stroke-miterlimit="10" stroke-linejoin="miter" fill="none" stroke="#000000" d="M2975 3460 4274 2710V4210Z"/>
<path transform="matrix(.1,0,0,-.1,0,792)" d="M2975 3460 3820 2220.6 5119 1470.6 4274 2710Z" fill="#26ba87"/>
<path transform="matrix(.1,0,0,-.1,0,792)" stroke-width="20" stroke-linecap="butt" stroke-miterlimit="10" stroke-linejoin="miter" fill="none" stroke="#000000" d="M2975 3460 3820 2220.6 5119 1470.6 4274 2710Z"/>
<path transform="matrix(.1,0,0,-.1,0,792)" d="M2975 3460 1676 4210 2520.9 2970.6 3820 2220.6Z" fill="#26ba87"/>
<path transform="matrix(.1,0,0,-.1,0,792)" stroke-width="20" stroke-linecap="butt" stroke-miterlimit="10" stroke-linejoin="miter" fill="none" stroke="#000000" d="M2975 3460 1676 4210 2520.9 2970.6 3820 2220.6Z"/>
<path transform="matrix(.1,0,0,-.1,0,792)" d="M2520.9 2970.6V1470.6L3820 2220.6" fill="#ba24cf"/>
<path transform="matrix(.1,0,0,-.1,0,792)" stroke-width="20" stroke-linecap="butt" stroke-miterlimit="10" stroke-linejoin="miter" fill="none" stroke="#000000" d="M2520.9 2970.6V1470.6L3820 2220.6Z"/>
<path transform="matrix(.1,0,0,-.1,0,792)" d="M2520.9 2970.6 1221.9 2220.6 2520.9 1470.6" fill="#ba24cf"/>
<path transform="matrix(.1,0,0,-.1,0,792)" stroke-width="20" stroke-linecap="butt" stroke-miterlimit="10" stroke-linejoin="miter" fill="none" stroke="#000000" d="M2520.9 2970.6 1221.9 2220.6 2520.9 1470.6Z"/>
<path transform="matrix(.1,0,0,-.1,0,792)" d="M2520.9 2970.6 1221.9 3720.6V2220.6" fill="#ba24cf"/>
<path transform="matrix(.1,0,0,-.1,0,792)" stroke-width="20" stroke-linecap="butt" stroke-miterlimit="10" stroke-linejoin="miter" fill="none" stroke="#000000" d="M2520.9 2970.6 1221.9 3720.6V2220.6Z"/>
<path transform="matrix(.1,0,0,-.1,0,792)" d="M2520.9 2970.6 1676 4210 376.898 4960 1221.9 3720.6Z" fill="#26ba87"/>
<path transform="matrix(.1,0,0,-.1,0,792)" stroke-width="20" stroke-linecap="butt" stroke-miterlimit="10" stroke-linejoin="miter" fill="none" stroke="#000000" d="M2520.9 2970.6 1676 4210 376.898 4960 1221.9 3720.6Z"/>
<path transform="matrix(.1,0,0,-.1,0,792)" d="M3429.1 5449.4V6949.4L2130 6199.4" fill="#ba24cf"/>
<path transform="matrix(.1,0,0,-.1,0,792)" stroke-width="20" stroke-linecap="butt" stroke-miterlimit="10" stroke-linejoin="miter" fill="none" stroke="#000000" d="M3429.1 5449.4V6949.4L2130 6199.4Z"/>
<path transform="matrix(.1,0,0,-.1,0,792)" d="M3429.1 5449.4 4728.1 6199.4 3429.1 6949.4" fill="#ba24cf"/>
<path transform="matrix(.1,0,0,-.1,0,792)" stroke-width="20" stroke-linecap="butt" stroke-miterlimit="10" stroke-linejoin="miter" fill="none" stroke="#000000" d="M3429.1 5449.4 4728.1 6199.4 3429.1 6949.4Z"/>
<path transform="matrix(.1,0,0,-.1,0,792)" d="M3429.1 5449.4 4728.1 4699.4V6199.4" fill="#ba24cf"/>
<path transform="matrix(.1,0,0,-.1,0,792)" stroke-width="20" stroke-linecap="butt" stroke-miterlimit="10" stroke-linejoin="miter" fill="none" stroke="#000000" d="M3429.1 5449.4 4728.1 4699.4V6199.4Z"/>
<path transform="matrix(.1,0,0,-.1,0,792)" d="M3429.1 5449.4 4274 4210 5573.1 3460 4728.1 4699.4Z" fill="#26ba87"/>
<path transform="matrix(.1,0,0,-.1,0,792)" stroke-width="20" stroke-linecap="butt" stroke-miterlimit="10" stroke-linejoin="miter" fill="none" stroke="#000000" d="M3429.1 5449.4 4274 4210 5573.1 3460 4728.1 4699.4Z"/>
<path transform="matrix(.1,0,0,-.1,0,792)" d="M4274 2710 5573.1 3460 4274 4210" fill="#ba24cf"/>
<path transform="matrix(.1,0,0,-.1,0,792)" stroke-width="20" stroke-linecap="butt" stroke-miterlimit="10" stroke-linejoin="miter" fill="none" stroke="#000000" d="M4274 2710 5573.1 3460 4274 4210Z"/>
<path transform="matrix(.1,0,0,-.1,0,792)" d="M4274 2710 5573.1 1960V3460" fill="#ba24cf"/>
<path transform="matrix(.1,0,0,-.1,0,792)" stroke-width="20" stroke-linecap="butt" stroke-miterlimit="10" stroke-linejoin="miter" fill="none" stroke="#000000" d="M4274 2710 5573.1 1960V3460Z"/>
<path transform="matrix(.1,0,0,-.1,0,792)" d="M4274 2710 5119 1470.6 6418.1 720.602 5573.1 1960Z" fill="#26ba87"/>
<path transform="matrix(.1,0,0,-.1,0,792)" stroke-width="20" stroke-linecap="butt" stroke-miterlimit="10" stroke-linejoin="miter" fill="none" stroke="#000000" d="M4274 2710 5119 1470.6 6418.1 720.602 5573.1 1960Z"/>
<path transform="matrix(.1,0,0,-.1,0,792)" d="M1676 5710 376.898 4960 1676 4210" fill="#ba24cf"/>
<path transform="matrix(.1,0,0,-.1,0,792)" stroke-width="20" stroke-linecap="butt" stroke-miterlimit="10" stroke-linejoin="miter" fill="none" stroke="#000000" d="M1676 5710 376.898 4960 1676 4210Z"/>
<path transform="matrix(.1,0,0,-.1,0,792)" d="M1676 5710 376.898 6460V4960" fill="#ba24cf"/>
<path transform="matrix(.1,0,0,-.1,0,792)" stroke-width="20" stroke-linecap="butt" stroke-miterlimit="10" stroke-linejoin="miter" fill="none" stroke="#000000" d="M1676 5710 376.898 6460V4960Z"/>
<path transform="matrix(.1,0,0,-.1,0,792)" d="M1676 5710 831 6949.4-468.102 7699.4 376.898 6460Z" fill="#26ba87"/>
<path transform="matrix(.1,0,0,-.1,0,792)" stroke-width="20" stroke-linecap="butt" stroke-miterlimit="10" stroke-linejoin="miter" fill="none" stroke="#000000" d="M1676 5710 831 6949.4-468.102 7699.4 376.898 6460Z"/>
<path transform="matrix(.1,0,0,-.1,0,792)" d="M2130 6199.4V7699.4L831 6949.4" fill="#ba24cf"/>
<path transform="matrix(.1,0,0,-.1,0,792)" stroke-width="20" stroke-linecap="butt" stroke-miterlimit="10" stroke-linejoin="miter" fill="none" stroke="#000000" d="M2130 6199.4V7699.4L831 6949.4Z"/>
<path transform="matrix(.1,0,0,-.1,0,792)" d="M2130 6199.4 3429.1 6949.4 2130 7699.4" fill="#ba24cf"/>
<path transform="matrix(.1,0,0,-.1,0,792)" stroke-width="20" stroke-linecap="butt" stroke-miterlimit="10" stroke-linejoin="miter" fill="none" stroke="#000000" d="M2130 6199.4 3429.1 6949.4 2130 7699.4Z"/>
<path transform="matrix(.1,0,0,-.1,0,792)" d="M3820 2220.6V720.602L5119 1470.6" fill="#ba24cf"/>
<path transform="matrix(.1,0,0,-.1,0,792)" stroke-width="20" stroke-linecap="butt" stroke-miterlimit="10" stroke-linejoin="miter" fill="none" stroke="#000000" d="M3820 2220.6V720.602L5119 1470.6Z"/>
<path transform="matrix(.1,0,0,-.1,0,792)" d="M3820 2220.6 2520.9 1470.6 3820 720.602" fill="#ba24cf"/>
<path transform="matrix(.1,0,0,-.1,0,792)" stroke-width="20" stroke-linecap="butt" stroke-miterlimit="10" stroke-linejoin="miter" fill="none" stroke="#000000" d="M3820 2220.6 2520.9 1470.6 3820 720.602Z"/>
<path transform="matrix(.1,0,0,-.1,0,792)" d="M1221.9 2220.6 2066.9 981.301 3365.9 231.301 2520.9 1470.6Z" fill="#26ba87"/>
<path transform="matrix(.1,0,0,-.1,0,792)" stroke-width="20" stroke-linecap="butt" stroke-miterlimit="10" stroke-linejoin="miter" fill="none" stroke="#000000" d="M1221.9 2220.6 2066.9 981.301 3365.9 231.301 2520.9 1470.6Z"/>
<path transform="matrix(.1,0,0,-.1,0,792)" d="M1221.9 3720.6-77.1016 2970.6 1221.9 2220.6" fill="#ba24cf"/>
<path transform="matrix(.1,0,0,-.1,0,792)" stroke-width="20" stroke-linecap="butt" stroke-miterlimit="10" stroke-linejoin="miter" fill="none" stroke="#000000" d="M1221.9 3720.6-77.1016 2970.6 1221.9 2220.6Z"/>
<path transform="matrix(.1,0,0,-.1,0,792)" d="M1221.9 3720.6-77.1016 4470.6V2970.6" fill="#ba24cf"/>
<path transform="matrix(.1,0,0,-.1,0,792)" stroke-width="20" stroke-linecap="butt" stroke-miterlimit="10" stroke-linejoin="miter" fill="none" stroke="#000000" d="M1221.9 3720.6-77.1016 4470.6V2970.6Z"/>
<path transform="matrix(.1,0,0,-.1,0,792)" d="M1221.9 3720.6 376.898 4960-922.102 5710-77.1016 4470.6Z" fill="#26ba87"/>
<path transform="matrix(.1,0,0,-.1,0,792)" stroke-width="20" stroke-linecap="butt" stroke-miterlimit="10" stroke-linejoin="miter" fill="none" stroke="#000000" d="M1221.9 3720.6 376.898 4960-922.102 5710-77.1016 4470.6Z"/>
<path transform="matrix(.1,0,0,-.1,0,792)" d="M1221.9 2220.6-77.1016 2970.6 767.801 1731.3 2066.9 981.301Z" fill="#26ba87"/>
<path transform="matrix(.1,0,0,-.1,0,792)" stroke-width="20" stroke-linecap="butt" stroke-miterlimit="10" stroke-linejoin="miter" fill="none" stroke="#000000" d="M1221.9 2220.6-77.1016 2970.6 767.801 1731.3 2066.9 981.301Z"/>
<path transform="matrix(.1,0,0,-.1,0,792)" d="M4728.1 4699.4 6027.1 5449.4 4728.1 6199.4" fill="#ba24cf"/>
<path transform="matrix(.1,0,0,-.1,0,792)" stroke-width="20" stroke-linecap="butt" stroke-miterlimit="10" stroke-linejoin="miter" fill="none" stroke="#000000" d="M4728.1 4699.4 6027.1 5449.4 4728.1 6199.4Z"/>
<path transform="matrix(.1,0,0,-.1,0,792)" d="M4728.1 4699.4 6027.1 3949.4V5449.4" fill="#ba24cf"/>
<path transform="matrix(.1,0,0,-.1,0,792)" stroke-width="20" stroke-linecap="butt" stroke-miterlimit="10" stroke-linejoin="miter" fill="none" stroke="#000000" d="M4728.1 4699.4 6027.1 3949.4V5449.4Z"/>
<path transform="matrix(.1,0,0,-.1,0,792)" d="M4728.1 4699.4 5573.1 3460 6872.1 2710 6027.1 3949.4Z" fill="#26ba87"/>
<path transform="matrix(.1,0,0,-.1,0,792)" stroke-width="20" stroke-linecap="butt" stroke-miterlimit="10" stroke-linejoin="miter" fill="none" stroke="#000000" d="M4728.1 4699.4 5573.1 3460 6872.1 2710 6027.1 3949.4Z"/>
<path transform="matrix(.1,0,0,-.1,0,792)" d="M4728.1 6199.4 3883.1 7438.7 2584.1 8188.7 3429.1 6949.4Z" fill="#26ba87"/>
<path transform="matrix(.1,0,0,-.1,0,792)" stroke-width="20" stroke-linecap="butt" stroke-miterlimit="10" stroke-linejoin="miter" fill="none" stroke="#000000" d="M4728.1 6199.4 3883.1 7438.7 2584.1 8188.7 3429.1 6949.4Z"/>
<path transform="matrix(.1,0,0,-.1,0,792)" d="M4728.1 6199.4 6027.1 5449.4 5182.2 6688.7 3883.1 7438.7Z" fill="#26ba87"/>
<path transform="matrix(.1,0,0,-.1,0,792)" stroke-width="20" stroke-linecap="butt" stroke-miterlimit="10" stroke-linejoin="miter" fill="none" stroke="#000000" d="M4728.1 6199.4 6027.1 5449.4 5182.2 6688.7 3883.1 7438.7Z"/>
<path transform="matrix(.1,0,0,-.1,0,792)" d="M3429.1 6949.4 2584.1 8188.7 1285 8938.7 2130 7699.4Z" fill="#26ba87"/>
<path transform="matrix(.1,0,0,-.1,0,792)" stroke-width="20" stroke-linecap="butt" stroke-miterlimit="10" stroke-linejoin="miter" fill="none" stroke="#000000" d="M3429.1 6949.4 2584.1 8188.7 1285 8938.7 2130 7699.4Z"/>
<path transform="matrix(.1,0,0,-.1,0,792)" d="M2520.9 1470.6 3365.9 231.301 4665-518.699 3820 720.602Z" fill="#26ba87"/>
<path transform="matrix(.1,0,0,-.1,0,792)" stroke-width="20" stroke-linecap="butt" stroke-miterlimit="10" stroke-linejoin="miter" fill="none" stroke="#000000" d="M2520.9 1470.6 3365.9 231.301 4665-518.699 3820 720.602Z"/>
<path transform="matrix(.1,0,0,-.1,0,792)" d="M5119 1470.6V-29.3984L6418.1 720.602" fill="#ba24cf"/>
<path transform="matrix(.1,0,0,-.1,0,792)" stroke-width="20" stroke-linecap="butt" stroke-miterlimit="10" stroke-linejoin="miter" fill="none" stroke="#000000" d="M5119 1470.6V-29.3984L6418.1 720.602Z"/>
<path transform="matrix(.1,0,0,-.1,0,792)" d="M5119 1470.6 3820 720.602 5119-29.3984" fill="#ba24cf"/>
<path transform="matrix(.1,0,0,-.1,0,792)" stroke-width="20" stroke-linecap="butt" stroke-miterlimit="10" stroke-linejoin="miter" fill="none" stroke="#000000" d="M5119 1470.6 3820 720.602 5119-29.3984Z"/>
<path transform="matrix(.1,0,0,-.1,0,792)" d="M831 6949.4V8449.4L-468.102 7699.4" fill="#ba24cf"/>
<path transform="matrix(.1,0,0,-.1,0,792)" stroke-width="20" stroke-linecap="butt" stroke-miterlimit="10" stroke-linejoin="miter" fill="none" stroke="#000000" d="M831 6949.4V8449.4L-468.102 7699.4Z"/>
<path transform="matrix(.1,0,0,-.1,0,792)" d="M831 6949.4 2130 7699.4 831 8449.4" fill="#ba24cf"/>
<path transform="matrix(.1,0,0,-.1,0,792)" stroke-width="20" stroke-linecap="butt" stroke-miterlimit="10" stroke-linejoin="miter" fill="none" stroke="#000000" d="M831 6949.4 2130 7699.4 831 8449.4Z"/>
<path transform="matrix(.1,0,0,-.1,0,792)" d="M767.801 1731.3V231.301L2066.9 981.301" fill="#ba24cf"/>
<path transform="matrix(.1,0,0,-.1,0,792)" stroke-width="20" stroke-linecap="butt" stroke-miterlimit="10" stroke-linejoin="miter" fill="none" stroke="#000000" d="M767.801 1731.3V231.301L2066.9 981.301Z"/>
<path transform="matrix(.1,0,0,-.1,0,792)" d="M767.801 1731.3-531.199 981.301 767.801 231.301" fill="#ba24cf"/>
<path transform="matrix(.1,0,0,-.1,0,792)" stroke-width="20" stroke-linecap="butt" stroke-miterlimit="10" stroke-linejoin="miter" fill="none" stroke="#000000" d="M767.801 1731.3-531.199 981.301 767.801 231.301Z"/>
<path transform="matrix(.1,0,0,-.1,0,792)" d="M767.801 1731.3-531.199 2481.3V981.301" fill="#ba24cf"/>
<path transform="matrix(.1,0,0,-.1,0,792)" stroke-width="20" stroke-linecap="butt" stroke-miterlimit="10" stroke-linejoin="miter" fill="none" stroke="#000000" d="M767.801 1731.3-531.199 2481.3V981.301Z"/>
<path transform="matrix(.1,0,0,-.1,0,792)" d="M767.801 1731.3-77.1016 2970.6-1376.2 3720.6-531.199 2481.3Z" fill="#26ba87"/>
<path transform="matrix(.1,0,0,-.1,0,792)" stroke-width="20" stroke-linecap="butt" stroke-miterlimit="10" stroke-linejoin="miter" fill="none" stroke="#000000" d="M767.801 1731.3-77.1016 2970.6-1376.2 3720.6-531.199 2481.3Z"/>
<path transform="matrix(.1,0,0,-.1,0,792)" d="M5182.2 6688.7V8188.7L3883.1 7438.7" fill="#ba24cf"/>
<path transform="matrix(.1,0,0,-.1,0,792)" stroke-width="20" stroke-linecap="butt" stroke-miterlimit="10" stroke-linejoin="miter" fill="none" stroke="#000000" d="M5182.2 6688.7V8188.7L3883.1 7438.7Z"/>
<path transform="matrix(.1,0,0,-.1,0,792)" d="M5182.2 6688.7 6481.2 7438.7 5182.2 8188.7" fill="#ba24cf"/>
<path transform="matrix(.1,0,0,-.1,0,792)" stroke-width="20" stroke-linecap="butt" stroke-miterlimit="10" stroke-linejoin="miter" fill="none" stroke="#000000" d="M5182.2 6688.7 6481.2 7438.7 5182.2 8188.7Z"/>
<path transform="matrix(.1,0,0,-.1,0,792)" d="M5182.2 6688.7 6481.2 5938.7V7438.7" fill="#ba24cf"/>
<path transform="matrix(.1,0,0,-.1,0,792)" stroke-width="20" stroke-linecap="butt" stroke-miterlimit="10" stroke-linejoin="miter" fill="none" stroke="#000000" d="M5182.2 6688.7 6481.2 5938.7V7438.7Z"/>
<path transform="matrix(.1,0,0,-.1,0,792)" d="M5182.2 6688.7 6027.1 5449.4 7326.2 4699.4 6481.2 5938.7Z" fill="#26ba87"/>
<path transform="matrix(.1,0,0,-.1,0,792)" stroke-width="20" stroke-linecap="butt" stroke-miterlimit="10" stroke-linejoin="miter" fill="none" stroke="#000000" d="M5182.2 6688.7 6027.1 5449.4 7326.2 4699.4 6481.2 5938.7Z"/>
<path transform="matrix(.1,0,0,-.1,0,792)" d="M3883.1 7438.7V8938.7L2584.1 8188.7" fill="#ba24cf"/>
<path transform="matrix(.1,0,0,-.1,0,792)" stroke-width="20" stroke-linecap="butt" stroke-miterlimit="10" stroke-linejoin="miter" fill="none" stroke="#000000" d="M3883.1 7438.7V8938.7L2584.1 8188.7Z"/>
<path transform="matrix(.1,0,0,-.1,0,792)" d="M3883.1 7438.7 5182.2 8188.7 3883.1 8938.7" fill="#ba24cf"/>
<path transform="matrix(.1,0,0,-.1,0,792)" stroke-width="20" stroke-linecap="butt" stroke-miterlimit="10" stroke-linejoin="miter" fill="none" stroke="#000000" d="M3883.1 7438.7 5182.2 8188.7 3883.1 8938.7Z"/>
<path transform="matrix(.1,0,0,-.1,0,792)" d="M2066.9 981.301V-518.699L3365.9 231.301" fill="#ba24cf"/>
<path transform="matrix(.1,0,0,-.1,0,792)" stroke-width="20" stroke-linecap="butt" stroke-miterlimit="10" stroke-linejoin="miter" fill="none" stroke="#000000" d="M2066.9 981.301V-518.699L3365.9 231.301Z"/>
<path transform="matrix(.1,0,0,-.1,0,792)" d="M2066.9 981.301 767.801 231.301 2066.9-518.699" fill="#ba24cf"/>
<path transform="matrix(.1,0,0,-.1,0,792)" stroke-width="20" stroke-linecap="butt" stroke-miterlimit="10" stroke-linejoin="miter" fill="none" stroke="#000000" d="M2066.9 981.301 767.801 231.301 2066.9-518.699Z"/>
<path transform="matrix(.1,0,0,-.1,0,792)" d="M3820 720.602 4665-518.699 5964-1268.7 5119-29.3984Z" fill="#26ba87"/>
<path transform="matrix(.1,0,0,-.1,0,792)" stroke-width="20" stroke-linecap="butt" stroke-miterlimit="10" stroke-linejoin="miter" fill="none" stroke="#000000" d="M3820 720.602 4665-518.699 5964-1268.7 5119-29.3984Z"/>
<path transform="matrix(.1,0,0,-.1,0,792)" d="M2130 7699.4 1285 8938.7-14 9688.7 831 8449.4Z" fill="#26ba87"/>
<path transform="matrix(.1,0,0,-.1,0,792)" stroke-width="20" stroke-linecap="butt" stroke-miterlimit="10" stroke-linejoin="miter" fill="none" stroke="#000000" d="M2130 7699.4 1285 8938.7-14 9688.7 831 8449.4Z"/>
<path transform="matrix(.1,0,0,-.1,0,792)" d="M376.898 6460-922.102 5710 376.898 4960" fill="#ba24cf"/>
<path transform="matrix(.1,0,0,-.1,0,792)" stroke-width="20" stroke-linecap="butt" stroke-miterlimit="10" stroke-linejoin="miter" fill="none" stroke="#000000" d="M376.898 6460-922.102 5710 376.898 4960Z"/>
<path transform="matrix(.1,0,0,-.1,0,792)" d="M376.898 6460-922.102 7210V5710" fill="#ba24cf"/>
<path transform="matrix(.1,0,0,-.1,0,792)" stroke-width="20" stroke-linecap="butt" stroke-miterlimit="10" stroke-linejoin="miter" fill="none" stroke="#000000" d="M376.898 6460-922.102 7210V5710Z"/>
<path transform="matrix(.1,0,0,-.1,0,792)" d="M376.898 6460-468.102 7699.4-1767.1 8449.4-922.102 7210Z" fill="#26ba87"/>
<path transform="matrix(.1,0,0,-.1,0,792)" stroke-width="20" stroke-linecap="butt" stroke-miterlimit="10" stroke-linejoin="miter" fill="none" stroke="#000000" d="M376.898 6460-468.102 7699.4-1767.1 8449.4-922.102 7210Z"/>
<path transform="matrix(.1,0,0,-.1,0,792)" d="M5573.1 1960 6872.1 2710 5573.1 3460" fill="#ba24cf"/>
<path transform="matrix(.1,0,0,-.1,0,792)" stroke-width="20" stroke-linecap="butt" stroke-miterlimit="10" stroke-linejoin="miter" fill="none" stroke="#000000" d="M5573.1 1960 6872.1 2710 5573.1 3460Z"/>
<path transform="matrix(.1,0,0,-.1,0,792)" d="M5573.1 1960 6872.1 1210V2710" fill="#ba24cf"/>
<path transform="matrix(.1,0,0,-.1,0,792)" stroke-width="20" stroke-linecap="butt" stroke-miterlimit="10" stroke-linejoin="miter" fill="none" stroke="#000000" d="M5573.1 1960 6872.1 1210V2710Z"/>
<path transform="matrix(.1,0,0,-.1,0,792)" d="M5573.1 1960 6418.1 720.602 7717.1-29.3984 6872.1 1210Z" fill="#26ba87"/>
<path transform="matrix(.1,0,0,-.1,0,792)" stroke-width="20" stroke-linecap="butt" stroke-miterlimit="10" stroke-linejoin="miter" fill="none" stroke="#000000" d="M5573.1 1960 6418.1 720.602 7717.1-29.3984 6872.1 1210Z"/>
<path transform="matrix(.1,0,0,-.1,0,792)" d="M5182.2 8188.7 6481.2 7438.7 5636.2 8678.1 4337.2 9428.1Z" fill="#26ba87"/>
<path transform="matrix(.1,0,0,-.1,0,792)" stroke-width="20" stroke-linecap="butt" stroke-miterlimit="10" stroke-linejoin="miter" fill="none" stroke="#000000" d="M5182.2 8188.7 6481.2 7438.7 5636.2 8678.1 4337.2 9428.1Z"/>
<path transform="matrix(.1,0,0,-.1,0,792)" d="M767.801 231.301 1612.8-1008.1 2911.9-1758.1 2066.9-518.699Z" fill="#26ba87"/>
<path transform="matrix(.1,0,0,-.1,0,792)" stroke-width="20" stroke-linecap="butt" stroke-miterlimit="10" stroke-linejoin="miter" fill="none" stroke="#000000" d="M767.801 231.301 1612.8-1008.1 2911.9-1758.1 2066.9-518.699Z"/>
<path transform="matrix(.1,0,0,-.1,0,792)" d="M767.801 231.301-531.199 981.301 313.801-258.102 1612.8-1008.1Z" fill="#26ba87"/>
<path transform="matrix(.1,0,0,-.1,0,792)" stroke-width="20" stroke-linecap="butt" stroke-miterlimit="10" stroke-linejoin="miter" fill="none" stroke="#000000" d="M767.801 231.301-531.199 981.301 313.801-258.102 1612.8-1008.1Z"/>
<path transform="matrix(.1,0,0,-.1,0,792)" d="M3365.9 231.301V-1268.7L4665-518.699" fill="#ba24cf"/>
<path transform="matrix(.1,0,0,-.1,0,792)" stroke-width="20" stroke-linecap="butt" stroke-miterlimit="10" stroke-linejoin="miter" fill="none" stroke="#000000" d="M3365.9 231.301V-1268.7L4665-518.699Z"/>
<path transform="matrix(.1,0,0,-.1,0,792)" d="M3365.9 231.301 2066.9-518.699 3365.9-1268.7" fill="#ba24cf"/>
<path transform="matrix(.1,0,0,-.1,0,792)" stroke-width="20" stroke-linecap="butt" stroke-miterlimit="10" stroke-linejoin="miter" fill="none" stroke="#000000" d="M3365.9 231.301 2066.9-518.699 3365.9-1268.7Z"/>
<path transform="matrix(.1,0,0,-.1,0,792)" d="M6027.1 3949.4 7326.2 4699.4 6027.1 5449.4" fill="#ba24cf"/>
<path transform="matrix(.1,0,0,-.1,0,792)" stroke-width="20" stroke-linecap="butt" stroke-miterlimit="10" stroke-linejoin="miter" fill="none" stroke="#000000" d="M6027.1 3949.4 7326.2 4699.4 6027.1 5449.4Z"/>
<path transform="matrix(.1,0,0,-.1,0,792)" d="M6027.1 3949.4 7326.2 3199.4V4699.4" fill="#ba24cf"/>
<path transform="matrix(.1,0,0,-.1,0,792)" stroke-width="20" stroke-linecap="butt" stroke-miterlimit="10" stroke-linejoin="miter" fill="none" stroke="#000000" d="M6027.1 3949.4 7326.2 3199.4V4699.4Z"/>
<path transform="matrix(.1,0,0,-.1,0,792)" d="M6027.1 3949.4 6872.1 2710 8171.2 1960 7326.2 3199.4Z" fill="#26ba87"/>
<path transform="matrix(.1,0,0,-.1,0,792)" stroke-width="20" stroke-linecap="butt" stroke-miterlimit="10" stroke-linejoin="miter" fill="none" stroke="#000000" d="M6027.1 3949.4 6872.1 2710 8171.2 1960 7326.2 3199.4Z"/>
<path transform="matrix(.1,0,0,-.1,0,792)" d="M5119-29.3984 6418.1-779.398V720.602" fill="#ba24cf"/>
<path transform="matrix(.1,0,0,-.1,0,792)" stroke-width="20" stroke-linecap="butt" stroke-miterlimit="10" stroke-linejoin="miter" fill="none" stroke="#000000" d="M5119-29.3984 6418.1-779.398V720.602Z"/>
<path transform="matrix(.1,0,0,-.1,0,792)" d="M831 8449.4-468.102 9199.4V7699.4" fill="#ba24cf"/>
<path transform="matrix(.1,0,0,-.1,0,792)" stroke-width="20" stroke-linecap="butt" stroke-miterlimit="10" stroke-linejoin="miter" fill="none" stroke="#000000" d="M831 8449.4-468.102 9199.4V7699.4Z"/>
<path transform="matrix(.1,0,0,-.1,0,792)" d="M313.801-258.102-985.301 491.898V-1008.1" fill="#ba24cf"/>
<path transform="matrix(.1,0,0,-.1,0,792)" stroke-width="20" stroke-linecap="butt" stroke-miterlimit="10" stroke-linejoin="miter" fill="none" stroke="#000000" d="M313.801-258.102-985.301 491.898V-1008.1Z"/>
<path transform="matrix(.1,0,0,-.1,0,792)" d="M313.801-258.102-531.199 981.301-1830.2 1731.3-985.301 491.898Z" fill="#26ba87"/>
<path transform="matrix(.1,0,0,-.1,0,792)" stroke-width="20" stroke-linecap="butt" stroke-miterlimit="10" stroke-linejoin="miter" fill="none" stroke="#000000" d="M313.801-258.102-531.199 981.301-1830.2 1731.3-985.301 491.898Z"/>
<path transform="matrix(.1,0,0,-.1,0,792)" stroke-width="20" stroke-linecap="butt" stroke-miterlimit="10" stroke-linejoin="miter" fill="none" stroke="#000000" d="M5636.2 8678.1 6935.3 7928.1V9428.1Z"/>
<path transform="matrix(.1,0,0,-.1,0,792)" d="M5636.2 8678.1 6481.2 7438.7 7780.2 6688.7 6935.3 7928.1Z" fill="#26ba87"/>
<path transform="matrix(.1,0,0,-.1,0,792)" stroke-width="20" stroke-linecap="butt" stroke-miterlimit="10" stroke-linejoin="miter" fill="none" stroke="#000000" d="M5636.2 8678.1 6481.2 7438.7 7780.2 6688.7 6935.3 7928.1Z"/>
</svg>
