<svg xmlns="http://www.w3.org/2000/svg" xmlns:xlink="http://www.w3.org/1999/xlink" xmlns:inkscape="http://www.inkscape.org/namespaces/inkscape" version="1.1" width="612" height="792" viewBox="0 0 612 792">
<path transform="matrix(.1,0,0,-.1,0,792)" d="M2975 3782.4 3050 3912.3 3179.9 3837.3V3987.3H3329.9L3254.9 4117.2 3384.8 4192.2 3254.9 4267.2 3329.9 4397.1H3179.9V4547.1L3050 4472.1 2975 4602 2900 4472.1 2770.1 4547.1V4397.1H2620.1L2695.1 4267.2 2565.2 4192.2 2695.1 4117.2 2620.1 3987.3H2770.1V3837.3L2900 3912.3" fill="#404284"/>
<path transform="matrix(.1,0,0,-.1,0,792)" stroke-width="50" stroke-linecap="butt" stroke-miterlimit="10" stroke-linejoin="miter" fill="none" stroke="#ffffff" d="M2975 3782.4 3050 3912.3 3179.9 3837.3V3987.3H3329.9L3254.9 4117.2 3384.8 4192.2 3254.9 4267.2 3329.9 4397.1H3179.9V4547.1L3050 4472.1 2975 4602 2900 4472.1 2770.1 4547.1V4397.1H2620.1L2695.1 4267.2 2565.2 4192.2 2695.1 4117.2 2620.1 3987.3H2770.1V3837.3L2900 3912.3Z"/>
<path transform="matrix(.1,0,0,-.1,0,792)" d="M3050 4472.1 3179.9 4547.1V4956.9L2975 4602Z" fill="#758240"/>
<path transform="matrix(.1,0,0,-.1,0,792)" stroke-width="50" stroke-linecap="butt" stroke-miterlimit="10" stroke-linejoin="miter" fill="none" stroke="#ffffff" d="M3050 4472.1 3179.9 4547.1V4956.9L2975 4602Z"/>
<path transform="matrix(.1,0,0,-.1,0,792)" d="M2900 4472.1 2975 4602 2770.1 4956.9V4547.1Z" fill="#758240"/>
<path transform="matrix(.1,0,0,-.1,0,792)" stroke-width="50" stroke-linecap="butt" stroke-miterlimit="10" stroke-linejoin="miter" fill="none" stroke="#ffffff" d="M2900 4472.1 2975 4602 2770.1 4956.9V4547.1Z"/>
<path transform="matrix(.1,0,0,-.1,0,792)" d="M2770.1 4397.1V4547.1L2415.2 4752 2620.1 4397.1Z" fill="#758240"/>
<path transform="matrix(.1,0,0,-.1,0,792)" stroke-width="50" stroke-linecap="butt" stroke-miterlimit="10" stroke-linejoin="miter" fill="none" stroke="#ffffff" d="M2770.1 4397.1V4547.1L2415.2 4752 2620.1 4397.1Z"/>
<path transform="matrix(.1,0,0,-.1,0,792)" d="M2770.1 3987.3H2620.1L2415.2 3632.4 2770.1 3837.3Z" fill="#758240"/>
<path transform="matrix(.1,0,0,-.1,0,792)" stroke-width="50" stroke-linecap="butt" stroke-miterlimit="10" stroke-linejoin="miter" fill="none" stroke="#ffffff" d="M2770.1 3987.3H2620.1L2415.2 3632.4 2770.1 3837.3Z"/>
<path transform="matrix(.1,0,0,-.1,0,792)" d="M3179.9 3987.3V3837.3L3534.8 3632.4 3329.9 3987.3Z" fill="#758240"/>
<path transform="matrix(.1,0,0,-.1,0,792)" stroke-width="50" stroke-linecap="butt" stroke-miterlimit="10" stroke-linejoin="miter" fill="none" stroke="#ffffff" d="M3179.9 3987.3V3837.3L3534.8 3632.4 3329.9 3987.3Z"/>
<path transform="matrix(.1,0,0,-.1,0,792)" d="M3179.9 4397.1H3329.9L3534.8 4752 3179.9 4547.1Z" fill="#758240"/>
<path transform="matrix(.1,0,0,-.1,0,792)" stroke-width="50" stroke-linecap="butt" stroke-miterlimit="10" stroke-linejoin="miter" fill="none" stroke="#ffffff" d="M3179.9 4397.1H3329.9L3534.8 4752 3179.9 4547.1Z"/>
<path transform="matrix(.1,0,0,-.1,0,792)" d="M2900 3912.3 2770.1 3837.3V3427.5L2975 3782.4Z" fill="#758240"/>
<path transform="matrix(.1,0,0,-.1,0,792)" stroke-width="50" stroke-linecap="butt" stroke-miterlimit="10" stroke-linejoin="miter" fill="none" stroke="#ffffff" d="M2900 3912.3 2770.1 3837.3V3427.5L2975 3782.4Z"/>
<path transform="matrix(.1,0,0,-.1,0,792)" d="M3050 3912.3 2975 3782.4 3179.9 3427.5V3837.3Z" fill="#758240"/>
<path transform="matrix(.1,0,0,-.1,0,792)" stroke-width="50" stroke-linecap="butt" stroke-miterlimit="10" stroke-linejoin="miter" fill="none" stroke="#ffffff" d="M3050 3912.3 2975 3782.4 3179.9 3427.5V3837.3Z"/>
<path transform="matrix(.1,0,0,-.1,0,792)" d="M3179.9 4547.1 3534.8 4752 3644.5 4942.1 3506.4 5112.6 3289.6 5147 3179.9 4956.9" fill="#404284"/>
<path transform="matrix(.1,0,0,-.1,0,792)" stroke-width="50" stroke-linecap="butt" stroke-miterlimit="10" stroke-linejoin="miter" fill="none" stroke="#ffffff" d="M3179.9 4547.1 3534.8 4752 3644.5 4942.1 3506.4 5112.6 3289.6 5147 3179.9 4956.9Z"/>
<path transform="matrix(.1,0,0,-.1,0,792)" d="M2770.1 4547.1V4956.9L2660.4 5147 2443.6 5112.6 2305.5 4942.1 2415.2 4752" fill="#404284"/>
<path transform="matrix(.1,0,0,-.1,0,792)" stroke-width="50" stroke-linecap="butt" stroke-miterlimit="10" stroke-linejoin="miter" fill="none" stroke="#ffffff" d="M2770.1 4547.1V4956.9L2660.4 5147 2443.6 5112.6 2305.5 4942.1 2415.2 4752Z"/>
<path transform="matrix(.1,0,0,-.1,0,792)" d="M2770.1 3837.3 2415.2 3632.4 2305.5 3442.3 2443.6 3271.7 2660.4 3237.4 2770.1 3427.5" fill="#404284"/>
<path transform="matrix(.1,0,0,-.1,0,792)" stroke-width="50" stroke-linecap="butt" stroke-miterlimit="10" stroke-linejoin="miter" fill="none" stroke="#ffffff" d="M2770.1 3837.3 2415.2 3632.4 2305.5 3442.3 2443.6 3271.7 2660.4 3237.4 2770.1 3427.5Z"/>
<path transform="matrix(.1,0,0,-.1,0,792)" d="M3179.9 3837.3V3427.5L3289.6 3237.4 3506.4 3271.7 3644.5 3442.3 3534.8 3632.4" fill="#404284"/>
<path transform="matrix(.1,0,0,-.1,0,792)" stroke-width="50" stroke-linecap="butt" stroke-miterlimit="10" stroke-linejoin="miter" fill="none" stroke="#ffffff" d="M3179.9 3837.3V3427.5L3289.6 3237.4 3506.4 3271.7 3644.5 3442.3 3534.8 3632.4Z"/>
<path transform="matrix(.1,0,0,-.1,0,792)" d="M3254.9 4117.2 3329.9 3987.3H3739.7L3384.8 4192.2Z" fill="#758240"/>
<path transform="matrix(.1,0,0,-.1,0,792)" stroke-width="50" stroke-linecap="butt" stroke-miterlimit="10" stroke-linejoin="miter" fill="none" stroke="#ffffff" d="M3254.9 4117.2 3329.9 3987.3H3739.7L3384.8 4192.2Z"/>
<path transform="matrix(.1,0,0,-.1,0,792)" d="M3254.9 4267.2 3384.8 4192.2 3739.7 4397.1H3329.9Z" fill="#758240"/>
<path transform="matrix(.1,0,0,-.1,0,792)" stroke-width="50" stroke-linecap="butt" stroke-miterlimit="10" stroke-linejoin="miter" fill="none" stroke="#ffffff" d="M3254.9 4267.2 3384.8 4192.2 3739.7 4397.1H3329.9Z"/>
<path transform="matrix(.1,0,0,-.1,0,792)" d="M2695.1 4267.2 2620.1 4397.1H2210.3L2565.2 4192.2Z" fill="#758240"/>
<path transform="matrix(.1,0,0,-.1,0,792)" stroke-width="50" stroke-linecap="butt" stroke-miterlimit="10" stroke-linejoin="miter" fill="none" stroke="#ffffff" d="M2695.1 4267.2 2620.1 4397.1H2210.3L2565.2 4192.2Z"/>
<path transform="matrix(.1,0,0,-.1,0,792)" d="M2695.1 4117.2 2565.2 4192.2 2210.3 3987.3H2620.1Z" fill="#758240"/>
<path transform="matrix(.1,0,0,-.1,0,792)" stroke-width="50" stroke-linecap="butt" stroke-miterlimit="10" stroke-linejoin="miter" fill="none" stroke="#ffffff" d="M2695.1 4117.2 2565.2 4192.2 2210.3 3987.3H2620.1Z"/>
<path transform="matrix(.1,0,0,-.1,0,792)" d="M2975 4602 3179.9 4956.9V5176.4L2975 5255 2770.1 5176.4V4956.9" fill="#404284"/>
<path transform="matrix(.1,0,0,-.1,0,792)" stroke-width="50" stroke-linecap="butt" stroke-miterlimit="10" stroke-linejoin="miter" fill="none" stroke="#ffffff" d="M2975 4602 3179.9 4956.9V5176.4L2975 5255 2770.1 5176.4V4956.9Z"/>
<path transform="matrix(.1,0,0,-.1,0,792)" d="M2975 3782.4 2770.1 3427.5V3208L2975 3129.3 3179.9 3208V3427.5" fill="#404284"/>
<path transform="matrix(.1,0,0,-.1,0,792)" stroke-width="50" stroke-linecap="butt" stroke-miterlimit="10" stroke-linejoin="miter" fill="none" stroke="#ffffff" d="M2975 3782.4 2770.1 3427.5V3208L2975 3129.3 3179.9 3208V3427.5Z"/>
<path transform="matrix(.1,0,0,-.1,0,792)" d="M3329.9 3987.3 3534.8 3632.4 3724.9 3522.6 3895.5 3660.8 3929.8 3877.5 3739.7 3987.3" fill="#404284"/>
<path transform="matrix(.1,0,0,-.1,0,792)" stroke-width="50" stroke-linecap="butt" stroke-miterlimit="10" stroke-linejoin="miter" fill="none" stroke="#ffffff" d="M3329.9 3987.3 3534.8 3632.4 3724.9 3522.6 3895.5 3660.8 3929.8 3877.5 3739.7 3987.3Z"/>
<path transform="matrix(.1,0,0,-.1,0,792)" d="M3329.9 4397.1H3739.7L3929.8 4506.8 3895.5 4723.6 3724.9 4861.7 3534.8 4752" fill="#404284"/>
<path transform="matrix(.1,0,0,-.1,0,792)" stroke-width="50" stroke-linecap="butt" stroke-miterlimit="10" stroke-linejoin="miter" fill="none" stroke="#ffffff" d="M3329.9 4397.1H3739.7L3929.8 4506.8 3895.5 4723.6 3724.9 4861.7 3534.8 4752Z"/>
<path transform="matrix(.1,0,0,-.1,0,792)" d="M2620.1 4397.1 2415.2 4752 2225.1 4861.7 2054.5 4723.6 2020.2 4506.8 2210.3 4397.1" fill="#404284"/>
<path transform="matrix(.1,0,0,-.1,0,792)" stroke-width="50" stroke-linecap="butt" stroke-miterlimit="10" stroke-linejoin="miter" fill="none" stroke="#ffffff" d="M2620.1 4397.1 2415.2 4752 2225.1 4861.7 2054.5 4723.6 2020.2 4506.8 2210.3 4397.1Z"/>
<path transform="matrix(.1,0,0,-.1,0,792)" d="M2620.1 3987.3H2210.3L2020.2 3877.5 2054.5 3660.8 2225.1 3522.6 2415.2 3632.4" fill="#404284"/>
<path transform="matrix(.1,0,0,-.1,0,792)" stroke-width="50" stroke-linecap="butt" stroke-miterlimit="10" stroke-linejoin="miter" fill="none" stroke="#ffffff" d="M2620.1 3987.3H2210.3L2020.2 3877.5 2054.5 3660.8 2225.1 3522.6 2415.2 3632.4Z"/>
<path transform="matrix(.1,0,0,-.1,0,792)" d="M2565.2 4192.2 2210.3 4397.1H1990.8L1912.2 4192.2 1990.8 3987.3H2210.3" fill="#404284"/>
<path transform="matrix(.1,0,0,-.1,0,792)" stroke-width="50" stroke-linecap="butt" stroke-miterlimit="10" stroke-linejoin="miter" fill="none" stroke="#ffffff" d="M2565.2 4192.2 2210.3 4397.1H1990.8L1912.2 4192.2 1990.8 3987.3H2210.3Z"/>
<path transform="matrix(.1,0,0,-.1,0,792)" d="M3384.8 4192.2 3739.7 3987.3H3959.2L4037.8 4192.2 3959.2 4397.1H3739.7" fill="#404284"/>
<path transform="matrix(.1,0,0,-.1,0,792)" stroke-width="50" stroke-linecap="butt" stroke-miterlimit="10" stroke-linejoin="miter" fill="none" stroke="#ffffff" d="M3384.8 4192.2 3739.7 3987.3H3959.2L4037.8 4192.2 3959.2 4397.1H3739.7Z"/>
<path transform="matrix(.1,0,0,-.1,0,792)" d="M3179.9 4956.9 3289.6 5147 3506.4 5112.6 3292.4 5376.9 2975 5255 3179.9 5176.4" fill="#758240"/>
<path transform="matrix(.1,0,0,-.1,0,792)" stroke-width="50" stroke-linecap="butt" stroke-miterlimit="10" stroke-linejoin="miter" fill="none" stroke="#ffffff" d="M3179.9 4956.9 3289.6 5147 3506.4 5112.6 3292.4 5376.9 2975 5255 3179.9 5176.4Z"/>
<path transform="matrix(.1,0,0,-.1,0,792)" d="M2770.1 4956.9V5176.4L2975 5255 2657.6 5376.9 2443.6 5112.6 2660.4 5147" fill="#758240"/>
<path transform="matrix(.1,0,0,-.1,0,792)" stroke-width="50" stroke-linecap="butt" stroke-miterlimit="10" stroke-linejoin="miter" fill="none" stroke="#ffffff" d="M2770.1 4956.9V5176.4L2975 5255 2657.6 5376.9 2443.6 5112.6 2660.4 5147Z"/>
<path transform="matrix(.1,0,0,-.1,0,792)" d="M2415.2 4752 2305.5 4942.1 2443.6 5112.6 2107.7 5059.4 2054.5 4723.6 2225.1 4861.7" fill="#758240"/>
<path transform="matrix(.1,0,0,-.1,0,792)" stroke-width="50" stroke-linecap="butt" stroke-miterlimit="10" stroke-linejoin="miter" fill="none" stroke="#ffffff" d="M2415.2 4752 2305.5 4942.1 2443.6 5112.6 2107.7 5059.4 2054.5 4723.6 2225.1 4861.7Z"/>
<path transform="matrix(.1,0,0,-.1,0,792)" d="M2415.2 3632.4 2225.1 3522.6 2054.5 3660.8 2107.7 3324.9 2443.6 3271.7 2305.5 3442.3" fill="#758240"/>
<path transform="matrix(.1,0,0,-.1,0,792)" stroke-width="50" stroke-linecap="butt" stroke-miterlimit="10" stroke-linejoin="miter" fill="none" stroke="#ffffff" d="M2415.2 3632.4 2225.1 3522.6 2054.5 3660.8 2107.7 3324.9 2443.6 3271.7 2305.5 3442.3Z"/>
<path transform="matrix(.1,0,0,-.1,0,792)" d="M3534.8 3632.4 3644.5 3442.3 3506.4 3271.7 3842.3 3324.9 3895.5 3660.8 3724.9 3522.6" fill="#758240"/>
<path transform="matrix(.1,0,0,-.1,0,792)" stroke-width="50" stroke-linecap="butt" stroke-miterlimit="10" stroke-linejoin="miter" fill="none" stroke="#ffffff" d="M3534.8 3632.4 3644.5 3442.3 3506.4 3271.7 3842.3 3324.9 3895.5 3660.8 3724.9 3522.6Z"/>
<path transform="matrix(.1,0,0,-.1,0,792)" d="M3534.8 4752 3724.9 4861.7 3895.5 4723.6 3842.3 5059.4 3506.4 5112.6 3644.5 4942.1" fill="#758240"/>
<path transform="matrix(.1,0,0,-.1,0,792)" stroke-width="50" stroke-linecap="butt" stroke-miterlimit="10" stroke-linejoin="miter" fill="none" stroke="#ffffff" d="M3534.8 4752 3724.9 4861.7 3895.5 4723.6 3842.3 5059.4 3506.4 5112.6 3644.5 4942.1Z"/>
<path transform="matrix(.1,0,0,-.1,0,792)" d="M2770.1 3427.5 2660.4 3237.4 2443.6 3271.7 2657.6 3007.5 2975 3129.3 2770.1 3208" fill="#758240"/>
<path transform="matrix(.1,0,0,-.1,0,792)" stroke-width="50" stroke-linecap="butt" stroke-miterlimit="10" stroke-linejoin="miter" fill="none" stroke="#ffffff" d="M2770.1 3427.5 2660.4 3237.4 2443.6 3271.7 2657.6 3007.5 2975 3129.3 2770.1 3208Z"/>
<path transform="matrix(.1,0,0,-.1,0,792)" d="M3179.9 3427.5V3208L2975 3129.3 3292.4 3007.5 3506.4 3271.7 3289.6 3237.4" fill="#758240"/>
<path transform="matrix(.1,0,0,-.1,0,792)" stroke-width="50" stroke-linecap="butt" stroke-miterlimit="10" stroke-linejoin="miter" fill="none" stroke="#ffffff" d="M3179.9 3427.5V3208L2975 3129.3 3292.4 3007.5 3506.4 3271.7 3289.6 3237.4Z"/>
<path transform="matrix(.1,0,0,-.1,0,792)" d="M3506.4 5112.6 3842.3 5059.4 3794.9 5358.4 3587.2 5252.5 3575 5485.3 3292.4 5376.9" fill="#404284"/>
<path transform="matrix(.1,0,0,-.1,0,792)" stroke-width="50" stroke-linecap="butt" stroke-miterlimit="10" stroke-linejoin="miter" fill="none" stroke="#ffffff" d="M3506.4 5112.6 3842.3 5059.4 3794.9 5358.4 3587.2 5252.5 3575 5485.3 3292.4 5376.9Z"/>
<path transform="matrix(.1,0,0,-.1,0,792)" d="M2443.6 5112.6 2657.6 5376.9 2375 5485.3 2362.8 5252.5 2155.1 5358.4 2107.7 5059.4" fill="#404284"/>
<path transform="matrix(.1,0,0,-.1,0,792)" stroke-width="50" stroke-linecap="butt" stroke-miterlimit="10" stroke-linejoin="miter" fill="none" stroke="#ffffff" d="M2443.6 5112.6 2657.6 5376.9 2375 5485.3 2362.8 5252.5 2155.1 5358.4 2107.7 5059.4Z"/>
<path transform="matrix(.1,0,0,-.1,0,792)" d="M2443.6 3271.7 2107.7 3324.9 2155.1 3026 2362.8 3131.8 2375 2899 2657.6 3007.5" fill="#404284"/>
<path transform="matrix(.1,0,0,-.1,0,792)" stroke-width="50" stroke-linecap="butt" stroke-miterlimit="10" stroke-linejoin="miter" fill="none" stroke="#ffffff" d="M2443.6 3271.7 2107.7 3324.9 2155.1 3026 2362.8 3131.8 2375 2899 2657.6 3007.5Z"/>
<path transform="matrix(.1,0,0,-.1,0,792)" d="M3506.4 3271.7 3292.4 3007.5 3575 2899 3587.2 3131.8 3794.9 3026 3842.3 3324.9" fill="#404284"/>
<path transform="matrix(.1,0,0,-.1,0,792)" stroke-width="50" stroke-linecap="butt" stroke-miterlimit="10" stroke-linejoin="miter" fill="none" stroke="#ffffff" d="M3506.4 3271.7 3292.4 3007.5 3575 2899 3587.2 3131.8 3794.9 3026 3842.3 3324.9Z"/>
<path transform="matrix(.1,0,0,-.1,0,792)" d="M3587.2 5252.5 3794.9 5358.4 3763.4 5557.7 3575 5485.3Z" fill="#758240"/>
<path transform="matrix(.1,0,0,-.1,0,792)" stroke-width="50" stroke-linecap="butt" stroke-miterlimit="10" stroke-linejoin="miter" fill="none" stroke="#ffffff" d="M3587.2 5252.5 3794.9 5358.4 3763.4 5557.7 3575 5485.3Z"/>
<path transform="matrix(.1,0,0,-.1,0,792)" d="M2362.8 5252.5 2375 5485.3 2186.6 5557.7 2155.1 5358.4Z" fill="#758240"/>
<path transform="matrix(.1,0,0,-.1,0,792)" stroke-width="50" stroke-linecap="butt" stroke-miterlimit="10" stroke-linejoin="miter" fill="none" stroke="#ffffff" d="M2362.8 5252.5 2375 5485.3 2186.6 5557.7 2155.1 5358.4Z"/>
<path transform="matrix(.1,0,0,-.1,0,792)" d="M2975 5255 3292.4 5376.9 3102 5612.1 2975 5416.6 2848 5612.1 2657.6 5376.9" fill="#404284"/>
<path transform="matrix(.1,0,0,-.1,0,792)" stroke-width="50" stroke-linecap="butt" stroke-miterlimit="10" stroke-linejoin="miter" fill="none" stroke="#ffffff" d="M2975 5255 3292.4 5376.9 3102 5612.1 2975 5416.6 2848 5612.1 2657.6 5376.9Z"/>
<path transform="matrix(.1,0,0,-.1,0,792)" d="M2210.3 4397.1 2020.2 4506.8 2054.5 4723.6 1790.3 4509.6 1912.2 4192.2 1990.8 4397.1" fill="#758240"/>
<path transform="matrix(.1,0,0,-.1,0,792)" stroke-width="50" stroke-linecap="butt" stroke-miterlimit="10" stroke-linejoin="miter" fill="none" stroke="#ffffff" d="M2210.3 4397.1 2020.2 4506.8 2054.5 4723.6 1790.3 4509.6 1912.2 4192.2 1990.8 4397.1Z"/>
<path transform="matrix(.1,0,0,-.1,0,792)" d="M2210.3 3987.3H1990.8L1912.2 4192.2 1790.3 3874.7 2054.5 3660.8 2020.2 3877.5" fill="#758240"/>
<path transform="matrix(.1,0,0,-.1,0,792)" stroke-width="50" stroke-linecap="butt" stroke-miterlimit="10" stroke-linejoin="miter" fill="none" stroke="#ffffff" d="M2210.3 3987.3H1990.8L1912.2 4192.2 1790.3 3874.7 2054.5 3660.8 2020.2 3877.5Z"/>
<path transform="matrix(.1,0,0,-.1,0,792)" d="M3739.7 3987.3 3929.8 3877.5 3895.5 3660.8 4159.7 3874.7 4037.8 4192.2 3959.2 3987.3" fill="#758240"/>
<path transform="matrix(.1,0,0,-.1,0,792)" stroke-width="50" stroke-linecap="butt" stroke-miterlimit="10" stroke-linejoin="miter" fill="none" stroke="#ffffff" d="M3739.7 3987.3 3929.8 3877.5 3895.5 3660.8 4159.7 3874.7 4037.8 4192.2 3959.2 3987.3Z"/>
<path transform="matrix(.1,0,0,-.1,0,792)" d="M3739.7 4397.1H3959.2L4037.8 4192.2 4159.7 4509.6 3895.5 4723.6 3929.8 4506.8" fill="#758240"/>
<path transform="matrix(.1,0,0,-.1,0,792)" stroke-width="50" stroke-linecap="butt" stroke-miterlimit="10" stroke-linejoin="miter" fill="none" stroke="#ffffff" d="M3739.7 4397.1H3959.2L4037.8 4192.2 4159.7 4509.6 3895.5 4723.6 3929.8 4506.8Z"/>
<path transform="matrix(.1,0,0,-.1,0,792)" d="M2362.8 3131.8 2155.1 3026 2186.6 2826.7 2375 2899Z" fill="#758240"/>
<path transform="matrix(.1,0,0,-.1,0,792)" stroke-width="50" stroke-linecap="butt" stroke-miterlimit="10" stroke-linejoin="miter" fill="none" stroke="#ffffff" d="M2362.8 3131.8 2155.1 3026 2186.6 2826.7 2375 2899Z"/>
<path transform="matrix(.1,0,0,-.1,0,792)" d="M3587.2 3131.8 3575 2899 3763.4 2826.7 3794.9 3026Z" fill="#758240"/>
<path transform="matrix(.1,0,0,-.1,0,792)" stroke-width="50" stroke-linecap="butt" stroke-miterlimit="10" stroke-linejoin="miter" fill="none" stroke="#ffffff" d="M3587.2 3131.8 3575 2899 3763.4 2826.7 3794.9 3026Z"/>
<path transform="matrix(.1,0,0,-.1,0,792)" d="M2975 3129.3 2657.6 3007.5 2848 2772.3 2975 2967.8 3102 2772.3 3292.4 3007.5" fill="#404284"/>
<path transform="matrix(.1,0,0,-.1,0,792)" stroke-width="50" stroke-linecap="butt" stroke-miterlimit="10" stroke-linejoin="miter" fill="none" stroke="#ffffff" d="M2975 3129.3 2657.6 3007.5 2848 2772.3 2975 2967.8 3102 2772.3 3292.4 3007.5Z"/>
<path transform="matrix(.1,0,0,-.1,0,792)" d="M3794.9 5358.4 4064.6 5495.8 3937.3 5623 4105.3 5687.6 3936.1 5856.8 3704.9 5918.8 3733 5741 3559.1 5787.6 3575 5485.3 3763.4 5557.7" fill="#404284"/>
<path transform="matrix(.1,0,0,-.1,0,792)" stroke-width="50" stroke-linecap="butt" stroke-miterlimit="10" stroke-linejoin="miter" fill="none" stroke="#ffffff" d="M3794.9 5358.4 4064.6 5495.8 3937.3 5623 4105.3 5687.6 3936.1 5856.8 3704.9 5918.8 3733 5741 3559.1 5787.6 3575 5485.3 3763.4 5557.7Z"/>
<path transform="matrix(.1,0,0,-.1,0,792)" d="M3794.9 5358.4 3842.3 5059.4 4141.2 5012.1 4278.6 5281.8 4064.6 5495.8" fill="#758240"/>
<path transform="matrix(.1,0,0,-.1,0,792)" stroke-width="50" stroke-linecap="butt" stroke-miterlimit="10" stroke-linejoin="miter" fill="none" stroke="#ffffff" d="M3794.9 5358.4 3842.3 5059.4 4141.2 5012.1 4278.6 5281.8 4064.6 5495.8Z"/>
<path transform="matrix(.1,0,0,-.1,0,792)" d="M2155.1 5358.4 1885.4 5495.8 1671.4 5281.8 1808.8 5012.1 2107.7 5059.4" fill="#758240"/>
<path transform="matrix(.1,0,0,-.1,0,792)" stroke-width="50" stroke-linecap="butt" stroke-miterlimit="10" stroke-linejoin="miter" fill="none" stroke="#ffffff" d="M2155.1 5358.4 1885.4 5495.8 1671.4 5281.8 1808.8 5012.1 2107.7 5059.4Z"/>
<path transform="matrix(.1,0,0,-.1,0,792)" d="M2155.1 5358.4 2186.6 5557.7 2375 5485.3 2390.9 5787.6 2217 5741 2245.1 5918.8 2013.9 5856.8 1844.7 5687.6 2012.7 5623 1885.4 5495.8" fill="#404284"/>
<path transform="matrix(.1,0,0,-.1,0,792)" stroke-width="50" stroke-linecap="butt" stroke-miterlimit="10" stroke-linejoin="miter" fill="none" stroke="#ffffff" d="M2155.1 5358.4 2186.6 5557.7 2375 5485.3 2390.9 5787.6 2217 5741 2245.1 5918.8 2013.9 5856.8 1844.7 5687.6 2012.7 5623 1885.4 5495.8Z"/>
<path transform="matrix(.1,0,0,-.1,0,792)" d="M2657.6 5376.9 2848 5612.1 2683.2 5865.9 2390.9 5787.6 2375 5485.3" fill="#758240"/>
<path transform="matrix(.1,0,0,-.1,0,792)" stroke-width="50" stroke-linecap="butt" stroke-miterlimit="10" stroke-linejoin="miter" fill="none" stroke="#ffffff" d="M2657.6 5376.9 2848 5612.1 2683.2 5865.9 2390.9 5787.6 2375 5485.3Z"/>
<path transform="matrix(.1,0,0,-.1,0,792)" d="M3292.4 5376.9 3575 5485.3 3559.1 5787.6 3266.8 5865.9 3102 5612.1" fill="#758240"/>
<path transform="matrix(.1,0,0,-.1,0,792)" stroke-width="50" stroke-linecap="butt" stroke-miterlimit="10" stroke-linejoin="miter" fill="none" stroke="#ffffff" d="M3292.4 5376.9 3575 5485.3 3559.1 5787.6 3266.8 5865.9 3102 5612.1Z"/>
<path transform="matrix(.1,0,0,-.1,0,792)" d="M2155.1 3026 1885.4 2888.6 2012.7 2761.3 1844.7 2696.8 2013.9 2527.5 2245.1 2465.6 2217 2643.4 2390.9 2596.8 2375 2899 2186.6 2826.7" fill="#404284"/>
<path transform="matrix(.1,0,0,-.1,0,792)" stroke-width="50" stroke-linecap="butt" stroke-miterlimit="10" stroke-linejoin="miter" fill="none" stroke="#ffffff" d="M2155.1 3026 1885.4 2888.6 2012.7 2761.3 1844.7 2696.8 2013.9 2527.5 2245.1 2465.6 2217 2643.4 2390.9 2596.8 2375 2899 2186.6 2826.7Z"/>
<path transform="matrix(.1,0,0,-.1,0,792)" d="M2155.1 3026 2107.7 3324.9 1808.8 3372.3 1671.4 3102.6 1885.4 2888.6" fill="#758240"/>
<path transform="matrix(.1,0,0,-.1,0,792)" stroke-width="50" stroke-linecap="butt" stroke-miterlimit="10" stroke-linejoin="miter" fill="none" stroke="#ffffff" d="M2155.1 3026 2107.7 3324.9 1808.8 3372.3 1671.4 3102.6 1885.4 2888.6Z"/>
<path transform="matrix(.1,0,0,-.1,0,792)" d="M3794.9 3026 4064.6 2888.6 4278.6 3102.6 4141.2 3372.3 3842.3 3324.9" fill="#758240"/>
<path transform="matrix(.1,0,0,-.1,0,792)" stroke-width="50" stroke-linecap="butt" stroke-miterlimit="10" stroke-linejoin="miter" fill="none" stroke="#ffffff" d="M3794.9 3026 4064.6 2888.6 4278.6 3102.6 4141.2 3372.3 3842.3 3324.9Z"/>
<path transform="matrix(.1,0,0,-.1,0,792)" d="M3794.9 3026 3763.4 2826.7 3575 2899 3559.1 2596.8 3733 2643.4 3704.9 2465.6 3936.1 2527.5 4105.3 2696.8 3937.3 2761.3 4064.6 2888.6" fill="#404284"/>
<path transform="matrix(.1,0,0,-.1,0,792)" stroke-width="50" stroke-linecap="butt" stroke-miterlimit="10" stroke-linejoin="miter" fill="none" stroke="#ffffff" d="M3794.9 3026 3763.4 2826.7 3575 2899 3559.1 2596.8 3733 2643.4 3704.9 2465.6 3936.1 2527.5 4105.3 2696.8 3937.3 2761.3 4064.6 2888.6Z"/>
<path transform="matrix(.1,0,0,-.1,0,792)" d="M3842.3 3324.9 4141.2 3372.3 4035.3 3580 4268.2 3592.2 4159.7 3874.7 3895.5 3660.8" fill="#404284"/>
<path transform="matrix(.1,0,0,-.1,0,792)" stroke-width="50" stroke-linecap="butt" stroke-miterlimit="10" stroke-linejoin="miter" fill="none" stroke="#ffffff" d="M3842.3 3324.9 4141.2 3372.3 4035.3 3580 4268.2 3592.2 4159.7 3874.7 3895.5 3660.8Z"/>
<path transform="matrix(.1,0,0,-.1,0,792)" d="M3842.3 5059.4 3895.5 4723.6 4159.7 4509.6 4268.2 4792.2 4035.3 4804.4 4141.2 5012.1" fill="#404284"/>
<path transform="matrix(.1,0,0,-.1,0,792)" stroke-width="50" stroke-linecap="butt" stroke-miterlimit="10" stroke-linejoin="miter" fill="none" stroke="#ffffff" d="M3842.3 5059.4 3895.5 4723.6 4159.7 4509.6 4268.2 4792.2 4035.3 4804.4 4141.2 5012.1Z"/>
<path transform="matrix(.1,0,0,-.1,0,792)" d="M2107.7 5059.4 1808.8 5012.1 1914.7 4804.4 1681.8 4792.2 1790.3 4509.6 2054.5 4723.6" fill="#404284"/>
<path transform="matrix(.1,0,0,-.1,0,792)" stroke-width="50" stroke-linecap="butt" stroke-miterlimit="10" stroke-linejoin="miter" fill="none" stroke="#ffffff" d="M2107.7 5059.4 1808.8 5012.1 1914.7 4804.4 1681.8 4792.2 1790.3 4509.6 2054.5 4723.6Z"/>
<path transform="matrix(.1,0,0,-.1,0,792)" d="M2107.7 3324.9 2054.5 3660.8 1790.3 3874.7 1681.8 3592.2 1914.7 3580 1808.8 3372.3" fill="#404284"/>
<path transform="matrix(.1,0,0,-.1,0,792)" stroke-width="50" stroke-linecap="butt" stroke-miterlimit="10" stroke-linejoin="miter" fill="none" stroke="#ffffff" d="M2107.7 3324.9 2054.5 3660.8 1790.3 3874.7 1681.8 3592.2 1914.7 3580 1808.8 3372.3Z"/>
<path transform="matrix(.1,0,0,-.1,0,792)" d="M2657.6 3007.5 2375 2899 2390.9 2596.8 2683.2 2518.5 2848 2772.3" fill="#758240"/>
<path transform="matrix(.1,0,0,-.1,0,792)" stroke-width="50" stroke-linecap="butt" stroke-miterlimit="10" stroke-linejoin="miter" fill="none" stroke="#ffffff" d="M2657.6 3007.5 2375 2899 2390.9 2596.8 2683.2 2518.5 2848 2772.3Z"/>
<path transform="matrix(.1,0,0,-.1,0,792)" d="M3292.4 3007.5 3102 2772.3 3266.8 2518.5 3559.1 2596.8 3575 2899" fill="#758240"/>
<path transform="matrix(.1,0,0,-.1,0,792)" stroke-width="50" stroke-linecap="butt" stroke-miterlimit="10" stroke-linejoin="miter" fill="none" stroke="#ffffff" d="M3292.4 3007.5 3102 2772.3 3266.8 2518.5 3559.1 2596.8 3575 2899Z"/>
<path transform="matrix(.1,0,0,-.1,0,792)" d="M2975 5416.6 3102 5612.1 2975 5768.9 2848 5612.1Z" fill="#758240"/>
<path transform="matrix(.1,0,0,-.1,0,792)" stroke-width="50" stroke-linecap="butt" stroke-miterlimit="10" stroke-linejoin="miter" fill="none" stroke="#ffffff" d="M2975 5416.6 3102 5612.1 2975 5768.9 2848 5612.1Z"/>
<path transform="matrix(.1,0,0,-.1,0,792)" d="M2975 2967.8 2848 2772.3 2975 2615.5 3102 2772.3Z" fill="#758240"/>
<path transform="matrix(.1,0,0,-.1,0,792)" stroke-width="50" stroke-linecap="butt" stroke-miterlimit="10" stroke-linejoin="miter" fill="none" stroke="#ffffff" d="M2975 2967.8 2848 2772.3 2975 2615.5 3102 2772.3Z"/>
<path transform="matrix(.1,0,0,-.1,0,792)" d="M3102 5612.1 3266.8 5865.9 3092.9 5912.5 3206.2 6052.4 2975 6114.3 2743.8 6052.4 2857.1 5912.5 2683.2 5865.9 2848 5612.1 2975 5768.9" fill="#404284"/>
<path transform="matrix(.1,0,0,-.1,0,792)" stroke-width="50" stroke-linecap="butt" stroke-miterlimit="10" stroke-linejoin="miter" fill="none" stroke="#ffffff" d="M3102 5612.1 3266.8 5865.9 3092.9 5912.5 3206.2 6052.4 2975 6114.3 2743.8 6052.4 2857.1 5912.5 2683.2 5865.9 2848 5612.1 2975 5768.9Z"/>
<path transform="matrix(.1,0,0,-.1,0,792)" d="M2012.7 5623 1844.7 5687.6 1731.4 5574.3 1885.4 5495.8Z" fill="#758240"/>
<path transform="matrix(.1,0,0,-.1,0,792)" stroke-width="50" stroke-linecap="butt" stroke-miterlimit="10" stroke-linejoin="miter" fill="none" stroke="#ffffff" d="M2012.7 5623 1844.7 5687.6 1731.4 5574.3 1885.4 5495.8Z"/>
<path transform="matrix(.1,0,0,-.1,0,792)" d="M3937.3 5623 4064.6 5495.8 4218.6 5574.3 4105.3 5687.6Z" fill="#758240"/>
<path transform="matrix(.1,0,0,-.1,0,792)" stroke-width="50" stroke-linecap="butt" stroke-miterlimit="10" stroke-linejoin="miter" fill="none" stroke="#ffffff" d="M3937.3 5623 4064.6 5495.8 4218.6 5574.3 4105.3 5687.6Z"/>
<path transform="matrix(.1,0,0,-.1,0,792)" d="M2848 2772.3 2683.2 2518.5 2857.1 2471.9 2743.8 2332 2975 2270 3206.2 2332 3092.9 2471.9 3266.8 2518.5 3102 2772.3 2975 2615.5" fill="#404284"/>
<path transform="matrix(.1,0,0,-.1,0,792)" stroke-width="50" stroke-linecap="butt" stroke-miterlimit="10" stroke-linejoin="miter" fill="none" stroke="#ffffff" d="M2848 2772.3 2683.2 2518.5 2857.1 2471.9 2743.8 2332 2975 2270 3206.2 2332 3092.9 2471.9 3266.8 2518.5 3102 2772.3 2975 2615.5Z"/>
<path transform="matrix(.1,0,0,-.1,0,792)" d="M3937.3 2761.3 4105.3 2696.8 4218.6 2810.1 4064.6 2888.6Z" fill="#758240"/>
<path transform="matrix(.1,0,0,-.1,0,792)" stroke-width="50" stroke-linecap="butt" stroke-miterlimit="10" stroke-linejoin="miter" fill="none" stroke="#ffffff" d="M3937.3 2761.3 4105.3 2696.8 4218.6 2810.1 4064.6 2888.6Z"/>
<path transform="matrix(.1,0,0,-.1,0,792)" d="M2012.7 2761.3 1885.4 2888.6 1731.4 2810.1 1844.7 2696.8Z" fill="#758240"/>
<path transform="matrix(.1,0,0,-.1,0,792)" stroke-width="50" stroke-linecap="butt" stroke-miterlimit="10" stroke-linejoin="miter" fill="none" stroke="#ffffff" d="M2012.7 2761.3 1885.4 2888.6 1731.4 2810.1 1844.7 2696.8Z"/>
<path transform="matrix(.1,0,0,-.1,0,792)" d="M4035.3 3580 4141.2 3372.3 4340.5 3403.8 4268.2 3592.2Z" fill="#758240"/>
<path transform="matrix(.1,0,0,-.1,0,792)" stroke-width="50" stroke-linecap="butt" stroke-miterlimit="10" stroke-linejoin="miter" fill="none" stroke="#ffffff" d="M4035.3 3580 4141.2 3372.3 4340.5 3403.8 4268.2 3592.2Z"/>
<path transform="matrix(.1,0,0,-.1,0,792)" d="M4035.3 4804.4 4268.2 4792.2 4340.5 4980.5 4141.2 5012.1Z" fill="#758240"/>
<path transform="matrix(.1,0,0,-.1,0,792)" stroke-width="50" stroke-linecap="butt" stroke-miterlimit="10" stroke-linejoin="miter" fill="none" stroke="#ffffff" d="M4035.3 4804.4 4268.2 4792.2 4340.5 4980.5 4141.2 5012.1Z"/>
<path transform="matrix(.1,0,0,-.1,0,792)" d="M1914.7 4804.4 1808.8 5012.1 1609.5 4980.5 1681.8 4792.2Z" fill="#758240"/>
<path transform="matrix(.1,0,0,-.1,0,792)" stroke-width="50" stroke-linecap="butt" stroke-miterlimit="10" stroke-linejoin="miter" fill="none" stroke="#ffffff" d="M1914.7 4804.4 1808.8 5012.1 1609.5 4980.5 1681.8 4792.2Z"/>
<path transform="matrix(.1,0,0,-.1,0,792)" d="M1914.7 3580 1681.8 3592.2 1609.5 3403.8 1808.8 3372.3Z" fill="#758240"/>
<path transform="matrix(.1,0,0,-.1,0,792)" stroke-width="50" stroke-linecap="butt" stroke-miterlimit="10" stroke-linejoin="miter" fill="none" stroke="#ffffff" d="M1914.7 3580 1681.8 3592.2 1609.5 3403.8 1808.8 3372.3Z"/>
<path transform="matrix(.1,0,0,-.1,0,792)" d="M4037.8 4192.2 4159.7 3874.7 4394.9 4065.2 4199.4 4192.2 4394.9 4319.2 4159.7 4509.6" fill="#404284"/>
<path transform="matrix(.1,0,0,-.1,0,792)" stroke-width="50" stroke-linecap="butt" stroke-miterlimit="10" stroke-linejoin="miter" fill="none" stroke="#ffffff" d="M4037.8 4192.2 4159.7 3874.7 4394.9 4065.2 4199.4 4192.2 4394.9 4319.2 4159.7 4509.6Z"/>
<path transform="matrix(.1,0,0,-.1,0,792)" d="M1912.2 4192.2 1790.3 4509.6 1555.1 4319.2 1750.6 4192.2 1555.1 4065.2 1790.3 3874.7" fill="#404284"/>
<path transform="matrix(.1,0,0,-.1,0,792)" stroke-width="50" stroke-linecap="butt" stroke-miterlimit="10" stroke-linejoin="miter" fill="none" stroke="#ffffff" d="M1912.2 4192.2 1790.3 4509.6 1555.1 4319.2 1750.6 4192.2 1555.1 4065.2 1790.3 3874.7Z"/>
<path transform="matrix(.1,0,0,-.1,0,792)" d="M1885.4 2888.6 1671.4 3102.6 1592.9 2948.5 1479.6 3061.8 1371.2 2779.3 1536 2753.2 1562.1 2588.4 1844.7 2696.8 1731.4 2810.1" fill="#404284"/>
<path transform="matrix(.1,0,0,-.1,0,792)" stroke-width="50" stroke-linecap="butt" stroke-miterlimit="10" stroke-linejoin="miter" fill="none" stroke="#ffffff" d="M1885.4 2888.6 1671.4 3102.6 1592.9 2948.5 1479.6 3061.8 1371.2 2779.3 1536 2753.2 1562.1 2588.4 1844.7 2696.8 1731.4 2810.1Z"/>
<path transform="matrix(.1,0,0,-.1,0,792)" d="M4064.6 2888.6 4218.6 2810.1 4105.3 2696.8 4387.9 2588.4 4414 2753.2 4578.8 2779.3 4470.4 3061.8 4357.1 2948.5 4278.6 3102.6" fill="#404284"/>
<path transform="matrix(.1,0,0,-.1,0,792)" stroke-width="50" stroke-linecap="butt" stroke-miterlimit="10" stroke-linejoin="miter" fill="none" stroke="#ffffff" d="M4064.6 2888.6 4218.6 2810.1 4105.3 2696.8 4387.9 2588.4 4414 2753.2 4578.8 2779.3 4470.4 3061.8 4357.1 2948.5 4278.6 3102.6Z"/>
<path transform="matrix(.1,0,0,-.1,0,792)" d="M4064.6 5495.8 4278.6 5281.8 4357.1 5435.8 4470.4 5322.5 4578.8 5605.1 4414 5631.2 4387.9 5796 4105.3 5687.6 4218.6 5574.3" fill="#404284"/>
<path transform="matrix(.1,0,0,-.1,0,792)" stroke-width="50" stroke-linecap="butt" stroke-miterlimit="10" stroke-linejoin="miter" fill="none" stroke="#ffffff" d="M4064.6 5495.8 4278.6 5281.8 4357.1 5435.8 4470.4 5322.5 4578.8 5605.1 4414 5631.2 4387.9 5796 4105.3 5687.6 4218.6 5574.3Z"/>
<path transform="matrix(.1,0,0,-.1,0,792)" d="M1885.4 5495.8 1731.4 5574.3 1844.7 5687.6 1562.1 5796 1536 5631.2 1371.2 5605.1 1479.6 5322.5 1592.9 5435.8 1671.4 5281.8" fill="#404284"/>
<path transform="matrix(.1,0,0,-.1,0,792)" stroke-width="50" stroke-linecap="butt" stroke-miterlimit="10" stroke-linejoin="miter" fill="none" stroke="#ffffff" d="M1885.4 5495.8 1731.4 5574.3 1844.7 5687.6 1562.1 5796 1536 5631.2 1371.2 5605.1 1479.6 5322.5 1592.9 5435.8 1671.4 5281.8Z"/>
<path transform="matrix(.1,0,0,-.1,0,792)" d="M3733 5741 3704.9 5918.8 3550.1 5960.2 3559.1 5787.6Z" fill="#758240"/>
<path transform="matrix(.1,0,0,-.1,0,792)" stroke-width="50" stroke-linecap="butt" stroke-miterlimit="10" stroke-linejoin="miter" fill="none" stroke="#ffffff" d="M3733 5741 3704.9 5918.8 3550.1 5960.2 3559.1 5787.6Z"/>
<path transform="matrix(.1,0,0,-.1,0,792)" d="M2217 5741 2390.9 5787.6 2399.9 5960.2 2245.1 5918.8Z" fill="#758240"/>
<path transform="matrix(.1,0,0,-.1,0,792)" stroke-width="50" stroke-linecap="butt" stroke-miterlimit="10" stroke-linejoin="miter" fill="none" stroke="#ffffff" d="M2217 5741 2390.9 5787.6 2399.9 5960.2 2245.1 5918.8Z"/>
<path transform="matrix(.1,0,0,-.1,0,792)" d="M1844.7 5687.6 2013.9 5856.8 2245.1 5918.8 2292.5 6217.7 2009.9 6326.2 1840.7 6156.9 1609.5 6094.9 1562.1 5796" fill="#758240"/>
<path transform="matrix(.1,0,0,-.1,0,792)" stroke-width="50" stroke-linecap="butt" stroke-miterlimit="10" stroke-linejoin="miter" fill="none" stroke="#ffffff" d="M1844.7 5687.6 2013.9 5856.8 2245.1 5918.8 2292.5 6217.7 2009.9 6326.2 1840.7 6156.9 1609.5 6094.9 1562.1 5796Z"/>
<path transform="matrix(.1,0,0,-.1,0,792)" d="M1844.7 2696.8 1562.1 2588.4 1609.5 2289.4 1840.7 2227.5 2009.9 2058.2 2292.5 2166.7 2245.1 2465.6 2013.9 2527.5" fill="#758240"/>
<path transform="matrix(.1,0,0,-.1,0,792)" stroke-width="50" stroke-linecap="butt" stroke-miterlimit="10" stroke-linejoin="miter" fill="none" stroke="#ffffff" d="M1844.7 2696.8 1562.1 2588.4 1609.5 2289.4 1840.7 2227.5 2009.9 2058.2 2292.5 2166.7 2245.1 2465.6 2013.9 2527.5Z"/>
<path transform="matrix(.1,0,0,-.1,0,792)" d="M4105.3 2696.8 3936.1 2527.5 3704.9 2465.6 3657.5 2166.7 3940.1 2058.2 4109.3 2227.5 4340.5 2289.4 4387.9 2588.4" fill="#758240"/>
<path transform="matrix(.1,0,0,-.1,0,792)" stroke-width="50" stroke-linecap="butt" stroke-miterlimit="10" stroke-linejoin="miter" fill="none" stroke="#ffffff" d="M4105.3 2696.8 3936.1 2527.5 3704.9 2465.6 3657.5 2166.7 3940.1 2058.2 4109.3 2227.5 4340.5 2289.4 4387.9 2588.4Z"/>
<path transform="matrix(.1,0,0,-.1,0,792)" d="M4105.3 5687.6 4387.9 5796 4340.5 6094.9 4109.3 6156.9 3940.1 6326.2 3657.5 6217.7 3704.9 5918.8 3936.1 5856.8" fill="#758240"/>
<path transform="matrix(.1,0,0,-.1,0,792)" stroke-width="50" stroke-linecap="butt" stroke-miterlimit="10" stroke-linejoin="miter" fill="none" stroke="#ffffff" d="M4105.3 5687.6 4387.9 5796 4340.5 6094.9 4109.3 6156.9 3940.1 6326.2 3657.5 6217.7 3704.9 5918.8 3936.1 5856.8Z"/>
<path transform="matrix(.1,0,0,-.1,0,792)" d="M2217 2643.4 2245.1 2465.6 2399.9 2424.1 2390.9 2596.8Z" fill="#758240"/>
<path transform="matrix(.1,0,0,-.1,0,792)" stroke-width="50" stroke-linecap="butt" stroke-miterlimit="10" stroke-linejoin="miter" fill="none" stroke="#ffffff" d="M2217 2643.4 2245.1 2465.6 2399.9 2424.1 2390.9 2596.8Z"/>
<path transform="matrix(.1,0,0,-.1,0,792)" d="M3733 2643.4 3559.1 2596.8 3550.1 2424.1 3704.9 2465.6Z" fill="#758240"/>
<path transform="matrix(.1,0,0,-.1,0,792)" stroke-width="50" stroke-linecap="butt" stroke-miterlimit="10" stroke-linejoin="miter" fill="none" stroke="#ffffff" d="M3733 2643.4 3559.1 2596.8 3550.1 2424.1 3704.9 2465.6Z"/>
<path transform="matrix(.1,0,0,-.1,0,792)" d="M3559.1 5787.6 3550.1 5960.2 3704.9 5918.8 3657.5 6217.7 3501.7 6157.9 3396.7 6287.6 3206.2 6052.4 3361 6010.9 3266.8 5865.9" fill="#404284"/>
<path transform="matrix(.1,0,0,-.1,0,792)" stroke-width="50" stroke-linecap="butt" stroke-miterlimit="10" stroke-linejoin="miter" fill="none" stroke="#ffffff" d="M3559.1 5787.6 3550.1 5960.2 3704.9 5918.8 3657.5 6217.7 3501.7 6157.9 3396.7 6287.6 3206.2 6052.4 3361 6010.9 3266.8 5865.9Z"/>
<path transform="matrix(.1,0,0,-.1,0,792)" d="M2390.9 5787.6 2683.2 5865.9 2589 6010.9 2743.8 6052.4 2553.3 6287.6 2448.3 6157.9 2292.5 6217.7 2245.1 5918.8 2399.9 5960.2" fill="#404284"/>
<path transform="matrix(.1,0,0,-.1,0,792)" stroke-width="50" stroke-linecap="butt" stroke-miterlimit="10" stroke-linejoin="miter" fill="none" stroke="#ffffff" d="M2390.9 5787.6 2683.2 5865.9 2589 6010.9 2743.8 6052.4 2553.3 6287.6 2448.3 6157.9 2292.5 6217.7 2245.1 5918.8 2399.9 5960.2Z"/>
<path transform="matrix(.1,0,0,-.1,0,792)" d="M1808.8 5012.1 1671.4 5281.8 1544.1 5154.5 1479.6 5322.5 1310.4 5153.3 1248.4 4922 1426.2 4950.2 1379.6 4776.3 1681.8 4792.2 1609.5 4980.5" fill="#404284"/>
<path transform="matrix(.1,0,0,-.1,0,792)" stroke-width="50" stroke-linecap="butt" stroke-miterlimit="10" stroke-linejoin="miter" fill="none" stroke="#ffffff" d="M1808.8 5012.1 1671.4 5281.8 1544.1 5154.5 1479.6 5322.5 1310.4 5153.3 1248.4 4922 1426.2 4950.2 1379.6 4776.3 1681.8 4792.2 1609.5 4980.5Z"/>
<path transform="matrix(.1,0,0,-.1,0,792)" d="M1808.8 3372.3 1609.5 3403.8 1681.8 3592.2 1379.6 3608 1426.2 3434.2 1248.4 3462.3 1310.4 3231.1 1479.6 3061.8 1544.1 3229.9 1671.4 3102.6" fill="#404284"/>
<path transform="matrix(.1,0,0,-.1,0,792)" stroke-width="50" stroke-linecap="butt" stroke-miterlimit="10" stroke-linejoin="miter" fill="none" stroke="#ffffff" d="M1808.8 3372.3 1609.5 3403.8 1681.8 3592.2 1379.6 3608 1426.2 3434.2 1248.4 3462.3 1310.4 3231.1 1479.6 3061.8 1544.1 3229.9 1671.4 3102.6Z"/>
<path transform="matrix(.1,0,0,-.1,0,792)" d="M4141.2 3372.3 4278.6 3102.6 4405.9 3229.9 4470.4 3061.8 4639.6 3231.1 4701.6 3462.3 4523.8 3434.2 4570.4 3608 4268.2 3592.2 4340.5 3403.8" fill="#404284"/>
<path transform="matrix(.1,0,0,-.1,0,792)" stroke-width="50" stroke-linecap="butt" stroke-miterlimit="10" stroke-linejoin="miter" fill="none" stroke="#ffffff" d="M4141.2 3372.3 4278.6 3102.6 4405.9 3229.9 4470.4 3061.8 4639.6 3231.1 4701.6 3462.3 4523.8 3434.2 4570.4 3608 4268.2 3592.2 4340.5 3403.8Z"/>
<path transform="matrix(.1,0,0,-.1,0,792)" d="M4141.2 5012.1 4340.5 4980.5 4268.2 4792.2 4570.4 4776.3 4523.8 4950.2 4701.6 4922 4639.6 5153.3 4470.4 5322.5 4405.9 5154.5 4278.6 5281.8" fill="#404284"/>
<path transform="matrix(.1,0,0,-.1,0,792)" stroke-width="50" stroke-linecap="butt" stroke-miterlimit="10" stroke-linejoin="miter" fill="none" stroke="#ffffff" d="M4141.2 5012.1 4340.5 4980.5 4268.2 4792.2 4570.4 4776.3 4523.8 4950.2 4701.6 4922 4639.6 5153.3 4470.4 5322.5 4405.9 5154.5 4278.6 5281.8Z"/>
<path transform="matrix(.1,0,0,-.1,0,792)" d="M2390.9 2596.8 2399.9 2424.1 2245.1 2465.6 2292.5 2166.7 2448.3 2226.5 2553.3 2096.8 2743.8 2332 2589 2373.4 2683.2 2518.5" fill="#404284"/>
<path transform="matrix(.1,0,0,-.1,0,792)" stroke-width="50" stroke-linecap="butt" stroke-miterlimit="10" stroke-linejoin="miter" fill="none" stroke="#ffffff" d="M2390.9 2596.8 2399.9 2424.1 2245.1 2465.6 2292.5 2166.7 2448.3 2226.5 2553.3 2096.8 2743.8 2332 2589 2373.4 2683.2 2518.5Z"/>
<path transform="matrix(.1,0,0,-.1,0,792)" d="M3559.1 2596.8 3266.8 2518.5 3361 2373.4 3206.2 2332 3396.7 2096.8 3501.7 2226.5 3657.5 2166.7 3704.9 2465.6 3550.1 2424.1" fill="#404284"/>
<path transform="matrix(.1,0,0,-.1,0,792)" stroke-width="50" stroke-linecap="butt" stroke-miterlimit="10" stroke-linejoin="miter" fill="none" stroke="#ffffff" d="M3559.1 2596.8 3266.8 2518.5 3361 2373.4 3206.2 2332 3396.7 2096.8 3501.7 2226.5 3657.5 2166.7 3704.9 2465.6 3550.1 2424.1Z"/>
<path transform="matrix(.1,0,0,-.1,0,792)" d="M4159.7 3874.7 4268.2 3592.2 4570.4 3608 4648.7 3900.4 4394.9 4065.2" fill="#758240"/>
<path transform="matrix(.1,0,0,-.1,0,792)" stroke-width="50" stroke-linecap="butt" stroke-miterlimit="10" stroke-linejoin="miter" fill="none" stroke="#ffffff" d="M4159.7 3874.7 4268.2 3592.2 4570.4 3608 4648.7 3900.4 4394.9 4065.2Z"/>
<path transform="matrix(.1,0,0,-.1,0,792)" d="M4159.7 4509.6 4394.9 4319.2 4648.7 4484 4570.4 4776.3 4268.2 4792.2" fill="#758240"/>
<path transform="matrix(.1,0,0,-.1,0,792)" stroke-width="50" stroke-linecap="butt" stroke-miterlimit="10" stroke-linejoin="miter" fill="none" stroke="#ffffff" d="M4159.7 4509.6 4394.9 4319.2 4648.7 4484 4570.4 4776.3 4268.2 4792.2Z"/>
<path transform="matrix(.1,0,0,-.1,0,792)" d="M1790.3 4509.6 1681.8 4792.2 1379.6 4776.3 1301.3 4484 1555.1 4319.2" fill="#758240"/>
<path transform="matrix(.1,0,0,-.1,0,792)" stroke-width="50" stroke-linecap="butt" stroke-miterlimit="10" stroke-linejoin="miter" fill="none" stroke="#ffffff" d="M1790.3 4509.6 1681.8 4792.2 1379.6 4776.3 1301.3 4484 1555.1 4319.2Z"/>
<path transform="matrix(.1,0,0,-.1,0,792)" d="M1790.3 3874.7 1555.1 4065.2 1301.3 3900.4 1379.6 3608 1681.8 3592.2" fill="#758240"/>
<path transform="matrix(.1,0,0,-.1,0,792)" stroke-width="50" stroke-linecap="butt" stroke-miterlimit="10" stroke-linejoin="miter" fill="none" stroke="#ffffff" d="M1790.3 3874.7 1555.1 4065.2 1301.3 3900.4 1379.6 3608 1681.8 3592.2Z"/>
<path transform="matrix(.1,0,0,-.1,0,792)" d="M3266.8 5865.9 3361 6010.9 3206.2 6052.4 3092.9 5912.5Z" fill="#758240"/>
<path transform="matrix(.1,0,0,-.1,0,792)" stroke-width="50" stroke-linecap="butt" stroke-miterlimit="10" stroke-linejoin="miter" fill="none" stroke="#ffffff" d="M3266.8 5865.9 3361 6010.9 3206.2 6052.4 3092.9 5912.5Z"/>
<path transform="matrix(.1,0,0,-.1,0,792)" d="M2683.2 5865.9 2857.1 5912.5 2743.8 6052.4 2589 6010.9Z" fill="#758240"/>
<path transform="matrix(.1,0,0,-.1,0,792)" stroke-width="50" stroke-linecap="butt" stroke-miterlimit="10" stroke-linejoin="miter" fill="none" stroke="#ffffff" d="M2683.2 5865.9 2857.1 5912.5 2743.8 6052.4 2589 6010.9Z"/>
<path transform="matrix(.1,0,0,-.1,0,792)" d="M1750.6 4192.2 1555.1 4319.2 1398.3 4192.2 1555.1 4065.2Z" fill="#758240"/>
<path transform="matrix(.1,0,0,-.1,0,792)" stroke-width="50" stroke-linecap="butt" stroke-miterlimit="10" stroke-linejoin="miter" fill="none" stroke="#ffffff" d="M1750.6 4192.2 1555.1 4319.2 1398.3 4192.2 1555.1 4065.2Z"/>
<path transform="matrix(.1,0,0,-.1,0,792)" d="M4199.4 4192.2 4394.9 4065.2 4551.7 4192.2 4394.9 4319.2Z" fill="#758240"/>
<path transform="matrix(.1,0,0,-.1,0,792)" stroke-width="50" stroke-linecap="butt" stroke-miterlimit="10" stroke-linejoin="miter" fill="none" stroke="#ffffff" d="M4199.4 4192.2 4394.9 4065.2 4551.7 4192.2 4394.9 4319.2Z"/>
<path transform="matrix(.1,0,0,-.1,0,792)" d="M2683.2 2518.5 2589 2373.4 2743.8 2332 2857.1 2471.9Z" fill="#758240"/>
<path transform="matrix(.1,0,0,-.1,0,792)" stroke-width="50" stroke-linecap="butt" stroke-miterlimit="10" stroke-linejoin="miter" fill="none" stroke="#ffffff" d="M2683.2 2518.5 2589 2373.4 2743.8 2332 2857.1 2471.9Z"/>
<path transform="matrix(.1,0,0,-.1,0,792)" d="M3266.8 2518.5 3092.9 2471.9 3206.2 2332 3361 2373.4Z" fill="#758240"/>
<path transform="matrix(.1,0,0,-.1,0,792)" stroke-width="50" stroke-linecap="butt" stroke-miterlimit="10" stroke-linejoin="miter" fill="none" stroke="#ffffff" d="M3266.8 2518.5 3092.9 2471.9 3206.2 2332 3361 2373.4Z"/>
<path transform="matrix(.1,0,0,-.1,0,792)" d="M4278.6 3102.6 4357.1 2948.5 4470.4 3061.8 4405.9 3229.9Z" fill="#758240"/>
<path transform="matrix(.1,0,0,-.1,0,792)" stroke-width="50" stroke-linecap="butt" stroke-miterlimit="10" stroke-linejoin="miter" fill="none" stroke="#ffffff" d="M4278.6 3102.6 4357.1 2948.5 4470.4 3061.8 4405.9 3229.9Z"/>
<path transform="matrix(.1,0,0,-.1,0,792)" d="M4278.6 5281.8 4405.9 5154.5 4470.4 5322.5 4357.1 5435.8Z" fill="#758240"/>
<path transform="matrix(.1,0,0,-.1,0,792)" stroke-width="50" stroke-linecap="butt" stroke-miterlimit="10" stroke-linejoin="miter" fill="none" stroke="#ffffff" d="M4278.6 5281.8 4405.9 5154.5 4470.4 5322.5 4357.1 5435.8Z"/>
<path transform="matrix(.1,0,0,-.1,0,792)" d="M1671.4 5281.8 1592.9 5435.8 1479.6 5322.5 1544.1 5154.5Z" fill="#758240"/>
<path transform="matrix(.1,0,0,-.1,0,792)" stroke-width="50" stroke-linecap="butt" stroke-miterlimit="10" stroke-linejoin="miter" fill="none" stroke="#ffffff" d="M1671.4 5281.8 1592.9 5435.8 1479.6 5322.5 1544.1 5154.5Z"/>
<path transform="matrix(.1,0,0,-.1,0,792)" d="M1671.4 3102.6 1544.1 3229.9 1479.6 3061.8 1592.9 2948.5Z" fill="#758240"/>
<path transform="matrix(.1,0,0,-.1,0,792)" stroke-width="50" stroke-linecap="butt" stroke-miterlimit="10" stroke-linejoin="miter" fill="none" stroke="#ffffff" d="M1671.4 3102.6 1544.1 3229.9 1479.6 3061.8 1592.9 2948.5Z"/>
<path transform="matrix(.1,0,0,-.1,0,792)" d="M3206.2 6052.4 3396.7 6287.6 3206.2 6522.8 2975 6460.8 2743.8 6522.8 2553.3 6287.6 2743.8 6052.4 2975 6114.3" fill="#758240"/>
<path transform="matrix(.1,0,0,-.1,0,792)" stroke-width="50" stroke-linecap="butt" stroke-miterlimit="10" stroke-linejoin="miter" fill="none" stroke="#ffffff" d="M3206.2 6052.4 3396.7 6287.6 3206.2 6522.8 2975 6460.8 2743.8 6522.8 2553.3 6287.6 2743.8 6052.4 2975 6114.3Z"/>
<path transform="matrix(.1,0,0,-.1,0,792)" d="M2743.8 2332 2553.3 2096.8 2743.8 1861.6 2975 1923.5 3206.2 1861.6 3396.7 2096.8 3206.2 2332 2975 2270" fill="#758240"/>
<path transform="matrix(.1,0,0,-.1,0,792)" stroke-width="50" stroke-linecap="butt" stroke-miterlimit="10" stroke-linejoin="miter" fill="none" stroke="#ffffff" d="M2743.8 2332 2553.3 2096.8 2743.8 1861.6 2975 1923.5 3206.2 1861.6 3396.7 2096.8 3206.2 2332 2975 2270Z"/>
<path transform="matrix(.1,0,0,-.1,0,792)" d="M4340.5 6094.9 4312.4 6272.7 4486.3 6226.1 4470.4 6528.4 4282.1 6456.1 4250.5 6655.3 3980.8 6517.9 4108.1 6390.7 3940.1 6326.2 4109.3 6156.9" fill="#404284"/>
<path transform="matrix(.1,0,0,-.1,0,792)" stroke-width="50" stroke-linecap="butt" stroke-miterlimit="10" stroke-linejoin="miter" fill="none" stroke="#ffffff" d="M4340.5 6094.9 4312.4 6272.7 4486.3 6226.1 4470.4 6528.4 4282.1 6456.1 4250.5 6655.3 3980.8 6517.9 4108.1 6390.7 3940.1 6326.2 4109.3 6156.9Z"/>
<path transform="matrix(.1,0,0,-.1,0,792)" d="M4340.5 6094.9 4495.3 6053.5 4486.3 6226.1 4312.4 6272.7Z" fill="#758240"/>
<path transform="matrix(.1,0,0,-.1,0,792)" stroke-width="50" stroke-linecap="butt" stroke-miterlimit="10" stroke-linejoin="miter" fill="none" stroke="#ffffff" d="M4340.5 6094.9 4495.3 6053.5 4486.3 6226.1 4312.4 6272.7Z"/>
<path transform="matrix(.1,0,0,-.1,0,792)" d="M4340.5 6094.9 4387.9 5796H4578.8L4747.9 5965.1V6156L4486.3 6226.1 4495.3 6053.5" fill="#404284"/>
<path transform="matrix(.1,0,0,-.1,0,792)" stroke-width="50" stroke-linecap="butt" stroke-miterlimit="10" stroke-linejoin="miter" fill="none" stroke="#ffffff" d="M4340.5 6094.9 4387.9 5796H4578.8L4747.9 5965.1V6156L4486.3 6226.1 4495.3 6053.5Z"/>
<path transform="matrix(.1,0,0,-.1,0,792)" d="M1609.5 6094.9 1454.7 6053.5 1463.7 6226.1 1202.1 6156V5965.1L1371.2 5796H1562.1" fill="#404284"/>
<path transform="matrix(.1,0,0,-.1,0,792)" stroke-width="50" stroke-linecap="butt" stroke-miterlimit="10" stroke-linejoin="miter" fill="none" stroke="#ffffff" d="M1609.5 6094.9 1454.7 6053.5 1463.7 6226.1 1202.1 6156V5965.1L1371.2 5796H1562.1Z"/>
<path transform="matrix(.1,0,0,-.1,0,792)" d="M1609.5 6094.9 1637.6 6272.7 1463.7 6226.1 1454.7 6053.5Z" fill="#758240"/>
<path transform="matrix(.1,0,0,-.1,0,792)" stroke-width="50" stroke-linecap="butt" stroke-miterlimit="10" stroke-linejoin="miter" fill="none" stroke="#ffffff" d="M1609.5 6094.9 1637.6 6272.7 1463.7 6226.1 1454.7 6053.5Z"/>
<path transform="matrix(.1,0,0,-.1,0,792)" d="M1609.5 6094.9 1840.7 6156.9 2009.9 6326.2 1841.9 6390.7 1969.2 6517.9 1699.5 6655.3 1667.9 6456.1 1479.6 6528.4 1463.7 6226.1 1637.6 6272.7" fill="#404284"/>
<path transform="matrix(.1,0,0,-.1,0,792)" stroke-width="50" stroke-linecap="butt" stroke-miterlimit="10" stroke-linejoin="miter" fill="none" stroke="#ffffff" d="M1609.5 6094.9 1840.7 6156.9 2009.9 6326.2 1841.9 6390.7 1969.2 6517.9 1699.5 6655.3 1667.9 6456.1 1479.6 6528.4 1463.7 6226.1 1637.6 6272.7Z"/>
<path transform="matrix(.1,0,0,-.1,0,792)" d="M1609.5 2289.4 1637.6 2111.6 1463.7 2158.2 1479.6 1856 1667.9 1928.3 1699.5 1729 1969.2 1866.4 1841.9 1993.7 2009.9 2058.2 1840.7 2227.5" fill="#404284"/>
<path transform="matrix(.1,0,0,-.1,0,792)" stroke-width="50" stroke-linecap="butt" stroke-miterlimit="10" stroke-linejoin="miter" fill="none" stroke="#ffffff" d="M1609.5 2289.4 1637.6 2111.6 1463.7 2158.2 1479.6 1856 1667.9 1928.3 1699.5 1729 1969.2 1866.4 1841.9 1993.7 2009.9 2058.2 1840.7 2227.5Z"/>
<path transform="matrix(.1,0,0,-.1,0,792)" d="M1609.5 2289.4 1454.7 2330.9 1463.7 2158.2 1637.6 2111.6Z" fill="#758240"/>
<path transform="matrix(.1,0,0,-.1,0,792)" stroke-width="50" stroke-linecap="butt" stroke-miterlimit="10" stroke-linejoin="miter" fill="none" stroke="#ffffff" d="M1609.5 2289.4 1454.7 2330.9 1463.7 2158.2 1637.6 2111.6Z"/>
<path transform="matrix(.1,0,0,-.1,0,792)" d="M1609.5 2289.4 1562.1 2588.4H1371.2L1202.1 2419.3V2228.3L1463.7 2158.2 1454.7 2330.9" fill="#404284"/>
<path transform="matrix(.1,0,0,-.1,0,792)" stroke-width="50" stroke-linecap="butt" stroke-miterlimit="10" stroke-linejoin="miter" fill="none" stroke="#ffffff" d="M1609.5 2289.4 1562.1 2588.4H1371.2L1202.1 2419.3V2228.3L1463.7 2158.2 1454.7 2330.9Z"/>
<path transform="matrix(.1,0,0,-.1,0,792)" d="M4340.5 2289.4 4495.3 2330.9 4486.3 2158.2 4747.9 2228.3V2419.3L4578.8 2588.4H4387.9" fill="#404284"/>
<path transform="matrix(.1,0,0,-.1,0,792)" stroke-width="50" stroke-linecap="butt" stroke-miterlimit="10" stroke-linejoin="miter" fill="none" stroke="#ffffff" d="M4340.5 2289.4 4495.3 2330.9 4486.3 2158.2 4747.9 2228.3V2419.3L4578.8 2588.4H4387.9Z"/>
<path transform="matrix(.1,0,0,-.1,0,792)" d="M4340.5 2289.4 4312.4 2111.6 4486.3 2158.2 4495.3 2330.9Z" fill="#758240"/>
<path transform="matrix(.1,0,0,-.1,0,792)" stroke-width="50" stroke-linecap="butt" stroke-miterlimit="10" stroke-linejoin="miter" fill="none" stroke="#ffffff" d="M4340.5 2289.4 4312.4 2111.6 4486.3 2158.2 4495.3 2330.9Z"/>
<path transform="matrix(.1,0,0,-.1,0,792)" d="M4340.5 2289.4 4109.3 2227.5 3940.1 2058.2 4108.1 1993.7 3980.8 1866.4 4250.5 1729 4282.1 1928.3 4470.4 1856 4486.3 2158.2 4312.4 2111.6" fill="#404284"/>
<path transform="matrix(.1,0,0,-.1,0,792)" stroke-width="50" stroke-linecap="butt" stroke-miterlimit="10" stroke-linejoin="miter" fill="none" stroke="#ffffff" d="M4340.5 2289.4 4109.3 2227.5 3940.1 2058.2 4108.1 1993.7 3980.8 1866.4 4250.5 1729 4282.1 1928.3 4470.4 1856 4486.3 2158.2 4312.4 2111.6Z"/>
<path transform="matrix(.1,0,0,-.1,0,792)" d="M4387.9 2588.4H4578.8V2779.3L4414 2753.2Z" fill="#758240"/>
<path transform="matrix(.1,0,0,-.1,0,792)" stroke-width="50" stroke-linecap="butt" stroke-miterlimit="10" stroke-linejoin="miter" fill="none" stroke="#ffffff" d="M4387.9 2588.4H4578.8V2779.3L4414 2753.2Z"/>
<path transform="matrix(.1,0,0,-.1,0,792)" d="M4387.9 5796 4414 5631.2 4578.8 5605.1V5796Z" fill="#758240"/>
<path transform="matrix(.1,0,0,-.1,0,792)" stroke-width="50" stroke-linecap="butt" stroke-miterlimit="10" stroke-linejoin="miter" fill="none" stroke="#ffffff" d="M4387.9 5796 4414 5631.2 4578.8 5605.1V5796Z"/>
<path transform="matrix(.1,0,0,-.1,0,792)" d="M1562.1 5796H1371.2V5605.1L1536 5631.2Z" fill="#758240"/>
<path transform="matrix(.1,0,0,-.1,0,792)" stroke-width="50" stroke-linecap="butt" stroke-miterlimit="10" stroke-linejoin="miter" fill="none" stroke="#ffffff" d="M1562.1 5796H1371.2V5605.1L1536 5631.2Z"/>
<path transform="matrix(.1,0,0,-.1,0,792)" d="M1562.1 2588.4 1536 2753.2 1371.2 2779.3V2588.4Z" fill="#758240"/>
<path transform="matrix(.1,0,0,-.1,0,792)" stroke-width="50" stroke-linecap="butt" stroke-miterlimit="10" stroke-linejoin="miter" fill="none" stroke="#ffffff" d="M1562.1 2588.4 1536 2753.2 1371.2 2779.3V2588.4Z"/>
<path transform="matrix(.1,0,0,-.1,0,792)" d="M3501.7 6157.9 3657.5 6217.7 3562 6383.1 3396.7 6287.6Z" fill="#758240"/>
<path transform="matrix(.1,0,0,-.1,0,792)" stroke-width="50" stroke-linecap="butt" stroke-miterlimit="10" stroke-linejoin="miter" fill="none" stroke="#ffffff" d="M3501.7 6157.9 3657.5 6217.7 3562 6383.1 3396.7 6287.6Z"/>
<path transform="matrix(.1,0,0,-.1,0,792)" d="M2448.3 6157.9 2553.3 6287.6 2388 6383.1 2292.5 6217.7Z" fill="#758240"/>
<path transform="matrix(.1,0,0,-.1,0,792)" stroke-width="50" stroke-linecap="butt" stroke-miterlimit="10" stroke-linejoin="miter" fill="none" stroke="#ffffff" d="M2448.3 6157.9 2553.3 6287.6 2388 6383.1 2292.5 6217.7Z"/>
<path transform="matrix(.1,0,0,-.1,0,792)" d="M1555.1 4319.2 1301.3 4484 1254.7 4310.1 1114.8 4423.4 1052.8 4192.2 1114.8 3961 1254.7 4074.2 1301.3 3900.4 1555.1 4065.2 1398.3 4192.2" fill="#404284"/>
<path transform="matrix(.1,0,0,-.1,0,792)" stroke-width="50" stroke-linecap="butt" stroke-miterlimit="10" stroke-linejoin="miter" fill="none" stroke="#ffffff" d="M1555.1 4319.2 1301.3 4484 1254.7 4310.1 1114.8 4423.4 1052.8 4192.2 1114.8 3961 1254.7 4074.2 1301.3 3900.4 1555.1 4065.2 1398.3 4192.2Z"/>
<path transform="matrix(.1,0,0,-.1,0,792)" d="M4394.9 4065.2 4648.7 3900.4 4695.3 4074.2 4835.2 3961 4897.2 4192.2 4835.2 4423.4 4695.3 4310.1 4648.7 4484 4394.9 4319.2 4551.7 4192.2" fill="#404284"/>
<path transform="matrix(.1,0,0,-.1,0,792)" stroke-width="50" stroke-linecap="butt" stroke-miterlimit="10" stroke-linejoin="miter" fill="none" stroke="#ffffff" d="M4394.9 4065.2 4648.7 3900.4 4695.3 4074.2 4835.2 3961 4897.2 4192.2 4835.2 4423.4 4695.3 4310.1 4648.7 4484 4394.9 4319.2 4551.7 4192.2Z"/>
<path transform="matrix(.1,0,0,-.1,0,792)" d="M2448.3 2226.5 2292.5 2166.7 2388 2001.3 2553.3 2096.8Z" fill="#758240"/>
<path transform="matrix(.1,0,0,-.1,0,792)" stroke-width="50" stroke-linecap="butt" stroke-miterlimit="10" stroke-linejoin="miter" fill="none" stroke="#ffffff" d="M2448.3 2226.5 2292.5 2166.7 2388 2001.3 2553.3 2096.8Z"/>
<path transform="matrix(.1,0,0,-.1,0,792)" d="M3501.7 2226.5 3396.7 2096.8 3562 2001.3 3657.5 2166.7Z" fill="#758240"/>
<path transform="matrix(.1,0,0,-.1,0,792)" stroke-width="50" stroke-linecap="butt" stroke-miterlimit="10" stroke-linejoin="miter" fill="none" stroke="#ffffff" d="M3501.7 2226.5 3396.7 2096.8 3562 2001.3 3657.5 2166.7Z"/>
<path transform="matrix(.1,0,0,-.1,0,792)" d="M3657.5 6217.7 3940.1 6326.2 3826.8 6439.5 3980.8 6517.9 3789.3 6709.5 3623.9 6614 3562 6383.1" fill="#404284"/>
<path transform="matrix(.1,0,0,-.1,0,792)" stroke-width="50" stroke-linecap="butt" stroke-miterlimit="10" stroke-linejoin="miter" fill="none" stroke="#ffffff" d="M3657.5 6217.7 3940.1 6326.2 3826.8 6439.5 3980.8 6517.9 3789.3 6709.5 3623.9 6614 3562 6383.1Z"/>
<path transform="matrix(.1,0,0,-.1,0,792)" d="M2292.5 6217.7 2388 6383.1 2326.1 6614 2160.7 6709.5 1969.2 6517.9 2123.2 6439.5 2009.9 6326.2" fill="#404284"/>
<path transform="matrix(.1,0,0,-.1,0,792)" stroke-width="50" stroke-linecap="butt" stroke-miterlimit="10" stroke-linejoin="miter" fill="none" stroke="#ffffff" d="M2292.5 6217.7 2388 6383.1 2326.1 6614 2160.7 6709.5 1969.2 6517.9 2123.2 6439.5 2009.9 6326.2Z"/>
<path transform="matrix(.1,0,0,-.1,0,792)" d="M2292.5 2166.7 2009.9 2058.2 2123.2 1944.9 1969.2 1866.4 2160.7 1674.9 2326.1 1770.3 2388 2001.3" fill="#404284"/>
<path transform="matrix(.1,0,0,-.1,0,792)" stroke-width="50" stroke-linecap="butt" stroke-miterlimit="10" stroke-linejoin="miter" fill="none" stroke="#ffffff" d="M2292.5 2166.7 2009.9 2058.2 2123.2 1944.9 1969.2 1866.4 2160.7 1674.9 2326.1 1770.3 2388 2001.3Z"/>
<path transform="matrix(.1,0,0,-.1,0,792)" d="M3657.5 2166.7 3562 2001.3 3623.9 1770.3 3789.3 1674.9 3980.8 1866.4 3826.8 1944.9 3940.1 2058.2" fill="#404284"/>
<path transform="matrix(.1,0,0,-.1,0,792)" stroke-width="50" stroke-linecap="butt" stroke-miterlimit="10" stroke-linejoin="miter" fill="none" stroke="#ffffff" d="M3657.5 2166.7 3562 2001.3 3623.9 1770.3 3789.3 1674.9 3980.8 1866.4 3826.8 1944.9 3940.1 2058.2Z"/>
<path transform="matrix(.1,0,0,-.1,0,792)" d="M4470.4 3061.8 4578.8 2779.3 4877.8 2826.6 4939.7 3057.9 5109 3227.1 5000.5 3509.7 4701.6 3462.3 4639.6 3231.1" fill="#758240"/>
<path transform="matrix(.1,0,0,-.1,0,792)" stroke-width="50" stroke-linecap="butt" stroke-miterlimit="10" stroke-linejoin="miter" fill="none" stroke="#ffffff" d="M4470.4 3061.8 4578.8 2779.3 4877.8 2826.6 4939.7 3057.9 5109 3227.1 5000.5 3509.7 4701.6 3462.3 4639.6 3231.1Z"/>
<path transform="matrix(.1,0,0,-.1,0,792)" d="M4470.4 5322.5 4639.6 5153.3 4701.6 4922 5000.5 4874.7 5109 5157.2 4939.7 5326.5 4877.8 5557.7 4578.8 5605.1" fill="#758240"/>
<path transform="matrix(.1,0,0,-.1,0,792)" stroke-width="50" stroke-linecap="butt" stroke-miterlimit="10" stroke-linejoin="miter" fill="none" stroke="#ffffff" d="M4470.4 5322.5 4639.6 5153.3 4701.6 4922 5000.5 4874.7 5109 5157.2 4939.7 5326.5 4877.8 5557.7 4578.8 5605.1Z"/>
<path transform="matrix(.1,0,0,-.1,0,792)" d="M1479.6 5322.5 1371.2 5605.1 1072.2 5557.7 1010.3 5326.5 841 5157.2 949.5 4874.7 1248.4 4922 1310.4 5153.3" fill="#758240"/>
<path transform="matrix(.1,0,0,-.1,0,792)" stroke-width="50" stroke-linecap="butt" stroke-miterlimit="10" stroke-linejoin="miter" fill="none" stroke="#ffffff" d="M1479.6 5322.5 1371.2 5605.1 1072.2 5557.7 1010.3 5326.5 841 5157.2 949.5 4874.7 1248.4 4922 1310.4 5153.3Z"/>
<path transform="matrix(.1,0,0,-.1,0,792)" d="M1479.6 3061.8 1310.4 3231.1 1248.4 3462.3 949.5 3509.7 841 3227.1 1010.3 3057.9 1072.2 2826.6 1371.2 2779.3" fill="#758240"/>
<path transform="matrix(.1,0,0,-.1,0,792)" stroke-width="50" stroke-linecap="butt" stroke-miterlimit="10" stroke-linejoin="miter" fill="none" stroke="#ffffff" d="M1479.6 3061.8 1310.4 3231.1 1248.4 3462.3 949.5 3509.7 841 3227.1 1010.3 3057.9 1072.2 2826.6 1371.2 2779.3Z"/>
<path transform="matrix(.1,0,0,-.1,0,792)" d="M3396.7 6287.6 3562 6383.1 3623.9 6614 3528.5 6779.4 3266.8 6709.3 3361 6564.3 3206.2 6522.8" fill="#404284"/>
<path transform="matrix(.1,0,0,-.1,0,792)" stroke-width="50" stroke-linecap="butt" stroke-miterlimit="10" stroke-linejoin="miter" fill="none" stroke="#ffffff" d="M3396.7 6287.6 3562 6383.1 3623.9 6614 3528.5 6779.4 3266.8 6709.3 3361 6564.3 3206.2 6522.8Z"/>
<path transform="matrix(.1,0,0,-.1,0,792)" d="M2553.3 6287.6 2743.8 6522.8 2589 6564.3 2683.2 6709.3 2421.5 6779.4 2326.1 6614 2388 6383.1" fill="#404284"/>
<path transform="matrix(.1,0,0,-.1,0,792)" stroke-width="50" stroke-linecap="butt" stroke-miterlimit="10" stroke-linejoin="miter" fill="none" stroke="#ffffff" d="M2553.3 6287.6 2743.8 6522.8 2589 6564.3 2683.2 6709.3 2421.5 6779.4 2326.1 6614 2388 6383.1Z"/>
<path transform="matrix(.1,0,0,-.1,0,792)" d="M2553.3 2096.8 2388 2001.3 2326.1 1770.3 2421.5 1605 2683.2 1675.1 2589 1820.1 2743.8 1861.6" fill="#404284"/>
<path transform="matrix(.1,0,0,-.1,0,792)" stroke-width="50" stroke-linecap="butt" stroke-miterlimit="10" stroke-linejoin="miter" fill="none" stroke="#ffffff" d="M2553.3 2096.8 2388 2001.3 2326.1 1770.3 2421.5 1605 2683.2 1675.1 2589 1820.1 2743.8 1861.6Z"/>
<path transform="matrix(.1,0,0,-.1,0,792)" d="M3396.7 2096.8 3206.2 1861.6 3361 1820.1 3266.8 1675.1 3528.5 1605 3623.9 1770.3 3562 2001.3" fill="#404284"/>
<path transform="matrix(.1,0,0,-.1,0,792)" stroke-width="50" stroke-linecap="butt" stroke-miterlimit="10" stroke-linejoin="miter" fill="none" stroke="#ffffff" d="M3396.7 2096.8 3206.2 1861.6 3361 1820.1 3266.8 1675.1 3528.5 1605 3623.9 1770.3 3562 2001.3Z"/>
<path transform="matrix(.1,0,0,-.1,0,792)" d="M3940.1 6326.2 4108.1 6390.7 3980.8 6517.9 3826.8 6439.5Z" fill="#758240"/>
<path transform="matrix(.1,0,0,-.1,0,792)" stroke-width="50" stroke-linecap="butt" stroke-miterlimit="10" stroke-linejoin="miter" fill="none" stroke="#ffffff" d="M3940.1 6326.2 4108.1 6390.7 3980.8 6517.9 3826.8 6439.5Z"/>
<path transform="matrix(.1,0,0,-.1,0,792)" d="M2009.9 6326.2 2123.2 6439.5 1969.2 6517.9 1841.9 6390.7Z" fill="#758240"/>
<path transform="matrix(.1,0,0,-.1,0,792)" stroke-width="50" stroke-linecap="butt" stroke-miterlimit="10" stroke-linejoin="miter" fill="none" stroke="#ffffff" d="M2009.9 6326.2 2123.2 6439.5 1969.2 6517.9 1841.9 6390.7Z"/>
<path transform="matrix(.1,0,0,-.1,0,792)" d="M1426.2 4950.2 1248.4 4922 1206.9 4767.3 1379.6 4776.3Z" fill="#758240"/>
<path transform="matrix(.1,0,0,-.1,0,792)" stroke-width="50" stroke-linecap="butt" stroke-miterlimit="10" stroke-linejoin="miter" fill="none" stroke="#ffffff" d="M1426.2 4950.2 1248.4 4922 1206.9 4767.3 1379.6 4776.3Z"/>
<path transform="matrix(.1,0,0,-.1,0,792)" d="M1426.2 3434.2 1379.6 3608 1206.9 3617.1 1248.4 3462.3Z" fill="#758240"/>
<path transform="matrix(.1,0,0,-.1,0,792)" stroke-width="50" stroke-linecap="butt" stroke-miterlimit="10" stroke-linejoin="miter" fill="none" stroke="#ffffff" d="M1426.2 3434.2 1379.6 3608 1206.9 3617.1 1248.4 3462.3Z"/>
<path transform="matrix(.1,0,0,-.1,0,792)" d="M4523.8 3434.2 4701.6 3462.3 4743.1 3617.1 4570.4 3608Z" fill="#758240"/>
<path transform="matrix(.1,0,0,-.1,0,792)" stroke-width="50" stroke-linecap="butt" stroke-miterlimit="10" stroke-linejoin="miter" fill="none" stroke="#ffffff" d="M4523.8 3434.2 4701.6 3462.3 4743.1 3617.1 4570.4 3608Z"/>
<path transform="matrix(.1,0,0,-.1,0,792)" d="M4523.8 4950.2 4570.4 4776.3 4743.1 4767.3 4701.6 4922Z" fill="#758240"/>
<path transform="matrix(.1,0,0,-.1,0,792)" stroke-width="50" stroke-linecap="butt" stroke-miterlimit="10" stroke-linejoin="miter" fill="none" stroke="#ffffff" d="M4523.8 4950.2 4570.4 4776.3 4743.1 4767.3 4701.6 4922Z"/>
<path transform="matrix(.1,0,0,-.1,0,792)" d="M2009.9 2058.2 1841.9 1993.7 1969.2 1866.4 2123.2 1944.9Z" fill="#758240"/>
<path transform="matrix(.1,0,0,-.1,0,792)" stroke-width="50" stroke-linecap="butt" stroke-miterlimit="10" stroke-linejoin="miter" fill="none" stroke="#ffffff" d="M2009.9 2058.2 1841.9 1993.7 1969.2 1866.4 2123.2 1944.9Z"/>
<path transform="matrix(.1,0,0,-.1,0,792)" d="M3940.1 2058.2 3826.8 1944.9 3980.8 1866.4 4108.1 1993.7Z" fill="#758240"/>
<path transform="matrix(.1,0,0,-.1,0,792)" stroke-width="50" stroke-linecap="butt" stroke-miterlimit="10" stroke-linejoin="miter" fill="none" stroke="#ffffff" d="M3940.1 2058.2 3826.8 1944.9 3980.8 1866.4 4108.1 1993.7Z"/>
<path transform="matrix(.1,0,0,-.1,0,792)" d="M4570.4 3608 4743.1 3617.1 4701.6 3462.3 5000.5 3509.7 4940.7 3665.5 5070.4 3770.5 4835.2 3961 4793.7 3806.2 4648.7 3900.4" fill="#404284"/>
<path transform="matrix(.1,0,0,-.1,0,792)" stroke-width="50" stroke-linecap="butt" stroke-miterlimit="10" stroke-linejoin="miter" fill="none" stroke="#ffffff" d="M4570.4 3608 4743.1 3617.1 4701.6 3462.3 5000.5 3509.7 4940.7 3665.5 5070.4 3770.5 4835.2 3961 4793.7 3806.2 4648.7 3900.4Z"/>
<path transform="matrix(.1,0,0,-.1,0,792)" d="M4570.4 4776.3 4648.7 4484 4793.7 4578.2 4835.2 4423.4 5070.4 4613.9 4940.7 4718.9 5000.5 4874.7 4701.6 4922 4743.1 4767.3" fill="#404284"/>
<path transform="matrix(.1,0,0,-.1,0,792)" stroke-width="50" stroke-linecap="butt" stroke-miterlimit="10" stroke-linejoin="miter" fill="none" stroke="#ffffff" d="M4570.4 4776.3 4648.7 4484 4793.7 4578.2 4835.2 4423.4 5070.4 4613.9 4940.7 4718.9 5000.5 4874.7 4701.6 4922 4743.1 4767.3Z"/>
<path transform="matrix(.1,0,0,-.1,0,792)" d="M1379.6 4776.3 1206.9 4767.3 1248.4 4922 949.5 4874.7 1009.3 4718.9 879.602 4613.9 1114.8 4423.4 1156.3 4578.2 1301.3 4484" fill="#404284"/>
<path transform="matrix(.1,0,0,-.1,0,792)" stroke-width="50" stroke-linecap="butt" stroke-miterlimit="10" stroke-linejoin="miter" fill="none" stroke="#ffffff" d="M1379.6 4776.3 1206.9 4767.3 1248.4 4922 949.5 4874.7 1009.3 4718.9 879.602 4613.9 1114.8 4423.4 1156.3 4578.2 1301.3 4484Z"/>
<path transform="matrix(.1,0,0,-.1,0,792)" d="M1379.6 3608 1301.3 3900.4 1156.3 3806.2 1114.8 3961 879.602 3770.5 1009.3 3665.5 949.5 3509.7 1248.4 3462.3 1206.9 3617.1" fill="#404284"/>
<path transform="matrix(.1,0,0,-.1,0,792)" stroke-width="50" stroke-linecap="butt" stroke-miterlimit="10" stroke-linejoin="miter" fill="none" stroke="#ffffff" d="M1379.6 3608 1301.3 3900.4 1156.3 3806.2 1114.8 3961 879.602 3770.5 1009.3 3665.5 949.5 3509.7 1248.4 3462.3 1206.9 3617.1Z"/>
<path transform="matrix(.1,0,0,-.1,0,792)" d="M1371.2 2779.3 1072.2 2826.6 1113.7 2671.9 941 2680.9 1011.2 2419.3H1202.1L1371.2 2588.4" fill="#404284"/>
<path transform="matrix(.1,0,0,-.1,0,792)" stroke-width="50" stroke-linecap="butt" stroke-miterlimit="10" stroke-linejoin="miter" fill="none" stroke="#ffffff" d="M1371.2 2779.3 1072.2 2826.6 1113.7 2671.9 941 2680.9 1011.2 2419.3H1202.1L1371.2 2588.4Z"/>
<path transform="matrix(.1,0,0,-.1,0,792)" d="M4578.8 2588.4 4747.9 2419.3H4938.8L5009 2680.9 4836.3 2671.9 4877.8 2826.6 4578.8 2779.3" fill="#404284"/>
<path transform="matrix(.1,0,0,-.1,0,792)" stroke-width="50" stroke-linecap="butt" stroke-miterlimit="10" stroke-linejoin="miter" fill="none" stroke="#ffffff" d="M4578.8 2588.4 4747.9 2419.3H4938.8L5009 2680.9 4836.3 2671.9 4877.8 2826.6 4578.8 2779.3Z"/>
<path transform="matrix(.1,0,0,-.1,0,792)" d="M4578.8 5605.1 4877.8 5557.7 4836.3 5712.5 5009 5703.4 4938.8 5965.1H4747.9L4578.8 5796" fill="#404284"/>
<path transform="matrix(.1,0,0,-.1,0,792)" stroke-width="50" stroke-linecap="butt" stroke-miterlimit="10" stroke-linejoin="miter" fill="none" stroke="#ffffff" d="M4578.8 5605.1 4877.8 5557.7 4836.3 5712.5 5009 5703.4 4938.8 5965.1H4747.9L4578.8 5796Z"/>
<path transform="matrix(.1,0,0,-.1,0,792)" d="M1371.2 5796 1202.1 5965.1H1011.2L941 5703.4 1113.7 5712.5 1072.2 5557.7 1371.2 5605.1" fill="#404284"/>
<path transform="matrix(.1,0,0,-.1,0,792)" stroke-width="50" stroke-linecap="butt" stroke-miterlimit="10" stroke-linejoin="miter" fill="none" stroke="#ffffff" d="M1371.2 5796 1202.1 5965.1H1011.2L941 5703.4 1113.7 5712.5 1072.2 5557.7 1371.2 5605.1Z"/>
<path transform="matrix(.1,0,0,-.1,0,792)" d="M4282.1 6456.1 4470.4 6528.4 4458.2 6761.2 4250.5 6655.3Z" fill="#758240"/>
<path transform="matrix(.1,0,0,-.1,0,792)" stroke-width="50" stroke-linecap="butt" stroke-miterlimit="10" stroke-linejoin="miter" fill="none" stroke="#ffffff" d="M4282.1 6456.1 4470.4 6528.4 4458.2 6761.2 4250.5 6655.3Z"/>
<path transform="matrix(.1,0,0,-.1,0,792)" d="M1667.9 6456.1 1699.5 6655.3 1491.8 6761.2 1479.6 6528.4Z" fill="#758240"/>
<path transform="matrix(.1,0,0,-.1,0,792)" stroke-width="50" stroke-linecap="butt" stroke-miterlimit="10" stroke-linejoin="miter" fill="none" stroke="#ffffff" d="M1667.9 6456.1 1699.5 6655.3 1491.8 6761.2 1479.6 6528.4Z"/>
<path transform="matrix(.1,0,0,-.1,0,792)" d="M2975 6460.8 3206.2 6522.8 3092.9 6662.7 3266.8 6709.3 3102 6963.1 2975 6806.3 2848 6963.1 2683.2 6709.3 2857.1 6662.7 2743.8 6522.8" fill="#404284"/>
<path transform="matrix(.1,0,0,-.1,0,792)" stroke-width="50" stroke-linecap="butt" stroke-miterlimit="10" stroke-linejoin="miter" fill="none" stroke="#ffffff" d="M2975 6460.8 3206.2 6522.8 3092.9 6662.7 3266.8 6709.3 3102 6963.1 2975 6806.3 2848 6963.1 2683.2 6709.3 2857.1 6662.7 2743.8 6522.8Z"/>
<path transform="matrix(.1,0,0,-.1,0,792)" d="M1667.9 1928.3 1479.6 1856 1491.8 1623.2 1699.5 1729Z" fill="#758240"/>
<path transform="matrix(.1,0,0,-.1,0,792)" stroke-width="50" stroke-linecap="butt" stroke-miterlimit="10" stroke-linejoin="miter" fill="none" stroke="#ffffff" d="M1667.9 1928.3 1479.6 1856 1491.8 1623.2 1699.5 1729Z"/>
<path transform="matrix(.1,0,0,-.1,0,792)" d="M4282.1 1928.3 4250.5 1729 4458.2 1623.2 4470.4 1856Z" fill="#758240"/>
<path transform="matrix(.1,0,0,-.1,0,792)" stroke-width="50" stroke-linecap="butt" stroke-miterlimit="10" stroke-linejoin="miter" fill="none" stroke="#ffffff" d="M4282.1 1928.3 4250.5 1729 4458.2 1623.2 4470.4 1856Z"/>
<path transform="matrix(.1,0,0,-.1,0,792)" d="M2975 1923.5 2743.8 1861.6 2857.1 1721.7 2683.2 1675.1 2848 1421.3 2975 1578.1 3102 1421.3 3266.8 1675.1 3092.9 1721.7 3206.2 1861.6" fill="#404284"/>
<path transform="matrix(.1,0,0,-.1,0,792)" stroke-width="50" stroke-linecap="butt" stroke-miterlimit="10" stroke-linejoin="miter" fill="none" stroke="#ffffff" d="M2975 1923.5 2743.8 1861.6 2857.1 1721.7 2683.2 1675.1 2848 1421.3 2975 1578.1 3102 1421.3 3266.8 1675.1 3092.9 1721.7 3206.2 1861.6Z"/>
<path transform="matrix(.1,0,0,-.1,0,792)" d="M4648.7 3900.4 4793.7 3806.2 4835.2 3961 4695.3 4074.2Z" fill="#758240"/>
<path transform="matrix(.1,0,0,-.1,0,792)" stroke-width="50" stroke-linecap="butt" stroke-miterlimit="10" stroke-linejoin="miter" fill="none" stroke="#ffffff" d="M4648.7 3900.4 4793.7 3806.2 4835.2 3961 4695.3 4074.2Z"/>
<path transform="matrix(.1,0,0,-.1,0,792)" d="M4648.7 4484 4695.3 4310.1 4835.2 4423.4 4793.7 4578.2Z" fill="#758240"/>
<path transform="matrix(.1,0,0,-.1,0,792)" stroke-width="50" stroke-linecap="butt" stroke-miterlimit="10" stroke-linejoin="miter" fill="none" stroke="#ffffff" d="M4648.7 4484 4695.3 4310.1 4835.2 4423.4 4793.7 4578.2Z"/>
<path transform="matrix(.1,0,0,-.1,0,792)" d="M1301.3 4484 1156.3 4578.2 1114.8 4423.4 1254.7 4310.1Z" fill="#758240"/>
<path transform="matrix(.1,0,0,-.1,0,792)" stroke-width="50" stroke-linecap="butt" stroke-miterlimit="10" stroke-linejoin="miter" fill="none" stroke="#ffffff" d="M1301.3 4484 1156.3 4578.2 1114.8 4423.4 1254.7 4310.1Z"/>
<path transform="matrix(.1,0,0,-.1,0,792)" d="M1301.3 3900.4 1254.7 4074.2 1114.8 3961 1156.3 3806.2Z" fill="#758240"/>
<path transform="matrix(.1,0,0,-.1,0,792)" stroke-width="50" stroke-linecap="butt" stroke-miterlimit="10" stroke-linejoin="miter" fill="none" stroke="#ffffff" d="M1301.3 3900.4 1254.7 4074.2 1114.8 3961 1156.3 3806.2Z"/>
<path transform="matrix(.1,0,0,-.1,0,792)" d="M3206.2 6522.8 3361 6564.3 3266.8 6709.3 3092.9 6662.7Z" fill="#758240"/>
<path transform="matrix(.1,0,0,-.1,0,792)" stroke-width="50" stroke-linecap="butt" stroke-miterlimit="10" stroke-linejoin="miter" fill="none" stroke="#ffffff" d="M3206.2 6522.8 3361 6564.3 3266.8 6709.3 3092.9 6662.7Z"/>
<path transform="matrix(.1,0,0,-.1,0,792)" d="M2743.8 6522.8 2857.1 6662.7 2683.2 6709.3 2589 6564.3Z" fill="#758240"/>
<path transform="matrix(.1,0,0,-.1,0,792)" stroke-width="50" stroke-linecap="butt" stroke-miterlimit="10" stroke-linejoin="miter" fill="none" stroke="#ffffff" d="M2743.8 6522.8 2857.1 6662.7 2683.2 6709.3 2589 6564.3Z"/>
<path transform="matrix(.1,0,0,-.1,0,792)" d="M2743.8 1861.6 2589 1820.1 2683.2 1675.1 2857.1 1721.7Z" fill="#758240"/>
<path transform="matrix(.1,0,0,-.1,0,792)" stroke-width="50" stroke-linecap="butt" stroke-miterlimit="10" stroke-linejoin="miter" fill="none" stroke="#ffffff" d="M2743.8 1861.6 2589 1820.1 2683.2 1675.1 2857.1 1721.7Z"/>
<path transform="matrix(.1,0,0,-.1,0,792)" d="M3206.2 1861.6 3092.9 1721.7 3266.8 1675.1 3361 1820.1Z" fill="#758240"/>
<path transform="matrix(.1,0,0,-.1,0,792)" stroke-width="50" stroke-linecap="butt" stroke-miterlimit="10" stroke-linejoin="miter" fill="none" stroke="#ffffff" d="M3206.2 1861.6 3092.9 1721.7 3266.8 1675.1 3361 1820.1Z"/>
<path transform="matrix(.1,0,0,-.1,0,792)" d="M3623.9 6614 3789.3 6709.5 3679 6819.7 3528.5 6779.4Z" fill="#758240"/>
<path transform="matrix(.1,0,0,-.1,0,792)" stroke-width="50" stroke-linecap="butt" stroke-miterlimit="10" stroke-linejoin="miter" fill="none" stroke="#ffffff" d="M3623.9 6614 3789.3 6709.5 3679 6819.7 3528.5 6779.4Z"/>
<path transform="matrix(.1,0,0,-.1,0,792)" d="M2326.1 6614 2421.5 6779.4 2271 6819.7 2160.7 6709.5Z" fill="#758240"/>
<path transform="matrix(.1,0,0,-.1,0,792)" stroke-width="50" stroke-linecap="butt" stroke-miterlimit="10" stroke-linejoin="miter" fill="none" stroke="#ffffff" d="M2326.1 6614 2421.5 6779.4 2271 6819.7 2160.7 6709.5Z"/>
<path transform="matrix(.1,0,0,-.1,0,792)" d="M2326.1 1770.3 2160.7 1674.9 2271 1564.6 2421.5 1605Z" fill="#758240"/>
<path transform="matrix(.1,0,0,-.1,0,792)" stroke-width="50" stroke-linecap="butt" stroke-miterlimit="10" stroke-linejoin="miter" fill="none" stroke="#ffffff" d="M2326.1 1770.3 2160.7 1674.9 2271 1564.6 2421.5 1605Z"/>
<path transform="matrix(.1,0,0,-.1,0,792)" d="M3623.9 1770.3 3528.5 1605 3679 1564.6 3789.3 1674.9Z" fill="#758240"/>
<path transform="matrix(.1,0,0,-.1,0,792)" stroke-width="50" stroke-linecap="butt" stroke-miterlimit="10" stroke-linejoin="miter" fill="none" stroke="#ffffff" d="M3623.9 1770.3 3528.5 1605 3679 1564.6 3789.3 1674.9Z"/>
<path transform="matrix(.1,0,0,-.1,0,792)" d="M4747.9 2228.3 4898.5 2268.7 4938.8 2419.3H4747.9Z" fill="#758240"/>
<path transform="matrix(.1,0,0,-.1,0,792)" stroke-width="50" stroke-linecap="butt" stroke-miterlimit="10" stroke-linejoin="miter" fill="none" stroke="#ffffff" d="M4747.9 2228.3 4898.5 2268.7 4938.8 2419.3H4747.9Z"/>
<path transform="matrix(.1,0,0,-.1,0,792)" d="M4747.9 5965.1H4938.8L4898.5 6115.7 4747.9 6156Z" fill="#758240"/>
<path transform="matrix(.1,0,0,-.1,0,792)" stroke-width="50" stroke-linecap="butt" stroke-miterlimit="10" stroke-linejoin="miter" fill="none" stroke="#ffffff" d="M4747.9 5965.1H4938.8L4898.5 6115.7 4747.9 6156Z"/>
<path transform="matrix(.1,0,0,-.1,0,792)" d="M1202.1 6156 1051.5 6115.7 1011.2 5965.1H1202.1Z" fill="#758240"/>
<path transform="matrix(.1,0,0,-.1,0,792)" stroke-width="50" stroke-linecap="butt" stroke-miterlimit="10" stroke-linejoin="miter" fill="none" stroke="#ffffff" d="M1202.1 6156 1051.5 6115.7 1011.2 5965.1H1202.1Z"/>
<path transform="matrix(.1,0,0,-.1,0,792)" d="M1202.1 2419.3H1011.2L1051.5 2268.7 1202.1 2228.3Z" fill="#758240"/>
<path transform="matrix(.1,0,0,-.1,0,792)" stroke-width="50" stroke-linecap="butt" stroke-miterlimit="10" stroke-linejoin="miter" fill="none" stroke="#ffffff" d="M1202.1 2419.3H1011.2L1051.5 2268.7 1202.1 2228.3Z"/>
<path transform="matrix(.1,0,0,-.1,0,792)" d="M4835.2 3961 5070.4 3770.5 5305.6 3961 5243.7 4192.2 5305.6 4423.4 5070.4 4613.9 4835.2 4423.4 4897.2 4192.2" fill="#758240"/>
<path transform="matrix(.1,0,0,-.1,0,792)" stroke-width="50" stroke-linecap="butt" stroke-miterlimit="10" stroke-linejoin="miter" fill="none" stroke="#ffffff" d="M4835.2 3961 5070.4 3770.5 5305.6 3961 5243.7 4192.2 5305.6 4423.4 5070.4 4613.9 4835.2 4423.4 4897.2 4192.2Z"/>
<path transform="matrix(.1,0,0,-.1,0,792)" d="M1114.8 4423.4 879.602 4613.9 644.398 4423.4 706.301 4192.2 644.398 3961 879.602 3770.5 1114.8 3961 1052.8 4192.2" fill="#758240"/>
<path transform="matrix(.1,0,0,-.1,0,792)" stroke-width="50" stroke-linecap="butt" stroke-miterlimit="10" stroke-linejoin="miter" fill="none" stroke="#ffffff" d="M1114.8 4423.4 879.602 4613.9 644.398 4423.4 706.301 4192.2 644.398 3961 879.602 3770.5 1114.8 3961 1052.8 4192.2Z"/>
<path transform="matrix(.1,0,0,-.1,0,792)" d="M1113.7 2671.9 1072.2 2826.6 894.5 2854.8 941 2680.9Z" fill="#758240"/>
<path transform="matrix(.1,0,0,-.1,0,792)" stroke-width="50" stroke-linecap="butt" stroke-miterlimit="10" stroke-linejoin="miter" fill="none" stroke="#ffffff" d="M1113.7 2671.9 1072.2 2826.6 894.5 2854.8 941 2680.9Z"/>
<path transform="matrix(.1,0,0,-.1,0,792)" d="M4836.3 2671.9 5009 2680.9 5055.5 2854.8 4877.8 2826.6Z" fill="#758240"/>
<path transform="matrix(.1,0,0,-.1,0,792)" stroke-width="50" stroke-linecap="butt" stroke-miterlimit="10" stroke-linejoin="miter" fill="none" stroke="#ffffff" d="M4836.3 2671.9 5009 2680.9 5055.5 2854.8 4877.8 2826.6Z"/>
<path transform="matrix(.1,0,0,-.1,0,792)" d="M4836.3 5712.5 4877.8 5557.7 5055.5 5529.6 5009 5703.4Z" fill="#758240"/>
<path transform="matrix(.1,0,0,-.1,0,792)" stroke-width="50" stroke-linecap="butt" stroke-miterlimit="10" stroke-linejoin="miter" fill="none" stroke="#ffffff" d="M4836.3 5712.5 4877.8 5557.7 5055.5 5529.6 5009 5703.4Z"/>
<path transform="matrix(.1,0,0,-.1,0,792)" d="M1113.7 5712.5 941 5703.4 894.5 5529.6 1072.2 5557.7Z" fill="#758240"/>
<path transform="matrix(.1,0,0,-.1,0,792)" stroke-width="50" stroke-linecap="butt" stroke-miterlimit="10" stroke-linejoin="miter" fill="none" stroke="#ffffff" d="M1113.7 5712.5 941 5703.4 894.5 5529.6 1072.2 5557.7Z"/>
<path transform="matrix(.1,0,0,-.1,0,792)" d="M2975 6806.3 3102 6963.1 2975 7158.6 2848 6963.1Z" fill="#758240"/>
<path transform="matrix(.1,0,0,-.1,0,792)" stroke-width="50" stroke-linecap="butt" stroke-miterlimit="10" stroke-linejoin="miter" fill="none" stroke="#ffffff" d="M2975 6806.3 3102 6963.1 2975 7158.6 2848 6963.1Z"/>
<path transform="matrix(.1,0,0,-.1,0,792)" d="M1072.2 5557.7 894.5 5529.6 941 5703.4 638.801 5687.6 711.102 5499.2 511.801 5467.7 649.199 5198 776.5 5325.3 841 5157.2 1010.3 5326.5" fill="#404284"/>
<path transform="matrix(.1,0,0,-.1,0,792)" stroke-width="50" stroke-linecap="butt" stroke-miterlimit="10" stroke-linejoin="miter" fill="none" stroke="#ffffff" d="M1072.2 5557.7 894.5 5529.6 941 5703.4 638.801 5687.6 711.102 5499.2 511.801 5467.7 649.199 5198 776.5 5325.3 841 5157.2 1010.3 5326.5Z"/>
<path transform="matrix(.1,0,0,-.1,0,792)" d="M1072.2 2826.6 1010.3 3057.9 841 3227.1 776.5 3059.1 649.199 3186.4 511.801 2916.7 711.102 2885.1 638.801 2696.8 941 2680.9 894.5 2854.8" fill="#404284"/>
<path transform="matrix(.1,0,0,-.1,0,792)" stroke-width="50" stroke-linecap="butt" stroke-miterlimit="10" stroke-linejoin="miter" fill="none" stroke="#ffffff" d="M1072.2 2826.6 1010.3 3057.9 841 3227.1 776.5 3059.1 649.199 3186.4 511.801 2916.7 711.102 2885.1 638.801 2696.8 941 2680.9 894.5 2854.8Z"/>
<path transform="matrix(.1,0,0,-.1,0,792)" d="M4877.8 2826.6 5055.5 2854.8 5009 2680.9 5311.2 2696.8 5238.9 2885.1 5438.2 2916.7 5300.8 3186.4 5173.5 3059.1 5109 3227.1 4939.7 3057.9" fill="#404284"/>
<path transform="matrix(.1,0,0,-.1,0,792)" stroke-width="50" stroke-linecap="butt" stroke-miterlimit="10" stroke-linejoin="miter" fill="none" stroke="#ffffff" d="M4877.8 2826.6 5055.5 2854.8 5009 2680.9 5311.2 2696.8 5238.9 2885.1 5438.2 2916.7 5300.8 3186.4 5173.5 3059.1 5109 3227.1 4939.7 3057.9Z"/>
<path transform="matrix(.1,0,0,-.1,0,792)" d="M4877.8 5557.7 4939.7 5326.5 5109 5157.2 5173.5 5325.3 5300.8 5198 5438.2 5467.7 5238.9 5499.2 5311.2 5687.6 5009 5703.4 5055.5 5529.6" fill="#404284"/>
<path transform="matrix(.1,0,0,-.1,0,792)" stroke-width="50" stroke-linecap="butt" stroke-miterlimit="10" stroke-linejoin="miter" fill="none" stroke="#ffffff" d="M4877.8 5557.7 4939.7 5326.5 5109 5157.2 5173.5 5325.3 5300.8 5198 5438.2 5467.7 5238.9 5499.2 5311.2 5687.6 5009 5703.4 5055.5 5529.6Z"/>
<path transform="matrix(.1,0,0,-.1,0,792)" d="M2975 1578.1 2848 1421.3 2975 1225.7 3102 1421.3Z" fill="#758240"/>
<path transform="matrix(.1,0,0,-.1,0,792)" stroke-width="50" stroke-linecap="butt" stroke-miterlimit="10" stroke-linejoin="miter" fill="none" stroke="#ffffff" d="M2975 1578.1 2848 1421.3 2975 1225.7 3102 1421.3Z"/>
<path transform="matrix(.1,0,0,-.1,0,792)" d="M4940.7 3665.5 5000.5 3509.7 5165.9 3605.1 5070.4 3770.5Z" fill="#758240"/>
<path transform="matrix(.1,0,0,-.1,0,792)" stroke-width="50" stroke-linecap="butt" stroke-miterlimit="10" stroke-linejoin="miter" fill="none" stroke="#ffffff" d="M4940.7 3665.5 5000.5 3509.7 5165.9 3605.1 5070.4 3770.5Z"/>
<path transform="matrix(.1,0,0,-.1,0,792)" d="M4940.7 4718.9 5070.4 4613.9 5165.9 4779.2 5000.5 4874.7Z" fill="#758240"/>
<path transform="matrix(.1,0,0,-.1,0,792)" stroke-width="50" stroke-linecap="butt" stroke-miterlimit="10" stroke-linejoin="miter" fill="none" stroke="#ffffff" d="M4940.7 4718.9 5070.4 4613.9 5165.9 4779.2 5000.5 4874.7Z"/>
<path transform="matrix(.1,0,0,-.1,0,792)" d="M1009.3 4718.9 949.5 4874.7 784.102 4779.2 879.602 4613.9Z" fill="#758240"/>
<path transform="matrix(.1,0,0,-.1,0,792)" stroke-width="50" stroke-linecap="butt" stroke-miterlimit="10" stroke-linejoin="miter" fill="none" stroke="#ffffff" d="M1009.3 4718.9 949.5 4874.7 784.102 4779.2 879.602 4613.9Z"/>
<path transform="matrix(.1,0,0,-.1,0,792)" d="M1009.3 3665.5 879.602 3770.5 784.102 3605.1 949.5 3509.7Z" fill="#758240"/>
<path transform="matrix(.1,0,0,-.1,0,792)" stroke-width="50" stroke-linecap="butt" stroke-miterlimit="10" stroke-linejoin="miter" fill="none" stroke="#ffffff" d="M1009.3 3665.5 879.602 3770.5 784.102 3605.1 949.5 3509.7Z"/>
<path transform="matrix(.1,0,0,-.1,0,792)" d="M949.5 3509.7 784.102 3605.1 553.199 3543.3 457.699 3377.9 649.199 3186.4 727.699 3340.4 841 3227.1" fill="#404284"/>
<path transform="matrix(.1,0,0,-.1,0,792)" stroke-width="50" stroke-linecap="butt" stroke-miterlimit="10" stroke-linejoin="miter" fill="none" stroke="#ffffff" d="M949.5 3509.7 784.102 3605.1 553.199 3543.3 457.699 3377.9 649.199 3186.4 727.699 3340.4 841 3227.1Z"/>
<path transform="matrix(.1,0,0,-.1,0,792)" d="M5000.5 3509.7 5109 3227.1 5222.3 3340.4 5300.8 3186.4 5492.3 3377.9 5396.8 3543.3 5165.9 3605.1" fill="#404284"/>
<path transform="matrix(.1,0,0,-.1,0,792)" stroke-width="50" stroke-linecap="butt" stroke-miterlimit="10" stroke-linejoin="miter" fill="none" stroke="#ffffff" d="M5000.5 3509.7 5109 3227.1 5222.3 3340.4 5300.8 3186.4 5492.3 3377.9 5396.8 3543.3 5165.9 3605.1Z"/>
<path transform="matrix(.1,0,0,-.1,0,792)" d="M5000.5 4874.7 5165.9 4779.2 5396.8 4841.1 5492.3 5006.5 5300.8 5198 5222.3 5044 5109 5157.2" fill="#404284"/>
<path transform="matrix(.1,0,0,-.1,0,792)" stroke-width="50" stroke-linecap="butt" stroke-miterlimit="10" stroke-linejoin="miter" fill="none" stroke="#ffffff" d="M5000.5 4874.7 5165.9 4779.2 5396.8 4841.1 5492.3 5006.5 5300.8 5198 5222.3 5044 5109 5157.2Z"/>
<path transform="matrix(.1,0,0,-.1,0,792)" d="M949.5 4874.7 841 5157.2 727.699 5044 649.199 5198 457.699 5006.5 553.199 4841.1 784.102 4779.2" fill="#404284"/>
<path transform="matrix(.1,0,0,-.1,0,792)" stroke-width="50" stroke-linecap="butt" stroke-miterlimit="10" stroke-linejoin="miter" fill="none" stroke="#ffffff" d="M949.5 4874.7 841 5157.2 727.699 5044 649.199 5198 457.699 5006.5 553.199 4841.1 784.102 4779.2Z"/>
<path transform="matrix(.1,0,0,-.1,0,792)" d="M879.602 4613.9 784.102 4779.2 553.199 4841.1 387.801 4745.6 457.898 4484 602.898 4578.2 644.398 4423.4" fill="#404284"/>
<path transform="matrix(.1,0,0,-.1,0,792)" stroke-width="50" stroke-linecap="butt" stroke-miterlimit="10" stroke-linejoin="miter" fill="none" stroke="#ffffff" d="M879.602 4613.9 784.102 4779.2 553.199 4841.1 387.801 4745.6 457.898 4484 602.898 4578.2 644.398 4423.4Z"/>
<path transform="matrix(.1,0,0,-.1,0,792)" d="M879.602 3770.5 644.398 3961 602.898 3806.2 457.898 3900.4 387.801 3638.7 553.199 3543.3 784.102 3605.1" fill="#404284"/>
<path transform="matrix(.1,0,0,-.1,0,792)" stroke-width="50" stroke-linecap="butt" stroke-miterlimit="10" stroke-linejoin="miter" fill="none" stroke="#ffffff" d="M879.602 3770.5 644.398 3961 602.898 3806.2 457.898 3900.4 387.801 3638.7 553.199 3543.3 784.102 3605.1Z"/>
<path transform="matrix(.1,0,0,-.1,0,792)" d="M5070.4 3770.5 5165.9 3605.1 5396.8 3543.3 5562.2 3638.7 5492.1 3900.4 5347.1 3806.2 5305.6 3961" fill="#404284"/>
<path transform="matrix(.1,0,0,-.1,0,792)" stroke-width="50" stroke-linecap="butt" stroke-miterlimit="10" stroke-linejoin="miter" fill="none" stroke="#ffffff" d="M5070.4 3770.5 5165.9 3605.1 5396.8 3543.3 5562.2 3638.7 5492.1 3900.4 5347.1 3806.2 5305.6 3961Z"/>
<path transform="matrix(.1,0,0,-.1,0,792)" d="M5070.4 4613.9 5305.6 4423.4 5347.1 4578.2 5492.1 4484 5562.2 4745.6 5396.8 4841.1 5165.9 4779.2" fill="#404284"/>
<path transform="matrix(.1,0,0,-.1,0,792)" stroke-width="50" stroke-linecap="butt" stroke-miterlimit="10" stroke-linejoin="miter" fill="none" stroke="#ffffff" d="M5070.4 4613.9 5305.6 4423.4 5347.1 4578.2 5492.1 4484 5562.2 4745.6 5396.8 4841.1 5165.9 4779.2Z"/>
<path transform="matrix(.1,0,0,-.1,0,792)" d="M5109 5157.2 5222.3 5044 5300.8 5198 5173.5 5325.3Z" fill="#758240"/>
<path transform="matrix(.1,0,0,-.1,0,792)" stroke-width="50" stroke-linecap="butt" stroke-miterlimit="10" stroke-linejoin="miter" fill="none" stroke="#ffffff" d="M5109 5157.2 5222.3 5044 5300.8 5198 5173.5 5325.3Z"/>
<path transform="matrix(.1,0,0,-.1,0,792)" d="M841 5157.2 776.5 5325.3 649.199 5198 727.699 5044Z" fill="#758240"/>
<path transform="matrix(.1,0,0,-.1,0,792)" stroke-width="50" stroke-linecap="butt" stroke-miterlimit="10" stroke-linejoin="miter" fill="none" stroke="#ffffff" d="M841 5157.2 776.5 5325.3 649.199 5198 727.699 5044Z"/>
<path transform="matrix(.1,0,0,-.1,0,792)" d="M841 3227.1 727.699 3340.4 649.199 3186.4 776.5 3059.1Z" fill="#758240"/>
<path transform="matrix(.1,0,0,-.1,0,792)" stroke-width="50" stroke-linecap="butt" stroke-miterlimit="10" stroke-linejoin="miter" fill="none" stroke="#ffffff" d="M841 3227.1 727.699 3340.4 649.199 3186.4 776.5 3059.1Z"/>
<path transform="matrix(.1,0,0,-.1,0,792)" d="M5109 3227.1 5173.5 3059.1 5300.8 3186.4 5222.3 3340.4Z" fill="#758240"/>
<path transform="matrix(.1,0,0,-.1,0,792)" stroke-width="50" stroke-linecap="butt" stroke-miterlimit="10" stroke-linejoin="miter" fill="none" stroke="#ffffff" d="M5109 3227.1 5173.5 3059.1 5300.8 3186.4 5222.3 3340.4Z"/>
<path transform="matrix(.1,0,0,-.1,0,792)" d="M5238.9 5499.2 5438.2 5467.7 5544 5675.4 5311.2 5687.6Z" fill="#758240"/>
<path transform="matrix(.1,0,0,-.1,0,792)" stroke-width="50" stroke-linecap="butt" stroke-miterlimit="10" stroke-linejoin="miter" fill="none" stroke="#ffffff" d="M5238.9 5499.2 5438.2 5467.7 5544 5675.4 5311.2 5687.6Z"/>
<path transform="matrix(.1,0,0,-.1,0,792)" d="M711.102 5499.2 638.801 5687.6 406 5675.4 511.801 5467.7Z" fill="#758240"/>
<path transform="matrix(.1,0,0,-.1,0,792)" stroke-width="50" stroke-linecap="butt" stroke-miterlimit="10" stroke-linejoin="miter" fill="none" stroke="#ffffff" d="M711.102 5499.2 638.801 5687.6 406 5675.4 511.801 5467.7Z"/>
<path transform="matrix(.1,0,0,-.1,0,792)" d="M711.102 2885.1 511.801 2916.7 406 2709 638.801 2696.8Z" fill="#758240"/>
<path transform="matrix(.1,0,0,-.1,0,792)" stroke-width="50" stroke-linecap="butt" stroke-miterlimit="10" stroke-linejoin="miter" fill="none" stroke="#ffffff" d="M711.102 2885.1 511.801 2916.7 406 2709 638.801 2696.8Z"/>
<path transform="matrix(.1,0,0,-.1,0,792)" d="M5238.9 2885.1 5311.2 2696.8 5544 2709 5438.2 2916.7Z" fill="#758240"/>
<path transform="matrix(.1,0,0,-.1,0,792)" stroke-width="50" stroke-linecap="butt" stroke-miterlimit="10" stroke-linejoin="miter" fill="none" stroke="#ffffff" d="M5238.9 2885.1 5311.2 2696.8 5544 2709 5438.2 2916.7Z"/>
<path transform="matrix(.1,0,0,-.1,0,792)" d="M5243.7 4192.2 5305.6 3961 5445.5 4074.2 5492.1 3900.4 5745.9 4065.2 5589.1 4192.2 5745.9 4319.2 5492.1 4484 5445.5 4310.1 5305.6 4423.4" fill="#404284"/>
<path transform="matrix(.1,0,0,-.1,0,792)" stroke-width="50" stroke-linecap="butt" stroke-miterlimit="10" stroke-linejoin="miter" fill="none" stroke="#ffffff" d="M5243.7 4192.2 5305.6 3961 5445.5 4074.2 5492.1 3900.4 5745.9 4065.2 5589.1 4192.2 5745.9 4319.2 5492.1 4484 5445.5 4310.1 5305.6 4423.4Z"/>
<path transform="matrix(.1,0,0,-.1,0,792)" d="M706.301 4192.2 644.398 4423.4 504.5 4310.1 457.898 4484 204.102 4319.2 360.898 4192.2 204.102 4065.2 457.898 3900.4 504.5 4074.2 644.398 3961" fill="#404284"/>
<path transform="matrix(.1,0,0,-.1,0,792)" stroke-width="50" stroke-linecap="butt" stroke-miterlimit="10" stroke-linejoin="miter" fill="none" stroke="#ffffff" d="M706.301 4192.2 644.398 4423.4 504.5 4310.1 457.898 4484 204.102 4319.2 360.898 4192.2 204.102 4065.2 457.898 3900.4 504.5 4074.2 644.398 3961Z"/>
<path transform="matrix(.1,0,0,-.1,0,792)" d="M644.398 4423.4 602.898 4578.2 457.898 4484 504.5 4310.1Z" fill="#758240"/>
<path transform="matrix(.1,0,0,-.1,0,792)" stroke-width="50" stroke-linecap="butt" stroke-miterlimit="10" stroke-linejoin="miter" fill="none" stroke="#ffffff" d="M644.398 4423.4 602.898 4578.2 457.898 4484 504.5 4310.1Z"/>
<path transform="matrix(.1,0,0,-.1,0,792)" d="M644.398 3961 504.5 4074.2 457.898 3900.4 602.898 3806.2Z" fill="#758240"/>
<path transform="matrix(.1,0,0,-.1,0,792)" stroke-width="50" stroke-linecap="butt" stroke-miterlimit="10" stroke-linejoin="miter" fill="none" stroke="#ffffff" d="M644.398 3961 504.5 4074.2 457.898 3900.4 602.898 3806.2Z"/>
<path transform="matrix(.1,0,0,-.1,0,792)" d="M5305.6 3961 5347.1 3806.2 5492.1 3900.4 5445.5 4074.2Z" fill="#758240"/>
<path transform="matrix(.1,0,0,-.1,0,792)" stroke-width="50" stroke-linecap="butt" stroke-miterlimit="10" stroke-linejoin="miter" fill="none" stroke="#ffffff" d="M5305.6 3961 5347.1 3806.2 5492.1 3900.4 5445.5 4074.2Z"/>
<path transform="matrix(.1,0,0,-.1,0,792)" d="M5305.6 4423.4 5445.5 4310.1 5492.1 4484 5347.1 4578.2Z" fill="#758240"/>
<path transform="matrix(.1,0,0,-.1,0,792)" stroke-width="50" stroke-linecap="butt" stroke-miterlimit="10" stroke-linejoin="miter" fill="none" stroke="#ffffff" d="M5305.6 4423.4 5445.5 4310.1 5492.1 4484 5347.1 4578.2Z"/>
<path transform="matrix(.1,0,0,-.1,0,792)" d="M5396.8 4841.1 5562.2 4745.6 5602.5 4896.2 5492.3 5006.5Z" fill="#758240"/>
<path transform="matrix(.1,0,0,-.1,0,792)" stroke-width="50" stroke-linecap="butt" stroke-miterlimit="10" stroke-linejoin="miter" fill="none" stroke="#ffffff" d="M5396.8 4841.1 5562.2 4745.6 5602.5 4896.2 5492.3 5006.5Z"/>
<path transform="matrix(.1,0,0,-.1,0,792)" d="M553.199 4841.1 457.699 5006.5 347.5 4896.2 387.801 4745.6Z" fill="#758240"/>
<path transform="matrix(.1,0,0,-.1,0,792)" stroke-width="50" stroke-linecap="butt" stroke-miterlimit="10" stroke-linejoin="miter" fill="none" stroke="#ffffff" d="M553.199 4841.1 457.699 5006.5 347.5 4896.2 387.801 4745.6Z"/>
<path transform="matrix(.1,0,0,-.1,0,792)" d="M553.199 3543.3 387.801 3638.7 347.5 3488.1 457.699 3377.9Z" fill="#758240"/>
<path transform="matrix(.1,0,0,-.1,0,792)" stroke-width="50" stroke-linecap="butt" stroke-miterlimit="10" stroke-linejoin="miter" fill="none" stroke="#ffffff" d="M553.199 3543.3 387.801 3638.7 347.5 3488.1 457.699 3377.9Z"/>
<path transform="matrix(.1,0,0,-.1,0,792)" d="M5396.8 3543.3 5492.3 3377.9 5602.5 3488.1 5562.2 3638.7Z" fill="#758240"/>
<path transform="matrix(.1,0,0,-.1,0,792)" stroke-width="50" stroke-linecap="butt" stroke-miterlimit="10" stroke-linejoin="miter" fill="none" stroke="#ffffff" d="M5396.8 3543.3 5492.3 3377.9 5602.5 3488.1 5562.2 3638.7Z"/>
<path transform="matrix(.1,0,0,-.1,0,792)" d="M5589.1 4192.2 5745.9 4065.2 5941.4 4192.2 5745.9 4319.2Z" fill="#758240"/>
<path transform="matrix(.1,0,0,-.1,0,792)" stroke-width="50" stroke-linecap="butt" stroke-miterlimit="10" stroke-linejoin="miter" fill="none" stroke="#ffffff" d="M5589.1 4192.2 5745.9 4065.2 5941.4 4192.2 5745.9 4319.2Z"/>
<path transform="matrix(.1,0,0,-.1,0,792)" d="M360.898 4192.2 204.102 4319.2 8.60156 4192.2 204.102 4065.2Z" fill="#758240"/>
<path transform="matrix(.1,0,0,-.1,0,792)" stroke-width="50" stroke-linecap="butt" stroke-miterlimit="10" stroke-linejoin="miter" fill="none" stroke="#ffffff" d="M360.898 4192.2 204.102 4319.2 8.60156 4192.2 204.102 4065.2Z"/>
</svg>
