<svg xmlns="http://www.w3.org/2000/svg" xmlns:xlink="http://www.w3.org/1999/xlink" xmlns:inkscape="http://www.inkscape.org/namespaces/inkscape" version="1.1" width="612" height="792" viewBox="0 0 612 792">
<path transform="matrix(.1,0,0,-.1,0,792)" d="M3455 4210 3255 4556.4H2855L2655 4210 2855 3863.6H3255" fill="#2b36a3"/>
<path transform="matrix(.1,0,0,-.1,0,792)" stroke-width="15" stroke-linecap="butt" stroke-miterlimit="10" stroke-linejoin="miter" fill="none" stroke="#000000" d="M3455 4210 3255 4556.4H2855L2655 4210 2855 3863.6H3255Z"/>
<path transform="matrix(.1,0,0,-.1,0,792)" d="M2855 3863.6 3455 2824.4 3655 2477.9 4255 3517.2 4455 3863.6H3255" fill="#6199fa"/>
<path transform="matrix(.1,0,0,-.1,0,792)" stroke-width="15" stroke-linecap="butt" stroke-miterlimit="10" stroke-linejoin="miter" fill="none" stroke="#000000" d="M2855 3863.6 3455 2824.4 3655 2477.9 4255 3517.2 4455 3863.6H3255Z"/>
<path transform="matrix(.1,0,0,-.1,0,792)" d="M2855 3863.6 2655 4210 2055 3170.8 1855 2824.4H3055 3455" fill="#40f05c"/>
<path transform="matrix(.1,0,0,-.1,0,792)" stroke-width="15" stroke-linecap="butt" stroke-miterlimit="10" stroke-linejoin="miter" fill="none" stroke="#000000" d="M2855 3863.6 2655 4210 2055 3170.8 1855 2824.4H3055 3455Z"/>
<path transform="matrix(.1,0,0,-.1,0,792)" d="M2855 4556.4H1255L1855 3517.2 2055 3170.8 2655 4210" fill="#6199fa"/>
<path transform="matrix(.1,0,0,-.1,0,792)" stroke-width="15" stroke-linecap="butt" stroke-miterlimit="10" stroke-linejoin="miter" fill="none" stroke="#000000" d="M2855 4556.4H1255L1855 3517.2 2055 3170.8 2655 4210Z"/>
<path transform="matrix(.1,0,0,-.1,0,792)" d="M2855 4556.4H3255L2655 5595.6 2455 5942.1 1855 4902.8 1655 4556.4" fill="#40f05c"/>
<path transform="matrix(.1,0,0,-.1,0,792)" stroke-width="15" stroke-linecap="butt" stroke-miterlimit="10" stroke-linejoin="miter" fill="none" stroke="#000000" d="M2855 4556.4H3255L2655 5595.6 2455 5942.1 1855 4902.8 1655 4556.4Z"/>
<path transform="matrix(.1,0,0,-.1,0,792)" d="M3255 4556.4 3455 4210 4055 5249.2 4255 5595.6H3055 2655" fill="#6199fa"/>
<path transform="matrix(.1,0,0,-.1,0,792)" stroke-width="15" stroke-linecap="butt" stroke-miterlimit="10" stroke-linejoin="miter" fill="none" stroke="#000000" d="M3255 4556.4 3455 4210 4055 5249.2 4255 5595.6H3055 2655Z"/>
<path transform="matrix(.1,0,0,-.1,0,792)" d="M3255 3863.6H4855L4255 4902.8 4055 5249.2 3455 4210" fill="#40f05c"/>
<path transform="matrix(.1,0,0,-.1,0,792)" stroke-width="15" stroke-linecap="butt" stroke-miterlimit="10" stroke-linejoin="miter" fill="none" stroke="#000000" d="M3255 3863.6H4855L4255 4902.8 4055 5249.2 3455 4210Z"/>
<path transform="matrix(.1,0,0,-.1,0,792)" d="M2055 3170.8 1855 3517.2H1455L1255 3170.8 1455 2824.4H1855" fill="#2b36a3"/>
<path transform="matrix(.1,0,0,-.1,0,792)" stroke-width="15" stroke-linecap="butt" stroke-miterlimit="10" stroke-linejoin="miter" fill="none" stroke="#000000" d="M2055 3170.8 1855 3517.2H1455L1255 3170.8 1455 2824.4H1855Z"/>
<path transform="matrix(.1,0,0,-.1,0,792)" d="M3055 2824.4 2855 2477.9 3055 2131.5H3455L3655 2477.9 3455 2824.4" fill="#2b36a3"/>
<path transform="matrix(.1,0,0,-.1,0,792)" stroke-width="15" stroke-linecap="butt" stroke-miterlimit="10" stroke-linejoin="miter" fill="none" stroke="#000000" d="M3055 2824.4 2855 2477.9 3055 2131.5H3455L3655 2477.9 3455 2824.4Z"/>
<path transform="matrix(.1,0,0,-.1,0,792)" d="M3055 2824.4H1455L2055 1785.1 2255 1438.7 2855 2477.9" fill="#6199fa"/>
<path transform="matrix(.1,0,0,-.1,0,792)" stroke-width="15" stroke-linecap="butt" stroke-miterlimit="10" stroke-linejoin="miter" fill="none" stroke="#000000" d="M3055 2824.4H1455L2055 1785.1 2255 1438.7 2855 2477.9Z"/>
<path transform="matrix(.1,0,0,-.1,0,792)" d="M3055 5595.6 3255 5942.1 3055 6288.5H2655L2455 5942.1 2655 5595.6" fill="#2b36a3"/>
<path transform="matrix(.1,0,0,-.1,0,792)" stroke-width="15" stroke-linecap="butt" stroke-miterlimit="10" stroke-linejoin="miter" fill="none" stroke="#000000" d="M3055 5595.6 3255 5942.1 3055 6288.5H2655L2455 5942.1 2655 5595.6Z"/>
<path transform="matrix(.1,0,0,-.1,0,792)" d="M3055 5595.6H4655L4055 6634.9 3855 6981.3 3255 5942.1" fill="#40f05c"/>
<path transform="matrix(.1,0,0,-.1,0,792)" stroke-width="15" stroke-linecap="butt" stroke-miterlimit="10" stroke-linejoin="miter" fill="none" stroke="#000000" d="M3055 5595.6H4655L4055 6634.9 3855 6981.3 3255 5942.1Z"/>
<path transform="matrix(.1,0,0,-.1,0,792)" d="M4055 5249.2 4255 4902.8H4655L4855 5249.2 4655 5595.6H4255" fill="#2b36a3"/>
<path transform="matrix(.1,0,0,-.1,0,792)" stroke-width="15" stroke-linecap="butt" stroke-miterlimit="10" stroke-linejoin="miter" fill="none" stroke="#000000" d="M4055 5249.2 4255 4902.8H4655L4855 5249.2 4655 5595.6H4255Z"/>
<path transform="matrix(.1,0,0,-.1,0,792)" d="M1855 4902.8 1655 5249.2H1255L1055 4902.8 1255 4556.4H1655" fill="#2b36a3"/>
<path transform="matrix(.1,0,0,-.1,0,792)" stroke-width="15" stroke-linecap="butt" stroke-miterlimit="10" stroke-linejoin="miter" fill="none" stroke="#000000" d="M1855 4902.8 1655 5249.2H1255L1055 4902.8 1255 4556.4H1655Z"/>
<path transform="matrix(.1,0,0,-.1,0,792)" d="M1855 4902.8 2455 5942.1 2655 6288.5H1055L1655 5249.2" fill="#6199fa"/>
<path transform="matrix(.1,0,0,-.1,0,792)" stroke-width="15" stroke-linecap="butt" stroke-miterlimit="10" stroke-linejoin="miter" fill="none" stroke="#000000" d="M1855 4902.8 2455 5942.1 2655 6288.5H1055L1655 5249.2Z"/>
<path transform="matrix(.1,0,0,-.1,0,792)" d="M1855 3517.2 1255 4556.4 1055 4902.8 455 3863.6 255 3517.2H1455" fill="#40f05c"/>
<path transform="matrix(.1,0,0,-.1,0,792)" stroke-width="15" stroke-linecap="butt" stroke-miterlimit="10" stroke-linejoin="miter" fill="none" stroke="#000000" d="M1855 3517.2 1255 4556.4 1055 4902.8 455 3863.6 255 3517.2H1455Z"/>
<path transform="matrix(.1,0,0,-.1,0,792)" d="M2855 2477.9 2255 1438.7 2055 1092.3H3655L3055 2131.5" fill="#40f05c"/>
<path transform="matrix(.1,0,0,-.1,0,792)" stroke-width="15" stroke-linecap="butt" stroke-miterlimit="10" stroke-linejoin="miter" fill="none" stroke="#000000" d="M2855 2477.9 2255 1438.7 2055 1092.3H3655L3055 2131.5Z"/>
<path transform="matrix(.1,0,0,-.1,0,792)" d="M3655 2477.9 3455 2131.5H5055L4455 3170.8 4255 3517.2" fill="#40f05c"/>
<path transform="matrix(.1,0,0,-.1,0,792)" stroke-width="15" stroke-linecap="butt" stroke-miterlimit="10" stroke-linejoin="miter" fill="none" stroke="#000000" d="M3655 2477.9 3455 2131.5H5055L4455 3170.8 4255 3517.2Z"/>
<path transform="matrix(.1,0,0,-.1,0,792)" d="M3255 5942.1 3855 6981.3 4055 7327.7H2455L3055 6288.5" fill="#6199fa"/>
<path transform="matrix(.1,0,0,-.1,0,792)" stroke-width="15" stroke-linecap="butt" stroke-miterlimit="10" stroke-linejoin="miter" fill="none" stroke="#000000" d="M3255 5942.1 3855 6981.3 4055 7327.7H2455L3055 6288.5Z"/>
<path transform="matrix(.1,0,0,-.1,0,792)" d="M4255 3517.2 4455 3170.8H4855L5055 3517.2 4855 3863.6H4455" fill="#2b36a3"/>
<path transform="matrix(.1,0,0,-.1,0,792)" stroke-width="15" stroke-linecap="butt" stroke-miterlimit="10" stroke-linejoin="miter" fill="none" stroke="#000000" d="M4255 3517.2 4455 3170.8H4855L5055 3517.2 4855 3863.6H4455Z"/>
<path transform="matrix(.1,0,0,-.1,0,792)" d="M4255 4902.8 4855 3863.6 5055 3517.2 5655 4556.4 5855 4902.8H4655" fill="#6199fa"/>
<path transform="matrix(.1,0,0,-.1,0,792)" stroke-width="15" stroke-linecap="butt" stroke-miterlimit="10" stroke-linejoin="miter" fill="none" stroke="#000000" d="M4255 4902.8 4855 3863.6 5055 3517.2 5655 4556.4 5855 4902.8H4655Z"/>
<path transform="matrix(.1,0,0,-.1,0,792)" d="M1655 5249.2 1055 6288.5 855 6634.9 255 5595.6 55 5249.2H1255" fill="#40f05c"/>
<path transform="matrix(.1,0,0,-.1,0,792)" stroke-width="15" stroke-linecap="butt" stroke-miterlimit="10" stroke-linejoin="miter" fill="none" stroke="#000000" d="M1655 5249.2 1055 6288.5 855 6634.9 255 5595.6 55 5249.2H1255Z"/>
<path transform="matrix(.1,0,0,-.1,0,792)" d="M4455 3170.8 5055 2131.5 5255 1785.1 5855 2824.4 6055 3170.8H4855" fill="#6199fa"/>
<path transform="matrix(.1,0,0,-.1,0,792)" stroke-width="15" stroke-linecap="butt" stroke-miterlimit="10" stroke-linejoin="miter" fill="none" stroke="#000000" d="M4455 3170.8 5055 2131.5 5255 1785.1 5855 2824.4 6055 3170.8H4855Z"/>
<path transform="matrix(.1,0,0,-.1,0,792)" d="M3055 6288.5 2455 7327.7 2255 7674.1 1655 6634.9 1455 6288.5H2655" fill="#40f05c"/>
<path transform="matrix(.1,0,0,-.1,0,792)" stroke-width="15" stroke-linecap="butt" stroke-miterlimit="10" stroke-linejoin="miter" fill="none" stroke="#000000" d="M3055 6288.5 2455 7327.7 2255 7674.1 1655 6634.9 1455 6288.5H2655Z"/>
<path transform="matrix(.1,0,0,-.1,0,792)" d="M3055 2131.5 3655 1092.3 3855 745.898 4455 1785.1 4655 2131.5H3455" fill="#6199fa"/>
<path transform="matrix(.1,0,0,-.1,0,792)" stroke-width="15" stroke-linecap="butt" stroke-miterlimit="10" stroke-linejoin="miter" fill="none" stroke="#000000" d="M3055 2131.5 3655 1092.3 3855 745.898 4455 1785.1 4655 2131.5H3455Z"/>
<path transform="matrix(.1,0,0,-.1,0,792)" d="M1455 6288.5 1655 6634.9 1455 6981.3H1055L855 6634.9 1055 6288.5" fill="#2b36a3"/>
<path transform="matrix(.1,0,0,-.1,0,792)" stroke-width="15" stroke-linecap="butt" stroke-miterlimit="10" stroke-linejoin="miter" fill="none" stroke="#000000" d="M1455 6288.5 1655 6634.9 1455 6981.3H1055L855 6634.9 1055 6288.5Z"/>
<path transform="matrix(.1,0,0,-.1,0,792)" d="M1455 3517.2H-145L455 2477.9 655 2131.5 1255 3170.8" fill="#6199fa"/>
<path transform="matrix(.1,0,0,-.1,0,792)" stroke-width="15" stroke-linecap="butt" stroke-miterlimit="10" stroke-linejoin="miter" fill="none" stroke="#000000" d="M1455 3517.2H-145L455 2477.9 655 2131.5 1255 3170.8Z"/>
<path transform="matrix(.1,0,0,-.1,0,792)" d="M1455 2824.4 1255 3170.8 655 2131.5 455 1785.1H1655 2055" fill="#40f05c"/>
<path transform="matrix(.1,0,0,-.1,0,792)" stroke-width="15" stroke-linecap="butt" stroke-miterlimit="10" stroke-linejoin="miter" fill="none" stroke="#000000" d="M1455 2824.4 1255 3170.8 655 2131.5 455 1785.1H1655 2055Z"/>
<path transform="matrix(.1,0,0,-.1,0,792)" d="M4655 2131.5 4455 1785.1 4655 1438.7H5055L5255 1785.1 5055 2131.5" fill="#2b36a3"/>
<path transform="matrix(.1,0,0,-.1,0,792)" stroke-width="15" stroke-linecap="butt" stroke-miterlimit="10" stroke-linejoin="miter" fill="none" stroke="#000000" d="M4655 2131.5 4455 1785.1 4655 1438.7H5055L5255 1785.1 5055 2131.5Z"/>
<path transform="matrix(.1,0,0,-.1,0,792)" d="M4655 4902.8H6255L5655 5942.1 5455 6288.5 4855 5249.2" fill="#40f05c"/>
<path transform="matrix(.1,0,0,-.1,0,792)" stroke-width="15" stroke-linecap="butt" stroke-miterlimit="10" stroke-linejoin="miter" fill="none" stroke="#000000" d="M4655 4902.8H6255L5655 5942.1 5455 6288.5 4855 5249.2Z"/>
<path transform="matrix(.1,0,0,-.1,0,792)" d="M4655 5595.6 4855 5249.2 5455 6288.5 5655 6634.9H4455 4055" fill="#6199fa"/>
<path transform="matrix(.1,0,0,-.1,0,792)" stroke-width="15" stroke-linecap="butt" stroke-miterlimit="10" stroke-linejoin="miter" fill="none" stroke="#000000" d="M4655 5595.6 4855 5249.2 5455 6288.5 5655 6634.9H4455 4055Z"/>
<path transform="matrix(.1,0,0,-.1,0,792)" d="M1255 5249.2H-345L255 4210 455 3863.6 1055 4902.8" fill="#6199fa"/>
<path transform="matrix(.1,0,0,-.1,0,792)" stroke-width="15" stroke-linecap="butt" stroke-miterlimit="10" stroke-linejoin="miter" fill="none" stroke="#000000" d="M1255 5249.2H-345L255 4210 455 3863.6 1055 4902.8Z"/>
<path transform="matrix(.1,0,0,-.1,0,792)" d="M1655 1785.1 1455 1438.7 1655 1092.3H2055L2255 1438.7 2055 1785.1" fill="#2b36a3"/>
<path transform="matrix(.1,0,0,-.1,0,792)" stroke-width="15" stroke-linecap="butt" stroke-miterlimit="10" stroke-linejoin="miter" fill="none" stroke="#000000" d="M1655 1785.1 1455 1438.7 1655 1092.3H2055L2255 1438.7 2055 1785.1Z"/>
<path transform="matrix(.1,0,0,-.1,0,792)" d="M1655 1785.1H55L655 745.898 855 399.5 1455 1438.7" fill="#6199fa"/>
<path transform="matrix(.1,0,0,-.1,0,792)" stroke-width="15" stroke-linecap="butt" stroke-miterlimit="10" stroke-linejoin="miter" fill="none" stroke="#000000" d="M1655 1785.1H55L655 745.898 855 399.5 1455 1438.7Z"/>
<path transform="matrix(.1,0,0,-.1,0,792)" d="M4455 1785.1 3855 745.898 3655 399.5H5255L4655 1438.7" fill="#40f05c"/>
<path transform="matrix(.1,0,0,-.1,0,792)" stroke-width="15" stroke-linecap="butt" stroke-miterlimit="10" stroke-linejoin="miter" fill="none" stroke="#000000" d="M4455 1785.1 3855 745.898 3655 399.5H5255L4655 1438.7Z"/>
<path transform="matrix(.1,0,0,-.1,0,792)" d="M4455 6634.9 4655 6981.3 4455 7327.7H4055L3855 6981.3 4055 6634.9" fill="#2b36a3"/>
<path transform="matrix(.1,0,0,-.1,0,792)" stroke-width="15" stroke-linecap="butt" stroke-miterlimit="10" stroke-linejoin="miter" fill="none" stroke="#000000" d="M4455 6634.9 4655 6981.3 4455 7327.7H4055L3855 6981.3 4055 6634.9Z"/>
<path transform="matrix(.1,0,0,-.1,0,792)" d="M4455 6634.9H6055L5455 7674.1 5255 8020.5 4655 6981.3" fill="#40f05c"/>
<path transform="matrix(.1,0,0,-.1,0,792)" stroke-width="15" stroke-linecap="butt" stroke-miterlimit="10" stroke-linejoin="miter" fill="none" stroke="#000000" d="M4455 6634.9H6055L5455 7674.1 5255 8020.5 4655 6981.3Z"/>
<path transform="matrix(.1,0,0,-.1,0,792)" d="M1655 6634.9 2255 7674.1 2455 8020.5H855L1455 6981.3" fill="#6199fa"/>
<path transform="matrix(.1,0,0,-.1,0,792)" stroke-width="15" stroke-linecap="butt" stroke-miterlimit="10" stroke-linejoin="miter" fill="none" stroke="#000000" d="M1655 6634.9 2255 7674.1 2455 8020.5H855L1455 6981.3Z"/>
<path transform="matrix(.1,0,0,-.1,0,792)" d="M4855 3170.8H6455L5855 4210 5655 4556.4 5055 3517.2" fill="#40f05c"/>
<path transform="matrix(.1,0,0,-.1,0,792)" stroke-width="15" stroke-linecap="butt" stroke-miterlimit="10" stroke-linejoin="miter" fill="none" stroke="#000000" d="M4855 3170.8H6455L5855 4210 5655 4556.4 5055 3517.2Z"/>
<path transform="matrix(.1,0,0,-.1,0,792)" d="M4655 6981.3 5255 8020.5 5455 8366.9H3855L4455 7327.7" fill="#6199fa"/>
<path transform="matrix(.1,0,0,-.1,0,792)" stroke-width="15" stroke-linecap="butt" stroke-miterlimit="10" stroke-linejoin="miter" fill="none" stroke="#000000" d="M4655 6981.3 5255 8020.5 5455 8366.9H3855L4455 7327.7Z"/>
<path transform="matrix(.1,0,0,-.1,0,792)" d="M1455 6981.3 855 8020.5 655 8366.9 55 7327.7-145 6981.3H1055" fill="#40f05c"/>
<path transform="matrix(.1,0,0,-.1,0,792)" stroke-width="15" stroke-linecap="butt" stroke-miterlimit="10" stroke-linejoin="miter" fill="none" stroke="#000000" d="M1455 6981.3 855 8020.5 655 8366.9 55 7327.7-145 6981.3H1055Z"/>
<path transform="matrix(.1,0,0,-.1,0,792)" d="M1055 6981.3H-545L55 5942.1 255 5595.6 855 6634.9" fill="#6199fa"/>
<path transform="matrix(.1,0,0,-.1,0,792)" stroke-width="15" stroke-linecap="butt" stroke-miterlimit="10" stroke-linejoin="miter" fill="none" stroke="#000000" d="M1055 6981.3H-545L55 5942.1 255 5595.6 855 6634.9Z"/>
<path transform="matrix(.1,0,0,-.1,0,792)" d="M1455 1438.7 855 399.5 655 53.1016H2255L1655 1092.3" fill="#40f05c"/>
<path transform="matrix(.1,0,0,-.1,0,792)" stroke-width="15" stroke-linecap="butt" stroke-miterlimit="10" stroke-linejoin="miter" fill="none" stroke="#000000" d="M1455 1438.7 855 399.5 655 53.1016H2255L1655 1092.3Z"/>
<path transform="matrix(.1,0,0,-.1,0,792)" d="M4655 1438.7 5255 399.5 5455 53.1016 6055 1092.3 6255 1438.7H5055" fill="#6199fa"/>
<path transform="matrix(.1,0,0,-.1,0,792)" stroke-width="15" stroke-linecap="butt" stroke-miterlimit="10" stroke-linejoin="miter" fill="none" stroke="#000000" d="M4655 1438.7 5255 399.5 5455 53.1016 6055 1092.3 6255 1438.7H5055Z"/>
<path transform="matrix(.1,0,0,-.1,0,792)" d="M5055 1438.7H6655L6055 2477.9 5855 2824.4 5255 1785.1" fill="#40f05c"/>
<path transform="matrix(.1,0,0,-.1,0,792)" stroke-width="15" stroke-linecap="butt" stroke-miterlimit="10" stroke-linejoin="miter" fill="none" stroke="#000000" d="M5055 1438.7H6655L6055 2477.9 5855 2824.4 5255 1785.1Z"/>
<path transform="matrix(.1,0,0,-.1,0,792)" d="M4455 7327.7 3855 8366.9 3655 8713.3 3055 7674.1 2855 7327.7H4055" fill="#40f05c"/>
<path transform="matrix(.1,0,0,-.1,0,792)" stroke-width="15" stroke-linecap="butt" stroke-miterlimit="10" stroke-linejoin="miter" fill="none" stroke="#000000" d="M4455 7327.7 3855 8366.9 3655 8713.3 3055 7674.1 2855 7327.7H4055Z"/>
<path transform="matrix(.1,0,0,-.1,0,792)" d="M2855 7327.7 3055 7674.1 2855 8020.5H2455L2255 7674.1 2455 7327.7" fill="#2b36a3"/>
<path transform="matrix(.1,0,0,-.1,0,792)" stroke-width="15" stroke-linecap="butt" stroke-miterlimit="10" stroke-linejoin="miter" fill="none" stroke="#000000" d="M2855 7327.7 3055 7674.1 2855 8020.5H2455L2255 7674.1 2455 7327.7Z"/>
<path transform="matrix(.1,0,0,-.1,0,792)" d="M1655 1092.3 2255 53.1016 2455-293.301 3055 745.898 3255 1092.3H2055" fill="#6199fa"/>
<path transform="matrix(.1,0,0,-.1,0,792)" stroke-width="15" stroke-linecap="butt" stroke-miterlimit="10" stroke-linejoin="miter" fill="none" stroke="#000000" d="M1655 1092.3 2255 53.1016 2455-293.301 3055 745.898 3255 1092.3H2055Z"/>
<path transform="matrix(.1,0,0,-.1,0,792)" d="M3255 1092.3 3055 745.898 3255 399.5H3655L3855 745.898 3655 1092.3" fill="#2b36a3"/>
<path transform="matrix(.1,0,0,-.1,0,792)" stroke-width="15" stroke-linecap="butt" stroke-miterlimit="10" stroke-linejoin="miter" fill="none" stroke="#000000" d="M3255 1092.3 3055 745.898 3255 399.5H3655L3855 745.898 3655 1092.3Z"/>
<path transform="matrix(.1,0,0,-.1,0,792)" d="M655 2131.5 455 2477.9H55L-145 2131.5 55 1785.1H455" fill="#2b36a3"/>
<path transform="matrix(.1,0,0,-.1,0,792)" stroke-width="15" stroke-linecap="butt" stroke-miterlimit="10" stroke-linejoin="miter" fill="none" stroke="#000000" d="M655 2131.5 455 2477.9H55L-145 2131.5 55 1785.1H455Z"/>
<path transform="matrix(.1,0,0,-.1,0,792)" d="M5455 6288.5 5655 5942.1H6055L6255 6288.5 6055 6634.9H5655" fill="#2b36a3"/>
<path transform="matrix(.1,0,0,-.1,0,792)" stroke-width="15" stroke-linecap="butt" stroke-miterlimit="10" stroke-linejoin="miter" fill="none" stroke="#000000" d="M5455 6288.5 5655 5942.1H6055L6255 6288.5 6055 6634.9H5655Z"/>
<path transform="matrix(.1,0,0,-.1,0,792)" d="M5455 7674.1H5855L6055 8020.5 5855 8366.9H5455L5255 8020.5" fill="#2b36a3"/>
<path transform="matrix(.1,0,0,-.1,0,792)" stroke-width="15" stroke-linecap="butt" stroke-miterlimit="10" stroke-linejoin="miter" fill="none" stroke="#000000" d="M5455 7674.1H5855L6055 8020.5 5855 8366.9H5455L5255 8020.5Z"/>
<path transform="matrix(.1,0,0,-.1,0,792)" d="M5455 7674.1 6055 6634.9 6255 6288.5 6855 7327.7 7055 7674.1H5855" fill="#6199fa"/>
<path transform="matrix(.1,0,0,-.1,0,792)" stroke-width="15" stroke-linecap="butt" stroke-miterlimit="10" stroke-linejoin="miter" fill="none" stroke="#000000" d="M5455 7674.1 6055 6634.9 6255 6288.5 6855 7327.7 7055 7674.1H5855Z"/>
<path transform="matrix(.1,0,0,-.1,0,792)" d="M3055 7674.1 3655 8713.3 3855 9059.7H2255L2855 8020.5" fill="#6199fa"/>
<path transform="matrix(.1,0,0,-.1,0,792)" stroke-width="15" stroke-linecap="butt" stroke-miterlimit="10" stroke-linejoin="miter" fill="none" stroke="#000000" d="M3055 7674.1 3655 8713.3 3855 9059.7H2255L2855 8020.5Z"/>
<path transform="matrix(.1,0,0,-.1,0,792)" d="M655 745.898H255L55 399.5 255 53.1016H655L855 399.5" fill="#2b36a3"/>
<path transform="matrix(.1,0,0,-.1,0,792)" stroke-width="15" stroke-linecap="butt" stroke-miterlimit="10" stroke-linejoin="miter" fill="none" stroke="#000000" d="M655 745.898H255L55 399.5 255 53.1016H655L855 399.5Z"/>
<path transform="matrix(.1,0,0,-.1,0,792)" d="M655 745.898 55 1785.1-145 2131.5-745 1092.3-945 745.898H255" fill="#40f05c"/>
<path transform="matrix(.1,0,0,-.1,0,792)" stroke-width="15" stroke-linecap="butt" stroke-miterlimit="10" stroke-linejoin="miter" fill="none" stroke="#000000" d="M655 745.898 55 1785.1-145 2131.5-745 1092.3-945 745.898H255Z"/>
<path transform="matrix(.1,0,0,-.1,0,792)" d="M3055 745.898 2455-293.301 2255-639.699H3855L3255 399.5" fill="#40f05c"/>
<path transform="matrix(.1,0,0,-.1,0,792)" stroke-width="15" stroke-linecap="butt" stroke-miterlimit="10" stroke-linejoin="miter" fill="none" stroke="#000000" d="M3055 745.898 2455-293.301 2255-639.699H3855L3255 399.5Z"/>
<path transform="matrix(.1,0,0,-.1,0,792)" d="M455 3863.6 255 4210H-145L-345 3863.6-145 3517.2H255" fill="#2b36a3"/>
<path transform="matrix(.1,0,0,-.1,0,792)" stroke-width="15" stroke-linecap="butt" stroke-miterlimit="10" stroke-linejoin="miter" fill="none" stroke="#000000" d="M455 3863.6 255 4210H-145L-345 3863.6-145 3517.2H255Z"/>
<path transform="matrix(.1,0,0,-.1,0,792)" d="M455 2477.9-145 3517.2-345 3863.6-945 2824.4-1145 2477.9H55" fill="#40f05c"/>
<path transform="matrix(.1,0,0,-.1,0,792)" stroke-width="15" stroke-linecap="butt" stroke-miterlimit="10" stroke-linejoin="miter" fill="none" stroke="#000000" d="M455 2477.9-145 3517.2-345 3863.6-945 2824.4-1145 2477.9H55Z"/>
<path transform="matrix(.1,0,0,-.1,0,792)" d="M5655 4556.4 5855 4210H6255L6455 4556.4 6255 4902.8H5855" fill="#2b36a3"/>
<path transform="matrix(.1,0,0,-.1,0,792)" stroke-width="15" stroke-linecap="butt" stroke-miterlimit="10" stroke-linejoin="miter" fill="none" stroke="#000000" d="M5655 4556.4 5855 4210H6255L6455 4556.4 6255 4902.8H5855Z"/>
<path transform="matrix(.1,0,0,-.1,0,792)" d="M5655 5942.1 6255 4902.8 6455 4556.4 7055 5595.6 7255 5942.1H6055" fill="#6199fa"/>
<path transform="matrix(.1,0,0,-.1,0,792)" stroke-width="15" stroke-linecap="butt" stroke-miterlimit="10" stroke-linejoin="miter" fill="none" stroke="#000000" d="M5655 5942.1 6255 4902.8 6455 4556.4 7055 5595.6 7255 5942.1H6055Z"/>
<path transform="matrix(.1,0,0,-.1,0,792)" d="M255 5595.6 55 5942.1H-345L-545 5595.6-345 5249.2H55" fill="#2b36a3"/>
<path transform="matrix(.1,0,0,-.1,0,792)" stroke-width="15" stroke-linecap="butt" stroke-miterlimit="10" stroke-linejoin="miter" fill="none" stroke="#000000" d="M255 5595.6 55 5942.1H-345L-545 5595.6-345 5249.2H55Z"/>
<path transform="matrix(.1,0,0,-.1,0,792)" d="M255 4210-345 5249.2-545 5595.6-1145 4556.4-1345 4210H-145" fill="#40f05c"/>
<path transform="matrix(.1,0,0,-.1,0,792)" stroke-width="15" stroke-linecap="butt" stroke-miterlimit="10" stroke-linejoin="miter" fill="none" stroke="#000000" d="M255 4210-345 5249.2-545 5595.6-1145 4556.4-1345 4210H-145Z"/>
<path transform="matrix(.1,0,0,-.1,0,792)" d="M255 745.898H-1345L-745-293.301-545-639.699 55 399.5" fill="#6199fa"/>
<path transform="matrix(.1,0,0,-.1,0,792)" stroke-width="15" stroke-linecap="butt" stroke-miterlimit="10" stroke-linejoin="miter" fill="none" stroke="#000000" d="M255 745.898H-1345L-745-293.301-545-639.699 55 399.5Z"/>
<path transform="matrix(.1,0,0,-.1,0,792)" d="M3255 399.5 3855-639.699 4055-986.199 4655 53.1016 4855 399.5H3655" fill="#6199fa"/>
<path transform="matrix(.1,0,0,-.1,0,792)" stroke-width="15" stroke-linecap="butt" stroke-miterlimit="10" stroke-linejoin="miter" fill="none" stroke="#000000" d="M3255 399.5 3855-639.699 4055-986.199 4655 53.1016 4855 399.5H3655Z"/>
<path transform="matrix(.1,0,0,-.1,0,792)" d="M4855 399.5 4655 53.1016 4855-293.301H5255L5455 53.1016 5255 399.5" fill="#2b36a3"/>
<path transform="matrix(.1,0,0,-.1,0,792)" stroke-width="15" stroke-linecap="butt" stroke-miterlimit="10" stroke-linejoin="miter" fill="none" stroke="#000000" d="M4855 399.5 4655 53.1016 4855-293.301H5255L5455 53.1016 5255 399.5Z"/>
<path transform="matrix(.1,0,0,-.1,0,792)" d="M5855 2824.4 6055 2477.9H6455L6655 2824.4 6455 3170.8H6055" fill="#2b36a3"/>
<path transform="matrix(.1,0,0,-.1,0,792)" stroke-width="15" stroke-linecap="butt" stroke-miterlimit="10" stroke-linejoin="miter" fill="none" stroke="#000000" d="M5855 2824.4 6055 2477.9H6455L6655 2824.4 6455 3170.8H6055Z"/>
<path transform="matrix(.1,0,0,-.1,0,792)" d="M5855 4210 6455 3170.8 6655 2824.4 7255 3863.6 7455 4210H6255" fill="#6199fa"/>
<path transform="matrix(.1,0,0,-.1,0,792)" stroke-width="15" stroke-linecap="butt" stroke-miterlimit="10" stroke-linejoin="miter" fill="none" stroke="#000000" d="M5855 4210 6455 3170.8 6655 2824.4 7255 3863.6 7455 4210H6255Z"/>
<path transform="matrix(.1,0,0,-.1,0,792)" d="M5855 7674.1H7455L6855 8713.3 6655 9059.7 6055 8020.5" fill="#40f05c"/>
<path transform="matrix(.1,0,0,-.1,0,792)" stroke-width="15" stroke-linecap="butt" stroke-miterlimit="10" stroke-linejoin="miter" fill="none" stroke="#000000" d="M5855 7674.1H7455L6855 8713.3 6655 9059.7 6055 8020.5Z"/>
<path transform="matrix(.1,0,0,-.1,0,792)" d="M55 7327.7-145 7674.1H-545L-745 7327.7-545 6981.3H-145" fill="#2b36a3"/>
<path transform="matrix(.1,0,0,-.1,0,792)" stroke-width="15" stroke-linecap="butt" stroke-miterlimit="10" stroke-linejoin="miter" fill="none" stroke="#000000" d="M55 7327.7-145 7674.1H-545L-745 7327.7-545 6981.3H-145Z"/>
<path transform="matrix(.1,0,0,-.1,0,792)" d="M55 7327.7 655 8366.9 855 8713.3H-745L-145 7674.1" fill="#6199fa"/>
<path transform="matrix(.1,0,0,-.1,0,792)" stroke-width="15" stroke-linecap="butt" stroke-miterlimit="10" stroke-linejoin="miter" fill="none" stroke="#000000" d="M55 7327.7 655 8366.9 855 8713.3H-745L-145 7674.1Z"/>
<path transform="matrix(.1,0,0,-.1,0,792)" d="M55 5942.1-545 6981.3-745 7327.7-1345 6288.5-1545 5942.1H-345" fill="#40f05c"/>
<path transform="matrix(.1,0,0,-.1,0,792)" stroke-width="15" stroke-linecap="butt" stroke-miterlimit="10" stroke-linejoin="miter" fill="none" stroke="#000000" d="M55 5942.1-545 6981.3-745 7327.7-1345 6288.5-1545 5942.1H-345Z"/>
<path transform="matrix(.1,0,0,-.1,0,792)" d="M55 2477.9H-1545L-945 1438.7-745 1092.3-145 2131.5" fill="#6199fa"/>
<path transform="matrix(.1,0,0,-.1,0,792)" stroke-width="15" stroke-linecap="butt" stroke-miterlimit="10" stroke-linejoin="miter" fill="none" stroke="#000000" d="M55 2477.9H-1545L-945 1438.7-745 1092.3-145 2131.5Z"/>
<path transform="matrix(.1,0,0,-.1,0,792)" d="M55 399.5-545-639.699-745-986.199H855L255 53.1016" fill="#40f05c"/>
<path transform="matrix(.1,0,0,-.1,0,792)" stroke-width="15" stroke-linecap="butt" stroke-miterlimit="10" stroke-linejoin="miter" fill="none" stroke="#000000" d="M55 399.5-545-639.699-745-986.199H855L255 53.1016Z"/>
<path transform="matrix(.1,0,0,-.1,0,792)" d="M255 53.1016 855-986.199 1055-1332.6 1655-293.301 1855 53.1016H655" fill="#6199fa"/>
<path transform="matrix(.1,0,0,-.1,0,792)" stroke-width="15" stroke-linecap="butt" stroke-miterlimit="10" stroke-linejoin="miter" fill="none" stroke="#000000" d="M255 53.1016 855-986.199 1055-1332.6 1655-293.301 1855 53.1016H655Z"/>
<path transform="matrix(.1,0,0,-.1,0,792)" d="M1855 53.1016 1655-293.301 1855-639.699H2255L2455-293.301 2255 53.1016" fill="#2b36a3"/>
<path transform="matrix(.1,0,0,-.1,0,792)" stroke-width="15" stroke-linecap="butt" stroke-miterlimit="10" stroke-linejoin="miter" fill="none" stroke="#000000" d="M1855 53.1016 1655-293.301 1855-639.699H2255L2455-293.301 2255 53.1016Z"/>
<path transform="matrix(.1,0,0,-.1,0,792)" d="M4655 53.1016 4055-986.199 3855-1332.6H5455L4855-293.301" fill="#40f05c"/>
<path transform="matrix(.1,0,0,-.1,0,792)" stroke-width="15" stroke-linecap="butt" stroke-miterlimit="10" stroke-linejoin="miter" fill="none" stroke="#000000" d="M4655 53.1016 4055-986.199 3855-1332.6H5455L4855-293.301Z"/>
<path transform="matrix(.1,0,0,-.1,0,792)" d="M5455 53.1016 5255-293.301H6855L6255 745.898 6055 1092.3" fill="#40f05c"/>
<path transform="matrix(.1,0,0,-.1,0,792)" stroke-width="15" stroke-linecap="butt" stroke-miterlimit="10" stroke-linejoin="miter" fill="none" stroke="#000000" d="M5455 53.1016 5255-293.301H6855L6255 745.898 6055 1092.3Z"/>
<path transform="matrix(.1,0,0,-.1,0,792)" d="M6055 1092.3 6255 745.898H6655L6855 1092.3 6655 1438.7H6255" fill="#2b36a3"/>
<path transform="matrix(.1,0,0,-.1,0,792)" stroke-width="15" stroke-linecap="butt" stroke-miterlimit="10" stroke-linejoin="miter" fill="none" stroke="#000000" d="M6055 1092.3 6255 745.898H6655L6855 1092.3 6655 1438.7H6255Z"/>
<path transform="matrix(.1,0,0,-.1,0,792)" d="M6055 2477.9 6655 1438.7 6855 1092.3 7455 2131.5 7655 2477.9H6455" fill="#6199fa"/>
<path transform="matrix(.1,0,0,-.1,0,792)" stroke-width="15" stroke-linecap="butt" stroke-miterlimit="10" stroke-linejoin="miter" fill="none" stroke="#000000" d="M6055 2477.9 6655 1438.7 6855 1092.3 7455 2131.5 7655 2477.9H6455Z"/>
<path transform="matrix(.1,0,0,-.1,0,792)" d="M6055 5942.1H7655L7055 6981.3 6855 7327.7 6255 6288.5" fill="#40f05c"/>
<path transform="matrix(.1,0,0,-.1,0,792)" stroke-width="15" stroke-linecap="butt" stroke-miterlimit="10" stroke-linejoin="miter" fill="none" stroke="#000000" d="M6055 5942.1H7655L7055 6981.3 6855 7327.7 6255 6288.5Z"/>
</svg>
