<svg xmlns="http://www.w3.org/2000/svg" xmlns:xlink="http://www.w3.org/1999/xlink" xmlns:inkscape="http://www.inkscape.org/namespaces/inkscape" version="1.1" width="612" height="792" viewBox="0 0 612 792">
<path transform="matrix(.1,0,0,-.1,0,792)" d="M2975 3437.5 3187.1 3649.6H3487.1V3949.6L3699.3 4161.7 3487.1 4373.8V4673.8H3187.1L2975 4886 2762.9 4673.8H2462.9V4373.8L2250.7 4161.7 2462.9 3949.6V3649.6H2762.9" fill="#f8c499"/>
<path transform="matrix(.1,0,0,-.1,0,792)" stroke-width="20" stroke-linecap="butt" stroke-miterlimit="10" stroke-linejoin="miter" fill="none" stroke="#000000" d="M2975 3437.5 3187.1 3649.6H3487.1V3949.6L3699.3 4161.7 3487.1 4373.8V4673.8H3187.1L2975 4886 2762.9 4673.8H2462.9V4373.8L2250.7 4161.7 2462.9 3949.6V3649.6H2762.9Z"/>
<path transform="matrix(.1,0,0,-.1,0,792)" d="M3187.1 4673.8H3787.1V4973.8L3575 5186 3787.1 5398.1V5698.1H3487.1 3187.1L2975 5486 2762.9 5698.1H2462.9 2162.9V5398.1L2375 5186 2162.9 4973.8V4673.8H2462.9 2762.9L2975 4886" fill="#b07a26"/>
<path transform="matrix(.1,0,0,-.1,0,792)" stroke-width="20" stroke-linecap="butt" stroke-miterlimit="10" stroke-linejoin="miter" fill="none" stroke="#000000" d="M3187.1 4673.8H3787.1V4973.8L3575 5186 3787.1 5398.1V5698.1H3487.1 3187.1L2975 5486 2762.9 5698.1H2462.9 2162.9V5398.1L2375 5186 2162.9 4973.8V4673.8H2462.9 2762.9L2975 4886Z"/>
<path transform="matrix(.1,0,0,-.1,0,792)" d="M2762.9 3649.6H2162.9V3349.6L2375 3137.5 2162.9 2925.3V2625.3H2462.9 2762.9L2975 2837.5 3187.1 2625.3H3487.1 3787.1V2925.3L3575 3137.5 3787.1 3349.6V3649.6H3487.1 3187.1L2975 3437.5" fill="#b07a26"/>
<path transform="matrix(.1,0,0,-.1,0,792)" stroke-width="20" stroke-linecap="butt" stroke-miterlimit="10" stroke-linejoin="miter" fill="none" stroke="#000000" d="M2762.9 3649.6H2162.9V3349.6L2375 3137.5 2162.9 2925.3V2625.3H2462.9 2762.9L2975 2837.5 3187.1 2625.3H3487.1 3787.1V2925.3L3575 3137.5 3787.1 3349.6V3649.6H3487.1 3187.1L2975 3437.5Z"/>
<path transform="matrix(.1,0,0,-.1,0,792)" d="M2462.9 3949.6 2250.7 4161.7 2462.9 4373.8V4673.8H2162.9 1862.9L1650.7 4461.7 1438.6 4673.8H1138.6 838.602V4373.8L1050.7 4161.7 838.602 3949.6V3649.6H1138.6 1438.6L1650.7 3861.7 1862.9 3649.6H2162.9 2462.9" fill="#b07a26"/>
<path transform="matrix(.1,0,0,-.1,0,792)" stroke-width="20" stroke-linecap="butt" stroke-miterlimit="10" stroke-linejoin="miter" fill="none" stroke="#000000" d="M2462.9 3949.6 2250.7 4161.7 2462.9 4373.8V4673.8H2162.9 1862.9L1650.7 4461.7 1438.6 4673.8H1138.6 838.602V4373.8L1050.7 4161.7 838.602 3949.6V3649.6H1138.6 1438.6L1650.7 3861.7 1862.9 3649.6H2162.9 2462.9Z"/>
<path transform="matrix(.1,0,0,-.1,0,792)" d="M3487.1 3649.6H4087.1L4299.3 3861.7 4511.4 3649.6H4811.4 5111.4V3949.6L4899.3 4161.7 5111.4 4373.8V4673.8H4811.4 4511.4L4299.3 4461.7 4087.1 4673.8H3787.1 3487.1V4373.8L3699.3 4161.7 3487.1 3949.6" fill="#b07a26"/>
<path transform="matrix(.1,0,0,-.1,0,792)" stroke-width="20" stroke-linecap="butt" stroke-miterlimit="10" stroke-linejoin="miter" fill="none" stroke="#000000" d="M3487.1 3649.6H4087.1L4299.3 3861.7 4511.4 3649.6H4811.4 5111.4V3949.6L4899.3 4161.7 5111.4 4373.8V4673.8H4811.4 4511.4L4299.3 4461.7 4087.1 4673.8H3787.1 3487.1V4373.8L3699.3 4161.7 3487.1 3949.6Z"/>
<path transform="matrix(.1,0,0,-.1,0,792)" d="M3575 5186 3787.1 4973.8V4673.8H4087.1L4299.3 4461.7 4511.4 4673.8H4811.4V4973.8L5023.5 5186 4811.4 5398.1V5698.1H4511.4L4299.3 5910.2 4087.1 5698.1H3787.1V5398.1" fill="#f8c499"/>
<path transform="matrix(.1,0,0,-.1,0,792)" stroke-width="20" stroke-linecap="butt" stroke-miterlimit="10" stroke-linejoin="miter" fill="none" stroke="#000000" d="M3575 5186 3787.1 4973.8V4673.8H4087.1L4299.3 4461.7 4511.4 4673.8H4811.4V4973.8L5023.5 5186 4811.4 5398.1V5698.1H4511.4L4299.3 5910.2 4087.1 5698.1H3787.1V5398.1Z"/>
<path transform="matrix(.1,0,0,-.1,0,792)" d="M2375 5186 2162.9 5398.1V5698.1H1862.9L1650.7 5910.2 1438.6 5698.1H1138.6V5398.1L926.5 5186 1138.6 4973.8V4673.8H1438.6L1650.7 4461.7 1862.9 4673.8H2162.9V4973.8" fill="#f8c499"/>
<path transform="matrix(.1,0,0,-.1,0,792)" stroke-width="20" stroke-linecap="butt" stroke-miterlimit="10" stroke-linejoin="miter" fill="none" stroke="#000000" d="M2375 5186 2162.9 5398.1V5698.1H1862.9L1650.7 5910.2 1438.6 5698.1H1138.6V5398.1L926.5 5186 1138.6 4973.8V4673.8H1438.6L1650.7 4461.7 1862.9 4673.8H2162.9V4973.8Z"/>
<path transform="matrix(.1,0,0,-.1,0,792)" d="M2375 3137.5 2162.9 3349.6V3649.6H1862.9L1650.7 3861.7 1438.6 3649.6H1138.6V3349.6L926.5 3137.5 1138.6 2925.3V2625.3H1438.6L1650.7 2413.2 1862.9 2625.3H2162.9V2925.3" fill="#f8c499"/>
<path transform="matrix(.1,0,0,-.1,0,792)" stroke-width="20" stroke-linecap="butt" stroke-miterlimit="10" stroke-linejoin="miter" fill="none" stroke="#000000" d="M2375 3137.5 2162.9 3349.6V3649.6H1862.9L1650.7 3861.7 1438.6 3649.6H1138.6V3349.6L926.5 3137.5 1138.6 2925.3V2625.3H1438.6L1650.7 2413.2 1862.9 2625.3H2162.9V2925.3Z"/>
<path transform="matrix(.1,0,0,-.1,0,792)" d="M3575 3137.5 3787.1 2925.3V2625.3H4087.1L4299.3 2413.2 4511.4 2625.3H4811.4V2925.3L5023.5 3137.5 4811.4 3349.6V3649.6H4511.4L4299.3 3861.7 4087.1 3649.6H3787.1V3349.6" fill="#f8c499"/>
<path transform="matrix(.1,0,0,-.1,0,792)" stroke-width="20" stroke-linecap="butt" stroke-miterlimit="10" stroke-linejoin="miter" fill="none" stroke="#000000" d="M3575 3137.5 3787.1 2925.3V2625.3H4087.1L4299.3 2413.2 4511.4 2625.3H4811.4V2925.3L5023.5 3137.5 4811.4 3349.6V3649.6H4511.4L4299.3 3861.7 4087.1 3649.6H3787.1V3349.6Z"/>
<path transform="matrix(.1,0,0,-.1,0,792)" d="M2975 5486 3187.1 5698.1H3487.1V5998.1L3699.3 6210.2 3487.1 6422.4V6722.4H3187.1L2975 6934.5 2762.9 6722.4H2462.9V6422.4L2250.7 6210.2 2462.9 5998.1V5698.1H2762.9" fill="#f8c499"/>
<path transform="matrix(.1,0,0,-.1,0,792)" stroke-width="20" stroke-linecap="butt" stroke-miterlimit="10" stroke-linejoin="miter" fill="none" stroke="#000000" d="M2975 5486 3187.1 5698.1H3487.1V5998.1L3699.3 6210.2 3487.1 6422.4V6722.4H3187.1L2975 6934.5 2762.9 6722.4H2462.9V6422.4L2250.7 6210.2 2462.9 5998.1V5698.1H2762.9Z"/>
<path transform="matrix(.1,0,0,-.1,0,792)" d="M2975 2837.5 2762.9 2625.3H2462.9V2325.3L2250.7 2113.2 2462.9 1901.1V1601.1H2762.9L2975 1388.9 3187.1 1601.1H3487.1V1901.1L3699.3 2113.2 3487.1 2325.3V2625.3H3187.1" fill="#f8c499"/>
<path transform="matrix(.1,0,0,-.1,0,792)" stroke-width="20" stroke-linecap="butt" stroke-miterlimit="10" stroke-linejoin="miter" fill="none" stroke="#000000" d="M2975 2837.5 2762.9 2625.3H2462.9V2325.3L2250.7 2113.2 2462.9 1901.1V1601.1H2762.9L2975 1388.9 3187.1 1601.1H3487.1V1901.1L3699.3 2113.2 3487.1 2325.3V2625.3H3187.1Z"/>
<path transform="matrix(.1,0,0,-.1,0,792)" d="M3787.1 5698.1H4087.1L4299.3 5910.2 4511.4 5698.1H4811.4 5111.4V5998.1L4899.3 6210.2 5111.4 6422.4V6722.4H4811.4 4511.4L4299.3 6510.2 4087.1 6722.4H3787.1 3487.1V6422.4L3699.3 6210.2 3487.1 5998.1V5698.1" fill="#b07a26"/>
<path transform="matrix(.1,0,0,-.1,0,792)" stroke-width="20" stroke-linecap="butt" stroke-miterlimit="10" stroke-linejoin="miter" fill="none" stroke="#000000" d="M3787.1 5698.1H4087.1L4299.3 5910.2 4511.4 5698.1H4811.4 5111.4V5998.1L4899.3 6210.2 5111.4 6422.4V6722.4H4811.4 4511.4L4299.3 6510.2 4087.1 6722.4H3787.1 3487.1V6422.4L3699.3 6210.2 3487.1 5998.1V5698.1Z"/>
<path transform="matrix(.1,0,0,-.1,0,792)" d="M2462.9 5698.1V5998.1L2250.7 6210.2 2462.9 6422.4V6722.4H2162.9 1862.9L1650.7 6510.2 1438.6 6722.4H1138.6 838.602V6422.4L1050.7 6210.2 838.602 5998.1V5698.1H1138.6 1438.6L1650.7 5910.2 1862.9 5698.1H2162.9" fill="#b07a26"/>
<path transform="matrix(.1,0,0,-.1,0,792)" stroke-width="20" stroke-linecap="butt" stroke-miterlimit="10" stroke-linejoin="miter" fill="none" stroke="#000000" d="M2462.9 5698.1V5998.1L2250.7 6210.2 2462.9 6422.4V6722.4H2162.9 1862.9L1650.7 6510.2 1438.6 6722.4H1138.6 838.602V6422.4L1050.7 6210.2 838.602 5998.1V5698.1H1138.6 1438.6L1650.7 5910.2 1862.9 5698.1H2162.9Z"/>
<path transform="matrix(.1,0,0,-.1,0,792)" d="M1862.9 2625.3 1650.7 2413.2 1438.6 2625.3H838.602V2325.3L1050.7 2113.2 838.602 1901.1V1601.1H1138.6 1438.6L1650.7 1813.2 1862.9 1601.1H2162.9 2462.9V1901.1L2250.7 2113.2 2462.9 2325.3V2625.3H2162.9" fill="#b07a26"/>
<path transform="matrix(.1,0,0,-.1,0,792)" stroke-width="20" stroke-linecap="butt" stroke-miterlimit="10" stroke-linejoin="miter" fill="none" stroke="#000000" d="M1862.9 2625.3 1650.7 2413.2 1438.6 2625.3H838.602V2325.3L1050.7 2113.2 838.602 1901.1V1601.1H1138.6 1438.6L1650.7 1813.2 1862.9 1601.1H2162.9 2462.9V1901.1L2250.7 2113.2 2462.9 2325.3V2625.3H2162.9Z"/>
<path transform="matrix(.1,0,0,-.1,0,792)" d="M3487.1 2625.3V2325.3L3699.3 2113.2 3487.1 1901.1V1601.1H3787.1 4087.1L4299.3 1813.2 4511.4 1601.1H4811.4 5111.4V1901.1L4899.3 2113.2 5111.4 2325.3V2625.3H4811.4 4511.4L4299.3 2413.2 4087.1 2625.3H3787.1" fill="#b07a26"/>
<path transform="matrix(.1,0,0,-.1,0,792)" stroke-width="20" stroke-linecap="butt" stroke-miterlimit="10" stroke-linejoin="miter" fill="none" stroke="#000000" d="M3487.1 2625.3V2325.3L3699.3 2113.2 3487.1 1901.1V1601.1H3787.1 4087.1L4299.3 1813.2 4511.4 1601.1H4811.4 5111.4V1901.1L4899.3 2113.2 5111.4 2325.3V2625.3H4811.4 4511.4L4299.3 2413.2 4087.1 2625.3H3787.1Z"/>
<path transform="matrix(.1,0,0,-.1,0,792)" d="M4299.3 6510.2 4511.4 6722.4H4811.4V7022.4L5023.5 7234.5 4811.4 7446.6V7746.6H4511.4L4299.3 7958.8 4087.1 7746.6H3787.1V7446.6L3575 7234.5 3787.1 7022.4V6722.4H4087.1" fill="#f8c499"/>
<path transform="matrix(.1,0,0,-.1,0,792)" stroke-width="20" stroke-linecap="butt" stroke-miterlimit="10" stroke-linejoin="miter" fill="none" stroke="#000000" d="M4299.3 6510.2 4511.4 6722.4H4811.4V7022.4L5023.5 7234.5 4811.4 7446.6V7746.6H4511.4L4299.3 7958.8 4087.1 7746.6H3787.1V7446.6L3575 7234.5 3787.1 7022.4V6722.4H4087.1Z"/>
<path transform="matrix(.1,0,0,-.1,0,792)" d="M1650.7 6510.2 1862.9 6722.4H2162.9V7022.4L2375 7234.5 2162.9 7446.6V7746.6H1862.9L1650.7 7958.8 1438.6 7746.6H1138.6V7446.6L926.5 7234.5 1138.6 7022.4V6722.4H1438.6" fill="#f8c499"/>
<path transform="matrix(.1,0,0,-.1,0,792)" stroke-width="20" stroke-linecap="butt" stroke-miterlimit="10" stroke-linejoin="miter" fill="none" stroke="#000000" d="M1650.7 6510.2 1862.9 6722.4H2162.9V7022.4L2375 7234.5 2162.9 7446.6V7746.6H1862.9L1650.7 7958.8 1438.6 7746.6H1138.6V7446.6L926.5 7234.5 1138.6 7022.4V6722.4H1438.6Z"/>
<path transform="matrix(.1,0,0,-.1,0,792)" d="M1650.7 1813.2 1438.6 1601.1H1138.6V1301.1L926.5 1088.9 1138.6 876.801V576.801H1438.6L1650.7 364.699 1862.9 576.801H2162.9V876.801L2375 1088.9 2162.9 1301.1V1601.1H1862.9" fill="#f8c499"/>
<path transform="matrix(.1,0,0,-.1,0,792)" stroke-width="20" stroke-linecap="butt" stroke-miterlimit="10" stroke-linejoin="miter" fill="none" stroke="#000000" d="M1650.7 1813.2 1438.6 1601.1H1138.6V1301.1L926.5 1088.9 1138.6 876.801V576.801H1438.6L1650.7 364.699 1862.9 576.801H2162.9V876.801L2375 1088.9 2162.9 1301.1V1601.1H1862.9Z"/>
<path transform="matrix(.1,0,0,-.1,0,792)" d="M4299.3 1813.2 4087.1 1601.1H3787.1V1301.1L3575 1088.9 3787.1 876.801V576.801H4087.1L4299.3 364.699 4511.4 576.801H4811.4V876.801L5023.5 1088.9 4811.4 1301.1V1601.1H4511.4" fill="#f8c499"/>
<path transform="matrix(.1,0,0,-.1,0,792)" stroke-width="20" stroke-linecap="butt" stroke-miterlimit="10" stroke-linejoin="miter" fill="none" stroke="#000000" d="M4299.3 1813.2 4087.1 1601.1H3787.1V1301.1L3575 1088.9 3787.1 876.801V576.801H4087.1L4299.3 364.699 4511.4 576.801H4811.4V876.801L5023.5 1088.9 4811.4 1301.1V1601.1H4511.4Z"/>
<path transform="matrix(.1,0,0,-.1,0,792)" d="M3787.1 6722.4V7022.4L3575 7234.5 3787.1 7446.6V7746.6H3487.1 3187.1L2975 7534.5 2762.9 7746.6H2462.9 2162.9V7446.6L2375 7234.5 2162.9 7022.4V6722.4H2462.9 2762.9L2975 6934.5 3187.1 6722.4H3487.1" fill="#b07a26"/>
<path transform="matrix(.1,0,0,-.1,0,792)" stroke-width="20" stroke-linecap="butt" stroke-miterlimit="10" stroke-linejoin="miter" fill="none" stroke="#000000" d="M3787.1 6722.4V7022.4L3575 7234.5 3787.1 7446.6V7746.6H3487.1 3187.1L2975 7534.5 2762.9 7746.6H2462.9 2162.9V7446.6L2375 7234.5 2162.9 7022.4V6722.4H2462.9 2762.9L2975 6934.5 3187.1 6722.4H3487.1Z"/>
<path transform="matrix(.1,0,0,-.1,0,792)" d="M1138.6 6722.4V7022.4L926.5 7234.5 1138.6 7446.6V7746.6H838.602 538.602L326.5 7534.5 114.301 7746.6H-185.699-485.699V7446.6L-273.5 7234.5-485.699 7022.4V6722.4H-185.699 114.301L326.5 6934.5 538.602 6722.4H838.602" fill="#b07a26"/>
<path transform="matrix(.1,0,0,-.1,0,792)" stroke-width="20" stroke-linecap="butt" stroke-miterlimit="10" stroke-linejoin="miter" fill="none" stroke="#000000" d="M1138.6 6722.4V7022.4L926.5 7234.5 1138.6 7446.6V7746.6H838.602 538.602L326.5 7534.5 114.301 7746.6H-185.699-485.699V7446.6L-273.5 7234.5-485.699 7022.4V6722.4H-185.699 114.301L326.5 6934.5 538.602 6722.4H838.602Z"/>
<path transform="matrix(.1,0,0,-.1,0,792)" d="M1138.6 5698.1H538.602L326.5 5486 114.301 5698.1H-185.699-485.699V5398.1L-273.5 5186-485.699 4973.8V4673.8H-185.699 114.301L326.5 4886 538.602 4673.8H838.602 1138.6V4973.8L926.5 5186 1138.6 5398.1" fill="#b07a26"/>
<path transform="matrix(.1,0,0,-.1,0,792)" stroke-width="20" stroke-linecap="butt" stroke-miterlimit="10" stroke-linejoin="miter" fill="none" stroke="#000000" d="M1138.6 5698.1H538.602L326.5 5486 114.301 5698.1H-185.699-485.699V5398.1L-273.5 5186-485.699 4973.8V4673.8H-185.699 114.301L326.5 4886 538.602 4673.8H838.602 1138.6V4973.8L926.5 5186 1138.6 5398.1Z"/>
<path transform="matrix(.1,0,0,-.1,0,792)" d="M1138.6 3649.6H538.602L326.5 3437.5 114.301 3649.6H-185.699-485.699V3349.6L-273.5 3137.5-485.699 2925.3V2625.3H-185.699 114.301L326.5 2837.5 538.602 2625.3H838.602 1138.6V2925.3L926.5 3137.5 1138.6 3349.6" fill="#b07a26"/>
<path transform="matrix(.1,0,0,-.1,0,792)" stroke-width="20" stroke-linecap="butt" stroke-miterlimit="10" stroke-linejoin="miter" fill="none" stroke="#000000" d="M1138.6 3649.6H538.602L326.5 3437.5 114.301 3649.6H-185.699-485.699V3349.6L-273.5 3137.5-485.699 2925.3V2625.3H-185.699 114.301L326.5 2837.5 538.602 2625.3H838.602 1138.6V2925.3L926.5 3137.5 1138.6 3349.6Z"/>
<path transform="matrix(.1,0,0,-.1,0,792)" d="M4811.4 2625.3H5411.4L5623.5 2837.5 5835.7 2625.3H6135.7 6435.7V2925.3L6223.5 3137.5 6435.7 3349.6V3649.6H6135.7 5835.7L5623.5 3437.5 5411.4 3649.6H5111.4 4811.4V3349.6L5023.5 3137.5 4811.4 2925.3" fill="#b07a26"/>
<path transform="matrix(.1,0,0,-.1,0,792)" stroke-width="20" stroke-linecap="butt" stroke-miterlimit="10" stroke-linejoin="miter" fill="none" stroke="#000000" d="M4811.4 2625.3H5411.4L5623.5 2837.5 5835.7 2625.3H6135.7 6435.7V2925.3L6223.5 3137.5 6435.7 3349.6V3649.6H6135.7 5835.7L5623.5 3437.5 5411.4 3649.6H5111.4 4811.4V3349.6L5023.5 3137.5 4811.4 2925.3Z"/>
<path transform="matrix(.1,0,0,-.1,0,792)" d="M4811.4 4673.8H5411.4L5623.5 4886 5835.7 4673.8H6135.7 6435.7V4973.8L6223.5 5186 6435.7 5398.1V5698.1H6135.7 5835.7L5623.5 5486 5411.4 5698.1H5111.4 4811.4V5398.1L5023.5 5186 4811.4 4973.8" fill="#b07a26"/>
<path transform="matrix(.1,0,0,-.1,0,792)" stroke-width="20" stroke-linecap="butt" stroke-miterlimit="10" stroke-linejoin="miter" fill="none" stroke="#000000" d="M4811.4 4673.8H5411.4L5623.5 4886 5835.7 4673.8H6135.7 6435.7V4973.8L6223.5 5186 6435.7 5398.1V5698.1H6135.7 5835.7L5623.5 5486 5411.4 5698.1H5111.4 4811.4V5398.1L5023.5 5186 4811.4 4973.8Z"/>
<path transform="matrix(.1,0,0,-.1,0,792)" d="M4811.4 6722.4H5411.4L5623.5 6934.5 5835.7 6722.4H6135.7 6435.7V7022.4L6223.5 7234.5 6435.7 7446.6V7746.6H6135.7 5835.7L5623.5 7534.5 5411.4 7746.6H5111.4 4811.4V7446.6L5023.5 7234.5 4811.4 7022.4" fill="#b07a26"/>
<path transform="matrix(.1,0,0,-.1,0,792)" stroke-width="20" stroke-linecap="butt" stroke-miterlimit="10" stroke-linejoin="miter" fill="none" stroke="#000000" d="M4811.4 6722.4H5411.4L5623.5 6934.5 5835.7 6722.4H6135.7 6435.7V7022.4L6223.5 7234.5 6435.7 7446.6V7746.6H6135.7 5835.7L5623.5 7534.5 5411.4 7746.6H5111.4 4811.4V7446.6L5023.5 7234.5 4811.4 7022.4Z"/>
<path transform="matrix(.1,0,0,-.1,0,792)" d="M1138.6 1601.1H538.602L326.5 1388.9 114.301 1601.1H-185.699-485.699V1301.1L-273.5 1088.9-485.699 876.801V576.801H-185.699 114.301L326.5 788.898 538.602 576.801H838.602 1138.6V876.801L926.5 1088.9 1138.6 1301.1" fill="#b07a26"/>
<path transform="matrix(.1,0,0,-.1,0,792)" stroke-width="20" stroke-linecap="butt" stroke-miterlimit="10" stroke-linejoin="miter" fill="none" stroke="#000000" d="M1138.6 1601.1H538.602L326.5 1388.9 114.301 1601.1H-185.699-485.699V1301.1L-273.5 1088.9-485.699 876.801V576.801H-185.699 114.301L326.5 788.898 538.602 576.801H838.602 1138.6V876.801L926.5 1088.9 1138.6 1301.1Z"/>
<path transform="matrix(.1,0,0,-.1,0,792)" d="M2162.9 1601.1V1301.1L2375 1088.9 2162.9 876.801V576.801H2462.9 2762.9L2975 788.898 3187.1 576.801H3487.1 3787.1V876.801L3575 1088.9 3787.1 1301.1V1601.1H3487.1 3187.1L2975 1388.9 2762.9 1601.1H2462.9" fill="#b07a26"/>
<path transform="matrix(.1,0,0,-.1,0,792)" stroke-width="20" stroke-linecap="butt" stroke-miterlimit="10" stroke-linejoin="miter" fill="none" stroke="#000000" d="M2162.9 1601.1V1301.1L2375 1088.9 2162.9 876.801V576.801H2462.9 2762.9L2975 788.898 3187.1 576.801H3487.1 3787.1V876.801L3575 1088.9 3787.1 1301.1V1601.1H3487.1 3187.1L2975 1388.9 2762.9 1601.1H2462.9Z"/>
<path transform="matrix(.1,0,0,-.1,0,792)" d="M4811.4 1601.1V1301.1L5023.5 1088.9 4811.4 876.801V576.801H5111.4 5411.4L5623.5 788.898 5835.7 576.801H6135.7 6435.7V876.801L6223.5 1088.9 6435.7 1301.1V1601.1H6135.7 5835.7L5623.5 1388.9 5411.4 1601.1H5111.4" fill="#b07a26"/>
<path transform="matrix(.1,0,0,-.1,0,792)" stroke-width="20" stroke-linecap="butt" stroke-miterlimit="10" stroke-linejoin="miter" fill="none" stroke="#000000" d="M4811.4 1601.1V1301.1L5023.5 1088.9 4811.4 876.801V576.801H5111.4 5411.4L5623.5 788.898 5835.7 576.801H6135.7 6435.7V876.801L6223.5 1088.9 6435.7 1301.1V1601.1H6135.7 5835.7L5623.5 1388.9 5411.4 1601.1H5111.4Z"/>
<path transform="matrix(.1,0,0,-.1,0,792)" d="M4899.3 2113.2 5111.4 1901.1V1601.1H5411.4L5623.5 1388.9 5835.7 1601.1H6135.7V1901.1L6347.8 2113.2 6135.7 2325.3V2625.3H5835.7L5623.5 2837.5 5411.4 2625.3H5111.4V2325.3" fill="#f8c499"/>
<path transform="matrix(.1,0,0,-.1,0,792)" stroke-width="20" stroke-linecap="butt" stroke-miterlimit="10" stroke-linejoin="miter" fill="none" stroke="#000000" d="M4899.3 2113.2 5111.4 1901.1V1601.1H5411.4L5623.5 1388.9 5835.7 1601.1H6135.7V1901.1L6347.8 2113.2 6135.7 2325.3V2625.3H5835.7L5623.5 2837.5 5411.4 2625.3H5111.4V2325.3Z"/>
<path transform="matrix(.1,0,0,-.1,0,792)" d="M4899.3 4161.7 5111.4 3949.6V3649.6H5411.4L5623.5 3437.5 5835.7 3649.6H6135.7V3949.6L6347.8 4161.7 6135.7 4373.8V4673.8H5835.7L5623.5 4886 5411.4 4673.8H5111.4V4373.8" fill="#f8c499"/>
<path transform="matrix(.1,0,0,-.1,0,792)" stroke-width="20" stroke-linecap="butt" stroke-miterlimit="10" stroke-linejoin="miter" fill="none" stroke="#000000" d="M4899.3 4161.7 5111.4 3949.6V3649.6H5411.4L5623.5 3437.5 5835.7 3649.6H6135.7V3949.6L6347.8 4161.7 6135.7 4373.8V4673.8H5835.7L5623.5 4886 5411.4 4673.8H5111.4V4373.8Z"/>
<path transform="matrix(.1,0,0,-.1,0,792)" d="M4899.3 6210.2 5111.4 5998.1V5698.1H5411.4L5623.5 5486 5835.7 5698.1H6135.7V5998.1L6347.8 6210.2 6135.7 6422.4V6722.4H5835.7L5623.5 6934.5 5411.4 6722.4H5111.4V6422.4" fill="#f8c499"/>
<path transform="matrix(.1,0,0,-.1,0,792)" stroke-width="20" stroke-linecap="butt" stroke-miterlimit="10" stroke-linejoin="miter" fill="none" stroke="#000000" d="M4899.3 6210.2 5111.4 5998.1V5698.1H5411.4L5623.5 5486 5835.7 5698.1H6135.7V5998.1L6347.8 6210.2 6135.7 6422.4V6722.4H5835.7L5623.5 6934.5 5411.4 6722.4H5111.4V6422.4Z"/>
<path transform="matrix(.1,0,0,-.1,0,792)" d="M1050.7 6210.2 838.602 6422.4V6722.4H538.602L326.5 6934.5 114.301 6722.4H-185.699V6422.4L-397.801 6210.2-185.699 5998.1V5698.1H114.301L326.5 5486 538.602 5698.1H838.602V5998.1" fill="#f8c499"/>
<path transform="matrix(.1,0,0,-.1,0,792)" stroke-width="20" stroke-linecap="butt" stroke-miterlimit="10" stroke-linejoin="miter" fill="none" stroke="#000000" d="M1050.7 6210.2 838.602 6422.4V6722.4H538.602L326.5 6934.5 114.301 6722.4H-185.699V6422.4L-397.801 6210.2-185.699 5998.1V5698.1H114.301L326.5 5486 538.602 5698.1H838.602V5998.1Z"/>
<path transform="matrix(.1,0,0,-.1,0,792)" d="M1050.7 4161.7 838.602 4373.8V4673.8H538.602L326.5 4886 114.301 4673.8H-185.699V4373.8L-397.801 4161.7-185.699 3949.6V3649.6H114.301L326.5 3437.5 538.602 3649.6H838.602V3949.6" fill="#f8c499"/>
<path transform="matrix(.1,0,0,-.1,0,792)" stroke-width="20" stroke-linecap="butt" stroke-miterlimit="10" stroke-linejoin="miter" fill="none" stroke="#000000" d="M1050.7 4161.7 838.602 4373.8V4673.8H538.602L326.5 4886 114.301 4673.8H-185.699V4373.8L-397.801 4161.7-185.699 3949.6V3649.6H114.301L326.5 3437.5 538.602 3649.6H838.602V3949.6Z"/>
<path transform="matrix(.1,0,0,-.1,0,792)" d="M1050.7 2113.2 838.602 2325.3V2625.3H538.602L326.5 2837.5 114.301 2625.3H-185.699V2325.3L-397.801 2113.2-185.699 1901.1V1601.1H114.301L326.5 1388.9 538.602 1601.1H838.602V1901.1" fill="#f8c499"/>
<path transform="matrix(.1,0,0,-.1,0,792)" stroke-width="20" stroke-linecap="butt" stroke-miterlimit="10" stroke-linejoin="miter" fill="none" stroke="#000000" d="M1050.7 2113.2 838.602 2325.3V2625.3H538.602L326.5 2837.5 114.301 2625.3H-185.699V2325.3L-397.801 2113.2-185.699 1901.1V1601.1H114.301L326.5 1388.9 538.602 1601.1H838.602V1901.1Z"/>
<path transform="matrix(.1,0,0,-.1,0,792)" d="M2975 7534.5 3187.1 7746.6H3487.1V8046.6L3699.3 8258.8 3487.1 8470.9V8770.9H3187.1L2975 8983 2762.9 8770.9H2462.9V8470.9L2250.7 8258.8 2462.9 8046.6V7746.6H2762.9" fill="#f8c499"/>
<path transform="matrix(.1,0,0,-.1,0,792)" stroke-width="20" stroke-linecap="butt" stroke-miterlimit="10" stroke-linejoin="miter" fill="none" stroke="#000000" d="M2975 7534.5 3187.1 7746.6H3487.1V8046.6L3699.3 8258.8 3487.1 8470.9V8770.9H3187.1L2975 8983 2762.9 8770.9H2462.9V8470.9L2250.7 8258.8 2462.9 8046.6V7746.6H2762.9Z"/>
<path transform="matrix(.1,0,0,-.1,0,792)" d="M2975 788.898 2762.9 576.801H2462.9V276.801L2250.7 64.6992 2462.9-147.5V-447.5H2762.9L2975-659.602 3187.1-447.5H3487.1V-147.5L3699.3 64.6992 3487.1 276.801V576.801H3187.1" fill="#f8c499"/>
<path transform="matrix(.1,0,0,-.1,0,792)" stroke-width="20" stroke-linecap="butt" stroke-miterlimit="10" stroke-linejoin="miter" fill="none" stroke="#000000" d="M2975 788.898 2762.9 576.801H2462.9V276.801L2250.7 64.6992 2462.9-147.5V-447.5H2762.9L2975-659.602 3187.1-447.5H3487.1V-147.5L3699.3 64.6992 3487.1 276.801V576.801H3187.1Z"/>
<path transform="matrix(.1,0,0,-.1,0,792)" d="M5411.4 7746.6 5623.5 7534.5 5835.7 7746.6H6135.7V8046.6L6347.8 8258.8 6135.7 8470.9V8770.9H5835.7L5623.5 8983 5411.4 8770.9H5111.4V8470.9L4899.3 8258.8 5111.4 8046.6V7746.6" fill="#f8c499"/>
<path transform="matrix(.1,0,0,-.1,0,792)" stroke-width="20" stroke-linecap="butt" stroke-miterlimit="10" stroke-linejoin="miter" fill="none" stroke="#000000" d="M5411.4 7746.6 5623.5 7534.5 5835.7 7746.6H6135.7V8046.6L6347.8 8258.8 6135.7 8470.9V8770.9H5835.7L5623.5 8983 5411.4 8770.9H5111.4V8470.9L4899.3 8258.8 5111.4 8046.6V7746.6Z"/>
<path transform="matrix(.1,0,0,-.1,0,792)" d="M5111.4 7746.6V8046.6L4899.3 8258.8 5111.4 8470.9V8770.9H4811.4 4511.4L4299.3 8558.8 4087.1 8770.9H3787.1 3487.1V8470.9L3699.3 8258.8 3487.1 8046.6V7746.6H3787.1 4087.1L4299.3 7958.8 4511.4 7746.6H4811.4" fill="#b07a26"/>
<path transform="matrix(.1,0,0,-.1,0,792)" stroke-width="20" stroke-linecap="butt" stroke-miterlimit="10" stroke-linejoin="miter" fill="none" stroke="#000000" d="M5111.4 7746.6V8046.6L4899.3 8258.8 5111.4 8470.9V8770.9H4811.4 4511.4L4299.3 8558.8 4087.1 8770.9H3787.1 3487.1V8470.9L3699.3 8258.8 3487.1 8046.6V7746.6H3787.1 4087.1L4299.3 7958.8 4511.4 7746.6H4811.4Z"/>
<path transform="matrix(.1,0,0,-.1,0,792)" d="M2462.9 7746.6V8046.6L2250.7 8258.8 2462.9 8470.9V8770.9H2162.9 1862.9L1650.7 8558.8 1438.6 8770.9H1138.6 838.602V8470.9L1050.7 8258.8 838.602 8046.6V7746.6H1138.6 1438.6L1650.7 7958.8 1862.9 7746.6H2162.9" fill="#b07a26"/>
<path transform="matrix(.1,0,0,-.1,0,792)" stroke-width="20" stroke-linecap="butt" stroke-miterlimit="10" stroke-linejoin="miter" fill="none" stroke="#000000" d="M2462.9 7746.6V8046.6L2250.7 8258.8 2462.9 8470.9V8770.9H2162.9 1862.9L1650.7 8558.8 1438.6 8770.9H1138.6 838.602V8470.9L1050.7 8258.8 838.602 8046.6V7746.6H1138.6 1438.6L1650.7 7958.8 1862.9 7746.6H2162.9Z"/>
<path transform="matrix(.1,0,0,-.1,0,792)" d="M838.602 7746.6V8046.6L1050.7 8258.8 838.602 8470.9V8770.9H538.602L326.5 8983 114.301 8770.9H-185.699V8470.9L-397.801 8258.8-185.699 8046.6V7746.6H114.301L326.5 7534.5 538.602 7746.6" fill="#f8c499"/>
<path transform="matrix(.1,0,0,-.1,0,792)" stroke-width="20" stroke-linecap="butt" stroke-miterlimit="10" stroke-linejoin="miter" fill="none" stroke="#000000" d="M838.602 7746.6V8046.6L1050.7 8258.8 838.602 8470.9V8770.9H538.602L326.5 8983 114.301 8770.9H-185.699V8470.9L-397.801 8258.8-185.699 8046.6V7746.6H114.301L326.5 7534.5 538.602 7746.6Z"/>
<path transform="matrix(.1,0,0,-.1,0,792)" d="M538.602 576.801 326.5 788.898 114.301 576.801H-185.699V276.801L-397.801 64.6992-185.699-147.5V-447.5H114.301L326.5-659.602 538.602-447.5H838.602V-147.5L1050.7 64.6992 838.602 276.801V576.801" fill="#f8c499"/>
<path transform="matrix(.1,0,0,-.1,0,792)" stroke-width="20" stroke-linecap="butt" stroke-miterlimit="10" stroke-linejoin="miter" fill="none" stroke="#000000" d="M538.602 576.801 326.5 788.898 114.301 576.801H-185.699V276.801L-397.801 64.6992-185.699-147.5V-447.5H114.301L326.5-659.602 538.602-447.5H838.602V-147.5L1050.7 64.6992 838.602 276.801V576.801Z"/>
<path transform="matrix(.1,0,0,-.1,0,792)" d="M838.602 576.801V276.801L1050.7 64.6992 838.602-147.5V-447.5H1138.6 1438.6L1650.7-235.301 1862.9-447.5H2162.9 2462.9V-147.5L2250.7 64.6992 2462.9 276.801V576.801H2162.9 1862.9L1650.7 364.699 1438.6 576.801H1138.6" fill="#b07a26"/>
<path transform="matrix(.1,0,0,-.1,0,792)" stroke-width="20" stroke-linecap="butt" stroke-miterlimit="10" stroke-linejoin="miter" fill="none" stroke="#000000" d="M838.602 576.801V276.801L1050.7 64.6992 838.602-147.5V-447.5H1138.6 1438.6L1650.7-235.301 1862.9-447.5H2162.9 2462.9V-147.5L2250.7 64.6992 2462.9 276.801V576.801H2162.9 1862.9L1650.7 364.699 1438.6 576.801H1138.6Z"/>
<path transform="matrix(.1,0,0,-.1,0,792)" d="M3487.1 576.801V276.801L3699.3 64.6992 3487.1-147.5V-447.5H3787.1 4087.1L4299.3-235.301 4511.4-447.5H4811.4 5111.4V-147.5L4899.3 64.6992 5111.4 276.801V576.801H4811.4 4511.4L4299.3 364.699 4087.1 576.801H3787.1" fill="#b07a26"/>
<path transform="matrix(.1,0,0,-.1,0,792)" stroke-width="20" stroke-linecap="butt" stroke-miterlimit="10" stroke-linejoin="miter" fill="none" stroke="#000000" d="M3487.1 576.801V276.801L3699.3 64.6992 3487.1-147.5V-447.5H3787.1 4087.1L4299.3-235.301 4511.4-447.5H4811.4 5111.4V-147.5L4899.3 64.6992 5111.4 276.801V576.801H4811.4 4511.4L4299.3 364.699 4087.1 576.801H3787.1Z"/>
<path transform="matrix(.1,0,0,-.1,0,792)" d="M5111.4 576.801V276.801L4899.3 64.6992 5111.4-147.5V-447.5H5411.4L5623.5-659.602 5835.7-447.5H6135.7V-147.5L6347.8 64.6992 6135.7 276.801V576.801H5835.7L5623.5 788.898 5411.4 576.801" fill="#f8c499"/>
<path transform="matrix(.1,0,0,-.1,0,792)" stroke-width="20" stroke-linecap="butt" stroke-miterlimit="10" stroke-linejoin="miter" fill="none" stroke="#000000" d="M5111.4 576.801V276.801L4899.3 64.6992 5111.4-147.5V-447.5H5411.4L5623.5-659.602 5835.7-447.5H6135.7V-147.5L6347.8 64.6992 6135.7 276.801V576.801H5835.7L5623.5 788.898 5411.4 576.801Z"/>
</svg>
